<?xml version="1.0" encoding="utf-8"?>
<!-- Generator: Adobe Illustrator 16.0.0, SVG Export Plug-In . SVG Version: 6.00 Build 0)  -->
<!DOCTYPE svg PUBLIC "-//W3C//DTD SVG 1.1//EN" "http://www.w3.org/Graphics/SVG/1.1/DTD/svg11.dtd">
<svg version="1.1"
	 id="レイヤー_1" xmlns:sodipodi="http://sodipodi.sourceforge.net/DTD/sodipodi-0.dtd" xmlns:inkscape="http://www.inkscape.org/namespaces/inkscape" sodipodi:docname="Flag_of_the_United_Nations.svg" inkscape:version="0.48.2 r9819"
	 xmlns="http://www.w3.org/2000/svg" xmlns:xlink="http://www.w3.org/1999/xlink" x="0px" y="0px" width="1200px" height="800px"
	 viewBox="0 0 1200 800" enable-background="new 0 0 1200 800" xml:space="preserve">
<rect id="rect5" y="0" fill="#4B92DB" width="1200" height="800"/>
<path fill="#FFFFFF" d="M662.771,587.031c-2.693,3.078-6.18,5.955-9.466,8.607c-21.232-21.942-46.16-46.262-69.854-46.262
	c-14.689,0-25.27,11.182-37.613,19.071c-17.129,10.949-40.626,17.115-60.762,9.079c-10.83-4.111-21.322-10.169-29.164-20.009
	c15.848,10.93,39.581,12.399,57.472,4.977c19.775-8.204,39.903-19.099,62.441-19.099
	C609.048,543.396,640.622,565.868,662.771,587.031z"/>
<path fill="#FFFFFF" d="M417.23,518.016c21.995,25.039,57.87,16.983,87.233,23.236c4.087,0.871,7.927,2.228,12.313,1.555
	c-3.491-2.214-8.118-2.463-12.15-3.982c-22.783-8.583-26.335-32.966-38.804-49.748c15.925,10.588,29.119,25.082,44.012,38.704
	c10.364,9.479,23.277,13.536,36.67,16.261c-3.219,1.177-7.428,0.899-10.894,1.759c-24.057,5.968-50.728,15.388-76.325,6.94
	C442.768,547.289,425.577,534.379,417.23,518.016z"/>
<path fill="#FFFFFF" d="M381.972,460.066c13.721,31.063,48.191,33.496,71.111,52.553c4.358,3.623,8.679,6.958,13.466,9.19
	l0.247-0.25c-5.289-4.785-11.013-10.488-15.109-16.44c-13.1-19.034-8.74-45.052-18.841-65.231
	c9.177,10.987,17.784,22.303,23.068,34.883c8.503,20.246,11.392,43.342,30.463,58.727c-20.641-6.811-44.452-5.455-63.039-17.629
	C403.801,503.071,385.693,482.872,381.972,460.066L381.972,460.066z"/>
<path fill="#FFFFFF" d="M367.274,397.22c1.984,27.367,31.121,41.987,45.015,64.483c2.967,4.806,6.021,9.766,10.33,13.646
	c-0.672-2.913-3.069-5.495-4.39-8.354c-4.456-9.652-6.473-20.823-5.36-32.31c1.354-13.976,7.18-26.952,4.943-41.654
	c11.976,25.848,8.112,58.161,15.033,86.109c1.531,6.184,5.296,11.594,7.616,17.449c-11.766-8.95-27.186-16.896-40.101-27.075
	c-12.489-9.845-23.331-21.384-28.967-36.398C367.334,422.296,366.278,409.391,367.274,397.22L367.274,397.22z"/>
<path fill="#FFFFFF" d="M368.089,346.794c1.405-6.107,2.48-12.43,5.139-18.033c-5.032,25.817,12.144,44.466,18.007,66.802
	c2.21,8.418,2.966,17.361,6.37,25.215c0.317,0.171,0.593-0.159,0.789-0.414c-8.475-23.771,3.947-45.739,16.048-64.477
	c3.181-4.925,4.712-10.66,6.197-16.458c1.309,10.761-0.982,23.218-2.973,34.322c-2.563,14.296-7.449,27.694-11.333,41.487
	c-2.557,8.617-1.883,18.342-0.57,27.37l-1.233-0.984c-9.01-16.632-26.784-29.625-32.152-47.777
	C368.087,379.339,365.119,362.578,368.089,346.794L368.089,346.794z"/>
<path fill="#FFFFFF" d="M377.591,319.023c0-19.536,7.607-35.474,19.018-50.023c0.331-0.165,0.567-0.497,0.995-0.42
	c-12.563,19.108-1.129,43.229-2.743,64.901l-1.656,22.244c0.246,0.162,0.246,0.829,0.829,0.574c0.742-2.48,0.968-5.118,1.399-7.679
	c3.024-17.933,18.771-30.414,32.125-43.075c3.159-2.994,5.472-6.535,6.962-10.341c-1.111,8.933-3.603,18.09-7.612,26.207
	c-10.279,20.811-30.133,37.608-33.703,61.258C391.473,360.004,377.591,343.155,377.591,319.023z"/>
<path fill="#FFFFFF" d="M410.702,253.119c6.317-7.003,13.396-12.459,21.825-14.617c-16.366,11.254-15.478,31.367-20.488,48.184
	c-1.833,6.149-4.525,11.91-5.957,18.265l0.414,0.331c2.723-7.185,7.395-14.09,13.481-19.833
	c11.512-10.861,28.818-17.435,34.514-33.321c-0.26,22.077-19.078,38.858-36.266,51.842c-7.709,5.822-14.26,13.641-18.258,21.837
	c0.668-6.101,0.972-11.175,0.427-17.129C398.63,289.393,397.486,267.773,410.702,253.119L410.702,253.119z"/>
<path fill="#FFFFFF" d="M477.131,216.003c-12.146,10.658-20.251,24.376-29.582,36.709c-7.761,10.257-18.409,16.612-27.566,25.219
	c4.942-10.257,5.855-22.009,12.134-31.931C442.852,229.034,460.594,222.448,477.131,216.003z"/>
<path fill="#FFFFFF" d="M537.266,587.031c2.694,3.078,6.18,5.955,9.467,8.607c21.232-21.942,46.159-46.262,69.853-46.262
	c14.69,0,25.271,11.182,37.613,19.071c17.13,10.949,40.626,17.115,60.762,9.079c10.83-4.111,21.323-10.169,29.165-20.009
	c-15.849,10.93-39.581,12.399-57.472,4.977c-19.776-8.204-39.904-19.099-62.441-19.099
	C590.99,543.396,559.415,565.868,537.266,587.031z"/>
<path fill="#FFFFFF" d="M782.808,518.016c-21.996,25.039-57.871,16.983-87.233,23.236c-4.087,0.871-7.927,2.228-12.313,1.555
	c3.49-2.214,8.118-2.463,12.15-3.982c22.783-8.583,26.335-32.966,38.803-49.748c-15.925,10.588-29.118,25.082-44.011,38.704
	c-10.365,9.479-23.278,13.536-36.67,16.261c3.218,1.177,7.428,0.899,10.894,1.759c24.056,5.968,50.728,15.388,76.324,6.94
	C757.271,547.289,774.46,534.379,782.808,518.016z"/>
<path fill="#FFFFFF" d="M818.065,460.066c-13.72,31.063-48.191,33.496-71.111,52.553c-4.357,3.623-8.678,6.958-13.466,9.19
	l-0.247-0.25c5.289-4.785,11.013-10.488,15.109-16.44c13.101-19.034,8.74-45.052,18.841-65.231
	c-9.176,10.987-17.783,22.303-23.067,34.883c-8.504,20.246-11.393,43.342-30.464,58.727c20.642-6.811,44.452-5.455,63.039-17.629
	C796.237,503.071,814.345,482.872,818.065,460.066L818.065,460.066z"/>
<path fill="#FFFFFF" d="M832.763,397.22c-1.983,27.367-31.121,41.987-45.014,64.483c-2.968,4.806-6.021,9.766-10.33,13.646
	c0.672-2.913,3.069-5.495,4.389-8.354c4.456-9.652,6.473-20.823,5.361-32.31c-1.354-13.976-7.18-26.952-4.943-41.654
	c-11.976,25.848-8.112,58.161-15.034,86.109c-1.53,6.184-5.296,11.594-7.616,17.449c11.767-8.95,27.186-16.896,40.101-27.075
	c12.49-9.845,23.331-21.384,28.967-36.398C832.703,422.296,833.76,409.391,832.763,397.22L832.763,397.22z"/>
<path fill="#FFFFFF" d="M831.949,346.794c-1.406-6.107-2.481-12.43-5.139-18.033c5.031,25.817-12.144,44.466-18.008,66.802
	c-2.21,8.418-2.966,17.361-6.369,25.215c-0.317,0.171-0.593-0.159-0.789-0.414c8.474-23.771-3.948-45.739-16.049-64.477
	c-3.181-4.925-4.712-10.66-6.197-16.458c-1.308,10.761,0.982,23.218,2.974,34.322c2.563,14.296,7.449,27.694,11.332,41.487
	c2.557,8.617,1.883,18.342,0.571,27.37l1.233-0.984c9.009-16.632,26.784-29.625,32.152-47.777
	C831.951,379.339,834.919,362.578,831.949,346.794L831.949,346.794z"/>
<path fill="#FFFFFF" d="M822.446,319.023c0-19.536-7.607-35.474-19.018-50.023c-0.331-0.165-0.566-0.497-0.994-0.42
	c12.562,19.108,1.128,43.229,2.742,64.901l1.657,22.244c-0.246,0.162-0.246,0.829-0.829,0.574c-0.743-2.48-0.968-5.118-1.399-7.679
	c-3.024-17.933-18.771-30.414-32.126-43.075c-3.158-2.994-5.472-6.535-6.961-10.341c1.11,8.933,3.603,18.09,7.612,26.207
	c10.279,20.811,30.132,37.608,33.703,61.258C808.565,360.004,822.446,343.155,822.446,319.023z"/>
<path fill="#FFFFFF" d="M789.335,253.119c-6.316-7.003-13.396-12.459-21.824-14.617c16.366,11.254,15.478,31.367,20.488,48.184
	c1.832,6.149,4.525,11.91,5.956,18.265l-0.414,0.331c-2.723-7.185-7.395-14.09-13.481-19.833
	c-11.512-10.861-28.817-17.435-34.514-33.321c0.261,22.077,19.078,38.858,36.267,51.842c7.708,5.822,14.26,13.641,18.257,21.837
	c-0.668-6.101-0.971-11.175-0.426-17.129C801.407,289.393,802.552,267.773,789.335,253.119L789.335,253.119z"/>
<path fill="#FFFFFF" d="M722.906,216.003c12.146,10.658,20.251,24.376,29.582,36.709c7.761,10.257,18.409,16.612,27.567,25.219
	c-4.943-10.257-5.856-22.009-12.134-31.931C757.187,229.034,739.444,222.448,722.906,216.003z"/>
<path id="path51" inkscape:connector-curvature="0" fill="#FFFFFF" d="M748.354,436.68l-3.587-1.958
	c-7.606,15.687-17.679,29.961-29.727,42.309l-20.959-20.959c10.269-10.581,18.547-22.591,24.646-35.571l-3.571-1.952
	c-6.029,12.871-14.142,24.582-23.924,34.672l-18.986-18.985c8.15-8.474,14.618-18.142,19.286-28.589l-3.543-1.934
	c-4.572,10.297-10.879,19.661-18.584,27.687l-20.982-20.981c5.835-6.184,10.34-13.298,13.406-20.997l-3.544-1.934
	c-2.93,7.508-7.261,14.323-12.686,20.104l-19.044-19.041c5.425-6.055,8.571-13.65,9.017-21.766h26.956
	c-0.229,7.284-1.722,14.251-4.243,20.703l3.544,1.934c2.837-7.133,4.439-14.763,4.668-22.637h29.715
	c-0.267,13.118-3.192,25.594-8.225,36.929l3.544,1.934c5.403-12.102,8.389-25.251,8.653-38.864h26.904
	c-0.282,18.475-4.545,35.993-11.935,51.766l3.571,1.952c7.813-16.624,12.058-34.845,12.338-53.718h29.713
	c-0.296,24.319-6.025,47.345-16.012,67.939L748.354,436.68c10.743-22.128,16.446-46.563,16.446-71.884
	c0-21.533-4.126-42.423-11.964-61.803l-3.682,1.582c7.382,18.288,11.384,37.955,11.63,58.234h-29.717
	c-0.241-16.178-3.421-31.866-9.236-46.49l-3.654,1.566c5.609,14.138,8.681,29.294,8.918,44.924h-26.908
	c-0.229-11.914-2.554-23.474-6.747-34.29l-3.654,1.57c3.988,10.322,6.2,21.353,6.433,32.72H666.5
	c-0.211-7.264-1.587-14.328-4.027-20.981l-3.653,1.567c2.241,6.163,3.501,12.695,3.712,19.414h-26.956
	c-0.445-8.116-3.592-15.711-9.017-21.765l19.063-19.061c5.887,6.261,10.339,13.531,13.199,21.412l3.653-1.567
	c-3.061-8.336-7.797-16.027-14.048-22.652l21.014-21.011c8.966,9.333,15.811,20.169,20.347,31.924l3.654-1.57
	c-4.735-12.21-11.865-23.468-21.192-33.162l19.025-19.028c11.783,12.151,20.836,26.253,26.903,41.558l3.654-1.566
	c-6.269-15.762-15.604-30.285-27.749-42.796l21.011-21.014c14.858,15.222,26.32,32.885,34.061,52.065l3.682-1.582
	c-8.179-20.239-20.405-38.828-36.306-54.729c-15.959-15.961-34.63-28.215-54.957-36.395l-1.464,3.728
	c19.223,7.742,36.925,19.218,52.175,34.104l-21.01,21.013c-12.3-11.92-26.55-21.159-42.021-27.42l-1.45,3.695
	c14.959,6.069,28.748,15.006,40.663,26.564l-19.024,19.025c-9.249-8.896-19.914-15.807-31.476-20.537l-1.452,3.695
	c11.063,4.533,21.264,11.146,30.12,19.651l-21.01,21.01c-5.91-5.57-12.668-9.942-19.971-12.992l-1.453,3.698
	c6.806,2.853,13.099,6.921,18.615,12.104l-19.06,19.06c-6.059-5.426-13.651-8.571-21.77-9.014v-26.955
	c7.747,0.238,15.247,1.884,22.214,4.807l1.453-3.698c-7.424-3.102-15.418-4.839-23.667-5.081v-29.716
	c12.032,0.241,23.69,2.687,34.528,7.128l1.452-3.695c-11.294-4.621-23.445-7.16-35.98-7.401v-26.921
	c15.956,0.244,31.427,3.426,45.815,9.26l1.45-3.695c-14.847-6.015-30.803-9.29-47.267-9.534v-29.719
	c20.24,0.244,39.871,4.233,58.125,11.584l1.464-3.728c-19.314-7.776-40.126-11.874-61.572-11.874
	c-26.495,0-51.529,6.321-73.729,17.477l1.811,3.467c21.482-10.765,45.249-16.629,69.933-16.927v29.721
	c-20.131,0.299-39.152,5.184-56.116,13.607l1.805,3.457c16.713-8.273,35.161-12.807,54.312-13.099v26.909
	c-14.969,0.295-29.133,3.896-41.81,10.082l1.815,3.473c12.341-5.99,25.911-9.302,39.995-9.585v29.719
	c-9.34,0.276-18.197,2.488-26.195,6.241l1.825,3.485c7.565-3.517,15.82-5.493,24.37-5.758v26.959
	c-4.182,0.232-8.17,1.187-11.847,2.737l1.822,3.483c3.76-1.539,7.822-2.35,12.009-2.35c8.467,0,16.427,3.297,22.414,9.283
	c5.987,5.987,9.284,13.948,9.284,22.417c0,17.478-14.217,31.701-31.698,31.701c-8.469,0-16.43-3.298-22.417-9.285
	c-5.987-5.99-9.284-13.949-9.284-22.417s3.297-16.43,9.284-22.417c3.029-3.027,6.562-5.358,10.407-6.933l-1.822-3.484
	c-3.652,1.543-6.995,3.675-9.909,6.285l-19.071-19.071c4.927-4.63,10.475-8.373,16.456-11.152l-1.825-3.485
	c-6.433,3.019-12.307,7.031-17.42,11.852l-21.032-21.033c7.376-7.085,15.694-12.842,24.653-17.193l-1.815-3.473
	c-9.462,4.617-18.1,10.668-25.611,17.89l-19.06-19.058c9.619-9.334,20.476-16.938,32.168-22.725l-1.805-3.457
	c-12.239,6.079-23.417,13.991-33.13,23.417l-21.055-21.055c12.07-11.783,25.689-21.406,40.368-28.764l-1.811-3.466
	c-32.088,16.125-58.21,42.403-74.117,74.617l3.452,1.863c7.419-15.088,17.23-29.077,29.301-41.445l21.056,21.057
	c-9.795,10.091-17.979,21.749-24.142,34.556l3.44,1.857c5.87-12.264,13.74-23.621,23.464-33.648l19.061,19.059
	c-7.683,7.992-14.039,17.259-18.751,27.437l3.447,1.86c4.438-9.676,10.503-18.636,18.079-26.521l21.032,21.033
	c-5.376,5.703-9.755,12.354-12.863,19.673l3.476,1.88c2.856-6.864,6.95-13.212,12.173-18.768l19.071,19.069
	c-5.236,5.853-8.561,13.418-9.021,21.756h-26.962c0.239-7.688,1.86-15.136,4.739-22.059l-3.476-1.88
	c-3.141,7.393-4.981,15.469-5.233,23.938h-29.715c0.268-13.373,3.267-26.286,8.699-38.124l-3.447-1.86
	c-5.654,12.208-8.94,25.731-9.218,39.984h-26.913c0.282-18.584,4.546-36.512,12.358-52.832l-3.439-1.856
	c-7.994,16.6-12.592,35.129-12.884,54.688h-29.721c0.292-24.271,5.964-47.657,16.387-68.854l-3.452-1.863
	c-10.835,21.946-16.952,46.619-16.952,72.704c0,15.956,2.278,31.551,6.632,46.448l3.893-0.979
	c-4.093-13.96-6.326-28.553-6.507-43.482h29.717c0.183,12.448,2.101,24.611,5.621,36.224l3.854-0.972
	c-3.446-11.297-5.32-23.136-5.506-35.252h26.907c0.194,9.869,1.822,19.498,4.753,28.662l3.859-0.974
	c-2.857-8.847-4.446-18.152-4.64-27.688h29.715c0.207,7.058,1.513,13.926,3.823,20.412l3.862-0.975
	c-2.239-6.169-3.507-12.711-3.717-19.437h26.959c0.445,8.115,3.589,15.711,9.014,21.766l-19.061,19.062
	c-5.88-6.259-10.332-13.519-13.196-21.391l-3.861,0.975c3.05,8.554,7.857,16.447,14.25,23.223l-21.011,21.012
	c-10.22-10.64-17.699-23.25-22.13-36.95l-3.859,0.974c4.601,14.386,12.444,27.62,23.191,38.79l-19.029,19.03
	c-14.23-14.675-24.508-32.179-30.315-51.232l-3.854,0.972c5.984,19.736,16.617,37.877,31.36,53.066l-21.011,21.013
	c-18.597-19.055-31.878-41.923-39.181-66.819l-3.892,0.979c7.659,26.211,21.79,50.236,41.638,70.081
	c13.441,13.443,28.804,24.265,45.459,32.238l1.973-3.498c-15.764-7.512-30.345-17.635-43.189-30.177l21.01-21.009
	c10.92,10.599,23.372,19.051,36.836,25.208l1.961-3.478c-13.157-5.971-25.325-14.202-35.986-24.537l19.027-19.028
	c8.918,8.579,19.157,15.306,30.245,20.017l1.959-3.472c-10.771-4.521-20.729-11.021-29.39-19.34l21.013-21.012
	c6.752,6.369,14.612,11.166,23.133,14.219l1.985-3.517c-8.225-2.848-15.81-7.402-22.31-13.51l19.061-19.063
	c6.055,5.43,13.646,8.573,21.766,9.019v26.958c-6.395-0.197-12.62-1.365-18.517-3.403l-1.985,3.517
	c6.514,2.337,13.408,3.647,20.502,3.855v29.714c-12.296-0.246-24.21-2.792-35.249-7.423l-1.959,3.472
	c11.641,4.948,24.215,7.672,37.208,7.923v26.909c-17.706-0.273-34.806-4.165-50.494-11.283l-1.96,3.478
	c16.284,7.441,34.056,11.501,52.455,11.776v29.712c-23.603-0.284-46.381-5.634-67.111-15.51l-1.973,3.497
	c21.909,10.487,46.061,16.031,71.069,16.031c26.233,0,51.51-6.13,74.259-17.64l-1.879-3.644
	c-21.215,10.743-45.098,16.954-70.396,17.265v-29.713c20.059-0.297,39.368-5.104,56.813-13.88l-1.854-3.596
	c-16.583,8.352-35.222,13.196-54.959,13.503v-26.909c15.05-0.29,29.535-3.9,42.657-10.445l-1.844-3.579
	c-12.345,6.157-26.175,9.755-40.813,10.054v-29.713c9.585-0.281,18.813-2.588,27.211-6.698l-1.832-3.558
	c-7.713,3.765-16.301,5.997-25.38,6.284V400.41c8.118-0.444,15.711-3.588,21.77-9.018l19.041,19.043
	c-4.56,4.279-9.757,7.876-15.431,10.646l1.832,3.558c5.948-2.913,11.487-6.719,16.426-11.377l20.978,20.979
	c-7.003,6.729-15.028,12.383-23.802,16.756l1.844,3.579c8.998-4.486,17.362-10.34,24.799-17.492l18.986,18.983
	c-9.249,8.97-19.865,16.519-31.482,22.361l1.854,3.596c11.798-5.932,22.748-13.66,32.477-23.106l20.959,20.959
	c-11.693,11.413-25.137,21.024-39.852,28.473l1.879,3.645c15.419-7.803,29.693-18.053,42.271-30.63
	c13.222-13.22,23.891-28.306,31.825-44.646L748.354,436.68z"/>
<polygon id="polygon59" fill="#FFFFFF" points="608.438,326.697 608.486,327.889 609.489,327.841 609.434,326.656 "/>
<rect id="rect61" x="606.979" y="325.07" fill="#FFFFFF" width="1.328" height="1.013"/>
<polygon id="polygon63" fill="#FFFFFF" points="605.752,324.891 605.893,323.89 604.726,323.723 604.584,324.716 "/>
<polygon id="rect65" fill="#FFFFFF" points="603.601,324.377 602.44,324.209 602.581,323.205 603.741,323.373 "/>
<rect id="rect67" x="594.021" y="323.04" fill="#FFFFFF" width="1.327" height="1.013"/>
<polygon id="polygon69" fill="#FFFFFF" points="592.284,325.225 592.426,324.224 591.266,324.057 591.125,325.058 "/>
<polygon id="rect71" fill="#FFFFFF" points="591.244,326.586 589.912,326.248 590.154,325.266 591.486,325.605 "/>
<polygon id="rect73" fill="#FFFFFF" points="588.864,327.833 588.699,326.821 589.684,326.655 589.849,327.667 "/>
<polygon id="polygon75" fill="#FFFFFF" points="457.869,429.662 457.039,429.662 457.039,431.348 458.371,431.348 458.371,433.543 
	459.374,433.543 459.201,431.014 457.869,430.505 "/>
<polygon id="polygon77" fill="#FFFFFF" points="467.185,441.979 466.519,440.46 465.352,437.423 467.843,438.6 468.681,440.961 
	469.841,441.812 471.008,444.34 470.342,445.517 468.517,443.831 "/>
<polygon id="polygon79" fill="#FFFFFF" points="504.586,489.216 503.254,487.189 505.252,487.531 507.406,489.383 508.245,491.578 
	507.077,492.254 506.411,491.244 504.751,490.735 "/>
<path id="path81" fill="#FFFFFF" d="M594.85,337.55h-1.827l-0.333-3.711l0.997-0.678v-1.854h-5.818l-0.166-1.854l0.833-0.507
	l-1.331-0.506l-0.999,1.349l-0.329,1.519l-1.663,0.339v0.842h-1.163v2.193l-4.656,3.88l-9.308-0.336
	c-0.668,1.518-2.331-0.171-2.331-0.171c-0.329-1.012-2.655,0-2.655,0c0,1.858-3.159-0.842-3.159-0.842l-5.819-4.219
	c-3.324-3.037-8.311,0.845-8.476,1.687c0.165,2.362-3.823,0.507-3.823,0.507s-3.324-1.012-3.824,0.339
	c-0.497,1.349-2.662,1.013-2.662,1.013l-0.333,0.675l-1.663,0.337l-0.33,1.012l-1.996,0.338l4.985-0.169
	c1.332-0.169-0.499,2.869-1.328,2.7l-2.325,0.169l-0.834,0.842h-2.16l-0.997,1.353l-3.156-0.17c0,0-1.831,1.519-1.662,2.024
	c0.166,0.506-0.333,2.024-0.833,2.024c-0.499,0-1.496,1.519-1.163,2.024c0.334,0.506-0.997,2.193-0.997,2.193l-0.331,1.688
	l-0.997,0.336v4.556l-1.996,1.351v2.023l-2.994,3.206l0.335,2.697l-2.492,2.7l0.33,2.699l-1.496,0.507l-0.331,1.181l-0.664,3.541
	l1.662,0.172c0.829-0.339,0.664,2.192,0,2.528c-0.668,0.338-2.496,1.012-1.497,1.687c0.998,0.677-2.66,0.507-2.66-0.506
	c0-1.01-1.995-1.855-2.492-1.517c-0.5,0.336-1.332-1.519-1.332-1.519c-1.827-1.855-7.479,0.168-7.479,0.168l-0.834,2.699
	c-1.826,0.339-2.989,3.375-2.989,3.375c-1.497,0.507-2.66,2.36-2.161,2.867c0.498,0.507-0.833,0.674-0.833,0.674v3.714l-0.83,1.181
	l0.164,4.048c0.999,0,0.834,1.857,0.834,1.857c-1.663,0.168-1.333,2.362-1.333,2.362l-3.489,1.18l-0.664,1.012l-4.321-0.17
	l-1.163,1.183l-1.167-1.183h-8.312l-0.33-0.843l-1.663-0.339l-0.167-1.854l-2.492,0.168l-0.498,1.012l-2.662,0.168
	c0.166,1.688-2.659,4.22-2.989,3.546c-0.337-0.676-2.164-2.533-1.331-2.867c0.832-0.34,2.994-0.679,2.994-0.679v-1.18l-6.153-0.168
	l-0.662,1.013l-2.497,0.167v2.7l-1.162,0.338c-0.833,0.505,0.165,2.362,0.165,2.362c1.163,1.18-0.165,3.034-0.165,3.034
	c-0.999,1.014,0.829,2.871,0.829,2.871c1.332,0.335-0.829,1.348-0.829,1.348c0.33,1.687,1.329,2.193,1.329,2.193
	c-0.999,1.687,0.667,2.528,0.667,2.528l0.165,2.871l1.163,0.676v1.852l0.664,1.183h2.66l-0.166-4.218
	c-2.328-2.699,1.993-3.375,2.162-2.364c0.168,1.013,1.995,1.52,1.995,1.52c0.333,2.531,3.16,4.048,3.989,1.521
	c0.832-2.534,1.496-1.014,1.995,0.166c0.499,1.182,3.654,4.051,3.654,4.051h2.495l0.334,2.362c2.825-0.169,3.654,0.172,4.817,4.048
	c1.167,3.879,4.323,4.892,4.323,4.892l2.328-0.169c0-2.021,2.328,0.342,2.328,1.354c0,1.009,4.487,4.89,4.487,4.89l4.486,1.01
	l4.161,3.379l3.155-0.338h1.332c0.829-2.871,4.82,0.166,5.15,1.179c0.335,1.014,2.994,2.7,3.324,1.855
	c0.335-0.842,2.162-0.335,2.496,2.192c0.331,2.534,1.493,2.027,1.493,2.027l9.477-0.169l3.324-2.871l8.479-0.166
	c4.321-0.169,1.662-6.075,0.833-6.075c-1.497-1.179,0.496-6.072,0.496-6.072l-12.135-11.303c-2.825,0-0.333-4.051-0.333-4.051
	c2.161-1.352-0.5-3.541-0.5-3.541c0.335-2.027-1.163-4.389-1.163-4.389c-2.989-2.024-2.16-5.906-2.16-5.906v-2.7
	c-2.492-2.358,0.998-2.7,0.998-2.7c1.161-2.021-0.833-3.539-0.833-3.539l-0.165-2.194l-2.661-0.339l-0.33-7.93l-5.983-8.602
	c-1.167-0.341-0.335-2.362-0.335-2.362c1.497-0.845-0.334-2.867-0.334-2.867l-0.165-3.712l3.489-0.34l0.832-1.348h1.662
	l-0.165-4.387c0.829-2.193,2.824-1.014,2.824-1.014l2.327,0.17l1.331-2.531l0.33-2.025l-1.826-0.167
	c-1.995-1.182-0.998-5.567-0.998-5.567c3.159-4.725,6.813-2.025,6.813-2.025l2.33-0.167c3.489,2.36,0.329,6.747,0.329,6.747
	c-0.664,1.013-0.329,4.218-0.329,4.218l0.829,5.396l-2.16,1.858c-1.828,1.013-1.828,3.374,0.167,3.88
	c1.329,0.167,0.83,3.374-1.165,1.181c-2.99,0,1.665,2.699,0.334,2.021c2.994,1.52,2.325-1.349,2.325-1.349l3.993-3.206
	c1.497-1.18,4.157,2.533,4.157,3.039s6.648,0.167,6.648,0.167c1.827,1.181,2.492,4.219,2.492,4.219
	c1.831-2.363,5.652-0.171,2.827,1.181c2.657,1.687,2.657,3.205,2.657,3.205c2.164-0.675,2.164,1.012,2.164,1.519
	s0.664-2.53,0.664-2.53c-2.493-1.856,3.324-2.53,1.663,0.844l-0.999,1.52l1.664,1.349l0.164,3.882
	c3.658-0.339,2.66-4.895,2.66-4.895l1.663-0.336c0-1.52,1.161-0.676,1.161-0.676c-1.161-5.737,2.662-6.747,2.662-6.747
	c2.16-0.507,2.325-5.064,2.325-5.064c-1.493-0.674-0.665-3.035,0.998-1.009c1.661,2.021-0.998-4.052-0.998-4.052l-1.328-1.181
	l-1.828-0.168l-0.168-1.856h-2.989l-0.5,2.363l-1.163,0.337l-0.335-0.676l-0.497,1.856h-2.991l-0.165-2.024l1.827-0.506l0.666-1.013
	l0.497-2.7h2.162l2.825-0.842c0.165-2.868,1.662-2.192,1.662-2.192l0.997,0.843l1.496,1.181l0.167,1.011l-0.999,0.505l-0.164,1.353
	l0.499,1.854h1.328c0.499-2.699,3.992-2.699,4.988-1.012l0.998-2.362c-2.327-1.181-0.043-3.038,0.621-2.193
	c0.665,0.845,2.204-2.192,2.204-2.192s1.163,1.519,0-0.507s0.83-3.036,0.83-3.036c-0.331-2.024,2.162-1.688,2.162-1.688l0.167-2.698
	l-2.329-0.171c-0.495,2.362-2.491,0.339-1.494-0.167c0.999-0.507,1.993-1.52,1.993-1.52v-1.687l0.998-0.338l0.165-1.687h2.495
	l2.161-1.012l0.499-0.845l2.325-0.167l3.324-3.038l-0.329-1.349c-1.996,0,0-1.519,0-1.519L594.85,337.55L594.85,337.55z"/>
<path id="path83" fill="#FFFFFF" d="M527.86,370.95l-2.993-0.338l0.168,1.181h0.829c1.329,2.362,0.167,8.098,0.167,8.098
	s-1.993,0.167-2.327-0.843c-0.33-1.012-1.164,2.193-0.499,2.7c0.664,0.503,2.993,0,3.158,1.856c0.165,1.854,1.497-1.182,1.497-1.182
	V370.95L527.86,370.95z"/>
<polygon id="polygon85" fill="#FFFFFF" points="526.522,385.63 524.861,384.62 524.861,388.667 527.525,392.205 528.521,389.844 
	528.857,388.325 527.689,387.824 527.854,385.296 528.857,385.121 529.021,383.936 "/>
<polygon id="polygon87" fill="#FFFFFF" points="529.187,394.233 528.026,394.4 527.854,395.751 529.187,395.918 "/>
<polygon id="polygon89" fill="#FFFFFF" points="527.689,402.836 526.279,403.003 526.279,404.188 527.689,404.021 "/>
<path id="path91" fill="#FFFFFF" d="M529.65,398.83c0.389,0,0.702-0.319,0.702-0.714c0-0.397-0.313-0.717-0.702-0.717
	c-0.39,0-0.705,0.318-0.705,0.717C528.945,398.511,529.261,398.83,529.65,398.83z"/>
<ellipse id="circle93" fill="#FFFFFF" cx="530.808" cy="401.659" rx="0.705" ry="0.716"/>
<ellipse id="circle95" fill="#FFFFFF" cx="530.847" cy="382.385" rx="0.705" ry="0.715"/>
<polygon id="polygon97" fill="#FFFFFF" points="585.374,367.239 585.711,365.219 585.829,363.7 586.542,362.683 588.532,361.84 
	588.532,358.636 587.537,358.636 587.372,357.451 585.539,357.284 585.21,358.127 584.38,358.127 584.207,359.479 585.21,359.479 
	585.374,360.489 584.708,361.164 584.38,362.007 583.048,362.349 580.055,365.219 579.891,366.563 579.06,367.747 578.065,370.277 
	574.571,370.444 573.905,373.481 574.398,376.009 577.392,377.194 577.729,375.508 578.723,374.999 578.896,373.314 
	579.554,372.129 580.557,370.952 580.886,369.6 582.546,368.59 584.544,368.248 "/>
<path id="path99" fill="#FFFFFF" d="M592.021,368.93v-2.362l-0.335-2.193l-2.49-1.181l-1.828,1.688l-0.335,2.362v1.518l-1.661,0.338
	l-0.335,4.555l-1.328,0.508l0.166,1.687l-1.827,0.506l-1.828,0.507l-0.333,2.192l-1.328,0.843l-0.669,2.025l-0.829,4.893
	c0,0,1.498,2.868,2.327,1.518c0.832-1.349,2.161-1.518,2.161-1.518l0.499-1.182l4.488,0.169c0.333-1.857,2.493-1.181,2.493-0.338
	c0,0.844,1.663,0.168,1.663,0.168l1.163-1.854h1.827l0.166-2.024l0.833-0.506v-3.038c2.66-0.843,2.325-3.374,2.325-3.374
	l0.669-0.842l-0.334-1.18c-1.332-0.509-0.668-1.69,0.164-1.353c0.834,0.337-1.163-1.519-1.163-1.519
	c-0.996,0.845-1.826-1.012-1.826-1.012H592.021L592.021,368.93z"/>
<path id="path101" fill="#FFFFFF" d="M594.68,389.34c-0.165,2.023-2.66,2.699-2.66,2.699l-1.828-0.506l-0.996-0.844l-0.167-2.362
	l1.495-0.167l0.333,1.013L594.68,389.34L594.68,389.34z"/>
<path id="path103" fill="#FFFFFF" d="M603.66,378.55c0.359,1.471,0.33-2.365,0.995-2.193c0.664,0.167,0.167-2.361,0.167-2.361
	l-2.992,2.189C603.325,376.357,603.491,377.875,603.66,378.55L603.66,378.55z"/>
<path id="path105" fill="#FFFFFF" d="M612.47,369.77c0.665,1.52,0.5,3.713,2.99,5.4c0.842,0.568-0.499,1.688-1.331,1.18
	c-0.83-0.505-3.155-4.219-3.155-4.219v-2.192C611.472,368.59,612.182,369.116,612.47,369.77z"/>
<polygon id="polygon107" fill="#FFFFFF" points="613.633,420.209 612.474,421.06 612.967,421.561 613.461,422.404 614.628,420.551 
	"/>
<line id="line109" fill="none" x1="608.31" y1="418.36" x2="608.31" y2="420.39"/>
<polygon id="polygon111" fill="#FFFFFF" points="633.682,415.073 633.148,414.222 631.824,415.057 632.35,415.915 "/>
<path id="path113" fill="#FFFFFF" d="M680.46,451.09l1.498,0.672l0.164,2.868c1.996,2.024,8.479,0.338,8.479-0.168
	c0-0.508-0.335-6.242-0.335-6.242l-0.832-0.844l-0.165-4.221c0.665-2.193-3.159-5.398-3.491-4.721
	c-0.333,0.673-2.493,0.165-2.493,0.842c0,0.673-1.328,4.048-0.665,5.23c0.665,1.182-0.499,1.182-0.664,2.361
	C681.791,448.049,680.127,450.076,680.46,451.09L680.46,451.09z"/>
<path id="path115" fill="#FFFFFF" d="M676.8,444.34c-0.314,1.278-1.493,2.024-2.157,1.517c-0.669-0.507,0.826,0.842,1.161,1.521
	c0.332,0.673,1.328,0.673,1.663,0c0.33-0.68,0.165-2.193,0.5-2.868C678.296,443.833,676.968,443.664,676.8,444.34L676.8,444.34z"/>
<rect id="rect117" x="669.07" y="413.39" fill="#FFFFFF" width="1.161" height="3.207"/>
<path id="path119" fill="#FFFFFF" d="M686.28,380.91c-0.726-0.983,3.324-2.7,3.988-0.675c0.664,2.022,0,1.688-0.664,1.519
	C688.938,381.584,687.278,382.258,686.28,380.91L686.28,380.91z"/>
<polygon id="polygon123" fill="#FFFFFF" points="689.682,359.304 691.507,359.638 691.688,358.644 689.854,358.31 "/>
<polygon id="polygon125" fill="#FFFFFF" points="685.317,361.522 686.242,361.149 685.905,360.306 685.694,359.773 685.2,360.051 
	683.963,360.751 682.882,360.067 682.356,360.918 683.688,361.761 683.939,361.919 684.189,361.777 685.192,361.212 "/>
<path id="path127" fill="#FFFFFF" d="M691.43,320.17h-2.495c0,0,0.832,0.337-1.493-1.856c-2.33-2.193-3.824,0.506-3.824,0.506
	l-2.659,0.338v2.699l-1.332,0.506l0.169,1.688l1.827-0.168c0,0,0,2.023,0.499,1.181c0.5-0.844,4.656,0.167,4.322,2.193
	c-0.136,0.831,4.158,3.035,3.659,5.734c2.16,0.339,1.662,2.532,1.662,2.532l2.824,0.337l0.833-1.688l0.829,0.17v-1.013l-1.83-0.506
	l-0.33-5.399l-1.164-0.844l0.332-1.351l-1.329-0.506l0.665-2.193L691.43,320.17L691.43,320.17z"/>
<path id="path129" fill="#FFFFFF" d="M698.74,337.38l-1.329-0.167l-2.996,0.506l-1.659,3.205c0,0,0.83,0.506,1.493,1.687
	c0.665,1.183,0.998,8.098-0.996,9.28c-1.993,1.182,0.168,0.504,0.168,0.504l-0.335,3.713c0.5,1.687,1.329,0.845,1.828,0
	c0.503-0.842,1.002-1.011,1.666-1.854c0.665-0.846,1.661-2.362,1.828-3.545c0.164-1.18,0.996-3.035,0.497-3.541
	c-0.497-0.507,0.5-2.867,0.5-2.867s0.664-1.352,0-2.7c-0.664-1.351,0.165-2.869,0.664-3.545L698.74,337.38L698.74,337.38z"/>
<polygon id="rect133" fill="#FFFFFF" points="700.75,344.263 700.92,342.912 701.911,343.041 701.741,344.392 "/>
<polygon id="rect135" fill="#FFFFFF" points="700.689,348.924 699.8,348.472 700.299,347.461 701.188,347.913 "/>
<path id="path137" fill="#FFFFFF" d="M699.24,335.53l-0.668-1.52c0,0,0-1.348,0.333-2.024c0.335-0.675-0.664-1.348-1.162-1.518
	c-0.498-0.169-0.331-1.518-0.498-2.193c-0.166-0.675-1.328-1.181-1.328-1.181s-0.336-2.53-0.336-3.036
	c0-0.507-1.495-1.181-0.996-1.688c0.5-0.506,0.833-1.181,1.332-1.52c0.499-0.337-0.5-2.699,0.329-2.193
	c0.833,0.508,0.833,1.351,1.166,2.025c0.332,0.674-0.167,3.037,0.665,3.544c0.829,0.505-0.168,2.191,1.163,2.191
	c1.328,0,0.5,3.206,0.5,3.206s-0.335,2.361,0.495,2.531c0.832,0.168,0.334,4.217,0.334,4.217L699.24,335.53L699.24,335.53z"/>
<path id="path139" fill="#FFFFFF" d="M688.44,308.19c0.496,0.675,1.494,1.18,1.494,1.856c0,0.676-0.331,1.181,0.668,1.35
	c0.995,0.168,1.661-0.169,1.993,0.675c0.333,0.843,0.333,2.192,0.167,2.867c-0.167,0.676,0.166,1.688,0.995,1.688
	c0.833,0,0.998,0.17,0.998,0.676c0,0.505,0.998-1.857,0.998-1.857c-0.833-0.674-1.498-2.193-1.498-2.193s-0.829-2.361-0.829-2.699
	c0-0.337-1.163-0.676-1.661-0.843c-0.5-0.17-1.332-1.687-1.332-1.687L688.44,308.19L688.44,308.19z"/>
<path id="path141" fill="#FFFFFF" d="M690.1,306.68c-0.499-0.677-0.999-1.183-1.663-1.518c-0.662-0.339-1.161-0.676-1.829-0.676
	c-0.664,0-1.328-0.676-0.998-1.519c0.335-0.844-0.5-1.182-0.5-1.857c0-0.674,0.5-0.674,1.332-0.167
	c0.833,0.506,0.664,0.674,1.333,1.519c0.662,0.844,0.994,1.687,1.657,1.518c0.668-0.169,1.167,1.518,1.831,1.012
	c0.664-0.505,0.5,1.182,0.5,1.182L690.1,306.68L690.1,306.68z"/>
<path id="path143" fill="#FFFFFF" d="M670.65,325.74c0.916,0.933-4.986,0.674-4.986,0s0.5-3.034,1.993-2.532
	c1.496,0.509,1.661-3.034,1.661-3.034s-1.328,0.167-0.165-0.507c1.164-0.675,0-1.688-0.499-2.193
	c-0.498-0.507-0.997-1.35-0.997-1.35h2.329c0.998-0.676,1.328-3.88,1.328-3.88c1.993,0.674,2.991-0.676,2.991-0.676
	s0.338,1.012,1.001,1.857c0.665,0.842-1.665,1.18-0.833,1.687c0.833,0.507,1.163,2.023,0.833,2.528
	c-0.334,0.507-2.165,0.17-2.165-0.505c0-0.676-0.664,0.844,0,1.688s-0.83,2.023-1.163,2.023s-2.491,0.339-0.665,1.351
	c1.828,1.011,3.826,0.508,3.826,0.508s1.495-0.171,1.993,0.674c0.5,0.844-0.165,1.013-0.996,1.013c-0.83,0-4.822-0.339-4.822-0.339
	S670.152,325.234,670.65,325.74L670.65,325.74z"/>
<path id="path145" fill="#FFFFFF" d="M660.01,327.26c0.834-0.169,2.824-0.339,3.159,0.168c0.334,0.506-1.163,1.18-1.163,1.18
	l-1.996,0.339C659.346,328.102,659.181,327.429,660.01,327.26L660.01,327.26z"/>
<path id="path147" fill="#FFFFFF" d="M681.46,313.09c1.329-0.675,4.154-0.675,3.988-1.688c-0.164-1.012,1.662-1.35,1.662-1.35
	l0.499,2.024l1.496,1.012l0.167,1.855c0,0,0.498-0.337-1.328,0.17c-1.831,0.507-0.665,1.349-0.665,1.349l-3.991,0.168l-0.499-1.687
	L681.46,313.09L681.46,313.09z"/>
<path id="path149" fill="#FFFFFF" d="M674.97,303.98c1.011,0-0.33,3.88,2.326,3.543c2.66-0.339,0.169,1.181,2.162,1.349
	c1.996,0.171,1.497-1.518,2.161-2.697c0.667-1.181,0.334-1.857-0.83-2.194c-1.166-0.337-1.166-0.337-1.496-1.688
	c-0.331-1.349-1.662-1.688-1.662-1.688l-0.5-2.022l-2.161,1.349l-2.16,2.868C672.81,304.993,673.972,303.98,674.97,303.98
	L674.97,303.98z"/>
<polygon id="rect153" fill="#FFFFFF" points="679.37,318.236 679.87,317.224 680.764,317.678 680.265,318.691 "/>
<rect id="rect155" x="677.63" y="316.63" fill="#FFFFFF" width="0.998" height="1.181"/>
<polygon id="rect157" fill="#FFFFFF" points="678.469,294.151 678.637,295.668 677.646,295.781 677.478,294.264 "/>
<rect id="rect159" x="675.64" y="309.88" fill="#FFFFFF" width="0.998" height="0.845"/>
<rect id="rect161" x="673.298" y="308.439" transform="matrix(0.0974 0.9952 -0.9952 0.0974 915.9788 -391.4499)" fill="#FFFFFF" width="1.013" height="1.671"/>
<polygon id="rect163" fill="#FFFFFF" points="659.308,326.087 658.395,325.69 658.894,324.509 659.808,324.907 "/>
<rect id="rect165" x="654.369" y="321.595" transform="matrix(0.0966 0.9953 -0.9953 0.0966 912.5135 -360.5358)" fill="#FFFFFF" width="1.011" height="1.672"/>
<polygon id="polygon169" fill="#FFFFFF" points="621.593,322.871 621.64,323.881 625.291,323.714 625.243,322.704 "/>
<polygon id="rect171" fill="#FFFFFF" points="619.145,324.169 618.813,322.653 619.789,322.434 620.12,323.95 "/>
<polygon id="rect173" fill="#FFFFFF" points="618.446,325.215 618.131,324.255 618.629,324.087 618.944,325.047 "/>
<path id="path175" fill="#FFFFFF" d="M626.76,322.37l-0.165,1.181l1.826,0.169c0,0,0.83,0.676,0.83,1.18
	c0,0.507,1.166,1.013,1.83,1.013c0.665,0,2.492-1.351,2.492-1.351s0.833-2.362,0.169-2.193c-0.668,0.168-1.996,1.181-2.161,0.168
	c-0.168-1.013-2.16-0.507-2.16-0.507L626.76,322.37z"/>
<path id="path177" fill="#FFFFFF" d="M635.07,320.51c0,0.505-0.33,1.18,0.664,1.35c1.002,0.167,2.83-0.674,2.994,0.338
	c0.169,1.011,0.169,1.688,1.497,2.195c1.327,0.505,2.162,0.674,3.158,0.674c0.995,0,3.16-0.34,3.16-0.34s2.352,0.368,2.824,0.846
	c1.827,1.854,2.991,2.36,3.489,1.518c0.499-0.844-0.165-2.698-0.331-3.373c-0.168-0.677-2.495-3.882-3.326-3.207
	c-0.83,0.676-0.996,0-2.493,0.505c-1.496,0.507-4.655,0.171-4.819-0.505c-0.166-0.676-2.493-1.011-2.493-1.688
	c0-0.676-1.661-1.518-1.496-0.506c0.165,1.011-1.163,1.518-1.501,1.182C636.068,319.16,635.07,320.51,635.07,320.51L635.07,320.51z"
	/>
<path id="path179" fill="#FFFFFF" d="M673.31,298.91l1.166-3.71c-1.661-0.339-1.331-2.192-1.331-2.192
	c-0.165-1.52-2.492-3.206-3.324-2.699c-0.829,0.504-0.499-3.545-0.499-3.545s1.497-1.011,2.162-0.505
	c0.665,0.505-5.651-8.436-6.982-7.592c-1.328,0.844-4.319-0.844-4.153-2.363c0.165-1.517-5.985-6.579-5.985-6.579
	s-1.995-1.348-2.326-0.336c-0.333,1.012-0.998,1.688,0,2.191c0.995,0.507,0.829-0.843,1.992,0.337
	c1.163,1.181,3.327,2.7,2.495,3.713c-0.832,1.014-1.83,1.351-1.83,1.351l1.166,1.351h1.827l0.333,2.866c0,0,1.993,1.013,2.493,2.193
	c0.499,1.18,0.499,1.855,0,2.531c-0.5,0.675-1.493,1.855-1.328,3.035c0.165,1.181,1.496,1.688,1.496,1.688l1.328,0.169l0.998,0.508
	v2.194c1.328-0.339,3.489,1.516,3.324,2.697s0.33,0.506,1.992,1.688c1.665,1.181,1.167,1.351,2.33,2.194
	C671.817,300.936,672.815,300.43,673.31,298.91L673.31,298.91z"/>
<path id="path181" fill="#FFFFFF" d="M645.88,275.97c-0.165-0.676-0.5-3.039,0.499-2.87c0.997,0.171,0.333,0,1.496,0.507
	c1.164,0.508,1.329-0.843,1.329-0.843h1.83l2.326,1.854l-0.333,1.52l-1.662,0.167c-0.83-1.348-2.493-0.843-2.161,0.339
	c0.333,1.181-0.83,3.374-1.493,3.542c-0.665,0.169-2.83,0.169-2.661-0.843C645.216,278.331,645.88,275.97,645.88,275.97
	L645.88,275.97z"/>
<path id="path183" fill="#FFFFFF" d="M644.55,271.41v-1.349c0,0-0.169-1.35-0.998-1.35s-2.326-1.012-1.996-1.688
	c0.335-0.676-2.824-1.35-2.824-1.35s-2.824-2.699-1.828-2.361c0.998,0.338,0.5-1.182,0.5-1.182s-1.996,0.337-2.495,0.169
	c-0.5-0.169-0.335-1.688-0.335-1.688s-1.991-0.506-1.991,0c0,0.507,0.664,0.507,0.994,1.518c0.335,1.012,0.169,2.7,1.667,3.036
	c1.496,0.339,1.826,0.675,1.995,1.351c0.165,0.676,1.993,0.844,1.993,0.844l1.331,0.674L644.55,271.41L644.55,271.41z"/>
<polygon id="polygon185" fill="#FFFFFF" points="626.105,252.855 624.773,252.521 624.773,254.039 626.599,254.206 "/>
<path id="path187" fill="#FFFFFF" d="M626.1,247.12c-1.737-1.319,2.325,1.013,2.325,1.013c1.329,0,2.161,1.012,2.161,1.52
	c0,0.506,1.828,0.337,1.828,0.337l0.17-1.183l-1.333-1.687l-1.162-0.842c0,0-1.827-0.169-1.827-0.676
	C628.261,245.098,626.765,247.627,626.1,247.12L626.1,247.12z"/>
<path id="path189" fill="#FFFFFF" d="M656.68,248.13c-0.485,1.477-0.664,3.544-1.496,3.544c-0.83,0-0.499,2.195-0.499,2.195
	s2.165,0,2.829,0.167c0.663,0.167,0.663,1.854,0.663,1.854c2.495-0.167,3.493,3.207,3.158,4.051
	c-0.333,0.843,0.998,0.843,0.998,0.843s0,2.7-0.334,3.374c-0.33,0.676,2.162,1.182,2.826,2.193c0.664,1.013-0.334,4.387-0.831,4.555
	c-0.498,0.17,1.328,0.675,1.163,1.519c-0.168,0.845,0.499,0,0.665,1.351c0.165,1.349,0.499,4.217,0.499,4.217l2.325,0.17
	c0.335-2.193,4.62-2.277,5.32-2.025c2.826,1.013,4.99,5.399,4.99,6.41c0,1.012-1.831,1.183-1.831,1.183l0.335,4.891
	c2.824,0.845,5.151,4.895,4.82,5.569c-0.333,0.674,1.992,0.507,1.992,0.507c0.334-3.039,3.159-2.025,3.324-1.013
	c0.17,1.013,0.665,3.206,0.665,3.206l0.832,1.516l1.163,1.182l1.828-0.168l0.5,1.013l2.16,0.339c0,0,1.831,2.021,1.996,2.529
	c0.168,0.505,2.66,0.338,3.323,0.505c0.665,0.17,1.664,0.677,1.828,1.52c0.169,0.844,1.167,2.193,1.167,2.193
	s1.993,0.507,2.16,1.181c0.165,0.674,0.998,2.193,0.998,2.193l1.659,1.35l0.167,1.52l1.828,0.169l0.5,2.021l2.989-0.167l1.666-1.181
	c2.16-1.18,3.657-2.699,3.823-3.375c0.165-0.675,0.498-3.204,2.161-2.698c1.661,0.507,0.499-3.712,0.499-3.712
	s-2.327-1.688-2.162-2.532c0.167-0.843-2.325-2.529-2.161-3.205c0.166-0.676-2.16-2.023-1.995-2.698
	c0.164-0.676-1.163-2.532-1.163-2.532l-2.495-2.361l-0.333-1.519l-1.993-0.167l-3.989-4.894l0.166-1.351l-1.164-0.168v-1.855
	l-1.161-0.676l-1.831-0.168l-3.655-4.048l-0.333-1.856h-1.828l0.331-3.544c1.165-1.519,0.499-4.387,0.499-4.387
	s-2.33,1.181-3.49,0.674c-1.165-0.504,0.497-1.687,0.497-1.687v-1.349l-0.996-1.013c0,0-2.828,0.339-2.992-0.167
	c-0.167-0.506-0.664-2.7-0.664-2.7l-0.167-2.868l-1.162-0.505l-0.169-1.014l-1.826,0.168v-2.023l-0.999-0.337l-0.997-0.507
	l-0.166-2.025l-3.657-0.167l-1.163-1.687l-1.328-2.025l-4.156-0.337l-0.998-1.011l-1.662-0.339l-1.163-0.507l-0.499,0.846
	l-3.16,0.167l-0.164,1.012C663.498,248.3,656.85,247.624,656.68,248.13L656.68,248.13z"/>
<path id="path191" fill="#FFFFFF" d="M674.14,243.75c-0.263-1.332,3.327-2.531,4.157-1.52c0.833,1.012,3.159,1.184,3.492,6.244
	c0.117,1.813-2.993-1.855-2.993-1.855l-2.495-0.844C674.973,245.437,674.306,244.596,674.14,243.75L674.14,243.75z"/>
<polygon id="rect193" fill="#FFFFFF" points="625.383,245.811 624.475,245.4 625.142,243.881 626.05,244.292 "/>
<path id="path195" fill="#FFFFFF" d="M616.79,229.24l-2.165-2.193v-1.855l-0.665-0.677l-0.664-2.36l-2.161-0.675l-2.16,0.842
	l-2.328,1.52l-2.492,0.339l-1.331,1.518l5.32,0.504l0.995,1.689l3.827,0.337l2.49,2.53
	C617.622,231.433,618.118,230.42,616.79,229.24L616.79,229.24z"/>
<path id="path197" fill="#FFFFFF" d="M616.46,220.97c-0.366-1.482-2.495,1.855-0.33,2.528c2.161,0.679,4.318,0,4.318,0l0.5-1.012
	l8.31,0.17c0.669-0.676,0.998-1.688,0.998-1.688s1.996-0.676,2.825-0.339c0.832,0.339,0.169-2.36-0.665-2.023
	c-0.829,0.337-2.491,0.169-2.491,0.169h-2.993c-0.165-1.18-2.825-0.676-2.991,0c-0.169,0.674-1.162,0.843-1.162,0.843l-3.824,0.339
	C618.621,220.97,616.628,221.644,616.46,220.97L616.46,220.97z"/>
<path id="path199" fill="#FFFFFF" d="M600,249.44c2.557,0.812,3.489,0.211,3.658-0.463c0.166-0.676,0.33-0.846,1.329-1.013
	c0.996-0.169-0.167-2.193-1.163-2.025c-0.999,0.169-1.996-0.337-2.161-1.181c-0.17-0.843-1.831-3.036-1.996-1.349
	c-0.166,1.688-1.163,1.688-0.998,2.868C598.837,247.456,599.336,249.227,600,249.44L600,249.44z"/>
<path id="path201" fill="#FFFFFF" d="M580.89,251.34c-0.119-0.598,3.324-0.675,3.824-0.17c0.5,0.507,0.165,1.35,1.662,1.35
	c1.494,0,0.83,1.013,0.664,1.52c-0.165,0.506-1.826,0.337-1.996-0.167c-0.165-0.507-2.66-0.678-2.66-0.678
	S581.056,252.181,580.89,251.34L580.89,251.34z"/>
<polygon id="polygon205" fill="#FFFFFF" points="636.11,216.241 635.264,215.382 634.559,216.096 635.719,217.278 636.04,217.599 
	636.384,217.316 638.053,215.965 637.427,215.176 "/>
<polygon id="polygon207" fill="#FFFFFF" points="627.194,211.431 626.67,212.289 628.001,213.131 628.26,213.302 628.526,213.131 
	630.359,211.948 629.827,211.095 628.26,212.104 "/>
<polygon id="polygon209" fill="#FFFFFF" points="622.658,246.787 620.997,246.613 620.896,247.622 622.321,247.766 623.355,249.411 
	624.194,248.87 623.034,247.018 622.901,246.812 "/>
<path id="path211" fill="#FFFFFF" d="M567.92,293.85l0.17,1.856h2.491c0.998,0-0.83-1.181-0.83-1.181S567.756,294.696,567.92,293.85
	L567.92,293.85z"/>
<polygon id="rect213" fill="#FFFFFF" points="571.09,293.905 571.727,293.125 572.725,293.965 572.088,294.745 "/>
<polygon id="rect215" fill="#FFFFFF" points="540.803,262.341 541.509,261.625 542.505,262.639 541.799,263.354 "/>
<polygon id="polygon219" fill="#FFFFFF" points="587.427,478.642 586.98,479.548 588.022,480.073 587.678,480.422 588.391,481.138 
	589.221,480.295 589.707,479.802 589.088,479.485 "/>
<polygon id="polygon221" fill="#FFFFFF" points="575.581,466.556 574.579,467.399 574.085,467.821 574.61,468.201 575.777,469.044 
	576.357,468.226 575.715,467.756 576.216,467.335 "/>
<path id="path223" fill="#FFFFFF" d="M699.83,435.329c-0.22-0.859-1.189-1.212-1.299-1.248l-0.317,0.962v-0.006
	c0.079,0.03,0.194,0.091,0.31,0.166l0.203,0.875c-0.074,0.112-0.155,0.217-0.22,0.293l0.731,0.685
	C699.772,436.461,699.97,435.886,699.83,435.329L699.83,435.329z"/>
<polygon id="polygon225" fill="#FFFFFF" points="699.741,432.025 699.866,430.505 701.488,430.76 701.362,432.144 "/>
<path id="path227" fill="#FFFFFF" d="M739.89,418.99c0.711-0.449,1.62-1.267,1.497,0.634c-0.126,1.897-0.874,1.267-1.497,1.897
	C739.268,422.155,738.893,419.623,739.89,418.99z"/>
<path id="path231" fill="#FFFFFF" d="M748.35,411.83c-0.014-0.034-0.022-0.15-0.029-0.235c-0.022-0.278-0.058-0.658-0.256-1.057
	l-0.891,0.453c0.11,0.226,0.133,0.464,0.151,0.693c0.025,0.295,0.058,0.634,0.341,0.848c0.179,0.136,0.404,0.175,0.673,0.123
	l-0.19-0.979C748.226,411.688,748.326,411.758,748.35,411.83L748.35,411.83z"/>
<path id="path233" fill="#FFFFFF" d="M746.13,412.66c0.253,1.025,0.623,2.036,0.64,2.078l0.936-0.356
	c-0.008-0.009-0.37-0.999-0.609-1.971L746.13,412.66L746.13,412.66z"/>
<path id="path235" fill="#FFFFFF" d="M742.5,416.64l-0.993-0.1c-0.078,0.796,0.111,1.78,0.897,1.939l0.195-0.992
	c0.007,0,0.017,0.006,0.019,0.006C742.538,417.422,742.464,417.015,742.5,416.64L742.5,416.64z"/>
<path id="path237" fill="#FFFFFF" d="M738.13,396.51c-0.052-0.324-0.246-0.576-0.545-0.709c-0.738-0.324-1.982,0.212-2.592,0.625
	l0.552,0.844c0.631-0.428,1.46-0.634,1.645-0.539c-0.016-0.007-0.039-0.036-0.045-0.057L738.13,396.51L738.13,396.51z"/>
<path id="path241" fill="#FFFFFF" d="M692.09,342.61c-0.664,0.676-2.16,1.014-2.16,1.014l-0.5,1.855l-0.829,0.674
	c0,0,0.164,0.506,0,1.688c-0.167,1.18-1.663,1.855-1.663,1.855l-0.664,0.844c0,0-4.008,0.218-4.488,0
	c-1.497-0.674-0.498-2.699,0.499-2.53c0.996,0.169-0.168-2.869-0.168-2.869l1.332-0.168c0,0,0.164-3.038,0.664-3.038
	c0.499,0-0.165-1.011-0.833-1.518c-0.664-0.504-1.495-2.191-2.162-2.023c-0.664,0.168-3.324,0-3.324,0l-0.499,1.013l-1.829,0.337
	c0,0,0.157,1.305-0.162,1.688c-1.001,1.18-4.822,3.711-3.162-0.507l0.497-1.01v-1.52l-2.988-0.167c0,0-1.496-0.508-1.496-1.183
	s-0.167-1.518-0.167-1.518l-3.492-3.88l-4.153-0.506l-0.335-0.845l-2.49-0.337c-2.995-1.518-5.655-0.169-5.155,2.362
	c0.498,2.532,1.328,3.544-0.331,3.544c-1.665,0-1.997-1.35-1.997-1.35s-1.327-0.508-1.327,0.167c0,0.676-0.5,2.025,0,2.699
	c0.496,0.674-0.668,1.688-1.167,1.181c-0.495-0.507-1.826-2.022-1.493-2.528c0.331-0.507-2.33-3.713,0.331-4.219
	c2.661-0.507-0.166-2.025,0.833-2.361l1.328-0.676h1.329l0.832-0.676l-2.161-0.335l-1.328-0.17l-2.495-0.168
	c-2.492,1.687-2.989,3.712-2.989,3.712c-1.333,2.53-4.488-1.013-3.324-2.362c1.162-1.35-3.659-0.169-4.49,0.506
	c-0.833,0.674-3.326,0.337-3.326,0.337c-0.497,1.52-2.824-0.167-2.161-1.18c0.666-1.013,0.666-1.688,0.666-1.688l-0.83-0.169
	l-0.996,1.855c-2.328,0-2.995,1.349-2.496,2.193c0.498,0.842-0.665-0.169-0.998,1.012c-0.33,1.181,0.168,1.181,1.166,1.688
	s-0.5,0.507,0.165,1.349c0.665,0.845,2.66,0,1.497,1.182c-1.163,1.181-3.493,0.677-3.493,0.677c-0.165,1.515-3.324,1.18-3.653,0.674
	c-0.335-0.507-2.826-3.544-2.826-3.544l-3.163-0.168c-0.329-2.361,1.498-1.182,2.163-3.037c0.668-1.856,1-4.892,1-4.892
	s-2.663-0.168-2.828,0.675c-0.164,0.844-1.828,1.35-1.828,1.35s-1.331,0.505-0.832,1.181s-0.998,1.011-0.998,1.011
	s0.26,1.09-0.165,1.519c-1.328,1.352-4.655,0.168-5.152-0.337l-1.996-0.844l-1.995-1.35l-2.326,1.011l-0.664,0.676h-2.495
	l-0.165,2.022l4.488,0.506l0.333,4.176l-1.831-0.631h-1.163l-0.497-1.013l-0.998-0.17v3.711l0.998,0.846l0.832,0.841l1.663,0.17
	l0.333,2.023l4.153,0.171l0.499,0.842l2.495,0.169l4.821,4.892l-0.333,1.519l-0.833,0.507c0.334,1.181-2.158,0.507-2.158,0.507
	v1.011l1.16,0.168l1.166,0.675l1.661-2.867c1.828-1.181,2.657,0.506,2.826,1.519c0.165,1.012-0.833,0.843-0.833,0.843v2.363
	l0.998,0.336c1.665,2.025-0.664,3.207-0.664,3.207l-0.5,1.687c-0.499,1.519-2.327,1.18-2.327,1.18l-0.663,1.013l-1.997,0.507
	l3.946,0.506c0.376-1.351,1.371-1.688,1.87-1.013c0.499,0.676,0.499,1.856,0.499,1.856l1.002,0.169l-0.17,1.854l0.998,0.339v5.398
	l1.164,1.35c1.995-0.842,1.995,0.507,0.996,1.181c-0.996,0.673-0.333,3.712-0.333,3.712l-0.831,0.842v1.352l-0.996,0.674v1.855
	c-1.663-0.843-3.659-0.508-4.159,0c-1.493-1.014-4.651-0.675-4.651,0.17c0.995,1.35-1.162,1.688-1.162,1.688l-1.166,1.349
	c0.832,1.688-0.829,1.855-0.829,1.855v3.206l-1.996,1.856l0.168,4.387c0,1.181,2.492,1.348,2.989,0.674
	c0.5-0.674,2.496,1.351,2.496,1.351h1.493l0.334-3.038l-0.999-0.506v-4.894l1.664-1.856c1.995-0.674,1.331,4.389,1.331,4.895
	c0.165,1.855,0.994,1.688,1.827,1.349c1.662-0.674,0.33,1.858-0.998,1.688c-1.328-0.167-0.5,1.687-0.5,1.687l0.834,0.339
	l-1.498,1.181l-1.326,1.52l-1.667-0.507l-1.992-0.167l-0.665-1.184l-1.166-0.168l-0.165,2.36l-0.829,1.013l-1.996,2.027
	c2.661,0-0.334,1.852-0.998,1.852c1.496,0.507-0.165,2.026-3.988,0.847v1.18l-1.332,0.169l1.167,1.348l1.328,0.17l-0.499,2.867
	c0,2.193-5.485,0.673-5.985,0.169l-0.165,3.037l-0.998,0.166l0.165,2.027l-0.165,2.868l1.828-0.338v1.182l4.49,0.169l6.483-6.919
	l3.822-0.842c0.331-1.689,1.992,0.338,1.992,0.338c1.663-0.172,1.996,1.011,1.996,1.011l2.162,0.338
	c1.826,0.508,0.723,0.685,0.83,1.352c0.164,1.011,0.996,0.673,0.996,0.673l0.335-2.192l0.998,0.168l-0.998-1.182l-1.831-0.845
	l-1.993-0.842c-1.331-1.855,0.332-1.518,1.663-1.348h2.161c0,0,2.495,3.372,2.495,4.216c0,0.846,1.163,1.014,1.163,1.014
	l1.493-0.169l0.5,1.179h1.495l0.5,1.011h2.993l0.166-1.517l-2.829-0.504l-0.164-1.689l-1.993-0.506
	c-0.668-2.866,0.496-3.711,1.327-2.359l0.998,0.165l-0.333-2.53l1.162-0.338l-0.331-3.544l-0.997-0.335v-1.183l4.154,0.172
	c-0.33-2.196,0.168-3.207,0.168-3.207h1.163l0.165,0.846l5.086,0.479l3.597-4.125c-0.182-0.314,0.36-0.507-0.034-0.912
	c-0.5-0.506-1.166,0-2.001-0.506c-0.829-0.503,0-3.373-0.164-4.048c-0.166-0.674,2.829-1.689,2.33-0.168c-0.5,1.52,0,2.193,0,2.193
	c2.16-2.025,3.989,0.167,3.823,0.674c-0.17,0.506,1.162,1.013,1.992,0.506c0.832-0.506,1.83,1.52,1.497,2.529
	c-0.335,1.013-3.323,0.846-3.489-0.168c-0.17-1.013-0.669-0.674-0.998-0.167c-0.334,0.506-1.827,0.842-2.66,0.335
	c-0.169-0.103-0.249-0.188-0.296-0.269l-3.597,4.125l0.233,0.023c1.993,1.183,0.998,2.7,0.335,3.038
	c-0.668,0.338-1.831,0.338-1.831,0.338l-0.33,0.676l-4.322,0.335l-0.335,1.689c-2.161-0.342-2.989,2.023-2.491,3.202
	c0.5,1.18,0,2.193,0,2.193l1.828,0.845l2.325-0.673c0.335-1.689,1.828-2.027,3.16-3.037c1.328-1.013,3.491,1.852,2.824,3.204
	c-0.664,1.348-0.664,1.854-0.664,1.854l0.164,1.52l-1.661,0.674l-1.328,0.676l-0.17,0.844h-4.486l-0.83,0.842l-2.162,0.173
	l-0.667,1.011l-1.493,0.169c0,0-2.495,1.182-1.497,2.531c0.998,1.351-4.154,1.182-5.32-0.676c-0.333,1.686-2.161,0.168-2.161,0.168
	l-1.828-0.507l-0.165-2.527c-0.333-1.689-3.492-1.689-3.324-0.507c0.165,1.182-5.987,0.507-5.987,0.507l-1.992,0.968l-1.831,1.056
	l-0.165,0.843l-2.994,0.338l-1.328,0.676l-0.498-1.013h-1.328l-1.332,1.857c-3.489,0.169-6.813,2.193-6.482,3.037
	c0.333,0.842-1.328,1.689-1.328,1.689l-1.498,0.5l-0.994,1.521l-1.996,0.676l-0.334,3.544l-0.995,0.673v1.521l-1.166,0.335v0.845
	l-1.661,0.169l0.994,2.531l1.335,0.676c2.326,0.335,1.327,3.206,1.327,3.206l1.329,0.166l0.667,1.855l1.328,2.699
	c0.5,2.027,1.996,1.521,2.661,1.352c0.664-0.166,1.327,2.023,1.327,2.023l6.648,0.17c0,0-0.33,0.676,0.834,1.013
	c1.161,0.335,8.809,0.676,9.144,0.169c-0.335-1.52,4.152-1.857,5.983-0.507c1.826,1.348,4.321,0.507,4.321,0.507l2.493,3.034
	l1.666,3.713l2.824,0.842l1.992,0.508l0.668,2.868l1.493,0.169l0.5,1.857c1.83,1.349-0.5,4.217-0.5,4.217v3.71l1.331,0.676
	l-0.168,1.353l2.164,2.189l2.492,0.172l6.318,6.747l4.985,1.518l0.829,2.699l1.333-0.169l0.996-0.842l3.989-0.169l1.996-1.857
	l2.16-0.335l18.452-15.691l-1.665-1.013v-3.71c2.993-2.193,3.159-6.075,0.333-6.413c-2.144-0.256-1.161-2.53,0.834-2.868
	l1.162-0.504v-1.521l3.823-3.54v-2.7l-8.31-6.919c-3.658-1.348,0-9.447,2.49-9.278c2.495,0.166-0.164-12.484-0.164-12.484
	l-1.332-0.673l0.335-4.051h-1.828l-2.993,3.882l-0.83,2.697c-0.333,3.547-10.64,2.868-11.14,2.361
	c-0.499-0.507-3.988-2.023-3.988-2.023s-2.66-2.193-3.159-1.518s-2.824-0.845-2.824-0.338s-2.161-1.179-2.161-1.179l-3.324-1.183
	l2.496-0.507l-0.5-2.023l4.318,2.192c0.499,0.673,2.66,0.508,2.66,0.508l0.664,0.844c0,0,1.332-0.172,2.166,0.842
	c0.829,1.014,5.15,0.17,5.15,0.17l1.163,1.011l1.828,0.676l5.154,0.169l0.166-3.203l0.998-1.014l-0.167-2.026l1.163-1.011v-1.686
	l0.998-0.338l0.165-3.71l0.83-0.169v-8.1l-2.493-2.362c-0.164,0.845-2.824,0.845-2.824,0.845s-0.664,1.18-1.163,1.18
	c-0.498,0,0.665,1.517,0.331,2.53c-0.331,1.011-1.662,1.011-1.662,1.011l-2.495,0.677l-0.664,0.845h-2.661l-0.33-2.193l2.99-0.845
	l1.662-0.842l0.833-1.689c0.164-1.685,2.16-1.518,2.16-1.518s3.823-3.206,3.989-4.722c0.169-1.52,1.497-5.737,3.823-5.737h4.323
	c1.661-0.677,1.163-2.869,1.163-2.869l2.161-0.335l0.333,1.181c0,0,2.993,0.337,3.324-0.17c0.334-0.504,0.998-1.688,1.831-1.181
	c0.83,0.506,3.49-1.182,3.49-1.182c0.165-1.181,4.321-0.674,4.321-0.674l0.5-1.519c0,0-2.825-3.88-3.324-3.88
	c-0.5,0-3.159-2.364-3.493-1.52c-2.656-0.674-2.492-4.387-2.492-4.387l-0.998-2.36c0-1.352-2.49-4.219-2.992-3.88
	c-2.495-1.856-0.665-4.05,0-4.219c0.664-0.167,2.329-2.53,2.329-2.53l0.829-2.362l2.826-0.842l0.333-2.193l-1.493-0.169
	c0,0,1.659-3.037,2.492-3.037s6.318,0,6.813-0.339c0.499-0.336,1.495-3.035,1.495-3.542c0-0.506,1.334-0.676,1.829-0.845
	c0.499-0.167,1.662-1.518,1.995-2.193C693.917,346.154,692.756,341.935,692.09,342.61L692.09,342.61z"/>
<path id="path245" fill="#FFFFFF" d="M600,403.43c0.249-0.25,0.5,0.76,0.998,0.634c0.495-0.127,0.747,0.887,0.25,0.887
	c-0.5,0-0.5,0.634-0.5,0.887s0,0.884-0.375,1.264c-0.374,0.38-0.749,0.127-1.249-0.126c-0.497-0.253-0.744-0.253-1.37-0.253
	c-0.622,0-0.126,1.013-0.126,1.013s-2.618-0.126-2.118-0.507c0.499-0.377,0.998-0.507,0.625-0.761c-0.375-0.253,0-0.504,0-1.011
	s1.247-0.253,0.87-0.634c-0.371-0.38,0.008-1.848,0.623-1.013l0.376-0.888c-0.376-0.378-0.124-0.506-0.872-0.755
	c-0.747-0.254-0.127-1.773-0.127-1.773l0.127-1.012c0.249-1.263,2.741-1.392,2.867-0.254c0.123,1.14,0,1.898,0,1.898l0.749,0.252
	c0,0-0.126,0.764-0.749,0.764c-0.626,0,0,0.375-0.375,0.756L600,403.43L600,403.43z"/>
<path id="path247" fill="#FFFFFF" d="M591.771,404.7c0.375-0.761,1.246-4.05,2.245-3.037c0.994,1.013,1.619,0,1.619,0
	s0.499,0.508,0.249,1.52c-0.249,1.011-0.5,2.024-1.125,2.151c-0.621,0.126-1.121,0.506-1.865,0.633
	C592.146,406.094,591.771,404.7,591.771,404.7L591.771,404.7z"/>
</svg>
