<?xml version="1.0" encoding="utf-8"?>
<!-- Generator: Adobe Illustrator 16.0.0, SVG Export Plug-In . SVG Version: 6.00 Build 0)  -->
<!DOCTYPE svg PUBLIC "-//W3C//DTD SVG 1.1//EN" "http://www.w3.org/Graphics/SVG/1.1/DTD/svg11.dtd">
<svg version="1.1" id="レイヤー_1" xmlns="http://www.w3.org/2000/svg" xmlns:xlink="http://www.w3.org/1999/xlink" x="0px"
	 y="0px" width="91.182px" height="118.824px" viewBox="0 0 91.182 118.824" enable-background="new 0 0 91.182 118.824"
	 xml:space="preserve">
<g>
	<path d="M51.853,5.951c0.055,0.558,0.081,0.765,0.207,1.27l2.053-0.027c0.522,0,0.729-0.018,0.954-0.063v0.621
		c-0.333-0.027-0.333-0.027-0.945-0.027l-1.917,0.018c0.243,0.756,0.621,1.414,1.144,1.972c0.351,0.378,0.792,0.684,0.98,0.684
		c0.207,0,0.343-0.396,0.424-1.296c0.225,0.189,0.306,0.234,0.54,0.342c-0.198,1.197-0.433,1.603-0.909,1.603
		c-0.495,0-1.225-0.549-1.81-1.369c-0.441-0.612-0.729-1.188-0.964-1.927l-2.646,0.036v2.395c0.945-0.208,1.711-0.423,2.691-0.756
		l0.019,0.558c-1.387,0.459-2.151,0.666-3.683,0.981c-0.216,0.045-0.396,0.09-0.495,0.126l-0.152-0.648
		c0.233-0.009,0.549-0.054,1.035-0.144V4.537c0-0.441-0.009-0.675-0.036-1.017c0.288,0.036,0.567,0.045,1.054,0.045h4.006
		c0.396,0,0.657-0.009,0.937-0.045c-0.027,0.18-0.027,0.315-0.027,0.72v1.071c0,0.333,0.009,0.504,0.027,0.666
		c-0.271-0.018-0.531-0.027-0.892-0.027H51.853z M48.963,5.446h4.78V4.078h-4.78V5.446z M48.963,5.951v1.305l2.512-0.027
		c-0.09-0.432-0.144-0.756-0.207-1.278H48.963z"/>
	<path d="M58.662,3.862c0.162-0.297,0.279-0.585,0.352-0.891l0.621,0.117c-0.198,0.414-0.261,0.549-0.396,0.774h2.278
		c0.359,0,0.576-0.009,0.882-0.036c-0.036,0.225-0.045,0.405-0.045,0.702v1.188h0.279c0.333,0,0.504-0.009,0.729-0.045v0.585
		c-0.261-0.027-0.54-0.045-0.891-0.045h-6.383c-0.378,0-0.676,0.018-0.883,0.045V5.671c0.217,0.036,0.414,0.045,0.693,0.045h0.324
		V4.609c0-0.306-0.018-0.558-0.045-0.783c0.351,0.027,0.567,0.036,0.918,0.036H58.662z M58.338,8.795
		c-0.116,0.108-0.116,0.108-0.207,0.207c-0.81,0.855-1.548,1.414-2.512,1.899c-0.188-0.306-0.197-0.306-0.369-0.486
		c1.117-0.486,2.134-1.278,2.584-2.017L58.338,8.795z M55.674,8.417c-0.117-0.18-0.153-0.216-0.288-0.351
		c0.837-0.405,1.341-0.756,1.881-1.296c0.136-0.135,0.198-0.216,0.279-0.36l0.531,0.324c-0.072,0.063-0.09,0.081-0.18,0.171
		c-0.721,0.729-1.243,1.116-2.152,1.612L55.674,8.417z M56.763,5.716h1.314V4.339h-1.314V5.716z M62.857,7.094
		c-0.099,0.09-0.099,0.09-0.585,0.576c-0.369,0.369-0.72,0.639-1.242,0.973c0.576,0.738,1.314,1.314,2.277,1.764
		c-0.162,0.198-0.243,0.324-0.342,0.549c-0.648-0.369-0.928-0.558-1.396-0.972c-0.847-0.747-1.314-1.45-1.782-2.674
		c-0.136,0.081-0.136,0.081-0.226,0.126v2.917c0,0.378,0.019,0.612,0.063,0.846H58.95c0.036-0.216,0.055-0.441,0.055-0.846V7.715
		c-0.522,0.225-0.757,0.315-1.396,0.504c-0.09-0.216-0.136-0.279-0.298-0.468c1-0.234,1.675-0.495,2.368-0.927
		c0.369-0.234,0.559-0.387,0.729-0.594l0.504,0.324c-0.288,0.207-0.585,0.414-0.738,0.513c0.216,0.531,0.333,0.774,0.585,1.179
		c0.738-0.495,1.333-1.062,1.611-1.539L62.857,7.094z M58.591,5.716h1.341V4.339h-1.341V5.716z M60.445,5.716h1.359V4.339h-1.359
		V5.716z"/>
</g>
<g>
	<path d="M50.834,107.766c0-0.441-0.018-0.657-0.063-0.937h0.72c-0.045,0.279-0.063,0.531-0.063,0.918v0.792h2.638
		c0.306,0,0.478-0.009,0.685-0.036c-0.036,0.234-0.046,0.423-0.046,0.711v2.458c0,0.297,0.019,0.531,0.055,0.801h-0.648v-0.612
		h-2.683v2.098c0,0.513,0.009,0.738,0.063,1.026h-0.72c0.045-0.306,0.063-0.54,0.063-1.026v-2.098h-2.538v0.612h-0.648
		c0.036-0.261,0.054-0.513,0.054-0.801v-2.458c0-0.279-0.018-0.477-0.045-0.711c0.216,0.027,0.388,0.036,0.676,0.036h2.502V107.766z
		 M48.296,109.08v2.241h2.538v-2.241H48.296z M54.111,111.321v-2.241h-2.683v2.241H54.111z"/>
	<path d="M59.67,111.556c0.27,0.531,0.612,0.972,1.035,1.359c0.711,0.63,1.62,1.125,2.61,1.404
		c-0.162,0.216-0.233,0.324-0.359,0.612c-1.144-0.423-1.963-0.937-2.737-1.71c-0.433-0.441-0.72-0.864-1.026-1.521
		c-0.225,0.729-0.54,1.242-1.089,1.792c-0.631,0.63-1.324,1.063-2.449,1.503c-0.135-0.27-0.207-0.369-0.387-0.558
		c1.765-0.531,2.962-1.548,3.402-2.881h-2.502c-0.415,0-0.702,0.018-0.973,0.054v-0.639c0.261,0.036,0.558,0.054,0.973,0.054h0.116
		v-2.089c0-0.279-0.009-0.468-0.035-0.675c0.314,0.036,0.594,0.045,0.999,0.045h1.71c0-1.107,0-1.107-0.054-1.432h0.685
		c-0.055,0.306-0.055,0.306-0.063,1.432h1.792c0.486,0,0.747-0.009,0.99-0.045c-0.027,0.207-0.036,0.378-0.036,0.666v2.098h0.099
		c0.433,0,0.729-0.018,0.99-0.054v0.639c-0.278-0.036-0.566-0.054-0.999-0.054H59.67z M58.796,111.024
		c0.091-0.558,0.127-1.035,0.153-2.188h-2.098v2.188H58.796z M61.704,111.024v-2.188h-2.179c-0.026,0.972-0.072,1.584-0.171,2.188
		H61.704z"/>
</g>
<path d="M28.974,35.493c-0.404,0.099-0.603,0.144-1.17,0.234c-0.072-0.189-0.126-0.297-0.261-0.486
	c1.215-0.135,2.25-0.441,2.736-0.802l0.36,0.486c-0.009,0-0.108,0.045-0.297,0.126c-0.262,0.108-0.505,0.198-0.829,0.297v1.449
	h0.667c0.278,0,0.44-0.009,0.612-0.036v0.567c-0.189-0.027-0.36-0.036-0.612-0.036h-0.657c0.423,0.829,0.684,1.17,1.296,1.674
	c-0.135,0.153-0.207,0.271-0.324,0.496c-0.45-0.459-0.666-0.784-1.026-1.521c0.027,0.756,0.045,1.206,0.045,1.35v2.278
	c0,0.54,0.01,0.765,0.055,1.044H28.92c0.045-0.279,0.054-0.531,0.054-1.044v-2.106c0-0.333,0.027-1.053,0.045-1.44
	c-0.306,1.008-0.747,1.836-1.377,2.611c-0.135-0.261-0.18-0.333-0.333-0.495c0.685-0.738,1.225-1.702,1.594-2.845H28.2
	c-0.36,0-0.541,0.009-0.757,0.045v-0.585c0.198,0.036,0.378,0.045,0.766,0.045h0.765V35.493z M33.772,34.791
	c0.478,0,0.783-0.009,1.018-0.036c-0.027,0.279-0.036,0.531-0.036,0.963v6.05h0.054c0.378,0,0.585-0.018,0.802-0.054v0.612
	c-0.262-0.036-0.559-0.054-0.919-0.054h-3.547c-0.36,0-0.675,0.018-0.927,0.054v-0.604c0.207,0.036,0.414,0.045,0.828,0.045h0.188
	V35.7c0-0.414-0.009-0.657-0.036-0.945c0.343,0.027,0.559,0.036,0.919,0.036H33.772z M31.783,37.06h2.421v-1.756h-2.421V37.06z
	 M31.783,39.328h2.421v-1.765h-2.421V39.328z M31.783,41.768h2.421v-1.936h-2.421V41.768z"/>
<path d="M48.638,40.615c-0.631,0.09-0.892,0.117-1.558,0.171c-0.036-0.171-0.081-0.306-0.153-0.441
	c-0.549,0.522-1.044,0.837-1.953,1.233c-0.108-0.216-0.171-0.297-0.378-0.486c0.828-0.288,1.359-0.567,1.827-0.954
	c0.378-0.324,0.666-0.657,0.892-1.036h-1.495c-0.359,0-0.647,0.018-0.909,0.054v-0.594c0.252,0.036,0.54,0.054,0.909,0.054h4.466
	c0.468-0.567,0.711-0.945,1.018-1.594l0.558,0.225c-0.486,0.765-0.648,0.99-0.99,1.369h0.981c0.378,0,0.666-0.018,0.9-0.054v0.594
	c-0.271-0.036-0.54-0.054-0.9-0.054h-1.459c0.343,0.477,0.631,0.756,1.107,1.107c0.54,0.387,0.928,0.594,1.603,0.855
	c-0.171,0.189-0.233,0.279-0.342,0.504c-0.729-0.351-1.297-0.711-1.792-1.143c-0.521-0.459-0.765-0.729-1.179-1.324h-1.882
	c-0.261,0.468-0.495,0.774-0.918,1.18c1.215-0.027,2.619-0.27,3.024-0.522l0.405,0.486c-0.468,0.126-0.837,0.216-1.233,0.279v0.937
	h1.801c0.342,0,0.522-0.009,0.729-0.045v0.576c-0.234-0.036-0.396-0.045-0.766-0.045h-1.765v0.873h2.584
	c0.378,0,0.657-0.018,0.9-0.054v0.594c-0.262-0.036-0.55-0.054-0.9-0.054h-2.584v1.215c0,0.54-0.18,0.657-0.99,0.657
	c-0.297,0-0.604-0.018-0.937-0.054c-0.036-0.225-0.081-0.36-0.171-0.567c0.405,0.063,0.766,0.099,1.063,0.099
	c0.423,0,0.486-0.027,0.486-0.225v-1.125h-2.782c-0.36,0-0.639,0.018-0.9,0.054v-0.594c0.243,0.036,0.531,0.054,0.9,0.054h2.782
	v-0.873h-1.99c-0.369,0-0.54,0.009-0.773,0.045v-0.576c0.207,0.036,0.404,0.045,0.738,0.045h2.025V40.615z M48.457,28.82
	c0-0.405-0.018-0.612-0.063-0.819h0.729c-0.045,0.252-0.063,0.441-0.063,0.819v2.278h2.368v-1.702c0-0.252-0.01-0.45-0.036-0.657
	h0.675c-0.036,0.261-0.045,0.432-0.045,0.684v1.792c0,0.18,0.009,0.306,0.018,0.459c-0.18-0.009-0.387-0.018-0.558-0.018h-2.422
	v3.295h2.683v-1.71c0-0.324-0.009-0.549-0.045-0.774h0.685c-0.036,0.234-0.045,0.45-0.045,0.801v2.035
	c0,0.324,0.018,0.522,0.054,0.756h-0.648v-0.54h-5.852v0.54h-0.648c0.036-0.225,0.055-0.468,0.055-0.756v-1.98
	c0-0.342-0.01-0.576-0.045-0.801h0.684c-0.036,0.225-0.045,0.423-0.045,0.765v1.666h2.565v-3.295h-2.25
	c-0.162,0-0.369,0.009-0.559,0.018c0.009-0.171,0.019-0.306,0.019-0.459v-1.782c0-0.225-0.019-0.441-0.045-0.693h0.675
	c-0.027,0.189-0.036,0.387-0.036,0.666v1.693h2.196V28.82z M46.369,37.059c0.369,0.45,0.585,0.765,0.882,1.26l-0.522,0.234
	c-0.306-0.549-0.432-0.738-0.864-1.279L46.369,37.059z M48.512,36.896c0.36,0.495,0.549,0.811,0.819,1.351L48.8,38.481
	c-0.297-0.648-0.424-0.864-0.802-1.377L48.512,36.896z"/>
<g>
	<g>
		<path d="M77.527,61.54c0-0.27-0.01-0.432-0.046-0.585h0.667c-0.036,0.153-0.055,0.315-0.055,0.594v0.117h2.593
			c0.396,0,0.685-0.018,0.919-0.054v0.576c-0.226-0.036-0.433-0.045-0.847-0.045h-5.933c-0.009,4.538-0.153,5.618-0.954,6.977
			c-0.181-0.207-0.288-0.297-0.478-0.414c0.729-1.134,0.873-2.116,0.873-5.825c0-0.333,0-0.423,0-0.567
			c0-0.261-0.018-0.459-0.036-0.693c0.288,0.036,0.514,0.045,0.973,0.045h2.323V61.54z M77.896,63.187h-1.747
			c-0.243,0-0.441,0.009-0.666,0.036v-0.495c0.207,0.027,0.378,0.036,0.666,0.036h1.747c0-0.216-0.01-0.342-0.036-0.459h0.576
			c-0.027,0.126-0.036,0.216-0.036,0.459h1.72c0.333,0,0.504-0.009,0.684-0.027c-0.018,0.171-0.026,0.342-0.026,0.558v0.423h0.126
			c0.359,0,0.521-0.009,0.729-0.045v0.531c-0.18-0.036-0.396-0.045-0.729-0.045h-0.126v0.441c0,0.216,0.009,0.378,0.026,0.549
			c-0.198-0.018-0.378-0.027-0.675-0.027H78.4v0.513h1.836c0.388,0,0.621-0.009,0.847-0.036c-0.027,0.225-0.036,0.432-0.036,0.819
			v2.197c0,0.441-0.162,0.576-0.693,0.576c-0.252,0-0.621-0.009-0.891-0.018c-0.027-0.207-0.063-0.342-0.136-0.513
			c0.352,0.045,0.631,0.063,0.964,0.063c0.197,0,0.233-0.036,0.233-0.216V68.03H78.4v0.351c0,0.36,0.009,0.558,0.036,0.756H77.86
			c0.026-0.216,0.036-0.432,0.036-0.756V68.03H75.96v0.396c0,0.414,0.01,0.603,0.046,0.81h-0.622
			c0.036-0.207,0.046-0.405,0.046-0.801v-2.043c0-0.333-0.01-0.576-0.036-0.792c0.225,0.027,0.477,0.036,0.828,0.036h1.675v-0.513
			h-1.747c-0.279,0-0.478,0.009-0.685,0.036v-0.495c0.207,0.027,0.379,0.036,0.685,0.036h1.747v-0.54h-2.179
			c-0.253,0-0.46,0.009-0.657,0.036v-0.513c0.188,0.027,0.359,0.036,0.657,0.036h2.179V63.187z M77.896,66.068H75.96v0.567h1.937
			V66.068z M77.896,67.049H75.96v0.567h1.937V67.049z M80.264,63.718v-0.531H78.4v0.531H80.264z M78.4,64.699h1.863v-0.54H78.4
			V64.699z M80.524,66.635v-0.567H78.4v0.567H80.524z M80.524,67.616v-0.567H78.4v0.567H80.524z"/>
	</g>
	<g>
		<path d="M78.382,56.095c0,0.405-0.333,0.738-0.738,0.738c-0.404,0-0.738-0.333-0.738-0.738c0-0.405,0.334-0.738,0.738-0.738
			C78.049,55.356,78.382,55.689,78.382,56.095z"/>
	</g>
	<g>
		<path d="M73.655,44.628c0.226,0.036,0.379,0.045,0.721,0.045h1.458c0.369,0,0.531-0.009,0.721-0.045v0.585
			c-0.189-0.027-0.333-0.036-0.657-0.036h-1.521c-0.315,0-0.513,0.009-0.721,0.036V44.628z M73.926,51.182
			c0.027-0.261,0.045-0.576,0.045-0.874v-1.206c0-0.288-0.009-0.486-0.036-0.738c0.153,0.027,0.262,0.036,0.576,0.036h1.233
			l0.234-0.009h0.117c0.045,0,0.09,0,0.188-0.009c-0.018,0.144-0.026,0.288-0.026,0.693v1.044c0,0.261,0.009,0.432,0.018,0.549
			c-0.099-0.009-0.27-0.018-0.504-0.018h-1.287v0.531H73.926z M73.953,45.906c0.162,0.027,0.324,0.036,0.612,0.036h1.152
			c0.288,0,0.423-0.009,0.594-0.036v0.558c-0.198-0.027-0.324-0.036-0.594-0.036h-1.152c-0.288,0-0.433,0.009-0.612,0.036V45.906z
			 M73.953,47.14c0.171,0.027,0.297,0.036,0.612,0.036h1.143c0.307,0,0.433-0.009,0.604-0.036v0.558
			c-0.189-0.027-0.333-0.036-0.604-0.036h-1.152c-0.27,0-0.44,0.009-0.603,0.036V47.14z M73.971,43.386
			c0.198,0.036,0.333,0.045,0.648,0.045h1.089c0.307,0,0.45-0.009,0.648-0.045v0.567c-0.18-0.027-0.387-0.036-0.648-0.036h-1.089
			c-0.271,0-0.45,0.009-0.648,0.036V43.386z M74.475,50.183h1.297v-1.323h-1.297V50.183z M81.434,50.399
			c0,0.27-0.08,0.468-0.233,0.567c-0.126,0.081-0.343,0.117-0.712,0.117c-0.197,0-0.314-0.009-0.863-0.045
			c-0.019-0.243-0.036-0.333-0.117-0.576c0.44,0.072,0.738,0.099,1.062,0.099c0.262,0,0.324-0.054,0.324-0.27v-6.374h-3.357v1.053
			c0,1.98-0.072,3.547-0.216,4.465c-0.108,0.729-0.289,1.296-0.567,1.8c-0.153-0.207-0.217-0.261-0.459-0.396
			c0.297-0.531,0.423-0.927,0.521-1.72c0.126-0.936,0.189-2.449,0.189-4.294c0-0.846-0.009-1.063-0.054-1.432
			c0.242,0.027,0.44,0.036,0.873,0.036h2.772c0.45,0,0.64-0.009,0.873-0.036c-0.026,0.234-0.036,0.468-0.036,0.882V50.399z
			 M78.49,45.438c-0.261,0-0.433,0.009-0.64,0.036v-0.522c0.234,0.036,0.405,0.045,0.631,0.045h0.45v-0.126
			c0-0.333-0.01-0.495-0.045-0.702h0.566c-0.036,0.198-0.045,0.369-0.045,0.711v0.117h0.469c0.278,0,0.44-0.009,0.657-0.045v0.522
			c-0.189-0.027-0.352-0.036-0.657-0.036h-0.469v0.963h0.595c0.297,0,0.45-0.009,0.639-0.045v0.54
			c-0.198-0.036-0.333-0.045-0.63-0.045h-1.647c-0.271,0-0.414,0.009-0.612,0.045v-0.54c0.189,0.036,0.342,0.045,0.612,0.045h0.567
			v-0.963H78.49z M80.264,49.247c0,0.216,0.009,0.351,0.027,0.486c-0.027-0.009-0.055-0.009-0.063-0.009c0,0-0.054,0-0.117,0.009
			c-0.009,0-0.026,0-0.036,0c-0.063,0-0.063,0-0.423-0.027h-1.134V50.3h-0.522c0.027-0.162,0.036-0.369,0.036-0.685v-1.548
			c0-0.243-0.009-0.414-0.027-0.585c0.189,0.018,0.36,0.027,0.621,0.027h1.026c0.307,0,0.486-0.009,0.64-0.027
			c-0.019,0.162-0.027,0.315-0.027,0.558V49.247z M78.518,49.247h1.269v-1.288h-1.269V49.247z"/>
	</g>
</g>
<g>
	<path d="M24.762,64.423c0-0.432-0.018-0.747-0.054-1.107c0.297,0.036,0.567,0.045,1.054,0.045h5.383
		c0.478,0,0.738-0.009,1.071-0.045c-0.035,0.333-0.054,0.639-0.054,1.107v5.482c0,0.657,0.019,0.99,0.054,1.233h-0.63V70.59h-6.248
		v0.549h-0.63c0.036-0.243,0.054-0.567,0.054-1.233V64.423z M25.338,70.077h6.248v-6.203h-6.248V70.077z M26.878,65.207
		c-0.388,0-0.604,0.009-0.847,0.045v-0.576c0.252,0.045,0.45,0.054,0.847,0.054h3.178c0.405,0,0.648-0.018,0.882-0.054v0.576
		c-0.252-0.036-0.468-0.045-0.873-0.045h-1.387v1.396h1.107c0.405,0,0.586-0.009,0.811-0.045v0.567
		c-0.225-0.036-0.433-0.045-0.811-0.045h-1.107v1.647h1.513c0.369,0,0.63-0.018,0.883-0.054v0.594
		c-0.262-0.036-0.531-0.054-0.883-0.054h-3.43c-0.369,0-0.621,0.018-0.892,0.054v-0.594c0.252,0.036,0.514,0.054,0.892,0.054h1.359
		v-1.647h-0.964c-0.378,0-0.594,0.009-0.818,0.045v-0.567c0.225,0.036,0.404,0.045,0.818,0.045h0.964v-1.396H26.878z M29.768,67.241
		c0.369,0.369,0.513,0.567,0.846,1.071l-0.423,0.27c-0.314-0.549-0.459-0.747-0.801-1.116L29.768,67.241z"/>
	<path d="M36.478,63.442c0-0.225-0.018-0.405-0.054-0.576h0.685c-0.045,0.153-0.055,0.306-0.055,0.585v0.333h2.503
		c0.505,0,0.774-0.018,0.99-0.054v0.621c-0.288-0.036-0.54-0.045-0.972-0.045h-5.744c-0.009,2.188-0.09,3.628-0.252,4.546
		c-0.144,0.774-0.405,1.477-0.828,2.197c-0.117-0.153-0.252-0.27-0.486-0.405c0.36-0.558,0.567-1.062,0.721-1.729
		c0.171-0.783,0.27-2.214,0.27-4.078c0-0.54-0.009-0.828-0.036-1.098c0.288,0.027,0.576,0.045,0.928,0.045h2.331V63.442z
		 M34.957,71.121c0.045-0.252,0.054-0.504,0.054-1.017v-1.99c0-0.486,0.018-0.918,0.036-1.206c-0.226,0.405-0.459,0.693-0.874,1.107
		c-0.099-0.189-0.233-0.36-0.378-0.486c0.586-0.504,1.026-1.044,1.432-1.773c0.243-0.432,0.433-0.874,0.514-1.233l0.603,0.171
		c-0.198,0.495-0.486,1.071-0.774,1.53v3.889c0,0.513,0.01,0.738,0.046,1.008H34.957z M39.439,70.284
		c0,0.504-0.233,0.684-0.918,0.684c-0.306,0-0.693-0.018-1.063-0.054c-0.036-0.252-0.071-0.405-0.162-0.63
		c0.514,0.099,0.838,0.135,1.162,0.135c0.342,0,0.414-0.045,0.414-0.261v-3.673h-1.98c-0.415,0-0.631,0.009-0.874,0.045v-0.594
		c0.189,0.036,0.414,0.045,0.855,0.045h1.999v-0.604c0-0.315-0.01-0.513-0.045-0.738h0.657c-0.036,0.216-0.046,0.396-0.046,0.729
		v0.612h0.324c0.388,0,0.621-0.018,0.855-0.054v0.612c-0.243-0.036-0.495-0.054-0.855-0.054h-0.324V70.284z M36.812,67.088
		c0.611,0.622,0.828,0.882,1.35,1.657l-0.495,0.36c-0.387-0.702-0.675-1.089-1.296-1.71L36.812,67.088z"/>
	<path d="M44.098,68.061c-0.522,1.188-1.054,1.729-1.702,1.729c-0.854,0-1.494-0.937-1.494-2.197c0-0.918,0.342-1.81,0.945-2.485
		c0.721-0.792,1.701-1.197,2.908-1.197c1.008,0,1.891,0.315,2.476,0.891c0.567,0.549,0.873,1.333,0.873,2.197
		c0,1.396-0.756,2.548-2.062,3.106c-0.405,0.171-0.747,0.279-1.368,0.414c-0.09-0.297-0.145-0.387-0.315-0.603
		c0.657-0.108,1.08-0.225,1.504-0.423c0.99-0.45,1.593-1.414,1.593-2.521c0-1.026-0.521-1.854-1.431-2.26
		c-0.334-0.144-0.595-0.207-1.045-0.225C44.845,65.738,44.503,67.115,44.098,68.061z M42.99,64.918
		c-0.909,0.549-1.468,1.566-1.468,2.683c0,0.864,0.378,1.531,0.864,1.531c0.378,0,0.738-0.423,1.126-1.306
		c0.369-0.846,0.702-2.179,0.818-3.331C43.791,64.541,43.404,64.667,42.99,64.918z"/>
	<path d="M50.321,68.213c-0.243,1.26-0.63,2.008-1.458,2.791c-0.136-0.216-0.226-0.315-0.433-0.459
		c0.567-0.477,0.864-0.9,1.116-1.557c0.271-0.72,0.388-1.531,0.388-2.674c0-0.414-0.01-0.604-0.036-0.792
		c0.261,0.036,0.513,0.045,0.864,0.045h3.664c0.306,0,0.486-0.009,0.684-0.036c-0.035,0.234-0.045,0.378-0.045,0.657v1.35
		c0,0.297,0.01,0.486,0.045,0.711c-0.18-0.027-0.396-0.036-0.63-0.036H50.321z M52.761,62.938c0.388,0.522,1.081,1.098,1.909,1.566
		c0.585,0.333,1.134,0.576,1.899,0.846c-0.171,0.189-0.207,0.243-0.342,0.558c-1.81-0.81-2.944-1.576-3.781-2.539
		c-0.459,0.585-0.954,1.017-1.747,1.53c-0.603,0.387-1.107,0.648-1.917,0.99c-0.09-0.207-0.181-0.351-0.343-0.522
		c0.757-0.243,1.233-0.459,1.854-0.837c0.819-0.504,1.54-1.134,1.828-1.593H52.761z M50.961,71.139h-0.586
		c0.036-0.261,0.055-0.513,0.055-0.756v-0.9c0-0.306-0.009-0.477-0.036-0.684c0.188,0.027,0.351,0.036,0.612,0.036h3.718
		c0.271,0,0.441-0.009,0.64-0.036c-0.036,0.216-0.046,0.414-0.046,0.675v0.909c0,0.261,0.019,0.522,0.055,0.756h-0.604V70.77h-3.808
		V71.139z M50.456,67.079c-0.018,0.252-0.026,0.342-0.063,0.675h4.123v-0.675H50.456z M54.517,66.638v-0.621h-4.033v0.405
		c0,0.045,0,0.054,0,0.216H54.517z M50.979,70.302h3.781v-1h-3.781V70.302z M51.275,64.576c0.162,0.027,0.324,0.036,0.567,0.036
		h1.297c0.252,0,0.387-0.009,0.558-0.036v0.513c-0.162-0.027-0.315-0.036-0.531-0.036h-1.341c-0.252,0-0.388,0.009-0.55,0.036
		V64.576z"/>
</g>
<g>
	<path d="M7.031,88.507c-0.288-0.04-0.559-0.056-1.054-0.056H1.062c-0.438,0-0.806,0.016-1.062,0.056v-0.663
		c0.256,0.04,0.599,0.056,1.062,0.056h4.916c0.471,0,0.813-0.016,1.054-0.056V88.507z"/>
	<path d="M11.336,87.725c0.367,0,0.583-0.008,0.742-0.04v0.535c-0.159-0.024-0.391-0.04-0.726-0.04H8.679
		c-0.367,0-0.566,0.008-0.758,0.04v-0.535c0.184,0.032,0.399,0.04,0.766,0.04h1.725c0.287-0.583,0.423-0.958,0.574-1.588
		l0.486,0.167c-0.199,0.599-0.327,0.917-0.59,1.42H11.336z M11.232,85.555c0.359,0,0.559-0.008,0.742-0.04v0.526
		c-0.159-0.032-0.383-0.04-0.734-0.04H8.854c-0.327,0-0.534,0.008-0.718,0.04v-0.526c0.191,0.032,0.375,0.04,0.742,0.04h0.965
		v-0.295c0-0.255-0.016-0.455-0.048-0.606h0.599c-0.031,0.184-0.048,0.359-0.048,0.614v0.288H11.232z M8.966,91.851H8.432
		c0.023-0.184,0.032-0.359,0.032-0.718v-1.62c0-0.367-0.009-0.503-0.024-0.67c0.168,0.016,0.352,0.024,0.631,0.024h1.891
		c0.296,0,0.447-0.008,0.583-0.024c-0.024,0.16-0.024,0.255-0.024,0.663v1.716c0,0.295,0.009,0.438,0.032,0.63h-0.534v-0.495H8.966
		V91.851z M9.102,86.153c0.256,0.479,0.367,0.766,0.535,1.325l-0.463,0.16c-0.128-0.495-0.256-0.814-0.519-1.325L9.102,86.153z
		 M8.966,90.909h2.06v-1.596h-2.06V90.909z M15.127,85.219c-0.056,0.096-0.056,0.096-0.327,0.71
		c-0.207,0.471-0.511,1.053-0.822,1.58c0.511,0.526,0.711,0.806,0.902,1.253c0.159,0.359,0.239,0.742,0.239,1.117
		c0,0.431-0.144,0.742-0.407,0.894c-0.144,0.08-0.391,0.12-0.718,0.12c-0.216,0-0.423-0.008-0.663-0.032
		c-0.008-0.224-0.039-0.359-0.104-0.535c0.319,0.056,0.519,0.08,0.774,0.08c0.455,0,0.606-0.144,0.606-0.566
		c0-0.367-0.088-0.718-0.264-1.085c-0.207-0.431-0.415-0.686-0.949-1.157c0.463-0.75,0.782-1.421,1.077-2.227h-1.588v5.674
		c0,0.407,0.016,0.654,0.056,0.886h-0.606c0.032-0.231,0.048-0.495,0.048-0.878v-5.426c0-0.24-0.008-0.463-0.032-0.734
		c0.208,0.016,0.359,0.024,0.639,0.024h1.285c0.303,0,0.471-0.008,0.614-0.032L15.127,85.219z"/>
	<path d="M18.379,85.93c0.264-0.559,0.359-0.838,0.384-1.093l0.638,0.111c-0.071,0.104-0.071,0.104-0.207,0.431
		c-0.104,0.255-0.208,0.471-0.247,0.542c0.096-0.008,0.096-0.008,0.167-0.008c1.277-0.064,2.075-0.16,2.514-0.303l0.048,0.542
		c-0.127,0.008-0.175,0.016-0.319,0.04c-0.829,0.112-1.667,0.176-2.633,0.208c-0.239,0.471-0.439,0.79-0.719,1.133
		c-0.079,0.096-0.239,0.279-0.271,0.303c-0.056,0.04-0.096,0.072-0.104,0.08c0,0.008-0.008,0.008-0.008,0.008
		c0,0.008,0,0.008,0,0.008c0.008,0.016,0.008,0.016,0.016,0.024c0.288-0.224,0.288-0.224,0.367-0.279
		c0.367-0.255,0.79-0.391,1.205-0.391c0.591,0,0.95,0.295,1.054,0.886c0.583-0.231,1.037-0.399,1.389-0.526
		c0.391-0.136,0.415-0.144,0.543-0.231l0.255,0.559c-0.415,0.072-1.133,0.311-2.131,0.702c0.016,0.208,0.016,0.287,0.016,0.487
		c0,0.104,0,0.279-0.008,0.439c-0.008,0.175-0.008,0.287-0.008,0.359c0,0.112,0,0.176,0.016,0.288l-0.542,0.008
		c0.023-0.176,0.048-0.663,0.048-1.149c0-0.127,0-0.144-0.008-0.239c-1.086,0.511-1.501,0.886-1.501,1.365
		c0,0.527,0.495,0.758,1.62,0.758c0.79,0,1.676-0.128,2.131-0.312l0.072,0.615c-0.12,0.008-0.16,0.016-0.319,0.04
		c-0.631,0.104-1.325,0.16-1.939,0.16c-1.429,0-2.123-0.407-2.123-1.229c0-0.439,0.271-0.854,0.814-1.261
		c0.271-0.2,0.654-0.407,1.188-0.639c-0.063-0.438-0.255-0.63-0.63-0.63c-0.503,0-1.134,0.295-1.779,0.846
		c-0.312,0.263-0.487,0.447-0.615,0.662l-0.446-0.447c0.551-0.423,1.213-1.261,1.787-2.282c0.024-0.04,0.024-0.04,0.072-0.12
		c-0.032,0.008-0.112,0.016-0.152,0.016c-0.127,0-0.877-0.016-1.173-0.024c-0.04,0-0.104,0-0.128,0c-0.071,0-0.087,0-0.175,0.008
		l0.008-0.551c0.287,0.056,0.894,0.088,1.708,0.088H18.379z"/>
	<path d="M23.794,88.116c0.12,0.016,0.191,0.024,0.312,0.024c0.056,0,0.096,0,0.279-0.008c0.071-0.088,0.071-0.088,0.247-0.319
		c0.072-0.088,0.144-0.184,0.312-0.415c-0.327-0.455-0.719-0.918-1.094-1.293l0.304-0.359c0.144,0.16,0.207,0.223,0.287,0.319
		c0.431-0.655,0.679-1.142,0.758-1.46l0.487,0.199c-0.072,0.104-0.104,0.16-0.184,0.303c-0.304,0.575-0.463,0.83-0.774,1.301
		c0.256,0.303,0.327,0.391,0.479,0.591c0.471-0.703,0.766-1.221,0.861-1.508l0.463,0.263c-0.071,0.088-0.111,0.152-0.215,0.319
		c-0.376,0.606-1.038,1.548-1.421,2.035c0.511-0.032,0.83-0.056,1.285-0.12c-0.12-0.295-0.168-0.407-0.336-0.71l0.367-0.191
		c0.279,0.55,0.447,0.949,0.654,1.596l-0.398,0.191c-0.072-0.247-0.096-0.335-0.144-0.486c-0.224,0.04-0.463,0.063-0.727,0.096
		v2.617c0,0.343,0.016,0.551,0.048,0.798h-0.559c0.032-0.248,0.048-0.455,0.048-0.798v-2.578c-0.279,0.024-0.423,0.032-0.606,0.048
		c-0.335,0.016-0.503,0.032-0.662,0.064L23.794,88.116z M24.688,89.09c-0.087,1.109-0.175,1.58-0.398,2.274l-0.439-0.216
		c0.248-0.654,0.344-1.165,0.392-2.146L24.688,89.09z M26.324,88.962c0.175,0.654,0.271,1.109,0.367,1.859l-0.447,0.136
		c-0.056-0.774-0.136-1.213-0.327-1.875L26.324,88.962z M30.106,86.097c0.344,0,0.535-0.008,0.75-0.032
		c-0.023,0.247-0.031,0.479-0.031,0.806v4.27c0,0.479-0.168,0.606-0.79,0.606c-0.256,0-0.527-0.008-0.774-0.032
		c-0.008-0.2-0.048-0.351-0.111-0.527c0.366,0.056,0.614,0.08,0.854,0.08c0.255,0,0.343-0.048,0.343-0.2v-1.604
		c-0.119,0.104-0.223,0.248-0.319,0.423c-0.311-0.343-0.502-0.638-0.718-1.062c-0.224-0.463-0.327-0.806-0.415-1.396
		c-0.056,0.615-0.168,1.014-0.407,1.532c-0.176,0.375-0.343,0.615-0.63,0.958c-0.104-0.176-0.208-0.295-0.352-0.407
		c0.296-0.271,0.495-0.551,0.687-0.966c0.295-0.63,0.431-1.213,0.447-2.003h-1.157v4.461c0,0.407,0.008,0.679,0.031,0.87h-0.542
		c0.031-0.231,0.039-0.479,0.039-0.894v-4.125c0-0.328-0.008-0.535-0.031-0.79c0.239,0.024,0.398,0.032,0.75,0.032h0.918v-0.583
		c0-0.303-0.017-0.535-0.048-0.766h0.559c-0.032,0.223-0.048,0.447-0.048,0.758v0.591H30.106z M29.109,86.544
		c0.023,0.734,0.239,1.468,0.654,2.171c0.176,0.311,0.327,0.495,0.582,0.742v-2.913H29.109z"/>
	<path d="M34.046,85.65c-0.151,0-0.343,0.016-0.606,0.04v-0.574c0.159,0.032,0.319,0.04,0.606,0.04H35.1
		c0.383,0,0.582-0.016,0.742-0.048c-0.024,0.2-0.032,0.351-0.032,0.527c0,1.005,0.216,1.899,0.679,2.785
		c0.311,0.599,0.702,1.133,1.196,1.652c0.472,0.479,0.774,0.718,1.493,1.157c-0.216,0.184-0.271,0.239-0.447,0.511
		c-0.694-0.487-1.069-0.814-1.548-1.365c-0.463-0.527-0.87-1.133-1.142-1.724c-0.239-0.503-0.359-0.854-0.503-1.477
		c-0.247,1.062-0.574,1.82-1.117,2.586c-0.295,0.423-0.662,0.83-1.077,1.213c-0.295,0.271-0.503,0.439-1.006,0.782
		c-0.128-0.208-0.231-0.328-0.431-0.471c0.87-0.542,1.324-0.934,1.852-1.572c0.574-0.703,0.981-1.469,1.229-2.322
		c0.152-0.543,0.216-0.942,0.256-1.74H34.046z"/>
</g>
<rect x="19.721" y="0.375" fill="none" stroke="#000000" stroke-width="0.75" stroke-miterlimit="10" width="71.086" height="15.074"/>
<rect x="19.589" y="59.466" fill="none" stroke="#000000" stroke-width="0.75" stroke-miterlimit="10" width="40.481" height="15.074"/>
<rect x="19.721" y="103.375" fill="none" stroke="#000000" stroke-width="0.75" stroke-miterlimit="10" width="71.086" height="15.074"/>
<g>
	<g>
		<line fill="none" stroke="#000000" stroke-width="0.75" stroke-miterlimit="10" x1="31.462" y1="43.553" x2="31.462" y2="58.51"/>
		<g>
			<path d="M27.862,53.384c0.174-0.111,0.406-0.059,0.518,0.116l3.082,4.839l3.082-4.839c0.111-0.175,0.344-0.227,0.518-0.116
				c0.175,0.111,0.225,0.345,0.115,0.519l-3.398,5.335c-0.068,0.108-0.188,0.174-0.316,0.174s-0.248-0.066-0.316-0.174l-3.398-5.335
				c-0.039-0.063-0.059-0.132-0.059-0.202C27.688,53.578,27.75,53.456,27.862,53.384z"/>
		</g>
	</g>
</g>
<line fill="none" stroke="#000000" stroke-width="0.75" stroke-miterlimit="10" x1="31.462" y1="15.449" x2="31.462" y2="33.865"/>
<g>
	<g>
		<line fill="none" stroke="#000000" stroke-width="0.75" stroke-miterlimit="10" x1="48.848" y1="46.303" x2="48.848" y2="58.51"/>
		<g>
			<path d="M45.248,53.384c0.174-0.111,0.406-0.059,0.518,0.116l3.082,4.839L51.93,53.5c0.111-0.175,0.344-0.227,0.518-0.116
				c0.175,0.111,0.226,0.345,0.115,0.519l-3.398,5.335c-0.069,0.108-0.188,0.174-0.316,0.174s-0.247-0.066-0.316-0.174l-3.398-5.335
				c-0.04-0.063-0.059-0.132-0.059-0.202C45.074,53.578,45.136,53.456,45.248,53.384z"/>
		</g>
	</g>
</g>
<line fill="none" stroke="#000000" stroke-width="0.75" stroke-miterlimit="10" x1="48.848" y1="15.449" x2="48.848" y2="27.053"/>
<g>
	<g>
		
			<line fill="none" stroke="#000000" stroke-width="0.75" stroke-miterlimit="10" x1="40.619" y1="74.54" x2="40.619" y2="102.473"/>
		<g>
			<path d="M37.02,97.347c0.174-0.111,0.406-0.059,0.518,0.116l3.082,4.839l3.082-4.839c0.111-0.175,0.344-0.227,0.518-0.116
				c0.175,0.111,0.226,0.345,0.115,0.519l-3.398,5.335c-0.069,0.108-0.188,0.174-0.316,0.174s-0.247-0.066-0.316-0.174l-3.398-5.335
				c-0.04-0.063-0.059-0.132-0.059-0.202C36.846,97.541,36.907,97.419,37.02,97.347z"/>
		</g>
	</g>
</g>
<g>
	<g>
		
			<line fill="none" stroke="#000000" stroke-width="0.75" stroke-miterlimit="10" x1="77.644" y1="70.24" x2="77.644" y2="102.473"/>
		<g>
			<path d="M74.044,97.347c0.174-0.111,0.406-0.059,0.518,0.116l3.082,4.839l3.082-4.839c0.111-0.175,0.344-0.227,0.518-0.116
				c0.175,0.111,0.225,0.345,0.115,0.519l-3.398,5.335c-0.068,0.108-0.188,0.174-0.316,0.174s-0.248-0.066-0.316-0.174l-3.398-5.335
				c-0.039-0.063-0.059-0.132-0.059-0.202C73.87,97.541,73.932,97.419,74.044,97.347z"/>
		</g>
	</g>
</g>
<line fill="none" stroke="#000000" stroke-width="0.75" stroke-miterlimit="10" x1="77.644" y1="15.449" x2="77.644" y2="42.49"/>
</svg>
