<?xml version="1.0" encoding="utf-8"?>
<!-- Generator: Adobe Illustrator 16.0.0, SVG Export Plug-In . SVG Version: 6.00 Build 0)  -->
<!DOCTYPE svg PUBLIC "-//W3C//DTD SVG 1.1//EN" "http://www.w3.org/Graphics/SVG/1.1/DTD/svg11.dtd">
<svg version="1.1" id="ido_x5F_keido" xmlns="http://www.w3.org/2000/svg" xmlns:xlink="http://www.w3.org/1999/xlink" x="0px"
	 y="0px" width="82.178px" height="89.375px" viewBox="0 0 82.178 89.375" enable-background="new 0 0 82.178 89.375"
	 xml:space="preserve">
<g>
	<defs>
		<rect id="SVGID_1_" width="82.178" height="89.375"/>
	</defs>
	<clipPath id="SVGID_2_">
		<use xlink:href="#SVGID_1_"  overflow="visible"/>
	</clipPath>
	
		<line clip-path="url(#SVGID_2_)" fill="none" stroke="#DCDDDD" stroke-width="0.3426" x1="2.43" y1="90.534" x2="2.43" y2="-5.751"/>
	
		<line clip-path="url(#SVGID_2_)" fill="none" stroke="#DCDDDD" stroke-width="0.3426" x1="68.339" y1="90.534" x2="68.339" y2="-5.751"/>
	
		<line clip-path="url(#SVGID_2_)" fill="none" stroke="#DCDDDD" stroke-width="0.3426" x1="46.899" y1="90.534" x2="46.899" y2="-5.751"/>
	
		<line clip-path="url(#SVGID_2_)" fill="none" stroke="#DCDDDD" stroke-width="0.3426" x1="25.172" y1="90.534" x2="25.172" y2="-5.751"/>
	
		<line clip-path="url(#SVGID_2_)" fill="none" stroke="#DCDDDD" stroke-width="0.3426" x1="86.171" y1="83.796" x2="-3.022" y2="83.796"/>
	
		<line clip-path="url(#SVGID_2_)" fill="none" stroke="#DCDDDD" stroke-width="0.3426" x1="86.171" y1="60.704" x2="-3.022" y2="60.704"/>
	
		<line clip-path="url(#SVGID_2_)" fill="none" stroke="#DCDDDD" stroke-width="0.3426" x1="86.171" y1="33.131" x2="-3.022" y2="33.131"/>
	
		<line clip-path="url(#SVGID_2_)" fill="none" stroke="#DCDDDD" stroke-width="0.3426" x1="86.171" y1="3.146" x2="-3.022" y2="3.146"/>
	
		<line clip-path="url(#SVGID_2_)" fill="none" stroke="#DCDDDD" stroke-width="0.3426" stroke-dasharray="1.3705,1.3705" x1="86.171" y1="75.762" x2="-3.022" y2="75.762"/>
	
		<path id="北朝鮮" clip-path="url(#SVGID_2_)" fill="#82C262" stroke="#9FA0A0" stroke-width="0.3426" stroke-linecap="round" stroke-linejoin="round" d="
		M21.102,37.7c-0.483,0.412-0.977,0.744-1.384,0.744c-0.578,0-1.88,0.898-3.001,1.841l0,0.001c-1.104-0.273-3.702-0.794-3.607-1.124
		c0.115-0.402,1.148-1.436,1.034-2.183c-0.115-0.747,0.459-1.838,0.115-1.838s-1.148,0.172-1.493-0.345
		c-0.195-0.292-0.506-0.233-0.943-0.118c0.355-0.783,0.739-1.61,1.057-1.893c0.517-0.459,1.091-0.632,1.896-0.977
		c0.804-0.345,2.47-1.436,2.7-1.953c0.23-0.517,0.345-0.919,0.977-0.861c0.632,0.057,1.092,0.804,1.896,0.229
		c0.804-0.574,0.172-1.781,0.689-1.781s0.919,0.345,1.436-0.172c0.517-0.517,1.379-1.723,2.183-1.896
		c0.266-0.057,0.563-0.07,0.854-0.087v0.002l0.345,1.379l0.001,0.004c-0.099,0.068-0.183,0.135-0.224,0.195
		c-0.23,0.344-1.321,2.7-1.551,3.159c-0.229,0.459-2.01,2.873-2.642,3.332c-0.632,0.459-1.838,0.804-2.068,1.321
		s-0.804,0.977,0.574,1.896c0.446,0.297,0.825,0.7,1.151,1.125"/>
	
		<path id="南朝鮮" clip-path="url(#SVGID_2_)" fill="#F1EA96" stroke="#9FA0A0" stroke-width="0.3426" stroke-linecap="round" stroke-linejoin="round" stroke-dasharray="0.3426,0.6852" d="
		M21.102,37.7c-0.483,0.412-0.977,0.744-1.384,0.744c-0.578,0-1.88,0.898-3.001,1.841l0,0.001c0.245,0.06,0.418,0.109,0.471,0.14
		c0.287,0.172,0.805,1.494,0.632,1.896c-0.172,0.402-0.632-0.23-1.092,0s0.402,2.24,0.632,2.7s-0.689,1.724-0.919,2.413
		c-0.229,0.689,0.287,1.896,0.747,2.068s1.781-1.206,2.24-1.378s1.379-0.115,1.839-0.058c0.459,0.057,1.206-1.034,1.723-1.723
		c0.518-0.689,0.058-1.724-0.172-2.585c-0.229-0.862-0.23-3.102-0.46-3.734c-0.155-0.427-0.58-1.43-1.262-2.321"/>
	
		<polygon clip-path="url(#SVGID_2_)" fill="#F1EA96" stroke="#9FA0A0" stroke-width="0.3426" stroke-linecap="round" stroke-linejoin="round" points="
		76,75.762 76,60.704 20.026,60.704 18.417,68.232 7.917,68.66 7.917,75.708 31.417,75.762 31.417,83.796 48.083,83.796 
		48.083,75.762 	"/>
	<path clip-path="url(#SVGID_2_)" fill="#FFFFFF" d="M5.182,79.029c0.401-0.977,0.861-2.757,1.263-3.102s1.034-2.126,0.805-2.7
		c-0.229-0.575-0.402-1.207-0.517-1.494c-0.236-0.589-2.298,1.437-2.528,1.723c-0.229,0.287-0.919,2.413-0.919,3.044
		c0,0.632,0.575,2.298,1.034,2.873S4.78,80.006,5.182,79.029z"/>
	<path clip-path="url(#SVGID_2_)" fill="#DB433F" d="M25.545,50.708c-0.302,0.517-0.905,0.818-1.292,0.991s-0.474,0.905-0.431,1.12
		c0.043,0.215,0.991,1.034,1.206,1.034s-0.086-1.206,0.172-1.335c0.259-0.129,0.474,0.431,0.732,0.818
		c0.259,0.388-0.258,1.422-0.603,1.68c-0.345,0.259-0.259,0.862-0.172,1.336c0.086,0.474,0.345,1.249,0.603,1.335
		c0.259,0.086,0.302-0.819,0.474-0.948c0.172-0.129,0.182,1.129,0.603,1.077c0.345-0.043,0.689-0.646,0.991-0.861
		c0.302-0.215,0.302-1.077,0.388-1.724c0.086-0.646,0.646-1.766,0.948-2.197c0.301-0.431-0.561-0.991-0.604-1.551
		s-0.129-0.948-0.56-0.775c-0.431,0.172-0.861,0.129-1.206-0.215S25.847,50.191,25.545,50.708z"/>
	<path clip-path="url(#SVGID_2_)" fill="#DB433F" d="M35.109,49.847c-0.302-0.215-0.948-0.775-1.465-0.689
		c-0.517,0.086-0.646,1.207-1.335,1.293c-0.689,0.086-0.905-0.474-1.292-0.129s-1.12,1.25-1.292,1.465s0.172,0.215,0.517,0.344
		c0.345,0.129,0.081,1.29,0.776,1.637c0.603,0.302,1.12-1.766,1.465-2.154c0.344-0.388,1.378,0.043,1.68,0.043
		C34.463,51.656,35.411,50.062,35.109,49.847z"/>
	<path clip-path="url(#SVGID_2_)" fill="#DB433F" d="M37.177,45.969c-0.258,0-0.258-0.301-0.603-0.431s-0.302-0.129-1.292-0.215
		c-0.991-0.086-0.948,0.301-1.422,0.517c-0.474,0.215-2.197,0.086-2.757,0.215s-1.25,1.077-1.81,1.422
		c-0.56,0.344-0.818,1.034-1.249,1.292c-0.431,0.259-1.034,0.173-1.422,0.819s0.775,0.258,1.465,0.258c0.689,0,0.991,0,1.12-0.172
		c0.129-0.172,0.818-0.258,1.034-0.043c0.216,0.215,0.948-0.043,1.164-0.043s0.517-0.819,0.905-0.646
		c0.388,0.172,0.991-0.345,1.206-0.431s1.163-0.258,1.508-0.345c0.345-0.086,0.905,0,1.379,0.345
		c0.474,0.345-0.215,0.818-0.431,0.991c-0.215,0.172-0.086,0.819,0.216,1.292c0.301,0.474,0.425,0.617,1.077,0.689
		c0.776,0.086,1.292-1.335,1.681-1.68c0.387-0.345,0.646-0.302,0.818-0.431c0.172-0.129,0.301-1.034,0.431-1.163
		c0.129-0.129,0.431,0.387,0.646,0.431c0.215,0.043,0.818,0.043,1.163,0.043s1.292-0.517,1.508-0.646
		c0.215-0.129,0.431-0.646,0.646-0.689s0.215,0.732,0.517,0.732c0.301,0,0.56-1.25,0.603-1.637c0.043-0.388,0.345-0.215,0.646-0.258
		c0.302-0.043,0.689-0.689,0.862-0.732c0.172-0.043,0.215,0.388,0.043,0.56s-0.56,0.732-0.56,1.163s0.646,0.56,1.034,0.56
		s0.172-0.819,0.517-1.422c0.345-0.603,0.991-0.517,0.604-1.034c-0.388-0.517-0.086-1.336,0.043-1.594
		c0.129-0.258,0.345-1.853,0.517-2.197s0-2.068-0.043-2.456c-0.043-0.388,0.086-0.862,0.387-0.905
		c0.302-0.043,0.345,0.172,0.604,0.086c0.258-0.086,0.172-0.991,0.258-1.336c0.086-0.345,0.603-1.077,0.603-1.422
		c0-0.344-0.344-2.843-0.603-3.059c-0.258-0.215-0.56-1.724-0.603-2.025c-0.043-0.302-0.345-0.603-0.775-0.56
		s-0.431,0.474-0.431,0.646c0,0.172,0.474,0.172,0.603,0.172s0.086,0.345,0.086,0.646s-0.388,0.129-0.732,0.129
		s-0.431-0.215-0.517-0.603c-0.086-0.388-0.043-0.603-0.388-0.56c-0.345,0.043-0.172,0.388-0.258,0.776
		c-0.086,0.387-0.258,0.56-0.517,0.818c-0.258,0.258,0.086,0.56,0.215,1.12c0.129,0.56,0.043,0.474-0.345,0.862
		c-0.388,0.388,0.172,0.344,0.474,0.689s-0.388,1.551-0.56,2.197c-0.172,0.646-0.646,1.723-1.207,2.413
		c-0.56,0.689-1.335,1.551-2.024,1.81c-0.689,0.259-1.508,0.948-1.767,1.25s-0.603,0.474-1.034,0.56
		c-0.431,0.086-0.474-0.56-0.259-0.991c0.215-0.431,0.517-0.948,0.302-0.905c-0.216,0.043-0.905,0.258-1.077,0.56
		c-0.172,0.302-0.043,0.948-0.129,1.465c-0.086,0.517-0.861,1.034-1.163,1.465c-0.302,0.431,0.172,0.819,0.043,1.207
		S37.436,45.969,37.177,45.969z"/>
	<path clip-path="url(#SVGID_2_)" fill="#DB433F" d="M49.154,25.161c-0.215,0.172-0.732-0.302-1.25-0.388
		c-0.517-0.086-0.258,0.646-0.56,0.948s-0.948,0.517-1.077,0.991s0.215,1.077,0.474,1.465c0.258,0.388-0.129,0.345-0.302,0.646
		c-0.172,0.301,0.172,0.603,0.431,0.861c0.259,0.259,0.67-0.464,1.034-0.646c0.172-0.086,0.603-0.517,0.948-0.517
		s0.086-0.732-0.388-0.775c-0.474-0.043-0.646-0.086-1.034-0.258c-0.388-0.173,0.043-1.034,0.302-1.121
		c0.258-0.086,0.775,0.689,0.861,0.948c0.086,0.259,1.078-0.775,1.293-0.905c0.215-0.129,0.904,0.517,1.335,0.474
		c0.431-0.043,1.766,1.034,2.154,1.336c0.387,0.301,0.474-0.561,0.775-1.336c0.301-0.775,1.034-1.508,1.853-1.896
		c0.818-0.388,2.628-0.646,2.843-0.862s-0.388-0.172-0.732-0.172s-0.345-0.861-0.431-1.12c-0.086-0.258-0.043-0.948-0.043-1.163
		s-0.991,0.431-1.422,0.431s-0.259-0.431-0.345-0.775s-0.603,0.129-1.077,0.172c-0.474,0.043-1.421-0.819-2.025-1.335
		c-0.603-0.517-1.421-1.724-1.594-2.068c-0.172-0.345-0.388-0.086-0.689,0.172c-0.302,0.258-0.302,0.689-0.086,1.034
		c0.215,0.345,0.086,2.671-0.086,2.887c-0.172,0.215-0.603,1.163-0.431,1.594C50.059,24.213,49.37,24.988,49.154,25.161z"/>
	<path clip-path="url(#SVGID_2_)" fill="#FFFFFF" d="M7.651,90.344c-0.805-0.746-0.402-1.206-0.115-1.608
		c0.287-0.402,0.344-0.689-0.575-0.689c-0.919,0-0.689-0.919-1.551-0.747c-0.862,0.172-1.666,0.747-1.551,1.551"/>
	<path clip-path="url(#SVGID_2_)" fill="#FFFFFF" d="M61.378,88.329c-0.166,0.199,0.362,0.882,0.564,0.398
		C62.108,88.329,61.544,88.13,61.378,88.329z"/>
	
		<path clip-path="url(#SVGID_2_)" fill="#82C262" stroke="#9FA0A0" stroke-width="0.3426" stroke-linecap="round" stroke-linejoin="round" stroke-dasharray="0.3426,0.6852" d="
		M58.529,22.823c0.208,0.292,2.114-1.371,1.962-1.753C60.407,20.861,58.32,22.531,58.529,22.823z"/>
	
		<path clip-path="url(#SVGID_2_)" fill="#82C262" stroke="#9FA0A0" stroke-width="0.3426" stroke-linecap="round" stroke-linejoin="round" stroke-dasharray="0.3426,0.6852" d="
		M65.458,17.688c-0.208-0.042-1.207,0.919-1.711,0.919c-0.292,0-2.556,1.599-1.795,2.17C62.118,20.903,65.666,17.73,65.458,17.688z"
		/>
	
		<path clip-path="url(#SVGID_2_)" fill="#82C262" stroke="#9FA0A0" stroke-width="0.3426" stroke-linecap="round" stroke-linejoin="round" stroke-dasharray="0.3426,0.6852" d="
		M68.672,15.351c-0.292-0.5-1.929,1.536-1.461,1.67C67.503,17.104,68.964,15.852,68.672,15.351z"/>
	
		<path clip-path="url(#SVGID_2_)" fill="#82C262" stroke="#9FA0A0" stroke-width="0.3426" stroke-linecap="round" stroke-linejoin="round" stroke-dasharray="0.3426,0.6852" d="
		M72.429,12.346c-0.343-0.147-1.336,0.459-1.002,0.96C71.761,13.807,72.721,12.471,72.429,12.346z"/>
	
		<path clip-path="url(#SVGID_2_)" fill="#82C262" stroke="#9FA0A0" stroke-width="0.3426" stroke-linecap="round" stroke-linejoin="round" stroke-dasharray="0.3426,0.6852" d="
		M81.236,0.783c-0.576-0.096-0.751,0.584-1.377,0.751c-0.626,0.167-1.044,1.21-0.543,1.294S81.737,0.867,81.236,0.783z"/>
	<path clip-path="url(#SVGID_2_)" fill="#FFFFFF" d="M76.979,6.71c-0.264,0-0.417,0.542-0.208,0.542
		C76.979,7.253,77.229,6.71,76.979,6.71z"/>
	<path clip-path="url(#SVGID_2_)" fill="#FFFFFF" d="M20.455,68.674c-0.381-0.173-1.463,1.254-0.976,1.462
		C19.968,70.346,21.222,69.022,20.455,68.674z"/>
	<path clip-path="url(#SVGID_2_)" fill="#FFFFFF" d="M33.302,82.588c-0.183,0.053-0.338,0.276,0,0.314
		C33.538,82.928,33.485,82.536,33.302,82.588z"/>
	<path clip-path="url(#SVGID_2_)" fill="#FFFFFF" d="M75.348,74.835c-0.183,0.052-0.337,0.276,0,0.313
		C75.584,75.175,75.531,74.782,75.348,74.835z"/>
	<path clip-path="url(#SVGID_2_)" fill="#FFFFFF" d="M49.413,70.957c-0.183,0.053-0.338,0.276,0,0.314
		C49.648,71.297,49.596,70.905,49.413,70.957z"/>
	<path clip-path="url(#SVGID_2_)" fill="#FFFFFF" d="M10.052,74.228c-0.183,0.053-0.338,0.276,0,0.314
		C10.288,74.568,10.235,74.176,10.052,74.228z"/>
	<path clip-path="url(#SVGID_2_)" fill="none" d="M-4.755,77.075c0.287-0.345,0.689-0.632,1.263-0.632s1.609-1.034,2.126-1.724
		c0.517-0.689,0.344-1.206,1.091-1.321c0.747-0.115,0.632-1.034,0.632-1.264c0-0.229,1.206-0.517,1.838-1.091s0-1.091,0.288-1.436
		c0.287-0.345,0.804-2.24,1.034-2.929c0.229-0.689,1.263-1.379,2.068-1.494c0.804-0.115,0.976-0.172,1.091-1.148
		c0.115-0.977,0.517-1.379,0.747-1.609c0.23-0.229,0.058-1.091-0.058-1.608s-1.551-0.517-2.068-0.861
		c-0.517-0.345,1.608-2.011,1.781-2.298s-0.632-1.149-0.804-1.321s0.057-0.172,0.345-0.459s-0.402-1.723-0.977-2.01
		c-0.575-0.287-1.666-1.551-1.896-2.413c-0.23-0.861-1.207-2.872-1.838-3.274s-0.575-1.034-0.058-1.494
		c0.517-0.46,1.494-1.551,1.724-2.125s0.919-1.321,1.666-1.436c0.747-0.115,2.24-0.345,3.332-0.632
		c1.091-0.287,0.977-1.034-0.287-1.034c-1.264,0-2.413-0.632-3.16-0.919c-0.747-0.287-2.872,0.977-3.332,1.264
		c-0.459,0.288-1.149-0.459-1.666-1.378s-1.666-1.896-2.24-2.7c-0.575-0.804-0.574-1.034,0.345-1.321
		c0.919-0.287,1.953-0.229,2.814-0.344c0.862-0.115,0.287-1.034,0.862-1.724c0.575-0.689,3.389-2.584,3.734-2.815
		c0.345-0.229,0.689-0.172,1.034-0.172s0.747,0.23,0.862,0.977c0.115,0.747-0.689,1.494-1.149,1.896
		c-0.459,0.402-0.172,0.689,0,1.264s-0.23,1.092,0.115,1.379c0.344,0.287,2.929-1.896,4.079-1.953
		c0.498-0.025,0.905-0.145,1.239-0.233c0.438-0.115,0.748-0.175,0.943,0.118c0.345,0.517,1.148,0.345,1.493,0.345
		s-0.229,1.092-0.115,1.838c0.115,0.747-0.919,1.781-1.034,2.183c-0.094,0.33,2.503,0.851,3.607,1.124
		c0.245,0.06,0.418,0.109,0.471,0.14c0.287,0.172,0.805,1.494,0.632,1.896c-0.172,0.402-0.632-0.23-1.092,0s0.402,2.24,0.632,2.7
		s-0.689,1.724-0.919,2.413c-0.229,0.689,0.287,1.896,0.747,2.068s1.781-1.206,2.24-1.378s1.379-0.115,1.839-0.058
		c0.459,0.057,1.206-1.034,1.723-1.723c0.518-0.689,0.058-1.724-0.172-2.585c-0.229-0.862-0.23-3.102-0.46-3.734
		c-0.155-0.427-0.58-1.43-1.262-2.321c-0.326-0.426-0.705-0.828-1.151-1.125c-1.378-0.919-0.804-1.379-0.574-1.896
		s1.436-0.861,2.068-1.321c0.632-0.459,2.413-2.873,2.642-3.332c0.23-0.459,1.321-2.815,1.551-3.159
		c0.041-0.061,0.125-0.127,0.224-0.195c0.463-0.318,1.425-0.677,1.614-0.724c0.229-0.058,0.689-1.264,1.092-1.551
		c0.402-0.287,1.034,0.804,1.781,1.379c0.747,0.574,2.814-0.345,3.676-0.632c0.861-0.288,2.24-2.413,2.585-2.814
		s1.436-1.838,2.011-2.47c0.574-0.632,1.321-1.148,2.24-1.838c0.919-0.689,1.78-2.585,2.01-3.274s1.551-2.7,2.183-3.734
		c0.632-1.034,1.092-1.379,1.667-1.953c0.574-0.574,0.574-3.906,1.034-5.974s-0.172-2.527,0.057-3.619
		c0.229-1.091,1.551-3.159,1.781-3.848c0.23-0.689-0.345-1.379-0.689-1.149c-0.345,0.23-0.862-1.953-1.091-2.355
		s0.229-0.345,0.574-0.632"/>
	
		<path clip-path="url(#SVGID_2_)" fill="#82C262" stroke="#9FA0A0" stroke-width="0.3426" stroke-linecap="round" stroke-linejoin="round" stroke-dasharray="0.3426,0.6852" d="
		M50.776,2.791h4.744c0.03,1.008,0.15,2.242,0.364,2.79c0.283,0.727,0.929,1.817,0.565,1.615c-0.364-0.202-2.342-1.696-2.746-1.494
		c-0.404,0.202-0.524,1.656-0.807,2.141s-0.768,1.696-0.485,2.423c0.283,0.727,1.05,2.019,1.05,2.382
		c0,0.363,1.413,3.189,0.485,2.786c-0.813-0.353-1.736-1.535-2.019-1.292c-0.283,0.242-0.484,1.817-1.171,1.534
		s0.282-5.37,0.202-5.895c-0.081-0.525-0.646-3.755-0.444-4.522C50.617,4.865,50.699,3.811,50.776,2.791z"/>
	
		<path clip-path="url(#SVGID_2_)" fill="none" stroke="#9FA0A0" stroke-width="0.3426" stroke-linecap="round" stroke-linejoin="round" d="
		M11.822,34.678c0.355-0.782,0.738-1.609,1.057-1.892c0.517-0.459,1.091-0.632,1.896-0.977c0.804-0.345,2.47-1.436,2.7-1.953
		c0.23-0.517,0.345-0.919,0.977-0.861c0.632,0.057,1.092,0.804,1.896,0.229c0.804-0.574,0.172-1.781,0.689-1.781
		s0.919,0.345,1.436-0.172c0.517-0.517,1.379-1.723,2.183-1.896s1.896,0.058,2.24-0.632s1.207-2.527,0.861-3.274
		c-0.344-0.747-0.574-1.437-0.402-1.838s0.919-0.689,1.494-0.976s1.494,0.517,2.068,0.172c0.574-0.345,2.01-2.355,2.527-3.619
		s0.574-3.389,0.804-4.136c0.23-0.747,1.092-3.275,0.575-2.987S32.869,8.66,32.295,8.66c-0.575,0-3.044,1.321-3.619,1.321
		c-0.574,0-1.953-0.574-2.125-1.207c-0.172-0.632,0.115-1.896-0.402-2.24s-1.953-1.494-2.527-2.011s-2.011-1.206-2.815-1.551
		c-0.804-0.345-1.494-0.287-1.378-1.264s-1.264-2.757-1.206-3.389c0.057-0.632,0.345-0.977-0.23-1.666"/>
	
		<path clip-path="url(#SVGID_2_)" fill="none" stroke="#9FA0A0" stroke-width="0.3426" stroke-linecap="round" stroke-linejoin="round" d="
		M-4.854,3.335c-0.564,1.313-1.247,3.046-1.051,4.062c0.288,1.493,0.977,3.217,1.608,3.217s1.896-1.379,2.987-1.207
		c1.091,0.172,2.987,0.804,3.159,1.207c0.172,0.402,0.402,2.93-0.632,3.332s-2.815-0.058-3.619,0.459
		c-0.804,0.517-5.055,4.136-6.204,3.677c-1.149-0.46-1.608-2.7-2.355-2.93"/>
	
		<path clip-path="url(#SVGID_2_)" fill="none" stroke="#9FA0A0" stroke-width="0.3426" stroke-linecap="round" stroke-linejoin="round" stroke-dasharray="0.3426,0.6852" d="
		M21.102,37.7c-0.483,0.412-0.977,0.744-1.384,0.744c-0.578,0-1.88,0.898-3.001,1.841"/>
	
		<line clip-path="url(#SVGID_2_)" fill="none" stroke="#9FA0A0" stroke-width="0.3426" stroke-linecap="round" stroke-linejoin="round" x1="25.854" y1="26.67" x2="25.509" y2="25.291"/>
	
		<path clip-path="url(#SVGID_2_)" fill="none" stroke="#595757" stroke-width="0.6852" stroke-linecap="round" stroke-linejoin="round" d="
		M48.379-8.516c-0.345,0.287-0.804,0.229-0.574,0.632s0.747,2.585,1.091,2.355c0.344-0.23,0.919,0.459,0.689,1.149
		c-0.23,0.689-1.551,2.757-1.781,3.848c-0.229,1.092,0.403,1.551-0.057,3.619s-0.459,5.4-1.034,5.974
		c-0.575,0.574-1.035,0.919-1.667,1.953c-0.632,1.034-1.953,3.044-2.183,3.734s-1.091,2.585-2.01,3.274
		c-0.919,0.689-1.666,1.206-2.24,1.838c-0.575,0.632-1.666,2.068-2.011,2.47s-1.724,2.527-2.585,2.814
		c-0.862,0.288-2.93,1.207-3.676,0.632c-0.747-0.575-1.379-1.666-1.781-1.379c-0.402,0.287-0.862,1.494-1.092,1.551
		c-0.229,0.057-1.608,0.574-1.838,0.919c-0.23,0.344-1.321,2.7-1.551,3.159c-0.229,0.459-2.01,2.873-2.642,3.332
		c-0.632,0.459-1.838,0.804-2.068,1.321s-0.804,0.977,0.574,1.896c1.379,0.919,2.183,2.814,2.413,3.446s0.23,2.872,0.46,3.734
		c0.229,0.861,0.689,1.896,0.172,2.585c-0.517,0.689-1.263,1.78-1.723,1.723c-0.46-0.057-1.379-0.115-1.839,0.058
		s-1.781,1.551-2.24,1.378s-0.976-1.378-0.747-2.068c0.23-0.689,1.148-1.953,0.919-2.413s-1.091-2.47-0.632-2.7s0.919,0.402,1.092,0
		c0.172-0.402-0.345-1.723-0.632-1.896s-4.193-0.862-4.078-1.264c0.115-0.402,1.148-1.436,1.034-2.183
		c-0.115-0.747,0.459-1.838,0.115-1.838s-1.148,0.172-1.493-0.345s-1.034,0.058-2.183,0.115c-1.149,0.057-3.734,2.24-4.079,1.953
		c-0.345-0.287,0.057-0.805-0.115-1.379s-0.459-0.861,0-1.264c0.459-0.402,1.264-1.148,1.149-1.896
		C7.422,31.58,7.02,31.35,6.675,31.35s-0.689-0.058-1.034,0.172c-0.345,0.23-3.159,2.126-3.734,2.815
		c-0.575,0.689,0,1.609-0.862,1.724c-0.861,0.115-1.896,0.058-2.814,0.344c-0.919,0.288-0.919,0.517-0.345,1.321
		c0.575,0.805,1.723,1.781,2.24,2.7s1.207,1.666,1.666,1.378c0.459-0.287,2.584-1.551,3.332-1.264
		c0.747,0.287,1.896,0.919,3.16,0.919c1.264,0,1.378,0.747,0.287,1.034c-1.091,0.287-2.585,0.517-3.332,0.632
		c-0.747,0.115-1.437,0.862-1.666,1.436s-1.207,1.666-1.724,2.125c-0.517,0.459-0.574,1.092,0.058,1.494s1.608,2.413,1.838,3.274
		c0.229,0.862,1.321,2.126,1.896,2.413c0.574,0.287,1.264,1.723,0.977,2.01s-0.517,0.287-0.345,0.459s0.977,1.034,0.804,1.321
		s-2.298,1.953-1.781,2.298c0.517,0.344,1.953,0.344,2.068,0.861s0.288,1.379,0.058,1.608c-0.23,0.23-0.632,0.632-0.747,1.609
		c-0.115,0.976-0.287,1.034-1.091,1.148c-0.805,0.115-1.838,0.805-2.068,1.494c-0.23,0.689-0.747,2.584-1.034,2.929
		c-0.288,0.345,0.344,0.861-0.288,1.436s-1.838,0.862-1.838,1.091c0,0.23,0.115,1.149-0.632,1.264
		c-0.747,0.115-0.575,0.632-1.091,1.321c-0.517,0.689-1.552,1.724-2.126,1.724s-0.976,0.287-1.263,0.632"/>
	
		<path clip-path="url(#SVGID_2_)" fill="none" stroke="#595757" stroke-width="0.6852" stroke-linecap="round" stroke-linejoin="round" d="
		M6.732,71.733c-0.236-0.589-2.298,1.437-2.528,1.723c-0.229,0.287-0.919,2.413-0.919,3.044c0,0.632,0.575,2.298,1.034,2.873
		s0.46,0.632,0.862-0.345c0.401-0.977,0.861-2.757,1.263-3.102s1.034-2.126,0.805-2.7C7.02,72.652,6.848,72.021,6.732,71.733z"/>
	
		<path clip-path="url(#SVGID_2_)" fill="none" stroke="#595757" stroke-width="0.6852" stroke-linecap="round" stroke-linejoin="round" d="
		M26.837,57.817c-0.421,0.053-0.431-1.206-0.603-1.077c-0.172,0.129-0.215,1.034-0.474,0.948c-0.258-0.086-0.517-0.862-0.603-1.335
		c-0.086-0.474-0.172-1.077,0.172-1.336c0.345-0.258,0.862-1.292,0.603-1.68c-0.258-0.388-0.474-0.948-0.732-0.818
		c-0.258,0.129,0.043,1.335-0.172,1.335s-1.163-0.819-1.206-1.034c-0.043-0.215,0.043-0.948,0.431-1.12s0.991-0.474,1.292-0.991
		s0.905-0.56,1.25-0.215S27.57,50.881,28,50.708c0.431-0.172,0.517,0.215,0.56,0.775s0.905,1.12,0.604,1.551
		c-0.302,0.431-0.862,1.551-0.948,2.197c-0.086,0.646-0.086,1.508-0.388,1.724C27.527,57.171,27.182,57.774,26.837,57.817z"/>
	
		<path clip-path="url(#SVGID_2_)" fill="none" stroke="#595757" stroke-width="0.6852" stroke-linecap="round" stroke-linejoin="round" d="
		M31.017,53.767c-0.695-0.347-0.431-1.508-0.776-1.637c-0.344-0.129-0.689-0.129-0.517-0.344s0.905-1.12,1.292-1.465
		s0.603,0.215,1.292,0.129c0.689-0.086,0.818-1.207,1.335-1.293c0.517-0.086,1.163,0.474,1.465,0.689
		c0.301,0.215-0.646,1.81-0.948,1.81c-0.302,0-1.336-0.431-1.68-0.043C32.137,52.001,31.62,54.069,31.017,53.767z"/>
	
		<path clip-path="url(#SVGID_2_)" fill="none" stroke="#595757" stroke-width="0.6852" stroke-linecap="round" stroke-linejoin="round" d="
		M37.263,51.484c-0.652-0.072-0.775-0.215-1.077-0.689c-0.302-0.474-0.431-1.12-0.216-1.292c0.216-0.172,0.905-0.646,0.431-0.991
		c-0.474-0.345-1.034-0.431-1.379-0.345c-0.345,0.086-1.292,0.259-1.508,0.345s-0.818,0.603-1.206,0.431
		c-0.388-0.173-0.689,0.646-0.905,0.646s-0.948,0.258-1.164,0.043c-0.215-0.215-0.905-0.129-1.034,0.043
		c-0.129,0.172-0.431,0.172-1.12,0.172c-0.689,0-1.853,0.388-1.465-0.258s0.991-0.56,1.422-0.819
		c0.431-0.258,0.689-0.948,1.249-1.292c0.56-0.345,1.25-1.292,1.81-1.422s2.283,0,2.757-0.215c0.474-0.216,0.431-0.604,1.422-0.517
		c0.991,0.086,0.948,0.086,1.292,0.215s0.345,0.431,0.603,0.431s0.818-0.043,0.948-0.431s-0.345-0.775-0.043-1.207
		c0.302-0.431,1.077-0.948,1.163-1.465c0.086-0.517-0.043-1.163,0.129-1.465c0.172-0.301,0.861-0.517,1.077-0.56
		c0.215-0.043-0.086,0.474-0.302,0.905c-0.215,0.431-0.172,1.077,0.259,0.991c0.431-0.086,0.775-0.258,1.034-0.56
		s1.077-0.991,1.767-1.25c0.689-0.259,1.465-1.12,2.024-1.81c0.56-0.689,1.034-1.766,1.207-2.413
		c0.172-0.646,0.862-1.853,0.56-2.197s-0.862-0.301-0.474-0.689c0.388-0.388,0.474-0.302,0.345-0.862
		c-0.129-0.56-0.474-0.862-0.215-1.12c0.259-0.258,0.431-0.431,0.517-0.818c0.086-0.388-0.086-0.732,0.258-0.776
		c0.345-0.043,0.302,0.172,0.388,0.56c0.086,0.388,0.172,0.603,0.517,0.603s0.732,0.173,0.732-0.129s0.043-0.646-0.086-0.646
		s-0.603,0-0.603-0.172c0-0.172,0-0.604,0.431-0.646s0.732,0.258,0.775,0.56c0.043,0.301,0.345,1.81,0.603,2.025
		c0.259,0.215,0.603,2.714,0.603,3.059c0,0.345-0.517,1.077-0.603,1.422c-0.086,0.345,0,1.25-0.258,1.336
		c-0.258,0.086-0.302-0.129-0.604-0.086c-0.301,0.043-0.431,0.517-0.387,0.905c0.043,0.388,0.215,2.111,0.043,2.456
		s-0.388,1.939-0.517,2.197c-0.129,0.258-0.431,1.077-0.043,1.594c0.388,0.517-0.259,0.431-0.604,1.034
		c-0.344,0.603-0.129,1.422-0.517,1.422s-1.034-0.129-1.034-0.56s0.388-0.991,0.56-1.163s0.129-0.604-0.043-0.56
		c-0.172,0.043-0.56,0.689-0.862,0.732c-0.301,0.043-0.603-0.129-0.646,0.258c-0.043,0.388-0.302,1.637-0.603,1.637
		c-0.302,0-0.302-0.775-0.517-0.732s-0.431,0.56-0.646,0.689c-0.215,0.129-1.163,0.646-1.508,0.646s-0.948,0-1.163-0.043
		c-0.215-0.043-0.517-0.56-0.646-0.431c-0.129,0.129-0.258,1.034-0.431,1.163c-0.172,0.129-0.431,0.086-0.818,0.431
		C38.556,50.148,38.039,51.57,37.263,51.484z"/>
	
		<path clip-path="url(#SVGID_2_)" fill="none" stroke="#595757" stroke-width="0.6852" stroke-linecap="round" stroke-linejoin="round" d="
		M47.905,29.038c-0.364,0.182-0.775,0.905-1.034,0.646c-0.258-0.258-0.603-0.56-0.431-0.861c0.172-0.302,0.56-0.259,0.302-0.646
		c-0.259-0.388-0.604-0.991-0.474-1.465s0.775-0.689,1.077-0.991s0.043-1.034,0.56-0.948c0.517,0.086,1.034,0.56,1.25,0.388
		s0.904-0.948,0.732-1.379c-0.172-0.431,0.258-1.378,0.431-1.594c0.172-0.216,0.302-2.542,0.086-2.887
		c-0.216-0.345-0.216-0.775,0.086-1.034c0.301-0.259,0.517-0.517,0.689-0.172c0.172,0.344,0.991,1.551,1.594,2.068
		c0.604,0.517,1.551,1.378,2.025,1.335c0.474-0.043,0.991-0.517,1.077-0.172s-0.086,0.775,0.345,0.775s1.422-0.646,1.422-0.431
		s-0.043,0.905,0.043,1.163c0.086,0.259,0.086,1.12,0.431,1.12s0.948-0.043,0.732,0.172s-2.025,0.474-2.843,0.862
		c-0.819,0.388-1.551,1.12-1.853,1.896c-0.302,0.775-0.388,1.637-0.775,1.336c-0.388-0.302-1.724-1.379-2.154-1.336
		c-0.431,0.043-1.12-0.603-1.335-0.474c-0.215,0.129-1.207,1.164-1.293,0.905c-0.086-0.258-0.603-1.034-0.861-0.948
		c-0.258,0.086-0.689,0.948-0.302,1.121c0.388,0.172,0.56,0.215,1.034,0.258c0.474,0.043,0.732,0.775,0.388,0.775
		S48.077,28.952,47.905,29.038z"/>
	
		<path clip-path="url(#SVGID_2_)" fill="none" stroke="#595757" stroke-width="0.6852" stroke-linecap="round" stroke-linejoin="round" d="
		M52.694-6.694c-0.081,1.09,0.202,0.968,0.646,1.736s0.525,3.755,1.01,4.603c0.484,0.848,1.211,1.252,1.171,2.262
		c-0.041,1.009,0.081,2.948,0.363,3.674s0.929,1.817,0.565,1.615c-0.364-0.202-2.342-1.696-2.746-1.494
		c-0.404,0.202-0.524,1.656-0.807,2.141s-0.768,1.696-0.485,2.423c0.283,0.727,1.05,2.019,1.05,2.382
		c0,0.363,1.413,3.189,0.485,2.786c-0.813-0.353-1.736-1.535-2.019-1.292c-0.283,0.242-0.484,1.817-1.171,1.534
		s0.282-5.37,0.202-5.895c-0.081-0.525-0.646-3.755-0.444-4.522c0.202-0.767,0.323-4.078,0.485-4.684
		c0.161-0.606,0.08-1.979-0.162-2.302c-0.242-0.323-0.242-2.625-0.444-3.554c-0.202-0.929-0.848-1.575-0.727-2.382"/>
	
		<path clip-path="url(#SVGID_2_)" fill="none" stroke="#595757" stroke-width="0.6852" stroke-linecap="round" stroke-linejoin="round" d="
		M3.86,88.851c-0.115-0.804,0.689-1.378,1.551-1.551c0.861-0.172,0.631,0.747,1.551,0.747c0.919,0,0.861,0.288,0.575,0.689
		c-0.287,0.402-0.69,0.862,0.115,1.608"/>
	
		<path clip-path="url(#SVGID_2_)" fill="none" stroke="#595757" stroke-width="0.6852" stroke-linecap="round" stroke-linejoin="round" d="
		M61.942,88.727c-0.202,0.484-0.73-0.2-0.564-0.398C61.544,88.13,62.108,88.329,61.942,88.727z"/>
	
		<path clip-path="url(#SVGID_2_)" fill="none" stroke="#595757" stroke-width="0.6852" stroke-linecap="round" stroke-linejoin="round" d="
		M60.491,21.07c0.152,0.382-1.753,2.045-1.962,1.753C58.32,22.531,60.407,20.861,60.491,21.07z"/>
	
		<path clip-path="url(#SVGID_2_)" fill="none" stroke="#595757" stroke-width="0.6852" stroke-linecap="round" stroke-linejoin="round" d="
		M61.951,20.777c-0.761-0.571,1.503-2.17,1.795-2.17c0.505,0,1.503-0.96,1.711-0.919C65.666,17.73,62.118,20.903,61.951,20.777z"/>
	
		<path clip-path="url(#SVGID_2_)" fill="none" stroke="#595757" stroke-width="0.6852" stroke-linecap="round" stroke-linejoin="round" d="
		M67.211,17.021c-0.468-0.134,1.169-2.17,1.461-1.67C68.964,15.852,67.503,17.104,67.211,17.021z"/>
	
		<path clip-path="url(#SVGID_2_)" fill="none" stroke="#595757" stroke-width="0.6852" stroke-linecap="round" stroke-linejoin="round" d="
		M72.429,12.346c-0.343-0.147-1.336,0.459-1.002,0.96C71.761,13.807,72.721,12.471,72.429,12.346z"/>
	
		<path clip-path="url(#SVGID_2_)" fill="none" stroke="#595757" stroke-width="0.6852" stroke-linecap="round" stroke-linejoin="round" d="
		M81.236,0.783c-0.576-0.096-0.751,0.584-1.377,0.751c-0.626,0.167-1.044,1.21-0.543,1.294S81.737,0.867,81.236,0.783z"/>
	
		<path clip-path="url(#SVGID_2_)" fill="none" stroke="#595757" stroke-width="0.6852" stroke-linecap="round" stroke-linejoin="round" d="
		M76.979,6.71c-0.264,0-0.417,0.542-0.208,0.542C76.979,7.253,77.229,6.71,76.979,6.71z"/>
	
		<path clip-path="url(#SVGID_2_)" fill="none" stroke="#595757" stroke-width="0.6852" stroke-linecap="round" stroke-linejoin="round" d="
		M20.455,68.674c-0.381-0.173-1.463,1.254-0.976,1.462C19.968,70.346,21.222,69.022,20.455,68.674z"/>
	
		<path clip-path="url(#SVGID_2_)" fill="none" stroke="#595757" stroke-width="0.6852" stroke-linecap="round" stroke-linejoin="round" d="
		M33.302,82.902c-0.338-0.038-0.183-0.261,0-0.314C33.485,82.536,33.538,82.928,33.302,82.902z"/>
	
		<path clip-path="url(#SVGID_2_)" fill="none" stroke="#595757" stroke-width="0.6852" stroke-linecap="round" stroke-linejoin="round" d="
		M75.348,75.148c-0.337-0.038-0.183-0.261,0-0.313C75.531,74.782,75.584,75.175,75.348,75.148z"/>
	
		<path clip-path="url(#SVGID_2_)" fill="none" stroke="#595757" stroke-width="0.6852" stroke-linecap="round" stroke-linejoin="round" d="
		M49.413,71.271c-0.338-0.038-0.183-0.261,0-0.314C49.596,70.905,49.648,71.297,49.413,71.271z"/>
	
		<path clip-path="url(#SVGID_2_)" fill="none" stroke="#595757" stroke-width="0.6852" stroke-linecap="round" stroke-linejoin="round" d="
		M10.052,74.542c-0.338-0.038-0.183-0.261,0-0.314C10.235,74.176,10.288,74.568,10.052,74.542z"/>
	<g clip-path="url(#SVGID_2_)">
		<path d="M47.413,64.303c-0.024,0.08-0.039,0.14-0.145,0.55c-0.195,0.761-0.426,1.276-0.846,1.872
			c-0.101-0.09-0.181-0.145-0.306-0.205c0.386-0.5,0.591-0.911,0.776-1.557c0.085-0.3,0.135-0.551,0.149-0.751L47.413,64.303z
			 M48.66,63.091c-0.021,0.135-0.03,0.286-0.03,0.511v3.443c0,0.32-0.115,0.41-0.53,0.41c-0.206,0-0.405-0.01-0.691-0.035
			c-0.015-0.155-0.034-0.225-0.09-0.371c0.32,0.06,0.541,0.085,0.741,0.085c0.18,0,0.225-0.025,0.225-0.125v-3.413
			c0-0.215-0.01-0.36-0.029-0.506H48.66z M49.781,64.183c0.04,0.291,0.12,0.565,0.31,1.036c0.195,0.49,0.406,0.851,0.746,1.271
			c-0.13,0.09-0.2,0.15-0.285,0.25c-0.426-0.571-0.615-0.936-0.851-1.592c-0.005-0.005-0.08-0.26-0.24-0.766
			c-0.021-0.06-0.021-0.06-0.035-0.1L49.781,64.183z"/>
		<path d="M51.927,63.953c-0.189,0.285-0.315,0.445-0.505,0.63c-0.085-0.1-0.101-0.11-0.25-0.205c0.274-0.25,0.38-0.375,0.54-0.625
			c0.16-0.25,0.23-0.416,0.311-0.716l0.33,0.09c-0.155,0.346-0.17,0.375-0.261,0.546h0.876c0.2,0,0.296-0.005,0.421-0.025v0.32
			c-0.13-0.01-0.235-0.015-0.4-0.015h-0.355c0.11,0.235,0.16,0.36,0.266,0.65l-0.311,0.1c-0.085-0.305-0.146-0.48-0.271-0.75H51.927
			z M53.745,67.01c0.275-0.46,0.43-0.836,0.615-1.496l0.32,0.125c-0.22,0.65-0.351,0.941-0.596,1.371h1.066
			c0.23,0,0.4-0.01,0.535-0.03v0.36c-0.165-0.025-0.335-0.035-0.535-0.035h-3.373c-0.205,0-0.381,0.01-0.551,0.035v-0.36
			c0.12,0.02,0.311,0.03,0.551,0.03H53.745z M53.254,64.954c0-0.195-0.011-0.306-0.03-0.406h0.375
			c-0.024,0.105-0.03,0.206-0.03,0.406v0.16h1.367c0.215,0,0.335-0.005,0.455-0.025v0.335c-0.13-0.02-0.256-0.025-0.455-0.025
			h-2.929c-0.2,0-0.33,0.005-0.46,0.025v-0.335c0.12,0.02,0.245,0.025,0.46,0.025h1.247V64.954z M52.664,66.88
			c-0.141-0.571-0.221-0.801-0.436-1.236l0.295-0.105c0.23,0.5,0.301,0.686,0.45,1.226L52.664,66.88z M53.86,63.958
			c-0.11,0.19-0.171,0.28-0.336,0.495c-0.1-0.085-0.16-0.12-0.27-0.165c0.314-0.345,0.535-0.766,0.641-1.231l0.33,0.085
			c-0.101,0.26-0.141,0.355-0.221,0.536h1.246c0.205,0,0.306-0.005,0.431-0.025v0.331c-0.125-0.02-0.23-0.025-0.431-0.025h-0.655
			c0.146,0.27,0.215,0.42,0.3,0.661l-0.305,0.105c-0.101-0.33-0.15-0.456-0.301-0.766H53.86z"/>
		<path d="M58.484,64.083c0.08-0.17,0.141-0.335,0.195-0.541h-1.667v0.36c0,1.982-0.14,2.818-0.585,3.583
			c-0.08-0.11-0.146-0.185-0.25-0.265c0.4-0.681,0.515-1.396,0.515-3.188c0-0.486-0.005-0.626-0.024-0.801
			c0.19,0.02,0.34,0.025,0.605,0.025h2.788c0.285,0,0.43-0.01,0.555-0.03v0.34c-0.14-0.02-0.274-0.025-0.545-0.025h-1.062
			c-0.064,0.225-0.114,0.35-0.2,0.541h0.906c0.255,0,0.41-0.005,0.541-0.02c-0.021,0.13-0.025,0.275-0.025,0.485v0.891
			c0,0.22,0.005,0.36,0.025,0.49c-0.155-0.015-0.32-0.02-0.536-0.02h-0.716v1.226c0,0.311-0.1,0.366-0.66,0.366
			c-0.136,0-0.25-0.005-0.405-0.02c-0.021-0.15-0.03-0.18-0.08-0.325c0.229,0.04,0.41,0.055,0.62,0.055
			c0.176,0,0.21-0.015,0.21-0.11v-1.191h-0.69c-0.195,0-0.36,0.005-0.525,0.02c0.015-0.15,0.02-0.305,0.02-0.516v-0.841
			c0-0.225-0.005-0.35-0.02-0.51c0.146,0.015,0.306,0.02,0.525,0.02H58.484z M58.109,66.24c-0.275,0.49-0.546,0.821-0.906,1.131
			c-0.075-0.1-0.135-0.15-0.245-0.22c0.396-0.32,0.631-0.595,0.861-1.046L58.109,66.24z M57.793,64.838h2.132v-0.485h-2.132V64.838z
			 M57.793,65.644h2.132v-0.541h-2.132V65.644z M59.725,66.104c0.275,0.411,0.586,0.726,0.977,1.001
			c-0.096,0.07-0.166,0.135-0.256,0.25c-0.405-0.331-0.66-0.616-0.985-1.106L59.725,66.104z"/>
		<path d="M61.192,63.842c0.11,0.02,0.205,0.025,0.4,0.025h0.866c0.205,0,0.295-0.005,0.4-0.025v0.32
			c-0.12-0.01-0.206-0.015-0.36-0.015h-0.906c-0.18,0-0.266,0.005-0.4,0.02V63.842z M61.372,63.152
			c0.115,0.02,0.19,0.025,0.361,0.025h0.67c0.17,0,0.245-0.005,0.36-0.025v0.315c-0.1-0.015-0.215-0.02-0.36-0.02h-0.67
			c-0.15,0-0.251,0.005-0.361,0.02V63.152z M61.387,64.543c0.095,0.015,0.175,0.02,0.34,0.02h0.686c0.166,0,0.24-0.005,0.336-0.02
			v0.305c-0.11-0.015-0.186-0.02-0.336-0.02h-0.686c-0.165,0-0.25,0.005-0.34,0.02V64.543z M61.387,65.234
			c0.1,0.015,0.17,0.02,0.34,0.02h0.686c0.171,0,0.24-0.005,0.336-0.02v0.305c-0.101-0.015-0.186-0.02-0.336-0.02h-0.686
			c-0.154,0-0.24,0.005-0.34,0.02V65.234z M61.402,67.486c0.016-0.14,0.025-0.311,0.025-0.485v-0.666
			c0-0.165-0.005-0.285-0.021-0.41c0.131,0.015,0.211,0.02,0.406,0.02h0.58c0.186,0,0.28-0.005,0.365-0.015
			c-0.01,0.085-0.015,0.205-0.015,0.396v0.686c0,0.175,0.005,0.28,0.024,0.411h-0.31v-0.2h-0.746v0.265H61.402z M61.712,66.96h0.746
			v-0.756h-0.746V66.96z M63.304,64.813c-0.176,0-0.275,0.005-0.416,0.021v-0.326c0.115,0.02,0.226,0.025,0.431,0.025h0.586v-0.65
			h-0.4c-0.15,0-0.266,0.005-0.381,0.02v-0.31c0.105,0.015,0.211,0.02,0.376,0.02h0.405v-0.23c0-0.19-0.01-0.295-0.03-0.405h0.355
			c-0.025,0.115-0.03,0.2-0.03,0.405v0.23H64.5c0.154,0,0.265-0.005,0.35-0.02v0.31c-0.104-0.015-0.205-0.02-0.335-0.02H64.2v0.65
			h0.21c0.206-0.215,0.325-0.355,0.521-0.62l0.056-0.07c0.205-0.3,0.325-0.516,0.39-0.701l0.315,0.18
			c-0.029,0.03-0.095,0.125-0.225,0.33c-0.16,0.246-0.44,0.601-0.696,0.881h0.546c0.21,0,0.306-0.005,0.426-0.025v0.331
			c-0.131-0.02-0.226-0.025-0.431-0.025h-0.816c-0.229,0.215-0.435,0.391-0.641,0.536h1.087c0.17,0,0.274-0.005,0.465-0.02
			c-0.015,0.14-0.02,0.235-0.02,0.405v1.327c0,0.195,0.01,0.345,0.03,0.5h-0.331v-0.266h-1.421v0.266h-0.32
			c0.02-0.15,0.029-0.3,0.029-0.496v-1.391c-0.22,0.155-0.35,0.24-0.51,0.33c-0.096-0.145-0.105-0.16-0.186-0.24
			c0.511-0.235,0.996-0.551,1.441-0.951H63.304z M63.669,66.169h1.421v-0.561h-1.421V66.169z M63.669,67.025h1.421V66.43h-1.421
			V67.025z"/>
		<path d="M67.713,66.155h-0.43c-0.221,0-0.275,0-0.416,0.01c0.015-0.13,0.02-0.255,0.02-0.45v-1.862c0-0.15-0.01-0.27-0.02-0.39
			c0.115,0.015,0.21,0.02,0.4,0.02h0.561c0.096-0.15,0.166-0.295,0.24-0.5l0.33,0.065c-0.09,0.18-0.154,0.3-0.24,0.436h1.227
			c0.195,0,0.295-0.005,0.41-0.02c-0.014,0.1-0.014,0.155-0.014,0.315v0.831c0,0.13,0.004,0.235,0.014,0.34
			c-0.15-0.01-0.254-0.015-0.391-0.015h-2.207v0.335h2.928c0.201,0,0.342-0.01,0.471-0.03v0.32c-0.154-0.015-0.289-0.025-0.48-0.025
			h-2.918v0.36h2.869c0.174,0,0.285-0.005,0.395-0.02c-0.006,0.045-0.016,0.125-0.035,0.28c-0.061,0.585-0.145,1.011-0.234,1.151
			c-0.096,0.14-0.23,0.19-0.525,0.19c-0.141,0-0.221-0.005-0.381-0.015c-0.016-0.14-0.025-0.175-0.076-0.315
			c0.201,0.03,0.342,0.045,0.492,0.045c0.164,0,0.225-0.035,0.264-0.165c0.057-0.18,0.111-0.511,0.15-0.891h-2.092v0.655h0.941
			v-0.245c0-0.115-0.006-0.185-0.02-0.28h0.334c-0.014,0.09-0.02,0.195-0.02,0.3v0.25c0,0.1,0,0.17,0.01,0.26
			c-0.055,0-0.055,0-0.186-0.005c-0.035-0.005-0.129-0.005-0.174-0.005h-2.078v0.23h-0.33c0.02-0.12,0.029-0.261,0.029-0.396
			l-0.005-0.315c0-0.125-0.005-0.195-0.024-0.3h0.345c-0.015,0.09-0.015,0.155-0.015,0.28v0.225h0.88V66.155z M69.465,64.078v-0.34
			h-2.268v0.34H69.465z M67.197,64.683h2.268v-0.36h-2.268V64.683z"/>
	</g>
	<g clip-path="url(#SVGID_2_)">
		<path d="M26.845,85.366c0.284,0.144,0.472,0.264,0.739,0.46l-0.144,0.236c-0.236-0.208-0.424-0.332-0.735-0.496L26.845,85.366z
			 M27.549,86.649c-0.172,0.464-0.304,0.744-0.504,1.08c-0.048,0.076-0.064,0.108-0.083,0.156l-0.236-0.204
			c0.064-0.068,0.136-0.172,0.228-0.328c0.152-0.248,0.252-0.472,0.388-0.855L27.549,86.649z M27.041,84.367
			c0.292,0.188,0.48,0.332,0.696,0.532l-0.16,0.212c-0.235-0.24-0.399-0.368-0.695-0.56L27.041,84.367z M28.84,84.814
			c0-0.172-0.008-0.32-0.028-0.456h0.308c-0.02,0.136-0.027,0.28-0.027,0.456v0.344h0.76c0.184,0,0.287-0.004,0.379-0.016
			c-0.012,0.088-0.016,0.2-0.016,0.372v0.899c0,0.224,0.004,0.312,0.021,0.416h-0.276v-0.232h-0.867v0.839
			c0,0.192,0.008,0.352,0.027,0.484h-0.308c0.021-0.144,0.028-0.3,0.028-0.484v-0.839h-0.788v0.236h-0.264
			c0.017-0.112,0.021-0.212,0.021-0.416v-0.92c0-0.152-0.004-0.248-0.017-0.355c0.084,0.012,0.188,0.016,0.356,0.016h0.691V84.814z
			 M28.056,85.395v0.967h0.784v-0.967H28.056z M29.959,86.362v-0.967h-0.867v0.967H29.959z"/>
		<path d="M33.547,84.719c-0.032,0.06-0.032,0.06-0.1,0.232c-0.272,0.688-0.548,1.167-0.912,1.575
			c-0.392,0.448-0.84,0.771-1.507,1.107c-0.064-0.124-0.096-0.167-0.204-0.28c0.903-0.384,1.511-0.911,1.971-1.723
			c0.212-0.376,0.384-0.796,0.42-1.023L33.547,84.719z"/>
		<path d="M34.731,87.073c-0.107,0.388-0.199,0.584-0.399,0.855l-0.216-0.144c0.212-0.268,0.292-0.428,0.396-0.804L34.731,87.073z
			 M35.472,84.703c0.08-0.128,0.144-0.264,0.188-0.4l0.268,0.052c-0.048,0.092-0.144,0.268-0.195,0.348h0.995
			c0.156,0,0.236-0.004,0.328-0.016c-0.008,0.072-0.012,0.124-0.012,0.256v0.692c0,0.104,0.004,0.188,0.012,0.276
			c-0.104-0.008-0.2-0.012-0.313-0.012h-1.786v0.256h2.294c0.168,0,0.276-0.008,0.388-0.024v0.26
			c-0.107-0.016-0.235-0.024-0.392-0.024h-2.29v0.304h2.322c0.156,0,0.231-0.004,0.304-0.016c-0.012,0.052-0.023,0.128-0.032,0.196
			c-0.115,0.931-0.191,1.059-0.64,1.059c-0.107,0-0.252-0.008-0.363-0.016c-0.008-0.096-0.021-0.152-0.056-0.252
			c0.203,0.028,0.296,0.036,0.411,0.036c0.2,0,0.256-0.044,0.304-0.236c0.04-0.152,0.076-0.388,0.093-0.564h-2.275
			c-0.156,0-0.239,0.004-0.332,0.008c0.013-0.104,0.017-0.208,0.017-0.364v-1.523c0-0.112-0.004-0.216-0.017-0.312
			c0.101,0.012,0.176,0.016,0.32,0.016H35.472z M36.795,85.198v-0.288h-1.839v0.288H36.795z M34.956,85.694h1.839v-0.296h-1.839
			V85.694z M35.291,87.021c0.072,0.264,0.108,0.424,0.156,0.764l-0.256,0.044c-0.023-0.272-0.063-0.528-0.128-0.776L35.291,87.021z
			 M35.936,86.998c0.104,0.196,0.163,0.348,0.256,0.64l-0.225,0.068c-0.076-0.292-0.128-0.428-0.235-0.656L35.936,86.998z
			 M36.587,86.941c0.116,0.16,0.18,0.268,0.271,0.464l-0.204,0.096c-0.063-0.168-0.119-0.28-0.252-0.479L36.587,86.941z"/>
		<path d="M39.315,86.841h-0.344c-0.176,0-0.22,0-0.332,0.008c0.012-0.104,0.017-0.204,0.017-0.36v-1.487
			c0-0.12-0.009-0.216-0.017-0.312c0.092,0.012,0.168,0.016,0.32,0.016h0.447c0.076-0.12,0.132-0.236,0.192-0.4l0.264,0.052
			c-0.072,0.144-0.124,0.24-0.192,0.348h0.979c0.156,0,0.236-0.004,0.328-0.016c-0.012,0.08-0.012,0.124-0.012,0.252v0.664
			c0,0.104,0.004,0.188,0.012,0.272c-0.12-0.008-0.204-0.012-0.312-0.012h-1.764v0.268h2.339c0.16,0,0.272-0.008,0.376-0.024v0.256
			c-0.124-0.012-0.231-0.02-0.384-0.02h-2.331v0.288h2.291c0.14,0,0.228-0.004,0.315-0.016c-0.004,0.036-0.012,0.1-0.027,0.224
			c-0.048,0.468-0.116,0.808-0.188,0.919c-0.075,0.112-0.184,0.152-0.419,0.152c-0.112,0-0.177-0.004-0.305-0.012
			c-0.012-0.112-0.02-0.14-0.06-0.252c0.16,0.024,0.271,0.036,0.392,0.036c0.132,0,0.18-0.028,0.212-0.132
			c0.044-0.144,0.088-0.408,0.12-0.712h-1.671v0.524h0.751v-0.196c0-0.092-0.004-0.148-0.016-0.224h0.268
			c-0.012,0.072-0.016,0.156-0.016,0.24v0.2c0,0.08,0,0.136,0.008,0.208c-0.044,0-0.044,0-0.147-0.004
			c-0.028-0.004-0.104-0.004-0.141-0.004h-1.659v0.184h-0.264c0.017-0.096,0.024-0.208,0.024-0.316l-0.004-0.252
			c0-0.1-0.004-0.156-0.021-0.24h0.276c-0.013,0.072-0.013,0.124-0.013,0.224v0.18h0.704V86.841z M40.715,85.183v-0.272h-1.812
			v0.272H40.715z M38.903,85.666h1.812v-0.288h-1.812V85.666z"/>
	</g>
	<g clip-path="url(#SVGID_2_)">
		<path d="M1.608,81.594c0.375-0.496,0.663-0.987,0.755-1.295l0.292,0.108c-0.012,0.024-0.012,0.024-0.044,0.084
			c-0.228,0.416-0.464,0.784-0.699,1.096c1.067-0.032,1.155-0.036,1.831-0.1c-0.272-0.296-0.36-0.38-0.656-0.616l0.22-0.14
			c0.464,0.408,0.716,0.667,1.168,1.203L4.25,82.109c-0.155-0.212-0.207-0.276-0.327-0.419c-0.548,0.06-0.735,0.076-1.415,0.116
			c-0.393,0.024-0.596,0.032-0.912,0.04C1.5,81.85,1.388,81.854,1.264,81.858c-0.056,0-0.064,0.004-0.188,0.016l-0.056-0.296
			c0.092,0.012,0.196,0.02,0.308,0.02l0.096-0.004H1.608z M1.448,83.889c0.016-0.132,0.024-0.248,0.024-0.372v-0.956
			c0-0.116-0.008-0.216-0.02-0.319c0.088,0.012,0.172,0.016,0.315,0.016h1.932c0.144,0,0.224-0.004,0.315-0.016
			c-0.016,0.104-0.021,0.188-0.021,0.319v0.956c0,0.136,0.009,0.252,0.024,0.372h-0.28v-0.244H1.724v0.244H1.448z M1.724,83.409
			h2.015v-0.916H1.724V83.409z"/>
		<path d="M5.032,81.31c0.26,0.16,0.424,0.284,0.632,0.479l-0.148,0.208c-0.235-0.24-0.359-0.336-0.627-0.5L5.032,81.31z
			 M5.76,82.613c-0.18,0.468-0.284,0.68-0.464,0.979c-0.1,0.168-0.1,0.168-0.116,0.188c-0.027,0.044-0.027,0.044-0.048,0.076
			l-0.22-0.212c0.076-0.072,0.092-0.092,0.172-0.208c0.148-0.212,0.324-0.572,0.484-0.992L5.76,82.613z M5.229,80.338
			c0.247,0.172,0.411,0.312,0.607,0.52L5.672,81.05c-0.22-0.248-0.348-0.368-0.604-0.54L5.229,80.338z M6.396,81.066
			c-0.16,0.292-0.28,0.444-0.52,0.648C5.82,81.638,5.78,81.602,5.7,81.558c0.247-0.18,0.367-0.32,0.495-0.591L6.396,81.066z
			 M6.176,83.137c-0.024,0.072-0.036,0.108-0.08,0.22l-0.26-0.032c0.16-0.352,0.26-0.695,0.279-0.943
			c0.08,0.008,0.208,0.012,0.38,0.012H7.95v-0.304H6.428c-0.156,0-0.269,0.004-0.388,0.02v-0.248c0.096,0.016,0.188,0.02,0.388,0.02
			h1.399c0.296-0.004,0.296-0.004,0.367-0.012c-0.008,0.08-0.012,0.144-0.012,0.248v0.236c0,0.14,0.004,0.2,0.008,0.26
			c-0.12-0.008-0.212-0.012-0.368-0.012H6.327c-0.04,0.168-0.056,0.216-0.084,0.32h1.796c0.155,0,0.26-0.004,0.331-0.016
			c-0.012,0.064-0.016,0.092-0.023,0.188c-0.021,0.192-0.076,0.448-0.116,0.552c-0.072,0.188-0.18,0.236-0.5,0.236
			c-0.136,0-0.315-0.008-0.476-0.028c-0.016-0.1-0.028-0.156-0.063-0.248c0.216,0.036,0.388,0.052,0.56,0.052
			c0.151,0,0.208-0.02,0.243-0.088c0.045-0.092,0.072-0.204,0.097-0.432H6.176z M7.003,80.586c0-0.152-0.004-0.212-0.023-0.308
			h0.287c-0.02,0.092-0.023,0.152-0.023,0.308v0.056h0.823c0.2,0,0.32-0.008,0.428-0.024v0.248c-0.115-0.016-0.235-0.02-0.424-0.02
			H7.599v0.628c0,0.184-0.08,0.24-0.327,0.24c-0.072,0-0.152-0.004-0.256-0.012c-0.013-0.096-0.024-0.152-0.049-0.224
			c0.112,0.024,0.185,0.032,0.296,0.032c0.08,0,0.104-0.02,0.104-0.092v-0.572H6.951c-0.016,0.264-0.06,0.424-0.16,0.583
			c-0.1,0.156-0.231,0.256-0.499,0.372c-0.044-0.06-0.044-0.06-0.177-0.168c0.44-0.152,0.588-0.344,0.608-0.788h-0.38
			c-0.196,0-0.308,0.004-0.42,0.02v-0.248c0.107,0.016,0.228,0.024,0.428,0.024h0.651V80.586z M7.955,80.966
			c0.224,0.2,0.335,0.324,0.523,0.58L8.282,81.71c-0.155-0.272-0.268-0.404-0.508-0.612L7.955,80.966z"/>
	</g>
	<g clip-path="url(#SVGID_2_)">
		<path d="M71.332,77.016c0-0.196-0.008-0.272-0.027-0.388h0.309c-0.021,0.12-0.029,0.2-0.029,0.388h1.271
			c0.195,0,0.313-0.008,0.412-0.028v0.284c-0.127-0.016-0.248-0.024-0.412-0.024h-1.271v0.412h1.08c0.164,0,0.26-0.004,0.359-0.016
			c-0.012,0.104-0.016,0.191-0.016,0.335v1.915c0,0.252-0.092,0.32-0.439,0.32c-0.129,0-0.26-0.008-0.416-0.02
			c-0.008-0.096-0.023-0.164-0.068-0.26c0.176,0.032,0.324,0.044,0.477,0.044c0.15,0,0.191-0.02,0.191-0.104v-1.991h-2.498v1.975
			c0,0.236,0.004,0.312,0.02,0.412h-0.301c0.017-0.112,0.025-0.22,0.025-0.424v-1.859c0-0.14-0.005-0.236-0.017-0.344
			c0.108,0.012,0.2,0.016,0.364,0.016h0.986v-0.412h-1.195c-0.168,0-0.291,0.008-0.407,0.024v-0.284
			c0.132,0.02,0.243,0.028,0.407,0.028H71.332z M71.629,78.495c0.139-0.176,0.232-0.344,0.314-0.547l0.24,0.072
			c-0.107,0.2-0.188,0.328-0.299,0.476h0.303c0.168,0,0.252-0.004,0.352-0.02v0.256c-0.107-0.016-0.199-0.02-0.352-0.02h-0.623
			v0.428h0.592c0.164,0,0.252-0.004,0.352-0.02v0.251c-0.1-0.016-0.199-0.02-0.352-0.02h-0.592v0.348
			c0,0.216,0.004,0.324,0.02,0.452h-0.283c0.016-0.136,0.02-0.24,0.02-0.448v-0.352h-0.479c-0.152,0-0.26,0.004-0.365,0.02v-0.251
			c0.105,0.016,0.193,0.02,0.369,0.02h0.475v-0.428h-0.539c-0.156,0-0.248,0.004-0.348,0.02v-0.256c0.1,0.016,0.188,0.02,0.359,0.02
			H71.629z M70.969,77.939c0.1,0.148,0.191,0.308,0.26,0.444l-0.203,0.088c-0.064-0.144-0.156-0.296-0.264-0.439L70.969,77.939z"/>
		<path d="M74.316,79.387c-0.107,0.388-0.199,0.584-0.398,0.855l-0.217-0.144c0.213-0.268,0.293-0.428,0.396-0.804L74.316,79.387z
			 M75.057,77.016c0.08-0.128,0.145-0.264,0.188-0.4l0.268,0.052c-0.047,0.092-0.143,0.268-0.195,0.348h0.996
			c0.156,0,0.236-0.004,0.328-0.016c-0.008,0.072-0.012,0.124-0.012,0.256v0.692c0,0.104,0.004,0.188,0.012,0.276
			c-0.105-0.008-0.201-0.012-0.313-0.012h-1.787v0.256h2.295c0.168,0,0.275-0.008,0.387-0.024v0.26
			c-0.107-0.016-0.234-0.024-0.391-0.024h-2.291v0.304h2.322c0.156,0,0.232-0.004,0.305-0.016c-0.012,0.052-0.023,0.128-0.033,0.196
			c-0.115,0.931-0.191,1.059-0.639,1.059c-0.107,0-0.252-0.008-0.363-0.016c-0.008-0.096-0.021-0.152-0.057-0.252
			c0.203,0.028,0.297,0.036,0.412,0.036c0.199,0,0.256-0.044,0.303-0.236c0.041-0.152,0.076-0.388,0.094-0.563h-2.275
			c-0.156,0-0.24,0.004-0.332,0.008c0.012-0.104,0.016-0.208,0.016-0.364v-1.523c0-0.112-0.004-0.216-0.016-0.312
			c0.1,0.012,0.176,0.016,0.32,0.016H75.057z M76.381,77.512v-0.288h-1.84v0.288H76.381z M74.541,78.008h1.84v-0.296h-1.84V78.008z
			 M74.877,79.335c0.072,0.264,0.107,0.424,0.156,0.764l-0.256,0.044c-0.023-0.272-0.064-0.528-0.129-0.776L74.877,79.335z
			 M75.521,79.311c0.104,0.196,0.162,0.348,0.256,0.64l-0.225,0.068c-0.076-0.292-0.129-0.428-0.236-0.656L75.521,79.311z
			 M76.172,79.255c0.117,0.16,0.18,0.268,0.271,0.464l-0.203,0.096c-0.064-0.168-0.119-0.28-0.252-0.479L76.172,79.255z"/>
		<path d="M78.9,79.155h-0.344c-0.176,0-0.219,0-0.332,0.008c0.012-0.104,0.018-0.204,0.018-0.36v-1.487
			c0-0.12-0.01-0.216-0.018-0.312c0.092,0.012,0.168,0.016,0.32,0.016h0.447c0.076-0.12,0.133-0.236,0.193-0.399l0.264,0.052
			c-0.072,0.144-0.125,0.24-0.193,0.348h0.98c0.156,0,0.236-0.004,0.328-0.016c-0.012,0.08-0.012,0.124-0.012,0.251v0.664
			c0,0.104,0.004,0.188,0.012,0.272c-0.121-0.008-0.205-0.012-0.313-0.012h-1.764v0.268h2.34c0.16,0,0.271-0.008,0.375-0.024v0.256
			c-0.123-0.012-0.23-0.02-0.383-0.02h-2.332v0.288h2.291c0.141,0,0.229-0.004,0.316-0.016c-0.004,0.036-0.012,0.1-0.027,0.224
			c-0.049,0.468-0.117,0.808-0.189,0.92c-0.074,0.112-0.184,0.152-0.418,0.152c-0.113,0-0.178-0.004-0.305-0.012
			c-0.012-0.112-0.02-0.14-0.061-0.252c0.16,0.024,0.271,0.036,0.393,0.036c0.131,0,0.18-0.028,0.211-0.132
			c0.045-0.144,0.088-0.408,0.121-0.712h-1.672v0.524H79.9v-0.196c0-0.092-0.004-0.148-0.016-0.224h0.268
			c-0.012,0.072-0.016,0.156-0.016,0.24v0.2c0,0.08,0,0.136,0.008,0.208c-0.045,0-0.045,0-0.148-0.004
			c-0.027-0.004-0.104-0.004-0.141-0.004h-1.658v0.184h-0.264c0.016-0.096,0.023-0.208,0.023-0.316l-0.004-0.252
			c0-0.1-0.004-0.156-0.02-0.24h0.275c-0.012,0.072-0.012,0.124-0.012,0.224v0.18H78.9V79.155z M80.301,77.496v-0.272h-1.813v0.272
			H80.301z M78.488,77.979h1.813v-0.288h-1.813V77.979z"/>
	</g>
	<g clip-path="url(#SVGID_2_)">
		<path d="M23,63.477c0-0.245-0.011-0.34-0.035-0.485h0.385c-0.024,0.15-0.035,0.25-0.035,0.485h1.592
			c0.245,0,0.391-0.01,0.516-0.035v0.355c-0.16-0.02-0.311-0.03-0.516-0.03h-1.592v0.516h1.352c0.205,0,0.325-0.005,0.45-0.02
			c-0.015,0.13-0.02,0.24-0.02,0.42v2.397c0,0.315-0.115,0.4-0.551,0.4c-0.16,0-0.325-0.01-0.521-0.025
			c-0.01-0.12-0.03-0.205-0.085-0.325c0.22,0.04,0.405,0.055,0.596,0.055s0.24-0.025,0.24-0.13v-2.492h-3.128v2.473
			c0,0.295,0.005,0.39,0.024,0.515h-0.375c0.02-0.14,0.03-0.275,0.03-0.53v-2.328c0-0.175-0.005-0.295-0.021-0.43
			c0.135,0.015,0.251,0.02,0.456,0.02H23v-0.516h-1.497c-0.21,0-0.365,0.01-0.51,0.03v-0.355c0.165,0.025,0.305,0.035,0.51,0.035H23
			z M23.37,65.329c0.175-0.22,0.29-0.43,0.396-0.686l0.3,0.09c-0.135,0.25-0.235,0.411-0.375,0.596h0.38
			c0.211,0,0.315-0.005,0.44-0.025v0.32c-0.135-0.02-0.25-0.025-0.44-0.025h-0.78v0.535h0.74c0.205,0,0.315-0.005,0.44-0.025v0.315
			c-0.125-0.02-0.25-0.025-0.44-0.025h-0.74v0.436c0,0.27,0.005,0.405,0.024,0.565h-0.355c0.021-0.17,0.025-0.3,0.025-0.561V66.4
			h-0.601c-0.19,0-0.325,0.005-0.455,0.025v-0.315c0.13,0.02,0.24,0.025,0.46,0.025h0.596v-0.535h-0.676
			c-0.195,0-0.311,0.005-0.436,0.025v-0.32c0.125,0.02,0.235,0.025,0.451,0.025H23.37z M22.544,64.633
			c0.125,0.185,0.24,0.385,0.325,0.555l-0.255,0.11c-0.08-0.18-0.195-0.371-0.33-0.551L22.544,64.633z"/>
		<path d="M26.488,63.662c-0.2,0-0.365,0.01-0.516,0.03v-0.355c0.135,0.02,0.305,0.03,0.521,0.03h3.408
			c0.215,0,0.38-0.01,0.521-0.03v0.355c-0.15-0.02-0.315-0.03-0.516-0.03H28.75v0.75h0.776c0.265,0,0.41-0.005,0.595-0.025
			c-0.02,0.19-0.029,0.351-0.029,0.616v1.927c0,0.3,0.01,0.46,0.029,0.596h-0.345V67.17h-3.163v0.355h-0.346
			c0.025-0.165,0.03-0.305,0.03-0.605v-1.917c0-0.235-0.01-0.425-0.03-0.616c0.155,0.02,0.336,0.025,0.586,0.025h0.695
			c0.005-0.175,0.01-0.28,0.01-0.445v-0.305H26.488z M26.613,64.703v2.167h3.158v-2.167H28.75v0.911c0,0.105,0.035,0.12,0.245,0.12
			c0.275,0,0.325-0.01,0.351-0.085c0.021-0.045,0.025-0.15,0.025-0.37c0.104,0.055,0.18,0.08,0.275,0.095
			c-0.021,0.326-0.035,0.421-0.086,0.501c-0.069,0.11-0.205,0.145-0.561,0.145c-0.445,0-0.55-0.06-0.55-0.311v-1.006h-0.616
			c-0.045,0.505-0.104,0.736-0.275,1.026c-0.149,0.26-0.305,0.405-0.641,0.605c-0.074-0.115-0.125-0.165-0.229-0.245
			c0.315-0.165,0.48-0.305,0.61-0.521c0.135-0.23,0.195-0.46,0.23-0.866H26.613z M27.864,63.958c0,0.18-0.005,0.285-0.01,0.455
			h0.596v-0.75h-0.586V63.958z"/>
		<path d="M30.938,63.842c0.11,0.02,0.205,0.025,0.4,0.025h0.866c0.205,0,0.295-0.005,0.4-0.025v0.32
			c-0.12-0.01-0.206-0.015-0.36-0.015h-0.906c-0.18,0-0.266,0.005-0.4,0.02V63.842z M31.117,63.152
			c0.115,0.02,0.19,0.025,0.361,0.025h0.67c0.17,0,0.245-0.005,0.36-0.025v0.315c-0.1-0.015-0.215-0.02-0.36-0.02h-0.67
			c-0.15,0-0.251,0.005-0.361,0.02V63.152z M31.133,64.543c0.095,0.015,0.175,0.02,0.34,0.02h0.686c0.166,0,0.24-0.005,0.336-0.02
			v0.305c-0.11-0.015-0.186-0.02-0.336-0.02h-0.686c-0.165,0-0.25,0.005-0.34,0.02V64.543z M31.133,65.234
			c0.1,0.015,0.17,0.02,0.34,0.02h0.686c0.171,0,0.24-0.005,0.336-0.02v0.305c-0.101-0.015-0.186-0.02-0.336-0.02h-0.686
			c-0.154,0-0.24,0.005-0.34,0.02V65.234z M31.147,67.486c0.016-0.14,0.025-0.311,0.025-0.485v-0.666
			c0-0.165-0.005-0.285-0.021-0.41c0.131,0.015,0.211,0.02,0.406,0.02h0.58c0.186,0,0.28-0.005,0.365-0.015
			c-0.01,0.085-0.015,0.205-0.015,0.396v0.686c0,0.175,0.005,0.28,0.024,0.411h-0.31v-0.2h-0.746v0.265H31.147z M31.458,66.96h0.746
			v-0.756h-0.746V66.96z M33.05,64.813c-0.176,0-0.275,0.005-0.416,0.021v-0.326c0.115,0.02,0.226,0.025,0.431,0.025h0.586v-0.65
			h-0.4c-0.15,0-0.266,0.005-0.381,0.02v-0.31c0.105,0.015,0.211,0.02,0.376,0.02h0.405v-0.23c0-0.19-0.01-0.295-0.03-0.405h0.355
			c-0.025,0.115-0.03,0.2-0.03,0.405v0.23h0.301c0.154,0,0.265-0.005,0.35-0.02v0.31c-0.104-0.015-0.205-0.02-0.335-0.02h-0.315
			v0.65h0.21c0.206-0.215,0.325-0.355,0.521-0.62l0.056-0.07c0.205-0.3,0.325-0.516,0.39-0.701l0.315,0.18
			c-0.029,0.03-0.095,0.125-0.225,0.33c-0.16,0.246-0.44,0.601-0.696,0.881h0.546c0.21,0,0.306-0.005,0.426-0.025v0.331
			c-0.131-0.02-0.226-0.025-0.431-0.025H34.24c-0.229,0.215-0.435,0.391-0.641,0.536h1.087c0.17,0,0.274-0.005,0.465-0.02
			c-0.015,0.14-0.02,0.235-0.02,0.405v1.327c0,0.195,0.01,0.345,0.03,0.5h-0.331v-0.266H33.41v0.266h-0.32
			c0.02-0.15,0.029-0.3,0.029-0.496v-1.391c-0.22,0.155-0.35,0.24-0.51,0.33c-0.096-0.145-0.105-0.16-0.186-0.24
			c0.511-0.235,0.996-0.551,1.441-0.951H33.05z M33.415,66.169h1.421v-0.561h-1.421V66.169z M33.415,67.025h1.421V66.43h-1.421
			V67.025z"/>
		<path d="M37.459,66.155h-0.431c-0.22,0-0.275,0-0.415,0.01c0.015-0.13,0.02-0.255,0.02-0.45v-1.862c0-0.15-0.01-0.27-0.02-0.39
			c0.115,0.015,0.21,0.02,0.4,0.02h0.561c0.095-0.15,0.165-0.295,0.24-0.5l0.33,0.065c-0.09,0.18-0.155,0.3-0.24,0.436h1.227
			c0.195,0,0.295-0.005,0.41-0.02c-0.015,0.1-0.015,0.155-0.015,0.315v0.831c0,0.13,0.005,0.235,0.015,0.34
			c-0.15-0.01-0.255-0.015-0.391-0.015h-2.207v0.335h2.928c0.2,0,0.341-0.01,0.471-0.03v0.32c-0.155-0.015-0.29-0.025-0.48-0.025
			h-2.918v0.36h2.868c0.175,0,0.285-0.005,0.396-0.02c-0.006,0.045-0.016,0.125-0.035,0.28c-0.061,0.585-0.146,1.011-0.235,1.151
			c-0.095,0.14-0.23,0.19-0.525,0.19c-0.141,0-0.221-0.005-0.381-0.015c-0.015-0.14-0.024-0.175-0.075-0.315
			c0.2,0.03,0.341,0.045,0.491,0.045c0.165,0,0.225-0.035,0.265-0.165c0.056-0.18,0.11-0.511,0.15-0.891H37.77v0.655h0.94v-0.245
			c0-0.115-0.005-0.185-0.02-0.28h0.335c-0.015,0.09-0.02,0.195-0.02,0.3v0.25c0,0.1,0,0.17,0.01,0.26c-0.055,0-0.055,0-0.186-0.005
			c-0.035-0.005-0.13-0.005-0.175-0.005h-2.077v0.23h-0.33c0.02-0.12,0.029-0.261,0.029-0.396l-0.005-0.315
			c0-0.125-0.005-0.195-0.024-0.3h0.345c-0.015,0.09-0.015,0.155-0.015,0.28v0.225h0.881V66.155z M39.211,64.078v-0.34h-2.268v0.34
			H39.211z M36.943,64.683h2.268v-0.36h-2.268V64.683z"/>
	</g>
	<g clip-path="url(#SVGID_2_)">
		<path d="M64.697,21.091c-0.575,0.09-0.976,0.135-1.557,0.165c-0.029-0.12-0.07-0.22-0.145-0.325
			c1.001-0.01,2.071-0.166,2.918-0.431c0.24-0.075,0.33-0.115,0.46-0.19l0.24,0.311c-0.061,0.02-0.076,0.025-0.156,0.05
			c-0.51,0.166-0.911,0.271-1.411,0.36v1.191h1.532c0.26,0,0.41-0.01,0.561-0.035v0.386c-0.18-0.025-0.33-0.035-0.551-0.035h-1.542
			v1.767c0,0.295,0.005,0.425,0.035,0.591h-0.421c0.025-0.166,0.035-0.301,0.035-0.606v-1.751h-1.456
			c-0.205,0-0.346,0.01-0.536,0.035v-0.386c0.156,0.025,0.301,0.035,0.541,0.035h1.451V21.091z"/>
		<path d="M69.167,23.454h-0.432c-0.219,0-0.275,0-0.414,0.01c0.014-0.13,0.02-0.255,0.02-0.45v-1.862c0-0.15-0.01-0.27-0.02-0.39
			c0.115,0.015,0.209,0.02,0.4,0.02h0.561c0.094-0.15,0.164-0.295,0.24-0.5l0.33,0.065c-0.09,0.18-0.156,0.3-0.24,0.436h1.227
			c0.195,0,0.295-0.005,0.41-0.02c-0.016,0.1-0.016,0.155-0.016,0.315v0.831c0,0.13,0.006,0.235,0.016,0.34
			c-0.15-0.01-0.256-0.015-0.391-0.015h-2.207v0.335h2.928c0.199,0,0.34-0.01,0.471-0.03v0.32c-0.156-0.015-0.291-0.025-0.48-0.025
			h-2.918v0.36h2.867c0.176,0,0.285-0.005,0.396-0.02c-0.006,0.045-0.016,0.125-0.035,0.28c-0.061,0.585-0.146,1.011-0.236,1.151
			c-0.094,0.14-0.23,0.19-0.525,0.19c-0.141,0-0.221-0.005-0.381-0.015c-0.014-0.14-0.023-0.175-0.074-0.315
			c0.199,0.03,0.34,0.045,0.49,0.045c0.166,0,0.225-0.035,0.266-0.165c0.055-0.18,0.109-0.511,0.15-0.891h-2.092v0.655h0.939v-0.245
			c0-0.115-0.004-0.185-0.02-0.28h0.336c-0.016,0.09-0.02,0.195-0.02,0.3v0.25c0,0.1,0,0.17,0.01,0.26c-0.055,0-0.055,0-0.186-0.005
			c-0.035-0.005-0.131-0.005-0.176-0.005h-2.076v0.23h-0.33c0.02-0.12,0.029-0.261,0.029-0.396l-0.006-0.315
			c0-0.125-0.004-0.195-0.023-0.3H68.3c-0.014,0.09-0.014,0.155-0.014,0.28v0.225h0.881V23.454z M70.919,21.376v-0.34h-2.268v0.34
			H70.919z M68.651,21.982h2.268v-0.36h-2.268V21.982z"/>
		<path d="M73.587,22.352c0.295,0.21,0.494,0.371,0.689,0.566c0.141-0.36,0.205-0.625,0.281-1.101h-0.906
			c-0.201,0.49-0.432,0.841-0.82,1.251c-0.092-0.14-0.125-0.18-0.221-0.255c0.355-0.341,0.576-0.656,0.756-1.096
			c0.115-0.275,0.174-0.521,0.221-0.851h-0.355c-0.186,0-0.32,0.01-0.451,0.025v-0.326c0.131,0.02,0.26,0.025,0.471,0.025h1.422
			c0.209,0,0.369-0.01,0.5-0.025v0.326c-0.145-0.015-0.301-0.025-0.496-0.025h-0.775c-0.051,0.311-0.08,0.44-0.154,0.686h0.76
			c0.211,0,0.32-0.005,0.416-0.02c-0.01,0.04-0.016,0.08-0.055,0.325c-0.115,0.741-0.271,1.221-0.541,1.682
			c-0.307,0.521-0.646,0.866-1.256,1.281c-0.07-0.12-0.115-0.17-0.227-0.26c0.662-0.416,1.027-0.791,1.303-1.352
			c-0.252-0.27-0.416-0.41-0.721-0.605L73.587,22.352z M75.804,20.721c-0.021,0.135-0.025,0.275-0.025,0.571v1.827
			c0,0.345,0,0.445,0.025,0.581h-0.371c0.02-0.135,0.025-0.25,0.025-0.581v-1.827c0-0.275-0.01-0.426-0.029-0.571H75.804z
			 M76.929,20.405c-0.025,0.155-0.035,0.355-0.035,0.631v3.288c0,0.365-0.109,0.445-0.58,0.445c-0.105,0-0.24-0.005-0.555-0.02
			c-0.01-0.13-0.031-0.22-0.08-0.345c0.25,0.04,0.436,0.055,0.686,0.055c0.186,0,0.215-0.02,0.215-0.14v-3.283
			c0-0.271-0.01-0.46-0.035-0.631H76.929z"/>
		<path d="M79.167,23.454h-0.432c-0.219,0-0.275,0-0.414,0.01c0.014-0.13,0.02-0.255,0.02-0.45v-1.862c0-0.15-0.01-0.27-0.02-0.39
			c0.115,0.015,0.209,0.02,0.4,0.02h0.561c0.094-0.15,0.164-0.295,0.24-0.5l0.33,0.065c-0.09,0.18-0.156,0.3-0.24,0.436h1.227
			c0.195,0,0.295-0.005,0.41-0.02c-0.016,0.1-0.016,0.155-0.016,0.315v0.831c0,0.13,0.006,0.235,0.016,0.34
			c-0.15-0.01-0.256-0.015-0.391-0.015h-2.207v0.335h2.928c0.199,0,0.34-0.01,0.471-0.03v0.32c-0.156-0.015-0.291-0.025-0.48-0.025
			h-2.918v0.36h2.867c0.176,0,0.285-0.005,0.396-0.02c-0.006,0.045-0.016,0.125-0.035,0.28c-0.061,0.585-0.146,1.011-0.236,1.151
			c-0.094,0.14-0.23,0.19-0.525,0.19c-0.141,0-0.221-0.005-0.381-0.015c-0.014-0.14-0.023-0.175-0.074-0.315
			c0.199,0.03,0.34,0.045,0.49,0.045c0.166,0,0.225-0.035,0.266-0.165c0.055-0.18,0.109-0.511,0.15-0.891h-2.092v0.655h0.939v-0.245
			c0-0.115-0.004-0.185-0.02-0.28h0.336c-0.016,0.09-0.02,0.195-0.02,0.3v0.25c0,0.1,0,0.17,0.01,0.26c-0.055,0-0.055,0-0.186-0.005
			c-0.035-0.005-0.131-0.005-0.176-0.005h-2.076v0.23h-0.33c0.02-0.12,0.029-0.261,0.029-0.396l-0.006-0.315
			c0-0.125-0.004-0.195-0.023-0.3H78.3c-0.014,0.09-0.014,0.155-0.014,0.28v0.225h0.881V23.454z M80.919,21.376v-0.34h-2.268v0.34
			H80.919z M78.651,21.982h2.268v-0.36h-2.268V21.982z"/>
	</g>
	<g clip-path="url(#SVGID_2_)">
		<path d="M55.249,7.98c0-0.245-0.01-0.34-0.035-0.485h0.385c-0.023,0.15-0.035,0.25-0.035,0.485h1.592
			c0.246,0,0.391-0.01,0.516-0.035v0.355c-0.16-0.02-0.311-0.03-0.516-0.03h-1.592v0.516h1.352c0.205,0,0.326-0.005,0.451-0.02
			c-0.016,0.13-0.02,0.24-0.02,0.42v2.397c0,0.315-0.115,0.4-0.551,0.4c-0.16,0-0.326-0.01-0.521-0.025
			c-0.01-0.12-0.029-0.205-0.084-0.325c0.219,0.04,0.404,0.055,0.596,0.055c0.189,0,0.24-0.025,0.24-0.13V9.066h-3.129v2.473
			c0,0.295,0.006,0.39,0.025,0.515h-0.375c0.02-0.14,0.029-0.275,0.029-0.53V9.196c0-0.175-0.005-0.295-0.02-0.43
			c0.135,0.015,0.25,0.02,0.455,0.02h1.236V8.271h-1.496c-0.211,0-0.365,0.01-0.511,0.03V7.945c0.165,0.025,0.306,0.035,0.511,0.035
			H55.249z M55.62,9.832c0.174-0.22,0.289-0.43,0.395-0.686l0.301,0.09c-0.135,0.25-0.236,0.411-0.375,0.596h0.379
			c0.211,0,0.316-0.005,0.441-0.025v0.32c-0.135-0.02-0.25-0.025-0.441-0.025H55.54v0.535h0.74c0.205,0,0.314-0.005,0.439-0.025
			v0.315c-0.125-0.02-0.25-0.025-0.439-0.025h-0.74v0.436c0,0.27,0.004,0.405,0.023,0.565h-0.355c0.021-0.17,0.025-0.3,0.025-0.561
			v-0.44h-0.6c-0.191,0-0.326,0.005-0.455,0.025v-0.315c0.129,0.02,0.24,0.025,0.459,0.025h0.596v-0.535h-0.676
			c-0.195,0-0.311,0.005-0.436,0.025v-0.32c0.125,0.02,0.236,0.025,0.451,0.025H55.62z M54.793,9.137
			c0.125,0.185,0.24,0.385,0.324,0.555l-0.254,0.11c-0.08-0.18-0.195-0.371-0.33-0.551L54.793,9.137z"/>
		<path d="M59.522,9.802c-0.064,0.075-0.109,0.14-0.17,0.245c-0.15-0.28-0.225-0.47-0.32-0.856c0.01,0.22,0.025,0.641,0.025,0.796
			v1.537c0,0.27,0.01,0.445,0.029,0.581h-0.354c0.02-0.14,0.029-0.325,0.029-0.581v-1.412c0-0.225,0.01-0.545,0.029-0.796
			c-0.135,0.606-0.32,1.091-0.561,1.481c-0.064-0.14-0.1-0.19-0.186-0.285c0.281-0.38,0.506-0.961,0.676-1.711h-0.18
			c-0.154,0-0.256,0.005-0.35,0.02V8.511c0.084,0.015,0.189,0.02,0.35,0.02h0.221V8.05c0-0.285-0.006-0.395-0.025-0.515h0.346
			c-0.02,0.125-0.025,0.265-0.025,0.51v0.485h0.109c0.15,0,0.23-0.005,0.326-0.02v0.306c-0.1-0.01-0.199-0.015-0.32-0.015h-0.1
			c0.109,0.395,0.23,0.656,0.445,0.991v-0.3c0.119,0.015,0.215,0.02,0.449,0.02v-0.5c-0.199,0-0.273,0.005-0.389,0.02v-0.3
			c0.119,0.02,0.215,0.025,0.475,0.025h2.002c0.275,0,0.371-0.005,0.496-0.025v0.305c-0.125-0.015-0.221-0.025-0.406-0.025v0.5
			h0.115c0.26,0,0.371-0.005,0.48-0.025v0.305c-0.09-0.01-0.186-0.015-0.48-0.015h-0.115v0.575c0.256,0,0.336-0.005,0.441-0.025
			v0.305c-0.146-0.02-0.281-0.025-0.506-0.025h-0.9v0.451h0.949c0.246,0,0.391-0.01,0.521-0.03v0.33
			c-0.145-0.02-0.285-0.03-0.521-0.03H61.18v0.23c0,0.23,0.01,0.386,0.029,0.546h-0.35c0.023-0.175,0.029-0.311,0.029-0.541v-0.235
			h-0.926c-0.25,0-0.385,0.005-0.521,0.025v-0.32c0.111,0.02,0.256,0.025,0.521,0.025h0.926v-0.451h-0.861
			c-0.174,0-0.32,0.01-0.455,0.025v-0.305c0.125,0.02,0.189,0.02,0.395,0.025V9.777h-0.023c-0.195,0-0.301,0.005-0.426,0.02
			L59.522,9.802z M60.608,8.341c0,0.125,0.006,0.215,0.021,0.285h-0.336c0.016-0.095,0.02-0.155,0.02-0.28V8.25h-0.355
			c-0.195,0-0.324,0.005-0.471,0.025V7.96c0.115,0.02,0.221,0.025,0.471,0.025h0.355v-0.1c0-0.15-0.004-0.235-0.025-0.331h0.346
			C60.62,7.65,60.608,7.735,60.608,7.89v0.095H61.5v-0.1c0-0.145-0.006-0.235-0.025-0.331h0.346
			c-0.021,0.095-0.025,0.181-0.025,0.335v0.095h0.391c0.244,0,0.375-0.005,0.516-0.03v0.326c-0.15-0.025-0.281-0.03-0.512-0.03
			h-0.395v0.09c0,0.13,0.004,0.21,0.02,0.285h-0.336c0.016-0.075,0.021-0.165,0.021-0.28V8.25h-0.893V8.341z M60.889,9.512v-0.5
			h-0.635v0.5H60.889z M60.254,10.353h0.635V9.777h-0.635V10.353z M61.86,9.512v-0.5h-0.68v0.5H61.86z M61.18,10.353h0.68V9.777
			h-0.68V10.353z"/>
		<path d="M65.614,8.941c0.189,0.621,0.361,0.981,0.65,1.426c0.191,0.28,0.42,0.536,0.721,0.791c0.26,0.226,0.426,0.341,0.791,0.546
			c-0.096,0.115-0.131,0.175-0.211,0.33c-0.766-0.51-1.18-0.911-1.556-1.491c-0.26-0.411-0.414-0.746-0.58-1.267
			c-0.119,0.526-0.279,0.926-0.525,1.312c-0.365,0.57-0.77,0.946-1.531,1.406c-0.064-0.13-0.105-0.195-0.211-0.3
			c1.191-0.625,1.803-1.466,2.002-2.752h-1.355c-0.27,0-0.4,0.01-0.551,0.035V8.601c0.131,0.025,0.291,0.035,0.566,0.035h1.375
			c0.021-0.21,0.025-0.35,0.025-0.54c0-0.23-0.01-0.406-0.035-0.546h0.4c-0.025,0.17-0.029,0.271-0.035,0.521
			c0,0.215-0.01,0.34-0.025,0.565h1.542c0.254,0,0.42-0.01,0.551-0.035v0.375c-0.156-0.025-0.301-0.035-0.547-0.035H65.614z
			 M65.668,11.744c-0.275-0.426-0.426-0.616-0.75-0.956l0.26-0.17c0.295,0.29,0.506,0.54,0.771,0.921L65.668,11.744z"/>
	</g>
</g>
</svg>
