<?xml version="1.0" encoding="utf-8"?>
<!-- Generator: Adobe Illustrator 16.0.3, SVG Export Plug-In . SVG Version: 6.00 Build 0)  -->
<!DOCTYPE svg PUBLIC "-//W3C//DTD SVG 1.1//EN" "http://www.w3.org/Graphics/SVG/1.1/DTD/svg11.dtd">
<svg version="1.1" id="レイヤー_1" xmlns="http://www.w3.org/2000/svg" xmlns:xlink="http://www.w3.org/1999/xlink" x="0px"
	 y="0px" width="147.332px" height="170.109px" viewBox="0 0 147.332 170.109" enable-background="new 0 0 147.332 170.109"
	 xml:space="preserve">
<pattern  x="-1223.037" y="-187.473" width="72" height="72" patternUnits="userSpaceOnUse" id="_x36__lpi_40_x25__3" viewBox="24 -72 72 72" overflow="visible">
	<g>
		<polygon fill="none" points="24,0 24,-72 96,-72 96,0 		"/>
		<line fill="none" stroke="#CE414A" stroke-width="4.8" x1="23.75" y1="-6" x2="96.25" y2="-6"/>
		<line fill="none" stroke="#CE414A" stroke-width="4.8" x1="23.75" y1="-30" x2="96.25" y2="-30"/>
		<line fill="none" stroke="#CE414A" stroke-width="4.8" x1="23.75" y1="-54" x2="96.25" y2="-54"/>
		<line fill="none" stroke="#CE414A" stroke-width="4.8" x1="0" y1="-54" x2="16.5" y2="-54"/>
		<line fill="none" stroke="#CE414A" stroke-width="4.8" x1="23.75" y1="-18" x2="96.25" y2="-18"/>
		<line fill="none" stroke="#CE414A" stroke-width="4.8" x1="23.75" y1="-42" x2="96.25" y2="-42"/>
		<line fill="none" stroke="#CE414A" stroke-width="4.8" x1="23.75" y1="-66" x2="96.25" y2="-66"/>
		<line fill="none" stroke="#CE414A" stroke-width="4.8" x1="0" y1="-66" x2="16.5" y2="-66"/>
	</g>
</pattern>
<g>
	<defs>
		<rect id="SVGID_1_" width="147.332" height="170.109"/>
	</defs>
	<clipPath id="SVGID_2_">
		<use xlink:href="#SVGID_1_"  overflow="visible"/>
	</clipPath>
	<path id="国後島" clip-path="url(#SVGID_2_)" fill="#CE414A" stroke="#000000" stroke-width="0.57" stroke-linejoin="round" d="
		M63.289,128.262c0,0,0.121,0.473,0.975-0.064c0.854-0.539,1.363,0.143,1.891-0.479c0.533-0.621,1.148-0.4,0.623,0.529
		c-0.523,0.932-1.063,1.775-1.391,1.697c-0.326-0.084-0.625,0.006-0.883,0.359c-0.256,0.355-0.734,0.162-1.043,0.48
		c-0.307,0.314-1.521,1.131-1.387,1.693c0.133,0.561-0.123,0.914-0.844,1.473c-0.717,0.561-0.48,1.195-1.16,1.705
		c-0.682,0.508-1.74,0.9-1.688,1.787c0.049,0.887-0.133,1.451-0.133,1.451s-1.229-0.43-1-0.959s-0.078-1.063,0.59-1.66
		c0.664-0.598,1.25-0.867,1.77-2.113c0.521-1.244,0.322-1.078,0.176-1.729c-0.148-0.648-0.125-0.785,0.506-1.33
		c0.631-0.549,1.008-1.277,1.025-1.729c0.02-0.449,0.693-1.273,1.043-1.326C62.709,127.994,63.289,128.262,63.289,128.262z"/>
	<path id="色丹島" clip-path="url(#SVGID_2_)" fill="#CE414A" stroke="#000000" stroke-width="0.57" stroke-linejoin="round" d="
		M69.627,134.422c0,0,1.105,0.496,0.416,1.232c-0.688,0.734-0.773,1.061-1.125,0.801c-0.355-0.256-0.99-0.021-0.99-0.021
		l-0.605-0.441c0,0,1.168-0.545,1.402-0.758C68.959,135.016,69.627,134.422,69.627,134.422z"/>
	<g id="歯舞諸島" clip-path="url(#SVGID_2_)">
		<g>
			<path fill-rule="evenodd" clip-rule="evenodd" fill="#CE414A" d="M63.495,140.053c-0.03,0-0.083-0.015-0.107-0.031
				c-0.066-0.046-0.184-0.165-0.174-0.302c0.007-0.113-0.039-0.188-0.182-0.296c-0.014-0.01-0.089-0.1-0.099-0.114
				c-0.027-0.034-0.051-0.096-0.042-0.14c0.008-0.043,0.023-0.098,0.063-0.119c0.074-0.047,0.121-0.077,0.182-0.092
				c0.186-0.045,0.253-0.064,0.295-0.137c0.031-0.03,0.09-0.065,0.135-0.065c0.003,0,0.006,0,0.01,0
				c0.045,0.006,0.105,0.009,0.129,0.049c0.063,0.104,0.142,0.15,0.254,0.15c0.036,0,0.076-0.005,0.119-0.015
				c0.018,0,0.109,0.007,0.125,0.014c0.051,0.011,0.092,0.047,0.109,0.096c0.017,0.048,0.009,0.103-0.023,0.143l-0.128,0.164
				l0.024,0.017c0.063,0.041,0.086,0.121,0.056,0.188c-0.094,0.204-0.265,0.283-0.401,0.348c-0.046,0.021-0.093,0.042-0.135,0.069
				C63.657,140.012,63.571,140.053,63.495,140.053L63.495,140.053z"/>
			<path d="M63.576,138.883c0.096,0.158,0.227,0.223,0.382,0.223c0.048,0,0.099-0.006,0.151-0.018c0.002,0,0.005-0.001,0.008-0.001
				c0.018,0,0.037,0.011,0.053,0.015c-0.076,0.098-0.152,0.195-0.227,0.291c0.078,0.053,0.127,0.086,0.16,0.107
				c-0.1,0.217-0.316,0.248-0.48,0.354c-0.034,0.023-0.092,0.049-0.128,0.049c-0.01,0-0.019-0.002-0.024-0.006
				c-0.051-0.035-0.111-0.111-0.107-0.166c0.012-0.199-0.096-0.316-0.24-0.426c-0.041-0.029-0.063-0.082-0.096-0.123
				c0.049-0.027,0.092-0.064,0.143-0.076c0.148-0.039,0.303-0.057,0.391-0.207L63.576,138.883 M63.576,138.583
				c-0.079,0-0.155,0.031-0.212,0.088l-0.016,0.016c-0.019,0.018-0.034,0.038-0.047,0.061c-0.011,0.018-0.051,0.029-0.144,0.052
				l-0.064,0.017c-0.078,0.018-0.143,0.06-0.186,0.087c-0.077,0.043-0.145,0.127-0.162,0.214c-0.017,0.087-0.008,0.186,0.048,0.254
				c0.04,0.063,0.081,0.126,0.155,0.179c0.119,0.091,0.117,0.123,0.114,0.164c-0.014,0.2,0.142,0.365,0.236,0.431
				c0.05,0.034,0.134,0.059,0.195,0.059c0.138,0,0.263-0.077,0.297-0.101c0.03-0.02,0.07-0.037,0.11-0.056
				c0.151-0.07,0.357-0.167,0.474-0.421c0.043-0.093,0.034-0.197-0.016-0.28l0.046-0.059c0.063-0.081,0.081-0.189,0.046-0.286
				c-0.034-0.097-0.116-0.169-0.217-0.191c-0.005-0.004-0.055-0.021-0.118-0.021c-0.021,0-0.047,0.003-0.066,0.007
				c-0.038,0.008-0.067,0.012-0.093,0.012c-0.053,0-0.085-0.012-0.125-0.078c-0.048-0.079-0.129-0.132-0.221-0.143
				C63.601,138.584,63.588,138.583,63.576,138.583L63.576,138.583z"/>
		</g>
		<g>
			<path fill-rule="evenodd" clip-rule="evenodd" fill="#CE414A" d="M61.66,140.486c-0.059,0-0.111-0.034-0.137-0.088l-0.11-0.236
				c-0.019-0.039-0.02-0.085-0.002-0.124c0.018-0.04,0.051-0.07,0.092-0.083l0.388-0.121c0.015-0.005,0.03-0.007,0.045-0.007
				c0.062,0,0.119,0.036,0.142,0.095l0.129,0.329c0.018,0.045,0.013,0.095-0.013,0.135c-0.024,0.04-0.067,0.066-0.114,0.07
				C62.079,140.456,61.664,140.486,61.66,140.486z"/>
			<path d="M61.938,139.977c0,0,0.088,0.227,0.129,0.33c-0.143,0.012-0.271,0.02-0.406,0.029c-0.033-0.072-0.076-0.164-0.111-0.238
				C61.684,140.055,61.811,140.016,61.938,139.977 M61.938,139.677c-0.029,0-0.059,0.004-0.088,0.013l-0.392,0.122
				c-0.083,0.026-0.149,0.087-0.185,0.167c-0.034,0.079-0.033,0.169,0.004,0.248l0.11,0.234c0.049,0.107,0.156,0.175,0.272,0.175
				c0.007,0,0.015,0,0.021-0.001l0.137-0.009l0.272-0.021c0.095-0.008,0.181-0.06,0.23-0.141s0.06-0.181,0.024-0.269l-0.129-0.328
				C62.172,139.75,62.059,139.677,61.938,139.677L61.938,139.677z"/>
		</g>
		<g>
			<path fill-rule="evenodd" clip-rule="evenodd" fill="#CE414A" d="M64.8,138.202c-0.075-0.009-0.132-0.071-0.134-0.146
				c-0.001-0.076,0.054-0.141,0.129-0.151l0.107-0.016l0.154-0.145c0.027-0.021,0.061-0.033,0.094-0.033
				c0.031,0,0.063,0.01,0.09,0.03c0.152,0.045,0.354,0.101,0.37,0.373c0.003,0.044-0.014,0.087-0.046,0.117
				c-0.028,0.027-0.065,0.042-0.104,0.042C65.456,138.273,64.8,138.202,64.8,138.202z"/>
			<path d="M65.15,137.861c0.092,0.068,0.297,0.025,0.311,0.262c-0.217-0.023-0.432-0.047-0.645-0.07l0.107-0.016
				C64.998,137.98,65.07,137.926,65.15,137.861 M65.161,137.558c-0.07,0-0.142,0.024-0.199,0.07
				c-0.056,0.044-0.106,0.084-0.158,0.123l-0.03,0.005c-0.149,0.021-0.26,0.151-0.257,0.302c0.003,0.151,0.117,0.276,0.267,0.293
				l0.646,0.07c0.011,0.002,0.021,0.002,0.032,0.002c0.076,0,0.15-0.029,0.207-0.082c0.063-0.062,0.098-0.147,0.093-0.235
				c-0.022-0.38-0.325-0.464-0.425-0.491C65.284,137.576,65.223,137.558,65.161,137.558L65.161,137.558z"/>
		</g>
		<g>
			<path fill-rule="evenodd" clip-rule="evenodd" fill="#CE414A" d="M62.541,141.166c-0.014,0-0.117-0.026-0.13-0.03
				c-0.061-0.017-0.193-0.094-0.199-0.155c-0.006-0.066,0.027-0.191,0.089-0.216l0.282-0.111c0.019-0.007,0.037-0.011,0.056-0.011
				c0.049,0,0.097,0.024,0.125,0.067c0.033,0.05,0.066,0.168,0.033,0.218l-0.117,0.173c-0.027,0.041-0.073,0.065-0.123,0.065H62.541
				z"/>
			<path d="M62.639,140.793c0.012,0.018,0.023,0.035,0.033,0.053c-0.037,0.057-0.076,0.113-0.115,0.17h-0.016
				c-0.061-0.016-0.119-0.033-0.18-0.049c-0.002-0.021-0.004-0.043-0.006-0.063C62.451,140.867,62.545,140.83,62.639,140.793
				 M62.639,140.493c-0.037,0-0.074,0.007-0.11,0.021l-0.281,0.111c-0.126,0.049-0.203,0.175-0.19,0.31l0.006,0.056
				c0.012,0.126,0.102,0.235,0.224,0.267l0.085,0.023l0.095,0.025c0.024,0.007,0.05,0.01,0.075,0.01c0.099,0,0.207-0.048,0.263-0.13
				c0.04-0.059,0.081-0.117,0.119-0.176c0.062-0.093,0.065-0.212,0.012-0.31c-0.014-0.024-0.03-0.049-0.046-0.073
				C62.831,140.541,62.736,140.493,62.639,140.493L62.639,140.493z"/>
		</g>
		<g>
			<path fill-rule="evenodd" clip-rule="evenodd" fill="#CE414A" d="M62.93,140.563c-0.024,0-0.049-0.006-0.07-0.018l0.07-0.133
				l-0.099,0.118c-0.05-0.026-0.144-0.11-0.144-0.167c0-0.036,0.014-0.087,0.037-0.114l0.082-0.088
				c0.029-0.033,0.071-0.052,0.113-0.052c0.018,0,0.035,0.004,0.053,0.01c0.063,0.032,0.157,0.134,0.139,0.202l-0.038,0.135
				c-0.013,0.043-0.045,0.077-0.086,0.095C62.969,140.559,62.949,140.563,62.93,140.563z"/>
			<path d="M62.92,140.26c0.016,0.006,0.031,0.014,0.047,0.021c-0.012,0.043-0.023,0.086-0.037,0.131
				c-0.029-0.016-0.063-0.031-0.092-0.049v-0.016C62.863,140.318,62.893,140.291,62.92,140.26 M62.92,139.96
				c-0.085,0-0.168,0.036-0.226,0.103l-0.031,0.033l-0.052,0.056c-0.047,0.055-0.073,0.124-0.073,0.196
				c0,0.105,0.055,0.219,0.146,0.272c0.025,0.016,0.053,0.029,0.079,0.043c0.047,0.024,0.104,0.038,0.159,0.038
				c0.039,0,0.076-0.007,0.109-0.021c0.082-0.035,0.159-0.097,0.186-0.181l0.039-0.139c0.038-0.139-0.027-0.284-0.155-0.349
				c-0.024-0.013-0.05-0.024-0.075-0.034C62.991,139.966,62.955,139.96,62.92,139.96L62.92,139.96z"/>
		</g>
	</g>
	
		<polyline clip-path="url(#SVGID_2_)" fill-rule="evenodd" clip-rule="evenodd" fill="none" stroke="#000000" stroke-width="0.5" points="
		93.957,149.422 69.145,149.422 64.35,140.639 	"/>
	
		<polyline clip-path="url(#SVGID_2_)" fill-rule="evenodd" clip-rule="evenodd" fill="none" stroke="#000000" stroke-width="0.5" points="
		69.145,135.482 72.207,140.41 90.77,140.41 	"/>
	<path clip-path="url(#SVGID_2_)" fill="none" stroke="#000000" stroke-width="0.567" stroke-linejoin="round" d="M-6.271,14.842
		c0.928-0.674,1.23-0.928,2.229-1.121s2.645-0.723,2.227-1.713c-0.416-0.99-0.113-1.244,0.473-1.838s1.221-0.791,1.393,0.123
		c0.172,0.912-0.615,2.191-1.078,3.301c-0.461,1.109,0.197,1.588,0.713,0.51c0.516-1.076,1.52-1.633,1.344-2.18
		c-0.176-0.551,0.031-1.008,0.457-1.701c0.426-0.691-0.006-1.18-0.4-1.494C0.691,8.412,1.973,7.881,1.18,7.027
		C0.385,6.17-0.17,5.758,0.541,5.68c0.705-0.08,1.574-0.059,2.336,0.85c1.9-0.227,3.066,1.814,3.432,0.863
		c0.363-0.947,1.9-1.178,1.504-0.176c-0.4,1.004-1.18,0.965-0.451,1.924c0.729,0.965,1.303,1.463,1.76,0.717
		c0.459-0.744,0.938-0.449,1.486,0.328c0.549,0.779,0.898,2.238,0.744,2.73c-0.156,0.492,0.238,1.396,0.98,1.266
		c0.74-0.131,1.49,0.916,2.377,1.387c0.883,0.473,2.762,1.113,2.424,1.785c-0.342,0.672-0.861,1.16-0.256,1.605
		c0.607,0.447,1.27,0.563,1.754,0.49c0.482-0.068,0.41-0.188,0.711,0.514c0.305,0.699,0.414,1.354-0.348,1.4
		c-0.762,0.043-0.863-0.385-1.336,0.5c-0.469,0.885-1.178,0.959-1.693,1.084c-0.516,0.123-0.498,0.572-0.684,1.707
		c-0.184,1.135,0.02,1.994,0.918,1.371c0.896-0.621,2.031-0.436,1.961,0.033c-0.07,0.473,0.246,1.031,0.482,1.84
		c0.236,0.805,0.313,1.879-0.648,2.242c-0.957,0.365-0.641,0.928-0.1,1.479c0.541,0.555,0.121,1.471,0.635,2.666
		c0.512,1.197,0.396,1.859-0.197,2.227c-0.592,0.371-1.238,0.707-1.313,1.541c-0.074,0.836-0.197,1.271-1.111,2.398
		c-0.912,1.127-0.814,1.922-1.313,2.494c-0.498,0.574-0.492,0.799-0.549,2.084c-0.057,1.287-1.498,0.766-1.211,1.969
		c0.287,1.205-0.906,2.307-1.299,2.945c-0.395,0.639-1.023,1.424-1.314,3.447s0.033,4.717,0.91,4.965
		c0.877,0.244,0.879,0.834,0.959,1.541c0.076,0.709-0.123,1.393-0.723,2.127c-0.596,0.73-0.676,0.023-0.348,1.398
		s1.105,2.736,0.418,3.852c-0.688,1.119-0.094,2.66-0.795,2.963c-0.697,0.303-1.01,2.238-0.658,3.336
		c0.354,1.098,1.598,1.938,0.977,2.949c-0.623,1.012-0.855,2.701-0.727,3.443c0.133,0.738-0.531,2.533-1.77,3.238
		c-1.244,0.703-0.959,2.273-1.693,2.629c-0.732,0.357-0.801,0.826-0.904,1.35c-0.104,0.525-0.66,0.475-1.023,0.473
		c-0.365-0.006-2.143,1.689-2.102,2.816c0.043,1.125,0.141,0.967-0.842,2.564c-0.984,1.598-0.543,0.766-1.117,0.266
		c-0.572-0.5-1.975-0.846-2.318,0.188c-0.344,1.037-1.285,2.807-1.613,3.338c-0.326,0.533-1.186,1.691-1.252,2.754
		c-0.064,1.059-0.531,1.578-1.506,2.447s-1.463,1.303-1.613,2.383c-0.152,1.082-0.545,1.719-0.889,1.803
		c-0.346,0.08-1.135,0.77-0.865,1.523c0.271,0.752-0.906,1.715-1.17,2.141c-0.26,0.426-0.105-0.066-0.953-0.002
		c-0.848,0.066-2.072,0.268-1.99,1.564c0.082,1.299-1.338,1.818-1.867,2.08c-0.527,0.264-1.199,0.877-1.67,1.762"/>
	<path clip-path="url(#SVGID_2_)" fill="none" stroke="#000000" stroke-width="0.567" stroke-linejoin="round" d="M-6.154,10.953"/>
	<path clip-path="url(#SVGID_2_)" fill="#F5C61D" stroke="#000000" stroke-width="0.57" stroke-linejoin="round" d="M164.16-31.977
		c-0.225,0.961-0.004,2.271-0.152,2.988c-0.146,0.717,0.902,1.875,0.73,2.869c-0.172,0.996,0.008,1.18,0.926,1.598
		c0.918,0.416,2.865,0.588,2.986,1.471c0.117,0.879,0.715,1.1-0.639,1.514c-1.357,0.414-1.09,2.486-1.09,2.486
		s-0.422,1.281-1.4,1.561c-0.98,0.277-1.389,1.42-2.322,0.551c-0.934-0.867-1.082-1.104-1.664-0.51
		c-0.588,0.592-0.215,0.822-1.139,1.133c-0.926,0.313-1.652,0.893-1.619,1.793c0.033,0.902,0.041,1.127-0.785,2.234
		c-0.828,1.105-0.705,2.572-0.885,3.344c-0.18,0.77-0.781,0.914-0.461,3.02c0.318,2.104,0.02,3.9,1.105,3.688
		c1.084-0.213,1.182-0.371,1.416,0.799c0.232,1.17,0.248,1.621,0.076,2.025c-0.178,0.406-0.084,0.611,0.51,0.242
		c0.594-0.367,0.883-0.119,0.863,0.387c-0.014,0.502,1.705,2-0.109,1.252c-1.814-0.75-2.236-0.424-2.723,0.012
		c-0.488,0.434-1.729,2.094-2.33,2.234c-0.602,0.146-0.594,0.371-1.049,1.705c-0.453,1.334-0.748,1.814-1.949,1.736
		c-1.199-0.076-1.934-0.311-2.07,1.221c-0.135,1.531,0.119,1.834,0.727,0.963c0.613-0.873,0.932-0.676,0.82,0.576
		c-0.109,1.252-0.033,1.463-0.205,2.002c-0.311,0.982-0.76,1.953-1.096,2.26s-0.461,1.111-0.361,1.541
		c0.104,0.428-1.559,1.461-1.188,2.645c0.375,1.184,0.5,1.334-0.467,1.475c-0.967,0.139-1.016,0.695-0.934,1.039
		c0.084,0.344-0.484,1.389-1.287,1.262s-1.18,0.01-0.775,1.139c0.406,1.129,0.115,2.197-0.871,2.252
		c-0.986,0.053-1.15,1.271-0.582,2.139c0.57,0.861-0.191,0.908-0.949,2.496s-1.395,2.148-1.898,1.18
		c-0.504-0.971-0.885-2.379-1.826-2.518c-0.943-0.139-1.688,0.357-1.986-1.664c-0.299-2.018-0.338-3.508-1.135-4.953
		c-0.801-1.445,0.412-2.461-0.533-4.143c-0.947-1.682-1.225-2.662-2.035-3.967c-0.811-1.309-0.771-2.09-1.313-2.643
		s-1.572-2.215-2.189-3.475c-0.619-1.262-0.688-2.699-1.375-3.49c-0.689-0.791-1.064-1.609-1.795-3.525
		c-0.729-1.916-0.885-2.377-2.129-4.17c-1.246-1.793-1.303-3.371-2.244-4.463c-0.941-1.096-0.523-1.057-1.258-2.609
		c-0.732-1.551-0.1-0.795-1.359-2.084c-1.262-1.289-0.982-1.266-1.107-2.734c-0.121-1.471-0.031-0.9-0.689-2.334
		c-0.662-1.434-0.285-1.568-0.639-3.256c-0.357-1.688-0.227-2.854-0.588-4.178c-0.361-1.322-0.559-0.637-0.941-2.047"/>
	<path clip-path="url(#SVGID_2_)" fill="#F5C61D" stroke="#000000" stroke-width="0.57" stroke-linejoin="round" d="M25.699,4.391
		c0,0,0.57-0.092,0.828-0.813c0.26-0.719,0.656-1.43,1.037-0.498c0.385,0.93,1.412,1.705,1.537,2.516
		c0.127,0.811,0.885,1.787,0.701,2.627c-0.186,0.84-0.068,1.789,0.281,2.592c0.352,0.801,0.816,2.258,0.932,3.027
		c0.117,0.766,0.209,0.676,0.842,1.135c0.635,0.463,1.078,1.176,1.303,2.305c0.227,1.125,0.842,2.455,0.58,2.701
		c-0.266,0.25-0.346-0.213-0.846-1.252s-1.314-2.162-1.715-2.043c-0.404,0.119-0.207,0.574,0.264,1.301
		c0.471,0.729,0.875,2.221,0.898,2.783c0.02,0.563,0.301,1.543,0.652,1.205c0.352-0.332,0.842,0.004,1.016,0.916
		s0.369,4.844-0.738,3.838c-1.104-1.008-1.051-0.316-1.141,0.547c-0.088,0.861-0.475,2.748-0.365,3.588
		c0.111,0.834,0.105,2.223,0.365,2.936c0.262,0.707,0.957,1.906,0.703,2.555c-0.252,0.654-0.191,1.936,0.328,1.922
		c0.52-0.01,1.668-0.445,2.207,1.244c0.543,1.688,0.945,4.498,1.082,5.354c0.139,0.852,0.219,1.854,0.273,3.32
		c0.059,1.461,0.568,2.545,0.506,3.605c-0.064,1.061,0.889,4.17,1.092,4.92c0.201,0.742,2.053,2.924,2.48,4.084
		c0.521,1.42,0.473,2.523,0.885,3.402c0.418,0.875,0.205,1.223,1.275,2.465c1.07,1.244,1.721,2.994,2.43,3.574
		c0.705,0.58,1.049,0.977,1.463,2.035c0.414,1.061,0.893,2.014,0.57,2.182c-0.322,0.17-0.658-0.184-0.971-0.928
		c-0.318-0.738,0.127-0.688-1.014-1.279c-1.141-0.588-0.941-0.137-1.539-1.492s-0.555-1.549-1.375-2.305
		c-0.816-0.76-0.791-1.037-1.748-0.852c-0.957,0.182-1.109,0.492-1.871-0.119c-0.76-0.613-1.018-0.551-1.748-0.377
		c-0.73,0.178-0.926,0.018-1.563-0.26c-0.635-0.279-1.529,0.164-2.012,1.189c-0.479,1.023-1.131,3.043-0.6,4.209
		c0.531,1.17,0.467,1.572,0.094,2.184c-0.377,0.613-0.762,1.363-1.301,2.061c-0.537,0.697-0.547,1.316-0.672,2.412
		c-0.121,1.098-0.986,3.646-0.973,4.463c0.014,0.814,0.012,3.451,0.238,4.395c0.227,0.947,0.691,3.063,1.389,2.76
		c0.701-0.305,1.352-0.055,1.477,0.463c0.123,0.516,0.715,1.17,0.848,2.205c0.137,1.035,0.604,2.787,1.027,2.754
		c0.422-0.035,0.803,0.123,1.156,0.084c0.354-0.041,1.271,0.559,1.297,1.711c0.029,1.152-0.361,3.225,0.369,3.525
		c0.732,0.301,1.566,1.213,1.395,1.732c-0.17,0.518-0.594,1.211-1.006,1.764c-0.412,0.555-0.313,1.348-0.344,1.695
		c-0.029,0.35-0.059,0.697-0.412,0.555c-0.352-0.143-0.113-0.656-0.264-1.48c-0.154-0.83-0.105-1.387-0.828-2.301
		c-0.719-0.92-0.547-1.141-0.441-1.555c0.105-0.41-0.105-0.725-0.584-1.018c-0.48-0.295-0.551-0.299-0.9,0.033
		c-0.354,0.336-0.652,0.406-1.145,0.252s-0.59-0.176-0.803-0.783c-0.215-0.607,0.299-1.025-0.754-0.863
		c-1.051,0.162-1.264,0.326-1.975,0.289c-0.713-0.029-1.256,0.736-1.514,1.459c-0.26,0.721-0.576,1.66-0.459,2.064
		c0.121,0.4,0.549,1.436,0.09,2.068c-0.463,0.635-0.508,1.484-0.283,2.137c0.223,0.65-0.314,2.848-0.621,3.283
		c-0.303,0.438-0.074,0.064-0.494-0.926c-0.418-0.99-0.891-0.4-0.904-1.395c-0.01-0.998-0.148-1.012-0.523-1.24
		c-0.373-0.229-1.107-1.482-0.809-2.51s0.25-1.605-0.148-2.508c-0.4-0.904-0.037-2.334,0.486-3.186
		c0.521-0.854,1.348-2.801,0.865-4.049s-1.17-2.695-1.279-3.535c-0.111-0.834,0.039-2.574,0.49-3.91s0.369-3.479,0.301-4.619
		c-0.07-1.143,1.457-2.439,0.486-4.207c-0.969-1.766-1.879-3.277-1.654-4.238c0.223-0.963,0.496-2.848,0.73-4.904
		c0.232-2.055,0.545-3.402,0.42-4.871c-0.125-1.471,1.805-4.025,1.57-5.195c-0.236-1.17-0.271-3.391-0.271-3.391s0.006-3-0.65-3.844
		c-0.656-0.842-1.773-1.891-1.074-3.15c0.697-1.258,0.785-3.914,0.742-5.041c-0.043-1.125,1.111-3.133,0.486-4.025
		c-0.625-0.896-2.098-2.678-2.799-3.328c-0.701-0.648-0.781-1.357-0.596-1.537c0.182-0.182,0.613-0.285,0.926-0.678
		c0.316-0.395-1.182-0.945-0.859-2.066c0.32-1.123-0.332-2.33-0.734-2.869s0.189-0.91,0.389-2.547
		c0.195-1.639,0.508-4.305,0.814-4.924c0.305-0.619,0.785-1.277,0.252-1.605c-0.535-0.326-0.861-0.746-0.781-1.357
		c0.082-0.611-0.299-1.428-0.467-1.752s-0.455-1.891,0.205-2.367c0.656-0.477,1.254-1.211,1.578-1.742
		c0.328-0.535,0.775-0.188,1.443,0.516c0.67,0.703,1.023,0.48,1.416-0.158c0.393-0.641,0.703-0.67,0.076-1.199
		c-0.627-0.533-0.689-0.789-0.32-1.148c0.365-0.363,2.057-1.088,1.297-1.404c-0.758-0.318-1.061-0.064-0.867-1.338
		c0.195-1.275,0.266-0.791-0.646-1.934c-0.91-1.146-2.088-2.455-1.492-2.234C25.291,4.398,25.699,4.391,25.699,4.391z"/>
	
		<pattern  id="SVGID_3_" xlink:href="#_x36__lpi_40_x25__3" patternTransform="matrix(0.7071 -0.7071 0.7071 0.7071 3973.7314 -6881.4893)">
	</pattern>
	<path clip-path="url(#SVGID_2_)" fill="url(#SVGID_3_)" d="M25.699,4.391c0,0,0.57-0.092,0.828-0.813
		c0.26-0.719,0.656-1.43,1.037-0.498c0.385,0.93,1.412,1.705,1.537,2.516c0.127,0.811,0.885,1.787,0.701,2.627
		c-0.186,0.84-0.068,1.789,0.281,2.592c0.352,0.801,0.816,2.258,0.932,3.027c0.117,0.766,0.209,0.676,0.842,1.135
		c0.635,0.463,1.078,1.176,1.303,2.305c0.227,1.125,0.842,2.455,0.58,2.701c-0.266,0.25-0.346-0.213-0.846-1.252
		s-1.314-2.162-1.715-2.043c-0.404,0.119-0.207,0.574,0.264,1.301c0.471,0.729,0.875,2.221,0.898,2.783
		c0.02,0.563,0.301,1.543,0.652,1.205c0.352-0.332,0.842,0.004,1.016,0.916s0.369,4.844-0.738,3.838
		c-1.104-1.008-1.051-0.316-1.141,0.547c-0.088,0.861-0.475,2.748-0.365,3.588c0.111,0.834,0.105,2.223,0.365,2.936
		c0.262,0.707,0.957,1.906,0.703,2.555c-0.252,0.654-0.191,1.936,0.328,1.922c0.52-0.01,1.668-0.445,2.207,1.244
		c0.543,1.688,0.945,4.498,1.082,5.354c0.139,0.852,0.219,1.854,0.273,3.32c0.059,1.461,0.568,2.545,0.506,3.605
		c-0.064,1.061,0.889,4.17,1.092,4.92c0.201,0.742,2.053,2.924,2.48,4.084c0.521,1.42,0.473,2.523,0.885,3.402
		c0.418,0.875,0.205,1.223,1.275,2.465c1.07,1.244,1.721,2.994,2.43,3.574c0.705,0.58,1.049,0.977,1.463,2.035
		c0.414,1.061,0.893,2.014,0.57,2.182c-0.322,0.17-0.658-0.184-0.971-0.928c-0.318-0.738,0.127-0.688-1.014-1.279
		c-1.141-0.588-0.941-0.137-1.539-1.492s-0.555-1.549-1.375-2.305c-0.816-0.76-0.791-1.037-1.748-0.852
		c-0.957,0.182-1.109,0.492-1.871-0.119c-0.76-0.613-1.018-0.551-1.748-0.377c-0.73,0.178-0.926,0.018-1.563-0.26
		c-0.635-0.279-1.529,0.164-2.012,1.189c-0.479,1.023-1.131,3.043-0.6,4.209c0.531,1.17,0.467,1.572,0.094,2.184
		c-0.377,0.613-0.762,1.363-1.301,2.061c-0.537,0.697-0.547,1.316-0.672,2.412c-0.121,1.098-0.986,3.646-0.973,4.463
		c0.014,0.814,0.012,3.451,0.238,4.395c0.227,0.947,0.691,3.063,1.389,2.76c0.701-0.305,1.352-0.055,1.477,0.463
		c0.123,0.516,0.715,1.17,0.848,2.205c0.137,1.035,0.604,2.787,1.027,2.754c0.422-0.035,0.803,0.123,1.156,0.084
		c0.354-0.041,1.271,0.559,1.297,1.711c0.029,1.152-0.361,3.225,0.369,3.525c0.732,0.301,1.566,1.213,1.395,1.732
		c-0.17,0.518-0.594,1.211-1.006,1.764c-0.412,0.555-0.313,1.348-0.344,1.695c-0.029,0.35-0.059,0.697-0.412,0.555
		c-0.352-0.143-0.113-0.656-0.264-1.48c-0.154-0.83-0.105-1.387-0.828-2.301c-0.719-0.92-0.547-1.141-0.441-1.555
		c0.105-0.41-0.105-0.725-0.584-1.018c-0.48-0.295-0.551-0.299-0.9,0.033c-0.354,0.336-0.652,0.406-1.145,0.252
		s-0.59-0.176-0.803-0.783c-0.215-0.607,0.299-1.025-0.754-0.863c-1.051,0.162-1.264,0.326-1.975,0.289
		c-0.713-0.029-1.256,0.736-1.514,1.459c-0.26,0.721-0.576,1.66-0.459,2.064c0.121,0.4,0.549,1.436,0.09,2.068
		c-0.463,0.635-0.508,1.484-0.283,2.137c0.223,0.65-0.314,2.848-0.621,3.283c-0.303,0.438-0.074,0.064-0.494-0.926
		c-0.418-0.99-0.891-0.4-0.904-1.395c-0.01-0.998-0.148-1.012-0.523-1.24c-0.373-0.229-1.107-1.482-0.809-2.51
		s0.25-1.605-0.148-2.508c-0.4-0.904-0.037-2.334,0.486-3.186c0.521-0.854,1.348-2.801,0.865-4.049s-1.17-2.695-1.279-3.535
		c-0.111-0.834,0.039-2.574,0.49-3.91s0.369-3.479,0.301-4.619c-0.07-1.143,1.457-2.439,0.486-4.207
		c-0.969-1.766-1.879-3.277-1.654-4.238c0.223-0.963,0.496-2.848,0.73-4.904c0.232-2.055,0.545-3.402,0.42-4.871
		c-0.125-1.471,1.805-4.025,1.57-5.195c-0.236-1.17-0.271-3.391-0.271-3.391s0.006-3-0.65-3.844
		c-0.656-0.842-1.773-1.891-1.074-3.15c0.697-1.258,0.785-3.914,0.742-5.041c-0.043-1.125,1.111-3.133,0.486-4.025
		c-0.625-0.896-2.098-2.678-2.799-3.328c-0.701-0.648-0.781-1.357-0.596-1.537c0.182-0.182,0.613-0.285,0.926-0.678
		c0.316-0.395-1.182-0.945-0.859-2.066c0.32-1.123-0.332-2.33-0.734-2.869s0.189-0.91,0.389-2.547
		c0.195-1.639,0.508-4.305,0.814-4.924c0.305-0.619,0.785-1.277,0.252-1.605c-0.535-0.326-0.861-0.746-0.781-1.357
		c0.082-0.611-0.299-1.428-0.467-1.752s-0.455-1.891,0.205-2.367c0.656-0.477,1.254-1.211,1.578-1.742
		c0.328-0.535,0.775-0.188,1.443,0.516c0.67,0.703,1.023,0.48,1.416-0.158c0.393-0.641,0.703-0.67,0.076-1.199
		c-0.627-0.533-0.689-0.789-0.32-1.148c0.365-0.363,2.057-1.088,1.297-1.404c-0.758-0.318-1.061-0.064-0.867-1.338
		c0.195-1.275,0.266-0.791-0.646-1.934c-0.91-1.146-2.088-2.455-1.492-2.234C25.291,4.398,25.699,4.391,25.699,4.391z"/>
	<path clip-path="url(#SVGID_2_)" fill="#AADBE6" stroke="#000000" stroke-width="0.57" stroke-linejoin="round" d="M0.373,159.84
		c0,0,0.5-1.105,0.924-0.951c0.428,0.156,0.482,0.508-0.041,1.439S0.396,161.4,0.396,161.4L0.373,159.84z"/>
	<path clip-path="url(#SVGID_2_)" fill="#CE414A" stroke="#000000" stroke-width="0.57" stroke-linejoin="round" d="M0.373,159.84
		c0,0,0.5-1.105,0.924-0.951c0.428,0.156,0.482,0.508-0.041,1.439S0.396,161.4,0.396,161.4L0.373,159.84z"/>
	<path clip-path="url(#SVGID_2_)" fill="#DA414C" stroke="#000000" stroke-width="0.57" stroke-linejoin="round" d="M84.121,112.84
		c0,0,0.809-1.109,1.787-0.861c0.279,1.209,0.221,2.248-0.828,2.41c-1.047,0.166-1.379,0.619-1.672,1.023
		c-0.295,0.404-0.613,0.947-1.623,1.061c-1.012,0.115-1.895,1.326-1.828,1.764c0.07,0.436-0.178,0.566-0.826,0.713
		c-0.646,0.146-0.703,0.646-1.07,1.15c-0.367,0.508-0.689,0.736-1.281,0.381c-0.594-0.35-0.814-0.049-1.551,0.961
		c-0.734,1.01-1.85,2.752-1.766,3.275c0.082,0.525-0.711,1.186-1.23,1.268c-0.527,0.082-2.1,2.029-2.1,2.029l-0.982-0.561
		c0,0-0.123-0.785,0.871-1.299c0.99-0.516,0.889-0.59,0.854-1.387c-0.037-0.801,0.139-1.68,0.736-1.861
		c0.598-0.186,2.061-1.979,2.139-2.617c0.078-0.641,0.635-1.088,1.131-1.344s2.631-2.336,2.25-2.768
		c-0.383-0.434-0.305-1.072-0.305-1.072s0.609-1.256,1.154-0.627c0.547,0.629,1.369,1.307,2.826,0.896
		C82.264,114.967,84.121,112.84,84.121,112.84z"/>
	<path clip-path="url(#SVGID_2_)" fill="#F5C61D" d="M134.904,39.426c0,0,1.094-2.848,1.525-1.998
		c0.428,0.854,1.779,1.758,1.6,2.527s-0.629,3.648-1.311,4.037c-0.68,0.389-0.986,1.008-1.219,1.746
		c-0.234,0.736-1.369,2.459-1.369,2.459s-1.068-0.289-1.518-0.273c-0.451,0.018-0.471-0.068-0.568-0.863
		c-0.1-0.795-0.809-1.672,0.207-2.367s1.004-1.512,1.621-2.156c0.619-0.648,0.971-0.506,0.832-1.473
		C134.566,40.1,134.904,39.426,134.904,39.426"/>
	<path clip-path="url(#SVGID_2_)" fill="#F5C61D" stroke="#000000" stroke-width="0.57" stroke-linejoin="round" d="M134.904,39.426
		c0,0,1.094-2.848,1.525-1.998c0.428,0.854,1.779,1.758,1.6,2.527s-0.629,3.648-1.311,4.037c-0.68,0.389-0.986,1.008-1.219,1.746
		c-0.234,0.736-1.369,2.459-1.369,2.459s-1.068-0.289-1.518-0.273c-0.451,0.018-0.471-0.068-0.568-0.863
		c-0.1-0.795-0.809-1.672,0.207-2.367s1.004-1.512,1.621-2.156c0.619-0.648,0.971-0.506,0.832-1.473
		C134.566,40.1,134.904,39.426,134.904,39.426z"/>
	<path clip-path="url(#SVGID_2_)" fill="#F5C61D" d="M139.162,34.414c0,0,1.178,1.311,0.758,2.229
		c-0.416,0.916-0.162,2.174-0.756,1.588c-0.594-0.584-1.027-1.072-0.668-1.656C138.855,35.988,139.162,34.414,139.162,34.414"/>
	<path clip-path="url(#SVGID_2_)" fill="#F5C61D" stroke="#000000" stroke-width="0.57" stroke-linejoin="round" d="M139.162,34.414
		c0,0,1.178,1.311,0.758,2.229c-0.416,0.916-0.162,2.174-0.756,1.588c-0.594-0.584-1.027-1.072-0.668-1.656
		C138.855,35.988,139.162,34.414,139.162,34.414z"/>
	<g clip-path="url(#SVGID_2_)">
		<path d="M77.213,122.59c-0.156,0-0.275,0.006-0.516,0.035v-0.402c0.174,0.025,0.313,0.037,0.516,0.037h0.33v-0.594
			c0-0.27-0.006-0.42-0.037-0.588h0.451c-0.025,0.162-0.037,0.318-0.037,0.588v0.594h0.307c0.168,0,0.305-0.012,0.438-0.029v0.389
			c-0.133-0.018-0.281-0.029-0.443-0.029H77.92v1.199c0.27-0.102,0.391-0.156,0.701-0.301v0.361
			c-0.287,0.137-0.377,0.174-0.701,0.311v1.854c0,0.299-0.162,0.42-0.568,0.42c-0.162,0-0.379-0.006-0.576-0.018
			c-0.012-0.15-0.031-0.229-0.084-0.385c0.246,0.029,0.443,0.043,0.629,0.043c0.18,0,0.223-0.031,0.223-0.168v-1.596
			c-0.18,0.066-0.318,0.119-0.48,0.18c-0.119,0.043-0.191,0.072-0.305,0.133l-0.109-0.414c0.277-0.049,0.42-0.09,0.895-0.27v-1.35
			H77.213z M79.318,123.584c-0.043,0.697-0.104,1.123-0.223,1.535c-0.15,0.516-0.354,0.895-0.719,1.309
			c-0.121-0.145-0.182-0.205-0.307-0.295c0.727-0.762,0.906-1.547,0.906-3.928c0-0.4-0.006-0.605-0.025-0.834
			c0.211,0.02,0.367,0.025,0.666,0.025h1.422c0.299,0,0.438-0.006,0.635-0.025c-0.018,0.182-0.023,0.355-0.023,0.648v0.947
			c0,0.318,0.006,0.463,0.023,0.643c-0.18-0.02-0.342-0.025-0.574-0.025h-0.492c0.148,1.17,0.545,1.891,1.391,2.537
			c-0.119,0.107-0.197,0.205-0.287,0.348c-0.883-0.762-1.271-1.518-1.477-2.885H79.318z M81.273,123.242v-1.504h-1.92v0.408
			c0,0.281,0,0.281-0.018,1.096H81.273z"/>
		<path d="M83.17,122.619c-0.148,0-0.305,0.012-0.49,0.037v-0.408c0.162,0.023,0.287,0.035,0.484,0.035h0.348v-0.576
			c0-0.252-0.012-0.443-0.035-0.605h0.449c-0.023,0.145-0.035,0.342-0.035,0.6v0.582H84.1c0.162,0,0.289-0.006,0.426-0.029v0.395
			c-0.143-0.023-0.275-0.029-0.432-0.029h-0.203v1.164c0.305-0.139,0.383-0.174,0.666-0.324v0.371
			c-0.336,0.174-0.445,0.229-0.666,0.33v1.895c0,0.336-0.133,0.426-0.605,0.426c-0.15,0-0.324-0.006-0.48-0.012
			c-0.006-0.156-0.023-0.227-0.084-0.377c0.211,0.023,0.408,0.035,0.576,0.035s0.215-0.035,0.215-0.156v-1.637
			c-0.232,0.102-0.305,0.139-0.426,0.18c-0.154,0.066-0.258,0.109-0.334,0.15l-0.115-0.408c0.199-0.035,0.402-0.107,0.875-0.311
			v-1.326H83.17z M85.324,123.248c-0.24,0-0.396,0.008-0.559,0.025c0.018-0.145,0.023-0.289,0.023-0.48v-1.025
			c0-0.174-0.006-0.287-0.023-0.432c0.18,0.023,0.336,0.029,0.576,0.029h1.697c0.252,0,0.389-0.006,0.557-0.029
			c-0.018,0.127-0.023,0.229-0.023,0.443v1.014c0,0.234,0.006,0.342,0.023,0.48c-0.148-0.018-0.316-0.025-0.545-0.025h-0.678v0.973
			h0.857c0.24,0,0.385-0.012,0.545-0.037v0.408c-0.174-0.029-0.305-0.035-0.539-0.035h-0.863v1.295
			c0.287,0.061,0.533,0.084,0.9,0.084c0.244,0,0.432-0.006,0.791-0.035c-0.066,0.154-0.09,0.244-0.115,0.406
			c-0.275,0.012-0.377,0.02-0.508,0.02c-1.326,0-1.955-0.295-2.406-1.109c-0.191,0.516-0.377,0.838-0.713,1.258
			c-0.107-0.125-0.174-0.18-0.307-0.264c0.313-0.311,0.516-0.652,0.689-1.15c0.139-0.408,0.246-0.936,0.246-1.248
			c0-0.012,0-0.029,0-0.078l0.414,0.072c-0.029,0.096-0.041,0.156-0.066,0.318c-0.041,0.281-0.078,0.449-0.137,0.684
			c0.234,0.479,0.484,0.756,0.84,0.924v-2.484H85.324z M85.162,122.92h2.039v-1.213h-2.039V122.92z"/>
		<path d="M90.412,124.809h-0.516c-0.264,0-0.33,0-0.498,0.012c0.018-0.156,0.023-0.307,0.023-0.539v-2.232
			c0-0.18-0.012-0.322-0.023-0.467c0.139,0.018,0.252,0.023,0.48,0.023h0.672c0.113-0.18,0.197-0.354,0.287-0.6l0.396,0.078
			c-0.109,0.217-0.188,0.359-0.289,0.521h1.469c0.234,0,0.355-0.006,0.492-0.023c-0.018,0.119-0.018,0.186-0.018,0.377v0.996
			c0,0.156,0.006,0.281,0.018,0.408c-0.18-0.012-0.305-0.018-0.467-0.018h-2.645v0.4h3.508c0.24,0,0.408-0.012,0.564-0.035v0.383
			c-0.188-0.018-0.35-0.029-0.576-0.029h-3.496v0.432h3.436c0.211,0,0.342-0.006,0.475-0.023c-0.006,0.053-0.02,0.15-0.043,0.336
			c-0.072,0.701-0.174,1.211-0.281,1.379c-0.115,0.168-0.275,0.229-0.631,0.229c-0.168,0-0.264-0.006-0.455-0.02
			c-0.018-0.168-0.029-0.209-0.09-0.377c0.24,0.035,0.408,0.055,0.588,0.055c0.197,0,0.27-0.043,0.318-0.199
			c0.064-0.215,0.131-0.611,0.18-1.066h-2.508v0.785h1.129v-0.293c0-0.139-0.006-0.223-0.025-0.336h0.402
			c-0.018,0.107-0.023,0.232-0.023,0.359v0.299c0,0.121,0,0.205,0.012,0.313c-0.066,0-0.066,0-0.223-0.006
			c-0.041-0.006-0.156-0.006-0.209-0.006h-2.488v0.275h-0.396c0.023-0.145,0.035-0.313,0.035-0.473l-0.006-0.379
			c0-0.15-0.006-0.234-0.029-0.359h0.414c-0.018,0.107-0.018,0.186-0.018,0.336v0.27h1.055V124.809z M92.512,122.32v-0.408h-2.717
			v0.408H92.512z M89.795,123.045h2.717v-0.432h-2.717V123.045z"/>
	</g>
	<g clip-path="url(#SVGID_2_)">
		<path d="M98.908,108.303c0-0.24,0.008-0.426,0.02-0.697c-0.174,0.24-0.336,0.402-0.619,0.619c-0.076-0.15-0.131-0.229-0.227-0.324
			c0.449-0.313,0.814-0.684,1.121-1.146c0.119-0.18,0.191-0.322,0.264-0.516l0.348,0.223c-0.145,0.24-0.27,0.426-0.521,0.768v2.52
			c0,0.316,0.006,0.479,0.035,0.67h-0.455c0.023-0.174,0.035-0.359,0.035-0.658V108.303z M99.754,105.195
			c-0.316,0.432-0.316,0.432-0.455,0.594c-0.281,0.324-0.527,0.547-0.869,0.779c-0.072-0.113-0.139-0.186-0.252-0.281
			c0.57-0.354,1.025-0.834,1.24-1.313L99.754,105.195z M100.229,107.84c-0.217,0-0.391,0.006-0.553,0.031v-0.385
			c0.15,0.023,0.289,0.029,0.559,0.029h2.662c0.252,0,0.414-0.012,0.559-0.035v0.391c-0.168-0.025-0.336-0.031-0.553-0.031h-0.203
			v0.492h0.229c0.238,0,0.395-0.012,0.551-0.037v0.391c-0.168-0.023-0.324-0.029-0.551-0.029h-0.229v1.246
			c0,0.342-0.133,0.432-0.648,0.432c-0.186,0-0.371-0.006-0.6-0.023c-0.018-0.174-0.035-0.258-0.096-0.402
			c0.295,0.049,0.541,0.072,0.701,0.072c0.229,0,0.271-0.023,0.271-0.143v-1.182h-2.166c-0.221,0-0.377,0.006-0.551,0.029v-0.391
			c0.156,0.025,0.311,0.037,0.551,0.037h2.166v-0.492H100.229z M100.793,107.084c-0.258,0-0.432,0.006-0.564,0.025
			c0.012-0.15,0.018-0.266,0.018-0.564v-0.779c0-0.295-0.006-0.396-0.018-0.547c0.15,0.02,0.299,0.025,0.582,0.025h1.691
			c0.281,0,0.438-0.006,0.574-0.025c-0.018,0.145-0.023,0.295-0.023,0.559v0.773c0,0.27,0.006,0.414,0.023,0.559
			c-0.143-0.02-0.316-0.025-0.557-0.025H100.793z M101.109,109.902c-0.258-0.406-0.443-0.629-0.768-0.93l0.289-0.221
			c0.322,0.305,0.484,0.486,0.791,0.881L101.109,109.902z M100.605,106h2.082v-0.451h-2.082V106z M100.605,106.785h2.082v-0.48
			h-2.082V106.785z"/>
		<path d="M106.133,106.809c0-0.119,0.012-0.348,0.018-0.461c-0.139,0.186-0.234,0.293-0.414,0.467
			c-0.041-0.084-0.102-0.15-0.24-0.246l0.078-0.078c-0.084-0.006-0.174-0.012-0.287-0.012h-0.107v1.309
			c0.174-0.066,0.258-0.104,0.484-0.205l0.025,0.324c-0.24,0.113-0.318,0.15-0.51,0.229v1.799c0,0.322-0.133,0.42-0.57,0.42
			c-0.107,0-0.203,0-0.318-0.014c-0.018-0.148-0.041-0.232-0.09-0.365c0.217,0.023,0.33,0.037,0.449,0.037
			c0.115,0,0.156-0.031,0.156-0.127v-1.607c-0.137,0.055-0.371,0.145-0.426,0.162c-0.09,0.031-0.09,0.031-0.203,0.078l-0.09-0.383
			c0.174-0.025,0.305-0.066,0.719-0.211v-1.445h-0.221c-0.162,0-0.27,0.006-0.426,0.023v-0.383c0.148,0.023,0.246,0.029,0.426,0.029
			h0.221v-0.533c0-0.252-0.012-0.432-0.035-0.617h0.443c-0.023,0.174-0.035,0.359-0.035,0.617v0.533h0.102
			c0.156,0,0.221-0.006,0.348-0.029v0.318c0.438-0.451,0.779-1.031,0.869-1.512l0.385,0.102c-0.037,0.066-0.049,0.09-0.133,0.281
			c-0.055,0.133-0.107,0.24-0.197,0.396h2.41c0.281,0,0.461-0.012,0.588-0.035v0.389c-0.139-0.018-0.27-0.029-0.469-0.029v1.098
			c0.313,0,0.432-0.006,0.57-0.031v0.385c-0.145-0.018-0.305-0.029-0.57-0.029v1.121c0.15,0,0.301-0.012,0.439-0.031v0.379
			c-0.156-0.018-0.324-0.031-0.529-0.031h-2.813c-0.203,0-0.371,0.014-0.527,0.031v-0.379c0.145,0.02,0.283,0.031,0.48,0.031v-1.121
			c-0.252,0-0.385,0.012-0.516,0.029v-0.391c0.131,0.025,0.258,0.037,0.516,0.037V106.809z M105.449,110.197
			c0.342-0.359,0.516-0.643,0.689-1.127l0.313,0.154c-0.217,0.541-0.373,0.811-0.709,1.23L105.449,110.197z M106.463,107.127h0.539
			v-1.098h-0.539V107.127z M106.463,108.572h0.539v-1.121h-0.539V108.572z M106.889,110.371c0.006-0.102,0.006-0.18,0.006-0.229
			c0-0.33-0.025-0.617-0.072-0.93l0.318-0.041c0.07,0.383,0.096,0.695,0.102,1.162L106.889,110.371z M107.871,107.127v-1.098h-0.545
			v1.098H107.871z M107.871,108.572v-1.121h-0.545v1.121H107.871z M107.986,110.348c-0.061-0.463-0.133-0.805-0.24-1.135
			l0.316-0.066c0.133,0.408,0.199,0.672,0.271,1.129L107.986,110.348z M108.746,107.127v-1.098h-0.551v1.098H108.746z
			 M108.746,108.572v-1.121h-0.551v1.121H108.746z M109.25,110.4c-0.221-0.51-0.354-0.768-0.611-1.145l0.295-0.15
			c0.311,0.461,0.414,0.635,0.629,1.086L109.25,110.4z"/>
		<path d="M112.018,108.746h-0.516c-0.264,0-0.328,0-0.496,0.012c0.018-0.156,0.023-0.307,0.023-0.539v-2.232
			c0-0.18-0.012-0.322-0.023-0.467c0.137,0.018,0.252,0.023,0.479,0.023h0.672c0.113-0.18,0.197-0.354,0.287-0.6l0.396,0.078
			c-0.107,0.217-0.186,0.359-0.287,0.521h1.469c0.234,0,0.354-0.006,0.492-0.023c-0.018,0.119-0.018,0.186-0.018,0.377v0.996
			c0,0.156,0.006,0.281,0.018,0.408c-0.18-0.012-0.307-0.018-0.469-0.018H111.4v0.4h3.508c0.24,0,0.408-0.012,0.564-0.035v0.383
			c-0.186-0.018-0.348-0.029-0.576-0.029H111.4v0.432h3.438c0.209,0,0.342-0.006,0.473-0.023c-0.006,0.053-0.018,0.15-0.041,0.336
			c-0.072,0.701-0.174,1.211-0.283,1.379c-0.113,0.168-0.275,0.229-0.629,0.229c-0.168,0-0.264-0.006-0.455-0.02
			c-0.02-0.168-0.031-0.209-0.09-0.377c0.238,0.035,0.406,0.055,0.586,0.055c0.199,0,0.271-0.043,0.318-0.199
			c0.066-0.215,0.133-0.611,0.18-1.066h-2.506v0.785h1.127v-0.293c0-0.139-0.006-0.223-0.023-0.336h0.402
			c-0.02,0.107-0.025,0.232-0.025,0.359v0.299c0,0.121,0,0.205,0.012,0.313c-0.064,0-0.064,0-0.221-0.006
			c-0.043-0.006-0.156-0.006-0.211-0.006h-2.488v0.275h-0.396c0.025-0.145,0.037-0.313,0.037-0.473l-0.006-0.379
			c0-0.15-0.006-0.234-0.031-0.359h0.414c-0.018,0.107-0.018,0.186-0.018,0.336v0.27h1.055V108.746z M114.117,106.258v-0.408H111.4
			v0.408H114.117z M111.4,106.982h2.717v-0.432H111.4V106.982z"/>
	</g>
	<g clip-path="url(#SVGID_2_)">
		<path d="M77.308,135.947c0.168,0,0.3-0.006,0.485-0.029c-0.018,0.137-0.023,0.246-0.023,0.42v0.953c0,0.168,0.006,0.27,0.023,0.42
			c-0.174-0.025-0.323-0.031-0.485-0.031h-3.244v1.219c0,0.191,0.065,0.252,0.3,0.275c0.24,0.029,0.75,0.041,1.481,0.041
			c0.533,0,1.187-0.018,1.391-0.041c0.313-0.037,0.384-0.084,0.438-0.301c0.035-0.143,0.054-0.359,0.065-0.658
			c0.138,0.078,0.204,0.102,0.402,0.154c-0.066,0.793-0.156,1.002-0.462,1.092c-0.264,0.084-0.768,0.115-1.758,0.115
			c-0.917,0-1.499-0.025-1.774-0.066c-0.366-0.061-0.468-0.174-0.468-0.504v-2.807c-0.162,0.139-0.27,0.217-0.552,0.414
			c-0.066-0.113-0.138-0.197-0.252-0.287c0.666-0.414,1.169-0.883,1.589-1.494c0.162-0.246,0.223-0.354,0.282-0.539l0.426,0.119
			c-0.036,0.049-0.048,0.061-0.09,0.133c-0.054,0.084-0.061,0.096-0.18,0.27H76c0.306,0,0.438-0.006,0.528-0.031L76.78,135
			c-0.036,0.041-0.078,0.09-0.252,0.318c-0.216,0.281-0.336,0.426-0.528,0.629H77.308z M75.551,135.947
			c0.264-0.258,0.479-0.516,0.678-0.809h-1.548c-0.233,0.311-0.39,0.49-0.726,0.809H75.551z M75.473,136.283h-1.409v1.055h1.409
			V136.283z M75.845,137.338h1.547v-1.055h-1.547V137.338z"/>
		<path d="M80.142,137.189c-0.09,1.234-0.306,1.805-0.983,2.584c-0.108-0.119-0.192-0.191-0.33-0.27
			c0.414-0.438,0.605-0.773,0.75-1.314c0.077-0.281,0.132-0.623,0.155-1h-0.294c-0.228,0-0.396,0.012-0.581,0.035v-0.432
			c0.18,0.023,0.342,0.035,0.594,0.035h0.306c0.006-0.342,0.012-0.605,0.012-0.779c0.012-0.42,0.018-0.695,0.018-0.82
			c0-0.277-0.006-0.469-0.023-0.66c0.191,0.018,0.365,0.023,0.647,0.023h2.482c0.294,0,0.456-0.006,0.642-0.023
			c-0.018,0.162-0.023,0.324-0.023,0.588v1.672h0.3c0.264,0,0.438-0.012,0.594-0.035v0.432c-0.174-0.023-0.342-0.035-0.588-0.035
			h-0.306v1.936c0,0.391-0.108,0.469-0.66,0.469c-0.216,0-0.468-0.012-0.726-0.037c-0.018-0.154-0.042-0.252-0.102-0.406
			c0.359,0.053,0.605,0.078,0.846,0.078c0.216,0,0.252-0.025,0.252-0.174v-1.865H80.142z M83.122,134.945h-2.944v0.762l-0.024,1.121
			h2.969V134.945z M81.971,136.607c-0.336-0.492-0.618-0.811-1.074-1.205l0.3-0.217c0.492,0.443,0.726,0.701,1.08,1.176
			L81.971,136.607z"/>
		<path d="M86.729,138.094h-0.516c-0.264,0-0.329,0-0.497,0.012c0.018-0.154,0.023-0.305,0.023-0.539v-2.23
			c0-0.18-0.012-0.324-0.023-0.469c0.138,0.02,0.252,0.025,0.479,0.025h0.672c0.113-0.18,0.197-0.354,0.287-0.6l0.396,0.078
			c-0.108,0.215-0.187,0.359-0.288,0.521h1.469c0.234,0,0.354-0.006,0.492-0.025c-0.018,0.121-0.018,0.188-0.018,0.379v0.996
			c0,0.154,0.006,0.281,0.018,0.406c-0.18-0.012-0.306-0.018-0.468-0.018h-2.645v0.402h3.508c0.24,0,0.408-0.012,0.564-0.037v0.385
			c-0.187-0.018-0.349-0.029-0.576-0.029h-3.496v0.432h3.437c0.21,0,0.342-0.006,0.474-0.025c-0.006,0.055-0.019,0.15-0.042,0.336
			c-0.072,0.701-0.174,1.211-0.282,1.379c-0.114,0.168-0.275,0.229-0.63,0.229c-0.168,0-0.264-0.006-0.455-0.018
			c-0.019-0.168-0.03-0.211-0.09-0.379c0.239,0.037,0.407,0.055,0.587,0.055c0.198,0,0.271-0.041,0.318-0.197
			c0.065-0.217,0.132-0.611,0.18-1.068h-2.507v0.785h1.128v-0.293c0-0.139-0.006-0.223-0.024-0.336h0.402
			c-0.019,0.107-0.024,0.234-0.024,0.359v0.301c0,0.119,0,0.203,0.012,0.311c-0.065,0-0.065,0-0.222-0.006
			c-0.042-0.006-0.156-0.006-0.21-0.006h-2.488v0.277h-0.396c0.024-0.145,0.036-0.313,0.036-0.475l-0.006-0.377
			c0-0.15-0.006-0.234-0.03-0.361h0.414c-0.018,0.109-0.018,0.188-0.018,0.336v0.27h1.055V138.094z M88.828,135.605v-0.408h-2.717
			v0.408H88.828z M86.111,136.332h2.717V135.9h-2.717V136.332z"/>
	</g>
	<g clip-path="url(#SVGID_2_)">
		<path d="M72.686,143.641c0-0.217-0.012-0.367-0.035-0.51h0.438c-0.023,0.137-0.037,0.275-0.037,0.516h1.309
			c0.24,0,0.432-0.012,0.588-0.037v0.379c-0.15-0.023-0.313-0.031-0.588-0.031h-1.309v0.553h1.842c0.275,0,0.432-0.012,0.605-0.035
			v0.406c-0.174-0.023-0.342-0.035-0.605-0.035h-4.061c-0.281,0-0.455,0.012-0.635,0.035v-0.406
			c0.186,0.023,0.348,0.035,0.641,0.035h0.42v-0.545c0-0.211-0.012-0.342-0.035-0.498h0.443c-0.029,0.148-0.035,0.275-0.035,0.504
			v0.539h1.055V143.641z M70.916,145.061c-0.018,0.156-0.023,0.324-0.023,0.594v2.328h3.867v-2.328c0-0.252-0.006-0.432-0.023-0.594
			h0.432c-0.023,0.15-0.029,0.307-0.029,0.6v2.227c0,0.354,0.006,0.508,0.035,0.707H74.76v-0.281h-3.867v0.281h-0.408
			c0.031-0.205,0.037-0.365,0.037-0.707v-2.227c0-0.287-0.006-0.443-0.031-0.6H70.916z M71.643,146.398
			c-0.197,0-0.33,0.006-0.486,0.029v-0.365c0.139,0.023,0.275,0.029,0.492,0.029h0.971v-0.611c0-0.209-0.006-0.342-0.023-0.455
			h0.391c-0.02,0.113-0.025,0.246-0.025,0.455v0.611h1.074c0.209,0,0.371-0.012,0.498-0.029v0.365
			c-0.15-0.018-0.295-0.029-0.486-0.029h-0.906c0.361,0.426,0.871,0.779,1.439,0.996c-0.102,0.102-0.156,0.18-0.215,0.287
			c-0.486-0.24-0.738-0.408-1.043-0.695c-0.182-0.168-0.277-0.27-0.385-0.438c0.018,0.281,0.023,0.395,0.023,0.498v0.305
			c0,0.205,0.006,0.318,0.031,0.457H72.59c0.023-0.139,0.029-0.258,0.029-0.457v-0.299c0-0.133,0.006-0.205,0.025-0.498
			c-0.283,0.426-0.768,0.834-1.32,1.121c-0.072-0.119-0.131-0.18-0.246-0.275c0.576-0.252,1.057-0.605,1.361-1.002H71.643z
			 M71.941,145.996c-0.168-0.316-0.316-0.527-0.568-0.773l0.287-0.148c0.24,0.275,0.391,0.484,0.559,0.754L71.941,145.996z
			 M74.238,145.234c-0.221,0.336-0.359,0.504-0.635,0.775l-0.246-0.176c0.27-0.264,0.414-0.455,0.588-0.779L74.238,145.234z"/>
		<path d="M77.193,146.932c0.281,0.174,0.406,0.27,0.594,0.451c0.221-0.229,0.316-0.367,0.51-0.721h-1.033
			c-0.287,0.33-0.502,0.516-0.947,0.791c-0.072-0.125-0.125-0.197-0.221-0.275c0.473-0.252,0.826-0.551,1.072-0.904
			c0.102-0.145,0.18-0.277,0.205-0.361l0.342,0.139c-0.037,0.055-0.055,0.072-0.084,0.119c-0.084,0.127-0.084,0.127-0.133,0.193
			h0.654c0.18,0,0.293-0.006,0.371-0.02l0.229,0.223c-0.018,0.023-0.023,0.029-0.043,0.066c-0.354,0.605-0.605,0.93-0.982,1.266
			c-0.348,0.305-0.727,0.521-1.266,0.736c-0.066-0.156-0.113-0.227-0.223-0.33c0.559-0.174,0.918-0.365,1.32-0.707
			c-0.174-0.191-0.307-0.299-0.564-0.449L77.193,146.932z M77.139,144.029c-0.186,0.199-0.295,0.283-0.527,0.457
			c-0.072-0.115-0.127-0.162-0.229-0.246c0.527-0.33,0.965-0.799,1.127-1.188l0.361,0.125c-0.037,0.049-0.084,0.109-0.188,0.246
			c-0.059,0.084-0.107,0.139-0.18,0.229h3.102c0.305,0,0.479-0.012,0.635-0.037v0.379c-0.168-0.023-0.342-0.029-0.623-0.029h-0.072
			v0.635h0.324c0.33,0,0.498-0.012,0.641-0.035v0.377c-0.143-0.023-0.336-0.029-0.641-0.029h-0.324v0.678h0.186
			c0.252,0,0.455-0.014,0.637-0.031v0.379c-0.188-0.025-0.379-0.037-0.631-0.037h-3.705c-0.24,0-0.426,0.012-0.613,0.037v-0.379
			c0.193,0.018,0.396,0.031,0.631,0.031h0.09v-0.678h-0.33c-0.307,0-0.461,0.006-0.635,0.029v-0.377
			c0.154,0.023,0.322,0.035,0.635,0.035h0.33V144.029z M77.475,144.6h0.678v-0.635h-0.678V144.6z M77.475,145.59h0.678v-0.678
			h-0.678V145.59z M79.105,146.74c-0.15,0.006-0.15,0.006-0.313,0.018v-0.348c0.133,0.018,0.246,0.023,0.463,0.023h0.91
			c0-0.203-0.006-0.299-0.029-0.395h0.402c-0.023,0.107-0.031,0.203-0.031,0.395h0.35c0.203,0,0.316-0.006,0.461-0.023v0.348
			c-0.133-0.012-0.287-0.018-0.455-0.018h-0.355v0.805h0.486c0.246,0,0.385-0.008,0.521-0.025v0.367
			c-0.156-0.02-0.293-0.025-0.521-0.025h-0.486v0.301c0,0.186,0.014,0.324,0.037,0.461h-0.414c0.023-0.145,0.035-0.275,0.035-0.461
			v-0.301h-1.217c-0.229,0-0.365,0.006-0.533,0.025v-0.367c0.162,0.018,0.275,0.025,0.533,0.025h0.156V146.74z M79.172,144.6v-0.635
			h-0.695v0.635H79.172z M79.172,145.59v-0.678h-0.695v0.678H79.172z M79.441,147.545h0.725v-0.805h-0.725V147.545z M80.209,144.6
			v-0.635h-0.713v0.635H80.209z M80.209,145.59v-0.678h-0.713v0.678H80.209z"/>
		<path d="M82.131,144.156c0.133,0.023,0.246,0.029,0.48,0.029h1.037c0.246,0,0.354-0.006,0.48-0.029v0.383
			c-0.145-0.012-0.246-0.018-0.434-0.018h-1.084c-0.217,0-0.318,0.006-0.48,0.023V144.156z M82.348,143.328
			c0.137,0.023,0.227,0.029,0.432,0.029h0.803c0.205,0,0.295-0.006,0.432-0.029v0.379c-0.119-0.02-0.258-0.025-0.432-0.025h-0.803
			c-0.18,0-0.301,0.006-0.432,0.025V143.328z M82.365,144.996c0.113,0.018,0.209,0.023,0.408,0.023h0.82
			c0.199,0,0.289-0.006,0.402-0.023v0.365c-0.133-0.018-0.223-0.023-0.402-0.023h-0.82c-0.199,0-0.301,0.006-0.408,0.023V144.996z
			 M82.365,145.822c0.119,0.02,0.203,0.025,0.408,0.025h0.82c0.205,0,0.289-0.006,0.402-0.025v0.367
			c-0.119-0.02-0.223-0.025-0.402-0.025h-0.82c-0.188,0-0.289,0.006-0.408,0.025V145.822z M82.383,148.521
			c0.018-0.168,0.029-0.371,0.029-0.582v-0.797c0-0.199-0.006-0.342-0.023-0.492c0.156,0.018,0.252,0.023,0.486,0.023h0.695
			c0.223,0,0.336-0.006,0.438-0.018c-0.012,0.102-0.018,0.246-0.018,0.475v0.82c0,0.211,0.006,0.336,0.029,0.492h-0.371v-0.24
			h-0.895v0.318H82.383z M82.754,147.893h0.895v-0.906h-0.895V147.893z M84.662,145.318c-0.211,0-0.33,0.006-0.498,0.025v-0.391
			c0.139,0.023,0.27,0.029,0.516,0.029h0.701v-0.779h-0.479c-0.182,0-0.318,0.006-0.457,0.025v-0.373
			c0.127,0.018,0.252,0.025,0.451,0.025h0.484v-0.277c0-0.227-0.012-0.354-0.035-0.484h0.426c-0.031,0.137-0.037,0.238-0.037,0.484
			v0.277h0.361c0.186,0,0.316-0.008,0.42-0.025v0.373c-0.127-0.02-0.246-0.025-0.402-0.025h-0.379v0.779h0.252
			c0.246-0.258,0.391-0.426,0.625-0.742l0.064-0.084c0.246-0.359,0.391-0.617,0.469-0.84l0.377,0.215
			c-0.035,0.037-0.113,0.15-0.27,0.396c-0.191,0.295-0.527,0.721-0.834,1.055h0.654c0.252,0,0.365-0.006,0.51-0.029v0.396
			c-0.156-0.025-0.27-0.031-0.516-0.031H86.09c-0.277,0.258-0.523,0.469-0.768,0.643h1.301c0.203,0,0.33-0.006,0.557-0.023
			c-0.018,0.168-0.023,0.281-0.023,0.484v1.59c0,0.234,0.012,0.414,0.035,0.6h-0.395v-0.318h-1.703v0.318h-0.385
			c0.025-0.18,0.037-0.359,0.037-0.594v-1.666c-0.264,0.186-0.42,0.287-0.611,0.395c-0.115-0.174-0.127-0.191-0.223-0.287
			c0.611-0.283,1.193-0.66,1.727-1.141H84.662z M85.1,146.943h1.703v-0.67H85.1V146.943z M85.1,147.969h1.703v-0.713H85.1V147.969z"
			/>
		<path d="M89.953,146.926h-0.516c-0.264,0-0.328,0-0.496,0.012c0.018-0.154,0.023-0.305,0.023-0.539v-2.23
			c0-0.18-0.012-0.324-0.023-0.469c0.137,0.02,0.252,0.025,0.479,0.025h0.672c0.113-0.18,0.197-0.354,0.287-0.6l0.396,0.078
			c-0.107,0.215-0.186,0.359-0.287,0.521h1.469c0.234,0,0.354-0.006,0.492-0.025c-0.018,0.121-0.018,0.188-0.018,0.379v0.996
			c0,0.154,0.006,0.281,0.018,0.406c-0.18-0.012-0.307-0.018-0.469-0.018h-2.645v0.402h3.508c0.24,0,0.408-0.012,0.564-0.037v0.385
			c-0.186-0.018-0.348-0.029-0.576-0.029h-3.496v0.432h3.438c0.209,0,0.342-0.006,0.473-0.025c-0.006,0.055-0.018,0.15-0.041,0.336
			c-0.072,0.701-0.174,1.211-0.283,1.379c-0.113,0.168-0.275,0.229-0.629,0.229c-0.168,0-0.264-0.006-0.455-0.018
			c-0.02-0.168-0.031-0.211-0.09-0.379c0.238,0.037,0.406,0.055,0.586,0.055c0.199,0,0.271-0.041,0.318-0.197
			c0.066-0.217,0.133-0.611,0.18-1.068h-2.506v0.785h1.127v-0.293c0-0.139-0.006-0.223-0.023-0.336h0.402
			c-0.02,0.107-0.025,0.234-0.025,0.359v0.301c0,0.119,0,0.203,0.012,0.311c-0.064,0-0.064,0-0.221-0.006
			c-0.043-0.006-0.156-0.006-0.211-0.006h-2.488v0.277h-0.396c0.025-0.145,0.037-0.313,0.037-0.475l-0.006-0.377
			c0-0.15-0.006-0.234-0.031-0.361h0.414c-0.018,0.109-0.018,0.188-0.018,0.336v0.27h1.055V146.926z M92.053,144.438v-0.408h-2.717
			v0.408H92.053z M89.336,145.164h2.717v-0.432h-2.717V145.164z"/>
	</g>
	<g clip-path="url(#SVGID_2_)">
		<path d="M44.33,125.188c0-0.287-0.012-0.498-0.035-0.738c0.197,0.025,0.377,0.031,0.701,0.031h3.586
			c0.318,0,0.492-0.006,0.715-0.031c-0.025,0.223-0.037,0.426-0.037,0.738v3.652c0,0.438,0.012,0.66,0.037,0.822h-0.42v-0.367
			h-4.162v0.367h-0.42c0.023-0.162,0.035-0.379,0.035-0.822V125.188z M44.715,128.953h4.162v-4.131h-4.162V128.953z M45.74,125.709
			c-0.258,0-0.402,0.006-0.564,0.031v-0.385c0.168,0.029,0.301,0.037,0.564,0.037h2.117c0.27,0,0.432-0.014,0.588-0.037v0.385
			c-0.168-0.025-0.313-0.031-0.582-0.031h-0.924v0.93h0.738c0.27,0,0.389-0.006,0.539-0.029v0.377
			c-0.15-0.023-0.287-0.029-0.539-0.029h-0.738v1.098h1.008c0.246,0,0.42-0.012,0.588-0.037v0.396
			c-0.174-0.023-0.354-0.035-0.588-0.035h-2.285c-0.246,0-0.414,0.012-0.594,0.035v-0.396c0.168,0.025,0.342,0.037,0.594,0.037
			h0.906v-1.098h-0.643c-0.252,0-0.395,0.006-0.545,0.029v-0.377c0.15,0.023,0.27,0.029,0.545,0.029h0.643v-0.93H45.74z
			 M47.666,127.064c0.244,0.246,0.342,0.379,0.563,0.715l-0.281,0.18c-0.211-0.367-0.307-0.498-0.533-0.744L47.666,127.064z"/>
		<path d="M50.764,127.617c0.006-0.205,0.006-0.342,0.006-0.426c0-0.043,0-0.043,0.006-0.379c-0.18,0.234-0.318,0.379-0.594,0.594
			c-0.072-0.15-0.104-0.203-0.223-0.33c0.42-0.293,0.75-0.623,1.049-1.049c0.18-0.252,0.289-0.438,0.355-0.611l0.342,0.209
			c-0.066,0.084-0.098,0.133-0.174,0.264c-0.078,0.139-0.229,0.342-0.396,0.547v2.477c0,0.311,0.012,0.533,0.029,0.713h-0.438
			c0.023-0.168,0.037-0.383,0.037-0.695V127.617z M51.645,124.385c-0.049,0.059-0.049,0.059-0.139,0.18
			c-0.336,0.473-0.725,0.852-1.193,1.176c-0.078-0.139-0.131-0.205-0.24-0.295c0.564-0.342,1.025-0.828,1.236-1.283L51.645,124.385z
			 M53.551,124.373c-0.047,0.064-0.066,0.084-0.15,0.215c-0.191,0.27-0.418,0.553-0.664,0.811c0.246,0.209,0.336,0.293,0.539,0.484
			c0.521-0.557,0.828-0.947,0.959-1.217l0.379,0.223c-0.061,0.064-0.096,0.107-0.24,0.281c-0.396,0.486-0.756,0.863-1.289,1.361
			c0.832-0.049,0.832-0.049,1.6-0.121c-0.148-0.186-0.238-0.281-0.467-0.516l0.281-0.191c0.408,0.432,0.643,0.715,1.037,1.248
			l-0.311,0.215c-0.162-0.238-0.211-0.311-0.33-0.479c-1.025,0.113-1.025,0.113-1.686,0.156c-0.113,0.215-0.15,0.27-0.287,0.467
			h1.139c0.217,0,0.396-0.012,0.492-0.029l0.246,0.227c-0.055,0.061-0.055,0.061-0.139,0.18c-0.203,0.295-0.539,0.637-0.869,0.895
			c0.516,0.313,1.127,0.533,1.764,0.641c-0.096,0.15-0.096,0.156-0.199,0.379c-0.563-0.139-0.846-0.24-1.348-0.492
			c-0.246-0.119-0.373-0.197-0.529-0.305c-0.635,0.418-1.127,0.629-1.906,0.814c-0.066-0.15-0.096-0.191-0.229-0.348
			c0.709-0.125,1.26-0.336,1.842-0.689c-0.318-0.281-0.492-0.461-0.689-0.75c-0.234,0.246-0.48,0.443-0.822,0.66
			c-0.072-0.102-0.156-0.191-0.27-0.287c0.666-0.361,1.127-0.793,1.41-1.332c-0.043,0-0.355,0.018-0.941,0.047
			c-0.176,0.014-0.188,0.014-0.289,0.031l-0.066-0.402c0.109,0.018,0.246,0.023,0.432,0.023c0.109,0,0.109,0,0.643-0.018
			c0.324-0.305,0.324-0.305,0.432-0.414c-0.414-0.395-0.643-0.58-1.199-0.982l0.258-0.275c0.229,0.174,0.299,0.232,0.396,0.305
			c0.336-0.359,0.635-0.779,0.713-1.002L53.551,124.373z M52.742,127.617c0.232,0.316,0.438,0.527,0.742,0.762
			c0.336-0.246,0.559-0.469,0.762-0.762H52.742z"/>
		<path d="M57.914,127.971h-0.516c-0.264,0-0.33,0-0.498,0.012c0.018-0.156,0.023-0.307,0.023-0.539v-2.232
			c0-0.18-0.012-0.322-0.023-0.467c0.139,0.018,0.252,0.023,0.48,0.023h0.672c0.113-0.18,0.197-0.354,0.287-0.6l0.396,0.078
			c-0.109,0.217-0.188,0.359-0.289,0.521h1.469c0.234,0,0.355-0.006,0.492-0.023c-0.018,0.119-0.018,0.186-0.018,0.377v0.996
			c0,0.156,0.006,0.281,0.018,0.408c-0.18-0.012-0.305-0.018-0.467-0.018h-2.645v0.4h3.508c0.24,0,0.408-0.012,0.564-0.035v0.383
			c-0.188-0.018-0.35-0.029-0.576-0.029h-3.496v0.432h3.436c0.211,0,0.342-0.006,0.475-0.023c-0.006,0.053-0.02,0.15-0.043,0.336
			c-0.072,0.701-0.174,1.211-0.281,1.379c-0.115,0.168-0.275,0.229-0.631,0.229c-0.168,0-0.264-0.006-0.455-0.02
			c-0.018-0.168-0.029-0.209-0.09-0.377c0.24,0.035,0.408,0.055,0.588,0.055c0.197,0,0.27-0.043,0.318-0.199
			c0.064-0.215,0.131-0.611,0.18-1.066h-2.508v0.785h1.129v-0.293c0-0.139-0.006-0.223-0.025-0.336h0.402
			c-0.018,0.107-0.023,0.232-0.023,0.359v0.299c0,0.121,0,0.205,0.012,0.313c-0.066,0-0.066,0-0.223-0.006
			c-0.041-0.006-0.156-0.006-0.209-0.006h-2.488v0.275h-0.396c0.023-0.145,0.035-0.313,0.035-0.473l-0.006-0.379
			c0-0.15-0.006-0.234-0.029-0.359h0.414c-0.018,0.107-0.018,0.186-0.018,0.336v0.27h1.055V127.971z M60.014,125.482v-0.408h-2.717
			v0.408H60.014z M57.297,126.207h2.717v-0.432h-2.717V126.207z"/>
	</g>
	<g clip-path="url(#SVGID_2_)">
		<path d="M38.085,78.395c-0.078,0.09-0.132,0.168-0.203,0.295c-0.181-0.336-0.271-0.564-0.384-1.025
			c0.012,0.264,0.029,0.768,0.029,0.953v1.84c0,0.324,0.012,0.535,0.036,0.697h-0.426c0.024-0.168,0.036-0.391,0.036-0.697v-1.689
			c0-0.271,0.012-0.654,0.036-0.955c-0.162,0.727-0.384,1.309-0.672,1.775c-0.078-0.168-0.12-0.227-0.222-0.342
			c0.336-0.455,0.605-1.15,0.81-2.051H36.91c-0.187,0-0.306,0.006-0.42,0.023v-0.371c0.102,0.018,0.228,0.023,0.42,0.023h0.264
			v-0.574c0-0.342-0.006-0.475-0.03-0.619h0.414c-0.024,0.15-0.03,0.318-0.03,0.613v0.58h0.132c0.181,0,0.276-0.006,0.39-0.023
			v0.365c-0.119-0.012-0.239-0.018-0.384-0.018h-0.119c0.132,0.475,0.275,0.785,0.533,1.188v-0.359
			c0.145,0.018,0.258,0.023,0.54,0.023v-0.6c-0.24,0-0.33,0.006-0.468,0.023v-0.359c0.144,0.023,0.258,0.031,0.569,0.031h2.398
			c0.33,0,0.444-0.008,0.594-0.031v0.365c-0.149-0.018-0.264-0.029-0.485-0.029v0.6h0.138c0.313,0,0.444-0.006,0.576-0.029v0.365
			c-0.108-0.012-0.222-0.018-0.576-0.018h-0.138v0.689c0.306,0,0.401-0.006,0.527-0.029v0.365c-0.174-0.023-0.336-0.029-0.605-0.029
			H40.07V79.9h1.14c0.293,0,0.468-0.012,0.623-0.037v0.396c-0.174-0.023-0.342-0.035-0.623-0.035h-1.14V80.5
			c0,0.275,0.012,0.461,0.036,0.654h-0.42c0.03-0.211,0.036-0.373,0.036-0.648v-0.281h-1.109c-0.3,0-0.462,0.006-0.624,0.029v-0.383
			c0.132,0.023,0.306,0.029,0.624,0.029h1.109v-0.539h-1.031c-0.21,0-0.385,0.012-0.546,0.029v-0.365
			c0.149,0.023,0.228,0.023,0.474,0.029v-0.689h-0.03c-0.233,0-0.359,0.006-0.51,0.023L38.085,78.395z M39.387,76.645
			c0,0.148,0.006,0.258,0.023,0.342h-0.401c0.018-0.115,0.024-0.186,0.024-0.336v-0.115h-0.426c-0.234,0-0.391,0.008-0.564,0.031
			v-0.379c0.139,0.025,0.264,0.031,0.564,0.031h0.426v-0.121c0-0.18-0.007-0.281-0.03-0.395h0.414c-0.019,0.113-0.03,0.215-0.03,0.4
			v0.115h1.067v-0.121c0-0.174-0.006-0.281-0.03-0.395h0.414c-0.024,0.113-0.03,0.215-0.03,0.4v0.115h0.468
			c0.294,0,0.45-0.006,0.618-0.037v0.391c-0.181-0.029-0.336-0.037-0.612-0.037h-0.474v0.109c0,0.156,0.006,0.252,0.024,0.342H40.43
			c0.019-0.09,0.024-0.199,0.024-0.336v-0.115h-1.067V76.645z M39.723,78.047v-0.6h-0.762v0.6H39.723z M38.961,79.055h0.762v-0.689
			h-0.762V79.055z M40.886,78.047v-0.6H40.07v0.6H40.886z M40.07,79.055h0.815v-0.689H40.07V79.055z"/>
		<path d="M45.393,77.363c0.228,0.744,0.432,1.176,0.779,1.709c0.229,0.336,0.504,0.643,0.863,0.947
			c0.313,0.27,0.51,0.408,0.948,0.654c-0.114,0.139-0.156,0.209-0.252,0.396c-0.918-0.613-1.415-1.092-1.865-1.787
			c-0.312-0.492-0.498-0.895-0.695-1.518c-0.145,0.629-0.336,1.109-0.63,1.57c-0.438,0.684-0.924,1.135-1.835,1.686
			c-0.078-0.156-0.126-0.234-0.252-0.359c1.428-0.75,2.159-1.758,2.398-3.299h-1.625c-0.323,0-0.479,0.012-0.659,0.043v-0.451
			c0.155,0.031,0.348,0.043,0.678,0.043h1.648c0.024-0.252,0.03-0.42,0.03-0.648c0-0.275-0.012-0.484-0.042-0.652h0.479
			c-0.029,0.203-0.036,0.322-0.042,0.623c0,0.258-0.012,0.408-0.029,0.678h1.847c0.306,0,0.504-0.012,0.659-0.043v0.451
			c-0.186-0.031-0.359-0.043-0.653-0.043H45.393z M45.459,80.723c-0.33-0.51-0.51-0.738-0.9-1.146l0.313-0.203
			c0.354,0.348,0.605,0.646,0.923,1.104L45.459,80.723z"/>
	</g>
	<g clip-path="url(#SVGID_2_)">
		<path d="M4.021,113.291c-0.383,0.664-0.689,1.031-1.277,1.51c-0.125-0.162-0.18-0.209-0.299-0.299
			c0.293-0.205,0.473-0.365,0.707-0.631c0.221-0.25,0.348-0.438,0.527-0.779L4.021,113.291z M3.092,112.75
			c-0.258,0-0.438,0.012-0.617,0.037v-0.414c0.168,0.023,0.348,0.035,0.611,0.035h3.928c0.27,0,0.443-0.012,0.611-0.035v0.414
			c-0.174-0.025-0.359-0.037-0.611-0.037H5.281v1.871c0,0.342-0.127,0.432-0.611,0.432c-0.211,0-0.414-0.006-0.631-0.018
			c-0.018-0.174-0.035-0.252-0.102-0.396c0.252,0.037,0.475,0.055,0.684,0.055c0.223,0,0.264-0.023,0.264-0.156v-1.787H3.092z
			 M4.824,110.088c0-0.131-0.012-0.24-0.041-0.371h0.48c-0.031,0.125-0.043,0.227-0.043,0.371v0.24h1.738
			c0.277,0,0.42-0.006,0.607-0.023c-0.02,0.125-0.025,0.227-0.025,0.406v0.355c0,0.186,0.006,0.299,0.025,0.418H7.17v-0.814H2.936
			v0.814H2.541c0.018-0.131,0.023-0.238,0.023-0.418v-0.355c0-0.168-0.006-0.281-0.023-0.406c0.186,0.018,0.33,0.023,0.605,0.023
			h1.678V110.088z M3.35,111.33c0.139,0.023,0.275,0.029,0.527,0.029h2.334c0.258,0,0.389-0.006,0.527-0.029v0.4
			c-0.156-0.023-0.275-0.029-0.527-0.029H3.877c-0.246,0-0.371,0.006-0.527,0.029V111.33z M6.373,113.063
			c0.154,0.27,0.322,0.492,0.586,0.768c0.217,0.223,0.385,0.365,0.709,0.6c-0.115,0.09-0.211,0.191-0.313,0.318
			c-0.605-0.498-0.924-0.863-1.301-1.488L6.373,113.063z"/>
		<path d="M11.264,110.91c0.293,0.498,0.563,0.809,1.043,1.217c0.492,0.42,0.898,0.666,1.57,0.953
			c-0.084,0.096-0.18,0.24-0.24,0.354c-0.432-0.215-0.617-0.322-0.916-0.527c-0.006,0.066-0.006,0.133-0.006,0.318v1.289
			c0,0.264,0.012,0.438,0.035,0.611h-0.42v-0.336H9.824v0.336h-0.42c0.023-0.168,0.035-0.359,0.035-0.611v-1.271
			c0-0.15,0-0.186,0-0.305c-0.252,0.18-0.42,0.281-0.887,0.527c-0.078-0.145-0.127-0.217-0.234-0.33
			c0.637-0.289,1.02-0.527,1.475-0.924c0.486-0.42,0.75-0.744,1.051-1.301H11.264z M10.561,109.98
			c-0.33,0.486-0.574,0.756-0.971,1.066c-0.252,0.205-0.293,0.229-0.779,0.521c-0.121-0.166-0.162-0.215-0.281-0.316
			c0.443-0.234,0.707-0.408,0.965-0.625c0.324-0.27,0.498-0.479,0.725-0.875L10.561,109.98z M12.252,112.738
			c0.078,0,0.096,0,0.229,0c-0.289-0.215-0.521-0.426-0.762-0.672c-0.258-0.264-0.391-0.432-0.648-0.84
			c-0.406,0.654-0.695,0.973-1.367,1.512c0.109,0,0.127,0,0.193,0H12.252z M9.824,114.447h2.506v-1.367H9.824V114.447z
			 M11.91,109.74c0.342,0.461,0.582,0.707,0.996,1.014c0.215,0.156,0.389,0.264,0.756,0.455c-0.078,0.078-0.174,0.217-0.252,0.348
			c-0.773-0.449-1.199-0.832-1.811-1.6L11.91,109.74z"/>
		<path d="M14.492,111.299c0.414,0.264,0.605,0.408,0.979,0.756l-0.258,0.289c-0.307-0.33-0.51-0.498-0.955-0.775L14.492,111.299z
			 M15.529,113.236c-0.215,0.66-0.461,1.26-0.695,1.686c-0.066,0.125-0.066,0.125-0.102,0.197l-0.342-0.27
			c0.229-0.24,0.564-1.002,0.828-1.865L15.529,113.236z M14.871,109.807c0.365,0.275,0.6,0.484,0.881,0.785l-0.275,0.281
			c-0.336-0.395-0.516-0.563-0.877-0.809L14.871,109.807z M18.936,110.322c0.432,0,0.605-0.006,0.779-0.037v0.402
			c-0.137-0.018-0.336-0.023-0.756-0.023h-2.361c-0.27,0.479-0.432,0.701-0.779,1.092c-0.084-0.115-0.174-0.199-0.295-0.277
			c0.391-0.348,0.648-0.719,0.912-1.313c0.09-0.203,0.145-0.371,0.162-0.516l0.42,0.084c-0.031,0.066-0.031,0.066-0.09,0.234
			c-0.043,0.113-0.078,0.197-0.156,0.354H18.936z M16.303,114.285c-0.035,0.133-0.053,0.193-0.107,0.391l-0.408-0.055
			c0.174-0.461,0.307-1.02,0.42-1.75h-0.035c-0.246,0-0.379,0.006-0.553,0.035v-0.408c0.145,0.025,0.301,0.037,0.576,0.037h0.061
			c0.066-0.521,0.102-0.9,0.102-1.104c0-0.012,0-0.072-0.006-0.174c0.072,0.006,0.246,0.012,0.426,0.012h1.906
			c0.307,0,0.42-0.006,0.625-0.023c-0.031,0.156-0.031,0.209-0.055,0.904c-0.006,0.121-0.006,0.199-0.018,0.385h0.041
			c0.275,0,0.408-0.006,0.559-0.037v0.408c-0.18-0.023-0.354-0.035-0.559-0.035h-0.066c-0.006,0.059-0.006,0.059-0.012,0.168
			c-0.018,0.252-0.047,0.557-0.096,0.91h0.066c0.234,0,0.33-0.006,0.473-0.035v0.396c-0.154-0.02-0.275-0.025-0.484-0.025h-0.107
			c-0.121,0.695-0.229,0.822-0.721,0.822c-0.139,0-0.336-0.012-0.66-0.035c0-0.156-0.018-0.24-0.064-0.385
			c0.258,0.049,0.496,0.072,0.664,0.072c0.307,0,0.33-0.029,0.42-0.475H16.303z M16.58,112.871
			c-0.037,0.287-0.078,0.498-0.199,1.078h0.967c0.107-0.588,0.107-0.588,0.16-1.078H16.58z M17.551,112.535
			c0.041-0.414,0.041-0.457,0.066-0.941h-0.9c-0.029,0.408-0.041,0.533-0.09,0.941H17.551z M17.863,112.871
			c-0.061,0.49-0.061,0.49-0.162,1.078h1.049c0.043-0.328,0.072-0.594,0.107-1.078H17.863z M18.883,112.535
			c0.012-0.24,0.023-0.582,0.029-0.941h-0.941c-0.029,0.395-0.055,0.713-0.072,0.941H18.883z"/>
		<path d="M21.254,110.424c0-0.275-0.012-0.467-0.035-0.635h0.426c-0.025,0.143-0.037,0.348-0.037,0.635v3.287h0.408v-2.459
			c0-0.258-0.012-0.438-0.029-0.6h0.395c-0.023,0.156-0.029,0.33-0.029,0.6v2.41c0,0.307,0.006,0.504,0.023,0.648h-0.359v-0.258
			h-1.164v0.605h-0.377c0.023-0.174,0.035-0.361,0.035-0.625v-2.787c0-0.223-0.012-0.414-0.029-0.594h0.402
			c-0.025,0.168-0.031,0.342-0.031,0.594v2.465h0.402V110.424z M24.318,112.918c0.145,0.396,0.342,0.756,0.57,1.045
			c0.287,0.365,0.58,0.605,1.072,0.869c-0.15,0.162-0.168,0.191-0.258,0.365c-0.521-0.354-0.803-0.617-1.098-1.031
			c-0.238-0.336-0.414-0.672-0.545-1.037c-0.119,0.408-0.307,0.779-0.533,1.078c-0.283,0.367-0.611,0.637-1.158,0.949
			c-0.09-0.145-0.156-0.223-0.281-0.33c0.611-0.289,1.008-0.605,1.289-1.045c0.174-0.264,0.293-0.539,0.371-0.863H23.07
			c-0.232,0-0.42,0.012-0.58,0.037v-0.402c0.148,0.018,0.328,0.029,0.58,0.029h0.744c0.061-0.389,0.066-0.479,0.09-1.619h-0.73
			c-0.217,0-0.414,0.014-0.564,0.031v-0.402c0.15,0.023,0.371,0.035,0.6,0.035h0.695c0-0.041,0-0.096,0-0.168
			c0-0.4-0.006-0.545-0.029-0.707h0.426c-0.031,0.174-0.031,0.174-0.031,0.875h0.822c0.264,0,0.461-0.012,0.611-0.035V111
			c-0.168-0.023-0.402-0.037-0.588-0.037h-0.852c-0.006,0.684-0.035,1.176-0.09,1.619h1.092c0.264,0,0.469-0.012,0.605-0.035v0.408
			c-0.191-0.025-0.395-0.037-0.605-0.037H24.318z M23.148,112.42c-0.119-0.484-0.221-0.754-0.438-1.145l0.318-0.107
			c0.191,0.365,0.318,0.684,0.455,1.127L23.148,112.42z M24.631,112.289c0.281-0.432,0.395-0.666,0.533-1.133l0.342,0.119
			c-0.217,0.576-0.295,0.738-0.564,1.164L24.631,112.289z"/>
	</g>
	<g clip-path="url(#SVGID_2_)">
		<path d="M54.852,88.785c0-0.041,0.006-0.131,0.018-0.389c-0.115,0.221-0.168,0.299-0.451,0.672
			c-0.311,0.412-0.838,0.904-1.42,1.324c-0.27,0.197-0.504,0.342-0.99,0.617c-0.096-0.174-0.143-0.232-0.299-0.359
			c0.725-0.324,1.402-0.803,2.033-1.434c0.334-0.336,0.664-0.748,0.863-1.09l-1.967,0.012c-0.379,0-0.463,0-0.666,0.023v-0.449
			c0.215,0.035,0.324,0.041,0.678,0.041l2.182-0.012l-0.006-0.588c-0.006-0.313-0.006-0.313-0.029-0.486h0.48
			c-0.02,0.133-0.025,0.229-0.025,0.33v0.145l0.012,0.6h0.793c0.336,0,0.406-0.006,0.6-0.035v0.438
			c-0.127-0.012-0.252-0.018-0.498-0.018c-0.023,0-0.061,0-0.09,0h-0.805l0.043,2.92c0,0.258,0.012,0.449,0.029,0.611h-0.484
			c0.018-0.174,0.023-0.24,0.023-0.475c0-0.064,0-0.096,0-0.131l-0.023-2.207v-0.035V88.785z"/>
		<path d="M58.738,88.713c-0.023,0.066-0.023,0.072-0.102,0.355c-0.221,0.814-0.551,1.463-1.049,2.074
			c-0.145-0.133-0.205-0.168-0.396-0.258c0.264-0.27,0.396-0.449,0.57-0.779c0.281-0.527,0.486-1.109,0.521-1.512L58.738,88.713z
			 M59.578,87.244c0-0.311-0.006-0.455-0.035-0.611h0.492c-0.025,0.162-0.031,0.27-0.031,0.623v0.391h1.512
			c0.348,0,0.492-0.006,0.701-0.037v0.457c-0.203-0.023-0.371-0.031-0.689-0.031h-1.523v2.986c0,0.33,0.006,0.48,0.031,0.637h-0.492
			c0.029-0.156,0.035-0.318,0.035-0.629v-2.994h-1.469c-0.318,0-0.486,0.008-0.689,0.031v-0.457
			c0.209,0.031,0.354,0.037,0.695,0.037h1.463V87.244z M61.264,88.6c0.035,0.18,0.096,0.348,0.223,0.672
			c0.275,0.701,0.527,1.139,0.928,1.607c-0.174,0.096-0.227,0.137-0.377,0.281c-0.281-0.383-0.432-0.629-0.623-1.025
			c-0.145-0.299-0.324-0.738-0.42-1.031c-0.066-0.191-0.102-0.287-0.15-0.391L61.264,88.6z"/>
		<path d="M63.168,88.881c0.174,0.031,0.336,0.037,0.744,0.037h3.482c0.445,0,0.541-0.006,0.727-0.031v0.486
			c-0.191-0.018-0.33-0.023-0.732-0.023h-3.477c-0.439,0-0.564,0.006-0.744,0.023V88.881z"/>
		<path d="M69.383,87.281c0.318,0.527,0.527,1,0.732,1.654l-0.432,0.139c-0.174-0.6-0.408-1.17-0.703-1.656L69.383,87.281z
			 M73.611,87.221c-0.055,0.131-0.061,0.162-0.121,0.414c-0.148,0.652-0.281,1.055-0.504,1.492
			c-0.551,1.127-1.318,1.859-2.631,2.508c-0.104-0.174-0.15-0.24-0.324-0.385c0.652-0.258,1.182-0.594,1.654-1.049
			c0.654-0.623,1.121-1.5,1.338-2.52c0.055-0.246,0.072-0.383,0.078-0.568L73.611,87.221z M70.906,86.986
			c0.295,0.475,0.527,0.984,0.727,1.596l-0.426,0.156c-0.182-0.631-0.379-1.098-0.691-1.625L70.906,86.986z"/>
		<path d="M76.709,86.668c-0.053,0.078-0.053,0.078-0.131,0.246c-0.156,0.324-0.211,0.426-0.275,0.535
			c0.078-0.02,0.078-0.02,1.811-0.049c0.209,0,0.229-0.006,0.313-0.041l0.258,0.25c-0.055,0.072-0.055,0.078-0.121,0.295
			c-0.252,0.846-0.689,1.66-1.199,2.254c-0.551,0.631-1.211,1.104-2.086,1.5c-0.098-0.174-0.145-0.234-0.301-0.354
			c0.906-0.373,1.541-0.828,2.117-1.518c0.461-0.559,0.822-1.26,1.031-2.01l-2.021,0.037c-0.365,0.588-0.846,1.115-1.434,1.559
			c-0.102-0.15-0.16-0.203-0.334-0.313c0.635-0.412,1.09-0.91,1.504-1.643c0.229-0.395,0.348-0.666,0.379-0.875L76.709,86.668z"/>
		<path d="M79.59,88.023c0.414,0.264,0.605,0.408,0.979,0.756l-0.258,0.289c-0.307-0.33-0.51-0.498-0.955-0.775L79.59,88.023z
			 M80.627,89.961c-0.215,0.66-0.461,1.26-0.695,1.686c-0.066,0.125-0.066,0.125-0.102,0.197l-0.342-0.27
			c0.229-0.24,0.564-1.002,0.828-1.865L80.627,89.961z M79.969,86.531c0.365,0.275,0.6,0.484,0.881,0.785l-0.275,0.281
			c-0.336-0.395-0.516-0.563-0.877-0.809L79.969,86.531z M84.033,87.047c0.432,0,0.605-0.006,0.779-0.037v0.402
			c-0.137-0.018-0.336-0.023-0.756-0.023h-2.361c-0.27,0.479-0.432,0.701-0.779,1.092c-0.084-0.115-0.174-0.199-0.295-0.277
			c0.391-0.348,0.648-0.719,0.912-1.313c0.09-0.203,0.145-0.371,0.162-0.516l0.42,0.084c-0.031,0.066-0.031,0.066-0.09,0.234
			c-0.043,0.113-0.078,0.197-0.156,0.354H84.033z M81.4,91.01c-0.035,0.133-0.053,0.193-0.107,0.391l-0.408-0.055
			c0.174-0.461,0.307-1.02,0.42-1.75H81.27c-0.246,0-0.379,0.006-0.553,0.035v-0.408c0.145,0.025,0.301,0.037,0.576,0.037h0.061
			c0.066-0.521,0.102-0.9,0.102-1.104c0-0.012,0-0.072-0.006-0.174c0.072,0.006,0.246,0.012,0.426,0.012h1.906
			c0.307,0,0.42-0.006,0.625-0.023c-0.031,0.156-0.031,0.209-0.055,0.904c-0.006,0.121-0.006,0.199-0.018,0.385h0.041
			c0.275,0,0.408-0.006,0.559-0.037v0.408c-0.18-0.023-0.354-0.035-0.559-0.035h-0.066c-0.006,0.059-0.006,0.059-0.012,0.168
			c-0.018,0.252-0.047,0.557-0.096,0.91h0.066c0.234,0,0.33-0.006,0.475-0.035v0.396c-0.156-0.02-0.277-0.025-0.486-0.025h-0.107
			c-0.121,0.695-0.229,0.822-0.721,0.822c-0.139,0-0.336-0.012-0.66-0.035c0-0.156-0.018-0.24-0.064-0.385
			c0.258,0.049,0.496,0.072,0.664,0.072c0.307,0,0.33-0.029,0.42-0.475H81.4z M81.678,89.596c-0.037,0.287-0.078,0.498-0.199,1.078
			h0.967c0.107-0.588,0.107-0.588,0.16-1.078H81.678z M82.648,89.26c0.041-0.414,0.041-0.457,0.066-0.941h-0.9
			c-0.029,0.408-0.041,0.533-0.09,0.941H82.648z M82.961,89.596c-0.061,0.49-0.061,0.49-0.162,1.078h1.049
			c0.043-0.328,0.072-0.594,0.107-1.078H82.961z M83.98,89.26c0.012-0.24,0.023-0.582,0.029-0.941h-0.941
			c-0.029,0.395-0.055,0.713-0.072,0.941H83.98z"/>
	</g>
	<g clip-path="url(#SVGID_2_)">
		<path d="M12.563,76.209c0,0.336,0.014,0.516,0.037,0.672h-0.443c0.023-0.162,0.035-0.348,0.035-0.672v-3.873
			c0-0.293-0.006-0.469-0.023-0.66c0.168,0.018,0.324,0.023,0.629,0.023h0.857c0.301,0,0.443-0.006,0.611-0.023
			c-0.012,0.168-0.018,0.348-0.018,0.57v0.744c0,0.238,0.006,0.406,0.018,0.557c-0.16-0.012-0.365-0.018-0.605-0.018h-1.098V76.209z
			 M12.563,72.475h1.344v-0.48h-1.344V72.475z M12.563,73.242h1.344v-0.486h-1.344V73.242z M15.711,75.514
			c0,0.229,0.006,0.391,0.02,0.547c-0.168-0.014-0.367-0.02-0.613-0.02h-1.313v0.42h-0.371c0.023-0.162,0.029-0.316,0.029-0.563
			v-1.332c0-0.215-0.006-0.389-0.018-0.564c0.18,0.02,0.324,0.025,0.594,0.025h1.098c0.275,0,0.412-0.006,0.594-0.025
			c-0.014,0.168-0.02,0.324-0.02,0.564V75.514z M13.805,74.861h1.564v-0.535h-1.564V74.861z M13.805,75.742h1.564V75.16h-1.564
			V75.742z M17.02,76.299c0,0.396-0.127,0.498-0.611,0.498c-0.127,0-0.451-0.012-0.602-0.023c-0.023-0.162-0.053-0.258-0.107-0.385
			c0.283,0.037,0.533,0.061,0.66,0.061c0.246,0,0.293-0.029,0.293-0.174v-2.746h-1.229c-0.252,0-0.443,0.006-0.605,0.018
			c0.012-0.156,0.018-0.336,0.018-0.557v-0.744c0-0.211-0.006-0.391-0.018-0.57c0.168,0.018,0.305,0.023,0.611,0.023h0.99
			c0.311,0,0.455-0.006,0.629-0.023c-0.023,0.234-0.029,0.391-0.029,0.66V76.299z M15.178,72.475h1.475v-0.48h-1.475V72.475z
			 M15.178,73.242h1.475v-0.486h-1.475V73.242z"/>
		<path d="M20.369,71.826c0-0.139-0.014-0.234-0.043-0.377h0.475c-0.031,0.125-0.043,0.232-0.043,0.371v0.203h1.77
			c0.27,0,0.414-0.006,0.6-0.023c-0.018,0.125-0.023,0.229-0.023,0.408v0.432c0,0.18,0.006,0.293,0.023,0.42h-0.391v-0.895h-4.221
			v0.895h-0.396c0.018-0.133,0.025-0.24,0.025-0.426v-0.426c0-0.174-0.008-0.283-0.025-0.408c0.186,0.018,0.336,0.023,0.605,0.023
			h1.645V71.826z M19.596,74.303c-0.367,0-0.475,0.006-0.643,0.023c0.018-0.131,0.023-0.24,0.023-0.473v-0.541
			c0-0.215-0.006-0.328-0.018-0.455c0.168,0.023,0.336,0.029,0.576,0.029h2.188c0.24,0,0.408-0.006,0.576-0.029
			c-0.018,0.119-0.023,0.223-0.023,0.461v0.535c0,0.246,0.006,0.348,0.023,0.473c-0.18-0.018-0.336-0.023-0.641-0.023h-0.906
			c-0.078,0.223-0.174,0.461-0.258,0.643h1.637c0.27,0,0.408-0.008,0.576-0.025c-0.023,0.168-0.029,0.318-0.029,0.564v0.834
			c0,0.227,0.012,0.383,0.035,0.568h-0.414V76.6h-3.34v0.287h-0.414c0.025-0.186,0.037-0.354,0.037-0.568v-0.834
			c0-0.258-0.006-0.396-0.031-0.564c0.168,0.018,0.318,0.025,0.57,0.025h0.984c0.096-0.205,0.16-0.355,0.25-0.643H19.596z
			 M18.959,76.264h3.34v-0.99h-3.34V76.264z M19.344,73.99h2.566v-0.785h-2.566V73.99z"/>
		<path d="M12.023,80.25c0.414,0.264,0.605,0.408,0.979,0.756l-0.258,0.287c-0.307-0.33-0.51-0.498-0.955-0.773L12.023,80.25z
			 M13.061,82.188c-0.215,0.658-0.461,1.258-0.695,1.684c-0.066,0.127-0.066,0.127-0.102,0.199l-0.342-0.271
			c0.229-0.238,0.564-1,0.828-1.863L13.061,82.188z M12.402,78.756c0.365,0.277,0.6,0.486,0.881,0.787l-0.275,0.281
			c-0.336-0.396-0.516-0.564-0.877-0.811L12.402,78.756z M16.467,79.271c0.432,0,0.605-0.006,0.779-0.035v0.402
			c-0.137-0.02-0.336-0.025-0.756-0.025h-2.361c-0.27,0.48-0.432,0.703-0.779,1.092c-0.084-0.113-0.174-0.197-0.295-0.275
			c0.391-0.348,0.648-0.721,0.912-1.313c0.09-0.205,0.145-0.373,0.162-0.518l0.42,0.084c-0.031,0.066-0.031,0.066-0.09,0.234
			c-0.043,0.115-0.078,0.199-0.156,0.354H16.467z M13.834,83.236c-0.035,0.131-0.053,0.191-0.107,0.389l-0.408-0.053
			c0.174-0.463,0.307-1.02,0.42-1.752h-0.035c-0.246,0-0.379,0.006-0.553,0.037v-0.408c0.145,0.023,0.301,0.035,0.576,0.035h0.061
			c0.066-0.521,0.102-0.898,0.102-1.104c0-0.012,0-0.07-0.006-0.174c0.072,0.006,0.246,0.012,0.426,0.012h1.906
			c0.307,0,0.42-0.006,0.625-0.023c-0.031,0.156-0.031,0.211-0.055,0.906c-0.006,0.119-0.006,0.197-0.018,0.383h0.041
			c0.275,0,0.408-0.006,0.559-0.035v0.408c-0.18-0.025-0.354-0.037-0.559-0.037h-0.066c-0.006,0.061-0.006,0.061-0.012,0.168
			c-0.018,0.252-0.047,0.559-0.096,0.912h0.066c0.234,0,0.33-0.006,0.475-0.037v0.396c-0.156-0.018-0.277-0.023-0.486-0.023h-0.107
			c-0.121,0.695-0.229,0.82-0.721,0.82c-0.139,0-0.336-0.012-0.66-0.035c0-0.156-0.018-0.24-0.064-0.383
			c0.258,0.047,0.496,0.07,0.664,0.07c0.307,0,0.33-0.029,0.42-0.473H13.834z M14.111,81.82c-0.037,0.289-0.078,0.498-0.199,1.08
			h0.967c0.107-0.588,0.107-0.588,0.16-1.08H14.111z M15.082,81.484c0.041-0.414,0.041-0.455,0.066-0.941h-0.9
			c-0.029,0.408-0.041,0.535-0.09,0.941H15.082z M15.395,81.82c-0.061,0.492-0.061,0.492-0.162,1.08h1.049
			c0.043-0.33,0.072-0.594,0.107-1.08H15.395z M16.414,81.484c0.012-0.24,0.023-0.582,0.029-0.941h-0.941
			c-0.029,0.396-0.055,0.715-0.072,0.941H16.414z"/>
		<path d="M18.785,79.375c0-0.277-0.012-0.469-0.035-0.637h0.426c-0.025,0.145-0.037,0.348-0.037,0.637v3.285h0.408v-2.459
			c0-0.258-0.012-0.438-0.029-0.6h0.395c-0.023,0.156-0.029,0.33-0.029,0.6v2.412c0,0.305,0.006,0.502,0.023,0.646h-0.359v-0.258
			h-1.164v0.605h-0.377c0.023-0.174,0.035-0.359,0.035-0.623v-2.789c0-0.221-0.012-0.414-0.029-0.594h0.402
			c-0.025,0.168-0.031,0.342-0.031,0.594v2.465h0.402V79.375z M21.85,81.869c0.145,0.395,0.342,0.756,0.57,1.043
			c0.287,0.365,0.58,0.605,1.072,0.869c-0.15,0.162-0.168,0.191-0.258,0.367c-0.521-0.355-0.803-0.619-1.098-1.033
			c-0.238-0.336-0.414-0.67-0.545-1.037c-0.119,0.408-0.307,0.779-0.533,1.08c-0.283,0.365-0.611,0.635-1.158,0.947
			c-0.09-0.145-0.156-0.223-0.281-0.33c0.611-0.287,1.008-0.605,1.289-1.043c0.174-0.264,0.293-0.539,0.371-0.863h-0.678
			c-0.232,0-0.42,0.012-0.58,0.035v-0.4c0.148,0.018,0.328,0.029,0.58,0.029h0.744c0.061-0.391,0.066-0.48,0.09-1.619h-0.73
			c-0.217,0-0.414,0.012-0.564,0.029v-0.4c0.15,0.023,0.371,0.035,0.6,0.035h0.695c0-0.043,0-0.096,0-0.168
			c0-0.402-0.006-0.545-0.029-0.707h0.426c-0.031,0.174-0.031,0.174-0.031,0.875h0.822c0.264,0,0.461-0.012,0.611-0.035v0.406
			c-0.168-0.023-0.402-0.035-0.588-0.035h-0.852c-0.006,0.684-0.035,1.176-0.09,1.619h1.092c0.264,0,0.469-0.012,0.605-0.037v0.408
			c-0.191-0.023-0.395-0.035-0.605-0.035H21.85z M20.68,81.371c-0.119-0.486-0.221-0.756-0.438-1.145l0.318-0.109
			c0.191,0.367,0.318,0.684,0.455,1.127L20.68,81.371z M22.162,81.238c0.281-0.432,0.395-0.664,0.533-1.133l0.342,0.121
			c-0.217,0.574-0.295,0.736-0.564,1.162L22.162,81.238z"/>
	</g>
	<line clip-path="url(#SVGID_2_)" stroke="#000000" stroke-width="0.5" x1="62.49" y1="142.104" x2="66.135" y2="138.811"/>
	
		<path id="ウルップ島" clip-path="url(#SVGID_2_)" fill="#F5C61D" stroke="#000000" stroke-width="0.57" stroke-linejoin="round" d="
		M99.33,100.85c0,0-1.52-0.566-1.584,0.16s-0.395,1.184-0.889,1.752c-0.492,0.568-0.906,0.5-1.223,1.039
		c-0.316,0.543-0.799,0.889-0.799,0.889s-0.855,0.537-1.297,1.145c-0.441,0.602-1.262,1.941-1.531,2.207
		c-0.271,0.268-0.74-0.15-0.688,1.047c0.055,1.201,0.373,1.51,0.23,2.021c-0.145,0.518-0.057,1.354,0.744,0.465
		c0.799-0.885,0.551-0.758,0.9-1.662c0.354-0.904,0.998-1.9,1.588-2.711c0.588-0.807,1.133-2.189,2.088-2.654
		c0.957-0.463,1.324-0.967,1.314-1.592C98.178,102.33,99.33,100.85,99.33,100.85z"/>
	<path clip-path="url(#SVGID_2_)" fill="#F5C61D" stroke="#000000" stroke-width="0.57" stroke-linejoin="round" d="M114.02,85.156
		c0.611-0.984,1.402-0.688,0.932,0.383C114.482,86.609,113.41,86.141,114.02,85.156z"/>
	<path clip-path="url(#SVGID_2_)" fill="#F5C61D" stroke="#000000" stroke-width="0.57" stroke-linejoin="round" d="M117.223,77.797
		c0.014-0.963,1.398-0.689,0.928,0.381C117.682,79.25,116.594,78.186,117.223,77.797z"/>
	<path clip-path="url(#SVGID_2_)" fill="#F5C61D" stroke="#000000" stroke-width="0.57" stroke-linejoin="round" d="M121.127,76.521
		c0.611-0.984,1.77-0.434,0.93,0.383C121.57,77.379,120.498,76.908,121.127,76.521z"/>
	<path clip-path="url(#SVGID_2_)" fill="#F5C61D" stroke="#000000" stroke-width="0.57" stroke-linejoin="round" d="M116.205,73.469
		c0.613-0.984,1.4-0.689,0.932,0.383C116.668,74.922,115.578,73.857,116.205,73.469z"/>
	<path clip-path="url(#SVGID_2_)" fill="#F5C61D" stroke="#000000" stroke-width="0.57" stroke-linejoin="round" d="M122.877,65.537
		c0.611-0.986,1.436-1.059,0.963,0.012C123.371,66.621,122.25,65.924,122.877,65.537z"/>
	<path clip-path="url(#SVGID_2_)" fill="#F5C61D" stroke="#000000" stroke-width="0.57" stroke-linejoin="round" d="M118.748,62.779
		c0.611-0.984,1.398-0.689,0.928,0.383S118.119,63.168,118.748,62.779z"/>
	<path clip-path="url(#SVGID_2_)" fill="#F5C61D" stroke="#000000" stroke-width="0.57" stroke-linejoin="round" d="M123.156,60.063
		c0.611-0.982,1.68-0.512,1.211,0.557C123.898,61.691,122.527,60.451,123.156,60.063z"/>
	<path clip-path="url(#SVGID_2_)" fill="#F5C61D" stroke="#000000" stroke-width="0.57" stroke-linejoin="round" d="M126.586,54.402
		c0.611-0.982,1.604-0.574,0.99,0.42C127.314,55.242,125.957,54.793,126.586,54.402z"/>
	<path clip-path="url(#SVGID_2_)" fill="#F5C61D" stroke="#000000" stroke-width="0.57" stroke-linejoin="round" d="M111.393,88.379
		c0,0,0.295-1.256,0.57-1.209s0.326,1.783-0.432,2.932s-1.361,2.719-2.141,2.617c-0.773-0.102-0.453-0.33,0.209-1.238
		C110.264,90.57,111.393,88.379,111.393,88.379z"/>
	<path clip-path="url(#SVGID_2_)" fill="#DA414C" stroke="#000000" stroke-width="0.57" stroke-linejoin="round" d="M21.832,116.785
		c0,0,0.607-1.262,1.08-0.529c0.473,0.73,3.523,4.189,4.934,6.066c1.416,1.883,2.65,4.328,4.527,6.313
		c1.879,1.986,4.021,3.934,6.105,4.678c2.086,0.746,3.574,0.826,4.309,0.664c0.734-0.158,1.367,0.143,1.072,0.549
		c-0.295,0.404,0.775,0.953,1.203,0.258c0.428-0.693,1.186-0.143,1.252,0.293c0.068,0.439,0.914,0.664,2.156,0.332
		c1.248-0.326,2.336-0.232,3.867-2.438c1.529-2.211,2.541-3.176,2.018-1.393c-0.525,1.781-0.398,2.879-0.984,3.689
		c-0.59,0.809-0.904,2.512,0.006,3.176c0.91,0.662,1.25,0.832,1.133,1.52c0.555,1.254,1.451,2.682,1.072,3.098
		c-0.385,0.418-0.15,1.053,0.732,0.689c0.885-0.359,2.119-0.465,2.941-1.49c0.824-1.023,1.596-0.387,1.596-0.387
		s0.889,0.264-0.584,1.123c-1.477,0.857-0.998,1.053-2.383,1.357c-1.383,0.307-2.156,0.518-3.203,1.533
		c-1.049,1.014-2.16,1.906-2.16,1.906s-0.252-1.033-0.592-1.205c-0.342-0.17-1.424,0.043-1.162,0.854
		c0.26,0.811,0.09,1.15,0.09,1.15s-1.066,0.613-2.699,0.199c-1.631-0.414-3.436,0.049-4.314,0.725
		c-0.877,0.674-2.77,2.002-3.299,2.623c-0.529,0.617-2.031,2.463-2.137,4.627c-0.107,2.166,0.145,4.898,0.039,5.365
		c-1.516-1.105-1.936-1.488-3.146-1.52c-1.213-0.033-2.221-0.457-3.787-1.598c-1.566-1.143-3.256-2.215-4.893-2.945
		c-1.633-0.725-2.094-1.369-3.004-2.029c-0.906-0.662-1.51-0.793-2.613-0.129c-1.104,0.668-3.145,2.195-4.295,3.137
		c-1.148,0.941-1.02,1.189-1.52,1.133c-0.502-0.055-0.355-0.258-0.197-0.684c0.158-0.428,0.232-0.215-0.148-0.648
		c-0.381-0.432-0.551-0.941-0.436-1.629c0.117-0.691-0.275-0.898-0.932-1.377s-1.543-0.428-2.145,0.293
		c-0.604,0.721-2.447,2.936-1.791,4.266c0.656,1.328,1.383,2.24,2.678,1.949c1.297-0.293,2.131-0.379,2.688,0.875
		c0.555,1.254,1.951,2.734,1.178,3.795c-0.771,1.061-1.412,1.832-2.031,1.305c-0.619-0.529-1.063-0.773-1.729-1.027
		c-0.664-0.254-1.313-0.107-1.576,0.785c-0.262,0.891,0,2.549-0.721,2.799c-0.723,0.248-0.961,0.15-1.332,0.654
		c-0.367,0.506-0.859-0.088-1.063-0.234c-0.203-0.148-0.641-0.078-0.641-0.078s-0.623,0.01-0.535-0.854
		c0.088-0.867-0.568-1.031,0.271-1.967c0.836-0.938,0.797-0.35,0.721-1.949c-0.072-1.6-0.268-3.137-0.598-3.531
		c-0.33-0.393-0.156-0.42-0.855-0.311c-0.699,0.107-1.373,0.08-1.311-0.645c0.068-0.729,0.418-0.469-0.236-0.945
		c-0.656-0.48-0.988-0.875-0.51-1.531c0.479-0.658,1.398-1.072,0.445-1.994c-0.947-0.924-0.297-1.611,0.352-1.756
		c0.648-0.148,2.072-0.191,2.445-1.234c0.375-1.043,1.18-0.768,1.18-0.768c0.721-1.098,2.711-1.813,2.266-3.221
		c-0.445-1.406-0.428-1.855-1.055-2.158c-0.633-0.303-0.891-1.113-0.133-1.41c0.758-0.299,1.098-0.129,1.342-0.57
		s0.439-0.605,1.027,0.287c0.59,0.891,2.25,1.791,3.627,1.711c1.373-0.082,2.066,0.346,2.561-0.223
		c0.49-0.572,2.07-0.193,1.766-1.576c-0.309-1.383-0.07-2.139-0.84-2.775c-0.771-0.641-0.26-0.498-0.629-2.006
		c-0.371-1.506-0.809-1.438,0.654-2.383c1.461-0.947,2.16-1.906,2.266-3.221c0.107-1.314-0.014-1.787,0.314-3.404
		c0.328-1.615-0.113-1.861,0.055-3.365c0.164-1.5-0.283-3.219-0.486-4.219c-0.201-0.994-0.264-1.971-0.57-3.352
		c-0.309-1.383,0.088-1.715-0.133-2.264c-0.221-0.545,0.055-0.5,0.609-0.408C21.553,117.273,21.832,116.785,21.832,116.785z"/>
	<polyline clip-path="url(#SVGID_2_)" fill="none" stroke="#000000" stroke-width="0.5" stroke-miterlimit="10" points="
		28.359,89.984 34.607,81.734 49.051,81.734 	"/>
	<g clip-path="url(#SVGID_2_)">
		<g>
			
				<line fill="none" stroke="#000000" stroke-linecap="round" stroke-linejoin="round" x1="75.365" y1="99.838" x2="76.459" y2="100.864"/>
			
				<line fill="none" stroke="#000000" stroke-linecap="round" stroke-linejoin="round" stroke-dasharray="3.1914,3.1914" x1="78.787" y1="103.047" x2="96.246" y2="119.421"/>
			
				<line fill="none" stroke="#000000" stroke-linecap="round" stroke-linejoin="round" x1="97.41" y1="120.513" x2="98.504" y2="121.539"/>
		</g>
	</g>
	<g clip-path="url(#SVGID_2_)">
		<path fill="none" d="M109.037,133.443"/>
	</g>
	<g clip-path="url(#SVGID_2_)">
		<path fill="none" d="M99.631,143.473"/>
	</g>
</g>
</svg>
