<?xml version="1.0" encoding="utf-8"?>
<!-- Generator: Adobe Illustrator 16.0.0, SVG Export Plug-In . SVG Version: 6.00 Build 0)  -->
<!DOCTYPE svg PUBLIC "-//W3C//DTD SVG 1.1//EN" "http://www.w3.org/Graphics/SVG/1.1/DTD/svg11.dtd">
<svg version="1.1" id="レイヤー_1" xmlns="http://www.w3.org/2000/svg" xmlns:xlink="http://www.w3.org/1999/xlink" x="0px"
	 y="0px" width="135.497px" height="50.468px" viewBox="0 0 135.497 50.468" enable-background="new 0 0 135.497 50.468"
	 xml:space="preserve">
<g>
	<path d="M3.697,20.361c0-0.389-0.01-0.671-0.049-0.953c0.312,0.039,0.593,0.049,1.04,0.049h4.374c0.447,0,0.719-0.01,1.001-0.049
		c-0.039,0.282-0.049,0.525-0.049,0.894v6.23c0,0.467,0.02,0.739,0.059,1.04h-0.71v-0.632H4.349v0.632h-0.71
		c0.039-0.292,0.059-0.593,0.059-1.03V20.361z M4.349,22.772h5.015V20.05H4.349V22.772z M4.349,26.349h5.015v-2.984H4.349V26.349z"
		/>
	<path d="M13.457,21.207c-0.38,0-0.71,0.019-1.069,0.058v-0.709c0.359,0.048,0.642,0.068,1.069,0.068h2.721v-0.826
		c0-0.321-0.019-0.554-0.067-0.884h0.768c-0.049,0.292-0.068,0.573-0.068,0.875v0.836h2.868c0.485,0,0.807-0.02,1.088-0.068v0.709
		c-0.408-0.039-0.699-0.058-1.088-0.058h-2.625c1.089,1.963,2.392,3.324,4.005,4.199c-0.204,0.224-0.312,0.37-0.447,0.632
		c-0.787-0.525-1.39-1.03-2.021-1.701c-0.807-0.855-1.352-1.681-1.817-2.731c0.028,0.583,0.038,0.943,0.038,1.264v2.206h1.06
		c0.477,0,0.69-0.01,0.943-0.048v0.68c-0.292-0.048-0.525-0.058-0.963-0.058h-1.04v0.923c0,0.457,0.02,0.807,0.068,1.118H16.11
		c0.049-0.34,0.067-0.68,0.067-1.127v-0.914h-0.933c-0.457,0-0.69,0.01-0.981,0.058v-0.68c0.252,0.039,0.466,0.048,0.962,0.048
		h0.952v-2.206c0-0.36,0.01-0.729,0.039-1.254c-0.447,1.06-0.962,1.856-1.837,2.809c-0.612,0.67-1.137,1.137-1.847,1.633
		c-0.146-0.263-0.224-0.36-0.457-0.574c0.836-0.505,1.536-1.098,2.274-1.973c0.729-0.835,1.147-1.458,1.585-2.303H13.457z"/>
</g>
<g>
	<path d="M112.911,9.914c-0.077-0.35-0.185-0.69-0.301-0.992l-0.506-1.254h-3.392l-0.506,1.254c-0.146,0.37-0.233,0.651-0.302,0.992
		h-1.011c0.194-0.321,0.263-0.467,0.525-1.118l2.177-5.365c0.185-0.457,0.263-0.68,0.312-0.904h0.981
		c0.039,0.185,0.088,0.311,0.33,0.904l2.178,5.365c0.243,0.583,0.369,0.865,0.515,1.118H112.911z M110.617,3.791
		c-0.028-0.078-0.028-0.088-0.214-0.622c-0.048,0.146-0.087,0.252-0.106,0.321c-0.059,0.155-0.088,0.262-0.107,0.301l-1.244,3.208
		h2.926L110.617,3.791z"/>
	<path d="M117.334,3.46c0-0.467-0.02-0.807-0.059-1.196c0.321,0.039,0.612,0.049,1.138,0.049h5.813c0.515,0,0.797-0.01,1.156-0.049
		c-0.039,0.36-0.059,0.69-0.059,1.196v5.919c0,0.709,0.02,1.069,0.059,1.332h-0.681v-0.593h-6.745v0.593h-0.681
		c0.039-0.263,0.059-0.612,0.059-1.332V3.46z M117.956,9.564h6.745V2.867h-6.745V9.564z M119.618,4.306
		c-0.418,0-0.651,0.01-0.914,0.048V3.732c0.272,0.049,0.486,0.059,0.914,0.059h3.431c0.438,0,0.7-0.02,0.953-0.059v0.622
		c-0.272-0.039-0.506-0.048-0.943-0.048h-1.497v1.506h1.196c0.438,0,0.632-0.01,0.875-0.048v0.612
		c-0.243-0.039-0.467-0.049-0.875-0.049h-1.196v1.779h1.634c0.398,0,0.68-0.02,0.952-0.058v0.641
		c-0.282-0.039-0.573-0.058-0.952-0.058h-3.704c-0.398,0-0.67,0.02-0.962,0.058V8.048c0.272,0.039,0.554,0.058,0.962,0.058h1.468
		V6.327h-1.04c-0.408,0-0.642,0.01-0.884,0.049V5.764c0.242,0.039,0.438,0.048,0.884,0.048h1.04V4.306H119.618z M122.738,6.502
		c0.398,0.399,0.554,0.613,0.913,1.157l-0.456,0.292c-0.341-0.593-0.496-0.807-0.865-1.206L122.738,6.502z"/>
</g>
<g>
	<path d="M108.761,44.115c-0.428,0-0.729,0.009-1.069,0.029c0.068-0.389,0.088-0.642,0.088-1.205v-5.2c0-0.418-0.02-0.68-0.078-1.03
		c0.302,0.02,0.496,0.02,1.06,0.02h2.07c1.409,0,2.197,0.642,2.197,1.789c0,0.563-0.175,0.991-0.525,1.302
		c-0.204,0.175-0.379,0.262-0.768,0.389c0.447,0.087,0.681,0.185,0.942,0.408c0.398,0.34,0.603,0.836,0.603,1.458
		c0,1.303-0.854,2.042-2.342,2.042H108.761z M110.821,39.896c0.904,0,1.438-0.476,1.438-1.292c0-0.807-0.485-1.215-1.448-1.215
		h-2.284v2.508H110.821z M108.527,43.454h2.343c1.06,0,1.623-0.505,1.623-1.438c0-0.962-0.563-1.458-1.643-1.458h-2.323V43.454z"/>
	<path d="M117.149,37.661c0-0.467-0.02-0.807-0.059-1.196c0.321,0.039,0.612,0.049,1.138,0.049h5.813
		c0.515,0,0.797-0.01,1.156-0.049c-0.039,0.36-0.059,0.69-0.059,1.196v5.919c0,0.709,0.02,1.069,0.059,1.332h-0.681v-0.593h-6.745
		v0.593h-0.681c0.039-0.263,0.059-0.612,0.059-1.332V37.661z M117.771,43.765h6.745v-6.697h-6.745V43.765z M119.434,38.507
		c-0.418,0-0.651,0.01-0.914,0.048v-0.622c0.272,0.049,0.486,0.059,0.914,0.059h3.431c0.438,0,0.7-0.02,0.953-0.059v0.622
		c-0.272-0.039-0.506-0.048-0.943-0.048h-1.497v1.506h1.196c0.438,0,0.632-0.01,0.874-0.048v0.612
		c-0.242-0.039-0.466-0.049-0.874-0.049h-1.196v1.779h1.634c0.398,0,0.68-0.02,0.952-0.058v0.641
		c-0.282-0.039-0.573-0.058-0.952-0.058h-3.704c-0.398,0-0.67,0.02-0.962,0.058v-0.641c0.272,0.039,0.554,0.058,0.962,0.058h1.468
		v-1.779h-1.04c-0.408,0-0.641,0.01-0.884,0.049v-0.612c0.243,0.039,0.438,0.048,0.884,0.048h1.04v-1.506H119.434z M122.554,40.703
		c0.398,0.399,0.554,0.613,0.913,1.157l-0.456,0.292c-0.341-0.593-0.496-0.807-0.865-1.206L122.554,40.703z"/>
</g>
<rect x="0.5" y="17.293" fill="none" stroke="#231815" stroke-miterlimit="10" width="22.95" height="12.15"/>
<rect x="104.758" y="0.5" fill="none" stroke="#231815" stroke-miterlimit="10" width="22.951" height="12.15"/>
<rect x="104.758" y="34.307" fill="none" stroke="#231815" stroke-miterlimit="10" width="22.951" height="12.15"/>
<g>
	<g>
		<polyline fill="none" stroke="#231815" stroke-miterlimit="10" points="23.452,23.369 41.418,40.382 103.559,40.382 		"/>
		<g>
			<path fill="#231815" d="M96.724,45.182c-0.148-0.232-0.079-0.542,0.154-0.69l6.452-4.109l-6.452-4.109
				c-0.233-0.148-0.303-0.458-0.154-0.69s0.46-0.3,0.691-0.153l7.114,4.531c0.144,0.092,0.231,0.251,0.231,0.422
				s-0.088,0.33-0.231,0.422l-7.114,4.531c-0.084,0.053-0.177,0.078-0.269,0.078C96.981,45.413,96.819,45.331,96.724,45.182z"/>
		</g>
	</g>
</g>
<g>
	<path d="M11.42,49.675c-0.053,0.151-0.166,0.211-0.295,0.211c-0.053,0-0.098-0.007-0.15-0.022c-0.151-0.038-0.265-0.167-0.265-0.31
		c0-0.045,0.008-0.083,0.022-0.128l2.055-5.159c0.098-0.257,0.287-0.355,0.521-0.355c0.241,0,0.438,0.098,0.536,0.355l2.054,5.174
		c0.023,0.045,0.03,0.083,0.03,0.128c0,0.151-0.12,0.265-0.271,0.302c-0.045,0.015-0.091,0.023-0.136,0.023
		c-0.136,0-0.257-0.068-0.31-0.212l-0.597-1.563h-2.613L11.42,49.675z M14.389,47.485l-0.839-2.198
		c-0.083-0.219-0.166-0.461-0.234-0.718c-0.067,0.257-0.144,0.499-0.233,0.725l-0.854,2.19H14.389z"/>
	<path d="M20.121,44.018c0,0.03-0.008,0.061-0.016,0.098c-0.271,1.004-0.415,2.198-0.415,3.301c0,0.748,0.067,1.548,0.196,2.25
		c0.008,0.038,0.008,0.076,0.008,0.114c0,0.173-0.099,0.264-0.257,0.302c-0.03,0.008-0.061,0.008-0.084,0.008
		c-0.143,0-0.257-0.083-0.294-0.287c-0.144-0.695-0.212-1.511-0.212-2.356c0-1.178,0.144-2.402,0.431-3.467
		c0.046-0.159,0.166-0.227,0.303-0.227c0.029,0,0.053,0,0.083,0.008C20.015,43.784,20.121,43.875,20.121,44.018z M21.851,47.206
		c0,0.075-0.038,0.144-0.099,0.204c-0.317,0.302-0.438,0.589-0.438,0.876c0,0.468,0.407,0.71,1.465,0.71
		c0.649,0,1.345-0.068,1.858-0.181c0.03-0.008,0.061-0.008,0.091-0.008c0.15,0,0.264,0.098,0.294,0.25
		c0.008,0.03,0.008,0.053,0.008,0.083c0,0.151-0.091,0.294-0.257,0.325c-0.559,0.113-1.224,0.166-1.919,0.166
		c-1.39,0-2.13-0.393-2.13-1.344c0-0.461,0.189-0.892,0.574-1.254c0.083-0.076,0.174-0.113,0.257-0.113
		c0.068,0,0.136,0.03,0.196,0.083C21.82,47.069,21.851,47.137,21.851,47.206z M24.426,44.569c0.189,0,0.287,0.106,0.31,0.279
		c0,0.008,0,0.015,0,0.023c0,0.174-0.075,0.317-0.294,0.34c-0.635,0.076-1.541,0.113-2.364,0.113c-0.279,0-0.552-0.008-0.801-0.015
		c-0.234-0.007-0.317-0.159-0.317-0.333c0.008-0.166,0.113-0.317,0.31-0.317c0.008,0,0.008,0,0.016,0
		c0.241,0.007,0.514,0.015,0.793,0.015c0.801,0,1.677-0.038,2.288-0.106C24.388,44.569,24.403,44.569,24.426,44.569z"/>
	<path d="M30.823,47.689c0.045-0.265,0.075-0.544,0.099-0.831c0-0.015,0-0.03,0-0.038c0-0.151-0.076-0.211-0.242-0.211h-3.044
		c-0.354,0-0.544-0.144-0.544-0.393c0-0.09,0.022-0.188,0.068-0.294c0.265-0.619,0.528-1.473,0.71-2.289
		c0.03-0.136,0.136-0.211,0.279-0.211c0.022,0,0.045,0,0.075,0.007c0.159,0.023,0.25,0.121,0.25,0.257c0,0.023,0,0.045-0.008,0.068
		c-0.053,0.234-0.113,0.461-0.182,0.688h3.656c0.136,0,0.211,0.106,0.211,0.265c0,0.158-0.075,0.294-0.211,0.294h-3.83
		c-0.105,0.332-0.219,0.634-0.324,0.891c-0.016,0.038-0.022,0.068-0.022,0.091c0,0.068,0.053,0.09,0.188,0.09h2.886
		c0.46,0,0.687,0.189,0.687,0.582c0,0.03,0,0.068-0.007,0.099c-0.023,0.317-0.061,0.634-0.106,0.937h1.33
		c0.136,0,0.211,0.121,0.211,0.272c0,0.158-0.075,0.287-0.211,0.287h-1.42c-0.099,0.529-0.228,0.982-0.363,1.314
		c-0.227,0.544-0.536,0.71-1.201,0.71c-0.43,0-0.868-0.038-1.276-0.136c-0.136-0.03-0.211-0.136-0.211-0.28
		c0-0.022,0-0.045,0.008-0.075c0.022-0.144,0.128-0.234,0.257-0.234c0.022,0,0.045,0,0.075,0.007
		c0.34,0.091,0.763,0.136,1.133,0.136c0.393,0,0.582-0.106,0.688-0.378c0.113-0.294,0.211-0.657,0.294-1.065h-4.63
		c-0.136,0-0.211-0.128-0.211-0.279c0-0.159,0.075-0.279,0.211-0.279H30.823z"/>
	<path d="M36.594,47.749c0.295-0.181,0.566-0.234,0.778-0.234c0.476,0,0.702,0.249,0.747,0.974c0.046,0.771,0.182,0.914,0.703,0.914
		c0.393,0,0.8-0.128,1.133-0.287c0.053-0.022,0.105-0.038,0.158-0.038c0.113,0,0.212,0.061,0.265,0.181
		c0.022,0.053,0.03,0.098,0.03,0.144c0,0.128-0.061,0.242-0.204,0.31c-0.378,0.182-0.952,0.295-1.428,0.295
		c-0.929,0-1.201-0.31-1.254-1.33c-0.03-0.566-0.174-0.68-0.431-0.68c-0.362,0-0.891,0.234-1.45,0.755
		c-0.354,0.332-0.763,0.732-1.125,1.072c-0.091,0.083-0.182,0.121-0.271,0.121c-0.083,0-0.167-0.03-0.227-0.098
		c-0.061-0.061-0.099-0.144-0.099-0.227c0-0.098,0.038-0.196,0.129-0.28c0.551-0.514,1.336-1.239,2.122-1.956
		c0.627-0.559,1.262-1.133,1.699-1.496c-0.876,0.144-2.258,0.257-3.172,0.279c-0.182-0.007-0.295-0.136-0.303-0.31
		c0-0.007,0-0.007,0-0.015c0-0.166,0.106-0.31,0.257-0.31c0.96-0.015,2.485-0.113,3.58-0.227c0.023,0,0.053,0,0.076,0
		c0.188,0,0.302,0.053,0.377,0.181c0.038,0.068,0.054,0.136,0.054,0.196c0,0.113-0.054,0.219-0.159,0.317
		c-0.453,0.423-0.959,0.854-1.404,1.231c-0.22,0.181-0.416,0.325-0.62,0.46L36.594,47.749z M38.489,44.056
		c0.212,0.015,0.303,0.136,0.303,0.294c0,0.015,0,0.023,0,0.038c-0.016,0.181-0.129,0.279-0.325,0.279c-0.008,0-0.015,0-0.022,0
		c-0.922-0.045-2.251-0.227-3.082-0.416c-0.128-0.03-0.204-0.128-0.204-0.257c0-0.038,0.008-0.075,0.023-0.121
		c0.045-0.136,0.144-0.219,0.279-0.219c0.022,0,0.053,0,0.083,0.008C36.345,43.844,37.591,44.01,38.489,44.056z"/>
	<path d="M45.786,44.75c-0.37,0.076-0.695,0.113-0.944,0.136c-1.08,0.09-2.138,0.189-3.097,0.264c-0.016,0-0.022,0-0.038,0
		c-0.196,0-0.31-0.113-0.325-0.287c0-0.015,0-0.022,0-0.03c0-0.166,0.114-0.302,0.28-0.317c1.843-0.144,3.837-0.272,5.664-0.355
		c0.008,0,0.016,0,0.023,0c0.211,0,0.31,0.121,0.324,0.294c0,0.008,0,0.015,0,0.022c0,0.159-0.075,0.302-0.294,0.325
		c-0.129,0.015-0.25,0.03-0.424,0.06c-1.631,0.272-2.771,1.36-2.771,2.576c0,0.755,0.423,1.208,0.967,1.458
		c0.4,0.188,0.906,0.272,1.412,0.279c0.22,0,0.333,0.136,0.333,0.31c0,0.015,0,0.023,0,0.038c-0.016,0.219-0.137,0.34-0.363,0.34
		c-0.627,0-1.224-0.121-1.699-0.348c-0.778-0.377-1.299-1.065-1.299-2.024c0-1.141,0.801-2.176,2.258-2.697L45.786,44.75z"/>
	<path d="M49.502,44.222c0.241,0,0.302,0.128,0.302,0.317c0,0.317,0,0.65,0,0.967c0,0.483,0.008,0.937,0.03,1.284
		c0.075,0.906,0.204,1.488,0.431,1.941c0.099,0.197,0.295,0.34,0.461,0.34c0.174,0,0.317-0.06,0.431-0.234
		c0.158-0.234,0.294-0.627,0.37-1.148c0.03-0.189,0.113-0.272,0.271-0.272c0.022,0,0.053,0,0.075,0.007
		c0.174,0.023,0.287,0.113,0.287,0.295c0,0.022,0,0.045-0.007,0.068c-0.106,0.702-0.303,1.216-0.552,1.541
		c-0.257,0.317-0.552,0.446-0.839,0.446c-0.316,0-0.656-0.144-0.913-0.529c-0.325-0.491-0.56-1.314-0.635-2.409
		c-0.045-0.604-0.053-1.488-0.053-2.296C49.162,44.343,49.29,44.222,49.502,44.222z M53.671,44.607c0.099,0,0.189,0.045,0.257,0.151
		c0.726,0.982,1.262,2.507,1.367,3.799c0,0.022,0,0.038,0,0.053c0,0.196-0.075,0.325-0.265,0.362
		c-0.03,0.008-0.06,0.008-0.083,0.008c-0.174,0-0.294-0.106-0.31-0.294c-0.105-1.269-0.566-2.629-1.246-3.588
		c-0.038-0.061-0.061-0.128-0.061-0.189c0-0.105,0.061-0.204,0.159-0.249C53.55,44.622,53.61,44.607,53.671,44.607z"/>
	<path d="M57.07,48.822c-0.076,0.128-0.174,0.196-0.28,0.196c-0.067,0-0.136-0.022-0.211-0.068c-0.099-0.061-0.144-0.151-0.144-0.25
		c0-0.068,0.022-0.151,0.067-0.227c0.521-0.883,1.027-1.963,1.337-2.983c-0.279,0.015-0.573,0.023-0.868,0.023
		c-0.091,0-0.188,0-0.287,0c-0.174,0-0.265-0.113-0.265-0.295c0-0.181,0.106-0.294,0.28-0.294c0.105,0,0.211,0,0.324,0
		c0.325,0,0.665-0.007,0.989-0.022c0.106-0.37,0.196-0.748,0.272-1.133c0.015-0.166,0.128-0.249,0.279-0.249
		c0.022,0,0.045,0,0.075,0.007c0.166,0.03,0.265,0.113,0.265,0.265c0,0.03,0,0.061-0.008,0.098c-0.067,0.31-0.144,0.634-0.227,0.959
		c0.37-0.03,0.726-0.06,1.043-0.105c0.022-0.008,0.045-0.008,0.067-0.008c0.151,0,0.242,0.091,0.272,0.25c0,0.015,0,0.03,0,0.045
		c0,0.144-0.091,0.257-0.272,0.287c-0.393,0.061-0.838,0.099-1.291,0.136C58.127,46.639,57.637,47.833,57.07,48.822z M62.787,48.996
		c0.076,0.075,0.113,0.166,0.113,0.249c0,0.076-0.029,0.151-0.083,0.211c-0.067,0.068-0.144,0.106-0.219,0.106
		s-0.158-0.038-0.227-0.098c-0.295-0.294-0.665-0.604-0.981-0.786c0.015,0.091,0.015,0.189,0.015,0.257
		c-0.038,0.823-0.566,1.208-1.594,1.208c-0.944,0-1.571-0.499-1.571-1.208c0-0.725,0.643-1.246,1.579-1.246
		c0.317,0,0.627,0.045,0.937,0.128c-0.045-0.423-0.083-1.02-0.083-1.511c0-0.219,0.128-0.31,0.294-0.31
		c0.182,0,0.311,0.098,0.311,0.31c0,0.649,0.03,1.178,0.09,1.714C61.874,48.263,62.41,48.618,62.787,48.996z M59.834,48.225
		c-0.611,0-0.997,0.287-0.997,0.703c0,0.415,0.37,0.649,0.99,0.649c0.642,0,0.989-0.242,0.989-0.778c0-0.121,0-0.227-0.016-0.378
		C60.499,48.286,60.159,48.225,59.834,48.225z M62.682,45.453c0.105,0.068,0.151,0.181,0.151,0.279c0,0.061-0.016,0.121-0.046,0.174
		c-0.06,0.091-0.158,0.144-0.256,0.144c-0.068,0-0.129-0.022-0.189-0.061c-0.445-0.31-1.012-0.604-1.578-0.831
		c-0.099-0.038-0.144-0.128-0.144-0.227c0-0.061,0.015-0.121,0.045-0.174c0.068-0.106,0.166-0.159,0.279-0.159
		c0.046,0,0.091,0.007,0.137,0.022C61.654,44.841,62.259,45.166,62.682,45.453z"/>
	<path d="M64.623,44.222c0.241,0,0.302,0.128,0.302,0.317c0,0.317,0,0.65,0,0.967c0,0.483,0.008,0.937,0.03,1.284
		c0.075,0.906,0.204,1.488,0.431,1.941c0.099,0.197,0.295,0.34,0.461,0.34c0.174,0,0.317-0.06,0.431-0.234
		c0.158-0.234,0.294-0.627,0.37-1.148c0.03-0.189,0.113-0.272,0.271-0.272c0.022,0,0.053,0,0.075,0.007
		c0.174,0.023,0.287,0.113,0.287,0.295c0,0.022,0,0.045-0.007,0.068c-0.106,0.702-0.303,1.216-0.552,1.541
		c-0.257,0.317-0.552,0.446-0.839,0.446c-0.316,0-0.656-0.144-0.913-0.529c-0.325-0.491-0.56-1.314-0.635-2.409
		c-0.045-0.604-0.053-1.488-0.053-2.296C64.283,44.343,64.411,44.222,64.623,44.222z M68.792,44.607
		c0.099,0,0.189,0.045,0.257,0.151c0.726,0.982,1.262,2.507,1.367,3.799c0,0.022,0,0.038,0,0.053c0,0.196-0.075,0.325-0.265,0.362
		c-0.03,0.008-0.06,0.008-0.083,0.008c-0.174,0-0.294-0.106-0.31-0.294c-0.105-1.269-0.566-2.629-1.246-3.588
		c-0.038-0.061-0.061-0.128-0.061-0.189c0-0.105,0.061-0.204,0.159-0.249C68.671,44.622,68.731,44.607,68.792,44.607z"/>
	<path d="M73.565,44.894c0.386,0,0.604,0.136,0.604,0.521c0,0.038,0,0.075-0.008,0.113c-0.121,1.11-0.407,2.054-0.831,2.832
		c0.272,0.242,0.529,0.491,0.764,0.74c0.053,0.053,0.075,0.128,0.075,0.197c0,0.083-0.03,0.158-0.099,0.227
		c-0.06,0.06-0.136,0.098-0.211,0.098c-0.068,0-0.136-0.03-0.196-0.106c-0.182-0.219-0.4-0.446-0.635-0.665
		c-0.362,0.536-0.801,0.982-1.299,1.344c-0.061,0.045-0.129,0.068-0.182,0.068c-0.091,0-0.166-0.045-0.227-0.128
		c-0.038-0.045-0.061-0.113-0.061-0.174c0-0.091,0.038-0.174,0.113-0.227c0.491-0.325,0.914-0.74,1.254-1.239
		c-0.287-0.25-0.589-0.483-0.876-0.695c-0.158-0.106-0.234-0.242-0.234-0.408c0-0.09,0.022-0.188,0.068-0.294
		c0.211-0.476,0.407-1.057,0.574-1.684h-0.635c-0.144,0-0.219-0.106-0.219-0.265c0-0.151,0.075-0.257,0.219-0.257h0.755
		c0.083-0.4,0.151-0.808,0.196-1.216c0.008-0.151,0.099-0.219,0.265-0.219c0.016,0,0.03,0,0.053,0
		c0.159,0.015,0.265,0.091,0.265,0.234c0,0.015,0,0.03,0,0.045c-0.053,0.393-0.121,0.778-0.204,1.155H73.565z M72.728,45.416
		c-0.166,0.657-0.37,1.261-0.574,1.76c-0.022,0.053-0.038,0.105-0.038,0.144c0,0.068,0.038,0.113,0.113,0.166
		c0.227,0.159,0.461,0.34,0.688,0.529c0.348-0.657,0.582-1.45,0.68-2.395c0-0.015,0-0.03,0-0.045c0-0.121-0.061-0.158-0.196-0.158
		H72.728z M76.488,49.615c0,0.506-0.316,0.718-0.883,0.718c-0.272,0-0.582-0.03-0.786-0.076c-0.121-0.03-0.211-0.136-0.211-0.272
		c0-0.022,0-0.053,0.007-0.075c0.038-0.159,0.129-0.234,0.257-0.234c0.022,0,0.046,0,0.068,0.007
		c0.158,0.038,0.461,0.076,0.635,0.076c0.257,0,0.347-0.068,0.347-0.287v-2.258h-1.48c-0.136,0-0.211-0.105-0.211-0.272
		c0-0.166,0.075-0.272,0.211-0.272h1.48V45.71c0-0.166,0.113-0.242,0.287-0.242c0.038,0,0.068,0,0.099,0.007
		c0.4-0.287,0.755-0.589,0.967-0.914c0.03-0.045,0.045-0.083,0.045-0.106c0-0.053-0.045-0.076-0.128-0.076h-2.523
		c-0.144,0-0.233-0.113-0.233-0.279s0.09-0.272,0.233-0.272h2.803c0.37,0,0.551,0.211,0.551,0.453c0,0.113-0.037,0.227-0.105,0.333
		c-0.332,0.506-0.823,0.929-1.428,1.367v0.687h1.654c0.136,0,0.212,0.106,0.212,0.272c0,0.167-0.076,0.272-0.212,0.272h-1.654
		V49.615z"/>
	<path d="M79.2,47.946c-0.136,0-0.212-0.113-0.212-0.272s0.076-0.257,0.212-0.257h2.802v-0.65c0-0.136,0.106-0.211,0.272-0.211
		s0.287,0.076,0.287,0.211v0.65h2.931c0.136,0,0.211,0.098,0.211,0.257c0,0.151-0.075,0.272-0.211,0.272h-2.561
		c0.634,0.68,1.684,1.322,2.628,1.631c0.137,0.045,0.204,0.151,0.204,0.279c0,0.038-0.008,0.083-0.022,0.121
		c-0.045,0.128-0.159,0.196-0.279,0.196c-0.038,0-0.076-0.008-0.113-0.023c-1.058-0.408-2.206-1.17-2.84-1.986
		c0.03,0.167,0.053,0.378,0.053,0.551v1.541c0,0.128-0.121,0.211-0.287,0.211s-0.272-0.083-0.272-0.211v-1.541
		c0-0.181,0.016-0.393,0.054-0.551c-0.643,0.793-1.617,1.511-2.712,1.972c-0.045,0.022-0.091,0.03-0.136,0.03
		c-0.113,0-0.212-0.068-0.257-0.196c-0.022-0.045-0.03-0.09-0.03-0.136c0-0.106,0.061-0.189,0.181-0.242
		c1.035-0.4,1.934-1.005,2.53-1.646H79.2z M83.822,43.935c0.325,0,0.507,0.188,0.507,0.415c0,0.114-0.054,0.242-0.159,0.355
		c-0.362,0.362-0.763,0.687-1.208,0.974c0.771,0.37,1.646,0.604,2.613,0.74c0.158,0.022,0.249,0.121,0.249,0.264
		c0,0.023,0,0.053-0.008,0.076c-0.03,0.174-0.136,0.25-0.271,0.25c-0.022,0-0.038,0-0.061-0.008
		c-1.133-0.166-2.168-0.499-3.059-1.012c-0.952,0.514-2.032,0.861-3.157,1.042c-0.023,0.007-0.046,0.007-0.068,0.007
		c-0.136,0-0.234-0.09-0.249-0.242c-0.008-0.015-0.008-0.03-0.008-0.053c0-0.128,0.075-0.242,0.219-0.264
		c0.997-0.144,1.934-0.423,2.75-0.808c-0.378-0.257-0.726-0.559-1.035-0.899c-0.385,0.332-0.815,0.634-1.262,0.846
		c-0.053,0.023-0.098,0.03-0.144,0.03c-0.098,0-0.188-0.053-0.241-0.151c-0.022-0.045-0.038-0.098-0.038-0.136
		c0-0.09,0.053-0.173,0.151-0.219c0.937-0.453,1.616-1.073,2.039-1.7c0.053-0.068,0.144-0.105,0.249-0.105
		c0.038,0,0.076,0.007,0.113,0.015c0.121,0.038,0.197,0.128,0.197,0.219c0,0.045-0.016,0.083-0.046,0.121
		c-0.053,0.075-0.113,0.159-0.182,0.242H83.822z M81.277,44.411c-0.016,0.015-0.03,0.023-0.038,0.038
		c0.355,0.362,0.756,0.695,1.193,0.952c0.423-0.25,0.809-0.529,1.133-0.846c0.046-0.045,0.068-0.076,0.068-0.098
		c0-0.03-0.045-0.045-0.121-0.045H81.277z"/>
	<path d="M87.342,47.364c0-0.363,0.016-0.763,0.054-1.186c-0.167,0.279-0.34,0.544-0.536,0.793
		c-0.061,0.076-0.144,0.113-0.234,0.113c-0.068,0-0.136-0.022-0.196-0.075c-0.076-0.068-0.113-0.144-0.113-0.227
		c0-0.068,0.022-0.136,0.075-0.188c0.649-0.771,1.262-1.881,1.541-2.968c0.03-0.121,0.128-0.189,0.264-0.189
		c0.03,0,0.061,0.007,0.099,0.007c0.144,0.038,0.227,0.121,0.227,0.242c0,0.03-0.008,0.061-0.015,0.091
		c-0.144,0.499-0.355,0.989-0.582,1.473v4.917c0,0.144-0.121,0.227-0.302,0.227c-0.174,0-0.28-0.083-0.28-0.227V47.364z
		 M91.285,50.174c0,0.144-0.105,0.219-0.287,0.219c-0.174,0-0.295-0.076-0.295-0.219v-2.41h-2.107c-0.144,0-0.227-0.113-0.227-0.271
		c0-0.159,0.083-0.272,0.227-0.272h2.107v-1.617h-1.246c-0.166,0.355-0.348,0.688-0.559,0.99c-0.053,0.075-0.144,0.113-0.234,0.113
		c-0.061,0-0.113-0.015-0.166-0.053c-0.075-0.053-0.113-0.128-0.113-0.211c0-0.068,0.022-0.144,0.067-0.204
		c0.4-0.529,0.794-1.413,0.982-2.221c0.03-0.144,0.128-0.219,0.265-0.219c0.022,0,0.053,0,0.075,0.008
		c0.136,0.022,0.212,0.113,0.212,0.242c0,0.038-0.008,0.075-0.016,0.113c-0.091,0.31-0.182,0.612-0.295,0.899h1.027v-1.397
		c0-0.144,0.121-0.227,0.295-0.227c0.182,0,0.287,0.083,0.287,0.227v1.397h1.654c0.136,0,0.219,0.105,0.219,0.271
		c0,0.159-0.083,0.272-0.219,0.272h-1.654v1.617h1.941c0.136,0,0.227,0.113,0.227,0.272c0,0.166-0.091,0.271-0.227,0.271h-1.941
		V50.174z"/>
</g>
<g>
	<path d="M51.535,18.278c-0.128,0-0.196-0.098-0.196-0.242s0.068-0.227,0.196-0.227h6.647c0.12,0,0.196,0.083,0.196,0.227
		s-0.076,0.242-0.196,0.242h-3.505v3.429c0,0.144-0.099,0.227-0.265,0.227c-0.181,0-0.265-0.083-0.265-0.227v-0.649
		c-0.883,0.181-1.82,0.317-2.537,0.393c-0.016,0-0.023,0-0.03,0c-0.144,0-0.234-0.098-0.234-0.242
		c-0.008-0.015-0.008-0.038-0.008-0.053c0-0.128,0.076-0.219,0.196-0.227c0.159-0.015,0.333-0.03,0.514-0.045v-2.606H51.535z
		 M56.913,15.098c0.453,0,0.657,0.181,0.657,0.597v1.118c0,0.416-0.204,0.589-0.657,0.589h-4.102c-0.453,0-0.649-0.174-0.649-0.589
		v-1.118c0-0.416,0.196-0.597,0.649-0.597H56.913z M52.578,18.776h1.57v-0.499h-1.57V18.776z M52.578,19.721h1.57v-0.514h-1.57
		V19.721z M52.578,20.831c0.528-0.053,1.05-0.136,1.57-0.234v-0.453h-1.57V20.831z M57.026,16.035v-0.317
		c0-0.144-0.075-0.181-0.211-0.181h-3.897c-0.137,0-0.212,0.038-0.212,0.181v0.317H57.026z M52.706,16.783
		c0,0.143,0.075,0.188,0.212,0.188h3.897c0.136,0,0.211-0.045,0.211-0.188v-0.325h-4.32V16.783z M55.115,19.214
		c-0.128,0-0.203-0.098-0.203-0.234c0-0.144,0.075-0.234,0.203-0.234h2.236c0.332,0,0.498,0.167,0.498,0.408
		c0,0.113-0.037,0.242-0.105,0.377c-0.219,0.408-0.506,0.793-0.846,1.133c0.385,0.287,0.815,0.506,1.238,0.65
		c0.113,0.038,0.166,0.113,0.166,0.211c0,0.045-0.007,0.091-0.03,0.144c-0.053,0.128-0.144,0.188-0.249,0.188
		c-0.038,0-0.083-0.007-0.121-0.022c-0.49-0.196-0.967-0.468-1.382-0.823c-0.378,0.317-0.793,0.582-1.224,0.778
		c-0.068,0.03-0.121,0.045-0.174,0.045c-0.098,0-0.174-0.053-0.211-0.136c-0.023-0.045-0.038-0.091-0.038-0.136
		c0-0.09,0.045-0.181,0.144-0.219c0.393-0.174,0.778-0.408,1.118-0.688c-0.394-0.423-0.695-0.899-0.892-1.443H55.115z
		 M55.742,19.214c0.182,0.423,0.438,0.786,0.764,1.118c0.286-0.287,0.528-0.597,0.702-0.914c0.03-0.053,0.045-0.091,0.045-0.121
		c0-0.053-0.045-0.083-0.136-0.083H55.742z"/>
	<path d="M60.259,20.008c0,0.03-0.007,0.075-0.015,0.113c-0.158,0.499-0.378,0.959-0.649,1.337
		c-0.068,0.098-0.159,0.151-0.249,0.151c-0.068,0-0.137-0.022-0.204-0.068c-0.076-0.053-0.113-0.136-0.113-0.227
		c0-0.061,0.022-0.128,0.061-0.181c0.241-0.325,0.476-0.771,0.619-1.209c0.045-0.128,0.136-0.188,0.241-0.188
		c0.038,0,0.076,0.007,0.113,0.022C60.191,19.804,60.259,19.895,60.259,20.008z M59.255,16.042c-0.129,0-0.212-0.106-0.212-0.257
		c0-0.167,0.083-0.257,0.212-0.257h2.87v-0.468c0-0.151,0.105-0.204,0.271-0.204s0.279,0.053,0.279,0.204v0.468h2.916
		c0.128,0,0.211,0.098,0.211,0.257c0,0.151-0.083,0.257-0.211,0.257h-2.916v0.543h1.775c0.461,0,0.665,0.159,0.665,0.544v1.639
		c0,0.393-0.204,0.551-0.665,0.551h-4.033c-0.461,0-0.665-0.159-0.665-0.551V17.13c0-0.385,0.204-0.544,0.665-0.544h1.707v-0.543
		H59.255z M60.531,17.039c-0.136,0-0.219,0.038-0.219,0.174v0.506h1.813v-0.68H60.531z M60.313,18.165v0.529
		c0,0.136,0.083,0.174,0.219,0.174h1.594v-0.703H60.313z M61.445,20.982c0,0.234,0.083,0.272,1.064,0.272
		c0.884,0,1.103-0.053,1.193-0.159c0.068-0.083,0.099-0.242,0.106-0.393c0.007-0.167,0.105-0.25,0.271-0.25c0.008,0,0.015,0,0.022,0
		c0.174,0.008,0.272,0.113,0.272,0.265c0,0.007,0,0.007,0,0.015c-0.023,0.317-0.106,0.574-0.22,0.717
		c-0.158,0.211-0.468,0.31-1.631,0.31c-1.428,0-1.654-0.113-1.654-0.642v-1.277c0-0.144,0.105-0.219,0.279-0.219
		c0.182,0,0.295,0.075,0.295,0.219V20.982z M63.228,20.211c0.061,0.061,0.083,0.128,0.083,0.196c0,0.068-0.03,0.136-0.083,0.189
		c-0.053,0.061-0.121,0.091-0.188,0.091c-0.068,0-0.137-0.03-0.189-0.091c-0.219-0.227-0.528-0.499-0.793-0.687
		c-0.067-0.045-0.105-0.113-0.105-0.182c0-0.053,0.022-0.105,0.068-0.166c0.06-0.061,0.12-0.083,0.188-0.083
		c0.053,0,0.113,0.022,0.166,0.053C62.653,19.706,63.001,19.978,63.228,20.211z M62.676,17.719h1.881v-0.506
		c0-0.136-0.083-0.174-0.219-0.174h-1.662V17.719z M62.676,18.867h1.662c0.136,0,0.219-0.038,0.219-0.174v-0.529h-1.881V18.867z
		 M64.708,19.675c0.075,0,0.151,0.038,0.219,0.113c0.317,0.355,0.649,0.831,0.884,1.246c0.03,0.053,0.046,0.113,0.046,0.167
		c0,0.105-0.054,0.196-0.159,0.257c-0.045,0.022-0.098,0.038-0.144,0.038c-0.105,0-0.204-0.061-0.257-0.166
		c-0.196-0.385-0.528-0.876-0.815-1.224c-0.053-0.061-0.075-0.121-0.075-0.174c0-0.083,0.053-0.159,0.136-0.211
		C64.603,19.69,64.655,19.675,64.708,19.675z"/>
	<path d="M73.25,20.952c0,0.476-0.219,0.68-0.694,0.68h-5.129c-0.476,0-0.702-0.204-0.702-0.68v-5.113
		c0-0.476,0.227-0.695,0.702-0.695h5.129c0.476,0,0.694,0.219,0.694,0.695V20.952z M72.321,21.103c0.257,0,0.34-0.076,0.34-0.295
		v-4.841c0-0.219-0.083-0.294-0.34-0.294h-4.66c-0.265,0-0.348,0.075-0.348,0.294v4.841c0,0.219,0.083,0.295,0.348,0.295H72.321z
		 M67.979,16.911c-0.136,0-0.204-0.113-0.204-0.256c0-0.151,0.068-0.257,0.204-0.257h4.019c0.136,0,0.211,0.105,0.211,0.257
		c0,0.143-0.075,0.256-0.211,0.256h-1.82v1.148h1.563c0.136,0,0.211,0.09,0.211,0.234s-0.075,0.25-0.211,0.25h-1.563v1.322h1.903
		c0.136,0,0.211,0.105,0.211,0.257c0,0.144-0.075,0.257-0.211,0.257h-4.185c-0.136,0-0.212-0.113-0.212-0.257
		c0-0.151,0.076-0.257,0.212-0.257h1.714v-1.322h-1.382c-0.128,0-0.204-0.106-0.204-0.25s0.076-0.234,0.204-0.234h1.382v-1.148
		H67.979z M71.113,18.678c0.075,0,0.136,0.03,0.188,0.098c0.128,0.174,0.279,0.408,0.378,0.604c0.015,0.022,0.022,0.053,0.022,0.083
		c0,0.083-0.053,0.166-0.159,0.219c-0.045,0.015-0.09,0.03-0.136,0.03c-0.075,0-0.15-0.038-0.196-0.121
		c-0.098-0.181-0.241-0.416-0.354-0.589c-0.023-0.03-0.03-0.06-0.03-0.09c0-0.083,0.053-0.151,0.144-0.196
		C71.022,18.693,71.067,18.678,71.113,18.678z"/>
	<path d="M74.98,19.388c0-0.302,0.022-0.619,0.075-0.959c-0.174,0.219-0.393,0.438-0.566,0.589
		c-0.053,0.045-0.113,0.068-0.166,0.068c-0.083,0-0.159-0.045-0.227-0.121c-0.046-0.053-0.068-0.121-0.068-0.189
		c0-0.075,0.03-0.159,0.105-0.219c0.649-0.521,1.156-1.125,1.549-1.835c0.053-0.091,0.136-0.144,0.227-0.144
		c0.053,0,0.105,0.015,0.151,0.045c0.09,0.053,0.136,0.128,0.136,0.211c0,0.045-0.016,0.098-0.046,0.159
		c-0.15,0.287-0.362,0.604-0.597,0.891v3.792c0,0.144-0.113,0.219-0.287,0.219c-0.166,0-0.286-0.076-0.286-0.219V19.388z
		 M76.158,15.159c0,0.045-0.015,0.098-0.053,0.159c-0.348,0.559-0.914,1.14-1.495,1.579c-0.061,0.045-0.121,0.068-0.182,0.068
		c-0.083,0-0.159-0.038-0.219-0.121c-0.046-0.06-0.068-0.121-0.068-0.181c0-0.083,0.038-0.166,0.121-0.219
		c0.544-0.393,1.042-0.898,1.382-1.435c0.053-0.075,0.129-0.113,0.212-0.113c0.061,0,0.12,0.015,0.174,0.053
		C76.113,15,76.158,15.076,76.158,15.159z M78.243,16.269h-1.519c-0.144,0-0.219-0.098-0.219-0.25c0-0.159,0.075-0.264,0.219-0.264
		h1.519v-0.68c0-0.136,0.105-0.204,0.279-0.204s0.279,0.068,0.279,0.204v0.68h1.662c0.144,0,0.211,0.105,0.211,0.264
		c0,0.144-0.067,0.25-0.211,0.25h-1.662v0.952h1.986c0.144,0,0.212,0.105,0.212,0.257c0,0.151-0.068,0.264-0.212,0.264h-0.854v0.846
		h0.869c0.136,0,0.211,0.098,0.211,0.256c0,0.144-0.075,0.257-0.211,0.257h-0.869v2.017c0,0.521-0.271,0.702-0.86,0.702
		c-0.295,0-0.544-0.015-0.764-0.068c-0.105-0.022-0.188-0.113-0.188-0.25c0-0.022,0-0.053,0.008-0.075
		c0.03-0.144,0.128-0.227,0.241-0.227c0.016,0,0.038,0,0.053,0.007c0.167,0.045,0.363,0.076,0.59,0.076
		c0.302,0,0.362-0.061,0.362-0.302v-1.881h-3.014c-0.136,0-0.212-0.105-0.212-0.257c0-0.158,0.076-0.256,0.212-0.256h3.014v-0.846
		h-2.938c-0.144,0-0.211-0.113-0.211-0.264c0-0.151,0.067-0.257,0.211-0.257h1.806V16.269z M77.141,19.396
		c0.075,0,0.15,0.03,0.211,0.083c0.295,0.272,0.597,0.597,0.846,0.937c0.038,0.053,0.053,0.106,0.053,0.166
		c0,0.083-0.037,0.167-0.113,0.227c-0.067,0.061-0.143,0.091-0.219,0.091c-0.075,0-0.144-0.038-0.196-0.106
		c-0.257-0.332-0.528-0.649-0.823-0.952c-0.045-0.045-0.068-0.098-0.068-0.158c0-0.068,0.038-0.144,0.113-0.212
		C77.004,19.418,77.072,19.396,77.141,19.396z"/>
	<path d="M83.152,20.34c0.219,0.491,0.649,0.718,1.11,0.793c0.354,0.053,0.846,0.083,1.473,0.083c0.929,0,1.866-0.038,2.636-0.098
		c0.016,0,0.023,0,0.038,0c0.182,0,0.257,0.098,0.265,0.271c0,0.015,0,0.023,0,0.038c0,0.159-0.105,0.264-0.279,0.272
		c-0.771,0.038-1.806,0.06-2.704,0.06c-0.649,0-1.224-0.03-1.602-0.121c-0.544-0.113-0.981-0.393-1.216-0.838
		c-0.272,0.325-0.574,0.619-0.899,0.876c-0.045,0.038-0.105,0.061-0.166,0.061c-0.075,0-0.158-0.038-0.227-0.121
		c-0.045-0.068-0.067-0.136-0.067-0.197c0-0.083,0.037-0.151,0.098-0.196c0.295-0.219,0.702-0.582,0.975-0.914v-1.639
		c0-0.151-0.038-0.197-0.174-0.197h-0.611c-0.137,0-0.227-0.09-0.227-0.264s0.09-0.264,0.227-0.264h0.8
		c0.394,0,0.552,0.196,0.552,0.597V20.34z M83.296,16.314c0.038,0.053,0.061,0.113,0.061,0.174c0,0.083-0.038,0.167-0.129,0.234
		c-0.067,0.045-0.136,0.068-0.204,0.068c-0.083,0-0.158-0.038-0.211-0.113c-0.257-0.393-0.597-0.808-0.922-1.125
		c-0.053-0.053-0.075-0.113-0.075-0.174c0-0.068,0.03-0.136,0.099-0.196c0.075-0.061,0.143-0.091,0.211-0.091
		s0.129,0.023,0.182,0.076C82.639,15.46,83.031,15.929,83.296,16.314z M85.751,18.61h-1.209c-0.158,0-0.234,0.053-0.234,0.204v1.707
		c0,0.143-0.105,0.211-0.271,0.211c-0.151,0-0.272-0.076-0.272-0.219v-1.783c0-0.423,0.212-0.589,0.635-0.589h1.353v-0.514h-1.08
		c-0.446,0-0.643-0.159-0.643-0.574V15.68c0-0.408,0.196-0.566,0.643-0.566h2.749c0.445,0,0.642,0.159,0.642,0.566v1.375
		c0,0.416-0.196,0.574-0.642,0.574h-1.155v0.514h1.473c0.431,0,0.642,0.166,0.642,0.589v1.458c0,0.446-0.271,0.612-0.748,0.612
		c-0.249,0-0.513-0.03-0.619-0.061c-0.105-0.03-0.181-0.098-0.181-0.227c0-0.015,0-0.038,0.007-0.061
		c0.023-0.128,0.113-0.188,0.204-0.188c0.016,0,0.03,0,0.046,0.007c0.136,0.03,0.302,0.061,0.453,0.061
		c0.241,0,0.31-0.061,0.31-0.272v-1.246c0-0.151-0.083-0.204-0.234-0.204h-1.352v0.838c0.196-0.03,0.393-0.068,0.581-0.106
		c-0.053-0.083-0.105-0.173-0.158-0.249c-0.023-0.03-0.038-0.068-0.038-0.106c0-0.068,0.038-0.136,0.113-0.173
		c0.038-0.023,0.083-0.03,0.121-0.03c0.075,0,0.15,0.038,0.196,0.098c0.204,0.279,0.4,0.634,0.506,0.906
		c0.016,0.038,0.022,0.068,0.022,0.106c0,0.075-0.037,0.136-0.105,0.166c-0.045,0.022-0.091,0.03-0.136,0.03
		c-0.091,0-0.166-0.038-0.204-0.128c-0.022-0.068-0.061-0.144-0.099-0.227c-0.747,0.174-1.556,0.317-2.183,0.385
		c-0.008,0-0.022,0-0.03,0c-0.136,0-0.227-0.091-0.241-0.242c0-0.015,0-0.023,0-0.038c0-0.128,0.075-0.219,0.204-0.227
		c0.294-0.022,0.611-0.053,0.937-0.09V18.61z M84.769,15.559c-0.144,0-0.211,0.038-0.211,0.181v0.431h1.193v-0.612H84.769z
		 M84.558,16.594v0.445c0,0.136,0.067,0.174,0.211,0.174h0.982v-0.619H84.558z M86.265,16.171h1.269V15.74
		c0-0.144-0.068-0.181-0.212-0.181h-1.057V16.171z M86.265,17.213h1.057c0.144,0,0.212-0.038,0.212-0.174v-0.445h-1.269V17.213z"/>
	<path d="M93.825,16.216c-0.37,0.076-0.695,0.113-0.944,0.136c-1.08,0.09-2.138,0.188-3.097,0.264c-0.016,0-0.023,0-0.038,0
		c-0.196,0-0.31-0.113-0.325-0.287c0-0.015,0-0.022,0-0.03c0-0.167,0.113-0.302,0.28-0.317c1.843-0.144,3.837-0.272,5.664-0.355
		c0.008,0,0.016,0,0.023,0c0.211,0,0.31,0.121,0.324,0.294c0,0.008,0,0.015,0,0.022c0,0.159-0.075,0.302-0.295,0.325
		c-0.128,0.015-0.249,0.03-0.423,0.06c-1.631,0.272-2.771,1.36-2.771,2.576c0,0.755,0.423,1.208,0.967,1.458
		c0.4,0.188,0.906,0.272,1.412,0.279c0.219,0,0.333,0.136,0.333,0.31c0,0.015,0,0.023,0,0.038c-0.016,0.219-0.137,0.34-0.363,0.34
		c-0.627,0-1.224-0.121-1.699-0.348c-0.778-0.377-1.299-1.065-1.299-2.024c0-1.14,0.801-2.175,2.258-2.696L93.825,16.216z
		 M94.55,17.221c0.068,0,0.136,0.022,0.188,0.083c0.212,0.234,0.438,0.506,0.604,0.748c0.03,0.053,0.046,0.106,0.046,0.167
		c0,0.09-0.038,0.173-0.099,0.227c-0.045,0.03-0.099,0.045-0.158,0.045c-0.091,0-0.182-0.038-0.242-0.113
		c-0.158-0.242-0.37-0.513-0.566-0.74c-0.038-0.045-0.061-0.105-0.061-0.158c0-0.076,0.046-0.151,0.113-0.204
		C94.429,17.243,94.489,17.221,94.55,17.221z M95.313,16.768c0.076,0,0.151,0.03,0.212,0.083c0.204,0.211,0.407,0.491,0.559,0.717
		c0.046,0.061,0.061,0.121,0.061,0.174c0,0.091-0.045,0.166-0.113,0.211c-0.045,0.03-0.099,0.053-0.151,0.053
		c-0.083,0-0.166-0.045-0.227-0.136c-0.158-0.234-0.348-0.499-0.528-0.688c-0.046-0.053-0.068-0.113-0.068-0.166
		c0-0.083,0.038-0.159,0.106-0.204C95.207,16.783,95.26,16.768,95.313,16.768z"/>
	<path d="M99.31,21.141c-0.053,0.151-0.166,0.211-0.295,0.211c-0.053,0-0.098-0.007-0.15-0.022c-0.151-0.038-0.265-0.167-0.265-0.31
		c0-0.045,0.008-0.083,0.022-0.128l2.055-5.159c0.098-0.257,0.287-0.355,0.521-0.355c0.241,0,0.438,0.098,0.536,0.355l2.054,5.174
		c0.023,0.045,0.03,0.083,0.03,0.128c0,0.151-0.12,0.265-0.271,0.302c-0.045,0.015-0.091,0.023-0.136,0.023
		c-0.136,0-0.257-0.068-0.31-0.212l-0.597-1.563h-2.613L99.31,21.141z M102.278,18.95l-0.839-2.198
		c-0.083-0.219-0.166-0.461-0.234-0.718c-0.067,0.257-0.144,0.499-0.233,0.725l-0.854,2.19H102.278z"/>
	<path d="M108.011,15.483c0,0.03-0.008,0.061-0.016,0.098c-0.271,1.004-0.415,2.198-0.415,3.301c0,0.748,0.067,1.548,0.196,2.251
		c0.008,0.038,0.008,0.075,0.008,0.113c0,0.173-0.099,0.264-0.257,0.302c-0.03,0.008-0.061,0.008-0.084,0.008
		c-0.143,0-0.256-0.083-0.294-0.287c-0.144-0.695-0.212-1.511-0.212-2.356c0-1.178,0.144-2.402,0.431-3.467
		c0.046-0.159,0.166-0.227,0.302-0.227c0.03,0,0.054,0,0.084,0.008C107.904,15.249,108.011,15.34,108.011,15.483z M109.74,18.671
		c0,0.075-0.038,0.144-0.099,0.204c-0.317,0.302-0.438,0.589-0.438,0.876c0,0.468,0.407,0.71,1.465,0.71
		c0.649,0,1.345-0.068,1.858-0.181c0.03-0.008,0.061-0.008,0.091-0.008c0.15,0,0.264,0.098,0.294,0.25
		c0.008,0.03,0.008,0.053,0.008,0.083c0,0.151-0.091,0.294-0.257,0.325c-0.559,0.113-1.224,0.166-1.919,0.166
		c-1.39,0-2.13-0.393-2.13-1.344c0-0.461,0.189-0.892,0.574-1.254c0.083-0.076,0.174-0.113,0.257-0.113
		c0.068,0,0.136,0.03,0.196,0.083C109.71,18.535,109.74,18.603,109.74,18.671z M112.315,16.035c0.188,0,0.287,0.106,0.31,0.279
		c0,0.008,0,0.015,0,0.023c0,0.174-0.075,0.317-0.294,0.34c-0.635,0.076-1.541,0.113-2.364,0.113c-0.279,0-0.552-0.007-0.801-0.015
		c-0.234-0.007-0.317-0.159-0.317-0.333c0.008-0.166,0.113-0.317,0.31-0.317c0.008,0,0.008,0,0.016,0
		c0.241,0.007,0.514,0.015,0.793,0.015c0.801,0,1.677-0.038,2.288-0.106C112.277,16.035,112.293,16.035,112.315,16.035z"/>
	<path d="M117.09,18.24c0.431,0,0.823-0.015,1.171-0.053c0.015,0,0.038,0,0.053,0c0.174,0,0.257,0.098,0.272,0.257
		c0,0.015,0,0.03,0,0.045c0,0.159-0.084,0.272-0.28,0.295c-0.354,0.038-0.777,0.053-1.23,0.053c-0.234,0-0.477-0.007-0.726-0.015
		c-0.061,0.385-0.083,0.68-0.083,0.975c0,0.355,0.121,0.642,0.348,0.831c0.265,0.219,0.672,0.317,1.201,0.317
		c1.11,0,1.774-0.483,1.774-1.276c0-0.416-0.158-0.831-0.461-1.186c-0.045-0.053-0.067-0.121-0.067-0.181
		c0-0.091,0.053-0.182,0.136-0.242c0.061-0.038,0.121-0.053,0.182-0.053c0.09,0,0.181,0.045,0.257,0.136
		c0.37,0.446,0.589,0.997,0.589,1.496c0,1.224-0.944,1.911-2.387,1.911c-0.695,0-1.246-0.136-1.624-0.438
		c-0.362-0.287-0.552-0.703-0.552-1.337c0-0.279,0.023-0.582,0.076-0.982c-0.431-0.038-0.869-0.09-1.254-0.166
		c-0.144-0.03-0.234-0.144-0.234-0.287c0-0.022,0-0.038,0.008-0.061c0.022-0.159,0.128-0.249,0.264-0.249
		c0.016,0,0.038,0,0.061,0.007c0.37,0.068,0.793,0.121,1.247,0.159c0.06-0.416,0.136-0.854,0.219-1.261
		c-0.476-0.03-0.922-0.083-1.345-0.151c-0.136-0.015-0.219-0.136-0.219-0.272c0-0.023,0-0.045,0.008-0.068
		c0.022-0.143,0.12-0.234,0.256-0.234c0.016,0,0.038,0,0.054,0c0.37,0.053,0.808,0.105,1.352,0.136
		c0.061-0.34,0.136-0.695,0.196-1.027c0.03-0.167,0.129-0.25,0.279-0.25c0.023,0,0.046,0,0.076,0.008
		c0.181,0.022,0.249,0.143,0.249,0.271c0,0.023,0,0.053-0.008,0.076c-0.067,0.31-0.136,0.634-0.196,0.952c0.099,0,0.204,0,0.31,0
		c0.431,0,0.884-0.015,1.359-0.061c0.008,0,0.023,0,0.03,0c0.159,0,0.265,0.106,0.272,0.257c0,0.008,0,0.015,0,0.03
		c0,0.167-0.068,0.287-0.234,0.302c-0.431,0.038-0.868,0.061-1.307,0.061c-0.182,0-0.37,0-0.552-0.008
		c-0.083,0.416-0.158,0.861-0.219,1.269C116.645,18.233,116.871,18.24,117.09,18.24z"/>
	<path d="M122.332,18.633c0-0.144-0.046-0.188-0.182-0.188h-0.611c-0.137,0-0.227-0.091-0.227-0.265s0.09-0.257,0.227-0.257h0.815
		c0.385,0,0.544,0.196,0.544,0.597v1.775c0.219,0.476,0.634,0.718,1.08,0.793c0.348,0.053,0.823,0.083,1.458,0.083
		c0.929,0,1.903-0.038,2.673-0.098c0.016,0,0.023,0,0.038,0c0.166,0,0.257,0.09,0.265,0.272c0,0.015,0,0.022,0,0.03
		c0,0.167-0.113,0.272-0.279,0.28c-0.771,0.038-1.843,0.068-2.742,0.068c-0.672,0-1.238-0.038-1.602-0.121
		c-0.528-0.113-0.943-0.431-1.178-0.838c-0.272,0.325-0.589,0.672-0.899,0.898c-0.053,0.045-0.113,0.068-0.173,0.068
		c-0.076,0-0.151-0.038-0.22-0.128c-0.045-0.061-0.067-0.128-0.067-0.197c0-0.075,0.037-0.151,0.098-0.204
		c0.287-0.211,0.71-0.566,0.982-0.914V18.633z M122.974,16.261c0.046,0.061,0.068,0.121,0.068,0.181
		c0,0.083-0.046,0.159-0.121,0.227c-0.068,0.053-0.144,0.083-0.219,0.083c-0.076,0-0.151-0.038-0.204-0.121
		c-0.287-0.393-0.635-0.823-0.952-1.118c-0.045-0.053-0.075-0.106-0.075-0.167c0-0.068,0.038-0.136,0.105-0.196
		c0.068-0.061,0.144-0.09,0.212-0.09c0.067,0,0.128,0.022,0.174,0.068C122.302,15.423,122.709,15.884,122.974,16.261z
		 M123.51,15.944c-0.128,0-0.204-0.09-0.204-0.234s0.076-0.234,0.204-0.234h1.979v-0.43c0-0.128,0.12-0.196,0.287-0.196
		c0.166,0,0.286,0.068,0.286,0.196v0.43h2.002c0.136,0,0.204,0.091,0.204,0.234s-0.068,0.234-0.204,0.234h-0.892
		c-0.098,0.234-0.203,0.461-0.332,0.68h0.604c0.415,0,0.604,0.159,0.604,0.574v2.923c0,0.468-0.28,0.634-0.764,0.634
		c-0.053,0-0.105,0-0.158,0c-0.075,0-0.166,0-0.249-0.015c-0.121-0.022-0.182-0.105-0.182-0.234c0-0.015,0-0.038,0.008-0.061
		c0.015-0.136,0.105-0.204,0.204-0.204c0.007,0,0.015,0,0.03,0c0.128,0.015,0.257,0.015,0.354,0.015
		c0.159,0,0.219-0.053,0.219-0.294v-2.704c0-0.136-0.067-0.181-0.203-0.181h-3.007c-0.136,0-0.211,0.045-0.211,0.181v3.271
		c0,0.128-0.099,0.196-0.265,0.196c-0.158,0-0.271-0.068-0.271-0.196v-3.331c0-0.415,0.188-0.574,0.604-0.574h0.537
		c-0.076-0.234-0.174-0.461-0.287-0.68H123.51z M126.426,18.625c0.348,0,0.514,0.151,0.514,0.506v0.62
		c0,0.355-0.166,0.499-0.521,0.499h-1.276c-0.355,0-0.521-0.144-0.521-0.499v-0.62c0-0.355,0.166-0.506,0.514-0.506h0.4v-0.514
		h-1.042c-0.113,0-0.182-0.083-0.182-0.219c0-0.136,0.068-0.204,0.182-0.204h1.042v-0.302c0-0.151,0.075-0.204,0.234-0.204
		c0.158,0,0.249,0.053,0.249,0.204v0.302h1.11c0.113,0,0.182,0.068,0.182,0.204c0,0.136-0.068,0.219-0.182,0.219h-1.11v0.514
		H126.426z M124.968,15.944c0.105,0.219,0.196,0.446,0.279,0.68h1.027c0.136-0.219,0.234-0.446,0.325-0.68H124.968z M126.26,19.826
		c0.12,0,0.188-0.038,0.188-0.166v-0.446c0-0.136-0.068-0.181-0.188-0.181h-0.967c-0.121,0-0.182,0.045-0.182,0.181v0.446
		c0,0.128,0.061,0.166,0.182,0.166H126.26z"/>
	<path d="M130.119,19.366c-0.091,0.944-0.272,1.684-0.635,2.281c-0.053,0.098-0.144,0.159-0.257,0.159
		c-0.053,0-0.105-0.015-0.166-0.045c-0.113-0.06-0.174-0.158-0.174-0.264c0-0.053,0.015-0.106,0.045-0.151
		c0.56-0.831,0.657-2.009,0.673-3.89c0.008-0.468,0.015-1.004,0.015-1.639c0-0.461,0.22-0.65,0.673-0.65h4.531
		c0.453,0,0.673,0.189,0.673,0.65v5.249c0,0.483-0.287,0.71-0.899,0.71c-0.302,0-0.642-0.022-0.937-0.075
		c-0.136-0.023-0.219-0.113-0.219-0.25c0-0.03,0-0.061,0.015-0.09c0.03-0.151,0.129-0.212,0.227-0.212c0.023,0,0.046,0,0.076,0.008
		c0.264,0.053,0.528,0.083,0.747,0.083c0.348,0,0.416-0.061,0.416-0.31v-1.563h-2.206v2.062c0,0.136-0.12,0.211-0.294,0.211
		c-0.159,0-0.279-0.076-0.279-0.211v-2.062H130.119z M130.194,17.53c-0.008,0.038-0.008,0.076-0.008,0.113
		c0,0.423-0.015,0.823-0.03,1.193h1.987V17.53H130.194z M132.144,17.009v-1.292h-1.692c-0.166,0-0.241,0.045-0.241,0.227
		c0,0.393,0,0.74-0.008,1.065H132.144z M134.923,15.944c0-0.181-0.068-0.227-0.234-0.227h-1.972v1.292h2.206V15.944z M134.923,17.53
		h-2.206v1.307h2.206V17.53z"/>
</g>
<g>
	<g>
		<line fill="none" stroke="#231815" stroke-miterlimit="10" x1="47.897" y1="40.382" x2="47.897" y2="38.382"/>
		
			<line fill="none" stroke="#231815" stroke-miterlimit="10" stroke-dasharray="4.258,4.258" x1="47.897" y1="34.124" x2="47.897" y2="10.705"/>
		<polyline fill="none" stroke="#231815" stroke-miterlimit="10" points="47.897,8.576 47.897,6.576 49.897,6.576 		"/>
		
			<line fill="none" stroke="#231815" stroke-miterlimit="10" stroke-dasharray="3.9737,3.9737" x1="53.871" y1="6.576" x2="99.568" y2="6.576"/>
		<line fill="none" stroke="#231815" stroke-miterlimit="10" x1="101.556" y1="6.576" x2="103.556" y2="6.576"/>
		<g>
			<path fill="#231815" d="M96.721,11.375c-0.148-0.232-0.079-0.542,0.154-0.69l6.452-4.109l-6.452-4.109
				c-0.233-0.148-0.303-0.458-0.154-0.69s0.46-0.3,0.691-0.153l7.114,4.531c0.144,0.092,0.231,0.251,0.231,0.422
				s-0.088,0.33-0.231,0.422l-7.114,4.531c-0.084,0.053-0.177,0.078-0.269,0.078C96.979,11.607,96.816,11.525,96.721,11.375z"/>
		</g>
	</g>
</g>
</svg>
