<?xml version="1.0" encoding="utf-8"?>
<!-- Generator: Adobe Illustrator 16.0.3, SVG Export Plug-In . SVG Version: 6.00 Build 0)  -->
<!DOCTYPE svg PUBLIC "-//W3C//DTD SVG 1.1//EN" "http://www.w3.org/Graphics/SVG/1.1/DTD/svg11.dtd">
<svg version="1.1" id="レイヤー_2" xmlns="http://www.w3.org/2000/svg" xmlns:xlink="http://www.w3.org/1999/xlink" x="0px"
	 y="0px" width="90px" height="118.148px" viewBox="0 0 90 118.148" enable-background="new 0 0 90 118.148" xml:space="preserve">
<g>
	<defs>
		<rect id="SVGID_1_" width="90" height="118.148"/>
	</defs>
	<clipPath id="SVGID_2_">
		<use xlink:href="#SVGID_1_"  overflow="visible"/>
	</clipPath>
	<path clip-path="url(#SVGID_2_)" fill="none" stroke="#000000" stroke-width="0.406" d="M-1.688,87.521
		c31.814-1.582,63.622-3.581,95.363-6.287 M91.097,75.857C76.654,47.553,57.181,21.989,34.751-0.452
		c-0.691-0.691-1.385-1.38-2.081-2.065"/>
	<path clip-path="url(#SVGID_2_)" fill="#FFFFFF" d="M79.13,97.937c0-0.358-0.088,0-0.088,0H79.13z"/>
	<path clip-path="url(#SVGID_2_)" fill="none" stroke="#000000" stroke-width="0.43" stroke-linejoin="round" d="M79.13,97.937
		c0-0.358-0.088,0-0.088,0H79.13z"/>
	<path clip-path="url(#SVGID_2_)" fill="#FFFFFF" d="M78.296,90.182c0-0.358-0.088,0-0.088,0H78.296z"/>
	<path clip-path="url(#SVGID_2_)" fill="none" stroke="#000000" stroke-width="0.43" stroke-linejoin="round" d="M78.296,90.182
		c0-0.358-0.088,0-0.088,0H78.296z"/>
	<path clip-path="url(#SVGID_2_)" fill="#FFFFFF" d="M79.13,92.09c0-0.358-0.088,0-0.088,0H79.13z"/>
	<path clip-path="url(#SVGID_2_)" fill="none" stroke="#000000" stroke-width="0.43" stroke-linejoin="round" d="M79.13,92.09
		c0-0.358-0.088,0-0.088,0H79.13z"/>
	<path clip-path="url(#SVGID_2_)" fill="#FFFFFF" d="M75.909,91.971c0-0.358-0.088,0-0.088,0H75.909z"/>
	<path clip-path="url(#SVGID_2_)" fill="none" stroke="#000000" stroke-width="0.43" stroke-linejoin="round" d="M75.909,91.971
		c0-0.358-0.088,0-0.088,0H75.909z"/>
	<path clip-path="url(#SVGID_2_)" fill="#FFFFFF" d="M34.745,115.715c0-0.358-0.088,0-0.088,0H34.745z"/>
	<path clip-path="url(#SVGID_2_)" fill="none" stroke="#000000" stroke-width="0.43" stroke-linejoin="round" d="M34.745,115.715
		c0-0.358-0.088,0-0.088,0H34.745z"/>
	<path clip-path="url(#SVGID_2_)" fill="#FFFFFF" d="M62.308,69.898c0-0.358-0.088,0-0.088,0H62.308z"/>
	<path clip-path="url(#SVGID_2_)" fill="none" stroke="#000000" stroke-width="0.43" stroke-linejoin="round" d="M62.308,69.898
		c0-0.358-0.088,0-0.088,0H62.308z"/>
	<path clip-path="url(#SVGID_2_)" fill="#FFFFFF" d="M69.942,81.71c0-0.358-0.086,0-0.086,0H69.942z"/>
	<path clip-path="url(#SVGID_2_)" fill="none" stroke="#000000" stroke-width="0.43" stroke-linejoin="round" d="M69.942,81.71
		c0-0.358-0.086,0-0.086,0H69.942z"/>
	<path clip-path="url(#SVGID_2_)" fill="#FFFFFF" d="M64.573,72.761c0-0.358-0.086,0-0.086,0H64.573z"/>
	<path clip-path="url(#SVGID_2_)" fill="none" stroke="#000000" stroke-width="0.43" stroke-linejoin="round" d="M64.573,72.761
		c0-0.358-0.086,0-0.086,0H64.573z"/>
	<path clip-path="url(#SVGID_2_)" fill="#FFFFFF" d="M79.729,93.642c0-0.358-0.09,0-0.09,0H79.729z"/>
	<path clip-path="url(#SVGID_2_)" fill="none" stroke="#000000" stroke-width="0.43" stroke-linejoin="round" d="M79.729,93.642
		c0-0.358-0.09,0-0.09,0H79.729z"/>
	<path clip-path="url(#SVGID_2_)" fill="#FFFFFF" d="M80.086,100.204c0-0.357-0.089,0-0.089,0H80.086z"/>
	<path clip-path="url(#SVGID_2_)" fill="none" stroke="#000000" stroke-width="0.43" stroke-linejoin="round" d="M80.086,100.204
		c0-0.357-0.089,0-0.089,0H80.086z"/>
	<path clip-path="url(#SVGID_2_)" fill="#FFFFFF" d="M31.284,102.352c0.24-0.358,0-0.477-0.715-0.597
		c-0.716-0.119-0.716-0.477-1.312,0.12c-0.597,0.596-0.479,1.909-0.955,3.341c-0.478,1.431-0.12,2.744,0.714,3.818
		c0.837,1.073,1.313,1.551,1.553,2.147c0.238,0.597,0.478,0.716,0.478-0.716c0-1.431,0.717-1.431,0.478-2.983
		c-0.24-1.55-0.358-2.624-0.121-3.221c0.238-0.596,0.238-0.835,0.238-0.835L31.284,102.352z"/>
	<path clip-path="url(#SVGID_2_)" fill="none" stroke="#000000" stroke-width="0.43" stroke-linejoin="round" d="M31.284,102.352
		c0.24-0.358,0-0.477-0.715-0.597c-0.716-0.119-0.716-0.477-1.312,0.12c-0.597,0.596-0.479,1.909-0.955,3.341
		c-0.478,1.431-0.12,2.744,0.714,3.818c0.837,1.073,1.313,1.551,1.553,2.147c0.238,0.597,0.478,0.716,0.478-0.716
		c0-1.431,0.717-1.431,0.478-2.983c-0.24-1.55-0.358-2.624-0.121-3.221c0.238-0.596,0.238-0.835,0.238-0.835L31.284,102.352z"/>
	<path clip-path="url(#SVGID_2_)" fill="#E13C3A" stroke="#000000" stroke-width="0.43" stroke-linejoin="round" d="M62.067,14.656
		c-0.118-0.597-0.714-1.193-0.714-0.358c0,0.835,0.118,2.148,0.477,1.79C62.188,15.729,62.067,14.656,62.067,14.656"/>
	<path clip-path="url(#SVGID_2_)" fill="#E13C3A" stroke="#000000" stroke-width="0.43" stroke-linejoin="round" d="M62.067,14.656
		c-0.118-0.597-0.714-1.193-0.714-0.358c0,0.835,0.118,2.148,0.477,1.79C62.188,15.729,62.067,14.656,62.067,14.656z"/>
	<path clip-path="url(#SVGID_2_)" fill="#FFFFFF" d="M62.751,18.951c0,0-0.325-0.358-0.325,0
		C62.426,19.309,62.751,18.951,62.751,18.951"/>
	<path clip-path="url(#SVGID_2_)" fill="none" stroke="#000000" stroke-width="0.43" stroke-linejoin="round" d="M62.751,18.951
		c0,0-0.325-0.358-0.325,0C62.426,19.309,62.751,18.951,62.751,18.951z"/>
	<path clip-path="url(#SVGID_2_)" fill="#FFFFFF" d="M59.271,38.292c0,0-0.161-0.358-0.161,0
		C59.109,38.649,59.271,38.292,59.271,38.292"/>
	<path clip-path="url(#SVGID_2_)" fill="none" stroke="#000000" stroke-width="0.43" stroke-linejoin="round" d="M59.271,38.292
		c0,0-0.161-0.358-0.161,0C59.109,38.649,59.271,38.292,59.271,38.292z"/>
	<path clip-path="url(#SVGID_2_)" fill="#FFFFFF" d="M62.903,20.144c0,0-0.161-0.358-0.161,0
		C62.742,20.502,62.903,20.144,62.903,20.144"/>
	<path clip-path="url(#SVGID_2_)" fill="none" stroke="#000000" stroke-width="0.43" stroke-linejoin="round" d="M62.903,20.144
		c0,0-0.161-0.358-0.161,0C62.742,20.502,62.903,20.144,62.903,20.144z"/>
	<path clip-path="url(#SVGID_2_)" fill="#FFFFFF" d="M62.903,22.53c0,0-0.161-0.358-0.161,0
		C62.742,22.888,62.903,22.53,62.903,22.53"/>
	<path clip-path="url(#SVGID_2_)" fill="none" stroke="#000000" stroke-width="0.43" stroke-linejoin="round" d="M62.903,22.53
		c0,0-0.161-0.358-0.161,0C62.742,22.888,62.903,22.53,62.903,22.53z"/>
	<path clip-path="url(#SVGID_2_)" fill="#FFFFFF" d="M63.38,23.842c0,0-0.161-0.358-0.161,0
		C63.219,24.201,63.38,23.842,63.38,23.842"/>
	<path clip-path="url(#SVGID_2_)" fill="none" stroke="#000000" stroke-width="0.43" stroke-linejoin="round" d="M63.38,23.842
		c0,0-0.161-0.358-0.161,0C63.219,24.201,63.38,23.842,63.38,23.842z"/>
	<path clip-path="url(#SVGID_2_)" fill="#FFFFFF" d="M63.499,26.348c0,0-0.161-0.358-0.161,0
		C63.338,26.706,63.499,26.348,63.499,26.348"/>
	<path clip-path="url(#SVGID_2_)" fill="none" stroke="#000000" stroke-width="0.43" stroke-linejoin="round" d="M63.499,26.348
		c0,0-0.161-0.358-0.161,0C63.338,26.706,63.499,26.348,63.499,26.348z"/>
	<path clip-path="url(#SVGID_2_)" fill="#FFFFFF" d="M61.829,29.928c0.238-1.074-0.157-0.823-0.356,0.238
		C61.112,32.076,61.829,29.928,61.829,29.928"/>
	<path clip-path="url(#SVGID_2_)" fill="none" stroke="#000000" stroke-width="0.43" stroke-linejoin="round" d="M61.829,29.928
		c0.238-1.074-0.157-0.823-0.356,0.238C61.112,32.076,61.829,29.928,61.829,29.928z"/>
	<path clip-path="url(#SVGID_2_)" fill="#E13C3A" stroke="#000000" stroke-width="0.43" stroke-linejoin="round" d="M58.079,35.563
		l-0.803,0.358c0,0-0.271,1.432-0.151,1.789C57.243,38.069,58.079,35.563,58.079,35.563"/>
	<path clip-path="url(#SVGID_2_)" fill="#E13C3A" stroke="#000000" stroke-width="0.43" stroke-linejoin="round" d="M58.079,35.563
		l-0.803,0.358c0,0-0.271,1.432-0.151,1.789C57.243,38.069,58.079,35.563,58.079,35.563z"/>
	<path clip-path="url(#SVGID_2_)" fill="#FFFFFF" d="M86.407,2.008c-0.715,0-0.595,0,0.121,0.477
		c0.716,0.477,0.597-0.358,0.597-0.358L86.407,2.008z"/>
	<path clip-path="url(#SVGID_2_)" fill="none" stroke="#000000" stroke-width="0.43" stroke-linejoin="round" d="M86.407,2.008
		c-0.715,0-0.595,0,0.121,0.477c0.716,0.477,0.597-0.358,0.597-0.358L86.407,2.008z"/>
	<path clip-path="url(#SVGID_2_)" fill="#FFFFFF" d="M26.843,6.84c-0.268-0.533-1.512-0.178-0.711,0.355
		c0.8,0.533,1.332,1.422,1.332,1.422s-0.266,0.178-0.532,0.266c-0.267,0.089-0.62,0.445,0.267,1.155
		c0.889,0.711,1.776,1.6,2.131,2.399c0.357,0.8,1.422,1.778,2.4,2.31c0.977,0.533,1.865,1.866,2.221,2.577
		c0.356,0.711,0.622,0.621,1.779,2.132c1.152,1.51,1.421,1.866,1.863,2.666c0.443,0.8,0.355,1.155,1.332,1.777
		c0.979,0.622,1.955,2.309,2.222,3.021c0.267,0.71,1.334,1.243,1.511,2.043c0.178,0.8,0.622,1.244,0.977,1.688
		c0.355,0.444,1.601,1.51,1.156,0.444c-0.445-1.066-0.977-1.776,0.356-1.688c1.333,0.089,1.599,0.8,2.133,1.422
		c0.532,0.622,0.443,0.089-0.09-0.888c-0.533-0.978-1.244-1.156-2.312-1.689c-1.064-0.533-1.422-1.066-2.397-1.866
		c-0.978-0.799-1.778-2.132-2.399-3.464c0,0-0.8-1.333-0.267-1.688c0.533-0.356,1.478-0.265,2.843,0.71
		c0.622,0.444,1.332,0.864,1.332,0.864s-0.976-1.131-2.219-1.93c-1.587-1.019-3.645-2.754-4.979-4.087
		c-1.332-1.333-2.842-2.844-2.842-2.844s-1.154-0.533-2.132-1.954c-0.978-1.422-1.422-2.221-2.577-3.198
		C28.087,7.817,26.843,6.84,26.843,6.84"/>
	<path clip-path="url(#SVGID_2_)" fill="none" stroke="#000000" stroke-width="0.43" stroke-linejoin="round" d="M26.843,6.84
		c-0.268-0.533-1.512-0.178-0.711,0.355c0.8,0.533,1.332,1.422,1.332,1.422s-0.266,0.178-0.532,0.266
		c-0.267,0.089-0.62,0.445,0.267,1.155c0.889,0.711,1.776,1.6,2.131,2.399c0.357,0.8,1.422,1.778,2.4,2.31
		c0.977,0.533,1.865,1.866,2.221,2.577c0.356,0.711,0.622,0.621,1.779,2.132c1.152,1.51,1.421,1.866,1.863,2.666
		c0.443,0.8,0.355,1.155,1.332,1.777c0.979,0.622,1.955,2.309,2.222,3.021c0.267,0.71,1.334,1.243,1.511,2.043
		c0.178,0.8,0.622,1.244,0.977,1.688c0.355,0.444,1.601,1.51,1.156,0.444c-0.445-1.066-0.977-1.776,0.356-1.688
		c1.333,0.089,1.599,0.8,2.133,1.422c0.532,0.622,0.443,0.089-0.09-0.888c-0.533-0.978-1.244-1.156-2.312-1.689
		c-1.064-0.533-1.422-1.066-2.397-1.866c-0.978-0.799-1.778-2.132-2.399-3.464c0,0-0.8-1.333-0.267-1.688
		c0.533-0.356,1.478-0.265,2.843,0.71c0.622,0.444,1.332,0.864,1.332,0.864s-0.976-1.131-2.219-1.93
		c-1.587-1.019-3.645-2.754-4.979-4.087c-1.332-1.333-2.842-2.844-2.842-2.844s-1.154-0.533-2.132-1.954
		c-0.978-1.422-1.422-2.221-2.577-3.198C28.087,7.817,26.843,6.84,26.843,6.84z"/>
	<path clip-path="url(#SVGID_2_)" fill="#E13C3A" stroke="#000000" stroke-width="0.43" stroke-linejoin="round" d="M60.161,32.428
		c0.443-0.533,0-0.71-0.532-0.444c-0.533,0.266-0.979,0.355-1.066,0.977c-0.09,0.622-0.446,1.155-0.446,1.155
		s0.571,0.128,0.269,0.889c0,0,0.132-0.446,0.531-1.244C59.271,33.049,60.161,32.428,60.161,32.428"/>
	<path clip-path="url(#SVGID_2_)" fill="#E13C3A" stroke="#000000" stroke-width="0.43" stroke-linejoin="round" d="M60.161,32.428
		c0.443-0.533,0-0.71-0.532-0.444c-0.533,0.266-0.979,0.355-1.066,0.977c-0.09,0.622-0.446,1.155-0.446,1.155
		s0.571,0.128,0.269,0.889c0,0,0.132-0.446,0.531-1.244C59.271,33.049,60.161,32.428,60.161,32.428z"/>
	<path clip-path="url(#SVGID_2_)" fill="#E13C3A" stroke="#000000" stroke-width="0.43" stroke-linejoin="round" d="M46.212,33.405
		c-0.268-0.354-0.623,0-0.713,0.444c-0.088,0.445,0.98,0.711,1.601,1.777c0.623,1.066,0.978,1.688,1.065,2.044
		c0.09,0.355,0,1.066,0.269,1.421c0.265,0.356,1.065,0.978,0.442,1.422c-0.621,0.444-0.976,0.977-1.332,1.421
		c-0.354,0.445-0.354,0.622,0.089,1.333c0.444,0.711,0.532,0.622,1.065,0.888c0.534,0.267,0.711,0.534,1.067,1.511
		c0.354,0.977,0.711,0.266,0.801-0.178c0.087-0.444,1.332,0.089,0.622-0.622c-0.712-0.711-0.98-0.977-1.423-0.977
		c-0.444,0-0.89-0.267-0.978-0.799c-0.09-0.534,0.47-0.469,1.89-0.025c0,0,1.043-1.131,2.196-0.509
		c1.156,0.622,1.601,0.889,2.134,1.066c0.532,0.178,1.243,0.356,1.243,0.356s-0.801-1.156-0.711-2.133
		c0.088-0.977,0.356-1.332,1.244-1.421c0.89-0.089,1.067-0.355,1.244-0.711c0.178-0.355,0.444-0.711,0.444-0.711
		s-1.067,0.178-1.511-0.355c-0.444-0.534,0-0.444,0-0.444s-0.889-0.267-1.065-0.978c-0.178-0.71-0.446-1.421-0.446-1.421
		s0,1.066-0.175,1.332c-0.18,0.267-0.889,0.267-1.245,0c-0.354-0.266-0.8,0.089-2.222-0.533c-1.42-0.621-2.754-1.421-3.554-2.043
		C47.454,33.938,46.212,33.405,46.212,33.405"/>
	<path clip-path="url(#SVGID_2_)" fill="none" stroke="#000000" stroke-width="0.43" stroke-linejoin="round" d="M46.212,33.405
		c-0.268-0.354-0.623,0-0.713,0.444c-0.088,0.445,0.98,0.711,1.601,1.777c0.623,1.066,0.978,1.688,1.065,2.044
		c0.09,0.355,0,1.066,0.269,1.421c0.265,0.356,1.065,0.978,0.442,1.422c-0.621,0.444-0.976,0.977-1.332,1.421
		c-0.354,0.445-0.354,0.622,0.089,1.333c0.444,0.711,0.532,0.622,1.065,0.888c0.534,0.267,0.711,0.534,1.067,1.511
		c0.354,0.977,0.711,0.266,0.801-0.178c0.087-0.444,1.332,0.089,0.622-0.622c-0.712-0.711-0.98-0.977-1.423-0.977
		c-0.444,0-0.89-0.267-0.978-0.799c-0.09-0.534,0.47-0.469,1.89-0.025c0,0,1.043-1.131,2.196-0.509
		c1.156,0.622,1.601,0.889,2.134,1.066c0.532,0.178,1.243,0.356,1.243,0.356s-0.801-1.156-0.711-2.133
		c0.088-0.977,0.356-1.332,1.244-1.421c0.89-0.089,1.067-0.355,1.244-0.711c0.178-0.355,0.444-0.711,0.444-0.711
		s-1.067,0.178-1.511-0.355c-0.444-0.534,0-0.444,0-0.444s-0.889-0.267-1.065-0.978c-0.178-0.71-0.446-1.421-0.446-1.421
		s0,1.066-0.175,1.332c-0.18,0.267-0.889,0.267-1.245,0c-0.354-0.266-0.8,0.089-2.222-0.533c-1.42-0.621-2.754-1.421-3.554-2.043
		C47.454,33.938,46.212,33.405,46.212,33.405z"/>
	<path clip-path="url(#SVGID_2_)" fill="#E13C3A" stroke="#000000" stroke-width="0.43" stroke-linejoin="round" d="M41.946,71.367
		c0,0-0.532-1.001,0.091-1.09c0.621-0.089,1.066-1.066,1.598-2.133c0.533-1.066,0.623-1.421,0.978-1.776
		c0.355-0.355,1.154,0,1.154,0s0.979-0.089,2.044-0.534c1.066-0.444,1.777-0.799,1.866-0.266c0.088,0.533,0.622,0.622,0.622,0.622
		l0.623-0.267c0,0,0-0.621-0.18-1.332c-0.177-0.711,0.356-1.688,0.356-2.222c0-0.532-0.533-1.688-0.623-2.043
		c-0.088-0.355,0-0.533,0.623-0.8c0.621-0.266,0.444-0.178,0.266,0.622c-0.177,0.8,0.355,0.889,0.712,1.244
		c0.354,0.355,0.976,0.089,0.889-0.444c0,0,1.509-1.333,1.332-2.132c-0.178-0.8,0.177-1.333,0.354-1.689
		c0.179-0.355-0.089-1.421-0.266-1.954c-0.177-0.534,0-1.155-0.355-2.133c-0.354-0.977-0.801-1.865-1.155-1.865
		c-0.355,0-0.621-0.178-0.621-0.178s0-0.978-0.269-1.422c-0.266-0.444-0.53-0.799-0.53-0.799s0.709-0.8,0.178-1.244
		c-0.534-0.444-0.445-0.711-0.445-0.711l0.445-0.267c0,0,0.887,0.534,0.798,0c-0.089-0.533,0-0.355,0-0.355h0.799
		c0,0,0.533,1.51,1.956,2.577c1.421,1.066,3.199,2.576,3.377,3.465c0.177,0.888,0.177,2.487,0.177,2.487l0.712,1.156l-0.802,0.355
		c0,0,0.179,1.421,0.979,2.044l1.065,1.954c0,0-0.444,0.622,0.089,1.777c0.532,1.155,1.954,2.221,1.954,2.221
		s-0.177,1.244-0.354,1.778c-0.178,0.532-0.356,1.421-0.889,0.443c-0.533-0.977-0.711-1.332-0.711-1.332s-0.621,0.355-0.445,0.977
		l-0.799,0.089c0,0,0.178,0.711,0.265,1.155c0.091,0.444-0.533,0.444-1.064-0.178l-0.444,1.155c0,0-1.244-0.266-2.487,0.178
		l-1.245-1.333c0,0-0.709,1.333,0.268,1.866c0.978,0.533,0.444,0.711,0.088,0.889c-0.355,0.177-0.444,1.066-0.532,1.688
		c-0.089,0.622-0.355,0.888-1.244,0.355c-0.888-0.533-1.244-0.889-1.244-0.889s-0.442-0.71-0.354-1.51
		c0.09-0.8-0.533-1.244-1.155-1.066c-0.623,0.178-1.421,0.089-2.222,0.8c-0.799,0.71-1.865,1.332-2.843,0.977
		c0,0-0.268,0.711-0.178,1.155c0.088,0.444-0.623,0.089-1.065-0.089C43.635,71.165,41.946,71.367,41.946,71.367"/>
	<path clip-path="url(#SVGID_2_)" fill="#E13C3A" stroke="#000000" stroke-width="0.43" stroke-linejoin="round" d="M41.946,71.367
		c0,0-0.532-1.001,0.091-1.09c0.621-0.089,1.066-1.066,1.598-2.133c0.533-1.066,0.623-1.421,0.978-1.776
		c0.355-0.355,1.154,0,1.154,0s0.979-0.089,2.044-0.534c1.066-0.444,1.777-0.799,1.866-0.266c0.088,0.533,0.622,0.622,0.622,0.622
		l0.623-0.267c0,0,0-0.621-0.18-1.332c-0.177-0.711,0.356-1.688,0.356-2.222c0-0.532-0.533-1.688-0.623-2.043
		c-0.088-0.355,0-0.533,0.623-0.8c0.621-0.266,0.444-0.178,0.266,0.622c-0.177,0.8,0.355,0.889,0.712,1.244
		c0.354,0.355,0.976,0.089,0.889-0.444c0,0,1.509-1.333,1.332-2.132c-0.178-0.8,0.177-1.333,0.354-1.689
		c0.179-0.355-0.089-1.421-0.266-1.954c-0.177-0.534,0-1.155-0.355-2.133c-0.354-0.977-0.801-1.865-1.155-1.865
		c-0.355,0-0.621-0.178-0.621-0.178s0-0.978-0.269-1.422c-0.266-0.444-0.53-0.799-0.53-0.799s0.709-0.8,0.178-1.244
		c-0.534-0.444-0.445-0.711-0.445-0.711l0.445-0.267c0,0,0.887,0.534,0.798,0c-0.089-0.533,0-0.355,0-0.355h0.799
		c0,0,0.533,1.51,1.956,2.577c1.421,1.066,3.199,2.576,3.377,3.465c0.177,0.888,0.177,2.487,0.177,2.487l0.712,1.156l-0.802,0.355
		c0,0,0.179,1.421,0.979,2.044l1.065,1.954c0,0-0.444,0.622,0.089,1.777c0.532,1.155,1.954,2.221,1.954,2.221
		s-0.177,1.244-0.354,1.778c-0.178,0.532-0.356,1.421-0.889,0.443c-0.533-0.977-0.711-1.332-0.711-1.332s-0.621,0.355-0.445,0.977
		l-0.799,0.089c0,0,0.178,0.711,0.265,1.155c0.091,0.444-0.533,0.444-1.064-0.178l-0.444,1.155c0,0-1.244-0.266-2.487,0.178
		l-1.245-1.333c0,0-0.709,1.333,0.268,1.866c0.978,0.533,0.444,0.711,0.088,0.889c-0.355,0.177-0.444,1.066-0.532,1.688
		c-0.089,0.622-0.355,0.888-1.244,0.355c-0.888-0.533-1.244-0.889-1.244-0.889s-0.442-0.71-0.354-1.51
		c0.09-0.8-0.533-1.244-1.155-1.066c-0.623,0.178-1.421,0.089-2.222,0.8c-0.799,0.71-1.865,1.332-2.843,0.977
		c0,0-0.268,0.711-0.178,1.155c0.088,0.444-0.623,0.089-1.065-0.089C43.635,71.165,41.946,71.367,41.946,71.367z"/>
	<path clip-path="url(#SVGID_2_)" fill="#E13C3A" stroke="#000000" stroke-width="0.43" stroke-linejoin="round" d="M42.212,72.256
		c0,0-1.041,0.687-1.309,0.864c-0.265,0.178-0.822,0.711-0.023,0.978c0.8,0.266,1.689,0.622,1.955,1.243
		c0.27,0.623,0.27,1.511,0.179,2.222c-0.09,0.711,0.621,1.599,0.621,1.599v0.888l0.889,0.623l0.445-1.066
		c0,0,0.711,0.443,0.887,1.421c0,0,0.533-0.533,0.8-0.8c0.266-0.266,0.09-0.533-0.176-1.777c-0.268-1.244-0.624-2.043-0.357-3.021
		c0.267-0.977,0-1.066,0-1.066s-1.153-0.711-1.51-0.533c0,0-0.176-0.533-0.267-0.888c-0.088-0.355-0.444-0.154-1.154-0.065
		C42.48,72.967,42.212,72.256,42.212,72.256"/>
	<path clip-path="url(#SVGID_2_)" fill="#E13C3A" stroke="#000000" stroke-width="0.43" stroke-linejoin="round" d="M42.212,72.256
		c0,0-1.041,0.687-1.309,0.864c-0.265,0.178-0.822,0.711-0.023,0.978c0.8,0.266,1.689,0.622,1.955,1.243
		c0.27,0.623,0.27,1.511,0.179,2.222c-0.09,0.711,0.621,1.599,0.621,1.599v0.888l0.889,0.623l0.445-1.066
		c0,0,0.711,0.443,0.887,1.421c0,0,0.533-0.533,0.8-0.8c0.266-0.266,0.09-0.533-0.176-1.777c-0.268-1.244-0.624-2.043-0.357-3.021
		c0.267-0.977,0-1.066,0-1.066s-1.153-0.711-1.51-0.533c0,0-0.176-0.533-0.267-0.888c-0.088-0.355-0.444-0.154-1.154-0.065
		C42.48,72.967,42.212,72.256,42.212,72.256z"/>
	<path clip-path="url(#SVGID_2_)" fill="#E13C3A" stroke="#000000" stroke-width="0.43" stroke-linejoin="round" d="M49.409,69.833
		c0,0-0.442,0.799-0.799,1.155c-0.354,0.355-1.155,0.355-1.776,0.178c0,0-0.088,1.332-0.979,1.954c0,0,0.892-0.444,1.334,0.889
		c0.444,1.332,1.601,1.243,1.601,1.243s0.088-0.532,0-1.332c-0.091-0.8,0.508-1.51,1.219-0.978l0.733,0.534
		c0,0-0.088-1.066,0.181-1.689c0.266-0.621-0.446-1.155-0.446-1.155L49.409,69.833z"/>
	<path clip-path="url(#SVGID_2_)" fill="#E13C3A" stroke="#000000" stroke-width="0.43" stroke-linejoin="round" d="M49.409,69.833
		c0,0-0.442,0.799-0.799,1.155c-0.354,0.355-1.155,0.355-1.776,0.178c0,0-0.088,1.332-0.979,1.954c0,0,0.892-0.444,1.334,0.889
		c0.444,1.332,1.601,1.243,1.601,1.243s0.088-0.532,0-1.332c-0.091-0.8,0.508-1.51,1.219-0.978l0.733,0.534
		c0,0-0.088-1.066,0.181-1.689c0.266-0.621-0.446-1.155-0.446-1.155L49.409,69.833z"/>
	<path clip-path="url(#SVGID_2_)" fill="#FFFFFF" d="M37.948,70.01c-0.09-0.355-0.532-0.622-0.444,0.089
		c0.09,0.711,0.444,0.711,0.444,0.711V70.01z"/>
	<path clip-path="url(#SVGID_2_)" fill="none" stroke="#000000" stroke-width="0.43" stroke-linejoin="round" d="M37.948,70.01
		c-0.09-0.355-0.532-0.622-0.444,0.089c0.09,0.711,0.444,0.711,0.444,0.711V70.01z"/>
	<path clip-path="url(#SVGID_2_)" fill="#E13C3A" stroke="#000000" stroke-width="0.43" stroke-linejoin="round" d="M47.366,82.538
		c-0.178-0.711-0.801-1.155-0.444-0.089C47.278,83.516,47.366,82.538,47.366,82.538"/>
	<path clip-path="url(#SVGID_2_)" fill="#E13C3A" stroke="#000000" stroke-width="0.43" stroke-linejoin="round" d="M47.366,82.538
		c-0.178-0.711-0.801-1.155-0.444-0.089C47.278,83.516,47.366,82.538,47.366,82.538z"/>
	<path clip-path="url(#SVGID_2_)" fill="#E13C3A" stroke="#000000" stroke-width="0.43" stroke-linejoin="round" d="M46.3,83.071
		c-0.268-0.178-0.268,0.267-0.268,0.267L46.3,83.071z"/>
	<path clip-path="url(#SVGID_2_)" fill="#E13C3A" stroke="#000000" stroke-width="0.43" stroke-linejoin="round" d="M46.3,83.071
		c-0.268-0.178-0.268,0.267-0.268,0.267L46.3,83.071z"/>
	<path clip-path="url(#SVGID_2_)" fill="#E13C3A" d="M46.655,89.735c0.091-0.444-0.442-0.267-0.623,0.444
		C45.854,90.89,46.655,89.735,46.655,89.735"/>
	<path clip-path="url(#SVGID_2_)" fill="#E13C3A" stroke="#000000" stroke-width="0.43" stroke-linejoin="round" d="M46.655,89.735
		c0.091-0.444-0.442-0.267-0.623,0.444C45.854,90.89,46.655,89.735,46.655,89.735z"/>
	<path clip-path="url(#SVGID_2_)" fill="#E13C3A" d="M45.146,95.687c0.267-0.354,0-0.889-0.444-0.444
		c-0.444,0.444-0.534,0.355-0.711,0.977s-0.088,1.422,0.267,1.066C44.613,96.931,45.146,95.687,45.146,95.687"/>
	<path clip-path="url(#SVGID_2_)" fill="#E13C3A" stroke="#000000" stroke-width="0.43" stroke-linejoin="round" d="M45.146,95.687
		c0.267-0.354,0-0.889-0.444-0.444c-0.444,0.444-0.534,0.355-0.711,0.977s-0.088,1.422,0.267,1.066
		C44.613,96.931,45.146,95.687,45.146,95.687z"/>
	<path clip-path="url(#SVGID_2_)" fill="#FFFFFF" d="M37.593,103.151c0.267-0.267-0.268-0.267-0.268-0.267L37.593,103.151z"/>
	<path clip-path="url(#SVGID_2_)" fill="none" stroke="#000000" stroke-width="0.43" stroke-linejoin="round" d="M37.593,103.151
		c0.267-0.267-0.268-0.267-0.268-0.267L37.593,103.151z"/>
	<path clip-path="url(#SVGID_2_)" fill="#FFFFFF" d="M39.991,101.729c0,0-0.178-0.444-0.354-0.178
		C39.459,101.818,39.991,101.729,39.991,101.729"/>
	<path clip-path="url(#SVGID_2_)" fill="none" stroke="#000000" stroke-width="0.43" stroke-linejoin="round" d="M39.991,101.729
		c0,0-0.178-0.444-0.354-0.178C39.459,101.818,39.991,101.729,39.991,101.729z"/>
	<path clip-path="url(#SVGID_2_)" fill="#FFFFFF" d="M33.417,74.098c-0.268-0.355-0.62-0.089-0.442,0.178
		C33.149,74.542,33.417,74.098,33.417,74.098"/>
	<path clip-path="url(#SVGID_2_)" fill="none" stroke="#000000" stroke-width="0.43" stroke-linejoin="round" d="M33.417,74.098
		c-0.268-0.355-0.62-0.089-0.442,0.178C33.149,74.542,33.417,74.098,33.417,74.098z"/>
	<path clip-path="url(#SVGID_2_)" fill="#FFFFFF" d="M-4.255,118.433c0.356-0.445,0.446-2.133,0.446-2.133s1.332-0.622,1.599-1.066
		c0.267-0.444,0.978-0.888,1.689-1.244c0.71-0.355,1.332-0.622,1.864,0s1.511,0.445,1.954,0.356s0.443,0.977,0.355,1.421
		c-0.089,0.445,0.088,0.978,0.356,1.333c0.266,0.355,1.153,0.711,1.065-0.266c-0.09-0.978,0.354-2.666,0.354-2.666l2.666-0.089
		c0,0,1.866-0.711,1.776-1.332c0,0,0.89,0.444,1.51-0.711c0.623-1.156,1.066-0.711,0.89-1.244c-0.178-0.533-0.315-1.042-0.315-1.042
		s0.834,0,1.551,0.477c0.718,0.477,1.908,0,2.744-0.477s1.67,0.238,2.27-0.12l1.071-0.596l0.239-0.955l-0.356-0.477l1.19-0.716
		c0,0,0.599-1.432,0.717-2.267l0.955-1.074l1.434-0.835c0,0,0.118-0.835,0.355-1.551c0.238-0.716,0.836-2.267,0.238-2.267
		c-0.594,0-0.953-0.477-0.953-0.477s0.715-0.597,1.193-1.193c0.475-0.597,0.475-2.148,0.475-2.148s0.479-1.313,0.479-2.148
		l0.356-1.551c0,0,0.238-1.074-0.119-1.432c-0.356-0.357,0.718-1.789,0.357-2.267c-0.357-0.477,0-1.551-0.595-1.789
		c-0.597-0.239-1.194-0.717-2.03-0.239c0,0-0.834-0.478-1.312-0.478c0,0,0.717-0.954,1.79-1.551c1.072-0.596,0.478-1.073-0.236-1.67
		c-0.718-0.596-2.745-1.431-2.745-1.431s1.191-0.12,1.908,0c0.717,0.119,0.717-0.12-0.478-1.194c-1.192-1.073-2.625-1.67-2.625-1.67
		s0.358-0.358-0.955-1.909c-1.312-1.551-2.026-3.102-3.461-3.58c-1.431-0.477-2.385-0.596-2.265-1.193c0,0,0-1.073,0.714-2.506
		c0.717-1.431,1.551-2.982,0.955-3.221c0,0,1.076-1.193,1.67-1.312c0.598-0.119,2.031,0.238,1.432-0.836
		c-0.596-1.073-1.551-0.596-2.146-0.596c-0.598,0-1.432,0-2.149-0.716c-0.715-0.716-1.073-0.239-1.67,0.716
		c-0.597,0.955-0.717,1.313-1.431,0.955c-0.717-0.359-1.432-0.24-1.432-0.24s-0.955-2.743-2.269-2.624c0,0-1.396,0.09-2.283-0.71
		l-0.623-0.533l-0.266-0.977c-0.089-0.534-0.089-0.8,0.889-0.889c0.979-0.089,0.979-0.177,1.42,0
		c0.445,0.178,0.623-0.355,0.445-1.244c-0.177-0.888,0.621-1.599,1.244-2.044c0.622-0.443,0.622-0.621,0.535-1.598
		c-0.091-0.978,1.064-1.156,1.508-1.333c0.444-0.178,0.622,0.621,1.155,0.799c0.532,0.178,1.155,0.799,0.978,1.599
		c-0.177,0.8-0.354,0.978-0.623,1.6c-0.265,0.622,0.357,0.711,0.89,0.8c0.532,0.088,0.354,0.622-0.089,1.154
		c-0.443,0.534,0.179,1.422,0.712,0.8c0.532-0.622,1.153-1.155,1.241-1.777c0.09-0.622,1.246-0.888,1.69-1.333
		c0.443-0.444,1.865-0.977,1.865-0.977s0.711,0.533,1.864,0.622c1.156,0.089,1.334,0.889,1.513,1.422
		c0.177,0.533,0.089,1.688,1.599,1.865c0,0-0.176,1.333-0.711,1.511c-0.533,0.177-0.711,0.711,0.444,0.977
		c1.155,0.267,1.512-0.444,1.512-0.444s0.775,0.356,1.597,0.533c0.822,0.177,0.98,0.444,1.69,1.067
		c0.709,0.621,0.798,1.332,0.798,1.332s-0.621,0.799,0.088,1.777c0.713,0.977,1.246,1.332,1.246,1.332s-0.267,0.534-0.089,0.889
		c0.177,0.356,0.622,0.799,0.622,0.799s-0.357,1.245,0.089,1.955c0.443,0.711,1.066,1.422,1.245,1.688
		c0.176,0.267,0.709,0,1.243-0.266c0.532-0.267,0.8,0.089,0.532-0.888c0,0,0.711-0.267,0.621-0.978
		c-0.088-0.711,0.356-0.178,1.154-0.355c0.801-0.178,1.6,0.177,1.6-0.978c0-1.155-0.088-1.332-0.799-2.398
		c-0.711-1.067-1.422-3.11-2.222-3.999c-0.799-0.888-2.577-1.954-3.553-3.198c-0.978-1.244-3.022-2.221-3.377-2.31
		c-0.356-0.089-0.8-0.089-1.067-1.155c-0.265-1.067,0.889-1.777,1.422-2.132c0.534-0.356,0.801-1.156,0.801-1.6
		c0-0.444,0.8-0.8,0.531-1.51c-0.265-0.711-0.621-0.978-0.886-1.333c-0.269-0.356-0.269-1.51-0.09-2.044
		c0.178-0.532,0.267-0.71,0.267-0.71s0.889-0.178,1.156-1.777l0.176-1.599l0.711,0.088c0,0,0.445,1.066,1.955,1.422
		c1.51,0.355,2.221-0.089,2.577-0.444c0.354-0.356,0.443-1.244,0.976-1.866c0.533-0.622,0.474-2.109,0.474-2.109
		c-0.238-1.312-0.039-3.566,0.478-4.772c0.358-0.836,0.188-2.316-0.478-4.534c-0.358-1.194,0.164-1.294-0.238-3.103
		c-0.239-1.074,0.716-1.79-0.12-2.744c-0.836-0.954-1.193-2.267-1.312-2.625c-0.119-0.357-0.716-0.716-0.955-1.432
		c-0.238-0.715-0.834-0.954-1.67-2.028c-0.836-1.074-1.552-2.147-1.91-3.221c-0.356-1.074-0.715-1.79-1.073-2.267
		c-0.715-0.955-1.431-1.313-2.148-1.552c-0.407-0.135,0.119-0.954-1.432-1.789c-0.66-0.357-1.32-0.604-1.897-0.816L21.778,7.64
		c0,0-0.533-0.267-1.066-0.534c-0.532-0.266-1.6,0.089-1.955,0.534c-0.355,0.444-1.51,1.865-1.51,1.865s-0.354-0.355-0.354-0.888
		s-0.356-0.445-0.89-0.711c-0.532-0.266-0.978,1.155-0.978,1.155l-1.067-1.599c0,0,0-0.356-0.353-0.711
		c-0.356-0.355-0.876-0.195-0.876-0.195c-0.416-0.046-0.843-0.031-1.25,0.105c-1.074,0.358-2.029,0.358-1.434-1.074
		c0.6-1.431,1.193-2.386,1.074-3.579s0-1.67-0.356-2.744c0,0,0.476-0.955,0.836-1.909c0.356-0.955-0.12-1.67-0.36-2.267"/>
	<path clip-path="url(#SVGID_2_)" fill="#FFFFFF" d="M43.813-4.533c0,0.8,0.596,1.53,0.596,1.53c1.075,1.312,2.864,3.58,7.16,6.921
		c0,0,3.459,2.863,4.653,3.937c1.192,1.073,2.744,2.267,3.698,3.46c0,0,1.434,0.596,1.789,1.074
		c0.357,0.477,0.599,0.715,0.599-1.074c0-1.79,0.117-2.029-1.074-2.983c-1.194-0.954-0.36-1.432-1.551-2.029
		c0,0,0.715-0.835,1.19-0.954c0.48-0.119,1.552,0.238,0.36-0.597c-1.194-0.834-2.387-2.505-2.268-3.102
		c0.118-0.596,0.717-1.073,1.312-1.312c0.596-0.239,0.479-0.478-0.595-1.074c-1.074-0.596-1.435-0.835-2.269-2.267
		c-0.836-1.432-0.356-1.193,0.358-1.074c0.716,0.12,0.956-0.119-0.12-0.835c-1.074-0.716-1.193-1.193-1.908-0.955"/>
	<path clip-path="url(#SVGID_2_)" fill="none" stroke="#000000" stroke-width="0.43" stroke-linejoin="round" d="M11.239-4.912
		c0.24,0.597,0.717,1.312,0.36,2.267c-0.36,0.954-0.836,1.909-0.836,1.909c0.356,1.074,0.237,1.551,0.356,2.744
		s-0.475,2.148-1.074,3.579c-0.596,1.432,0.359,1.432,1.434,1.074c0.407-0.136,0.834-0.151,1.25-0.105c0,0,0.52-0.16,0.876,0.195
		c0.353,0.355,0.353,0.711,0.353,0.711l1.067,1.599c0,0,0.445-1.421,0.978-1.155c0.533,0.266,0.89,0.178,0.89,0.711
		s0.354,0.888,0.354,0.888s1.154-1.421,1.51-1.865c0.355-0.445,1.423-0.8,1.955-0.534c0.533,0.267,1.066,0.534,1.066,0.534
		l0.688,0.592c0.577,0.212,1.237,0.459,1.897,0.816c1.551,0.835,1.024,1.654,1.432,1.789c0.718,0.239,1.434,0.597,2.148,1.552
		c0.358,0.477,0.717,1.193,1.073,2.267c0.358,1.074,1.074,2.147,1.91,3.221c0.836,1.074,1.432,1.313,1.67,2.028
		c0.239,0.716,0.836,1.075,0.955,1.432c0.118,0.358,0.476,1.671,1.312,2.625c0.836,0.954-0.119,1.67,0.12,2.744
		c0.402,1.809-0.12,1.909,0.238,3.103c0.666,2.218,0.836,3.698,0.478,4.534c-0.517,1.206-0.716,3.46-0.478,4.772
		c0,0,0.06,1.487-0.474,2.109c-0.532,0.622-0.621,1.51-0.976,1.866c-0.356,0.355-1.067,0.799-2.577,0.444
		c-1.51-0.356-1.955-1.422-1.955-1.422l-0.711-0.088l-0.176,1.599c-0.268,1.599-1.156,1.777-1.156,1.777s-0.089,0.178-0.267,0.71
		c-0.179,0.534-0.179,1.688,0.09,2.044c0.265,0.355,0.621,0.622,0.886,1.333c0.269,0.71-0.531,1.066-0.531,1.51
		c0,0.444-0.267,1.244-0.801,1.6c-0.533,0.355-1.687,1.065-1.422,2.132c0.268,1.066,0.711,1.066,1.067,1.155
		c0.354,0.089,2.399,1.066,3.377,2.31c0.976,1.244,2.754,2.31,3.553,3.198c0.8,0.889,1.511,2.932,2.222,3.999
		c0.711,1.066,0.799,1.243,0.799,2.398c0,1.155-0.799,0.8-1.6,0.978c-0.798,0.177-1.242-0.356-1.154,0.355
		c0.09,0.711-0.621,0.978-0.621,0.978c0.268,0.977,0,0.621-0.532,0.888c-0.534,0.266-1.067,0.533-1.243,0.266
		c-0.179-0.266-0.802-0.977-1.245-1.688c-0.446-0.71-0.089-1.955-0.089-1.955s-0.445-0.443-0.622-0.799
		c-0.178-0.355,0.089-0.889,0.089-0.889s-0.533-0.355-1.246-1.332c-0.709-0.978-0.088-1.777-0.088-1.777s-0.089-0.711-0.798-1.332
		c-0.71-0.623-0.868-0.89-1.69-1.067c-0.821-0.177-1.597-0.533-1.597-0.533s-0.356,0.711-1.512,0.444
		c-1.155-0.266-0.978-0.8-0.444-0.977c0.535-0.178,0.711-1.511,0.711-1.511c-1.51-0.177-1.422-1.332-1.599-1.865
		c-0.179-0.533-0.356-1.333-1.513-1.422c-1.153-0.089-1.864-0.622-1.864-0.622s-1.422,0.533-1.865,0.977
		c-0.444,0.445-1.601,0.711-1.69,1.333c-0.088,0.622-0.709,1.155-1.241,1.777c-0.533,0.622-1.155-0.266-0.712-0.8
		c0.443-0.532,0.621-1.066,0.089-1.154c-0.532-0.089-1.154-0.178-0.89-0.8c0.269-0.622,0.446-0.8,0.623-1.6
		c0.178-0.8-0.445-1.421-0.978-1.599c-0.533-0.178-0.711-0.977-1.155-0.799c-0.443,0.177-1.599,0.355-1.508,1.333
		c0.087,0.977,0.087,1.155-0.535,1.598c-0.623,0.445-1.421,1.156-1.244,2.044c0.178,0.889,0,1.422-0.445,1.244
		c-0.441-0.177-0.441-0.089-1.42,0c-0.978,0.089-0.978,0.355-0.889,0.889l0.266,0.977l0.623,0.533c0.888,0.8,2.283,0.71,2.283,0.71
		c1.313-0.119,2.269,2.624,2.269,2.624s0.715-0.119,1.432,0.24c0.714,0.358,0.834,0,1.431-0.955c0.597-0.955,0.955-1.432,1.67-0.716
		c0.718,0.716,1.552,0.716,2.149,0.716c0.595,0,1.55-0.477,2.146,0.596c0.6,1.074-0.834,0.717-1.432,0.836
		c-0.594,0.119-1.67,1.312-1.67,1.312c0.596,0.239-0.238,1.79-0.955,3.221c-0.714,1.433-0.714,2.506-0.714,2.506
		c-0.12,0.597,0.834,0.716,2.265,1.193c1.435,0.478,2.149,2.029,3.461,3.58c1.313,1.551,0.955,1.909,0.955,1.909
		s1.433,0.597,2.625,1.67c1.194,1.074,1.194,1.313,0.478,1.194c-0.717-0.12-1.908,0-1.908,0s2.027,0.835,2.745,1.431
		c0.714,0.597,1.309,1.074,0.236,1.67c-1.073,0.597-1.79,1.551-1.79,1.551c0.478,0,1.312,0.478,1.312,0.478
		c0.836-0.478,1.434,0,2.03,0.239c0.595,0.238,0.237,1.312,0.595,1.789c0.36,0.478-0.714,1.91-0.357,2.267
		c0.357,0.358,0.119,1.432,0.119,1.432l-0.356,1.551c0,0.835-0.479,2.148-0.479,2.148s0,1.551-0.475,2.148
		c-0.479,0.596-1.193,1.193-1.193,1.193s0.359,0.477,0.953,0.477c0.598,0,0,1.551-0.238,2.267c-0.237,0.716-0.355,1.551-0.355,1.551
		l-1.434,0.835l-0.955,1.074c-0.118,0.835-0.717,2.267-0.717,2.267l-1.19,0.716l0.356,0.477l-0.239,0.955l-1.071,0.596
		c-0.6,0.358-1.434-0.357-2.27,0.12s-2.026,0.954-2.744,0.477c-0.717-0.477-1.551-0.477-1.551-0.477s0.138,0.509,0.315,1.042
		c0.177,0.533-0.267,0.088-0.89,1.244c-0.62,1.155-1.51,0.711-1.51,0.711c0.09,0.621-1.776,1.332-1.776,1.332l-2.666,0.089
		c0,0-0.444,1.688-0.354,2.666c0.088,0.977-0.8,0.621-1.065,0.266c-0.269-0.355-0.445-0.888-0.356-1.333
		c0.088-0.444,0.088-1.51-0.355-1.421s-1.422,0.266-1.954-0.356s-1.154-0.355-1.864,0c-0.712,0.356-1.423,0.8-1.689,1.244
		c-0.267,0.444-1.599,1.066-1.599,1.066s-0.09,1.688-0.446,2.133"/>
	<path clip-path="url(#SVGID_2_)" fill="none" stroke="#000000" stroke-width="0.43" stroke-linejoin="round" d="M55.745-5.867
		c0.715-0.238,0.834,0.239,1.908,0.955c1.076,0.716,0.836,0.955,0.12,0.835c-0.715-0.119-1.194-0.358-0.358,1.074
		c0.834,1.432,1.194,1.671,2.269,2.267c1.073,0.596,1.19,0.835,0.595,1.074c-0.595,0.239-1.193,0.716-1.312,1.312
		c-0.119,0.597,1.073,2.268,2.268,3.102c1.191,0.835,0.12,0.478-0.36,0.597c-0.476,0.119-1.19,0.954-1.19,0.954
		c1.19,0.597,0.356,1.075,1.551,2.029c1.191,0.954,1.074,1.193,1.074,2.983c0,1.789-0.241,1.551-0.599,1.074
		c-0.355-0.478-1.789-1.074-1.789-1.074c-0.954-1.193-2.506-2.387-3.698-3.46c-1.194-1.074-4.653-3.937-4.653-3.937
		c-4.296-3.341-6.085-5.609-7.16-6.921c0,0-0.596-0.73-0.596-1.53"/>
	<path clip-path="url(#SVGID_2_)" fill="none" stroke="#000000" stroke-width="0.43" stroke-dasharray="2.059,1.029" d="
		M17.455,53.989c0.31-0.654,1.119-2.283,1.779-2.943c0.836-0.835,0-2.744,2.506-2.267s1.603-1.059,2.147-2.148
		c0.342-0.683,1.011-4.086,3.563-1.484 M-1.288,17.28c1.909,2.028,3.102,2.983,4.534,4.175c1.431,1.194,2.029,3.222,4.416,3.222
		c2.384,0,4.89,0.119,7.515,2.863c2.625,2.745,4.058,1.823,6.086,0.869c0,0,2.507-1.464,3.461-1.226c0,0,0.953,2.147,1.908,4.772
		s1.073,5.37-0.478,4.773c-1.55-0.596-2.504,0.835-1.55,1.909c0.953,1.074,1.671,2.387,2.386,3.46
		c0.715,1.074,0.239,1.551-0.478,2.387"/>
	<g clip-path="url(#SVGID_2_)">
		<path d="M60.518,105.224c-0.03,0.096-0.048,0.168-0.174,0.66c-0.233,0.912-0.51,1.529-1.014,2.243
			c-0.12-0.108-0.216-0.174-0.365-0.246c0.461-0.6,0.707-1.092,0.929-1.865c0.103-0.36,0.162-0.66,0.181-0.899L60.518,105.224z
			 M62.011,103.773c-0.023,0.162-0.036,0.342-0.036,0.612v4.125c0,0.384-0.138,0.492-0.636,0.492c-0.245,0-0.485-0.012-0.827-0.042
			c-0.019-0.186-0.042-0.27-0.108-0.444c0.384,0.072,0.648,0.102,0.888,0.102c0.216,0,0.271-0.03,0.271-0.15v-4.09
			c0-0.258-0.013-0.432-0.036-0.605H62.011z M63.354,105.08c0.048,0.348,0.144,0.678,0.371,1.241
			c0.234,0.588,0.486,1.02,0.894,1.523c-0.155,0.108-0.239,0.18-0.342,0.3c-0.51-0.684-0.737-1.122-1.02-1.907
			c-0.006-0.006-0.096-0.312-0.287-0.918c-0.024-0.072-0.024-0.072-0.042-0.12L63.354,105.08z"/>
		<path d="M65.936,104.804c-0.228,0.342-0.377,0.534-0.605,0.756c-0.102-0.12-0.12-0.132-0.3-0.246c0.33-0.3,0.456-0.45,0.647-0.75
			c0.192-0.3,0.276-0.498,0.372-0.857l0.396,0.108c-0.186,0.414-0.203,0.45-0.312,0.654h1.05c0.239,0,0.354-0.006,0.503-0.03v0.384
			c-0.155-0.012-0.281-0.018-0.479-0.018h-0.426c0.132,0.282,0.192,0.432,0.318,0.78l-0.372,0.12
			c-0.102-0.366-0.174-0.575-0.324-0.899H65.936z M68.112,108.468c0.33-0.552,0.517-1.001,0.738-1.793l0.384,0.15
			c-0.264,0.78-0.42,1.127-0.714,1.643h1.277c0.275,0,0.479-0.012,0.642-0.036v0.432c-0.198-0.03-0.401-0.042-0.642-0.042h-4.042
			c-0.246,0-0.455,0.012-0.659,0.042v-0.432c0.144,0.024,0.371,0.036,0.659,0.036H68.112z M67.525,106.004
			c0-0.234-0.013-0.366-0.036-0.486h0.449c-0.029,0.126-0.035,0.246-0.035,0.486v0.192h1.637c0.258,0,0.401-0.006,0.546-0.03v0.402
			c-0.156-0.024-0.306-0.03-0.546-0.03h-3.508c-0.24,0-0.396,0.006-0.552,0.03v-0.402c0.144,0.024,0.294,0.03,0.552,0.03h1.493
			V106.004z M66.817,108.313c-0.168-0.684-0.264-0.959-0.521-1.481l0.354-0.126c0.276,0.6,0.36,0.822,0.54,1.469L66.817,108.313z
			 M68.251,104.811c-0.132,0.228-0.204,0.335-0.402,0.593c-0.12-0.102-0.191-0.144-0.323-0.198c0.378-0.414,0.642-0.917,0.768-1.475
			l0.396,0.102c-0.12,0.312-0.168,0.426-0.264,0.642h1.493c0.246,0,0.365-0.006,0.516-0.03v0.396c-0.15-0.024-0.276-0.03-0.516-0.03
			h-0.786c0.174,0.324,0.258,0.503,0.36,0.792l-0.366,0.126c-0.12-0.396-0.18-0.546-0.359-0.917H68.251z"/>
		<path d="M73.801,104.96c0.096-0.204,0.168-0.402,0.234-0.648h-1.997v0.432c0,2.375-0.168,3.376-0.702,4.293
			c-0.096-0.132-0.174-0.222-0.3-0.318c0.48-0.815,0.618-1.673,0.618-3.82c0-0.582-0.006-0.75-0.03-0.959
			c0.228,0.024,0.408,0.03,0.726,0.03h3.34c0.342,0,0.517-0.012,0.666-0.036v0.408c-0.168-0.024-0.33-0.03-0.653-0.03h-1.271
			c-0.078,0.27-0.138,0.42-0.24,0.648h1.086c0.306,0,0.491-0.006,0.647-0.024c-0.024,0.156-0.03,0.33-0.03,0.582v1.067
			c0,0.264,0.006,0.432,0.03,0.587c-0.186-0.018-0.384-0.024-0.642-0.024h-0.857v1.469c0,0.372-0.12,0.438-0.792,0.438
			c-0.162,0-0.3-0.006-0.485-0.024c-0.024-0.18-0.036-0.216-0.096-0.39c0.275,0.048,0.491,0.066,0.743,0.066
			c0.21,0,0.252-0.018,0.252-0.132v-1.427H73.22c-0.234,0-0.433,0.006-0.63,0.024c0.018-0.18,0.023-0.366,0.023-0.618v-1.007
			c0-0.27-0.006-0.419-0.023-0.612c0.174,0.018,0.365,0.024,0.63,0.024H73.801z M73.352,107.545
			c-0.33,0.587-0.654,0.983-1.086,1.355c-0.09-0.12-0.162-0.18-0.294-0.264c0.474-0.384,0.756-0.713,1.031-1.253L73.352,107.545z
			 M72.974,105.866h2.555v-0.582h-2.555V105.866z M72.974,106.831h2.555v-0.647h-2.555V106.831z M75.288,107.383
			c0.33,0.492,0.701,0.87,1.169,1.2c-0.113,0.083-0.197,0.162-0.306,0.3c-0.485-0.396-0.791-0.738-1.181-1.326L75.288,107.383z"/>
		<path d="M77.055,104.672c0.132,0.024,0.246,0.03,0.479,0.03h1.037c0.246,0,0.354-0.006,0.48-0.03v0.384
			c-0.145-0.012-0.246-0.018-0.433-0.018h-1.085c-0.216,0-0.317,0.006-0.479,0.024V104.672z M77.271,103.845
			c0.138,0.024,0.228,0.03,0.432,0.03h0.804c0.204,0,0.294-0.006,0.432-0.03v0.378c-0.12-0.018-0.258-0.024-0.432-0.024h-0.804
			c-0.18,0-0.3,0.006-0.432,0.024V103.845z M77.288,105.512c0.114,0.018,0.21,0.024,0.408,0.024h0.821
			c0.198,0,0.288-0.006,0.401-0.024v0.366c-0.132-0.018-0.222-0.024-0.401-0.024h-0.821c-0.198,0-0.3,0.006-0.408,0.024V105.512z
			 M77.288,106.339c0.12,0.018,0.204,0.024,0.408,0.024h0.821c0.204,0,0.288-0.006,0.401-0.024v0.366
			c-0.119-0.018-0.222-0.024-0.401-0.024h-0.821c-0.187,0-0.288,0.006-0.408,0.024V106.339z M77.307,109.038
			c0.018-0.168,0.029-0.372,0.029-0.582v-0.798c0-0.198-0.006-0.342-0.023-0.492c0.155,0.018,0.252,0.024,0.485,0.024h0.695
			c0.223,0,0.336-0.006,0.438-0.018c-0.013,0.102-0.019,0.246-0.019,0.474v0.821c0,0.21,0.006,0.336,0.03,0.492h-0.372v-0.24h-0.894
			v0.318H77.307z M77.678,108.408h0.894v-0.905h-0.894V108.408z M79.585,105.836c-0.21,0-0.33,0.006-0.498,0.024v-0.39
			c0.139,0.024,0.271,0.03,0.517,0.03h0.701v-0.78h-0.479c-0.18,0-0.318,0.006-0.456,0.024v-0.372
			c0.126,0.018,0.252,0.024,0.45,0.024h0.485v-0.276c0-0.228-0.012-0.354-0.036-0.486h0.426c-0.03,0.138-0.036,0.24-0.036,0.486
			v0.276h0.36c0.186,0,0.317-0.006,0.42-0.024v0.372c-0.126-0.018-0.246-0.024-0.402-0.024h-0.378v0.78h0.252
			c0.246-0.258,0.39-0.426,0.624-0.744l0.065-0.084c0.246-0.36,0.39-0.618,0.468-0.839l0.378,0.216
			c-0.036,0.036-0.114,0.15-0.27,0.396c-0.192,0.294-0.528,0.72-0.834,1.056h0.654c0.252,0,0.365-0.006,0.51-0.03v0.396
			c-0.156-0.024-0.271-0.03-0.517-0.03h-0.977c-0.276,0.258-0.522,0.468-0.768,0.642h1.301c0.204,0,0.33-0.006,0.558-0.024
			c-0.018,0.168-0.023,0.282-0.023,0.485v1.589c0,0.234,0.012,0.414,0.035,0.6H81.72v-0.318h-1.703v0.318h-0.384
			c0.024-0.18,0.036-0.36,0.036-0.594v-1.667c-0.264,0.186-0.42,0.288-0.611,0.396c-0.114-0.174-0.126-0.192-0.222-0.288
			c0.611-0.282,1.192-0.66,1.727-1.139H79.585z M80.022,107.461h1.703v-0.672h-1.703V107.461z M80.022,108.486h1.703v-0.713h-1.703
			V108.486z"/>
		<path d="M84.878,107.443h-0.517c-0.264,0-0.329,0-0.497,0.012c0.018-0.156,0.023-0.306,0.023-0.54v-2.23
			c0-0.18-0.012-0.324-0.023-0.468c0.138,0.018,0.252,0.024,0.479,0.024h0.672c0.113-0.18,0.197-0.354,0.287-0.6l0.396,0.078
			c-0.108,0.216-0.187,0.36-0.288,0.522h1.469c0.234,0,0.354-0.006,0.492-0.024c-0.018,0.12-0.018,0.186-0.018,0.377v0.996
			c0,0.156,0.006,0.282,0.018,0.408c-0.18-0.012-0.306-0.018-0.468-0.018H84.26v0.402h3.508c0.24,0,0.408-0.012,0.563-0.036v0.384
			c-0.186-0.018-0.348-0.03-0.575-0.03H84.26v0.432h3.437c0.21,0,0.342-0.006,0.474-0.024c-0.006,0.054-0.019,0.15-0.042,0.336
			c-0.072,0.702-0.174,1.211-0.282,1.379c-0.114,0.168-0.275,0.228-0.63,0.228c-0.168,0-0.264-0.006-0.455-0.018
			c-0.019-0.168-0.03-0.21-0.09-0.378c0.239,0.036,0.407,0.054,0.587,0.054c0.198,0,0.271-0.042,0.318-0.198
			c0.065-0.216,0.132-0.612,0.18-1.067h-2.507v0.786h1.128v-0.294c0-0.138-0.006-0.222-0.024-0.336h0.402
			c-0.019,0.108-0.024,0.234-0.024,0.36v0.3c0,0.12,0,0.204,0.012,0.312c-0.065,0-0.065,0-0.222-0.006
			c-0.042-0.006-0.156-0.006-0.21-0.006h-2.488v0.276h-0.396c0.024-0.144,0.036-0.312,0.036-0.474l-0.006-0.378
			c0-0.15-0.006-0.234-0.03-0.36h0.414c-0.018,0.108-0.018,0.186-0.018,0.336v0.27h1.056V107.443z M86.977,104.954v-0.408H84.26
			v0.408H86.977z M84.26,105.68h2.717v-0.432H84.26V105.68z"/>
	</g>
	<g clip-path="url(#SVGID_2_)">
		<path d="M34.397,10.626c-0.078,0.09-0.132,0.168-0.203,0.294c-0.181-0.336-0.271-0.564-0.384-1.025
			c0.012,0.264,0.029,0.768,0.029,0.953v1.841c0,0.324,0.013,0.534,0.036,0.695H33.45c0.024-0.168,0.036-0.39,0.036-0.695v-1.691
			c0-0.27,0.012-0.653,0.036-0.953c-0.162,0.726-0.384,1.307-0.672,1.775c-0.078-0.168-0.12-0.228-0.222-0.342
			c0.336-0.456,0.605-1.151,0.81-2.051h-0.216c-0.187,0-0.306,0.006-0.42,0.024V9.079c0.102,0.018,0.228,0.024,0.42,0.024h0.264
			V8.527c0-0.342-0.006-0.474-0.03-0.618h0.414c-0.024,0.15-0.03,0.317-0.03,0.611v0.582h0.132c0.181,0,0.276-0.006,0.39-0.024
			v0.366c-0.119-0.012-0.239-0.018-0.384-0.018h-0.119c0.132,0.474,0.275,0.786,0.533,1.187v-0.359
			c0.145,0.018,0.258,0.024,0.54,0.024v-0.6c-0.24,0-0.33,0.006-0.468,0.024v-0.36c0.144,0.024,0.258,0.03,0.569,0.03h2.398
			c0.33,0,0.444-0.006,0.594-0.03v0.366c-0.149-0.018-0.264-0.03-0.485-0.03v0.6h0.138c0.313,0,0.444-0.006,0.576-0.03v0.366
			c-0.108-0.012-0.222-0.018-0.576-0.018H37.54v0.689c0.306,0,0.401-0.006,0.527-0.03v0.366c-0.174-0.024-0.336-0.03-0.605-0.03
			h-1.079v0.54h1.14c0.293,0,0.468-0.012,0.623-0.036v0.396c-0.174-0.024-0.342-0.036-0.623-0.036h-1.14v0.276
			c0,0.276,0.012,0.461,0.036,0.653h-0.42c0.03-0.209,0.036-0.372,0.036-0.647v-0.282h-1.109c-0.3,0-0.462,0.006-0.624,0.03v-0.384
			c0.132,0.024,0.306,0.03,0.624,0.03h1.109v-0.54h-1.032c-0.209,0-0.383,0.012-0.545,0.03v-0.366
			c0.149,0.024,0.228,0.024,0.474,0.03v-0.689h-0.03c-0.233,0-0.359,0.006-0.51,0.024L34.397,10.626z M35.699,8.875
			c0,0.15,0.006,0.258,0.023,0.342h-0.401c0.018-0.114,0.024-0.186,0.024-0.336V8.767H34.92c-0.234,0-0.391,0.006-0.564,0.03V8.419
			c0.139,0.024,0.265,0.03,0.564,0.03h0.426v-0.12c0-0.18-0.007-0.282-0.03-0.396h0.414c-0.019,0.114-0.03,0.216-0.03,0.402v0.114
			h1.067v-0.12c0-0.174-0.006-0.282-0.03-0.396h0.414c-0.024,0.114-0.03,0.216-0.03,0.402v0.114h0.468
			c0.294,0,0.45-0.006,0.618-0.036v0.39c-0.181-0.03-0.336-0.036-0.612-0.036H37.12v0.108c0,0.156,0.006,0.252,0.024,0.342h-0.402
			c0.019-0.09,0.024-0.198,0.024-0.336V8.767h-1.067V8.875z M36.035,10.278v-0.6h-0.762v0.6H36.035z M35.273,11.286h0.762v-0.689
			h-0.762V11.286z M37.198,10.278v-0.6h-0.815v0.6H37.198z M36.383,11.286h0.815v-0.689h-0.815V11.286z"/>
		<path d="M41.705,9.595c0.228,0.743,0.432,1.175,0.779,1.709c0.229,0.336,0.504,0.642,0.863,0.947
			c0.313,0.27,0.51,0.408,0.948,0.654c-0.114,0.138-0.156,0.21-0.252,0.396c-0.918-0.611-1.415-1.091-1.865-1.787
			c-0.312-0.492-0.498-0.894-0.695-1.518c-0.145,0.63-0.336,1.109-0.63,1.571c-0.438,0.684-0.924,1.133-1.835,1.685
			c-0.078-0.156-0.126-0.234-0.252-0.36c1.428-0.75,2.159-1.757,2.398-3.298H39.54c-0.323,0-0.479,0.012-0.659,0.042v-0.45
			c0.155,0.03,0.348,0.042,0.678,0.042h1.648c0.024-0.251,0.03-0.419,0.03-0.647c0-0.276-0.012-0.486-0.042-0.654h0.479
			c-0.029,0.204-0.036,0.324-0.042,0.624c0,0.258-0.012,0.408-0.029,0.677h1.847c0.306,0,0.504-0.012,0.659-0.042v0.45
			c-0.186-0.03-0.359-0.042-0.653-0.042H41.705z M41.771,12.953c-0.329-0.51-0.509-0.738-0.899-1.146l0.313-0.204
			c0.354,0.348,0.605,0.647,0.923,1.104L41.771,12.953z"/>
	</g>
	<g clip-path="url(#SVGID_2_)">
		<path d="M11.016,22.395v0.426h-0.462c0.018-0.132,0.023-0.252,0.023-0.45v-3.256c0-0.246-0.006-0.324-0.023-0.468
			c0.12,0.012,0.233,0.018,0.468,0.018h3.196c0.258,0,0.329,0,0.468-0.018c-0.019,0.144-0.019,0.222-0.019,0.468v3.244
			c0,0.18,0.006,0.336,0.019,0.462h-0.456v-0.426H11.016z M14.229,19.061h-3.214v2.944h3.214V19.061z"/>
		<path d="M16.146,19.708c0.569,0.234,1.001,0.456,1.523,0.786l-0.234,0.402c-0.438-0.318-0.983-0.618-1.529-0.822L16.146,19.708z
			 M15.989,22.449c0.39,0,1.014-0.144,1.613-0.372c0.743-0.282,1.313-0.708,1.799-1.337c0.336-0.438,0.534-0.815,0.72-1.343
			c0.15,0.156,0.21,0.21,0.372,0.318c-0.521,1.248-1.254,2.063-2.309,2.584c-0.42,0.21-1.025,0.414-1.518,0.516
			c-0.096,0.018-0.204,0.042-0.323,0.066c-0.12,0.024-0.145,0.036-0.234,0.066L15.989,22.449z M16.613,18.275
			c0.588,0.24,0.978,0.438,1.487,0.755l-0.246,0.402c-0.414-0.306-1.037-0.642-1.476-0.792L16.613,18.275z"/>
		<path d="M23.536,19.504c-0.019,0.108-0.019,0.108-0.024,0.42c-0.018,1.001-0.186,1.595-0.594,2.111
			c-0.365,0.462-0.81,0.762-1.535,1.038c-0.09-0.192-0.132-0.252-0.275-0.402c0.485-0.144,0.785-0.294,1.097-0.552
			c0.636-0.51,0.87-1.122,0.87-2.291c0-0.168-0.006-0.21-0.024-0.324H23.536z M25.904,18.749c-0.06,0.078-0.071,0.096-0.144,0.24
			c-0.414,0.804-0.972,1.349-1.751,1.709c-0.09-0.15-0.138-0.204-0.294-0.342c0.42-0.162,0.666-0.306,0.947-0.569
			c0.276-0.258,0.498-0.552,0.672-0.894h-3.406c-0.33,0-0.485,0.006-0.708,0.03v-0.462c0.204,0.03,0.372,0.042,0.714,0.042h3.221
			c0.401,0,0.401,0,0.51-0.042L25.904,18.749z"/>
	</g>
	<g clip-path="url(#SVGID_2_)">
		<path d="M7.03,41.778c0.39,0.234,0.647,0.426,1.02,0.75l-0.239,0.336c-0.366-0.366-0.606-0.558-1.008-0.804L7.03,41.778z
			 M8.074,43.756c-0.276,0.708-0.414,0.996-0.815,1.685c-0.024,0.042-0.049,0.09-0.084,0.162l-0.349-0.312
			c0.313-0.33,0.636-0.947,0.93-1.769L8.074,43.756z M7.294,40.344c0.402,0.27,0.648,0.468,0.954,0.774l-0.252,0.306
			c-0.288-0.324-0.54-0.546-0.947-0.815L7.294,40.344z M8.974,41.046c-0.271,0-0.414,0.006-0.57,0.03v-0.378
			c0.175,0.024,0.336,0.036,0.57,0.036h1.014c0-0.234-0.007-0.318-0.036-0.486h0.42c-0.03,0.162-0.036,0.24-0.036,0.486h1.157
			c0.252,0,0.407-0.012,0.588-0.036v0.378c-0.162-0.024-0.307-0.03-0.588-0.03h-1.157v0.402h0.947c0.275,0,0.414-0.006,0.575-0.03
			v0.366c-0.174-0.024-0.323-0.03-0.569-0.03h-0.953v0.432h1.271c0.281,0,0.449-0.012,0.611-0.036v0.39
			c-0.174-0.03-0.33-0.036-0.611-0.036H8.878c-0.288,0-0.456,0.012-0.636,0.036v-0.39c0.161,0.024,0.329,0.036,0.636,0.036h1.109
			v-0.432H9.094c-0.246,0-0.396,0.006-0.57,0.03v-0.366c0.162,0.024,0.313,0.03,0.57,0.03h0.894v-0.402H8.974z M9.087,45.01
			c0,0.318,0.013,0.51,0.036,0.654H8.691c0.024-0.168,0.03-0.342,0.03-0.654v-1.649c0-0.294,0-0.372-0.019-0.54
			c0.198,0.018,0.342,0.024,0.594,0.024h1.848c0.294,0,0.438-0.006,0.552-0.03c-0.019,0.15-0.024,0.342-0.024,0.642v1.691
			c0,0.36-0.12,0.461-0.54,0.461c-0.168,0-0.377-0.006-0.623-0.024c-0.024-0.144-0.048-0.228-0.114-0.366
			c0.276,0.048,0.486,0.066,0.684,0.066c0.192,0,0.228-0.03,0.228-0.162v-0.492H9.087V45.01z M11.306,43.571v-0.42H9.087v0.42
			H11.306z M11.306,44.326v-0.45H9.087v0.45H11.306z"/>
	</g>
	<g clip-path="url(#SVGID_2_)">
		<path d="M26.489,97.311c0.563-0.744,0.995-1.481,1.133-1.943l0.438,0.162c-0.019,0.036-0.019,0.036-0.066,0.126
			c-0.342,0.624-0.695,1.175-1.05,1.643c1.602-0.048,1.733-0.054,2.747-0.15c-0.408-0.444-0.54-0.57-0.983-0.923l0.33-0.21
			c0.695,0.612,1.073,1.001,1.751,1.805l-0.336,0.264c-0.234-0.318-0.313-0.414-0.492-0.63c-0.821,0.09-1.104,0.114-2.123,0.174
			c-0.587,0.036-0.894,0.048-1.367,0.06c-0.144,0.006-0.312,0.012-0.497,0.018c-0.084,0-0.097,0.006-0.282,0.024l-0.084-0.443
			c0.138,0.018,0.294,0.03,0.462,0.03l0.144-0.006H26.489z M26.249,100.753c0.024-0.198,0.036-0.372,0.036-0.558v-1.433
			c0-0.174-0.012-0.324-0.03-0.48c0.132,0.018,0.258,0.024,0.474,0.024h2.896c0.216,0,0.336-0.006,0.474-0.024
			c-0.023,0.156-0.029,0.282-0.029,0.48v1.433c0,0.204,0.012,0.378,0.036,0.558h-0.42v-0.366h-3.022v0.366H26.249z M26.663,100.033
			h3.022V98.66h-3.022V100.033z"/>
		<path d="M31.626,96.885c0.39,0.24,0.635,0.426,0.947,0.719l-0.222,0.312c-0.354-0.36-0.54-0.504-0.942-0.75L31.626,96.885z
			 M32.717,98.84c-0.27,0.702-0.426,1.02-0.695,1.469c-0.15,0.252-0.15,0.252-0.174,0.282c-0.042,0.066-0.042,0.066-0.072,0.114
			l-0.33-0.318c0.114-0.108,0.139-0.138,0.258-0.312c0.223-0.318,0.486-0.857,0.726-1.487L32.717,98.84z M31.919,95.428
			c0.372,0.258,0.618,0.468,0.912,0.78l-0.246,0.288c-0.33-0.372-0.521-0.551-0.905-0.81L31.919,95.428z M33.67,96.52
			c-0.239,0.438-0.419,0.666-0.779,0.971c-0.084-0.114-0.144-0.168-0.264-0.234c0.372-0.27,0.552-0.479,0.743-0.887L33.67,96.52z
			 M33.341,99.625c-0.036,0.108-0.054,0.162-0.12,0.33l-0.39-0.048c0.239-0.527,0.39-1.043,0.42-1.415
			c0.119,0.012,0.312,0.018,0.569,0.018h2.183v-0.456h-2.284c-0.234,0-0.402,0.006-0.582,0.03v-0.372
			c0.144,0.024,0.282,0.03,0.582,0.03h2.099c0.443-0.006,0.443-0.006,0.552-0.018c-0.012,0.12-0.019,0.216-0.019,0.372v0.354
			c0,0.21,0.007,0.3,0.013,0.39c-0.181-0.012-0.318-0.018-0.552-0.018h-2.243c-0.06,0.251-0.084,0.324-0.126,0.479h2.692
			c0.234,0,0.39-0.006,0.498-0.024c-0.018,0.096-0.024,0.138-0.036,0.282c-0.03,0.288-0.114,0.672-0.174,0.828
			c-0.107,0.282-0.27,0.354-0.75,0.354c-0.203,0-0.474-0.012-0.713-0.042c-0.024-0.15-0.042-0.234-0.097-0.372
			c0.324,0.054,0.582,0.078,0.84,0.078c0.229,0,0.312-0.03,0.366-0.132c0.065-0.138,0.107-0.306,0.144-0.648H33.341z M34.582,95.8
			c0-0.228-0.006-0.318-0.036-0.462h0.432c-0.03,0.138-0.036,0.228-0.036,0.462v0.084h1.235c0.3,0,0.48-0.012,0.642-0.036v0.372
			c-0.174-0.024-0.354-0.03-0.636-0.03h-0.707v0.941c0,0.276-0.12,0.36-0.492,0.36c-0.107,0-0.228-0.006-0.384-0.018
			c-0.018-0.144-0.036-0.228-0.071-0.335c0.168,0.036,0.275,0.048,0.443,0.048c0.12,0,0.156-0.03,0.156-0.138v-0.857h-0.624
			c-0.024,0.396-0.09,0.636-0.24,0.875c-0.149,0.234-0.348,0.384-0.749,0.558c-0.066-0.09-0.066-0.09-0.264-0.252
			c0.659-0.228,0.881-0.516,0.911-1.181h-0.569c-0.294,0-0.462,0.006-0.63,0.03v-0.372c0.162,0.024,0.342,0.036,0.642,0.036h0.978
			V95.8z M36.009,96.37c0.336,0.3,0.504,0.485,0.786,0.869l-0.294,0.246c-0.234-0.408-0.402-0.606-0.762-0.917L36.009,96.37z"/>
	</g>
	<g clip-path="url(#SVGID_2_)">
		<path d="M67.38,20.3c-0.689,0.108-1.169,0.162-1.864,0.198c-0.036-0.144-0.084-0.264-0.174-0.39
			c1.199-0.012,2.482-0.198,3.496-0.516c0.287-0.09,0.396-0.138,0.552-0.228l0.287,0.372c-0.071,0.024-0.09,0.03-0.186,0.06
			c-0.611,0.198-1.092,0.324-1.691,0.432v1.427h1.835c0.313,0,0.492-0.012,0.672-0.042v0.462c-0.216-0.03-0.396-0.042-0.659-0.042
			H67.8v2.117c0,0.354,0.006,0.51,0.042,0.708h-0.504c0.03-0.198,0.042-0.36,0.042-0.726v-2.099h-1.745
			c-0.245,0-0.413,0.012-0.642,0.042v-0.462c0.187,0.03,0.36,0.042,0.648,0.042h1.738V20.3z"/>
		<path d="M72.745,23.13h-0.517c-0.264,0-0.329,0-0.497,0.012c0.018-0.156,0.023-0.306,0.023-0.54v-2.23
			c0-0.18-0.012-0.324-0.023-0.468c0.138,0.018,0.252,0.024,0.479,0.024h0.672c0.113-0.18,0.197-0.354,0.287-0.6l0.396,0.078
			c-0.108,0.216-0.187,0.36-0.288,0.522h1.469c0.234,0,0.354-0.006,0.492-0.024c-0.018,0.12-0.018,0.186-0.018,0.377v0.996
			c0,0.156,0.006,0.282,0.018,0.408c-0.18-0.012-0.306-0.018-0.468-0.018h-2.645v0.402h3.508c0.24,0,0.408-0.012,0.563-0.036v0.384
			c-0.186-0.018-0.348-0.03-0.575-0.03h-3.496v0.432h3.437c0.21,0,0.342-0.006,0.474-0.024c-0.006,0.054-0.019,0.15-0.042,0.336
			c-0.072,0.702-0.174,1.211-0.282,1.379c-0.114,0.168-0.275,0.228-0.63,0.228c-0.168,0-0.264-0.006-0.455-0.018
			c-0.019-0.168-0.03-0.21-0.09-0.378c0.239,0.036,0.407,0.054,0.587,0.054c0.198,0,0.271-0.042,0.318-0.198
			c0.065-0.216,0.132-0.612,0.18-1.067h-2.507v0.786h1.128v-0.294c0-0.138-0.006-0.222-0.024-0.336h0.402
			c-0.019,0.108-0.024,0.234-0.024,0.36v0.3c0,0.12,0,0.204,0.012,0.312c-0.065,0-0.065,0-0.222-0.006
			c-0.042-0.006-0.156-0.006-0.21-0.006h-2.488v0.276h-0.396c0.024-0.144,0.036-0.312,0.036-0.474l-0.006-0.378
			c0-0.15-0.006-0.234-0.03-0.36h0.414c-0.018,0.108-0.018,0.186-0.018,0.336v0.27h1.056V23.13z M74.844,20.642v-0.408h-2.717v0.408
			H74.844z M72.127,21.367h2.717v-0.432h-2.717V21.367z"/>
		<path d="M78.049,21.811c0.354,0.252,0.594,0.444,0.828,0.678c0.168-0.432,0.245-0.75,0.335-1.319h-1.085
			c-0.24,0.588-0.516,1.007-0.983,1.499c-0.108-0.167-0.15-0.216-0.264-0.306c0.426-0.408,0.689-0.786,0.905-1.313
			c0.138-0.33,0.21-0.624,0.264-1.019h-0.426c-0.222,0-0.384,0.012-0.539,0.03v-0.39c0.155,0.024,0.312,0.03,0.563,0.03h1.703
			c0.252,0,0.443-0.012,0.6-0.03v0.39c-0.174-0.018-0.36-0.03-0.594-0.03h-0.93c-0.06,0.372-0.096,0.527-0.186,0.821h0.911
			c0.252,0,0.384-0.006,0.498-0.024c-0.013,0.048-0.019,0.096-0.066,0.39c-0.138,0.888-0.323,1.463-0.647,2.015
			c-0.366,0.624-0.773,1.038-1.505,1.535c-0.084-0.144-0.139-0.204-0.271-0.312c0.792-0.498,1.229-0.947,1.56-1.619
			c-0.3-0.324-0.498-0.492-0.863-0.726L78.049,21.811z M80.705,19.856c-0.023,0.162-0.029,0.33-0.029,0.684v2.188
			c0,0.414,0,0.534,0.029,0.696h-0.443c0.024-0.162,0.03-0.3,0.03-0.696V20.54c0-0.33-0.012-0.51-0.036-0.684H80.705z
			 M82.055,19.479c-0.03,0.186-0.042,0.426-0.042,0.755v3.94c0,0.438-0.132,0.534-0.695,0.534c-0.126,0-0.288-0.006-0.666-0.024
			c-0.012-0.156-0.036-0.264-0.096-0.414c0.3,0.048,0.521,0.066,0.821,0.066c0.222,0,0.258-0.024,0.258-0.168v-3.934
			c0-0.324-0.012-0.552-0.042-0.755H82.055z"/>
		<path d="M84.745,23.13h-0.517c-0.264,0-0.329,0-0.497,0.012c0.018-0.156,0.023-0.306,0.023-0.54v-2.23
			c0-0.18-0.012-0.324-0.023-0.468c0.138,0.018,0.252,0.024,0.479,0.024h0.672c0.113-0.18,0.197-0.354,0.287-0.6l0.396,0.078
			c-0.108,0.216-0.187,0.36-0.288,0.522h1.469c0.234,0,0.354-0.006,0.492-0.024c-0.018,0.12-0.018,0.186-0.018,0.377v0.996
			c0,0.156,0.006,0.282,0.018,0.408c-0.18-0.012-0.306-0.018-0.468-0.018h-2.645v0.402h3.508c0.24,0,0.408-0.012,0.563-0.036v0.384
			c-0.186-0.018-0.348-0.03-0.575-0.03h-3.496v0.432h3.437c0.21,0,0.342-0.006,0.474-0.024c-0.006,0.054-0.019,0.15-0.042,0.336
			c-0.072,0.702-0.174,1.211-0.282,1.379c-0.114,0.168-0.275,0.228-0.63,0.228c-0.168,0-0.264-0.006-0.455-0.018
			c-0.019-0.168-0.03-0.21-0.09-0.378c0.239,0.036,0.407,0.054,0.587,0.054c0.198,0,0.271-0.042,0.318-0.198
			c0.065-0.216,0.132-0.612,0.18-1.067h-2.507v0.786h1.128v-0.294c0-0.138-0.006-0.222-0.024-0.336h0.402
			c-0.019,0.108-0.024,0.234-0.024,0.36v0.3c0,0.12,0,0.204,0.012,0.312c-0.065,0-0.065,0-0.222-0.006
			c-0.042-0.006-0.156-0.006-0.21-0.006h-2.488v0.276h-0.396c0.024-0.144,0.036-0.312,0.036-0.474l-0.006-0.378
			c0-0.15-0.006-0.234-0.03-0.36h0.414c-0.018,0.108-0.018,0.186-0.018,0.336v0.27h1.056V23.13z M86.844,20.642v-0.408h-2.717v0.408
			H86.844z M84.127,21.367h2.717v-0.432h-2.717V21.367z"/>
	</g>
	
		<ellipse transform="matrix(0.9685 -0.2489 0.2489 0.9685 -21.1067 22.5374)" opacity="0.3" clip-path="url(#SVGID_2_)" fill="#E94723" stroke="#000000" stroke-width="0.5" stroke-miterlimit="10" cx="78.57" cy="94.734" rx="4.96" ry="7.969"/>
	
		<ellipse opacity="0.4" clip-path="url(#SVGID_2_)" fill="#E94723" stroke="#000000" stroke-width="0.5" stroke-miterlimit="10" cx="61.812" cy="22.585" rx="2.25" ry="9.688"/>
	<g clip-path="url(#SVGID_2_)">
		<path d="M80.841,86.278c0.096,0.312,0.18,0.438,0.366,0.57c0.203,0.144,0.468,0.216,0.773,0.216c0.695,0,1.133-0.36,1.133-0.929
			c0-0.594-0.426-0.918-1.223-0.918c-0.168,0-0.318,0.012-0.48,0.03v-0.474c0.139,0.024,0.282,0.036,0.444,0.036
			c0.396,0,0.689-0.09,0.875-0.276c0.15-0.144,0.24-0.366,0.24-0.582c0-0.516-0.359-0.815-0.966-0.815
			c-0.365,0-0.629,0.102-0.797,0.318c-0.084,0.108-0.126,0.204-0.192,0.426l-0.497-0.108c0.102-0.306,0.174-0.444,0.323-0.6
			c0.264-0.288,0.672-0.438,1.193-0.438c0.87,0,1.421,0.456,1.421,1.175c0,0.366-0.155,0.69-0.419,0.875
			c-0.156,0.114-0.288,0.162-0.564,0.216c0.349,0.036,0.534,0.102,0.738,0.258c0.264,0.204,0.401,0.522,0.401,0.906
			c0,0.81-0.624,1.313-1.625,1.313c-0.605,0-1.056-0.168-1.344-0.492c-0.125-0.144-0.197-0.275-0.306-0.582L80.841,86.278z"/>
		<path d="M84.879,87.052c-0.161-0.162-0.287-0.348-0.359-0.552c-0.15-0.42-0.228-0.894-0.228-1.385
			c0-0.636,0.138-1.283,0.348-1.631c0.288-0.486,0.749-0.737,1.343-0.737c0.444,0,0.828,0.144,1.098,0.426
			c0.168,0.167,0.288,0.354,0.359,0.551c0.15,0.414,0.229,0.894,0.229,1.392c0,0.726-0.156,1.367-0.42,1.733
			c-0.3,0.42-0.72,0.63-1.271,0.63C85.533,87.478,85.161,87.334,84.879,87.052z M85.228,83.466
			c-0.126,0.138-0.223,0.288-0.271,0.438c-0.126,0.366-0.186,0.773-0.186,1.211c0,0.558,0.12,1.145,0.281,1.427
			c0.21,0.348,0.522,0.521,0.93,0.521c0.3,0,0.558-0.096,0.738-0.282c0.132-0.138,0.228-0.294,0.281-0.468
			c0.126-0.372,0.187-0.768,0.187-1.211c0-0.521-0.114-1.115-0.271-1.397c-0.197-0.36-0.521-0.546-0.941-0.546
			C85.665,83.16,85.419,83.262,85.228,83.466z"/>
		<path d="M89.529,83.412c0,0.378-0.3,0.678-0.672,0.678c-0.378,0-0.678-0.3-0.678-0.678c0-0.372,0.3-0.672,0.678-0.672
			C89.229,82.74,89.529,83.04,89.529,83.412z M88.45,83.412c0,0.228,0.18,0.408,0.407,0.408c0.222,0,0.402-0.18,0.402-0.408
			c0-0.222-0.181-0.402-0.402-0.402C88.63,83.01,88.45,83.19,88.45,83.412z"/>
	</g>
	<g clip-path="url(#SVGID_2_)">
		<path d="M23.135,0.656c0.155,0.024,0.27,0.03,0.497,0.03h0.378c0.204,0,0.3-0.006,0.498-0.03
			c-0.036,0.366-0.054,0.672-0.054,0.996v2.915c0,0.282,0.012,0.456,0.048,0.677h-0.57c0.036-0.21,0.048-0.402,0.048-0.677V1.094
			h-0.323c-0.192,0-0.348,0.012-0.521,0.036V0.656z"/>
		<path d="M27.167,2.425c-0.013,0.108-0.013,0.108-0.048,0.27c0.287-0.276,0.636-0.414,1.049-0.414c0.438,0,0.81,0.144,1.08,0.408
			c0.27,0.258,0.401,0.612,0.401,1.056c0,0.965-0.63,1.583-1.619,1.583c-0.468,0-0.857-0.138-1.146-0.408
			c-0.149-0.15-0.233-0.276-0.378-0.563l0.492-0.144c0.06,0.168,0.102,0.246,0.191,0.348c0.204,0.228,0.504,0.354,0.852,0.354
			c0.672,0,1.122-0.456,1.122-1.146c0-0.66-0.414-1.091-1.05-1.091c-0.306,0-0.569,0.084-0.785,0.252
			c-0.145,0.114-0.21,0.198-0.276,0.36l-0.449-0.042c0.048-0.234,0.065-0.36,0.09-0.618l0.132-1.355
			c0.012-0.174,0.018-0.246,0.018-0.36c0-0.084,0-0.108-0.012-0.258c0.186,0.024,0.281,0.03,0.636,0.03h1.235
			c0.323,0,0.462-0.012,0.701-0.048v0.51C29.176,1.112,28.983,1.1,28.702,1.1h-1.409L27.167,2.425z"/>
		<path d="M30.923,4.908c-0.161-0.162-0.287-0.348-0.359-0.552c-0.15-0.42-0.228-0.894-0.228-1.385c0-0.636,0.138-1.283,0.348-1.631
			c0.288-0.486,0.749-0.737,1.343-0.737c0.444,0,0.828,0.144,1.098,0.426c0.168,0.167,0.288,0.354,0.359,0.551
			c0.15,0.414,0.229,0.894,0.229,1.392c0,0.726-0.156,1.367-0.42,1.733c-0.3,0.42-0.72,0.63-1.271,0.63
			C31.577,5.334,31.205,5.19,30.923,4.908z M31.271,1.322C31.146,1.46,31.049,1.61,31.001,1.76
			c-0.126,0.366-0.186,0.773-0.186,1.211c0,0.558,0.12,1.145,0.281,1.427c0.21,0.348,0.522,0.521,0.93,0.521
			c0.3,0,0.558-0.096,0.738-0.282c0.132-0.138,0.228-0.294,0.281-0.468c0.126-0.372,0.187-0.768,0.187-1.211
			c0-0.521-0.114-1.115-0.271-1.397c-0.197-0.36-0.521-0.546-0.941-0.546C31.709,1.016,31.463,1.118,31.271,1.322z"/>
		<path d="M35.573,1.268c0,0.378-0.3,0.678-0.672,0.678c-0.378,0-0.678-0.3-0.678-0.678c0-0.372,0.3-0.672,0.678-0.672
			C35.273,0.596,35.573,0.896,35.573,1.268z M34.494,1.268c0,0.228,0.18,0.408,0.407,0.408c0.222,0,0.402-0.18,0.402-0.408
			c0-0.222-0.181-0.402-0.402-0.402C34.674,0.866,34.494,1.046,34.494,1.268z"/>
	</g>
</g>
</svg>
