<?xml version="1.0" encoding="utf-8"?>
<!-- Generator: Adobe Illustrator 16.0.0, SVG Export Plug-In . SVG Version: 6.00 Build 0)  -->
<!DOCTYPE svg PUBLIC "-//W3C//DTD SVG 1.1//EN" "http://www.w3.org/Graphics/SVG/1.1/DTD/svg11.dtd">
<svg version="1.1" id="レイヤー_1" xmlns="http://www.w3.org/2000/svg" xmlns:xlink="http://www.w3.org/1999/xlink" x="0px"
	 y="0px" width="107.373px" height="106.736px" viewBox="0 0 107.373 106.736" enable-background="new 0 0 107.373 106.736"
	 xml:space="preserve">
<path fill="none" stroke="#231815" stroke-width="0.43" stroke-linejoin="bevel" stroke-miterlimit="3.864" stroke-dasharray="2.27,0.85" d="
	M83.943,41.051l1.158,0.689l0.926,0.693h1.62l1.158-0.693H89.5l0.694,0.922l0.231,1.615l1.39,0.463l3.934-0.23l1.39-1.385
	l2.313-0.23l1.158,0.691l-0.231,2.998 M83.943,41.051l-1.389,1.611l-1.157,2.078l-3.241,3.459L77,50.738l-1.851,0.461l-1.39,1.613
	l0.463,2.771l1.391,1.613l0.924,2.766l-1.62,1.615l-0.232,0.696l1.159,0.921l-0.231,1.846l-2.086,0.229l-1.387,0.922l-7.87,0.694
	 M52.694,64.348l2.779,1.154h2.545l1.159-0.693h1.388l3.241,1.152l0.463,0.926"/>
<path fill="none" stroke="#231815" stroke-width="0.43" stroke-linejoin="bevel" stroke-miterlimit="3.864" stroke-dasharray="2.27,0.85" d="
	M46.008,46.832c1.61,1.61,4.37,3.91,8.971-0.229 M65.328,69.832L64.5,68.73l-0.231-1.844 M72.689,19c0,0-1.839,0.92-1.839,3.68
	c0,0.268,0,0.58,0,0.92c0,3.195,0,9.199,0,9.199 M76.073,91.338l1.389-1.844l0.231-3l-2.777-1.847l-1.621-0.458l-1.156-3.924
	l-3.473-2.073l0.926-2.079l-0.463-1.846l-1.389-0.922l-1.852-2.77l-0.56-0.744 M64.87,20.369c0.519,0.123,0.991,0.275,1.379,0.471
	c1.84,0.918,4.601,2.76,4.601,2.76 M49.917,13.365c0,0-1.149,1.953,2.532,3.793c3.679,1.842,4.6,2.762,6.44,2.762
	c1.451,0,4.047,0,5.981,0.449 M70.914,32.418c2.881,1.209,4.536,0.885,4.536-0.539c0-1.84,0-4.6,2.761-2.76
	c2.759,1.84,3.679,5.52,4.6,8.278c0.919,2.761,1.133,3.653,1.133,3.653 M57.049,34.639c0,0,1.84,0.92,3.68-0.92
	c1.839-1.84,2.76-5.52,7.36-2.76c1.039,0.623,1.983,1.108,2.824,1.459 M72.708,18.983c1.033,0.937,2.562,2.104,4.582,2.774
	c2.76,0.922,4.6,0.922,6.44,1.842c1.84,0.92,5.52-0.92,4.599-3.68c-0.918-2.762-0.918-4.602-0.918-4.602 M72.833,1.369
	c-0.144,2.91-1.063,5.67-1.983,7.51c-0.921,1.84-3.681,3.68-2.761,5.521c0.92,1.839,2.761,2.759,3.681,3.681
	c0.245,0.246,0.557,0.561,0.937,0.903 M65.328,69.6c0,0-1.839,3.68-2.76,3.68c-0.918,0-0.918,2.76-1.839,2.76
	c-0.92,0-2.761,1.84-1.84,3.68c0.92,1.84,0.75,1.933,0.75,1.933 M64.408,20.84c0,0-3.679,0.918-4.599,2.76
	c-0.92,1.84-1.841,0.92-2.76,1.84c-0.651,0.65-1.808,1.076-1.808,1.076"/>
<path fill="none" stroke="#231815" stroke-width="0.43" stroke-linejoin="bevel" stroke-miterlimit="3.864" stroke-dasharray="2.27,0.85" d="
	M41.523,63.734c2.759-0.113,10.235-10.117,9.545-2.988"/>
<path fill="none" stroke="#231815" stroke-width="0.43" stroke-linejoin="bevel" stroke-miterlimit="10.433" d="M57.049,34.639
	l0.274,1.336l2.547,2.766l0.232,0.926l1.388,0.459l0.462,0.926v3.689l-1.619,0.23l-1.387,1.384l-1.391,0.46l-0.232,0.924l1.159,0.23
	h3.934l0.696-0.23l-0.233,0.461l-0.694,0.461l0.231,0.463l-0.231,0.23H61.49l-0.694,0.923l-0.926,0.462l-0.463,0.461l0.926,0.922
	v0.232l-0.694,0.23l-0.232,0.459l0.463,0.693v0.461l-3.01,4.152v1.383l-1.387,0.926v0.689l-1.621,0.463l-0.231,0.922l-0.927,1.615
	 M76.073,91.338l1.852,0.693l0.231,1.613l2.316,0.693l0.694,0.693l0.231-1.387l1.157-1.15l-0.232-0.463l0.463-0.693l-0.231-0.924
	l0.463-0.459v-0.461l1.389-2.77l0.926-0.924l0.695-3.691l0.924-2.533l-0.924-1.156v-1.154l2.546-8.305l4.166-9.918l1.852-2.076
	l-0.463-0.692l-0.231-0.923h0.694l0.693-0.232l0.232-0.23l0.695-0.691l-1.158-0.461l0.231-0.924l0.232-0.459l-0.463-0.924v-0.924
	l0.695,0.463l1.157-0.463l1.158-1.846l1.388-1.152l0.927-0.924"/>
<path fill="none" stroke="#231815" stroke-width="0.43" stroke-linejoin="bevel" stroke-miterlimit="10.433" d="M100.378,46.584
	l0.693-0.459v-0.926l0.696-0.689h0.694l0.925-0.232l1.389-1.152l-1.158-0.463l1.158-1.152l-0.231-1.155l2.546-0.919l0.231-0.463
	l-1.851-0.461h-3.24l0.231-1.154v-1.154l0.925-0.922l2.084-0.23v-0.924l-2.315,0.232l-1.62-0.693l0.926-1.154l-1.852-0.461
	l-0.463-0.922l2.778-3.691l-2.315,0.23l-1.621-0.23l-1.387-0.461l-4.862-0.229l-1.389-0.926l-0.463-2.074l0.463-0.695l2.315,0.232
	l1.851-0.691l-0.232-1.385l1.854,0.463l1.387-3.693l-0.231-3.461l-1.62-2.074l-1.852-1.385l-3.008,0.691l-2.778,3l-1.737,0.174
	 M55.241,26.516l0.232,0.461l0.463,2.074l1.387,1.615l-0.274,3.973"/>
<path fill="none" stroke="#231815" stroke-width="0.43" stroke-linejoin="bevel" stroke-miterlimit="10.433" d="M49.917,13.365
	L49.917,13.365l-0.694,0.693l-1.852,0.459l-1.157,1.385l-0.695,0.461l-0.695-0.23l-0.231-0.689l-0.463,0.23l-0.231-0.695
	l0.925-0.689l-0.694-0.693l-0.694-0.922h-0.925l-0.695,0.23l-0.462-0.461l-0.696,2.307v1.152l-0.464-0.459l-0.231-0.693
	l-0.231,0.229l-0.462,0.465l-0.463,0.689l0.925,0.693l0.926,0.691v2.076l-0.695,1.385l-0.693-0.922l-0.926-0.693l-2.316-0.461
	l-0.925-0.924l-1.157,0.464l-1.158-0.233h-0.695v0.693l-0.232,0.23v1.615l0.232,0.23l0.231,0.46l-1.156,1.155l-0.231,0.691
	l0.231,0.232l0.462,0.23l0.694,0.461l0.928,0.461l0.462,0.922l1.157,1.156v0.459l-0.693,0.23v0.693h0.693l0.695-1.154l2.084,0.461
	l-0.233,0.464l-0.693,0.229v0.92l0.231,0.463l0.695,0.232h0.462l0.695,0.23l0.231,0.459l0.463,0.23h0.925l1.39,0.926l0.463,1.844
	l-0.231,2.539l0.231,0.461l0.694,0.922l0.463,0.691l-0.232,0.463l-1.156-0.463l-1.158-0.463l-0.464-0.459l-1.156,0.459l-0.232,0.695
	l-0.463-0.232l-0.463-0.691l-0.695-0.23V34.82l0.695,0.461l0.232-0.23v-0.924l-0.232-1.615l-0.231-0.691l-1.157,0.23l-0.463,0.23
	V31.82l0.23-0.924l-0.23-1.15l-0.695-0.232l-0.463-0.691h-0.232l-1.388,1.844l-0.231,1.385l-0.928,0.926l1.159,1.844l0.231,2.998
	l0.926,0.922l1.388,0.463l0.696-0.23l-0.233,0.693l0.464,0.688l0.231,0.696l0.695,0.92h0.694l-0.231,0.691l-2.547,4.152
	l-0.926,0.693l1.62-0.231l0.926-0.692l0.464-0.691l1.389-0.693l1.62-1.845l1.158-1.845l3.24,0.23l3.703-0.459l0.695,1.844
	l-1.158,0.924l-0.925,0.461l-0.695,0.23v0.691l0.463,0.923l0.694,0.46l0.694,0.924h1.621l0.926-1.154l2.084-0.459l1.851-2.771
	l-0.231-2.304l-1.62-2.539l-1.158-0.693l-3.241,1.154l-0.926-0.232l-0.694-0.691l2.778-1.846l0.695-0.922l-0.695-2.537l-1.621-2.537
	v-0.926l0.695-0.23l1.851-1.383l0.463-1.383l0.926,0.23l0.231,0.461l0.696,0.23l1.156,0.924l0.232-0.693l0.463-0.922 M73.064,1.83
	L73.064,1.83l-0.231-0.461H72.37l-1.389,0.926h-0.463l0.463-0.926l1.158-0.459l0.231-0.463l-0.694-0.232L70.981,0.91h-1.158
	l-1.851-0.695L66.583,1.83l-3.935,0.232l-2.083,2.078l-0.463,0.92l0.463,0.693l-1.619,2.307L58.25,8.52l-1.158,0.464l-1.156,0.462
	l-0.232,0.229l0.463,0.461l0.462-0.461h0.694l0.695-0.459l0.232,0.23v0.689l-0.232,0.463l-0.463,0.232v0.459l-2.082,0.691h-1.39
	l-0.231-0.23l0.231-0.691l-0.231-0.229h-0.695l-0.463-1.615L52,9.445l-0.694,0.689l-1.389,1.385l-0.926,0.23v0.463l0.463,0.23v0.461
	h0.232l0.694,0.229l-0.463,0.232 M87.299,14.924l-0.579,0.055l-4.398-2.305l-1.156-0.461l-1.852-0.232l-2.083-3.92l-0.463-2.307
	l-0.463-0.232V4.83L77,4.141l-0.231-1.614l1.157-2.312h-1.389L75.843,0.91l-2.085,1.152L73.064,1.83"/>
<path fill="none" stroke="#231815" stroke-width="0.43" stroke-linejoin="bevel" stroke-miterlimit="10.433" d="M59.639,81.651
	l0.463-0.462l2.083-0.23l3.24,1.615v1.15l-1.851,2.77h-0.926v-1.385l-1.158-0.691h-1.62l-0.693,0.461l-0.231,1.154l1.619,0.922
	l1.156,0.461L61.49,88.34v1.154l2.316,3.459l0.231,4.385l-1.158,1.846l-0.463,2.303l-2.777,2.541l-0.232,0.459l0.463,0.463v1.615
	l1.851-1.383l4.631-1.385l3.008-1.846l1.389-2.309h1.621l2.546-2.074l-1.621-0.23l0.463-0.695V95.49l-1.851-0.691v-1.154
	l2.082-2.535h1.39l0.694,0.229 M52.694,64.348l-0.925,1.154l-1.852,0.23l-0.926-0.691l-1.62,0.461l-0.463,1.154l0.695,0.23
	l-0.695,2.768l0.463,1.383V74.5l-0.231,0.692v0.688h-0.696l-0.694,0.693l0.927,2.077l1.619,1.153l2.084,3.23l-0.463,4.381
	l-1.852,3.23l-1.621,1.154l-1.389-1.387l-0.462-0.23l-0.926,0.693l1.852,2.768l-0.695,0.232v0.461l1.39,0.461l-0.464,0.459v0.465
	l0.233,0.23l0.231,0.92h3.472l3.935,0.926l0.925,0.922l0.464,2.076l0.926,0.23l0.462-0.23l1.389,0.689v-0.919l1.159-0.464
	l0.924-0.92v-1.846l-1.388-0.695l-1.159-1.152l-0.925-6.689l1.389-3l1.62-2.307l0.232-1.843"/>
<path fill="none" stroke="#231815" stroke-width="0.43" stroke-linejoin="bevel" stroke-miterlimit="10.433" d="M42.048,58.813
	l-0.463,0.462l-0.231,0.688l0.462,1.154v1.157l2.546-0.696l2.082-2.304l0.696-1.386l1.156-0.23l0.927-1.846l-0.695-0.693
	l0.463-0.922v-0.229l-0.463-4.154l-0.925-0.461l-1.389,0.23l-1.39,0.922l-0.694-0.691l-0.463,0.229l0.232,1.615l-2.083,4.154
	l-0.231,1.615l0.926,0.461l0.925,0.23h0.463l-0.232,0.463l-0.231,0.23H42.048z M56.86,47.969l-0.231,1.615l-0.925,0.23l0.232-0.691
	l-0.232-0.463l0.232-0.461L56.86,47.969z M52.694,57.658v-0.691l0.927,0.461v0.691h-0.695L52.694,57.658z M45.983,65.502
	l-0.928-1.154l-0.231-0.689v-0.926l0.231-0.689l2.779-1.154l0.462,0.689l-0.462,0.696v2.073h-0.463L45.983,65.502z M48.759,60.658
	l-0.231-0.695l0.695-0.92l0.694-0.23l0.232,0.691L48.759,60.658z M34.178,77.729l-2.317,3v0.923l-0.693,0.69l-1.62-0.463l1.62-2.766
	l2.084-1.152L34.178,77.729z M36.724,75.881l1.851-0.459l0.232-0.691l-1.39-0.693l-0.693-0.691h-0.696l-0.694,0.922L36.724,75.881z"
	/>
<path fill="none" stroke="#231815" stroke-width="0.43" stroke-linejoin="bevel" stroke-miterlimit="10.433" d="M16.123,28.592
	l0.232-0.23l0.232-1.385l0.232-1.385l0.462-0.229v2.768l-0.231,0.461l-0.231,0.459l-0.232,0.695l-0.232,1.615l1.158-0.232
	l1.388-0.463v0.463l-1.158,1.383l-0.924,0.232l-0.696-0.232l-0.231,0.924l-0.233,0.461l0.233,1.154l-0.927,0.924l-0.231,1.152
	l-0.462-0.691l-0.232-0.924l0.463-1.385l-0.231-0.691l-0.695-0.691l-0.231-0.463l0.231-0.461l0.695,0.23l0.462-0.459l0.231-2.078
	v-0.232l0.463-0.23h0.464L16.123,28.592z M10.104,36.203l0.463,0.463l0.462-0.463l0.233-0.922h-0.695l-0.926-0.23v0.691
	L10.104,36.203z M9.179,36.203l0.462,0.693l-0.232,0.689l-0.23,0.232l-0.463,0.463l-0.695-0.463l-0.231-0.461l0.231-1.383
	l0.695,1.152L9.179,36.203z M38.344,16.363l-1.389,0.695v-0.695l0.926-0.689L38.344,16.363z M39.039,17.518l0.694,0.23l0.231,0.461
	v0.924l-0.231,0.461l-0.462-0.23l-0.232-0.461V17.518z M30.706,14.059l-0.231-0.693l1.156-0.232h0.463l0.695,0.695l-0.695,0.461
	l-0.463,0.229L30.706,14.059z M31.399,18.902l-0.694,0.922l-0.231,0.693l-0.926,0.461l-0.231,0.23v0.924l-0.928,1.385l-1.156,1.152
	l-1.388,0.231h-0.926l0.694-0.231l0.232-0.691l-0.232-0.693v-0.461l0.462-0.23l0.926,0.23l0.232-0.23l-0.463-1.155v-0.229
	l0.231-0.23h0.463l0.231-0.461v-0.461l0.233-0.924l0.231-0.23l0.23-0.23h0.695l0.927-0.229l0.926-0.464v-0.23l-0.463-0.23
	l0.231-0.924l0.694,0.232l0.231,0.922L31.399,18.902z M31.399,30.666l0.462-0.689h0.696v0.459l-0.464,0.461L31.399,30.666z
	 M27.464,15.674l0.231,0.459v0.926l-0.462,0.92l-0.463,0.23l-0.232-0.23l0.463-0.92v-1.156L27.464,15.674z M49.687,54.197
	l-0.232-0.921l0.926-0.923l2.546-1.154l0.926-0.693l0.694,0.463l2.314,0.461l-2.314,4.154h-0.694l-0.695,0.69l-0.231-0.462
	l0.231-0.461l-2.313-0.232l-0.927,0.232v-0.693L49.687,54.197z"/>
<path fill="none" stroke="#231815" stroke-width="0.43" stroke-linejoin="bevel" stroke-miterlimit="10.433" d="M39.501,3.215
	l-0.463-0.459l0.232-1.387l-1.853-0.922l-1.62,2.309l0.231,1.613l1.158,1.846l2.546-1.385L39.501,3.215z M8.947,42.895L8.484,41.51
	l-0.926-0.922l0.232-1.615L7.095,38.74L6.4,37.586l-0.925,0.926l-0.463-0.23l-0.463-0.232L3.624,38.74L3.16,38.512l-0.464-0.693
	l-0.462-0.232H1.771v3.465l0.231,1.152l-0.694,0.23v0.691l-1.156,0.229l0.231,0.231l0.693,0.691h3.01v0.693l1.157-0.461
	l-0.231-1.615L6.4,42.662l0.926,0.692L8.947,42.895z M15.891,22.824l0.463,0.229v0.465h-0.696l-0.462-0.232h-0.232l0.232-0.461
	H15.891z M18.668,20.057l0.232,0.922l-1.158,0.693H17.28l-0.694-0.463v-0.461l0.232-0.691l0.924-0.232L18.668,20.057z
	 M17.974,23.285l0.463,0.463v0.922l-0.463-0.232l-0.232-0.459v-0.693H17.974z M13.113,33.205l-0.463,0.461l-0.461,0.23l-0.232,0.693
	l0.232,0.461l1.156,0.23L13.113,33.205z"/>
<circle fill="#FF9429" stroke="#000000" stroke-miterlimit="10" cx="28.526" cy="20.7" r="2.988"/>
<g>
	<path d="M18.29,11.108c-0.308,0-0.518,0.015-0.735,0.043v-0.505c0.203,0.028,0.42,0.042,0.742,0.042h4.195
		c0.322,0,0.532-0.014,0.743-0.042v0.505c-0.217-0.028-0.427-0.043-0.735-0.043h-1.912v2.599h2.178c0.343,0,0.567-0.014,0.75-0.049
		v0.525c-0.182-0.035-0.399-0.049-0.764-0.049h-2.164v1.933c0,0.26,0.014,0.519,0.049,0.764h-0.574
		c0.035-0.252,0.049-0.497,0.049-0.764v-1.933h-2.087c-0.357,0-0.582,0.014-0.771,0.049v-0.525c0.196,0.035,0.406,0.049,0.764,0.049
		h2.094v-2.599H18.29z M18.402,11.445c0.392,0.595,0.602,1.001,0.903,1.709l-0.441,0.224c-0.28-0.749-0.483-1.162-0.861-1.744
		L18.402,11.445z M22.744,11.642c-0.301,0.77-0.519,1.162-0.995,1.82l-0.42-0.21c0.483-0.609,0.701-1.009,0.988-1.813L22.744,11.642
		z"/>
	<path d="M25.549,14.303c-0.105,1.093-0.364,1.765-0.98,2.549c-0.196-0.188-0.238-0.224-0.399-0.329
		c0.777-0.903,0.974-1.632,0.974-3.684c0-0.378-0.007-0.588-0.028-0.819c0.224,0.021,0.385,0.028,0.7,0.028h3.355
		c0.287,0,0.476-0.008,0.665-0.028c-0.021,0.182-0.028,0.336-0.028,0.63v1.45c0,0.329,0.007,0.519,0.035,0.7h-0.498v-0.497H25.549z
		 M30.409,11.27c-0.245-0.034-0.427-0.042-0.777-0.042h-4.356c-0.322,0-0.539,0.015-0.777,0.042v-0.497
		c0.224,0.028,0.435,0.042,0.777,0.042h4.356c0.357,0,0.553-0.014,0.777-0.042V11.27z M29.345,13.89v-1.429h-3.74v0.63
		c0,0.189-0.014,0.623-0.035,0.799H29.345z"/>
</g>
</svg>
