<?xml version="1.0" encoding="utf-8"?>
<!-- Generator: Adobe Illustrator 16.0.3, SVG Export Plug-In . SVG Version: 6.00 Build 0)  -->
<!DOCTYPE svg PUBLIC "-//W3C//DTD SVG 1.1//EN" "http://www.w3.org/Graphics/SVG/1.1/DTD/svg11.dtd">
<svg version="1.1" id="レイヤー_1" xmlns="http://www.w3.org/2000/svg" xmlns:xlink="http://www.w3.org/1999/xlink" x="0px"
	 y="0px" width="120px" height="30px" viewBox="0 0 120 30" enable-background="new 0 0 120 30" xml:space="preserve">
<g id="レイヤー_1_1_">
	<g>
		<path d="M32.948,18.729l2.536,0.438c-0.46,3.445-1.18,6.171-2.161,8.175c-0.543-0.396-1.294-0.771-2.254-1.127
			C31.944,24.48,32.572,21.986,32.948,18.729z M38.932,11.492l2.004-0.813c1.544,2.507,2.516,4.72,2.912,6.639l-2.161,0.939
			c-0.062-0.291-0.24-0.865-0.531-1.723l-2.067,0.126V29.85h-2.665V16.816c-1.984,0.104-3.602,0.199-4.854,0.281l-0.25-2.63
			l2.254-0.062c1.148-1.585,1.755-2.433,1.817-2.537c-1.024-1.461-2.348-2.955-3.978-4.479l1.441-1.943
			c0.355,0.271,0.646,0.513,0.877,0.72c1.148-2.005,2.025-3.937,2.63-5.794l2.632,1.033c-1.423,2.715-2.632,4.834-3.634,6.358
			c0.584,0.625,1.098,1.221,1.535,1.785c1.045-1.691,2.055-3.519,3.041-5.482l2.474,1.097c-2.3,3.739-4.355,6.777-6.172,9.117
			c1.294-0.042,2.633-0.104,4.01-0.188C39.975,13.465,39.535,12.599,38.932,11.492z M39.684,19.165l2.16-0.72
			c0.939,2.111,1.606,4.054,2.005,5.826l-2.254,0.752C41.218,23.163,40.579,21.213,39.684,19.165z M44.101,1.938h16.1
			c-0.023,0.522-0.046,0.907-0.062,1.159c-0.126,3.551-0.264,6.042-0.408,7.471c-0.147,1.432-0.408,2.376-0.784,2.834
			c-0.46,0.563-1.182,0.898-2.161,1.003c-0.774,0.084-2.019,0.094-3.728,0.032c-0.085-1.021-0.376-1.943-0.877-2.756
			c0.917,0.084,2.014,0.126,3.29,0.126c0.52,0,0.864-0.103,1.033-0.314c0.394-0.458,0.667-2.724,0.813-6.798h-5.48
			c-0.357,2.527-1.061,4.658-2.117,6.39c-1.051,1.734-2.738,3.123-5.056,4.165c-0.461-0.919-1.047-1.661-1.755-2.225
			c1.959-0.813,3.384-1.906,4.259-3.274c0.877-1.368,1.459-3.054,1.755-5.059H44.1L44.101,1.938L44.101,1.938z M45.29,29.785v-13.25
			h14.283v13.126H56.69V28.25h-8.645v1.535H45.29z M56.693,19.165h-8.645v6.452h8.645V19.165z"/>
		<path d="M75.906,6.793c-1.074,1.79-2.614,3.597-4.619,5.423c-2.004,1.826-4.154,3.375-6.445,4.644
			c-0.305-0.661-0.83-1.369-1.582-2.122c2.344-1.182,4.535-2.751,6.577-4.713c2.042-1.961,3.571-3.916,4.591-5.868h2.713
			c1.381,2.239,3.119,4.259,5.223,6.067s4.265,3.187,6.482,4.136c-0.625,0.699-1.172,1.477-1.637,2.335
			c-2.221-1.163-4.367-2.647-6.445-4.455C78.686,10.434,77.07,8.619,75.906,6.793z M69.867,14.07h2.604v3.625
			c0,0.896-0.031,1.699-0.094,2.416c-0.063,0.718-0.216,1.531-0.456,2.443c-0.239,0.911-0.567,1.74-0.979,2.482s-1,1.508-1.76,2.296
			c-0.762,0.788-1.662,1.494-2.699,2.122c-0.233-0.287-0.56-0.619-0.98-0.994c-0.422-0.377-0.793-0.652-1.113-0.832
			c1.182-0.699,2.156-1.459,2.926-2.281c0.771-0.822,1.328-1.695,1.679-2.619c0.348-0.924,0.581-1.76,0.698-2.512
			c0.115-0.752,0.174-1.609,0.174-2.576V14.07H69.867z M79.398,13.935h2.656v15.493h-2.656V13.935z"/>
	</g>
</g>
</svg>
