<?xml version="1.0" encoding="utf-8"?>
<!-- Generator: Adobe Illustrator 16.0.0, SVG Export Plug-In . SVG Version: 6.00 Build 0)  -->
<!DOCTYPE svg PUBLIC "-//W3C//DTD SVG 1.1//EN" "http://www.w3.org/Graphics/SVG/1.1/DTD/svg11.dtd">
<svg version="1.1" id="レイヤー_1" xmlns="http://www.w3.org/2000/svg" xmlns:xlink="http://www.w3.org/1999/xlink" x="0px"
	 y="0px" width="120px" height="30px" viewBox="0 0 52.305 13.094" enable-background="new 0 0 52.305 13.094"
	 xml:space="preserve">
<rect x="0" fill="#302E2E" width="52.305" height="13.094"/>
<g>
	<path fill="#FFFFFF" d="M14.345,8.174l1.107,0.191c-0.201,1.504-0.515,2.693-0.943,3.568c-0.237-0.173-0.565-0.337-0.984-0.492
		C13.907,10.685,14.181,9.596,14.345,8.174z M16.957,5.016l0.875-0.355c0.674,1.094,1.098,2.06,1.271,2.898l-0.943,0.41
		c-0.027-0.127-0.105-0.378-0.232-0.752l-0.902,0.055v5.756h-1.163V7.34c-0.866,0.046-1.572,0.087-2.119,0.123l-0.109-1.148
		l0.984-0.027c0.501-0.692,0.766-1.062,0.793-1.107c-0.447-0.638-1.025-1.29-1.736-1.955l0.629-0.848
		c0.155,0.119,0.282,0.224,0.383,0.314c0.501-0.875,0.884-1.718,1.148-2.529l1.149,0.451c-0.621,1.185-1.149,2.11-1.586,2.775
		c0.255,0.273,0.479,0.533,0.67,0.779c0.456-0.738,0.897-1.536,1.327-2.393l1.08,0.479c-1.004,1.632-1.901,2.958-2.694,3.979
		c0.565-0.018,1.149-0.045,1.75-0.082C17.412,5.877,17.22,5.499,16.957,5.016z M17.285,8.365l0.943-0.314
		c0.41,0.921,0.701,1.769,0.875,2.543l-0.984,0.328C17.955,10.11,17.676,9.259,17.285,8.365z M19.213,0.846h7.027
		c-0.01,0.228-0.02,0.396-0.027,0.506c-0.055,1.55-0.115,2.637-0.178,3.261c-0.064,0.625-0.178,1.037-0.342,1.237
		c-0.201,0.246-0.516,0.392-0.943,0.438c-0.338,0.037-0.881,0.041-1.627,0.014c-0.037-0.446-0.164-0.848-0.383-1.203
		c0.4,0.037,0.879,0.055,1.436,0.055c0.227,0,0.377-0.045,0.451-0.137c0.172-0.2,0.291-1.189,0.355-2.967H22.59
		c-0.156,1.103-0.463,2.033-0.924,2.789c-0.459,0.757-1.195,1.363-2.207,1.818c-0.201-0.401-0.457-0.725-0.766-0.971
		c0.855-0.355,1.477-0.832,1.859-1.429c0.383-0.597,0.637-1.333,0.766-2.208h-2.105V0.846z M19.732,13V7.217h6.234v5.729h-1.258
		V12.33h-3.773V13H19.732z M24.709,8.365h-3.773v2.816h3.773V8.365z"/>
	<path fill="#FFFFFF" d="M33.095,2.965c-0.469,0.781-1.141,1.57-2.016,2.367s-1.813,1.473-2.813,2.027
		c-0.133-0.289-0.363-0.598-0.691-0.926c1.023-0.516,1.98-1.201,2.871-2.057s1.559-1.709,2.004-2.561h1.184
		c0.602,0.977,1.361,1.859,2.279,2.648s1.861,1.391,2.83,1.805c-0.273,0.305-0.512,0.645-0.715,1.02
		c-0.969-0.508-1.906-1.156-2.813-1.945S33.603,3.762,33.095,2.965z M30.459,6.141h1.137v1.582c0,0.391-0.014,0.742-0.041,1.055
		s-0.094,0.668-0.199,1.066s-0.248,0.76-0.428,1.084s-0.436,0.658-0.768,1.002s-0.725,0.652-1.178,0.926
		c-0.102-0.125-0.244-0.27-0.428-0.434s-0.346-0.285-0.486-0.363c0.516-0.305,0.941-0.637,1.277-0.996s0.58-0.74,0.732-1.143
		s0.254-0.768,0.305-1.096s0.076-0.703,0.076-1.125V6.141z M34.619,6.082h1.16v6.762h-1.16V6.082z"/>
</g>
</svg>
