<?xml version="1.0" encoding="utf-8"?>
<!-- Generator: Adobe Illustrator 16.0.3, SVG Export Plug-In . SVG Version: 6.00 Build 0)  -->
<!DOCTYPE svg PUBLIC "-//W3C//DTD SVG 1.1//EN" "http://www.w3.org/Graphics/SVG/1.1/DTD/svg11.dtd">
<svg version="1.1" id="レイヤー_1" xmlns="http://www.w3.org/2000/svg" xmlns:xlink="http://www.w3.org/1999/xlink" x="0px"
	 y="0px" width="120px" height="30px" viewBox="0 0 120 30" enable-background="new 0 0 120 30" xml:space="preserve">
<g>
	<path d="M24.387,29.39c0.138-0.926,0.206-1.75,0.206-3.602V4.486c0-1.817-0.068-2.642-0.206-3.499h2.95
		C27.199,1.88,27.165,2.6,27.165,4.555v6.415c5.283,1.887,9.262,3.773,15.265,7.237l-1.476,2.538
		c-3.225-2.264-7.957-4.802-12.794-6.791c-0.515-0.206-0.755-0.344-1.063-0.584l-0.068,0.035c0.103,0.686,0.137,1.166,0.137,2.023
		v10.325c0,1.921,0.034,2.675,0.172,3.636H24.387z"/>
	<path d="M50.607,11.914c1.207,2.083,1.871,3.502,2.988,6.702l-2.053,0.694c-0.725-2.656-1.57-4.679-2.837-6.762L50.607,11.914z
		 M67.632,11.734c-0.181,0.483-0.181,0.483-0.664,2.445c-0.482,2.112-1.569,4.89-2.656,6.762c-2.144,3.683-5.313,6.459-9.992,8.724
		c-0.452-0.755-0.693-1.057-1.388-1.69c4.648-2.083,7.486-4.407,9.569-7.879c1.146-1.901,2.022-4.165,2.565-6.49
		c0.211-0.996,0.332-1.69,0.332-2.052v-0.122c0-0.09,0-0.09,0-0.18L67.632,11.734z M56.766,10.707c1.6,2.868,2.144,4.075,2.928,6.49
		L57.7,17.892c-0.543-2.144-1.478-4.347-2.776-6.611L56.766,10.707z"/>
	<path d="M89.456,7.387c-0.03-0.242-0.062-0.393-0.062-0.574c0-1.69,1.389-3.079,3.109-3.079s3.109,1.389,3.109,3.109
		c0,1.72-1.389,3.109-3.109,3.109c-0.212,0-0.392-0.03-0.663-0.09c-1.058,3.924-2.477,7.214-4.197,9.659
		c-1.78,2.565-4.467,5.071-7.426,6.912c-1.721,1.087-3.078,1.752-5.554,2.688c-0.453-0.966-0.693-1.299-1.479-2.083
		c2.718-0.815,4.498-1.661,6.822-3.2c4.951-3.32,7.818-7.637,9.509-14.398H74.15c-1.539,0-2.385,0.03-3.381,0.181V7.206
		c1.147,0.151,1.752,0.182,3.411,0.182h14.852H89.456z M90.663,6.843c0,0.997,0.845,1.841,1.841,1.841
		c1.026,0,1.842-0.814,1.842-1.841c0-1.026-0.815-1.841-1.842-1.841S90.663,5.817,90.663,6.843z"/>
</g>
</svg>
