<?xml version="1.0" encoding="utf-8"?>
<!-- Generator: Adobe Illustrator 16.0.0, SVG Export Plug-In . SVG Version: 6.00 Build 0)  -->
<!DOCTYPE svg PUBLIC "-//W3C//DTD SVG 1.1//EN" "http://www.w3.org/Graphics/SVG/1.1/DTD/svg11.dtd">
<svg version="1.1" id="レイヤー_1" xmlns="http://www.w3.org/2000/svg" xmlns:xlink="http://www.w3.org/1999/xlink" x="0px"
	 y="0px" width="1767.176px" height="1845.819px" viewBox="0 0 1767.176 1845.819" enable-background="new 0 0 1767.176 1845.819"
	 xml:space="preserve">
<g>
	<defs>
		<rect id="SVGID_1_" width="1767.176" height="1845.819"/>
	</defs>
	<clipPath id="SVGID_2_">
		<use xlink:href="#SVGID_1_"  overflow="visible"/>
	</clipPath>
	<g clip-path="url(#SVGID_2_)">
		<polygon fill="none" stroke="#000000" stroke-width="6" stroke-miterlimit="10" points="-408.396,1539.811 -383.903,1476.414 
			-353.501,1439.502 -345.824,1377.719 -325.172,1345.192 -293.21,1325.157 -247.867,1375.038 -277.805,1452.584 -309.762,1472.618 
			-330.356,1505.161 -356.928,1511.079 -404.032,1549.562 		"/>
		<polygon fill="none" stroke="#000000" stroke-width="6" stroke-linejoin="round" points="-408.396,1539.811 -383.903,1476.414 
			-353.501,1439.502 -345.824,1377.719 -325.172,1345.192 -293.21,1325.157 -247.867,1375.038 -277.805,1452.584 -309.762,1472.618 
			-330.356,1505.161 -356.928,1511.079 -404.032,1549.562 		"/>
		<path fill="none" stroke="#000000" stroke-width="6" stroke-miterlimit="3.864" stroke-dasharray="2.84,1.42" d="
			M-2883.92,1165.776l-635.389,500.622 M1762.547-3907.915l467.328-51.381"/>
		<path fill="none" stroke="#000000" stroke-width="6" stroke-miterlimit="10" d="M2462.309-6337.986l10.393,140.391l66.996,98.732
			l22.674,24.937l15.643,22.267l-1.73,88.383l84.506,283.572l24.287,41.783l62.223,48.313l-6.627,37.887l-57.822-38.508
			l-33.629,3.225l-32.924-61.263l-213.668-74.388l-41.748,24.369l-44.496,31.405l-104.496,291.605l4.836,50.473l-56.686,188.612
			l2.549,98.176l-22.879,80.184l71.77,149.186l98.305,143.154l74.434,142.101l36.762,30.354l65.619-23.258l27.01,34.719
			l-2.283,47.729l25.865,58.569l-3.313,71.567l30.145,68.327l-13.594,35.211l-65.094,63.951l-41.332-186.014l-63.832-65.069
			L2321.264-4402l-35.244-13.592l-74.168,3.798l-72.152,61.193l-104.404,291.657l-14.119-5.416l-41.51-80.81l-9.605-100.866
			l-37.174-71.024l4.514-95.42l25.979-46.628l36.035-156.146l-31.137-149.625l-15.029-86.804l71.424-247.676l-50.646-141.015
			l0.617-64.507l-61.049-72.135l-22.092-89.528l44.504-31.376l20.184-73.153l-4.656-155.647l-30.145-68.332l22.91-80.21
			l-17.777-79.714l9.959-109.51l1.145-23.846l14.676-59.088l-58.584-225.035c0,0,10.713-124.563,30.439-160.568
			c74.398-86.535,88.371-146.034,36.271-210.254c-52.068-64.166-89.293-90.214-148.756-104.161
			c-59.527-13.999-77.152-67.923-44.615-114.42c32.568-46.526,36.24-71.607,22.313-150.67
			c-13.961-79.064-30.646-173.945-6.463-267.846c24.242-93.938-0.875-97.666,40.965-137.648
			c41.836-40.007,13.973-59.523-22.281-126.447c-36.291-67.035-3.746-113.498,28.818-160.027
			c32.627-46.5,71.713-102.24,110.752-19.475c39.037,82.766,41.797,98.579,80.881,42.81c39.076-55.854,19.566-27.9-0.902-97.661
			c-20.498-69.763,34.422-128.377,7.492-188.815c-26.982-60.463-144.145-170.227-78.137-165.586
			c66.096,4.666,134.021-72.486,134.021-72.486s-7.518,50.201,41.795,98.58c49.313,48.377,28.795,117.148,2.742,154.405
			c-26.057,37.171-16.723,43.709,22.314,126.475c39.012,82.795,163.592,280.92,104.156,266.973
			c-59.557-13.994-101.453,25.99-40.084,96.728c61.4,70.705,67.852,61.352,84.594,156.223
			c16.713,94.881-25.164,273.452-63.23,149.758c-38.104-123.718,18.605-125.586,0,0c-18.643,125.535-50.328,131.082,26.941,199.026
			c77.186,67.921,77.186,67.921,60.424,111.604c-16.756,43.738,86.426,74.441,56.67,136.72
			c-29.725,62.333-18.643,125.564,26.945,199.053c45.518,73.467,44.605,114.391,52.049,202.724
			c2.326,28.035,8.197,52.976,16.346,76.091"/>
		<path fill="none" stroke="#000000" stroke-width="6" stroke-miterlimit="3.864" d="M2462.309-6337.986l10.393,140.391
			l66.996,98.732l22.674,24.937l15.643,22.267l-1.73,88.383l84.506,283.572l24.287,41.783l62.223,48.313l-6.627,37.887
			l-57.822-38.508l-33.629,3.225l-32.924-61.263l-213.668-74.388l-41.748,24.369l-44.496,31.405l-104.496,291.605l4.836,50.473
			l-56.686,188.612l2.549,98.176l-22.879,80.184l71.77,149.186l98.305,143.154l74.434,142.101l36.762,30.354l65.619-23.258
			l27.01,34.719l-2.283,47.729l25.865,58.569l-3.313,71.567l30.145,68.327l-13.594,35.211l-65.094,63.951l-41.332-186.014
			l-63.832-65.069L2321.264-4402l-35.244-13.592l-74.168,3.798l-72.152,61.193l-104.404,291.657l-14.119-5.416l-41.51-80.81
			l-9.605-100.866l-37.174-71.024l4.514-95.42l25.979-46.628l36.035-156.146l-31.137-149.625l-15.029-86.804l71.424-247.676
			l-50.646-141.015l0.617-64.507l-61.049-72.135l-22.092-89.528l44.504-31.376l20.184-73.153l-4.656-155.647l-30.145-68.332
			l22.91-80.21l-17.777-79.714l9.959-109.51l1.145-23.846l14.676-59.088l-58.584-225.035c0,0,10.713-124.563,30.439-160.568
			c74.398-86.535,88.371-146.034,36.271-210.254c-52.068-64.166-89.293-90.214-148.756-104.161
			c-59.527-13.999-77.152-67.923-44.615-114.42c32.568-46.526,36.24-71.607,22.313-150.67
			c-13.961-79.064-30.646-173.945-6.463-267.846c24.242-93.938-0.875-97.666,40.965-137.648
			c41.836-40.007,13.973-59.523-22.281-126.447c-36.291-67.035-3.746-113.498,28.818-160.027
			c32.627-46.5,71.713-102.24,110.752-19.475c39.037,82.766,41.797,98.579,80.881,42.81c39.076-55.854,19.566-27.9-0.902-97.661
			c-20.498-69.763,34.422-128.377,7.492-188.815c-26.982-60.463-144.145-170.227-78.137-165.586
			c66.096,4.666,134.021-72.486,134.021-72.486s-7.518,50.201,41.795,98.58c49.313,48.377,28.795,117.148,2.742,154.405
			c-26.057,37.171-16.723,43.709,22.314,126.475c39.012,82.795,163.592,280.92,104.156,266.973
			c-59.557-13.994-101.453,25.99-40.084,96.728c61.4,70.705,67.852,61.352,84.594,156.223
			c16.713,94.881-25.164,273.452-63.23,149.758c-38.104-123.718,18.605-125.586,0,0c-18.643,125.535-50.328,131.082,26.941,199.026
			c77.186,67.921,77.186,67.921,60.424,111.604c-16.756,43.738,86.426,74.441,56.67,136.72
			c-29.725,62.333-18.643,125.564,26.945,199.053c45.518,73.467,44.605,114.391,52.049,202.724
			c2.326,28.035,8.197,52.976,16.346,76.091"/>
		<polygon fill="none" stroke="#000000" stroke-width="6" stroke-miterlimit="10" points="616.313,162.152 646.217,84.639 
			601.256,75.379 628.439,4.926 709.799,-101.291 723.914,-95.844 689.064,36.395 753.426,36.965 702.479,106.355 		"/>
		<polygon fill="none" stroke="#000000" stroke-width="6" stroke-miterlimit="3.864" points="616.313,162.152 646.217,84.639 
			601.256,75.379 628.439,4.926 709.799,-101.291 723.914,-95.844 689.064,36.395 753.426,36.965 702.479,106.355 		"/>
		<polygon fill="none" stroke="#000000" stroke-width="6" stroke-miterlimit="10" points="2742.219,-2393.564 2663.508,-2294.372 
			2614.088,-2208.219 2605.09,-2017.381 2591.498,-1982.141 2454.697,-2067.296 2288.574,-2139.531 2129.068,-2249.706 
			2086.826,-2265.998 2051.209,-2320.174 1956.998,-2348.453 1864.9,-2319.227 1688.666,-2176.749 1596.303,-2293.361 
			1471.805,-2284.74 1414.684,-2136.74 1512.023,-2074.911 1545.596,-2078.128 1613.205,-2043.932 1653.131,-1979.939 
			1741.863,-1937.595 1757.566,-1915.333 1753.693,-1884.48 1702.193,-1855.775 1620.496,-1895.395 1578.313,-1911.689 
			1535.426,-1863.471 1493.744,-1839.047 1487.645,-1760.475 1377.59,-1705.787 1353.801,-1706.877 1324.041,-1734.534 
			1306.818,-1773.563 1370.473,-1959.528 1340.303,-2027.823 1275.387,-2069.08 1246.797,-2120.589 1228.375,-2135.762 
			1216.596,-2188.939 1259.43,-2237.126 1262.182,-2244.189 1272.082,-2353.724 1317.018,-2344.463 1358.295,-2409.496 
			1400.508,-2393.203 1462.375,-2490.779 1487.365,-2513.514 1473.918,-2583.474 1428.541,-2633.402 1432.352,-2664.277 
			1483.881,-2692.984 1579.611,-2647.943 1612.039,-2627.34 1698.721,-2642.449 1721.424,-2617.484 1815.137,-2629.897 
			1818.969,-2660.834 1846.158,-2731.286 1799.373,-2903.205 1819.973,-2935.686 1839.48,-2944.354 1872.553,-2988.26 
			1908.617,-3144.375 1898.361,-3180.699 1934.193,-3231.643 1952.768,-3321.617 1948.635,-3436.577 1914.133,-3514.629 
			1924.994,-3542.868 1868.93,-3669.758 1879.303,-3738.572 1906.982,-3768.423 1906.518,-3809.058 1943.279,-3778.702 
			1979.604,-3788.955 1995.92,-3831.256 2024.074,-3820.385 2243.949,-3573.588 2340.645,-3447.19 2442.846,-3334.918 
			2560.111,-3241.056 2772.723,-3142.832 2830.201,-3144.913 2837.199,-3142.214 2915.678,-3136.225 2923.203,-3092.864 
			2971.303,-3050.002 3127.852,-3078.636 3140.328,-3090.028 3152.779,-3101.421 3178.852,-3147.998 3294.947,-3281.282 
			3307.893,-3252.042 3283.896,-3147.958 3224.725,-3057.443 3232.717,-2973.429 3321.447,-2931.084 3323.004,-2914.265 
			3327.367,-2904.511 3295.32,-2884.442 3343.916,-2800.945 3344.389,-2760.249 3408.863,-2759.659 3517.246,-2831.216 
			3498.213,-2781.853 3461.881,-2771.601 3443.984,-2746.117 3433.115,-2717.936 3412.461,-2685.445 3374.613,-2691.957 
			3284.096,-2645.944 3263.416,-2613.394 3188.189,-2585.783 3182.273,-2612.355 3155.705,-2606.379 3130.773,-2583.649 
			3133.967,-2550.018 3050.016,-2541.91 3021.83,-2552.809 2992.152,-2580.475 2948.77,-2572.915 2795.916,-2469.959 		"/>
		<polygon fill="none" stroke="#000000" stroke-width="6" stroke-miterlimit="3.864" points="2742.219,-2393.564 
			2663.508,-2294.372 2614.088,-2208.219 2605.09,-2017.381 2591.498,-1982.141 2454.697,-2067.296 2288.574,-2139.531 
			2129.068,-2249.706 2086.826,-2265.998 2051.209,-2320.174 1956.998,-2348.453 1864.9,-2319.227 1688.666,-2176.749 
			1596.303,-2293.361 1471.805,-2284.74 1414.684,-2136.74 1512.023,-2074.911 1545.596,-2078.128 1613.205,-2043.932 
			1653.131,-1979.939 1741.863,-1937.595 1757.566,-1915.333 1753.693,-1884.48 1702.193,-1855.775 1620.496,-1895.395 
			1578.313,-1911.689 1535.426,-1863.471 1493.744,-1839.047 1487.645,-1760.475 1377.59,-1705.787 1353.801,-1706.877 
			1324.041,-1734.534 1306.818,-1773.563 1370.473,-1959.528 1340.303,-2027.823 1275.387,-2069.08 1246.797,-2120.589 
			1228.375,-2135.762 1216.596,-2188.939 1259.43,-2237.126 1262.182,-2244.189 1272.082,-2353.724 1317.018,-2344.463 
			1358.295,-2409.496 1400.508,-2393.203 1462.375,-2490.779 1487.365,-2513.514 1473.918,-2583.474 1428.541,-2633.402 
			1432.352,-2664.277 1483.881,-2692.984 1579.611,-2647.943 1612.039,-2627.34 1698.721,-2642.449 1721.424,-2617.484 
			1815.137,-2629.897 1818.969,-2660.834 1846.158,-2731.286 1799.373,-2903.205 1819.973,-2935.686 1839.48,-2944.354 
			1872.553,-2988.26 1908.617,-3144.375 1898.361,-3180.699 1934.193,-3231.643 1952.768,-3321.617 1948.635,-3436.577 
			1914.133,-3514.629 1924.994,-3542.868 1868.93,-3669.758 1879.303,-3738.572 1906.982,-3768.423 1906.518,-3809.058 
			1943.279,-3778.702 1979.604,-3788.955 1995.92,-3831.256 2024.074,-3820.385 2243.949,-3573.588 2340.645,-3447.19 
			2442.846,-3334.918 2560.111,-3241.056 2772.723,-3142.832 2830.201,-3144.913 2837.199,-3142.214 2915.678,-3136.225 
			2923.203,-3092.864 2971.303,-3050.002 3127.852,-3078.636 3140.328,-3090.028 3152.779,-3101.421 3178.852,-3147.998 
			3294.947,-3281.282 3307.893,-3252.042 3283.896,-3147.958 3224.725,-3057.443 3232.717,-2973.429 3321.447,-2931.084 
			3323.004,-2914.265 3327.367,-2904.511 3295.32,-2884.442 3343.916,-2800.945 3344.389,-2760.249 3408.863,-2759.659 
			3517.246,-2831.216 3498.213,-2781.853 3461.881,-2771.601 3443.984,-2746.117 3433.115,-2717.936 3412.461,-2685.445 
			3374.613,-2691.957 3284.096,-2645.944 3263.416,-2613.394 3188.189,-2585.783 3182.273,-2612.355 3155.705,-2606.379 
			3130.773,-2583.649 3133.967,-2550.018 3050.016,-2541.91 3021.83,-2552.809 2992.152,-2580.475 2948.77,-2572.915 
			2795.916,-2469.959 		"/>
		<polygon fill="none" stroke="#000000" stroke-width="6" stroke-miterlimit="10" points="-2587.321,1929.504 -2567.2,1856.27 
			-2580.146,1827 -2563.834,1784.7 -2513.42,1779.868 -2498.247,1761.444 -2434.973,1785.856 -2387.308,1788.115 -2244.179,1689.49 
			-2223.496,1657.002 -2163.505,1647.791 -2039.795,1557.857 -1991.08,1536.217 -1955.225,1485.24 -1764.963,1348.14 
			-1782.273,1309.111 -1595.26,1243.639 -1540.63,1248.513 -1579.118,1306.551 -1553.755,1324.402 -1506.097,1326.577 
			-1509.254,1293.023 -1467.103,1309.296 -1379.307,1270.308 -1327.28,1282.294 -1300.829,1276.327 -1269.924,1280.137 
			-1197.336,1259.547 -1109.042,1261.256 -976.4,1231.51 -945.559,1235.264 -871.354,1231.549 -829.169,1247.85 -780.399,1226.146 
			-765.134,1207.768 -678.542,1192.606 -646.085,1213.24 -690.054,1285.344 -636.503,1314.124 -606.132,1277.21 -577.98,1288.083 
			-556.417,1336.934 -522.788,1333.682 -511.919,1305.494 -442.053,1291.996 -414.433,1262.145 -376.494,1268.713 -364.543,1216.65 
			-322.333,1232.914 -308.742,1197.669 -351.863,1100.031 -334.427,1033.937 -301.294,990.054 -302.935,973.251 -285.007,947.795 
			-268.194,946.157 -139.152,842.152 -92.431,762.997 -70.221,747.328 -8.794,609.056 -9.697,527.783 -34.072,485.982 
			-15.5,395.984 19.245,368.916 66.909,371.146 130.825,331.021 210.472,313.158 228.841,328.367 198.935,405.91 137.706,438.918 
			114.392,478.521 107.303,475.801 69.422,469.231 47.655,525.598 68.748,533.744 75.749,536.444 113.718,543.034 119.633,569.606 
			98.307,666.637 120.95,691.576 189.729,701.895 233.084,694.339 267.271,626.584 456.95,554.037 550.193,500.961 593.518,493.408 
			698.672,388.281 774.631,296.152 819.76,200.18 862.652,151.99 941.787,93.467 1019.813,58.818 1065.402,3.513 1167.219,-281.066 
			1197.549,-317.914 1243.787,-437.702 1254.684,-465.886 1263.975,-510.885 1285.742,-567.249 1329.246,-679.977 1317.15,-878.961 
			1304.17,-908.284 1331.854,-938.077 1340.023,-959.26 1341.143,-983.048 1304.873,-972.8 1284.283,-940.257 1290.139,-913.68 
			1266.322,-914.797 1217.539,-893.152 1199.115,-908.355 1187.311,-961.473 1190.035,-968.533 1211.158,-960.388 
			1242.037,-956.549 1271.307,-969.553 1284.896,-1004.766 1319.143,-1072.525 1332.738,-1107.738 1275.029,-1251.471 
			1262.111,-1280.742 1285.43,-1320.318 1338.068,-1372.899 1398.148,-1382.087 1449.824,-1515.996 1413.063,-1546.354 
			1451.582,-1604.382 1514.977,-1579.89 1551.211,-1590.222 1571.186,-1558.199 1568.908,-1510.443 1598.053,-1418.277 
			1641.35,-1425.857 1640.879,-1466.52 1678.318,-1500.647 1730.695,-1448.021 1766.988,-1458.33 1799.625,-1542.875 
			1786.268,-1612.811 1765.176,-1620.96 1733.123,-1600.947 1689.805,-1593.336 1638.363,-1564.638 1622.186,-1627.594 
			1650.051,-1762.561 1723.17,-1742.43 1812.307,-1659.475 1854.023,-1683.813 1869.256,-1702.243 1870.809,-1685.422 
			1876.727,-1658.881 1840.252,-1543.428 1840.105,-1438.227 1877.803,-1326.543 1878.307,-1285.824 1906.428,-1274.979 
			1925.873,-1283.645 1983.111,-1180.631 2028.492,-1130.703 2023.566,-1075.953 2053.271,-1048.291 2044.045,-1003.268 
			2052.627,-983.751 2086.668,-946.335 2106.967,-768.477 2126.414,-777.169 2138.279,-724.027 2113.318,-701.266 
			2124.656,-688.784 2113.785,-660.603 2091.553,-644.901 2114.256,-619.939 2067.561,-540.786 2073.48,-514.215 2057.16,-471.941 
			1984.982,-410.717 1954.662,-373.87 1935.617,-324.566 1948.566,-295.268 1922,-289.293 1908.404,-254.081 1926.801,-238.874 
			1901.666,-110.939 1850.84,-146.776 1819.992,-150.589 1797.762,-134.859 1741.898,-115.905 1742.42,-75.276 1733.111,-30.246 
			1705.398,-0.451 1691.832,34.759 1739.318,142.163 1724.582,201.254 1734.193,302.121 1735.561,424.027 1753.283,503.775 
			1704.334,630.622 1647.416,673.416 1579.891,890.25 1581.355,1012.23 1647.65,1175.54 1653.564,1202.114 1677.816,1243.818 
			1627.461,1248.675 1533.109,1325.654 1497.779,1417.229 1509.553,1470.375 1475.367,1538.132 1401.188,1541.873 
			1345.816,1601.517 1325.684,1674.695 1296.352,1687.647 1273.709,1662.737 1267.727,1636.14 1246.664,1628.02 1282.965,1617.712 
			1279.803,1584.107 1255.486,1542.358 1250.682,1491.91 1240.459,1455.582 1279.018,1397.607 1310.512,1336.879 1286.225,1295.102 
			1263.549,1270.193 1227.246,1280.443 1201.172,1327.08 1198.941,1374.771 1202.137,1408.404 1191.234,1436.588 1199.906,1456.099 
			1219.857,1488.066 1214.41,1502.188 1199.174,1520.645 1174.271,1543.4 1165.627,1523.859 1186.281,1491.343 1174.943,1478.859 
			1153.791,1470.717 1132.666,1462.572 1097.564,1448.997 1056.932,1449.55 992.908,1489.597 980.9,1541.656 954.352,1547.601 
			949.398,1602.324 943.949,1616.443 966.625,1641.409 874.822,1816.476 845.598,1829.443 801.852,1796.39 793.855,1712.339 
			807.445,1677.129 801.059,1609.863 813.506,1598.5 838.947,1616.342 844.369,1602.311 828.734,1580.071 762.697,1562.691 
			755.699,1559.963 690.178,1583.244 689.002,1607.063 703.064,1612.486 625.555,1687.852 581.584,1759.916 585.186,1834.188 
			455.882,1792.363 417.977,1785.857 381.654,1796.168 346.531,1782.594 323.826,1757.602 295.645,1746.732 270.687,1769.494 
			96.302,1823.637 93.113,1790.063 194.936,1756.475 194.466,1715.781 173.345,1707.636 69.91,1724.406 42.462,1649.021 
			9.358,1692.905 25.498,1755.806 -2.68,1744.968 -3.151,1704.273 -20.403,1665.245 -55.994,1611.011 -98.236,1594.721 
			-129.76,1655.389 -129.289,1696.082 -152.637,1735.66 -136.497,1798.563 -111.037,1816.489 -82.944,1827.338 -81.366,1844.125 
			-69.971,1856.604 6.28,1910.31 -4.619,1938.497 2.885,1981.915 -12.351,2000.314 -25.269,1971.045 -34.997,1975.348 
			-47.504,1986.745 -63.118,1964.504 -79.929,1966.144 -104.862,1988.873 -143.937,2006.219 -258.243,2051.143 -252.294,2077.742 
			-297.409,2173.683 -333.767,2183.907 -403.78,2302.605 -411.949,2323.787 -460.257,2386.096 -451.585,2405.634 -454.31,2412.692 
			-485.157,2408.852 -492.214,2406.155 -552.825,2374.657 -609.037,2352.965 -652.893,2319.831 -669.677,2321.471 -667.36,2273.768 
			-680.339,2244.473 -717.162,2214.064 -738.223,2205.943 -759.814,2157.104 -787.935,2146.258 -759.167,2092.596 
			-774.838,2070.386 -778.003,2036.752 -757.347,2004.263 -774.599,1965.237 -720.441,1929.418 -655.319,1865.468 
			-636.304,1816.193 -662.172,1757.598 -716.861,1752.698 -746.099,1765.672 -782.424,1775.953 -803.454,1767.856 
			-887.968,1735.221 -906.304,1720.068 -965.332,1705.385 -994.568,1718.36 -1022.662,1707.513 -1124.571,1741.108 
			-1152.254,1770.899 -1191.248,1788.207 -1229.152,1781.699 -1232.991,1812.578 -1274.704,1836.975 -1334.785,1846.165 
			-1346.122,1833.679 -1345.038,1809.81 -1416.046,1847.182 -1440.948,1869.939 -1449.618,1850.431 -1480.406,1846.611 
			-1534.69,1882.355 -1557.391,1857.391 -1610.473,1869.279 -1628.4,1894.765 -1638.125,1899.098 -1673.275,1885.525 
			-1737.693,1884.962 -1852.059,1929.861 -1864.974,1900.62 -1885.011,1868.6 -1903.315,1853.475 -1936.917,1856.697 
			-1958.068,1848.522 -1998.203,1889.68 -1993.428,1940.131 -2018.327,1962.887 -2026.06,2024.706 -2055.297,2037.678 
			-2066.193,2065.89 -2081.401,2084.259 -2104.011,2059.374 -2149.42,2009.42 -2202.966,1980.674 -2249.073,1995.291 
			-2331.863,1979.459 -2369.766,1972.979 -2454.806,2004.902 -2505.689,1969.1 -2531.053,1951.191 -2564.645,1954.502 		"/>
		<polygon fill="none" stroke="#000000" stroke-width="6" stroke-miterlimit="3.864" points="-2587.321,1929.504 -2567.2,1856.27 
			-2580.146,1827 -2563.834,1784.7 -2513.42,1779.868 -2498.247,1761.444 -2434.973,1785.856 -2387.308,1788.115 -2244.179,1689.49 
			-2223.496,1657.002 -2163.505,1647.791 -2039.795,1557.857 -1991.08,1536.217 -1955.225,1485.24 -1764.963,1348.14 
			-1782.273,1309.111 -1595.26,1243.639 -1540.63,1248.513 -1579.118,1306.551 -1553.755,1324.402 -1506.097,1326.577 
			-1509.254,1293.023 -1467.103,1309.296 -1379.307,1270.308 -1327.28,1282.294 -1300.829,1276.327 -1269.924,1280.137 
			-1197.336,1259.547 -1109.042,1261.256 -976.4,1231.51 -945.559,1235.264 -871.354,1231.549 -829.169,1247.85 -780.399,1226.146 
			-765.134,1207.768 -678.542,1192.606 -646.085,1213.24 -690.054,1285.344 -636.503,1314.124 -606.132,1277.21 -577.98,1288.083 
			-556.417,1336.934 -522.788,1333.682 -511.919,1305.494 -442.053,1291.996 -414.433,1262.145 -376.494,1268.713 -364.543,1216.65 
			-322.333,1232.914 -308.742,1197.669 -351.863,1100.031 -334.427,1033.937 -301.294,990.054 -302.935,973.251 -285.007,947.795 
			-268.194,946.157 -139.152,842.152 -92.431,762.997 -70.221,747.328 -8.794,609.056 -9.697,527.783 -34.072,485.982 
			-15.5,395.984 19.245,368.916 66.909,371.146 130.825,331.021 210.472,313.158 228.841,328.367 198.935,405.91 137.706,438.918 
			114.392,478.521 107.303,475.801 69.422,469.231 47.655,525.598 68.748,533.744 75.749,536.444 113.718,543.034 119.633,569.606 
			98.307,666.637 120.95,691.576 189.729,701.895 233.084,694.339 267.271,626.584 456.95,554.037 550.193,500.961 593.518,493.408 
			698.672,388.281 774.631,296.152 819.76,200.18 862.652,151.99 941.787,93.467 1019.813,58.818 1065.402,3.513 1167.219,-281.066 
			1197.549,-317.914 1243.787,-437.702 1254.684,-465.886 1263.975,-510.885 1285.742,-567.249 1329.246,-679.977 1317.15,-878.961 
			1304.17,-908.284 1331.854,-938.077 1340.023,-959.26 1341.143,-983.048 1304.873,-972.8 1284.283,-940.257 1290.139,-913.68 
			1266.322,-914.797 1217.539,-893.152 1199.115,-908.355 1187.311,-961.473 1190.035,-968.533 1211.158,-960.388 
			1242.037,-956.549 1271.307,-969.553 1284.896,-1004.766 1319.143,-1072.525 1332.738,-1107.738 1275.029,-1251.471 
			1262.111,-1280.742 1285.43,-1320.318 1338.068,-1372.899 1398.148,-1382.087 1449.824,-1515.996 1413.063,-1546.354 
			1451.582,-1604.382 1514.977,-1579.89 1551.211,-1590.222 1571.186,-1558.199 1568.908,-1510.443 1598.053,-1418.277 
			1641.35,-1425.857 1640.879,-1466.52 1678.318,-1500.647 1730.695,-1448.021 1766.988,-1458.33 1799.625,-1542.875 
			1786.268,-1612.811 1765.176,-1620.96 1733.123,-1600.947 1689.805,-1593.336 1638.363,-1564.638 1622.186,-1627.594 
			1650.051,-1762.561 1723.17,-1742.43 1812.307,-1659.475 1854.023,-1683.813 1869.256,-1702.243 1870.809,-1685.422 
			1876.727,-1658.881 1840.252,-1543.428 1840.105,-1438.227 1877.803,-1326.543 1878.307,-1285.824 1906.428,-1274.979 
			1925.873,-1283.645 1983.111,-1180.631 2028.492,-1130.703 2023.566,-1075.953 2053.271,-1048.291 2044.045,-1003.268 
			2052.627,-983.751 2086.668,-946.335 2106.967,-768.477 2126.414,-777.169 2138.279,-724.027 2113.318,-701.266 
			2124.656,-688.784 2113.785,-660.603 2091.553,-644.901 2114.256,-619.939 2067.561,-540.786 2073.48,-514.215 2057.16,-471.941 
			1984.982,-410.717 1954.662,-373.87 1935.617,-324.566 1948.566,-295.268 1922,-289.293 1908.404,-254.081 1926.801,-238.874 
			1901.666,-110.939 1850.84,-146.776 1819.992,-150.589 1797.762,-134.859 1741.898,-115.905 1742.42,-75.276 1733.111,-30.246 
			1705.398,-0.451 1691.832,34.759 1739.318,142.163 1724.582,201.254 1734.193,302.121 1735.561,424.027 1753.283,503.775 
			1704.334,630.622 1647.416,673.416 1579.891,890.25 1581.355,1012.23 1647.65,1175.54 1653.564,1202.114 1677.816,1243.818 
			1627.461,1248.675 1533.109,1325.654 1497.779,1417.229 1509.553,1470.375 1475.367,1538.132 1401.188,1541.873 
			1345.816,1601.517 1325.684,1674.695 1296.352,1687.647 1273.709,1662.737 1267.727,1636.14 1246.664,1628.02 1282.965,1617.712 
			1279.803,1584.107 1255.486,1542.358 1250.682,1491.91 1240.459,1455.582 1279.018,1397.607 1310.512,1336.879 1286.225,1295.102 
			1263.549,1270.193 1227.246,1280.443 1201.172,1327.08 1198.941,1374.771 1202.137,1408.404 1191.234,1436.588 1199.906,1456.099 
			1219.857,1488.066 1214.41,1502.188 1199.174,1520.645 1174.271,1543.4 1165.627,1523.859 1186.281,1491.343 1174.943,1478.859 
			1153.791,1470.717 1132.666,1462.572 1097.564,1448.997 1056.932,1449.55 992.908,1489.597 980.9,1541.656 954.352,1547.601 
			949.398,1602.324 943.949,1616.443 966.625,1641.409 874.822,1816.476 845.598,1829.443 801.852,1796.39 793.855,1712.339 
			807.445,1677.129 801.059,1609.863 813.506,1598.5 838.947,1616.342 844.369,1602.311 828.734,1580.071 762.697,1562.691 
			755.699,1559.963 690.178,1583.244 689.002,1607.063 703.064,1612.486 625.555,1687.852 581.584,1759.916 585.186,1834.188 
			455.882,1792.363 417.977,1785.857 381.654,1796.168 346.531,1782.594 323.826,1757.602 295.645,1746.732 270.687,1769.494 
			96.302,1823.637 93.113,1790.063 194.936,1756.475 194.466,1715.781 173.345,1707.636 69.91,1724.406 42.462,1649.021 
			9.358,1692.905 25.498,1755.806 -2.68,1744.968 -3.151,1704.273 -20.403,1665.245 -55.994,1611.011 -98.236,1594.721 
			-129.76,1655.389 -129.289,1696.082 -152.637,1735.66 -136.497,1798.563 -111.037,1816.489 -82.944,1827.338 -81.366,1844.125 
			-69.971,1856.604 6.28,1910.31 -4.619,1938.497 2.885,1981.915 -12.351,2000.314 -25.269,1971.045 -34.997,1975.348 
			-47.504,1986.745 -63.118,1964.504 -79.929,1966.144 -104.862,1988.873 -143.937,2006.219 -258.243,2051.143 -252.294,2077.742 
			-297.409,2173.683 -333.767,2183.907 -403.78,2302.605 -411.949,2323.787 -460.257,2386.096 -451.585,2405.634 -454.31,2412.692 
			-485.157,2408.852 -492.214,2406.155 -552.825,2374.657 -609.037,2352.965 -652.893,2319.831 -669.677,2321.471 -667.36,2273.768 
			-680.339,2244.473 -717.162,2214.064 -738.223,2205.943 -759.814,2157.104 -787.935,2146.258 -759.167,2092.596 
			-774.838,2070.386 -778.003,2036.752 -757.347,2004.263 -774.599,1965.237 -720.441,1929.418 -655.319,1865.468 
			-636.304,1816.193 -662.172,1757.598 -716.861,1752.698 -746.099,1765.672 -782.424,1775.953 -803.454,1767.856 
			-887.968,1735.221 -906.304,1720.068 -965.332,1705.385 -994.568,1718.36 -1022.662,1707.513 -1124.571,1741.108 
			-1152.254,1770.899 -1191.248,1788.207 -1229.152,1781.699 -1232.991,1812.578 -1274.704,1836.975 -1334.785,1846.165 
			-1346.122,1833.679 -1345.038,1809.81 -1416.046,1847.182 -1440.948,1869.939 -1449.618,1850.431 -1480.406,1846.611 
			-1534.69,1882.355 -1557.391,1857.391 -1610.473,1869.279 -1628.4,1894.765 -1638.125,1899.098 -1673.275,1885.525 
			-1737.693,1884.962 -1852.059,1929.861 -1864.974,1900.62 -1885.011,1868.6 -1903.315,1853.475 -1936.917,1856.697 
			-1958.068,1848.522 -1998.203,1889.68 -1993.428,1940.131 -2018.327,1962.887 -2026.06,2024.706 -2055.297,2037.678 
			-2066.193,2065.89 -2081.401,2084.259 -2104.011,2059.374 -2149.42,2009.42 -2202.966,1980.674 -2249.073,1995.291 
			-2331.863,1979.459 -2369.766,1972.979 -2454.806,2004.902 -2505.689,1969.1 -2531.053,1951.191 -2564.645,1954.502 		"/>
		<polygon fill="none" stroke="#000000" stroke-width="6" stroke-miterlimit="10" points="3682.211,-3342.35 3661.59,-3309.802 
			3540.689,-3226.968 3513.506,-3156.483 3451.076,-3099.596 3422.34,-3045.939 3426.027,-2971.678 3365.426,-3003.117 
			3352.445,-3032.438 3415.926,-3113.195 3446.303,-3150.043 3480.52,-3217.8 3502.752,-3233.501 3571.248,-3368.964 
			3596.203,-3391.754 3645.445,-3372.765 3669.324,-3371.623 3702.861,-3374.898 3716.893,-3369.473 		"/>
		<polygon fill="none" stroke="#000000" stroke-width="6" stroke-miterlimit="3.864" points="3682.211,-3342.35 3661.59,-3309.802 
			3540.689,-3226.968 3513.506,-3156.483 3451.076,-3099.596 3422.34,-3045.939 3426.027,-2971.678 3365.426,-3003.117 
			3352.445,-3032.438 3415.926,-3113.195 3446.303,-3150.043 3480.52,-3217.8 3502.752,-3233.501 3571.248,-3368.964 
			3596.203,-3391.754 3645.445,-3372.765 3669.324,-3371.623 3702.861,-3374.898 3716.893,-3369.473 		"/>
		<polygon fill="none" stroke="#000000" stroke-width="6" stroke-miterlimit="10" points="1720.529,-3662.245 1744.867,-3620.5 
			1768.658,-3619.381 1782.246,-3654.651 1742.795,-3677.949 		"/>
		<polygon fill="none" stroke="#000000" stroke-width="6" stroke-miterlimit="3.864" points="1720.529,-3662.245 1744.867,-3620.5 
			1768.658,-3619.381 1782.246,-3654.651 1742.795,-3677.949 		"/>
		<polygon fill="none" stroke="#000000" stroke-width="6" stroke-miterlimit="10" points="1679.486,-3702.392 1657.898,-3751.201 
			1668.766,-3779.352 1681.215,-3790.774 1701.225,-3758.753 1686.49,-3699.663 		"/>
		<polygon fill="none" stroke="#000000" stroke-width="6" stroke-miterlimit="3.864" points="1679.486,-3702.392 
			1657.898,-3751.201 1668.766,-3779.352 1681.215,-3790.774 1701.225,-3758.753 1686.49,-3699.663 		"/>
		<polygon fill="none" stroke="#000000" stroke-width="6" stroke-miterlimit="10" points="-1467.917,871.781 -1424.122,904.892 
			-1459.953,955.799 -1490.827,951.991 -1510.776,919.998 -1509.689,896.155 		"/>
		<polygon fill="none" stroke="#000000" stroke-width="6" stroke-miterlimit="3.864" points="-1467.917,871.781 -1424.122,904.892 
			-1459.953,955.799 -1490.827,951.991 -1510.776,919.998 -1509.689,896.155 		"/>
		<polygon fill="none" stroke="#000000" stroke-width="6" stroke-miterlimit="10" points="-822.147,1857.807 -801.433,1825.313 
			-797.657,1794.382 -817.074,1803.102 -918.029,1917.906 -946.794,1971.573 -917.058,1999.288 -892.159,1976.505 
			-855.835,1966.224 -859.059,1932.594 		"/>
		<polygon fill="none" stroke="#000000" stroke-width="6" stroke-miterlimit="3.864" points="-822.147,1857.807 -801.433,1825.313 
			-797.657,1794.382 -817.074,1803.102 -918.029,1917.906 -946.794,1971.573 -917.058,1999.288 -892.159,1976.505 
			-855.835,1966.224 -859.059,1932.594 		"/>
		<polygon fill="none" stroke="#000000" stroke-width="6" stroke-miterlimit="10" points="-3400.223,2360.587 -3395.943,2370.377 
			-3399.752,2401.279 -3378.661,2409.428 -3391.175,2420.737 -3406.345,2439.221 -3417.214,2467.4 -3435.581,2452.195 
			-3437.217,2435.438 -3461.012,2434.231 -3438.805,2418.563 -3426.325,2407.197 -3422.459,2376.259 		"/>
		<polygon fill="none" stroke="#000000" stroke-width="6" stroke-miterlimit="3.864" points="-3400.223,2360.587 
			-3395.943,2370.377 -3399.752,2401.279 -3378.661,2409.428 -3391.175,2420.737 -3406.345,2439.221 -3417.214,2467.4 
			-3435.581,2452.195 -3437.217,2435.438 -3461.012,2434.231 -3438.805,2418.563 -3426.325,2407.197 -3422.459,2376.259 		"/>
		<polygon fill="none" stroke="#000000" stroke-width="6" stroke-miterlimit="10" points="-3283.211,2308.633 -3256.608,2302.682 
			-3251.164,2288.534 -3225.14,2241.99 -3195.875,2228.926 -3201.322,2243.045 -3235.545,2310.805 -3255.058,2319.475 		"/>
		<polygon fill="none" stroke="#000000" stroke-width="6" stroke-miterlimit="3.864" points="-3283.211,2308.633 
			-3256.608,2302.682 -3251.164,2288.534 -3225.14,2241.99 -3195.875,2228.926 -3201.322,2243.045 -3235.545,2310.805 
			-3255.058,2319.475 		"/>
		<polygon fill="none" stroke="#000000" stroke-width="6" stroke-miterlimit="10" points="-3620.454,2575.187 -3612.282,2554.035 
			-3623.65,2541.526 -3611.204,2530.103 -3610.059,2506.283 -3572.177,2512.853 -3538.578,2509.633 -3521.822,2507.997 
			-3529.968,2529.117 -3517.046,2558.446 -3501.32,2580.623 -3513.857,2592.02 -3525.196,2579.513 -3554.459,2592.543 
			-3559.875,2606.66 -3595.058,2593.064 -3589.641,2578.947 		"/>
		<polygon fill="none" stroke="#000000" stroke-width="6" stroke-miterlimit="3.864" points="-3620.454,2575.187 
			-3612.282,2554.035 -3623.65,2541.526 -3611.204,2530.103 -3610.059,2506.283 -3572.177,2512.853 -3538.578,2509.633 
			-3521.822,2507.997 -3529.968,2529.117 -3517.046,2558.446 -3501.32,2580.623 -3513.857,2592.02 -3525.196,2579.513 
			-3554.459,2592.543 -3559.875,2606.66 -3595.058,2593.064 -3589.641,2578.947 		"/>
		<polygon fill="none" stroke="#000000" stroke-width="6" stroke-miterlimit="10" points="-3302.455,1855.882 -3316.546,1850.463 
			-3295.211,1753.459 -3266.007,1740.373 -3238.932,1775.146 -3249.803,1803.326 -3260.703,1831.513 		"/>
		<polygon fill="none" stroke="#000000" stroke-width="6" stroke-miterlimit="3.864" points="-3302.455,1855.882 
			-3316.546,1850.463 -3295.211,1753.459 -3266.007,1740.373 -3238.932,1775.146 -3249.803,1803.326 -3260.703,1831.513 		"/>
		<polygon fill="none" stroke="#000000" stroke-width="6" stroke-miterlimit="10" points="-3111.59,2010.503 -3089.324,1994.828 
			-3076.404,2024.099 -3087.277,2052.253 -3109.512,2067.954 -3119.736,2031.623 		"/>
		<polygon fill="none" stroke="#000000" stroke-width="6" stroke-miterlimit="3.864" points="-3111.59,2010.503 -3089.324,1994.828 
			-3076.404,2024.099 -3087.277,2052.253 -3109.512,2067.954 -3119.736,2031.623 		"/>
		<polygon fill="none" stroke="#000000" stroke-width="6" stroke-miterlimit="10" points="-3259.821,1661.819 -3266.351,1699.816 
			-3257.83,1719.279 -3224.25,1716.088 -3207.93,1673.787 -3180.277,1643.967 -3155.79,1580.514 -3190.911,1566.967 
			-3247.892,1609.799 -3241.857,1636.36 		"/>
		<polygon fill="none" stroke="#000000" stroke-width="6" stroke-miterlimit="3.864" points="-3259.821,1661.819 
			-3266.351,1699.816 -3257.83,1719.279 -3224.25,1716.088 -3207.93,1673.787 -3180.277,1643.967 -3155.79,1580.514 
			-3190.911,1566.967 -3247.892,1609.799 -3241.857,1636.36 		"/>
		<polygon fill="none" stroke="#000000" stroke-width="6" stroke-miterlimit="10" points="-2973.53,2679.09 -2948.132,2697.026 
			-2967.145,2746.325 -2963.985,2779.902 -2989.994,2826.563 -3037.251,2865.002 -3058.404,2856.83 -3063.176,2806.439 
			-3051.577,2713.71 -3028.283,2674.197 -2994.71,2670.918 		"/>
		<polygon fill="none" stroke="#000000" stroke-width="6" stroke-miterlimit="3.864" points="-2973.53,2679.09 -2948.132,2697.026 
			-2967.145,2746.325 -2963.985,2779.902 -2989.994,2826.563 -3037.251,2865.002 -3058.404,2856.83 -3063.176,2806.439 
			-3051.577,2713.71 -3028.283,2674.197 -2994.71,2670.918 		"/>
		<polygon fill="none" stroke="#000000" stroke-width="6" stroke-miterlimit="10" points="-2842.188,2778.398 -2863.928,2834.699 
			-2922.037,2901.406 -2965.276,2908.924 -2988.153,2989.191 -3012.642,3052.646 -2991.087,3101.402 -2969.992,3109.547 
			-2947.961,3199.053 -2981.01,3242.93 -3035.265,3278.668 -3016.897,3293.878 -3016.393,3334.625 -2969.939,3360.564 
			-2909.737,3351.393 -2867.092,3408.353 -2850.334,3406.75 -2812.871,3372.619 -2838.237,3354.711 -2865.305,3319.967 
			-2872.802,3276.58 -2833.201,3194.734 -2823.387,3190.424 -2817.967,3176.363 -2811.433,3138.399 -2766.47,3147.658 
			-2748.135,3162.84 -2751.949,3193.686 -2761.758,3198.056 -2772.975,3185.59 -2789.875,3187.21 -2812.082,3202.88 
			-2810.528,3219.729 -2796.403,3225.204 -2779.625,3223.537 -2786.217,3261.475 -2764.597,3310.313 -2776.173,3402.95 
			-2806.545,3439.83 -2831.006,3503.224 -2758.394,3482.666 -2687.417,3445.322 -2649.987,3411.166 -2610.939,3393.855 
			-2643.454,3373.2 -2653.648,3336.869 -2640.052,3301.685 -2584.314,3282.688 -2513.488,3350.516 -2487.881,3263.303 
			-2456.396,3202.547 -2432.324,3098.425 -2411.7,3065.937 -2385.042,2954.825 -2327.391,2847.484 -2318.601,2761.857 
			-2320.181,2745.036 -2305.008,2726.61 -2267.596,2692.518 -2238.311,2679.422 -2185.752,2626.904 -2184.608,2603.084 
			-2172.13,2591.659 -2152.589,2583.045 -2127.664,2560.229 -2165.541,2553.721 -2183.936,2538.514 -2185.574,2521.758 
			-2182.851,2514.698 -2180.126,2507.638 -2153.467,2501.713 -2150.744,2494.654 -2181.709,2490.82 -2202.802,2482.674 
			-2208.66,2456.095 -2227.086,2440.894 -2221.664,2426.832 -2204.849,2425.222 -2189.642,2406.822 -2220.517,2403.012 
			-2268.182,2400.78 -2300.606,2380.209 -2342.817,2363.916 -2340.595,2316.165 -2273.422,2309.727 -2234.867,2251.781 
			-2242.374,2208.305 -2276.413,2170.886 -2343.555,2177.354 -2361.475,2202.9 -2409.142,2200.64 -2452.929,2167.615 
			-2504.929,2155.569 -2523.732,2099.727 -2507.855,2016.816 -2579.831,1972.777 -2588.405,1953.348 -2612.276,1952.264 
			-2644.267,1972.244 -2673.521,1985.332 -2690.336,1986.915 -2739.08,2008.559 -2758.561,2017.196 -2803.638,2113.165 
			-2832.961,2126.113 -2880.593,2123.881 -2919.572,2141.304 -2933.138,2176.486 -2991.69,2202.494 -3010.145,2187.293 
			-3011.698,2170.474 -3032.757,2162.354 -3052.269,2171.023 -3079.461,2241.448 -3150.96,2238.22 -3170.006,2287.496 
			-3142.498,2362.904 -3118.709,2364.023 -3110.072,2383.507 -3105.736,2393.262 -3087.398,2408.471 -3066.214,2416.642 
			-3054.878,2429.125 -3065.747,2457.307 -3055.525,2493.636 -3063.702,2514.729 -3094.547,2510.915 -3107.52,2481.679 
			-3108.051,2440.96 -3127.941,2408.957 -3139.303,2396.537 -3157.174,2421.989 -3177.858,2454.512 -3186.005,2475.63 
			-3166.023,2507.659 -3153.134,2536.928 -3134.736,2552.135 -3116.313,2567.279 -3097.946,2582.49 -3103.393,2596.609 
			-3132.628,2609.58 -3142.355,2613.913 -3164.594,2629.586 -3167.345,2636.679 -3160.315,2639.373 -3126.742,2636.158 
			-3082.273,2604.758 -3050.34,2584.724 -3011.23,2567.377 -2967.936,2559.801 -2959.328,2579.311 -2963.188,2610.252 
			-2971.335,2631.341 -2945.938,2649.277 -2895.556,2644.445 -2871.096,2581.024 -2871.568,2540.33 -2889.935,2525.123 
			-2923.531,2528.373 -2954.344,2524.558 -2958.65,2514.797 -2929.887,2461.135 -2949.917,2429.173 -2965.534,2406.903 
			-2947.639,2381.42 -2908.618,2364.137 -2875.025,2360.858 -2856.628,2376.063 -2833.925,2401.027 -2823.762,2437.362 
			-2819.376,2447.052 -2816.233,2480.748 -2803.232,2510.014 -2783.316,2541.982 -2778.481,2592.426 -2782.35,2623.308 
			-2804.58,2639.038 -2821.394,2640.649 -2836.566,2659.103 -2841.988,2673.134 -2815.475,2667.25 -2798.663,2665.609 
			-2760.73,2672.145 -2836.742,2764.275 		"/>
		<polygon fill="none" stroke="#000000" stroke-width="6" stroke-miterlimit="3.864" points="-2842.188,2778.398 
			-2863.928,2834.699 -2922.037,2901.406 -2965.276,2908.924 -2988.153,2989.191 -3012.642,3052.646 -2991.087,3101.402 
			-2969.992,3109.547 -2947.961,3199.053 -2981.01,3242.93 -3035.265,3278.668 -3016.897,3293.878 -3016.393,3334.625 
			-2969.939,3360.564 -2909.737,3351.393 -2867.092,3408.353 -2850.334,3406.75 -2812.871,3372.619 -2838.237,3354.711 
			-2865.305,3319.967 -2872.802,3276.58 -2833.201,3194.734 -2823.387,3190.424 -2817.967,3176.363 -2811.433,3138.399 
			-2766.47,3147.658 -2748.135,3162.84 -2751.949,3193.686 -2761.758,3198.056 -2772.975,3185.59 -2789.875,3187.21 
			-2812.082,3202.88 -2810.528,3219.729 -2796.403,3225.204 -2779.625,3223.537 -2786.217,3261.475 -2764.597,3310.313 
			-2776.173,3402.95 -2806.545,3439.83 -2831.006,3503.224 -2758.394,3482.666 -2687.417,3445.322 -2649.987,3411.166 
			-2610.939,3393.855 -2643.454,3373.2 -2653.648,3336.869 -2640.052,3301.685 -2584.314,3282.688 -2513.488,3350.516 
			-2487.881,3263.303 -2456.396,3202.547 -2432.324,3098.425 -2411.7,3065.937 -2385.042,2954.825 -2327.391,2847.484 
			-2318.601,2761.857 -2320.181,2745.036 -2305.008,2726.61 -2267.596,2692.518 -2238.311,2679.422 -2185.752,2626.904 
			-2184.608,2603.084 -2172.13,2591.659 -2152.589,2583.045 -2127.664,2560.229 -2165.541,2553.721 -2183.936,2538.514 
			-2185.574,2521.758 -2182.851,2514.698 -2180.126,2507.638 -2153.467,2501.713 -2150.744,2494.654 -2181.709,2490.82 
			-2202.802,2482.674 -2208.66,2456.095 -2227.086,2440.894 -2221.664,2426.832 -2204.849,2425.222 -2189.642,2406.822 
			-2220.517,2403.012 -2268.182,2400.78 -2300.606,2380.209 -2342.817,2363.916 -2340.595,2316.165 -2273.422,2309.727 
			-2234.867,2251.781 -2242.374,2208.305 -2276.413,2170.886 -2343.555,2177.354 -2361.475,2202.9 -2409.142,2200.64 
			-2452.929,2167.615 -2504.929,2155.569 -2523.732,2099.727 -2507.855,2016.816 -2579.831,1972.777 -2588.405,1953.348 
			-2612.276,1952.264 -2644.267,1972.244 -2673.521,1985.332 -2690.336,1986.915 -2739.08,2008.559 -2758.561,2017.196 
			-2803.638,2113.165 -2832.961,2126.113 -2880.593,2123.881 -2919.572,2141.304 -2933.138,2176.486 -2991.69,2202.494 
			-3010.145,2187.293 -3011.698,2170.474 -3032.757,2162.354 -3052.269,2171.023 -3079.461,2241.448 -3150.96,2238.22 
			-3170.006,2287.496 -3142.498,2362.904 -3118.709,2364.023 -3110.072,2383.507 -3105.736,2393.262 -3087.398,2408.471 
			-3066.214,2416.642 -3054.878,2429.125 -3065.747,2457.307 -3055.525,2493.636 -3063.702,2514.729 -3094.547,2510.915 
			-3107.52,2481.679 -3108.051,2440.96 -3127.941,2408.957 -3139.303,2396.537 -3157.174,2421.989 -3177.858,2454.512 
			-3186.005,2475.63 -3166.023,2507.659 -3153.134,2536.928 -3134.736,2552.135 -3116.313,2567.279 -3097.946,2582.49 
			-3103.393,2596.609 -3132.628,2609.58 -3142.355,2613.913 -3164.594,2629.586 -3167.345,2636.679 -3160.315,2639.373 
			-3126.742,2636.158 -3082.273,2604.758 -3050.34,2584.724 -3011.23,2567.377 -2967.936,2559.801 -2959.328,2579.311 
			-2963.188,2610.252 -2971.335,2631.341 -2945.938,2649.277 -2895.556,2644.445 -2871.096,2581.024 -2871.568,2540.33 
			-2889.935,2525.123 -2923.531,2528.373 -2954.344,2524.558 -2958.65,2514.797 -2929.887,2461.135 -2949.917,2429.173 
			-2965.534,2406.903 -2947.639,2381.42 -2908.618,2364.137 -2875.025,2360.858 -2856.628,2376.063 -2833.925,2401.027 
			-2823.762,2437.362 -2819.376,2447.052 -2816.233,2480.748 -2803.232,2510.014 -2783.316,2541.982 -2778.481,2592.426 
			-2782.35,2623.308 -2804.58,2639.038 -2821.394,2640.649 -2836.566,2659.103 -2841.988,2673.134 -2815.475,2667.25 
			-2798.663,2665.609 -2760.73,2672.145 -2836.742,2764.275 		"/>
		<polygon fill="none" stroke="#000000" stroke-width="6" stroke-miterlimit="10" points="-1499.716,2357.337 -1554,2393.049 
			-1584.818,2389.205 -1587.072,2436.957 -1618.565,2497.653 -1650.497,2517.656 -1679.347,2571.387 -1705.89,2577.302 
			-1719.482,2612.545 -1720.597,2636.358 -1745.582,2659.182 -1735.304,2695.477 -1738.051,2702.6 -1773.267,2688.976 
			-1812.255,2706.311 -1877.145,2665.024 -1880.338,2631.391 -1851.128,2618.451 -1879.219,2607.604 -1940.914,2599.947 
			-1959.37,2584.747 -1948.474,2556.534 -1950.053,2539.773 -1978.173,2528.932 -1963.03,2510.479 -1943.461,2501.806 
			-1959.133,2479.567 -1953.71,2465.535 -1952.54,2441.658 -1924.418,2452.502 -1930.396,2425.905 -1936.2,2399.294 
			-1971.35,2385.754 -1968.039,2314.187 -1993.518,2296.347 -2021.144,2326.135 -2093.652,2346.628 -2117.554,2345.548 
			-2004.829,2283.834 -1879.593,2210.75 -1847.638,2190.658 -1810.227,2156.564 -1813.451,2122.906 -1822.002,2103.415 
			-1787.373,2076.354 -1763.971,2036.742 -1716.747,1998.311 -1665.984,2034.093 -1641.729,2075.877 -1569.083,2055.284 
			-1455.389,2074.897 -1428.909,2068.926 -1393.55,1977.323 -1403.716,1940.989 -1372.869,1944.803 -1281.267,1874.914 
			-1260.176,1883.063 -1229.331,1886.845 -1202.702,1880.925 -1190.311,1869.505 -1105.417,1942.787 -977.2,2008.454 
			-990.794,2043.669 -996.242,2057.789 -1004.386,2078.908 -1005.497,2102.783 -1001.222,2112.543 -981.711,2103.875 
			-975.796,2130.445 -979.632,2161.353 -975.329,2171.08 -971.021,2180.838 -959.685,2193.348 -1004.093,2224.775 
			-1027.474,2264.297 -1061.04,2267.573 -1151.034,2354.249 -1221.13,2473.01 -1306.52,2359.096 -1428.793,2319.971 
			-1465.037,2330.184 		"/>
		<polygon fill="none" stroke="#000000" stroke-width="6" stroke-miterlimit="3.864" points="-1499.716,2357.337 -1554,2393.049 
			-1584.818,2389.205 -1587.072,2436.957 -1618.565,2497.653 -1650.497,2517.656 -1679.347,2571.387 -1705.89,2577.302 
			-1719.482,2612.545 -1720.597,2636.358 -1745.582,2659.182 -1735.304,2695.477 -1738.051,2702.6 -1773.267,2688.976 
			-1812.255,2706.311 -1877.145,2665.024 -1880.338,2631.391 -1851.128,2618.451 -1879.219,2607.604 -1940.914,2599.947 
			-1959.37,2584.747 -1948.474,2556.534 -1950.053,2539.773 -1978.173,2528.932 -1963.03,2510.479 -1943.461,2501.806 
			-1959.133,2479.567 -1953.71,2465.535 -1952.54,2441.658 -1924.418,2452.502 -1930.396,2425.905 -1936.2,2399.294 
			-1971.35,2385.754 -1968.039,2314.187 -1993.518,2296.347 -2021.144,2326.135 -2093.652,2346.628 -2117.554,2345.548 
			-2004.829,2283.834 -1879.593,2210.75 -1847.638,2190.658 -1810.227,2156.564 -1813.451,2122.906 -1822.002,2103.415 
			-1787.373,2076.354 -1763.971,2036.742 -1716.747,1998.311 -1665.984,2034.093 -1641.729,2075.877 -1569.083,2055.284 
			-1455.389,2074.897 -1428.909,2068.926 -1393.55,1977.323 -1403.716,1940.989 -1372.869,1944.803 -1281.267,1874.914 
			-1260.176,1883.063 -1229.331,1886.845 -1202.702,1880.925 -1190.311,1869.505 -1105.417,1942.787 -977.2,2008.454 
			-990.794,2043.669 -996.242,2057.789 -1004.386,2078.908 -1005.497,2102.783 -1001.222,2112.543 -981.711,2103.875 
			-975.796,2130.445 -979.632,2161.353 -975.329,2171.08 -971.021,2180.838 -959.685,2193.348 -1004.093,2224.775 
			-1027.474,2264.297 -1061.04,2267.573 -1151.034,2354.249 -1221.13,2473.01 -1306.52,2359.096 -1428.793,2319.971 
			-1465.037,2330.184 		"/>
		<polygon fill="none" stroke="#000000" stroke-width="6" stroke-miterlimit="10" points="4141.016,-3756.313 4047.797,-3703.238 
			4024.949,-3623.002 4009.719,-3604.573 3945.709,-3564.527 3958.654,-3535.231 3950.512,-3514.11 3911.494,-3496.742 
			3836.645,-3428.489 3828.504,-3407.37 3863.65,-3393.799 3995.889,-3464.182 4041.127,-3499.036 		"/>
		<polygon fill="none" stroke="#000000" stroke-width="6" stroke-miterlimit="3.864" points="4141.016,-3756.313 
			4047.797,-3703.238 4024.949,-3623.002 4009.719,-3604.573 3945.709,-3564.527 3958.654,-3535.231 3950.512,-3514.11 
			3911.494,-3496.742 3836.645,-3428.489 3828.504,-3407.37 3863.65,-3393.799 3995.889,-3464.182 4041.127,-3499.036 		"/>
		<polygon fill="none" stroke="#000000" stroke-width="6" stroke-miterlimit="10" points="1853.336,-6114.942 1852.121,-5913.673 
			1553.912,-5915.446 1555.127,-6116.748 		"/>
		<polygon fill="none" stroke="#000000" stroke-width="6" stroke-miterlimit="10" points="1506.271,-5112.168 1505.088,-4910.864 
			1206.848,-4912.666 1208.061,-5113.976 		"/>
	</g>
	
		<path clip-path="url(#SVGID_2_)" fill="none" stroke="#000000" stroke-width="7" stroke-linecap="round" stroke-linejoin="round" stroke-miterlimit="10" d="
		M1312.602,1341.581c0,0-227.998,224-397.332,224s-204.001-37.864-217.334-79.599s8.667-119.067,91.334-157.734
		c82.666-38.667,218.666-72.667,400-67.333"/>
	
		<path clip-path="url(#SVGID_2_)" fill="none" stroke="#000000" stroke-width="7" stroke-linecap="round" stroke-linejoin="round" stroke-miterlimit="10" d="
		M1701.27,1494.914c0,0-184,171.487-384.666,171.487c-200.668,0-377.877-41.477-445.334-146.154
		c-38.667-60,26.668-290.666,201.334-399.333s354.666-116.001,544-66.667"/>
	
		<path clip-path="url(#SVGID_2_)" fill="none" stroke="#000000" stroke-width="7" stroke-linecap="round" stroke-linejoin="round" stroke-miterlimit="10" d="
		M1570.27,1635.914c0,0-469,27-745-46s-546.895-168.961-585.31-414.069c-4.691-29.931,153.653-213.454,270.31-230.931
		c97-14.531,209.998-62.463,649,88c279,95.624,509,276,509,276"/>
	
		<path clip-path="url(#SVGID_2_)" fill="none" stroke="#000000" stroke-width="7" stroke-linecap="round" stroke-linejoin="round" stroke-miterlimit="10" d="
		M951.27,1161.581c0,0-74.668,20.667-160,8c-85.334-12.667-157.227-35.778-158.28-61.223s44.946-54.019,108.946-83.353
		s185.334-6.759,215.334,13.241"/>
	
		<path clip-path="url(#SVGID_2_)" fill="none" stroke="#000000" stroke-width="7" stroke-linecap="round" stroke-linejoin="round" stroke-miterlimit="10" d="
		M818.306,1069.581c0,0-402.872-19.272-516.37-249.604c-28.447-57.729,138.667-124.396,202.667-124.396s94.667-12,272,38"/>
	
		<path clip-path="url(#SVGID_2_)" fill="none" stroke="#000000" stroke-width="7" stroke-linecap="round" stroke-linejoin="round" stroke-miterlimit="10" d="
		M1083.27,922.914c0,0-94.666,112.667-232.667,112.667c-138,0-200.964-171.334-55.482-250.001
		c145.481-78.666,214.149-58.666,214.149-58.666"/>
	
		<path clip-path="url(#SVGID_2_)" fill="none" stroke="#000000" stroke-width="7" stroke-linecap="round" stroke-linejoin="round" stroke-miterlimit="10" d="
		M1384.27,619.914c0,0-235,218.346-539,253.173c0,0,102-230.173,490-348.173"/>
	
		<path clip-path="url(#SVGID_2_)" fill="none" stroke="#000000" stroke-width="7" stroke-linecap="round" stroke-linejoin="round" stroke-miterlimit="10" d="
		M1632.27,1092.316c0,0-419,53.662-633-244.87l-9.314-13.532c0,0,108.314-306,662.314-149"/>
	
		<path clip-path="url(#SVGID_2_)" fill="none" stroke="#000000" stroke-width="7" stroke-linecap="round" stroke-linejoin="round" stroke-miterlimit="10" d="
		M1606.27,940.914c0,0-418.416-88.068-468.209-231.034c0,0,217.438-24.96,464.822,106.537"/>
	<path clip-path="url(#SVGID_2_)" fill="none" stroke="#000000" stroke-width="7" stroke-miterlimit="10" d="M1689.936,431.581
		c0,0-269.203-16.667-269.203-122c0-76.667,240.537-94,240.537-94"/>
	<g clip-path="url(#SVGID_2_)">
		<polygon fill="#FFFFFF" points="212.329,1198.524 239.96,1150.665 267.592,1198.524 		"/>
		<path d="M239.96,1155.665l23.302,40.359h-46.603L239.96,1155.665 M239.96,1145.665l-4.33,7.5l-23.301,40.359l-4.33,7.5h8.66
			h46.603h8.66l-4.33-7.5l-23.302-40.359L239.96,1145.665L239.96,1145.665z"/>
	</g>
	<g clip-path="url(#SVGID_2_)">
		<polygon fill="#FFFFFF" points="593.707,1131.038 621.339,1083.179 648.971,1131.038 		"/>
		<path d="M621.339,1088.179l23.302,40.359h-46.604L621.339,1088.179 M621.339,1078.179l-4.33,7.5l-23.302,40.359l-4.33,7.5h8.66
			h46.604h8.66l-4.33-7.5l-23.302-40.359L621.339,1078.179L621.339,1078.179z"/>
	</g>
	<g clip-path="url(#SVGID_2_)">
		<polygon fill="#FFFFFF" points="756.012,1465.708 783.643,1417.849 811.273,1465.708 		"/>
		<path d="M783.643,1422.849l23.301,40.359h-46.602L783.643,1422.849 M783.643,1412.849l-4.33,7.5l-23.301,40.359l-4.33,7.5h8.66
			h46.602h8.66l-4.33-7.5l-23.301-40.359L783.643,1412.849L783.643,1412.849z"/>
	</g>
	<g clip-path="url(#SVGID_2_)">
		<polygon fill="#FFFFFF" points="846.512,1528.842 874.143,1480.982 901.773,1528.842 		"/>
		<path d="M874.143,1485.982l23.301,40.359h-46.602L874.143,1485.982 M874.143,1475.982l-4.33,7.5l-23.301,40.359l-4.33,7.5h8.66
			h46.602h8.66l-4.33-7.5l-23.301-40.359L874.143,1475.982L874.143,1475.982z"/>
	</g>
	<g clip-path="url(#SVGID_2_)">
		<polygon fill="#FFFFFF" points="269.158,834.891 296.79,787.031 324.422,834.891 		"/>
		<path d="M296.79,792.031l23.302,40.359h-46.604L296.79,792.031 M296.79,782.031l-4.33,7.5l-23.302,40.359l-4.33,7.5h8.66h46.604
			h8.66l-4.33-7.5l-23.302-40.359L296.79,782.031L296.79,782.031z"/>
	</g>
	<g clip-path="url(#SVGID_2_)">
		<polygon fill="#FFFFFF" points="813.976,890.306 841.607,842.446 869.238,890.306 		"/>
		<path d="M841.607,847.446l23.301,40.359h-46.603L841.607,847.446 M841.607,837.446l-4.33,7.5l-23.302,40.359l-4.33,7.5h8.66
			h46.603h8.66l-4.33-7.5l-23.301-40.359L841.607,837.446L841.607,837.446z"/>
	</g>
	<g clip-path="url(#SVGID_2_)">
		<polygon fill="#FFFFFF" points="962.324,862.837 989.955,814.978 1017.586,862.837 		"/>
		<path d="M989.955,819.978l23.301,40.359h-46.602L989.955,819.978 M989.955,809.978l-4.33,7.5l-23.301,40.359l-4.33,7.5h8.66
			h46.602h8.66l-4.33-7.5l-23.301-40.359L989.955,809.978L989.955,809.978z"/>
	</g>
	<g clip-path="url(#SVGID_2_)">
		<polygon fill="#FFFFFF" points="1106.445,745.837 1134.076,697.978 1161.707,745.837 		"/>
		<path d="M1134.076,702.978l23.301,40.359h-46.602L1134.076,702.978 M1134.076,692.978l-4.33,7.5l-23.301,40.359l-4.33,7.5h8.66
			h46.602h8.66l-4.33-7.5l-23.301-40.359L1134.076,692.978L1134.076,692.978z"/>
	</g>
	<g clip-path="url(#SVGID_2_)">
		<polygon fill="#FFFFFF" points="671.816,915.946 699.448,868.087 727.08,915.946 		"/>
		<path d="M699.448,873.087l23.302,40.359h-46.604L699.448,873.087 M699.448,863.087l-4.33,7.5l-23.302,40.359l-4.33,7.5h8.66
			h46.604h8.66l-4.33-7.5l-23.302-40.359L699.448,863.087L699.448,863.087z"/>
	</g>
	<g clip-path="url(#SVGID_2_)">
		<polygon fill="#FFFFFF" points="1393.102,321.523 1420.732,273.664 1448.363,321.523 		"/>
		<path d="M1420.732,278.664l23.301,40.359h-46.602L1420.732,278.664 M1420.732,268.664l-4.33,7.5l-23.301,40.359l-4.33,7.5h8.66
			h46.602h8.66l-4.33-7.5l-23.301-40.359L1420.732,268.664L1420.732,268.664z"/>
	</g>
	<g clip-path="url(#SVGID_2_)">
		<path d="M60.585,1171.119c0-3.444,0-5.986,0.246-10.004c-3.034,3.772-3.772,4.592-6.642,7.298
			c-1.066-1.968-1.722-2.952-2.952-4.182c6.806-5.494,13.284-14.187,15.417-20.582l4.838,2.46c-0.164,0.328-0.164,0.328-0.574,0.901
			c-0.082,0.082-0.164,0.328-0.328,0.575c-2.378,4.182-3.28,5.739-5.002,8.035v34.112c0,4.428,0.082,6.97,0.41,9.267h-5.904
			c0.328-2.543,0.492-5.085,0.492-9.677V1171.119z M71.737,1127.413c-0.656,0.738-0.738,0.901-1.64,2.132
			c-4.428,6.232-8.692,10.824-14.596,15.416c-0.82-1.558-1.722-2.706-3.198-4.182c6.724-4.756,12.546-11.234,14.842-16.4
			L71.737,1127.413z M86.58,1153.571h-7.134c-3.198,0-5.33,0.082-7.298,0.41v-5.248c1.804,0.328,3.936,0.41,7.298,0.41h7.134
			v-11.152h-6.642c-1.394,2.87-2.214,4.1-4.428,7.462c-1.066-0.984-2.296-1.722-4.264-2.624c5.002-6.479,6.97-10.742,8.774-18.532
			l4.92,1.476c-1.312,3.69-1.804,5.085-2.952,7.708h12.874c3.444,0,5.412-0.081,7.216-0.409v5.33
			c-1.968-0.328-3.854-0.41-7.052-0.41h-3.69v11.152h5.002c3.362,0,5.166-0.082,6.806-0.41v5.248
			c-1.722-0.328-3.608-0.41-6.806-0.41h-5.002v11.234h5.002c2.788,0,4.51-0.082,6.15-0.41v5.166c-1.886-0.328-3.444-0.41-6.15-0.41
			h-5.002v14.514c4.264-0.983,6.314-1.476,11.808-2.952v4.757c-11.07,2.87-14.432,3.689-27.634,6.313
			c-2.46,0.492-3.608,0.738-5.166,1.23l-1.558-5.412c2.378-0.164,3.198-0.246,5.822-0.656v-19.516c0-2.542-0.164-4.511-0.492-6.643
			h5.74c-0.328,2.05-0.41,3.854-0.41,6.643v18.613c3.936-0.737,4.346-0.737,7.134-1.312V1153.571z M105.85,1137.171
			c0-4.346-0.082-5.986-0.246-7.544c1.394,0.246,3.198,0.328,6.068,0.328h8.282c3.034,0,4.756-0.082,6.232-0.328
			c-0.246,1.722-0.246,2.952-0.246,7.709v42.886c0,3.771-0.738,5.412-2.788,6.231c-1.394,0.574-3.116,0.82-5.248,0.82
			c-1.558,0-3.116-0.082-4.838-0.246c-0.082-2.05-0.328-3.198-0.902-5.002c1.886,0.246,3.936,0.492,5.084,0.492
			c3.116,0,3.608-0.328,3.608-2.706v-45.347h-9.922v55.351c0,3.69,0.164,6.888,0.41,9.021h-5.986
			c0.328-2.706,0.492-5.494,0.492-9.185V1137.171z"/>
		<path d="M200.15,1163.985c3.526,0,6.068-0.164,8.282-0.492v5.74c-2.296-0.328-4.838-0.492-8.282-0.492h-26.24v19.926h21.566
			v-9.922c0-2.624-0.082-4.182-0.41-5.985h5.904c-0.328,1.968-0.41,3.443-0.41,6.478v12.546c0,2.87,0.082,4.756,0.41,7.053h-5.494
			v-5.494h-46.658v5.412h-5.494c0.41-2.215,0.492-3.854,0.492-7.135v-12.628c0-2.87-0.082-4.264-0.41-6.313h5.822
			c-0.246,1.558-0.328,3.033-0.328,5.903v10.086h19.844v-19.926h-24.518c-3.444,0-5.986,0.164-8.364,0.492v-5.74
			c2.296,0.328,4.838,0.492,8.364,0.492h5.658v-26.568c0-2.87-0.082-4.838-0.246-6.642c13.038-0.492,23.042-1.559,33.948-3.772
			c6.396-1.313,9.594-2.214,12.382-3.526l3.198,5.084c-14.924,3.937-27.388,5.822-44.198,6.807v8.2H198.1
			c3.526,0,5.248-0.082,7.38-0.41v5.576c-2.296-0.328-4.1-0.41-7.38-0.41h-9.43v15.662H200.15z M183.585,1148.323h-28.618v15.662
			h28.618V1148.323z"/>
	</g>
	<g clip-path="url(#SVGID_2_)">
		<path d="M583.743,1352.545c0-2.05-0.163-3.854-0.491-5.904h6.313c-0.328,1.969-0.492,3.69-0.492,5.904v0.656h24.19
			c3.443,0,5.576-0.082,8.2-0.328c-0.246,1.558-0.328,3.198-0.328,5.494v3.936c0,2.378,0.082,3.854,0.328,5.576h-5.248v-10.25
			h-57.729v10.25h-5.33c0.246-1.886,0.327-3.198,0.327-5.658v-3.854c0-2.132-0.081-3.937-0.327-5.494
			c2.624,0.246,4.756,0.328,8.282,0.328h22.304V1352.545z M556.93,1399.367c0-4.264-0.082-5.904-0.328-7.954
			c1.804,0.164,3.443,0.246,7.789,0.246h45.675c4.347,0,5.986-0.082,7.79-0.246c-0.246,2.132-0.328,3.772-0.328,7.954v14.022
			c0,3.689,0.164,6.56,0.492,8.446h-5.494v-3.772h-50.594v3.772h-5.494c0.328-2.133,0.492-4.757,0.492-8.446V1399.367z
			 M561.932,1402.565h22.058v-6.724h-22.058V1402.565z M561.932,1413.882h22.058v-7.135h-22.058V1413.882z M562.178,1362.385
			c1.885,0.328,3.771,0.41,6.724,0.41h36.9c2.952,0,4.674-0.082,6.642-0.41v5.002c-2.132-0.328-3.771-0.41-6.642-0.41h-36.9
			c-2.952,0-4.593,0.082-6.724,0.41V1362.385z M610.558,1381.327c0,2.542,0.082,3.526,0.328,5.576
			c-2.132-0.246-4.429-0.328-6.97-0.328h-33.293c-2.542,0-4.756,0.082-6.888,0.328c0.245-2.05,0.327-3.198,0.327-5.576v-4.018
			c0-2.215-0.082-3.444-0.327-5.576c2.05,0.246,4.101,0.328,6.888,0.328h33.375c2.705,0,4.838-0.082,6.888-0.328
			c-0.246,1.968-0.328,3.197-0.328,5.576V1381.327z M568.983,1375.997v6.643h36.572v-6.643H568.983z M588.828,1402.565h23.697
			v-6.724h-23.697V1402.565z M588.828,1413.882h23.697v-7.135h-23.697V1413.882z"/>
		<path d="M665.58,1356.48c0-3.197-0.164-5.739-0.574-8.527h6.888c-0.41,2.952-0.574,5.248-0.574,8.527v16.893h24.272
			c3.361,0,6.314-0.164,9.266-0.574v6.314c-3.033-0.41-5.74-0.574-9.184-0.574h-24.354v32.719h19.927
			c4.346,0,6.478-0.082,8.773-0.492v6.149c-2.378-0.327-4.592-0.491-8.773-0.491h-44.035c-4.264,0-6.56,0.164-8.855,0.491v-6.149
			c2.05,0.328,4.592,0.492,8.773,0.492h18.451v-32.719h-22.059c-3.526,0-6.643,0.164-9.84,0.574v-6.314
			c3.279,0.41,5.985,0.574,9.84,0.574h22.059V1356.48z"/>
		<path d="M746.35,1355.825c0-3.116-0.164-5.166-0.574-7.626h6.807c-0.41,2.378-0.574,4.428-0.574,7.626v52.727h24.19v-37.475
			c0-3.444-0.164-5.248-0.492-7.626h6.478c-0.328,2.788-0.491,5.002-0.491,7.708v40.836c0,3.28,0.163,5.74,0.573,8.692h-6.067
			v-6.888H723.8v6.888h-6.068c0.41-3.444,0.574-5.33,0.574-8.282v-40.918c0-3.116-0.164-5.658-0.574-8.036h6.478
			c-0.327,2.296-0.409,4.592-0.409,7.954v37.146h22.55V1355.825z"/>
	</g>
	<g clip-path="url(#SVGID_2_)">
		<path d="M378.612,1099.435c-0.327,0.984-0.327,1.395-0.983,5.33c-1.805,11.071-5.74,22.469-10.66,31.243
			c-3.69,6.478-7.873,11.808-13.612,17.302c-1.64-1.968-2.952-3.116-5.085-4.264c8.939-7.545,15.335-16.893,19.518-28.7
			c2.459-6.971,4.182-15.253,4.182-20.091c0-0.328,0-0.82-0.082-1.722L378.612,1099.435z M390.994,1088.447
			c4.265,0,6.889-0.082,8.938-0.328c-0.082,0.656-0.082,1.065-0.082,1.312c0,3.937,0.901,10.004,2.46,16.729
			c4.018,17.548,12.465,32.636,23.78,42.641c-2.542,1.886-2.542,1.886-4.838,4.346c-6.888-6.724-12.546-14.842-16.974-24.19
			c-5.166-11.07-8.037-21.402-9.841-35.424h-11.89c-3.69,0-6.232,0.164-8.282,0.492v-6.068c1.968,0.328,4.428,0.492,8.364,0.492
			H390.994z"/>
		<path d="M473.406,1116.163c-0.41,7.954-1.805,14.433-4.101,19.353c-3.69,7.708-11.152,14.268-20.91,18.368
			c-1.147-2.214-1.722-3.034-3.608-4.593c9.43-3.443,16.072-8.938,19.598-16.317c1.969-4.101,3.281-10.086,3.609-16.811h-17.303
			c-3.443,5.494-6.314,8.938-11.563,13.694c-1.64-1.722-2.295-2.214-4.264-3.362c5.822-4.592,10.25-10.332,14.021-17.876
			c1.805-3.69,3.035-7.134,3.445-9.594l5.739,1.558c-0.491,0.902-0.491,0.902-1.312,2.87c-1.969,4.756-2.871,6.724-3.772,8.036
			c0.246,0,0.901-0.082,1.804-0.082h29.603c3.116,0,4.839-0.164,6.642-0.492v5.576c-2.131-0.328-2.131-0.328-6.806-0.328H473.406z"
			/>
		<path d="M567.869,1121.985c3.526,0,6.068-0.164,8.282-0.492v5.74c-2.296-0.328-4.838-0.492-8.282-0.492h-26.24v19.926h21.566
			v-9.922c0-2.624-0.082-4.182-0.41-5.985h5.904c-0.328,1.968-0.41,3.443-0.41,6.478v12.546c0,2.87,0.082,4.756,0.41,7.053h-5.494
			v-5.494h-46.658v5.412h-5.494c0.41-2.215,0.492-3.854,0.492-7.135v-12.628c0-2.87-0.082-4.264-0.41-6.313h5.822
			c-0.246,1.558-0.328,3.033-0.328,5.903v10.086h19.844v-19.926h-24.518c-3.444,0-5.986,0.164-8.365,0.492v-5.74
			c2.297,0.328,4.839,0.492,8.365,0.492h5.658v-26.568c0-2.87-0.082-4.838-0.246-6.642c13.037-0.492,23.041-1.559,33.947-3.772
			c6.396-1.313,9.595-2.214,12.383-3.526l3.197,5.084c-14.924,3.937-27.388,5.822-44.197,6.807v8.2h43.132
			c3.526,0,5.248-0.082,7.38-0.41v5.576c-2.296-0.328-4.1-0.41-7.38-0.41h-9.431v15.662H567.869z M551.305,1106.323h-28.617v15.662
			h28.617V1106.323z"/>
	</g>
	<g clip-path="url(#SVGID_2_)">
		<path d="M156.814,827.632c6.314-13.202,12.546-31.488,13.776-40.673l6.314,2.132c-0.82,1.969-0.82,1.969-3.28,9.923
			c-3.116,10.086-6.806,19.762-10.988,28.618h18.942c3.772,0,6.56-0.164,9.02-0.492v6.232c-2.624-0.41-5.002-0.574-9.02-0.574
			h-54.613c-4.1,0-6.806,0.164-9.43,0.574v-6.232c2.624,0.328,5.412,0.492,9.43,0.492H156.814z M150.664,771.297
			c0-2.378-0.164-4.182-0.574-6.724h6.478c-0.41,2.378-0.574,4.428-0.574,6.642v6.725h21.895c4.1,0,6.888-0.164,9.43-0.574v6.149
			c-2.706-0.327-5.494-0.491-9.43-0.491h-48.053c-3.772,0-6.478,0.164-9.102,0.491v-6.149c2.296,0.41,5.002,0.574,9.102,0.574
			h20.828V771.297z M137.134,787.861c3.936,10.742,6.232,18.942,8.856,32.39l-5.33,2.051c-2.132-12.219-5.002-22.633-8.938-32.473
			L137.134,787.861z"/>
		<path d="M231.106,772.363c0-3.116-0.164-5.166-0.574-7.626h6.806c-0.41,2.378-0.574,4.428-0.574,7.626v52.727h24.191v-37.475
			c0-3.444-0.164-5.248-0.492-7.626h6.478c-0.328,2.788-0.491,5.002-0.491,7.708v40.836c0,3.28,0.163,5.74,0.573,8.692h-6.067
			v-6.888h-52.399v6.888h-6.068c0.41-3.444,0.574-5.33,0.574-8.282v-40.918c0-3.116-0.164-5.658-0.574-8.036h6.478
			c-0.328,2.296-0.41,4.592-0.41,7.954v37.146h22.55V772.363z"/>
	</g>
	<g clip-path="url(#SVGID_2_)">
		<path d="M441.807,866.883c5.576,3.362,8.938,5.904,14.268,10.66l-3.197,4.592c-5.084-5.248-8.529-8.036-14.187-11.48
			L441.807,866.883z M456.648,893.205c-3.116,7.872-5.002,12.054-7.299,16.564c-1.147,2.296-1.147,2.296-3.771,6.56
			c-1.23,2.05-1.23,2.05-1.804,3.116l-4.839-4.264c4.265-4.429,9.104-13.448,13.367-25.175L456.648,893.205z M446.152,847.284
			c5.576,3.69,8.855,6.396,13.693,11.152l-3.361,4.183c-4.674-5.084-8.036-7.954-13.693-11.727L446.152,847.284z M504.783,894.025
			c-1.395,1.229-1.395,1.229-2.789,2.542c-3.525,3.115-6.396,5.494-9.594,7.79c3.526,5.084,8.774,9.43,11.398,9.43
			c2.05,0,3.443-4.51,4.182-13.612c1.559,1.23,2.871,1.968,4.674,2.788c-1.558,11.809-3.854,16.318-8.281,16.318
			c-4.51,0-11.07-5.002-16.072-12.218c-8.855,5.33-16.811,8.609-27.061,11.233c-1.066-2.46-1.476-3.115-3.033-5.002
			c11.726-2.542,19.27-5.412,27.634-10.414c-2.296-4.264-3.526-7.544-5.003-12.792l-12.873,1.477
			c-3.444,0.409-5.084,0.737-7.545,1.312l-0.492-5.494c0.82,0.082,1.23,0.082,1.477,0.082c1.395,0,3.854-0.164,6.232-0.41
			l12.136-1.394c-0.655-3.444-0.983-5.002-1.476-8.528l-8.118,0.82c-3.034,0.328-4.675,0.655-6.724,1.147l-0.328-5.248
			c0.737,0.082,1.229,0.082,1.558,0.082c1.312,0,2.624-0.082,5.248-0.328l7.79-0.819c-0.246-2.542-0.574-5.576-0.738-8.282
			l-8.609,0.82c-3.281,0.245-5.74,0.573-7.627,1.065l-0.328-5.248c0.738,0,1.148,0,1.559,0c1.559,0,3.361-0.082,5.986-0.328
			l8.691-0.737c-0.082-2.624-0.164-3.937-0.246-6.643c-0.164-3.936-0.246-5.576-0.574-7.38h6.15c-0.41,2.05-0.492,3.444-0.492,6.15
			c0,2.624,0.082,4.018,0.246,7.462l18.287-1.641c3.279-0.328,5.494-0.655,7.625-1.229l0.41,5.166c-0.574,0-1.065,0-1.312,0
			c-0.82,0-0.82,0-2.296,0.164c-0.574,0-1.887,0.164-4.182,0.328l-18.287,1.64c0.246,3.526,0.41,4.92,0.738,8.2l15.416-1.641
			c3.608-0.327,5.822-0.737,7.79-1.229l0.41,5.166c-0.41,0-0.655,0-0.901,0c-1.559,0-3.445,0.164-6.971,0.492l-15.17,1.558
			c0.41,3.198,0.738,5.002,1.477,8.446l17.875-2.05c2.707-0.246,5.74-0.82,7.545-1.23l0.492,5.33c-0.328,0-0.492,0-0.656,0h-0.41
			c-0.082,0-0.246,0-0.41,0c-0.984,0-3.854,0.246-6.396,0.492l-16.974,1.886c1.229,4.511,2.378,7.544,4.101,10.742
			c5.411-3.689,8.691-6.642,10.414-9.43L504.783,894.025z M489.367,846.301c4.756,2.378,7.543,4.1,11.479,7.134l-2.788,3.854
			c-3.854-3.28-6.97-5.33-11.563-7.463L489.367,846.301z"/>
		<path d="M529.301,910.589c0,4.593,0.164,7.053,0.492,9.185h-6.068c0.328-2.214,0.492-4.756,0.492-9.185v-52.973
			c0-4.018-0.082-6.396-0.328-9.02c2.295,0.246,4.428,0.328,8.609,0.328h11.727c4.1,0,6.068-0.082,8.363-0.328
			c-0.164,2.296-0.246,4.756-0.246,7.79v10.168c0,3.28,0.082,5.576,0.246,7.626c-2.213-0.164-5.002-0.246-8.281-0.246h-15.006
			V910.589z M529.301,859.503h18.367v-6.561h-18.367V859.503z M529.301,869.999h18.367v-6.643h-18.367V869.999z M572.351,901.077
			c0,3.116,0.082,5.33,0.246,7.462c-2.296-0.164-5.002-0.246-8.364-0.246h-17.958v5.74h-5.084c0.328-2.214,0.41-4.346,0.41-7.708
			v-18.204c0-2.952-0.082-5.33-0.246-7.708c2.46,0.246,4.429,0.328,8.118,0.328h15.006c3.771,0,5.658-0.082,8.118-0.328
			c-0.164,2.296-0.246,4.428-0.246,7.708V901.077z M546.274,892.139h21.402v-7.298h-21.402V892.139z M546.274,904.193h21.402v-7.954
			h-21.402V904.193z M590.227,911.819c0,5.412-1.722,6.806-8.363,6.806c-1.723,0-6.15-0.164-8.201-0.328
			c-0.328-2.214-0.737-3.525-1.476-5.248c3.854,0.492,7.298,0.82,9.021,0.82c3.361,0,4.018-0.41,4.018-2.378v-37.557h-16.811
			c-3.443,0-6.067,0.082-8.281,0.246c0.164-2.132,0.246-4.592,0.246-7.626v-10.168c0-2.87-0.082-5.33-0.246-7.79
			c2.296,0.246,4.182,0.328,8.363,0.328h13.531c4.264,0,6.231-0.082,8.609-0.328c-0.328,3.198-0.41,5.33-0.41,9.02V911.819z
			 M565.053,859.503h20.172v-6.561h-20.172V859.503z M565.053,869.999h20.172v-6.643h-20.172V869.999z"/>
		<path d="M634.344,854.255c0-3.116-0.164-5.166-0.574-7.626h6.806c-0.41,2.378-0.574,4.428-0.574,7.626v52.727h24.19v-37.475
			c0-3.444-0.164-5.248-0.492-7.626h6.479c-0.328,2.788-0.492,5.002-0.492,7.708v40.836c0,3.28,0.164,5.74,0.574,8.692h-6.068
			v-6.888h-52.398v6.888h-6.068c0.41-3.444,0.574-5.33,0.574-8.282v-40.918c0-3.116-0.164-5.658-0.574-8.036h6.479
			c-0.328,2.296-0.41,4.592-0.41,7.954v37.146h22.551V854.255z"/>
	</g>
	<g clip-path="url(#SVGID_2_)">
		<path d="M744.696,595.227c2.214,5.74,4.347,9.021,8.364,12.956c-1.23,1.313-1.641,1.968-2.87,4.019
			c-2.952-4.019-4.347-6.479-6.149-10.988c0.327,6.232,0.409,9.84,0.409,13.448v25.42c0,4.428,0.164,7.298,0.492,9.512h-5.822
			c0.328-2.296,0.492-5.248,0.492-9.512v-23.206c0-2.952,0.164-7.708,0.492-13.202c-2.378,10.414-5.494,18.368-10.005,25.42
			c-1.312-2.46-1.639-2.952-3.279-4.674c3.936-5.412,6.561-10.66,8.938-17.794c1.395-3.854,2.543-8.118,3.199-11.398h-2.789
			c-3.115,0-4.674,0.082-6.642,0.41v-5.248c1.804,0.328,3.362,0.41,6.478,0.41h3.608v-8.2c0-4.428-0.082-5.822-0.41-7.872h5.658
			c-0.328,2.214-0.41,4.018-0.41,7.79v8.282h2.46c2.297,0,3.69-0.082,4.92-0.328v5.084c-1.394-0.246-2.787-0.328-4.92-0.328H744.696
			z M763.064,604.001c1.395-2.296,2.378-4.347,3.607-7.216h-2.869c-3.526,0-5.658,0.082-7.627,0.409v-4.92
			c1.723,0.328,3.855,0.41,7.709,0.41h4.428c0.902-2.624,1.23-3.689,1.969-6.56h-7.873c-4.1,0-6.314,0.082-8.281,0.41v-5.167
			c2.295,0.328,4.592,0.492,8.363,0.492h8.61c0.41-2.624,0.737-5.248,0.737-6.642c0-0.246,0-0.574,0-0.984l5.576,0.41
			c-0.328,1.313-0.328,1.313-0.901,4.428c-0.082,0.574-0.082,0.656-0.574,2.788h15.908c3.362,0,6.313-0.164,8.446-0.492v5.167
			c-1.969-0.328-4.346-0.41-8.364-0.41h-16.892c-0.656,2.542-1.066,3.936-1.887,6.56h16.975c3.771,0,6.15-0.082,8.035-0.41v4.92
			c-1.967-0.327-4.346-0.409-7.953-0.409h-7.545c1.313,3.115,1.969,4.428,3.69,7.216h7.872c3.444,0,6.15-0.164,8.118-0.492v5.248
			c-1.886-0.328-4.756-0.492-8.036-0.492h-5.002c3.936,5.002,8.528,8.446,14.76,11.234c-1.229,1.312-1.968,2.542-3.033,4.592
			c-7.463-4.346-12.629-9.102-17.139-15.826h-18.204c-4.347,6.396-8.61,10.824-15.334,15.662c-1.065-1.804-1.804-2.788-3.362-4.018
			c5.576-3.28,9.676-6.807,13.284-11.645c-3.69,0-5.166,0.082-7.134,0.41v-5.084c1.886,0.328,3.689,0.41,7.544,0.41H763.064z
			 M772.166,618.679c-4.018,0.574-5.412,0.738-10.086,1.148c-0.492-1.886-0.819-2.624-1.722-4.101
			c10.169-0.328,16.728-1.394,23.042-3.854l2.789,3.771c-4.265,1.23-5.986,1.641-9.349,2.297v6.478h13.366
			c4.674,0,6.068-0.082,7.708-0.41v5.084c-2.132-0.328-4.593-0.492-7.708-0.492h-11.48c6.725,6.807,12.547,10.169,22.961,13.366
			c-1.148,1.313-1.969,2.706-2.953,4.675c-10.824-4.511-15.58-7.872-22.222-15.58c0.328,3.936,0.328,4.838,0.328,6.478v4.674
			c0,3.198,0.164,5.166,0.491,7.299h-5.739c0.327-1.805,0.491-4.265,0.491-7.381v-4.674c0-2.296,0.164-4.428,0.41-6.232
			c-5.904,7.135-10.988,10.906-21.156,15.499c-1.065-1.805-1.803-2.788-3.279-4.265c10.496-3.854,16.154-7.462,22.141-13.858
			h-10.414c-2.871,0-5.084,0.164-7.217,0.492v-5.084c1.723,0.328,3.689,0.41,7.053,0.41h12.545V618.679z M781.351,604.001
			c-1.558-2.788-1.968-3.69-3.444-7.216h-6.313c-1.065,2.706-1.968,4.756-3.28,7.216H781.351z"/>
		<path d="M836.209,596.047c5.985,3.771,7.871,5.084,12.054,8.774c6.478-5.74,10.25-9.923,15.826-17.467H839.57
			c-6.232,7.216-13.038,12.874-22.469,18.614c-0.983-1.558-1.721-2.542-3.443-3.936c8.282-4.593,14.76-9.677,20.254-15.744
			c4.674-5.248,7.545-9.267,9.103-13.038l5.575,2.132c-3.771,5.33-3.771,5.33-5.329,7.38h18.04c3.197,0,5.412-0.164,7.626-0.41
			l2.952,3.526c-0.902,0.983-1.313,1.558-2.788,3.525c-7.298,9.923-15.334,17.959-26.404,26.158h30.095
			c2.623,0,4.182-0.082,5.904-0.327c-0.328,1.968-0.41,3.936-0.41,6.56v19.844c0,2.543,0.164,5.494,0.492,7.299h-5.74v-4.593H838.75
			v4.593h-5.74c0.328-2.132,0.492-5.084,0.492-7.299v-19.844c-5.576,3.526-10.578,6.15-18.285,9.594
			c-0.902-1.968-1.559-3.033-3.281-4.838c12.711-4.838,22.141-10.25,32.309-18.45c-4.018-3.854-6.068-5.412-11.89-9.102
			L836.209,596.047z M838.75,639.753h34.277v-19.434H838.75V639.753z"/>
		<path d="M925.344,583.255c0-3.116-0.164-5.166-0.574-7.626h6.805c-0.41,2.378-0.574,4.428-0.574,7.626v52.727h24.191v-37.475
			c0-3.444-0.164-5.248-0.492-7.626h6.479c-0.328,2.788-0.492,5.002-0.492,7.708v40.836c0,3.28,0.164,5.74,0.574,8.692h-6.068
			v-6.888h-52.398v6.888h-6.068c0.41-3.444,0.574-5.33,0.574-8.282v-40.918c0-3.116-0.164-5.658-0.574-8.036h6.479
			c-0.328,2.296-0.41,4.592-0.41,7.954v37.146h22.551V583.255z"/>
	</g>
	<g clip-path="url(#SVGID_2_)">
		<path d="M1033.393,524.337c-2.705,6.888-5.904,11.234-11.152,15.17c-5.494,4.101-11.561,6.725-21.648,9.349
			c-0.736-1.723-1.393-2.788-3.197-4.838c10.578-2.297,16.564-4.593,21.895-8.446c4.182-3.034,6.561-6.15,8.691-11.234h-18.121
			c-3.773,0-6.314,0.164-8.939,0.492v-5.494c2.297,0.328,5.166,0.492,8.939,0.492h19.68c0.656-2.788,0.902-4.183,0.902-6.396
			c0-0.082,0-0.328-0.082-0.655l6.068,0.327c-0.328,1.23-0.41,1.805-0.902,3.937c-0.246,1.229-0.41,1.64-0.656,2.788h22.141
			c2.951,0,5.002-0.082,8.363-0.328c-0.164,1.312-0.164,1.312-0.492,4.264c-1.066,10.906-2.459,17.631-4.018,20.091
			c-1.723,2.706-3.936,3.361-10.742,3.361c-3.279,0-5.986-0.164-11.152-0.655c-0.246-1.969-0.574-3.198-1.395-5.494
			c5.166,0.901,8.939,1.229,13.039,1.229s5.248-0.41,6.068-2.132c1.066-2.296,1.803-6.56,2.705-15.826H1033.393z M1062.422,503.837
			c0,3.444,0.082,5.166,0.328,7.544c-2.215-0.246-4.674-0.41-7.545-0.41h-41.41c-2.951,0-5.576,0.164-7.873,0.41
			c0.246-2.296,0.41-4.182,0.41-7.544v-17.958c0-3.608-0.082-5.658-0.41-7.872c2.297,0.328,4.594,0.41,7.791,0.41h41.246
			c3.199,0,5.494-0.082,7.791-0.41c-0.246,2.296-0.328,4.182-0.328,7.872V503.837z M1011.416,482.763v9.84h20.01v-9.84H1011.416z
			 M1011.416,496.867v9.84h20.01v-9.84H1011.416z M1057.338,492.603v-9.84h-21.074v9.84H1057.338z M1057.338,506.707v-9.84h-21.074
			v9.84H1057.338z"/>
		<path d="M1086.037,512.938c0-3.689,0-5.985,0.246-10.004c-2.705,4.838-4.592,7.544-8.445,11.973
			c-1.23-2.214-1.477-2.624-3.281-4.675c7.299-7.953,12.301-15.826,15.908-25.01c1.723-4.428,2.461-6.97,3.117-10.742l5.74,1.722
			c-0.738,1.723-1.148,2.706-2.215,5.658c-2.215,6.068-3.279,8.364-5.904,13.776v43.788c0,4.019,0.082,6.807,0.41,9.595h-6.068
			c0.328-2.952,0.492-5.576,0.492-9.841V512.938z M1112.934,532.537c-2.953,0-4.756,0.082-6.643,0.41v-5.412
			c1.805,0.328,3.689,0.41,6.725,0.41h6.807v-17.221c0-3.771,0-6.56,0.164-10.086c-3.445,8.036-5.822,12.382-9.842,17.712
			c-4.182,5.74-8.035,9.841-13.857,14.679c-1.148-1.887-1.723-2.46-3.936-4.347c7.051-5.084,11.316-9.512,17.057-17.384
			c3.936-5.494,5.494-8.118,8.281-14.35h-12.875c-3.033,0-5.574,0.163-8.117,0.491v-5.739c2.133,0.327,4.838,0.491,8.199,0.491
			h14.926v-9.02c0-2.46-0.246-5.658-0.574-8.036h6.15c-0.41,1.886-0.656,5.002-0.656,8.036v9.02h17.465
			c3.527,0,6.068-0.164,8.447-0.491v5.739c-2.379-0.328-5.166-0.491-8.365-0.491h-15.498c4.838,9.102,7.053,12.464,11.563,18.04
			s8.609,9.348,14.842,13.775c-1.557,1.23-2.623,2.542-4.018,4.593c-4.346-3.444-7.791-6.971-11.645-11.563
			c-5.658-6.724-8.938-11.972-13.037-21.32c0.164,4.756,0.246,6.971,0.246,10.25v17.221h7.461c2.953,0,4.756-0.082,6.643-0.41v5.412
			c-1.969-0.328-3.689-0.41-6.643-0.41h-7.461v8.036c0,3.116,0.164,5.494,0.492,8.446h-5.986c0.328-2.788,0.574-5.494,0.574-8.446
			v-8.036H1112.934z"/>
		<path d="M1190.506,483.255c0-3.116-0.164-5.166-0.574-7.626h6.807c-0.41,2.378-0.574,4.428-0.574,7.626v52.727h24.189v-37.475
			c0-3.444-0.164-5.248-0.492-7.626h6.479c-0.328,2.788-0.492,5.002-0.492,7.708v40.836c0,3.28,0.164,5.74,0.574,8.692h-6.068
			v-6.888h-52.398v6.888h-6.068c0.41-3.444,0.574-5.33,0.574-8.282v-40.918c0-3.116-0.164-5.658-0.574-8.036h6.479
			c-0.328,2.296-0.41,4.592-0.41,7.954v37.146h22.551V483.255z"/>
	</g>
	<g clip-path="url(#SVGID_2_)">
		<path d="M1067.336,863.361c-1.805,5.658-2.869,8.364-5.166,12.301c-2.051,3.607-3.443,5.576-6.807,9.43
			c-1.721-1.558-2.705-2.214-4.756-3.28c3.199-3.279,4.592-4.92,6.479-7.954c2.461-3.936,3.607-6.642,5.166-12.382L1067.336,863.361
			z M1060.201,856.638c-3.443,0-6.066,0.164-8.527,0.492v-5.74c2.133,0.328,4.756,0.492,8.527,0.492h23.781v-11.563h-18.369
			c-3.361,0-5.33,0.082-7.625,0.41v-5.658c2.131,0.328,4.018,0.41,7.625,0.41h18.369v-3.034c0-3.689-0.082-5.166-0.492-7.216h6.314
			c-0.41,1.64-0.574,3.854-0.574,7.216v3.034h20.172c3.607,0,5.494-0.082,7.627-0.41v5.658c-2.297-0.328-4.184-0.41-7.627-0.41
			h-20.172v11.563h25.748c3.771,0,6.396-0.164,8.527-0.492v5.74c-2.459-0.328-5.084-0.492-8.527-0.492h-16.236v35.506
			c0,4.593-2.131,6.15-8.363,6.15c-2.461,0-5.248-0.082-8.693-0.41c-0.328-1.968-0.574-3.116-1.311-5.412
			c3.197,0.574,6.148,0.82,8.938,0.82c3.361,0,4.182-0.41,4.182-2.132v-34.522h-11.316c-0.492,10.742-1.639,17.63-3.854,23.042
			c-3.607,8.692-9.02,14.022-19.762,19.845c-1.313-2.051-2.297-3.116-4.1-4.511c10.66-4.756,15.662-9.348,18.941-17.302
			c2.133-5.166,2.869-9.84,3.443-21.074H1060.201z M1111.043,861.229c3.443,10.66,6.15,15.662,12.791,23.37
			c-2.213,1.148-3.279,1.969-5.084,3.444c-6.395-8.938-9.02-14.022-12.709-24.928L1111.043,861.229z"/>
		<path d="M1141.629,834.743c0-3.771-0.164-6.642-0.492-9.02h5.986c-0.328,2.624-0.492,5.166-0.492,9.102v12.137h1.311
			c2.871,0,4.92-0.082,6.725-0.328v5.248c-2.377-0.246-4.674-0.328-6.807-0.328h-1.229v23.042c2.541-1.394,4.018-2.296,7.461-4.674
			l0.41,5.084c-6.314,4.1-9.594,5.904-18.039,10.086c-0.984,0.492-0.984,0.492-3.199,1.641l-1.721-5.494
			c2.049-0.492,5.656-1.887,10.086-4.101v-25.584h-1.969c-2.625,0-4.838,0.164-6.971,0.41v-5.412c2.215,0.328,4.264,0.41,7.135,0.41
			h1.805V834.743z M1186.893,843.354c0.656,9.758,1.969,18.942,3.936,26.979c3.199-5.74,5.904-13.284,6.725-18.45l5.33,1.968
			c-0.984,2.296-1.148,2.87-1.887,4.756c-2.213,5.822-5.494,12.628-8.445,17.303c2.951,8.118,7.135,15.662,8.609,15.662
			c0.984,0,1.887-4.429,2.543-11.973c1.721,1.805,2.623,2.542,4.264,3.362c-1.395,10.578-3.115,14.514-6.396,14.514
			c-3.854,0-8.527-6.067-12.545-16.235c-5.412,7.298-9.76,11.233-17.713,16.235c-1.066-1.722-2.133-2.706-3.854-3.936
			c9.102-5.084,13.857-9.267,19.844-17.466c-2.789-8.61-4.592-19.763-5.33-32.719h-18.861c0,1.148,0,1.886,0,2.542
			c0,1.395-0.08,5.904-0.162,9.103h8.691c2.869,0,5.494-0.082,7.297-0.328c-0.082,0.328-0.082,0.492-0.082,0.655
			c-0.08,1.066-0.08,1.066-0.49,9.267c-0.492,9.676-1.641,15.744-3.199,17.63c-1.23,1.395-3.033,1.969-6.232,1.969
			c-1.557,0-3.936-0.082-5.984-0.246c0-2.051-0.246-3.116-0.902-5.166c2.131,0.409,4.756,0.655,6.395,0.655
			c2.215,0,3.199-0.491,3.609-1.804c0.984-3.198,1.557-8.938,1.803-18.04h-11.068c-0.328,8.856-1.887,18.45-3.938,24.601
			c-1.803,5.248-4.1,9.512-7.543,13.693c-1.477-1.558-2.379-2.214-4.428-3.279c8.445-9.431,11.232-21.074,11.232-46.741
			c0-5.084-0.082-7.708-0.326-9.594c4.264,0.328,5.166,0.41,7.953,0.41h15.99c-0.082-2.378-0.164-4.674-0.164-7.708
			c0-2.46-0.082-3.854-0.328-5.576h5.74c-0.328,1.804-0.41,3.28-0.41,6.068c0,1.229,0,3.361,0.164,7.216h9.512
			c3.607,0,6.561-0.164,8.529-0.492v5.576c-2.461-0.246-5.74-0.41-8.775-0.41H1186.893z M1199.275,837.285
			c-3.117-3.607-5.248-5.494-9.35-8.281l3.117-2.87c3.607,2.378,5.904,4.182,9.594,7.79L1199.275,837.285z"/>
		<path d="M1246.344,833.678c0-3.116-0.164-5.166-0.574-7.626h6.805c-0.41,2.378-0.574,4.428-0.574,7.626v52.727h24.191V848.93
			c0-3.444-0.164-5.248-0.492-7.626h6.479c-0.328,2.788-0.492,5.002-0.492,7.708v40.836c0,3.28,0.164,5.74,0.574,8.692h-6.068
			v-6.888h-52.398v6.888h-6.068c0.41-3.444,0.574-5.33,0.574-8.282V849.34c0-3.116-0.164-5.658-0.574-8.036h6.479
			c-0.328,2.296-0.41,4.592-0.41,7.954v37.146h22.551V833.678z"/>
	</g>
	<g clip-path="url(#SVGID_2_)">
		<path d="M899.152,1411.442c-2.625,0-4.756,0.082-6.232,0.327v-5.084c1.723,0.246,3.525,0.328,6.232,0.328h7.543v-3.197
			c0-3.689-0.082-5.167-0.49-6.971h5.82c-0.41,1.641-0.49,3.198-0.49,6.971v3.197h6.887c2.543,0,4.1-0.082,5.74-0.328v5.084
			c-1.723-0.245-3.443-0.327-5.74-0.327h-6.561c3.691,6.97,7.709,11.972,13.039,16.399c-1.148,1.23-2.215,2.624-3.033,4.265
			c-4.512-4.511-6.561-7.38-10.66-14.843c0.246,4.429,0.328,9.431,0.328,13.448v10.66c0,4.838,0.08,7.134,0.49,9.513h-5.902
			c0.49-2.624,0.654-5.412,0.654-9.595v-9.922c0-4.756,0.082-8.692,0.246-13.366c-2.049,6.068-3.361,8.856-6.23,13.366
			c-2.215,3.608-3.938,5.822-7.053,9.266c-1.066-1.64-2.215-2.951-3.525-3.936c6.23-5.576,12.381-15.252,15.908-25.256H899.152z
			 M903.416,1388.399c-2.705,4.265-5.33,7.544-8.691,10.988c-1.148-1.147-2.543-2.132-4.182-2.952
			c6.805-6.231,11.15-12.874,13.447-20.746l5.166,1.805c-1.477,3.033-1.805,3.771-3.279,6.56h13.201
			c3.854,0,5.986-0.164,8.119-0.492v5.166c-2.297-0.246-4.594-0.328-7.791-0.328h-4.428c1.148,1.969,2.705,5.084,4.1,8.528
			l-4.674,1.722c-1.559-5.002-2.051-6.067-4.264-10.25H903.416z M934.904,1388.235c-2.051,3.608-3.771,6.068-6.479,9.267
			c-1.229-1.148-2.213-1.722-4.182-2.542c5.658-6.068,8.691-11.563,10.742-19.188l5.002,1.559c-1.313,3.197-1.887,4.428-2.869,6.56
			h18.285c3.936,0,6.314-0.164,8.691-0.492v5.248c-2.869-0.328-5.166-0.41-8.691-0.41h-9.676c1.641,2.542,2.461,4.019,4.428,8.282
			l-4.592,1.723c-1.723-4.757-2.297-5.904-4.674-10.005H934.904z M927.279,1407.834c0-3.526-0.082-6.15-0.328-8.118
			c2.459,0.246,5.002,0.328,8.527,0.328h16.975c3.936,0,6.314-0.082,8.609-0.328c-0.246,1.64-0.328,4.346-0.328,8.2v32.637
			c0,4.018,0.164,6.806,0.492,9.758h-5.412v-3.69h-23.615v3.69h-5.412c0.328-2.624,0.492-5.494,0.492-9.103V1407.834z
			 M932.199,1413.738h23.615v-9.267h-23.615V1413.738z M932.199,1427.432h23.615v-9.348h-23.615V1427.432z M932.199,1442.192h23.615
			v-10.414h-23.615V1442.192z"/>
		<path d="M986.318,1384.382c0-4.756-0.082-6.479-0.41-8.528h5.904c-0.328,2.05-0.41,4.265-0.41,8.446v8.446h4.592
			c2.379,0,3.771-0.082,5.33-0.328v5.166c-2.133-0.246-3.771-0.328-5.33-0.328h-4.346c1.887,5.412,5.576,11.398,10.332,16.646
			c-1.313,1.312-2.379,2.542-3.361,4.1c-3.773-5.248-5.33-8.036-7.627-13.858c0.246,4.019,0.41,9.841,0.41,13.448v23.698
			c0,4.429,0.082,7.298,0.492,9.513h-5.986c0.328-2.297,0.492-5.248,0.492-9.513v-21.812c0-3.854,0.082-7.954,0.41-13.202
			c-3.199,10.414-5.986,16.235-11.48,23.452c-1.23-2.051-1.805-2.87-3.361-4.429c6.313-7.216,11.232-17.302,13.693-28.044h-5.33
			c-1.559,0-3.443,0.082-5.658,0.328v-5.166c1.723,0.246,3.197,0.328,5.658,0.328h5.986V1384.382z M1045.113,1419.479
			c-5.658,5.33-9.594,8.363-14.516,11.315c4.758,5.904,9.514,9.677,17.877,14.022c-1.641,1.558-2.215,2.296-3.771,4.674
			c-8.119-5.002-13.039-9.266-17.467-15.252c-4.1-5.576-6.643-11.152-8.938-19.353h-8.529v26.486
			c5.904-1.476,9.104-2.46,14.926-4.428l0.49,4.756c-9.102,3.116-11.889,3.854-23.697,6.724c-2.051,0.574-2.869,0.738-4.264,1.23
			l-1.395-5.658c2.625-0.164,4.592-0.492,8.855-1.394v-53.793c0-3.198-0.164-5.74-0.328-8.528c2.379,0.246,4.594,0.328,8.283,0.328
			h19.926c4.1,0,6.396-0.082,8.201-0.41c-0.246,2.133-0.246,3.772-0.246,8.938v17.63c0,5.084,0,6.725,0.246,8.446
			c-2.133-0.246-4.348-0.328-8.201-0.328h-9.43c1.477,5.658,2.459,7.954,4.838,12.055c5.412-3.198,9.102-6.313,13.283-11.234
			L1045.113,1419.479z M1035.52,1395.288v-10.168h-25.75v10.168H1035.52z M1009.77,1410.458h25.75v-10.66h-25.75V1410.458z"/>
		<path d="M1087.344,1384.792c0-3.116-0.164-5.166-0.574-7.626h6.805c-0.41,2.378-0.574,4.428-0.574,7.626v52.727h24.191v-37.475
			c0-3.444-0.164-5.248-0.492-7.626h6.479c-0.328,2.788-0.492,5.002-0.492,7.709v40.835c0,3.28,0.164,5.74,0.574,8.692h-6.068
			v-6.888h-52.398v6.888h-6.068c0.41-3.444,0.574-5.33,0.574-8.282v-40.918c0-3.116-0.164-5.658-0.574-8.036h6.479
			c-0.328,2.296-0.41,4.592-0.41,7.954v37.146h22.551V1384.792z"/>
	</g>
	<g clip-path="url(#SVGID_2_)">
		<path d="M1161.184,302.318c-4.264,0-6.723,0.082-9.184,0.41v-5.248c2.461,0.328,4.756,0.41,9.184,0.41h55.27
			c4.264,0,6.805-0.082,9.102-0.41v5.248c-2.541-0.328-5.084-0.41-9.102-0.41h-35.998c-2.707,3.363-3.691,4.51-6.314,6.971h35.916
			c3.936,0,5.74-0.082,7.627-0.41c-0.328,2.623-0.41,4.756-0.41,7.463v6.641c0,2.215,0.164,4.51,0.492,7.217h-5.74v-3.771h-38.131
			v3.689h-5.576c0.328-1.969,0.492-3.936,0.492-7.053v-9.102c-5.084,3.936-8.365,5.904-15.252,9.102
			c-1.066-2.131-1.805-3.115-3.117-4.51c6.15-2.049,10.578-4.346,15.416-7.953c3.527-2.625,5.658-4.674,8.611-8.283H1161.184z
			 M1152.082,275.258c0.984,0.082,1.887,0.082,2.707,0.082c0.736,0,0.982,0,4.346-0.164c0.246-2.951,0.328-4.346,0.328-9.02
			c0-3.689-0.082-5.248-0.41-7.461c2.213,0.244,4.1,0.326,6.232,0.326h2.787c1.066-2.049,1.641-3.607,2.215-5.738l5.084,0.9
			c-0.902,1.887-1.723,3.691-2.379,4.838h6.15c2.705,0,4.182-0.082,5.986-0.326c-0.246,1.803-0.328,3.525-0.328,6.066v7.955
			l2.705-0.328v3.854l-2.705,0.41v12.711c0,1.803-0.738,3.279-1.969,4.018c-0.82,0.492-1.967,0.656-4.182,0.656
			c-1.805,0-3.607-0.082-5.494-0.246c-0.164-1.723-0.41-2.625-1.23-4.592c2.133,0.41,4.756,0.738,6.643,0.738
			c1.395,0,1.805-0.41,1.805-1.805v-10.906c-3.445,0.492-4.348,0.574-6.889,0.82v4.428c0,3.525,0,4.428,0.246,5.822h-4.674
			c0.246-1.887,0.328-3.199,0.328-5.822v-3.936c-2.871,0.246-3.527,0.328-6.15,0.574c-1.066,7.297-2.707,11.396-6.643,16.563
			c-1.23-1.311-2.049-1.885-4.018-2.869c3.607-4.51,5.084-7.627,6.068-13.365l-1.805,0.164c-2.377,0.244-2.787,0.244-4.1,0.572
			L1152.082,275.258z M1163.973,267.633c0,2.869-0.082,4.756-0.246,7.297c6.15-0.408,11.316-0.9,16.646-1.557v-10.414h-16.4V267.633
			z M1169.713,264.105c2.705,1.969,4.182,3.281,6.887,6.232l-3.197,2.461c-2.625-3.199-3.689-4.264-6.807-6.561L1169.713,264.105z
			 M1173.895,322.162h38.131v-8.691h-38.131V322.162z M1220.717,276.816c-0.574,0.492-0.82,0.738-1.313,1.313
			c-2.787,3.115-6.479,6.232-10.25,8.691c5.002,2.133,10.086,3.363,17.959,4.346c-0.656,1.066-0.656,1.066-2.297,4.428
			c-9.676-1.885-14.432-3.361-19.844-6.313c-5.248,2.787-9.02,4.1-16.482,5.986c-0.656-1.723-1.148-2.543-2.377-4.102
			c6.313-0.9,10.414-2.049,15.17-4.264c-3.691-2.541-6.068-5.002-8.529-8.609c-1.311,0.082-1.803,0.164-3.033,0.328v-4.51
			c1.885,0.246,2.869,0.328,5.166,0.328h18.531c2.543,0,3.691-0.082,4.92-0.328L1220.717,276.816z M1208.498,255.988
			c2.625,0,3.773-0.082,5.33-0.328c-0.246,1.148-0.328,2.543-0.328,4.264v5.658c0,0.984,0.492,1.23,2.297,1.23
			c3.443,0,4.428-0.164,5.002-0.656c0.656-0.574,0.984-2.213,1.23-6.232c1.311,0.656,2.459,0.984,4.1,1.313
			c-0.902,8.855-1.559,9.512-9.512,9.512c-6.068,0-7.545-0.656-7.545-3.525v-7.135h-9.922c-0.164,6.971-2.215,10.496-7.871,13.613
			c-0.984-1.559-1.723-2.379-3.117-3.445c2.461-1.311,3.443-1.967,4.264-2.951c1.559-1.805,2.379-4.51,2.379-8.119
			c0-1.311-0.082-2.459-0.246-3.525c1.723,0.246,2.951,0.328,5.33,0.328H1208.498z M1197.264,278.293
			c2.625,2.869,4.758,4.592,8.037,6.561c3.443-2.051,5.494-3.609,8.445-6.561H1197.264z"/>
		<path d="M1245.398,263.287c0-4.674-0.082-6.643-0.41-8.447h5.74c-0.328,2.051-0.41,4.182-0.41,8.365v7.707h3.279
			c2.379,0,3.609-0.082,5.248-0.328v5.002c-1.557-0.164-3.197-0.246-5.166-0.246h-3.197c1.969,5.822,4.51,10.086,8.609,14.434
			c-1.23,1.639-2.131,3.197-2.787,4.592c-2.953-4.02-4.346-6.725-6.314-12.465c0.246,6.232,0.328,10.578,0.328,13.531v24.764
			c0,4.592,0.164,7.133,0.492,9.512h-5.904c0.328-2.297,0.492-5.248,0.492-9.512v-23.289c0-3.197,0.164-7.707,0.492-13.283
			c-2.543,10.496-5.74,17.711-10.906,24.682c-0.902-1.969-1.641-3.197-3.035-4.838c6.068-7.299,10.414-16.893,12.711-28.127h-4.592
			c-2.543,0-4.264,0.082-5.74,0.328v-5.084c1.477,0.246,3.115,0.328,5.74,0.328h5.33V263.287z M1264.094,301.416
			c-1.885,0-3.115,0-5.986,0.164c2.133-7.379,3.363-13.529,3.773-19.68c2.049,0.246,3.279,0.328,7.707,0.328h9.266l-0.08-9.922
			h-10.988c-3.117,0-5.576,0.082-7.545,0.328v-5.248c1.969,0.328,4.428,0.492,7.709,0.492h17.055
			c3.445-5.166,4.838-7.955,6.725-13.203l4.838,1.969c-2.541,5.166-3.854,7.543-6.232,11.234h7.381c2.787,0,4.592-0.082,6.068-0.328
			c-0.246,1.723-0.328,3.607-0.328,6.314v6.805c0,2.707,0.082,4.428,0.246,6.232c-2.133-0.082-4.264-0.164-6.396-0.164h-13.529
			l0.164,10.25h16.316c2.543,0,4.43-0.082,6.232-0.246c-0.246,1.969-0.246,1.969-0.574,6.479
			c-0.574,7.709-1.885,13.857-3.443,15.826c-1.313,1.805-3.115,2.379-6.807,2.379c-1.393,0-4.264-0.246-6.395-0.492
			c-0.246-2.215-0.41-3.117-1.148-5.084c3.115,0.574,5.084,0.818,7.461,0.818c2.297,0,3.035-0.572,3.773-2.787
			c0.654-2.133,1.393-7.053,1.803-12.465h-17.219l0.326,20.01c0.082,3.033,0.246,5.738,0.656,8.281h-5.904
			c0.328-2.543,0.492-4.346,0.492-7.299c0-0.164,0-0.574,0-0.982l-0.328-17.057c-5.576,8.445-13.119,15.252-23.123,20.91
			c-1.066-1.723-1.723-2.461-3.445-4.182c10.252-5.084,18.451-11.973,23.453-19.682H1264.094z M1266.391,286.738
			c-0.738,4.1-1.395,7.217-2.215,10.25h14.924l-0.164-10.25H1266.391z M1270.408,254.84c3.035,4.182,4.182,6.068,6.232,10.414
			l-4.264,2.297c-1.969-4.346-3.035-6.232-6.15-10.496L1270.408,254.84z M1298.535,282.229v-9.922h-15.006l0.164,9.922H1298.535z"/>
		<path d="M1347.734,263.451c0-3.117-0.164-5.166-0.574-7.627h6.807c-0.41,2.379-0.574,4.428-0.574,7.627v52.727h24.191v-37.475
			c0-3.445-0.164-5.248-0.492-7.627h6.477c-0.328,2.789-0.49,5.002-0.49,7.709v40.836c0,3.279,0.162,5.74,0.572,8.691h-6.066v-6.887
			h-52.398v6.887h-6.068c0.41-3.443,0.574-5.33,0.574-8.281v-40.918c0-3.117-0.164-5.658-0.574-8.037h6.477
			c-0.326,2.297-0.408,4.592-0.408,7.955v37.146h22.549V263.451z"/>
	</g>
	<g clip-path="url(#SVGID_2_)">
		<line x1="838.27" y1="658.791" x2="841.607" y2="834.914"/>
		<g>
			
				<line fill="none" stroke="#000000" stroke-width="5" stroke-miterlimit="10" x1="838.27" y1="658.791" x2="841.493" y2="828.903"/>
			<g>
				<path d="M816.851,795.19c1.147-0.765,2.702-0.446,3.466,0.706l21.154,31.865l19.933-32.645c0.72-1.18,2.261-1.557,3.437-0.836
					c1.176,0.72,1.543,2.271,0.832,3.441l-21.979,35.994c-0.445,0.727-1.232,1.182-2.086,1.197
					c-0.855,0.016-1.658-0.408-2.131-1.117l-23.326-35.136c-0.271-0.415-0.408-0.876-0.416-1.335
					C815.719,796.501,816.113,795.684,816.851,795.19z"/>
			</g>
		</g>
	</g>
	<g clip-path="url(#SVGID_2_)">
		<line x1="1055.77" y1="558.791" x2="1131.77" y2="694.318"/>
		<g>
			
				<line fill="none" stroke="#000000" stroke-width="5" stroke-miterlimit="10" x1="1055.77" y1="558.791" x2="1128.828" y2="689.074"/>
			<g>
				<path d="M1091.182,671.006c0.65-1.216,2.17-1.67,3.389-1.016l33.699,18.089l2.143-38.188c0.076-1.381,1.258-2.439,2.635-2.361
					c1.375,0.079,2.432,1.273,2.359,2.641l-2.363,42.107c-0.049,0.851-0.529,1.623-1.273,2.041
					c-0.746,0.418-1.654,0.424-2.406,0.022l-37.16-19.944c-0.436-0.237-0.773-0.58-0.998-0.98
					C1090.803,672.696,1090.764,671.789,1091.182,671.006z"/>
			</g>
		</g>
	</g>
</g>
</svg>
