<?xml version="1.0" encoding="utf-8"?>
<!-- Generator: Adobe Illustrator 16.0.0, SVG Export Plug-In . SVG Version: 6.00 Build 0)  -->
<!DOCTYPE svg PUBLIC "-//W3C//DTD SVG 1.1//EN" "http://www.w3.org/Graphics/SVG/1.1/DTD/svg11.dtd">
<svg version="1.1" id="レイヤー_1" xmlns="http://www.w3.org/2000/svg" xmlns:xlink="http://www.w3.org/1999/xlink" x="0px"
	 y="0px" width="133.971px" height="56.372px" viewBox="0 0 133.971 56.372" enable-background="new 0 0 133.971 56.372"
	 xml:space="preserve">
<g>
	<path d="M62.745,36.721c0.441,0.748,0.847,1.216,1.566,1.828c0.738,0.63,1.351,0.999,2.359,1.432
		c-0.127,0.144-0.271,0.359-0.36,0.531c-0.648-0.324-0.928-0.486-1.378-0.793c-0.009,0.1-0.009,0.198-0.009,0.478v1.936
		c0,0.396,0.019,0.657,0.054,0.919h-0.63v-0.505h-3.763v0.505h-0.631c0.036-0.253,0.055-0.541,0.055-0.919v-1.909
		c0-0.225,0-0.278,0-0.459c-0.379,0.271-0.631,0.424-1.333,0.793c-0.117-0.217-0.188-0.324-0.351-0.496
		c0.954-0.432,1.53-0.791,2.215-1.386c0.729-0.63,1.125-1.116,1.575-1.954H62.745z M61.692,35.326
		c-0.495,0.729-0.864,1.134-1.459,1.602c-0.378,0.307-0.441,0.343-1.17,0.783c-0.181-0.252-0.243-0.324-0.424-0.477
		c0.667-0.352,1.063-0.612,1.45-0.937c0.485-0.405,0.747-0.72,1.089-1.313L61.692,35.326z M64.23,39.467c0.117,0,0.145,0,0.343,0
		c-0.433-0.324-0.783-0.639-1.144-1.008c-0.388-0.396-0.585-0.648-0.973-1.261c-0.612,0.981-1.044,1.458-2.053,2.269
		c0.162,0,0.189,0,0.288,0H64.23z M60.585,42.033h3.763V39.98h-3.763V42.033z M63.718,34.966c0.513,0.692,0.873,1.062,1.494,1.521
		c0.324,0.233,0.585,0.396,1.135,0.685c-0.117,0.117-0.262,0.324-0.379,0.521c-1.161-0.675-1.8-1.251-2.719-2.403L63.718,34.966z"/>
	<path d="M67.838,36.316c0-0.379-0.009-0.631-0.036-0.865c0.189,0.019,0.189,0.019,0.828,0.027h0.667
		c0.459,0,0.612-0.009,0.81-0.027c-0.026,0.217-0.026,0.361-0.026,0.883v4.934c0,0.432,0.009,0.666,0.026,0.864h-0.558v-0.45h-1.18
		v0.738h-0.585c0.036-0.27,0.054-0.576,0.054-0.954V36.316z M68.369,38.216h1.18v-2.233h-1.18V38.216z M68.369,41.178h1.18v-2.477
		h-1.18V41.178z M71.511,36.532c-0.314,0-0.639,0.019-0.864,0.045v-0.595c0.226,0.037,0.478,0.055,0.855,0.055h0.954v-0.288
		c0-0.279-0.018-0.486-0.054-0.729h0.666c-0.036,0.234-0.054,0.432-0.054,0.729v0.288h1.278c0.369,0,0.621-0.018,0.855-0.055v0.595
		c-0.234-0.026-0.514-0.045-0.855-0.045h-1.278v1.171h1.594c0.396,0,0.684-0.019,0.909-0.055v0.604
		c-0.243-0.036-0.504-0.055-0.873-0.055h-0.298v1.054h0.279c0.396,0,0.657-0.019,0.883-0.054v0.621
		c-0.262-0.036-0.505-0.055-0.883-0.055h-0.279v2.521c0,0.576-0.197,0.711-1.035,0.711c-0.144,0-0.288-0.009-0.81-0.036
		c-0.019-0.233-0.055-0.396-0.145-0.595c0.352,0.063,0.756,0.109,1.026,0.109c0.342,0,0.405-0.037,0.405-0.234v-2.477H71.25
		c-0.333,0-0.639,0.019-0.9,0.055v-0.621c0.226,0.035,0.495,0.054,0.909,0.054h2.53v-1.054h-2.53c-0.369,0-0.639,0.019-0.909,0.055
		v-0.604c0.226,0.036,0.522,0.055,0.909,0.055h1.197v-1.171H71.511z M72.204,41.943c-0.468-0.685-0.72-1-1.251-1.514l0.441-0.314
		c0.54,0.514,0.837,0.846,1.296,1.467L72.204,41.943z"/>
	<path d="M80.097,35.848c0-0.441-0.018-0.656-0.063-0.936h0.72c-0.045,0.279-0.063,0.531-0.063,0.918v0.792h2.638
		c0.306,0,0.478-0.009,0.685-0.036c-0.036,0.234-0.046,0.424-0.046,0.711v2.458c0,0.298,0.019,0.531,0.055,0.802h-0.648v-0.612
		h-2.683v2.098c0,0.513,0.009,0.738,0.063,1.026h-0.72c0.045-0.307,0.063-0.541,0.063-1.026v-2.098h-2.538v0.612H76.91
		c0.036-0.262,0.054-0.514,0.054-0.802v-2.458c0-0.278-0.018-0.477-0.045-0.711c0.216,0.027,0.388,0.036,0.676,0.036h2.502V35.848z
		 M77.559,37.162v2.242h2.538v-2.242H77.559z M83.374,39.404v-2.242h-2.683v2.242H83.374z"/>
</g>
<g>
	<path d="M99.805,25.285c-0.378,0-0.64,0.009-0.828,0.036c0.026-0.207,0.036-0.495,0.036-0.855V22.44
		c0-0.369-0.01-0.603-0.036-0.828c0.27,0.027,0.531,0.036,0.837,0.036h2.017c0.396,0,0.604-0.009,0.811-0.036
		c-0.019,0.198-0.027,0.45-0.027,0.828v2.044c0,0.423,0.009,0.648,0.027,0.837c-0.181-0.027-0.433-0.036-0.802-0.036h-0.792v1.008
		h0.909c0.36,0,0.54-0.009,0.783-0.045v0.585c-0.243-0.036-0.423-0.045-0.783-0.045h-0.909v1.188
		c0.567-0.099,0.918-0.171,1.756-0.369l0.009,0.495c-1.332,0.315-2.125,0.468-3.331,0.657c-0.333,0.054-0.45,0.081-0.693,0.144
		l-0.144-0.639c0.459,0,0.873-0.045,1.891-0.207v-1.269h-0.9c-0.343,0-0.55,0.009-0.783,0.045v-0.585
		c0.216,0.036,0.44,0.045,0.783,0.045h0.9v-1.008H99.805z M99.508,22.134v1.071h1.026v-1.071H99.508z M99.508,23.673v1.144h1.026
		v-1.144H99.508z M101.047,23.205h1.071v-1.071h-1.071V23.205z M101.047,24.817h1.071v-1.144h-1.071V24.817z M106.493,21.981
		c-0.081,0.081-0.081,0.081-0.432,0.513c-0.315,0.396-0.612,0.702-1.09,1.125c0.181,0.162,0.262,0.234,0.505,0.45l-0.333,0.342
		h0.756c0.342,0,0.522-0.009,0.675-0.036l0.298,0.369c-0.576,0.963-0.748,1.207-1.27,1.783c-0.153-0.144-0.252-0.207-0.45-0.315
		c0.477-0.45,0.675-0.693,1.035-1.288h-1.278v3.628c0,0.522-0.216,0.666-0.964,0.666c-0.233,0-0.459-0.009-0.837-0.045
		c-0.027-0.261-0.054-0.387-0.135-0.603c0.486,0.081,0.774,0.117,1.026,0.117c0.288,0,0.351-0.036,0.351-0.207v-3.556h-0.747
		c-0.342,0-0.549,0.009-0.774,0.045v-0.603c0.226,0.036,0.405,0.045,0.774,0.045h1.44c-0.522-0.558-0.973-0.927-1.756-1.422
		l0.352-0.378c0.459,0.306,0.64,0.441,0.954,0.693c0.441-0.369,0.766-0.72,1.107-1.152h-1.908c-0.324,0-0.55,0.009-0.774,0.045
		v-0.594c0.225,0.036,0.432,0.045,0.801,0.045h1.675c0.342,0,0.522-0.009,0.675-0.036L106.493,21.981z"/>
	<path d="M111.298,22.098c0-0.441-0.018-0.657-0.063-0.937h0.72c-0.045,0.279-0.063,0.531-0.063,0.918v0.792h2.638
		c0.306,0,0.478-0.009,0.685-0.036c-0.036,0.234-0.046,0.423-0.046,0.711v2.458c0,0.297,0.019,0.531,0.055,0.801h-0.648v-0.612
		h-2.683v2.098c0,0.513,0.009,0.738,0.063,1.026h-0.72c0.045-0.307,0.063-0.541,0.063-1.026v-2.098h-2.538v0.612h-0.648
		c0.036-0.261,0.054-0.513,0.054-0.801v-2.458c0-0.279-0.018-0.477-0.045-0.711c0.216,0.027,0.388,0.036,0.676,0.036h2.502V22.098z
		 M108.76,23.412v2.242h2.538v-2.242H108.76z M114.575,25.654v-2.242h-2.683v2.242H114.575z"/>
	<path d="M117.624,22.692c-0.404,0-0.63,0.009-0.918,0.045v-0.585c0.252,0.036,0.522,0.054,0.918,0.054h1.657
		c-0.207-0.333-0.369-0.54-0.685-0.874l0.522-0.207c0.351,0.396,0.531,0.657,0.774,1.081h1.467c0.378-0.432,0.54-0.675,0.757-1.116
		l0.566,0.207c-0.297,0.432-0.468,0.657-0.702,0.909h1.783c0.414,0,0.692-0.018,0.927-0.054v0.594
		c-0.234-0.036-0.531-0.054-0.927-0.054h-2.071v0.792h1.485c0.243,0,0.424-0.009,0.621-0.027c-0.018,0.18-0.026,0.315-0.026,0.558
		v0.729h0.135c0.396,0,0.648-0.018,0.873-0.054v0.576c-0.252-0.036-0.495-0.054-0.873-0.054h-0.135v0.819
		c0,0.252,0,0.333,0.026,0.558c-0.216-0.018-0.387-0.027-0.603-0.027h-1.206c0.792,0.963,1.566,1.512,2.845,1.98
		c-0.145,0.162-0.226,0.288-0.352,0.531c-1.306-0.612-1.917-1.089-2.827-2.206c0.027,0.405,0.036,0.774,0.036,0.981v0.567
		c0,0.504,0.01,0.711,0.055,0.928h-0.631c0.045-0.244,0.055-0.478,0.055-0.928v-1.854h-1.207v1.854c0,0.513,0.01,0.702,0.055,0.918
		h-0.631c0.036-0.225,0.055-0.477,0.055-0.918V27.86c0-0.198,0.009-0.558,0.036-0.955c-0.819,1-1.432,1.495-2.684,2.143
		c-0.117-0.234-0.18-0.342-0.342-0.513c1.161-0.486,1.927-1.053,2.683-1.971h-0.945c-0.333,0-0.531,0.009-0.783,0.045v-0.54
		c0.198,0.027,0.433,0.036,0.774,0.036h1.261v-0.891h-1.936c-0.352,0-0.604,0.018-0.874,0.054v-0.576
		c0.243,0.036,0.478,0.054,0.874,0.054h1.936v-0.792h-1.207c-0.342,0-0.63,0.009-0.828,0.036v-0.549
		c0.198,0.036,0.423,0.045,0.828,0.045h1.207v-0.792H117.624z M119.965,23.484h1.207v-0.792h-1.207V23.484z M121.172,23.953h-1.207
		v0.792h1.207V23.953z M119.965,26.104h1.207v-0.891h-1.207V26.104z M123.242,24.745v-0.792h-1.549v0.792H123.242z M121.693,26.104
		h1.549v-0.891h-1.549V26.104z"/>
	<path d="M129.271,22.116c0-0.342-0.019-0.567-0.063-0.837h0.747c-0.045,0.261-0.063,0.486-0.063,0.837v5.789h2.655v-4.114
		c0-0.378-0.018-0.576-0.054-0.837h0.711c-0.036,0.306-0.054,0.549-0.054,0.846v4.483c0,0.36,0.018,0.63,0.063,0.955h-0.667v-0.756
		h-5.752v0.756h-0.667c0.046-0.378,0.063-0.585,0.063-0.91v-4.492c0-0.342-0.018-0.621-0.063-0.882h0.712
		c-0.036,0.252-0.045,0.504-0.045,0.874v4.078h2.476V22.116z"/>
</g>
<g>
	<path d="M102.271,49.116c0-0.343-0.019-0.567-0.063-0.837h0.747c-0.045,0.261-0.063,0.485-0.063,0.837v5.788h2.655v-4.113
		c0-0.379-0.018-0.576-0.054-0.838h0.711c-0.036,0.307-0.054,0.549-0.054,0.846v4.484c0,0.359,0.018,0.63,0.063,0.954h-0.667V55.48
		h-5.752v0.757h-0.667c0.045-0.378,0.063-0.585,0.063-0.909v-4.492c0-0.343-0.019-0.621-0.063-0.883h0.712
		c-0.036,0.252-0.045,0.504-0.045,0.873v4.078h2.476V49.116z"/>
	<path d="M109.048,49.242c0-0.36-0.019-0.657-0.055-0.945h0.64c-0.036,0.297-0.054,0.576-0.054,0.936v5.23h0.594v-3.934
		c0-0.342-0.018-0.63-0.045-0.891h0.594c-0.035,0.233-0.045,0.513-0.045,0.891v1.071h4.268c0.441,0,0.666-0.019,0.882-0.054v0.611
		c-0.233-0.035-0.423-0.053-0.72-0.053v3.592c0,0.549-0.171,0.656-1.009,0.656c-0.162,0-0.459-0.008-0.72-0.018
		c-0.027-0.225-0.063-0.378-0.145-0.576c0.352,0.055,0.657,0.072,0.964,0.072c0.297,0,0.351-0.036,0.351-0.225v-3.502h-3.871v2.305
		c0,0.387,0.019,0.783,0.036,0.972h-0.54v-0.414h-1.729v0.892h-0.567c0.036-0.244,0.055-0.595,0.055-0.955v-4.357
		c0-0.342-0.01-0.603-0.045-0.908h0.603c-0.036,0.252-0.045,0.539-0.045,0.9v3.924h0.604V49.242z M113.54,49.602
		c0.234,0.369,0.36,0.505,0.657,0.721c0.414,0.307,0.747,0.45,1.341,0.586c-0.116,0.144-0.18,0.252-0.288,0.513
		c-0.738-0.253-1.098-0.45-1.53-0.847c-0.261-0.225-0.396-0.396-0.567-0.711c-0.188,0.405-0.432,0.711-0.773,0.981
		c-0.307,0.243-0.586,0.387-1.126,0.576c-0.09-0.181-0.152-0.279-0.342-0.478c1.071-0.307,1.513-0.639,1.801-1.342h-0.828
		c-0.36,0-0.567,0.01-0.811,0.045V49.07c0.234,0.037,0.478,0.055,0.819,0.055h0.937c0.026-0.225,0.035-0.342,0.035-0.531
		c0-0.171-0.009-0.279-0.026-0.378h0.621c-0.009,0.071-0.019,0.09-0.045,0.44c-0.019,0.189-0.027,0.279-0.055,0.469h1.18
		c0.36,0,0.693-0.018,0.918-0.055v0.576c-0.297-0.026-0.594-0.045-0.909-0.045H113.54z M113.711,54.238
		c0,0.342,0.009,0.549,0.027,0.729c-0.189-0.019-0.414-0.026-0.702-0.026h-1.116v0.539h-0.541c0.027-0.171,0.036-0.449,0.036-0.747
		v-1.269c0-0.307-0.009-0.46-0.026-0.721c0.18,0.018,0.378,0.027,0.72,0.027h0.909c0.342,0,0.54-0.01,0.721-0.027
		c-0.019,0.189-0.027,0.396-0.027,0.729V54.238z M111.92,54.49h1.287v-1.27h-1.287V54.49z"/>
	<path d="M117.598,55.328c0,0.521,0.009,0.773,0.054,1.008h-0.666c0.036-0.242,0.054-0.521,0.054-1.008v-5.915
		c0-0.441-0.009-0.72-0.036-0.999c0.262,0.027,0.514,0.035,0.945,0.035h1.342c0.423,0,0.666-0.008,0.918-0.035
		c-0.018,0.261-0.026,0.504-0.026,0.855v0.81c0,0.369,0.009,0.585,0.026,0.819c-0.198-0.018-0.54-0.027-0.909-0.027h-1.701V55.328z
		 M117.598,49.449h2.062v-0.594h-2.062V49.449z M117.598,50.476h2.062v-0.63h-2.062V50.476z M119.578,52.6
		c-0.072-0.252-0.162-0.449-0.324-0.72c-0.405,0-0.576,0.009-0.819,0.036v-0.478c0.226,0.036,0.433,0.046,0.837,0.046h1.107v-0.109
		c0-0.225-0.018-0.404-0.045-0.576h0.586c-0.036,0.172-0.046,0.334-0.046,0.576v0.109h1.261c0.405,0,0.612-0.01,0.837-0.046v0.478
		c-0.233-0.027-0.44-0.036-0.783-0.036h-0.071c-0.145,0.324-0.217,0.468-0.352,0.72h0.648c0.405,0,0.639-0.009,0.864-0.054v0.513
		c-0.234-0.035-0.459-0.045-0.873-0.045h-3.448c-0.414,0-0.64,0.01-0.873,0.045v-0.513c0.225,0.045,0.459,0.054,0.864,0.054H119.578
		z M122.414,55.031c0,0.324,0.009,0.539,0.026,0.729c-0.242-0.018-0.54-0.027-0.891-0.027h-2.179v0.343h-0.522
		c0.027-0.171,0.036-0.396,0.036-0.685V54.14c0-0.234-0.009-0.478-0.027-0.693c0.243,0.019,0.495,0.026,0.892,0.026h1.801
		c0.396,0,0.648-0.008,0.891-0.026c-0.018,0.216-0.026,0.423-0.026,0.693V55.031z M119.371,54.4h2.557v-0.521h-2.557V54.4z
		 M119.371,55.337h2.557v-0.54h-2.557V55.337z M119.758,51.88c0.153,0.315,0.207,0.44,0.297,0.72h1.233
		c0.145-0.279,0.208-0.432,0.315-0.72H119.758z M124.341,55.48c0,0.36-0.072,0.55-0.253,0.648c-0.126,0.072-0.297,0.1-0.711,0.1
		c-0.162,0-0.351-0.01-0.594-0.027c-0.036-0.27-0.063-0.352-0.153-0.559c0.324,0.045,0.612,0.072,0.819,0.072
		c0.271,0,0.333-0.054,0.333-0.261v-4.573h-1.863c-0.396,0-0.657,0.009-0.909,0.027c0.018-0.262,0.026-0.505,0.026-0.829v-0.81
		c0-0.324-0.009-0.576-0.026-0.855c0.252,0.027,0.495,0.035,0.918,0.035h1.504c0.44,0,0.684-0.008,0.954-0.035
		c-0.036,0.324-0.045,0.585-0.045,0.999V55.48z M121.559,49.449h2.224v-0.594h-2.224V49.449z M121.559,50.476h2.224v-0.63h-2.224
		V50.476z"/>
	<path d="M126.679,49.377c-0.352,0-0.612,0.01-0.892,0.045v-0.594c0.271,0.035,0.522,0.054,0.928,0.054h2.602
		c0-0.405-0.009-0.54-0.054-0.747h0.692c-0.035,0.216-0.045,0.324-0.054,0.747h2.827c0.405,0,0.657-0.019,0.927-0.054v0.594
		c-0.288-0.035-0.54-0.045-0.9-0.045h-0.882c-0.522,0.567-0.892,0.864-1.558,1.242c0.595,0.226,1.063,0.36,1.818,0.504
		c0.793,0.153,1.27,0.226,1.837,0.271c-0.145,0.216-0.189,0.298-0.279,0.55c-0.747-0.117-0.801-0.127-1.197-0.199v3.593
		c0,0.36,0.018,0.64,0.063,0.937h-0.693c0.045-0.279,0.063-0.559,0.063-0.892v-3.754c-0.846-0.181-1.467-0.378-2.215-0.702
		c-0.675,0.306-1.323,0.513-2.25,0.702c-0.027,1.359-0.081,1.972-0.234,2.638c-0.108,0.459-0.279,0.9-0.504,1.27
		c-0.189,0.306-0.342,0.495-0.702,0.837c-0.171-0.207-0.297-0.315-0.486-0.423c0.693-0.567,1.008-1.107,1.197-2.008
		c0.117-0.576,0.145-1.035,0.162-2.205c-0.414,0.071-0.657,0.116-1.197,0.188c-0.09-0.252-0.135-0.351-0.252-0.55
		c1.432-0.107,2.7-0.359,3.682-0.738c-0.612-0.332-1.071-0.701-1.575-1.26H126.679z M128.749,53.959
		c-0.144,0.469-0.243,0.685-0.441,1.054c-0.188,0.333-0.297,0.478-0.585,0.783c-0.144-0.117-0.252-0.188-0.468-0.278
		c0.297-0.262,0.405-0.388,0.576-0.676c0.216-0.342,0.306-0.567,0.45-1.035L128.749,53.959z M128.254,53.482
		c-0.279,0-0.45,0.009-0.648,0.035v-0.549c0.181,0.036,0.343,0.045,0.648,0.045h2.836c0.297,0,0.441-0.009,0.639-0.035v0.539
		c-0.188-0.026-0.359-0.035-0.639-0.035h-1.216v2.08c0,0.459-0.152,0.603-0.666,0.603c-0.188,0-0.432-0.009-0.702-0.026
		c-0.027-0.262-0.054-0.352-0.135-0.541c0.297,0.045,0.558,0.072,0.72,0.072c0.226,0,0.262-0.027,0.262-0.198v-1.989H128.254z
		 M127.885,51.861c0.189,0.037,0.342,0.045,0.648,0.045h2.26c0.314,0,0.45-0.008,0.639-0.035v0.521
		c-0.188-0.027-0.359-0.035-0.639-0.035h-2.26c-0.297,0-0.433,0.008-0.648,0.035V51.861z M128.227,49.377
		c0.405,0.396,0.802,0.657,1.513,0.99c0.657-0.324,0.99-0.559,1.459-0.99H128.227z M130.703,53.815
		c0.351,0.567,0.53,0.927,0.854,1.8l-0.485,0.226c-0.243-0.828-0.405-1.216-0.793-1.872L130.703,53.815z"/>
</g>
<g>
	<path fill="#76BBFF" d="M0,10.999c0,1.565,1.27,2.834,2.835,2.834h65.854c1.565,0,2.835-1.269,2.835-2.834V2.834
		c0-1.565-1.27-2.834-2.835-2.834H2.835C1.27,0,0,1.269,0,2.834V10.999z"/>
</g>
<g>
	<path d="M3.952,4.463c-0.3,0.549-0.54,0.909-0.939,1.389c-0.16-0.17-0.28-0.26-0.54-0.38c0.83-0.899,1.459-2.109,1.6-3.039
		l0.709,0.2c-0.069,0.15-0.14,0.31-0.22,0.5c-0.09,0.22-0.199,0.48-0.31,0.729h1.889V3.043c0-0.33-0.02-0.57-0.06-0.81h0.77
		c-0.05,0.24-0.06,0.41-0.06,0.81v0.819h2.198c0.53,0,0.83-0.02,1.119-0.07v0.729c-0.31-0.04-0.659-0.06-1.119-0.06H6.791v1.799
		h2.948c0.52,0,0.829-0.02,1.129-0.07v0.729c-0.319-0.04-0.64-0.06-1.129-0.06H7.051C7.59,7.621,8.04,8.101,8.739,8.67
		c0.71,0.58,1.359,0.979,2.309,1.399c-0.21,0.229-0.279,0.339-0.419,0.6c-0.71-0.36-1.34-0.75-1.919-1.209
		C8.24,9.09,7.79,8.66,7.44,8.25c-0.24-0.27-0.39-0.5-0.689-1.009c0.04,0.68,0.04,0.779,0.04,1.089v1.999
		c0,0.439,0.02,0.709,0.069,0.989H6.071c0.05-0.3,0.069-0.55,0.069-0.979V8.331c0-0.31,0-0.48,0.04-1.08
		C5.701,8.091,5.281,8.59,4.481,9.28c-0.659,0.56-1.199,0.93-2.068,1.399c-0.15-0.28-0.22-0.37-0.439-0.59
		C3.083,9.56,4.002,8.92,4.852,8.091c0.359-0.36,0.6-0.64,1.02-1.229H3.322c-0.399,0-0.729,0.02-1.1,0.06V6.192
		c0.351,0.05,0.63,0.07,1.09,0.07h2.828V4.463H3.952z"/>
	<path d="M16.281,5.622c0-0.26-0.011-0.45-0.03-0.66h0.46c0.929-0.5,1.469-0.899,2.278-1.639h-4.837c-0.4,0-0.75,0.02-1.01,0.06
		v-0.72c0.3,0.04,0.6,0.06,1.02,0.06h4.737c0.41,0,0.6-0.01,0.779-0.04l0.41,0.46c-0.21,0.18-0.22,0.19-0.36,0.32
		C18.6,4.482,18.24,4.743,16.95,5.472v0.81h2.809c0.569,0,0.87-0.02,1.209-0.06v0.74c-0.359-0.04-0.669-0.06-1.209-0.06H16.95v3.338
		c0,0.67-0.239,0.84-1.149,0.84c-0.319,0-0.629-0.02-1.269-0.07c-0.04-0.31-0.07-0.44-0.17-0.7c0.609,0.09,1.029,0.13,1.438,0.13
		c0.39,0,0.48-0.05,0.48-0.29V6.901h-2.979c-0.5,0-0.85,0.02-1.229,0.06v-0.74c0.37,0.04,0.689,0.06,1.249,0.06h2.959V5.622z"/>
	<path d="M26.87,10.459c0,0.62-0.189,0.739-1.119,0.739c-0.279,0-0.8-0.02-1.149-0.06c-0.069-0.29-0.109-0.42-0.21-0.64
		c0.51,0.07,0.979,0.11,1.31,0.11c0.46,0,0.529-0.03,0.529-0.24V8.36h-2.998c-0.439,0-0.75,0.02-1.05,0.06V7.731
		c0.29,0.04,0.61,0.06,1.04,0.06h3.008v-0.17c0-0.2-0.01-0.38-0.029-0.59h0.42c0.689-0.33,1.259-0.689,1.788-1.129h-3.657
		c-0.34,0-0.68,0.02-0.95,0.05V5.302c0.28,0.03,0.601,0.05,0.97,0.05h3.608c0.369,0,0.569-0.01,0.739-0.04l0.38,0.4
		c-0.13,0.1-0.13,0.1-0.35,0.29c-0.67,0.56-1.289,0.969-2.279,1.479v0.31h2.969c0.45,0,0.77-0.02,1.05-0.06V8.42
		c-0.28-0.04-0.62-0.06-1.06-0.06H26.87V10.459z M24.172,3.853c-0.29-0.51-0.47-0.76-0.939-1.299l0.6-0.19
		c0.46,0.57,0.67,0.87,1.02,1.479h1.459c-0.189-0.529-0.38-0.919-0.729-1.439l0.62-0.17c0.38,0.66,0.539,1,0.76,1.609h1.099
		c0.47-0.54,0.74-0.969,1.029-1.609l0.63,0.27c-0.42,0.669-0.63,0.959-0.959,1.339h0.779c0.58,0,0.8-0.01,1.149-0.04
		c-0.03,0.26-0.04,0.459-0.04,0.829v0.74c0,0.23,0.02,0.47,0.05,0.7h-0.659V4.393h-7.057v1.679h-0.659
		c0.029-0.23,0.05-0.45,0.05-0.7v-0.74c0-0.37-0.01-0.569-0.04-0.829c0.37,0.04,0.59,0.05,1.14,0.05H24.172z"/>
	<path d="M33.882,8.041c-0.279,0.91-0.52,1.54-0.819,2.139c-0.02,0.06-0.189,0.379-0.5,0.969l-0.569-0.52
		c0.41-0.38,0.949-1.539,1.379-2.979L33.882,8.041z M32.383,4.902c0.67,0.41,1.05,0.69,1.659,1.219l-0.38,0.53
		c-0.67-0.64-0.97-0.87-1.639-1.279L32.383,4.902z M32.813,2.444c0.64,0.439,1.05,0.79,1.55,1.319l-0.41,0.49
		c-0.58-0.65-0.899-0.93-1.549-1.359L32.813,2.444z M40.688,4.482c-0.08,0.03-0.11,0.03-0.22,0.08c-0.54,0.21-0.93,0.33-1.55,0.48
		c0.08,0.959,0.12,1.239,0.271,1.929c0.51-0.26,0.969-0.589,1.439-1.02l0.399,0.47c-0.71,0.53-1.13,0.8-1.699,1.109
		c0.43,1.469,0.909,2.319,1.789,3.179c-0.229,0.209-0.29,0.3-0.47,0.58c-0.81-0.91-1.26-1.709-1.669-2.929
		c-0.22-0.689-0.42-1.539-0.53-2.289c-0.01-0.14-0.01-0.14-0.1-0.91c-0.41,0.08-0.58,0.11-0.959,0.16v4.867
		c0,0.45,0.02,0.77,0.06,1.06H36.7c0.04-0.32,0.061-0.64,0.061-1.069V5.392c-0.34,0.04-0.34,0.04-1.17,0.1
		c-0.06,2.809-0.419,4.467-1.249,5.777c-0.17-0.2-0.279-0.3-0.54-0.45c0.41-0.56,0.65-1.149,0.85-2.089
		c0.23-1.109,0.33-2.319,0.33-4.138c0-0.55-0.01-0.959-0.04-1.319c0.11,0.01,0.17,0.01,0.23,0.01c0.719,0,2.259-0.23,3.237-0.49
		c0.64-0.16,1.12-0.34,1.46-0.55l0.539,0.53c-0.26,0.1-0.26,0.1-0.369,0.14c-1.31,0.49-2.608,0.76-4.448,0.919v1.12
		c1.63-0.1,2.549-0.24,3.568-0.54c0.51-0.15,0.83-0.28,1.06-0.439L40.688,4.482z"/>
	<path d="M45.249,11.359c-0.75-0.859-1.06-1.339-1.39-2.149c-0.33-0.799-0.479-1.589-0.479-2.458s0.149-1.659,0.479-2.458
		c0.33-0.81,0.64-1.29,1.39-2.149h0.889c-0.839,0.85-1.169,1.299-1.519,2.069c-0.36,0.799-0.54,1.629-0.54,2.539
		s0.18,1.739,0.54,2.539c0.35,0.77,0.68,1.219,1.519,2.069H45.249z"/>
	<path d="M51.121,3.144c0-0.49-0.021-0.68-0.07-0.97h0.77c-0.05,0.3-0.069,0.5-0.069,0.97h3.178c0.49,0,0.779-0.02,1.029-0.07v0.71
		c-0.319-0.04-0.619-0.06-1.029-0.06h-3.178v1.029h2.698c0.409,0,0.649-0.01,0.899-0.04c-0.03,0.26-0.04,0.48-0.04,0.84v4.787
		c0,0.63-0.229,0.8-1.1,0.8c-0.319,0-0.649-0.02-1.039-0.05c-0.021-0.24-0.061-0.41-0.17-0.649c0.439,0.08,0.81,0.11,1.189,0.11
		s0.479-0.05,0.479-0.26V5.312h-6.246v4.938c0,0.59,0.01,0.779,0.05,1.029h-0.75c0.04-0.28,0.061-0.55,0.061-1.059V5.572
		c0-0.35-0.011-0.59-0.04-0.86c0.27,0.03,0.499,0.04,0.909,0.04h2.469V3.723h-2.988c-0.42,0-0.729,0.02-1.02,0.06v-0.71
		c0.33,0.05,0.609,0.07,1.02,0.07H51.121z M51.86,6.841c0.35-0.44,0.58-0.859,0.79-1.369l0.6,0.18c-0.271,0.5-0.47,0.82-0.75,1.189
		h0.76c0.42,0,0.63-0.01,0.88-0.05v0.64c-0.271-0.04-0.5-0.05-0.88-0.05H51.7v1.07h1.479c0.41,0,0.63-0.01,0.88-0.05v0.63
		c-0.25-0.04-0.5-0.05-0.88-0.05H51.7v0.87c0,0.54,0.011,0.81,0.051,1.129h-0.71c0.04-0.34,0.05-0.6,0.05-1.119V8.98h-1.199
		c-0.38,0-0.649,0.01-0.909,0.05V8.4c0.26,0.04,0.479,0.05,0.919,0.05h1.189v-1.07h-1.35c-0.39,0-0.619,0.01-0.869,0.05v-0.64
		c0.25,0.04,0.47,0.05,0.899,0.05H51.86z M50.211,5.452c0.25,0.37,0.48,0.77,0.65,1.109l-0.51,0.22
		c-0.16-0.36-0.39-0.739-0.66-1.099L50.211,5.452z"/>
	<path d="M61.87,10.459c0,0.62-0.189,0.739-1.119,0.739c-0.279,0-0.8-0.02-1.149-0.06c-0.069-0.29-0.109-0.42-0.21-0.64
		c0.51,0.07,0.979,0.11,1.31,0.11c0.46,0,0.529-0.03,0.529-0.24V8.36h-2.998c-0.439,0-0.75,0.02-1.05,0.06V7.731
		c0.29,0.04,0.61,0.06,1.04,0.06h3.008v-0.17c0-0.2-0.01-0.38-0.029-0.59h0.42c0.689-0.33,1.259-0.689,1.788-1.129h-3.657
		c-0.34,0-0.68,0.02-0.95,0.05V5.302c0.28,0.03,0.601,0.05,0.97,0.05h3.608c0.369,0,0.569-0.01,0.739-0.04l0.38,0.4
		c-0.13,0.1-0.13,0.1-0.35,0.29c-0.67,0.56-1.289,0.969-2.279,1.479v0.31h2.969c0.45,0,0.77-0.02,1.05-0.06V8.42
		c-0.28-0.04-0.62-0.06-1.06-0.06H61.87V10.459z M59.172,3.853c-0.29-0.51-0.47-0.76-0.939-1.299l0.6-0.19
		c0.46,0.57,0.67,0.87,1.02,1.479h1.459c-0.189-0.529-0.38-0.919-0.729-1.439l0.62-0.17c0.38,0.66,0.539,1,0.76,1.609h1.099
		c0.47-0.54,0.74-0.969,1.029-1.609l0.63,0.27c-0.42,0.669-0.63,0.959-0.959,1.339h0.779c0.58,0,0.8-0.01,1.149-0.04
		c-0.03,0.26-0.04,0.459-0.04,0.829v0.74c0,0.23,0.02,0.47,0.05,0.7h-0.659V4.393h-7.057v1.679h-0.659
		c0.029-0.23,0.05-0.45,0.05-0.7v-0.74c0-0.37-0.01-0.569-0.04-0.829c0.37,0.04,0.59,0.05,1.14,0.05H59.172z"/>
	<path d="M66.903,11.359c0.84-0.839,1.169-1.299,1.52-2.069c0.359-0.8,0.539-1.629,0.539-2.539s-0.18-1.739-0.539-2.539
		c-0.351-0.77-0.68-1.229-1.52-2.069h0.89c0.749,0.859,1.06,1.339,1.389,2.149c0.33,0.799,0.48,1.589,0.48,2.458
		s-0.15,1.659-0.48,2.458c-0.329,0.81-0.64,1.29-1.389,2.149H66.903z"/>
</g>
<polyline fill="none" stroke="#231815" stroke-miterlimit="10" points="97.664,26 91.401,26 91.401,53.5 97.664,53.5 "/>
<line fill="none" stroke="#231815" stroke-miterlimit="10" x1="91.401" y1="39.75" x2="84.995" y2="39.75"/>
<g>
	<g>
		<line fill="none" stroke="#231815" stroke-linecap="round" stroke-miterlimit="10" x1="56.62" y1="38.99" x2="56.62" y2="38.99"/>
		
			<line fill="none" stroke="#231815" stroke-linecap="round" stroke-miterlimit="10" stroke-dasharray="0,3.1846" x1="53.436" y1="38.99" x2="45.474" y2="38.99"/>
		
			<line fill="none" stroke="#231815" stroke-linecap="round" stroke-miterlimit="10" x1="43.882" y1="38.99" x2="43.882" y2="38.99"/>
	</g>
</g>
<g>
	<path d="M10.653,35.693c0-0.441-0.018-0.612-0.063-0.873h0.693c-0.045,0.27-0.063,0.45-0.063,0.873h2.863
		c0.441,0,0.702-0.019,0.927-0.063v0.64c-0.288-0.036-0.558-0.054-0.927-0.054h-2.863v0.927h2.431c0.369,0,0.585-0.009,0.81-0.036
		c-0.027,0.234-0.036,0.433-0.036,0.757v4.312c0,0.567-0.208,0.721-0.991,0.721c-0.288,0-0.585-0.019-0.936-0.045
		c-0.018-0.216-0.054-0.369-0.153-0.585c0.396,0.071,0.729,0.099,1.071,0.099c0.342,0,0.432-0.045,0.432-0.234v-4.483H8.223v4.447
		c0,0.531,0.009,0.702,0.045,0.928H7.592c0.036-0.252,0.054-0.495,0.054-0.954v-4.187c0-0.315-0.009-0.531-0.036-0.774
		c0.243,0.027,0.45,0.036,0.819,0.036h2.224v-0.927H7.961c-0.378,0-0.657,0.018-0.918,0.054v-0.64
		c0.297,0.045,0.549,0.063,0.918,0.063H10.653z M11.32,39.024c0.315-0.396,0.522-0.774,0.711-1.233l0.54,0.162
		c-0.243,0.45-0.423,0.738-0.675,1.071h0.684c0.378,0,0.567-0.009,0.792-0.045v0.576c-0.243-0.036-0.45-0.045-0.792-0.045h-1.404
		v0.963h1.332c0.369,0,0.567-0.009,0.792-0.045v0.567c-0.225-0.036-0.45-0.045-0.792-0.045h-1.332v0.783
		c0,0.485,0.009,0.729,0.045,1.017h-0.639c0.036-0.306,0.045-0.54,0.045-1.008v-0.792H9.546c-0.342,0-0.585,0.009-0.819,0.045
		v-0.567c0.234,0.036,0.432,0.045,0.828,0.045h1.071v-0.963H9.411c-0.351,0-0.558,0.009-0.783,0.045v-0.576
		c0.225,0.036,0.423,0.045,0.81,0.045H11.32z M9.834,37.772c0.225,0.334,0.432,0.693,0.585,1L9.96,38.971
		c-0.144-0.324-0.352-0.667-0.594-0.991L9.834,37.772z"/>
	<path d="M17.664,35.657c0-0.342-0.018-0.549-0.054-0.766h0.657c-0.045,0.243-0.054,0.433-0.054,0.774v1.009h0.423
		c0.306,0,0.522-0.009,0.783-0.045v0.594c-0.261-0.036-0.486-0.045-0.783-0.045h-0.369c0.234,0.567,0.243,0.585,0.396,0.873
		c0.261,0.469,0.468,0.757,0.846,1.152c-0.117,0.145-0.234,0.315-0.333,0.522c-0.468-0.621-0.675-0.99-0.999-1.801
		c0.027,0.621,0.036,0.99,0.036,1.656v2.603c0,0.396,0.018,0.603,0.054,0.846H17.61c0.036-0.225,0.054-0.459,0.054-0.837v-2.467
		c0-0.604,0.009-1.026,0.045-1.656c-0.369,1.251-0.792,2.124-1.44,2.952c-0.108-0.197-0.234-0.369-0.369-0.504
		c0.693-0.765,1.414-2.205,1.666-3.34h-0.594c-0.342,0-0.549,0.009-0.81,0.045V36.63c0.243,0.026,0.486,0.045,0.81,0.045h0.693
		V35.657z M22.994,42.094c0,0.567-0.189,0.702-1.008,0.702c-0.342,0-0.63-0.018-1.081-0.054c-0.027-0.261-0.072-0.405-0.162-0.612
		c0.531,0.081,0.927,0.117,1.197,0.117c0.396,0,0.459-0.027,0.459-0.234v-4.717h-1.864c-0.36,0-0.702,0.018-0.936,0.054v-0.63
		c0.216,0.036,0.54,0.054,0.927,0.054h1.873v-0.801c0-0.433-0.018-0.783-0.063-1.035h0.711c-0.036,0.278-0.054,0.611-0.054,1.044
		v0.792h0.234c0.369,0,0.621-0.018,0.864-0.054v0.612c-0.279-0.027-0.567-0.036-0.855-0.036h-0.243V42.094z M21.022,40.627
		c-0.378-0.928-0.702-1.495-1.261-2.242l0.513-0.261c0.531,0.711,0.9,1.342,1.288,2.16L21.022,40.627z"/>
	<path d="M26.124,35.747c0-0.513-0.009-0.729-0.045-0.927H26.7c-0.036,0.216-0.045,0.485-0.045,0.918v0.847h0.234
		c0.261,0,0.405-0.01,0.567-0.036v0.549c-0.18-0.018-0.351-0.027-0.558-0.027h-0.225c0.216,0.621,0.513,1.107,0.954,1.603
		c-0.162,0.181-0.216,0.243-0.333,0.459c-0.324-0.468-0.45-0.72-0.675-1.332c0.027,0.693,0.036,1.071,0.036,1.44v2.755
		c0,0.478,0.018,0.792,0.054,1.044H26.07c0.036-0.261,0.054-0.576,0.054-1.044v-2.529c0-0.369,0-0.486,0.045-1.405
		c-0.351,1.324-0.612,1.972-1.098,2.729c-0.144-0.243-0.216-0.343-0.36-0.478c0.441-0.63,0.72-1.18,0.999-1.998
		c0.153-0.433,0.252-0.802,0.342-1.243h-0.396c-0.279,0-0.486,0.01-0.63,0.036v-0.558c0.144,0.026,0.342,0.036,0.63,0.036h0.468
		V35.747z M28.221,41.779c-0.045,0.18-0.072,0.261-0.153,0.558l-0.594-0.09c0.288-0.846,0.441-1.494,0.63-2.619
		c-0.369,0-0.513,0.009-0.756,0.054v-0.604c0.198,0.036,0.387,0.054,0.837,0.054c0.081-0.566,0.153-1.332,0.153-1.701
		c0-0.081,0-0.135-0.009-0.243c0.162,0.019,0.27,0.019,0.666,0.019h2.602c0.478,0,0.729-0.01,0.918-0.036
		c-0.045,0.225-0.045,0.225-0.072,1.098c-0.018,0.379-0.027,0.486-0.045,0.864c0.414-0.009,0.558-0.018,0.756-0.054v0.604
		c-0.279-0.036-0.459-0.054-0.792-0.054c-0.045,0.611-0.09,1.106-0.162,1.656c0.333,0,0.468-0.009,0.684-0.055v0.586
		c-0.243-0.027-0.396-0.036-0.765-0.036c-0.09,0.54-0.135,0.702-0.252,0.873c-0.189,0.261-0.351,0.324-0.864,0.324
		c-0.234,0-0.513-0.019-0.945-0.054c0-0.217-0.027-0.369-0.09-0.576c0.414,0.081,0.756,0.116,1.035,0.116
		c0.378,0,0.441-0.081,0.567-0.684H28.221z M32.047,35.774c0.45,0,0.711-0.019,0.937-0.054v0.611
		c-0.27-0.026-0.541-0.035-0.945-0.035h-3.223c-0.288,0.594-0.513,0.945-1.008,1.557c-0.108-0.144-0.198-0.216-0.45-0.342
		c0.585-0.657,0.955-1.261,1.225-2.025c0.081-0.226,0.135-0.45,0.171-0.685l0.612,0.108c-0.036,0.09-0.054,0.126-0.09,0.243
		c-0.09,0.27-0.135,0.387-0.225,0.621H32.047z M29.635,41.284c0.036-0.181,0.036-0.181,0.108-0.585
		c0.036-0.243,0.099-0.648,0.144-1.071h-1.242c-0.108,0.684-0.207,1.232-0.306,1.656H29.635z M29.95,39.132
		c0.054-0.504,0.054-0.504,0.108-1.44H28.87c-0.045,0.595-0.09,0.991-0.153,1.44H29.95z M30.4,39.628
		c-0.09,0.828-0.09,0.828-0.225,1.656h1.485c0.063-0.504,0.117-0.981,0.162-1.656H30.4z M31.858,39.132
		c0.027-0.53,0.045-0.773,0.063-1.44h-1.333c-0.072,0.955-0.072,0.955-0.126,1.44H31.858z"/>
	<path d="M36.258,42.229c0,0.297,0.018,0.513,0.063,0.81H35.7c0.045-0.288,0.063-0.53,0.063-0.828V41.5h-1.026
		c-0.352,0-0.541,0.009-0.774,0.045V40.96c0.216,0.036,0.405,0.045,0.774,0.045h1.026v-0.819h-0.585
		c-0.396,0-0.63,0.009-0.864,0.036c0.027-0.207,0.036-0.468,0.036-0.883v-1.476c0-0.396-0.009-0.612-0.036-0.864
		c0.234,0.026,0.423,0.035,0.837,0.035h0.612v-0.773h-0.945c-0.351,0-0.549,0.009-0.774,0.045v-0.576
		c0.216,0.036,0.396,0.045,0.774,0.045h0.945v-0.117c0-0.288-0.018-0.468-0.063-0.783h0.621c-0.045,0.271-0.063,0.495-0.063,0.783
		v0.117h0.882c0.378,0,0.549-0.009,0.774-0.045v0.576c-0.234-0.036-0.405-0.045-0.774-0.045h-0.882v0.773h0.675
		c0.405,0,0.604-0.009,0.783-0.035c-0.018,0.216-0.027,0.423-0.027,0.846v1.494c0,0.415,0.009,0.685,0.027,0.883
		c-0.207-0.027-0.396-0.036-0.81-0.036h-0.648v0.819h0.973c0.369,0,0.558-0.009,0.774-0.045v0.585
		c-0.243-0.036-0.414-0.045-0.756-0.045h-0.991V42.229z M34.835,37.476v0.873h0.927v-0.873H34.835z M34.835,38.781v0.963h0.927
		v-0.963H34.835z M37.203,38.349v-0.873h-0.945v0.873H37.203z M37.203,39.744v-0.963h-0.945v0.963H37.203z M38.932,35.847
		c-0.36,0-0.558,0.009-0.783,0.045v-0.612c0.234,0.036,0.423,0.045,0.811,0.045h2.232c0.387,0,0.567-0.009,0.801-0.045v0.612
		c-0.225-0.036-0.414-0.045-0.774-0.045h-0.945v2.512h1.098c0.369,0,0.549-0.01,0.774-0.045v0.63
		c-0.234-0.036-0.423-0.045-0.774-0.045h-1.098v3.376c0,0.369,0.018,0.603,0.063,0.846h-0.693c0.036-0.225,0.054-0.45,0.054-0.846
		v-3.376H38.77c-0.352,0-0.549,0.009-0.784,0.045v-0.63c0.225,0.035,0.415,0.045,0.784,0.045h0.927v-2.512H38.932z"/>
</g>
</svg>
