<?xml version="1.0" encoding="utf-8"?>
<!-- Generator: Adobe Illustrator 16.0.3, SVG Export Plug-In . SVG Version: 6.00 Build 0)  -->
<!DOCTYPE svg PUBLIC "-//W3C//DTD SVG 1.1//EN" "http://www.w3.org/Graphics/SVG/1.1/DTD/svg11.dtd">
<svg version="1.1" id="レイヤー_1" xmlns="http://www.w3.org/2000/svg" xmlns:xlink="http://www.w3.org/1999/xlink" x="0px"
	 y="0px" width="174.755px" height="182.281px" viewBox="0 0 174.755 182.281" enable-background="new 0 0 174.755 182.281"
	 xml:space="preserve">
<path fill="#FFB85A" stroke="#000000" stroke-width="0.5" stroke-miterlimit="10" d="M75.65,138.271
	c0,2.969-2.406,5.375-5.375,5.375H41.9c-2.969,0-5.375-2.406-5.375-5.375l0,0c0-2.969,2.406-5.375,5.375-5.375h28.375
	C73.244,132.896,75.65,135.303,75.65,138.271L75.65,138.271z"/>
<line fill="none" stroke="#000000" stroke-miterlimit="10" x1="22.411" y1="164.896" x2="174.755" y2="164.896"/>
<g>
	<path d="M16.711,167.257c-0.216-0.216-0.384-0.464-0.479-0.735c-0.2-0.56-0.304-1.191-0.304-1.847c0-0.848,0.184-1.711,0.464-2.175
		c0.384-0.647,0.999-0.983,1.791-0.983c0.592,0,1.104,0.191,1.463,0.567c0.224,0.224,0.384,0.472,0.479,0.735
		c0.2,0.552,0.304,1.191,0.304,1.855c0,0.968-0.207,1.823-0.56,2.311c-0.399,0.56-0.959,0.84-1.694,0.84
		C17.583,167.825,17.087,167.633,16.711,167.257z M17.175,162.476c-0.168,0.185-0.296,0.384-0.359,0.584
		c-0.168,0.487-0.248,1.031-0.248,1.615c0,0.743,0.16,1.527,0.376,1.902c0.279,0.464,0.695,0.696,1.239,0.696
		c0.399,0,0.743-0.128,0.983-0.376c0.176-0.184,0.304-0.392,0.376-0.624c0.168-0.495,0.247-1.023,0.247-1.615
		c0-0.695-0.151-1.486-0.359-1.862c-0.264-0.479-0.695-0.728-1.255-0.728C17.759,162.068,17.431,162.204,17.175,162.476z"/>
</g>
<g>
	<path d="M1.136,127.33c-0.504,0-0.624,0.008-0.88,0.04c0.088-0.632,0.112-0.752,0.231-1.056c0.2-0.504,0.536-0.943,1.04-1.375
		c0.279-0.24,0.296-0.248,1.224-0.88c0.791-0.535,1.055-0.888,1.055-1.375c0-0.607-0.512-0.999-1.327-0.999
		c-0.527,0-0.919,0.176-1.159,0.52c-0.152,0.216-0.224,0.407-0.28,0.808L0.368,122.9c0.119-0.576,0.239-0.855,0.504-1.151
		c0.359-0.408,0.903-0.615,1.606-0.615c1.208,0,1.983,0.607,1.983,1.551c0,0.407-0.16,0.792-0.472,1.136
		c-0.24,0.271-0.448,0.424-1.359,1.031c-0.632,0.424-0.888,0.647-1.151,0.983c-0.248,0.327-0.36,0.544-0.456,0.928h2.551
		c0.399,0,0.672-0.017,0.976-0.057v0.672c-0.32-0.032-0.584-0.048-0.983-0.048H1.136z"/>
	<path d="M6.199,126.882c-0.216-0.216-0.384-0.464-0.479-0.735c-0.2-0.56-0.304-1.191-0.304-1.847c0-0.848,0.184-1.711,0.464-2.175
		c0.384-0.647,0.999-0.983,1.791-0.983c0.592,0,1.104,0.191,1.463,0.567c0.224,0.224,0.384,0.472,0.479,0.735
		c0.2,0.552,0.304,1.191,0.304,1.855c0,0.968-0.207,1.823-0.56,2.311c-0.399,0.56-0.959,0.84-1.694,0.84
		C7.071,127.45,6.575,127.258,6.199,126.882z M6.663,122.101c-0.168,0.185-0.296,0.384-0.359,0.584
		c-0.168,0.487-0.248,1.031-0.248,1.615c0,0.743,0.16,1.527,0.376,1.902c0.279,0.464,0.695,0.696,1.239,0.696
		c0.399,0,0.743-0.128,0.983-0.376c0.176-0.184,0.304-0.392,0.376-0.624c0.168-0.495,0.247-1.023,0.247-1.615
		c0-0.695-0.151-1.486-0.359-1.862c-0.264-0.479-0.695-0.728-1.255-0.728C7.247,121.693,6.919,121.829,6.663,122.101z"/>
	<path d="M11.455,126.882c-0.216-0.216-0.384-0.464-0.479-0.735c-0.2-0.56-0.304-1.191-0.304-1.847c0-0.848,0.184-1.711,0.464-2.175
		c0.384-0.647,0.999-0.983,1.791-0.983c0.592,0,1.104,0.191,1.463,0.567c0.224,0.224,0.384,0.472,0.479,0.735
		c0.2,0.552,0.304,1.191,0.304,1.855c0,0.968-0.207,1.823-0.56,2.311c-0.399,0.56-0.959,0.84-1.694,0.84
		C12.327,127.45,11.831,127.258,11.455,126.882z M11.919,122.101c-0.168,0.185-0.296,0.384-0.359,0.584
		c-0.168,0.487-0.248,1.031-0.248,1.615c0,0.743,0.16,1.527,0.376,1.902c0.279,0.464,0.695,0.696,1.239,0.696
		c0.399,0,0.743-0.128,0.983-0.376c0.176-0.184,0.304-0.392,0.376-0.624c0.168-0.495,0.247-1.023,0.247-1.615
		c0-0.695-0.151-1.486-0.359-1.862c-0.264-0.479-0.695-0.728-1.255-0.728C12.503,121.693,12.175,121.829,11.919,122.101z"/>
	<path d="M16.711,126.882c-0.216-0.216-0.384-0.464-0.479-0.735c-0.2-0.56-0.304-1.191-0.304-1.847c0-0.848,0.184-1.711,0.464-2.175
		c0.384-0.647,0.999-0.983,1.791-0.983c0.592,0,1.104,0.191,1.463,0.567c0.224,0.224,0.384,0.472,0.479,0.735
		c0.2,0.552,0.304,1.191,0.304,1.855c0,0.968-0.207,1.823-0.56,2.311c-0.399,0.56-0.959,0.84-1.694,0.84
		C17.583,127.45,17.087,127.258,16.711,126.882z M17.175,122.101c-0.168,0.185-0.296,0.384-0.359,0.584
		c-0.168,0.487-0.248,1.031-0.248,1.615c0,0.743,0.16,1.527,0.376,1.902c0.279,0.464,0.695,0.696,1.239,0.696
		c0.399,0,0.743-0.128,0.983-0.376c0.176-0.184,0.304-0.392,0.376-0.624c0.168-0.495,0.247-1.023,0.247-1.615
		c0-0.695-0.151-1.486-0.359-1.862c-0.264-0.479-0.695-0.728-1.255-0.728C17.759,121.693,17.431,121.829,17.175,122.101z"/>
</g>
<g>
	<path d="M0,84.836c0.168-0.191,0.352-0.416,0.52-0.615l2.022-2.527c0.272-0.335,0.416-0.535,0.6-0.815h0.601
		c-0.04,0.472-0.049,0.72-0.049,1.352v2.623h0.305c0.335,0,0.543-0.017,0.831-0.057v0.664c-0.296-0.04-0.496-0.056-0.84-0.056H3.693
		v0.688c0,0.384,0.017,0.567,0.064,0.863H3.03c0.048-0.28,0.063-0.504,0.063-0.863v-0.688H0.951c-0.447,0-0.688,0.008-0.951,0.031
		V84.836z M3.103,82.829c0-0.424,0.008-0.68,0.048-1.087c-0.168,0.239-0.368,0.503-0.6,0.799L0.712,84.86h2.391V82.829z"/>
	<path d="M6.199,86.507c-0.216-0.216-0.384-0.464-0.479-0.735c-0.2-0.56-0.304-1.191-0.304-1.847c0-0.848,0.184-1.711,0.464-2.175
		c0.384-0.647,0.999-0.983,1.791-0.983c0.592,0,1.104,0.191,1.463,0.567c0.224,0.224,0.384,0.472,0.479,0.735
		c0.2,0.552,0.304,1.191,0.304,1.855c0,0.968-0.207,1.823-0.56,2.311c-0.399,0.56-0.959,0.84-1.694,0.84
		C7.071,87.075,6.575,86.883,6.199,86.507z M6.663,81.726c-0.168,0.185-0.296,0.384-0.359,0.584
		c-0.168,0.487-0.248,1.031-0.248,1.615c0,0.743,0.16,1.527,0.376,1.902c0.279,0.464,0.695,0.696,1.239,0.696
		c0.399,0,0.743-0.128,0.983-0.376c0.176-0.184,0.304-0.392,0.376-0.624c0.168-0.495,0.247-1.023,0.247-1.615
		c0-0.695-0.151-1.486-0.359-1.862c-0.264-0.479-0.695-0.728-1.255-0.728C7.247,81.318,6.919,81.454,6.663,81.726z"/>
	<path d="M11.455,86.507c-0.216-0.216-0.384-0.464-0.479-0.735c-0.2-0.56-0.304-1.191-0.304-1.847c0-0.848,0.184-1.711,0.464-2.175
		c0.384-0.647,0.999-0.983,1.791-0.983c0.592,0,1.104,0.191,1.463,0.567c0.224,0.224,0.384,0.472,0.479,0.735
		c0.2,0.552,0.304,1.191,0.304,1.855c0,0.968-0.207,1.823-0.56,2.311c-0.399,0.56-0.959,0.84-1.694,0.84
		C12.327,87.075,11.831,86.883,11.455,86.507z M11.919,81.726c-0.168,0.185-0.296,0.384-0.359,0.584
		c-0.168,0.487-0.248,1.031-0.248,1.615c0,0.743,0.16,1.527,0.376,1.902c0.279,0.464,0.695,0.696,1.239,0.696
		c0.399,0,0.743-0.128,0.983-0.376c0.176-0.184,0.304-0.392,0.376-0.624c0.168-0.495,0.247-1.023,0.247-1.615
		c0-0.695-0.151-1.486-0.359-1.862c-0.264-0.479-0.695-0.728-1.255-0.728C12.503,81.318,12.175,81.454,11.919,81.726z"/>
	<path d="M16.711,86.507c-0.216-0.216-0.384-0.464-0.479-0.735c-0.2-0.56-0.304-1.191-0.304-1.847c0-0.848,0.184-1.711,0.464-2.175
		c0.384-0.647,0.999-0.983,1.791-0.983c0.592,0,1.104,0.191,1.463,0.567c0.224,0.224,0.384,0.472,0.479,0.735
		c0.2,0.552,0.304,1.191,0.304,1.855c0,0.968-0.207,1.823-0.56,2.311c-0.399,0.56-0.959,0.84-1.694,0.84
		C17.583,87.075,17.087,86.883,16.711,86.507z M17.175,81.726c-0.168,0.185-0.296,0.384-0.359,0.584
		c-0.168,0.487-0.248,1.031-0.248,1.615c0,0.743,0.16,1.527,0.376,1.902c0.279,0.464,0.695,0.696,1.239,0.696
		c0.399,0,0.743-0.128,0.983-0.376c0.176-0.184,0.304-0.392,0.376-0.624c0.168-0.495,0.247-1.023,0.247-1.615
		c0-0.695-0.151-1.486-0.359-1.862c-0.264-0.479-0.695-0.728-1.255-0.728C17.759,81.318,17.431,81.454,17.175,81.726z"/>
</g>
<g>
	<path d="M3.798,41.83c-0.104-0.256-0.16-0.367-0.279-0.503c-0.24-0.265-0.552-0.4-0.952-0.4c-0.623,0-1.095,0.336-1.383,0.992
		c-0.208,0.479-0.28,0.847-0.336,1.719c0.144-0.248,0.224-0.36,0.399-0.512c0.376-0.336,0.8-0.488,1.352-0.488
		c1.239,0,2.007,0.768,2.007,1.999c0,1.239-0.831,2.055-2.095,2.055c-0.567,0-1.104-0.184-1.447-0.503
		c-0.52-0.48-0.808-1.376-0.808-2.511c0-1,0.224-1.896,0.607-2.415c0.424-0.575,0.992-0.871,1.688-0.871
		c0.479,0,0.911,0.12,1.215,0.336c0.28,0.199,0.44,0.415,0.672,0.896L3.798,41.83z M2.511,43.174c-0.399,0-0.823,0.176-1.104,0.456
		c-0.264,0.264-0.399,0.615-0.399,1.015c0,0.864,0.647,1.504,1.511,1.504c0.52,0,1-0.248,1.247-0.647
		c0.128-0.208,0.208-0.536,0.208-0.848C3.974,43.71,3.446,43.174,2.511,43.174z"/>
	<path d="M6.199,46.132c-0.216-0.216-0.384-0.464-0.479-0.735c-0.2-0.56-0.304-1.191-0.304-1.847c0-0.848,0.184-1.711,0.464-2.175
		c0.384-0.647,0.999-0.983,1.791-0.983c0.592,0,1.104,0.191,1.463,0.567c0.224,0.224,0.384,0.472,0.479,0.735
		c0.2,0.552,0.304,1.191,0.304,1.855c0,0.968-0.207,1.823-0.56,2.311c-0.399,0.56-0.959,0.84-1.694,0.84
		C7.071,46.7,6.575,46.508,6.199,46.132z M6.663,41.351c-0.168,0.185-0.296,0.384-0.359,0.584c-0.168,0.487-0.248,1.031-0.248,1.615
		c0,0.743,0.16,1.527,0.376,1.902c0.279,0.464,0.695,0.696,1.239,0.696c0.399,0,0.743-0.128,0.983-0.376
		c0.176-0.184,0.304-0.392,0.376-0.624c0.168-0.495,0.247-1.023,0.247-1.615c0-0.695-0.151-1.486-0.359-1.862
		c-0.264-0.479-0.695-0.728-1.255-0.728C7.247,40.943,6.919,41.079,6.663,41.351z"/>
	<path d="M11.455,46.132c-0.216-0.216-0.384-0.464-0.479-0.735c-0.2-0.56-0.304-1.191-0.304-1.847c0-0.848,0.184-1.711,0.464-2.175
		c0.384-0.647,0.999-0.983,1.791-0.983c0.592,0,1.104,0.191,1.463,0.567c0.224,0.224,0.384,0.472,0.479,0.735
		c0.2,0.552,0.304,1.191,0.304,1.855c0,0.968-0.207,1.823-0.56,2.311c-0.399,0.56-0.959,0.84-1.694,0.84
		C12.327,46.7,11.831,46.508,11.455,46.132z M11.919,41.351c-0.168,0.185-0.296,0.384-0.359,0.584
		c-0.168,0.487-0.248,1.031-0.248,1.615c0,0.743,0.16,1.527,0.376,1.902c0.279,0.464,0.695,0.696,1.239,0.696
		c0.399,0,0.743-0.128,0.983-0.376c0.176-0.184,0.304-0.392,0.376-0.624c0.168-0.495,0.247-1.023,0.247-1.615
		c0-0.695-0.151-1.486-0.359-1.862c-0.264-0.479-0.695-0.728-1.255-0.728C12.503,40.943,12.175,41.079,11.919,41.351z"/>
	<path d="M16.711,46.132c-0.216-0.216-0.384-0.464-0.479-0.735c-0.2-0.56-0.304-1.191-0.304-1.847c0-0.848,0.184-1.711,0.464-2.175
		c0.384-0.647,0.999-0.983,1.791-0.983c0.592,0,1.104,0.191,1.463,0.567c0.224,0.224,0.384,0.472,0.479,0.735
		c0.2,0.552,0.304,1.191,0.304,1.855c0,0.968-0.207,1.823-0.56,2.311c-0.399,0.56-0.959,0.84-1.694,0.84
		C17.583,46.7,17.087,46.508,16.711,46.132z M17.175,41.351c-0.168,0.185-0.296,0.384-0.359,0.584
		c-0.168,0.487-0.248,1.031-0.248,1.615c0,0.743,0.16,1.527,0.376,1.902c0.279,0.464,0.695,0.696,1.239,0.696
		c0.399,0,0.743-0.128,0.983-0.376c0.176-0.184,0.304-0.392,0.376-0.624c0.168-0.495,0.247-1.023,0.247-1.615
		c0-0.695-0.151-1.486-0.359-1.862c-0.264-0.479-0.695-0.728-1.255-0.728C17.759,40.943,17.431,41.079,17.175,41.351z"/>
</g>
<g>
	<path d="M4.046,3.366c0.399,0.296,0.6,0.72,0.6,1.256c0,1.095-0.8,1.711-2.207,1.711c-1.463,0-2.271-0.607-2.271-1.711
		c0-0.576,0.231-1.016,0.712-1.327C1.128,3.135,1.304,3.07,1.6,3.022c-0.704-0.128-1.16-0.695-1.16-1.438
		C0.439,0.616,1.199,0,2.407,0C3.63,0,4.382,0.6,4.382,1.584c0,0.743-0.448,1.303-1.159,1.438C3.558,3.07,3.782,3.167,4.046,3.366z
		 M0.823,4.582c0,0.76,0.584,1.207,1.575,1.207c0.56,0,1.016-0.144,1.288-0.416C3.886,5.189,3.99,4.91,3.99,4.582
		c0-0.784-0.6-1.256-1.583-1.256C1.423,3.326,0.823,3.807,0.823,4.582z M1.063,1.632c0,0.711,0.512,1.143,1.352,1.143
		c0.839,0,1.343-0.432,1.343-1.143c0-0.672-0.527-1.096-1.351-1.096C1.591,0.536,1.063,0.968,1.063,1.632z"/>
	<path d="M6.199,5.757C5.983,5.541,5.815,5.293,5.72,5.021c-0.2-0.56-0.304-1.191-0.304-1.847C5.416,2.327,5.6,1.464,5.88,1
		c0.384-0.647,0.999-0.983,1.791-0.983c0.592,0,1.104,0.191,1.463,0.567c0.224,0.224,0.384,0.472,0.479,0.735
		c0.2,0.552,0.304,1.191,0.304,1.855c0,0.968-0.207,1.823-0.56,2.311c-0.399,0.56-0.959,0.84-1.694,0.84
		C7.071,6.325,6.575,6.133,6.199,5.757z M6.663,0.976C6.495,1.16,6.367,1.359,6.304,1.56C6.136,2.047,6.056,2.591,6.056,3.175
		c0,0.743,0.16,1.527,0.376,1.902c0.279,0.464,0.695,0.696,1.239,0.696c0.399,0,0.743-0.128,0.983-0.376
		C8.83,5.214,8.958,5.006,9.03,4.773C9.198,4.278,9.277,3.75,9.277,3.158c0-0.695-0.151-1.486-0.359-1.862
		C8.654,0.816,8.223,0.568,7.663,0.568C7.247,0.568,6.919,0.704,6.663,0.976z"/>
	<path d="M11.455,5.757c-0.216-0.216-0.384-0.464-0.479-0.735c-0.2-0.56-0.304-1.191-0.304-1.847c0-0.848,0.184-1.711,0.464-2.175
		c0.384-0.647,0.999-0.983,1.791-0.983c0.592,0,1.104,0.191,1.463,0.567c0.224,0.224,0.384,0.472,0.479,0.735
		c0.2,0.552,0.304,1.191,0.304,1.855c0,0.968-0.207,1.823-0.56,2.311c-0.399,0.56-0.959,0.84-1.694,0.84
		C12.327,6.325,11.831,6.133,11.455,5.757z M11.919,0.976C11.751,1.16,11.623,1.359,11.56,1.56
		c-0.168,0.487-0.248,1.031-0.248,1.615c0,0.743,0.16,1.527,0.376,1.902c0.279,0.464,0.695,0.696,1.239,0.696
		c0.399,0,0.743-0.128,0.983-0.376c0.176-0.184,0.304-0.392,0.376-0.624c0.168-0.495,0.247-1.023,0.247-1.615
		c0-0.695-0.151-1.486-0.359-1.862c-0.264-0.479-0.695-0.728-1.255-0.728C12.503,0.568,12.175,0.704,11.919,0.976z"/>
	<path d="M16.711,5.757c-0.216-0.216-0.384-0.464-0.479-0.735c-0.2-0.56-0.304-1.191-0.304-1.847c0-0.848,0.184-1.711,0.464-2.175
		c0.384-0.647,0.999-0.983,1.791-0.983c0.592,0,1.104,0.191,1.463,0.567c0.224,0.224,0.384,0.472,0.479,0.735
		c0.2,0.552,0.304,1.191,0.304,1.855c0,0.968-0.207,1.823-0.56,2.311c-0.399,0.56-0.959,0.84-1.694,0.84
		C17.583,6.325,17.087,6.133,16.711,5.757z M17.175,0.976c-0.168,0.185-0.296,0.384-0.359,0.584
		c-0.168,0.487-0.248,1.031-0.248,1.615c0,0.743,0.16,1.527,0.376,1.902c0.279,0.464,0.695,0.696,1.239,0.696
		c0.399,0,0.743-0.128,0.983-0.376c0.176-0.184,0.304-0.392,0.376-0.624c0.168-0.495,0.247-1.023,0.247-1.615
		c0-0.695-0.151-1.486-0.359-1.862c-0.264-0.479-0.695-0.728-1.255-0.728C17.759,0.568,17.431,0.704,17.175,0.976z"/>
</g>
<g>
	<path d="M7.788,16.332c-0.6-0.688-0.848-1.071-1.111-1.719c-0.265-0.64-0.384-1.271-0.384-1.967c0-0.696,0.119-1.327,0.384-1.967
		c0.264-0.648,0.512-1.032,1.111-1.72h0.711C7.828,9.64,7.563,10,7.284,10.615c-0.288,0.64-0.432,1.304-0.432,2.031
		s0.144,1.391,0.432,2.03c0.279,0.616,0.544,0.976,1.215,1.655H7.788z"/>
	<path d="M9.887,9.607c-0.04,0.288-0.056,0.528-0.056,0.904v2.67l0.928-1.191c0.16-0.207,0.287-0.407,0.384-0.615h0.735
		c-0.2,0.24-0.2,0.24-0.552,0.695l-0.792,1.023l0.968,1.751c0.128,0.225,0.328,0.576,0.488,0.84h-0.72
		c-0.057-0.208-0.128-0.384-0.24-0.584l-0.863-1.591l-0.336,0.432v0.832c0,0.384,0.016,0.6,0.056,0.911H9.231
		c0.032-0.24,0.056-0.575,0.056-0.911v-4.262c0-0.408-0.016-0.624-0.056-0.904H9.887z M15.731,15.685
		c0.04-0.248,0.057-0.512,0.057-0.903v-1.879c0-0.855-0.112-1.104-0.52-1.104c-0.424,0-0.76,0.575-0.76,1.303v1.688
		c0,0.352,0.016,0.615,0.056,0.896h-0.655c0.04-0.312,0.056-0.567,0.056-0.903v-1.879c0-0.8-0.152-1.096-0.552-1.096
		c-0.424,0-0.728,0.544-0.728,1.312v1.663c0,0.376,0.008,0.575,0.056,0.903h-0.655c0.04-0.296,0.056-0.575,0.056-0.903v-2.503
		c0-0.279-0.016-0.56-0.056-0.903h0.6v0.312c0,0.064-0.008,0.176-0.016,0.28c0.159-0.456,0.455-0.688,0.879-0.688
		c0.288,0,0.512,0.096,0.656,0.296c0.096,0.119,0.144,0.224,0.199,0.472c0.224-0.52,0.552-0.768,0.991-0.768
		c0.296,0,0.536,0.104,0.688,0.296c0.176,0.231,0.247,0.56,0.247,1.159v2.055c0,0.336,0.009,0.512,0.057,0.896H15.731z"/>
	<path d="M17.111,16.332c0.672-0.672,0.936-1.039,1.216-1.655c0.287-0.64,0.432-1.303,0.432-2.03s-0.145-1.392-0.432-2.031
		C18.047,10,17.783,9.632,17.111,8.96h0.712c0.6,0.688,0.848,1.071,1.111,1.72c0.264,0.64,0.384,1.271,0.384,1.967
		c0,0.695-0.12,1.327-0.384,1.967c-0.264,0.647-0.512,1.031-1.111,1.719H17.111z"/>
</g>
<polyline fill="none" stroke="#000000" stroke-miterlimit="10" points="174.755,164.896 22.411,164.896 22.411,3.396 "/>
<line fill="none" stroke="#000000" stroke-width="0.5" stroke-miterlimit="10" x1="22.411" y1="124.521" x2="174.755" y2="124.521"/>
<line fill="none" stroke="#000000" stroke-width="0.5" stroke-miterlimit="10" x1="22.411" y1="84.146" x2="174.755" y2="84.146"/>
<line fill="none" stroke="#000000" stroke-width="0.5" stroke-miterlimit="10" x1="22.411" y1="43.771" x2="174.755" y2="43.771"/>
<line fill="none" stroke="#000000" stroke-width="0.5" stroke-miterlimit="10" x1="22.411" y1="3.396" x2="174.755" y2="3.396"/>
<rect x="25.215" y="163.281" fill="#FFB85A" stroke="#000000" stroke-width="0.5" stroke-miterlimit="10" width="13.436" height="1.615"/>
<rect x="44.258" y="160.859" fill="#FFB85A" stroke="#000000" stroke-width="0.5" stroke-miterlimit="10" width="13.436" height="4.037"/>
<rect x="63.301" y="159.244" fill="#FFB85A" stroke="#000000" stroke-width="0.5" stroke-miterlimit="10" width="13.436" height="5.652"/>
<rect x="82.344" y="153.793" fill="#FFB85A" stroke="#000000" stroke-width="0.5" stroke-miterlimit="10" width="13.436" height="11.104"/>
<rect x="101.387" y="144.709" fill="#FFB85A" stroke="#000000" stroke-width="0.5" stroke-miterlimit="10" width="13.436" height="20.188"/>
<rect x="120.43" y="140.672" fill="#FFB85A" stroke="#000000" stroke-width="0.5" stroke-miterlimit="10" width="13.436" height="24.225"/>
<rect x="139.473" y="124.521" fill="#FFB85A" stroke="#000000" stroke-width="0.5" stroke-miterlimit="10" width="13.436" height="40.375"/>
<rect x="158.516" y="19.547" fill="#FFB85A" stroke="#000000" stroke-width="0.5" stroke-miterlimit="10" width="13.436" height="145.35"/>
<rect x="82.344" y="142.69" fill="#FFFFFF" stroke="#000000" stroke-width="0.5" stroke-miterlimit="10" width="13.436" height="11.103"/>
<rect x="101.387" y="104.334" fill="#FFFFFF" stroke="#000000" stroke-width="0.5" stroke-miterlimit="10" width="13.436" height="40.375"/>
<rect x="120.43" y="72.034" fill="#FFFFFF" stroke="#000000" stroke-width="0.5" stroke-miterlimit="10" width="13.436" height="68.638"/>
<rect x="139.473" y="27.621" fill="#FFFFFF" stroke="#000000" stroke-width="0.5" stroke-miterlimit="10" width="13.436" height="96.9"/>
<rect x="158.516" y="5.415" fill="#FFFFFF" stroke="#000000" stroke-width="0.5" stroke-miterlimit="10" width="13.436" height="14.132"/>
<g>
	<path d="M161.137,172.637c-0.216-0.216-0.384-0.463-0.479-0.735c-0.2-0.56-0.304-1.191-0.304-1.847
		c0-0.848,0.184-1.711,0.464-2.175c0.384-0.647,0.999-0.983,1.791-0.983c0.592,0,1.104,0.191,1.463,0.567
		c0.224,0.224,0.384,0.472,0.479,0.735c0.2,0.552,0.304,1.191,0.304,1.855c0,0.967-0.207,1.823-0.56,2.311
		c-0.399,0.56-0.959,0.84-1.694,0.84C162.009,173.205,161.513,173.013,161.137,172.637z M161.601,167.855
		c-0.168,0.185-0.296,0.384-0.359,0.584c-0.168,0.487-0.248,1.031-0.248,1.615c0,0.743,0.16,1.527,0.376,1.902
		c0.279,0.464,0.695,0.696,1.239,0.696c0.399,0,0.743-0.128,0.983-0.376c0.176-0.184,0.304-0.392,0.376-0.624
		c0.168-0.495,0.247-1.023,0.247-1.615c0-0.695-0.151-1.486-0.359-1.862c-0.264-0.48-0.695-0.728-1.255-0.728
		C162.185,167.448,161.856,167.584,161.601,167.855z"/>
	<path d="M169.967,167.552c-0.144,0.112-0.28,0.288-0.592,0.768c-0.72,1.111-1.056,1.791-1.367,2.767
		c-0.208,0.664-0.296,1.071-0.424,1.999h-0.76c0.256-1.447,0.472-2.167,0.968-3.19c0.384-0.8,0.728-1.352,1.439-2.318h-2.599
		c-0.376,0-0.6,0.016-0.903,0.056v-0.68c0.312,0.04,0.527,0.056,0.911,0.056h2.398c0.472,0,0.647-0.008,0.928-0.04V167.552z"/>
</g>
<g>
	<path d="M162.942,182.281c-0.6-0.688-0.848-1.071-1.111-1.719c-0.265-0.64-0.384-1.271-0.384-1.967
		c0-0.696,0.119-1.327,0.384-1.967c0.264-0.648,0.512-1.032,1.111-1.72h0.711c-0.671,0.68-0.936,1.04-1.215,1.655
		c-0.288,0.64-0.432,1.304-0.432,2.031s0.144,1.391,0.432,2.03c0.279,0.616,0.544,0.976,1.215,1.655H162.942z"/>
	<path d="M165.817,178.132c0-0.176-0.009-0.312-0.024-0.472c0.168,0.016,0.344,0.023,0.567,0.023h1.735v-1.303h-1.879
		c-0.408,0.68-0.792,1.151-1.327,1.631c-0.128-0.184-0.208-0.264-0.384-0.384c0.791-0.672,1.223-1.255,1.599-2.15
		c0.104-0.232,0.16-0.416,0.2-0.584l0.567,0.16c-0.031,0.063-0.056,0.119-0.104,0.216l-0.304,0.647h3.966
		c0.352,0,0.52-0.008,0.72-0.04v0.544c-0.2-0.032-0.393-0.04-0.72-0.04h-1.808v1.303h1.447c0.328,0,0.504-0.008,0.712-0.04v0.528
		c-0.208-0.024-0.399-0.032-0.704-0.032h-1.455v1.567h2.016c0.359,0,0.583-0.017,0.808-0.048v0.575
		c-0.232-0.032-0.48-0.048-0.808-0.048h-2.016v1.319c0,0.344,0.017,0.536,0.057,0.743h-0.632c0.04-0.199,0.048-0.375,0.048-0.743
		v-1.319h-2.887c-0.327,0-0.575,0.016-0.808,0.048v-0.575c0.232,0.031,0.456,0.048,0.808,0.048h0.608V178.132z M168.096,179.707
		v-1.567h-1.759v1.567H168.096z"/>
	<path d="M172.266,182.281c0.672-0.672,0.936-1.039,1.216-1.655c0.287-0.64,0.432-1.303,0.432-2.03s-0.145-1.392-0.432-2.031
		c-0.28-0.615-0.544-0.983-1.216-1.655h0.712c0.6,0.688,0.848,1.071,1.111,1.72c0.264,0.64,0.384,1.271,0.384,1.967
		c0,0.695-0.12,1.327-0.384,1.967c-0.264,0.647-0.512,1.031-1.111,1.719H172.266z"/>
</g>
<g>
	<path d="M142.094,172.637c-0.216-0.216-0.384-0.463-0.479-0.735c-0.2-0.56-0.304-1.191-0.304-1.847
		c0-0.848,0.184-1.711,0.464-2.175c0.384-0.647,0.999-0.983,1.791-0.983c0.592,0,1.104,0.191,1.463,0.567
		c0.224,0.224,0.384,0.472,0.479,0.735c0.2,0.552,0.304,1.191,0.304,1.855c0,0.967-0.207,1.823-0.56,2.311
		c-0.399,0.56-0.959,0.84-1.694,0.84C142.966,173.205,142.47,173.013,142.094,172.637z M142.558,167.855
		c-0.168,0.185-0.296,0.384-0.359,0.584c-0.168,0.487-0.248,1.031-0.248,1.615c0,0.743,0.16,1.527,0.376,1.902
		c0.279,0.464,0.695,0.696,1.239,0.696c0.399,0,0.743-0.128,0.983-0.376c0.176-0.184,0.304-0.392,0.376-0.624
		c0.168-0.495,0.247-1.023,0.247-1.615c0-0.695-0.151-1.486-0.359-1.862c-0.264-0.48-0.695-0.728-1.255-0.728
		C143.142,167.448,142.813,167.584,142.558,167.855z"/>
	<path d="M147.542,173.085c-0.504,0-0.624,0.008-0.88,0.04c0.088-0.632,0.112-0.752,0.231-1.056c0.2-0.504,0.536-0.943,1.04-1.375
		c0.279-0.24,0.296-0.248,1.224-0.88c0.791-0.535,1.055-0.888,1.055-1.375c0-0.607-0.512-1-1.327-1
		c-0.527,0-0.919,0.177-1.159,0.521c-0.152,0.216-0.224,0.407-0.28,0.808l-0.671-0.112c0.119-0.575,0.239-0.855,0.504-1.151
		c0.359-0.408,0.903-0.615,1.606-0.615c1.208,0,1.983,0.607,1.983,1.551c0,0.408-0.16,0.791-0.472,1.136
		c-0.24,0.271-0.448,0.423-1.359,1.031c-0.632,0.424-0.888,0.647-1.151,0.983c-0.248,0.328-0.36,0.544-0.456,0.928h2.551
		c0.399,0,0.672-0.017,0.976-0.057v0.672c-0.32-0.032-0.584-0.048-0.983-0.048H147.542z"/>
</g>
<g>
	<path d="M123.067,171.758c0.096,0.264,0.159,0.376,0.287,0.512c0.225,0.248,0.568,0.376,1.008,0.376
		c0.575,0,0.991-0.232,1.287-0.736c0.152-0.256,0.28-0.647,0.344-1.023c0.032-0.199,0.057-0.527,0.072-0.936
		c-0.112,0.216-0.176,0.296-0.32,0.448c-0.407,0.384-0.855,0.56-1.455,0.56c-0.592,0-1.095-0.184-1.439-0.527
		c-0.344-0.344-0.543-0.872-0.543-1.439c0-1.271,0.855-2.103,2.167-2.103c0.896,0,1.631,0.512,1.935,1.343
		c0.16,0.432,0.231,0.976,0.231,1.663c0,1.111-0.231,2.015-0.663,2.551c-0.4,0.504-0.928,0.743-1.663,0.743
		c-0.552,0-1-0.144-1.344-0.432c-0.224-0.184-0.352-0.367-0.56-0.791L123.067,171.758z M125.913,168.943
		c0-0.863-0.64-1.512-1.495-1.512c-0.527,0-1.007,0.256-1.271,0.68c-0.128,0.208-0.207,0.528-0.207,0.84
		c0,0.903,0.552,1.471,1.423,1.471C125.25,170.422,125.913,169.791,125.913,168.943z"/>
	<path d="M131.881,167.552c-0.144,0.112-0.28,0.288-0.592,0.768c-0.72,1.111-1.056,1.791-1.367,2.767
		c-0.208,0.664-0.296,1.071-0.424,1.999h-0.76c0.256-1.447,0.472-2.167,0.968-3.19c0.384-0.8,0.728-1.352,1.439-2.318h-2.599
		c-0.376,0-0.6,0.016-0.903,0.056v-0.68c0.312,0.04,0.527,0.056,0.911,0.056h2.398c0.472,0,0.647-0.008,0.928-0.04V167.552z"/>
</g>
<g>
	<path d="M104.024,171.758c0.096,0.264,0.159,0.376,0.287,0.512c0.225,0.248,0.568,0.376,1.008,0.376
		c0.575,0,0.991-0.232,1.287-0.736c0.152-0.256,0.28-0.647,0.344-1.023c0.032-0.199,0.057-0.527,0.072-0.936
		c-0.112,0.216-0.176,0.296-0.32,0.448c-0.407,0.384-0.855,0.56-1.455,0.56c-0.592,0-1.095-0.184-1.439-0.527
		c-0.344-0.344-0.543-0.872-0.543-1.439c0-1.271,0.855-2.103,2.167-2.103c0.896,0,1.631,0.512,1.935,1.343
		c0.16,0.432,0.231,0.976,0.231,1.663c0,1.111-0.231,2.015-0.663,2.551c-0.4,0.504-0.928,0.743-1.663,0.743
		c-0.552,0-1-0.144-1.344-0.432c-0.224-0.184-0.352-0.367-0.56-0.791L104.024,171.758z M106.87,168.943
		c0-0.863-0.64-1.512-1.495-1.512c-0.527,0-1.007,0.256-1.271,0.68c-0.128,0.208-0.207,0.528-0.207,0.84
		c0,0.903,0.552,1.471,1.423,1.471C106.207,170.422,106.87,169.791,106.87,168.943z"/>
	<path d="M109.456,173.085c-0.504,0-0.624,0.008-0.88,0.04c0.088-0.632,0.112-0.752,0.231-1.056c0.2-0.504,0.536-0.943,1.04-1.375
		c0.279-0.24,0.296-0.248,1.224-0.88c0.791-0.535,1.055-0.888,1.055-1.375c0-0.607-0.512-1-1.327-1
		c-0.527,0-0.919,0.177-1.159,0.521c-0.152,0.216-0.224,0.407-0.28,0.808l-0.671-0.112c0.119-0.575,0.239-0.855,0.504-1.151
		c0.359-0.408,0.903-0.615,1.606-0.615c1.208,0,1.983,0.607,1.983,1.551c0,0.408-0.16,0.791-0.472,1.136
		c-0.24,0.271-0.448,0.423-1.359,1.031c-0.632,0.424-0.888,0.647-1.151,0.983c-0.248,0.328-0.36,0.544-0.456,0.928h2.551
		c0.399,0,0.672-0.017,0.976-0.057v0.672c-0.32-0.032-0.584-0.048-0.983-0.048H109.456z"/>
</g>
<g>
	<path d="M88.067,170.246c0.399,0.296,0.6,0.72,0.6,1.256c0,1.095-0.8,1.711-2.207,1.711c-1.463,0-2.271-0.607-2.271-1.711
		c0-0.576,0.231-1.016,0.712-1.327c0.248-0.16,0.424-0.225,0.72-0.272c-0.704-0.128-1.16-0.695-1.16-1.439
		c0-0.967,0.76-1.583,1.968-1.583c1.223,0,1.975,0.6,1.975,1.583c0,0.744-0.448,1.304-1.159,1.439
		C87.579,169.95,87.804,170.047,88.067,170.246z M84.845,171.462c0,0.76,0.584,1.207,1.575,1.207c0.56,0,1.016-0.144,1.288-0.416
		c0.199-0.184,0.304-0.464,0.304-0.791c0-0.784-0.6-1.256-1.583-1.256C85.444,170.206,84.845,170.687,84.845,171.462z
		 M85.085,168.512c0,0.711,0.512,1.143,1.352,1.143c0.839,0,1.343-0.432,1.343-1.143c0-0.672-0.527-1.096-1.351-1.096
		C85.612,167.416,85.085,167.848,85.085,168.512z"/>
	<path d="M93.795,167.552c-0.144,0.112-0.28,0.288-0.592,0.768c-0.72,1.111-1.056,1.791-1.367,2.767
		c-0.208,0.664-0.296,1.071-0.424,1.999h-0.76c0.256-1.447,0.472-2.167,0.968-3.19c0.384-0.8,0.728-1.352,1.439-2.318h-2.599
		c-0.376,0-0.6,0.016-0.903,0.056v-0.68c0.312,0.04,0.527,0.056,0.911,0.056h2.398c0.472,0,0.647-0.008,0.928-0.04V167.552z"/>
</g>
<g>
	<path d="M69.024,170.246c0.399,0.296,0.6,0.72,0.6,1.256c0,1.095-0.8,1.711-2.207,1.711c-1.463,0-2.271-0.607-2.271-1.711
		c0-0.576,0.231-1.016,0.712-1.327c0.248-0.16,0.424-0.225,0.72-0.272c-0.704-0.128-1.16-0.695-1.16-1.439
		c0-0.967,0.76-1.583,1.968-1.583c1.223,0,1.975,0.6,1.975,1.583c0,0.744-0.448,1.304-1.159,1.439
		C68.536,169.95,68.761,170.047,69.024,170.246z M65.802,171.462c0,0.76,0.584,1.207,1.575,1.207c0.56,0,1.016-0.144,1.288-0.416
		c0.199-0.184,0.304-0.464,0.304-0.791c0-0.784-0.6-1.256-1.583-1.256C66.401,170.206,65.802,170.687,65.802,171.462z
		 M66.042,168.512c0,0.711,0.512,1.143,1.352,1.143c0.839,0,1.343-0.432,1.343-1.143c0-0.672-0.527-1.096-1.351-1.096
		C66.569,167.416,66.042,167.848,66.042,168.512z"/>
	<path d="M71.37,173.085c-0.504,0-0.624,0.008-0.88,0.04c0.088-0.632,0.112-0.752,0.231-1.056c0.2-0.504,0.536-0.943,1.04-1.375
		c0.279-0.24,0.296-0.248,1.224-0.88c0.791-0.535,1.055-0.888,1.055-1.375c0-0.607-0.512-1-1.327-1
		c-0.527,0-0.919,0.177-1.159,0.521c-0.152,0.216-0.224,0.407-0.28,0.808l-0.671-0.112c0.119-0.575,0.239-0.855,0.504-1.151
		c0.359-0.408,0.903-0.615,1.606-0.615c1.208,0,1.983,0.607,1.983,1.551c0,0.408-0.16,0.791-0.472,1.136
		c-0.24,0.271-0.448,0.423-1.359,1.031c-0.632,0.424-0.888,0.647-1.151,0.983c-0.248,0.328-0.36,0.544-0.456,0.928h2.551
		c0.399,0,0.672-0.017,0.976-0.057v0.672c-0.32-0.032-0.584-0.048-0.983-0.048H71.37z"/>
</g>
<g>
	<path d="M50.868,167.552c-0.144,0.112-0.28,0.288-0.592,0.768c-0.72,1.111-1.056,1.791-1.367,2.767
		c-0.208,0.664-0.296,1.071-0.424,1.999h-0.76c0.256-1.447,0.472-2.167,0.968-3.19c0.384-0.8,0.728-1.352,1.439-2.318h-2.599
		c-0.376,0-0.6,0.016-0.903,0.056v-0.68c0.312,0.04,0.527,0.056,0.911,0.056h2.398c0.472,0,0.647-0.008,0.928-0.04V167.552z"/>
	<path d="M56.124,167.552c-0.144,0.112-0.28,0.288-0.592,0.768c-0.72,1.111-1.056,1.791-1.367,2.767
		c-0.208,0.664-0.296,1.071-0.424,1.999h-0.76c0.256-1.447,0.472-2.167,0.968-3.19c0.384-0.8,0.728-1.352,1.439-2.318H52.79
		c-0.376,0-0.6,0.016-0.903,0.056v-0.68c0.312,0.04,0.527,0.056,0.911,0.056h2.398c0.472,0,0.647-0.008,0.928-0.04V167.552z"/>
</g>
<g>
	<path d="M31.41,167.552c-0.144,0.112-0.28,0.288-0.592,0.768c-0.72,1.111-1.056,1.791-1.367,2.767
		c-0.208,0.664-0.296,1.071-0.424,1.999h-0.76c0.256-1.447,0.472-2.167,0.968-3.19c0.384-0.8,0.728-1.352,1.439-2.318h-2.599
		c-0.376,0-0.6,0.016-0.903,0.056v-0.68c0.312,0.04,0.527,0.056,0.911,0.056h2.398c0.472,0,0.647-0.008,0.928-0.04V167.552z"/>
	<path d="M33.284,173.085c-0.504,0-0.624,0.008-0.88,0.04c0.088-0.632,0.112-0.752,0.231-1.056c0.2-0.504,0.536-0.943,1.04-1.375
		c0.279-0.24,0.296-0.248,1.224-0.88c0.791-0.535,1.055-0.888,1.055-1.375c0-0.607-0.512-1-1.327-1
		c-0.527,0-0.919,0.177-1.159,0.521c-0.152,0.216-0.224,0.407-0.28,0.808l-0.671-0.112c0.119-0.575,0.239-0.855,0.504-1.151
		c0.359-0.408,0.903-0.615,1.606-0.615c1.208,0,1.983,0.607,1.983,1.551c0,0.408-0.16,0.791-0.472,1.136
		c-0.24,0.271-0.448,0.423-1.359,1.031c-0.632,0.424-0.888,0.647-1.151,0.983c-0.248,0.328-0.36,0.544-0.456,0.928h2.551
		c0.399,0,0.672-0.017,0.976-0.057v0.672c-0.32-0.032-0.584-0.048-0.983-0.048H33.284z"/>
</g>
<g>
	<path d="M40.659,135.913c0-0.384-0.017-0.663-0.049-0.983c0.265,0.032,0.504,0.04,0.936,0.04h4.781c0.424,0,0.656-0.008,0.952-0.04
		c-0.032,0.296-0.048,0.568-0.048,0.983v4.87c0,0.583,0.016,0.879,0.048,1.095h-0.56v-0.487h-5.549v0.487H40.61
		c0.032-0.216,0.049-0.504,0.049-1.095V135.913z M41.171,140.935h5.549v-5.509h-5.549V140.935z M42.538,136.609
		c-0.344,0-0.536,0.008-0.752,0.04v-0.512c0.224,0.04,0.399,0.048,0.752,0.048h2.822c0.359,0,0.575-0.017,0.783-0.048v0.512
		c-0.224-0.032-0.416-0.04-0.775-0.04h-1.231v1.239h0.983c0.36,0,0.52-0.008,0.72-0.04v0.504c-0.2-0.032-0.384-0.04-0.72-0.04
		h-0.983v1.463h1.344c0.327,0,0.56-0.016,0.783-0.048v0.527c-0.231-0.032-0.472-0.048-0.783-0.048h-3.047
		c-0.328,0-0.552,0.016-0.791,0.048v-0.527c0.224,0.032,0.455,0.048,0.791,0.048h1.207v-1.463h-0.855
		c-0.335,0-0.527,0.008-0.728,0.04v-0.504c0.2,0.032,0.36,0.04,0.728,0.04h0.855v-1.239H42.538z M45.104,138.416
		c0.327,0.328,0.455,0.504,0.751,0.951l-0.375,0.24c-0.28-0.487-0.408-0.664-0.712-0.991L45.104,138.416z"/>
	<path d="M50.034,137.832c-0.464,0.528-0.815,0.855-1.464,1.344c-0.096-0.176-0.159-0.248-0.352-0.408
		c0.592-0.376,1.088-0.808,1.575-1.359c0.36-0.399,0.632-0.791,0.903-1.303h-1.383c-0.368,0-0.624,0.016-0.888,0.048v-0.576
		c0.256,0.032,0.504,0.049,0.888,0.049h1.607c0.176-0.44,0.247-0.672,0.296-1.023l0.583,0.071c-0.04,0.088-0.048,0.112-0.16,0.44
		c-0.071,0.191-0.111,0.312-0.199,0.512h3.19c0.367,0,0.615-0.017,0.871-0.049v0.576c-0.24-0.032-0.536-0.048-0.871-0.048h-3.414
		c-0.2,0.392-0.305,0.56-0.544,0.903h2.918c0.408,0,0.616-0.008,0.855-0.04c-0.023,0.24-0.032,0.52-0.032,0.936v3.206
		c0,0.248-0.071,0.416-0.216,0.512c-0.119,0.08-0.287,0.104-0.655,0.104c-0.231,0-0.552-0.009-0.896-0.032
		c-0.024-0.216-0.048-0.32-0.12-0.512c0.384,0.056,0.688,0.08,1.008,0.08c0.319,0,0.376-0.04,0.376-0.24v-0.976h-3.374v0.855
		c0,0.4,0.008,0.656,0.039,0.912h-0.591c0.031-0.28,0.048-0.568,0.048-0.912V137.832z M53.912,137.465h-3.374v0.848h3.374V137.465z
		 M50.538,138.744v0.871h3.374v-0.871H50.538z"/>
	<path d="M57.61,137.097c-0.2,0-0.352,0.008-0.528,0.032v-0.424c-0.184,0.176-0.256,0.24-0.479,0.416
		c-0.12-0.232-0.12-0.232-0.304-0.408c0.768-0.552,1.231-1.111,1.567-1.895h0.56c0.336,0.623,0.624,0.959,1.231,1.407
		c-0.128,0.136-0.184,0.231-0.288,0.432c-0.6-0.536-0.84-0.815-1.199-1.432c-0.312,0.607-0.592,0.983-1.056,1.447
		c0.136,0.017,0.304,0.024,0.504,0.024h0.983c0.231,0,0.384-0.008,0.527-0.032v0.464c-0.167-0.024-0.296-0.032-0.535-0.032h-0.248
		v0.88h0.336c0.312,0,0.527-0.008,0.72-0.04v0.504c-0.208-0.032-0.4-0.04-0.72-0.04h-0.336v2.238
		c0.376-0.12,0.576-0.191,1.128-0.416l0.016,0.456c-0.76,0.312-1.463,0.544-2.455,0.832c-0.199,0.056-0.271,0.08-0.512,0.159
		l-0.136-0.552c0.312-0.016,0.607-0.079,1.495-0.344V138.4h-0.655c-0.328,0-0.52,0.008-0.744,0.04v-0.504
		c0.2,0.023,0.424,0.04,0.752,0.04h0.647v-0.88H57.61z M57.074,140.639c-0.088-0.632-0.176-1.016-0.384-1.646l0.4-0.137
		c0.184,0.536,0.287,0.928,0.407,1.623L57.074,140.639z M58.657,140.127c0.192-0.504,0.28-0.839,0.353-1.375l0.407,0.16
		c-0.136,0.615-0.208,0.839-0.399,1.359L58.657,140.127z M60.305,136.665c-0.176,0.496-0.271,0.72-0.504,1.136
		c-0.16-0.145-0.256-0.208-0.424-0.28c0.376-0.575,0.624-1.191,0.76-1.919c0.04-0.191,0.056-0.319,0.056-0.479l0.496,0.111
		c-0.048,0.192-0.048,0.208-0.096,0.424s-0.08,0.368-0.145,0.568h0.816c0-0.225,0-0.32,0-0.464c0-0.64-0.009-0.823-0.04-1.056h0.56
		c-0.04,0.224-0.04,0.224-0.048,1.52h0.759c0.416,0,0.632-0.017,0.824-0.048v0.535c-0.232-0.032-0.544-0.048-0.808-0.048h-0.784
		c-0.023,0.735-0.048,1.079-0.096,1.487h1.031c0.353,0,0.64-0.017,0.832-0.048v0.543c-0.264-0.031-0.536-0.048-0.824-0.048h-0.959
		c0.136,0.48,0.344,0.936,0.607,1.344c0.376,0.575,0.808,0.983,1.479,1.383c-0.176,0.168-0.24,0.265-0.352,0.472
		c-1.04-0.735-1.647-1.559-2.016-2.718c-0.375,1.239-0.967,1.99-2.118,2.71c-0.096-0.184-0.2-0.304-0.368-0.439
		c0.616-0.32,0.991-0.607,1.335-1.031c0.393-0.472,0.632-1,0.792-1.72h-0.615c-0.328,0-0.601,0.017-0.808,0.048v-0.543
		c0.199,0.031,0.479,0.048,0.799,0.048h0.696c0.056-0.376,0.08-0.8,0.104-1.487H60.305z"/>
	<path d="M64.403,137.809c0.191,0.032,0.304,0.04,0.607,0.04h0.416c0.231,0,0.415-0.008,0.6-0.04
		c-0.024,0.248-0.032,0.456-0.032,0.831v1.543c0.151,0.353,0.407,0.584,0.8,0.752c0.359,0.152,0.951,0.208,2.095,0.208
		c1.055,0,2.055-0.056,2.774-0.16c-0.104,0.208-0.152,0.368-0.192,0.584c-0.823,0.032-2.022,0.056-2.702,0.056
		c-1.216,0-1.759-0.071-2.215-0.287c-0.344-0.16-0.552-0.345-0.832-0.744c-0.327,0.344-0.479,0.479-1.039,0.928
		c-0.056,0.04-0.104,0.08-0.184,0.16l-0.272-0.528c0.328-0.144,0.8-0.495,1.271-0.951v-1.911h-0.52c-0.264,0-0.384,0.008-0.575,0.04
		V137.809z M64.818,134.842c0.536,0.504,0.864,0.872,1.271,1.407l-0.399,0.352c-0.4-0.6-0.744-0.991-1.239-1.431L64.818,134.842z
		 M67.945,135.546c-0.128-0.225-0.313-0.472-0.561-0.76l0.433-0.192c0.247,0.313,0.384,0.512,0.655,0.952h0.855
		c0.256-0.313,0.456-0.624,0.615-0.96l0.472,0.176c-0.207,0.336-0.375,0.568-0.56,0.784h0.736c0.384,0,0.607-0.017,0.791-0.048v0.52
		c-0.264-0.032-0.504-0.04-0.791-0.04h-1.487c-0.096,0.264-0.168,0.407-0.304,0.663h1.287c0.384,0,0.615-0.008,0.768-0.031
		c-0.024,0.247-0.032,0.495-0.032,0.808v2.175c0,0.319,0.008,0.591,0.032,0.823c-0.16-0.016-0.36-0.024-0.592-0.024h-2.543
		c-0.271,0-0.575,0.009-0.783,0.024c0.016-0.24,0.024-0.504,0.024-0.775v-2.247c0-0.28-0.017-0.6-0.04-0.783
		c0.184,0.023,0.439,0.031,0.839,0.031h0.536c0.136-0.247,0.224-0.439,0.304-0.663h-1.344c-0.384,0-0.56,0.008-0.807,0.032v-0.512
		c0.176,0.031,0.407,0.048,0.815,0.048H67.945z M67.425,139.967h2.919v-0.735h-2.919V139.967z M67.434,137.729h2.91v-0.672h-2.91
		V137.729z M67.434,138.824h2.91v-0.688h-2.91V138.824z"/>
</g>
<g>
	<path d="M75.28,90.193c0.048,0.496,0.071,0.68,0.184,1.128l1.823-0.024c0.463,0,0.647-0.016,0.847-0.056v0.552
		c-0.295-0.024-0.295-0.024-0.839-0.024l-1.703,0.017c0.216,0.671,0.552,1.255,1.016,1.751c0.312,0.336,0.703,0.607,0.871,0.607
		c0.184,0,0.304-0.352,0.376-1.151c0.2,0.168,0.271,0.208,0.479,0.304c-0.176,1.063-0.384,1.423-0.808,1.423
		c-0.439,0-1.087-0.487-1.607-1.215c-0.392-0.544-0.647-1.056-0.855-1.711l-2.351,0.032v2.126c0.84-0.184,1.52-0.375,2.391-0.671
		l0.017,0.495c-1.231,0.408-1.911,0.592-3.271,0.872c-0.191,0.04-0.352,0.08-0.439,0.111l-0.136-0.575
		c0.207-0.008,0.487-0.048,0.919-0.128v-5.117c0-0.392-0.008-0.6-0.032-0.903c0.256,0.031,0.504,0.04,0.936,0.04h3.559
		c0.352,0,0.583-0.009,0.831-0.04c-0.023,0.16-0.023,0.279-0.023,0.64v0.951c0,0.296,0.008,0.448,0.023,0.592
		c-0.239-0.016-0.472-0.024-0.791-0.024H75.28z M72.713,89.746h4.246V88.53h-4.246V89.746z M72.713,90.193v1.16l2.231-0.024
		c-0.08-0.384-0.128-0.672-0.185-1.136H72.713z"/>
	<path d="M80.945,88.698c-0.185-0.352-0.32-0.552-0.608-0.896l0.48-0.136c0.296,0.384,0.439,0.607,0.663,1.031h1.12
		c-0.152-0.392-0.313-0.703-0.536-1.031l0.496-0.112c0.224,0.393,0.392,0.72,0.567,1.144h0.84c0.312-0.407,0.463-0.655,0.688-1.135
		l0.512,0.184c-0.256,0.424-0.392,0.632-0.64,0.951h0.647c0.424,0,0.632-0.008,0.888-0.031c-0.024,0.184-0.032,0.359-0.032,0.671
		v0.656c0,0.231,0.008,0.384,0.04,0.575h-0.544V89.13h-5.581v1.439H79.41c0.023-0.184,0.04-0.376,0.04-0.567v-0.664
		c0-0.279-0.008-0.424-0.032-0.671c0.264,0.023,0.479,0.031,0.88,0.031H80.945z M81.425,91.641c-0.496,0-0.615,0.008-0.855,0.032
		c0.023-0.191,0.032-0.344,0.032-0.64v-0.695c0-0.28-0.009-0.448-0.032-0.6c0.24,0.023,0.456,0.031,0.775,0.031h2.774
		c0.32,0,0.528-0.008,0.768-0.031c-0.016,0.144-0.023,0.296-0.023,0.607v0.688c0,0.344,0.008,0.456,0.031,0.64
		c-0.287-0.024-0.455-0.032-0.855-0.032H82.84c-0.111,0.272-0.248,0.536-0.384,0.784h2.287c0.352,0,0.544-0.009,0.76-0.032
		c-0.032,0.216-0.04,0.392-0.04,0.752v0.919c0,0.328,0.008,0.544,0.048,0.775h-0.544v-0.327h-4.478v0.319h-0.544
		c0.032-0.248,0.048-0.487,0.048-0.768v-0.919c0-0.344-0.008-0.528-0.039-0.752c0.216,0.023,0.415,0.032,0.768,0.032h1.215
		c0.144-0.232,0.271-0.496,0.384-0.784H81.425z M80.489,94.063h4.478v-1.199h-4.478V94.063z M81.089,91.226h3.286v-1.04h-3.286
		V91.226z"/>
	<path d="M88.394,90.098c-0.2,0-0.352,0.008-0.528,0.032v-0.424c-0.184,0.176-0.256,0.24-0.479,0.416
		c-0.12-0.232-0.12-0.232-0.304-0.408c0.768-0.552,1.231-1.111,1.567-1.895h0.56c0.336,0.623,0.624,0.959,1.231,1.407
		c-0.128,0.136-0.184,0.231-0.288,0.432c-0.6-0.536-0.84-0.815-1.199-1.432c-0.312,0.607-0.592,0.983-1.056,1.447
		c0.136,0.017,0.304,0.024,0.504,0.024h0.983c0.231,0,0.384-0.008,0.527-0.032v0.464c-0.167-0.024-0.296-0.032-0.535-0.032h-0.248
		v0.88h0.336c0.312,0,0.527-0.008,0.72-0.04v0.504c-0.208-0.032-0.4-0.04-0.72-0.04h-0.336v2.238
		c0.376-0.12,0.576-0.191,1.128-0.416l0.016,0.456c-0.76,0.312-1.463,0.544-2.455,0.832c-0.199,0.056-0.271,0.08-0.512,0.159
		l-0.136-0.552c0.312-0.016,0.607-0.079,1.495-0.344v-2.374H88.01c-0.328,0-0.52,0.008-0.744,0.04v-0.504
		c0.2,0.023,0.424,0.04,0.752,0.04h0.647v-0.88H88.394z M87.857,93.64c-0.088-0.632-0.176-1.016-0.384-1.646l0.4-0.137
		c0.184,0.536,0.287,0.928,0.407,1.623L87.857,93.64z M89.44,93.128c0.192-0.504,0.28-0.839,0.353-1.375l0.407,0.16
		c-0.136,0.615-0.208,0.839-0.399,1.359L89.44,93.128z M91.088,89.666c-0.176,0.496-0.271,0.72-0.504,1.136
		c-0.16-0.145-0.256-0.208-0.424-0.28c0.376-0.575,0.624-1.191,0.76-1.919c0.04-0.191,0.056-0.319,0.056-0.479l0.496,0.111
		c-0.048,0.192-0.048,0.208-0.096,0.424s-0.08,0.368-0.145,0.568h0.816c0-0.225,0-0.32,0-0.464c0-0.64-0.009-0.823-0.04-1.056h0.56
		c-0.04,0.224-0.04,0.224-0.048,1.52h0.759c0.416,0,0.632-0.017,0.824-0.048v0.535c-0.232-0.032-0.544-0.048-0.808-0.048h-0.784
		c-0.023,0.735-0.048,1.079-0.096,1.487h1.031c0.353,0,0.64-0.017,0.832-0.048v0.543c-0.264-0.031-0.536-0.048-0.824-0.048h-0.959
		c0.136,0.48,0.344,0.936,0.607,1.344c0.376,0.575,0.808,0.983,1.479,1.383c-0.176,0.168-0.24,0.265-0.352,0.472
		c-1.04-0.735-1.647-1.559-2.016-2.718c-0.375,1.239-0.967,1.99-2.118,2.71c-0.096-0.184-0.2-0.304-0.368-0.439
		c0.616-0.32,0.991-0.607,1.335-1.031c0.393-0.472,0.632-1,0.792-1.72H91.24c-0.328,0-0.601,0.017-0.808,0.048v-0.543
		c0.199,0.031,0.479,0.048,0.799,0.048h0.696c0.056-0.376,0.08-0.8,0.104-1.487H91.088z"/>
	<path d="M95.187,90.81c0.191,0.032,0.304,0.04,0.607,0.04h0.416c0.231,0,0.415-0.008,0.6-0.04
		c-0.024,0.248-0.032,0.456-0.032,0.831v1.543c0.151,0.353,0.407,0.584,0.8,0.752c0.359,0.152,0.951,0.208,2.095,0.208
		c1.055,0,2.055-0.056,2.774-0.16c-0.104,0.208-0.152,0.368-0.192,0.584c-0.823,0.032-2.022,0.056-2.702,0.056
		c-1.216,0-1.759-0.071-2.215-0.287c-0.344-0.16-0.552-0.345-0.832-0.744c-0.327,0.344-0.479,0.479-1.039,0.928
		c-0.056,0.04-0.104,0.08-0.184,0.16l-0.272-0.528c0.328-0.144,0.8-0.495,1.271-0.951v-1.911h-0.52c-0.264,0-0.384,0.008-0.575,0.04
		V90.81z M95.602,87.843c0.536,0.504,0.864,0.872,1.271,1.407l-0.399,0.352c-0.4-0.6-0.744-0.991-1.239-1.431L95.602,87.843z
		 M98.729,88.547c-0.128-0.225-0.313-0.472-0.561-0.76l0.433-0.192c0.247,0.313,0.384,0.512,0.655,0.952h0.855
		c0.256-0.313,0.456-0.624,0.615-0.96l0.472,0.176c-0.207,0.336-0.375,0.568-0.56,0.784h0.736c0.384,0,0.607-0.017,0.791-0.048v0.52
		c-0.264-0.032-0.504-0.04-0.791-0.04h-1.487c-0.096,0.264-0.168,0.407-0.304,0.663h1.287c0.384,0,0.615-0.008,0.768-0.031
		c-0.024,0.247-0.032,0.495-0.032,0.808v2.175c0,0.319,0.008,0.591,0.032,0.823c-0.16-0.016-0.36-0.024-0.592-0.024h-2.543
		c-0.271,0-0.575,0.009-0.783,0.024c0.016-0.24,0.024-0.504,0.024-0.775v-2.247c0-0.28-0.017-0.6-0.04-0.783
		c0.184,0.023,0.439,0.031,0.839,0.031h0.536c0.136-0.247,0.224-0.439,0.304-0.663H98.04c-0.384,0-0.56,0.008-0.807,0.032v-0.512
		c0.176,0.031,0.407,0.048,0.815,0.048H98.729z M98.208,92.968h2.919v-0.735h-2.919V92.968z M98.217,90.729h2.91v-0.672h-2.91
		V90.729z M98.217,91.825h2.91v-0.688h-2.91V91.825z"/>
</g>
<path fill="none" stroke="#000000" stroke-width="0.5" stroke-miterlimit="10" d="M106.434,91.272c0,2.969-2.406,5.375-5.375,5.375
	H72.684c-2.969,0-5.375-2.406-5.375-5.375l0,0c0-2.969,2.406-5.375,5.375-5.375h28.375
	C104.027,85.897,106.434,88.304,106.434,91.272L106.434,91.272z"/>
<polyline fill="none" stroke="#000000" stroke-width="0.5" stroke-miterlimit="10" points="56.088,143.646 56.088,150.397 
	70.738,159.244 "/>
<polyline fill="none" stroke="#000000" stroke-width="0.5" stroke-miterlimit="10" points="86.455,96.647 86.455,99.898 
	108.104,108.229 "/>
</svg>
