<?xml version="1.0" encoding="utf-8"?>
<!-- Generator: Adobe Illustrator 16.0.3, SVG Export Plug-In . SVG Version: 6.00 Build 0)  -->
<!DOCTYPE svg PUBLIC "-//W3C//DTD SVG 1.1//EN" "http://www.w3.org/Graphics/SVG/1.1/DTD/svg11.dtd">
<svg version="1.1" id="レイヤー_1" xmlns="http://www.w3.org/2000/svg" xmlns:xlink="http://www.w3.org/1999/xlink" x="0px"
	 y="0px" width="147.688px" height="78.479px" viewBox="0 0 147.688 78.479" enable-background="new 0 0 147.688 78.479"
	 xml:space="preserve">
<g>
	<path d="M12.847,40.052c0.693-1.449,1.377-3.457,1.513-4.465l0.692,0.234c-0.09,0.216-0.09,0.216-0.359,1.089
		c-0.343,1.107-0.747,2.169-1.207,3.142h2.08c0.414,0,0.72-0.018,0.99-0.054v0.684c-0.288-0.045-0.549-0.063-0.99-0.063H9.57
		c-0.45,0-0.747,0.018-1.035,0.063v-0.684c0.288,0.036,0.594,0.054,1.035,0.054H12.847z M12.171,33.868
		c0-0.261-0.018-0.459-0.063-0.738h0.711c-0.045,0.261-0.063,0.486-0.063,0.729v0.738h2.403c0.45,0,0.756-0.018,1.035-0.063v0.675
		c-0.297-0.036-0.603-0.054-1.035-0.054H9.885c-0.414,0-0.711,0.018-0.999,0.054v-0.675c0.252,0.045,0.549,0.063,0.999,0.063h2.286
		V33.868z M10.686,35.686c0.433,1.18,0.685,2.08,0.973,3.556l-0.585,0.225c-0.234-1.341-0.55-2.485-0.981-3.565L10.686,35.686z"/>
	<path d="M17.481,40.62c0.566-0.468,0.846-0.801,1.152-1.396l0.495,0.27c-0.378,0.648-0.685,1.036-1.197,1.513L17.481,40.62z
		 M19.417,35.164c-0.333,0-0.55,0.009-0.802,0.036v-0.496c0.217,0.036,0.424,0.045,0.802,0.045h1.818
		c-0.009-0.198-0.018-0.288-0.045-0.405h0.604c-0.027,0.126-0.036,0.216-0.046,0.405h1.909c0.405,0,0.603-0.009,0.828-0.045V35.2
		c-0.234-0.027-0.378-0.036-0.828-0.036h-1.909v0.468h1.756c0.486,0,0.63-0.009,0.828-0.036v0.477
		c-0.207-0.027-0.36-0.036-0.828-0.036h-1.756v0.468h2.936c0.351,0,0.603-0.018,0.837-0.054v0.531
		c-0.27-0.036-0.495-0.054-0.837-0.054h-6.257c-0.333,0-0.559,0.009-0.838,0.054v-0.531c0.234,0.045,0.424,0.054,0.838,0.054h2.809
		v-0.468h-1.639c-0.333,0-0.522,0.009-0.801,0.036v-0.477c0.252,0.027,0.45,0.036,0.801,0.036h1.639v-0.468H19.417z M21.19,33.58
		c0-0.261-0.019-0.396-0.054-0.594h0.666c-0.036,0.189-0.045,0.324-0.045,0.594v0.144h2.395c0.603,0,0.918-0.009,1.179-0.036
		c-0.026,0.216-0.035,0.324-0.035,0.621v0.27c0,0.243,0.009,0.387,0.035,0.549h-0.585v-0.945h-6.4v0.937h-0.576
		c0.026-0.153,0.036-0.279,0.036-0.531v-0.324c0-0.207-0.01-0.351-0.036-0.576c0.252,0.027,0.549,0.036,1.098,0.036h2.323V33.58z
		 M24.701,38.342c0,0.243,0.009,0.378,0.036,0.594c-0.216-0.027-0.45-0.036-0.756-0.036h-4.889c-0.307,0-0.514,0.009-0.738,0.036
		c0.027-0.216,0.036-0.378,0.036-0.603v-0.396c0-0.234-0.009-0.405-0.036-0.622c0.225,0.027,0.405,0.036,0.766,0.036h4.852
		c0.36,0,0.541-0.009,0.766-0.036c-0.027,0.216-0.036,0.36-0.036,0.612V38.342z M20.326,37.757H18.93v0.738h1.396V37.757z
		 M20.398,39.125c-0.036,0.207-0.046,0.342-0.046,0.594v0.639c0,0.207,0.055,0.216,1.216,0.216c1.206,0,1.432-0.027,1.558-0.18
		c0.072-0.099,0.135-0.342,0.162-0.72c0.144,0.09,0.333,0.171,0.513,0.225c-0.063,0.495-0.188,0.81-0.359,0.945
		c-0.208,0.162-0.622,0.207-1.972,0.207c-1.423,0-1.657-0.072-1.657-0.495v-0.792c0-0.261-0.009-0.423-0.045-0.639H20.398z
		 M22.216,37.757h-1.368v0.738h1.368V37.757z M22.234,40.161c-0.432-0.36-0.738-0.559-1.27-0.829l0.298-0.333
		c0.54,0.261,0.801,0.405,1.314,0.765L22.234,40.161z M24.152,38.495v-0.738h-1.414v0.738H24.152z M25.088,40.979
		c-0.433-0.666-0.748-1.035-1.279-1.512l0.405-0.315c0.531,0.45,0.847,0.792,1.351,1.44L25.088,40.979z"/>
	<path d="M29.676,35.767c0,0.459,0.01,0.711,0.036,0.972c-0.288-0.027-0.531-0.036-0.999-0.036h-1.342v2.547
		c0,0.342,0.1,0.387,0.828,0.387c0.604,0,0.928-0.054,1.054-0.162c0.117-0.108,0.189-0.477,0.189-0.972v-0.135
		c0-0.063,0-0.117,0-0.153c0.207,0.126,0.369,0.198,0.566,0.261c-0.045,0.774-0.135,1.197-0.297,1.377
		c-0.207,0.234-0.639,0.324-1.521,0.324c-1.17,0-1.377-0.126-1.377-0.819v-2.206c0-0.496-0.009-0.748-0.045-1
		c0.27,0.027,0.521,0.036,0.918,0.036h1.44v-2.026h-1.504c-0.378,0-0.63,0.009-0.899,0.045v-0.621
		c0.233,0.036,0.504,0.054,0.899,0.054h1.171c0.378,0,0.63-0.009,0.918-0.045c-0.026,0.288-0.036,0.522-0.036,0.909V35.767z
		 M33.701,35.137c-0.054,0.72-0.126,1.152-0.279,1.701c-0.216,0.756-0.521,1.404-0.963,2.026c0.306,0.378,0.576,0.639,1.008,0.972
		c0.433,0.351,0.685,0.504,1.297,0.792c-0.189,0.216-0.271,0.342-0.378,0.567c-0.909-0.495-1.72-1.152-2.287-1.873
		c-0.279,0.333-0.594,0.621-0.999,0.936c-0.522,0.405-0.928,0.64-1.639,0.973c-0.099-0.243-0.188-0.378-0.351-0.549
		c1.053-0.378,1.962-0.99,2.655-1.81c-0.567-0.864-0.846-1.54-1.035-2.575c-0.297,0.54-0.433,0.756-0.721,1.134
		c-0.144-0.153-0.261-0.243-0.459-0.351c0.729-0.855,1.243-1.936,1.549-3.25c0.081-0.378,0.126-0.621,0.144-0.882l0.631,0.126
		c-0.036,0.099-0.063,0.207-0.145,0.549c-0.081,0.315-0.18,0.675-0.279,1h2.368c0.405,0,0.648-0.018,0.855-0.054v0.612
		c-0.226-0.036-0.423-0.045-0.828-0.045H33.701z M31.27,35.137c-0.072,0.198-0.108,0.279-0.189,0.468
		c0.172,1.134,0.469,1.917,1.045,2.791c0.351-0.54,0.585-1.053,0.765-1.729c0.136-0.513,0.181-0.801,0.243-1.53H31.27z"/>
	<path d="M35.543,36.595c0.207,0.036,0.369,0.045,0.693,0.045h0.468c0.262,0,0.478-0.018,0.693-0.045
		c-0.036,0.279-0.045,0.504-0.045,0.955v1.747c0.226,0.468,0.405,0.666,0.802,0.837c0.45,0.189,0.99,0.261,2.062,0.261
		c1.639,0,2.736-0.054,3.583-0.18c-0.126,0.288-0.162,0.396-0.207,0.667c-0.855,0.036-1.98,0.054-2.936,0.054
		c-1.602,0-2.133-0.063-2.664-0.315c-0.369-0.171-0.666-0.441-0.937-0.855c-0.414,0.423-0.612,0.594-1.089,0.963
		c-0.081,0.054-0.145,0.108-0.324,0.27l-0.298-0.594c0.396-0.18,0.919-0.576,1.45-1.089v-2.169h-0.595
		c-0.297,0-0.45,0.009-0.657,0.045V36.595z M36.174,33.264c0.585,0.559,0.99,1,1.44,1.594l-0.46,0.405
		c-0.513-0.729-0.783-1.054-1.404-1.63L36.174,33.264z M41.305,38.999h1.314c0.45,0,0.666-0.009,0.873-0.045v0.576
		c-0.252-0.027-0.531-0.045-0.873-0.045h-3.412c-0.297,0-0.459,0.009-0.729,0.045c0.035-0.27,0.045-0.504,0.045-0.927v-2.35
		c0.009-0.279,0.018-0.549,0.036-0.811c-0.262,0.396-0.505,0.675-0.811,0.973c-0.153-0.216-0.171-0.243-0.388-0.387
		c0.622-0.576,0.919-0.927,1.27-1.521c0.324-0.531,0.559-1.098,0.612-1.44l0.576,0.135c-0.054,0.099-0.054,0.099-0.198,0.45
		c-0.081,0.207-0.252,0.549-0.396,0.801h1.539c0.288-0.486,0.504-0.954,0.604-1.341l0.585,0.153
		c-0.054,0.081-0.09,0.145-0.261,0.496c-0.117,0.234-0.243,0.477-0.379,0.693h1.216c0.387,0,0.63-0.009,0.847-0.045v0.567
		c-0.234-0.027-0.46-0.036-0.802-0.036h-1.27v0.99h0.919c0.45,0,0.692-0.009,0.882-0.036v0.54c-0.243-0.027-0.459-0.036-0.882-0.036
		h-0.919v1.008h0.919c0.45,0,0.692-0.009,0.882-0.036v0.54c-0.243-0.027-0.459-0.036-0.882-0.036h-0.919V38.999z M40.784,34.939
		h-1.711v0.99h1.711V34.939z M40.784,36.397h-1.711v1.008h1.711V36.397z M39.073,37.874v1.125h1.711v-1.125H39.073z"/>
	<path d="M46.893,38.225c-0.378,0-0.621,0.009-0.81,0.036c0.009-0.126,0.018-0.198,0.018-0.252v-0.18l0.009-0.324v-0.981
		c0-0.297-0.009-0.468-0.026-0.693c0.207,0.027,0.477,0.036,0.765,0.036h3.431c0.342,0,0.566-0.009,0.738-0.036
		c-0.019,0.189-0.027,0.36-0.027,0.711v0.963c0,0.468,0.009,0.594,0.027,0.756c-0.262-0.027-0.559-0.036-0.883-0.036h-0.585v1.999
		c0,0.261,0.081,0.288,0.918,0.288c0.999,0,1.197-0.036,1.323-0.225c0.117-0.171,0.171-0.513,0.207-1.162
		c0.226,0.126,0.369,0.189,0.567,0.243c-0.107,0.927-0.216,1.26-0.468,1.458c-0.216,0.162-0.604,0.216-1.603,0.216
		c-1.278,0-1.513-0.099-1.513-0.63v-2.188h-1.026c-0.054,0.459-0.099,0.684-0.207,0.963c-0.279,0.738-0.873,1.314-1.737,1.684
		c-0.342,0.144-0.612,0.225-1.18,0.351c-0.09-0.225-0.162-0.351-0.314-0.567c1.008-0.153,1.674-0.405,2.151-0.811
		c0.45-0.387,0.639-0.828,0.711-1.62H46.893z M48.171,33.714c0-0.243-0.018-0.468-0.045-0.675h0.657
		c-0.026,0.207-0.045,0.423-0.045,0.675v0.918h0.945c0.45-0.504,0.676-0.819,0.954-1.351l0.55,0.279
		c-0.388,0.513-0.604,0.774-0.883,1.071h1.026c0.522,0,0.747-0.009,0.999-0.036c-0.026,0.234-0.035,0.459-0.035,0.819v0.522
		c0,0.18,0.009,0.324,0.035,0.504h-0.594v-1.323H45.39v1.323h-0.595c0.027-0.216,0.036-0.387,0.036-0.549v-0.576
		c0-0.288-0.009-0.495-0.036-0.72c0.234,0.027,0.478,0.036,0.945,0.036h0.928c-0.226-0.387-0.459-0.675-0.847-1.063l0.505-0.225
		c0.495,0.559,0.621,0.729,0.945,1.288h0.899V33.714z M46.66,37.739h3.781v-1.386H46.66V37.739z"/>
</g>
<g>
	<path d="M52.247,7.281c-0.126,0-0.196-0.105-0.196-0.252s0.07-0.238,0.196-0.238h2.599V6.189c0-0.126,0.098-0.196,0.252-0.196
		s0.267,0.07,0.267,0.196v0.602h2.717c0.127,0,0.196,0.091,0.196,0.238c0,0.14-0.069,0.252-0.196,0.252h-2.374
		c0.589,0.63,1.563,1.226,2.438,1.513c0.126,0.042,0.189,0.14,0.189,0.259c0,0.035-0.008,0.077-0.021,0.112
		c-0.042,0.119-0.146,0.182-0.259,0.182c-0.035,0-0.07-0.007-0.105-0.021c-0.98-0.378-2.045-1.086-2.633-1.842
		c0.027,0.154,0.049,0.35,0.049,0.511v1.429c0,0.119-0.112,0.196-0.267,0.196s-0.252-0.077-0.252-0.196V7.996
		c0-0.168,0.014-0.364,0.049-0.511c-0.595,0.735-1.499,1.401-2.514,1.828c-0.043,0.021-0.085,0.028-0.127,0.028
		c-0.104,0-0.195-0.063-0.237-0.182c-0.021-0.042-0.028-0.084-0.028-0.126c0-0.098,0.056-0.175,0.168-0.224
		c0.96-0.371,1.793-0.932,2.347-1.527H52.247z M56.533,3.563c0.302,0,0.47,0.175,0.47,0.385c0,0.105-0.049,0.224-0.147,0.329
		c-0.336,0.336-0.707,0.637-1.12,0.903c0.714,0.343,1.526,0.561,2.423,0.687c0.147,0.021,0.231,0.112,0.231,0.245
		c0,0.021,0,0.049-0.007,0.07c-0.028,0.161-0.126,0.231-0.252,0.231c-0.021,0-0.035,0-0.057-0.007
		c-1.051-0.154-2.01-0.462-2.836-0.938c-0.883,0.476-1.885,0.798-2.928,0.967c-0.021,0.007-0.042,0.007-0.063,0.007
		c-0.126,0-0.217-0.084-0.23-0.224c-0.008-0.014-0.008-0.028-0.008-0.049c0-0.119,0.07-0.224,0.203-0.245
		c0.925-0.133,1.793-0.392,2.55-0.749c-0.351-0.238-0.673-0.519-0.96-0.833c-0.356,0.308-0.756,0.588-1.169,0.784
		c-0.049,0.021-0.092,0.028-0.134,0.028c-0.091,0-0.175-0.049-0.224-0.14C52.253,4.97,52.24,4.921,52.24,4.886
		c0-0.084,0.049-0.161,0.141-0.203c0.868-0.42,1.498-0.995,1.891-1.576c0.049-0.063,0.133-0.098,0.231-0.098
		c0.034,0,0.069,0.007,0.104,0.014c0.112,0.035,0.183,0.119,0.183,0.203c0,0.042-0.015,0.077-0.042,0.112
		c-0.05,0.07-0.105,0.147-0.168,0.224H56.533z M54.173,4.003c-0.015,0.014-0.028,0.021-0.035,0.035
		c0.329,0.336,0.7,0.645,1.106,0.882c0.392-0.231,0.749-0.49,1.051-0.784c0.042-0.042,0.063-0.07,0.063-0.091
		c0-0.028-0.042-0.042-0.112-0.042H54.173z"/>
	<path d="M60.192,6.595c-0.371,0.035-0.735,0.056-1.071,0.07c-0.007,0-0.007,0-0.014,0c-0.126,0-0.203-0.084-0.21-0.245
		c0-0.147,0.077-0.245,0.203-0.245c0.035,0,0.069,0,0.104,0c0.105,0,0.218,0,0.329-0.007c0.176-0.203,0.337-0.413,0.49-0.63
		c-0.294-0.364-0.658-0.743-0.966-1.009c-0.042-0.049-0.063-0.105-0.063-0.161c0-0.063,0.028-0.126,0.07-0.175
		c0.056-0.063,0.126-0.098,0.188-0.098c0.042,0,0.084,0.014,0.119,0.049c0.063,0.056,0.119,0.112,0.189,0.175
		c0.238-0.357,0.47-0.785,0.63-1.121c0.042-0.084,0.105-0.119,0.183-0.119c0.042,0,0.084,0.014,0.133,0.035
		c0.099,0.042,0.161,0.119,0.161,0.21c0,0.028-0.007,0.063-0.021,0.098c-0.183,0.364-0.441,0.805-0.75,1.232
		c0.147,0.154,0.287,0.315,0.421,0.477c0.272-0.393,0.532-0.792,0.735-1.156c0.049-0.077,0.126-0.119,0.203-0.119
		c0.042,0,0.084,0.014,0.126,0.035c0.091,0.049,0.153,0.126,0.153,0.217c0,0.035-0.007,0.07-0.034,0.105
		c-0.357,0.595-0.89,1.358-1.38,1.926c0.35-0.014,0.693-0.056,1.036-0.098c-0.07-0.161-0.14-0.315-0.203-0.441
		c-0.014-0.028-0.021-0.056-0.021-0.084c0-0.077,0.049-0.14,0.133-0.175c0.042-0.021,0.084-0.028,0.119-0.028
		c0.07,0,0.133,0.035,0.175,0.119c0.175,0.33,0.399,0.806,0.519,1.156c0.014,0.021,0.014,0.035,0.014,0.056
		c0,0.091-0.077,0.161-0.175,0.203c-0.035,0.014-0.07,0.021-0.112,0.021c-0.077,0-0.146-0.042-0.175-0.119
		c-0.028-0.091-0.063-0.189-0.099-0.294c-0.21,0.035-0.427,0.063-0.637,0.084v2.872c0,0.119-0.105,0.189-0.252,0.189
		c-0.147,0-0.253-0.07-0.253-0.189V6.595z M59.177,9.109c-0.028,0-0.063-0.007-0.092-0.014c-0.104-0.035-0.182-0.112-0.182-0.203
		c0-0.028,0.007-0.056,0.021-0.084c0.189-0.448,0.322-1.106,0.379-1.604c0.014-0.14,0.091-0.203,0.21-0.203
		c0.014,0,0.035,0,0.056,0.007c0.126,0.021,0.218,0.084,0.218,0.189c0,0.014,0,0.021,0,0.028c-0.057,0.567-0.189,1.247-0.386,1.737
		C59.366,9.06,59.275,9.109,59.177,9.109z M61.859,8.598c0,0.119-0.091,0.203-0.217,0.217c-0.021,0.007-0.042,0.007-0.056,0.007
		c-0.105,0-0.189-0.056-0.21-0.182c-0.063-0.406-0.183-1.016-0.302-1.401c-0.007-0.021-0.007-0.042-0.007-0.056
		c0-0.084,0.063-0.154,0.161-0.182c0.028-0.007,0.056-0.014,0.084-0.014c0.091,0,0.168,0.042,0.203,0.14
		c0.126,0.385,0.273,1.001,0.343,1.436C61.859,8.577,61.859,8.584,61.859,8.598z M62.686,4.669
		c-0.183,0.364-0.393,0.708-0.616,0.987c-0.05,0.063-0.119,0.098-0.196,0.098c-0.063,0-0.119-0.021-0.168-0.07
		c-0.063-0.063-0.099-0.14-0.099-0.21c0-0.063,0.021-0.119,0.063-0.168c0.427-0.518,0.777-1.232,1.008-2.038
		c0.035-0.112,0.119-0.161,0.225-0.161c0.028,0,0.056,0.007,0.091,0.014c0.126,0.028,0.203,0.098,0.203,0.21
		c0,0.028-0.007,0.049-0.014,0.084c-0.07,0.245-0.161,0.498-0.267,0.756h1.66c0.428,0,0.638,0.182,0.638,0.63
		c0,1.688-0.134,3.096-0.351,3.937c-0.14,0.539-0.427,0.707-1.022,0.707c-0.329,0-0.574-0.021-0.771-0.07
		c-0.104-0.021-0.175-0.126-0.175-0.252c0-0.028,0-0.049,0.007-0.077c0.028-0.133,0.112-0.217,0.224-0.217
		c0.021,0,0.05,0,0.07,0.007c0.168,0.049,0.351,0.07,0.609,0.07c0.336,0,0.455-0.049,0.539-0.385c0.183-0.7,0.322-2.164,0.322-3.621
		c0-0.175-0.063-0.231-0.23-0.231H62.686z M62.713,5.601c0.077,0,0.154,0.035,0.203,0.105c0.302,0.413,0.638,1.001,0.834,1.457
		c0.014,0.035,0.021,0.07,0.021,0.105c0,0.098-0.056,0.189-0.161,0.245c-0.056,0.021-0.104,0.035-0.153,0.035
		c-0.099,0-0.183-0.056-0.231-0.168c-0.175-0.441-0.462-0.967-0.757-1.394c-0.035-0.049-0.049-0.091-0.049-0.133
		c0-0.084,0.049-0.154,0.133-0.203C62.602,5.614,62.658,5.601,62.713,5.601z"/>
	<path d="M68.523,5.404c0,0.448-0.203,0.63-0.616,0.63h-1.044c-0.161,0-0.224,0.049-0.224,0.217V8.08
		c0,0.203,0.056,0.259,0.672,0.259c0.617,0,0.735-0.049,0.806-0.203c0.07-0.133,0.099-0.357,0.099-0.658
		c0.007-0.147,0.111-0.217,0.259-0.217c0.007,0,0.014,0,0.021,0c0.147,0.007,0.26,0.084,0.26,0.231c0,0.007,0,0.007,0,0.014
		c-0.015,0.357-0.063,0.666-0.141,0.854c-0.034,0.084-0.077,0.147-0.133,0.203c-0.049,0.042-0.098,0.077-0.154,0.105
		c-0.188,0.112-0.483,0.161-0.952,0.161c-0.084,0-0.175,0-0.267-0.007C66.261,8.808,66.1,8.64,66.1,8.22V6.154
		c0-0.441,0.203-0.609,0.651-0.609h1.022c0.161,0,0.23-0.042,0.23-0.21V4.221c0-0.175-0.069-0.224-0.23-0.224h-1.492
		c-0.133,0-0.203-0.105-0.203-0.252c0-0.147,0.07-0.245,0.203-0.245h1.639c0.413,0,0.603,0.161,0.603,0.602V5.404z M71.696,4.816
		c-0.007,0.056-0.014,0.112-0.021,0.168c-0.007,0.133-0.021,0.273-0.042,0.399c-0.104,0.819-0.427,1.681-0.903,2.353
		c0.428,0.512,0.96,0.925,1.569,1.219c0.084,0.049,0.119,0.133,0.119,0.217c0,0.07-0.021,0.14-0.057,0.196
		c-0.056,0.098-0.146,0.14-0.245,0.14c-0.056,0-0.111-0.014-0.161-0.049c-0.623-0.357-1.142-0.792-1.562-1.296
		c-0.462,0.54-1.051,0.988-1.744,1.324c-0.056,0.028-0.112,0.042-0.168,0.042c-0.091,0-0.182-0.042-0.231-0.154
		c-0.027-0.042-0.034-0.091-0.034-0.133c0-0.105,0.063-0.196,0.161-0.245c0.658-0.294,1.239-0.714,1.694-1.261
		c-0.385-0.581-0.658-1.232-0.798-1.926C69.161,6,69.035,6.203,68.909,6.371c-0.042,0.063-0.119,0.098-0.196,0.098
		c-0.049,0-0.099-0.021-0.147-0.056c-0.063-0.056-0.098-0.126-0.098-0.203c0-0.049,0.021-0.098,0.056-0.147
		c0.554-0.7,0.987-1.807,1.155-2.78c0.028-0.133,0.119-0.189,0.238-0.189c0.015,0,0.035,0,0.057,0.007
		c0.133,0.014,0.224,0.091,0.224,0.224c0,0.021,0,0.042-0.007,0.07c-0.056,0.28-0.14,0.603-0.252,0.925h2.318
		c0.126,0,0.203,0.091,0.203,0.245c0,0.14-0.077,0.252-0.203,0.252H71.696z M69.755,4.816c-0.049,0.119-0.098,0.238-0.146,0.357
		c0.049,0.287,0.098,0.567,0.188,0.847c0.141,0.448,0.344,0.883,0.603,1.282c0.309-0.483,0.532-1.016,0.658-1.569
		c0.07-0.308,0.092-0.602,0.112-0.917H69.755z"/>
	<path d="M73.471,3.961c-0.134,0-0.21-0.112-0.21-0.259c0-0.147,0.076-0.259,0.21-0.259h5.448c0.127,0,0.211,0.112,0.211,0.259
		c0,0.147-0.084,0.259-0.211,0.259h-2.275v1.961h1.968c0.133,0,0.21,0.105,0.21,0.252s-0.077,0.252-0.21,0.252h-1.968v2.276h2.493
		c0.126,0,0.21,0.112,0.21,0.259c0,0.147-0.084,0.259-0.21,0.259h-5.953c-0.134,0-0.21-0.112-0.21-0.259
		c0-0.147,0.076-0.259,0.21-0.259h0.952v-3.11c0-0.126,0.133-0.203,0.287-0.203s0.287,0.077,0.287,0.203v3.11h1.359V3.961H73.471z"
		/>
	<path d="M80.759,9.369c0,0.14-0.105,0.21-0.268,0.21c-0.154,0-0.265-0.07-0.265-0.21V3.842c0-0.371,0.175-0.539,0.574-0.539h1.479
		c0.398,0,0.574,0.147,0.574,0.511V5.18c0,0.364-0.176,0.511-0.574,0.511h-1.52V9.369z M82.354,3.905
		c0-0.133-0.076-0.182-0.209-0.182h-1.199c-0.125,0-0.188,0.049-0.188,0.182v0.385h1.596V3.905z M82.146,5.278
		c0.133,0,0.209-0.042,0.209-0.175V4.697h-1.596v0.582H82.146z M83.952,6.273c0.406,0,0.596,0.161,0.596,0.56v1.114
		c0,0.399-0.189,0.567-0.596,0.567h-1.633c-0.412,0-0.594-0.168-0.594-0.567V6.833c0-0.399,0.182-0.56,0.594-0.56H83.952z
		 M83.819,8.059c0.139,0,0.209-0.042,0.209-0.182V6.91c0-0.14-0.07-0.182-0.209-0.182h-1.367c-0.139,0-0.209,0.042-0.209,0.182
		v0.966c0,0.14,0.07,0.182,0.209,0.182H83.819z M83.987,5.691c-0.4,0-0.574-0.147-0.574-0.511V3.814
		c0-0.364,0.174-0.511,0.574-0.511h1.547c0.4,0,0.574,0.168,0.574,0.532v4.973c0,0.462-0.217,0.672-0.791,0.672
		c-0.225,0-0.498-0.014-0.699-0.056c-0.119-0.028-0.197-0.112-0.197-0.252c0-0.014,0-0.035,0-0.049
		c0.021-0.133,0.105-0.21,0.217-0.21c0.014,0,0.035,0,0.049,0.007c0.168,0.035,0.436,0.056,0.582,0.056
		c0.246,0,0.322-0.056,0.322-0.329V5.691H83.987z M85.591,3.905c0-0.133-0.063-0.182-0.189-0.182H84.12
		c-0.133,0-0.211,0.049-0.211,0.182v0.385h1.682V3.905z M85.591,4.697h-1.682v0.406c0,0.133,0.078,0.175,0.211,0.175h1.471V4.697z"
		/>
	<path d="M88.452,6.49h-1.352c-0.135,0-0.197-0.091-0.197-0.224c0-0.133,0.063-0.224,0.197-0.224h2.793
		c0.127,0,0.189,0.091,0.189,0.224c0,0.133-0.063,0.224-0.189,0.224h-0.959v0.714h0.805c0.127,0,0.197,0.084,0.197,0.217
		s-0.07,0.231-0.197,0.231h-0.805v1.001c0.398,0.147,1.086,0.238,1.877,0.252c0.127,0,0.246,0,0.371,0
		c0.777,0,1.479-0.035,2.109-0.063c0.006,0,0.006,0,0.014,0c0.133,0,0.23,0.091,0.23,0.245c0,0.168-0.076,0.231-0.266,0.245
		c-0.715,0.056-1.311,0.07-1.871,0.07c-0.98,0-1.68-0.042-2.283-0.217c-0.672-0.196-1.092-0.498-1.406-0.925
		c-0.105,0.406-0.246,0.771-0.422,1.058c-0.049,0.077-0.133,0.126-0.23,0.126c-0.041,0-0.092-0.014-0.133-0.035
		c-0.092-0.056-0.146-0.14-0.146-0.224c0-0.042,0.014-0.084,0.041-0.126c0.35-0.525,0.553-1.253,0.588-2.038
		c0.008-0.126,0.105-0.196,0.246-0.196c0.006,0,0.014,0,0.021,0c0.16,0.007,0.23,0.091,0.23,0.224c0,0.007,0,0.014,0,0.021
		c-0.014,0.224-0.043,0.448-0.076,0.665c0.168,0.252,0.377,0.469,0.623,0.645V6.49z M89.3,3.275c0.355,0,0.539,0.133,0.539,0.477
		v1.415c0,0.336-0.184,0.469-0.539,0.469h-1.457c-0.357,0-0.533-0.133-0.533-0.469V3.751c0-0.343,0.176-0.477,0.533-0.477H89.3z
		 M89.349,4.249V3.835c0-0.119-0.064-0.154-0.184-0.154h-1.184c-0.119,0-0.182,0.035-0.182,0.154v0.413H89.349z M87.8,4.648v0.42
		c0,0.119,0.063,0.161,0.182,0.161h1.184c0.119,0,0.184-0.042,0.184-0.161v-0.42H87.8z M90.917,7.855
		C90.966,7.821,91.015,7.8,91.071,7.8c0.055,0,0.119,0.028,0.168,0.077c0.057,0.056,0.084,0.112,0.084,0.161
		c0,0.063-0.027,0.112-0.092,0.161c-0.258,0.196-0.629,0.42-0.945,0.532c-0.035,0.014-0.07,0.021-0.111,0.021
		c-0.092,0-0.189-0.042-0.232-0.161c-0.006-0.035-0.014-0.063-0.014-0.091c0-0.091,0.057-0.154,0.133-0.182
		C90.392,8.213,90.728,8.003,90.917,7.855z M90.265,3.779c-0.119,0-0.182-0.098-0.182-0.231c0-0.133,0.063-0.224,0.182-0.224h2.977
		c0.127,0,0.189,0.091,0.189,0.224c0,0.133-0.063,0.231-0.189,0.231h-1.273c-0.049,0.189-0.113,0.378-0.189,0.561h0.75
		c0.398,0,0.58,0.154,0.58,0.532v2.22c0,0.378-0.174,0.511-0.574,0.511h-1.66c-0.398,0-0.566-0.133-0.566-0.511V4.851
		c0-0.371,0.168-0.511,0.566-0.511h0.428c0.07-0.182,0.127-0.371,0.182-0.561H90.265z M92.618,5.292V4.9
		c0-0.126-0.07-0.168-0.203-0.168h-1.422c-0.133,0-0.203,0.042-0.203,0.168v0.393H92.618z M92.618,6.203V5.677H90.79v0.525H92.618z
		 M90.79,7.036c0,0.126,0.07,0.168,0.203,0.168h1.422c0.133,0,0.203-0.042,0.203-0.168V6.588H90.79V7.036z M92.044,8.178
		C91.989,8.129,91.96,8.08,91.96,8.024c0-0.049,0.021-0.105,0.063-0.161c0.051-0.063,0.119-0.091,0.189-0.091
		c0.049,0,0.092,0.014,0.127,0.042c0.238,0.175,0.596,0.371,0.826,0.469c0.105,0.042,0.154,0.112,0.154,0.189
		c0,0.035-0.008,0.07-0.021,0.105c-0.049,0.105-0.133,0.154-0.225,0.154c-0.041,0-0.084-0.007-0.119-0.028
		C92.661,8.577,92.331,8.388,92.044,8.178z"/>
	<path d="M98.239,4.319c-0.344,0.07-0.645,0.105-0.875,0.126c-1.002,0.084-1.982,0.175-2.873,0.245c-0.014,0-0.02,0-0.035,0
		c-0.182,0-0.287-0.105-0.301-0.266c0-0.014,0-0.021,0-0.028c0-0.154,0.105-0.28,0.26-0.294c1.709-0.133,3.559-0.252,5.252-0.329
		c0.008,0,0.016,0,0.021,0c0.197,0,0.287,0.112,0.301,0.273c0,0.007,0,0.014,0,0.021c0,0.147-0.07,0.28-0.273,0.301
		c-0.117,0.014-0.23,0.028-0.391,0.056c-1.514,0.252-2.57,1.261-2.57,2.388c0,0.7,0.391,1.121,0.896,1.352
		c0.371,0.175,0.84,0.252,1.309,0.259c0.203,0,0.309,0.126,0.309,0.287c0,0.014,0,0.021,0,0.035
		c-0.014,0.203-0.127,0.315-0.336,0.315c-0.582,0-1.135-0.112-1.576-0.322c-0.721-0.351-1.205-0.988-1.205-1.877
		c0-1.057,0.742-2.017,2.094-2.5L98.239,4.319z M98.911,5.25c0.063,0,0.127,0.021,0.176,0.077c0.195,0.217,0.406,0.469,0.561,0.693
		c0.027,0.049,0.041,0.098,0.041,0.154c0,0.084-0.035,0.161-0.09,0.21c-0.043,0.028-0.092,0.042-0.148,0.042
		c-0.084,0-0.168-0.035-0.225-0.105c-0.146-0.224-0.342-0.476-0.523-0.687c-0.035-0.042-0.057-0.098-0.057-0.147
		c0-0.07,0.041-0.14,0.105-0.189C98.8,5.271,98.854,5.25,98.911,5.25z M99.618,4.83c0.07,0,0.141,0.028,0.197,0.077
		c0.189,0.196,0.377,0.455,0.518,0.665c0.043,0.056,0.057,0.112,0.057,0.161c0,0.084-0.043,0.154-0.105,0.196
		c-0.043,0.028-0.092,0.049-0.141,0.049c-0.076,0-0.154-0.042-0.209-0.126c-0.148-0.217-0.322-0.462-0.49-0.637
		C99.401,5.166,99.38,5.11,99.38,5.061c0-0.077,0.035-0.147,0.1-0.189C99.521,4.844,99.569,4.83,99.618,4.83z"/>
	<path d="M104.356,4.578c-0.008,0.084-0.021,0.168-0.035,0.252c0,0.021-0.006,0.049-0.006,0.07c0.398,1.03,1.057,1.716,1.896,2.213
		c0.078,0.049,0.127,0.133,0.127,0.224c0,0.056-0.014,0.112-0.049,0.168c-0.064,0.105-0.154,0.154-0.246,0.154
		c-0.055,0-0.105-0.014-0.146-0.042c-0.777-0.504-1.395-1.191-1.752-1.982c-0.266,0.833-0.832,1.541-1.666,2.073
		c-0.049,0.035-0.098,0.049-0.154,0.049c-0.092,0-0.182-0.049-0.244-0.147c-0.035-0.042-0.049-0.098-0.049-0.147
		c0-0.098,0.049-0.182,0.133-0.231c0.805-0.456,1.352-1.156,1.547-2.017c0.049-0.196,0.084-0.406,0.113-0.638h-1.773
		c-0.154,0-0.23,0.049-0.23,0.203v4.546c0,0.126-0.119,0.21-0.281,0.21c-0.152,0-0.279-0.084-0.279-0.21v-4.63
		c0-0.42,0.238-0.623,0.672-0.623h1.934c0.008-0.238,0.014-0.504,0.014-0.799c0-0.133,0.113-0.21,0.266-0.21
		c0.176,0,0.281,0.077,0.281,0.217c0,0.287-0.008,0.553-0.021,0.792h2.004c0.426,0,0.672,0.203,0.672,0.623v4.034
		c0,0.483-0.273,0.693-0.855,0.693c-0.301,0-0.607-0.028-0.867-0.077c-0.127-0.021-0.203-0.112-0.203-0.252
		c0-0.021,0-0.042,0.006-0.063c0.021-0.154,0.119-0.231,0.232-0.231c0.014,0,0.027,0,0.049,0.007
		c0.195,0.042,0.477,0.084,0.68,0.084c0.357,0,0.412-0.063,0.412-0.301v-3.81c0-0.154-0.076-0.203-0.23-0.203H104.356z"/>
	<path d="M108.694,9.39c0,0.147-0.104,0.217-0.271,0.217c-0.154,0-0.26-0.07-0.26-0.217V3.793c0-0.364,0.174-0.532,0.574-0.532
		h1.512c0.393,0,0.568,0.147,0.568,0.504V4.83c0,0.329-0.238,0.525-0.609,0.525h-1.514V9.39z M110.319,3.842
		c0-0.126-0.076-0.175-0.203-0.175h-1.232c-0.125,0-0.189,0.049-0.189,0.175v0.266h1.625V3.842z M110.116,4.956
		c0.127,0,0.203-0.042,0.203-0.168V4.501h-1.625v0.455H110.116z M112.19,5.685c0.244,0,0.393,0.14,0.393,0.322
		c0,0.105-0.051,0.217-0.168,0.329c-0.232,0.21-0.492,0.399-0.779,0.56c0.449,0.182,0.939,0.301,1.486,0.378
		c0.104,0.021,0.174,0.091,0.174,0.203c0,0.021,0,0.042-0.006,0.063c-0.021,0.126-0.105,0.196-0.225,0.196
		c-0.021,0-0.043,0-0.063-0.007c-0.68-0.133-1.281-0.322-1.807-0.602c-0.604,0.287-1.268,0.49-1.912,0.623
		c-0.029,0.007-0.051,0.007-0.07,0.007c-0.113,0-0.189-0.063-0.203-0.189c-0.008-0.021-0.008-0.035-0.008-0.049
		c0-0.105,0.057-0.175,0.168-0.196c0.539-0.084,1.1-0.238,1.604-0.448c-0.223-0.154-0.441-0.336-0.623-0.539
		c-0.217,0.154-0.455,0.308-0.715,0.434c-0.041,0.021-0.076,0.028-0.117,0.028c-0.086,0-0.154-0.042-0.203-0.133
		c-0.016-0.035-0.021-0.07-0.021-0.105c0-0.077,0.049-0.147,0.146-0.189c0.547-0.238,1.016-0.602,1.289-0.973
		c0.057-0.063,0.111-0.098,0.176-0.098c0.041,0,0.084,0.007,0.125,0.028c0.078,0.035,0.127,0.098,0.127,0.168
		c0,0.042-0.016,0.084-0.049,0.119c-0.021,0.021-0.043,0.049-0.057,0.07H112.19z M112.036,7.688c0.336,0,0.539,0.133,0.539,0.441
		v0.616c0,0.329-0.154,0.455-0.518,0.455h-1.836c-0.363,0-0.512-0.126-0.512-0.455V8.129c0-0.308,0.154-0.441,0.539-0.441H112.036z
		 M111.938,8.808c0.104,0,0.16-0.035,0.16-0.14V8.206c0-0.105-0.057-0.14-0.16-0.14h-1.59c-0.105,0-0.162,0.035-0.162,0.14v0.462
		c0,0.105,0.057,0.14,0.162,0.14H111.938z M110.474,6.063c-0.006,0.014-0.021,0.021-0.035,0.035c0.225,0.224,0.484,0.42,0.764,0.588
		c0.295-0.147,0.553-0.315,0.771-0.497c0.041-0.035,0.063-0.063,0.063-0.084c0-0.028-0.035-0.042-0.105-0.042H110.474z
		 M111.966,5.355c-0.398,0-0.566-0.147-0.566-0.504V3.766c0-0.357,0.168-0.504,0.566-0.504h1.625c0.398,0,0.574,0.168,0.574,0.532
		v5.029c0,0.462-0.195,0.665-0.721,0.665c-0.219,0-0.414-0.014-0.574-0.049c-0.135-0.021-0.203-0.105-0.203-0.224
		c0-0.021,0-0.049,0.006-0.07c0.021-0.119,0.105-0.196,0.217-0.196c0.021,0,0.043,0,0.064,0.007
		c0.111,0.028,0.271,0.049,0.391,0.049c0.254,0,0.303-0.056,0.303-0.301V5.355H111.966z M113.647,3.842
		c0-0.126-0.064-0.175-0.189-0.175h-1.359c-0.125,0-0.209,0.049-0.209,0.175v0.266h1.758V3.842z M113.647,4.501h-1.758v0.287
		c0,0.126,0.084,0.168,0.209,0.168h1.549V4.501z"/>
	<path d="M116.661,5.93c0.547-0.385,0.939-0.574,1.373-0.574c0.504,0,0.875,0.217,0.967,0.819c0.631-0.224,1.24-0.413,1.723-0.553
		c0.043-0.007,0.084-0.014,0.119-0.014c0.127,0,0.217,0.063,0.26,0.189c0.006,0.042,0.014,0.077,0.014,0.112
		c0,0.126-0.07,0.224-0.225,0.259c-0.512,0.133-1.17,0.309-1.842,0.554c0.014,0.252,0.021,0.497,0.021,0.749
		c0,0.133,0,0.266-0.008,0.399c-0.006,0.175-0.119,0.266-0.273,0.266c-0.16,0-0.258-0.091-0.258-0.266c0-0.189,0-0.42,0-0.645
		c0-0.112,0-0.231,0-0.336c-0.98,0.378-1.416,0.798-1.416,1.232c0,0.414,0.455,0.63,1.443,0.63c0.672,0,1.373-0.063,1.891-0.154
		c0.035-0.007,0.064-0.007,0.098-0.007c0.141,0,0.232,0.07,0.26,0.217c0.008,0.028,0.008,0.049,0.008,0.07
		c0,0.147-0.1,0.266-0.26,0.287c-0.525,0.091-1.205,0.147-1.953,0.147c-1.318,0-2.061-0.364-2.061-1.17
		c0-0.665,0.645-1.316,1.947-1.786c-0.041-0.427-0.252-0.546-0.561-0.546c-0.596,0-1.365,0.462-2.205,1.317
		c-0.064,0.07-0.148,0.105-0.225,0.105c-0.07,0-0.133-0.028-0.189-0.084c-0.063-0.056-0.09-0.133-0.09-0.21
		c0-0.084,0.033-0.161,0.098-0.224c0.602-0.56,1.205-1.289,1.66-2.01c-0.1,0-0.211,0-0.322,0c-0.352,0-0.75-0.007-1.064-0.021
		c-0.154-0.007-0.246-0.119-0.246-0.259c0-0.007,0-0.021,0-0.028c0.014-0.14,0.111-0.259,0.252-0.259c0.008,0,0.014,0,0.021,0
		c0.328,0.028,0.777,0.035,1.24,0.035c0.133,0,0.266,0,0.398,0c0.141-0.252,0.266-0.511,0.35-0.763
		c0.049-0.147,0.148-0.203,0.26-0.203c0.035,0,0.063,0.007,0.098,0.014c0.141,0.028,0.217,0.112,0.217,0.217
		c0,0.035-0.006,0.077-0.027,0.119c-0.084,0.203-0.176,0.393-0.279,0.603c0.594-0.021,1.428-0.105,2.199-0.217
		c0.02-0.007,0.041-0.007,0.063-0.007c0.141,0,0.23,0.077,0.252,0.224c0,0.014,0,0.028,0,0.049c0,0.133-0.084,0.231-0.238,0.259
		c-0.883,0.126-1.758,0.203-2.557,0.224c-0.273,0.462-0.596,0.882-0.959,1.198L116.661,5.93z"/>
	<path d="M122.142,4.291c-0.133,0-0.203-0.105-0.203-0.245c0-0.154,0.07-0.252,0.203-0.252h2.143c0.127,0,0.197,0.098,0.197,0.245
		s-0.07,0.252-0.197,0.252h-0.867v3.082c0.279-0.091,0.545-0.189,0.783-0.294c0.043-0.014,0.084-0.021,0.119-0.021
		c0.092,0,0.154,0.049,0.197,0.14c0.02,0.049,0.027,0.098,0.027,0.133c0,0.098-0.049,0.168-0.154,0.21
		c-0.658,0.287-1.541,0.56-2.205,0.735c-0.029,0.007-0.057,0.007-0.078,0.007c-0.141,0-0.225-0.084-0.252-0.224
		c-0.014-0.028-0.014-0.056-0.014-0.084c0-0.119,0.076-0.196,0.203-0.224c0.26-0.056,0.553-0.133,0.854-0.217V4.291H122.142z
		 M127.591,4.823c-0.07,0.414-0.133,0.799-0.26,1.205c-0.182,0.588-0.455,1.148-0.805,1.653c0.496,0.539,1.086,0.952,1.723,1.232
		c0.105,0.049,0.162,0.14,0.162,0.245c0,0.056-0.016,0.105-0.043,0.161c-0.057,0.105-0.16,0.161-0.266,0.161
		c-0.049,0-0.092-0.014-0.141-0.035c-0.658-0.322-1.26-0.792-1.766-1.358c-0.553,0.623-1.254,1.1-2.1,1.421
		c-0.035,0.021-0.078,0.028-0.119,0.028c-0.105,0-0.203-0.049-0.26-0.175c-0.014-0.035-0.021-0.077-0.021-0.112
		c0-0.105,0.063-0.203,0.162-0.238c0.826-0.301,1.49-0.742,2.002-1.331c-0.314-0.414-0.574-0.875-0.764-1.366
		c-0.09-0.217-0.139-0.448-0.203-0.68c-0.146,0.238-0.307,0.462-0.469,0.659c-0.063,0.07-0.133,0.105-0.203,0.105
		s-0.141-0.028-0.195-0.084c-0.064-0.049-0.092-0.112-0.092-0.182c0-0.07,0.027-0.14,0.084-0.196
		c0.652-0.679,1.143-1.751,1.381-2.668c0.027-0.126,0.111-0.182,0.236-0.182c0.021,0,0.051,0,0.086,0.007
		c0.133,0.021,0.209,0.105,0.209,0.224c0,0.028-0.008,0.056-0.014,0.091c-0.084,0.273-0.195,0.582-0.336,0.903h2.611
		c0.133,0,0.203,0.098,0.203,0.252c0,0.154-0.07,0.259-0.203,0.259H127.591z M125.349,4.823c-0.041,0.084-0.076,0.161-0.119,0.238
		c0.064,0.301,0.127,0.588,0.232,0.875c0.174,0.476,0.42,0.924,0.721,1.331c0.273-0.413,0.49-0.868,0.637-1.345
		c0.113-0.371,0.17-0.721,0.232-1.1H125.349z"/>
	<path d="M131.565,4.039c0.309,0,0.461,0.112,0.461,0.392v0.875c0,0.273-0.152,0.392-0.461,0.392h-0.756v0.28h1.225
		c0.098,0,0.154,0.084,0.154,0.189c0,0.098-0.057,0.196-0.154,0.196h-1.225v0.21c0,0.098-0.051,0.154-0.203,0.154
		c-0.148,0-0.219-0.056-0.219-0.154v-0.21h-1.295c-0.098,0-0.154-0.098-0.154-0.196c0-0.105,0.057-0.189,0.154-0.189h1.295v-0.28
		h-0.721c-0.309,0-0.455-0.119-0.455-0.392V4.431c0-0.28,0.146-0.392,0.455-0.392h0.721v-0.28h-1.26
		c-0.098,0-0.154-0.091-0.154-0.189c0-0.105,0.057-0.182,0.154-0.182h1.26V3.212c0-0.119,0.07-0.175,0.219-0.175
		c0.152,0,0.203,0.056,0.203,0.175v0.175h1.238c0.098,0,0.154,0.077,0.154,0.182c0,0.098-0.057,0.189-0.154,0.189h-1.238v0.28
		H131.565z M132.056,7.211c-0.742,0.028-1.506,0.042-2.207,0.042c-0.098,0-0.174-0.098-0.174-0.21c0-0.112,0.068-0.189,0.174-0.189
		c1.43,0,3.125-0.042,4.309-0.231c0.02-0.007,0.041-0.007,0.055-0.007c0.105,0,0.176,0.056,0.203,0.161
		c0.008,0.021,0.014,0.042,0.014,0.07c0,0.091-0.055,0.175-0.182,0.196c-0.512,0.063-1.1,0.112-1.715,0.147v0.378h2.219
		c0.092,0,0.154,0.063,0.154,0.189c0,0.119-0.063,0.196-0.154,0.196h-2.219v0.329h2.668c0.092,0,0.168,0.07,0.168,0.196
		c0,0.119-0.076,0.203-0.168,0.203h-2.668V8.99c0,0.455-0.246,0.609-0.758,0.609c-0.223,0-0.531-0.021-0.729-0.063
		c-0.111-0.021-0.16-0.112-0.16-0.21c0-0.021,0-0.042,0.008-0.063c0.027-0.119,0.104-0.175,0.195-0.175c0.014,0,0.027,0,0.041,0.007
		c0.176,0.035,0.4,0.063,0.582,0.063c0.252,0,0.344-0.028,0.344-0.259V8.682h-2.92c-0.092,0-0.17-0.084-0.17-0.203
		c0-0.126,0.078-0.196,0.17-0.196h2.92V7.954h-2.486c-0.092,0-0.154-0.077-0.154-0.196c0-0.126,0.063-0.189,0.154-0.189h2.486V7.211
		z M129.808,4.375c-0.113,0-0.162,0.028-0.162,0.126v0.217h0.742V4.375H129.808z M129.646,5.026v0.21
		c0,0.098,0.049,0.126,0.162,0.126h0.58V5.026H129.646z M131.593,4.718V4.501c0-0.098-0.049-0.126-0.16-0.126h-0.623v0.343H131.593z
		 M131.433,5.362c0.111,0,0.16-0.028,0.16-0.126v-0.21h-0.783v0.336H131.433z M134.003,3.709c0-0.119-0.064-0.154-0.168-0.154
		h-0.463c-0.105,0-0.168,0.042-0.168,0.14c-0.014,0.476-0.225,0.735-0.693,0.946c-0.035,0.014-0.078,0.021-0.119,0.021
		c-0.07,0-0.146-0.035-0.195-0.126c-0.021-0.035-0.029-0.077-0.029-0.105c0-0.084,0.049-0.154,0.119-0.182
		c0.371-0.161,0.477-0.336,0.477-0.693c0-0.266,0.154-0.392,0.477-0.392h0.734c0.322,0,0.477,0.133,0.477,0.434v0.372
		c0,0.105,0.029,0.126,0.232,0.126c0.146,0,0.217-0.028,0.252-0.098c0.027-0.056,0.049-0.147,0.055-0.252
		c0.008-0.098,0.078-0.161,0.197-0.161c0.006,0,0.021,0,0.035,0c0.133,0.014,0.195,0.091,0.195,0.203
		c-0.006,0.21-0.063,0.378-0.146,0.497c-0.092,0.119-0.211,0.189-0.639,0.189c-0.496,0-0.629-0.091-0.629-0.371V3.709z
		 M132.44,5.166c-0.092,0-0.146-0.084-0.146-0.196c0-0.105,0.055-0.196,0.146-0.196h2.172c0.238,0,0.393,0.147,0.393,0.322
		c0,0.098-0.043,0.203-0.141,0.308c-0.182,0.203-0.42,0.385-0.693,0.553c0.344,0.175,0.729,0.294,1.121,0.364
		c0.125,0.021,0.182,0.098,0.182,0.196c0,0.021,0,0.035-0.008,0.056c-0.021,0.119-0.098,0.196-0.209,0.196
		c-0.016,0-0.035,0-0.057-0.007c-0.504-0.098-1.008-0.301-1.457-0.574c-0.385,0.182-0.805,0.322-1.225,0.399
		c-0.021,0.007-0.043,0.007-0.064,0.007c-0.111,0-0.182-0.063-0.203-0.161c-0.006-0.021-0.006-0.042-0.006-0.063
		c0-0.098,0.055-0.175,0.168-0.196c0.322-0.056,0.637-0.147,0.938-0.259c-0.273-0.217-0.518-0.462-0.715-0.75H132.44z
		 M133.142,5.166c0.182,0.217,0.391,0.406,0.623,0.553c0.258-0.133,0.482-0.28,0.637-0.434c0.021-0.021,0.035-0.049,0.035-0.063
		c0-0.035-0.035-0.056-0.098-0.056H133.142z"/>
	<path d="M139.636,8.612c0,0.294-0.223,0.483-0.482,0.483c-0.273,0-0.482-0.189-0.482-0.483c0-0.294,0.209-0.483,0.482-0.483
		C139.413,8.129,139.636,8.318,139.636,8.612z M138.774,3.877c0-0.196,0.154-0.322,0.387-0.322c0.223,0,0.377,0.126,0.371,0.322
		l-0.1,3.586c-0.006,0.161-0.139,0.238-0.279,0.238c-0.146,0-0.279-0.077-0.279-0.238L138.774,3.877z"/>
</g>
<g>
	<path d="M51.76,20.379c0-0.495-0.018-0.675-0.054-0.909h0.666c-0.036,0.279-0.045,0.522-0.045,0.909v0.604h0.855
		c0.342,0,0.576-0.018,0.828-0.054v0.603c-0.226-0.027-0.423-0.036-0.819-0.036c-0.081,1.117-0.279,1.972-0.64,2.836
		c0.567,0.738,0.847,1.162,1.288,1.891l-0.45,0.432c-0.288-0.54-0.721-1.242-1.099-1.765c-0.513,0.963-1.08,1.657-1.998,2.404
		c-0.145-0.198-0.243-0.288-0.45-0.432c0.98-0.729,1.584-1.44,2.079-2.458c-0.594-0.765-0.999-1.225-1.629-1.836l0.423-0.36
		c0.441,0.432,0.846,0.9,1.449,1.629c0.243-0.693,0.387-1.413,0.441-2.341h-1.873c-0.378,0-0.576,0.009-0.801,0.045v-0.612
		c0.252,0.036,0.486,0.054,0.828,0.054h0.999V20.379z M54.372,22.792c0.566,0.684,0.873,1.143,1.332,2.007l-0.495,0.342
		c-0.387-0.864-0.729-1.396-1.297-2.071L54.372,22.792z M54.938,22.045c-0.351,0-0.603,0.018-0.846,0.054v-0.612
		c0.216,0.036,0.45,0.045,0.855,0.045h1.404v-1.008c0-0.477-0.019-0.747-0.063-0.981h0.693c-0.045,0.279-0.054,0.567-0.054,0.981
		v1.008h0.225c0.369,0,0.648-0.018,0.873-0.054v0.621c-0.314-0.045-0.513-0.054-0.882-0.054h-0.216v4.636
		c0,0.594-0.181,0.729-0.99,0.729c-0.405,0-0.631-0.009-1.026-0.027c-0.055-0.279-0.09-0.387-0.189-0.604
		c0.433,0.063,0.855,0.099,1.152,0.099c0.405,0,0.478-0.036,0.478-0.225v-4.609H54.938z"/>
	<path d="M60.824,22.63c0.549,0.414,0.864,0.693,1.225,1.098c0.333-0.756,0.513-1.333,0.737-2.485h-1.692
		c-0.432,1.071-0.99,1.945-1.755,2.791c-0.136-0.225-0.198-0.306-0.396-0.477c0.802-0.811,1.404-1.801,1.837-3.052
		c0.135-0.378,0.252-0.828,0.288-1.125l0.647,0.126c-0.081,0.189-0.107,0.27-0.18,0.513c-0.072,0.234-0.117,0.369-0.243,0.711h1.404
		c0.324,0,0.514-0.009,0.712-0.027c-0.019,0.117-0.027,0.153-0.036,0.252c0.314,0.882,0.566,1.341,1.098,1.963v-2.53
		c0-0.36-0.018-0.622-0.063-0.937H65.1c-0.045,0.315-0.063,0.567-0.063,0.937v3.07c0.711,0.63,1.368,1.044,2.232,1.414
		c-0.135,0.144-0.27,0.342-0.378,0.567c-0.81-0.405-1.27-0.72-1.854-1.26v2.269c0,0.486,0.019,0.756,0.063,1.098h-0.693
		c0.045-0.351,0.063-0.63,0.063-1.098v-2.782c-0.63-0.702-0.936-1.161-1.242-1.899c-0.216,1.17-0.567,2.161-1.071,3.043
		c-0.585,1.008-1.377,1.863-2.521,2.709c-0.126-0.207-0.252-0.342-0.441-0.495c1.216-0.828,1.989-1.656,2.602-2.782
		c-0.432-0.504-0.747-0.792-1.305-1.188L60.824,22.63z"/>
	<path d="M68.789,20.298c-0.36,0-0.531,0.009-0.783,0.054V19.74c0.242,0.045,0.432,0.054,0.81,0.054h1.342
		c0.351,0,0.531-0.009,0.765-0.054v0.594c-0.242-0.027-0.432-0.036-0.738-0.036h-0.44c-0.136,0.892-0.279,1.45-0.585,2.287h0.98
		c0.288,0,0.396-0.009,0.559-0.027c-0.018,0.18-0.027,0.369-0.027,0.72v2.683c0,0.306,0.01,0.558,0.027,0.738h-0.54v-0.315h-0.973
		v0.945h-0.585c0.036-0.243,0.054-0.468,0.054-0.864V24.44c0-0.288,0.01-0.585,0.027-0.963c-0.216,0.495-0.378,0.783-0.675,1.206
		c-0.1-0.207-0.226-0.387-0.343-0.504c0.514-0.612,0.883-1.333,1.188-2.332c0.18-0.567,0.271-0.981,0.342-1.549H68.789z
		 M69.184,25.907h0.973v-2.827h-0.973V25.907z M72.074,20.308c-0.44,0-0.647,0.009-0.899,0.045V19.75
		c0.261,0.036,0.521,0.054,0.918,0.054h3.069c0.388,0,0.667-0.018,0.928-0.054v0.603c-0.252-0.036-0.468-0.045-0.892-0.045h-1.422
		v0.9h1.197c0.351,0,0.594-0.009,0.801-0.045c-0.026,0.198-0.036,0.468-0.036,0.909v1.513c0,0.441,0.01,0.702,0.036,0.909
		c-0.225-0.036-0.432-0.045-0.747-0.045h-1.413c-0.126,0.621-0.271,1-0.522,1.386c0.855,0.604,1.828,0.918,3.188,1.054
		c-0.145,0.27-0.181,0.36-0.253,0.603c-1.359-0.225-2.367-0.612-3.259-1.251c-0.549,0.576-1.161,0.945-2.098,1.26
		c-0.107-0.216-0.18-0.324-0.333-0.495c0.873-0.225,1.495-0.558,2.025-1.089c-0.261-0.234-0.414-0.405-0.801-0.882
		c-0.045-0.063-0.081-0.09-0.135-0.153l0.495-0.297c0.144,0.297,0.405,0.612,0.756,0.936c0.207-0.342,0.315-0.612,0.396-1.071
		h-1.135c-0.27,0-0.441,0.009-0.666,0.045c0.027-0.198,0.036-0.468,0.036-0.855v-1.612c0-0.387-0.009-0.63-0.036-0.864
		c0.216,0.027,0.486,0.045,0.819,0.045h1.144v-0.9H72.074z M71.832,21.667v0.9h1.386l0.009-0.9H71.832z M71.832,23.017v0.973h1.305
		c0.045-0.432,0.055-0.604,0.063-0.973H71.832z M73.74,23.017c-0.019,0.432-0.027,0.604-0.063,0.973h1.531v-0.973H73.74z
		 M73.757,22.567h1.45v-0.9h-1.44L73.757,22.567z"/>
	<path d="M78.572,24.638c-0.252,0.819-0.469,1.387-0.738,1.927c-0.019,0.054-0.171,0.342-0.45,0.873l-0.514-0.468
		c0.369-0.342,0.855-1.386,1.242-2.683L78.572,24.638z M77.221,21.811c0.603,0.369,0.945,0.621,1.494,1.098l-0.342,0.477
		c-0.604-0.576-0.873-0.783-1.477-1.152L77.221,21.811z M77.608,19.596c0.576,0.396,0.945,0.711,1.396,1.188l-0.369,0.441
		c-0.522-0.585-0.811-0.837-1.396-1.224L77.608,19.596z M84.702,21.433c-0.072,0.027-0.1,0.027-0.197,0.072
		c-0.486,0.189-0.838,0.297-1.396,0.432c0.072,0.864,0.107,1.116,0.244,1.737c0.459-0.234,0.873-0.531,1.295-0.918l0.361,0.423
		c-0.641,0.478-1.018,0.72-1.531,1c0.387,1.323,0.82,2.088,1.611,2.863c-0.207,0.189-0.26,0.27-0.422,0.522
		c-0.73-0.819-1.135-1.539-1.504-2.638c-0.199-0.621-0.379-1.386-0.477-2.062c-0.01-0.126-0.01-0.126-0.092-0.819
		c-0.369,0.072-0.521,0.099-0.863,0.144v4.384c0,0.405,0.018,0.693,0.055,0.955H81.11c0.035-0.288,0.055-0.576,0.055-0.963v-4.313
		c-0.307,0.036-0.307,0.036-1.054,0.09c-0.054,2.53-0.378,4.024-1.125,5.203c-0.153-0.18-0.252-0.27-0.486-0.405
		c0.369-0.504,0.585-1.036,0.765-1.882c0.208-0.999,0.298-2.088,0.298-3.727c0-0.495-0.01-0.864-0.036-1.188
		c0.099,0.009,0.153,0.009,0.207,0.009c0.648,0,2.034-0.207,2.917-0.441c0.576-0.145,1.008-0.306,1.314-0.496l0.486,0.478
		c-0.234,0.09-0.234,0.09-0.334,0.126c-1.178,0.441-2.35,0.684-4.005,0.828v1.008c1.468-0.09,2.296-0.216,3.214-0.486
		c0.459-0.135,0.746-0.252,0.953-0.396L84.702,21.433z"/>
	<path d="M85.925,22.99c0.225,0.036,0.359,0.045,0.701,0.045h0.469c0.27,0,0.459-0.009,0.693-0.045
		c-0.037,0.27-0.045,0.504-0.045,0.955v1.764c0.135,0.288,0.242,0.432,0.439,0.576c0.523,0.387,1.063,0.495,2.342,0.495
		c1.719,0,2.773-0.045,3.619-0.171c-0.135,0.324-0.152,0.351-0.207,0.657c-0.801,0.036-2.07,0.063-3.133,0.063
		c-1.494,0-2.035-0.09-2.611-0.423c-0.297-0.171-0.514-0.387-0.746-0.738c-0.406,0.405-0.631,0.594-1.063,0.927
		c-0.145,0.108-0.217,0.171-0.352,0.297l-0.297-0.594c0.396-0.18,0.945-0.585,1.449-1.08V23.54h-0.594
		c-0.307,0-0.441,0.009-0.666,0.045V22.99z M86.464,19.587c0.586,0.54,0.873,0.864,1.449,1.584l-0.459,0.414
		c-0.521-0.747-0.791-1.071-1.404-1.639L86.464,19.587z M89.021,20.712c-0.422,0-0.666,0.009-0.846,0.045V20.2
		c0.207,0.027,0.486,0.045,0.936,0.045h1.576c0-0.306-0.018-0.549-0.063-0.811h0.629c-0.045,0.261-0.063,0.495-0.063,0.811h1.746
		c0.441,0,0.73-0.018,0.938-0.045v0.558c-0.207-0.036-0.459-0.045-0.9-0.045H91.19v0.711h1.504c0.297,0,0.467-0.009,0.701-0.036
		c-0.027,0.207-0.035,0.36-0.035,0.612v1.8c0,0.243,0.008,0.387,0.035,0.585c-0.215-0.027-0.432-0.036-0.701-0.036H91.19v0.738
		h1.818c0.441,0,0.703-0.009,0.891-0.045v0.558c-0.197-0.036-0.477-0.045-0.898-0.045H91.19v0.171c0,0.288,0.018,0.558,0.063,0.819
		h-0.629c0.045-0.261,0.063-0.531,0.063-0.819v-0.171h-1.584c-0.379,0-0.711,0.018-0.9,0.045v-0.558
		c0.197,0.036,0.449,0.045,0.9,0.045h1.584V24.35h-1.359c-0.27,0-0.477,0.009-0.711,0.036c0.027-0.207,0.035-0.351,0.035-0.585
		v-1.818c0-0.234-0.008-0.378-0.035-0.594c0.207,0.027,0.414,0.036,0.701,0.036h1.369v-0.711H89.021z M89.175,21.874v0.765h1.512
		v-0.765H89.175z M89.175,23.071v0.828h1.512v-0.828H89.175z M91.19,22.639h1.648v-0.765H91.19V22.639z M91.19,23.899h1.648v-0.828
		H91.19V23.899z"/>
	<path d="M99.255,19.434c0.377,0.612,0.791,1.063,1.484,1.63c0.766,0.63,1.611,1.134,2.467,1.476
		c-0.162,0.189-0.252,0.342-0.359,0.567c-0.9-0.441-1.811-1.036-2.539-1.657c-0.566-0.477-0.98-0.936-1.387-1.512
		c-0.604,0.846-1.098,1.359-1.891,1.972c-0.611,0.468-1.18,0.819-1.908,1.17c-0.1-0.208-0.172-0.306-0.379-0.513
		c0.928-0.415,1.703-0.91,2.449-1.567c0.639-0.549,0.99-0.954,1.387-1.566H99.255z M96.112,27.482
		c0.035-0.279,0.055-0.54,0.055-0.882v-1.99c0-0.333-0.01-0.576-0.045-0.828c0.188,0.027,0.377,0.036,0.701,0.036h4.223
		c0.324,0,0.514-0.009,0.701-0.036c-0.035,0.243-0.045,0.477-0.045,0.828v1.99c0,0.351,0.02,0.621,0.055,0.882h-0.648V26.96h-4.348
		v0.522H96.112z M96.761,26.429h4.348v-2.062h-4.348V26.429z M96.823,22.171c0.162,0.027,0.379,0.036,0.711,0.036h2.791
		c0.352,0,0.568-0.009,0.756-0.036v0.612c-0.197-0.027-0.414-0.036-0.756-0.036h-2.799c-0.279,0-0.514,0.009-0.703,0.036V22.171z"/>
</g>
<rect x="6.612" y="31.046" fill="none" stroke="#000000" stroke-width="0.75" stroke-miterlimit="10" width="48.189" height="12.334"/>
<g>
	<path d="M102.073,34.507c0-0.432-0.018-0.747-0.055-1.107c0.297,0.036,0.568,0.045,1.055,0.045h5.383
		c0.477,0,0.738-0.009,1.07-0.045c-0.035,0.333-0.053,0.639-0.053,1.107v5.482c0,0.657,0.018,0.99,0.053,1.233h-0.629v-0.549h-6.248
		v0.549h-0.631c0.037-0.243,0.055-0.567,0.055-1.233V34.507z M102.649,40.161h6.248v-6.203h-6.248V40.161z M104.188,35.29
		c-0.387,0-0.604,0.009-0.846,0.045v-0.576c0.252,0.045,0.449,0.054,0.846,0.054h3.178c0.406,0,0.648-0.018,0.883-0.054v0.576
		c-0.252-0.036-0.469-0.045-0.873-0.045h-1.387v1.396h1.107c0.404,0,0.586-0.009,0.811-0.045v0.567
		c-0.225-0.036-0.434-0.045-0.811-0.045h-1.107v1.647h1.512c0.369,0,0.631-0.018,0.883-0.054v0.594
		c-0.262-0.036-0.531-0.054-0.883-0.054h-3.43c-0.369,0-0.621,0.018-0.891,0.054v-0.594c0.252,0.036,0.514,0.054,0.891,0.054h1.359
		v-1.647h-0.963c-0.379,0-0.594,0.009-0.818,0.045v-0.567c0.225,0.036,0.404,0.045,0.818,0.045h0.963V35.29H104.188z
		 M107.079,37.325c0.369,0.369,0.512,0.567,0.846,1.071l-0.424,0.27c-0.314-0.549-0.459-0.747-0.801-1.116L107.079,37.325z"/>
	<path d="M115.394,35.947c0.055,0.558,0.082,0.765,0.207,1.27l2.053-0.027c0.523,0,0.73-0.018,0.955-0.063v0.621
		c-0.334-0.027-0.334-0.027-0.945-0.027l-1.918,0.018c0.244,0.756,0.621,1.414,1.145,1.972c0.35,0.378,0.791,0.684,0.98,0.684
		c0.207,0,0.342-0.396,0.424-1.296c0.225,0.189,0.305,0.234,0.539,0.342c-0.197,1.197-0.432,1.602-0.908,1.602
		c-0.496,0-1.225-0.549-1.811-1.368c-0.441-0.612-0.729-1.188-0.963-1.927l-2.646,0.036v2.395c0.945-0.207,1.711-0.423,2.691-0.756
		l0.018,0.558c-1.387,0.459-2.15,0.666-3.682,0.981c-0.217,0.045-0.396,0.09-0.496,0.126l-0.152-0.648
		c0.234-0.009,0.549-0.054,1.035-0.144v-5.762c0-0.441-0.008-0.675-0.035-1.017c0.287,0.036,0.566,0.045,1.053,0.045h4.006
		c0.396,0,0.658-0.009,0.938-0.045c-0.027,0.18-0.027,0.315-0.027,0.72v1.071c0,0.333,0.008,0.504,0.027,0.666
		c-0.271-0.018-0.531-0.027-0.893-0.027H115.394z M112.505,35.443h4.779v-1.368h-4.779V35.443z M112.505,35.947v1.305l2.512-0.027
		c-0.09-0.432-0.145-0.756-0.207-1.278H112.505z"/>
	<path d="M120.657,33.84c0-0.333-0.018-0.558-0.063-0.801h0.693c-0.045,0.243-0.063,0.432-0.063,0.792v1.495h0.117
		c0.332,0,0.477-0.009,0.648-0.045v0.594c-0.217-0.027-0.342-0.036-0.641-0.036h-0.125v4.393c0,0.369,0.018,0.639,0.063,0.972
		h-0.693c0.045-0.279,0.063-0.576,0.063-0.981v-4.384h-0.232c-0.324,0-0.504,0.009-0.748,0.036v-0.594
		c0.207,0.036,0.379,0.045,0.748,0.045h0.232V33.84z M123.817,37.361c0.352,0,0.551-0.009,0.758-0.036
		c-0.02,0.171-0.02,0.27-0.027,0.504c0,0.576-0.09,1.576-0.18,2.161c-0.137,0.855-0.271,0.981-1.072,0.981
		c-0.117,0-0.287-0.009-0.432-0.018c-0.018-0.243-0.037-0.342-0.117-0.567c0.262,0.054,0.469,0.081,0.676,0.081
		c0.225,0,0.314-0.063,0.359-0.234c0.117-0.459,0.207-1.341,0.225-2.376h-0.791c-0.172,1.449-0.551,2.368-1.352,3.259
		c-0.162-0.243-0.215-0.306-0.387-0.468c0.711-0.666,1.053-1.44,1.225-2.791h-0.424c-0.242,0-0.359,0.009-0.531,0.036v-0.576
		c0.145,0.036,0.279,0.045,0.559,0.045h0.441c0.008-0.198,0.018-0.342,0.018-0.495c0-0.189-0.01-0.297-0.027-0.433h0.594
		c-0.025,0.162-0.045,0.352-0.053,0.585c-0.01,0.126-0.01,0.171-0.018,0.342H123.817z M126.528,33.895
		c0.297,0,0.504-0.009,0.711-0.036c-0.027,0.207-0.027,0.207-0.037,0.378c-0.063,0.711-0.152,1.251-0.26,1.503
		c-0.072,0.162-0.207,0.288-0.387,0.351c-0.109,0.036-0.289,0.054-0.576,0.054c-0.252,0-0.559-0.018-0.9-0.045
		c-0.02-0.216-0.045-0.351-0.117-0.567c0.332,0.072,0.729,0.108,1.098,0.108c0.244,0,0.342-0.063,0.406-0.243
		c0.07-0.216,0.115-0.513,0.152-1.008h-1.98c-0.379,0.945-1,1.513-2.188,2.026c-0.1-0.198-0.199-0.333-0.352-0.486
		c1.063-0.36,1.639-0.81,1.971-1.54h-0.908c-0.406,0-0.648,0.009-0.873,0.045V33.85c0.234,0.036,0.494,0.045,0.9,0.045h1.053
		c0.072-0.297,0.1-0.522,0.1-0.738c0-0.063,0-0.09-0.01-0.153l0.658,0.036c-0.037,0.117-0.064,0.225-0.109,0.477
		c-0.027,0.135-0.045,0.216-0.08,0.378H126.528z M126.978,37.361c0.334,0,0.523-0.009,0.748-0.036
		c-0.01,0.162-0.018,0.342-0.027,0.54c-0.072,1.503-0.18,2.377-0.352,2.746c-0.117,0.261-0.359,0.36-0.881,0.36
		c-0.316,0-0.396,0-0.604-0.027c-0.02-0.252-0.037-0.333-0.117-0.567c0.342,0.063,0.559,0.09,0.811,0.09
		c0.232,0,0.314-0.045,0.359-0.198c0.135-0.459,0.217-1.27,0.242-2.413h-0.971c-0.127,0.927-0.279,1.503-0.568,2.115
		c-0.215,0.459-0.404,0.72-0.783,1.135c-0.117-0.18-0.225-0.297-0.396-0.432c0.676-0.594,1.063-1.458,1.234-2.818h-0.244
		c-0.26,0-0.377,0.009-0.549,0.036v-0.576c0.154,0.036,0.289,0.045,0.576,0.045h0.262c0.018-0.271,0.027-0.396,0.027-0.559
		c0-0.144-0.01-0.243-0.018-0.378h0.584c-0.027,0.153-0.035,0.234-0.063,0.729c-0.01,0.081-0.01,0.117-0.018,0.207H126.978z"/>
	<path d="M133.089,33.093c0.422,0.648,0.818,1.071,1.512,1.611c0.783,0.622,1.648,1.117,2.484,1.44
		c-0.18,0.216-0.27,0.369-0.352,0.576c-0.898-0.423-1.773-0.972-2.502-1.566c-0.604-0.495-1.018-0.945-1.439-1.539
		c-0.441,0.612-0.783,0.981-1.352,1.476c-0.791,0.685-1.529,1.17-2.43,1.584c-0.09-0.189-0.234-0.378-0.379-0.513
		c0.928-0.405,1.639-0.846,2.385-1.467c0.623-0.522,1.037-0.981,1.432-1.603H133.089z M130.046,38.117
		c-0.441,0-0.758,0.018-1.027,0.054v-0.648c0.279,0.036,0.576,0.054,1.027,0.054h5.545c0.459,0,0.748-0.018,1.027-0.054v0.648
		c-0.279-0.036-0.586-0.054-1.027-0.054h-3.232c-0.494,1.081-0.666,1.414-1.125,2.125c1.242-0.081,2.18-0.171,3.512-0.333
		c-0.541-0.585-0.703-0.747-1.1-1.116l0.469-0.288c0.9,0.846,1.504,1.513,2.18,2.377l-0.496,0.369
		c-0.352-0.496-0.469-0.648-0.656-0.882c-1.604,0.216-2.963,0.36-4.367,0.468c-1.117,0.09-1.297,0.108-1.521,0.162l-0.107-0.684
		c0.152,0.018,0.324,0.027,0.459,0.027c0.145,0,0.145,0,0.953-0.054c0.506-0.801,0.793-1.341,1.145-2.17H130.046z M130.622,35.875
		c0.18,0.027,0.377,0.036,0.711,0.036h2.908c0.35,0,0.557-0.009,0.756-0.036v0.604c-0.189-0.027-0.424-0.036-0.756-0.036h-2.918
		c-0.27,0-0.521,0.009-0.701,0.036V35.875z"/>
</g>
<rect x="98.188" y="31.046" fill="none" stroke="#000000" stroke-width="0.75" stroke-miterlimit="10" width="42.52" height="12.334"/>
<g>
	<path d="M102.073,69.19c0-0.432-0.018-0.747-0.055-1.107c0.297,0.036,0.568,0.045,1.055,0.045h5.383
		c0.477,0,0.738-0.009,1.07-0.045c-0.035,0.333-0.053,0.639-0.053,1.107v5.482c0,0.657,0.018,0.99,0.053,1.233h-0.629v-0.549h-6.248
		v0.549h-0.631c0.037-0.243,0.055-0.567,0.055-1.233V69.19z M102.649,74.844h6.248v-6.203h-6.248V74.844z M104.188,69.973
		c-0.387,0-0.604,0.009-0.846,0.045v-0.576c0.252,0.045,0.449,0.054,0.846,0.054h3.178c0.406,0,0.648-0.018,0.883-0.054v0.576
		c-0.252-0.036-0.469-0.045-0.873-0.045h-1.387v1.396h1.107c0.404,0,0.586-0.009,0.811-0.045v0.567
		c-0.225-0.036-0.434-0.045-0.811-0.045h-1.107v1.647h1.512c0.369,0,0.631-0.018,0.883-0.054v0.594
		c-0.262-0.036-0.531-0.054-0.883-0.054h-3.43c-0.369,0-0.621,0.018-0.891,0.054v-0.594c0.252,0.036,0.514,0.054,0.891,0.054h1.359
		v-1.647h-0.963c-0.379,0-0.594,0.009-0.818,0.045v-0.567c0.225,0.036,0.404,0.045,0.818,0.045h0.963v-1.396H104.188z
		 M107.079,72.008c0.369,0.369,0.512,0.567,0.846,1.071l-0.424,0.27c-0.314-0.549-0.459-0.747-0.801-1.116L107.079,72.008z"/>
	<path d="M115.394,70.63c0.055,0.558,0.082,0.765,0.207,1.27l2.053-0.027c0.523,0,0.73-0.018,0.955-0.063v0.621
		c-0.334-0.027-0.334-0.027-0.945-0.027l-1.918,0.018c0.244,0.756,0.621,1.414,1.145,1.972c0.35,0.378,0.791,0.684,0.98,0.684
		c0.207,0,0.342-0.396,0.424-1.296c0.225,0.189,0.305,0.234,0.539,0.342c-0.197,1.197-0.432,1.602-0.908,1.602
		c-0.496,0-1.225-0.549-1.811-1.368c-0.441-0.612-0.729-1.188-0.963-1.927l-2.646,0.036v2.395c0.945-0.207,1.711-0.423,2.691-0.756
		l0.018,0.558c-1.387,0.459-2.15,0.666-3.682,0.981c-0.217,0.045-0.396,0.09-0.496,0.126l-0.152-0.648
		c0.234-0.009,0.549-0.054,1.035-0.144v-5.762c0-0.441-0.008-0.675-0.035-1.017c0.287,0.036,0.566,0.045,1.053,0.045h4.006
		c0.396,0,0.658-0.009,0.938-0.045c-0.027,0.18-0.027,0.315-0.027,0.72v1.071c0,0.333,0.008,0.504,0.027,0.666
		c-0.271-0.018-0.531-0.027-0.893-0.027H115.394z M112.505,70.126h4.779v-1.368h-4.779V70.126z M112.505,70.63v1.305l2.512-0.027
		c-0.09-0.432-0.145-0.756-0.207-1.278H112.505z"/>
	<path d="M120.657,68.523c0-0.333-0.018-0.558-0.063-0.801h0.693c-0.045,0.243-0.063,0.432-0.063,0.792v1.495h0.117
		c0.332,0,0.477-0.009,0.648-0.045v0.594c-0.217-0.027-0.342-0.036-0.641-0.036h-0.125v4.393c0,0.369,0.018,0.639,0.063,0.972
		h-0.693c0.045-0.279,0.063-0.576,0.063-0.981v-4.384h-0.232c-0.324,0-0.504,0.009-0.748,0.036v-0.594
		c0.207,0.036,0.379,0.045,0.748,0.045h0.232V68.523z M123.817,72.044c0.352,0,0.551-0.009,0.758-0.036
		c-0.02,0.171-0.02,0.27-0.027,0.504c0,0.576-0.09,1.576-0.18,2.161c-0.137,0.855-0.271,0.981-1.072,0.981
		c-0.117,0-0.287-0.009-0.432-0.018c-0.018-0.243-0.037-0.342-0.117-0.567c0.262,0.054,0.469,0.081,0.676,0.081
		c0.225,0,0.314-0.063,0.359-0.234c0.117-0.459,0.207-1.341,0.225-2.376h-0.791c-0.172,1.449-0.551,2.368-1.352,3.259
		c-0.162-0.243-0.215-0.306-0.387-0.468c0.711-0.666,1.053-1.44,1.225-2.791h-0.424c-0.242,0-0.359,0.009-0.531,0.036v-0.576
		c0.145,0.036,0.279,0.045,0.559,0.045h0.441c0.008-0.198,0.018-0.342,0.018-0.495c0-0.189-0.01-0.297-0.027-0.433h0.594
		c-0.025,0.162-0.045,0.352-0.053,0.585c-0.01,0.126-0.01,0.171-0.018,0.342H123.817z M126.528,68.578
		c0.297,0,0.504-0.009,0.711-0.036c-0.027,0.207-0.027,0.207-0.037,0.378c-0.063,0.711-0.152,1.251-0.26,1.503
		c-0.072,0.162-0.207,0.288-0.387,0.351c-0.109,0.036-0.289,0.054-0.576,0.054c-0.252,0-0.559-0.018-0.9-0.045
		c-0.02-0.216-0.045-0.351-0.117-0.567c0.332,0.072,0.729,0.108,1.098,0.108c0.244,0,0.342-0.063,0.406-0.243
		c0.07-0.216,0.115-0.513,0.152-1.008h-1.98c-0.379,0.945-1,1.513-2.188,2.026c-0.1-0.198-0.199-0.333-0.352-0.486
		c1.063-0.36,1.639-0.81,1.971-1.54h-0.908c-0.406,0-0.648,0.009-0.873,0.045v-0.585c0.234,0.036,0.494,0.045,0.9,0.045h1.053
		c0.072-0.297,0.1-0.522,0.1-0.738c0-0.063,0-0.09-0.01-0.153l0.658,0.036c-0.037,0.117-0.064,0.225-0.109,0.477
		c-0.027,0.135-0.045,0.216-0.08,0.378H126.528z M126.978,72.044c0.334,0,0.523-0.009,0.748-0.036
		c-0.01,0.162-0.018,0.342-0.027,0.54c-0.072,1.503-0.18,2.377-0.352,2.746c-0.117,0.261-0.359,0.36-0.881,0.36
		c-0.316,0-0.396,0-0.604-0.027c-0.02-0.252-0.037-0.333-0.117-0.567c0.342,0.063,0.559,0.09,0.811,0.09
		c0.232,0,0.314-0.045,0.359-0.198c0.135-0.459,0.217-1.27,0.242-2.413h-0.971c-0.127,0.927-0.279,1.503-0.568,2.115
		c-0.215,0.459-0.404,0.72-0.783,1.135c-0.117-0.18-0.225-0.297-0.396-0.432c0.676-0.594,1.063-1.458,1.234-2.818h-0.244
		c-0.26,0-0.377,0.009-0.549,0.036v-0.576c0.154,0.036,0.289,0.045,0.576,0.045h0.262c0.018-0.271,0.027-0.396,0.027-0.559
		c0-0.144-0.01-0.243-0.018-0.378h0.584c-0.027,0.153-0.035,0.234-0.063,0.729c-0.01,0.081-0.01,0.117-0.018,0.207H126.978z"/>
	<path d="M133.089,67.776c0.422,0.648,0.818,1.071,1.512,1.611c0.783,0.622,1.648,1.117,2.484,1.44
		c-0.18,0.216-0.27,0.369-0.352,0.576c-0.898-0.423-1.773-0.972-2.502-1.566c-0.604-0.495-1.018-0.945-1.439-1.539
		c-0.441,0.612-0.783,0.981-1.352,1.476c-0.791,0.685-1.529,1.17-2.43,1.584c-0.09-0.189-0.234-0.378-0.379-0.513
		c0.928-0.405,1.639-0.846,2.385-1.467c0.623-0.522,1.037-0.981,1.432-1.603H133.089z M130.046,72.8
		c-0.441,0-0.758,0.018-1.027,0.054v-0.648c0.279,0.036,0.576,0.054,1.027,0.054h5.545c0.459,0,0.748-0.018,1.027-0.054v0.648
		c-0.279-0.036-0.586-0.054-1.027-0.054h-3.232c-0.494,1.081-0.666,1.414-1.125,2.125c1.242-0.081,2.18-0.171,3.512-0.333
		c-0.541-0.585-0.703-0.747-1.1-1.116l0.469-0.288c0.9,0.846,1.504,1.513,2.18,2.377l-0.496,0.369
		c-0.352-0.496-0.469-0.648-0.656-0.882c-1.604,0.216-2.963,0.36-4.367,0.468c-1.117,0.09-1.297,0.108-1.521,0.162l-0.107-0.684
		c0.152,0.018,0.324,0.027,0.459,0.027c0.145,0,0.145,0,0.953-0.054c0.506-0.801,0.793-1.341,1.145-2.17H130.046z M130.622,70.558
		c0.18,0.027,0.377,0.036,0.711,0.036h2.908c0.35,0,0.557-0.009,0.756-0.036v0.604c-0.189-0.027-0.424-0.036-0.756-0.036h-2.918
		c-0.27,0-0.521,0.009-0.701,0.036V70.558z"/>
</g>
<rect x="98.188" y="65.729" fill="none" stroke="#000000" stroke-width="0.75" stroke-miterlimit="10" width="42.52" height="12.334"/>
<g>
	<path d="M64.976,33.823c0.279,0.027,0.441,0.036,0.811,0.036c0.811,0,2.106-0.054,2.746-0.126c0.198-0.018,0.378-0.054,0.504-0.108
		l0.378,0.477c-0.144,0.099-0.207,0.153-0.441,0.378c-0.882,0.855-2.052,1.764-2.952,2.295c0.44-0.081,0.792-0.126,2.16-0.243
		c0.369-0.027,0.919-0.081,1.603-0.144c0.369-0.027,0.64-0.054,0.819-0.072c0.117-0.009,0.153-0.009,0.261-0.036l0.063,0.63
		c-0.09,0-0.162,0-0.198,0c-0.918,0-1.81,0.171-2.476,0.486c-0.459,0.216-0.873,0.531-1.125,0.855
		c-0.207,0.27-0.288,0.477-0.288,0.747c0,0.738,0.773,1.162,2.143,1.162c0.233,0,0.414-0.018,0.612-0.054l0.026,0.693
		c-0.152-0.009-0.152-0.009-0.612-0.018c-1.053-0.018-1.836-0.216-2.269-0.585c-0.342-0.288-0.531-0.693-0.531-1.134
		c0-0.801,0.667-1.512,1.963-2.08c-0.126,0.018-0.126,0.018-0.495,0.081c-0.153,0.018-0.954,0.126-1.468,0.189
		c-1.431,0.171-2.322,0.306-2.655,0.405l-0.072-0.684c0.027,0,0.045,0,0.063,0c0.278,0,0.954-0.072,1.575-0.18
		c0.892-0.531,2.089-1.467,2.989-2.323c0.144-0.135,0.18-0.162,0.297-0.252c-0.505,0.099-1.495,0.171-2.818,0.216
		c-0.342,0.018-0.378,0.018-0.558,0.036L64.976,33.823z"/>
	<path d="M75.885,38.145c-0.522,1.188-1.054,1.729-1.702,1.729c-0.854,0-1.494-0.937-1.494-2.197c0-0.918,0.342-1.81,0.945-2.485
		c0.721-0.792,1.701-1.197,2.908-1.197c1.008,0,1.891,0.315,2.476,0.891c0.567,0.549,0.873,1.333,0.873,2.197
		c0,1.396-0.756,2.548-2.062,3.106c-0.405,0.171-0.747,0.279-1.368,0.414c-0.09-0.297-0.145-0.387-0.315-0.603
		c0.657-0.108,1.08-0.225,1.504-0.423c0.99-0.45,1.593-1.414,1.593-2.521c0-1.026-0.521-1.854-1.431-2.26
		c-0.334-0.144-0.595-0.207-1.045-0.225C76.632,35.822,76.291,37.199,75.885,38.145z M74.778,35.002
		c-0.909,0.549-1.468,1.566-1.468,2.683c0,0.864,0.378,1.531,0.864,1.531c0.378,0,0.738-0.423,1.126-1.306
		c0.368-0.846,0.702-2.179,0.818-3.331C75.579,34.625,75.192,34.75,74.778,35.002z"/>
	<path d="M82.247,37.172c0-0.324,0.01-0.621,0.037-1.08c-0.389,0.657-0.506,0.828-0.945,1.351c-0.189-0.279-0.217-0.315-0.379-0.486
		c0.793-0.837,1.332-1.666,1.738-2.683c0.188-0.459,0.332-0.945,0.377-1.279l0.631,0.198c-0.055,0.126-0.082,0.207-0.189,0.513
		c-0.197,0.594-0.387,1.026-0.693,1.603v4.843c0,0.423,0.018,0.765,0.045,1.071h-0.676c0.037-0.324,0.055-0.612,0.055-1.089V37.172z
		 M84.849,36.551v3.34c0,0.225,0.063,0.297,0.334,0.352c0.242,0.054,0.611,0.072,1.322,0.072c1.125,0,1.586-0.045,1.793-0.162
		c0.207-0.117,0.324-0.495,0.387-1.287c0.242,0.135,0.332,0.162,0.584,0.225c-0.143,0.909-0.287,1.314-0.531,1.485
		c-0.287,0.198-0.881,0.27-2.268,0.27c-0.531,0-0.982-0.018-1.305-0.054c-0.352-0.036-0.604-0.126-0.738-0.27
		c-0.1-0.099-0.145-0.252-0.145-0.495v-3.277l-0.162,0.054c-0.486,0.171-0.594,0.216-0.748,0.297l-0.125-0.621
		c0.242-0.036,0.521-0.099,0.783-0.189l0.252-0.09v-1.242c0-0.378-0.018-0.657-0.055-0.918h0.676
		c-0.037,0.252-0.055,0.513-0.055,0.891v1.081l1.314-0.459v-1.621c0-0.324-0.018-0.576-0.053-0.837h0.656
		c-0.035,0.261-0.055,0.495-0.055,0.837v1.431l1.414-0.486c0.359-0.126,0.541-0.198,0.711-0.288
		c-0.008,0.135-0.018,0.279-0.018,0.396c-0.018,0.783-0.1,2.197-0.162,2.728c-0.09,0.756-0.242,0.927-0.818,0.927
		c-0.209,0-0.396-0.009-0.648-0.036c-0.037-0.216-0.064-0.351-0.154-0.576c0.279,0.063,0.541,0.099,0.721,0.099
		c0.297,0,0.324-0.063,0.396-0.774c0.053-0.504,0.09-1.215,0.107-2.007l-1.549,0.549v2.539c0,0.351,0.02,0.612,0.055,0.864H86.11
		c0.035-0.252,0.053-0.504,0.053-0.874v-2.341L84.849,36.551z"/>
</g>
<rect x="60.856" y="31.046" fill="none" stroke="#000000" stroke-width="0.75" stroke-miterlimit="10" width="31.182" height="12.334"/>
<g>
	<path d="M39.284,71.321c0.207,0.036,0.369,0.045,0.693,0.045h0.468c0.262,0,0.478-0.018,0.693-0.045
		c-0.036,0.279-0.045,0.504-0.045,0.955v1.747c0.226,0.468,0.405,0.666,0.802,0.837c0.45,0.189,0.99,0.261,2.062,0.261
		c1.639,0,2.736-0.054,3.583-0.18c-0.126,0.288-0.162,0.396-0.207,0.667c-0.855,0.036-1.98,0.054-2.936,0.054
		c-1.602,0-2.133-0.063-2.664-0.315c-0.369-0.171-0.666-0.441-0.937-0.855c-0.414,0.423-0.612,0.594-1.089,0.963
		c-0.081,0.054-0.145,0.108-0.324,0.27l-0.298-0.594c0.396-0.18,0.919-0.576,1.45-1.089v-2.169h-0.595
		c-0.297,0-0.45,0.009-0.657,0.045V71.321z M39.915,67.99c0.585,0.559,0.99,1,1.44,1.594l-0.46,0.405
		c-0.513-0.729-0.783-1.054-1.404-1.63L39.915,67.99z M45.045,73.725h1.314c0.45,0,0.666-0.009,0.873-0.045v0.576
		c-0.252-0.027-0.531-0.045-0.873-0.045h-3.412c-0.297,0-0.459,0.009-0.729,0.045c0.035-0.27,0.045-0.504,0.045-0.927v-2.35
		c0.009-0.279,0.018-0.549,0.036-0.811c-0.262,0.396-0.505,0.675-0.811,0.973c-0.153-0.216-0.171-0.243-0.388-0.387
		c0.622-0.576,0.919-0.927,1.27-1.521c0.324-0.531,0.559-1.098,0.612-1.44l0.576,0.135c-0.054,0.099-0.054,0.099-0.198,0.45
		c-0.081,0.207-0.252,0.549-0.396,0.801h1.539c0.288-0.486,0.504-0.954,0.604-1.341l0.585,0.153
		c-0.054,0.081-0.09,0.145-0.261,0.496c-0.117,0.234-0.243,0.477-0.379,0.693h1.216c0.387,0,0.63-0.009,0.847-0.045v0.567
		c-0.234-0.027-0.46-0.036-0.802-0.036h-1.27v0.99h0.919c0.45,0,0.692-0.009,0.882-0.036v0.54c-0.243-0.027-0.459-0.036-0.882-0.036
		h-0.919v1.008h0.919c0.45,0,0.692-0.009,0.882-0.036v0.54c-0.243-0.027-0.459-0.036-0.882-0.036h-0.919V73.725z M44.524,69.665
		h-1.711v0.99h1.711V69.665z M44.524,71.124h-1.711v1.008h1.711V71.124z M42.813,72.6v1.125h1.711V72.6H42.813z"/>
	<path d="M50.876,71.781c-0.549,0.855-1.296,1.575-2.215,2.151c-0.152-0.189-0.278-0.315-0.44-0.441
		c0.927-0.468,1.71-1.197,2.151-2.008L50.876,71.781z M55.342,70.574c0.405,0,0.666-0.018,0.927-0.054v0.63
		c-0.261-0.036-0.549-0.054-0.927-0.054H52.66v2.152c0,0.432-0.262,0.603-0.91,0.603c-0.261,0-0.585-0.009-0.909-0.036
		c-0.026-0.225-0.063-0.369-0.144-0.576c0.396,0.072,0.702,0.099,1.008,0.099c0.298,0,0.369-0.036,0.369-0.189v-2.053h-2.79
		c-0.415,0-0.693,0.018-0.973,0.054v-0.63c0.279,0.036,0.549,0.054,0.973,0.054h0.594v-1.27c0-0.324-0.018-0.549-0.054-0.801h0.666
		c-0.045,0.279-0.054,0.459-0.054,0.801v1.27h1.656V68.63c0-0.36-0.019-0.594-0.055-0.837h0.676
		c-0.045,0.243-0.054,0.45-0.054,0.819v0.261h2.007c0.369,0,0.604-0.018,0.847-0.054v0.603c-0.243-0.036-0.433-0.045-0.847-0.045
		H52.66v1.197H55.342z M54.792,73.23c-0.647,0.648-0.702,0.702-0.909,0.874c-1.278,1.071-2.917,1.683-4.879,1.81
		c-0.081-0.252-0.136-0.369-0.288-0.604c1.53-0.009,2.943-0.396,4.087-1.107c0.693-0.432,1.216-0.918,1.459-1.368L54.792,73.23z
		 M54.226,71.475c0.558,0.666,1.323,1.26,2.169,1.674c-0.216,0.207-0.225,0.225-0.414,0.468c-0.819-0.486-1.548-1.089-2.232-1.846
		L54.226,71.475z"/>
	<path d="M59.633,72.951c-0.378,0-0.621,0.009-0.81,0.036c0.009-0.126,0.018-0.198,0.018-0.252v-0.18l0.009-0.324V71.25
		c0-0.297-0.009-0.468-0.026-0.693c0.207,0.027,0.477,0.036,0.765,0.036h3.431c0.342,0,0.566-0.009,0.738-0.036
		c-0.019,0.189-0.027,0.36-0.027,0.711v0.963c0,0.468,0.009,0.594,0.027,0.756c-0.262-0.027-0.559-0.036-0.883-0.036H62.29v1.999
		c0,0.261,0.081,0.288,0.918,0.288c0.999,0,1.197-0.036,1.323-0.225c0.117-0.171,0.171-0.513,0.207-1.162
		c0.226,0.126,0.369,0.189,0.567,0.243c-0.107,0.927-0.216,1.26-0.468,1.458c-0.216,0.162-0.604,0.216-1.603,0.216
		c-1.278,0-1.513-0.099-1.513-0.63v-2.188h-1.026c-0.054,0.459-0.099,0.684-0.207,0.963c-0.279,0.738-0.873,1.314-1.737,1.684
		c-0.342,0.144-0.612,0.225-1.18,0.351c-0.09-0.225-0.162-0.351-0.314-0.567c1.008-0.153,1.674-0.405,2.151-0.811
		c0.45-0.387,0.639-0.828,0.711-1.62H59.633z M60.912,68.44c0-0.243-0.018-0.468-0.045-0.675h0.657
		c-0.026,0.207-0.045,0.423-0.045,0.675v0.918h0.945c0.45-0.504,0.676-0.819,0.954-1.351l0.55,0.279
		c-0.388,0.513-0.604,0.774-0.883,1.071h1.026c0.522,0,0.747-0.009,0.999-0.036c-0.026,0.234-0.035,0.459-0.035,0.819v0.522
		c0,0.18,0.009,0.324,0.035,0.504h-0.594v-1.323H58.13v1.323h-0.595c0.027-0.216,0.036-0.387,0.036-0.549v-0.576
		c0-0.288-0.009-0.495-0.036-0.72c0.234,0.027,0.478,0.036,0.945,0.036h0.928c-0.226-0.387-0.459-0.675-0.847-1.063l0.505-0.225
		c0.495,0.559,0.621,0.729,0.945,1.288h0.899V68.44z M59.4,72.465h3.781v-1.386H59.4V72.465z"/>
</g>
<rect x="36.856" y="65.771" fill="none" stroke="#000000" stroke-width="0.75" stroke-miterlimit="10" width="31.182" height="12.334"/>
<path fill="none" stroke="#000000" stroke-miterlimit="10" d="M48.188,23.605H9.004c-4.697,0-8.504,3.807-8.504,8.504v10.242
	c0,4.697,3.807,8.504,8.504,8.504h129.681c4.696,0,8.504-3.807,8.504-8.504V32.109c0-4.697-3.808-8.504-8.504-8.504h-33.829"/>
<path fill="none" stroke="#000000" stroke-width="0.75" stroke-miterlimit="10" d="M137.27,0.375h-82.35
	c-3.131,0-5.669,2.538-5.669,5.669v1.036c0,3.131,2.538,5.669,5.669,5.669h40.853l3.833,5.022l10.97-5.022h26.694
	c3.131,0,5.669-2.538,5.669-5.669V6.044C142.938,2.913,140.4,0.375,137.27,0.375z"/>
<g>
	<g>
		<polyline fill="none" stroke="#000000" stroke-width="0.75" stroke-miterlimit="10" points="29.634,43.378 29.634,54.574 
			45.063,54.574 45.063,64.868 		"/>
		<g>
			<path d="M41.464,59.742c0.174-0.111,0.406-0.059,0.518,0.116l3.082,4.839l3.082-4.839c0.111-0.175,0.344-0.227,0.518-0.116
				c0.175,0.111,0.225,0.345,0.115,0.519l-3.398,5.335c-0.069,0.108-0.188,0.174-0.316,0.174s-0.248-0.066-0.316-0.174l-3.398-5.335
				c-0.04-0.063-0.059-0.132-0.059-0.202C41.29,59.935,41.352,59.813,41.464,59.742z"/>
		</g>
	</g>
</g>
<g>
	<g>
		<polyline fill="none" stroke="#000000" stroke-width="0.75" stroke-miterlimit="10" points="76.447,43.378 76.447,54.574 
			61.018,54.574 61.018,64.868 		"/>
		<g>
			<path d="M57.418,59.742c0.174-0.111,0.406-0.059,0.518,0.116l3.082,4.839l3.082-4.839c0.111-0.175,0.344-0.227,0.518-0.116
				c0.175,0.111,0.225,0.345,0.115,0.519l-3.398,5.335c-0.069,0.108-0.188,0.174-0.316,0.174s-0.248-0.066-0.316-0.174l-3.398-5.335
				c-0.04-0.063-0.059-0.132-0.059-0.202C57.244,59.935,57.306,59.813,57.418,59.742z"/>
		</g>
	</g>
</g>
<g>
	<g>
		
			<line fill="none" stroke="#000000" stroke-width="0.75" stroke-miterlimit="10" x1="119.448" y1="43.378" x2="119.448" y2="64.868"/>
		<g>
			<path d="M115.849,59.742c0.174-0.111,0.406-0.059,0.518,0.116l3.082,4.839l3.082-4.839c0.111-0.175,0.344-0.227,0.518-0.116
				c0.175,0.111,0.225,0.345,0.115,0.519l-3.398,5.335c-0.068,0.108-0.188,0.174-0.316,0.174s-0.248-0.066-0.316-0.174l-3.398-5.335
				c-0.039-0.063-0.059-0.132-0.059-0.202C115.675,59.935,115.736,59.813,115.849,59.742z"/>
		</g>
	</g>
</g>
</svg>
