<?xml version="1.0" encoding="utf-8"?>
<!-- Generator: Adobe Illustrator 16.0.3, SVG Export Plug-In . SVG Version: 6.00 Build 0)  -->
<!DOCTYPE svg PUBLIC "-//W3C//DTD SVG 1.1//EN" "http://www.w3.org/Graphics/SVG/1.1/DTD/svg11.dtd">
<svg version="1.1" id="レイヤー_1" xmlns="http://www.w3.org/2000/svg" xmlns:xlink="http://www.w3.org/1999/xlink" x="0px"
	 y="0px" width="400.888px" height="143.02px" viewBox="0 0 400.888 143.02" enable-background="new 0 0 400.888 143.02"
	 xml:space="preserve">
<rect x="299.193" y="35.295" fill="none" stroke="#000000" stroke-width="0.5" stroke-miterlimit="10" width="42.057" height="76.437"/>
<rect x="269.64" y="35.295" fill="none" stroke="#000000" stroke-width="0.5" stroke-miterlimit="10" width="29.554" height="76.437"/>
<rect x="215.08" y="35.295" fill="none" stroke="#000000" stroke-width="0.5" stroke-miterlimit="10" width="54.56" height="76.437"/>
<rect x="111.644" y="35.295" fill="none" stroke="#000000" stroke-width="0.5" stroke-miterlimit="10" width="103.437" height="76.437"/>
<rect x="0.25" y="35.295" fill="none" stroke="#000000" stroke-width="0.5" stroke-miterlimit="10" width="111.394" height="76.437"/>
<g>
	<path d="M193.56,2.662c0-0.911-0.048-1.511-0.168-2.23h1.991c-0.12,0.695-0.168,1.296-0.168,2.23v15.424h7.076V7.124
		c0-1.007-0.048-1.535-0.144-2.23h1.895c-0.096,0.815-0.145,1.463-0.145,2.255v11.945c0,0.959,0.049,1.679,0.168,2.542h-1.774
		v-2.015h-15.327v2.015h-1.775c0.119-1.007,0.168-1.559,0.168-2.422V7.244c0-0.911-0.049-1.655-0.168-2.351h1.895
		c-0.096,0.672-0.119,1.343-0.119,2.326v10.866h6.596V2.662z"/>
	<path d="M210.827,3.118c-1.15,0-1.967,0.048-2.807,0.145V1.487c0.792,0.096,1.607,0.144,2.807,0.144h15.544
		c1.151,0,1.967-0.048,2.782-0.144v1.775c-0.84-0.097-1.679-0.145-2.782-0.145h-7.532v2.734c4.726,2.375,5.518,2.831,8.516,4.918
		l-0.936,1.487c-1.654-1.296-2.807-2.063-5.085-3.358c-0.504-0.313-0.504-0.313-2.495-1.319v11.298c0,1.295,0.049,2.063,0.168,2.83
		h-1.99c0.119-0.768,0.168-1.559,0.168-2.83V3.118H210.827z"/>
	<path d="M235.819,19.262c0,1.104,0.023,1.99,0.12,2.807h-1.774c0.096-0.936,0.143-1.655,0.143-2.879v-7.748
		c0-0.983,0-1.391,0.072-2.902c-0.6,1.151-1.199,1.991-2.158,3.095c-0.264-0.528-0.48-0.84-0.936-1.319
		c1.847-1.895,3.357-4.39,4.414-7.22c0.432-1.151,0.743-2.255,0.863-3.07l1.631,0.479c-0.12,0.336-0.12,0.336-0.432,1.319
		c-0.527,1.511-0.984,2.591-1.943,4.581V19.262z M243.447,17.702c-0.911,0.983-1.367,1.392-2.303,2.063
		c-1.128,0.839-1.847,1.223-3.382,1.942c-0.385-0.552-0.6-0.791-1.152-1.247c1.632-0.647,2.399-1.031,3.479-1.775
		c0.863-0.575,1.295-0.959,2.135-1.895L243.447,17.702z M236.995,14.776c0.647,0.096,1.343,0.144,2.351,0.144h11.873
		c0.936,0,1.583-0.048,2.255-0.144v1.606c-0.815-0.071-1.535-0.12-2.255-0.12h-11.873c-1.176,0-1.8,0.024-2.351,0.12V14.776z
		 M241.576,13.169c-0.911,0-1.392,0.023-2.135,0.096c0.048-0.575,0.097-1.175,0.097-2.015V3.07c0-0.911-0.024-1.367-0.097-1.991
		c0.552,0.072,1.128,0.097,2.159,0.097h7.436c1.031,0,1.583-0.024,2.183-0.097c-0.071,0.576-0.096,1.08-0.096,2.039v8.107
		c0,0.936,0,1.367,0.096,2.039c-0.695-0.072-1.392-0.096-2.159-0.096H241.576z M241.001,4.749h8.658V2.495h-8.658V4.749z
		 M241.001,8.3h8.658V6.021h-8.658V8.3z M241.001,11.873h8.658V9.57h-8.658V11.873z M247.837,16.719
		c2.183,1.967,3.334,2.663,6.045,3.646c-0.552,0.503-0.72,0.743-1.056,1.343c-2.663-1.224-3.91-2.039-6.093-4.006L247.837,16.719z"
		/>
	<path d="M267.936,14.92c1.224,1.224,2.662,2.207,4.365,3.046c1.535,0.744,3.526,1.464,5.349,1.919
		c-0.407,0.432-0.743,0.912-1.007,1.464c-4.51-1.535-7.028-3.022-9.522-5.638c0.023,0.313,0.023,0.313,0.048,0.984
		c0.024,0.287,0.048,1.007,0.048,1.318v1.296c0,1.151,0.048,1.799,0.145,2.519h-1.775c0.096-0.695,0.144-1.439,0.144-2.519v-1.296
		c0-0.383,0.048-1.702,0.097-2.278c-2.303,2.446-4.534,3.813-9.14,5.565c-0.312-0.6-0.528-0.864-1.056-1.392
		c4.246-1.224,7.34-2.879,9.403-4.989h-6.021c-1.296,0-2.039,0.048-2.688,0.144V13.48c0.648,0.096,1.367,0.145,2.663,0.145h6.74
		v-0.168c0-0.72-0.048-1.151-0.12-1.632h1.728c-0.097,0.456-0.12,0.888-0.12,1.607v0.192h6.908c1.367,0,2.063-0.049,2.711-0.145
		v1.583c-0.672-0.096-1.392-0.144-2.711-0.144H267.936z M261.747,8.707c-1.631,1.104-2.471,1.583-4.438,2.591
		c-0.432,0.216-0.553,0.288-0.84,0.456l-0.647-1.487c1.606-0.504,3.405-1.439,5.564-2.902L261.747,8.707z M257.524,1.631
		c1.584,1.271,2.016,1.68,3.551,3.311l-1.08,1.104c-1.511-1.728-2.158-2.327-3.525-3.358L257.524,1.631z M265.009,2.566
		c0.408-0.911,0.624-1.559,0.863-2.566l1.56,0.288c-0.36,0.911-0.552,1.343-0.983,2.278h2.398c0.768,0,1.127-0.023,1.751-0.071
		c-0.071,0.552-0.071,0.791-0.071,1.847v5.085c0,1.008,0,1.344,0.071,1.847c-0.479-0.048-1.079-0.071-1.679-0.071h-4.726
		c-0.671,0-1.296,0.023-1.799,0.071c0.048-0.551,0.071-0.887,0.071-1.847V4.317c0-1.007,0-1.223-0.071-1.822
		c0.575,0.048,0.983,0.071,1.823,0.071H265.009z M263.81,6.236h5.373V3.79h-5.373V6.236z M263.81,9.979h5.373V7.46h-5.373V9.979z
		 M271.869,7.388c2.327,1.151,3.694,1.919,5.541,3.095l-0.888,1.199c-1.871-1.319-3.334-2.183-5.445-3.19L271.869,7.388z
		 M276.595,2.495c-1.487,1.679-2.591,2.687-4.174,3.838l-0.983-1.032c1.823-1.319,2.807-2.254,4.006-3.813L276.595,2.495z"/>
	<path d="M290.073,9.379c1.104,0,1.75-0.024,2.23-0.12v1.607c-0.48-0.072-1.176-0.12-2.184-0.12h-8.035
		c-1.104,0-1.703,0.024-2.278,0.12V9.259c0.552,0.096,1.199,0.12,2.303,0.12h5.181c0.863-1.751,1.271-2.879,1.728-4.773l1.463,0.504
		c-0.6,1.799-0.983,2.759-1.774,4.27H290.073z M289.761,2.854c1.08,0,1.68-0.024,2.23-0.12v1.583c-0.479-0.096-1.15-0.12-2.206-0.12
		h-7.173c-0.982,0-1.606,0.024-2.158,0.12V2.734c0.576,0.096,1.127,0.12,2.23,0.12h2.902V1.967c0-0.768-0.048-1.367-0.144-1.823
		h1.799c-0.096,0.552-0.144,1.08-0.144,1.848v0.863H289.761z M282.948,21.78h-1.606c0.071-0.552,0.096-1.079,0.096-2.159v-4.869
		c0-1.104-0.024-1.511-0.071-2.015c0.503,0.048,1.055,0.071,1.895,0.071h5.685c0.888,0,1.343-0.023,1.751-0.071
		c-0.072,0.479-0.072,0.768-0.072,1.99v5.157c0,0.888,0.024,1.319,0.096,1.896h-1.606v-1.487h-6.165V21.78z M283.356,4.653
		c0.768,1.439,1.104,2.303,1.607,3.982l-1.392,0.479c-0.384-1.487-0.768-2.447-1.56-3.982L283.356,4.653z M282.948,18.949h6.189
		v-4.797h-6.189V18.949z M301.466,1.847c-0.167,0.288-0.167,0.288-0.982,2.135c-0.624,1.416-1.535,3.167-2.471,4.75
		c1.535,1.583,2.135,2.423,2.71,3.766c0.479,1.079,0.72,2.23,0.72,3.358c0,1.295-0.432,2.23-1.223,2.687
		c-0.432,0.239-1.176,0.359-2.159,0.359c-0.647,0-1.271-0.023-1.991-0.096c-0.023-0.672-0.119-1.079-0.312-1.607
		c0.96,0.168,1.56,0.24,2.327,0.24c1.367,0,1.822-0.432,1.822-1.703c0-1.104-0.264-2.159-0.791-3.262
		c-0.624-1.296-1.248-2.063-2.855-3.479c1.392-2.255,2.352-4.27,3.238-6.692h-4.773v17.055c0,1.224,0.049,1.967,0.168,2.662h-1.822
		c0.096-0.695,0.144-1.486,0.144-2.638V3.07c0-0.72-0.024-1.392-0.096-2.207c0.624,0.048,1.079,0.072,1.919,0.072h3.861
		c0.912,0,1.416-0.024,1.848-0.096L301.466,1.847z"/>
</g>
<g>
	<path d="M29.7,52.763c0.648-1.2,0.984-2.087,1.296-3.358l1.728,0.312c-0.504,1.296-0.889,2.159-1.367,3.047h5.78
		c1.343,0,2.063-0.024,2.902-0.12c-0.097,0.791-0.12,1.487-0.12,2.975v12.761c0,1.463,0.023,2.11,0.145,2.782h-1.68v-1.415H25.719
		v1.415h-1.655c0.096-0.695,0.145-1.439,0.145-2.807V55.617c0-1.416-0.024-2.136-0.12-2.975c0.815,0.096,1.535,0.12,2.83,0.12H29.7z
		 M25.719,57.848h12.688v-3.67H25.719V57.848z M25.719,63.028h12.688v-3.79H25.719V63.028z M25.719,68.33h12.688v-3.91H25.719V68.33
		z"/>
	<path d="M63.256,54.394c0.96,0,1.655-0.024,2.398-0.12c-0.096,0.695-0.12,1.319-0.12,2.159v12.641c0,0.815,0.049,1.583,0.145,2.351
		h-1.703v-1.367H48.12v1.367h-1.68c0.097-0.815,0.145-1.511,0.145-2.351V56.385c0-0.768-0.048-1.439-0.12-2.111
		c0.696,0.096,1.392,0.12,2.351,0.12h6.261v-2.398c0-0.864-0.048-1.655-0.168-2.423h1.896c-0.12,0.791-0.168,1.511-0.168,2.423
		v2.398H63.256z M48.12,55.833v5.492h6.956v-5.492H48.12z M48.12,62.692v5.974h6.956v-5.974H48.12z M63.976,61.325v-5.492h-7.34
		v5.492H63.976z M63.976,68.666v-5.974h-7.34v5.974H63.976z"/>
	<path d="M75.679,63.46c-1.008,0-1.655,0.024-2.159,0.097c0.024-0.336,0.048-0.528,0.048-0.672v-0.479l0.024-0.864v-2.614
		c0-0.791-0.024-1.247-0.072-1.847c0.552,0.072,1.271,0.096,2.039,0.096h9.14c0.91,0,1.511-0.023,1.967-0.096
		c-0.049,0.504-0.072,0.959-0.072,1.895v2.566c0,1.248,0.023,1.584,0.072,2.016c-0.696-0.072-1.488-0.097-2.352-0.097h-1.559v5.325
		c0,0.696,0.216,0.768,2.446,0.768c2.663,0,3.19-0.096,3.526-0.6c0.312-0.455,0.455-1.367,0.552-3.094
		c0.6,0.336,0.983,0.504,1.511,0.647c-0.287,2.471-0.576,3.358-1.247,3.886c-0.575,0.432-1.607,0.576-4.27,0.576
		c-3.406,0-4.03-0.265-4.03-1.68V63.46h-2.734c-0.144,1.224-0.264,1.823-0.552,2.567c-0.743,1.967-2.327,3.502-4.63,4.485
		c-0.91,0.384-1.631,0.6-3.142,0.936c-0.239-0.6-0.432-0.936-0.839-1.512c2.686-0.407,4.461-1.079,5.732-2.158
		c1.199-1.032,1.703-2.207,1.895-4.318H75.679z M79.085,51.443c0-0.648-0.049-1.248-0.12-1.8h1.751
		c-0.072,0.552-0.12,1.128-0.12,1.8v2.446h2.519c1.199-1.343,1.799-2.183,2.543-3.598l1.463,0.743
		c-1.031,1.367-1.607,2.063-2.351,2.854h2.734c1.392,0,1.991-0.024,2.663-0.096c-0.072,0.623-0.096,1.223-0.096,2.183v1.392
		c0,0.479,0.023,0.863,0.096,1.343h-1.584v-3.526h-16.91v3.526H70.09c0.071-0.575,0.096-1.031,0.096-1.463v-1.535
		c0-0.768-0.024-1.319-0.096-1.919c0.624,0.071,1.271,0.096,2.519,0.096h2.471c-0.6-1.031-1.224-1.799-2.255-2.83l1.343-0.6
		c1.32,1.486,1.655,1.942,2.52,3.43h2.398V51.443z M75.055,62.165H85.13v-3.694H75.055V62.165z"/>
</g>
<g>
	<path d="M43.851,93.499c0.288,0.792,0.48,1.128,0.863,1.535c0.672,0.744,1.703,1.128,3.023,1.128c1.727,0,2.974-0.696,3.861-2.207
		c0.455-0.768,0.84-1.943,1.031-3.07c0.096-0.6,0.168-1.583,0.216-2.807c-0.336,0.647-0.527,0.888-0.96,1.344
		c-1.223,1.151-2.566,1.679-4.365,1.679c-1.775,0-3.286-0.552-4.317-1.583s-1.631-2.614-1.631-4.317c0-3.814,2.566-6.309,6.5-6.309
		c2.687,0,4.894,1.535,5.806,4.029c0.479,1.296,0.695,2.927,0.695,4.989c0,3.334-0.695,6.045-1.991,7.652
		c-1.199,1.511-2.782,2.23-4.989,2.23c-1.655,0-2.998-0.432-4.029-1.295c-0.672-0.552-1.057-1.104-1.68-2.375L43.851,93.499z
		 M52.39,85.056c0-2.591-1.918-4.533-4.485-4.533c-1.583,0-3.022,0.768-3.813,2.039c-0.384,0.623-0.624,1.583-0.624,2.519
		c0,2.71,1.655,4.413,4.271,4.413C50.399,89.493,52.39,87.599,52.39,85.056z"/>
	<path d="M68.868,88.966c1.199,0.888,1.799,2.159,1.799,3.766c0,3.286-2.399,5.134-6.621,5.134c-4.389,0-6.813-1.823-6.813-5.134
		c0-1.727,0.696-3.046,2.135-3.981c0.744-0.479,1.271-0.672,2.159-0.815c-2.11-0.384-3.478-2.087-3.478-4.317
		c0-2.903,2.278-4.75,5.9-4.75c3.67,0,5.925,1.799,5.925,4.75c0,2.23-1.343,3.909-3.478,4.317
		C67.404,88.078,68.076,88.366,68.868,88.966z M59.2,92.611c0,2.279,1.752,3.622,4.727,3.622c1.679,0,3.046-0.432,3.861-1.247
		c0.6-0.552,0.912-1.391,0.912-2.375c0-2.351-1.8-3.766-4.75-3.766S59.2,90.285,59.2,92.611z M59.921,83.761
		c0,2.135,1.535,3.43,4.053,3.43c2.52,0,4.03-1.295,4.03-3.43c0-2.015-1.583-3.286-4.054-3.286
		C61.503,80.475,59.921,81.77,59.921,83.761z"/>
</g>
<g>
	<path d="M129.757,59.119c0.552,0.096,0.983,0.119,1.848,0.119h1.246c0.696,0,1.271-0.048,1.848-0.119
		c-0.096,0.743-0.12,1.343-0.12,2.542v4.653c0.6,1.248,1.079,1.775,2.135,2.231c1.199,0.503,2.639,0.695,5.493,0.695
		c4.365,0,7.292-0.144,9.547-0.479c-0.336,0.768-0.432,1.055-0.552,1.774c-2.278,0.097-5.277,0.145-7.819,0.145
		c-4.27,0-5.686-0.168-7.101-0.84c-0.983-0.456-1.774-1.175-2.495-2.278c-1.104,1.127-1.631,1.583-2.902,2.566
		c-0.215,0.144-0.383,0.288-0.863,0.72l-0.791-1.583c1.055-0.48,2.446-1.535,3.861-2.902v-5.781h-1.583
		c-0.792,0-1.199,0.023-1.751,0.12V59.119z M131.437,50.244c1.559,1.486,2.638,2.662,3.838,4.245l-1.225,1.079
		c-1.367-1.942-2.086-2.806-3.741-4.341L131.437,50.244z M145.108,65.523h3.502c1.199,0,1.775-0.024,2.326-0.12v1.535
		c-0.671-0.072-1.414-0.12-2.326-0.12h-9.091c-0.792,0-1.224,0.024-1.942,0.12c0.096-0.72,0.119-1.343,0.119-2.471v-6.261
		c0.024-0.743,0.049-1.463,0.096-2.158c-0.695,1.055-1.343,1.799-2.158,2.59c-0.408-0.575-0.456-0.647-1.031-1.031
		c1.654-1.535,2.446-2.471,3.382-4.054c0.863-1.415,1.487-2.927,1.631-3.838l1.535,0.36c-0.144,0.264-0.144,0.264-0.527,1.199
		c-0.216,0.552-0.672,1.463-1.056,2.135h4.102c0.768-1.296,1.344-2.543,1.607-3.574l1.559,0.408
		c-0.144,0.216-0.239,0.383-0.695,1.318c-0.312,0.624-0.647,1.271-1.008,1.848h3.238c1.031,0,1.68-0.024,2.256-0.12v1.511
		c-0.624-0.071-1.225-0.096-2.135-0.096h-3.383v2.639h2.447c1.199,0,1.846-0.024,2.35-0.096v1.439
		c-0.646-0.072-1.223-0.097-2.35-0.097h-2.447v2.687h2.447c1.199,0,1.846-0.023,2.35-0.096v1.439
		c-0.646-0.072-1.223-0.096-2.35-0.096h-2.447V65.523z M143.718,54.705h-4.559v2.639h4.559V54.705z M143.718,58.591h-4.559v2.687
		h4.559V58.591z M139.159,62.525v2.998h4.559v-2.998H139.159z"/>
	<path d="M160.649,60.342c-1.463,2.279-3.454,4.198-5.9,5.733c-0.408-0.504-0.744-0.84-1.176-1.176
		c2.471-1.247,4.558-3.19,5.732-5.349L160.649,60.342z M172.547,57.128c1.079,0,1.774-0.048,2.471-0.144v1.679
		c-0.696-0.096-1.464-0.144-2.471-0.144h-7.147v5.732c0,1.151-0.696,1.607-2.424,1.607c-0.695,0-1.559-0.024-2.422-0.097
		c-0.072-0.6-0.168-0.983-0.384-1.535c1.056,0.192,1.87,0.265,2.687,0.265c0.791,0,0.983-0.097,0.983-0.504V58.52h-7.437
		c-1.104,0-1.847,0.048-2.59,0.144v-1.679c0.743,0.096,1.463,0.144,2.59,0.144h1.584v-3.382c0-0.864-0.049-1.464-0.145-2.135h1.775
		c-0.12,0.743-0.145,1.223-0.145,2.135v3.382h4.414v-5.182c0-0.959-0.048-1.583-0.145-2.23h1.8c-0.12,0.647-0.144,1.199-0.144,2.183
		v0.696h5.349c0.983,0,1.606-0.048,2.255-0.145v1.607c-0.648-0.096-1.152-0.12-2.255-0.12h-5.349v3.19H172.547z M171.083,64.204
		c-1.727,1.727-1.87,1.871-2.422,2.326c-3.406,2.854-7.771,4.486-13.001,4.821c-0.216-0.671-0.36-0.983-0.768-1.606
		c4.077-0.024,7.844-1.056,10.89-2.95c1.848-1.151,3.238-2.447,3.887-3.646L171.083,64.204z M169.572,59.526
		c1.487,1.775,3.526,3.358,5.781,4.462c-0.575,0.552-0.6,0.6-1.104,1.247c-2.183-1.295-4.126-2.902-5.948-4.917L169.572,59.526z"/>
	<path d="M183.986,63.46c-1.008,0-1.655,0.024-2.159,0.097c0.024-0.336,0.049-0.528,0.049-0.672v-0.479l0.023-0.864v-2.614
		c0-0.791-0.023-1.247-0.072-1.847c0.552,0.072,1.271,0.096,2.039,0.096h9.139c0.912,0,1.512-0.023,1.967-0.096
		c-0.047,0.504-0.071,0.959-0.071,1.895v2.566c0,1.248,0.024,1.584,0.071,2.016c-0.695-0.072-1.486-0.097-2.35-0.097h-1.56v5.325
		c0,0.696,0.216,0.768,2.446,0.768c2.662,0,3.19-0.096,3.526-0.6c0.312-0.455,0.456-1.367,0.552-3.094
		c0.6,0.336,0.983,0.504,1.511,0.647c-0.288,2.471-0.575,3.358-1.247,3.886c-0.576,0.432-1.607,0.576-4.27,0.576
		c-3.406,0-4.029-0.265-4.029-1.68V63.46h-2.735c-0.144,1.224-0.264,1.823-0.552,2.567c-0.743,1.967-2.326,3.502-4.629,4.485
		c-0.912,0.384-1.631,0.6-3.143,0.936c-0.24-0.6-0.432-0.936-0.84-1.512c2.688-0.407,4.462-1.079,5.733-2.158
		c1.199-1.032,1.702-2.207,1.895-4.318H183.986z M187.392,51.443c0-0.648-0.047-1.248-0.119-1.8h1.751
		c-0.072,0.552-0.12,1.128-0.12,1.8v2.446h2.519c1.2-1.343,1.8-2.183,2.543-3.598l1.463,0.743c-1.031,1.367-1.606,2.063-2.351,2.854
		h2.734c1.392,0,1.991-0.024,2.662-0.096c-0.071,0.623-0.096,1.223-0.096,2.183v1.392c0,0.479,0.024,0.863,0.096,1.343h-1.582
		v-3.526H179.98v3.526h-1.583c0.072-0.575,0.096-1.031,0.096-1.463v-1.535c0-0.768-0.023-1.319-0.096-1.919
		c0.623,0.071,1.271,0.096,2.519,0.096h2.471c-0.601-1.031-1.224-1.799-2.255-2.83l1.344-0.6c1.318,1.486,1.654,1.942,2.518,3.43
		h2.398V51.443z M183.362,62.165h10.074v-3.694h-10.074V62.165z"/>
</g>
<g>
	<path d="M152.158,93.499c0.288,0.792,0.479,1.128,0.864,1.535c0.671,0.744,1.703,1.128,3.021,1.128
		c1.728,0,2.975-0.696,3.862-2.207c0.456-0.768,0.839-1.943,1.031-3.07c0.097-0.6,0.168-1.583,0.216-2.807
		c-0.336,0.647-0.527,0.888-0.959,1.344c-1.224,1.151-2.566,1.679-4.366,1.679c-1.774,0-3.286-0.552-4.317-1.583
		s-1.631-2.614-1.631-4.317c0-3.814,2.566-6.309,6.5-6.309c2.687,0,4.894,1.535,5.805,4.029c0.48,1.296,0.695,2.927,0.695,4.989
		c0,3.334-0.695,6.045-1.99,7.652c-1.199,1.511-2.783,2.23-4.989,2.23c-1.655,0-2.999-0.432-4.03-1.295
		c-0.672-0.552-1.055-1.104-1.679-2.375L152.158,93.499z M160.698,85.056c0-2.591-1.92-4.533-4.486-4.533
		c-1.583,0-3.021,0.768-3.813,2.039c-0.384,0.623-0.624,1.583-0.624,2.519c0,2.71,1.655,4.413,4.27,4.413
		C158.707,89.493,160.698,87.599,160.698,85.056z"/>
	<path d="M168.252,79.131c0.624,0.097,1.079,0.12,1.991,0.12h1.511c0.815,0,1.2-0.023,1.991-0.12
		c-0.145,1.464-0.216,2.687-0.216,3.982v11.657c0,1.128,0.048,1.823,0.192,2.711h-2.279c0.144-0.84,0.191-1.607,0.191-2.711V80.882
		h-1.295c-0.768,0-1.391,0.048-2.087,0.145V79.131z"/>
</g>
<g>
	<path d="M230.202,91.125c0.504-0.576,1.055-1.248,1.559-1.848l6.069-7.58c0.815-1.007,1.247-1.606,1.799-2.446h1.799
		c-0.12,1.415-0.144,2.159-0.144,4.054v7.868h0.911c1.008,0,1.632-0.048,2.495-0.168v1.99c-0.888-0.119-1.487-0.167-2.52-0.167
		h-0.887v2.063c0,1.151,0.048,1.703,0.191,2.591h-2.183c0.144-0.84,0.192-1.512,0.192-2.591v-2.063h-6.429
		c-1.343,0-2.063,0.023-2.854,0.096V91.125z M239.509,85.104c0-1.271,0.024-2.038,0.145-3.262c-0.504,0.72-1.104,1.511-1.799,2.398
		l-5.518,6.956h7.172V85.104z"/>
	<path d="M258.097,88.966c1.199,0.888,1.799,2.159,1.799,3.766c0,3.286-2.398,5.134-6.62,5.134c-4.39,0-6.812-1.823-6.812-5.134
		c0-1.727,0.695-3.046,2.135-3.981c0.743-0.479,1.271-0.672,2.158-0.815c-2.111-0.384-3.479-2.087-3.479-4.317
		c0-2.903,2.279-4.75,5.901-4.75c3.67,0,5.925,1.799,5.925,4.75c0,2.23-1.344,3.909-3.479,4.317
		C256.634,88.078,257.306,88.366,258.097,88.966z M248.431,92.611c0,2.279,1.75,3.622,4.725,3.622c1.68,0,3.047-0.432,3.862-1.247
		c0.6-0.552,0.911-1.391,0.911-2.375c0-2.351-1.799-3.766-4.749-3.766S248.431,90.285,248.431,92.611z M249.149,83.761
		c0,2.135,1.535,3.43,4.055,3.43c2.518,0,4.029-1.295,4.029-3.43c0-2.015-1.583-3.286-4.054-3.286
		C250.733,80.475,249.149,81.77,249.149,83.761z"/>
</g>
<g>
	<path d="M271.56,97.481c-1.511,0-1.871,0.023-2.639,0.119c0.265-1.895,0.336-2.254,0.696-3.166c0.6-1.511,1.606-2.83,3.118-4.126
		c0.84-0.719,0.888-0.743,3.67-2.638c2.375-1.607,3.166-2.663,3.166-4.126c0-1.823-1.535-2.998-3.981-2.998
		c-1.583,0-2.759,0.527-3.478,1.559c-0.456,0.647-0.672,1.224-0.84,2.423l-2.016-0.336c0.36-1.728,0.721-2.566,1.512-3.454
		c1.08-1.224,2.711-1.847,4.821-1.847c3.622,0,5.948,1.822,5.948,4.653c0,1.223-0.479,2.375-1.414,3.406
		c-0.721,0.815-1.344,1.271-4.078,3.094c-1.895,1.271-2.662,1.943-3.454,2.95c-0.743,0.983-1.079,1.632-1.368,2.783h7.652
		c1.199,0,2.016-0.048,2.927-0.168v2.015c-0.96-0.096-1.751-0.144-2.95-0.144H271.56z"/>
	<path d="M295.306,83.232c-0.313-0.768-0.48-1.103-0.84-1.511c-0.719-0.792-1.654-1.199-2.854-1.199
		c-1.87,0-3.286,1.008-4.149,2.975c-0.623,1.438-0.84,2.542-1.008,5.157c0.432-0.744,0.672-1.08,1.199-1.535
		c1.128-1.008,2.398-1.464,4.055-1.464c3.717,0,6.02,2.303,6.02,5.997c0,3.718-2.494,6.164-6.283,6.164
		c-1.703,0-3.311-0.551-4.342-1.511c-1.56-1.439-2.424-4.126-2.424-7.532c0-2.998,0.672-5.685,1.824-7.243
		c1.271-1.728,2.974-2.615,5.061-2.615c1.439,0,2.734,0.36,3.646,1.008c0.84,0.6,1.318,1.247,2.015,2.687L295.306,83.232z
		 M291.444,87.263c-1.2,0-2.471,0.527-3.311,1.367c-0.792,0.792-1.199,1.847-1.199,3.046c0,2.591,1.942,4.51,4.533,4.51
		c1.559,0,2.998-0.743,3.742-1.942c0.383-0.624,0.623-1.607,0.623-2.543C295.833,88.87,294.25,87.263,291.444,87.263z"/>
</g>
<g>
	<path d="M307.101,93.044c0.384,1.247,0.72,1.751,1.463,2.278c0.816,0.576,1.871,0.863,3.095,0.863c2.782,0,4.533-1.439,4.533-3.718
		c0-2.375-1.702-3.67-4.894-3.67c-0.671,0-1.271,0.048-1.918,0.12v-1.896c0.551,0.097,1.127,0.145,1.774,0.145
		c1.583,0,2.759-0.36,3.502-1.104c0.601-0.576,0.96-1.463,0.96-2.327c0-2.063-1.439-3.262-3.862-3.262
		c-1.463,0-2.519,0.407-3.19,1.271c-0.336,0.432-0.504,0.815-0.768,1.703l-1.99-0.433c0.407-1.223,0.695-1.774,1.295-2.398
		c1.056-1.151,2.687-1.751,4.773-1.751c3.479,0,5.686,1.823,5.686,4.701c0,1.464-0.625,2.759-1.68,3.502
		c-0.623,0.456-1.151,0.648-2.255,0.864c1.392,0.144,2.135,0.407,2.95,1.031c1.056,0.815,1.607,2.087,1.607,3.622
		c0,3.238-2.494,5.253-6.5,5.253c-2.424,0-4.223-0.672-5.373-1.967c-0.504-0.576-0.792-1.104-1.224-2.327L307.101,93.044z"/>
	<path d="M333.964,80.882c-0.432,0.336-0.839,0.864-1.774,2.303c-2.159,3.335-3.167,5.373-4.103,8.3
		c-0.623,1.991-0.887,3.214-1.271,5.997h-2.278c0.768-4.342,1.414-6.501,2.902-9.571c1.15-2.398,2.182-4.054,4.317-6.956h-7.796
		c-1.127,0-1.799,0.048-2.711,0.168v-2.039c0.936,0.12,1.584,0.168,2.734,0.168h7.196c1.415,0,1.943-0.023,2.782-0.12V80.882z"/>
</g>
<g>
	<line x1="242.36" y1="25.181" x2="242.36" y2="51.181"/>
	<g>
		
			<line fill="none" stroke="#000000" stroke-width="0.75" stroke-miterlimit="10" x1="242.36" y1="25.181" x2="242.36" y2="48.502"/>
		<g>
			<circle cx="242.36" cy="48.36" r="2.82"/>
		</g>
	</g>
</g>
<g>
	<path d="M178.387,125.054c0-1.151-0.048-1.991-0.144-2.95c0.791,0.096,1.511,0.12,2.807,0.12h14.344
		c1.271,0,1.967-0.024,2.854-0.12c-0.097,0.888-0.144,1.703-0.144,2.95v14.608c0,1.751,0.047,2.639,0.144,3.286h-1.679v-1.464
		h-16.647v1.464h-1.679c0.096-0.647,0.144-1.512,0.144-3.286V125.054z M179.922,140.117h16.647v-16.526h-16.647V140.117z
		 M184.023,127.141c-1.031,0-1.606,0.024-2.255,0.12v-1.535c0.672,0.12,1.199,0.144,2.255,0.144h8.468
		c1.079,0,1.727-0.048,2.351-0.144v1.535c-0.672-0.096-1.247-0.12-2.327-0.12h-3.693v3.718h2.95c1.079,0,1.56-0.023,2.159-0.12
		v1.512c-0.6-0.096-1.152-0.12-2.159-0.12h-2.95v4.39h4.029c0.983,0,1.68-0.048,2.352-0.144v1.583
		c-0.696-0.096-1.416-0.145-2.352-0.145h-9.139c-0.983,0-1.655,0.049-2.375,0.145v-1.583c0.672,0.096,1.367,0.144,2.375,0.144h3.622
		v-4.39h-2.567c-1.007,0-1.582,0.024-2.182,0.12v-1.512c0.6,0.097,1.079,0.12,2.182,0.12h2.567v-3.718H184.023z M191.724,132.562
		c0.983,0.983,1.367,1.512,2.254,2.854l-1.127,0.72c-0.84-1.463-1.223-1.991-2.135-2.975L191.724,132.562z"/>
	<path d="M213.885,128.892c0.144,1.487,0.216,2.039,0.552,3.382l5.469-0.071c1.392,0,1.943-0.048,2.543-0.168v1.655
		c-0.888-0.072-0.888-0.072-2.519-0.072l-5.109,0.048c0.647,2.015,1.655,3.766,3.046,5.253c0.936,1.008,2.111,1.823,2.615,1.823
		c0.551,0,0.911-1.056,1.127-3.454c0.6,0.504,0.815,0.624,1.439,0.911c-0.527,3.19-1.151,4.271-2.423,4.271
		c-1.319,0-3.263-1.464-4.821-3.646c-1.176-1.631-1.943-3.166-2.566-5.133l-7.053,0.096v6.381c2.52-0.552,4.559-1.128,7.172-2.016
		l0.049,1.487c-3.694,1.224-5.732,1.775-9.811,2.614c-0.576,0.12-1.056,0.24-1.319,0.336l-0.408-1.727
		c0.624-0.024,1.464-0.145,2.759-0.384v-15.352c0-1.176-0.023-1.799-0.096-2.711c0.768,0.097,1.511,0.12,2.807,0.12h10.674
		c1.055,0,1.751-0.023,2.494-0.12c-0.072,0.479-0.072,0.84-0.072,1.919v2.854c0,0.888,0.024,1.344,0.072,1.775
		c-0.719-0.048-1.415-0.072-2.375-0.072H213.885z M206.185,127.549h12.737v-3.646h-12.737V127.549z M206.185,128.892v3.479
		l6.693-0.072c-0.24-1.151-0.385-2.015-0.553-3.406H206.185z"/>
	<path d="M227.915,123.279c0-0.888-0.049-1.487-0.168-2.136h1.847c-0.12,0.648-0.168,1.151-0.168,2.111v3.981h0.312
		c0.888,0,1.271-0.023,1.728-0.119v1.583c-0.575-0.072-0.911-0.097-1.703-0.097h-0.336v11.706c0,0.983,0.048,1.703,0.168,2.591
		h-1.847c0.119-0.744,0.168-1.535,0.168-2.615v-11.682h-0.624c-0.864,0-1.343,0.024-1.991,0.097v-1.583
		c0.552,0.096,1.008,0.119,1.991,0.119h0.624V123.279z M236.334,132.657c0.936,0,1.464-0.023,2.015-0.096
		c-0.048,0.456-0.048,0.72-0.072,1.344c0,1.535-0.239,4.197-0.479,5.757c-0.36,2.278-0.721,2.614-2.855,2.614
		c-0.312,0-0.768-0.024-1.15-0.048c-0.049-0.647-0.097-0.912-0.313-1.512c0.695,0.145,1.248,0.217,1.799,0.217
		c0.6,0,0.84-0.168,0.96-0.624c0.312-1.224,0.552-3.574,0.6-6.333h-2.11c-0.457,3.862-1.464,6.309-3.599,8.684
		c-0.432-0.647-0.575-0.815-1.031-1.247c1.895-1.775,2.806-3.838,3.262-7.437h-1.127c-0.647,0-0.96,0.024-1.415,0.097v-1.535
		c0.383,0.096,0.743,0.119,1.486,0.119h1.176c0.023-0.527,0.048-0.911,0.048-1.319c0-0.503-0.024-0.791-0.071-1.15h1.582
		c-0.071,0.432-0.119,0.935-0.144,1.559c-0.024,0.336-0.024,0.456-0.048,0.911H236.334z M243.554,123.423
		c0.792,0,1.344-0.024,1.896-0.096c-0.072,0.552-0.072,0.552-0.097,1.007c-0.168,1.896-0.407,3.334-0.695,4.006
		c-0.191,0.432-0.552,0.768-1.031,0.936c-0.288,0.096-0.768,0.145-1.535,0.145c-0.672,0-1.487-0.049-2.398-0.12
		c-0.049-0.576-0.12-0.936-0.313-1.512c0.888,0.192,1.943,0.288,2.927,0.288c0.647,0,0.911-0.168,1.079-0.647
		c0.192-0.576,0.313-1.367,0.408-2.687h-5.277c-1.008,2.519-2.662,4.029-5.828,5.396c-0.264-0.527-0.528-0.887-0.936-1.295
		c2.83-0.959,4.365-2.159,5.253-4.102h-2.423c-1.08,0-1.727,0.023-2.326,0.12v-1.56c0.623,0.096,1.318,0.12,2.398,0.12h2.807
		c0.191-0.792,0.264-1.392,0.264-1.967c0-0.168,0-0.24-0.024-0.408l1.751,0.096c-0.096,0.313-0.168,0.601-0.287,1.271
		c-0.072,0.36-0.121,0.576-0.217,1.008H243.554z M244.753,132.657c0.888,0,1.392-0.023,1.991-0.096
		c-0.024,0.432-0.048,0.912-0.071,1.439c-0.192,4.006-0.48,6.332-0.936,7.315c-0.313,0.696-0.96,0.96-2.352,0.96
		c-0.84,0-1.055,0-1.607-0.072c-0.047-0.671-0.096-0.888-0.311-1.511c0.911,0.168,1.486,0.24,2.158,0.24
		c0.623,0,0.84-0.12,0.959-0.528c0.36-1.224,0.576-3.382,0.648-6.429h-2.591c-0.336,2.471-0.743,4.006-1.511,5.638
		c-0.576,1.223-1.08,1.919-2.088,3.021c-0.312-0.479-0.6-0.791-1.055-1.151c1.799-1.583,2.83-3.886,3.286-7.508h-0.647
		c-0.695,0-1.008,0.024-1.463,0.097v-1.535c0.407,0.096,0.768,0.119,1.535,0.119h0.695c0.048-0.719,0.072-1.055,0.072-1.486
		c0-0.384-0.024-0.648-0.049-1.008h1.56c-0.072,0.407-0.097,0.624-0.168,1.942c-0.024,0.217-0.024,0.313-0.048,0.552H244.753z"/>
	<path d="M261.038,121.288c1.127,1.727,2.183,2.854,4.029,4.294c2.088,1.654,4.391,2.974,6.621,3.838
		c-0.48,0.575-0.72,0.983-0.936,1.535c-2.398-1.128-4.726-2.591-6.668-4.174c-1.607-1.319-2.711-2.519-3.838-4.103
		c-1.176,1.632-2.088,2.615-3.599,3.935c-2.11,1.822-4.077,3.118-6.477,4.222c-0.239-0.504-0.624-1.008-1.007-1.367
		c2.471-1.08,4.365-2.255,6.355-3.91c1.656-1.392,2.759-2.614,3.814-4.27H261.038z M252.931,134.673
		c-1.176,0-2.016,0.048-2.734,0.144v-1.727c0.743,0.096,1.535,0.144,2.734,0.144h14.775c1.224,0,1.991-0.048,2.734-0.144v1.727
		c-0.743-0.096-1.559-0.144-2.734-0.144h-8.611c-1.318,2.878-1.775,3.766-2.998,5.66c3.311-0.216,5.805-0.455,9.355-0.887
		c-1.439-1.56-1.871-1.991-2.927-2.975l1.247-0.768c2.398,2.255,4.006,4.029,5.805,6.332l-1.319,0.983
		c-0.936-1.318-1.247-1.727-1.751-2.351c-4.27,0.576-7.892,0.96-11.633,1.248c-2.975,0.239-3.455,0.287-4.055,0.432l-0.287-1.823
		c0.407,0.048,0.863,0.072,1.223,0.072c0.384,0,0.384,0,2.543-0.145c1.344-2.135,2.111-3.574,3.046-5.78H252.931z M254.466,128.7
		c0.479,0.071,1.008,0.096,1.895,0.096h7.748c0.936,0,1.487-0.024,2.015-0.096v1.606c-0.503-0.071-1.128-0.096-2.015-0.096h-7.771
		c-0.72,0-1.392,0.024-1.871,0.096V128.7z"/>
</g>
<g>
	<path d="M336.152,123.23c0.743,0.072,1.175,0.097,2.159,0.097c2.158,0,5.612-0.145,7.315-0.336
		c0.528-0.048,1.007-0.145,1.343-0.288l1.008,1.271c-0.384,0.264-0.552,0.407-1.176,1.007c-2.35,2.279-5.469,4.702-7.867,6.117
		c1.176-0.216,2.111-0.336,5.757-0.647c0.983-0.072,2.446-0.216,4.27-0.384c0.983-0.072,1.703-0.145,2.183-0.192
		c0.313-0.023,0.408-0.023,0.695-0.096l0.168,1.679c-0.239,0-0.432,0-0.527,0c-2.446,0-4.821,0.456-6.596,1.296
		c-1.224,0.575-2.327,1.415-2.999,2.278c-0.552,0.72-0.768,1.271-0.768,1.991c0,1.967,2.063,3.094,5.709,3.094
		c0.624,0,1.104-0.048,1.632-0.144l0.071,1.847c-0.407-0.023-0.407-0.023-1.631-0.048c-2.807-0.048-4.894-0.575-6.045-1.559
		c-0.911-0.768-1.415-1.848-1.415-3.022c0-2.135,1.775-4.03,5.229-5.541c-0.336,0.048-0.336,0.048-1.318,0.216
		c-0.408,0.048-2.543,0.336-3.91,0.504c-3.814,0.455-6.189,0.815-7.076,1.079l-0.191-1.823c0.071,0,0.119,0,0.168,0
		c0.743,0,2.542-0.191,4.197-0.479c2.375-1.415,5.564-3.91,7.963-6.188c0.385-0.36,0.48-0.432,0.792-0.672
		c-1.343,0.264-3.981,0.456-7.508,0.576c-0.911,0.048-1.007,0.048-1.487,0.096L336.152,123.23z"/>
	<path d="M365.222,134.744c-1.391,3.167-2.807,4.605-4.533,4.605c-2.279,0-3.982-2.494-3.982-5.853c0-2.446,0.912-4.821,2.52-6.62
		c1.918-2.111,4.533-3.19,7.747-3.19c2.687,0,5.037,0.84,6.597,2.375c1.511,1.463,2.326,3.55,2.326,5.853
		c0,3.718-2.015,6.788-5.492,8.275c-1.08,0.456-1.991,0.744-3.646,1.104c-0.24-0.792-0.384-1.031-0.84-1.607
		c1.752-0.287,2.879-0.6,4.006-1.127c2.639-1.199,4.246-3.766,4.246-6.717c0-2.734-1.392-4.941-3.814-6.021
		c-0.887-0.384-1.583-0.552-2.782-0.6C367.212,128.556,366.302,132.226,365.222,134.744z M362.271,126.373
		c-2.423,1.463-3.91,4.174-3.91,7.148c0,2.303,1.008,4.077,2.303,4.077c1.008,0,1.967-1.127,2.999-3.478
		c0.982-2.255,1.871-5.805,2.182-8.875C364.406,125.365,363.374,125.701,362.271,126.373z"/>
	<path d="M382.178,132.154c0-0.864,0.024-1.655,0.097-2.879c-1.032,1.751-1.344,2.207-2.52,3.598
		c-0.504-0.743-0.575-0.839-1.007-1.295c2.11-2.23,3.55-4.438,4.63-7.148c0.503-1.223,0.887-2.519,1.007-3.405l1.679,0.527
		c-0.144,0.336-0.216,0.552-0.504,1.367c-0.527,1.583-1.031,2.734-1.847,4.27v12.905c0,1.127,0.048,2.039,0.12,2.854h-1.799
		c0.096-0.864,0.144-1.632,0.144-2.902V132.154z M389.11,130.499v8.899c0,0.6,0.168,0.791,0.887,0.935
		c0.648,0.145,1.632,0.192,3.526,0.192c2.999,0,4.222-0.12,4.773-0.432c0.552-0.313,0.864-1.319,1.032-3.431
		c0.646,0.36,0.887,0.433,1.559,0.6c-0.384,2.423-0.768,3.503-1.415,3.958c-0.768,0.528-2.351,0.72-6.045,0.72
		c-1.415,0-2.614-0.048-3.478-0.144c-0.936-0.096-1.607-0.336-1.967-0.72c-0.265-0.264-0.385-0.672-0.385-1.319v-8.731l-0.432,0.145
		c-1.295,0.455-1.583,0.575-1.99,0.791l-0.336-1.655c0.647-0.096,1.391-0.264,2.086-0.504l0.672-0.239v-3.311
		c0-1.007-0.048-1.751-0.144-2.446h1.799c-0.096,0.672-0.144,1.367-0.144,2.375v2.878l3.502-1.224v-4.317
		c0-0.863-0.048-1.535-0.145-2.23h1.752c-0.096,0.695-0.145,1.319-0.145,2.23v3.814l3.766-1.296c0.96-0.336,1.439-0.527,1.896-0.768
		c-0.024,0.36-0.048,0.744-0.048,1.056c-0.049,2.087-0.264,5.853-0.432,7.268c-0.24,2.016-0.648,2.471-2.184,2.471
		c-0.551,0-1.055-0.023-1.727-0.096c-0.096-0.575-0.168-0.936-0.408-1.535c0.744,0.168,1.439,0.264,1.92,0.264
		c0.791,0,0.863-0.168,1.055-2.063c0.145-1.344,0.24-3.238,0.288-5.35l-4.126,1.464v6.764c0,0.936,0.049,1.632,0.145,2.303h-1.752
		c0.097-0.671,0.145-1.343,0.145-2.326v-6.236L389.11,130.499z"/>
</g>
<g>
	<g>
		<polyline fill="none" stroke="#000000" stroke-width="0.75" stroke-miterlimit="10" points="284.417,104.859 284.417,133.015 
			275.352,133.015 		"/>
		<g>
			<circle cx="284.417" cy="105.001" r="2.82"/>
		</g>
	</g>
</g>
<g>
	<g>
		<polyline fill="none" stroke="#000000" stroke-width="0.75" stroke-miterlimit="10" points="319.807,104.859 319.807,133.015 
			328.872,133.015 		"/>
		<g>
			<circle cx="319.807" cy="105.001" r="2.82"/>
		</g>
	</g>
</g>
</svg>
