<?xml version="1.0" encoding="utf-8"?>
<!-- Generator: Adobe Illustrator 16.0.3, SVG Export Plug-In . SVG Version: 6.00 Build 0)  -->
<!DOCTYPE svg PUBLIC "-//W3C//DTD SVG 1.1//EN" "http://www.w3.org/Graphics/SVG/1.1/DTD/svg11.dtd">
<svg version="1.1" id="レイヤー_1" xmlns="http://www.w3.org/2000/svg" xmlns:xlink="http://www.w3.org/1999/xlink" x="0px"
	 y="0px" width="102.226px" height="146.585px" viewBox="0 0 102.226 146.585" enable-background="new 0 0 102.226 146.585"
	 xml:space="preserve">
<g>
	<path d="M26.143,146.087c-0.189-0.188-0.336-0.406-0.42-0.644c-0.176-0.49-0.267-1.044-0.267-1.618
		c0-0.742,0.161-1.499,0.406-1.905c0.336-0.567,0.876-0.861,1.569-0.861c0.518,0,0.966,0.168,1.281,0.497
		c0.196,0.196,0.336,0.413,0.42,0.645c0.176,0.483,0.267,1.044,0.267,1.625c0,0.848-0.183,1.597-0.49,2.024
		c-0.351,0.49-0.841,0.735-1.485,0.735C26.907,146.585,26.472,146.416,26.143,146.087z M26.549,141.899
		c-0.147,0.161-0.259,0.336-0.315,0.511c-0.146,0.428-0.217,0.903-0.217,1.415c0,0.651,0.14,1.338,0.329,1.667
		c0.245,0.406,0.609,0.609,1.086,0.609c0.35,0,0.651-0.112,0.861-0.329c0.153-0.161,0.266-0.344,0.329-0.547
		c0.146-0.434,0.217-0.896,0.217-1.415c0-0.608-0.133-1.302-0.315-1.632c-0.23-0.42-0.609-0.637-1.1-0.637
		C27.06,141.542,26.773,141.661,26.549,141.899z"/>
</g>
<g>
	<path d="M47.811,141.121c0.182,0.028,0.314,0.035,0.581,0.035h0.441c0.238,0,0.35-0.007,0.581-0.035
		c-0.042,0.428-0.063,0.785-0.063,1.163v3.404c0,0.329,0.015,0.532,0.057,0.791h-0.665c0.042-0.245,0.056-0.47,0.056-0.791v-4.056
		H48.42c-0.225,0-0.406,0.014-0.609,0.042V141.121z"/>
	<path d="M52.297,146.087c-0.189-0.188-0.336-0.406-0.42-0.644c-0.176-0.49-0.267-1.044-0.267-1.618
		c0-0.742,0.161-1.499,0.406-1.905c0.336-0.567,0.876-0.861,1.569-0.861c0.518,0,0.966,0.168,1.281,0.497
		c0.196,0.196,0.336,0.413,0.42,0.645c0.176,0.483,0.267,1.044,0.267,1.625c0,0.848-0.183,1.597-0.49,2.024
		c-0.351,0.49-0.841,0.735-1.485,0.735C53.061,146.585,52.626,146.416,52.297,146.087z M52.704,141.899
		c-0.147,0.161-0.259,0.336-0.315,0.511c-0.146,0.428-0.217,0.903-0.217,1.415c0,0.651,0.14,1.338,0.329,1.667
		c0.245,0.406,0.609,0.609,1.086,0.609c0.35,0,0.651-0.112,0.861-0.329c0.153-0.161,0.266-0.344,0.329-0.547
		c0.146-0.434,0.217-0.896,0.217-1.415c0-0.608-0.133-1.302-0.315-1.632c-0.23-0.42-0.609-0.637-1.1-0.637
		C53.214,141.542,52.927,141.661,52.704,141.899z"/>
</g>
<g>
	<path d="M32.5,18.646c0.182,0.028,0.314,0.035,0.581,0.035h0.441c0.238,0,0.35-0.007,0.581-0.035
		c-0.042,0.428-0.063,0.785-0.063,1.163v3.404c0,0.329,0.015,0.532,0.057,0.791h-0.665c0.042-0.245,0.056-0.47,0.056-0.791v-4.056
		h-0.378c-0.225,0-0.406,0.014-0.609,0.042V18.646z"/>
	<path d="M37.154,23.312v0.693H36.46v-0.693H37.154z"/>
	<path d="M38.778,18.646c0.182,0.028,0.314,0.035,0.581,0.035H39.8c0.238,0,0.35-0.007,0.581-0.035
		c-0.042,0.428-0.063,0.785-0.063,1.163v3.404c0,0.329,0.015,0.532,0.057,0.791h-0.665c0.042-0.245,0.056-0.47,0.056-0.791v-4.056
		h-0.378c-0.225,0-0.406,0.014-0.609,0.042V18.646z"/>
	<path d="M42.928,21.252c-0.253-0.245-0.386-0.658-0.386-1.176c0-0.938,0.448-1.492,1.219-1.492c0.764,0,1.212,0.546,1.212,1.492
		c0,0.518-0.133,0.931-0.386,1.176c-0.21,0.203-0.497,0.315-0.826,0.315C43.425,21.567,43.138,21.455,42.928,21.252z M43.012,20.076
		c0,0.686,0.272,1.078,0.749,1.078c0.47,0,0.742-0.393,0.742-1.078c0-0.693-0.266-1.079-0.742-1.079
		C43.278,18.997,43.012,19.39,43.012,20.076z M47.298,18.542l0.294,0.224l-4.244,5.372l-0.294-0.238L47.298,18.542z M46.058,23.78
		c-0.252-0.245-0.385-0.658-0.385-1.169c0-0.945,0.448-1.492,1.219-1.492s1.212,0.547,1.212,1.492c0,0.518-0.134,0.924-0.386,1.169
		c-0.21,0.203-0.497,0.315-0.826,0.315C46.556,24.096,46.269,23.991,46.058,23.78z M46.143,22.611c0,0.679,0.272,1.071,0.749,1.071
		c0.469,0,0.742-0.393,0.742-1.071c0-0.693-0.266-1.079-0.742-1.079C46.409,21.532,46.143,21.918,46.143,22.611z"/>
</g>
<g>
	<path d="M0,18.646c0.182,0.028,0.314,0.035,0.581,0.035h0.441c0.238,0,0.35-0.007,0.581-0.035C1.562,19.074,1.54,19.432,1.54,19.81
		v3.404c0,0.329,0.015,0.532,0.057,0.791H0.932c0.042-0.245,0.056-0.47,0.056-0.791v-4.056H0.609c-0.225,0-0.406,0.014-0.609,0.042
		V18.646z"/>
	<path d="M7.204,21.519c0.35,0.259,0.524,0.63,0.524,1.1c0,0.959-0.7,1.499-1.933,1.499c-1.281,0-1.989-0.532-1.989-1.499
		c0-0.504,0.203-0.89,0.624-1.163c0.217-0.14,0.371-0.195,0.63-0.237c-0.616-0.112-1.016-0.609-1.016-1.261
		c0-0.848,0.665-1.387,1.723-1.387c1.072,0,1.73,0.524,1.73,1.387c0,0.651-0.393,1.142-1.016,1.261
		C6.776,21.26,6.973,21.344,7.204,21.519z M4.381,22.583c0,0.665,0.512,1.058,1.38,1.058c0.49,0,0.89-0.126,1.128-0.364
		c0.175-0.161,0.266-0.406,0.266-0.693c0-0.687-0.524-1.1-1.387-1.1C4.906,21.483,4.381,21.903,4.381,22.583z M4.592,19.999
		C4.592,20.622,5.039,21,5.775,21c0.735,0,1.176-0.378,1.176-1.001c0-0.589-0.462-0.96-1.184-0.96
		C5.054,19.039,4.592,19.417,4.592,19.999z"/>
	<path d="M11.803,21.519c0.35,0.259,0.525,0.63,0.525,1.1c0,0.959-0.701,1.499-1.934,1.499c-1.281,0-1.989-0.532-1.989-1.499
		c0-0.504,0.203-0.89,0.624-1.163c0.217-0.14,0.371-0.195,0.63-0.237c-0.616-0.112-1.016-0.609-1.016-1.261
		c0-0.848,0.665-1.387,1.723-1.387c1.072,0,1.73,0.524,1.73,1.387c0,0.651-0.393,1.142-1.016,1.261
		C11.375,21.26,11.571,21.344,11.803,21.519z M8.979,22.583c0,0.665,0.512,1.058,1.38,1.058c0.49,0,0.89-0.126,1.128-0.364
		c0.175-0.161,0.266-0.406,0.266-0.693c0-0.687-0.524-1.1-1.387-1.1C9.505,21.483,8.979,21.903,8.979,22.583z M9.189,19.999
		c0,0.623,0.449,1.001,1.185,1.001s1.176-0.378,1.176-1.001c0-0.589-0.462-0.96-1.184-0.96C9.652,19.039,9.189,19.417,9.189,19.999z
		"/>
	<path d="M13.697,22.842c0.084,0.231,0.141,0.33,0.252,0.448c0.196,0.218,0.498,0.33,0.883,0.33c0.504,0,0.868-0.203,1.128-0.645
		c0.133-0.225,0.245-0.567,0.301-0.896c0.028-0.176,0.049-0.463,0.063-0.819c-0.099,0.188-0.154,0.259-0.28,0.392
		c-0.357,0.336-0.75,0.49-1.274,0.49c-0.519,0-0.96-0.161-1.261-0.462c-0.302-0.301-0.477-0.764-0.477-1.261
		c0-1.113,0.749-1.842,1.898-1.842c0.784,0,1.429,0.448,1.694,1.177c0.141,0.378,0.203,0.854,0.203,1.456
		c0,0.974-0.203,1.766-0.581,2.234c-0.351,0.441-0.813,0.651-1.457,0.651c-0.483,0-0.875-0.126-1.177-0.378
		c-0.196-0.161-0.308-0.322-0.49-0.693L13.697,22.842z M16.19,20.377c0-0.757-0.56-1.324-1.31-1.324
		c-0.462,0-0.882,0.225-1.113,0.596c-0.112,0.183-0.182,0.462-0.182,0.735c0,0.792,0.482,1.289,1.246,1.289
		C15.609,21.673,16.19,21.119,16.19,20.377z"/>
	<path d="M20.642,20.979c0-0.154-0.007-0.273-0.021-0.413c0.147,0.014,0.302,0.021,0.498,0.021h1.52v-1.142h-1.646
		c-0.356,0.596-0.693,1.009-1.162,1.429c-0.112-0.161-0.183-0.231-0.336-0.336c0.693-0.589,1.071-1.1,1.4-1.884
		c0.091-0.203,0.14-0.364,0.175-0.512l0.498,0.141c-0.028,0.056-0.05,0.104-0.092,0.188l-0.266,0.567h3.474
		c0.309,0,0.455-0.007,0.631-0.035v0.477c-0.176-0.028-0.344-0.035-0.631-0.035H23.1v1.142h1.268c0.287,0,0.441-0.007,0.624-0.035
		v0.463c-0.183-0.021-0.351-0.028-0.617-0.028H23.1v1.373h1.766c0.314,0,0.511-0.015,0.707-0.042v0.504
		c-0.203-0.028-0.42-0.042-0.707-0.042H23.1v1.155c0,0.302,0.015,0.47,0.049,0.651h-0.553c0.035-0.175,0.042-0.329,0.042-0.651
		v-1.155h-2.528c-0.287,0-0.505,0.014-0.708,0.042v-0.504c0.203,0.027,0.399,0.042,0.708,0.042h0.532V20.979z M22.638,22.359v-1.373
		h-1.541v1.373H22.638z"/>
</g>
<g>
	<path d="M0,54.087c0.182,0.028,0.314,0.035,0.581,0.035h0.441c0.238,0,0.35-0.007,0.581-0.035C1.562,54.515,1.54,54.872,1.54,55.25
		v3.404c0,0.329,0.015,0.532,0.057,0.791H0.932c0.042-0.245,0.056-0.47,0.056-0.791v-4.056H0.609c-0.225,0-0.406,0.014-0.609,0.042
		V54.087z"/>
	<path d="M4.5,58.282c0.084,0.231,0.141,0.33,0.252,0.448c0.196,0.218,0.498,0.33,0.883,0.33c0.504,0,0.868-0.203,1.128-0.645
		c0.133-0.225,0.245-0.567,0.301-0.896c0.028-0.176,0.049-0.463,0.063-0.819c-0.099,0.188-0.154,0.259-0.28,0.392
		c-0.357,0.336-0.75,0.49-1.274,0.49c-0.519,0-0.96-0.161-1.261-0.462c-0.302-0.301-0.477-0.764-0.477-1.261
		c0-1.113,0.749-1.842,1.898-1.842c0.784,0,1.429,0.448,1.694,1.177c0.141,0.378,0.203,0.854,0.203,1.456
		c0,0.974-0.203,1.766-0.581,2.234c-0.351,0.441-0.813,0.651-1.457,0.651c-0.483,0-0.875-0.126-1.177-0.378
		c-0.196-0.161-0.308-0.322-0.49-0.693L4.5,58.282z M6.993,55.817c0-0.757-0.56-1.324-1.31-1.324c-0.462,0-0.882,0.225-1.113,0.596
		c-0.112,0.183-0.182,0.462-0.182,0.735c0,0.792,0.482,1.289,1.246,1.289C6.412,57.113,6.993,56.56,6.993,55.817z"/>
	<path d="M9.085,59.053c-0.189-0.188-0.336-0.406-0.42-0.644c-0.176-0.49-0.267-1.044-0.267-1.618c0-0.742,0.161-1.499,0.406-1.905
		c0.336-0.567,0.876-0.861,1.569-0.861c0.518,0,0.966,0.168,1.281,0.497c0.196,0.196,0.336,0.413,0.42,0.645
		c0.176,0.483,0.267,1.044,0.267,1.625c0,0.848-0.183,1.597-0.49,2.024c-0.351,0.49-0.841,0.735-1.485,0.735
		C9.849,59.551,9.414,59.382,9.085,59.053z M9.491,54.865c-0.147,0.161-0.259,0.336-0.315,0.511
		c-0.146,0.428-0.217,0.903-0.217,1.415c0,0.651,0.14,1.338,0.329,1.667c0.245,0.406,0.609,0.609,1.086,0.609
		c0.35,0,0.651-0.112,0.861-0.329c0.153-0.161,0.266-0.344,0.329-0.547c0.146-0.434,0.217-0.896,0.217-1.415
		c0-0.608-0.133-1.302-0.315-1.632c-0.23-0.42-0.609-0.637-1.1-0.637C10.002,54.508,9.715,54.627,9.491,54.865z"/>
	<path d="M13.852,59.445c-0.441,0-0.546,0.007-0.771,0.035c0.077-0.554,0.099-0.658,0.203-0.925c0.175-0.441,0.47-0.826,0.91-1.204
		c0.245-0.211,0.26-0.218,1.072-0.771c0.693-0.47,0.924-0.777,0.924-1.205c0-0.532-0.448-0.875-1.162-0.875
		c-0.462,0-0.806,0.153-1.016,0.455c-0.133,0.188-0.196,0.357-0.245,0.707l-0.588-0.098c0.104-0.505,0.21-0.75,0.44-1.009
		c0.315-0.357,0.792-0.539,1.408-0.539c1.058,0,1.737,0.532,1.737,1.358c0,0.357-0.141,0.693-0.414,0.995
		c-0.21,0.237-0.392,0.371-1.19,0.903c-0.553,0.371-0.777,0.567-1.009,0.861c-0.217,0.287-0.314,0.477-0.398,0.813h2.233
		c0.351,0,0.589-0.015,0.854-0.049v0.588c-0.279-0.028-0.511-0.042-0.861-0.042H13.852z"/>
	<path d="M20.642,56.42c0-0.154-0.007-0.273-0.021-0.413c0.147,0.014,0.302,0.021,0.498,0.021h1.52v-1.142h-1.646
		c-0.356,0.596-0.693,1.009-1.162,1.429c-0.112-0.161-0.183-0.231-0.336-0.336c0.693-0.589,1.071-1.1,1.4-1.884
		c0.091-0.203,0.14-0.364,0.175-0.512l0.498,0.141c-0.028,0.056-0.05,0.104-0.092,0.188l-0.266,0.567h3.474
		c0.309,0,0.455-0.007,0.631-0.035v0.477c-0.176-0.028-0.344-0.035-0.631-0.035H23.1v1.142h1.268c0.287,0,0.441-0.007,0.624-0.035
		v0.463c-0.183-0.021-0.351-0.028-0.617-0.028H23.1V57.8h1.766c0.314,0,0.511-0.015,0.707-0.042v0.504
		c-0.203-0.028-0.42-0.042-0.707-0.042H23.1v1.155c0,0.302,0.015,0.47,0.049,0.651h-0.553c0.035-0.175,0.042-0.329,0.042-0.651
		V58.22h-2.528c-0.287,0-0.505,0.014-0.708,0.042v-0.504c0.203,0.027,0.399,0.042,0.708,0.042h0.532V56.42z M22.638,57.8v-1.373
		h-1.541V57.8H22.638z"/>
</g>
<g>
	<path d="M0,87.944c0.182,0.028,0.314,0.035,0.581,0.035h0.441c0.238,0,0.35-0.007,0.581-0.035
		c-0.042,0.428-0.063,0.785-0.063,1.163v3.404c0,0.329,0.015,0.532,0.057,0.791H0.932c0.042-0.245,0.056-0.47,0.056-0.791v-4.056
		H0.609c-0.225,0-0.406,0.014-0.609,0.042V87.944z"/>
	<path d="M4.5,92.14c0.084,0.231,0.141,0.33,0.252,0.448c0.196,0.218,0.498,0.33,0.883,0.33c0.504,0,0.868-0.203,1.128-0.645
		c0.133-0.225,0.245-0.567,0.301-0.896c0.028-0.176,0.049-0.463,0.063-0.819c-0.099,0.188-0.154,0.259-0.28,0.392
		c-0.357,0.336-0.75,0.49-1.274,0.49c-0.519,0-0.96-0.161-1.261-0.462c-0.302-0.301-0.477-0.764-0.477-1.261
		c0-1.113,0.749-1.842,1.898-1.842c0.784,0,1.429,0.448,1.694,1.177c0.141,0.378,0.203,0.854,0.203,1.456
		c0,0.974-0.203,1.766-0.581,2.234c-0.351,0.441-0.813,0.651-1.457,0.651c-0.483,0-0.875-0.126-1.177-0.378
		c-0.196-0.161-0.308-0.322-0.49-0.693L4.5,92.14z M6.993,89.675c0-0.757-0.56-1.324-1.31-1.324c-0.462,0-0.882,0.225-1.113,0.596
		c-0.112,0.183-0.182,0.462-0.182,0.735c0,0.792,0.482,1.289,1.246,1.289C6.412,90.971,6.993,90.417,6.993,89.675z"/>
	<path d="M9.253,93.303c-0.441,0-0.546,0.007-0.771,0.035c0.077-0.554,0.099-0.658,0.203-0.925c0.175-0.441,0.47-0.826,0.91-1.204
		c0.245-0.211,0.26-0.218,1.072-0.771c0.693-0.47,0.924-0.777,0.924-1.205c0-0.532-0.448-0.875-1.162-0.875
		c-0.462,0-0.806,0.153-1.016,0.455c-0.133,0.188-0.196,0.357-0.245,0.707l-0.588-0.098c0.104-0.505,0.21-0.75,0.44-1.009
		c0.315-0.357,0.792-0.539,1.408-0.539c1.058,0,1.737,0.532,1.737,1.358c0,0.357-0.141,0.693-0.414,0.995
		c-0.21,0.237-0.392,0.371-1.19,0.903c-0.553,0.371-0.777,0.567-1.009,0.861c-0.217,0.287-0.314,0.477-0.398,0.813h2.233
		c0.351,0,0.589-0.015,0.854-0.049v0.588c-0.279-0.028-0.511-0.042-0.861-0.042H9.253z"/>
	<path d="M13.684,92.91c-0.189-0.188-0.336-0.406-0.42-0.644c-0.176-0.49-0.267-1.044-0.267-1.618c0-0.742,0.161-1.499,0.406-1.905
		c0.336-0.567,0.876-0.861,1.569-0.861c0.518,0,0.966,0.168,1.281,0.497c0.196,0.196,0.336,0.413,0.42,0.645
		c0.176,0.483,0.267,1.044,0.267,1.625c0,0.848-0.183,1.597-0.49,2.024c-0.351,0.49-0.841,0.735-1.485,0.735
		C14.447,93.408,14.013,93.239,13.684,92.91z M14.09,88.723c-0.147,0.161-0.259,0.336-0.315,0.511
		c-0.146,0.428-0.217,0.903-0.217,1.415c0,0.651,0.14,1.338,0.329,1.667c0.245,0.406,0.609,0.609,1.086,0.609
		c0.35,0,0.651-0.112,0.861-0.329c0.153-0.161,0.266-0.344,0.329-0.547c0.146-0.434,0.217-0.896,0.217-1.415
		c0-0.608-0.133-1.302-0.315-1.632c-0.23-0.42-0.609-0.637-1.1-0.637C14.601,88.365,14.313,88.484,14.09,88.723z"/>
	<path d="M20.642,90.277c0-0.154-0.007-0.273-0.021-0.413c0.147,0.014,0.302,0.021,0.498,0.021h1.52v-1.142h-1.646
		c-0.356,0.596-0.693,1.009-1.162,1.429c-0.112-0.161-0.183-0.231-0.336-0.336c0.693-0.589,1.071-1.1,1.4-1.884
		c0.091-0.203,0.14-0.364,0.175-0.512l0.498,0.141c-0.028,0.056-0.05,0.104-0.092,0.188l-0.266,0.567h3.474
		c0.309,0,0.455-0.007,0.631-0.035v0.477c-0.176-0.028-0.344-0.035-0.631-0.035H23.1v1.142h1.268c0.287,0,0.441-0.007,0.624-0.035
		v0.463c-0.183-0.021-0.351-0.028-0.617-0.028H23.1v1.373h1.766c0.314,0,0.511-0.015,0.707-0.042v0.504
		c-0.203-0.028-0.42-0.042-0.707-0.042H23.1v1.155c0,0.302,0.015,0.47,0.049,0.651h-0.553c0.035-0.175,0.042-0.329,0.042-0.651
		v-1.155h-2.528c-0.287,0-0.505,0.014-0.708,0.042v-0.504c0.203,0.027,0.399,0.042,0.708,0.042h0.532V90.277z M22.638,91.657v-1.373
		h-1.541v1.373H22.638z"/>
</g>
<g>
	<path d="M0,117.899c0.182,0.028,0.314,0.035,0.581,0.035h0.441c0.238,0,0.35-0.007,0.581-0.035
		c-0.042,0.428-0.063,0.785-0.063,1.163v3.404c0,0.329,0.015,0.532,0.057,0.791H0.932c0.042-0.245,0.056-0.47,0.056-0.791v-4.056
		H0.609c-0.225,0-0.406,0.014-0.609,0.042V117.899z"/>
	<path d="M4.5,122.095c0.084,0.231,0.141,0.33,0.252,0.448c0.196,0.218,0.498,0.33,0.883,0.33c0.504,0,0.868-0.203,1.128-0.645
		c0.133-0.225,0.245-0.567,0.301-0.896c0.028-0.176,0.049-0.463,0.063-0.819c-0.099,0.188-0.154,0.259-0.28,0.392
		c-0.357,0.336-0.75,0.49-1.274,0.49c-0.519,0-0.96-0.161-1.261-0.462c-0.302-0.301-0.477-0.764-0.477-1.261
		c0-1.113,0.749-1.842,1.898-1.842c0.784,0,1.429,0.448,1.694,1.177c0.141,0.378,0.203,0.854,0.203,1.456
		c0,0.974-0.203,1.766-0.581,2.234c-0.351,0.441-0.813,0.651-1.457,0.651c-0.483,0-0.875-0.126-1.177-0.378
		c-0.196-0.161-0.308-0.322-0.49-0.693L4.5,122.095z M6.993,119.63c0-0.757-0.56-1.324-1.31-1.324c-0.462,0-0.882,0.225-1.113,0.596
		c-0.112,0.183-0.182,0.462-0.182,0.735c0,0.792,0.482,1.289,1.246,1.289C6.412,120.926,6.993,120.372,6.993,119.63z"/>
	<path d="M9.253,123.258c-0.441,0-0.546,0.007-0.771,0.035c0.077-0.554,0.099-0.658,0.203-0.925c0.175-0.441,0.47-0.826,0.91-1.204
		c0.245-0.211,0.26-0.218,1.072-0.771c0.693-0.47,0.924-0.777,0.924-1.205c0-0.532-0.448-0.875-1.162-0.875
		c-0.462,0-0.806,0.153-1.016,0.455c-0.133,0.188-0.196,0.357-0.245,0.707l-0.588-0.098c0.104-0.505,0.21-0.75,0.44-1.009
		c0.315-0.357,0.792-0.539,1.408-0.539c1.058,0,1.737,0.532,1.737,1.358c0,0.357-0.141,0.693-0.414,0.995
		c-0.21,0.237-0.392,0.371-1.19,0.903c-0.553,0.371-0.777,0.567-1.009,0.861c-0.217,0.287-0.314,0.477-0.398,0.813h2.233
		c0.351,0,0.589-0.015,0.854-0.049v0.588c-0.279-0.028-0.511-0.042-0.861-0.042H9.253z"/>
	<path d="M16.401,120.771c0.35,0.259,0.524,0.63,0.524,1.1c0,0.959-0.7,1.499-1.933,1.499c-1.281,0-1.989-0.532-1.989-1.499
		c0-0.504,0.203-0.89,0.624-1.163c0.217-0.14,0.371-0.195,0.63-0.237c-0.616-0.112-1.016-0.609-1.016-1.261
		c0-0.848,0.665-1.387,1.723-1.387c1.072,0,1.73,0.524,1.73,1.387c0,0.651-0.393,1.142-1.016,1.261
		C15.974,120.513,16.17,120.597,16.401,120.771z M13.578,121.836c0,0.665,0.512,1.058,1.38,1.058c0.49,0,0.89-0.126,1.128-0.364
		c0.175-0.161,0.266-0.406,0.266-0.693c0-0.687-0.524-1.1-1.387-1.1C14.104,120.736,13.578,121.156,13.578,121.836z M13.789,119.252
		c0,0.623,0.447,1.001,1.184,1.001c0.735,0,1.176-0.378,1.176-1.001c0-0.589-0.462-0.96-1.184-0.96
		C14.251,118.292,13.789,118.67,13.789,119.252z"/>
	<path d="M20.642,120.232c0-0.154-0.007-0.273-0.021-0.413c0.147,0.014,0.302,0.021,0.498,0.021h1.52v-1.142h-1.646
		c-0.356,0.596-0.693,1.009-1.162,1.429c-0.112-0.161-0.183-0.231-0.336-0.336c0.693-0.589,1.071-1.1,1.4-1.884
		c0.091-0.203,0.14-0.364,0.175-0.512l0.498,0.141c-0.028,0.056-0.05,0.104-0.092,0.188l-0.266,0.567h3.474
		c0.309,0,0.455-0.007,0.631-0.035v0.477c-0.176-0.028-0.344-0.035-0.631-0.035H23.1v1.142h1.268c0.287,0,0.441-0.007,0.624-0.035
		v0.463c-0.183-0.021-0.351-0.028-0.617-0.028H23.1v1.373h1.766c0.314,0,0.511-0.015,0.707-0.042v0.504
		c-0.203-0.028-0.42-0.042-0.707-0.042H23.1v1.155c0,0.302,0.015,0.47,0.049,0.651h-0.553c0.035-0.175,0.042-0.329,0.042-0.651
		v-1.155h-2.528c-0.287,0-0.505,0.014-0.708,0.042v-0.504c0.203,0.027,0.399,0.042,0.708,0.042h0.532V120.232z M22.638,121.612
		v-1.373h-1.541v1.373H22.638z"/>
</g>
<g>
	<path d="M30.56,4.546h2.063c-0.479,0.647-0.655,0.96-0.847,1.487c-0.24,0.68-0.353,1.424-0.353,2.327s0.112,1.646,0.353,2.326
		c0.191,0.528,0.367,0.84,0.847,1.487H30.56V4.546z"/>
	<path d="M33.675,6.041c0-0.384-0.017-0.663-0.049-0.983c0.265,0.032,0.504,0.04,0.936,0.04h4.781c0.424,0,0.656-0.008,0.952-0.04
		c-0.032,0.296-0.048,0.568-0.048,0.983v4.87c0,0.583,0.016,0.879,0.048,1.095h-0.56v-0.487h-5.549v0.487h-0.561
		c0.032-0.216,0.049-0.504,0.049-1.095V6.041z M34.187,11.063h5.549V5.554h-5.549V11.063z M35.554,6.737
		c-0.344,0-0.536,0.008-0.752,0.04V6.266c0.224,0.04,0.399,0.048,0.752,0.048h2.822c0.359,0,0.575-0.017,0.783-0.048v0.512
		c-0.224-0.032-0.416-0.04-0.775-0.04h-1.231v1.239h0.983c0.36,0,0.52-0.008,0.72-0.04V8.44c-0.2-0.032-0.384-0.04-0.72-0.04h-0.983
		v1.463h1.344c0.327,0,0.56-0.016,0.783-0.048v0.527c-0.231-0.032-0.472-0.048-0.783-0.048H35.45c-0.328,0-0.552,0.016-0.791,0.048
		V9.815c0.224,0.032,0.455,0.048,0.791,0.048h1.207V8.4h-0.855c-0.335,0-0.527,0.008-0.728,0.04V7.937
		c0.2,0.032,0.36,0.04,0.728,0.04h0.855V6.737H35.554z M38.121,8.544c0.327,0.328,0.455,0.504,0.751,0.951l-0.375,0.24
		c-0.28-0.487-0.408-0.664-0.712-0.991L38.121,8.544z"/>
	<path d="M42.682,5.666c-0.359,0.088-0.52,0.119-0.983,0.199c-0.056-0.176-0.104-0.271-0.208-0.424
		c1.151-0.159,1.927-0.392,2.358-0.711l0.305,0.415c-0.064,0.032-0.072,0.032-0.2,0.097C43.65,5.37,43.458,5.449,43.17,5.529v1.296
		h0.384c0.247,0,0.399-0.008,0.551-0.032v0.504c-0.159-0.024-0.312-0.032-0.551-0.032h-0.368c0.256,0.655,0.52,1.071,0.951,1.527
		c-0.136,0.168-0.176,0.231-0.271,0.424c-0.368-0.479-0.536-0.784-0.735-1.375c0.016,0.367,0.016,0.367,0.04,1.19v2.047
		c0,0.456,0.016,0.704,0.048,0.928h-0.584c0.032-0.248,0.048-0.495,0.048-0.928V9.16c0-0.296,0.024-0.88,0.04-1.264
		c-0.264,0.943-0.632,1.646-1.207,2.366c-0.096-0.191-0.168-0.304-0.296-0.455c0.367-0.408,0.632-0.8,0.911-1.336
		c0.192-0.375,0.384-0.879,0.472-1.207h-0.527c-0.304,0-0.488,0.008-0.672,0.04v-0.52c0.184,0.032,0.344,0.04,0.672,0.04h0.607
		V5.666z M46.552,6.369c0.352-0.592,0.512-0.936,0.712-1.575l0.52,0.2c-0.264,0.6-0.456,0.951-0.728,1.375h0.479
		c0.271,0,0.447-0.008,0.655-0.032c-0.023,0.152-0.031,0.288-0.031,0.528V8.16c0,0.224,0.008,0.376,0.031,0.576
		c-0.199-0.024-0.384-0.032-0.655-0.032h-0.487v2.511c0,0.191,0.063,0.216,0.527,0.216c0.344,0,0.464-0.04,0.527-0.168
		c0.064-0.152,0.104-0.472,0.128-1.056c0.185,0.128,0.296,0.184,0.472,0.232c-0.063,0.735-0.119,1.015-0.256,1.207
		c-0.136,0.199-0.352,0.256-1.031,0.256c-0.703,0-0.863-0.104-0.863-0.584V8.704H45.8c-0.023,0.72-0.12,1.255-0.319,1.751
		c-0.296,0.728-0.735,1.191-1.495,1.591c-0.112-0.168-0.208-0.271-0.384-0.416c0.72-0.327,1.111-0.688,1.383-1.287
		c0.2-0.432,0.304-0.976,0.312-1.639h-0.295c-0.256,0-0.416,0.008-0.616,0.032c0.016-0.185,0.024-0.368,0.024-0.584V6.889
		c0-0.176-0.009-0.367-0.024-0.552c0.224,0.024,0.368,0.032,0.632,0.032H46.552z M45.369,6.241c-0.2-0.496-0.376-0.808-0.688-1.215
		l0.456-0.208c0.319,0.455,0.503,0.775,0.703,1.215L45.369,6.241z M44.889,8.264h2.79V6.809h-2.79V8.264z"/>
	<path d="M52.258,5.233c0.208,0.032,0.36,0.04,0.664,0.04h0.504c0.271,0,0.399-0.008,0.663-0.04
		c-0.048,0.488-0.072,0.896-0.072,1.328v3.886c0,0.375,0.017,0.607,0.064,0.903h-0.76c0.048-0.28,0.064-0.536,0.064-0.903v-4.63
		h-0.432c-0.256,0-0.464,0.017-0.696,0.048V5.233z"/>
	<path d="M57.634,7.593c-0.016,0.144-0.016,0.144-0.064,0.359C57.955,7.585,58.417,7.4,58.969,7.4c0.584,0,1.08,0.192,1.439,0.544
		c0.36,0.344,0.536,0.815,0.536,1.407c0,1.287-0.84,2.111-2.159,2.111c-0.624,0-1.144-0.185-1.527-0.544
		c-0.2-0.2-0.312-0.368-0.504-0.752l0.656-0.191c0.08,0.224,0.136,0.327,0.256,0.464c0.271,0.304,0.671,0.472,1.135,0.472
		c0.896,0,1.495-0.608,1.495-1.527c0-0.88-0.551-1.455-1.398-1.455c-0.408,0-0.76,0.111-1.048,0.335
		c-0.191,0.152-0.28,0.265-0.368,0.48l-0.6-0.057c0.064-0.312,0.088-0.479,0.12-0.823l0.176-1.807
		c0.017-0.232,0.024-0.328,0.024-0.479c0-0.112,0-0.145-0.016-0.345c0.247,0.032,0.375,0.04,0.847,0.04h1.647
		c0.432,0,0.615-0.016,0.936-0.063v0.68c-0.304-0.048-0.56-0.064-0.936-0.064h-1.879L57.634,7.593z"/>
	<path d="M64.882,11.07c0,0.504,0.008,0.664,0.04,0.848h-0.624c0.032-0.216,0.048-0.447,0.048-0.871V5.905
		c0-0.304-0.008-0.495-0.032-0.712c0.208,0.024,0.408,0.032,0.736,0.032h4.877c0.344,0,0.544-0.008,0.735-0.032
		c-0.023,0.225-0.031,0.4-0.031,0.736v5.245c0,0.479-0.177,0.592-0.952,0.592c-0.319,0-0.76-0.017-1.143-0.048
		c-0.024-0.2-0.057-0.328-0.129-0.521c0.561,0.064,0.952,0.097,1.264,0.097c0.352,0,0.424-0.032,0.424-0.185V8.624h-5.213V11.07z
		 M67.161,5.714h-2.278v2.431h2.278V5.714z M70.095,8.145V5.714H67.68v2.431H70.095z"/>
	<path d="M72.778,5.857c0-0.328-0.016-0.552-0.063-0.84h0.64c-0.032,0.216-0.048,0.464-0.048,0.752v0.096l0.04,4.054
		c0.439-0.176,0.703-0.296,1.047-0.464c0.624-0.312,0.991-0.503,1.224-0.671l0.104,0.495c-0.959,0.576-1.814,0.992-3.134,1.495
		c-0.24,0.088-0.312,0.12-0.472,0.2l-0.176-0.584c0.336-0.08,0.543-0.144,0.879-0.264L72.778,5.857z M78.311,5.01
		c-0.023,0.16-0.032,0.192-0.063,0.792c-0.04,0.615-0.208,1.583-0.36,2.11c-0.144,0.512-0.352,0.976-0.64,1.455
		c0.448,0.848,1.088,1.504,1.959,2.023c-0.16,0.168-0.248,0.296-0.359,0.512c-0.536-0.376-0.84-0.656-1.231-1.111
		c-0.288-0.336-0.44-0.56-0.672-0.96c-0.703,0.943-1.599,1.6-2.927,2.135c-0.088-0.191-0.216-0.359-0.344-0.479
		c0.688-0.256,1.128-0.472,1.6-0.791c1.127-0.76,1.839-1.783,2.183-3.167c0.168-0.671,0.256-1.383,0.256-2.118
		c0-0.2-0.008-0.265-0.024-0.416L78.311,5.01z M74.817,5.562c0.632,0.647,0.976,1.063,1.552,1.911l-0.48,0.336
		c-0.527-0.863-0.799-1.216-1.511-1.951L74.817,5.562z"/>
	<path d="M83.592,11.095h2.615c0.376,0,0.623-0.017,0.896-0.048v0.607c-0.304-0.04-0.552-0.056-0.896-0.056h-5.325
		c-0.344,0-0.64,0.016-0.943,0.056v-0.607c0.264,0.031,0.543,0.048,0.943,0.048h2.143V5.697c0-0.304-0.016-0.552-0.056-0.831h0.68
		c-0.04,0.271-0.057,0.527-0.057,0.831v1.64h2.023c0.344,0,0.6-0.017,0.831-0.048v0.615c-0.248-0.032-0.487-0.048-0.831-0.048
		h-2.023V11.095z"/>
	<path d="M87.827,12.174c0.479-0.647,0.655-0.959,0.848-1.487c0.24-0.68,0.352-1.407,0.352-2.326c0-0.92-0.111-1.647-0.352-2.327
		c-0.192-0.527-0.368-0.84-0.848-1.487h2.063v7.628H87.827z"/>
</g>
<g>
	<path d="M30.56,39.813h2.063c-0.479,0.647-0.655,0.96-0.847,1.487c-0.24,0.68-0.353,1.424-0.353,2.327s0.112,1.646,0.353,2.326
		c0.191,0.528,0.367,0.84,0.847,1.487H30.56V39.813z"/>
	<path d="M33.675,41.308c0-0.384-0.017-0.663-0.049-0.983c0.265,0.032,0.504,0.04,0.936,0.04h4.781c0.424,0,0.656-0.008,0.952-0.04
		c-0.032,0.296-0.048,0.568-0.048,0.983v4.87c0,0.583,0.016,0.879,0.048,1.095h-0.56v-0.487h-5.549v0.487h-0.561
		c0.032-0.216,0.049-0.504,0.049-1.095V41.308z M34.187,46.33h5.549v-5.509h-5.549V46.33z M35.554,42.004
		c-0.344,0-0.536,0.008-0.752,0.04v-0.512c0.224,0.04,0.399,0.048,0.752,0.048h2.822c0.359,0,0.575-0.017,0.783-0.048v0.512
		c-0.224-0.032-0.416-0.04-0.775-0.04h-1.231v1.239h0.983c0.36,0,0.52-0.008,0.72-0.04v0.504c-0.2-0.032-0.384-0.04-0.72-0.04
		h-0.983v1.463h1.344c0.327,0,0.56-0.016,0.783-0.048v0.527c-0.231-0.032-0.472-0.048-0.783-0.048H35.45
		c-0.328,0-0.552,0.016-0.791,0.048v-0.527c0.224,0.032,0.455,0.048,0.791,0.048h1.207v-1.463h-0.855
		c-0.335,0-0.527,0.008-0.728,0.04v-0.504c0.2,0.032,0.36,0.04,0.728,0.04h0.855v-1.239H35.554z M38.121,43.811
		c0.327,0.328,0.455,0.504,0.751,0.951l-0.375,0.24c-0.28-0.487-0.408-0.664-0.712-0.991L38.121,43.811z"/>
	<path d="M42.682,40.933c-0.359,0.088-0.52,0.119-0.983,0.199c-0.056-0.176-0.104-0.271-0.208-0.424
		c1.151-0.159,1.927-0.392,2.358-0.711l0.305,0.415c-0.064,0.032-0.072,0.032-0.2,0.097c-0.304,0.128-0.496,0.207-0.783,0.287v1.296
		h0.384c0.247,0,0.399-0.008,0.551-0.032v0.504c-0.159-0.024-0.312-0.032-0.551-0.032h-0.368c0.256,0.655,0.52,1.071,0.951,1.527
		c-0.136,0.168-0.176,0.231-0.271,0.424c-0.368-0.479-0.536-0.784-0.735-1.375c0.016,0.367,0.016,0.367,0.04,1.19v2.047
		c0,0.456,0.016,0.704,0.048,0.928h-0.584c0.032-0.248,0.048-0.495,0.048-0.928v-1.918c0-0.296,0.024-0.88,0.04-1.264
		c-0.264,0.943-0.632,1.646-1.207,2.366c-0.096-0.191-0.168-0.304-0.296-0.455c0.367-0.408,0.632-0.8,0.911-1.336
		c0.192-0.375,0.384-0.879,0.472-1.207h-0.527c-0.304,0-0.488,0.008-0.672,0.04v-0.52c0.184,0.032,0.344,0.04,0.672,0.04h0.607
		V40.933z M46.552,41.636c0.352-0.592,0.512-0.936,0.712-1.575l0.52,0.2c-0.264,0.6-0.456,0.951-0.728,1.375h0.479
		c0.271,0,0.447-0.008,0.655-0.032c-0.023,0.152-0.031,0.288-0.031,0.528v1.295c0,0.224,0.008,0.376,0.031,0.576
		c-0.199-0.024-0.384-0.032-0.655-0.032h-0.487v2.511c0,0.191,0.063,0.216,0.527,0.216c0.344,0,0.464-0.04,0.527-0.168
		c0.064-0.152,0.104-0.472,0.128-1.056c0.185,0.128,0.296,0.184,0.472,0.232c-0.063,0.735-0.119,1.015-0.256,1.207
		c-0.136,0.199-0.352,0.256-1.031,0.256c-0.703,0-0.863-0.104-0.863-0.584v-2.614H45.8c-0.023,0.72-0.12,1.255-0.319,1.751
		c-0.296,0.728-0.735,1.191-1.495,1.591c-0.112-0.168-0.208-0.271-0.384-0.416c0.72-0.327,1.111-0.688,1.383-1.287
		c0.2-0.432,0.304-0.976,0.312-1.639h-0.295c-0.256,0-0.416,0.008-0.616,0.032c0.016-0.185,0.024-0.368,0.024-0.584v-1.264
		c0-0.176-0.009-0.367-0.024-0.552c0.224,0.024,0.368,0.032,0.632,0.032H46.552z M45.369,41.508c-0.2-0.496-0.376-0.808-0.688-1.215
		l0.456-0.208c0.319,0.455,0.503,0.775,0.703,1.215L45.369,41.508z M44.889,43.531h2.79v-1.455h-2.79V43.531z"/>
	<path d="M52.258,40.5c0.208,0.032,0.36,0.04,0.664,0.04h0.504c0.271,0,0.399-0.008,0.663-0.04
		c-0.048,0.488-0.072,0.896-0.072,1.328v3.886c0,0.375,0.017,0.607,0.064,0.903h-0.76c0.048-0.28,0.064-0.536,0.064-0.903v-4.63
		h-0.432c-0.256,0-0.464,0.017-0.696,0.048V40.5z"/>
	<path d="M57.386,46.169c-0.216-0.216-0.384-0.463-0.479-0.735c-0.2-0.56-0.304-1.191-0.304-1.847c0-0.848,0.184-1.711,0.464-2.175
		c0.384-0.647,0.999-0.983,1.791-0.983c0.592,0,1.104,0.191,1.463,0.567c0.224,0.224,0.384,0.472,0.479,0.735
		c0.2,0.552,0.304,1.191,0.304,1.855c0,0.967-0.208,1.823-0.56,2.311c-0.399,0.56-0.959,0.84-1.695,0.84
		C58.258,46.738,57.762,46.545,57.386,46.169z M57.85,41.388c-0.168,0.185-0.296,0.384-0.359,0.584
		c-0.168,0.487-0.248,1.031-0.248,1.615c0,0.743,0.16,1.527,0.376,1.902c0.279,0.464,0.695,0.696,1.239,0.696
		c0.399,0,0.743-0.128,0.983-0.376c0.176-0.184,0.304-0.392,0.376-0.624c0.167-0.495,0.247-1.023,0.247-1.615
		c0-0.695-0.151-1.486-0.359-1.862c-0.264-0.48-0.695-0.728-1.256-0.728C58.434,40.981,58.106,41.117,57.85,41.388z"/>
	<path d="M64.882,46.337c0,0.504,0.008,0.664,0.04,0.848h-0.624c0.032-0.216,0.048-0.447,0.048-0.871v-5.142
		c0-0.304-0.008-0.495-0.032-0.712c0.208,0.024,0.408,0.032,0.736,0.032h4.877c0.344,0,0.544-0.008,0.735-0.032
		c-0.023,0.225-0.031,0.4-0.031,0.736v5.245c0,0.479-0.177,0.592-0.952,0.592c-0.319,0-0.76-0.017-1.143-0.048
		c-0.024-0.2-0.057-0.328-0.129-0.521c0.561,0.064,0.952,0.097,1.264,0.097c0.352,0,0.424-0.032,0.424-0.185v-2.486h-5.213V46.337z
		 M67.161,40.981h-2.278v2.431h2.278V40.981z M70.095,43.412v-2.431H67.68v2.431H70.095z"/>
	<path d="M72.778,41.125c0-0.328-0.016-0.552-0.063-0.84h0.64c-0.032,0.216-0.048,0.464-0.048,0.752v0.096l0.04,4.054
		c0.439-0.176,0.703-0.296,1.047-0.464c0.624-0.312,0.991-0.503,1.224-0.671l0.104,0.495c-0.959,0.576-1.814,0.992-3.134,1.495
		c-0.24,0.088-0.312,0.12-0.472,0.2l-0.176-0.584c0.336-0.08,0.543-0.144,0.879-0.264L72.778,41.125z M78.311,40.277
		c-0.023,0.16-0.032,0.192-0.063,0.792c-0.04,0.615-0.208,1.583-0.36,2.11c-0.144,0.512-0.352,0.976-0.64,1.455
		c0.448,0.848,1.088,1.504,1.959,2.023c-0.16,0.168-0.248,0.296-0.359,0.512c-0.536-0.376-0.84-0.656-1.231-1.111
		c-0.288-0.336-0.44-0.56-0.672-0.96c-0.703,0.943-1.599,1.6-2.927,2.135c-0.088-0.191-0.216-0.359-0.344-0.479
		c0.688-0.256,1.128-0.472,1.6-0.791c1.127-0.76,1.839-1.783,2.183-3.167c0.168-0.671,0.256-1.383,0.256-2.118
		c0-0.2-0.008-0.265-0.024-0.416L78.311,40.277z M74.817,40.829c0.632,0.647,0.976,1.063,1.552,1.911l-0.48,0.336
		c-0.527-0.863-0.799-1.216-1.511-1.951L74.817,40.829z"/>
	<path d="M83.592,46.362h2.615c0.376,0,0.623-0.017,0.896-0.048v0.607c-0.304-0.04-0.552-0.056-0.896-0.056h-5.325
		c-0.344,0-0.64,0.016-0.943,0.056v-0.607c0.264,0.031,0.543,0.048,0.943,0.048h2.143v-5.397c0-0.304-0.016-0.552-0.056-0.831h0.68
		c-0.04,0.271-0.057,0.527-0.057,0.831v1.64h2.023c0.344,0,0.6-0.017,0.831-0.048v0.615c-0.248-0.032-0.487-0.048-0.831-0.048
		h-2.023V46.362z"/>
	<path d="M87.827,47.441c0.479-0.647,0.655-0.959,0.848-1.487c0.24-0.68,0.352-1.407,0.352-2.326c0-0.92-0.111-1.647-0.352-2.327
		c-0.192-0.527-0.368-0.84-0.848-1.487h2.063v7.628H87.827z"/>
</g>
<g>
	<path d="M30.56,74.98h2.063c-0.479,0.647-0.655,0.96-0.847,1.487c-0.24,0.68-0.353,1.424-0.353,2.328s0.112,1.646,0.353,2.326
		c0.191,0.528,0.367,0.84,0.847,1.487H30.56V74.98z"/>
	<path d="M33.675,76.475c0-0.384-0.017-0.663-0.049-0.983c0.265,0.032,0.504,0.04,0.936,0.04h4.781c0.424,0,0.656-0.008,0.952-0.04
		c-0.032,0.296-0.048,0.568-0.048,0.983v4.871c0,0.583,0.016,0.879,0.048,1.095h-0.56v-0.487h-5.549v0.487h-0.561
		c0.032-0.216,0.049-0.504,0.049-1.095V76.475z M34.187,81.497h5.549v-5.509h-5.549V81.497z M35.554,77.172
		c-0.344,0-0.536,0.008-0.752,0.04V76.7c0.224,0.04,0.399,0.048,0.752,0.048h2.822c0.359,0,0.575-0.017,0.783-0.048v0.512
		c-0.224-0.032-0.416-0.04-0.775-0.04h-1.231v1.239h0.983c0.36,0,0.52-0.008,0.72-0.04v0.504c-0.2-0.032-0.384-0.04-0.72-0.04
		h-0.983v1.463h1.344c0.327,0,0.56-0.016,0.783-0.048v0.527c-0.231-0.032-0.472-0.048-0.783-0.048H35.45
		c-0.328,0-0.552,0.016-0.791,0.048V80.25c0.224,0.032,0.455,0.048,0.791,0.048h1.207v-1.463h-0.855
		c-0.335,0-0.527,0.008-0.728,0.04v-0.504c0.2,0.032,0.36,0.04,0.728,0.04h0.855v-1.239H35.554z M38.121,78.979
		c0.327,0.328,0.455,0.504,0.751,0.951l-0.375,0.24c-0.28-0.487-0.408-0.664-0.712-0.991L38.121,78.979z"/>
	<path d="M42.682,76.1c-0.359,0.088-0.52,0.119-0.983,0.199c-0.056-0.176-0.104-0.271-0.208-0.424
		c1.151-0.159,1.927-0.392,2.358-0.711l0.305,0.415c-0.064,0.032-0.072,0.032-0.2,0.097c-0.304,0.128-0.496,0.207-0.783,0.287v1.296
		h0.384c0.247,0,0.399-0.008,0.551-0.032v0.504c-0.159-0.024-0.312-0.032-0.551-0.032h-0.368c0.256,0.655,0.52,1.071,0.951,1.527
		c-0.136,0.168-0.176,0.231-0.271,0.424c-0.368-0.479-0.536-0.784-0.735-1.375c0.016,0.367,0.016,0.367,0.04,1.19v2.047
		c0,0.456,0.016,0.704,0.048,0.928h-0.584c0.032-0.248,0.048-0.495,0.048-0.928v-1.918c0-0.296,0.024-0.88,0.04-1.264
		c-0.264,0.943-0.632,1.646-1.207,2.366c-0.096-0.191-0.168-0.304-0.296-0.455c0.367-0.408,0.632-0.8,0.911-1.336
		c0.192-0.375,0.384-0.879,0.472-1.207h-0.527c-0.304,0-0.488,0.008-0.672,0.04v-0.52c0.184,0.032,0.344,0.04,0.672,0.04h0.607V76.1
		z M46.552,76.804c0.352-0.592,0.512-0.936,0.712-1.576l0.52,0.2c-0.264,0.6-0.456,0.951-0.728,1.375h0.479
		c0.271,0,0.447-0.008,0.655-0.032c-0.023,0.152-0.031,0.288-0.031,0.528v1.295c0,0.224,0.008,0.376,0.031,0.576
		c-0.199-0.024-0.384-0.032-0.655-0.032h-0.487v2.511c0,0.191,0.063,0.216,0.527,0.216c0.344,0,0.464-0.04,0.527-0.168
		c0.064-0.152,0.104-0.472,0.128-1.056c0.185,0.128,0.296,0.184,0.472,0.232c-0.063,0.735-0.119,1.015-0.256,1.207
		c-0.136,0.199-0.352,0.256-1.031,0.256c-0.703,0-0.863-0.104-0.863-0.584v-2.614H45.8c-0.023,0.72-0.12,1.255-0.319,1.751
		c-0.296,0.728-0.735,1.191-1.495,1.591c-0.112-0.168-0.208-0.271-0.384-0.416c0.72-0.327,1.111-0.688,1.383-1.287
		c0.2-0.432,0.304-0.976,0.312-1.639h-0.295c-0.256,0-0.416,0.008-0.616,0.032c0.016-0.185,0.024-0.368,0.024-0.584v-1.264
		c0-0.176-0.009-0.367-0.024-0.552c0.224,0.024,0.368,0.032,0.632,0.032H46.552z M45.369,76.676c-0.2-0.497-0.376-0.808-0.688-1.215
		l0.456-0.208c0.319,0.455,0.503,0.775,0.703,1.215L45.369,76.676z M44.889,78.698h2.79v-1.455h-2.79V78.698z"/>
	<path d="M51.377,80.362c0.128,0.407,0.24,0.575,0.488,0.751c0.271,0.192,0.624,0.288,1.031,0.288c0.928,0,1.511-0.479,1.511-1.239
		c0-0.792-0.567-1.224-1.631-1.224c-0.224,0-0.424,0.016-0.64,0.04v-0.624c0.185,0.024,0.376,0.04,0.592,0.04
		c0.528,0,0.92-0.119,1.167-0.367c0.2-0.192,0.32-0.488,0.32-0.775c0-0.689-0.479-1.088-1.287-1.088
		c-0.488,0-0.84,0.136-1.063,0.424c-0.112,0.144-0.168,0.272-0.256,0.576l-0.664-0.151c0.136-0.409,0.232-0.592,0.432-0.8
		c0.353-0.384,0.896-0.584,1.592-0.584c1.159,0,1.895,0.608,1.895,1.568c0,0.488-0.208,0.92-0.56,1.168
		c-0.208,0.151-0.384,0.216-0.752,0.287c0.464,0.048,0.712,0.137,0.984,0.344c0.352,0.272,0.535,0.696,0.535,1.208
		c0,1.079-0.831,1.751-2.167,1.751c-0.808,0-1.407-0.216-1.791-0.656c-0.168-0.191-0.264-0.367-0.407-0.775L51.377,80.362z"/>
	<path d="M58.371,81.505c0,0.504,0.008,0.664,0.04,0.848h-0.624c0.032-0.216,0.048-0.447,0.048-0.871v-5.142
		c0-0.304-0.008-0.495-0.032-0.712c0.208,0.024,0.408,0.032,0.736,0.032h4.877c0.344,0,0.544-0.008,0.735-0.032
		c-0.023,0.225-0.031,0.4-0.031,0.736v5.246c0,0.479-0.177,0.592-0.952,0.592c-0.319,0-0.76-0.017-1.143-0.048
		c-0.024-0.2-0.057-0.328-0.129-0.521c0.561,0.064,0.952,0.097,1.264,0.097c0.352,0,0.424-0.032,0.424-0.185v-2.486h-5.213V81.505z
		 M60.649,76.148h-2.278v2.431h2.278V76.148z M63.583,78.579v-2.431h-2.415v2.431H63.583z"/>
	<path d="M66.266,76.292c0-0.328-0.016-0.552-0.063-0.84h0.64c-0.032,0.216-0.048,0.464-0.048,0.752v0.096l0.04,4.054
		c0.439-0.176,0.703-0.296,1.047-0.464c0.624-0.312,0.991-0.503,1.224-0.671l0.104,0.495c-0.959,0.576-1.814,0.992-3.134,1.495
		c-0.24,0.088-0.312,0.12-0.472,0.2l-0.176-0.584c0.336-0.08,0.543-0.144,0.879-0.264L66.266,76.292z M71.799,75.444
		c-0.023,0.16-0.032,0.192-0.063,0.792c-0.04,0.616-0.208,1.583-0.36,2.111c-0.144,0.512-0.352,0.976-0.64,1.455
		c0.448,0.848,1.088,1.504,1.959,2.023c-0.16,0.168-0.248,0.296-0.359,0.512c-0.536-0.376-0.84-0.656-1.231-1.111
		c-0.288-0.336-0.44-0.56-0.672-0.96c-0.703,0.943-1.599,1.6-2.927,2.135c-0.088-0.191-0.216-0.359-0.344-0.479
		c0.688-0.256,1.128-0.472,1.6-0.791c1.127-0.76,1.839-1.783,2.183-3.167c0.168-0.671,0.256-1.383,0.256-2.119
		c0-0.2-0.008-0.265-0.024-0.416L71.799,75.444z M68.305,75.996c0.632,0.647,0.976,1.064,1.552,1.912l-0.48,0.336
		c-0.527-0.863-0.799-1.216-1.511-1.952L68.305,75.996z"/>
	<path d="M77.081,81.529h2.615c0.376,0,0.623-0.017,0.896-0.048v0.607c-0.304-0.04-0.552-0.056-0.896-0.056h-5.325
		c-0.344,0-0.64,0.016-0.943,0.056v-0.607c0.264,0.031,0.543,0.048,0.943,0.048h2.143v-5.398c0-0.304-0.016-0.552-0.056-0.831h0.68
		c-0.04,0.271-0.057,0.527-0.057,0.831v1.64h2.023c0.344,0,0.6-0.017,0.831-0.048v0.615c-0.248-0.032-0.487-0.048-0.831-0.048
		h-2.023V81.529z"/>
	<path d="M81.315,82.608c0.479-0.647,0.655-0.959,0.848-1.487c0.24-0.68,0.352-1.407,0.352-2.326c0-0.92-0.111-1.647-0.352-2.328
		c-0.192-0.527-0.368-0.84-0.848-1.487h2.063v7.628H81.315z"/>
</g>
<g>
	<path d="M30.56,108.769h2.063c-0.479,0.647-0.655,0.96-0.847,1.487c-0.24,0.68-0.353,1.424-0.353,2.327s0.112,1.646,0.353,2.326
		c0.191,0.528,0.367,0.84,0.847,1.487H30.56V108.769z"/>
	<path d="M33.675,110.264c0-0.384-0.017-0.663-0.049-0.983c0.265,0.032,0.504,0.04,0.936,0.04h4.781c0.424,0,0.656-0.008,0.952-0.04
		c-0.032,0.296-0.048,0.568-0.048,0.983v4.87c0,0.583,0.016,0.879,0.048,1.095h-0.56v-0.487h-5.549v0.487h-0.561
		c0.032-0.216,0.049-0.504,0.049-1.095V110.264z M34.187,115.285h5.549v-5.509h-5.549V115.285z M35.554,110.96
		c-0.344,0-0.536,0.008-0.752,0.04v-0.512c0.224,0.04,0.399,0.048,0.752,0.048h2.822c0.359,0,0.575-0.017,0.783-0.048V111
		c-0.224-0.032-0.416-0.04-0.775-0.04h-1.231v1.239h0.983c0.36,0,0.52-0.008,0.72-0.04v0.504c-0.2-0.032-0.384-0.04-0.72-0.04
		h-0.983v1.463h1.344c0.327,0,0.56-0.016,0.783-0.048v0.527c-0.231-0.032-0.472-0.048-0.783-0.048H35.45
		c-0.328,0-0.552,0.016-0.791,0.048v-0.527c0.224,0.032,0.455,0.048,0.791,0.048h1.207v-1.463h-0.855
		c-0.335,0-0.527,0.008-0.728,0.04v-0.504c0.2,0.032,0.36,0.04,0.728,0.04h0.855v-1.239H35.554z M38.121,112.767
		c0.327,0.328,0.455,0.504,0.751,0.951l-0.375,0.24c-0.28-0.487-0.408-0.664-0.712-0.991L38.121,112.767z"/>
	<path d="M42.682,109.889c-0.359,0.088-0.52,0.119-0.983,0.199c-0.056-0.176-0.104-0.271-0.208-0.424
		c1.151-0.159,1.927-0.392,2.358-0.711l0.305,0.415c-0.064,0.032-0.072,0.032-0.2,0.097c-0.304,0.128-0.496,0.207-0.783,0.287v1.296
		h0.384c0.247,0,0.399-0.008,0.551-0.032v0.504c-0.159-0.024-0.312-0.032-0.551-0.032h-0.368c0.256,0.655,0.52,1.071,0.951,1.527
		c-0.136,0.168-0.176,0.231-0.271,0.424c-0.368-0.479-0.536-0.784-0.735-1.375c0.016,0.367,0.016,0.367,0.04,1.19v2.047
		c0,0.456,0.016,0.704,0.048,0.928h-0.584c0.032-0.248,0.048-0.495,0.048-0.928v-1.918c0-0.296,0.024-0.88,0.04-1.264
		c-0.264,0.943-0.632,1.646-1.207,2.366c-0.096-0.191-0.168-0.304-0.296-0.455c0.367-0.408,0.632-0.8,0.911-1.336
		c0.192-0.375,0.384-0.879,0.472-1.207h-0.527c-0.304,0-0.488,0.008-0.672,0.04v-0.52c0.184,0.032,0.344,0.04,0.672,0.04h0.607
		V109.889z M46.552,110.592c0.352-0.592,0.512-0.936,0.712-1.575l0.52,0.2c-0.264,0.6-0.456,0.951-0.728,1.375h0.479
		c0.271,0,0.447-0.008,0.655-0.032c-0.023,0.152-0.031,0.288-0.031,0.528v1.295c0,0.224,0.008,0.376,0.031,0.576
		c-0.199-0.024-0.384-0.032-0.655-0.032h-0.487v2.511c0,0.191,0.063,0.216,0.527,0.216c0.344,0,0.464-0.04,0.527-0.168
		c0.064-0.152,0.104-0.472,0.128-1.056c0.185,0.128,0.296,0.184,0.472,0.232c-0.063,0.735-0.119,1.015-0.256,1.207
		c-0.136,0.199-0.352,0.256-1.031,0.256c-0.703,0-0.863-0.104-0.863-0.584v-2.614H45.8c-0.023,0.72-0.12,1.255-0.319,1.751
		c-0.296,0.728-0.735,1.191-1.495,1.591c-0.112-0.168-0.208-0.271-0.384-0.416c0.72-0.327,1.111-0.688,1.383-1.287
		c0.2-0.432,0.304-0.976,0.312-1.639h-0.295c-0.256,0-0.416,0.008-0.616,0.032c0.016-0.185,0.024-0.368,0.024-0.584v-1.264
		c0-0.176-0.009-0.367-0.024-0.552c0.224,0.024,0.368,0.032,0.632,0.032H46.552z M45.369,110.464
		c-0.2-0.496-0.376-0.808-0.688-1.215l0.456-0.208c0.319,0.455,0.503,0.775,0.703,1.215L45.369,110.464z M44.889,112.486h2.79
		v-1.455h-2.79V112.486z"/>
	<path d="M49.691,110.328c0.151,0.008,0.231,0.008,0.288,0.008c0.111,0,0.208-0.008,0.455-0.023
		c0.952-0.072,3.511-0.225,4.542-0.265c0.447-0.023,0.823-0.056,0.951-0.088l0.048,0.592c-0.319,0-0.592,0.032-0.896,0.112
		c-0.535,0.136-1.095,0.424-1.535,0.799c-0.64,0.536-0.983,1.184-0.983,1.848c0,0.672,0.408,1.207,1.119,1.479
		c0.393,0.145,0.896,0.256,1.2,0.256c0.016,0,0.048,0,0.079,0l-0.104,0.648c-0.088-0.017-0.12-0.024-0.248-0.048
		c-0.791-0.137-1.271-0.305-1.727-0.616c-0.568-0.384-0.888-0.968-0.888-1.631c0-0.928,0.544-1.807,1.495-2.455
		c0.248-0.168,0.456-0.279,0.76-0.424c-0.472,0.08-0.872,0.12-1.759,0.176c-1.655,0.112-2.367,0.177-2.759,0.265L49.691,110.328z
		 M54.984,111.247c0.304,0.368,0.464,0.608,0.735,1.12l-0.407,0.208c-0.216-0.456-0.424-0.784-0.72-1.136L54.984,111.247z
		 M55.759,110.872c0.304,0.367,0.464,0.607,0.735,1.119l-0.399,0.208c-0.224-0.456-0.432-0.784-0.728-1.136L55.759,110.872z"/>
	<path d="M60.617,113.494c-0.463,1.056-0.935,1.535-1.511,1.535c-0.76,0-1.327-0.831-1.327-1.951c0-0.815,0.304-1.606,0.84-2.206
		c0.64-0.704,1.511-1.063,2.582-1.063c0.896,0,1.68,0.279,2.199,0.791c0.504,0.488,0.775,1.184,0.775,1.951
		c0,1.239-0.672,2.263-1.831,2.759c-0.359,0.151-0.664,0.247-1.216,0.367c-0.079-0.264-0.127-0.344-0.279-0.535
		c0.584-0.097,0.959-0.2,1.335-0.376c0.88-0.399,1.415-1.256,1.415-2.239c0-0.911-0.463-1.646-1.271-2.007
		c-0.296-0.128-0.528-0.184-0.928-0.199C61.281,111.432,60.977,112.654,60.617,113.494z M59.633,110.704
		c-0.808,0.487-1.303,1.391-1.303,2.383c0,0.768,0.336,1.358,0.768,1.358c0.336,0,0.655-0.375,0.999-1.159
		c0.328-0.751,0.624-1.935,0.728-2.958C60.345,110.368,60.001,110.479,59.633,110.704z"/>
	<path d="M66.298,110.568c-0.144,0.319-0.216,0.439-0.416,0.759c-0.151-0.104-0.271-0.168-0.447-0.231
		c0.367-0.52,0.567-0.928,0.728-1.535c0.056-0.192,0.08-0.328,0.088-0.448l0.52,0.128c-0.048,0.112-0.096,0.248-0.136,0.416
		c-0.056,0.184-0.088,0.288-0.152,0.464h0.848v-0.312c0-0.408-0.008-0.6-0.048-0.815h0.584c-0.04,0.216-0.048,0.384-0.048,0.808
		v0.319h0.815c0.399,0,0.6-0.008,0.783-0.04v0.527c-0.199-0.031-0.399-0.039-0.783-0.039h-0.815v0.943h1.119
		c0.32,0,0.544-0.009,0.752-0.04v0.527c-0.185-0.032-0.376-0.04-0.76-0.04h-1.111v0.872h0.848c0.287,0,0.512-0.009,0.743-0.04
		c-0.024,0.216-0.032,0.407-0.032,0.735v1.583c0,0.384-0.159,0.479-0.799,0.479c-0.112,0-0.152,0-0.44-0.016
		c-0.008-0.192-0.032-0.328-0.08-0.479c0.177,0.031,0.328,0.04,0.56,0.04c0.24,0,0.288-0.024,0.288-0.137v-1.719h-1.087v2.039
		c0,0.447,0.008,0.663,0.04,0.903h-0.576c0.032-0.264,0.048-0.527,0.048-0.903v-2.039h-1.095v1.511c0,0.385,0.008,0.608,0.031,0.832
		h-0.552c0.032-0.208,0.04-0.344,0.04-0.823v-1.264c0-0.304-0.008-0.527-0.031-0.743c0.247,0.031,0.472,0.04,0.759,0.04h0.848
		v-0.872h-1.127c-0.336,0-0.544,0.016-0.76,0.048v-0.544c0.216,0.04,0.408,0.049,0.735,0.049h1.151v-0.943H66.298z M70.656,109.465
		c-0.04,0.216-0.048,0.424-0.048,0.871v3.135c0,0.527,0.008,0.688,0.04,0.896h-0.584c0.032-0.216,0.04-0.376,0.04-0.896v-3.127
		c0-0.439-0.008-0.655-0.048-0.879H70.656z M72.303,109.017c-0.04,0.232-0.056,0.504-0.056,0.968v5.405
		c0,0.583-0.168,0.719-0.896,0.719c-0.208,0-0.464-0.008-0.848-0.04c-0.032-0.216-0.064-0.335-0.152-0.512
		c0.408,0.057,0.744,0.08,1.008,0.08c0.327,0,0.384-0.04,0.384-0.239v-5.405c0-0.472-0.017-0.728-0.057-0.976H72.303z"/>
	<path d="M73.771,109.824c0-0.216-0.008-0.408-0.024-0.607c0.12,0.016,0.296,0.023,0.536,0.023h1.167
		c0.256,0,0.416-0.008,0.504-0.031l0.288,0.327c-0.04,0.072-0.08,0.145-0.12,0.256c-0.28,0.68-0.512,1.168-0.872,1.831
		c0.473,0.552,0.648,0.855,0.76,1.304c0.048,0.2,0.072,0.392,0.072,0.623c0,0.393-0.128,0.656-0.359,0.76
		c-0.129,0.057-0.328,0.08-0.656,0.08c-0.111,0-0.2,0-0.384-0.016c-0.016-0.216-0.048-0.336-0.12-0.504
		c0.2,0.04,0.376,0.056,0.568,0.056c0.344,0,0.447-0.104,0.447-0.432c0-0.288-0.056-0.567-0.176-0.848
		c-0.144-0.327-0.296-0.543-0.688-0.967c0.439-0.816,0.592-1.16,0.911-1.991h-1.359v5.765c0,0.288,0.009,0.504,0.04,0.744h-0.583
		c0.031-0.225,0.048-0.448,0.048-0.744V109.824z M76.993,112.646v2.694c0.72-0.184,0.872-0.231,1.472-0.432l0.023,0.472
		c-0.887,0.272-1.311,0.393-2.542,0.688c-0.208,0.049-0.264,0.064-0.376,0.112l-0.128-0.535c0.248-0.024,0.504-0.064,1.056-0.192
		v-5.309c0-0.305-0.008-0.561-0.032-0.832c0.208,0.024,0.424,0.032,0.783,0.032h2.071c0.392,0,0.607-0.008,0.768-0.04
		c-0.016,0.208-0.024,0.367-0.024,0.879v1.655c0,0.488,0.009,0.616,0.024,0.832c-0.24-0.017-0.464-0.024-0.76-0.024h-1.071
		c0.151,0.6,0.24,0.824,0.472,1.239c0.6-0.392,1.184-0.863,1.375-1.127l0.384,0.368c-0.04,0.039-0.048,0.039-0.104,0.088
		c-0.368,0.312-0.863,0.671-1.415,1.047c0.455,0.616,0.967,1.023,1.799,1.439c-0.16,0.151-0.216,0.231-0.344,0.447
		c-0.888-0.527-1.399-0.983-1.863-1.654c-0.384-0.552-0.567-0.992-0.783-1.848H76.993z M76.985,110.768h2.606v-0.983h-2.606V110.768
		z M76.985,112.215h2.606v-1.008h-2.606V112.215z"/>
	<path d="M84.242,109.225c-0.057,0.152-0.064,0.184-0.128,0.512c-0.057,0.271-0.104,0.464-0.216,0.871
		c0.56-0.048,1.063-0.144,1.431-0.264l0.024,0.552c-0.088,0.017-0.088,0.017-0.28,0.048c-0.327,0.072-0.823,0.137-1.312,0.168
		c-0.247,0.855-0.535,1.6-0.887,2.335c-0.192,0.384-0.265,0.52-0.568,1.048c-0.071,0.111-0.119,0.207-0.159,0.271l-0.544-0.32
		c0.256-0.319,0.472-0.671,0.768-1.247c0.367-0.728,0.6-1.303,0.831-2.063c-0.199,0.008-0.472,0.016-0.592,0.016
		c-0.136,0-0.407-0.008-0.527-0.008c-0.088-0.008-0.151-0.008-0.176-0.008c-0.016,0-0.056,0-0.104,0l0.009-0.552
		c0.271,0.048,0.512,0.063,0.951,0.063c0.16,0,0.424-0.008,0.575-0.008c0.129-0.456,0.256-1.135,0.272-1.503L84.242,109.225z
		 M88.04,115.43c-0.313-0.385-0.815-0.784-1.399-1.088c0.016,0.128,0.016,0.176,0.016,0.256c0,0.823-0.543,1.279-1.519,1.279
		c-0.96,0-1.56-0.447-1.56-1.159c0-0.432,0.296-0.832,0.744-1.016c0.279-0.12,0.583-0.176,0.943-0.176
		c0.296,0,0.495,0.032,0.808,0.12c-0.04-0.52-0.057-0.896-0.057-1.096c0-0.288,0.017-0.479,0.08-0.775l0.544,0.056
		c-0.08,0.296-0.104,0.464-0.104,0.744c0,0.359,0.039,0.911,0.088,1.215c0.64,0.28,1.135,0.584,1.566,0.968
		c0.088,0.088,0.088,0.088,0.145,0.128L88.04,115.43z M85.225,113.998c-0.68,0-1.111,0.279-1.111,0.72
		c0,0.407,0.384,0.655,1.015,0.655c0.688,0,1-0.271,1-0.871c0-0.096-0.016-0.344-0.016-0.344
		C85.777,114.038,85.544,113.998,85.225,113.998z M88.032,111.823c-0.672-0.464-1.279-0.783-2.119-1.088l0.296-0.447
		c0.928,0.368,1.463,0.64,2.11,1.056L88.032,111.823z"/>
	<path d="M91.522,109.385c-0.048,0.271-0.08,0.68-0.104,1.687c-0.031,0.96-0.056,2.047-0.056,2.407c0,0.096,0.008,0.296,0.016,0.479
		c0.032,0.479,0.137,0.743,0.376,0.96c0.225,0.199,0.584,0.312,1,0.312c0.951,0,1.687-0.479,2.143-1.392
		c0.184-0.384,0.279-0.695,0.392-1.255c0.224,0.191,0.32,0.256,0.576,0.384c-0.304,0.936-0.536,1.407-0.888,1.814
		c-0.568,0.672-1.319,1-2.255,1c-0.68,0-1.184-0.192-1.503-0.56c-0.328-0.376-0.44-0.8-0.44-1.64c0-0.535,0.009-0.735,0.072-3.254
		c0.008-0.24,0.008-0.392,0.008-0.52c0-0.168-0.008-0.264-0.032-0.424H91.522z"/>
	<path d="M97.315,116.396c0.479-0.647,0.655-0.959,0.848-1.487c0.24-0.68,0.352-1.407,0.352-2.326c0-0.92-0.111-1.647-0.352-2.327
		c-0.192-0.527-0.368-0.84-0.848-1.487h2.063v7.628H97.315z"/>
</g>
<g>
	<path d="M35.17,58.779c-0.441,0-0.546,0.007-0.771,0.035c0.077-0.554,0.099-0.658,0.203-0.925c0.175-0.441,0.47-0.826,0.91-1.204
		c0.245-0.211,0.26-0.218,1.072-0.771c0.693-0.47,0.924-0.777,0.924-1.205c0-0.532-0.448-0.875-1.162-0.875
		c-0.462,0-0.806,0.153-1.016,0.455c-0.133,0.188-0.196,0.357-0.245,0.707l-0.588-0.098c0.104-0.505,0.21-0.75,0.44-1.009
		c0.315-0.357,0.792-0.539,1.408-0.539c1.058,0,1.737,0.532,1.737,1.358c0,0.357-0.141,0.693-0.414,0.995
		c-0.21,0.237-0.392,0.371-1.19,0.903c-0.553,0.371-0.777,0.567-1.009,0.861c-0.217,0.287-0.314,0.477-0.398,0.813h2.233
		c0.351,0,0.589-0.015,0.854-0.049v0.588c-0.279-0.028-0.511-0.042-0.861-0.042H35.17z"/>
	<path d="M39.769,58.086v0.693h-0.693v-0.693H39.769z"/>
	<path d="M41.449,58.779c-0.441,0-0.546,0.007-0.771,0.035c0.077-0.554,0.099-0.658,0.203-0.925c0.175-0.441,0.47-0.826,0.91-1.204
		c0.245-0.211,0.26-0.218,1.072-0.771c0.693-0.47,0.924-0.777,0.924-1.205c0-0.532-0.448-0.875-1.162-0.875
		c-0.462,0-0.806,0.153-1.016,0.455c-0.133,0.188-0.196,0.357-0.245,0.707l-0.588-0.098c0.104-0.505,0.21-0.75,0.44-1.009
		c0.315-0.357,0.792-0.539,1.408-0.539c1.058,0,1.737,0.532,1.737,1.358c0,0.357-0.141,0.693-0.414,0.995
		c-0.21,0.237-0.392,0.371-1.19,0.903c-0.553,0.371-0.777,0.567-1.009,0.861c-0.217,0.287-0.314,0.477-0.398,0.813h2.233
		c0.351,0,0.589-0.015,0.854-0.049v0.588c-0.279-0.028-0.511-0.042-0.861-0.042H41.449z"/>
	<path d="M45.543,56.026c-0.253-0.245-0.386-0.658-0.386-1.176c0-0.938,0.448-1.492,1.219-1.492c0.764,0,1.212,0.546,1.212,1.492
		c0,0.518-0.133,0.931-0.386,1.176c-0.21,0.203-0.497,0.315-0.826,0.315C46.041,56.342,45.753,56.229,45.543,56.026z M45.627,54.851
		c0,0.686,0.272,1.078,0.749,1.078c0.47,0,0.742-0.393,0.742-1.078c0-0.693-0.266-1.079-0.742-1.079
		C45.893,53.771,45.627,54.164,45.627,54.851z M49.914,53.316l0.294,0.224l-4.244,5.372l-0.294-0.238L49.914,53.316z M48.673,58.555
		c-0.252-0.245-0.385-0.658-0.385-1.169c0-0.945,0.448-1.492,1.219-1.492s1.212,0.547,1.212,1.492c0,0.518-0.134,0.924-0.386,1.169
		c-0.21,0.203-0.497,0.315-0.826,0.315C49.171,58.87,48.884,58.766,48.673,58.555z M48.758,57.386c0,0.679,0.272,1.071,0.749,1.071
		c0.469,0,0.742-0.393,0.742-1.071c0-0.693-0.266-1.079-0.742-1.079C49.024,56.307,48.758,56.692,48.758,57.386z"/>
</g>
<g>
	<path d="M43.829,90.654c-0.014,0.126-0.014,0.126-0.056,0.315c0.336-0.322,0.742-0.483,1.226-0.483
		c0.511,0,0.945,0.168,1.261,0.477c0.315,0.301,0.469,0.714,0.469,1.232c0,1.128-0.735,1.849-1.891,1.849
		c-0.546,0-1.002-0.161-1.338-0.476c-0.175-0.176-0.273-0.322-0.441-0.658l0.574-0.169c0.07,0.196,0.119,0.287,0.225,0.406
		c0.238,0.267,0.588,0.414,0.994,0.414c0.785,0,1.31-0.533,1.31-1.338c0-0.771-0.482-1.275-1.226-1.275
		c-0.356,0-0.665,0.099-0.917,0.295c-0.168,0.133-0.245,0.23-0.322,0.42l-0.525-0.049c0.056-0.273,0.077-0.421,0.105-0.722
		l0.153-1.583c0.015-0.203,0.021-0.287,0.021-0.42c0-0.099,0-0.126-0.014-0.302c0.217,0.028,0.329,0.035,0.742,0.035h1.442
		c0.379,0,0.539-0.014,0.819-0.056v0.596c-0.266-0.042-0.49-0.057-0.819-0.057h-1.646L43.829,90.654z"/>
	<path d="M48.378,93.253v0.693h-0.693v-0.693H48.378z"/>
	<path d="M50.107,90.654c-0.014,0.126-0.014,0.126-0.056,0.315c0.336-0.322,0.742-0.483,1.226-0.483
		c0.512,0,0.945,0.168,1.261,0.477c0.315,0.301,0.469,0.714,0.469,1.232c0,1.128-0.735,1.849-1.891,1.849
		c-0.546,0-1.002-0.161-1.338-0.476c-0.175-0.176-0.273-0.322-0.441-0.658l0.574-0.169c0.07,0.196,0.119,0.287,0.225,0.406
		c0.238,0.267,0.588,0.414,0.994,0.414c0.785,0,1.31-0.533,1.31-1.338c0-0.771-0.482-1.275-1.226-1.275
		c-0.356,0-0.665,0.099-0.917,0.295c-0.168,0.133-0.245,0.23-0.322,0.42l-0.525-0.049c0.056-0.273,0.077-0.421,0.105-0.722
		l0.153-1.583c0.015-0.203,0.021-0.287,0.021-0.42c0-0.099,0-0.126-0.014-0.302c0.217,0.028,0.329,0.035,0.742,0.035H51.9
		c0.379,0,0.539-0.014,0.819-0.056v0.596c-0.266-0.042-0.49-0.057-0.819-0.057h-1.646L50.107,90.654z"/>
	<path d="M54.153,91.193c-0.253-0.245-0.386-0.658-0.386-1.176c0-0.938,0.448-1.492,1.219-1.492c0.764,0,1.212,0.546,1.212,1.492
		c0,0.518-0.133,0.931-0.386,1.176c-0.21,0.203-0.497,0.315-0.826,0.315C54.65,91.509,54.363,91.396,54.153,91.193z M54.237,90.018
		c0,0.686,0.272,1.078,0.749,1.078c0.47,0,0.742-0.393,0.742-1.078c0-0.693-0.266-1.079-0.742-1.079
		C54.502,88.938,54.237,89.331,54.237,90.018z M58.523,88.483l0.294,0.224l-4.244,5.372l-0.294-0.238L58.523,88.483z M57.283,93.722
		c-0.252-0.245-0.385-0.658-0.385-1.169c0-0.945,0.448-1.492,1.219-1.492s1.212,0.547,1.212,1.492c0,0.518-0.134,0.924-0.386,1.169
		c-0.21,0.203-0.497,0.315-0.826,0.315C57.781,94.037,57.494,93.933,57.283,93.722z M57.368,92.553c0,0.679,0.272,1.071,0.749,1.071
		c0.469,0,0.742-0.393,0.742-1.071c0-0.693-0.266-1.079-0.742-1.079C57.633,91.474,57.368,91.859,57.368,92.553z"/>
</g>
<g>
	<path d="M80.114,127.347c-0.441,0-0.546,0.007-0.771,0.035c0.077-0.554,0.099-0.658,0.203-0.925c0.175-0.441,0.47-0.826,0.91-1.204
		c0.245-0.211,0.26-0.218,1.072-0.771c0.693-0.47,0.924-0.777,0.924-1.205c0-0.532-0.448-0.875-1.162-0.875
		c-0.462,0-0.806,0.153-1.016,0.455c-0.133,0.188-0.196,0.357-0.245,0.707l-0.588-0.098c0.104-0.505,0.21-0.75,0.44-1.009
		c0.315-0.357,0.792-0.539,1.408-0.539c1.058,0,1.737,0.532,1.737,1.358c0,0.357-0.141,0.693-0.414,0.995
		c-0.21,0.237-0.392,0.371-1.19,0.903c-0.553,0.371-0.777,0.567-1.009,0.861c-0.217,0.287-0.314,0.477-0.398,0.813h2.233
		c0.351,0,0.589-0.015,0.854-0.049v0.588c-0.279-0.028-0.511-0.042-0.861-0.042H80.114z"/>
	<path d="M84.544,126.954c-0.189-0.188-0.336-0.406-0.42-0.644c-0.176-0.49-0.267-1.044-0.267-1.618
		c0-0.742,0.161-1.499,0.406-1.905c0.336-0.567,0.876-0.861,1.569-0.861c0.518,0,0.966,0.168,1.281,0.497
		c0.196,0.196,0.336,0.413,0.42,0.645c0.176,0.483,0.267,1.044,0.267,1.625c0,0.848-0.183,1.597-0.49,2.024
		c-0.351,0.49-0.841,0.735-1.485,0.735C85.308,127.452,84.874,127.283,84.544,126.954z M84.951,122.767
		c-0.147,0.161-0.259,0.336-0.315,0.511c-0.146,0.428-0.217,0.903-0.217,1.415c0,0.651,0.14,1.338,0.329,1.667
		c0.245,0.406,0.609,0.609,1.086,0.609c0.35,0,0.651-0.112,0.861-0.329c0.153-0.161,0.266-0.344,0.329-0.547
		c0.146-0.434,0.217-0.896,0.217-1.415c0-0.608-0.133-1.302-0.315-1.632c-0.23-0.42-0.609-0.637-1.1-0.637
		C85.461,122.409,85.174,122.528,84.951,122.767z"/>
	<path d="M89.311,126.653v0.693h-0.693v-0.693H89.311z"/>
	<path d="M93.541,124.86c0.35,0.259,0.525,0.63,0.525,1.1c0,0.959-0.701,1.499-1.934,1.499c-1.281,0-1.989-0.532-1.989-1.499
		c0-0.504,0.203-0.89,0.624-1.163c0.217-0.14,0.371-0.195,0.63-0.237c-0.616-0.112-1.016-0.609-1.016-1.261
		c0-0.848,0.665-1.387,1.723-1.387c1.072,0,1.73,0.524,1.73,1.387c0,0.651-0.393,1.142-1.016,1.261
		C93.113,124.602,93.309,124.686,93.541,124.86z M90.717,125.925c0,0.665,0.512,1.058,1.38,1.058c0.49,0,0.89-0.126,1.128-0.364
		c0.175-0.161,0.266-0.406,0.266-0.693c0-0.687-0.524-1.1-1.387-1.1C91.243,124.825,90.717,125.245,90.717,125.925z M90.927,123.341
		c0,0.623,0.449,1.001,1.185,1.001s1.176-0.378,1.176-1.001c0-0.589-0.462-0.96-1.184-0.96
		C91.39,122.381,90.927,122.759,90.927,123.341z"/>
	<path d="M95.085,124.594c-0.253-0.245-0.386-0.658-0.386-1.176c0-0.938,0.448-1.492,1.219-1.492c0.764,0,1.212,0.546,1.212,1.492
		c0,0.518-0.133,0.931-0.386,1.176c-0.21,0.203-0.497,0.315-0.826,0.315C95.583,124.909,95.295,124.797,95.085,124.594z
		 M95.169,123.418c0,0.686,0.272,1.078,0.749,1.078c0.47,0,0.742-0.393,0.742-1.078c0-0.693-0.266-1.079-0.742-1.079
		C95.435,122.339,95.169,122.731,95.169,123.418z M99.456,121.884l0.294,0.224l-4.244,5.372l-0.294-0.238L99.456,121.884z
		 M98.216,127.122c-0.253-0.245-0.386-0.658-0.386-1.169c0-0.945,0.448-1.492,1.219-1.492s1.212,0.547,1.212,1.492
		c0,0.518-0.134,0.924-0.386,1.169c-0.21,0.203-0.497,0.315-0.826,0.315C98.713,127.438,98.426,127.333,98.216,127.122z
		 M98.3,125.953c0,0.679,0.272,1.071,0.749,1.071c0.469,0,0.742-0.393,0.742-1.071c0-0.693-0.266-1.079-0.742-1.079
		C98.566,124.874,98.3,125.26,98.3,125.953z"/>
</g>
<g>
	<path d="M71.719,146.479c-0.441,0-0.546,0.007-0.771,0.035c0.077-0.554,0.099-0.658,0.203-0.925c0.175-0.441,0.47-0.826,0.91-1.204
		c0.245-0.211,0.26-0.218,1.072-0.771c0.693-0.47,0.924-0.777,0.924-1.205c0-0.532-0.448-0.875-1.162-0.875
		c-0.462,0-0.806,0.153-1.016,0.455c-0.133,0.188-0.196,0.357-0.245,0.707l-0.588-0.098c0.104-0.505,0.21-0.75,0.44-1.009
		c0.315-0.357,0.792-0.539,1.408-0.539c1.058,0,1.737,0.532,1.737,1.358c0,0.357-0.141,0.693-0.414,0.995
		c-0.21,0.237-0.392,0.371-1.19,0.903c-0.553,0.371-0.777,0.567-1.009,0.861c-0.217,0.287-0.314,0.477-0.398,0.813h2.233
		c0.351,0,0.589-0.015,0.854-0.049v0.588c-0.279-0.028-0.511-0.042-0.861-0.042H71.719z"/>
	<path d="M76.15,146.087c-0.189-0.188-0.336-0.406-0.42-0.644c-0.176-0.49-0.267-1.044-0.267-1.618c0-0.742,0.161-1.499,0.406-1.905
		c0.336-0.567,0.876-0.861,1.569-0.861c0.518,0,0.966,0.168,1.281,0.497c0.196,0.196,0.336,0.413,0.42,0.645
		c0.176,0.483,0.267,1.044,0.267,1.625c0,0.848-0.183,1.597-0.49,2.024c-0.351,0.49-0.841,0.735-1.485,0.735
		C76.914,146.585,76.479,146.416,76.15,146.087z M76.556,141.899c-0.147,0.161-0.259,0.336-0.315,0.511
		c-0.146,0.428-0.217,0.903-0.217,1.415c0,0.651,0.14,1.338,0.329,1.667c0.245,0.406,0.609,0.609,1.086,0.609
		c0.35,0,0.651-0.112,0.861-0.329c0.153-0.161,0.266-0.344,0.329-0.547c0.146-0.434,0.217-0.896,0.217-1.415
		c0-0.608-0.133-1.302-0.315-1.632c-0.23-0.42-0.609-0.637-1.1-0.637C77.067,141.542,76.78,141.661,76.556,141.899z"/>
</g>
<g>
	<path d="M94.258,145.184c0.112,0.364,0.21,0.512,0.428,0.666c0.238,0.168,0.546,0.252,0.903,0.252c0.813,0,1.323-0.421,1.323-1.086
		c0-0.693-0.497-1.071-1.429-1.071c-0.196,0-0.371,0.014-0.56,0.035v-0.554c0.16,0.028,0.329,0.042,0.518,0.042
		c0.463,0,0.806-0.105,1.022-0.322c0.176-0.168,0.28-0.427,0.28-0.68c0-0.602-0.42-0.952-1.127-0.952
		c-0.428,0-0.736,0.119-0.932,0.371c-0.099,0.126-0.147,0.238-0.225,0.497l-0.581-0.126c0.119-0.356,0.203-0.518,0.378-0.7
		c0.309-0.336,0.784-0.511,1.394-0.511c1.016,0,1.66,0.532,1.66,1.372c0,0.428-0.182,0.806-0.49,1.022
		c-0.182,0.134-0.336,0.189-0.658,0.253c0.406,0.042,0.623,0.118,0.861,0.301c0.309,0.238,0.47,0.609,0.47,1.058
		c0,0.945-0.729,1.534-1.898,1.534c-0.707,0-1.232-0.196-1.568-0.575c-0.147-0.168-0.231-0.321-0.357-0.679L94.258,145.184z"/>
	<path d="M98.969,146.087c-0.189-0.188-0.336-0.406-0.42-0.644c-0.176-0.49-0.267-1.044-0.267-1.618
		c0-0.742,0.161-1.499,0.406-1.905c0.336-0.567,0.876-0.861,1.569-0.861c0.518,0,0.966,0.168,1.281,0.497
		c0.196,0.196,0.336,0.413,0.42,0.645c0.176,0.483,0.267,1.044,0.267,1.625c0,0.848-0.183,1.597-0.49,2.024
		c-0.351,0.49-0.841,0.735-1.485,0.735C99.733,146.585,99.298,146.416,98.969,146.087z M99.375,141.899
		c-0.147,0.161-0.259,0.336-0.315,0.511c-0.146,0.428-0.217,0.903-0.217,1.415c0,0.651,0.14,1.338,0.329,1.667
		c0.245,0.406,0.609,0.609,1.086,0.609c0.35,0,0.651-0.112,0.861-0.329c0.153-0.161,0.266-0.344,0.329-0.547
		c0.146-0.434,0.217-0.896,0.217-1.415c0-0.608-0.133-1.302-0.315-1.632c-0.23-0.42-0.609-0.637-1.1-0.637
		C99.886,141.542,99.599,141.661,99.375,141.899z"/>
</g>
<line fill="none" stroke="#000000" stroke-width="0.5" stroke-miterlimit="10" x1="51.282" y1="139.666" x2="51.282" y2="136.175"/>
<line fill="none" stroke="#000000" stroke-width="0.5" stroke-miterlimit="10" x1="75.134" y1="139.666" x2="75.134" y2="136.175"/>
<line fill="none" stroke="#000000" stroke-width="0.5" stroke-miterlimit="10" x1="98.989" y1="139.666" x2="98.989" y2="136.175"/>
<polyline fill="none" stroke="#000000" stroke-width="0.75" stroke-miterlimit="10" points="27.427,0 27.427,139.666 
	98.989,139.666 "/>
<rect x="27.427" y="14.437" fill="#6699FF" stroke="#000000" stroke-width="0.5" stroke-miterlimit="10" width="2.624" height="14.173"/>
<rect x="27.427" y="49.353" fill="#6699FF" stroke="#000000" stroke-width="0.5" stroke-miterlimit="10" width="5.247" height="14.173"/>
<rect x="27.427" y="84.27" fill="#6699FF" stroke="#000000" stroke-width="0.5" stroke-miterlimit="10" width="13.119" height="14.174"/>
<rect x="27.427" y="117.979" fill="#6699FF" stroke="#000000" stroke-width="0.5" stroke-miterlimit="10" width="49.615" height="14.174"/>
</svg>
