<?xml version="1.0" encoding="utf-8"?>
<!-- Generator: Adobe Illustrator 16.0.0, SVG Export Plug-In . SVG Version: 6.00 Build 0)  -->
<!DOCTYPE svg PUBLIC "-//W3C//DTD SVG 1.1//EN" "http://www.w3.org/Graphics/SVG/1.1/DTD/svg11.dtd">
<svg version="1.1" id="レイヤー_1" xmlns="http://www.w3.org/2000/svg" xmlns:xlink="http://www.w3.org/1999/xlink" x="0px"
	 y="0px" width="102.84px" height="62.964px" viewBox="0 0 102.84 62.964" enable-background="new 0 0 102.84 62.964"
	 xml:space="preserve">
<g>
	<path fill="#AEFFE4" d="M0.001,10.333c0,1.565,1.27,2.834,2.835,2.834H31.42c1.565,0,2.835-1.269,2.835-2.834V2.834
		C34.255,1.269,32.985,0,31.42,0H2.836C1.271,0,0.001,1.269,0.001,2.834V10.333z"/>
</g>
<g>
	<path d="M9.733,36.6c-0.036,0.099-0.036,0.099-0.171,0.478c-0.181,0.54-0.334,0.9-0.631,1.485v4.897
		c0,0.459,0.019,0.766,0.055,1.071H8.311c0.036-0.324,0.054-0.648,0.054-1.099v-2.979c0-0.433,0.01-0.766,0.036-1.099
		c-0.261,0.495-0.414,0.729-0.936,1.387c-0.108-0.198-0.198-0.324-0.379-0.514c1.026-1.053,1.81-2.539,2.017-3.835L9.733,36.6z
		 M11.849,38.986c0.009-0.297,0.009-0.495,0.009-0.837v-0.612h-0.999c-0.333,0-0.64,0.018-0.882,0.054v-0.621
		c0.233,0.036,0.485,0.054,0.936,0.054h3.025c0.396,0,0.63-0.009,0.801-0.035c-0.026,0.207-0.036,0.459-0.036,0.801v1.197h0.126
		c0.379,0,0.496-0.009,0.721-0.054v0.621c-0.216-0.036-0.378-0.045-0.721-0.045h-0.126v1.494c0,0.351,0.019,0.667,0.055,0.927
		h-0.621v-0.414h-1.972c-0.352,1.521-0.919,2.314-2.224,3.088c-0.136-0.207-0.234-0.314-0.433-0.477
		c1.261-0.657,1.801-1.342,2.098-2.611h-0.981c-0.351,0-0.657,0.019-0.882,0.055v-0.621c0.234,0.035,0.513,0.054,0.873,0.054h1.09
		c0.063-0.433,0.107-0.892,0.126-1.494h-1.468c-0.36,0-0.685,0.018-0.928,0.054v-0.63c0.217,0.036,0.531,0.054,0.928,0.054H11.849z
		 M12.389,39.508c-0.026,0.64-0.063,1.071-0.126,1.494h1.882v-1.494H12.389z M14.145,38.986v-1.449h-1.729v0.585
		c0,0.378,0,0.55-0.009,0.864H14.145z"/>
	<path d="M17.221,42.136c-0.117,1.18-0.279,1.774-0.64,2.414c-0.144-0.189-0.252-0.289-0.459-0.415
		c0.234-0.378,0.352-0.685,0.459-1.152c0.153-0.702,0.234-1.882,0.234-3.304c0-0.612-0.009-0.945-0.045-1.27
		c0.225,0.036,0.396,0.045,0.792,0.045h0.648c0.378,0,0.585-0.009,0.747-0.045c-0.027,0.234-0.036,0.45-0.036,0.909v4.411
		c0,0.55-0.171,0.711-0.756,0.711c-0.198,0-0.433-0.018-0.63-0.045c-0.01-0.207-0.036-0.351-0.108-0.558
		c0.315,0.063,0.522,0.09,0.711,0.09c0.216,0,0.279-0.054,0.279-0.271v-1.521H17.221z M18.679,37.014
		c0-0.233-0.018-0.396-0.036-0.567h0.612c-0.026,0.172-0.036,0.315-0.036,0.567v0.099h2.134v-0.099c0-0.225-0.009-0.387-0.036-0.567
		h0.622c-0.027,0.153-0.036,0.315-0.036,0.567v0.099h1.512c0.388,0,0.64-0.018,0.91-0.053v0.594
		c-0.253-0.036-0.559-0.055-0.91-0.055h-1.512c0.009,0.153,0.018,0.244,0.036,0.334h-0.622c0.019-0.1,0.027-0.189,0.036-0.334
		h-2.134c0,0.279,0.01,0.406,0.036,0.576h-0.612c0.027-0.17,0.027-0.314,0.036-0.576h-1.404c-0.36,0-0.648,0.019-0.909,0.055V37.06
		c0.271,0.035,0.522,0.053,0.909,0.053h1.404V37.014z M18.418,41.677v-1.17h-1.107c-0.009,0.486-0.027,0.801-0.054,1.17H18.418z
		 M18.418,40.048v-1.125h-1.099v0.747c0,0.09,0,0.153,0,0.378H18.418z M19.417,39.184c0.207,0.036,0.343,0.045,0.855,0.045
		c-0.18-0.378-0.324-0.612-0.531-0.882l0.433-0.189c0.233,0.36,0.387,0.648,0.566,1.071h0.36c0.117-0.414,0.181-0.783,0.181-1.134
		l0.603,0.026c-0.036,0.144-0.036,0.144-0.153,0.648c-0.026,0.116-0.054,0.207-0.126,0.459h0.766
		c0.261-0.343,0.414-0.621,0.576-1.054l0.486,0.189c-0.216,0.405-0.36,0.639-0.531,0.864h0.288c0.478,0,0.675-0.009,0.882-0.045
		v0.504c-0.233-0.018-0.468-0.026-0.882-0.026h-0.847c0.117,0.306,0.217,0.494,0.379,0.746h0.702c0.477,0,0.657-0.008,0.882-0.045
		v0.523c-0.234-0.019-0.468-0.027-0.882-0.027h-0.379c0.405,0.486,0.847,0.837,1.432,1.143c-0.135,0.135-0.225,0.252-0.342,0.433
		c-0.702-0.45-1.206-0.945-1.639-1.575h-1.629c-0.478,0.729-0.865,1.125-1.567,1.629c-0.116-0.171-0.207-0.27-0.369-0.387
		c0.648-0.405,1-0.721,1.378-1.242h-0.297c-0.478,0-0.666,0.009-0.892,0.045v-0.541c0.226,0.037,0.414,0.045,0.892,0.045h0.585
		c0.153-0.27,0.252-0.477,0.36-0.746H20.3c-0.459,0-0.64,0.009-0.883,0.045V39.184z M21.19,43.199
		c-0.44,0.289-0.801,0.478-1.314,0.712c-0.233,0.099-0.27,0.116-0.404,0.188l-0.288-0.494c0.639-0.154,1.242-0.424,1.845-0.82
		L21.19,43.199z M20.452,41.741c0.298,0.261,0.405,0.378,0.657,0.712L20.75,42.74c-0.207-0.306-0.36-0.486-0.657-0.738
		L20.452,41.741z M21.875,43.73c0,0.621-0.126,0.738-0.766,0.738c-0.162,0-0.314-0.009-0.647-0.045
		c-0.01-0.225-0.036-0.342-0.108-0.549c0.315,0.072,0.559,0.1,0.774,0.1c0.198,0,0.234-0.046,0.234-0.271v-1.882
		c0-0.216-0.01-0.396-0.046-0.594h0.604c-0.036,0.188-0.045,0.359-0.045,0.585V43.73z M21.452,39.662
		c-0.1,0.252-0.189,0.477-0.333,0.746h1.098c-0.144-0.26-0.252-0.485-0.351-0.746H21.452z M22.406,42.812
		c0.648,0.495,0.981,0.676,1.656,0.937c-0.135,0.135-0.234,0.271-0.333,0.44c-0.657-0.314-0.909-0.468-1.647-1.035L22.406,42.812z
		 M23.198,41.948c-0.216,0.298-0.468,0.576-0.702,0.802l-0.342-0.297c0.279-0.234,0.414-0.406,0.648-0.783L23.198,41.948z"/>
	<path d="M27.013,43.523c0,0.433,0.019,0.757,0.045,1.063h-0.684c0.036-0.314,0.054-0.621,0.054-1.08v-2.988
		c0-0.424,0.009-0.658,0.027-1.09c-0.262,0.504-0.495,0.846-0.937,1.387c-0.171-0.297-0.243-0.388-0.396-0.496
		c0.712-0.792,1.216-1.575,1.611-2.512c0.226-0.521,0.405-1.089,0.469-1.494l0.647,0.198c-0.116,0.288-0.116,0.288-0.314,0.837
		c-0.1,0.279-0.288,0.738-0.522,1.261V43.523z M33.359,43.749c-0.278-0.036-0.566-0.054-0.963-0.054h-3.809
		c-0.378,0-0.684,0.018-0.98,0.054v-0.685c0.27,0.036,0.576,0.055,0.963,0.055h3.826c0.36,0,0.702-0.019,0.963-0.055V43.749z
		 M28.066,37.708c0.261,0.036,0.549,0.054,0.936,0.054h2.927c0.369,0,0.666-0.018,0.936-0.054v0.675
		c-0.252-0.035-0.585-0.054-0.936-0.054h-2.927c-0.387,0-0.656,0.019-0.936,0.054V37.708z"/>
	<path d="M35.338,37.626c-0.352,0-0.612,0.01-0.892,0.045v-0.594c0.271,0.035,0.522,0.054,0.928,0.054h2.602
		c0-0.405-0.009-0.54-0.054-0.747h0.692c-0.036,0.216-0.045,0.324-0.054,0.747h2.827c0.405,0,0.657-0.019,0.927-0.054v0.594
		c-0.288-0.035-0.54-0.045-0.9-0.045h-0.882c-0.522,0.567-0.892,0.864-1.558,1.242c0.595,0.226,1.063,0.36,1.818,0.504
		c0.793,0.153,1.27,0.226,1.837,0.271c-0.145,0.216-0.189,0.298-0.279,0.55c-0.747-0.117-0.801-0.127-1.197-0.199v3.593
		c0,0.36,0.019,0.64,0.063,0.937h-0.693c0.045-0.279,0.063-0.559,0.063-0.892v-3.754c-0.846-0.181-1.467-0.378-2.215-0.702
		c-0.675,0.306-1.323,0.513-2.25,0.702c-0.027,1.359-0.081,1.972-0.234,2.638c-0.108,0.459-0.279,0.9-0.504,1.27
		c-0.189,0.306-0.342,0.495-0.702,0.837c-0.171-0.207-0.297-0.315-0.486-0.423c0.693-0.567,1.008-1.107,1.197-2.008
		c0.117-0.576,0.145-1.035,0.162-2.205c-0.414,0.071-0.657,0.116-1.197,0.188c-0.09-0.252-0.135-0.351-0.252-0.55
		c1.432-0.107,2.7-0.359,3.682-0.738c-0.612-0.332-1.071-0.701-1.575-1.26H35.338z M37.408,42.208
		c-0.144,0.469-0.243,0.685-0.441,1.054c-0.188,0.333-0.297,0.478-0.585,0.783c-0.144-0.117-0.252-0.188-0.468-0.278
		c0.297-0.262,0.405-0.388,0.576-0.676c0.216-0.342,0.306-0.567,0.45-1.035L37.408,42.208z M36.913,41.732
		c-0.279,0-0.45,0.009-0.648,0.035v-0.549c0.181,0.036,0.343,0.045,0.648,0.045h2.836c0.297,0,0.441-0.009,0.639-0.035v0.539
		c-0.188-0.026-0.359-0.035-0.639-0.035h-1.216v2.08c0,0.459-0.152,0.603-0.666,0.603c-0.188,0-0.432-0.009-0.702-0.026
		c-0.026-0.262-0.054-0.352-0.135-0.541c0.297,0.045,0.558,0.072,0.72,0.072c0.226,0,0.262-0.027,0.262-0.198v-1.989H36.913z
		 M36.544,40.111c0.189,0.037,0.342,0.045,0.648,0.045h2.26c0.314,0,0.45-0.008,0.639-0.035v0.521
		c-0.188-0.027-0.36-0.035-0.639-0.035h-2.26c-0.297,0-0.433,0.008-0.648,0.035V40.111z M36.886,37.626
		c0.405,0.396,0.802,0.657,1.513,0.99c0.657-0.324,0.99-0.559,1.459-0.99H36.886z M39.362,42.065c0.351,0.567,0.53,0.927,0.854,1.8
		L39.73,44.09c-0.242-0.828-0.404-1.216-0.792-1.872L39.362,42.065z"/>
</g>
<g>
	<path d="M11.186,57.122c-0.1,0.09-0.1,0.09-0.405,0.378c-0.171,0.162-0.352,0.307-0.64,0.531c0.441,0.838,0.621,1.692,0.621,2.962
		c0,0.765-0.081,1.269-0.261,1.513c-0.135,0.197-0.387,0.297-0.774,0.297c-0.27,0-0.621-0.027-0.99-0.063
		c-0.009-0.262-0.045-0.406-0.117-0.604c0.424,0.107,0.757,0.152,1.081,0.152c0.216,0,0.333-0.054,0.387-0.188
		c0.09-0.198,0.135-0.595,0.135-1.144c0-0.405-0.026-0.793-0.071-1.135c-0.541,0.613-1.071,1.035-1.81,1.459
		c-0.1-0.217-0.172-0.315-0.334-0.477c0.865-0.406,1.333-0.766,2.035-1.549c-0.09-0.36-0.189-0.621-0.333-0.928
		c-0.433,0.279-0.721,0.441-1.278,0.711c-0.108-0.197-0.171-0.279-0.352-0.441c0.576-0.225,0.873-0.377,1.378-0.701
		c-0.315-0.451-0.495-0.64-0.828-0.828l0.45-0.369c0.449,0.441,0.576,0.594,0.801,0.9c0.405-0.307,0.585-0.496,0.828-0.828
		L11.186,57.122z M10.474,55.302c0-0.207-0.009-0.324-0.035-0.521h0.621c-0.027,0.189-0.036,0.288-0.036,0.531v0.216h2.053v-0.216
		c0-0.217-0.01-0.342-0.036-0.531h0.612c-0.027,0.171-0.036,0.297-0.036,0.531v0.216h1.521c0.405,0,0.666-0.019,0.918-0.054v0.604
		c-0.252-0.037-0.522-0.055-0.9-0.055h-1.539v0.063c0,0.234,0.009,0.343,0.036,0.514H13.04c0.026-0.171,0.036-0.307,0.036-0.514
		v-0.063h-2.053v0.09c0,0.234,0.009,0.342,0.036,0.514h-0.621c0.026-0.189,0.035-0.307,0.035-0.504v-0.1H9.043
		c-0.379,0-0.64,0.018-0.909,0.055v-0.604c0.252,0.035,0.521,0.054,0.927,0.054h1.413V55.302z M13.76,56.878
		c-0.036,0.243-0.045,0.352-0.045,0.721c0,0.953,0.072,1.477,0.324,2.169c0.387,1.126,1.09,1.963,2.125,2.548
		c-0.171,0.189-0.288,0.342-0.388,0.521c-0.594-0.404-1.044-0.836-1.432-1.377c-0.449-0.63-0.684-1.188-0.854-1.989
		c-0.162,0.927-0.405,1.558-0.838,2.116c-0.387,0.521-0.81,0.873-1.494,1.242c-0.099-0.199-0.171-0.307-0.369-0.504
		c0.828-0.379,1.306-0.784,1.684-1.424c0.252-0.422,0.433-0.945,0.549-1.539c0.1-0.531,0.126-0.918,0.126-1.746
		c0-0.379-0.009-0.477-0.045-0.738H13.76z M11.113,59.714c0.387-0.594,0.54-1.026,0.693-1.891l0.513,0.145
		c-0.198,0.891-0.342,1.305-0.684,1.98L11.113,59.714z M15.912,58.013c-0.379,0.783-0.612,1.179-1.117,1.818
		c-0.18-0.135-0.297-0.207-0.468-0.289c0.514-0.603,0.756-1.008,1.071-1.809L15.912,58.013z"/>
	<path d="M18.771,57.211c-0.387,0.792-0.729,1.333-1.233,1.927c-0.18-0.18-0.288-0.262-0.513-0.379
		c0.72-0.773,1.233-1.646,1.611-2.764c0.135-0.387,0.189-0.594,0.198-0.846l0.675,0.18c-0.063,0.127-0.107,0.262-0.18,0.478
		c-0.027,0.081-0.135,0.378-0.324,0.873h1.891v-0.954c0-0.36-0.018-0.621-0.063-0.955h0.729c-0.045,0.298-0.063,0.576-0.063,0.955
		v0.954h2.214c0.405,0,0.721-0.019,1.026-0.054v0.639c-0.333-0.035-0.621-0.054-1.017-0.054H21.5v1.936h1.818
		c0.45,0,0.729-0.019,0.963-0.054v0.63c-0.261-0.036-0.54-0.054-0.963-0.054H21.5v2.358h2.512c0.459,0,0.756-0.019,1.062-0.063
		v0.658c-0.342-0.045-0.611-0.063-1.053-0.063h-5.789c-0.432,0-0.738,0.019-1.063,0.063v-0.658c0.315,0.045,0.604,0.063,1.054,0.063
		h2.674v-2.358h-1.647c-0.414,0-0.702,0.018-0.954,0.054v-0.63c0.243,0.035,0.504,0.054,0.954,0.054h1.647v-1.936H18.771z"/>
	<path d="M27.114,62.937c0.036-0.279,0.055-0.594,0.055-1.026v-1.972c0-0.359,0.009-0.611,0.026-1.008
		c-0.306,0.378-0.576,0.63-1.071,0.999c-0.09-0.233-0.126-0.288-0.314-0.522c0.981-0.611,1.881-1.656,2.215-2.557l0.513,0.342
		c-0.027,0.045-0.027,0.055-0.063,0.1c-0.026,0.045-0.026,0.045-0.18,0.288c-0.171,0.261-0.387,0.567-0.576,0.792v3.538
		c0,0.36,0.018,0.667,0.063,1.026H27.114z M28.537,55.05c-0.072,0.072-0.126,0.136-0.279,0.334c-0.549,0.701-1.071,1.18-1.936,1.764
		c-0.107-0.207-0.144-0.242-0.369-0.449c0.937-0.541,1.747-1.324,2.098-2.018L28.537,55.05z M33.435,62.046
		c0.45,0,0.639-0.01,0.828-0.045v0.621c-0.243-0.037-0.54-0.055-0.927-0.055h-4.34c-0.441,0-0.685,0.018-0.909,0.055v-0.621
		c0.198,0.035,0.423,0.045,0.847,0.045h0.197v-6.059c0-0.379-0.009-0.604-0.035-0.919c0.261,0.019,0.504,0.026,0.909,0.026h2.35
		c0.486,0,0.765-0.008,0.99-0.035c-0.019,0.279-0.027,0.477-0.027,1.025v5.961H33.435z M32.741,57.329v-1.72h-3.034v1.72H32.741z
		 M32.741,59.57v-1.746h-3.034v1.746H32.741z M32.741,60.074h-3.034v1.973h3.034V60.074z"/>
	<path d="M35.943,62.937c0.036-0.261,0.055-0.621,0.055-1.045v-1.971c0-0.189,0.018-0.783,0.035-1.107
		c-0.306,0.414-0.504,0.621-0.909,0.945c-0.117-0.252-0.144-0.297-0.314-0.495c0.666-0.478,1.27-1.126,1.729-1.854
		c0.162-0.243,0.261-0.432,0.324-0.612l0.521,0.306c-0.072,0.1-0.099,0.135-0.243,0.36c-0.18,0.288-0.261,0.396-0.585,0.819v3.602
		c0,0.477,0.019,0.801,0.054,1.053H35.943z M37.384,55.078c-0.09,0.081-0.09,0.081-0.405,0.459
		c-0.432,0.514-1.026,1.045-1.701,1.521c-0.117-0.216-0.153-0.27-0.36-0.468c0.892-0.55,1.639-1.27,1.945-1.872L37.384,55.078z
		 M38.141,56.402c-0.379,0-0.64,0.018-0.909,0.053v-0.621c0.233,0.037,0.495,0.055,0.891,0.055h1.594v-0.352
		c0-0.297-0.019-0.531-0.054-0.766h0.647c-0.036,0.199-0.054,0.46-0.054,0.766v0.352h1.908c0.424,0,0.648-0.01,0.892-0.055v0.621
		c-0.27-0.035-0.513-0.053-0.909-0.053h-1.891v2.512c0.423,0.692,0.811,1.134,1.458,1.674c0.541,0.45,0.991,0.738,1.657,1.053
		c-0.171,0.189-0.252,0.307-0.369,0.55c-0.657-0.369-1.054-0.64-1.54-1.081c-0.566-0.504-0.882-0.873-1.242-1.457
		c0.027,0.422,0.036,0.584,0.036,0.801v1.557c0,0.406,0.009,0.703,0.045,0.928h-0.639c0.035-0.252,0.054-0.566,0.054-0.928V60.47
		c0-0.234,0.009-0.432,0.027-0.801c-0.595,1.008-1.378,1.764-2.575,2.512c-0.135-0.217-0.225-0.324-0.405-0.478
		c0.621-0.315,1.125-0.666,1.684-1.188c0.559-0.521,0.909-0.963,1.27-1.594v-2.52H38.141z M38.734,56.923
		c-0.045,0.09-0.045,0.09-0.18,0.576c-0.036,0.107-0.045,0.162-0.091,0.27c0.279,0.433,0.559,0.73,0.981,1.054
		c-0.126,0.144-0.243,0.298-0.314,0.441c-0.388-0.369-0.621-0.64-0.847-1.009c-0.261,0.595-0.468,0.937-0.882,1.441
		c-0.136-0.154-0.217-0.217-0.45-0.352c0.387-0.396,0.576-0.676,0.801-1.152c0.262-0.531,0.405-1.045,0.414-1.414L38.734,56.923z
		 M42.074,56.896c-0.054,0.108-0.054,0.108-0.171,0.541c-0.027,0.071-0.036,0.117-0.063,0.207c0.404,0.675,0.737,1.025,1.386,1.467
		c-0.135,0.135-0.207,0.243-0.333,0.486c-0.594-0.495-0.927-0.883-1.242-1.432c-0.18,0.441-0.333,0.711-0.648,1.162
		c-0.153-0.162-0.252-0.252-0.423-0.343c0.378-0.468,0.648-0.99,0.819-1.611c0.063-0.233,0.099-0.433,0.099-0.621L42.074,56.896z"/>
</g>
<g>
	<path d="M72.212,57.31c0.342,1.117,0.647,1.766,1.17,2.566c0.342,0.504,0.756,0.963,1.297,1.422
		c0.468,0.405,0.765,0.612,1.422,0.981c-0.171,0.207-0.234,0.315-0.378,0.595c-1.378-0.918-2.125-1.639-2.8-2.684
		c-0.469-0.738-0.747-1.341-1.045-2.277c-0.216,0.945-0.504,1.666-0.944,2.359c-0.657,1.025-1.387,1.701-2.755,2.529
		c-0.117-0.234-0.189-0.352-0.379-0.541c2.143-1.125,3.241-2.637,3.602-4.951h-2.439c-0.486,0-0.721,0.019-0.99,0.063v-0.675
		c0.233,0.045,0.521,0.063,1.017,0.063h2.476c0.036-0.378,0.046-0.631,0.046-0.973c0-0.414-0.019-0.729-0.063-0.98h0.721
		c-0.046,0.306-0.055,0.486-0.063,0.936c0,0.387-0.018,0.612-0.045,1.018h2.772c0.459,0,0.757-0.018,0.99-0.063v0.675
		c-0.278-0.045-0.54-0.063-0.981-0.063H72.212z M72.311,62.352c-0.495-0.765-0.766-1.107-1.351-1.72l0.469-0.307
		c0.53,0.523,0.909,0.973,1.386,1.657L72.311,62.352z"/>
	<path d="M77.907,59.66c-0.359,0-0.63,0.019-0.927,0.055v-0.604c0.297,0.036,0.558,0.055,0.937,0.055h3.654
		c0.298-0.424,0.514-0.865,0.721-1.449l0.567,0.17c-0.405,0.802-0.486,0.945-0.702,1.279h1.854c0.359,0,0.603-0.019,0.882-0.055
		v0.604c-0.288-0.036-0.531-0.055-0.882-0.055h-2.863v1.054h2.277c0.441,0,0.738-0.019,0.945-0.045v0.603
		c-0.225-0.035-0.549-0.053-0.936-0.053h-2.287v0.801c0,0.404,0.019,0.702,0.054,0.945H80.51c0.035-0.225,0.054-0.549,0.054-0.945
		v-0.801h-2.197c-0.378,0-0.647,0.018-0.936,0.053v-0.603c0.252,0.036,0.495,0.045,0.936,0.045h2.197V59.66H77.907z M80.563,55.375
		c0-0.279-0.009-0.423-0.063-0.63h0.712c-0.045,0.198-0.063,0.351-0.063,0.621v0.207h2.646c0.343,0,0.576-0.009,0.909-0.045
		c-0.026,0.181-0.035,0.343-0.035,0.621v0.585c0,0.289,0.009,0.441,0.035,0.621H84.11v-1.27h-6.374v1.27h-0.594
		c0.026-0.197,0.036-0.351,0.036-0.621v-0.585c0-0.252-0.01-0.423-0.036-0.621c0.324,0.036,0.567,0.045,0.909,0.045h2.512V55.375z
		 M80.581,56.906c0-0.244-0.009-0.414-0.045-0.586h0.657c-0.036,0.18-0.045,0.324-0.045,0.586v0.225h1.944
		c0.414,0,0.648-0.009,0.864-0.045v0.576c-0.207-0.036-0.459-0.045-0.864-0.045h-4.267c-0.424,0-0.657,0.009-0.883,0.045v-0.576
		c0.207,0.036,0.469,0.045,0.873,0.045h1.765V56.906z M79.42,57.707c0.252,0.396,0.36,0.594,0.585,1.135l-0.477,0.188
		c-0.189-0.478-0.369-0.837-0.576-1.152L79.42,57.707z"/>
	<path d="M87.592,59.777c-0.495,0.469-0.864,0.766-1.504,1.18c-0.144-0.225-0.216-0.307-0.396-0.459
		c0.666-0.36,1.018-0.604,1.53-1.063c0.369-0.333,0.621-0.604,0.864-0.918h-1.135c-0.414,0-0.702,0.018-1.008,0.054v-0.595
		c0.234,0.037,0.513,0.055,1.008,0.055h1.459c0.18-0.307,0.297-0.522,0.441-0.846h-1.117c-0.495,0-0.684,0.008-0.899,0.035v-0.549
		c0.207,0.027,0.396,0.035,0.899,0.035h1.314c0.108-0.278,0.145-0.414,0.226-0.711H87.43c-0.423,0-0.693,0.01-0.963,0.045v-0.584
		c0.233,0.035,0.53,0.053,0.98,0.053h1.936c0.063-0.351,0.091-0.566,0.091-0.746c0-0.027,0-0.063,0-0.108l0.63,0.063
		c-0.027,0.107-0.045,0.18-0.099,0.468c-0.027,0.126-0.027,0.135-0.063,0.323h2.439c0.469,0,0.747-0.018,0.99-0.053v0.584
		c-0.27-0.035-0.54-0.045-0.972-0.045h-2.575c-0.063,0.234-0.117,0.433-0.216,0.711h2.467c0.54,0,0.72-0.008,0.937-0.035v0.549
		c-0.226-0.027-0.405-0.035-0.937-0.035h-1.297c0.217,0.44,0.279,0.558,0.478,0.846h1.647c0.468,0,0.747-0.018,0.981-0.055v0.595
		c-0.307-0.036-0.595-0.054-0.981-0.054h-1.278c0.685,0.811,1.449,1.387,2.529,1.926c-0.216,0.234-0.225,0.252-0.369,0.505
		c-0.72-0.441-1.106-0.729-1.629-1.198v2.17c0,0.514,0.009,0.738,0.054,0.964h-0.612v-0.378h-3.457v0.404h-0.603
		c0.045-0.233,0.054-0.459,0.054-0.945V59.777z M91.697,59.309c-0.298-0.298-0.459-0.486-0.685-0.792H88.69
		c-0.226,0.314-0.379,0.504-0.64,0.792H91.697z M88.141,60.615h3.457v-0.838h-3.457V60.615z M88.141,62.028h3.457v-0.954h-3.457
		V62.028z M90.68,58.031c-0.162-0.27-0.234-0.414-0.441-0.846h-0.819c-0.144,0.332-0.243,0.531-0.423,0.846H90.68z"/>
	<path d="M96.385,57.698c0.846-1.116,1.494-2.224,1.701-2.917l0.657,0.243c-0.026,0.054-0.026,0.054-0.099,0.188
		c-0.514,0.937-1.045,1.766-1.575,2.467c2.403-0.072,2.602-0.08,4.123-0.225c-0.612-0.666-0.811-0.855-1.477-1.387l0.495-0.314
		c1.044,0.918,1.611,1.503,2.629,2.709l-0.505,0.396c-0.351-0.477-0.468-0.621-0.737-0.945c-1.233,0.135-1.657,0.171-3.188,0.262
		c-0.882,0.053-1.341,0.071-2.053,0.09c-0.216,0.009-0.468,0.018-0.747,0.027c-0.126,0-0.144,0.008-0.423,0.035l-0.126-0.666
		c0.207,0.027,0.44,0.045,0.693,0.045l0.216-0.009H96.385z M96.024,62.865c0.036-0.297,0.054-0.558,0.054-0.837v-2.151
		c0-0.262-0.018-0.486-0.045-0.721c0.198,0.027,0.388,0.036,0.712,0.036h4.348c0.324,0,0.505-0.009,0.712-0.036
		c-0.036,0.234-0.046,0.424-0.046,0.721v2.151c0,0.306,0.019,0.567,0.055,0.837h-0.631v-0.549h-4.537v0.549H96.024z M96.646,61.785
		h4.537v-2.062h-4.537V61.785z"/>
</g>
<g>
	<path d="M6.072,2.897c0-0.43-0.011-0.64-0.061-0.87h0.81c-0.05,0.25-0.069,0.48-0.069,0.87v1.08H9.84c0.439,0,0.76-0.02,1.039-0.06
		v0.719c-0.34-0.03-0.659-0.05-1.039-0.05H6.752v2.089H8.99c0.34,0,0.52-0.01,0.739-0.04c-0.04,0.25-0.05,0.48-0.05,0.81v2.688
		c0,0.34,0.021,0.66,0.061,0.919H9.011v-0.62H4.023v0.62h-0.73c0.04-0.3,0.061-0.6,0.061-0.919V7.445c0-0.31-0.021-0.56-0.05-0.81
		c0.22,0.03,0.399,0.04,0.739,0.04h2.029V4.586H3.224c-0.47,0-0.74,0.01-1.05,0.05V3.917c0.28,0.04,0.61,0.06,1.05,0.06h2.849V2.897
		z M4.023,9.844h4.987V7.275H4.023V9.844z"/>
	<path d="M16.871,10.293c0,0.62-0.189,0.739-1.119,0.739c-0.279,0-0.8-0.02-1.149-0.06c-0.069-0.29-0.109-0.42-0.21-0.64
		c0.51,0.07,0.979,0.11,1.31,0.11c0.46,0,0.529-0.03,0.529-0.24V8.194h-2.998c-0.439,0-0.75,0.02-1.05,0.06V7.565
		c0.29,0.04,0.61,0.06,1.04,0.06h3.008v-0.17c0-0.2-0.01-0.38-0.029-0.59h0.42c0.689-0.33,1.259-0.689,1.788-1.129h-3.657
		c-0.34,0-0.68,0.02-0.95,0.05V5.136c0.28,0.03,0.601,0.05,0.97,0.05h3.608c0.369,0,0.569-0.01,0.739-0.04l0.38,0.4
		c-0.13,0.1-0.13,0.1-0.35,0.29c-0.67,0.56-1.289,0.969-2.279,1.479v0.31h2.969c0.45,0,0.77-0.02,1.05-0.06v0.689
		c-0.28-0.04-0.62-0.06-1.06-0.06h-2.959V10.293z M14.173,3.687c-0.29-0.51-0.47-0.76-0.939-1.299l0.6-0.19
		c0.46,0.57,0.67,0.87,1.02,1.479h1.459c-0.189-0.529-0.38-0.919-0.729-1.439l0.62-0.17c0.38,0.66,0.539,1,0.76,1.609h1.099
		c0.47-0.54,0.74-0.969,1.029-1.609l0.63,0.27c-0.42,0.669-0.63,0.959-0.959,1.339h0.779c0.58,0,0.8-0.01,1.149-0.04
		c-0.03,0.26-0.04,0.459-0.04,0.829v0.74c0,0.23,0.02,0.47,0.05,0.7H20.04V4.227h-7.057v1.679h-0.659c0.029-0.23,0.05-0.45,0.05-0.7
		v-0.74c0-0.37-0.01-0.569-0.04-0.829c0.37,0.04,0.59,0.05,1.14,0.05H14.173z"/>
	<path d="M23.883,7.875c-0.279,0.91-0.52,1.54-0.819,2.139c-0.02,0.06-0.189,0.379-0.5,0.969l-0.569-0.52
		c0.41-0.38,0.949-1.539,1.379-2.979L23.883,7.875z M22.384,4.736c0.67,0.41,1.05,0.69,1.659,1.219l-0.38,0.53
		c-0.67-0.64-0.97-0.87-1.639-1.279L22.384,4.736z M22.813,2.278c0.64,0.439,1.05,0.79,1.55,1.319l-0.41,0.49
		c-0.58-0.65-0.899-0.93-1.549-1.359L22.813,2.278z M30.689,4.316c-0.08,0.03-0.11,0.03-0.22,0.08c-0.54,0.21-0.93,0.33-1.55,0.48
		C29,5.836,29.04,6.116,29.19,6.805c0.51-0.26,0.969-0.589,1.439-1.02l0.399,0.47c-0.71,0.53-1.13,0.8-1.699,1.109
		c0.43,1.469,0.909,2.319,1.789,3.179c-0.229,0.209-0.29,0.3-0.47,0.58c-0.81-0.91-1.26-1.709-1.669-2.929
		c-0.22-0.689-0.42-1.539-0.53-2.289c-0.01-0.14-0.01-0.14-0.1-0.91c-0.41,0.08-0.58,0.11-0.959,0.16v4.867
		c0,0.45,0.02,0.77,0.06,1.06h-0.75c0.04-0.32,0.061-0.64,0.061-1.069V5.226c-0.34,0.04-0.34,0.04-1.17,0.1
		c-0.06,2.809-0.419,4.467-1.249,5.777c-0.17-0.2-0.279-0.3-0.54-0.45c0.41-0.56,0.65-1.149,0.85-2.089
		c0.23-1.109,0.33-2.319,0.33-4.138c0-0.55-0.01-0.959-0.04-1.319c0.11,0.01,0.17,0.01,0.23,0.01c0.719,0,2.259-0.23,3.237-0.49
		c0.64-0.16,1.12-0.34,1.46-0.55l0.539,0.53c-0.26,0.1-0.26,0.1-0.369,0.14c-1.31,0.49-2.608,0.76-4.448,0.919v1.12
		c1.63-0.1,2.549-0.24,3.568-0.54c0.51-0.15,0.83-0.28,1.06-0.439L30.689,4.316z"/>
</g>
<g>
	<path d="M11.681,19.033c0-0.342-0.019-0.567-0.063-0.837h0.747c-0.045,0.261-0.063,0.486-0.063,0.837v5.789h2.655v-4.114
		c0-0.378-0.018-0.576-0.054-0.837h0.711c-0.036,0.306-0.054,0.549-0.054,0.846v4.483c0,0.36,0.018,0.63,0.063,0.955h-0.667v-0.756
		H9.205v0.756H8.538c0.045-0.378,0.063-0.585,0.063-0.91v-4.492c0-0.342-0.019-0.621-0.063-0.882H9.25
		c-0.036,0.252-0.045,0.504-0.045,0.874v4.078h2.476V19.033z"/>
	<path d="M23.886,20.185c0.297,0,0.459-0.009,0.666-0.036c-0.027,0.216-0.036,0.369-0.036,0.63v0.91c0,0.252,0.009,0.441,0.036,0.63
		c-0.207-0.027-0.405-0.036-0.711-0.036h-5.663c-0.099,2.017-0.288,2.89-0.855,3.943c-0.171-0.216-0.216-0.261-0.459-0.432
		c0.36-0.612,0.504-1.053,0.621-1.891c0.126-0.873,0.171-2.017,0.171-4.114c0-0.477-0.009-0.684-0.036-1.035
		c0.279,0.036,0.522,0.045,1,0.045h2.358v-0.117c0-0.288-0.018-0.441-0.054-0.603h0.675c-0.045,0.162-0.054,0.306-0.054,0.612v0.108
		h2.593c0.378,0,0.675-0.018,0.927-0.054v0.594c-0.233-0.036-0.44-0.045-0.891-0.045H22.4v0.892H23.886z M20.681,23.39
		c0.351,0,0.54-0.009,0.747-0.045v0.576c-0.198-0.036-0.396-0.045-0.747-0.045h-1.063v1.414c0.72-0.162,0.99-0.234,1.782-0.486
		v0.495c-1.107,0.36-1.494,0.459-2.7,0.729c-0.153,0.027-0.288,0.063-0.505,0.126l-0.162-0.612c0.334-0.009,0.55-0.045,1.036-0.135
		v-2.133c0-0.352-0.01-0.531-0.045-0.711h0.639c-0.036,0.198-0.045,0.405-0.045,0.711v0.117H20.681z M19.843,20.671h-1.629
		l-0.027,1.134h1.656V20.671z M19.843,19.293h-1.62v0.892h1.62V19.293z M21.878,19.293h-1.513v0.892h1.513V19.293z M21.878,21.805
		v-1.134h-1.513v1.134H21.878z M22.463,23.687c0.973-0.279,1.818-0.639,2.125-0.909l0.405,0.45
		c-0.298,0.135-0.298,0.135-0.415,0.198c-0.513,0.252-1.251,0.513-2.115,0.756v1.044c0,0.252,0.108,0.279,1.018,0.279
		c0.999,0,1.026-0.027,1.107-1.08c0.27,0.144,0.297,0.162,0.54,0.234C24.966,25.875,24.804,26,23.426,26
		c-0.513,0-0.828-0.018-1.071-0.072c-0.333-0.063-0.44-0.198-0.44-0.531v-2.134c0-0.306-0.019-0.504-0.045-0.702h0.639
		c-0.036,0.198-0.045,0.378-0.045,0.711V23.687z M23.993,21.805v-1.134H22.4v1.134H23.993z"/>
	<path d="M26.232,23.633c0.198,0.027,0.432,0.045,0.675,0.045c0.486,0,1.729-0.018,2.098-0.027c0.126-0.081,0.172-0.108,0.288-0.18
		c-0.647-0.468-1.197-0.81-1.899-1.17l0.36-0.396c0.396,0.225,0.522,0.297,0.847,0.504c0.396-0.324,0.558-0.478,0.792-0.774h-2.377
		c-0.387,0-0.657,0.018-0.928,0.054v-0.576c0.198,0.036,0.45,0.054,0.9,0.054h2.746v-0.729h-2.07c-0.315,0-0.559,0.009-0.838,0.045
		v-0.558c0.262,0.036,0.514,0.045,0.838,0.045h2.07v-0.666h-2.313c-0.441,0-0.657,0.009-0.9,0.045V18.78
		c0.252,0.036,0.522,0.054,0.937,0.054h2.277V18.79c0-0.369-0.018-0.522-0.054-0.729h0.657c-0.045,0.207-0.063,0.405-0.063,0.729
		v0.045h2.476c0.396,0,0.685-0.018,0.928-0.054v0.567c-0.234-0.036-0.459-0.045-0.892-0.045h-2.512v0.666h2.224
		c0.324,0,0.559-0.009,0.819-0.045v0.558c-0.27-0.036-0.513-0.045-0.819-0.045h-2.215v0.729H33.2c0.45,0,0.685-0.009,0.892-0.054
		v0.576c-0.261-0.036-0.559-0.054-0.928-0.054h-3.097c-0.306,0.351-0.63,0.666-1.063,1.035c0.333,0.216,0.396,0.261,0.729,0.495
		c0.45-0.324,0.595-0.441,1.116-0.918c0.181-0.171,0.288-0.297,0.414-0.468l0.495,0.351c-0.152,0.126-0.261,0.216-0.324,0.279
		c-0.621,0.531-1.008,0.819-1.593,1.206c0.945-0.036,0.945-0.036,2.664-0.171c-0.242-0.216-0.342-0.306-0.675-0.585l0.423-0.297
		c0.766,0.657,1.162,1.044,1.792,1.755l-0.45,0.351c-0.324-0.414-0.459-0.567-0.685-0.819c-1.404,0.135-1.404,0.135-2.629,0.207
		v1.332c0,0.378,0.019,0.567,0.063,0.819h-0.693c0.045-0.234,0.054-0.414,0.054-0.819v-1.296c-0.666,0.036-1.891,0.081-2.826,0.108
		c-0.198,0-0.343,0.018-0.531,0.045L26.232,23.633z M28.834,24.677c-0.621,0.666-1.197,1.08-2.062,1.477
		c-0.135-0.189-0.234-0.288-0.45-0.45c0.504-0.189,0.766-0.315,1.144-0.567c0.387-0.261,0.567-0.414,0.882-0.756L28.834,24.677z
		 M31.706,24.281c0.324,0.324,0.513,0.486,0.954,0.783c0.352,0.243,0.612,0.378,1.171,0.612c-0.162,0.144-0.288,0.297-0.405,0.486
		c-0.873-0.45-1.495-0.9-2.188-1.584L31.706,24.281z"/>
	<path d="M36.412,23.129c0-0.387,0.009-0.648,0.026-1.081c-0.324,0.414-0.585,0.666-1.026,1.008
		c-0.107-0.225-0.207-0.369-0.351-0.513c0.702-0.477,1.278-1.044,1.818-1.773c0.207-0.279,0.342-0.531,0.432-0.774l0.559,0.315
		c-0.108,0.135-0.135,0.18-0.27,0.387c-0.189,0.306-0.352,0.513-0.604,0.811v3.637c0,0.486,0.018,0.846,0.063,1.098h-0.711
		c0.045-0.252,0.063-0.621,0.063-1.098V23.129z M37.654,18.438c-0.063,0.063-0.081,0.09-0.162,0.198
		c-0.54,0.738-1.188,1.369-1.999,1.954c-0.135-0.198-0.233-0.306-0.405-0.441c0.505-0.324,0.829-0.585,1.188-0.955
		c0.45-0.45,0.676-0.765,0.819-1.098L37.654,18.438z M38.96,21.427c-0.424,0-0.783,0.018-1,0.054v-0.63
		c0.217,0.036,0.567,0.054,1,0.054h3.159c0.459,0,0.783-0.018,0.99-0.054v0.63c-0.233-0.036-0.566-0.054-0.98-0.054h-0.514v3.943
		c0,0.576-0.216,0.729-1.008,0.729c-0.288,0-0.712-0.018-1.099-0.045c-0.027-0.252-0.063-0.414-0.145-0.621
		c0.514,0.072,0.9,0.108,1.27,0.108c0.307,0,0.378-0.036,0.378-0.216v-3.898H38.96z M38.329,18.591
		c0.243,0.036,0.531,0.054,0.937,0.054h2.521c0.405,0,0.676-0.018,0.928-0.054v0.63c-0.271-0.036-0.567-0.054-0.928-0.054h-2.521
		c-0.36,0-0.666,0.018-0.937,0.054V18.591z"/>
</g>
<line fill="none" stroke="#231815" stroke-miterlimit="10" x1="45.851" y1="58.833" x2="65.271" y2="58.833"/>
</svg>
