<?xml version="1.0" encoding="utf-8"?>
<!-- Generator: Adobe Illustrator 16.0.3, SVG Export Plug-In . SVG Version: 6.00 Build 0)  -->
<!DOCTYPE svg PUBLIC "-//W3C//DTD SVG 1.1//EN" "http://www.w3.org/Graphics/SVG/1.1/DTD/svg11.dtd">
<svg version="1.1" id="レイヤー_1" xmlns="http://www.w3.org/2000/svg" xmlns:xlink="http://www.w3.org/1999/xlink" x="0px"
	 y="0px" width="131.129px" height="49.477px" viewBox="0 0 131.129 49.477" enable-background="new 0 0 131.129 49.477"
	 xml:space="preserve">
<g>
	<path d="M6.511,5.451c-0.024,0.144-0.024,0.144-0.032,0.56C6.455,7.346,6.23,8.138,5.688,8.826
		c-0.488,0.616-1.08,1.015-2.047,1.383c-0.12-0.256-0.177-0.336-0.368-0.536C3.92,9.481,4.32,9.281,4.735,8.938
		c0.848-0.68,1.16-1.495,1.16-3.054c0-0.224-0.009-0.28-0.032-0.432H6.511z M9.669,4.444c-0.08,0.104-0.096,0.128-0.191,0.32
		C8.926,5.835,8.182,6.563,7.143,7.042c-0.12-0.2-0.185-0.272-0.392-0.456c0.56-0.216,0.887-0.408,1.263-0.76
		c0.368-0.344,0.664-0.735,0.896-1.191H4.368c-0.44,0-0.648,0.008-0.943,0.04V4.06C3.696,4.1,3.92,4.116,4.376,4.116H8.67
		c0.535,0,0.535,0,0.679-0.056L9.669,4.444z"/>
	<path d="M16.581,4.004c-0.104,0.152-0.136,0.224-0.247,0.488c-0.521,1.223-0.768,1.711-1.176,2.334
		c0.688,0.568,1.199,1.055,1.839,1.719L16.55,9.042c-0.424-0.544-0.936-1.056-1.743-1.735c-0.84,1.151-1.815,1.991-3.214,2.782
		c-0.145-0.24-0.208-0.312-0.416-0.479c1.279-0.624,2.303-1.487,3.182-2.671c-0.728-0.583-1.479-1.079-2.15-1.447l0.399-0.424
		c0.784,0.472,1.184,0.736,2.079,1.392c0.376-0.592,0.664-1.167,0.943-1.863c0.2-0.487,0.24-0.615,0.28-0.847L16.581,4.004z"/>
	<path d="M20.92,3.788c-0.024,0.192-0.032,0.296-0.032,0.664v2.15c0,0.384,0.008,0.472,0.032,0.664h-0.664
		c0.024-0.184,0.032-0.352,0.032-0.672V4.46c0-0.344-0.008-0.479-0.032-0.672H20.92z M24.462,3.788
		c-0.032,0.184-0.04,0.312-0.04,0.696v0.943c0,1.271-0.057,1.975-0.2,2.439c-0.231,0.751-0.735,1.335-1.52,1.775
		c-0.392,0.224-0.775,0.376-1.455,0.576c-0.088-0.232-0.136-0.312-0.336-0.552c0.72-0.16,1.104-0.296,1.52-0.543
		c0.744-0.432,1.127-0.944,1.279-1.687c0.088-0.456,0.112-0.824,0.112-2.039V4.492c0-0.416-0.009-0.528-0.032-0.704H24.462z"/>
	<path d="M29.807,5.132c0.032-0.408,0.049-0.848,0.049-1.2c0-0.184-0.009-0.272-0.032-0.416l0.647,0.016
		c-0.032,0.184-0.032,0.184-0.063,1.032c-0.017,0.248-0.017,0.344-0.04,0.568l1.998-0.008c0.36,0,0.368-0.008,0.528-0.056
		l0.296,0.256c-0.048,0.12-0.057,0.192-0.064,0.48c-0.023,1.04-0.12,2.247-0.224,2.798c-0.2,1.096-0.439,1.383-1.159,1.383
		c-0.256,0-0.567-0.04-0.991-0.136c0-0.048,0-0.072,0-0.096c0-0.184-0.017-0.296-0.088-0.503c0.432,0.144,0.768,0.208,1.031,0.208
		c0.392,0,0.52-0.192,0.671-0.983c0.12-0.631,0.192-1.655,0.2-2.838l-2.238,0.008c-0.104,1.023-0.288,1.687-0.64,2.358
		c-0.448,0.824-1.191,1.575-2.095,2.119c-0.145-0.232-0.208-0.296-0.408-0.472c0.951-0.503,1.639-1.207,2.079-2.103
		c0.271-0.56,0.392-1.007,0.495-1.903l-1.455,0.008c-0.472,0-0.56,0-0.848,0.04l-0.008-0.608c0.271,0.048,0.464,0.056,0.863,0.056
		L29.807,5.132z"/>
</g>
<g>
	<path d="M25.596,18.761c0.364,0,0.567,0.182,0.567,0.441c0,0.112-0.042,0.238-0.126,0.378c-0.344,0.567-0.834,1.086-1.422,1.534
		c0.707,0.441,1.541,0.749,2.409,0.917c0.147,0.028,0.225,0.119,0.225,0.252c0,0.035-0.008,0.07-0.015,0.105
		c-0.035,0.161-0.14,0.245-0.28,0.245c-0.034,0-0.063-0.007-0.098-0.014c-0.96-0.203-1.905-0.602-2.703-1.176
		c-0.834,0.539-1.801,0.945-2.809,1.169c-0.035,0.007-0.07,0.007-0.099,0.007c-0.14,0-0.252-0.07-0.287-0.217
		c-0.007-0.035-0.014-0.063-0.014-0.091c0-0.14,0.084-0.245,0.231-0.273c0.889-0.182,1.758-0.511,2.514-0.953
		c-0.385-0.336-0.735-0.721-1.022-1.148c-0.146-0.217-0.259-0.448-0.371-0.687H21.59c-0.126,0-0.196-0.098-0.196-0.245
		s0.07-0.245,0.196-0.245h2.157v-1.037h-2.57c-0.126,0-0.211-0.105-0.211-0.259c0-0.154,0.085-0.259,0.211-0.259h2.57v-0.833
		c0-0.126,0.098-0.21,0.266-0.21c0.176,0,0.267,0.084,0.267,0.21v0.833h2.71c0.134,0,0.21,0.105,0.21,0.259
		c0,0.154-0.076,0.259-0.21,0.259h-2.71v1.037H25.596z M22.878,19.251c0.287,0.616,0.743,1.121,1.268,1.541
		c0.547-0.385,1.009-0.84,1.331-1.345c0.028-0.049,0.042-0.084,0.042-0.112c0-0.056-0.049-0.084-0.154-0.084H22.878z"/>
	<path d="M29.703,17.536c0.119,0,0.189,0.098,0.189,0.238c0,0.147-0.07,0.245-0.189,0.245H29.22v1.218
		c0.112-0.056,0.218-0.105,0.315-0.161c0.035-0.021,0.077-0.028,0.112-0.028c0.077,0,0.146,0.049,0.182,0.133
		c0.021,0.042,0.028,0.084,0.028,0.126c0,0.084-0.035,0.161-0.141,0.217c-0.146,0.084-0.314,0.168-0.497,0.252v2.213
		c0,0.427-0.175,0.609-0.637,0.609c-0.169,0-0.344-0.021-0.463-0.049c-0.112-0.028-0.182-0.105-0.182-0.231
		c0-0.021,0-0.049,0.007-0.077c0.028-0.119,0.112-0.175,0.189-0.175c0.014,0,0.021,0,0.034,0.007
		c0.099,0.021,0.238,0.042,0.337,0.042c0.168,0,0.203-0.028,0.203-0.217v-1.898c-0.21,0.084-0.413,0.161-0.603,0.231
		c-0.035,0.007-0.07,0.014-0.099,0.014c-0.098,0-0.168-0.063-0.21-0.189c-0.014-0.042-0.021-0.077-0.021-0.112
		c0-0.105,0.056-0.182,0.161-0.21c0.245-0.077,0.511-0.168,0.771-0.273v-1.442h-0.687c-0.133,0-0.196-0.098-0.196-0.238
		s0.063-0.245,0.196-0.245h0.687v-1.184c0-0.133,0.098-0.203,0.259-0.203s0.252,0.07,0.252,0.203v1.184H29.703z M33.331,20.127
		c0.315,0,0.483,0.133,0.483,0.329c0,0.112-0.049,0.238-0.154,0.378c-0.23,0.315-0.532,0.595-0.868,0.84
		c0.42,0.21,0.883,0.371,1.407,0.497c0.127,0.021,0.189,0.105,0.189,0.224c0,0.028-0.007,0.063-0.014,0.098
		c-0.035,0.133-0.119,0.196-0.231,0.196c-0.028,0-0.056-0.007-0.091-0.014c-0.638-0.182-1.205-0.413-1.702-0.714
		c-0.525,0.308-1.113,0.54-1.688,0.687c-0.042,0.007-0.077,0.014-0.112,0.014c-0.105,0-0.175-0.049-0.225-0.168
		c-0.007-0.035-0.014-0.063-0.014-0.091c0-0.098,0.063-0.182,0.175-0.21c0.505-0.126,0.988-0.301,1.422-0.525
		c-0.343-0.259-0.651-0.574-0.903-0.932c-0.309,0.687-0.729,1.282-1.219,1.744c-0.056,0.056-0.126,0.084-0.196,0.084
		c-0.056,0-0.119-0.021-0.168-0.07c-0.056-0.056-0.091-0.126-0.091-0.189s0.028-0.126,0.084-0.175
		c0.7-0.616,1.212-1.492,1.457-2.542h-0.729c-0.105,0-0.168-0.098-0.168-0.224c0-0.126,0.063-0.224,0.168-0.224h0.819
		c0.028-0.175,0.049-0.357,0.056-0.54h-0.798c-0.105,0-0.168-0.091-0.168-0.217c0-0.112,0.063-0.203,0.168-0.203h2.563
		c0.266-0.393,0.441-0.764,0.581-1.093c0.042-0.105,0.126-0.161,0.217-0.161c0.035,0,0.077,0.007,0.112,0.021
		c0.112,0.049,0.175,0.119,0.175,0.21c0,0.035-0.007,0.077-0.027,0.112c-0.126,0.266-0.309,0.581-0.54,0.911h0.701
		c0.104,0,0.168,0.084,0.168,0.203c0,0.126-0.063,0.217-0.168,0.217h-2.466c-0.014,0.182-0.035,0.357-0.063,0.54h2.654
		c0.104,0,0.168,0.098,0.168,0.224c0,0.126-0.063,0.224-0.168,0.224h-2.739c-0.049,0.182-0.098,0.364-0.153,0.539H33.331z
		 M33.766,16.191c0.104,0,0.182,0.07,0.21,0.182c0.007,0.035,0.014,0.063,0.014,0.098c0,0.105-0.063,0.182-0.182,0.21
		c-1.121,0.259-2.493,0.364-3.691,0.385c-0.161,0-0.23-0.098-0.23-0.231c0-0.007,0-0.007,0-0.014c0-0.126,0.084-0.224,0.203-0.224
		c1.148-0.007,2.535-0.133,3.606-0.399C33.717,16.191,33.737,16.191,33.766,16.191z M30.628,17.178c0.084,0,0.146,0.042,0.21,0.126
		c0.091,0.126,0.182,0.301,0.238,0.448c0.007,0.035,0.014,0.07,0.014,0.098c0,0.091-0.056,0.154-0.161,0.196
		c-0.035,0.014-0.077,0.021-0.104,0.021c-0.099,0-0.176-0.049-0.211-0.147c-0.049-0.133-0.14-0.301-0.217-0.435
		c-0.021-0.035-0.028-0.07-0.028-0.098c0-0.084,0.05-0.154,0.141-0.182C30.551,17.186,30.593,17.178,30.628,17.178z M31.384,20.547
		c0.28,0.336,0.596,0.63,0.96,0.868c0.336-0.21,0.623-0.462,0.833-0.735c0.028-0.035,0.042-0.063,0.042-0.084
		c0-0.035-0.035-0.049-0.119-0.049H31.384z M31.874,17.102c0.092,0,0.161,0.042,0.211,0.119c0.104,0.161,0.188,0.351,0.23,0.504
		c0.007,0.042,0.015,0.07,0.015,0.105c0,0.098-0.057,0.168-0.161,0.196c-0.035,0.014-0.077,0.021-0.105,0.021
		c-0.091,0-0.161-0.049-0.196-0.154c-0.042-0.14-0.133-0.329-0.217-0.476c-0.021-0.042-0.035-0.077-0.035-0.112
		c0-0.084,0.056-0.154,0.154-0.189C31.805,17.108,31.84,17.102,31.874,17.102z"/>
</g>
<g>
	<path d="M46.687,18.761c0.364,0,0.567,0.182,0.567,0.441c0,0.112-0.042,0.238-0.126,0.378c-0.344,0.567-0.834,1.086-1.422,1.534
		c0.707,0.441,1.541,0.749,2.409,0.917c0.147,0.028,0.225,0.119,0.225,0.252c0,0.035-0.008,0.07-0.015,0.105
		c-0.035,0.161-0.14,0.245-0.28,0.245c-0.034,0-0.063-0.007-0.098-0.014c-0.96-0.203-1.905-0.602-2.703-1.176
		c-0.834,0.539-1.801,0.945-2.809,1.169c-0.035,0.007-0.07,0.007-0.099,0.007c-0.14,0-0.252-0.07-0.287-0.217
		c-0.007-0.035-0.014-0.063-0.014-0.091c0-0.14,0.084-0.245,0.231-0.273c0.889-0.182,1.758-0.511,2.514-0.953
		c-0.385-0.336-0.735-0.721-1.022-1.148c-0.146-0.217-0.259-0.448-0.371-0.687h-0.707c-0.126,0-0.196-0.098-0.196-0.245
		s0.07-0.245,0.196-0.245h2.157v-1.037h-2.57c-0.126,0-0.211-0.105-0.211-0.259c0-0.154,0.085-0.259,0.211-0.259h2.57v-0.833
		c0-0.126,0.098-0.21,0.266-0.21c0.176,0,0.267,0.084,0.267,0.21v0.833h2.71c0.134,0,0.21,0.105,0.21,0.259
		c0,0.154-0.076,0.259-0.21,0.259h-2.71v1.037H46.687z M43.969,19.251c0.287,0.616,0.743,1.121,1.268,1.541
		c0.547-0.385,1.009-0.84,1.331-1.345c0.028-0.049,0.042-0.084,0.042-0.112c0-0.056-0.049-0.084-0.154-0.084H43.969z"/>
	<path d="M50.794,17.536c0.119,0,0.189,0.098,0.189,0.238c0,0.147-0.07,0.245-0.189,0.245h-0.483v1.218
		c0.112-0.056,0.218-0.105,0.315-0.161c0.035-0.021,0.077-0.028,0.112-0.028c0.077,0,0.146,0.049,0.182,0.133
		c0.021,0.042,0.028,0.084,0.028,0.126c0,0.084-0.035,0.161-0.141,0.217c-0.146,0.084-0.314,0.168-0.497,0.252v2.213
		c0,0.427-0.175,0.609-0.637,0.609c-0.169,0-0.344-0.021-0.463-0.049c-0.112-0.028-0.182-0.105-0.182-0.231
		c0-0.021,0-0.049,0.007-0.077c0.028-0.119,0.112-0.175,0.189-0.175c0.014,0,0.021,0,0.034,0.007
		c0.099,0.021,0.238,0.042,0.337,0.042c0.168,0,0.203-0.028,0.203-0.217v-1.898c-0.21,0.084-0.413,0.161-0.603,0.231
		c-0.035,0.007-0.07,0.014-0.099,0.014c-0.098,0-0.168-0.063-0.21-0.189c-0.014-0.042-0.021-0.077-0.021-0.112
		c0-0.105,0.056-0.182,0.161-0.21c0.245-0.077,0.511-0.168,0.771-0.273v-1.442h-0.687c-0.133,0-0.196-0.098-0.196-0.238
		s0.063-0.245,0.196-0.245H49.8v-1.184c0-0.133,0.098-0.203,0.259-0.203s0.252,0.07,0.252,0.203v1.184H50.794z M54.422,20.127
		c0.315,0,0.483,0.133,0.483,0.329c0,0.112-0.049,0.238-0.154,0.378c-0.23,0.315-0.532,0.595-0.868,0.84
		c0.42,0.21,0.882,0.371,1.407,0.497c0.127,0.021,0.189,0.105,0.189,0.224c0,0.028-0.007,0.063-0.014,0.098
		c-0.035,0.133-0.119,0.196-0.231,0.196c-0.028,0-0.056-0.007-0.091-0.014c-0.637-0.182-1.205-0.413-1.702-0.714
		c-0.525,0.308-1.113,0.54-1.688,0.687c-0.042,0.007-0.077,0.014-0.112,0.014c-0.105,0-0.175-0.049-0.225-0.168
		c-0.007-0.035-0.014-0.063-0.014-0.091c0-0.098,0.063-0.182,0.175-0.21c0.505-0.126,0.988-0.301,1.422-0.525
		c-0.343-0.259-0.651-0.574-0.903-0.932c-0.309,0.687-0.729,1.282-1.219,1.744c-0.056,0.056-0.126,0.084-0.196,0.084
		c-0.056,0-0.119-0.021-0.168-0.07c-0.056-0.056-0.091-0.126-0.091-0.189s0.028-0.126,0.084-0.175
		c0.7-0.616,1.212-1.492,1.457-2.542h-0.729c-0.105,0-0.168-0.098-0.168-0.224c0-0.126,0.063-0.224,0.168-0.224h0.819
		c0.028-0.175,0.049-0.357,0.056-0.54h-0.798c-0.105,0-0.168-0.091-0.168-0.217c0-0.112,0.063-0.203,0.168-0.203h2.563
		c0.266-0.393,0.441-0.764,0.581-1.093c0.042-0.105,0.126-0.161,0.217-0.161c0.035,0,0.077,0.007,0.112,0.021
		c0.112,0.049,0.175,0.119,0.175,0.21c0,0.035-0.007,0.077-0.027,0.112c-0.126,0.266-0.308,0.581-0.54,0.911h0.701
		c0.104,0,0.168,0.084,0.168,0.203c0,0.126-0.063,0.217-0.168,0.217h-2.465c-0.014,0.182-0.035,0.357-0.063,0.54h2.654
		c0.104,0,0.168,0.098,0.168,0.224c0,0.126-0.063,0.224-0.168,0.224h-2.739c-0.049,0.182-0.098,0.364-0.153,0.539H54.422z
		 M54.856,16.191c0.104,0,0.182,0.07,0.21,0.182c0.007,0.035,0.014,0.063,0.014,0.098c0,0.105-0.063,0.182-0.182,0.21
		c-1.121,0.259-2.493,0.364-3.691,0.385c-0.161,0-0.23-0.098-0.23-0.231c0-0.007,0-0.007,0-0.014c0-0.126,0.084-0.224,0.203-0.224
		c1.148-0.007,2.535-0.133,3.606-0.399C54.808,16.191,54.828,16.191,54.856,16.191z M51.719,17.178c0.084,0,0.146,0.042,0.21,0.126
		c0.091,0.126,0.182,0.301,0.238,0.448c0.007,0.035,0.014,0.07,0.014,0.098c0,0.091-0.056,0.154-0.161,0.196
		c-0.035,0.014-0.077,0.021-0.104,0.021c-0.099,0-0.176-0.049-0.211-0.147c-0.049-0.133-0.14-0.301-0.217-0.435
		c-0.021-0.035-0.028-0.07-0.028-0.098c0-0.084,0.05-0.154,0.141-0.182C51.642,17.186,51.684,17.178,51.719,17.178z M52.475,20.547
		c0.28,0.336,0.596,0.63,0.96,0.868c0.336-0.21,0.623-0.462,0.833-0.735c0.028-0.035,0.042-0.063,0.042-0.084
		c0-0.035-0.035-0.049-0.119-0.049H52.475z M52.965,17.102c0.092,0,0.161,0.042,0.211,0.119c0.104,0.161,0.188,0.351,0.23,0.504
		c0.007,0.042,0.015,0.07,0.015,0.105c0,0.098-0.057,0.168-0.161,0.196c-0.035,0.014-0.077,0.021-0.105,0.021
		c-0.091,0-0.161-0.049-0.196-0.154c-0.042-0.14-0.133-0.329-0.217-0.476c-0.021-0.042-0.035-0.077-0.035-0.112
		c0-0.084,0.056-0.154,0.154-0.189C52.896,17.108,52.931,17.102,52.965,17.102z"/>
</g>
<g>
	<path d="M98.608,3.837c0.52,0.887,0.736,1.367,1.072,2.455L99.088,6.54c-0.248-0.936-0.6-1.767-1.047-2.479L98.608,3.837z
		 M103.59,3.973c-0.08,0.208-0.08,0.208-0.209,0.76c-0.336,1.471-0.967,2.734-1.822,3.654c-0.607,0.648-1.256,1.12-2.135,1.551
		C99.264,9.674,99.2,9.602,99,9.45c0.895-0.392,1.502-0.808,2.104-1.447c0.83-0.879,1.375-2.015,1.719-3.542
		c0.063-0.296,0.08-0.424,0.096-0.664L103.59,3.973z"/>
	<path d="M105.282,6.147c0.199,0.032,0.318,0.04,0.623,0.04h0.416c0.24,0,0.408-0.008,0.615-0.04
		c-0.031,0.24-0.039,0.448-0.039,0.848v1.567c0.119,0.256,0.215,0.384,0.391,0.512c0.465,0.344,0.943,0.44,2.08,0.44
		c1.527,0,2.461-0.04,3.213-0.152c-0.119,0.288-0.135,0.312-0.184,0.583c-0.711,0.032-1.838,0.056-2.781,0.056
		c-1.328,0-1.809-0.08-2.32-0.376c-0.264-0.152-0.455-0.344-0.662-0.655c-0.361,0.359-0.561,0.527-0.945,0.823
		c-0.127,0.096-0.191,0.152-0.311,0.264l-0.264-0.528c0.352-0.16,0.84-0.52,1.287-0.959V6.635h-0.527
		c-0.273,0-0.393,0.008-0.592,0.04V6.147z M105.76,3.125c0.52,0.479,0.775,0.768,1.287,1.407L106.641,4.9
		c-0.465-0.664-0.705-0.952-1.248-1.456L105.76,3.125z M108.032,4.125c-0.375,0-0.592,0.008-0.752,0.04V3.669
		c0.184,0.024,0.432,0.04,0.832,0.04h1.398c0-0.272-0.016-0.488-0.055-0.72h0.559c-0.039,0.232-0.055,0.44-0.055,0.72h1.551
		c0.391,0,0.646-0.016,0.83-0.04v0.496c-0.184-0.032-0.406-0.04-0.799-0.04h-1.582v0.632h1.334c0.264,0,0.416-0.008,0.625-0.032
		c-0.025,0.184-0.033,0.32-0.033,0.544v1.599c0,0.216,0.008,0.344,0.033,0.52c-0.193-0.024-0.385-0.032-0.625-0.032h-1.334v0.656
		h1.613c0.393,0,0.625-0.008,0.793-0.04v0.496c-0.176-0.032-0.424-0.04-0.801-0.04h-1.605v0.152c0,0.256,0.016,0.496,0.055,0.728
		h-0.559c0.039-0.232,0.055-0.472,0.055-0.728V8.426h-1.406c-0.336,0-0.633,0.016-0.801,0.04V7.971c0.176,0.032,0.4,0.04,0.801,0.04
		h1.406V7.355h-1.207c-0.24,0-0.424,0.008-0.631,0.032c0.023-0.184,0.031-0.312,0.031-0.52V5.252c0-0.208-0.008-0.335-0.031-0.528
		c0.184,0.024,0.367,0.032,0.623,0.032h1.215V4.125H108.032z M108.168,5.156v0.68h1.342v-0.68H108.168z M108.168,6.22v0.735h1.342
		V6.22H108.168z M109.959,5.836h1.463v-0.68h-1.463V5.836z M109.959,6.955h1.463V6.22h-1.463V6.955z"/>
</g>
<g>
	<path d="M20.762,32.329c0-0.393-0.016-0.584-0.056-0.832h0.64c-0.04,0.248-0.057,0.472-0.057,0.815v0.704h2.343
		c0.272,0,0.424-0.008,0.608-0.032c-0.032,0.208-0.04,0.376-0.04,0.632v2.183c0,0.264,0.016,0.472,0.048,0.712h-0.576v-0.544h-2.383
		v1.862c0,0.457,0.009,0.656,0.057,0.912h-0.64c0.04-0.271,0.056-0.479,0.056-0.912v-1.862h-2.255v0.544h-0.575
		c0.031-0.232,0.048-0.456,0.048-0.712v-2.183c0-0.248-0.017-0.424-0.04-0.632c0.191,0.024,0.344,0.032,0.6,0.032h2.223V32.329z
		 M18.507,33.496v1.991h2.255v-1.991H18.507z M23.672,35.487v-1.991h-2.383v1.991H23.672z"/>
	<path d="M25.796,32.808c0-0.384-0.017-0.663-0.049-0.983c0.265,0.031,0.504,0.04,0.936,0.04h4.781c0.424,0,0.656-0.009,0.952-0.04
		c-0.032,0.296-0.048,0.567-0.048,0.983v4.869c0,0.584,0.016,0.88,0.048,1.096h-0.56v-0.487h-5.549v0.487h-0.561
		c0.032-0.216,0.049-0.504,0.049-1.096V32.808z M26.308,37.829h5.549v-5.508h-5.549V37.829z M27.675,33.503
		c-0.344,0-0.536,0.009-0.752,0.04v-0.512c0.224,0.04,0.399,0.048,0.752,0.048h2.822c0.359,0,0.575-0.016,0.783-0.048v0.512
		c-0.224-0.031-0.416-0.04-0.775-0.04h-1.231v1.239h0.983c0.36,0,0.52-0.008,0.72-0.039v0.503c-0.2-0.032-0.384-0.04-0.72-0.04
		h-0.983v1.463h1.344c0.327,0,0.56-0.016,0.783-0.047v0.527c-0.231-0.032-0.472-0.049-0.783-0.049H27.57
		c-0.328,0-0.552,0.017-0.791,0.049v-0.527c0.224,0.031,0.455,0.047,0.791,0.047h1.207v-1.463h-0.855
		c-0.335,0-0.527,0.008-0.728,0.04v-0.503c0.2,0.031,0.36,0.039,0.728,0.039h0.855v-1.239H27.675z M30.241,35.311
		c0.327,0.327,0.455,0.504,0.751,0.951l-0.375,0.24c-0.28-0.488-0.408-0.664-0.712-0.992L30.241,35.311z"/>
	<path d="M33.796,32.808c0-0.384-0.017-0.663-0.049-0.983c0.265,0.031,0.504,0.04,0.936,0.04h4.781c0.424,0,0.656-0.009,0.952-0.04
		c-0.032,0.296-0.048,0.567-0.048,0.983v4.869c0,0.584,0.016,0.88,0.048,1.096h-0.56v-0.487h-5.549v0.487h-0.561
		c0.032-0.216,0.049-0.504,0.049-1.096V32.808z M34.308,37.829h5.549v-5.508h-5.549V37.829z M35.675,33.503
		c-0.344,0-0.536,0.009-0.752,0.04v-0.512c0.224,0.04,0.399,0.048,0.752,0.048h2.822c0.359,0,0.575-0.016,0.783-0.048v0.512
		c-0.224-0.031-0.416-0.04-0.775-0.04h-1.231v1.239h0.983c0.36,0,0.52-0.008,0.72-0.039v0.503c-0.2-0.032-0.384-0.04-0.72-0.04
		h-0.983v1.463h1.344c0.327,0,0.56-0.016,0.783-0.047v0.527c-0.231-0.032-0.472-0.049-0.783-0.049H35.57
		c-0.328,0-0.552,0.017-0.791,0.049v-0.527c0.224,0.031,0.455,0.047,0.791,0.047h1.207v-1.463h-0.855
		c-0.335,0-0.527,0.008-0.728,0.04v-0.503c0.2,0.031,0.36,0.039,0.728,0.039h0.855v-1.239H35.675z M38.241,35.311
		c0.327,0.327,0.455,0.504,0.751,0.951l-0.375,0.24c-0.28-0.488-0.408-0.664-0.712-0.992L38.241,35.311z"/>
	<path d="M45.634,34.087c0.048,0.495,0.071,0.68,0.184,1.128l1.823-0.024c0.463,0,0.647-0.017,0.847-0.056v0.551
		c-0.295-0.023-0.295-0.023-0.839-0.023l-1.703,0.016c0.216,0.672,0.552,1.256,1.016,1.751c0.312,0.336,0.703,0.608,0.871,0.608
		c0.184,0,0.304-0.353,0.376-1.152c0.2,0.168,0.271,0.209,0.479,0.305c-0.176,1.063-0.384,1.423-0.808,1.423
		c-0.439,0-1.087-0.487-1.607-1.216c-0.392-0.543-0.647-1.055-0.855-1.711l-2.351,0.032v2.127c0.84-0.185,1.52-0.376,2.391-0.672
		l0.017,0.496c-1.231,0.407-1.911,0.592-3.271,0.872c-0.191,0.039-0.352,0.079-0.439,0.111l-0.136-0.576
		c0.207-0.008,0.487-0.047,0.919-0.127v-5.117c0-0.393-0.008-0.6-0.032-0.904c0.256,0.032,0.504,0.04,0.936,0.04h3.559
		c0.352,0,0.583-0.008,0.831-0.04c-0.023,0.16-0.023,0.28-0.023,0.64v0.952c0,0.295,0.008,0.447,0.023,0.592
		c-0.239-0.017-0.472-0.024-0.791-0.024H45.634z M43.066,33.639h4.246v-1.215h-4.246V33.639z M43.066,34.087v1.159l2.231-0.023
		c-0.08-0.385-0.128-0.672-0.185-1.136H43.066z"/>
	<path d="M51.626,36.11c-0.335,0-0.551,0.008-0.719,0.032c0.008-0.112,0.016-0.176,0.016-0.224v-0.16l0.008-0.287v-0.872
		c0-0.265-0.008-0.416-0.023-0.616c0.184,0.024,0.424,0.032,0.68,0.032h3.046c0.304,0,0.504-0.008,0.655-0.032
		c-0.016,0.168-0.023,0.32-0.023,0.632v0.856c0,0.415,0.008,0.527,0.023,0.671c-0.231-0.024-0.495-0.032-0.783-0.032h-0.52v1.775
		c0,0.232,0.071,0.256,0.815,0.256c0.888,0,1.063-0.032,1.175-0.2c0.104-0.151,0.152-0.456,0.185-1.031
		c0.199,0.112,0.327,0.168,0.504,0.216c-0.097,0.824-0.192,1.119-0.416,1.295c-0.192,0.145-0.536,0.192-1.424,0.192
		c-1.135,0-1.343-0.088-1.343-0.56V36.11H52.57c-0.049,0.408-0.089,0.607-0.185,0.855c-0.248,0.656-0.775,1.168-1.543,1.496
		c-0.304,0.127-0.544,0.199-1.047,0.312c-0.08-0.2-0.145-0.312-0.28-0.504c0.896-0.136,1.487-0.36,1.911-0.72
		c0.399-0.344,0.567-0.735,0.632-1.439H51.626z M52.762,32.104c0-0.215-0.016-0.416-0.04-0.6h0.584
		c-0.024,0.184-0.04,0.376-0.04,0.6v0.816h0.84c0.399-0.448,0.6-0.729,0.847-1.199l0.488,0.247
		c-0.344,0.456-0.536,0.688-0.783,0.952h0.911c0.464,0,0.663-0.008,0.888-0.032c-0.024,0.208-0.032,0.407-0.032,0.728v0.463
		c0,0.16,0.008,0.289,0.032,0.448h-0.528v-1.175h-5.637v1.175h-0.527c0.023-0.192,0.032-0.344,0.032-0.487v-0.512
		c0-0.256-0.009-0.439-0.032-0.64c0.208,0.024,0.424,0.032,0.839,0.032h0.824c-0.2-0.344-0.408-0.6-0.752-0.943l0.448-0.201
		c0.439,0.496,0.552,0.648,0.839,1.145h0.8V32.104z M51.419,35.678h3.357v-1.23h-3.357V35.678z"/>
</g>
<g>
	<path d="M12.692,42.148c-0.019,0.108-0.019,0.108-0.024,0.42c-0.018,1.001-0.186,1.595-0.594,2.11
		c-0.365,0.463-0.81,0.762-1.535,1.038c-0.09-0.192-0.132-0.252-0.275-0.401c0.485-0.145,0.785-0.295,1.097-0.553
		c0.636-0.51,0.87-1.121,0.87-2.29c0-0.168-0.006-0.21-0.024-0.324H12.692z M15.061,41.393c-0.06,0.078-0.071,0.096-0.144,0.239
		c-0.414,0.804-0.972,1.349-1.751,1.709c-0.09-0.149-0.138-0.204-0.294-0.342c0.42-0.161,0.666-0.306,0.947-0.569
		c0.276-0.258,0.498-0.552,0.672-0.894h-3.406c-0.33,0-0.485,0.006-0.708,0.03v-0.463c0.204,0.031,0.372,0.043,0.714,0.043h3.221
		c0.401,0,0.401,0,0.51-0.043L15.061,41.393z"/>
	<path d="M20.245,41.063c-0.078,0.113-0.102,0.168-0.186,0.365c-0.39,0.918-0.576,1.283-0.882,1.752
		c0.516,0.426,0.899,0.791,1.379,1.289l-0.335,0.371c-0.318-0.407-0.702-0.791-1.308-1.301c-0.63,0.863-1.361,1.493-2.411,2.087
		c-0.107-0.181-0.155-0.233-0.312-0.36c0.96-0.467,1.728-1.115,2.387-2.002c-0.546-0.438-1.109-0.811-1.613-1.086l0.3-0.318
		c0.588,0.354,0.888,0.553,1.56,1.044c0.281-0.444,0.497-0.876,0.707-1.397c0.15-0.365,0.181-0.461,0.21-0.636L20.245,41.063z"/>
	<path d="M23.499,40.901c-0.019,0.145-0.024,0.222-0.024,0.498v1.613c0,0.287,0.006,0.354,0.024,0.497h-0.498
		c0.018-0.138,0.024-0.264,0.024-0.503v-1.602c0-0.258-0.007-0.359-0.024-0.504H23.499z M26.155,40.901
		c-0.024,0.138-0.03,0.234-0.03,0.521v0.708c0,0.953-0.042,1.481-0.149,1.829c-0.174,0.563-0.552,1.001-1.14,1.331
		c-0.294,0.168-0.582,0.282-1.092,0.432c-0.065-0.174-0.102-0.233-0.251-0.413c0.539-0.121,0.827-0.223,1.139-0.408
		c0.558-0.324,0.846-0.708,0.96-1.266c0.065-0.342,0.084-0.617,0.084-1.529v-0.678c0-0.312-0.006-0.396-0.024-0.527H26.155z"/>
	<path d="M30.164,41.909c0.024-0.307,0.036-0.637,0.036-0.9c0-0.138-0.006-0.203-0.023-0.312l0.485,0.013
		c-0.024,0.137-0.024,0.137-0.048,0.773c-0.012,0.186-0.012,0.258-0.03,0.426l1.499-0.006c0.271,0,0.276-0.006,0.396-0.043
		l0.222,0.192c-0.036,0.09-0.042,0.144-0.048,0.36c-0.019,0.779-0.09,1.685-0.168,2.098c-0.15,0.822-0.33,1.038-0.87,1.038
		c-0.191,0-0.426-0.03-0.743-0.103c0-0.035,0-0.053,0-0.071c0-0.138-0.012-0.222-0.066-0.378c0.324,0.107,0.576,0.156,0.774,0.156
		c0.293,0,0.39-0.145,0.503-0.738c0.09-0.474,0.145-1.241,0.15-2.129l-1.68,0.006c-0.077,0.768-0.216,1.266-0.479,1.77
		c-0.336,0.617-0.894,1.182-1.571,1.59c-0.107-0.175-0.155-0.223-0.306-0.354c0.714-0.378,1.229-0.905,1.56-1.577
		c0.204-0.42,0.294-0.756,0.371-1.428l-1.091,0.006c-0.354,0-0.42,0-0.636,0.031l-0.006-0.457c0.204,0.037,0.348,0.043,0.647,0.043
		L30.164,41.909z"/>
	<path d="M34.665,41.111c-0.246,0-0.401,0.006-0.552,0.024v-0.379c0.168,0.024,0.324,0.031,0.582,0.031h1.697
		c0.275,0,0.426-0.007,0.581-0.031v0.379c-0.149-0.019-0.306-0.024-0.545-0.024h-0.103v0.845h0.222c0.276,0,0.414-0.006,0.57-0.029
		v0.39c-0.162-0.024-0.3-0.03-0.564-0.03h-0.228v0.876c0,0.245,0.006,0.407,0.024,0.521h0.413c-0.029,0.12-0.035,0.228-0.035,0.45
		v0.096h1.301c0.336,0,0.498-0.006,0.66-0.036v0.401c-0.187-0.023-0.366-0.029-0.654-0.029h-1.307v0.815h1.828
		c0.33,0,0.517-0.006,0.666-0.03v0.414c-0.198-0.023-0.414-0.036-0.684-0.036h-3.88c-0.258,0-0.474,0.013-0.672,0.036V45.35
		c0.145,0.018,0.348,0.03,0.66,0.03h1.709v-0.815h-1.163c-0.288,0-0.475,0.006-0.66,0.029v-0.401
		c0.162,0.03,0.306,0.036,0.636,0.036h1.188v-0.096c0-0.198-0.006-0.318-0.024-0.42h-0.401c0.023-0.145,0.036-0.313,0.036-0.558
		v-0.87h-0.87c-0.036,0.354-0.102,0.605-0.228,0.895c-0.132,0.287-0.288,0.485-0.605,0.761c-0.097-0.132-0.156-0.186-0.288-0.282
		c0.348-0.275,0.456-0.407,0.582-0.689c0.096-0.209,0.138-0.371,0.174-0.684h-0.216c-0.258,0-0.414,0.006-0.564,0.03v-0.39
		c0.156,0.023,0.313,0.029,0.564,0.029h0.239c0.019-0.311,0.024-0.438,0.024-0.845H34.665z M35.145,41.111
		c0,0.413-0.006,0.569-0.023,0.845h0.846v-0.845H35.145z M37.34,42.891c0.023-0.125,0.036-0.299,0.036-0.539v-0.978
		c0-0.239-0.013-0.401-0.036-0.54h0.438c-0.023,0.133-0.03,0.276-0.03,0.528v1.007c0,0.258,0.007,0.396,0.024,0.521H37.34z
		 M38.977,43.317c0,0.36-0.132,0.457-0.611,0.457c-0.192,0-0.39-0.007-0.594-0.025c-0.024-0.18-0.048-0.264-0.102-0.395
		c0.216,0.035,0.426,0.053,0.539,0.053c0.006,0,0.019,0,0.036,0c0.03,0,0.096,0,0.18,0c0.139-0.006,0.168-0.029,0.168-0.137v-2.1
		c0-0.264-0.006-0.408-0.036-0.582h0.456c-0.023,0.133-0.036,0.313-0.036,0.594V43.317z"/>
	<path d="M40.119,41.512c0-0.287-0.012-0.498-0.035-0.737c0.197,0.024,0.377,0.03,0.701,0.03h3.586c0.318,0,0.492-0.006,0.714-0.03
		c-0.024,0.222-0.036,0.426-0.036,0.737v3.652c0,0.438,0.012,0.66,0.036,0.821h-0.42V45.62h-4.162v0.366h-0.419
		c0.023-0.161,0.035-0.378,0.035-0.821V41.512z M40.503,45.278h4.162v-4.131h-4.162V45.278z M41.528,42.034
		c-0.258,0-0.401,0.006-0.563,0.03V41.68c0.168,0.03,0.3,0.036,0.563,0.036h2.117c0.27,0,0.432-0.012,0.588-0.036v0.384
		c-0.168-0.024-0.312-0.03-0.582-0.03h-0.923v0.93h0.737c0.27,0,0.39-0.006,0.539-0.029v0.377c-0.149-0.023-0.287-0.029-0.539-0.029
		h-0.737v1.098h1.007c0.246,0,0.42-0.013,0.588-0.037v0.396c-0.174-0.023-0.354-0.036-0.588-0.036h-2.284
		c-0.246,0-0.414,0.013-0.594,0.036v-0.396c0.168,0.024,0.342,0.037,0.594,0.037h0.905v-1.098h-0.642
		c-0.252,0-0.396,0.006-0.546,0.029v-0.377c0.15,0.023,0.27,0.029,0.546,0.029h0.642v-0.93H41.528z M43.454,43.389
		c0.245,0.246,0.342,0.378,0.563,0.714l-0.282,0.18c-0.21-0.366-0.306-0.497-0.533-0.743L43.454,43.389z"/>
	<path d="M48.23,42.652c0.516,0.45,0.857,1.361,0.857,2.29c0,0.385-0.06,0.66-0.174,0.799c-0.108,0.131-0.264,0.186-0.558,0.186
		c-0.187,0-0.438-0.018-0.708-0.042c-0.012-0.175-0.036-0.258-0.096-0.401c0.3,0.06,0.552,0.09,0.773,0.09
		c0.306,0,0.39-0.145,0.39-0.721c0-0.174-0.006-0.275-0.023-0.449c-0.636,0.521-1.428,0.918-2.531,1.277
		c-0.077-0.145-0.132-0.222-0.233-0.336c1.085-0.275,2.015-0.731,2.692-1.313c-0.048-0.205-0.09-0.324-0.168-0.504
		c-0.617,0.426-1.355,0.762-2.243,1.02c-0.065-0.145-0.119-0.217-0.222-0.33c0.546-0.133,0.876-0.24,1.373-0.456
		c0.366-0.162,0.63-0.306,0.936-0.521c-0.119-0.192-0.209-0.3-0.348-0.42c-0.443,0.245-0.894,0.426-1.601,0.618
		c-0.084-0.156-0.12-0.211-0.222-0.318c0.935-0.204,1.522-0.432,2.093-0.822h-0.882c-0.216,0-0.402,0.013-0.582,0.031v-0.385
		c0.156,0.024,0.313,0.036,0.582,0.036h2.536c0.282,0,0.438-0.006,0.588-0.036v0.385c-0.18-0.019-0.359-0.031-0.588-0.031h-0.647
		c0.132,0.547,0.192,0.75,0.36,1.122c0.426-0.312,0.791-0.672,0.917-0.894l0.336,0.275c-0.132,0.108-0.132,0.108-0.359,0.324
		c-0.192,0.186-0.36,0.324-0.732,0.605c0.378,0.666,0.822,1.092,1.584,1.535c-0.103,0.09-0.187,0.186-0.294,0.336
		c-0.492-0.354-0.72-0.545-0.972-0.834c-0.45-0.503-0.804-1.156-1.025-1.895c-0.048-0.156-0.072-0.252-0.15-0.576h-0.18
		c-0.174,0.15-0.24,0.199-0.432,0.324L48.23,42.652z M48.351,40.901c0-0.132-0.013-0.24-0.042-0.372h0.468
		c-0.024,0.132-0.036,0.233-0.036,0.366v0.191h1.774c0.258,0,0.414-0.006,0.606-0.023c-0.019,0.113-0.024,0.216-0.024,0.396v0.372
		c0,0.186,0.006,0.281,0.024,0.408h-0.39v-0.822h-4.24v0.822h-0.39c0.018-0.139,0.024-0.234,0.024-0.414v-0.366
		c0-0.162-0.007-0.271-0.024-0.396c0.191,0.018,0.342,0.023,0.6,0.023h1.649V40.901z"/>
	<path d="M52.461,43.299c0.084,0.359,0.168,0.564,0.372,0.906c0.174-0.42,0.252-0.696,0.342-1.344h-0.516
		c-0.168,0-0.378,0.006-0.546,0.018c0.432-0.629,0.714-1.121,0.972-1.691h-0.72c-0.168,0-0.275,0.007-0.407,0.031v-0.391
		c0.132,0.024,0.233,0.03,0.413,0.03h0.57c0.222,0,0.342-0.006,0.443-0.024l0.174,0.229c-0.036,0.054-0.072,0.125-0.132,0.246
		c-0.174,0.371-0.462,0.875-0.708,1.229h0.391c0.264,0,0.371-0.006,0.474-0.023c-0.019,0.09-0.019,0.09-0.048,0.3
		c-0.078,0.636-0.246,1.241-0.475,1.728c0.51,0.646,1.151,0.881,2.411,0.881c0.594,0,1.319-0.036,1.871-0.084
		c-0.078,0.18-0.096,0.222-0.126,0.414c-0.444,0.012-1.199,0.023-1.661,0.023c-1.421,0-2.033-0.209-2.662-0.924
		c-0.234,0.408-0.438,0.666-0.834,1.057c-0.096-0.145-0.18-0.229-0.282-0.295c0.426-0.377,0.642-0.641,0.882-1.061
		c-0.144-0.211-0.252-0.414-0.408-0.779c-0.071-0.168-0.071-0.168-0.149-0.33L52.461,43.299z M55.094,41.26h-0.768
		c-0.174,0-0.294,0.006-0.432,0.024V40.93c0.132,0.024,0.24,0.031,0.443,0.031h0.756c-0.006-0.223-0.012-0.313-0.03-0.457h0.408
		c-0.024,0.127-0.03,0.234-0.03,0.457h0.948c0.197,0,0.329-0.007,0.438-0.019c0,0.03,0,0.03-0.006,0.103
		c-0.007,0.059-0.007,0.186-0.007,0.275v0.426h0.03c0.187,0,0.306-0.012,0.45-0.036v0.36c-0.132-0.019-0.246-0.024-0.45-0.024h-0.03
		v0.491c0,0.127,0.007,0.282,0.013,0.342c-0.192-0.012-0.271-0.012-0.426-0.012h-0.96v0.516h0.96c0.204,0,0.365-0.006,0.533-0.029
		v0.354c-0.155-0.018-0.306-0.024-0.539-0.024h-0.954v0.528h1.229c0.246,0,0.408-0.012,0.558-0.037v0.367
		c-0.144-0.019-0.312-0.025-0.558-0.025h-1.229v0.15c0,0.264,0.006,0.402,0.03,0.559h-0.408c0.019-0.168,0.03-0.307,0.03-0.553
		v-0.156h-0.959c-0.234,0-0.366,0.007-0.534,0.031v-0.373c0.144,0.025,0.306,0.037,0.54,0.037h0.953v-0.528H54.29
		c-0.191,0-0.348,0.013-0.491,0.03v-0.359c0.144,0.023,0.3,0.029,0.491,0.029h0.804v-0.516h-0.785c-0.168,0-0.276,0.006-0.42,0.023
		v-0.354c0.126,0.024,0.228,0.03,0.438,0.03h0.768v-0.521h-1.001c-0.252,0-0.402,0.006-0.552,0.03V41.71
		c0.155,0.024,0.287,0.036,0.558,0.036h0.995V41.26z M56.467,41.747V41.26h-1.025v0.486H56.467z M55.441,42.568h1.025v-0.521h-1.025
		V42.568z"/>
	<path d="M57.964,41.561c0.138,0.023,0.252,0.029,0.479,0.029h1.146c0.246,0,0.342-0.006,0.479-0.029v0.401
		c-0.12-0.019-0.222-0.024-0.438-0.024h-1.188c-0.204,0-0.324,0.006-0.479,0.024V41.561z M58.167,40.733
		c0.145,0.023,0.246,0.029,0.456,0.029h0.81c0.204,0,0.312-0.006,0.456-0.029v0.378c-0.15-0.019-0.264-0.024-0.456-0.024h-0.81
		c-0.186,0-0.323,0.006-0.456,0.024V40.733z M58.167,45.98c0.024-0.174,0.036-0.342,0.036-0.581v-0.811
		c0-0.209-0.006-0.348-0.029-0.504c0.155,0.019,0.306,0.024,0.479,0.024h0.785c0.258,0,0.33,0,0.438-0.018
		c-0.013,0.138-0.019,0.245-0.019,0.474v0.846c0,0.186,0.006,0.336,0.03,0.491h-0.372v-0.245h-0.965v0.323H58.167z M58.174,42.424
		c0.113,0.018,0.222,0.023,0.432,0.023h0.846c0.216,0,0.3-0.006,0.426-0.023v0.365c-0.145-0.018-0.24-0.023-0.426-0.023h-0.846
		c-0.198,0-0.294,0.006-0.432,0.023V42.424z M58.174,43.251c0.119,0.019,0.222,0.024,0.432,0.024h0.846
		c0.203,0,0.317-0.006,0.426-0.024v0.366c-0.168-0.019-0.223-0.024-0.426-0.024h-0.846c-0.204,0-0.294,0.006-0.432,0.024V43.251z
		 M58.552,45.344h0.965V44.42h-0.965V45.344z M62.947,43.324c-0.036,0.06-0.036,0.06-0.114,0.222
		c-0.216,0.462-0.516,0.888-0.882,1.266c0.426,0.33,0.846,0.539,1.506,0.749c-0.097,0.138-0.15,0.228-0.217,0.378
		c-0.713-0.281-1.109-0.498-1.553-0.869c-0.408,0.354-0.882,0.629-1.523,0.881c-0.071-0.149-0.126-0.222-0.233-0.33
		c0.617-0.209,1.062-0.449,1.493-0.797c-0.414-0.414-0.582-0.672-0.888-1.367c-0.162,0.006-0.233,0.012-0.359,0.029v-0.389
		c0.119,0.023,0.252,0.029,0.426,0.029h1.673c0.252,0,0.359-0.006,0.449-0.023L62.947,43.324z M61.088,41.098
		c-0.018,0.648-0.09,0.966-0.288,1.326c-0.126,0.228-0.246,0.365-0.491,0.557c-0.108-0.113-0.198-0.191-0.306-0.251
		c0.312-0.21,0.467-0.396,0.587-0.714c0.097-0.246,0.139-0.516,0.139-0.912c0-0.143-0.007-0.203-0.03-0.359
		c0.162,0.018,0.312,0.024,0.468,0.024h0.731c0.216,0,0.372-0.007,0.51-0.024c-0.018,0.168-0.024,0.324-0.024,0.564v0.936
		c0,0.102,0.055,0.125,0.252,0.125c0.246,0,0.318-0.018,0.348-0.084c0.055-0.102,0.084-0.317,0.097-0.672
		c0.144,0.097,0.197,0.121,0.329,0.162c-0.035,0.486-0.096,0.708-0.21,0.811c-0.09,0.078-0.239,0.107-0.581,0.107
		c-0.486,0-0.594-0.061-0.594-0.33v-1.266H61.088z M60.89,43.456c0.216,0.485,0.396,0.744,0.798,1.127
		c0.348-0.348,0.552-0.635,0.785-1.127H60.89z"/>
</g>
<g>
	<path d="M88.856,32.376c0-0.392-0.016-0.583-0.057-0.831h0.641c-0.041,0.248-0.057,0.471-0.057,0.815v0.703h2.342
		c0.273,0,0.424-0.008,0.609-0.032c-0.033,0.209-0.041,0.377-0.041,0.633v2.182c0,0.264,0.016,0.473,0.049,0.712h-0.576v-0.544
		h-2.383v1.863c0,0.456,0.008,0.656,0.057,0.912h-0.641c0.041-0.272,0.057-0.48,0.057-0.912v-1.863H86.6v0.544h-0.574
		c0.031-0.231,0.047-0.456,0.047-0.712v-2.182c0-0.248-0.016-0.424-0.039-0.633c0.191,0.024,0.344,0.032,0.6,0.032h2.223V32.376z
		 M86.6,33.543v1.991h2.256v-1.991H86.6z M91.766,35.535v-1.991h-2.383v1.991H91.766z"/>
	<path d="M93.889,32.856c0-0.383-0.016-0.663-0.049-0.982c0.266,0.031,0.504,0.039,0.936,0.039h4.781
		c0.424,0,0.656-0.008,0.953-0.039c-0.033,0.295-0.049,0.566-0.049,0.982v4.869c0,0.584,0.016,0.88,0.049,1.096H99.95v-0.487h-5.549
		v0.487H93.84c0.033-0.216,0.049-0.504,0.049-1.096V32.856z M94.401,37.877h5.549v-5.509h-5.549V37.877z M95.768,33.551
		c-0.344,0-0.535,0.009-0.752,0.041v-0.512c0.225,0.039,0.4,0.048,0.752,0.048h2.822c0.359,0,0.576-0.017,0.783-0.048v0.512
		c-0.223-0.032-0.416-0.041-0.775-0.041h-1.23v1.24h0.982c0.361,0,0.52-0.008,0.721-0.04v0.503
		c-0.201-0.031-0.385-0.039-0.721-0.039h-0.982v1.463h1.344c0.326,0,0.559-0.016,0.783-0.048v0.527
		c-0.232-0.032-0.473-0.048-0.783-0.048h-3.047c-0.328,0-0.553,0.016-0.791,0.048V36.63c0.223,0.032,0.455,0.048,0.791,0.048h1.207
		v-1.463h-0.855c-0.336,0-0.527,0.008-0.729,0.039v-0.503c0.201,0.032,0.361,0.04,0.729,0.04h0.855v-1.24H95.768z M98.334,35.359
		c0.328,0.328,0.455,0.504,0.752,0.952l-0.375,0.239c-0.281-0.487-0.408-0.663-0.713-0.991L98.334,35.359z"/>
	<path d="M103.584,32.489c0-0.368-0.016-0.624-0.057-0.824h0.625c-0.033,0.185-0.049,0.473-0.049,0.824v0.743h2.096v-0.728
		c0-0.424-0.018-0.647-0.049-0.832h0.631c-0.039,0.24-0.055,0.496-0.055,0.824v0.735h0.855c0.336,0,0.623-0.016,0.848-0.048v0.568
		c-0.201-0.024-0.465-0.041-0.848-0.041h-0.855v2.023h1.039c0.359,0,0.744-0.023,0.959-0.057v0.6c-0.24-0.031-0.6-0.055-0.959-0.055
		h-5.189c-0.344,0-0.688,0.023-0.928,0.055v-0.6c0.24,0.041,0.568,0.057,0.928,0.057h1.008v-2.023h-0.775
		c-0.369,0-0.592,0.008-0.809,0.041v-0.568c0.232,0.032,0.488,0.048,0.809,0.048h0.775V32.489z M104.44,36.894
		c-0.465,0.567-0.783,0.872-1.287,1.239c-0.344,0.248-0.615,0.4-1.096,0.624c-0.119-0.2-0.191-0.28-0.375-0.44
		c0.623-0.256,0.91-0.407,1.295-0.688c0.447-0.336,0.664-0.56,1.008-1.031L104.44,36.894z M106.2,35.735v-2.023h-2.096v2.023H106.2z
		 M106.319,36.59c0.367,0.496,0.607,0.735,1.08,1.063c0.383,0.264,0.68,0.424,1.295,0.688c-0.16,0.136-0.256,0.256-0.377,0.464
		c-0.727-0.368-0.982-0.52-1.383-0.84c-0.432-0.359-0.672-0.592-1.063-1.063L106.319,36.59z"/>
	<path d="M113.032,32.065c0-0.184-0.016-0.352-0.049-0.544h0.615c-0.031,0.176-0.047,0.353-0.047,0.544v0.176h2.135
		c0.408,0,0.648-0.016,0.848-0.048v0.52c-0.256-0.024-0.473-0.032-0.832-0.032h-0.711c-0.168,0.384-0.305,0.664-0.473,0.96h1.191
		c0.465,0,0.703-0.009,0.928-0.048v0.527c-0.232-0.032-0.471-0.04-0.928-0.04h-4.988c-0.008,2.575-0.225,3.67-0.896,4.646
		c-0.143-0.199-0.199-0.264-0.391-0.408c0.279-0.399,0.432-0.743,0.543-1.199c0.152-0.584,0.24-1.52,0.24-2.479
		c0-0.424-0.008-0.815-0.033-1.047c0.297,0.039,0.521,0.048,0.92,0.048h0.904c-0.104-0.353-0.217-0.624-0.385-0.96h-0.719
		c-0.344,0-0.543,0.008-0.783,0.032v-0.52c0.184,0.032,0.416,0.048,0.799,0.048h2.111V32.065z M111.967,35.495
		c-0.23,0.456-0.455,0.783-0.822,1.224c-0.145-0.16-0.225-0.224-0.393-0.328c0.432-0.439,0.648-0.743,0.889-1.271
		c0.15-0.32,0.23-0.545,0.287-0.832l0.52,0.12c-0.057,0.12-0.145,0.335-0.279,0.647h1.246v-0.16c0-0.287-0.008-0.432-0.039-0.615
		h0.568c-0.033,0.191-0.041,0.328-0.041,0.615v0.16h1.592c0.398,0,0.607-0.016,0.791-0.048v0.52
		c-0.217-0.024-0.455-0.032-0.791-0.032h-1.592v0.976h1.328c0.359,0,0.535-0.008,0.727-0.04v0.504
		c-0.232-0.023-0.408-0.032-0.727-0.032h-1.328v1.167h2.063c0.352,0,0.568-0.008,0.744-0.039v0.535
		c-0.225-0.031-0.455-0.048-0.752-0.048h-4.557c-0.281,0-0.504,0.017-0.736,0.048V38.03c0.191,0.031,0.4,0.039,0.729,0.039h2.021
		v-1.167h-0.982c-0.305,0-0.527,0.009-0.744,0.032v-0.496c0.176,0.024,0.367,0.032,0.744,0.032h0.982v-0.976H111.967z
		 M113.999,33.64c0.225-0.408,0.313-0.601,0.447-0.96h-2.293c0.15,0.313,0.246,0.544,0.383,0.96H113.999z"/>
	<path d="M119.719,36.159c-0.334,0-0.551,0.008-0.719,0.031c0.008-0.111,0.016-0.176,0.016-0.223v-0.16l0.008-0.288v-0.872
		c0-0.264-0.008-0.416-0.023-0.615c0.184,0.023,0.424,0.031,0.68,0.031h3.047c0.303,0,0.504-0.008,0.654-0.031
		c-0.016,0.168-0.023,0.32-0.023,0.632v0.855c0,0.415,0.008,0.527,0.023,0.671c-0.23-0.023-0.494-0.031-0.783-0.031h-0.52v1.775
		c0,0.231,0.072,0.256,0.816,0.256c0.887,0,1.063-0.033,1.174-0.2c0.105-0.152,0.152-0.456,0.186-1.032
		c0.199,0.112,0.326,0.168,0.504,0.217c-0.098,0.823-0.193,1.119-0.416,1.295c-0.193,0.145-0.537,0.191-1.424,0.191
		c-1.135,0-1.344-0.088-1.344-0.559v-1.943h-0.91c-0.049,0.408-0.09,0.607-0.186,0.855c-0.248,0.655-0.775,1.167-1.543,1.495
		c-0.303,0.128-0.543,0.2-1.047,0.312c-0.08-0.199-0.145-0.312-0.279-0.504c0.895-0.136,1.486-0.359,1.91-0.719
		c0.4-0.344,0.568-0.736,0.633-1.439H119.719z M120.856,32.153c0-0.216-0.016-0.416-0.041-0.6h0.584
		c-0.023,0.184-0.039,0.375-0.039,0.6v0.815h0.84c0.398-0.448,0.6-0.728,0.846-1.199l0.488,0.247
		c-0.344,0.457-0.535,0.688-0.783,0.952h0.912c0.463,0,0.662-0.008,0.887-0.032c-0.023,0.208-0.031,0.408-0.031,0.729v0.463
		c0,0.16,0.008,0.288,0.031,0.447h-0.527V33.4h-5.637v1.175h-0.527c0.023-0.191,0.031-0.344,0.031-0.487v-0.512
		c0-0.256-0.008-0.439-0.031-0.64c0.207,0.024,0.424,0.032,0.838,0.032h0.824c-0.199-0.344-0.408-0.6-0.752-0.943l0.449-0.2
		c0.439,0.496,0.551,0.648,0.838,1.144h0.801V32.153z M119.512,35.727h3.357v-1.231h-3.357V35.727z"/>
</g>
<g>
	<path d="M85.374,41.243c0.391,0.666,0.553,1.025,0.805,1.842l-0.445,0.186c-0.186-0.701-0.449-1.325-0.785-1.859L85.374,41.243z
		 M89.11,41.344c-0.061,0.156-0.061,0.156-0.156,0.57c-0.252,1.104-0.725,2.051-1.367,2.74c-0.455,0.486-0.941,0.84-1.602,1.164
		c-0.119-0.198-0.168-0.252-0.316-0.366c0.67-0.294,1.127-0.605,1.576-1.085c0.623-0.66,1.031-1.512,1.289-2.656
		c0.049-0.223,0.061-0.318,0.072-0.498L89.11,41.344z"/>
	<path d="M90.377,42.976c0.15,0.024,0.24,0.03,0.469,0.03h0.313c0.18,0,0.305-0.006,0.461-0.03c-0.023,0.18-0.029,0.336-0.029,0.636
		v1.176c0.09,0.191,0.162,0.287,0.293,0.383c0.348,0.258,0.707,0.33,1.559,0.33c1.146,0,1.848-0.029,2.412-0.113
		c-0.09,0.215-0.104,0.233-0.139,0.438c-0.533,0.023-1.379,0.042-2.086,0.042c-0.996,0-1.355-0.06-1.74-0.282
		c-0.197-0.113-0.342-0.258-0.498-0.492c-0.27,0.271-0.42,0.396-0.707,0.618c-0.096,0.072-0.145,0.114-0.234,0.198l-0.197-0.396
		c0.264-0.119,0.629-0.389,0.965-0.719v-1.451h-0.395c-0.205,0-0.295,0.006-0.445,0.029V42.976z M90.739,40.709
		c0.389,0.359,0.582,0.576,0.965,1.055l-0.307,0.276c-0.348-0.497-0.527-0.714-0.936-1.091L90.739,40.709z M92.442,41.459
		c-0.283,0-0.445,0.006-0.564,0.029v-0.371c0.139,0.018,0.324,0.029,0.623,0.029h1.051c0-0.203-0.012-0.365-0.043-0.539h0.42
		c-0.029,0.174-0.041,0.329-0.041,0.539h1.162c0.295,0,0.486-0.012,0.625-0.029v0.371c-0.139-0.023-0.307-0.029-0.6-0.029h-1.188
		v0.473h1c0.199,0,0.313-0.006,0.469-0.023c-0.018,0.138-0.023,0.24-0.023,0.408v1.199c0,0.162,0.006,0.258,0.023,0.39
		c-0.145-0.019-0.289-0.024-0.469-0.024h-1v0.492h1.211c0.293,0,0.467-0.006,0.594-0.03v0.372c-0.133-0.024-0.318-0.03-0.6-0.03
		h-1.205v0.114c0,0.191,0.012,0.371,0.041,0.545h-0.42c0.031-0.174,0.043-0.354,0.043-0.545v-0.114h-1.057
		c-0.252,0-0.473,0.013-0.6,0.03v-0.372c0.133,0.024,0.301,0.03,0.6,0.03h1.057v-0.492h-0.906c-0.18,0-0.318,0.006-0.475,0.024
		c0.02-0.138,0.025-0.233,0.025-0.39v-1.212c0-0.155-0.006-0.251-0.025-0.396c0.139,0.018,0.277,0.023,0.469,0.023h0.912v-0.473
		H92.442z M92.543,42.233v0.51h1.008v-0.51H92.543z M92.543,43.03v0.552h1.008V43.03H92.543z M93.887,42.743h1.096v-0.51h-1.096
		V42.743z M93.887,43.582h1.096V43.03h-1.096V43.582z"/>
	<path d="M97.133,41.159c-0.246,0-0.4,0.006-0.551,0.024v-0.378c0.168,0.023,0.324,0.03,0.582,0.03h1.697
		c0.275,0,0.426-0.007,0.58-0.03v0.378c-0.148-0.019-0.305-0.024-0.545-0.024h-0.102v0.846h0.221c0.277,0,0.414-0.006,0.57-0.029
		v0.389c-0.162-0.023-0.299-0.029-0.564-0.029h-0.227v0.875c0,0.246,0.006,0.408,0.023,0.521h0.414
		c-0.029,0.121-0.035,0.229-0.035,0.45v0.097h1.301c0.336,0,0.498-0.006,0.66-0.037v0.402c-0.188-0.023-0.367-0.029-0.654-0.029
		h-1.307v0.814h1.828c0.33,0,0.516-0.006,0.666-0.029v0.414c-0.199-0.024-0.414-0.037-0.684-0.037h-3.881
		c-0.258,0-0.473,0.013-0.672,0.037v-0.414c0.145,0.018,0.348,0.029,0.66,0.029h1.709v-0.814h-1.162
		c-0.289,0-0.475,0.006-0.66,0.029v-0.402c0.162,0.031,0.305,0.037,0.635,0.037h1.188v-0.097c0-0.198-0.006-0.317-0.023-0.419
		h-0.402c0.023-0.145,0.037-0.313,0.037-0.559v-0.869h-0.871c-0.035,0.354-0.102,0.605-0.227,0.894
		c-0.133,0.288-0.289,0.485-0.605,0.761c-0.098-0.131-0.156-0.186-0.289-0.281c0.348-0.275,0.457-0.408,0.582-0.689
		c0.096-0.21,0.139-0.372,0.174-0.684h-0.215c-0.258,0-0.414,0.006-0.564,0.029v-0.389c0.156,0.023,0.313,0.029,0.564,0.029h0.238
		c0.02-0.312,0.025-0.438,0.025-0.846H97.133z M97.614,41.159c0,0.414-0.006,0.57-0.023,0.846h0.846v-0.846H97.614z M99.809,42.94
		c0.023-0.126,0.035-0.3,0.035-0.539v-0.979c0-0.239-0.012-0.401-0.035-0.539h0.438c-0.023,0.132-0.031,0.275-0.031,0.527v1.008
		c0,0.258,0.008,0.396,0.025,0.521H99.809z M101.446,43.366c0,0.359-0.133,0.456-0.611,0.456c-0.193,0-0.391-0.007-0.594-0.024
		c-0.025-0.18-0.049-0.264-0.102-0.396c0.215,0.036,0.426,0.054,0.539,0.054c0.006,0,0.018,0,0.035,0c0.031,0,0.096,0,0.18,0
		c0.139-0.006,0.168-0.029,0.168-0.138v-2.099c0-0.264-0.006-0.408-0.035-0.582h0.455c-0.023,0.132-0.035,0.313-0.035,0.594V43.366z
		"/>
	<path d="M102.588,41.561c0-0.288-0.012-0.498-0.035-0.738c0.197,0.024,0.377,0.03,0.701,0.03h3.586c0.318,0,0.492-0.006,0.713-0.03
		c-0.023,0.223-0.035,0.426-0.035,0.738v3.652c0,0.438,0.012,0.659,0.035,0.82h-0.42v-0.365h-4.162v0.365h-0.418
		c0.023-0.161,0.035-0.377,0.035-0.82V41.561z M102.971,45.327h4.162v-4.132h-4.162V45.327z M103.997,42.083
		c-0.258,0-0.4,0.006-0.563,0.029v-0.383c0.168,0.029,0.299,0.035,0.563,0.035h2.117c0.27,0,0.432-0.012,0.588-0.035v0.383
		c-0.168-0.023-0.311-0.029-0.582-0.029h-0.922v0.93h0.736c0.27,0,0.391-0.006,0.539-0.03v0.378
		c-0.148-0.023-0.287-0.029-0.539-0.029h-0.736v1.097h1.006c0.246,0,0.42-0.013,0.588-0.036v0.396
		c-0.174-0.024-0.354-0.037-0.588-0.037h-2.283c-0.246,0-0.414,0.013-0.594,0.037v-0.396c0.168,0.023,0.342,0.036,0.594,0.036h0.904
		v-1.097h-0.641c-0.252,0-0.396,0.006-0.547,0.029v-0.378c0.15,0.024,0.27,0.03,0.547,0.03h0.641v-0.93H103.997z M105.922,43.438
		c0.246,0.246,0.342,0.377,0.564,0.713l-0.283,0.181c-0.209-0.366-0.305-0.498-0.533-0.743L105.922,43.438z"/>
	<path d="M110.7,42.7c0.516,0.45,0.857,1.361,0.857,2.291c0,0.384-0.061,0.66-0.174,0.798c-0.109,0.132-0.264,0.187-0.559,0.187
		c-0.186,0-0.438-0.019-0.707-0.043c-0.012-0.174-0.037-0.258-0.096-0.401c0.299,0.06,0.551,0.09,0.773,0.09
		c0.305,0,0.389-0.144,0.389-0.72c0-0.174-0.006-0.275-0.023-0.449c-0.635,0.521-1.428,0.917-2.531,1.277
		c-0.076-0.145-0.131-0.223-0.232-0.336c1.084-0.276,2.014-0.732,2.691-1.313c-0.047-0.204-0.09-0.324-0.168-0.504
		c-0.617,0.426-1.355,0.762-2.242,1.02c-0.066-0.144-0.119-0.216-0.223-0.33c0.547-0.132,0.877-0.239,1.373-0.456
		c0.367-0.162,0.631-0.305,0.936-0.521c-0.119-0.191-0.209-0.3-0.348-0.42c-0.443,0.246-0.893,0.426-1.6,0.618
		c-0.084-0.155-0.121-0.21-0.223-0.317c0.936-0.205,1.523-0.432,2.094-0.822h-0.883c-0.215,0-0.402,0.012-0.582,0.03v-0.384
		c0.156,0.023,0.313,0.036,0.582,0.036h2.537c0.281,0,0.438-0.007,0.588-0.036v0.384c-0.18-0.019-0.359-0.03-0.588-0.03h-0.648
		c0.133,0.546,0.193,0.75,0.361,1.121c0.426-0.312,0.791-0.671,0.916-0.893l0.336,0.275c-0.131,0.107-0.131,0.107-0.359,0.324
		c-0.191,0.186-0.359,0.323-0.732,0.605c0.379,0.666,0.822,1.092,1.584,1.535c-0.102,0.09-0.186,0.186-0.293,0.336
		c-0.492-0.354-0.721-0.546-0.973-0.834c-0.449-0.504-0.803-1.157-1.025-1.895c-0.047-0.156-0.072-0.252-0.15-0.576h-0.18
		c-0.174,0.15-0.24,0.198-0.432,0.324L110.7,42.7z M110.819,40.95c0-0.133-0.012-0.24-0.041-0.373h0.467
		c-0.023,0.133-0.035,0.234-0.035,0.367v0.191h1.773c0.258,0,0.414-0.006,0.607-0.024c-0.02,0.114-0.025,0.216-0.025,0.396v0.372
		c0,0.187,0.006,0.282,0.025,0.408H113.2v-0.821h-4.24v0.821h-0.389c0.018-0.138,0.023-0.233,0.023-0.414v-0.366
		c0-0.162-0.006-0.27-0.023-0.396c0.191,0.019,0.342,0.024,0.6,0.024h1.648V40.95z"/>
	<path d="M114.93,43.348c0.084,0.359,0.168,0.563,0.371,0.905c0.174-0.42,0.252-0.696,0.342-1.343h-0.516
		c-0.168,0-0.377,0.006-0.545,0.018c0.432-0.63,0.713-1.121,0.971-1.691h-0.719c-0.168,0-0.275,0.006-0.408,0.03v-0.39
		c0.133,0.023,0.234,0.029,0.414,0.029h0.57c0.221,0,0.342-0.006,0.443-0.023l0.174,0.228c-0.037,0.054-0.072,0.126-0.133,0.246
		c-0.174,0.372-0.461,0.876-0.707,1.229h0.391c0.264,0,0.371-0.006,0.473-0.023c-0.018,0.09-0.018,0.09-0.047,0.299
		c-0.078,0.636-0.246,1.242-0.475,1.728c0.51,0.647,1.15,0.882,2.41,0.882c0.594,0,1.32-0.037,1.871-0.084
		c-0.078,0.18-0.096,0.221-0.125,0.413c-0.445,0.013-1.199,0.024-1.662,0.024c-1.42,0-2.033-0.21-2.662-0.924
		c-0.234,0.408-0.438,0.666-0.834,1.056c-0.096-0.144-0.18-0.228-0.281-0.294c0.426-0.378,0.641-0.642,0.881-1.062
		c-0.143-0.21-0.252-0.413-0.408-0.779c-0.07-0.168-0.07-0.168-0.148-0.33L114.93,43.348z M117.563,41.309h-0.768
		c-0.174,0-0.295,0.006-0.432,0.023v-0.354c0.131,0.023,0.24,0.03,0.443,0.03h0.756c-0.006-0.222-0.012-0.312-0.031-0.456h0.408
		c-0.023,0.126-0.029,0.234-0.029,0.456h0.947c0.197,0,0.33-0.007,0.438-0.019c0,0.03,0,0.03-0.006,0.103
		c-0.006,0.06-0.006,0.186-0.006,0.276v0.426h0.029c0.188,0,0.307-0.013,0.451-0.037v0.36c-0.133-0.019-0.246-0.024-0.451-0.024
		h-0.029v0.492c0,0.126,0.006,0.281,0.012,0.342c-0.191-0.012-0.27-0.012-0.426-0.012h-0.959v0.516h0.959
		c0.205,0,0.365-0.006,0.533-0.03v0.354c-0.154-0.018-0.305-0.024-0.539-0.024h-0.953v0.528h1.229c0.246,0,0.408-0.012,0.559-0.036
		v0.366c-0.145-0.019-0.313-0.024-0.559-0.024h-1.229v0.15c0,0.264,0.006,0.401,0.029,0.558h-0.408
		c0.02-0.168,0.031-0.306,0.031-0.552v-0.156h-0.959c-0.234,0-0.367,0.006-0.535,0.03v-0.372c0.145,0.024,0.307,0.036,0.541,0.036
		h0.953v-0.528h-0.805c-0.191,0-0.348,0.013-0.49,0.031v-0.36c0.143,0.024,0.299,0.03,0.49,0.03h0.805v-0.516h-0.785
		c-0.168,0-0.277,0.006-0.42,0.023v-0.354c0.125,0.023,0.227,0.029,0.438,0.029h0.768v-0.521h-1.002
		c-0.252,0-0.402,0.006-0.551,0.03v-0.366c0.154,0.024,0.287,0.037,0.557,0.037h0.996V41.309z M118.936,41.795v-0.486h-1.025v0.486
		H118.936z M117.911,42.616h1.025v-0.521h-1.025V42.616z"/>
	<path d="M120.432,41.609c0.139,0.024,0.252,0.03,0.48,0.03h1.145c0.246,0,0.342-0.006,0.48-0.03v0.401
		c-0.121-0.018-0.223-0.023-0.438-0.023h-1.188c-0.205,0-0.324,0.006-0.48,0.023V41.609z M120.635,40.782
		c0.145,0.023,0.246,0.029,0.457,0.029h0.809c0.205,0,0.313-0.006,0.457-0.029v0.377c-0.15-0.018-0.264-0.023-0.457-0.023h-0.809
		c-0.186,0-0.324,0.006-0.457,0.023V40.782z M120.635,46.028c0.025-0.174,0.037-0.342,0.037-0.581v-0.81
		c0-0.21-0.006-0.348-0.029-0.504c0.154,0.018,0.305,0.023,0.479,0.023h0.785c0.258,0,0.33,0,0.439-0.018
		c-0.014,0.139-0.02,0.246-0.02,0.475v0.845c0,0.187,0.006,0.336,0.031,0.491h-0.373v-0.245h-0.965v0.323H120.635z M120.643,42.472
		c0.113,0.019,0.221,0.024,0.432,0.024h0.846c0.215,0,0.299-0.006,0.426-0.024v0.366c-0.145-0.018-0.24-0.024-0.426-0.024h-0.846
		c-0.199,0-0.295,0.007-0.432,0.024V42.472z M120.643,43.299c0.119,0.019,0.221,0.024,0.432,0.024h0.846
		c0.203,0,0.316-0.006,0.426-0.024v0.366c-0.168-0.019-0.223-0.024-0.426-0.024h-0.846c-0.205,0-0.295,0.006-0.432,0.024V43.299z
		 M121.02,45.393h0.965v-0.924h-0.965V45.393z M125.417,43.372c-0.037,0.061-0.037,0.061-0.115,0.223
		c-0.215,0.461-0.516,0.887-0.881,1.265c0.426,0.33,0.846,0.54,1.506,0.749c-0.098,0.139-0.15,0.229-0.217,0.379
		c-0.713-0.282-1.109-0.498-1.553-0.87c-0.408,0.354-0.883,0.63-1.523,0.882c-0.072-0.15-0.127-0.223-0.234-0.33
		c0.617-0.21,1.063-0.449,1.494-0.797c-0.414-0.414-0.582-0.672-0.889-1.367c-0.162,0.006-0.232,0.012-0.359,0.029v-0.39
		c0.119,0.024,0.252,0.03,0.426,0.03h1.674c0.252,0,0.359-0.006,0.449-0.024L125.417,43.372z M123.557,41.147
		c-0.018,0.648-0.09,0.965-0.289,1.325c-0.125,0.228-0.246,0.366-0.49,0.558c-0.109-0.113-0.199-0.191-0.307-0.252
		c0.313-0.209,0.467-0.396,0.588-0.713c0.096-0.246,0.139-0.516,0.139-0.912c0-0.144-0.008-0.203-0.031-0.359
		c0.162,0.018,0.313,0.023,0.469,0.023h0.73c0.217,0,0.373-0.006,0.51-0.023c-0.018,0.168-0.023,0.324-0.023,0.563v0.936
		c0,0.103,0.055,0.126,0.252,0.126c0.246,0,0.318-0.018,0.348-0.084c0.055-0.102,0.084-0.318,0.096-0.672
		c0.145,0.096,0.197,0.12,0.33,0.162c-0.035,0.486-0.096,0.707-0.211,0.81c-0.09,0.078-0.238,0.108-0.58,0.108
		c-0.486,0-0.594-0.061-0.594-0.33v-1.266H123.557z M123.358,43.504c0.217,0.484,0.396,0.743,0.799,1.127
		c0.348-0.348,0.551-0.636,0.785-1.127H123.358z"/>
</g>
<g>
	<path d="M47.602,4.004c-0.145,0.104-0.152,0.12-0.353,0.335c-0.503,0.528-1.183,1.111-1.87,1.607v3.406
		c0,0.456,0.008,0.631,0.04,0.847h-0.696c0.04-0.208,0.048-0.392,0.048-0.832V6.331c-1.039,0.64-1.623,0.903-3.086,1.399
		c-0.112-0.256-0.152-0.335-0.312-0.536c1.503-0.392,2.886-1.079,4.149-2.071c0.743-0.576,1.304-1.135,1.527-1.511L47.602,4.004z"/>
	<path d="M52.028,4.332c-0.056-0.336-0.096-0.488-0.176-0.68l0.632-0.112c0.008,0.2,0.023,0.352,0.088,0.688l0.159,0.879l1.808-0.28
		c0.351-0.056,0.519-0.096,0.703-0.16l0.112,0.576c-0.216,0.016-0.216,0.016-0.711,0.096l-1.814,0.288l0.304,1.607l1.982-0.32
		c0.36-0.056,0.592-0.104,0.792-0.176l0.111,0.592c-0.159,0.008-0.207,0.016-0.352,0.032c-0.031,0.008-0.111,0.024-0.248,0.048
		c-0.088,0.008-0.128,0.016-0.184,0.024l-2.006,0.319l0.328,1.775c0.071,0.416,0.096,0.503,0.176,0.751l-0.64,0.128
		c-0.008-0.224-0.04-0.424-0.096-0.768L52.667,7.85l-2.143,0.336c-0.456,0.08-0.504,0.088-0.768,0.168l-0.104-0.608
		c0.264,0,0.464-0.024,0.792-0.072l2.127-0.344l-0.288-1.615l-1.647,0.256c-0.327,0.056-0.592,0.112-0.799,0.176L49.725,5.54
		c0.264-0.008,0.472-0.024,0.831-0.08l1.632-0.264L52.028,4.332z M54.499,3.269c0.271,0.336,0.447,0.6,0.695,1.071l-0.432,0.176
		c-0.215-0.448-0.399-0.744-0.687-1.087L54.499,3.269z M55.329,2.973c0.28,0.336,0.448,0.6,0.696,1.08L55.594,4.22
		c-0.216-0.44-0.4-0.744-0.68-1.087L55.329,2.973z"/>
	<path d="M59.332,3.788C59.308,3.98,59.3,4.084,59.3,4.452v2.15c0,0.384,0.008,0.472,0.032,0.664h-0.664
		C58.692,7.083,58.7,6.915,58.7,6.595V4.46c0-0.344-0.008-0.479-0.032-0.672H59.332z M62.874,3.788
		c-0.032,0.184-0.04,0.312-0.04,0.696v0.943c0,1.271-0.057,1.975-0.2,2.439c-0.231,0.751-0.735,1.335-1.52,1.775
		c-0.392,0.224-0.775,0.376-1.455,0.576c-0.088-0.232-0.136-0.312-0.336-0.552c0.72-0.16,1.104-0.296,1.52-0.543
		c0.744-0.432,1.127-0.944,1.279-1.687c0.088-0.456,0.112-0.824,0.112-2.039V4.492c0-0.416-0.009-0.528-0.032-0.704H62.874z"/>
	<path d="M71.538,10.033c-0.633-0.807-1.535-1.679-2.559-2.47c-0.561,0.64-0.951,1.007-1.527,1.431
		c-0.553,0.399-0.975,0.664-1.567,0.959c-0.128-0.24-0.192-0.328-0.392-0.528c0.615-0.248,1.007-0.464,1.623-0.919
		c1.279-0.943,2.271-2.207,2.854-3.606c0.018-0.048,0.025-0.056,0.041-0.096c0.016-0.024,0.016-0.032,0.023-0.056
		c-0.072,0.008-0.096,0.008-0.191,0.008l-2.67,0.04c-0.361,0.008-0.592,0.024-0.824,0.064l-0.017-0.648
		c0.216,0.032,0.36,0.04,0.631,0.04c0.025,0,0.096,0,0.209,0l2.854-0.032c0.279-0.008,0.377-0.016,0.512-0.064L70.874,4.5
		c-0.08,0.096-0.137,0.192-0.225,0.392c-0.447,0.992-0.822,1.623-1.318,2.239c1.047,0.8,1.752,1.431,2.662,2.399L71.538,10.033z"/>
</g>
<path fill="none" stroke="#000000" stroke-width="0.75" stroke-miterlimit="10" d="M37.042,7.581c0,3.131-2.538,5.669-5.669,5.669
	H6.044c-3.131,0-5.669-2.538-5.669-5.669V6.419c0-3.131,2.538-5.669,5.669-5.669h25.329c3.131,0,5.669,2.538,5.669,5.669V7.581z"/>
<path fill="none" stroke="#000000" stroke-width="0.75" stroke-miterlimit="10" d="M75.631,7.581c0,3.131-2.539,5.669-5.67,5.669
	H44.633c-3.131,0-5.669-2.538-5.669-5.669V6.419c0-3.131,2.538-5.669,5.669-5.669h25.329c3.131,0,5.67,2.538,5.67,5.669V7.581z"/>
<path fill="none" stroke="#000000" stroke-width="0.75" stroke-miterlimit="10" d="M118.202,6.627c0,3.451-2.555,6.25-5.703,6.25
	H98.395c-3.15,0-5.705-2.799-5.705-6.25l0,0c0-3.453,2.555-6.252,5.705-6.252h14.104C115.647,0.375,118.202,3.174,118.202,6.627
	L118.202,6.627z"/>
<rect x="6.676" y="29.581" fill="none" stroke="#000000" stroke-width="0.75" stroke-miterlimit="10" width="60.333" height="18.84"/>
<rect x="80.713" y="29.581" fill="none" stroke="#000000" stroke-width="0.75" stroke-miterlimit="10" width="50.041" height="18.84"/>
<path fill="#FF0000" stroke="#F9FF00" stroke-width="0.75" stroke-linecap="round" stroke-linejoin="round" stroke-miterlimit="10" d="
	M73.381,49.102c-0.525-2.734-1.115-3.182-1.684-3.182c-0.262,0-0.494,0.127-0.693,0.309c-0.133-0.502-0.404-0.979-0.992-0.979
	c-0.488,0-1.064,0.366-1.828,0.968c0.426-0.99,0.549-1.604,0.295-2.038c-0.275-0.469-0.857-0.469-1.049-0.469
	c-0.318,0-0.725,0.056-1.262,0.174c0.387-0.604,0.493-1.112,0.321-1.539c-0.254-0.631-1.058-0.938-2.459-0.939
	c0.922-0.572,1.381-1.155,1.366-1.745c-0.011-0.424-0.249-0.797-0.721-1.129c0.541-0.135,0.881-0.389,1.027-0.766
	c0.238-0.617-0.087-1.408-1.081-2.558c0.292,0.046,0.56,0.069,0.801,0.069c0.84,0,1.41-0.274,1.695-0.818
	c0.334-0.635,0.219-1.576-0.357-2.85c1.047,0.767,1.854,1.121,2.525,1.121c0.783,0,1.365-0.471,1.74-1.404
	c0.559,0.924,1.053,1.33,1.588,1.33c0.791,0,1.461-0.834,2.395-3.076c0.299,1.773,0.848,3.166,2.113,3.166
	c0.473,0,1.021-0.204,1.709-0.644c-0.064,0.37-0.025,0.665,0.111,0.896c0.119,0.201,0.369,0.439,0.885,0.439
	c0.713,0,1.736-0.469,2.605-0.957c-0.498,0.848-0.813,1.538-0.518,2.094c0.266,0.506,0.928,0.619,1.482,0.639
	c-1.449,0.881-1.605,1.392-1.523,1.777c0.141,0.662,1.092,0.777,1.959,0.789c-1.07,0.498-1.553,0.915-1.525,1.465
	c0.025,0.576,0.635,1.027,2.15,1.529c-2.125,0.502-2.941,0.869-3.174,1.529c-0.172,0.499,0.051,1.013,0.49,1.658
	c-0.09-0.01-0.178-0.018-0.262-0.018c-0.682,0-0.963,0.373-1.068,0.594c-0.246,0.516-0.084,1.219,0.25,1.941
	c-0.742-0.465-1.578-0.863-2.268-0.863c-0.553,0-0.861,0.256-1.023,0.471c-0.123,0.165-0.209,0.362-0.258,0.598
	c-0.488-0.705-0.945-1.06-1.363-1.06c-0.215,0-0.412,0.089-0.57,0.257c-0.145,0.155-0.254,0.381-0.332,0.675
	c-0.125-0.142-0.264-0.215-0.43-0.215C73.999,46.341,73.711,46.655,73.381,49.102L73.381,49.102z"/>
<g>
	<g>
		
			<line fill="none" stroke="#000000" stroke-width="0.75" stroke-linecap="round" stroke-linejoin="round" x1="18.711" y1="13.254" x2="18.711" y2="28.68"/>
		<g>
			<path d="M15.111,23.553c0.174-0.111,0.406-0.059,0.518,0.116l3.082,4.839l3.082-4.839c0.111-0.175,0.344-0.228,0.518-0.116
				c0.175,0.111,0.225,0.346,0.115,0.52l-3.398,5.334c-0.068,0.109-0.188,0.174-0.316,0.174s-0.248-0.064-0.316-0.174l-3.398-5.334
				c-0.039-0.063-0.059-0.133-0.059-0.202C14.938,23.746,14.999,23.625,15.111,23.553z"/>
		</g>
	</g>
</g>
<g>
	<g>
		
			<line fill="none" stroke="#000000" stroke-width="0.75" stroke-linecap="round" stroke-linejoin="round" x1="57.293" y1="13.254" x2="57.293" y2="28.68"/>
		<g>
			<path d="M53.693,23.553c0.174-0.111,0.406-0.059,0.518,0.116l3.082,4.839l3.082-4.839c0.111-0.175,0.344-0.228,0.518-0.116
				c0.175,0.111,0.225,0.346,0.115,0.52l-3.398,5.334c-0.068,0.109-0.188,0.174-0.316,0.174s-0.248-0.064-0.316-0.174l-3.398-5.334
				c-0.039-0.063-0.059-0.133-0.059-0.202C53.52,23.746,53.581,23.625,53.693,23.553z"/>
		</g>
	</g>
</g>
<g>
	<path d="M94.333,18.761c0.365,0,0.568,0.182,0.568,0.441c0,0.112-0.043,0.238-0.127,0.378c-0.344,0.567-0.834,1.086-1.422,1.534
		c0.707,0.441,1.541,0.749,2.41,0.917c0.146,0.028,0.225,0.119,0.225,0.252c0,0.035-0.008,0.07-0.016,0.105
		c-0.035,0.161-0.139,0.245-0.279,0.245c-0.035,0-0.063-0.007-0.098-0.014c-0.961-0.203-1.906-0.602-2.703-1.176
		c-0.834,0.539-1.801,0.945-2.809,1.169c-0.035,0.007-0.07,0.007-0.1,0.007c-0.139,0-0.252-0.07-0.287-0.217
		c-0.006-0.035-0.014-0.063-0.014-0.091c0-0.14,0.084-0.245,0.232-0.273c0.889-0.182,1.758-0.511,2.514-0.953
		c-0.385-0.336-0.736-0.721-1.023-1.148c-0.146-0.217-0.258-0.448-0.371-0.687h-0.707c-0.125,0-0.195-0.098-0.195-0.245
		s0.07-0.245,0.195-0.245h2.158v-1.037h-2.57c-0.127,0-0.211-0.105-0.211-0.259c0-0.154,0.084-0.259,0.211-0.259h2.57v-0.833
		c0-0.126,0.098-0.21,0.266-0.21c0.176,0,0.266,0.084,0.266,0.21v0.833h2.711c0.133,0,0.209,0.105,0.209,0.259
		c0,0.154-0.076,0.259-0.209,0.259h-2.711v1.037H94.333z M91.616,19.251c0.287,0.616,0.742,1.121,1.268,1.541
		c0.547-0.385,1.008-0.84,1.33-1.345c0.029-0.049,0.043-0.084,0.043-0.112c0-0.056-0.049-0.084-0.154-0.084H91.616z"/>
	<path d="M98.44,17.536c0.119,0,0.189,0.098,0.189,0.238c0,0.147-0.07,0.245-0.189,0.245h-0.482v1.218
		c0.111-0.056,0.217-0.105,0.314-0.161c0.035-0.021,0.078-0.028,0.113-0.028c0.076,0,0.146,0.049,0.182,0.133
		c0.021,0.042,0.027,0.084,0.027,0.126c0,0.084-0.035,0.161-0.141,0.217c-0.146,0.084-0.314,0.168-0.496,0.252v2.213
		c0,0.427-0.176,0.609-0.637,0.609c-0.17,0-0.344-0.021-0.463-0.049c-0.113-0.028-0.182-0.105-0.182-0.231
		c0-0.021,0-0.049,0.006-0.077c0.029-0.119,0.113-0.175,0.189-0.175c0.014,0,0.021,0,0.035,0.007
		c0.098,0.021,0.238,0.042,0.336,0.042c0.168,0,0.203-0.028,0.203-0.217v-1.898c-0.209,0.084-0.412,0.161-0.602,0.231
		c-0.035,0.007-0.07,0.014-0.1,0.014c-0.098,0-0.168-0.063-0.209-0.189c-0.014-0.042-0.021-0.077-0.021-0.112
		c0-0.105,0.057-0.182,0.162-0.21c0.244-0.077,0.51-0.168,0.77-0.273v-1.442H96.76c-0.133,0-0.197-0.098-0.197-0.238
		s0.064-0.245,0.197-0.245h0.686v-1.184c0-0.133,0.098-0.203,0.26-0.203c0.16,0,0.252,0.07,0.252,0.203v1.184H98.44z
		 M102.069,20.127c0.314,0,0.482,0.133,0.482,0.329c0,0.112-0.049,0.238-0.154,0.378c-0.23,0.315-0.531,0.595-0.867,0.84
		c0.42,0.21,0.883,0.371,1.406,0.497c0.127,0.021,0.189,0.105,0.189,0.224c0,0.028-0.006,0.063-0.014,0.098
		c-0.035,0.133-0.119,0.196-0.23,0.196c-0.029,0-0.057-0.007-0.092-0.014c-0.637-0.182-1.205-0.413-1.701-0.714
		c-0.525,0.308-1.113,0.54-1.688,0.687c-0.043,0.007-0.078,0.014-0.113,0.014c-0.105,0-0.174-0.049-0.225-0.168
		c-0.006-0.035-0.014-0.063-0.014-0.091c0-0.098,0.064-0.182,0.176-0.21c0.504-0.126,0.988-0.301,1.422-0.525
		c-0.344-0.259-0.652-0.574-0.904-0.932c-0.309,0.687-0.729,1.282-1.219,1.744c-0.055,0.056-0.125,0.084-0.195,0.084
		c-0.057,0-0.119-0.021-0.168-0.07c-0.057-0.056-0.092-0.126-0.092-0.189s0.029-0.126,0.084-0.175
		c0.701-0.616,1.213-1.492,1.457-2.542h-0.729c-0.105,0-0.168-0.098-0.168-0.224c0-0.126,0.063-0.224,0.168-0.224h0.82
		c0.027-0.175,0.049-0.357,0.055-0.54h-0.797c-0.105,0-0.168-0.091-0.168-0.217c0-0.112,0.063-0.203,0.168-0.203h2.563
		c0.266-0.393,0.441-0.764,0.582-1.093c0.041-0.105,0.125-0.161,0.217-0.161c0.035,0,0.076,0.007,0.111,0.021
		c0.113,0.049,0.176,0.119,0.176,0.21c0,0.035-0.008,0.077-0.027,0.112c-0.127,0.266-0.309,0.581-0.541,0.911h0.701
		c0.105,0,0.168,0.084,0.168,0.203c0,0.126-0.063,0.217-0.168,0.217h-2.465c-0.014,0.182-0.035,0.357-0.063,0.54h2.654
		c0.104,0,0.168,0.098,0.168,0.224c0,0.126-0.064,0.224-0.168,0.224h-2.74c-0.049,0.182-0.098,0.364-0.152,0.539H102.069z
		 M102.502,16.191c0.105,0,0.182,0.07,0.211,0.182c0.006,0.035,0.014,0.063,0.014,0.098c0,0.105-0.063,0.182-0.182,0.21
		c-1.121,0.259-2.494,0.364-3.691,0.385c-0.162,0-0.23-0.098-0.23-0.231c0-0.007,0-0.007,0-0.014c0-0.126,0.084-0.224,0.203-0.224
		c1.148-0.007,2.535-0.133,3.605-0.399C102.454,16.191,102.475,16.191,102.502,16.191z M99.366,17.178
		c0.084,0,0.146,0.042,0.209,0.126c0.092,0.126,0.182,0.301,0.238,0.448c0.008,0.035,0.014,0.07,0.014,0.098
		c0,0.091-0.055,0.154-0.16,0.196c-0.035,0.014-0.078,0.021-0.105,0.021c-0.098,0-0.176-0.049-0.211-0.147
		c-0.049-0.133-0.139-0.301-0.217-0.435c-0.02-0.035-0.027-0.07-0.027-0.098c0-0.084,0.049-0.154,0.141-0.182
		C99.288,17.186,99.331,17.178,99.366,17.178z M100.122,20.547c0.279,0.336,0.596,0.63,0.959,0.868
		c0.336-0.21,0.623-0.462,0.834-0.735c0.027-0.035,0.041-0.063,0.041-0.084c0-0.035-0.035-0.049-0.119-0.049H100.122z
		 M100.612,17.102c0.092,0,0.16,0.042,0.211,0.119c0.104,0.161,0.188,0.351,0.23,0.504c0.006,0.042,0.014,0.07,0.014,0.105
		c0,0.098-0.057,0.168-0.16,0.196c-0.035,0.014-0.078,0.021-0.105,0.021c-0.092,0-0.162-0.049-0.197-0.154
		c-0.041-0.14-0.133-0.329-0.217-0.476c-0.021-0.042-0.035-0.077-0.035-0.112c0-0.084,0.057-0.154,0.154-0.189
		C100.542,17.108,100.577,17.102,100.612,17.102z"/>
</g>
<g>
	<g>
		
			<line fill="none" stroke="#000000" stroke-width="0.75" stroke-linecap="round" stroke-linejoin="round" x1="104.936" y1="13.254" x2="104.936" y2="28.68"/>
		<g>
			<path d="M101.336,23.553c0.174-0.111,0.406-0.059,0.518,0.116l3.082,4.839l3.082-4.839c0.111-0.175,0.344-0.228,0.518-0.116
				c0.176,0.111,0.225,0.346,0.115,0.52l-3.398,5.334c-0.068,0.109-0.188,0.174-0.316,0.174c-0.127,0-0.248-0.064-0.316-0.174
				l-3.398-5.334c-0.039-0.063-0.059-0.133-0.059-0.202C101.163,23.746,101.225,23.625,101.336,23.553z"/>
		</g>
	</g>
</g>
<g>
	<path fill="#FFFFFF" d="M70.442,37.073c-0.008,0.084-0.021,0.168-0.035,0.252c0,0.021-0.006,0.049-0.006,0.07
		c0.398,1.029,1.057,1.716,1.896,2.213c0.078,0.049,0.127,0.133,0.127,0.225c0,0.057-0.014,0.111-0.049,0.168
		c-0.064,0.105-0.154,0.154-0.246,0.154c-0.055,0-0.105-0.014-0.146-0.042c-0.777-0.505-1.395-1.19-1.752-1.982
		c-0.266,0.833-0.832,1.541-1.666,2.073c-0.049,0.035-0.098,0.049-0.154,0.049c-0.09,0-0.182-0.049-0.244-0.146
		c-0.035-0.043-0.049-0.099-0.049-0.147c0-0.099,0.049-0.183,0.133-0.231c0.805-0.455,1.352-1.155,1.547-2.017
		c0.049-0.196,0.084-0.406,0.113-0.638h-1.773c-0.154,0-0.23,0.049-0.23,0.203v4.545c0,0.127-0.119,0.211-0.281,0.211
		c-0.152,0-0.279-0.084-0.279-0.211v-4.629c0-0.42,0.238-0.623,0.672-0.623h1.934c0.008-0.238,0.014-0.504,0.014-0.799
		c0-0.133,0.113-0.21,0.266-0.21c0.176,0,0.281,0.077,0.281,0.218c0,0.287-0.008,0.553-0.021,0.791h2.004
		c0.426,0,0.672,0.203,0.672,0.623v4.034c0,0.483-0.273,0.693-0.855,0.693c-0.301,0-0.607-0.028-0.867-0.077
		c-0.127-0.021-0.203-0.111-0.203-0.252c0-0.021,0-0.042,0.006-0.063c0.021-0.154,0.119-0.231,0.232-0.231
		c0.014,0,0.027,0,0.049,0.007c0.195,0.042,0.477,0.084,0.68,0.084c0.357,0,0.412-0.063,0.412-0.301v-3.811
		c0-0.154-0.076-0.203-0.23-0.203H70.442z"/>
	<path fill="#FFFFFF" d="M74.815,39.7c-0.391,0-0.58-0.154-0.58-0.547v-1.625c0-0.385,0.189-0.539,0.574-0.539h1.555
		c0.309-0.428,0.512-0.834,0.664-1.19c0.043-0.104,0.113-0.154,0.203-0.154c0.043,0,0.084,0.007,0.135,0.028
		c0.111,0.042,0.168,0.111,0.168,0.195c0,0.035-0.008,0.07-0.029,0.113c-0.146,0.314-0.371,0.664-0.615,1.008h0.055
		c0.393,0,0.574,0.154,0.574,0.539v1.633c0,0.385-0.182,0.539-0.566,0.539h-0.848v0.602h1.352c0.133,0,0.197,0.092,0.197,0.231
		c0,0.147-0.064,0.245-0.197,0.245h-1.352v1.135c0,0.126-0.09,0.189-0.252,0.189c-0.154,0-0.238-0.063-0.238-0.189v-1.135h-1.463
		c-0.127,0-0.197-0.098-0.197-0.245c0-0.133,0.07-0.231,0.197-0.231h1.463V39.7H74.815z M74.424,35.694
		c0.084,0,0.146,0.041,0.201,0.125c0.148,0.211,0.281,0.47,0.373,0.715c0.014,0.035,0.02,0.07,0.02,0.105
		c0,0.091-0.049,0.16-0.139,0.203c-0.051,0.021-0.1,0.035-0.141,0.035c-0.092,0-0.162-0.05-0.197-0.147
		c-0.098-0.238-0.236-0.497-0.363-0.708c-0.021-0.035-0.035-0.076-0.035-0.111c0-0.077,0.063-0.147,0.154-0.189
		C74.346,35.7,74.381,35.694,74.424,35.694z M74.899,37.417c-0.119,0-0.182,0.041-0.182,0.168v0.539h0.896v-0.707H74.899z
		 M74.717,38.537v0.567c0,0.126,0.063,0.168,0.182,0.168h0.715v-0.735H74.717z M75.6,35.581c0.076,0,0.146,0.043,0.195,0.127
		c0.141,0.23,0.273,0.539,0.352,0.784c0.006,0.028,0.014,0.056,0.014,0.077c0,0.098-0.057,0.175-0.162,0.217
		c-0.041,0.014-0.084,0.021-0.119,0.021c-0.09,0-0.16-0.043-0.195-0.141c-0.076-0.245-0.217-0.532-0.336-0.764
		c-0.021-0.035-0.027-0.069-0.027-0.098c0-0.084,0.063-0.154,0.16-0.195C75.522,35.588,75.565,35.581,75.6,35.581z M77.049,38.124
		v-0.539c0-0.127-0.063-0.168-0.182-0.168h-0.764v0.707H77.049z M76.868,39.272c0.119,0,0.182-0.042,0.182-0.168v-0.567h-0.945
		v0.735H76.868z M78.856,38.053c0.016,0.147,0.021,0.295,0.035,0.441c0.035,0.428,0.092,0.819,0.168,1.162
		c0.219-0.328,0.4-0.679,0.555-1.064c0.041-0.104,0.111-0.154,0.203-0.154c0.035,0,0.07,0.008,0.111,0.021
		c0.111,0.043,0.162,0.112,0.162,0.211c0,0.041-0.008,0.084-0.029,0.133c-0.225,0.531-0.512,1.022-0.848,1.463
		c0.154,0.484,0.336,0.848,0.525,1.072c0.049,0.063,0.078,0.091,0.105,0.091c0.035,0,0.057-0.034,0.092-0.112
		c0.055-0.133,0.111-0.398,0.139-0.658c0.016-0.133,0.105-0.21,0.225-0.21c0.008,0,0.014,0,0.027,0
		c0.135,0.015,0.225,0.091,0.225,0.231c0,0.007,0,0.021,0,0.027c-0.035,0.33-0.133,0.757-0.273,1.016
		c-0.09,0.189-0.244,0.28-0.406,0.28c-0.16,0-0.336-0.091-0.49-0.28c-0.203-0.244-0.391-0.581-0.545-1.008
		c-0.428,0.469-0.926,0.868-1.451,1.176c-0.055,0.028-0.104,0.043-0.154,0.043c-0.076,0-0.152-0.043-0.209-0.127
		c-0.035-0.049-0.049-0.098-0.049-0.146c0-0.077,0.041-0.154,0.133-0.203c0.596-0.344,1.127-0.771,1.563-1.281
		c-0.119-0.441-0.211-0.946-0.268-1.514c-0.02-0.182-0.035-0.371-0.049-0.561l-0.525,0.049c-0.006,0-0.014,0-0.02,0
		c-0.113,0-0.184-0.098-0.189-0.224c0-0.007,0-0.014,0-0.021c0-0.133,0.055-0.225,0.174-0.238l0.533-0.049
		c-0.027-0.568-0.043-1.17-0.043-1.801c0-0.146,0.1-0.224,0.246-0.224c0.154,0,0.266,0.077,0.266,0.224
		c0,0.596,0.014,1.191,0.035,1.744l1.379-0.133c0.008,0,0.016,0,0.021,0c0.113,0,0.189,0.091,0.197,0.217c0,0.008,0,0.021,0,0.028
		c0,0.126-0.049,0.224-0.162,0.238L78.856,38.053z M80.139,36.744c0.027,0.05,0.041,0.099,0.041,0.14
		c0,0.092-0.041,0.162-0.125,0.211c-0.043,0.021-0.084,0.035-0.127,0.035c-0.092,0-0.176-0.049-0.217-0.133
		c-0.133-0.246-0.357-0.575-0.518-0.777c-0.035-0.043-0.057-0.092-0.057-0.141c0-0.077,0.041-0.147,0.111-0.189
		c0.043-0.027,0.092-0.042,0.133-0.042c0.07,0,0.141,0.028,0.189,0.091C79.768,36.176,80.012,36.512,80.139,36.744z"/>
</g>
</svg>
