<?xml version="1.0" encoding="utf-8"?>
<!-- Generator: Adobe Illustrator 16.0.0, SVG Export Plug-In . SVG Version: 6.00 Build 0)  -->
<!DOCTYPE svg PUBLIC "-//W3C//DTD SVG 1.1//EN" "http://www.w3.org/Graphics/SVG/1.1/DTD/svg11.dtd">
<svg version="1.1" id="レイヤー_8" xmlns="http://www.w3.org/2000/svg" xmlns:xlink="http://www.w3.org/1999/xlink" x="0px"
	 y="0px" width="170.463px" height="129.744px" viewBox="215 153.231 170.463 129.744"
	 enable-background="new 215 153.231 170.463 129.744" xml:space="preserve">
<g>
	<defs>
		<rect id="SVGID_1_" x="215" y="153.231" width="170.463" height="129.744"/>
	</defs>
	<clipPath id="SVGID_2_">
		<use xlink:href="#SVGID_1_"  overflow="visible"/>
	</clipPath>
	
		<line clip-path="url(#SVGID_2_)" fill="none" stroke="#FFAA00" stroke-miterlimit="10" x1="357.716" y1="203.053" x2="352.125" y2="193.689"/>
	<path clip-path="url(#SVGID_2_)" fill="none" stroke="#B322FF" stroke-miterlimit="10" d="M305.5,214.189
		c0,0,7.547,12.89,13.975,14.842c4.396,1.335,20.608,6.7,35.334-0.853"/>
	<path clip-path="url(#SVGID_2_)" fill="none" stroke="#16EF25" stroke-miterlimit="10" d="M354.809,228.188l-20.434-14.249
		c-15.5-15.25-28.875,0.25-28.875,0.25c-5.375-7.375-11.125,8.875-13.875,14.125c-5.009,9.562-5.375,10.375-24.125,10.75
		c-13.122,0.263-26.25,15.25-26.25,15.25"/>
	<path clip-path="url(#SVGID_2_)" fill="none" stroke="#FF1010" stroke-miterlimit="10" d="M354.809,228.18l0.017,1.135
		c0,0,0.925,6.259-11.825,11.384l-15.625,5.679c0,0-4.125,1.438-10.75,6.063s-8.25,8.25-22.5,8.25l-9-0.875
		c0,0-12.75-15.625-22.75-8.25l-5.75,9.125c0,0-1.75,2.125-15.375-6.375l-3,1.5l-4.375-2.875L223.5,264.564"/>
	<polyline clip-path="url(#SVGID_2_)" fill="none" stroke="#2488FF" stroke-miterlimit="10" points="369.9,169.564 363.917,183.898 
		354.583,212.731 354.809,228.18 	"/>
	<circle clip-path="url(#SVGID_2_)" stroke="#000000" stroke-miterlimit="10" cx="233.457" cy="253.441" r="2.041"/>
	<circle clip-path="url(#SVGID_2_)" stroke="#000000" stroke-miterlimit="10" cx="352.125" cy="193.689" r="2.041"/>
	<circle clip-path="url(#SVGID_2_)" stroke="#000000" stroke-miterlimit="10" cx="354.583" cy="227.972" r="2.041"/>
	<circle clip-path="url(#SVGID_2_)" stroke="#000000" stroke-miterlimit="10" cx="369.675" cy="169.356" r="2.041"/>
	<circle clip-path="url(#SVGID_2_)" stroke="#000000" stroke-miterlimit="10" cx="224.582" cy="263.941" r="2.041"/>
	<path clip-path="url(#SVGID_2_)" d="M364.012,157.777c0.299-0.53,0.499-1.02,0.609-1.489l0.739,0.15
		c-0.03,0.05-0.03,0.05-0.08,0.18c-0.159,0.4-0.37,0.82-0.56,1.16h2.619c0.52,0,0.809-0.01,1.169-0.05
		c-0.04,0.35-0.05,0.65-0.05,1.239v5.107c0,0.609,0.01,0.899,0.06,1.189h-0.729v-0.58h-5.428v0.58h-0.729
		c0.039-0.3,0.06-0.61,0.06-1.209v-5.087c0-0.56-0.011-0.919-0.05-1.239c0.34,0.04,0.64,0.05,1.149,0.05H364.012z M362.361,160.795
		h5.428v-2.409h-5.428V160.795z M362.361,164.063h5.428v-2.658h-5.428V164.063z"/>
	<path clip-path="url(#SVGID_2_)" d="M370.443,158.827c0.689,0.419,1.109,0.739,1.778,1.349l-0.409,0.55
		c-0.67-0.68-1.061-1-1.77-1.419L370.443,158.827z M372.242,162.085c-0.48,1.229-0.77,1.829-1.32,2.748
		c-0.06,0.1-0.129,0.22-0.229,0.4l-0.589-0.53c0.51-0.529,1.109-1.659,1.608-3.008L372.242,162.085z M370.922,156.458
		c0.71,0.47,1.15,0.819,1.67,1.349l-0.4,0.52c-0.569-0.609-0.93-0.919-1.679-1.429L370.922,156.458z M373.701,157.457
		c-0.42,0-0.79,0.02-1.05,0.06v-0.719c0.25,0.04,0.61,0.06,1.06,0.06h4.328c0.459,0,0.809-0.02,1.099-0.06v0.699
		c-0.239-0.03-0.399-0.04-0.81-0.04v6.966c0,0.61-0.25,0.78-1.119,0.78c-0.279,0-0.65-0.02-1.159-0.06
		c-0.03-0.28-0.06-0.39-0.16-0.669c0.61,0.09,0.95,0.12,1.329,0.12c0.38,0,0.46-0.05,0.46-0.27v-6.867H373.701z M373.251,163.454
		c0.03-0.22,0.05-0.53,0.05-0.83v-2.988c0-0.36-0.01-0.6-0.039-0.84c0.249,0.03,0.459,0.04,0.839,0.04h1.439
		c0.38,0,0.589-0.01,0.839-0.04c-0.029,0.24-0.039,0.45-0.039,0.83v2.199c0,0.34,0.01,0.54,0.039,0.75
		c-0.219-0.02-0.439-0.03-0.76-0.03h-1.688v0.91H373.251z M373.931,161.975h1.779v-2.579h-1.779V161.975z"/>
	<path clip-path="url(#SVGID_2_)" d="M341.262,183.014c0-0.4-0.01-0.69-0.05-0.979c0.319,0.04,0.609,0.05,1.069,0.05h4.498
		c0.459,0,0.738-0.01,1.029-0.05c-0.041,0.29-0.051,0.54-0.051,0.919v6.406c0,0.48,0.021,0.76,0.061,1.07h-0.73v-0.65h-5.156v0.65
		h-0.73c0.041-0.3,0.061-0.61,0.061-1.06V183.014z M341.932,185.492h5.156v-2.798h-5.156V185.492z M341.932,189.17h5.156v-3.068
		h-5.156V189.17z"/>
	<path clip-path="url(#SVGID_2_)" d="M353.6,182.544c0-0.36-0.02-0.61-0.06-0.91h0.771c-0.041,0.25-0.061,0.52-0.061,0.91v2.628
		h3.088c0.41,0,0.71-0.02,1.029-0.06v0.709c-0.27-0.04-0.59-0.06-1.02-0.06h-2.198v3.748c0,0.22,0.12,0.25,1.189,0.25
		c0.839,0,1.119-0.04,1.249-0.18c0.15-0.18,0.23-0.63,0.29-1.519c0.28,0.169,0.39,0.22,0.63,0.28
		c-0.15,1.219-0.27,1.589-0.609,1.829c-0.23,0.16-0.6,0.2-1.72,0.2c-0.899,0-1.209-0.03-1.419-0.16c-0.189-0.1-0.25-0.26-0.25-0.609
		v-3.838h-1.369c-0.04,0.85-0.09,1.179-0.23,1.699c-0.26,1-0.76,1.719-1.568,2.299c-0.41,0.29-0.79,0.49-1.47,0.75
		c-0.149-0.24-0.249-0.37-0.46-0.56c1.18-0.38,1.889-0.83,2.369-1.489c0.46-0.64,0.649-1.389,0.709-2.698h-1.748
		c-0.4,0-0.721,0.02-1.02,0.06v-0.709c0.299,0.04,0.619,0.06,1.029,0.06h2.848V182.544z M350.902,182.144
		c0.738,0.87,0.949,1.169,1.549,2.199l-0.57,0.37c-0.529-1.009-0.84-1.469-1.539-2.269L350.902,182.144z M357.508,182.414
		c-0.629,1.169-0.92,1.599-1.629,2.409l-0.56-0.34c0.729-0.78,1.06-1.27,1.589-2.379L357.508,182.414z"/>
	<path clip-path="url(#SVGID_2_)" d="M357.479,221.072c0.79,0.44,1.22,0.73,1.938,1.3l-0.409,0.59c-0.63-0.6-1.12-0.939-1.929-1.369
		L357.479,221.072z M359.568,224.271c-0.47,0.979-1.039,1.949-1.51,2.598c-0.189,0.25-0.199,0.271-0.299,0.43l-0.58-0.549
		c0.189-0.17,0.21-0.189,0.369-0.4c0.461-0.59,0.461-0.59,0.74-1.059c0.32-0.53,0.47-0.811,0.75-1.439L359.568,224.271z
		 M358.039,218.694c0.74,0.44,1.25,0.819,1.869,1.39l-0.43,0.529c-0.63-0.64-1.1-1.01-1.879-1.469L358.039,218.694z
		 M362.427,219.924h-1.27c-0.399,0-0.779,0.02-1.05,0.05v-0.72c0.28,0.04,0.6,0.061,1.05,0.061h3.589
		c0.398,0,0.749-0.021,1.049-0.07v0.739c-0.311-0.04-0.689-0.06-1.049-0.06h-1.619v6.297h1.908c0.46,0,0.85-0.021,1.09-0.061v0.75
		c-0.311-0.051-0.68-0.07-1.09-0.07h-4.428c-0.43,0-0.789,0.02-1.1,0.07v-0.75c0.26,0.04,0.631,0.061,1.09,0.061h1.829V219.924z"/>
	<path clip-path="url(#SVGID_2_)" d="M369.009,224.021c-0.149,1.559-0.521,2.519-1.399,3.638c-0.279-0.27-0.34-0.319-0.57-0.47
		c1.109-1.289,1.39-2.328,1.39-5.257c0-0.54-0.01-0.84-0.04-1.169c0.32,0.029,0.55,0.039,1,0.039h4.787
		c0.41,0,0.68-0.01,0.949-0.039c-0.029,0.26-0.039,0.479-0.039,0.898v2.069c0,0.47,0.01,0.739,0.049,0.999h-0.709v-0.709H369.009z
		 M375.945,219.693c-0.351-0.05-0.61-0.06-1.109-0.06h-6.217c-0.46,0-0.77,0.021-1.109,0.06v-0.709
		c0.319,0.039,0.619,0.06,1.109,0.06h6.217c0.51,0,0.789-0.021,1.109-0.06V219.693z M374.426,223.432v-2.039h-5.338v0.9
		c0,0.27-0.02,0.889-0.049,1.139H374.426z"/>
	<path clip-path="url(#SVGID_2_)" d="M221.145,247.207c-0.729,1.17-1.299,1.77-2.358,2.509c-0.189-0.27-0.26-0.35-0.46-0.52
		c0.6-0.36,0.9-0.59,1.289-0.989c0.42-0.42,0.641-0.73,0.971-1.34L221.145,247.207z M222.385,241.92c0-0.319-0.021-0.579-0.07-0.84
		h0.789c-0.049,0.201-0.069,0.461-0.069,0.84v0.37h3.088c0.5,0,0.819-0.021,1.109-0.069v0.709c-0.26-0.05-0.529-0.061-1.089-0.061
		h-6.637c-0.539,0-0.799,0.011-1.069,0.061v-0.709c0.3,0.049,0.61,0.069,1.109,0.069h2.839V241.92z M220.565,246.418
		c-0.399,0-0.6,0.01-0.89,0.04c0.03-0.261,0.04-0.45,0.04-0.81v-1.129c0-0.391-0.01-0.53-0.04-0.83c0.279,0.029,0.47,0.04,0.89,0.04
		h4.348c0.479,0,0.689-0.011,0.919-0.04c-0.029,0.24-0.039,0.439-0.039,0.83v1.129c0,0.35,0.01,0.549,0.029,0.799
		c-0.26-0.02-0.529-0.029-0.909-0.029h-1.739v2.778c0,0.569-0.26,0.749-1.1,0.749c-0.22,0-0.639-0.02-0.979-0.039
		c-0.031-0.27-0.061-0.391-0.17-0.66c0.409,0.07,0.749,0.1,1.078,0.1c0.44,0,0.521-0.039,0.521-0.239v-2.688H220.565z
		 M220.346,245.868h4.816v-1.569h-4.816V245.868z M224.883,246.857c0.37,0.6,0.57,0.859,0.979,1.26c0.42,0.42,0.72,0.649,1.39,1.049
		c-0.2,0.18-0.33,0.33-0.46,0.55c-0.59-0.409-0.84-0.609-1.259-1.039c-0.48-0.489-0.73-0.8-1.199-1.47L224.883,246.857z"/>
	<path clip-path="url(#SVGID_2_)" d="M229.406,244.579c-0.5,0-0.74,0.01-1.02,0.06v-0.66c0.279,0.051,0.52,0.061,1.02,0.061h1.029
		v-1.27h-0.74c-0.409,0-0.639,0.01-0.909,0.051v-0.65c0.24,0.051,0.46,0.061,0.909,0.061h0.74v-0.33c0-0.39-0.02-0.619-0.061-0.879
		h0.721c-0.041,0.229-0.051,0.469-0.051,0.879v0.33h0.311c0.409,0,0.579-0.01,0.818-0.061v0.641
		c-0.279-0.031-0.469-0.041-0.779-0.041h-0.35v1.27h0.311c0.6-0.68,0.959-1.18,1.369-1.929c0.129-0.239,0.229-0.479,0.279-0.659
		l0.619,0.359c-0.1,0.119-0.139,0.18-0.239,0.35c-0.51,0.89-0.78,1.279-1.289,1.879h0.319c0.51,0,0.779-0.01,1.05-0.05v0.63
		c-0.28-0.03-0.55-0.04-0.96-0.04h-0.898c-0.4,0.409-0.76,0.749-1.141,1.06h1.48c0.449,0,0.719-0.01,0.908-0.041
		c-0.029,0.271-0.029,0.44-0.029,1.051v2.318c0,0.469,0.01,0.729,0.04,0.989h-0.63v-0.45h-2.248v0.609h-0.65
		c0.03-0.199,0.061-0.619,0.061-1.089v-2.538c-0.43,0.319-0.54,0.409-1,0.709c-0.109-0.25-0.18-0.35-0.35-0.539
		c1.039-0.561,1.949-1.24,2.788-2.079H229.406z M229.986,247.248h2.248v-1.09h-2.248V247.248z M229.986,248.977h2.248v-1.209h-2.248
		V248.977z M237.231,241.75c-0.069,0.131-0.069,0.131-0.399,0.891c-0.279,0.629-0.57,1.179-1.01,1.969
		c0.54,0.539,0.77,0.839,1.01,1.339c0.26,0.52,0.39,1.05,0.39,1.549c0,0.58-0.19,0.979-0.55,1.18c-0.22,0.12-0.52,0.17-1,0.17
		c-0.159,0-0.398-0.011-0.679-0.03c-0.021-0.279-0.05-0.439-0.14-0.68c0.389,0.061,0.609,0.08,0.959,0.08
		c0.55,0,0.74-0.199,0.74-0.81c0-0.53-0.17-1.109-0.471-1.608c-0.229-0.381-0.449-0.631-0.979-1.1
		c0.639-1.09,0.949-1.739,1.328-2.779h-1.988v6.877c0,0.529,0.02,0.999,0.07,1.359h-0.76c0.039-0.271,0.06-0.63,0.06-1.369v-6.537
		c0-0.33-0.01-0.569-0.04-0.909c0.26,0.021,0.439,0.03,0.82,0.03h1.568c0.38,0,0.6-0.01,0.77-0.041L237.231,241.75z"/>
	<path clip-path="url(#SVGID_2_)" d="M230.337,268.819c0.34,1.279,0.87,2.329,1.629,3.218c0.729,0.85,1.569,1.459,2.708,1.949
		c-0.199,0.24-0.279,0.35-0.439,0.67c-2.238-1.189-3.478-2.648-4.197-4.938c-0.27,1.459-0.93,2.668-1.949,3.588
		c-0.629,0.561-1.18,0.91-2.158,1.359c-0.141-0.279-0.221-0.39-0.43-0.609c1.249-0.51,1.979-1,2.628-1.75
		c0.78-0.898,1.2-1.958,1.39-3.487h-2.719c-0.529,0-0.81,0.021-1.1,0.069v-0.779c0.26,0.051,0.59,0.07,1.119,0.07h2.759
		c0.03-0.48,0.04-0.789,0.04-1.18c0-0.459-0.029-0.819-0.07-1.09h0.82c-0.051,0.33-0.07,0.551-0.07,1.04
		c-0.01,0.51-0.02,0.8-0.05,1.229h3.028c0.51,0,0.84-0.02,1.109-0.07v0.779c-0.32-0.049-0.6-0.069-1.1-0.069H230.337z"/>
	<path clip-path="url(#SVGID_2_)" d="M236.898,266.791c0-0.41-0.02-0.66-0.06-0.971h0.739c-0.05,0.301-0.06,0.541-0.06,0.95v1.729
		h0.419c0.41,0,0.61-0.011,0.801-0.051v0.65c-0.25-0.03-0.48-0.041-0.82-0.041h-0.399v2.919c0.37-0.16,0.55-0.25,1.029-0.51
		l0.04,0.61c-0.83,0.439-1.34,0.659-2.549,1.119c-0.13,0.039-0.26,0.1-0.41,0.17l-0.18-0.68c0.35-0.061,0.68-0.17,1.449-0.46v-3.169
		h-0.5c-0.409,0-0.609,0.011-0.839,0.061v-0.68c0.239,0.05,0.409,0.061,0.839,0.061h0.5V266.791z M239.758,269.27
		c-0.101,2.538-0.471,3.817-1.52,5.316c-0.16-0.18-0.29-0.27-0.55-0.39c0.569-0.749,0.87-1.319,1.069-2.079
		c0.279-1.059,0.4-2.379,0.4-4.627c0-0.59-0.011-0.85-0.041-1.25c0.32,0.041,0.63,0.051,1.05,0.051h3.269
		c0.409,0,0.719-0.021,0.979-0.061v0.71c-0.27-0.04-0.52-0.05-0.959-0.05h-3.668v0.779c0,0.359,0,0.609-0.01,1.039h3.038
		c0.409,0,0.659-0.01,0.819-0.05l0.35,0.39c-0.039,0.08-0.06,0.12-0.1,0.24c-0.459,1.34-0.909,2.219-1.6,3.129
		c0.7,0.779,1.391,1.259,2.389,1.678c-0.189,0.19-0.299,0.36-0.419,0.6c-1.02-0.52-1.669-1.009-2.368-1.788
		c-0.69,0.779-1.35,1.259-2.479,1.799c-0.13-0.229-0.239-0.35-0.46-0.52c1.109-0.47,1.84-0.97,2.568-1.739
		c-0.719-0.979-1.158-1.979-1.408-3.178H239.758z M240.727,269.27c0.17,0.949,0.58,1.879,1.189,2.697
		c0.609-0.818,0.959-1.568,1.289-2.697H240.727z"/>
	
		<line clip-path="url(#SVGID_2_)" fill="none" stroke="#000000" stroke-miterlimit="10" x1="327.341" y1="244.275" x2="330.92" y2="242.904"/>
	
		<line clip-path="url(#SVGID_2_)" fill="none" stroke="#000000" stroke-miterlimit="10" x1="328.683" y1="247.777" x2="332.262" y2="246.406"/>
	
		<line clip-path="url(#SVGID_2_)" fill="none" stroke="#000000" stroke-miterlimit="10" x1="328.542" y1="242.053" x2="331.067" y2="248.648"/>
	
		<line clip-path="url(#SVGID_2_)" fill="none" stroke="#000000" stroke-miterlimit="10" x1="288.435" y1="258.085" x2="292.245" y2="258.491"/>
	
		<line clip-path="url(#SVGID_2_)" fill="none" stroke="#000000" stroke-miterlimit="10" x1="288.037" y1="261.814" x2="291.848" y2="262.221"/>
	
		<line clip-path="url(#SVGID_2_)" fill="none" stroke="#000000" stroke-miterlimit="10" x1="290.515" y1="256.651" x2="289.765" y2="263.674"/>
	
		<line clip-path="url(#SVGID_2_)" fill="none" stroke="#000000" stroke-miterlimit="10" x1="318.511" y1="205.1" x2="322.343" y2="205.124"/>
	
		<line clip-path="url(#SVGID_2_)" fill="none" stroke="#000000" stroke-miterlimit="10" x1="318.488" y1="208.851" x2="322.32" y2="208.874"/>
	
		<line clip-path="url(#SVGID_2_)" fill="none" stroke="#000000" stroke-miterlimit="10" x1="320.438" y1="203.466" x2="320.393" y2="210.528"/>
	<path clip-path="url(#SVGID_2_)" d="M312.151,242.838c-0.256,0-0.464,0.008-0.607,0.031v-0.495
		c0.168,0.024,0.344,0.032,0.607,0.032h0.735v-0.313c0-0.359-0.008-0.504-0.047-0.68h0.566c-0.039,0.16-0.047,0.313-0.047,0.68
		v0.313h0.671c0.248,0,0.399-0.008,0.56-0.032v0.495c-0.168-0.023-0.336-0.031-0.56-0.031h-0.64c0.359,0.68,0.752,1.168,1.271,1.6
		c-0.111,0.119-0.216,0.256-0.296,0.415c-0.439-0.439-0.64-0.72-1.039-1.446c0.024,0.432,0.032,0.919,0.032,1.311v1.039
		c0,0.473,0.008,0.695,0.047,0.928h-0.575c0.048-0.256,0.063-0.527,0.063-0.936v-0.967c0-0.465,0.009-0.848,0.024-1.304
		c-0.2,0.592-0.327,0.863-0.607,1.304c-0.216,0.352-0.384,0.567-0.688,0.902c-0.104-0.159-0.216-0.287-0.344-0.383
		c0.607-0.544,1.207-1.487,1.551-2.463H312.151z M312.567,240.592c-0.264,0.415-0.52,0.734-0.848,1.07
		c-0.112-0.111-0.248-0.207-0.407-0.287c0.663-0.607,1.087-1.256,1.311-2.023l0.504,0.176c-0.145,0.297-0.176,0.368-0.32,0.641
		h1.288c0.376,0,0.583-0.017,0.792-0.049v0.504c-0.225-0.023-0.448-0.031-0.76-0.031h-0.432c0.111,0.191,0.264,0.495,0.399,0.83
		l-0.456,0.168c-0.152-0.486-0.199-0.591-0.416-0.998H312.567z M315.638,240.575c-0.2,0.352-0.368,0.591-0.632,0.903
		c-0.119-0.111-0.216-0.168-0.408-0.248c0.553-0.592,0.848-1.127,1.048-1.871l0.487,0.152c-0.127,0.313-0.184,0.432-0.279,0.64
		h1.783c0.384,0,0.615-0.017,0.848-0.048v0.512c-0.28-0.032-0.504-0.04-0.848-0.04h-0.943c0.16,0.247,0.24,0.392,0.432,0.808
		l-0.447,0.168c-0.168-0.464-0.225-0.576-0.457-0.976H315.638z M314.895,242.486c0-0.344-0.008-0.6-0.032-0.792
		c0.239,0.024,0.487,0.032,0.831,0.032h1.655c0.384,0,0.616-0.008,0.84-0.032c-0.024,0.16-0.032,0.424-0.032,0.8v3.182
		c0,0.393,0.016,0.664,0.048,0.952h-0.527v-0.36h-2.303v0.36h-0.528c0.032-0.256,0.049-0.536,0.049-0.888V242.486z M315.374,243.062
		h2.303v-0.903h-2.303V243.062z M315.374,244.396h2.303v-0.911h-2.303V244.396z M315.374,245.836h2.303v-1.016h-2.303V245.836z"/>
	<path clip-path="url(#SVGID_2_)" d="M320.655,240.199c0-0.464-0.008-0.631-0.04-0.832h0.576c-0.032,0.201-0.041,0.416-0.041,0.824
		v0.823h0.448c0.231,0,0.368-0.008,0.521-0.032v0.504c-0.209-0.023-0.369-0.031-0.521-0.031h-0.424
		c0.185,0.527,0.544,1.111,1.008,1.623c-0.128,0.127-0.231,0.248-0.328,0.399c-0.368-0.512-0.52-0.784-0.743-1.351
		c0.023,0.391,0.039,0.959,0.039,1.311v2.311c0,0.432,0.009,0.712,0.049,0.928h-0.584c0.032-0.225,0.048-0.512,0.048-0.928v-2.127
		c0-0.375,0.009-0.775,0.04-1.287c-0.312,1.016-0.584,1.584-1.119,2.287c-0.12-0.2-0.176-0.28-0.328-0.432
		c0.615-0.704,1.096-1.688,1.336-2.734h-0.52c-0.152,0-0.336,0.008-0.553,0.031v-0.504c0.168,0.024,0.313,0.032,0.553,0.032h0.583
		V240.199z M326.389,243.621c-0.553,0.52-0.936,0.816-1.416,1.104c0.464,0.576,0.928,0.943,1.743,1.367
		c-0.159,0.152-0.216,0.225-0.368,0.456c-0.791-0.487-1.271-0.903-1.703-1.487c-0.399-0.543-0.646-1.088-0.871-1.887h-0.832v2.582
		c0.576-0.144,0.889-0.24,1.456-0.432l0.048,0.464c-0.888,0.304-1.16,0.376-2.311,0.655c-0.2,0.057-0.28,0.072-0.416,0.121
		l-0.136-0.553c0.256-0.016,0.447-0.047,0.863-0.136v-5.245c0-0.312-0.017-0.56-0.032-0.832c0.232,0.025,0.448,0.033,0.808,0.033
		h1.943c0.399,0,0.624-0.008,0.8-0.041c-0.024,0.209-0.024,0.368-0.024,0.872v1.72c0,0.495,0,0.654,0.024,0.822
		c-0.209-0.023-0.424-0.031-0.8-0.031h-0.92c0.144,0.551,0.24,0.775,0.472,1.176c0.527-0.313,0.888-0.616,1.295-1.096
		L326.389,243.621z M325.453,241.263v-0.991h-2.512v0.991H325.453z M322.941,242.742h2.512v-1.039h-2.512V242.742z"/>
	<path clip-path="url(#SVGID_2_)" d="M284.072,253.374c-0.313,0-0.465,0.008-0.656,0.048v-0.528c0.184,0.04,0.344,0.048,0.672,0.048
		h0.975v-0.423c0-0.104-0.016-0.232-0.039-0.328h0.535c-0.023,0.096-0.031,0.224-0.031,0.328v0.423h0.879
		c0.279,0,0.439-0.008,0.647-0.048v0.521c-0.184-0.032-0.344-0.04-0.647-0.04h-0.76c0.305,0.424,0.527,0.631,1.127,1.015
		c-0.127,0.152-0.184,0.248-0.279,0.433c-0.52-0.44-0.688-0.624-1-1.104c0.017,0.176,0.024,0.407,0.033,0.703v1.159
		c0,0.28,0.008,0.472,0.039,0.688h-0.551c0.031-0.207,0.047-0.423,0.047-0.688v-1.135c0-0.192,0.009-0.4,0.024-0.664
		c-0.327,0.688-0.783,1.216-1.511,1.775c-0.088-0.185-0.176-0.313-0.305-0.448c0.4-0.264,0.744-0.552,1.04-0.879
		c0.239-0.272,0.36-0.44,0.583-0.855H284.072z M285.494,251.591c0.28-0.472,0.424-0.832,0.536-1.312l0.479,0.152
		c-0.191,0.479-0.359,0.847-0.543,1.159h0.472c0.304,0,0.464-0.008,0.647-0.04v0.535c-0.199-0.031-0.359-0.04-0.647-0.04h-2.375
		c-0.312,0-0.479,0.009-0.663,0.04v-0.535c0.176,0.032,0.344,0.04,0.663,0.04H285.494z M286.311,249.752
		c0.328,0,0.479-0.009,0.672-0.04v0.535c-0.217-0.031-0.368-0.04-0.68-0.04h-2.047c-0.336,0-0.488,0.009-0.695,0.04v-0.535
		c0.184,0.031,0.352,0.04,0.703,0.04h0.799v-0.216c0-0.256-0.008-0.384-0.039-0.561h0.584c-0.033,0.168-0.041,0.296-0.041,0.561
		v0.216H286.311z M284.479,251.519c-0.136-0.447-0.24-0.695-0.456-1.071l0.424-0.16c0.225,0.4,0.32,0.64,0.456,1.08L284.479,251.519
		z M289.957,251.534c0.359,0,0.551-0.016,0.734-0.048v0.552c-0.199-0.031-0.375-0.04-0.703-0.04h-0.296v3.486
		c0,0.399,0.009,0.6,0.048,0.8h-0.615c0.031-0.208,0.048-0.408,0.048-0.8v-3.486h-1.255c0,0.104,0,0.104,0,0.313
		c-0.008,1.063-0.176,2.143-0.456,2.87c-0.16,0.424-0.319,0.728-0.592,1.096c-0.168-0.16-0.256-0.232-0.456-0.336
		c0.768-0.943,1.008-2.063,1.008-4.733c0-0.903-0.016-1.247-0.04-1.479c0.04,0,0.08,0,0.096,0c0.424,0,1.239-0.16,1.896-0.368
		c0.336-0.111,0.535-0.199,0.735-0.344l0.407,0.448c-0.071,0.023-0.08,0.023-0.287,0.112c-0.664,0.271-1.271,0.423-2.303,0.591
		v1.367H289.957z"/>
	<path clip-path="url(#SVGID_2_)" d="M292.735,252.598c-0.112,1.712-0.312,2.479-0.928,3.551c-0.136-0.176-0.256-0.288-0.432-0.416
		c0.319-0.496,0.487-0.88,0.616-1.384c0.199-0.791,0.303-2.078,0.303-3.798c0-0.711-0.008-0.951-0.039-1.247
		c0.287,0.024,0.551,0.032,0.967,0.032h4.038c0.384,0,0.616-0.008,0.839-0.032c-0.016,0.192-0.023,0.368-0.023,0.616v0.768
		c0,0.256,0.008,0.384,0.023,0.591c-0.247-0.016-0.463-0.023-0.791-0.023h-1.591v0.896h1.919c0.344,0,0.56-0.016,0.808-0.048v0.544
		c-0.256-0.032-0.487-0.049-0.815-0.049h-1.911v1.023h1.431c0.336,0,0.512-0.008,0.736-0.031c-0.024,0.199-0.032,0.415-0.032,0.728
		v1.144c0,0.304,0.016,0.551,0.048,0.791h-0.544v-0.384h-3.485v0.384h-0.536c0.032-0.231,0.04-0.416,0.04-0.735v-1.199
		c0-0.313-0.008-0.512-0.032-0.728c0.231,0.023,0.36,0.031,0.655,0.031h1.208v-1.023H292.735z M295.206,251.255h-2.423
		c-0.008,0.432-0.016,0.64-0.023,0.896h2.446V251.255z M297.58,250.807v-1.023h-4.789v1.023H297.58z M293.871,255.421h3.485v-1.359
		h-3.485V255.421z"/>
	<path clip-path="url(#SVGID_2_)" d="M313.832,196.284c-0.327,0-0.479,0.008-0.695,0.048v-0.544c0.2,0.04,0.384,0.048,0.72,0.048
		h1.367c0.336,0,0.487-0.008,0.696-0.048v0.528c-0.225-0.024-0.377-0.032-0.664-0.032h-0.592c-0.136,0.84-0.256,1.271-0.544,2.055
		h0.983c0.248,0,0.36-0.008,0.496-0.024c-0.023,0.176-0.023,0.296-0.023,0.64v2.502c0,0.28,0.008,0.456,0.023,0.671h-0.488v-0.384
		h-0.951v0.84h-0.527c0.031-0.24,0.048-0.448,0.048-0.8v-1.751c0-0.264,0-0.399,0.032-0.919c-0.184,0.44-0.336,0.72-0.584,1.08
		c-0.096-0.208-0.184-0.328-0.304-0.448c0.544-0.736,0.848-1.367,1.119-2.383c0.12-0.408,0.151-0.583,0.231-1.08H313.832z
		 M314.152,201.305h0.959v-2.527h-0.959V201.305z M318.622,200.058h0.647c0.344,0,0.592-0.016,0.76-0.048v0.536
		c-0.184-0.032-0.4-0.04-0.76-0.04h-0.647v1.312h1.191c0.359-0.032,0.359-0.032,0.456-0.048v0.543
		c-0.209-0.032-0.424-0.04-0.801-0.04h-2.613v0.504h-0.512c0.031-0.192,0.047-0.448,0.047-0.815v-4.118
		c-0.168,0.256-0.264,0.392-0.471,0.647c-0.129-0.168-0.185-0.216-0.353-0.336c0.479-0.528,0.84-1.087,1.104-1.703
		c0.16-0.36,0.264-0.68,0.304-0.936l0.52,0.136c-0.279,0.68-0.367,0.887-0.527,1.191h1.223c0.248-0.464,0.416-0.872,0.504-1.271
		l0.512,0.152c-0.264,0.624-0.279,0.664-0.52,1.12h0.695c0.328,0,0.616-0.016,0.792-0.048v0.536c-0.184-0.032-0.424-0.04-0.792-0.04
		h-0.759v1.135h0.655c0.328,0,0.584-0.016,0.752-0.048v0.536c-0.168-0.024-0.408-0.04-0.752-0.04h-0.655V200.058z M318.158,197.292
		h-1.295v1.135h1.295V197.292z M316.863,198.875v1.183h1.295v-1.183H316.863z M316.863,201.817h1.295v-1.312h-1.295V201.817z"/>
	<path clip-path="url(#SVGID_2_)" d="M324.047,198.458c-0.047,0.096-0.08,0.16-0.16,0.4c-0.239,0.664-0.671,1.407-1.166,1.991
		c-0.416,0.488-0.776,0.808-1.359,1.224c-0.145-0.192-0.217-0.256-0.424-0.408c0.535-0.32,0.975-0.68,1.398-1.151
		c0.52-0.592,0.824-1.096,1.096-1.823H322c-0.319,0-0.559,0.016-0.743,0.048v-0.552c0.185,0.024,0.416,0.04,0.76,0.04h1.007
		c0.424,0,0.592-0.008,0.76-0.032L324.047,198.458z M322.064,195.94c0.6,0.448,0.936,0.752,1.463,1.343l-0.408,0.352
		c-0.487-0.6-0.807-0.904-1.438-1.367L322.064,195.94z M327.926,197.06c-0.08,0.072-0.08,0.072-0.232,0.24
		c-0.68,0.735-1.207,1.223-1.943,1.791c0.695,1.104,1.463,1.847,2.559,2.471c-0.199,0.176-0.295,0.28-0.432,0.496
		c-0.688-0.464-1.176-0.903-1.703-1.543c-0.336-0.408-0.6-0.808-0.863-1.288c-0.216-0.399-0.304-0.615-0.464-1.127
		c0.048,0.831,0.063,1.151,0.063,1.583v2.383c0,0.496-0.159,0.615-0.791,0.615c-0.256,0-0.504-0.016-0.951-0.064
		c-0.016-0.208-0.049-0.335-0.128-0.536c0.439,0.072,0.768,0.104,1.071,0.104c0.224,0,0.271-0.04,0.271-0.224v-5.541
		c0-0.288-0.016-0.544-0.056-0.808h0.64c-0.04,0.264-0.057,0.512-0.057,0.799v0.632c0.104,0.552,0.256,0.959,0.601,1.615
		c0.968-0.76,1.631-1.447,1.919-1.991L327.926,197.06z"/>
	
		<path clip-path="url(#SVGID_2_)" fill="none" stroke="#000000" stroke-width="0.6" stroke-linecap="round" stroke-linejoin="bevel" d="
		M210.118,228.67l3.85-3.604h2.25v-0.896h4l1.15,2.896l-3.75,4.604l3.5,3.25l4.25-4.25l1.51,2.277l1.25,1.5h2.353v1.25h3.5
		l-1.353-2.101v-1h1.75l1.25,1.5l1.603-1.649v-2.351h2.147v1.101h2.069v-5.105h2.051v2.85h2.25v-4.85l-3.398-2.5v-5.9l5.25-8.6
		l3.199-1.476l1.553-1.5v-1h2.101l4-5.75l4.149-5l4-9.25"/>
	
		<path clip-path="url(#SVGID_2_)" fill="none" stroke="#000000" stroke-width="0.6" stroke-linecap="round" stroke-linejoin="bevel" d="
		M391.886,153.841l1,4.6v10.75l-2,4.9v6.25h-3.646l0.061,5.428c-2.932,3.9-4.813,7.783-5.646,11.65v5.5l-1.354,1.1v5.75l8.55,14.852
		l1.281,0.57v1.5h-5.1l-3.25,2.149l-3.165,2.896l-2.603,4.898v3.352h1v3.148l-0.75,2.25l-2.147,2l-4.409,1.267l-5.6,3.75v2.75
		l-2.4,2.25h-2.5l-2.25-4h3.15l-1.9-2l1-2l-1.25-1v-2.5l2.15-1.198l0.009-1.315h-1.899v-2.148l3.399-2.602v-1.148l6.015-5.047
		v-1.102l-3.75-3.25l-2.255-0.021v2.352h-4.15v2.75l-3.6,2.648l-0.118,6.877h2.649v1.149l-2.399,1.5v3.5h-1.101v-2.25l-1.5-3.5
		l-2.149-1.649h-4.601l-6.649,4.399v2.25l-1.397,1.5l-0.012,4.144l1.5,1.5v3.5h-1.25l-3.25,6.899l-2.85,2.851h-2.4l-2.85-2.601v-2
		h1.1v-10.75h3.65l-0.003-1.549l-2.5-2h-5l-3.65,2.852v1.648l-3.85,2.852l-3.329,6.654l-1.65,1.75v3.75l-6.5-2.399H293.27
		l-2.353-1.851l1.5-2.5h-2.147l-2.076,4.08l-11.897,3.9h-3.25v-1.4l2.647-2.35h3.603l4.25-2v-2l-1-1.15h-3.603v1h-4.75l-3.245-2.35
		v5.297l-2.5-1.75v-4.75h-1.25v-4.25l1.149-1v-1.25l-3.717-0.059l-2.102,4.5l-5,7v1.899h1.102v2.351l6.75,4.602l2.873-0.02v1.899
		h1.852v2.101l-1.352,1.649v4h-3.648v-2.399h-2.75l-3.821,1.418l-8.05,4.045l0.013,1.294l-2.101,1.75l1.5,1v3l-4.25,1.75l-5.75,12
		l-4.649,5.75h-2.101v-1.5h-2.649l-8.25-3.852v-2.898h-1.5l0.149-1.102h1.601v-1.25l-2.851-1l-7.649-5.898v-3h1.25l1.649-1.852
		l-1.75-1.25v-1.398l2.6-3.25h-1.5v-2l-1.853-1.546l8.35-5l3.5-3.85l-0.082-4.248l-2.352-2.5l-3.354,0.207l-5.529,3.221l-9.78-6.65
		h-2.35v1"/>
	
		<path clip-path="url(#SVGID_2_)" fill="none" stroke="#000000" stroke-width="0.6" stroke-linecap="round" stroke-linejoin="bevel" d="
		M266.631,183.087v-2.25l-1.65-2v-3.5l-0.896-0.5v-3.4h1v-3.85l4.5-2.75h4.146l4.75-3.5h4.75l1.5,1.5v1.75h-2.896v2.55l-2.354,2.55
		h-2.299l-2.951,3.75l-2.75-1.85l-1.646,4.1v1.65l2.896,1.25l2.604-2l-0.047,6.549l-1.5,1v2.1l4.146,3.4h3.854l3.896-2.5v-3.65
		l5.75-2.25l2.379,0.054l7.502-3.25l4-3.602h4.75v-1.5l9.351-6.5l5.149-9.25l1.75-5.75l4.851-4.648"/>
	
		<polyline clip-path="url(#SVGID_2_)" fill="none" stroke="#000000" stroke-width="0.6" stroke-linecap="round" stroke-linejoin="bevel" points="
		271.881,176.437 271.881,174.937 274.631,174.937 273.631,176.437 271.881,176.437 	"/>
	<path id="path18670" clip-path="url(#SVGID_2_)" fill="none" stroke="#000000" stroke-width="0.6" stroke-linejoin="bevel" d="
		M378.65,210.77l4,6.5l0.146,2l-1.5-1.25l-2.646-4.5V210.77 M379.05,217.67l-2.896-5.65l-3.104-1.75l-0.05,1.15l1.4,1.25l-1.354,1.6
		l-3.146-1.75v1.4l5.896,2.85L379.05,217.67"/>
	<path id="path21307" clip-path="url(#SVGID_2_)" fill="none" stroke="#000000" stroke-width="0.6" stroke-linejoin="bevel" d="
		M247.939,237.23l2.897,4.25v2l-3.25,1.5l-3.647,3v1.4h-2.603l-2.5,5.5v-4.25l1.25-2.4v-2l3.5-3.85l0.103-4.25l4.25-2.75V237.23"/>
</g>
</svg>
