<?xml version="1.0" encoding="utf-8"?>
<!-- Generator: Adobe Illustrator 16.0.0, SVG Export Plug-In . SVG Version: 6.00 Build 0)  -->
<!DOCTYPE svg PUBLIC "-//W3C//DTD SVG 1.1//EN" "http://www.w3.org/Graphics/SVG/1.1/DTD/svg11.dtd">
<svg version="1.1" id="レイヤー_1" xmlns="http://www.w3.org/2000/svg" xmlns:xlink="http://www.w3.org/1999/xlink" x="0px"
	 y="0px" width="188.327px" height="143.119px" viewBox="0 0 188.327 143.119" enable-background="new 0 0 188.327 143.119"
	 xml:space="preserve">
<path fill="#FF0000" d="M125.702,133.722c0-0.564-0.021-0.984-0.07-1.332h0.889c-0.049,0.383-0.072,0.744-0.072,1.344v1.787h0.336
	c0.505,0,0.73-0.014,0.96-0.061v0.777c-0.3-0.035-0.552-0.047-0.972-0.047h-0.324v3.768c0.517-0.24,0.73-0.35,1.355-0.695
	l0.072,0.729c-1.164,0.648-1.74,0.912-3.097,1.463c-0.168,0.063-0.35,0.146-0.479,0.205l-0.205-0.826
	c0.432-0.072,0.744-0.182,1.604-0.539v-4.104h-0.44c-0.504,0-0.695,0.012-1.008,0.068v-0.813c0.274,0.059,0.516,0.072,1.008,0.072
	h0.44v-1.797H125.702z M129.372,141.492c0,0.287,0.071,0.385,0.36,0.455c0.287,0.084,0.826,0.107,1.931,0.107
	c1.69,0,2.194-0.072,2.389-0.348c0.154-0.215,0.238-0.768,0.252-1.619c0.273,0.168,0.42,0.229,0.768,0.313
	c-0.145,2.219-0.358,2.363-3.479,2.363c-2.482,0-2.975-0.182-2.975-1.117v-4.4l-0.267,0.084c-0.67,0.23-0.719,0.252-0.994,0.385
	l-0.217-0.814c0.336-0.037,0.66-0.105,1.043-0.24l0.435-0.145v-1.883c0-0.504-0.023-0.875-0.072-1.225h0.897
	c-0.047,0.359-0.071,0.707-0.071,1.189v1.68l1.717-0.574v-2.219c0-0.471-0.023-0.758-0.072-1.115h0.889
	c-0.049,0.348-0.071,0.693-0.071,1.127v1.967l1.848-0.611c0.371-0.121,0.623-0.229,0.947-0.373
	c-0.049,1.199-0.097,2.039-0.191,3.215c-0.084,1.068-0.24,1.572-0.553,1.752c-0.215,0.119-0.443,0.168-0.863,0.168
	c-0.106,0-0.252-0.014-0.526-0.037c-0.035-0.311-0.084-0.504-0.181-0.756c0.324,0.072,0.636,0.109,0.924,0.109
	c0.275,0,0.337-0.061,0.396-0.408c0.084-0.443,0.145-1.332,0.191-3.035l-1.99,0.686v3.313c0,0.479,0.022,0.803,0.069,1.15h-0.887
	c0.047-0.336,0.072-0.672,0.072-1.164v-3.047L129.374,137v4.494h-0.002V141.492z"/>
<path fill="#FF0000" d="M137.417,138.806c-0.121,1.584-0.289,2.41-0.687,3.574l-0.635-0.287c0.395-1.008,0.551-1.814,0.658-3.396
	L137.417,138.806z M136.12,137.402c0.133,0.023,0.301,0.035,0.504,0.035c0.049,0,0.049,0,0.396-0.012
	c0.504-0.684,0.504-0.684,0.769-1.068c-0.505-0.754-0.888-1.223-1.654-2.014l0.432-0.553l0.504,0.553
	c0.527-0.84,0.938-1.691,1.043-2.219l0.732,0.359c-0.168,0.287-0.168,0.287-0.553,1.02c-0.191,0.359-0.539,0.924-0.804,1.318
	c0.313,0.373,0.49,0.613,0.707,0.924c0.73-1.139,1.127-1.846,1.261-2.291l0.684,0.396c-0.107,0.154-0.168,0.238-0.396,0.6
	c-1.055,1.691-1.342,2.123-1.987,2.939c0.875-0.072,1.211-0.109,1.727-0.186c-0.145-0.334-0.217-0.479-0.469-0.959l0.492-0.227
	c0.432,0.803,0.658,1.33,0.924,2.158l-0.551,0.275c-0.099-0.324-0.109-0.371-0.193-0.66c-0.358,0.061-0.395,0.072-0.936,0.133v4.006
	c0,0.479,0.022,0.84,0.069,1.188h-0.838c0.047-0.348,0.07-0.729,0.07-1.188v-3.922c-0.383,0.035-0.455,0.035-1.021,0.096
	c-0.6,0.049-0.61,0.049-0.791,0.084L136.12,137.402z M139.719,138.675c0.287,0.98,0.371,1.379,0.539,2.443l-0.623,0.193
	c-0.098-0.996-0.205-1.523-0.469-2.447L139.719,138.675z M142.584,141.119c-0.937,0.602-1.402,0.854-2.361,1.262
	c-0.156-0.273-0.252-0.42-0.457-0.646c1.354-0.443,2.627-1.15,3.635-2.025c-0.071-0.408-0.133-0.611-0.264-0.936
	c-0.805,0.588-1.477,0.945-2.578,1.391c-0.098-0.229-0.229-0.396-0.42-0.588c1.115-0.359,1.906-0.744,2.758-1.33
	c-0.19-0.324-0.287-0.457-0.539-0.709c-0.528,0.324-1.008,0.564-1.584,0.779c-0.131-0.252-0.215-0.385-0.383-0.564
	c0.959-0.289,1.799-0.721,2.457-1.283h-1.498c-0.516,0-0.779,0.014-1.104,0.061v-0.77c0.323,0.051,0.625,0.072,1.104,0.072h3.502
	l0.035-1.008h-2.865c-0.479,0-0.756,0.014-1.031,0.061v-0.744c0.3,0.051,0.517,0.063,1.031,0.063h2.877l0.037-0.959h-3.047
	c-0.539,0-0.803,0.014-1.162,0.063v-0.744c0.322,0.047,0.611,0.061,1.139,0.061h2.677c0.489,0,0.803-0.014,1.149-0.049
	c-0.037,0.313-0.037,0.313-0.061,0.912l-0.072,2.35h0.385c0.504,0,0.804-0.023,1.127-0.072v0.77c-0.301-0.047-0.6-0.061-1.104-0.061
	h-1.477c0.155,0.863,0.286,1.355,0.518,1.943c0.588-0.576,0.959-1.057,1.199-1.535l0.646,0.418c-0.528,0.672-1.02,1.201-1.596,1.74
	c0.563,1.234,1.092,1.906,2.1,2.674c-0.19,0.205-0.336,0.42-0.479,0.721c-1.152-1.129-1.656-1.836-2.207-3.152
	c-0.351-0.828-0.457-1.213-0.828-2.809h-0.203c-0.277,0.299-0.457,0.455-0.779,0.721c0.923,0.982,1.38,2.34,1.38,4.027
	c0,1.439-0.265,1.766-1.416,1.766c-0.238,0-0.406-0.014-0.73-0.035c-0.049-0.324-0.072-0.457-0.191-0.73
	c0.336,0.061,0.73,0.096,0.959,0.096c0.589,0,0.695-0.156,0.695-1.078c0-0.301-0.012-0.48-0.049-0.816
	c-0.264,0.217-0.406,0.336-0.779,0.611L142.584,141.119z"/>
<path fill="#FF0000" d="M100.622,60.863c-0.49,0-0.789,0.014-1.188,0.049c0.037-0.385,0.049-0.625,0.049-1.141V57.59
	c0-0.553-0.012-0.877-0.049-1.199c0.252,0.035,0.601,0.047,1.176,0.047h4.654c0.586-0.779,0.959-1.414,1.307-2.242l0.828,0.314
	c-0.528,0.91-0.813,1.33-1.297,1.932h0.361c0.588,0,0.944-0.014,1.188-0.047c-0.037,0.32-0.049,0.623-0.049,1.197v2.145
	c0,0.576,0.012,0.889,0.049,1.178c-0.407-0.037-0.756-0.051-1.188-0.051h-2.642v1.141h3.791c0.527,0,0.898-0.021,1.211-0.068v0.838
	c-0.336-0.047-0.729-0.07-1.26-0.07h-3.742v1.104c0,0.551,0.015,0.779,0.084,1.127h-0.897c0.061-0.313,0.072-0.541,0.072-1.127
	v-1.104h-3.574c-0.517,0-0.89,0.023-1.248,0.07v-0.838c0.324,0.047,0.684,0.068,1.213,0.068h3.609v-1.141H100.622L100.622,60.863z
	 M100.729,56.393c-0.406-0.793-0.6-1.068-1.211-1.74l0.685-0.324c0.602,0.697,0.77,0.936,1.247,1.717L100.729,56.393z
	 M103.083,57.074h-2.855v1.199h2.855V57.074z M103.083,58.896h-2.855v1.32h2.855V58.896z M103.489,56.15
	c-0.385-0.936-0.479-1.104-1.03-1.883l0.709-0.24c0.537,0.77,0.657,0.982,1.055,1.813L103.489,56.15z M106.858,58.273v-1.199h-3.033
	v1.199H106.858z M106.858,60.219v-1.32h-3.033v1.32H106.858z"/>
<path fill="#FF0000" d="M114.35,54.629c-0.061,0.07-0.072,0.084-0.156,0.189c-0.526,0.672-0.897,1.066-1.51,1.619
	c0.563,1.365,0.803,2.844,0.803,4.869c0,1.668-0.168,2.723-0.504,3.166c-0.215,0.266-0.479,0.371-0.936,0.371
	c-0.351,0-0.744-0.061-1.26-0.189c-0.015-0.313-0.035-0.504-0.119-0.814c0.551,0.189,1.02,0.301,1.354,0.301
	c0.18,0,0.324-0.098,0.408-0.252c0.215-0.396,0.324-1.355,0.324-2.725c0-0.684-0.025-1.188-0.072-1.701
	c-0.588,0.896-1.176,1.51-2.256,2.313c-0.119-0.273-0.252-0.479-0.42-0.637c1.151-0.758,1.848-1.477,2.531-2.625
	c-0.107-0.576-0.253-1.08-0.443-1.584c-0.553,0.432-0.959,0.705-1.691,1.127c-0.131-0.266-0.252-0.455-0.432-0.646
	c0.813-0.395,1.188-0.625,1.836-1.129c-0.361-0.693-0.648-1.078-1.152-1.498l0.638-0.469c0.034,0.049,0.118,0.156,0.42,0.504
	c0.217,0.275,0.469,0.639,0.657,0.975c0.638-0.59,1.095-1.152,1.32-1.656L114.35,54.629z M119.278,56.416
	c0.457,0,0.756-0.014,1.142-0.063c-0.035,0.322-0.049,0.625-0.049,1.141v2.172c0,0.563,0.014,0.875,0.049,1.188
	c-0.336-0.035-0.611-0.049-1.162-0.049h-1.631v2.664c1.112-0.156,1.295-0.182,2.108-0.35c-0.289-0.637-0.396-0.852-0.756-1.477
	l0.672-0.229c0.646,1.105,0.898,1.654,1.438,3.141l-0.707,0.361c-0.181-0.6-0.265-0.84-0.408-1.188
	c-1.607,0.324-2.83,0.504-5.373,0.814c-0.229,0.023-0.396,0.049-0.646,0.107l-0.181-0.865c0.131,0.016,0.203,0.016,0.299,0.016
	c0.396,0,1.729-0.121,2.818-0.252v-2.748h-1.463c-0.504,0-0.816,0.014-1.15,0.049c0.023-0.359,0.035-0.672,0.035-1.164v-2.135
	c0-0.539-0.012-0.854-0.049-1.199c0.385,0.049,0.709,0.061,1.176,0.061h1.451v-1.031c0-0.504-0.012-0.744-0.084-1.127h0.898
	c-0.06,0.336-0.082,0.611-0.082,1.115v1.043h1.653V56.416L119.278,56.416z M115.032,57.1v3.02h1.859V57.1H115.032z M117.625,60.119
	h2.014V57.1h-2.014V60.119z"/>
<line fill="none" stroke="#040000" stroke-width="0.28" stroke-linecap="round" stroke-miterlimit="10" x1="69.718" y1="40.432" x2="69.718" y2="26.615"/>
<polyline fill="none" stroke="#040000" stroke-width="0.28" stroke-linecap="round" stroke-miterlimit="10" points="90.404,14.531 
	90.404,28.545 69.718,40.432 48.26,27.67 48.26,15.482 "/>
<polygon fill="none" stroke="#040000" stroke-width="0.28" stroke-linecap="round" stroke-miterlimit="10" points="43.178,15.09 
	56.454,16.115 67.71,27.762 92.022,13.531 92.024,12.344 80.653,0.83 67.129,0.143 43.178,14.109 "/>
<polyline fill="none" stroke="#040000" stroke-width="0.28" stroke-linecap="round" stroke-miterlimit="10" points="43.178,14.107 
	56.518,14.881 67.768,26.344 67.71,27.76 "/>
<line fill="none" stroke="#040000" stroke-width="0.28" stroke-linecap="round" stroke-miterlimit="10" x1="92.024" y1="12.344" x2="67.768" y2="26.344"/>
<line fill="none" stroke="#040000" stroke-width="0.28" stroke-linecap="round" stroke-miterlimit="10" x1="80.653" y1="0.83" x2="56.519" y2="14.881"/>
<line fill="none" stroke="#040000" stroke-width="0.28" stroke-linecap="round" stroke-miterlimit="10" x1="56.519" y1="14.881" x2="67.769" y2="26.344"/>
<polyline fill="none" stroke="#040000" stroke-width="0.28" stroke-linecap="round" stroke-miterlimit="10" points="68.527,25.904 
	57.277,14.443 43.873,13.705 "/>
<polyline fill="none" stroke="#040000" stroke-width="0.28" stroke-linecap="round" stroke-miterlimit="10" points="69.284,25.469 
	58.034,14.008 44.581,13.293 "/>
<polyline fill="none" stroke="#040000" stroke-width="0.28" stroke-linecap="round" stroke-miterlimit="10" points="70.043,25.029 
	58.793,13.566 45.382,12.822 "/>
<polyline fill="none" stroke="#040000" stroke-width="0.28" stroke-linecap="round" stroke-miterlimit="10" points="70.801,24.594 
	59.551,13.131 46.137,12.385 "/>
<polyline fill="none" stroke="#040000" stroke-width="0.28" stroke-linecap="round" stroke-miterlimit="10" points="71.559,24.154 
	60.309,12.693 46.846,11.971 "/>
<line fill="none" stroke="#040000" stroke-width="0.28" stroke-linecap="round" stroke-miterlimit="10" x1="61.067" y1="12.309" x2="47.662" y2="11.568"/>
<line fill="none" stroke="#040000" stroke-width="0.28" stroke-linecap="round" stroke-miterlimit="10" x1="61.825" y1="11.871" x2="48.371" y2="11.156"/>
<line fill="none" stroke="#040000" stroke-width="0.28" stroke-linecap="round" stroke-miterlimit="10" x1="62.583" y1="11.434" x2="49.172" y2="10.689"/>
<line fill="none" stroke="#040000" stroke-width="0.28" stroke-linecap="round" stroke-miterlimit="10" x1="63.341" y1="10.996" x2="49.927" y2="10.25"/>
<line fill="none" stroke="#040000" stroke-width="0.28" stroke-linecap="round" stroke-miterlimit="10" x1="64.099" y1="10.559" x2="50.637" y2="9.836"/>
<line fill="none" stroke="#040000" stroke-width="0.28" stroke-linecap="round" stroke-miterlimit="10" x1="64.829" y1="10.084" x2="51.424" y2="9.346"/>
<line fill="none" stroke="#040000" stroke-width="0.28" stroke-linecap="round" stroke-miterlimit="10" x1="65.587" y1="9.6" x2="52.133" y2="8.885"/>
<line fill="none" stroke="#040000" stroke-width="0.28" stroke-linecap="round" stroke-miterlimit="10" x1="66.345" y1="9.16" x2="52.934" y2="8.418"/>
<line fill="none" stroke="#040000" stroke-width="0.28" stroke-linecap="round" stroke-miterlimit="10" x1="67.103" y1="8.725" x2="53.689" y2="7.977"/>
<line fill="none" stroke="#040000" stroke-width="0.28" stroke-linecap="round" stroke-miterlimit="10" x1="67.861" y1="8.285" x2="54.398" y2="7.563"/>
<line fill="none" stroke="#040000" stroke-width="0.28" stroke-linecap="round" stroke-miterlimit="10" x1="68.591" y1="7.852" x2="55.186" y2="7.111"/>
<line fill="none" stroke="#040000" stroke-width="0.28" stroke-linecap="round" stroke-miterlimit="10" x1="69.349" y1="7.412" x2="55.895" y2="6.699"/>
<line fill="none" stroke="#040000" stroke-width="0.28" stroke-linecap="round" stroke-miterlimit="10" x1="70.107" y1="6.977" x2="56.696" y2="6.23"/>
<line fill="none" stroke="#040000" stroke-width="0.28" stroke-linecap="round" stroke-miterlimit="10" x1="70.865" y1="6.537" x2="57.452" y2="5.791"/>
<line fill="none" stroke="#040000" stroke-width="0.28" stroke-linecap="round" stroke-miterlimit="10" x1="71.623" y1="6.102" x2="58.159" y2="5.379"/>
<line fill="none" stroke="#040000" stroke-width="0.28" stroke-linecap="round" stroke-miterlimit="10" x1="72.417" y1="5.666" x2="59.003" y2="4.918"/>
<line fill="none" stroke="#040000" stroke-width="0.28" stroke-linecap="round" stroke-miterlimit="10" x1="73.175" y1="5.229" x2="59.713" y2="4.506"/>
<line fill="none" stroke="#040000" stroke-width="0.28" stroke-linecap="round" stroke-miterlimit="10" x1="73.905" y1="4.793" x2="60.5" y2="4.055"/>
<line fill="none" stroke="#040000" stroke-width="0.28" stroke-linecap="round" stroke-miterlimit="10" x1="74.663" y1="4.355" x2="61.209" y2="3.643"/>
<line fill="none" stroke="#040000" stroke-width="0.28" stroke-linecap="round" stroke-miterlimit="10" x1="75.421" y1="3.918" x2="62.01" y2="3.174"/>
<line fill="none" stroke="#040000" stroke-width="0.28" stroke-linecap="round" stroke-miterlimit="10" x1="76.179" y1="3.48" x2="62.765" y2="2.732"/>
<line fill="none" stroke="#040000" stroke-width="0.28" stroke-linecap="round" stroke-miterlimit="10" x1="76.937" y1="3.043" x2="63.474" y2="2.318"/>
<line fill="none" stroke="#040000" stroke-width="0.28" stroke-linecap="round" stroke-miterlimit="10" x1="77.637" y1="2.619" x2="64.226" y2="1.877"/>
<line fill="none" stroke="#040000" stroke-width="0.28" stroke-linecap="round" stroke-miterlimit="10" x1="78.395" y1="2.182" x2="64.981" y2="1.436"/>
<line fill="none" stroke="#040000" stroke-width="0.28" stroke-linecap="round" stroke-miterlimit="10" x1="79.153" y1="1.744" x2="65.691" y2="1.02"/>
<line fill="none" stroke="#040000" stroke-width="0.28" stroke-linecap="round" stroke-miterlimit="10" x1="61.069" y1="12.256" x2="72.319" y2="23.719"/>
<line fill="none" stroke="#040000" stroke-width="0.28" stroke-linecap="round" stroke-miterlimit="10" x1="61.827" y1="11.816" x2="73.077" y2="23.281"/>
<line fill="none" stroke="#040000" stroke-width="0.28" stroke-linecap="round" stroke-miterlimit="10" x1="62.584" y1="11.381" x2="73.834" y2="22.844"/>
<line fill="none" stroke="#040000" stroke-width="0.28" stroke-linecap="round" stroke-miterlimit="10" x1="63.343" y1="10.941" x2="74.593" y2="22.404"/>
<line fill="none" stroke="#040000" stroke-width="0.28" stroke-linecap="round" stroke-miterlimit="10" x1="64.101" y1="10.506" x2="75.351" y2="21.969"/>
<line fill="none" stroke="#040000" stroke-width="0.28" stroke-linecap="round" stroke-miterlimit="10" x1="64.859" y1="10.066" x2="76.109" y2="21.531"/>
<line fill="none" stroke="#040000" stroke-width="0.28" stroke-linecap="round" stroke-miterlimit="10" x1="65.617" y1="9.631" x2="76.867" y2="21.094"/>
<line fill="none" stroke="#040000" stroke-width="0.28" stroke-linecap="round" stroke-miterlimit="10" x1="66.375" y1="9.191" x2="77.625" y2="20.656"/>
<line fill="none" stroke="#040000" stroke-width="0.28" stroke-linecap="round" stroke-miterlimit="10" x1="67.133" y1="8.756" x2="78.383" y2="20.219"/>
<line fill="none" stroke="#040000" stroke-width="0.28" stroke-linecap="round" stroke-miterlimit="10" x1="67.891" y1="8.316" x2="79.141" y2="19.779"/>
<line fill="none" stroke="#040000" stroke-width="0.28" stroke-linecap="round" stroke-miterlimit="10" x1="68.649" y1="7.881" x2="79.899" y2="19.344"/>
<line fill="none" stroke="#040000" stroke-width="0.28" stroke-linecap="round" stroke-miterlimit="10" x1="69.407" y1="7.441" x2="80.657" y2="18.906"/>
<line fill="none" stroke="#040000" stroke-width="0.28" stroke-linecap="round" stroke-miterlimit="10" x1="70.165" y1="7.006" x2="81.415" y2="18.469"/>
<line fill="none" stroke="#040000" stroke-width="0.28" stroke-linecap="round" stroke-miterlimit="10" x1="70.923" y1="6.566" x2="82.173" y2="18.031"/>
<line fill="none" stroke="#040000" stroke-width="0.28" stroke-linecap="round" stroke-miterlimit="10" x1="71.681" y1="6.131" x2="82.931" y2="17.594"/>
<line fill="none" stroke="#040000" stroke-width="0.28" stroke-linecap="round" stroke-miterlimit="10" x1="72.439" y1="5.691" x2="83.689" y2="17.156"/>
<line fill="none" stroke="#040000" stroke-width="0.28" stroke-linecap="round" stroke-miterlimit="10" x1="73.197" y1="5.256" x2="84.447" y2="16.719"/>
<line fill="none" stroke="#040000" stroke-width="0.28" stroke-linecap="round" stroke-miterlimit="10" x1="73.955" y1="4.816" x2="85.205" y2="16.281"/>
<line fill="none" stroke="#040000" stroke-width="0.28" stroke-linecap="round" stroke-miterlimit="10" x1="74.713" y1="4.381" x2="85.963" y2="15.844"/>
<line fill="none" stroke="#040000" stroke-width="0.28" stroke-linecap="round" stroke-miterlimit="10" x1="75.471" y1="3.941" x2="86.721" y2="15.406"/>
<line fill="none" stroke="#040000" stroke-width="0.28" stroke-linecap="round" stroke-miterlimit="10" x1="76.229" y1="3.506" x2="87.479" y2="14.969"/>
<line fill="none" stroke="#040000" stroke-width="0.28" stroke-linecap="round" stroke-miterlimit="10" x1="76.987" y1="3.066" x2="88.237" y2="14.529"/>
<line fill="none" stroke="#040000" stroke-width="0.28" stroke-linecap="round" stroke-miterlimit="10" x1="77.745" y1="2.631" x2="88.995" y2="14.094"/>
<line fill="none" stroke="#040000" stroke-width="0.28" stroke-linecap="round" stroke-miterlimit="10" x1="78.502" y1="2.191" x2="89.752" y2="13.654"/>
<line fill="none" stroke="#040000" stroke-width="0.28" stroke-linecap="round" stroke-miterlimit="10" x1="79.261" y1="1.756" x2="90.511" y2="13.219"/>
<line fill="none" stroke="#040000" stroke-width="0.28" stroke-linecap="round" stroke-miterlimit="10" x1="80.019" y1="1.316" x2="91.269" y2="12.779"/>
<line fill="none" stroke="#040000" stroke-width="0.28" stroke-linecap="round" stroke-miterlimit="10" x1="79.907" y1="1.314" x2="66.445" y2="0.592"/>
<line fill="none" stroke="#040000" stroke-width="0.28" stroke-linecap="round" stroke-miterlimit="10" x1="69.72" y1="116.265" x2="69.72" y2="102.451"/>
<polyline fill="none" stroke="#040000" stroke-width="0.28" stroke-linecap="round" stroke-miterlimit="10" points="90.406,90.365 
	90.406,104.378 69.72,116.265 48.262,103.503 48.262,91.316 "/>
<polygon fill="none" stroke="#040000" stroke-width="0.28" stroke-linecap="round" stroke-miterlimit="10" points="43.181,90.925 
	56.457,91.951 67.712,103.595 92.025,89.367 92.027,88.179 80.656,76.666 67.131,75.978 43.181,89.945 "/>
<polyline fill="none" stroke="#040000" stroke-width="0.28" stroke-linecap="round" stroke-miterlimit="10" points="43.181,89.945 
	56.521,90.716 67.771,102.179 67.712,103.595 "/>
<line fill="none" stroke="#040000" stroke-width="0.28" stroke-linecap="round" stroke-miterlimit="10" x1="92.027" y1="88.179" x2="67.771" y2="102.179"/>
<polyline fill="none" stroke="#040000" stroke-width="0.28" stroke-linecap="round" stroke-miterlimit="10" points="80.656,76.666 
	56.522,90.716 67.771,102.179 "/>
<polyline fill="none" stroke="#040000" stroke-width="0.28" stroke-linecap="round" stroke-miterlimit="10" points="68.529,101.74 
	57.279,90.277 43.875,89.541 "/>
<polyline fill="none" stroke="#040000" stroke-width="0.28" stroke-linecap="round" stroke-miterlimit="10" points="69.287,101.304 
	58.037,89.841 44.583,89.126 "/>
<polyline fill="none" stroke="#040000" stroke-width="0.28" stroke-linecap="round" stroke-miterlimit="10" points="70.044,100.865 
	58.794,89.404 45.384,88.658 "/>
<polyline fill="none" stroke="#040000" stroke-width="0.28" stroke-linecap="round" stroke-miterlimit="10" points="70.803,100.429 
	59.553,88.966 46.139,88.22 "/>
<polyline fill="none" stroke="#040000" stroke-width="0.28" stroke-linecap="round" stroke-miterlimit="10" points="71.561,99.99 
	60.311,88.529 46.848,87.806 "/>
<line fill="none" stroke="#040000" stroke-width="0.28" stroke-linecap="round" stroke-miterlimit="10" x1="61.069" y1="88.144" x2="47.664" y2="87.406"/>
<line fill="none" stroke="#040000" stroke-width="0.28" stroke-linecap="round" stroke-miterlimit="10" x1="61.827" y1="87.705" x2="48.373" y2="86.992"/>
<line fill="none" stroke="#040000" stroke-width="0.28" stroke-linecap="round" stroke-miterlimit="10" x1="62.584" y1="87.269" x2="49.173" y2="86.525"/>
<line fill="none" stroke="#040000" stroke-width="0.28" stroke-linecap="round" stroke-miterlimit="10" x1="63.343" y1="86.83" x2="49.929" y2="86.083"/>
<line fill="none" stroke="#040000" stroke-width="0.28" stroke-linecap="round" stroke-miterlimit="10" x1="64.101" y1="86.394" x2="50.639" y2="85.671"/>
<line fill="none" stroke="#040000" stroke-width="0.28" stroke-linecap="round" stroke-miterlimit="10" x1="64.831" y1="85.919" x2="51.426" y2="85.179"/>
<line fill="none" stroke="#040000" stroke-width="0.28" stroke-linecap="round" stroke-miterlimit="10" x1="65.588" y1="85.433" x2="52.135" y2="84.718"/>
<line fill="none" stroke="#040000" stroke-width="0.28" stroke-linecap="round" stroke-miterlimit="10" x1="66.347" y1="84.996" x2="52.936" y2="84.251"/>
<line fill="none" stroke="#040000" stroke-width="0.28" stroke-linecap="round" stroke-miterlimit="10" x1="67.105" y1="84.558" x2="53.691" y2="83.812"/>
<line fill="none" stroke="#040000" stroke-width="0.28" stroke-linecap="round" stroke-miterlimit="10" x1="67.863" y1="84.121" x2="54.4" y2="83.398"/>
<line fill="none" stroke="#040000" stroke-width="0.28" stroke-linecap="round" stroke-miterlimit="10" x1="68.593" y1="83.685" x2="55.188" y2="82.947"/>
<line fill="none" stroke="#040000" stroke-width="0.28" stroke-linecap="round" stroke-miterlimit="10" x1="69.351" y1="83.248" x2="55.897" y2="82.533"/>
<line fill="none" stroke="#040000" stroke-width="0.28" stroke-linecap="round" stroke-miterlimit="10" x1="70.109" y1="82.81" x2="56.698" y2="82.066"/>
<line fill="none" stroke="#040000" stroke-width="0.28" stroke-linecap="round" stroke-miterlimit="10" x1="70.867" y1="82.373" x2="57.453" y2="81.626"/>
<line fill="none" stroke="#040000" stroke-width="0.28" stroke-linecap="round" stroke-miterlimit="10" x1="71.625" y1="81.935" x2="58.162" y2="81.212"/>
<line fill="none" stroke="#040000" stroke-width="0.28" stroke-linecap="round" stroke-miterlimit="10" x1="72.418" y1="81.5" x2="59.004" y2="80.751"/>
<line fill="none" stroke="#040000" stroke-width="0.28" stroke-linecap="round" stroke-miterlimit="10" x1="73.177" y1="81.062" x2="59.714" y2="80.339"/>
<line fill="none" stroke="#040000" stroke-width="0.28" stroke-linecap="round" stroke-miterlimit="10" x1="73.907" y1="80.626" x2="60.501" y2="79.888"/>
<line fill="none" stroke="#040000" stroke-width="0.28" stroke-linecap="round" stroke-miterlimit="10" x1="74.665" y1="80.189" x2="61.21" y2="79.474"/>
<line fill="none" stroke="#040000" stroke-width="0.28" stroke-linecap="round" stroke-miterlimit="10" x1="75.422" y1="79.751" x2="62.012" y2="79.007"/>
<line fill="none" stroke="#040000" stroke-width="0.28" stroke-linecap="round" stroke-miterlimit="10" x1="76.181" y1="79.314" x2="62.767" y2="78.566"/>
<line fill="none" stroke="#040000" stroke-width="0.28" stroke-linecap="round" stroke-miterlimit="10" x1="76.939" y1="78.876" x2="63.476" y2="78.154"/>
<line fill="none" stroke="#040000" stroke-width="0.28" stroke-linecap="round" stroke-miterlimit="10" x1="77.639" y1="78.453" x2="64.228" y2="77.708"/>
<line fill="none" stroke="#040000" stroke-width="0.28" stroke-linecap="round" stroke-miterlimit="10" x1="78.397" y1="78.015" x2="64.983" y2="77.269"/>
<line fill="none" stroke="#040000" stroke-width="0.28" stroke-linecap="round" stroke-miterlimit="10" x1="79.155" y1="77.578" x2="65.693" y2="76.855"/>
<line fill="none" stroke="#040000" stroke-width="0.28" stroke-linecap="round" stroke-miterlimit="10" x1="61.071" y1="88.089" x2="72.321" y2="99.552"/>
<line fill="none" stroke="#040000" stroke-width="0.28" stroke-linecap="round" stroke-miterlimit="10" x1="61.829" y1="87.652" x2="73.079" y2="99.115"/>
<line fill="none" stroke="#040000" stroke-width="0.28" stroke-linecap="round" stroke-miterlimit="10" x1="62.586" y1="87.214" x2="73.836" y2="98.677"/>
<line fill="none" stroke="#040000" stroke-width="0.28" stroke-linecap="round" stroke-miterlimit="10" x1="63.345" y1="86.777" x2="74.595" y2="98.24"/>
<line fill="none" stroke="#040000" stroke-width="0.28" stroke-linecap="round" stroke-miterlimit="10" x1="64.103" y1="86.339" x2="75.353" y2="97.802"/>
<line fill="none" stroke="#040000" stroke-width="0.28" stroke-linecap="round" stroke-miterlimit="10" x1="64.861" y1="85.902" x2="76.111" y2="97.365"/>
<line fill="none" stroke="#040000" stroke-width="0.28" stroke-linecap="round" stroke-miterlimit="10" x1="65.618" y1="85.464" x2="76.868" y2="96.927"/>
<line fill="none" stroke="#040000" stroke-width="0.28" stroke-linecap="round" stroke-miterlimit="10" x1="66.376" y1="85.027" x2="77.626" y2="96.488"/>
<line fill="none" stroke="#040000" stroke-width="0.28" stroke-linecap="round" stroke-miterlimit="10" x1="67.135" y1="84.589" x2="78.385" y2="96.052"/>
<line fill="none" stroke="#040000" stroke-width="0.28" stroke-linecap="round" stroke-miterlimit="10" x1="67.893" y1="84.152" x2="79.143" y2="95.615"/>
<line fill="none" stroke="#040000" stroke-width="0.28" stroke-linecap="round" stroke-miterlimit="10" x1="68.651" y1="83.714" x2="79.901" y2="95.177"/>
<line fill="none" stroke="#040000" stroke-width="0.28" stroke-linecap="round" stroke-miterlimit="10" x1="69.409" y1="83.277" x2="80.659" y2="94.74"/>
<line fill="none" stroke="#040000" stroke-width="0.28" stroke-linecap="round" stroke-miterlimit="10" x1="70.167" y1="82.839" x2="81.417" y2="94.302"/>
<line fill="none" stroke="#040000" stroke-width="0.28" stroke-linecap="round" stroke-miterlimit="10" x1="70.924" y1="82.402" x2="82.174" y2="93.863"/>
<line fill="none" stroke="#040000" stroke-width="0.28" stroke-linecap="round" stroke-miterlimit="10" x1="71.683" y1="81.964" x2="82.933" y2="93.427"/>
<line fill="none" stroke="#040000" stroke-width="0.28" stroke-linecap="round" stroke-miterlimit="10" x1="72.441" y1="81.527" x2="83.691" y2="92.99"/>
<line fill="none" stroke="#040000" stroke-width="0.28" stroke-linecap="round" stroke-miterlimit="10" x1="73.199" y1="81.089" x2="84.449" y2="92.552"/>
<line fill="none" stroke="#040000" stroke-width="0.28" stroke-linecap="round" stroke-miterlimit="10" x1="73.957" y1="80.652" x2="85.207" y2="92.115"/>
<line fill="none" stroke="#040000" stroke-width="0.28" stroke-linecap="round" stroke-miterlimit="10" x1="74.714" y1="80.214" x2="85.964" y2="91.677"/>
<line fill="none" stroke="#040000" stroke-width="0.28" stroke-linecap="round" stroke-miterlimit="10" x1="75.473" y1="79.777" x2="86.723" y2="91.24"/>
<line fill="none" stroke="#040000" stroke-width="0.28" stroke-linecap="round" stroke-miterlimit="10" x1="76.231" y1="79.339" x2="87.481" y2="90.802"/>
<line fill="none" stroke="#040000" stroke-width="0.28" stroke-linecap="round" stroke-miterlimit="10" x1="76.989" y1="78.902" x2="88.239" y2="90.363"/>
<line fill="none" stroke="#040000" stroke-width="0.28" stroke-linecap="round" stroke-miterlimit="10" x1="77.747" y1="78.464" x2="88.997" y2="89.927"/>
<line fill="none" stroke="#040000" stroke-width="0.28" stroke-linecap="round" stroke-miterlimit="10" x1="78.504" y1="78.027" x2="89.754" y2="89.488"/>
<line fill="none" stroke="#040000" stroke-width="0.28" stroke-linecap="round" stroke-miterlimit="10" x1="79.262" y1="77.589" x2="90.512" y2="89.052"/>
<line fill="none" stroke="#040000" stroke-width="0.28" stroke-linecap="round" stroke-miterlimit="10" x1="80.021" y1="77.15" x2="91.271" y2="88.613"/>
<line fill="none" stroke="#040000" stroke-width="0.28" stroke-linecap="round" stroke-miterlimit="10" x1="79.909" y1="77.148" x2="66.447" y2="76.425"/>
<line fill="none" stroke="#040000" stroke-width="0.28" stroke-linecap="round" stroke-miterlimit="10" x1="119.443" y1="116.263" x2="119.443" y2="105.642"/>
<polyline fill="none" stroke="#040000" stroke-width="0.28" stroke-linecap="round" stroke-miterlimit="10" points="135.351,96.347 
	135.351,107.121 119.443,116.265 102.942,106.449 102.942,97.078 "/>
<polygon fill="none" stroke="#040000" stroke-width="0.28" stroke-linecap="round" stroke-miterlimit="10" points="99.034,96.777 
	109.243,97.566 117.899,106.521 136.594,95.578 136.596,94.666 127.852,85.812 117.453,85.281 99.034,96.023 "/>
<polyline fill="none" stroke="#040000" stroke-width="0.28" stroke-linecap="round" stroke-miterlimit="10" points="99.034,96.023 
	109.292,96.615 117.944,105.431 117.899,106.521 "/>
<line fill="none" stroke="#040000" stroke-width="0.28" stroke-linecap="round" stroke-miterlimit="10" x1="136.596" y1="94.666" x2="117.944" y2="105.431"/>
<polyline fill="none" stroke="#040000" stroke-width="0.28" stroke-linecap="round" stroke-miterlimit="10" points="127.852,85.812 
	109.292,96.615 117.944,105.431 "/>
<polyline fill="none" stroke="#040000" stroke-width="0.28" stroke-linecap="round" stroke-miterlimit="10" points="
	118.527,105.093 109.875,96.279 99.568,95.71 "/>
<polyline fill="none" stroke="#040000" stroke-width="0.28" stroke-linecap="round" stroke-miterlimit="10" points="119.11,104.757 
	110.458,95.943 100.113,95.394 "/>
<polyline fill="none" stroke="#040000" stroke-width="0.28" stroke-linecap="round" stroke-miterlimit="10" points="
	119.693,104.421 111.042,95.605 100.729,95.033 "/>
<polyline fill="none" stroke="#040000" stroke-width="0.28" stroke-linecap="round" stroke-miterlimit="10" points="
	120.276,104.085 111.625,95.269 101.309,94.695 "/>
<polyline fill="none" stroke="#040000" stroke-width="0.28" stroke-linecap="round" stroke-miterlimit="10" points="
	120.859,103.748 112.208,94.935 101.855,94.378 "/>
<line fill="none" stroke="#040000" stroke-width="0.28" stroke-linecap="round" stroke-miterlimit="10" x1="112.79" y1="94.638" x2="102.482" y2="94.07"/>
<line fill="none" stroke="#040000" stroke-width="0.28" stroke-linecap="round" stroke-miterlimit="10" x1="113.373" y1="94.3" x2="103.027" y2="93.751"/>
<line fill="none" stroke="#040000" stroke-width="0.28" stroke-linecap="round" stroke-miterlimit="10" x1="113.956" y1="93.964" x2="103.643" y2="93.394"/>
<line fill="none" stroke="#040000" stroke-width="0.28" stroke-linecap="round" stroke-miterlimit="10" x1="114.539" y1="93.628" x2="104.224" y2="93.054"/>
<line fill="none" stroke="#040000" stroke-width="0.28" stroke-linecap="round" stroke-miterlimit="10" x1="115.122" y1="93.292" x2="104.769" y2="92.736"/>
<line fill="none" stroke="#040000" stroke-width="0.28" stroke-linecap="round" stroke-miterlimit="10" x1="115.683" y1="92.927" x2="105.375" y2="92.359"/>
<line fill="none" stroke="#040000" stroke-width="0.28" stroke-linecap="round" stroke-miterlimit="10" x1="116.266" y1="92.554" x2="105.919" y2="92.005"/>
<line fill="none" stroke="#040000" stroke-width="0.28" stroke-linecap="round" stroke-miterlimit="10" x1="116.849" y1="92.218" x2="106.536" y2="91.644"/>
<line fill="none" stroke="#040000" stroke-width="0.28" stroke-linecap="round" stroke-miterlimit="10" x1="117.432" y1="91.88" x2="107.117" y2="91.308"/>
<line fill="none" stroke="#040000" stroke-width="0.28" stroke-linecap="round" stroke-miterlimit="10" x1="118.015" y1="91.544" x2="107.662" y2="90.99"/>
<line fill="none" stroke="#040000" stroke-width="0.28" stroke-linecap="round" stroke-miterlimit="10" x1="118.577" y1="91.21" x2="108.268" y2="90.644"/>
<line fill="none" stroke="#040000" stroke-width="0.28" stroke-linecap="round" stroke-miterlimit="10" x1="119.159" y1="90.875" x2="108.813" y2="90.324"/>
<line fill="none" stroke="#040000" stroke-width="0.28" stroke-linecap="round" stroke-miterlimit="10" x1="119.742" y1="90.537" x2="109.429" y2="89.966"/>
<line fill="none" stroke="#040000" stroke-width="0.28" stroke-linecap="round" stroke-miterlimit="10" x1="120.325" y1="90.201" x2="110.01" y2="89.626"/>
<line fill="none" stroke="#040000" stroke-width="0.28" stroke-linecap="round" stroke-miterlimit="10" x1="120.908" y1="89.865" x2="110.555" y2="89.31"/>
<line fill="none" stroke="#040000" stroke-width="0.28" stroke-linecap="round" stroke-miterlimit="10" x1="121.519" y1="89.531" x2="111.204" y2="88.957"/>
<line fill="none" stroke="#040000" stroke-width="0.28" stroke-linecap="round" stroke-miterlimit="10" x1="122.102" y1="89.195" x2="111.749" y2="88.64"/>
<line fill="none" stroke="#040000" stroke-width="0.28" stroke-linecap="round" stroke-miterlimit="10" x1="122.663" y1="88.859" x2="112.355" y2="88.292"/>
<line fill="none" stroke="#040000" stroke-width="0.28" stroke-linecap="round" stroke-miterlimit="10" x1="123.246" y1="88.523" x2="112.9" y2="87.974"/>
<line fill="none" stroke="#040000" stroke-width="0.28" stroke-linecap="round" stroke-miterlimit="10" x1="123.829" y1="88.187" x2="113.516" y2="87.615"/>
<line fill="none" stroke="#040000" stroke-width="0.28" stroke-linecap="round" stroke-miterlimit="10" x1="124.412" y1="87.851" x2="114.096" y2="87.277"/>
<line fill="none" stroke="#040000" stroke-width="0.28" stroke-linecap="round" stroke-miterlimit="10" x1="124.995" y1="87.515" x2="114.642" y2="86.958"/>
<line fill="none" stroke="#040000" stroke-width="0.28" stroke-linecap="round" stroke-miterlimit="10" x1="125.533" y1="87.187" x2="115.22" y2="86.615"/>
<line fill="none" stroke="#040000" stroke-width="0.28" stroke-linecap="round" stroke-miterlimit="10" x1="126.116" y1="86.853" x2="115.801" y2="86.277"/>
<line fill="none" stroke="#040000" stroke-width="0.28" stroke-linecap="round" stroke-miterlimit="10" x1="126.699" y1="86.515" x2="116.346" y2="85.958"/>
<line fill="none" stroke="#040000" stroke-width="0.28" stroke-linecap="round" stroke-miterlimit="10" x1="112.792" y1="94.599" x2="121.443" y2="103.414"/>
<line fill="none" stroke="#040000" stroke-width="0.28" stroke-linecap="round" stroke-miterlimit="10" x1="113.375" y1="94.263" x2="122.026" y2="103.076"/>
<line fill="none" stroke="#040000" stroke-width="0.28" stroke-linecap="round" stroke-miterlimit="10" x1="113.958" y1="93.927" x2="122.609" y2="102.74"/>
<line fill="none" stroke="#040000" stroke-width="0.28" stroke-linecap="round" stroke-miterlimit="10" x1="114.541" y1="93.589" x2="123.192" y2="102.404"/>
<line fill="none" stroke="#040000" stroke-width="0.28" stroke-linecap="round" stroke-miterlimit="10" x1="115.124" y1="93.253" x2="123.775" y2="102.068"/>
<line fill="none" stroke="#040000" stroke-width="0.28" stroke-linecap="round" stroke-miterlimit="10" x1="115.707" y1="92.916" x2="124.358" y2="101.73"/>
<line fill="none" stroke="#040000" stroke-width="0.28" stroke-linecap="round" stroke-miterlimit="10" x1="116.29" y1="92.58" x2="124.941" y2="101.394"/>
<line fill="none" stroke="#040000" stroke-width="0.28" stroke-linecap="round" stroke-miterlimit="10" x1="116.873" y1="92.244" x2="125.524" y2="101.06"/>
<line fill="none" stroke="#040000" stroke-width="0.28" stroke-linecap="round" stroke-miterlimit="10" x1="117.456" y1="91.908" x2="126.107" y2="100.724"/>
<line fill="none" stroke="#040000" stroke-width="0.28" stroke-linecap="round" stroke-miterlimit="10" x1="118.039" y1="91.572" x2="126.69" y2="100.388"/>
<line fill="none" stroke="#040000" stroke-width="0.28" stroke-linecap="round" stroke-miterlimit="10" x1="118.622" y1="91.236" x2="127.273" y2="100.052"/>
<line fill="none" stroke="#040000" stroke-width="0.28" stroke-linecap="round" stroke-miterlimit="10" x1="119.205" y1="90.898" x2="127.856" y2="99.714"/>
<line fill="none" stroke="#040000" stroke-width="0.28" stroke-linecap="round" stroke-miterlimit="10" x1="119.788" y1="90.562" x2="128.439" y2="99.378"/>
<line fill="none" stroke="#040000" stroke-width="0.28" stroke-linecap="round" stroke-miterlimit="10" x1="120.371" y1="90.226" x2="129.022" y2="99.042"/>
<line fill="none" stroke="#040000" stroke-width="0.28" stroke-linecap="round" stroke-miterlimit="10" x1="120.954" y1="89.89" x2="129.605" y2="98.705"/>
<line fill="none" stroke="#040000" stroke-width="0.28" stroke-linecap="round" stroke-miterlimit="10" x1="121.537" y1="89.554" x2="130.188" y2="98.367"/>
<line fill="none" stroke="#040000" stroke-width="0.28" stroke-linecap="round" stroke-miterlimit="10" x1="122.12" y1="89.218" x2="130.771" y2="98.031"/>
<line fill="none" stroke="#040000" stroke-width="0.28" stroke-linecap="round" stroke-miterlimit="10" x1="122.703" y1="88.88" x2="131.354" y2="97.695"/>
<line fill="none" stroke="#040000" stroke-width="0.28" stroke-linecap="round" stroke-miterlimit="10" x1="123.286" y1="88.544" x2="131.937" y2="97.359"/>
<line fill="none" stroke="#040000" stroke-width="0.28" stroke-linecap="round" stroke-miterlimit="10" x1="123.868" y1="88.208" x2="132.52" y2="97.023"/>
<line fill="none" stroke="#040000" stroke-width="0.28" stroke-linecap="round" stroke-miterlimit="10" x1="124.452" y1="87.873" x2="133.103" y2="96.687"/>
<line fill="none" stroke="#040000" stroke-width="0.28" stroke-linecap="round" stroke-miterlimit="10" x1="125.034" y1="87.537" x2="133.686" y2="96.351"/>
<line fill="none" stroke="#040000" stroke-width="0.28" stroke-linecap="round" stroke-miterlimit="10" x1="125.618" y1="87.199" x2="134.269" y2="96.015"/>
<line fill="none" stroke="#040000" stroke-width="0.28" stroke-linecap="round" stroke-miterlimit="10" x1="126.202" y1="86.863" x2="134.852" y2="95.679"/>
<line fill="none" stroke="#040000" stroke-width="0.28" stroke-linecap="round" stroke-miterlimit="10" x1="126.784" y1="86.527" x2="135.435" y2="95.343"/>
<line fill="none" stroke="#040000" stroke-width="0.28" stroke-linecap="round" stroke-miterlimit="10" x1="127.367" y1="86.191" x2="136.018" y2="95.007"/>
<line fill="none" stroke="#040000" stroke-width="0.28" stroke-linecap="round" stroke-miterlimit="10" x1="127.281" y1="86.187" x2="116.928" y2="85.632"/>
<line fill="none" stroke="#040000" stroke-width="0.28" stroke-linecap="round" stroke-miterlimit="10" x1="20.557" y1="116.269" x2="20.557" y2="105.644"/>
<polyline fill="none" stroke="#040000" stroke-width="0.28" stroke-linecap="round" stroke-miterlimit="10" points="36.465,96.351 
	36.465,107.126 20.557,116.269 4.056,106.455 4.056,97.083 "/>
<polygon fill="none" stroke="#040000" stroke-width="0.28" stroke-linecap="round" stroke-miterlimit="10" points="0.14,96.777 
	10.349,97.566 19.005,106.521 37.702,95.58 37.703,94.666 28.958,85.812 18.559,85.281 0.14,96.023 "/>
<polyline fill="none" stroke="#040000" stroke-width="0.28" stroke-linecap="round" stroke-miterlimit="10" points="0.14,96.023 
	10.399,96.615 19.05,105.431 19.005,106.521 "/>
<line fill="none" stroke="#040000" stroke-width="0.28" stroke-linecap="round" stroke-miterlimit="10" x1="37.703" y1="94.666" x2="19.05" y2="105.431"/>
<polyline fill="none" stroke="#040000" stroke-width="0.28" stroke-linecap="round" stroke-miterlimit="10" points="28.959,85.812 
	10.399,96.617 19.051,105.431 "/>
<polyline fill="none" stroke="#040000" stroke-width="0.28" stroke-linecap="round" stroke-miterlimit="10" points="19.634,105.095 
	10.983,96.279 0.675,95.712 "/>
<polyline fill="none" stroke="#040000" stroke-width="0.28" stroke-linecap="round" stroke-miterlimit="10" points="20.217,104.759 
	11.566,95.943 1.22,95.394 "/>
<polyline fill="none" stroke="#040000" stroke-width="0.28" stroke-linecap="round" stroke-miterlimit="10" points="20.8,104.421 
	12.149,95.605 1.836,95.035 "/>
<polyline fill="none" stroke="#040000" stroke-width="0.28" stroke-linecap="round" stroke-miterlimit="10" points="21.383,104.085 
	12.732,95.269 2.417,94.695 "/>
<polyline fill="none" stroke="#040000" stroke-width="0.28" stroke-linecap="round" stroke-miterlimit="10" points="21.966,103.75 
	13.315,94.935 2.962,94.378 "/>
<line fill="none" stroke="#040000" stroke-width="0.28" stroke-linecap="round" stroke-miterlimit="10" x1="13.897" y1="94.638" x2="3.589" y2="94.07"/>
<line fill="none" stroke="#040000" stroke-width="0.28" stroke-linecap="round" stroke-miterlimit="10" x1="14.48" y1="94.302" x2="4.134" y2="93.753"/>
<line fill="none" stroke="#040000" stroke-width="0.28" stroke-linecap="round" stroke-miterlimit="10" x1="15.063" y1="93.966" x2="4.75" y2="93.394"/>
<line fill="none" stroke="#040000" stroke-width="0.28" stroke-linecap="round" stroke-miterlimit="10" x1="15.646" y1="93.628" x2="5.332" y2="93.054"/>
<line fill="none" stroke="#040000" stroke-width="0.28" stroke-linecap="round" stroke-miterlimit="10" x1="16.229" y1="93.292" x2="5.876" y2="92.736"/>
<line fill="none" stroke="#040000" stroke-width="0.28" stroke-linecap="round" stroke-miterlimit="10" x1="16.791" y1="92.927" x2="6.482" y2="92.359"/>
<line fill="none" stroke="#040000" stroke-width="0.28" stroke-linecap="round" stroke-miterlimit="10" x1="17.374" y1="92.554" x2="7.027" y2="92.005"/>
<line fill="none" stroke="#040000" stroke-width="0.28" stroke-linecap="round" stroke-miterlimit="10" x1="17.957" y1="92.218" x2="7.643" y2="91.644"/>
<line fill="none" stroke="#040000" stroke-width="0.28" stroke-linecap="round" stroke-miterlimit="10" x1="18.54" y1="91.882" x2="8.224" y2="91.308"/>
<line fill="none" stroke="#040000" stroke-width="0.28" stroke-linecap="round" stroke-miterlimit="10" x1="19.123" y1="91.546" x2="8.769" y2="90.99"/>
<line fill="none" stroke="#040000" stroke-width="0.28" stroke-linecap="round" stroke-miterlimit="10" x1="19.683" y1="91.212" x2="9.375" y2="90.644"/>
<line fill="none" stroke="#040000" stroke-width="0.28" stroke-linecap="round" stroke-miterlimit="10" x1="20.266" y1="90.875" x2="9.92" y2="90.326"/>
<line fill="none" stroke="#040000" stroke-width="0.28" stroke-linecap="round" stroke-miterlimit="10" x1="20.849" y1="90.539" x2="10.536" y2="89.966"/>
<line fill="none" stroke="#040000" stroke-width="0.28" stroke-linecap="round" stroke-miterlimit="10" x1="21.432" y1="90.203" x2="11.117" y2="89.628"/>
<line fill="none" stroke="#040000" stroke-width="0.28" stroke-linecap="round" stroke-miterlimit="10" x1="22.015" y1="89.867" x2="11.663" y2="89.31"/>
<line fill="none" stroke="#040000" stroke-width="0.28" stroke-linecap="round" stroke-miterlimit="10" x1="22.626" y1="89.531" x2="12.311" y2="88.958"/>
<line fill="none" stroke="#040000" stroke-width="0.28" stroke-linecap="round" stroke-miterlimit="10" x1="23.209" y1="89.195" x2="12.856" y2="88.64"/>
<line fill="none" stroke="#040000" stroke-width="0.28" stroke-linecap="round" stroke-miterlimit="10" x1="23.77" y1="88.861" x2="13.462" y2="88.292"/>
<line fill="none" stroke="#040000" stroke-width="0.28" stroke-linecap="round" stroke-miterlimit="10" x1="24.353" y1="88.523" x2="14.007" y2="87.974"/>
<line fill="none" stroke="#040000" stroke-width="0.28" stroke-linecap="round" stroke-miterlimit="10" x1="24.936" y1="88.187" x2="14.624" y2="87.615"/>
<line fill="none" stroke="#040000" stroke-width="0.28" stroke-linecap="round" stroke-miterlimit="10" x1="25.519" y1="87.851" x2="15.205" y2="87.277"/>
<line fill="none" stroke="#040000" stroke-width="0.28" stroke-linecap="round" stroke-miterlimit="10" x1="26.102" y1="87.515" x2="15.75" y2="86.96"/>
<line fill="none" stroke="#040000" stroke-width="0.28" stroke-linecap="round" stroke-miterlimit="10" x1="26.64" y1="87.187" x2="16.328" y2="86.617"/>
<line fill="none" stroke="#040000" stroke-width="0.28" stroke-linecap="round" stroke-miterlimit="10" x1="27.223" y1="86.853" x2="16.909" y2="86.277"/>
<line fill="none" stroke="#040000" stroke-width="0.28" stroke-linecap="round" stroke-miterlimit="10" x1="27.806" y1="86.515" x2="17.454" y2="85.96"/>
<line fill="none" stroke="#040000" stroke-width="0.28" stroke-linecap="round" stroke-miterlimit="10" x1="13.899" y1="94.599" x2="22.55" y2="103.416"/>
<line fill="none" stroke="#040000" stroke-width="0.28" stroke-linecap="round" stroke-miterlimit="10" x1="14.482" y1="94.263" x2="23.133" y2="103.078"/>
<line fill="none" stroke="#040000" stroke-width="0.28" stroke-linecap="round" stroke-miterlimit="10" x1="15.065" y1="93.927" x2="23.716" y2="102.742"/>
<line fill="none" stroke="#040000" stroke-width="0.28" stroke-linecap="round" stroke-miterlimit="10" x1="15.648" y1="93.589" x2="24.299" y2="102.404"/>
<line fill="none" stroke="#040000" stroke-width="0.28" stroke-linecap="round" stroke-miterlimit="10" x1="16.231" y1="93.253" x2="24.882" y2="102.068"/>
<line fill="none" stroke="#040000" stroke-width="0.28" stroke-linecap="round" stroke-miterlimit="10" x1="16.814" y1="92.917" x2="25.465" y2="101.732"/>
<line fill="none" stroke="#040000" stroke-width="0.28" stroke-linecap="round" stroke-miterlimit="10" x1="17.397" y1="92.58" x2="26.048" y2="101.396"/>
<line fill="none" stroke="#040000" stroke-width="0.28" stroke-linecap="round" stroke-miterlimit="10" x1="17.98" y1="92.244" x2="26.631" y2="101.06"/>
<line fill="none" stroke="#040000" stroke-width="0.28" stroke-linecap="round" stroke-miterlimit="10" x1="18.563" y1="91.908" x2="27.214" y2="100.724"/>
<line fill="none" stroke="#040000" stroke-width="0.28" stroke-linecap="round" stroke-miterlimit="10" x1="19.146" y1="91.572" x2="27.797" y2="100.388"/>
<line fill="none" stroke="#040000" stroke-width="0.28" stroke-linecap="round" stroke-miterlimit="10" x1="19.729" y1="91.236" x2="28.38" y2="100.052"/>
<line fill="none" stroke="#040000" stroke-width="0.28" stroke-linecap="round" stroke-miterlimit="10" x1="20.312" y1="90.9" x2="28.963" y2="99.714"/>
<line fill="none" stroke="#040000" stroke-width="0.28" stroke-linecap="round" stroke-miterlimit="10" x1="20.895" y1="90.564" x2="29.546" y2="99.378"/>
<line fill="none" stroke="#040000" stroke-width="0.28" stroke-linecap="round" stroke-miterlimit="10" x1="21.478" y1="90.226" x2="30.129" y2="99.042"/>
<line fill="none" stroke="#040000" stroke-width="0.28" stroke-linecap="round" stroke-miterlimit="10" x1="22.061" y1="89.89" x2="30.712" y2="98.705"/>
<line fill="none" stroke="#040000" stroke-width="0.28" stroke-linecap="round" stroke-miterlimit="10" x1="22.644" y1="89.554" x2="31.295" y2="98.369"/>
<line fill="none" stroke="#040000" stroke-width="0.28" stroke-linecap="round" stroke-miterlimit="10" x1="23.227" y1="89.218" x2="31.878" y2="98.033"/>
<line fill="none" stroke="#040000" stroke-width="0.28" stroke-linecap="round" stroke-miterlimit="10" x1="23.81" y1="88.88" x2="32.461" y2="97.695"/>
<line fill="none" stroke="#040000" stroke-width="0.28" stroke-linecap="round" stroke-miterlimit="10" x1="24.393" y1="88.544" x2="33.044" y2="97.359"/>
<line fill="none" stroke="#040000" stroke-width="0.28" stroke-linecap="round" stroke-miterlimit="10" x1="24.976" y1="88.208" x2="33.627" y2="97.023"/>
<line fill="none" stroke="#040000" stroke-width="0.28" stroke-linecap="round" stroke-miterlimit="10" x1="25.559" y1="87.873" x2="34.21" y2="96.687"/>
<line fill="none" stroke="#040000" stroke-width="0.28" stroke-linecap="round" stroke-miterlimit="10" x1="26.142" y1="87.537" x2="34.793" y2="96.351"/>
<line fill="none" stroke="#040000" stroke-width="0.28" stroke-linecap="round" stroke-miterlimit="10" x1="26.725" y1="87.199" x2="35.376" y2="96.015"/>
<line fill="none" stroke="#040000" stroke-width="0.28" stroke-linecap="round" stroke-miterlimit="10" x1="27.308" y1="86.863" x2="35.959" y2="95.679"/>
<line fill="none" stroke="#040000" stroke-width="0.28" stroke-linecap="round" stroke-miterlimit="10" x1="27.891" y1="86.527" x2="36.542" y2="95.343"/>
<line fill="none" stroke="#040000" stroke-width="0.28" stroke-linecap="round" stroke-miterlimit="10" x1="28.474" y1="86.191" x2="37.125" y2="95.007"/>
<line fill="none" stroke="#040000" stroke-width="0.28" stroke-linecap="round" stroke-miterlimit="10" x1="28.388" y1="86.189" x2="18.036" y2="85.632"/>
<line fill="none" stroke="#040000" stroke-width="0.28" stroke-linecap="round" stroke-miterlimit="10" x1="167.638" y1="116.269" x2="167.638" y2="105.646"/>
<polyline fill="none" stroke="#040000" stroke-width="0.28" stroke-linecap="round" stroke-miterlimit="10" points="183.546,96.353 
	183.546,107.126 167.638,116.269 151.137,106.455 151.137,97.083 "/>
<polygon fill="none" stroke="#040000" stroke-width="0.28" stroke-linecap="round" stroke-miterlimit="10" points="147.231,96.781 
	157.44,97.57 166.095,106.525 184.792,95.583 184.792,94.669 176.048,85.816 165.649,85.287 147.231,96.027 "/>
<polyline fill="none" stroke="#040000" stroke-width="0.28" stroke-linecap="round" stroke-miterlimit="10" points="147.231,96.027 
	157.49,96.621 166.14,105.437 166.095,106.525 "/>
<line fill="none" stroke="#040000" stroke-width="0.28" stroke-linecap="round" stroke-miterlimit="10" x1="184.792" y1="94.669" x2="166.139" y2="105.437"/>
<polyline fill="none" stroke="#040000" stroke-width="0.28" stroke-linecap="round" stroke-miterlimit="10" points="176.048,85.816 
	157.489,96.621 166.139,105.437 "/>
<polyline fill="none" stroke="#040000" stroke-width="0.28" stroke-linecap="round" stroke-miterlimit="10" points="
	166.723,105.099 158.073,96.283 147.763,95.716 "/>
<polyline fill="none" stroke="#040000" stroke-width="0.28" stroke-linecap="round" stroke-miterlimit="10" points="
	167.306,104.763 158.656,95.947 148.308,95.398 "/>
<polyline fill="none" stroke="#040000" stroke-width="0.28" stroke-linecap="round" stroke-miterlimit="10" points="
	167.889,104.425 159.239,95.611 148.925,95.039 "/>
<polyline fill="none" stroke="#040000" stroke-width="0.28" stroke-linecap="round" stroke-miterlimit="10" points="
	168.472,104.089 159.822,95.275 149.505,94.701 "/>
<polyline fill="none" stroke="#040000" stroke-width="0.28" stroke-linecap="round" stroke-miterlimit="10" points="
	169.055,103.753 160.405,94.939 150.051,94.382 "/>
<line fill="none" stroke="#040000" stroke-width="0.28" stroke-linecap="round" stroke-miterlimit="10" x1="160.987" y1="94.644" x2="150.678" y2="94.074"/>
<line fill="none" stroke="#040000" stroke-width="0.28" stroke-linecap="round" stroke-miterlimit="10" x1="161.57" y1="94.306" x2="151.223" y2="93.757"/>
<line fill="none" stroke="#040000" stroke-width="0.28" stroke-linecap="round" stroke-miterlimit="10" x1="162.153" y1="93.97" x2="151.839" y2="93.398"/>
<line fill="none" stroke="#040000" stroke-width="0.28" stroke-linecap="round" stroke-miterlimit="10" x1="162.736" y1="93.632" x2="152.42" y2="93.06"/>
<line fill="none" stroke="#040000" stroke-width="0.28" stroke-linecap="round" stroke-miterlimit="10" x1="163.319" y1="93.296" x2="152.965" y2="92.74"/>
<line fill="none" stroke="#040000" stroke-width="0.28" stroke-linecap="round" stroke-miterlimit="10" x1="163.879" y1="92.933" x2="153.572" y2="92.363"/>
<line fill="none" stroke="#040000" stroke-width="0.28" stroke-linecap="round" stroke-miterlimit="10" x1="164.462" y1="92.56" x2="154.117" y2="92.011"/>
<line fill="none" stroke="#040000" stroke-width="0.28" stroke-linecap="round" stroke-miterlimit="10" x1="165.045" y1="92.222" x2="154.733" y2="91.65"/>
<line fill="none" stroke="#040000" stroke-width="0.28" stroke-linecap="round" stroke-miterlimit="10" x1="165.628" y1="91.886" x2="155.313" y2="91.312"/>
<line fill="none" stroke="#040000" stroke-width="0.28" stroke-linecap="round" stroke-miterlimit="10" x1="166.211" y1="91.55" x2="155.859" y2="90.994"/>
<line fill="none" stroke="#040000" stroke-width="0.28" stroke-linecap="round" stroke-miterlimit="10" x1="166.772" y1="91.216" x2="156.463" y2="90.648"/>
<line fill="none" stroke="#040000" stroke-width="0.28" stroke-linecap="round" stroke-miterlimit="10" x1="167.356" y1="90.878" x2="157.009" y2="90.33"/>
<line fill="none" stroke="#040000" stroke-width="0.28" stroke-linecap="round" stroke-miterlimit="10" x1="167.938" y1="90.542" x2="157.626" y2="89.972"/>
<line fill="none" stroke="#040000" stroke-width="0.28" stroke-linecap="round" stroke-miterlimit="10" x1="168.522" y1="90.207" x2="158.207" y2="89.632"/>
<line fill="none" stroke="#040000" stroke-width="0.28" stroke-linecap="round" stroke-miterlimit="10" x1="169.104" y1="89.871" x2="158.752" y2="89.314"/>
<line fill="none" stroke="#040000" stroke-width="0.28" stroke-linecap="round" stroke-miterlimit="10" x1="169.715" y1="89.535" x2="159.401" y2="88.962"/>
<line fill="none" stroke="#040000" stroke-width="0.28" stroke-linecap="round" stroke-miterlimit="10" x1="170.298" y1="89.199" x2="159.946" y2="88.644"/>
<line fill="none" stroke="#040000" stroke-width="0.28" stroke-linecap="round" stroke-miterlimit="10" x1="170.86" y1="88.865" x2="160.551" y2="88.296"/>
<line fill="none" stroke="#040000" stroke-width="0.28" stroke-linecap="round" stroke-miterlimit="10" x1="171.443" y1="88.529" x2="161.096" y2="87.978"/>
<line fill="none" stroke="#040000" stroke-width="0.28" stroke-linecap="round" stroke-miterlimit="10" x1="172.026" y1="88.191" x2="161.712" y2="87.619"/>
<line fill="none" stroke="#040000" stroke-width="0.28" stroke-linecap="round" stroke-miterlimit="10" x1="172.609" y1="87.855" x2="162.293" y2="87.281"/>
<line fill="none" stroke="#040000" stroke-width="0.28" stroke-linecap="round" stroke-miterlimit="10" x1="173.192" y1="87.519" x2="162.838" y2="86.964"/>
<line fill="none" stroke="#040000" stroke-width="0.28" stroke-linecap="round" stroke-miterlimit="10" x1="173.73" y1="87.193" x2="163.417" y2="86.621"/>
<line fill="none" stroke="#040000" stroke-width="0.28" stroke-linecap="round" stroke-miterlimit="10" x1="174.313" y1="86.857" x2="163.998" y2="86.281"/>
<line fill="none" stroke="#040000" stroke-width="0.28" stroke-linecap="round" stroke-miterlimit="10" x1="174.896" y1="86.519" x2="164.543" y2="85.964"/>
<line fill="none" stroke="#040000" stroke-width="0.28" stroke-linecap="round" stroke-miterlimit="10" x1="160.989" y1="94.603" x2="169.639" y2="103.419"/>
<line fill="none" stroke="#040000" stroke-width="0.28" stroke-linecap="round" stroke-miterlimit="10" x1="161.572" y1="94.267" x2="170.222" y2="103.082"/>
<line fill="none" stroke="#040000" stroke-width="0.28" stroke-linecap="round" stroke-miterlimit="10" x1="162.155" y1="93.931" x2="170.805" y2="102.746"/>
<line fill="none" stroke="#040000" stroke-width="0.28" stroke-linecap="round" stroke-miterlimit="10" x1="162.738" y1="93.595" x2="171.388" y2="102.408"/>
<line fill="none" stroke="#040000" stroke-width="0.28" stroke-linecap="round" stroke-miterlimit="10" x1="163.321" y1="93.259" x2="171.971" y2="102.072"/>
<line fill="none" stroke="#040000" stroke-width="0.28" stroke-linecap="round" stroke-miterlimit="10" x1="163.904" y1="92.921" x2="172.554" y2="101.736"/>
<line fill="none" stroke="#040000" stroke-width="0.28" stroke-linecap="round" stroke-miterlimit="10" x1="164.487" y1="92.585" x2="173.137" y2="101.4"/>
<line fill="none" stroke="#040000" stroke-width="0.28" stroke-linecap="round" stroke-miterlimit="10" x1="165.07" y1="92.25" x2="173.72" y2="101.064"/>
<line fill="none" stroke="#040000" stroke-width="0.28" stroke-linecap="round" stroke-miterlimit="10" x1="165.653" y1="91.912" x2="174.303" y2="100.728"/>
<line fill="none" stroke="#040000" stroke-width="0.28" stroke-linecap="round" stroke-miterlimit="10" x1="166.236" y1="91.576" x2="174.886" y2="100.392"/>
<line fill="none" stroke="#040000" stroke-width="0.28" stroke-linecap="round" stroke-miterlimit="10" x1="166.819" y1="91.24" x2="175.469" y2="100.056"/>
<line fill="none" stroke="#040000" stroke-width="0.28" stroke-linecap="round" stroke-miterlimit="10" x1="167.402" y1="90.904" x2="176.052" y2="99.72"/>
<line fill="none" stroke="#040000" stroke-width="0.28" stroke-linecap="round" stroke-miterlimit="10" x1="167.985" y1="90.568" x2="176.635" y2="99.384"/>
<line fill="none" stroke="#040000" stroke-width="0.28" stroke-linecap="round" stroke-miterlimit="10" x1="168.568" y1="90.23" x2="177.218" y2="99.046"/>
<line fill="none" stroke="#040000" stroke-width="0.28" stroke-linecap="round" stroke-miterlimit="10" x1="169.151" y1="89.894" x2="177.801" y2="98.71"/>
<line fill="none" stroke="#040000" stroke-width="0.28" stroke-linecap="round" stroke-miterlimit="10" x1="169.734" y1="89.558" x2="178.384" y2="98.375"/>
<line fill="none" stroke="#040000" stroke-width="0.28" stroke-linecap="round" stroke-miterlimit="10" x1="170.317" y1="89.222" x2="178.967" y2="98.037"/>
<line fill="none" stroke="#040000" stroke-width="0.28" stroke-linecap="round" stroke-miterlimit="10" x1="170.9" y1="88.886" x2="179.55" y2="97.699"/>
<line fill="none" stroke="#040000" stroke-width="0.28" stroke-linecap="round" stroke-miterlimit="10" x1="171.483" y1="88.55" x2="180.133" y2="97.363"/>
<line fill="none" stroke="#040000" stroke-width="0.28" stroke-linecap="round" stroke-miterlimit="10" x1="172.066" y1="88.214" x2="180.716" y2="97.027"/>
<line fill="none" stroke="#040000" stroke-width="0.28" stroke-linecap="round" stroke-miterlimit="10" x1="172.649" y1="87.878" x2="181.299" y2="96.691"/>
<line fill="none" stroke="#040000" stroke-width="0.28" stroke-linecap="round" stroke-miterlimit="10" x1="173.232" y1="87.542" x2="181.882" y2="96.355"/>
<line fill="none" stroke="#040000" stroke-width="0.28" stroke-linecap="round" stroke-miterlimit="10" x1="173.815" y1="87.205" x2="182.465" y2="96.019"/>
<line fill="none" stroke="#040000" stroke-width="0.28" stroke-linecap="round" stroke-miterlimit="10" x1="174.398" y1="86.869" x2="183.048" y2="95.683"/>
<line fill="none" stroke="#040000" stroke-width="0.28" stroke-linecap="round" stroke-miterlimit="10" x1="174.981" y1="86.531" x2="183.631" y2="95.347"/>
<line fill="none" stroke="#040000" stroke-width="0.28" stroke-linecap="round" stroke-miterlimit="10" x1="175.564" y1="86.195" x2="184.214" y2="95.011"/>
<line fill="none" stroke="#040000" stroke-width="0.28" stroke-linecap="round" stroke-miterlimit="10" x1="175.479" y1="86.193" x2="165.125" y2="85.638"/>
<path fill="#FFFFFF" d="M76.654,11.057c0,3.408-2.764,6.172-6.173,6.172c-3.408,0-6.172-2.764-6.172-6.172
	c0-3.41,2.764-6.174,6.172-6.174C73.89,4.883,76.654,7.646,76.654,11.057"/>
<circle fill="none" stroke="#040000" stroke-width="0.28" stroke-linecap="round" stroke-miterlimit="10" cx="70.481" cy="11.057" r="6.172"/>
<path fill="#040000" d="M73.452,14.639c-0.088-0.393-0.207-0.775-0.339-1.113l-0.567-1.41h-3.813l-0.568,1.41
	c-0.162,0.414-0.263,0.73-0.339,1.113h-1.136c0.218-0.361,0.295-0.523,0.59-1.256l2.447-6.031c0.207-0.514,0.295-0.764,0.351-1.016
	h1.104c0.044,0.207,0.098,0.35,0.371,1.016l2.447,6.031c0.272,0.656,0.415,0.973,0.578,1.256H73.452 M70.874,7.756
	c-0.032-0.088-0.032-0.1-0.239-0.699c-0.056,0.164-0.101,0.285-0.121,0.361c-0.065,0.174-0.099,0.295-0.12,0.338l-1.397,3.604h3.287
	L70.874,7.756z"/>
<path fill="#FFFFFF" d="M76.654,87.068c0,3.41-2.764,6.174-6.173,6.174c-3.408,0-6.172-2.764-6.172-6.174
	c0-3.408,2.764-6.172,6.172-6.172C73.89,80.896,76.654,83.66,76.654,87.068"/>
<circle fill="none" stroke="#040000" stroke-width="0.28" stroke-linecap="round" stroke-miterlimit="10" cx="70.481" cy="87.068" r="6.172"/>
<path fill="#040000" d="M73.452,90.652c-0.088-0.393-0.207-0.775-0.339-1.113l-0.567-1.41h-3.813l-0.568,1.41
	c-0.162,0.414-0.263,0.73-0.339,1.113h-1.136c0.218-0.359,0.295-0.523,0.59-1.258l2.447-6.029c0.207-0.514,0.295-0.766,0.351-1.016
	h1.104c0.044,0.207,0.098,0.348,0.371,1.016l2.447,6.029c0.272,0.656,0.415,0.975,0.578,1.258H73.452 M70.874,83.769
	c-0.032-0.086-0.032-0.098-0.239-0.699c-0.056,0.164-0.101,0.285-0.121,0.361c-0.065,0.174-0.099,0.295-0.12,0.338l-1.397,3.605
	h3.287L70.874,83.769z"/>
<path fill="#FFFFFF" d="M124.418,94.378c0,2.514-2.037,4.551-4.551,4.551s-4.55-2.037-4.55-4.551s2.036-4.551,4.55-4.551
	S124.418,91.865,124.418,94.378"/>
<circle fill="none" stroke="#040000" stroke-width="0.28" stroke-linecap="round" stroke-miterlimit="10" cx="119.868" cy="94.378" r="4.551"/>
<path fill="#040000" d="M122.058,97.019c-0.063-0.289-0.153-0.572-0.25-0.822l-0.418-1.039h-2.812l-0.42,1.039
	c-0.12,0.309-0.191,0.541-0.25,0.822h-0.837c0.161-0.266,0.218-0.387,0.437-0.926l1.804-4.445c0.153-0.379,0.217-0.563,0.258-0.75
	h0.813c0.031,0.154,0.071,0.258,0.271,0.75l1.806,4.445c0.2,0.482,0.307,0.717,0.427,0.926H122.058 M120.157,91.945
	c-0.022-0.063-0.022-0.072-0.177-0.514c-0.04,0.119-0.072,0.209-0.088,0.264c-0.049,0.129-0.073,0.219-0.089,0.25l-1.031,2.658
	h2.424L120.157,91.945z"/>
<path fill="#FFFFFF" d="M25.645,94.378c0,2.514-2.037,4.551-4.55,4.551s-4.55-2.037-4.55-4.551s2.037-4.551,4.55-4.551
	S25.645,91.865,25.645,94.378"/>
<circle fill="none" stroke="#040000" stroke-width="0.28" stroke-linecap="round" stroke-miterlimit="10" cx="21.095" cy="94.378" r="4.551"/>
<path fill="#040000" d="M23.284,97.019c-0.063-0.289-0.151-0.572-0.25-0.822l-0.419-1.039h-2.81l-0.419,1.039
	c-0.121,0.309-0.193,0.541-0.25,0.822h-0.837c0.161-0.266,0.217-0.387,0.434-0.926l1.805-4.445c0.152-0.379,0.219-0.563,0.259-0.75
	h0.813c0.032,0.154,0.072,0.258,0.273,0.75l1.804,4.445c0.202,0.482,0.306,0.717,0.427,0.926H23.284 M21.384,91.945
	c-0.024-0.063-0.024-0.072-0.177-0.514c-0.04,0.119-0.073,0.209-0.09,0.264c-0.049,0.129-0.071,0.219-0.089,0.25l-1.03,2.658h2.425
	L21.384,91.945z"/>
<path fill="#FFFFFF" d="M172.331,94.378c0,2.457-1.989,4.445-4.445,4.445s-4.447-1.988-4.447-4.445c0-2.455,1.991-4.447,4.447-4.447
	S172.331,91.923,172.331,94.378"/>
<circle fill="none" stroke="#040000" stroke-width="0.28" stroke-linecap="round" stroke-miterlimit="10" cx="167.884" cy="94.378" r="4.445"/>
<path fill="#040000" d="M166.686,97.16c-0.347,0-0.591,0.008-0.866,0.023c0.057-0.314,0.071-0.521,0.071-0.977v-4.211
	c0-0.34-0.016-0.553-0.063-0.834c0.243,0.016,0.4,0.016,0.857,0.016h1.676c1.143,0,1.779,0.52,1.779,1.447
	c0,0.457-0.143,0.803-0.425,1.055c-0.165,0.143-0.309,0.213-0.622,0.314c0.361,0.07,0.551,0.15,0.763,0.33
	c0.324,0.275,0.488,0.68,0.488,1.184c0,1.053-0.692,1.65-1.896,1.65h-1.763 M168.354,93.744c0.732,0,1.165-0.387,1.165-1.049
	c0-0.65-0.394-0.98-1.173-0.98h-1.85v2.029H168.354L168.354,93.744z M166.497,96.625h1.896c0.858,0,1.315-0.408,1.315-1.164
	c0-0.779-0.457-1.182-1.331-1.182h-1.882L166.497,96.625L166.497,96.625z"/>
<path fill="#040000" d="M51.121,47.004c-0.572,0.996-1.029,1.541-1.908,2.26c-0.188-0.242-0.271-0.314-0.448-0.449
	c0.438-0.305,0.708-0.547,1.058-0.939c0.331-0.377,0.521-0.654,0.789-1.166L51.121,47.004 M49.732,46.195
	c-0.385,0-0.653,0.02-0.923,0.057v-0.619c0.251,0.035,0.521,0.053,0.914,0.053h5.871c0.402,0,0.663-0.018,0.914-0.053v0.619
	c-0.261-0.037-0.537-0.057-0.914-0.057h-2.59v2.799c0,0.512-0.189,0.645-0.914,0.645c-0.314,0-0.619-0.008-0.942-0.027
	c-0.026-0.26-0.053-0.375-0.151-0.59c0.376,0.053,0.708,0.08,1.021,0.08c0.331,0,0.395-0.037,0.395-0.234v-2.67h-2.681V46.195z
	 M52.322,42.217c0-0.197-0.018-0.357-0.062-0.555h0.717c-0.045,0.188-0.063,0.34-0.063,0.555v0.357h2.6
	c0.412,0,0.628-0.008,0.906-0.033c-0.027,0.188-0.036,0.34-0.036,0.607v0.529c0,0.277,0.009,0.447,0.036,0.627h-0.593v-1.217H49.5
	v1.219h-0.593c0.027-0.199,0.036-0.359,0.036-0.629v-0.529c0-0.25-0.009-0.42-0.036-0.607c0.278,0.025,0.493,0.035,0.906,0.035
	h2.509V42.217L52.322,42.217z M50.118,44.072c0.206,0.035,0.412,0.043,0.788,0.043h3.487c0.385,0,0.583-0.008,0.789-0.043v0.602
	c-0.233-0.037-0.413-0.045-0.789-0.045h-3.487c-0.366,0-0.555,0.008-0.788,0.045V44.072z M54.635,46.662
	c0.231,0.402,0.482,0.734,0.878,1.146c0.323,0.332,0.574,0.547,1.058,0.896c-0.17,0.135-0.313,0.287-0.466,0.477
	c-0.905-0.744-1.38-1.291-1.944-2.225L54.635,46.662z"/>
<path fill="#040000" d="M61.125,44.814c0.771,0.674,1.28,2.035,1.28,3.424c0,0.574-0.09,0.986-0.26,1.193
	c-0.162,0.197-0.395,0.277-0.834,0.277c-0.278,0-0.654-0.027-1.057-0.063c-0.02-0.26-0.056-0.385-0.146-0.6
	c0.448,0.09,0.825,0.135,1.156,0.135c0.457,0,0.583-0.217,0.583-1.076c0-0.26-0.009-0.414-0.036-0.674
	c-0.95,0.781-2.133,1.373-3.783,1.91c-0.114-0.215-0.195-0.332-0.349-0.502c1.622-0.412,3.011-1.094,4.024-1.963
	c-0.071-0.307-0.136-0.484-0.252-0.752c-0.924,0.635-2.024,1.137-3.353,1.521c-0.098-0.215-0.179-0.322-0.331-0.492
	c0.815-0.197,1.309-0.357,2.052-0.682c0.548-0.242,0.941-0.457,1.399-0.779c-0.18-0.287-0.314-0.447-0.521-0.629
	c-0.663,0.369-1.336,0.637-2.394,0.924c-0.125-0.232-0.179-0.313-0.331-0.475c1.398-0.305,2.277-0.646,3.128-1.229h-1.317
	c-0.321,0-0.601,0.018-0.868,0.045v-0.574c0.231,0.037,0.466,0.055,0.868,0.055h3.791c0.423,0,0.654-0.01,0.88-0.055v0.574
	c-0.271-0.027-0.538-0.045-0.88-0.045h-0.968c0.197,0.814,0.287,1.119,0.538,1.678c0.636-0.467,1.185-1.004,1.371-1.336l0.502,0.41
	c-0.198,0.162-0.198,0.162-0.538,0.484c-0.287,0.277-0.538,0.484-1.093,0.906c0.564,0.994,1.229,1.631,2.366,2.293
	c-0.153,0.135-0.278,0.279-0.439,0.502c-0.733-0.529-1.076-0.814-1.452-1.246c-0.673-0.752-1.2-1.729-1.531-2.832
	c-0.072-0.23-0.108-0.377-0.226-0.859h-0.269c-0.26,0.225-0.359,0.297-0.646,0.482L61.125,44.814 M61.304,42.197
	c0-0.195-0.019-0.357-0.063-0.555h0.698c-0.035,0.197-0.053,0.35-0.053,0.547v0.287h2.652c0.386,0,0.617-0.01,0.904-0.037
	c-0.025,0.17-0.036,0.322-0.036,0.592v0.557c0,0.277,0.011,0.422,0.036,0.609H64.86v-1.229h-6.337v1.229h-0.582
	c0.027-0.207,0.036-0.35,0.036-0.619v-0.547c0-0.242-0.009-0.402-0.036-0.592c0.287,0.027,0.511,0.037,0.896,0.037h2.465v-0.279
	H61.304z"/>
<path fill="#040000" d="M69.488,49.846c-0.672-0.771-0.949-1.201-1.246-1.928c-0.296-0.719-0.43-1.428-0.43-2.205
	c0-0.779,0.134-1.488,0.43-2.205c0.297-0.727,0.574-1.156,1.246-1.928h0.799c-0.754,0.762-1.05,1.166-1.362,1.855
	c-0.322,0.717-0.484,1.461-0.484,2.277c0,0.813,0.162,1.559,0.484,2.273c0.313,0.691,0.608,1.096,1.362,1.857h-0.799"/>
<path fill="#040000" d="M72.231,43.795c-0.35,0-0.653,0.018-0.985,0.055v-0.656c0.332,0.047,0.593,0.064,0.985,0.064h2.51v-0.764
	c0-0.295-0.018-0.51-0.063-0.814h0.708c-0.045,0.27-0.063,0.527-0.063,0.807v0.771h2.646c0.447,0,0.745-0.018,1.004-0.063v0.654
	c-0.376-0.035-0.646-0.053-1.004-0.053h-2.42c1.004,1.811,2.205,3.063,3.691,3.871c-0.188,0.205-0.286,0.342-0.411,0.584
	c-0.727-0.484-1.281-0.951-1.864-1.57c-0.743-0.787-1.245-1.549-1.677-2.518c0.026,0.535,0.035,0.867,0.035,1.164v2.033h0.979
	c0.438,0,0.637-0.008,0.87-0.043v0.627c-0.271-0.045-0.484-0.055-0.89-0.055h-0.959v0.852c0,0.422,0.02,0.744,0.063,1.031h-0.708
	c0.045-0.313,0.063-0.627,0.063-1.039v-0.844h-0.859c-0.421,0-0.637,0.01-0.905,0.055v-0.627c0.233,0.035,0.43,0.043,0.887,0.043
	h0.879v-2.033c0-0.332,0.011-0.672,0.035-1.156c-0.412,0.979-0.887,1.713-1.691,2.592c-0.565,0.617-1.05,1.049-1.704,1.506
	c-0.135-0.242-0.206-0.332-0.421-0.529c0.771-0.467,1.415-1.014,2.098-1.818c0.672-0.771,1.057-1.346,1.461-2.125h-2.288"/>
<path fill="#040000" d="M83.534,44.814c0.771,0.674,1.282,2.035,1.282,3.424c0,0.574-0.09,0.986-0.26,1.193
	c-0.162,0.197-0.396,0.277-0.834,0.277c-0.278,0-0.654-0.027-1.057-0.063c-0.02-0.26-0.056-0.385-0.146-0.6
	c0.448,0.09,0.825,0.135,1.156,0.135c0.457,0,0.583-0.217,0.583-1.076c0-0.26-0.009-0.414-0.036-0.674
	c-0.95,0.781-2.133,1.373-3.782,1.91c-0.117-0.215-0.198-0.332-0.35-0.502c1.622-0.412,3.011-1.094,4.023-1.963
	c-0.07-0.307-0.135-0.484-0.252-0.752c-0.923,0.635-2.023,1.137-3.352,1.521c-0.098-0.215-0.179-0.322-0.331-0.492
	c0.815-0.197,1.308-0.357,2.052-0.682c0.547-0.242,0.941-0.457,1.398-0.779c-0.181-0.287-0.313-0.447-0.521-0.629
	c-0.664,0.369-1.336,0.637-2.394,0.924c-0.125-0.232-0.179-0.313-0.331-0.475c1.396-0.305,2.277-0.646,3.128-1.229h-1.318
	c-0.32,0-0.6,0.018-0.868,0.045v-0.574c0.232,0.037,0.467,0.055,0.868,0.055h3.792c0.421,0,0.654-0.01,0.878-0.055v0.574
	c-0.269-0.027-0.538-0.045-0.878-0.045h-0.968c0.197,0.814,0.286,1.119,0.538,1.678c0.636-0.467,1.183-1.004,1.371-1.336l0.502,0.41
	c-0.197,0.162-0.197,0.162-0.538,0.484c-0.287,0.277-0.538,0.484-1.093,0.906c0.563,0.994,1.227,1.631,2.366,2.293
	c-0.152,0.135-0.278,0.279-0.439,0.502c-0.736-0.529-1.076-0.814-1.452-1.246c-0.673-0.752-1.202-1.729-1.533-2.832
	c-0.07-0.23-0.106-0.377-0.224-0.859h-0.269c-0.262,0.225-0.358,0.297-0.646,0.482L83.534,44.814 M83.714,42.197
	c0-0.195-0.02-0.357-0.063-0.555h0.699c-0.036,0.197-0.054,0.35-0.054,0.547v0.287h2.651c0.387,0,0.618-0.01,0.905-0.037
	c-0.026,0.17-0.036,0.322-0.036,0.592v0.557c0,0.277,0.01,0.422,0.036,0.609H87.27v-1.229h-6.337v1.229h-0.582
	c0.027-0.207,0.036-0.35,0.036-0.619v-0.547c0-0.242-0.009-0.402-0.036-0.592c0.287,0.027,0.511,0.037,0.896,0.037h2.466
	L83.714,42.197L83.714,42.197z"/>
<path fill="#040000" d="M88.895,49.846c0.753-0.754,1.049-1.166,1.362-1.857c0.322-0.717,0.483-1.461,0.483-2.273
	c0-0.816-0.161-1.563-0.483-2.277c-0.313-0.689-0.609-1.102-1.362-1.854h0.798c0.672,0.77,0.95,1.199,1.246,1.926
	c0.296,0.717,0.431,1.426,0.431,2.205c0,0.777-0.135,1.486-0.431,2.205c-0.296,0.727-0.574,1.154-1.246,1.928h-0.798"/>
<path fill="#040000" d="M51.121,123.478c-0.572,0.996-1.029,1.543-1.908,2.26c-0.188-0.242-0.271-0.313-0.448-0.449
	c0.438-0.305,0.708-0.547,1.058-0.939c0.331-0.377,0.521-0.654,0.789-1.166L51.121,123.478 M49.732,122.671
	c-0.385,0-0.653,0.018-0.923,0.055v-0.619c0.251,0.035,0.521,0.053,0.914,0.053h5.871c0.402,0,0.663-0.018,0.914-0.053v0.619
	c-0.261-0.037-0.537-0.055-0.914-0.055h-2.59v2.797c0,0.512-0.189,0.645-0.914,0.645c-0.314,0-0.619-0.008-0.942-0.025
	c-0.026-0.262-0.053-0.375-0.151-0.592c0.376,0.055,0.708,0.08,1.021,0.08c0.331,0,0.395-0.035,0.395-0.232v-2.67h-2.681V122.671z
	 M52.322,118.691c0-0.197-0.018-0.357-0.062-0.555h0.717c-0.045,0.188-0.063,0.34-0.063,0.555v0.359h2.6
	c0.412,0,0.628-0.01,0.906-0.037c-0.027,0.188-0.036,0.34-0.036,0.609v0.527c0,0.279,0.009,0.449,0.036,0.629h-0.593v-1.219H49.5
	v1.219h-0.593c0.027-0.197,0.036-0.357,0.036-0.629v-0.527c0-0.25-0.009-0.422-0.036-0.609c0.278,0.027,0.493,0.037,0.906,0.037
	h2.509V118.691L52.322,118.691z M50.118,120.548c0.206,0.035,0.412,0.043,0.788,0.043h3.487c0.385,0,0.583-0.008,0.789-0.043v0.6
	c-0.233-0.037-0.413-0.045-0.789-0.045h-3.487c-0.366,0-0.555,0.008-0.788,0.045V120.548z M54.635,123.138
	c0.231,0.404,0.482,0.734,0.878,1.146c0.323,0.33,0.574,0.547,1.058,0.896c-0.17,0.135-0.313,0.287-0.466,0.475
	c-0.905-0.744-1.38-1.291-1.944-2.223L54.635,123.138z"/>
<path fill="#040000" d="M61.125,121.291c0.771,0.674,1.28,2.033,1.28,3.424c0,0.574-0.09,0.984-0.26,1.191
	c-0.162,0.197-0.395,0.277-0.834,0.277c-0.278,0-0.654-0.027-1.057-0.063c-0.02-0.26-0.056-0.387-0.146-0.602
	c0.448,0.09,0.825,0.135,1.156,0.135c0.457,0,0.583-0.215,0.583-1.074c0-0.262-0.009-0.412-0.036-0.674
	c-0.95,0.779-2.133,1.371-3.783,1.91c-0.114-0.215-0.195-0.332-0.349-0.502c1.622-0.414,3.011-1.094,4.024-1.963
	c-0.071-0.305-0.136-0.484-0.252-0.754c-0.924,0.637-2.024,1.139-3.353,1.523c-0.098-0.217-0.179-0.322-0.331-0.492
	c0.815-0.197,1.309-0.359,2.052-0.684c0.548-0.24,0.941-0.457,1.399-0.777c-0.18-0.287-0.314-0.449-0.521-0.629
	c-0.663,0.367-1.336,0.639-2.394,0.926c-0.125-0.234-0.179-0.314-0.331-0.479c1.398-0.303,2.277-0.645,3.128-1.227h-1.317
	c-0.321,0-0.601,0.018-0.868,0.045v-0.574c0.231,0.035,0.466,0.055,0.868,0.055h3.791c0.423,0,0.654-0.01,0.88-0.055v0.574
	c-0.271-0.027-0.538-0.045-0.88-0.045h-0.968c0.197,0.814,0.287,1.121,0.538,1.676c0.636-0.465,1.185-1.004,1.371-1.336l0.502,0.412
	c-0.198,0.162-0.198,0.162-0.538,0.484c-0.287,0.277-0.538,0.482-1.093,0.904c0.564,0.996,1.229,1.631,2.366,2.295
	c-0.153,0.135-0.278,0.277-0.439,0.502c-0.733-0.527-1.076-0.814-1.452-1.246c-0.673-0.752-1.2-1.729-1.531-2.832
	c-0.072-0.232-0.108-0.377-0.226-0.859h-0.269c-0.26,0.225-0.359,0.295-0.646,0.482L61.125,121.291 M61.304,118.673
	c0-0.197-0.019-0.359-0.063-0.557h0.698c-0.035,0.197-0.053,0.352-0.053,0.547v0.287h2.652c0.386,0,0.617-0.01,0.904-0.035
	c-0.025,0.17-0.036,0.32-0.036,0.592v0.555c0,0.279,0.011,0.422,0.036,0.609H64.86v-1.229h-6.337v1.229h-0.582
	c0.027-0.205,0.036-0.35,0.036-0.617v-0.547c0-0.242-0.009-0.404-0.036-0.592c0.287,0.025,0.511,0.035,0.896,0.035h2.465v-0.277
	H61.304z"/>
<path fill="#040000" d="M69.488,126.318c-0.672-0.77-0.949-1.201-1.246-1.926c-0.296-0.717-0.43-1.426-0.43-2.205
	c0-0.781,0.134-1.488,0.43-2.205c0.297-0.727,0.574-1.156,1.246-1.928h0.799c-0.754,0.762-1.05,1.166-1.362,1.854
	c-0.322,0.719-0.484,1.461-0.484,2.277s0.162,1.561,0.484,2.277c0.313,0.689,0.608,1.094,1.362,1.854h-0.799"/>
<path fill="#040000" d="M72.231,120.269c-0.35,0-0.653,0.018-0.985,0.055v-0.654c0.332,0.047,0.593,0.063,0.985,0.063h2.51v-0.762
	c0-0.295-0.018-0.51-0.063-0.814h0.708c-0.045,0.27-0.063,0.527-0.063,0.807v0.771h2.646c0.447,0,0.745-0.018,1.004-0.063v0.652
	c-0.376-0.035-0.646-0.053-1.004-0.053h-2.42c1.004,1.813,2.205,3.064,3.691,3.871c-0.188,0.207-0.286,0.342-0.411,0.584
	c-0.727-0.484-1.281-0.951-1.864-1.57c-0.743-0.787-1.245-1.549-1.677-2.518c0.026,0.537,0.035,0.869,0.035,1.166v2.033h0.979
	c0.438,0,0.637-0.01,0.87-0.043v0.627c-0.271-0.045-0.484-0.057-0.89-0.057h-0.959v0.854c0,0.422,0.02,0.744,0.063,1.031h-0.708
	c0.045-0.314,0.063-0.627,0.063-1.039v-0.846h-0.859c-0.421,0-0.637,0.012-0.905,0.057v-0.627c0.233,0.033,0.43,0.043,0.887,0.043
	h0.879v-2.033c0-0.332,0.011-0.672,0.035-1.158c-0.412,0.98-0.887,1.713-1.691,2.592c-0.565,0.617-1.05,1.049-1.704,1.506
	c-0.135-0.24-0.206-0.332-0.421-0.527c0.771-0.467,1.415-1.016,2.098-1.82c0.672-0.77,1.057-1.344,1.461-2.125h-2.288"/>
<path fill="#040000" d="M83.534,121.291c0.771,0.674,1.282,2.033,1.282,3.424c0,0.574-0.09,0.984-0.26,1.191
	c-0.162,0.197-0.396,0.277-0.834,0.277c-0.278,0-0.654-0.027-1.057-0.063c-0.02-0.26-0.056-0.387-0.146-0.602
	c0.448,0.09,0.825,0.135,1.156,0.135c0.457,0,0.583-0.215,0.583-1.074c0-0.262-0.009-0.412-0.036-0.674
	c-0.95,0.779-2.133,1.371-3.782,1.91c-0.117-0.215-0.198-0.332-0.35-0.502c1.622-0.414,3.011-1.094,4.023-1.963
	c-0.07-0.305-0.135-0.484-0.252-0.754c-0.923,0.637-2.023,1.139-3.352,1.523c-0.098-0.217-0.179-0.322-0.331-0.492
	c0.815-0.197,1.308-0.359,2.052-0.684c0.547-0.24,0.941-0.457,1.398-0.777c-0.181-0.287-0.313-0.449-0.521-0.629
	c-0.664,0.367-1.336,0.639-2.394,0.926c-0.125-0.234-0.179-0.314-0.331-0.479c1.396-0.303,2.277-0.645,3.128-1.227h-1.318
	c-0.32,0-0.6,0.018-0.868,0.045v-0.574c0.232,0.035,0.467,0.055,0.868,0.055h3.792c0.421,0,0.654-0.01,0.878-0.055v0.574
	c-0.269-0.027-0.538-0.045-0.878-0.045h-0.968c0.197,0.814,0.286,1.121,0.538,1.676c0.636-0.465,1.183-1.004,1.371-1.336
	l0.502,0.412c-0.197,0.162-0.197,0.162-0.538,0.484c-0.287,0.277-0.538,0.482-1.093,0.904c0.563,0.996,1.227,1.631,2.366,2.295
	c-0.152,0.135-0.278,0.277-0.439,0.502c-0.736-0.527-1.076-0.814-1.452-1.246c-0.673-0.752-1.202-1.729-1.533-2.832
	c-0.07-0.232-0.106-0.377-0.224-0.859h-0.269c-0.262,0.225-0.358,0.295-0.646,0.482L83.534,121.291 M83.714,118.673
	c0-0.197-0.02-0.359-0.063-0.557h0.699c-0.036,0.197-0.054,0.352-0.054,0.547v0.287h2.651c0.387,0,0.618-0.01,0.905-0.035
	c-0.026,0.17-0.036,0.32-0.036,0.592v0.555c0,0.279,0.01,0.422,0.036,0.609H87.27v-1.229h-6.337v1.229h-0.582
	c0.027-0.205,0.036-0.35,0.036-0.617v-0.547c0-0.242-0.009-0.404-0.036-0.592c0.287,0.025,0.511,0.035,0.896,0.035h2.466
	L83.714,118.673L83.714,118.673z"/>
<path fill="#040000" d="M88.895,126.318c0.753-0.752,1.049-1.164,1.362-1.854c0.322-0.717,0.483-1.461,0.483-2.277
	c0-0.814-0.161-1.559-0.483-2.277c-0.313-0.688-0.609-1.102-1.362-1.854h0.798c0.672,0.771,0.95,1.201,1.246,1.928
	c0.296,0.717,0.431,1.424,0.431,2.205c0,0.779-0.135,1.488-0.431,2.205c-0.296,0.727-0.574,1.156-1.246,1.926h-0.798"/>
<path fill="#040000" d="M113.861,118.414c-0.08,0.107-0.115,0.18-0.251,0.457c-0.688,1.391-1.559,2.43-2.822,3.361
	c-0.116-0.18-0.232-0.313-0.438-0.484c1.084-0.727,1.854-1.551,2.455-2.627c0.224-0.395,0.341-0.672,0.385-0.939L113.861,118.414
	 M112.992,121.9c-0.341,0-0.646,0.02-0.924,0.055v-0.639c0.261,0.037,0.565,0.055,0.934,0.055h2.947c0.413,0,0.683-0.01,0.942-0.045
	c-0.028,0.162-0.028,0.232-0.036,0.639c0,1.738-0.17,3.252-0.403,3.674c-0.151,0.27-0.366,0.357-0.888,0.357
	c-0.296,0-0.608-0.018-1.174-0.07c-0.027-0.242-0.054-0.377-0.146-0.637c0.493,0.1,0.942,0.15,1.266,0.15
	c0.287,0,0.386-0.053,0.449-0.223c0.188-0.547,0.295-1.768,0.295-3.316h-2.088c-0.081,0.986-0.287,1.658-0.7,2.357
	c-0.466,0.779-1.165,1.389-2.259,1.953c-0.115-0.205-0.205-0.322-0.395-0.502c1.147-0.557,1.828-1.146,2.258-1.963
	c0.296-0.564,0.422-1.059,0.484-1.848h-0.563V121.9z M115.779,118.197c0.072,0.234,0.152,0.412,0.342,0.754
	c0.653,1.176,1.416,1.98,2.645,2.787c-0.171,0.162-0.287,0.314-0.421,0.547c-1.417-1.049-2.18-1.953-3.021-3.604l-0.144-0.25
	L115.779,118.197z"/>
<path fill="#040000" d="M122.952,121.291c0.771,0.674,1.28,2.033,1.28,3.424c0,0.574-0.089,0.984-0.26,1.191
	c-0.161,0.197-0.395,0.277-0.833,0.277c-0.278,0-0.654-0.027-1.059-0.063c-0.019-0.26-0.055-0.387-0.144-0.602
	c0.448,0.09,0.824,0.135,1.156,0.135c0.457,0,0.583-0.215,0.583-1.074c0-0.262-0.009-0.412-0.036-0.674
	c-0.951,0.779-2.133,1.371-3.783,1.91c-0.116-0.215-0.196-0.332-0.349-0.502c1.622-0.414,3.011-1.094,4.022-1.963
	c-0.07-0.305-0.134-0.484-0.251-0.754c-0.923,0.637-2.023,1.139-3.352,1.523c-0.1-0.217-0.179-0.322-0.332-0.492
	c0.815-0.197,1.309-0.359,2.053-0.684c0.546-0.24,0.941-0.457,1.398-0.777c-0.18-0.287-0.314-0.449-0.521-0.629
	c-0.663,0.367-1.335,0.639-2.393,0.926c-0.125-0.234-0.179-0.314-0.332-0.479c1.398-0.303,2.276-0.645,3.129-1.227h-1.318
	c-0.321,0-0.6,0.018-0.868,0.045v-0.574c0.232,0.035,0.467,0.055,0.868,0.055h3.792c0.421,0,0.654-0.01,0.878-0.055v0.574
	c-0.269-0.027-0.537-0.045-0.878-0.045h-0.969c0.198,0.814,0.287,1.121,0.538,1.676c0.637-0.465,1.183-1.004,1.372-1.336
	l0.502,0.412c-0.198,0.162-0.198,0.162-0.538,0.484c-0.287,0.277-0.538,0.482-1.094,0.904c0.563,0.996,1.228,1.631,2.366,2.295
	c-0.152,0.135-0.277,0.277-0.438,0.502c-0.735-0.527-1.076-0.814-1.453-1.246c-0.672-0.752-1.201-1.729-1.531-2.832
	c-0.071-0.232-0.107-0.377-0.226-0.859h-0.268c-0.262,0.225-0.359,0.295-0.646,0.482L122.952,121.291 M123.13,118.673
	c0-0.197-0.02-0.359-0.063-0.557h0.699c-0.035,0.197-0.053,0.352-0.053,0.547v0.287h2.65c0.388,0,0.619-0.01,0.906-0.035
	c-0.027,0.17-0.036,0.32-0.036,0.592v0.555c0,0.279,0.009,0.422,0.036,0.609h-0.583v-1.229h-6.337v1.229h-0.582
	c0.027-0.205,0.035-0.35,0.035-0.617v-0.547c0-0.242-0.008-0.404-0.035-0.592c0.287,0.025,0.511,0.035,0.896,0.035h2.466V118.673z"
	/>
<path fill="#040000" d="M163.716,118.414c-0.081,0.107-0.117,0.18-0.251,0.457c-0.69,1.391-1.562,2.43-2.824,3.361
	c-0.116-0.18-0.233-0.313-0.438-0.484c1.085-0.727,1.855-1.551,2.455-2.627c0.226-0.395,0.342-0.672,0.388-0.939L163.716,118.414
	 M162.847,121.9c-0.341,0-0.646,0.02-0.924,0.055v-0.639c0.26,0.037,0.563,0.055,0.932,0.055h2.949c0.413,0,0.682-0.01,0.941-0.045
	c-0.026,0.162-0.026,0.232-0.035,0.639c0,1.738-0.172,3.252-0.404,3.674c-0.152,0.27-0.367,0.357-0.887,0.357
	c-0.297,0-0.61-0.018-1.175-0.07c-0.026-0.242-0.055-0.377-0.145-0.637c0.493,0.1,0.94,0.15,1.264,0.15
	c0.287,0,0.387-0.053,0.448-0.223c0.188-0.547,0.296-1.768,0.296-3.316h-2.089c-0.08,0.986-0.286,1.658-0.698,2.357
	c-0.467,0.779-1.166,1.389-2.259,1.953c-0.117-0.205-0.206-0.322-0.395-0.502c1.146-0.557,1.828-1.146,2.259-1.963
	c0.296-0.564,0.421-1.059,0.483-1.848h-0.563V121.9z M165.634,118.197c0.071,0.234,0.151,0.412,0.341,0.754
	c0.654,1.176,1.416,1.98,2.645,2.787c-0.171,0.162-0.286,0.314-0.423,0.547c-1.416-1.049-2.178-1.953-3.02-3.604l-0.146-0.25
	L165.634,118.197z"/>
<path fill="#040000" d="M172.805,121.291c0.771,0.674,1.282,2.033,1.282,3.424c0,0.574-0.091,0.984-0.261,1.191
	c-0.161,0.197-0.396,0.277-0.834,0.277c-0.277,0-0.653-0.027-1.058-0.063c-0.018-0.26-0.054-0.387-0.145-0.602
	c0.447,0.09,0.824,0.135,1.155,0.135c0.457,0,0.583-0.215,0.583-1.074c0-0.262-0.009-0.412-0.035-0.674
	c-0.949,0.779-2.134,1.371-3.781,1.91c-0.117-0.215-0.198-0.332-0.352-0.502c1.622-0.414,3.014-1.094,4.025-1.963
	c-0.072-0.305-0.135-0.484-0.252-0.754c-0.923,0.637-2.025,1.139-3.354,1.523c-0.098-0.217-0.179-0.322-0.331-0.492
	c0.815-0.197,1.311-0.359,2.054-0.684c0.547-0.24,0.939-0.457,1.396-0.777c-0.179-0.287-0.313-0.449-0.519-0.629
	c-0.664,0.367-1.336,0.639-2.395,0.926c-0.126-0.234-0.18-0.314-0.332-0.479c1.398-0.303,2.277-0.645,3.128-1.227h-1.316
	c-0.322,0-0.602,0.018-0.869,0.045v-0.574c0.232,0.035,0.466,0.055,0.869,0.055h3.792c0.421,0,0.653-0.01,0.878-0.055v0.574
	c-0.271-0.027-0.538-0.045-0.878-0.045h-0.968c0.195,0.814,0.286,1.121,0.536,1.676c0.638-0.465,1.185-1.004,1.371-1.336
	l0.502,0.412c-0.195,0.162-0.195,0.162-0.537,0.484c-0.286,0.277-0.537,0.482-1.094,0.904c0.564,0.996,1.229,1.631,2.366,2.295
	c-0.153,0.135-0.278,0.277-0.438,0.502c-0.735-0.527-1.076-0.814-1.452-1.246c-0.673-0.752-1.202-1.729-1.533-2.832
	c-0.072-0.232-0.108-0.377-0.225-0.859h-0.27c-0.26,0.225-0.359,0.295-0.646,0.482L172.805,121.291 M172.984,118.673
	c0-0.197-0.018-0.359-0.062-0.557h0.698c-0.036,0.197-0.055,0.352-0.055,0.547v0.287h2.653c0.385,0,0.618-0.01,0.905-0.035
	c-0.027,0.17-0.036,0.32-0.036,0.592v0.555c0,0.279,0.009,0.422,0.036,0.609h-0.584v-1.229h-6.337v1.229h-0.582
	c0.026-0.205,0.035-0.35,0.035-0.617v-0.547c0-0.242-0.009-0.404-0.035-0.592c0.286,0.025,0.512,0.035,0.896,0.035h2.465v-0.277
	H172.984z"/>
<path fill="#040000" d="M16.664,118.414c-0.081,0.107-0.116,0.18-0.251,0.457c-0.689,1.391-1.561,2.43-2.822,3.361
	c-0.117-0.18-0.234-0.313-0.44-0.484c1.085-0.727,1.856-1.551,2.456-2.627c0.225-0.395,0.341-0.672,0.386-0.939L16.664,118.414
	 M15.795,121.9c-0.342,0-0.646,0.02-0.925,0.055v-0.639c0.261,0.037,0.564,0.055,0.933,0.055h2.949c0.412,0,0.681-0.01,0.939-0.045
	c-0.024,0.162-0.024,0.232-0.035,0.639c0,1.738-0.171,3.252-0.402,3.674c-0.152,0.27-0.367,0.357-0.889,0.357
	c-0.296,0-0.608-0.018-1.174-0.07c-0.025-0.242-0.054-0.377-0.144-0.637c0.493,0.1,0.939,0.15,1.264,0.15
	c0.287,0,0.386-0.053,0.448-0.223c0.188-0.547,0.296-1.768,0.296-3.316h-2.088c-0.081,0.986-0.287,1.658-0.699,2.357
	c-0.467,0.779-1.166,1.389-2.259,1.953c-0.117-0.205-0.206-0.322-0.396-0.502c1.148-0.557,1.829-1.146,2.261-1.963
	c0.296-0.564,0.421-1.059,0.482-1.848h-0.562V121.9z M18.583,118.197c0.07,0.234,0.15,0.412,0.341,0.754
	c0.653,1.176,1.416,1.98,2.644,2.787c-0.171,0.162-0.287,0.314-0.422,0.547c-1.416-1.049-2.178-1.953-3.02-3.604l-0.146-0.25
	L18.583,118.197z"/>
<path fill="#040000" d="M25.753,121.291c0.771,0.674,1.28,2.033,1.28,3.424c0,0.574-0.09,0.984-0.26,1.191
	c-0.162,0.197-0.395,0.277-0.834,0.277c-0.277,0-0.653-0.027-1.058-0.063c-0.02-0.26-0.054-0.387-0.145-0.602
	c0.448,0.09,0.825,0.135,1.156,0.135c0.457,0,0.583-0.215,0.583-1.074c0-0.262-0.009-0.412-0.036-0.674
	c-0.95,0.779-2.133,1.371-3.783,1.91c-0.114-0.215-0.195-0.332-0.349-0.502c1.622-0.414,3.012-1.094,4.024-1.963
	c-0.071-0.305-0.136-0.484-0.251-0.754c-0.925,0.637-2.025,1.139-3.354,1.523c-0.098-0.217-0.179-0.322-0.331-0.492
	c0.815-0.197,1.31-0.359,2.052-0.684c0.549-0.24,0.941-0.457,1.398-0.777c-0.179-0.287-0.313-0.449-0.519-0.629
	c-0.664,0.367-1.338,0.639-2.396,0.926c-0.125-0.234-0.179-0.314-0.331-0.479c1.398-0.303,2.276-0.645,3.128-1.227h-1.316
	c-0.322,0-0.602,0.018-0.869,0.045v-0.574c0.231,0.035,0.466,0.055,0.869,0.055h3.792c0.421,0,0.652-0.01,0.878-0.055v0.574
	c-0.271-0.027-0.538-0.045-0.878-0.045h-0.97c0.197,0.814,0.287,1.121,0.537,1.676c0.637-0.465,1.186-1.004,1.372-1.336l0.502,0.412
	c-0.198,0.162-0.198,0.162-0.538,0.484c-0.287,0.277-0.538,0.482-1.093,0.904c0.564,0.996,1.229,1.631,2.366,2.295
	c-0.153,0.135-0.278,0.277-0.44,0.502c-0.732-0.527-1.075-0.814-1.45-1.246c-0.674-0.752-1.201-1.729-1.532-2.832
	c-0.072-0.232-0.108-0.377-0.226-0.859h-0.269c-0.26,0.225-0.359,0.295-0.646,0.482L25.753,121.291 M25.932,118.673
	c0-0.197-0.019-0.359-0.063-0.557h0.698c-0.035,0.197-0.053,0.352-0.053,0.547v0.287h2.653c0.385,0,0.617-0.01,0.903-0.035
	c-0.025,0.17-0.035,0.32-0.035,0.592v0.555c0,0.279,0.01,0.422,0.035,0.609h-0.583v-1.229h-6.337v1.229H22.57
	c0.027-0.205,0.036-0.35,0.036-0.617v-0.547c0-0.242-0.009-0.404-0.036-0.592c0.287,0.025,0.513,0.035,0.896,0.035h2.465
	L25.932,118.673L25.932,118.673z"/>
<polyline fill="none" stroke="#040000" stroke-width="0.84" stroke-miterlimit="10" points="100.774,125.455 100.774,129.564 
	187.907,129.564 187.907,125.455 "/>
<line fill="none" stroke="#040000" stroke-width="0.84" stroke-miterlimit="10" x1="70.105" y1="53.557" x2="70.105" y2="70.789"/>
<path fill="#040000" d="M65.467,64.184c0.225-0.143,0.522-0.076,0.667,0.15l3.972,6.234l3.971-6.234
	c0.145-0.227,0.443-0.295,0.668-0.15c0.226,0.143,0.289,0.445,0.147,0.668l-4.379,6.877c-0.088,0.139-0.242,0.223-0.407,0.223
	s-0.318-0.084-0.408-0.223l-4.379-6.877l-0.076-0.258C65.243,64.434,65.323,64.275,65.467,64.184"/>
<path d="M138.08,60.395c0.026,0.154,0.036,0.252,0.036,0.406c0,0.629-0.153,1.242-0.414,1.656c-0.307,0.494-0.702,0.781-1.458,1.053
	c0.196,0.162,0.297,0.279,0.396,0.477c0.757-0.342,1.126-0.629,1.459-1.133c0.333-0.496,0.495-1.063,0.559-1.9
	c0.019-0.334,0.026-0.404,0.055-0.559H138.08L138.08,60.395z M139.376,60.395c0.035,0.217,0.054,0.424,0.054,0.756v2.09
	c0,0.486,0.181,0.584,1.044,0.584c0.657,0,0.864-0.07,1.026-0.369c0.126-0.232,0.198-0.566,0.262-1.285
	c-0.207-0.037-0.333-0.092-0.54-0.227c-0.019,0.621-0.082,1.027-0.162,1.18c-0.071,0.152-0.197,0.189-0.586,0.189
	c-0.423,0-0.513-0.037-0.513-0.217V61.15c0-0.342,0.018-0.531,0.054-0.756H139.376L139.376,60.395z M137.36,60.988v-1.105h3.601
	v1.105h0.567c-0.02-0.125-0.027-0.297-0.027-0.539v-0.514c0-0.242,0.009-0.414,0.027-0.584c-0.243,0.035-0.505,0.045-0.945,0.045
	h-2.917c-0.441,0-0.675-0.01-0.855-0.027c0.027,0.172,0.036,0.287,0.036,0.594v0.449c0,0.227-0.009,0.354-0.036,0.576H137.36z
	 M135.883,60.883c0.207,0.674,0.288,1.063,0.378,1.881l0.468-0.162c-0.135-0.793-0.225-1.188-0.423-1.863L135.883,60.883z
	 M134.046,60.801c-0.099,1.252-0.18,1.666-0.477,2.449l0.484,0.252c0.271-0.783,0.379-1.369,0.486-2.604L134.046,60.801z
	 M138.764,57.279v0.945h-0.954c-0.388,0-0.64-0.018-0.892-0.053v0.584c0.271-0.035,0.504-0.055,0.892-0.055h2.603
	c0.378,0,0.639,0.02,0.882,0.055v-0.584c-0.261,0.035-0.504,0.053-0.891,0.053h-1.116v-0.945h1.358c0.396,0,0.656,0.02,0.899,0.057
	V56.75c-0.243,0.035-0.521,0.055-0.909,0.055h-1.35v-0.189c0-0.324,0.018-0.521,0.054-0.748h-0.63
	c0.035,0.227,0.054,0.434,0.054,0.738v0.199h-1.116c-0.404,0-0.666-0.02-0.919-0.057v0.588c0.271-0.047,0.505-0.057,0.909-0.057
	H138.764L138.764,57.279z M133.632,60.404c0.153-0.037,0.261-0.045,0.585-0.072c0.171-0.01,0.36-0.025,0.783-0.07v2.934
	c0,0.342-0.019,0.613-0.054,0.893h0.63c-0.036-0.262-0.055-0.521-0.055-0.893v-2.988c0.298-0.035,0.378-0.045,0.676-0.1
	c0.055,0.18,0.071,0.244,0.126,0.469l0.424-0.188c-0.189-0.676-0.333-1.035-0.631-1.631l-0.388,0.172
	c0.171,0.332,0.226,0.459,0.324,0.746c-0.297,0.047-0.468,0.055-1.261,0.117c0.388-0.494,0.945-1.314,1.261-1.836
	c0.353-0.596,0.353-0.596,0.45-0.738l-0.514-0.307c-0.116,0.379-0.323,0.758-0.854,1.604c-0.226-0.279-0.262-0.324-0.531-0.621
	c0.359-0.541,0.514-0.801,0.847-1.486c0.071-0.135,0.117-0.215,0.171-0.287l-0.549-0.262c-0.091,0.414-0.378,1.027-0.783,1.701
	c-0.153-0.152-0.207-0.207-0.441-0.439l-0.297,0.424c0.576,0.539,0.864,0.863,1.287,1.422c-0.252,0.369-0.252,0.369-0.621,0.863
	c-0.117,0.01-0.297,0.01-0.359,0.01c-0.116,0-0.188,0-0.314-0.02L133.632,60.404z M128.819,61.098h2.854v1.773h-2.854V61.098z
	 M128.819,58.982h2.854v1.602h-2.854V58.982z M128.819,56.857h2.854v1.611h-2.854V56.857z M128.819,64.031v-0.646h2.854v0.611h0.604
	c-0.027-0.232-0.036-0.576-0.036-1.07v-5.717c0-0.496,0.009-0.703,0.026-0.9c-0.188,0.027-0.288,0.027-0.685,0.027h-2.665
	c-0.423,0-0.478,0-0.702-0.02c0.027,0.441,0.036,0.658,0.036,0.973v5.646c0,0.467-0.018,0.791-0.045,1.098h0.612V64.031z
	 M127.306,58.145c0.207,0,0.388,0.01,0.585,0.027v-0.559c-0.162,0.027-0.342,0.035-0.594,0.035h-0.657v-0.873
	c0-0.439,0.009-0.711,0.045-0.926h-0.656c0.035,0.207,0.045,0.414,0.045,0.936v0.863h-0.729c-0.297,0-0.484-0.008-0.646-0.035v0.566
	c0.171-0.025,0.368-0.035,0.646-0.035h0.648c-0.288,1.207-0.909,2.494-1.549,3.205c0.172,0.18,0.233,0.279,0.352,0.521
	c0.604-0.803,1.035-1.729,1.332-2.854c-0.045,0.891-0.054,1.09-0.054,1.467v2.549c0,0.469-0.019,0.791-0.055,1.043h0.676
	c-0.036-0.242-0.055-0.557-0.055-1.043v-2.736c0-0.299-0.009-0.631-0.036-1.459c0.298,0.783,0.54,1.232,1.044,1.891
	c0.101-0.207,0.117-0.234,0.324-0.504c-0.63-0.686-0.98-1.252-1.287-2.08H127.306L127.306,58.145z"/>
<path d="M173.305,139.107h4.843v2.295h-4.843V139.107z M173.305,142.576v-0.582h4.843v0.582h0.722
	c-0.04-0.291-0.061-0.592-0.061-0.982v-2.215c0-0.393,0.011-0.652,0.051-0.924c-0.211,0.029-0.422,0.041-0.782,0.041h-4.702
	c-0.359,0-0.57-0.012-0.78-0.041c0.04,0.281,0.05,0.553,0.05,0.924v2.215c0,0.381-0.021,0.672-0.062,0.982H173.305z
	 M173.375,137.343c0.211-0.031,0.473-0.041,0.782-0.041h3.118c0.381,0,0.621,0.01,0.842,0.041v-0.684
	c-0.211,0.031-0.451,0.041-0.842,0.041h-3.108c-0.369,0-0.61-0.01-0.792-0.041V137.343L173.375,137.343z M175.331,133.613
	c-0.44,0.682-0.832,1.133-1.544,1.744c-0.832,0.732-1.693,1.283-2.727,1.744c0.229,0.23,0.311,0.342,0.421,0.572
	c0.813-0.393,1.443-0.783,2.125-1.305c0.883-0.682,1.434-1.254,2.105-2.195c0.45,0.643,0.911,1.152,1.544,1.686
	c0.813,0.691,1.824,1.354,2.826,1.844c0.12-0.25,0.222-0.42,0.401-0.631c-0.952-0.381-1.896-0.941-2.747-1.645
	c-0.771-0.631-1.233-1.133-1.654-1.814H175.331L175.331,133.613z M166.052,139.427H169v2.086h-2.947V139.427z M166.052,142.074H169
	v0.563h0.683c-0.03-0.23-0.051-0.592-0.051-0.973v-1.914c0-0.441,0.01-0.693,0.04-0.934c-0.21,0.029-0.432,0.039-0.803,0.039h-2.707
	c-0.311,0-0.551-0.01-0.771-0.039c0.03,0.281,0.04,0.49,0.04,0.912v1.955c0,0.451-0.01,0.721-0.05,0.951h0.671V142.074
	L166.052,142.074z M163.967,139.287c0.221,0.754,0.32,1.334,0.391,2.227l0.552-0.16c-0.141-0.953-0.261-1.545-0.451-2.215
	L163.967,139.287z M161.782,139.167c-0.1,1.313-0.21,1.844-0.562,2.666l0.552,0.271c0.311-0.813,0.431-1.424,0.581-2.807
	L161.782,139.167z M167.166,135.699v1.555h-0.911c-0.433,0-0.723-0.021-1.004-0.063v0.684c0.281-0.041,0.622-0.061,1.004-0.061
	h2.705c0.411,0,0.713,0.02,1.004,0.061v-0.684c-0.271,0.041-0.571,0.063-1.014,0.063h-1.173v-1.555h1.443
	c0.392,0,0.731,0.02,1.013,0.061v-0.684c-0.28,0.041-0.571,0.063-1.013,0.063h-1.443v-0.672c0-0.352,0.021-0.582,0.062-0.832h-0.732
	c0.04,0.26,0.061,0.49,0.061,0.811v0.693h-1.224c-0.44,0-0.73-0.021-1.012-0.063v0.684c0.29-0.041,0.591-0.061,1.012-0.061H167.166
	L167.166,135.699z M161.26,138.615c0.181-0.02,0.301-0.029,0.611-0.049c0.24-0.012,0.571-0.031,1.002-0.061v3.158
	c0,0.42-0.02,0.699-0.06,1.002h0.711c-0.04-0.303-0.06-0.563-0.06-1.002v-3.209c0.521-0.039,0.621-0.051,0.951-0.102
	c0.062,0.182,0.091,0.271,0.16,0.521l0.521-0.24c-0.28-0.803-0.451-1.184-0.802-1.824l-0.473,0.23
	c0.191,0.34,0.261,0.48,0.393,0.813c-0.501,0.059-0.952,0.1-1.564,0.119c0.421-0.531,0.913-1.232,1.254-1.764
	c0.491-0.754,0.491-0.754,0.661-0.982l-0.592-0.352c-0.15,0.422-0.22,0.551-0.972,1.734c-0.331-0.393-0.331-0.393-0.643-0.732
	c0.451-0.672,0.661-1.021,1.012-1.734c0.092-0.18,0.121-0.24,0.211-0.359l-0.632-0.262c-0.09,0.451-0.431,1.145-0.962,1.965
	c-0.12-0.119-0.189-0.199-0.381-0.391l-0.381,0.461c0.581,0.521,0.872,0.832,1.453,1.533c-0.23,0.332-0.36,0.512-0.672,0.914
	c-0.16,0-0.19,0-0.24,0c-0.211,0-0.411-0.012-0.603-0.031L161.26,138.615z M158.118,139.498c-0.531-1.072-0.952-1.734-1.584-2.496
	l-0.511,0.311c0.581,0.703,0.962,1.334,1.523,2.537L158.118,139.498z M159.331,135.718c-0.01,1.475-0.02,2.166-0.069,2.969
	c-0.069,1.342-0.2,2.305-0.37,2.766c-0.121,0.32-0.261,0.412-0.632,0.412c-0.361,0-0.813-0.051-1.425-0.172
	c0.11,0.252,0.15,0.422,0.172,0.713c0.642,0.049,0.911,0.07,1.282,0.07c0.592,0,0.912-0.182,1.112-0.643
	c0.361-0.803,0.491-2.146,0.582-6.115c0.01-0.371,0.01-0.451,0.04-0.631c-0.201,0.029-0.481,0.039-0.883,0.039h-2.426
	c0.149-0.391,0.239-0.621,0.381-1.021c0.069-0.211,0.109-0.32,0.141-0.381l-0.692-0.131c-0.02,0.221-0.119,0.592-0.26,0.973
	c-0.371,1.023-0.861,1.875-1.475,2.525c0.171,0.109,0.352,0.281,0.48,0.451c0.521-0.672,0.813-1.133,1.153-1.824H159.331
	L159.331,135.718z M152.213,138.476h1.954v2.445h-1.954V138.476z M152.213,135.687h1.954v2.236h-1.954V135.687z M152.444,135.138
	h-0.291c-0.17,0-0.461-0.012-0.602-0.031c0.029,0.25,0.04,0.482,0.04,0.953v5.082c0,0.592-0.011,0.963-0.051,1.223h0.673v-0.881
	h1.954v0.643h0.661c-0.029-0.242-0.05-0.582-0.05-1.033v-5.104c0-0.359,0.01-0.621,0.029-0.883c-0.04,0-0.33,0.01-0.882,0.031
	h-0.651c0.19-0.441,0.32-0.814,0.511-1.385l-0.712-0.129c-0.09,0.529-0.21,0.951-0.431,1.514H152.444z"/>
</svg>
