<?xml version="1.0" encoding="utf-8"?>
<!-- Generator: Adobe Illustrator 16.0.0, SVG Export Plug-In . SVG Version: 6.00 Build 0)  -->
<!DOCTYPE svg PUBLIC "-//W3C//DTD SVG 1.1//EN" "http://www.w3.org/Graphics/SVG/1.1/DTD/svg11.dtd">
<svg version="1.1" id="レイヤー_1" xmlns="http://www.w3.org/2000/svg" xmlns:xlink="http://www.w3.org/1999/xlink" x="0px"
	 y="0px" width="498.846px" height="370.426px" viewBox="0 0 498.846 370.426" enable-background="new 0 0 498.846 370.426"
	 xml:space="preserve">
<g>
	
		<path fill-rule="evenodd" clip-rule="evenodd" fill="none" stroke="#000000" stroke-width="2" stroke-linecap="round" stroke-linejoin="round" stroke-miterlimit="10" d="
		M16.845,194.068c-0.614-1.623-1.229-3.245-1.844-4.867c-0.073,0.077-0.147,0.154-0.222,0.231c-1.774-2.704-3.55-5.408-5.681-8.654
		c-1.901-0.228-4.598-0.552-8.099-0.972c0.499-2.5,0.703-4.695,1.405-6.717c0.728-2.095,1.938-4.022,2.94-6.021
		c2.076-4.138,4.645-4.577,8.509-1.513c0.757,0.6,1.642,1.036,3.021,1.891c5.131-2.531,10.687-4.973,15.892-8.013
		c1.668-0.975,2.431-3.52,3.574-5.368c1.849-2.989,3.159-6.521,5.598-8.901c8.103-7.905,16.624-15.345,27.386-19.646
		c2.472-0.988,5.026-2.248,6.953-4.022c4.706-4.332,9.15-0.426,13.537,0.264c2.804,0.44,4.025,7.944,1.439,9.674
		c-5.978,3.997-7.62,9.602-7.374,16.135c0.313,8.373-3.363,15.418-7.762,22.501c1.394,0,2.297,0.285,2.691-0.042
		c7.649-6.355,16.612-10.367,25.529-14.471c0.878-0.404,1.756-0.888,2.493-1.502c9.299-7.752,19.967-7.646,31.017-5.506
		c0.804,0.155,1.795,0.3,2.476-0.022c6.639-3.152,11.256,1.8,16.508,4.072c2.988,1.294,3.831,3.986,3.479,6.967
		c-0.535,4.516-1.204,9.021-2.034,13.491c-0.202,1.09-1.252,2.021-2.133,3.362c-6.422-0.646-7.591,4.8-10.534,9.791
		c2.523,0.192,4.363,0.332,7.044,0.536c-0.776,2.331-1.527,4.588-2.249,6.753c2.326,1.664,4.659,3.332,7.22,5.163
		c1.58-1.717,3.26-3.543,5.023-5.459c4.978,2.523,8.73,8.534,15.155,3.551c4.383,6.595,7.548,12.736,6.228,20.351
		c-2.525-0.48-4.865-0.926-7.477-1.423c-3.17,1.491-5.068,3.875-3.895,7.895c2.875,0.933,5.584,1.811,8.242,2.673
		c-1.063,6.021-5.708,11.83,0.715,17.537c-5.981,5.655-6.322,12.461-3.786,19.788c0.275,0.796,0.394,1.655,0.507,2.496
		c0.919,6.775,4.928,9.39,11.509,7.503c1.827-0.523,3.692-1.51,5.494-1.412c6.228,0.335,6.824,0.09,8.566-5.8
		c2.757-0.259,5.595-0.695,8.439-0.748c3.375-0.062,5.644-0.759,7.184-4.467c1.601-3.852,6.595-2.804,9.843-4.525
		c1.752-0.928,3.786-1.322,5.183-1.787c1.352-8.119,2.911-15.407,3.656-22.778c0.413-4.091-0.644-8.315-0.814-12.488
		c-0.075-1.823,0.411-3.67,1.684-6.041c-13.628-17.78-27.256-35.562-40.532-52.885c7.209-13.494,20.012-21.023,30.288-31.081
		c3.083-3.019,6.333-5.432,11.012-5.022c3.505,0.308,4.212-2.697,4.369-4.978c0.285-4.136,0.266-8.417-0.526-12.461
		c-0.594-3.028-0.313-5.645,1.729-7.445c3.738-3.298,8.023-5.967,11.879-9.142c1.613-1.327,2.785-3.226,4.029-4.956
		c1.754-2.437,3.389-4.958,5.213-7.649c2.503,1.269,5.104,2.588,8.08,4.097c1.32-2.458,3.231-4.594,3.575-6.956
		c0.688-4.741,4.409-6.017,7.719-7.299c2.046-0.793,4.846-0.88,6.517,2.274c3.451,6.514,10.448,8.432,16.488,11.394
		c1.146,0.563,4.141-0.331,4.785-1.431c4.675-7.98,12.638-9.738,20.592-12.082c3.456-1.018,6.704-3.47,9.475-5.919
		c4.421-3.905,8.836-7.205,14.445-9.705c10.227-4.557,18.271-11.737,21.423-23.633c1.188-4.48,5.553-8.205,8.741-12.049
		c4.39-5.292,9.162-10.282,13.509-15.597"/>
	
		<path fill-rule="evenodd" clip-rule="evenodd" fill="none" stroke="#000000" stroke-width="2" stroke-linecap="round" stroke-linejoin="round" stroke-miterlimit="10" d="
		M17.845,193.068c0.834-1.666,1.668-3.333,2.501-5c6.416-0.796,6.95-0.25,9.071,5.976c1.219,3.576,3.166,6.905,5.162,11.147
		c2.599,2.142,5.842,2.042,9.294-0.586c2.862-2.181,6.033-3.952,8.958-6.056c5.334-3.834,11.186-4.257,16.96-1.854
		c3.519,1.465,6.511,4.191,9.739,6.351c-0.18,0.654-0.359,1.309-0.539,1.963c3.785-0.647,7.629-1.057,11.34-1.994
		c6.57-1.658,9.446-0.978,12.202,3.093c-1.444,3.8-2.774,7.301-4.443,11.692c-1.283-0.469-3.095-0.942-4.723-1.775
		c-1.717-0.879-3.258-2.1-5.259-3.426c-3.616,5.699-8.393,8.759-15.245,9.239c-2.781,0.195-5.69,3.053-7.959,5.29
		c-8.979,8.853-17.728,17.938-26.556,26.943c-0.416,0.426-0.77,0.914-1.063,1.267c0.583,2.055,1.103,3.884,1.675,5.901
		c13.029,0.667,17.757,9.719,20.387,20.827c0.633,2.675,1.302,5.341,2.035,8.344c-4.188,4.238-1.467,7.99,1.47,11.65
		c7.934,9.888,15.906,19.742,23.858,29.604c-4.336,3.162-7.155,2.906-22.874-2.44c2.301,3.903,1.383,2.593,8.133,5.468
		c10.875,4.013,7.5,7.375,14.75,11.5c-1.869,3.099-10.809,11.75-18.806,15.248c3.573,2.15,12.806-4.248,12.487,5.938
		c4.034,0.813,7.584,1.528,10.164,2.048"/>
	
		<path fill-rule="evenodd" clip-rule="evenodd" fill="none" stroke="#000000" stroke-width="2" stroke-linecap="round" stroke-linejoin="round" stroke-miterlimit="10" d="
		M448.845,141.068c-2.9,11.723-7.651,22.711-12.893,33.552c-1.529,3.163-1.702,6.968-2.637,10.44
		c-0.504,1.877-0.831,4.113-2.054,5.431c-4.967,5.352-10.215,10.447-15.45,15.543c-0.933,0.907-2.227,1.692-3.48,1.977
		c-4.666,1.056-8.241,3.619-11.543,7.002c-3.478,3.562-9.945,3.601-13.443,0.556c3.437-7.716,5.466-10.557,10-14
		c-7.65-2.924-11.192-1.484-16.076,6.627c0.71,1.071,1.457,2.196,2.457,3.704c-3.425,5.996-7.086,11.988-10.274,18.224
		c-1.015,1.984-1.099,4.621-1.034,6.943c0.113,4.046-1.548,5.477-5.567,5.626c-3.31,0.122-6.579,1.333-9.679,2.021
		c-0.981-2.536-1.707-4.41-2.283-5.9c-3.687,0.461-6.854,1.039-10.045,1.22c-7.827,0.443-15.666,0.682-23.498,1.045
		c-3.824,0.178-7.526,0.113-9.528-3.596c-8.91,3.439-14.711,9.88-20.597,16.476c-3.66,4.101-8.424,7.278-12.959,10.493
		c-1.12,0.794-3.283,0.118-5.431,0.118c-2.034,1.96-6.744,3.459-4.048,7.536c-0.709,3.992-1.27,7.152-1.924,10.837
		c3.449,0.334,5.958,0.576,8.809,0.852c3.82-8.682,10.396-1.566,15.718-2.214c1.114-2.436,2.043-4.465,3.336-7.292
		c2.451,0.612,5.082,1.271,8.084,2.021c7.859-4.48,17.24-2.185,26.889-4.476c2.071-1.838,1.659-7.938,7.651-7.268
		c4.29,0.479,9.554-1.991,11.687,3.754c1.997,0,3.681,0,5.66,0c2.021,2.61,0.08,5.344-1.479,7.135
		c-2.822,3.24-2.16,5.555,0.039,8.682c2.075,2.951,3.371,6.451,5.161,10.011c9.294,1.257,13.697-1.429,16.951-10.57
		c1.645-4.619,3.737-8.917,10.221-9.584c-1.902-2.514-3.573-4.721-5.486-7.249c0.44-3.052,0.923-6.388,1.434-9.924
		c1.3,0,2.285,0,3.444,0c0.94,2.789,0.492,6.777,5.372,8.237c-0.42-2.496-0.747-4.443-1.231-7.324
		c3.088,1.852,5.27,3.159,7.86,4.713c-1.687,1.266-2.914,2.188-4.595,3.45c8.898,3.339,17.816,0.748,27.069,1.952
		c-0.712-6.263,0.96-11.478,6.799-16.474c0.279,5.436,0.505,9.806,0.771,14.994c8.068-1.934,4.759-9.226,8.586-12.945
		c1.207,0.549,2.975,1.352,4.74,2.15c1.809-5.776,3.209-6.804,7.826-5.404c-1.006,4.584-2.014,9.181-3.044,13.878
		c4.915,0.147,6.814-1.989,8.431-5.889c1.486-3.586,4.563-6.637,7.364-9.512c1.791-1.838,4.352-2.927,7.069-4.675
		c-1.267-2.743-2.564-5.28-3.625-7.912c-1.636-4.063-1.847-8.306,1.552-11.406c3.891-3.55,4.237-8.021,4.37-12.586
		c0.204-6.994-0.135-14.006,0.146-20.994c0.114-2.855,0.643-6.023,2.055-8.418c1.916-3.248,5.21-4.313,9.853-1.422
		c0.717-4.179,1.646-7.9,1.924-11.67c0.308-4.173,0.676-8.02,3.438-11.602c1.601-2.075,2.073-5.176,2.589-7.902
		c1.441-7.628,2.085-14.9-3.823-21.602c-5.39-6.112-5.125-13.804-3.094-21.513c-4.354-0.46-8.687-1.103-13.036-1.249
		c-1.119-0.038-2.289,1.487-4.058,2.731c3.865,3.511,7.09,6.441,10.743,9.76c-1.115,1.115-1.948,1.948-2.347,2.348
		c-2.822-0.399-4.902-0.448-6.81-1.047c-1.3-0.408-3.011-1.352-3.408-2.461c-1.422-3.972-4.224-5.409-8.364-5.521
		c-3.241,7.099-7.987,13.676-7.528,21.22c-2.339,1.939-4.144,3.436-5.948,4.932c0.213,0.422,0.426,0.844,0.639,1.266
		c1.528,0.383,3.057,0.765,4.585,1.146"/>
	
		<path fill-rule="evenodd" clip-rule="evenodd" fill="none" stroke="#000000" stroke-width="2" stroke-linecap="round" stroke-linejoin="round" stroke-miterlimit="10" d="
		M497.844,21.003c-1.152-1.7-2.084-3.64-2.921-5.472c-2.66-5.818-7.271-7.366-13.078-6.925c0,12.461,0,24.963,0,37.569
		c-8.883,3.182-5.853,10.835-6.587,16.672c-6.896,3.69-11.302-2.636-17.578-3.444c-0.267,5.301-0.528,10.503-0.813,16.164
		c-3.346,0-6.199,0-9.919,0c0.492,6.241,0.939,11.909,1.387,17.576c0.392-0.006,0.783-0.013,1.174-0.02
		c-0.514,1.495-1.027,2.99-1.81,5.265c2.151,2.313,4.648,4.995,7.146,7.679"/>
	
		<path fill-rule="evenodd" clip-rule="evenodd" fill="none" stroke="#000000" stroke-width="2" stroke-linecap="round" stroke-linejoin="round" stroke-miterlimit="10" d="
		M455.845,105.068c2.974-7.41,6.79-9.02,17.057-2.126c0.903-1.988,1.761-3.878,3.129-6.892c-2.604-1.519-5.029-3.269-7.709-4.429
		c-6.251-2.705-6.342-2.658-5.324-10.178c3.516,2.187,6.682,4.155,10.497,6.528c2.374-3.035,4.863-6.219,7.566-9.675
		c6.248,3.338,11.64,6.035,16.785,8.968"/>
	
		<path fill-rule="evenodd" clip-rule="evenodd" fill="none" stroke="#000000" stroke-width="2" stroke-linecap="round" stroke-linejoin="round" stroke-miterlimit="10" d="
		M267.845,337.568c0.746,2.364,1.493,4.728,2.293,7.262c1.409-0.498,2.551-0.902,4.207-1.488c0-1.938,0-4.135,0-6.839
		c3.174,0.445,5.793,0.813,8.383,1.178c2.123-10.975,4.127-21.339,6.293-32.538c-1.518-1.875-3.617-4.467-5.705-7.046
		c0.691-1.363,1.366-2.693,2.038-4.017c-3.247-4.116-3.247-4.116-10.93-2.419c-0.721-0.585-1.72-1.27-2.561-2.111
		c-0.916-0.918-1.685-1.981-2.519-2.981c-7.278,0-7.278,0-12.182,6.75c-1.64,0-3.478,0-5.017,0c-3.026,2.514-5.751,4.777-9.316,7.74
		c2.629,0.296,4.311,0.485,6.015,0.678c0,2.034,0,4.188,0,6.549c-2.281-0.286-4.106-0.515-5.861-0.735
		c0.693,2.989,1.279,5.514,1.92,8.274c3.082,0.796,6.295,1.626,10.688,2.76c0.175-4.619,0.353-9.324,0.545-14.408
		c4.948,1.609,5.503,4.47,5.229,7.895c-0.413,5.16-0.667,10.333-1.026,15.498c-0.303,4.335-0.661,8.667-1.015,13.258
		c1.408,0.656,2.898,1.351,4.389,2.045c0.365-0.188,0.729-0.376,1.095-0.564c-0.707-2.295-1.415-4.59-2.24-7.267
		c0.691-1.513,1.622-3.546,2.561-5.598c1.373,0.485,2.515,0.89,4.69,1.659c-0.593,1.792-1.283,3.88-1.974,5.967"/>
	
		<path fill-rule="evenodd" clip-rule="evenodd" fill="none" stroke="#000000" stroke-width="2" stroke-linecap="round" stroke-linejoin="round" stroke-miterlimit="10" d="
		M187.845,298.568c-0.333-0.5-0.553-1.222-1.02-1.461c-1.926-0.987-3.927-1.828-6.375-2.938c-2.462,1.722-5.002,3.498-7.776,5.438
		c4.386,3.006,9.179,2.663,14.671-0.54"/>
	
		<path fill-rule="evenodd" clip-rule="evenodd" fill="none" stroke="#000000" stroke-width="2" stroke-linecap="round" stroke-linejoin="round" stroke-miterlimit="10" d="
		M464.845,12.068c0.658-2.434,1.465-4.902-1.818-6.909c-0.567,2.979-2.037,5.589,0.818,7.909"/>
	
		<path fill-rule="evenodd" clip-rule="evenodd" fill="none" stroke="#000000" stroke-width="2" stroke-linecap="round" stroke-linejoin="round" stroke-miterlimit="10" d="
		M417.845,180.068c-1.37,1.67-2.74,3.339-3.733,4.549c1.256,2.691,2.106,4.517,3.288,7.051c1.605-2.096,3.124-4.08,4.229-5.521
		c-1.479-2.289-2.382-3.684-3.283-5.078"/>
	
		<path fill-rule="evenodd" clip-rule="evenodd" fill="none" stroke="#000000" stroke-width="2" stroke-linecap="round" stroke-linejoin="round" stroke-miterlimit="10" d="
		M271.345,353.568c-0.678,3.531-1.355,7.063-2.144,11.172c-1.433-0.28-2.396-0.468-3.723-0.727c1.146-2.705,2.257-5.325,3.366-7.945
		"/>
	
		<path fill-rule="evenodd" clip-rule="evenodd" fill="none" stroke="#000000" stroke-width="2" stroke-linecap="round" stroke-linejoin="round" stroke-miterlimit="10" d="
		M256.845,361.068c1.01,0.604,2.02,1.209,3.029,1.813c0.267-0.503,0.533-1.007,0.801-1.511c-0.943-0.434-1.887-0.868-2.83-1.302"/>
	
		<path fill-rule="evenodd" clip-rule="evenodd" fill="none" stroke="#000000" stroke-width="2" stroke-linecap="round" stroke-linejoin="round" stroke-miterlimit="10" d="
		M237.345,270.068c0.563-1.316,1.128-2.633,1.76-4.108c-0.515,0.215-2.505,6.187-2.76,7.608"/>
	
		<path fill-rule="evenodd" clip-rule="evenodd" fill="none" stroke="#000000" stroke-width="2" stroke-linecap="round" stroke-linejoin="round" stroke-miterlimit="10" d="
		M328.845,277.568c-5.733,7.225-12.83,5.352-20.627,2.601c-1.909,2.242-3.756,4.706-5.91,6.862c-2.245,2.248-4.787,4.2-7.541,6.578
		c2.533,0.96,4.615,1.748,7.326,2.775c-4.986,9.803,1.085,14.268,9.03,18.378c2.04-4.819,4.134-9.764,5.987-14.142
		c3.193-1.481,5.896-3.572,8.755-3.815c2.602-0.221,5.374,1.563,8.643,2.655c5.009-3.373,8.454-8.41,10.087-16.088
		c-4.945-1.882-10.098-3.844-15.25-5.805"/>
</g>
<path d="M234.607,313.907c0.202-2.621,2.408-7.09-1.193-6.213C232.515,310.957,232.714,313.209,234.607,313.907z"/>
<path stroke="#000000" d="M234.179,314.394C233.098,307.796,229.168,321.044,234.179,314.394L234.179,314.394z"/>
<path fill="none" stroke="#FF0000" stroke-width="3" d="M355.498,270.102c0,0-49.986,3.66-54.986,16.466c0,0-12.334,0-25.834,0
	c-0.121,0.104-11.217-3.266-14.766,0.437c0,0-3.159-10.561-10.734-6.424c0,0,1.333-24.579-33.092-12.746
	c0,0-35.827,33.844-46.926-12.343c0,0-17.688-49.669,10.893-48.726l-24.545-5.707c0,0-26.992-4.77-10.455-41.547
	c0,0-8.636-23.429-38.604,4.13c0,0-25.482-8.154-37.986,31.617"/>
<path fill="none" stroke="#0A78DD" stroke-width="3" d="M259.345,288.15c0,0-23.791,7.717-26.447,22.76l-71.303,26.908
	c0,0,1,3.75-85.684-4.167"/>
<path fill="none" stroke="#000000" stroke-dasharray="3" d="M162.106,158.438c0,0,17.022-10.541,19.636-13.594
	c0,0-1.743,3.271,18.313,13.839"/>
<path fill="none" stroke="#000000" stroke-dasharray="3" d="M181.743,144.844c0,0,4.247-24.412-17.877-30.402
	c0,0-9.593-13.513,0.539-41.088c0,0,12.419-20.055-21.917-60.592c0,0-2.566-4.275-4.484-11.765"/>
<g id="レイヤー_2">
</g>
<g>
	<path d="M187.836,235.441h-2.727c-0.936,0-1.661,0.053-2.17,0.159v-1.748c0.494,0.106,1.235,0.159,2.224,0.159h3.229v-1.403
		c0-0.371-0.044-0.734-0.133-1.086h1.774c-0.07,0.283-0.106,0.645-0.106,1.086v1.403h2.912c0.883,0,1.598-0.053,2.145-0.159v1.721
		c-0.513-0.087-1.227-0.132-2.145-0.132h-2.516c0.512,0.707,1.016,1.285,1.51,1.735c0.494,0.45,1.235,0.992,2.225,1.626
		c-0.318,0.371-0.627,0.848-0.927,1.43c-0.864-0.723-1.505-1.315-1.918-1.774c-0.415-0.459-0.879-1.085-1.391-1.879
		c0.036,0.44,0.072,1.218,0.106,2.329v3.839c0,0.917,0.044,1.677,0.132,2.277h-1.825c0.106-0.688,0.158-1.449,0.158-2.277v-3.759
		c0-0.6,0.028-1.332,0.082-2.197c-1.023,2.134-2.692,4.094-5.003,5.875c-0.265-0.563-0.6-1.059-1.006-1.482
		c1.34-0.883,2.488-1.853,3.441-2.912C186.592,237.479,187.235,236.536,187.836,235.441z M185.083,229.537h4.738
		c0.83-1.411,1.421-2.859,1.773-4.341l1.589,0.503c-0.653,1.625-1.252,2.903-1.801,3.838h1.563c0.917,0,1.633-0.044,2.145-0.133
		v1.774c-0.548-0.088-1.263-0.132-2.145-0.132h-7.863c-0.953,0-1.685,0.044-2.198,0.132v-1.774
		C183.362,229.493,184.095,229.537,185.083,229.537z M190.059,223.448h2.463c0.953,0,1.694-0.043,2.225-0.132v1.774
		c-0.603-0.087-1.351-0.132-2.252-0.132h-6.776c-0.954,0-1.721,0.045-2.303,0.132v-1.774c0.512,0.089,1.29,0.132,2.329,0.132h2.647
		v-0.714c0-0.743-0.044-1.358-0.132-1.854h1.933c-0.089,0.459-0.133,1.076-0.133,1.854V223.448L190.059,223.448z M187.861,228.795
		l-1.403,0.504c-0.389-1.307-0.891-2.489-1.509-3.547l1.402-0.529C186.953,226.3,187.458,227.491,187.861,228.795z M197.869,229.352
		h6.725c1.005,0,1.817-0.053,2.435-0.159v1.827c-0.546-0.087-1.323-0.132-2.329-0.132h-0.98v11.542c0,1.234,0.053,2.117,0.159,2.647
		h-2.039c0.106-0.688,0.159-1.571,0.159-2.647v-11.542h-4.156v1.032c-0.036,3.795-0.539,6.962-1.51,9.504
		c-0.494,1.324-1.147,2.532-1.958,3.627c-0.513-0.477-1.015-0.848-1.509-1.112c1.27-1.571,2.144-3.473,2.62-5.705
		c0.478-2.234,0.715-5.554,0.715-9.967c0-2.417-0.044-4.05-0.132-4.897h0.316c1.625,0,3.717-0.406,6.275-1.218
		c1.059-0.353,1.871-0.731,2.435-1.138l1.351,1.483c-0.246,0.088-0.563,0.211-0.951,0.37c-1.942,0.796-4.484,1.449-7.625,1.959
		L197.869,229.352L197.869,229.352z"/>
	<path d="M209.729,237.373l-0.159-1.694c0.301,0.053,0.751,0.08,1.353,0.08h0.847c0.83-0.812,1.43-1.412,1.8-1.801
		c-1.254-1.516-2.426-2.682-3.521-3.494l0.954-1.112c0.333,0.3,0.775,0.705,1.324,1.218c0.935-1.095,1.624-2.136,2.065-3.124
		l1.403,0.82c-0.035,0.036-0.149,0.186-0.345,0.45c-0.194,0.265-0.414,0.556-0.661,0.874c-0.548,0.777-1.05,1.421-1.509,1.933
		c0.424,0.459,0.838,0.927,1.244,1.403c1.448-1.641,2.399-2.912,2.859-3.812l1.43,0.979c-0.3,0.3-0.759,0.821-1.376,1.562
		c-1.094,1.307-2.356,2.647-3.786,4.024c1.412-0.087,2.764-0.212,4.052-0.37c-0.231-0.494-0.539-1.042-0.927-1.642l1.165-0.503
		c0.671,1.023,1.324,2.33,1.958,3.918l-1.218,0.635c-0.228-0.635-0.38-1.032-0.45-1.191c-1.112,0.14-1.967,0.247-2.566,0.317v5.454
		c0,1.165,0.053,2.029,0.159,2.594h-1.854c0.106-0.635,0.159-1.5,0.159-2.594v-5.321c-0.811,0.071-1.863,0.149-3.15,0.238
		C210.39,237.267,209.976,237.32,209.729,237.373z M211.343,238.273l1.43,0.371c-0.229,1.201-0.468,2.176-0.714,2.925
		c-0.248,0.751-0.61,1.576-1.086,2.476l-1.404-0.715c0.512-0.847,0.892-1.623,1.138-2.329S211.167,239.385,211.343,238.273z
		 M231.728,223.74v1.747c0,0.725,0.034,1.341,0.106,1.852c-0.688-0.053-1.642-0.079-2.859-0.079h-15.54
		c-1.27,0-2.223,0.026-2.859,0.079c0.071-0.547,0.106-1.165,0.106-1.852v-1.747c0-0.706-0.035-1.341-0.106-1.906
		c0.583,0.069,1.572,0.105,2.965,0.105h15.328c1.412,0,2.401-0.036,2.965-0.105C231.761,222.382,231.728,223.017,231.728,223.74z
		 M217.087,225.963v-2.673h-4.819v2.673H217.087z M216.744,238.512l1.244-0.53c0.653,1.253,1.271,2.772,1.853,4.554l-1.35,0.688
		C218.016,241.441,217.433,239.871,216.744,238.512z M223.522,225.963v-2.673h-4.925v2.673H223.522z M227.889,239.703v2.647h2.995
		c0.968,0,1.638-0.036,2.011-0.106v1.615c-0.581-0.089-1.26-0.132-2.036-0.132h-8.291v1.271h-1.693
		c0.124-0.76,0.186-1.659,0.186-2.7v-6.83c0-0.105,0.034-0.917,0.106-2.436c-0.477,0.671-0.954,1.253-1.43,1.747
		c-0.23-0.406-0.548-0.775-0.954-1.112c0.917-0.794,1.743-1.734,2.474-2.819c0.734-1.086,1.258-2.148,1.576-3.19l1.509,0.477
		c-0.053,0.087-0.132,0.238-0.238,0.45c-0.036,0.053-0.097,0.168-0.186,0.344c-0.406,0.759-0.768,1.36-1.085,1.801h3.626
		c0.706-0.989,1.253-1.977,1.642-2.966l1.404,0.529c-0.053,0.089-0.179,0.309-0.371,0.662c-0.317,0.565-0.705,1.157-1.165,1.773
		h2.594c0.935,0,1.615-0.035,2.039-0.105v1.562c-0.442-0.069-1.112-0.105-2.011-0.105h-2.702v2.462h2.04
		c0.988,0,1.657-0.035,2.012-0.106v1.508c-0.424-0.07-1.094-0.106-2.012-0.106h-2.04v2.568h1.985c1.042,0,1.729-0.035,2.066-0.105
		v1.508c-0.371-0.07-1.06-0.105-2.066-0.105H227.889z M222.542,234.541h3.917v-2.462h-3.917V234.541z M222.542,235.837v2.568h3.917
		v-2.568H222.542z M222.542,239.703v2.647h3.917v-2.647H222.542z M225.029,225.963h5.107v-2.673h-5.107V225.963z"/>
</g>
<g>
	<path d="M99.285,77.385v-0.472c0-0.612-0.051-1.181-0.156-1.706h1.969c-0.105,0.525-0.158,1.103-0.158,1.732v0.446h7.453
		c1.121,0,2.012-0.052,2.677-0.158v1.732c-0.525-0.087-1.392-0.131-2.599-0.131H91.467c-0.019,6.613-0.326,11.425-0.92,14.434
		c-0.438,2.083-1.075,3.867-1.915,5.354c-0.367-0.437-0.833-0.84-1.393-1.208c0.805-1.398,1.364-2.921,1.68-4.564
		c0.595-3.008,0.892-7.278,0.892-12.807c0-1.154-0.033-2.082-0.104-2.781c0.685,0.086,1.646,0.131,2.887,0.131h6.692V77.385z
		 M99.706,84.655v-2.179h-4.487c-0.823,0-1.505,0.036-2.048,0.105v-1.601c0.509,0.086,1.182,0.13,2.022,0.13h4.512
		c0-0.769-0.043-1.329-0.131-1.679h1.73c-0.068,0.351-0.104,0.911-0.104,1.679h5.223c0.857,0,1.559-0.034,2.099-0.104
		c-0.051,0.524-0.078,1.137-0.078,1.836v1.785h0.684c0.944,0,1.679-0.053,2.204-0.158v1.706l-0.709-0.079
		c-0.089,0-0.312-0.004-0.67-0.014c-0.357-0.007-0.633-0.013-0.825-0.013h-0.684v1.995c0,0.7,0.027,1.295,0.078,1.784
		c-0.733-0.052-1.417-0.079-2.046-0.079H95.06c-0.979,0-1.696,0.043-2.151,0.131v-1.601c0.437,0.069,1.146,0.104,2.126,0.104h4.671
		v-2.335h-5.38c-1.014,0-1.811,0.026-2.389,0.079v-1.653c0.542,0.105,1.339,0.158,2.389,0.158H99.706z M95.35,98.013v1.391h-1.759
		c0.105-0.84,0.159-1.593,0.159-2.257v-3.7c0-0.718-0.036-1.355-0.105-1.916c0.664,0.052,1.407,0.078,2.23,0.078h10.549
		c0.805,0,1.522-0.026,2.152-0.078c-0.069,0.577-0.105,1.25-0.105,2.021v3.621c0,0.683,0.054,1.426,0.159,2.231h-1.785v-1.391H95.35
		z M95.35,93.026v3.569h11.521v-3.569H95.35z M101.203,84.628h5.694v-2.152h-5.694V84.628z M101.203,86.045v2.362h5.694v-2.362
		H101.203z"/>
</g>
<g>
	<path d="M190.065,53.27l1.273,0.928c-0.885,2.989-1.91,5.652-3.078,7.988c-0.052,0.087-0.114,0.207-0.185,0.357
		c-0.07,0.15-0.123,0.27-0.159,0.36l-1.539-1.195c0.461-0.529,0.857-1.131,1.194-1.804C188.597,57.853,189.429,55.641,190.065,53.27
		z M186.589,47.274l1.062-1.061c1.202,0.972,2.387,2.105,3.555,3.396l-1.088,1.248C188.986,49.476,187.81,48.282,186.589,47.274z
		 M187.385,40.8l1.193-1.008c1.257,1.168,2.318,2.317,3.185,3.449l-1.248,1.141C189.527,42.968,188.483,41.774,187.385,40.8z
		 M196.645,43.214h-2.308c-0.938,0-1.68,0.044-2.229,0.133v-1.724c0.513,0.087,1.257,0.132,2.229,0.132h2.308v-0.584
		c0-0.76-0.053-1.407-0.158-1.937h1.829c-0.106,0.514-0.158,1.158-0.158,1.937v0.583h2.466c0.92,0,1.635-0.043,2.149-0.132v1.725
		c-0.53-0.087-1.255-0.133-2.175-0.133h-2.44v2.441h2.492c0.832,0,1.594-0.029,2.283-0.082c-0.053,0.531-0.081,1.062-0.081,1.592
		v0.902c0,0.655,0.037,1.203,0.106,1.645h-1.591v-2.653h-7.908v2.892h-1.591c0.07-0.442,0.106-0.982,0.106-1.619v-1.167
		c0-0.566-0.028-1.096-0.081-1.592c0.69,0.053,1.441,0.082,2.255,0.082h2.494L196.645,43.214L196.645,43.214z M198.104,53.297v1.247
		c1.345-0.229,2.814-0.548,4.405-0.955l0.053,1.486c-1.414,0.318-2.901,0.629-4.458,0.929v4.828c0,0.745-0.166,1.257-0.502,1.539
		c-0.337,0.284-0.946,0.425-1.832,0.425c-0.653,0-1.44-0.044-2.36-0.133c-0.018-0.584-0.125-1.141-0.319-1.672
		c1.078,0.195,1.979,0.292,2.707,0.292c0.317,0,0.524-0.044,0.623-0.133c0.097-0.087,0.145-0.274,0.145-0.557v-4.324
		c-0.407,0.085-1.407,0.256-2.998,0.504c-0.477,0.07-0.892,0.149-1.247,0.238l-0.318-1.777c0.179,0.019,0.318,0.026,0.425,0.026
		c0.653,0,2.034-0.159,4.138-0.477v-0.452c0-0.744-0.035-1.335-0.105-1.777h0.582c0.85-0.548,1.602-1.203,2.256-1.963h-3.423
		c-0.636,0-1.263,0.044-1.884,0.133v-1.645c0.372,0.087,1.009,0.133,1.911,0.133h2.838c0.867,0,1.502-0.035,1.911-0.106l0.902,1.114
		c-0.249,0.212-0.646,0.611-1.195,1.194C199.759,52.032,199.006,52.66,198.104,53.297z M206.7,45.098h1.565
		c1.114,0,1.891-0.036,2.334-0.105c-0.07,0.689-0.106,1.839-0.106,3.449c-0.088,6.705-0.443,10.958-1.06,12.762
		c-0.196,0.548-0.47,0.933-0.824,1.154c-0.354,0.222-0.875,0.332-1.565,0.332c-0.707,0-1.422-0.062-2.148-0.186
		c-0.018-0.583-0.125-1.167-0.319-1.75c0.849,0.282,1.609,0.424,2.282,0.424c0.478,0,0.804-0.141,0.98-0.424
		c0.178-0.283,0.346-0.92,0.505-1.911c0.354-2.35,0.557-6.429,0.61-12.23h-2.309c0,0.159-0.009,0.362-0.027,0.61
		c-0.211,4.563-0.884,8.234-2.017,11.011c-0.654,1.592-1.708,3.193-3.157,4.802c-0.371-0.424-0.839-0.813-1.407-1.167
		c1.132-1.078,2.008-2.176,2.627-3.29c1.521-2.777,2.335-6.766,2.441-11.966c-0.689,0.019-1.254,0.062-1.697,0.133v-1.778
		c0.529,0.072,1.114,0.116,1.75,0.134c0.02-0.371,0.027-0.796,0.027-1.273c0.036-0.832,0.054-1.529,0.054-2.096
		c0-1.044-0.062-1.851-0.187-2.415h1.856c-0.106,0.707-0.16,1.565-0.16,2.573C206.753,42.843,206.734,43.914,206.7,45.098z"/>
	<path d="M212.908,47.46l1.035-1.194c1.574,1.008,3.015,2.122,4.326,3.342l-1.14,1.273c-0.691-0.742-1.322-1.349-1.899-1.817
		C214.656,48.597,213.881,48.062,212.908,47.46z M217.154,53.721l1.379,1.115c-1.008,3.06-2.034,5.544-3.078,7.455
		c-0.194,0.371-0.344,0.664-0.451,0.876l-1.512-1.194c0.495-0.531,1.082-1.562,1.765-3.091
		C215.938,57.352,216.569,55.631,217.154,53.721z M214.421,40.8l1.192-1.141c1.451,1.097,2.752,2.255,3.901,3.476l-1.22,1.247
		c-0.745-0.885-1.376-1.565-1.898-2.042C215.875,41.861,215.217,41.349,214.421,40.8z M224.026,41.941h9.578
		c1.68,0,2.829-0.053,3.449-0.159v1.778c-0.548-0.07-1.662-0.106-3.344-0.106h-10.452c-0.973,1.733-2.123,3.343-3.45,4.828
		c-0.354-0.476-0.786-0.883-1.299-1.22c1.61-1.433,2.955-3.37,4.034-5.811c0.406-0.901,0.645-1.662,0.715-2.281l1.857,0.371
		c-0.088,0.195-0.221,0.54-0.397,1.035C224.539,40.854,224.309,41.375,224.026,41.941z M232.516,59.479h-10.56
		c-0.053,0.176-0.123,0.428-0.212,0.756c-0.088,0.326-0.176,0.649-0.264,0.967l-1.805-0.239c0.742-1.963,1.361-4.546,1.856-7.747
		h-0.158c-1.008,0-1.824,0.053-2.44,0.159v-1.804c0.636,0.105,1.484,0.159,2.547,0.159h0.264c0.3-2.37,0.451-3.999,0.451-4.882
		c0-0.212-0.009-0.468-0.026-0.769c0.425,0.035,1.052,0.053,1.884,0.053h8.436c1.044,0,1.963-0.036,2.76-0.106
		c-0.088,0.424-0.166,1.76-0.238,4.006c0,0.071-0.009,0.292-0.026,0.663c-0.018,0.371-0.036,0.716-0.053,1.035h0.185
		c1.114,0,1.937-0.053,2.468-0.159v1.804c-0.796-0.106-1.618-0.159-2.468-0.159h-0.292c-0.02,0.177-0.036,0.424-0.053,0.743
		c-0.088,1.273-0.23,2.618-0.425,4.033h0.293c0.883,0,1.582-0.053,2.096-0.16v1.751c-0.621-0.072-1.337-0.106-2.151-0.106h-0.477
		c-0.266,1.538-0.593,2.528-0.982,2.971c-0.389,0.442-1.123,0.663-2.202,0.663c-0.513,0-1.485-0.053-2.918-0.159
		c0-0.549-0.098-1.114-0.292-1.698c1.132,0.212,2.114,0.319,2.946,0.319c0.671,0,1.101-0.103,1.287-0.306
		C232.131,61.065,232.32,60.47,232.516,59.479z M227.288,53.217h-4.111c-0.106,0.902-0.398,2.494-0.876,4.776h4.272
		C226.892,56.259,227.13,54.667,227.288,53.217z M223.389,51.731h4.086c0.106-1.097,0.202-2.486,0.292-4.166h-3.98
		C223.682,48.962,223.548,50.352,223.389,51.731z M233.258,53.217h-4.403c-0.177,1.451-0.416,3.042-0.716,4.776h4.643
		C232.976,56.437,233.136,54.845,233.258,53.217z M229.014,51.731h4.351c0.071-1.273,0.114-2.662,0.133-4.166h-4.165
		C229.172,49.76,229.066,51.147,229.014,51.731z"/>
</g>
<path fill="#FF0000" d="M121.467,232.348h-4.141c-0.793,0-1.49,0.045-2.095,0.144v-1.714c0.477,0.096,1.174,0.146,2.095,0.146h4.141
	v-3.24c0-0.936-0.047-1.76-0.143-2.475h1.833c-0.095,0.51-0.143,1.333-0.143,2.475v15.971c0,1.109,0.048,1.943,0.143,2.5h-1.833
	c0.095-0.697,0.143-1.539,0.143-2.521v-2.977c-1.476,0.84-3.222,1.713-5.236,2.619c-0.143,0.063-0.317,0.145-0.523,0.25
	c-0.207,0.102-0.341,0.17-0.405,0.201l-0.642-1.643c0.697-0.174,1.396-0.412,2.094-0.715c1.619-0.697,3.189-1.498,4.712-2.404
	V232.348L121.467,232.348z M128.322,235.038v7.948c0,0.381,0.135,0.629,0.404,0.738c0.348,0.127,1.095,0.189,2.237,0.189
	c1.047,0,1.794-0.055,2.237-0.164c0.443-0.111,0.752-0.326,0.928-0.646c0.333-0.68,0.514-2.02,0.547-4.021
	c0.381,0.271,0.88,0.5,1.5,0.691c-0.144,2.557-0.541,4.156-1.19,4.809c-0.286,0.285-0.722,0.482-1.31,0.596
	c-0.587,0.107-1.485,0.164-2.689,0.164c-1.713,0-2.844-0.131-3.392-0.393c-0.547-0.264-0.821-0.789-0.821-1.584v-15.707
	c0-1.031-0.048-1.849-0.143-2.452h1.833c-0.095,0.604-0.143,1.421-0.143,2.452v5.712c1.81-1.016,3.452-2.125,4.927-3.332
	c0.619-0.508,1.079-0.959,1.381-1.357l1.19,1.313c-0.079,0.063-0.167,0.13-0.262,0.201c-0.095,0.07-0.19,0.143-0.285,0.214
	c-0.095,0.071-0.207,0.163-0.333,0.275C133.113,232.174,130.908,233.625,128.322,235.038z"/>
<path fill="#FF0000" d="M143.148,243.011v-10.189h-1.167c-1,0-1.729,0.032-2.189,0.096c0.063-0.57,0.095-1.309,0.095-2.214v-2.927
	c0-0.937-0.031-1.714-0.095-2.333c0.681,0.081,1.444,0.119,2.284,0.119h2.952c1,0,1.769-0.038,2.309-0.119
	c-0.064,0.57-0.095,1.35-0.095,2.333v3.095c0,1.047,0.024,1.721,0.071,2.021c-0.302-0.03-1.007-0.054-2.118-0.07h-0.666v3.569h0.928
	c0.776,0,1.332-0.039,1.666-0.118v1.499c-0.461-0.063-1.023-0.094-1.689-0.094h-0.904v4.95c1.221-0.35,2.308-0.699,3.261-1.047
	l0.047,1.381c-2.458,0.811-5.117,1.57-7.973,2.285c-0.619,0.189-0.952,0.291-1,0.309l-0.453-1.617
	c0.46-0.018,1.007-0.09,1.642-0.217v-6.021c0-0.999-0.047-1.833-0.142-2.498h1.618c-0.079,0.444-0.119,1.261-0.119,2.449v5.759
	c0.158-0.031,0.301-0.063,0.429-0.092c0.128-0.033,0.309-0.078,0.547-0.131C142.625,243.132,142.877,243.074,143.148,243.011z
	 M141.315,226.873v4.688h4.522v-4.688H141.315z M149.456,244.105v-4.309c0-0.873-0.024-1.555-0.072-2.046
	c-0.19,0.111-0.604,0.339-1.238,0.691c-0.254-0.51-0.54-0.93-0.856-1.262c1.333-0.667,2.423-1.273,3.272-1.822
	s1.702-1.201,2.559-1.964c-0.921-1.015-1.761-2.182-2.523-3.499c-0.571,0.716-1.325,1.499-2.261,2.356
	c-0.302-0.461-0.635-0.816-1-1.071c1.158-0.937,2.154-1.991,2.987-3.165s1.4-2.34,1.701-3.501l1.5,0.405
	c-0.017,0.03-0.053,0.102-0.108,0.214c-0.056,0.111-0.135,0.28-0.237,0.499c-0.103,0.223-0.21,0.445-0.322,0.667
	c-0.08,0.175-0.175,0.373-0.286,0.596h3.404c1.095,0,1.84-0.039,2.237-0.118l0.88,0.95c-0.221,0.336-0.42,0.652-0.595,0.952
	c-1.111,1.938-2.244,3.508-3.403,4.715c1.507,1.253,3.412,2.348,5.712,3.285c-0.302,0.425-0.555,0.918-0.762,1.474
	c-2.508-1.222-4.483-2.483-5.926-3.785c-1.302,1.159-2.873,2.276-4.712,3.354c0.38,0.032,1.006,0.048,1.88,0.048h5.188
	c0.936,0,1.586-0.016,1.952-0.048c-0.048,0.336-0.071,1.024-0.071,2.073v4.236c0,1.189,0.04,2.023,0.119,2.5h-1.595v-1.264h-5.974
	v1.264h-1.57C149.416,245.898,149.456,245.087,149.456,244.105z M150.908,239.082v4.881h5.974v-4.881H150.908z M157.12,228.159
	h-5.284c-0.237,0.381-0.365,0.58-0.38,0.596c0.745,1.459,1.618,2.696,2.618,3.713C155.247,231.262,156.263,229.825,157.12,228.159z"
	/>
<path fill="#0076D9" d="M140.839,344.242h7.116c0-0.889-0.057-1.658-0.167-2.309h1.833c-0.111,0.664-0.166,1.438-0.166,2.309h7.568
	c1.079,0,1.895-0.057,2.452-0.166v1.689c-0.761-0.094-1.58-0.143-2.452-0.143h-7.568v2.451h6.425c0.905,0,1.619-0.033,2.143-0.096
	c-0.063,0.557-0.096,1.223-0.096,2v11.398c0,0.746-0.178,1.252-0.535,1.514s-1.052,0.395-2.083,0.395
	c-0.619,0-1.445-0.041-2.475-0.119c-0.047-0.541-0.183-1.059-0.404-1.549c0.952,0.176,1.895,0.262,2.832,0.262
	c0.459,0,0.766-0.037,0.917-0.117s0.226-0.246,0.226-0.502v-11.852h-14.875v11.756c0,1.145,0.039,1.961,0.119,2.451h-1.785
	c0.095-0.664,0.142-1.508,0.142-2.521v-11.064c0-0.793-0.031-1.477-0.095-2.047c0.572,0.063,1.293,0.094,2.167,0.094h5.878v-2.451
	h-7.116c-0.937,0-1.747,0.047-2.428,0.143v-1.688C139.141,344.185,139.95,344.242,140.839,344.242z M144.743,353.048h4.974
	c0.746-0.938,1.372-2.021,1.881-3.26l1.427,0.428c-0.603,1.096-1.198,2.037-1.784,2.832h1.809c0.904,0,1.602-0.041,2.094-0.119
	v1.521c-0.541-0.08-1.238-0.119-2.094-0.119h-3.713v2.547h3.523c0.903,0,1.603-0.039,2.093-0.119v1.5
	c-0.492-0.078-1.19-0.119-2.093-0.119h-3.523v2.072c0,1.158,0.038,2.057,0.119,2.689h-1.69c0.079-0.682,0.119-1.57,0.119-2.666
	v-2.094h-2.856c-0.936,0-1.658,0.039-2.165,0.119v-1.502c0.507,0.08,1.237,0.119,2.189,0.119h2.833v-2.547h-3.213
	c-0.888,0-1.579,0.041-2.07,0.119v-1.521C143.093,353.005,143.806,353.048,144.743,353.048z M144.553,350.287l1.238-0.545
	c0.587,0.854,1.102,1.736,1.547,2.639l-1.214,0.525C145.743,352.046,145.219,351.177,144.553,350.287z"/>
<path fill="#0076D9" d="M166.592,360.308v-10.188h-1.167c-1,0-1.729,0.029-2.189,0.094c0.063-0.57,0.095-1.309,0.095-2.213v-2.928
	c0-0.938-0.031-1.713-0.095-2.332c0.682,0.08,1.444,0.119,2.285,0.119h2.952c1,0,1.769-0.039,2.308-0.119
	c-0.063,0.57-0.095,1.348-0.095,2.332v3.094c0,1.047,0.024,1.723,0.071,2.023c-0.301-0.033-1.006-0.057-2.118-0.072h-0.666v3.566
	h0.928c0.777,0,1.333-0.035,1.666-0.117v1.5c-0.461-0.063-1.023-0.096-1.69-0.096h-0.904v4.951c1.221-0.35,2.309-0.697,3.261-1.047
	l0.047,1.381c-2.459,0.809-5.117,1.572-7.974,2.285c-0.618,0.189-0.952,0.293-0.999,0.309l-0.453-1.617
	c0.46-0.018,1.007-0.088,1.642-0.215v-6.023c0-1-0.047-1.832-0.143-2.498h1.619c-0.079,0.443-0.119,1.26-0.119,2.449v5.762
	c0.158-0.033,0.301-0.064,0.429-0.096c0.127-0.029,0.309-0.074,0.547-0.131C166.067,360.429,166.321,360.371,166.592,360.308z
	 M164.759,344.169v4.689h4.522v-4.689H164.759z M172.898,361.402v-4.311c0-0.873-0.023-1.555-0.071-2.047
	c-0.19,0.109-0.604,0.342-1.238,0.689c-0.254-0.508-0.54-0.928-0.856-1.26c1.333-0.668,2.422-1.273,3.271-1.822
	c0.849-0.547,1.702-1.201,2.559-1.961c-0.921-1.016-1.762-2.182-2.523-3.5c-0.571,0.715-1.325,1.5-2.261,2.355
	c-0.301-0.461-0.635-0.816-1-1.072c1.158-0.936,2.154-1.99,2.987-3.164c0.832-1.174,1.399-2.342,1.701-3.5l1.5,0.404
	c-0.017,0.031-0.052,0.104-0.108,0.215c-0.056,0.109-0.135,0.277-0.237,0.5c-0.103,0.221-0.21,0.443-0.322,0.664
	c-0.08,0.174-0.175,0.375-0.286,0.598h3.404c1.095,0,1.84-0.039,2.237-0.119l0.88,0.953c-0.221,0.334-0.42,0.648-0.595,0.949
	c-1.111,1.938-2.245,3.51-3.404,4.715c1.507,1.254,3.412,2.348,5.712,3.283c-0.302,0.428-0.555,0.92-0.762,1.475
	c-2.507-1.223-4.482-2.482-5.926-3.783c-1.302,1.158-2.873,2.275-4.713,3.355c0.381,0.029,1.007,0.047,1.881,0.047h5.188
	c0.936,0,1.585-0.018,1.952-0.047c-0.048,0.334-0.071,1.021-0.071,2.07v4.238c0,1.189,0.04,2.021,0.119,2.498h-1.595v-1.262h-5.975
	v1.262h-1.571C172.857,363.193,172.898,362.384,172.898,361.402z M174.351,356.378v4.879h5.975v-4.879H174.351z M180.563,345.455
	h-5.284c-0.238,0.383-0.365,0.582-0.381,0.596c0.746,1.461,1.619,2.697,2.619,3.713
	C178.689,348.558,179.706,347.121,180.563,345.455z"/>
</svg>
