<?xml version="1.0" encoding="utf-8"?>
<!-- Generator: Adobe Illustrator 16.0.3, SVG Export Plug-In . SVG Version: 6.00 Build 0)  -->
<!DOCTYPE svg PUBLIC "-//W3C//DTD SVG 1.1//EN" "http://www.w3.org/Graphics/SVG/1.1/DTD/svg11.dtd">
<svg version="1.1" id="レイヤー_1" xmlns="http://www.w3.org/2000/svg" xmlns:xlink="http://www.w3.org/1999/xlink" x="0px"
	 y="0px" width="498.846px" height="370.426px" viewBox="0 0 498.846 370.426" enable-background="new 0 0 498.846 370.426"
	 xml:space="preserve">
<g>
	<path fill="none" stroke="#000000" stroke-width="2" stroke-linecap="round" stroke-linejoin="round" stroke-miterlimit="10" d="
		M16.845,194.068c-0.614-1.623-1.229-3.245-1.844-4.866c-0.073,0.075-0.147,0.153-0.224,0.229c-1.772-2.703-3.55-5.408-5.681-8.654
		c-1.901-0.228-4.598-0.552-8.099-0.972c0.499-2.5,0.703-4.695,1.403-6.717c0.729-2.095,1.938-4.022,2.94-6.021
		c2.076-4.138,4.645-4.577,8.509-1.513c0.757,0.601,1.644,1.036,3.021,1.892c5.131-2.53,10.687-4.973,15.892-8.013
		c1.668-0.975,2.431-3.52,3.574-5.368c1.849-2.988,3.159-6.521,5.598-8.9c8.104-7.905,16.624-15.346,27.387-19.646
		c2.473-0.988,5.025-2.248,6.952-4.021c4.706-4.332,9.15-0.427,13.537,0.264c2.806,0.44,4.025,7.944,1.439,9.674
		c-5.979,3.997-7.62,9.603-7.374,16.135c0.313,8.373-3.363,15.418-7.762,22.501c1.394,0,2.297,0.285,2.689-0.042
		c7.649-6.354,16.612-10.366,25.529-14.471c0.878-0.404,1.756-0.888,2.493-1.502c9.299-7.752,19.967-7.646,31.017-5.506
		c0.804,0.155,1.795,0.3,2.476-0.022c6.641-3.151,11.258,1.801,16.51,4.072c2.986,1.294,3.831,3.986,3.479,6.967
		c-0.535,4.517-1.204,9.021-2.034,13.491c-0.201,1.09-1.252,2.021-2.133,3.362c-6.422-0.646-7.591,4.8-10.534,9.791
		c2.523,0.191,4.363,0.332,7.044,0.536c-0.774,2.331-1.525,4.588-2.249,6.753c2.326,1.664,4.659,3.332,7.222,5.163
		c1.58-1.718,3.26-3.543,5.021-5.459c4.979,2.522,8.73,8.532,15.155,3.551c4.383,6.596,7.548,12.735,6.228,20.352
		c-2.523-0.479-4.863-0.926-7.477-1.424c-3.17,1.491-5.068,3.875-3.896,7.896c2.875,0.933,5.585,1.812,8.241,2.673
		c-1.063,6.021-5.708,11.83,0.716,17.537c-5.98,5.653-6.321,12.461-3.785,19.788c0.273,0.796,0.394,1.654,0.507,2.495
		c0.919,6.774,4.928,9.391,11.509,7.504c1.827-0.523,3.692-1.511,5.494-1.412c6.228,0.335,6.824,0.09,8.564-5.801
		c2.759-0.259,5.597-0.694,8.439-0.747c3.375-0.063,5.644-0.76,7.184-4.469c1.603-3.852,6.597-2.804,9.845-4.523
		c1.752-0.93,3.785-1.322,5.183-1.787c1.353-8.119,2.911-15.407,3.656-22.778c0.413-4.091-0.646-8.313-0.814-12.488
		c-0.075-1.821,0.411-3.67,1.686-6.041c-13.628-17.778-27.256-35.562-40.532-52.884c7.209-13.494,20.012-21.022,30.288-31.081
		c3.083-3.019,6.333-5.432,11.012-5.021c3.505,0.308,4.212-2.697,4.369-4.979c0.285-4.136,0.266-8.417-0.526-12.461
		c-0.594-3.027-0.313-5.645,1.729-7.444c3.738-3.299,8.021-5.968,11.879-9.143c1.613-1.327,2.785-3.226,4.029-4.956
		c1.754-2.437,3.389-4.958,5.213-7.648c2.503,1.269,5.104,2.588,8.08,4.097c1.318-2.458,3.229-4.594,3.573-6.956
		c0.688-4.741,4.409-6.017,7.721-7.299c2.046-0.793,4.846-0.88,6.517,2.273c3.451,6.515,10.448,8.433,16.488,11.395
		c1.146,0.563,4.141-0.331,4.784-1.431c4.676-7.98,12.639-9.738,20.593-12.082c3.456-1.019,6.704-3.471,9.475-5.92
		c4.421-3.904,8.836-7.204,14.445-9.704c10.227-4.558,18.271-11.737,21.423-23.634c1.188-4.479,5.553-8.205,8.741-12.049
		c4.39-5.292,9.162-10.282,13.509-15.597"/>
	<path fill="none" stroke="#000000" stroke-width="2" stroke-linecap="round" stroke-linejoin="round" stroke-miterlimit="10" d="
		M17.845,193.068c0.834-1.666,1.668-3.334,2.501-5c6.416-0.797,6.95-0.25,9.071,5.977c1.219,3.576,3.166,6.904,5.162,11.146
		c2.599,2.143,5.842,2.041,9.294-0.586c2.86-2.182,6.031-3.953,8.958-6.057c5.334-3.834,11.186-4.257,16.96-1.854
		c3.519,1.466,6.511,4.19,9.737,6.352c-0.18,0.653-0.357,1.31-0.537,1.963c3.783-0.647,7.629-1.057,11.34-1.993
		c6.568-1.658,9.444-0.979,12.202,3.092c-1.444,3.801-2.774,7.303-4.443,11.692c-1.283-0.469-3.095-0.942-4.723-1.774
		c-1.719-0.879-3.26-2.101-5.261-3.426c-3.614,5.698-8.393,8.758-15.245,9.238c-2.779,0.194-5.688,3.053-7.959,5.29
		c-8.979,8.853-17.728,17.938-26.556,26.941c-0.416,0.428-0.77,0.914-1.063,1.269c0.583,2.055,1.103,3.885,1.675,5.9
		c13.027,0.667,17.757,9.72,20.387,20.827c0.633,2.675,1.302,5.341,2.035,8.345c-4.188,4.237-1.467,7.989,1.47,11.649
		c7.936,9.888,15.906,19.741,23.858,29.604c-4.336,3.162-7.155,2.906-22.874-2.438c2.301,3.902,1.383,2.592,8.133,5.467
		c10.875,4.014,7.5,7.375,14.75,11.5c-1.869,3.1-10.809,11.75-18.806,15.248c3.571,2.15,12.806-4.248,12.485,5.938
		c4.034,0.813,7.584,1.528,10.164,2.049"/>
	<path fill="none" stroke="#000000" stroke-width="2" stroke-linecap="round" stroke-linejoin="round" stroke-miterlimit="10" d="
		M448.845,141.068c-2.9,11.724-7.651,22.711-12.895,33.553c-1.527,3.162-1.701,6.968-2.637,10.439
		c-0.504,1.877-0.831,4.113-2.054,5.431c-4.968,5.353-10.215,10.446-15.45,15.544c-0.933,0.906-2.227,1.691-3.479,1.977
		c-4.666,1.056-8.24,3.619-11.543,7.003c-3.479,3.563-9.944,3.601-13.442,0.555c3.437-7.715,5.466-10.557,10-14
		c-7.65-2.924-11.192-1.482-16.076,6.627c0.71,1.072,1.457,2.197,2.457,3.705c-3.425,5.996-7.086,11.988-10.273,18.225
		c-1.016,1.982-1.1,4.621-1.033,6.941c0.111,4.047-1.549,5.479-5.567,5.627c-3.31,0.121-6.579,1.332-9.679,2.021
		c-0.981-2.536-1.707-4.41-2.283-5.899c-3.688,0.461-6.854,1.039-10.045,1.221c-7.827,0.441-15.666,0.682-23.498,1.045
		c-3.824,0.178-7.525,0.111-9.528-3.598c-8.909,3.439-14.711,9.881-20.597,16.478c-3.66,4.102-8.424,7.276-12.959,10.493
		c-1.12,0.794-3.283,0.117-5.431,0.117c-2.034,1.961-6.744,3.46-4.048,7.535c-0.709,3.992-1.271,7.152-1.926,10.838
		c3.449,0.334,5.958,0.576,8.811,0.853c3.82-8.682,10.396-1.566,15.718-2.214c1.114-2.438,2.043-4.465,3.336-7.292
		c2.451,0.61,5.082,1.271,8.084,2.021c7.858-4.479,17.24-2.186,26.89-4.477c2.07-1.838,1.658-7.938,7.65-7.269
		c4.29,0.479,9.554-1.99,11.688,3.754c1.997,0,3.682,0,5.66,0c2.021,2.609,0.079,5.345-1.479,7.136
		c-2.822,3.239-2.16,5.555,0.039,8.682c2.074,2.951,3.371,6.451,5.161,10.012c9.294,1.258,13.696-1.43,16.95-10.569
		c1.646-4.619,3.736-8.917,10.222-9.584c-1.902-2.515-3.573-4.722-5.486-7.249c0.44-3.053,0.923-6.389,1.435-9.924
		c1.301,0,2.285,0,3.443,0c0.94,2.787,0.492,6.775,5.372,8.236c-0.42-2.496-0.747-4.442-1.23-7.324
		c3.089,1.853,5.271,3.158,7.859,4.714c-1.687,1.266-2.914,2.188-4.595,3.448c8.897,3.34,17.815,0.748,27.068,1.953
		c-0.712-6.264,0.96-11.479,6.8-16.475c0.277,5.436,0.505,9.807,0.771,14.994c8.068-1.935,4.759-9.228,8.586-12.945
		c1.207,0.549,2.977,1.352,4.74,2.15c1.809-5.776,3.209-6.806,7.826-5.404c-1.006,4.584-2.015,9.182-3.044,13.878
		c4.915,0.146,6.813-1.989,8.431-5.889c1.486-3.586,4.563-6.639,7.364-9.514c1.791-1.838,4.352-2.927,7.068-4.674
		c-1.268-2.744-2.563-5.281-3.625-7.912c-1.637-4.063-1.848-8.307,1.553-11.406c3.891-3.551,4.235-8.021,4.37-12.586
		c0.202-6.993-0.137-14.006,0.146-20.993c0.114-2.855,0.644-6.023,2.055-8.419c1.916-3.247,5.211-4.313,9.854-1.422
		c0.717-4.179,1.646-7.899,1.924-11.67c0.309-4.173,0.676-8.02,3.438-11.602c1.601-2.075,2.071-5.176,2.589-7.902
		c1.439-7.628,2.085-14.899-3.823-21.602c-5.39-6.112-5.125-13.805-3.094-21.514c-4.354-0.46-8.688-1.103-13.036-1.249
		c-1.119-0.037-2.289,1.487-4.06,2.73c3.865,3.511,7.092,6.441,10.743,9.76c-1.114,1.115-1.947,1.948-2.347,2.349
		c-2.822-0.399-4.902-0.448-6.811-1.048c-1.301-0.407-3.012-1.353-3.407-2.461c-1.422-3.972-4.226-5.408-8.364-5.521
		c-3.241,7.099-7.987,13.676-7.528,21.22c-2.339,1.939-4.144,3.437-5.947,4.933c0.214,0.422,0.427,0.844,0.64,1.266
		c1.528,0.383,3.057,0.765,4.585,1.146"/>
	<path fill="none" stroke="#000000" stroke-width="2" stroke-linecap="round" stroke-linejoin="round" stroke-miterlimit="10" d="
		M497.844,21.003c-1.152-1.7-2.084-3.641-2.921-5.473c-2.66-5.817-7.271-7.365-13.078-6.925c0,12.461,0,24.963,0,37.569
		c-8.883,3.182-5.854,10.835-6.587,16.672c-6.896,3.69-11.304-2.636-17.578-3.444c-0.269,5.302-0.528,10.503-0.813,16.164
		c-3.346,0-6.197,0-9.919,0c0.492,6.241,0.939,11.909,1.389,17.576c0.392-0.006,0.781-0.013,1.174-0.02
		c-0.516,1.495-1.027,2.989-1.812,5.265c2.151,2.313,4.648,4.995,7.146,7.679"/>
	<path fill="none" stroke="#000000" stroke-width="2" stroke-linecap="round" stroke-linejoin="round" stroke-miterlimit="10" d="
		M455.845,105.068c2.974-7.409,6.79-9.02,17.057-2.126c0.903-1.987,1.761-3.878,3.129-6.892c-2.604-1.52-5.027-3.27-7.709-4.429
		c-6.251-2.705-6.342-2.658-5.324-10.179c3.518,2.188,6.684,4.155,10.497,6.528c2.374-3.035,4.863-6.219,7.566-9.675
		c6.248,3.338,11.64,6.035,16.785,8.968"/>
	<path fill="none" stroke="#000000" stroke-width="2" stroke-linecap="round" stroke-linejoin="round" stroke-miterlimit="10" d="
		M267.845,337.568c0.746,2.363,1.493,4.729,2.293,7.262c1.409-0.498,2.551-0.901,4.207-1.487c0-1.938,0-4.136,0-6.839
		c3.174,0.444,5.793,0.813,8.383,1.179c2.123-10.977,4.127-21.34,6.293-32.539c-1.518-1.875-3.617-4.467-5.705-7.045
		c0.691-1.363,1.366-2.693,2.038-4.018c-3.247-4.116-3.247-4.116-10.93-2.419c-0.721-0.585-1.72-1.271-2.563-2.111
		c-0.916-0.918-1.685-1.981-2.519-2.981c-7.278,0-7.278,0-12.182,6.75c-1.642,0-3.479,0-5.019,0
		c-3.024,2.516-5.751,4.777-9.314,7.74c2.629,0.297,4.311,0.485,6.015,0.679c0,2.034,0,4.188,0,6.549
		c-2.281-0.286-4.106-0.515-5.861-0.734c0.693,2.988,1.279,5.514,1.92,8.273c3.082,0.796,6.295,1.626,10.688,2.761
		c0.175-4.619,0.353-9.323,0.545-14.407c4.948,1.607,5.503,4.469,5.229,7.895c-0.412,5.16-0.667,10.333-1.025,15.498
		c-0.303,4.335-0.661,8.667-1.016,13.258c1.407,0.656,2.897,1.353,4.39,2.045c0.365-0.188,0.729-0.376,1.095-0.563
		c-0.707-2.295-1.415-4.59-2.24-7.267c0.691-1.514,1.622-3.547,2.563-5.599c1.373,0.485,2.515,0.891,4.688,1.659
		c-0.593,1.791-1.281,3.879-1.974,5.967"/>
	<path fill="none" stroke="#000000" stroke-width="2" stroke-linecap="round" stroke-linejoin="round" stroke-miterlimit="10" d="
		M187.845,298.568c-0.333-0.5-0.553-1.223-1.02-1.461c-1.928-0.986-3.929-1.828-6.375-2.938c-2.464,1.722-5.004,3.498-7.776,5.438
		c4.386,3.006,9.179,2.662,14.671-0.541"/>
	<path fill="none" stroke="#000000" stroke-width="2" stroke-linecap="round" stroke-linejoin="round" stroke-miterlimit="10" d="
		M464.845,12.068c0.658-2.434,1.465-4.901-1.818-6.908c-0.565,2.979-2.037,5.589,0.818,7.908"/>
	<path fill="none" stroke="#000000" stroke-width="2" stroke-linecap="round" stroke-linejoin="round" stroke-miterlimit="10" d="
		M417.845,180.068c-1.37,1.67-2.74,3.339-3.733,4.55c1.257,2.69,2.106,4.517,3.288,7.051c1.605-2.097,3.124-4.08,4.229-5.521
		c-1.479-2.289-2.383-3.684-3.283-5.078"/>
	<path fill="none" stroke="#000000" stroke-width="2" stroke-linecap="round" stroke-linejoin="round" stroke-miterlimit="10" d="
		M271.345,353.568c-0.678,3.531-1.355,7.063-2.144,11.172c-1.435-0.279-2.396-0.469-3.725-0.727
		c1.146-2.705,2.257-5.326,3.366-7.945"/>
	<path fill="none" stroke="#000000" stroke-width="2" stroke-linecap="round" stroke-linejoin="round" stroke-miterlimit="10" d="
		M256.845,361.068c1.01,0.604,2.02,1.209,3.029,1.813c0.267-0.503,0.531-1.008,0.801-1.512c-0.943-0.435-1.887-0.867-2.83-1.302"/>
	<path fill="none" stroke="#000000" stroke-width="2" stroke-linecap="round" stroke-linejoin="round" stroke-miterlimit="10" d="
		M237.345,270.068c0.563-1.315,1.128-2.633,1.76-4.107c-0.515,0.215-2.505,6.187-2.76,7.607"/>
	<path fill="none" stroke="#000000" stroke-width="2" stroke-linecap="round" stroke-linejoin="round" stroke-miterlimit="10" d="
		M328.845,277.568c-5.733,7.226-12.83,5.353-20.627,2.602c-1.909,2.242-3.756,4.706-5.91,6.861
		c-2.245,2.248-4.787,4.199-7.541,6.578c2.533,0.959,4.615,1.748,7.326,2.774c-4.986,9.804,1.085,14.269,9.029,18.378
		c2.04-4.818,4.135-9.765,5.986-14.143c3.193-1.48,5.896-3.571,8.755-3.814c2.604-0.221,5.374,1.563,8.645,2.654
		c5.009-3.372,8.454-8.409,10.087-16.087c-4.945-1.883-10.099-3.846-15.25-5.807"/>
</g>
<path d="M234.607,313.906c0.202-2.621,2.408-7.091-1.191-6.214C232.515,310.956,232.714,313.209,234.607,313.906z"/>
<path stroke="#000000" d="M234.179,314.395C233.098,307.796,229.168,321.044,234.179,314.395L234.179,314.395z"/>
<path fill="none" stroke="#000000" stroke-dasharray="3" d="M162.106,158.438c0,0,17.022-10.541,19.638-13.594
	c0,0-1.743,3.271,18.313,13.839"/>
<path fill="none" stroke="#000000" stroke-dasharray="3" d="M181.743,144.844c0,0,4.245-24.412-17.877-30.402
	c0,0-9.595-13.513,0.537-41.088c0,0,12.42-20.055-21.917-60.592c0,0-2.564-4.275-4.482-11.765"/>
<g id="レイヤー_2">
</g>
<path fill="none" stroke="#06CE06" stroke-width="3" d="M382.054,212.877C292.894,128.673,258.76,78.955,258.76,78.955
	s90.39,144.534,109.854,163.487"/>
<g>
	<path d="M99.285,77.385v-0.472c0-0.612-0.053-1.182-0.156-1.706h1.969c-0.104,0.524-0.158,1.103-0.158,1.731v0.446h7.453
		c1.121,0,2.012-0.052,2.677-0.158v1.732c-0.523-0.087-1.392-0.131-2.599-0.131H91.467c-0.02,6.612-0.326,11.425-0.92,14.434
		c-0.438,2.083-1.075,3.867-1.915,5.354c-0.367-0.438-0.833-0.841-1.395-1.208c0.807-1.398,1.364-2.922,1.682-4.564
		c0.595-3.008,0.892-7.278,0.892-12.807c0-1.154-0.033-2.082-0.104-2.781c0.685,0.086,1.646,0.131,2.887,0.131h6.692L99.285,77.385
		L99.285,77.385z M99.706,84.655v-2.179h-4.487c-0.823,0-1.505,0.036-2.048,0.105V80.98c0.509,0.086,1.182,0.13,2.021,0.13h4.514
		c0-0.769-0.043-1.329-0.131-1.679h1.729c-0.068,0.351-0.104,0.911-0.104,1.679h5.223c0.855,0,1.559-0.033,2.099-0.104
		c-0.051,0.523-0.078,1.137-0.078,1.836v1.785h0.686c0.942,0,1.679-0.054,2.204-0.158v1.706l-0.709-0.079
		c-0.089,0-0.313-0.004-0.67-0.014c-0.357-0.007-0.635-0.014-0.825-0.014h-0.686v1.995c0,0.7,0.027,1.295,0.078,1.784
		c-0.731-0.052-1.417-0.079-2.046-0.079H95.06c-0.979,0-1.696,0.043-2.149,0.131v-1.601c0.437,0.069,1.146,0.104,2.126,0.104h4.671
		v-2.335h-5.38c-1.016,0-1.813,0.026-2.391,0.079v-1.652c0.542,0.104,1.339,0.157,2.391,0.157h5.38L99.706,84.655L99.706,84.655z
		 M95.35,98.013v1.392h-1.759c0.104-0.84,0.159-1.593,0.159-2.257v-3.7c0-0.718-0.036-1.354-0.105-1.916
		c0.664,0.053,1.407,0.078,2.23,0.078h10.549c0.805,0,1.521-0.025,2.152-0.078c-0.069,0.577-0.105,1.25-0.105,2.021v3.621
		c0,0.683,0.054,1.426,0.159,2.23h-1.785v-1.391L95.35,98.013L95.35,98.013z M95.35,93.026v3.569h11.521v-3.569H95.35z
		 M101.203,84.628h5.692v-2.152h-5.692V84.628z M101.203,86.045v2.361h5.692v-2.361H101.203z"/>
</g>
<g>
	<path d="M190.065,53.27l1.273,0.928c-0.885,2.989-1.91,5.652-3.078,7.988c-0.052,0.087-0.114,0.207-0.185,0.357
		c-0.071,0.149-0.123,0.27-0.159,0.359l-1.539-1.194c0.461-0.529,0.855-1.131,1.192-1.805
		C188.597,57.853,189.429,55.641,190.065,53.27z M186.589,47.274l1.062-1.061c1.202,0.972,2.389,2.104,3.557,3.396l-1.088,1.248
		C188.986,49.476,187.81,48.281,186.589,47.274z M187.385,40.8l1.193-1.008c1.257,1.168,2.316,2.316,3.185,3.449l-1.248,1.141
		C189.527,42.968,188.483,41.774,187.385,40.8z M196.645,43.214h-2.308c-0.938,0-1.68,0.044-2.229,0.133v-1.724
		c0.515,0.087,1.259,0.132,2.229,0.132h2.308v-0.584c0-0.76-0.053-1.407-0.158-1.938h1.829c-0.104,0.515-0.156,1.158-0.156,1.938
		v0.583h2.466c0.92,0,1.635-0.043,2.147-0.132v1.725c-0.528-0.087-1.255-0.133-2.175-0.133h-2.438v2.44h2.49
		c0.832,0,1.596-0.028,2.283-0.082c-0.053,0.531-0.081,1.063-0.081,1.593v0.901c0,0.655,0.037,1.203,0.106,1.646h-1.591v-2.653
		h-7.908v2.893h-1.591c0.068-0.442,0.104-0.982,0.104-1.619v-1.167c0-0.566-0.028-1.097-0.081-1.593
		c0.69,0.054,1.441,0.082,2.255,0.082h2.494L196.645,43.214L196.645,43.214z M198.104,53.297v1.247
		c1.347-0.229,2.814-0.548,4.405-0.955l0.053,1.486c-1.414,0.317-2.899,0.629-4.458,0.929v4.828c0,0.745-0.166,1.257-0.502,1.539
		c-0.337,0.283-0.946,0.425-1.832,0.425c-0.651,0-1.438-0.044-2.358-0.133c-0.02-0.584-0.125-1.142-0.319-1.672
		c1.078,0.194,1.979,0.292,2.707,0.292c0.317,0,0.522-0.045,0.623-0.134c0.097-0.087,0.145-0.273,0.145-0.557v-4.324
		c-0.405,0.085-1.405,0.256-2.998,0.504c-0.477,0.07-0.892,0.149-1.247,0.238l-0.316-1.777c0.179,0.02,0.316,0.026,0.425,0.026
		c0.653,0,2.034-0.159,4.138-0.477v-0.452c0-0.744-0.033-1.335-0.104-1.777h0.582c0.85-0.548,1.602-1.203,2.256-1.963h-3.423
		c-0.636,0-1.265,0.044-1.884,0.133v-1.645c0.371,0.087,1.009,0.133,1.909,0.133h2.84c0.865,0,1.502-0.035,1.909-0.106l0.902,1.114
		c-0.249,0.212-0.646,0.611-1.195,1.194C199.759,52.031,199.006,52.66,198.104,53.297z M206.7,45.098h1.563
		c1.114,0,1.891-0.036,2.334-0.104c-0.07,0.688-0.104,1.839-0.104,3.448c-0.09,6.705-0.443,10.958-1.062,12.763
		c-0.196,0.548-0.47,0.933-0.824,1.153c-0.354,0.223-0.875,0.332-1.563,0.332c-0.707,0-1.422-0.062-2.148-0.186
		c-0.018-0.583-0.125-1.167-0.317-1.75c0.849,0.282,1.607,0.424,2.28,0.424c0.479,0,0.806-0.141,0.98-0.424
		c0.178-0.283,0.346-0.92,0.505-1.911c0.354-2.35,0.557-6.429,0.61-12.229h-2.311c0,0.159-0.009,0.362-0.025,0.61
		c-0.211,4.563-0.886,8.234-2.019,11.011c-0.654,1.593-1.708,3.193-3.157,4.803c-0.371-0.425-0.839-0.813-1.405-1.167
		c1.132-1.078,2.008-2.177,2.627-3.29c1.521-2.777,2.335-6.767,2.439-11.967c-0.688,0.02-1.254,0.063-1.695,0.134v-1.778
		c0.527,0.072,1.112,0.116,1.75,0.134c0.02-0.371,0.025-0.796,0.025-1.272c0.036-0.832,0.054-1.529,0.054-2.097
		c0-1.044-0.062-1.851-0.187-2.415h1.856c-0.106,0.707-0.16,1.565-0.16,2.573C206.753,42.843,206.734,43.914,206.7,45.098z"/>
	<path d="M212.908,47.46l1.033-1.194c1.574,1.008,3.017,2.122,4.326,3.342l-1.14,1.273c-0.691-0.742-1.322-1.35-1.899-1.817
		C214.656,48.597,213.881,48.062,212.908,47.46z M217.154,53.721l1.381,1.115c-1.01,3.06-2.034,5.544-3.078,7.455
		c-0.194,0.371-0.346,0.664-0.451,0.876l-1.512-1.194c0.493-0.531,1.082-1.562,1.765-3.091
		C215.938,57.352,216.569,55.631,217.154,53.721z M214.421,40.8l1.19-1.141c1.451,1.097,2.753,2.255,3.901,3.476l-1.22,1.247
		c-0.745-0.885-1.376-1.565-1.898-2.042C215.875,41.861,215.217,41.349,214.421,40.8z M224.026,41.941h9.578
		c1.682,0,2.829-0.053,3.449-0.159v1.778c-0.548-0.07-1.662-0.105-3.344-0.105h-10.452c-0.973,1.732-2.123,3.343-3.45,4.827
		c-0.354-0.476-0.786-0.883-1.299-1.22c1.61-1.433,2.955-3.37,4.034-5.811c0.406-0.901,0.645-1.662,0.715-2.281l1.855,0.371
		c-0.088,0.195-0.221,0.54-0.396,1.035C224.539,40.854,224.309,41.375,224.026,41.941z M232.516,59.479h-10.56
		c-0.055,0.176-0.123,0.428-0.212,0.756c-0.09,0.326-0.178,0.649-0.266,0.968l-1.805-0.239c0.742-1.963,1.361-4.546,1.854-7.747
		h-0.156c-1.009,0-1.824,0.053-2.44,0.159v-1.805c0.636,0.104,1.484,0.159,2.547,0.159h0.266c0.3-2.37,0.449-3.999,0.449-4.882
		c0-0.212-0.009-0.468-0.024-0.769c0.425,0.034,1.052,0.053,1.884,0.053h8.436c1.046,0,1.965-0.036,2.762-0.106
		c-0.088,0.425-0.166,1.761-0.238,4.006c0,0.071-0.009,0.292-0.026,0.663s-0.034,0.717-0.053,1.035h0.187
		c1.112,0,1.937-0.053,2.468-0.159v1.805c-0.796-0.106-1.618-0.159-2.468-0.159h-0.292c-0.021,0.177-0.036,0.424-0.055,0.743
		c-0.088,1.272-0.229,2.618-0.425,4.033h0.293c0.883,0,1.582-0.054,2.096-0.16v1.751c-0.62-0.072-1.337-0.106-2.149-0.106h-0.479
		c-0.266,1.538-0.593,2.528-0.98,2.971c-0.391,0.442-1.123,0.663-2.202,0.663c-0.513,0-1.485-0.053-2.918-0.158
		c0-0.55-0.098-1.114-0.292-1.698c1.132,0.212,2.114,0.318,2.946,0.318c0.671,0,1.101-0.104,1.285-0.306
		C232.131,61.065,232.32,60.47,232.516,59.479z M227.288,53.217h-4.111c-0.106,0.902-0.398,2.494-0.876,4.776h4.271
		C226.892,56.259,227.13,54.667,227.288,53.217z M223.389,51.731h4.086c0.106-1.097,0.202-2.485,0.292-4.166h-3.979
		C223.682,48.962,223.548,50.352,223.389,51.731z M233.258,53.217h-4.403c-0.177,1.451-0.416,3.042-0.716,4.776h4.645
		C232.976,56.437,233.136,54.845,233.258,53.217z M229.014,51.731h4.353c0.069-1.272,0.112-2.662,0.133-4.166h-4.165
		C229.172,49.76,229.066,51.147,229.014,51.731z"/>
</g>
<circle fill="#666666" stroke="#666666" stroke-width="2" cx="384.04" cy="214.068" r="2.875"/>
<circle fill="#666666" stroke="#666666" stroke-width="2" cx="370.16" cy="244.29" r="2.875"/>
<path fill="#06CE06" d="M380.327,242.339h-0.866c0.344,0.792,0.646,1.425,0.929,1.892c0.282,0.474,0.664,0.994,1.143,1.556
	c-0.196,0.209-0.392,0.507-0.586,0.897c-0.655-0.912-1.191-1.963-1.614-3.145c0.046,1.259,0.063,2.153,0.063,2.688v4.823
	c0,0.823,0.034,1.456,0.103,1.89h-1.189c0.061-0.479,0.098-1.106,0.098-1.89v-4.528c0-0.5,0.028-1.379,0.078-2.625
	c-0.341,1.252-0.714,2.305-1.123,3.162c-0.345,0.703-0.734,1.355-1.171,1.953c-0.165-0.357-0.373-0.683-0.64-0.978
	c0.766-0.932,1.396-2.01,1.896-3.229c0.394-0.996,0.659-1.824,0.816-2.473h-1.042c-0.515,0-0.905,0.021-1.175,0.063v-1.023
	c0.229,0.045,0.619,0.064,1.175,0.064h1.19v-1.547c0-0.814-0.029-1.383-0.083-1.697h1.16c-0.056,0.341-0.082,0.896-0.082,1.682
	v1.563h0.924c0.445,0,0.81-0.021,1.075-0.064v1.01C381.073,242.354,380.717,242.339,380.327,242.339z M381.203,252.146l-0.229-1.205
	c0.123,0.013,0.271,0.018,0.455,0.018c0.24,0,0.6-0.013,1.077-0.035c1.214-3.096,2.016-5.694,2.396-7.802l1.154,0.309
	c-0.847,3.006-1.663,5.471-2.445,7.379c1.766-0.203,3.319-0.438,4.68-0.699c-0.382-0.791-0.969-1.822-1.761-3.096l0.896-0.438
	c0.718,1.151,1.259,2.073,1.626,2.771c0.374,0.69,0.787,1.555,1.238,2.59l-0.995,0.521c-0.313-0.783-0.519-1.27-0.603-1.464
	c-1.469,0.291-2.568,0.493-3.301,0.608c-0.73,0.113-1.819,0.246-3.252,0.396C381.781,252.033,381.464,252.083,381.203,252.146z
	 M383.664,238.67l1.074,0.358c-0.709,2.511-1.63,4.568-2.769,6.176c-0.295-0.291-0.591-0.524-0.898-0.7
	C382.36,242.971,383.224,241.03,383.664,238.67z M386.469,239.029l0.991-0.405c0.327,1.129,0.786,2.227,1.388,3.291
	c0.521,0.936,1.117,1.749,1.796,2.444c-0.271,0.195-0.556,0.469-0.852,0.813C388.49,243.598,387.378,241.547,386.469,239.029z"/>
<path fill="#06CE06" d="M397.907,241.539h1.577c0.25-0.542,0.464-1.127,0.638-1.761H394.7v1.175c0,3.214-0.144,5.649-0.412,7.306
	c-0.271,1.66-0.771,3.11-1.503,4.361c-0.261-0.36-0.533-0.646-0.813-0.865c0.646-1.106,1.096-2.382,1.322-3.827
	c0.234-1.447,0.351-3.628,0.351-6.552c0-1.26-0.025-2.127-0.081-2.604c0.515,0.054,1.168,0.082,1.974,0.082h9.074
	c0.796,0,1.396-0.035,1.812-0.101v1.109c-0.385-0.055-0.974-0.083-1.782-0.083h-3.446c-0.164,0.563-0.383,1.151-0.653,1.761h2.951
	c0.795,0,1.383-0.022,1.758-0.063c-0.05,0.345-0.078,0.873-0.078,1.576v2.901c0,0.705,0.028,1.241,0.078,1.599
	c-0.438-0.043-1.022-0.064-1.741-0.064h-2.332v3.992c0,0.498-0.132,0.824-0.392,0.973c-0.26,0.146-0.847,0.218-1.759,0.218
	c-0.438,0-0.874-0.021-1.319-0.064c-0.044-0.326-0.132-0.682-0.257-1.061c0.685,0.121,1.356,0.18,2.021,0.18
	c0.291,0,0.478-0.021,0.558-0.063c0.081-0.045,0.123-0.144,0.123-0.295v-3.879h-2.251c-0.657,0-1.231,0.021-1.708,0.065
	c0.052-0.435,0.063-0.994,0.063-1.682v-2.734c0-0.642-0.022-1.197-0.063-1.66C396.622,241.516,397.191,241.539,397.907,241.539z
	 M397.323,248.122l0.94,0.439c-0.829,1.474-1.808,2.705-2.952,3.685c-0.193-0.273-0.462-0.515-0.798-0.72
	c0.647-0.532,1.188-1.055,1.606-1.563C396.553,249.45,396.95,248.841,397.323,248.122z M397.24,242.419v1.58h6.938v-1.58H397.24z
	 M397.24,244.861v1.761h6.938v-1.761H397.24z M402.665,248.594l0.861-0.472c0.87,1.295,1.929,2.379,3.18,3.26
	c-0.309,0.228-0.582,0.495-0.832,0.813C404.68,251.23,403.611,250.027,402.665,248.594z"/>
<path fill="#06CE06" d="M411.156,251.382v-2.25c0-0.196-0.013-0.509-0.034-0.946c-0.638,0.219-1.418,0.44-2.349,0.668
	c-0.133-0.367-0.311-0.687-0.535-0.959c2.477-0.437,4.71-1.244,6.696-2.428c-0.77-0.543-1.485-1.168-2.148-1.876
	c-0.467,0.443-0.915,0.821-1.349,1.125c-0.429,0.304-1.021,0.679-1.783,1.124c-0.192-0.3-0.43-0.564-0.696-0.781
	c1.258-0.598,2.323-1.281,3.189-2.055c0.368-0.339,0.728-0.726,1.093-1.156c0.357-0.437,0.612-0.803,0.768-1.111l1.061,0.373
	c-0.109,0.111-0.181,0.188-0.215,0.229c-0.008,0.011-0.04,0.039-0.07,0.093c-0.046,0.047-0.074,0.094-0.104,0.137
	c-0.058,0.063-0.188,0.215-0.394,0.455h3.548c0.632,0,1.123-0.021,1.484-0.063l0.604,0.585c-0.102,0.096-0.195,0.201-0.297,0.311
	c-0.955,0.986-1.954,1.854-2.995,2.604c1.848,1.063,4.023,1.802,6.531,2.22c-0.228,0.381-0.39,0.743-0.489,1.09
	c-0.845-0.207-1.608-0.418-2.296-0.636c-0.021,0.478-0.029,0.81-0.029,0.996v2.246c0,0.478,0.029,0.945,0.093,1.4h-1.122v-0.633
	h-7.15v0.633h-1.108C411.122,252.305,411.156,251.837,411.156,251.382z M415.031,239.682v-0.425c0-0.327-0.03-0.717-0.095-1.174
	h1.256c-0.073,0.381-0.113,0.771-0.113,1.174v0.425h4.561c0.72,0,1.327-0.029,1.828-0.082c-0.045,0.303-0.068,0.68-0.068,1.125
	v0.928c0,0.457,0.028,0.837,0.068,1.143h-1.061v-2.217h-11.488v2.195h-1.042c0.042-0.34,0.063-0.727,0.063-1.138v-0.911
	c0-0.437-0.027-0.81-0.063-1.125c0.485,0.053,1.063,0.082,1.729,0.082H415.031z M412.527,247.909h6.402
	c0.33,0,0.575-0.005,0.749-0.016c-1.392-0.48-2.688-1.101-3.896-1.857c-1.104,0.687-2.391,1.312-3.86,1.873H412.527z
	 M412.167,248.791v2.46h7.15v-2.46H412.167z M413.534,242.857l-0.111,0.113c0.627,0.678,1.407,1.334,2.357,1.975
	c0.742-0.502,1.583-1.195,2.527-2.088H413.534z"/>
<path fill="#06CE06" d="M425.252,251.314v-11.473c0-0.408-0.018-0.822-0.052-1.236c0.243,0.033,0.604,0.051,1.093,0.051h2.232
	c0.446,0,0.776-0.021,0.995-0.067l0.511,0.587c-0.102,0.194-0.184,0.372-0.241,0.521c-0.538,1.338-1.102,2.583-1.701,3.746
	c0.688,0.826,1.134,1.529,1.355,2.104c0.241,0.628,0.354,1.283,0.354,1.956c0,0.887-0.285,1.417-0.862,1.578
	c-0.328,0.092-0.745,0.132-1.274,0.132c-0.18,0-0.372-0.004-0.565-0.017c-0.047-0.369-0.121-0.716-0.24-1.042
	c0.376,0.076,0.729,0.113,1.061,0.113c0.367,0,0.612-0.056,0.728-0.164c0.113-0.104,0.168-0.342,0.168-0.701
	c0-0.781-0.193-1.521-0.586-2.215c-0.22-0.403-0.635-0.939-1.236-1.613c0.718-1.323,1.313-2.664,1.791-4.012h-2.521v11.75
	c0,0.621,0.024,1.129,0.076,1.52h-1.175C425.216,252.386,425.252,251.877,425.252,251.314z M432.341,246.085h-0.781
	c-0.628,0-1.119,0.032-1.485,0.099v-1.076c0.427,0.063,0.921,0.097,1.499,0.097h6.13c0.608,0,1.121-0.032,1.546-0.097v1.076
	c-0.455-0.065-0.974-0.099-1.546-0.099h-1.634v5.114c0,0.178,0.073,0.286,0.223,0.336c0.15,0.05,0.471,0.071,0.971,0.071
	c0.563,0,0.904-0.104,1.015-0.316c0.108-0.209,0.2-0.96,0.276-2.238c0.306,0.196,0.634,0.33,0.979,0.406
	c-0.049,0.521-0.083,0.933-0.123,1.23c-0.041,0.297-0.097,0.582-0.169,0.847c-0.078,0.265-0.153,0.454-0.241,0.563
	c-0.081,0.108-0.213,0.207-0.392,0.293c-0.18,0.086-0.367,0.142-0.563,0.154c-0.193,0.02-0.459,0.022-0.799,0.022
	c-0.716,0-1.219-0.037-1.511-0.112c-0.25-0.063-0.425-0.162-0.524-0.292c-0.1-0.132-0.146-0.333-0.146-0.604v-5.475h-1.71
	c-0.059,1.141-0.183,2.026-0.356,2.654c-0.172,0.633-0.447,1.215-0.825,1.761c-0.675,0.914-1.833,1.689-3.476,2.332
	c-0.246-0.373-0.488-0.659-0.727-0.863c1.025-0.348,1.801-0.696,2.316-1.036c0.521-0.343,0.942-0.791,1.282-1.344
	c0.259-0.426,0.445-0.883,0.552-1.381C432.224,247.718,432.296,247.009,432.341,246.085z M433.776,239.941v-0.652
	c0-0.477-0.034-0.883-0.1-1.221h1.239c-0.063,0.296-0.102,0.705-0.102,1.24v0.633h2.76c0.551,0,1.076-0.025,1.563-0.08
	c-0.037,0.338-0.054,0.687-0.054,1.044v1.073c0,0.399,0.029,0.772,0.071,1.108h-1.06v-2.231h-7.189v2.201h-1.014
	c0.036-0.283,0.051-0.654,0.051-1.108v-1.062c0-0.391-0.02-0.731-0.051-1.027c0.479,0.056,1.056,0.082,1.728,0.082H433.776
	L433.776,239.941z M431.408,243.525v-1.01c0.352,0.045,0.764,0.063,1.241,0.063h3.764c0.451,0,0.855-0.02,1.205-0.063v1.01
	c-0.381-0.043-0.781-0.063-1.205-0.063h-3.78C432.156,243.461,431.744,243.482,431.408,243.525z"/>
<path fill="#06CE06" d="M381.311,223.879l-0.146-1.109c0.09,0,0.224,0.002,0.399,0.008c0.184,0.006,0.287,0.006,0.322,0.006
	c0.06,0,0.252-0.006,0.57-0.018c0.192-0.302,0.437-0.729,0.72-1.271c0.438-0.873,0.741-1.604,0.899-2.204l1.14,0.328
	c-0.108,0.165-0.219,0.374-0.328,0.637c-0.087,0.196-0.283,0.572-0.587,1.136c-0.306,0.56-0.563,1-0.766,1.329
	c1.271-0.086,2.411-0.196,3.424-0.327c-0.313-0.556-0.655-1.086-1.022-1.604l0.77-0.394c0.674,0.883,1.375,1.979,2.101,3.285
	l-0.865,0.504c-0.184-0.391-0.346-0.719-0.505-0.979c-1.582,0.259-3.298,0.444-5.154,0.555
	C381.784,223.809,381.466,223.848,381.311,223.879z M382.259,232.525v-6.396c0-0.605-0.022-1.105-0.064-1.499
	c0.36,0.042,0.798,0.063,1.32,0.063h2.854c0.622,0,1.118-0.021,1.504-0.063c-0.033,0.313-0.053,0.679-0.053,1.095v6.936
	c0,0.521-0.112,0.851-0.347,0.996c-0.235,0.142-0.786,0.21-1.657,0.21c-0.193,0-0.36-0.007-0.509-0.015
	c-0.041-0.359-0.123-0.699-0.241-1.016c0.413,0.055,0.828,0.081,1.256,0.081c0.222,0,0.359-0.026,0.435-0.073
	c0.066-0.05,0.107-0.146,0.107-0.287v-2.104h-3.604v2.04c0,0.736,0.028,1.293,0.077,1.662h-1.162
	C382.236,233.788,382.259,233.246,382.259,232.525z M383.255,225.591v1.535h3.605v-1.535H383.255z M383.255,227.991v1.603h3.605
	v-1.603H383.255z M390.368,220.991v1.092c0.817-0.229,1.619-0.534,2.417-0.913c0.791-0.382,1.43-0.771,1.906-1.161l0.719,0.865
	c-0.172,0.086-0.479,0.25-0.914,0.492c-1.143,0.642-2.519,1.201-4.128,1.68v1.468c0,0.23,0.096,0.371,0.285,0.426
	c0.188,0.054,0.671,0.084,1.441,0.084c1.285,0,2.014-0.061,2.2-0.184c0.132-0.076,0.228-0.25,0.276-0.531
	c0.052-0.275,0.098-0.781,0.135-1.509c0.294,0.179,0.611,0.312,0.964,0.41c-0.114,1.238-0.292,2.013-0.542,2.316
	c-0.142,0.175-0.414,0.287-0.824,0.343c-0.409,0.055-1.138,0.083-2.194,0.083c-1.161,0-1.906-0.068-2.244-0.203
	c-0.332-0.135-0.494-0.438-0.494-0.903v-3.853c0-0.523-0.032-0.997-0.098-1.421h1.188
	C390.405,219.877,390.368,220.346,390.368,220.991z M390.368,228.383v0.865c1.766-0.446,3.228-1.125,4.394-2.04l0.765,0.847
	c-0.945,0.536-1.795,0.967-2.544,1.293c-0.798,0.324-1.668,0.62-2.612,0.879v1.942c0,0.162,0.039,0.281,0.105,0.353
	c0.07,0.069,0.211,0.119,0.415,0.153c0.307,0.052,0.829,0.082,1.571,0.082c1.15,0,1.827-0.121,2.021-0.356
	c0.173-0.229,0.287-0.934,0.342-2.107c0.313,0.188,0.644,0.328,0.979,0.426c-0.063,0.772-0.148,1.347-0.25,1.72
	c-0.105,0.377-0.25,0.655-0.445,0.843c-0.179,0.174-0.44,0.286-0.812,0.342c-0.363,0.055-0.997,0.082-1.897,0.082
	c-1.298,0-2.127-0.082-2.496-0.245c-0.347-0.143-0.521-0.456-0.521-0.948v-4.078c0-0.697-0.031-1.186-0.082-1.467h1.156
	C390.4,227.244,390.368,227.718,390.368,228.383z"/>
<path fill="#06CE06" d="M410.589,221.691l0.847,0.621c-0.148,0.162-0.396,0.437-0.731,0.815c-0.425,0.47-0.875,0.91-1.354,1.32
	c0.871,0.588,1.881,1.088,3.021,1.503c-0.229,0.251-0.434,0.56-0.604,0.929c-1.002-0.436-1.848-0.878-2.544-1.338
	c-0.698-0.455-1.407-1.026-2.143-1.712c-0.934-0.894-1.696-1.876-2.301-2.955c-0.705,1.155-1.557,2.194-2.563,3.119
	c-1.206,1.143-2.663,2.126-4.37,2.952c-0.165-0.326-0.369-0.616-0.619-0.862c1.435-0.633,2.681-1.382,3.733-2.254
	c-0.804-0.773-1.601-1.437-2.377-1.99l0.716-0.652c0.836,0.629,1.633,1.305,2.385,2.022c0.814-0.774,1.488-1.584,2.021-2.432h-2.969
	c-0.22,0-0.574,0.027-1.062,0.08v-1.026c0.282,0.055,0.675,0.082,1.175,0.082h3.081c0.634,0,1.121-0.023,1.454-0.066
	c0.106,0.621,0.552,1.377,1.318,2.271c0.773-0.766,1.337-1.473,1.698-2.122l0.844,0.602c-0.814,0.938-1.477,1.645-1.989,2.122
	c0.444,0.446,0.912,0.86,1.39,1.243C409.582,223.068,410.229,222.313,410.589,221.691z M399.233,232.741h3.15
	c-0.259-0.61-0.584-1.208-0.96-1.797l0.96-0.346c0.378,0.678,0.731,1.39,1.042,2.143h2.824c0.444-0.721,0.813-1.457,1.097-2.221
	l0.961,0.438c-0.405,0.772-0.745,1.367-1.029,1.78h3.201c0.614,0,1.146-0.031,1.604-0.1v1.129c-0.456-0.068-1.003-0.102-1.631-0.102
	h-11.182c-0.6,0-1.138,0.031-1.615,0.102v-1.129C398.017,232.708,398.546,232.741,399.233,232.741z M408.253,230.359h-6.886
	c-0.455,0-0.873,0.014-1.258,0.045c0.051-0.356,0.064-0.721,0.064-1.094v-1.744c0-0.383-0.021-0.746-0.064-1.094
	c0.385,0.043,0.819,0.064,1.313,0.064h6.819c0.527,0,0.955-0.021,1.313-0.064c-0.05,0.315-0.069,0.68-0.069,1.094v1.744
	c0,0.469,0.022,0.834,0.069,1.094C409.155,230.373,408.722,230.359,408.253,230.359z M401.19,227.436v2.039h7.277v-2.039H401.19z
	 M401.987,225.428V224.4c0.308,0.055,0.729,0.08,1.29,0.08h3.118c0.563,0,0.993-0.025,1.271-0.08v1.027
	c-0.314-0.053-0.742-0.083-1.289-0.083h-3.063C402.712,225.345,402.269,225.375,401.987,225.428z"/>
<path fill="#06CE06" d="M416.613,232.708v-2.254c0-0.196-0.015-0.512-0.036-0.947c-0.638,0.218-1.421,0.44-2.352,0.669
	c-0.129-0.367-0.309-0.688-0.536-0.961c2.481-0.437,4.717-1.247,6.708-2.431c-0.771-0.545-1.487-1.171-2.152-1.878
	c-0.467,0.444-0.917,0.821-1.35,1.128c-0.429,0.305-1.022,0.679-1.784,1.125c-0.194-0.303-0.435-0.565-0.7-0.784
	c1.261-0.599,2.325-1.282,3.194-2.058c0.369-0.338,0.729-0.727,1.093-1.158c0.359-0.438,0.614-0.805,0.771-1.11l1.062,0.373
	c-0.107,0.109-0.182,0.188-0.214,0.229c-0.01,0.01-0.041,0.039-0.073,0.093c-0.046,0.048-0.071,0.096-0.104,0.139
	c-0.054,0.063-0.188,0.215-0.392,0.455h3.553c0.633,0,1.125-0.023,1.487-0.064l0.604,0.588c-0.1,0.097-0.195,0.201-0.296,0.311
	c-0.956,0.988-1.958,1.855-3,2.608c1.848,1.064,4.028,1.807,6.544,2.224c-0.229,0.382-0.393,0.743-0.493,1.093
	c-0.847-0.211-1.611-0.419-2.3-0.637c-0.022,0.479-0.031,0.811-0.031,0.997v2.25c0,0.478,0.031,0.945,0.097,1.404h-1.125v-0.635
	h-7.161v0.635h-1.11C416.575,233.633,416.613,233.164,416.613,232.708z M420.492,220.991v-0.428c0-0.325-0.032-0.717-0.097-1.174
	h1.257c-0.071,0.383-0.113,0.774-0.113,1.174v0.428h4.566c0.718,0,1.329-0.03,1.83-0.082c-0.046,0.302-0.068,0.681-0.068,1.126
	v0.929c0,0.458,0.027,0.837,0.068,1.144h-1.063v-2.221h-11.507v2.202h-1.044c0.042-0.34,0.064-0.729,0.064-1.142v-0.912
	c0-0.438-0.027-0.812-0.064-1.126c0.488,0.052,1.066,0.082,1.731,0.082H420.492z M417.984,229.23h6.41
	c0.333,0,0.578-0.006,0.751-0.016c-1.393-0.482-2.688-1.102-3.899-1.861c-1.107,0.688-2.396,1.313-3.866,1.875h0.604V229.23z
	 M417.624,230.113v2.465h7.16v-2.465H417.624z M418.994,224.171l-0.113,0.114c0.628,0.678,1.41,1.334,2.363,1.977
	c0.739-0.501,1.583-1.197,2.528-2.09L418.994,224.171L418.994,224.171z"/>
<path fill="#06CE06" d="M430.728,232.641v-11.488c0-0.409-0.02-0.823-0.05-1.237c0.241,0.03,0.604,0.05,1.091,0.05h2.237
	c0.444,0,0.776-0.022,0.997-0.069l0.51,0.588c-0.102,0.195-0.182,0.373-0.241,0.523c-0.538,1.339-1.103,2.586-1.703,3.752
	c0.688,0.827,1.133,1.53,1.357,2.108c0.241,0.628,0.354,1.281,0.354,1.958c0,0.889-0.287,1.418-0.864,1.579
	c-0.326,0.093-0.744,0.134-1.274,0.134c-0.183,0-0.373-0.006-0.569-0.017c-0.044-0.373-0.122-0.719-0.238-1.047
	c0.378,0.079,0.732,0.114,1.063,0.114c0.367,0,0.613-0.055,0.729-0.163c0.112-0.105,0.168-0.342,0.168-0.701
	c0-0.783-0.193-1.521-0.587-2.219c-0.22-0.404-0.634-0.941-1.238-1.615c0.72-1.326,1.313-2.668,1.794-4.017h-2.526v11.767
	c0,0.621,0.027,1.129,0.076,1.521h-1.174C430.692,233.714,430.728,233.205,430.728,232.641z M437.826,227.404h-0.782
	c-0.629,0-1.121,0.031-1.488,0.099v-1.077c0.427,0.063,0.924,0.097,1.503,0.097h6.136c0.611,0,1.125-0.031,1.549-0.097v1.077
	c-0.454-0.066-0.975-0.099-1.549-0.099h-1.635v5.123c0,0.179,0.073,0.287,0.224,0.336c0.152,0.052,0.472,0.072,0.973,0.072
	c0.563,0,0.904-0.104,1.015-0.317c0.11-0.209,0.2-0.96,0.277-2.24c0.307,0.195,0.635,0.33,0.979,0.403
	c-0.046,0.523-0.083,0.935-0.123,1.234c-0.041,0.297-0.096,0.582-0.174,0.846c-0.073,0.267-0.148,0.457-0.237,0.563
	c-0.08,0.109-0.213,0.207-0.391,0.293c-0.178,0.087-0.369,0.142-0.564,0.154c-0.194,0.019-0.46,0.021-0.802,0.021
	c-0.715,0-1.22-0.037-1.512-0.113c-0.25-0.063-0.428-0.161-0.527-0.292c-0.096-0.132-0.146-0.334-0.146-0.604v-5.482h-1.711
	c-0.063,1.145-0.184,2.031-0.355,2.66c-0.174,0.633-0.451,1.215-0.83,1.763c-0.673,0.915-1.835,1.692-3.478,2.335
	c-0.246-0.373-0.493-0.66-0.729-0.865c1.029-0.35,1.804-0.696,2.321-1.038c0.521-0.342,0.942-0.792,1.285-1.346
	c0.26-0.427,0.445-0.886,0.552-1.384C437.708,229.039,437.781,228.328,437.826,227.404z M439.263,221.252v-0.656
	c0-0.475-0.033-0.883-0.098-1.22h1.237c-0.063,0.296-0.101,0.705-0.101,1.241v0.635h2.764c0.551,0,1.08-0.027,1.566-0.083
	c-0.037,0.339-0.046,0.688-0.046,1.048v1.074c0,0.399,0.021,0.774,0.063,1.11h-1.06v-2.235h-7.201v2.205h-1.016
	c0.035-0.282,0.052-0.654,0.052-1.111v-1.063c0-0.392-0.021-0.732-0.052-1.028c0.482,0.056,1.058,0.083,1.729,0.083H439.263
	L439.263,221.252z M436.893,224.84v-1.011c0.351,0.045,0.766,0.063,1.243,0.063h3.771c0.454,0,0.855-0.019,1.206-0.063v1.011
	c-0.382-0.043-0.782-0.064-1.206-0.064h-3.789C437.64,224.775,437.229,224.797,436.893,224.84z"/>
<g>
	<path d="M187.836,235.441h-2.728c-0.936,0-1.661,0.054-2.17,0.159v-1.748c0.494,0.106,1.235,0.159,2.225,0.159h3.229v-1.403
		c0-0.371-0.044-0.733-0.133-1.086h1.774c-0.07,0.283-0.106,0.646-0.106,1.086v1.403h2.912c0.883,0,1.598-0.053,2.145-0.159v1.721
		c-0.513-0.087-1.227-0.132-2.145-0.132h-2.517c0.513,0.707,1.017,1.285,1.511,1.735s1.234,0.992,2.225,1.626
		c-0.318,0.371-0.627,0.848-0.927,1.43c-0.864-0.723-1.505-1.314-1.918-1.773c-0.415-0.459-0.879-1.085-1.392-1.879
		c0.036,0.439,0.072,1.218,0.106,2.328v3.84c0,0.917,0.044,1.677,0.132,2.276h-1.825c0.106-0.688,0.158-1.449,0.158-2.276v-3.76
		c0-0.6,0.028-1.332,0.082-2.196c-1.022,2.134-2.691,4.094-5.003,5.875c-0.265-0.563-0.6-1.06-1.006-1.482
		c1.34-0.883,2.488-1.853,3.44-2.912C186.592,237.479,187.235,236.536,187.836,235.441z M185.083,229.537h4.737
		c0.83-1.411,1.422-2.859,1.773-4.342l1.589,0.504c-0.653,1.625-1.252,2.902-1.801,3.838h1.563c0.917,0,1.634-0.044,2.146-0.134
		v1.774c-0.548-0.088-1.263-0.132-2.146-0.132h-7.862c-0.953,0-1.686,0.044-2.198,0.132v-1.774
		C183.362,229.493,184.095,229.537,185.083,229.537z M190.059,223.448h2.463c0.953,0,1.694-0.043,2.226-0.132v1.774
		c-0.604-0.087-1.352-0.132-2.252-0.132h-6.776c-0.954,0-1.721,0.045-2.303,0.132v-1.774c0.512,0.089,1.29,0.132,2.329,0.132h2.646
		v-0.714c0-0.742-0.044-1.357-0.132-1.854h1.933c-0.089,0.459-0.133,1.076-0.133,1.854L190.059,223.448L190.059,223.448z
		 M187.861,228.795l-1.402,0.504c-0.39-1.307-0.892-2.489-1.51-3.547l1.402-0.529C186.953,226.3,187.458,227.491,187.861,228.795z
		 M197.869,229.352h6.725c1.005,0,1.817-0.053,2.435-0.159v1.827c-0.546-0.087-1.322-0.132-2.328-0.132h-0.98v11.542
		c0,1.234,0.053,2.117,0.159,2.647h-2.039c0.105-0.688,0.159-1.571,0.159-2.647v-11.542h-4.156v1.032
		c-0.036,3.795-0.539,6.962-1.51,9.504c-0.494,1.324-1.147,2.532-1.958,3.627c-0.514-0.478-1.016-0.848-1.509-1.112
		c1.27-1.57,2.144-3.473,2.619-5.705c0.479-2.233,0.716-5.554,0.716-9.967c0-2.417-0.045-4.05-0.133-4.896h0.316
		c1.625,0,3.717-0.406,6.275-1.219c1.059-0.353,1.87-0.73,2.435-1.138l1.351,1.483c-0.245,0.088-0.563,0.211-0.95,0.37
		c-1.942,0.796-4.484,1.448-7.625,1.959L197.869,229.352L197.869,229.352z"/>
	<path d="M209.729,237.373l-0.159-1.694c0.302,0.053,0.751,0.08,1.354,0.08h0.847c0.83-0.813,1.431-1.412,1.8-1.801
		c-1.254-1.517-2.426-2.683-3.521-3.494l0.954-1.112c0.333,0.3,0.774,0.705,1.324,1.218c0.935-1.095,1.624-2.136,2.064-3.124
		l1.403,0.82c-0.035,0.036-0.149,0.187-0.345,0.45c-0.194,0.265-0.414,0.556-0.661,0.874c-0.548,0.777-1.051,1.421-1.51,1.933
		c0.425,0.459,0.839,0.928,1.244,1.403c1.448-1.641,2.399-2.912,2.859-3.813l1.43,0.979c-0.3,0.3-0.759,0.821-1.376,1.562
		c-1.094,1.308-2.355,2.647-3.786,4.024c1.412-0.087,2.765-0.212,4.053-0.37c-0.231-0.494-0.539-1.042-0.928-1.642l1.165-0.503
		c0.671,1.022,1.324,2.33,1.958,3.918l-1.218,0.635c-0.228-0.635-0.38-1.032-0.45-1.191c-1.111,0.141-1.967,0.247-2.565,0.317v5.454
		c0,1.165,0.053,2.029,0.158,2.594h-1.854c0.106-0.635,0.159-1.5,0.159-2.594v-5.321c-0.812,0.071-1.863,0.149-3.15,0.238
		C210.39,237.267,209.976,237.32,209.729,237.373z M211.343,238.273l1.43,0.371c-0.229,1.201-0.468,2.176-0.714,2.925
		c-0.248,0.751-0.61,1.576-1.086,2.477l-1.404-0.715c0.513-0.848,0.893-1.623,1.139-2.329S211.167,239.385,211.343,238.273z
		 M231.728,223.74v1.747c0,0.726,0.034,1.342,0.106,1.853c-0.688-0.053-1.643-0.079-2.859-0.079h-15.54
		c-1.27,0-2.223,0.026-2.858,0.079c0.07-0.547,0.105-1.165,0.105-1.853v-1.747c0-0.705-0.035-1.341-0.105-1.905
		c0.583,0.068,1.571,0.104,2.965,0.104h15.328c1.411,0,2.4-0.036,2.965-0.104C231.761,222.382,231.728,223.017,231.728,223.74z
		 M217.087,225.963v-2.673h-4.819v2.673H217.087z M216.744,238.512l1.243-0.53c0.653,1.253,1.271,2.772,1.854,4.555l-1.35,0.688
		C218.016,241.441,217.433,239.871,216.744,238.512z M223.522,225.963v-2.673h-4.925v2.673H223.522z M227.889,239.703v2.646h2.995
		c0.968,0,1.638-0.036,2.011-0.105v1.614c-0.581-0.089-1.26-0.132-2.036-0.132h-8.291v1.271h-1.692
		c0.124-0.761,0.186-1.659,0.186-2.7v-6.83c0-0.105,0.034-0.917,0.106-2.437c-0.478,0.672-0.954,1.254-1.431,1.747
		c-0.229-0.405-0.548-0.774-0.953-1.111c0.917-0.794,1.742-1.734,2.474-2.819c0.734-1.086,1.258-2.147,1.576-3.189l1.509,0.477
		c-0.053,0.087-0.132,0.238-0.238,0.45c-0.036,0.053-0.097,0.168-0.186,0.344c-0.406,0.759-0.769,1.36-1.085,1.801h3.626
		c0.706-0.989,1.253-1.977,1.642-2.966l1.404,0.529c-0.053,0.089-0.179,0.309-0.371,0.662c-0.317,0.564-0.705,1.156-1.165,1.772
		h2.594c0.936,0,1.615-0.035,2.039-0.104v1.562c-0.441-0.069-1.111-0.104-2.011-0.104h-2.702v2.462h2.04
		c0.988,0,1.657-0.035,2.012-0.106v1.508c-0.424-0.069-1.094-0.105-2.012-0.105h-2.04v2.567h1.985c1.042,0,1.729-0.034,2.065-0.104
		v1.508c-0.371-0.07-1.06-0.104-2.065-0.104L227.889,239.703L227.889,239.703z M222.542,234.541h3.917v-2.462h-3.917V234.541z
		 M222.542,235.837v2.567h3.917v-2.567H222.542z M222.542,239.703v2.646h3.917v-2.646H222.542z M225.029,225.963h5.107v-2.673
		h-5.107V225.963z"/>
</g>
</svg>
