<?xml version="1.0" encoding="utf-8"?>
<!-- Generator: Adobe Illustrator 16.0.3, SVG Export Plug-In . SVG Version: 6.00 Build 0)  -->
<!DOCTYPE svg PUBLIC "-//W3C//DTD SVG 1.1//EN" "http://www.w3.org/Graphics/SVG/1.1/DTD/svg11.dtd">
<svg version="1.1" id="レイヤー_1" xmlns="http://www.w3.org/2000/svg" xmlns:xlink="http://www.w3.org/1999/xlink" x="0px"
	 y="0px" width="149.898px" height="75.535px" viewBox="0 0 149.898 75.535" enable-background="new 0 0 149.898 75.535"
	 xml:space="preserve">
<path fill="#FFFFFF" d="M24.44,22.607c0-3.8-2.964-6.827-6.698-6.827c-3.931,0-7.022,3.027-6.956,6.827
	c0,3.735,3.092,6.828,6.825,6.765C21.477,29.371,24.44,26.408,24.44,22.607"/>
<path d="M33.845,14.042c0.709,0.515,1.029,1.287,0.965,2.189c-0.257,3.864-1.546,7.473-3.415,10.887
	c-1.416,2.512-3.221,4.766-5.345,6.699c-0.452,0.45-0.581,0.901-0.581,1.545c0.065,11.916,0.065,23.962,0.065,35.881
	c0,0.644,0,1.226-0.193,1.804c-0.386,1.609-2.063,2.643-3.734,2.387c-1.678-0.258-2.837-1.611-2.837-3.352c0-4.703,0-9.408,0-14.174
	c0-0.84,0-1.61,0-2.514c-0.835,0-1.479,0-2.315,0c0,0.387,0,0.709,0,1.03c0,5.154,0.063,10.306,0,15.462
	c0,2.125-1.355,3.607-3.351,3.607c-1.935,0-3.415-1.482-3.415-3.479c0-10.568,0-21.133,0-31.631c0-0.258,0-0.645,0-0.902
	l-0.193-0.129c-0.708,1.225-1.481,2.385-2.125,3.674c-1.226,2.382-1.866,4.896-2.254,7.535c-0.323,1.61-1.417,2.578-2.9,2.319
	c-1.48-0.128-2.383-1.353-2.188-2.963c1.159-7.407,4.381-13.72,10.309-18.616c1.353-1.095,2.834-1.61,4.573-1.545
	c2.513,0.128,5.024,0.193,7.536,0.258c0.194,0,0.516-0.13,0.579-0.323c3.735-3.735,6.12-8.117,6.699-13.464
	c0.128-1.223,0.58-2.188,1.676-2.64C31.396,13.589,32.749,13.075,33.845,14.042"/>
<path d="M24.44,22.607c0,3.801-2.964,6.765-6.829,6.765c-3.734,0.064-6.825-3.028-6.825-6.765c-0.066-3.8,3.025-6.827,6.956-6.827
	C21.477,15.78,24.44,18.808,24.44,22.607"/>
<path fill="#FFFFFF" d="M132.334,29.499c3.672,0,6.763-3.027,6.763-6.826c0.065-3.8-3.091-6.827-6.893-6.827
	c-3.801,0-6.764,3.027-6.699,6.827C125.504,26.472,128.469,29.499,132.334,29.499"/>
<path d="M116.037,14.042c-0.709,0.579-0.967,1.415-0.967,2.316c0.322,3.867,1.546,7.408,3.479,10.822
	c1.418,2.514,3.155,4.768,5.282,6.765c0.45,0.385,0.645,0.836,0.645,1.482c-0.063,11.979-0.063,23.959-0.128,35.879
	c0,0.646,0.065,1.225,0.195,1.805c0.451,1.611,2.125,2.643,3.8,2.385c1.61-0.258,2.835-1.609,2.835-3.352c0-4.703,0-9.406,0-14.172
	c0-0.773,0-1.609,0-2.576c0.771,0,1.48,0,2.255,0c0,0.451,0,0.771,0,1.096c0,5.154,0,10.309,0,15.462
	c0,2.062,1.417,3.546,3.416,3.546c1.931,0,3.348-1.42,3.348-3.48c0-10.5,0-21.002,0-31.564c0-0.258,0-0.579,0-0.902
	c0.066-0.064,0.129-0.064,0.259-0.127c0.645,1.287,1.479,2.383,2.125,3.672c1.158,2.383,1.867,4.896,2.254,7.536
	c0.322,1.61,1.418,2.576,2.899,2.384c1.417-0.192,2.385-1.353,2.124-2.963c-1.095-7.473-4.314-13.849-10.239-18.68
	c-1.354-1.032-2.897-1.61-4.639-1.547c-2.513,0.129-5.023,0.195-7.537,0.257c-0.194,0-0.449-0.128-0.58-0.257
	c-3.672-3.8-6.118-8.18-6.696-13.527c-0.065-1.223-0.517-2.189-1.61-2.64C118.549,13.654,117.132,13.203,116.037,14.042"/>
<path d="M125.504,22.673c0,3.799,2.965,6.826,6.829,6.826c3.672,0,6.762-3.027,6.762-6.826c0.066-3.8-3.09-6.827-6.892-6.827
	C128.404,15.846,125.441,18.873,125.504,22.673"/>
<path d="M28.048,0h-0.129c-0.129,0.063-0.258,0.193-0.258,0.385c0,0.065,0.129,0.065,0.129,0.193l0.063,0.193
	c-0.128,0.065-0.256-0.193-0.385-0.128c-0.129,0-0.129,0.193-0.194,0.258c-0.064,0.063-0.192,0.128-0.257,0.258L26.89,1.287
	L26.824,1.48c-0.128,0.192-0.258,0.323-0.386,0.45c-0.129,0.13-0.322,0.193-0.386,0.386l-0.065,0.195
	c0.065,0.063,0.387,0.063,0.322,0.193c-0.129,0.193-0.387-0.193-0.58-0.065c-0.129,0.065-0.129,0.193-0.192,0.323
	c-0.065,0.063-0.195,0.193-0.323,0.321c-0.127,0.13-0.257,0.193-0.385,0.322c-0.195,0.128-0.387,0.258-0.517,0.386v0.193
	l-0.128,0.13l0.065,0.128c0.258,0.065,0.58,0.065,0.773,0.13c0.387,0.128,0.707,0.321,1.096,0.321
	c-0.578,0.13-0.578,0.13-0.578,0.13C24.574,5.15,24.574,5.15,24.574,5.15C22.77,5.473,22.77,5.473,22.77,5.473
	c-1.096,0.128-1.096,0.128-1.096,0.128c-1.61,0.258-1.61,0.258-1.61,0.258C18.52,5.987,18.52,5.987,18.52,5.987
	c-1.03,0.195-1.03,0.195-1.03,0.195c-0.129,0.063-0.129,0.063-0.129,0.063c-0.387-0.128-0.387-0.128-0.387-0.128
	c-0.193-0.065-0.386-0.13-0.578-0.13c-0.13-0.063-0.323-0.128-0.451-0.193c-0.13-0.063-0.258-0.063-0.451-0.128
	c-0.322,0-0.322,0-0.322,0c-0.45,0.065-0.45,0.065-0.45,0.065c-0.323,0.193-0.323,0.193-0.323,0.193
	C14.271,6.12,14.271,6.12,14.271,6.12c0,0.193,0,0.193,0,0.193c0.193,0.065,0.193,0.065,0.193,0.065
	c0.129,0.063,0.258,0.063,0.323,0.128c0.064,0,0.256,0,0.385,0c0.129,0.065,0.129,0.13,0.193,0.193
	c-0.451,0.065-0.451,0.065-0.451,0.065c-0.386,0-0.386,0-0.386,0c-0.837,0.065-0.837,0.065-0.837,0.065c-0.515,0-0.515,0-0.515,0
	c-0.645-0.13-0.645-0.13-0.645-0.13c-0.517-0.128-0.517-0.128-0.517-0.128c-0.578-0.13-0.578-0.13-0.578-0.13
	c-0.515-0.256-0.515-0.256-0.515-0.256c-0.837-0.646-0.837-0.646-0.837-0.646c-0.9-0.448-0.9-0.448-0.9-0.448
	c-1.03-0.515-1.03-0.515-1.03-0.515C6.996,4.188,6.996,4.188,6.996,4.188C6.03,3.995,6.03,3.995,6.03,3.995
	c-0.449,0-0.449,0-0.449,0C5.386,4.126,5.386,4.126,5.386,4.126c0,0.385,0,0.385,0,0.385C5.45,4.639,5.45,4.639,5.45,4.639
	C5.322,5.026,5.322,5.026,5.322,5.026C5.388,5.54,5.388,5.54,5.388,5.54c0,0.451,0,0.451,0,0.451
	c0.065,0.323,0.065,0.323,0.065,0.323c0.193,0.128,0.193,0.128,0.193,0.128C5.453,6.508,5.453,6.508,5.453,6.508
	C5.388,6.831,5.388,6.831,5.388,6.831c0.193,0.451,0.193,0.451,0.193,0.451c0.065,0.32,0.065,0.32,0.065,0.32
	C5.712,7.86,5.712,7.86,5.712,7.86c0.323,0.193,0.323,0.193,0.323,0.193c-0.131,0.13-0.131,0.13-0.131,0.13
	c0.131,0.321,0.131,0.321,0.131,0.321c0,0.323,0,0.323,0,0.323C5.649,9.859,5.649,9.859,5.649,9.859
	c0.065,0.128,0.065,0.128,0.065,0.128c0.321,0.128,0.321,0.128,0.321,0.128C5.52,10.31,5.52,10.31,5.52,10.31
	c-0.194,0.386-0.194,0.386-0.194,0.386C5.2,11.081,5.2,11.081,5.2,11.081c-0.067,0.451-0.067,0.451-0.067,0.451
	c0,0.258,0,0.258,0,0.258c-0.127,0.385-0.127,0.385-0.127,0.385c-0.13,0.323-0.13,0.323-0.13,0.323
	c1.031-0.065,1.031-0.065,1.031-0.065c1.354-0.193,1.354-0.193,1.354-0.193c1.286-0.32,1.286-0.32,1.286-0.32
	c0.839-0.323,0.839-0.323,0.839-0.323c0.836-0.258,0.836-0.258,0.836-0.258c1.031-0.258,1.031-0.258,1.031-0.258h0.063
	c0.709-0.258,0.709-0.258,0.709-0.258h-0.063c0.322-0.063,0.322-0.063,0.322-0.063c0.966-0.13,0.966-0.13,0.966-0.13
	c1.156,0.065,1.156,0.065,1.156,0.065c0.968,0.128,0.968,0.128,0.968,0.128c0.9,0.323,0.9,0.323,0.9,0.323
	c-0.063-0.065-0.192-0.065-0.32-0.065c-0.258,0.13-0.258,0.13-0.258,0.13s-0.193,0.063-0.322,0.063
	c-0.064,0.065-0.064,0.065-0.193,0.065h-0.258c-0.064-0.065-0.128,0-0.128,0.13c-0.13,0.063,0,0.193,0,0.321
	c-0.065,0.193,0,0.323-0.065,0.581c0,0.192,0,0.32,0.065,0.514c0,0.195,0,0.323,0,0.516c0.064,0.193,0.128,0.258,0.192,0.45
	c0.065,0.193,0.128,0.386,0.194,0.581c0,0.128,0,0.193,0.064,0.256l0.065,0.13c0,0.128-0.129,0.065,0.064,0.258l0.13,0.065
	l0.128,0.128c0.129,0,0.193,0,0.193,0c0.13,0,0.322-0.066,0.322-0.066c0.578-0.192,0.578-0.192,0.578-0.192
	c0.581-0.258,0.581-0.258,0.581-0.258c0.646-0.321,0.646-0.321,0.646-0.321c0.645-0.323,0.645-0.323,0.645-0.323
	c0.515-0.258,0.515-0.258,0.515-0.258c0.708-0.385,0.708-0.385,0.708-0.385c0.516-0.323,0.516-0.323,0.516-0.323
	c0.386-0.193,0.386-0.193,0.386-0.193c0.386-0.258,0.386-0.258,0.386-0.258c0.386-0.065,0.386-0.065,0.386-0.065
	c0.838-0.063,0.838-0.063,0.838-0.063c1.804,0.193,1.804,0.193,1.804,0.193c1.417,0.193,1.417,0.193,1.417,0.193
	c1.286,0.13,1.286,0.13,1.286,0.13c0.258,0.063,0.258,0.063,0.258,0.063l-0.063,0.065c-0.258,0.128-0.258,0.128-0.258,0.128
	C26.71,13.53,26.71,13.53,26.71,13.53c-0.065,0.128-0.065,0.128-0.065,0.128c0,0.708,0,0.708,0,0.708c-0.13,0-0.13,0-0.13,0
	c0,0.451,0,0.451,0,0.451c-0.063,0.385-0.063,0.385-0.063,0.385c-0.194,0.388-0.194,0.388-0.194,0.388c0,0.515,0,0.515,0,0.515
	c0.128,0.13,0.128,0.13,0.128,0.13c0.13,0.193,0.13,0.193,0.13,0.193c0.127,0.065,0.127,0.065,0.127,0.065
	c0.193-0.065,0.193-0.065,0.193-0.065c0.646-0.451,0.646-0.451,0.646-0.451c1.354-1.289,1.354-1.289,1.354-1.289
	c0.192-0.128,0.192-0.128,0.192-0.128c0.131,0.128,0.131,0.128,0.131,0.128c0.064,0.258,0.064,0.258,0.064,0.258
	c0.129,0.13,0.129,0.13,0.129,0.13c0.257,0,0.257,0,0.257,0c0.065-0.13,0.065-0.13,0.065-0.13c0.258-0.258,0.258-0.258,0.258-0.258
	c0.193-0.256,0.193-0.256,0.193-0.256c0.129-0.195,0.129-0.195,0.129-0.195c0.192-0.255,0.192-0.255,0.192-0.255
	c0.258-0.388,0.258-0.388,0.258-0.388c0.901,0,0.901,0,0.901,0c2.063,0,2.063,0,2.063,0c1.609-0.128,1.609-0.128,1.609-0.128
	c1.805-0.258,1.805-0.258,1.805-0.258c1.354-0.13,1.354-0.13,1.354-0.13l0.064-0.063c0,0.579,0,0.579,0,0.579
	c0,0.644,0,0.644,0,0.644c0.064,0.388,0.064,0.388,0.064,0.388c0.127,0.258,0.127,0.258,0.127,0.258
	c0.196,0.193,0.196,0.193,0.196,0.193c0.128,0,0.128,0,0.128,0c0.257-0.13,0.257-0.13,0.257-0.13
	c0.451-0.515,0.451-0.515,0.451-0.515c0.646-0.838,0.646-0.838,0.646-0.838c0.771-1.03,0.771-1.03,0.771-1.03
	c0.13-0.193,0.13-0.193,0.13-0.193c0.516-0.129,0.516-0.129,0.516-0.129c1.867-0.386,1.867-0.386,1.867-0.386
	c0.578-0.193,0.578-0.193,0.578-0.193c0.709-0.13,0.709-0.13,0.709-0.13c0.45,0,0.45,0,0.45,0c0.646-0.258,0.646-0.258,0.646-0.258
	c0.901-0.193,0.901-0.193,0.901-0.193c1.61-0.45,1.61-0.45,1.61-0.45c0.836-0.193,0.836-0.193,0.836-0.193
	c0.709-0.451,0.709-0.451,0.709-0.451c0.45-0.386,0.45-0.386,0.45-0.386c0.064-0.13,0.064-0.13,0.064-0.13
	c-0.064-0.193-0.064-0.193-0.064-0.193c-0.13-0.127-0.13-0.127-0.13-0.127c-0.126,0-0.126,0-0.126,0c-0.194,0-0.194,0-0.194,0
	c-0.193,0.063-0.193,0.063-0.193,0.063c-0.322,0-0.322,0-0.322,0C49.451,9.15,49.451,9.15,49.451,9.15
	c0.646-0.258,0.646-0.258,0.646-0.258c0.257-0.193,0.257-0.193,0.257-0.193c0.193-0.195,0.193-0.195,0.193-0.195
	c0-0.128,0-0.128,0-0.128c-0.065-0.323-0.065-0.323-0.065-0.323C50.224,7.86,50.224,7.86,50.224,7.86
	c-0.257-0.321-0.257-0.321-0.257-0.321c-0.385-0.195-0.385-0.195-0.385-0.195c-0.516-0.255-0.516-0.255-0.516-0.255
	c-0.449-0.258-0.449-0.258-0.449-0.258c-0.581-0.258-0.581-0.258-0.581-0.258C47.457,6.38,47.457,6.38,47.457,6.38
	c-0.58-0.193-0.58-0.193-0.58-0.193C46.426,5.99,46.426,5.99,46.426,5.99c-0.385,0-0.385,0-0.385,0
	C45.59,5.862,45.59,5.862,45.59,5.862c-0.515-0.257-0.515-0.257-0.515-0.257C44.56,5.54,44.56,5.54,44.56,5.54
	c-0.192-0.063-0.323-0.063-0.58-0.128c-0.515-0.13-0.515-0.13-0.515-0.13C42.82,5.154,42.82,5.154,42.82,5.154
	c-0.646-0.128-0.646-0.128-0.646-0.128c-0.902-0.258-0.902-0.258-0.902-0.258c-0.836-0.13-0.836-0.13-0.836-0.13
	C39.404,4.51,39.404,4.51,39.404,4.51c-1.028-0.192-1.028-0.192-1.028-0.192c-1.031-0.065-1.031-0.065-1.031-0.065
	C35.99,4.187,35.99,4.187,35.99,4.187c-1.804-0.063-1.804-0.063-1.804-0.063c-1.097-0.13-1.097-0.13-1.097-0.13
	c-0.385,0-0.385,0-0.385,0h0.064c-0.064-0.258-0.386-0.386-0.579-0.516c-0.388-0.386-0.709-0.709-1.096-1.029
	c-0.323-0.388-0.645-0.645-0.966-0.967c-0.256-0.193-0.45-0.385-0.707-0.515c-0.194-0.193-0.323-0.321-0.517-0.516
	c-0.192,0-0.257-0.128-0.45-0.193C28.304,0.128,28.112,0,28.048,0"/>
<path d="M121.446,1.738l0.132-0.065l-0.132-0.128l-0.064,0.128L121.446,1.738 M113.976,1.287c0.774,0.386,1.545,0.515,2.447,0.386
	c0-0.321-0.065-0.579-0.065-0.902C115.521,0.964,114.685,0.706,113.976,1.287z M118.097,5.216c0.322,0.258,0.515,0.321,0.646,0.451
	c0.386,0.323,0.645,0.709,0.386,1.225c-0.451,0.772-0.128,1.415,0.515,1.932c0.516,0.323,1.096,0.709,1.74,0.902
	c0.644,0.323,1.095,0,1.225-0.709c0.128-0.514,0.128-1.095,0.065-1.674c-0.065-1.225-0.646-2.125-1.74-2.642
	c-0.451-0.193-0.964-0.516-1.415-0.709C119.128,4.314,118.611,4.701,118.097,5.216z M114.555,3.927
	c0.13-0.578-0.065-0.901-0.579-1.095c-0.451-0.258-0.836-0.516-1.159-0.902c-0.322-0.45-0.258-0.901,0.259-1.095
	c0.449-0.193,0.964-0.323,1.353-0.386c1.996-0.323,4.057-0.323,5.99,0.063c0.32,0.065,0.709,0.193,1.028,0.388
	c0.451,0.128,0.581,0.579,0.259,0.964c-0.323,0.323-0.708,0.709-1.159,0.904c-0.516,0.256-0.774,0.578-0.516,1.157
	c0.129,0.065,0.451,0.195,0.646,0.323c1.676,0.836,2.513,2.191,2.319,3.994c-0.259,2.641-1.996,4.832-4.509,5.54
	c-1.482,0.451-2.966,0.063-4.188-0.774c-1.738-1.159-2.706-2.835-2.835-4.958c-0.065-1.61,0.581-2.9,2.125-3.672
	C113.911,4.185,114.169,4.057,114.555,3.927z"/>
<polyline fill="#FFFFFF" points="121.577,2.897 121.513,2.832 121.64,2.704 121.704,2.832 121.577,2.897 "/>
<path d="M103.567,44.788l-0.136,0.282l0.094,0.215c0.497,0.42,1.027,1.029,1.354,1.49c0.078,0.119,0.198,0.179,0.316,0.179
	l0.268-0.093c0.103-0.077,0.155-0.18,0.155-0.282l-0.087-0.259c-0.35-0.521-0.951-1.164-1.422-1.532l-0.273-0.104L103.567,44.788z
	 M100.93,39.561l-0.128,0.229l0.06,0.172c0.223,0.267,0.455,0.583,0.616,0.867c0.062,0.094,0.155,0.136,0.258,0.136l0.161-0.053
	c0.085-0.059,0.127-0.152,0.127-0.264l-0.05-0.172c-0.172-0.272-0.411-0.602-0.645-0.875l-0.215-0.103L100.93,39.561z
	 M96.885,41.223c-0.557,0.043-1.267,0.129-1.782,0.205c-0.178,0.024-0.29,0.155-0.29,0.316l0.009,0.066
	c0.024,0.182,0.146,0.275,0.291,0.275l0.075-0.009c0.488-0.067,1.097-0.155,1.535-0.188c-0.113,0.42-0.258,0.83-0.395,1.232
	c-0.386,1.088-0.85,2.064-1.363,2.887l-0.068,0.223c0,0.119,0.068,0.23,0.188,0.299l0.188,0.063c0.119,0,0.241-0.063,0.327-0.214
	c0.521-0.849,0.985-1.885,1.39-3.04c0.169-0.5,0.324-1.005,0.464-1.501c0.213-0.019,0.443-0.032,0.735-0.032
	c0.806,0,1.053,0.315,1.053,1.268c0,0.762-0.111,1.576-0.247,2.056c-0.155,0.55-0.378,0.702-0.736,0.702
	c-0.318,0-0.66-0.096-0.91-0.214l-0.223-0.062c-0.119,0-0.223,0.068-0.274,0.188l-0.042,0.172c0,0.13,0.067,0.249,0.188,0.315
	c0.351,0.201,0.83,0.31,1.24,0.31c0.688,0,1.176-0.31,1.413-1.146c0.182-0.617,0.301-1.467,0.301-2.289
	c0-1.334-0.516-1.938-1.688-1.938c-0.205,0-0.412,0.01-0.658,0.018c0.111-0.471,0.213-0.976,0.283-1.463l0.009-0.078
	c0-0.172-0.112-0.273-0.309-0.291l-0.077-0.008c-0.172,0-0.297,0.076-0.325,0.299C97.109,40.171,97.015,40.701,96.885,41.223z
	 M101.829,39.07l-0.127,0.232l0.059,0.18c0.205,0.225,0.411,0.539,0.583,0.814c0.062,0.104,0.155,0.154,0.241,0.154l0.161-0.051
	c0.076-0.063,0.137-0.147,0.137-0.25l-0.061-0.188c-0.154-0.268-0.368-0.581-0.6-0.822l-0.233-0.119L101.829,39.07z M100.211,41.063
	c0.633,0.838,1.183,2.002,1.481,2.92c0.051,0.18,0.179,0.268,0.325,0.268l0.161-0.035c0.139-0.042,0.214-0.154,0.214-0.309
	l-0.024-0.153c-0.291-0.978-0.908-2.213-1.544-3.051c-0.067-0.104-0.188-0.156-0.298-0.156l-0.199,0.054
	c-0.111,0.062-0.179,0.17-0.179,0.291L100.211,41.063z M89.783,40.589c-0.063,1.173-0.275,2.351-0.541,3.154
	c-0.203,0.625-0.403,0.993-0.593,1.173c-0.179,0.18-0.376,0.247-0.571,0.247c-0.455,0-0.892-0.539-0.892-1.565
	C87.188,41.934,88.217,40.734,89.783,40.589z M90.494,40.563c1.518,0.054,2.47,1.104,2.47,2.555c0,0.9-0.395,1.594-0.936,1.996
	c-0.428,0.316-1.089,0.531-1.714,0.615c-0.196,0.035-0.308,0.164-0.308,0.336l0.008,0.086c0.033,0.215,0.181,0.301,0.361,0.301
	l0.094-0.01c0.688-0.104,1.303-0.299,1.8-0.617c0.892-0.566,1.413-1.48,1.413-2.69c0-1.884-1.336-3.204-3.358-3.204
	c-2.342,0-3.828,1.545-3.828,3.676c0,1.441,0.71,2.306,1.602,2.306c0.35,0,0.711-0.112,0.985-0.378
	c0.3-0.284,0.548-0.667,0.847-1.551C90.229,43.063,90.419,41.867,90.494,40.563z M80.45,42.877c0.066-0.464,0.152-0.968,0.246-1.439
	c0.205,0.008,0.423,0.008,0.625,0.008c0.497,0,0.996-0.024,1.484-0.067c0.188-0.019,0.265-0.155,0.265-0.343V41
	c-0.009-0.171-0.128-0.29-0.309-0.29h-0.033c-0.541,0.052-1.054,0.067-1.544,0.067c-0.119,0-0.241,0-0.352,0
	c0.067-0.36,0.146-0.728,0.224-1.08l0.009-0.086c0-0.146-0.077-0.282-0.282-0.307l-0.087-0.01c-0.17,0-0.282,0.094-0.315,0.283
	c-0.067,0.378-0.156,0.779-0.223,1.164c-0.616-0.033-1.115-0.094-1.535-0.156h-0.06c-0.156,0-0.267,0.104-0.291,0.268l-0.009,0.076
	c0,0.155,0.093,0.291,0.247,0.309c0.478,0.078,0.985,0.139,1.524,0.172c-0.096,0.464-0.179,0.961-0.247,1.434
	c-0.515-0.045-0.994-0.105-1.413-0.184l-0.068-0.01c-0.153,0-0.271,0.105-0.3,0.283L78,43.004c0,0.163,0.103,0.291,0.266,0.325
	c0.438,0.086,0.934,0.146,1.422,0.188c-0.062,0.455-0.086,0.797-0.086,1.112c0,0.72,0.216,1.19,0.627,1.517
	c0.427,0.344,1.052,0.5,1.841,0.5c1.639,0,2.707-0.78,2.707-2.17c0-0.564-0.247-1.189-0.667-1.695
	c-0.086-0.104-0.19-0.155-0.291-0.155l-0.205,0.062c-0.095,0.068-0.154,0.172-0.154,0.272l0.077,0.207
	c0.341,0.401,0.521,0.873,0.521,1.345c0,0.898-0.753,1.446-2.015,1.446c-0.602,0-1.063-0.11-1.361-0.358
	c-0.258-0.213-0.395-0.541-0.395-0.943c0-0.334,0.023-0.666,0.095-1.102c0.283,0.008,0.558,0.016,0.822,0.016
	c0.515,0,0.993-0.016,1.396-0.061c0.226-0.025,0.319-0.156,0.319-0.334v-0.053c-0.019-0.18-0.112-0.291-0.31-0.291H82.55
	c-0.396,0.044-0.839,0.063-1.327,0.063C80.973,42.895,80.717,42.887,80.45,42.877z M74.479,40.495
	c-0.111,0.05-0.181,0.163-0.181,0.282l0.068,0.215c0.771,1.088,1.294,2.629,1.412,4.068c0.019,0.215,0.155,0.336,0.351,0.336
	l0.095-0.01c0.214-0.043,0.3-0.189,0.3-0.412v-0.059c-0.119-1.466-0.728-3.197-1.549-4.313c-0.078-0.119-0.181-0.17-0.291-0.17
	L74.479,40.495z M69.569,40.359c0,0.916,0.01,1.918,0.063,2.604c0.084,1.241,0.351,2.176,0.72,2.732
	c0.291,0.438,0.677,0.603,1.036,0.603c0.327,0,0.66-0.147,0.952-0.508c0.283-0.367,0.506-0.95,0.625-1.747l0.011-0.077
	c0-0.204-0.13-0.31-0.328-0.334l-0.086-0.009c-0.18,0-0.273,0.096-0.308,0.309c-0.084,0.592-0.239,1.035-0.42,1.303
	c-0.13,0.195-0.291,0.265-0.488,0.265c-0.189,0-0.411-0.161-0.521-0.386c-0.257-0.516-0.403-1.174-0.489-2.202
	c-0.024-0.394-0.033-0.908-0.033-1.455c0-0.36,0-0.737,0-1.097c0-0.213-0.068-0.357-0.344-0.357
	C69.715,39.999,69.569,40.135,69.569,40.359z M62.427,39.46h-0.02c-0.224,0-0.361,0.138-0.369,0.358
	c-0.061,1.261-0.104,2.843-0.104,4.173c0,1.089,0.181,1.646,0.574,2.032c0.42,0.402,1.019,0.592,1.824,0.592
	c0.883,0,1.688-0.291,2.32-0.91c0.516-0.497,0.874-1.188,1.142-2.055l0.024-0.147c0-0.172-0.111-0.31-0.265-0.351l-0.139-0.024
	c-0.146,0-0.265,0.095-0.327,0.29c-0.203,0.713-0.521,1.313-0.908,1.705c-0.506,0.523-1.173,0.738-1.833,0.738
	c-0.591,0-1.019-0.096-1.302-0.36c-0.275-0.265-0.378-0.711-0.378-1.517c0-1.371,0.066-2.887,0.11-4.146v-0.023
	C62.785,39.596,62.665,39.466,62.427,39.46z M57.482,43.598c0.182,1.42,0.909,2.563,1.81,3.254l0.23,0.086
	c0.104,0,0.205-0.051,0.274-0.164l0.068-0.203c0-0.104-0.053-0.199-0.139-0.266c-0.42-0.316-1.097-0.994-1.491-1.91
	c-0.316-0.729-0.471-1.371-0.471-2.537c0-0.16-0.13-0.264-0.327-0.264s-0.325,0.104-0.325,0.264c0,1.186-0.11,1.902-0.368,2.599
	c-0.275,0.761-0.765,1.481-1.339,1.969l-0.117,0.259l0.066,0.196l0.247,0.119l0.258-0.095
	C56.702,46.141,57.353,44.984,57.482,43.598z M54.364,41.275c-0.095-0.164-0.258-0.248-0.421-0.248s-0.335,0.086-0.438,0.272
	c-0.42,0.78-1.052,1.517-1.722,1.964c-0.096,0.059-0.14,0.152-0.14,0.258l0.077,0.211l0.239,0.139l0.206-0.077
	c0.668-0.515,1.304-1.208,1.671-1.954l0.11-0.111l0.104,0.096c0.35,0.656,0.881,1.302,1.491,1.736l0.247,0.098l0.231-0.131
	l0.075-0.213c0-0.104-0.042-0.205-0.128-0.258C55.358,42.637,54.782,42.003,54.364,41.275z M54.527,39.382
	c-0.104,0.05-0.16,0.136-0.16,0.239l0.059,0.172c0.23,0.419,0.602,0.917,0.985,1.303l0.188,0.076l0.256-0.13l0.085-0.202
	l-0.127-0.258c-0.325-0.301-0.659-0.721-0.873-1.098l-0.248-0.145L54.527,39.382z M53.438,39.391l-0.172-0.045
	c-0.104,0-0.197,0.053-0.267,0.156c-0.265,0.497-0.692,0.994-1.146,1.368l-0.119,0.25l0.076,0.196l0.248,0.129l0.198-0.075
	c0.479-0.403,0.968-0.996,1.302-1.562l0.063-0.172C53.619,39.535,53.549,39.449,53.438,39.391z M53.123,44.213
	c0-0.172,0.083-0.214,0.255-0.214H54.5c0.163,0,0.248,0.042,0.248,0.214v1.618c0,0.172-0.085,0.214-0.248,0.214h-1.122
	c-0.172,0-0.255-0.042-0.255-0.214V44.213z M55.358,44.068c0-0.479-0.24-0.66-0.702-0.66h-1.449c-0.471,0-0.701,0.181-0.701,0.66
	v1.9c0,0.496,0.241,0.678,0.729,0.678h1.396c0.488,0,0.729-0.182,0.729-0.678L55.358,44.068L55.358,44.068z M58.828,40.992
	c0.154,0,0.222,0.042,0.222,0.145l-0.017,0.121c-0.119,0.453-0.354,0.926-0.625,1.285l-0.054,0.18c0,0.103,0.054,0.196,0.146,0.258
	l0.188,0.059c0.104,0,0.199-0.051,0.258-0.155c0.351-0.515,0.601-1.096,0.729-1.67c0.026-0.103,0.035-0.188,0.035-0.274
	c0-0.385-0.267-0.547-0.713-0.547h-1.809c0.111-0.316,0.198-0.646,0.274-0.97l0.009-0.067c0-0.154-0.103-0.248-0.283-0.266
	l-0.086-0.011c-0.153,0-0.246,0.062-0.281,0.241c-0.182,0.941-0.593,1.979-1.124,2.682l-0.062,0.178l0.147,0.248l0.196,0.068
	c0.096,0,0.182-0.042,0.248-0.146c0.285-0.394,0.531-0.856,0.737-1.363h1.859v0.007L58.828,40.992L58.828,40.992z"/>
<path d="M62.04,58.132v1.38c-0.506,0.104-1.012,0.186-1.476,0.256c-0.154,0.023-0.246,0.129-0.246,0.291l0.009,0.086
	c0.042,0.178,0.155,0.266,0.309,0.266l0.067-0.01c1.133-0.203,2.471-0.521,3.437-0.832c0.137-0.041,0.23-0.135,0.23-0.271
	l-0.018-0.095c-0.023-0.146-0.119-0.214-0.23-0.214l-0.112,0.018c-0.411,0.131-0.873,0.258-1.344,0.369v-1.243h1.189
	c0.153,0,0.239-0.118,0.239-0.29c0-0.171-0.086-0.289-0.239-0.289h-1.189V56.77c0-0.162-0.112-0.246-0.317-0.246
	c-0.18,0-0.308,0.086-0.308,0.246v0.781h-1.229c-0.161,0-0.238,0.119-0.238,0.29s0.074,0.29,0.238,0.29L62.04,58.132L62.04,58.132z
	 M64.267,54.217c0.163,0,0.249-0.119,0.249-0.299c0-0.172-0.086-0.3-0.249-0.3h-3.59c-0.156,0-0.242,0.128-0.242,0.308
	c0,0.172,0.086,0.291,0.242,0.291h1.088c-0.188,0.566-0.464,1.116-0.754,1.631c-0.146,0.008-0.29,0.008-0.426,0.018
	c-0.14,0.008-0.241,0.111-0.241,0.299v0.025c0.017,0.188,0.136,0.283,0.3,0.283h0.024c0.933-0.068,1.995-0.197,3.007-0.359
	l0.077,0.181l0.223,0.146l0.18-0.053c0.119-0.066,0.171-0.172,0.171-0.271l-0.033-0.156c-0.205-0.411-0.479-0.865-0.822-1.327
	l-0.205-0.103l-0.188,0.051c-0.104,0.052-0.156,0.145-0.156,0.23l0.033,0.111c0.172,0.223,0.328,0.453,0.464,0.693
	c-0.574,0.094-1.157,0.154-1.729,0.188c0.3-0.496,0.539-1.035,0.744-1.586H64.267L64.267,54.217z M66.982,55.229
	c-0.042,0.436-0.095,0.854-0.196,1.285c-0.14,0.564-0.343,1.112-0.635,1.618c-0.422-0.743-0.659-1.594-0.83-2.435
	c0.075-0.154,0.138-0.309,0.198-0.471h1.463V55.229z M68.096,55.229c0.155,0,0.241-0.131,0.241-0.301
	c0-0.188-0.094-0.308-0.249-0.308h-2.354c0.13-0.396,0.232-0.788,0.3-1.157l0.009-0.104c0-0.164-0.096-0.248-0.265-0.274
	l-0.086-0.009c-0.146,0-0.258,0.076-0.283,0.249c-0.197,1.267-0.722,2.587-1.37,3.485l-0.068,0.205l0.112,0.223l0.196,0.068
	l0.259-0.136c0.136-0.2,0.271-0.43,0.41-0.678c0.173,0.764,0.428,1.524,0.83,2.202c-0.515,0.668-1.19,1.189-2.021,1.635
	c-0.119,0.063-0.189,0.163-0.189,0.283l0.054,0.189c0.059,0.102,0.161,0.162,0.271,0.162l0.189-0.053
	c0.805-0.436,1.498-0.982,2.057-1.672c0.453,0.619,1.027,1.148,1.729,1.588l0.214,0.066c0.103,0,0.205-0.051,0.282-0.17l0.067-0.231
	c0-0.119-0.05-0.229-0.161-0.291c-0.719-0.411-1.293-0.899-1.736-1.491c0.324-0.479,0.573-1.061,0.742-1.602
	c0.198-0.616,0.301-1.241,0.352-1.885L68.096,55.229L68.096,55.229z M59.375,57.41c0.181,0,0.283-0.195,0.283-0.376
	c0-0.188-0.104-0.369-0.283-0.369h-7.204c-0.181,0-0.284,0.179-0.284,0.369c0,0.181,0.104,0.376,0.284,0.376H59.375z"/>
<path d="M91.559,58.654c0.009,0.103,0.019,0.162,0.019,0.24c0,0.693-0.284,0.985-1.105,0.985c-0.624,0-1.019-0.29-1.019-0.729
	c0-0.436,0.395-0.728,1.003-0.728C90.846,58.424,91.206,58.499,91.559,58.654z M92.045,55.003c0-0.267,0-0.548,0-0.839
	c0-0.146,0-0.29,0-0.436c0-0.207-0.137-0.326-0.358-0.326c-0.205,0-0.325,0.111-0.325,0.334c0,0.437,0.01,0.884,0.018,1.312
	c-0.47,0.033-0.952,0.042-1.412,0.042c-0.328,0-0.65-0.009-0.961-0.018h-0.019c-0.198,0-0.308,0.13-0.308,0.326
	c0,0.203,0.094,0.342,0.316,0.352c0.29,0.009,0.592,0.018,0.891,0.018c0.515,0,1.036-0.018,1.508-0.043
	c0.009,0.487,0.024,0.935,0.051,1.346c0.02,0.283,0.044,0.627,0.068,0.908c-0.319-0.094-0.678-0.156-1.063-0.156
	c-1.021,0-1.663,0.559-1.663,1.32c0,0.855,0.688,1.381,1.739,1.381c1.08,0,1.696-0.43,1.696-1.338l-0.009-0.23
	c0.325,0.204,0.648,0.479,0.985,0.848l0.246,0.11l0.257-0.11l0.104-0.266l-0.112-0.266c-0.378-0.396-0.978-0.824-1.49-1.063
	c-0.024-0.37-0.069-0.806-0.096-1.131c-0.032-0.431-0.042-0.892-0.053-1.397c0.499-0.043,0.952-0.096,1.347-0.17
	c0.169-0.035,0.256-0.138,0.256-0.316l-0.009-0.078c-0.009-0.163-0.119-0.274-0.29-0.274l-0.076,0.009
	C92.895,54.917,92.465,54.961,92.045,55.003z M94.324,53.736c-0.129-0.25-0.301-0.559-0.463-0.772l-0.231-0.118l-0.156,0.032
	l-0.145,0.214l0.051,0.156c0.146,0.223,0.336,0.538,0.455,0.77c0.061,0.112,0.154,0.155,0.246,0.155l0.146-0.032
	c0.086-0.035,0.138-0.121,0.138-0.23L94.324,53.736z M87.72,53.438l-0.111-0.01c-0.17,0-0.291,0.086-0.351,0.301
	c-0.3,1.131-0.506,2.724-0.506,3.905c0,1.003,0.095,1.919,0.267,2.663c0.042,0.205,0.161,0.325,0.351,0.325l0.104-0.009
	c0.188-0.033,0.266-0.155,0.266-0.342l-0.019-0.146c-0.156-0.729-0.256-1.621-0.256-2.503c0-1.173,0.205-2.621,0.497-3.743
	l0.023-0.155C87.985,53.572,87.892,53.471,87.72,53.438z M93.426,54.123c-0.128-0.242-0.325-0.592-0.497-0.85l-0.242-0.129
	l-0.152,0.043l-0.146,0.229l0.044,0.147c0.153,0.229,0.341,0.574,0.47,0.822c0.063,0.118,0.156,0.172,0.259,0.172l0.152-0.045
	c0.098-0.051,0.147-0.137,0.147-0.238L93.426,54.123z M80.108,55.33l0.127-0.266c0-0.147-0.118-0.268-0.315-0.268h-0.024
	c0.018-0.42,0.033-0.813,0.062-1.227v-0.018c0-0.215-0.127-0.316-0.327-0.316h-0.024c-0.205,0-0.336,0.111-0.336,0.324
	c-0.018,0.446-0.031,0.875-0.042,1.276c-0.42,0.033-0.873,0.062-1.311,0.103c-0.156,0.019-0.268,0.164-0.268,0.354v0.042
	c0.01,0.163,0.14,0.283,0.309,0.283h0.036c0.42-0.042,0.847-0.077,1.216-0.111c-0.018,0.479-0.024,0.908-0.033,1.363
	c-0.558,0.601-1.089,1.267-1.535,1.832l-0.095,0.258l0.119,0.259l0.232,0.094c0.104,0,0.197-0.043,0.283-0.156
	c0.223-0.299,0.506-0.643,0.753-0.993c0.086-0.121,0.172-0.229,0.267-0.419c-0.035,0.341-0.045,0.6-0.045,0.813
	c0,0.146,0,0.316,0,0.506c0,0.453,0.01,0.983,0.01,1.475c0,0.189,0.163,0.3,0.344,0.3h0.018c0.213,0,0.344-0.121,0.344-0.31
	c-0.012-0.823-0.026-1.618-0.026-2.414c0-0.336,0-0.66,0.009-0.994c0.38-0.422,0.815-0.866,1.142-1.143
	c0.692-0.574,1.189-0.849,1.688-0.849c0.42,0,0.646,0.241,0.646,0.668c0,0.317-0.063,0.729-0.182,1.347
	c-0.18,0.908-0.249,1.524-0.249,1.928c0,0.822,0.48,1.199,1.133,1.199c0.688,0,1.176-0.379,1.509-1.424l0.023-0.146
	c0-0.136-0.077-0.249-0.223-0.3L85.2,58.376c-0.137,0-0.246,0.086-0.3,0.239c-0.238,0.713-0.485,0.927-0.821,0.927
	c-0.291,0-0.462-0.147-0.462-0.565c0-0.334,0.084-0.916,0.264-1.867c0.119-0.635,0.17-1.004,0.17-1.449
	c0-0.702-0.47-1.189-1.267-1.189c-0.627,0-1.218,0.291-1.946,0.865c-0.242,0.188-0.515,0.445-0.744,0.678
	c-0.095,0.094-0.2,0.223-0.275,0.325c0.025-0.146,0.034-0.247,0.042-0.384c0-0.105,0-0.258,0.012-0.413L80.108,55.33z
	 M73.298,57.139c0,0.606-0.411,1.026-1.01,1.026c-0.541,0-0.937-0.3-0.937-0.874c0-0.539,0.447-0.925,1.03-0.925
	C72.929,56.366,73.298,56.675,73.298,57.139z M73.64,57.799v0.161c0,1.011-0.753,1.729-2.288,2.013
	c-0.169,0.033-0.273,0.164-0.273,0.342l0.009,0.095c0.035,0.188,0.172,0.282,0.343,0.282l0.084-0.008
	c0.516-0.095,0.979-0.246,1.365-0.455c0.908-0.479,1.388-1.199,1.388-2.313c0-0.401-0.077-0.771-0.249-1.121
	c0-0.592,0-1.198,0-1.772c0.239-0.01,0.472-0.01,0.702-0.01c0.558,0,1.089,0.01,1.593,0.018c0.198,0,0.317-0.094,0.317-0.299v-0.025
	c0-0.23-0.119-0.342-0.352-0.342c-0.291-0.008-0.602-0.008-0.909-0.008c-0.437,0-0.892,0.008-1.354,0.018c0-0.309,0-0.592,0-0.83
	c0-0.225-0.112-0.327-0.361-0.327c-0.213,0-0.324,0.121-0.324,0.308c0,0.258,0.009,0.56,0.009,0.857
	c-1.302,0.025-2.64,0.069-3.848,0.137c-0.197,0.01-0.309,0.147-0.309,0.326v0.018c0.008,0.199,0.119,0.336,0.316,0.336h0.035
	c1.24-0.077,2.552-0.129,3.813-0.156c0,0.402,0,0.841,0.009,1.148c-0.247-0.258-0.601-0.395-1.02-0.395
	c-0.978,0-1.688,0.635-1.688,1.533c0,0.855,0.637,1.466,1.527,1.466c0.675,0,1.199-0.249,1.421-0.994L73.64,57.799L73.64,57.799
	L73.64,57.799z"/>
<path d="M105.077,55.758c-0.146,0.042-0.23,0.145-0.23,0.271l0.024,0.131c0.315,0.839,0.592,1.877,0.779,2.871
	c0.033,0.178,0.155,0.255,0.301,0.255l0.11-0.009c0.182-0.041,0.291-0.164,0.291-0.325l-0.009-0.086
	c-0.191-1.013-0.455-2.048-0.813-2.947c-0.053-0.128-0.154-0.196-0.285-0.196L105.077,55.758z M108.212,59.896
	c0.564-1.166,1.063-2.553,1.388-3.752l0.021-0.096c0-0.146-0.104-0.268-0.283-0.309l-0.13-0.018c-0.156,0-0.283,0.077-0.325,0.23
	c-0.275,1.217-0.772,2.682-1.389,3.941h-3.914c-0.155,0-0.247,0.153-0.247,0.334s0.093,0.328,0.247,0.328h7.3
	c0.163,0,0.249-0.147,0.249-0.328s-0.086-0.334-0.249-0.334h-2.667V59.896z M107.501,54.55v-1.114c0-0.162-0.137-0.256-0.341-0.256
	c-0.198,0-0.354,0.094-0.354,0.256v1.114h-2.954c-0.156,0-0.242,0.156-0.242,0.325c0,0.18,0.086,0.325,0.242,0.325h6.732
	c0.154,0,0.241-0.155,0.241-0.325c0-0.169-0.087-0.325-0.241-0.325H107.501z M100.794,53.154l-0.161-0.043l-0.242,0.129
	l-0.061,0.172l0.138,0.225c0.284,0.153,0.625,0.383,0.881,0.6l0.207,0.078l0.239-0.121l0.068-0.188l-0.121-0.232
	C101.487,53.548,101.093,53.298,100.794,53.154z M102.32,55.014c0.161,0,0.23-0.13,0.23-0.308c0-0.172-0.068-0.3-0.23-0.3h-2.614
	c-0.019-0.344-0.019-0.693-0.019-1.071c0-0.163-0.139-0.249-0.325-0.249c-0.181,0-0.317,0.086-0.317,0.249
	c0,0.375,0.008,0.728,0.019,1.071h-2.845c-0.521,0-0.78,0.264-0.78,0.787v0.984c0,1.858-0.172,3.084-0.753,4.196l-0.053,0.205
	c0,0.104,0.062,0.188,0.172,0.239l0.214,0.062c0.119,0,0.224-0.051,0.283-0.196c0.521-1.054,0.744-2.246,0.781-3.736h1.388
	c0.178,0,0.256,0.052,0.256,0.23c0,0.566-0.06,1.199-0.163,1.619c-0.051,0.223-0.137,0.268-0.426,0.268
	c-0.172,0-0.402-0.024-0.565-0.063l-0.11-0.018c-0.119,0-0.205,0.062-0.242,0.213l-0.017,0.113c0,0.135,0.085,0.229,0.231,0.273
	c0.214,0.061,0.548,0.086,0.771,0.086c0.532,0,0.824-0.13,0.951-0.669c0.119-0.455,0.215-1.302,0.215-1.946
	c0-0.479-0.223-0.701-0.7-0.701h-1.576v-1.01c0-0.24,0.094-0.334,0.325-0.334h2.673c0.059,1.154,0.197,2.106,0.436,2.903
	c0.075,0.255,0.161,0.505,0.266,0.735c-0.592,0.678-1.319,1.228-2.149,1.611c-0.119,0.061-0.181,0.154-0.181,0.266l0.062,0.197
	c0.063,0.104,0.161,0.155,0.265,0.155l0.205-0.051c0.787-0.386,1.499-0.91,2.1-1.552c0.308,0.539,0.668,0.994,1.029,1.277
	c0.229,0.172,0.443,0.264,0.633,0.264c0.214,0,0.403-0.119,0.548-0.358c0.2-0.315,0.319-0.849,0.353-1.319v-0.018
	c0-0.163-0.111-0.273-0.289-0.283h-0.027c-0.169,0-0.29,0.086-0.309,0.266c-0.023,0.352-0.095,0.676-0.152,0.824
	c-0.044,0.102-0.095,0.154-0.172,0.154l-0.239-0.111c-0.328-0.258-0.652-0.693-0.918-1.227c0.574-0.737,1.029-1.592,1.329-2.527
	l0.017-0.128c0-0.13-0.075-0.226-0.222-0.267l-0.156-0.035c-0.111,0-0.205,0.063-0.247,0.188c-0.241,0.772-0.582,1.476-1.01,2.101
	c-0.063-0.146-0.105-0.291-0.147-0.438c-0.213-0.736-0.334-1.6-0.383-2.629h2.595v0.006H102.32z"/>
<polygon fill="none" stroke="#000000" stroke-width="0.5" stroke-miterlimit="10" points="49.883,21.577 100.513,21.577 
	100.513,17.584 105.987,23.509 100.513,29.499 100.513,25.508 49.883,25.508 "/>
<polygon fill="none" stroke="#000000" stroke-width="0.5" stroke-miterlimit="10" points="105.987,64.091 55.358,64.091 
	55.358,60.096 49.883,66.023 55.358,72.018 55.358,68.02 105.987,68.02 "/>
</svg>
