<?xml version="1.0" encoding="utf-8"?>
<!-- Generator: Adobe Illustrator 16.0.0, SVG Export Plug-In . SVG Version: 6.00 Build 0)  -->
<!DOCTYPE svg PUBLIC "-//W3C//DTD SVG 1.1//EN" "http://www.w3.org/Graphics/SVG/1.1/DTD/svg11.dtd">
<svg version="1.1" id="レイヤー_1" xmlns="http://www.w3.org/2000/svg" xmlns:xlink="http://www.w3.org/1999/xlink" x="0px"
	 y="0px" width="156.626px" height="74.179px" viewBox="0 0 156.626 74.179" enable-background="new 0 0 156.626 74.179"
	 xml:space="preserve">
<g>
	<path d="M32.564,10.028c-0.601,1.219-0.7,1.379-1.489,2.539l-0.561-0.48c0.34-0.33,0.57-0.629,0.91-1.169
		c0.25-0.4,0.399-0.709,0.659-1.329L32.564,10.028z M32.055,8.969c-0.44-0.44-0.84-0.729-1.47-1.08l0.36-0.45
		c0.64,0.36,0.939,0.56,1.488,1.02L32.055,8.969z M33.193,4.241c0-0.26-0.02-0.439-0.04-0.629h0.68
		c-0.029,0.19-0.04,0.359-0.04,0.629v0.11h2.359v-0.11c0-0.26-0.011-0.43-0.03-0.629h0.68c-0.03,0.19-0.04,0.35-0.04,0.629v0.11
		h1.689c0.43,0,0.739-0.02,1.009-0.06v0.65c-0.29-0.04-0.6-0.06-1.009-0.06h-1.689c0,0.27,0.01,0.4,0.04,0.58h-0.68
		c0.02-0.19,0.03-0.31,0.03-0.58h-2.359c0,0.32,0.011,0.47,0.04,0.67h-0.68c0.03-0.2,0.04-0.36,0.04-0.67h-1.559
		c-0.41,0-0.72,0.02-1.01,0.06v-0.65c0.27,0.04,0.58,0.06,1.01,0.06h1.559V4.241z M32.384,7.08C31.925,6.6,31.564,6.29,30.975,5.92
		l0.39-0.42c0.6,0.39,0.939,0.66,1.43,1.129L32.384,7.08z M33.693,7.979c-0.42,0-0.699,0.01-0.949,0.05v-0.59
		c0.229,0.04,0.499,0.05,0.949,0.05h0.59c-0.18-0.29-0.29-0.439-0.51-0.659l0.51-0.22c0.27,0.33,0.39,0.52,0.569,0.879h0.89V6.42
		c-0.8,0.06-0.8,0.06-1.029,0.07c-0.12,0-0.12,0-0.76,0.03c-0.21,0-0.26,0.01-0.6,0.02c-0.04-0.19-0.09-0.33-0.2-0.54
		c0.17,0.01,0.311,0.01,0.39,0.01c2.109,0,4.168-0.25,4.868-0.59l0.479,0.52c-1,0.23-1.77,0.35-2.608,0.43v1.119h0.919
		c0.35-0.45,0.56-0.79,0.729-1.229l0.58,0.2c-0.27,0.44-0.45,0.7-0.699,1.029h0.659c0.46,0,0.729-0.01,0.96-0.05v0.59
		c-0.28-0.03-0.601-0.05-0.96-0.05h-1.689c0.69,0.63,1.68,1.14,2.938,1.509c-0.27,0.37-0.27,0.37-0.34,0.53
		c-0.34-0.14-0.449-0.18-0.839-0.37v2.019c0,0.4,0.02,0.75,0.06,1.04h-0.63v-0.4h-3.897v0.39h-0.62c0.04-0.3,0.061-0.65,0.061-1.03
		V9.698c-0.28,0.14-0.37,0.18-0.67,0.31c-0.07-0.16-0.189-0.31-0.359-0.46c1.219-0.4,2.078-0.89,2.758-1.569H33.693z M34.073,9.858
		v0.729h1.639V9.858H34.073z M35.712,11.047h-1.639v0.78h1.639V11.047z M38.031,9.389c-0.74-0.4-1.25-0.77-1.779-1.319
		c0.02,0.19,0.03,0.37,0.03,0.529v0.15c0,0.18,0.01,0.339,0.04,0.479h-0.61c0.021-0.17,0.03-0.31,0.03-0.49v-0.14
		c0-0.16,0.01-0.37,0.03-0.529c-0.52,0.569-1.01,0.949-1.68,1.319H38.031z M37.981,10.588V9.858h-1.729v0.729H37.981z
		 M37.981,11.827v-0.78h-1.729v0.78H37.981z"/>
	<path d="M42.024,6.25c-0.54,0-0.81,0.01-1.05,0.05v-0.7c0.29,0.04,0.58,0.06,1.05,0.06h5.927c0.449,0,0.76-0.02,1.049-0.06v0.7
		c-0.279-0.04-0.529-0.05-1.049-0.05h-2.679v2.129h2.179c0.45,0,0.729-0.01,0.97-0.05v0.689c-0.28-0.04-0.49-0.05-0.97-0.05h-2.179
		v2.599h3.118c0.439,0,0.779-0.02,1.079-0.06v0.729c-0.379-0.05-0.669-0.07-1.079-0.07h-6.706c-0.42,0-0.76,0.02-1.1,0.07v-0.729
		c0.3,0.04,0.62,0.06,1.09,0.06h2.898V8.969h-1.979c-0.47,0-0.739,0.01-0.999,0.05V8.329c0.25,0.04,0.489,0.05,0.97,0.05h2.009V6.25
		H42.024z M43.863,3.582c1.06,0.43,1.409,0.61,2.389,1.239l-0.41,0.54c-0.869-0.61-1.398-0.9-2.418-1.29L43.863,3.582z"/>
</g>
<g>
	<path d="M21.903,49.945c0-0.38-0.02-0.61-0.06-0.85h0.729c-0.05,0.271-0.061,0.479-0.061,0.859v1.12h0.47
		c0.34,0,0.58-0.011,0.87-0.051v0.66c-0.29-0.041-0.54-0.051-0.87-0.051h-0.409c0.26,0.631,0.27,0.65,0.439,0.97
		c0.29,0.521,0.52,0.84,0.939,1.279c-0.13,0.16-0.26,0.351-0.37,0.58c-0.52-0.69-0.749-1.1-1.109-1.999
		c0.03,0.689,0.04,1.1,0.04,1.839v2.889c0,0.439,0.021,0.669,0.061,0.939h-0.729c0.04-0.25,0.06-0.51,0.06-0.93v-2.738
		c0-0.67,0.01-1.14,0.05-1.839c-0.409,1.389-0.879,2.358-1.599,3.277c-0.12-0.219-0.26-0.409-0.41-0.559
		c0.77-0.85,1.569-2.449,1.849-3.709h-0.659c-0.38,0-0.609,0.01-0.899,0.051v-0.66c0.27,0.03,0.54,0.051,0.899,0.051h0.77V49.945z
		 M27.82,57.091c0,0.63-0.21,0.779-1.119,0.779c-0.38,0-0.7-0.02-1.2-0.059c-0.029-0.291-0.079-0.45-0.18-0.68
		c0.59,0.09,1.029,0.129,1.329,0.129c0.44,0,0.51-0.029,0.51-0.26v-5.236h-2.068c-0.4,0-0.78,0.02-1.04,0.06v-0.7
		c0.24,0.041,0.6,0.061,1.03,0.061h2.078v-0.89c0-0.479-0.02-0.87-0.069-1.149h0.789c-0.04,0.311-0.06,0.68-0.06,1.16v0.879h0.26
		c0.409,0,0.689-0.02,0.959-0.061v0.68c-0.31-0.029-0.629-0.039-0.949-0.039h-0.27V57.091z M25.631,55.462
		c-0.419-1.029-0.779-1.658-1.398-2.488l0.569-0.29c0.59,0.79,0.999,1.489,1.43,2.399L25.631,55.462z"/>
	<path d="M34.092,50.005c0-0.35-0.029-0.619-0.069-0.879h0.799c-0.039,0.209-0.06,0.489-0.06,0.879v0.75h3.059
		c0.51,0,0.839-0.02,1.149-0.07v0.75c-0.28-0.051-0.55-0.061-1.13-0.061h-3.788c-0.04,0.641-0.06,0.891-0.14,1.43h2.729
		c0.53,0,0.779-0.01,1.029-0.051c-0.02,0.201-0.029,0.311-0.05,0.7c-0.04,1.189-0.21,2.729-0.38,3.408
		c-0.21,0.859-0.449,1.069-1.249,1.069c-0.32,0-0.85-0.029-1.39-0.09c-0.029-0.32-0.06-0.449-0.159-0.709
		c0.579,0.109,1.069,0.159,1.509,0.159c0.43,0,0.529-0.12,0.68-0.859c0.17-0.839,0.25-1.699,0.31-3.028h-3.138
		c-0.221,1.139-0.49,1.839-0.95,2.559c-0.319,0.49-0.739,0.959-1.239,1.379c-0.319,0.27-0.539,0.42-1.089,0.73
		c-0.141-0.24-0.24-0.34-0.49-0.561c0.93-0.459,1.479-0.899,2.029-1.619c0.819-1.059,1.209-2.418,1.289-4.518h-2.099
		c-0.51,0-0.85,0.021-1.119,0.061v-0.75c0.319,0.051,0.619,0.07,1.109,0.07h2.848V50.005z"/>
	<path d="M48.819,57.411c-0.319-0.05-0.609-0.07-1.159-0.07h-6.236c-0.53,0-0.87,0.021-1.22,0.07v-0.8
		c0.34,0.04,0.67,0.06,1.21,0.06h6.236c0.52,0,0.829-0.02,1.169-0.06V57.411z M40.954,49.765c0.3,0.051,0.6,0.07,1.149,0.07h4.787
		c0.56,0,0.88-0.02,1.199-0.07v0.79c-0.34-0.04-0.659-0.06-1.199-0.06h-4.787c-0.53,0-0.83,0.02-1.149,0.06V49.765z M41.563,53.023
		c0.26,0.04,0.56,0.06,1.039,0.06h3.818c0.479,0,0.76-0.02,1.039-0.06v0.77c-0.31-0.04-0.569-0.05-1.039-0.05h-3.808
		c-0.49,0-0.77,0.01-1.05,0.05V53.023z"/>
	<path d="M51.844,56.911c0,0.49,0.02,0.81,0.069,1.209h-0.76c0.03-0.219,0.061-0.699,0.061-1.209v-2.059c0-0.39,0.01-0.6,0.03-1.139
		c-0.351,0.449-0.54,0.639-1.06,1.049c-0.11-0.279-0.15-0.34-0.35-0.58c1.009-0.67,1.958-1.799,2.349-2.768l0.569,0.379
		c-0.05,0.07-0.06,0.09-0.14,0.21c-0.24,0.399-0.43,0.67-0.77,1.1V56.911z M52.772,49.456c-0.09,0.09-0.13,0.129-0.279,0.329
		c-0.55,0.72-1.13,1.259-2.02,1.869c-0.13-0.229-0.229-0.34-0.419-0.489c0.819-0.52,1.339-0.971,1.809-1.57
		c0.16-0.209,0.29-0.398,0.35-0.539L52.772,49.456z M58.05,53.763c-0.109,0.15-0.149,0.211-0.27,0.42
		c-0.5,0.84-1.04,1.5-1.659,2.039c0.31,0.24,0.59,0.4,0.979,0.6c0.72,0.359,1.169,0.529,1.879,0.68c-0.17,0.26-0.24,0.4-0.33,0.65
		c-1.239-0.371-2.089-0.79-3.028-1.51c-0.949,0.699-1.779,1.109-2.968,1.469c-0.091-0.229-0.17-0.359-0.37-0.609
		c1.14-0.279,1.869-0.609,2.838-1.289c-0.689-0.64-1.169-1.31-1.599-2.249c-0.37,0-0.569,0.011-0.79,0.04v-0.67
		c0.23,0.041,0.47,0.061,0.81,0.061h3.408c0.391,0,0.6-0.01,0.729-0.051L58.05,53.763z M54.612,50.104
		c-0.04,0.881-0.15,1.34-0.47,1.869c-0.23,0.391-0.45,0.62-0.93,0.98c-0.15-0.221-0.271-0.34-0.47-0.48
		c0.55-0.359,0.799-0.66,1.02-1.199c0.149-0.359,0.22-0.83,0.22-1.389c0-0.141-0.01-0.23-0.021-0.391
		c0.19,0.021,0.32,0.03,0.72,0.03h1.669c0.4,0,0.52-0.01,0.71-0.03c-0.03,0.2-0.03,0.311-0.03,0.73v1.568c0,0.17,0.07,0.2,0.53,0.2
		c0.819,0,0.819,0,0.859-1.159c0.27,0.18,0.39,0.229,0.59,0.279c-0.061,0.67-0.13,1-0.25,1.16c-0.14,0.199-0.47,0.279-1.17,0.279
		c-0.979,0-1.189-0.1-1.189-0.529v-1.92H54.612z M54.172,53.963c0.35,0.72,0.76,1.239,1.449,1.858
		c0.689-0.579,1.1-1.078,1.539-1.858H54.172z"/>
</g>
<g>
	<path d="M46.932,22.861c-0.145,0-0.192,0.048-0.216,0.192c-0.032,0.248-0.089,0.544-0.152,0.816
		c-0.008,0.04-0.016,0.064-0.016,0.096c0,0.104,0.063,0.136,0.199,0.136h0.808c0.44,0,0.647,0.191,0.64,0.624
		c-0.008,0.808-0.111,1.575-0.288,2.167c-0.136,0.472-0.472,0.608-0.943,0.608c-0.247,0-0.527-0.032-0.751-0.096
		c-0.128-0.032-0.208-0.128-0.208-0.264c0-0.032,0.008-0.072,0.016-0.112c0.048-0.152,0.136-0.208,0.232-0.208
		c0.031,0,0.063,0.008,0.088,0.016c0.168,0.048,0.384,0.08,0.56,0.08c0.271,0,0.407-0.056,0.479-0.312
		c0.104-0.368,0.216-1.007,0.224-1.743c0-0.168-0.08-0.216-0.239-0.216h-0.912c-0.319,0-0.512-0.136-0.512-0.408
		c0-0.048,0.009-0.104,0.017-0.16c0.088-0.408,0.151-0.847,0.224-1.271c0.063-0.36,0.216-0.488,0.607-0.488h0.64
		c0.145,0,0.224-0.048,0.224-0.208v-0.863c0-0.16-0.079-0.2-0.216-0.2h-1.263c-0.145,0-0.232-0.12-0.232-0.28
		c0-0.16,0.088-0.28,0.232-0.28h1.423c0.448,0,0.647,0.176,0.647,0.656v1.111c0,0.456-0.191,0.607-0.615,0.607H46.932z
		 M50.985,23.109h1.263c0.424,0,0.616,0.176,0.616,0.608v1.071c0,0.432-0.192,0.607-0.616,0.607h-1.263v1.136
		c0.375-0.048,0.751-0.104,1.127-0.168c-0.08-0.128-0.16-0.248-0.231-0.352c-0.048-0.064-0.072-0.128-0.072-0.184
		c0-0.08,0.056-0.152,0.144-0.208c0.057-0.032,0.104-0.048,0.16-0.048c0.08,0,0.16,0.04,0.24,0.144
		c0.256,0.344,0.607,0.879,0.871,1.407c0.024,0.048,0.032,0.088,0.032,0.128c0,0.104-0.072,0.192-0.184,0.256
		c-0.049,0.024-0.097,0.04-0.145,0.04c-0.096,0-0.184-0.064-0.224-0.152c-0.096-0.184-0.2-0.376-0.312-0.568
		c-1.184,0.24-2.463,0.4-3.847,0.496c-0.008,0-0.023,0-0.031,0c-0.152,0-0.256-0.104-0.264-0.28c0-0.016,0-0.024,0-0.04
		c0-0.16,0.096-0.264,0.247-0.272c0.64-0.024,1.288-0.072,1.911-0.136v-1.199h-1.144c-0.424,0-0.615-0.176-0.615-0.607v-1.071
		c0-0.432,0.191-0.608,0.615-0.608h1.144v-0.751c-0.567,0.048-1.151,0.072-1.703,0.088c-0.151,0-0.239-0.096-0.248-0.288
		c0-0.16,0.08-0.271,0.232-0.271c0.151,0,0.304-0.008,0.464-0.008c0.327-0.503,0.615-1.055,0.808-1.535
		c0.048-0.12,0.144-0.168,0.264-0.168c0.04,0,0.08,0.008,0.12,0.016c0.144,0.032,0.231,0.104,0.231,0.216
		c0,0.04-0.008,0.08-0.032,0.12c-0.208,0.448-0.479,0.919-0.751,1.335c0.728-0.032,1.455-0.063,2.175-0.152
		c-0.192-0.248-0.4-0.488-0.616-0.735c-0.04-0.04-0.063-0.096-0.063-0.152c0-0.064,0.032-0.136,0.111-0.192
		c0.057-0.04,0.12-0.056,0.177-0.056c0.079,0,0.144,0.032,0.207,0.088c0.496,0.504,0.952,1.08,1.312,1.615
		c0.032,0.048,0.048,0.104,0.048,0.152c0,0.088-0.048,0.168-0.144,0.232c-0.056,0.04-0.12,0.056-0.184,0.056
		c-0.089,0-0.168-0.04-0.208-0.112c-0.097-0.152-0.192-0.295-0.296-0.439c-0.44,0.064-0.88,0.104-1.327,0.152V23.109z
		 M50.409,23.629H49.45c-0.152,0-0.225,0.04-0.225,0.192v0.855c0,0.152,0.072,0.2,0.225,0.2h0.959V23.629z M52.072,24.876
		c0.152,0,0.216-0.048,0.216-0.2v-0.855c0-0.152-0.063-0.192-0.216-0.192h-1.087v1.248H52.072z"/>
	<path d="M56.538,21.574c0.136,0,0.216,0.112,0.216,0.272c0,0.16-0.08,0.271-0.216,0.271h-2.486c-0.144,0-0.216-0.112-0.216-0.271
		c0-0.16,0.072-0.272,0.216-0.272H56.538z M56.458,26.827c0,0.408-0.191,0.576-0.615,0.576h-1.159c-0.416,0-0.608-0.168-0.608-0.576
		v-1.303c0-0.408,0.192-0.576,0.608-0.576h1.159c0.424,0,0.615,0.168,0.615,0.576V26.827z M54.283,23.237
		c-0.136,0-0.199-0.12-0.199-0.264c0-0.144,0.063-0.264,0.199-0.264h2.031c0.128,0,0.2,0.12,0.2,0.264
		c0,0.136-0.072,0.264-0.2,0.264H54.283z M54.283,24.357c-0.136,0-0.199-0.12-0.199-0.264s0.063-0.264,0.199-0.264h2.016
		c0.136,0,0.208,0.12,0.208,0.264c0,0.136-0.072,0.264-0.208,0.264H54.283z M56.33,20.455c0.137,0,0.208,0.104,0.208,0.264
		c0,0.152-0.071,0.264-0.208,0.264h-2.022c-0.128,0-0.208-0.112-0.208-0.264c0-0.16,0.08-0.264,0.208-0.264H56.33z M54.852,25.428
		c-0.145,0-0.216,0.048-0.216,0.192v1.087c0,0.152,0.071,0.192,0.216,0.192h0.831c0.145,0,0.216-0.04,0.216-0.192V25.62
		c0-0.144-0.071-0.192-0.216-0.192H54.852z M61.048,22.414c0.136,0,0.224,0.104,0.224,0.264c0,0.168-0.088,0.28-0.224,0.28h-1.151
		v1.655c0.408,0.248,0.8,0.512,1.096,0.759c0.071,0.056,0.111,0.136,0.111,0.224c0,0.056-0.016,0.112-0.056,0.176
		c-0.064,0.096-0.144,0.144-0.231,0.144c-0.049,0-0.104-0.016-0.152-0.056c-0.216-0.192-0.472-0.376-0.768-0.576v2.103
		c0,0.152-0.096,0.231-0.296,0.231c-0.176,0-0.279-0.08-0.279-0.231v-2.455c-0.313-0.176-0.648-0.359-1.016-0.543
		c-0.088-0.04-0.145-0.12-0.145-0.216c0-0.048,0.017-0.096,0.04-0.152c0.064-0.104,0.152-0.152,0.24-0.152
		c0.032,0,0.063,0.008,0.096,0.016c0.232,0.112,0.504,0.248,0.784,0.4v-1.327h-1.464v0.304c0,1.911-0.191,3.094-0.623,4.15
		c-0.04,0.112-0.16,0.2-0.288,0.2c-0.04,0-0.088-0.008-0.136-0.032c-0.12-0.056-0.177-0.152-0.177-0.272
		c0-0.064,0.017-0.136,0.049-0.216c0.432-0.976,0.575-2.087,0.575-3.966V21.47c0-0.4,0.176-0.656,0.567-0.688
		c0.928-0.072,1.983-0.248,2.671-0.496c0.056-0.016,0.104-0.024,0.152-0.024c0.111,0,0.199,0.056,0.256,0.176
		c0.031,0.056,0.04,0.104,0.04,0.152c0,0.112-0.064,0.208-0.177,0.24c-0.759,0.248-1.807,0.416-2.678,0.488
		c-0.168,0.016-0.232,0.096-0.232,0.32v0.775H61.048z"/>
	<path d="M66.218,23.909c0,0.4-0.328,0.72-0.72,0.72c-0.4,0-0.72-0.32-0.72-0.72c0-0.399,0.319-0.719,0.72-0.719
		C65.89,23.189,66.218,23.517,66.218,23.909z"/>
	<path d="M46.092,31.134c-0.152,0-0.224-0.12-0.224-0.288c0-0.16,0.071-0.272,0.224-0.272h2.351c0.152,0,0.224,0.112,0.224,0.272
		c0,0.168-0.071,0.288-0.224,0.288h-1.023c-0.072,0.664-0.208,1.312-0.464,1.927c0.072-0.024,0.144-0.04,0.224-0.04h0.536
		c0.432,0,0.584,0.2,0.584,0.671v2.575c0,0.464-0.185,0.696-0.592,0.696h-0.768c-0.432,0-0.584-0.192-0.584-0.672v-1.295
		c0-0.248,0.024-0.56,0.08-0.792c-0.088,0.16-0.184,0.312-0.28,0.448c-0.056,0.08-0.144,0.12-0.239,0.12
		c-0.064,0-0.128-0.024-0.192-0.064c-0.071-0.064-0.111-0.144-0.111-0.232c0-0.056,0.016-0.112,0.056-0.168
		c0.695-0.959,1.087-2.095,1.175-3.174H46.092z M47.747,33.789c0-0.176-0.048-0.232-0.192-0.232h-0.456
		c-0.144,0-0.191,0.056-0.191,0.232v2.391c0,0.184,0.048,0.24,0.191,0.24h0.448c0.144,0,0.2-0.056,0.2-0.24V33.789z M49.426,33.853
		c-0.032,0.64-0.08,1.215-0.168,1.719c-0.12,0.712-0.288,1.295-0.552,1.847c-0.048,0.088-0.144,0.16-0.256,0.16
		c-0.04,0-0.088-0.008-0.136-0.032c-0.088-0.048-0.144-0.144-0.144-0.248c0-0.056,0.016-0.104,0.04-0.152
		c0.256-0.567,0.415-1.111,0.527-1.839c0.12-0.823,0.16-2.007,0.16-3.382c0-0.496,0.247-0.68,0.703-0.68h1.104v-0.8
		c0-0.144,0.112-0.224,0.288-0.224c0.184,0,0.296,0.08,0.296,0.224v0.8h1.319c0.407,0,0.6,0.224,0.6,0.503
		c0,0.064-0.008,0.136-0.032,0.208c-0.112,0.336-0.296,0.68-0.487,0.927c-0.064,0.08-0.137,0.12-0.217,0.12
		c-0.056,0-0.119-0.016-0.184-0.056c-0.088-0.04-0.128-0.112-0.128-0.192c0-0.048,0.017-0.104,0.056-0.152
		c0.137-0.184,0.28-0.432,0.353-0.624c0.016-0.04,0.023-0.072,0.023-0.096c0-0.064-0.048-0.08-0.159-0.08h-1.16v1.511h0.992
		c0.359,0,0.567,0.184,0.567,0.479c0,0.096-0.024,0.208-0.064,0.32c-0.279,0.672-0.671,1.295-1.167,1.855
		c0.488,0.448,1.039,0.8,1.567,1.047c0.111,0.048,0.176,0.152,0.176,0.264c0,0.048-0.008,0.096-0.032,0.144
		c-0.063,0.12-0.16,0.184-0.271,0.184c-0.048,0-0.104-0.008-0.152-0.032c-0.6-0.288-1.184-0.696-1.695-1.184
		c-0.495,0.48-1.079,0.879-1.702,1.191c-0.057,0.024-0.112,0.04-0.168,0.04c-0.104,0-0.2-0.064-0.248-0.168
		c-0.032-0.056-0.04-0.104-0.04-0.16c0-0.112,0.063-0.208,0.176-0.264c0.584-0.256,1.127-0.616,1.6-1.047
		c-0.536-0.624-0.92-1.343-1.136-2.135H49.426z M50.705,33.317v-1.511h-0.976c-0.191,0-0.264,0.04-0.264,0.264
		c0,0.432-0.008,0.848-0.016,1.248H50.705z M50.233,33.853c0.191,0.647,0.527,1.223,0.983,1.727
		c0.408-0.464,0.743-0.983,0.968-1.543c0.016-0.04,0.023-0.072,0.023-0.096c0-0.064-0.04-0.088-0.159-0.088H50.233z"/>
	<path d="M55.707,32.27c0.144,0,0.216,0.104,0.216,0.271c0,0.16-0.072,0.288-0.216,0.288h-0.528v2.423
		c0.16-0.072,0.305-0.144,0.432-0.208c0.057-0.032,0.112-0.048,0.16-0.048c0.096,0,0.176,0.048,0.225,0.152
		c0.023,0.048,0.031,0.088,0.031,0.128c0,0.104-0.071,0.192-0.191,0.264c-0.464,0.256-1.184,0.552-1.743,0.744
		c-0.04,0.008-0.08,0.016-0.112,0.016c-0.128,0-0.216-0.088-0.256-0.216c-0.008-0.04-0.016-0.072-0.016-0.104
		c0-0.112,0.063-0.208,0.2-0.248c0.224-0.072,0.463-0.152,0.695-0.24V32.83h-0.624c-0.144,0-0.216-0.128-0.216-0.288
		c0-0.168,0.072-0.271,0.216-0.271h0.624v-1.831c0-0.144,0.12-0.216,0.296-0.216s0.279,0.072,0.279,0.216v1.831H55.707z
		 M57.162,35.852c-0.416,0.32-0.872,0.583-1.319,0.792c-0.056,0.024-0.104,0.032-0.152,0.032c-0.096,0-0.184-0.056-0.231-0.16
		c-0.032-0.048-0.04-0.096-0.04-0.136c0-0.104,0.056-0.2,0.168-0.24c0.703-0.296,1.423-0.72,1.911-1.247h-1.415
		c-0.137,0-0.208-0.104-0.208-0.256s0.071-0.256,0.208-0.256h2.03v-0.512h-1.367c-0.399,0-0.592-0.152-0.592-0.552v-0.855
		c0-0.4,0.192-0.56,0.6-0.56h1.367v-0.543h-2.007c-0.144,0-0.216-0.112-0.216-0.264c0-0.144,0.072-0.264,0.216-0.264h2.007v-0.424
		c0-0.152,0.104-0.208,0.288-0.208s0.28,0.056,0.28,0.208v0.424h2.23c0.136,0,0.208,0.112,0.208,0.264
		c0,0.152-0.072,0.264-0.208,0.264h-2.23v0.543h1.535c0.399,0,0.592,0.16,0.592,0.56v0.855c0,0.4-0.192,0.552-0.584,0.552h-1.552
		v0.512h2.287c0.136,0,0.216,0.104,0.216,0.256s-0.08,0.256-0.216,0.256h-2.135c0.152,0.344,0.352,0.664,0.6,0.951
		c0.32-0.216,0.64-0.479,0.84-0.704c0.063-0.072,0.136-0.104,0.216-0.104c0.056,0,0.12,0.024,0.176,0.064
		c0.063,0.048,0.104,0.128,0.104,0.208c0,0.056-0.023,0.112-0.063,0.16c-0.24,0.24-0.576,0.503-0.911,0.735
		c0.392,0.352,0.847,0.624,1.335,0.808c0.111,0.04,0.176,0.152,0.176,0.264c0,0.032-0.008,0.072-0.024,0.112
		c-0.056,0.136-0.151,0.2-0.264,0.2c-0.048,0-0.096-0.008-0.144-0.032c-1.119-0.448-2.079-1.352-2.583-2.663h-0.12
		c-0.144,0.176-0.295,0.344-0.463,0.503v1.383c0.367-0.08,0.719-0.176,1.031-0.28c0.032-0.008,0.063-0.016,0.096-0.016
		c0.104,0,0.184,0.064,0.216,0.192c0.008,0.032,0.008,0.056,0.008,0.08c0,0.128-0.071,0.232-0.191,0.272
		c-0.688,0.24-1.671,0.439-2.438,0.56c-0.024,0.008-0.04,0.008-0.064,0.008c-0.136,0-0.24-0.08-0.256-0.24
		c-0.008-0.016-0.008-0.04-0.008-0.056c0-0.136,0.08-0.24,0.224-0.264c0.272-0.04,0.552-0.088,0.84-0.136V35.852z M57.506,32.366
		h-0.607c-0.128,0-0.2,0.032-0.2,0.176v0.696c0,0.136,0.072,0.168,0.2,0.168h0.607V32.366z M58.849,33.405v-1.04h-0.831v1.04H58.849
		z M60.072,33.405c0.136,0,0.2-0.032,0.2-0.168v-0.696c0-0.144-0.064-0.176-0.2-0.176H59.36v1.04H60.072z"/>
	<path d="M62.979,34.948c0-0.328,0.023-0.671,0.088-1.047c-0.232,0.264-0.496,0.512-0.744,0.704
		c-0.056,0.04-0.111,0.064-0.168,0.064c-0.088,0-0.176-0.048-0.247-0.136c-0.04-0.064-0.064-0.128-0.064-0.192
		c0-0.08,0.04-0.16,0.128-0.232c0.712-0.56,1.319-1.215,1.768-1.983c0.063-0.088,0.136-0.136,0.231-0.136
		c0.056,0,0.112,0.016,0.176,0.048c0.096,0.064,0.152,0.144,0.152,0.232c0,0.048-0.017,0.104-0.048,0.152
		c-0.168,0.312-0.4,0.64-0.648,0.927v4.022c0,0.152-0.128,0.232-0.312,0.232c-0.176,0-0.312-0.08-0.312-0.232V34.948z
		 M63.787,30.239c0.063,0,0.136,0.016,0.191,0.056c0.096,0.056,0.152,0.144,0.152,0.24c0,0.056-0.017,0.104-0.048,0.152
		c-0.344,0.544-1.032,1.248-1.632,1.695c-0.063,0.048-0.136,0.072-0.199,0.072c-0.08,0-0.168-0.04-0.232-0.128
		c-0.048-0.064-0.071-0.136-0.071-0.208c0-0.088,0.039-0.167,0.127-0.224c0.576-0.416,1.128-0.952,1.496-1.543
		C63.619,30.279,63.707,30.239,63.787,30.239z M64.698,33.301c-0.152,0-0.231-0.128-0.231-0.288c0-0.167,0.079-0.288,0.231-0.288
		h4.246c0.144,0,0.224,0.12,0.224,0.288c0,0.152-0.08,0.288-0.224,0.288h-1.16v3.414c0,0.568-0.336,0.792-0.967,0.792
		c-0.304,0-0.656-0.04-0.912-0.096c-0.128-0.032-0.231-0.136-0.231-0.288c0-0.024,0-0.04,0.008-0.064
		c0.032-0.152,0.136-0.248,0.264-0.248c0.024,0,0.048,0,0.072,0.008c0.208,0.048,0.536,0.096,0.768,0.096
		c0.28,0,0.376-0.08,0.376-0.36v-3.254H64.698z M65.01,31.238c-0.144,0-0.224-0.128-0.224-0.296c0-0.167,0.08-0.28,0.224-0.28h3.566
		c0.144,0,0.224,0.112,0.224,0.28c0,0.16-0.08,0.296-0.224,0.296H65.01z"/>
	<path d="M76.345,34.237c0.415,0,0.631,0.176,0.631,0.552c0,0.024,0,0.04,0,0.064c-0.04,0.711-0.151,1.503-0.352,2.095
		c-0.136,0.408-0.416,0.583-0.999,0.583c-0.288,0-0.584-0.032-0.784-0.088c-0.12-0.04-0.184-0.128-0.184-0.248
		c0-0.032,0.008-0.064,0.016-0.104c0.032-0.144,0.112-0.216,0.225-0.216c0.016,0,0.039,0,0.063,0.008
		c0.176,0.048,0.392,0.08,0.576,0.08c0.335,0,0.472-0.072,0.552-0.344c0.111-0.392,0.231-1.056,0.271-1.655c0-0.008,0-0.016,0-0.024
		c0-0.136-0.08-0.176-0.232-0.176h-4.669c-0.384,0.439-0.792,0.815-1.176,1.095c-0.063,0.048-0.128,0.072-0.191,0.072
		c-0.104,0-0.192-0.056-0.256-0.16c-0.04-0.064-0.064-0.128-0.064-0.192c0-0.104,0.048-0.2,0.152-0.272
		c0.72-0.479,1.511-1.319,2.047-2.215c0.208-0.344,0.392-0.72,0.552-1.119h-2.175c-0.152,0-0.232-0.12-0.232-0.272
		c0-0.16,0.08-0.272,0.232-0.272h2.366c0.12-0.352,0.208-0.711,0.288-1.079c0.032-0.152,0.12-0.2,0.248-0.2
		c0.04,0,0.08,0.008,0.128,0.016c0.152,0.024,0.231,0.104,0.231,0.232c0,0.024,0,0.048-0.008,0.08
		c-0.071,0.32-0.151,0.64-0.256,0.951h1.936c0.423,0,0.631,0.216,0.631,0.544c0,0.064-0.008,0.128-0.023,0.192
		c-0.048,0.216-0.104,0.456-0.176,0.68h0.071c0.36,0,0.561,0.2,0.561,0.496c0,0.056-0.009,0.12-0.024,0.192
		c-0.064,0.224-0.136,0.464-0.216,0.704H76.345z M71.515,35.236c0.04,0,0.08,0.008,0.12,0.016c0.144,0.04,0.2,0.128,0.2,0.24
		c0,0.032-0.008,0.064-0.017,0.096c-0.144,0.608-0.455,1.288-0.711,1.679c-0.088,0.136-0.192,0.192-0.304,0.192
		c-0.057,0-0.112-0.016-0.168-0.056c-0.112-0.064-0.16-0.16-0.16-0.256c0-0.064,0.023-0.128,0.063-0.192
		c0.272-0.375,0.56-1.007,0.72-1.543C71.299,35.292,71.395,35.236,71.515,35.236z M72.099,30.911c0,0.064-0.032,0.136-0.096,0.2
		c-0.064,0.064-0.137,0.096-0.208,0.096c-0.064,0-0.128-0.024-0.168-0.072c-0.192-0.192-0.368-0.368-0.567-0.536
		c-0.049-0.04-0.072-0.096-0.072-0.152c0-0.072,0.032-0.152,0.104-0.216c0.064-0.064,0.137-0.088,0.2-0.088s0.128,0.024,0.184,0.072
		c0.192,0.152,0.384,0.344,0.552,0.528C72.074,30.799,72.099,30.854,72.099,30.911z M75.513,34.237
		c0.072-0.224,0.144-0.448,0.2-0.656c0.008-0.032,0.016-0.064,0.016-0.088c0-0.104-0.063-0.136-0.208-0.136h-3.038
		c-0.184,0.304-0.384,0.6-0.592,0.879H75.513z M72.683,35.22c0.136,0,0.224,0.08,0.256,0.216c0.096,0.456,0.159,0.983,0.176,1.439
		c0,0.008,0,0.008,0,0.016c0,0.192-0.112,0.288-0.272,0.304c-0.016,0-0.031,0-0.048,0c-0.151,0-0.287-0.08-0.287-0.272
		c0-0.024,0-0.056,0-0.08c0-0.408-0.057-0.903-0.137-1.303c-0.008-0.024-0.008-0.048-0.008-0.072c0-0.136,0.096-0.216,0.224-0.24
		C72.618,35.22,72.65,35.22,72.683,35.22z M75.121,32.846c0.071-0.224,0.12-0.432,0.151-0.616c0.009-0.04,0.017-0.08,0.017-0.112
		c0-0.104-0.057-0.144-0.208-0.144h-1.927c-0.12,0.296-0.248,0.583-0.392,0.872H75.121z M73.594,35.348
		c0-0.088,0.063-0.168,0.184-0.208c0.048-0.016,0.088-0.024,0.128-0.024c0.097,0,0.168,0.056,0.208,0.16
		c0.16,0.344,0.296,0.799,0.36,1.199c0.008,0.024,0.008,0.048,0.008,0.064c0,0.112-0.057,0.2-0.208,0.24
		c-0.04,0.008-0.072,0.016-0.104,0.016c-0.119,0-0.224-0.064-0.239-0.192c-0.056-0.336-0.192-0.8-0.32-1.16
		C73.602,35.412,73.594,35.38,73.594,35.348z M75.049,34.988c0.072,0,0.144,0.032,0.192,0.096c0.176,0.224,0.399,0.607,0.487,0.823
		c0.016,0.04,0.024,0.072,0.024,0.104c0,0.088-0.057,0.16-0.152,0.216c-0.048,0.024-0.104,0.04-0.16,0.04
		c-0.088,0-0.168-0.04-0.208-0.128c-0.104-0.24-0.271-0.543-0.423-0.784c-0.032-0.048-0.049-0.088-0.049-0.136
		c0-0.072,0.049-0.144,0.137-0.192C74.945,35.004,75.001,34.988,75.049,34.988z"/>
</g>
<g>
	<path d="M126.582,22.861c-0.145,0-0.192,0.048-0.216,0.192c-0.032,0.248-0.089,0.544-0.152,0.816
		c-0.008,0.04-0.016,0.064-0.016,0.096c0,0.104,0.063,0.136,0.199,0.136h0.808c0.44,0,0.647,0.191,0.64,0.624
		c-0.008,0.808-0.111,1.575-0.288,2.167c-0.136,0.472-0.472,0.608-0.943,0.608c-0.247,0-0.527-0.032-0.751-0.096
		c-0.128-0.032-0.208-0.128-0.208-0.264c0-0.032,0.008-0.072,0.016-0.112c0.048-0.152,0.136-0.208,0.232-0.208
		c0.031,0,0.063,0.008,0.088,0.016c0.168,0.048,0.384,0.08,0.56,0.08c0.271,0,0.407-0.056,0.479-0.312
		c0.104-0.368,0.216-1.007,0.224-1.743c0-0.168-0.08-0.216-0.239-0.216h-0.912c-0.319,0-0.512-0.136-0.512-0.408
		c0-0.048,0.009-0.104,0.017-0.16c0.088-0.408,0.151-0.847,0.224-1.271c0.063-0.36,0.216-0.488,0.607-0.488h0.64
		c0.145,0,0.224-0.048,0.224-0.208v-0.863c0-0.16-0.079-0.2-0.216-0.2h-1.263c-0.145,0-0.232-0.12-0.232-0.28
		c0-0.16,0.088-0.28,0.232-0.28h1.423c0.448,0,0.647,0.176,0.647,0.656v1.111c0,0.456-0.191,0.607-0.615,0.607H126.582z
		 M130.636,23.109h1.263c0.424,0,0.616,0.176,0.616,0.608v1.071c0,0.432-0.192,0.607-0.616,0.607h-1.263v1.136
		c0.375-0.048,0.751-0.104,1.127-0.168c-0.08-0.128-0.16-0.248-0.231-0.352c-0.048-0.064-0.072-0.128-0.072-0.184
		c0-0.08,0.056-0.152,0.144-0.208c0.057-0.032,0.104-0.048,0.16-0.048c0.08,0,0.16,0.04,0.24,0.144
		c0.256,0.344,0.607,0.879,0.871,1.407c0.024,0.048,0.032,0.088,0.032,0.128c0,0.104-0.072,0.192-0.184,0.256
		c-0.049,0.024-0.097,0.04-0.145,0.04c-0.096,0-0.184-0.064-0.224-0.152c-0.096-0.184-0.2-0.376-0.312-0.568
		c-1.184,0.24-2.463,0.4-3.847,0.496c-0.008,0-0.023,0-0.031,0c-0.152,0-0.256-0.104-0.264-0.28c0-0.016,0-0.024,0-0.04
		c0-0.16,0.096-0.264,0.247-0.272c0.64-0.024,1.288-0.072,1.911-0.136v-1.199h-1.144c-0.424,0-0.615-0.176-0.615-0.607v-1.071
		c0-0.432,0.191-0.608,0.615-0.608h1.144v-0.751c-0.567,0.048-1.151,0.072-1.703,0.088c-0.151,0-0.239-0.096-0.248-0.288
		c0-0.16,0.08-0.271,0.232-0.271c0.151,0,0.304-0.008,0.464-0.008c0.327-0.503,0.615-1.055,0.808-1.535
		c0.048-0.12,0.144-0.168,0.264-0.168c0.04,0,0.08,0.008,0.12,0.016c0.144,0.032,0.231,0.104,0.231,0.216
		c0,0.04-0.008,0.08-0.032,0.12c-0.208,0.448-0.479,0.919-0.751,1.335c0.728-0.032,1.455-0.063,2.175-0.152
		c-0.192-0.248-0.4-0.488-0.616-0.735c-0.04-0.04-0.063-0.096-0.063-0.152c0-0.064,0.032-0.136,0.111-0.192
		c0.057-0.04,0.12-0.056,0.177-0.056c0.079,0,0.144,0.032,0.207,0.088c0.496,0.504,0.952,1.08,1.312,1.615
		c0.032,0.048,0.048,0.104,0.048,0.152c0,0.088-0.048,0.168-0.144,0.232c-0.056,0.04-0.12,0.056-0.184,0.056
		c-0.089,0-0.168-0.04-0.208-0.112c-0.097-0.152-0.192-0.295-0.296-0.439c-0.44,0.064-0.88,0.104-1.327,0.152V23.109z
		 M130.06,23.629h-0.959c-0.152,0-0.225,0.04-0.225,0.192v0.855c0,0.152,0.072,0.2,0.225,0.2h0.959V23.629z M131.723,24.876
		c0.152,0,0.216-0.048,0.216-0.2v-0.855c0-0.152-0.063-0.192-0.216-0.192h-1.087v1.248H131.723z"/>
	<path d="M136.188,21.574c0.136,0,0.216,0.112,0.216,0.272c0,0.16-0.08,0.271-0.216,0.271h-2.486c-0.144,0-0.216-0.112-0.216-0.271
		c0-0.16,0.072-0.272,0.216-0.272H136.188z M136.108,26.827c0,0.408-0.191,0.576-0.615,0.576h-1.159
		c-0.416,0-0.608-0.168-0.608-0.576v-1.303c0-0.408,0.192-0.576,0.608-0.576h1.159c0.424,0,0.615,0.168,0.615,0.576V26.827z
		 M133.934,23.237c-0.136,0-0.199-0.12-0.199-0.264c0-0.144,0.063-0.264,0.199-0.264h2.031c0.128,0,0.2,0.12,0.2,0.264
		c0,0.136-0.072,0.264-0.2,0.264H133.934z M133.934,24.357c-0.136,0-0.199-0.12-0.199-0.264s0.063-0.264,0.199-0.264h2.016
		c0.136,0,0.208,0.12,0.208,0.264c0,0.136-0.072,0.264-0.208,0.264H133.934z M135.98,20.455c0.137,0,0.208,0.104,0.208,0.264
		c0,0.152-0.071,0.264-0.208,0.264h-2.022c-0.128,0-0.208-0.112-0.208-0.264c0-0.16,0.08-0.264,0.208-0.264H135.98z M134.502,25.428
		c-0.145,0-0.216,0.048-0.216,0.192v1.087c0,0.152,0.071,0.192,0.216,0.192h0.831c0.145,0,0.216-0.04,0.216-0.192V25.62
		c0-0.144-0.071-0.192-0.216-0.192H134.502z M140.698,22.414c0.136,0,0.224,0.104,0.224,0.264c0,0.168-0.088,0.28-0.224,0.28h-1.151
		v1.655c0.408,0.248,0.8,0.512,1.096,0.759c0.071,0.056,0.111,0.136,0.111,0.224c0,0.056-0.016,0.112-0.056,0.176
		c-0.064,0.096-0.144,0.144-0.231,0.144c-0.049,0-0.104-0.016-0.152-0.056c-0.216-0.192-0.472-0.376-0.768-0.576v2.103
		c0,0.152-0.096,0.231-0.296,0.231c-0.176,0-0.279-0.08-0.279-0.231v-2.455c-0.313-0.176-0.648-0.359-1.016-0.543
		c-0.088-0.04-0.145-0.12-0.145-0.216c0-0.048,0.017-0.096,0.04-0.152c0.064-0.104,0.152-0.152,0.24-0.152
		c0.032,0,0.063,0.008,0.096,0.016c0.232,0.112,0.504,0.248,0.784,0.4v-1.327h-1.464v0.304c0,1.911-0.191,3.094-0.623,4.15
		c-0.04,0.112-0.16,0.2-0.288,0.2c-0.04,0-0.088-0.008-0.136-0.032c-0.12-0.056-0.177-0.152-0.177-0.272
		c0-0.064,0.017-0.136,0.049-0.216c0.432-0.976,0.575-2.087,0.575-3.966V21.47c0-0.4,0.176-0.656,0.567-0.688
		c0.928-0.072,1.983-0.248,2.671-0.496c0.056-0.016,0.104-0.024,0.152-0.024c0.111,0,0.199,0.056,0.256,0.176
		c0.031,0.056,0.04,0.104,0.04,0.152c0,0.112-0.064,0.208-0.177,0.24c-0.759,0.248-1.807,0.416-2.678,0.488
		c-0.168,0.016-0.232,0.096-0.232,0.32v0.775H140.698z"/>
	<path d="M145.868,23.909c0,0.4-0.328,0.72-0.72,0.72c-0.4,0-0.72-0.32-0.72-0.72c0-0.399,0.319-0.719,0.72-0.719
		C145.54,23.189,145.868,23.517,145.868,23.909z"/>
	<path d="M125.742,31.134c-0.152,0-0.224-0.12-0.224-0.288c0-0.16,0.071-0.272,0.224-0.272h2.351c0.152,0,0.224,0.112,0.224,0.272
		c0,0.168-0.071,0.288-0.224,0.288h-1.023c-0.072,0.664-0.208,1.312-0.464,1.927c0.072-0.024,0.144-0.04,0.224-0.04h0.536
		c0.432,0,0.584,0.2,0.584,0.671v2.575c0,0.464-0.185,0.696-0.592,0.696h-0.768c-0.432,0-0.584-0.192-0.584-0.672v-1.295
		c0-0.248,0.024-0.56,0.08-0.792c-0.088,0.16-0.184,0.312-0.28,0.448c-0.056,0.08-0.144,0.12-0.239,0.12
		c-0.064,0-0.128-0.024-0.192-0.064c-0.071-0.064-0.111-0.144-0.111-0.232c0-0.056,0.016-0.112,0.056-0.168
		c0.695-0.959,1.087-2.095,1.175-3.174H125.742z M127.397,33.789c0-0.176-0.048-0.232-0.192-0.232h-0.456
		c-0.144,0-0.191,0.056-0.191,0.232v2.391c0,0.184,0.048,0.24,0.191,0.24h0.448c0.144,0,0.2-0.056,0.2-0.24V33.789z M129.076,33.853
		c-0.032,0.64-0.08,1.215-0.168,1.719c-0.12,0.712-0.288,1.295-0.552,1.847c-0.048,0.088-0.144,0.16-0.256,0.16
		c-0.04,0-0.088-0.008-0.136-0.032c-0.088-0.048-0.144-0.144-0.144-0.248c0-0.056,0.016-0.104,0.04-0.152
		c0.256-0.567,0.415-1.111,0.527-1.839c0.12-0.823,0.16-2.007,0.16-3.382c0-0.496,0.247-0.68,0.703-0.68h1.104v-0.8
		c0-0.144,0.112-0.224,0.288-0.224c0.184,0,0.296,0.08,0.296,0.224v0.8h1.319c0.407,0,0.6,0.224,0.6,0.503
		c0,0.064-0.008,0.136-0.032,0.208c-0.112,0.336-0.296,0.68-0.487,0.927c-0.064,0.08-0.137,0.12-0.217,0.12
		c-0.056,0-0.119-0.016-0.184-0.056c-0.088-0.04-0.128-0.112-0.128-0.192c0-0.048,0.017-0.104,0.056-0.152
		c0.137-0.184,0.28-0.432,0.353-0.624c0.016-0.04,0.023-0.072,0.023-0.096c0-0.064-0.048-0.08-0.159-0.08h-1.16v1.511h0.992
		c0.359,0,0.567,0.184,0.567,0.479c0,0.096-0.024,0.208-0.064,0.32c-0.279,0.672-0.671,1.295-1.167,1.855
		c0.488,0.448,1.039,0.8,1.567,1.047c0.111,0.048,0.176,0.152,0.176,0.264c0,0.048-0.008,0.096-0.032,0.144
		c-0.063,0.12-0.16,0.184-0.271,0.184c-0.048,0-0.104-0.008-0.152-0.032c-0.6-0.288-1.184-0.696-1.695-1.184
		c-0.495,0.48-1.079,0.879-1.702,1.191c-0.057,0.024-0.112,0.04-0.168,0.04c-0.104,0-0.2-0.064-0.248-0.168
		c-0.032-0.056-0.04-0.104-0.04-0.16c0-0.112,0.063-0.208,0.176-0.264c0.584-0.256,1.127-0.616,1.6-1.047
		c-0.536-0.624-0.92-1.343-1.136-2.135H129.076z M130.355,33.317v-1.511h-0.976c-0.191,0-0.264,0.04-0.264,0.264
		c0,0.432-0.008,0.848-0.016,1.248H130.355z M129.884,33.853c0.191,0.647,0.527,1.223,0.983,1.727
		c0.408-0.464,0.743-0.983,0.968-1.543c0.016-0.04,0.023-0.072,0.023-0.096c0-0.064-0.04-0.088-0.159-0.088H129.884z"/>
	<path d="M135.357,32.27c0.144,0,0.216,0.104,0.216,0.271c0,0.16-0.072,0.288-0.216,0.288h-0.528v2.423
		c0.16-0.072,0.305-0.144,0.432-0.208c0.057-0.032,0.112-0.048,0.16-0.048c0.096,0,0.176,0.048,0.225,0.152
		c0.023,0.048,0.031,0.088,0.031,0.128c0,0.104-0.071,0.192-0.191,0.264c-0.464,0.256-1.184,0.552-1.743,0.744
		c-0.04,0.008-0.08,0.016-0.112,0.016c-0.128,0-0.216-0.088-0.256-0.216c-0.008-0.04-0.016-0.072-0.016-0.104
		c0-0.112,0.063-0.208,0.2-0.248c0.224-0.072,0.463-0.152,0.695-0.24V32.83h-0.624c-0.144,0-0.216-0.128-0.216-0.288
		c0-0.168,0.072-0.271,0.216-0.271h0.624v-1.831c0-0.144,0.12-0.216,0.296-0.216s0.279,0.072,0.279,0.216v1.831H135.357z
		 M136.813,35.852c-0.416,0.32-0.872,0.583-1.319,0.792c-0.056,0.024-0.104,0.032-0.152,0.032c-0.096,0-0.184-0.056-0.231-0.16
		c-0.032-0.048-0.04-0.096-0.04-0.136c0-0.104,0.056-0.2,0.168-0.24c0.703-0.296,1.423-0.72,1.911-1.247h-1.415
		c-0.137,0-0.208-0.104-0.208-0.256s0.071-0.256,0.208-0.256h2.03v-0.512h-1.367c-0.399,0-0.592-0.152-0.592-0.552v-0.855
		c0-0.4,0.192-0.56,0.6-0.56h1.367v-0.543h-2.007c-0.144,0-0.216-0.112-0.216-0.264c0-0.144,0.072-0.264,0.216-0.264h2.007v-0.424
		c0-0.152,0.104-0.208,0.288-0.208s0.28,0.056,0.28,0.208v0.424h2.23c0.136,0,0.208,0.112,0.208,0.264
		c0,0.152-0.072,0.264-0.208,0.264h-2.23v0.543h1.535c0.399,0,0.592,0.16,0.592,0.56v0.855c0,0.4-0.192,0.552-0.584,0.552h-1.552
		v0.512h2.287c0.136,0,0.216,0.104,0.216,0.256s-0.08,0.256-0.216,0.256h-2.135c0.152,0.344,0.352,0.664,0.6,0.951
		c0.32-0.216,0.64-0.479,0.84-0.704c0.063-0.072,0.136-0.104,0.216-0.104c0.056,0,0.12,0.024,0.176,0.064
		c0.063,0.048,0.104,0.128,0.104,0.208c0,0.056-0.023,0.112-0.063,0.16c-0.24,0.24-0.576,0.503-0.911,0.735
		c0.392,0.352,0.847,0.624,1.335,0.808c0.111,0.04,0.176,0.152,0.176,0.264c0,0.032-0.008,0.072-0.024,0.112
		c-0.056,0.136-0.151,0.2-0.264,0.2c-0.048,0-0.096-0.008-0.144-0.032c-1.119-0.448-2.079-1.352-2.583-2.663h-0.12
		c-0.144,0.176-0.295,0.344-0.463,0.503v1.383c0.367-0.08,0.719-0.176,1.031-0.28c0.032-0.008,0.063-0.016,0.096-0.016
		c0.104,0,0.184,0.064,0.216,0.192c0.008,0.032,0.008,0.056,0.008,0.08c0,0.128-0.071,0.232-0.191,0.272
		c-0.688,0.24-1.671,0.439-2.438,0.56c-0.024,0.008-0.04,0.008-0.064,0.008c-0.136,0-0.24-0.08-0.256-0.24
		c-0.008-0.016-0.008-0.04-0.008-0.056c0-0.136,0.08-0.24,0.224-0.264c0.272-0.04,0.552-0.088,0.84-0.136V35.852z M137.156,32.366
		h-0.607c-0.128,0-0.2,0.032-0.2,0.176v0.696c0,0.136,0.072,0.168,0.2,0.168h0.607V32.366z M138.499,33.405v-1.04h-0.831v1.04
		H138.499z M139.723,33.405c0.136,0,0.2-0.032,0.2-0.168v-0.696c0-0.144-0.064-0.176-0.2-0.176h-0.712v1.04H139.723z"/>
	<path d="M142.63,34.948c0-0.328,0.023-0.671,0.088-1.047c-0.232,0.264-0.496,0.512-0.744,0.704
		c-0.056,0.04-0.111,0.064-0.168,0.064c-0.088,0-0.176-0.048-0.247-0.136c-0.04-0.064-0.064-0.128-0.064-0.192
		c0-0.08,0.04-0.16,0.128-0.232c0.712-0.56,1.319-1.215,1.768-1.983c0.063-0.088,0.136-0.136,0.231-0.136
		c0.056,0,0.112,0.016,0.176,0.048c0.096,0.064,0.152,0.144,0.152,0.232c0,0.048-0.017,0.104-0.048,0.152
		c-0.168,0.312-0.4,0.64-0.648,0.927v4.022c0,0.152-0.128,0.232-0.312,0.232c-0.176,0-0.312-0.08-0.312-0.232V34.948z
		 M143.438,30.239c0.063,0,0.136,0.016,0.191,0.056c0.096,0.056,0.152,0.144,0.152,0.24c0,0.056-0.017,0.104-0.048,0.152
		c-0.344,0.544-1.032,1.248-1.632,1.695c-0.063,0.048-0.136,0.072-0.199,0.072c-0.08,0-0.168-0.04-0.232-0.128
		c-0.048-0.064-0.071-0.136-0.071-0.208c0-0.088,0.039-0.167,0.127-0.224c0.576-0.416,1.128-0.952,1.496-1.543
		C143.27,30.279,143.357,30.239,143.438,30.239z M144.349,33.301c-0.152,0-0.231-0.128-0.231-0.288c0-0.167,0.079-0.288,0.231-0.288
		h4.246c0.144,0,0.224,0.12,0.224,0.288c0,0.152-0.08,0.288-0.224,0.288h-1.16v3.414c0,0.568-0.336,0.792-0.967,0.792
		c-0.304,0-0.656-0.04-0.912-0.096c-0.128-0.032-0.231-0.136-0.231-0.288c0-0.024,0-0.04,0.008-0.064
		c0.032-0.152,0.136-0.248,0.264-0.248c0.024,0,0.048,0,0.072,0.008c0.208,0.048,0.536,0.096,0.768,0.096
		c0.28,0,0.376-0.08,0.376-0.36v-3.254H144.349z M144.66,31.238c-0.144,0-0.224-0.128-0.224-0.296c0-0.167,0.08-0.28,0.224-0.28
		h3.566c0.144,0,0.224,0.112,0.224,0.28c0,0.16-0.08,0.296-0.224,0.296H144.66z"/>
	<path d="M155.995,34.237c0.415,0,0.631,0.176,0.631,0.552c0,0.024,0,0.04,0,0.064c-0.04,0.711-0.151,1.503-0.352,2.095
		c-0.136,0.408-0.416,0.583-0.999,0.583c-0.288,0-0.584-0.032-0.784-0.088c-0.12-0.04-0.184-0.128-0.184-0.248
		c0-0.032,0.008-0.064,0.016-0.104c0.032-0.144,0.112-0.216,0.225-0.216c0.016,0,0.039,0,0.063,0.008
		c0.176,0.048,0.392,0.08,0.576,0.08c0.335,0,0.472-0.072,0.552-0.344c0.111-0.392,0.231-1.056,0.271-1.655c0-0.008,0-0.016,0-0.024
		c0-0.136-0.08-0.176-0.232-0.176h-4.669c-0.384,0.439-0.792,0.815-1.176,1.095c-0.063,0.048-0.128,0.072-0.191,0.072
		c-0.104,0-0.192-0.056-0.256-0.16c-0.04-0.064-0.064-0.128-0.064-0.192c0-0.104,0.048-0.2,0.152-0.272
		c0.72-0.479,1.511-1.319,2.047-2.215c0.208-0.344,0.392-0.72,0.552-1.119h-2.175c-0.152,0-0.232-0.12-0.232-0.272
		c0-0.16,0.08-0.272,0.232-0.272h2.366c0.12-0.352,0.208-0.711,0.288-1.079c0.032-0.152,0.12-0.2,0.248-0.2
		c0.04,0,0.08,0.008,0.128,0.016c0.152,0.024,0.231,0.104,0.231,0.232c0,0.024,0,0.048-0.008,0.08
		c-0.071,0.32-0.151,0.64-0.256,0.951h1.936c0.423,0,0.631,0.216,0.631,0.544c0,0.064-0.008,0.128-0.023,0.192
		c-0.048,0.216-0.104,0.456-0.176,0.68h0.071c0.36,0,0.561,0.2,0.561,0.496c0,0.056-0.009,0.12-0.024,0.192
		c-0.064,0.224-0.136,0.464-0.216,0.704H155.995z M151.165,35.236c0.04,0,0.08,0.008,0.12,0.016c0.144,0.04,0.2,0.128,0.2,0.24
		c0,0.032-0.008,0.064-0.017,0.096c-0.144,0.608-0.455,1.288-0.711,1.679c-0.088,0.136-0.192,0.192-0.304,0.192
		c-0.057,0-0.112-0.016-0.168-0.056c-0.112-0.064-0.16-0.16-0.16-0.256c0-0.064,0.023-0.128,0.063-0.192
		c0.272-0.375,0.56-1.007,0.72-1.543C150.949,35.292,151.045,35.236,151.165,35.236z M151.749,30.911c0,0.064-0.032,0.136-0.096,0.2
		c-0.064,0.064-0.137,0.096-0.208,0.096c-0.064,0-0.128-0.024-0.168-0.072c-0.192-0.192-0.368-0.368-0.567-0.536
		c-0.049-0.04-0.072-0.096-0.072-0.152c0-0.072,0.032-0.152,0.104-0.216c0.064-0.064,0.137-0.088,0.2-0.088s0.128,0.024,0.184,0.072
		c0.192,0.152,0.384,0.344,0.552,0.528C151.725,30.799,151.749,30.854,151.749,30.911z M155.163,34.237
		c0.072-0.224,0.144-0.448,0.2-0.656c0.008-0.032,0.016-0.064,0.016-0.088c0-0.104-0.063-0.136-0.208-0.136h-3.038
		c-0.184,0.304-0.384,0.6-0.592,0.879H155.163z M152.333,35.22c0.136,0,0.224,0.08,0.256,0.216c0.096,0.456,0.159,0.983,0.176,1.439
		c0,0.008,0,0.008,0,0.016c0,0.192-0.112,0.288-0.272,0.304c-0.016,0-0.031,0-0.048,0c-0.151,0-0.287-0.08-0.287-0.272
		c0-0.024,0-0.056,0-0.08c0-0.408-0.057-0.903-0.137-1.303c-0.008-0.024-0.008-0.048-0.008-0.072c0-0.136,0.096-0.216,0.224-0.24
		C152.269,35.22,152.301,35.22,152.333,35.22z M154.771,32.846c0.071-0.224,0.12-0.432,0.151-0.616
		c0.009-0.04,0.017-0.08,0.017-0.112c0-0.104-0.057-0.144-0.208-0.144h-1.927c-0.12,0.296-0.248,0.583-0.392,0.872H154.771z
		 M153.244,35.348c0-0.088,0.063-0.168,0.184-0.208c0.048-0.016,0.088-0.024,0.128-0.024c0.097,0,0.168,0.056,0.208,0.16
		c0.16,0.344,0.296,0.799,0.36,1.199c0.008,0.024,0.008,0.048,0.008,0.064c0,0.112-0.057,0.2-0.208,0.24
		c-0.04,0.008-0.072,0.016-0.104,0.016c-0.119,0-0.224-0.064-0.239-0.192c-0.056-0.336-0.192-0.8-0.32-1.16
		C153.252,35.412,153.244,35.38,153.244,35.348z M154.699,34.988c0.072,0,0.144,0.032,0.192,0.096
		c0.176,0.224,0.399,0.607,0.487,0.823c0.016,0.04,0.024,0.072,0.024,0.104c0,0.088-0.057,0.16-0.152,0.216
		c-0.048,0.024-0.104,0.04-0.16,0.04c-0.088,0-0.168-0.04-0.208-0.128c-0.104-0.24-0.271-0.543-0.423-0.784
		c-0.032-0.048-0.049-0.088-0.049-0.136c0-0.072,0.049-0.144,0.137-0.192C154.596,35.004,154.651,34.988,154.699,34.988z"/>
</g>
<g>
	<path d="M8.869,63.909c-0.42,0-0.739,0.02-1.06,0.06v-0.71c0.311,0.04,0.61,0.061,1.06,0.061h6.656c0.44,0,0.77-0.021,1.06-0.061
		v0.71c-0.3-0.04-0.649-0.06-1.06-0.06h-2.948c-0.16,0.549-0.37,1.129-0.569,1.599h2.588c0.38,0,0.67-0.021,0.97-0.05
		c-0.03,0.27-0.05,0.56-0.05,0.899v4.638c0,0.34,0.02,0.649,0.06,0.979h-0.729v-0.629H9.579v0.629h-0.72
		c0.04-0.34,0.06-0.619,0.06-0.979v-4.648c0-0.319-0.02-0.609-0.05-0.889c0.29,0.029,0.569,0.05,0.93,0.05h1.529
		c0.22-0.5,0.38-0.939,0.56-1.599H8.869z M9.579,67.997h5.267v-1.92H9.579V67.997z M9.579,70.765h5.267v-2.188H9.579V70.765z"/>
	<path d="M20.219,65.038c0.439,0,0.699-0.01,0.899-0.04c-0.021,0.149-0.03,0.34-0.05,0.53c-0.101,1.619-0.36,2.788-0.85,3.838
		c0.42,0.34,0.6,0.489,1.079,0.949l-0.42,0.529c-0.42-0.459-0.6-0.629-0.939-0.93c-0.5,0.85-0.979,1.39-1.829,2.039
		c-0.1-0.14-0.35-0.4-0.479-0.51c0.84-0.56,1.399-1.139,1.839-1.919c-0.55-0.439-0.81-0.62-1.479-1.039
		c0.369-0.87,0.649-1.829,0.859-2.889h-0.271c-0.31,0-0.579,0.021-0.839,0.05v-0.659c0.22,0.04,0.439,0.05,0.869,0.05h0.34
		c0.18-0.949,0.25-1.549,0.25-1.949c0-0.029,0-0.06-0.01-0.109l0.72,0.06c-0.051,0.22-0.07,0.31-0.131,0.729
		c-0.069,0.5-0.1,0.68-0.209,1.27H20.219z M19.459,65.598c-0.22,1.1-0.439,1.879-0.76,2.688c0.51,0.33,0.689,0.449,1.04,0.709
		c0.439-0.979,0.579-1.608,0.739-3.397H19.459z M24.396,67.927h1.02c0.459,0,0.729-0.01,1.039-0.051v0.68
		c-0.3-0.039-0.609-0.05-1.039-0.05h-1.02v2.559h1.339c0.41,0,0.72-0.02,1.06-0.06v0.709c-0.33-0.039-0.689-0.06-1.06-0.06h-3.478
		c-0.38,0-0.73,0.021-1.06,0.06v-0.709c0.31,0.04,0.63,0.06,1.06,0.06h1.509v-2.559h-0.97c-0.409,0-0.749,0.021-1.049,0.05v-0.68
		c0.279,0.041,0.589,0.051,1.049,0.051h0.97v-2.109h-1.339c-0.2,0.609-0.351,0.979-0.64,1.51c-0.221-0.141-0.32-0.19-0.561-0.28
		c0.431-0.749,0.67-1.359,0.86-2.229c0.119-0.53,0.18-0.96,0.18-1.229c0-0.01,0-0.04,0-0.08l0.68,0.07
		c-0.05,0.17-0.061,0.25-0.11,0.52c-0.069,0.41-0.16,0.83-0.239,1.139h1.169v-1.269c0-0.36-0.02-0.649-0.07-0.989h0.77
		c-0.05,0.319-0.069,0.619-0.069,1.01v1.248h1.219c0.48,0,0.81-0.02,1.01-0.06v0.7c-0.38-0.041-0.649-0.061-0.989-0.061h-1.239
		V67.927z"/>
</g>
<g>
	<path d="M52.669,63.909c-0.42,0-0.739,0.02-1.06,0.06v-0.71c0.311,0.04,0.61,0.061,1.06,0.061h6.656c0.44,0,0.77-0.021,1.06-0.061
		v0.71c-0.3-0.04-0.649-0.06-1.06-0.06h-2.948c-0.16,0.549-0.37,1.129-0.569,1.599h2.588c0.38,0,0.67-0.021,0.97-0.05
		c-0.03,0.27-0.05,0.56-0.05,0.899v4.638c0,0.34,0.02,0.649,0.06,0.979h-0.729v-0.629h-5.267v0.629h-0.72
		c0.04-0.34,0.06-0.619,0.06-0.979v-4.648c0-0.319-0.02-0.609-0.05-0.889c0.29,0.029,0.569,0.05,0.93,0.05h1.529
		c0.22-0.5,0.38-0.939,0.56-1.599H52.669z M53.379,67.997h5.267v-1.92h-5.267V67.997z M53.379,70.765h5.267v-2.188h-5.267V70.765z"
		/>
	<path d="M64.019,65.038c0.439,0,0.699-0.01,0.899-0.04c-0.021,0.149-0.03,0.34-0.05,0.53c-0.101,1.619-0.36,2.788-0.85,3.838
		c0.42,0.34,0.6,0.489,1.079,0.949l-0.42,0.529c-0.42-0.459-0.6-0.629-0.939-0.93c-0.5,0.85-0.979,1.39-1.829,2.039
		c-0.1-0.14-0.35-0.4-0.479-0.51c0.84-0.56,1.399-1.139,1.839-1.919c-0.55-0.439-0.81-0.62-1.479-1.039
		c0.369-0.87,0.649-1.829,0.859-2.889h-0.271c-0.31,0-0.579,0.021-0.839,0.05v-0.659c0.22,0.04,0.439,0.05,0.869,0.05h0.34
		c0.18-0.949,0.25-1.549,0.25-1.949c0-0.029,0-0.06-0.01-0.109l0.72,0.06c-0.051,0.22-0.07,0.31-0.131,0.729
		c-0.069,0.5-0.1,0.68-0.209,1.27H64.019z M63.259,65.598c-0.22,1.1-0.439,1.879-0.76,2.688c0.51,0.33,0.689,0.449,1.04,0.709
		c0.439-0.979,0.579-1.608,0.739-3.397H63.259z M68.196,67.927h1.02c0.459,0,0.729-0.01,1.039-0.051v0.68
		c-0.3-0.039-0.609-0.05-1.039-0.05h-1.02v2.559h1.339c0.41,0,0.72-0.02,1.06-0.06v0.709c-0.33-0.039-0.689-0.06-1.06-0.06h-3.478
		c-0.38,0-0.73,0.021-1.06,0.06v-0.709c0.31,0.04,0.63,0.06,1.06,0.06h1.509v-2.559h-0.97c-0.409,0-0.749,0.021-1.049,0.05v-0.68
		c0.279,0.041,0.589,0.051,1.049,0.051h0.97v-2.109h-1.339c-0.2,0.609-0.351,0.979-0.64,1.51c-0.221-0.141-0.32-0.19-0.561-0.28
		c0.431-0.749,0.67-1.359,0.86-2.229c0.119-0.53,0.18-0.96,0.18-1.229c0-0.01,0-0.04,0-0.08l0.68,0.07
		c-0.05,0.17-0.061,0.25-0.11,0.52c-0.069,0.41-0.16,0.83-0.239,1.139h1.169v-1.269c0-0.36-0.02-0.649-0.07-0.989h0.77
		c-0.05,0.319-0.069,0.619-0.069,1.01v1.248h1.219c0.48,0,0.81-0.02,1.01-0.06v0.7c-0.38-0.041-0.649-0.061-0.989-0.061h-1.239
		V67.927z"/>
</g>
<g>
	<path d="M8.533,37.468c0-0.456-0.023-0.731-0.071-1.02h0.875c-0.06,0.324-0.072,0.576-0.072,1.031v1.344h0.564
		c0.407,0,0.695-0.012,1.043-0.061v0.792c-0.348-0.048-0.647-0.06-1.043-0.06H9.337c0.312,0.755,0.324,0.779,0.527,1.163
		c0.349,0.624,0.624,1.007,1.128,1.535c-0.156,0.192-0.312,0.419-0.444,0.695c-0.623-0.827-0.899-1.319-1.331-2.398
		c0.036,0.827,0.048,1.319,0.048,2.206v3.467c0,0.527,0.024,0.803,0.072,1.127H8.462c0.048-0.299,0.071-0.611,0.071-1.115v-3.286
		c0-0.804,0.013-1.367,0.061-2.206c-0.492,1.666-1.056,2.83-1.919,3.934c-0.145-0.264-0.313-0.492-0.492-0.672
		c0.924-1.02,1.883-2.938,2.219-4.449H7.61c-0.456,0-0.732,0.012-1.08,0.06v-0.792c0.324,0.036,0.647,0.061,1.08,0.061h0.923V37.468
		z M15.634,46.043c0,0.756-0.252,0.936-1.344,0.936c-0.455,0-0.839-0.024-1.439-0.071c-0.035-0.349-0.096-0.541-0.216-0.816
		c0.708,0.107,1.235,0.156,1.596,0.156c0.527,0,0.611-0.036,0.611-0.313V39.65h-2.482c-0.479,0-0.936,0.024-1.247,0.072v-0.84
		c0.287,0.048,0.72,0.072,1.235,0.072h2.494v-1.067c0-0.576-0.023-1.043-0.084-1.379h0.947c-0.048,0.372-0.071,0.815-0.071,1.391
		v1.056h0.312c0.492,0,0.827-0.024,1.151-0.072v0.815c-0.372-0.035-0.756-0.048-1.14-0.048h-0.323V46.043z M13.007,44.088
		c-0.504-1.235-0.936-1.991-1.679-2.986l0.684-0.348c0.707,0.947,1.199,1.787,1.715,2.878L13.007,44.088z"/>
</g>
<polyline fill="none" stroke="#EF5400" stroke-miterlimit="10" points="18.25,42.446 77.5,42.446 77.5,73.679 0.5,73.679 
	0.5,42.446 4.625,42.446 "/>
<g>
	<path d="M97.622,53.474c-0.719,1.464-0.839,1.656-1.786,3.047l-0.672-0.576c0.407-0.395,0.684-0.755,1.091-1.402
		c0.3-0.48,0.48-0.852,0.792-1.596L97.622,53.474z M97.011,52.203c-0.527-0.528-1.008-0.876-1.763-1.296l0.432-0.539
		c0.768,0.432,1.127,0.672,1.787,1.223L97.011,52.203z M98.378,46.53c0-0.313-0.023-0.527-0.048-0.756h0.815
		c-0.036,0.229-0.048,0.432-0.048,0.756v0.132h2.83V46.53c0-0.313-0.012-0.516-0.035-0.756h0.815
		c-0.036,0.229-0.048,0.42-0.048,0.756v0.132h2.026c0.516,0,0.888-0.024,1.212-0.071v0.779c-0.349-0.049-0.72-0.072-1.212-0.072
		h-2.026c0,0.324,0.012,0.479,0.048,0.695h-0.815c0.023-0.228,0.035-0.371,0.035-0.695h-2.83c0,0.384,0.012,0.563,0.048,0.803H98.33
		c0.036-0.239,0.048-0.432,0.048-0.803h-1.871c-0.491,0-0.863,0.023-1.211,0.072v-0.779c0.323,0.047,0.695,0.071,1.211,0.071h1.871
		V46.53z M97.406,49.937c-0.552-0.576-0.983-0.947-1.69-1.392l0.468-0.503c0.72,0.467,1.127,0.791,1.715,1.354L97.406,49.937z
		 M98.978,51.016c-0.504,0-0.839,0.013-1.14,0.06v-0.707c0.276,0.048,0.601,0.061,1.14,0.061h0.708
		c-0.216-0.349-0.348-0.528-0.612-0.793l0.612-0.264c0.323,0.396,0.468,0.624,0.684,1.057h1.067v-1.284
		c-0.96,0.072-0.96,0.072-1.235,0.084c-0.144,0-0.144,0-0.911,0.036c-0.252,0-0.313,0.012-0.72,0.023
		c-0.048-0.228-0.108-0.395-0.24-0.646c0.204,0.012,0.372,0.012,0.468,0.012c2.53,0,5.001-0.301,5.841-0.708l0.575,0.624
		c-1.199,0.275-2.122,0.42-3.13,0.516v1.344h1.104c0.42-0.541,0.672-0.948,0.875-1.477l0.696,0.24
		c-0.324,0.527-0.54,0.84-0.84,1.236h0.792c0.552,0,0.875-0.013,1.151-0.061v0.707c-0.336-0.035-0.72-0.06-1.151-0.06h-2.027
		c0.828,0.756,2.015,1.367,3.526,1.812c-0.324,0.443-0.324,0.443-0.408,0.635c-0.407-0.168-0.539-0.215-1.007-0.443v2.423
		c0,0.479,0.023,0.899,0.071,1.247h-0.755v-0.479h-4.678v0.468h-0.744c0.049-0.359,0.072-0.779,0.072-1.235v-2.362
		c-0.336,0.168-0.443,0.215-0.804,0.371c-0.084-0.191-0.228-0.371-0.432-0.552c1.464-0.479,2.495-1.067,3.311-1.883H98.978z
		 M99.434,53.271v0.875h1.967v-0.875H99.434z M101.4,54.698h-1.967v0.936h1.967V54.698z M104.183,52.706
		c-0.888-0.479-1.499-0.923-2.135-1.582c0.024,0.228,0.036,0.443,0.036,0.635v0.18c0,0.217,0.012,0.408,0.048,0.576H101.4
		c0.024-0.203,0.036-0.371,0.036-0.588v-0.168c0-0.191,0.012-0.443,0.036-0.635c-0.624,0.684-1.212,1.139-2.016,1.582H104.183z
		 M104.123,54.146v-0.875h-2.075v0.875H104.123z M104.123,55.634v-0.936h-2.075v0.936H104.123z"/>
	<path d="M112.837,48.281c-0.024,0.228-0.036,0.312-0.072,0.516c0.3,0.804,0.66,1.439,1.212,2.123
		c0.563,0.695,1.331,1.308,2.374,1.896c-0.216,0.203-0.372,0.407-0.527,0.695c-1.631-1.056-2.711-2.243-3.298-3.646
		c-0.168,0.588-0.372,1.031-0.672,1.512c-0.576,0.887-1.212,1.463-2.495,2.242c-0.132-0.216-0.288-0.408-0.539-0.611
		c1.067-0.588,1.547-0.972,2.074-1.607c0.672-0.84,1.02-1.751,1.176-3.118h-3.454v6.992c0,0.671,0.012,1.031,0.06,1.331h-0.936
		c0.061-0.396,0.084-0.768,0.084-1.331v-6.692c0-0.48-0.012-0.756-0.048-1.08c0.408,0.049,0.731,0.061,1.188,0.061h3.178
		c0.024-0.408,0.024-0.552,0.024-0.996c0-0.299-0.024-0.587-0.084-0.863h0.936c-0.06,0.264-0.084,0.469-0.084,0.863
		c-0.012,0.541-0.024,0.709-0.036,0.996h3.299c0.479,0,0.803-0.012,1.211-0.061c-0.036,0.301-0.048,0.6-0.048,1.057v6.932
		c0,0.756-0.252,0.899-1.523,0.899c-0.396,0-0.875-0.024-1.367-0.06c-0.036-0.348-0.072-0.504-0.191-0.828
		c0.587,0.108,1.091,0.156,1.643,0.156c0.563,0,0.647-0.036,0.647-0.313v-7.063H112.837z"/>
	<path d="M124.045,52.599c-0.695,1.584-1.403,2.303-2.267,2.303c-1.14,0-1.991-1.247-1.991-2.926c0-1.224,0.456-2.411,1.26-3.311
		c0.959-1.056,2.267-1.596,3.874-1.596c1.343,0,2.519,0.42,3.298,1.188c0.756,0.732,1.163,1.775,1.163,2.927
		c0,1.858-1.007,3.394-2.746,4.138c-0.54,0.229-0.995,0.371-1.823,0.552c-0.12-0.396-0.191-0.516-0.42-0.804
		c0.876-0.145,1.439-0.3,2.003-0.563c1.319-0.6,2.123-1.884,2.123-3.358c0-1.367-0.695-2.471-1.907-3.01
		c-0.443-0.192-0.791-0.276-1.391-0.301C125.041,49.505,124.585,51.339,124.045,52.599z M122.57,48.413
		c-1.212,0.731-1.955,2.087-1.955,3.574c0,1.151,0.504,2.039,1.151,2.039c0.504,0,0.983-0.564,1.499-1.739
		c0.492-1.128,0.936-2.902,1.092-4.438C123.638,47.909,123.122,48.077,122.57,48.413z"/>
	<path d="M100.969,59.979c0.647,0.972,1.319,1.667,2.339,2.435c0.959,0.72,1.979,1.307,2.962,1.68
		c-0.228,0.264-0.359,0.467-0.516,0.791c-1.091-0.539-2.11-1.188-3.046-1.932c-0.948-0.755-1.512-1.354-2.195-2.303
		c-0.588,0.876-1.079,1.428-1.919,2.16c-0.936,0.803-1.919,1.451-3.082,2.038c-0.144-0.3-0.252-0.432-0.527-0.72
		c1.031-0.443,2.158-1.127,3.01-1.835c0.852-0.72,1.499-1.451,2.027-2.314H100.969z M98.258,64.8c-0.503,0-0.791,0.012-1.115,0.061
		v-0.816c0.336,0.049,0.576,0.061,1.08,0.061h4.605c0.503,0,0.755-0.012,1.079-0.061v0.816c-0.312-0.049-0.612-0.061-1.104-0.061
		h-1.943v1.822h2.231c0.516,0,0.791-0.012,1.104-0.059v0.814c-0.313-0.047-0.6-0.06-1.104-0.06h-2.231v2.147h3.622
		c0.552,0,0.972-0.024,1.319-0.072v0.875c-0.396-0.06-0.839-0.084-1.307-0.084h-7.832c-0.479,0-0.936,0.024-1.331,0.084v-0.875
		c0.348,0.048,0.768,0.072,1.343,0.072h3.406v-2.147h-2.003c-0.504,0-0.804,0.013-1.115,0.06v-0.814
		c0.3,0.047,0.6,0.059,1.115,0.059h2.003V64.8H98.258z"/>
	<path d="M107.752,61.874c0.228,0,0.348,0,0.432,0c0.168,0,0.312-0.013,0.684-0.037c1.427-0.107,5.265-0.323,6.812-0.395
		c0.672-0.025,1.235-0.072,1.428-0.133l0.072,0.9c-0.48,0-0.888,0.047-1.344,0.155c-0.804,0.216-1.643,0.647-2.303,1.212
		c-0.959,0.803-1.475,1.774-1.475,2.77c0,1.008,0.611,1.811,1.679,2.219c0.588,0.217,1.343,0.385,1.799,0.385
		c0.024,0,0.072,0,0.12,0l-0.156,0.971c-0.132-0.023-0.18-0.035-0.371-0.072c-1.188-0.203-1.907-0.455-2.591-0.924
		c-0.852-0.574-1.331-1.463-1.331-2.445c0-1.393,0.815-2.723,2.242-3.683c0.372-0.252,0.684-0.42,1.14-0.636
		c-0.708,0.12-1.308,0.18-2.639,0.264c-2.482,0.168-3.55,0.264-4.138,0.396L107.752,61.874z"/>
	<path d="M124.045,66.599c-0.695,1.584-1.403,2.303-2.267,2.303c-1.14,0-1.991-1.247-1.991-2.926c0-1.224,0.456-2.411,1.26-3.311
		c0.959-1.056,2.267-1.596,3.874-1.596c1.343,0,2.519,0.42,3.298,1.188c0.756,0.732,1.163,1.775,1.163,2.927
		c0,1.858-1.007,3.394-2.746,4.138c-0.54,0.229-0.995,0.371-1.823,0.552c-0.12-0.396-0.191-0.516-0.42-0.804
		c0.876-0.145,1.439-0.3,2.003-0.563c1.319-0.6,2.123-1.884,2.123-3.358c0-1.367-0.695-2.471-1.907-3.01
		c-0.443-0.192-0.791-0.276-1.391-0.301C125.041,63.505,124.585,65.339,124.045,66.599z M122.57,62.413
		c-1.212,0.731-1.955,2.087-1.955,3.574c0,1.151,0.504,2.039,1.151,2.039c0.504,0,0.983-0.564,1.499-1.739
		c0.492-1.128,0.936-2.902,1.092-4.438C123.638,61.909,123.122,62.077,122.57,62.413z"/>
	<path d="M133.442,60.854c0-0.456-0.023-0.732-0.071-1.02h0.875c-0.06,0.323-0.072,0.575-0.072,1.031v1.344h0.564
		c0.407,0,0.695-0.013,1.043-0.061v0.791c-0.348-0.047-0.647-0.06-1.043-0.06h-0.492c0.312,0.755,0.324,0.78,0.527,1.163
		c0.349,0.624,0.624,1.008,1.128,1.535c-0.156,0.192-0.312,0.42-0.444,0.695c-0.623-0.827-0.899-1.318-1.331-2.398
		c0.036,0.828,0.048,1.32,0.048,2.207v3.467c0,0.527,0.024,0.803,0.072,1.127h-0.875c0.048-0.3,0.071-0.611,0.071-1.115v-3.287
		c0-0.803,0.013-1.367,0.061-2.206c-0.492,1.667-1.056,2.83-1.919,3.934c-0.145-0.264-0.313-0.491-0.492-0.671
		c0.924-1.02,1.883-2.939,2.219-4.45h-0.791c-0.456,0-0.732,0.013-1.08,0.06v-0.791c0.324,0.035,0.647,0.061,1.08,0.061h0.923
		V60.854z M140.543,69.429c0,0.756-0.252,0.936-1.344,0.936c-0.455,0-0.839-0.023-1.439-0.071c-0.035-0.349-0.096-0.54-0.216-0.815
		c0.708,0.107,1.235,0.156,1.596,0.156c0.527,0,0.611-0.037,0.611-0.313v-6.285h-2.482c-0.479,0-0.936,0.024-1.247,0.072v-0.84
		c0.287,0.049,0.72,0.072,1.235,0.072h2.494v-1.066c0-0.576-0.023-1.044-0.084-1.38h0.947c-0.048,0.372-0.071,0.815-0.071,1.392
		v1.055h0.312c0.492,0,0.827-0.023,1.151-0.072v0.816c-0.372-0.036-0.756-0.049-1.14-0.049h-0.323V69.429z M137.916,67.474
		c-0.504-1.234-0.936-1.99-1.679-2.986l0.684-0.348c0.707,0.947,1.199,1.787,1.715,2.879L137.916,67.474z"/>
</g>
<rect x="92.176" y="42.446" fill="none" stroke="#C70005" stroke-miterlimit="10" width="52.75" height="31.232"/>
<path fill="none" stroke="#231815" stroke-miterlimit="10" d="M32.445,0.5h15.047c4.177,0,7.563,3.386,7.563,7.563l0,0
	c0,4.177-3.386,7.563-7.563,7.563H34.945h7.43h-9.703c-4.177,0-7.563-3.386-7.563-7.563l0,0c0-4.177,3.386-7.563,7.563-7.563H42.75"
	/>
<g>
	<path d="M111.465,10.028c-0.601,1.219-0.7,1.379-1.489,2.539l-0.561-0.48c0.34-0.33,0.57-0.629,0.91-1.169
		c0.25-0.4,0.399-0.709,0.659-1.329L111.465,10.028z M110.955,8.969c-0.44-0.44-0.84-0.729-1.47-1.08l0.36-0.45
		c0.64,0.36,0.939,0.56,1.488,1.02L110.955,8.969z M112.094,4.241c0-0.26-0.02-0.439-0.04-0.629h0.68
		c-0.029,0.19-0.04,0.359-0.04,0.629v0.11h2.359v-0.11c0-0.26-0.011-0.43-0.03-0.629h0.68c-0.03,0.19-0.04,0.35-0.04,0.629v0.11
		h1.689c0.43,0,0.739-0.02,1.009-0.06v0.65c-0.29-0.04-0.6-0.06-1.009-0.06h-1.689c0,0.27,0.01,0.4,0.04,0.58h-0.68
		c0.02-0.19,0.03-0.31,0.03-0.58h-2.359c0,0.32,0.011,0.47,0.04,0.67h-0.68c0.03-0.2,0.04-0.36,0.04-0.67h-1.559
		c-0.41,0-0.72,0.02-1.01,0.06v-0.65c0.27,0.04,0.58,0.06,1.01,0.06h1.559V4.241z M111.284,7.08
		c-0.459-0.479-0.819-0.79-1.409-1.159l0.39-0.42c0.6,0.39,0.939,0.66,1.43,1.129L111.284,7.08z M112.594,7.979
		c-0.42,0-0.699,0.01-0.949,0.05v-0.59c0.229,0.04,0.499,0.05,0.949,0.05h0.59c-0.18-0.29-0.29-0.439-0.51-0.659l0.51-0.22
		c0.27,0.33,0.39,0.52,0.569,0.879h0.89V6.42c-0.8,0.06-0.8,0.06-1.029,0.07c-0.12,0-0.12,0-0.76,0.03c-0.21,0-0.26,0.01-0.6,0.02
		c-0.04-0.19-0.09-0.33-0.2-0.54c0.17,0.01,0.311,0.01,0.39,0.01c2.109,0,4.168-0.25,4.868-0.59l0.479,0.52
		c-1,0.23-1.77,0.35-2.608,0.43v1.119h0.919c0.35-0.45,0.56-0.79,0.729-1.229l0.58,0.2c-0.27,0.44-0.45,0.7-0.699,1.029h0.659
		c0.46,0,0.729-0.01,0.96-0.05v0.59c-0.28-0.03-0.601-0.05-0.96-0.05h-1.689c0.69,0.63,1.68,1.14,2.938,1.509
		c-0.27,0.37-0.27,0.37-0.34,0.53c-0.34-0.14-0.449-0.18-0.839-0.37v2.019c0,0.4,0.02,0.75,0.06,1.04h-0.63v-0.4h-3.897v0.39h-0.62
		c0.04-0.3,0.061-0.65,0.061-1.03V9.698c-0.28,0.14-0.37,0.18-0.67,0.31c-0.07-0.16-0.189-0.31-0.359-0.46
		c1.219-0.4,2.078-0.89,2.758-1.569H112.594z M112.974,9.858v0.729h1.639V9.858H112.974z M114.612,11.047h-1.639v0.78h1.639V11.047z
		 M116.932,9.389c-0.74-0.4-1.25-0.77-1.779-1.319c0.02,0.19,0.03,0.37,0.03,0.529v0.15c0,0.18,0.01,0.339,0.04,0.479h-0.61
		c0.021-0.17,0.03-0.31,0.03-0.49v-0.14c0-0.16,0.01-0.37,0.03-0.529c-0.52,0.569-1.01,0.949-1.68,1.319H116.932z M116.882,10.588
		V9.858h-1.729v0.729H116.882z M116.882,11.827v-0.78h-1.729v0.78H116.882z"/>
	<path d="M120.925,6.25c-0.54,0-0.81,0.01-1.05,0.05v-0.7c0.29,0.04,0.58,0.06,1.05,0.06h5.927c0.449,0,0.76-0.02,1.049-0.06v0.7
		c-0.279-0.04-0.529-0.05-1.049-0.05h-2.679v2.129h2.179c0.45,0,0.729-0.01,0.97-0.05v0.689c-0.28-0.04-0.49-0.05-0.97-0.05h-2.179
		v2.599h3.118c0.439,0,0.779-0.02,1.079-0.06v0.729c-0.379-0.05-0.669-0.07-1.079-0.07h-6.706c-0.42,0-0.76,0.02-1.1,0.07v-0.729
		c0.3,0.04,0.62,0.06,1.09,0.06h2.898V8.969h-1.979c-0.47,0-0.739,0.01-0.999,0.05V8.329c0.25,0.04,0.489,0.05,0.97,0.05h2.009V6.25
		H120.925z M122.764,3.582c1.06,0.43,1.409,0.61,2.389,1.239l-0.41,0.54c-0.869-0.61-1.398-0.9-2.418-1.29L122.764,3.582z"/>
</g>
<path fill="none" stroke="#231815" stroke-miterlimit="10" d="M111.346,0.5h15.047c4.177,0,7.563,3.386,7.563,7.563l0,0
	c0,4.177-3.386,7.563-7.563,7.563h-12.547h7.43h-9.703c-4.177,0-7.563-3.386-7.563-7.563l0,0c0-4.177,3.386-7.563,7.563-7.563
	h10.078"/>
<path fill="none" stroke="#231815" stroke-miterlimit="10" d="M65.077,53.782c0,4.176-2.891,7.563-6.456,7.563H20.739
	c-3.565,0-6.455-3.387-6.455-7.563l0,0c0-4.178,2.89-7.563,6.455-7.563h37.882C62.187,46.22,65.077,49.604,65.077,53.782
	L65.077,53.782z"/>
<g>
	<g>
		<line fill="none" stroke="#EF5400" stroke-miterlimit="10" x1="39.917" y1="42.591" x2="39.917" y2="18.259"/>
		<g>
			<path fill="#EF5400" d="M44.717,25.094c-0.232,0.148-0.542,0.079-0.69-0.154l-4.109-6.452l-4.109,6.452
				c-0.148,0.233-0.458,0.303-0.69,0.154s-0.3-0.46-0.153-0.691l4.531-7.114c0.092-0.144,0.251-0.231,0.422-0.231
				s0.33,0.088,0.422,0.231l4.531,7.114c0.053,0.084,0.078,0.177,0.078,0.269C44.948,24.836,44.866,24.999,44.717,25.094z"/>
		</g>
	</g>
</g>
<g>
	<g>
		<line fill="none" stroke="#C70005" stroke-miterlimit="10" x1="118.982" y1="17.109" x2="118.982" y2="42.446"/>
		<g>
			<path fill="#C70005" d="M114.183,23.944c0.232,0.148,0.542,0.079,0.69-0.154l4.109-6.452l4.109,6.452
				c0.148,0.233,0.458,0.303,0.69,0.154s0.3-0.46,0.153-0.691l-4.531-7.114c-0.092-0.144-0.251-0.231-0.422-0.231
				s-0.33,0.088-0.422,0.231l-4.531,7.114c-0.053,0.084-0.078,0.177-0.078,0.269C113.951,23.687,114.033,23.849,114.183,23.944z"/>
		</g>
	</g>
</g>
</svg>
