<?xml version="1.0" encoding="utf-8"?>
<!-- Generator: Adobe Illustrator 16.0.3, SVG Export Plug-In . SVG Version: 6.00 Build 0)  -->
<!DOCTYPE svg PUBLIC "-//W3C//DTD SVG 1.1//EN" "http://www.w3.org/Graphics/SVG/1.1/DTD/svg11.dtd">
<svg version="1.1" id="レイヤー_1" xmlns="http://www.w3.org/2000/svg" xmlns:xlink="http://www.w3.org/1999/xlink" x="0px"
	 y="0px" width="139.157px" height="173.044px" viewBox="0 0 139.157 173.044" enable-background="new 0 0 139.157 173.044"
	 xml:space="preserve">
<pattern  x="-246.001" y="-694.585" width="72" height="72" patternUnits="userSpaceOnUse" id="グリッド_1_パイカ__x28_線_x29_" viewBox="35.25 -72.25 72 72" overflow="visible">
	<g>
		<polygon fill="none" points="35.25,-72.25 107.25,-72.25 107.25,-0.25 35.25,-0.25 		"/>
		<g>
			<defs>
				<rect id="SVGID_1_" x="35.25" y="-72.25" width="72" height="72"/>
			</defs>
			<clipPath id="SVGID_2_">
				<use xlink:href="#SVGID_1_"  overflow="visible"/>
			</clipPath>
			<line clip-path="url(#SVGID_2_)" fill="none" stroke="#231815" stroke-width="0.3" x1="41.25" y1="-72.5" x2="41.25" y2="0"/>
			<line clip-path="url(#SVGID_2_)" fill="none" stroke="#231815" stroke-width="0.3" x1="65.25" y1="-72.5" x2="65.25" y2="0"/>
			<line clip-path="url(#SVGID_2_)" fill="none" stroke="#231815" stroke-width="0.3" x1="89.25" y1="-72.5" x2="89.25" y2="0"/>
			<line clip-path="url(#SVGID_2_)" fill="none" stroke="#231815" stroke-width="0.3" x1="5" y1="-71.25" x2="5" y2="-49.25"/>
			<line clip-path="url(#SVGID_2_)" fill="none" stroke="#231815" stroke-width="0.3" x1="35" y1="-6.25" x2="107.5" y2="-6.25"/>
			<line clip-path="url(#SVGID_2_)" fill="none" stroke="#231815" stroke-width="0.3" x1="35" y1="-30.25" x2="107.5" y2="-30.25"/>
			<line clip-path="url(#SVGID_2_)" fill="none" stroke="#231815" stroke-width="0.3" x1="35" y1="-54.25" x2="107.5" y2="-54.25"/>
			<line clip-path="url(#SVGID_2_)" fill="none" stroke="#231815" stroke-width="0.3" x1="0" y1="-54.25" x2="22" y2="-54.25"/>
			<line clip-path="url(#SVGID_2_)" fill="none" stroke="#231815" stroke-width="0.3" x1="35" y1="-18.25" x2="107.5" y2="-18.25"/>
			<line clip-path="url(#SVGID_2_)" fill="none" stroke="#231815" stroke-width="0.3" x1="35" y1="-42.25" x2="107.5" y2="-42.25"/>
			<line clip-path="url(#SVGID_2_)" fill="none" stroke="#231815" stroke-width="0.3" x1="35" y1="-66.25" x2="107.5" y2="-66.25"/>
			<line clip-path="url(#SVGID_2_)" fill="none" stroke="#231815" stroke-width="0.3" x1="0" y1="-66.25" x2="22" y2="-66.25"/>
			<line clip-path="url(#SVGID_2_)" fill="none" stroke="#231815" stroke-width="0.3" x1="53.25" y1="-72.5" x2="53.25" y2="0"/>
			<line clip-path="url(#SVGID_2_)" fill="none" stroke="#231815" stroke-width="0.3" x1="77.25" y1="-72.5" x2="77.25" y2="0"/>
			<line clip-path="url(#SVGID_2_)" fill="none" stroke="#231815" stroke-width="0.3" x1="101.25" y1="-72.5" x2="101.25" y2="0"/>
			<line clip-path="url(#SVGID_2_)" fill="none" stroke="#231815" stroke-width="0.3" x1="17" y1="-71.25" x2="17" y2="-49.25"/>
		</g>
	</g>
</pattern>
<pattern  x="-246.001" y="-694.585" width="52.25" height="52.25" patternUnits="userSpaceOnUse" id="新規パターン_2" viewBox="0 -52.25 52.25 52.25" overflow="visible">
	<g>
		<polygon fill="none" points="0,-52.25 52.25,-52.25 52.25,0 0,0 		"/>
		<line fill="none" stroke="#221714" stroke-width="0.3" x1="4.504" y1="-52.25" x2="4.504" y2="0"/>
		<line fill="none" stroke="#221714" stroke-width="0.3" x1="21.801" y1="-52.25" x2="21.801" y2="0"/>
		<line fill="none" stroke="#221714" stroke-width="0.3" x1="39.098" y1="-52.25" x2="39.098" y2="0"/>
		<line fill="none" stroke="#221714" stroke-width="0.3" x1="0" y1="-4.504" x2="52.25" y2="-4.504"/>
		<line fill="none" stroke="#221714" stroke-width="0.3" x1="0" y1="-21.801" x2="52.25" y2="-21.801"/>
		<line fill="none" stroke="#221714" stroke-width="0.3" x1="0" y1="-39.098" x2="52.25" y2="-39.098"/>
		<line fill="none" stroke="#221714" stroke-width="0.3" x1="0" y1="-13.152" x2="52.25" y2="-13.152"/>
		<line fill="none" stroke="#221714" stroke-width="0.3" x1="0" y1="-30.449" x2="52.25" y2="-30.449"/>
		<line fill="none" stroke="#221714" stroke-width="0.3" x1="0" y1="-47.746" x2="52.25" y2="-47.746"/>
		<line fill="none" stroke="#221714" stroke-width="0.3" x1="13.152" y1="-52.25" x2="13.152" y2="0"/>
		<line fill="none" stroke="#221714" stroke-width="0.3" x1="30.449" y1="-52.25" x2="30.449" y2="0"/>
		<line fill="none" stroke="#221714" stroke-width="0.3" x1="47.746" y1="-52.25" x2="47.746" y2="0"/>
	</g>
</pattern>
<g>
	<defs>
		<rect id="SVGID_3_" width="139.157" height="173.044"/>
	</defs>
	<clipPath id="SVGID_4_">
		<use xlink:href="#SVGID_3_"  overflow="visible"/>
	</clipPath>
	
		<line clip-path="url(#SVGID_4_)" fill="none" stroke="#231815" stroke-width="0.6852" x1="157.013" y1="144.112" x2="-54.987" y2="144.112"/>
	
		<line clip-path="url(#SVGID_4_)" fill="none" stroke="#9E9E9F" stroke-width="0.3426" stroke-linecap="round" stroke-linejoin="round" stroke-dasharray="0.3426,0.6852" x1="72.533" y1="17.612" x2="67.789" y2="17.612"/>
	
		<path clip-path="url(#SVGID_4_)" fill="none" stroke="#9E9E9F" stroke-width="0.3426" stroke-linecap="round" stroke-linejoin="round" d="
		M14.786,134.948c-1.125-0.173-2.184-0.296-2.489-0.209c-0.731,0.21-1.985,1.098-2.247,2.3c-0.261,1.201-2.717,4.179-3.5,4.127
		s-1.933-1.045-2.611-0.784c-0.68,0.261-1.203,1.41-3.292,1.358c-0.704-0.018-1.384-0.558-2.041-1.326"/>
	
		<polyline clip-path="url(#SVGID_4_)" fill="none" stroke="#9E9E9F" stroke-width="0.3426" stroke-linecap="round" stroke-linejoin="round" points="
		65.585,148.549 65.585,156.314 65.427,157.882 65.688,159.45 65.688,163.021 	"/>
	
		<path clip-path="url(#SVGID_4_)" fill="none" stroke="#9E9E9F" stroke-width="0.3426" stroke-linecap="round" stroke-linejoin="round" d="
		M12.134,18.152c-0.331-0.067-0.629-0.132-0.854-0.185c-0.977-0.229-2.184-0.345-3.045-0.804c-0.861-0.46-0.689-0.689-1.781,0
		s-4.135,1.953-4.939,2.183s-1.494,0.862-2.125,0.862c-0.633,0-2.24-0.517-3.275-0.804"/>
	
		<path clip-path="url(#SVGID_4_)" fill="none" stroke="#9E9E9F" stroke-width="0.3426" stroke-linecap="round" stroke-linejoin="round" d="
		M18.999,27.101c-0.051,0.732-0.252,1.465-0.769,1.666c-1.034,0.402-2.815-0.058-3.619,0.459s-5.055,4.136-6.204,3.677
		c-1.148-0.46-1.607-2.7-2.354-2.93s-1.264,0.345-1.724,1.321c-0.459,0.977-5.457,7.813-7.295,8.1"/>
	
		<path clip-path="url(#SVGID_4_)" fill="none" stroke="#9E9E9F" stroke-width="0.3426" stroke-linecap="round" stroke-linejoin="round" d="
		M6.884,134.924c0.479,0.319,0.955,0.538,1.074,0.401c0.22-0.257,0.44-0.992,0.697-0.956c0.258,0.038,0.699,1.215,1.03,0.626
		c0.147-0.263-0.071-1.088-0.357-1.921"/>
	
		<path clip-path="url(#SVGID_4_)" fill="none" stroke="#9E9E9F" stroke-width="0.3426" stroke-linecap="round" stroke-linejoin="round" d="
		M31.032,164.069c-0.23-0.405-0.456-0.832-0.658-1.269"/>
	
		<polygon clip-path="url(#SVGID_4_)" fill="#F8F197" stroke="#9E9E9F" stroke-width="0.3426" stroke-linecap="round" stroke-linejoin="round" points="
		130.044,140.608 136.597,135.366 136.513,117.728 105.372,94.252 68.388,94.252 64.128,115.734 79.867,115.734 79.867,119.839 
		46.241,120.017 46.241,135.821 52.181,140.733 	"/>
	
		<path clip-path="url(#SVGID_4_)" fill="url(#新規パターン_2)" stroke="#9E9E9F" stroke-width="0.3426" stroke-linecap="round" stroke-linejoin="round" d="
		M42.522,40.11c0.589-0.034,1.154-0.083,1.385-0.545c0.346-0.689,1.207-2.527,0.861-3.274c-0.344-0.747-0.574-1.437-0.401-1.838
		s0.919-0.689,1.493-0.976s1.494,0.517,2.068,0.172c0.574-0.345,2.01-2.355,2.527-3.619s0.574-3.389,0.805-4.136
		c0.229-0.747,1.092-3.275,0.574-2.987s-1.953,0.575-2.527,0.575s-3.045,1.321-3.619,1.321s-1.953-0.574-2.125-1.207
		c-0.173-0.632,0.114-1.896-0.402-2.24c-0.518-0.345-1.953-1.494-2.527-2.011c-0.575-0.517-2.012-1.206-2.815-1.551
		s-1.493-0.287-1.378-1.264s-1.264-2.757-1.207-3.389c0.058-0.632,0.346-0.977-0.229-1.666c-0.574-0.689-2.929-5.687-3.964-6.146
		c-1.033-0.46-1.379,0.114-1.953-0.115S27.364,4.41,26.905,4.41c-0.461,0-5.803,0.518-6.32,0.747
		c-0.517,0.229-2.526,2.24-1.952,2.642s1.148,0.345,1.148,0.977c0,0.632-0.688,1.723-0.287,2.068s0.575,0.115,0.173,0.747
		c-0.402,0.632-1.438,2.183-1.666,2.815c-0.23,0.632-0.46,2.183-0.633,2.355c-0.172,0.172-1.723,1.551-2.24,1.724
		c-0.397,0.133-1.885-0.109-2.994-0.332l0.024,0.004c-0.564,1.313-1.247,3.046-1.051,4.062c0.288,1.493,0.977,3.217,1.608,3.217
		s1.896-1.379,2.987-1.207s2.987,0.804,3.159,1.207c0.086,0.201,0.187,0.934,0.137,1.666c0,0-0.76,5.507-1.236,7.054
		c-0.328,1.064-3,3.292-3,3.292s-3.875-1.188-4-0.563s0,5.5,0,5.5s4.016,1.243,4.75,3.25c0.541,1.479,5.445,1.885,5.445,1.885
		c0.787-0.565,1.529-1.064,1.696-1.176c0.345-0.229,0.688-0.172,1.034-0.172c0.344,0,0.746,0.23,0.861,0.977
		c0.115,0.747-0.689,1.494-1.148,1.896c-0.46,0.402-0.173,0.689,0,1.264c0.172,0.574-0.23,1.092,0.115,1.379
		c0.344,0.287,2.929-1.896,4.078-1.953c0.495-0.024,0.905-0.146,1.24-0.234"/>
	
		<path clip-path="url(#SVGID_4_)" fill="url(#グリッド_1_パイカ__x28_線_x29_)" stroke="#9E9E9F" stroke-width="0.3426" stroke-linecap="round" stroke-linejoin="round" d="
		M28.835,49.499c0.354-0.782,0.738-1.609,1.057-1.892c0.517-0.459,1.091-0.632,1.896-0.977c0.804-0.345,2.47-1.436,2.7-1.953
		c0.229-0.517,0.344-0.919,0.977-0.861c0.631,0.057,1.092,0.804,1.896,0.229c0.804-0.574,0.172-1.781,0.688-1.781
		c0.518,0,0.92,0.345,1.437-0.172c0.517-0.517,1.379-1.723,2.183-1.896c0.267-0.057,0.563-0.07,0.855-0.087"/>
	
		<path clip-path="url(#SVGID_4_)" fill="none" stroke="#9E9E9F" stroke-width="0.3426" stroke-linecap="round" stroke-linejoin="round" d="
		M15.254,53.007c-0.05,0.208-0.087,0.461-0.133,0.554c-0.064,0.127-0.237,0.515-0.39,0.669c-0.147,0.153-0.847,0.274-1.018,0.402
		c-0.17,0.128-0.575,0.382-0.598,0.513c-0.021,0.129-0.131,0.36-0.453,0.875c-0.322,0.515-0.207,1.372-0.439,1.498
		c-0.234,0.127-0.748,0.64-0.625,0.952c0.124,0.313,0.375,0.524,0.369,0.938c-0.004,0.416-0.051,0.883-0.051,0.883
		s0.598-0.72,0.596-0.513c-0.002,0.208-0.48,1.291-0.734,1.496c-0.258,0.204-0.604,0.874-0.605,1.083
		c-0.002,0.206,0.082,0.155,0.418,0.418c0.335,0.264,0.961,0.894,1.13,0.896c0.169,0.001,0.685,0.047,0.685,0.047
		c0.258-0.121,0.588-0.236,0.845-0.306h-0.001c-0.336-0.292-0.623-0.618-0.432-0.801c0.285-0.273,0.905-0.303,0.959-0.024
		c0.053,0.277,0.244,0.729,0.61,0.733c0.366,0.005,0.507,0.007,0.651-0.269c0.144-0.275,0.344-0.515,0.594-0.304
		c0.252,0.209,0.189,0.763,0.475,0.454c0.285-0.308,0.037-0.828,0.291-0.825c0.254,0.003,0.449,0.144,0.482-0.271
		c0.033-0.414-0.16-0.867,0.123-0.864c0.111,0.002,0.351-0.011,0.605-0.028"/>
	
		<path clip-path="url(#SVGID_4_)" fill="none" stroke="#595757" stroke-width="0.6852" stroke-linecap="round" stroke-linejoin="round" d="
		M28.834,49.499c-0.334,0.088-0.744,0.209-1.239,0.234c-1.149,0.057-3.734,2.24-4.078,1.953c-0.346-0.287,0.057-0.805-0.115-1.379
		c-0.173-0.574-0.46-0.861,0-1.264c0.459-0.402,1.264-1.148,1.148-1.896c-0.115-0.747-0.518-0.977-0.861-0.977
		c-0.346,0-0.689-0.058-1.034,0.172c-0.167,0.111-0.909,0.611-1.697,1.175"/>
	
		<path clip-path="url(#SVGID_4_)" fill="none" stroke="#595757" stroke-width="0.6852" stroke-linecap="round" stroke-linejoin="round" d="
		M58.097-5.643C57.638-4.781,54.19-1.621,52.64-0.53s-1.092,1.838-0.402,1.723s2.012,0.919,2.413,0.804s0.919-0.287,0.919,0.058
		s-0.919,1.666-0.402,1.608c0.518-0.057,2.184-0.804,2.24-0.459c0.058,0.345-1.264,0.747-0.115,0.862
		c1.15,0.115,1.494-0.747,2.068-0.747s-0.861-1.608-0.172-1.666s2.298,0.632,3.045,0.977c0.746,0.345,0.287,1.609,1.033,1.838
		s2.471,1.551,2.125,1.838c-0.344,0.287-0.803,0.229-0.574,0.632c0.23,0.402,0.747,2.585,1.092,2.355
		c0.344-0.23,0.919,0.459,0.689,1.149c-0.23,0.689-1.552,2.757-1.781,3.848c-0.229,1.092,0.402,1.551-0.057,3.619
		c-0.461,2.068-0.46,5.4-1.034,5.974c-0.575,0.574-1.034,0.919-1.667,1.953c-0.631,1.034-1.952,3.044-2.182,3.734
		c-0.23,0.689-1.092,2.585-2.011,3.274s-1.666,1.206-2.24,1.838c-0.575,0.632-1.666,2.068-2.011,2.47s-1.724,2.527-2.585,2.814
		c-0.862,0.288-2.93,1.207-3.677,0.632c-0.746-0.575-1.379-1.666-1.78-1.379c-0.402,0.287-0.862,1.494-1.092,1.551
		c-0.188,0.047-1.148,0.403-1.616,0.72"/>
	
		<path clip-path="url(#SVGID_4_)" fill="none" stroke="#595757" stroke-width="0.6852" stroke-linecap="round" stroke-linejoin="round" d="
		M112.84-4.379c-0.517,0.115-0.632-0.402-1.206-0.229s-1.437,1.034-1.379,1.436s0.114,0.747-0.172,1.034
		c-0.287,0.288-0.345,0.919,0.114,1.207c0.461,0.287,0.402,0.919,0.229,1.436c-0.172,0.517-0.976,0.345-1.436,0.345
		c-0.459,0-2.067,0.574-2.47,1.264s-1.207,0.977-1.437,1.781s0.575,2.527,0.288,2.585c-0.288,0.058-1.378-0.172-1.781,0.058
		c-0.402,0.229-1.207,1.207-1.092,1.723c0.115,0.517,0.459,0.976,0.173,1.264c-0.287,0.288,0.804,0.402,0.459,1.092
		c-0.344,0.689-0.976,2.183-1.607,2.412c-0.632,0.23-1.034,2.757-1.724,1.838s-0.518-2.47-0.747-3.274s-0.861-1.838-1.091-2.01
		s-0.92-1.264-0.978-2.643c-0.057-1.378-0.114-3.906-0.574-5.457s-0.401-5.572-0.057-6.204"/>
	
		<path clip-path="url(#SVGID_4_)" fill="none" stroke="#595757" stroke-width="0.6852" stroke-linecap="round" stroke-linejoin="round" d="
		M20.957,47.519c-0.844,0.604-1.739,1.283-2.036,1.64c-0.575,0.689,0,1.609-0.862,1.724c-0.861,0.115-1.896,0.058-2.814,0.344
		c-0.919,0.288-0.919,0.517-0.345,1.321c0.574,0.805,1.723,1.781,2.24,2.7s1.207,1.666,1.666,1.378
		c0.459-0.287,2.584-1.551,3.332-1.264c0.746,0.287,1.895,0.919,3.159,0.919c1.264,0,1.378,0.747,0.287,1.034
		s-2.585,0.517-3.331,0.632c-0.748,0.115-1.438,0.862-1.666,1.436c-0.23,0.574-1.207,1.666-1.725,2.125
		c-0.517,0.459-0.574,1.092,0.059,1.494c0.631,0.402,1.607,2.413,1.838,3.274c0.229,0.862,1.32,2.126,1.896,2.413
		c0.574,0.287,1.265,1.723,0.977,2.01s-0.517,0.287-0.345,0.459s0.977,1.034,0.805,1.321c-0.173,0.287-2.299,1.953-1.781,2.298
		c0.518,0.344,1.953,0.344,2.068,0.861s0.287,1.379,0.057,1.608c-0.229,0.23-0.632,0.632-0.746,1.609
		c-0.115,0.976-0.287,1.034-1.092,1.148c-0.805,0.115-1.838,0.805-2.067,1.494c-0.229,0.689-0.747,2.584-1.034,2.929
		s0.344,0.861-0.287,1.436c-0.633,0.575-1.838,0.862-1.838,1.091c0,0.23,0.114,1.149-0.633,1.264
		c-0.746,0.115-0.574,0.633-1.091,1.321c-0.517,0.689-1.552,1.724-2.126,1.724s-0.977,0.287-1.264,0.632s-0.805,0.861-1.493,0.861
		c-0.689,0-1.494-0.689-1.896-0.287c-0.402,0.402-0.747,1.206-1.321,1.265c-0.575,0.057-1.38-0.689-1.437-0.346
		c-0.057,0.346,0,1.207-0.345,1.437s-2.526,0.977-3.331,0.977s-2.24,0-2.7,0.517c-0.46,0.518-0.747,0.805-0.689,1.264
		c0.058,0.46-1.378,0.518-1.437-0.459c-0.057-0.977,0.23-1.379-0.401-1.321s-0.805,0.632-1.437,0.574
		c-0.631-0.058-0.517-0.919-1.091-0.574"/>
	
		<path clip-path="url(#SVGID_4_)" fill="none" stroke="#595757" stroke-width="0.6852" stroke-linecap="round" stroke-linejoin="round" d="
		M-8.825,156.751c0.517,0,0.861-0.519,1.436-0.289c0.574,0.23,1.839,1.553,2.413,1.609c0.574,0.058,1.206-0.114,2.183,0
		s1.379-0.517,2.184-0.575c0.804-0.056,1.205,0.173,2.125,0.461c0.919,0.287,3.734,0.114,4.193,0.401
		c0.459,0.288,0.115,0.402-0.058,0.402s-0.575,0.345-0.173,0.517c0.402,0.173,0.402,0.804,0.633,0.804
		c0.229,0,1.148-0.058,1.148,0.345c0,0.403,0.172,2.24-0.402,2.012c-1.408-0.563-0.977-0.92-2.355-0.92
		c-1.378,0-3.791,0.459-5.342-0.114c-1.551-0.574-1.493-0.633-2.585-0.978c-1.091-0.345-3.331-0.343-4.136-0.459"/>
	
		<path clip-path="url(#SVGID_4_)" fill="none" stroke="#595757" stroke-width="0.6852" stroke-linecap="round" stroke-linejoin="round" d="
		M9.212,161.805c-0.947,0-1.551-0.459-0.977-0.689c0.574-0.229,1.494-0.114,1.436,0.058C9.614,161.346,9.671,161.805,9.212,161.805z
		"/>
	
		<path clip-path="url(#SVGID_4_)" fill="none" stroke="#595757" stroke-width="0.6852" stroke-linecap="round" stroke-linejoin="round" d="
		M11.107,162.725c-0.718-0.052-0.058-1.148,0.574-1.148S11.911,162.782,11.107,162.725z"/>
	
		<path clip-path="url(#SVGID_4_)" fill="none" stroke="#595757" stroke-width="0.6852" stroke-linecap="round" stroke-linejoin="round" d="
		M14.497,162.666c-0.633,0-1.953,0-1.551-0.401c0.401-0.402,0.574-0.632,1.206-0.46S15.014,162.666,14.497,162.666z"/>
	
		<path clip-path="url(#SVGID_4_)" fill="none" stroke="#595757" stroke-width="0.6852" stroke-linecap="round" stroke-linejoin="round" d="
		M16.564,162.552c-0.406,0-2.757-1.493-1.206-1.32c1.551,0.172,2.354,0.286,2.125,0.631S16.909,162.552,16.564,162.552z"/>
	
		<path clip-path="url(#SVGID_4_)" fill="none" stroke="#595757" stroke-width="0.6852" stroke-linecap="round" stroke-linejoin="round" d="
		M20.873,165.884c-1.065-0.381-1.666-1.321-2.585-1.723c-0.92-0.402-0.115-0.863,0.746-0.633s2.528,1.551,2.528,1.723
		C21.563,165.424,21.677,166.171,20.873,165.884z"/>
	
		<path clip-path="url(#SVGID_4_)" fill="none" stroke="#595757" stroke-width="0.6852" stroke-linecap="round" stroke-linejoin="round" d="
		M22.137,162.725c-0.763-0.17-3.331-0.116-2.872-0.575s0.746-0.861,1.838-0.573c1.092,0.286,2.24,0.688,3.16,0.345
		c0.918-0.345,2.412-0.519,1.895-0.116c-0.517,0.402-1.321,0.747-1.607,0.747C24.263,162.552,22.653,162.84,22.137,162.725z"/>
	
		<path clip-path="url(#SVGID_4_)" fill="none" stroke="#595757" stroke-width="0.6852" stroke-linecap="round" stroke-linejoin="round" d="
		M28.857,165.137c-1.022-0.161-1.78-0.286-0.747-1.034c1.035-0.747,2.184-1.092,2.471-1.493c0.287-0.402,2.699-0.747,3.446-0.345
		c0.747,0.401-1.206,0.632-1.551,0.689C32.132,163.011,29.948,165.31,28.857,165.137z"/>
	
		<path clip-path="url(#SVGID_4_)" fill="none" stroke="#595757" stroke-width="0.6852" stroke-linecap="round" stroke-linejoin="round" d="
		M18.518,154.911c-0.522-0.223-0.517-0.286,0.115-1.147c0.632-0.862,0.632-2.068,0.058-2.413s-1.494,0.058-1.437-1.034
		s0.058-0.804,0.46-1.838c0.402-1.033,0.114-1.724,0.517-2.126s0.114-0.978,0.804-1.437s1.034-2.067,1.724-2.585
		c0.689-0.517,0.804-0.286,1.206-0.918c0.402-0.633,0.46-0.519,1.494-0.115c1.033,0.402,2.125,0.574,2.93,0.574
		s2.24,0.459,2.699,0.114c0.46-0.345,1.149-1.378,1.666-1.378c0.518,0,0.057,0.805-0.172,1.092c-0.23,0.286-1.436,1.149-1.953,1.378
		c-0.518,0.23-1.092,0.46-1.838,0.23c-0.747-0.23-1.839-0.46-2.184-0.288c-0.344,0.173-1.666,0.23-2.24,0.116
		c-0.574-0.116-1.264-0.174-1.264,0.229c0,0.403-0.517,1.15-0.746,1.437c-0.23,0.287-0.058,1.609,0.689,1.609
		c0.746,0,1.551-0.059,1.838-0.689c0.287-0.633,1.838-0.978,2.93-1.034c1.092-0.058,0.977,0.229,0.459,0.573
		s-1.32,0.518-1.608,0.806c-0.287,0.286-1.206,1.493-1.149,1.723c0.059,0.229-0.172,0.977,0.92,1.034
		c1.092,0.057,0.805,1.032,0.574,1.263s-0.919,0.575-0.402,1.15c0.518,0.573,0.977,1.263,0.632,1.435
		c-0.345,0.173-0.919,0.288-0.919,0.461c0,0.172-0.517,0.689-0.919,0.517c-0.402-0.172-0.46-0.632-0.632-0.92
		c-0.172-0.286,0-1.033-0.518-1.608c-0.516-0.573-0.057-1.32,0.287-1.607c0.346-0.288-1.32-0.116-1.492,0
		c-0.173,0.114-0.633,1.493-0.575,1.896c0.058,0.401,0.172,3.217-0.058,3.331C20.184,154.854,18.919,155.084,18.518,154.911z"/>
	
		<path clip-path="url(#SVGID_4_)" fill="none" stroke="#595757" stroke-width="0.6852" stroke-linecap="round" stroke-linejoin="round" d="
		M18.116,132.222c-0.49-0.163-1.552-0.805-2.413-1.092c-0.862-0.286-1.437-0.459-1.321-0.746c0.115-0.288,0.23-0.804-0.229-1.264
		c-0.46-0.459-1.092-0.747-1.437-0.575c-0.345,0.173-1.896,2.759-2.068,2.815c-0.172,0.058-0.689,0.689-0.689,0.976
		c0,0.288-0.344,0.747-0.574,0.747c-0.229,0-0.632-0.345-0.861-0.114c-0.229,0.229-0.977,1.091-1.436,1.091
		c-0.46,0,0.172,0.633-0.115,0.805c-0.287,0.173-1.724,1.607-2.068,1.607s0,0.805-0.345,0.862s-2.47,0.288-2.872,0.288
		s-1.091,2.813-1.32,2.813c-0.23,0-1.379,0.23-1.724,0c-0.345-0.229-0.919-0.861-1.379-0.861s-0.747,2.24-0.747,2.757
		c0,0.518,0.115,3.274,0.689,3.274s0.747-0.229,0.689,0.402c-0.058,0.632,0.459,3.331,0.689,3.389
		c0.23,0.059,2.814,0.403,2.93,0.575s-0.345,0.461,0.345,0.518c0.688,0.058,2.298,0.114,2.47-0.23s-0.058-0.171,0.919,0.23
		c0.978,0.402,2.643,0.804,2.643,1.148c0,0.344,0.229,0.632,1.265,0.115c1.033-0.517,2.125-1.034,2.412-2.126
		s0.115-2.011,0.861-2.643s2.068-2.066,2.643-3.389c0.574-1.321,0.287-1.781,1.379-1.781c1.091,0,1.608-0.173,0.977-0.689
		c-0.633-0.517-2.471-1.265-1.953-1.724c0.517-0.459,0.574-0.688,0.344-0.976c-0.229-0.287-2.066-2.527-1.838-2.527
		c0.23,0,1.437,0.057,1.207-0.172c-0.23-0.23-0.805-0.747-0.288-0.806c0.517-0.057,2.331-0.38,2.068-0.688
		C16.335,133.486,18.978,132.51,18.116,132.222z"/>
	
		<path clip-path="url(#SVGID_4_)" fill="none" stroke="#595757" stroke-width="0.6852" stroke-linecap="round" stroke-linejoin="round" d="
		M-4.173,102.812c-0.534-0.211-0.517-2.011,0.173-2.471c0.688-0.459,1.437-1.148,2.298-1.379c0.861-0.229,1.148-0.516,1.723,0.115
		c0.574,0.632,0.059,1.322-0.172,1.551c-0.23,0.23-0.345,1.207-0.574,1.379C-0.956,102.18-2.563,103.442-4.173,102.812z"/>
	
		<path clip-path="url(#SVGID_4_)" fill="#E74341" stroke="#595757" stroke-width="0.6852" stroke-linecap="round" stroke-linejoin="round" d="
		M23.745,86.555c-0.236-0.589-2.299,1.437-2.527,1.724c-0.23,0.287-0.92,2.412-0.92,3.044s0.575,2.298,1.035,2.872
		c0.459,0.574,0.459,0.633,0.861-0.344c0.401-0.977,0.861-2.758,1.264-3.103s1.033-2.126,0.805-2.7
		C24.032,87.474,23.86,86.842,23.745,86.555z"/>
	
		<path clip-path="url(#SVGID_4_)" fill="#E74341" stroke="#595757" stroke-width="0.6852" stroke-linecap="round" stroke-linejoin="round" d="
		M43.851,72.638c-0.422,0.053-0.432-1.206-0.604-1.077c-0.172,0.129-0.215,1.034-0.475,0.948c-0.258-0.086-0.517-0.862-0.603-1.335
		c-0.087-0.474-0.173-1.077,0.173-1.336c0.344-0.258,0.861-1.292,0.603-1.68s-0.474-0.948-0.732-0.818s0.043,1.335-0.173,1.335
		c-0.215,0-1.162-0.819-1.205-1.034c-0.044-0.215,0.043-0.948,0.43-1.12c0.389-0.172,0.991-0.474,1.293-0.991s0.904-0.56,1.25-0.215
		c0.344,0.345,0.775,0.388,1.205,0.215c0.432-0.172,0.518,0.215,0.561,0.775s0.904,1.12,0.604,1.551
		c-0.302,0.431-0.861,1.551-0.947,2.197c-0.087,0.646-0.087,1.508-0.389,1.724C44.54,71.992,44.194,72.595,43.851,72.638z"/>
	
		<path clip-path="url(#SVGID_4_)" fill="#E74341" stroke="#595757" stroke-width="0.6852" stroke-linecap="round" stroke-linejoin="round" d="
		M48.029,68.588c-0.694-0.347-0.431-1.508-0.776-1.637c-0.344-0.129-0.688-0.129-0.516-0.344c0.172-0.215,0.904-1.12,1.292-1.465
		s0.603,0.215,1.292,0.129c0.689-0.086,0.818-1.207,1.336-1.293c0.518-0.086,1.163,0.474,1.465,0.689
		c0.301,0.215-0.646,1.81-0.947,1.81c-0.303,0-1.336-0.431-1.681-0.043S48.632,68.89,48.029,68.588z"/>
	
		<path clip-path="url(#SVGID_4_)" fill="#E74341" stroke="#595757" stroke-width="0.6852" stroke-linecap="round" stroke-linejoin="round" d="
		M54.276,66.305c-0.652-0.072-0.775-0.215-1.077-0.689c-0.302-0.474-0.431-1.12-0.216-1.292c0.216-0.172,0.904-0.646,0.432-0.991
		c-0.475-0.345-1.035-0.431-1.379-0.345c-0.346,0.086-1.293,0.259-1.508,0.345c-0.216,0.086-0.818,0.603-1.207,0.431
		c-0.387-0.173-0.689,0.646-0.904,0.646s-0.947,0.258-1.164,0.043c-0.215-0.215-0.904-0.129-1.033,0.043s-0.432,0.172-1.12,0.172
		c-0.689,0-1.853,0.388-1.465-0.258s0.991-0.56,1.422-0.819c0.431-0.258,0.688-0.948,1.249-1.292c0.561-0.345,1.25-1.292,1.81-1.422
		s2.283,0,2.757-0.215c0.475-0.216,0.432-0.604,1.422-0.517c0.991,0.086,0.948,0.086,1.293,0.215s0.345,0.431,0.604,0.431
		c0.258,0,0.818-0.043,0.947-0.431s-0.345-0.775-0.043-1.207c0.302-0.431,1.077-0.948,1.163-1.465
		c0.086-0.517-0.043-1.163,0.13-1.465c0.172-0.301,0.861-0.517,1.076-0.56c0.216-0.043-0.086,0.474-0.301,0.905
		C56.947,57,56.99,57.646,57.421,57.56c0.432-0.086,0.775-0.258,1.034-0.56s1.077-0.991,1.767-1.25s1.465-1.12,2.024-1.81
		s1.034-1.766,1.206-2.413c0.173-0.646,0.862-1.853,0.561-2.197s-0.861-0.301-0.475-0.689c0.389-0.388,0.475-0.302,0.346-0.862
		s-0.475-0.862-0.216-1.12s0.431-0.431,0.517-0.818c0.086-0.388-0.086-0.732,0.259-0.776c0.345-0.043,0.302,0.172,0.388,0.56
		c0.086,0.388,0.172,0.603,0.518,0.603c0.344,0,0.732,0.173,0.732-0.129s0.043-0.646-0.086-0.646c-0.13,0-0.604,0-0.604-0.172
		c0-0.172,0-0.604,0.431-0.646s0.732,0.258,0.775,0.56c0.043,0.301,0.345,1.81,0.603,2.025c0.26,0.215,0.604,2.714,0.604,3.059
		c0,0.345-0.517,1.077-0.604,1.422c-0.086,0.345,0,1.25-0.258,1.336c-0.258,0.086-0.302-0.129-0.604-0.086
		c-0.301,0.043-0.431,0.517-0.387,0.905c0.043,0.388,0.215,2.111,0.043,2.456c-0.173,0.345-0.389,1.939-0.518,2.197
		s-0.431,1.077-0.043,1.594c0.388,0.517-0.259,0.431-0.604,1.034c-0.344,0.603-0.129,1.422-0.517,1.422s-1.034-0.129-1.034-0.56
		s0.388-0.991,0.561-1.163c0.172-0.172,0.129-0.604-0.043-0.56c-0.173,0.043-0.561,0.689-0.862,0.732
		c-0.302,0.043-0.603-0.129-0.646,0.258c-0.044,0.388-0.303,1.637-0.604,1.637c-0.302,0-0.302-0.775-0.518-0.732
		c-0.215,0.043-0.431,0.56-0.646,0.689c-0.215,0.129-1.162,0.646-1.508,0.646c-0.344,0-0.947,0-1.162-0.043
		c-0.216-0.043-0.518-0.56-0.646-0.431c-0.13,0.129-0.259,1.034-0.432,1.163c-0.172,0.129-0.431,0.086-0.818,0.431
		S55.052,66.392,54.276,66.305z"/>
	
		<path clip-path="url(#SVGID_4_)" fill="#E74341" stroke="#595757" stroke-width="0.6852" stroke-linecap="round" stroke-linejoin="round" d="
		M64.917,43.859c-0.363,0.182-0.775,0.905-1.033,0.646c-0.259-0.258-0.604-0.56-0.432-0.861c0.173-0.302,0.561-0.259,0.303-0.646
		c-0.26-0.388-0.604-0.991-0.475-1.465s0.775-0.689,1.077-0.991s0.043-1.034,0.56-0.948c0.518,0.086,1.035,0.56,1.25,0.388
		s0.904-0.948,0.732-1.379c-0.172-0.431,0.258-1.378,0.431-1.594c0.173-0.216,0.302-2.542,0.087-2.887
		c-0.217-0.345-0.217-0.775,0.086-1.034c0.301-0.259,0.517-0.517,0.689-0.172c0.172,0.344,0.99,1.551,1.594,2.068
		c0.604,0.517,1.551,1.378,2.024,1.335s0.991-0.517,1.077-0.172s-0.086,0.775,0.345,0.775s1.422-0.646,1.422-0.431
		s-0.044,0.905,0.043,1.163c0.086,0.259,0.086,1.12,0.431,1.12s0.947-0.043,0.732,0.172s-2.025,0.474-2.844,0.862
		s-1.551,1.12-1.852,1.896c-0.303,0.775-0.389,1.637-0.775,1.336c-0.389-0.302-1.725-1.379-2.154-1.336
		c-0.432,0.043-1.121-0.603-1.336-0.474c-0.215,0.129-1.207,1.164-1.293,0.905c-0.086-0.258-0.604-1.034-0.861-0.948
		c-0.258,0.086-0.689,0.948-0.302,1.121c0.388,0.172,0.56,0.215,1.034,0.258c0.475,0.043,0.732,0.775,0.388,0.775
		S65.09,43.773,64.917,43.859z"/>
	
		<path clip-path="url(#SVGID_4_)" fill="#E74341" stroke="#595757" stroke-width="0.6852" stroke-linecap="round" stroke-linejoin="round" d="
		M72.897,20.402c-0.211-0.541-0.332-1.752-0.363-2.752h-4.748c-0.076,1.008-0.158,2.042-0.26,2.429
		c-0.201,0.768,0.363,3.998,0.444,4.522s-0.888,5.612-0.202,5.895c0.688,0.283,0.889-1.292,1.172-1.534
		c0.282-0.243,1.205,0.939,2.019,1.292c0.929,0.404-0.485-2.423-0.485-2.786c0-0.363-0.767-1.656-1.049-2.382
		c-0.283-0.727,0.201-1.938,0.484-2.423s0.403-1.938,0.807-2.141c0.404-0.202,2.383,1.292,2.746,1.494
		C73.825,22.219,73.18,21.128,72.897,20.402z"/>
	
		<path clip-path="url(#SVGID_4_)" fill="none" stroke="#595757" stroke-width="0.6852" stroke-linecap="round" stroke-linejoin="round" d="
		M72.534,16.728c0.04-1.01-0.688-1.414-1.172-2.262s-0.564-3.835-1.01-4.603c-0.443-0.768-0.727-0.646-0.646-1.736
		c0.081-1.09-0.403-3.19-0.606-3.958c-0.201-0.767,0.121-0.969,0.082-1.575c-0.041-0.606-1.615-0.687-2.222-0.484
		c-0.605,0.202,0.929,1.251,1.091,1.817c0.161,0.565-0.525,0.444-1.293,0.969c-0.768,0.525,0.041,1.454-0.08,2.261
		c-0.121,0.808,0.525,1.454,0.727,2.382c0.202,0.929,0.202,3.23,0.444,3.554c0.241,0.323,0.323,1.696,0.161,2.302
		c-0.08,0.3-0.15,1.265-0.225,2.254h4.748C72.524,17.306,72.523,16.986,72.534,16.728z"/>
	
		<path clip-path="url(#SVGID_4_)" fill="#406FB5" stroke="#595757" stroke-width="0.6852" stroke-linecap="round" stroke-linejoin="round" d="
		M28.57,115.734c-0.601,0-1.954-0.343-2.011-0.804c-0.057-0.459,0.402-0.517,0.23-0.919c-0.173-0.401-0.346-1.034-0.575-0.746
		c-0.229,0.286-0.114,1.206-0.46,0.976c-0.344-0.229-0.287-0.633-0.919-0.574c-0.632,0.058-1.263,0.058-1.091-0.345
		c0.172-0.401,0.459-0.977,0.057-0.632c-0.401,0.345-0.861,0.747-1.436,0.517c-0.574-0.229-0.977-0.517-1.379-0.804
		s-0.804-0.574-0.057-0.861c0.746-0.288-0.689-0.574-1.207-0.978c-0.517-0.401-0.805-1.032-0.574-1.32
		c0.23-0.287-0.172-1.551,0.287-1.551s0.574,0.745,1.092,0.286c0.517-0.459,0.459-3.504,0.344-4.308
		c-0.114-0.804,0.689-1.378,1.552-1.551c0.861-0.173,0.632,0.747,1.551,0.747s0.861,0.287,0.575,0.689
		c-0.287,0.402-0.69,0.861,0.114,1.607c0.804,0.747,0.114,2.184,0,2.586c-0.114,0.401-1.149,0.689-1.149,1.034
		s0.345,0.861,0.805,1.148c0.459,0.286,1.034,1.551,0.517,1.264c-0.517-0.288-0.977-1.034-1.034-0.574
		c-0.057,0.459-0.172,1.263,0.402,1.32s1.839,0.001,2.126,0.23s0.689,0.574,0.977,0.517s0.976-0.057,1.034,0.345
		c0.057,0.402-0.46,0.517-0.287,0.862c0.172,0.344,0.976,0.861,0.918,1.092C28.915,115.218,29.03,115.734,28.57,115.734z"/>
	
		<path clip-path="url(#SVGID_4_)" fill="#406FB5" stroke="#595757" stroke-width="0.6852" stroke-linecap="round" stroke-linejoin="round" d="
		M30.983,115.965c-0.799-0.199-0.862,0.345-1.265,0.402c-0.401,0.057-0.459-0.114,0,0.459c0.46,0.575,1.034,1.034,1.034,1.437
		c0,0.401-0.058,0.862-0.23,0.862c-0.172,0-0.631,0.057-0.517,0.573c0.115,0.517,0.345,1.437,0.689,1.322
		c0.345-0.116,0.173-1.092,0.632-1.379c0.46-0.288,0.805-0.174,0.747-0.805c-0.058-0.632,0.114-1.493-0.173-1.896
		C31.614,116.54,31.442,116.081,30.983,115.965z"/>
	
		<path clip-path="url(#SVGID_4_)" fill="#406FB5" stroke="#595757" stroke-width="0.6852" stroke-linecap="round" stroke-linejoin="round" d="
		M32.477,122.169c-0.405-0.225-0.747,1.953-0.919,2.068c-0.173,0.114-1.034-0.059-1.264,0.402c-0.23,0.459-1.438,1.492-1.666,1.263
		c-0.23-0.229-0.689-0.862-0.862-0.862c-0.172,0-0.976,0.289-0.976,0.575c0,0.287-0.461,0.173-0.92,0.345s-1.32,0.402-1.32,0.92
		c0,0.517-0.46,1.377,0,0.918c0.459-0.459,0.804-1.263,1.033-0.918c0.23,0.345,0.172,0.861,0.861,0.631
		c0.689-0.229,1.723-0.976,2.011-0.631s0.919,0.631,0.632,0.976s-0.689,1.321,0.115,2.01c0.804,0.69,1.092,0.805,1.666,0.69
		c0.574-0.115,1.493-0.574,1.264-0.919c-0.23-0.345-0.345-0.978-0.172-1.149c0.172-0.173,0.631-0.518,0.976-0.057
		c0.345,0.459,0.805,0.631,1.265,0.172c0.459-0.46-0.058-1.206-0.115-2.412S32.993,122.457,32.477,122.169z"/>
	
		<path clip-path="url(#SVGID_4_)" fill="#406FB5" stroke="#595757" stroke-width="0.6852" stroke-linecap="round" stroke-linejoin="round" d="
		M26.962,119.182c-0.499,0.285-0.632,0.632-1.321,0.977c-0.689,0.346-1.379,1.149-1.321,0.401c0.058-0.746,1.034-0.804,0.632-1.378
		c-0.401-0.574-0.977-1.321-0.229-1.436c0.746-0.115,0.804,0.345,1.551,0.345S27.364,118.951,26.962,119.182z"/>
	
		<path clip-path="url(#SVGID_4_)" fill="#406FB5" stroke="#595757" stroke-width="0.6852" stroke-linecap="round" stroke-linejoin="round" d="
		M27.708,119.929c-0.361-0.028-1.205,0.575-1.436,1.206c-0.23,0.632-1.092,0.861-0.747,1.551s1.206,2.068,1.379,1.437
		c0.173-0.633,0.173-1.494,0.288-2.184C27.307,121.249,28.456,119.986,27.708,119.929z"/>
	
		<path clip-path="url(#SVGID_4_)" fill="#406FB5" stroke="#595757" stroke-width="0.6852" stroke-linecap="round" stroke-linejoin="round" d="
		M29.374,121.537c-0.711-0.323-1.723,1.148-1.32,1.206C28.455,122.8,31.271,122.399,29.374,121.537z"/>
	
		<path clip-path="url(#SVGID_4_)" fill="#406FB5" stroke="#595757" stroke-width="0.6852" stroke-linecap="round" stroke-linejoin="round" d="
		M22.366,116.654c-0.926,0-0.459-1.493-1.092-1.493c-0.631,0-0.287-0.69-0.517-0.978c-0.229-0.286,1.321-0.114,1.953,0.058
		c0.632,0.173,0.689,0.977,0.632,1.321S23.113,116.654,22.366,116.654z"/>
	
		<path clip-path="url(#SVGID_4_)" fill="#406FB5" stroke="#595757" stroke-width="0.6852" stroke-linecap="round" stroke-linejoin="round" d="
		M18.632,119.525c-0.484,0.39,0.001,1.149-0.574,1.379c-0.574,0.23-1.723,1.437-2.067,1.724c-0.345,0.288-2.527,2.356-2.067,2.356
		c0.459,0,2.183-1.666,2.757-1.954c0.574-0.287,2.298-1.32,2.413-1.723C19.207,120.904,19.206,119.066,18.632,119.525z"/>
	
		<path clip-path="url(#SVGID_4_)" fill="none" stroke="#595757" stroke-width="0.6852" stroke-linecap="round" stroke-linejoin="round" d="
		M51.202,148.19c-0.973-0.139,0.402-0.689,0-1.551c-0.401-0.861-1.264-1.607-1.492-1.607c-0.23,0-2.701-0.402-3.16-0.517
		c-0.459-0.116-1.264,0.4-1.551,0.229c-0.287-0.173-1.781-0.746-1.724-0.459c0.058,0.286-0.114,0.918,0.46,0.976
		c0.574,0.059,0.402-0.459,0.861,0.173c0.46,0.633,0.23,1.092,1.838,1.839c1.609,0.746,3.16,0.573,2.988,0.689
		c-0.173,0.114-0.633,1.09-1.207,1.09s-1.953,0.174-1.264,0.575c0.689,0.402,2.183,1.207,1.723,1.321
		c-0.459,0.115-1.091,0.633-0.402,1.092c0.689,0.459,1.494-0.345,1.494-0.804c0-0.461-0.345-1.381,0.229-0.806
		c0.575,0.575,0.23,0.806,1.321,1.322c1.092,0.517,3.39,1.034,4.137,1.551c0.746,0.518,2.01,1.205,2.469,1.263
		c0.461,0.059,1.667,0.691,2.299,1.781c0.631,1.093,2.412,3.389,1.953,3.332c-0.46-0.058-1.551-0.46-1.896,0
		s-1.724,1.896-1.265,1.896c0.46,0,2.298-1.035,2.355-0.806c0.058,0.23,0.402,0.804,0.805,0.518c0.402-0.287,1.148-0.862,1.32-0.689
		c0.173,0.172,0.748,0.172,0.92,0.805c0.172,0.632,1.666,2.297,2.412,2.125c0.747-0.173,2.011-0.173,2.7-0.173
		s1.953-0.287,1.437-0.804c-0.518-0.517-1.264-1.206-0.689-1.379c0.574-0.172,1.723-0.114,1.551-0.286
		c-0.172-0.173,0.344-0.632,0.746-0.747s1.609,0.459,1.839,0.286c0.229-0.172-0.288-0.575,0.804-0.172
		c1.092,0.402,1.379,0.346,1.724,0.402c0.345,0.058,0.977,1.551,0.977,1.551s1.264,1.84,1.666,2.184
		c0.402,0.345,1.321,0.632,2.126,0.632c0.804,0,2.643,0.804,3.217,1.034c0.574,0.229,0.459,0.631,1.264,0.689
		c0.804,0.058,1.838-0.115,1.148-0.575c-0.689-0.459-0.805-0.689-1.781-1.493c-0.976-0.804-2.01-1.724-2.643-1.953
		c-0.631-0.229-0.803-0.862-1.551-1.896c-0.746-1.034-2.986-3.103-2.183-3.103c0.805,0,2.298,0.173,2.067-0.172
		c-0.229-0.345-1.09-1.552-2.01-1.838c-0.919-0.287-2.7-0.345-2.814-0.92c-0.115-0.573,0.401-0.689-0.689-1.32
		c-1.092-0.632-1.494-1.207-1.838-1.724c-0.346-0.517-0.115-0.346-1.264-0.633c-1.149-0.286-1.552-0.804-2.586-1.091
		c-1.033-0.288-2.986-0.517-3.619-1.033c-0.631-0.518-1.78-0.632-1.551-0.92c0.23-0.287-0.229-1.034-0.459-0.804
		c-0.23,0.229-0.46,0.861-0.92,0.861c-0.459,0-1.264-0.574-2.067-0.633c-0.804-0.056-2.7-1.377-2.93-1.32
		c-0.229,0.058-1.034,1.437-1.321,1.437s-0.746-0.288-1.436-0.288s-1.551,0.116-1.321,0.288s1.206,0.459,0.919,0.746
		c-0.287,0.288-0.115,0.977-0.46,1.149c-0.345,0.172-0.804,1.092-1.551,0.804c-0.747-0.287,0.058-0.977-0.173-1.034
		C52.926,149.225,51.604,148.249,51.202,148.19z"/>
	
		<path clip-path="url(#SVGID_4_)" fill="none" stroke="#595757" stroke-width="0.6852" stroke-linecap="round" stroke-linejoin="round" d="
		M83.142,155.946c0.229,0.287,3.964,0.748,4.596,0.518c0.631-0.23,2.814-1.265,2.642-1.839c-0.172-0.573-1.436-0.632-1.607-0.459
		c-0.173,0.172-1.725,1.264-2.126,1.264c-0.402,0-0.287-0.633-0.632-0.46C85.669,155.142,82.911,155.66,83.142,155.946z"/>
	
		<path clip-path="url(#SVGID_4_)" fill="none" stroke="#595757" stroke-width="0.6852" stroke-linecap="round" stroke-linejoin="round" d="
		M97.847,158.129c-0.584-0.096-1.666-2.471-0.862-2.24C97.789,156.119,100.316,158.53,97.847,158.129z"/>
	
		<path clip-path="url(#SVGID_4_)" fill="none" stroke="#595757" stroke-width="0.6852" stroke-linecap="round" stroke-linejoin="round" d="
		M122.834,177.659c-0.268-0.32-1.436-2.354-0.517-2.183c0.919,0.173,1.206,0.976,1.379,1.265
		C123.868,177.027,123.122,178.004,122.834,177.659z"/>
	
		<path clip-path="url(#SVGID_4_)" fill="none" stroke="#595757" stroke-width="0.6852" stroke-linecap="round" stroke-linejoin="round" d="
		M90.666,153.764c-0.46-0.46-1.091-1.093-0.804-1.265c0.286-0.173,1.265-0.114,1.379,0.229
		C91.355,153.073,91.183,154.28,90.666,153.764z"/>
	
		<path clip-path="url(#SVGID_4_)" fill="none" stroke="#595757" stroke-width="0.6852" stroke-linecap="round" stroke-linejoin="round" d="
		M75.444,177.314c0-0.632-0.689-1.896-1.035-2.297c-0.344-0.402-0.746-0.575-1.033-0.575s-0.92,0.575-1.034,0.059
		c-0.114-0.518-0.345-2.527-0.919-3.677s-1.148-1.321-0.632-1.552s-0.574-0.459-0.632-0.861s-0.402-1.493-0.977-1.493
		c-0.518,0-0.805,2.24-1.148,2.527c-0.346,0.286-0.173,1.665-0.346,2.01c-0.172,0.345-0.229,0.804-0.229,1.551
		c0,0.748,0.173,3.733-0.114,4.309"/>
	
		<path clip-path="url(#SVGID_4_)" fill="none" stroke="#595757" stroke-width="0.6852" stroke-linecap="round" stroke-linejoin="round" d="
		M57.005,177.372c-0.689-0.114-0.747,0.23-1.207-0.172c-0.459-0.402-1.78-1.15-1.723-1.609c0.057-0.459,0.689-1.551,0.861-1.607
		c0.172-0.058,0.46-0.69,0.345-0.978c-0.115-0.286-0.517-0.746,0.173-0.918c0.688-0.172,1.264,0.172,1.033-0.402
		c-0.23-0.575,0.977-1.551,0.229-2.068c-0.747-0.517-1.091-0.631-1.148-0.286c-0.058,0.344-0.001,0.919-0.402,0.631
		c-0.401-0.287-0.517-0.746-0.862-0.689c-0.344,0.059-0.401,0.805-1.148,0.575c-0.746-0.23-1.666-0.978-2.354-0.978
		c-0.689,0-1.38-0.058-1.839-0.345c-0.459-0.286-1.091-0.517-1.264-0.345c-0.172,0.173,0.115,0.806-0.402,1.265
		c-0.517,0.459-2.182,0.861-2.527,0.574c-0.344-0.288-0.631-0.46-1.148-0.115s-1.148,1.206-1.494,1.322
		c-0.344,0.114,0.288,0.804-0.057,1.033s-0.805,0.632-1.034,0.919c-0.229,0.288-0.977,1.781-0.517,1.839
		c0.459,0.057,1.148,0.172,0.861,0.517s0.344,1.148-0.115,0.977c-0.459-0.173-0.977-0.632-1.264-0.632s-1.493-0.229-1.723-0.115
		c-0.23,0.115-0.575,0.978-0.805,0.288s-0.058-0.691-0.518-0.978c-0.459-0.287-0.977-1.206-1.32-1.263
		c-0.345-0.058-1.551,0.517-2.011,0.459s-0.46-0.632-0.747-0.114c-0.287,0.517-0.459,1.032-0.804,0.918s-0.46,0.747-0.689,1.034
		c-0.229,0.288,0.172,1.264-0.46,1.149c-0.631-0.115-0.919-0.689-1.148-0.402"/>
	
		<path clip-path="url(#SVGID_4_)" fill="none" stroke="#595757" stroke-width="0.6852" stroke-linecap="round" stroke-linejoin="round" d="
		M109.344,164.44c-0.222,0.297-1.196,0.358-1.734,0c-0.539-0.359-1.197-0.957-0.748-1.018
		C107.31,163.364,109.703,163.962,109.344,164.44z"/>
	
		<path clip-path="url(#SVGID_4_)" fill="none" stroke="#595757" stroke-width="0.6852" stroke-linecap="round" stroke-linejoin="round" d="
		M113.503,166.654c-0.085,0.254-1.795,0.061-1.765-0.299C111.768,165.996,113.683,166.115,113.503,166.654z"/>
	
		<path clip-path="url(#SVGID_4_)" fill="none" stroke="#595757" stroke-width="0.6852" stroke-linecap="round" stroke-linejoin="round" d="
		M106.831,161.389c-0.619,0.619-3.62-1.945-2.394-1.945S107.668,160.55,106.831,161.389z"/>
	
		<path clip-path="url(#SVGID_4_)" fill="none" stroke="#595757" stroke-width="0.6852" stroke-linecap="round" stroke-linejoin="round" d="
		M125.231,145.022c-0.43,0.377-1.018,0.06-1.316-0.09s0.358-0.747,0.599-0.688C124.753,144.305,125.472,144.814,125.231,145.022z"/>
	
		<path clip-path="url(#SVGID_4_)" fill="none" stroke="#595757" stroke-width="0.6852" stroke-linecap="round" stroke-linejoin="round" d="
		M134.596,142.629c-0.166,0.23-0.777-0.149-0.418-0.358C134.536,142.061,134.836,142.301,134.596,142.629z"/>
	
		<path clip-path="url(#SVGID_4_)" fill="none" stroke="#595757" stroke-width="0.6852" stroke-linecap="round" stroke-linejoin="round" d="
		M126.667,125.636c0.02,0.208-0.149,0.867-0.389,0.718s-0.928-0.658-0.658-0.747C125.89,125.516,126.638,125.308,126.667,125.636z"
		/>
	
		<path clip-path="url(#SVGID_4_)" fill="none" stroke="#595757" stroke-width="0.6852" stroke-linecap="round" stroke-linejoin="round" d="
		M131.454,128.149c0.143,0.296-0.509,1.017-1.077,0.209C129.81,127.55,131.125,127.461,131.454,128.149z"/>
	
		<path clip-path="url(#SVGID_4_)" fill="none" stroke="#595757" stroke-width="0.6852" stroke-linecap="round" stroke-linejoin="round" d="
		M75.108,114.323c-0.133,0.104-0.762-0.299-0.298-0.563C75.274,113.494,75.407,114.091,75.108,114.323z"/>
	
		<path clip-path="url(#SVGID_4_)" fill="none" stroke="#595757" stroke-width="0.6852" stroke-linecap="round" stroke-linejoin="round" d="
		M78.756,109.516c-0.372,0.496-1.128-0.032-0.796-0.364S78.954,109.251,78.756,109.516z"/>
	
		<path clip-path="url(#SVGID_4_)" fill="none" stroke="#595757" stroke-width="0.6852" stroke-linecap="round" stroke-linejoin="round" d="
		M78.954,103.548c-0.201,0.484-0.729-0.199-0.563-0.398C78.557,102.952,79.12,103.149,78.954,103.548z"/>
	
		<path clip-path="url(#SVGID_4_)" fill="none" stroke="#595757" stroke-width="0.6852" stroke-linecap="round" stroke-linejoin="round" d="
		M51.679,127.507c-0.215,0.095-0.813-0.686-0.234-0.857C52.022,126.479,52.215,127.271,51.679,127.507z"/>
	
		<path clip-path="url(#SVGID_4_)" fill="none" stroke="#595757" stroke-width="0.6852" stroke-linecap="round" stroke-linejoin="round" d="
		M102.983,128.509c-0.44,0.047-0.574-0.626-0.209-0.704C103.141,127.727,103.479,128.456,102.983,128.509z"/>
	
		<path clip-path="url(#SVGID_4_)" fill="none" stroke="#595757" stroke-width="0.6852" stroke-linecap="round" stroke-linejoin="round" d="
		M77.503,35.891c0.152,0.382-1.753,2.045-1.961,1.753C75.333,37.352,77.42,35.682,77.503,35.891z"/>
	
		<path clip-path="url(#SVGID_4_)" fill="none" stroke="#595757" stroke-width="0.6852" stroke-linecap="round" stroke-linejoin="round" d="
		M78.964,35.599c-0.762-0.571,1.503-2.17,1.795-2.17c0.505,0,1.504-0.96,1.711-0.919C82.679,32.552,79.131,35.724,78.964,35.599z"/>
	
		<path clip-path="url(#SVGID_4_)" fill="none" stroke="#595757" stroke-width="0.6852" stroke-linecap="round" stroke-linejoin="round" d="
		M84.224,31.842c-0.468-0.134,1.169-2.17,1.461-1.67C85.977,30.673,84.516,31.926,84.224,31.842z"/>
	
		<path clip-path="url(#SVGID_4_)" fill="none" stroke="#595757" stroke-width="0.6852" stroke-linecap="round" stroke-linejoin="round" d="
		M89.441,27.167c-0.343-0.147-1.336,0.459-1.002,0.96C88.773,28.628,89.733,27.292,89.441,27.167z"/>
	
		<path clip-path="url(#SVGID_4_)" fill="none" stroke="#595757" stroke-width="0.6852" stroke-linecap="round" stroke-linejoin="round" d="
		M98.249,15.604c-0.576-0.096-0.751,0.584-1.377,0.751c-0.626,0.167-1.044,1.21-0.543,1.294S98.75,15.688,98.249,15.604z"/>
	
		<path clip-path="url(#SVGID_4_)" fill="none" stroke="#595757" stroke-width="0.6852" stroke-linecap="round" stroke-linejoin="round" d="
		M93.991,21.532c-0.264,0-0.417,0.542-0.208,0.542C93.991,22.074,94.242,21.532,93.991,21.532z"/>
	
		<path clip-path="url(#SVGID_4_)" fill="#E74341" stroke="#595757" stroke-width="0.6852" stroke-linecap="round" stroke-linejoin="round" d="
		M37.468,83.496c-0.381-0.173-1.463,1.254-0.976,1.462C36.98,85.167,38.234,83.844,37.468,83.496z"/>
	
		<path clip-path="url(#SVGID_4_)" fill="none" stroke="#595757" stroke-width="0.6852" stroke-linecap="round" stroke-linejoin="round" d="
		M50.315,97.724c-0.338-0.038-0.184-0.262,0-0.314C50.498,97.356,50.55,97.749,50.315,97.724z"/>
	
		<path clip-path="url(#SVGID_4_)" fill="none" stroke="#595757" stroke-width="0.6852" stroke-linecap="round" stroke-linejoin="round" d="
		M92.36,89.97c-0.337-0.037-0.183-0.262,0-0.313C92.544,89.604,92.597,89.996,92.36,89.97z"/>
	
		<path clip-path="url(#SVGID_4_)" fill="none" stroke="#595757" stroke-width="0.6852" stroke-linecap="round" stroke-linejoin="round" d="
		M66.425,86.092c-0.338-0.038-0.183-0.261,0-0.314C66.608,85.726,66.661,86.119,66.425,86.092z"/>
	
		<path clip-path="url(#SVGID_4_)" fill="none" stroke="#595757" stroke-width="0.6852" stroke-linecap="round" stroke-linejoin="round" d="
		M27.065,89.363c-0.338-0.038-0.184-0.261,0-0.313C27.248,88.997,27.3,89.39,27.065,89.363z"/>
	
		<path clip-path="url(#SVGID_4_)" fill="#E74341" stroke="#9E9E9F" stroke-width="0.3426" stroke-linecap="round" stroke-linejoin="round" d="
		M42.522,40.11c-0.292,0.017-0.589,0.03-0.855,0.087c-0.804,0.172-1.666,1.379-2.183,1.896c-0.517,0.517-0.919,0.172-1.437,0.172
		c-0.517,0,0.115,1.207-0.688,1.781c-0.804,0.575-1.265-0.172-1.896-0.229c-0.633-0.058-0.747,0.344-0.977,0.861
		c-0.23,0.517-1.896,1.608-2.7,1.953c-0.805,0.345-1.379,0.517-1.896,0.977c-0.318,0.283-0.702,1.11-1.057,1.892
		c0.439-0.116,0.746-0.176,0.942,0.119c0.345,0.517,1.148,0.345,1.493,0.345s-0.229,1.092-0.115,1.838
		c0.115,0.747-0.918,1.781-1.033,2.183c-0.115,0.402,3.791,1.092,4.078,1.264s0.805,1.494,0.633,1.896
		c-0.173,0.402-0.633-0.23-1.092,0c-0.46,0.23,0.402,2.24,0.631,2.7c0.23,0.459-0.688,1.724-0.918,2.413
		c-0.23,0.689,0.287,1.896,0.746,2.068s1.781-1.206,2.24-1.378s1.379-0.115,1.839-0.058s1.206-1.034,1.723-1.723
		c0.518-0.689,0.058-1.724-0.172-2.585c-0.229-0.862-0.229-3.102-0.46-3.734s-1.033-2.527-2.412-3.446
		c-1.379-0.919-0.805-1.379-0.574-1.896c0.229-0.517,1.436-0.861,2.067-1.321s2.413-2.873,2.642-3.332
		c0.23-0.459,1.322-2.815,1.552-3.159c0.041-0.062,0.12-0.129,0.223-0.199l-0.345-1.379"/>
	
		<path clip-path="url(#SVGID_4_)" fill="none" stroke="#595757" stroke-width="0.6852" stroke-linecap="round" stroke-linejoin="round" d="
		M42.866,41.492c-0.102,0.069-0.181,0.137-0.222,0.199c-0.229,0.344-1.321,2.7-1.552,3.159c-0.229,0.459-2.01,2.873-2.642,3.332
		s-1.838,0.804-2.067,1.321c-0.23,0.517-0.805,0.977,0.574,1.896c1.379,0.919,2.182,2.814,2.412,3.446s0.23,2.872,0.46,3.734
		c0.229,0.861,0.689,1.896,0.172,2.585c-0.517,0.689-1.263,1.78-1.723,1.723s-1.38-0.115-1.839,0.058s-1.781,1.551-2.24,1.378
		s-0.977-1.378-0.746-2.068c0.229-0.689,1.148-1.953,0.918-2.413c-0.229-0.459-1.091-2.47-0.631-2.7c0.459-0.23,0.919,0.402,1.092,0
		c0.172-0.402-0.346-1.723-0.633-1.896s-4.193-0.862-4.078-1.264c0.115-0.402,1.148-1.436,1.033-2.183
		c-0.114-0.747,0.46-1.838,0.115-1.838s-1.148,0.172-1.493-0.345c-0.196-0.294-0.503-0.235-0.943-0.119"/>
	<g clip-path="url(#SVGID_4_)">
		<path fill="#231815" d="M85.565,116.426c0-0.245-0.011-0.341-0.035-0.485h0.385c-0.024,0.15-0.035,0.25-0.035,0.485h1.592
			c0.245,0,0.391-0.011,0.516-0.035v0.355c-0.16-0.021-0.311-0.03-0.516-0.03H85.88v0.516h1.352c0.205,0,0.325-0.005,0.45-0.02
			c-0.015,0.13-0.02,0.24-0.02,0.42v2.397c0,0.315-0.115,0.4-0.551,0.4c-0.16,0-0.325-0.011-0.521-0.025
			c-0.01-0.12-0.03-0.205-0.085-0.325c0.22,0.04,0.405,0.055,0.596,0.055s0.24-0.024,0.24-0.13v-2.492h-3.128v2.473
			c0,0.295,0.005,0.39,0.024,0.515h-0.375c0.021-0.14,0.03-0.274,0.03-0.529v-2.328c0-0.175-0.006-0.295-0.021-0.43
			c0.136,0.015,0.251,0.02,0.456,0.02h1.236v-0.516h-1.497c-0.21,0-0.365,0.01-0.511,0.03v-0.355
			c0.166,0.024,0.306,0.035,0.511,0.035H85.565z M85.936,118.277c0.175-0.22,0.29-0.431,0.396-0.686l0.3,0.09
			c-0.135,0.251-0.235,0.411-0.375,0.596h0.38c0.211,0,0.315-0.005,0.44-0.024v0.32c-0.135-0.021-0.25-0.025-0.44-0.025h-0.78v0.535
			h0.74c0.205,0,0.315-0.005,0.44-0.025v0.316c-0.125-0.021-0.25-0.025-0.44-0.025h-0.74v0.436c0,0.27,0.005,0.405,0.024,0.565
			h-0.355c0.021-0.171,0.025-0.3,0.025-0.561v-0.44h-0.601c-0.19,0-0.325,0.005-0.455,0.025v-0.316
			c0.13,0.021,0.24,0.025,0.46,0.025h0.596v-0.535h-0.676c-0.195,0-0.311,0.005-0.436,0.025v-0.32
			c0.125,0.02,0.235,0.024,0.451,0.024H85.936z M85.109,117.582c0.125,0.185,0.24,0.386,0.325,0.556l-0.255,0.109
			c-0.08-0.18-0.195-0.37-0.33-0.551L85.109,117.582z"/>
		<path fill="#231815" d="M88.743,117.216c0.335,0.206,0.546,0.361,0.871,0.651l-0.195,0.28c-0.306-0.311-0.511-0.476-0.866-0.695
			L88.743,117.216z M89.624,118.863c-0.24,0.61-0.25,0.63-0.636,1.336c-0.04,0.075-0.04,0.075-0.075,0.136
			c-0.02,0.035-0.02,0.035-0.04,0.069l-0.285-0.26c0.261-0.275,0.525-0.776,0.776-1.477L89.624,118.863z M88.993,116.046
			c0.325,0.22,0.525,0.38,0.796,0.65l-0.195,0.265c-0.275-0.3-0.465-0.46-0.806-0.695L88.993,116.046z M90.359,117.156
			c-0.22,0-0.37,0.011-0.515,0.03v-0.346c0.14,0.021,0.285,0.03,0.495,0.03h1.181c0.256-0.386,0.331-0.54,0.456-0.896l0.325,0.135
			c-0.176,0.336-0.29,0.53-0.45,0.761h0.476c0.21,0,0.415-0.01,0.555-0.035v0.351c-0.13-0.02-0.325-0.03-0.555-0.03h-0.892v0.711
			h0.746c0.226,0,0.391-0.011,0.53-0.03v0.34c-0.155-0.02-0.311-0.029-0.53-0.029h-0.746v0.775h0.966
			c0.251,0,0.456-0.01,0.586-0.029v0.355c-0.18-0.025-0.36-0.035-0.575-0.035h-0.977v0.676c0,0.229,0.011,0.404,0.035,0.57h-0.396
			c0.025-0.166,0.035-0.355,0.035-0.57v-0.676H90.34c-0.2,0-0.36,0.01-0.546,0.035v-0.355c0.146,0.02,0.311,0.029,0.546,0.029h0.771
			v-0.775H90.5c-0.221,0-0.37,0.01-0.53,0.029v-0.34c0.145,0.02,0.3,0.03,0.53,0.03h0.61v-0.711H90.359z M90.505,115.97
			c0.19,0.24,0.301,0.426,0.436,0.717l-0.295,0.125c-0.11-0.281-0.216-0.461-0.426-0.717L90.505,115.97z"/>
		<path fill="#231815" d="M93.503,116.791c0.11,0.021,0.205,0.024,0.4,0.024h0.866c0.205,0,0.295-0.004,0.4-0.024v0.32
			c-0.12-0.01-0.206-0.015-0.36-0.015h-0.906c-0.18,0-0.266,0.005-0.4,0.02V116.791z M93.683,116.101
			c0.115,0.02,0.19,0.025,0.361,0.025h0.67c0.17,0,0.245-0.006,0.36-0.025v0.314c-0.1-0.015-0.215-0.02-0.36-0.02h-0.67
			c-0.15,0-0.251,0.005-0.361,0.02V116.101z M93.698,117.491c0.095,0.016,0.175,0.021,0.34,0.021h0.686
			c0.166,0,0.24-0.005,0.336-0.021v0.306c-0.11-0.015-0.186-0.021-0.336-0.021h-0.686c-0.165,0-0.25,0.006-0.34,0.021V117.491z
			 M93.698,118.183c0.1,0.015,0.17,0.02,0.34,0.02h0.686c0.171,0,0.24-0.005,0.336-0.02v0.305c-0.101-0.015-0.186-0.02-0.336-0.02
			h-0.686c-0.154,0-0.24,0.005-0.34,0.02V118.183z M93.713,120.435c0.016-0.141,0.025-0.311,0.025-0.485v-0.666
			c0-0.165-0.005-0.285-0.021-0.41c0.131,0.015,0.211,0.021,0.406,0.021h0.58c0.186,0,0.28-0.006,0.365-0.016
			c-0.01,0.085-0.015,0.205-0.015,0.396v0.686c0,0.175,0.005,0.28,0.024,0.411h-0.31v-0.201h-0.746v0.266H93.713z M94.023,119.909
			h0.746v-0.756h-0.746V119.909z M95.615,117.762c-0.176,0-0.275,0.005-0.416,0.021v-0.326c0.115,0.021,0.226,0.025,0.431,0.025
			h0.586v-0.65h-0.4c-0.15,0-0.266,0.005-0.381,0.02v-0.31c0.105,0.015,0.211,0.02,0.376,0.02h0.405v-0.229
			c0-0.19-0.01-0.296-0.03-0.406h0.355c-0.025,0.115-0.03,0.201-0.03,0.406v0.229h0.301c0.154,0,0.265-0.005,0.35-0.02v0.31
			c-0.104-0.015-0.205-0.02-0.335-0.02h-0.315v0.65h0.21c0.206-0.215,0.325-0.355,0.521-0.62l0.056-0.07
			c0.205-0.3,0.325-0.516,0.39-0.7l0.315,0.18c-0.029,0.03-0.095,0.125-0.225,0.33c-0.16,0.246-0.44,0.601-0.696,0.881h0.546
			c0.21,0,0.306-0.005,0.426-0.025v0.331c-0.131-0.021-0.226-0.025-0.431-0.025h-0.816c-0.229,0.216-0.435,0.391-0.641,0.536h1.087
			c0.17,0,0.274-0.006,0.465-0.021c-0.015,0.14-0.02,0.235-0.02,0.405v1.326c0,0.195,0.01,0.346,0.03,0.501h-0.331v-0.266h-1.421
			v0.266h-0.32c0.02-0.15,0.029-0.3,0.029-0.495v-1.392c-0.22,0.155-0.35,0.24-0.51,0.33c-0.096-0.146-0.105-0.16-0.186-0.24
			c0.511-0.235,0.996-0.551,1.441-0.951H95.615z M95.98,119.118h1.421v-0.561H95.98V119.118z M95.98,119.974h1.421v-0.596H95.98
			V119.974z"/>
		<path fill="#231815" d="M100.024,119.104h-0.431c-0.22,0-0.275,0-0.415,0.01c0.015-0.13,0.02-0.255,0.02-0.45v-1.862
			c0-0.149-0.01-0.271-0.02-0.39c0.115,0.015,0.21,0.02,0.4,0.02h0.561c0.095-0.15,0.165-0.295,0.24-0.5l0.33,0.064
			c-0.09,0.18-0.155,0.301-0.24,0.436h1.227c0.195,0,0.295-0.005,0.41-0.02c-0.015,0.1-0.015,0.154-0.015,0.314v0.831
			c0,0.13,0.005,0.235,0.015,0.341c-0.15-0.01-0.255-0.016-0.391-0.016h-2.207v0.336h2.928c0.2,0,0.341-0.01,0.471-0.03v0.32
			c-0.155-0.015-0.29-0.025-0.48-0.025h-2.918v0.36h2.868c0.175,0,0.285-0.005,0.396-0.02c-0.006,0.045-0.016,0.125-0.035,0.28
			c-0.061,0.585-0.146,1.011-0.235,1.151c-0.095,0.14-0.23,0.189-0.525,0.189c-0.141,0-0.221-0.005-0.381-0.015
			c-0.015-0.14-0.024-0.175-0.075-0.315c0.2,0.03,0.341,0.045,0.491,0.045c0.165,0,0.225-0.035,0.265-0.165
			c0.056-0.181,0.11-0.511,0.15-0.891h-2.092v0.655h0.94v-0.245c0-0.115-0.005-0.185-0.02-0.28h0.335
			c-0.015,0.09-0.02,0.195-0.02,0.301v0.25c0,0.1,0,0.17,0.01,0.26c-0.055,0-0.055,0-0.186-0.005
			c-0.035-0.005-0.13-0.005-0.175-0.005h-2.077v0.23h-0.33c0.02-0.12,0.029-0.261,0.029-0.396l-0.005-0.315
			c0-0.125-0.005-0.195-0.024-0.301h0.345c-0.015,0.091-0.015,0.156-0.015,0.281v0.225h0.881V119.104z M101.776,117.026v-0.34
			h-2.268v0.34H101.776z M99.509,117.632h2.268v-0.36h-2.268V117.632z"/>
	</g>
	<g clip-path="url(#SVGID_4_)">
		<path fill="#231815" d="M2.583,67.812c0-0.245-0.01-0.365-0.035-0.521h0.4c-0.023,0.155-0.033,0.295-0.033,0.511v0.44H4.38
			c0.17,0,0.266-0.005,0.381-0.02c-0.02,0.13-0.025,0.235-0.025,0.396v1.366c0,0.165,0.01,0.295,0.031,0.445H4.405v-0.34h-1.49
			v1.166c0,0.286,0.004,0.411,0.033,0.571h-0.4c0.025-0.17,0.035-0.3,0.035-0.571v-1.166h-1.41v0.34H0.812
			c0.021-0.145,0.031-0.285,0.031-0.445v-1.366c0-0.155-0.011-0.265-0.025-0.396c0.119,0.015,0.215,0.02,0.375,0.02h1.391V67.812z
			 M1.173,68.542v1.246h1.41v-1.246H1.173z M4.405,69.789v-1.246h-1.49v1.246H4.405z"/>
		<path fill="#231815" d="M6.177,68.768c-0.18,0-0.34,0.01-0.484,0.025v-0.311c0.129,0.02,0.27,0.03,0.484,0.03H9.22
			c0.211,0,0.346-0.01,0.48-0.03v0.311c-0.15-0.015-0.301-0.025-0.48-0.025H9.04v0.506h0.436c0.221,0,0.365-0.01,0.5-0.03v0.325
			c-0.135-0.02-0.295-0.03-0.5-0.03H9.04v0.565h0.18c0.191,0,0.34-0.01,0.48-0.025v0.31c-0.145-0.015-0.301-0.025-0.48-0.025H7.81
			v0.476H9.37c0.211,0,0.381-0.01,0.516-0.03v0.331c-0.145-0.02-0.301-0.03-0.521-0.03H7.81v0.271c0,0.19,0.01,0.34,0.033,0.5H7.478
			c0.025-0.155,0.035-0.311,0.035-0.5V71.11H6.067c-0.205,0-0.371,0.01-0.516,0.03V70.81c0.135,0.02,0.289,0.03,0.516,0.03h1.445
			v-0.476H6.177c-0.225,0-0.35,0.005-0.484,0.025v-0.31c0.129,0.02,0.25,0.025,0.484,0.025h0.17v-0.565H5.911
			c-0.209,0-0.359,0.01-0.504,0.03v-0.325c0.135,0.02,0.289,0.03,0.504,0.03h0.436v-0.506H6.177z M9.351,67.757
			c0.254,0,0.426-0.01,0.561-0.03v0.325c-0.15-0.015-0.32-0.025-0.561-0.025H8.575v0.025c0,0.13,0.004,0.206,0.02,0.311h-0.34
			c0.014-0.105,0.02-0.185,0.02-0.335H7.073c0,0.175,0.004,0.23,0.02,0.335H6.747c0.016-0.11,0.021-0.185,0.021-0.311v-0.025H6.067
			c-0.24,0-0.41,0.01-0.561,0.025v-0.325c0.135,0.02,0.305,0.03,0.561,0.03h0.701v-0.13c0-0.11-0.012-0.2-0.031-0.315h0.361
			c-0.021,0.12-0.025,0.2-0.025,0.315v0.13h1.201v-0.13c0-0.105-0.01-0.195-0.031-0.315h0.361c-0.025,0.12-0.029,0.2-0.029,0.315
			v0.13H9.351z M6.647,69.273h0.865v-0.506H6.647V69.273z M6.647,70.104h0.865v-0.565H6.647V70.104z M7.81,69.273h0.93v-0.506H7.81
			V69.273z M7.81,70.104h0.93v-0.565H7.81V70.104z"/>
		<path fill="#231815" d="M13.024,68.913c0.029,0.31,0.045,0.425,0.115,0.706l1.141-0.015c0.291,0,0.404-0.01,0.531-0.035v0.346
			c-0.186-0.015-0.186-0.015-0.527-0.015l-1.064,0.01c0.135,0.42,0.344,0.786,0.635,1.096c0.195,0.21,0.441,0.38,0.545,0.38
			c0.115,0,0.191-0.22,0.236-0.721c0.125,0.105,0.17,0.13,0.301,0.19c-0.111,0.666-0.24,0.891-0.506,0.891
			c-0.275,0-0.682-0.305-1.006-0.761c-0.246-0.34-0.406-0.661-0.535-1.071l-1.473,0.02v1.332c0.525-0.115,0.951-0.235,1.496-0.42
			l0.01,0.311c-0.77,0.255-1.195,0.37-2.047,0.545c-0.119,0.025-0.219,0.05-0.275,0.07l-0.084-0.36
			c0.131-0.005,0.305-0.03,0.576-0.08v-3.203c0-0.245-0.006-0.375-0.021-0.565c0.16,0.02,0.316,0.025,0.586,0.025h2.227
			c0.221,0,0.367-0.005,0.521-0.025c-0.016,0.1-0.016,0.175-0.016,0.4v0.596c0,0.185,0.006,0.28,0.016,0.37
			c-0.15-0.01-0.295-0.015-0.496-0.015H13.024z M11.417,68.633h2.658v-0.761h-2.658V68.633z M11.417,68.913v0.726l1.396-0.015
			c-0.051-0.24-0.08-0.42-0.115-0.71H11.417z"/>
		<path fill="#231815" d="M15.622,68.112c0-0.24-0.01-0.416-0.031-0.616c0.166,0.02,0.316,0.025,0.586,0.025h2.994
			c0.264,0,0.41-0.005,0.594-0.025c-0.02,0.185-0.029,0.355-0.029,0.616v3.048c0,0.365,0.01,0.55,0.029,0.686h-0.35v-0.305h-3.473
			v0.305h-0.352c0.021-0.135,0.031-0.315,0.031-0.686V68.112z M15.942,71.255h3.473v-3.448h-3.473V71.255z M16.798,68.547
			c-0.215,0-0.336,0.005-0.471,0.025v-0.32c0.141,0.025,0.25,0.03,0.471,0.03h1.766c0.227,0,0.361-0.01,0.492-0.03v0.32
			c-0.141-0.02-0.262-0.025-0.486-0.025h-0.771v0.776h0.617c0.225,0,0.324-0.005,0.449-0.025v0.315
			c-0.125-0.02-0.24-0.025-0.449-0.025h-0.617v0.916h0.842c0.205,0,0.35-0.01,0.49-0.03v0.33c-0.145-0.02-0.295-0.03-0.49-0.03
			h-1.906c-0.205,0-0.346,0.01-0.496,0.03v-0.33c0.141,0.02,0.285,0.03,0.496,0.03h0.756v-0.916h-0.537
			c-0.209,0-0.33,0.005-0.455,0.025v-0.315c0.125,0.02,0.225,0.025,0.455,0.025h0.537v-0.776H16.798z M18.403,69.679
			c0.207,0.205,0.287,0.315,0.471,0.596l-0.234,0.15c-0.176-0.305-0.256-0.416-0.445-0.621L18.403,69.679z"/>
	</g>
	<g clip-path="url(#SVGID_4_)">
		<path fill="#231815" d="M28.685,102.511c-0.016,0.09-0.016,0.09-0.02,0.351c-0.016,0.835-0.156,1.331-0.496,1.762
			c-0.305,0.386-0.676,0.636-1.281,0.866c-0.075-0.16-0.11-0.211-0.23-0.336c0.405-0.12,0.656-0.245,0.916-0.461
			c0.531-0.425,0.725-0.936,0.725-1.911c0-0.141-0.004-0.175-0.02-0.271H28.685z M30.661,101.88c-0.051,0.065-0.061,0.08-0.121,0.2
			c-0.344,0.671-0.811,1.126-1.461,1.427c-0.074-0.125-0.115-0.17-0.244-0.285c0.35-0.135,0.555-0.256,0.791-0.476
			c0.229-0.216,0.414-0.46,0.561-0.746h-2.844c-0.275,0-0.405,0.005-0.59,0.025v-0.386c0.17,0.025,0.31,0.035,0.596,0.035h2.688
			c0.334,0,0.334,0,0.424-0.035L30.661,101.88z"/>
		<path fill="#231815" d="M34.265,101.604c-0.064,0.096-0.084,0.141-0.154,0.306c-0.326,0.766-0.48,1.071-0.736,1.462
			c0.43,0.355,0.75,0.66,1.15,1.076l-0.279,0.31c-0.266-0.341-0.586-0.661-1.092-1.086c-0.525,0.721-1.135,1.246-2.012,1.741
			c-0.09-0.149-0.129-0.195-0.26-0.3c0.801-0.391,1.441-0.931,1.992-1.672c-0.455-0.365-0.926-0.675-1.346-0.905l0.25-0.266
			c0.49,0.295,0.74,0.461,1.301,0.871c0.234-0.371,0.416-0.73,0.59-1.166c0.125-0.306,0.15-0.386,0.176-0.531L34.265,101.604z"/>
		<path fill="#231815" d="M36.103,101.47c-0.016,0.12-0.02,0.186-0.02,0.416v1.346c0,0.24,0.004,0.295,0.02,0.416h-0.416
			c0.016-0.115,0.021-0.221,0.021-0.421v-1.337c0-0.215-0.006-0.3-0.021-0.42H36.103z M38.319,101.47
			c-0.02,0.115-0.025,0.195-0.025,0.436v0.59c0,0.797-0.033,1.236-0.125,1.527c-0.145,0.471-0.459,0.836-0.949,1.111
			c-0.246,0.14-0.486,0.234-0.912,0.359c-0.055-0.145-0.084-0.195-0.209-0.345c0.449-0.101,0.689-0.186,0.949-0.341
			c0.467-0.27,0.707-0.59,0.801-1.056c0.057-0.285,0.07-0.516,0.07-1.276v-0.565c0-0.261-0.004-0.33-0.02-0.44H38.319z"/>
		<path fill="#231815" d="M40.944,102.311c0.02-0.255,0.029-0.53,0.029-0.751c0-0.115-0.006-0.17-0.02-0.26l0.404,0.01
			c-0.02,0.115-0.02,0.115-0.039,0.646c-0.01,0.155-0.01,0.216-0.025,0.355l1.252-0.005c0.225,0,0.229-0.005,0.33-0.035l0.184,0.16
			c-0.029,0.075-0.033,0.12-0.039,0.301c-0.016,0.65-0.074,1.406-0.141,1.751c-0.125,0.687-0.275,0.866-0.725,0.866
			c-0.16,0-0.355-0.025-0.621-0.085c0-0.03,0-0.046,0-0.061c0-0.114-0.01-0.185-0.055-0.315c0.27,0.09,0.48,0.131,0.645,0.131
			c0.246,0,0.326-0.121,0.422-0.616c0.074-0.396,0.119-1.036,0.125-1.776l-1.402,0.005c-0.064,0.641-0.18,1.056-0.4,1.477
			c-0.279,0.516-0.746,0.985-1.311,1.326c-0.09-0.146-0.131-0.185-0.256-0.296c0.596-0.314,1.025-0.755,1.301-1.315
			c0.17-0.351,0.246-0.631,0.311-1.191l-0.91,0.005c-0.295,0-0.352,0-0.531,0.025l-0.004-0.381c0.17,0.03,0.289,0.035,0.539,0.035
			L40.944,102.311z"/>
		<path fill="#231815" d="M45.028,101.249c0.109,0.23,0.18,0.351,0.324,0.541c0.201,0.256,0.352,0.405,0.57,0.565
			c-0.074,0.08-0.109,0.13-0.18,0.271c-0.385-0.325-0.646-0.65-0.852-1.066c-0.229,0.516-0.539,0.901-1.041,1.307
			c-0.064-0.125-0.109-0.195-0.184-0.266c0.51-0.365,0.836-0.791,1.051-1.352H45.028z M44.282,103.587
			c-0.191,0-0.311,0.005-0.441,0.025v-0.326c0.125,0.021,0.25,0.025,0.467,0.025h0.975c0.211,0,0.336-0.005,0.445-0.02
			c-0.014,0.13-0.02,0.25-0.02,0.465v0.891c0,0.266-0.096,0.341-0.43,0.341c-0.055,0-0.076,0-0.215-0.011
			c-0.006-0.119-0.021-0.189-0.07-0.31c0.115,0.021,0.234,0.035,0.311,0.035c0.08,0,0.109-0.021,0.109-0.08v-1.036h-0.611v1.656
			c0,0.19,0.01,0.311,0.031,0.44h-0.365c0.02-0.135,0.029-0.265,0.029-0.44v-1.656H44.282z M44.272,102.546
			c0.1,0.015,0.205,0.02,0.359,0.02h0.535c0.16,0,0.256-0.005,0.361-0.02v0.311c-0.111-0.016-0.195-0.021-0.352-0.021h-0.561
			c-0.135,0-0.234,0.005-0.344,0.021V102.546z M46.729,104.988c-0.371,0.36-0.602,0.525-1.057,0.751
			c-0.07-0.115-0.115-0.17-0.209-0.256c0.273-0.115,0.395-0.18,0.6-0.325c0.176-0.115,0.256-0.19,0.416-0.36L46.729,104.988z
			 M46.323,101.63c-0.24,0-0.346,0.005-0.494,0.03v-0.341c0.139,0.025,0.254,0.03,0.49,0.03h1.471c0.23,0,0.355-0.005,0.48-0.03
			v0.341c-0.154-0.025-0.25-0.03-0.48-0.03h-0.564c-0.066,0.221-0.121,0.365-0.201,0.541h0.611c0.24,0,0.34-0.006,0.449-0.021
			c-0.01,0.125-0.014,0.261-0.014,0.46v1.646c0,0.195,0.004,0.32,0.014,0.477c-0.129-0.011-0.26-0.016-0.43-0.016h-1.197
			c-0.16,0-0.264,0.005-0.424,0.016c0.01-0.141,0.014-0.306,0.014-0.466v-1.646c0-0.195-0.004-0.32-0.02-0.466
			c0.135,0.01,0.23,0.016,0.436,0.016h0.256c0.08-0.186,0.145-0.365,0.189-0.541H46.323z M46.339,102.916h1.436v-0.476h-1.436
			V102.916z M46.339,103.677h1.436v-0.495h-1.436V103.677z M46.339,104.452h1.436v-0.51h-1.436V104.452z M47.44,104.803
			c0.305,0.306,0.551,0.476,1.006,0.696c-0.086,0.085-0.15,0.16-0.215,0.265c-0.461-0.255-0.697-0.435-1.021-0.775L47.44,104.803z"
			/>
		<path fill="#231815" d="M30.325,108c-0.035,0.056-0.035,0.056-0.105,0.311c-0.264,0.961-0.645,1.616-1.256,2.172
			c-0.465,0.421-0.895,0.681-1.57,0.941c-0.076-0.165-0.115-0.221-0.246-0.351c0.451-0.135,0.746-0.271,1.131-0.53
			c0.82-0.546,1.291-1.262,1.576-2.383h-2.547c-0.255,0-0.395,0.005-0.561,0.03v-0.405c0.19,0.03,0.291,0.035,0.566,0.035h2.461
			c0.201,0,0.236-0.005,0.32-0.04L30.325,108z"/>
		<path fill="#231815" d="M34.03,108.461c-0.055,0.04-0.064,0.055-0.119,0.114c-0.271,0.281-0.521,0.506-1.008,0.881v1.692
			c0,0.195,0.006,0.315,0.025,0.44h-0.391c0.016-0.12,0.021-0.186,0.021-0.436v-1.486c-0.49,0.311-0.916,0.5-1.537,0.69
			c-0.051-0.13-0.08-0.181-0.176-0.3c0.502-0.136,0.797-0.246,1.162-0.441c0.551-0.279,1.006-0.615,1.432-1.041
			c0.15-0.145,0.205-0.209,0.279-0.324L34.03,108.461z"/>
		<path fill="#231815" d="M35.702,107.47c-0.016,0.12-0.02,0.186-0.02,0.416v1.346c0,0.24,0.004,0.295,0.02,0.416h-0.416
			c0.016-0.115,0.021-0.221,0.021-0.421v-1.337c0-0.215-0.006-0.3-0.021-0.42H35.702z M37.919,107.47
			c-0.02,0.115-0.025,0.195-0.025,0.436v0.59c0,0.797-0.033,1.236-0.125,1.527c-0.145,0.471-0.459,0.836-0.949,1.111
			c-0.246,0.14-0.486,0.234-0.912,0.359c-0.055-0.145-0.084-0.195-0.209-0.345c0.449-0.101,0.689-0.186,0.949-0.341
			c0.467-0.27,0.707-0.59,0.801-1.056c0.057-0.285,0.07-0.516,0.07-1.276v-0.565c0-0.261-0.004-0.33-0.02-0.44H37.919z"/>
		<path fill="#231815" d="M39.724,109.116c0.84-0.15,1.992-0.621,2.371-0.971l0.256,0.34c-0.08,0.035-0.09,0.041-0.215,0.105
			c-0.807,0.436-1.492,0.681-2.412,0.855v0.73c0,0,0,0.016-0.006,0.031c0,0.015,0,0.034,0,0.055c0,0.35,0.02,0.465,0.105,0.551
			c0.064,0.069,0.176,0.104,0.381,0.13c0.154,0.02,0.391,0.03,0.59,0.03c0.311,0,0.756-0.03,1.146-0.08
			c0.215-0.025,0.311-0.045,0.496-0.101l0.029,0.4c-0.096,0.005-0.096,0.005-0.471,0.045c-0.32,0.035-0.98,0.07-1.326,0.07
			c-0.59,0-0.922-0.06-1.096-0.205c-0.121-0.101-0.18-0.245-0.205-0.48c-0.006-0.08-0.01-0.181-0.01-0.391v-2.308
			c0-0.205-0.006-0.29-0.021-0.415h0.41c-0.02,0.13-0.023,0.205-0.023,0.421V109.116z M43.11,107.68
			c0,0.286-0.229,0.516-0.514,0.516c-0.287,0-0.516-0.229-0.516-0.516c0-0.285,0.229-0.515,0.516-0.515
			C42.882,107.165,43.11,107.395,43.11,107.68z M42.29,107.68c0,0.165,0.141,0.306,0.307,0.306c0.17,0,0.305-0.135,0.305-0.306
			c0-0.17-0.135-0.306-0.305-0.306C42.425,107.374,42.29,107.51,42.29,107.68z"/>
		<path fill="#231815" d="M43.597,110.897c0.391-0.015,0.99-0.17,1.457-0.385c0.965-0.431,1.637-1.166,2.041-2.227
			c0.115,0.154,0.166,0.199,0.307,0.295c-0.4,0.871-0.867,1.456-1.527,1.912c-0.516,0.35-1.031,0.555-1.867,0.745
			c-0.135,0.03-0.176,0.04-0.301,0.08L43.597,110.897z M43.917,107.795c0.535,0.341,0.846,0.586,1.207,0.94l-0.262,0.311
			c-0.359-0.391-0.756-0.715-1.191-0.98L43.917,107.795z"/>
	</g>
	<g clip-path="url(#SVGID_4_)">
		<path fill="#231815" d="M27.725,21.356c-0.186,0.49-0.46,1.086-0.626,1.361c-0.08,0.13-0.08,0.135-0.104,0.18l-0.286-0.265
			c0.271-0.291,0.521-0.786,0.756-1.467L27.725,21.356z M26.938,19.705c0.311,0.2,0.516,0.36,0.812,0.636l-0.216,0.255
			c-0.265-0.285-0.485-0.471-0.801-0.676L26.938,19.705z M27.149,18.494c0.325,0.23,0.51,0.385,0.761,0.646l-0.211,0.245
			c-0.26-0.295-0.43-0.445-0.766-0.686L27.149,18.494z M29.621,20.48h0.901c0.225,0,0.36-0.005,0.5-0.02
			c-0.015,0.105-0.02,0.24-0.02,0.47v1.622c0,0.265-0.105,0.335-0.501,0.335c-0.125,0-0.305-0.01-0.43-0.02
			c-0.011-0.12-0.025-0.175-0.07-0.315c0.19,0.025,0.355,0.04,0.516,0.04c0.135,0,0.18-0.025,0.18-0.105v-1.742h-1.076v1.151h0.416
			v-0.436c0-0.17-0.005-0.291-0.021-0.4h0.32c-0.02,0.115-0.024,0.205-0.024,0.4v0.496c0,0.2,0,0.275,0.01,0.355h-0.285v-0.16
			h-1.102v0.305h-0.3c0.02-0.125,0.024-0.246,0.024-0.391v-0.605c0-0.18-0.005-0.285-0.024-0.411h0.32
			c-0.016,0.125-0.021,0.221-0.021,0.411v0.436h0.405v-1.151h-1.025v1.692c0,0.225,0.01,0.38,0.029,0.535h-0.365
			c0.021-0.16,0.03-0.325,0.03-0.545v-1.521c0-0.195-0.005-0.32-0.015-0.44c0.104,0.01,0.225,0.015,0.4,0.015h0.945v-0.44h-0.996
			c-0.21,0-0.39,0.01-0.515,0.03v-0.326c0.125,0.02,0.29,0.03,0.51,0.03h0.386v-0.561H28.48c-0.181,0-0.32,0.005-0.476,0.025v-0.33
			c0.13,0.02,0.28,0.03,0.48,0.03h0.24v-0.105c0-0.16-0.01-0.3-0.03-0.396h0.351c-0.015,0.1-0.025,0.24-0.025,0.396v0.105h0.967
			v-0.105c0-0.15-0.011-0.285-0.025-0.396h0.351c-0.021,0.085-0.03,0.23-0.03,0.396v0.105h0.325c0.2,0,0.36-0.01,0.485-0.03v0.33
			c-0.125-0.015-0.305-0.025-0.476-0.025h-0.335v0.561h0.476c0.271,0,0.405-0.005,0.521-0.03v0.326
			c-0.11-0.021-0.311-0.03-0.525-0.03h-1.132V20.48z M29.987,19.775v-0.561h-0.967v0.561H29.987z"/>
		<path fill="#231815" d="M32.369,19.705c-0.08,0.606-0.18,0.991-0.37,1.412l-0.29-0.115c0.125-0.25,0.17-0.365,0.24-0.616
			c0.069-0.265,0.1-0.416,0.13-0.746L32.369,19.705z M33.01,20.105c0,1.327-0.285,2.177-0.946,2.838
			c-0.08-0.095-0.17-0.175-0.27-0.24c0.295-0.265,0.48-0.536,0.636-0.921c0.165-0.416,0.265-1.056,0.265-1.702v-1.136
			c0-0.215-0.01-0.375-0.029-0.49h0.375c-0.021,0.11-0.03,0.24-0.03,0.49V20.105z M33.476,19.66c0.18,0.436,0.25,0.666,0.365,1.211
			l-0.29,0.125c-0.075-0.5-0.155-0.806-0.331-1.241L33.476,19.66z M34.446,18.594c-0.025,0.14-0.03,0.235-0.03,0.49v2.948
			c0,0.295,0.011,0.44,0.03,0.58h-0.375c0.02-0.14,0.029-0.31,0.029-0.595v-2.928c0-0.245-0.005-0.365-0.029-0.495H34.446z
			 M34.842,19.635c0.226,0.415,0.32,0.63,0.505,1.141l-0.265,0.165c-0.15-0.5-0.266-0.786-0.485-1.196L34.842,19.635z
			 M35.923,18.443c-0.021,0.16-0.03,0.306-0.03,0.556v3.278c0,0.32,0.005,0.476,0.03,0.636h-0.375
			c0.02-0.166,0.029-0.32,0.029-0.641v-3.278c0-0.275-0.005-0.411-0.029-0.551H35.923z"/>
	</g>
	<g clip-path="url(#SVGID_4_)">
		<path fill="#231815" d="M28.416,68.05c0-0.152-0.008-0.251-0.027-0.372h0.331c-0.02,0.116-0.027,0.216-0.027,0.372v2.571h1.179
			v-1.827c0-0.167-0.008-0.256-0.023-0.372h0.315c-0.016,0.136-0.023,0.244-0.023,0.376v1.991c0,0.16,0.008,0.28,0.027,0.424h-0.296
			v-0.336h-2.554v0.336h-0.297c0.021-0.168,0.028-0.26,0.028-0.404v-1.995c0-0.152-0.008-0.276-0.028-0.392h0.316
			c-0.016,0.112-0.02,0.224-0.02,0.388v1.811h1.099V68.05z"/>
		<path fill="#231815" d="M31.224,68.274c-0.235,0-0.34,0.004-0.472,0.024v-0.28c0.137,0.02,0.256,0.028,0.484,0.028h1.135v-0.032
			c0-0.176-0.008-0.268-0.027-0.388h0.296c-0.021,0.12-0.028,0.232-0.028,0.388v0.032h1.195c0.26,0,0.392-0.008,0.5-0.028v0.28
			c-0.112-0.016-0.276-0.024-0.492-0.024h-1.203v0.332h0.871c0.252,0,0.349-0.004,0.456-0.02c-0.012,0.112-0.016,0.2-0.016,0.419
			v0.588c0,0.24,0,0.3,0.016,0.424c-0.107-0.02-0.22-0.024-0.456-0.024h-0.688c0.432,0.448,0.908,0.704,1.647,0.887
			c-0.072,0.096-0.1,0.136-0.152,0.252c-0.359-0.12-0.611-0.228-0.899-0.396c-0.315-0.184-0.544-0.372-0.791-0.655
			c0.008,0.104,0.012,0.236,0.012,0.312v0.408c0,0.216,0.004,0.319,0.028,0.443h-0.296c0.02-0.136,0.027-0.236,0.027-0.443v-0.404
			c0-0.076,0.004-0.196,0.013-0.308c-0.172,0.208-0.269,0.3-0.472,0.456c-0.324,0.248-0.676,0.432-1.116,0.583
			c-0.06-0.12-0.084-0.164-0.147-0.24c0.368-0.1,0.651-0.224,0.972-0.428c0.26-0.168,0.407-0.288,0.56-0.468h-0.584
			c-0.256,0-0.352,0.004-0.464,0.024l0.004-0.052c0.009-0.084,0.013-0.152,0.013-0.372v-0.58c0-0.232-0.004-0.304-0.017-0.432
			c0.096,0.02,0.204,0.024,0.444,0.024h0.795v-0.332H31.224z M31.396,68.813v0.368h0.976v-0.368H31.396z M31.396,69.385v0.404h0.976
			v-0.404H31.396z M32.611,69.182h1.063v-0.368h-1.063V69.182z M32.611,69.789h1.063v-0.404h-1.063V69.789z"/>
		<path fill="#231815" d="M37.522,68.526c-0.036,0.028-0.036,0.028-0.111,0.076c-0.017,0.012-0.017,0.012-0.132,0.096
			c-0.272,0.192-0.556,0.336-1.028,0.528c0.2-0.02,0.261-0.024,0.389-0.024h0.852c0.128,0,0.228-0.004,0.363-0.016
			c-0.012,0.112-0.016,0.184-0.016,0.308v1.431c0,0.14,0.008,0.24,0.023,0.36h-0.271v-0.204H35.68v0.204h-0.268
			c0.016-0.112,0.023-0.224,0.023-0.355v-1.419c-0.308,0.088-0.308,0.088-0.68,0.168c-0.027-0.08-0.071-0.156-0.132-0.244
			c0.48-0.064,0.808-0.136,1.188-0.264c0.56-0.188,0.991-0.4,1.312-0.644c0.08-0.064,0.136-0.116,0.191-0.184L37.522,68.526z
			 M35.823,67.918c-0.304,0.496-0.436,0.644-0.896,0.992c-0.06-0.084-0.1-0.124-0.191-0.196c0.24-0.156,0.344-0.236,0.483-0.38
			c0.156-0.164,0.24-0.28,0.388-0.54L35.823,67.918z M35.752,69.409c-0.036,0.012-0.057,0.02-0.072,0.024v0.316h1.911v-0.34H35.752z
			 M35.68,70.309h1.911v-0.352H35.68V70.309z M35.68,70.869h1.911v-0.352H35.68V70.869z M36.695,67.59
			c-0.016,0.084-0.024,0.168-0.024,0.304v0.644c0,0.192-0.119,0.272-0.403,0.272c-0.108,0-0.232-0.004-0.388-0.02
			c-0.012-0.092-0.032-0.16-0.068-0.24c0.188,0.028,0.3,0.04,0.428,0.04c0.16,0,0.185-0.012,0.185-0.08v-0.616
			c0-0.124-0.009-0.216-0.024-0.304H36.695z M37.387,67.782c0.328,0.38,0.536,0.552,0.956,0.775c-0.08,0.072-0.116,0.12-0.177,0.2
			c-0.428-0.268-0.615-0.428-0.979-0.844L37.387,67.782z"/>
	</g>
	<polyline clip-path="url(#SVGID_4_)" fill="none" stroke="#231815" stroke-width="0.5" stroke-miterlimit="10" points="
		17.972,58.655 26.294,71.915 38.7,71.915 	"/>
	<g id="レイヤー_5" clip-path="url(#SVGID_4_)">
		<path fill="none" stroke="#040000" stroke-width="0.5" d="M45.138,39.103c0,0.001,4.842-4.167,7.391-13.516
			c0,0,1.781-2.313-0.438-3.859c0,0-10.922-3.012-10.998-3.42c-0.074-0.409-4.627-13.984-13.455-14.643
			c-4.566-0.341-8.195,0.813-9.969,3.531c-0.652,1-2.294-0.404-3.119,0.412c-0.824,0.817-1.649,5.308-3.299,5.39
			C9.602,13.08-7.494,13.163-7.494,13.163"/>
		<path fill="none" stroke="#FFFFFF" stroke-width="0.5" stroke-dasharray="6,6" d="M45.138,39.103
			c0,0.001,4.842-4.167,7.391-13.516c0,0,1.781-2.313-0.438-3.859c0,0-10.922-3.012-10.998-3.42
			c-0.074-0.409-4.627-13.984-13.455-14.643c-4.566-0.341-8.195,0.813-9.969,3.531c-0.652,1-2.294-0.404-3.119,0.412
			c-0.824,0.817-1.649,5.308-3.299,5.39C9.602,13.08-7.494,13.163-7.494,13.163"/>
		<path fill="none" stroke="#040000" stroke-width="0.5" d="M35.479,27.414c0,0,1.467,0.301,2.508,2.093
			c2.381,4.1,6.501,6.102,6.501,6.102c0.481,0.077,2.782,1.082,2.782,1.082 M23.957,51.56c0.36-0.499,2.286-1.103,2.286-1.103
			l-0.473-3.983l1.246-3.216l4.518-8.744l3.945-7.101l-11.522-4.676L22.97,18.94l-2.755-0.612l-4.975,1.103
			c-0.013-0.245-3.528-2.403-3.528-2.403l-2.207-3.991"/>
		<path fill="none" stroke="#FFFFFF" stroke-width="0.5" stroke-dasharray="6,6" d="M35.479,27.414c0,0,1.467,0.301,2.508,2.093
			c2.381,4.1,6.501,6.102,6.501,6.102c0.481,0.077,2.782,1.082,2.782,1.082 M23.957,51.56c0.36-0.499,2.255-1.365,2.255-1.365
			l-0.441-3.72l1.246-3.216l4.518-8.744l3.945-7.101l-11.522-4.676L22.97,18.94l-2.755-0.612l-4.975,1.103
			c-0.013-0.245-3.528-2.403-3.528-2.403l-2.207-3.991"/>
		<ellipse fill="#040000" stroke="#040000" stroke-width="0.5" cx="31.501" cy="34.553" rx="0.773" ry="0.842"/>
		<ellipse fill="#040000" stroke="#040000" stroke-width="0.5" cx="45.614" cy="39.103" rx="0.773" ry="0.842"/>
		<ellipse fill="#040000" stroke="#040000" stroke-width="0.5" cx="26.314" cy="50.341" rx="0.773" ry="0.842"/>
		<ellipse fill="#040000" stroke="#040000" stroke-width="0.5" cx="35.48" cy="27.414" rx="0.773" ry="0.843"/>
		<ellipse fill="#040000" stroke="#040000" stroke-width="0.5" cx="23.513" cy="51.56" rx="0.773" ry="0.843"/>
	</g>
	<g clip-path="url(#SVGID_4_)">
		<path fill="#231815" d="M53.408,6.628c-0.025,0.971-0.065,1.456-0.175,1.937c-0.085,0.4-0.205,0.681-0.445,1.076
			c-0.095-0.115-0.155-0.175-0.27-0.26c0.205-0.3,0.325-0.561,0.405-0.886c0.12-0.485,0.174-1.276,0.174-2.493
			c0-0.295-0.01-0.455-0.024-0.625c0.18,0.015,0.34,0.02,0.605,0.02h2.497c0.256,0,0.375-0.005,0.525-0.02
			c-0.01,0.12-0.015,0.23-0.015,0.38v0.521c0,0.155,0.005,0.266,0.015,0.371c-0.14-0.015-0.28-0.02-0.5-0.02H53.408z M56.381,6.343
			V5.682h-2.968v0.661H56.381z M54.43,7.999c0.61-0.16,1.006-0.315,1.48-0.581c0.16-0.09,0.286-0.18,0.4-0.28l0.251,0.286
			c-0.69,0.41-1.316,0.666-2.132,0.875V9.09c0,0.105,0.029,0.14,0.135,0.165c0.1,0.03,0.37,0.04,0.886,0.04
			c0.695,0,0.891-0.03,0.966-0.135c0.08-0.115,0.125-0.35,0.17-0.806c0.136,0.085,0.181,0.1,0.326,0.14
			c-0.08,0.571-0.16,0.811-0.306,0.946c-0.141,0.125-0.4,0.16-1.177,0.16c-0.63,0-0.931-0.02-1.105-0.075
			c-0.165-0.05-0.215-0.135-0.215-0.36V7.354c0-0.215-0.011-0.34-0.03-0.48h0.375c-0.02,0.145-0.024,0.255-0.024,0.476V7.999z"/>
		<path fill="#231815" d="M57.702,6.442c0.32,0.195,0.526,0.346,0.831,0.611l-0.2,0.27c-0.275-0.275-0.485-0.45-0.82-0.65
			L57.702,6.442z M58.523,8.139c-0.165,0.516-0.32,0.891-0.525,1.281c-0.061,0.11-0.08,0.15-0.105,0.206L57.598,9.38
			c0.27-0.345,0.495-0.831,0.655-1.421L58.523,8.139z M57.933,5.236c0.325,0.215,0.521,0.375,0.781,0.641l-0.2,0.25
			c-0.266-0.291-0.445-0.446-0.786-0.671L57.933,5.236z M59.144,7.003c-0.194,0-0.396,0.01-0.51,0.03V6.708
			c0.114,0.02,0.305,0.03,0.51,0.03h0.366V6.082h-0.23c-0.181,0-0.346,0.01-0.476,0.025V5.777c0.13,0.02,0.275,0.03,0.476,0.03h0.23
			V5.582c0-0.155-0.011-0.295-0.025-0.391h0.351c-0.021,0.095-0.03,0.23-0.03,0.391v0.225h0.916V5.582
			c0-0.155-0.01-0.286-0.03-0.391h0.351c-0.021,0.1-0.03,0.23-0.03,0.391v0.225h0.41c0.195,0,0.365-0.01,0.48-0.03v0.331
			c-0.14-0.015-0.3-0.025-0.476-0.025h-0.415v0.656h0.561c0.255,0,0.405-0.01,0.511-0.03v0.325c-0.131-0.02-0.306-0.03-0.516-0.03
			h-0.621c0.15,0.215,0.211,0.286,0.381,0.426c0.26,0.22,0.48,0.35,0.815,0.47c-0.1,0.11-0.17,0.215-0.19,0.295
			c-0.395-0.215-0.6-0.355-0.851-0.591c-0.01,0.115-0.01,0.17-0.01,0.301v0.35c0,0.18,0.005,0.285,0.015,0.371
			c-0.104-0.01-0.175-0.01-0.365-0.01h-1.201v0.531c0,0.075,0.021,0.1,0.096,0.12c0.08,0.025,0.29,0.035,0.715,0.035
			c0.666,0,0.876-0.015,0.961-0.065c0.091-0.055,0.121-0.205,0.126-0.631c0.12,0.075,0.185,0.101,0.315,0.125
			c-0.061,0.841-0.101,0.866-1.332,0.866c-1.056,0-1.186-0.04-1.186-0.365V8.725c0-0.13,0-0.205-0.011-0.395
			c0.136,0.015,0.24,0.02,0.511,0.02h1.062V7.824h-0.831c-0.205,0-0.36,0.005-0.48,0.02V7.599c-0.221,0.235-0.4,0.371-0.775,0.596
			c-0.03-0.075-0.07-0.12-0.216-0.245c0.355-0.17,0.57-0.315,0.786-0.531c0.13-0.13,0.185-0.205,0.311-0.416H59.144z M59.89,7.003
			c-0.15,0.28-0.2,0.36-0.351,0.536c0.105,0.015,0.271,0.02,0.421,0.02h0.806c0.1,0,0.145,0,0.28-0.01
			c-0.165-0.17-0.24-0.271-0.415-0.546H59.89z M60.721,6.738V6.082h-0.916v0.656H60.721z"/>
	</g>
	
		<ellipse clip-path="url(#SVGID_4_)" fill="#040000" stroke="#040000" stroke-width="0.5" cx="63.553" cy="6.156" rx="0.772" ry="0.843"/>
</g>
</svg>
