<?xml version="1.0" encoding="utf-8"?>
<!-- Generator: Adobe Illustrator 16.0.3, SVG Export Plug-In . SVG Version: 6.00 Build 0)  -->
<!DOCTYPE svg PUBLIC "-//W3C//DTD SVG 1.1//EN" "http://www.w3.org/Graphics/SVG/1.1/DTD/svg11.dtd">
<svg version="1.1" id="レイヤー_1" xmlns="http://www.w3.org/2000/svg" xmlns:xlink="http://www.w3.org/1999/xlink" x="0px"
	 y="0px" width="113.5px" height="78.185px" viewBox="0 0 113.5 78.185" enable-background="new 0 0 113.5 78.185"
	 xml:space="preserve">
<g>
	<path d="M6.186,75.294c0.616-1.287,1.224-3.07,1.344-3.966l0.615,0.208c-0.08,0.191-0.08,0.191-0.319,0.967
		c-0.305,0.984-0.664,1.928-1.072,2.791h1.848c0.367,0,0.64-0.016,0.879-0.048v0.607c-0.256-0.04-0.487-0.056-0.879-0.056H3.275
		c-0.399,0-0.664,0.016-0.92,0.056v-0.607c0.256,0.032,0.528,0.048,0.92,0.048H6.186z M5.586,69.801
		c0-0.231-0.016-0.407-0.056-0.655h0.632c-0.04,0.231-0.057,0.432-0.057,0.647v0.655H8.24c0.4,0,0.672-0.016,0.92-0.056v0.6
		c-0.264-0.032-0.536-0.048-0.92-0.048H3.555c-0.367,0-0.631,0.016-0.887,0.048v-0.6c0.224,0.04,0.487,0.056,0.887,0.056h2.031
		V69.801z M4.267,71.416c0.384,1.048,0.607,1.847,0.863,3.158l-0.52,0.2c-0.208-1.191-0.487-2.207-0.871-3.167L4.267,71.416z"/>
	<path d="M10.308,75.798c0.504-0.416,0.752-0.712,1.023-1.239l0.439,0.239c-0.335,0.576-0.607,0.92-1.063,1.344L10.308,75.798z
		 M12.026,70.952c-0.295,0-0.487,0.008-0.711,0.032v-0.44c0.191,0.032,0.376,0.04,0.711,0.04h1.615
		c-0.008-0.176-0.016-0.256-0.04-0.359h0.536c-0.024,0.112-0.032,0.192-0.04,0.359h1.695c0.359,0,0.535-0.008,0.735-0.04v0.44
		c-0.208-0.024-0.336-0.032-0.735-0.032h-1.695v0.416h1.56c0.432,0,0.56-0.008,0.735-0.032v0.424
		c-0.184-0.024-0.32-0.032-0.735-0.032h-1.56v0.416h2.606c0.313,0,0.536-0.016,0.744-0.048v0.472
		c-0.24-0.032-0.44-0.048-0.744-0.048h-5.557c-0.296,0-0.496,0.008-0.744,0.048v-0.472c0.208,0.04,0.376,0.048,0.744,0.048h2.494
		v-0.416h-1.455c-0.296,0-0.464,0.008-0.711,0.032v-0.424c0.224,0.024,0.399,0.032,0.711,0.032h1.455v-0.416H12.026z M13.602,69.545
		c0-0.231-0.016-0.352-0.048-0.527h0.592c-0.032,0.168-0.04,0.287-0.04,0.527v0.128h2.127c0.536,0,0.815-0.008,1.048-0.032
		c-0.024,0.192-0.032,0.288-0.032,0.552v0.24c0,0.216,0.008,0.344,0.032,0.487h-0.52v-0.839h-5.686v0.831h-0.512
		c0.024-0.136,0.032-0.248,0.032-0.472v-0.288c0-0.184-0.008-0.312-0.032-0.512c0.224,0.024,0.488,0.032,0.976,0.032h2.063V69.545z
		 M16.721,73.774c0,0.216,0.008,0.336,0.031,0.528c-0.191-0.024-0.399-0.032-0.671-0.032h-4.342c-0.272,0-0.456,0.008-0.656,0.032
		c0.024-0.192,0.032-0.336,0.032-0.536v-0.352c0-0.208-0.008-0.36-0.032-0.552c0.2,0.023,0.36,0.032,0.68,0.032h4.31
		c0.32,0,0.48-0.009,0.68-0.032c-0.023,0.191-0.031,0.319-0.031,0.544V73.774z M12.834,73.255h-1.239v0.655h1.239V73.255z
		 M12.898,74.471c-0.032,0.184-0.04,0.304-0.04,0.527v0.567c0,0.185,0.048,0.192,1.079,0.192c1.071,0,1.271-0.024,1.384-0.16
		c0.063-0.088,0.12-0.304,0.144-0.64c0.128,0.08,0.296,0.152,0.456,0.2c-0.057,0.439-0.168,0.72-0.32,0.839
		c-0.184,0.145-0.552,0.185-1.751,0.185c-1.263,0-1.471-0.064-1.471-0.44v-0.703c0-0.232-0.008-0.376-0.04-0.567H12.898z
		 M14.514,73.255h-1.216v0.655h1.216V73.255z M14.529,75.39c-0.384-0.319-0.655-0.496-1.127-0.735l0.264-0.296
		c0.479,0.231,0.712,0.359,1.167,0.68L14.529,75.39z M16.232,73.91v-0.655h-1.255v0.655H16.232z M17.064,76.117
		c-0.384-0.592-0.664-0.919-1.136-1.343l0.359-0.28c0.473,0.399,0.752,0.704,1.2,1.279L17.064,76.117z"/>
	<path d="M21.114,70.104c0.216-0.399,0.328-0.695,0.432-1.119l0.576,0.104c-0.168,0.432-0.296,0.72-0.456,1.016h1.927
		c0.448,0,0.688-0.008,0.968-0.04c-0.032,0.264-0.04,0.496-0.04,0.991v4.254c0,0.488,0.008,0.704,0.048,0.928h-0.56v-0.472h-4.222
		v0.472h-0.552c0.032-0.231,0.048-0.479,0.048-0.936v-4.246c0-0.472-0.008-0.711-0.04-0.991c0.271,0.032,0.512,0.04,0.943,0.04
		H21.114z M19.787,71.8h4.229v-1.224h-4.229V71.8z M19.787,73.526h4.229v-1.263h-4.229V73.526z M19.787,75.294h4.229V73.99h-4.229
		V75.294z"/>
	<path d="M32.305,70.648c0.319,0,0.552-0.008,0.8-0.04c-0.032,0.231-0.04,0.439-0.04,0.72v4.214c0,0.271,0.016,0.527,0.048,0.783
		h-0.568v-0.456h-5.285v0.456h-0.56c0.032-0.271,0.048-0.504,0.048-0.783v-4.23c0-0.256-0.016-0.479-0.039-0.703
		c0.231,0.032,0.463,0.04,0.783,0.04h2.087v-0.8c0-0.288-0.017-0.552-0.056-0.808h0.631c-0.04,0.264-0.056,0.504-0.056,0.808v0.8
		H32.305z M27.259,71.128v1.831h2.319v-1.831H27.259z M27.259,73.415v1.99h2.319v-1.99H27.259z M32.544,72.959v-1.831h-2.446v1.831
		H32.544z M32.544,75.405v-1.99h-2.446v1.99H32.544z"/>
	<path d="M36.45,73.671c-0.335,0-0.551,0.008-0.719,0.032c0.008-0.112,0.016-0.177,0.016-0.225v-0.159l0.008-0.288v-0.872
		c0-0.264-0.008-0.415-0.023-0.615c0.184,0.023,0.424,0.032,0.68,0.032h3.046c0.304,0,0.504-0.009,0.655-0.032
		c-0.016,0.168-0.023,0.319-0.023,0.632v0.855c0,0.416,0.008,0.527,0.023,0.672c-0.231-0.024-0.495-0.032-0.783-0.032h-0.52v1.774
		c0,0.232,0.071,0.256,0.815,0.256c0.888,0,1.063-0.031,1.175-0.199c0.104-0.152,0.152-0.456,0.185-1.031
		c0.199,0.111,0.327,0.167,0.504,0.216c-0.097,0.823-0.192,1.119-0.416,1.295c-0.192,0.144-0.536,0.191-1.424,0.191
		c-1.135,0-1.343-0.088-1.343-0.56v-1.942h-0.911c-0.049,0.407-0.089,0.607-0.185,0.855c-0.248,0.655-0.775,1.167-1.543,1.495
		c-0.304,0.128-0.544,0.2-1.047,0.312c-0.08-0.199-0.145-0.312-0.28-0.504c0.896-0.136,1.487-0.359,1.911-0.719
		c0.399-0.344,0.567-0.736,0.632-1.439H36.45z M37.586,69.665c0-0.216-0.016-0.416-0.04-0.6h0.584c-0.024,0.184-0.04,0.376-0.04,0.6
		v0.815h0.84c0.399-0.448,0.6-0.728,0.847-1.199l0.488,0.248c-0.344,0.455-0.536,0.688-0.783,0.951h0.911
		c0.464,0,0.663-0.008,0.888-0.032c-0.024,0.208-0.032,0.408-0.032,0.728v0.464c0,0.16,0.008,0.288,0.032,0.448h-0.528v-1.176
		h-5.637v1.176h-0.527c0.023-0.192,0.032-0.344,0.032-0.488v-0.512c0-0.256-0.009-0.439-0.032-0.64
		c0.208,0.024,0.424,0.032,0.839,0.032h0.824c-0.2-0.344-0.408-0.6-0.752-0.943l0.448-0.2c0.439,0.496,0.552,0.647,0.839,1.144h0.8
		V69.665z M36.243,73.239h3.357v-1.231h-3.357V73.239z"/>
</g>
<g>
	<path d="M6.186,45.128c0.616-1.287,1.224-3.07,1.344-3.966l0.615,0.208c-0.08,0.191-0.08,0.191-0.319,0.967
		c-0.305,0.984-0.664,1.928-1.072,2.791h1.848c0.367,0,0.64-0.016,0.879-0.048v0.607c-0.256-0.04-0.487-0.056-0.879-0.056H3.275
		c-0.399,0-0.664,0.016-0.92,0.056V45.08c0.256,0.032,0.528,0.048,0.92,0.048H6.186z M5.586,39.635c0-0.231-0.016-0.407-0.056-0.655
		h0.632c-0.04,0.231-0.057,0.432-0.057,0.647v0.655H8.24c0.4,0,0.672-0.016,0.92-0.056v0.6c-0.264-0.032-0.536-0.048-0.92-0.048
		H3.555c-0.367,0-0.631,0.016-0.887,0.048v-0.6c0.224,0.04,0.487,0.056,0.887,0.056h2.031V39.635z M4.267,41.25
		c0.384,1.048,0.607,1.847,0.863,3.158l-0.52,0.2c-0.208-1.191-0.487-2.207-0.871-3.167L4.267,41.25z"/>
	<path d="M10.308,45.632c0.504-0.416,0.752-0.712,1.023-1.239l0.439,0.239c-0.335,0.576-0.607,0.92-1.063,1.344L10.308,45.632z
		 M12.026,40.786c-0.295,0-0.487,0.008-0.711,0.032v-0.44c0.191,0.032,0.376,0.04,0.711,0.04h1.615
		c-0.008-0.176-0.016-0.256-0.04-0.359h0.536c-0.024,0.112-0.032,0.192-0.04,0.359h1.695c0.359,0,0.535-0.008,0.735-0.04v0.44
		c-0.208-0.024-0.336-0.032-0.735-0.032h-1.695v0.416h1.56c0.432,0,0.56-0.008,0.735-0.032v0.424
		c-0.184-0.024-0.32-0.032-0.735-0.032h-1.56v0.416h2.606c0.313,0,0.536-0.016,0.744-0.048v0.472
		c-0.24-0.032-0.44-0.048-0.744-0.048h-5.557c-0.296,0-0.496,0.008-0.744,0.048V41.93c0.208,0.04,0.376,0.048,0.744,0.048h2.494
		v-0.416h-1.455c-0.296,0-0.464,0.008-0.711,0.032V41.17c0.224,0.024,0.399,0.032,0.711,0.032h1.455v-0.416H12.026z M13.602,39.379
		c0-0.231-0.016-0.352-0.048-0.527h0.592c-0.032,0.168-0.04,0.287-0.04,0.527v0.128h2.127c0.536,0,0.815-0.008,1.048-0.032
		c-0.024,0.192-0.032,0.288-0.032,0.552v0.24c0,0.216,0.008,0.344,0.032,0.487h-0.52v-0.839h-5.686v0.831h-0.512
		c0.024-0.136,0.032-0.248,0.032-0.472v-0.288c0-0.184-0.008-0.312-0.032-0.512c0.224,0.024,0.488,0.032,0.976,0.032h2.063V39.379z
		 M16.721,43.608c0,0.216,0.008,0.336,0.031,0.528c-0.191-0.024-0.399-0.032-0.671-0.032h-4.342c-0.272,0-0.456,0.008-0.656,0.032
		c0.024-0.192,0.032-0.336,0.032-0.536v-0.352c0-0.208-0.008-0.36-0.032-0.552c0.2,0.023,0.36,0.032,0.68,0.032h4.31
		c0.32,0,0.48-0.009,0.68-0.032c-0.023,0.191-0.031,0.319-0.031,0.544V43.608z M12.834,43.089h-1.239v0.655h1.239V43.089z
		 M12.898,44.305c-0.032,0.184-0.04,0.304-0.04,0.527v0.567c0,0.185,0.048,0.192,1.079,0.192c1.071,0,1.271-0.024,1.384-0.16
		c0.063-0.088,0.12-0.304,0.144-0.64c0.128,0.08,0.296,0.152,0.456,0.2c-0.057,0.439-0.168,0.72-0.32,0.839
		c-0.184,0.145-0.552,0.185-1.751,0.185c-1.263,0-1.471-0.064-1.471-0.44v-0.703c0-0.232-0.008-0.376-0.04-0.567H12.898z
		 M14.514,43.089h-1.216v0.655h1.216V43.089z M14.529,45.224c-0.384-0.319-0.655-0.496-1.127-0.735l0.264-0.296
		c0.479,0.231,0.712,0.359,1.167,0.68L14.529,45.224z M16.232,43.744v-0.655h-1.255v0.655H16.232z M17.064,45.951
		c-0.384-0.592-0.664-0.919-1.136-1.343l0.359-0.28c0.473,0.399,0.752,0.704,1.2,1.279L17.064,45.951z"/>
	<path d="M21.146,41.322c0,0.407,0.008,0.631,0.032,0.863c-0.256-0.024-0.473-0.032-0.888-0.032H19.1v2.263
		c0,0.304,0.088,0.344,0.735,0.344c0.536,0,0.823-0.048,0.936-0.144c0.104-0.096,0.168-0.424,0.168-0.863v-0.12
		c0-0.056,0-0.104,0-0.136c0.184,0.111,0.328,0.176,0.504,0.231c-0.04,0.688-0.12,1.063-0.264,1.224
		c-0.185,0.208-0.568,0.287-1.352,0.287c-1.04,0-1.224-0.111-1.224-0.728v-1.958c0-0.44-0.008-0.664-0.04-0.888
		c0.24,0.023,0.464,0.031,0.815,0.031h1.279v-1.799h-1.335c-0.336,0-0.56,0.008-0.8,0.04v-0.552c0.208,0.032,0.448,0.048,0.8,0.048
		h1.039c0.336,0,0.561-0.008,0.816-0.04c-0.024,0.256-0.032,0.464-0.032,0.808V41.322z M24.721,40.763
		c-0.049,0.639-0.112,1.023-0.248,1.511c-0.192,0.672-0.464,1.247-0.855,1.799c0.271,0.336,0.512,0.567,0.896,0.863
		c0.384,0.313,0.607,0.448,1.151,0.704c-0.168,0.191-0.24,0.304-0.336,0.504c-0.808-0.44-1.527-1.023-2.031-1.663
		c-0.248,0.296-0.527,0.552-0.888,0.831c-0.463,0.36-0.823,0.568-1.455,0.863c-0.088-0.216-0.168-0.335-0.312-0.487
		c0.936-0.336,1.743-0.88,2.358-1.607c-0.504-0.768-0.751-1.367-0.919-2.286c-0.265,0.479-0.384,0.671-0.64,1.007
		c-0.128-0.136-0.232-0.216-0.408-0.312c0.647-0.76,1.104-1.719,1.375-2.887c0.072-0.336,0.112-0.552,0.128-0.783l0.56,0.112
		c-0.031,0.088-0.056,0.184-0.127,0.487c-0.072,0.28-0.16,0.6-0.248,0.888h2.103c0.359,0,0.575-0.017,0.76-0.048v0.543
		c-0.2-0.031-0.376-0.039-0.735-0.039H24.721z M22.562,40.763c-0.064,0.176-0.096,0.247-0.168,0.415
		c0.152,1.008,0.416,1.703,0.928,2.479c0.312-0.479,0.52-0.936,0.68-1.535c0.119-0.455,0.159-0.711,0.216-1.358H22.562z"/>
	<path d="M26.364,42.058c0.184,0.032,0.327,0.04,0.615,0.04h0.416c0.231,0,0.424-0.017,0.615-0.04
		c-0.032,0.248-0.04,0.447-0.04,0.848v1.551c0.2,0.416,0.36,0.592,0.712,0.744c0.399,0.168,0.879,0.231,1.831,0.231
		c1.455,0,2.431-0.048,3.182-0.16c-0.111,0.256-0.144,0.353-0.184,0.592c-0.76,0.032-1.759,0.048-2.606,0.048
		c-1.423,0-1.895-0.056-2.367-0.279c-0.327-0.152-0.591-0.393-0.831-0.76c-0.368,0.376-0.544,0.527-0.968,0.855
		c-0.071,0.048-0.128,0.096-0.287,0.24l-0.265-0.528c0.353-0.16,0.815-0.512,1.288-0.968v-1.927h-0.528
		c-0.264,0-0.399,0.009-0.583,0.04V42.058z M26.924,39.099c0.52,0.496,0.879,0.888,1.279,1.416l-0.408,0.359
		c-0.456-0.647-0.695-0.936-1.247-1.447L26.924,39.099z M31.481,44.192h1.167c0.399,0,0.592-0.008,0.775-0.04v0.512
		c-0.224-0.024-0.472-0.04-0.775-0.04h-3.03c-0.264,0-0.408,0.008-0.647,0.04c0.031-0.24,0.04-0.448,0.04-0.823v-2.087
		c0.008-0.248,0.016-0.488,0.031-0.72c-0.231,0.352-0.447,0.6-0.72,0.863c-0.136-0.191-0.151-0.216-0.344-0.344
		c0.552-0.512,0.815-0.823,1.128-1.352c0.288-0.472,0.495-0.975,0.544-1.279l0.512,0.12c-0.049,0.088-0.049,0.088-0.177,0.4
		c-0.071,0.184-0.224,0.487-0.352,0.711h1.367c0.256-0.432,0.448-0.848,0.536-1.191l0.52,0.136c-0.048,0.072-0.08,0.129-0.231,0.44
		c-0.104,0.208-0.217,0.424-0.336,0.615h1.079c0.344,0,0.56-0.008,0.752-0.04v0.504c-0.208-0.023-0.408-0.032-0.712-0.032h-1.127
		v0.88h0.815c0.399,0,0.615-0.008,0.783-0.032v0.479c-0.216-0.023-0.408-0.031-0.783-0.031h-0.815v0.896h0.815
		c0.399,0,0.615-0.008,0.783-0.032v0.479c-0.216-0.023-0.408-0.032-0.783-0.032h-0.815V44.192z M31.018,40.586h-1.52v0.88h1.52
		V40.586z M31.018,41.882h-1.52v0.896h1.52V41.882z M29.498,43.192v1h1.52v-1H29.498z"/>
	<path d="M36.45,43.505c-0.335,0-0.551,0.008-0.719,0.032c0.008-0.112,0.016-0.177,0.016-0.225v-0.159l0.008-0.288v-0.872
		c0-0.264-0.008-0.415-0.023-0.615c0.184,0.023,0.424,0.032,0.68,0.032h3.046c0.304,0,0.504-0.009,0.655-0.032
		c-0.016,0.168-0.023,0.319-0.023,0.632v0.855c0,0.416,0.008,0.527,0.023,0.672c-0.231-0.024-0.495-0.032-0.783-0.032h-0.52v1.774
		c0,0.232,0.071,0.256,0.815,0.256c0.888,0,1.063-0.031,1.175-0.199c0.104-0.152,0.152-0.456,0.185-1.031
		c0.199,0.111,0.327,0.167,0.504,0.216c-0.097,0.823-0.192,1.119-0.416,1.295c-0.192,0.144-0.536,0.191-1.424,0.191
		c-1.135,0-1.343-0.088-1.343-0.56v-1.942h-0.911c-0.049,0.407-0.089,0.607-0.185,0.855c-0.248,0.655-0.775,1.167-1.543,1.495
		c-0.304,0.128-0.544,0.2-1.047,0.312c-0.08-0.199-0.145-0.312-0.28-0.504c0.896-0.136,1.487-0.359,1.911-0.719
		c0.399-0.344,0.567-0.736,0.632-1.439H36.45z M37.586,39.499c0-0.216-0.016-0.416-0.04-0.6h0.584c-0.024,0.184-0.04,0.376-0.04,0.6
		v0.815h0.84c0.399-0.448,0.6-0.728,0.847-1.199l0.488,0.248c-0.344,0.455-0.536,0.688-0.783,0.951h0.911
		c0.464,0,0.663-0.008,0.888-0.032c-0.024,0.208-0.032,0.408-0.032,0.728v0.464c0,0.16,0.008,0.288,0.032,0.448h-0.528v-1.176
		h-5.637v1.176h-0.527c0.023-0.192,0.032-0.344,0.032-0.488v-0.512c0-0.256-0.009-0.439-0.032-0.64
		c0.208,0.024,0.424,0.032,0.839,0.032h0.824c-0.2-0.344-0.408-0.6-0.752-0.943l0.448-0.2c0.439,0.496,0.552,0.647,0.839,1.144h0.8
		V39.499z M36.243,43.073h3.357v-1.231h-3.357V43.073z"/>
</g>
<g>
	<path d="M60.799,25.504c0-0.386-0.014-0.525-0.043-0.708h0.52c-0.029,0.218-0.035,0.406-0.035,0.708v0.469h0.664
		c0.268,0,0.449-0.014,0.645-0.042v0.47c-0.174-0.021-0.328-0.028-0.637-0.028c-0.063,0.868-0.217,1.534-0.498,2.206
		c0.441,0.574,0.658,0.903,1.002,1.471l-0.35,0.336c-0.225-0.42-0.561-0.966-0.855-1.372c-0.398,0.749-0.84,1.288-1.555,1.87
		c-0.111-0.154-0.188-0.225-0.35-0.337c0.764-0.567,1.232-1.12,1.617-1.912c-0.461-0.595-0.777-0.952-1.268-1.429l0.33-0.28
		c0.344,0.337,0.658,0.701,1.127,1.269c0.189-0.54,0.301-1.1,0.344-1.821H60c-0.295,0-0.447,0.007-0.623,0.035v-0.477
		c0.195,0.028,0.379,0.042,0.645,0.042h0.777V25.504z M62.831,27.381c0.441,0.532,0.68,0.889,1.035,1.562l-0.385,0.266
		c-0.301-0.672-0.566-1.085-1.008-1.61L62.831,27.381z M63.272,26.799c-0.273,0-0.471,0.015-0.658,0.042v-0.476
		c0.168,0.027,0.35,0.035,0.664,0.035h1.094v-0.785c0-0.371-0.016-0.581-0.049-0.763h0.539c-0.035,0.217-0.043,0.44-0.043,0.763
		V26.4h0.176c0.287,0,0.504-0.015,0.68-0.042v0.482c-0.246-0.034-0.4-0.042-0.688-0.042h-0.168v3.607
		c0,0.462-0.141,0.567-0.77,0.567c-0.316,0-0.49-0.007-0.799-0.021c-0.043-0.217-0.07-0.301-0.146-0.469
		c0.336,0.049,0.664,0.077,0.896,0.077c0.314,0,0.371-0.028,0.371-0.176v-3.586H63.272z"/>
	<path d="M67.848,27.255c0.428,0.321,0.672,0.539,0.953,0.854c0.258-0.588,0.398-1.036,0.574-1.933h-1.316
		c-0.338,0.834-0.771,1.513-1.367,2.171c-0.105-0.175-0.154-0.238-0.309-0.371c0.625-0.63,1.094-1.4,1.43-2.374
		c0.105-0.294,0.195-0.645,0.225-0.876l0.504,0.099c-0.063,0.147-0.084,0.21-0.141,0.399c-0.055,0.182-0.09,0.287-0.189,0.553h1.094
		c0.252,0,0.398-0.007,0.553-0.021c-0.014,0.091-0.021,0.119-0.027,0.196c0.244,0.686,0.441,1.043,0.854,1.526v-1.968
		c0-0.28-0.014-0.483-0.049-0.729h0.539c-0.035,0.245-0.049,0.441-0.049,0.729v2.388c0.553,0.49,1.064,0.813,1.736,1.1
		c-0.104,0.112-0.209,0.267-0.293,0.441c-0.631-0.315-0.988-0.561-1.443-0.98v1.765c0,0.379,0.014,0.589,0.049,0.854h-0.539
		c0.035-0.272,0.049-0.49,0.049-0.854V28.06c-0.49-0.546-0.729-0.903-0.967-1.478c-0.168,0.91-0.441,1.681-0.832,2.367
		c-0.455,0.784-1.072,1.45-1.961,2.108c-0.1-0.161-0.197-0.267-0.344-0.386c0.945-0.644,1.547-1.288,2.023-2.164
		c-0.336-0.392-0.58-0.616-1.016-0.924L67.848,27.255z"/>
	<path d="M74.043,25.44c-0.281,0-0.414,0.007-0.609,0.042v-0.477c0.188,0.035,0.336,0.042,0.629,0.042h1.045
		c0.271,0,0.412-0.007,0.594-0.042v0.463c-0.188-0.021-0.336-0.028-0.574-0.028h-0.342c-0.105,0.693-0.217,1.128-0.455,1.779h0.762
		c0.225,0,0.309-0.008,0.436-0.021c-0.014,0.141-0.021,0.287-0.021,0.561v2.087c0,0.238,0.008,0.435,0.021,0.574h-0.42v-0.245H74.35
		v0.735h-0.455c0.029-0.188,0.043-0.364,0.043-0.672v-1.576c0-0.224,0.006-0.455,0.021-0.749c-0.17,0.385-0.295,0.609-0.525,0.938
		c-0.078-0.161-0.176-0.302-0.268-0.393c0.4-0.477,0.688-1.036,0.926-1.813c0.139-0.441,0.209-0.764,0.266-1.205H74.043z
		 M74.35,29.804h0.758v-2.199H74.35V29.804z M76.598,25.447c-0.342,0-0.504,0.007-0.699,0.035v-0.469
		c0.203,0.027,0.406,0.042,0.715,0.042H79c0.303,0,0.52-0.015,0.723-0.042v0.469c-0.197-0.028-0.365-0.035-0.693-0.035h-1.107v0.7
		h0.932c0.273,0,0.463-0.007,0.623-0.034c-0.021,0.153-0.027,0.363-0.027,0.707v1.177c0,0.343,0.006,0.546,0.027,0.707
		c-0.174-0.028-0.336-0.035-0.58-0.035h-1.1c-0.1,0.483-0.211,0.777-0.406,1.079c0.664,0.469,1.422,0.714,2.479,0.819
		c-0.111,0.21-0.141,0.28-0.195,0.469c-1.059-0.175-1.842-0.476-2.535-0.974c-0.428,0.448-0.904,0.735-1.633,0.981
		c-0.084-0.169-0.141-0.253-0.26-0.386c0.68-0.175,1.164-0.435,1.576-0.848c-0.203-0.182-0.322-0.314-0.623-0.687
		c-0.035-0.049-0.063-0.069-0.105-0.119l0.385-0.23c0.113,0.23,0.316,0.477,0.59,0.729c0.16-0.267,0.244-0.477,0.307-0.834h-0.881
		c-0.211,0-0.344,0.007-0.52,0.035c0.021-0.154,0.029-0.364,0.029-0.665v-1.254c0-0.301-0.008-0.49-0.029-0.672
		c0.168,0.021,0.379,0.034,0.639,0.034h0.889v-0.7H76.598z M76.411,26.505v0.7h1.078l0.006-0.7H76.411z M76.411,27.556v0.756h1.016
		c0.033-0.336,0.041-0.469,0.049-0.756H76.411z M77.895,27.556c-0.014,0.336-0.021,0.469-0.049,0.756h1.189v-0.756H77.895z
		 M77.909,27.205h1.127v-0.7h-1.119L77.909,27.205z"/>
	<path d="M81.653,28.816c-0.197,0.638-0.365,1.078-0.576,1.499c-0.014,0.042-0.133,0.266-0.35,0.679l-0.398-0.364
		c0.287-0.266,0.664-1.078,0.967-2.087L81.653,28.816z M80.602,26.617c0.469,0.287,0.734,0.483,1.162,0.854l-0.266,0.371
		c-0.471-0.448-0.68-0.609-1.148-0.896L80.602,26.617z M80.903,24.895c0.447,0.308,0.734,0.553,1.086,0.924l-0.287,0.344
		c-0.406-0.455-0.631-0.651-1.086-0.953L80.903,24.895z M86.422,26.323c-0.057,0.021-0.078,0.021-0.154,0.056
		c-0.379,0.147-0.652,0.231-1.086,0.336c0.057,0.673,0.084,0.869,0.189,1.352c0.357-0.182,0.68-0.413,1.008-0.714l0.279,0.329
		c-0.496,0.371-0.791,0.561-1.189,0.777c0.301,1.029,0.637,1.625,1.254,2.228c-0.162,0.146-0.203,0.21-0.33,0.406
		c-0.566-0.638-0.883-1.198-1.17-2.053c-0.154-0.482-0.293-1.078-0.371-1.604c-0.006-0.098-0.006-0.098-0.07-0.638
		c-0.287,0.057-0.406,0.077-0.672,0.112v3.411c0,0.315,0.014,0.539,0.043,0.742h-0.525c0.027-0.224,0.041-0.448,0.041-0.749V26.96
		c-0.238,0.028-0.238,0.028-0.818,0.07c-0.043,1.968-0.295,3.131-0.877,4.048c-0.117-0.14-0.195-0.21-0.377-0.314
		c0.287-0.393,0.455-0.806,0.596-1.464c0.16-0.777,0.23-1.625,0.23-2.899c0-0.386-0.008-0.673-0.027-0.925
		c0.076,0.007,0.119,0.007,0.16,0.007c0.504,0,1.584-0.161,2.27-0.343c0.447-0.112,0.785-0.238,1.023-0.386l0.377,0.371
		c-0.182,0.07-0.182,0.07-0.26,0.099c-0.916,0.343-1.826,0.532-3.115,0.645v0.784c1.141-0.07,1.785-0.168,2.5-0.379
		c0.357-0.104,0.582-0.195,0.742-0.308L86.422,26.323z"/>
	<path d="M87.37,27.534c0.176,0.028,0.281,0.035,0.547,0.035h0.363c0.211,0,0.357-0.007,0.541-0.035
		c-0.029,0.211-0.035,0.393-0.035,0.743v1.372c0.104,0.225,0.188,0.337,0.342,0.448c0.406,0.302,0.828,0.386,1.822,0.386
		c1.338,0,2.156-0.035,2.814-0.133c-0.105,0.252-0.119,0.272-0.16,0.511c-0.623,0.028-1.611,0.049-2.438,0.049
		c-1.162,0-1.584-0.069-2.031-0.329c-0.23-0.133-0.398-0.301-0.582-0.574c-0.314,0.315-0.49,0.462-0.826,0.722
		c-0.111,0.084-0.168,0.133-0.273,0.23l-0.23-0.462c0.309-0.14,0.736-0.455,1.127-0.841v-1.694h-0.461
		c-0.238,0-0.344,0.007-0.52,0.035V27.534z M87.79,24.887c0.457,0.421,0.68,0.673,1.129,1.233l-0.357,0.322
		c-0.406-0.582-0.617-0.834-1.092-1.275L87.79,24.887z M89.78,25.763c-0.33,0-0.518,0.007-0.658,0.035v-0.435
		c0.16,0.021,0.377,0.035,0.729,0.035h1.225c0-0.238-0.014-0.427-0.049-0.63h0.49c-0.035,0.203-0.049,0.385-0.049,0.63h1.359
		c0.342,0,0.566-0.014,0.729-0.035v0.435c-0.162-0.028-0.357-0.035-0.701-0.035h-1.387v0.553h1.17c0.23,0,0.363-0.007,0.547-0.027
		c-0.021,0.161-0.029,0.28-0.029,0.477v1.4c0,0.189,0.008,0.301,0.029,0.455c-0.168-0.021-0.336-0.028-0.547-0.028h-1.17v0.574
		h1.414c0.344,0,0.547-0.007,0.693-0.034v0.434c-0.152-0.027-0.371-0.035-0.699-0.035h-1.408v0.134c0,0.224,0.014,0.434,0.049,0.637
		h-0.49c0.035-0.203,0.049-0.413,0.049-0.637V29.53h-1.232c-0.293,0-0.553,0.015-0.699,0.035v-0.434
		c0.152,0.027,0.35,0.034,0.699,0.034h1.232v-0.574h-1.057c-0.211,0-0.371,0.008-0.553,0.028c0.02-0.161,0.027-0.273,0.027-0.455
		V26.75c0-0.182-0.008-0.294-0.027-0.462c0.16,0.021,0.32,0.027,0.545,0.027h1.064v-0.553H89.78z M89.899,26.666v0.596h1.176v-0.596
		H89.899z M89.899,27.598v0.645h1.176v-0.645H89.899z M91.467,27.262h1.281v-0.596h-1.281V27.262z M91.467,28.242h1.281v-0.645
		h-1.281V28.242z"/>
	<path d="M97.739,24.769c0.295,0.476,0.617,0.826,1.156,1.268c0.596,0.49,1.254,0.882,1.918,1.148
		c-0.125,0.146-0.195,0.266-0.279,0.441c-0.701-0.344-1.408-0.806-1.975-1.289c-0.441-0.371-0.764-0.729-1.08-1.177
		c-0.469,0.658-0.854,1.058-1.471,1.534c-0.475,0.364-0.916,0.637-1.484,0.91c-0.076-0.161-0.133-0.238-0.293-0.399
		c0.721-0.322,1.322-0.707,1.904-1.219c0.498-0.427,0.77-0.742,1.078-1.218H97.739z M95.295,31.029
		c0.027-0.217,0.041-0.42,0.041-0.687v-1.548c0-0.259-0.006-0.448-0.035-0.644c0.148,0.021,0.295,0.027,0.547,0.027h3.285
		c0.252,0,0.398-0.007,0.545-0.027c-0.027,0.188-0.033,0.371-0.033,0.644v1.548c0,0.273,0.014,0.483,0.041,0.687h-0.504v-0.406
		h-3.383v0.406H95.295z M95.799,30.21h3.383v-1.604h-3.383V30.21z M95.848,26.897c0.125,0.021,0.295,0.027,0.553,0.027h2.172
		c0.273,0,0.441-0.007,0.588-0.027v0.476c-0.154-0.021-0.322-0.027-0.588-0.027h-2.178c-0.219,0-0.4,0.007-0.547,0.027V26.897z"/>
</g>
<g>
	<path d="M42.341,4.707c0,0.014,0,0.021,0,0.035c-0.049,0.539-0.161,1.12-0.336,1.568c-0.042,0.105-0.133,0.168-0.245,0.168
		c-0.035,0-0.077-0.007-0.119-0.021c-0.104-0.049-0.161-0.134-0.161-0.231c0-0.035,0.007-0.07,0.021-0.105
		c0.161-0.385,0.287-0.903,0.336-1.456c0.049-0.532,0.07-1.275,0.07-2.325c0-0.042,0-0.077,0.007-0.112
		c-0.049,0.028-0.105,0.042-0.161,0.042c-0.063,0-0.119-0.014-0.161-0.049c-0.056-0.049-0.084-0.112-0.084-0.176
		c0-0.056,0.021-0.111,0.063-0.161c0.393-0.44,0.708-1.029,0.918-1.701c0.035-0.112,0.112-0.161,0.217-0.161
		c0.028,0,0.063,0.007,0.099,0.014c0.126,0.028,0.195,0.077,0.195,0.168c0,0.021-0.007,0.049-0.014,0.084
		c-0.021,0.063-0.042,0.134-0.07,0.196h0.757c0.259,0,0.406,0.147,0.406,0.351c0,0.049-0.007,0.104-0.028,0.161
		c-0.077,0.224-0.21,0.497-0.356,0.756h0.279c0.357,0,0.519,0.161,0.519,0.567v3.565c0,0.406-0.238,0.553-0.693,0.553
		c-0.196,0-0.42-0.021-0.546-0.056c-0.099-0.021-0.154-0.105-0.154-0.218c0-0.021,0-0.049,0.007-0.069
		c0.014-0.126,0.105-0.189,0.196-0.189c0.021,0,0.035,0,0.056,0.007c0.077,0.015,0.252,0.042,0.364,0.042
		c0.252,0,0.309-0.027,0.309-0.195V4.707H42.341z M42.727,0.938c-0.126,0.287-0.28,0.561-0.448,0.827
		c0.049-0.008,0.098-0.015,0.161-0.015h0.763c0.147-0.252,0.26-0.497,0.322-0.679c0.008-0.021,0.015-0.042,0.015-0.057
		c0-0.049-0.035-0.077-0.099-0.077H42.727z M42.383,3.432c0,0.28,0,0.554-0.014,0.834h0.603V3.432H42.383z M42.572,2.199
		c-0.119,0-0.189,0.028-0.189,0.161c0,0.225,0,0.441,0,0.645h0.589V2.199H42.572z M43.427,3.005h0.603V2.36
		c0-0.133-0.063-0.161-0.189-0.161h-0.413V3.005z M44.029,3.432h-0.603v0.834h0.603V3.432z M44.884,0.777
		c-0.126,0-0.203-0.098-0.203-0.238c0-0.146,0.077-0.224,0.203-0.224h2.234c0.406,0,0.581,0.21,0.574,0.554
		c-0.008,0.343-0.042,0.693-0.126,0.966c-0.085,0.28-0.26,0.47-0.729,0.47c-0.203,0-0.399-0.021-0.525-0.049
		c-0.105-0.021-0.176-0.099-0.176-0.211c0-0.027,0.008-0.056,0.015-0.084c0.028-0.126,0.098-0.182,0.175-0.182
		c0.014,0,0.028,0,0.049,0.007c0.119,0.028,0.267,0.049,0.371,0.049c0.218,0,0.302-0.063,0.351-0.238
		c0.042-0.161,0.077-0.406,0.077-0.644c0-0.141-0.049-0.176-0.196-0.176H46.18c-0.092,0.735-0.491,1.373-1.121,1.716
		c-0.049,0.028-0.098,0.042-0.147,0.042c-0.084,0-0.161-0.042-0.21-0.118c-0.027-0.05-0.042-0.099-0.042-0.147
		c0-0.084,0.042-0.154,0.126-0.203c0.532-0.301,0.819-0.707,0.883-1.289H44.884z M45.381,3.685c-0.07,0.168-0.147,0.329-0.225,0.462
		c-0.049,0.084-0.126,0.126-0.217,0.126c-0.035,0-0.084-0.007-0.126-0.028c-0.084-0.042-0.133-0.119-0.133-0.203
		c0-0.042,0.014-0.084,0.035-0.118c0.188-0.302,0.364-0.722,0.44-1.086c0.021-0.119,0.105-0.175,0.211-0.175
		c0.021,0,0.049,0,0.069,0.007c0.126,0.027,0.196,0.104,0.196,0.203c0,0.021,0,0.049-0.007,0.069
		c-0.021,0.085-0.049,0.176-0.077,0.267h0.581V2.696c0-0.14,0.099-0.21,0.253-0.21c0.146,0,0.252,0.07,0.252,0.21v0.512h1.001
		c0.126,0,0.196,0.091,0.196,0.231c0,0.14-0.07,0.245-0.196,0.245h-1.001v0.813h1.19c0.133,0,0.196,0.091,0.196,0.237
		c0,0.141-0.063,0.245-0.196,0.245h-1.19v1.345c0,0.134-0.112,0.211-0.252,0.211c-0.154,0-0.253-0.077-0.253-0.211V4.979h-1.253
		c-0.119,0-0.196-0.104-0.196-0.245c0-0.146,0.077-0.237,0.196-0.237h1.253V3.685H45.381z"/>
	<path d="M48.767,1.177c-0.126,0-0.196-0.091-0.196-0.231c0-0.14,0.07-0.224,0.196-0.224h0.441V0.189C49.208,0.07,49.306,0,49.453,0
		c0.154,0,0.245,0.07,0.245,0.189v0.532h0.883V0.189c0-0.119,0.098-0.183,0.245-0.183c0.146,0,0.245,0.063,0.245,0.183v0.532h0.511
		c0.119,0,0.189,0.084,0.189,0.224c0,0.141-0.07,0.231-0.189,0.231h-0.511v0.777h0.637c0.119,0,0.189,0.091,0.189,0.231
		c0,0.133-0.07,0.231-0.189,0.231H48.62c-0.126,0-0.196-0.092-0.196-0.231c0-0.141,0.07-0.231,0.196-0.231h0.588V1.177H48.767z
		 M49.313,6.339c0,0.126-0.099,0.188-0.253,0.188c-0.146,0-0.252-0.063-0.252-0.188v-2.97c0-0.378,0.183-0.532,0.582-0.532h1.526
		c0.399,0,0.581,0.154,0.581,0.532v2.535c0,0.393-0.23,0.561-0.672,0.561c-0.238,0-0.428-0.021-0.554-0.056
		c-0.091-0.021-0.154-0.105-0.154-0.218c0-0.021,0-0.049,0.008-0.077c0.021-0.111,0.104-0.161,0.188-0.161
		c0.015,0,0.035,0,0.057,0.008c0.098,0.027,0.237,0.042,0.385,0.042c0.189,0,0.252-0.05,0.252-0.218V5.19h-1.694V6.339z
		 M51.008,3.824V3.453c0-0.133-0.069-0.168-0.203-0.168h-1.288c-0.134,0-0.203,0.035-0.203,0.168v0.371H51.008z M51.008,4.776V4.237
		h-1.694v0.539H51.008z M49.698,1.954h0.883V1.177h-0.883V1.954z M54.454,1.786c-0.007,0.056-0.007,0.105-0.015,0.161
		c-0.007,0.133-0.021,0.267-0.034,0.399c-0.092,0.826-0.357,1.646-0.771,2.367c0.343,0.462,0.771,0.854,1.295,1.219
		c0.076,0.049,0.111,0.133,0.111,0.217c0,0.07-0.02,0.141-0.063,0.196c-0.063,0.091-0.146,0.133-0.238,0.133
		c-0.063,0-0.119-0.021-0.174-0.063c-0.499-0.379-0.905-0.785-1.241-1.233c-0.364,0.498-0.798,0.918-1.289,1.247
		c-0.049,0.035-0.104,0.049-0.16,0.049c-0.085,0-0.161-0.042-0.218-0.126c-0.035-0.049-0.049-0.104-0.049-0.161
		c0-0.084,0.042-0.168,0.119-0.217c0.519-0.351,0.952-0.764,1.296-1.254c-0.344-0.603-0.567-1.232-0.708-1.905
		C52.24,2.941,52.156,3.068,52.08,3.18c-0.057,0.07-0.127,0.112-0.196,0.112c-0.057,0-0.112-0.028-0.161-0.077
		c-0.057-0.056-0.084-0.119-0.084-0.188c0-0.057,0.021-0.119,0.063-0.176c0.525-0.7,0.848-1.681,1.009-2.633
		c0.028-0.134,0.119-0.189,0.238-0.189c0.021,0,0.035,0,0.056,0.007c0.133,0.014,0.225,0.099,0.225,0.217
		c0,0.021,0,0.035-0.007,0.057c-0.05,0.301-0.127,0.637-0.238,0.98h1.835c0.125,0,0.195,0.098,0.195,0.245
		c0,0.14-0.07,0.252-0.195,0.252H54.454z M52.808,1.786c-0.049,0.133-0.104,0.267-0.168,0.399c0.119,0.714,0.337,1.407,0.68,2.045
		c0.393-0.757,0.567-1.597,0.603-2.444H52.808z"/>
</g>
<g>
	<path d="M47.647,64.104c0,0.448-0.203,0.63-0.616,0.63h-1.044c-0.161,0-0.224,0.05-0.224,0.218v1.828
		c0,0.203,0.056,0.259,0.672,0.259c0.617,0,0.735-0.049,0.806-0.203c0.07-0.133,0.099-0.357,0.099-0.658
		c0.007-0.147,0.111-0.217,0.259-0.217c0.007,0,0.014,0,0.021,0c0.147,0.007,0.26,0.084,0.26,0.23c0,0.007,0,0.007,0,0.015
		c-0.015,0.356-0.063,0.665-0.141,0.854c-0.035,0.084-0.077,0.146-0.133,0.203c-0.049,0.042-0.098,0.076-0.154,0.104
		c-0.188,0.112-0.483,0.161-0.952,0.161c-0.084,0-0.175,0-0.267-0.007c-0.847-0.014-1.008-0.183-1.008-0.603v-2.066
		c0-0.44,0.203-0.609,0.651-0.609h1.022c0.161,0,0.23-0.042,0.23-0.21V62.92c0-0.175-0.069-0.225-0.23-0.225h-1.492
		c-0.133,0-0.203-0.104-0.203-0.252c0-0.146,0.07-0.245,0.203-0.245h1.639c0.413,0,0.603,0.161,0.603,0.603V64.104z M50.82,63.516
		c-0.007,0.056-0.014,0.111-0.021,0.168c-0.007,0.133-0.021,0.272-0.042,0.398c-0.104,0.82-0.427,1.682-0.903,2.354
		c0.428,0.512,0.96,0.925,1.569,1.219c0.084,0.049,0.119,0.133,0.119,0.217c0,0.07-0.021,0.141-0.057,0.196
		c-0.056,0.099-0.146,0.141-0.245,0.141c-0.056,0-0.111-0.015-0.161-0.049c-0.623-0.357-1.142-0.792-1.562-1.296
		c-0.462,0.539-1.051,0.987-1.744,1.323c-0.056,0.028-0.112,0.042-0.168,0.042c-0.091,0-0.182-0.042-0.231-0.154
		c-0.027-0.042-0.034-0.091-0.034-0.133c0-0.104,0.063-0.196,0.161-0.245c0.658-0.294,1.239-0.714,1.694-1.261
		c-0.385-0.581-0.658-1.232-0.798-1.926c-0.112,0.189-0.238,0.393-0.364,0.561c-0.042,0.063-0.119,0.098-0.196,0.098
		c-0.049,0-0.099-0.021-0.147-0.056c-0.063-0.057-0.098-0.126-0.098-0.203c0-0.049,0.021-0.099,0.056-0.147
		c0.554-0.7,0.987-1.807,1.155-2.78c0.028-0.133,0.119-0.189,0.238-0.189c0.015,0,0.035,0,0.057,0.007
		c0.133,0.015,0.224,0.092,0.224,0.225c0,0.021,0,0.042-0.007,0.07c-0.056,0.28-0.14,0.602-0.252,0.924h2.318
		c0.126,0,0.203,0.092,0.203,0.245c0,0.141-0.077,0.253-0.203,0.253H50.82z M48.88,63.516c-0.049,0.118-0.098,0.237-0.146,0.356
		c0.049,0.287,0.098,0.567,0.188,0.848c0.141,0.448,0.344,0.883,0.603,1.282c0.309-0.483,0.532-1.016,0.658-1.569
		c0.07-0.308,0.092-0.603,0.112-0.917H48.88z"/>
	<path d="M54.164,63.585c0.134,0,0.218,0.099,0.218,0.238c0,0.147-0.084,0.238-0.218,0.238h-0.476
		c0.175,0.497,0.49,0.96,0.784,1.281c0.049,0.057,0.077,0.127,0.077,0.196c0,0.063-0.028,0.134-0.077,0.176
		c-0.042,0.042-0.105,0.063-0.161,0.063c-0.07,0-0.141-0.028-0.183-0.091c-0.203-0.252-0.42-0.687-0.532-1.029
		c0.035,0.294,0.084,0.7,0.084,1.064v2.388c0,0.126-0.091,0.196-0.252,0.196c-0.154,0-0.245-0.07-0.245-0.196v-2.191
		c0-0.372,0.042-0.82,0.105-1.233c-0.238,0.834-0.574,1.457-0.876,1.835c-0.056,0.077-0.14,0.126-0.224,0.126
		c-0.049,0-0.099-0.014-0.141-0.049c-0.069-0.056-0.104-0.133-0.104-0.21c0-0.063,0.021-0.126,0.069-0.182
		c0.47-0.532,0.869-1.317,1.086-2.144h-0.813c-0.126,0-0.196-0.091-0.196-0.231c0-0.146,0.07-0.245,0.196-0.245h0.896v-0.896
		c-0.245,0.063-0.49,0.112-0.7,0.141c-0.014,0.007-0.035,0.007-0.049,0.007c-0.112,0-0.203-0.07-0.225-0.203
		c-0.007-0.014-0.007-0.035-0.007-0.056c0-0.112,0.077-0.196,0.196-0.218c0.581-0.091,1.323-0.294,1.771-0.519
		c0.042-0.021,0.092-0.034,0.134-0.034c0.091,0,0.175,0.049,0.224,0.14c0.021,0.042,0.028,0.084,0.028,0.119
		c0,0.091-0.056,0.175-0.154,0.217c-0.196,0.092-0.448,0.189-0.722,0.267v1.036H54.164z M55.454,63.424
		c-0.168,0.344-0.357,0.651-0.547,0.903c-0.063,0.077-0.141,0.112-0.217,0.112c-0.057,0-0.105-0.014-0.147-0.049
		c-0.077-0.056-0.112-0.126-0.112-0.203c0-0.056,0.021-0.119,0.063-0.168c0.421-0.512,0.785-1.282,0.988-2.018
		c0.035-0.118,0.127-0.182,0.238-0.182c0.027,0,0.049,0,0.076,0.007c0.127,0.028,0.184,0.105,0.184,0.203
		c0,0.028-0.008,0.049-0.016,0.077c-0.076,0.273-0.174,0.554-0.293,0.833h2.633c0.127,0,0.197,0.099,0.197,0.245
		c0,0.141-0.07,0.238-0.197,0.238h-1.506v4.084c0,0.511-0.225,0.679-0.764,0.679c-0.23,0-0.49-0.027-0.645-0.063
		c-0.104-0.028-0.195-0.112-0.195-0.245c0-0.021,0-0.035,0.008-0.057c0.02-0.14,0.125-0.21,0.223-0.21c0.016,0,0.029,0,0.049,0.007
		c0.119,0.028,0.33,0.063,0.477,0.063c0.252,0,0.316-0.057,0.316-0.267v-3.992H55.454z M55.684,64.503c0,0.014,0,0.027,0,0.042
		c-0.105,0.917-0.35,1.877-0.701,2.584c-0.063,0.119-0.16,0.183-0.266,0.183c-0.041,0-0.09-0.007-0.133-0.028
		c-0.098-0.049-0.147-0.133-0.147-0.231c0-0.049,0.014-0.098,0.035-0.146c0.342-0.645,0.575-1.506,0.68-2.417
		c0.02-0.133,0.104-0.217,0.236-0.217c0.021,0,0.043,0,0.064,0.007C55.592,64.3,55.684,64.37,55.684,64.503z M57.653,64.265
		c0.154,0,0.23,0.063,0.252,0.238c0.111,0.882,0.328,1.771,0.658,2.444c0.021,0.049,0.035,0.104,0.035,0.161
		c0,0.104-0.049,0.203-0.141,0.245c-0.049,0.027-0.098,0.035-0.141,0.035c-0.104,0-0.203-0.057-0.244-0.154
		c-0.344-0.735-0.568-1.716-0.693-2.689c0-0.015,0-0.028,0-0.042c0-0.154,0.105-0.231,0.244-0.238
		C57.639,64.265,57.645,64.265,57.653,64.265z"/>
</g>
<g>
	<path d="M14.146,11.211c0.272,1.023,0.695,1.863,1.304,2.574c0.583,0.68,1.255,1.168,2.167,1.56
		c-0.16,0.191-0.225,0.279-0.353,0.535c-1.791-0.951-2.782-2.118-3.357-3.949c-0.216,1.167-0.744,2.135-1.56,2.87
		c-0.504,0.448-0.943,0.728-1.727,1.088c-0.112-0.225-0.177-0.313-0.345-0.488c1-0.407,1.584-0.8,2.104-1.399
		c0.623-0.72,0.959-1.566,1.111-2.79h-2.175c-0.424,0-0.647,0.016-0.88,0.056v-0.623c0.208,0.04,0.472,0.056,0.896,0.056h2.207
		c0.023-0.384,0.032-0.632,0.032-0.943c0-0.368-0.024-0.656-0.057-0.872h0.656c-0.04,0.265-0.057,0.44-0.057,0.832
		c-0.008,0.407-0.016,0.64-0.04,0.983h2.423c0.408,0,0.672-0.016,0.888-0.056v0.623c-0.256-0.04-0.479-0.056-0.879-0.056H14.146z"/>
	<path d="M24.896,11.387c-0.024,0.04-0.104,0.216-0.24,0.536c-0.456,1.063-0.607,1.351-1.063,1.95
		c0.248,0.504,0.448,0.76,0.808,1.063c0.144,0.112,0.271,0.185,0.344,0.185c0.128,0,0.264-0.416,0.36-1.151
		c0.168,0.168,0.287,0.264,0.432,0.352c-0.104,0.527-0.168,0.743-0.288,0.976c-0.128,0.256-0.288,0.384-0.496,0.384
		s-0.527-0.185-0.839-0.496c-0.24-0.231-0.456-0.527-0.664-0.896c-0.655,0.695-1.295,1.159-2.215,1.591
		c-0.128-0.191-0.208-0.271-0.392-0.407c0.999-0.4,1.727-0.903,2.375-1.655c-0.368-0.855-0.6-1.991-0.68-3.326h-2.814
		c0,0.695-0.009,0.968-0.017,1.304h1.527c0.288,0,0.424-0.009,0.6-0.032c-0.023,0.168-0.023,0.168-0.056,0.896
		c-0.048,0.903-0.128,1.487-0.24,1.719c-0.12,0.248-0.296,0.32-0.743,0.32c-0.288,0-0.479-0.017-0.84-0.072
		c-0.016-0.208-0.032-0.328-0.096-0.52c0.439,0.096,0.68,0.128,0.943,0.128s0.328-0.072,0.384-0.424
		c0.056-0.336,0.096-0.936,0.104-1.567h-1.599c-0.048,1.023-0.112,1.615-0.256,2.207c-0.136,0.567-0.28,0.911-0.607,1.399
		c-0.145-0.168-0.256-0.265-0.424-0.36c0.296-0.416,0.447-0.751,0.56-1.199c0.176-0.72,0.264-1.799,0.264-3.358
		c0-0.535-0.008-0.663-0.048-0.936c0.279,0.032,0.567,0.04,0.976,0.04h2.358c-0.032-0.983-0.04-1.111-0.08-1.295h0.616
		c-0.032,0.16-0.04,0.352-0.04,0.655c0,0.145,0,0.265,0.016,0.64h1.743c0.448,0,0.655-0.008,0.855-0.048v0.544
		c-0.248-0.032-0.472-0.04-0.896-0.04h-1.688c0.057,1.144,0.232,2.111,0.528,2.879c0.479-0.688,0.896-1.615,0.983-2.199
		L24.896,11.387z M24.456,9.907c-0.447-0.407-0.615-0.535-1.151-0.847l0.344-0.28c0.528,0.304,0.624,0.368,1.144,0.792L24.456,9.907
		z"/>
	<path d="M30.186,8.78c0.376,0.575,0.728,0.951,1.344,1.431c0.695,0.552,1.463,0.992,2.206,1.279
		c-0.159,0.192-0.239,0.328-0.312,0.512c-0.8-0.375-1.575-0.863-2.223-1.391c-0.536-0.439-0.903-0.84-1.279-1.367
		c-0.392,0.544-0.695,0.871-1.199,1.312c-0.704,0.607-1.359,1.039-2.159,1.407c-0.08-0.168-0.208-0.336-0.336-0.456
		c0.824-0.36,1.455-0.752,2.119-1.304c0.552-0.464,0.92-0.871,1.271-1.423H30.186z M27.483,13.242c-0.392,0-0.672,0.016-0.912,0.048
		v-0.576c0.248,0.032,0.512,0.048,0.912,0.048h4.925c0.408,0,0.664-0.016,0.912-0.048v0.576c-0.248-0.032-0.521-0.048-0.912-0.048
		h-2.87c-0.439,0.959-0.592,1.255-1,1.887c1.104-0.072,1.936-0.152,3.119-0.296c-0.48-0.52-0.624-0.664-0.976-0.991l0.415-0.256
		c0.8,0.751,1.336,1.343,1.936,2.11l-0.439,0.328c-0.313-0.44-0.416-0.576-0.584-0.784c-1.424,0.192-2.631,0.32-3.878,0.416
		c-0.991,0.08-1.151,0.096-1.352,0.145l-0.096-0.608c0.136,0.017,0.288,0.024,0.408,0.024c0.128,0,0.128,0,0.847-0.048
		c0.448-0.712,0.704-1.191,1.016-1.927H27.483z M27.995,11.251c0.16,0.023,0.336,0.032,0.632,0.032h2.582
		c0.312,0,0.496-0.009,0.672-0.032v0.535c-0.168-0.023-0.376-0.031-0.672-0.031h-2.591c-0.239,0-0.463,0.008-0.623,0.031V11.251z"/>
</g>
<g>
	<path d="M63.204,10.035c0-0.384-0.018-0.663-0.049-0.983c0.264,0.032,0.504,0.04,0.936,0.04h4.781c0.424,0,0.656-0.008,0.951-0.04
		c-0.031,0.296-0.047,0.568-0.047,0.983v4.87c0,0.583,0.016,0.879,0.047,1.095h-0.559v-0.487h-5.549V16h-0.561
		c0.031-0.216,0.049-0.504,0.049-1.095V10.035z M63.715,15.057h5.549V9.548h-5.549V15.057z M65.083,10.731
		c-0.344,0-0.537,0.008-0.752,0.04V10.26c0.223,0.04,0.398,0.048,0.752,0.048h2.822c0.359,0,0.574-0.017,0.783-0.048v0.512
		c-0.225-0.032-0.416-0.04-0.775-0.04H66.68v1.239h0.984c0.359,0,0.52-0.008,0.719-0.04v0.504c-0.199-0.032-0.383-0.04-0.719-0.04
		H66.68v1.463h1.344c0.328,0,0.561-0.016,0.783-0.048v0.527c-0.23-0.032-0.471-0.048-0.783-0.048h-3.047
		c-0.328,0-0.551,0.016-0.791,0.048V13.81c0.225,0.032,0.455,0.048,0.791,0.048h1.207v-1.463h-0.855
		c-0.334,0-0.527,0.008-0.727,0.04v-0.504c0.199,0.032,0.359,0.04,0.727,0.04h0.855v-1.239H65.083z M67.649,12.538
		c0.326,0.328,0.455,0.504,0.75,0.951l-0.375,0.24c-0.279-0.487-0.408-0.664-0.711-0.991L67.649,12.538z"/>
	<path d="M75.042,11.314c0.047,0.496,0.07,0.68,0.184,1.128l1.822-0.024c0.463,0,0.648-0.016,0.848-0.056v0.552
		C77.6,12.89,77.6,12.89,77.055,12.89l-1.703,0.017c0.217,0.671,0.553,1.255,1.016,1.751c0.313,0.336,0.703,0.607,0.871,0.607
		c0.184,0,0.305-0.352,0.377-1.151c0.199,0.168,0.271,0.208,0.479,0.304c-0.176,1.063-0.383,1.423-0.807,1.423
		c-0.439,0-1.088-0.487-1.607-1.215c-0.393-0.544-0.648-1.056-0.855-1.711l-2.352,0.032v2.126c0.84-0.184,1.52-0.375,2.391-0.671
		l0.018,0.495c-1.232,0.408-1.912,0.592-3.271,0.872c-0.191,0.04-0.352,0.08-0.439,0.111l-0.135-0.575
		c0.207-0.008,0.486-0.048,0.918-0.128V10.06c0-0.392-0.008-0.6-0.031-0.903c0.256,0.031,0.504,0.04,0.936,0.04h3.559
		c0.352,0,0.582-0.009,0.83-0.04c-0.023,0.16-0.023,0.279-0.023,0.64v0.951c0,0.296,0.008,0.448,0.023,0.592
		c-0.238-0.016-0.471-0.024-0.791-0.024H75.042z M72.473,10.867h4.246V9.651h-4.246V10.867z M72.473,11.314v1.16l2.232-0.024
		c-0.08-0.384-0.129-0.672-0.186-1.136H72.473z"/>
	<path d="M79.723,9.443c0-0.295-0.018-0.495-0.057-0.711h0.615c-0.039,0.216-0.055,0.384-0.055,0.703v1.327h0.104
		c0.295,0,0.424-0.008,0.574-0.04v0.528c-0.191-0.024-0.303-0.032-0.566-0.032h-0.111v3.902c0,0.327,0.016,0.567,0.055,0.863h-0.615
		c0.039-0.248,0.057-0.512,0.057-0.872v-3.894h-0.209c-0.287,0-0.447,0.008-0.664,0.032v-0.528c0.186,0.032,0.336,0.04,0.664,0.04
		h0.209V9.443z M82.53,12.57c0.311,0,0.486-0.008,0.67-0.032c-0.016,0.152-0.016,0.24-0.023,0.448c0,0.512-0.08,1.398-0.16,1.919
		c-0.119,0.759-0.24,0.871-0.951,0.871c-0.104,0-0.256-0.008-0.383-0.016c-0.018-0.216-0.033-0.304-0.105-0.504
		c0.232,0.048,0.416,0.071,0.6,0.071c0.201,0,0.281-0.056,0.32-0.207c0.104-0.408,0.184-1.191,0.199-2.111h-0.703
		c-0.152,1.287-0.486,2.103-1.199,2.895c-0.145-0.216-0.191-0.271-0.344-0.416c0.633-0.592,0.936-1.279,1.088-2.479h-0.377
		c-0.215,0-0.318,0.008-0.471,0.032V12.53c0.127,0.032,0.248,0.04,0.496,0.04h0.391c0.008-0.176,0.018-0.304,0.018-0.439
		c0-0.168-0.01-0.265-0.025-0.385h0.527c-0.023,0.145-0.039,0.313-0.047,0.521c-0.008,0.111-0.008,0.151-0.016,0.304H82.53z
		 M84.936,9.492c0.264,0,0.447-0.009,0.631-0.032c-0.023,0.184-0.023,0.184-0.031,0.336c-0.057,0.632-0.137,1.111-0.232,1.335
		c-0.064,0.144-0.184,0.256-0.344,0.312c-0.096,0.032-0.256,0.048-0.512,0.048c-0.225,0-0.496-0.016-0.799-0.039
		c-0.018-0.192-0.041-0.313-0.105-0.504c0.297,0.063,0.648,0.096,0.977,0.096c0.215,0,0.303-0.056,0.359-0.216
		c0.064-0.192,0.104-0.456,0.137-0.896h-1.76c-0.336,0.84-0.887,1.343-1.943,1.799c-0.088-0.176-0.176-0.296-0.311-0.432
		c0.943-0.32,1.455-0.72,1.75-1.367h-0.807c-0.361,0-0.576,0.008-0.775,0.04v-0.52c0.207,0.031,0.439,0.04,0.799,0.04h0.936
		c0.064-0.265,0.088-0.464,0.088-0.656c0-0.056,0-0.08-0.008-0.136l0.584,0.032c-0.033,0.104-0.057,0.199-0.096,0.424
		c-0.025,0.12-0.041,0.191-0.072,0.336H84.936z M85.334,12.57c0.297,0,0.465-0.008,0.664-0.032
		c-0.008,0.144-0.016,0.304-0.023,0.479c-0.064,1.336-0.16,2.111-0.313,2.439c-0.104,0.231-0.318,0.319-0.783,0.319
		c-0.279,0-0.352,0-0.535-0.024c-0.016-0.224-0.033-0.295-0.104-0.503c0.303,0.056,0.494,0.079,0.719,0.079
		c0.207,0,0.279-0.039,0.32-0.176c0.119-0.407,0.191-1.127,0.215-2.143h-0.863c-0.111,0.823-0.248,1.335-0.504,1.879
		c-0.191,0.408-0.359,0.64-0.695,1.008c-0.104-0.16-0.199-0.264-0.352-0.384c0.6-0.528,0.943-1.296,1.096-2.503h-0.217
		c-0.23,0-0.336,0.008-0.486,0.032V12.53c0.135,0.032,0.256,0.04,0.512,0.04h0.23c0.016-0.24,0.025-0.352,0.025-0.496
		c0-0.128-0.01-0.216-0.018-0.336h0.52c-0.023,0.137-0.031,0.208-0.055,0.648c-0.008,0.071-0.008,0.104-0.016,0.184H85.334z"/>
	<path d="M90.768,8.78c0.377,0.575,0.729,0.951,1.344,1.431c0.695,0.552,1.463,0.992,2.207,1.279
		c-0.16,0.192-0.24,0.328-0.313,0.512c-0.799-0.375-1.574-0.863-2.223-1.391c-0.535-0.439-0.902-0.84-1.279-1.367
		c-0.391,0.544-0.695,0.871-1.199,1.312c-0.703,0.607-1.359,1.039-2.158,1.407c-0.08-0.168-0.209-0.336-0.336-0.456
		c0.824-0.36,1.455-0.752,2.119-1.304c0.551-0.464,0.92-0.871,1.271-1.423H90.768z M88.067,13.242c-0.393,0-0.672,0.016-0.912,0.048
		v-0.576c0.248,0.032,0.512,0.048,0.912,0.048h4.924c0.408,0,0.664-0.016,0.912-0.048v0.576c-0.248-0.032-0.52-0.048-0.912-0.048
		h-2.869c-0.439,0.959-0.592,1.255-1,1.887c1.104-0.072,1.936-0.152,3.119-0.296c-0.48-0.52-0.625-0.664-0.977-0.991l0.416-0.256
		c0.799,0.751,1.336,1.343,1.936,2.11l-0.439,0.328c-0.313-0.44-0.416-0.576-0.584-0.784c-1.424,0.192-2.631,0.32-3.879,0.416
		c-0.99,0.08-1.15,0.096-1.352,0.145l-0.096-0.608c0.137,0.017,0.289,0.024,0.408,0.024c0.129,0,0.129,0,0.848-0.048
		c0.447-0.712,0.703-1.191,1.016-1.927H88.067z M88.579,11.251c0.16,0.023,0.336,0.032,0.631,0.032h2.582
		c0.313,0,0.496-0.009,0.672-0.032v0.535c-0.168-0.023-0.375-0.031-0.672-0.031h-2.59c-0.24,0-0.463,0.008-0.623,0.031V11.251z"/>
</g>
<g>
	<path d="M70.782,70.104c0.215-0.399,0.328-0.695,0.432-1.119l0.576,0.104c-0.168,0.432-0.297,0.72-0.457,1.016h1.928
		c0.447,0,0.688-0.008,0.967-0.04c-0.031,0.264-0.039,0.496-0.039,0.991v4.254c0,0.488,0.008,0.704,0.047,0.928h-0.559v-0.472
		h-4.223v0.472h-0.551c0.031-0.231,0.047-0.479,0.047-0.936v-4.246c0-0.472-0.008-0.711-0.039-0.991
		c0.271,0.032,0.512,0.04,0.943,0.04H70.782z M69.454,71.8h4.23v-1.224h-4.23V71.8z M69.454,73.526h4.23v-1.263h-4.23V73.526z
		 M69.454,75.294h4.23V73.99h-4.23V75.294z"/>
	<path d="M81.971,70.648c0.32,0,0.553-0.008,0.801-0.04c-0.033,0.231-0.041,0.439-0.041,0.72v4.214c0,0.271,0.016,0.527,0.049,0.783
		h-0.568v-0.456h-5.285v0.456h-0.561c0.033-0.271,0.049-0.504,0.049-0.783v-4.23c0-0.256-0.016-0.479-0.039-0.703
		c0.23,0.032,0.463,0.04,0.783,0.04h2.086v-0.8c0-0.288-0.016-0.552-0.055-0.808h0.631c-0.041,0.264-0.057,0.504-0.057,0.808v0.8
		H81.971z M76.926,71.128v1.831h2.318v-1.831H76.926z M76.926,73.415v1.99h2.318v-1.99H76.926z M82.211,72.959v-1.831h-2.447v1.831
		H82.211z M82.211,75.405v-1.99h-2.447v1.99H82.211z"/>
	<path d="M86.118,73.671c-0.336,0-0.551,0.008-0.719,0.032c0.008-0.112,0.016-0.177,0.016-0.225v-0.159l0.008-0.288v-0.872
		c0-0.264-0.008-0.415-0.023-0.615c0.184,0.023,0.424,0.032,0.68,0.032h3.045c0.305,0,0.504-0.009,0.656-0.032
		c-0.016,0.168-0.023,0.319-0.023,0.632v0.855c0,0.416,0.008,0.527,0.023,0.672c-0.232-0.024-0.496-0.032-0.783-0.032h-0.52v1.774
		c0,0.232,0.07,0.256,0.814,0.256c0.889,0,1.064-0.031,1.176-0.199c0.104-0.152,0.152-0.456,0.184-1.031
		c0.199,0.111,0.328,0.167,0.504,0.216c-0.096,0.823-0.191,1.119-0.416,1.295c-0.191,0.144-0.535,0.191-1.424,0.191
		c-1.135,0-1.342-0.088-1.342-0.56v-1.942h-0.912c-0.049,0.407-0.088,0.607-0.184,0.855c-0.248,0.655-0.775,1.167-1.543,1.495
		c-0.305,0.128-0.545,0.2-1.047,0.312c-0.08-0.199-0.145-0.312-0.281-0.504c0.896-0.136,1.488-0.359,1.912-0.719
		c0.398-0.344,0.566-0.736,0.631-1.439H86.118z M87.252,69.665c0-0.216-0.016-0.416-0.039-0.6h0.584
		c-0.025,0.184-0.041,0.376-0.041,0.6v0.815h0.84c0.4-0.448,0.6-0.728,0.848-1.199l0.488,0.248
		c-0.344,0.455-0.537,0.688-0.783,0.951h0.91c0.465,0,0.664-0.008,0.889-0.032c-0.025,0.208-0.033,0.408-0.033,0.728v0.464
		c0,0.16,0.008,0.288,0.033,0.448h-0.529v-1.176h-5.637v1.176h-0.527c0.023-0.192,0.033-0.344,0.033-0.488v-0.512
		c0-0.256-0.01-0.439-0.033-0.64c0.209,0.024,0.424,0.032,0.84,0.032h0.824c-0.201-0.344-0.408-0.6-0.752-0.943l0.447-0.2
		c0.439,0.496,0.553,0.647,0.84,1.144h0.799V69.665z M85.911,73.239h3.357v-1.231h-3.357V73.239z"/>
</g>
<rect x="0.375" y="37.435" fill="none" stroke="#000000" stroke-width="0.75" stroke-miterlimit="10" width="43.25" height="10.25"/>
<rect x="0.375" y="67.56" fill="none" stroke="#000000" stroke-width="0.75" stroke-miterlimit="10" width="43.25" height="10.25"/>
<rect x="0.375" y="7.56" fill="none" stroke="#000000" stroke-width="0.75" stroke-miterlimit="10" width="43.25" height="10.25"/>
<rect x="60.75" y="7.56" fill="none" stroke="#000000" stroke-width="0.75" stroke-miterlimit="10" width="35.5" height="10.25"/>
<rect x="60.75" y="67.56" fill="none" stroke="#000000" stroke-width="0.75" stroke-miterlimit="10" width="35.5" height="10.25"/>
<g>
	<g>
		
			<line fill="none" stroke="#000000" stroke-width="0.75" stroke-miterlimit="10" x1="43.625" y1="12.685" x2="56.432" y2="12.685"/>
		<g>
			<path d="M51.305,16.284c-0.111-0.174-0.059-0.406,0.116-0.518l4.839-3.082l-4.839-3.082c-0.175-0.111-0.228-0.344-0.116-0.518
				c0.111-0.175,0.346-0.225,0.52-0.115l5.334,3.398c0.109,0.068,0.174,0.188,0.174,0.316s-0.064,0.248-0.174,0.316l-5.334,3.398
				c-0.063,0.039-0.133,0.059-0.202,0.059C51.498,16.458,51.377,16.396,51.305,16.284z"/>
		</g>
	</g>
</g>
<g>
	<g>
		
			<line fill="none" stroke="#000000" stroke-width="0.75" stroke-miterlimit="10" x1="96.375" y1="12.685" x2="112.598" y2="12.685"/>
		<g>
			<path d="M107.473,16.284c-0.111-0.174-0.061-0.406,0.115-0.518l4.838-3.082l-4.838-3.082c-0.176-0.111-0.227-0.344-0.115-0.518
				c0.111-0.175,0.344-0.225,0.518-0.115l5.336,3.398c0.107,0.068,0.174,0.188,0.174,0.316s-0.066,0.248-0.174,0.316l-5.336,3.398
				c-0.063,0.039-0.133,0.059-0.201,0.059C107.667,16.458,107.543,16.396,107.473,16.284z"/>
		</g>
	</g>
</g>
<g>
	<g>
		
			<line fill="none" stroke="#000000" stroke-width="0.75" stroke-miterlimit="10" x1="43.708" y1="42.935" x2="112.598" y2="42.935"/>
		<g>
			<path d="M107.473,46.534c-0.111-0.174-0.061-0.406,0.115-0.518l4.838-3.082l-4.838-3.082c-0.176-0.111-0.227-0.344-0.115-0.518
				c0.111-0.175,0.344-0.225,0.518-0.115l5.336,3.398c0.107,0.068,0.174,0.188,0.174,0.316s-0.066,0.248-0.174,0.316l-5.336,3.398
				c-0.063,0.039-0.133,0.059-0.201,0.059C107.667,46.708,107.543,46.646,107.473,46.534z"/>
		</g>
	</g>
</g>
<g>
	<g>
		
			<line fill="none" stroke="#000000" stroke-width="0.75" stroke-miterlimit="10" x1="43.625" y1="72.685" x2="59.848" y2="72.685"/>
		<g>
			<path d="M54.723,76.284c-0.111-0.174-0.061-0.406,0.115-0.518l4.838-3.082l-4.838-3.082c-0.176-0.111-0.227-0.344-0.115-0.518
				c0.111-0.175,0.344-0.225,0.518-0.115l5.336,3.398c0.107,0.068,0.174,0.188,0.174,0.316s-0.066,0.248-0.174,0.316l-5.336,3.398
				c-0.063,0.039-0.133,0.059-0.201,0.059C54.917,76.458,54.793,76.396,54.723,76.284z"/>
		</g>
	</g>
</g>
<g>
	<g>
		
			<line fill="none" stroke="#000000" stroke-width="0.75" stroke-miterlimit="10" x1="96.375" y1="72.685" x2="112.598" y2="72.685"/>
		<g>
			<path d="M107.473,76.284c-0.111-0.174-0.061-0.406,0.115-0.518l4.838-3.082l-4.838-3.082c-0.176-0.111-0.227-0.344-0.115-0.518
				c0.111-0.175,0.344-0.225,0.518-0.115l5.336,3.398c0.107,0.068,0.174,0.188,0.174,0.316s-0.066,0.248-0.174,0.316l-5.336,3.398
				c-0.063,0.039-0.133,0.059-0.201,0.059C107.667,76.458,107.543,76.396,107.473,76.284z"/>
		</g>
	</g>
</g>
<line fill="none" stroke="#000000" stroke-width="0.75" stroke-miterlimit="10" x1="50.656" y1="7.997" x2="44.906" y2="17.372"/>
<line fill="none" stroke="#000000" stroke-width="0.75" stroke-miterlimit="10" x1="44.906" y1="7.997" x2="50.656" y2="17.372"/>
<g>
	<g>
		
			<line fill="none" stroke="#000000" stroke-width="0.75" stroke-miterlimit="10" x1="101.75" y1="16.027" x2="101.75" y2="39.592"/>
		<g>
			<path d="M105.543,16.631c-1.582-0.937-2.826-2.396-3.793-3.946c-0.953,1.566-2.242,2.963-3.793,3.946v0.937
				c1.504-0.982,2.811-2.164,3.793-3.624c0.998,1.46,2.318,2.688,3.793,3.639V16.631z"/>
			<path d="M105.543,18.888c-1.582-0.938-2.826-2.396-3.793-3.945c-0.953,1.565-2.242,2.962-3.793,3.945v0.936
				c1.504-0.981,2.811-2.164,3.793-3.622c0.998,1.458,2.318,2.687,3.793,3.638V18.888z"/>
		</g>
		<g>
			<path d="M105.543,38.988c-1.582,0.937-2.826,2.396-3.793,3.946c-0.953-1.566-2.242-2.963-3.793-3.946v-0.937
				c1.504,0.982,2.811,2.164,3.793,3.624c0.998-1.46,2.318-2.688,3.793-3.639V38.988z"/>
			<path d="M105.543,36.731c-1.582,0.938-2.826,2.396-3.793,3.945c-0.953-1.565-2.242-2.962-3.793-3.945v-0.936
				c1.504,0.981,2.811,2.164,3.793,3.622c0.998-1.458,2.318-2.687,3.793-3.638V36.731z"/>
		</g>
	</g>
</g>
</svg>
