<?xml version="1.0" encoding="utf-8"?>
<!-- Generator: Adobe Illustrator 16.0.0, SVG Export Plug-In . SVG Version: 6.00 Build 0)  -->
<!DOCTYPE svg PUBLIC "-//W3C//DTD SVG 1.1//EN" "http://www.w3.org/Graphics/SVG/1.1/DTD/svg11.dtd">
<svg version="1.1" id="レイヤー_1" xmlns="http://www.w3.org/2000/svg" xmlns:xlink="http://www.w3.org/1999/xlink" x="0px"
	 y="0px" width="389.114px" height="350.847px" viewBox="0 0 389.114 350.847" enable-background="new 0 0 389.114 350.847"
	 xml:space="preserve">
<path fill="none" d="M256.292,310.43h-61.854c0,0-105.625,0-118.938,0c-13.311,0-29.254-1.313-29.258-1.313l-0.45,3.647
	c6.167,2.25,79.583,2.291,79.583,2.291s-1.75,2.625,29.375,2.625s29-2.875,29-2.875s59.5-0.792,65.375-0.792
	c78.313,0,82.692-7.239,82.692-7.239L312,307.802L256.292,310.43z"/>
<path stroke="#100200" stroke-width="0.5" stroke-linejoin="round" stroke-miterlimit="10" d="M308.958,329.479
	c1.144-2.414,2.497-4.292,4.418-5.633c4.416-3.083,16.929-11.157,18.441-17.073c0,0-4.38,7.239-82.692,7.239
	c-5.875,0-65.375,0.792-65.375,0.792s2.125,2.875-29,2.875s-29.375-2.625-29.375-2.625s-73.417-0.041-79.583-2.291l0.45-3.647
	l0.34-2.752l0.043-0.351c0,0-33.667-0.001-35.333-0.834c0,0,1.667,12.167,6.667,15.751c0,0-1.264,2.393-2.602,8.549H308.958z"/>
<path fill="#A87731" stroke="#000000" stroke-width="0.5" stroke-linejoin="round" stroke-miterlimit="10" d="M15.357,329.479
	c-0.881,4.054-1.793,9.734-2.398,17.451c-0.242,3.089,3.25,3.666,3.25,3.666h272.917c0,0,12.917-0.25,15.667-9
	c1.554-4.943,2.682-8.982,4.166-12.117H15.357z"/>
<line fill="none" stroke="#000000" stroke-width="0.5" stroke-linejoin="round" stroke-miterlimit="10" x1="308.958" y1="329.479" x2="15.357" y2="329.479"/>
<line fill="none" stroke="#000000" stroke-width="0.5" stroke-linejoin="round" stroke-miterlimit="10" x1="15.357" y1="329.479" x2="308.958" y2="329.479"/>
<path fill="#BA8A00" stroke="#000000" stroke-width="0.5" stroke-linejoin="round" stroke-miterlimit="10" d="M318.538,305.479
	c0,0,62.662-29.867,69.587-31.55c2.122-0.516-1,1.375-1,1.375l-32.667,15.542c0,0-20.375,9.566-27.021,15.45
	C327.438,306.297,318.785,305.498,318.538,305.479z"/>
<polygon points="337.493,299.621 337.493,315.117 338.625,315.117 338.625,299.108 "/>
<line stroke="#000000" stroke-width="0.5" stroke-miterlimit="10" x1="383.544" y1="277.008" x2="338.059" y2="313.638"/>
<line stroke="#000000" stroke-width="0.5" stroke-miterlimit="10" x1="365.694" y1="285.501" x2="338.438" y2="312.227"/>
<line fill="none" stroke="#000000" stroke-width="0.5" stroke-linejoin="round" stroke-miterlimit="10" x1="362.793" y1="286.881" x2="338.438" y2="308.367"/>
<path fill="none" stroke="#000000" stroke-width="0.5" stroke-linejoin="round" stroke-miterlimit="10" d="M17.958,320.931
	c0,0,2.333,1.083,2.333,6.958s-1.5,22.708-1.5,22.708"/>
<path fill="#BA8A00" stroke="#000000" stroke-width="0.5" stroke-linejoin="round" stroke-miterlimit="10" d="M244.829,314.061
	l-6.616-172.881c0,0-1.122-1.042-1.889,0l4.252,172.913"/>
<path fill="#BA8A00" stroke="#000000" stroke-width="0.5" stroke-linejoin="round" stroke-miterlimit="10" d="M131.811,310.43
	l-2.834-177.875c0,0-1.417-5.313-2.834,0l1.08,177.875"/>
<path fill="#BA8A00" stroke="#000000" stroke-width="0.5" stroke-linejoin="round" stroke-miterlimit="10" d="M65.372,314.24
	l-6.247-123.227c0,0-0.667-2.917-1.333,0l5.079,123.138"/>
<ellipse cx="60.958" cy="247.139" rx="3.583" ry="0.958"/>
<ellipse cx="61.185" cy="257.898" rx="3.583" ry="0.958"/>
<ellipse cx="128.775" cy="249.452" rx="6.823" ry="1.625"/>
<ellipse cx="128.46" cy="231.702" rx="4.252" ry="1.417"/>
<ellipse cx="240.246" cy="239.035" rx="4.252" ry="1.417"/>
<ellipse cx="240.894" cy="255.614" rx="6.823" ry="1.625"/>
<path fill="#FFFFFF" stroke="#000000" stroke-miterlimit="10" d="M77.375,260.43h107.39c0,0-3.14-6.625-56.64-6.625
	S77.375,260.43,77.375,260.43z"/>
<path fill="#FFFFFF" stroke="#000000" stroke-miterlimit="10" d="M190.188,267.051h107.391c0,0-3.141-5.627-56.641-5.627
	S190.188,267.051,190.188,267.051z"/>
<path fill="#FFFFFF" stroke="#000000" stroke-miterlimit="10" d="M202.516,204.603h79.73c0,0-2.332-4.262-42.052-4.262
	C200.474,200.341,202.516,204.603,202.516,204.603z"/>
<path fill="#FFFFFF" stroke="#000000" stroke-miterlimit="10" d="M89.685,196.358h79.73c0,0-2.332-4.262-42.052-4.262
	C87.643,192.097,89.685,196.358,89.685,196.358z"/>
<path fill="#FFFFFF" stroke="#000000" stroke-miterlimit="10" d="M214.018,172.132h53.398c0,0-1.563-2.135-28.164-2.135
	S214.018,172.132,214.018,172.132z"/>
<path fill="#FFFFFF" stroke="#000000" stroke-miterlimit="10" d="M102.475,159.949h53.398c0,0-1.563-2.135-28.164-2.135
	S102.475,159.949,102.475,159.949z"/>
<path fill="#FFFFFF" stroke="#000000" stroke-miterlimit="10" d="M220.036,147.655h35.652c0,0-1.043-1.496-18.804-1.496
	C219.123,146.159,220.036,147.655,220.036,147.655z"/>
<path fill="#FFFFFF" stroke="#000000" stroke-miterlimit="10" d="M111.036,135.663h35.652c0,0-1.043-1.496-18.804-1.496
	C110.123,134.167,111.036,135.663,111.036,135.663z"/>
<path fill="none" stroke="#000000" stroke-width="0.5" stroke-miterlimit="10" d="M18.936,301.098L5.688,297.68
	c0,0,14.563-15.793,26.938-55.834c0,0,12.5-13.5,25.917-45.999l0.714-2.257l67.12,39.091"/>
<line fill="none" stroke="#000000" stroke-width="0.5" stroke-miterlimit="10" x1="126.774" y1="239.014" x2="60.266" y2="213.515"/>
<line fill="none" stroke="#000000" stroke-width="0.5" stroke-miterlimit="10" x1="58.805" y1="215.586" x2="47.951" y2="313.193"/>
<line fill="none" stroke="#000000" stroke-width="0.5" stroke-miterlimit="10" x1="46.346" y1="312.918" x2="57.375" y2="198.63"/>
<polyline fill="none" stroke="#000000" stroke-width="0.5" stroke-miterlimit="10" points="61.185,314.085 60.55,257.898 
	59.121,313.997 "/>
<polyline fill="none" stroke="#000000" stroke-width="0.5" stroke-miterlimit="10" points="55.788,313.831 60.55,257.898 
	52.844,313.649 "/>
<line fill="none" stroke="#000000" stroke-width="0.5" stroke-miterlimit="10" x1="60.55" y1="257.898" x2="49.788" y2="313.4"/>
<path stroke="#000000" stroke-width="0.5" stroke-miterlimit="10" d="M58.805,266.898l-30.847-29.052c0,0-1.083-1.167-0.396-1.854
	s1.563,0.375,1.563,0.375l30.167,28.022"/>
<line fill="none" stroke="#000000" stroke-width="0.75" stroke-miterlimit="10" x1="63.292" y1="258.856" x2="127.031" y2="307.555"/>
<line fill="none" stroke="#000000" stroke-width="0.75" stroke-miterlimit="10" x1="129.875" y1="251.077" x2="186.125" y2="307.555"/>
<path fill="none" stroke="#000000" stroke-width="0.5" stroke-miterlimit="10" d="M99.75,239.014
	c-8.33,46.979-21.119,65.917-21.119,65.917l48.568,1.843"/>
<polyline fill="none" stroke="#000000" stroke-width="0.5" stroke-miterlimit="10" points="91.281,314.771 126.375,196.358 
	89.125,314.771 "/>
<path fill="none" stroke="#000000" stroke-width="0.5" stroke-linejoin="round" stroke-miterlimit="10" d="M84.855,256.588
	c0,0,13.5-28.471,16.604-60.229"/>
<path fill="none" stroke="#000000" stroke-width="0.5" stroke-linejoin="round" stroke-miterlimit="10" d="M100.052,193.189
	c0,0,8.073-12.472,8.073-33.24"/>
<path fill="none" stroke="#000000" stroke-width="0.5" stroke-linejoin="round" stroke-miterlimit="10" d="M107.75,158.521
	c0,0,6.208-12.541,6.208-22.857"/>
<line fill="none" stroke="#000000" stroke-width="0.5" stroke-linejoin="round" stroke-miterlimit="10" x1="87.209" y1="314.742" x2="126.141" y2="140.717"/>
<line fill="none" stroke="#000000" stroke-width="0.5" stroke-linejoin="round" stroke-miterlimit="10" x1="126.141" y1="165.93" x2="88.125" y2="314.757"/>
<polyline fill="none" stroke="#000000" stroke-width="0.5" stroke-linejoin="round" stroke-miterlimit="10" points="
	120.534,315.043 126.141,251.02 123.338,315.043 "/>
<polyline fill="none" stroke="#000000" stroke-width="0.5" stroke-linejoin="round" stroke-miterlimit="10" points="
	114.735,315.019 126.141,251.02 110.075,314.99 "/>
<polyline fill="none" stroke="#000000" stroke-width="0.5" stroke-linejoin="round" stroke-miterlimit="10" points="
	106.675,314.742 126.141,251.02 102.875,314.742 "/>
<polyline fill="none" stroke="#000000" stroke-width="0.5" stroke-linejoin="round" stroke-miterlimit="10" points="94.751,314.847 
	126.141,251.02 94.25,307.555 "/>
<path stroke="#000000" stroke-width="0.5" stroke-linejoin="round" stroke-miterlimit="10" d="M127.031,268.367
	c0,0-30.094-31.063-30.156-31.625c-0.006-0.059-0.145-0.367-0.078-0.5c0.076-0.154,0.391-0.125,0.391-0.125l29.844,30.313"/>
<path fill="none" stroke="#000000" stroke-width="0.5" stroke-linejoin="round" stroke-miterlimit="10" d="M143.375,135.663
	c0,0,7.75,16.671,7.75,23.219"/>
<path fill="none" stroke="#000000" stroke-width="0.5" stroke-linejoin="round" stroke-miterlimit="10" d="M150.688,159.949
	c0,0,9.625,23.176,9.625,33.641"/>
<path fill="none" stroke="#000000" stroke-width="0.5" stroke-linejoin="round" stroke-miterlimit="10" d="M159.688,196.358
	c0,0,18.028,41.594,18.028,61.041"/>
<path d="M239.542,272.05l-29-27.953c0,0-0.339-0.579,0-0.917s1.364,0.219,1.364,0.219l27.589,26.716"/>
<path fill="none" stroke="#000000" stroke-width="0.5" stroke-miterlimit="10" d="M224.25,147.655c0,0-1.803,19.089-5.867,23.153"/>
<path fill="none" stroke="#000000" stroke-width="0.5" stroke-miterlimit="10" d="M219.188,172.132c0,0-2.818,22.505-6.628,29.339"
	/>
<path fill="none" stroke="#000000" stroke-width="0.5" stroke-miterlimit="10" d="M213.438,204.603c0,0-4.88,37.771-15.013,59.05"/>
<path fill="none" stroke="#000000" stroke-width="0.5" stroke-miterlimit="10" d="M197.958,267.051c0,0-3.501,37.059-4.979,37.344
	s47.4,1.657,47.4,1.657"/>
<path fill="none" stroke="#000000" stroke-width="0.5" stroke-miterlimit="10" d="M212.725,246.201c0,0-13.254,51.128-19.489,58.256
	"/>
<path fill="none" stroke="#000000" stroke-width="0.5" stroke-miterlimit="10" d="M193.235,304.035"/>
<polyline fill="none" stroke="#000000" stroke-width="0.5" stroke-miterlimit="10" points="231.955,314.189 239.178,257.239 
	229.711,314.216 "/>
<polyline fill="none" stroke="#000000" stroke-width="0.5" stroke-miterlimit="10" points="226.711,314.253 239.178,257.239 
	223.376,314.294 "/>
<line fill="none" stroke="#000000" stroke-width="0.5" stroke-miterlimit="10" x1="239.178" y1="257.239" x2="219.875" y2="314.338"/>
<line fill="none" stroke="#000000" stroke-width="0.5" stroke-miterlimit="10" x1="238.3" y1="257.117" x2="214.125" y2="314.41"/>
<polyline fill="none" stroke="#000000" stroke-width="0.5" stroke-miterlimit="10" points="211.749,314.44 237.884,204.603 
	209.124,314.474 "/>
<polyline fill="none" stroke="#000000" stroke-width="0.5" stroke-miterlimit="10" points="237.216,177.428 206.624,314.506 
	236.324,151.93 "/>
<path fill="none" stroke="#000000" stroke-width="0.5" stroke-miterlimit="10" d="M254.188,147.655c0,0,6.063,12.083,7.563,23.21"/>
<path fill="none" stroke="#000000" stroke-width="0.5" stroke-miterlimit="10" d="M261.75,172.132c0,0,7.764,18.417,10.101,29.67"/>
<path fill="none" stroke="#000000" stroke-width="0.5" stroke-miterlimit="10" d="M270.25,204.603c0,0,18.804,43.476,21.173,60.068"
	/>
<line fill="none" stroke="#000000" stroke-width="0.5" stroke-miterlimit="10" x1="145.227" y1="139.857" x2="236.997" y2="168.549"/>
<polygon stroke="#000000" stroke-width="0.5" stroke-linejoin="round" stroke-miterlimit="10" points="184.765,314.093 
	184.765,267.051 185.708,265.097 174.625,265.097 175.458,267.051 175.458,314.093 "/>
<line fill="none" stroke="#000000" stroke-width="0.5" stroke-miterlimit="10" x1="153.39" y1="166.903" x2="237.741" y2="198.802"/>
<line fill="none" stroke="#000000" stroke-width="0.5" stroke-miterlimit="10" x1="164.375" y1="207.896" x2="238.3" y2="241.846"/>
<path fill="none" stroke="#000000" stroke-width="0.5" stroke-miterlimit="10" d="M301.798,305.575
	c-1.828-15.771-10.375-38.524-10.375-38.524"/>
<line fill="none" stroke="#000000" stroke-width="0.75" stroke-miterlimit="10" x1="242.661" y1="257.399" x2="301.798" y2="305.575"/>
<line fill="none" stroke="#000000" stroke-width="0.5" stroke-miterlimit="10" x1="260.535" y1="164.758" x2="386.51" y2="274.448"/>
<line fill="none" stroke="#000000" stroke-width="0.5" stroke-miterlimit="10" x1="364.799" y1="283.86" x2="270.935" y2="197.996"/>
<line fill="none" stroke="#000000" stroke-width="0.5" stroke-miterlimit="10" x1="335.146" y1="297.624" x2="287.118" y2="248.295"/>
<path fill="none" stroke="#000000" stroke-width="0.5" stroke-miterlimit="10" d="M322.637,284.775c0,0,23.199-1.779,40.156,0
	L279.3,226.742"/>
<path fill="none" stroke="#000000" stroke-width="0.5" stroke-miterlimit="10" d="M355.646,275.488c0,0,21.268-1.566,28.186,0
	l-115.396-85.661"/>
<path fill="none" stroke="#000000" stroke-width="0.5" stroke-miterlimit="10" d="M299.733,294.279
	c0.02,0.083,21.417,1.143,32.779,4.584l-43.866-45.707"/>
<path fill="#BA8A00" stroke="#000000" stroke-width="0.5" stroke-linejoin="round" stroke-miterlimit="10" d="M75.5,310.43
	c13.313,0,118.938,0,118.938,0h61.854L312,307.802l19.817-1.028c0,0-14.817-1.719-20.067-1.594S258,307.555,258,307.555h-72.5
	H65.125l-18.543-1.19l-0.34,2.752C46.246,309.116,62.189,310.43,75.5,310.43z"/>
<path fill="#BA8A00" stroke="#000000" stroke-width="0.5" stroke-linejoin="round" stroke-miterlimit="10" d="M62.332,301.098H1.875
	c0,0-1.625,0.082-1.625,0.77s1.5,0.563,1.5,0.563h60.582"/>
<circle fill="none" stroke="#704001" stroke-miterlimit="10" cx="154.582" cy="319.122" r="20.014"/>
<circle fill="none" stroke="#704001" stroke-miterlimit="10" cx="154.582" cy="319.122" r="18.425"/>
<line fill="none" stroke="#704001" stroke-width="2" stroke-miterlimit="10" x1="154.582" y1="337.549" x2="154.582" y2="300.696"/>
<line fill="none" stroke="#704001" stroke-width="2" stroke-miterlimit="10" x1="163.795" y1="335.08" x2="145.369" y2="303.165"/>
<line fill="none" stroke="#704001" stroke-width="2" stroke-miterlimit="10" x1="170.539" y1="328.335" x2="138.625" y2="309.909"/>
<line fill="none" stroke="#704001" stroke-width="2" stroke-miterlimit="10" x1="173.008" y1="319.122" x2="136.156" y2="319.122"/>
<line fill="none" stroke="#704001" stroke-width="2" stroke-miterlimit="10" x1="170.539" y1="309.909" x2="138.625" y2="328.335"/>
<line fill="none" stroke="#704001" stroke-width="2" stroke-miterlimit="10" x1="163.795" y1="303.165" x2="145.369" y2="335.079"/>
<circle fill="#FFFFFF" stroke="#704001" stroke-miterlimit="10" cx="154.582" cy="319.124" r="1.417"/>
<path fill="#C6C6C6" stroke="#000000" stroke-width="0.5" stroke-linejoin="round" stroke-miterlimit="10" d="M183.78,307.555
	h-58.406v7.5c0,0-1.75,2.625,29.375,2.625s29-2.875,29-2.875L183.78,307.555z M146.063,315.117L136,313.727v-2.234h10.063V315.117z
	 M160.063,315.961h-12.031v-4.469h12.031V315.961z M171.555,313.727l-9.43,1.391v-3.625h9.43V313.727z"/>
<polygon fill="none" stroke="#000000" stroke-width="0.5" stroke-linejoin="round" stroke-miterlimit="10" points="125.374,310.43 
	183.768,310.43 183.768,307.555 125.356,307.555 "/>
<path fill="#FFFFFF" stroke="#000000" stroke-width="0.5" stroke-linejoin="round" stroke-miterlimit="10" d="M170.938,295.836
	c0,0-29.313,0-33.344,0s-4.281,4.281-4.281,4.281v7.438h4.979c0,0,4.25-8.791,16.276-8.791c12.057,0,16.391,8.791,16.391,8.791
	h3.667c0,0,0-3.5,0-7.438S170.938,295.836,170.938,295.836z M136.188,305.555c0-8,6.813-6.813,6.813-6.813L136.188,305.555z
	 M165.649,298.742c0,0,6.813-1.188,6.813,6.813L165.649,298.742z"/>
<path fill="#FFD72E" d="M298.832,321.679l-0.039-0.498c0.185-0.015,18.57-1.542,26.718-6.675l2.114-1.279l-1.849,1.703
	C317.526,320.128,299.019,321.664,298.832,321.679z"/>
<path fill="#FFD72E" d="M300.213,316.991l-0.051-0.498c0.195-0.02,19.631-2.083,26.572-7.78l1.078-0.346l-0.762,0.732
	C319.994,314.893,301.018,316.908,300.213,316.991z"/>
<linearGradient id="SVGID_1_" gradientUnits="userSpaceOnUse" x1="175.519" y1="265.0967" x2="175.519" y2="142.4297">
	<stop  offset="0" style="stop-color:#000000"/>
	<stop  offset="0.74" style="stop-color:#EBEAEA"/>
	<stop  offset="1" style="stop-color:#FFFFFF;stop-opacity:0"/>
</linearGradient>
<path fill="url(#SVGID_1_)" d="M176.125,265.097c0,0-1.339-11.354-5.586-16.802s-15.747-8.054-15.247-14.168
	s6.416-13.448,2.708-21.614s-16.208,0.334-19.375-7.91s1.667-16.59,5.667-20.923s2.037-15.167,0.935-17.75
	s-7.657-14.417-9.629-16.75s73.526-6.75,73.526-6.75s-0.554,16,3.436,22.328s3.242,14.365,1.565,19.422s-3.711,7.292-1.565,12.179
	s3.69,21.212,0.878,23.245s-10.637,4.121-12.1,12.099s-0.832,10.146-5.772,15.437s-9.19,10.008-9.44,12.399s-1.36,5.559-1.36,5.559"
	/>
<line fill="none" stroke="#000000" stroke-width="2" stroke-miterlimit="10" x1="260.042" y1="310.253" x2="260.042" y2="313.963"/>
<line fill="none" stroke="#000000" stroke-width="2" stroke-miterlimit="10" x1="255.188" y1="310.253" x2="255.188" y2="313.963"/>
<line fill="none" stroke="#000000" stroke-width="2" stroke-miterlimit="10" x1="201.135" y1="310.763" x2="201.135" y2="314.473"/>
<line fill="none" stroke="#000000" stroke-width="2" stroke-miterlimit="10" x1="196.28" y1="310.763" x2="196.28" y2="314.473"/>
<line fill="none" stroke="#000000" stroke-width="2" stroke-miterlimit="10" x1="81.625" y1="310.43" x2="81.625" y2="314.757"/>
<line fill="none" stroke="#000000" stroke-width="2" stroke-miterlimit="10" x1="69.417" y1="310.31" x2="69.417" y2="314.637"/>
<path fill="#231815" d="M209.826,9.732c0.912-0.013,1.084,0.399,1.102,1.645c0.016,1.245-0.058,1.827-2.135,1.772
	c-2.076-0.054-35.005-3.927-35.005-3.927s-33.754-3.614-35.168-3.844c-1.415-0.229-1.749-0.392-1.44-2.055
	c0.311-1.666,0.728-1.505,3.885-1.299L209.826,9.732z"/>
<path fill="#231815" d="M175.519,80.42V0.47c0,0-0.563-0.892-1.517-0.218V80.25L175.519,80.42z"/>
<path fill="#FFFFFF" stroke="#231815" d="M184.384,74.743c-1.908-1.743-7.718-2.905-11.869-0.415
	c-0.499-0.415-2.075-2.823-6.641-2.987c-4.566-0.167-6.641,1.327-6.641,1.327s-3.32-3.154-7.139-3.236
	c-3.819-0.084-5.893,1.576-5.893,1.576s-2.989-2.988-6.392-3.154c-3.404-0.166-4.233,0.497-4.233,0.497s-1.743,0-0.748-1.244
	c0.996-1.245,12.369-16.021,12.369-31.294s-1.66-19.673-3.985-23.906c-2.324-4.234-2.241-6.01-2.241-6.01l63.833,7.006
	c0,0,6.725,4.482,8.965,18.014c2.241,13.529-1.742,26.561-6.725,37.602c0,0-2.176,4.39-8.128,10.067l-1.126-1.269
	c-1.992-2.428-3.984-2.802-6.101-2.802c-2.117,0-5.916,1.495-5.916,1.495S184.924,75.154,184.384,74.743z"/>
<path fill="#231815" d="M123.817,74.726c-1.411,2.324,0.747,2.242,2.159,0.996c0.416,0.415,2.324,0.58,2.324,0.58l3.735,25.401
	h76.037l19.672-46.733l-1.958,0.301c0,0-2.619,3.312-6.842,6.321c-1.651,1.329-7.469,4.916-11.703,6.991
	c0,0-8.262,4.846-22.66,6.225c-18.761,1.91-31.877-0.579-40.259-2.073c-8.384-1.494-14.278-3.321-14.278-3.321
	s-0.332,0.498-0.747,2.157c-0.996-1.742-2.158-0.498-2.158-0.498s-2.157-1.161-3.153,0C123.03,72.188,123.154,72.567,123.817,74.726
	z M210.601,68.291c1.931-0.995,5.666-3.547,5.666-3.547c-1.246,3.175-5.666,5.853-5.666,5.853S210.601,70.597,210.601,68.291z
	 M200.699,72.691c3.648-0.88,8.719-3.901,8.719-3.901l-0.044,2.813c0,0-5.063,4.019-8.549,5.078L200.699,72.691z M185.7,76.047
	c0,0,7.788-0.554,13.532-2.9v3.943c0,0-4.138,1.731-13.521,2.56L185.7,76.047z M170.656,76.945
	c6.238,0.308,13.448-0.747,13.448-0.747s0.062,1.184,0.062,3.55c-7.657,0.685-13.447,0.249-13.447,0.249
	S170.656,79.748,170.656,76.945z M157.146,76.262c2.242,0.622,11.953,0.617,11.953,0.617s0.063,1.3,0.063,2.981
	c-2.739,0.311-12.016-0.673-12.016-0.673S157.146,79.188,157.146,76.262z M143.234,74.021c2.799,0.965,12.473,2.116,12.473,2.116
	s0.068,0.623,0.068,2.864c-5.416-0.561-13.011-2.491-13.011-2.491S142.736,76.51,143.234,74.021z M130.75,73.397
	c0.062-2.24,0.31-2.367,0.31-2.367s6.486,2.123,10.718,2.746c-0.266,2.304-0.631,2.36-0.631,2.36S133.862,75.016,130.75,73.397z"/>
</svg>
