<?xml version="1.0" encoding="utf-8"?>
<!-- Generator: Adobe Illustrator 16.0.3, SVG Export Plug-In . SVG Version: 6.00 Build 0)  -->
<!DOCTYPE svg PUBLIC "-//W3C//DTD SVG 1.1//EN" "http://www.w3.org/Graphics/SVG/1.1/DTD/svg11.dtd">
<svg version="1.1" id="レイヤー_1" xmlns="http://www.w3.org/2000/svg" xmlns:xlink="http://www.w3.org/1999/xlink" x="0px"
	 y="0px" width="101.158px" height="57.561px" viewBox="0 0 101.158 57.561" enable-background="new 0 0 101.158 57.561"
	 xml:space="preserve">
<g>
	<path d="M85.545,4.8c0.52,0.889,0.734,1.37,1.07,2.459l-0.592,0.249c-0.246-0.938-0.6-1.771-1.047-2.483L85.545,4.8z M90.525,4.936
		c-0.08,0.208-0.08,0.208-0.207,0.761c-0.336,1.474-0.969,2.74-1.824,3.661c-0.607,0.649-1.254,1.122-2.135,1.554
		c-0.16-0.264-0.223-0.336-0.424-0.489c0.896-0.392,1.504-0.809,2.104-1.45c0.832-0.881,1.375-2.019,1.719-3.549
		C89.822,5.128,89.838,5,89.854,4.76L90.525,4.936z"/>
	<path d="M92.217,7.115c0.201,0.032,0.32,0.04,0.625,0.04h0.414c0.24,0,0.408-0.008,0.617-0.04c-0.033,0.24-0.041,0.448-0.041,0.849
		v1.57c0.121,0.256,0.217,0.385,0.393,0.513c0.463,0.345,0.943,0.441,2.078,0.441c1.527,0,2.463-0.04,3.215-0.152
		c-0.121,0.289-0.137,0.313-0.184,0.585c-0.713,0.032-1.84,0.056-2.783,0.056c-1.328,0-1.807-0.081-2.318-0.377
		c-0.264-0.152-0.455-0.344-0.664-0.657c-0.359,0.36-0.559,0.529-0.943,0.825c-0.127,0.096-0.191,0.152-0.313,0.264l-0.264-0.528
		c0.352-0.161,0.84-0.521,1.287-0.961V7.604h-0.527c-0.271,0-0.391,0.008-0.592,0.04V7.115z M92.697,4.087
		c0.52,0.48,0.775,0.769,1.287,1.41l-0.408,0.368c-0.463-0.665-0.703-0.953-1.246-1.458L92.697,4.087z M94.967,5.088
		c-0.375,0-0.59,0.008-0.75,0.04V4.632c0.184,0.024,0.432,0.04,0.83,0.04h1.4c0-0.272-0.016-0.489-0.057-0.721h0.561
		c-0.041,0.232-0.057,0.441-0.057,0.721h1.551c0.393,0,0.648-0.016,0.832-0.04v0.497c-0.184-0.032-0.408-0.04-0.799-0.04h-1.584
		v0.633h1.336c0.264,0,0.416-0.008,0.623-0.032c-0.023,0.185-0.031,0.321-0.031,0.545v1.602c0,0.216,0.008,0.345,0.031,0.521
		c-0.191-0.024-0.383-0.032-0.623-0.032h-1.336v0.657h1.615c0.393,0,0.623-0.008,0.791-0.04v0.497
		c-0.176-0.032-0.424-0.041-0.799-0.041h-1.607V9.55c0,0.256,0.016,0.497,0.057,0.729h-0.561c0.041-0.232,0.057-0.473,0.057-0.729
		V9.398h-1.408c-0.336,0-0.631,0.016-0.799,0.041V8.941c0.176,0.032,0.4,0.04,0.799,0.04h1.408V8.325H95.24
		c-0.24,0-0.424,0.008-0.633,0.032c0.025-0.185,0.033-0.313,0.033-0.521V6.218c0-0.208-0.008-0.336-0.033-0.529
		c0.184,0.024,0.369,0.032,0.625,0.032h1.215V5.088H94.967z M95.104,6.122v0.681h1.344V6.122H95.104z M95.104,7.187v0.737h1.344
		V7.187H95.104z M96.895,6.803h1.463V6.122h-1.463V6.803z M96.895,7.924h1.463V7.187h-1.463V7.924z"/>
</g>
<rect x="83.35" y="2.603" fill="none" stroke="#000000" stroke-width="0.5" stroke-miterlimit="10" width="17.559" height="10"/>
<g>
	<path d="M45.875,49.845c0-0.32-0.008-0.553-0.04-0.785c0.256,0.031,0.487,0.04,0.855,0.04h3.598c0.368,0,0.592-0.009,0.824-0.04
		c-0.032,0.232-0.04,0.432-0.04,0.736v5.135c0,0.385,0.016,0.609,0.048,0.857h-0.584v-0.521h-4.126v0.521h-0.583
		c0.031-0.24,0.048-0.488,0.048-0.849V49.845z M46.411,51.831h4.126v-2.243h-4.126V51.831z M46.411,54.779h4.126v-2.46h-4.126
		V54.779z"/>
	<path d="M53.908,50.542c-0.313,0-0.584,0.016-0.88,0.047v-0.584c0.296,0.04,0.527,0.056,0.88,0.056h2.238V49.38
		c0-0.265-0.016-0.457-0.056-0.729h0.632c-0.04,0.24-0.057,0.473-0.057,0.721v0.688h2.359c0.399,0,0.663-0.016,0.896-0.056v0.584
		c-0.336-0.031-0.576-0.047-0.896-0.047h-2.159c0.896,1.617,1.967,2.739,3.294,3.46c-0.168,0.185-0.256,0.305-0.367,0.521
		c-0.648-0.432-1.144-0.849-1.663-1.401c-0.664-0.705-1.111-1.386-1.496-2.251c0.024,0.48,0.032,0.777,0.032,1.041v1.818h0.872
		c0.392,0,0.567-0.008,0.775-0.04v0.562c-0.24-0.041-0.432-0.049-0.792-0.049h-0.855v0.762c0,0.376,0.017,0.664,0.057,0.921h-0.632
		c0.04-0.28,0.056-0.562,0.056-0.929v-0.754h-0.768c-0.376,0-0.567,0.008-0.808,0.049v-0.562c0.208,0.032,0.384,0.04,0.792,0.04
		h0.783v-1.818c0-0.297,0.008-0.601,0.032-1.033c-0.368,0.873-0.792,1.529-1.512,2.314c-0.503,0.553-0.936,0.938-1.519,1.346
		c-0.12-0.216-0.185-0.296-0.376-0.473c0.688-0.416,1.264-0.904,1.872-1.625c0.6-0.689,0.943-1.202,1.303-1.898H53.908z"/>
</g>
<rect x="44.032" y="47.311" fill="none" stroke="#000000" stroke-width="0.5" stroke-miterlimit="10" width="17.559" height="10"/>
<g>
	<path d="M3.06,10.84c0.032-0.216,0.049-0.409,0.049-0.841V5.024c0-0.425-0.017-0.617-0.049-0.817h0.688
		c-0.032,0.208-0.04,0.376-0.04,0.833v1.498c1.231,0.441,2.158,0.881,3.558,1.69L6.922,8.821C6.17,8.292,5.068,7.7,3.94,7.235
		c-0.12-0.048-0.176-0.08-0.248-0.136L3.676,7.107c0.024,0.16,0.032,0.272,0.032,0.473v2.412c0,0.448,0.008,0.625,0.04,0.849H3.06z
		 M6.035,4.752c0.392,0.48,0.464,0.585,0.808,1.202l-0.424,0.2C6.17,5.657,5.979,5.369,5.627,4.936L6.035,4.752z M6.842,4.392
		c0.384,0.48,0.456,0.584,0.808,1.201L7.218,5.793C6.97,5.305,6.787,5.008,6.435,4.576L6.842,4.392z"/>
	<path d="M15.506,4.624c-0.145,0.104-0.152,0.12-0.353,0.336c-0.503,0.529-1.183,1.114-1.87,1.61v3.413
		c0,0.457,0.008,0.633,0.04,0.849h-0.696c0.04-0.208,0.048-0.393,0.048-0.833V6.955c-1.039,0.641-1.623,0.905-3.086,1.402
		C9.477,8.101,9.437,8.021,9.278,7.82c1.503-0.392,2.886-1.081,4.149-2.075c0.743-0.577,1.304-1.137,1.527-1.514L15.506,4.624z"/>
	<path d="M18.109,5.048c0.424,0.705,0.704,1.338,0.976,2.211l-0.575,0.184c-0.232-0.801-0.544-1.562-0.936-2.211L18.109,5.048z
		 M23.746,4.968c-0.071,0.176-0.08,0.216-0.159,0.553c-0.2,0.873-0.376,1.41-0.672,1.995c-0.735,1.506-1.759,2.483-3.51,3.349
		c-0.137-0.232-0.2-0.32-0.433-0.513c0.872-0.345,1.575-0.793,2.207-1.402c0.872-0.833,1.495-2.003,1.783-3.365
		c0.072-0.329,0.096-0.513,0.104-0.761L23.746,4.968z M20.14,4.656c0.392,0.633,0.703,1.314,0.967,2.131L20.54,6.995
		c-0.239-0.841-0.504-1.466-0.919-2.171L20.14,4.656z"/>
</g>
<rect x="0.25" y="2.603" fill="none" stroke="#000000" stroke-width="0.5" stroke-miterlimit="10" width="26.142" height="10"/>
<g>
	<g>
		<polyline fill="none" stroke="#000000" stroke-width="0.75" stroke-miterlimit="10" points="13.321,13.504 13.321,52.311 
			43.157,52.311 		"/>
		<g>
			<path d="M9.722,18.63c0.174,0.111,0.406,0.06,0.518-0.115l3.082-4.839l3.082,4.839c0.111,0.175,0.344,0.227,0.518,0.115
				c0.175-0.111,0.225-0.345,0.115-0.518l-3.398-5.336c-0.068-0.107-0.188-0.174-0.316-0.174s-0.248,0.066-0.316,0.174l-3.398,5.336
				c-0.039,0.063-0.059,0.132-0.059,0.201C9.548,18.437,9.609,18.559,9.722,18.63z"/>
		</g>
		<g>
			<path d="M38.03,55.91c-0.111-0.174-0.059-0.406,0.116-0.518l4.839-3.082l-4.839-3.082c-0.175-0.111-0.228-0.344-0.116-0.518
				c0.111-0.175,0.346-0.226,0.52-0.115l5.335,3.398c0.108,0.069,0.174,0.188,0.174,0.316s-0.065,0.247-0.174,0.316l-5.335,3.398
				c-0.063,0.04-0.133,0.059-0.202,0.059C38.224,56.084,38.103,56.022,38.03,55.91z"/>
		</g>
	</g>
</g>
<g>
	<g>
		<polyline fill="none" stroke="#000000" stroke-width="0.75" stroke-miterlimit="10" points="92.129,13.504 92.129,52.311 
			62.717,52.311 		"/>
		<g>
			<path d="M88.529,18.63c0.174,0.111,0.406,0.06,0.518-0.115l3.082-4.839l3.082,4.839c0.111,0.175,0.344,0.227,0.518,0.115
				c0.175-0.111,0.226-0.345,0.115-0.518l-3.398-5.336c-0.069-0.107-0.188-0.174-0.316-0.174s-0.247,0.066-0.316,0.174l-3.398,5.336
				c-0.04,0.063-0.059,0.132-0.059,0.201C88.355,18.437,88.417,18.559,88.529,18.63z"/>
		</g>
		<g>
			<path d="M67.843,48.711c0.111,0.174,0.06,0.406-0.115,0.518l-4.839,3.082l4.839,3.082c0.175,0.111,0.227,0.344,0.115,0.518
				c-0.111,0.175-0.345,0.226-0.518,0.115l-5.336-3.398c-0.107-0.069-0.174-0.188-0.174-0.316s0.066-0.247,0.174-0.316l5.336-3.398
				c0.063-0.04,0.132-0.059,0.201-0.059C67.649,48.537,67.771,48.599,67.843,48.711z"/>
		</g>
	</g>
</g>
<g>
	<path d="M15.454,36.753c0-0.406,0.189-0.567,0.582-0.567h1.127c0.357,0,0.547,0.203,0.547,0.47c0,0.069-0.015,0.153-0.049,0.237
		c-0.183,0.47-0.435,0.987-0.701,1.38c-0.021,0.035-0.035,0.07-0.035,0.105c0,0.041,0.021,0.084,0.063,0.133
		c0.448,0.518,0.651,1.043,0.651,1.541c0,0.602-0.309,0.861-0.784,0.861c-0.176,0-0.357-0.021-0.47-0.049
		c-0.119-0.028-0.196-0.127-0.196-0.252c0-0.021,0-0.043,0.008-0.063c0.014-0.126,0.111-0.218,0.224-0.218
		c0.021,0,0.035,0,0.049,0.008c0.092,0.021,0.225,0.042,0.351,0.042c0.196,0,0.273-0.063,0.273-0.372
		c0-0.392-0.161-0.847-0.624-1.352c-0.069-0.069-0.098-0.146-0.098-0.238c0-0.084,0.028-0.174,0.091-0.258
		c0.273-0.4,0.483-0.883,0.623-1.303c0.015-0.043,0.021-0.07,0.021-0.099c0-0.069-0.049-0.099-0.161-0.099h-0.771
		c-0.126,0-0.189,0.043-0.189,0.183V42.3c0,0.146-0.104,0.217-0.266,0.217s-0.267-0.07-0.267-0.217V36.753z M19.139,37.705
		c0,0.042,0,0.084,0,0.119c-0.007,0.267-0.015,0.532-0.035,0.798h1.583c0.406,0,0.609,0.183,0.603,0.596
		c-0.015,1.009-0.099,1.891-0.322,2.535c-0.134,0.414-0.406,0.617-1.009,0.617c-0.302,0-0.567-0.021-0.792-0.07
		c-0.126-0.028-0.203-0.119-0.203-0.252c0-0.021,0-0.049,0.008-0.077c0.027-0.126,0.119-0.218,0.238-0.218
		c0.021,0,0.042,0,0.063,0.008c0.183,0.041,0.42,0.076,0.623,0.076c0.364,0,0.477-0.069,0.567-0.322
		c0.189-0.511,0.267-1.352,0.273-2.191c0-0.161-0.063-0.203-0.217-0.203h-1.464c-0.049,0.434-0.126,0.826-0.238,1.162
		c-0.267,0.799-0.784,1.563-1.527,2.08c-0.069,0.043-0.14,0.07-0.21,0.07c-0.069,0-0.14-0.027-0.196-0.098
		c-0.049-0.057-0.069-0.119-0.069-0.182c0-0.092,0.042-0.176,0.133-0.232c0.707-0.482,1.128-1.085,1.366-1.82
		c0.202-0.631,0.279-1.457,0.294-2.396H17.85c-0.126,0-0.196-0.098-0.196-0.259c0-0.154,0.07-0.252,0.196-0.252h1.387v-0.91
		c0-0.141,0.105-0.211,0.267-0.211s0.266,0.07,0.266,0.211v0.91h1.772c0.133,0,0.196,0.098,0.196,0.252
		c0,0.161-0.063,0.259-0.196,0.259H19.139z"/>
	<path d="M28.436,39.729c0.133,0,0.21,0.119,0.21,0.266c0,0.154-0.077,0.26-0.21,0.26h-5.981c-0.126,0-0.203-0.105-0.203-0.26
		c0-0.146,0.077-0.266,0.203-0.266h1.464v-1.793h-1.197c-0.126,0-0.203-0.105-0.203-0.26c0-0.146,0.07-0.259,0.196-0.259h1.204
		v-1.106c0-0.146,0.105-0.217,0.273-0.217s0.273,0.07,0.273,0.217v1.106h1.912v-1.1c0-0.147,0.111-0.217,0.272-0.217
		c0.176,0,0.273,0.069,0.273,0.217v1.1h1.226c0.126,0,0.21,0.112,0.21,0.259c0,0.154-0.077,0.26-0.203,0.26h-1.232v1.793H28.436z
		 M24.752,40.821c0,0.057-0.021,0.119-0.07,0.183c-0.469,0.574-1.177,1.106-1.87,1.429c-0.042,0.021-0.091,0.035-0.14,0.035
		c-0.099,0-0.196-0.049-0.252-0.154c-0.028-0.049-0.043-0.105-0.043-0.154c0-0.09,0.05-0.182,0.154-0.23
		c0.666-0.301,1.296-0.735,1.702-1.275c0.056-0.069,0.133-0.104,0.21-0.104c0.063,0,0.126,0.021,0.183,0.063
		C24.71,40.661,24.752,40.737,24.752,40.821z M26.377,37.937h-1.912v1.793h1.912V37.937z M26.384,40.534
		c0.077,0,0.161,0.035,0.224,0.113c0.455,0.566,1.079,0.98,1.758,1.268c0.105,0.049,0.161,0.14,0.161,0.238
		c0,0.049-0.014,0.098-0.034,0.146c-0.063,0.111-0.147,0.175-0.253,0.175c-0.042,0-0.091-0.014-0.14-0.034
		c-0.742-0.33-1.422-0.841-1.94-1.457c-0.056-0.057-0.077-0.119-0.077-0.183c0-0.084,0.05-0.161,0.141-0.217
		C26.271,40.549,26.327,40.534,26.384,40.534z"/>
	<path d="M16.911,46.21c0.126,0,0.203,0.092,0.203,0.246c0,0.146-0.077,0.244-0.203,0.244h-0.477v4.014
		c0,0.133-0.091,0.203-0.259,0.203c-0.161,0-0.259-0.07-0.259-0.203V46.7H15.35c-0.126,0-0.203-0.098-0.203-0.244
		c0-0.148,0.077-0.246,0.203-0.246h0.567v-1.582c0-0.127,0.098-0.203,0.259-0.203c0.168,0,0.259,0.076,0.259,0.203v1.582H16.911z
		 M17.002,48.29c-0.119,0-0.182-0.091-0.182-0.23c0-0.141,0.063-0.231,0.182-0.231h0.574c0.008-0.154,0.015-0.322,0.015-0.49
		c0-0.134,0.091-0.203,0.252-0.203c0.147,0,0.238,0.063,0.238,0.203c0,0.168-0.007,0.329-0.015,0.49h0.519
		c0.357,0,0.525,0.196,0.525,0.511c0,0.658-0.063,1.401-0.168,1.885c-0.084,0.393-0.294,0.546-0.722,0.546
		c-0.154,0-0.322-0.021-0.448-0.049c-0.119-0.021-0.196-0.104-0.196-0.224c0-0.015,0-0.035,0.008-0.057
		c0.021-0.126,0.104-0.189,0.195-0.189c0.021,0,0.035,0,0.057,0.008c0.098,0.027,0.23,0.049,0.336,0.049
		c0.196,0,0.28-0.057,0.309-0.26c0.077-0.363,0.133-1.016,0.133-1.575c0-0.134-0.077-0.183-0.189-0.183h-0.399
		c-0.111,0.967-0.42,1.807-0.938,2.431c-0.056,0.063-0.133,0.099-0.21,0.099c-0.056,0-0.111-0.015-0.154-0.05
		c-0.063-0.056-0.098-0.126-0.098-0.188c0-0.063,0.021-0.119,0.07-0.168c0.462-0.547,0.735-1.219,0.848-2.123H17.002z M20.68,45.062
		c0.356,0,0.574,0.176,0.567,0.553c-0.008,0.337-0.07,0.723-0.169,0.926c-0.111,0.279-0.336,0.42-0.847,0.42
		c-0.267,0-0.525-0.028-0.757-0.077c-0.105-0.021-0.175-0.105-0.175-0.21c0-0.021,0-0.049,0.007-0.07
		c0.028-0.126,0.104-0.182,0.203-0.182c0.021,0,0.042,0,0.063,0.006c0.176,0.035,0.393,0.078,0.589,0.078
		c0.315,0,0.399-0.049,0.455-0.189c0.07-0.141,0.105-0.399,0.112-0.609c0-0.008,0-0.014,0-0.021c0-0.119-0.07-0.154-0.189-0.154
		h-1.352c-0.287,0.729-0.826,1.205-1.66,1.569c-0.049,0.021-0.091,0.028-0.126,0.028c-0.098,0-0.175-0.057-0.217-0.154
		c-0.015-0.035-0.021-0.07-0.021-0.105c0-0.091,0.05-0.168,0.161-0.209c0.651-0.281,1.064-0.604,1.317-1.129h-1.184
		c-0.127,0-0.196-0.09-0.196-0.237c0-0.14,0.069-0.231,0.196-0.231h1.352c0.042-0.154,0.077-0.322,0.098-0.504
		c0.021-0.133,0.099-0.183,0.245-0.183c0.007,0,0.014,0,0.028,0c0.14,0.007,0.238,0.085,0.238,0.21c0,0.014,0,0.021,0,0.028
		c-0.021,0.161-0.05,0.308-0.084,0.448H20.68z M19.475,48.29c-0.126,0-0.189-0.098-0.189-0.238c0-0.133,0.063-0.23,0.189-0.23h0.49
		c0.007-0.154,0.014-0.322,0.014-0.49c0-0.133,0.092-0.203,0.253-0.203c0.146,0,0.252,0.063,0.252,0.203
		c0,0.168-0.007,0.329-0.015,0.49H21.1c0.357,0,0.532,0.203,0.532,0.532c0,0.714-0.042,1.415-0.14,1.827
		c-0.092,0.436-0.295,0.589-0.75,0.589c-0.196,0-0.399-0.028-0.553-0.063c-0.112-0.027-0.169-0.104-0.169-0.217
		c0-0.021,0-0.042,0.008-0.07c0.021-0.119,0.104-0.182,0.195-0.182c0.021,0,0.035,0,0.057,0.008
		c0.091,0.027,0.266,0.063,0.385,0.063c0.218,0,0.294-0.063,0.337-0.252c0.091-0.406,0.126-1.009,0.126-1.583
		c0-0.134-0.077-0.183-0.196-0.183h-0.497c-0.112,1.044-0.428,1.85-0.932,2.431c-0.07,0.069-0.147,0.104-0.225,0.104
		c-0.063,0-0.119-0.021-0.168-0.063s-0.084-0.105-0.084-0.176c0-0.055,0.021-0.118,0.077-0.174c0.455-0.505,0.729-1.191,0.826-2.123
		H19.475z"/>
	<path d="M23.358,47.016c-0.127,0-0.196-0.112-0.196-0.252s0.069-0.238,0.196-0.238h4.188c0.126,0,0.196,0.099,0.196,0.238
		s-0.07,0.252-0.196,0.252h-1.778v1.093h1.87c0.118,0,0.188,0.105,0.188,0.238c0,0.14-0.07,0.252-0.188,0.252h-1.87v1.484
		c0.314,0.057,0.714,0.077,1.155,0.077c0.428,0,0.89-0.021,1.366-0.049c0.007,0,0.007,0,0.014,0c0.168,0,0.238,0.104,0.238,0.267
		c0,0.006,0,0.014,0,0.021c0,0.161-0.099,0.259-0.252,0.267c-0.386,0.021-0.743,0.027-1.072,0.027c-0.561,0-1.043-0.027-1.484-0.105
		c-0.903-0.146-1.597-0.56-1.989-1.273c-0.231,0.539-0.546,1.036-0.932,1.442c-0.049,0.056-0.119,0.091-0.196,0.091
		c-0.063,0-0.133-0.021-0.195-0.077c-0.063-0.063-0.099-0.14-0.099-0.217c0-0.063,0.028-0.126,0.07-0.183
		c0.693-0.65,1.106-1.61,1.239-2.612c0.021-0.118,0.105-0.182,0.231-0.182c0.028,0,0.056,0,0.084,0.007
		c0.14,0.027,0.224,0.119,0.224,0.238c0,0.014,0,0.035-0.007,0.049c-0.049,0.314-0.126,0.623-0.224,0.918
		c0.273,0.539,0.722,0.952,1.296,1.155v-2.928H23.358z M27.868,45.208c0.406,0,0.603,0.162,0.603,0.568v0.721
		c0,0.141-0.112,0.203-0.273,0.203s-0.287-0.063-0.287-0.203v-0.596c0-0.146-0.063-0.195-0.217-0.195h-4.482
		c-0.147,0-0.217,0.049-0.217,0.195v0.596c0,0.141-0.126,0.203-0.287,0.203c-0.154,0-0.273-0.063-0.273-0.203v-0.721
		c0-0.406,0.196-0.568,0.603-0.568h2.094v-0.553c0-0.146,0.098-0.225,0.273-0.225c0.182,0,0.272,0.078,0.272,0.225v0.553H27.868z"/>
</g>
<g>
	<path d="M56.033,22.714c0.28,0,0.428,0.154,0.428,0.364c0,0.077-0.021,0.168-0.063,0.259c-0.183,0.385-0.428,0.819-0.673,1.163
		c0.085,0.112,0.176,0.224,0.273,0.329c0.161-0.182,0.309-0.385,0.428-0.602c0.027-0.056,0.084-0.084,0.146-0.084
		c0.042,0,0.084,0.014,0.134,0.035c0.076,0.049,0.133,0.126,0.133,0.21c0,0.028-0.007,0.049-0.021,0.077
		c-0.14,0.217-0.329,0.441-0.525,0.651c0.105,0.098,0.218,0.182,0.329,0.259c0.057,0.042,0.092,0.112,0.092,0.182
		c0,0.056-0.021,0.119-0.063,0.168c-0.049,0.063-0.112,0.091-0.175,0.091c-0.057,0-0.112-0.021-0.154-0.063
		c-0.224-0.175-0.448-0.42-0.658-0.679c0.021,0.308,0.035,0.588,0.035,0.833v1.947c0,0.133-0.099,0.203-0.267,0.203
		c-0.161,0-0.252-0.07-0.252-0.203v-1.849c0-0.364,0.028-0.672,0.056-0.925c-0.259,0.294-0.497,0.519-0.714,0.701
		c-0.042,0.035-0.099,0.056-0.154,0.056c-0.063,0-0.14-0.035-0.189-0.112c-0.042-0.056-0.063-0.112-0.063-0.161
		c0-0.063,0.035-0.126,0.098-0.175c0.722-0.546,1.345-1.31,1.674-2.038c0.015-0.035,0.021-0.056,0.021-0.084
		c0-0.049-0.042-0.07-0.105-0.07h-1.303c-0.133,0-0.195-0.105-0.195-0.245s0.063-0.238,0.195-0.238h0.68v-0.987
		c0-0.133,0.105-0.203,0.273-0.203c0.161,0,0.266,0.07,0.266,0.203v0.987H56.033z M59.738,25.565c0.273,0,0.42,0.14,0.42,0.329
		c0,0.105-0.042,0.217-0.133,0.33c-0.231,0.287-0.532,0.546-0.883,0.777c0.463,0.203,0.96,0.35,1.471,0.455
		c0.127,0.021,0.225,0.112,0.225,0.252c0,0.021,0,0.035-0.007,0.056c-0.028,0.147-0.134,0.231-0.26,0.231
		c-0.021,0-0.042,0-0.069-0.007c-0.673-0.161-1.289-0.392-1.835-0.7c-0.645,0.343-1.401,0.595-2.172,0.735
		c-0.021,0.007-0.042,0.007-0.063,0.007c-0.133,0-0.218-0.077-0.245-0.217c-0.007-0.021-0.007-0.042-0.007-0.063
		c0-0.112,0.077-0.196,0.188-0.21c0.658-0.105,1.289-0.294,1.835-0.546c-0.294-0.21-0.574-0.448-0.813-0.728
		c-0.252,0.224-0.532,0.42-0.826,0.574c-0.035,0.014-0.077,0.028-0.112,0.028c-0.084,0-0.161-0.042-0.21-0.14
		c-0.021-0.042-0.028-0.084-0.028-0.119c0-0.077,0.043-0.147,0.127-0.189c0.539-0.294,1.078-0.693,1.429-1.219h-0.126
		c-0.399,0-0.582-0.133-0.582-0.539v-1.058c0-0.133,0.021-0.238,0.063-0.322c-0.035,0.049-0.077,0.091-0.112,0.14
		c-0.049,0.063-0.119,0.098-0.196,0.098c-0.056,0-0.119-0.021-0.175-0.063c-0.056-0.056-0.084-0.119-0.084-0.189
		c0-0.056,0.021-0.119,0.063-0.168c0.322-0.357,0.651-0.91,0.841-1.408c0.042-0.112,0.126-0.154,0.225-0.154
		c0.034,0,0.076,0.007,0.111,0.014c0.112,0.021,0.189,0.091,0.189,0.189c0,0.021-0.007,0.042-0.014,0.07
		c-0.042,0.105-0.092,0.217-0.147,0.322h2.767c0.126,0,0.196,0.098,0.196,0.231c0,0.14-0.07,0.238-0.196,0.238h-3.019
		c-0.112,0.189-0.231,0.378-0.357,0.56c0.112-0.105,0.287-0.154,0.546-0.154h1.962c0.42,0,0.609,0.14,0.609,0.546v1.099
		c0,0.406-0.176,0.546-0.609,0.546H58.33c-0.084,0.126-0.168,0.245-0.259,0.364H59.738z M59.844,23.618
		c0-0.154-0.063-0.182-0.203-0.182h-1.87c-0.147,0-0.218,0.028-0.218,0.182v0.266h2.291V23.618z M57.553,24.599
		c0,0.147,0.063,0.175,0.21,0.175h1.878c0.14,0,0.203-0.028,0.203-0.175v-0.308h-2.291V24.599z M57.7,25.978
		c0.266,0.309,0.596,0.575,0.952,0.778c0.329-0.196,0.616-0.414,0.834-0.651c0.027-0.028,0.042-0.056,0.042-0.077
		c0-0.035-0.035-0.056-0.091-0.056h-1.724L57.7,25.978z"/>
	<path d="M64.098,24.977c0.133,0,0.203,0.091,0.203,0.238c0,0.14-0.07,0.245-0.203,0.245h-0.932
		c0.302,0.469,0.658,0.833,1.051,1.121c0.056,0.042,0.091,0.119,0.091,0.196c0,0.056-0.021,0.119-0.056,0.168
		c-0.049,0.07-0.126,0.105-0.196,0.105c-0.049,0-0.098-0.014-0.14-0.056c-0.344-0.294-0.658-0.651-0.904-1.106
		c0.035,0.252,0.05,0.518,0.05,0.75v1.253c0,0.112-0.092,0.189-0.245,0.189c-0.147,0-0.231-0.077-0.231-0.189v-1.232
		c0-0.238,0.021-0.477,0.056-0.714c-0.217,0.532-0.595,1.008-1.029,1.366c-0.049,0.035-0.098,0.056-0.154,0.056
		c-0.077,0-0.146-0.035-0.203-0.105c-0.042-0.056-0.063-0.105-0.063-0.161c0-0.063,0.035-0.133,0.119-0.189
		c0.448-0.35,0.861-0.833,1.169-1.45h-0.959c-0.133,0-0.203-0.105-0.203-0.238c0-0.147,0.07-0.245,0.203-0.245h1.064v-0.609
		c0-0.119,0.084-0.182,0.231-0.182c0.153,0,0.245,0.063,0.245,0.182v0.609H64.098z M67.579,27.351c0.111,0,0.182,0.105,0.182,0.245
		s-0.07,0.245-0.182,0.245h-2.417c-0.413,0-0.603-0.168-0.603-0.595v-2.893c0-0.203,0.015-0.483,0.043-0.777
		c-0.015,0.028-0.035,0.049-0.05,0.07c-0.056,0.07-0.119,0.105-0.182,0.105c-0.028,0-0.057-0.007-0.084-0.021
		c-0.015,0.189-0.028,0.385-0.057,0.455c-0.049,0.154-0.175,0.273-0.434,0.28c-0.035,0.007-0.077,0.007-0.112,0.007
		c-0.112,0-0.217-0.014-0.287-0.042c-0.147-0.056-0.196-0.175-0.196-0.372v-1.127c0-0.105-0.049-0.147-0.175-0.147h-0.322
		c-0.126,0.771-0.435,1.337-1.016,1.828c-0.063,0.056-0.126,0.084-0.189,0.084c-0.063,0-0.126-0.028-0.175-0.084
		c-0.056-0.042-0.084-0.105-0.084-0.168s0.028-0.126,0.084-0.175c0.504-0.406,0.771-0.854,0.89-1.485h-0.665
		c-0.127,0-0.189-0.105-0.189-0.238c0-0.14,0.063-0.245,0.189-0.245h0.728c0.015-0.175,0.021-0.357,0.021-0.56
		c0-0.14,0.105-0.196,0.245-0.196c0.154,0,0.238,0.063,0.238,0.196c0,0.196-0.007,0.385-0.021,0.56h0.399
		c0.329,0,0.49,0.14,0.49,0.504v1.085c0,0.07,0.021,0.119,0.112,0.119s0.104-0.028,0.112-0.084c0.014-0.077,0.021-0.462,0.021-0.546
		c0-0.091,0.091-0.154,0.196-0.154c0,0,0.007,0,0.014,0c0.063,0.007,0.119,0.028,0.154,0.063c0.336-0.462,0.623-1.057,0.792-1.611
		c0.027-0.105,0.104-0.154,0.203-0.154c0.034,0,0.063,0.007,0.104,0.014c0.112,0.035,0.175,0.105,0.175,0.196
		c0,0.028-0.007,0.056-0.014,0.091c-0.098,0.287-0.252,0.63-0.435,0.924c0.119-0.021,0.287-0.042,0.399-0.042h0.561
		c0.182-0.357,0.322-0.679,0.42-0.988c0.028-0.091,0.099-0.14,0.196-0.14c0.028,0,0.063,0.007,0.105,0.014
		c0.104,0.028,0.175,0.098,0.175,0.189c0,0.028-0.007,0.056-0.014,0.084c-0.105,0.28-0.218,0.56-0.372,0.84h0.953
		c0.112,0,0.188,0.091,0.188,0.231c0,0.147-0.076,0.252-0.188,0.252h-0.995v1.029h0.827c0.111,0,0.188,0.091,0.188,0.224
		c0,0.147-0.077,0.245-0.188,0.245h-0.827v1.016h0.827c0.119,0,0.188,0.098,0.188,0.238s-0.069,0.231-0.188,0.231h-0.827v1.177
		H67.579z M65.261,23.191c-0.141,0-0.196,0.042-0.196,0.182v0.847h0.959v-1.029H65.261z M66.023,25.705v-1.016h-0.959v1.016H66.023z
		 M65.064,27.169c0,0.14,0.063,0.182,0.196,0.182h0.763v-1.177h-0.959V27.169z"/>
	<path d="M54.892,31.598c0,0.007,0,0.015,0,0.021c-0.035,0.49-0.112,1.079-0.245,1.549c-0.035,0.119-0.112,0.182-0.217,0.182
		c-0.028,0-0.057-0.007-0.092-0.014c-0.098-0.028-0.161-0.099-0.161-0.196c0-0.035,0.008-0.063,0.015-0.099
		c0.126-0.398,0.217-0.973,0.252-1.478c0.007-0.119,0.105-0.183,0.225-0.183c0.007,0,0.007,0,0.014,0
		C54.814,31.388,54.892,31.458,54.892,31.598z M55.641,36.248c0,0.134-0.098,0.203-0.266,0.203c-0.147,0-0.26-0.069-0.26-0.203
		v-6.114c0-0.133,0.112-0.203,0.26-0.203c0.168,0,0.266,0.07,0.266,0.203V36.248z M56.055,31.311c0.084,0,0.153,0.042,0.195,0.133
		c0.119,0.253,0.245,0.575,0.315,0.833c0.007,0.029,0.007,0.057,0.007,0.078c0,0.104-0.056,0.175-0.161,0.209
		c-0.027,0.008-0.056,0.015-0.084,0.015c-0.084,0-0.161-0.042-0.188-0.147c-0.07-0.272-0.169-0.581-0.28-0.833
		c-0.015-0.035-0.021-0.069-0.021-0.099c0-0.076,0.049-0.14,0.126-0.174C55.998,31.317,56.026,31.311,56.055,31.311z M60.579,35.667
		c0.133,0,0.195,0.105,0.195,0.245s-0.063,0.252-0.195,0.252h-4.427c-0.126,0-0.196-0.112-0.196-0.252s0.07-0.245,0.196-0.245h1.961
		v-1.261h-1.513c-0.126,0-0.196-0.112-0.196-0.245c0-0.141,0.07-0.238,0.196-0.238h1.513v-0.735c0-0.133,0.105-0.203,0.267-0.203
		s0.266,0.07,0.266,0.203v0.735h1.499c0.126,0,0.189,0.098,0.189,0.238c0,0.133-0.063,0.245-0.189,0.245h-1.499v1.261H60.579z
		 M56.495,30.694c-0.126,0-0.195-0.092-0.195-0.238c0-0.141,0.069-0.238,0.195-0.238h3.173c0.315,0,0.497,0.154,0.497,0.385
		c0,0.127-0.056,0.273-0.168,0.428c-0.308,0.42-0.687,0.806-1.135,1.148c0.512,0.309,1.1,0.547,1.751,0.701
		c0.134,0.035,0.196,0.125,0.196,0.244c0,0.028-0.007,0.063-0.014,0.099c-0.035,0.14-0.126,0.203-0.238,0.203
		c-0.035,0-0.07-0.007-0.105-0.015c-0.763-0.209-1.436-0.525-2.01-0.924c-0.603,0.398-1.288,0.729-2.038,0.973
		c-0.035,0.015-0.077,0.021-0.112,0.021c-0.111,0-0.203-0.063-0.245-0.182c-0.007-0.035-0.014-0.07-0.014-0.105
		c0-0.105,0.063-0.189,0.175-0.225c0.666-0.203,1.275-0.476,1.808-0.805c-0.498-0.42-0.918-0.918-1.254-1.471H56.495z
		 M57.322,30.694c0.294,0.455,0.679,0.854,1.106,1.19c0.427-0.315,0.777-0.665,1.051-1.044c0.027-0.041,0.042-0.07,0.042-0.091
		c0-0.042-0.035-0.056-0.105-0.056H57.322z"/>
	<path d="M61.534,33.208c-0.126,0-0.203-0.098-0.203-0.244c0-0.147,0.077-0.246,0.203-0.246h5.946c0.133,0,0.203,0.099,0.203,0.238
		c0,0.154-0.07,0.252-0.203,0.252h-0.756v2.57c0,0.49-0.315,0.688-0.841,0.688c-0.238,0-0.525-0.028-0.7-0.07
		c-0.112-0.028-0.183-0.119-0.183-0.231c0-0.028,0-0.049,0.007-0.077c0.035-0.141,0.119-0.203,0.225-0.203
		c0.021,0,0.042,0,0.063,0.008c0.14,0.027,0.363,0.063,0.511,0.063c0.294,0,0.371-0.063,0.371-0.301v-2.445H61.534z M64.917,31.079
		c0.455,0.561,1.156,0.841,2.157,0.953c0.126,0.014,0.203,0.104,0.203,0.23c0,0.014,0,0.035,0,0.049
		c-0.021,0.147-0.112,0.231-0.259,0.231c-0.015,0-0.028,0-0.035,0c-1.128-0.112-1.976-0.524-2.528-1.296
		c-0.406,0.722-1.19,1.148-2.382,1.316c-0.021,0.008-0.049,0.008-0.069,0.008c-0.126,0-0.203-0.077-0.231-0.211
		c-0.007-0.021-0.007-0.041-0.007-0.063c0-0.111,0.063-0.217,0.196-0.238c1.008-0.16,1.674-0.42,2.017-0.98h-2.045
		c-0.126,0-0.203-0.098-0.203-0.238c0-0.146,0.077-0.238,0.203-0.238h2.241c0.035-0.14,0.063-0.301,0.077-0.469
		c0.014-0.133,0.105-0.195,0.252-0.195c0.014,0,0.021,0,0.028,0c0.146,0.006,0.238,0.084,0.238,0.217c0,0.007,0,0.021,0,0.027
		c-0.015,0.147-0.035,0.287-0.07,0.42h2.381c0.134,0,0.203,0.084,0.203,0.232c0,0.146-0.069,0.244-0.203,0.244H64.917z
		 M64.616,33.706c0.406,0,0.595,0.154,0.595,0.532v0.819c0,0.393-0.188,0.547-0.595,0.547h-1.758c-0.406,0-0.596-0.154-0.596-0.547
		v-0.819c0-0.378,0.189-0.532,0.596-0.532H64.616z M64.462,35.142c0.147,0,0.217-0.035,0.217-0.161v-0.645
		c0-0.133-0.069-0.168-0.217-0.168h-1.45c-0.146,0-0.217,0.035-0.217,0.168v0.645c0,0.126,0.07,0.161,0.217,0.161H64.462z"/>
</g>
<g>
	<path d="M38.521,1.037c-0.14,0-0.203-0.133-0.203-0.273s0.063-0.252,0.203-0.252h5.946c0.133,0,0.203,0.112,0.203,0.252
		s-0.07,0.273-0.203,0.273H42.12c-0.14,0.273-0.294,0.546-0.469,0.798v4.482c0,0.147-0.112,0.231-0.287,0.231
		s-0.287-0.084-0.287-0.231V3.383c0-0.28,0.021-0.574,0.056-0.854c-0.742,0.889-1.639,1.632-2.493,2.115
		c-0.042,0.021-0.091,0.035-0.133,0.035c-0.099,0-0.189-0.063-0.252-0.154c-0.035-0.056-0.05-0.112-0.05-0.168
		c0-0.091,0.042-0.175,0.126-0.217c1.24-0.687,2.444-1.779,3.159-3.103H38.521z M42.31,2.255c0.07,0,0.14,0.035,0.189,0.098
		c0.546,0.693,1.4,1.345,2.122,1.688c0.104,0.049,0.161,0.14,0.161,0.245c0,0.056-0.015,0.105-0.042,0.161
		c-0.063,0.105-0.147,0.161-0.245,0.161c-0.05,0-0.099-0.014-0.154-0.042c-0.75-0.393-1.597-1.058-2.241-1.856
		c-0.049-0.056-0.077-0.119-0.077-0.182c0-0.07,0.035-0.14,0.105-0.196C42.19,2.283,42.254,2.255,42.31,2.255z"/>
	<path d="M45.527,0.89c-0.133,0-0.21-0.105-0.21-0.259c0-0.147,0.077-0.252,0.21-0.252h5.939c0.126,0,0.203,0.105,0.203,0.252
		c0,0.147-0.077,0.259-0.203,0.259h-0.7v4.826c0,0.511-0.231,0.714-0.883,0.714c-0.294,0-0.645-0.035-0.917-0.098
		c-0.134-0.028-0.211-0.126-0.211-0.252c0-0.021,0-0.049,0.008-0.077c0.027-0.14,0.111-0.217,0.23-0.217c0.021,0,0.05,0,0.07,0.007
		c0.238,0.063,0.546,0.105,0.764,0.105c0.294,0,0.378-0.063,0.378-0.336V0.89H45.527z M49.051,4.266
		c0,0.448-0.196,0.623-0.638,0.623H46.76c-0.448,0-0.644-0.175-0.644-0.623v-1.87c0-0.448,0.195-0.624,0.644-0.624h1.653
		c0.441,0,0.638,0.175,0.638,0.624V4.266z M48.294,4.385c0.147,0,0.217-0.042,0.217-0.196V2.473c0-0.154-0.069-0.196-0.217-0.196
		h-1.429c-0.14,0-0.21,0.042-0.21,0.196v1.716c0,0.154,0.07,0.196,0.21,0.196H48.294z"/>
	<path d="M52.948,3.509c0-0.28,0.027-0.588,0.069-0.883c-0.126,0.252-0.259,0.483-0.42,0.701c-0.056,0.077-0.133,0.119-0.21,0.119
		c-0.063,0-0.119-0.021-0.176-0.07c-0.076-0.063-0.111-0.133-0.111-0.203c0-0.056,0.021-0.119,0.069-0.175
		c0.589-0.757,1.058-1.723,1.311-2.753c0.034-0.119,0.111-0.175,0.23-0.175c0.035,0,0.07,0.007,0.105,0.014
		c0.133,0.028,0.21,0.105,0.21,0.217c0,0.028-0.007,0.056-0.014,0.091c-0.147,0.462-0.322,0.945-0.532,1.421v4.588
		c0,0.133-0.105,0.196-0.267,0.196c-0.154,0-0.266-0.063-0.266-0.196V3.509z M54.817,4.35c-0.133,0-0.195-0.091-0.195-0.224
		c0-0.126,0.063-0.203,0.195-0.203h2.704c0.272,0,0.427,0.154,0.427,0.35c0,0.112-0.049,0.245-0.154,0.364
		c-0.272,0.301-0.602,0.588-0.973,0.833c0.504,0.245,1.092,0.399,1.736,0.511c0.141,0.021,0.225,0.126,0.225,0.266
		c0,0.021,0,0.042-0.007,0.063c-0.021,0.14-0.119,0.224-0.253,0.224c-0.027,0-0.049,0-0.077-0.007
		c-0.763-0.168-1.478-0.413-2.087-0.777c-0.651,0.364-1.387,0.637-2.107,0.777c-0.028,0.007-0.063,0.007-0.092,0.007
		c-0.126,0-0.224-0.063-0.252-0.196C53.9,6.311,53.9,6.283,53.9,6.262c0-0.112,0.07-0.196,0.203-0.224
		c0.658-0.133,1.274-0.329,1.813-0.582c-0.406-0.322-0.714-0.672-0.994-1.106H54.817z M58.096,3.005c0.406,0,0.595,0.14,0.595,0.546
		v0.518c0,0.147-0.104,0.203-0.259,0.203c-0.146,0-0.266-0.056-0.266-0.203V3.614c0-0.133-0.07-0.168-0.189-0.168h-3.32
		c-0.118,0-0.188,0.035-0.188,0.168v0.455c0,0.147-0.119,0.203-0.273,0.203c-0.146,0-0.252-0.056-0.252-0.203V3.551
		c0-0.406,0.189-0.546,0.588-0.546H58.096z M57.668,0.938c0-0.147-0.063-0.189-0.21-0.189h-2.857c-0.112,0-0.175-0.098-0.175-0.224
		c0-0.119,0.063-0.224,0.175-0.224h2.998c0.392,0,0.574,0.14,0.574,0.525v1.226c0,0.378-0.183,0.525-0.574,0.525h-3.061
		c-0.112,0-0.176-0.098-0.176-0.217s0.063-0.224,0.176-0.224h2.92c0.147,0,0.21-0.035,0.21-0.182V1.653h-2.927
		c-0.105,0-0.161-0.098-0.161-0.21c0-0.112,0.056-0.217,0.161-0.217h2.927V0.938z M55.455,4.35c0.231,0.343,0.554,0.645,0.903,0.869
		c0.364-0.217,0.687-0.462,0.945-0.75c0.035-0.042,0.05-0.063,0.05-0.084c0-0.028-0.035-0.035-0.099-0.035H55.455z"/>
	<path d="M59.569,4.272c-0.126,0-0.196-0.105-0.196-0.252s0.07-0.238,0.196-0.238h2.599V3.18c0-0.126,0.098-0.196,0.252-0.196
		s0.267,0.07,0.267,0.196v0.603h2.717c0.127,0,0.196,0.091,0.196,0.238c0,0.14-0.069,0.252-0.196,0.252h-2.374
		c0.589,0.63,1.562,1.226,2.438,1.513c0.126,0.042,0.189,0.14,0.189,0.259c0,0.035-0.008,0.077-0.021,0.112
		c-0.042,0.119-0.147,0.182-0.259,0.182c-0.035,0-0.07-0.007-0.105-0.021c-0.98-0.378-2.045-1.085-2.633-1.842
		c0.027,0.154,0.049,0.35,0.049,0.511v1.429c0,0.119-0.112,0.196-0.267,0.196s-0.252-0.077-0.252-0.196V4.987
		c0-0.168,0.014-0.364,0.049-0.511c-0.595,0.735-1.499,1.401-2.514,1.828c-0.042,0.021-0.085,0.028-0.127,0.028
		c-0.104,0-0.195-0.063-0.237-0.182c-0.021-0.042-0.028-0.084-0.028-0.126c0-0.098,0.056-0.175,0.168-0.224
		c0.96-0.371,1.793-0.932,2.347-1.527H59.569z M63.855,0.554c0.302,0,0.47,0.175,0.47,0.385c0,0.105-0.049,0.225-0.147,0.33
		c-0.336,0.336-0.707,0.637-1.12,0.903c0.714,0.343,1.526,0.56,2.423,0.687c0.147,0.021,0.231,0.112,0.231,0.245
		c0,0.021,0,0.049-0.007,0.07c-0.028,0.161-0.126,0.231-0.252,0.231c-0.021,0-0.035,0-0.057-0.007
		c-1.051-0.154-2.01-0.462-2.836-0.938c-0.883,0.476-1.885,0.798-2.928,0.967c-0.021,0.007-0.042,0.007-0.063,0.007
		c-0.126,0-0.217-0.084-0.23-0.224c-0.008-0.014-0.008-0.028-0.008-0.049c0-0.119,0.07-0.224,0.203-0.245
		c0.925-0.133,1.793-0.392,2.55-0.749c-0.351-0.238-0.673-0.519-0.96-0.833c-0.356,0.308-0.756,0.588-1.169,0.784
		c-0.049,0.021-0.092,0.028-0.134,0.028c-0.091,0-0.175-0.049-0.224-0.14c-0.021-0.042-0.035-0.091-0.035-0.126
		c0-0.084,0.049-0.161,0.141-0.203c0.868-0.42,1.498-0.995,1.891-1.576C61.643,0.035,61.727,0,61.825,0
		c0.034,0,0.069,0.007,0.104,0.014c0.112,0.035,0.183,0.119,0.183,0.203c0,0.042-0.015,0.077-0.042,0.112
		c-0.05,0.07-0.105,0.147-0.169,0.224H63.855z M61.496,0.995c-0.015,0.014-0.028,0.021-0.035,0.035
		c0.329,0.336,0.7,0.645,1.106,0.882c0.392-0.231,0.749-0.49,1.051-0.784c0.042-0.042,0.063-0.07,0.063-0.091
		c0-0.028-0.042-0.042-0.112-0.042H61.496z"/>
	<path d="M67.515,3.586c-0.371,0.035-0.735,0.056-1.071,0.07c-0.007,0-0.007,0-0.014,0c-0.126,0-0.203-0.084-0.21-0.245
		c0-0.147,0.077-0.245,0.203-0.245c0.035,0,0.069,0,0.104,0c0.105,0,0.218,0,0.329-0.007c0.176-0.203,0.337-0.413,0.49-0.63
		c-0.294-0.364-0.658-0.743-0.966-1.009c-0.042-0.049-0.063-0.105-0.063-0.161c0-0.063,0.028-0.126,0.07-0.175
		c0.056-0.063,0.126-0.098,0.188-0.098c0.042,0,0.085,0.014,0.119,0.049c0.063,0.056,0.119,0.112,0.189,0.175
		c0.238-0.357,0.47-0.785,0.63-1.121c0.043-0.084,0.105-0.119,0.183-0.119c0.042,0,0.084,0.014,0.133,0.035
		c0.099,0.042,0.161,0.119,0.161,0.21c0,0.028-0.007,0.063-0.021,0.098c-0.183,0.364-0.441,0.805-0.75,1.232
		c0.147,0.154,0.287,0.315,0.421,0.477c0.272-0.393,0.532-0.792,0.735-1.156c0.049-0.077,0.126-0.119,0.203-0.119
		c0.042,0,0.084,0.014,0.126,0.035c0.091,0.049,0.153,0.126,0.153,0.217c0,0.035-0.007,0.07-0.034,0.105
		c-0.357,0.595-0.89,1.358-1.38,1.926c0.35-0.014,0.693-0.056,1.036-0.098c-0.07-0.161-0.14-0.315-0.203-0.441
		c-0.014-0.028-0.021-0.056-0.021-0.084c0-0.077,0.049-0.14,0.133-0.175c0.042-0.021,0.084-0.028,0.119-0.028
		c0.07,0,0.133,0.035,0.175,0.119c0.175,0.33,0.399,0.806,0.519,1.156c0.014,0.021,0.014,0.035,0.014,0.056
		c0,0.091-0.077,0.161-0.175,0.203c-0.035,0.014-0.07,0.021-0.112,0.021c-0.077,0-0.146-0.042-0.175-0.119
		c-0.028-0.091-0.063-0.189-0.099-0.294c-0.21,0.035-0.427,0.063-0.637,0.084v2.872c0,0.119-0.105,0.189-0.252,0.189
		c-0.147,0-0.253-0.07-0.253-0.189V3.586z M66.5,6.101c-0.028,0-0.063-0.007-0.092-0.014c-0.104-0.035-0.182-0.112-0.182-0.203
		c0-0.028,0.007-0.056,0.021-0.084c0.189-0.448,0.322-1.106,0.379-1.604c0.014-0.14,0.091-0.203,0.21-0.203
		c0.014,0,0.035,0,0.056,0.007c0.126,0.021,0.217,0.084,0.217,0.189c0,0.014,0,0.021,0,0.028c-0.056,0.567-0.188,1.247-0.385,1.737
		C66.688,6.051,66.598,6.101,66.5,6.101z M69.182,5.589c0,0.119-0.091,0.203-0.217,0.217c-0.021,0.007-0.042,0.007-0.056,0.007
		c-0.105,0-0.189-0.056-0.21-0.182c-0.063-0.406-0.183-1.016-0.302-1.401c-0.007-0.021-0.007-0.042-0.007-0.056
		c0-0.084,0.063-0.154,0.161-0.182c0.028-0.007,0.056-0.014,0.084-0.014c0.091,0,0.168,0.042,0.203,0.14
		c0.126,0.385,0.273,1.001,0.343,1.436C69.182,5.568,69.182,5.575,69.182,5.589z M70.009,1.66c-0.183,0.364-0.393,0.708-0.616,0.987
		c-0.05,0.063-0.119,0.098-0.196,0.098c-0.063,0-0.119-0.021-0.168-0.07c-0.063-0.063-0.099-0.14-0.099-0.21
		c0-0.063,0.021-0.119,0.063-0.168c0.427-0.518,0.777-1.232,1.008-2.038c0.035-0.112,0.119-0.161,0.225-0.161
		c0.028,0,0.056,0.007,0.091,0.014c0.126,0.028,0.203,0.098,0.203,0.21c0,0.028-0.007,0.049-0.014,0.084
		c-0.07,0.245-0.161,0.498-0.267,0.757h1.66c0.428,0,0.638,0.182,0.638,0.63c0,1.688-0.134,3.096-0.351,3.937
		c-0.14,0.539-0.427,0.707-1.022,0.707c-0.329,0-0.574-0.021-0.771-0.07c-0.104-0.021-0.175-0.126-0.175-0.252
		c0-0.028,0-0.049,0.007-0.077c0.028-0.133,0.112-0.217,0.224-0.217c0.021,0,0.05,0,0.07,0.007c0.168,0.049,0.351,0.07,0.609,0.07
		c0.336,0,0.455-0.049,0.539-0.385c0.183-0.7,0.322-2.164,0.322-3.621c0-0.175-0.063-0.231-0.23-0.231H70.009z M70.036,2.592
		c0.077,0,0.154,0.035,0.203,0.105c0.302,0.413,0.638,1.001,0.834,1.457c0.014,0.035,0.021,0.07,0.021,0.105
		c0,0.098-0.056,0.189-0.161,0.245c-0.056,0.021-0.104,0.035-0.153,0.035c-0.099,0-0.183-0.056-0.231-0.168
		c-0.175-0.441-0.462-0.966-0.757-1.394c-0.035-0.049-0.049-0.091-0.049-0.133c0-0.084,0.049-0.154,0.133-0.203
		C69.925,2.605,69.98,2.592,70.036,2.592z"/>
</g>
<g>
	<path d="M77.263,42.321c0,0.14-0.099,0.209-0.267,0.209c-0.154,0-0.266-0.069-0.266-0.209v-5.568c0-0.364,0.175-0.532,0.574-0.532
		h1.526c0.393,0,0.567,0.147,0.567,0.504v1.163c0,0.357-0.175,0.504-0.567,0.504h-1.568V42.321z M78.901,36.823
		c0-0.133-0.077-0.183-0.21-0.183h-1.24c-0.133,0-0.188,0.05-0.188,0.183v0.279h1.639V36.823z M78.691,37.979
		c0.133,0,0.21-0.05,0.21-0.175v-0.302h-1.639v0.477H78.691z M80.001,40.653c0.308,0.406,0.749,0.673,1.162,0.792
		c0.126,0.035,0.183,0.126,0.183,0.218c0,0.041-0.007,0.076-0.028,0.118c-0.049,0.105-0.119,0.154-0.217,0.154
		c-0.035,0-0.077-0.007-0.119-0.021c-0.539-0.203-0.987-0.533-1.31-1.044c-0.049,0.133-0.112,0.252-0.189,0.364
		c-0.301,0.462-0.819,0.791-1.407,0.98c-0.042,0.014-0.085,0.021-0.127,0.021c-0.104,0-0.182-0.057-0.224-0.168
		c-0.014-0.035-0.021-0.07-0.021-0.105c0-0.105,0.063-0.189,0.189-0.217c0.532-0.147,0.987-0.436,1.205-0.757
		c0.069-0.099,0.119-0.21,0.168-0.337h-1.31c-0.119,0-0.189-0.076-0.189-0.209c0-0.134,0.07-0.211,0.189-0.211h1.414
		c0.028-0.189,0.035-0.385,0.05-0.574h-1.303c-0.119,0-0.189-0.077-0.189-0.21c0-0.126,0.07-0.203,0.189-0.203h0.714
		c-0.091-0.147-0.189-0.28-0.259-0.371c-0.035-0.056-0.057-0.104-0.057-0.147c0-0.076,0.05-0.133,0.134-0.168
		c0.042-0.021,0.077-0.027,0.111-0.027c0.084,0,0.154,0.041,0.211,0.119c0.126,0.16,0.252,0.377,0.363,0.595h0.673
		c0.161-0.21,0.28-0.406,0.357-0.574c0.049-0.099,0.119-0.14,0.203-0.14c0.027,0,0.063,0.006,0.098,0.014
		c0.099,0.035,0.161,0.098,0.161,0.182c0,0.028-0.007,0.063-0.028,0.098c-0.069,0.127-0.168,0.281-0.279,0.421h0.805
		c0.112,0,0.183,0.077,0.183,0.203c0,0.133-0.07,0.21-0.183,0.21h-1.442c-0.007,0.189-0.014,0.385-0.042,0.574h1.625
		c0.119,0,0.188,0.077,0.188,0.211c0,0.133-0.069,0.209-0.188,0.209H80.001z M80.533,38.392c-0.399,0-0.574-0.146-0.574-0.504
		v-1.163c0-0.356,0.175-0.504,0.574-0.504h1.597c0.406,0,0.574,0.168,0.574,0.532v5.043c0,0.469-0.217,0.665-0.7,0.665
		c-0.183,0-0.399-0.007-0.574-0.042c-0.119-0.028-0.196-0.112-0.196-0.245c0-0.021,0-0.035,0-0.056
		c0.021-0.119,0.105-0.197,0.21-0.197c0.021,0,0.042,0,0.063,0.008c0.133,0.027,0.28,0.042,0.392,0.042
		c0.245,0,0.287-0.07,0.287-0.302v-3.277H80.533z M82.186,36.823c0-0.133-0.063-0.183-0.195-0.183h-1.317
		c-0.126,0-0.21,0.05-0.21,0.183v0.279h1.723V36.823z M82.186,37.502h-1.723v0.302c0,0.125,0.084,0.175,0.21,0.175h1.513V37.502z"/>
	<path d="M84.186,39.568c0-0.294,0.021-0.624,0.056-0.932c-0.104,0.218-0.231,0.421-0.371,0.595
		c-0.056,0.084-0.14,0.127-0.225,0.127c-0.056,0-0.118-0.021-0.175-0.063c-0.077-0.049-0.112-0.126-0.112-0.203
		c0-0.063,0.021-0.133,0.07-0.188c0.631-0.75,1.029-1.674,1.296-2.718c0.035-0.134,0.112-0.189,0.231-0.189
		c0.027,0,0.063,0.007,0.098,0.015c0.133,0.027,0.21,0.098,0.21,0.217c0,0.021,0,0.049-0.007,0.077
		c-0.126,0.49-0.309,0.987-0.539,1.484v4.546c0,0.133-0.105,0.203-0.267,0.203s-0.266-0.07-0.266-0.203V39.568z M87.176,39.911
		c-0.665,0.035-1.289,0.057-1.842,0.057c-0.154,0-0.231-0.105-0.238-0.26c0-0.007,0-0.014,0-0.014c0-0.133,0.084-0.225,0.21-0.225
		c0.225,0.008,0.448,0.008,0.68,0.008c0.119,0,0.238,0,0.364,0c0.182-0.141,0.35-0.295,0.519-0.441
		c0.021-0.021,0.042-0.035,0.063-0.057c-0.469-0.378-0.875-0.665-1.296-0.91c-0.077-0.049-0.111-0.105-0.111-0.175
		c0-0.042,0.014-0.084,0.042-0.134c0.063-0.084,0.14-0.133,0.217-0.133c0.028,0,0.063,0.008,0.098,0.028
		c0.134,0.077,0.267,0.161,0.413,0.252c0.273-0.272,0.525-0.574,0.75-0.896c-0.47,0.056-0.925,0.084-1.345,0.105
		c-0.007,0-0.007,0-0.014,0c-0.134,0-0.218-0.085-0.225-0.231c0-0.007,0-0.014,0-0.021c0-0.14,0.084-0.224,0.217-0.23
		c1.163-0.042,2.585-0.189,3.565-0.504c0.028-0.008,0.063-0.015,0.091-0.015c0.098,0,0.175,0.056,0.21,0.161
		c0.015,0.042,0.021,0.084,0.021,0.119c0,0.105-0.057,0.182-0.161,0.203c-0.505,0.133-1.1,0.245-1.702,0.336
		c-0.309,0.435-0.645,0.861-1.029,1.232c0.021,0.021,0.049,0.035,0.069,0.057c0.183,0.133,0.364,0.273,0.54,0.42
		c0.455-0.448,0.84-0.896,1.142-1.316c0.042-0.057,0.111-0.084,0.175-0.084s0.119,0.021,0.175,0.049
		c0.084,0.049,0.134,0.119,0.134,0.189c0,0.049-0.021,0.105-0.063,0.16c-0.519,0.659-1.142,1.282-1.807,1.822
		c0.651-0.029,1.31-0.057,1.968-0.113c-0.147-0.209-0.301-0.412-0.455-0.58c-0.028-0.029-0.042-0.07-0.042-0.113
		c0-0.063,0.042-0.125,0.119-0.174c0.049-0.029,0.104-0.043,0.146-0.043c0.063,0,0.119,0.021,0.154,0.063
		c0.344,0.378,0.729,0.925,0.967,1.345c0.021,0.042,0.027,0.076,0.027,0.119c0,0.084-0.049,0.16-0.133,0.21
		c-0.042,0.021-0.091,0.034-0.133,0.034c-0.091,0-0.168-0.041-0.203-0.118c-0.049-0.105-0.112-0.218-0.182-0.329
		c-0.519,0.049-1.044,0.084-1.563,0.119v2.465c0,0.119-0.119,0.196-0.266,0.196c-0.161,0-0.267-0.077-0.267-0.196V39.911z
		 M86.538,40.5c0,0.028-0.007,0.056-0.014,0.084c-0.224,0.539-0.561,1.079-0.883,1.436c-0.056,0.063-0.133,0.099-0.21,0.099
		c-0.056,0-0.119-0.021-0.175-0.063c-0.077-0.05-0.112-0.126-0.112-0.203c0-0.056,0.021-0.104,0.063-0.154
		c0.336-0.329,0.637-0.813,0.826-1.288c0.035-0.099,0.119-0.147,0.21-0.147c0.042,0,0.084,0.007,0.126,0.028
		C86.482,40.325,86.538,40.409,86.538,40.5z M88.653,40.22c0.092,0,0.161,0.042,0.211,0.133c0.23,0.463,0.602,0.988,0.938,1.311
		c0.042,0.041,0.063,0.098,0.063,0.153c0,0.07-0.042,0.154-0.112,0.21c-0.056,0.043-0.126,0.07-0.188,0.07
		c-0.07,0-0.134-0.027-0.183-0.084c-0.343-0.357-0.742-0.967-0.974-1.449c-0.021-0.035-0.027-0.07-0.027-0.105
		c0-0.098,0.056-0.176,0.161-0.217C88.576,40.227,88.619,40.22,88.653,40.22z"/>
	<path d="M77.745,49.081c0,0.029-0.007,0.064-0.014,0.099c-0.14,0.477-0.393,0.98-0.68,1.358c-0.069,0.084-0.146,0.119-0.23,0.119
		c-0.063,0-0.126-0.021-0.183-0.063c-0.069-0.057-0.104-0.126-0.104-0.196c0-0.056,0.021-0.112,0.063-0.161
		c0.273-0.329,0.512-0.791,0.645-1.232c0.035-0.119,0.119-0.168,0.217-0.168c0.035,0,0.07,0.007,0.105,0.014
		C77.683,48.886,77.745,48.963,77.745,49.081z M76.892,45.11c-0.127,0-0.196-0.105-0.196-0.238s0.069-0.23,0.196-0.23h5.666
		c0.118,0,0.188,0.098,0.188,0.23s-0.07,0.238-0.188,0.238h-1.835v0.561h1.106c0.392,0,0.574,0.154,0.574,0.497v0.743
		c0,0.336-0.183,0.49-0.574,0.49h-1.106v0.602h1.981c0.119,0,0.189,0.084,0.189,0.225c0,0.133-0.07,0.23-0.189,0.23H76.73
		c-0.119,0-0.189-0.098-0.189-0.23c0-0.141,0.07-0.225,0.189-0.225h1.904v-0.602h-1.043c-0.393,0-0.567-0.154-0.567-0.49v-0.743
		c0-0.343,0.175-0.497,0.567-0.497h1.043V45.11H76.892z M77.753,46.099c-0.147,0-0.218,0.035-0.218,0.16v0.561
		c0,0.127,0.07,0.161,0.218,0.161h0.882v-0.882H77.753z M78.285,49.019c0-0.14,0.098-0.217,0.266-0.217
		c0.161,0,0.287,0.084,0.287,0.217v1.078c0,0.176,0.035,0.232,0.218,0.267c0.146,0.028,0.364,0.035,0.728,0.035
		c0.456,0,0.764-0.021,0.911-0.049c0.146-0.028,0.217-0.091,0.273-0.21c0.042-0.084,0.076-0.28,0.098-0.47
		c0.014-0.161,0.119-0.231,0.245-0.231c0.021,0,0.035,0,0.056,0.008c0.147,0.014,0.238,0.091,0.238,0.244c0,0.015,0,0.029,0,0.05
		c-0.035,0.287-0.104,0.589-0.188,0.742c-0.092,0.175-0.203,0.273-0.519,0.329c-0.21,0.035-0.561,0.063-1.135,0.063
		c-0.49,0-0.799-0.021-1.029-0.063c-0.351-0.063-0.448-0.195-0.448-0.566V49.019z M80.231,45.671V45.11h-1.106v0.561H80.231z
		 M80.231,46.98v-0.882h-1.106v0.882H80.231z M80.231,48.003v-0.602h-1.106v0.602H80.231z M80.456,49.39
		c0.028,0.043,0.042,0.084,0.042,0.133c0,0.078-0.049,0.154-0.119,0.211c-0.049,0.035-0.104,0.056-0.154,0.056
		c-0.077,0-0.146-0.035-0.188-0.104c-0.147-0.225-0.364-0.484-0.54-0.652c-0.049-0.056-0.076-0.104-0.076-0.16
		c0-0.057,0.027-0.112,0.084-0.162c0.056-0.041,0.111-0.069,0.175-0.069c0.049,0,0.104,0.021,0.154,0.063
		C80.043,48.879,80.302,49.166,80.456,49.39z M81.682,46.98c0.147,0,0.21-0.034,0.21-0.161v-0.561c0-0.125-0.063-0.16-0.21-0.16
		h-0.959v0.882H81.682z M81.871,48.794c0.063,0,0.126,0.029,0.175,0.092c0.329,0.406,0.63,0.868,0.848,1.303
		c0.021,0.042,0.035,0.091,0.035,0.133c0,0.092-0.057,0.182-0.141,0.231c-0.049,0.034-0.104,0.049-0.154,0.049
		c-0.084,0-0.161-0.049-0.203-0.133c-0.224-0.47-0.511-0.925-0.791-1.289c-0.028-0.049-0.042-0.104-0.042-0.147
		c0-0.069,0.035-0.133,0.105-0.182C81.759,48.815,81.814,48.794,81.871,48.794z"/>
	<path d="M84.528,47.927c0-0.302,0.021-0.645,0.057-0.96c-0.183,0.308-0.421,0.623-0.673,0.903c-0.056,0.07-0.133,0.105-0.203,0.105
		c-0.063,0-0.126-0.028-0.189-0.084c-0.056-0.063-0.091-0.134-0.091-0.203c0-0.07,0.028-0.133,0.077-0.197
		c0.813-0.867,1.352-1.813,1.66-2.871c0.027-0.105,0.119-0.16,0.238-0.16c0.034,0,0.077,0.006,0.119,0.014
		c0.126,0.035,0.188,0.125,0.188,0.23c0,0.028-0.007,0.063-0.014,0.092c-0.147,0.476-0.364,0.973-0.623,1.484v4.412
		c0,0.133-0.105,0.211-0.273,0.211c-0.161,0-0.273-0.078-0.273-0.211V47.927z M87.063,49.817c0,0.21,0.057,0.287,0.329,0.314
		c0.154,0.015,0.357,0.021,0.651,0.021c0.364,0,0.659-0.027,0.834-0.077c0.133-0.034,0.252-0.133,0.301-0.259
		c0.07-0.168,0.105-0.49,0.126-0.841c0.008-0.168,0.105-0.245,0.26-0.245c0.007,0,0.021,0,0.035,0
		c0.153,0.014,0.252,0.098,0.252,0.252c0,0.008,0,0.008,0,0.014c-0.015,0.436-0.091,0.869-0.196,1.129
		c-0.112,0.272-0.322,0.412-0.645,0.482c-0.252,0.057-0.588,0.077-0.987,0.077c-0.364,0-0.651-0.007-0.876-0.035
		c-0.482-0.056-0.637-0.252-0.637-0.7v-5.273c0-0.141,0.112-0.217,0.272-0.217c0.169,0,0.28,0.076,0.28,0.217v2.507
		c0.757-0.42,1.485-0.96,2.073-1.59c0.057-0.049,0.119-0.077,0.183-0.077c0.069,0,0.146,0.035,0.21,0.092
		c0.07,0.069,0.104,0.146,0.104,0.224c0,0.069-0.027,0.14-0.098,0.196c-0.623,0.623-1.506,1.246-2.473,1.758V49.817z"/>
</g>
<g>
	<g>
		<line fill="none" stroke="#000000" stroke-width="0.75" stroke-miterlimit="10" x1="27.293" y1="7.603" x2="82.448" y2="7.603"/>
		<g>
			<path d="M32.419,11.202c0.111-0.174,0.06-0.406-0.115-0.518l-4.839-3.082l4.839-3.082c0.175-0.111,0.227-0.344,0.115-0.518
				c-0.111-0.175-0.345-0.225-0.518-0.115l-5.336,3.398c-0.107,0.068-0.174,0.188-0.174,0.316s0.066,0.248,0.174,0.316l5.336,3.398
				c0.063,0.039,0.132,0.059,0.201,0.059C32.226,11.376,32.348,11.314,32.419,11.202z"/>
		</g>
		<g>
			<path d="M77.321,11.202c-0.111-0.174-0.059-0.406,0.116-0.518l4.839-3.082l-4.839-3.082c-0.175-0.111-0.228-0.344-0.116-0.518
				c0.111-0.175,0.346-0.225,0.52-0.115l5.335,3.398c0.108,0.068,0.174,0.188,0.174,0.316s-0.065,0.248-0.174,0.316l-5.335,3.398
				c-0.063,0.039-0.133,0.059-0.202,0.059C77.515,11.376,77.394,11.314,77.321,11.202z"/>
		</g>
	</g>
</g>
<g>
	<g>
		
			<line fill="none" stroke="#000000" stroke-width="0.75" stroke-miterlimit="10" stroke-dasharray="2,2" x1="52.812" y1="47.311" x2="52.812" y2="8.504"/>
		<g>
			<path d="M56.411,13.63c-0.174,0.111-0.406,0.06-0.518-0.115l-3.082-4.839l-3.082,4.839c-0.111,0.175-0.344,0.227-0.518,0.115
				c-0.175-0.111-0.225-0.345-0.115-0.518l3.398-5.336c0.068-0.107,0.188-0.174,0.316-0.174s0.248,0.066,0.316,0.174l3.398,5.336
				c0.039,0.063,0.059,0.132,0.059,0.201C56.585,13.437,56.523,13.559,56.411,13.63z"/>
		</g>
	</g>
</g>
</svg>
