<?xml version="1.0" encoding="utf-8"?>
<!-- Generator: Adobe Illustrator 16.0.3, SVG Export Plug-In . SVG Version: 6.00 Build 0)  -->
<!DOCTYPE svg PUBLIC "-//W3C//DTD SVG 1.1//EN" "http://www.w3.org/Graphics/SVG/1.1/DTD/svg11.dtd">
<svg version="1.1" id="レイヤー_1" xmlns="http://www.w3.org/2000/svg" xmlns:xlink="http://www.w3.org/1999/xlink" x="0px"
	 y="0px" width="109.039px" height="53.302px" viewBox="0 0 109.039 53.302" enable-background="new 0 0 109.039 53.302"
	 xml:space="preserve">
<pattern  x="-243.099" y="-753.335" width="72" height="72" patternUnits="userSpaceOnUse" id="_x31_0_lpi_50_x25__4" viewBox="20 -72 72 72" overflow="visible">
	<g>
		<polygon fill="none" points="20,0 20,-72 92,-72 92,0 		"/>
		<line fill="none" stroke="#FFD2F3" stroke-width="3.6" x1="19.75" y1="-3.601" x2="92.25" y2="-3.601"/>
		<line fill="none" stroke="#FFD2F3" stroke-width="3.6" x1="19.75" y1="-18" x2="92.25" y2="-18"/>
		<line fill="none" stroke="#FFD2F3" stroke-width="3.6" x1="19.75" y1="-32.4" x2="92.25" y2="-32.4"/>
		<line fill="none" stroke="#FFD2F3" stroke-width="3.6" x1="19.75" y1="-46.801" x2="92.25" y2="-46.801"/>
		<line fill="none" stroke="#FFD2F3" stroke-width="3.6" x1="19.75" y1="-61.2" x2="92.25" y2="-61.2"/>
		<line fill="none" stroke="#FFD2F3" stroke-width="3.6" x1="0" y1="-61.2" x2="14" y2="-61.2"/>
		<line fill="none" stroke="#FFD2F3" stroke-width="3.6" x1="19.75" y1="-10.801" x2="92.25" y2="-10.801"/>
		<line fill="none" stroke="#FFD2F3" stroke-width="3.6" x1="19.75" y1="-25.2" x2="92.25" y2="-25.2"/>
		<line fill="none" stroke="#FFD2F3" stroke-width="3.6" x1="19.75" y1="-39.601" x2="92.25" y2="-39.601"/>
		<line fill="none" stroke="#FFD2F3" stroke-width="3.6" x1="19.75" y1="-54" x2="92.25" y2="-54"/>
		<line fill="none" stroke="#FFD2F3" stroke-width="3.6" x1="19.75" y1="-68.4" x2="92.25" y2="-68.4"/>
		<line fill="none" stroke="#FFD2F3" stroke-width="3.6" x1="0" y1="-68.4" x2="14" y2="-68.4"/>
	</g>
</pattern>
<pattern  id="SVGID_1_" xlink:href="#_x31_0_lpi_50_x25__4" patternTransform="matrix(0.7071 -0.7071 0.7071 0.7071 2427.3506 -7256.0205)">
</pattern>
<rect x="39.132" y="40.593" fill="url(#SVGID_1_)" stroke="#000000" stroke-width="0.75" stroke-miterlimit="10" width="31.182" height="12.334"/>
<rect x="5.507" y="15.218" fill="#FFD2F3" stroke="#000000" stroke-width="0.75" stroke-miterlimit="10" width="31.182" height="12.334"/>
<g>
	<path d="M11.031,18.384c0.242-0.45,0.369-0.783,0.486-1.26l0.648,0.117c-0.189,0.486-0.334,0.81-0.514,1.143h2.17
		c0.504,0,0.773-0.009,1.09-0.045c-0.037,0.297-0.045,0.558-0.045,1.116v4.79c0,0.549,0.008,0.792,0.053,1.044h-0.629v-0.531H9.537
		v0.531H8.916c0.035-0.261,0.053-0.54,0.053-1.053v-4.781c0-0.531-0.008-0.801-0.045-1.116c0.307,0.036,0.576,0.045,1.063,0.045
		H11.031z M9.537,20.292h4.762v-1.377H9.537V20.292z M9.537,22.237h4.762v-1.422H9.537V22.237z M9.537,24.227h4.762v-1.467H9.537
		V24.227z"/>
	<path d="M23.623,18.996c0.361,0,0.621-0.009,0.9-0.045c-0.035,0.261-0.045,0.495-0.045,0.81v4.745c0,0.306,0.018,0.594,0.055,0.882
		h-0.641v-0.513h-5.949v0.513h-0.631c0.035-0.306,0.055-0.567,0.055-0.882v-4.763c0-0.288-0.02-0.54-0.045-0.792
		c0.26,0.036,0.521,0.045,0.881,0.045h2.35v-0.9c0-0.324-0.018-0.621-0.063-0.909h0.711c-0.045,0.297-0.063,0.567-0.063,0.909v0.9
		H23.623z M17.943,19.536v2.062h2.609v-2.062H17.943z M17.943,22.111v2.241h2.609v-2.241H17.943z M23.893,21.598v-2.062h-2.754
		v2.062H23.893z M23.893,24.353v-2.241h-2.754v2.241H23.893z"/>
	<path d="M28.283,22.399c-0.377,0-0.621,0.009-0.809,0.036c0.008-0.126,0.018-0.198,0.018-0.252v-0.18l0.008-0.324v-0.981
		c0-0.297-0.008-0.468-0.025-0.693c0.207,0.027,0.477,0.036,0.764,0.036h3.432c0.342,0,0.566-0.009,0.738-0.036
		c-0.02,0.189-0.027,0.36-0.027,0.711v0.963c0,0.468,0.008,0.594,0.027,0.756c-0.262-0.027-0.559-0.036-0.883-0.036h-0.586v1.999
		c0,0.261,0.082,0.288,0.918,0.288c1,0,1.197-0.036,1.324-0.225c0.117-0.171,0.17-0.513,0.207-1.162
		c0.225,0.126,0.369,0.189,0.566,0.243c-0.107,0.927-0.215,1.26-0.467,1.458c-0.217,0.162-0.604,0.216-1.604,0.216
		c-1.277,0-1.512-0.099-1.512-0.63v-2.188h-1.027c-0.053,0.459-0.098,0.684-0.207,0.963c-0.279,0.738-0.873,1.314-1.736,1.684
		c-0.342,0.144-0.613,0.225-1.18,0.351c-0.09-0.225-0.162-0.351-0.314-0.567c1.008-0.153,1.674-0.405,2.15-0.811
		c0.451-0.387,0.639-0.828,0.711-1.62H28.283z M29.563,17.889c0-0.243-0.018-0.468-0.045-0.675h0.656
		c-0.025,0.207-0.045,0.423-0.045,0.675v0.918h0.945c0.451-0.504,0.676-0.819,0.955-1.351l0.549,0.279
		c-0.387,0.513-0.604,0.774-0.883,1.071h1.027c0.521,0,0.746-0.009,0.998-0.036c-0.025,0.234-0.035,0.459-0.035,0.819v0.522
		c0,0.18,0.01,0.324,0.035,0.504h-0.594v-1.323h-6.346v1.323h-0.596c0.027-0.216,0.037-0.387,0.037-0.549v-0.576
		c0-0.288-0.01-0.495-0.037-0.72c0.234,0.027,0.479,0.036,0.945,0.036h0.928c-0.225-0.387-0.459-0.675-0.846-1.063l0.504-0.225
		c0.496,0.559,0.621,0.729,0.945,1.288h0.9V17.889z M28.051,21.913h3.781v-1.386h-3.781V21.913z"/>
</g>
<g>
	<path d="M2.105,1.877c0,0.306,0.006,0.474,0.023,0.647C1.938,2.506,1.775,2.5,1.463,2.5H0.57v1.697
		c0,0.228,0.064,0.258,0.551,0.258c0.402,0,0.617-0.036,0.701-0.108C1.9,4.275,1.949,4.03,1.949,3.7V3.61c0-0.042,0-0.078,0-0.102
		C2.086,3.592,2.195,3.64,2.326,3.682C2.297,4.198,2.236,4.479,2.129,4.6C1.99,4.755,1.703,4.815,1.115,4.815
		c-0.779,0-0.918-0.084-0.918-0.546V2.8c0-0.33-0.006-0.498-0.029-0.666c0.18,0.018,0.348,0.024,0.611,0.024h0.959V0.81h-1
		c-0.252,0-0.42,0.006-0.6,0.03V0.426c0.154,0.024,0.336,0.036,0.6,0.036h0.779c0.252,0,0.42-0.006,0.611-0.03
		C2.111,0.624,2.105,0.779,2.105,1.038V1.877z M4.785,1.457C4.75,1.937,4.701,2.225,4.6,2.59C4.455,3.094,4.252,3.526,3.957,3.94
		c0.205,0.252,0.385,0.426,0.672,0.647c0.289,0.234,0.457,0.336,0.863,0.528C5.367,5.259,5.313,5.343,5.24,5.493
		c-0.605-0.33-1.145-0.768-1.521-1.248C3.531,4.467,3.322,4.659,3.053,4.869c-0.348,0.27-0.617,0.426-1.092,0.648
		C1.895,5.355,1.834,5.265,1.727,5.151c0.701-0.251,1.309-0.659,1.77-1.205C3.119,3.37,2.932,2.92,2.807,2.231
		C2.609,2.59,2.52,2.734,2.326,2.986C2.23,2.884,2.152,2.824,2.021,2.752c0.484-0.57,0.826-1.289,1.031-2.165
		C3.105,0.336,3.137,0.174,3.148,0l0.42,0.084C3.545,0.15,3.525,0.222,3.473,0.45c-0.055,0.21-0.121,0.45-0.186,0.666h1.576
		c0.27,0,0.432-0.012,0.57-0.036v0.408c-0.15-0.024-0.283-0.03-0.553-0.03H4.785z M3.166,1.457C3.119,1.589,3.094,1.643,3.041,1.769
		c0.113,0.755,0.311,1.277,0.695,1.859c0.234-0.36,0.389-0.702,0.51-1.151c0.09-0.342,0.119-0.534,0.162-1.02H3.166z"/>
	<path d="M6.977,0.75c-0.275,0.066-0.389,0.09-0.725,0.15c-0.043-0.12-0.096-0.216-0.174-0.324c0.623-0.084,1.086-0.204,1.498-0.378
		C7.68,0.156,7.738,0.12,7.842,0.048L8.08,0.366C7.631,0.558,7.631,0.558,7.332,0.647v0.972h0.27c0.174,0,0.281-0.006,0.395-0.024
		v0.372c-0.078-0.012-0.197-0.018-0.4-0.018H7.344c0.148,0.42,0.371,0.78,0.707,1.146c-0.078,0.084-0.145,0.174-0.217,0.3
		c-0.258-0.336-0.365-0.54-0.533-1.001c0.025,0.426,0.031,0.648,0.031,0.894v1.541c0,0.354,0.006,0.504,0.035,0.684H6.941
		c0.029-0.192,0.035-0.348,0.035-0.684V3.442c0-0.33,0.014-0.666,0.031-0.978C6.791,3.202,6.516,3.73,6.102,4.209
		C6.023,4.048,5.988,3.994,5.881,3.874C6.324,3.412,6.713,2.705,6.93,1.949H6.498c-0.186,0-0.336,0.012-0.475,0.03v-0.39
		c0.145,0.018,0.289,0.03,0.486,0.03h0.467V0.75z M10.73,1.091c0.301,0,0.463-0.012,0.625-0.036v0.402
		c-0.191-0.024-0.379-0.036-0.617-0.036H9.922v3.514c0,0.354-0.139,0.468-0.576,0.468c-0.162,0-0.365-0.012-0.641-0.03
		C8.699,5.211,8.68,5.133,8.633,4.977c0.246,0.042,0.492,0.066,0.678,0.066c0.197,0,0.234-0.024,0.234-0.162v-3.46H8.789
		c-0.193,0.39-0.367,0.659-0.594,0.941C8.094,2.255,8.051,2.225,7.9,2.135C8.242,1.763,8.52,1.271,8.717,0.696
		c0.078-0.234,0.137-0.468,0.156-0.648L9.279,0.15C9.244,0.228,9.215,0.312,9.184,0.42C9.111,0.647,9.027,0.881,8.938,1.091H10.73z
		 M9.004,2.273C8.914,2.98,8.867,3.22,8.74,3.646C8.609,4.096,8.488,4.39,8.297,4.731c-0.121-0.102-0.186-0.15-0.336-0.222
		c0.391-0.629,0.6-1.337,0.678-2.285L9.004,2.273z M10.814,2.237c0.133,1.073,0.307,1.667,0.666,2.272
		c-0.125,0.078-0.221,0.15-0.324,0.258c-0.383-0.755-0.563-1.403-0.689-2.488L10.814,2.237z"/>
	<path d="M14.975,1.751h-0.594V1.157h0.594V1.751z M14.381,4.396V3.802h0.594v0.594H14.381z"/>
	<path d="M18.648,0.432c0.154,0.024,0.27,0.03,0.496,0.03h0.379c0.203,0,0.299-0.006,0.498-0.03
		c-0.037,0.366-0.055,0.672-0.055,0.996v2.915c0,0.282,0.012,0.456,0.049,0.677h-0.57c0.035-0.21,0.047-0.402,0.047-0.677V0.87
		H19.17c-0.193,0-0.348,0.012-0.521,0.036V0.432z"/>
	<path d="M24.82,2.89c0.301,0.222,0.449,0.54,0.449,0.942c0,0.821-0.6,1.283-1.654,1.283c-1.098,0-1.703-0.456-1.703-1.283
		c0-0.432,0.174-0.762,0.533-0.996c0.188-0.12,0.318-0.168,0.541-0.204c-0.527-0.096-0.869-0.521-0.869-1.079
		c0-0.726,0.568-1.188,1.475-1.188c0.918,0,1.48,0.45,1.48,1.188c0,0.558-0.336,0.978-0.869,1.079
		C24.455,2.668,24.623,2.74,24.82,2.89z M22.404,3.802c0,0.57,0.438,0.906,1.182,0.906c0.42,0,0.762-0.108,0.965-0.312
		c0.15-0.138,0.229-0.348,0.229-0.594c0-0.587-0.451-0.941-1.188-0.941C22.854,2.86,22.404,3.22,22.404,3.802z M22.584,1.589
		c0,0.534,0.383,0.858,1.014,0.858c0.629,0,1.008-0.324,1.008-0.858c0-0.503-0.396-0.821-1.014-0.821
		C22.98,0.768,22.584,1.091,22.584,1.589z"/>
	<path d="M26.449,4.024c0.07,0.198,0.119,0.282,0.215,0.384c0.168,0.186,0.426,0.282,0.756,0.282c0.432,0,0.744-0.174,0.965-0.552
		c0.115-0.192,0.211-0.486,0.258-0.768c0.025-0.15,0.043-0.396,0.055-0.702c-0.084,0.162-0.133,0.222-0.24,0.336
		c-0.305,0.288-0.641,0.42-1.092,0.42c-0.443,0-0.82-0.138-1.078-0.396s-0.408-0.654-0.408-1.08c0-0.953,0.641-1.577,1.625-1.577
		c0.672,0,1.223,0.384,1.451,1.008c0.119,0.324,0.174,0.731,0.174,1.247c0,0.833-0.174,1.511-0.498,1.913
		c-0.299,0.378-0.695,0.558-1.246,0.558c-0.414,0-0.75-0.108-1.008-0.324c-0.168-0.138-0.264-0.276-0.42-0.594L26.449,4.024z
		 M28.584,1.913c0-0.648-0.48-1.134-1.123-1.134c-0.395,0-0.754,0.192-0.953,0.51c-0.096,0.156-0.156,0.396-0.156,0.63
		c0,0.678,0.414,1.104,1.068,1.104C28.086,3.022,28.584,2.548,28.584,1.913z"/>
	<path d="M30.475,0.432c0.156,0.024,0.27,0.03,0.498,0.03h0.377c0.205,0,0.301-0.006,0.498-0.03
		c-0.035,0.366-0.053,0.672-0.053,0.996v2.915c0,0.282,0.012,0.456,0.047,0.677h-0.57c0.037-0.21,0.049-0.402,0.049-0.677V0.87
		h-0.324c-0.191,0-0.348,0.012-0.521,0.036V0.432z"/>
	<path d="M36.344,2.429c0-0.132-0.008-0.234-0.02-0.354c0.127,0.012,0.258,0.018,0.426,0.018h1.303V1.115h-1.41
		c-0.307,0.51-0.594,0.864-0.996,1.224c-0.096-0.138-0.154-0.198-0.287-0.288c0.594-0.504,0.918-0.941,1.199-1.613
		c0.078-0.174,0.119-0.312,0.15-0.438l0.426,0.12c-0.023,0.048-0.043,0.09-0.078,0.162l-0.229,0.486h2.975
		c0.264,0,0.391-0.006,0.539-0.03v0.408c-0.148-0.024-0.293-0.03-0.539-0.03h-1.355v0.978h1.086c0.246,0,0.377-0.006,0.533-0.03
		v0.396c-0.156-0.018-0.299-0.024-0.527-0.024h-1.092V3.61h1.512c0.27,0,0.438-0.012,0.605-0.036v0.432
		c-0.174-0.024-0.359-0.036-0.605-0.036h-1.512v0.99c0,0.258,0.012,0.401,0.043,0.558h-0.475c0.031-0.15,0.037-0.282,0.037-0.558
		V3.97h-2.166c-0.246,0-0.432,0.012-0.605,0.036V3.574c0.174,0.024,0.342,0.036,0.605,0.036h0.457V2.429z M38.053,3.61V2.435h-1.32
		V3.61H38.053z"/>
	<path d="M1.584,11.514c-0.252,0-0.414,0.006-0.541,0.024c0.006-0.084,0.012-0.132,0.012-0.168v-0.12l0.006-0.216v-0.653
		c0-0.198-0.006-0.312-0.018-0.462c0.139,0.018,0.318,0.024,0.51,0.024h2.285c0.229,0,0.377-0.006,0.492-0.024
		c-0.012,0.126-0.018,0.24-0.018,0.474v0.642c0,0.312,0.006,0.396,0.018,0.504c-0.174-0.018-0.373-0.024-0.588-0.024H3.352v1.331
		c0,0.174,0.055,0.192,0.611,0.192c0.666,0,0.799-0.024,0.883-0.15c0.078-0.114,0.113-0.342,0.137-0.773
		c0.15,0.084,0.246,0.126,0.379,0.162c-0.072,0.618-0.145,0.84-0.313,0.972c-0.145,0.108-0.402,0.144-1.066,0.144
		c-0.852,0-1.008-0.066-1.008-0.42v-1.457H2.291c-0.037,0.306-0.066,0.456-0.139,0.642c-0.186,0.492-0.582,0.875-1.156,1.121
		c-0.229,0.096-0.408,0.15-0.787,0.234C0.15,13.361,0.102,13.277,0,13.133c0.672-0.102,1.115-0.27,1.434-0.54
		c0.299-0.258,0.426-0.552,0.473-1.079H1.584z M2.436,8.51c0-0.162-0.014-0.312-0.031-0.45h0.438
		C2.824,8.198,2.813,8.342,2.813,8.51v0.612h0.629c0.301-0.336,0.451-0.546,0.637-0.9l0.365,0.186
		C4.186,8.75,4.041,8.923,3.855,9.122h0.684c0.348,0,0.498-0.006,0.666-0.024C5.188,9.253,5.182,9.403,5.182,9.643v0.348
		c0,0.12,0.006,0.216,0.023,0.336H4.809V9.445H0.582v0.881H0.186c0.018-0.144,0.023-0.258,0.023-0.366V9.577
		c0-0.192-0.006-0.33-0.023-0.48c0.156,0.018,0.318,0.024,0.631,0.024h0.617c-0.15-0.258-0.307-0.45-0.564-0.708l0.336-0.15
		c0.33,0.372,0.414,0.486,0.629,0.858h0.602V8.51z M1.428,11.19h2.518v-0.924H1.428V11.19z"/>
	<path d="M7.77,8.888c-0.15-0.27-0.289-0.462-0.535-0.726l0.355-0.15c0.264,0.324,0.4,0.522,0.586,0.876h0.967
		C9.418,8.545,9.531,8.372,9.73,7.994l0.383,0.144c-0.234,0.354-0.365,0.534-0.557,0.75h1.168c0.246,0,0.439-0.012,0.6-0.036v0.414
		c-0.174-0.024-0.342-0.036-0.6-0.036H8.818c-0.09,0.258-0.15,0.408-0.258,0.605h1.463c0.186,0,0.313-0.006,0.553-0.024
		c-0.02,0.168-0.025,0.294-0.025,0.474v2.645c0,0.222,0.012,0.39,0.037,0.564h-0.414v-0.342H7.17v0.342H6.756
		c0.023-0.174,0.035-0.354,0.035-0.564v-2.645c0-0.168-0.006-0.3-0.023-0.474c0.246,0.018,0.365,0.024,0.559,0.024h0.826
		C8.273,9.631,8.344,9.451,8.41,9.229H6.605c-0.258,0-0.42,0.012-0.6,0.036V8.852c0.162,0.024,0.359,0.036,0.6,0.036H7.77z
		 M7.17,10.165v0.642h3.004v-0.642H7.17z M7.17,11.136v0.642h3.004v-0.642H7.17z M7.17,12.108v0.708h3.004v-0.708H7.17z"/>
	<path d="M14.975,9.751h-0.594V9.157h0.594V9.751z M14.381,12.396v-0.594h0.594v0.594H14.381z"/>
	<path d="M18.918,8.678c0-0.342-0.006-0.474-0.031-0.618h0.426c-0.023,0.15-0.029,0.306-0.029,0.611v0.612h0.33
		c0.174,0,0.281-0.006,0.389-0.024v0.366c-0.119-0.012-0.232-0.018-0.371-0.018h-0.324c0.061,0.186,0.145,0.372,0.264,0.6
		c0.139,0.252,0.24,0.396,0.445,0.624c-0.109,0.138-0.15,0.21-0.211,0.342c-0.252-0.366-0.377-0.624-0.545-1.127
		c0.012,0.3,0.023,0.779,0.023,0.989v1.805c0,0.33,0.012,0.521,0.035,0.695h-0.438c0.031-0.167,0.043-0.384,0.043-0.695v-1.703
		c0-0.126,0.012-0.45,0.035-0.972c-0.15,0.582-0.215,0.774-0.371,1.122c-0.133,0.294-0.223,0.45-0.42,0.731
		c-0.072-0.138-0.133-0.24-0.234-0.348c0.414-0.504,0.732-1.206,0.936-2.063h-0.371c-0.174,0-0.324,0.006-0.432,0.024V9.259
		c0.096,0.018,0.232,0.024,0.432,0.024h0.42V8.678z M22.365,9.823c0.246,0,0.396-0.006,0.498-0.03l0.191,0.216
		c-0.023,0.066-0.029,0.072-0.09,0.27c-0.246,0.773-0.479,1.253-0.869,1.787c0.383,0.461,0.707,0.719,1.332,1.049
		c-0.115,0.126-0.168,0.198-0.258,0.36c-0.637-0.396-0.93-0.648-1.303-1.116c-0.438,0.492-0.791,0.78-1.414,1.116
		c-0.078-0.132-0.139-0.21-0.258-0.318c0.611-0.3,1.025-0.612,1.445-1.104c-0.391-0.588-0.594-1.122-0.732-1.895h-0.27
		c-0.029,0.833-0.09,1.374-0.191,1.835c-0.133,0.588-0.324,1.043-0.637,1.505c-0.102-0.102-0.186-0.162-0.342-0.246
		c0.275-0.366,0.42-0.653,0.553-1.109c0.186-0.636,0.264-1.523,0.264-2.956c0-0.438-0.006-0.582-0.025-0.798
		c0.211,0.024,0.402,0.03,0.637,0.03h1.859c0.246,0,0.42-0.012,0.588-0.036v0.414c-0.162-0.024-0.313-0.03-0.576-0.03h-2.111v0.516
		c0,0.234,0,0.354-0.006,0.54H22.365z M21.273,10.159c0.115,0.666,0.271,1.085,0.6,1.595c0.348-0.492,0.541-0.912,0.732-1.595
		H21.273z"/>
	<path d="M24.773,8.689c0-0.246-0.006-0.384-0.035-0.569h0.443c-0.031,0.18-0.037,0.317-0.037,0.563v1.038h0.223
		c0.252,0,0.371-0.006,0.492-0.036v0.396c-0.156-0.018-0.289-0.024-0.492-0.024h-0.223v1.769c0.283-0.126,0.391-0.186,0.709-0.366
		l0.023,0.39c-0.551,0.294-0.779,0.396-1.541,0.696c-0.15,0.06-0.211,0.09-0.287,0.126l-0.109-0.408
		c0.199-0.036,0.408-0.108,0.834-0.282v-1.925h-0.252c-0.252,0-0.348,0.006-0.516,0.036V9.685c0.15,0.03,0.264,0.036,0.516,0.036
		h0.252V8.689z M29.396,13.253c-0.197-0.03-0.414-0.042-0.629-0.042H26.23c-0.215,0-0.426,0.012-0.623,0.042v-0.432
		c0.145,0.024,0.371,0.036,0.629,0.036h2.531c0.258,0,0.479-0.012,0.629-0.036V13.253z M29.344,8.744
		c-0.162-0.024-0.391-0.036-0.631-0.036h-2.285c-0.232,0-0.467,0.012-0.623,0.036V8.318c0.191,0.03,0.391,0.042,0.631,0.042h2.277
		c0.24,0,0.438-0.012,0.631-0.042V8.744z M26.711,12.096c-0.336,0-0.457,0.006-0.582,0.024c0.018-0.132,0.023-0.24,0.023-0.563
		V9.889c0-0.324-0.006-0.42-0.023-0.558c0.18,0.018,0.365,0.03,0.617,0.03h1.59c0.281,0,0.449-0.006,0.605-0.03
		c-0.018,0.126-0.023,0.27-0.023,0.606v1.541c0,0.402,0.006,0.498,0.023,0.636c-0.119-0.012-0.119-0.012-0.559-0.018H26.711z
		 M26.525,10.537h2.014v-0.84h-2.014V10.537z M26.525,11.754h2.014v-0.888h-2.014V11.754z"/>
	<path d="M30.018,10.458c0.145,0.024,0.24,0.03,0.469,0.03h0.311c0.174,0,0.318-0.012,0.463-0.03
		c-0.025,0.186-0.031,0.33-0.031,0.636v1.181c0.15,0.306,0.277,0.432,0.523,0.54c0.293,0.132,0.646,0.174,1.359,0.174
		c1.098,0,1.818-0.036,2.412-0.12c-0.096,0.222-0.102,0.252-0.139,0.444c-0.654,0.03-1.295,0.042-2.027,0.042
		c-1.006,0-1.355-0.042-1.709-0.204c-0.246-0.12-0.443-0.293-0.623-0.575c-0.281,0.282-0.377,0.366-0.727,0.635
		c-0.07,0.054-0.119,0.096-0.215,0.18l-0.197-0.39c0.258-0.12,0.635-0.401,0.971-0.731v-1.445h-0.396
		c-0.203,0-0.305,0.006-0.443,0.03V10.458z M30.467,8.216c0.42,0.384,0.643,0.624,0.979,1.056l-0.313,0.264
		c-0.348-0.486-0.527-0.696-0.941-1.073L30.467,8.216z M32.381,10.555v1.457c0.432-0.12,0.646-0.186,1.049-0.336l0.012,0.342
		c-0.605,0.228-0.785,0.288-1.51,0.486c-0.133,0.036-0.145,0.036-0.246,0.078l-0.115-0.39c0.15-0.018,0.223-0.03,0.445-0.084V8.833
		c0-0.216-0.006-0.396-0.025-0.54c0.133,0.018,0.283,0.024,0.51,0.024h1.799c0.24,0,0.379-0.006,0.523-0.024
		c-0.02,0.132-0.031,0.312-0.031,0.552v1.199c0,0.306,0.006,0.408,0.018,0.528c-0.119-0.012-0.264-0.018-0.455-0.018h-0.977
		c0.125,0.342,0.244,0.54,0.473,0.797c0.553-0.366,0.869-0.618,1.037-0.839l0.301,0.27c-0.061,0.042-0.061,0.042-0.168,0.132
		c-0.191,0.162-0.564,0.438-0.918,0.671c0.354,0.3,0.695,0.474,1.295,0.66c-0.102,0.144-0.131,0.204-0.209,0.378
		c-0.756-0.3-1.211-0.594-1.602-1.043c-0.264-0.306-0.42-0.588-0.576-1.025H32.381z M34.432,9.253V8.647h-2.051v0.606H34.432z
		 M32.381,10.231h2.051V9.583h-2.051V10.231z"/>
	<path d="M38.662,11.91v0.348c-1.002,0.318-1.271,0.396-2.363,0.677c-0.125,0.03-0.18,0.048-0.305,0.09l-0.096-0.42
		c0.143-0.012,0.227-0.024,0.484-0.078V9.085c0-0.288-0.006-0.504-0.023-0.66c0.139,0.018,0.27,0.024,0.48,0.024h0.994
		c0.211,0,0.33-0.006,0.475-0.024c-0.018,0.144-0.023,0.36-0.023,0.66v2.944L38.662,11.91z M37.918,9.721V8.797h-1.162v0.924H37.918
		z M37.918,10.968v-0.917h-1.162v0.917H37.918z M36.756,12.443c0.395-0.096,0.75-0.192,1.162-0.306v-0.839h-1.162V12.443z
		 M40.678,9.445c0.24,0,0.389-0.006,0.568-0.03c-0.018,0.12-0.018,0.168-0.035,0.774c-0.029,1.019-0.09,1.715-0.203,2.338
		c-0.061,0.348-0.133,0.534-0.234,0.642c-0.102,0.096-0.24,0.132-0.553,0.132c-0.197,0-0.197,0-0.676-0.03
		c-0.014-0.15-0.031-0.258-0.066-0.402c0.311,0.048,0.545,0.066,0.756,0.066c0.232,0,0.293-0.048,0.359-0.293
		c0.09-0.336,0.168-0.93,0.203-1.589c0.018-0.342,0.025-0.521,0.043-1.247h-0.996c-0.049,0.684-0.133,1.211-0.27,1.673
		c-0.133,0.438-0.313,0.815-0.564,1.169c-0.221,0.324-0.395,0.503-0.803,0.839c-0.102-0.126-0.174-0.192-0.318-0.294
		c0.48-0.348,0.695-0.576,0.93-0.953c0.371-0.612,0.564-1.319,0.643-2.435h-0.336c-0.24,0-0.439,0.012-0.619,0.036V9.409
		c0.18,0.024,0.355,0.036,0.631,0.036h0.348c0.006-0.246,0.012-0.456,0.012-0.696c0-0.36-0.006-0.474-0.035-0.629h0.455
		c-0.023,0.15-0.029,0.24-0.037,0.467c0,0.336-0.006,0.576-0.018,0.858H40.678z"/>
</g>
<g>
	<path d="M67.625,2.692c0.113,0.012,0.234,0.018,0.359,0.018c0.031,0,0.049,0,0.145,0c0.186-0.24,0.264-0.348,0.402-0.546
		c-0.348-0.419-0.523-0.605-0.871-0.917l0.229-0.276c0.113,0.114,0.156,0.162,0.229,0.234c0.316-0.492,0.521-0.905,0.576-1.175
		l0.377,0.156c-0.055,0.072-0.072,0.108-0.127,0.216c-0.209,0.426-0.334,0.636-0.605,1.037c0.188,0.204,0.188,0.204,0.385,0.438
		c0.449-0.708,0.492-0.786,0.582-1.038l0.354,0.21c-0.102,0.138-0.102,0.138-0.396,0.588c-0.203,0.318-0.498,0.737-0.75,1.055
		c0.367-0.012,0.637-0.036,0.936-0.072c-0.078-0.198-0.119-0.282-0.232-0.486l0.281-0.138c0.209,0.384,0.313,0.611,0.48,1.091
		l-0.313,0.144c-0.043-0.15-0.061-0.204-0.096-0.312c-0.199,0.03-0.258,0.036-0.57,0.06v1.919c0,0.264,0.012,0.419,0.037,0.6h-0.426
		c0.023-0.18,0.035-0.348,0.035-0.6V3.01c-0.258,0.018-0.455,0.03-0.6,0.036c-0.186,0.012-0.258,0.018-0.365,0.03L67.625,2.692z
		 M68.332,3.484c-0.09,0.828-0.162,1.193-0.348,1.679l-0.33-0.162c0.211-0.492,0.277-0.809,0.336-1.595L68.332,3.484z M69.592,3.388
		c0.113,0.402,0.186,0.755,0.27,1.325l-0.33,0.096c-0.041-0.534-0.102-0.881-0.232-1.331L69.592,3.388z M70.479,1.331
		c-0.25,0-0.432,0.012-0.605,0.036V0.959c0.168,0.024,0.342,0.036,0.605,0.036h0.732V0.582c0-0.192-0.012-0.33-0.035-0.486h0.438
		c-0.025,0.15-0.037,0.288-0.037,0.498v0.402h0.863c0.266,0,0.439-0.012,0.607-0.036v0.408c-0.168-0.024-0.373-0.036-0.607-0.036
		h-0.863v0.93h0.703c0.264,0,0.443-0.012,0.605-0.036v0.408c-0.174-0.024-0.354-0.036-0.6-0.036h-1.619
		c-0.229,0-0.432,0.012-0.6,0.036V2.225c0.168,0.024,0.342,0.036,0.6,0.036h0.545v-0.93H70.479z M70.545,5.481h-0.4
		c0.023-0.138,0.029-0.3,0.029-0.57V3.742c0-0.251-0.006-0.377-0.023-0.545c0.131,0.018,0.275,0.024,0.461,0.024h1.619
		c0.223,0,0.354-0.006,0.48-0.024c-0.02,0.144-0.025,0.294-0.025,0.558v1.146c0,0.228,0.012,0.444,0.031,0.582h-0.408V5.145h-1.764
		V5.481z M70.545,4.809h1.764V3.562h-1.764V4.809z"/>
	<path d="M78.584,2.051c-0.018,0.03-0.078,0.162-0.18,0.402c-0.342,0.797-0.455,1.013-0.797,1.463
		c0.186,0.377,0.336,0.569,0.605,0.797c0.107,0.084,0.203,0.138,0.258,0.138c0.096,0,0.197-0.312,0.27-0.863
		c0.125,0.126,0.215,0.198,0.324,0.264c-0.078,0.396-0.127,0.558-0.217,0.732c-0.096,0.192-0.215,0.288-0.371,0.288
		s-0.396-0.138-0.631-0.372c-0.18-0.174-0.342-0.396-0.496-0.672c-0.492,0.522-0.973,0.87-1.662,1.193
		c-0.096-0.144-0.156-0.204-0.293-0.306c0.75-0.3,1.295-0.678,1.781-1.241c-0.277-0.642-0.451-1.493-0.51-2.495h-2.111
		c0,0.521-0.006,0.726-0.012,0.977h1.145c0.217,0,0.318-0.006,0.449-0.024c-0.018,0.126-0.018,0.126-0.041,0.672
		C76.061,3.682,76,4.12,75.916,4.293c-0.09,0.186-0.223,0.24-0.559,0.24c-0.215,0-0.359-0.012-0.629-0.054
		c-0.012-0.156-0.023-0.246-0.072-0.39c0.33,0.072,0.51,0.096,0.707,0.096c0.199,0,0.246-0.054,0.289-0.318
		c0.041-0.252,0.072-0.702,0.078-1.175h-1.199c-0.037,0.768-0.084,1.211-0.193,1.655c-0.102,0.426-0.209,0.684-0.455,1.049
		c-0.107-0.126-0.191-0.198-0.318-0.27c0.223-0.312,0.336-0.563,0.42-0.899c0.133-0.54,0.199-1.349,0.199-2.519
		c0-0.402-0.008-0.498-0.037-0.702c0.211,0.024,0.426,0.03,0.732,0.03h1.768c-0.023-0.738-0.029-0.834-0.059-0.972h0.461
		c-0.023,0.12-0.029,0.264-0.029,0.492c0,0.108,0,0.198,0.012,0.48h1.307c0.336,0,0.492-0.006,0.643-0.036v0.408
		c-0.186-0.024-0.354-0.03-0.672-0.03h-1.266c0.043,0.857,0.174,1.583,0.396,2.159c0.359-0.516,0.672-1.211,0.736-1.649
		L78.584,2.051z M78.254,0.941c-0.336-0.306-0.461-0.402-0.863-0.636l0.258-0.21c0.396,0.228,0.469,0.276,0.857,0.594L78.254,0.941z
		"/>
	<path d="M82.641,1.751h-0.594V1.157h0.594V1.751z M82.047,4.396V3.802h0.594v0.594H82.047z"/>
	<path d="M86.314,0.432c0.156,0.024,0.27,0.03,0.498,0.03h0.377c0.205,0,0.301-0.006,0.498-0.03
		c-0.035,0.366-0.053,0.672-0.053,0.996v2.915c0,0.282,0.012,0.456,0.047,0.677h-0.57c0.037-0.21,0.049-0.402,0.049-0.677V0.87
		h-0.324c-0.191,0-0.348,0.012-0.521,0.036V0.432z"/>
	<path d="M92.488,2.89c0.299,0.222,0.449,0.54,0.449,0.942c0,0.821-0.6,1.283-1.654,1.283c-1.098,0-1.703-0.456-1.703-1.283
		c0-0.432,0.174-0.762,0.533-0.996c0.186-0.12,0.318-0.168,0.539-0.204c-0.527-0.096-0.869-0.521-0.869-1.079
		c0-0.726,0.57-1.188,1.475-1.188c0.918,0,1.482,0.45,1.482,1.188c0,0.558-0.336,0.978-0.871,1.079
		C92.121,2.668,92.289,2.74,92.488,2.89z M90.07,3.802c0,0.57,0.439,0.906,1.182,0.906c0.42,0,0.762-0.108,0.967-0.312
		c0.148-0.138,0.227-0.348,0.227-0.594c0-0.587-0.449-0.941-1.188-0.941C90.521,2.86,90.07,3.22,90.07,3.802z M90.252,1.589
		c0,0.534,0.383,0.858,1.012,0.858c0.631,0,1.008-0.324,1.008-0.858c0-0.503-0.395-0.821-1.014-0.821
		C90.646,0.768,90.252,1.091,90.252,1.589z"/>
	<path d="M94.115,4.024c0.072,0.198,0.119,0.282,0.217,0.384c0.168,0.186,0.426,0.282,0.754,0.282c0.434,0,0.744-0.174,0.967-0.552
		c0.113-0.192,0.209-0.486,0.258-0.768c0.023-0.15,0.041-0.396,0.053-0.702c-0.084,0.162-0.131,0.222-0.238,0.336
		c-0.307,0.288-0.643,0.42-1.092,0.42c-0.443,0-0.822-0.138-1.08-0.396s-0.408-0.654-0.408-1.08c0-0.953,0.643-1.577,1.625-1.577
		c0.672,0,1.225,0.384,1.451,1.008c0.121,0.324,0.176,0.731,0.176,1.247c0,0.833-0.176,1.511-0.498,1.913
		c-0.301,0.378-0.695,0.558-1.248,0.558c-0.414,0-0.75-0.108-1.008-0.324c-0.168-0.138-0.264-0.276-0.42-0.594L94.115,4.024z
		 M96.25,1.913c0-0.648-0.48-1.134-1.121-1.134c-0.396,0-0.756,0.192-0.953,0.51c-0.096,0.156-0.156,0.396-0.156,0.63
		c0,0.678,0.414,1.104,1.066,1.104C95.752,3.022,96.25,2.548,96.25,1.913z"/>
	<path d="M100.188,1.457c-0.078-0.192-0.121-0.276-0.211-0.377c-0.18-0.198-0.414-0.3-0.713-0.3c-0.469,0-0.822,0.252-1.037,0.744
		c-0.156,0.36-0.211,0.636-0.252,1.29c0.107-0.186,0.168-0.27,0.299-0.384c0.281-0.252,0.6-0.366,1.014-0.366
		c0.93,0,1.506,0.576,1.506,1.499c0,0.93-0.625,1.541-1.572,1.541c-0.426,0-0.826-0.138-1.084-0.377
		c-0.391-0.36-0.607-1.032-0.607-1.883c0-0.75,0.168-1.421,0.457-1.811c0.316-0.432,0.742-0.653,1.266-0.653
		c0.359,0,0.684,0.09,0.91,0.251c0.211,0.15,0.33,0.312,0.504,0.672L100.188,1.457z M99.221,2.464c-0.299,0-0.617,0.132-0.826,0.342
		c-0.199,0.198-0.301,0.461-0.301,0.761c0,0.648,0.486,1.127,1.133,1.127c0.391,0,0.75-0.186,0.936-0.486
		c0.096-0.156,0.156-0.401,0.156-0.635C100.318,2.866,99.922,2.464,99.221,2.464z"/>
	<path d="M104.01,2.429c0-0.132-0.006-0.234-0.018-0.354c0.125,0.012,0.258,0.018,0.426,0.018h1.301V1.115h-1.408
		c-0.307,0.51-0.594,0.864-0.996,1.224c-0.096-0.138-0.156-0.198-0.287-0.288c0.592-0.504,0.916-0.941,1.199-1.613
		c0.078-0.174,0.119-0.312,0.148-0.438l0.426,0.12c-0.023,0.048-0.041,0.09-0.078,0.162l-0.227,0.486h2.975
		c0.264,0,0.389-0.006,0.539-0.03v0.408c-0.15-0.024-0.293-0.03-0.539-0.03h-1.355v0.978h1.084c0.246,0,0.379-0.006,0.535-0.03
		v0.396c-0.156-0.018-0.301-0.024-0.527-0.024h-1.092V3.61h1.51c0.271,0,0.439-0.012,0.607-0.036v0.432
		c-0.174-0.024-0.361-0.036-0.607-0.036h-1.51v0.99c0,0.258,0.012,0.401,0.041,0.558h-0.473c0.029-0.15,0.035-0.282,0.035-0.558
		V3.97h-2.164c-0.246,0-0.432,0.012-0.605,0.036V3.574c0.174,0.024,0.342,0.036,0.605,0.036h0.455V2.429z M105.719,3.61V2.435H104.4
		V3.61H105.719z"/>
	<path d="M69.25,11.514c-0.252,0-0.414,0.006-0.539,0.024c0.006-0.084,0.012-0.132,0.012-0.168v-0.12l0.006-0.216v-0.653
		c0-0.198-0.006-0.312-0.018-0.462c0.137,0.018,0.316,0.024,0.51,0.024h2.283c0.229,0,0.379-0.006,0.492-0.024
		c-0.012,0.126-0.018,0.24-0.018,0.474v0.642c0,0.312,0.006,0.396,0.018,0.504c-0.174-0.018-0.371-0.024-0.588-0.024H71.02v1.331
		c0,0.174,0.053,0.192,0.611,0.192c0.666,0,0.797-0.024,0.881-0.15c0.078-0.114,0.115-0.342,0.139-0.773
		c0.15,0.084,0.246,0.126,0.377,0.162c-0.072,0.618-0.143,0.84-0.311,0.972c-0.145,0.108-0.402,0.144-1.068,0.144
		c-0.852,0-1.008-0.066-1.008-0.42v-1.457h-0.684c-0.035,0.306-0.064,0.456-0.137,0.642c-0.186,0.492-0.582,0.875-1.158,1.121
		c-0.229,0.096-0.408,0.15-0.785,0.234c-0.061-0.15-0.107-0.234-0.211-0.377c0.672-0.102,1.117-0.27,1.434-0.54
		c0.301-0.258,0.426-0.552,0.475-1.079H69.25z M70.102,8.51c0-0.162-0.012-0.312-0.029-0.45h0.438
		c-0.018,0.138-0.031,0.282-0.031,0.45v0.612h0.631c0.299-0.336,0.449-0.546,0.635-0.9l0.367,0.186
		c-0.258,0.342-0.402,0.516-0.588,0.714h0.684c0.348,0,0.498-0.006,0.666-0.024c-0.02,0.156-0.025,0.306-0.025,0.546v0.348
		c0,0.12,0.006,0.216,0.025,0.336h-0.396V9.445h-4.229v0.881h-0.395c0.018-0.144,0.023-0.258,0.023-0.366V9.577
		c0-0.192-0.006-0.33-0.023-0.48c0.154,0.018,0.316,0.024,0.629,0.024H69.1c-0.148-0.258-0.305-0.45-0.563-0.708l0.336-0.15
		c0.328,0.372,0.412,0.486,0.629,0.858h0.6V8.51z M69.094,11.19h2.52v-0.924h-2.52V11.19z"/>
	<path d="M75.436,8.888c-0.15-0.27-0.287-0.462-0.533-0.726l0.354-0.15c0.264,0.324,0.402,0.522,0.588,0.876h0.965
		c0.277-0.342,0.391-0.516,0.588-0.894l0.385,0.144c-0.234,0.354-0.367,0.534-0.559,0.75h1.17c0.246,0,0.438-0.012,0.6-0.036v0.414
		c-0.174-0.024-0.342-0.036-0.6-0.036h-1.906c-0.092,0.258-0.15,0.408-0.258,0.605h1.463c0.186,0,0.311-0.006,0.551-0.024
		c-0.018,0.168-0.023,0.294-0.023,0.474v2.645c0,0.222,0.012,0.39,0.035,0.564H77.84v-0.342h-3.004v0.342h-0.414
		c0.025-0.174,0.037-0.354,0.037-0.564v-2.645c0-0.168-0.006-0.3-0.025-0.474c0.246,0.018,0.367,0.024,0.559,0.024h0.828
		c0.119-0.204,0.191-0.384,0.258-0.605h-1.805c-0.258,0-0.42,0.012-0.6,0.036V8.852c0.16,0.024,0.359,0.036,0.6,0.036H75.436z
		 M74.836,10.165v0.642h3.004v-0.642H74.836z M74.836,11.136v0.642h3.004v-0.642H74.836z M74.836,12.108v0.708h3.004v-0.708H74.836z
		"/>
	<path d="M82.641,9.751h-0.594V9.157h0.594V9.751z M82.047,12.396v-0.594h0.594v0.594H82.047z"/>
	<path d="M88.521,9.919c0.203,0.768,0.521,1.397,0.977,1.931c0.439,0.51,0.941,0.876,1.625,1.169
		c-0.119,0.144-0.168,0.21-0.264,0.402c-1.342-0.713-2.086-1.589-2.518-2.962c-0.162,0.875-0.559,1.601-1.17,2.153
		c-0.377,0.336-0.707,0.546-1.295,0.815c-0.084-0.167-0.133-0.234-0.258-0.366c0.75-0.306,1.188-0.6,1.576-1.049
		c0.469-0.54,0.721-1.175,0.834-2.093h-1.631c-0.318,0-0.486,0.012-0.66,0.042V9.493c0.156,0.03,0.354,0.042,0.672,0.042h1.656
		c0.018-0.288,0.023-0.474,0.023-0.708c0-0.276-0.018-0.492-0.043-0.654h0.492c-0.029,0.198-0.041,0.33-0.041,0.624
		c-0.006,0.306-0.012,0.48-0.031,0.738h1.818c0.305,0,0.504-0.012,0.664-0.042v0.468c-0.191-0.03-0.359-0.042-0.658-0.042H88.521z"
		/>
	<path d="M91.912,8.666c0-0.18-0.006-0.324-0.018-0.456c0.096,0.012,0.223,0.018,0.402,0.018h0.725c0.188,0,0.283-0.006,0.379-0.024
		l0.203,0.24c-0.035,0.066-0.061,0.12-0.084,0.198c-0.227,0.636-0.354,0.923-0.623,1.427c0.258,0.312,0.359,0.474,0.449,0.726
		c0.078,0.21,0.121,0.45,0.121,0.678c0,0.3-0.078,0.503-0.229,0.605c-0.096,0.06-0.281,0.096-0.521,0.096
		c-0.084,0-0.133,0-0.234-0.012c-0.012-0.144-0.029-0.228-0.084-0.366c0.15,0.03,0.252,0.042,0.385,0.042
		c0.238,0,0.334-0.096,0.334-0.336c0-0.516-0.154-0.887-0.6-1.403c0.271-0.51,0.426-0.869,0.648-1.535h-0.887v4.306
		c0,0.252,0.012,0.456,0.029,0.636h-0.432c0.023-0.156,0.035-0.396,0.035-0.642V8.666z M93.766,11.19
		c-0.047,0-0.197,0.012-0.293,0.024v-0.372c0.023,0.006,0.047,0.006,0.059,0.006c0.043,0.006,0.127,0.012,0.252,0.018h2.777
		c0.229,0,0.359-0.006,0.498-0.03v0.384c-0.145-0.024-0.264-0.03-0.48-0.03h-1.367c0.133,0.401,0.229,0.587,0.443,0.875
		c0.367-0.258,0.564-0.438,0.816-0.738l0.299,0.204c-0.395,0.377-0.594,0.545-0.91,0.761c0.348,0.354,0.707,0.582,1.301,0.822
		c-0.096,0.12-0.15,0.198-0.217,0.354c-0.611-0.3-0.982-0.558-1.355-0.959c-0.342-0.359-0.551-0.743-0.736-1.319h-0.559v1.643
		c0.307-0.072,0.576-0.144,1.037-0.294l0.014,0.33c-0.66,0.21-0.66,0.21-1.932,0.504c-0.035,0.006-0.107,0.03-0.223,0.066
		l-0.084-0.402c0.193-0.006,0.367-0.03,0.822-0.126V11.19H93.766z M96.242,8.294c0.24,0,0.365-0.006,0.504-0.024
		c-0.018,0.114-0.023,0.258-0.023,0.468v1.235c0,0.21,0.006,0.318,0.023,0.468c-0.119-0.012-0.223-0.018-0.492-0.018h-2.002
		c-0.295,0-0.379,0.006-0.498,0.018c0.018-0.132,0.018-0.209,0.018-0.456V8.72c0-0.252,0-0.324-0.018-0.45
		c0.139,0.018,0.27,0.024,0.51,0.024H96.242z M94.113,9.199h0.93V8.605h-0.93V9.199z M94.113,10.117h0.93V9.499h-0.93V10.117z
		 M95.379,9.199h0.996V8.605h-0.996V9.199z M95.379,10.117h0.996V9.499h-0.996V10.117z"/>
	<path d="M100.113,8.678c-1.199,0.078-1.199,0.078-1.871,0.096c-0.041-0.15-0.066-0.21-0.15-0.336c0.139,0,0.246,0,0.307,0
		c0.936,0,2.129-0.096,2.975-0.24c0.383-0.06,0.539-0.102,0.762-0.186l0.264,0.342c-0.055,0.012-0.234,0.042-0.756,0.138
		c-0.264,0.048-0.707,0.108-1.164,0.15v0.498h1.908c0.252,0,0.432-0.012,0.605-0.036v0.39c-0.162-0.024-0.348-0.036-0.605-0.036
		h-1.908v0.408h1.41c0.203,0,0.336-0.006,0.48-0.024c-0.02,0.162-0.025,0.252-0.025,0.414v1.073c0,0.168,0.006,0.258,0.025,0.408
		c-0.156-0.018-0.283-0.024-0.486-0.024h-1.404v0.456h1.512c0.258,0,0.438-0.012,0.605-0.036v0.402
		c-0.174-0.024-0.354-0.036-0.605-0.036h-1.512v0.503h1.932c0.258,0,0.432-0.012,0.611-0.036v0.408
		c-0.18-0.024-0.354-0.036-0.611-0.036h-4.107c-0.258,0-0.432,0.012-0.605,0.036v-0.408c0.162,0.024,0.359,0.036,0.605,0.036h1.811
		v-0.503h-1.396c-0.252,0-0.432,0.012-0.6,0.036v-0.402c0.162,0.024,0.359,0.036,0.6,0.036h1.396v-0.456h-1.295
		c-0.203,0-0.324,0.006-0.48,0.024c0.02-0.168,0.025-0.24,0.025-0.408v-1.073c0-0.162-0.006-0.252-0.025-0.414
		c0.145,0.018,0.277,0.024,0.48,0.024h1.295V9.457h-1.787c-0.264,0-0.426,0.012-0.605,0.036v-0.39
		c0.156,0.024,0.359,0.036,0.605,0.036h1.787V8.678z M98.734,10.159v0.48h1.379v-0.48H98.734z M98.734,10.932v0.486h1.379v-0.486
		H98.734z M100.479,10.639h1.494v-0.48h-1.494V10.639z M100.479,11.418h1.494v-0.486h-1.494V11.418z"/>
	<path d="M104.662,12.792c0,0.276,0.006,0.498,0.031,0.702h-0.434c0.025-0.228,0.037-0.414,0.037-0.72v-2.003
		c0-0.3,0-0.402,0.018-0.726c-0.174,0.354-0.27,0.51-0.564,0.887c-0.076-0.156-0.107-0.192-0.238-0.33
		c0.449-0.51,0.756-1.031,1.006-1.721c0.139-0.372,0.193-0.569,0.229-0.845l0.408,0.125c-0.043,0.102-0.066,0.174-0.113,0.336
		c-0.098,0.318-0.211,0.6-0.379,0.972V12.792z M105.094,9.163c0.15,0.024,0.301,0.036,0.504,0.036h2.867
		c0.24,0,0.408-0.012,0.574-0.036v0.414c-0.174-0.024-0.359-0.036-0.58-0.036h-2.861c-0.191,0-0.348,0.012-0.504,0.036V9.163z
		 M105.867,13.493h-0.395c0.018-0.144,0.029-0.324,0.029-0.552v-0.714c0-0.222-0.012-0.414-0.023-0.57
		c0.125,0.018,0.293,0.024,0.498,0.024h1.979c0.264,0,0.438-0.006,0.563-0.024c-0.018,0.168-0.023,0.33-0.023,0.57v0.714
		c0,0.222,0.006,0.372,0.029,0.552h-0.4v-0.318h-2.256V13.493z M108.518,10.393c-0.143-0.024-0.293-0.03-0.516-0.03h-1.99
		c-0.223,0-0.33,0.006-0.48,0.03v-0.384c0.139,0.024,0.246,0.03,0.48,0.03h1.984c0.234,0,0.391-0.006,0.521-0.03V10.393z
		 M108.518,11.214c-0.148-0.024-0.281-0.03-0.516-0.03h-1.99c-0.223,0-0.336,0.006-0.48,0.024v-0.377
		c0.133,0.024,0.252,0.03,0.48,0.03h1.99c0.24,0,0.373-0.006,0.516-0.03V11.214z M108.518,8.738c-0.143-0.018-0.336-0.03-0.6-0.03
		h-1.857c-0.229,0-0.373,0.006-0.518,0.03V8.336c0.162,0.024,0.318,0.036,0.535,0.036h1.828c0.295,0,0.469-0.012,0.611-0.036V8.738z
		 M108.123,12.845v-0.833h-2.256v0.833H108.123z"/>
</g>
<g>
	<path d="M41.496,50.169c0.566-0.469,0.846-0.801,1.152-1.396l0.496,0.271c-0.379,0.648-0.686,1.035-1.197,1.512L41.496,50.169z
		 M43.432,44.714c-0.332,0-0.549,0.008-0.801,0.035v-0.495c0.217,0.036,0.424,0.046,0.801,0.046h1.818
		c-0.008-0.199-0.018-0.289-0.045-0.406h0.604c-0.027,0.127-0.035,0.217-0.045,0.406h1.908c0.406,0,0.604-0.01,0.828-0.046v0.495
		c-0.234-0.027-0.377-0.035-0.828-0.035h-1.908v0.468h1.756c0.486,0,0.629-0.009,0.828-0.036v0.477
		c-0.207-0.026-0.361-0.035-0.828-0.035h-1.756v0.468h2.936c0.35,0,0.602-0.019,0.836-0.054v0.531
		c-0.27-0.037-0.494-0.055-0.836-0.055h-6.258c-0.332,0-0.559,0.01-0.838,0.055v-0.531c0.234,0.045,0.424,0.054,0.838,0.054h2.809
		v-0.468h-1.639c-0.332,0-0.521,0.009-0.801,0.035v-0.477c0.252,0.027,0.451,0.036,0.801,0.036h1.639v-0.468H43.432z M45.205,43.129
		c0-0.261-0.018-0.396-0.053-0.595h0.666c-0.037,0.189-0.045,0.324-0.045,0.595v0.144h2.395c0.602,0,0.918-0.009,1.178-0.035
		c-0.025,0.216-0.035,0.324-0.035,0.621v0.27c0,0.243,0.01,0.387,0.035,0.549h-0.584v-0.945h-6.4v0.938h-0.576
		c0.025-0.154,0.035-0.279,0.035-0.531v-0.324c0-0.207-0.01-0.352-0.035-0.576c0.252,0.026,0.549,0.035,1.098,0.035h2.322V43.129z
		 M48.717,47.892c0,0.242,0.008,0.378,0.035,0.594c-0.215-0.027-0.449-0.036-0.756-0.036h-4.889c-0.307,0-0.514,0.009-0.738,0.036
		c0.027-0.216,0.037-0.378,0.037-0.604v-0.396c0-0.234-0.01-0.405-0.037-0.622c0.225,0.027,0.406,0.037,0.766,0.037h4.852
		c0.361,0,0.541-0.01,0.766-0.037c-0.027,0.217-0.035,0.361-0.035,0.613V47.892z M44.342,47.306h-1.396v0.738h1.396V47.306z
		 M44.414,48.675c-0.037,0.207-0.047,0.342-0.047,0.594v0.639c0,0.207,0.055,0.217,1.217,0.217c1.205,0,1.432-0.027,1.557-0.18
		c0.072-0.1,0.135-0.343,0.162-0.721c0.145,0.09,0.334,0.171,0.514,0.225c-0.063,0.496-0.189,0.811-0.359,0.945
		c-0.209,0.162-0.623,0.207-1.973,0.207c-1.422,0-1.656-0.072-1.656-0.494v-0.793c0-0.261-0.01-0.423-0.045-0.639H44.414z
		 M46.232,47.306h-1.369v0.738h1.369V47.306z M46.25,49.71c-0.432-0.36-0.738-0.559-1.27-0.828l0.297-0.334
		c0.541,0.262,0.801,0.406,1.314,0.766L46.25,49.71z M48.168,48.044v-0.738h-1.414v0.738H48.168z M49.104,50.528
		c-0.432-0.666-0.748-1.035-1.279-1.512l0.406-0.314c0.531,0.449,0.846,0.791,1.35,1.439L49.104,50.528z"/>
	<path d="M58.652,44.794c-0.207-0.035-0.377-0.045-0.828-0.045c-0.107,1.072-0.234,1.621-0.539,2.377
		c-0.182,0.45-0.389,0.838-0.658,1.225c0.648,0.811,1.314,1.359,2.188,1.791c-0.18,0.189-0.27,0.324-0.377,0.559
		c-0.9-0.54-1.586-1.144-2.152-1.908c-0.666,0.773-1.305,1.27-2.477,1.908c-0.125-0.225-0.232-0.36-0.404-0.504
		c0.576-0.252,0.9-0.433,1.314-0.729c0.494-0.351,0.9-0.729,1.242-1.144c-0.469-0.738-0.756-1.432-0.955-2.277
		c-0.225,0.459-0.342,0.675-0.584,1.025c-0.154-0.18-0.252-0.26-0.432-0.368c0.09-0.108,0.115-0.145,0.188-0.243
		c-0.162-0.027-0.342-0.036-0.801-0.036H53v2.431c0.529-0.18,0.783-0.27,1.457-0.54l0.01,0.558c-1.152,0.451-1.9,0.703-2.566,0.883
		c-0.701,0.189-1.135,0.307-1.332,0.378l-0.162-0.647c0.197-0.01,0.387-0.037,0.676-0.1v-3.098c0-0.404-0.01-0.621-0.045-0.891
		h0.621c-0.037,0.279-0.045,0.521-0.045,0.883v2.979c0.234-0.054,0.504-0.136,0.836-0.234v-5.087h-0.945
		c-0.287,0-0.549,0.019-0.809,0.055v-0.639c0.26,0.035,0.494,0.053,0.828,0.053h2.178c0.369,0,0.586-0.008,0.811-0.045v0.621
		c-0.244-0.035-0.414-0.045-0.748-0.045H53v1.963h0.377c0.469,0,0.639-0.009,0.811-0.035v0.576c0.441-0.693,0.766-1.514,1.008-2.584
		c0.145-0.595,0.225-1.08,0.234-1.359l0.631,0.125c-0.055,0.181-0.055,0.181-0.289,1.18c-0.045,0.172-0.072,0.279-0.117,0.441h2.143
		c0.406,0,0.658-0.018,0.855-0.055V44.794z M55.502,44.749c-0.082,0.252-0.107,0.352-0.197,0.576
		c0.215,1.026,0.504,1.783,0.98,2.539c0.566-0.909,0.863-1.873,0.973-3.115H55.502z"/>
	<path d="M61.908,47.774c-0.377,0-0.621,0.009-0.809,0.035c0.008-0.125,0.018-0.197,0.018-0.252v-0.18l0.008-0.324v-0.98
		c0-0.298-0.008-0.469-0.025-0.693c0.207,0.026,0.477,0.035,0.764,0.035h3.432c0.342,0,0.566-0.009,0.738-0.035
		c-0.02,0.188-0.027,0.359-0.027,0.711v0.963c0,0.469,0.008,0.594,0.027,0.756c-0.262-0.026-0.559-0.035-0.883-0.035h-0.586v1.998
		c0,0.262,0.082,0.289,0.918,0.289c1,0,1.197-0.037,1.324-0.226c0.117-0.171,0.17-0.513,0.207-1.161
		c0.225,0.125,0.369,0.188,0.566,0.242c-0.107,0.928-0.215,1.261-0.467,1.459c-0.217,0.162-0.604,0.216-1.604,0.216
		c-1.277,0-1.512-0.099-1.512-0.63v-2.188h-1.027c-0.053,0.459-0.098,0.684-0.207,0.963c-0.279,0.738-0.873,1.314-1.736,1.684
		c-0.342,0.145-0.613,0.225-1.18,0.352c-0.09-0.226-0.162-0.352-0.314-0.567c1.008-0.153,1.674-0.405,2.15-0.811
		c0.451-0.387,0.639-0.828,0.711-1.62H61.908z M63.188,43.264c0-0.243-0.018-0.468-0.045-0.675h0.656
		c-0.025,0.207-0.045,0.423-0.045,0.675v0.919h0.945c0.451-0.505,0.676-0.82,0.955-1.352l0.549,0.279
		c-0.387,0.514-0.604,0.775-0.883,1.072h1.027c0.521,0,0.746-0.01,0.998-0.037c-0.025,0.234-0.035,0.46-0.035,0.82v0.521
		c0,0.18,0.01,0.324,0.035,0.504h-0.594v-1.322h-6.346v1.322h-0.596c0.027-0.216,0.037-0.387,0.037-0.549v-0.576
		c0-0.288-0.01-0.495-0.037-0.721c0.234,0.027,0.479,0.037,0.945,0.037h0.928c-0.225-0.388-0.459-0.676-0.846-1.063l0.504-0.226
		c0.496,0.559,0.621,0.729,0.945,1.288h0.9V43.264z M61.676,47.288h3.781v-1.387h-3.781V47.288z"/>
</g>
<g>
	<path d="M75.309,20.77c0.207,0.036,0.369,0.045,0.693,0.045h0.469c0.262,0,0.477-0.018,0.693-0.045
		c-0.037,0.279-0.045,0.504-0.045,0.955v1.747c0.225,0.468,0.404,0.666,0.801,0.837c0.451,0.189,0.99,0.261,2.063,0.261
		c1.639,0,2.736-0.054,3.582-0.18c-0.125,0.288-0.162,0.396-0.207,0.667c-0.855,0.036-1.98,0.054-2.936,0.054
		c-1.602,0-2.133-0.063-2.664-0.315c-0.369-0.171-0.666-0.441-0.936-0.855c-0.414,0.423-0.613,0.594-1.09,0.963
		c-0.08,0.054-0.145,0.108-0.324,0.27l-0.297-0.594c0.396-0.18,0.918-0.576,1.449-1.089v-2.169h-0.594
		c-0.297,0-0.451,0.009-0.658,0.045V20.77z M75.939,17.438c0.586,0.559,0.99,1,1.441,1.594l-0.461,0.405
		c-0.512-0.729-0.783-1.054-1.404-1.63L75.939,17.438z M81.07,23.173h1.314c0.451,0,0.666-0.009,0.873-0.045v0.576
		c-0.252-0.027-0.531-0.045-0.873-0.045h-3.412c-0.297,0-0.459,0.009-0.729,0.045c0.035-0.27,0.045-0.504,0.045-0.927v-2.35
		c0.01-0.279,0.018-0.549,0.037-0.811c-0.262,0.396-0.506,0.675-0.811,0.973c-0.154-0.216-0.172-0.243-0.389-0.387
		c0.623-0.576,0.92-0.927,1.27-1.521c0.324-0.531,0.559-1.098,0.613-1.44l0.576,0.135c-0.055,0.099-0.055,0.099-0.199,0.45
		c-0.08,0.207-0.252,0.549-0.395,0.801h1.539c0.287-0.486,0.504-0.954,0.604-1.341l0.584,0.153c-0.053,0.081-0.09,0.145-0.26,0.496
		c-0.117,0.234-0.244,0.477-0.379,0.693h1.215c0.387,0,0.631-0.009,0.848-0.045v0.567c-0.234-0.027-0.461-0.036-0.803-0.036h-1.27
		v0.99h0.92c0.449,0,0.691-0.009,0.881-0.036v0.54c-0.242-0.027-0.459-0.036-0.881-0.036h-0.92v1.008h0.92
		c0.449,0,0.691-0.009,0.881-0.036v0.54c-0.242-0.027-0.459-0.036-0.881-0.036h-0.92V23.173z M80.549,19.113h-1.711v0.99h1.711
		V19.113z M80.549,20.572h-1.711v1.008h1.711V20.572z M78.838,22.048v1.125h1.711v-1.125H78.838z"/>
	<path d="M86.902,21.229c-0.549,0.855-1.297,1.575-2.215,2.151c-0.152-0.189-0.279-0.315-0.441-0.441
		c0.928-0.468,1.711-1.197,2.152-2.008L86.902,21.229z M91.367,20.022c0.406,0,0.666-0.018,0.928-0.054v0.63
		c-0.262-0.036-0.549-0.054-0.928-0.054h-2.682v2.152c0,0.432-0.262,0.603-0.91,0.603c-0.262,0-0.586-0.009-0.91-0.036
		c-0.025-0.225-0.063-0.369-0.143-0.576c0.395,0.072,0.701,0.099,1.008,0.099c0.297,0,0.369-0.036,0.369-0.189v-2.053h-2.791
		c-0.414,0-0.693,0.018-0.973,0.054v-0.63c0.279,0.036,0.549,0.054,0.973,0.054h0.594v-1.27c0-0.324-0.018-0.549-0.053-0.801h0.666
		c-0.045,0.279-0.055,0.459-0.055,0.801v1.27h1.656v-1.944c0-0.36-0.018-0.594-0.055-0.837h0.676
		c-0.045,0.243-0.053,0.45-0.053,0.819v0.261h2.006c0.369,0,0.604-0.018,0.848-0.054v0.603c-0.244-0.036-0.434-0.045-0.848-0.045
		h-2.006v1.197H91.367z M90.818,22.678c-0.648,0.648-0.703,0.702-0.91,0.874c-1.277,1.071-2.916,1.683-4.879,1.81
		c-0.08-0.252-0.135-0.369-0.287-0.604c1.529-0.009,2.943-0.396,4.086-1.107c0.693-0.432,1.217-0.918,1.459-1.368L90.818,22.678z
		 M90.252,20.923c0.557,0.666,1.322,1.26,2.168,1.674c-0.215,0.207-0.225,0.225-0.414,0.468c-0.818-0.486-1.547-1.089-2.232-1.846
		L90.252,20.923z"/>
	<path d="M95.658,22.399c-0.377,0-0.621,0.009-0.809,0.036c0.008-0.126,0.018-0.198,0.018-0.252v-0.18l0.008-0.324v-0.981
		c0-0.297-0.008-0.468-0.025-0.693c0.207,0.027,0.477,0.036,0.764,0.036h3.432c0.342,0,0.566-0.009,0.738-0.036
		c-0.02,0.189-0.027,0.36-0.027,0.711v0.963c0,0.468,0.008,0.594,0.027,0.756c-0.262-0.027-0.559-0.036-0.883-0.036h-0.586v1.999
		c0,0.261,0.082,0.288,0.918,0.288c1,0,1.197-0.036,1.324-0.225c0.117-0.171,0.17-0.513,0.207-1.162
		c0.225,0.126,0.369,0.189,0.566,0.243c-0.107,0.927-0.215,1.26-0.467,1.458c-0.217,0.162-0.604,0.216-1.604,0.216
		c-1.277,0-1.512-0.099-1.512-0.63v-2.188h-1.027c-0.053,0.459-0.098,0.684-0.207,0.963c-0.279,0.738-0.873,1.314-1.736,1.684
		c-0.342,0.144-0.613,0.225-1.18,0.351c-0.09-0.225-0.162-0.351-0.314-0.567c1.008-0.153,1.674-0.405,2.15-0.811
		c0.451-0.387,0.639-0.828,0.711-1.62H95.658z M96.938,17.889c0-0.243-0.018-0.468-0.045-0.675h0.656
		c-0.025,0.207-0.045,0.423-0.045,0.675v0.918h0.945c0.451-0.504,0.676-0.819,0.955-1.351l0.549,0.279
		c-0.387,0.513-0.604,0.774-0.883,1.071h1.027c0.521,0,0.746-0.009,0.998-0.036c-0.025,0.234-0.035,0.459-0.035,0.819v0.522
		c0,0.18,0.01,0.324,0.035,0.504h-0.594v-1.323h-6.346v1.323h-0.596c0.027-0.216,0.037-0.387,0.037-0.549v-0.576
		c0-0.288-0.01-0.495-0.037-0.72c0.234,0.027,0.479,0.036,0.945,0.036h0.928c-0.225-0.387-0.459-0.675-0.846-1.063l0.504-0.225
		c0.496,0.559,0.621,0.729,0.945,1.288h0.9V17.889z M95.426,21.913h3.781v-1.386h-3.781V21.913z"/>
</g>
<rect x="72.882" y="15.218" fill="none" stroke="#000000" stroke-width="0.75" stroke-miterlimit="10" width="31.182" height="12.334"/>
<g>
	<g>
		<polyline fill="none" stroke="#000000" stroke-width="0.75" stroke-miterlimit="10" points="20.931,27.552 20.931,32.687 
			45.896,32.687 45.896,39.69 		"/>
		<g>
			<path d="M42.297,34.565c0.174-0.111,0.406-0.061,0.518,0.115l3.082,4.84l3.082-4.84c0.111-0.176,0.344-0.227,0.518-0.115
				c0.175,0.111,0.225,0.344,0.115,0.518l-3.398,5.336c-0.068,0.107-0.188,0.174-0.316,0.174s-0.248-0.066-0.316-0.174l-3.398-5.336
				c-0.039-0.063-0.059-0.133-0.059-0.201C42.123,34.759,42.185,34.637,42.297,34.565z"/>
		</g>
	</g>
</g>
<g>
	<g>
		<polyline fill="none" stroke="#000000" stroke-width="0.75" stroke-miterlimit="10" points="88.473,27.552 88.473,32.687 
			63.507,32.687 63.507,39.69 		"/>
		<g>
			<path d="M59.907,34.565c0.174-0.111,0.406-0.061,0.518,0.115l3.082,4.84l3.082-4.84c0.111-0.176,0.344-0.227,0.518-0.115
				c0.175,0.111,0.225,0.344,0.115,0.518l-3.398,5.336c-0.068,0.107-0.188,0.174-0.316,0.174s-0.248-0.066-0.316-0.174l-3.398-5.336
				c-0.039-0.063-0.059-0.133-0.059-0.201C59.733,34.759,59.795,34.637,59.907,34.565z"/>
		</g>
	</g>
</g>
</svg>
