<?xml version="1.0" encoding="utf-8"?>
<!-- Generator: Adobe Illustrator 16.0.3, SVG Export Plug-In . SVG Version: 6.00 Build 0)  -->
<!DOCTYPE svg PUBLIC "-//W3C//DTD SVG 1.1//EN" "http://www.w3.org/Graphics/SVG/1.1/DTD/svg11.dtd">
<svg version="1.1" id="レイヤー_1" xmlns="http://www.w3.org/2000/svg" xmlns:xlink="http://www.w3.org/1999/xlink" x="0px"
	 y="0px" width="341.5px" height="136.995px" viewBox="0 0 341.5 136.995" enable-background="new 0 0 341.5 136.995"
	 xml:space="preserve">
<rect x="318.517" y="31.382" fill="none" stroke="#000000" stroke-width="0.5" stroke-miterlimit="10" width="22.733" height="76.437"/>
<rect x="295.783" y="31.382" fill="none" stroke="#000000" stroke-width="0.5" stroke-miterlimit="10" width="22.733" height="76.437"/>
<rect x="0.25" y="31.382" fill="none" stroke="#000000" stroke-width="0.5" stroke-miterlimit="10" width="295.533" height="76.437"/>
<g>
	<path d="M128.229,65.316c1.511-1.247,2.255-2.135,3.07-3.718l1.319,0.72c-1.008,1.727-1.823,2.758-3.19,4.029L128.229,65.316z
		 M133.386,50.78c-0.888,0-1.463,0.024-2.135,0.096v-1.318c0.576,0.096,1.127,0.119,2.135,0.119h4.846
		c-0.024-0.527-0.049-0.768-0.12-1.079h1.606c-0.071,0.336-0.096,0.575-0.119,1.079h5.085c1.079,0,1.606-0.023,2.206-0.119v1.318
		c-0.623-0.071-1.007-0.096-2.206-0.096h-5.085v1.247h4.678c1.295,0,1.679-0.023,2.206-0.096v1.271
		c-0.552-0.072-0.96-0.096-2.206-0.096h-4.678v1.247h7.819c0.936,0,1.607-0.048,2.231-0.144v1.415
		c-0.721-0.096-1.32-0.145-2.231-0.145h-16.671c-0.887,0-1.487,0.024-2.23,0.145v-1.415c0.623,0.119,1.127,0.144,2.23,0.144h7.484
		v-1.247h-4.366c-0.888,0-1.392,0.023-2.135,0.096v-1.271c0.672,0.072,1.2,0.096,2.135,0.096h4.366V50.78H133.386z M138.111,46.559
		c0-0.695-0.048-1.056-0.144-1.583h1.774c-0.096,0.504-0.12,0.863-0.12,1.583v0.384h6.381c1.607,0,2.446-0.023,3.143-0.096
		c-0.072,0.575-0.096,0.863-0.096,1.655v0.72c0,0.647,0.023,1.031,0.096,1.463h-1.56v-2.519h-17.055v2.494h-1.535
		c0.072-0.407,0.097-0.743,0.097-1.415v-0.863c0-0.552-0.024-0.936-0.097-1.535c0.672,0.072,1.464,0.096,2.927,0.096h6.188V46.559z
		 M147.466,59.248c0,0.647,0.024,1.007,0.096,1.583c-0.575-0.072-1.199-0.096-2.015-0.096h-13.024c-0.816,0-1.367,0.023-1.967,0.096
		c0.072-0.576,0.096-1.008,0.096-1.607v-1.056c0-0.623-0.023-1.079-0.096-1.654c0.6,0.071,1.079,0.096,2.039,0.096h12.928
		c0.96,0,1.439-0.024,2.039-0.096c-0.071,0.575-0.096,0.959-0.096,1.631V59.248z M135.809,57.688h-3.718v1.967h3.718V57.688z
		 M136.001,61.335c-0.097,0.552-0.121,0.911-0.121,1.583v1.703c0,0.552,0.145,0.575,3.238,0.575c3.215,0,3.814-0.071,4.15-0.479
		c0.191-0.264,0.359-0.911,0.432-1.919c0.384,0.24,0.887,0.456,1.367,0.6c-0.168,1.319-0.504,2.159-0.959,2.519
		c-0.553,0.432-1.656,0.552-5.254,0.552c-3.789,0-4.413-0.191-4.413-1.319v-2.11c0-0.696-0.024-1.128-0.12-1.703H136.001z
		 M140.846,57.688H137.2v1.967h3.646V57.688z M140.894,64.093c-1.151-0.959-1.967-1.486-3.382-2.206l0.792-0.888
		c1.438,0.695,2.135,1.079,3.502,2.039L140.894,64.093z M146.003,59.655v-1.967h-3.766v1.967H146.003z M148.497,66.276
		c-1.15-1.775-1.99-2.759-3.406-4.03l1.08-0.84c1.415,1.2,2.254,2.111,3.598,3.838L148.497,66.276z"/>
	<path d="M173.944,50.996c-0.551-0.096-1.007-0.12-2.206-0.12c-0.288,2.854-0.624,4.318-1.439,6.333
		c-0.479,1.199-1.031,2.23-1.751,3.262c1.727,2.159,3.502,3.622,5.829,4.773c-0.479,0.504-0.72,0.864-1.008,1.487
		c-2.398-1.439-4.222-3.046-5.732-5.085c-1.775,2.063-3.479,3.382-6.597,5.085c-0.336-0.6-0.623-0.959-1.079-1.343
		c1.535-0.672,2.398-1.151,3.502-1.943c1.319-0.936,2.398-1.942,3.31-3.046c-1.247-1.967-2.015-3.814-2.542-6.069
		c-0.6,1.224-0.911,1.8-1.56,2.735c-0.407-0.48-0.672-0.696-1.15-0.984c0.239-0.287,0.311-0.383,0.503-0.647
		c-0.432-0.071-0.911-0.096-2.135-0.096h-1.007v6.477c1.414-0.479,2.086-0.72,3.885-1.439l0.024,1.487
		c-3.07,1.199-5.062,1.871-6.836,2.351c-1.871,0.504-3.022,0.815-3.55,1.008l-0.432-1.728c0.527-0.023,1.031-0.096,1.799-0.264
		v-8.251c0-1.08-0.024-1.655-0.12-2.375h1.655c-0.096,0.743-0.12,1.392-0.12,2.351v7.939c0.624-0.144,1.343-0.359,2.23-0.623V48.718
		h-2.519c-0.768,0-1.463,0.048-2.158,0.144v-1.703c0.695,0.097,1.318,0.145,2.206,0.145h5.806c0.982,0,1.559-0.024,2.158-0.12v1.655
		c-0.647-0.097-1.104-0.12-1.991-0.12h-2.038v5.229h1.007c1.247,0,1.703-0.023,2.159-0.096v1.535
		c1.175-1.847,2.039-4.029,2.686-6.884c0.385-1.583,0.601-2.879,0.625-3.622l1.678,0.336c-0.143,0.479-0.143,0.479-0.768,3.142
		c-0.119,0.456-0.191,0.744-0.311,1.176h5.708c1.079,0,1.751-0.048,2.278-0.144V50.996z M165.55,50.876
		c-0.216,0.672-0.288,0.936-0.527,1.535c0.575,2.735,1.343,4.75,2.614,6.765c1.511-2.423,2.303-4.989,2.591-8.3H165.55z"/>
	<path d="M182.626,58.936c-1.008,0-1.655,0.024-2.159,0.097c0.024-0.336,0.048-0.528,0.048-0.672v-0.479l0.024-0.864v-2.614
		c0-0.791-0.024-1.247-0.072-1.847c0.552,0.072,1.271,0.096,2.039,0.096h9.14c0.91,0,1.511-0.023,1.967-0.096
		c-0.049,0.504-0.072,0.959-0.072,1.895v2.566c0,1.248,0.023,1.584,0.072,2.016c-0.696-0.072-1.488-0.097-2.352-0.097h-1.559v5.325
		c0,0.696,0.216,0.768,2.446,0.768c2.663,0,3.19-0.096,3.526-0.6c0.312-0.455,0.455-1.367,0.552-3.094
		c0.6,0.336,0.983,0.504,1.511,0.647c-0.287,2.471-0.576,3.358-1.247,3.886c-0.575,0.432-1.607,0.576-4.27,0.576
		c-3.406,0-4.03-0.265-4.03-1.68v-5.829h-2.734c-0.144,1.224-0.264,1.823-0.552,2.567c-0.743,1.967-2.327,3.502-4.63,4.485
		c-0.91,0.384-1.631,0.6-3.142,0.936c-0.239-0.6-0.432-0.936-0.839-1.512c2.686-0.407,4.461-1.079,5.732-2.158
		c1.199-1.032,1.703-2.207,1.895-4.318H182.626z M186.032,46.919c0-0.648-0.049-1.248-0.12-1.8h1.751
		c-0.072,0.552-0.12,1.128-0.12,1.8v2.446h2.519c1.199-1.343,1.799-2.183,2.543-3.598l1.463,0.743
		c-1.031,1.367-1.607,2.063-2.351,2.854h2.734c1.392,0,1.991-0.024,2.663-0.096c-0.072,0.623-0.096,1.223-0.096,2.183v1.392
		c0,0.479,0.023,0.863,0.096,1.343h-1.584V50.66h-16.91v3.526h-1.583c0.071-0.575,0.096-1.031,0.096-1.463v-1.535
		c0-0.768-0.024-1.319-0.096-1.919c0.624,0.071,1.271,0.096,2.519,0.096h2.471c-0.6-1.031-1.224-1.799-2.255-2.83l1.343-0.6
		c1.32,1.486,1.655,1.942,2.52,3.43h2.398V46.919z M182.002,57.641h10.075v-3.694h-10.075V57.641z"/>
</g>
<g>
	<path d="M143.446,92.957c-1.511,0-1.871,0.023-2.639,0.119c0.265-1.895,0.336-2.254,0.696-3.166c0.6-1.511,1.606-2.83,3.118-4.126
		c0.84-0.719,0.888-0.743,3.67-2.638c2.375-1.607,3.166-2.663,3.166-4.126c0-1.823-1.535-2.998-3.981-2.998
		c-1.583,0-2.759,0.527-3.478,1.559c-0.456,0.647-0.672,1.224-0.84,2.423l-2.016-0.336c0.36-1.728,0.721-2.566,1.512-3.454
		c1.08-1.224,2.711-1.847,4.821-1.847c3.622,0,5.948,1.822,5.948,4.653c0,1.223-0.479,2.375-1.414,3.406
		c-0.721,0.815-1.344,1.271-4.078,3.094c-1.895,1.271-2.662,1.943-3.454,2.95c-0.743,0.983-1.079,1.632-1.368,2.783h7.652
		c1.199,0,2.016-0.048,2.927-0.168v2.015c-0.96-0.096-1.751-0.144-2.95-0.144H143.446z"/>
	<path d="M167.192,78.708c-0.313-0.768-0.48-1.103-0.84-1.511c-0.719-0.792-1.654-1.199-2.854-1.199
		c-1.87,0-3.286,1.008-4.149,2.975c-0.623,1.438-0.84,2.542-1.008,5.157c0.432-0.744,0.672-1.08,1.199-1.535
		c1.128-1.008,2.398-1.464,4.055-1.464c3.717,0,6.02,2.303,6.02,5.997c0,3.718-2.494,6.164-6.283,6.164
		c-1.703,0-3.311-0.551-4.342-1.511c-1.56-1.439-2.424-4.126-2.424-7.532c0-2.998,0.672-5.685,1.824-7.243
		c1.271-1.728,2.974-2.615,5.061-2.615c1.439,0,2.734,0.36,3.646,1.008c0.84,0.6,1.318,1.247,2.015,2.687L167.192,78.708z
		 M163.331,82.738c-1.2,0-2.471,0.527-3.311,1.367c-0.792,0.792-1.199,1.847-1.199,3.046c0,2.591,1.942,4.51,4.533,4.51
		c1.559,0,2.998-0.743,3.742-1.942c0.383-0.624,0.623-1.607,0.623-2.543C167.72,84.346,166.137,82.738,163.331,82.738z"/>
	<path d="M174.387,91.613c-0.647-0.647-1.151-1.392-1.438-2.207c-0.601-1.679-0.912-3.573-0.912-5.541
		c0-2.542,0.552-5.133,1.391-6.524c1.152-1.942,2.999-2.95,5.373-2.95c1.775,0,3.311,0.576,4.391,1.703
		c0.671,0.672,1.15,1.415,1.438,2.207c0.601,1.655,0.911,3.574,0.911,5.564c0,2.903-0.623,5.47-1.679,6.933
		c-1.199,1.679-2.878,2.519-5.085,2.519C177.001,93.316,175.515,92.741,174.387,91.613z M175.778,77.27
		c-0.504,0.552-0.888,1.151-1.08,1.751c-0.504,1.463-0.743,3.094-0.743,4.845c0,2.231,0.479,4.582,1.128,5.709
		c0.839,1.392,2.086,2.087,3.717,2.087c1.199,0,2.231-0.384,2.951-1.127c0.527-0.552,0.911-1.176,1.127-1.871
		c0.504-1.487,0.744-3.07,0.744-4.846c0-2.087-0.456-4.461-1.08-5.589c-0.791-1.438-2.086-2.183-3.766-2.183
		C177.529,76.046,176.546,76.454,175.778,77.27z"/>
</g>
<g>
	<path d="M163.953,119.029c0-1.151-0.048-1.991-0.144-2.95c0.791,0.096,1.511,0.12,2.807,0.12h14.344
		c1.271,0,1.967-0.024,2.854-0.12c-0.097,0.888-0.144,1.703-0.144,2.95v14.608c0,1.751,0.047,2.639,0.144,3.286h-1.679v-1.464
		h-16.647v1.464h-1.679c0.096-0.647,0.144-1.512,0.144-3.286V119.029z M165.488,134.093h16.647v-16.526h-16.647V134.093z
		 M169.59,121.116c-1.031,0-1.606,0.024-2.255,0.12v-1.535c0.672,0.12,1.199,0.144,2.255,0.144h8.468
		c1.079,0,1.727-0.048,2.351-0.144v1.535c-0.672-0.096-1.247-0.12-2.327-0.12h-3.693v3.718h2.95c1.079,0,1.56-0.023,2.159-0.12
		v1.512c-0.6-0.096-1.152-0.12-2.159-0.12h-2.95v4.39h4.029c0.983,0,1.68-0.048,2.352-0.144v1.583
		c-0.696-0.096-1.416-0.145-2.352-0.145h-9.139c-0.983,0-1.655,0.049-2.375,0.145v-1.583c0.672,0.096,1.367,0.144,2.375,0.144h3.622
		v-4.39h-2.567c-1.007,0-1.582,0.024-2.182,0.12v-1.512c0.6,0.097,1.079,0.12,2.182,0.12h2.567v-3.718H169.59z M177.29,126.537
		c0.983,0.983,1.367,1.512,2.254,2.854l-1.127,0.72c-0.84-1.463-1.223-1.991-2.135-2.975L177.29,126.537z"/>
	<path d="M199.451,122.867c0.144,1.487,0.216,2.039,0.552,3.382l5.469-0.071c1.392,0,1.943-0.048,2.543-0.168v1.655
		c-0.888-0.072-0.888-0.072-2.519-0.072l-5.109,0.048c0.647,2.015,1.655,3.766,3.046,5.253c0.936,1.008,2.111,1.823,2.615,1.823
		c0.551,0,0.911-1.056,1.127-3.454c0.6,0.504,0.815,0.624,1.439,0.911c-0.527,3.19-1.151,4.271-2.423,4.271
		c-1.319,0-3.263-1.464-4.821-3.646c-1.176-1.631-1.943-3.166-2.566-5.133l-7.053,0.096v6.381c2.52-0.552,4.559-1.128,7.172-2.016
		l0.049,1.487c-3.694,1.224-5.732,1.775-9.811,2.614c-0.576,0.12-1.056,0.24-1.319,0.336l-0.408-1.727
		c0.624-0.024,1.464-0.145,2.759-0.384v-15.352c0-1.176-0.023-1.799-0.096-2.711c0.768,0.097,1.511,0.12,2.807,0.12h10.674
		c1.055,0,1.751-0.023,2.494-0.12c-0.072,0.479-0.072,0.84-0.072,1.919v2.854c0,0.888,0.024,1.344,0.072,1.775
		c-0.719-0.048-1.415-0.072-2.375-0.072H199.451z M191.751,121.524h12.737v-3.646h-12.737V121.524z M191.751,122.867v3.479
		l6.693-0.072c-0.24-1.151-0.385-2.015-0.553-3.406H191.751z"/>
	<path d="M213.481,117.255c0-0.888-0.049-1.487-0.168-2.136h1.847c-0.12,0.648-0.168,1.151-0.168,2.111v3.981h0.312
		c0.888,0,1.271-0.023,1.728-0.119v1.583c-0.575-0.072-0.911-0.097-1.703-0.097h-0.336v11.706c0,0.983,0.048,1.703,0.168,2.591
		h-1.847c0.119-0.744,0.168-1.535,0.168-2.615v-11.682h-0.624c-0.864,0-1.343,0.024-1.991,0.097v-1.583
		c0.552,0.096,1.008,0.119,1.991,0.119h0.624V117.255z M221.9,126.633c0.936,0,1.464-0.023,2.015-0.096
		c-0.048,0.456-0.048,0.72-0.072,1.344c0,1.535-0.239,4.197-0.479,5.757c-0.36,2.278-0.721,2.614-2.855,2.614
		c-0.312,0-0.768-0.024-1.15-0.048c-0.049-0.647-0.097-0.912-0.313-1.512c0.695,0.145,1.248,0.217,1.799,0.217
		c0.6,0,0.84-0.168,0.96-0.624c0.312-1.224,0.552-3.574,0.6-6.333h-2.11c-0.457,3.862-1.464,6.309-3.599,8.684
		c-0.432-0.647-0.575-0.815-1.031-1.247c1.895-1.775,2.806-3.838,3.262-7.437h-1.127c-0.647,0-0.96,0.024-1.415,0.097v-1.535
		c0.383,0.096,0.743,0.119,1.486,0.119h1.176c0.023-0.527,0.048-0.911,0.048-1.319c0-0.503-0.024-0.791-0.071-1.15h1.582
		c-0.071,0.432-0.119,0.935-0.144,1.559c-0.024,0.336-0.024,0.456-0.048,0.911H221.9z M229.12,117.398
		c0.792,0,1.344-0.024,1.896-0.096c-0.072,0.552-0.072,0.552-0.097,1.007c-0.168,1.896-0.407,3.334-0.695,4.006
		c-0.191,0.432-0.552,0.768-1.031,0.936c-0.288,0.096-0.768,0.145-1.535,0.145c-0.672,0-1.487-0.049-2.398-0.12
		c-0.049-0.576-0.12-0.936-0.313-1.512c0.888,0.192,1.943,0.288,2.927,0.288c0.647,0,0.911-0.168,1.079-0.647
		c0.192-0.576,0.313-1.367,0.408-2.687h-5.277c-1.008,2.519-2.662,4.029-5.828,5.396c-0.264-0.527-0.528-0.887-0.936-1.295
		c2.83-0.959,4.365-2.159,5.253-4.102h-2.423c-1.08,0-1.727,0.023-2.326,0.12v-1.56c0.623,0.096,1.318,0.12,2.398,0.12h2.807
		c0.191-0.792,0.264-1.392,0.264-1.967c0-0.168,0-0.24-0.024-0.408l1.751,0.096c-0.096,0.313-0.168,0.601-0.287,1.271
		c-0.072,0.36-0.121,0.576-0.217,1.008H229.12z M230.319,126.633c0.888,0,1.392-0.023,1.991-0.096
		c-0.024,0.432-0.048,0.912-0.071,1.439c-0.192,4.006-0.48,6.332-0.936,7.315c-0.313,0.696-0.96,0.96-2.352,0.96
		c-0.84,0-1.055,0-1.607-0.072c-0.047-0.671-0.096-0.888-0.311-1.511c0.911,0.168,1.486,0.24,2.158,0.24
		c0.623,0,0.84-0.12,0.959-0.528c0.36-1.224,0.576-3.382,0.648-6.429h-2.591c-0.336,2.471-0.743,4.006-1.511,5.638
		c-0.576,1.223-1.08,1.919-2.088,3.021c-0.312-0.479-0.6-0.791-1.055-1.151c1.799-1.583,2.83-3.886,3.286-7.508h-0.647
		c-0.695,0-1.008,0.024-1.463,0.097v-1.535c0.407,0.096,0.768,0.119,1.535,0.119h0.695c0.048-0.719,0.072-1.055,0.072-1.486
		c0-0.384-0.024-0.648-0.049-1.008h1.56c-0.072,0.407-0.097,0.624-0.168,1.942c-0.024,0.217-0.024,0.313-0.048,0.552H230.319z"/>
	<path d="M246.604,115.264c1.127,1.727,2.183,2.854,4.029,4.294c2.088,1.654,4.391,2.974,6.621,3.838
		c-0.48,0.575-0.72,0.983-0.936,1.535c-2.398-1.128-4.726-2.591-6.668-4.174c-1.607-1.319-2.711-2.519-3.838-4.103
		c-1.176,1.632-2.088,2.615-3.599,3.935c-2.11,1.822-4.077,3.118-6.477,4.222c-0.239-0.504-0.624-1.008-1.007-1.367
		c2.471-1.08,4.365-2.255,6.355-3.91c1.656-1.392,2.759-2.614,3.814-4.27H246.604z M238.497,128.648
		c-1.176,0-2.016,0.048-2.734,0.144v-1.727c0.743,0.096,1.535,0.144,2.734,0.144h14.775c1.224,0,1.991-0.048,2.734-0.144v1.727
		c-0.743-0.096-1.559-0.144-2.734-0.144h-8.611c-1.318,2.878-1.775,3.766-2.998,5.66c3.311-0.216,5.805-0.455,9.355-0.887
		c-1.439-1.56-1.871-1.991-2.927-2.975l1.247-0.768c2.398,2.255,4.006,4.029,5.805,6.332l-1.319,0.983
		c-0.936-1.318-1.247-1.727-1.751-2.351c-4.27,0.576-7.892,0.96-11.633,1.248c-2.975,0.239-3.455,0.287-4.055,0.432l-0.287-1.823
		c0.407,0.048,0.863,0.072,1.223,0.072c0.384,0,0.384,0,2.543-0.145c1.344-2.135,2.111-3.574,3.046-5.78H238.497z M240.032,122.676
		c0.479,0.071,1.008,0.096,1.895,0.096h7.748c0.936,0,1.487-0.024,2.015-0.096v1.606c-0.503-0.071-1.128-0.096-2.015-0.096h-7.771
		c-0.72,0-1.392,0.024-1.871,0.096V122.676z"/>
	<path d="M267.829,134.957c-1.511,0-1.871,0.023-2.639,0.119c0.265-1.895,0.336-2.254,0.696-3.166c0.6-1.511,1.606-2.83,3.118-4.126
		c0.84-0.719,0.888-0.743,3.67-2.638c2.375-1.607,3.166-2.663,3.166-4.126c0-1.823-1.535-2.998-3.981-2.998
		c-1.583,0-2.759,0.527-3.478,1.559c-0.456,0.647-0.672,1.224-0.84,2.423l-2.016-0.336c0.36-1.728,0.721-2.566,1.512-3.454
		c1.08-1.224,2.711-1.847,4.821-1.847c3.622,0,5.948,1.822,5.948,4.653c0,1.223-0.479,2.375-1.414,3.406
		c-0.721,0.815-1.344,1.271-4.078,3.094c-1.895,1.271-2.662,1.943-3.454,2.95c-0.743,0.983-1.079,1.632-1.368,2.783h7.652
		c1.199,0,2.016-0.048,2.927-0.168v2.015c-0.96-0.096-1.751-0.144-2.95-0.144H267.829z"/>
	<path d="M283.012,133.613c-0.647-0.647-1.151-1.392-1.438-2.207c-0.601-1.679-0.912-3.573-0.912-5.541
		c0-2.542,0.552-5.133,1.391-6.524c1.152-1.942,2.999-2.95,5.373-2.95c1.775,0,3.311,0.576,4.391,1.703
		c0.671,0.672,1.15,1.415,1.438,2.207c0.601,1.655,0.911,3.574,0.911,5.564c0,2.903-0.623,5.47-1.679,6.933
		c-1.199,1.679-2.878,2.519-5.085,2.519C285.626,135.316,284.14,134.741,283.012,133.613z M284.403,119.27
		c-0.504,0.552-0.888,1.151-1.08,1.751c-0.504,1.463-0.743,3.094-0.743,4.845c0,2.231,0.479,4.582,1.128,5.709
		c0.839,1.392,2.086,2.087,3.717,2.087c1.199,0,2.231-0.384,2.951-1.127c0.527-0.552,0.911-1.176,1.127-1.871
		c0.504-1.487,0.744-3.07,0.744-4.846c0-2.087-0.456-4.461-1.08-5.589c-0.791-1.438-2.086-2.183-3.766-2.183
		C286.154,118.046,285.171,118.454,284.403,119.27z"/>
</g>
<g>
	<path d="M212.396,2.206c0.743,0.072,1.175,0.097,2.159,0.097c2.158,0,5.612-0.145,7.315-0.336c0.528-0.048,1.007-0.145,1.343-0.288
		l1.008,1.271c-0.384,0.264-0.552,0.407-1.176,1.007c-2.35,2.279-5.469,4.702-7.867,6.117c1.176-0.216,2.111-0.336,5.757-0.647
		c0.983-0.072,2.446-0.216,4.27-0.384c0.983-0.072,1.703-0.145,2.183-0.192c0.313-0.023,0.408-0.023,0.695-0.096l0.168,1.679
		c-0.239,0-0.432,0-0.527,0c-2.446,0-4.821,0.456-6.596,1.296c-1.224,0.575-2.327,1.415-2.999,2.278
		c-0.552,0.72-0.768,1.271-0.768,1.991c0,1.967,2.063,3.094,5.709,3.094c0.624,0,1.104-0.048,1.632-0.144l0.071,1.847
		c-0.407-0.023-0.407-0.023-1.631-0.048c-2.807-0.048-4.894-0.575-6.045-1.559c-0.911-0.768-1.415-1.848-1.415-3.022
		c0-2.135,1.775-4.03,5.229-5.541c-0.336,0.048-0.336,0.048-1.318,0.216c-0.408,0.048-2.543,0.336-3.91,0.504
		c-3.814,0.455-6.189,0.815-7.076,1.079l-0.191-1.823c0.071,0,0.119,0,0.168,0c0.743,0,2.542-0.191,4.197-0.479
		c2.375-1.415,5.564-3.91,7.963-6.188c0.385-0.36,0.48-0.432,0.792-0.672c-1.343,0.264-3.981,0.456-7.508,0.576
		c-0.911,0.048-1.007,0.048-1.487,0.096L212.396,2.206z"/>
	<path d="M241.466,13.72c-1.391,3.167-2.807,4.605-4.533,4.605c-2.279,0-3.982-2.494-3.982-5.853c0-2.446,0.912-4.821,2.52-6.62
		c1.918-2.111,4.533-3.19,7.747-3.19c2.687,0,5.037,0.84,6.597,2.375c1.511,1.463,2.326,3.55,2.326,5.853
		c0,3.718-2.015,6.788-5.492,8.275c-1.08,0.456-1.991,0.744-3.646,1.104c-0.24-0.792-0.384-1.031-0.84-1.607
		c1.752-0.287,2.879-0.6,4.006-1.127c2.639-1.199,4.246-3.766,4.246-6.717c0-2.734-1.392-4.941-3.814-6.021
		c-0.887-0.384-1.583-0.552-2.782-0.6C243.456,7.531,242.546,11.201,241.466,13.72z M238.516,5.349
		c-2.423,1.463-3.91,4.174-3.91,7.148c0,2.303,1.008,4.077,2.303,4.077c1.008,0,1.967-1.127,2.999-3.478
		c0.982-2.255,1.871-5.805,2.182-8.875C240.65,4.341,239.618,4.677,238.516,5.349z"/>
	<path d="M258.422,11.13c0-0.864,0.024-1.655,0.097-2.879c-1.032,1.751-1.344,2.207-2.52,3.598
		c-0.504-0.743-0.575-0.839-1.007-1.295c2.11-2.23,3.55-4.438,4.63-7.148c0.503-1.223,0.887-2.519,1.007-3.405l1.679,0.527
		c-0.144,0.336-0.216,0.552-0.504,1.367c-0.527,1.583-1.031,2.734-1.847,4.27v12.905c0,1.127,0.048,2.039,0.12,2.854h-1.799
		c0.096-0.864,0.144-1.632,0.144-2.902V11.13z M265.354,9.475v8.899c0,0.6,0.168,0.791,0.887,0.935
		c0.648,0.145,1.632,0.192,3.526,0.192c2.999,0,4.222-0.12,4.773-0.432c0.552-0.313,0.864-1.319,1.032-3.431
		c0.646,0.36,0.887,0.433,1.559,0.6c-0.384,2.423-0.768,3.503-1.415,3.958c-0.768,0.528-2.351,0.72-6.045,0.72
		c-1.415,0-2.614-0.048-3.478-0.144c-0.936-0.096-1.607-0.336-1.967-0.72c-0.265-0.264-0.385-0.672-0.385-1.319v-8.731l-0.432,0.145
		c-1.295,0.455-1.583,0.575-1.99,0.791l-0.336-1.655c0.647-0.096,1.391-0.264,2.086-0.504l0.672-0.239V5.229
		c0-1.007-0.048-1.751-0.144-2.446h1.799c-0.096,0.672-0.144,1.367-0.144,2.375v2.878l3.502-1.224V2.494
		c0-0.863-0.048-1.535-0.145-2.23h1.752c-0.096,0.695-0.145,1.319-0.145,2.23v3.814l3.766-1.296c0.96-0.336,1.439-0.527,1.896-0.768
		c-0.024,0.36-0.048,0.744-0.048,1.056c-0.049,2.087-0.264,5.853-0.432,7.268c-0.24,2.016-0.648,2.471-2.184,2.471
		c-0.551,0-1.055-0.023-1.727-0.096c-0.096-0.575-0.168-0.936-0.408-1.535c0.744,0.168,1.439,0.264,1.92,0.264
		c0.791,0,0.863-0.168,1.055-2.063c0.145-1.344,0.24-3.238,0.288-5.35l-4.126,1.464v6.764c0,0.936,0.049,1.632,0.145,2.303h-1.752
		c0.097-0.671,0.145-1.343,0.145-2.326V8.228L265.354,9.475z"/>
	<path d="M288.546,19.957c-1.511,0-1.871,0.023-2.639,0.119c0.265-1.895,0.336-2.254,0.696-3.166c0.6-1.511,1.606-2.83,3.118-4.126
		c0.84-0.719,0.888-0.743,3.67-2.638c2.375-1.607,3.166-2.663,3.166-4.126c0-1.823-1.535-2.998-3.981-2.998
		c-1.583,0-2.759,0.527-3.478,1.559c-0.456,0.647-0.672,1.224-0.84,2.423l-2.016-0.336c0.36-1.728,0.721-2.566,1.512-3.454
		c1.08-1.224,2.711-1.847,4.821-1.847c3.622,0,5.948,1.822,5.948,4.653c0,1.223-0.479,2.375-1.414,3.406
		c-0.721,0.815-1.344,1.271-4.078,3.094c-1.895,1.271-2.662,1.943-3.454,2.95c-0.743,0.983-1.079,1.632-1.368,2.783h7.652
		c1.199,0,2.016-0.048,2.927-0.168v2.015c-0.96-0.096-1.751-0.144-2.95-0.144H288.546z"/>
	<path d="M303.729,18.613c-0.647-0.647-1.151-1.392-1.438-2.207c-0.601-1.679-0.912-3.573-0.912-5.541
		c0-2.542,0.552-5.133,1.391-6.524c1.152-1.942,2.999-2.95,5.373-2.95c1.775,0,3.311,0.576,4.391,1.703
		c0.671,0.672,1.15,1.415,1.438,2.207c0.601,1.655,0.911,3.574,0.911,5.564c0,2.903-0.623,5.47-1.679,6.933
		c-1.199,1.679-2.878,2.519-5.085,2.519C306.343,20.316,304.856,19.741,303.729,18.613z M305.12,4.27
		c-0.504,0.552-0.888,1.151-1.08,1.751c-0.504,1.463-0.743,3.094-0.743,4.845c0,2.231,0.479,4.582,1.128,5.709
		c0.839,1.392,2.086,2.087,3.717,2.087c1.199,0,2.231-0.384,2.951-1.127c0.527-0.552,0.911-1.176,1.127-1.871
		c0.504-1.487,0.744-3.07,0.744-4.846c0-2.087-0.456-4.461-1.08-5.589c-0.791-1.438-2.086-2.183-3.766-2.183
		C306.871,3.046,305.888,3.454,305.12,4.27z"/>
</g>
<g>
	<g>
		<polyline fill="none" stroke="#000000" stroke-width="0.75" stroke-miterlimit="10" points="306.917,98.835 306.917,126.99 
			297.852,126.99 		"/>
		<g>
			<circle cx="306.917" cy="98.977" r="2.82"/>
		</g>
	</g>
</g>
<g>
	<g>
		<polyline fill="none" stroke="#000000" stroke-width="0.75" stroke-miterlimit="10" points="329.287,39.312 329.287,11.156 
			320.222,11.156 		"/>
		<g>
			<circle cx="329.287" cy="39.17" r="2.819"/>
		</g>
	</g>
</g>
</svg>
