<?xml version="1.0" encoding="utf-8"?>
<!-- Generator: Adobe Illustrator 16.0.3, SVG Export Plug-In . SVG Version: 6.00 Build 0)  -->
<!DOCTYPE svg PUBLIC "-//W3C//DTD SVG 1.1//EN" "http://www.w3.org/Graphics/SVG/1.1/DTD/svg11.dtd">
<svg version="1.1" id="レイヤー_1" xmlns="http://www.w3.org/2000/svg" xmlns:xlink="http://www.w3.org/1999/xlink" x="0px"
	 y="0px" width="369.555px" height="326.781px" viewBox="0 0 369.555 326.781" enable-background="new 0 0 369.555 326.781"
	 xml:space="preserve">
<g>
	<g>
		<g>
			<path fill="#9FBFC5" d="M65.919,224.995l0.456,2.053l2.063-0.402l0.456,2.053l2.063-0.401l0.454,2.051l2.063-0.401l0.455,2.052
				l2.062-0.403l0.453,2.051l2.062-0.402l0.455,2.052l2.063-0.402l0.452,2.05l2.059-0.404l0.455,2.052l2.063-0.402l0.454,2.052
				l2.063-0.401l0.454,2.052l2.062-0.403l0.454,2.052l2.063-0.402l0.455,2.052l2.062-0.402l0.454,2.052l2.062-0.403l0.454,2.052
				l2.063-0.402l0.454,2.052l2.062-0.403l0.453,2.051l2.061-0.403c-0.098,0.307-2.608,4.69-4.785,8.467
				c-2.11,3.813-4.569,8.227-4.781,8.469l-0.719-1.974l-1.99,0.671l-0.719-1.974l-1.992,0.67l-0.72-1.975l-1.991,0.671l-0.719-1.974
				l-1.991,0.67l-0.719-1.974l-1.993,0.67l-0.72-1.975l-1.991,0.67l-0.719-1.974l-1.992,0.67l-0.721-1.975l-1.992,0.67l-0.72-1.974
				l-1.992,0.67l-0.716-1.973l-1.989,0.671l-0.72-1.974l-1.993,0.67L66.075,252l-1.99,0.671l-0.719-1.974l-1.993,0.669l-0.721-1.975
				l-1.991,0.671l-0.72-1.975l-1.994,0.669l-0.72-1.975l-1.994,0.67L65.919,224.995z"/>
				<rect x="100.217" y="257.423" transform="matrix(0.4918 -0.8707 0.8707 0.4918 -174.691 222.4397)" fill="#9FBFC5" width="5.993" height="6.901"/>
				<rect x="116.436" y="253.049" transform="matrix(0.4918 -0.8707 0.8707 0.4918 -174.3987 243.0876)" fill="#71696C" width="9.239" height="35.807"/>
		</g>
		<g>
			<path fill="#595757" d="M74.006,27.566l1.778-1.587l1.253-1.861l0.549-1.372l-2.911-0.024l0.573-1.062l2.78-0.048l0.167-0.25
				l0.799,0.788l-0.728,2.064l-1.348,2.267l-1.503,1.611L74.006,27.566z M84.447,28.091l-1.707-1.408l-1.503-1.754l-0.847-1.444
				v2.936l0.072,2.673l-1.635,0.656l-1.479-1.456l1.468,0.036l0.298-0.311l0.107-3.055l-0.012-3.103l-0.107-2.637l1.348-0.478
				l-0.036,2.076l0.287,0.967l0.584,0.99l1.122-0.907l1.158-1.205l1.217,0.608l-1.384,1.313l-1.527,1.158l0.751,1.05l1.253,1.241
				l1.909,1.205L84.447,28.091z"/>
			<path fill="#595757" d="M87.461,29.272l-0.131-2.458l0.095-2.255l0.155-2.291l0.406-2.828l1.265,0.74l-0.382,2.041l-0.167,2.147
				l-0.048,2.208l0.25,2.231L87.461,29.272z M95.73,28.759l-0.74-0.716l-0.382-0.31l-0.131,0.513l-0.847,0.561l-1.193,0.203
				l-0.895-0.071l-0.955-0.478l-0.406-0.406l-0.191-1.133l0.716-0.799l1.349-0.215l1.479,0.155l-0.06-1.348l-0.072-1.659
				l-1.276,0.143l-2.184,0.609l0.358-1.396l1.957-0.429l1.11-0.143l0.083-2.613l1.289,0.513l-0.191,1.957l2.208-0.191l-0.537,1.325
				l-1.635,0.107l0.012,0.847l0.155,2.446l-0.024,0.215l0.942,0.537l1.456,1.122L95.73,28.759z M93.416,27.208l-0.561-0.167
				l-0.859-0.06l-0.632,0.06l-0.191,0.334l0.346,0.382l0.585,0.155l0.895-0.036l0.358-0.334L93.416,27.208z"/>
			<path fill="#595757" d="M108.136,27.888l-1.301-0.979l-1.372-1.252l-1.384-1.766l-0.048,2.625l0.083,2.947l-1.348,0.31
				l0.107-2.744l0.024-2.995l-1.134,1.456l-0.966,1.05l-1.742,1.348l-1.36-0.668l2.076-1.396l1.611-1.587l1.265-1.837l-3.556-0.083
				l-0.417-1.169l2.052,0.06l2.088-0.071l0.071-2.303l1.193,0.334l0.083,1.98l2.184,0.012l2.267-0.072l-0.549,1.253l-3.83,0.024
				l1.563,1.873l1.67,1.587l1.981,1.205L108.136,27.888z"/>
			<path fill="#595757" d="M115.672,29.582l-1.623-0.262l-1.109-0.537l-0.465-1.146l0.441-1.146l1.539-1.241l0.298-0.131
				l-0.441-0.549l-1.086-0.06l-1.241,1.432l-1.468-0.298l1.563-1.694l1.074-1.694l-1.563,0.083l-0.775-1.146l2.16-0.072l0.752-0.143
				l0.871-2.303l0.991,0.955l-0.513,1.133L117.283,20l-0.334,1.396l-1.432,0.478l-0.99,0.227l-0.847,1.313l1.336,0.143l0.74,0.812
				l0.119,0.274l1.217-0.513l2.208-0.704l1.014,1.038l-2.589,0.62l-1.468,0.597l0.06,1.671l-1.348,0.298l0.107-0.979v-0.406
				l-0.907,0.584l-0.346,0.728l0.346,0.513l1.313,0.298l1.289-0.072l1.468-0.274l-0.417,1.456L115.672,29.582z"/>
			<path fill="#595757" d="M83.444,40.816l-1.05-0.68l-1.48,0.227l-1.933,0.239l-1.373,0.107l-1.563,0.107l-0.847-1.217l1.778,0.048
				l0.656-0.704l0.465-0.597l-2.816,0.072l-0.584-1.122l2.291,0.036l2.124-0.096l0.131-0.847l1.158-0.334l0.047,1.122l2.112,0.048
				l2.673-0.12l-0.417,1.193l-2.733-0.012l-2.601,0.131l-1.05,1.217l1.658-0.131l1.563-0.179l-0.561-0.585l1.11-0.37l1.217,1.038
				l1.444,0.812L83.444,40.816z M81.929,47.224l-1.313-1.265l1.491-0.048l0.191-0.215v-0.644l-2.291,0.107l-2.375-0.036
				l-0.083,1.921l-1.301,0.346l0.167-3.317l0.047-2.888l2.351-0.143l2.422-0.024l2.172,0.095l0.167,2.506l-0.036,3.055
				L81.929,47.224z M82.263,43.382l-2.267,0.071l-2.387-0.024l0.024,0.74l2.411-0.047l2.279,0.047L82.263,43.382z M82.228,42.021
				l-2.064-0.072l-2.387,0.06l-0.107,0.585l2.375,0.047l2.171-0.071L82.228,42.021z"/>
			<path fill="#595757" d="M93.129,46.866l-1.384-0.883l-0.752-1.026l-0.417-1.587l0.286-1.635l0.967-1.766l1.181-1.109
				l-2.184,0.334l-1.551,0.274l-1.683,0.322l-0.918-1.372l2.529-0.203l2.613-0.37l2.029-0.251l1.873-0.298l0.871,1.206L94.752,38.8
				l-1.384,1.229l-0.823,1.146l-0.501,1.313l-0.06,0.966l0.239,0.859l0.608,0.764l2.005,1.038L93.129,46.866z"/>
			<path fill="#595757" d="M105.545,46.222l-0.979,0.441l-1.659,0.215l-1.492-0.394l-0.907-0.823l-0.095-0.835l0.489-0.692
				l1.038-0.334l1.157,0.143l0.835,0.68l0.358,0.919l0.334-0.107l0.549-0.478l0.43-0.895l-0.286-0.931l-0.871-0.477l-1.516-0.012
				l-1.289,0.311l-1.349,0.644l-0.99,0.919l-1.348-0.525l1.873-1.778l1.969-2.196l1.444-1.694l-1.348,0.191l-1.551,0.298
				l-0.775-1.205l2.482-0.203l1.778-0.358l0.382-0.25l1.169,0.919l-2.088,2.195l-1.957,2.136l1.277-0.418l1.217-0.143l1.193,0.119
				l1.122,0.537l0.692,1.086l-0.036,1.229l-0.394,0.966L105.545,46.222z M102.956,45.184l-0.465-0.394l-0.608,0.012l-0.239,0.25
				l0.203,0.43l0.8,0.334l0.513-0.024L102.956,45.184z"/>
		</g>
		<g>
			<path fill="#595757" d="M255.328,23.601l-1.301-0.979l-1.372-1.253l-1.385-1.766l-0.047,2.625l0.083,2.947l-1.349,0.31
				l0.107-2.744l0.024-2.995l-1.134,1.456l-0.967,1.05l-1.742,1.348l-1.359-0.668l2.076-1.396l1.61-1.587l1.265-1.837l-3.556-0.083
				l-0.417-1.169l2.052,0.06l2.089-0.071l0.07-2.303l1.193,0.334l0.084,1.981l2.184,0.012l2.268-0.072l-0.549,1.253l-3.83,0.024
				l1.563,1.873l1.67,1.587l1.981,1.205L255.328,23.601z"/>
			<path fill="#595757" d="M258.294,24.985l-0.131-2.458l0.096-2.255l0.155-2.291l0.405-2.828l1.266,0.74l-0.383,2.04l-0.166,2.148
				l-0.049,2.208l0.251,2.231L258.294,24.985z M266.563,24.472l-0.739-0.716l-0.382-0.31l-0.131,0.513l-0.848,0.561l-1.193,0.203
				l-0.895-0.071l-0.955-0.478l-0.406-0.406l-0.19-1.133l0.716-0.799l1.349-0.215l1.479,0.155l-0.06-1.348l-0.071-1.659
				l-1.277,0.143l-2.184,0.609l0.358-1.396l1.956-0.43l1.11-0.144l0.083-2.613l1.289,0.513l-0.191,1.957l2.208-0.191l-0.536,1.325
				l-1.635,0.107l0.012,0.847l0.154,2.446l-0.023,0.214l0.943,0.537l1.455,1.122L266.563,24.472z M264.249,22.921l-0.561-0.167
				l-0.859-0.06l-0.633,0.06l-0.19,0.334l0.346,0.382l0.585,0.155l0.895-0.036l0.358-0.334L264.249,22.921z"/>
			<path fill="#595757" d="M268.601,19.186l0.417-2.482l0.954-0.131l-0.238,2.744L268.601,19.186z M271.583,24.878l1.074-2.028
				l-0.895,0.525l-0.717-0.883l-0.477,1.384l-0.681,1.468l-1.241-0.227l1.098-2.076l0.395-1.671l0.227-2.505l-0.072-4.296
				l1.134,0.382l-0.06,2.017l0.812-0.871l0.37,1.038l-1.134,1.014l-0.071,1.36l-0.084,1.432l0.74,1.074l0.787,0.764l-0.107,0.06
				l0.895,0.621l-0.811,1.826L271.583,24.878z M279.172,22.36l-0.681-0.835l-0.453-0.632l-0.608-1.253l-0.716,1.54l-1.109,1.3
				l-1.349-0.346l1.276-1.146l0.907-1.515l0.358-1.193l-1.003-0.036l-0.978,2.041l-1.408,1.599l-1.35-0.429l1.027-0.8l0.691-0.775
				l-1.05-0.764l0.668-0.585l0.847,0.501l0.359-0.478l-1.027-0.584l0.656-0.645l0.692,0.298l0.239-0.919l-0.943-0.083l-0.93,1.527
				l-0.836,0.991l-1.026-0.263l1.157-1.456l0.8-1.456l0.466-1.384l0.883,0.465l-0.215,0.716l1.014-0.012l0.18-0.214l0.668,0.608
				l-0.311,1.169l0.871-0.083l-0.107-2.589l1.134,0.37l-0.048,2.184l1.992,0.048l-0.429,0.967l-1.54,0.06l0.824,1.813l0.764,0.895
				l0.775,0.799L279.172,22.36z M274.256,25.427l-0.239-1.909l0.967-0.549l0.537,1.969L274.256,25.427z M276.618,25.141
				l-0.764-1.718l1.134-0.561l0.632,1.933L276.618,25.141z M278.683,25.009l-0.716-1.683l0.764-0.812l1.301,2.387L278.683,25.009z
				 M279.077,16.979l-1.051-1.527l0.967-0.107l0.787,0.955L279.077,16.979z"/>
			<path fill="#595757" d="M288.581,25.021l-1.455-0.131l-0.764-0.621l-0.191-2.422l-0.405-0.191l-0.931,0.37l-1.253,1.3
				l-1.122,1.527l-1.455-0.573l1.801-1.885l1.396-1.575l2.005-2.314l-1.61,0.179l-1.527,0.31l-0.693-1.229l2.089-0.227l2.613-0.37
				l0.239-0.25l0.883,1.038l-1.229,1.384l-1.265,1.36l0.895-0.227l0.68,0.429l0.18,2.53l0.465,0.298l1.349-0.024l1.767-0.238
				l-0.549,1.408L288.581,25.021z M287.173,16.692l-1.407-0.716l-1.265-0.43l1.229-0.871l1.109,0.37l1.444,0.668L287.173,16.692z"/>
			<path fill="#595757" d="M298.827,25.128l-1.385-0.883l-0.752-1.026l-0.417-1.587l0.286-1.635l0.967-1.766l1.182-1.109
				l-2.184,0.334l-1.552,0.274l-1.683,0.322l-0.918-1.372l2.529-0.203l2.613-0.37l2.028-0.251l1.873-0.298l0.871,1.206l-1.837,0.298
				l-1.385,1.229l-0.823,1.146l-0.501,1.313l-0.061,0.966l0.239,0.859l0.608,0.764l2.005,1.038L298.827,25.128z"/>
			<path fill="#595757" d="M255.042,42.746l-1.803-1.324l-1.407-1.36l-0.847-1.157l-0.371-0.656l-0.895,1.718l-1.432,1.599
				l-1.646,1.253l-1.42-0.847l1.646-0.775l1.169-1.062l1.122-1.551l0.703-2.208l0.061-1.897l-0.061-2.518l1.361,0.417l-0.036,1.897
				l0.024,2.315l0.811,1.706l1.015,1.277l1.349,1.134l2.064,1.133L255.042,42.746z M245.997,37.138l0.633-1.742l0.322-1.635
				l1.085,0.775l-0.31,1.551l-0.478,1.122L245.997,37.138z M252.786,36.756l0.836-1.527l0.524-1.479l1.169,0.823l-0.703,1.468
				l-0.537,0.847L252.786,36.756z"/>
			<path fill="#595757" d="M262.864,42.746l-1.623-0.262l-1.109-0.537l-0.465-1.146l0.441-1.146l1.539-1.241l0.299-0.131
				l-0.441-0.549l-1.086-0.06l-1.241,1.432l-1.468-0.298l1.563-1.694l1.074-1.694l-1.563,0.083l-0.775-1.146l2.159-0.072
				l0.751-0.143l0.871-2.303l0.991,0.955l-0.513,1.133l2.207-0.764l-0.334,1.396l-1.432,0.478l-0.99,0.227l-0.848,1.313l1.336,0.144
				l0.74,0.811l0.119,0.274l1.217-0.513l2.208-0.704l1.015,1.038l-2.59,0.621l-1.468,0.596l0.06,1.671l-1.348,0.298l0.107-0.979
				v-0.406l-0.907,0.584l-0.347,0.728l0.347,0.513l1.313,0.298l1.288-0.072l1.469-0.274l-0.418,1.456L262.864,42.746z"/>
			<path fill="#595757" d="M276.558,42.185l-2.601,0.012l-2.481,0.012l-2.256,0.047l-0.501-1.324l2.446,0.131l2.303,0.012
				l0.048-2.553l-2.84,0.131l-0.394-1.241l3.245,0.06l0.06-2.088l-2.47,0.012l-1.218,1.707l-1.133-0.251l0.812-1.36l0.62-1.479
				l0.478-1.67l1.05,0.477l-0.25,1.36l2.064,0.144l0.107-2.005l1.193-0.43l-0.024,2.458l4.081-0.262l-0.525,1.277l-3.568,0.083
				l-0.035,1.993l3.568-0.131l-0.49,1.241l-1.682-0.012l-1.349,0.012l-0.12,2.446l2.089,0.036l2.721-0.143l-0.478,1.313
				L276.558,42.185z"/>
			<path fill="#595757" d="M288.569,42.233l-2.004,0.191l-1.385-0.191l-1.265-0.549l-0.179-0.668l-0.418,0.382l-0.99,0.25
				l-1.002-0.621l-0.418-0.955l0.537-1.289l1.217-0.764l0.883,0.179l0.131-1.122l0.107-1.384l-0.787,0.179l-1.025,0.107
				l-0.848-1.193l2.064-0.144l0.656-0.227l-0.084-2.291l1.301,0.549l0.036,1.217l1.276-0.621l-0.215,1.479l-1.05,0.561l-0.227,1.766
				l-0.347,2.303l0.275,1.062l0.739,0.597l0.991,0.131l1.407-0.167l0.788-0.37l0.31-0.632l-0.167-1.659l1.301,0.68l0.18,1.038
				l-0.191,1.241L288.569,42.233z M283.224,39.644l-0.215-0.406l-0.513-0.036l-0.334,0.442l0.012,0.513l0.358,0.25l0.572-0.346
				L283.224,39.644z M289.13,36.231l-0.488-0.442l-1.063-0.525l1.158-0.847l0.979,0.537l0.858,0.764l-1.073,1.086L289.13,36.231z"/>
		</g>
		<g>
			<path fill="#595757" d="M322.309,184.759l-1.802-1.324l-1.408-1.36l-0.848-1.157l-0.369-0.656l-0.895,1.718l-1.432,1.6
				l-1.647,1.253l-1.42-0.848l1.647-0.775l1.168-1.063l1.123-1.551l0.703-2.208l0.061-1.896l-0.061-2.519l1.36,0.418l-0.036,1.897
				l0.024,2.314l0.812,1.707l1.014,1.276l1.349,1.134l2.064,1.134L322.309,184.759z M313.265,179.151l0.632-1.742l0.322-1.635
				l1.085,0.776l-0.31,1.551l-0.478,1.122L313.265,179.151z M320.054,178.769l0.835-1.527l0.524-1.479l1.17,0.823l-0.703,1.468
				l-0.537,0.848L320.054,178.769z"/>
			<path fill="#595757" d="M325.562,184.45l-0.131-2.459l0.096-2.255l0.154-2.291l0.406-2.828l1.265,0.74l-0.382,2.04l-0.167,2.148
				l-0.048,2.207l0.25,2.231L325.562,184.45z M333.831,183.936l-0.74-0.716l-0.381-0.311l-0.132,0.514l-0.847,0.561l-1.193,0.203
				l-0.896-0.072l-0.954-0.477l-0.406-0.406l-0.191-1.134l0.717-0.799l1.348-0.215l1.48,0.155l-0.061-1.349l-0.071-1.658
				l-1.276,0.143l-2.184,0.608l0.357-1.396l1.957-0.43l1.109-0.144l0.084-2.613l1.289,0.514l-0.191,1.957l2.207-0.191l-0.536,1.324
				l-1.635,0.107l0.012,0.848l0.155,2.446l-0.023,0.215l0.941,0.537l1.457,1.121L333.831,183.936z M331.517,182.385l-0.562-0.167
				l-0.858-0.06l-0.633,0.06l-0.191,0.334l0.346,0.382l0.586,0.155l0.895-0.036l0.357-0.334L331.517,182.385z"/>
			<path fill="#595757" d="M335.867,178.65l0.417-2.481l0.955-0.132l-0.238,2.745L335.867,178.65z M338.851,184.342l1.073-2.029
				l-0.896,0.525l-0.715-0.883l-0.478,1.384l-0.681,1.468l-1.24-0.227l1.098-2.076l0.394-1.671l0.227-2.506l-0.071-4.295
				l1.133,0.382l-0.059,2.017l0.811-0.871l0.37,1.038l-1.134,1.014l-0.071,1.36l-0.083,1.432l0.739,1.074l0.788,0.764l-0.107,0.06
				l0.895,0.621l-0.812,1.825L338.851,184.342z M346.438,181.824l-0.68-0.835l-0.453-0.633l-0.609-1.252l-0.715,1.539l-1.11,1.301
				l-1.349-0.347l1.277-1.146l0.906-1.516l0.358-1.192l-1.003-0.036l-0.979,2.04l-1.407,1.6l-1.349-0.43l1.026-0.8l0.692-0.775
				l-1.051-0.764l0.668-0.585l0.848,0.501l0.358-0.477l-1.026-0.585l0.656-0.645l0.691,0.299l0.239-0.919l-0.942-0.084l-0.932,1.527
				l-0.834,0.99l-1.027-0.262l1.158-1.456l0.799-1.456l0.466-1.384l0.883,0.465l-0.214,0.716l1.014-0.012l0.179-0.215l0.669,0.608
				l-0.311,1.17l0.871-0.084l-0.107-2.589l1.133,0.37l-0.047,2.184l1.992,0.048l-0.43,0.966l-1.539,0.06l0.823,1.814l0.764,0.895
				l0.776,0.8L346.438,181.824z M341.522,184.891l-0.238-1.909l0.967-0.549l0.537,1.969L341.522,184.891z M343.886,184.604
				l-0.764-1.718l1.133-0.561l0.633,1.933L343.886,184.604z M345.95,184.473l-0.717-1.683l0.764-0.812l1.301,2.387L345.95,184.473z
				 M346.344,176.443l-1.05-1.527l0.967-0.107l0.787,0.954L346.344,176.443z"/>
			<path fill="#595757" d="M355.849,184.485l-1.455-0.131l-0.764-0.621l-0.191-2.422l-0.405-0.191l-0.931,0.37l-1.253,1.301
				l-1.122,1.527l-1.455-0.572l1.801-1.886l1.396-1.575l2.005-2.314l-1.61,0.179l-1.527,0.311l-0.693-1.229l2.089-0.227l2.613-0.37
				l0.239-0.25l0.883,1.038l-1.229,1.384l-1.265,1.36l0.895-0.227l0.68,0.43l0.18,2.529l0.465,0.299l1.349-0.024l1.767-0.238
				l-0.549,1.408L355.849,184.485z M354.44,176.157l-1.407-0.717l-1.265-0.43l1.229-0.87l1.109,0.369l1.444,0.669L354.44,176.157z"
				/>
			<path fill="#595757" d="M366.095,184.592l-1.385-0.883l-0.752-1.026l-0.417-1.587l0.286-1.635l0.967-1.766l1.182-1.11
				l-2.184,0.335l-1.552,0.274l-1.683,0.321l-0.918-1.372l2.529-0.202l2.613-0.37l2.028-0.251l1.873-0.298l0.871,1.205l-1.837,0.298
				l-1.385,1.229l-0.823,1.146l-0.501,1.313l-0.061,0.967l0.239,0.858l0.608,0.764l2.005,1.038L366.095,184.592z"/>
			<path fill="#595757" d="M320.149,193.237l-2.721-0.048l-2.315,0.107l-0.06,3.03l-0.418,3.103l-0.835,2.435l-1.42-0.179
				l1.038-2.304l0.395-2.386l0.095-2.446l-0.155-2.542l3.091,0.119l2.972-0.119l3.197-0.023l-0.514,1.193L320.149,193.237z
				 M322.56,202.15l-1.6-1.098l-1.205-1.276l-0.811-1.36l-0.729,1.36l-0.859,1.205l-1.551,1.229l-1.324-0.632l1.873-1.266
				l1.086-1.407l0.764-1.861l0.119-1.54l-0.023-1.813l1.276,0.466l-0.071,1.682l0.179,1.587l0.979,1.563l1.157,1.17l1.992,1.133
				L322.56,202.15z M315.364,197.21l0.549-1.134l0.357-1.36l0.979,0.68l-0.334,1.193l-0.501,1.241L315.364,197.21z M320.53,197.293
				l0.633-1.276l0.489-1.337l0.967,0.931l-0.907,1.957L320.53,197.293z"/>
			<path fill="#595757" d="M329.749,201.72l-1.455-0.06l-1.301-0.334l-0.979-0.656l-0.465-0.919l0.119-1.086l0.596-1.229
				l0.943-0.967l0.238-0.19l-0.334-0.788l-0.418-1.301l-0.273-1.623l1.396-0.895l0.036,1.468l0.215,1.384l0.369,0.979l0.299-0.227
				l2.219-1.516l0.334,1.444l-1.957,1.014l-0.334,0.287l1.098,1.24l-1.432,0.311l-0.632-0.739l-0.489,0.417l-0.585,1.003
				l-0.071,0.858l0.691,0.645l1.301,0.286l1.396-0.06l1.826-0.465l-0.371,1.491L329.749,201.72z"/>
			<path fill="#595757" d="M341.784,201.625l-2.554,0.012h-2.362l-2.41,0.035l-0.549-1.372l2.422,0.119l2.136-0.107l0.096-2.255
				l0.024-1.861l-3.413-0.107l-0.405-1.253l3.77,0.084l0.061-3.461l1.276,0.537v2.911l3.974-0.179l-0.465,1.384l-3.426,0.013
				l-0.083,2.04l0.048,2.172l2.207,0.023l2.088-0.083l0.573,1.253L341.784,201.625z"/>
			<path fill="#595757" d="M351.063,201.601l-1.266,0.024l-1.073-1.396l1.527,0.179l0.608-0.489l0.609-1.348l0.154-1.218
				l-0.012-0.704l-0.453-0.489l-1.039,0.107l-0.739,1.635l-0.8,1.694l-1.05,1.73l-1.599-0.19l1.587-2.172l0.847-1.623l0.418-0.979
				l-0.979,0.167l-0.931,0.179l-0.847-1.169l1.801-0.155l1.289-0.179l0.43-1.253l0.311-1.611l1.24,0.74l-0.656,2.04l1.313-0.06
				l0.824,0.537l0.357,1.038l-0.084,1.539l-0.5,1.719l-0.585,1.038L351.063,201.601z M355.932,198.427l-0.775-1.646l-0.632-0.884
				l-1.135-1.002l1.396-0.37l0.943,0.848l0.715,0.942l0.573,1.17L355.932,198.427z M354.679,194.227l-1.265-1.182l0.716-0.417
				l1.349,0.99L354.679,194.227z M355.92,193.475l-1.205-1.182l0.716-0.465l1.24,1.026L355.92,193.475z"/>
			<path fill="#595757" d="M320.542,219.1l-2.601,0.012l-2.481,0.012l-2.256,0.048l-0.501-1.324l2.446,0.131l2.303,0.013
				l0.048-2.554l-2.84,0.131l-0.394-1.241l3.245,0.061l0.06-2.089l-2.47,0.012l-1.218,1.707l-1.133-0.251l0.812-1.36l0.62-1.479
				l0.478-1.671l1.05,0.478l-0.25,1.36l2.064,0.144l0.107-2.005l1.193-0.43l-0.024,2.458l4.081-0.263l-0.525,1.277l-3.568,0.083
				l-0.035,1.993l3.568-0.132l-0.49,1.241l-1.682-0.012l-1.349,0.012l-0.12,2.446l2.089,0.036l2.721-0.144l-0.478,1.313
				L320.542,219.1z"/>
			<path fill="#595757" d="M330.417,219.088l-1.92,0.382l-1.635-0.107l-1.003-1.026l-0.06-2.804l0.048-2.972l-0.071-3.389
				l1.539,0.585l-0.18,2.84l-0.059,2.875l0.095,2.112l0.62,0.573l1.17-0.013l1.133-0.334l0.764-0.43l1.218-1.062l-0.071,1.933
				L330.417,219.088z M330.31,211.953l-1.229-1.349l0.8-0.382l1.324,1.157L330.31,211.953z M331.671,211.285l-1.146-1.349
				l0.788-0.43l1.205,1.193L331.671,211.285z"/>
			<path fill="#595757" d="M341.616,218.849l-0.979,0.441l-1.658,0.215l-1.492-0.394l-0.906-0.823l-0.096-0.835l0.49-0.692
				l1.037-0.334l1.158,0.144l0.835,0.68l0.358,0.919l0.334-0.107l0.549-0.478l0.43-0.895l-0.287-0.931l-0.871-0.478l-1.516-0.012
				l-1.288,0.31l-1.349,0.645l-0.99,0.919l-1.348-0.525l1.873-1.777l1.969-2.195l1.443-1.694l-1.348,0.19l-1.552,0.299l-0.775-1.206
				l2.481-0.202l1.778-0.358l0.382-0.25l1.17,0.918l-2.089,2.196l-1.957,2.136l1.276-0.418l1.218-0.144l1.193,0.12l1.122,0.537
				l0.691,1.085l-0.035,1.229l-0.395,0.967L341.616,218.849z M339.027,217.811l-0.466-0.394l-0.607,0.012l-0.239,0.251l0.202,0.43
				l0.801,0.334l0.512-0.024L339.027,217.811z"/>
		</g>
		<g>
			<path fill="#595757" d="M154.876,308.579l-2.554,0.013h-2.362l-2.411,0.035l-0.549-1.372l2.422,0.119l2.136-0.107l0.096-2.255
				l0.024-1.861l-3.413-0.107l-0.406-1.253l3.771,0.084l0.06-3.461l1.277,0.537v2.911l3.974-0.179l-0.465,1.384l-3.425,0.013
				l-0.083,2.04l0.048,2.172l2.208,0.023l2.088-0.083l0.573,1.253L154.876,308.579z"/>
			<path fill="#595757" d="M168.153,306.241l-0.203-0.812l-3.115,0.023l-0.119,3.688l-1.217,0.334l-0.012-3.985l-2.745,0.012
				l-0.215,0.656l-1.146-0.227l-0.012-2.458l0.107-2.947l4.069,0.06l-0.048-2.351l1.373,0.489l-0.096,1.861l4.487-0.144l-0.096,3.02
				l0.107,2.339L168.153,306.241z M163.571,301.813l-2.84-0.154l-0.143,2.625l2.923,0.071L163.571,301.813z M167.926,301.742
				l-3.162-0.012l0.036,2.637l3.126-0.202V301.742z"/>
			<path fill="#595757" d="M176.096,308.436l-1.265,0.023l-1.074-1.396l1.527,0.179l0.608-0.489l0.609-1.349l0.155-1.217
				l-0.012-0.704l-0.454-0.489l-1.038,0.107l-0.74,1.635l-0.799,1.694l-1.05,1.73l-1.599-0.191l1.587-2.171l0.847-1.623l0.417-0.979
				l-0.979,0.167l-0.931,0.179l-0.847-1.169l1.802-0.155l1.289-0.179l0.429-1.253l0.311-1.611l1.241,0.74l-0.656,2.04l1.313-0.06
				l0.823,0.537l0.358,1.038l-0.084,1.539l-0.501,1.719l-0.584,1.038L176.096,308.436z M180.964,305.262l-0.775-1.646l-0.632-0.884
				l-1.134-1.002l1.396-0.37l0.943,0.848l0.716,0.942l0.573,1.169L180.964,305.262z"/>
			<path fill="#595757" d="M188.858,308.567l-1.527,0.775l-1.611-0.883l1.933-0.704l0.955-0.62l0.584-0.775l0.119-0.752
				l-0.357-0.501l-0.955-0.179l-1.348,0.417l-1.003,0.729l-0.751,0.751l-1.193-0.357l0.31-2.852l0.25-1.635l0.656-1.253l1.456-0.645
				l-0.501-0.441l-1.038-0.692l1.36-0.501l1.241,0.847l1.491,1.074l-1.157,0.704l-0.418-0.155l-0.871,0.203l-0.584,0.346
				l-0.441,0.788l-0.227,1.36l-0.167,1.503l1.527-0.967l1.623-0.453l1.443,0.286l0.896,0.74l0.202,0.967l-0.238,1.121l-0.668,0.896
				L188.858,308.567z"/>
			<path fill="#595757" d="M200.392,308.674l-2.506,0.06l-2.469-0.035l-2.375,0.012l-0.478-1.253l2.493,0.144l2.101-0.024
				l-0.071-2.661l-3.807-0.119l0.514-1.026l3.293,0.036l0.06-1.241l-2.136,0.072l-0.023-0.454l-1.695,1.063l-1.24-0.692l2.016-1.086
				l1.838-1.563l1.301-1.622l1.324,0.143l-0.143,0.43l1.432,1.396l1.777,1.157l2.148,0.907l-1.182,0.883l-1.969-1.038l-0.084,0.405
				l-2.219,0.06l0.048,1.074l1.349,0.071l2.494-0.095l-0.347,1.038l-3.425,0.19l-0.071,2.709l2.601-0.036l2.137-0.179l-0.502,1.288
				L200.392,308.674z M195.272,307.469l-1.121-1.73l1.109-0.405l1.039,1.313L195.272,307.469z M198.519,300.667l-0.871-0.918
				l-1.025,1.05l-0.92,0.787l2.125,0.036l1.896-0.036L198.519,300.667z M199.151,306.861l1.002-1.623l1.098,0.37l-0.906,1.778
				L199.151,306.861z"/>
			<path fill="#595757" d="M211.628,301.456l-2.387,0.023l-2.494,0.036l-0.119,2.506l-0.394,2.565l-0.704,2.22l-1.336-0.144
				l0.895-2.542l0.37-2.291l0.083-2.362l-0.071-2.673l2.888-0.167l3.031,0.048l2.852-0.024l-0.023,2.649L211.628,301.456z
				 M213.274,309.438l-1.157-1.205l1.181,0.048l0.311-0.274l-0.071-1.587l-0.99,0.012l0.835,1.265l-0.883,0.37l-0.274-0.274
				l-1.563,0.418l-1.813,0.119l-0.871-1.002l2.064-0.12l-0.036-0.739l-2.1,0.107l-0.096,2.685l-1.109,0.215l0.047-3.89l3.27,0.06
				l0.012-0.454l-2.601-0.035l-0.024-2.028l2.519-0.036l0.023-0.358l-1.933,0.024l-0.8-0.74l2.685-0.119l2.674-0.263l1.109,0.764
				l-2.566,0.203l-0.059,0.43l2.672-0.144l-0.07,2.184l-2.506,0.119l-0.072,0.395l3.663-0.084l0.048,3.258L213.274,309.438z
				 M213.013,299.713l-3.198-0.036l-3.043,0.107l-0.048,0.764l3.078,0.072l3.15-0.167L213.013,299.713z M210.005,303.794
				l-1.467,0.083l-0.049,0.525l1.516,0.071V303.794z M211.628,306.634l0.334-0.203l-0.895,0.012l-0.107,0.729l0.895-0.107
				L211.628,306.634z M212.618,303.71l-1.623,0.096l0.024,0.585l1.575,0.095L212.618,303.71z"/>
			<path fill="#595757" d="M220.203,308.543l-1.288-0.955l-0.693,0.788l-0.906,0.859l-1.217-0.585l1.025-0.764l0.848-0.931
				l0.286-0.775l-1.527-0.013l-0.286-1.133l1.934,0.131l0.166-0.775l1.158-0.18l-0.168,0.919l1.898-0.095l-0.311,0.99l-1.623,0.202
				l-0.048,0.287l0.812,0.691l1.038,0.502L220.203,308.543z M220.562,303.543l-0.836-0.656l-0.06,0.955l-1.086,0.334l0.024-1.408
				l-0.752,0.704l-0.572,0.382l-1.146-0.656l1.254-0.656l0.918-0.859l-1.658-0.131l-0.311-0.884l2.172,0.048l0.035-2.147
				l1.098,0.322l0.084,1.79l2.041-0.18l-0.371,1.158l-1.634-0.036l0.036,0.238l1.777,0.955L220.562,303.543z M217.351,300.548
				l-0.787-1.372l1.205-0.119l0.537,1.015L217.351,300.548z M219.81,300.036l0.525-1.074l1.073,0.299l-0.739,1.098L219.81,300.036z
				 M221.85,309.39l-1.313-0.704l1.265-0.668l1.038-0.967l0.942,0.633l-0.871,0.919L221.85,309.39z M224.296,306.837l-2.422-0.036
				l0.143-2.924l-0.035-2.982l1.491-0.096l0.31-0.871l-1.969-0.06l-0.369-1.098l2.994,0.023l2.375-0.083l0.43,1.086l-2.387,0.154
				l-0.06,0.776l1.886,0.143l-0.203,2.876l0.143,3.03L224.296,306.837z M225.453,303.329l-2.423,0.132l0.132,0.716l2.172-0.036
				L225.453,303.329z M225.536,304.952l-2.361,0.012l-0.107,0.859l2.361,0.048L225.536,304.952z M225.37,301.646l-2.101,0.12
				l-0.19,0.799l2.338,0.048L225.37,301.646z M226.503,309.295l-1.229-0.859l-0.836-0.752l0.979-0.68l0.8,0.704l1.42,0.691
				L226.503,309.295z"/>
			<path fill="#595757" d="M233.849,309.164l-1.623-0.263l-1.109-0.536l-0.465-1.146l0.441-1.146l1.539-1.241l0.299-0.132
				l-0.441-0.549l-1.086-0.06l-1.241,1.432l-1.468-0.298l1.563-1.694l1.074-1.694l-1.563,0.083l-0.775-1.146l2.159-0.071
				l0.751-0.143l0.871-2.304l0.991,0.955l-0.513,1.134l2.207-0.764l-0.334,1.396l-1.432,0.478l-0.99,0.227l-0.848,1.313l1.336,0.144
				l0.74,0.812l0.119,0.274l1.217-0.514l2.208-0.704l1.015,1.038l-2.59,0.621l-1.468,0.597l0.06,1.67l-1.348,0.299l0.107-0.979
				v-0.406l-0.907,0.585l-0.347,0.728l0.347,0.514l1.313,0.298l1.288-0.071l1.469-0.274l-0.418,1.456L233.849,309.164z"/>
			<path fill="#595757" d="M154.483,320.087l-2.852-0.036l-2.494,0.096l-0.048,1.729l-0.346,2.471l-0.584,2.076l-1.432-0.18
				l0.883-2.124l0.298-2.685l-0.096-2.422l2.506,0.048l-0.584-1.146l-1.79-0.024l-0.441-1.133l4.224,0.107l0.023-0.824l1.193-0.322
				l0.083,1.086l1.659-0.023l2.303-0.071l0.453,1.086l-2.184,0.071l-0.704,1.098l3.067,0.071l-0.382,1.003L154.483,320.087z
				 M154.435,326.387l-3.007,0.036l-2.112-0.107l-0.43-1.074l2.136,0.06l1.444-0.035l-0.083-0.932l-2.136-0.215l-0.179-0.918
				l2.422,0.071l-0.012-0.871l-1.754-0.096l-0.728,0.764l-0.979-0.274l0.823-1.348l0.442-1.026l1.241,0.19l-0.394,0.8l1.348-0.048
				l0.024-0.859l1.181-0.298l0.012,1.086h3.079l-0.37,0.966l-2.685,0.203l-0.036,0.716l2.267,0.096l0.287,0.919l-2.542,0.071
				l-0.12,0.979l1.48,0.024l1.969-0.096l0.597,1.193L154.435,326.387z M153.838,317.82l-2.792,0.071l0.477,1.17l1.861-0.06
				L153.838,317.82z"/>
			<path fill="#595757" d="M167.974,326.495l-0.12-0.848l-3.437,0.215l-3.544-0.167l-0.155,0.704l-1.169,0.274l0.06-2.351
				l0.155-2.147l1.158-0.382l-0.036,2.721l2.708,0.048l0.024-3.509l-1.683-0.06l-1.778,0.024l0.131-3.688l1.181-0.453l-0.048,2.947
				l2.208,0.071l0.012-1.933l-0.036-2.089l1.325,0.454l-0.083,3.52l2.279-0.06l0.072-2.983l1.169,0.441l0.048,3.651l-1.659,0.084
				l-1.874-0.023l0.072,3.579l2.864-0.083l0.095-2.732l1.122,0.357l0.096,2.231l0.072,1.766L167.974,326.495z"/>
			<path fill="#595757" d="M174.568,326.292l1.551-1.276l0.609-1.276l-0.621,0.095l-0.99-0.227l-0.764-0.572l-0.191-0.979
				l0.215-0.812l0.68-0.633l1.122-0.179l0.895,0.286l-0.047-1.241l-2.84,0.287l-2.673,0.513l-0.883-1.241l2.351-0.298l2.602-0.263
				l1.36-0.131l-0.179-2.351l1.468,0.369l-0.072,1.922l1.193-0.061l1.981-0.047l0.549,1.324l-2.196-0.084l-1.491,0.036v0.859
				l-0.024,1.539l-0.12,1.694l-0.68,1.873l-1.146,1.36L174.568,326.292z M177.014,322.306l-0.167-0.549l-0.621-0.25l-0.644,0.107
				l-0.251,0.417l0.024,0.358l0.668,0.357l0.656-0.06L177.014,322.306z"/>
			<path fill="#595757" d="M190.409,325.802l-0.979,0.441l-1.658,0.215l-1.492-0.394l-0.906-0.823l-0.095-0.835l0.489-0.692
				l1.038-0.334l1.158,0.144l0.835,0.68l0.358,0.919l0.334-0.107l0.549-0.478l0.43-0.895l-0.287-0.931l-0.871-0.478l-1.516-0.012
				l-1.288,0.31l-1.349,0.645l-0.99,0.919l-1.348-0.525l1.873-1.777l1.969-2.195l1.443-1.694l-1.348,0.19l-1.552,0.299l-0.775-1.206
				l2.481-0.202l1.778-0.358l0.382-0.25l1.17,0.918l-2.089,2.196l-1.957,2.136l1.276-0.418l1.218-0.144l1.193,0.12l1.122,0.537
				l0.691,1.085l-0.035,1.229l-0.395,0.967L190.409,325.802z M187.82,324.764l-0.466-0.394l-0.607,0.012l-0.239,0.251l0.202,0.43
				l0.801,0.334l0.512-0.024L187.82,324.764z"/>
		</g>
		<g>
			<path fill="#595757" d="M8.341,181.821l-2.506,0.06l-2.47-0.035l-2.375,0.012l-0.477-1.253l2.494,0.144l2.1-0.024l-0.071-2.661
				l-3.807-0.119l0.513-1.026l3.293,0.036l0.06-1.241l-2.136,0.072l-0.024-0.454l-1.694,1.063L0,175.7l2.017-1.086l1.837-1.563
				l1.301-1.622l1.325,0.143L6.336,172l1.432,1.396l1.778,1.157l2.148,0.907l-1.181,0.883l-1.969-1.038l-0.083,0.405l-2.219,0.06
				l0.048,1.074l1.348,0.071l2.494-0.095l-0.346,1.038l-3.425,0.19l-0.071,2.709l2.601-0.036l2.136-0.179l-0.501,1.288
				L8.341,181.821z M3.222,180.616l-1.122-1.73l1.11-0.405l1.038,1.313L3.222,180.616z M6.467,173.814l-0.871-0.918l-1.026,1.05
				l-0.919,0.787l2.124,0.036l1.897-0.036L6.467,173.814z M7.1,180.007l1.002-1.623l1.098,0.37l-0.907,1.778L7.1,180.007z"/>
			<path fill="#595757" d="M19.577,174.602l-2.386,0.023l-2.494,0.036l-0.119,2.506l-0.394,2.565l-0.704,2.22l-1.336-0.144
				l0.895-2.542l0.37-2.291l0.083-2.362l-0.072-2.673l2.888-0.167l3.031,0.048l2.852-0.024l-0.024,2.649L19.577,174.602z
				 M21.223,182.584l-1.157-1.205l1.181,0.048l0.311-0.274l-0.072-1.587l-0.99,0.012l0.835,1.265l-0.883,0.37l-0.274-0.274
				l-1.563,0.418l-1.814,0.119l-0.871-1.002l2.064-0.12l-0.036-0.739l-2.1,0.107l-0.096,2.685l-1.11,0.215l0.048-3.89l3.27,0.06
				l0.012-0.454l-2.602-0.035l-0.024-2.028l2.518-0.036l0.023-0.358l-1.933,0.024l-0.8-0.74l2.685-0.119l2.673-0.263l1.109,0.764
				l-2.565,0.203l-0.06,0.43l2.673-0.144l-0.072,2.184l-2.505,0.119l-0.072,0.395l3.663-0.084l0.048,3.258L21.223,182.584z
				 M20.961,172.86l-3.198-0.036l-3.043,0.107l-0.048,0.764l3.079,0.072l3.15-0.167L20.961,172.86z M17.954,176.941l-1.468,0.083
				l-0.048,0.525l1.516,0.071V176.941z M19.577,179.781l0.334-0.203l-0.895,0.012l-0.107,0.729l0.895-0.107L19.577,179.781z
				 M20.567,176.857l-1.623,0.096l0.024,0.585l1.575,0.095L20.567,176.857z"/>
			<path fill="#595757" d="M25.288,182l-0.131-2.459l0.095-2.255l0.155-2.291l0.406-2.828l1.265,0.74l-0.382,2.04l-0.167,2.148
				l-0.048,2.207l0.25,2.231L25.288,182z M33.557,181.487l-0.74-0.716l-0.382-0.311l-0.131,0.514l-0.847,0.561l-1.193,0.203
				l-0.895-0.072l-0.955-0.477l-0.406-0.406l-0.191-1.134l0.716-0.799l1.348-0.215l1.479,0.155l-0.06-1.349l-0.072-1.658
				l-1.276,0.143l-2.184,0.608l0.358-1.396l1.957-0.43l1.11-0.144l0.083-2.613l1.289,0.514l-0.191,1.957l2.208-0.191l-0.537,1.324
				l-1.635,0.107l0.012,0.848l0.155,2.446l-0.024,0.215l0.943,0.537l1.456,1.121L33.557,181.487z M31.242,179.936l-0.561-0.167
				l-0.859-0.06l-0.632,0.06l-0.191,0.334l0.346,0.382l0.585,0.155l0.895-0.036l0.358-0.334L31.242,179.936z"/>
			<path fill="#595757" d="M10.202,199.629l-1.98-1.277l-1.671-1.837l-0.883-1.433l-1.134,1.026l0.024,2.327l2.518-0.764
				l-0.37,1.301l-2.148,0.632l-2.446,0.382l-0.955-1.193l2.16-0.143l0.012-2.041l-2.124,0.836L0,196.55l1.981-0.549l1.563-0.656
				l1.086-0.739l-3.627,0.071l-0.478-1.146l2.422,0.107l2.172-0.071l0.06-0.704l-3.246-0.132l0.454-0.858l2.673-0.072l0.095-0.787
				l-3.961,0.071l0.525-1.146l3.401,0.048l-0.012-0.8l1.253-0.334L6.324,190l3.651-0.19l0.632,1.121l-4.295,0.167l0.023,0.704
				l3.365-0.071l-0.37,0.931l-3.019,0.096l0.083,0.704l2.291,0.06l1.969-0.084l0.537,1.146l-2.387-0.023l-2.136,0.071l1.074,1.516
				l1.611-1.182l1.038,0.454l-1.85,1.599l1.217,0.967l1.802,0.787L10.202,199.629z"/>
			<path fill="#595757" d="M21.021,199.712l-0.072-0.501l-3.389-0.071l-3.27,0.096l-0.036,0.536l-1.301,0.132l0.179-2.792
				l0.107-2.638v-2.804l3.317,0.048l0.358-1.05l-2.041-0.036l-2.518,0.071l0.537-1.217l2.351,0.048l2.422-0.107l2.864,0.048
				l2.637-0.06l-0.478,1.217l-2.112-0.024l-2.351,0.061l-0.227,0.954l1.802,0.06l2.351-0.048l0.071,2.864l0.036,2.613l0.119,2.78
				L21.021,199.712z M15.723,195.31l-0.036-2.53l-1.265,0.072l0.024,2.47l-0.131,2.696l1.277,0.084L15.723,195.31z M18.431,196.742
				l-1.635,0.096l-0.119,1.205l1.861-0.06L18.431,196.742z M18.455,192.745l-1.623-0.036l-0.036,1.062l1.599-0.06L18.455,192.745z
				 M18.455,194.546l-1.575,0.25l-0.047,1.11l1.551-0.107L18.455,194.546z M21.021,195.31l-0.167-2.471l-1.241-0.143l-0.083,2.625
				l0.131,2.756l1.301-0.071L21.021,195.31z"/>
			<path fill="#595757" d="M25.252,198.949l-0.083-2.696v-1.694l0.25-2.315l0.465-2.601l1.289,0.751l-0.489,1.803l-0.25,2.171
				l0.036,2.184l0.25,2.709L25.252,198.949z M31.6,192.267l-1.79,0.119l-1.432,0.263l0.465-1.372l1.205-0.191l1.36-0.119l1.36,0.096
				l0.525,1.36L31.6,192.267z M31.123,198.806l-1.301-0.537l-0.859-0.728l-0.501-1.206l0.883-1.503l0.417,1.491l0.692,0.788
				l1.146,0.417l2.16,0.18l-1.026,1.3L31.123,198.806z"/>
			<path fill="#595757" d="M34.638,197.744l1.778-1.587l1.253-1.861l0.549-1.372l-2.911-0.024l0.573-1.062l2.78-0.048l0.167-0.25
				l0.799,0.787l-0.728,2.064l-1.348,2.267l-1.503,1.611L34.638,197.744z M45.079,198.269l-1.707-1.408l-1.503-1.754l-0.847-1.444
				v2.936l0.072,2.673l-1.635,0.656l-1.479-1.455l1.468,0.035l0.298-0.31l0.107-3.055l-0.012-3.103l-0.107-2.638l1.348-0.477
				l-0.036,2.076l0.287,0.966l0.584,0.991l1.122-0.907l1.158-1.205l1.217,0.608l-1.384,1.313l-1.527,1.157l0.751,1.05l1.253,1.241
				l1.909,1.205L45.079,198.269z"/>
			<path fill="#595757" d="M52.663,199.76l-1.623-0.263l-1.109-0.536l-0.465-1.146l0.441-1.146l1.539-1.241l0.298-0.132
				l-0.441-0.549l-1.086-0.06l-1.241,1.433l-1.468-0.299l1.563-1.694l1.074-1.694l-1.563,0.083l-0.775-1.146l2.16-0.071l0.752-0.144
				l0.871-2.303l0.991,0.955l-0.513,1.134l2.208-0.764l-0.334,1.396l-1.432,0.478l-0.99,0.227l-0.847,1.313l1.336,0.144l0.74,0.812
				l0.119,0.274l1.217-0.514l2.208-0.704l1.014,1.038l-2.589,0.621l-1.468,0.597l0.06,1.67l-1.348,0.299l0.107-0.979v-0.406
				l-0.907,0.585l-0.346,0.728l0.346,0.514l1.313,0.298l1.289-0.071l1.468-0.274l-0.417,1.456L52.663,199.76z"/>
			<path fill="#595757" d="M8.329,216.651l-2.601,0.012l-2.482,0.012l-2.255,0.048l-0.501-1.324l2.446,0.131l2.303,0.013
				l0.048-2.554l-2.84,0.131l-0.394-1.241l3.246,0.061l0.06-2.089l-2.47,0.012l-1.217,1.707l-1.133-0.251l0.812-1.36l0.62-1.479
				l0.478-1.671l1.05,0.478l-0.25,1.36l2.064,0.144l0.107-2.005l1.193-0.43l-0.024,2.458l4.081-0.263l-0.525,1.277l-3.568,0.083
				l-0.036,1.993l3.568-0.132l-0.489,1.241L7.935,213l-1.348,0.012l-0.12,2.446l2.088,0.036l2.721-0.144l-0.478,1.313L8.329,216.651
				z"/>
			<path fill="#595757" d="M18.204,216.639l-1.921,0.382l-1.635-0.107l-1.002-1.026l-0.06-2.804l0.048-2.972l-0.072-3.389
				l1.54,0.585l-0.179,2.84l-0.06,2.875l0.095,2.112l0.621,0.573l1.169-0.013l1.133-0.334l0.764-0.43l1.217-1.062l-0.072,1.933
				L18.204,216.639z M18.096,209.503l-1.229-1.349l0.8-0.382l1.324,1.157L18.096,209.503z M19.457,208.835l-1.146-1.349l0.788-0.43
				l1.205,1.193L19.457,208.835z"/>
			<path fill="#595757" d="M25.716,217.021l-1.265-0.525l-0.907-0.954l-0.31-1.218l0.501-1.098l1.098-0.739l1.42-0.215l1.109,0.154
				l-0.501-1.265l-0.394-0.895l-1.814,0.227l-1.802-0.036l-0.704-1.3l2.184,0.095l1.742-0.167l-0.203-0.764l-0.263-1.146
				l1.277-0.752l0.263,1.433l0.203,0.919l1.05-0.287l1.623-0.871l-0.107,1.492l-1.098,0.513l-1.11,0.334l0.167,0.549l0.561,1.277
				l0.955,1.837l-1.182,0.311l-0.704-0.418l-1.73-0.131l-0.812,0.382l-0.37,0.62l0.239,0.669l0.74,0.561l1.05,0.286l1.575,0.084
				l-1.193,1.24L25.716,217.021z"/>
			<path fill="#595757" d="M38.204,216.699l-1.349-0.286l-1.229-0.478l-0.835-0.752l-0.465-1.443l-0.048-2.291v-0.048l-2.315,0.477
				l-0.704-1.229l2.995-0.406v-0.321l0.096-2.029l1.241-0.524l-0.036,1.933l-0.012,0.764l2.1-0.298l1.193-0.18l0.012-1.121
				l-0.096-1.611l1.313,0.502l0.024,1.348l-0.048,0.692l2.78-0.43l-0.346,1.36l-1.98,0.227l-0.549,0.071l-0.144,1.17l-0.322,1.289
				l-1.086,0.703l-1.026-0.119l-0.907-1.276l1.36,0.179l0.525-0.311l0.274-0.764l0.072-0.739l-0.99,0.119l-2.16,0.311l-0.012,1.742
				l0.203,1.098l0.489,0.799l1.158,0.454l1.599,0.227l1.73-0.06l-0.871,1.432L38.204,216.699z"/>
			<path fill="#595757" d="M51.253,216.4l-0.979,0.441l-1.659,0.215l-1.492-0.394l-0.907-0.823l-0.095-0.835l0.489-0.692
				l1.038-0.334l1.157,0.144l0.835,0.68L50,215.72l0.334-0.107l0.549-0.478l0.43-0.895l-0.287-0.931l-0.871-0.478l-1.516-0.012
				l-1.289,0.31l-1.349,0.645l-0.99,0.919l-1.348-0.525l1.873-1.777l1.969-2.195l1.444-1.694l-1.348,0.19l-1.551,0.299l-0.775-1.206
				l2.482-0.202l1.778-0.358l0.382-0.25l1.169,0.918l-2.088,2.196l-1.957,2.136l1.277-0.418l1.217-0.144l1.193,0.12l1.122,0.537
				l0.692,1.085l-0.036,1.229l-0.394,0.967L51.253,216.4z M48.664,215.362l-0.465-0.394l-0.609,0.012l-0.238,0.251l0.203,0.43
				l0.799,0.334l0.513-0.024L48.664,215.362z"/>
		</g>
		<path fill="#595757" d="M70.894,139.905c0-2.729-0.088-5.481,0.712-7.944c0.829-2.552,2.187-4.981,3.733-7.106
			c1.562-2.146,3.349-4.336,5.495-5.897c2.124-1.546,4.847-2.292,7.398-3.121c2.463-0.8,5.092-0.694,7.821-0.694
			s5.308,0.049,7.771,0.85c2.552,0.828,4.561,2.471,6.685,4.016c2.145,1.562,4.479,2.861,6.041,5.007
			c1.546,2.125,2.899,4.468,3.728,7.021c0.799,2.462,0.417,5.142,0.417,7.871s-0.401,5.154-1.201,7.617
			c-0.829,2.552-1.988,4.722-3.534,6.846c-1.561,2.146-2.934,4.385-5.08,5.946c-2.125,1.546-4.53,2.599-7.083,3.427
			c-2.462,0.8-5.016,1.283-7.745,1.283c-2.729,0-5.273-0.515-7.735-1.314c-2.552-0.829-4.709-2.206-6.833-3.752
			c-2.146-1.562-4.259-3.095-5.82-5.24c-1.546-2.124-3.48-4.235-4.31-6.787C70.556,145.467,70.894,142.633,70.894,139.905z"/>
		<g>
			<path fill="#FFFFFF" d="M84.303,145.806l3.831-3.42l2.7-4.011l1.183-2.957l-6.273-0.051l1.234-2.289l5.99-0.103l0.36-0.54
				l1.723,1.697l-1.568,4.447l-2.906,4.886l-3.239,3.471L84.303,145.806z M106.8,146.937l-3.676-3.033l-3.24-3.78l-1.826-3.111
				v6.325l0.154,5.76l-3.522,1.414l-3.188-3.137l3.163,0.077l0.643-0.669l0.231-6.581l-0.026-6.686l-0.231-5.682l2.906-1.029
				l-0.077,4.475l0.617,2.082l1.26,2.135l2.417-1.955l2.494-2.597l2.623,1.312l-2.982,2.828l-3.291,2.494l1.62,2.263l2.7,2.674
				l4.114,2.597L106.8,146.937z"/>
		</g>
		<path fill="#35B597" d="M157.718,84.663c0-2.729-0.088-5.481,0.712-7.944c0.829-2.552,2.188-4.981,3.733-7.106
			c1.562-2.146,3.349-4.336,5.495-5.898c2.124-1.546,4.847-2.292,7.399-3.121c2.462-0.8,5.092-0.694,7.821-0.694
			s5.309,0.049,7.771,0.849c2.552,0.829,4.561,2.471,6.685,4.017c2.146,1.562,4.479,2.861,6.04,5.007
			c1.547,2.125,2.9,4.468,3.729,7.02c0.8,2.463,0.418,5.143,0.418,7.872c0,2.729-0.401,5.155-1.201,7.617
			c-0.828,2.552-1.988,4.722-3.533,6.846c-1.563,2.146-2.936,4.385-5.08,5.947c-2.125,1.546-4.531,2.598-7.083,3.426
			c-2.462,0.8-5.016,1.283-7.745,1.283c-2.729,0-5.273-0.515-7.735-1.314c-2.552-0.829-4.709-2.206-6.833-3.752
			c-2.146-1.562-4.259-3.094-5.82-5.24c-1.546-2.125-3.48-4.236-4.309-6.788C157.38,90.225,157.718,87.392,157.718,84.663z"/>
		<g>
			<path fill="#FFFFFF" d="M192.417,93.397l-2.803-2.108l-2.957-2.7l-2.982-3.805l-0.103,5.656l0.18,6.351l-2.905,0.668l0.231-5.914
				l0.051-6.454l-2.442,3.137l-2.083,2.262l-3.754,2.905l-2.931-1.439l4.474-3.008l3.471-3.419l2.725-3.959l-7.662-0.18l-0.9-2.52
				l4.422,0.128l4.499-0.154l0.154-4.962l2.571,0.72l0.18,4.268l4.705,0.025l4.885-0.154l-1.182,2.7l-8.253,0.052l3.369,4.037
				l3.599,3.419l4.269,2.597L192.417,93.397z"/>
		</g>
		<path fill="#E9546B" d="M236.912,141.384c0-2.729-0.088-5.481,0.712-7.944c0.828-2.552,2.188-4.981,3.733-7.105
			c1.562-2.146,3.349-4.337,5.494-5.898c2.124-1.546,4.847-2.292,7.399-3.121c2.463-0.799,5.092-0.694,7.82-0.694
			c2.729,0,5.309,0.05,7.771,0.85c2.552,0.829,4.561,2.47,6.685,4.017c2.146,1.562,4.479,2.861,6.04,5.007
			c1.547,2.124,2.9,4.468,3.729,7.02c0.8,2.463,0.418,5.143,0.418,7.871c0,2.729-0.4,5.155-1.201,7.618
			c-0.828,2.552-1.988,4.721-3.533,6.845c-1.563,2.146-2.935,4.386-5.08,5.947c-2.125,1.546-4.531,2.598-7.082,3.427
			c-2.463,0.799-5.017,1.282-7.746,1.282c-2.729,0-5.272-0.515-7.735-1.313c-2.552-0.829-4.709-2.206-6.833-3.753
			c-2.146-1.562-4.26-3.094-5.82-5.239c-1.547-2.125-3.48-4.236-4.31-6.788C236.573,146.947,236.912,144.114,236.912,141.384z"/>
		<g>
			<path fill="#FFFFFF" d="M271.254,152.6l-3.882-2.854l-3.034-2.932l-1.825-2.493l-0.797-1.414l-1.929,3.702l-3.085,3.445
				l-3.549,2.699l-3.06-1.825l3.548-1.671l2.52-2.289l2.418-3.342l1.517-4.757l0.128-4.088l-0.128-5.425l2.931,0.899l-0.077,4.089
				l0.052,4.987l1.748,3.677l2.186,2.751l2.905,2.442l4.448,2.442L271.254,152.6z M251.765,140.516l1.363-3.754l0.693-3.522
				l2.34,1.671l-0.668,3.343l-1.028,2.417L251.765,140.516z M266.395,139.694l1.8-3.291l1.131-3.188l2.52,1.774l-1.516,3.162
				l-1.158,1.825L266.395,139.694z"/>
		</g>
		<path fill="#F6AC19" d="M209.13,233.777c0-2.729-0.088-5.481,0.713-7.944c0.828-2.552,2.188-4.981,3.732-7.105
			c1.563-2.146,3.35-4.337,5.495-5.898c2.124-1.546,4.847-2.292,7.399-3.121c2.462-0.8,5.092-0.694,7.82-0.694
			s5.309,0.05,7.771,0.85c2.552,0.828,4.561,2.471,6.685,4.017c2.146,1.562,4.479,2.861,6.04,5.007
			c1.547,2.124,2.9,4.468,3.729,7.02c0.8,2.463,0.418,5.143,0.418,7.871c0,2.729-0.401,5.155-1.201,7.618
			c-0.828,2.552-1.988,4.721-3.534,6.845c-1.562,2.146-2.935,4.386-5.079,5.947c-2.125,1.546-4.531,2.598-7.083,3.426
			c-2.462,0.8-5.017,1.283-7.745,1.283c-2.729,0-5.273-0.515-7.735-1.313c-2.552-0.829-4.709-2.207-6.833-3.753
			c-2.146-1.562-4.26-3.094-5.82-5.239c-1.547-2.125-3.48-4.236-4.31-6.788C208.792,239.339,209.13,236.506,209.13,233.777z"/>
		<g>
			<path fill="#FFFFFF" d="M240.712,242.096l-5.502,0.026h-5.091l-5.193,0.077l-1.183-2.957l5.219,0.257l4.603-0.231l0.206-4.859
				l0.051-4.011l-7.354-0.231l-0.873-2.699l8.124,0.18l0.128-7.456l2.752,1.156v6.274l8.562-0.386l-1.003,2.982l-7.379,0.025
				l-0.18,4.396l0.103,4.68l4.757,0.051l4.499-0.18l1.234,2.7L240.712,242.096z"/>
		</g>
		<path fill="#FFFFFF" stroke="#595757" stroke-width="0.5684" stroke-miterlimit="10" d="M106.494,232.552
			c0-2.729-0.088-5.481,0.711-7.944c0.829-2.552,2.188-4.981,3.734-7.105c1.562-2.146,3.349-4.337,5.495-5.898
			c2.124-1.546,4.847-2.292,7.399-3.121c2.462-0.8,5.092-0.694,7.821-0.694s5.308,0.05,7.771,0.85
			c2.552,0.828,4.561,2.471,6.685,4.017c2.146,1.562,4.479,2.861,6.041,5.007c1.546,2.124,2.9,4.468,3.729,7.02
			c0.799,2.463,0.417,5.143,0.417,7.871c0,2.729-0.401,5.155-1.201,7.618c-0.829,2.552-1.988,4.721-3.534,6.845
			c-1.562,2.146-2.934,4.386-5.08,5.947c-2.125,1.546-4.53,2.598-7.083,3.426c-2.463,0.8-5.016,1.283-7.745,1.283
			c-2.729,0-5.273-0.515-7.735-1.313c-2.552-0.829-4.709-2.207-6.833-3.753c-2.146-1.562-4.259-3.094-5.82-5.239
			c-1.546-2.125-3.481-4.236-4.31-6.788C106.156,238.115,106.494,235.282,106.494,232.552z"/>
		<g>
			<path fill="#595757" d="M136.92,241.69l-5.399,0.129l-5.322-0.077l-5.116,0.025l-1.029-2.7l5.374,0.309l4.525-0.051l-0.154-5.733
				l-8.202-0.258l1.105-2.211l7.096,0.077l0.128-2.674l-4.602,0.154l-0.051-0.978l-3.651,2.289l-2.674-1.491l4.345-2.34l3.959-3.368
				l2.803-3.497l2.854,0.309l-0.309,0.926l3.085,3.008l3.831,2.494l4.628,1.954l-2.545,1.902l-4.242-2.236l-0.18,0.874l-4.782,0.129
				l0.103,2.313l2.905,0.154l5.374-0.206l-0.746,2.237l-7.379,0.411l-0.154,5.837l5.605-0.077l4.603-0.386l-1.08,2.776
				L136.92,241.69z M125.89,239.093l-2.417-3.729l2.391-0.874l2.237,2.828L125.89,239.093z M132.884,224.438l-1.877-1.98
				l-2.211,2.263l-1.98,1.697l4.577,0.077l4.088-0.077L132.884,224.438z M134.247,237.782l2.16-3.497l2.365,0.798l-1.954,3.83
				L134.247,237.782z"/>
		</g>
		<g>
			<path fill="#35B597" d="M182.003,53.711c0,0-13.925,2.785-17.47-6.836c0,0-12.406-6.583-7.089-14.179
				c0,0-8.102-17.47,6.583-18.989c0,0,0.506-9.115,8.102-12.66c7.596-3.544,13.925,3.039,13.925,3.039s6.077-5.064,12.66,2.532
				c0,0-0.507,3.798-1.266,5.317c0,0,11.14,1.519,8.102,12.913c0,0,7.596,3.544,3.038,13.166c-2.436,5.142-8.608,4.304-8.608,4.304
				s0.76,7.596-8.355,7.596C191.624,49.913,190.358,55.483,182.003,53.711z"/>
			<polygon fill="#71696C" points="180.99,20.29 178.965,64.851 185.717,64.851 182.341,12.863 180.671,12.188 			"/>
			<path fill="#71696C" d="M163.706,29.658c0,0,9.385,7.849,17.284,8.355l-0.54,6.077c0,0-9.047-4.135-17.689-12.913L163.706,29.658
				z"/>
			<path fill="#71696C" d="M167.371,20.543c0,0,8.813,6.164,15.139,6.488l-0.433,3.893c0,0-8.542-3.784-15.463-9.407L167.371,20.543
				z"/>
			<path fill="#71696C" d="M199.642,25.607c0,0-9.826,7.667-16.879,8.07l0.482,4.842c0,0,9.524-4.708,17.24-11.702L199.642,25.607z"
				/>
			<path fill="#71696C" d="M194.209,15.227c0,0-6.663,4.66-11.446,4.905l0.327,2.943c0,0,6.459-2.861,11.691-7.113L194.209,15.227z"
				/>
		</g>
		<g>
			<path fill="#89B8BD" d="M53.609,87.251c0,0-37.006,54.535,0,54.535S53.609,87.251,53.609,87.251z"/>
			<path fill="#89B8BD" d="M85.978,86.819c0,0-25.111,37.006,0,37.006C111.088,123.825,85.978,86.819,85.978,86.819z"/>
		</g>
		<g>
			<path fill="#71696C" d="M281.158,121.013l-9.214,3.62c0,0,1.412,3.768,4.238,4.238l10.627-7.858
				C286.81,121.013,285.397,116.775,281.158,121.013z"/>
			<path fill="#71696C" d="M291.519,122.897c0,0-0.406,8.754-0.406,10.638s1.884,2.826,4.709,0.942l-1.477-15.348
				C294.345,119.129,291.048,117.717,291.519,122.897z"/>
			<path fill="#71696C" d="M299.997,118.659l16.097,5.195c0,0,1.413,3.768-0.942,5.18c-2.354,1.413-20.336-11.787-20.336-11.787
				L299.997,118.659z"/>
			<path fill="#71696C" d="M290.577,117.247l-8.947,15.07c0,0,1.412,3.296,4.238,0.941c2.825-2.354,5.18-14.6,5.18-14.6
				L290.577,117.247z"/>
			<path fill="#71696C" d="M295.758,117.247l8.948,15.07c0,0-1.413,3.296-4.238,0.941c-2.826-2.354-5.181-14.6-5.181-14.6
				L295.758,117.247z"/>
			<g>
				<path fill="#E9546B" d="M295.287,126.194c0,0-23.077,0.942-20.251-16.954c2.826-17.896-0.942-22.135-0.942-22.135
					s9.419-0.942,9.89,9.419c0,0,3.457-3.625,0.472-11.303c-3.297-8.477,5.651-16.013,9.419-16.483c0,0-1.884,11.774,4.709,19.309
					c0,0,0.942-4.239,0-8.477c0,0,15.462,17.754,14.129,31.083C311.771,120.072,308.474,127.136,295.287,126.194z"/>
				<path fill="#FEDC5E" d="M294.815,121.956c-5.604,0.724-10.36-1.884-10.36-6.594c0-4.709,3.296-7.064,3.296-7.064
					s0,1.884,0.942,3.297c0,0,6.122-3.768,4.239-7.064c0,0,4.709,3.297,4.709,6.123c0,0,1.884-2.198,1.1-3.297
					c-0.785-1.099,0.784,1.099,0.784,1.099s3.14,1.884,2.983,5.024C302.509,113.479,304.549,120.7,294.815,121.956z"/>
			</g>
		</g>
		<g>
			<path fill="#71696C" d="M265.572,246.253c15.3,0,24.962,2.001,24.962,8.857c0,4.026,16.677,2.306,11.33,14.738
				c-4.62,10.745-62.375,9.356-66.084,4.185c-6.508-9.072,3.221-12.078,8.051-13.688c4.832-1.61-3.258-5.912,6.04-10.871
				C255.91,246.253,262.327,246.253,265.572,246.253z"/>
			<g>
				<path fill="#35B597" d="M268.796,240.33c0,0-7.088-5.85-9.494-1.797C256.896,242.584,267.556,242.553,268.796,240.33z"/>
				<path fill="#35B597" d="M268.847,240.33c0,0,7.088-5.85,9.493-1.797C280.745,242.584,270.087,242.553,268.847,240.33z"/>
			</g>
			<rect x="268.217" y="240.214" fill="#35B597" width="1.208" height="14.896"/>
		</g>
		<g>
			<g>
				<path fill="none" stroke="#E9546B" stroke-width="2.9238" stroke-miterlimit="10" d="M92.767,81.211
					c13.771-16.687,32.104-29.468,53.09-36.435"/>
				<g>
					<polygon fill="#E9546B" points="141.973,51.424 145.063,45.129 138.768,42.043 142.75,40.682 149.043,43.77 145.956,50.063
											"/>
				</g>
			</g>
		</g>
		<g>
			<g>
				<g>
					<path fill="none" stroke="#E9546B" stroke-width="2.9238" stroke-miterlimit="10" d="M217.099,44.113
						c20.996,5.218,40.439,16.236,55.784,32.158"/>
					<g>
						<polygon fill="#E9546B" points="265.21,75.638 272.222,75.708 272.288,68.697 275.235,71.702 275.167,78.711 268.157,78.643
													"/>
					</g>
				</g>
			</g>
		</g>
		<g>
			<g>
				<g>
					<path fill="none" stroke="#E9546B" stroke-width="2.9238" stroke-miterlimit="10" d="M300.055,156.058
						c1.585,21.577-2.825,43.486-13.172,63.028"/>
					<g>
						<polygon fill="#E9546B" points="285.094,211.598 287.212,218.283 293.896,216.161 291.958,219.897 285.276,222.017
							283.157,215.335 						"/>
					</g>
				</g>
			</g>
		</g>
		<g>
			<g>
				<g>
					<path fill="none" stroke="#E9546B" stroke-width="2.9238" stroke-miterlimit="10" d="M217.301,277.274
						c-20.569,6.704-42.898,7.666-64.349,2.298"/>
					<g>
						<polygon fill="#E9546B" points="159.794,276.042 153.811,279.7 157.472,285.68 153.38,284.694 149.723,278.714
							155.703,275.056 						"/>
					</g>
				</g>
			</g>
		</g>
		<g>
			<g>
				<g>
					<path fill="none" stroke="#E9546B" stroke-width="2.9238" stroke-miterlimit="10" d="M83.599,223.907
						c-11.986-18.011-18.915-39.258-19.51-61.362"/>
					<g>
						<polygon fill="#E9546B" points="69.328,168.186 64.198,163.406 59.421,168.54 59.271,164.333 64.048,159.203 69.178,163.98
													"/>
					</g>
				</g>
			</g>
		</g>
	</g>
</g>
</svg>
