<?xml version="1.0" encoding="utf-8"?>
<!-- Generator: Adobe Illustrator 16.0.3, SVG Export Plug-In . SVG Version: 6.00 Build 0)  -->
<!DOCTYPE svg PUBLIC "-//W3C//DTD SVG 1.1//EN" "http://www.w3.org/Graphics/SVG/1.1/DTD/svg11.dtd">
<svg version="1.1" id="レイヤー_1" xmlns="http://www.w3.org/2000/svg" xmlns:xlink="http://www.w3.org/1999/xlink" x="0px"
	 y="0px" width="555.777px" height="503.425px" viewBox="0 0 555.777 503.425" enable-background="new 0 0 555.777 503.425"
	 xml:space="preserve">
<path fill="none" stroke="#414448" stroke-width="2" stroke-miterlimit="10" d="M127.994,418.61v-364 M165.994,418.61v-344"/>
<path id="geo" fill="#2AA239" >
<animate attributeType="XML" attributeName="d" dur="2s"  values="M93.358,417.533h31.22v0.918H93.36L93.358,417.533z;M93.358,180.11h31.22v238.341H93.36L93.358,180.11z" fill="freeze" />
</path>
<path fill="#80B056" stroke="#404347" stroke-width="2" stroke-miterlimit="10" d="
M128.055,56.61c0,0,18.895-55.66-47.271-55.61C80.781,1,68.798,52.562,128.055,56.61
	L128.055,56.61z">
<animate attributeType="XML" attributeName="opacity" values="0;1" dur="6s" calcMode="discrete" />
<animateTransform attributeType="xml" attributeName="transform" type="translate" dur="6s" values="0 0;0 0;0 -10;0 0;0 -5;0 0;0 0" keyTimes="0;0.5;0.51;0.52;0.53;0.54;1" />
</path>
<path id="wh" fill="#348BCC" >
<animate attributeType="XML" attributeName="d" dur="2s" values="M169.408,417.533h31.224v0.916h-31.224V417.533z;M169.408,203.61h31.22v213.923h-31.22V203.61z" fill="freeze"/>
</path>
<path fill="#80B056" stroke="#404347" stroke-width="2" stroke-miterlimit="10" d="M166.277,120.6c0,0,52.88,25.66,61.05-40
	C227.327,80.6,177.654,62.306,166.277,120.6z">
<animate attributeType="XML" attributeName="opacity" values="0;1" dur="3s" calcMode="discrete" />
<animateTransform attributeType="xml" attributeName="transform" type="translate" dur="3s" values="0 0;0 0;0 -10;0 0;0 -5;0 0;0 0" keyTimes="0;0.5;0.51;0.52;0.53;0.54;1" />
</path>
<path id="jh" fill="#C93678" >
<animate attributeType="XML" attributeName="d" dur="3s" values="M131.383,417.533h31.224v0.916h-31.224V417.533z;M131.383,156.078h31.223v262.371h-31.223V156.078z" fill="freeze"/>
</path>
<path fill="#F8D6AA" d="M147.97,501.714c-1.04-1.447-55.657-77.385-59.887-83.266h119.771
	C203.629,424.33,149.015,500.267,147.97,501.714L147.97,501.714z"/>
<path fill="#7C7E7F" d="M123.514,467.71h48.915l-24.46,34.004"/>
<path fill="none" stroke="#414448" stroke-width="2" stroke-miterlimit="10" d="M241.835,101.71l-34.84,31.9v284.841l-60.047,83.264
	l-59.954-83.266V160.61l-39.43-37.798 M86.994,418.61h120"/>
<path fill="#80B056" stroke="#404347" stroke-width="2" stroke-miterlimit="10" d="M49.265,123.72c0,0,18.895-55.657-47.271-55.61
	C1.995,68.11-9.99,119.672,49.265,123.72z"/>
<path fill="#80B056" stroke="#404347" stroke-width="2" stroke-miterlimit="10" d="M127.172,120.876
	c0,0,11.777-57.587-53.857-49.254C73.31,71.622,67.877,124.278,127.172,120.876z">
<animate attributeType="XML" attributeName="opacity" values="0;1" dur="2s" calcMode="discrete" />
<animateTransform attributeType="xml" attributeName="transform" type="translate" dur="2s" values="0 0;0 0;0 -10;0 0;0 -5;0 0;0 0" keyTimes="0;0.5;0.51;0.52;0.53;0.54;1" />
</path>
<path fill="#80B056" stroke="#404347" stroke-width="2" stroke-miterlimit="10" d="M165.888,78.944c0,0,58.683-3.36,33.817-64.678
	C199.708,14.266,147.418,22.496,165.888,78.944L165.888,78.944z">
<animate attributeType="XML" attributeName="opacity" values="0;1" dur="5s" calcMode="discrete" />
<animateTransform attributeType="xml" attributeName="transform" type="translate" dur="5s" values="0 0;0 0;0 -10;0 0;0 -5;0 0;0 0" keyTimes="0;0.5;0.51;0.52;0.53;0.54;1" />
</path>
<path fill="#80B056" stroke="#404347" stroke-width="2.071" stroke-miterlimit="10" d="M291.34,47.013
	c-71.138-0.05-50.82,55.446-50.82,55.446C304.226,98.419,291.34,47.013,291.34,47.013z"/>
<path d="M369.758,186.88c-7.4,0-12.98-1.24-16.74-3.72s-5.64-6.1-5.64-10.86c0-5.198,3.1-9.858,9.3-13.98
	c0.238-0.2,0.34-0.438,0.3-0.72v-0.18c-1.521-6.44-2.66-11.798-3.42-16.08c-0.16-0.918,0.03-1.77,0.568-2.55
	c0.54-0.78,1.271-1.25,2.19-1.41l1.5-0.24c0.92-0.158,1.76,0.042,2.521,0.6c0.76,0.562,1.238,1.3,1.438,2.22
	c0.88,4.72,1.84,9.24,2.88,13.56c0.08,0.4,0.28,0.52,0.604,0.36c5.398-2.28,11.92-4.358,19.56-6.24c0.92-0.198,1.78-0.048,2.58,0.45
	c0.8,0.5,1.28,1.21,1.44,2.13l0.118,0.54c0.2,0.922,0.04,1.78-0.479,2.58c-0.521,0.802-1.24,1.3-2.16,1.5
	c-10.12,2.48-17.74,5.2-22.858,8.16c-5.118,2.962-7.682,5.92-7.682,8.88c0,5.2,4.66,7.8,13.98,7.8c5.318,0,10.658-0.358,16.02-1.08
	c0.92-0.12,1.75,0.102,2.49,0.66c0.74,0.563,1.17,1.302,1.29,2.22l0.06,0.42c0.12,0.922-0.106,1.772-0.688,2.552
	c-0.58,0.78-1.33,1.23-2.25,1.35c-5.083,0.72-10.725,1.08-16.922,1.08L369.758,186.88L369.758,186.88z M369.758,370.953
	c-7.4,0-12.98-1.24-16.74-3.72s-5.64-6.101-5.64-10.86c0-5.199,3.1-9.858,9.3-13.979c0.238-0.2,0.34-0.439,0.3-0.721v-0.18
	c-1.521-6.439-2.66-11.801-3.42-16.08c-0.16-0.92,0.03-1.771,0.568-2.551c0.54-0.779,1.271-1.25,2.19-1.41l1.5-0.24
	c0.92-0.158,1.76,0.041,2.521,0.602c0.76,0.561,1.238,1.301,1.438,2.221c0.88,4.723,1.84,9.239,2.88,13.563
	c0.08,0.4,0.28,0.52,0.604,0.359c5.398-2.279,11.92-4.359,19.56-6.24c0.92-0.199,1.78-0.049,2.58,0.451s1.28,1.209,1.44,2.129
	l0.118,0.541c0.2,0.92,0.04,1.779-0.479,2.58c-0.521,0.799-1.24,1.299-2.16,1.5c-10.12,2.479-17.74,5.199-22.858,8.16
	c-5.118,2.959-7.682,5.92-7.682,8.879c0,5.201,4.66,7.801,13.98,7.801c5.318,0,10.658-0.36,16.02-1.08c0.92-0.12,1.75,0.1,2.49,0.66
	c0.74,0.56,1.17,1.3,1.29,2.22l0.06,0.42c0.12,0.92-0.106,1.771-0.688,2.55c-0.58,0.78-1.33,1.23-2.25,1.352
	C381.595,370.591,375.955,370.953,369.758,370.953L369.758,370.953z"/>
<path fill="#2F9A39" d="M315.36,36.168c-2.302,0-4.272-0.825-5.925-2.476c-1.65-1.65-2.476-3.623-2.476-5.925
	c0-2.3,0.818-4.298,2.47-6c1.648-1.7,3.62-2.55,5.92-2.55h23.25c0.898,0,1.438-0.398,1.648-1.2c0.5-2.198,0.99-5.25,1.5-9.15
	c0.392-2.3,1.5-4.174,3.302-5.625c1.8-1.448,3.89-2.124,6.3-2.025h2.1c2.3,0.1,4.17,1.05,5.62,2.85c1.45,1.8,1.97,3.85,1.57,6.15
	l-1.352,7.65c-0.21,0.9,0.142,1.35,1.052,1.35h59.1c2.3,0,4.27,0.85,5.92,2.55c1.65,1.702,2.48,3.7,2.48,6
	c0,2.302-0.83,4.275-2.48,5.925c-1.648,1.65-3.63,2.476-5.93,2.476h-63.129c-0.804,0-1.3,0.4-1.5,1.2c-2.2,7.6-4.9,15.5-8.102,23.7
	v0.3h0.3c10.896-4.1,21.052-6.15,30.45-6.15c13.8,0,24.32,3.025,31.573,9.075c7.25,6.052,10.872,14.677,10.872,25.875
	c0,11.602-5.026,20.925-15.076,27.975c-10.05,7.05-23.53,10.575-40.43,10.575c-9.3,0-19-0.802-29.102-2.4
	c-2.3-0.4-4.13-1.574-5.479-3.524s-1.83-4.073-1.43-6.375v-0.3c0.398-2.3,1.568-4.1,3.52-5.4c1.95-1.3,4.07-1.75,6.37-1.35
	c9.8,1.6,18.5,2.39,26.1,2.39c10.9,0,19.552-2.05,25.95-6.15c6.4-4.1,9.602-9.55,9.602-16.35c0-11.4-7.852-17.1-23.552-17.1
	c-11.398,0-22.198,2.7-32.398,8.1c-5.102,2.7-10.15,3.05-15.15,1.05l-1.5-0.6c-2.1-0.9-3.6-2.4-4.5-4.5
	c-0.898-2.1-0.85-4.2,0.15-6.3c5.188-11.3,9.35-22.1,12.45-32.4c0.188-0.9-0.11-1.35-0.9-1.35h-19.2L315.36,36.168z"/>
<path fill="#C93678" d="M324.81,313.9c-2.4,0.301-4.604-0.227-6.6-1.576c-2.005-1.35-3.255-3.225-3.75-5.625
	c-3.7-16.9-5.554-34.9-5.554-54s1.852-37.1,5.554-54c0.495-2.4,1.745-4.28,3.75-5.63c1.995-1.35,4.196-1.88,6.6-1.58l2.85,0.3
	c2.2,0.2,3.95,1.25,5.25,3.15c1.302,1.9,1.7,3.95,1.2,6.15c-3.5,15.8-5.25,33-5.25,51.6c0,18.6,1.75,35.801,5.25,51.6
	c0.5,2.201,0.102,4.25-1.2,6.15c-1.3,1.891-3.05,2.939-5.25,3.15l-2.85,0.3V313.9z M392.462,308.65
	c-14.102,0-25.229-2.725-33.374-8.176c-8.152-5.45-12.228-12.725-12.228-21.825c0-7.8,4.297-16.55,12.898-26.25
	c1.6-1.8,3.648-2.73,6.148-2.78c2.497-0.05,4.65,0.67,6.45,2.17l0.75,0.451c1.8,1.399,2.748,3.25,2.851,5.549
	c0.101,2.301-0.601,4.301-2.101,6c-4.8,5.801-7.2,10.5-7.2,14.102c0,8.5,8.602,12.75,25.8,12.75c7.602,0,15.75-0.75,24.45-2.25
	c2.298-0.398,4.4,0.068,6.3,1.42c1.898,1.352,3.052,3.12,3.45,5.318v0.602c0.397,2.398-0.052,4.602-1.35,6.602
	c-1.302,2-3.104,3.199-5.4,3.6c-8.998,1.789-18.146,2.689-27.445,2.689V308.65z M367.86,202.15h47.55c2.3,0,4.3,0.85,6,2.55
	c1.7,1.7,2.554,3.7,2.554,6v0.45c0,2.3-0.854,4.3-2.554,6c-1.7,1.7-3.7,2.55-6,2.55h-47.55c-2.302,0-4.271-0.85-5.925-2.55
	c-1.65-1.7-2.475-3.7-2.475-6v-0.45c0-2.3,0.821-4.3,2.475-6C363.587,203,365.558,202.15,367.86,202.15L367.86,202.15z"/>
<path fill="#3483BD" d="M310.712,420.365c-2.305,0-4.302-0.85-6-2.55c-1.7-1.698-2.552-3.698-2.552-6c0-2.3,0.825-4.274,2.477-5.925
	c1.648-1.65,3.625-2.477,5.926-2.477c1.5,0,3.7-0.022,6.6-0.074c2.9-0.051,5.052-0.08,6.46-0.08c0.9,0,1.352-0.45,1.352-1.35
	v-15.302c0-2.3,0.83-4.3,2.479-6c1.65-1.698,3.631-2.55,5.932-2.55h2.1c2.3,0,4.28,0.852,5.93,2.55c1.65,1.7,2.48,3.7,2.48,6v15.149
	c0,0.801,0.45,1.199,1.35,1.199c20.7-0.398,36.052-0.75,46.052-1.049c0.8,0,1.198-0.451,1.198-1.351V383.16
	c0-2.301,0.83-4.301,2.48-6c1.648-1.701,3.63-2.551,5.93-2.551h1.5c2.3,0,4.3,0.85,6,2.551c1.7,1.699,2.55,3.699,2.55,6v16.799
	c0,0.801,0.4,1.201,1.2,1.201c2.602-0.101,6.4-0.25,11.4-0.451c2.3-0.1,4.33,0.65,6.08,2.25c1.75,1.602,2.68,3.551,2.778,5.852
	c0.102,2.3-0.674,4.318-2.322,6.068c-1.65,1.75-3.623,2.67-5.923,2.771c-1.399,0.102-3.399,0.2-6,0.301
	c-2.601,0.1-4.601,0.199-6,0.301c-0.803,0-1.199,0.398-1.199,1.199v23.1c0,7.801-1.33,13.25-3.98,16.352
	c-2.648,3.1-7.17,4.648-13.57,4.648c-5.3,0-13.1-1.1-23.398-3.299c-2.3-0.5-4.07-1.801-5.32-3.9s-1.62-4.301-1.12-6.6l0.301-0.75
	c0.5-2.301,1.724-4.051,3.675-5.25c1.949-1.201,4.023-1.6,6.229-1.201c6.996,1.5,11.896,2.25,14.696,2.25
	c1.9,0,3.05-0.35,3.45-1.049c0.398-0.701,0.602-2.85,0.602-6.451v-17.1c0-0.9-0.457-1.351-1.355-1.351
	c-20.2,0.601-35.552,1-46.052,1.198c-0.8,0-1.198,0.4-1.198,1.201v43.35c0,6,0.727,10.32,2.177,12.973
	c1.45,2.646,4.17,4.479,8.18,5.469c3.99,1,10.54,1.5,19.641,1.5c10.5,0,22-0.65,34.5-1.949c2.301-0.201,4.37,0.42,6.228,1.869
	c1.85,1.451,2.87,3.32,3.07,5.621v0.6c0.199,2.4-0.432,4.52-1.88,6.369c-1.45,1.852-3.375,2.871-5.771,3.07
	c-12,1.301-24.05,1.951-36.149,1.951c-13.604,0-23.801-1.07-30.604-3.23c-6.804-2.158-11.55-5.801-14.25-10.951
	c-2.7-5.145-4.05-12.92-4.05-23.316v-43.052c0-0.899-0.45-1.354-1.352-1.354c-1.398,0-3.55,0.031-6.448,0.08
	c-2.91,0.053-5.062,0.08-6.461,0.08L310.712,420.365z"/>
<path fill="#2F9A39" d="M444.74,118.145c-1.52,0-2.76-0.48-3.724-1.443c-2.204-2.204-3.908-4.718-5.11-7.543
	c-1.204-2.83-1.806-5.79-1.806-8.88c0-3.04,0.605-5.97,1.824-8.8c1.216-2.83,2.913-5.36,5.092-7.58
	c0.988-0.99,2.229-1.48,3.725-1.48h0.271c0.41,0,0.688,0.19,0.84,0.57c0.15,0.38,0.09,0.71-0.19,0.99
	c-4.398,4.81-6.608,10.25-6.608,16.3c0,6.23,2.188,11.68,6.58,16.34c0.278,0.28,0.35,0.6,0.21,0.97
	c-0.142,0.36-0.41,0.55-0.812,0.55h-0.27L444.74,118.145z M453.366,104.2c-0.583,0-1.082-0.21-1.5-0.628
	c-0.42-0.418-0.628-0.918-0.628-1.5V87.098c0-0.583,0.21-1.084,0.627-1.502c0.42-0.418,0.918-0.627,1.5-0.627h0.647
	c0.582,0,1.09,0.21,1.52,0.62c0.434,0.42,0.646,0.92,0.646,1.5v5.32c0.05,0,0.076-0.03,0.076-0.08c2.71-4.41,6.308-6.62,10.792-6.62
	c3.14,0,5.614,1.1,7.43,3.29c1.81,2.19,2.716,5.27,2.716,9.25c0,5.87-1.583,10.25-4.75,13.13s-8.195,4.44-15.086,4.69
	c-0.607,0.02-1.134-0.17-1.577-0.59c-0.45-0.42-0.688-0.93-0.74-1.54l-0.04-0.27c-0.028-0.59,0.15-1.09,0.552-1.5
	c0.39-0.42,0.88-0.64,1.46-0.67c5.39-0.2,9.22-1.33,11.47-3.38c2.25-2.05,3.38-5.35,3.38-9.88c0-2.56-0.46-4.49-1.37-5.8
	s-2.229-1.96-3.95-1.96c-2.328,0-4.5,1.092-6.5,3.29c-2,2.19-3.27,4.94-3.8,8.26c-0.1,0.61-0.37,1.11-0.8,1.52
	c-0.439,0.4-0.95,0.61-1.56,0.61h-0.54L453.366,104.2z M482.018,118.145c-0.405,0-0.678-0.184-0.817-0.55
	c-0.13-0.368-0.06-0.69,0.21-0.97c4.392-4.66,6.58-10.108,6.58-16.34c0-6.054-2.2-11.488-6.608-16.302
	c-0.271-0.278-0.341-0.608-0.19-0.988s0.43-0.57,0.84-0.57h0.271c1.5,0,2.738,0.494,3.729,1.482c2.182,2.229,3.88,4.757,5.09,7.58
	c1.222,2.826,1.83,5.758,1.83,8.798c0,3.09-0.6,6.05-1.8,8.873c-1.2,2.825-2.898,5.34-5.108,7.543c-0.962,0.97-2.2,1.45-3.722,1.45
	h-0.27L482.018,118.145z"/>
<path fill="#C93678" d="M444.74,296.384c-1.52,0-2.76-0.48-3.724-1.443c-2.204-2.199-3.908-4.71-5.11-7.54
	c-1.204-2.819-1.806-5.78-1.806-8.87c0-3.039,0.605-5.97,1.824-8.789c1.216-2.82,2.913-5.351,5.092-7.58
	c0.988-0.979,2.229-1.479,3.725-1.479h0.271c0.41,0,0.688,0.188,0.84,0.569c0.15,0.379,0.09,0.709-0.19,0.99
	c-4.398,4.819-6.608,10.25-6.608,16.309c0,6.23,2.188,11.682,6.58,16.342c0.278,0.279,0.35,0.602,0.21,0.97
	c-0.142,0.37-0.41,0.552-0.812,0.552h-0.27L444.74,296.384z M451.732,293.99c-0.604,0.076-1.172-0.058-1.69-0.398
	c-0.52-0.342-0.843-0.805-0.97-1.387c-0.938-4.279-1.405-8.842-1.405-13.68s0.472-9.398,1.405-13.682
	c0.127-0.582,0.45-1.045,0.97-1.387c0.521-0.342,1.086-0.479,1.69-0.4l0.456,0.04c0.558,0.075,1,0.348,1.33,0.815
	c0.33,0.469,0.43,0.988,0.304,1.539c-0.887,4.01-1.33,8.359-1.33,13.08s0.443,9.069,1.33,13.069c0.127,0.562,0.025,1.069-0.304,1.54
	c-0.33,0.47-0.772,0.75-1.33,0.818L451.732,294V293.99z M465.678,294.371c-2.863,0-5.035-0.597-6.52-1.787
	c-1.479-1.188-2.224-2.926-2.224-5.205c0-2.028,0.696-3.629,2.09-4.81c1.396-1.18,3.61-1.771,6.65-1.771
	c0.836,0,1.66,0.07,2.47,0.23c0.23,0.051,0.342-0.039,0.342-0.271v-3.961c0-0.198-0.11-0.309-0.342-0.309h-7.828
	c-0.558,0-1.045-0.211-1.463-0.631s-0.627-0.91-0.627-1.47s0.21-1.05,0.627-1.46s0.905-0.631,1.463-0.631h7.828
	c0.23,0,0.342-0.119,0.342-0.35v-3.529c0-0.201-0.11-0.301-0.342-0.301h-7.79c-0.583,0-1.083-0.221-1.5-0.65
	c-0.42-0.43-0.628-0.939-0.628-1.52c0-0.582,0.21-1.091,0.627-1.521c0.418-0.431,0.918-0.649,1.5-0.649h17.253
	c0.583,0,1.083,0.213,1.5,0.641c0.42,0.432,0.628,0.938,0.628,1.52c0,0.584-0.21,1.09-0.627,1.52c-0.42,0.435-0.92,0.65-1.51,0.65
	h-3.99c-0.229,0-0.34,0.1-0.34,0.303v3.531c0,0.223,0.11,0.34,0.34,0.34h4.021c0.56,0,1.04,0.211,1.46,0.621
	c0.42,0.409,0.618,0.898,0.618,1.459s-0.21,1.045-0.63,1.463s-0.91,0.631-1.47,0.631h-4.02c-0.23,0-0.352,0.101-0.352,0.299v6.195
	c0,0.205,0.09,0.371,0.271,0.496c1.568,1.141,3.29,2.65,5.158,4.52c0.4,0.439,0.602,0.941,0.602,1.521
	c0,0.59-0.217,1.09-0.648,1.524l-0.112,0.149c-0.432,0.41-0.94,0.609-1.54,0.596c-0.592-0.012-1.104-0.23-1.535-0.663
	c-1.018-1.011-1.75-1.724-2.206-2.128c-0.12-0.123-0.21-0.071-0.26,0.15c-0.407,1.699-1.24,2.989-2.512,3.881
	c-1.266,0.89-2.874,1.33-4.823,1.33L465.678,294.371z M465.451,285.06c-1.34,0-2.31,0.189-2.898,0.57
	c-0.59,0.379-0.892,0.963-0.892,1.748c0,1.771,1.182,2.66,3.54,2.66c1.142,0,1.98-0.291,2.512-0.875c0.54-0.582,0.8-1.506,0.8-2.773
	v-0.418c0-0.23-0.102-0.381-0.3-0.455c-0.83-0.305-1.74-0.457-2.73-0.457H465.451z M480.651,293.535
	c-0.55-0.203-0.95-0.576-1.188-1.119c-0.24-0.547-0.262-1.099-0.052-1.653c3.95-10.136,7.48-19.05,10.57-26.753
	c0.23-0.559,0.62-0.969,1.18-1.234c0.562-0.268,1.132-0.311,1.71-0.133l0.421,0.12c0.561,0.18,0.961,0.528,1.199,1.05
	c0.24,0.521,0.262,1.05,0.062,1.58c-1.261,3.141-2.761,6.92-4.48,11.329v0.079h0.08c1.352-0.938,2.61-1.398,3.8-1.398
	c1.65,0,2.96,0.631,3.94,1.881c0.979,1.26,1.67,3.369,2.07,6.329c0.31,2.21,0.648,3.688,1.028,4.472c0.38,0.778,0.88,1.16,1.48,1.16
	c1.5,0,2.93-2.25,4.3-6.762c0.18-0.58,0.521-1.011,1.027-1.29c0.504-0.278,1.04-0.344,1.595-0.188l0.229,0.078
	c0.582,0.148,1.025,0.488,1.329,1.008c0.306,0.52,0.37,1.06,0.19,1.619c-1.14,3.774-2.407,6.418-3.8,7.926
	c-1.396,1.504-3.064,2.261-5.018,2.261c-1.924,0-3.43-0.649-4.52-1.94c-1.09-1.289-1.891-3.545-2.396-6.764
	c-0.329-1.949-0.698-3.301-1.106-4.046c-0.404-0.75-0.898-1.13-1.48-1.13c-1.216,0-2.508,0.91-3.876,2.736
	c-1.37,1.826-3.04,5.069-5.016,9.729c-0.23,0.562-0.62,0.96-1.18,1.199c-0.562,0.239-1.11,0.261-1.671,0.062l-0.373-0.154
	L480.651,293.535z M525.721,294.371c-4.312,0-7.28-1.045-8.93-3.136c-1.642-2.09-2.472-5.946-2.472-11.569
	c0-4.586,0.142-9.523,0.42-14.819c0.052-0.606,0.29-1.114,0.71-1.521c0.421-0.406,0.932-0.596,1.54-0.57h0.92
	c0.58,0.025,1.07,0.254,1.46,0.687c0.392,0.433,0.58,0.938,0.552,1.521c-0.25,5.451-0.38,10.359-0.38,14.711
	c0,2.74,0.229,4.82,0.67,6.25c0.438,1.438,1.08,2.398,1.92,2.89c0.84,0.5,2.04,0.739,3.608,0.739c4.38,0,7.96-2.989,10.722-8.969
	c0.26-0.531,0.648-0.91,1.198-1.16c0.552-0.24,1.102-0.26,1.66-0.051l0.496,0.229c0.56,0.198,0.964,0.58,1.217,1.142
	c0.256,0.559,0.256,1.1,0,1.639c-3.47,8-8.56,12.011-15.27,12.011L525.721,294.371z M544.871,296.384
	c-0.398,0-0.67-0.184-0.81-0.551s-0.07-0.689,0.21-0.969c4.38-4.662,6.57-10.111,6.57-16.342c0-6.059-2.2-11.486-6.61-16.305
	c-0.28-0.276-0.34-0.604-0.189-0.987c0.149-0.38,0.431-0.569,0.841-0.569h0.27c1.5,0,2.74,0.496,3.73,1.481
	c2.18,2.229,3.88,4.758,5.09,7.582c1.22,2.821,1.83,5.756,1.83,8.797c0,3.09-0.601,6.052-1.8,8.873c-1.2,2.821-2.9,5.34-5.11,7.543
	c-0.96,0.96-2.2,1.438-3.72,1.438h-0.26L544.871,296.384z"/>
<g>
	<path fill="#3483BD" d="M444.74,492.384c-1.52,0-2.76-0.48-3.724-1.443c-2.204-2.199-3.908-4.709-5.11-7.539
		c-1.204-2.82-1.806-5.781-1.806-8.871c0-3.039,0.605-5.971,1.824-8.789c1.216-2.82,2.913-5.352,5.092-7.58
		c0.988-0.98,2.229-1.48,3.725-1.48h0.271c0.41,0,0.688,0.189,0.84,0.57c0.15,0.379,0.09,0.709-0.19,0.99
		c-4.398,4.818-6.608,10.25-6.608,16.309c0,6.23,2.188,11.684,6.58,16.34c0.278,0.281,0.35,0.604,0.21,0.973
		c-0.142,0.371-0.41,0.551-0.812,0.551h-0.27L444.74,492.384z M449.453,468.941c-0.583,0-1.09-0.213-1.52-0.631
		s-0.647-0.918-0.647-1.502c0-0.582,0.218-1.088,0.646-1.52c0.43-0.43,0.938-0.646,1.52-0.646h4.333c0.202,0,0.328-0.109,0.38-0.342
		c0.382-1.672,0.725-3.406,1.025-5.205c0.127-0.582,0.424-1.061,0.896-1.426c0.468-0.371,1.007-0.531,1.611-0.48l0.27,0.029
		c0.582,0.051,1.05,0.311,1.403,0.781c0.355,0.469,0.48,0.99,0.392,1.57c-0.33,1.92-0.61,3.51-0.83,4.75
		c-0.05,0.197,0.04,0.299,0.27,0.299h5.08c0.65,0,1.36,0.08,2.15,0.229c0.79,0.15,1.33,0.279,1.62,0.383
		c0.29,0.1,0.63,0.389,1.028,0.867c0.4,0.48,0.627,0.91,0.7,1.289c0.077,0.381,0.182,1.053,0.309,2.031
		c0.127,0.98,0.186,1.869,0.186,2.68v3.65c0,4.859-0.59,8.449-1.78,10.75c-1.188,2.299-2.8,3.459-4.821,3.459
		c-1.521,0-3.512-0.369-5.969-1.109c-0.584-0.18-1.014-0.527-1.29-1.068c-0.278-0.529-0.328-1.102-0.148-1.709l0.07-0.23
		c0.178-0.555,0.523-0.971,1.046-1.23c0.52-0.27,1.06-0.311,1.648-0.137c1.67,0.512,2.892,0.762,3.65,0.762
		c0.43,0,0.82-0.316,1.17-0.951s0.67-1.75,0.93-3.359c0.271-1.604,0.4-3.59,0.4-5.947c0-3.037-0.13-4.809-0.4-5.316
		c-0.26-0.51-1.22-0.768-2.864-0.768h-3.649c-0.2,0-0.33,0.105-0.38,0.307c-1.57,6.566-3.562,12.91-5.965,19.041
		c-0.23,0.58-0.613,0.998-1.16,1.229c-0.543,0.248-1.094,0.27-1.65,0.061l-0.264-0.07c-0.562-0.18-0.95-0.539-1.18-1.08
		c-0.23-0.547-0.24-1.1-0.04-1.648c2.1-5.551,3.911-11.391,5.433-17.521c0.05-0.199-0.027-0.309-0.23-0.309h-3.34L449.453,468.941z
		 M476.433,479.996c-1.344-4.838-2.965-9.777-4.865-14.818c-0.203-0.529-0.177-1.059,0.076-1.578
		c0.253-0.518,0.658-0.863,1.216-1.045l0.494-0.146c0.583-0.182,1.152-0.127,1.71,0.146c0.558,0.281,0.938,0.711,1.14,1.293
		c1.75,4.563,3.37,9.574,4.864,15.047c0.152,0.563,0.076,1.102-0.228,1.615c-0.307,0.521-0.748,0.842-1.33,0.973l-0.456,0.072
		c-0.583,0.127-1.128,0.041-1.634-0.266c-0.508-0.305-0.835-0.74-0.988-1.299L476.433,479.996z"/>
	<path fill="#3483BD" d="M488.594,489.99c-2.154,0-4.148-1.471-5.985-4.408c-1.837-2.936-2.755-6.498-2.755-10.678
		c0-3.824,0.443-7.574,1.33-11.248c0.152-0.607,0.487-1.082,1.007-1.424c0.521-0.344,1.096-0.477,1.73-0.4l0.645,0.076
		c0.557,0.051,0.994,0.316,1.313,0.801c0.314,0.48,0.408,1,0.282,1.557c-0.81,3.602-1.21,7.146-1.21,10.643
		c0,2.813,0.45,5.18,1.352,7.104c0.898,1.924,1.79,2.891,2.68,2.891c0.561,0,1.28-0.541,2.17-1.621c0.892-1.08,1.79-2.65,2.7-4.699
		c0.25-0.563,0.65-0.961,1.2-1.201s1.1-0.26,1.66-0.059l0.42,0.146c0.56,0.201,0.97,0.57,1.22,1.121
		c0.26,0.539,0.27,1.08,0.04,1.609c-1.29,3.061-2.84,5.461-4.63,7.18c-1.8,1.721-3.51,2.58-5.13,2.58L488.594,489.99z
		 M505.806,483.759c-0.28-6.916-1.584-13.275-3.914-19.076c-0.203-0.533-0.19-1.061,0.038-1.578c0.228-0.52,0.62-0.867,1.178-1.045
		l0.532-0.15c0.582-0.178,1.16-0.135,1.729,0.133c0.57,0.266,0.98,0.678,1.234,1.234c2.61,6.105,4.028,12.934,4.256,20.482
		c0.025,0.58-0.178,1.08-0.604,1.52c-0.435,0.43-0.938,0.641-1.521,0.641h-0.76c-0.584,0-1.084-0.221-1.502-0.65
		c-0.418-0.428-0.641-0.938-0.666-1.52L505.806,483.759L505.806,483.759z M525.72,490.371c-4.312,0-7.284-1.045-8.934-3.135
		c-1.646-2.092-2.47-5.947-2.47-11.572c0-4.584,0.141-9.523,0.418-14.818c0.052-0.604,0.285-1.111,0.703-1.52
		c0.418-0.404,0.93-0.596,1.53-0.57h0.91c0.58,0.027,1.068,0.254,1.46,0.688c0.39,0.432,0.568,0.938,0.55,1.52
		c-0.26,5.451-0.38,10.35-0.38,14.711c0,2.74,0.22,4.82,0.66,6.25c0.438,1.43,1.078,2.4,1.92,2.889c0.84,0.49,2.04,0.74,3.608,0.74
		c4.38,0,7.95-2.99,10.71-8.969c0.25-0.531,0.65-0.91,1.19-1.16c0.54-0.24,1.1-0.26,1.648-0.051l0.49,0.229
		c0.562,0.199,0.96,0.58,1.21,1.143c0.256,0.559,0.256,1.107,0,1.639c-3.466,8-8.56,12.01-15.27,12.01L525.72,490.371z
		 M544.87,492.384c-0.401,0-0.677-0.184-0.813-0.551c-0.142-0.367-0.07-0.691,0.21-0.969c4.382-4.662,6.572-10.111,6.572-16.34
		c0-6.061-2.203-11.488-6.61-16.309c-0.28-0.277-0.343-0.607-0.19-0.986c0.152-0.383,0.434-0.57,0.838-0.57h0.267
		c1.495,0,2.735,0.49,3.725,1.479c2.18,2.23,3.876,4.762,5.094,7.58c1.216,2.82,1.822,5.762,1.822,8.801c0,3.09-0.6,6.051-1.8,8.869
		c-1.2,2.82-2.9,5.34-5.109,7.541c-0.961,0.959-2.199,1.439-3.721,1.439h-0.26L544.87,492.384z"/>
</g>
</svg>
