<?xml version="1.0" encoding="utf-8"?>
<!-- Generator: Adobe Illustrator 16.0.3, SVG Export Plug-In . SVG Version: 6.00 Build 0)  -->
<!DOCTYPE svg PUBLIC "-//W3C//DTD SVG 1.1//EN" "http://www.w3.org/Graphics/SVG/1.1/DTD/svg11.dtd">
<svg version="1.1" id="レイヤー_1" xmlns="http://www.w3.org/2000/svg" xmlns:xlink="http://www.w3.org/1999/xlink" x="0px"
	 y="0px" width="101.629px" height="13.094px" viewBox="0 0 101.629 13.094" enable-background="new 0 0 101.629 13.094"
	 xml:space="preserve">
<g>
	<path d="M0,13.008V0h7.269v1.38H1.846v4.175H6.39v1.362H1.846v4.711h5.801v1.38H0z"/>
	<path d="M8.194,12.823l3.594-5.439l-3.418-5.4h1.822l2.605,4.079l2.735-4.079h1.45l-3.462,5.232l3.55,5.608h-1.822l-2.75-4.294
		l-2.845,4.294H8.194z"/>
	<path d="M17.591,12.823l4.299-10.84h1.523l4.233,10.84h-1.659l-1.178-2.996h-4.597l-1.196,2.996H17.591z M20.654,8.678h3.708
		L22.51,3.997L20.654,8.678z"/>
	<path d="M29.215,12.823V1.983h2.123l3.008,8.386l3.09-8.386h1.909v10.84h-1.443V4.018l-2.985,8.08h-1.486l-2.897-8.101v8.826
		H29.215z"/>
	<path d="M42.127,12.823V1.983h1.538v10.84H42.127z"/>
	<path d="M46.456,12.823V1.983h1.509l5.457,8.371V1.983h1.318v10.84h-1.501l-5.464-8.369v8.369H46.456z"/>
	<path d="M56.263,12.823l4.299-10.84h1.523l4.233,10.84H64.66l-1.178-2.996h-4.597l-1.196,2.996H56.263z M59.326,8.678h3.708
		l-1.852-4.681L59.326,8.678z"/>
	<path d="M70.465,12.823v-9.69H66.62v-1.15h9.229v1.15h-3.845v9.69H70.465z"/>
	<path d="M77.364,12.823V1.983h1.538v10.84H77.364z"/>
	<path d="M86.124,13.094c-1.538,0-2.768-0.516-3.688-1.549c-0.921-1.032-1.381-2.413-1.381-4.142s0.46-3.109,1.381-4.142
		c0.92-1.033,2.149-1.549,3.688-1.549s2.767,0.516,3.688,1.549c0.92,1.032,1.381,2.413,1.381,4.142s-0.46,3.109-1.381,4.142
		C88.891,12.578,87.662,13.094,86.124,13.094z M86.124,11.944c1.079,0,1.921-0.401,2.527-1.205c0.605-0.803,0.908-1.92,0.908-3.351
		c0-1.421-0.303-2.53-0.908-3.329c-0.605-0.798-1.448-1.197-2.527-1.197s-1.921,0.399-2.527,1.197
		c-0.605,0.799-0.908,1.908-0.908,3.329c0,1.431,0.303,2.548,0.908,3.351C84.203,11.543,85.045,11.944,86.124,11.944z"/>
	<path d="M93.346,12.823V1.983h1.509l5.457,8.371V1.983h1.318v10.84h-1.501l-5.464-8.369v8.369H93.346z"/>
</g>
</svg>
