<?xml version="1.0" encoding="utf-8"?>
<!-- Generator: Adobe Illustrator 16.0.3, SVG Export Plug-In . SVG Version: 6.00 Build 0)  -->
<!DOCTYPE svg PUBLIC "-//W3C//DTD SVG 1.1//EN" "http://www.w3.org/Graphics/SVG/1.1/DTD/svg11.dtd">
<svg version="1.1" id="レイヤー_1" xmlns="http://www.w3.org/2000/svg" xmlns:xlink="http://www.w3.org/1999/xlink" x="0px"
	 y="0px" width="337.217px" height="294.126px" viewBox="0 0 337.217 294.126" enable-background="new 0 0 337.217 294.126"
	 xml:space="preserve">
<g>
	<polygon fill="#FFDC00" points="204.718,138.16 234.688,138.368 227.371,146.872 252.146,152.719 216.4,152.784 225.076,143.964 	
		"/>
	<polygon fill="#FFDC00" points="129.935,153.915 99.964,153.704 107.282,145.202 82.506,139.354 118.252,139.289 109.576,148.109 	
		"/>
</g>
<g>
	<polygon fill="#FFDC00" points="177.486,113.339 192.372,87.326 196.192,97.874 213.443,79.155 195.961,110.334 192.532,98.447 	
		"/>
	<polygon fill="#FFDC00" points="154.524,179.757 139.637,205.771 135.818,195.222 118.566,213.943 136.048,182.761 139.477,194.65 
			"/>
</g>
<g>
	<polygon fill="#FFDC00" points="139.945,119.938 126.646,93.078 137.534,95.787 131.61,71.029 147.75,102.924 135.97,99.145 	"/>
	<polygon fill="#FFDC00" points="187.662,173.161 200.957,200.021 190.073,197.311 195.999,222.071 179.855,190.174 
		191.638,193.956 	"/>
</g>
<g>
	<linearGradient id="SVGID_1_" gradientUnits="userSpaceOnUse" x1="96.5117" y1="0.4429" x2="96.5117" y2="73.3017">
		<stop  offset="0" style="stop-color:#F39800"/>
		<stop  offset="1" style="stop-color:#E60012"/>
	</linearGradient>
	<path fill="url(#SVGID_1_)" d="M103.768,52.445c0-2.497-4.261-4.867-4.261-4.867l1.033,3.743c1.124,4.504-2.971,3.37-2.971,3.37
		c-2.813-0.389,0.109-4.266,0.109-4.266c2.49-5.047-3.295-6.678-3.295-6.678c1.871,3.056,0.135,5.652-2.468,7.512
		c-2.912,2.081-4.188,4.812-3.787,8.345c0.468,4.104,3.809,8.208,8.503,7.688c0.08-0.009,0.16-0.019,0.24-0.029
		c2.89-0.362,6.69-1.593,7.813-4.412c0.824-2.072-0.336-3.663-1.195-5.478C102.712,55.726,103.768,54.204,103.768,52.445z
		 M96.222,66.343c-1.563,0.07-3.429-2.224-3.918-3.424c-0.908-2.217-0.955-4.411,1.142-5.883c0.704,1.384,0.999,3.206,2.731,3.519
		c1.592,0.288,3.483-1.19,3.355-2.736C103.228,60.66,100.942,67.168,96.222,66.343z"/>
	<linearGradient id="SVGID_2_" gradientUnits="userSpaceOnUse" x1="96.8179" y1="0.4434" x2="96.8179" y2="73.3012">
		<stop  offset="0" style="stop-color:#F39800"/>
		<stop  offset="1" style="stop-color:#E60012"/>
	</linearGradient>
	<path fill="url(#SVGID_2_)" d="M128.263,0H65.374c-3.009,0-5.47,2.461-5.47,5.469v62.89c0,3.008,2.461,5.469,5.47,5.469h62.889
		c3.008,0,5.469-2.461,5.469-5.469V5.469C133.731,2.461,131.271,0,128.263,0z M86.847,4.043c0.885,0,1.727,0.164,2.492,0.458
		c1.668-1.764,4.129-2.886,6.881-2.886c2.888,0,5.455,1.233,7.121,3.151c0.918-0.46,1.971-0.723,3.092-0.723
		c3.554,0,6.435,2.632,6.435,5.879c0,1.156-0.37,2.231-1.001,3.141c0.65,0.067,2.645,0.533,3.035,3.741c0,0-1.236-1.824-4.505-2.258
		c-1.093,0.783-2.468,1.254-3.964,1.254c-1.121,0-2.174-0.263-3.092-0.723c-1.665,1.917-4.233,3.151-7.121,3.151
		c-2.752,0-5.213-1.122-6.881-2.886c-0.766,0.294-1.607,0.458-2.492,0.458c-3.554,0-6.436-2.632-6.436-5.879
		S83.293,4.043,86.847,4.043z M129.939,69.949l-66.493-0.057V42.563l22.426-8.898v8.58l22.427-7.944v7.626l6.356-2.24l0.883-20.542
		c3.223-2.166,6.983,0,6.983,0l0.675,17.532l6.743-2.376V69.949z"/>
</g>
<g>
	<linearGradient id="SVGID_3_" gradientUnits="userSpaceOnUse" x1="227.7432" y1="1.4287" x2="227.7432" y2="74.2744">
		<stop  offset="0" style="stop-color:#00B9EF"/>
		<stop  offset="1" style="stop-color:#036EB8"/>
	</linearGradient>
	<polygon fill="url(#SVGID_3_)" points="223.132,34.155 221.463,34.155 221.463,41 223.132,41 223.132,37.779 232.354,37.779 
		232.354,41 234.023,41 234.023,34.155 232.354,34.155 232.354,34.163 223.132,34.163 	"/>
	<linearGradient id="SVGID_4_" gradientUnits="userSpaceOnUse" x1="226.9102" y1="1.4268" x2="226.9102" y2="74.2771">
		<stop  offset="0" style="stop-color:#00B9EF"/>
		<stop  offset="1" style="stop-color:#036EB8"/>
	</linearGradient>
	<path fill="url(#SVGID_4_)" d="M258.355,0.206h-62.889c-3.009,0-5.47,2.461-5.47,5.469v62.89c0,3.008,2.461,5.469,5.47,5.469
		h62.889c3.008,0,5.469-2.461,5.469-5.469V5.674C263.824,2.667,261.363,0.206,258.355,0.206z M208.641,6.348
		c2.803,0.147,6.564,3.899,8.973,6.667c4.909-7.045,10.523-9.293,12.859-9.277c3.004,0.021,9.024,6.192,12.246,9.749
		c2.275-3.017,5.577-3.591,6.568-3.469c4.748,0.585,9.279,5.922,9.279,5.922h-13.695h-3.506h-21.379h-4.205h-20.68
		C200.715,9.024,206.518,6.236,208.641,6.348z M248.695,23.682c0,0-13.619,1.873-29.896,0
		C218.799,23.682,230.758,20.208,248.695,23.682z M199.841,20.037c0,0,9.042-3.476,22.604,0
		C222.445,20.037,212.147,21.909,199.841,20.037z M233.746,19.613c0,0,8.021-2.896,20.053,0
		C253.799,19.613,244.664,21.173,233.746,19.613z M215.154,25.811c0,0-9.136,1.561-20.053,0
		C195.102,25.811,203.123,22.915,215.154,25.811z M244.78,70.478c0,0-2.466-0.925-6.493-1.72
		c-1.98-18.146-5.413-25.381-5.413-25.381c-1.601,8.48,1.966,19.47,4.179,25.151c-2.311-0.405-5.041-0.742-8.056-0.853
		c0.981-15.178-0.788-21.813-0.788-21.813c-2.539,7.514-1.589,16.457-0.619,21.778c-2.611-0.03-5.41,0.118-8.313,0.542
		c4.662-17.723,3.961-24.807,3.961-24.807c-4.744,8.412-5.332,19.294-5.264,25.015c-2.588,0.448-5.248,1.12-7.926,2.086
		l-15.615-35.151c0,0,33.098-12.782,64.798,0L244.78,70.478z M245.414,26.905c0,0,5.833-2.896,14.582,0
		C259.996,26.905,253.354,28.465,245.414,26.905z"/>
	<linearGradient id="SVGID_5_" gradientUnits="userSpaceOnUse" x1="211.5078" y1="1.4434" x2="211.5078" y2="74.2722">
		<stop  offset="0" style="stop-color:#00B9EF"/>
		<stop  offset="1" style="stop-color:#036EB8"/>
	</linearGradient>
	<circle fill="url(#SVGID_5_)" cx="211.507" cy="59.542" r="0.729"/>
	<linearGradient id="SVGID_6_" gradientUnits="userSpaceOnUse" x1="232.6523" y1="1.4209" x2="232.6523" y2="74.2773">
		<stop  offset="0" style="stop-color:#00B9EF"/>
		<stop  offset="1" style="stop-color:#036EB8"/>
	</linearGradient>
	<circle fill="url(#SVGID_6_)" cx="232.653" cy="64.645" r="0.729"/>
	<linearGradient id="SVGID_7_" gradientUnits="userSpaceOnUse" x1="212.6016" y1="1.4331" x2="212.6016" y2="74.2757">
		<stop  offset="0" style="stop-color:#00B9EF"/>
		<stop  offset="1" style="stop-color:#036EB8"/>
	</linearGradient>
	<circle fill="url(#SVGID_7_)" cx="212.602" cy="63.916" r="1.458"/>
	<linearGradient id="SVGID_8_" gradientUnits="userSpaceOnUse" x1="214.7881" y1="1.4141" x2="214.7881" y2="74.2807">
		<stop  offset="0" style="stop-color:#00B9EF"/>
		<stop  offset="1" style="stop-color:#036EB8"/>
	</linearGradient>
	<circle fill="url(#SVGID_8_)" cx="214.789" cy="56.26" r="1.003"/>
	<linearGradient id="SVGID_9_" gradientUnits="userSpaceOnUse" x1="245.4131" y1="1.4443" x2="245.4131" y2="74.2731">
		<stop  offset="0" style="stop-color:#00B9EF"/>
		<stop  offset="1" style="stop-color:#036EB8"/>
	</linearGradient>
	<circle fill="url(#SVGID_9_)" cx="245.413" cy="60.271" r="0.729"/>
	<linearGradient id="SVGID_10_" gradientUnits="userSpaceOnUse" x1="242.4961" y1="1.4355" x2="242.4961" y2="74.2755">
		<stop  offset="0" style="stop-color:#00B9EF"/>
		<stop  offset="1" style="stop-color:#036EB8"/>
	</linearGradient>
	<circle fill="url(#SVGID_10_)" cx="242.497" cy="63.734" r="1.048"/>
	<linearGradient id="SVGID_11_" gradientUnits="userSpaceOnUse" x1="241.4023" y1="1.4141" x2="241.4023" y2="74.281">
		<stop  offset="0" style="stop-color:#00B9EF"/>
		<stop  offset="1" style="stop-color:#036EB8"/>
	</linearGradient>
	<circle fill="url(#SVGID_11_)" cx="241.402" cy="54.801" r="1.459"/>
</g>
<g>
	<linearGradient id="SVGID_12_" gradientUnits="userSpaceOnUse" x1="107.2305" y1="221.521" x2="107.2305" y2="294.3708">
		<stop  offset="0" style="stop-color:#C9A063"/>
		<stop  offset="1" style="stop-color:#956134"/>
	</linearGradient>
	<path fill="url(#SVGID_12_)" d="M104.131,278.295c-0.818-3.568,3.807-6.157,3.807-6.157c8.799-8.04-0.14-15.276-0.14-15.276
		c4.679,9.478-2.536,14.824-2.536,14.824C100.137,276.373,104.131,278.295,104.131,278.295z"/>
	<linearGradient id="SVGID_13_" gradientUnits="userSpaceOnUse" x1="97.9653" y1="221.52" x2="97.9653" y2="294.3704">
		<stop  offset="0" style="stop-color:#C9A063"/>
		<stop  offset="1" style="stop-color:#956134"/>
	</linearGradient>
	<path fill="url(#SVGID_13_)" d="M129.41,220.299H66.521c-3.008,0-5.47,2.461-5.47,5.469v62.89c0,3.008,2.462,5.469,5.47,5.469
		h62.889c3.008,0,5.469-2.461,5.469-5.469v-62.89C134.879,222.76,132.418,220.299,129.41,220.299z M116.958,231.5l8.989,6.77v14.387
		h-8.989V231.5z M70.473,239.656l3.621-0.666v-1.698c0-2.409,1.876-4.362,4.19-4.362s4.19,1.953,4.19,4.362v0.155l3.645-0.671
		v-2.781c0-2.684,2.09-4.858,4.668-4.858c2.577,0,4.666,2.175,4.666,4.858v1.063l4.516-0.831v-4.189
		c0-3.011,2.345-5.453,5.238-5.453s5.238,2.442,5.238,5.453v2.261l4.805-0.885v21.244H70.473V239.656z M131.052,290.208H65.063
		V253.75h65.989V290.208z"/>
	<linearGradient id="SVGID_14_" gradientUnits="userSpaceOnUse" x1="86.0459" y1="221.521" x2="86.0459" y2="294.3708">
		<stop  offset="0" style="stop-color:#C9A063"/>
		<stop  offset="1" style="stop-color:#956134"/>
	</linearGradient>
	<path fill="url(#SVGID_14_)" d="M88.27,271.686c-1.787,4.687,3.578,6.609,3.578,6.609c-3.359-3.568-0.58-6.157-0.58-6.157
		c3.07-8.04-11.023-15.276-11.023-15.276C91.676,266.339,88.27,271.686,88.27,271.686z"/>
	<linearGradient id="SVGID_15_" gradientUnits="userSpaceOnUse" x1="97.6616" y1="221.521" x2="97.6616" y2="294.3708">
		<stop  offset="0" style="stop-color:#C9A063"/>
		<stop  offset="1" style="stop-color:#956134"/>
	</linearGradient>
	<path fill="url(#SVGID_15_)" d="M96.766,271.686c-3.456,4.687,1.223,6.609,1.223,6.609c-2.088-3.568,1.614-6.157,1.614-6.157
		c5.934-8.04-5.581-15.276-5.581-15.276C102.077,266.339,96.766,271.686,96.766,271.686z"/>
	<linearGradient id="SVGID_16_" gradientUnits="userSpaceOnUse" x1="97.4136" y1="221.5171" x2="97.4136" y2="294.3714">
		<stop  offset="0" style="stop-color:#C9A063"/>
		<stop  offset="1" style="stop-color:#956134"/>
	</linearGradient>
	<path fill="url(#SVGID_16_)" d="M111.945,278.414c0,3.091-6.506,5.597-14.532,5.597s-14.531-2.506-14.531-5.597
		c0-0.612,0.259-1.201,0.731-1.752c-1.361,0.904-2.145,1.953-2.145,3.073c0,3.392,7.139,6.141,15.944,6.141
		s15.945-2.749,15.945-6.141c0-1.12-0.783-2.169-2.145-3.073C111.686,277.212,111.945,277.801,111.945,278.414z"/>
</g>
<g>
	<linearGradient id="SVGID_17_" gradientUnits="userSpaceOnUse" x1="230.123" y1="221.355" x2="230.123" y2="294.2053">
		<stop  offset="0" style="stop-color:#FFE100"/>
		<stop  offset="1" style="stop-color:#F29100"/>
	</linearGradient>
	<path fill="url(#SVGID_17_)" d="M261.568,220.134h-62.89c-3.008,0-5.469,2.461-5.469,5.469v62.89c0,3.008,2.461,5.469,5.469,5.469
		h62.89c3.008,0,5.469-2.461,5.469-5.469v-62.89C267.037,222.595,264.576,220.134,261.568,220.134z M246.104,245.892l-4.148,11.632
		l-10.964,3.604l4.154-10.534L246.104,245.892z M216.519,258.586l6.78-2.909l-4.035,9.307l-6.654,2.187L216.519,258.586z
		 M212.445,256.037l-2.824-4.891h5.647L212.445,256.037z M218.912,249.638l3.992-3.994l1.462,5.455L218.912,249.638z
		 M212.733,248.823c-5.403,0-9.784-4.38-9.784-9.784c0-5.403,4.381-9.784,9.784-9.784s9.784,4.381,9.784,9.784
		C222.518,244.443,218.137,248.823,212.733,248.823z M211.902,268.724l6.628-2.051l-4.404,10.155l-6.457,1.192L211.902,268.724z
		 M219.98,266.224l8.391-2.596l-4.575,11.419l-8.251,1.521L219.98,266.224z M230.233,263.053l10.96-3.392l-4.648,13.033
		l-10.909,2.013L230.233,263.053z M229.127,261.741l-8.409,2.765l4.058-9.461l8.496-3.646L229.127,261.741z M229.304,239.178
		l-4.891,2.823v-5.647L229.304,239.178z M224.366,227.257l-1.462,5.454l-3.994-3.991L224.366,227.257z M212.445,222.319l2.823,4.892
		h-5.647L212.445,222.319z M205.979,228.719l-3.994,3.993l-1.461-5.455L205.979,228.719z M200.478,242.002l-4.891-2.824l4.891-2.824
		V242.002z M201.985,245.645l3.994,3.993l-5.455,1.461L201.985,245.645z M202.302,289.805l4.6-10.101l6.424-1.028l-4.825,11.129
		H202.302z M209.868,289.805l4.869-11.354l8.222-1.315l-5.077,12.67H209.868z M219.682,289.805l5.113-12.964l10.894-1.741
		l-5.245,14.705H219.682z M248.133,289.805h-15.217l5.255-15.103l15.123-2.42L248.133,289.805z M254.127,269.454l-15.099,2.784
		l4.644-13.344l14.925-4.616L254.127,269.454z M259.322,251.815l-14.891,4.896l4.131-11.872l14.67-6.295L259.322,251.815z"/>
</g>
<g>
	<linearGradient id="SVGID_18_" gradientUnits="userSpaceOnUse" x1="36.9136" y1="112.1436" x2="36.9136" y2="183.2773">
		<stop  offset="0" style="stop-color:#8FC31F"/>
		<stop  offset="1" style="stop-color:#00913A"/>
	</linearGradient>
	<path fill="url(#SVGID_18_)" d="M5.469,184.661h62.89c3.008,0,5.469-2.461,5.469-5.469v-62.89c0-3.008-2.461-5.469-5.469-5.469
		H5.469c-3.008,0-5.469,2.461-5.469,5.469v62.89C0,182.2,2.461,184.661,5.469,184.661z M19.832,126.709
		c0,0,6.078,4.182,12.723-1.295c0,0-4.711,7.68-13.363,3.979c0,0-4.21-3.716-12.082-1.389
		C7.109,128.004,11.717,122.516,19.832,126.709z M19.832,134.634c0,0,6.078,4.182,12.723-1.295c0,0-4.711,7.68-13.363,3.978
		c0,0-4.21-3.716-12.082-1.389C7.109,135.928,11.717,130.441,19.832,134.634z M19.832,142.558c0,0,6.078,4.182,12.723-1.295
		c0,0-4.711,7.681-13.363,3.979c0,0-4.21-3.717-12.082-1.388C7.109,143.854,11.717,138.366,19.832,142.558z M9.023,169.075h38.102
		l0.637-33.092c-0.728-0.164-1.319-0.427-1.729-0.842c-0.084,0.13-0.185,0.244-0.299,0.343c0.26,1.871,0.257,5.098-0.274,10.616
		c-0.691,7.211-1.704,12.905-2.781,12.836s-1.094-6.29-1.117-13.086c-0.019-4.909,0.25-7.951,0.646-9.835
		c-1.238-0.282-2.133-1.073-2.133-2.008c0-0.782,0.628-1.464,1.559-1.831c-1.5-1.227-3.682-3.476-6.906-7.397
		c-4.604-5.595-7.908-10.341-7.097-11.053s5.216,3.681,10.033,8.476c5.506,5.479,7.21,8.161,7.515,9.573
		c0.42-1.219,2.617-3.454,9.7-7.974c6.106-3.898,11.215-6.61,11.823-5.719c0.609,0.89-4.279,4.736-9.618,8.944
		c-1.856,1.463-3.411,2.606-4.72,3.495c3.851,0,6.972,1.285,6.972,2.871c0,1.586-3.121,2.871-6.973,2.871
		c-0.476,0-0.94,0-1.39-0.005l0.565,32.817h13.813l4.922,11.758H3.281L9.023,169.075z"/>
</g>
<g>
	<linearGradient id="SVGID_19_" gradientUnits="userSpaceOnUse" x1="292.873" y1="111.853" x2="292.873" y2="184.6997">
		<stop  offset="0" style="stop-color:#9FA0A0"/>
		<stop  offset="1" style="stop-color:#727171"/>
	</linearGradient>
	<ellipse fill="url(#SVGID_19_)" cx="292.873" cy="159.088" rx="2.667" ry="2.599"/>
	<linearGradient id="SVGID_20_" gradientUnits="userSpaceOnUse" x1="300.3027" y1="111.855" x2="300.3027" y2="184.6995">
		<stop  offset="0" style="stop-color:#9FA0A0"/>
		<stop  offset="1" style="stop-color:#727171"/>
	</linearGradient>
	<path fill="url(#SVGID_20_)" d="M268.858,184.661h62.89c3.008,0,5.469-2.461,5.469-5.469v-62.89c0-3.008-2.461-5.469-5.469-5.469
		h-62.89c-3.008,0-5.469,2.461-5.469,5.469v62.89C263.39,182.2,265.851,184.661,268.858,184.661z M330.891,164.943l2.115,4.163
		c0,0-3.573,2.602-14.196,2.602h-1.009c-0.656,0-1.285-0.01-1.889-0.028l-0.527-1.04c-4.036-7.001-3.7-10.362-3.7-10.362v-16.113
		c1.388-0.118,3.153-0.211,5.283-0.211h2.676c5.831,0,8.956,0.694,8.956,0.694v13.877
		C328.6,158.525,328.392,160.606,330.891,164.943z M327.245,115.683c0,0-0.519,9.651-14.948,14.516c0,0-6.923,1.827-4.94,4.796
		c0,0-4.375-2.688,2.527-5.843C309.884,129.152,317.735,127.278,327.245,115.683z M314.163,114.69c0,0,0.954,9.524-13.16,14.871
		c0,0-6.812,2.055-4.337,4.902c0,0-4.876-2.482,1.706-5.839C298.372,128.624,306.146,126.48,314.163,114.69z M286.627,129.321
		c0,0,7.467-3.428,11.264-15.171c0,0,5.091,7.884-8.076,15.438c0,0-6.413,3.112-2.646,5.062
		C287.168,134.649,281.022,133.479,286.627,129.321z M275.661,130.181c0,0,6.414-4.654,5.335-15.421c0,0,8.972,5.301-1.863,14.907
		c0,0-5.406,4.099-0.614,4.911C278.519,134.578,271.589,134.953,275.661,130.181z M272.028,170.639
		c4.035-7.001,3.699-10.362,3.699-10.362v-22.403c0,0,5.044-1.12,14.458-1.12h4.32c9.414,0,14.458,1.12,14.458,1.12v22.403
		c0,0-0.336,3.361,3.699,10.362l3.414,6.72c0,0-5.767,4.201-22.917,4.201h-1.63c-17.149,0-22.917-4.201-22.917-4.201
		L272.028,170.639z"/>
	<linearGradient id="SVGID_21_" gradientUnits="userSpaceOnUse" x1="285.8076" y1="111.8545" x2="285.8076" y2="184.699">
		<stop  offset="0" style="stop-color:#9FA0A0"/>
		<stop  offset="1" style="stop-color:#727171"/>
	</linearGradient>
	<path fill="url(#SVGID_21_)" d="M290.815,155.613l-3.979-6.714c-3.607,2.035-6.037,5.834-6.037,10.189h7.953
		C288.753,157.603,289.584,156.308,290.815,155.613z"/>
	<linearGradient id="SVGID_22_" gradientUnits="userSpaceOnUse" x1="299.9385" y1="111.8545" x2="299.9385" y2="184.699">
		<stop  offset="0" style="stop-color:#9FA0A0"/>
		<stop  offset="1" style="stop-color:#727171"/>
	</linearGradient>
	<path fill="url(#SVGID_22_)" d="M296.992,159.088h7.954c0-4.355-2.43-8.155-6.037-10.189l-3.979,6.714
		C296.162,156.308,296.992,157.603,296.992,159.088z"/>
	<linearGradient id="SVGID_23_" gradientUnits="userSpaceOnUse" x1="292.873" y1="111.8521" x2="292.873" y2="184.7003">
		<stop  offset="0" style="stop-color:#9FA0A0"/>
		<stop  offset="1" style="stop-color:#727171"/>
	</linearGradient>
	<path fill="url(#SVGID_23_)" d="M298.909,169.277l-3.979-6.715c-0.604,0.343-1.307,0.541-2.058,0.541s-1.452-0.198-2.058-0.541
		l-3.979,6.715c1.776,1.002,3.837,1.577,6.036,1.577C295.071,170.854,297.132,170.279,298.909,169.277z"/>
</g>
<g>
	<radialGradient id="SVGID_24_" cx="165.7871" cy="141.478" r="27.3847" gradientUnits="userSpaceOnUse">
		<stop  offset="0" style="stop-color:#FFFFFF"/>
		<stop  offset="1" style="stop-color:#FFF100"/>
	</radialGradient>
	<path fill="url(#SVGID_24_)" stroke="#9FA0A0" stroke-width="3" stroke-miterlimit="10" d="M188.443,132.725
		c0-12.512-10.146-22.656-22.657-22.656c-12.512,0-22.656,10.144-22.656,22.656c0,3.959,1.017,7.678,2.801,10.916
		c0.917,1.863,2.395,4.425,4.627,7.18c0,0,2.207,5.296,2.354,7.797c0.147,2.501,1.03,8.533,1.03,8.533s0.588,5.736,3.972,5.736
		s9.563,0,9.563,0h1.471c0,0,1.47,0,4.854,0c3.385,0,3.973-5.736,3.973-5.736s0.884-6.032,1.03-8.533
		c0.148-2.5,2.354-7.797,2.354-7.797c4.414-5.443,5.886-10.151,5.886-10.151s-0.014-0.001-0.036-0.006
		C187.936,138.193,188.443,135.519,188.443,132.725z"/>
	
		<line fill="none" stroke="#9FA0A0" stroke-width="3" stroke-linecap="round" stroke-linejoin="round" stroke-miterlimit="10" x1="157.915" y1="179.362" x2="174.392" y2="179.362"/>
	
		<line fill="none" stroke="#9FA0A0" stroke-width="3" stroke-linecap="round" stroke-linejoin="round" stroke-miterlimit="10" x1="157.915" y1="185.246" x2="174.392" y2="185.246"/>
	
		<line fill="none" stroke="#9FA0A0" stroke-width="3" stroke-linecap="round" stroke-linejoin="round" stroke-miterlimit="10" x1="164.241" y1="191.13" x2="169.242" y2="191.13"/>
	
		<line fill="none" stroke="#9FA0A0" stroke-width="3" stroke-linecap="round" stroke-linejoin="round" stroke-miterlimit="10" x1="165.791" y1="150.084" x2="165.791" y2="171.711"/>
	
		<polyline fill="none" stroke="#9FA0A0" stroke-width="3" stroke-linecap="round" stroke-linejoin="round" stroke-miterlimit="10" points="
		160.709,154.645 157.767,141.257 174.391,141.257 170.86,154.645 	"/>
</g>
</svg>
