<?xml version="1.0" encoding="utf-8"?>
<!-- Generator: Adobe Illustrator 16.0.3, SVG Export Plug-In . SVG Version: 6.00 Build 0)  -->
<!DOCTYPE svg PUBLIC "-//W3C//DTD SVG 1.1//EN" "http://www.w3.org/Graphics/SVG/1.1/DTD/svg11.dtd">
<svg version="1.1" id="レイヤー_1" xmlns="http://www.w3.org/2000/svg" xmlns:xlink="http://www.w3.org/1999/xlink" x="0px"
	 y="0px" width="290.131px" height="288.038px" viewBox="0 0 290.131 288.038" enable-background="new 0 0 290.131 288.038"
	 xml:space="preserve">
<path fill="none" stroke="#2A2B2B" stroke-width="9" stroke-linecap="round" stroke-linejoin="round" stroke-miterlimit="10" d="
	M285.631,126.114c0,66.969-63.017,121.382-140.449,121.382c-5.349,0-10.93-0.232-16.045-0.931L78.91,283.538l6.976-47.437
	C37.752,216.802,4.5,174.714,4.5,125.882C4.5,58.913,67.516,4.5,144.949,4.5C222.382,4.5,285.631,58.913,285.631,126.114z"/>
<g>
	<path d="M96.79,87.662c0-2.912,2.08-4.264,4.992-4.264s4.888,1.352,4.888,4.264v71.45c0,4.057-2.08,6.553-6.24,6.553
		c-4.472,0-6.136-1.768-8.736-5.928l-27.561-44.618c-4.16-6.656-9.36-16.849-11.752-22.049c0.624,6.656,1.456,21.113,1.456,36.401
		v31.93c0,2.808-2.08,4.264-4.888,4.264c-2.912,0-4.992-1.456-4.992-4.264V89.638c0-3.848,2.496-6.24,6.552-6.24
		c4.68,0,6.448,1.872,8.424,4.992l26.209,42.538c4.784,7.8,10.608,18.929,13.313,24.753c-0.624-6.448-1.664-21.529-1.664-36.505
		V87.662z"/>
	<path d="M129.859,138c0.208,12.792,6.552,20.801,17.785,20.801c7.488,0,11.648-3.744,14.145-9.257c0.936-1.871,2.287-2.6,3.744-2.6
		c0.728,0,1.455,0.208,2.184,0.416c1.768,0.52,3.225,1.768,3.225,3.641c0,0.623-0.104,1.248-0.521,1.871
		c-3.328,6.865-9.36,13.729-22.881,13.729c-17.057,0-26.937-12.064-26.937-30.057c0-17.993,9.36-30.577,26.313-30.577
		c15.185,0,23.713,11.856,24.753,25.481c0,0.312,0,0.52,0,0.832c0,3.744-1.976,5.72-5.2,5.72H129.859z M160.645,130.408
		c1.145,0,1.561-0.416,1.561-1.352c0-0.104,0-0.312,0-0.52c-1.248-7.384-5.721-14.977-15.289-14.977
		c-9.984,0-15.393,6.656-16.745,16.849H160.645z"/>
	<path d="M205.986,161.505c-0.832,3.12-3.432,4.16-6.344,4.16c-2.809,0-5.096-1.145-6.032-4.16l-14.977-49.402
		c-0.104-0.416-0.208-0.936-0.208-1.248c0-2.184,1.768-3.432,3.744-3.848c0.624-0.104,1.145-0.208,1.768-0.208
		c1.873,0,3.537,0.728,4.16,3.016l7.177,26.417c1.769,6.656,3.224,13.728,4.576,21.425c1.353-7.697,2.496-14.769,4.368-21.425
		l6.76-24.961c0.937-3.12,3.537-4.472,6.449-4.472c3.016,0,5.615,1.352,6.447,4.472l6.449,24.961
		c1.664,6.24,2.808,13.105,4.367,21.529c1.457-8.424,3.017-15.081,4.785-21.529l7.592-26.417c0.624-2.184,2.288-3.016,4.264-3.016
		c0.416,0,0.937,0,1.353,0.104c1.976,0.416,3.952,1.768,3.952,3.952c0,0.312-0.104,0.832-0.208,1.248l-15.809,49.402
		c-0.937,3.016-3.224,4.16-5.929,4.16c-3.016,0-5.615-1.145-6.344-4.16l-6.553-25.273c-1.768-6.864-3.016-13.729-4.367-21.529
		c-1.353,7.904-2.496,14.665-4.369,21.529L205.986,161.505z"/>
</g>
<g>
	<path fill="#EFEA34" d="M176.295,43.606c-7.748-1.425-13.265-3.021-16.816-6.574c-3.555-3.555-5.15-9.069-6.576-16.817
		c-0.066-0.359-0.377-0.618-0.741-0.618c-0.365,0-0.679,0.259-0.742,0.618c-1.425,7.749-3.022,13.263-6.575,16.817
		c-3.554,3.553-9.07,5.149-16.816,6.574c-0.359,0.065-0.619,0.378-0.619,0.743c0,0.364,0.26,0.676,0.619,0.741
		c7.746,1.426,13.263,3.021,16.816,6.577c3.553,3.553,5.15,9.069,6.575,16.816c0.063,0.357,0.377,0.619,0.742,0.619
		c0.364,0,0.675-0.261,0.741-0.619c1.426-7.748,3.021-13.264,6.576-16.816c3.552-3.555,9.068-5.15,16.816-6.577
		c0.357-0.065,0.618-0.377,0.618-0.741C176.913,43.984,176.652,43.671,176.295,43.606z M157.409,49.597
		c-2.418,2.416-4.024,5.491-5.248,9.314c-1.226-3.824-2.831-6.898-5.249-9.314c-2.418-2.417-5.49-4.024-9.313-5.248
		c3.824-1.225,6.896-2.83,9.313-5.249c2.418-2.417,4.023-5.489,5.249-9.314c1.224,3.825,2.83,6.897,5.248,9.314
		c2.416,2.418,5.489,4.023,9.313,5.249C162.898,45.572,159.825,47.18,157.409,49.597z"/>
	<path fill="#EFEA34" d="M214.277,64.363c-5.205-0.958-8.913-2.03-11.303-4.418c-2.388-2.389-3.461-6.096-4.418-11.304
		c-0.044-0.242-0.255-0.416-0.499-0.416c-0.245,0-0.455,0.174-0.499,0.416c-0.958,5.208-2.031,8.915-4.419,11.304
		c-2.388,2.388-6.096,3.46-11.303,4.418c-0.242,0.044-0.416,0.254-0.416,0.499c0,0.244,0.174,0.454,0.416,0.498
		c5.207,0.958,8.915,2.033,11.303,4.42s3.461,6.096,4.419,11.303c0.044,0.24,0.254,0.416,0.499,0.416
		c0.244,0,0.455-0.175,0.499-0.416c0.957-5.207,2.03-8.915,4.418-11.303c2.39-2.388,6.098-3.462,11.303-4.42
		c0.242-0.044,0.417-0.254,0.417-0.498C214.694,64.617,214.52,64.408,214.277,64.363z M200.906,67.711
		c-1.198,1.195-2.112,2.6-2.849,4.235c-0.735-1.636-1.653-3.04-2.849-4.235c-1.198-1.197-2.602-2.113-4.235-2.849
		c1.634-0.736,3.038-1.653,4.235-2.849c1.195-1.197,2.113-2.601,2.849-4.235c0.736,1.634,1.653,3.039,2.849,4.235
		c1.196,1.196,2.6,2.113,4.235,2.849C203.506,65.599,202.103,66.514,200.906,67.711z"/>
	<path fill="#EFEA34" d="M184.201,91.373c-4.027-0.74-6.894-1.571-8.74-3.416c-1.847-1.847-2.675-4.712-3.414-8.737
		c-0.035-0.188-0.197-0.322-0.388-0.322c-0.188,0-0.351,0.134-0.384,0.322c-0.742,4.025-1.571,6.891-3.418,8.737
		c-1.846,1.845-4.712,2.676-8.738,3.416c-0.186,0.033-0.32,0.197-0.32,0.386s0.135,0.353,0.32,0.386
		c4.026,0.741,6.893,1.57,8.738,3.417c1.847,1.847,2.676,4.712,3.418,8.737c0.033,0.186,0.195,0.322,0.384,0.322
		c0.19,0,0.353-0.136,0.388-0.322c0.739-4.025,1.567-6.891,3.414-8.737s4.713-2.676,8.74-3.417c0.185-0.033,0.32-0.197,0.32-0.386
		S184.386,91.406,184.201,91.373z M173.393,93.493c-0.681,0.68-1.249,1.436-1.733,2.278c-0.483-0.842-1.053-1.598-1.732-2.278
		c-0.681-0.682-1.438-1.251-2.279-1.734c0.842-0.484,1.599-1.052,2.279-1.733c0.68-0.68,1.249-1.438,1.732-2.278
		c0.484,0.839,1.053,1.598,1.733,2.278c0.681,0.682,1.438,1.249,2.279,1.733C174.831,92.242,174.073,92.81,173.393,93.493z"/>
</g>
</svg>
