<?xml version="1.0" encoding="utf-8"?>
<!-- Generator: Adobe Illustrator 16.0.0, SVG Export Plug-In . SVG Version: 6.00 Build 0)  -->
<!DOCTYPE svg PUBLIC "-//W3C//DTD SVG 1.1//EN" "http://www.w3.org/Graphics/SVG/1.1/DTD/svg11.dtd">
<svg version="1.1" id="レイヤー_1" xmlns="http://www.w3.org/2000/svg" xmlns:xlink="http://www.w3.org/1999/xlink" x="0px"
	 y="0px" width="44.452px" height="14.773px" viewBox="0 0 44.452 14.773" enable-background="new 0 0 44.452 14.773"
	 xml:space="preserve">
<path fill="#353535" d="M0,11.939c0,1.564,1.27,2.834,2.835,2.834h38.782c1.565,0,2.835-1.27,2.835-2.834V2.834
	c0-1.565-1.27-2.834-2.835-2.834H2.835C1.27,0,0,1.269,0,2.834V11.939z"/>
<g>
	<path fill="#FFFFFF" d="M10.432,12.166c0,0.307-0.217,0.433-0.502,0.433c-0.308,0-0.502-0.126-0.502-0.433V3.309
		C9.428,3,9.622,2.875,9.93,2.875c0.285,0,0.502,0.125,0.502,0.444v2.929c1.721,0.456,3.841,1.22,5.562,2.041
		c0.217,0.103,0.309,0.273,0.309,0.479c0,0.08-0.012,0.16-0.046,0.251C16.188,9.213,16.005,9.35,15.8,9.35
		c-0.08,0-0.159-0.023-0.239-0.057c-1.505-0.764-3.465-1.55-5.129-2.029V12.166z"/>
	<path fill="#FFFFFF" d="M18.788,5.725c0.16,0,0.297,0.08,0.376,0.239c0.354,0.672,0.719,1.619,0.946,2.359
		c0.012,0.068,0.022,0.114,0.022,0.171c0,0.194-0.125,0.319-0.318,0.376c-0.068,0.023-0.126,0.034-0.183,0.034
		c-0.183,0-0.342-0.091-0.399-0.285c-0.216-0.729-0.581-1.664-0.911-2.314c-0.034-0.057-0.046-0.103-0.046-0.16
		c0-0.171,0.125-0.319,0.296-0.376C18.64,5.736,18.72,5.725,18.788,5.725z M25.502,5.941c0,0.023,0,0.057,0,0.08
		c-0.148,1.516-0.639,3.043-1.425,4.092c-0.889,1.173-2.303,2.097-3.83,2.417c-0.046,0.011-0.091,0.011-0.125,0.011
		c-0.205,0-0.354-0.113-0.41-0.307c-0.012-0.058-0.023-0.115-0.023-0.172c0-0.182,0.114-0.33,0.319-0.376
		c1.276-0.308,2.588-1.071,3.352-2.131c0.684-0.946,1.082-2.314,1.23-3.693c0.012-0.251,0.229-0.354,0.422-0.354
		c0.012,0,0.034,0,0.057,0C25.354,5.554,25.502,5.69,25.502,5.941z M21.182,5.269c0.16,0,0.297,0.08,0.388,0.25
		c0.354,0.673,0.684,1.55,0.89,2.325c0.011,0.034,0.011,0.08,0.011,0.114c0,0.171-0.103,0.319-0.308,0.388
		c-0.068,0.011-0.125,0.022-0.193,0.022c-0.183,0-0.354-0.091-0.388-0.262c-0.194-0.729-0.547-1.641-0.855-2.257
		c-0.034-0.057-0.045-0.114-0.045-0.171c0-0.16,0.125-0.296,0.296-0.365C21.045,5.28,21.113,5.269,21.182,5.269z"/>
	<path fill="#FFFFFF" d="M33.665,4.175c0.547,0,0.877,0.137,1.094,0.41c0.171,0.205,0.239,0.49,0.239,0.821
		c0,0.103-0.011,0.205-0.022,0.319c-0.49,3.465-2.884,6.063-6.668,6.999c-0.068,0.021-0.137,0.033-0.205,0.033
		c-0.217,0-0.365-0.113-0.434-0.318c-0.011-0.058-0.022-0.126-0.022-0.184c0-0.227,0.137-0.41,0.364-0.479
		c3.283-0.865,5.518-3.02,5.894-6.086c0.011-0.057,0.011-0.114,0.011-0.171c0-0.296-0.147-0.376-0.501-0.376h-6.646
		c-0.262,0-0.41-0.205-0.41-0.49c0-0.273,0.159-0.479,0.41-0.479H33.665z M37.073,3.354c0,0.695-0.559,1.254-1.254,1.254
		s-1.254-0.559-1.254-1.254S35.124,2.1,35.819,2.1S37.073,2.659,37.073,3.354z M35.112,3.354c0,0.388,0.319,0.707,0.707,0.707
		c0.387,0,0.706-0.319,0.706-0.707s-0.319-0.707-0.706-0.707C35.432,2.647,35.112,2.966,35.112,3.354z"/>
</g>
</svg>
