<?xml version="1.0" encoding="utf-8"?>
<!-- Generator: Adobe Illustrator 12.0.0, SVG Export Plug-In . SVG Version: 6.00 Build 51448)  -->
<!DOCTYPE svg PUBLIC "-//W3C//DTD SVG 1.1//EN" "http://www.w3.org/Graphics/SVG/1.1/DTD/svg11.dtd" [
	<!ENTITY ns_svg "http://www.w3.org/2000/svg">
	<!ENTITY ns_xlink "http://www.w3.org/1999/xlink">
]>
<svg  version="1.1" id="レイヤー_1" xmlns="&ns_svg;" xmlns:xlink="&ns_xlink;" width="321.084" height="254.114"
	 viewBox="0 0 321.084 254.114" overflow="visible" enable-background="new 0 0 321.084 254.114" xml:space="preserve">
<g>
	<path d="M14.438,64.245v-4.019c0-0.69-0.024-1.244-0.072-1.66c0.393,0.047,0.911,0.071,1.554,0.071h10.536
		c0.69,0,1.232-0.024,1.625-0.071c-0.048,0.381-0.072,0.935-0.072,1.66v4.019c0,0.619,0.036,1.185,0.107,1.697h-1.179v-0.786H15.51
		v0.786h-1.179C14.402,65.406,14.438,64.84,14.438,64.245z M15.51,59.602v1.75h5v-1.75H15.51z M15.51,62.281v1.928h5v-1.928H15.51z
		 M17.333,51.315h2.518c0.322-0.619,0.554-1.243,0.697-1.875l1.268,0.215c-0.096,0.238-0.179,0.422-0.25,0.553
		c-0.131,0.322-0.31,0.691-0.536,1.107h4.125c0.727,0,1.328-0.03,1.804-0.089c-0.036,0.488-0.053,1.018-0.053,1.589v2.947
		c0,0.679,0.018,1.221,0.053,1.625c-0.487-0.034-1.077-0.054-1.768-0.054h-7.893c-0.572,0-1.155,0.018-1.75,0.054
		c0.036-0.464,0.054-1,0.054-1.607v-2.803c0-0.667-0.018-1.25-0.054-1.75C16.045,51.286,16.641,51.315,17.333,51.315z
		 M16.671,52.262v1.536h9.161v-1.536H16.671z M16.671,54.726v1.679h9.161v-1.679H16.671z M21.583,59.602v1.75h5.357v-1.75H21.583z
		 M21.583,62.281v1.928h5.357v-1.928H21.583z"/>
	<path d="M38.263,63.049V51.565c0-0.607-0.042-1.161-0.125-1.661h1.482c-0.083,0.488-0.125,1.042-0.125,1.661v11.483h5.268v-8.162
		c0-0.595-0.036-1.149-0.107-1.66h1.411c-0.072,0.607-0.107,1.166-0.107,1.679v8.893c0,0.667,0.042,1.298,0.125,1.893h-1.321v-1.5
		H33.352v1.5H32.03c0.083-0.703,0.125-1.304,0.125-1.804v-8.911c0-0.679-0.042-1.262-0.125-1.75h1.41
		c-0.059,0.417-0.088,0.994-0.088,1.731v8.091L38.263,63.049L38.263,63.049z"/>
	<path d="M55.976,55.905l-0.143,0.089c0.774,0.667,1.393,1.625,1.857,2.875s0.696,2.565,0.696,3.946
		c0,1.167-0.172,1.958-0.518,2.375c-0.297,0.369-0.851,0.554-1.661,0.554c-0.466,0-1.167-0.042-2.107-0.125
		c-0.024-0.405-0.119-0.804-0.286-1.196c0.892,0.179,1.66,0.268,2.303,0.268c0.453,0,0.759-0.143,0.92-0.428
		c0.161-0.286,0.241-0.857,0.241-1.715c0-0.428-0.023-0.875-0.071-1.339c-1.81,1.488-4.321,2.756-7.536,3.804
		c-0.203-0.369-0.435-0.703-0.696-1c3.274-0.833,5.946-2.136,8.018-3.911c-0.119-0.5-0.286-1-0.5-1.5
		c-1.833,1.262-4.06,2.273-6.679,3.036c-0.155-0.333-0.375-0.66-0.661-0.982c1.453-0.345,2.816-0.798,4.09-1.357
		c1.047-0.464,1.976-0.982,2.786-1.554c-0.321-0.512-0.666-0.929-1.035-1.25c-1.286,0.714-2.875,1.328-4.769,1.839
		c-0.203-0.381-0.423-0.696-0.661-0.946c1.405-0.31,2.583-0.649,3.536-1.018c0.952-0.369,1.851-0.845,2.697-1.429h-2.625
		c-0.56,0-1.137,0.03-1.732,0.089v-1.143c0.464,0.071,1.042,0.106,1.732,0.106h7.554c0.81,0,1.393-0.036,1.75-0.106v1.143
		c-0.595-0.061-1.178-0.089-1.75-0.089h-1.929c0.333,1.393,0.691,2.506,1.072,3.34c1.393-1.024,2.303-1.911,2.732-2.661l1,0.821
		c-0.262,0.214-0.619,0.536-1.071,0.965c-0.477,0.464-1.203,1.065-2.18,1.804c0.561,0.988,1.2,1.831,1.92,2.526
		c0.721,0.697,1.652,1.378,2.795,2.045c-0.286,0.25-0.578,0.583-0.875,1c-1.298-0.929-2.262-1.756-2.893-2.482
		c-1.369-1.523-2.387-3.404-3.054-5.643c-0.107-0.333-0.256-0.905-0.446-1.714h-0.536C56.869,55.274,56.44,55.595,55.976,55.905z
		 M56.19,51.333V50.78c0-0.369-0.042-0.738-0.125-1.107h1.393c-0.071,0.393-0.107,0.756-0.107,1.089v0.572h5.286
		c0.69,0,1.292-0.024,1.804-0.072c-0.047,0.298-0.071,0.691-0.071,1.179v1.107c0,0.476,0.024,0.88,0.071,1.214H63.28v-2.446H50.655
		v2.446h-1.161c0.048-0.369,0.072-0.779,0.072-1.232v-1.09c0-0.452-0.024-0.845-0.072-1.179c0.512,0.048,1.107,0.072,1.786,0.072
		H56.19z"/>
</g>
<g>
	<path d="M15.779,114.118l0.929,0.553c-0.429,0.715-0.819,1.269-1.17,1.66c-0.351,0.395-0.89,0.881-1.616,1.465
		c-0.19-0.297-0.466-0.576-0.822-0.84c0.667-0.439,1.197-0.865,1.59-1.275C15.081,115.27,15.444,114.75,15.779,114.118z
		 M14.956,103.991v-0.339c0-0.644-0.036-1.209-0.107-1.696h1.25c-0.06,0.394-0.089,0.965-0.089,1.715v0.32h3.286v-0.339
		c0-0.774-0.03-1.34-0.089-1.696h1.232c-0.071,0.44-0.107,1.012-0.107,1.715v0.32c0.714-0.023,1.196-0.06,1.446-0.105v1.143
		c-0.321-0.048-0.804-0.07-1.446-0.07v7.606c0.56,0,1.018-0.028,1.375-0.089v1.125c-0.369-0.036-0.911-0.055-1.625-0.055h-5.447
		c-0.667,0-1.155,0.029-1.463,0.09v-1.16c0.321,0.061,0.804,0.089,1.446,0.089h0.339v-7.606H14.85c-0.75,0-1.262,0.028-1.536,0.088
		v-1.16c0.322,0.072,0.833,0.107,1.536,0.107h0.106V103.991z M16.01,106.831h3.286v-1.875H16.01V106.831z M16.01,109.618h3.286
		v-1.841H16.01V109.618z M16.01,112.563h3.286v-2H16.01V112.563z M18.225,114.633l0.804-0.534c0.273,0.429,0.529,0.772,0.767,1.036
		c0.238,0.262,0.572,0.547,1,0.855c-0.322,0.19-0.613,0.424-0.875,0.697c-0.417-0.406-0.729-0.734-0.938-0.99
		C18.774,115.441,18.521,115.088,18.225,114.633z M23.78,107.723h4.143c0.655,0,1.173-0.029,1.554-0.09v1.232
		c-0.369-0.061-0.869-0.09-1.5-0.09h-0.5v7.305c0,0.75,0.042,1.394,0.125,1.928h-1.357c0.072-0.475,0.107-1.118,0.107-1.928v-7.305
		h-2.607c-0.06,2.238-0.203,3.93-0.429,5.072c-0.167,0.845-0.411,1.6-0.732,2.259c-0.321,0.66-0.78,1.354-1.375,2.08
		c-0.286-0.333-0.595-0.612-0.929-0.839c0.679-0.727,1.17-1.432,1.473-2.116c0.304-0.687,0.521-1.545,0.652-2.581
		c0.19-1.654,0.286-3.756,0.286-6.304c0-1.035-0.036-1.869-0.107-2.5c1.096-0.022,2.191-0.185,3.286-0.481
		c1.096-0.299,1.953-0.668,2.572-1.107l0.857,0.982c-1.024,0.416-1.732,0.684-2.125,0.803c-1.036,0.322-2.167,0.555-3.393,0.697
		v1.946L23.78,107.723L23.78,107.723z"/>
	<path d="M31.03,107.258l0.642-0.875c1.083,0.668,2.078,1.394,2.983,2.18l-0.679,0.98C33.083,108.674,32.1,107.915,31.03,107.258z
		 M33.671,111.402l0.911,0.697c-0.369,1.131-0.699,2.032-0.991,2.705c-0.292,0.672-0.705,1.497-1.241,2.474
		c0,0.012-0.065,0.137-0.196,0.375l-1.018-0.91c0.25-0.263,0.5-0.602,0.75-1.02C32.564,114.508,33.159,113.069,33.671,111.402z
		 M35.546,104.508l-0.75,0.84c-0.81-0.893-1.755-1.696-2.839-2.411l0.75-0.804C33.731,102.848,34.677,103.64,35.546,104.508z
		 M38.297,109.528h-0.875c-0.095,1.939-0.31,3.545-0.643,4.813c-0.333,1.269-0.839,2.402-1.518,3.402
		c-0.31-0.299-0.643-0.531-1-0.697c0.667-0.928,1.149-1.969,1.447-3.125c0.44-1.619,0.661-4.19,0.661-7.715
		c0-1-0.024-1.744-0.071-2.231c0.31,0.06,0.887,0.089,1.732,0.089h2.714v-0.643c0-0.787-0.036-1.375-0.106-1.77h1.285
		c-0.071,0.357-0.107,0.947-0.107,1.77v0.643h2.929c0.845,0,1.393-0.029,1.643-0.089l0.625,0.644
		c-0.095,0.131-0.214,0.346-0.356,0.643c-0.453,0.904-0.876,1.668-1.27,2.287c-0.31-0.18-0.649-0.322-1.018-0.43
		c0.476-0.632,0.869-1.31,1.179-2.035h-3.732v3.465h1.786c0.714,0,1.191-0.03,1.429-0.09l0.643,0.66
		c-0.06,0.106-0.19,0.375-0.393,0.803c-0.679,1.549-1.571,2.947-2.679,4.197c1.238,1.036,2.798,1.889,4.681,2.555
		c-0.298,0.332-0.536,0.689-0.714,1.07c-1.857-0.785-3.423-1.744-4.697-2.875c-1.25,1.18-2.756,2.154-4.518,2.93
		c-0.155-0.346-0.381-0.68-0.679-1c1.713-0.653,3.191-1.543,4.429-2.662C39.898,112.883,38.964,111.348,38.297,109.528z
		 M37.458,108.545h3.286v-3.465h-3.25v1.285C37.493,106.557,37.483,107.284,37.458,108.545z M44.261,109.528h-4.875
		c0.334,0.855,0.676,1.563,1.027,2.115c0.352,0.555,0.825,1.141,1.42,1.76c0.56-0.632,1.018-1.227,1.375-1.785
		C43.565,111.058,43.916,110.361,44.261,109.528z"/>
	<path d="M55.976,107.993l-0.143,0.088c0.774,0.666,1.393,1.625,1.857,2.875s0.696,2.565,0.696,3.947
		c0,1.167-0.172,1.958-0.518,2.374c-0.297,0.369-0.851,0.554-1.661,0.554c-0.466,0-1.167-0.041-2.107-0.125
		c-0.024-0.404-0.119-0.804-0.286-1.195c0.892,0.18,1.66,0.268,2.303,0.268c0.453,0,0.759-0.143,0.92-0.428
		c0.161-0.286,0.241-0.857,0.241-1.715c0-0.428-0.023-0.875-0.071-1.34c-1.81,1.488-4.321,2.756-7.536,3.805
		c-0.203-0.369-0.435-0.703-0.696-1.001c3.274-0.832,5.946-2.136,8.018-3.91c-0.119-0.5-0.286-1-0.5-1.5
		c-1.833,1.263-4.06,2.272-6.679,3.036c-0.155-0.334-0.375-0.661-0.661-0.982c1.453-0.346,2.816-0.798,4.09-1.357
		c1.047-0.463,1.976-0.981,2.786-1.553c-0.321-0.513-0.666-0.93-1.035-1.25c-1.286,0.713-2.875,1.326-4.769,1.838
		c-0.203-0.381-0.423-0.695-0.661-0.945c1.405-0.311,2.583-0.648,3.536-1.018c0.952-0.369,1.851-0.846,2.697-1.43h-2.625
		c-0.56,0-1.137,0.03-1.732,0.09v-1.144c0.464,0.071,1.042,0.106,1.732,0.106h7.554c0.81,0,1.393-0.035,1.75-0.106v1.144
		c-0.595-0.06-1.178-0.09-1.75-0.09h-1.929c0.333,1.395,0.691,2.506,1.072,3.34c1.393-1.023,2.303-1.91,2.732-2.66l1,0.82
		c-0.262,0.215-0.619,0.536-1.071,0.965c-0.477,0.465-1.203,1.065-2.18,1.805c0.561,0.988,1.2,1.83,1.92,2.525
		c0.721,0.697,1.652,1.379,2.795,2.045c-0.286,0.25-0.578,0.584-0.875,1c-1.298-0.929-2.262-1.756-2.893-2.482
		c-1.369-1.522-2.387-3.404-3.054-5.643c-0.107-0.334-0.256-0.904-0.446-1.715h-0.536C56.869,107.361,56.44,107.682,55.976,107.993z
		 M56.19,103.418v-0.553c0-0.369-0.042-0.738-0.125-1.107h1.393c-0.071,0.394-0.107,0.756-0.107,1.09v0.57h5.286
		c0.69,0,1.292-0.022,1.804-0.07c-0.047,0.298-0.071,0.689-0.071,1.179v1.106c0,0.477,0.024,0.882,0.071,1.215H63.28v-2.446H50.655
		v2.446h-1.161c0.048-0.369,0.072-0.779,0.072-1.232v-1.089c0-0.452-0.024-0.846-0.072-1.179c0.512,0.048,1.107,0.07,1.786,0.07
		H56.19z"/>
</g>
<g>
	<path d="M116.636,40.021h0.714c-0.035,0.178-0.055,0.571-0.055,1.178c0,0.196,0.006,0.506,0.02,0.929
		c0.494,0,0.992-0.033,1.495-0.098c0.503-0.066,0.877-0.146,1.121-0.242l0.08,0.661c-0.103,0.006-0.279,0.027-0.536,0.063
		c-0.73,0.113-1.449,0.179-2.15,0.196c0.028,0.905,0.067,1.674,0.115,2.304c0.689,0.196,1.484,0.619,2.385,1.268
		c0.178,0.125,0.314,0.217,0.41,0.277l-0.42,0.625c-0.186-0.227-0.494-0.485-0.929-0.777c-0.446-0.304-0.849-0.533-1.205-0.688
		c-0.106-0.047-0.179-0.08-0.216-0.098c0.023,0.131,0.037,0.259,0.037,0.384c0,0.398-0.075,0.699-0.225,0.902
		c-0.292,0.41-0.82,0.616-1.59,0.616c-0.576,0-1.029-0.118-1.361-0.354c-0.33-0.234-0.494-0.558-0.494-0.968
		c0-0.429,0.189-0.771,0.57-1.027s0.891-0.384,1.526-0.384c0.293,0,0.551,0.027,0.776,0.081c0.014,0,0.025,0.003,0.041,0.009
		c0.015,0.006,0.027,0.009,0.039,0.009s0.027,0.006,0.045,0.018c0-0.03-0.002-0.057-0.009-0.08v-0.054
		c-0.084-1.221-0.131-2.563-0.144-4.027C116.672,40.398,116.661,40.157,116.636,40.021z M116.84,45.476
		c-0.309-0.083-0.614-0.125-0.918-0.125c-0.453,0-0.811,0.074-1.072,0.223c-0.262,0.149-0.393,0.354-0.393,0.616
		c0,0.155,0.045,0.283,0.133,0.384c0.203,0.238,0.561,0.357,1.072,0.357c0.435,0,0.765-0.099,0.99-0.295
		c0.143-0.137,0.215-0.361,0.215-0.67C116.868,45.64,116.858,45.476,116.84,45.476z"/>
	<path d="M123.637,40.252h0.775c-0.054,0.31-0.093,0.938-0.115,1.884c-0.043,1.25-0.063,2.146-0.063,2.688
		c0,0.083,0.007,0.262,0.019,0.536c0.035,0.494,0.176,0.851,0.42,1.072c0.262,0.232,0.634,0.348,1.115,0.348
		c1.078,0,1.875-0.518,2.394-1.554c0.179-0.375,0.325-0.843,0.438-1.402c0.202,0.173,0.416,0.316,0.644,0.429
		c-0.306,0.941-0.634,1.616-0.991,2.027c-0.631,0.744-1.471,1.116-2.52,1.116c-0.756,0-1.314-0.208-1.678-0.626
		c-0.186-0.208-0.313-0.447-0.385-0.718c-0.07-0.271-0.107-0.642-0.107-1.112c0-0.315,0.027-1.527,0.082-3.634
		c0.006-0.179,0.008-0.372,0.008-0.58C123.672,40.57,123.661,40.413,123.637,40.252z"/>
	<path d="M131.637,41.439l-0.01-0.642c0.138,0.023,0.276,0.035,0.42,0.035c0.494,0,0.969-0.028,1.425-0.085
		c0.454-0.057,0.767-0.124,0.933-0.2l0.375,0.562c-0.244,0.172-0.433,0.32-0.566,0.442c-0.135,0.122-0.293,0.294-0.479,0.514
		c-0.814,0.988-1.223,1.94-1.223,2.857c0,0.536,0.164,0.978,0.494,1.326c0.332,0.348,0.752,0.521,1.265,0.521
		c0.394,0,0.759-0.112,1.099-0.338c0.34-0.227,0.586-0.521,0.741-0.884c0.214-0.506,0.32-1.128,0.32-1.866
		c0-0.512-0.05-1.035-0.149-1.567c-0.104-0.533-0.236-0.969-0.402-1.308l0.642-0.214c0.147,0.488,0.429,1.03,0.839,1.625
		c0.363,0.53,0.792,0.994,1.286,1.393c0.112,0.102,0.224,0.173,0.33,0.214l-0.34,0.625c-0.106-0.102-0.229-0.211-0.365-0.331
		c-0.453-0.399-0.83-0.833-1.135-1.304c-0.144-0.232-0.244-0.405-0.304-0.518l-0.179-0.313c0.237,0.732,0.356,1.408,0.356,2.027
		c0,0.673-0.116,1.283-0.348,1.83c-0.197,0.471-0.513,0.848-0.947,1.13c-0.434,0.282-0.916,0.424-1.445,0.424
		c-0.703,0-1.273-0.231-1.715-0.693s-0.661-1.058-0.661-1.79c0-1.006,0.396-1.997,1.188-2.973c0.148-0.185,0.256-0.31,0.321-0.375
		s0.226-0.205,0.481-0.419c-0.321,0.084-0.577,0.139-0.768,0.165c-0.19,0.027-0.6,0.061-1.225,0.104
		C131.784,41.425,131.697,41.434,131.637,41.439z"/>
	<path d="M141.522,41.289l-0.036-0.67c0.22,0.036,0.552,0.054,0.991,0.054c0.958,0,1.818-0.04,2.581-0.117
		c0.147-0.011,0.271-0.038,0.364-0.081l0.375,0.518c-0.088,0.06-0.41,0.366-0.965,0.92c-0.647,0.655-1.125,1.119-1.433,1.393
		s-0.642,0.539-1.004,0.794l0.026,0.027c0.445-0.262,0.834-0.445,1.164-0.549c0.332-0.104,0.699-0.157,1.104-0.157
		c0.708,0,1.271,0.161,1.69,0.482c0.42,0.321,0.631,0.753,0.631,1.295c0,0.369-0.104,0.71-0.309,1.021
		c-0.205,0.313-0.49,0.562-0.854,0.746c-0.512,0.25-1.146,0.375-1.9,0.375c-0.65,0-1.367-0.141-2.152-0.42
		c0.006-0.047,0.009-0.101,0.009-0.161c0-0.119-0.021-0.307-0.063-0.562c0.68,0.369,1.438,0.554,2.276,0.554
		c0.69,0,1.253-0.145,1.685-0.433c0.432-0.29,0.646-0.663,0.646-1.121c0-0.387-0.159-0.692-0.479-0.916
		c-0.318-0.224-0.75-0.335-1.299-0.335c-0.453,0-0.932,0.086-1.438,0.259c-0.508,0.172-0.982,0.414-1.43,0.723
		c-0.273,0.185-0.506,0.372-0.697,0.563l-0.445-0.554c0.268-0.161,0.654-0.455,1.161-0.884c1.077-0.941,2.065-1.881,2.965-2.822
		c0.022-0.03,0.05-0.06,0.079-0.089l0.072-0.071l-0.02-0.009c-0.029,0-0.068,0.007-0.115,0.018
		c-0.451,0.071-1.302,0.125-2.545,0.161C141.883,41.243,141.668,41.258,141.522,41.289z"/>
	<path d="M126.724,60.402l0.911,0.625c-0.143,0.119-0.311,0.274-0.5,0.464c-0.488,0.453-1.043,0.917-1.661,1.393
		c0.381,0.429,0.815,0.818,1.304,1.17c0.488,0.351,0.84,0.527,1.055,0.527c0.203,0,0.381-0.17,0.535-0.509
		c0.154-0.339,0.34-0.973,0.555-1.902c0.248,0.31,0.535,0.554,0.856,0.732c-0.286,1.047-0.557,1.768-0.813,2.161
		c-0.256,0.393-0.592,0.59-1.01,0.59c-0.439,0-0.955-0.194-1.545-0.581c-0.589-0.387-1.176-0.914-1.759-1.581
		c-1.144,0.762-2.493,1.435-4.054,2.018c-0.167-0.345-0.393-0.655-0.68-0.929c1.607-0.476,2.988-1.089,4.144-1.839
		c-0.487-0.738-0.881-1.62-1.179-2.644l-4.285,0.072v1.356c0.964-0.142,1.977-0.333,3.035-0.571v0.91
		c-1.285,0.274-2.297,0.464-3.035,0.572v2.054c0,0.476-0.1,0.798-0.295,0.964c-0.196,0.166-0.58,0.25-1.151,0.25
		c-0.417,0-1.03-0.036-1.84-0.107c-0.071-0.464-0.16-0.816-0.269-1.054c0.856,0.143,1.561,0.214,2.107,0.214
		c0.262,0,0.393-0.119,0.393-0.357v-1.804c-0.487,0.071-1.209,0.167-2.16,0.286c-0.428,0.048-0.743,0.089-0.946,0.125
		c-0.144,0.024-0.256,0.048-0.339,0.071l-0.232-1.142c0.143,0.011,0.286,0.017,0.43,0.017c0.643,0,1.726-0.095,3.25-0.285v-1.482
		l-2.322,0.035c-0.547,0-1.09,0.037-1.624,0.108l-0.019-1.125c0.535,0.059,0.963,0.089,1.285,0.089h0.356l2.321-0.036v-1.125
		c-0.56,0.083-1.465,0.19-2.713,0.321c-0.119-0.321-0.293-0.607-0.52-0.857c2.727-0.119,4.703-0.453,5.93-1
		c0.012,0,0.023-0.003,0.033-0.009c0.014-0.006,0.033-0.015,0.063-0.027c0.031-0.012,0.069-0.03,0.117-0.054l0.803,0.768
		c-0.868,0.286-1.756,0.512-2.66,0.679v1.286l4.07-0.072c-0.035-0.25-0.105-0.768-0.213-1.554c-0.037-0.333-0.072-0.589-0.106-0.768
		h1.214c-0.023,0.143-0.036,0.303-0.036,0.482c0,0.536,0.065,1.143,0.196,1.822l3.857-0.071c0.857-0.012,1.5-0.06,1.928-0.143
		l0.02,1.143c-0.322-0.048-0.714-0.072-1.179-0.072c-0.345,0-0.597,0.006-0.75,0.018l-3.661,0.054
		c0.238,0.761,0.564,1.446,0.982,2.053C125.754,61.504,126.355,60.926,126.724,60.402z M116.475,51.222h2.232
		c-0.287-0.381-0.696-0.838-1.232-1.375l0.965-0.375c0.523,0.536,1.012,1.119,1.464,1.75h2.911c0.596-0.619,1.055-1.227,1.375-1.822
		l1.125,0.393c-0.439,0.571-0.857,1.048-1.249,1.429h2.535c0.903,0,1.512-0.034,1.821-0.107v1.09
		c-0.452-0.06-1.061-0.089-1.821-0.089h-4.625v1.161h3.821c0.785,0,1.352-0.03,1.695-0.089v1.053
		c-0.369-0.06-0.935-0.089-1.695-0.089h-3.821v1.251h5.696c0.773,0,1.394-0.036,1.856-0.108v1.143
		c-0.464-0.071-1.083-0.107-1.856-0.107h-12.197c-0.785,0-1.41,0.036-1.875,0.107v-1.142c0.477,0.072,1.102,0.107,1.875,0.107h5.447
		v-1.25h-3.662c-0.785,0-1.356,0.031-1.713,0.089v-1.054c0.345,0.06,0.916,0.09,1.713,0.09h3.662v-1.161h-4.447
		c-0.797,0-1.41,0.03-1.84,0.089v-1.089C115.1,51.188,115.711,51.222,116.475,51.222z M124.654,57.224l0.644-0.625
		c0.857,0.429,1.638,0.917,2.341,1.465l-0.661,0.714C126.37,58.241,125.595,57.724,124.654,57.224z"/>
	<path d="M133.083,59.492l1.019,0.286c-0.237,1.012-0.464,1.8-0.679,2.366c-0.215,0.565-0.555,1.241-1.019,2.027
		c-0.25-0.238-0.571-0.447-0.965-0.625c0.44-0.619,0.783-1.229,1.026-1.831C132.711,61.114,132.917,60.373,133.083,59.492z
		 M135.368,51.919v-0.661c0-0.738-0.029-1.256-0.089-1.554h1.286c-0.061,0.286-0.09,0.798-0.09,1.536v0.678h1.91
		c0.584,0,1.107-0.036,1.572-0.107v1.197c-0.369-0.06-0.899-0.089-1.59-0.089h-5.107c-0.68,0-1.244,0.036-1.696,0.107v-1.214
		c0.369,0.071,0.923,0.107,1.661,0.107H135.368z M135.262,58.474h-1c-0.727,0-1.299,0.024-1.715,0.071
		c0.048-0.417,0.07-0.958,0.07-1.625v-1.018c0-0.679-0.022-1.232-0.07-1.661c0.429,0.048,0.988,0.072,1.679,0.072h3.269
		c0.666,0,1.209-0.024,1.625-0.072c-0.048,0.429-0.07,0.971-0.07,1.625v1.036c0,0.679,0.022,1.227,0.07,1.643
		c-0.416-0.047-0.976-0.071-1.679-0.071h-1.071v5.893c0,0.525-0.154,0.869-0.467,1.036c-0.261,0.131-0.701,0.197-1.32,0.197
		c-0.465,0-0.84-0.006-1.125-0.018c-0.023-0.333-0.096-0.703-0.215-1.107c0.523,0.072,1.024,0.107,1.5,0.107
		c0.215,0,0.354-0.028,0.42-0.081c0.065-0.054,0.1-0.175,0.1-0.366V58.474L135.262,58.474z M133.708,55.313v2.214h4.252v-2.214
		H133.708z M137.047,59.706l0.856-0.375c0.488,0.964,0.899,1.923,1.231,2.875l-0.945,0.554
		C137.917,61.688,137.536,60.67,137.047,59.706z M142.137,55.277h-0.821c-0.737,0-1.269,0.03-1.589,0.09v-1.232
		c0.32,0.06,0.855,0.091,1.605,0.091h0.895c0.083-1.036,0.125-2.018,0.125-2.947c0-0.548-0.03-1.018-0.09-1.411h1.268
		c-0.06,0.274-0.089,0.75-0.089,1.429c-0.012,0.679-0.06,1.655-0.144,2.929h2.394c0.763,0,1.322-0.031,1.679-0.091v1.232
		c-0.369-0.06-0.929-0.09-1.679-0.09h-2.5c-0.202,1.679-0.481,3.096-0.839,4.25c-0.357,1.154-0.857,2.256-1.5,3.303
		c-0.417,0.691-0.805,1.248-1.161,1.67c-0.356,0.423-0.821,0.878-1.394,1.366c-0.25-0.31-0.541-0.595-0.875-0.857
		c0.977-0.738,1.805-1.649,2.481-2.732C141.045,60.444,141.792,58.11,142.137,55.277z M143.316,56.706h1.179
		c-0.059,0.369-0.089,0.881-0.089,1.536l-0.019,5.554c0,0.226,0.058,0.372,0.17,0.438c0.113,0.065,0.359,0.098,0.74,0.098
		c0.394,0,0.664-0.039,0.813-0.116c0.147-0.077,0.253-0.235,0.313-0.473c0.119-0.488,0.179-1.333,0.179-2.536
		c0.344,0.226,0.696,0.38,1.054,0.465c-0.082,1.619-0.256,2.661-0.518,3.125c-0.133,0.214-0.344,0.363-0.635,0.446
		s-0.734,0.125-1.33,0.125c-0.561,0-0.971-0.042-1.231-0.125c-0.237-0.071-0.401-0.188-0.491-0.348
		c-0.09-0.161-0.127-0.414-0.115-0.759l0.018-5.893C143.352,57.694,143.338,57.182,143.316,56.706z M144.297,50.723l0.82-0.554
		c0.762,0.857,1.422,1.732,1.981,2.625l-0.875,0.679C145.702,52.485,145.061,51.568,144.297,50.723z"/>
</g>
<g>
	<path d="M116.264,92.032h0.714c-0.035,0.18-0.054,0.572-0.054,1.18c0,0.197,0.006,0.506,0.019,0.929
		c0.494,0,0.992-0.033,1.495-0.099c0.503-0.066,0.877-0.146,1.121-0.242l0.08,0.662c-0.102,0.006-0.279,0.027-0.536,0.063
		c-0.731,0.112-1.449,0.179-2.151,0.195c0.029,0.905,0.068,1.675,0.116,2.304c0.69,0.197,1.485,0.619,2.384,1.27
		c0.18,0.125,0.315,0.217,0.411,0.275l-0.42,0.625c-0.185-0.227-0.493-0.484-0.929-0.775c-0.446-0.305-0.85-0.533-1.205-0.688
		c-0.107-0.048-0.18-0.081-0.215-0.099c0.023,0.131,0.035,0.259,0.035,0.384c0,0.399-0.074,0.7-0.223,0.901
		c-0.293,0.412-0.822,0.617-1.591,0.617c-0.575,0-1.03-0.119-1.36-0.354c-0.33-0.235-0.496-0.559-0.496-0.969
		c0-0.43,0.19-0.771,0.572-1.027c0.381-0.256,0.891-0.385,1.525-0.385c0.293,0,0.552,0.027,0.777,0.08
		c0.013,0,0.024,0.004,0.041,0.01c0.014,0.006,0.026,0.009,0.039,0.009c0.012,0,0.026,0.006,0.045,0.019
		c0-0.029-0.004-0.057-0.01-0.08v-0.053c-0.084-1.222-0.131-2.564-0.144-4.027C116.301,92.411,116.29,92.168,116.264,92.032z
		 M116.469,97.488c-0.309-0.083-0.615-0.125-0.92-0.125c-0.452,0-0.809,0.074-1.071,0.224c-0.263,0.148-0.394,0.354-0.394,0.615
		c0,0.155,0.045,0.283,0.135,0.385c0.201,0.238,0.56,0.356,1.07,0.356c0.436,0,0.766-0.099,0.992-0.294
		c0.143-0.139,0.213-0.359,0.213-0.67C116.495,97.652,116.486,97.488,116.469,97.488z"/>
	<path d="M123.265,92.264h0.776c-0.055,0.311-0.094,0.938-0.117,1.884c-0.041,1.25-0.063,2.146-0.063,2.688
		c0,0.084,0.006,0.263,0.02,0.535c0.035,0.494,0.175,0.853,0.418,1.071c0.264,0.231,0.635,0.349,1.117,0.349
		c1.076,0,1.875-0.518,2.393-1.553c0.179-0.375,0.324-0.844,0.438-1.402c0.203,0.172,0.418,0.314,0.645,0.429
		c-0.305,0.94-0.635,1.616-0.991,2.026c-0.631,0.744-1.471,1.117-2.519,1.117c-0.756,0-1.315-0.209-1.68-0.625
		c-0.184-0.209-0.312-0.449-0.384-0.72c-0.071-0.271-0.106-0.642-0.106-1.112c0-0.314,0.026-1.525,0.08-3.634
		c0.006-0.179,0.01-0.372,0.01-0.58C123.299,92.583,123.288,92.426,123.265,92.264z"/>
	<path d="M130.988,94.935l-0.071-0.644c0.424-0.012,1.08-0.09,1.975-0.23c0.179-0.779,0.268-1.411,0.268-1.895v-0.115l0.715,0.08
		c-0.047,0.144-0.104,0.429-0.17,0.857c-0.022,0.148-0.086,0.487-0.188,1.018c0.201-0.018,0.378-0.026,0.525-0.026
		c0.603,0,1.03,0.125,1.287,0.375c0.291,0.272,0.438,0.754,0.438,1.438s-0.055,1.303-0.16,1.853
		c-0.107,0.552-0.253,0.957-0.438,1.22c-0.197,0.279-0.488,0.42-0.877,0.42c-0.351,0-0.799-0.117-1.348-0.349
		c0.012-0.09,0.018-0.192,0.018-0.313c0-0.131-0.008-0.25-0.025-0.356c0.535,0.272,0.979,0.411,1.33,0.411
		c0.227,0,0.396-0.145,0.509-0.43c0.25-0.596,0.375-1.422,0.375-2.481c0-0.47-0.079-0.798-0.235-0.979
		c-0.158-0.182-0.445-0.271-0.861-0.271c-0.155,0-0.369,0.016-0.645,0.046c-0.31,1.333-0.759,2.595-1.349,3.785l-0.58,1.071
		l-0.606-0.356c0.291-0.369,0.602-0.908,0.929-1.616c0.375-0.804,0.702-1.748,0.981-2.83c-0.738,0.112-1.164,0.182-1.275,0.204
		C131.363,94.84,131.189,94.879,130.988,94.935z M136.256,93.756l0.527-0.285c0.45,0.486,0.822,0.979,1.115,1.473
		c0.291,0.494,0.541,1.057,0.749,1.688l-0.571,0.33C137.731,95.711,137.125,94.642,136.256,93.756z"/>
	<path d="M141.792,92.273l0.705-0.125c0.019,0.298,0.096,0.751,0.231,1.362c0.138,0.609,0.283,1.141,0.438,1.593
		c0.367-0.153,1.088-0.419,2.16-0.794c0.272-0.102,0.463-0.182,0.57-0.241l0.268,0.679c-0.797,0.186-1.691,0.474-2.687,0.867
		c-0.763,0.309-1.317,0.618-1.666,0.928c-0.349,0.311-0.522,0.648-0.522,1.019c0,0.405,0.188,0.692,0.563,0.866
		c0.375,0.173,1,0.259,1.876,0.259c1.13,0,1.982-0.101,2.553-0.304l0.071,0.74c-0.112,0-0.333,0.02-0.66,0.055
		c-0.798,0.076-1.456,0.115-1.974,0.115c-0.893,0-1.555-0.08-1.981-0.24c-0.737-0.268-1.106-0.756-1.106-1.465
		c0-0.584,0.265-1.09,0.793-1.519c0.311-0.256,0.701-0.5,1.171-0.731c-0.238-0.686-0.455-1.516-0.651-2.491
		C141.89,92.583,141.84,92.394,141.792,92.273z M144.756,92.354l0.465-0.206c0.304,0.394,0.58,0.825,0.83,1.295l-0.475,0.224
		C145.316,93.125,145.042,92.686,144.756,92.354z M145.667,91.978l0.465-0.205c0.262,0.315,0.539,0.747,0.83,1.295l-0.474,0.224
		C146.225,92.754,145.954,92.318,145.667,91.978z"/>
	<path d="M126.352,112.415l0.911,0.625c-0.144,0.119-0.31,0.273-0.5,0.465c-0.488,0.451-1.042,0.916-1.661,1.394
		c0.381,0.429,0.814,0.817,1.304,1.17c0.488,0.351,0.841,0.524,1.054,0.524c0.203,0,0.381-0.168,0.537-0.508
		c0.153-0.34,0.338-0.974,0.553-1.901c0.25,0.31,0.535,0.553,0.857,0.731c-0.285,1.047-0.557,1.769-0.813,2.16
		c-0.258,0.395-0.594,0.59-1.01,0.59c-0.44,0-0.955-0.192-1.545-0.58c-0.59-0.387-1.177-0.914-1.76-1.58
		c-1.143,0.762-2.494,1.435-4.054,2.018c-0.167-0.346-0.394-0.654-0.679-0.93c1.606-0.475,2.988-1.088,4.143-1.838
		c-0.486-0.738-0.88-1.619-1.18-2.644l-4.284,0.071v1.357c0.964-0.145,1.978-0.334,3.036-0.572v0.91
		c-1.286,0.274-2.299,0.465-3.036,0.572v2.055c0,0.476-0.099,0.797-0.295,0.963s-0.58,0.25-1.151,0.25
		c-0.417,0-1.029-0.035-1.84-0.106c-0.07-0.465-0.16-0.815-0.268-1.054c0.855,0.143,1.56,0.214,2.106,0.214
		c0.263,0,0.394-0.119,0.394-0.356v-1.805c-0.488,0.072-1.209,0.168-2.16,0.287c-0.43,0.047-0.744,0.089-0.947,0.125
		c-0.143,0.021-0.256,0.047-0.339,0.07l-0.231-1.143c0.143,0.012,0.285,0.018,0.428,0.018c0.644,0,1.727-0.096,3.25-0.285V112.2
		l-2.321,0.036c-0.547,0-1.089,0.035-1.624,0.106l-0.02-1.125c0.537,0.06,0.965,0.09,1.287,0.09h0.355l2.322-0.036v-1.125
		c-0.561,0.083-1.465,0.19-2.715,0.321c-0.119-0.321-0.291-0.607-0.519-0.857c2.728-0.117,4.703-0.451,5.929-1
		c0.014,0,0.024-0.002,0.034-0.008c0.013-0.008,0.033-0.016,0.063-0.027c0.031-0.012,0.068-0.029,0.115-0.054l0.805,0.769
		c-0.869,0.285-1.756,0.512-2.661,0.678v1.287l4.071-0.071c-0.035-0.25-0.106-0.769-0.213-1.554c-0.037-0.334-0.072-0.59-0.107-0.77
		h1.214c-0.022,0.145-0.036,0.305-0.036,0.482c0,0.535,0.064,1.144,0.196,1.82l3.858-0.07c0.856-0.012,1.5-0.061,1.928-0.143
		l0.019,1.143c-0.321-0.047-0.714-0.071-1.179-0.071c-0.346,0-0.596,0.006-0.75,0.019l-3.661,0.053
		c0.237,0.764,0.565,1.447,0.981,2.056C125.383,113.515,125.983,112.938,126.352,112.415z M116.104,103.235h2.23
		c-0.285-0.381-0.695-0.838-1.231-1.375l0.965-0.375c0.522,0.535,1.013,1.119,1.464,1.75h2.911c0.595-0.619,1.054-1.227,1.376-1.82
		l1.124,0.394c-0.44,0.569-0.856,1.047-1.249,1.428h2.535c0.904,0,1.512-0.034,1.82-0.106v1.09c-0.451-0.061-1.059-0.09-1.82-0.09
		h-4.625v1.16h3.82c0.787,0,1.353-0.029,1.697-0.088v1.053c-0.369-0.06-0.936-0.09-1.697-0.09h-3.82v1.25h5.695
		c0.775,0,1.395-0.035,1.857-0.105v1.143c-0.464-0.07-1.082-0.107-1.857-0.107h-12.196c-0.785,0-1.41,0.037-1.875,0.107v-1.143
		c0.478,0.07,1.101,0.105,1.875,0.105h5.446v-1.25h-3.66c-0.785,0-1.357,0.03-1.715,0.09V105.2c0.346,0.061,0.916,0.09,1.715,0.09
		h3.66v-1.162h-4.445c-0.798,0-1.412,0.031-1.84,0.09v-1.09C114.728,103.2,115.34,103.235,116.104,103.235z M124.282,109.235
		l0.645-0.625c0.857,0.43,1.637,0.918,2.34,1.465l-0.661,0.715C125.997,110.252,125.223,109.735,124.282,109.235z"/>
	<path d="M138.872,102.79v-0.215c0-0.488-0.035-0.875-0.106-1.16h1.304c-0.061,0.25-0.09,0.644-0.09,1.178v0.197h5.107
		c0.881,0,1.523-0.037,1.929-0.107v1.125c-0.452-0.061-1.048-0.09-1.786-0.09h-11.84c-0.012,4.668-0.125,7.822-0.342,9.466
		c-0.213,1.644-0.719,3.147-1.518,4.519c-0.297-0.369-0.602-0.648-0.91-0.84c0.381-0.631,0.664-1.212,0.848-1.74
		c0.186-0.529,0.337-1.193,0.455-1.992c0.238-1.643,0.357-4.457,0.357-8.446c0-0.856-0.023-1.519-0.07-1.981
		c0.477,0.059,1.102,0.09,1.875,0.09h4.787V102.79z M137.674,106.271h-2.088c-0.68,0-1.25,0.03-1.715,0.091v-1.09
		c0.369,0.061,0.946,0.09,1.732,0.09h1.68c-0.228-0.357-0.555-0.738-0.982-1.145l0.945-0.355c0.405,0.43,0.797,0.93,1.18,1.5h2.964
		c0.382-0.429,0.702-0.929,0.963-1.5l1.054,0.393c-0.273,0.404-0.554,0.774-0.838,1.107h2.465c0.856,0,1.465-0.029,1.821-0.09v1.09
		c-0.405-0.061-1.013-0.091-1.821-0.091h-3.019v1.231h2.215c0.5,0,0.935-0.018,1.304-0.053c-0.035,0.262-0.054,0.648-0.054,1.159
		v1.231h0.269c0.596,0,1.106-0.034,1.535-0.106v1.126c-0.429-0.072-0.923-0.107-1.482-0.107h-0.322v1.162
		c0,0.619,0.02,1.028,0.055,1.23c-0.369-0.035-0.805-0.053-1.304-0.053h-1.715c0.571,0.666,1.179,1.238,1.821,1.714
		c0.893,0.653,1.893,1.22,3,1.696c-0.25,0.297-0.459,0.631-0.625,1c-1.131-0.561-2.061-1.137-2.787-1.731
		c-0.725-0.597-1.379-1.31-1.963-2.144c0.047,0.596,0.07,1.013,0.07,1.25v1.554c0,0.618,0.036,1.106,0.107,1.464h-1.215
		c0.06-0.393,0.09-0.875,0.09-1.445v-3.357h-2.34v3.357c0,0.607,0.029,1.09,0.09,1.445h-1.215c0.072-0.465,0.107-0.952,0.107-1.464
		v-1.464c0-0.536,0.023-0.971,0.07-1.305c-0.32,0.57-0.814,1.168-1.482,1.787c-0.679,0.618-1.588,1.254-2.731,1.909
		c-0.237-0.405-0.494-0.709-0.769-0.911c1.131-0.523,2.09-1.111,2.875-1.768c0.633-0.512,1.162-1.042,1.59-1.59h-1.606
		c-0.487,0-0.935,0.031-1.34,0.091v-1.071c0.346,0.061,0.792,0.09,1.34,0.09h2.071v-1.447h-2.535
		c-0.727,0.024-1.221,0.055-1.482,0.09v-1.09c0.381,0.061,0.887,0.09,1.518,0.09h2.5v-1.446h-1.981
		c-0.512,0-0.952,0.024-1.321,0.071v-1.055c0.299,0.061,0.738,0.09,1.321,0.09h1.981V106.271L137.674,106.271z M138.676,106.271
		v1.231h2.339v-1.231H138.676z M141.014,109.842v-1.446h-2.34v1.446H141.014z M138.676,110.752v1.447h2.339v-1.447H138.676z
		 M142.015,109.842h2.5v-1.446h-2.5V109.842z M142.015,110.752v1.447h2.5v-1.447H142.015z"/>
</g>
<g>
	<path d="M243.747,46.503l-0.357,0.625c-0.426-0.44-1.03-0.866-1.822-1.277c-0.131-0.072-0.33-0.161-0.6-0.268
		c0.012,0.136,0.02,0.244,0.02,0.321c0,0.453-0.074,0.778-0.224,0.974c-0.269,0.375-0.771,0.562-1.509,0.562
		c-0.613,0-1.074-0.119-1.385-0.357c-0.32-0.237-0.481-0.55-0.481-0.938c0-0.297,0.108-0.555,0.329-0.773
		c0.222-0.217,0.527-0.371,0.921-0.46c0.256-0.06,0.565-0.089,0.929-0.089c0.244,0,0.512,0.023,0.805,0.071
		c-0.006-0.018-0.012-0.054-0.012-0.107v-0.018c0-0.006,0-0.017-0.003-0.031c-0.002-0.015-0.005-0.031-0.005-0.049
		c0-0.024,0-0.06-0.003-0.107c-0.003-0.048-0.007-0.113-0.009-0.196c-0.004-0.083-0.006-0.158-0.006-0.224
		c0-0.036,0-0.079-0.006-0.129c-0.002-0.051-0.006-0.113-0.009-0.188c-0.003-0.075-0.004-0.141-0.004-0.201
		c-0.429,0.012-0.778,0.018-1.054,0.018c-0.488,0-0.991-0.021-1.51-0.063c-0.064-0.006-0.141-0.009-0.224-0.009h-0.071l0.01-0.589
		c0.429,0.095,1.109,0.143,2.045,0.143c0.363,0,0.628-0.003,0.795-0.009l-0.018-1.223c-0.174,0.006-0.375,0.009-0.607,0.009
		c-0.686,0-1.411-0.03-2.18-0.089c-0.041-0.006-0.096-0.009-0.16-0.009c-0.047,0-0.09,0.003-0.125,0.009l0.009-0.606
		c0.429,0.118,1.19,0.178,2.286,0.178c0.048,0,0.16-0.001,0.342-0.004c0.184-0.003,0.326-0.004,0.434-0.004
		c-0.007-0.726-0.021-1.154-0.045-1.285h0.688c-0.03,0.172-0.052,0.592-0.063,1.258c1.268-0.083,2.148-0.205,2.643-0.366
		l0.046,0.607c-0.101,0.006-0.308,0.03-0.615,0.071c-0.649,0.094-1.34,0.167-2.071,0.214c0.006,0.488,0.012,0.89,0.018,1.206
		c1.197-0.089,2.021-0.211,2.474-0.366l0.035,0.616c-0.119,0.006-0.291,0.027-0.519,0.063c-0.582,0.095-1.244,0.167-1.981,0.214
		c0.013,0.333,0.03,0.789,0.054,1.366c0.744,0.203,1.574,0.637,2.492,1.304C243.532,46.369,243.631,46.438,243.747,46.503z
		 M240.375,45.779l-0.008-0.338c-0.272-0.066-0.578-0.099-0.912-0.099c-0.439,0-0.795,0.073-1.063,0.219s-0.402,0.338-0.402,0.576
		c0,0.238,0.106,0.421,0.321,0.549c0.214,0.128,0.515,0.192,0.901,0.192c0.488,0,0.815-0.098,0.981-0.295
		C240.317,46.463,240.375,46.196,240.375,45.779z"/>
	<path d="M246.208,42.493l-0.035-0.651c0.197,0.029,0.428,0.044,0.688,0.044c0.869,0,1.755-0.063,2.659-0.188
		c-0.089-0.203-0.234-0.557-0.438-1.063c-0.102-0.232-0.18-0.404-0.231-0.517l0.705-0.098c0.024,0.155,0.11,0.422,0.259,0.804
		c0.132,0.345,0.238,0.606,0.321,0.785c0.917-0.149,1.638-0.336,2.161-0.563l0.089,0.634c-0.138,0.024-0.312,0.065-0.526,0.125
		c-0.41,0.107-0.813,0.2-1.206,0.277c-0.143,0.03-0.243,0.051-0.303,0.063c0.369,0.798,0.903,1.664,1.606,2.599l-0.599,0.339
		c-0.215-0.173-0.419-0.295-0.616-0.366c-0.465-0.155-0.984-0.232-1.563-0.232c-0.725,0-1.292,0.125-1.695,0.375
		c-0.15,0.095-0.268,0.217-0.354,0.366C247.045,45.374,247,45.529,247,45.69c0,0.273,0.115,0.506,0.342,0.696
		c0.35,0.274,0.93,0.41,1.74,0.41c0.957,0,1.803-0.19,2.535-0.571l0.098,0.688c-0.868,0.321-1.743,0.482-2.625,0.482
		c-1.117,0-1.894-0.224-2.321-0.67c-0.267-0.286-0.399-0.613-0.399-0.982c0-0.297,0.09-0.577,0.271-0.838
		c0.182-0.262,0.427-0.467,0.735-0.616c0.446-0.22,1.023-0.33,1.732-0.33c0.821,0,1.438,0.107,1.85,0.321
		c-0.388-0.53-0.744-1.113-1.072-1.75c-0.029-0.054-0.059-0.109-0.084-0.166c-0.026-0.057-0.051-0.1-0.067-0.129
		c-0.971,0.137-2.03,0.214-3.18,0.232C246.461,42.467,246.347,42.476,246.208,42.493z"/>
	<path d="M256.737,39.975l0.705,0.098c-0.041,0.119-0.089,0.31-0.143,0.572c-0.055,0.256-0.135,0.581-0.241,0.973
		c0.631-0.054,1.164-0.152,1.599-0.294l0.025,0.616c-0.064,0.012-0.168,0.03-0.313,0.053c-0.397,0.089-0.887,0.152-1.464,0.188
		c-0.262,0.905-0.593,1.774-0.991,2.607c-0.172,0.346-0.384,0.735-0.634,1.17c-0.03,0.048-0.063,0.106-0.104,0.174
		c-0.037,0.068-0.063,0.111-0.074,0.129l-0.607-0.358c0.264-0.327,0.549-0.791,0.857-1.392c0.38-0.75,0.691-1.518,0.93-2.304
		c-0.3,0.012-0.519,0.018-0.66,0.018c-0.055,0-0.156-0.001-0.305-0.004c-0.148-0.003-0.244-0.004-0.285-0.004
		c-0.066-0.006-0.131-0.009-0.197-0.009h-0.115l0.009-0.616c0.269,0.048,0.622,0.072,1.063,0.072c0.058,0,0.168-0.001,0.324-0.004
		c0.157-0.003,0.264-0.005,0.317-0.005C256.618,41.005,256.717,40.445,256.737,39.975z M262.013,46.395l-0.331,0.608
		c-0.375-0.464-0.896-0.869-1.561-1.214c0.012,0.095,0.018,0.19,0.018,0.286c0,0.458-0.146,0.811-0.439,1.058
		c-0.289,0.247-0.711,0.37-1.259,0.37c-0.534,0-0.959-0.116-1.271-0.348c-0.313-0.233-0.469-0.548-0.469-0.947
		c0-0.237,0.074-0.461,0.228-0.669c0.151-0.208,0.354-0.363,0.604-0.464c0.301-0.131,0.652-0.197,1.051-0.197
		c0.289,0,0.588,0.045,0.902,0.134c-0.042-0.542-0.063-0.95-0.063-1.224c0-0.304,0.029-0.592,0.091-0.866l0.606,0.063
		c-0.078,0.286-0.115,0.563-0.115,0.831c0,0.488,0.031,0.94,0.097,1.357c0.702,0.31,1.286,0.669,1.752,1.081
		C261.917,46.318,261.973,46.365,262.013,46.395z M259.532,45.583c-0.334-0.119-0.664-0.179-0.99-0.179
		c-0.381,0-0.685,0.073-0.908,0.218c-0.223,0.146-0.334,0.341-0.334,0.585c0,0.227,0.103,0.403,0.305,0.537
		c0.202,0.131,0.479,0.196,0.829,0.196c0.387,0,0.671-0.08,0.851-0.237c0.178-0.157,0.266-0.403,0.266-0.737L259.532,45.583z
		 M261.997,42.44l-0.322,0.536c-0.727-0.5-1.516-0.905-2.366-1.214l0.332-0.5C260.547,41.624,261.334,42.017,261.997,42.44z"/>
	<path d="M263.469,42.958l-0.072-0.643c0.423-0.012,1.081-0.089,1.975-0.232c0.178-0.786,0.268-1.416,0.268-1.893v-0.116
		l0.715,0.081c-0.041,0.131-0.1,0.417-0.17,0.857c-0.023,0.149-0.086,0.488-0.188,1.019c0.209-0.019,0.383-0.027,0.525-0.027
		c0.602,0,1.031,0.125,1.287,0.375c0.291,0.274,0.438,0.753,0.438,1.438s-0.054,1.302-0.16,1.853
		c-0.107,0.551-0.254,0.957-0.438,1.218c-0.196,0.28-0.487,0.42-0.876,0.42c-0.352,0-0.8-0.117-1.348-0.349
		c0.012-0.088,0.018-0.196,0.018-0.321s-0.009-0.242-0.025-0.348c0.535,0.274,0.979,0.41,1.33,0.41c0.221,0,0.39-0.142,0.508-0.429
		c0.25-0.595,0.375-1.422,0.375-2.482c0-0.47-0.078-0.796-0.234-0.978c-0.159-0.182-0.445-0.272-0.861-0.272
		c-0.156,0-0.369,0.015-0.645,0.044c-0.314,1.346-0.766,2.604-1.35,3.777c-0.184,0.351-0.377,0.711-0.578,1.08l-0.607-0.357
		c0.279-0.356,0.589-0.895,0.928-1.616c0.375-0.804,0.703-1.747,0.982-2.831c-0.738,0.113-1.163,0.182-1.276,0.206
		C263.844,42.865,263.67,42.904,263.469,42.958z M268.737,41.77l0.527-0.277c0.451,0.488,0.824,0.979,1.115,1.474
		c0.293,0.495,0.543,1.057,0.75,1.688l-0.57,0.321C270.213,43.738,269.606,42.669,268.737,41.77z M269.327,40.511l0.41-0.25
		c0.357,0.387,0.674,0.804,0.947,1.25l-0.43,0.268C270.01,41.338,269.702,40.917,269.327,40.511z M270.139,40.056l0.41-0.259
		c0.346,0.375,0.66,0.794,0.947,1.258l-0.43,0.268C270.822,40.883,270.512,40.46,270.139,40.056z"/>
	<path d="M252.986,52.777v1.197c-0.345-0.06-0.894-0.089-1.644-0.089c-0.106,1.059-0.234,1.922-0.383,2.589
		s-0.379,1.375-0.688,2.125c-0.345,0.881-0.778,1.69-1.304,2.428c1.238,1.548,2.686,2.732,4.341,3.554
		c-0.312,0.321-0.562,0.69-0.75,1.107c-1.751-1.048-3.175-2.31-4.271-3.787c-0.666,0.775-1.363,1.441-2.088,2
		c-0.728,0.56-1.666,1.155-2.82,1.786c-0.228-0.405-0.494-0.738-0.807-1c1.014-0.44,1.883-0.922,2.607-1.446
		c0.953-0.679,1.773-1.435,2.465-2.269c-0.881-1.392-1.512-2.898-1.893-4.518c-0.405,0.821-0.791,1.5-1.16,2.036
		c-0.25-0.297-0.537-0.542-0.858-0.732c0.134-0.155,0.259-0.315,0.375-0.482c-0.286-0.047-0.813-0.071-1.588-0.071h-0.75v4.821
		c0.938-0.321,1.903-0.678,2.892-1.071l0.019,1.107c-2.07,0.809-3.767,1.393-5.089,1.75c-1.488,0.405-2.369,0.655-2.644,0.75
		l-0.321-1.286c0.369-0.012,0.815-0.078,1.34-0.197v-6.143c0-0.738-0.029-1.327-0.09-1.768h1.231
		c-0.06,0.464-0.089,1.048-0.089,1.75v5.911c0.298-0.071,0.852-0.226,1.661-0.463v-10.09h-1.875c-0.562,0-1.097,0.036-1.607,0.107
		v-1.268c0.513,0.071,1.06,0.107,1.644,0.107h4.322c0.703,0,1.237-0.03,1.606-0.089v1.232c-0.403-0.06-0.897-0.091-1.481-0.091
		h-1.519v3.893h0.75c0.774,0,1.308-0.024,1.606-0.072v1.143c0.869-1.357,1.535-3.066,2-5.125c0.285-1.203,0.439-2.102,0.465-2.698
		l1.25,0.25c-0.072,0.238-0.264,1.02-0.572,2.339c-0.131,0.5-0.208,0.792-0.232,0.875h4.252
		C252.028,52.884,252.59,52.848,252.986,52.777z M250.217,53.884h-3.48c-0.181,0.548-0.313,0.929-0.395,1.143
		c0.416,1.952,1.064,3.631,1.945,5.036C249.374,58.337,250.015,56.277,250.217,53.884z"/>
	<path d="M268.931,58.652h-6.571c0.311,0.571,0.624,1.051,0.947,1.438c0.32,0.386,0.773,0.818,1.357,1.295
		c0.558-0.369,1.102-0.792,1.625-1.268c0.521-0.476,0.908-0.899,1.158-1.27l1.057,0.643c-0.063,0.06-0.168,0.155-0.323,0.286
		l-0.194,0.196c-0.931,0.857-1.775,1.523-2.537,2c1.631,1.071,3.44,1.827,5.43,2.268c-0.238,0.357-0.447,0.756-0.625,1.196
		c-2.631-0.75-4.744-1.833-6.34-3.25c-1.106-0.953-2.013-2.131-2.715-3.536h-2.16v4.948c1.5-0.381,2.803-0.786,3.91-1.214
		l0.034,1.089c-1.499,0.572-3.761,1.227-6.784,1.964c-0.355,0.107-0.611,0.179-0.769,0.215l-0.376-1.25
		c0.406-0.024,1.346-0.196,2.822-0.518v-5.232h-1.394c-0.642,0-1.231,0.036-1.767,0.107v-1.197c0.427,0.072,1.017,0.107,1.767,0.107
		h1.394v-5.518c0-0.713-0.023-1.304-0.071-1.768c0.429,0.06,1.048,0.089,1.856,0.089h7.608c0.915,0,1.553-0.034,1.909-0.107v1.197
		c-0.477-0.06-1.107-0.089-1.891-0.089h-8.25v1.375h7.695c0.712,0,1.292-0.029,1.732-0.089v1.161
		c-0.5-0.071-1.078-0.107-1.732-0.107h-7.695v1.41h7.695c0.773,0,1.352-0.036,1.732-0.106v1.178
		c-0.526-0.072-1.103-0.107-1.732-0.107h-7.695v1.482h9.838c0.681,0,1.258-0.034,1.731-0.107v1.197
		C270.148,58.688,269.588,58.652,268.931,58.652z"/>
</g>
<g>
	<path d="M239.56,92.032h0.715c-0.036,0.18-0.055,0.572-0.055,1.18c0,0.197,0.006,0.506,0.019,0.929
		c0.492,0,0.992-0.033,1.495-0.099c0.503-0.066,0.877-0.146,1.121-0.242l0.079,0.662c-0.102,0.006-0.278,0.027-0.534,0.063
		c-0.731,0.112-1.45,0.179-2.151,0.195c0.029,0.905,0.067,1.675,0.115,2.304c0.69,0.197,1.485,0.619,2.385,1.27
		c0.178,0.125,0.313,0.217,0.41,0.275l-0.42,0.625c-0.185-0.227-0.494-0.484-0.929-0.775c-0.446-0.305-0.849-0.533-1.207-0.688
		c-0.104-0.048-0.177-0.081-0.212-0.099c0.023,0.131,0.035,0.259,0.035,0.384c0,0.399-0.075,0.7-0.225,0.901
		c-0.291,0.412-0.82,0.617-1.59,0.617c-0.576,0-1.029-0.119-1.359-0.354c-0.332-0.235-0.498-0.559-0.498-0.969
		c0-0.43,0.191-0.771,0.572-1.027s0.891-0.385,1.526-0.385c0.292,0,0.552,0.027,0.776,0.08c0.014,0,0.024,0.004,0.039,0.01
		c0.017,0.006,0.029,0.009,0.041,0.009c0.013,0,0.027,0.006,0.045,0.019c0-0.029-0.002-0.057-0.008-0.08v-0.053
		c-0.084-1.222-0.131-2.564-0.145-4.027C239.598,92.411,239.583,92.168,239.56,92.032z M239.765,97.488
		c-0.31-0.083-0.616-0.125-0.92-0.125c-0.452,0-0.81,0.074-1.071,0.224c-0.262,0.148-0.395,0.354-0.395,0.615
		c0,0.155,0.047,0.283,0.136,0.385c0.202,0.238,0.56,0.356,1.071,0.356c0.435,0,0.765-0.099,0.99-0.294
		c0.144-0.139,0.215-0.359,0.215-0.67C239.79,97.652,239.784,97.488,239.765,97.488z"/>
	<path d="M246.559,92.264h0.779c-0.057,0.311-0.094,0.938-0.116,1.884c-0.044,1.25-0.063,2.146-0.063,2.688
		c0,0.084,0.006,0.263,0.018,0.535c0.035,0.494,0.178,0.853,0.422,1.071c0.261,0.231,0.633,0.349,1.115,0.349
		c1.076,0,1.875-0.518,2.393-1.553c0.18-0.375,0.325-0.844,0.438-1.402c0.203,0.172,0.418,0.314,0.645,0.429
		c-0.305,0.94-0.635,1.616-0.99,2.026c-0.632,0.744-1.472,1.117-2.52,1.117c-0.758,0-1.314-0.209-1.68-0.625
		c-0.185-0.209-0.313-0.449-0.383-0.72c-0.072-0.271-0.107-0.642-0.107-1.112c0-0.314,0.025-1.525,0.08-3.634
		c0.008-0.179,0.011-0.372,0.011-0.58C246.597,92.583,246.583,92.426,246.559,92.264z"/>
	<path d="M256.186,92.219l0.706-0.135c0.019,0.299,0.096,0.754,0.235,1.367c0.139,0.612,0.285,1.143,0.434,1.588
		c0.477-0.195,1.197-0.461,2.16-0.793c0.281-0.103,0.47-0.18,0.57-0.232l0.269,0.679c-0.796,0.173-1.692,0.461-2.687,0.866
		c-0.763,0.304-1.317,0.609-1.664,0.92c-0.351,0.311-0.523,0.648-0.523,1.018c0,0.405,0.188,0.693,0.563,0.866s1,0.259,1.875,0.259
		c1.133,0,1.981-0.101,2.553-0.304l0.074,0.741c-0.113,0-0.336,0.02-0.662,0.054c-0.799,0.077-1.455,0.116-1.973,0.116
		c-0.896,0-1.555-0.08-1.982-0.241c-0.738-0.269-1.107-0.756-1.107-1.465c0-0.583,0.266-1.089,0.795-1.519
		c0.29-0.237,0.682-0.479,1.17-0.723c-0.238-0.695-0.455-1.529-0.652-2.5C256.282,92.54,256.232,92.35,256.186,92.219z"/>
	<path d="M264.417,92.264h0.778c-0.055,0.311-0.093,0.938-0.116,1.884c-0.043,1.25-0.063,2.146-0.063,2.688
		c0,0.084,0.006,0.263,0.018,0.535c0.036,0.494,0.178,0.853,0.422,1.071c0.262,0.231,0.633,0.349,1.115,0.349
		c1.077,0,1.875-0.518,2.393-1.553c0.18-0.375,0.326-0.844,0.438-1.402c0.202,0.172,0.417,0.314,0.644,0.429
		c-0.305,0.94-0.635,1.616-0.99,2.026c-0.631,0.744-1.471,1.117-2.52,1.117c-0.757,0-1.314-0.209-1.679-0.625
		c-0.185-0.209-0.313-0.449-0.384-0.72c-0.072-0.271-0.107-0.642-0.107-1.112c0-0.314,0.026-1.525,0.08-3.634
		c0.008-0.179,0.012-0.372,0.012-0.58C264.456,92.583,264.442,92.426,264.417,92.264z"/>
	<path d="M249.649,112.415l0.91,0.625c-0.143,0.119-0.311,0.273-0.5,0.465c-0.488,0.451-1.041,0.916-1.66,1.394
		c0.381,0.429,0.813,0.817,1.303,1.17c0.488,0.351,0.84,0.524,1.055,0.524c0.201,0,0.382-0.168,0.535-0.508s0.34-0.974,0.555-1.901
		c0.249,0.31,0.535,0.553,0.857,0.731c-0.287,1.047-0.558,1.769-0.813,2.16c-0.257,0.395-0.593,0.59-1.009,0.59
		c-0.442,0-0.957-0.192-1.547-0.58c-0.588-0.387-1.174-0.914-1.758-1.58c-1.144,0.762-2.494,1.435-4.056,2.018
		c-0.166-0.346-0.394-0.654-0.679-0.93c1.607-0.475,2.988-1.088,4.144-1.838c-0.487-0.738-0.881-1.619-1.178-2.644l-4.287,0.071
		v1.357c0.965-0.145,1.978-0.334,3.037-0.572v0.91c-1.287,0.274-2.3,0.465-3.037,0.572v2.055c0,0.476-0.099,0.797-0.294,0.963
		c-0.197,0.166-0.581,0.25-1.152,0.25c-0.416,0-1.029-0.035-1.838-0.106c-0.072-0.465-0.16-0.815-0.27-1.054
		c0.857,0.143,1.56,0.214,2.107,0.214c0.264,0,0.395-0.119,0.395-0.356v-1.805c-0.488,0.072-1.211,0.168-2.163,0.287
		c-0.427,0.047-0.744,0.089-0.944,0.125c-0.144,0.021-0.256,0.047-0.34,0.07l-0.232-1.143c0.143,0.012,0.287,0.018,0.43,0.018
		c0.644,0,1.726-0.096,3.251-0.285V112.2l-2.323,0.036c-0.546,0-1.09,0.035-1.624,0.106l-0.019-1.125
		c0.535,0.06,0.964,0.09,1.285,0.09h0.356l2.323-0.036v-1.125c-0.563,0.083-1.467,0.19-2.715,0.321
		c-0.119-0.321-0.293-0.607-0.519-0.857c2.728-0.117,4.701-0.451,5.929-1c0.012,0,0.023-0.002,0.033-0.008
		c0.012-0.008,0.033-0.016,0.063-0.027c0.03-0.011,0.065-0.029,0.116-0.054l0.802,0.769c-0.869,0.285-1.755,0.512-2.659,0.678v1.287
		l4.07-0.071c-0.036-0.25-0.105-0.769-0.213-1.554c-0.037-0.334-0.073-0.59-0.107-0.77h1.215c-0.025,0.145-0.037,0.305-0.037,0.482
		c0,0.535,0.065,1.144,0.196,1.82l3.856-0.07c0.857-0.012,1.5-0.061,1.931-0.143l0.019,1.143c-0.322-0.047-0.716-0.071-1.181-0.071
		c-0.345,0-0.595,0.006-0.75,0.019l-3.659,0.053c0.238,0.764,0.563,1.447,0.982,2.056
		C248.679,113.515,249.28,112.938,249.649,112.415z M239.4,103.235h2.231c-0.287-0.381-0.696-0.838-1.231-1.375l0.964-0.375
		c0.524,0.535,1.012,1.119,1.463,1.75h2.914c0.594-0.619,1.051-1.227,1.375-1.82l1.123,0.394c-0.441,0.569-0.857,1.047-1.248,1.428
		h2.533c0.905,0,1.514-0.034,1.822-0.106v1.09c-0.453-0.061-1.061-0.09-1.822-0.09H244.9v1.16h3.821
		c0.785,0,1.352-0.029,1.695-0.088v1.053c-0.369-0.06-0.935-0.09-1.695-0.09H244.9v1.25h5.696c0.773,0,1.393-0.035,1.857-0.105
		v1.143c-0.466-0.07-1.084-0.107-1.857-0.107h-12.197c-0.786,0-1.411,0.037-1.875,0.107v-1.143c0.477,0.07,1.102,0.105,1.875,0.105
		h5.447v-1.25h-3.661c-0.786,0-1.356,0.03-1.715,0.09V105.2c0.346,0.061,0.917,0.09,1.715,0.09h3.661v-1.162h-4.447
		c-0.798,0-1.411,0.031-1.839,0.09v-1.09C238.024,103.2,238.637,103.235,239.4,103.235z M247.579,109.235l0.644-0.625
		c0.858,0.43,1.637,0.918,2.34,1.465l-0.662,0.715C249.292,110.252,248.518,109.735,247.579,109.235z"/>
	<path d="M261.329,104.627h-4.768c-0.488,0.822-1.125,1.606-1.911,2.357c-0.106-0.238-0.368-0.507-0.786-0.804
		c0.607-0.524,1.102-1.036,1.482-1.536c0.38-0.5,0.721-1.107,1.02-1.822c0.201-0.476,0.36-0.951,0.479-1.429l1.163,0.304
		c-0.477,1.024-0.78,1.668-0.913,1.93h4.251c0.811,0,1.439-0.035,1.895-0.106v1.179C262.75,104.652,262.113,104.627,261.329,104.627
		z M255.561,110.95h-0.25c-0.369,0-0.768,0.023-1.197,0.071v-1.089c0.286,0.047,0.686,0.07,1.197,0.07h0.375
		c0.18-1.75,0.268-2.875,0.268-3.375c0-0.189-0.012-0.352-0.035-0.481c0.25,0.024,0.684,0.036,1.303,0.036h3.447
		c0.834,0,1.437-0.023,1.806-0.072c-0.037,0.357-0.103,1.655-0.198,3.895c0.454-0.012,0.823-0.043,1.107-0.09v1.125
		c-0.321-0.035-0.709-0.065-1.159-0.09c-0.119,1.524-0.222,2.555-0.306,3.09c0.346,0,0.715-0.029,1.106-0.09v1.127
		c-0.368-0.061-0.778-0.091-1.231-0.091c-0.178,1.095-0.396,1.808-0.651,2.136c-0.255,0.326-0.729,0.489-1.42,0.489
		c-0.345,0-0.798-0.024-1.356-0.071c-0.012-0.356-0.092-0.726-0.23-1.106c0.568,0.106,1.052,0.159,1.443,0.159
		c0.442,0,0.721-0.131,0.84-0.393c0.098-0.201,0.199-0.607,0.305-1.214h-4.893c-0.098,0.347-0.217,0.716-0.357,1.106l-1.107-0.143
		C254.9,114.522,255.295,112.855,255.561,110.95z M261.185,110.95h-4.59c-0.181,1.262-0.363,2.293-0.556,3.09h4.822
		c0.107-0.762,0.209-1.709,0.305-2.84C261.167,111.092,261.172,111.008,261.185,110.95z M256.704,110.002h4.537
		c0.034-0.606,0.069-1.571,0.105-2.893h-4.393C256.904,107.98,256.823,108.944,256.704,110.002z M257.668,111.807l0.731-0.536
		c0.513,0.536,1.028,1.173,1.552,1.911l-0.802,0.607C258.734,113.111,258.241,112.45,257.668,111.807z M257.898,107.932l0.731-0.555
		c0.597,0.523,1.103,1.097,1.52,1.715l-0.786,0.643C258.997,109.092,258.508,108.491,257.898,107.932z M270.758,104.592v1.179
		c-0.43-0.071-0.911-0.106-1.446-0.106c-0.144,1.737-0.36,3.166-0.651,4.285c-0.293,1.119-0.718,2.161-1.277,3.125
		c0.977,1.453,2.186,2.627,3.625,3.518c-0.332,0.25-0.625,0.596-0.875,1.037c-0.894-0.75-1.567-1.369-2.026-1.856
		c-0.458-0.489-0.907-1.065-1.349-1.731c-0.571,0.762-1.151,1.416-1.741,1.965c-0.589,0.547-1.33,1.119-2.224,1.713
		c-0.273-0.416-0.563-0.727-0.875-0.928c1.869-1.133,3.287-2.381,4.25-3.75c-0.894-1.656-1.481-3.399-1.769-5.232
		c-0.345,0.595-0.666,1.07-0.964,1.428c-0.225-0.32-0.488-0.602-0.786-0.839c1.072-1.285,1.847-2.946,2.322-4.981
		c0.214-0.857,0.327-1.513,0.339-1.965l1.232,0.25c0,0.012-0.131,0.493-0.395,1.446c-0.059,0.285-0.207,0.804-0.445,1.554h3.357
		C269.809,104.7,270.377,104.665,270.758,104.592z M268.241,105.665h-2.875c-0.061,0.189-0.154,0.435-0.285,0.731
		c0.2,1.119,0.369,1.959,0.5,2.519c0.309,1.166,0.701,2.209,1.178,3.125c0.5-0.953,0.869-2.072,1.107-3.357
		C267.997,108.04,268.122,107.034,268.241,105.665z"/>
</g>
<rect x="77.44" y="0.5" fill="none" stroke="#000000" stroke-linejoin="round" stroke-miterlimit="52" width="105.412" height="253.114"/>
<rect x="201.952" y="0.5" fill="none" stroke="#000000" stroke-linejoin="round" stroke-miterlimit="52" width="105.414" height="253.114"/>
<path fill="none" stroke="#000000" stroke-linejoin="round" stroke-miterlimit="52" stroke-dasharray="7 8" d="M320.583,64.858
	c0,6.092-5.314,11.031-11.871,11.031H12.371C5.814,75.889,0.5,70.95,0.5,64.858V46.736c0-6.091,5.314-11.03,11.871-11.03h296.34
	c6.559,0,11.873,4.938,11.873,11.03v18.122H320.583z"/>
<path fill="none" stroke="#000000" stroke-linejoin="round" stroke-miterlimit="52" stroke-dasharray="5 8" d="M320.583,118.284
	c0,6.094-5.314,11.03-11.871,11.03H12.371c-6.557,0-11.871-4.938-11.871-11.03v-18.121c0-6.092,5.314-11.031,11.871-11.031h296.34
	c6.559,0,11.873,4.938,11.873,11.031v18.121H320.583z"/>
<path fill="none" stroke="#000000" stroke-linejoin="round" stroke-miterlimit="52" stroke-dasharray="5 8" d="M320.583,172.354
	c0,6.092-5.314,11.029-11.871,11.029H12.371c-6.557,0-11.871-4.938-11.871-11.029v-18.123c0-6.09,5.314-11.029,11.871-11.029h296.34
	c6.559,0,11.873,4.938,11.873,11.029v18.123H320.583z"/>
<g>
	<path d="M16.723,163.198v-6.822c0-0.642-0.036-1.23-0.107-1.767h1.321c-0.06,0.452-0.088,1.04-0.088,1.767v12.396
		c0,0.881,0.036,1.536,0.107,1.965h-1.339c0.071-0.512,0.107-1.167,0.107-1.965v-4.375c-0.655,0.464-1.453,0.952-2.393,1.465
		c-0.19,0.106-0.387,0.231-0.589,0.375l-0.518-1.196c0.369-0.097,0.905-0.328,1.607-0.697
		C15.532,163.972,16.163,163.59,16.723,163.198z M13.597,157.556l1.036-0.394c0.512,1.332,0.923,2.66,1.232,3.982l-1.036,0.375
		C14.519,159.995,14.109,158.674,13.597,157.556z M28.206,154.536l0.875,1.002c-0.107,0.037-0.286,0.09-0.536,0.162
		c-1.203,0.381-2.858,0.737-4.965,1.068c-1.345,0.204-2.828,0.346-4.447,0.432c-0.095-0.369-0.238-0.732-0.429-1.091
		c1.881-0.022,3.763-0.19,5.644-0.5C26.229,155.299,27.515,154.942,28.206,154.536z M27.33,163.18h0.572
		c0.679,0,1.268-0.035,1.768-0.107v1.25c-0.5-0.07-1.089-0.107-1.768-0.107H27.33v4.931c0,0.487-0.14,0.831-0.419,1.026
		c-0.279,0.197-0.776,0.295-1.491,0.295c-0.655,0-1.436-0.041-2.34-0.125c-0.047-0.44-0.137-0.84-0.268-1.196
		c0.952,0.19,1.821,0.286,2.607,0.286c0.297,0,0.502-0.033,0.616-0.098c0.112-0.066,0.169-0.194,0.169-0.385v-4.734H20.4
		c-0.667,0-1.232,0.037-1.697,0.107v-1.25c0.403,0.072,0.97,0.107,1.697,0.107h5.804c-0.011-0.571-0.041-1.034-0.091-1.393h0.071
		l-0.856-0.393c0.69-0.823,1.226-1.557,1.607-2.197c0.381-0.643,0.732-1.398,1.054-2.268l1.125,0.5
		c-0.56,1.068-1.012,1.884-1.357,2.436c-0.345,0.557-0.81,1.194-1.393,1.922H27.4C27.353,162.157,27.33,162.622,27.33,163.18z
		 M21.58,161.215l-1.018,0.465c-0.429-1.271-0.935-2.374-1.52-3.305L20.025,158C20.586,158.965,21.104,160.04,21.58,161.215z
		 M23.813,167.575l-0.964,0.73c-0.679-1.047-1.5-2.023-2.465-2.928l0.839-0.625C22.223,165.692,23.086,166.633,23.813,167.575z
		 M24.723,160.805l-1.035,0.393c-0.369-1.238-0.833-2.357-1.393-3.355l1.018-0.358C23.836,158.459,24.307,159.568,24.723,160.805z"
		/>
	<path d="M38.758,165.84h-3.59c-0.595,0-1.107,0.025-1.535,0.072c0.047-0.478,0.071-0.922,0.071-1.34v-3.216
		c0-0.428-0.025-0.881-0.071-1.356c0.416,0.049,0.922,0.072,1.518,0.072h3.607v-1.375h-3.625c-0.619,0-1.13,0.028-1.535,0.088
		v-1.104c0.356,0.058,0.869,0.087,1.535,0.087h3.625c-0.012-0.381-0.048-0.777-0.107-1.193h1.267
		c-0.059,0.393-0.095,0.789-0.106,1.193h3.964c0.619,0,1.125-0.029,1.518-0.087v1.104c-0.369-0.06-0.875-0.088-1.518-0.088h-3.964
		v1.375h3.982c0.596,0,1.102-0.023,1.518-0.072c-0.047,0.44-0.071,0.894-0.071,1.356v3.216c0,0.452,0.024,0.898,0.071,1.34
		c-0.428-0.047-0.94-0.072-1.536-0.072h-3.964v1.465h5.661c0.667,0,1.25-0.035,1.75-0.105v1.213c-0.535-0.07-1.13-0.106-1.786-0.106
		h-5.625v0.59c0,0.655,0.041,1.272,0.125,1.856h-1.304c0.083-0.596,0.125-1.215,0.125-1.856v-0.59h-5.215
		c-0.654,0-1.238,0.036-1.75,0.106V167.2c0.5,0.07,1.072,0.105,1.715,0.105h5.25V165.84z M33.152,158.465h-1.178
		c0.048-0.334,0.071-0.743,0.071-1.231v-0.981c0-0.465-0.023-0.863-0.071-1.196c0.512,0.048,1.102,0.071,1.768,0.071h11.412
		c0.679,0,1.273-0.023,1.786-0.071c-0.048,0.321-0.071,0.713-0.071,1.179v1c0,0.488,0.023,0.896,0.071,1.23h-1.197v-2.355h-12.59
		L33.152,158.465L33.152,158.465z M38.758,162.465v-1.482h-3.982v1.482H38.758z M38.758,164.93v-1.571h-3.982v1.571H38.758z
		 M39.813,162.465h4.358v-1.482h-4.358V162.465z M39.813,164.93h4.358v-1.571h-4.358V164.93z"/>
	<path d="M56.421,160.698l-0.143,0.092c0.774,0.664,1.393,1.623,1.857,2.873c0.464,1.25,0.696,2.565,0.696,3.947
		c0,1.166-0.172,1.958-0.518,2.375c-0.298,0.369-0.852,0.553-1.661,0.553c-0.466,0-1.166-0.041-2.107-0.125
		c-0.024-0.404-0.119-0.803-0.286-1.195c0.893,0.179,1.661,0.269,2.304,0.269c0.453,0,0.759-0.144,0.92-0.429
		c0.161-0.286,0.241-0.857,0.241-1.715c0-0.43-0.024-0.875-0.072-1.34c-1.81,1.488-4.321,2.756-7.536,3.805
		c-0.202-0.369-0.435-0.702-0.696-1.002c3.274-0.831,5.947-2.137,8.019-3.909c-0.119-0.5-0.286-1-0.5-1.5
		c-1.833,1.265-4.06,2.272-6.679,3.035c-0.155-0.333-0.375-0.66-0.661-0.981c1.453-0.346,2.815-0.798,4.09-1.357
		c1.047-0.463,1.976-0.981,2.785-1.553c-0.321-0.512-0.667-0.931-1.036-1.25c-1.285,0.713-2.875,1.326-4.768,1.838
		c-0.202-0.381-0.422-0.695-0.661-0.945c1.405-0.311,2.583-0.646,3.536-1.018c0.953-0.369,1.852-0.847,2.696-1.431h-2.625
		c-0.559,0-1.136,0.032-1.732,0.093v-1.145c0.464,0.068,1.042,0.105,1.732,0.105h7.555c0.809,0,1.393-0.037,1.75-0.105v1.145
		c-0.595-0.061-1.179-0.093-1.75-0.093h-1.929c0.333,1.396,0.69,2.509,1.071,3.341c1.393-1.023,2.304-1.91,2.732-2.66l1,0.819
		c-0.262,0.216-0.619,0.538-1.072,0.966c-0.476,0.465-1.203,1.065-2.178,1.805c0.56,0.988,1.2,1.83,1.919,2.525
		c0.72,0.697,1.652,1.379,2.795,2.045c-0.286,0.25-0.578,0.584-0.875,1c-1.298-0.929-2.262-1.756-2.894-2.482
		c-1.369-1.523-2.387-3.404-3.053-5.643c-0.107-0.334-0.256-0.904-0.447-1.716h-0.536C57.314,160.067,56.886,160.388,56.421,160.698
		z M56.636,156.125v-0.553c0-0.369-0.042-0.738-0.125-1.107h1.393c-0.072,0.394-0.107,0.757-0.107,1.09v0.57h5.286
		c0.69,0,1.292-0.022,1.804-0.07c-0.048,0.298-0.072,0.689-0.072,1.179v1.106c0,0.478,0.024,0.881,0.072,1.216h-1.161v-2.447H51.098
		v2.447h-1.161c0.047-0.369,0.071-0.78,0.071-1.231v-1.091c0-0.452-0.024-0.847-0.071-1.179c0.512,0.048,1.107,0.07,1.786,0.07
		H56.636L56.636,156.125z"/>
</g>
<g>
	<path d="M126.102,165.77l0.986,0.678c-0.154,0.129-0.334,0.297-0.541,0.502c-0.528,0.489-1.129,0.993-1.799,1.51
		c0.412,0.465,0.881,0.887,1.412,1.268c0.527,0.381,0.908,0.57,1.141,0.57c0.22,0,0.412-0.184,0.58-0.553
		c0.168-0.367,0.367-1.054,0.601-2.062c0.271,0.337,0.581,0.603,0.929,0.793c-0.31,1.138-0.604,1.915-0.879,2.343
		c-0.277,0.426-0.644,0.637-1.093,0.637c-0.478,0-1.036-0.209-1.675-0.627c-0.639-0.42-1.271-0.988-1.904-1.711
		c-1.238,0.825-2.701,1.553-4.393,2.187c-0.18-0.374-0.426-0.712-0.734-1.007c1.741-0.516,3.238-1.18,4.488-1.991
		c-0.528-0.8-0.953-1.757-1.276-2.863l-4.644,0.075v1.471c1.045-0.154,2.142-0.359,3.289-0.619v0.988
		c-1.395,0.295-2.488,0.503-3.289,0.619v2.225c0,0.518-0.105,0.864-0.318,1.045c-0.213,0.182-0.628,0.271-1.247,0.271
		c-0.452,0-1.116-0.039-1.991-0.116c-0.078-0.503-0.176-0.884-0.291-1.143c0.928,0.154,1.688,0.232,2.282,0.232
		c0.282,0,0.427-0.128,0.427-0.387v-1.955c-0.529,0.077-1.312,0.182-2.342,0.311c-0.465,0.051-0.807,0.096-1.025,0.137
		c-0.154,0.023-0.277,0.051-0.367,0.074l-0.252-1.236c0.154,0.014,0.311,0.02,0.465,0.02c0.695,0,1.87-0.102,3.521-0.31v-1.604
		l-2.517,0.037c-0.592,0-1.181,0.041-1.761,0.116l-0.02-1.218c0.58,0.063,1.045,0.096,1.393,0.096h0.388l2.517-0.037v-1.22
		c-0.607,0.091-1.588,0.207-2.94,0.349c-0.13-0.349-0.315-0.658-0.562-0.929c2.952-0.131,5.094-0.491,6.422-1.084
		c0.015,0,0.025-0.003,0.039-0.011c0.014-0.006,0.035-0.016,0.066-0.027c0.031-0.015,0.075-0.033,0.125-0.059l0.871,0.832
		c-0.941,0.31-1.903,0.555-2.885,0.734v1.393l4.412-0.075c-0.039-0.271-0.116-0.833-0.232-1.685
		c-0.039-0.361-0.077-0.639-0.117-0.834h1.316c-0.026,0.154-0.039,0.33-0.039,0.523c0,0.581,0.07,1.238,0.213,1.975l4.179-0.078
		c0.929-0.012,1.626-0.064,2.091-0.154l0.019,1.238c-0.349-0.053-0.772-0.078-1.276-0.078c-0.373,0-0.645,0.007-0.813,0.02
		l-3.967,0.059c0.258,0.826,0.613,1.566,1.063,2.226C125.051,166.961,125.702,166.336,126.102,165.77z M114.999,155.827h2.418
		c-0.311-0.412-0.754-0.91-1.336-1.49l1.045-0.405c0.567,0.579,1.098,1.214,1.588,1.896h3.152c0.645-0.672,1.141-1.33,1.49-1.974
		l1.219,0.425c-0.478,0.619-0.93,1.137-1.354,1.549h2.747c0.98,0,1.64-0.039,1.974-0.115v1.18c-0.489-0.063-1.147-0.098-1.974-0.098
		h-5.01v1.258h4.14c0.853,0,1.463-0.03,1.838-0.096v1.141c-0.399-0.064-1.013-0.098-1.838-0.098h-4.14v1.354h6.17
		c0.838,0,1.511-0.038,2.013-0.116v1.238c-0.502-0.075-1.175-0.116-2.013-0.116h-13.213c-0.852,0-1.527,0.041-2.031,0.116v-1.238
		c0.517,0.078,1.193,0.116,2.031,0.116h5.9v-1.354h-3.967c-0.852,0-1.471,0.033-1.855,0.098v-1.141
		c0.373,0.063,0.992,0.096,1.855,0.096h3.967v-1.258h-4.816c-0.865,0-1.528,0.033-1.992,0.098v-1.18
		C113.508,155.788,114.17,155.827,114.999,155.827z M123.858,162.327l0.696-0.678c0.929,0.465,1.774,0.994,2.534,1.587l-0.715,0.772
		C125.715,163.426,124.877,162.868,123.858,162.327z"/>
	<path d="M135.098,163.293v6.269c0,0.929,0.039,1.604,0.115,2.03h-1.393c0.063-0.67,0.098-1.346,0.098-2.03v-5.899
		c-0.594,0.644-1.463,1.463-2.612,2.457c-0.142-0.375-0.367-0.742-0.677-1.104c1.186-0.8,2.252-1.747,3.191-2.843
		c0.955-1.084,1.773-2.336,2.456-3.752h-3.462c-0.527,0-1.025,0.022-1.49,0.074v-1.256c0.451,0.051,0.936,0.076,1.451,0.076h1.122
		v-1.799c0-0.527-0.032-1.038-0.097-1.527h1.432c-0.077,0.373-0.115,0.889-0.115,1.547v1.779h1.18c0.451,0,0.754-0.02,0.908-0.059
		l0.563,0.697c-0.104,0.153-0.225,0.387-0.367,0.696c-0.464,1.007-1.168,2.136-2.107,3.384c0.824,0.866,1.767,1.651,2.824,2.36
		c-0.246,0.362-0.438,0.735-0.582,1.122C136.532,164.704,135.717,163.961,135.098,163.293z M140.92,165.264h-0.387
		c-0.826,0-1.451,0.021-1.877,0.059c0.039-0.464,0.059-1.115,0.059-1.953v-6.615c0-0.75-0.024-1.406-0.076-1.975
		c0.425,0.053,1.057,0.077,1.896,0.077h5.185c0.813,0,1.432-0.026,1.856-0.077c-0.052,0.465-0.076,1.122-0.076,1.975v6.615
		c0,0.787,0.025,1.444,0.076,1.975c-0.478-0.053-1.103-0.079-1.877-0.079h-0.734v4.489c0,0.166,0.078,0.273,0.232,0.32
		c0.154,0.045,0.49,0.067,1.006,0.067c0.489,0,0.821-0.028,0.996-0.079c0.174-0.053,0.286-0.16,0.34-0.328
		c0.103-0.313,0.174-1.084,0.211-2.322c0.362,0.232,0.744,0.406,1.145,0.523c-0.091,1.587-0.29,2.553-0.6,2.9
		c-0.283,0.297-1.053,0.443-2.303,0.443c-0.916,0-1.514-0.068-1.791-0.212s-0.414-0.444-0.414-0.909v-4.896h-1.685
		c-0.091,1.071-0.335,2.015-0.733,2.825c-0.389,0.772-0.9,1.437-1.539,1.981c-0.64,0.55-1.475,1.048-2.508,1.5
		c-0.219-0.36-0.508-0.721-0.869-1.083c1.379-0.451,2.453-1.121,3.221-2.013C140.441,167.588,140.858,166.517,140.92,165.264z
		 M139.875,155.902v2.091h6.442v-2.091H139.875z M139.875,158.999v2.031h6.442v-2.031H139.875z M139.875,162.055v2.188h6.442v-2.188
		H139.875z"/>
</g>
<g>
	<path d="M222.336,165.77l0.986,0.678c-0.154,0.129-0.334,0.297-0.541,0.502c-0.527,0.489-1.129,0.993-1.8,1.51
		c0.412,0.465,0.882,0.887,1.412,1.268c0.526,0.381,0.907,0.57,1.142,0.57c0.219,0,0.412-0.184,0.582-0.553
		c0.164-0.367,0.365-1.054,0.598-2.062c0.271,0.337,0.582,0.603,0.931,0.793c-0.312,1.138-0.604,1.915-0.881,2.343
		c-0.278,0.426-0.642,0.637-1.093,0.637c-0.478,0-1.034-0.209-1.674-0.627c-0.638-0.42-1.271-0.988-1.904-1.711
		c-1.238,0.825-2.703,1.553-4.393,2.187c-0.181-0.374-0.426-0.712-0.734-1.007c1.74-0.516,3.238-1.18,4.486-1.991
		c-0.527-0.8-0.953-1.757-1.274-2.863l-4.644,0.075v1.471c1.045-0.154,2.141-0.359,3.289-0.619v0.988
		c-1.394,0.295-2.488,0.503-3.289,0.619v2.225c0,0.518-0.106,0.864-0.318,1.045c-0.213,0.182-0.629,0.271-1.247,0.271
		c-0.453,0-1.116-0.039-1.993-0.116c-0.076-0.503-0.174-0.884-0.29-1.143c0.929,0.154,1.69,0.232,2.283,0.232
		c0.282,0,0.425-0.128,0.425-0.387v-1.955c-0.527,0.077-1.309,0.182-2.34,0.311c-0.465,0.051-0.807,0.096-1.026,0.137
		c-0.153,0.023-0.276,0.051-0.366,0.074l-0.252-1.236c0.155,0.014,0.312,0.02,0.465,0.02c0.695,0,1.871-0.102,3.521-0.31v-1.604
		l-2.515,0.037c-0.594,0-1.18,0.041-1.76,0.116l-0.02-1.218c0.58,0.063,1.043,0.096,1.393,0.096h0.387l2.515-0.037v-1.22
		c-0.606,0.091-1.586,0.207-2.938,0.349c-0.131-0.349-0.316-0.658-0.562-0.929c2.952-0.131,5.093-0.491,6.423-1.084
		c0.014,0,0.024-0.003,0.039-0.011c0.012-0.006,0.035-0.016,0.066-0.027c0.029-0.015,0.072-0.033,0.125-0.059l0.869,0.832
		c-0.941,0.31-1.902,0.555-2.883,0.734v1.393l4.41-0.075c-0.039-0.271-0.115-0.833-0.23-1.685c-0.04-0.361-0.079-0.639-0.116-0.834
		h1.313c-0.026,0.154-0.039,0.33-0.039,0.523c0,0.581,0.07,1.238,0.213,1.975l4.18-0.078c0.93-0.012,1.625-0.064,2.091-0.154
		l0.019,1.238c-0.348-0.053-0.773-0.078-1.276-0.078c-0.372,0-0.646,0.007-0.812,0.02l-3.967,0.059
		c0.258,0.826,0.612,1.566,1.063,2.226C221.288,166.961,221.937,166.336,222.336,165.77z M211.232,155.827h2.419
		c-0.311-0.412-0.755-0.91-1.334-1.49l1.043-0.405c0.566,0.579,1.098,1.214,1.587,1.896h3.153c0.645-0.672,1.143-1.33,1.49-1.974
		l1.219,0.425c-0.479,0.619-0.93,1.137-1.354,1.549h2.746c0.979,0,1.641-0.039,1.975-0.115v1.18
		c-0.491-0.063-1.148-0.098-1.975-0.098h-5.011v1.258h4.142c0.85,0,1.463-0.03,1.838-0.096v1.141
		c-0.4-0.064-1.014-0.098-1.838-0.098h-4.142v1.354h6.171c0.838,0,1.51-0.038,2.014-0.116v1.238
		c-0.504-0.075-1.176-0.116-2.014-0.116h-13.214c-0.851,0-1.526,0.041-2.03,0.116v-1.238c0.516,0.078,1.193,0.116,2.03,0.116h5.899
		v-1.354h-3.965c-0.852,0-1.471,0.033-1.855,0.098v-1.141c0.373,0.063,0.992,0.096,1.855,0.096h3.965v-1.258h-4.815
		c-0.864,0-1.528,0.033-1.991,0.098v-1.18C209.745,155.788,210.407,155.827,211.232,155.827z M220.094,162.327l0.695-0.678
		c0.93,0.465,1.774,0.994,2.535,1.587l-0.717,0.772C221.952,163.426,221.112,162.868,220.094,162.327z"/>
	<path d="M244.897,157.506v1.297c-0.374-0.064-0.969-0.096-1.779-0.096c-0.115,1.146-0.256,2.084-0.416,2.805
		c-0.16,0.722-0.408,1.488-0.744,2.302c-0.375,0.953-0.846,1.831-1.412,2.631c1.341,1.677,2.906,2.962,4.701,3.851
		c-0.336,0.35-0.604,0.748-0.813,1.199c-1.896-1.135-3.438-2.504-4.624-4.102c-0.724,0.839-1.479,1.563-2.265,2.167
		c-0.787,0.604-1.805,1.25-3.057,1.935c-0.246-0.438-0.533-0.801-0.871-1.086c1.096-0.475,2.039-0.996,2.825-1.566
		c1.03-0.734,1.923-1.551,2.669-2.455c-0.953-1.51-1.639-3.141-2.05-4.895c-0.438,0.889-0.856,1.625-1.258,2.205
		c-0.271-0.324-0.58-0.589-0.929-0.794c0.141-0.167,0.276-0.341,0.406-0.522c-0.311-0.053-0.886-0.076-1.723-0.076h-0.813v5.223
		c1.019-0.347,2.064-0.732,3.135-1.16l0.019,1.2c-2.245,0.876-4.082,1.509-5.514,1.896c-1.611,0.438-2.568,0.711-2.864,0.813
		l-0.348-1.395c0.398-0.012,0.885-0.082,1.451-0.213v-6.652c0-0.803-0.031-1.439-0.098-1.916h1.336
		c-0.064,0.503-0.098,1.134-0.098,1.896v6.402c0.322-0.076,0.923-0.244,1.799-0.503v-10.931h-2.031c-0.605,0-1.186,0.039-1.74,0.115
		v-1.373c0.556,0.078,1.146,0.117,1.779,0.117h4.684c0.759,0,1.34-0.033,1.74-0.099v1.336c-0.438-0.063-0.974-0.099-1.606-0.099
		h-1.644v4.219h0.813c0.837,0,1.418-0.027,1.74-0.077v1.237c0.941-1.471,1.664-3.32,2.166-5.553
		c0.311-1.303,0.479-2.276,0.504-2.922l1.354,0.272c-0.076,0.256-0.283,1.103-0.619,2.532c-0.141,0.543-0.225,0.857-0.25,0.949
		h4.604C243.858,157.625,244.469,157.586,244.897,157.506z M241.897,158.708h-3.771c-0.195,0.596-0.338,1.006-0.426,1.238
		c0.449,2.114,1.151,3.934,2.107,5.456C240.981,163.532,241.676,161.299,241.897,158.708z"/>
	<path d="M254.318,161.708c0.31-0.309,0.685-0.465,1.122-0.465c0.439,0,0.813,0.156,1.122,0.465c0.31,0.312,0.464,0.684,0.464,1.121
		c0,0.438-0.154,0.813-0.464,1.123c-0.31,0.311-0.683,0.465-1.122,0.465c-0.438,0-0.813-0.154-1.122-0.465
		c-0.31-0.31-0.463-0.685-0.463-1.123C253.855,162.391,254.008,162.018,254.318,161.708z"/>
	<path d="M280.375,165.77l0.986,0.678c-0.154,0.129-0.334,0.297-0.541,0.502c-0.527,0.489-1.129,0.993-1.8,1.51
		c0.412,0.465,0.882,0.887,1.412,1.268c0.526,0.381,0.907,0.57,1.142,0.57c0.219,0,0.412-0.184,0.582-0.553
		c0.164-0.367,0.365-1.054,0.598-2.062c0.271,0.337,0.582,0.603,0.931,0.793c-0.312,1.138-0.604,1.915-0.881,2.343
		c-0.278,0.426-0.644,0.637-1.093,0.637c-0.478,0-1.035-0.209-1.674-0.627c-0.638-0.42-1.271-0.988-1.904-1.711
		c-1.238,0.825-2.703,1.553-4.393,2.187c-0.181-0.374-0.426-0.712-0.734-1.007c1.74-0.516,3.238-1.18,4.486-1.991
		c-0.527-0.8-0.953-1.757-1.275-2.863l-4.643,0.075v1.471c1.045-0.154,2.141-0.359,3.288-0.619v0.988
		c-1.393,0.295-2.487,0.503-3.288,0.619v2.225c0,0.518-0.107,0.864-0.318,1.045c-0.213,0.182-0.629,0.271-1.248,0.271
		c-0.452,0-1.115-0.039-1.992-0.116c-0.076-0.503-0.174-0.884-0.29-1.143c0.929,0.154,1.69,0.232,2.282,0.232
		c0.283,0,0.426-0.128,0.426-0.387v-1.955c-0.527,0.077-1.309,0.182-2.34,0.311c-0.465,0.051-0.807,0.096-1.026,0.137
		c-0.153,0.023-0.276,0.051-0.366,0.074l-0.252-1.236c0.154,0.014,0.311,0.02,0.465,0.02c0.695,0,1.871-0.102,3.521-0.31v-1.604
		l-2.515,0.037c-0.594,0-1.181,0.041-1.76,0.116l-0.02-1.218c0.58,0.063,1.043,0.096,1.392,0.096h0.388l2.515-0.037v-1.22
		c-0.606,0.091-1.586,0.207-2.938,0.349c-0.131-0.349-0.316-0.658-0.562-0.929c2.952-0.131,5.093-0.491,6.423-1.084
		c0.014,0,0.023-0.003,0.039-0.011c0.012-0.006,0.034-0.016,0.066-0.027c0.029-0.015,0.072-0.033,0.125-0.059l0.869,0.832
		c-0.941,0.31-1.902,0.555-2.884,0.734v1.393l4.41-0.075c-0.039-0.271-0.114-0.833-0.229-1.685c-0.041-0.361-0.08-0.639-0.117-0.834
		h1.314c-0.027,0.154-0.039,0.33-0.039,0.523c0,0.581,0.07,1.238,0.213,1.975l4.18-0.078c0.929-0.012,1.625-0.064,2.09-0.154
		l0.02,1.238c-0.348-0.053-0.773-0.078-1.277-0.078c-0.371,0-0.645,0.007-0.812,0.02l-3.967,0.059
		c0.258,0.826,0.612,1.566,1.063,2.226C279.327,166.961,279.976,166.336,280.375,165.77z M269.271,155.827h2.419
		c-0.311-0.412-0.755-0.91-1.334-1.49l1.043-0.405c0.566,0.579,1.098,1.214,1.587,1.896h3.153c0.645-0.672,1.143-1.33,1.49-1.974
		l1.219,0.425c-0.479,0.619-0.93,1.137-1.354,1.549h2.746c0.979,0,1.641-0.039,1.975-0.115v1.18
		c-0.491-0.063-1.148-0.098-1.975-0.098h-5.011v1.258h4.142c0.85,0,1.463-0.03,1.838-0.096v1.141
		c-0.401-0.064-1.014-0.098-1.838-0.098h-4.142v1.354h6.171c0.838,0,1.51-0.038,2.014-0.116v1.238
		c-0.504-0.075-1.176-0.116-2.014-0.116h-13.214c-0.851,0-1.526,0.041-2.03,0.116v-1.238c0.516,0.078,1.193,0.116,2.03,0.116h5.899
		v-1.354h-3.965c-0.852,0-1.471,0.033-1.855,0.098v-1.141c0.373,0.063,0.992,0.096,1.855,0.096h3.965v-1.258h-4.815
		c-0.864,0-1.528,0.033-1.992,0.098v-1.18C267.784,155.788,268.446,155.827,269.271,155.827z M278.133,162.327l0.695-0.678
		c0.93,0.465,1.774,0.994,2.534,1.587l-0.716,0.772C279.991,163.426,279.151,162.868,278.133,162.327z"/>
	<path d="M293.338,159.792v-4.063c0-0.658-0.039-1.244-0.116-1.76h1.45c-0.076,0.488-0.115,1.076-0.115,1.76v4.063h5.281
		c0.711,0,1.32-0.025,1.839-0.076c-0.054,0.451-0.079,0.974-0.079,1.568v8.567c0,0.634-0.238,1.065-0.715,1.296
		c-0.284,0.143-0.756,0.214-1.412,0.214c-0.684,0-1.387-0.024-2.109-0.077c-0.076-0.465-0.199-0.877-0.367-1.238
		c0.969,0.129,1.762,0.193,2.381,0.193c0.412,0,0.684-0.035,0.812-0.107c0.131-0.068,0.194-0.217,0.194-0.434v-8.783h-12.518v8.512
		c0,0.916,0.03,1.625,0.098,2.129h-1.434c0.078-0.619,0.116-1.328,0.116-2.129v-8.01c0-0.668-0.024-1.237-0.077-1.701
		c0.503,0.051,1.116,0.076,1.84,0.076H293.338z M287.07,155.245l1.007-0.601c1.107,1.252,2.036,2.502,2.785,3.754l-1.044,0.694
		C289.056,157.702,288.141,156.418,287.07,155.245z M297.711,164.474v2.265c0,0.555,0.024,1.121,0.078,1.701
		c-0.465-0.053-1.054-0.076-1.761-0.076h-4.489v1.198h-1.258c0.064-0.556,0.098-1.108,0.098-1.664v-3.347
		c0-0.787-0.025-1.362-0.078-1.723c0.505,0.053,1.111,0.078,1.818,0.078h3.889c0.709,0,1.303-0.025,1.781-0.078
		C297.737,163.305,297.711,163.855,297.711,164.474z M291.54,163.952v3.348h5.01v-3.348H291.54z M299.722,154.588l1.141,0.619
		c-0.604,1.029-1.11,1.813-1.508,2.352c-0.397,0.535-0.896,1.113-1.489,1.732l-1.007-0.678c0.634-0.594,1.159-1.184,1.577-1.771
		C298.855,156.254,299.286,155.504,299.722,154.588z"/>
</g>
<g>
	<rect x="95.64" y="6.588" fill="none" width="83.71" height="48.366"/>
	<path d="M99.978,24.445V11.051l3.928-3.594h2.032l-4.442,4.063v12.456l4.442,4.063h-2.032L99.978,24.445z"/>
	<path d="M114.622,10.875h-4.151c-0.968,0-1.83,0.044-2.59,0.134V8.463c0.686,0.089,1.563,0.134,2.634,0.134h14.957
		c1.041,0,1.912-0.044,2.611-0.134v2.545c-0.805-0.09-1.668-0.134-2.59-0.134h-4.441v2.5h3.326c1.115,0,1.985-0.037,2.61-0.111
		c-0.073,0.744-0.11,1.645-0.11,2.701v9.04c0,1.281,0.045,2.232,0.134,2.857h-2.5v-1.294h-13.06v1.294h-2.5
		c0.09-0.878,0.133-1.838,0.133-2.879v-9.019c0-0.893-0.043-1.793-0.133-2.701c0.58,0.074,1.45,0.111,2.611,0.111h3.059v-1.406
		V10.875z M118.84,15.651h-2.032c-0.118,1.831-0.446,3.273-0.981,4.33c-0.298,0.566-0.638,1.049-1.017,1.451
		s-0.933,0.856-1.662,1.362c-0.522-0.669-1.087-1.213-1.696-1.63v3.104h13.06v-5.916c-0.017,0.014-0.03,0.141-0.046,0.379
		c-0.06,0.818-0.154,1.376-0.289,1.674c-0.164,0.387-0.442,0.662-0.838,0.826c-0.396,0.164-0.992,0.246-1.799,0.246
		c-1.086,0-1.808-0.13-2.164-0.392c-0.357-0.26-0.537-0.777-0.537-1.551V15.65L118.84,15.651L118.84,15.651z M114.532,15.651h-3.08
		v5.379c0.879-0.461,1.563-1.034,2.055-1.719C114.069,18.539,114.413,17.316,114.532,15.651z M116.896,10.875v1.227v1.271h1.942
		v-2.5h-1.942V10.875z M121.047,15.651v3.169c0,0.209,0.041,0.339,0.125,0.391c0.082,0.051,0.295,0.078,0.637,0.078
		c0.416,0,0.665-0.082,0.747-0.246c0.081-0.164,0.124-0.684,0.124-1.562c0.564,0.297,1.176,0.483,1.83,0.558V15.65L121.047,15.651
		L121.047,15.651z"/>
	<path d="M141.206,13.33v1.116h4.756c0.834,0,1.539-0.022,2.121-0.067c-0.061,0.61-0.09,1.302-0.09,2.076v3.728
		c0,0.774,0.029,1.481,0.09,2.121c-0.61-0.044-1.332-0.067-2.166-0.067h-4.711v1.139h6.607c0.85,0,1.639-0.045,2.367-0.134v2.366
		c-0.789-0.089-1.631-0.134-2.523-0.134h-6.451c0,1.084,0.045,1.971,0.135,2.656h-2.611c0.104-0.699,0.156-1.585,0.156-2.656h-6.006
		c-0.906,0-1.739,0.044-2.5,0.134v-2.366c0.686,0.089,1.467,0.134,2.345,0.134h6.161v-1.139h-4.33c-0.819,0-1.533,0.022-2.145,0.067
		c0.061-0.669,0.09-1.376,0.09-2.121v-3.728c0-0.729-0.029-1.421-0.09-2.076c0.551,0.044,1.258,0.067,2.121,0.067h4.354V13.33
		h-4.821c-0.774,0-1.429,0.03-1.965,0.089v-0.558h-1.63c0.06-0.432,0.09-0.967,0.09-1.607V9.602c0-0.625-0.03-1.168-0.09-1.63
		c0.699,0.06,1.488,0.089,2.365,0.089h14.778c0.997,0,1.793-0.03,2.39-0.089c-0.061,0.402-0.09,0.923-0.09,1.563v1.696
		c0,0.685,0.037,1.228,0.111,1.63h-1.786v0.558c-0.521-0.06-1.169-0.089-1.942-0.089H141.206z M138.886,11.296V10.18h-5.962v1.095
		c0.254,0.015,0.634,0.021,1.14,0.021H138.886z M138.886,17.459v-1.206h-4.041v1.206H138.886z M138.886,20.404v-1.25h-4.041v1.25
		H138.886z M141.206,11.296h5.09c0.521,0,0.924-0.007,1.205-0.021V10.18h-6.295V11.296z M141.206,17.459h4.42v-1.206h-4.42V17.459z
		 M141.206,20.404h4.42v-1.25h-4.42V20.404z"/>
	<path d="M158.284,24.445l-3.93,3.594h-2.031l4.442-4.063V11.521l-4.442-4.063h2.031l3.93,3.594V24.445z"/>
</g>
<g>
	<rect x="220.647" y="6.588" fill="none" width="83.71" height="48.366"/>
	<path d="M224.985,24.445V11.051l3.93-3.594h2.03l-4.44,4.063v12.456l4.44,4.063h-2.03L224.985,24.445z"/>
	<path d="M241.659,11.631h-6.049c-1.148,0-2.046,0.044-2.699,0.134V9.31c0.729,0.104,1.68,0.156,2.856,0.156h5.892
		c-0.015-0.804-0.066-1.473-0.154-2.009h2.725c-0.09,0.551-0.134,1.221-0.134,2.009h6.096c1.308,0,2.282-0.052,2.924-0.156v2.455
		c-0.743-0.091-1.669-0.134-2.769-0.134h-6.252v1.25h4.666c1.041,0,1.869-0.031,2.478-0.091c-0.06,0.596-0.091,1.347-0.091,2.255
		v4.129c0,0.835,0.031,1.593,0.091,2.277c-0.536-0.075-1.368-0.112-2.499-0.112h-2.679c0.997,0.938,2.112,1.711,3.349,2.322
		c1.236,0.611,2.7,1.109,4.397,1.495c-0.433,0.653-0.854,1.444-1.272,2.367c-1.666-0.551-3.191-1.228-4.574-2.032
		c-1.535-0.907-2.838-1.979-3.908-3.214c0.029,0.982,0.045,1.496,0.045,1.541v1.607c0,1.102,0.053,1.949,0.156,2.544h-2.746
		c0.104-0.818,0.154-1.667,0.154-2.544v-1.607c0-0.446,0.016-0.953,0.047-1.518c-1.104,1.354-2.523,2.53-4.266,3.527
		c-1.102,0.64-2.374,1.212-3.816,1.718c-0.402-0.922-0.818-1.674-1.25-2.254c1.576-0.447,2.977-0.997,4.194-1.652
		c1.354-0.729,2.419-1.496,3.193-2.299h-2.411c-1.102,0-1.941,0.037-2.523,0.112c0-0.149,0.023-0.365,0.067-0.647
		c0-0.06,0.009-0.602,0.022-1.63v-4.107c0-0.833-0.028-1.6-0.09-2.299c0.506,0.074,1.317,0.111,2.435,0.111h4.396V11.631
		L241.659,11.631z M241.659,14.801h-4.375v1.362h4.375V14.801z M241.659,18.018h-4.375v1.406h4.375V18.018z M244.092,14.801v1.362
		h4.688v-1.362H244.092z M244.092,18.018v1.406h4.688v-1.406H244.092z"/>
	<path d="M266.213,13.33v1.116h4.756c0.832,0,1.539-0.022,2.117-0.067c-0.058,0.61-0.088,1.302-0.088,2.076v3.728
		c0,0.774,0.031,1.481,0.088,2.121c-0.609-0.044-1.33-0.067-2.164-0.067h-4.709v1.139h6.605c0.85,0,1.637-0.045,2.366-0.134v2.366
		c-0.787-0.089-1.629-0.134-2.522-0.134h-6.449c0,1.084,0.043,1.971,0.134,2.656h-2.613c0.104-0.699,0.157-1.585,0.157-2.656h-6.006
		c-0.906,0-1.74,0.044-2.5,0.134v-2.366c0.686,0.089,1.466,0.134,2.346,0.134h6.16v-1.139h-4.331c-0.817,0-1.531,0.022-2.142,0.067
		c0.06-0.669,0.09-1.376,0.09-2.121v-3.728c0-0.729-0.03-1.421-0.09-2.076c0.549,0.044,1.256,0.067,2.119,0.067h4.354V13.33h-4.822
		c-0.771,0-1.427,0.03-1.963,0.089v-0.558h-1.629c0.059-0.432,0.088-0.967,0.088-1.607V9.602c0-0.625-0.029-1.168-0.088-1.63
		c0.697,0.06,1.486,0.089,2.365,0.089h14.777c0.996,0,1.793-0.03,2.389-0.089c-0.062,0.402-0.09,0.923-0.09,1.563v1.696
		c0,0.685,0.037,1.228,0.111,1.63h-1.785v0.558c-0.521-0.06-1.168-0.089-1.941-0.089H266.213z M263.894,11.296V10.18h-5.961v1.095
		c0.252,0.015,0.633,0.021,1.14,0.021H263.894z M263.894,17.459v-1.206h-4.042v1.206H263.894z M263.894,20.404v-1.25h-4.042v1.25
		H263.894z M266.213,11.296h5.09c0.521,0,0.921-0.007,1.205-0.021V10.18h-6.295V11.296L266.213,11.296z M266.213,17.459h4.42v-1.206
		h-4.42V17.459z M266.213,20.404h4.42v-1.25h-4.42V20.404z"/>
	<path d="M283.29,24.445l-3.93,3.594h-2.029l4.442-4.063V11.521l-4.442-4.063h2.029l3.93,3.594V24.445z"/>
</g>
<g>
	<rect x="116.831" y="202.133" fill="none" width="68.951" height="36.197"/>
	<path fill="#FF7F00" d="M142.079,227.524h-4.638c-0.209-1.131-0.47-2.119-0.792-2.968l-1.131-3.082h-9.048l-1.132,3.082
		c-0.379,0.979-0.659,1.971-0.848,2.968h-4.64c0.435-0.791,0.935-1.902,1.499-3.336l6.221-16.314
		c0.471-1.263,0.771-2.215,0.903-2.854h4.921c0.094,0.453,0.414,1.403,0.961,2.854l6.277,16.314
		C141.295,225.868,141.776,226.979,142.079,227.524z M134.499,218.223l-3.024-8.371c-0.037-0.094-0.104-0.295-0.198-0.605
		c-0.094-0.312-0.197-0.639-0.311-0.977c-0.303,0.887-0.48,1.414-0.537,1.582l-2.94,8.371H134.499z"/>
</g>
<g>
	<rect x="242.827" y="202.133" fill="none" width="68.955" height="36.197"/>
	<path fill="#FF7F00" d="M259.139,227.524h-6.956c-1.263,0-2.472,0.029-3.618,0.086c0.17-1.02,0.254-2.291,0.254-3.818v-15.353
		c0-1.075-0.074-2.233-0.225-3.478c0.789,0.035,1.979,0.057,3.563,0.057h6.672c2.188,0,3.875,0.477,5.063,1.43
		c1.188,0.951,1.781,2.313,1.781,4.084c0,1.66-0.527,2.977-1.584,3.959c-0.51,0.488-1.254,0.887-2.233,1.186
		c1.265,0.268,2.215,0.699,2.856,1.304c1.168,1.073,1.752,2.517,1.752,4.324c0,2-0.637,3.534-1.908,4.61
		C263.284,226.989,261.479,227.524,259.139,227.524z M252.551,214.208h5.881c1.076,0,1.914-0.268,2.518-0.807
		c0.602-0.535,0.904-1.296,0.904-2.273c0-0.924-0.244-1.613-0.734-2.064c-0.643-0.586-1.547-0.877-2.716-0.877h-5.854v6.021H252.551
		z M252.551,217.344v6.984h6.078c1.266,0,2.232-0.306,2.912-0.918c0.682-0.613,1.021-1.486,1.021-2.615
		c0-1.113-0.303-1.942-0.904-2.488c-0.734-0.643-1.763-0.963-3.084-0.963H252.551z"/>
</g>
</svg>
