<?xml version="1.0" encoding="utf-8"?>
<!-- Generator: Adobe Illustrator 16.0.3, SVG Export Plug-In . SVG Version: 6.00 Build 0)  -->
<!DOCTYPE svg PUBLIC "-//W3C//DTD SVG 1.1//EN" "http://www.w3.org/Graphics/SVG/1.1/DTD/svg11.dtd">
<svg version="1.1" id="レイヤー_1" xmlns="http://www.w3.org/2000/svg" xmlns:xlink="http://www.w3.org/1999/xlink" x="0px"
	 y="0px" width="107.855px" height="163.794px" viewBox="0 0 107.855 163.794" enable-background="new 0 0 107.855 163.794"
	 xml:space="preserve">
<path fill="none" stroke="#000000" stroke-width="0.5" stroke-miterlimit="10" d="M45.606,84.081L37.45,58.979
	c-3.04,0.988-4.921,1.767-7.77,3.219l11.993,23.538C42.934,85.085,44.247,84.529,45.606,84.081z"/>
<path fill="none" stroke="#000000" stroke-width="0.5" stroke-miterlimit="10" d="M41.674,85.736L29.681,62.198
	c-3.481,1.773-6.36,3.643-9.396,6.102l16.639,20.547C38.391,87.652,39.983,86.609,41.674,85.736z"/>
<path fill="none" stroke="#000000" stroke-width="0.5" stroke-miterlimit="10" d="M36.923,88.847L20.284,68.3
	c-5.061,4.099-8.857,8.466-12.211,14.048l22.647,13.608C32.366,93.248,34.473,90.842,36.923,88.847z"/>
<path fill="none" stroke="#000000" stroke-width="0.5" stroke-miterlimit="10" d="M26.806,109.825c0-5.039,1.438-9.793,3.915-13.869
	L8.073,82.348c-13.232,22.022-9.402,49.276,9.388,66.799l18.158-19.473C30.227,124.697,26.806,117.602,26.806,109.825z"/>
<path fill="none" stroke="#000000" stroke-width="0.5" stroke-miterlimit="10" d="M54.012,56.356v26.391
	c14.707,0.07,26.956,12.357,26.956,27.078c0,14.763-12.318,27.081-27.081,27.081c-6.986,0-13.423-2.762-18.268-7.232l-18.158,19.473
	c10.391,9.689,22.343,14.397,36.551,14.397c29.599,0,53.594-23.995,53.594-53.594S83.61,56.356,54.012,56.356z"/>
<g>
	<path d="M53.43,2.21c0.248,0.024,0.392,0.032,0.72,0.032c0.72,0,1.87-0.048,2.438-0.112c0.176-0.016,0.336-0.048,0.447-0.096
		l0.336,0.424c-0.128,0.088-0.184,0.136-0.392,0.336c-0.783,0.76-1.823,1.567-2.622,2.039c0.392-0.072,0.703-0.112,1.918-0.216
		c0.328-0.024,0.816-0.072,1.424-0.128c0.328-0.024,0.567-0.049,0.728-0.064c0.104-0.008,0.136-0.008,0.231-0.032l0.057,0.56
		c-0.08,0-0.145,0-0.176,0c-0.816,0-1.607,0.152-2.199,0.433c-0.408,0.191-0.775,0.472-0.999,0.759
		c-0.185,0.24-0.256,0.424-0.256,0.664c0,0.655,0.688,1.031,1.902,1.031c0.208,0,0.368-0.016,0.544-0.048l0.023,0.615
		c-0.136-0.008-0.136-0.008-0.543-0.016c-0.936-0.016-1.631-0.191-2.016-0.52c-0.304-0.256-0.472-0.616-0.472-1.008
		c0-0.711,0.592-1.343,1.743-1.847c-0.111,0.016-0.111,0.016-0.439,0.072C55.692,5.104,54.98,5.2,54.524,5.257
		c-1.271,0.151-2.063,0.271-2.358,0.359l-0.063-0.607c0.023,0,0.04,0,0.056,0c0.248,0,0.848-0.064,1.399-0.16
		c0.791-0.472,1.854-1.304,2.654-2.063c0.128-0.12,0.16-0.145,0.264-0.225c-0.447,0.088-1.327,0.152-2.503,0.192
		c-0.304,0.016-0.335,0.016-0.495,0.032L53.43,2.21z"/>
	<path d="M63.125,6.048c-0.464,1.056-0.936,1.535-1.512,1.535c-0.76,0-1.327-0.831-1.327-1.951c0-0.815,0.304-1.606,0.84-2.206
		c0.64-0.704,1.511-1.063,2.582-1.063c0.896,0,1.68,0.279,2.199,0.791c0.504,0.488,0.775,1.184,0.775,1.951
		c0,1.239-0.672,2.263-1.831,2.759c-0.359,0.151-0.664,0.247-1.215,0.367c-0.08-0.264-0.129-0.344-0.28-0.535
		c0.584-0.097,0.959-0.2,1.335-0.376c0.88-0.399,1.415-1.256,1.415-2.239c0-0.911-0.463-1.646-1.271-2.007
		c-0.296-0.128-0.528-0.184-0.928-0.199C63.788,3.985,63.484,5.208,63.125,6.048z M62.141,3.258
		c-0.807,0.487-1.303,1.391-1.303,2.383c0,0.768,0.336,1.358,0.768,1.358c0.336,0,0.655-0.375,0.999-1.159
		c0.328-0.751,0.624-1.935,0.728-2.958C62.853,2.922,62.509,3.033,62.141,3.258z"/>
	<path d="M68.782,5.185c0-0.288,0.008-0.552,0.031-0.96c-0.344,0.584-0.447,0.736-0.839,1.2c-0.168-0.248-0.192-0.28-0.336-0.433
		c0.703-0.743,1.184-1.479,1.543-2.382c0.168-0.408,0.296-0.84,0.336-1.136l0.56,0.176c-0.048,0.112-0.072,0.184-0.168,0.456
		c-0.176,0.527-0.344,0.911-0.615,1.423v4.302c0,0.376,0.016,0.68,0.04,0.951h-0.601c0.032-0.287,0.049-0.543,0.049-0.967V5.185z
		 M71.093,4.633v2.966c0,0.2,0.056,0.265,0.296,0.313c0.216,0.048,0.543,0.063,1.175,0.063c1,0,1.407-0.04,1.592-0.144
		c0.184-0.104,0.287-0.439,0.344-1.144c0.216,0.12,0.296,0.144,0.52,0.2c-0.128,0.808-0.256,1.167-0.472,1.319
		c-0.256,0.176-0.784,0.239-2.016,0.239c-0.472,0-0.871-0.016-1.159-0.048c-0.312-0.032-0.535-0.111-0.655-0.239
		c-0.088-0.088-0.128-0.225-0.128-0.44v-2.91l-0.144,0.048c-0.433,0.152-0.528,0.192-0.664,0.264l-0.112-0.552
		c0.216-0.031,0.464-0.088,0.696-0.167l0.224-0.08V3.218c0-0.336-0.016-0.584-0.048-0.815h0.6c-0.032,0.224-0.048,0.455-0.048,0.791
		v0.96l1.167-0.408V2.306c0-0.287-0.016-0.512-0.048-0.743h0.584c-0.032,0.231-0.048,0.439-0.048,0.743v1.271l1.255-0.432
		c0.319-0.112,0.479-0.176,0.632-0.256c-0.008,0.12-0.017,0.248-0.017,0.352c-0.016,0.696-0.088,1.951-0.144,2.423
		c-0.08,0.672-0.216,0.823-0.728,0.823c-0.184,0-0.352-0.008-0.575-0.031c-0.032-0.192-0.057-0.313-0.137-0.512
		c0.248,0.056,0.48,0.088,0.64,0.088c0.265,0,0.288-0.057,0.353-0.688c0.048-0.448,0.079-1.08,0.096-1.783l-1.375,0.487v2.255
		c0,0.312,0.016,0.544,0.048,0.768h-0.584c0.032-0.224,0.048-0.447,0.048-0.775V4.217L71.093,4.633z"/>
	<path d="M54.093,17.862c-0.525-0.603-0.742-0.938-0.974-1.506c-0.231-0.561-0.336-1.113-0.336-1.723s0.104-1.163,0.336-1.724
		c0.231-0.567,0.448-0.903,0.974-1.506h0.623c-0.588,0.596-0.819,0.911-1.064,1.45c-0.252,0.561-0.378,1.142-0.378,1.779
		c0,0.637,0.126,1.219,0.378,1.778c0.245,0.54,0.477,0.854,1.064,1.45H54.093z"/>
	<path d="M57.745,12.932c-0.028,0.084-0.028,0.119-0.084,0.455c-0.154,0.945-0.49,1.919-0.911,2.669
		c-0.314,0.553-0.672,1.008-1.162,1.478c-0.14-0.168-0.252-0.267-0.435-0.364c0.764-0.645,1.31-1.443,1.667-2.451
		c0.21-0.596,0.357-1.303,0.357-1.716c0-0.028,0-0.07-0.007-0.147L57.745,12.932z M58.803,11.993c0.364,0,0.588-0.007,0.764-0.028
		c-0.008,0.057-0.008,0.091-0.008,0.112c0,0.336,0.077,0.854,0.211,1.429c0.343,1.499,1.064,2.787,2.03,3.642
		c-0.217,0.161-0.217,0.161-0.413,0.371c-0.588-0.574-1.071-1.268-1.449-2.065c-0.441-0.945-0.687-1.828-0.841-3.025h-1.016
		c-0.315,0-0.532,0.014-0.707,0.042v-0.519c0.168,0.028,0.378,0.042,0.714,0.042H58.803z"/>
	<path d="M67.077,13.541c0.609,0.63,1.113,0.98,1.793,1.268c-0.104,0.133-0.14,0.196-0.224,0.393
		c-0.203-0.105-0.273-0.147-0.421-0.238c-0.021,0.146-0.027,0.371-0.027,0.645v1.442c0,0.28,0.014,0.519,0.042,0.749h-0.456v-0.287
		h-2.367v0.28h-0.448c0.028-0.21,0.042-0.455,0.042-0.735v-1.442c0-0.287-0.007-0.47-0.027-0.651
		c0.161,0.014,0.427,0.021,0.693,0.021h1.884c0.294,0,0.504-0.007,0.658-0.027c-0.588-0.357-0.959-0.693-1.464-1.311
		c0.015,0.141,0.021,0.287,0.021,0.428v0.393c0,0.14,0.007,0.287,0.021,0.363h-0.441c0.015-0.076,0.021-0.224,0.021-0.363V14.08
		c0-0.133,0.014-0.301,0.028-0.427c-0.357,0.462-0.616,0.721-1.03,1.029c-0.182,0.14-0.308,0.217-0.623,0.406
		c-0.07-0.161-0.119-0.238-0.21-0.336v0.994c0,0.28-0.126,0.378-0.49,0.378c-0.056,0-0.099,0-0.203,0
		c0-0.203-0.014-0.272-0.07-0.406c0.077,0.015,0.161,0.021,0.252,0.021c0.084,0,0.119-0.021,0.119-0.077v-2.661h-0.455v4.083
		c0,0.294,0.014,0.539,0.035,0.749h-0.483c0.021-0.21,0.035-0.476,0.035-0.749v-4.083h-0.435v2.514c0,0.351,0.007,0.567,0.035,0.708
		H62.42c0.028-0.161,0.035-0.364,0.035-0.715v-2.283c0-0.238-0.007-0.42-0.021-0.637c0.141,0.021,0.315,0.027,0.596,0.027h0.252
		v-0.455c0-0.329-0.007-0.561-0.035-0.722h0.483c-0.021,0.189-0.035,0.455-0.035,0.715v0.462h0.273c0.294,0,0.448-0.007,0.595-0.035
		c-0.014,0.189-0.021,0.329-0.021,0.54v1.59c0.603-0.273,1.064-0.631,1.52-1.17H65.18c-0.211,0-0.351,0.007-0.47,0.028V13.17
		c0.098,0.021,0.245,0.027,0.483,0.027h0.329c-0.098-0.259-0.189-0.434-0.357-0.714l0.364-0.133
		c0.168,0.301,0.273,0.525,0.386,0.847h0.462v-1.001c-0.693,0.063-0.91,0.077-1.562,0.098c-0.035-0.146-0.077-0.272-0.147-0.392
		c1.163,0,1.821-0.057,2.745-0.231c0.47-0.084,0.589-0.112,0.771-0.182l0.309,0.378c-0.161,0.027-0.161,0.027-0.351,0.063
		c-0.343,0.077-1.016,0.183-1.365,0.225v1.043h0.427c0.225-0.308,0.393-0.616,0.539-0.994l0.414,0.154
		c-0.196,0.378-0.344,0.616-0.512,0.84h0.483c0.203,0,0.406-0.014,0.525-0.034v0.413c-0.141-0.021-0.336-0.035-0.539-0.035H67.077z
		 M65.417,16.041h0.967v-0.693h-0.967V16.041z M65.417,17.155h0.967v-0.764h-0.967V17.155z M66.77,16.041h1.015v-0.693H66.77V16.041
		z M66.77,17.155h1.015v-0.764H66.77V17.155z"/>
	<path d="M72.375,15.698c-0.195,0.188-0.504,0.42-0.784,0.581v0.918c0.68-0.126,0.925-0.183,1.541-0.344v0.378
		c-0.903,0.231-1.289,0.315-2.5,0.519c-0.134,0.021-0.211,0.035-0.372,0.07l-0.104-0.435c0.224,0,0.441-0.021,1.009-0.112v-0.763
		c-0.448,0.23-0.918,0.392-1.64,0.574c-0.063-0.161-0.111-0.238-0.23-0.371c1.078-0.196,1.904-0.525,2.556-1.016h-1.743
		c-0.386,0-0.567,0.007-0.757,0.035v-0.435c0.225,0.028,0.435,0.035,0.764,0.035h2.22v-0.126c0-0.112-0.007-0.231-0.021-0.322h0.469
		c-0.014,0.098-0.027,0.217-0.027,0.322v0.126h2.094c0.329,0,0.561-0.007,0.757-0.035v0.435c-0.189-0.028-0.364-0.035-0.75-0.035
		h-1.996c0.183,0.322,0.357,0.525,0.729,0.791c0.42-0.23,0.707-0.448,0.925-0.693l0.371,0.245c-0.406,0.329-0.581,0.448-0.98,0.658
		c0.519,0.287,1.078,0.505,1.765,0.666c-0.112,0.133-0.161,0.203-0.252,0.406c-0.967-0.309-1.611-0.616-2.129-1.037
		c-0.421-0.336-0.624-0.595-0.848-1.036H72.375z M70.078,12.336c-0.119,0.168-0.161,0.225-0.322,0.399
		c-0.126-0.104-0.182-0.14-0.336-0.21c0.336-0.329,0.49-0.574,0.645-1.016l0.385,0.119c-0.084,0.189-0.112,0.252-0.175,0.378h0.714
		c0-0.266-0.007-0.371-0.035-0.539h0.463c-0.028,0.154-0.035,0.259-0.035,0.539h0.784c0.294,0,0.428-0.007,0.603-0.035v0.393
		c-0.175-0.021-0.336-0.028-0.603-0.028h-0.784v0.463h0.875c0.322,0,0.448-0.008,0.624-0.035v0.392
		c-0.176-0.021-0.351-0.027-0.609-0.027h-0.89v0.434h0.672c0.322,0,0.463-0.007,0.589-0.021c-0.014,0.119-0.021,0.21-0.021,0.357
		v0.553c0,0.302-0.119,0.393-0.497,0.393c-0.084,0-0.252-0.007-0.413-0.021c-0.007-0.111-0.028-0.203-0.07-0.322
		c0.176,0.035,0.357,0.057,0.463,0.057c0.126,0,0.161-0.035,0.161-0.147v-0.532h-0.883v0.631c0,0.217,0.007,0.385,0.028,0.539
		h-0.448c0.021-0.168,0.027-0.315,0.027-0.532v-0.638h-0.819v0.596c0,0.217,0.007,0.322,0.028,0.441h-0.441
		c0.021-0.161,0.028-0.267,0.028-0.456v-0.482c0-0.161-0.007-0.302-0.021-0.435c0.134,0.014,0.337,0.021,0.539,0.021h0.687v-0.434
		h-0.91c-0.225,0-0.393,0.014-0.581,0.042v-0.399c0.161,0.021,0.314,0.028,0.539,0.028h0.952v-0.463H70.078z M73.229,14.08
		c0.028-0.154,0.035-0.308,0.035-0.483v-1.246c0-0.203-0.007-0.344-0.035-0.498h0.49c-0.027,0.127-0.034,0.26-0.034,0.498v1.246
		c0,0.196,0.007,0.309,0.034,0.483H73.229z M75.128,14.382c0,0.398-0.154,0.518-0.665,0.518c-0.134,0-0.477-0.021-0.708-0.035
		c-0.021-0.175-0.056-0.314-0.104-0.427c0.308,0.056,0.581,0.084,0.763,0.084c0.267,0,0.287-0.014,0.287-0.203v-2.157
		c0-0.259-0.014-0.42-0.042-0.609h0.512c-0.035,0.189-0.042,0.343-0.042,0.623V14.382z"/>
	<path d="M77.429,13.639c-0.176,0-0.309,0.007-0.463,0.028v-0.371c-0.161,0.154-0.224,0.21-0.42,0.364
		c-0.105-0.203-0.105-0.203-0.267-0.357c0.673-0.483,1.079-0.974,1.373-1.66h0.49c0.294,0.547,0.547,0.841,1.079,1.233
		c-0.112,0.118-0.161,0.203-0.253,0.378c-0.525-0.47-0.735-0.715-1.05-1.254c-0.273,0.532-0.519,0.861-0.925,1.268
		c0.119,0.015,0.266,0.021,0.441,0.021h0.861c0.203,0,0.336-0.007,0.462-0.028v0.406c-0.146-0.021-0.259-0.028-0.469-0.028h-0.218
		v0.771h0.295c0.272,0,0.462-0.007,0.63-0.035v0.441c-0.182-0.028-0.351-0.035-0.63-0.035h-0.295v1.961
		c0.329-0.104,0.505-0.168,0.988-0.364l0.014,0.399c-0.665,0.273-1.281,0.477-2.15,0.729c-0.175,0.049-0.238,0.07-0.448,0.141
		l-0.119-0.483c0.273-0.015,0.532-0.07,1.31-0.302v-2.08h-0.574c-0.287,0-0.455,0.007-0.651,0.035v-0.441
		c0.176,0.021,0.371,0.035,0.659,0.035h0.566v-0.771H77.429z M76.959,16.741c-0.077-0.553-0.154-0.889-0.336-1.442l0.35-0.119
		c0.161,0.47,0.253,0.813,0.357,1.422L76.959,16.741z M78.346,16.293c0.168-0.44,0.245-0.735,0.309-1.204l0.356,0.14
		c-0.118,0.54-0.182,0.735-0.35,1.191L78.346,16.293z M79.789,13.261c-0.154,0.435-0.238,0.63-0.441,0.994
		c-0.141-0.126-0.225-0.182-0.371-0.245c0.329-0.504,0.546-1.043,0.665-1.681c0.035-0.168,0.049-0.28,0.049-0.42l0.435,0.098
		c-0.042,0.168-0.042,0.183-0.084,0.371c-0.042,0.189-0.07,0.322-0.126,0.498h0.714c0-0.196,0-0.28,0-0.406
		c0-0.561-0.007-0.722-0.035-0.925h0.49c-0.035,0.196-0.035,0.196-0.042,1.331h0.666c0.364,0,0.553-0.015,0.721-0.042v0.469
		c-0.203-0.028-0.476-0.042-0.707-0.042h-0.687c-0.021,0.645-0.042,0.945-0.084,1.303h0.903c0.309,0,0.561-0.014,0.729-0.042v0.477
		c-0.231-0.028-0.469-0.042-0.722-0.042h-0.84c0.119,0.42,0.301,0.819,0.532,1.176c0.329,0.505,0.707,0.862,1.296,1.212
		c-0.154,0.147-0.211,0.231-0.309,0.413c-0.91-0.644-1.442-1.365-1.765-2.381c-0.329,1.086-0.848,1.744-1.856,2.374
		c-0.084-0.161-0.175-0.266-0.322-0.385c0.54-0.28,0.869-0.532,1.17-0.903c0.343-0.414,0.554-0.876,0.693-1.506h-0.539
		c-0.287,0-0.525,0.014-0.708,0.042v-0.477c0.176,0.028,0.421,0.042,0.701,0.042h0.609c0.049-0.329,0.069-0.7,0.091-1.303H79.789z"
		/>
	<path d="M86.151,14.696c0,0.231,0.007,0.357,0.021,0.512c-0.119-0.015-0.168-0.015-0.203-0.015h-0.153l-0.273-0.007h-1.296
		c-0.063,1.184-0.224,1.8-0.651,2.535c-0.133-0.14-0.224-0.21-0.378-0.287c0.504-0.791,0.623-1.484,0.623-3.544
		c0-0.448-0.007-0.665-0.028-0.889c0.218,0.021,0.406,0.027,0.729,0.027h0.974c0.294,0,0.47-0.007,0.658-0.027
		c-0.014,0.14-0.021,0.322-0.021,0.525V14.696z M83.469,11.818c0.203,0.034,0.378,0.042,0.673,0.042h1.666
		c0.322,0,0.483-0.008,0.651-0.035v0.476c-0.168-0.027-0.336-0.034-0.644-0.034h-1.688c-0.266,0-0.462,0.014-0.658,0.042V11.818z
		 M85.724,14.802v-1.387h-1.456v0.749c0,0.351,0,0.371-0.008,0.638H85.724z M87.216,14.018c-0.042,0.987-0.147,1.632-0.351,2.213
		c-0.21,0.581-0.482,0.994-1.016,1.534c-0.118-0.154-0.21-0.238-0.356-0.337c0.511-0.469,0.763-0.84,0.959-1.38
		c0.238-0.665,0.337-1.555,0.337-3.088c0-0.414-0.008-0.596-0.028-0.813c0.714-0.008,1.989-0.329,2.542-0.645l0.302,0.406
		c-0.105,0.028-0.147,0.042-0.287,0.084c-0.743,0.259-1.247,0.385-2.088,0.519v0.791c0,0.112,0,0.147,0,0.301h1.821
		c0.28,0,0.462-0.014,0.651-0.042v0.498c-0.189-0.028-0.371-0.042-0.63-0.042h-0.245v3.025c0,0.35,0.007,0.511,0.042,0.714h-0.525
		c0.027-0.203,0.042-0.392,0.042-0.729v-3.011H87.216z"/>
	<path d="M92.843,11.692c-0.049,0.133-0.056,0.16-0.111,0.447c-0.05,0.238-0.092,0.406-0.189,0.764
		c0.49-0.042,0.932-0.126,1.254-0.23l0.021,0.482c-0.077,0.015-0.077,0.015-0.245,0.042c-0.287,0.063-0.722,0.119-1.148,0.147
		c-0.217,0.749-0.47,1.4-0.777,2.045c-0.168,0.336-0.231,0.455-0.497,0.918c-0.063,0.098-0.105,0.182-0.141,0.238l-0.476-0.28
		c0.224-0.28,0.413-0.589,0.672-1.093c0.322-0.638,0.525-1.142,0.729-1.807c-0.175,0.007-0.413,0.014-0.519,0.014
		c-0.119,0-0.357-0.007-0.462-0.007c-0.077-0.007-0.133-0.007-0.154-0.007c-0.014,0-0.049,0-0.091,0l0.007-0.483
		c0.238,0.042,0.448,0.056,0.833,0.056c0.141,0,0.372-0.007,0.505-0.007c0.112-0.399,0.224-0.994,0.238-1.316L92.843,11.692z
		 M96.17,17.127c-0.273-0.336-0.715-0.687-1.226-0.952c0.014,0.111,0.014,0.153,0.014,0.224c0,0.722-0.476,1.12-1.33,1.12
		c-0.841,0-1.366-0.392-1.366-1.015c0-0.379,0.259-0.729,0.651-0.89c0.245-0.105,0.512-0.154,0.826-0.154
		c0.26,0,0.435,0.028,0.708,0.105c-0.035-0.456-0.05-0.785-0.05-0.96c0-0.252,0.015-0.42,0.07-0.68l0.477,0.05
		c-0.07,0.259-0.091,0.406-0.091,0.651c0,0.314,0.034,0.798,0.077,1.064c0.56,0.245,0.994,0.511,1.372,0.847
		c0.077,0.077,0.077,0.077,0.126,0.112L96.17,17.127z M93.704,15.873c-0.595,0-0.973,0.245-0.973,0.631
		c0,0.356,0.336,0.574,0.889,0.574c0.603,0,0.876-0.238,0.876-0.764c0-0.084-0.014-0.301-0.014-0.301
		C94.188,15.908,93.984,15.873,93.704,15.873z M96.163,13.968c-0.589-0.406-1.121-0.686-1.856-0.952l0.26-0.393
		c0.813,0.322,1.281,0.561,1.849,0.925L96.163,13.968z"/>
	<path d="M99.682,11.741c0.028,0.469,0.287,1.61,0.525,2.318c0.413-0.176,0.609-0.245,1.695-0.624
		c0.245-0.091,0.308-0.111,0.448-0.188l0.21,0.532c-0.49,0.111-1.492,0.434-2.108,0.679c-1.197,0.483-1.716,0.946-1.716,1.527
		c0,0.63,0.539,0.883,1.912,0.883c0.806,0,1.59-0.092,2.003-0.238l0.057,0.581c-0.134,0-0.134,0-0.519,0.042
		c-0.722,0.07-1.058,0.091-1.548,0.091c-0.693,0-1.219-0.063-1.555-0.188c-0.574-0.211-0.869-0.596-0.869-1.149
		c0-0.448,0.211-0.854,0.624-1.19c0.266-0.217,0.483-0.357,0.917-0.574c-0.196-0.567-0.329-1.058-0.511-1.954
		c-0.063-0.294-0.077-0.336-0.119-0.448L99.682,11.741z M101.818,11.741c0.287,0.371,0.413,0.567,0.651,1.016l-0.371,0.175
		c-0.196-0.406-0.428-0.777-0.645-1.029L101.818,11.741z M102.532,11.446c0.245,0.295,0.406,0.554,0.651,1.016l-0.371,0.176
		c-0.21-0.435-0.406-0.75-0.645-1.03L102.532,11.446z"/>
	<path d="M104.245,17.862c0.588-0.589,0.819-0.91,1.064-1.45c0.252-0.56,0.378-1.142,0.378-1.778c0-0.638-0.126-1.219-0.378-1.779
		c-0.245-0.539-0.477-0.861-1.064-1.45h0.623c0.525,0.603,0.742,0.938,0.974,1.506c0.23,0.561,0.336,1.114,0.336,1.724
		s-0.105,1.162-0.336,1.723c-0.231,0.567-0.448,0.903-0.974,1.506H104.245z"/>
</g>
<g>
	<path d="M43.683,104.436c-0.288,0.711-0.512,1.119-0.871,1.583c-0.104-0.104-0.256-0.208-0.44-0.288
		c0.408-0.472,0.608-0.823,0.872-1.511L43.683,104.436z M43.459,103.972c-0.288,0-0.479,0.008-0.664,0.023
		c0.017-0.176,0.024-0.439,0.024-0.751V99.83c0-0.24-0.008-0.504-0.032-0.752c0.208,0.017,0.479,0.024,0.704,0.024h0.808
		c0.312,0,0.535-0.008,0.703-0.024c-0.016,0.2-0.023,0.399-0.023,0.735v3.471c0,0.319,0.008,0.512,0.023,0.711
		c-0.184-0.016-0.384-0.023-0.688-0.023H43.459z M43.283,100.565h1.231v-1.031h-1.231V100.565z M43.283,102.036h1.231v-1.055h-1.231
		V102.036z M43.283,103.54h1.231v-1.08h-1.231V103.54z M44.586,104.195c0.208,0.536,0.384,0.88,0.68,1.304
		c-0.168,0.08-0.304,0.184-0.424,0.312c-0.319-0.56-0.455-0.84-0.68-1.423L44.586,104.195z M47.744,101.772
		c0.272-0.56,0.4-0.911,0.544-1.519l0.496,0.12c-0.185,0.591-0.328,0.943-0.552,1.398h0.703c0.393,0,0.616-0.008,0.784-0.04v0.521
		c-0.2-0.032-0.408-0.04-0.775-0.04H45.97c-0.36,0-0.56,0.008-0.752,0.04v-0.521c0.176,0.032,0.4,0.04,0.752,0.04H47.744z
		 M48.744,99.694c0.367,0,0.6-0.009,0.775-0.04v0.512c-0.2-0.032-0.399-0.04-0.775-0.04h-2.663c-0.375,0-0.575,0.008-0.768,0.04
		v-0.512c0.192,0.031,0.393,0.04,0.76,0.04h1.04V99.47c0-0.239-0.017-0.447-0.049-0.6h0.601c-0.032,0.192-0.049,0.392-0.049,0.607
		v0.217H48.744z M46.226,105.963h-0.52c0.023-0.185,0.031-0.353,0.031-0.712v-1.663c0-0.376,0-0.488-0.023-0.664
		c0.168,0.017,0.344,0.024,0.632,0.024h2.166c0.28,0,0.456-0.008,0.584-0.024c-0.023,0.176-0.023,0.28-0.023,0.688v1.688
		c0,0.304,0.008,0.487,0.031,0.664h-0.527v-0.472h-2.351V105.963z M46.434,100.245c0.224,0.504,0.312,0.729,0.464,1.279
		l-0.464,0.145c-0.128-0.512-0.225-0.783-0.464-1.287L46.434,100.245z M46.226,105.051h2.358v-1.655h-2.358V105.051z"/>
	<path d="M51.219,102.364c0-0.407,0.008-0.64,0.024-0.967c-0.232,0.439-0.368,0.655-0.72,1.127c-0.112-0.208-0.168-0.288-0.32-0.432
		c0.336-0.384,0.552-0.695,0.784-1.119c0.504-0.896,0.72-1.496,0.831-2.247l0.528,0.144c-0.048,0.136-0.08,0.232-0.16,0.48
		c-0.112,0.383-0.248,0.728-0.472,1.239v4.445c0,0.359,0.008,0.655,0.04,0.943h-0.584c0.032-0.288,0.048-0.544,0.048-0.96V102.364z
		 M54.153,105.195c-0.56,0.415-1.031,0.631-1.854,0.863c-0.08-0.16-0.168-0.264-0.313-0.416c0.504-0.104,0.752-0.184,1.136-0.352
		c0.264-0.12,0.384-0.192,0.647-0.4L54.153,105.195z M54.593,99.422c0-0.304-0.016-0.479-0.048-0.655h0.576
		c-0.04,0.16-0.048,0.344-0.048,0.655v0.408h0.695c0.28-0.313,0.456-0.576,0.64-0.96l0.447,0.185
		c-0.191,0.319-0.327,0.512-0.575,0.775h0.384c0.392,0,0.615-0.008,0.855-0.04c-0.023,0.16-0.023,0.296-0.023,0.504v0.304
		c0,0.231,0.008,0.399,0.023,0.504h-0.496v-0.88h-4.301v0.951h-0.496c0.016-0.176,0.032-0.367,0.032-0.535v-0.313
		c0-0.247-0.009-0.367-0.024-0.512c0.184,0.017,0.304,0.017,0.744,0.017h0.439c-0.136-0.24-0.264-0.4-0.6-0.76l0.439-0.184
		c0.368,0.479,0.52,0.695,0.647,0.943h0.688V99.422z M53.426,104.867c-0.304,0-0.535,0.008-0.712,0.023
		c0.017-0.231,0.032-0.479,0.032-0.735v-1.303c0-0.36-0.008-0.561-0.032-0.736c0.192,0.017,0.4,0.024,0.704,0.024h2.902
		c0.312,0,0.512-0.008,0.712-0.024c-0.024,0.176-0.032,0.336-0.032,0.736v1.311c0,0.4,0.008,0.552,0.032,0.728
		c-0.232-0.016-0.393-0.023-0.688-0.023H53.426z M53.114,100.997c0-0.168-0.008-0.264-0.024-0.399
		c0.16,0.016,0.264,0.016,0.656,0.016h2.246c0.376,0,0.504-0.008,0.656-0.023c-0.024,0.144-0.024,0.256-0.024,0.399v0.392
		c0,0.16,0,0.272,0.024,0.408c-0.168-0.017-0.384-0.024-0.672-0.024h-2.223c-0.296,0-0.496,0.008-0.664,0.024
		c0.017-0.16,0.024-0.256,0.024-0.408V100.997z M53.218,102.933h3.311V102.5h-3.311V102.933z M53.218,103.7h3.311v-0.424h-3.311
		V103.7z M53.218,104.499h3.311v-0.447h-3.311V104.499z M53.554,101.429h2.623v-0.479h-2.623V101.429z M55.769,104.891
		c0.632,0.416,1.071,0.592,1.911,0.76c-0.12,0.136-0.2,0.264-0.288,0.44c-0.911-0.28-1.319-0.464-1.975-0.88L55.769,104.891z"/>
	<path d="M60.818,101.564c-0.328,0-0.528,0.009-0.744,0.04v-0.479c-0.503,0.336-0.863,0.528-1.455,0.775
		c-0.104-0.199-0.151-0.271-0.336-0.472c1.56-0.592,2.719-1.463,3.375-2.534h0.615c0.336,0.52,0.768,0.959,1.432,1.447
		c0.671,0.487,1.271,0.8,2.086,1.071c-0.136,0.168-0.231,0.328-0.319,0.512c-0.624-0.256-0.951-0.432-1.56-0.815v0.495
		c-0.207-0.031-0.399-0.04-0.735-0.04h-0.976v1.088h2.231c0.352,0,0.56-0.016,0.783-0.048v0.56
		c-0.231-0.032-0.456-0.048-0.783-0.048h-2.231v2.11h2.343c0.352,0,0.624-0.016,0.872-0.048v0.576
		c-0.265-0.04-0.552-0.057-0.88-0.057h-5.037c-0.312,0-0.6,0.017-0.911,0.057v-0.576c0.264,0.032,0.543,0.048,0.911,0.048h2.183
		v-2.11h-2.079c-0.304,0-0.552,0.016-0.775,0.048v-0.56c0.224,0.032,0.448,0.048,0.784,0.048h2.07v-1.088H60.818z M60.091,103.364
		c0.296,0.479,0.464,0.839,0.703,1.447l-0.464,0.184c-0.199-0.56-0.399-0.983-0.695-1.424L60.091,103.364z M63.177,101.125
		c0.336,0,0.528-0.008,0.704-0.032c-0.824-0.543-1.399-1.071-1.911-1.751c-0.496,0.696-1.031,1.208-1.839,1.751
		c0.159,0.024,0.367,0.032,0.68,0.032H63.177z M64.336,103.588c-0.367,0.743-0.504,0.976-0.855,1.487l-0.447-0.185
		c0.336-0.439,0.575-0.896,0.799-1.511L64.336,103.588z"/>
</g>
<g>
	<path d="M31.158,114.458c0.111,0.357,0.21,0.505,0.427,0.659c0.238,0.168,0.547,0.252,0.903,0.252c0.813,0,1.324-0.421,1.324-1.086
		c0-0.693-0.497-1.071-1.429-1.071c-0.196,0-0.371,0.014-0.561,0.035V112.7c0.161,0.021,0.329,0.035,0.519,0.035
		c0.462,0,0.806-0.104,1.022-0.322c0.175-0.168,0.28-0.427,0.28-0.679c0-0.603-0.421-0.953-1.128-0.953
		c-0.427,0-0.735,0.119-0.932,0.371c-0.098,0.126-0.146,0.238-0.224,0.505l-0.582-0.134c0.119-0.356,0.203-0.518,0.379-0.7
		c0.308-0.336,0.784-0.511,1.394-0.511c1.016,0,1.66,0.532,1.66,1.372c0,0.428-0.183,0.806-0.49,1.022
		c-0.183,0.134-0.337,0.189-0.659,0.253c0.406,0.042,0.624,0.119,0.862,0.301c0.308,0.238,0.469,0.609,0.469,1.058
		c0,0.945-0.729,1.534-1.897,1.534c-0.708,0-1.233-0.189-1.569-0.575c-0.147-0.168-0.231-0.321-0.357-0.679L31.158,114.458z"/>
	<path d="M37.114,113.358c0-0.343,0.007-0.742,0.028-1.029c-0.203,0.393-0.351,0.631-0.616,0.96
		c-0.084-0.154-0.176-0.295-0.273-0.406c0.512-0.582,0.903-1.275,1.212-2.164c0.126-0.372,0.203-0.666,0.23-0.904l0.483,0.119
		c-0.049,0.105-0.063,0.168-0.119,0.351c-0.104,0.357-0.314,0.903-0.518,1.365v3.74c0,0.421,0.007,0.631,0.027,0.876h-0.497
		c0.035-0.252,0.042-0.463,0.042-0.861V113.358z M38.865,114.634c-0.175,0.623-0.336,0.966-0.665,1.449l-0.371-0.252
		c0.371-0.448,0.518-0.756,0.658-1.323L38.865,114.634z M41.8,110.459c0.329,0,0.512-0.007,0.707-0.035v0.406
		c-0.203-0.021-0.42-0.027-0.707-0.027H41.61c-0.076,0.195-0.188,0.434-0.314,0.665h0.749c0.351,0,0.525-0.007,0.707-0.035v0.428
		c-0.21-0.028-0.363-0.035-0.707-0.035h-3.418c-0.314,0-0.476,0.007-0.687,0.035v-0.428c0.183,0.028,0.351,0.035,0.687,0.035h0.729
		c-0.084-0.245-0.182-0.462-0.301-0.665h-0.084c-0.315,0-0.49,0.007-0.693,0.027v-0.406c0.182,0.028,0.378,0.035,0.693,0.035h1.1
		v-0.112c0-0.195-0.008-0.329-0.035-0.455h0.511c-0.027,0.141-0.035,0.252-0.035,0.463v0.104H41.8z M39.117,114.192
		c-0.35,0-0.518,0.007-0.714,0.028c0.021-0.238,0.027-0.33,0.027-0.708v-0.658c0-0.301-0.007-0.448-0.027-0.616
		c0.182,0.021,0.322,0.028,0.687,0.028h2.43c0.357,0,0.49-0.008,0.687-0.028c-0.021,0.154-0.028,0.322-0.028,0.616v0.658
		c0,0.371,0.008,0.497,0.028,0.708c-0.189-0.021-0.357-0.028-0.722-0.028H39.117z M38.845,113.051h2.913v-0.448h-2.913V113.051z
		 M38.845,113.856h2.913v-0.477h-2.913V113.856z M39.699,114.438c-0.035,0.161-0.042,0.266-0.042,0.525v0.623
		c0,0.168,0.091,0.196,0.742,0.196c0.497,0,0.742-0.028,0.806-0.105c0.063-0.069,0.084-0.224,0.091-0.574
		c0.126,0.063,0.23,0.091,0.385,0.119c-0.035,0.477-0.091,0.673-0.217,0.771c-0.126,0.105-0.483,0.147-1.19,0.147
		c-0.834,0-1.03-0.084-1.03-0.441v-0.729c0-0.217-0.014-0.357-0.042-0.532H39.699z M40.854,111.468
		c0.126-0.231,0.224-0.441,0.301-0.665H39.51c0.084,0.168,0.182,0.406,0.287,0.665H40.854z M40.189,114.29
		c0.371,0.287,0.588,0.477,0.847,0.764l-0.308,0.267c-0.26-0.33-0.47-0.54-0.813-0.806L40.189,114.29z M41.912,114.479
		c0.413,0.497,0.616,0.784,0.91,1.31l-0.364,0.245c-0.287-0.588-0.49-0.903-0.875-1.352L41.912,114.479z"/>
	<path d="M48.315,111.545c-0.091-0.225-0.14-0.322-0.245-0.441c-0.21-0.231-0.483-0.351-0.833-0.351
		c-0.547,0-0.96,0.295-1.212,0.869c-0.182,0.42-0.245,0.742-0.294,1.506c0.126-0.218,0.196-0.315,0.35-0.448
		c0.33-0.294,0.701-0.428,1.185-0.428c1.085,0,1.758,0.673,1.758,1.751c0,1.086-0.729,1.8-1.835,1.8
		c-0.498,0-0.967-0.161-1.269-0.44c-0.455-0.421-0.707-1.205-0.707-2.199c0-0.876,0.196-1.66,0.532-2.115
		c0.371-0.505,0.869-0.764,1.478-0.764c0.421,0,0.799,0.105,1.065,0.294c0.245,0.175,0.385,0.364,0.588,0.784L48.315,111.545z
		 M47.188,112.722c-0.351,0-0.722,0.154-0.967,0.399c-0.231,0.23-0.351,0.539-0.351,0.889c0,0.757,0.567,1.317,1.324,1.317
		c0.455,0,0.875-0.218,1.093-0.567c0.111-0.183,0.182-0.47,0.182-0.742C48.47,113.19,48.008,112.722,47.188,112.722z"/>
	<path d="M49.615,113.849c0.147-0.168,0.309-0.364,0.455-0.539l1.772-2.213c0.238-0.294,0.364-0.47,0.525-0.715h0.525
		c-0.035,0.413-0.042,0.631-0.042,1.184v2.298h0.266c0.294,0,0.477-0.015,0.729-0.049v0.581c-0.259-0.035-0.435-0.049-0.735-0.049
		h-0.259v0.602c0,0.337,0.014,0.498,0.056,0.757H52.27c0.043-0.245,0.057-0.441,0.057-0.757v-0.602h-1.877
		c-0.393,0-0.603,0.007-0.834,0.027V113.849z M52.333,112.091c0-0.371,0.007-0.595,0.042-0.952c-0.147,0.21-0.322,0.441-0.525,0.7
		l-1.61,2.031h2.094V112.091z"/>
	<path d="M55.258,112.413c-0.014,0.126-0.014,0.126-0.056,0.315c0.336-0.322,0.742-0.483,1.226-0.483
		c0.512,0,0.945,0.168,1.261,0.477c0.315,0.301,0.469,0.714,0.469,1.232c0,1.128-0.735,1.849-1.891,1.849
		c-0.546,0-1.002-0.161-1.338-0.476c-0.175-0.176-0.273-0.322-0.441-0.658l0.574-0.169c0.07,0.196,0.119,0.287,0.225,0.406
		c0.238,0.267,0.588,0.414,0.994,0.414c0.785,0,1.31-0.533,1.31-1.338c0-0.771-0.482-1.275-1.226-1.275
		c-0.356,0-0.665,0.099-0.917,0.295c-0.168,0.133-0.245,0.23-0.322,0.42l-0.525-0.049c0.056-0.273,0.077-0.421,0.105-0.722
		l0.153-1.583c0.015-0.203,0.021-0.287,0.021-0.42c0-0.099,0-0.126-0.014-0.302c0.217,0.028,0.329,0.035,0.742,0.035h1.442
		c0.379,0,0.539-0.014,0.819-0.056v0.596c-0.266-0.042-0.49-0.057-0.819-0.057h-1.646L55.258,112.413z"/>
	<path d="M59.64,115.313c-0.189-0.188-0.336-0.406-0.42-0.644c-0.176-0.49-0.267-1.044-0.267-1.618c0-0.742,0.161-1.499,0.406-1.905
		c0.336-0.567,0.876-0.861,1.569-0.861c0.518,0,0.966,0.168,1.281,0.497c0.196,0.196,0.336,0.413,0.42,0.645
		c0.176,0.483,0.267,1.044,0.267,1.625c0,0.848-0.183,1.597-0.49,2.024c-0.351,0.49-0.841,0.735-1.485,0.735
		C60.403,115.811,59.969,115.642,59.64,115.313z M60.046,111.125c-0.147,0.161-0.259,0.336-0.315,0.511
		c-0.146,0.428-0.217,0.903-0.217,1.415c0,0.651,0.14,1.338,0.329,1.667c0.245,0.406,0.609,0.609,1.086,0.609
		c0.35,0,0.651-0.112,0.861-0.329c0.153-0.161,0.266-0.344,0.329-0.547c0.146-0.434,0.217-0.896,0.217-1.415
		c0-0.608-0.133-1.302-0.315-1.632c-0.23-0.42-0.609-0.637-1.1-0.637C60.557,110.768,60.27,110.887,60.046,111.125z"/>
	<path d="M66.143,110.81c-0.295,0-0.525,0.014-0.75,0.042v-0.512c0.218,0.028,0.441,0.042,0.75,0.042h4.706
		c0.302,0,0.519-0.014,0.75-0.042v0.512c-0.211-0.028-0.456-0.042-0.75-0.042h-2.836c-0.042,0.925-0.042,0.925-0.099,1.365h2.122
		c0.421,0,0.638-0.007,0.813-0.035c-0.021,0.127-0.027,0.253-0.042,0.547c-0.056,1.38-0.168,2.346-0.336,2.829
		c-0.154,0.448-0.386,0.582-1.016,0.582c-0.252,0-0.567-0.028-1.078-0.084c-0.015-0.203-0.05-0.337-0.112-0.505
		c0.561,0.105,0.903,0.147,1.226,0.147c0.406,0,0.497-0.084,0.603-0.574c0.133-0.645,0.217-1.521,0.245-2.486h-2.479
		c-0.161,0.924-0.428,1.632-0.876,2.318c-0.322,0.482-0.665,0.833-1.295,1.33c-0.127-0.175-0.225-0.266-0.379-0.371
		c0.925-0.658,1.394-1.226,1.758-2.15c0.302-0.749,0.435-1.597,0.463-2.913H66.143z"/>
	<path d="M73.198,115.46c0,0.441,0.007,0.581,0.035,0.742h-0.546c0.027-0.188,0.042-0.392,0.042-0.764v-4.503
		c0-0.267-0.008-0.435-0.028-0.623c0.182,0.021,0.357,0.027,0.645,0.027h4.272c0.301,0,0.476-0.007,0.644-0.027
		c-0.021,0.195-0.027,0.35-0.027,0.644v4.595c0,0.421-0.154,0.519-0.834,0.519c-0.28,0-0.665-0.014-1.001-0.042
		c-0.021-0.175-0.05-0.287-0.112-0.455c0.49,0.056,0.833,0.084,1.106,0.084c0.309,0,0.371-0.028,0.371-0.161v-2.179h-4.566V115.46z
		 M75.194,110.768h-1.996v2.129h1.996V110.768z M77.765,112.896v-2.129h-2.115v2.129H77.765z"/>
</g>
<g>
	<path d="M20.051,38.369c-0.295,0-0.543,0.016-0.695,0.032v-0.48c0.168,0.032,0.4,0.048,0.704,0.048h0.888V37.05h-0.624
		c-0.328,0-0.488,0.008-0.647,0.032V36.61c0.144,0.031,0.327,0.039,0.655,0.039h0.616v-0.295c0-0.24-0.017-0.416-0.049-0.584h0.561
		c-0.04,0.151-0.049,0.304-0.049,0.592v0.287h0.424c0.248,0,0.408-0.008,0.52-0.031v0.455c-0.136-0.016-0.304-0.023-0.495-0.023
		H21.41v0.919h0.265c0.615-0.615,1.143-1.343,1.319-1.839l0.479,0.232c-0.656,0.967-0.768,1.119-1.224,1.606h0.312
		c0.265,0,0.416-0.008,0.536-0.031v0.464c-0.144-0.024-0.304-0.032-0.536-0.032h-0.703c-0.296,0.279-0.584,0.535-0.936,0.8h0.88
		c0.352,0,0.447-0.009,0.575-0.032l0.264,0.279l-0.032,0.032c-0.048,0.048-0.048,0.048-0.151,0.16
		c-0.264,0.288-0.487,0.495-0.855,0.775v0.288c0.575-0.072,0.8-0.104,1.447-0.232v0.448c-0.664,0.12-0.92,0.16-1.447,0.231v1.208
		c0,0.439-0.144,0.535-0.76,0.535c-0.191,0-0.424-0.008-0.672-0.032c-0.008-0.199-0.031-0.304-0.088-0.495
		c0.328,0.048,0.592,0.071,0.848,0.071c0.16,0,0.2-0.031,0.2-0.167v-1.063c-0.432,0.04-0.56,0.056-1.352,0.119
		c-0.168,0.009-0.248,0.024-0.392,0.048l-0.08-0.512c0.088,0.009,0.176,0.009,0.256,0.009c0.28,0,0.999-0.048,1.567-0.112V40.68
		c0-0.304-0.008-0.424-0.032-0.536h0.192c0.304-0.224,0.432-0.344,0.647-0.592h-1.56c-0.319,0.208-0.487,0.305-0.871,0.512
		c-0.112-0.167-0.176-0.239-0.32-0.359c0.8-0.392,1.439-0.808,2.063-1.335H20.051z M26.424,37.682
		c-0.176-0.032-0.271-0.04-0.552-0.048c-0.063,0.728-0.136,1.111-0.28,1.631c-0.168,0.592-0.375,1.079-0.671,1.566
		c0.432,0.696,0.951,1.231,1.679,1.703c-0.176,0.145-0.264,0.248-0.384,0.456c-0.695-0.535-1.127-0.999-1.583-1.727
		c-0.488,0.655-1.023,1.119-1.951,1.719c-0.12-0.2-0.216-0.312-0.376-0.439c0.992-0.536,1.56-1.023,2.063-1.751
		c-0.313-0.608-0.592-1.424-0.712-2.071c-0.184,0.344-0.319,0.567-0.584,0.92c-0.104-0.145-0.168-0.2-0.359-0.345
		c0.544-0.655,0.911-1.446,1.184-2.574c0.12-0.479,0.168-0.752,0.184-1.008l0.544,0.12c-0.032,0.104-0.032,0.104-0.096,0.344
		c-0.072,0.288-0.2,0.784-0.272,1.023h1.407c0.376,0,0.544-0.008,0.76-0.048V37.682z M24.113,37.634
		c-0.072,0.207-0.088,0.247-0.16,0.432c0.152,0.903,0.352,1.551,0.703,2.263c0.433-0.792,0.648-1.6,0.736-2.694H24.113z"/>
	<path d="M30.466,36.29c0-0.24-0.016-0.392-0.048-0.584h0.6c-0.032,0.176-0.048,0.353-0.048,0.584v0.191h2.591
		c0.367,0,0.6-0.016,0.823-0.048v0.528c-0.264-0.032-0.504-0.04-0.8-0.04h-3.366c-0.224,0.376-0.455,0.712-0.688,0.999
		c1.079-0.023,1.855-0.063,2.999-0.151c-0.296-0.2-0.448-0.288-0.864-0.504l0.4-0.264c0.847,0.479,1.351,0.815,2.078,1.399
		l-0.367,0.367c-0.344-0.312-0.472-0.424-0.752-0.632c-1.495,0.152-3.166,0.24-5.021,0.272c-0.119,0-0.256,0.008-0.359,0.023
		l-0.096-0.527c0.287,0.023,0.439,0.032,0.896,0.032c0.159,0,0.248,0,0.52-0.009c0.264-0.304,0.496-0.647,0.695-1.007h-1.551
		c-0.313,0-0.56,0.016-0.808,0.04v-0.528c0.224,0.032,0.456,0.048,0.823,0.048h2.343V36.29z M28.891,41.479v0.64
		c0,0.399,0.008,0.647,0.04,0.879h-0.584c0.032-0.279,0.049-0.543,0.049-0.911v-2.495c0-0.319-0.009-0.535-0.04-0.768
		c0.199,0.024,0.479,0.032,0.927,0.032H32.4c0.456,0,0.656-0.008,0.864-0.032c-0.024,0.208-0.032,0.44-0.032,0.84v2.599
		c0,0.479-0.191,0.632-0.8,0.632c-0.056,0-0.376-0.008-0.951-0.032c-0.016-0.184-0.048-0.304-0.12-0.479
		c0.416,0.048,0.712,0.072,1.023,0.072c0.304,0,0.352-0.032,0.352-0.232v-0.743H28.891z M32.736,39.288h-3.846v0.656h3.846V39.288z
		 M28.891,40.368v0.688h3.846v-0.688H28.891z"/>
	<path d="M36.915,36.514c0-0.327-0.017-0.527-0.048-0.695h0.575c-0.023,0.191-0.04,0.424-0.04,0.695v0.048h2.814v-0.048
		c0-0.319-0.016-0.527-0.048-0.695h0.576c-0.032,0.191-0.04,0.416-0.04,0.695v0.048h0.735c0.352,0,0.592-0.016,0.808-0.048v0.52
		c-0.256-0.023-0.504-0.04-0.808-0.04h-0.735v2.567h0.879c0.328,0,0.592-0.017,0.815-0.048v0.52
		c-0.231-0.032-0.479-0.048-0.799-0.048h-1.208c0.552,0.527,1.199,0.847,2.231,1.103c-0.137,0.185-0.192,0.288-0.28,0.488
		c-1.199-0.399-1.871-0.823-2.559-1.591h-1.975c-0.607,0.759-1.304,1.215-2.463,1.623c-0.088-0.232-0.128-0.288-0.28-0.48
		c0.952-0.224,1.703-0.623,2.151-1.143h-1.168c-0.327,0-0.575,0.016-0.799,0.048v-0.52c0.216,0.031,0.464,0.048,0.791,0.048h0.872
		v-2.567h-0.6c-0.304,0-0.56,0.017-0.808,0.04v-0.52c0.208,0.032,0.455,0.048,0.808,0.048h0.6V36.514z M38.521,40.903
		c0-0.296-0.016-0.455-0.039-0.64h0.551c-0.031,0.185-0.039,0.336-0.039,0.64v0.072h1.143c0.336,0,0.488-0.008,0.696-0.032v0.496
		c-0.2-0.024-0.376-0.032-0.696-0.032h-1.143v0.888h2.19c0.407,0,0.624-0.008,0.84-0.04v0.527c-0.248-0.031-0.512-0.048-0.856-0.048
		h-4.597c-0.353,0-0.624,0.017-0.872,0.048v-0.527c0.185,0.023,0.432,0.04,0.855,0.04h1.967v-0.888h-0.983
		c-0.312,0-0.479,0.008-0.695,0.032v-0.496c0.192,0.024,0.376,0.032,0.695,0.032h0.983V40.903z M40.217,37.569v-0.576h-2.814v0.576
		H40.217z M40.217,38.553v-0.567h-2.814v0.567H40.217z M40.217,39.561v-0.592h-2.814v0.592H40.217z"/>
	<path d="M45.643,38.568c-0.328,0-0.528,0.009-0.744,0.04v-0.479c-0.503,0.336-0.863,0.528-1.455,0.775
		c-0.104-0.199-0.151-0.271-0.336-0.472c1.56-0.592,2.719-1.463,3.375-2.534h0.615c0.336,0.52,0.768,0.959,1.432,1.447
		c0.671,0.487,1.271,0.8,2.086,1.071c-0.136,0.168-0.231,0.328-0.319,0.512c-0.624-0.256-0.951-0.432-1.56-0.815v0.495
		c-0.207-0.031-0.399-0.04-0.735-0.04h-0.976v1.088h2.231c0.352,0,0.56-0.016,0.783-0.048v0.56
		c-0.231-0.032-0.456-0.048-0.783-0.048h-2.231v2.11h2.343c0.352,0,0.624-0.016,0.872-0.048v0.576
		c-0.265-0.04-0.552-0.057-0.88-0.057h-5.037c-0.312,0-0.6,0.017-0.911,0.057v-0.576c0.264,0.032,0.543,0.048,0.911,0.048h2.183
		v-2.11h-2.079c-0.304,0-0.552,0.016-0.775,0.048v-0.56c0.224,0.032,0.448,0.048,0.784,0.048h2.07v-1.088H45.643z M44.915,40.368
		c0.296,0.479,0.464,0.839,0.703,1.447l-0.464,0.184c-0.199-0.56-0.399-0.983-0.695-1.424L44.915,40.368z M48.001,38.129
		c0.336,0,0.528-0.008,0.704-0.032c-0.824-0.543-1.399-1.071-1.911-1.751c-0.496,0.696-1.031,1.208-1.839,1.751
		c0.159,0.024,0.367,0.032,0.68,0.032H48.001z M49.16,40.592c-0.367,0.743-0.504,0.976-0.855,1.487l-0.447-0.185
		c0.336-0.439,0.575-0.896,0.799-1.511L49.16,40.592z"/>
</g>
<g>
	<path d="M8.396,21.43c0.752-0.991,1.327-1.975,1.511-2.591l0.584,0.216c-0.023,0.049-0.023,0.049-0.088,0.168
		c-0.456,0.832-0.928,1.567-1.399,2.191c2.135-0.064,2.312-0.072,3.662-0.2c-0.544-0.592-0.72-0.76-1.312-1.231l0.44-0.279
		c0.927,0.815,1.431,1.335,2.335,2.406l-0.448,0.352c-0.312-0.424-0.416-0.552-0.655-0.839c-1.096,0.119-1.472,0.151-2.831,0.231
		c-0.783,0.048-1.191,0.064-1.823,0.08c-0.191,0.008-0.415,0.016-0.663,0.024c-0.112,0-0.128,0.008-0.376,0.031l-0.111-0.592
		c0.184,0.024,0.392,0.04,0.615,0.04l0.191-0.008H8.396z M8.076,26.02c0.031-0.264,0.048-0.496,0.048-0.744v-1.911
		c0-0.231-0.017-0.432-0.04-0.639c0.176,0.023,0.344,0.031,0.632,0.031h3.861c0.288,0,0.448-0.008,0.632-0.031
		c-0.032,0.207-0.04,0.375-0.04,0.639v1.911c0,0.272,0.016,0.504,0.048,0.744h-0.56v-0.488h-4.03v0.488H8.076z M8.627,25.06h4.03
		v-1.831h-4.03V25.06z"/>
	<path d="M15.244,20.862c0.52,0.319,0.848,0.567,1.264,0.959l-0.296,0.416c-0.472-0.479-0.72-0.672-1.256-0.999L15.244,20.862z
		 M16.699,23.469c-0.359,0.936-0.567,1.359-0.928,1.959c-0.199,0.336-0.199,0.336-0.231,0.376c-0.056,0.088-0.056,0.088-0.096,0.151
		l-0.44-0.424c0.152-0.144,0.185-0.184,0.344-0.415c0.296-0.424,0.648-1.144,0.968-1.983L16.699,23.469z M15.636,18.919
		c0.496,0.344,0.824,0.624,1.216,1.04l-0.328,0.384c-0.439-0.496-0.695-0.736-1.207-1.08L15.636,18.919z M17.971,20.374
		c-0.32,0.584-0.56,0.888-1.039,1.296c-0.112-0.152-0.192-0.224-0.353-0.313c0.496-0.359,0.736-0.64,0.992-1.183L17.971,20.374z
		 M17.531,24.517c-0.048,0.144-0.072,0.216-0.16,0.439l-0.52-0.064c0.319-0.703,0.52-1.391,0.56-1.887
		c0.16,0.016,0.416,0.024,0.76,0.024h2.91v-0.608h-3.046c-0.313,0-0.536,0.009-0.776,0.04v-0.495c0.192,0.031,0.376,0.04,0.776,0.04
		h2.798c0.592-0.009,0.592-0.009,0.735-0.024c-0.016,0.16-0.023,0.288-0.023,0.496v0.472c0,0.279,0.008,0.399,0.016,0.52
		c-0.239-0.016-0.424-0.024-0.735-0.024h-2.99c-0.08,0.336-0.112,0.432-0.168,0.64h3.59c0.312,0,0.52-0.008,0.664-0.031
		c-0.024,0.128-0.032,0.184-0.048,0.375c-0.04,0.384-0.152,0.896-0.232,1.104c-0.144,0.376-0.359,0.472-0.999,0.472
		c-0.272,0-0.632-0.016-0.952-0.056c-0.031-0.2-0.056-0.312-0.128-0.496c0.432,0.072,0.776,0.104,1.12,0.104
		c0.304,0,0.415-0.04,0.487-0.176c0.088-0.185,0.144-0.408,0.192-0.863H17.531z M19.186,19.415c0-0.304-0.008-0.424-0.048-0.616
		h0.576c-0.04,0.185-0.048,0.305-0.048,0.616v0.111h1.646c0.4,0,0.64-0.016,0.855-0.048v0.496c-0.231-0.032-0.472-0.04-0.847-0.04
		h-0.944v1.256c0,0.367-0.159,0.479-0.655,0.479c-0.144,0-0.304-0.008-0.512-0.024c-0.024-0.191-0.048-0.304-0.096-0.447
		c0.224,0.048,0.367,0.063,0.592,0.063c0.159,0,0.208-0.04,0.208-0.184v-1.144h-0.832c-0.032,0.527-0.12,0.848-0.319,1.167
		c-0.2,0.313-0.464,0.512-1,0.744c-0.088-0.12-0.088-0.12-0.352-0.336c0.88-0.304,1.175-0.688,1.215-1.575h-0.759
		c-0.393,0-0.616,0.008-0.84,0.04v-0.496c0.216,0.032,0.456,0.048,0.855,0.048h1.303V19.415z M21.089,20.175
		c0.448,0.399,0.672,0.647,1.048,1.159l-0.393,0.328c-0.312-0.544-0.535-0.808-1.015-1.224L21.089,20.175z"/>
	<path d="M23.053,22.31c0.111,0.016,0.184,0.023,0.319,0.023c0.088,0,0.136,0,0.32-0.008c0.287-0.359,0.479-0.615,0.575-0.752
		c-0.432-0.543-0.815-0.943-1.215-1.295l0.295-0.367c0.185,0.176,0.248,0.239,0.385,0.375c0.415-0.663,0.671-1.199,0.743-1.511
		l0.496,0.216c-0.057,0.088-0.097,0.144-0.168,0.296c-0.28,0.552-0.472,0.888-0.768,1.319c0.224,0.239,0.296,0.328,0.495,0.567
		c0.656-1.023,0.696-1.096,0.815-1.439l0.464,0.272c-0.088,0.111-0.088,0.111-0.504,0.76c-0.279,0.439-0.751,1.103-1.095,1.535
		c0.52-0.032,0.863-0.064,1.271-0.12c-0.128-0.296-0.168-0.384-0.328-0.688l0.368-0.16c0.335,0.68,0.455,0.959,0.647,1.551
		l-0.392,0.192c-0.064-0.248-0.089-0.32-0.152-0.504c-0.296,0.048-0.432,0.063-0.728,0.096v2.615c0,0.344,0.016,0.56,0.048,0.799
		h-0.576c0.032-0.248,0.049-0.479,0.049-0.799v-2.575c-0.36,0.032-0.36,0.032-0.992,0.08c-0.104,0-0.191,0.016-0.296,0.04
		L23.053,22.31z M23.988,23.301c-0.049,0.575-0.08,0.8-0.2,1.407c-0.072,0.384-0.104,0.512-0.224,0.863l-0.448-0.208
		c0.256-0.631,0.368-1.183,0.424-2.166L23.988,23.301z M25.659,23.141c0.176,0.528,0.279,0.943,0.407,1.688l-0.439,0.151
		c-0.096-0.768-0.16-1.095-0.359-1.703L25.659,23.141z M29.137,23.364c0.344,0,0.544-0.016,0.736-0.048v0.528
		c-0.217-0.024-0.424-0.032-0.736-0.032h-0.903v1.479h1.231c0.399,0,0.6-0.008,0.791-0.04v0.527
		c-0.231-0.032-0.463-0.048-0.791-0.048h-2.822c-0.32,0-0.56,0.016-0.792,0.048v-0.527c0.232,0.032,0.44,0.04,0.752,0.04h1.144
		v-1.479h-0.704c-0.312,0-0.527,0.008-0.743,0.032v-0.528c0.191,0.04,0.375,0.048,0.743,0.048h0.704v-0.295
		c0-0.424-0.017-0.656-0.049-0.832h0.584c-0.032,0.184-0.048,0.416-0.048,0.832v0.295H29.137z M29.856,19.495
		c-0.112,0.151-0.112,0.151-0.416,0.615c-0.231,0.36-0.615,0.792-1.023,1.151c0.608,0.416,1.128,0.647,1.919,0.855
		c-0.128,0.16-0.176,0.248-0.264,0.496c-0.815-0.28-1.423-0.592-2.022-1.048c-0.496,0.368-0.96,0.632-1.695,0.943
		c-0.096-0.216-0.176-0.335-0.28-0.447c0.704-0.248,1.111-0.448,1.607-0.8c-0.527-0.479-0.855-0.919-1.199-1.606
		c-0.24,0-0.392,0.016-0.576,0.039v-0.512c0.177,0.032,0.393,0.04,0.784,0.04h2.255c0.319,0,0.479-0.008,0.615-0.031L29.856,19.495z
		 M26.97,19.655c0.305,0.583,0.568,0.903,1.072,1.335c0.479-0.408,0.751-0.72,1.143-1.335H26.97z"/>
	<path d="M37.385,20.982c0.448,0,0.576,0,0.768-0.024c-0.04,0.176-0.04,0.184-0.072,0.384c-0.063,0.408-0.104,0.552-0.184,0.647
		s-0.216,0.145-0.408,0.145c-0.056,0-0.119,0-0.207-0.009c-0.009,0.2-0.017,0.448-0.017,0.736v1.287
		c0,0.407,0.008,0.632,0.032,0.823c-0.208-0.023-0.512-0.032-0.896-0.032h-3.398c-0.376,0-0.68,0.009-0.888,0.032
		c0.024-0.168,0.032-0.432,0.032-0.808V22.39c-0.271,0.119-0.439,0.176-0.888,0.304c-0.063-0.16-0.128-0.272-0.256-0.408
		c1.136-0.239,1.68-0.479,2.096-0.936h-1.023c-0.305,0-0.504,0.008-0.712,0.024c0.224-0.432,0.336-0.744,0.447-1.256
		c0.177,0.017,0.36,0.024,0.728,0.024h1.032c0.023-0.176,0.031-0.256,0.04-0.432H32.22c-0.328,0-0.56,0.008-0.792,0.04v-0.464
		c0.2,0.032,0.393,0.04,0.792,0.04h1.407c0-0.248-0.008-0.336-0.04-0.544h0.52c-0.008,0.072-0.016,0.256-0.032,0.544h1.271v-0.088
		c0-0.192-0.008-0.296-0.04-0.464h0.528c-0.032,0.168-0.04,0.271-0.04,0.472v0.08h1.151c0.367,0,0.583-0.008,0.76-0.04
		c-0.024,0.16-0.032,0.279-0.032,0.52v0.271c0,0.265,0,0.32,0.023,0.448c-0.231-0.016-0.455-0.024-0.759-0.024h-1.144v0.48H37.385z
		 M33.827,25.308c-0.832,0.464-1.312,0.64-2.383,0.863c-0.088-0.191-0.16-0.312-0.288-0.447c0.983-0.136,1.567-0.313,2.303-0.712
		L33.827,25.308z M32.204,20.502c-0.089,0.265-0.12,0.344-0.177,0.48h1.319c0.08-0.185,0.112-0.272,0.16-0.48H32.204z
		 M32.627,22.869h4.15v-0.472h-4.15V22.869z M32.627,23.709h4.15v-0.472h-4.15V23.709z M32.627,24.556h4.15v-0.479h-4.15V24.556z
		 M36.945,22.014c-0.024-0.145-0.04-0.216-0.08-0.336c0.224,0.072,0.376,0.104,0.496,0.104c0.184,0,0.199-0.016,0.256-0.432h-1.823
		v0.072c0,0.184,0.008,0.304,0.04,0.439h-0.528c0.032-0.136,0.04-0.256,0.04-0.432v-0.08h-1.719
		c-0.208,0.304-0.416,0.488-0.728,0.664h3.558H36.945z M33.963,20.502c-0.04,0.208-0.064,0.288-0.145,0.48h1.527v-0.48H33.963z
		 M34.059,19.711c-0.023,0.264-0.023,0.271-0.04,0.432h1.327v-0.432H34.059z M35.914,25.02c0.472,0.256,0.703,0.344,1.175,0.472
		c0.408,0.112,0.672,0.16,1.199,0.216c-0.151,0.185-0.191,0.248-0.304,0.456c-0.487-0.088-0.728-0.144-1.184-0.296
		c-0.535-0.176-0.775-0.279-1.263-0.56L35.914,25.02z M35.794,20.143h1.407v-0.432h-1.407V20.143z"/>
</g>
<g>
	<path d="M1.393,4.558c-0.392,0-0.64,0.016-0.888,0.048V4.069C0.777,4.109,0.993,4.117,1.4,4.117h4.398
		c0.423,0,0.631-0.008,0.903-0.048v0.536C6.446,4.573,6.206,4.558,5.814,4.558H3.791v0.735h1.775c0.384,0,0.56-0.008,0.783-0.04
		v0.52c-0.216-0.031-0.415-0.04-0.768-0.04H3.791v0.832h2.375c0.424,0,0.672-0.017,0.928-0.048v0.552
		C6.83,7.028,6.582,7.012,6.15,7.012H1.057c-0.432,0-0.671,0.017-0.943,0.057V6.517c0.272,0.031,0.52,0.048,0.928,0.048h2.263V5.732
		H1.641c-0.359,0-0.56,0.009-0.775,0.04v-0.52c0.224,0.032,0.407,0.04,0.791,0.04h1.647V4.558H1.393z M2.976,0.783
		C3.104,0.544,3.191,0.304,3.248,0.04l0.575,0.096C3.768,0.256,3.6,0.6,3.504,0.783h1.902c0.384,0,0.608-0.008,0.815-0.032
		C6.198,0.943,6.19,1.087,6.19,1.423v1.352c0,0.319,0.008,0.496,0.031,0.72C6.055,3.478,5.774,3.47,5.431,3.47H1.769
		c-0.312,0-0.607,0.008-0.792,0.024c0.024-0.224,0.032-0.392,0.032-0.712V1.527c0-0.36-0.008-0.56-0.032-0.776
		C1.145,0.775,1.4,0.783,1.784,0.783H2.976z M1.505,1.895h4.189v-0.68H1.505V1.895z M1.505,3.054h4.189V2.318H1.505V3.054z"/>
	<path d="M13.486,4.934c0.432,0,0.6-0.009,0.848-0.04v0.527c-0.231-0.032-0.447-0.04-0.848-0.04h-1.695v1.128h2.352
		c0.487,0,0.751-0.017,0.999-0.057v0.56c-0.288-0.031-0.56-0.048-1.031-0.048H9.121c-0.472,0-0.735,0.017-1.031,0.048v-0.56
		c0.247,0.04,0.52,0.057,1.007,0.057h2.191V5.381H9.753c-0.416,0-0.624,0.008-0.855,0.04V4.894c0.239,0.031,0.407,0.04,0.855,0.04
		h1.535v-0.12c0-0.232-0.017-0.424-0.048-0.632h0.6c-0.032,0.208-0.049,0.384-0.049,0.632v0.12H13.486z M11.264,0.552
		c0-0.184-0.016-0.36-0.048-0.544h0.615c-0.031,0.168-0.048,0.344-0.048,0.544V0.76h2.087c0.544,0,0.792-0.009,1.063-0.032
		c-0.023,0.184-0.032,0.288-0.032,0.567v0.4c0,0.231,0.009,0.384,0.032,0.543h-0.527V1.207H8.809v1.031H8.281l0.008-0.096
		c0.017-0.151,0.024-0.256,0.024-0.456V1.263c0-0.207-0.008-0.327-0.032-0.535C8.529,0.751,8.777,0.76,9.272,0.76h1.991V0.552z
		 M10.08,2.431c-0.487,0-0.711,0.008-0.936,0.04V1.959c0.232,0.032,0.424,0.04,0.912,0.04h3.102c0.496,0,0.672-0.008,0.92-0.04
		v0.512c-0.248-0.032-0.432-0.04-0.911-0.04h-2.056c-0.231,0.464-0.399,0.76-0.647,1.111c0.888-0.024,1.56-0.064,2.655-0.144
		c-0.296-0.256-0.4-0.336-0.736-0.576l0.384-0.248c0.688,0.504,0.992,0.76,1.695,1.432l-0.384,0.327
		c-0.264-0.295-0.359-0.392-0.552-0.567c-1.423,0.12-3.063,0.216-4.55,0.272C8.841,4.046,8.801,4.046,8.673,4.069l-0.08-0.512
		c0.192,0.017,0.288,0.024,0.496,0.024c0.256,0,0.448-0.008,0.832-0.017c0.264-0.383,0.447-0.695,0.655-1.135H10.08z"/>
	<path d="M22.334,2.207c0.448,0,0.576,0,0.768-0.024c-0.04,0.176-0.04,0.184-0.072,0.384c-0.063,0.408-0.104,0.552-0.184,0.647
		s-0.216,0.145-0.408,0.145c-0.056,0-0.119,0-0.207-0.009c-0.009,0.2-0.017,0.448-0.017,0.736v1.287
		c0,0.407,0.008,0.632,0.032,0.823c-0.208-0.023-0.512-0.032-0.896-0.032h-3.398c-0.376,0-0.68,0.009-0.888,0.032
		c0.024-0.168,0.032-0.432,0.032-0.808V3.614c-0.271,0.119-0.439,0.176-0.888,0.304c-0.063-0.16-0.128-0.272-0.256-0.408
		c1.136-0.239,1.68-0.479,2.096-0.936h-1.023c-0.305,0-0.504,0.008-0.712,0.024c0.224-0.432,0.336-0.744,0.447-1.256
		c0.177,0.017,0.36,0.024,0.728,0.024h1.032c0.023-0.176,0.031-0.256,0.04-0.432h-1.392c-0.328,0-0.56,0.008-0.792,0.04V0.512
		c0.2,0.032,0.393,0.04,0.792,0.04h1.407c0-0.248-0.008-0.336-0.04-0.544h0.52c-0.008,0.072-0.016,0.256-0.032,0.544h1.271V0.464
		c0-0.192-0.008-0.296-0.04-0.464h0.528c-0.032,0.168-0.04,0.271-0.04,0.472v0.08h1.151c0.367,0,0.583-0.008,0.76-0.04
		c-0.024,0.16-0.032,0.279-0.032,0.52v0.271c0,0.265,0,0.32,0.023,0.448c-0.231-0.016-0.455-0.024-0.759-0.024h-1.144v0.48H22.334z
		 M18.776,6.532c-0.832,0.464-1.312,0.64-2.383,0.863c-0.088-0.191-0.16-0.312-0.288-0.447c0.983-0.136,1.567-0.313,2.303-0.712
		L18.776,6.532z M17.153,1.727c-0.089,0.265-0.12,0.344-0.177,0.48h1.319c0.08-0.185,0.112-0.272,0.16-0.48H17.153z M17.576,4.094
		h4.15V3.622h-4.15V4.094z M17.576,4.934h4.15V4.462h-4.15V4.934z M17.576,5.78h4.15V5.301h-4.15V5.78z M21.895,3.238
		c-0.024-0.145-0.04-0.216-0.08-0.336c0.224,0.072,0.376,0.104,0.496,0.104c0.184,0,0.199-0.016,0.256-0.432h-1.823v0.072
		c0,0.184,0.008,0.304,0.04,0.439h-0.528c0.032-0.136,0.04-0.256,0.04-0.432v-0.08h-1.719c-0.208,0.304-0.416,0.488-0.728,0.664
		h3.558H21.895z M18.912,1.727c-0.04,0.208-0.064,0.288-0.145,0.48h1.527v-0.48H18.912z M19.008,0.936
		c-0.023,0.264-0.023,0.271-0.04,0.432h1.327V0.936H19.008z M20.863,6.244c0.472,0.256,0.703,0.344,1.175,0.472
		c0.408,0.112,0.672,0.16,1.199,0.216c-0.151,0.185-0.191,0.248-0.304,0.456C22.446,7.3,22.206,7.244,21.75,7.092
		c-0.535-0.176-0.775-0.279-1.263-0.56L20.863,6.244z M20.743,1.367h1.407V0.936h-1.407V1.367z"/>
	<path d="M27.888,6.148c0,0.424,0.008,0.68,0.04,0.872h-0.576c0.032-0.208,0.04-0.448,0.04-0.872V4.638h-2.19
		c-0.12,1.207-0.328,1.862-0.864,2.622c-0.176-0.168-0.256-0.224-0.463-0.344c0.344-0.447,0.52-0.808,0.647-1.352
		c0.176-0.735,0.248-1.902,0.248-3.878c0-0.807,0-0.959-0.032-1.303c0.239,0.023,0.479,0.032,0.879,0.032h4.302
		c0.4,0,0.616-0.009,0.848-0.032c-0.023,0.216-0.032,0.424-0.032,0.783v5.365c0,0.504-0.184,0.624-0.959,0.624
		c-0.256,0-0.655-0.017-0.991-0.04c-0.017-0.185-0.048-0.32-0.12-0.52c0.464,0.056,0.855,0.088,1.144,0.088
		c0.352,0,0.424-0.04,0.424-0.24V4.638h-2.343V6.148z M25.272,2.75c-0.008,0.225-0.008,0.416-0.008,0.528
		c-0.008,0.495-0.008,0.527-0.032,0.896h2.159V2.75H25.272z M27.392,0.896h-2.103v0.951l-0.008,0.448h2.11V0.896z M30.23,2.295
		V0.896h-2.343v1.399H30.23z M27.888,4.174h2.343V2.75h-2.343V4.174z"/>
</g>
<g>
	<path d="M4.24,102.327c0.296,0,0.472-0.008,0.672-0.024c-0.017,0.16-0.024,0.265-0.024,0.472v1.296c0,0.2,0.008,0.368,0.024,0.495
		c-0.185-0.016-0.32-0.023-0.72-0.023v1.647h0.184c0.28,0,0.464-0.009,0.615-0.04v0.527c-0.168-0.024-0.392-0.04-0.688-0.04H2.921
		v0.527H2.409c0.032-0.247,0.048-0.527,0.048-0.871v-5.189c0-0.287-0.008-0.479-0.032-0.728c0.185,0.024,0.392,0.032,0.744,0.032
		H4.52c0.336,0,0.528-0.008,0.704-0.04v0.527c-0.176-0.031-0.32-0.039-0.6-0.039H4.185v1.471H4.24z M3.736,100.856H2.921v1.471
		h0.815V100.856z M4.44,104.11v-1.352h-1.52v1.352H4.44z M2.921,104.542v1.647h0.823v-1.647H2.921z M5.959,101.2
		c-0.231,0.384-0.376,0.567-0.768,1.015c-0.016-0.023-0.032-0.04-0.04-0.048c-0.16-0.16-0.176-0.176-0.328-0.264
		c0.552-0.544,0.88-1.039,1.104-1.639c0.057-0.16,0.064-0.208,0.097-0.353l0.52,0.12c-0.072,0.152-0.12,0.248-0.344,0.728H8.55
		c0.407,0,0.647-0.016,0.84-0.048v0.536c-0.192-0.032-0.504-0.048-0.824-0.048H5.959z M5.224,107.236
		c0.032-0.224,0.04-0.424,0.04-0.76v-1.623c0-0.407,0-0.52-0.024-0.711c0.2,0.016,0.313,0.023,0.536,0.023h0.735
		c0.224,0,0.359-0.008,0.527-0.023c-0.023,0.184-0.023,0.287-0.023,0.679v1.72c0,0.296,0.008,0.456,0.032,0.663H6.591v-0.455H5.695
		v0.487H5.224z M5.695,106.325h0.896v-1.743H5.695V106.325z M5.759,102.352c0-0.296-0.008-0.408-0.023-0.561
		c0.168,0.024,0.264,0.024,0.623,0.024h1.768c0.368,0,0.447,0,0.607-0.024c-0.016,0.168-0.023,0.328-0.023,0.536v0.735
		c0,0.232,0.008,0.408,0.023,0.592c-0.168-0.016-0.352-0.023-0.607-0.023H6.358c-0.256,0-0.447,0.008-0.623,0.023
		c0.016-0.151,0.023-0.271,0.023-0.567V102.352z M6.215,103.23h2.031v-1.023H6.215V103.23z M8.854,104.166
		c0.231,0,0.384-0.008,0.527-0.023c-0.023,0.191-0.023,0.304-0.023,0.679v1.703c0,0.305,0.008,0.496,0.032,0.688H8.917v-0.464H7.982
		v0.455H7.526c0.023-0.207,0.032-0.327,0.032-0.703v-1.647c0-0.399,0-0.504-0.024-0.711c0.208,0.016,0.32,0.023,0.527,0.023H8.854z
		 M7.982,104.582v1.743h0.935v-1.743H7.982z"/>
	<path d="M10.593,101.256c0-0.336-0.008-0.56-0.032-0.768c0.168,0.016,0.168,0.016,0.736,0.023h0.592
		c0.407,0,0.543-0.008,0.719-0.023c-0.023,0.191-0.023,0.319-0.023,0.783v4.382c0,0.384,0.008,0.592,0.023,0.768h-0.495v-0.399
		h-1.048v0.655h-0.52c0.032-0.24,0.048-0.512,0.048-0.848V101.256z M11.064,102.942h1.048v-1.982h-1.048V102.942z M11.064,105.573
		h1.048v-2.198h-1.048V105.573z M13.855,101.447c-0.28,0-0.568,0.017-0.768,0.04v-0.527c0.199,0.032,0.424,0.048,0.759,0.048h0.848
		v-0.256c0-0.248-0.016-0.432-0.048-0.647h0.592c-0.032,0.208-0.048,0.384-0.048,0.647v0.256h1.136c0.327,0,0.552-0.016,0.759-0.048
		v0.527c-0.207-0.023-0.455-0.04-0.759-0.04H15.19v1.04h1.415c0.352,0,0.607-0.017,0.808-0.048v0.535
		c-0.216-0.032-0.447-0.048-0.775-0.048h-0.264v0.936h0.248c0.352,0,0.583-0.016,0.783-0.048v0.552
		c-0.232-0.032-0.448-0.048-0.783-0.048h-0.248v2.238c0,0.512-0.176,0.632-0.92,0.632c-0.128,0-0.256-0.008-0.72-0.032
		c-0.016-0.208-0.048-0.352-0.128-0.527c0.313,0.056,0.672,0.096,0.912,0.096c0.304,0,0.359-0.032,0.359-0.208v-2.198h-2.255
		c-0.296,0-0.567,0.016-0.8,0.048v-0.552c0.2,0.032,0.44,0.048,0.808,0.048h2.247v-0.936h-2.247c-0.327,0-0.567,0.016-0.808,0.048
		v-0.535c0.2,0.031,0.464,0.048,0.808,0.048h1.063v-1.04H13.855z M14.471,106.253c-0.416-0.607-0.64-0.888-1.111-1.343l0.392-0.28
		c0.48,0.456,0.744,0.752,1.151,1.304L14.471,106.253z"/>
	<path d="M3.88,115.102c-0.319,0-0.472,0.008-0.688,0.032c0.024-0.24,0.032-0.376,0.032-0.6v-1.439c0-0.231-0.008-0.368-0.032-0.607
		c0.208,0.023,0.352,0.031,0.68,0.031h1.615v-0.615H3.864c-0.304,0-0.472,0.008-0.688,0.04v-0.496
		c0.191,0.032,0.359,0.04,0.688,0.04h1.623c-0.008-0.256-0.023-0.367-0.048-0.535h0.567c-0.023,0.16-0.04,0.271-0.048,0.535h1.775
		c0.327,0,0.472-0.008,0.68-0.04v0.496c-0.2-0.032-0.376-0.04-0.68-0.04H5.959v0.615h1.783c0.328,0,0.472-0.008,0.68-0.031
		c-0.024,0.224-0.032,0.344-0.032,0.607v1.439c0,0.256,0.008,0.376,0.032,0.6c-0.216-0.024-0.376-0.032-0.688-0.032H5.959v0.655
		h2.535c0.327,0,0.56-0.016,0.783-0.048v0.544c-0.24-0.032-0.479-0.048-0.8-0.048H5.959v0.264c0,0.328,0.017,0.552,0.056,0.832
		H5.432c0.04-0.288,0.056-0.521,0.056-0.832v-0.264H3.152c-0.304,0-0.552,0.016-0.783,0.048v-0.544
		c0.224,0.032,0.439,0.048,0.768,0.048h2.351v-0.655H3.88z M2.449,111.8c0.023-0.168,0.032-0.313,0.032-0.552v-0.44
		c0-0.216-0.009-0.367-0.032-0.535c0.256,0.023,0.472,0.032,0.791,0.032H8.35c0.336,0,0.544-0.009,0.8-0.032
		c-0.024,0.16-0.032,0.296-0.032,0.527v0.448c0,0.239,0.008,0.384,0.032,0.552H8.613v-1.056H2.977v1.056H2.449z M5.487,112.927
		H3.704v0.664h1.783V112.927z M5.487,113.99H3.704v0.704h1.783V113.99z M7.91,113.591v-0.664H5.959v0.664H7.91z M7.91,114.694
		v-0.704H5.959v0.704H7.91z"/>
	<path d="M13.503,113.927h-1.879c-0.327,0-0.52,0.008-0.751,0.039v-0.495c0.199,0.032,0.392,0.04,0.768,0.04h1.862v-0.52h-1.671
		c-0.264,0-0.479,0.008-0.655,0.031c0.023-0.184,0.032-0.327,0.032-0.535v-0.352c0-0.217-0.009-0.345-0.032-0.544
		c0.208,0.023,0.384,0.032,0.663,0.032h1.663v-0.528h-2.318c-0.368,0-0.655,0.017-0.896,0.048v-0.527
		c0.216,0.032,0.448,0.048,0.911,0.048h2.303c0-0.392-0.008-0.512-0.048-0.72h0.584c-0.048,0.2-0.056,0.312-0.056,0.72h2.446
		c0.464,0,0.704-0.016,0.92-0.048v0.527c-0.265-0.031-0.528-0.048-0.904-0.048h-2.462v0.528h1.839c0.279,0,0.456-0.009,0.655-0.032
		c-0.023,0.199-0.032,0.319-0.032,0.544v0.352c0,0.224,0.009,0.336,0.032,0.535c-0.176-0.023-0.392-0.031-0.647-0.031h-1.847v0.52
		h1.743c0.463,0,0.679-0.008,0.896-0.032c-0.017,0.168-0.024,0.319-0.024,0.664v0.335c0.456,0,0.672-0.008,0.848-0.048v0.504
		c-0.2-0.032-0.424-0.04-0.848-0.04v0.52c0,0.393,0.016,0.608,0.048,0.8h-0.52v-0.328h-2.143v0.664c0,0.552-0.16,0.664-0.936,0.664
		c-0.168,0-0.313-0.009-0.76-0.032c-0.016-0.2-0.048-0.304-0.136-0.504c0.407,0.056,0.688,0.08,0.991,0.08
		c0.288,0,0.359-0.04,0.359-0.216v-0.656h-1.927c-0.367,0-0.535,0.009-0.783,0.04v-0.495c0.224,0.032,0.384,0.04,0.768,0.04h1.942
		v-0.576h-2.398c-0.439,0-0.655,0.008-0.871,0.04v-0.504c0.191,0.032,0.416,0.048,0.871,0.048h2.398V113.927z M11.688,112.016v0.592
		h1.814v-0.592H11.688z M13.983,112.607h1.982v-0.592h-1.982V112.607z M16.126,114.478v-0.551h-2.143v0.551H16.126z M13.983,115.47
		h2.143v-0.576h-2.143V115.47z"/>
	<path d="M24.558,112.184c0.448,0,0.576,0,0.768-0.024c-0.04,0.176-0.04,0.184-0.072,0.384c-0.063,0.408-0.104,0.552-0.184,0.647
		s-0.216,0.145-0.408,0.145c-0.056,0-0.119,0-0.207-0.009c-0.009,0.2-0.017,0.448-0.017,0.736v1.287
		c0,0.407,0.008,0.632,0.032,0.823c-0.208-0.023-0.512-0.032-0.896-0.032h-3.398c-0.376,0-0.68,0.009-0.888,0.032
		c0.024-0.168,0.032-0.432,0.032-0.808v-1.774c-0.271,0.119-0.439,0.176-0.888,0.304c-0.063-0.16-0.128-0.272-0.256-0.408
		c1.136-0.239,1.68-0.479,2.096-0.936h-1.023c-0.305,0-0.504,0.008-0.712,0.024c0.224-0.432,0.336-0.744,0.447-1.256
		c0.177,0.017,0.36,0.024,0.728,0.024h1.032c0.023-0.176,0.031-0.256,0.04-0.432h-1.392c-0.328,0-0.56,0.008-0.792,0.04v-0.464
		c0.2,0.032,0.393,0.04,0.792,0.04H20.8c0-0.248-0.008-0.336-0.04-0.544h0.52c-0.008,0.072-0.016,0.256-0.032,0.544h1.271v-0.088
		c0-0.192-0.008-0.296-0.04-0.464h0.528c-0.032,0.168-0.04,0.271-0.04,0.472v0.08h1.151c0.367,0,0.583-0.008,0.76-0.04
		c-0.024,0.16-0.032,0.279-0.032,0.52v0.271c0,0.265,0,0.32,0.023,0.448c-0.231-0.016-0.455-0.024-0.759-0.024h-1.144v0.48H24.558z
		 M21,116.509c-0.832,0.464-1.312,0.64-2.383,0.863c-0.088-0.191-0.16-0.312-0.288-0.447c0.983-0.136,1.567-0.313,2.303-0.712
		L21,116.509z M19.377,111.703c-0.089,0.265-0.12,0.344-0.177,0.48h1.319c0.08-0.185,0.112-0.272,0.16-0.48H19.377z M19.8,114.07
		h4.15v-0.472H19.8V114.07z M19.8,114.91h4.15v-0.472H19.8V114.91z M19.8,115.757h4.15v-0.479H19.8V115.757z M24.118,113.215
		c-0.024-0.145-0.04-0.216-0.08-0.336c0.224,0.072,0.376,0.104,0.496,0.104c0.184,0,0.199-0.016,0.256-0.432h-1.823v0.072
		c0,0.184,0.008,0.304,0.04,0.439h-0.528c0.032-0.136,0.04-0.256,0.04-0.432v-0.08H20.8c-0.208,0.304-0.416,0.488-0.728,0.664h3.558
		H24.118z M21.136,111.703c-0.04,0.208-0.064,0.288-0.145,0.48h1.527v-0.48H21.136z M21.231,110.912
		c-0.023,0.264-0.023,0.271-0.04,0.432h1.327v-0.432H21.231z M23.087,116.221c0.472,0.256,0.703,0.344,1.175,0.472
		c0.408,0.112,0.672,0.16,1.199,0.216c-0.151,0.185-0.191,0.248-0.304,0.456c-0.487-0.088-0.728-0.144-1.184-0.296
		c-0.535-0.176-0.775-0.279-1.263-0.56L23.087,116.221z M22.967,111.344h1.407v-0.432h-1.407V111.344z"/>
</g>
<g>
	<path d="M40.707,146.229c-0.319,0-0.472,0.008-0.688,0.032c0.024-0.24,0.032-0.376,0.032-0.6v-1.439
		c0-0.231-0.008-0.368-0.032-0.607c0.208,0.023,0.352,0.031,0.68,0.031h1.615v-0.615h-1.623c-0.304,0-0.472,0.008-0.688,0.04v-0.496
		c0.191,0.032,0.359,0.04,0.688,0.04h1.623c-0.008-0.256-0.023-0.367-0.048-0.535h0.567c-0.023,0.16-0.04,0.271-0.048,0.535h1.775
		c0.327,0,0.472-0.008,0.68-0.04v0.496c-0.2-0.032-0.376-0.04-0.68-0.04h-1.775v0.615h1.783c0.328,0,0.472-0.008,0.68-0.031
		c-0.024,0.224-0.032,0.344-0.032,0.607v1.439c0,0.256,0.008,0.376,0.032,0.6c-0.216-0.024-0.376-0.032-0.688-0.032h-1.775v0.655
		h2.535c0.327,0,0.56-0.016,0.783-0.048v0.544c-0.24-0.032-0.479-0.048-0.8-0.048h-2.519v0.264c0,0.328,0.017,0.552,0.056,0.832
		h-0.583c0.04-0.288,0.056-0.521,0.056-0.832v-0.264h-2.335c-0.304,0-0.552,0.016-0.783,0.048v-0.544
		c0.224,0.032,0.439,0.048,0.768,0.048h2.351v-0.655H40.707z M39.276,142.927c0.023-0.168,0.032-0.313,0.032-0.552v-0.44
		c0-0.216-0.009-0.367-0.032-0.535c0.256,0.023,0.472,0.032,0.791,0.032h5.109c0.336,0,0.544-0.009,0.8-0.032
		c-0.024,0.16-0.032,0.296-0.032,0.527v0.448c0,0.239,0.008,0.384,0.032,0.552H45.44v-1.056h-5.637v1.056H39.276z M42.314,144.054
		h-1.783v0.664h1.783V144.054z M42.314,145.117h-1.783v0.704h1.783V145.117z M44.737,144.718v-0.664h-1.951v0.664H44.737z
		 M44.737,145.821v-0.704h-1.951v0.704H44.737z"/>
	<path d="M50.33,145.054h-1.879c-0.327,0-0.52,0.008-0.751,0.039v-0.495c0.199,0.032,0.392,0.04,0.768,0.04h1.862v-0.52h-1.671
		c-0.264,0-0.479,0.008-0.655,0.031c0.023-0.184,0.032-0.327,0.032-0.535v-0.352c0-0.217-0.009-0.345-0.032-0.544
		c0.208,0.023,0.384,0.032,0.663,0.032h1.663v-0.528h-2.318c-0.368,0-0.655,0.017-0.896,0.048v-0.527
		c0.216,0.032,0.448,0.048,0.911,0.048h2.303c0-0.392-0.008-0.512-0.048-0.72h0.584c-0.048,0.2-0.056,0.312-0.056,0.72h2.446
		c0.464,0,0.704-0.016,0.92-0.048v0.527c-0.265-0.031-0.528-0.048-0.904-0.048h-2.462v0.528h1.839c0.279,0,0.456-0.009,0.655-0.032
		c-0.023,0.199-0.032,0.319-0.032,0.544v0.352c0,0.224,0.009,0.336,0.032,0.535c-0.176-0.023-0.392-0.031-0.647-0.031h-1.847v0.52
		h1.743c0.463,0,0.679-0.008,0.896-0.032c-0.017,0.168-0.024,0.319-0.024,0.664v0.335c0.456,0,0.672-0.008,0.848-0.048v0.504
		c-0.2-0.032-0.424-0.04-0.848-0.04v0.52c0,0.393,0.016,0.608,0.048,0.8h-0.52v-0.328h-2.143v0.664c0,0.552-0.16,0.664-0.936,0.664
		c-0.168,0-0.313-0.009-0.76-0.032c-0.016-0.2-0.048-0.304-0.136-0.504c0.407,0.056,0.688,0.08,0.991,0.08
		c0.288,0,0.359-0.04,0.359-0.216v-0.656h-1.927c-0.367,0-0.535,0.009-0.783,0.04v-0.495c0.224,0.032,0.384,0.04,0.768,0.04h1.942
		v-0.576h-2.398c-0.439,0-0.655,0.008-0.871,0.04v-0.504c0.191,0.032,0.416,0.048,0.871,0.048h2.398V145.054z M48.516,143.143v0.592
		h1.814v-0.592H48.516z M50.811,143.734h1.982v-0.592h-1.982V143.734z M52.953,145.604v-0.551h-2.143v0.551H52.953z M50.811,146.597
		h2.143v-0.576h-2.143V146.597z"/>
	<path d="M55.676,143.183c-0.191,0-0.367,0.008-0.6,0.04v-0.528c0.216,0.032,0.384,0.048,0.607,0.048h0.408v-0.768
		c0-0.376-0.008-0.567-0.048-0.808h0.6c-0.032,0.225-0.048,0.432-0.048,0.8v0.775h0.319c0.24,0,0.368-0.008,0.512-0.04v0.512
		c-0.159-0.023-0.288-0.031-0.504-0.031h-0.327v1.559c0.312-0.128,0.432-0.184,0.791-0.352v0.487
		c-0.487,0.216-0.487,0.216-0.791,0.344v2.543c0,0.416-0.208,0.567-0.808,0.567c-0.112,0-0.384-0.008-0.544-0.016
		c-0.008-0.2-0.032-0.304-0.104-0.504c0.247,0.04,0.479,0.057,0.655,0.057c0.231,0,0.296-0.049,0.296-0.225v-2.215
		c-0.632,0.248-0.728,0.288-0.911,0.384l-0.16-0.543c0.264-0.04,0.495-0.112,1.071-0.328v-1.759H55.676z M61.528,142.423
		c0.313,0,0.512-0.017,0.728-0.048v0.543c-0.231-0.031-0.439-0.04-0.728-0.04h-3.262c-0.016,2.999-0.231,4.223-0.96,5.453
		c-0.159-0.159-0.256-0.231-0.439-0.336c0.68-1.055,0.896-2.19,0.896-4.701c0-0.455-0.008-0.68-0.032-0.911
		c0.225,0.032,0.424,0.04,0.736,0.04h1.151v-0.536c0-0.279-0.017-0.447-0.048-0.623h0.6c-0.032,0.168-0.049,0.335-0.049,0.623v0.536
		H61.528z M57.938,147.508c0.097,0.008,0.152,0.008,0.208,0.008c0.136,0,0.28-0.008,0.432-0.023c0.52-1.359,0.992-3.198,1.04-4.11
		l0.607,0.128c-0.048,0.16-0.088,0.304-0.128,0.488c-0.28,1.255-0.607,2.383-0.991,3.438c0.847-0.096,1.566-0.216,2.318-0.375
		c-0.264-0.664-0.52-1.224-0.88-1.903l0.448-0.176c0.64,1.247,0.959,1.967,1.343,3.086l-0.472,0.224
		c-0.128-0.407-0.168-0.535-0.264-0.791c-0.088,0.016-0.088,0.016-0.224,0.048c-0.632,0.136-2.007,0.359-2.687,0.439
		c-0.424,0.048-0.464,0.048-0.64,0.088L57.938,147.508z"/>
	<path d="M64.827,145.077c0.256,0,0.448-0.008,0.576-0.023c-0.017,0.127-0.017,0.176-0.024,0.327
		c-0.048,1.247-0.128,1.879-0.312,2.407c-0.12,0.344-0.336,0.479-0.8,0.479c-0.24,0-0.512-0.017-0.848-0.04
		c-0.016-0.2-0.04-0.328-0.104-0.527c0.359,0.048,0.68,0.079,0.896,0.079c0.264,0,0.367-0.056,0.424-0.247
		c0.144-0.424,0.216-1.023,0.247-2.007H63.78c-0.248,0-0.353,0-0.544,0.016c0.168-0.8,0.24-1.399,0.264-2.255
		c0.208,0.024,0.32,0.032,0.76,0.032h0.695v-1.304h-0.967c-0.305,0-0.561,0.008-0.736,0.032v-0.527
		c0.2,0.031,0.44,0.048,0.744,0.048h0.936c0.184,0,0.359-0.008,0.527-0.024c-0.016,0.176-0.024,0.344-0.024,0.56v1.056
		c0,0.24,0.009,0.424,0.024,0.632c-0.16-0.016-0.352-0.024-0.567-0.024h-0.92c-0.04,0.521-0.08,0.84-0.168,1.312H64.827z
		 M67.802,145.317c0.168,0.504,0.319,0.791,0.624,1.175c0.487-0.392,0.728-0.632,0.991-0.983l0.392,0.313
		c-0.399,0.399-0.688,0.663-1.104,0.991c0.504,0.495,0.968,0.808,1.647,1.087c-0.12,0.16-0.168,0.225-0.296,0.488
		c-0.824-0.456-1.344-0.848-1.775-1.352s-0.68-0.951-0.951-1.719h-0.68v2.223c0.647-0.16,0.863-0.224,1.439-0.424l0.016,0.464
		c-0.743,0.239-1.375,0.415-2.263,0.615c-0.176,0.04-0.224,0.048-0.384,0.096l-0.12-0.52c0.2-0.008,0.52-0.056,0.823-0.12v-2.334
		c-0.256,0-0.383,0.008-0.591,0.031v-0.503c0.199,0.023,0.279,0.023,0.623,0.031v-2.727c0-0.296-0.008-0.479-0.032-0.695
		c0.305,0.032,0.488,0.04,0.864,0.04h2.007c0.367,0,0.615-0.016,0.815-0.048v0.527c-0.231-0.031-0.416-0.04-0.808-0.04h-2.375v0.672
		h2.199c0.336,0,0.552-0.016,0.76-0.048v0.536c-0.216-0.032-0.44-0.049-0.76-0.049h-2.199v0.688h2.199
		c0.352,0,0.544-0.009,0.76-0.049v0.536c-0.248-0.032-0.448-0.048-0.76-0.048h-2.199v0.703h2.767c0.36,0,0.584-0.016,0.784-0.048
		v0.536c-0.24-0.04-0.448-0.048-0.784-0.048H67.802z"/>
	<path d="M77.385,143.311c0.448,0,0.576,0,0.768-0.024c-0.04,0.176-0.04,0.184-0.072,0.384c-0.063,0.408-0.104,0.552-0.184,0.647
		s-0.216,0.145-0.408,0.145c-0.056,0-0.119,0-0.207-0.009c-0.009,0.2-0.017,0.448-0.017,0.736v1.287
		c0,0.407,0.008,0.632,0.032,0.823c-0.208-0.023-0.512-0.032-0.896-0.032h-3.398c-0.376,0-0.68,0.009-0.888,0.032
		c0.024-0.168,0.032-0.432,0.032-0.808v-1.774c-0.271,0.119-0.439,0.176-0.888,0.304c-0.063-0.16-0.128-0.272-0.256-0.408
		c1.136-0.239,1.68-0.479,2.096-0.936h-1.023c-0.305,0-0.504,0.008-0.712,0.024c0.224-0.432,0.336-0.744,0.447-1.256
		c0.177,0.017,0.36,0.024,0.728,0.024h1.032c0.023-0.176,0.031-0.256,0.04-0.432H72.22c-0.328,0-0.56,0.008-0.792,0.04v-0.464
		c0.2,0.032,0.393,0.04,0.792,0.04h1.407c0-0.248-0.008-0.336-0.04-0.544h0.52c-0.008,0.072-0.016,0.256-0.032,0.544h1.271v-0.088
		c0-0.192-0.008-0.296-0.04-0.464h0.528c-0.032,0.168-0.04,0.271-0.04,0.472v0.08h1.151c0.367,0,0.583-0.008,0.76-0.04
		c-0.024,0.16-0.032,0.279-0.032,0.52v0.271c0,0.265,0,0.32,0.023,0.448c-0.231-0.016-0.455-0.024-0.759-0.024h-1.144v0.48H77.385z
		 M73.827,147.636c-0.832,0.464-1.312,0.64-2.383,0.863c-0.088-0.191-0.16-0.312-0.288-0.447c0.983-0.136,1.567-0.313,2.303-0.712
		L73.827,147.636z M72.204,142.83c-0.089,0.265-0.12,0.344-0.177,0.48h1.319c0.08-0.185,0.112-0.272,0.16-0.48H72.204z
		 M72.627,145.197h4.15v-0.472h-4.15V145.197z M72.627,146.037h4.15v-0.472h-4.15V146.037z M72.627,146.884h4.15v-0.479h-4.15
		V146.884z M76.945,144.342c-0.024-0.145-0.04-0.216-0.08-0.336c0.224,0.072,0.376,0.104,0.496,0.104
		c0.184,0,0.199-0.016,0.256-0.432h-1.823v0.072c0,0.184,0.008,0.304,0.04,0.439h-0.528c0.032-0.136,0.04-0.256,0.04-0.432v-0.08
		h-1.719c-0.208,0.304-0.416,0.488-0.728,0.664h3.558H76.945z M73.963,142.83c-0.04,0.208-0.064,0.288-0.145,0.48h1.527v-0.48
		H73.963z M74.059,142.039c-0.023,0.264-0.023,0.271-0.04,0.432h1.327v-0.432H74.059z M75.914,147.348
		c0.472,0.256,0.703,0.344,1.175,0.472c0.408,0.112,0.672,0.16,1.199,0.216c-0.151,0.185-0.191,0.248-0.304,0.456
		c-0.487-0.088-0.728-0.144-1.184-0.296c-0.535-0.176-0.775-0.279-1.263-0.56L75.914,147.348z M75.794,142.471h1.407v-0.432h-1.407
		V142.471z"/>
</g>
<g>
	<path d="M50.561,151.727c-0.09-0.225-0.139-0.322-0.244-0.441c-0.211-0.231-0.484-0.351-0.834-0.351
		c-0.547,0-0.959,0.295-1.211,0.869c-0.182,0.42-0.246,0.742-0.295,1.506c0.127-0.218,0.197-0.315,0.35-0.448
		c0.33-0.294,0.701-0.428,1.184-0.428c1.086,0,1.76,0.673,1.76,1.751c0,1.086-0.729,1.8-1.836,1.8c-0.498,0-0.967-0.161-1.268-0.44
		c-0.455-0.421-0.707-1.205-0.707-2.199c0-0.876,0.195-1.66,0.531-2.115c0.371-0.505,0.869-0.764,1.479-0.764
		c0.42,0,0.799,0.105,1.064,0.294c0.246,0.175,0.385,0.364,0.588,0.784L50.561,151.727z M49.434,152.903
		c-0.35,0-0.721,0.154-0.967,0.399c-0.23,0.23-0.35,0.539-0.35,0.889c0,0.757,0.566,1.317,1.324,1.317
		c0.455,0,0.875-0.218,1.092-0.567c0.111-0.183,0.182-0.47,0.182-0.742C50.715,153.372,50.254,152.903,49.434,152.903z"/>
	<path d="M52.828,155.887c-0.441,0-0.547,0.007-0.771,0.035c0.078-0.554,0.1-0.658,0.203-0.925c0.176-0.441,0.471-0.826,0.91-1.204
		c0.246-0.211,0.26-0.218,1.072-0.771c0.693-0.47,0.924-0.777,0.924-1.205c0-0.532-0.447-0.875-1.162-0.875
		c-0.461,0-0.805,0.153-1.016,0.455c-0.133,0.188-0.195,0.357-0.244,0.707l-0.588-0.098c0.104-0.505,0.209-0.75,0.439-1.009
		c0.316-0.357,0.793-0.539,1.408-0.539c1.059,0,1.738,0.532,1.738,1.358c0,0.357-0.141,0.693-0.414,0.995
		c-0.211,0.237-0.393,0.371-1.191,0.903c-0.553,0.371-0.777,0.567-1.008,0.861c-0.217,0.287-0.314,0.477-0.398,0.813h2.232
		c0.352,0,0.59-0.015,0.855-0.049v0.588c-0.279-0.028-0.512-0.042-0.861-0.042H52.828z"/>
	<path d="M57.426,155.193v0.693h-0.693v-0.693H57.426z"/>
	<path d="M58.938,155.494c-0.189-0.188-0.336-0.406-0.42-0.644c-0.176-0.49-0.266-1.044-0.266-1.618c0-0.742,0.16-1.499,0.406-1.905
		c0.336-0.567,0.875-0.861,1.568-0.861c0.518,0,0.967,0.168,1.281,0.497c0.197,0.196,0.336,0.413,0.42,0.645
		c0.176,0.483,0.268,1.044,0.268,1.625c0,0.848-0.184,1.597-0.49,2.024c-0.352,0.49-0.842,0.735-1.486,0.735
		C59.701,155.992,59.268,155.823,58.938,155.494z M59.344,151.307c-0.146,0.161-0.258,0.336-0.314,0.511
		c-0.146,0.428-0.217,0.903-0.217,1.415c0,0.651,0.139,1.338,0.328,1.667c0.246,0.406,0.609,0.609,1.086,0.609
		c0.35,0,0.652-0.112,0.861-0.329c0.154-0.161,0.266-0.344,0.33-0.547c0.146-0.434,0.217-0.896,0.217-1.415
		c0-0.608-0.133-1.302-0.316-1.632c-0.23-0.42-0.609-0.637-1.1-0.637C59.855,150.949,59.568,151.068,59.344,151.307z"/>
	<path d="M63.627,153.176c-0.252-0.245-0.385-0.658-0.385-1.176c0-0.938,0.449-1.492,1.219-1.492c0.764,0,1.211,0.546,1.211,1.492
		c0,0.518-0.133,0.931-0.385,1.176c-0.209,0.203-0.496,0.315-0.826,0.315C64.125,153.491,63.838,153.379,63.627,153.176z
		 M63.711,152c0,0.686,0.273,1.078,0.75,1.078c0.469,0,0.742-0.393,0.742-1.078c0-0.693-0.266-1.079-0.742-1.079
		C63.979,150.921,63.711,151.313,63.711,152z M67.998,150.466l0.295,0.224l-4.246,5.372l-0.293-0.23L67.998,150.466z
		 M66.758,155.712c-0.252-0.245-0.385-0.658-0.385-1.177c0-0.938,0.449-1.492,1.219-1.492s1.211,0.547,1.211,1.499
		c0,0.512-0.133,0.925-0.385,1.17c-0.209,0.203-0.496,0.314-0.826,0.314C67.256,156.026,66.969,155.922,66.758,155.712z
		 M66.842,154.535c0,0.687,0.273,1.078,0.75,1.078c0.469,0,0.742-0.392,0.742-1.078c0-0.693-0.266-1.079-0.742-1.079
		C67.109,153.456,66.842,153.849,66.842,154.535z"/>
</g>
<g>
	<path d="M5.71,125.165c-0.441,0-0.546,0.007-0.771,0.035c0.077-0.554,0.099-0.658,0.203-0.925c0.175-0.441,0.47-0.826,0.91-1.204
		c0.245-0.211,0.26-0.218,1.072-0.771c0.693-0.47,0.924-0.777,0.924-1.205c0-0.532-0.448-0.875-1.162-0.875
		c-0.462,0-0.806,0.153-1.016,0.455c-0.133,0.188-0.196,0.357-0.245,0.707l-0.588-0.098c0.104-0.505,0.21-0.75,0.44-1.009
		c0.315-0.357,0.792-0.539,1.408-0.539c1.058,0,1.737,0.532,1.737,1.358c0,0.357-0.141,0.693-0.414,0.995
		c-0.21,0.237-0.392,0.371-1.19,0.903c-0.553,0.371-0.777,0.567-1.009,0.861c-0.217,0.287-0.314,0.477-0.398,0.813h2.233
		c0.351,0,0.589-0.015,0.854-0.049v0.588c-0.279-0.028-0.511-0.042-0.861-0.042H5.71z"/>
	<path d="M10.253,119.807c0.182,0.028,0.314,0.035,0.581,0.035h0.441c0.238,0,0.35-0.007,0.581-0.035
		c-0.042,0.428-0.063,0.785-0.063,1.163v3.404c0,0.329,0.015,0.532,0.057,0.791h-0.665c0.042-0.245,0.056-0.47,0.056-0.791v-4.056
		h-0.378c-0.225,0-0.406,0.014-0.609,0.042V119.807z"/>
	<path d="M14.907,124.472v0.693h-0.693v-0.693H14.907z"/>
	<path d="M19.55,120.318c-0.126,0.098-0.245,0.252-0.519,0.673c-0.63,0.973-0.925,1.568-1.197,2.423
		c-0.183,0.581-0.26,0.938-0.371,1.751h-0.666c0.225-1.268,0.413-1.898,0.848-2.795c0.336-0.7,0.638-1.184,1.261-2.03h-2.276
		c-0.329,0-0.525,0.014-0.791,0.049v-0.596c0.272,0.035,0.462,0.049,0.798,0.049h2.102c0.413,0,0.567-0.007,0.813-0.035V120.318z"/>
	<path d="M21.108,122.454c-0.252-0.245-0.385-0.658-0.385-1.176c0-0.938,0.448-1.492,1.219-1.492c0.763,0,1.211,0.546,1.211,1.492
		c0,0.518-0.133,0.931-0.385,1.176c-0.21,0.203-0.497,0.315-0.826,0.315C21.605,122.77,21.318,122.657,21.108,122.454z
		 M21.192,121.278c0,0.686,0.273,1.078,0.75,1.078c0.469,0,0.742-0.393,0.742-1.078c0-0.693-0.267-1.079-0.742-1.079
		C21.459,120.199,21.192,120.592,21.192,121.278z M25.479,119.744l0.295,0.224l-4.245,5.372l-0.294-0.23L25.479,119.744z
		 M24.239,124.99c-0.252-0.245-0.385-0.658-0.385-1.177c0-0.938,0.448-1.492,1.218-1.492c0.771,0,1.212,0.547,1.212,1.499
		c0,0.512-0.133,0.925-0.385,1.17c-0.21,0.203-0.497,0.314-0.827,0.314C24.736,125.305,24.449,125.2,24.239,124.99z M24.323,123.813
		c0,0.687,0.273,1.078,0.749,1.078c0.47,0,0.743-0.392,0.743-1.078c0-0.693-0.267-1.079-0.743-1.079
		C24.59,122.734,24.323,123.127,24.323,123.813z"/>
</g>
<g>
	<path d="M1.598,11.038c-0.014,0.126-0.014,0.126-0.057,0.315c0.336-0.322,0.742-0.483,1.227-0.483c0.512,0,0.945,0.168,1.26,0.477
		c0.316,0.301,0.469,0.714,0.469,1.232c0,1.128-0.734,1.849-1.891,1.849c-0.545,0-1.002-0.161-1.338-0.476
		c-0.174-0.176-0.273-0.322-0.441-0.658L1.4,13.125c0.07,0.196,0.119,0.287,0.225,0.406c0.238,0.267,0.588,0.414,0.994,0.414
		c0.785,0,1.311-0.533,1.311-1.338c0-0.771-0.482-1.275-1.227-1.275c-0.355,0-0.664,0.099-0.916,0.295
		c-0.168,0.133-0.246,0.23-0.322,0.42l-0.525-0.049c0.055-0.273,0.076-0.421,0.105-0.722l0.152-1.583
		c0.016-0.203,0.021-0.287,0.021-0.42c0-0.099,0-0.126-0.014-0.302C1.422,9,1.535,9.007,1.947,9.007h1.443
		c0.379,0,0.539-0.014,0.818-0.056v0.596C3.943,9.505,3.719,9.49,3.391,9.49H1.744L1.598,11.038z"/>
	<path d="M6.146,13.637v0.693H5.453v-0.693H6.146z"/>
	<path d="M7.875,11.038c-0.014,0.126-0.014,0.126-0.055,0.315c0.336-0.322,0.742-0.483,1.225-0.483c0.512,0,0.945,0.168,1.262,0.477
		c0.314,0.301,0.469,0.714,0.469,1.232c0,1.128-0.736,1.849-1.891,1.849c-0.547,0-1.002-0.161-1.338-0.476
		c-0.176-0.176-0.273-0.322-0.441-0.658l0.574-0.169c0.07,0.196,0.119,0.287,0.225,0.406c0.238,0.267,0.588,0.414,0.994,0.414
		c0.785,0,1.309-0.533,1.309-1.338c0-0.771-0.482-1.275-1.225-1.275c-0.357,0-0.666,0.099-0.918,0.295
		c-0.168,0.133-0.244,0.23-0.322,0.42l-0.525-0.049c0.057-0.273,0.078-0.421,0.105-0.722l0.154-1.583
		C7.49,9.49,7.498,9.406,7.498,9.273c0-0.099,0-0.126-0.014-0.302C7.701,9,7.813,9.007,8.227,9.007h1.441
		c0.379,0,0.539-0.014,0.82-0.056v0.596c-0.266-0.042-0.49-0.057-0.82-0.057H8.023L7.875,11.038z"/>
	<path d="M12.348,11.619c-0.252-0.245-0.385-0.658-0.385-1.176c0-0.938,0.449-1.492,1.219-1.492c0.764,0,1.211,0.546,1.211,1.492
		c0,0.518-0.133,0.931-0.385,1.176c-0.209,0.203-0.496,0.315-0.826,0.315C12.846,11.935,12.559,11.822,12.348,11.619z
		 M12.432,10.443c0,0.686,0.273,1.078,0.75,1.078c0.469,0,0.742-0.393,0.742-1.078c0-0.693-0.266-1.079-0.742-1.079
		C12.699,9.364,12.432,9.757,12.432,10.443z M16.719,8.909l0.295,0.224l-4.246,5.372l-0.293-0.23L16.719,8.909z M15.479,14.155
		c-0.252-0.245-0.385-0.658-0.385-1.177c0-0.938,0.449-1.492,1.219-1.492s1.211,0.547,1.211,1.499c0,0.512-0.133,0.925-0.385,1.17
		c-0.209,0.203-0.496,0.314-0.826,0.314C15.977,14.47,15.689,14.365,15.479,14.155z M15.563,12.979c0,0.687,0.273,1.078,0.75,1.078
		c0.469,0,0.742-0.392,0.742-1.078c0-0.693-0.266-1.079-0.742-1.079C15.83,11.899,15.563,12.292,15.563,12.979z"/>
</g>
<g>
	<path d="M8.629,31.121c0.111,0.364,0.209,0.512,0.428,0.666c0.236,0.168,0.545,0.252,0.902,0.252c0.813,0,1.324-0.421,1.324-1.086
		c0-0.693-0.498-1.071-1.43-1.071c-0.195,0-0.371,0.014-0.561,0.035v-0.554c0.162,0.028,0.33,0.042,0.52,0.042
		c0.463,0,0.805-0.105,1.021-0.322c0.176-0.168,0.281-0.427,0.281-0.68c0-0.602-0.42-0.952-1.127-0.952
		c-0.428,0-0.736,0.119-0.932,0.371c-0.1,0.126-0.148,0.238-0.225,0.497L8.25,28.193c0.119-0.356,0.203-0.518,0.379-0.7
		c0.309-0.336,0.783-0.511,1.393-0.511c1.016,0,1.66,0.532,1.66,1.372c0,0.428-0.182,0.806-0.49,1.022
		c-0.182,0.134-0.336,0.189-0.658,0.253c0.406,0.042,0.623,0.118,0.861,0.301c0.309,0.238,0.471,0.609,0.471,1.058
		c0,0.945-0.729,1.534-1.898,1.534c-0.707,0-1.232-0.196-1.57-0.575c-0.146-0.168-0.23-0.321-0.355-0.679L8.629,31.121z"/>
	<path d="M13.508,31.724v0.693h-0.693v-0.693H13.508z"/>
	<path d="M14.906,31.121c0.113,0.364,0.211,0.512,0.428,0.666c0.238,0.168,0.547,0.252,0.904,0.252c0.813,0,1.322-0.421,1.322-1.086
		c0-0.693-0.496-1.071-1.428-1.071c-0.197,0-0.371,0.014-0.561,0.035v-0.554c0.16,0.028,0.33,0.042,0.518,0.042
		c0.463,0,0.807-0.105,1.023-0.322c0.176-0.168,0.279-0.427,0.279-0.68c0-0.602-0.42-0.952-1.127-0.952
		c-0.428,0-0.736,0.119-0.932,0.371c-0.098,0.126-0.146,0.238-0.225,0.497l-0.58-0.126c0.119-0.356,0.203-0.518,0.377-0.7
		c0.309-0.336,0.785-0.511,1.395-0.511c1.016,0,1.66,0.532,1.66,1.372c0,0.428-0.182,0.806-0.49,1.022
		c-0.182,0.134-0.336,0.189-0.658,0.253c0.406,0.042,0.623,0.118,0.861,0.301c0.309,0.238,0.469,0.609,0.469,1.058
		c0,0.945-0.729,1.534-1.898,1.534c-0.707,0-1.232-0.196-1.568-0.575c-0.146-0.168-0.23-0.321-0.357-0.679L14.906,31.121z"/>
	<path d="M19.709,29.706c-0.252-0.245-0.385-0.658-0.385-1.176c0-0.938,0.447-1.492,1.219-1.492c0.762,0,1.211,0.546,1.211,1.492
		c0,0.518-0.133,0.931-0.385,1.176c-0.211,0.203-0.498,0.315-0.826,0.315C20.205,30.021,19.918,29.909,19.709,29.706z M19.793,28.53
		c0,0.686,0.273,1.078,0.75,1.078c0.469,0,0.742-0.393,0.742-1.078c0-0.693-0.268-1.079-0.742-1.079
		C20.059,27.451,19.793,27.844,19.793,28.53z M24.078,26.996l0.295,0.224l-4.244,5.372l-0.295-0.23L24.078,26.996z M22.84,32.242
		c-0.252-0.245-0.385-0.658-0.385-1.177c0-0.938,0.447-1.492,1.217-1.492c0.771,0,1.213,0.547,1.213,1.499
		c0,0.512-0.133,0.925-0.385,1.17c-0.211,0.203-0.498,0.314-0.828,0.314C23.336,32.557,23.049,32.452,22.84,32.242z M22.924,31.065
		c0,0.687,0.273,1.078,0.748,1.078c0.471,0,0.744-0.392,0.744-1.078c0-0.693-0.268-1.079-0.744-1.079
		C23.189,29.986,22.924,30.379,22.924,31.065z"/>
</g>
<g>
	<path d="M20.678,49.751c-0.441,0-0.547,0.007-0.771,0.035c0.078-0.554,0.1-0.658,0.203-0.925c0.176-0.441,0.471-0.826,0.91-1.204
		c0.246-0.211,0.26-0.218,1.072-0.771c0.693-0.47,0.924-0.777,0.924-1.205c0-0.532-0.447-0.875-1.162-0.875
		c-0.461,0-0.805,0.153-1.016,0.455c-0.133,0.188-0.195,0.357-0.244,0.707l-0.588-0.098c0.104-0.505,0.209-0.75,0.439-1.009
		c0.316-0.357,0.793-0.539,1.408-0.539c1.059,0,1.738,0.532,1.738,1.358c0,0.357-0.141,0.693-0.414,0.995
		c-0.211,0.237-0.393,0.371-1.191,0.903c-0.553,0.371-0.777,0.567-1.008,0.861c-0.217,0.287-0.314,0.477-0.398,0.813h2.232
		c0.352,0,0.59-0.015,0.855-0.049v0.588c-0.279-0.028-0.512-0.042-0.861-0.042H20.678z"/>
	<path d="M25.275,49.058v0.693h-0.693v-0.693H25.275z"/>
	<path d="M29.918,44.904c-0.125,0.098-0.244,0.252-0.518,0.673C28.77,46.55,28.475,47.146,28.203,48
		c-0.184,0.581-0.26,0.938-0.371,1.751h-0.666c0.225-1.268,0.412-1.898,0.848-2.795c0.336-0.7,0.637-1.184,1.26-2.03h-2.275
		c-0.33,0-0.525,0.014-0.791,0.049v-0.596c0.271,0.035,0.461,0.049,0.797,0.049h2.102c0.414,0,0.568-0.007,0.813-0.035V44.904z"/>
	<path d="M31.477,47.04c-0.252-0.245-0.385-0.658-0.385-1.176c0-0.938,0.449-1.492,1.219-1.492c0.764,0,1.211,0.546,1.211,1.492
		c0,0.518-0.133,0.931-0.385,1.176c-0.209,0.203-0.496,0.315-0.826,0.315C31.975,47.355,31.688,47.243,31.477,47.04z M31.561,45.864
		c0,0.686,0.273,1.078,0.75,1.078c0.469,0,0.742-0.393,0.742-1.078c0-0.693-0.266-1.079-0.742-1.079
		C31.828,44.785,31.561,45.178,31.561,45.864z M35.848,44.33l0.295,0.224l-4.246,5.372l-0.293-0.23L35.848,44.33z M34.607,49.576
		c-0.252-0.245-0.385-0.658-0.385-1.177c0-0.938,0.449-1.492,1.219-1.492s1.211,0.547,1.211,1.499c0,0.512-0.133,0.925-0.385,1.17
		c-0.209,0.203-0.496,0.314-0.826,0.314C35.105,49.891,34.818,49.786,34.607,49.576z M34.691,48.399c0,0.687,0.273,1.078,0.75,1.078
		c0.469,0,0.742-0.392,0.742-1.078c0-0.693-0.266-1.079-0.742-1.079C34.959,47.32,34.691,47.713,34.691,48.399z"/>
</g>
<g>
	<path d="M78.844,7.668c-0.441,0-0.547,0.007-0.771,0.035c0.078-0.554,0.1-0.658,0.203-0.925c0.176-0.441,0.471-0.826,0.91-1.204
		c0.246-0.211,0.26-0.218,1.072-0.771c0.693-0.47,0.924-0.777,0.924-1.205c0-0.532-0.447-0.875-1.162-0.875
		c-0.461,0-0.805,0.153-1.016,0.455c-0.133,0.188-0.195,0.357-0.244,0.707l-0.588-0.098c0.104-0.505,0.209-0.75,0.439-1.009
		c0.316-0.357,0.793-0.539,1.408-0.539c1.059,0,1.738,0.532,1.738,1.358c0,0.357-0.141,0.693-0.414,0.995
		c-0.211,0.237-0.393,0.371-1.191,0.903c-0.553,0.371-0.777,0.567-1.008,0.861c-0.217,0.287-0.314,0.477-0.398,0.813h2.232
		c0.352,0,0.59-0.015,0.855-0.049V7.71c-0.279-0.028-0.512-0.042-0.861-0.042H78.844z"/>
	<path d="M83.441,6.975v0.693h-0.693V6.975H83.441z"/>
	<path d="M85.066,2.31c0.182,0.028,0.314,0.035,0.58,0.035h0.441c0.238,0,0.35-0.007,0.582-0.035
		c-0.043,0.428-0.064,0.785-0.064,1.163v3.404c0,0.329,0.016,0.532,0.057,0.791h-0.664c0.041-0.245,0.055-0.47,0.055-0.791V2.821
		h-0.377c-0.225,0-0.406,0.014-0.609,0.042V2.31z"/>
	<path d="M89.643,4.957c-0.252-0.245-0.385-0.658-0.385-1.176c0-0.938,0.449-1.492,1.219-1.492c0.764,0,1.211,0.546,1.211,1.492
		c0,0.518-0.133,0.931-0.385,1.176c-0.209,0.203-0.496,0.315-0.826,0.315C90.141,5.272,89.854,5.16,89.643,4.957z M89.727,3.781
		c0,0.686,0.273,1.078,0.75,1.078c0.469,0,0.742-0.393,0.742-1.078c0-0.693-0.266-1.079-0.742-1.079
		C89.994,2.702,89.727,3.095,89.727,3.781z M94.014,2.247l0.295,0.224l-4.246,5.372l-0.293-0.23L94.014,2.247z M92.773,7.493
		c-0.252-0.245-0.385-0.658-0.385-1.177c0-0.938,0.449-1.492,1.219-1.492s1.211,0.547,1.211,1.499c0,0.512-0.133,0.925-0.385,1.17
		c-0.209,0.203-0.496,0.314-0.826,0.314C93.271,7.808,92.984,7.703,92.773,7.493z M92.857,6.316c0,0.687,0.273,1.078,0.75,1.078
		c0.469,0,0.742-0.392,0.742-1.078c0-0.693-0.266-1.079-0.742-1.079C93.125,5.237,92.857,5.63,92.857,6.316z"/>
</g>
<circle display="none" fill="none" stroke="#000000" stroke-width="0.5" stroke-miterlimit="10" cx="54.012" cy="64.007" r="26.929"/>
<path fill="none" stroke="#000000" stroke-width="0.5" stroke-miterlimit="10" d="M46.553,56.878
	c-3.165,0.445-6.063,1.113-9.103,2.102l8.156,25.102c1.49-0.491,3.034-0.853,4.618-1.074c1.2-0.168,2.422-0.263,3.662-0.263
	c0.042,0,0.083,0.003,0.125,0.003V56.356C51.525,56.356,49.015,56.532,46.553,56.878z"/>
<path fill="none" stroke="#000000" stroke-width="0.5" stroke-miterlimit="10" d="M45.606,84.081L37.45,58.979
	c-3.04,0.988-4.921,1.767-7.77,3.219l11.993,23.538C42.934,85.085,44.247,84.529,45.606,84.081z"/>
<path fill="none" stroke="#000000" stroke-width="0.5" stroke-miterlimit="10" d="M41.674,85.736L29.681,62.198
	c-3.481,1.773-6.36,3.643-9.396,6.102l16.639,20.547C38.391,87.652,39.983,86.609,41.674,85.736z"/>
<path fill="none" stroke="#000000" stroke-width="0.5" stroke-miterlimit="10" d="M36.923,88.847L20.284,68.3
	c-5.061,4.099-8.857,8.466-12.211,14.048l22.647,13.608C32.366,93.248,34.473,90.842,36.923,88.847z"/>
<path fill="none" stroke="#000000" stroke-width="0.5" stroke-miterlimit="10" d="M26.806,109.825c0-5.039,1.438-9.793,3.915-13.869
	L8.073,82.348c-13.232,22.022-9.402,49.276,9.388,66.799l18.158-19.473C30.227,124.697,26.806,117.602,26.806,109.825z"/>
<path fill="none" stroke="#000000" stroke-width="0.5" stroke-miterlimit="10" d="M54.012,56.356v26.391
	c14.707,0.07,26.956,12.357,26.956,27.078c0,14.763-12.318,27.081-27.081,27.081c-6.986,0-13.423-2.762-18.268-7.232l-18.158,19.473
	c10.391,9.689,22.343,14.397,36.551,14.397c29.599,0,53.594-23.995,53.594-53.594S83.61,56.356,54.012,56.356z"/>
<g>
	<g>
		<polyline fill="none" stroke="#000000" stroke-width="0.5" stroke-miterlimit="10" points="75.762,20.007 75.762,40.132 
			47.382,64.198 		"/>
		<g>
			<circle cx="47.432" cy="64.156" r="1.316"/>
		</g>
	</g>
</g>
<g>
	<g>
		<line fill="none" stroke="#000000" stroke-width="0.5" stroke-miterlimit="10" x1="30.096" y1="51.424" x2="35.43" y2="64.996"/>
		<g>
			<circle cx="35.405" cy="64.935" r="1.316"/>
		</g>
	</g>
</g>
<g>
	<g>
		<polyline fill="none" stroke="#000000" stroke-width="0.5" stroke-miterlimit="10" points="10.263,33.258 10.263,49.793 
			27.645,69.567 		"/>
		<g>
			<circle cx="27.601" cy="69.519" r="1.316"/>
		</g>
	</g>
</g>
<g>
	<g>
		<polyline fill="none" stroke="#000000" stroke-width="0.5" stroke-miterlimit="10" points="1.817,15.507 1.817,68.3 
			16.927,79.392 		"/>
		<g>
			<circle cx="16.874" cy="79.353" r="1.316"/>
		</g>
	</g>
</g>
</svg>
