<?xml version="1.0" encoding="utf-8"?>
<!-- Generator: Adobe Illustrator 16.0.3, SVG Export Plug-In . SVG Version: 6.00 Build 0)  -->
<!DOCTYPE svg PUBLIC "-//W3C//DTD SVG 1.1//EN" "http://www.w3.org/Graphics/SVG/1.1/DTD/svg11.dtd">
<svg version="1.1" id="朝鮮" xmlns="http://www.w3.org/2000/svg" xmlns:xlink="http://www.w3.org/1999/xlink" x="0px" y="0px"
	 width="314.015px" height="280.388px" viewBox="0 0 314.015 280.388" enable-background="new 0 0 314.015 280.388"
	 xml:space="preserve">
<g>
	<defs>
		<rect id="SVGID_1_" width="314.015" height="280.388"/>
	</defs>
	<clipPath id="SVGID_2_">
		<use xlink:href="#SVGID_1_"  overflow="visible"/>
	</clipPath>
	<polyline clip-path="url(#SVGID_2_)" fill="none" stroke="#000000" stroke-width="0.43" stroke-miterlimit="3.864" points="
		294.903,288.922 295.442,288.745 298.892,284.387 299.834,281.449 300.445,280.773 301.43,275.798 300.799,273.145 
		299.693,271.957 299.632,268.878 300.57,267.734 302.145,267.454 303.937,265.671 306.41,264.495 307.126,264.856 306.721,267.614 
		304.961,269.147 304.491,270.615 304.241,270.577 302.952,270.645 302.656,272.651 303.407,272.76 303.656,272.797 
		304.947,272.729 305.339,273.555 305.359,276.885 306.283,277.533 308.611,277.363 309.971,276.794 310.589,274.324 
		316.257,270.547 	"/>
	<polygon clip-path="url(#SVGID_2_)" fill="#FFFFFF" points="44.346,279.27 44.811,279.596 44.701,280.348 44.126,280.775 
		43.374,280.665 43.808,279.449 	"/>
	<polygon clip-path="url(#SVGID_2_)" fill="none" stroke="#000000" stroke-width="0.43" stroke-linejoin="round" points="
		44.346,279.27 44.811,279.596 44.701,280.348 44.126,280.775 43.374,280.665 43.808,279.449 	"/>
	<polygon clip-path="url(#SVGID_2_)" fill="#FFFFFF" points="45.81,279.743 45.199,280.42 45.625,280.995 45.878,281.032 
		46.487,280.354 46.561,279.854 	"/>
	<polygon clip-path="url(#SVGID_2_)" fill="none" stroke="#000000" stroke-width="0.43" stroke-linejoin="round" points="
		45.81,279.743 45.199,280.42 45.625,280.995 45.878,281.032 46.487,280.354 46.561,279.854 	"/>
	<path clip-path="url(#SVGID_2_)" fill="none" d="M56.545,286.694"/>
	<polyline clip-path="url(#SVGID_2_)" fill="none" points="163.62,291.919 164.483,291.279 163.768,290.917 162.766,290.772 
		162.339,290.196 163.127,290.053 164.1,288.66 163.42,288.048 163.355,286.758 162.819,286.937 161.893,286.288 162.149,284.534 
		160.648,284.314 159.722,283.667 160.083,282.951 159.838,281.121 160.838,281.268 160.161,280.658 157.521,279.502 
		155.659,279.998 154.699,279.6 154.121,280.028 154.01,280.779 153.977,281.031 153.474,280.956 152.758,280.596 152.333,280.021 
		152.229,278.983 151.518,278.623 150.98,278.799 151.333,279.874 150.795,280.049 150.085,279.689 149.09,277.752 148.302,277.895 
		147.555,277.783 147.369,279.037 146.795,279.462 146.499,281.469 145.712,281.61 145.106,280.496 144.997,281.248 
		145.174,281.786 143.74,282.855 143.244,282.782 142.814,282.207 143.886,281.852 143.961,281.353 143.25,280.992 143.82,280.563 
		144.32,280.635 144.609,280.423 144.43,279.884 143.931,279.81 143.36,280.24 143.036,280.704 142.534,280.631 142.033,280.557 
		142.145,279.804 140.319,280.048 139.604,279.688 139.355,279.652 138.604,279.542 138.428,279.002 139.002,278.576 
		140.004,278.722 140.289,278.506 139.578,278.146 139.363,277.861 139.687,277.397 140.398,277.757 140.687,277.544 
		141.222,277.367 141.045,276.828 140.298,276.719 139.798,276.644 139.006,276.783 136.723,276.705 134.755,276.162 
		134.328,275.585 134.904,275.158 135.515,274.478 136.05,274.302 136.78,271.082 138.287,269.51 137.437,268.361 138.26,267.97 
		138.545,267.756 138.369,267.219 138.729,266.504 139.731,266.651 140.551,266.26 140.166,265.433 140.276,264.682 
		140.467,261.638 141.039,261.21 141.842,257.489 143.242,256.67 142.424,255.269 143.071,254.341 141.895,253.655 142.903,252.011 
		143.477,251.584 144.089,250.905 143.124,250.507 141.4,251.79 140.4,251.645 137.795,250.238 137.293,250.164 133.439,248.574 
		133.043,249.542 133.072,251.081 131.924,251.936 132.073,250.934 131.504,249.57 131.401,248.531 129.262,247.447 127.23,245.614 
		127.054,245.077 126.69,245.792 121.646,247.1 119.962,248.131 118.921,248.235 118.21,247.874 117.813,248.84 116.487,249.157 
		115.912,249.587 115.523,248.759 114.165,249.33 113.088,249.682 113.481,250.507 112.366,251.112 111.617,251.002 
		110.507,251.607 107.924,253.532 106.988,254.676 103.479,255.953 100.145,257.766 100.286,258.556 99.926,259.27 99.101,259.661 
		99.203,260.701 98.881,261.166 98.095,261.305 98.058,261.557 97.984,262.058 97.122,262.699 96.121,262.551 95.76,263.267 
		95.723,263.518 95.4,263.982 94.363,264.086 92.966,264.904 93.07,265.942 92.456,266.621 91.634,267.014 90.097,267.042 
		89.559,267.221 87.085,268.393 85.838,268.21 86.021,266.957 85.417,265.844 86.813,265.026 87.246,263.81 90.008,262.422 
		92.054,260.676 91.41,259.813 92.059,258.883 92.85,258.744 93.569,257.313 94.607,257.21 94.431,256.672 93.929,256.598 
		92.031,257.344 90.281,257.085 89.928,256.01 89.75,255.473 90.662,250.998 89.807,249.85 90.744,248.705 93.538,247.069 
		94.224,245.889 96.668,243.175 97.496,240.993 99.439,238.205 99.946,236.488 99.42,234.874 98.953,234.552 97.74,234.116 
		96.638,232.929 94.461,232.1 94.107,231.024 94.792,229.844 93.9,228.946 91.678,230.155 90.324,228.93 89.639,230.112 
		85.563,230.026 83.198,232.239 83.088,232.99 83.761,233.6 83.113,234.529 81.253,235.024 79.551,239.64 77.005,241.313 
		76.249,242.993 73.203,244.595 72.451,244.484 70.156,246.194 69.118,246.298 68.437,247.479 66.574,247.973 64.704,250.259 
		62.805,251.005 62.048,252.685 60.755,254.543 60.136,257.013 59.593,258.981 59.017,259.41 57.723,261.267 56.114,261.798 
		52.609,261.284 48.2,263.453 48.098,262.415 45.993,261.081 42.418,261.066 40.984,262.138 40.662,262.603 39.976,263.78 
		39.291,264.961 38.894,265.928 38.389,267.643 37.81,268.071 37.548,271.618 38.858,274.883 41.35,277.039 42.169,278.439 
		42.021,279.443 42.625,280.554 43.302,281.166 44.053,281.276 44.513,281.6 44.441,282.103 44.616,282.64 45.229,281.96 
		45.979,282.07 46.09,281.319 46.911,280.929 48.064,280.072 49.35,280.006 51.137,280.013 52.167,281.701 54.883,282.354 
		56.024,283.29 56.838,284.69 56.155,285.869 	"/>
	<path clip-path="url(#SVGID_2_)" fill="none" d="M293.559-10.004c2.469,1.008,4.438,2.227,3.717,3.988s-5.719-1.106-6.229,1.152
		c-0.515,2.258,4.804,0.322,3.923,4.486c-0.883,4.164,0.304,6.294,2.128,7.863c1.825,1.569,2.116,0.865,2.646,5.606
		c0.524,4.741,1.933,5.316-1.283,10.169l-2.194,1.921l-0.151,4.834l-0.617,2.469l0.604,1.114l0.167,2.328l0.425,0.574l1.244,1.976
		l-0.397,0.964l0.78,1.652l0.179,0.537l0.637,0.861l1.719,0.509l-0.438,1.216l-1.221,1.355l-0.434,1.218l0.391,0.825l1.104,1.186
		l1.058,3.228l-0.369,2.505l-0.477,3.259l0.565,1.362l-0.221,1.505l0.965,0.397l-0.723,1.429l1.504,0.22l-1.599,5.653l0.958,2.19
		l-0.044,2.042l-1.656,2.572l-1.009,1.645l-2.449,4.503l-2.374,2.213l-0.217,1.503l-1.072,9.06l-1.727,1.284l-0.652,2.72
		l-1.469,1.319l-0.553,3.76l-0.864,0.642l-0.438,3.006l0.926,0.649l-0.33,2.255l-1.186,1.105l-1.021,5.226l-0.576,0.429
		l-1.662,4.363l-1.005,1.644l0.167,2.331l-3.413,4.105l-1.514,3.362l-3.132,3.892l-0.045,2.042l-1.431,1.069l-1.164,4.436
		l-1.363,0.57l-1.589,3.861l-0.295,2.006l-2.471,1.171l-0.611,0.681l-0.043,2.039l-1.111,0.606l-1.118,2.395l0.066,1.29l0.285-0.212
		l-1.725,3.075l0.46,0.323l-0.185,1.254l-1.294,1.856l-0.537,0.178l-1.047,1.894l-0.219,1.505l-0.937,1.142l-0.286,0.215
		l-1.432,1.07l-0.759,1.68l-9.405,8.348l-0.787,0.141l-1.505,1.571l-5.984,2.45l-1.223,1.354l-2.072,0.209l0.935-1.144l-1.144-0.935
		l-1.221,1.356l-1.36,0.569l-0.426-0.575l0.219-1.502l-0.676-0.612l-0.934,1.142l-1.751-0.257l-0.354-1.076l-1.001-0.147
		l-0.575,0.429l-0.685,1.178l-0.672-0.611l0.594-5.801l-0.89-0.898l-2.16,2.5l-1.321,0.317l-1.066-1.437l-2.066-1.582l-1.594,3.861
		l-0.581,2.217l-1.433,1.072l0.277,1.576l-2.44,2.712l0.134,2.581l-2.504-0.367l-0.86,0.641l-0.284,0.215l-1.466-0.471l-0.861,0.641
		l0.888,0.898l-0.396,0.966l0.28,1.578l0.713,0.361l-1.795,1.784l-0.789,0.14l-0.639-0.86l-1.392-0.973l-0.608,0.678l-0.943,2.933
		l-1.147,0.856l-0.719,1.43l-1.111,0.604l-0.075,0.501l-0.721,1.43l-0.186,1.254l-0.539,0.177l-0.688,2.97L196,208.86l-0.819,0.393
		l-0.074,0.501l-0.157,2.792l1.708,2.3l-0.51,1.717l0.206,2.077l0.392,0.825l0.458,2.116l-0.329,2.255l-1.403,0.819l-0.936,1.142
		l-1.359,0.568l-0.97,1.393l-1.253-0.183l-0.728,3.221l-4.055,3.247l-1.324,0.316l-0.893,0.895l0.423,0.575l0.249,0.036L181,239.683
		l-1.683,1.034l-2.506-0.368l-1.607,0.532l-0.51,1.717l-2.082,1.999l-1.751-0.256l-0.934,1.142l-0.008,1.791l1.141,0.935
		l-0.58,2.219l1.064,1.437l0.028,1.541l-0.498-0.073l-0.104-1.039l-0.501-0.074l-0.61,0.678l-0.507,1.717l1.138,0.935l2.644,1.158
		l1.537-0.032l1.459,2.262l1.602,1.26l4.996,2.524l-0.223,1.504l2.563,3.449l3.654,6.425l6.049,7.542l2.245,2.122l2.061,3.374
		l0.065,1.293l0.888,0.899l-0.146,1"/>
	<path clip-path="url(#SVGID_2_)" fill="none" stroke="#000000" stroke-width="0.43" stroke-linejoin="round" d="M56.545,286.694"/>
	<polyline clip-path="url(#SVGID_2_)" fill="none" stroke="#000000" stroke-width="0.43" stroke-linejoin="round" points="
		163.62,291.919 164.483,291.279 163.768,290.917 162.766,290.772 162.339,290.196 163.127,290.053 164.1,288.66 163.42,288.048 
		163.355,286.758 162.819,286.937 161.893,286.288 162.149,284.534 160.648,284.314 159.722,283.667 160.083,282.951 
		159.838,281.121 160.838,281.268 160.161,280.658 157.521,279.502 155.659,279.998 154.699,279.6 154.121,280.028 154.01,280.779 
		153.977,281.031 153.474,280.956 152.758,280.596 152.333,280.021 152.229,278.983 151.518,278.623 150.98,278.799 
		151.333,279.874 150.795,280.049 150.085,279.689 149.09,277.752 148.302,277.895 147.555,277.783 147.369,279.037 
		146.795,279.462 146.499,281.469 145.712,281.61 145.106,280.496 144.997,281.248 145.174,281.786 143.74,282.855 143.244,282.782 
		142.814,282.207 143.886,281.852 143.961,281.353 143.25,280.992 143.82,280.563 144.32,280.635 144.609,280.423 144.43,279.884 
		143.931,279.81 143.36,280.24 143.036,280.704 142.534,280.631 142.033,280.557 142.145,279.804 140.319,280.048 139.604,279.688 
		139.355,279.652 138.604,279.542 138.428,279.002 139.002,278.576 140.004,278.722 140.289,278.506 139.578,278.146 
		139.363,277.861 139.687,277.397 140.398,277.757 140.687,277.544 141.222,277.367 141.045,276.828 140.298,276.719 
		139.798,276.644 139.006,276.783 136.723,276.705 134.755,276.162 134.328,275.585 134.904,275.158 135.515,274.478 
		136.05,274.302 136.78,271.082 138.287,269.51 137.437,268.361 138.26,267.97 138.545,267.756 138.369,267.219 138.729,266.504 
		139.731,266.651 140.551,266.26 140.166,265.433 140.276,264.682 140.467,261.638 141.039,261.21 141.842,257.489 143.242,256.67 
		142.424,255.269 143.071,254.341 141.895,253.655 142.903,252.011 143.477,251.584 144.089,250.905 143.124,250.507 141.4,251.79 
		140.4,251.645 137.795,250.238 137.293,250.164 133.439,248.574 133.043,249.542 133.072,251.081 131.924,251.936 132.073,250.934 
		131.504,249.57 131.401,248.531 129.262,247.447 127.23,245.614 127.054,245.077 126.69,245.792 121.646,247.1 119.962,248.131 
		118.921,248.235 118.21,247.874 117.813,248.84 116.487,249.157 115.912,249.587 115.523,248.759 114.165,249.33 113.088,249.682 
		113.481,250.507 112.366,251.112 111.617,251.002 110.507,251.607 107.924,253.532 106.988,254.676 103.479,255.953 
		100.145,257.766 100.286,258.556 99.926,259.27 99.101,259.661 99.203,260.701 98.881,261.166 98.095,261.305 98.058,261.557 
		97.984,262.058 97.122,262.699 96.121,262.551 95.76,263.267 95.723,263.518 95.4,263.982 94.363,264.086 92.966,264.904 
		93.07,265.942 92.456,266.621 91.634,267.014 90.097,267.042 89.559,267.221 87.085,268.393 85.838,268.21 86.021,266.957 
		85.417,265.844 86.813,265.026 87.246,263.81 90.008,262.422 92.054,260.676 91.41,259.813 92.059,258.883 92.85,258.744 
		93.569,257.313 94.607,257.21 94.431,256.672 93.929,256.598 92.031,257.344 90.281,257.085 89.928,256.01 89.75,255.473 
		90.662,250.998 89.807,249.85 90.744,248.705 93.538,247.069 94.224,245.889 96.668,243.175 97.496,240.993 99.439,238.205 
		99.946,236.488 99.42,234.874 98.953,234.552 97.74,234.116 96.638,232.929 94.461,232.1 94.107,231.024 94.792,229.844 
		93.9,228.946 91.678,230.155 90.324,228.93 89.639,230.112 85.563,230.026 83.198,232.239 83.088,232.99 83.761,233.6 
		83.113,234.529 81.253,235.024 79.551,239.64 77.005,241.313 76.249,242.993 73.203,244.595 72.451,244.484 70.156,246.194 
		69.118,246.298 68.437,247.479 66.574,247.973 64.704,250.259 62.805,251.005 62.048,252.685 60.755,254.543 60.136,257.013 
		59.593,258.981 59.017,259.41 57.723,261.267 56.114,261.798 52.609,261.284 48.2,263.453 48.098,262.415 45.993,261.081 
		42.418,261.066 40.984,262.138 40.662,262.603 39.976,263.78 39.291,264.961 38.894,265.928 38.389,267.643 37.81,268.071 
		37.548,271.618 38.858,274.883 41.35,277.039 42.169,278.439 42.021,279.443 42.625,280.554 43.302,281.166 44.053,281.276 
		44.513,281.6 44.441,282.103 44.616,282.64 45.229,281.96 45.979,282.07 46.09,281.319 46.911,280.929 48.064,280.072 
		49.35,280.006 51.137,280.013 52.167,281.701 54.883,282.354 56.024,283.29 56.838,284.69 56.155,285.869 	"/>
	<path clip-path="url(#SVGID_2_)" fill="none" stroke="#000000" stroke-width="0.43" stroke-linejoin="round" d="M293.559-10.004
		c2.469,1.008,4.438,2.227,3.717,3.988s-5.719-1.106-6.229,1.152c-0.515,2.258,4.804,0.322,3.923,4.486
		c-0.883,4.164,0.304,6.294,2.128,7.863c1.825,1.569,2.116,0.865,2.646,5.606c0.524,4.741,1.933,5.316-1.283,10.169l-2.194,1.921
		l-0.151,4.834l-0.617,2.469l0.604,1.114l0.167,2.328l0.425,0.574l1.244,1.976l-0.397,0.964l0.78,1.652l0.179,0.537l0.637,0.861
		l1.719,0.509l-0.438,1.216l-1.221,1.355l-0.434,1.218l0.391,0.825l1.104,1.186l1.058,3.228l-0.369,2.505l-0.477,3.259l0.565,1.362
		l-0.221,1.505l0.965,0.397l-0.723,1.429l1.504,0.22l-1.599,5.653l0.958,2.19l-0.044,2.042l-1.656,2.572l-1.009,1.645l-2.449,4.503
		l-2.374,2.213l-0.217,1.503l-1.072,9.06l-1.727,1.284l-0.652,2.72l-1.469,1.319l-0.553,3.76l-0.864,0.642l-0.438,3.006l0.926,0.649
		l-0.33,2.255l-1.186,1.105l-1.021,5.226l-0.576,0.429l-1.662,4.363l-1.005,1.644l0.167,2.331l-3.413,4.105l-1.514,3.362
		l-3.132,3.892l-0.045,2.042l-1.431,1.069l-1.164,4.436l-1.363,0.57l-1.589,3.861l-0.295,2.006l-2.471,1.171l-0.611,0.681
		l-0.043,2.039l-1.111,0.606l-1.118,2.395l0.066,1.29l0.285-0.212l-1.725,3.075l0.46,0.323l-0.185,1.254l-1.294,1.856l-0.537,0.178
		l-1.047,1.894l-0.219,1.505l-0.937,1.142l-0.286,0.215l-1.432,1.07l-0.759,1.68l-9.405,8.348l-0.787,0.141l-1.505,1.571
		l-5.984,2.45l-1.223,1.354l-2.072,0.209l0.935-1.144l-1.144-0.935l-1.221,1.356l-1.36,0.569l-0.426-0.575l0.219-1.502l-0.676-0.612
		l-0.934,1.142l-1.751-0.257l-0.354-1.076l-1.001-0.147l-0.575,0.429l-0.685,1.178l-0.672-0.611l0.594-5.801l-0.89-0.898l-2.16,2.5
		l-1.321,0.317l-1.066-1.437l-2.066-1.582l-1.594,3.861l-0.581,2.217l-1.433,1.072l0.277,1.576l-2.44,2.712l0.134,2.581
		l-2.504-0.367l-0.86,0.641l-0.284,0.215l-1.466-0.471l-0.861,0.641l0.888,0.898l-0.396,0.966l0.28,1.578l0.713,0.361l-1.795,1.784
		l-0.789,0.14l-0.639-0.86l-1.392-0.973l-0.608,0.678l-0.943,2.933l-1.147,0.856l-0.719,1.43l-1.111,0.604l-0.075,0.501l-0.721,1.43
		l-0.186,1.254l-0.539,0.177l-0.688,2.97L196,208.86l-0.819,0.393l-0.074,0.501l-0.157,2.792l1.708,2.3l-0.51,1.717l0.206,2.077
		l0.392,0.825l0.458,2.116l-0.329,2.255l-1.403,0.819l-0.936,1.142l-1.359,0.568l-0.97,1.393l-1.253-0.183l-0.728,3.221
		l-4.055,3.247l-1.324,0.316l-0.893,0.895l0.423,0.575l0.249,0.036L181,239.683l-1.683,1.034l-2.506-0.368l-1.607,0.532l-0.51,1.717
		l-2.082,1.999l-1.751-0.256l-0.934,1.142l-0.008,1.791l1.141,0.935l-0.58,2.219l1.064,1.437l0.028,1.541l-0.498-0.073l-0.104-1.039
		l-0.501-0.074l-0.61,0.678l-0.507,1.717l1.138,0.935l2.644,1.158l1.537-0.032l1.459,2.262l1.602,1.26l4.996,2.524l-0.223,1.504
		l2.563,3.449l3.654,6.425l6.049,7.542l2.245,2.122l2.061,3.374l0.065,1.293l0.888,0.899l-0.146,1"/>
	<polygon clip-path="url(#SVGID_2_)" fill="#F2F2F3" points="221.011,118.578 220.033,121.762 217.167,123.901 215.951,123.467 
		218.217,120.217 219.474,118.608 	"/>
	<polygon clip-path="url(#SVGID_2_)" fill="none" stroke="#000000" stroke-width="0.43" stroke-linejoin="round" points="
		221.011,118.578 220.033,121.762 217.167,123.901 215.951,123.467 218.217,120.217 219.474,118.608 	"/>
	<polygon clip-path="url(#SVGID_2_)" fill="#F2F2F3" points="39.464,84.501 40.141,85.113 40.492,86.188 40.918,86.762 
		41.308,87.588 41.088,89.09 40.191,89.983 39.546,90.913 38.896,91.841 38.676,93.345 37.025,94.126 35.846,95.233 36.02,95.771 
		36.768,95.881 36.73,96.131 35.946,96.273 35.871,96.773 36.301,97.349 36.226,97.85 35.439,97.99 34.476,97.593 34.622,96.59 
		34.806,95.335 34.201,94.225 33.665,94.401 32.841,94.792 32.451,93.967 32.958,92.249 34.533,91.969 35.505,90.576 36.079,90.147 
		36.543,90.472 36.827,90.258 36.764,88.969 37.411,88.04 37.522,87.287 37.882,86.572 38.455,86.144 38.888,84.929 	"/>
	<polygon clip-path="url(#SVGID_2_)" fill="none" stroke="#000000" stroke-width="0.43" stroke-linejoin="round" points="
		39.464,84.501 40.141,85.113 40.492,86.188 40.918,86.762 41.308,87.588 41.088,89.09 40.191,89.983 39.546,90.913 38.896,91.841 
		38.676,93.345 37.025,94.126 35.846,95.233 36.02,95.771 36.768,95.881 36.73,96.131 35.946,96.273 35.871,96.773 36.301,97.349 
		36.226,97.85 35.439,97.99 34.476,97.593 34.622,96.59 34.806,95.335 34.201,94.225 33.665,94.401 32.841,94.792 32.451,93.967 
		32.958,92.249 34.533,91.969 35.505,90.576 36.079,90.147 36.543,90.472 36.827,90.258 36.764,88.969 37.411,88.04 37.522,87.287 
		37.882,86.572 38.455,86.144 38.888,84.929 	"/>
	
		<polyline clip-path="url(#SVGID_2_)" fill="none" stroke="#000000" stroke-width="0.57" stroke-miterlimit="3.864" stroke-dasharray="2.84,1.42" points="
		205.736,195.367 206.029,193.363 204.647,190.599 205.191,188.631 208.199,187.28 210.208,185.784 210.935,182.561 212.52,180.491 
		212.416,179.452 212.673,177.698 211.143,175.935 211.193,172.104 210.487,169.953 211.011,164.651 209.597,160.35 
		206.221,155.502 204.191,153.666 207.197,152.317 208.28,150.171 212.115,148.429 213.594,145.319 214.778,144.213 228.787,146.27 
		229.896,145.665 230.464,138.324 234.533,131.497 236.277,124.84 237.824,123.02 236.699,118.502 237.14,115.496 237.44,111.7 
		237.123,110.373 238.205,108.228 238.499,106.223 238.007,104.358 240.912,101.97 242.64,98.895 242.942,95.098 240.097,91.865 
		240.575,88.606 240.361,88.319 238.978,85.556 235.441,85.293 233.069,87.504 228.271,88.847 224.896,92.706 221.247,93.194 
		216.223,97.83 215.82,98.796 217.251,99.518 217.316,100.809 214.063,100.331 211.844,101.541 209.77,101.747 206.974,103.386 
		201.97,102.651 199.856,103.108 198.854,102.962 194.766,97.753 194.92,94.961 193.715,92.735 194.016,88.94 189.467,90.32 
		190.445,87.135 191.705,85.528 191.638,84.237 190.285,83.015 187.601,83.901 184.708,82.709 182.897,79.37 177.193,74.694 
		175.869,75.01 175.475,75.977 174.039,77.046 172.298,74.999 169.793,74.631 169.191,73.518 163.754,73.999 161.567,74.958 
		157.565,74.372 154.717,71.137 155.265,69.17 154.733,67.555 155.857,63.369 152.208,63.857 150.855,62.635 151.024,56.26 
		150.423,55.146 148.393,53.313 147.398,51.374 144.8,48.177 145.06,46.422 145.744,45.243 145.353,44.417 143.777,44.698 
		143.5,43.122 143.857,42.406 142.477,39.644 138.932,32.466 139.695,28.996 137.266,28.126 137.125,27.337 138.023,26.445 
		136.529,24.433 135.068,23.963 134.001,22.526 132.323,21.768 133.365,19.871 130.938,19.006 130.621,17.679 128.625,17.384 
		128.981,16.669 129.737,14.99 129.564,14.451 125.885,13.397 124.032,12.102 120.741,11.875 118.519,13.087 116.233,13.006 
		115.407,13.397 112.906,13.03 112.517,12.205 109.484,10.222 108.38,9.038 101.266,8.76 90.029,10.438 83.336,12.528 
		76.143,14.544 73.448,17.221 72.043,19.831 69.172,21.97 68.774,22.935 69.487,23.295 71.061,23.015 74.853,23.315 74.477,27.612 
		75.397,30.051 74.298,35.779 71.818,38.743 67.685,44.28 66.921,47.751 65.293,51.863 63.461,53.9 62.16,57.549 59.634,62.555 
		59.118,66.063 59.902,67.714 59.961,70.795 58.663,72.653 55.015,73.141 50.174,76.526 41.971,80.185 40.146,80.429 34.89,79.657 
		30.081,75.879 27.512,82.927 22.398,91.648 21.846,95.408 18.58,98.513 17.771,104.024 16.837,105.168 16.247,109.178 
		17.704,111.44 19.67,111.984 23.111,109.418 26.653,109.683 29.088,108.759 32.803,109.56 35.471,112.256 37.116,113.266 
		38.8,112.232 40.889,108.443 42.897,106.947 44.185,106.88 51.615,108.482 52.756,109.418 63.33,120.955 67.097,126.627 
		66.829,130.174 66.22,130.852 61.932,130.478 59.669,131.937 54.528,130.415 52.703,130.658 47.414,130.137 44.507,132.528 
		39.319,133.045 36.664,135.472 31.301,135.453 27.18,137.408 26.164,140.842 24.047,143.092 22.279,146.417 13.781,152.081 
		5.416,151.622 3.27,152.331 1.325,155.117 -1.081,157.58 -5.164,159.284 -9.791,162.958 -12.757,162.266 -17.835,162.032 
		-20.651,160.339 	"/>
	
		<polyline clip-path="url(#SVGID_2_)" fill="none" stroke="#000000" stroke-width="0.57" stroke-miterlimit="3.864" stroke-dasharray="2.84,1.42" points="
		238.978,85.556 240.84,85.062 241.84,85.208 242.156,86.536 240.973,87.641 240.361,88.319 	"/>
	
		<polyline clip-path="url(#SVGID_2_)" fill="none" stroke="#000000" stroke-width="0.57" stroke-miterlimit="3.864" stroke-dasharray="2.84,1.42" points="
		-17.959,79.323 -14.345,79.087 -9.322,74.447 -7.199,72.198 1.65,67.609 10.119,69.111 13.68,72.704 16.856,73.683 18.785,74.477 
		21.037,74.809 24.158,72.705 26.944,72.859 30.081,75.879 	"/>
	<path clip-path="url(#SVGID_2_)" fill="#FFFFFF" d="M305.748-13.655"/>
	<path clip-path="url(#SVGID_2_)" fill="#FFFFFF" d="M318.649,54.062l-1.489-2.012l0.152-2.793l-1.172-2.477l-0.483-3.655
		l-0.14-0.788l0.043-2.042l-3.584-6.926c0,0-0.569-4.154-0.192-5.477c1.793-3.381,1.811-5.431-0.369-7.145
		c-2.179-1.713-3.588-2.291-5.637-2.307c-2.048-0.017-3.025-1.649-2.305-3.412c0.72-1.763,0.654-2.61-0.386-5.093
		c-1.042-2.482-2.289-5.461-2.194-8.713c0.097-3.25-0.753-3.187,0.32-4.805c1.071-1.619,0.018-2.05-1.664-3.971
		c-1.682-1.922-0.962-3.684-0.241-5.447"/>
	<path clip-path="url(#SVGID_2_)" fill="none" stroke="#000000" stroke-width="0.43" stroke-miterlimit="3.864" d="M305.748-13.655"
		/>
	<path clip-path="url(#SVGID_2_)" fill="none" stroke="#000000" stroke-width="0.43" stroke-miterlimit="3.864" d="M318.649,54.062
		l-1.489-2.012l0.152-2.793l-1.172-2.477l-0.483-3.655l-0.14-0.788l0.043-2.042l-3.584-6.926c0,0-0.569-4.154-0.192-5.477
		c1.793-3.381,1.811-5.431-0.369-7.145c-2.179-1.713-3.588-2.291-5.637-2.307c-2.048-0.017-3.025-1.649-2.305-3.412
		c0.72-1.763,0.654-2.61-0.386-5.093c-1.042-2.482-2.289-5.461-2.194-8.713c0.097-3.25-0.753-3.187,0.32-4.805
		c1.071-1.619,0.018-2.05-1.664-3.971c-1.682-1.922-0.962-3.684-0.241-5.447"/>
	<polyline clip-path="url(#SVGID_2_)" fill="none" stroke="#000000" stroke-width="0.43" stroke-miterlimit="3.864" points="
		294.903,288.922 295.442,288.745 298.892,284.387 299.834,281.449 300.445,280.773 301.43,275.798 300.799,273.145 
		299.693,271.957 299.632,268.878 300.57,267.734 302.145,267.454 303.937,265.671 306.41,264.495 307.126,264.856 306.721,267.614 
		304.961,269.147 304.491,270.615 304.241,270.577 302.952,270.645 302.656,272.651 303.407,272.76 303.656,272.797 
		304.947,272.729 305.339,273.555 305.359,276.885 306.283,277.533 308.611,277.363 309.971,276.794 310.589,274.324 
		316.257,270.547 	"/>
	<polygon clip-path="url(#SVGID_2_)" fill="#FFFFFF" points="88.325,254.751 88.897,254.323 89.221,253.86 89.082,253.069 
		87.182,253.815 87.035,254.818 	"/>
	<polygon clip-path="url(#SVGID_2_)" fill="none" stroke="#000000" stroke-width="0.43" stroke-miterlimit="3.864" points="
		88.325,254.751 88.897,254.323 89.221,253.86 89.082,253.069 87.182,253.815 87.035,254.818 	"/>
	<path clip-path="url(#SVGID_2_)" fill="none" stroke="#727171" stroke-width="0.425" stroke-miterlimit="3.864" d="M54.533,285.066
		c1.225-0.265,2.304-0.551,2.304-0.551"/>
	<path clip-path="url(#SVGID_2_)" fill="none" stroke="#000000" stroke-width="0.28" stroke-miterlimit="3.864" d="M317.732,146.358
		 M281.851-7.456l35.882,153.814 M281.851-7.456 M208.843,286.54 M173.504-7.919l35.339,294.459 M173.504-7.919 M70.165,286.368
		 M66.579-8.371l3.586,294.739 M66.579-8.371 M314.667,219.121 M-15.389,244.608c72.93,4.145,144.5,2.723,218.408-6.876
		c46.413-6.027,81.497-12.149,111.647-18.611 M-15.389,244.608 M320.817,43.508 M-14.874,68.706
		c29.842,2.075,57.451,2.937,82.353,3.178c65.642,0.637,160.222-6.577,253.339-28.375 M-14.874,68.706"/>
	
		<path clip-path="url(#SVGID_2_)" fill="none" stroke="#000000" stroke-width="0.57" stroke-miterlimit="3.864" stroke-dasharray="2.84,1.42" d="
		M75.655,242.971c0,0-0.268-1.331-1.31-1.503c-1.043-0.173-2.418-0.592-3.976,0.644c0,0-5.294,0.067-5.995,0.217
		c0,0-8.232-5.847-8.553-5.431l-2.008,1.564c0,0-1.018,0.056-1.495,0.619c-0.481,0.562-1.405,2.5-4.147,1.967
		c-2.744-0.532-3.777-1.167-4.059-2.11c-0.275-0.943-1.358-3.441-2.274-3.397c-0.916,0.045-1.801-0.162-2.741,1.208
		c-0.806,1.176-1.318,1.126-1.761,1.172c0,0-1.28,0.491-1.969-0.205c-0.685-0.696-1.347-1.958-1.881-2.174
		c-0.535-0.218-1.438-0.227-2.734-1.866c-1.296-1.639-2.254-3.261-3.125-4.11c-0.872-0.846-1.696-1.561-1.994-4.399
		c-0.298-2.833,0.086-6.867,1.173-9.028c1.091-2.159,1.695-2.904,1.703-3.281c0.016-0.375,0.267-0.897,0.474-1.073
		c0.204-0.175,1.52-0.635,1.671-1.146c0.15-0.509,0.362-0.941,0.76-1.205c0.401-0.263,1.379-0.366,1.801-0.084
		c0.421,0.279,0.65,0,0.796-0.22c0.147-0.222,0.296-0.44,0.029-0.89c-0.274-0.45-0.833-0.597-0.507-2.388
		c0.324-1.792,1.534-3.452,1.657-4.215c0.125-0.764,0.921-3.439-0.054-5.266c-0.977-1.826-2.659-2.265-3.232-4.184
		c-0.575-1.918-0.569-1.853-1.322-2.541c-0.757-0.688-2.18-1.241-2.307-2.456c-0.124-1.215,0.555-1.747,1.097-2.111
		c0.542-0.363,1.323-1.196,1.534-1.474c0.209-0.277,0.746-0.691,1.336-0.752c0.593-0.062,1.321,0.544,3.229,0.345
		c1.905-0.199,2.128-0.172,4.309-1.695c2.178-1.523,2.602-1.397,3.059-1.445c0.455-0.046,2.723-1.204,4.24-2.846
		c1.521-1.643,3.164-1.882,3.761-1.743c0.591,0.146,5.68,1.816,5.712,1.3c0.032-0.515,0.09-0.624-0.171-0.99
		c-0.26-0.364-0.654-1.04-0.688-1.377c-0.036-0.339,0.7-1.13,0.715-1.302c0.018-0.174-0.423-0.656,0.624-1.737
		c1.045-1.083,3.826-3.292,4.557-3.65c0.73-0.357-0.117-1.625,0.105-2.441c0.222-0.816,2.046-2.466,2.134-3.832
		c0.085-1.366-0.201-3.152,0.086-3.567c0.293-0.413,2.036-1.593,1.852-3.363c-0.183-1.774-1.043-4.858-0.569-5.702
		c0.475-0.841,3.3-3.952,3.537-4.615c0.237-0.664,0.503-1.563,1.094-2.289c0.586-0.728,1.938-2.251,1.854-3.061
		c-0.08-0.809-1.314-2.063-1.704-2.357c-0.389-0.291-1.202-0.999-1.309-1.988c-0.1-0.985,0.845-5.18,0.452-5.752l-2.021-2.12"/>
	<path clip-path="url(#SVGID_2_)" fill="#F9F7BF" d="M206.742,197.146l-1.006-1.78l-0.892-0.898l-5.982-6.256l-3.251-0.477
		l-1.274,5.19l-1.156,2.646l-2.86,0.349l-2.036-0.042l-1.759,1.533l-0.805,3.724l-1.295,1.857l-3.62,2.027l-6.508,0.837
		l-1.149,0.856l-0.258,1.754l3.162,4.56l-0.58,2.218l-1.184,1.107l-1.609,0.529l-9.942-0.176l-1.282-1.726l0.264-3.543l-0.639-0.864
		l-0.964-0.397l-2.435,0.924l-2.368,2.211l-0.882,6.014l-3.307,3.355l-2.412,4.255l-4.261,1.166l-1.654,2.574l-2.435,0.92
		l-0.936,1.143l-3.479,2.818l-1.973,1.245l-5.423,5.606l-1.752,3.227l0.253-0.556l-0.363,0.715l-5.044,1.308l-1.685,1.032
		l-1.041,0.104l-0.711-0.362l-0.396,0.966l-1.326,0.317l-0.575,0.43l-0.389-0.828l-1.358,0.571l-1.077,0.353l0.394,0.825
		l-1.115,0.605l-0.749-0.11l-1.11,0.605l-2.583,1.925l-0.936,1.144l-3.509,1.277l-3.335,1.813l0.142,0.79l-0.36,0.714l-0.825,0.391
		l0.103,1.04l-0.322,0.465l-0.786,0.14l-0.037,0.252l-0.073,0.5l-0.862,0.641l-1.001-0.147l-0.361,0.715l-0.037,0.251l-0.322,0.464
		l-1.037,0.104l-1.397,0.818l0.104,1.038l-0.614,0.679l-0.822,0.393l-1.537,0.028l-0.538,0.179l-2.474,1.172l-1.247-0.183
		l0.184-1.253l-0.604-1.112l1.396-0.818l0.434-1.216l2.762-1.388l2.046-1.746l-0.644-0.863l0.648-0.93l0.791-0.14l0.72-1.431
		l1.038-0.103l-0.177-0.538l-0.502-0.074l-1.897,0.747l-1.75-0.259l-0.354-1.075l-0.178-0.537l0.912-4.475l-0.855-1.148l0.938-1.145
		l2.794-1.636l0.686-1.18l2.444-2.714l0.828-2.182l1.943-2.788l0.507-1.716l-0.526-1.614l-0.467-0.322l-1.213-0.436l-1.103-1.187
		l-2.177-0.829l-0.354-1.076l0.685-1.18l-0.892-0.898l-2.223,1.209l-1.354-1.225l-0.686,1.182l-4.076-0.086l-2.364,2.213
		l-0.11,0.751l0.673,0.61l-0.647,0.93l-1.86,0.495l-1.702,4.616l-2.546,1.673l-0.756,1.68l-0.563,0.295l-0.031-0.317
		c0,0-0.268-1.331-1.31-1.503c-1.043-0.173-2.418-0.592-3.976,0.644c0,0-5.294,0.067-5.995,0.217c0,0-8.232-5.847-8.553-5.431
		l-2.008,1.564c0,0-1.018,0.056-1.495,0.619c-0.481,0.562-1.405,2.5-4.147,1.967c-2.744-0.532-3.777-1.167-4.059-2.11
		c-0.275-0.943-1.358-3.441-2.274-3.397c-0.916,0.045-1.801-0.162-2.741,1.208c-0.806,1.176-1.318,1.126-1.761,1.172
		c0,0-1.28,0.491-1.969-0.205c-0.685-0.696-1.347-1.958-1.881-2.174c-0.535-0.218-1.438-0.227-2.734-1.866
		c-1.296-1.639-2.254-3.261-3.125-4.11c-0.872-0.846-1.696-1.561-1.994-4.399c-0.298-2.833,0.086-6.867,1.173-9.028
		c1.091-2.159,1.695-2.904,1.703-3.281c0.016-0.375,0.267-0.897,0.474-1.073c0.204-0.175,1.52-0.635,1.671-1.146
		c0.15-0.509,0.362-0.941,0.76-1.205c0.401-0.263,1.379-0.366,1.801-0.084c0.421,0.279,0.65,0,0.796-0.22
		c0.147-0.222,0.296-0.44,0.029-0.89c-0.274-0.45-0.833-0.597-0.507-2.388c0.324-1.792,1.534-3.452,1.657-4.215
		c0.125-0.764,0.921-3.439-0.054-5.266c-0.977-1.826-2.659-2.265-3.232-4.184c-0.575-1.918-0.569-1.853-1.322-2.541
		c-0.757-0.688-2.18-1.241-2.307-2.456c-0.124-1.215,0.555-1.747,1.097-2.111c0.542-0.363,1.323-1.196,1.534-1.474
		c0.209-0.277,0.746-0.691,1.336-0.752c0.593-0.062,1.321,0.544,3.229,0.345c1.905-0.199,2.128-0.172,4.309-1.695
		c2.178-1.523,2.602-1.397,3.059-1.445c0.455-0.046,2.723-1.204,4.24-2.846c1.521-1.643,3.164-1.882,3.761-1.743
		c0.591,0.146,5.68,1.816,5.712,1.3c0.032-0.515,0.09-0.624-0.171-0.99c-0.26-0.364-0.654-1.04-0.688-1.377
		c-0.036-0.339,0.7-1.13,0.715-1.302c0.018-0.174-0.423-0.656,0.624-1.737c1.045-1.083,3.826-3.292,4.557-3.65
		c0.73-0.357-0.117-1.625,0.105-2.441c0.222-0.816,2.046-2.466,2.134-3.832c0.085-1.366-0.201-3.152,0.086-3.567
		c0.293-0.413,2.036-1.593,1.852-3.363c-0.183-1.774-1.043-4.858-0.569-5.702c0.475-0.841,3.3-3.952,3.537-4.615
		c0.237-0.664,0.503-1.563,1.094-2.289c0.586-0.728,1.938-2.251,1.854-3.061c-0.08-0.809-1.314-2.063-1.704-2.357
		c-0.389-0.291-1.202-0.999-1.309-1.988c-0.1-0.985,0.845-5.18,0.452-5.752l-2.021-2.12l-3.767-5.672l-10.574-11.537l-1.141-0.936
		l-7.431-1.603l-1.287,0.067l-2.009,1.496l-2.089,3.789l-1.684,1.034l-1.646-1.01l-2.668-2.696l-3.715-0.8l-2.435,0.923
		l-3.542-0.265l-3.441,2.566l-1.966-0.544l-1.457-2.262l0.59-4.01l0.934-1.144l0.81-5.512l3.266-3.105l0.553-3.759l5.113-8.721
		l2.569-7.048l4.809,3.778l5.257,0.772l1.824-0.244l8.203-3.659l4.841-3.385l3.648-0.487l1.298-1.858l-0.059-3.082l-0.784-1.651
		l0.516-3.508l2.526-5.006l1.301-3.648l1.832-2.037l1.628-4.112l0.764-3.472l4.134-5.537l2.479-2.963l1.1-5.729l-0.921-2.439
		l0.376-4.297l-3.792-0.3l-1.573,0.28l-0.713-0.36l0.397-0.965l2.871-2.139l1.405-2.61l2.694-2.676l7.193-2.016l6.693-2.09
		l11.236-1.678l7.114,0.278l1.104,1.185l3.032,1.983l0.39,0.825l2.501,0.367l0.826-0.391l2.285,0.081l2.223-1.212l3.291,0.227
		l1.853,1.296l3.68,1.054l0.173,0.539l-0.756,1.68l-0.356,0.715l1.996,0.294l0.317,1.328l2.427,0.865l-1.042,1.897l1.678,0.758
		l1.067,1.437l1.461,0.47l1.494,2.012l-0.898,0.892l0.141,0.789l2.43,0.869l-0.764,3.471l3.545,7.177l1.381,2.763l-0.357,0.715
		l0.277,1.576l1.575-0.28l0.392,0.826l-0.685,1.179l-0.26,1.755l2.599,3.196l0.994,1.939l2.03,1.834l0.602,1.114l-0.169,6.375
		l1.353,1.222l3.649-0.488l-1.124,4.187l0.531,1.615l-0.548,1.967l2.849,3.235l4.002,0.586l2.187-0.96l5.438-0.481l0.602,1.114
		l2.505,0.367l1.741,2.048l1.436-1.069l0.395-0.967l1.324-0.316l5.704,4.676l1.811,3.339l2.893,1.192l2.685-0.887l1.353,1.222
		l0.067,1.292l-1.26,1.606l-0.979,3.186l4.549-1.38l-0.301,3.795l1.205,2.226l-0.154,2.792l4.088,5.208l1.003,0.146l2.113-0.458
		l5.004,0.735l2.796-1.639l2.074-0.207l2.219-1.209l3.254,0.478l-0.065-1.291l-1.431-0.722l0.402-0.966l5.024-4.636l3.648-0.488
		l3.376-3.858l4.798-1.343l2.372-2.211l3.536,0.263l1.384,2.763l0.214,0.288l-0.479,3.258l2.846,3.233l-0.303,3.797l-1.728,3.075
		l-2.905,2.389l0.492,1.865l-0.294,2.004l-1.082,2.145l0.317,1.327l-0.301,3.796l-0.44,3.006l1.125,4.518l-1.547,1.82l-1.744,6.657
		l-4.069,6.827l-0.568,7.341l-1.108,0.605l-14.009-2.057l-1.185,1.106l-1.479,3.11l-3.835,1.742l-1.083,2.146l-3.006,1.349
		l2.029,1.837l3.376,4.847l1.414,4.302l-0.523,5.301l0.706,2.151l-0.051,3.832l1.53,1.763l-0.257,1.753l0.104,1.039l-1.585,2.07
		l-0.727,3.223l-2.009,1.496l-3.008,1.351l-0.544,1.968l1.382,2.764l-0.293,2.004"/>
	<g id="レイヤー_10" clip-path="url(#SVGID_2_)">
		<path fill="#FFFFFF" stroke="#000000" stroke-width="0.25" d="M86.548,268.678l-1.42-0.936
			c1.775-2.694,13.671-10.251,16.438-11.987l-1.424-20.898l0.045-0.149l5.565-18.3l23.131-49.176l19.813-39.163l-58.575-26.106
			l-5.029-21.262l-13.402-3.272l-25.422,6.189l-0.157-0.021c-13.497-1.765-15.518-7.204-15.732-7.95l-11.285-29.47l1.588-0.608
			l11.335,29.626c0.01,0.036,1.46,4.997,14.159,6.696l25.515-6.212l14.816,3.618l5.076,21.457l59.437,26.49l-0.058,0.115
			c1.671,1.131,6.308,4.567,12.373,11.51c16.667,19.076,41.913,21.757,42.166,21.782c2.563,0.452,20.354,6.328,21.11,6.578
			l-0.533,1.614c-6.365-2.104-18.905-6.171-20.809-6.509c-0.193-0.016-26.093-2.75-43.214-22.347
			c-5.691-6.514-10.153-9.901-11.87-11.094l-19.773,39.085l-23.095,49.098l-5.458,17.977l1.473,21.605l-0.434,0.27
			C97.027,260.585,87.829,266.733,86.548,268.678z"/>
		<path fill="none" stroke="#000000" stroke-width="1.7" stroke-dasharray="6,6" d="M149.857,127.656c0,0,5.338,3.188,12.837,11.771
			c17.098,19.569,42.723,22.069,42.723,22.069c2.467,0.438,20.927,6.539,20.927,6.539 M85.838,268.21
			c1.849-2.806,16.61-12.004,16.61-12.004L101,234.955l5.521-18.185l23.131-49.176l20.205-39.938l-59.006-26.298l-5.053-21.359
			l-14.109-3.445l-25.469,6.201c-13.77-1.8-15.034-7.372-15.034-7.372l-11.3-29.51"/>
		<path fill="#FFFFFF" stroke="#000000" stroke-width="0.25" d="M-32.834,41.451c24.919,1.887,53.955,3.95,58.58,3.696
			c4.857-0.265,8.489-10.399,11.407-18.542c1.758-4.907,3.276-9.145,4.905-10.916c2.561-2.786,8.393-1.603,14.568-0.351
			c4.852,0.983,9.868,2.001,12.113,0.657c0.857-0.513,1.831-1.273,2.958-2.154c5.888-4.602,15.744-12.303,39.396-10.365
			c23.816,1.951,41.01,21.181,51.238,36.97c10.781,16.64,16.32,32.951,17.03,35.548c3.263,1.522,36.983,3.424,57.839,4.278
			l0.211,0.008l0.184,0.107c17.239,10.095,5.612,34.597,4.771,36.31c-6.741,27.145-11.963,42.96-15.157,51.451
			c-0.047,0.123-4.652,12.324-6.018,12.552l-0.14-0.838l-0.702-0.479c0.074-0.109,7.571-11.552,20.389-63.185l0.068-0.183
			c0.125-0.244,12.235-24.383-3.89-34.054c-1.861-0.078-15.463-0.655-28.942-1.471c-29.864-1.808-30.043-2.877-30.215-3.912
			c-0.186-1.065-5.711-18.021-16.879-35.246C150.864,25.88,134.07,7.063,110.956,5.17c-22.992-1.887-32.519,5.562-38.211,10.01
			c-1.172,0.916-2.185,1.707-3.132,2.274c-2.813,1.682-7.918,0.647-13.324-0.45c-5.188-1.052-11.066-2.244-12.979-0.165
			c-1.396,1.519-2.932,5.803-4.557,10.339c-3.249,9.065-6.931,19.34-12.916,19.666c-4.757,0.263-33.808-1.8-58.756-3.69"/>
		<path fill="none" stroke="#000000" stroke-width="1.7" stroke-dasharray="6,6" d="M221.053,179.861
			c-0.001,0.001,7.459-10.878,20.512-63.459c0,0,12.894-25.156-4.397-35.281c0,0-58.185-2.384-58.568-4.683
			c-0.384-2.296-22.368-68.413-67.573-72.116c-28.027-2.298-36.474,9.186-41.849,12.402c-5.376,3.215-22.269-5.054-26.492-0.46
			c-4.224,4.594-8.446,29.271-16.893,29.731c-4.68,0.255-33.639-1.8-58.537-3.685"/>
	</g>
	<path clip-path="url(#SVGID_2_)" fill="none" d="M293.559-10.004c2.469,1.008,4.438,2.227,3.717,3.988s-5.719-1.106-6.229,1.152
		c-0.515,2.258,4.804,0.322,3.923,4.486c-0.883,4.164,0.304,6.294,2.128,7.863c1.825,1.569,2.116,0.865,2.646,5.606
		c0.524,4.741,1.933,5.316-1.283,10.169l-2.194,1.921l-0.151,4.834l-0.617,2.469l0.604,1.114l0.167,2.328l0.425,0.574l1.244,1.976
		l-0.397,0.964l0.78,1.652l0.179,0.537l0.637,0.861l1.719,0.509l-0.438,1.216l-1.221,1.355l-0.434,1.218l0.391,0.825l1.104,1.186
		l1.058,3.228l-0.369,2.505l-0.477,3.259l0.565,1.362l-0.221,1.505l0.965,0.397l-0.723,1.429l1.504,0.22l-1.599,5.653l0.958,2.19
		l-0.044,2.042l-1.656,2.572l-1.009,1.645l-2.449,4.503l-2.374,2.213l-0.217,1.503l-1.072,9.06l-1.727,1.284l-0.652,2.72
		l-1.469,1.319l-0.553,3.76l-0.864,0.642l-0.438,3.006l0.926,0.649l-0.33,2.255l-1.186,1.105l-1.021,5.226l-0.576,0.429
		l-1.662,4.363l-1.005,1.644l0.167,2.331l-3.413,4.105l-1.514,3.362l-3.132,3.892l-0.045,2.042l-1.431,1.069l-1.164,4.436
		l-1.363,0.57l-1.589,3.861l-0.295,2.006l-2.471,1.171l-0.611,0.681l-0.043,2.039l-1.111,0.606l-1.118,2.395l0.066,1.29l0.285-0.212
		l-1.725,3.075l0.46,0.323l-0.185,1.254l-1.294,1.856l-0.537,0.178l-1.047,1.894l-0.219,1.505l-0.937,1.142l-0.286,0.215
		l-1.432,1.07l-0.759,1.68l-9.405,8.348l-0.787,0.141l-1.505,1.571l-5.984,2.45l-1.223,1.354l-2.072,0.209l0.935-1.144l-1.144-0.935
		l-1.221,1.356l-1.36,0.569l-0.426-0.575l0.219-1.502l-0.676-0.612l-0.934,1.142l-1.751-0.257l-0.354-1.076l-1.001-0.147
		l-0.575,0.429l-0.685,1.178l-0.672-0.611l0.594-5.801l-0.89-0.898l-2.16,2.5l-1.321,0.317l-1.066-1.437l-2.066-1.582l-1.594,3.861
		l-0.581,2.217l-1.433,1.072l0.277,1.576l-2.44,2.712l0.134,2.581l-2.504-0.367l-0.86,0.641l-0.284,0.215l-1.466-0.471l-0.861,0.641
		l0.888,0.898l-0.396,0.966l0.28,1.578l0.713,0.361l-1.237,1.229"/>
	<path clip-path="url(#SVGID_2_)" d="M54.218,263.997c0-0.608-0.033-1.024-0.097-1.488h1.185c-0.064,0.464-0.096,0.864-0.096,1.488
		v1.089h0.928c0.576,0,0.992-0.017,1.441-0.08v1.04c-0.385-0.048-0.785-0.063-1.441-0.063h-2.08
		c-0.017,0.304-0.017,0.544-0.017,0.688c0,0.337-0.032,0.816-0.063,1.457h1.84c0.689,0,0.881,0,1.186-0.032
		c-0.049,0.416-0.049,0.416-0.064,2.097c-0.032,2.001-0.16,3.649-0.368,4.851c-0.224,1.168-0.56,1.456-1.681,1.456
		c-0.385,0-0.672-0.016-1.201-0.08c-0.031-0.496-0.08-0.769-0.176-1.024c0.449,0.097,0.945,0.16,1.361,0.16
		c0.576,0,0.688-0.176,0.832-1.328c0.176-1.329,0.24-2.657,0.256-5.202h-2.017c-0.16,2.48-0.208,2.929-0.448,4.05
		c-0.305,1.408-0.881,2.641-1.761,3.793c-0.288-0.416-0.433-0.576-0.753-0.832c1.617-2.065,1.985-3.81,2.098-10.052h-0.272
		c-0.72,0-1.104,0.016-1.505,0.079v-1.072c0.416,0.064,0.881,0.097,1.553,0.097h1.361V263.997z M59.355,265.437
		c-0.593,1.057-1.009,1.633-1.889,2.642c-0.257-0.272-0.448-0.4-0.849-0.576c0.929-0.961,1.408-1.585,1.938-2.577
		c0.496-0.881,0.832-1.777,0.912-2.354l1.088,0.24c-0.08,0.177-0.128,0.272-0.256,0.593c-0.208,0.528-0.305,0.768-0.465,1.12h4.194
		c0.769,0,1.265-0.032,1.633-0.096v1.072c-0.464-0.048-0.929-0.064-1.601-0.064H59.355z M65.534,268.926
		c-0.961,0.993-1.682,1.617-2.737,2.354c0.256,0.656,0.593,1.36,0.944,1.921c0.592,0.992,1.168,1.633,2.209,2.513
		c-0.305,0.32-0.448,0.544-0.672,1.009c-1.633-1.553-2.465-2.754-3.234-4.723c-0.416-1.072-0.656-2.08-0.88-3.585
		c-0.399,0.24-0.593,0.353-0.977,0.561v6.242c0,0.656,0.032,1.168,0.097,1.633h-1.169c0.063-0.416,0.097-0.881,0.097-1.633v-5.746
		c-0.545,0.256-0.753,0.352-1.297,0.592c-0.145-0.4-0.24-0.561-0.512-0.912c1.52-0.513,2.592-1.041,3.921-1.953
		c0.833-0.544,1.553-1.152,1.856-1.536l0.832,0.704c-0.24,0.144-0.271,0.176-0.736,0.561c-0.367,0.304-0.896,0.688-1.279,0.96
		c0.176,1.249,0.239,1.553,0.496,2.481c0.943-0.593,1.6-1.217,2.305-2.161L65.534,268.926z"/>
	<path clip-path="url(#SVGID_2_)" d="M69.049,262.78c-0.063,0.4-0.08,0.736-0.08,1.617v3.985c0,3.97-0.353,6.227-1.249,8.067
		c-0.447-0.464-0.479-0.496-0.848-0.736c0.48-0.864,0.736-1.601,0.896-2.689c0.176-1.28,0.288-2.929,0.288-4.705v-3.922
		c0-0.784-0.032-1.137-0.097-1.617H69.049z M71.13,263.26c-0.064,0.385-0.064,0.688-0.064,1.648v8.02c0,0.769,0.016,1.2,0.064,1.601
		h-1.057c0.048-0.48,0.08-0.88,0.08-1.616v-8.004c0-0.928-0.016-1.2-0.064-1.648H71.13z M73.243,262.796
		c-0.064,0.416-0.08,0.752-0.08,1.889v9.86c0,1.136,0.016,1.504,0.063,1.904H72.17c0.063-0.416,0.08-0.784,0.08-1.904v-9.86
		c0-1.072-0.017-1.457-0.08-1.889H73.243z M76.908,274.529c-0.977,1.12-1.665,1.681-3.025,2.417c-0.224-0.352-0.4-0.561-0.673-0.784
		c1.313-0.592,2.018-1.137,2.818-2.161L76.908,274.529z M75.323,263.981c-0.864,0-1.185,0.016-1.553,0.08v-1.072
		c0.32,0.063,0.672,0.079,1.553,0.079h4.85c0.753,0,1.201-0.031,1.553-0.096v1.104c-0.416-0.08-0.8-0.096-1.553-0.096h-1.969
		c-0.176,0.592-0.416,1.248-0.624,1.696h2.001c0.736,0,1.137-0.016,1.473-0.063c-0.048,0.432-0.064,0.8-0.064,1.456v5.187
		c0,0.64,0.017,1.072,0.064,1.521c-0.496-0.048-0.816-0.064-1.393-0.064h-3.938c-0.576,0-0.944,0.017-1.393,0.064
		c0.048-0.433,0.064-0.881,0.064-1.473v-5.187c0-0.64-0.017-1.072-0.064-1.504c0.416,0.048,0.704,0.063,1.393,0.063h0.864
		c0.272-0.576,0.464-1.152,0.608-1.696H75.323z M75.339,268.046h4.69v-1.521h-4.69V268.046z M75.339,270.383h4.69v-1.521h-4.69
		V270.383z M75.339,272.848h4.69V271.2h-4.69V272.848z M79.069,273.985c0.928,0.96,1.648,1.456,3.057,2.064
		c-0.225,0.24-0.432,0.545-0.607,0.881c-1.473-0.769-2.178-1.281-3.282-2.434L79.069,273.985z"/>
	<path clip-path="url(#SVGID_2_)" d="M114.455,258.6c0.544,2.049,1.393,3.729,2.609,5.153c1.169,1.361,2.513,2.338,4.337,3.122
		c-0.319,0.384-0.447,0.56-0.703,1.072c-3.586-1.905-5.57-4.242-6.723-7.907c-0.433,2.337-1.489,4.273-3.121,5.746
		c-1.01,0.896-1.89,1.457-3.458,2.177c-0.224-0.448-0.353-0.624-0.688-0.977c2.001-0.816,3.17-1.601,4.21-2.801
		c1.249-1.44,1.921-3.138,2.225-5.586h-4.354c-0.849,0-1.297,0.031-1.761,0.111v-1.248c0.416,0.08,0.944,0.112,1.793,0.112h4.418
		c0.047-0.769,0.063-1.265,0.063-1.889c0-0.736-0.048-1.313-0.112-1.745h1.313c-0.08,0.528-0.111,0.881-0.111,1.665
		c-0.017,0.816-0.032,1.28-0.08,1.969h4.85c0.816,0,1.345-0.032,1.777-0.112v1.248c-0.513-0.08-0.961-0.111-1.762-0.111H114.455z"/>
	<path clip-path="url(#SVGID_2_)" d="M122.836,260.024c0.4,0.064,0.641,0.08,1.249,0.08h0.832c0.48,0,0.816-0.016,1.232-0.08
		c-0.064,0.48-0.08,0.896-0.08,1.697v3.137c0.24,0.513,0.432,0.769,0.785,1.024c0.928,0.688,1.889,0.881,4.161,0.881
		c3.058,0,4.93-0.08,6.435-0.304c-0.24,0.576-0.272,0.624-0.368,1.168c-1.425,0.064-3.682,0.112-5.57,0.112
		c-2.657,0-3.618-0.16-4.642-0.753c-0.529-0.304-0.912-0.688-1.329-1.313c-0.72,0.721-1.12,1.057-1.889,1.649
		c-0.256,0.191-0.384,0.304-0.624,0.527l-0.528-1.056c0.704-0.32,1.681-1.041,2.577-1.921V261h-1.057
		c-0.544,0-0.784,0.017-1.185,0.08V260.024z M123.796,253.974c1.041,0.96,1.553,1.536,2.578,2.817l-0.816,0.736
		c-0.929-1.329-1.409-1.905-2.498-2.914L123.796,253.974z M128.343,255.975c-0.753,0-1.186,0.016-1.505,0.08v-0.993
		c0.368,0.049,0.864,0.08,1.665,0.08h2.801c0-0.544-0.032-0.976-0.112-1.44h1.12c-0.08,0.465-0.111,0.881-0.111,1.44h3.105
		c0.783,0,1.296-0.031,1.664-0.08v0.993c-0.368-0.064-0.816-0.08-1.601-0.08H132.2v1.264h2.673c0.528,0,0.833-0.016,1.249-0.063
		c-0.049,0.368-0.064,0.641-0.064,1.089v3.201c0,0.432,0.016,0.688,0.064,1.04c-0.385-0.048-0.77-0.064-1.249-0.064H132.2v1.313
		h3.232c0.785,0,1.249-0.016,1.586-0.079v0.992c-0.354-0.064-0.85-0.08-1.602-0.08H132.2v0.304c0,0.513,0.031,0.992,0.111,1.457
		h-1.12c0.08-0.465,0.112-0.944,0.112-1.457v-0.304h-2.817c-0.673,0-1.265,0.032-1.601,0.08v-0.992
		c0.352,0.063,0.801,0.079,1.601,0.079h2.817v-1.313h-2.417c-0.48,0-0.849,0.017-1.265,0.064c0.048-0.368,0.064-0.624,0.064-1.04
		v-3.233c0-0.416-0.017-0.673-0.064-1.057c0.368,0.048,0.736,0.063,1.248,0.063h2.434v-1.264H128.343z M128.614,258.04v1.36h2.689
		v-1.36H128.614z M128.614,260.168v1.473h2.689v-1.473H128.614z M132.2,259.4h2.929v-1.36H132.2V259.4z M132.2,261.641h2.929v-1.473
		H132.2V261.641z"/>
	<path clip-path="url(#SVGID_2_)" d="M221.56,192.092c0.992,0,1.057,0,1.344-0.097l0.656,0.625
		c-0.144,0.256-0.144,0.256-0.352,1.616c-0.385,2.417-1.36,4.386-2.896,5.843c-1.217,1.136-2.77,2.017-4.69,2.657
		c-0.224-0.48-0.32-0.641-0.736-1.089c1.521-0.4,2.465-0.832,3.537-1.553c2.241-1.553,3.409-3.745,3.714-6.995h-8.74v2.401
		c0,0.512,0.017,0.88,0.049,1.185h-1.313c0.031-0.272,0.063-0.784,0.063-1.2v-2.161c0-0.496-0.016-0.912-0.063-1.297
		c0.496,0.048,0.863,0.064,1.473,0.064h3.393v-1.617c0-0.464-0.016-0.64-0.08-1.024h1.346c-0.049,0.305-0.08,0.625-0.08,1.009v1.633
		H221.56z"/>
	<path clip-path="url(#SVGID_2_)" d="M225.827,193.901c0.576,0.08,0.912,0.096,1.873,0.096h8.211c0.593,0,0.77-0.016,1.041-0.111
		l0.592,0.688c-0.144,0.225-0.176,0.305-0.447,1.009c-1.361,3.729-3.57,5.778-7.716,7.171c-0.192-0.464-0.304-0.641-0.688-1.104
		c2.145-0.608,3.554-1.328,4.754-2.433c1.137-1.041,1.857-2.226,2.594-4.194h-8.355c-0.849,0-1.313,0.017-1.857,0.08V193.901z
		 M227.204,190.187c0.465,0.097,0.784,0.112,1.681,0.112h5.347c0.896,0,1.216-0.016,1.68-0.112v1.232
		c-0.432-0.063-0.816-0.08-1.664-0.08h-5.379c-0.848,0-1.232,0.017-1.664,0.08V190.187z"/>
	<path clip-path="url(#SVGID_2_)" d="M240.563,193.885c1.521,0.624,2.674,1.2,4.066,2.08l-0.625,1.089
		c-1.168-0.864-2.625-1.648-4.081-2.193L240.563,193.885z M240.147,201.2c1.041,0,2.705-0.384,4.307-0.992
		c1.984-0.753,3.505-1.889,4.801-3.569c0.896-1.169,1.426-2.177,1.922-3.602c0.4,0.432,0.561,0.561,0.992,0.864
		c-1.393,3.329-3.346,5.49-6.162,6.898c-1.121,0.545-2.738,1.104-4.051,1.377c-0.256,0.048-0.543,0.112-0.863,0.176
		c-0.32,0.064-0.385,0.08-0.625,0.16L240.147,201.2z M241.813,190.059c1.569,0.641,2.609,1.169,3.97,2.017l-0.656,1.073
		c-1.104-0.833-2.77-1.713-3.938-2.129L241.813,190.059z M250.44,189.483c0.688,0.784,1.072,1.329,1.6,2.257l-0.815,0.433
		c-0.561-0.977-0.896-1.457-1.616-2.273L250.44,189.483z M252.009,188.683c0.672,0.752,1.072,1.313,1.601,2.24l-0.833,0.448
		c-0.543-0.977-0.88-1.456-1.6-2.272L252.009,188.683z"/>
	<path clip-path="url(#SVGID_2_)" d="M262.71,195.246c0-0.112,0.017-0.353,0.049-1.041c-0.305,0.593-0.448,0.801-1.201,1.793
		c-0.832,1.104-2.24,2.417-3.793,3.537c-0.721,0.528-1.345,0.913-2.641,1.649c-0.257-0.465-0.385-0.625-0.801-0.961
		c1.937-0.864,3.746-2.145,5.426-3.825c0.896-0.896,1.777-2.001,2.305-2.913l-5.25,0.032c-1.008,0-1.232,0-1.776,0.063v-1.2
		c0.576,0.096,0.864,0.112,1.809,0.112l5.827-0.032l-0.017-1.569c-0.017-0.832-0.017-0.832-0.08-1.296h1.28
		c-0.048,0.352-0.064,0.608-0.064,0.88v0.385l0.033,1.601h2.112c0.896,0,1.089-0.017,1.601-0.097v1.169
		c-0.336-0.032-0.672-0.048-1.328-0.048c-0.064,0-0.16,0-0.24,0h-2.145l0.111,7.795c0,0.688,0.032,1.2,0.08,1.633h-1.297
		c0.049-0.464,0.064-0.641,0.064-1.265c0-0.176,0-0.256,0-0.353l-0.064-5.89v-0.097V195.246z"/>
	<path clip-path="url(#SVGID_2_)" d="M281.176,202.449c-1.265-1.617-3.073-3.362-5.122-4.946c-1.12,1.28-1.904,2.017-3.057,2.865
		c-1.105,0.8-1.953,1.328-3.138,1.921c-0.256-0.48-0.384-0.656-0.784-1.057c1.232-0.496,2.017-0.929,3.249-1.841
		c2.562-1.889,4.546-4.418,5.714-7.219c0.033-0.097,0.049-0.112,0.08-0.192c0.033-0.048,0.033-0.064,0.049-0.112
		c-0.145,0.017-0.192,0.017-0.385,0.017l-5.346,0.08c-0.721,0.016-1.185,0.048-1.648,0.128l-0.032-1.297
		c0.433,0.064,0.72,0.08,1.265,0.08c0.048,0,0.191,0,0.416,0l5.715-0.063c0.56-0.017,0.752-0.032,1.023-0.129l0.673,0.688
		c-0.16,0.192-0.272,0.385-0.448,0.784c-0.896,1.985-1.648,3.25-2.641,4.482c2.096,1.601,3.505,2.865,5.33,4.802L281.176,202.449z"
		/>
	<path clip-path="url(#SVGID_2_)" d="M285.86,202.8c0.064-0.432,0.096-0.816,0.096-1.681v-9.939c0-0.849-0.031-1.233-0.096-1.633
		h1.377c-0.064,0.416-0.08,0.752-0.08,1.664v2.993c2.465,0.881,4.321,1.761,7.123,3.378l-0.688,1.185
		c-1.505-1.057-3.714-2.241-5.971-3.17c-0.24-0.096-0.353-0.16-0.496-0.271l-0.032,0.016c0.049,0.32,0.064,0.544,0.064,0.944v4.818
		c0,0.896,0.016,1.248,0.08,1.696H285.86z"/>
	<path clip-path="url(#SVGID_2_)" d="M303.015,189.595c-0.145,0.208-0.145,0.208-0.353,0.656c-0.416,0.864-0.56,1.137-0.736,1.425
		c0.208-0.049,0.208-0.049,4.834-0.128c0.56,0,0.608-0.017,0.833-0.112l0.688,0.672c-0.145,0.192-0.145,0.208-0.32,0.784
		c-0.672,2.257-1.84,4.435-3.201,6.019c-1.473,1.681-3.233,2.945-5.57,4.002c-0.256-0.464-0.384-0.624-0.801-0.944
		c2.418-0.992,4.114-2.209,5.65-4.05c1.232-1.488,2.193-3.361,2.754-5.362l-5.395,0.096c-0.977,1.569-2.257,2.978-3.826,4.162
		c-0.271-0.4-0.432-0.544-0.896-0.832c1.696-1.104,2.913-2.434,4.018-4.386c0.608-1.057,0.929-1.777,1.009-2.337L303.015,189.595z"
		/>
	<path clip-path="url(#SVGID_2_)" d="M244.339,247.398c0-0.641-0.016-1.104-0.08-1.568c0.512,0.063,0.977,0.08,1.713,0.08h7.203
		c0.736,0,1.184-0.017,1.648-0.08c-0.064,0.464-0.08,0.864-0.08,1.473v10.26c0,0.769,0.031,1.217,0.096,1.713h-1.168v-1.041h-8.26
		v1.041h-1.168c0.063-0.48,0.096-0.977,0.096-1.697V247.398z M245.411,251.368h8.26v-4.482h-8.26V251.368z M245.411,257.259h8.26
		v-4.914h-8.26V257.259z"/>
	<path clip-path="url(#SVGID_2_)" d="M259.667,248.791c-0.625,0-1.169,0.032-1.762,0.096v-1.168c0.593,0.08,1.057,0.112,1.762,0.112
		h4.481v-1.361c0-0.528-0.032-0.912-0.112-1.456h1.265c-0.08,0.48-0.112,0.944-0.112,1.44v1.377h4.723
		c0.8,0,1.328-0.032,1.792-0.112v1.168c-0.672-0.063-1.152-0.096-1.792-0.096h-4.322c1.793,3.233,3.938,5.475,6.595,6.915
		c-0.337,0.368-0.513,0.608-0.736,1.04c-1.296-0.864-2.289-1.696-3.329-2.801c-1.328-1.409-2.225-2.77-2.994-4.498
		c0.049,0.96,0.064,1.553,0.064,2.081v3.633h1.745c0.784,0,1.136-0.016,1.552-0.08v1.121c-0.479-0.08-0.863-0.097-1.584-0.097
		h-1.713v1.521c0,0.752,0.032,1.328,0.112,1.841h-1.265c0.08-0.561,0.112-1.121,0.112-1.857v-1.505h-1.536
		c-0.753,0-1.137,0.017-1.617,0.097v-1.121c0.416,0.064,0.768,0.08,1.584,0.08h1.569v-3.633c0-0.593,0.016-1.201,0.063-2.065
		c-0.736,1.745-1.584,3.058-3.025,4.626c-1.008,1.104-1.872,1.873-3.041,2.689c-0.24-0.433-0.367-0.593-0.752-0.944
		c1.377-0.832,2.529-1.809,3.746-3.249c1.199-1.377,1.889-2.401,2.608-3.794H259.667z"/>
	<path clip-path="url(#SVGID_2_)" d="M273.905,249.207c1.105,0.704,1.617,1.089,2.609,2.017l-0.688,0.769
		c-0.816-0.88-1.361-1.328-2.546-2.064L273.905,249.207z M276.675,254.377c-0.576,1.761-1.232,3.361-1.857,4.498
		c-0.176,0.336-0.176,0.336-0.271,0.528l-0.912-0.721c0.607-0.64,1.504-2.673,2.209-4.978L276.675,254.377z M274.914,245.222
		c0.977,0.736,1.601,1.296,2.353,2.097l-0.736,0.752c-0.896-1.056-1.376-1.504-2.336-2.16L274.914,245.222z M285.767,246.598
		c1.152,0,1.617-0.016,2.08-0.096v1.072c-0.367-0.048-0.896-0.063-2.016-0.063h-6.307c-0.721,1.28-1.152,1.872-2.081,2.913
		c-0.224-0.305-0.464-0.528-0.784-0.736c1.04-0.929,1.729-1.921,2.433-3.506c0.24-0.544,0.384-0.992,0.433-1.376l1.12,0.224
		c-0.08,0.176-0.08,0.176-0.24,0.624c-0.112,0.305-0.208,0.528-0.416,0.944H285.767z M278.739,257.179
		c-0.096,0.352-0.144,0.512-0.287,1.04l-1.089-0.144c0.464-1.233,0.815-2.722,1.12-4.675h-0.096c-0.656,0-1.009,0.017-1.473,0.097
		v-1.089c0.385,0.064,0.801,0.097,1.537,0.097h0.16c0.176-1.393,0.271-2.401,0.271-2.945c0-0.032,0-0.192-0.016-0.465
		c0.191,0.017,0.656,0.032,1.137,0.032h5.09c0.816,0,1.12-0.016,1.664-0.063c-0.08,0.416-0.08,0.56-0.145,2.417
		c-0.016,0.319-0.016,0.527-0.047,1.024h0.111c0.736,0,1.088-0.017,1.488-0.097v1.089c-0.479-0.064-0.943-0.097-1.488-0.097h-0.176
		c-0.016,0.16-0.016,0.16-0.032,0.448c-0.048,0.673-0.128,1.489-0.256,2.434h0.176c0.624,0,0.88-0.017,1.265-0.097v1.057
		c-0.416-0.048-0.736-0.063-1.297-0.063h-0.287c-0.32,1.856-0.609,2.192-1.922,2.192c-0.367,0-0.896-0.032-1.76-0.096
		c0-0.416-0.049-0.641-0.177-1.024c0.688,0.128,1.329,0.192,1.776,0.192c0.816,0,0.881-0.08,1.121-1.265H278.739z M279.476,253.4
		c-0.096,0.769-0.207,1.329-0.527,2.882h2.576c0.289-1.569,0.289-1.569,0.433-2.882H279.476z M282.069,252.505
		c0.111-1.104,0.111-1.217,0.176-2.514h-2.4c-0.08,1.089-0.113,1.425-0.24,2.514H282.069z M282.901,253.4
		c-0.16,1.313-0.16,1.313-0.432,2.882h2.801c0.111-0.881,0.191-1.585,0.288-2.882H282.901z M285.622,252.505
		c0.032-0.641,0.064-1.553,0.08-2.514h-2.513c-0.08,1.057-0.144,1.905-0.192,2.514H285.622z"/>
	<path clip-path="url(#SVGID_2_)" d="M297.917,228.643c0.209-0.239,0.439-0.52,0.648-0.77l2.529-3.158
		c0.34-0.419,0.52-0.669,0.75-1.02h0.749c-0.05,0.59-0.06,0.9-0.06,1.689v3.278h0.379c0.42,0,0.68-0.021,1.04-0.07v0.83
		c-0.37-0.05-0.62-0.07-1.05-0.07h-0.369v0.859c0,0.48,0.02,0.71,0.08,1.08h-0.91c0.061-0.351,0.08-0.63,0.08-1.08v-0.859h-2.679
		c-0.56,0-0.859,0.01-1.188,0.04V228.643z M301.794,226.135c0-0.53,0.01-0.85,0.061-1.359c-0.211,0.3-0.46,0.63-0.75,0.999
		l-2.299,2.898h2.988V226.135z"/>
	<path clip-path="url(#SVGID_2_)" d="M305.665,230.731c-0.27-0.27-0.479-0.579-0.6-0.919c-0.25-0.7-0.379-1.489-0.379-2.309
		c0-1.06,0.229-2.139,0.579-2.719c0.479-0.81,1.249-1.229,2.239-1.229c0.739,0,1.379,0.24,1.828,0.71
		c0.28,0.279,0.48,0.59,0.6,0.919c0.25,0.69,0.381,1.489,0.381,2.319c0,1.209-0.26,2.278-0.7,2.888
		c-0.499,0.7-1.199,1.05-2.118,1.05C306.755,231.441,306.136,231.201,305.665,230.731z M306.245,224.755
		c-0.21,0.23-0.369,0.48-0.449,0.729c-0.211,0.61-0.311,1.29-0.311,2.02c0,0.93,0.2,1.909,0.471,2.379
		c0.35,0.579,0.869,0.869,1.549,0.869c0.5,0,0.93-0.16,1.229-0.47c0.221-0.229,0.381-0.49,0.471-0.779
		c0.209-0.62,0.309-1.279,0.309-2.02c0-0.869-0.189-1.858-0.449-2.328c-0.33-0.6-0.869-0.91-1.568-0.91
		C306.975,224.245,306.565,224.415,306.245,224.755z"/>
	<path clip-path="url(#SVGID_2_)" d="M313.415,224.665c0,0.63-0.5,1.13-1.119,1.13c-0.631,0-1.13-0.5-1.13-1.13
		c0-0.619,0.499-1.119,1.13-1.119C312.915,223.546,313.415,224.046,313.415,224.665z M311.616,224.665c0,0.38,0.299,0.68,0.68,0.68
		c0.369,0,0.669-0.3,0.669-0.68c0-0.369-0.3-0.67-0.669-0.67C311.915,223.995,311.616,224.296,311.616,224.665z"/>
	<path clip-path="url(#SVGID_2_)" d="M299.386,52.915c-0.02,0.181-0.02,0.181-0.08,0.45c0.479-0.46,1.059-0.689,1.749-0.689
		c0.729,0,1.349,0.239,1.799,0.68c0.45,0.43,0.67,1.02,0.67,1.759c0,1.609-1.05,2.639-2.698,2.639c-0.78,0-1.43-0.23-1.91-0.68
		c-0.249-0.25-0.389-0.46-0.629-0.939l0.819-0.24c0.101,0.28,0.17,0.41,0.319,0.58c0.34,0.38,0.84,0.59,1.42,0.59
		c1.119,0,1.869-0.76,1.869-1.909c0-1.1-0.689-1.819-1.749-1.819c-0.51,0-0.95,0.141-1.31,0.42c-0.24,0.19-0.35,0.33-0.459,0.6
		l-0.75-0.069c0.08-0.391,0.109-0.601,0.149-1.03l0.22-2.259c0.021-0.289,0.03-0.409,0.03-0.6c0-0.14,0-0.18-0.021-0.43
		c0.311,0.04,0.471,0.05,1.061,0.05h2.059c0.539,0,0.77-0.02,1.169-0.079v0.85c-0.38-0.061-0.699-0.08-1.169-0.08h-2.35
		L299.386,52.915z"/>
	<path clip-path="url(#SVGID_2_)" d="M305.646,57.052c-0.27-0.27-0.48-0.579-0.6-0.919c-0.25-0.7-0.38-1.489-0.38-2.309
		c0-1.06,0.229-2.139,0.579-2.719c0.48-0.81,1.25-1.229,2.239-1.229c0.739,0,1.38,0.24,1.829,0.71c0.279,0.279,0.48,0.59,0.6,0.919
		c0.25,0.69,0.38,1.489,0.38,2.319c0,1.209-0.26,2.278-0.7,2.888c-0.499,0.7-1.199,1.05-2.118,1.05
		C306.735,57.762,306.115,57.522,305.646,57.052z M306.226,51.076c-0.211,0.23-0.37,0.48-0.45,0.729c-0.21,0.61-0.31,1.29-0.31,2.02
		c0,0.93,0.199,1.909,0.47,2.379c0.35,0.579,0.869,0.869,1.549,0.869c0.5,0,0.93-0.16,1.229-0.47c0.22-0.229,0.38-0.49,0.47-0.779
		c0.21-0.62,0.31-1.279,0.31-2.02c0-0.869-0.189-1.858-0.449-2.328c-0.33-0.6-0.869-0.91-1.569-0.91
		C306.954,50.566,306.545,50.736,306.226,51.076z"/>
	<path clip-path="url(#SVGID_2_)" d="M313.395,50.986c0,0.63-0.499,1.13-1.119,1.13c-0.63,0-1.13-0.5-1.13-1.13
		c0-0.619,0.5-1.119,1.13-1.119C312.896,49.867,313.395,50.367,313.395,50.986z M311.596,50.986c0,0.38,0.3,0.68,0.68,0.68
		c0.37,0,0.669-0.3,0.669-0.68c0-0.369-0.299-0.67-0.669-0.67C311.896,50.316,311.596,50.617,311.596,50.986z"/>
	<path clip-path="url(#SVGID_2_)" d="M261.306,2.591c0.26,0.04,0.449,0.05,0.829,0.05h0.63c0.34,0,0.5-0.01,0.83-0.05
		c-0.061,0.61-0.09,1.12-0.09,1.659v4.857c0,0.47,0.02,0.76,0.079,1.13h-0.949c0.06-0.351,0.08-0.67,0.08-1.13V3.321h-0.54
		c-0.32,0-0.58,0.021-0.869,0.061V2.591z"/>
	<path clip-path="url(#SVGID_2_)" d="M266.576,7.588c0.21-0.239,0.439-0.52,0.649-0.77l2.529-3.158
		c0.34-0.419,0.52-0.669,0.749-1.02h0.749c-0.049,0.59-0.06,0.9-0.06,1.689v3.278h0.38c0.42,0,0.68-0.021,1.039-0.07v0.83
		c-0.369-0.05-0.619-0.07-1.049-0.07h-0.37v0.859c0,0.48,0.021,0.71,0.08,1.08h-0.909c0.06-0.351,0.08-0.63,0.08-1.08V8.298h-2.68
		c-0.559,0-0.859,0.01-1.188,0.04V7.588z M270.454,5.081c0-0.53,0.01-0.85,0.06-1.359c-0.21,0.3-0.46,0.63-0.749,0.999l-2.299,2.898
		h2.988V5.081z"/>
	<path clip-path="url(#SVGID_2_)" d="M274.325,9.677c-0.27-0.27-0.48-0.579-0.6-0.919c-0.25-0.7-0.38-1.489-0.38-2.309
		c0-1.06,0.229-2.139,0.579-2.719c0.48-0.81,1.25-1.229,2.239-1.229c0.739,0,1.38,0.24,1.829,0.71c0.279,0.279,0.48,0.59,0.6,0.919
		c0.25,0.69,0.38,1.489,0.38,2.319c0,1.209-0.26,2.278-0.7,2.888c-0.499,0.7-1.199,1.05-2.118,1.05
		C275.415,10.387,274.795,10.147,274.325,9.677z M274.905,3.701c-0.211,0.23-0.37,0.48-0.45,0.729c-0.21,0.61-0.31,1.29-0.31,2.02
		c0,0.93,0.199,1.909,0.47,2.379c0.35,0.579,0.869,0.869,1.549,0.869c0.5,0,0.93-0.16,1.229-0.47c0.22-0.229,0.38-0.49,0.47-0.779
		c0.21-0.62,0.31-1.279,0.31-2.02c0-0.869-0.189-1.858-0.449-2.328c-0.33-0.6-0.869-0.91-1.569-0.91
		C275.634,3.191,275.225,3.361,274.905,3.701z"/>
	<path clip-path="url(#SVGID_2_)" d="M282.074,3.611c0,0.63-0.499,1.13-1.119,1.13c-0.63,0-1.13-0.5-1.13-1.13
		c0-0.619,0.5-1.119,1.13-1.119C281.575,2.492,282.074,2.992,282.074,3.611z M280.275,3.611c0,0.38,0.3,0.68,0.68,0.68
		c0.37,0,0.669-0.3,0.669-0.68c0-0.369-0.299-0.67-0.669-0.67C280.575,2.941,280.275,3.242,280.275,3.611z"/>
	<path clip-path="url(#SVGID_2_)" d="M152.992,2.591c0.261,0.04,0.45,0.05,0.829,0.05h0.631c0.34,0,0.499-0.01,0.829-0.05
		c-0.06,0.61-0.09,1.12-0.09,1.659v4.857c0,0.47,0.021,0.76,0.079,1.13h-0.949c0.061-0.351,0.08-0.67,0.08-1.13V3.321h-0.539
		c-0.32,0-0.58,0.021-0.87,0.061V2.591z"/>
	<path clip-path="url(#SVGID_2_)" d="M159.242,8.388c0.16,0.52,0.3,0.729,0.61,0.949c0.34,0.24,0.779,0.36,1.289,0.36
		c1.159,0,1.889-0.6,1.889-1.549c0-0.99-0.709-1.529-2.039-1.529c-0.279,0-0.529,0.02-0.799,0.05v-0.79
		c0.229,0.04,0.469,0.061,0.739,0.061c0.659,0,1.149-0.15,1.459-0.46c0.25-0.24,0.399-0.609,0.399-0.97
		c0-0.859-0.6-1.359-1.609-1.359c-0.609,0-1.049,0.17-1.328,0.53c-0.141,0.18-0.211,0.34-0.32,0.709l-0.83-0.18
		c0.17-0.51,0.291-0.739,0.54-0.999c0.44-0.479,1.12-0.729,1.989-0.729c1.449,0,2.369,0.76,2.369,1.959
		c0,0.609-0.26,1.149-0.7,1.459c-0.26,0.189-0.479,0.27-0.939,0.359c0.579,0.061,0.89,0.17,1.229,0.43
		c0.439,0.34,0.67,0.87,0.67,1.51c0,1.349-1.04,2.188-2.709,2.188c-1.01,0-1.76-0.279-2.238-0.819c-0.211-0.24-0.33-0.46-0.51-0.97
		L159.242,8.388z"/>
	<path clip-path="url(#SVGID_2_)" d="M165.972,9.677c-0.27-0.27-0.479-0.579-0.6-0.919c-0.25-0.7-0.379-1.489-0.379-2.309
		c0-1.06,0.229-2.139,0.579-2.719c0.479-0.81,1.249-1.229,2.239-1.229c0.739,0,1.379,0.24,1.828,0.71
		c0.28,0.279,0.48,0.59,0.6,0.919c0.25,0.69,0.381,1.489,0.381,2.319c0,1.209-0.26,2.278-0.7,2.888
		c-0.499,0.7-1.199,1.05-2.118,1.05C167.062,10.387,166.442,10.147,165.972,9.677z M166.552,3.701
		c-0.21,0.23-0.369,0.48-0.449,0.729c-0.211,0.61-0.311,1.29-0.311,2.02c0,0.93,0.2,1.909,0.471,2.379
		c0.35,0.579,0.869,0.869,1.549,0.869c0.5,0,0.93-0.16,1.229-0.47c0.221-0.229,0.381-0.49,0.471-0.779
		c0.209-0.62,0.309-1.279,0.309-2.02c0-0.869-0.189-1.858-0.449-2.328c-0.33-0.6-0.869-0.91-1.568-0.91
		C167.281,3.191,166.872,3.361,166.552,3.701z"/>
	<path clip-path="url(#SVGID_2_)" d="M173.722,3.611c0,0.63-0.5,1.13-1.119,1.13c-0.631,0-1.13-0.5-1.13-1.13
		c0-0.619,0.499-1.119,1.13-1.119C173.222,2.492,173.722,2.992,173.722,3.611z M171.923,3.611c0,0.38,0.299,0.68,0.68,0.68
		c0.369,0,0.669-0.3,0.669-0.68c0-0.369-0.3-0.67-0.669-0.67C172.222,2.941,171.923,3.242,171.923,3.611z"/>
	<path clip-path="url(#SVGID_2_)" d="M43.992,2.591c0.261,0.04,0.45,0.05,0.829,0.05h0.631c0.34,0,0.499-0.01,0.829-0.05
		c-0.06,0.61-0.09,1.12-0.09,1.659v4.857c0,0.47,0.021,0.76,0.079,1.13h-0.949c0.061-0.351,0.08-0.67,0.08-1.13V3.321h-0.539
		c-0.32,0-0.58,0.021-0.87,0.061V2.591z"/>
	<path clip-path="url(#SVGID_2_)" d="M50.642,10.238c-0.629,0-0.779,0.01-1.099,0.05c0.11-0.79,0.14-0.939,0.29-1.319
		c0.25-0.63,0.67-1.18,1.299-1.719c0.35-0.301,0.37-0.311,1.529-1.1c0.989-0.67,1.319-1.109,1.319-1.72
		c0-0.759-0.64-1.249-1.659-1.249c-0.66,0-1.149,0.22-1.449,0.649c-0.189,0.271-0.279,0.51-0.35,1.01l-0.84-0.14
		c0.15-0.72,0.3-1.069,0.63-1.439c0.45-0.51,1.13-0.77,2.009-0.77c1.51,0,2.479,0.76,2.479,1.938c0,0.51-0.199,0.99-0.59,1.42
		c-0.299,0.34-0.56,0.529-1.699,1.289c-0.789,0.529-1.109,0.81-1.439,1.229c-0.309,0.409-0.449,0.68-0.568,1.159h3.188
		c0.5,0,0.84-0.021,1.219-0.07v0.84c-0.398-0.04-0.729-0.06-1.229-0.06H50.642z"/>
	<path clip-path="url(#SVGID_2_)" d="M56.972,9.677c-0.27-0.27-0.479-0.579-0.6-0.919c-0.25-0.7-0.379-1.489-0.379-2.309
		c0-1.06,0.229-2.139,0.579-2.719c0.479-0.81,1.249-1.229,2.239-1.229c0.739,0,1.379,0.24,1.828,0.71
		c0.28,0.279,0.48,0.59,0.6,0.919c0.25,0.69,0.381,1.489,0.381,2.319c0,1.209-0.26,2.278-0.7,2.888
		c-0.499,0.7-1.199,1.05-2.118,1.05C58.062,10.387,57.442,10.147,56.972,9.677z M57.552,3.701c-0.21,0.23-0.369,0.48-0.449,0.729
		c-0.211,0.61-0.311,1.29-0.311,2.02c0,0.93,0.2,1.909,0.471,2.379c0.35,0.579,0.869,0.869,1.549,0.869c0.5,0,0.93-0.16,1.229-0.47
		c0.221-0.229,0.381-0.49,0.471-0.779c0.209-0.62,0.309-1.279,0.309-2.02c0-0.869-0.189-1.858-0.449-2.328
		c-0.33-0.6-0.869-0.91-1.568-0.91C58.281,3.191,57.872,3.361,57.552,3.701z"/>
	<path clip-path="url(#SVGID_2_)" d="M64.722,3.611c0,0.63-0.5,1.13-1.119,1.13c-0.631,0-1.13-0.5-1.13-1.13
		c0-0.619,0.499-1.119,1.13-1.119C64.222,2.492,64.722,2.992,64.722,3.611z M62.923,3.611c0,0.38,0.299,0.68,0.68,0.68
		c0.369,0,0.669-0.3,0.669-0.68c0-0.369-0.3-0.67-0.669-0.67C63.222,2.941,62.923,3.242,62.923,3.611z"/>
	<circle clip-path="url(#SVGID_2_)" cx="85.865" cy="268.125" r="4.147"/>
	<circle clip-path="url(#SVGID_2_)" cx="102.532" cy="256.042" r="4.147"/>
	<circle clip-path="url(#SVGID_2_)" cx="221.518" cy="179.504" r="4.147"/>
	<path clip-path="url(#SVGID_2_)" d="M6.416,264.627c-0.576,0-1.009,0.032-1.408,0.097v-1.153c0.319,0.064,0.704,0.097,1.408,0.097
		h2.785v-2.177c0-0.705-0.032-1.185-0.096-1.665h1.232c-0.08,0.433-0.097,0.929-0.097,1.665v10.74c0,0.752,0.017,1.216,0.097,1.681
		H9.105c0.063-0.465,0.096-0.961,0.096-1.697v-2c-1.072,0.607-2.064,1.104-3.521,1.761c-0.257,0.128-0.465,0.224-0.625,0.304
		l-0.432-1.104c0.512-0.128,0.816-0.224,1.408-0.48c1.248-0.544,2-0.928,3.169-1.616v-4.45H6.416z M13.812,271.783
		c0,0.288,0.064,0.416,0.271,0.496c0.225,0.08,0.736,0.128,1.505,0.128c1.409,0,1.905-0.128,2.129-0.544
		c0.192-0.385,0.353-1.457,0.368-2.705c0.352,0.24,0.561,0.32,1.008,0.464c-0.096,1.729-0.367,2.801-0.8,3.233
		c-0.384,0.384-1.072,0.512-2.688,0.512c-2.306,0-2.834-0.256-2.834-1.328v-10.564c0-0.8-0.031-1.248-0.096-1.648h1.232
		c-0.08,0.513-0.096,0.96-0.096,1.648v3.842c1.2-0.672,2.336-1.44,3.313-2.241c0.4-0.336,0.689-0.608,0.929-0.912l0.8,0.881
		c-0.223,0.176-0.303,0.224-0.592,0.464c-1.313,1.072-2.545,1.889-4.449,2.929V271.783z"/>
	<path clip-path="url(#SVGID_2_)" d="M25.249,269.366c-1.168,1.873-2.08,2.833-3.777,4.018c-0.305-0.433-0.416-0.561-0.736-0.832
		c0.961-0.576,1.441-0.944,2.064-1.585c0.673-0.672,1.025-1.169,1.553-2.145L25.249,269.366z M27.234,260.898
		c0-0.512-0.032-0.928-0.112-1.345h1.265c-0.08,0.32-0.112,0.736-0.112,1.345v0.593h4.946c0.8,0,1.313-0.032,1.776-0.112v1.137
		c-0.416-0.08-0.848-0.097-1.744-0.097H22.624c-0.864,0-1.28,0.017-1.713,0.097v-1.137c0.48,0.08,0.977,0.112,1.777,0.112h4.546
		V260.898z M24.321,268.101c-0.641,0-0.961,0.016-1.425,0.064c0.048-0.417,0.063-0.721,0.063-1.297v-1.809
		c0-0.624-0.016-0.849-0.063-1.329c0.448,0.049,0.753,0.064,1.425,0.064h6.963c0.768,0,1.104-0.016,1.473-0.064
		c-0.049,0.385-0.064,0.705-0.064,1.329v1.809c0,0.561,0.016,0.88,0.048,1.28c-0.416-0.032-0.849-0.048-1.456-0.048h-2.785v4.45
		c0,0.912-0.416,1.2-1.762,1.2c-0.352,0-1.023-0.032-1.568-0.064c-0.048-0.432-0.096-0.624-0.271-1.056
		c0.656,0.111,1.2,0.159,1.729,0.159c0.704,0,0.832-0.063,0.832-0.384v-4.306H24.321z M23.969,267.22h7.716v-2.513h-7.716V267.22z
		 M31.235,268.805c0.593,0.961,0.912,1.377,1.568,2.017c0.673,0.673,1.153,1.041,2.226,1.681c-0.32,0.288-0.528,0.528-0.736,0.881
		c-0.944-0.656-1.345-0.977-2.017-1.665c-0.769-0.784-1.168-1.28-1.921-2.353L31.235,268.805z"/>
	<path clip-path="url(#SVGID_2_)" d="M79.456,131.302c-0.944,0-1.361,0.016-1.889,0.096v-1.121c0.544,0.08,1.024,0.112,1.937,0.112
		h4.546v-0.128c0-0.704-0.032-1.072-0.112-1.553h1.185c-0.08,0.48-0.111,0.929-0.111,1.553v0.128h4.785
		c1.041,0,1.568-0.032,2.001-0.112v1.121c-0.448-0.064-1.104-0.096-1.969-0.096h-4.817v1.328h3.488c1.009,0,1.393-0.016,1.825-0.08
		c-0.048,0.448-0.063,0.801-0.063,1.681v2.353c0,0.961,0,1.201,0.063,1.697c-0.433-0.08-0.88-0.097-1.825-0.097h-2.752
		c1.729,1.793,3.633,2.817,6.594,3.554c-0.287,0.385-0.4,0.544-0.607,1.009c-1.441-0.48-2.449-0.912-3.602-1.585
		c-1.266-0.736-2.178-1.488-3.17-2.625c0.032,0.416,0.049,0.944,0.049,1.249v1.632c0,0.864,0.016,1.281,0.111,1.777h-1.185
		c0.08-0.545,0.112-0.944,0.112-1.777v-1.616c0-0.304,0.016-0.784,0.048-1.232c-0.688,0.832-1.072,1.2-1.889,1.824
		c-1.296,0.993-2.705,1.729-4.466,2.337c-0.24-0.479-0.336-0.656-0.592-0.96c1.473-0.4,2.609-0.896,3.889-1.713
		c1.041-0.672,1.633-1.152,2.241-1.873h-2.337c-1.024,0-1.408,0.017-1.856,0.097l0.017-0.208c0.031-0.336,0.047-0.608,0.047-1.489
		v-2.32c0-0.929-0.016-1.217-0.063-1.729c0.384,0.08,0.816,0.096,1.776,0.096h3.186v-1.328H79.456z M80.144,133.462v1.473h3.906
		v-1.473H80.144z M80.144,135.751v1.617h3.906v-1.617H80.144z M85.011,134.935h4.258v-1.473h-4.258V134.935z M85.011,137.368h4.258
		v-1.617h-4.258V137.368z"/>
	<path clip-path="url(#SVGID_2_)" d="M94.048,132.758c1.04,0.624,1.729,1.137,2.721,2.001l-0.641,0.896
		c-0.977-0.977-1.616-1.489-2.689-2.146L94.048,132.758z M96.833,138.04c-0.736,1.889-1.105,2.657-2.178,4.498
		c-0.063,0.111-0.128,0.24-0.224,0.432l-0.929-0.832c0.832-0.881,1.697-2.529,2.48-4.722L96.833,138.04z M94.751,128.933
		c1.073,0.72,1.729,1.248,2.546,2.064l-0.673,0.816c-0.768-0.864-1.44-1.457-2.529-2.177L94.751,128.933z M99.233,130.805
		c-0.721,0-1.104,0.017-1.521,0.08v-1.008c0.464,0.063,0.896,0.096,1.521,0.096h2.705c0-0.624-0.016-0.849-0.096-1.297h1.12
		c-0.08,0.433-0.097,0.641-0.097,1.297h3.09c0.672,0,1.088-0.032,1.568-0.096v1.008c-0.432-0.063-0.816-0.08-1.568-0.08h-3.09v1.073
		h2.529c0.736,0,1.105-0.017,1.537-0.08v0.976c-0.465-0.063-0.864-0.08-1.521-0.08h-2.546v1.153h3.395
		c0.752,0,1.2-0.032,1.633-0.097v1.041c-0.465-0.08-0.881-0.097-1.633-0.097h-7.283c-0.769,0-1.217,0.032-1.697,0.097v-1.041
		c0.433,0.064,0.881,0.097,1.697,0.097h2.961v-1.153h-2.385c-0.656,0-1.057,0.017-1.521,0.08v-0.976
		c0.434,0.063,0.833,0.08,1.521,0.08h2.385v-1.073H99.233z M99.538,141.386c0,0.848,0.031,1.36,0.096,1.744h-1.152
		c0.064-0.448,0.08-0.912,0.08-1.744v-4.402c0-0.784,0-0.992-0.049-1.44c0.529,0.048,0.912,0.064,1.585,0.064h4.931
		c0.783,0,1.168-0.017,1.473-0.08c-0.049,0.399-0.064,0.912-0.064,1.712v4.515c0,0.96-0.32,1.232-1.441,1.232
		c-0.447,0-1.008-0.017-1.664-0.064c-0.064-0.384-0.128-0.608-0.305-0.977c0.736,0.128,1.297,0.177,1.825,0.177
		c0.513,0,0.608-0.08,0.608-0.433v-1.313h-5.922V141.386z M105.46,137.544v-1.121h-5.922v1.121H105.46z M105.46,139.561v-1.2h-5.922
		v1.2H105.46z"/>
	<path clip-path="url(#SVGID_2_)" d="M111.968,133.702c-0.4,0-0.704,0.016-1.057,0.064v-0.849c-0.367,0.353-0.512,0.48-0.96,0.832
		c-0.239-0.464-0.239-0.464-0.608-0.816c1.537-1.104,2.465-2.225,3.138-3.793h1.12c0.672,1.248,1.248,1.921,2.465,2.817
		c-0.256,0.271-0.367,0.464-0.576,0.864c-1.2-1.073-1.68-1.633-2.4-2.865c-0.625,1.216-1.185,1.969-2.113,2.896
		c0.272,0.032,0.608,0.049,1.008,0.049h1.97c0.464,0,0.769-0.017,1.056-0.064v0.929c-0.336-0.049-0.592-0.064-1.072-0.064h-0.496
		v1.761h0.672c0.625,0,1.057-0.016,1.441-0.08v1.009c-0.416-0.064-0.801-0.08-1.441-0.08h-0.672v4.481
		c0.752-0.24,1.152-0.384,2.258-0.832l0.031,0.912c-1.521,0.624-2.93,1.089-4.914,1.665c-0.4,0.111-0.544,0.16-1.024,0.32
		l-0.272-1.104c0.625-0.032,1.217-0.16,2.994-0.688v-4.754H111.2c-0.656,0-1.041,0.016-1.488,0.08v-1.009
		c0.399,0.048,0.848,0.08,1.504,0.08h1.297v-1.761H111.968z M110.896,140.793c-0.176-1.265-0.352-2.032-0.768-3.297l0.8-0.272
		c0.368,1.072,0.576,1.856,0.816,3.249L110.896,140.793z M114.065,139.769c0.384-1.008,0.56-1.681,0.703-2.753l0.816,0.32
		c-0.271,1.232-0.416,1.681-0.8,2.721L114.065,139.769z M117.362,132.838c-0.352,0.992-0.545,1.44-1.008,2.272
		c-0.32-0.288-0.513-0.416-0.85-0.56c0.753-1.152,1.249-2.385,1.521-3.842c0.08-0.384,0.111-0.641,0.111-0.96l0.992,0.224
		c-0.096,0.384-0.096,0.416-0.191,0.849c-0.096,0.432-0.16,0.736-0.288,1.137h1.633c0-0.448,0-0.641,0-0.929
		c0-1.28-0.017-1.648-0.08-2.113h1.12c-0.08,0.448-0.08,0.448-0.096,3.042h1.521c0.833,0,1.265-0.032,1.649-0.097v1.072
		c-0.465-0.063-1.09-0.096-1.617-0.096h-1.568c-0.049,1.473-0.097,2.161-0.192,2.978h2.064c0.704,0,1.28-0.032,1.665-0.097v1.089
		c-0.528-0.064-1.072-0.096-1.648-0.096h-1.922c0.273,0.96,0.689,1.872,1.217,2.688c0.753,1.152,1.617,1.969,2.961,2.77
		c-0.352,0.336-0.479,0.528-0.703,0.944c-2.082-1.473-3.298-3.121-4.034-5.442c-0.753,2.481-1.937,3.985-4.241,5.426
		c-0.192-0.368-0.4-0.607-0.736-0.88c1.232-0.641,1.984-1.217,2.673-2.064c0.784-0.945,1.265-2.001,1.585-3.441h-1.232
		c-0.656,0-1.201,0.031-1.617,0.096v-1.089c0.4,0.064,0.961,0.097,1.601,0.097h1.393c0.112-0.753,0.16-1.601,0.208-2.978H117.362z"
		/>
	<path clip-path="url(#SVGID_2_)" d="M125.552,135.127c0.383,0.063,0.607,0.08,1.216,0.08h0.833c0.463,0,0.832-0.017,1.199-0.08
		c-0.047,0.496-0.063,0.912-0.063,1.664v3.09c0.304,0.704,0.816,1.168,1.601,1.505c0.721,0.304,1.904,0.416,4.193,0.416
		c2.113,0,4.114-0.112,5.555-0.32c-0.208,0.416-0.305,0.736-0.385,1.168c-1.648,0.064-4.049,0.112-5.41,0.112
		c-2.432,0-3.521-0.144-4.434-0.576c-0.688-0.32-1.104-0.688-1.664-1.488c-0.656,0.688-0.961,0.96-2.081,1.856
		c-0.112,0.08-0.208,0.16-0.368,0.32l-0.544-1.057c0.656-0.288,1.601-0.992,2.545-1.904v-3.826h-1.04
		c-0.529,0-0.77,0.017-1.152,0.08V135.127z M126.384,129.188c1.072,1.009,1.729,1.745,2.545,2.817l-0.801,0.704
		c-0.801-1.2-1.488-1.985-2.48-2.865L126.384,129.188z M132.642,130.597c-0.256-0.448-0.624-0.944-1.12-1.521l0.864-0.384
		c0.496,0.624,0.769,1.024,1.313,1.904h1.713c0.512-0.624,0.912-1.248,1.232-1.921l0.944,0.353c-0.416,0.672-0.752,1.137-1.12,1.568
		h1.473c0.768,0,1.217-0.031,1.584-0.096v1.04c-0.527-0.063-1.008-0.08-1.584-0.08h-2.978c-0.192,0.528-0.336,0.816-0.608,1.329
		h2.577c0.769,0,1.232-0.017,1.536-0.064c-0.047,0.496-0.063,0.992-0.063,1.617v4.354c0,0.641,0.017,1.185,0.063,1.648
		c-0.319-0.032-0.72-0.048-1.184-0.048h-5.09c-0.545,0-1.152,0.016-1.569,0.048c0.032-0.48,0.048-1.008,0.048-1.553v-4.497
		c0-0.561-0.031-1.201-0.08-1.569c0.369,0.048,0.881,0.064,1.682,0.064h1.072c0.271-0.496,0.447-0.881,0.607-1.329h-2.688
		c-0.769,0-1.12,0.017-1.616,0.064v-1.024c0.352,0.064,0.816,0.096,1.632,0.096H132.642z M131.602,139.448h5.843v-1.473h-5.843
		V139.448z M131.618,134.967h5.826v-1.345h-5.826V134.967z M131.618,137.159h5.826v-1.376h-5.826V137.159z"/>
	<path clip-path="url(#SVGID_2_)" d="M191.263,65.241c1.52,0.624,2.672,1.217,4.064,2.097l-0.623,1.072
		c-1.169-0.848-2.625-1.648-4.082-2.192L191.263,65.241z M190.846,72.556c1.04,0,2.705-0.384,4.306-0.992
		c1.984-0.752,3.506-1.889,4.803-3.569c0.896-1.168,1.424-2.177,1.92-3.585c0.4,0.416,0.561,0.56,0.992,0.848
		c-1.393,3.33-3.345,5.507-6.162,6.899c-1.12,0.56-2.736,1.104-4.049,1.376c-0.257,0.048-0.545,0.112-0.865,0.177
		c-0.32,0.063-0.384,0.096-0.624,0.176L190.846,72.556z M192.511,61.416c1.568,0.64,2.609,1.168,3.969,2.017l-0.656,1.072
		c-1.104-0.816-2.769-1.713-3.938-2.113L192.511,61.416z"/>
	<path clip-path="url(#SVGID_2_)" d="M204.126,68.667c0.225-0.129,0.336-0.225,0.528-0.4c0.479-0.465,1.952-2.241,2.737-3.281
		c0.912-1.217,1.313-1.521,2.033-1.521c0.64,0,0.896,0.191,2.064,1.473c1.793,1.969,3.713,3.81,5.475,5.233
		c0.752,0.608,1.008,0.801,1.328,0.961l-0.608,1.313c-0.353-0.32-0.368-0.336-1.425-1.232c-1.473-1.232-3.266-2.993-5.426-5.314
		c-1.057-1.137-1.121-1.185-1.441-1.185s-0.4,0.08-1.104,1.024c-0.625,0.849-1.873,2.385-2.897,3.569
		c-0.112,0.128-0.24,0.288-0.448,0.561L204.126,68.667z M214.259,62.664c0.703,0.736,1.119,1.28,1.695,2.209l-0.848,0.448
		c-0.528-0.912-0.928-1.457-1.664-2.257L214.259,62.664z M215.858,61.815c0.705,0.736,1.121,1.265,1.697,2.209l-0.849,0.448
		c-0.528-0.912-0.929-1.473-1.665-2.257L215.858,61.815z"/>
	<path clip-path="url(#SVGID_2_)" d="M222.591,61.367c-0.049,0.385-0.064,0.593-0.064,1.329v4.306c0,0.769,0.016,0.944,0.064,1.328
		h-1.328c0.047-0.368,0.063-0.704,0.063-1.344v-4.274c0-0.688-0.017-0.96-0.063-1.345H222.591z M229.682,61.367
		c-0.064,0.368-0.08,0.625-0.08,1.393v1.89c0,2.545-0.112,3.953-0.4,4.882c-0.464,1.504-1.473,2.673-3.041,3.553
		c-0.784,0.448-1.553,0.753-2.913,1.152c-0.176-0.464-0.272-0.624-0.672-1.104c1.439-0.32,2.208-0.593,3.041-1.089
		c1.488-0.864,2.256-1.889,2.561-3.377c0.176-0.913,0.225-1.649,0.225-4.082v-1.809c0-0.833-0.017-1.057-0.064-1.409H229.682z"/>
	<path clip-path="url(#SVGID_2_)" d="M239.36,64.697c-0.048,0.288-0.048,0.288-0.064,1.12c-0.048,2.673-0.496,4.258-1.584,5.635
		c-0.977,1.232-2.161,2.032-4.098,2.769c-0.24-0.512-0.353-0.672-0.736-1.072c1.297-0.384,2.097-0.784,2.929-1.473
		c1.696-1.36,2.321-2.993,2.321-6.114c0-0.448-0.016-0.561-0.064-0.864H239.36z M245.683,62.68c-0.16,0.209-0.191,0.257-0.384,0.641
		c-1.104,2.145-2.593,3.602-4.674,4.562c-0.24-0.399-0.368-0.544-0.784-0.912c1.12-0.432,1.776-0.816,2.529-1.521
		c0.736-0.688,1.328-1.473,1.792-2.385h-9.091c-0.881,0-1.297,0.016-1.89,0.08v-1.232c0.544,0.08,0.993,0.111,1.905,0.111h8.596
		c1.072,0,1.072,0,1.359-0.111L245.683,62.68z"/>
	<path clip-path="url(#SVGID_2_)" d="M249.71,65.369c-0.4,0-0.704,0.016-1.057,0.064v-0.849c-0.367,0.353-0.512,0.48-0.96,0.832
		c-0.239-0.464-0.239-0.464-0.608-0.816c1.537-1.104,2.465-2.225,3.138-3.793h1.12c0.672,1.248,1.248,1.921,2.465,2.817
		c-0.256,0.271-0.367,0.464-0.576,0.864c-1.2-1.073-1.68-1.633-2.4-2.865c-0.625,1.216-1.185,1.969-2.113,2.896
		c0.272,0.032,0.608,0.049,1.008,0.049h1.97c0.464,0,0.769-0.017,1.056-0.064v0.929c-0.336-0.049-0.592-0.064-1.072-0.064h-0.496
		v1.761h0.672c0.625,0,1.057-0.016,1.441-0.08v1.009c-0.416-0.064-0.801-0.08-1.441-0.08h-0.672v4.481
		c0.752-0.24,1.152-0.384,2.258-0.832l0.031,0.912c-1.521,0.624-2.93,1.089-4.914,1.665c-0.4,0.111-0.544,0.16-1.024,0.32
		l-0.272-1.104c0.625-0.032,1.217-0.16,2.994-0.688v-4.754h-1.313c-0.656,0-1.041,0.016-1.488,0.08V67.05
		c0.399,0.048,0.848,0.08,1.504,0.08h1.297v-1.761H249.71z M248.638,72.46c-0.176-1.265-0.352-2.032-0.768-3.297l0.8-0.272
		c0.368,1.072,0.576,1.856,0.816,3.249L248.638,72.46z M251.808,71.436c0.384-1.008,0.56-1.681,0.703-2.753l0.816,0.32
		c-0.271,1.232-0.416,1.681-0.8,2.721L251.808,71.436z M255.104,64.505c-0.352,0.992-0.545,1.44-1.008,2.272
		c-0.32-0.288-0.513-0.416-0.85-0.56c0.753-1.152,1.249-2.385,1.521-3.842c0.08-0.384,0.111-0.641,0.111-0.96l0.992,0.224
		c-0.096,0.384-0.096,0.416-0.191,0.849c-0.096,0.432-0.16,0.736-0.288,1.137h1.633c0-0.448,0-0.641,0-0.929
		c0-1.28-0.017-1.648-0.08-2.113h1.12c-0.08,0.448-0.08,0.448-0.096,3.042h1.521c0.833,0,1.265-0.032,1.649-0.097v1.072
		c-0.465-0.063-1.09-0.096-1.617-0.096h-1.568c-0.049,1.473-0.097,2.161-0.192,2.978h2.064c0.704,0,1.28-0.032,1.665-0.097v1.089
		c-0.528-0.064-1.072-0.096-1.648-0.096h-1.922c0.273,0.96,0.689,1.872,1.217,2.688c0.753,1.152,1.617,1.969,2.961,2.77
		c-0.352,0.336-0.479,0.528-0.703,0.944c-2.082-1.473-3.298-3.121-4.034-5.442c-0.753,2.481-1.937,3.985-4.241,5.426
		c-0.192-0.368-0.4-0.607-0.736-0.88c1.232-0.641,1.984-1.217,2.673-2.064c0.784-0.945,1.265-2.001,1.585-3.441h-1.232
		c-0.656,0-1.201,0.031-1.617,0.096v-1.089c0.4,0.064,0.961,0.097,1.601,0.097h1.393c0.112-0.753,0.16-1.601,0.208-2.978H255.104z"
		/>
	<path clip-path="url(#SVGID_2_)" d="M263.294,66.794c0.383,0.063,0.607,0.08,1.216,0.08h0.833c0.463,0,0.832-0.017,1.199-0.08
		c-0.047,0.496-0.063,0.912-0.063,1.664v3.09c0.304,0.704,0.816,1.168,1.601,1.505c0.721,0.304,1.904,0.416,4.193,0.416
		c2.113,0,4.114-0.112,5.555-0.32c-0.208,0.416-0.305,0.736-0.385,1.168c-1.648,0.064-4.049,0.112-5.41,0.112
		c-2.432,0-3.521-0.144-4.434-0.576c-0.688-0.32-1.104-0.688-1.664-1.488c-0.656,0.688-0.961,0.96-2.081,1.856
		c-0.112,0.08-0.208,0.16-0.368,0.32l-0.544-1.057c0.656-0.288,1.601-0.992,2.545-1.904v-3.826h-1.04
		c-0.529,0-0.77,0.017-1.152,0.08V66.794z M264.126,60.855c1.072,1.009,1.729,1.745,2.545,2.817l-0.801,0.704
		c-0.801-1.2-1.488-1.985-2.48-2.865L264.126,60.855z M270.384,62.264c-0.256-0.448-0.624-0.944-1.12-1.521l0.864-0.384
		c0.496,0.624,0.769,1.024,1.313,1.904h1.713c0.512-0.624,0.912-1.248,1.232-1.921l0.944,0.353c-0.416,0.672-0.752,1.137-1.12,1.568
		h1.473c0.768,0,1.217-0.031,1.584-0.096v1.04c-0.527-0.063-1.008-0.08-1.584-0.08h-2.978c-0.192,0.528-0.336,0.816-0.608,1.329
		h2.577c0.769,0,1.232-0.017,1.536-0.064c-0.047,0.496-0.063,0.992-0.063,1.617v4.354c0,0.641,0.017,1.185,0.063,1.648
		c-0.319-0.032-0.72-0.048-1.184-0.048h-5.09c-0.545,0-1.152,0.016-1.569,0.048c0.032-0.48,0.048-1.008,0.048-1.553v-4.497
		c0-0.561-0.031-1.201-0.08-1.569c0.369,0.048,0.881,0.064,1.682,0.064h1.072c0.271-0.496,0.447-0.881,0.607-1.329h-2.688
		c-0.769,0-1.12,0.017-1.616,0.064v-1.024c0.352,0.064,0.816,0.096,1.632,0.096H270.384z M269.344,71.115h5.843v-1.473h-5.843
		V71.115z M269.36,66.634h5.826v-1.345h-5.826V66.634z M269.36,68.826h5.826V67.45h-5.826V68.826z"/>
	<circle clip-path="url(#SVGID_2_)" cx="18.865" cy="253.187" r="4.147"/>
	
		<polyline clip-path="url(#SVGID_2_)" fill="none" stroke="#000000" stroke-width="0.57" stroke-miterlimit="3.864" stroke-dasharray="2.84,1.42" points="
		199.885,290.331 200.031,289.331 199.144,288.431 199.078,287.138 197.018,283.764 194.772,281.643 188.724,274.1 185.069,267.675 
		182.506,264.226 182.729,262.722 177.732,260.197 176.131,258.938 174.672,256.675 173.135,256.707 170.491,255.549 
		169.354,254.614 169.86,252.897 170.471,252.219 170.972,252.293 171.075,253.332 171.573,253.405 171.545,251.864 170.48,250.427 
		171.061,248.208 169.92,247.273 169.928,245.482 170.861,244.34 172.612,244.597 174.694,242.598 175.204,240.881 176.812,240.349 
		179.317,240.716 181,239.683 184.626,235.864 184.377,235.829 183.954,235.254 184.847,234.359 186.171,234.043 190.226,230.797 
		190.953,227.576 192.206,227.758 193.176,226.366 194.535,225.798 195.471,224.656 196.874,223.837 197.203,221.582 
		196.745,219.466 196.354,218.641 196.147,216.563 196.657,214.847 194.949,212.546 195.106,209.754 195.181,209.253 196,208.86 
		196.791,208.72 197.479,205.75 198.018,205.574 198.203,204.32 198.924,202.89 198.999,202.389 200.11,201.784 200.829,200.354 
		201.977,199.498 202.92,196.564 203.528,195.887 204.92,196.859 205.559,197.72 206.348,197.58 206.905,197.025 	"/>
	
		<polyline clip-path="url(#SVGID_2_)" fill="none" stroke="#000000" stroke-width="0.57" stroke-miterlimit="3.864" stroke-dasharray="2.84,1.42" points="
		206.742,197.146 205.736,195.367 204.845,194.469 198.862,188.212 195.611,187.735 194.337,192.926 193.181,195.572 190.32,195.92 
		188.284,195.878 186.525,197.411 185.721,201.134 184.426,202.992 180.806,205.019 174.298,205.856 173.148,206.712 
		172.891,208.466 176.053,213.026 175.473,215.244 174.289,216.351 172.68,216.88 162.737,216.705 161.455,214.979 161.719,211.436 
		161.08,210.572 160.116,210.175 157.682,211.099 155.313,213.31 154.432,219.324 151.125,222.679 148.713,226.934 144.452,228.1 
		142.798,230.674 140.363,231.594 139.428,232.736 135.948,235.555 133.976,236.8 128.553,242.406 126.801,245.633 127.054,245.077 
		127.23,245.614 129.262,247.447 131.401,248.531 131.504,249.57 132.073,250.934 131.924,251.936 133.072,251.081 133.043,249.542 
		133.439,248.574 137.293,250.164 137.795,250.238 140.4,251.645 141.4,251.79 143.124,250.507 144.089,250.905 143.477,251.584 
		142.903,252.011 141.895,253.655 143.071,254.341 142.424,255.269 143.242,256.67 141.842,257.489 141.039,261.21 140.467,261.638 
		140.276,264.682 140.166,265.433 140.551,266.26 139.731,266.651 138.729,266.504 138.369,267.219 138.545,267.756 138.26,267.97 
		137.437,268.361 138.287,269.51 136.78,271.082 136.05,274.302 135.515,274.478 134.904,275.158 134.328,275.585 134.755,276.162 
		136.723,276.705 139.006,276.783 139.798,276.644 140.298,276.719 141.045,276.828 141.222,277.367 140.687,277.544 
		140.398,277.757 139.687,277.397 139.363,277.861 139.578,278.146 140.289,278.506 140.004,278.722 139.002,278.576 
		138.428,279.002 138.604,279.542 139.355,279.652 139.604,279.688 140.319,280.048 142.145,279.804 142.033,280.557 
		142.534,280.631 143.036,280.704 143.36,280.24 143.931,279.81 144.43,279.884 144.609,280.423 144.32,280.635 143.82,280.563 
		143.25,280.992 143.961,281.353 143.886,281.852 142.814,282.207 143.244,282.782 143.74,282.855 145.174,281.786 144.997,281.248 
		145.106,280.496 145.712,281.61 146.499,281.469 146.795,279.462 147.369,279.037 147.555,277.783 148.302,277.895 149.09,277.752 
		150.085,279.689 150.795,280.049 151.333,279.874 150.98,278.799 151.518,278.623 152.229,278.983 152.333,280.021 
		152.758,280.596 153.474,280.956 153.977,281.031 154.01,280.779 154.121,280.028 154.699,279.6 155.659,279.998 157.521,279.502 
		160.161,280.658 160.838,281.268 159.838,281.121 160.083,282.951 159.722,283.667 160.648,284.314 162.149,284.534 
		161.893,286.288 162.819,286.937 163.355,286.758 163.42,288.048 164.1,288.66 163.127,290.053 162.339,290.196 162.766,290.772 
		163.768,290.917 164.483,291.279 163.62,291.919 	"/>
</g>
</svg>
