<?xml version="1.0" encoding="utf-8"?>
<!-- Generator: Adobe Illustrator 16.0.3, SVG Export Plug-In . SVG Version: 6.00 Build 0)  -->
<!DOCTYPE svg PUBLIC "-//W3C//DTD SVG 1.1//EN" "http://www.w3.org/Graphics/SVG/1.1/DTD/svg11.dtd">
<svg version="1.1" id="レイヤー_1" xmlns="http://www.w3.org/2000/svg" xmlns:xlink="http://www.w3.org/1999/xlink" x="0px"
	 y="0px" width="177.236px" height="39.396px" viewBox="0 0 177.236 39.396" enable-background="new 0 0 177.236 39.396"
	 xml:space="preserve">
<g>
	<path d="M149.693,33.444v0.64H149c0.027-0.198,0.035-0.379,0.035-0.676v-4.889c0-0.369-0.008-0.486-0.035-0.701
		c0.18,0.018,0.35,0.026,0.701,0.026h4.799c0.387,0,0.496,0,0.703-0.026c-0.027,0.215-0.027,0.332-0.027,0.701v4.871
		c0,0.27,0.008,0.504,0.027,0.693h-0.686v-0.64H149.693z M154.517,28.439h-4.824v4.42h4.824V28.439z"/>
	<path d="M158.259,29.411c0.855,0.351,1.504,0.685,2.287,1.179l-0.352,0.604c-0.656-0.477-1.477-0.927-2.295-1.232L158.259,29.411z
		 M158.027,33.525c0.584,0,1.521-0.216,2.42-0.559c1.117-0.423,1.973-1.063,2.701-2.008c0.504-0.656,0.801-1.224,1.08-2.016
		c0.227,0.234,0.316,0.314,0.559,0.477c-0.783,1.873-1.881,3.098-3.465,3.881c-0.631,0.314-1.541,0.621-2.279,0.773
		c-0.143,0.027-0.305,0.063-0.486,0.1c-0.18,0.035-0.215,0.054-0.35,0.099L158.027,33.525z M158.962,27.259
		c0.883,0.359,1.467,0.657,2.232,1.135l-0.369,0.603c-0.621-0.459-1.557-0.964-2.215-1.188L158.962,27.259z"/>
	<path d="M170.257,29.105c-0.027,0.162-0.027,0.162-0.035,0.63c-0.027,1.503-0.279,2.395-0.891,3.169
		c-0.551,0.693-1.217,1.143-2.305,1.558c-0.137-0.288-0.199-0.378-0.416-0.604c0.73-0.216,1.18-0.44,1.648-0.828
		c0.955-0.765,1.305-1.684,1.305-3.438c0-0.252-0.008-0.315-0.035-0.486H170.257z M173.814,27.97
		c-0.09,0.117-0.107,0.145-0.217,0.36c-0.621,1.206-1.457,2.025-2.629,2.565c-0.135-0.225-0.207-0.307-0.439-0.514
		c0.629-0.242,0.998-0.459,1.422-0.854c0.414-0.388,0.746-0.828,1.008-1.341h-5.113c-0.496,0-0.729,0.008-1.063,0.045v-0.693
		c0.307,0.045,0.559,0.063,1.072,0.063h4.834c0.604,0,0.604,0,0.766-0.063L173.814,27.97z"/>
</g>
<rect x="145.679" y="24.687" fill="none" stroke="#000000" stroke-width="0.75" stroke-miterlimit="10" width="31.182" height="12.334"/>
<g>
	<path d="M10.428,24.351c-0.288-0.045-0.55-0.063-1.045-0.063H3.766c-0.478,0-0.783,0.019-1.099,0.063V23.63
		c0.307,0.036,0.604,0.054,1.09,0.054h5.617c0.468,0,0.747-0.018,1.054-0.054V24.351z M3.343,17.463
		c0.27,0.045,0.54,0.063,1.035,0.063H8.69c0.505,0,0.793-0.018,1.081-0.063v0.711c-0.307-0.036-0.595-0.054-1.081-0.054H4.378
		c-0.478,0-0.748,0.018-1.035,0.054V17.463z M3.892,20.398c0.234,0.036,0.504,0.054,0.937,0.054h3.438
		c0.433,0,0.685-0.018,0.937-0.054v0.693c-0.279-0.036-0.514-0.045-0.937-0.045h-3.43c-0.441,0-0.693,0.009-0.945,0.045V20.398z"/>
	<path d="M11.749,19.102c0.63,0.378,0.999,0.657,1.504,1.116l-0.343,0.477c-0.513-0.531-0.846-0.792-1.494-1.179L11.749,19.102z
		 M13.315,22.054c-0.369,0.973-0.639,1.549-1.044,2.225c-0.145,0.252-0.145,0.252-0.198,0.333C12,24.738,12,24.738,11.938,24.836
		l-0.514-0.485c0.414-0.361,0.981-1.414,1.44-2.674L13.315,22.054z M12.181,16.915c0.576,0.387,0.918,0.666,1.368,1.152
		l-0.369,0.432c-0.486-0.549-0.802-0.819-1.368-1.188L12.181,16.915z M14.531,22.865v1.144c0,0.405,0.018,0.667,0.054,0.909h-0.657
		c0.036-0.252,0.054-0.549,0.054-0.909v-3.88c0-0.351-0.009-0.612-0.036-0.837c0.243,0.036,0.495,0.045,0.855,0.045h1.432v-0.918
		h-1.566c-0.352,0-0.721,0.018-0.928,0.054v-0.612c0.217,0.036,0.559,0.054,0.937,0.054h1.558v-0.288
		c0-0.342-0.018-0.567-0.054-0.81h0.657c-0.036,0.225-0.055,0.486-0.055,0.819v0.279h1.882c0.369,0,0.711-0.018,0.937-0.054v0.612
		c-0.262-0.036-0.559-0.054-0.918-0.054h-1.9v0.918h1.558c0.45,0,0.702-0.009,0.919-0.036c-0.027,0.252-0.046,0.585-0.046,1.008
		v3.871c0,0.486-0.197,0.648-0.765,0.648c-0.271,0-0.559-0.018-0.883-0.055c-0.018-0.215-0.045-0.323-0.135-0.576
		c0.414,0.072,0.657,0.1,0.954,0.1c0.234,0,0.279-0.036,0.279-0.234v-1.197h-1.882v1.18c0,0.314,0.019,0.604,0.055,0.828h-0.657
		c0.036-0.225,0.054-0.514,0.054-0.828v-1.18H14.531z M16.232,19.822h-1.701v1.017h1.701V19.822z M16.232,21.316h-1.701v1.072h1.701
		V21.316z M18.663,20.839v-1.017h-1.882v1.017H18.663z M18.663,22.388v-1.072h-1.882v1.072H18.663z M18.626,17.814
		c-0.36-0.27-0.702-0.459-1.206-0.666l0.324-0.387c0.468,0.198,0.855,0.405,1.197,0.657L18.626,17.814z"/>
	<path d="M21.775,17.707c0-0.513-0.009-0.711-0.045-0.927h0.63c-0.026,0.216-0.045,0.486-0.045,0.918v0.846h0.459
		c0.252,0,0.405-0.009,0.585-0.036v0.549c-0.188-0.018-0.368-0.027-0.576-0.027h-0.449c0.216,0.549,0.485,0.945,0.909,1.333
		c-0.108,0.117-0.198,0.234-0.324,0.441c-0.307-0.387-0.486-0.684-0.648-1.053c0.036,0.675,0.045,1.026,0.045,1.44v2.764
		c0,0.486,0.019,0.801,0.054,1.044h-0.647c0.036-0.252,0.054-0.576,0.054-1.044v-2.512c0-0.495,0.009-0.685,0.081-1.558
		c-0.369,1.404-0.63,2.07-1.144,2.872c-0.126-0.226-0.153-0.252-0.369-0.486c0.631-0.864,1.107-1.999,1.368-3.241h-0.459
		c-0.27,0-0.477,0.009-0.63,0.036v-0.558c0.153,0.027,0.342,0.036,0.63,0.036h0.522V17.707z M24.278,20.596
		c0.243-0.621,0.306-0.801,0.468-1.359h-0.314c-0.279,0-0.559,0.018-0.774,0.045v-0.585c0.233,0.027,0.486,0.045,0.774,0.045h0.449
		c0.091-0.342,0.145-0.567,0.234-1.044h-0.945c-0.405,0-0.621,0.009-0.882,0.045v-0.594c0.288,0.045,0.504,0.054,0.882,0.054h3.403
		c0.387,0,0.585-0.009,0.882-0.054v0.594c-0.261-0.036-0.486-0.045-0.882-0.045h-1.899c-0.027,0.144-0.027,0.144-0.108,0.513
		c-0.027,0.135-0.063,0.279-0.135,0.531h1.386c0.36,0,0.567-0.009,0.774-0.036c-0.026,0.198-0.036,0.387-0.036,0.765v1.125h0.243
		c0.441,0,0.621-0.009,0.874-0.054v0.603c-0.262-0.036-0.478-0.045-0.874-0.045h-3.816c-0.379,0-0.595,0.009-0.847,0.045v-0.594
		c0.252,0.036,0.423,0.045,0.847,0.045H24.278z M24.125,25.007H23.54c0.027-0.207,0.045-0.449,0.045-0.783V22.63
		c0-0.252-0.009-0.513-0.036-0.746c0.198,0.026,0.369,0.035,0.747,0.035h3.017c0.414,0,0.594-0.009,0.747-0.035
		c-0.027,0.18-0.036,0.396-0.036,0.773v1.558c0,0.343,0.018,0.558,0.054,0.792h-0.604v-0.486h-3.349V25.007z M24.125,24.008h3.349
		v-1.575h-3.349V24.008z M27.014,20.596v-1.359h-1.719c-0.181,0.63-0.243,0.811-0.441,1.359H27.014z"/>
	<path d="M34.322,20.029c0-0.198,0.009-0.414,0.027-0.675c-0.567,0.738-1.188,1.242-2.116,1.737
		c-0.107-0.198-0.18-0.288-0.333-0.432c-0.063,0.09-0.071,0.108-0.117,0.189c-0.252-0.378-0.314-0.504-0.549-1.044
		c0.036,0.612,0.045,1.044,0.045,1.485v2.728c0,0.496,0.019,0.793,0.055,1.045h-0.648c0.036-0.262,0.054-0.576,0.054-1.045v-2.539
		c0-0.422,0.009-0.729,0.045-1.431c-0.288,1.152-0.603,1.882-1.107,2.61c-0.117-0.216-0.207-0.359-0.351-0.504
		c0.558-0.729,1.044-1.792,1.368-2.998h-0.549c-0.262,0-0.486,0.009-0.64,0.027v-0.549c0.162,0.027,0.352,0.036,0.648,0.036h0.585
		v-0.891c0-0.522-0.009-0.721-0.045-0.937h0.63c-0.036,0.243-0.045,0.441-0.045,0.927l-0.009,0.9h0.297
		c0.271,0,0.433-0.009,0.595-0.036v0.54c-0.207-0.009-0.388-0.018-0.595-0.018h-0.27c0.198,0.459,0.459,0.882,0.792,1.261
		c-0.081,0.081-0.099,0.108-0.189,0.234c0.883-0.369,1.521-0.828,2.089-1.485h-0.756c-0.307,0-0.666,0.018-0.855,0.036v-0.549
		c0.18,0.018,0.531,0.036,0.847,0.036h1.098v-1.134c0-0.252-0.018-0.45-0.045-0.693h0.621c-0.036,0.216-0.045,0.423-0.045,0.693
		v1.134h1.782c0.352,0,0.648-0.009,0.855-0.036v0.549c-0.18-0.018-0.54-0.036-0.855-0.036h-1.458
		c0.594,0.603,1.396,1.089,2.332,1.404c-0.126,0.135-0.243,0.306-0.324,0.468c-1.08-0.468-1.783-0.981-2.359-1.702
		c0.019,0.252,0.027,0.468,0.027,0.684v0.306c0,0.207,0.009,0.369,0.045,0.541h-0.621c0.027-0.198,0.045-0.342,0.045-0.541V20.029z
		 M36.285,22.126c-0.271,0.676-0.495,1.009-1.018,1.486c0.892,0.369,1.432,0.63,2.089,0.99l-0.414,0.468
		c-0.757-0.468-1.297-0.757-2.116-1.116c-0.783,0.54-1.62,0.846-2.89,1.08c-0.09-0.234-0.144-0.333-0.297-0.531
		c1.071-0.126,1.891-0.369,2.61-0.783c-0.692-0.27-0.999-0.369-1.692-0.559c0.405-0.414,0.612-0.656,0.874-1.035h-0.712
		c-0.396,0-0.621,0.01-0.846,0.045v-0.576c0.207,0.037,0.45,0.045,0.854,0.045h1.009c0.198-0.333,0.288-0.531,0.342-0.747
		l0.595,0.153c-0.081,0.126-0.09,0.135-0.207,0.36c-0.027,0.045-0.045,0.071-0.145,0.233h2.305c0.433,0,0.685-0.008,0.873-0.045
		v0.576c-0.207-0.026-0.477-0.045-0.864-0.045H36.285z M32.909,17.058c0.351,0.478,0.54,0.792,0.774,1.288l-0.441,0.252
		c-0.279-0.567-0.441-0.837-0.783-1.287L32.909,17.058z M34.016,22.126c-0.234,0.352-0.324,0.478-0.604,0.802
		c0.522,0.162,0.802,0.261,1.323,0.468c0.297-0.234,0.531-0.486,0.702-0.756c0.1-0.145,0.136-0.217,0.252-0.514H34.016z
		 M36.878,17.301c-0.396,0.639-0.585,0.9-0.945,1.296l-0.423-0.252c0.387-0.441,0.585-0.729,0.882-1.278L36.878,17.301z"/>
</g>
<rect x="0.375" y="14.838" fill="none" stroke="#000000" stroke-width="0.75" stroke-miterlimit="10" width="38.75" height="12.333"/>
<g>
	<path d="M48.107,27.124c0,0.399-0.182,0.554-0.567,0.554h-0.833c-0.399,0-0.582-0.154-0.582-0.554v-4.259
		c0-0.398,0.183-0.553,0.582-0.553h0.833c0.386,0,0.567,0.154,0.567,0.553V27.124z M47.588,24.644v-1.66
		c0-0.154-0.069-0.189-0.21-0.189h-0.525c-0.146,0-0.21,0.035-0.21,0.189v1.66H47.588z M46.643,25.107v1.891
		c0,0.154,0.063,0.189,0.21,0.189h0.525c0.141,0,0.21-0.035,0.21-0.189v-1.891H46.643z M52.289,24.371
		c0.133,0,0.196,0.105,0.196,0.246c0,0.139-0.063,0.244-0.196,0.244h-3.846c-0.133,0-0.195-0.105-0.195-0.244
		c0-0.141,0.063-0.246,0.195-0.246h2.228c0.21-0.343,0.371-0.707,0.47-0.994c0.042-0.119,0.111-0.176,0.224-0.176
		c0.028,0,0.063,0.008,0.098,0.015c0.127,0.034,0.183,0.099,0.183,0.188c0,0.035-0.007,0.07-0.021,0.105
		c-0.098,0.287-0.272,0.603-0.42,0.861H52.289z M52.079,22.599c0.126,0,0.195,0.098,0.195,0.238c0,0.14-0.069,0.238-0.195,0.238
		h-3.404c-0.133,0-0.196-0.099-0.196-0.238c0-0.141,0.063-0.238,0.196-0.238h1.373v-0.463c0-0.133,0.104-0.195,0.266-0.195
		c0.168,0,0.267,0.063,0.267,0.195v0.463H52.079z M51.392,25.359c0.371,0,0.567,0.175,0.567,0.56v1.786
		c0,0.379-0.196,0.553-0.567,0.553h-2.108c-0.378,0-0.581-0.174-0.581-0.553v-1.786c0-0.385,0.203-0.56,0.581-0.56H51.392z
		 M49.039,23.432c0-0.084,0.056-0.153,0.161-0.203c0.042-0.014,0.077-0.021,0.112-0.021c0.091,0,0.161,0.049,0.21,0.126
		c0.091,0.168,0.196,0.413,0.245,0.595c0.007,0.043,0.014,0.078,0.014,0.105c0,0.091-0.049,0.154-0.154,0.189
		c-0.049,0.021-0.091,0.027-0.133,0.027c-0.104,0-0.175-0.056-0.21-0.16c-0.049-0.154-0.14-0.386-0.217-0.547
		C49.045,23.502,49.039,23.467,49.039,23.432z M51.455,26.542v-0.574c0-0.134-0.063-0.168-0.196-0.168H49.41
		c-0.14,0-0.203,0.034-0.203,0.168v0.574H51.455z M49.207,26.99v0.638c0,0.14,0.063,0.175,0.203,0.175h1.849
		c0.134,0,0.196-0.035,0.196-0.175V26.99H49.207z"/>
	<path d="M53.251,25.435c-0.127,0-0.196-0.098-0.196-0.238c0-0.14,0.069-0.238,0.196-0.238h1.12v-0.623
		c0-0.125,0.098-0.189,0.245-0.189s0.252,0.064,0.252,0.189v0.623h0.827c0.126,0,0.195,0.099,0.195,0.238
		c0,0.141-0.069,0.238-0.195,0.238H54.96c0.266,0.399,0.574,0.715,1.022,1.044c0.069,0.042,0.104,0.119,0.104,0.196
		c0,0.042-0.014,0.098-0.049,0.14c-0.049,0.085-0.14,0.134-0.225,0.134c-0.042,0-0.084-0.015-0.118-0.043
		c-0.379-0.301-0.645-0.658-0.876-1.051c0.035,0.225,0.049,0.441,0.049,0.609v1.766c0,0.126-0.104,0.196-0.252,0.196
		s-0.245-0.07-0.245-0.196v-1.597c0-0.189,0.028-0.462,0.049-0.645c-0.224,0.539-0.581,1.142-1.058,1.569
		c-0.056,0.056-0.126,0.084-0.195,0.084c-0.07,0-0.141-0.028-0.196-0.092c-0.049-0.049-0.07-0.111-0.07-0.175
		c0-0.077,0.035-0.154,0.091-0.203c0.483-0.392,0.96-1.022,1.274-1.737H53.251z M55.303,22.052c0.042-0.063,0.112-0.098,0.189-0.098
		c0.049,0,0.104,0.014,0.153,0.035c0.099,0.049,0.147,0.126,0.147,0.21c0,0.049-0.014,0.091-0.042,0.133
		c-0.168,0.259-0.378,0.519-0.616,0.771c0.23,0.161,0.448,0.315,0.623,0.455c0.063,0.057,0.099,0.119,0.099,0.189
		c0,0.063-0.021,0.126-0.07,0.182c-0.057,0.084-0.141,0.127-0.218,0.127c-0.056,0-0.104-0.021-0.153-0.063
		c-0.189-0.168-0.413-0.343-0.651-0.519c-0.399,0.364-0.848,0.693-1.296,0.925c-0.049,0.021-0.091,0.035-0.141,0.035
		c-0.091,0-0.175-0.05-0.23-0.154c-0.028-0.042-0.035-0.084-0.035-0.119c0-0.099,0.056-0.183,0.154-0.224
		c0.399-0.189,0.784-0.455,1.127-0.757c-0.294-0.188-0.588-0.371-0.861-0.519c-0.069-0.041-0.112-0.105-0.112-0.182
		c0-0.049,0.015-0.092,0.043-0.141c0.063-0.084,0.146-0.133,0.23-0.133c0.035,0,0.077,0.008,0.112,0.028
		c0.301,0.161,0.638,0.371,0.96,0.581C54.939,22.578,55.135,22.319,55.303,22.052z M56.27,25.4c-0.134,0-0.196-0.104-0.196-0.238
		c0-0.133,0.063-0.244,0.196-0.244h2.227c0.329,0,0.477,0.168,0.477,0.398c0,0.099-0.021,0.197-0.063,0.302
		c-0.188,0.462-0.518,0.945-0.931,1.38c0.406,0.35,0.882,0.623,1.4,0.813c0.091,0.035,0.14,0.125,0.14,0.224
		c0,0.05-0.014,0.104-0.034,0.147c-0.063,0.119-0.141,0.175-0.238,0.175c-0.042,0-0.092-0.015-0.141-0.035
		c-0.532-0.217-1.043-0.554-1.491-0.974c-0.498,0.441-1.093,0.82-1.716,1.051c-0.042,0.021-0.085,0.028-0.127,0.028
		c-0.098,0-0.188-0.05-0.237-0.161c-0.021-0.035-0.028-0.077-0.028-0.119c0-0.105,0.063-0.196,0.154-0.231
		c0.609-0.224,1.155-0.546,1.604-0.925c-0.406-0.469-0.714-1.001-0.903-1.59H56.27z M57.986,22.794c0-0.14-0.07-0.182-0.189-0.182
		H57.18c-0.119,0-0.189,0.042-0.189,0.182c0,0.876-0.195,1.43-0.679,1.85c-0.057,0.049-0.119,0.077-0.183,0.077
		c-0.063,0-0.133-0.028-0.188-0.084c-0.057-0.05-0.084-0.119-0.084-0.183c0-0.063,0.021-0.111,0.063-0.16
		c0.441-0.393,0.574-0.834,0.574-1.64c0-0.378,0.196-0.532,0.567-0.532h0.861c0.379,0,0.567,0.161,0.567,0.525v1.142
		c0,0.147,0.042,0.183,0.21,0.183c0.183,0,0.238-0.035,0.28-0.119c0.035-0.084,0.063-0.302,0.07-0.484
		c0.007-0.14,0.098-0.195,0.217-0.195c0.007,0,0.015,0,0.021,0c0.133,0.007,0.23,0.084,0.23,0.225
		c-0.007,0.301-0.056,0.609-0.153,0.763c-0.112,0.175-0.28,0.267-0.708,0.267c-0.539,0-0.672-0.119-0.672-0.498V22.794z
		 M56.865,25.4c0.168,0.463,0.428,0.891,0.764,1.254c0.329-0.343,0.574-0.715,0.729-1.078c0.014-0.042,0.021-0.07,0.021-0.098
		c0-0.057-0.034-0.078-0.111-0.078H56.865z"/>
	<path d="M46.181,31.656c-0.126,0-0.189-0.104-0.189-0.244c0-0.141,0.063-0.231,0.189-0.231h2.661c0.119,0,0.183,0.091,0.183,0.231
		c0,0.14-0.063,0.244-0.183,0.244H46.181z M46.503,30.626c-0.112,0-0.183-0.091-0.183-0.224c0-0.14,0.07-0.224,0.183-0.224h2.087
		c0.119,0,0.189,0.084,0.189,0.224c0,0.133-0.07,0.224-0.189,0.224H46.503z M46.503,32.658c-0.119,0-0.176-0.105-0.176-0.23
		c0-0.127,0.057-0.217,0.176-0.217h2.059c0.112,0,0.176,0.09,0.176,0.217c0,0.125-0.063,0.23-0.176,0.23H46.503z M46.503,33.66
		c-0.119,0-0.176-0.105-0.176-0.225c0-0.125,0.057-0.224,0.176-0.224h2.059c0.112,0,0.176,0.091,0.176,0.217
		s-0.063,0.231-0.176,0.231H46.503z M48.738,35.782c0,0.356-0.176,0.505-0.54,0.505h-1.31c-0.364,0-0.539-0.148-0.539-0.505v-1.079
		c0-0.357,0.175-0.496,0.539-0.496h1.31c0.364,0,0.54,0.139,0.54,0.496V35.782z M47.042,34.626c-0.126,0-0.189,0.035-0.189,0.168
		v0.883c0,0.133,0.063,0.168,0.189,0.168h1.002c0.126,0,0.188-0.035,0.188-0.168v-0.883c0-0.133-0.063-0.168-0.188-0.168H47.042z
		 M52.331,32.216c0.126,0,0.21,0.105,0.21,0.26c0,0.146-0.084,0.259-0.21,0.259h-1.373v3.453c0,0.133-0.105,0.21-0.273,0.21
		c-0.161,0-0.272-0.077-0.272-0.21v-3.453h-1.24c-0.126,0-0.21-0.112-0.21-0.259c0-0.154,0.084-0.26,0.21-0.26h1.24v-2.045
		c0-0.133,0.111-0.203,0.272-0.203c0.168,0,0.273,0.07,0.273,0.203v2.045H52.331z"/>
	<path d="M53.195,30.683c-0.126,0-0.196-0.105-0.196-0.245c0-0.147,0.07-0.253,0.196-0.253h6.003c0.126,0,0.195,0.113,0.195,0.253
		c0,0.147-0.069,0.245-0.195,0.245h-2.781v0.764h1.03c0.385,0,0.574,0.154,0.574,0.546v2.599c0,0.385-0.183,0.539-0.574,0.539
		h-2.515c-0.386,0-0.567-0.154-0.567-0.539v-2.599c0-0.392,0.182-0.546,0.567-0.546h0.987v-0.764H53.195z M53.685,35.459
		c0,0.203,0.084,0.272,0.322,0.272h4.385c0.238,0,0.314-0.063,0.314-0.266V31.81c0-0.14,0.099-0.209,0.267-0.209
		c0.161,0,0.267,0.069,0.267,0.209v3.783c0,0.44-0.218,0.637-0.638,0.637h-4.812c-0.421,0-0.638-0.196-0.638-0.637V31.81
		c0-0.14,0.105-0.209,0.267-0.209c0.168,0,0.266,0.069,0.266,0.209V35.459z M55.051,31.909c-0.126,0-0.189,0.049-0.189,0.175v0.918
		h1.058v-1.093H55.051z M54.862,33.449V34.5c0,0.127,0.063,0.176,0.189,0.176h0.868v-1.227H54.862z M56.417,33.001h1.106v-0.918
		c0-0.126-0.063-0.175-0.188-0.175h-0.918V33.001z M56.417,34.675h0.918c0.126,0,0.188-0.049,0.188-0.176v-1.051h-1.106V34.675z"/>
</g>
<g>
	<path d="M123.255,18.417c0-0.28,0.027-0.595,0.069-0.896c-0.14,0.245-0.314,0.519-0.483,0.708c-0.063,0.07-0.14,0.112-0.224,0.112
		c-0.063,0-0.126-0.021-0.182-0.07c-0.07-0.063-0.105-0.133-0.105-0.21c0-0.056,0.021-0.112,0.063-0.161
		c0.701-0.792,1.185-1.681,1.479-2.767c0.027-0.119,0.111-0.175,0.23-0.175c0.035,0,0.07,0.007,0.105,0.014
		c0.133,0.035,0.21,0.112,0.21,0.224c0,0.028,0,0.049-0.014,0.077c-0.141,0.469-0.351,0.98-0.616,1.506v4.461
		c0,0.133-0.105,0.203-0.267,0.203s-0.266-0.07-0.266-0.203V18.417z M125.272,17.521c-0.385,0-0.553-0.168-0.553-0.511v-1.226
		c0-0.35,0.182-0.525,0.566-0.525h2.627c0.385,0,0.561,0.168,0.561,0.519v1.232c0,0.343-0.176,0.511-0.561,0.511h-1.148v0.693h1.961
		c0.119,0,0.188,0.105,0.188,0.245c0,0.133-0.069,0.252-0.188,0.252h-1.716c0.525,0.75,1.19,1.261,1.884,1.625
		c0.098,0.049,0.147,0.133,0.147,0.231c0,0.056-0.015,0.112-0.05,0.168c-0.049,0.105-0.133,0.154-0.23,0.154
		c-0.057,0-0.112-0.014-0.168-0.049c-0.729-0.399-1.514-1.1-1.877-1.912c0.027,0.196,0.049,0.435,0.049,0.638v1.674
		c0,0.133-0.092,0.21-0.252,0.21c-0.161,0-0.253-0.077-0.253-0.21v-1.674c0-0.21,0.021-0.427,0.057-0.624
		c-0.393,0.882-1.121,1.492-1.842,1.926c-0.057,0.028-0.105,0.042-0.161,0.042c-0.084,0-0.176-0.042-0.231-0.126
		c-0.042-0.056-0.056-0.112-0.056-0.168c0-0.091,0.049-0.175,0.14-0.224c0.645-0.35,1.331-0.882,1.856-1.681h-1.618
		c-0.119,0-0.196-0.119-0.196-0.252c0-0.14,0.077-0.245,0.196-0.245h1.855v-0.693H125.272z M127.751,17.038
		c0.133,0,0.196-0.035,0.196-0.168v-0.952c0-0.133-0.063-0.168-0.196-0.168h-2.305c-0.133,0-0.21,0.042-0.21,0.175v0.945
		c0,0.133,0.07,0.168,0.196,0.168H127.751z"/>
	<path d="M131.558,16.134c0.118,0,0.188,0.091,0.188,0.231c0,0.133-0.07,0.245-0.188,0.245h-1.905c-0.126,0-0.189-0.105-0.189-0.245
		s0.063-0.231,0.189-0.231H131.558z M129.856,17.64c-0.119,0-0.175-0.112-0.175-0.238c0-0.119,0.056-0.224,0.175-0.224h1.499
		c0.119,0,0.175,0.098,0.175,0.224c0,0.126-0.056,0.238-0.175,0.238H129.856z M129.856,18.641c-0.119,0-0.175-0.112-0.175-0.238
		c0-0.119,0.056-0.224,0.175-0.224h1.491c0.119,0,0.176,0.098,0.176,0.224s-0.057,0.238-0.176,0.238H129.856z M131.579,20.771
		c0,0.357-0.168,0.504-0.519,0.504h-0.861c-0.35,0-0.518-0.147-0.518-0.504V19.65c0-0.357,0.168-0.498,0.518-0.498h0.861
		c0.351,0,0.519,0.14,0.519,0.498V20.771z M131.389,15.118c0.112,0,0.176,0.091,0.176,0.224c0,0.126-0.063,0.238-0.176,0.238h-1.526
		c-0.119,0-0.175-0.112-0.175-0.238c0-0.126,0.056-0.224,0.175-0.224H131.389z M130.914,20.84c0.126,0,0.188-0.035,0.188-0.161
		v-0.952c0-0.126-0.063-0.161-0.188-0.161h-0.567c-0.119,0-0.189,0.035-0.189,0.161v0.952c0,0.126,0.07,0.161,0.189,0.161H130.914z
		 M135.571,17.969c0.098,0,0.126,0.084,0.126,0.182c0,0.091-0.028,0.168-0.126,0.168h-1.261v0.371h1.513
		c0.105,0,0.154,0.077,0.154,0.182s-0.049,0.196-0.154,0.196h-3.116c-0.379,0-0.561-0.133-0.561-0.49v-0.763
		c0-0.126,0.007-0.238,0.014-0.35c-0.077,0.098-0.161,0.196-0.245,0.287c-0.056,0.063-0.119,0.091-0.182,0.091
		c-0.057,0-0.112-0.028-0.161-0.077c-0.042-0.042-0.063-0.098-0.063-0.154s0.028-0.119,0.077-0.175
		c0.329-0.322,0.658-0.756,0.841-1.219c0.035-0.084,0.098-0.126,0.189-0.126c0.027,0,0.056,0.007,0.091,0.014
		c0.098,0.028,0.154,0.084,0.154,0.168c0,0.035-0.015,0.077-0.035,0.126c-0.028,0.056-0.057,0.112-0.092,0.168
		c0.092-0.007,0.189-0.014,0.302-0.014h0.806c0.077-0.119,0.14-0.245,0.188-0.35c0.028-0.07,0.084-0.098,0.176-0.098
		c0.027,0,0.063,0.007,0.104,0.014c0.105,0.021,0.168,0.077,0.168,0.154c0,0.021-0.007,0.042-0.014,0.063
		c-0.035,0.07-0.084,0.147-0.133,0.217h1.4c0.112,0,0.154,0.084,0.154,0.189s-0.042,0.182-0.154,0.182h-1.422v0.35h1.254
		c0.098,0,0.133,0.084,0.133,0.175c0,0.098-0.035,0.168-0.133,0.168h-1.254v0.35H135.571z M132.041,19.797
		c-0.111,0-0.153-0.084-0.153-0.196c0-0.105,0.042-0.189,0.153-0.189h3.012c0.238,0,0.351,0.147,0.351,0.301
		c0,0.098-0.042,0.21-0.133,0.287c-0.273,0.252-0.574,0.469-0.89,0.651c0.477,0.168,0.98,0.259,1.464,0.315
		c0.133,0.014,0.203,0.105,0.203,0.217c0,0.021,0,0.042-0.007,0.063c-0.028,0.134-0.084,0.203-0.218,0.203c-0.007,0-0.021,0-0.035,0
		c-0.595-0.063-1.281-0.252-1.897-0.546c-0.631,0.28-1.31,0.456-2.031,0.575c-0.014,0-0.021,0-0.035,0
		c-0.104,0-0.189-0.063-0.224-0.189c-0.008-0.021-0.008-0.049-0.008-0.07c0-0.098,0.057-0.182,0.169-0.196
		c0.574-0.077,1.127-0.21,1.624-0.399c-0.343-0.217-0.679-0.49-0.91-0.827H132.041z M135.802,15.398c0.119,0,0.182,0.077,0.182,0.21
		c0,0.126-0.063,0.203-0.182,0.203h-0.911v0.238c0,0.119-0.091,0.175-0.245,0.175c-0.14,0-0.245-0.056-0.245-0.175v-0.238h-1.148
		v0.231c0,0.112-0.091,0.175-0.245,0.175c-0.146,0-0.245-0.063-0.245-0.175v-0.231h-0.806c-0.119,0-0.175-0.077-0.175-0.203
		c0-0.133,0.056-0.21,0.175-0.21h0.806v-0.315c0-0.112,0.099-0.175,0.245-0.175c0.154,0,0.245,0.063,0.245,0.175v0.315h1.148V15.09
		c0-0.119,0.105-0.175,0.245-0.175c0.154,0,0.245,0.056,0.245,0.175v0.308H135.802z M132.791,16.925
		c-0.119,0-0.183,0.042-0.183,0.168v0.182h1.268v-0.35H132.791z M133.875,17.619h-1.268v0.35h1.268V17.619z M132.608,18.319v0.21
		c0,0.126,0.063,0.161,0.183,0.161h1.085v-0.371H132.608z M133.022,19.797c0.237,0.252,0.524,0.469,0.833,0.63
		c0.309-0.147,0.588-0.322,0.833-0.518c0.042-0.021,0.057-0.049,0.057-0.07s-0.028-0.042-0.084-0.042H133.022z"/>
	<path d="M125.601,26.102c-0.119,0.203-0.238,0.399-0.371,0.595h3.46c0.119,0,0.189,0.084,0.189,0.238
		c0,0.141-0.07,0.225-0.189,0.225h-1.4c-0.176,0.413-0.456,0.777-0.785,1.078c0.659,0.196,1.317,0.428,1.892,0.68
		c0.126,0.057,0.175,0.141,0.175,0.23c0,0.057-0.014,0.105-0.042,0.154c-0.042,0.092-0.133,0.147-0.231,0.147
		c-0.049,0-0.098-0.014-0.146-0.034c-0.638-0.316-1.387-0.589-2.129-0.82c-0.035,0.021-0.07,0.042-0.105,0.063
		c-0.749,0.428-1.751,0.68-3.04,0.771c-0.007,0-0.021,0-0.027,0c-0.141,0-0.218-0.099-0.225-0.231c0-0.007,0-0.015,0-0.021
		c0-0.134,0.084-0.232,0.217-0.238c0.953-0.063,1.856-0.252,2.508-0.533c-0.462-0.119-0.91-0.224-1.323-0.301
		c-0.196-0.035-0.288-0.141-0.288-0.266c0-0.092,0.05-0.189,0.147-0.287c0.126-0.127,0.252-0.252,0.371-0.393h-1.526
		c-0.126,0-0.196-0.084-0.196-0.225c0-0.146,0.07-0.238,0.196-0.238h1.897c0.141-0.195,0.28-0.385,0.399-0.595h-1.394
		c-0.441,0-0.631-0.134-0.631-0.505v-0.833c0-0.378,0.189-0.505,0.631-0.505h1.009v-0.595h-1.85c-0.126,0-0.196-0.099-0.196-0.237
		c0-0.148,0.07-0.253,0.196-0.253h5.849c0.119,0,0.188,0.099,0.188,0.253c0,0.139-0.069,0.237-0.188,0.237h-1.954v0.595h1.085
		c0.435,0,0.624,0.127,0.624,0.505v0.833c0,0.371-0.189,0.505-0.624,0.505H125.601z M123.717,24.708
		c-0.126,0-0.196,0.035-0.196,0.154v0.645c0,0.119,0.07,0.153,0.196,0.153h0.925v-0.952H123.717z M124.887,27.16
		c-0.134,0.161-0.267,0.314-0.399,0.455c-0.028,0.028-0.042,0.057-0.042,0.077s0.021,0.042,0.063,0.049
		c0.421,0.077,0.911,0.196,1.429,0.337c0.33-0.246,0.596-0.554,0.778-0.918H124.887z M126.197,24.259v-0.595h-1.064v0.595H126.197z
		 M126.197,25.661v-0.952h-1.064v0.952H126.197z M127.674,25.661c0.133,0,0.203-0.034,0.203-0.153v-0.645
		c0-0.119-0.07-0.154-0.203-0.154h-0.987v0.952H127.674z"/>
	<path d="M131.733,24.121c0.126,0,0.189,0.09,0.189,0.23c0,0.133-0.063,0.245-0.189,0.245h-2.073c-0.126,0-0.189-0.104-0.189-0.245
		s0.063-0.23,0.189-0.23H131.733z M129.898,23.587c-0.119,0-0.183-0.111-0.183-0.238c0-0.133,0.063-0.224,0.183-0.224h1.709
		c0.112,0,0.175,0.091,0.175,0.224c0,0.127-0.063,0.238-0.175,0.238H129.898z M129.898,26.627c-0.119,0-0.175-0.104-0.175-0.231
		c0-0.126,0.056-0.23,0.175-0.23h1.709c0.112,0,0.175,0.104,0.175,0.23c0,0.127-0.063,0.231-0.175,0.231H129.898z M129.905,25.612
		c-0.119,0-0.175-0.104-0.175-0.231c0-0.126,0.056-0.23,0.175-0.23h1.702c0.112,0,0.175,0.104,0.175,0.23
		c0,0.119-0.063,0.231-0.175,0.231H129.905z M131.789,28.742c0,0.365-0.168,0.52-0.518,0.52h-1.009c-0.357,0-0.525-0.154-0.525-0.52
		v-1.085c0-0.356,0.168-0.505,0.525-0.505h1.009c0.35,0,0.518,0.148,0.518,0.505V28.742z M131.117,28.827
		c0.119,0,0.182-0.042,0.182-0.169v-0.924c0-0.126-0.063-0.168-0.182-0.168h-0.7c-0.127,0-0.189,0.042-0.189,0.168v0.924
		c0,0.127,0.063,0.169,0.189,0.169H131.117z M132.335,23.861c-0.112,0-0.168-0.084-0.168-0.203c0-0.126,0.056-0.203,0.168-0.203
		h1.372v-0.357c0-0.119,0.092-0.182,0.231-0.182c0.147,0,0.245,0.063,0.245,0.182v0.357h1.513c0.112,0,0.168,0.077,0.168,0.203
		c0,0.119-0.056,0.203-0.168,0.203h-1.513v0.441h1.261c0.098,0,0.154,0.091,0.154,0.203c0,0.111-0.057,0.203-0.154,0.203h-1.261
		v0.49h1.646c0.112,0,0.169,0.07,0.169,0.203c0,0.126-0.057,0.21-0.169,0.21h-3.67c-0.111,0-0.168-0.084-0.168-0.21
		c0-0.133,0.057-0.203,0.168-0.203h1.548v-0.49h-1.219c-0.104,0-0.161-0.092-0.161-0.203c0-0.112,0.057-0.203,0.161-0.203h1.219
		v-0.441H132.335z M132.826,28.217v1.05c0,0.119-0.105,0.189-0.253,0.189c-0.153,0-0.252-0.07-0.252-0.189v-2.73
		c0-0.371,0.183-0.512,0.567-0.512h2.066c0.393,0,0.574,0.141,0.574,0.512v2.29c0,0.413-0.252,0.581-0.714,0.581
		c-0.238,0-0.47-0.021-0.638-0.063c-0.091-0.021-0.161-0.092-0.161-0.211c0-0.021,0-0.041,0.007-0.07
		c0.028-0.125,0.105-0.188,0.189-0.188c0.021,0,0.042,0,0.056,0.007c0.141,0.035,0.301,0.063,0.462,0.063
		c0.245,0,0.295-0.027,0.295-0.217v-0.511H132.826z M135.025,26.585c0-0.119-0.063-0.161-0.203-0.161h-1.8
		c-0.134,0-0.196,0.042-0.196,0.161v0.336h2.199V26.585z M135.025,27.321h-2.199v0.497h2.199V27.321z"/>
</g>
<g>
	<g>
		
			<line fill="none" stroke="#000000" stroke-width="0.75" stroke-miterlimit="10" x1="71.641" y1="20.934" x2="39.125" y2="20.934"/>
		<g>
			<path d="M66.514,17.334c-0.111,0.174-0.059,0.406,0.116,0.518l4.839,3.082l-4.839,3.082c-0.175,0.111-0.228,0.344-0.116,0.518
				c0.111,0.175,0.346,0.225,0.52,0.115l5.335-3.398c0.108-0.068,0.174-0.188,0.174-0.316s-0.065-0.248-0.174-0.316l-5.335-3.398
				c-0.063-0.039-0.133-0.059-0.202-0.059C66.707,17.161,66.586,17.222,66.514,17.334z"/>
		</g>
	</g>
</g>
<g>
	<g>
		
			<line fill="none" stroke="#000000" stroke-width="0.75" stroke-miterlimit="10" x1="144.744" y1="30.854" x2="112.228" y2="30.854"/>
		<g>
			<path d="M139.617,27.254c-0.111,0.174-0.059,0.406,0.115,0.518l4.84,3.082l-4.84,3.082c-0.174,0.111-0.227,0.344-0.115,0.518
				c0.111,0.175,0.346,0.225,0.52,0.115l5.334-3.398c0.109-0.068,0.174-0.188,0.174-0.316s-0.064-0.248-0.174-0.316l-5.334-3.398
				c-0.064-0.039-0.133-0.059-0.203-0.059C139.81,27.081,139.689,27.142,139.617,27.254z"/>
		</g>
	</g>
</g>
<polyline fill="none" stroke="#000000" stroke-width="0.75" stroke-miterlimit="10" points="101.375,10.458 117.708,10.458 
	117.708,39.021 65.291,39.021 65.291,10.458 81.708,10.458 "/>
<g>
	<path d="M76.194,27.877c0-0.208-0.016-0.36-0.048-0.544h0.607c-0.032,0.176-0.048,0.328-0.048,0.535v0.16h2.495
		c0.335,0,0.543-0.016,0.791-0.048v0.527c-0.256-0.031-0.472-0.04-0.791-0.04h-5.382c-0.312,0-0.543,0.009-0.791,0.04v-0.527
		c0.231,0.032,0.464,0.048,0.808,0.048h2.358V27.877z M73.292,31.811c0-0.28-0.008-0.479-0.032-0.72
		c0.232,0.024,0.456,0.032,0.792,0.032h4.957c0.392,0,0.567-0.008,0.775-0.032c-0.023,0.248-0.031,0.424-0.031,0.703v2.119
		c0,0.272-0.049,0.408-0.185,0.496c-0.128,0.088-0.264,0.111-0.688,0.111c-0.184,0-0.231,0-0.743-0.023
		c-0.017-0.216-0.04-0.312-0.104-0.496c0.32,0.048,0.624,0.072,0.903,0.072c0.288,0,0.328-0.024,0.328-0.184v-2.343h-5.477v2.303
		c0,0.352,0.008,0.543,0.048,0.815h-0.592c0.032-0.216,0.048-0.496,0.048-0.808V31.811z M74.355,29.564
		c0-0.256-0.008-0.439-0.024-0.607c0.208,0.023,0.416,0.032,0.76,0.032h2.967c0.312,0,0.455-0.009,0.68-0.032
		c-0.017,0.231-0.024,0.344-0.024,0.615v0.432c0,0.353,0,0.448,0.024,0.624c-0.232-0.023-0.393-0.032-0.736-0.032h-2.95
		c-0.304,0-0.464,0.009-0.72,0.032c0.017-0.168,0.024-0.312,0.024-0.624V29.564z M74.843,30.188h3.383v-0.784h-3.383V30.188z
		 M78.105,33.106c0,0.288,0.008,0.408,0.023,0.568c-0.207-0.017-0.455-0.024-0.735-0.024h-2.03v0.439h-0.521
		c0.024-0.168,0.04-0.375,0.04-0.663v-0.8c0-0.256-0.008-0.416-0.023-0.584c0.184,0.017,0.352,0.024,0.647,0.024h1.919
		c0.304,0,0.496-0.008,0.703-0.024c-0.016,0.16-0.023,0.28-0.023,0.544V33.106z M75.354,33.25h2.287v-0.784h-2.287V33.25z"/>
	<path d="M83.115,32.147c-0.512,0.888-0.92,1.375-1.703,2.015c-0.168-0.216-0.24-0.28-0.4-0.399c0.393-0.272,0.632-0.488,0.944-0.84
		c0.295-0.336,0.463-0.584,0.703-1.039L83.115,32.147z M81.876,31.427c-0.344,0-0.584,0.016-0.824,0.048v-0.552
		c0.225,0.032,0.464,0.048,0.816,0.048h5.236c0.36,0,0.592-0.016,0.815-0.048v0.552c-0.231-0.032-0.479-0.048-0.815-0.048h-2.311
		v2.494c0,0.456-0.168,0.576-0.815,0.576c-0.28,0-0.552-0.008-0.84-0.024c-0.023-0.231-0.048-0.336-0.136-0.527
		c0.336,0.048,0.632,0.072,0.912,0.072c0.295,0,0.352-0.032,0.352-0.208v-2.383H81.876z M84.187,27.877
		c0-0.177-0.016-0.32-0.056-0.496h0.64c-0.04,0.168-0.057,0.304-0.057,0.496v0.319h2.319c0.367,0,0.56-0.008,0.808-0.032
		c-0.024,0.168-0.032,0.304-0.032,0.544v0.472c0,0.248,0.008,0.4,0.032,0.56h-0.528v-1.087h-5.645v1.087H81.14
		c0.024-0.176,0.032-0.319,0.032-0.56v-0.472c0-0.224-0.008-0.376-0.032-0.544c0.248,0.024,0.44,0.032,0.808,0.032h2.239V27.877z
		 M82.22,29.532c0.184,0.032,0.367,0.04,0.703,0.04h3.11c0.344,0,0.52-0.008,0.704-0.04v0.536c-0.208-0.032-0.368-0.04-0.704-0.04
		h-3.11c-0.327,0-0.495,0.008-0.703,0.04V29.532z M86.249,31.843c0.208,0.359,0.432,0.655,0.784,1.023
		c0.287,0.296,0.512,0.487,0.943,0.799c-0.152,0.12-0.28,0.256-0.416,0.424c-0.808-0.663-1.231-1.151-1.735-1.982L86.249,31.843z"/>
	<path d="M91.505,34.681c-0.6-0.688-0.848-1.071-1.112-1.719c-0.265-0.64-0.384-1.271-0.384-1.967c0-0.696,0.119-1.327,0.384-1.967
		c0.264-0.648,0.512-1.032,1.112-1.72h0.711c-0.672,0.68-0.936,1.04-1.215,1.655c-0.288,0.64-0.432,1.304-0.432,2.031
		s0.144,1.391,0.432,2.03c0.28,0.616,0.543,0.976,1.215,1.655H91.505z"/>
	<path d="M93.228,28.676c0-0.384-0.016-0.663-0.049-0.983c0.266,0.032,0.504,0.04,0.936,0.04h4.781c0.424,0,0.656-0.008,0.953-0.04
		c-0.033,0.296-0.049,0.568-0.049,0.983v4.87c0,0.583,0.016,0.879,0.049,1.095h-0.561v-0.487H93.74v0.487h-0.561
		c0.033-0.216,0.049-0.504,0.049-1.095V28.676z M93.74,33.698h5.549v-5.509H93.74V33.698z M95.107,29.373
		c-0.344,0-0.535,0.008-0.752,0.04v-0.512c0.225,0.04,0.4,0.048,0.752,0.048h2.822c0.359,0,0.576-0.017,0.783-0.048v0.512
		c-0.223-0.032-0.416-0.04-0.775-0.04h-1.23v1.239h0.982c0.361,0,0.52-0.008,0.721-0.04v0.504c-0.201-0.032-0.385-0.04-0.721-0.04
		h-0.982v1.463h1.344c0.326,0,0.559-0.016,0.783-0.048v0.527c-0.232-0.031-0.473-0.048-0.783-0.048h-3.047
		c-0.328,0-0.553,0.017-0.791,0.048v-0.527c0.223,0.032,0.455,0.048,0.791,0.048h1.207v-1.463h-0.855
		c-0.336,0-0.527,0.008-0.729,0.04v-0.504c0.201,0.032,0.361,0.04,0.729,0.04h0.855v-1.239H95.107z M97.673,31.179
		c0.328,0.328,0.455,0.504,0.752,0.951l-0.375,0.24c-0.281-0.487-0.408-0.664-0.713-0.991L97.673,31.179z"/>
	<path d="M102.22,28.429c-0.393,0-0.648,0.016-0.904,0.048v-0.592c0.232,0.04,0.488,0.056,0.896,0.056h4.596
		c0.424,0,0.68-0.016,0.936-0.056v0.592c-0.264-0.032-0.52-0.048-0.936-0.048h-2.07v2.135h1.672c0.398,0,0.615-0.017,0.848-0.049
		v0.568c-0.232-0.024-0.473-0.032-0.848-0.032h-1.672v2.526h2.398c0.4,0,0.656-0.016,0.889-0.048v0.6
		c-0.248-0.04-0.504-0.056-0.889-0.056h-5.18c-0.4,0-0.656,0.016-0.928,0.056v-0.6c0.264,0.032,0.494,0.048,0.928,0.048h2.215
		v-2.526h-1.527c-0.369,0-0.625,0.008-0.855,0.032v-0.568c0.199,0.032,0.439,0.049,0.848,0.049h1.535v-2.135H102.22z"/>
	<path d="M108.828,34.681c0.672-0.672,0.936-1.039,1.217-1.655c0.287-0.64,0.432-1.303,0.432-2.03s-0.145-1.392-0.432-2.031
		c-0.281-0.615-0.545-0.983-1.217-1.655h0.713c0.6,0.688,0.848,1.071,1.111,1.72c0.264,0.64,0.383,1.271,0.383,1.967
		c0,0.695-0.119,1.327-0.383,1.967c-0.264,0.647-0.512,1.031-1.111,1.719H108.828z"/>
</g>
<g>
	<path d="M73.788,23.464c0,0.463,0.008,0.679,0.048,0.895h-0.592c0.032-0.216,0.048-0.463,0.048-0.895v-5.246
		c0-0.392-0.008-0.623-0.032-0.879c0.224,0.023,0.44,0.032,0.832,0.032h1.207c0.399,0,0.592-0.009,0.815-0.032
		c-0.016,0.224-0.023,0.464-0.023,0.76v0.959c0,0.328,0.008,0.528,0.023,0.735c-0.168-0.016-0.472-0.023-0.808-0.023h-1.519V23.464z
		 M73.788,18.386h1.847v-0.623h-1.847V18.386z M73.788,19.394h1.847v-0.64h-1.847V19.394z M77.89,21.082
		c-0.288,0.64-0.504,0.951-0.96,1.383c0.56,0.384,1.071,0.6,1.848,0.783c-0.145,0.185-0.177,0.248-0.272,0.448
		c-0.791-0.24-1.319-0.496-1.927-0.936c-0.6,0.448-1.224,0.743-2.15,1.008c-0.064-0.177-0.12-0.272-0.272-0.464
		c0.903-0.208,1.527-0.456,2.071-0.84c-0.479-0.424-0.696-0.72-1.04-1.383h-0.199c-0.336,0-0.536,0.008-0.752,0.04v-0.504
		c0.216,0.032,0.408,0.04,0.752,0.04h1.279v-0.2c0-0.256-0.008-0.359-0.04-0.512h0.552c-0.032,0.144-0.04,0.248-0.04,0.512v0.2
		h1.359c0.359,0,0.552-0.008,0.743-0.04v0.504c-0.216-0.032-0.416-0.04-0.728-0.04H77.89z M75.698,21.082
		c0.28,0.503,0.488,0.775,0.88,1.111c0.376-0.344,0.592-0.648,0.8-1.111H75.698z M79.769,23.568c0,0.296-0.048,0.447-0.184,0.544
		c-0.128,0.096-0.296,0.12-0.736,0.12c-0.119,0-0.224,0-0.455-0.017c-0.032-0.208-0.064-0.328-0.137-0.495
		c0.232,0.031,0.504,0.056,0.704,0.056c0.256,0,0.312-0.04,0.312-0.224V19.77h-1.623c-0.336,0-0.64,0.008-0.815,0.023
		c0.016-0.231,0.024-0.423,0.024-0.735v-0.959c0-0.296-0.009-0.496-0.024-0.76c0.224,0.023,0.424,0.032,0.815,0.032h1.319
		c0.399,0,0.616-0.009,0.84-0.032c-0.032,0.271-0.04,0.535-0.04,0.879V23.568z M77.321,18.386h1.951v-0.623h-1.951V18.386z
		 M77.321,19.394h1.951v-0.64h-1.951V19.394z"/>
	<path d="M82.044,18.827c0.119-0.647,0.207-1.271,0.207-1.567c0-0.016,0-0.048-0.008-0.088l0.584,0.048
		c-0.024,0.144-0.04,0.231-0.072,0.408c-0.048,0.304-0.08,0.487-0.208,1.199h0.672c0.352,0,0.56-0.008,0.728-0.032
		c-0.023,0.144-0.023,0.144-0.056,0.496c-0.112,1.167-0.384,2.223-0.76,2.966c0.328,0.272,0.479,0.408,0.872,0.815l-0.313,0.456
		c-0.399-0.424-0.56-0.584-0.815-0.823c-0.447,0.695-0.896,1.135-1.655,1.646c-0.128-0.216-0.191-0.296-0.352-0.432
		c0.792-0.479,1.231-0.896,1.631-1.543c-0.439-0.368-0.688-0.544-1.319-0.943c0.344-0.728,0.6-1.439,0.76-2.159h-0.344
		c-0.264,0-0.456,0.017-0.655,0.048v-0.543c0.208,0.031,0.407,0.048,0.703,0.048H82.044z M82.443,19.274
		c-0.176,0.728-0.359,1.312-0.655,2.023c0.472,0.296,0.631,0.407,0.951,0.647c0.352-0.744,0.552-1.575,0.647-2.671H82.443z
		 M84.89,23.384c0,0.247,0.145,0.287,1.144,0.287c1.016,0,1.279-0.04,1.392-0.216c0.104-0.151,0.16-0.607,0.191-1.438
		c0.2,0.119,0.336,0.184,0.528,0.239c-0.16,1.896-0.176,1.903-2.151,1.903c-1.391,0-1.623-0.096-1.623-0.664v-2.67
		c0-0.376-0.008-0.552-0.04-0.768c0.232,0.023,0.472,0.031,0.784,0.031h2.007v-1.998h-2.119c-0.319,0-0.527,0.008-0.743,0.039v-0.56
		c0.224,0.032,0.463,0.048,0.751,0.048h1.896c0.344,0,0.52-0.008,0.759-0.031c-0.016,0.208-0.023,0.359-0.023,0.783v1.463
		c0,0.313,0.008,0.512,0.032,0.744c-0.232-0.024-0.44-0.032-0.784-0.032H84.89V23.384z"/>
	<path d="M91.505,24.431c-0.6-0.688-0.848-1.071-1.112-1.719c-0.265-0.64-0.384-1.271-0.384-1.967c0-0.696,0.119-1.327,0.384-1.967
		c0.264-0.648,0.512-1.032,1.112-1.72h0.711c-0.672,0.68-0.936,1.04-1.215,1.655c-0.288,0.64-0.432,1.304-0.432,2.031
		s0.144,1.391,0.432,2.03c0.28,0.616,0.543,0.976,1.215,1.655H91.505z"/>
	<path d="M94.22,18.179c-0.393,0-0.648,0.016-0.904,0.048v-0.592c0.232,0.04,0.488,0.056,0.896,0.056h4.596
		c0.424,0,0.68-0.016,0.936-0.056v0.592c-0.264-0.032-0.52-0.048-0.936-0.048h-2.07v2.135h1.672c0.398,0,0.615-0.017,0.848-0.049
		v0.568c-0.232-0.024-0.473-0.032-0.848-0.032h-1.672v2.526h2.398c0.4,0,0.656-0.016,0.889-0.048v0.6
		c-0.248-0.04-0.504-0.056-0.889-0.056h-5.18c-0.4,0-0.656,0.016-0.928,0.056v-0.6c0.264,0.032,0.494,0.048,0.928,0.048h2.215
		v-2.526h-1.527c-0.369,0-0.625,0.008-0.855,0.032v-0.568c0.199,0.032,0.439,0.049,0.848,0.049h1.535v-2.135H94.22z"/>
	<path d="M102.044,18.827c0.119-0.647,0.207-1.271,0.207-1.567c0-0.016,0-0.048-0.008-0.088l0.584,0.048
		c-0.025,0.144-0.041,0.231-0.072,0.408c-0.049,0.304-0.08,0.487-0.209,1.199h0.672c0.352,0,0.561-0.008,0.729-0.032
		c-0.023,0.144-0.023,0.144-0.057,0.496c-0.111,1.167-0.383,2.223-0.76,2.966c0.328,0.272,0.48,0.408,0.873,0.815l-0.313,0.456
		c-0.4-0.424-0.561-0.584-0.816-0.823c-0.447,0.695-0.895,1.135-1.654,1.646c-0.129-0.216-0.191-0.296-0.352-0.432
		c0.791-0.479,1.23-0.896,1.631-1.543c-0.439-0.368-0.688-0.544-1.32-0.943c0.344-0.728,0.6-1.439,0.76-2.159h-0.344
		c-0.264,0-0.455,0.017-0.654,0.048v-0.543c0.207,0.031,0.406,0.048,0.703,0.048H102.044z M102.443,19.274
		c-0.176,0.728-0.359,1.312-0.654,2.023c0.471,0.296,0.631,0.407,0.951,0.647c0.352-0.744,0.551-1.575,0.646-2.671H102.443z
		 M104.89,23.384c0,0.247,0.145,0.287,1.143,0.287c1.016,0,1.279-0.04,1.393-0.216c0.104-0.151,0.16-0.607,0.191-1.438
		c0.199,0.119,0.336,0.184,0.527,0.239c-0.16,1.896-0.176,1.903-2.15,1.903c-1.391,0-1.623-0.096-1.623-0.664v-2.67
		c0-0.376-0.008-0.552-0.041-0.768c0.232,0.023,0.473,0.031,0.785,0.031h2.006v-1.998h-2.119c-0.318,0-0.527,0.008-0.742,0.039
		v-0.56c0.223,0.032,0.463,0.048,0.75,0.048h1.896c0.344,0,0.52-0.008,0.758-0.031c-0.016,0.208-0.023,0.359-0.023,0.783v1.463
		c0,0.313,0.008,0.512,0.033,0.744c-0.232-0.024-0.441-0.032-0.785-0.032h-1.998V23.384z"/>
	<path d="M108.828,24.431c0.672-0.672,0.936-1.039,1.217-1.655c0.287-0.64,0.432-1.303,0.432-2.03s-0.145-1.392-0.432-2.031
		c-0.281-0.615-0.545-0.983-1.217-1.655h0.713c0.6,0.688,0.848,1.071,1.111,1.72c0.264,0.64,0.383,1.271,0.383,1.967
		c0,0.695-0.119,1.327-0.383,1.967c-0.264,0.647-0.512,1.031-1.111,1.719H108.828z"/>
</g>
<g>
	<path d="M91.099,8.485c-0.207-0.036-0.378-0.045-0.828-0.045c-0.108,1.071-0.234,1.621-0.54,2.377
		c-0.181,0.45-0.388,0.837-0.657,1.225c0.647,0.81,1.314,1.359,2.188,1.791c-0.181,0.189-0.271,0.324-0.378,0.559
		c-0.9-0.54-1.585-1.144-2.152-1.909c-0.666,0.774-1.305,1.27-2.476,1.909c-0.126-0.226-0.233-0.36-0.405-0.504
		c0.576-0.253,0.9-0.433,1.314-0.729c0.495-0.352,0.9-0.729,1.243-1.144c-0.469-0.738-0.757-1.432-0.955-2.277
		c-0.225,0.459-0.342,0.675-0.585,1.026c-0.153-0.181-0.252-0.262-0.432-0.369c0.09-0.108,0.116-0.145,0.188-0.243
		c-0.162-0.027-0.342-0.036-0.801-0.036h-0.378v2.431c0.53-0.18,0.783-0.271,1.458-0.54l0.009,0.558
		c-1.152,0.45-1.899,0.703-2.565,0.883c-0.702,0.188-1.135,0.306-1.333,0.378l-0.161-0.648c0.197-0.009,0.387-0.036,0.675-0.099
		V9.98c0-0.405-0.009-0.621-0.045-0.892h0.621c-0.036,0.279-0.045,0.522-0.045,0.882v2.98c0.234-0.054,0.504-0.135,0.837-0.234V7.63
		H83.95c-0.288,0-0.549,0.018-0.81,0.054v-0.64c0.261,0.036,0.495,0.055,0.828,0.055h2.179c0.369,0,0.585-0.01,0.81-0.045v0.621
		C86.714,7.639,86.543,7.63,86.21,7.63h-0.765v1.962h0.378c0.468,0,0.639-0.009,0.81-0.036v0.576
		c0.441-0.692,0.766-1.512,1.009-2.583c0.144-0.595,0.225-1.081,0.234-1.359l0.63,0.126c-0.054,0.18-0.054,0.18-0.288,1.179
		c-0.045,0.171-0.072,0.279-0.117,0.441h2.143c0.405,0,0.657-0.018,0.855-0.054V8.485z M87.947,8.44
		c-0.081,0.252-0.107,0.352-0.197,0.576c0.216,1.026,0.504,1.783,0.98,2.539c0.567-0.909,0.864-1.873,0.973-3.115H87.947z"/>
	<path d="M95.966,6.766c0-0.226-0.018-0.405-0.055-0.576h0.686c-0.045,0.152-0.055,0.306-0.055,0.585v0.333h2.502
		c0.506,0,0.775-0.019,0.99-0.054v0.621c-0.287-0.036-0.539-0.045-0.971-0.045H93.32c-0.01,2.188-0.09,3.628-0.252,4.546
		c-0.145,0.774-0.406,1.477-0.828,2.196c-0.117-0.152-0.252-0.27-0.486-0.404c0.359-0.559,0.566-1.063,0.721-1.729
		c0.17-0.783,0.27-2.215,0.27-4.078c0-0.541-0.01-0.829-0.037-1.099c0.289,0.026,0.576,0.045,0.928,0.045h2.332V6.766z
		 M94.445,14.445c0.045-0.252,0.055-0.504,0.055-1.018v-1.989c0-0.486,0.018-0.918,0.035-1.206
		c-0.225,0.405-0.459,0.693-0.873,1.107c-0.1-0.189-0.234-0.36-0.379-0.486c0.586-0.504,1.027-1.044,1.432-1.773
		c0.244-0.433,0.434-0.873,0.514-1.233l0.604,0.171c-0.199,0.495-0.486,1.071-0.775,1.53v3.89c0,0.513,0.01,0.738,0.047,1.008
		H94.445z M98.927,13.608c0,0.504-0.232,0.684-0.918,0.684c-0.305,0-0.693-0.018-1.063-0.054c-0.035-0.252-0.07-0.405-0.162-0.63
		c0.514,0.099,0.838,0.135,1.162,0.135c0.342,0,0.414-0.045,0.414-0.261V9.809h-1.98c-0.414,0-0.631,0.009-0.873,0.045V9.259
		c0.189,0.036,0.414,0.045,0.855,0.045h1.998V8.702c0-0.315-0.01-0.514-0.045-0.738h0.658c-0.037,0.216-0.047,0.396-0.047,0.729
		v0.612h0.324c0.389,0,0.621-0.018,0.855-0.054v0.612c-0.242-0.036-0.494-0.054-0.855-0.054h-0.324V13.608z M96.3,10.412
		c0.611,0.621,0.828,0.883,1.35,1.656l-0.496,0.36c-0.387-0.702-0.674-1.089-1.295-1.71L96.3,10.412z"/>
</g>
<path fill="#FFFFFF" stroke="#000000" stroke-width="0.5" stroke-miterlimit="10" d="M72.769,0.25H46.981
	c-3.131,0-5.669,2.538-5.669,5.669v0.177c0,3.132,2.538,5.67,5.669,5.67H66.39l7.423,4.962l0.163-5.094
	c2.551-0.554,4.462-2.821,4.462-5.538V5.919C78.438,2.788,75.899,0.25,72.769,0.25z"/>
<g>
	<path d="M45.616,5.012c-0.05,1.506-0.295,2.767-0.883,3.691c-0.049,0.105-0.14,0.154-0.231,0.154c-0.056,0-0.111-0.014-0.168-0.049
		c-0.091-0.056-0.14-0.14-0.14-0.238c0-0.049,0.014-0.098,0.035-0.147c0.679-1.009,0.847-2.452,0.847-4.287V3.485
		c0-0.462,0.231-0.665,0.68-0.665h4.469c0.133,0,0.21,0.105,0.21,0.252c0,0.154-0.077,0.266-0.21,0.266h-4.286
		c-0.231,0-0.309,0.07-0.309,0.294v0.875h3.677c0.371,0,0.561,0.189,0.561,0.462c0,0.105-0.021,0.21-0.07,0.329
		c-0.301,0.729-0.791,1.408-1.414,1.989c0.623,0.448,1.323,0.771,1.975,0.988c0.126,0.042,0.196,0.133,0.196,0.245
		c0,0.049-0.007,0.091-0.028,0.14c-0.042,0.133-0.14,0.203-0.273,0.203c-0.034,0-0.076-0.007-0.119-0.021
		c-0.721-0.245-1.498-0.63-2.178-1.184c-0.616,0.49-1.331,0.89-2.094,1.17c-0.05,0.021-0.105,0.028-0.147,0.028
		c-0.112,0-0.203-0.056-0.245-0.161c-0.021-0.049-0.028-0.091-0.028-0.133c0-0.112,0.07-0.203,0.231-0.259
		c0.665-0.238,1.31-0.582,1.87-1.001c-0.393-0.378-0.722-0.806-0.98-1.275c-0.175-0.322-0.309-0.665-0.406-1.016H45.616z
		 M46.694,5.012c0.225,0.764,0.68,1.415,1.268,1.94c0.567-0.504,1.009-1.093,1.261-1.737c0.021-0.042,0.028-0.077,0.028-0.105
		c0-0.07-0.049-0.098-0.175-0.098H46.694z"/>
	<path d="M56.874,7.961c0,0.448-0.217,0.637-0.651,0.637h-3.684c-0.435,0-0.651-0.189-0.651-0.637v-4.51
		c0-0.456,0.217-0.645,0.651-0.645h3.684c0.435,0,0.651,0.189,0.651,0.645V7.961z M56.313,5.342V3.549
		c0-0.161-0.084-0.21-0.237-0.21h-3.391c-0.153,0-0.238,0.049-0.238,0.21v1.793H56.313z M52.447,7.856
		c0,0.161,0.085,0.21,0.238,0.21h3.391c0.153,0,0.237-0.049,0.237-0.21V5.867h-3.866V7.856z"/>
	<path d="M58.369,5.299c-0.126,0-0.189-0.091-0.189-0.238c0-0.14,0.063-0.224,0.189-0.224h1.597
		c0.133-0.308,0.245-0.651,0.315-0.953c0.028-0.119,0.105-0.168,0.217-0.168c0.021,0,0.042,0,0.063,0.007
		c0.119,0.021,0.196,0.098,0.196,0.203c0,0.021,0,0.042-0.015,0.07c-0.077,0.259-0.196,0.553-0.336,0.84h0.651
		c0.126,0,0.189,0.084,0.189,0.224c0,0.147-0.063,0.238-0.189,0.238H60v0.603h1.051c0.126,0,0.188,0.084,0.188,0.231
		c0,0.147-0.063,0.231-0.188,0.231h-0.98c0.259,0.441,0.588,0.735,0.882,0.959c0.063,0.049,0.099,0.119,0.099,0.196
		c0,0.049-0.021,0.105-0.057,0.154c-0.056,0.063-0.118,0.098-0.182,0.098c-0.056,0-0.112-0.028-0.168-0.07
		c-0.259-0.224-0.525-0.546-0.715-0.889C59.965,7.029,60,7.331,60,7.562v1.191c0,0.133-0.091,0.21-0.252,0.21
		c-0.147,0-0.245-0.077-0.245-0.21V7.597c0-0.252,0.028-0.518,0.056-0.729c-0.23,0.533-0.609,1.023-1.022,1.408
		c-0.063,0.063-0.14,0.091-0.203,0.091c-0.07,0-0.14-0.028-0.188-0.091c-0.05-0.056-0.07-0.112-0.07-0.175
		c0-0.07,0.028-0.14,0.098-0.189c0.455-0.378,0.883-0.875,1.232-1.548h-1.036c-0.126,0-0.196-0.084-0.196-0.231
		c0-0.147,0.07-0.231,0.196-0.231h1.135V5.299H58.369z M61.03,3.122c0.126,0,0.196,0.084,0.196,0.231s-0.07,0.238-0.196,0.238
		h-2.528c-0.133,0-0.196-0.091-0.196-0.238s0.063-0.231,0.196-0.231h1.002V2.652c0-0.126,0.098-0.196,0.252-0.196
		c0.168,0,0.267,0.07,0.267,0.196v0.469H61.03z M59,3.703c0.098,0,0.168,0.049,0.21,0.147c0.063,0.175,0.14,0.414,0.175,0.617
		c0.007,0.021,0.007,0.035,0.007,0.049c0,0.098-0.056,0.168-0.182,0.203c-0.021,0.007-0.042,0.007-0.063,0.007
		c-0.104,0-0.189-0.056-0.21-0.161c-0.042-0.189-0.112-0.42-0.175-0.574c-0.008-0.028-0.015-0.056-0.015-0.084
		c0-0.098,0.07-0.175,0.176-0.196C58.95,3.703,58.971,3.703,59,3.703z M62.494,6.729C62.41,7.821,61.8,8.556,60.918,8.92
		c-0.042,0.014-0.077,0.021-0.112,0.021c-0.091,0-0.168-0.049-0.217-0.14c-0.021-0.042-0.035-0.091-0.035-0.14
		c0-0.077,0.042-0.154,0.14-0.196c0.764-0.315,1.232-0.84,1.316-1.737c-0.392-0.007-0.553-0.14-0.553-0.519V3.261
		c0-0.413,0.175-0.56,0.574-0.56h1.667c0.406,0,0.581,0.147,0.581,0.56V6.21c0,0.385-0.175,0.519-0.574,0.519h-0.238v1.436
		c0,0.161,0.049,0.189,0.322,0.189c0.267,0,0.351-0.035,0.393-0.175c0.027-0.098,0.063-0.301,0.069-0.54
		c0.008-0.133,0.099-0.203,0.225-0.203c0.007,0,0.014,0,0.021,0c0.134,0.007,0.218,0.07,0.218,0.21
		c-0.007,0.308-0.07,0.651-0.134,0.819c-0.104,0.287-0.294,0.364-0.84,0.364c-0.623,0-0.771-0.098-0.771-0.504V6.729H62.494z
		 M63.783,3.338c0-0.133-0.063-0.175-0.189-0.175h-1.457c-0.118,0-0.182,0.042-0.182,0.175v0.574h1.828V3.338z M63.783,4.347h-1.828
		v0.707h1.828V4.347z M61.955,5.489v0.637c0,0.133,0.063,0.168,0.182,0.168h1.457c0.126,0,0.189-0.035,0.189-0.168V5.489H61.955z"/>
	<path d="M66.048,6.714c-0.364,0-0.519-0.147-0.519-0.498V5.769c0-0.357,0.161-0.497,0.525-0.497h1.365
		c0.364,0,0.525,0.14,0.525,0.497v0.448c0,0.351-0.168,0.498-0.525,0.498h-0.385V7.19h0.749c0.105,0,0.161,0.07,0.161,0.175
		c0,0.119-0.056,0.203-0.161,0.203h-0.749v0.644c0.28-0.056,0.554-0.119,0.799-0.189c0.034-0.007,0.069-0.014,0.098-0.014
		c0.091,0,0.14,0.049,0.168,0.154c0.007,0.021,0.007,0.049,0.007,0.07c0,0.105-0.069,0.175-0.175,0.203
		c-0.707,0.196-1.702,0.378-2.542,0.469c-0.015,0-0.028,0-0.042,0c-0.112,0-0.196-0.056-0.218-0.203c0-0.014,0-0.028,0-0.042
		c0-0.119,0.077-0.189,0.196-0.203c0.091-0.007,0.175-0.014,0.267-0.021v-1.31c0-0.112,0.091-0.175,0.23-0.175
		c0.133,0,0.231,0.063,0.231,0.175v1.254c0.14-0.014,0.287-0.042,0.427-0.063c0.035-0.007,0.07-0.014,0.105-0.021V6.714H66.048z
		 M65.964,3.023c-0.112,0-0.183-0.084-0.183-0.203c0-0.126,0.07-0.196,0.183-0.196h4.839c0.112,0,0.183,0.07,0.183,0.196
		c0,0.119-0.07,0.203-0.183,0.203H68.59v0.329h2.318c0.351,0,0.546,0.14,0.546,0.455V4.55c0,0.154-0.098,0.203-0.245,0.203
		c-0.153,0-0.266-0.049-0.266-0.203V3.878c0-0.119-0.077-0.161-0.21-0.161H68.59V4.9c0,0.161-0.098,0.203-0.252,0.203
		S68.08,5.062,68.08,4.9V3.717h-2.053c-0.133,0-0.21,0.042-0.21,0.161v0.658c0,0.154-0.098,0.21-0.252,0.21s-0.252-0.056-0.252-0.21
		V3.808c0-0.315,0.195-0.455,0.553-0.455h2.214V3.023H65.964z M66.16,5.657c-0.14,0-0.195,0.028-0.195,0.154v0.378
		c0,0.126,0.049,0.154,0.188,0.154h1.156c0.133,0,0.203-0.028,0.203-0.154V5.811c0-0.126-0.063-0.154-0.196-0.154H66.16z
		 M67.582,3.99c0.099,0,0.134,0.091,0.134,0.175c0,0.091-0.035,0.175-0.134,0.175h-1.226c-0.091,0-0.133-0.084-0.133-0.175
		c0-0.084,0.042-0.175,0.133-0.175H67.582z M67.582,4.62c0.099,0,0.134,0.084,0.134,0.175c0,0.084-0.035,0.175-0.134,0.175h-1.226
		c-0.091,0-0.133-0.091-0.133-0.175c0-0.091,0.042-0.175,0.133-0.175H67.582z M70.761,5.363c0.253,0,0.399,0.133,0.399,0.308
		c0,0.105-0.049,0.217-0.154,0.329c-0.21,0.21-0.455,0.406-0.721,0.574c0.406,0.175,0.84,0.294,1.288,0.364
		c0.099,0.014,0.154,0.098,0.154,0.196c0,0.028,0,0.049-0.007,0.077c-0.035,0.126-0.112,0.182-0.21,0.182
		c-0.021,0-0.042,0-0.063-0.007c-0.546-0.105-1.085-0.294-1.575-0.567c-0.483,0.259-1.016,0.455-1.534,0.582
		c-0.028,0.007-0.049,0.007-0.07,0.007c-0.098,0-0.168-0.056-0.196-0.154c-0.007-0.028-0.014-0.056-0.014-0.077
		c0-0.091,0.049-0.161,0.147-0.182c0.434-0.091,0.875-0.238,1.268-0.427c-0.196-0.147-0.386-0.308-0.554-0.498
		c-0.154,0.154-0.35,0.301-0.519,0.406c-0.049,0.035-0.098,0.049-0.14,0.049c-0.063,0-0.126-0.035-0.168-0.098
		c-0.028-0.035-0.042-0.084-0.042-0.126c0-0.063,0.035-0.126,0.098-0.168c0.399-0.245,0.792-0.63,0.987-0.973
		c0.035-0.077,0.105-0.105,0.189-0.105c0.028,0,0.063,0.007,0.099,0.014c0.098,0.021,0.153,0.084,0.153,0.154
		c0,0.028-0.007,0.056-0.027,0.091c-0.015,0.014-0.021,0.035-0.035,0.049H70.761z M70.664,7.358c0.364,0,0.539,0.154,0.539,0.448
		v0.617c0,0.301-0.175,0.455-0.539,0.455H69.06c-0.364,0-0.54-0.154-0.54-0.455V7.807c0-0.294,0.176-0.448,0.54-0.448H70.664z
		 M70.58,8.486c0.133,0,0.189-0.042,0.189-0.175V7.912c0-0.133-0.057-0.175-0.189-0.175h-1.436c-0.134,0-0.189,0.042-0.189,0.175
		v0.399c0,0.133,0.056,0.175,0.189,0.175H70.58z M70.418,3.997c0.091,0,0.133,0.091,0.133,0.175c0,0.091-0.042,0.175-0.133,0.175
		h-1.31c-0.091,0-0.126-0.084-0.126-0.175c0-0.084,0.035-0.175,0.126-0.175H70.418z M70.418,4.62c0.091,0,0.133,0.084,0.133,0.175
		c0,0.084-0.042,0.175-0.133,0.175h-1.31c-0.091,0-0.126-0.091-0.126-0.175c0-0.091,0.035-0.175,0.126-0.175H70.418z M69.221,5.734
		c-0.015,0.014-0.021,0.021-0.035,0.035c-0.007,0.007-0.015,0.014-0.021,0.021c0.21,0.224,0.448,0.413,0.708,0.574
		c0.272-0.161,0.511-0.336,0.707-0.519c0.035-0.028,0.049-0.056,0.049-0.07c0-0.028-0.028-0.042-0.084-0.042H69.221z"/>
	<path d="M74.348,7.989c0,0.294-0.224,0.483-0.482,0.483c-0.273,0-0.483-0.189-0.483-0.483c0-0.294,0.21-0.483,0.483-0.483
		C74.125,7.506,74.348,7.695,74.348,7.989z M73.487,3.254c0-0.196,0.154-0.322,0.386-0.322c0.224,0,0.378,0.126,0.371,0.322
		L74.145,6.84c-0.007,0.161-0.14,0.238-0.279,0.238c-0.147,0-0.28-0.077-0.28-0.238L73.487,3.254z"/>
</g>
</svg>
