<?xml version="1.0" encoding="utf-8"?>
<!-- Generator: Adobe Illustrator 16.0.0, SVG Export Plug-In . SVG Version: 6.00 Build 0)  -->
<!DOCTYPE svg PUBLIC "-//W3C//DTD SVG 1.1//EN" "http://www.w3.org/Graphics/SVG/1.1/DTD/svg11.dtd">
<svg version="1.1" id="レイヤー_1" xmlns="http://www.w3.org/2000/svg" xmlns:xlink="http://www.w3.org/1999/xlink" x="0px"
	 y="0px" width="149.167px" height="116.109px" viewBox="0 0 149.167 116.109" enable-background="new 0 0 149.167 116.109"
	 xml:space="preserve">
<g>
	<path d="M54.267,9.225v5.671h4.578c0.57,0,1.093-0.028,1.568-0.084v1.063c-0.495-0.064-1.018-0.098-1.568-0.098h-9.324
		c-0.605,0-1.156,0.033-1.651,0.098v-1.063c0.457,0.056,1.008,0.084,1.651,0.084h3.753V5.446c0-0.514-0.033-0.999-0.098-1.456h1.189
		c-0.065,0.447-0.099,0.933-0.099,1.456v2.869h3.542c0.569,0,1.056-0.028,1.456-0.084V9.31c-0.438-0.056-0.923-0.085-1.456-0.085
		H54.267z"/>
	<path d="M67.567,11.676h-3.346c-0.608,0-1.125,0.027-1.555,0.084v-0.938c0.383,0.055,0.904,0.084,1.568,0.084h7.698
		c0.673,0,1.2-0.029,1.583-0.084v0.938c-0.448-0.057-0.966-0.084-1.554-0.084H68.42v1.288h3.108c0.588,0,1.046-0.023,1.372-0.069
		v0.91c-0.316-0.047-0.765-0.071-1.343-0.071H68.42v1.456h4.159c0.635,0,1.176-0.027,1.624-0.085v0.967
		c-0.43-0.065-0.98-0.099-1.652-0.099h-8.918c-0.653,0-1.203,0.033-1.651,0.099v-0.967c0.476,0.058,1.018,0.085,1.624,0.085h3.962
		v-1.456h-2.912c-0.588,0-1.042,0.024-1.358,0.071v-0.91c0.326,0.046,0.789,0.069,1.386,0.069h2.885V11.676z M64.906,5.067h2.087
		c0.224-0.411,0.383-0.844,0.477-1.302l1.006,0.168c-0.176,0.383-0.363,0.761-0.559,1.134h3.332c0.625,0,1.102-0.018,1.428-0.056
		c-0.037,0.299-0.056,0.69-0.056,1.176v2.366c0,0.495,0.019,0.916,0.056,1.261c-0.289-0.029-0.752-0.043-1.386-0.043h-6.413
		c-0.597,0-1.06,0.014-1.385,0.043c0.036-0.345,0.056-0.762,0.056-1.247V6.37c0-0.57-0.02-1.022-0.056-1.358
		C63.754,5.05,64.226,5.067,64.906,5.067z M64.417,5.823v1.19h7.336v-1.19H64.417z M64.417,7.756v1.288h7.336V7.756H64.417z"/>
	<path d="M88.539,16.562h-1.247c-0.522-0.598-0.919-1.105-1.189-1.525c-0.271-0.421-0.522-0.915-0.756-1.485
		c-0.448-1.082-0.671-2.229-0.671-3.443c0-1.213,0.223-2.361,0.671-3.443c0.233-0.57,0.484-1.064,0.756-1.484
		c0.271-0.419,0.667-0.929,1.189-1.525h1.247c-0.589,0.597-1.029,1.094-1.323,1.489c-0.294,0.398-0.563,0.866-0.806,1.407
		c-0.503,1.121-0.756,2.307-0.756,3.557s0.253,2.437,0.756,3.557c0.243,0.541,0.512,1.01,0.806,1.407
		C87.51,15.467,87.95,15.964,88.539,16.562z"/>
	<path d="M90.289,15.147V5.291c0-0.354-0.014-0.709-0.043-1.063c0.206,0.027,0.519,0.04,0.938,0.04h1.918
		c0.383,0,0.668-0.018,0.854-0.056l0.434,0.505c-0.084,0.168-0.154,0.317-0.21,0.448c-0.457,1.147-0.942,2.222-1.456,3.219
		c0.588,0.71,0.976,1.312,1.162,1.806c0.205,0.542,0.308,1.103,0.308,1.682c0,0.765-0.248,1.218-0.742,1.357
		c-0.28,0.075-0.644,0.112-1.091,0.112c-0.159,0-0.322-0.005-0.49-0.014c-0.038-0.318-0.108-0.616-0.211-0.897
		c0.327,0.066,0.63,0.099,0.91,0.099c0.316,0,0.525-0.047,0.624-0.139c0.098-0.094,0.146-0.296,0.146-0.603
		c0-0.673-0.168-1.308-0.504-1.904c-0.187-0.345-0.541-0.809-1.063-1.387c0.615-1.139,1.129-2.287,1.539-3.443h-2.17v10.094
		c0,0.531,0.022,0.966,0.07,1.302h-1.009C90.261,16.066,90.289,15.633,90.289,15.147z M96.378,10.654h-0.671
		c-0.532,0-0.957,0.026-1.274,0.084V9.814c0.364,0.055,0.793,0.083,1.288,0.083h5.264c0.523,0,0.966-0.028,1.329-0.083v0.924
		c-0.392-0.058-0.834-0.084-1.329-0.084h-1.4v4.395c0,0.15,0.064,0.246,0.189,0.287c0.127,0.043,0.403,0.063,0.832,0.063
		c0.486,0,0.775-0.09,0.869-0.271c0.093-0.183,0.174-0.823,0.238-1.926c0.26,0.169,0.541,0.285,0.84,0.35
		c-0.037,0.448-0.072,0.801-0.105,1.058c-0.033,0.258-0.082,0.499-0.147,0.728c-0.064,0.229-0.133,0.391-0.202,0.483
		c-0.07,0.094-0.183,0.178-0.336,0.252c-0.154,0.075-0.314,0.119-0.483,0.133c-0.167,0.015-0.396,0.021-0.687,0.021
		c-0.616,0-1.05-0.032-1.302-0.099c-0.214-0.056-0.363-0.139-0.447-0.252c-0.085-0.111-0.127-0.285-0.127-0.518v-4.703h-1.47
		c-0.056,0.979-0.158,1.74-0.308,2.281s-0.387,1.045-0.714,1.513c-0.579,0.783-1.572,1.451-2.981,2.001
		c-0.216-0.317-0.425-0.564-0.63-0.742c0.886-0.298,1.551-0.594,1.994-0.889c0.444-0.294,0.81-0.678,1.1-1.154
		c0.224-0.365,0.382-0.759,0.476-1.184C96.275,12.057,96.342,11.447,96.378,10.654z M97.611,5.375V4.816
		c0-0.412-0.028-0.762-0.085-1.051h1.064c-0.056,0.252-0.084,0.607-0.084,1.063v0.546h2.366c0.477,0,0.924-0.022,1.343-0.069
		c-0.027,0.29-0.041,0.588-0.041,0.896v0.924c0,0.346,0.019,0.664,0.056,0.952h-0.91V6.159h-6.174V8.05h-0.868
		c0.028-0.243,0.042-0.56,0.042-0.952v-0.91c0-0.336-0.014-0.629-0.042-0.882c0.411,0.047,0.906,0.069,1.484,0.069H97.611z
		 M95.58,8.456V7.588c0.299,0.038,0.653,0.056,1.064,0.056h3.233c0.393,0,0.737-0.018,1.037-0.056v0.868
		c-0.327-0.038-0.673-0.058-1.037-0.058h-3.247C96.22,8.398,95.87,8.418,95.58,8.456z"/>
	<path d="M104.85,16.562h-1.247c0.579-0.579,1.015-1.071,1.31-1.477c0.294-0.405,0.567-0.88,0.818-1.421
		c0.504-1.12,0.756-2.307,0.756-3.557s-0.252-2.436-0.756-3.557c-0.251-0.541-0.524-1.014-0.818-1.42
		c-0.295-0.406-0.73-0.898-1.31-1.477h1.247c0.521,0.597,0.918,1.106,1.188,1.525c0.271,0.42,0.523,0.914,0.758,1.484
		c0.447,1.082,0.67,2.23,0.67,3.443c0,1.215-0.223,2.361-0.67,3.443c-0.234,0.57-0.486,1.064-0.758,1.485
		C105.768,15.456,105.371,15.964,104.85,16.562z"/>
</g>
<g>
	<path d="M30.573,72.131h-3.057c0.21,0.623,0.438,1.146,0.684,1.569c0.244,0.424,0.55,0.83,0.915,1.219
		c0.825,0.872,1.926,1.557,3.302,2.055c-0.187,0.225-0.347,0.485-0.479,0.782c-1.423-0.631-2.57-1.439-3.441-2.428
		c-0.606-0.677-1.107-1.563-1.506-2.66c-0.35,1.268-0.955,2.329-1.819,3.185c-0.373,0.373-0.775,0.703-1.207,0.986
		c-0.433,0.284-0.982,0.573-1.651,0.869c-0.132-0.28-0.3-0.522-0.501-0.724c1.5-0.536,2.637-1.307,3.406-2.311
		c0.553-0.73,0.922-1.577,1.108-2.543H23.69c-0.466,0-0.879,0.023-1.236,0.069v-0.827c0.35,0.046,0.762,0.07,1.236,0.07h2.753
		c0.086-0.614,0.136-1.451,0.152-2.509h-3.29c-0.561,0-0.992,0.027-1.295,0.081v-0.862c0.28,0.054,0.712,0.081,1.295,0.081h7.653
		c0.567,0,0.999-0.027,1.296-0.081v0.862c-0.305-0.054-0.736-0.081-1.296-0.081h-3.594c-0.008,0.995-0.055,1.832-0.141,2.509h3.349
		c0.46,0,0.875-0.024,1.249-0.07V72.2C31.441,72.154,31.024,72.131,30.573,72.131z"/>
	<path d="M38.366,73.963h-2.788c-0.505,0-0.938,0.022-1.295,0.069v-0.781c0.318,0.048,0.755,0.069,1.308,0.069h6.416
		c0.561,0,0.999-0.021,1.317-0.069v0.781c-0.372-0.047-0.804-0.069-1.293-0.069h-2.953v1.073h2.59c0.49,0,0.872-0.02,1.145-0.058
		v0.758c-0.265-0.039-0.639-0.059-1.12-0.059h-2.614v1.213h3.465c0.528,0,0.98-0.023,1.354-0.07v0.805
		c-0.357-0.054-0.816-0.08-1.376-0.08h-7.432c-0.545,0-1.004,0.026-1.376,0.08V76.82c0.396,0.047,0.847,0.07,1.353,0.07h3.301
		v-1.213H35.94c-0.49,0-0.867,0.02-1.131,0.059v-0.758c0.271,0.038,0.656,0.058,1.154,0.058h2.402V73.963z M36.15,68.455h1.739
		c0.185-0.341,0.317-0.703,0.396-1.084l0.84,0.141c-0.148,0.318-0.304,0.633-0.468,0.943h2.776c0.522,0,0.918-0.014,1.19-0.045
		c-0.03,0.249-0.046,0.575-0.046,0.979v1.971c0,0.413,0.016,0.763,0.046,1.051c-0.241-0.024-0.626-0.034-1.154-0.034h-5.344
		c-0.498,0-0.883,0.01-1.154,0.034c0.031-0.288,0.046-0.634,0.046-1.038v-1.832c0-0.475-0.015-0.852-0.046-1.131
		C35.19,68.441,35.582,68.455,36.15,68.455z M35.742,69.086v0.992h6.113v-0.992H35.742z M35.742,70.695v1.075h6.113v-1.075H35.742z"
		/>
</g>
<g>
	<path d="M111.284,62.978v-9.855c0-0.354-0.014-0.709-0.042-1.063c0.205,0.027,0.519,0.041,0.938,0.041h1.918
		c0.383,0,0.668-0.018,0.854-0.056l0.434,0.505c-0.084,0.167-0.154,0.316-0.21,0.447c-0.457,1.148-0.941,2.222-1.456,3.22
		c0.588,0.71,0.976,1.312,1.162,1.806c0.205,0.542,0.308,1.102,0.308,1.681c0,0.767-0.248,1.218-0.741,1.358
		c-0.281,0.074-0.645,0.111-1.092,0.111c-0.159,0-0.322-0.004-0.489-0.014c-0.039-0.317-0.109-0.616-0.212-0.896
		c0.327,0.066,0.63,0.098,0.911,0.098c0.315,0,0.524-0.047,0.623-0.139c0.097-0.093,0.146-0.295,0.146-0.603
		c0-0.672-0.169-1.307-0.505-1.903c-0.186-0.346-0.541-0.809-1.063-1.387c0.615-1.139,1.129-2.287,1.539-3.443h-2.17v10.093
		c0,0.532,0.023,0.966,0.07,1.304H111.2C111.256,63.898,111.284,63.463,111.284,62.978z M117.373,58.484h-0.671
		c-0.532,0-0.957,0.027-1.274,0.084v-0.924c0.364,0.057,0.793,0.084,1.289,0.084h5.263c0.523,0,0.966-0.027,1.33-0.084v0.924
		c-0.393-0.057-0.835-0.084-1.33-0.084h-1.399v4.396c0,0.148,0.063,0.244,0.188,0.286c0.127,0.042,0.403,0.063,0.833,0.063
		c0.485,0,0.774-0.091,0.868-0.272c0.093-0.183,0.173-0.823,0.238-1.926c0.261,0.169,0.541,0.284,0.839,0.351
		c-0.036,0.447-0.071,0.8-0.104,1.057c-0.032,0.257-0.082,0.499-0.147,0.728c-0.064,0.229-0.133,0.39-0.202,0.483
		c-0.07,0.093-0.183,0.178-0.337,0.251c-0.152,0.076-0.313,0.12-0.482,0.134c-0.167,0.014-0.396,0.021-0.686,0.021
		c-0.616,0-1.051-0.031-1.302-0.098c-0.215-0.057-0.364-0.14-0.448-0.252c-0.085-0.112-0.127-0.285-0.127-0.518v-4.704h-1.47
		c-0.056,0.979-0.158,1.74-0.308,2.283c-0.149,0.54-0.387,1.044-0.714,1.511c-0.579,0.784-1.572,1.451-2.981,2.003
		c-0.216-0.318-0.425-0.566-0.63-0.742c0.886-0.299,1.552-0.595,1.994-0.89c0.444-0.294,0.81-0.679,1.1-1.155
		c0.224-0.364,0.382-0.759,0.476-1.184C117.271,59.887,117.337,59.277,117.373,58.484z M118.606,53.206v-0.56
		c0-0.411-0.028-0.761-0.084-1.05h1.063c-0.056,0.252-0.084,0.606-0.084,1.063v0.546h2.366c0.477,0,0.924-0.022,1.343-0.069
		c-0.027,0.289-0.041,0.588-0.041,0.896v0.924c0,0.345,0.019,0.663,0.057,0.952h-0.911V53.99h-6.174v1.89h-0.867
		c0.027-0.242,0.042-0.56,0.042-0.951v-0.91c0-0.336-0.015-0.63-0.042-0.882c0.411,0.047,0.905,0.069,1.484,0.069H118.606z
		 M116.576,56.287v-0.868c0.298,0.037,0.652,0.056,1.063,0.056h3.233c0.393,0,0.737-0.019,1.037-0.056v0.868
		c-0.327-0.038-0.673-0.058-1.037-0.058h-3.247C117.215,56.229,116.865,56.249,116.576,56.287z"/>
	<path d="M131.136,53.023v-0.629c0-0.318-0.027-0.626-0.084-0.924h1.078c-0.057,0.242-0.084,0.551-0.084,0.924v0.629h3.737
		c0.645,0,1.148-0.027,1.512-0.083v0.993c-0.373-0.046-0.881-0.068-1.524-0.068h-8.835c-0.018,3.284-0.124,5.546-0.314,6.781
		c-0.191,1.238-0.628,2.397-1.309,3.479c-0.254-0.271-0.51-0.484-0.771-0.644c0.316-0.496,0.552-0.926,0.706-1.296
		c0.155-0.369,0.283-0.799,0.386-1.295c0.252-1.175,0.378-3.042,0.378-5.6c0-1.138-0.019-1.917-0.056-2.337
		c0.495,0.046,0.976,0.068,1.442,0.068H131.136z M131.878,56.931h-2.885c-0.56,0-1.018,0.022-1.371,0.069v-0.979
		c0.279,0.046,0.741,0.07,1.387,0.07h6.872c0.58,0,1.061-0.028,1.442-0.084v1.008c-0.392-0.057-0.867-0.084-1.429-0.084h-3.079
		v6.021c0,0.475-0.101,0.785-0.301,0.931c-0.2,0.145-0.637,0.216-1.309,0.216c-0.523,0-1.014-0.018-1.47-0.056
		c-0.028-0.327-0.098-0.648-0.211-0.966c0.588,0.084,1.162,0.126,1.723,0.126c0.27,0,0.442-0.024,0.517-0.07
		c0.076-0.046,0.113-0.154,0.113-0.321V56.931z"/>
</g>
<g>
	<path d="M106.805,76.525v-8.213c0-0.295-0.011-0.59-0.035-0.887c0.172,0.022,0.432,0.035,0.781,0.035h1.599
		c0.319,0,0.557-0.017,0.713-0.046l0.36,0.419c-0.069,0.14-0.127,0.266-0.174,0.373c-0.381,0.958-0.786,1.852-1.214,2.684
		c0.49,0.591,0.813,1.092,0.969,1.505c0.172,0.451,0.256,0.918,0.256,1.4c0,0.638-0.205,1.016-0.618,1.131
		c-0.233,0.063-0.536,0.094-0.91,0.094c-0.132,0-0.268-0.004-0.408-0.012c-0.03-0.265-0.09-0.514-0.176-0.746
		c0.272,0.054,0.526,0.081,0.76,0.081c0.264,0,0.438-0.039,0.52-0.116c0.081-0.077,0.121-0.245,0.121-0.501
		c0-0.561-0.14-1.09-0.419-1.587c-0.156-0.289-0.451-0.673-0.888-1.155c0.515-0.949,0.941-1.905,1.284-2.87h-1.808v8.411
		c0,0.443,0.018,0.806,0.058,1.086h-0.841C106.781,77.292,106.805,76.93,106.805,76.525z M111.88,72.78h-0.56
		c-0.443,0-0.797,0.024-1.062,0.071v-0.771c0.303,0.047,0.66,0.069,1.073,0.069h4.387c0.435,0,0.805-0.022,1.108-0.069v0.771
		c-0.327-0.047-0.696-0.071-1.108-0.071h-1.167v3.665c0,0.123,0.053,0.203,0.157,0.237c0.105,0.035,0.336,0.054,0.694,0.054
		c0.404,0,0.646-0.076,0.724-0.229c0.077-0.15,0.144-0.687,0.198-1.604c0.218,0.141,0.45,0.237,0.7,0.292
		c-0.031,0.373-0.062,0.666-0.088,0.88c-0.028,0.215-0.068,0.416-0.122,0.606c-0.056,0.191-0.11,0.325-0.17,0.403
		c-0.059,0.077-0.151,0.147-0.279,0.209c-0.128,0.063-0.263,0.1-0.403,0.111c-0.14,0.013-0.331,0.018-0.571,0.018
		c-0.514,0-0.875-0.026-1.086-0.081c-0.178-0.048-0.302-0.116-0.372-0.21s-0.105-0.238-0.105-0.432V72.78h-1.225
		c-0.048,0.817-0.132,1.451-0.257,1.901c-0.124,0.451-0.322,0.872-0.595,1.261c-0.483,0.654-1.311,1.21-2.484,1.669
		c-0.181-0.266-0.354-0.472-0.525-0.618c0.738-0.25,1.293-0.496,1.662-0.741s0.674-0.566,0.916-0.963
		c0.188-0.303,0.319-0.632,0.396-0.986C111.794,73.949,111.849,73.441,111.88,72.78z M112.905,68.383v-0.467
		c0-0.342-0.022-0.635-0.068-0.875h0.886c-0.046,0.209-0.068,0.506-0.068,0.887v0.455h1.971c0.396,0,0.77-0.02,1.12-0.06
		c-0.023,0.242-0.034,0.491-0.034,0.748v0.77c0,0.288,0.014,0.552,0.046,0.793h-0.759v-1.599h-5.145v1.576h-0.724
		c0.023-0.203,0.035-0.467,0.035-0.794V69.06c0-0.28-0.012-0.525-0.035-0.736c0.343,0.04,0.754,0.06,1.237,0.06H112.905z
		 M111.216,70.948v-0.723c0.248,0.032,0.543,0.048,0.886,0.048h2.694c0.327,0,0.614-0.016,0.864-0.048v0.723
		c-0.272-0.03-0.56-0.046-0.864-0.046h-2.706C111.748,70.902,111.456,70.918,111.216,70.948z"/>
	<path d="M118.121,72.524v-0.793c0.241,0.039,0.545,0.058,0.91,0.058h0.828c0.352,0,0.646-0.019,0.888-0.058
		c-0.04,0.303-0.06,0.716-0.06,1.235v2.171c0.164,0.365,0.439,0.68,0.83,0.944c0.271,0.18,0.625,0.306,1.061,0.38
		c0.437,0.074,1.072,0.11,1.914,0.11c1.967,0,3.43-0.074,4.387-0.221c-0.141,0.325-0.229,0.609-0.27,0.851
		c-1.445,0.055-2.804,0.083-4.07,0.083c-0.903,0-1.592-0.044-2.066-0.129c-0.474-0.086-0.902-0.249-1.282-0.49
		c-0.319-0.201-0.615-0.502-0.887-0.898c-0.491,0.49-0.996,0.929-1.518,1.318c-0.193,0.147-0.334,0.26-0.419,0.338l-0.386-0.793
		c0.155-0.063,0.307-0.137,0.455-0.222c0.544-0.349,1.057-0.767,1.54-1.248v-2.695h-0.992
		C118.65,72.466,118.362,72.485,118.121,72.524z M118.483,67.904l0.561-0.489c0.684,0.638,1.313,1.34,1.891,2.11l-0.584,0.525
		c-0.359-0.506-0.662-0.9-0.91-1.184C119.191,68.584,118.872,68.263,118.483,67.904z M125.752,71.147h-2.509
		c-0.039,1.159-0.149,2.082-0.333,2.771c-0.183,0.688-0.476,1.305-0.88,1.849c-0.18-0.211-0.381-0.393-0.606-0.549
		c0.427-0.529,0.717-1.165,0.868-1.907c0.152-0.743,0.228-1.899,0.228-3.471c0-0.715-0.016-1.226-0.047-1.528h0.151
		c0.366,0,0.874-0.059,1.523-0.174c0.65-0.118,1.258-0.262,1.825-0.433c0.669-0.194,1.147-0.394,1.436-0.595l0.642,0.664
		c-0.063,0.024-0.206,0.079-0.432,0.164c-1.159,0.458-2.613,0.796-4.363,1.015v1.166v0.339h4.165c0.459,0,0.809-0.02,1.051-0.059
		v0.806c-0.266-0.039-0.611-0.059-1.04-0.059h-0.943v3.687c0,0.514,0.026,0.902,0.081,1.166h-0.888
		c0.048-0.271,0.071-0.66,0.071-1.166V71.147z"/>
	<path d="M135.424,73.959v2.299h3.313c0.498,0,0.895-0.023,1.189-0.071v0.853c-0.325-0.055-0.727-0.082-1.2-0.082h-7.408v0.666
		h-0.829c0.055-0.39,0.082-0.817,0.082-1.285v-7.605c0-0.436-0.017-0.836-0.047-1.201c0.28,0.038,0.677,0.058,1.189,0.058h6.767
		c0.482,0,0.883-0.026,1.201-0.081v0.84c-0.302-0.047-0.699-0.069-1.188-0.069h-3.081v2.146h2.684c0.365,0,0.67-0.017,0.909-0.048
		c-0.03,0.25-0.046,0.529-0.046,0.84v1.938c0,0.312,0.016,0.594,0.046,0.851c-0.271-0.03-0.575-0.046-0.909-0.046H135.424z
		 M131.317,70.425h3.348v-2.146h-3.348V70.425z M131.317,73.281h6.905v-2.18h-6.905V73.281z M134.676,73.959h-3.358v2.299h3.358
		V73.959z"/>
</g>
<g>
	<path d="M6.711,102.243l0.897,0.315c-0.069,0.102-0.179,0.3-0.325,0.595c-0.538,1.065-1.19,2.012-1.962,2.835
		c-0.481,0.514-1.061,1.026-1.737,1.54c-0.172-0.272-0.358-0.489-0.561-0.652c1.322-0.911,2.342-1.961,3.057-3.15
		C6.446,103.118,6.656,102.625,6.711,102.243z M12.998,111.868l-0.698,0.456c-0.18-0.366-0.404-0.789-0.677-1.273
		c-1.954,0.305-4.092,0.522-6.418,0.654c-0.668,0.047-1.112,0.089-1.33,0.129l-0.186-0.91c0.389,0.016,0.649,0.022,0.781,0.022
		c0.248,0,0.501-0.003,0.758-0.011c0.622-1.043,1.221-2.271,1.797-3.688c0.365-0.91,0.592-1.579,0.677-2.006l0.899,0.268
		c-0.017,0.031-0.028,0.051-0.035,0.06c-0.048,0.108-0.11,0.267-0.188,0.477c-0.754,1.876-1.517,3.493-2.286,4.854
		c1.897-0.101,3.615-0.259,5.156-0.479c-0.507-0.776-1.093-1.574-1.762-2.391l0.642-0.397
		C11.272,109.05,12.229,110.461,12.998,111.868z M9.301,102.559l0.781-0.338c0.218,0.691,0.657,1.461,1.318,2.309
		c0.638,0.816,1.493,1.588,2.566,2.312c-0.217,0.2-0.4,0.438-0.548,0.71c-0.973-0.738-1.73-1.43-2.275-2.075s-1.1-1.511-1.667-2.591
		C9.383,102.706,9.324,102.598,9.301,102.559z"/>
	<path d="M16.033,103.562v5.472c0.294-0.116,0.645-0.275,1.049-0.479c0.071-0.731,0.104-1.904,0.104-3.522
		c0-0.483-0.015-0.848-0.047-1.097h0.771c-0.031,0.179-0.05,0.984-0.058,2.415c0,1.968-0.19,3.355-0.572,4.164
		c-0.334,0.731-0.934,1.4-1.797,2.008c-0.14-0.22-0.318-0.405-0.537-0.561c0.421-0.288,0.735-0.525,0.946-0.711
		c0.21-0.187,0.392-0.401,0.548-0.643c0.249-0.358,0.432-0.816,0.548-1.377c-0.536,0.289-1.112,0.553-1.726,0.793
		c-0.188,0.079-0.335,0.148-0.443,0.211l-0.245-0.77c0.163-0.016,0.424-0.077,0.782-0.188v-5.494c0-0.242-0.013-0.475-0.036-0.7
		c1.167-0.28,2.015-0.654,2.543-1.121l0.432,0.619C17.564,102.986,16.81,103.313,16.033,103.562z M22.216,111.087l-0.596,0.35
		c-0.194-0.474-0.322-0.781-0.384-0.922c-0.833,0.397-1.763,0.774-2.79,1.133c-0.062,0.015-0.201,0.069-0.418,0.163l-0.27-0.76
		c0.218-0.03,0.514-0.097,0.887-0.197v-7.034c0-0.53-0.012-0.941-0.034-1.237c0.193,0.031,0.435,0.046,0.722,0.046h1.716
		c0.257,0,0.49-0.011,0.7-0.035c-0.022,0.195-0.035,0.495-0.035,0.899v3.43c0,0.412,0.007,0.719,0.023,0.921
		c-0.21-0.03-0.439-0.047-0.688-0.047h-1.738v2.848c0.567-0.194,1.123-0.416,1.667-0.665c-0.239-0.482-0.5-0.929-0.78-1.342
		l0.561-0.244C21.286,109.201,21.772,110.099,22.216,111.087z M19.311,104.834h1.738v-1.564h-1.738V104.834z M19.311,105.451v1.717
		h1.738v-1.717H19.311z M22.461,111.437v-8.003c0-0.164-0.008-0.502-0.024-1.015c0.203,0.022,0.451,0.035,0.748,0.035h1.317
		c0.281,0,0.51-0.013,0.688-0.035c-0.024,0.217-0.035,0.559-0.035,1.025v6.487c0,0.357-0.066,0.592-0.198,0.7
		s-0.416,0.163-0.852,0.163c-0.094,0-0.299-0.012-0.618-0.035c-0.023-0.265-0.074-0.501-0.152-0.711
		c0.397,0.055,0.67,0.081,0.817,0.081c0.132,0,0.219-0.019,0.262-0.059c0.042-0.038,0.064-0.124,0.064-0.256v-6.697H23.16v8.331
		c0,0.442,0.012,0.805,0.035,1.084h-0.781C22.445,112.254,22.461,111.888,22.461,111.437z"/>
	<path d="M32.436,103.83c-0.188,1.75-0.567,3.294-1.144,4.631c-0.343,0.771-0.69,1.337-1.044,1.698
		c-0.354,0.362-0.741,0.542-1.161,0.542c-0.553,0-1.014-0.27-1.382-0.81c-0.371-0.542-0.556-1.22-0.556-2.036
		c0-1.229,0.409-2.302,1.226-3.221c0.94-1.033,2.197-1.551,3.77-1.551c1.353,0,2.422,0.385,3.208,1.154
		c0.754,0.731,1.131,1.68,1.131,2.847c0,0.91-0.233,1.72-0.699,2.427c-0.467,0.708-1.125,1.241-1.973,1.599
		c-0.49,0.21-1.081,0.388-1.772,0.537c-0.086-0.288-0.222-0.55-0.409-0.782c0.801-0.132,1.452-0.315,1.947-0.549
		c0.639-0.287,1.143-0.725,1.513-1.313c0.369-0.587,0.554-1.238,0.554-1.954c0-0.669-0.162-1.258-0.484-1.767
		c-0.322-0.51-0.779-0.896-1.37-1.162C33.385,103.951,32.934,103.854,32.436,103.83z M31.596,103.842
		c-0.646,0.055-1.227,0.237-1.738,0.548c-0.591,0.357-1.057,0.847-1.395,1.466c-0.339,0.616-0.507,1.288-0.507,2.012
		c0,0.559,0.106,1.03,0.319,1.411c0.215,0.382,0.481,0.572,0.8,0.572c0.475,0,0.961-0.564,1.458-1.692
		c0.24-0.553,0.46-1.224,0.653-2.018C31.381,105.346,31.518,104.581,31.596,103.842z"/>
	<path d="M43.04,101.917h0.828c0.498,0.763,1.151,1.458,1.959,2.087c1.021,0.811,2.094,1.433,3.222,1.867
		c-0.203,0.25-0.354,0.499-0.455,0.746c-1.182-0.559-2.264-1.234-3.243-2.029c-0.717-0.59-1.339-1.256-1.867-1.995
		c-0.498,0.692-1.081,1.331-1.75,1.915c-0.995,0.862-2.045,1.547-3.15,2.052c-0.116-0.248-0.279-0.471-0.49-0.665
		c1.128-0.49,2.159-1.123,3.093-1.901C41.947,103.355,42.566,102.663,43.04,101.917z M42.071,108.426h-2.146
		c-0.535,0-0.979,0.024-1.329,0.072v-0.84c0.357,0.045,0.801,0.068,1.329,0.068h7.187c0.529,0,0.973-0.023,1.33-0.068v0.84
		c-0.357-0.048-0.801-0.072-1.33-0.072h-4.188c-0.521,1.137-1.007,2.055-1.458,2.755c1.438-0.094,2.955-0.237,4.549-0.433
		c-0.528-0.575-1.003-1.058-1.423-1.447l0.607-0.372c1.049,0.988,1.99,2.015,2.823,3.079l-0.643,0.479
		c-0.342-0.482-0.626-0.864-0.851-1.144c-1.977,0.264-3.863,0.467-5.659,0.606c-1.104,0.086-1.762,0.155-1.972,0.21l-0.141-0.887
		c0.202,0.022,0.401,0.035,0.596,0.035c0.124,0,0.536-0.023,1.237-0.07C41.182,110.297,41.675,109.36,42.071,108.426z
		 M40.672,106.304v-0.782c0.211,0.032,0.517,0.048,0.922,0.048h3.768c0.428,0,0.755-0.016,0.98-0.048v0.782
		c-0.217-0.03-0.544-0.046-0.98-0.046h-3.78C41.186,106.258,40.883,106.273,40.672,106.304z"/>
	<path d="M53.342,103.912v0.747c-0.241-0.031-0.509-0.047-0.806-0.047h-1.75c-0.364,0-0.661,0.016-0.887,0.047v-0.747
		c0.211,0.039,0.507,0.059,0.887,0.059h1.67C52.828,103.971,53.124,103.951,53.342,103.912z M50.938,112.487h-0.712
		c0.048-0.304,0.07-0.688,0.07-1.156v-1.505c0-0.474-0.02-0.828-0.059-1.062c0.25,0.032,0.514,0.047,0.795,0.047h1.282
		c0.303,0,0.563-0.015,0.782-0.047c-0.023,0.181-0.036,0.517-0.036,1.016v1.471c0,0.403,0.017,0.73,0.046,0.979h-0.664v-0.42h-1.505
		V112.487z M50.274,103.025v-0.735c0.209,0.038,0.478,0.058,0.804,0.058h1.261c0.326,0,0.599-0.02,0.816-0.058v0.735
		c-0.24-0.031-0.513-0.048-0.816-0.048h-1.261C50.783,102.978,50.514,102.994,50.274,103.025z M50.32,106.258v-0.724
		c0.188,0.03,0.463,0.046,0.828,0.046h1.085c0.357,0,0.634-0.016,0.828-0.046v0.724c-0.272-0.032-0.548-0.047-0.828-0.047h-1.085
		C50.822,106.211,50.547,106.226,50.32,106.258z M50.32,107.89v-0.722c0.21,0.03,0.485,0.045,0.828,0.045h1.085
		c0.311,0,0.588-0.015,0.828-0.045v0.722c-0.248-0.03-0.525-0.047-0.828-0.047h-1.085C50.822,107.843,50.547,107.859,50.32,107.89z
		 M50.938,109.395v1.821h1.505v-1.821H50.938z M59.408,108.824l0.595,0.385c-0.038,0.046-0.167,0.198-0.385,0.455
		c-0.265,0.341-0.533,0.646-0.804,0.91c0.179,0.295,0.385,0.548,0.617,0.757c0.171,0.141,0.296,0.211,0.373,0.211
		c0.102,0,0.179-0.063,0.233-0.187c0.086-0.188,0.164-0.521,0.234-1.004c0.193,0.179,0.38,0.315,0.56,0.408
		c-0.11,0.545-0.233,0.934-0.374,1.166c-0.139,0.234-0.319,0.352-0.537,0.352c-0.497,0-1.026-0.437-1.585-1.307
		c-0.6,0.474-1.214,0.87-1.844,1.189c-0.032-0.047-0.104-0.144-0.222-0.292c-0.039-0.055-0.116-0.14-0.234-0.256
		c0.786-0.327,1.458-0.72,2.02-1.179c-0.226-0.498-0.424-1.093-0.595-1.785l-1.867,0.011v1.016c0.233-0.062,0.455-0.124,0.664-0.187
		c0.024,0,0.295-0.09,0.817-0.268l0.022,0.582c-0.481,0.18-0.982,0.334-1.504,0.467v1.272c0,0.318-0.07,0.538-0.211,0.659
		c-0.14,0.12-0.396,0.181-0.77,0.181c-0.295,0-0.557-0.016-0.781-0.047c-0.016-0.226-0.066-0.45-0.152-0.677
		c0.366,0.07,0.673,0.104,0.922,0.104c0.133,0,0.224-0.021,0.275-0.063c0.05-0.043,0.074-0.118,0.074-0.228v-1.038
		c-0.622,0.133-1.096,0.233-1.423,0.303l-0.187-0.665c0.412-0.015,0.949-0.097,1.609-0.245v-1.154h-0.536
		c-0.374,0-0.712,0.023-1.016,0.07v-0.712c0.188,0.039,0.479,0.058,0.875,0.058h0.677v-0.734c-0.553,0.116-0.93,0.188-1.131,0.211
		c-0.071-0.195-0.156-0.37-0.256-0.525c0.543-0.031,1.093-0.119,1.65-0.264c0.556-0.144,0.966-0.305,1.23-0.482l0.443,0.477
		c-0.592,0.227-1.023,0.374-1.295,0.443v0.863l1.75-0.011c-0.055-0.389-0.094-0.786-0.116-1.189
		c-0.017-0.141-0.036-0.285-0.059-0.433h0.734c-0.023,0.132-0.034,0.273-0.034,0.42c0,0.335,0.034,0.735,0.104,1.202l1.284-0.012
		c0.451-0.008,0.801-0.036,1.05-0.082v0.724c-0.201-0.039-0.502-0.059-0.898-0.059h-0.151l-1.19,0.012
		c0.102,0.459,0.253,0.91,0.456,1.354C58.919,109.605,59.214,109.213,59.408,108.824z M54.777,102.873h0.688
		c-0.14-0.303-0.343-0.622-0.607-0.956l0.643-0.222c0.257,0.388,0.479,0.781,0.665,1.178h1.329c0.203-0.303,0.397-0.691,0.584-1.166
		l0.688,0.197c-0.187,0.396-0.369,0.721-0.549,0.969h0.771c0.443,0,0.782-0.022,1.015-0.069v0.677
		c-0.256-0.038-0.595-0.059-1.015-0.059h-1.891v0.77h1.505c0.404,0,0.729-0.019,0.969-0.058v0.653
		c-0.233-0.04-0.556-0.06-0.969-0.06h-1.505v0.807h2.113c0.457,0,0.812-0.024,1.062-0.071v0.689c-0.234-0.039-0.588-0.06-1.062-0.06
		h-4.633c-0.451,0-0.805,0.021-1.061,0.06v-0.689c0.24,0.047,0.595,0.071,1.061,0.071h1.891v-0.807h-1.377
		c-0.42,0-0.743,0.02-0.969,0.06v-0.653c0.242,0.039,0.564,0.058,0.969,0.058h1.377v-0.77h-1.691c-0.459,0-0.802,0.021-1.028,0.059
		v-0.677C53.991,102.851,54.333,102.873,54.777,102.873z M58.184,106.723l0.455-0.325c0.451,0.31,0.867,0.644,1.249,1.002
		l-0.479,0.396C59.074,107.424,58.666,107.066,58.184,106.723z"/>
</g>
<g>
	<path d="M103.051,108.626v-2.649c0-0.35-0.023-0.68-0.07-0.991h0.862c-0.039,0.249-0.059,0.579-0.059,0.991v5.239
		c0,0.451,0.025,0.843,0.071,1.177h-0.875c0.047-0.334,0.07-0.726,0.07-1.177v-1.855c-0.421,0.249-1.035,0.575-1.844,0.98
		c-0.039,0.016-0.172,0.085-0.396,0.209l-0.361-0.758C101.148,109.605,102.016,109.216,103.051,108.626z M103.633,103.165v-0.386
		c0-0.279-0.022-0.559-0.069-0.839h0.852c-0.047,0.256-0.07,0.536-0.07,0.839v0.386h2.684v-0.386c0-0.318-0.023-0.598-0.071-0.839
		h0.854c-0.047,0.256-0.07,0.536-0.07,0.839v0.386h1.809c0.543,0,0.983-0.022,1.318-0.069v0.793
		c-0.304-0.039-0.743-0.059-1.318-0.059h-1.809v0.188c0,0.295,0.015,0.547,0.046,0.757h-0.804c0.03-0.21,0.046-0.462,0.046-0.757
		v-0.188h-2.684v0.174c0,0.297,0.016,0.554,0.047,0.771h-0.806c0.031-0.217,0.047-0.47,0.047-0.757v-0.188h-1.749
		c-0.554,0-0.984,0.02-1.296,0.059v-0.793c0.327,0.047,0.759,0.069,1.296,0.069H103.633z M100.915,105.849l0.642-0.304
		c0.357,0.715,0.665,1.428,0.921,2.135l-0.676,0.338C101.592,107.279,101.297,106.557,100.915,105.849z M107.11,107.155v-0.817
		c0-0.528-0.023-0.944-0.07-1.248h0.887c-0.047,0.227-0.07,0.639-0.07,1.236v0.829h1.832c0.544,0,0.934-0.02,1.167-0.058v0.781
		c-0.404-0.039-0.795-0.059-1.167-0.059h-1.832v3.36h1.471c0.536,0,0.933-0.02,1.189-0.059v0.793
		c-0.396-0.047-0.794-0.069-1.189-0.069h-3.583c-0.466,0-0.867,0.022-1.201,0.069v-0.793c0.366,0.039,0.767,0.059,1.201,0.059h1.366
		v-3.36h-1.563c-0.382,0-0.774,0.02-1.179,0.059v-0.781c0.256,0.038,0.649,0.058,1.179,0.058H107.11z"/>
	<path d="M122.277,112.476h-0.806v-0.561h-8.178v0.561h-0.807c0.048-0.343,0.071-0.813,0.071-1.411v-7.363
		c0-0.489-0.023-0.968-0.071-1.434c0.327,0.039,0.782,0.059,1.365,0.059h7.036c0.575,0,1.038-0.02,1.389-0.059
		c-0.047,0.427-0.071,0.905-0.071,1.434v7.386C122.206,111.7,122.23,112.164,122.277,112.476z M113.294,102.955v8.341h8.178v-8.341
		H113.294z M120.176,108.322l0.55,0.362c-0.654,0.528-1.12,0.874-1.4,1.037c0.481,0.257,1.081,0.471,1.797,0.642
		c-0.188,0.233-0.327,0.442-0.421,0.63c-0.784-0.287-1.415-0.583-1.89-0.886c-0.475-0.305-0.917-0.693-1.33-1.167
		c0.017,0.311,0.023,0.533,0.023,0.665v0.57c0,0.352,0.02,0.623,0.059,0.817h-0.77c0.038-0.226,0.058-0.498,0.058-0.817v-0.57
		c0-0.047,0.002-0.098,0.006-0.151c0.003-0.056,0.008-0.132,0.012-0.228c0.004-0.098,0.005-0.193,0.005-0.286
		c-0.396,0.42-0.803,0.772-1.219,1.056s-0.946,0.57-1.592,0.857c-0.14-0.232-0.292-0.428-0.455-0.584
		c0.754-0.265,1.377-0.556,1.867-0.875c0.411-0.278,0.82-0.614,1.225-1.002h-1.296c-0.256,0-0.517,0.008-0.78,0.022
		c0.022-0.218,0.035-0.432,0.035-0.642v-0.734c0-0.203-0.013-0.416-0.035-0.642c0.24,0.022,0.5,0.034,0.78,0.034h3.968
		c0.28,0,0.54-0.012,0.781-0.034c-0.024,0.193-0.035,0.407-0.035,0.642v0.734c0,0.18,0.008,0.377,0.023,0.594L120.176,108.322z
		 M116.956,104.508h-1.726c-0.412,0-0.736,0.019-0.969,0.057v-0.676c0.226,0.038,0.548,0.057,0.969,0.057h1.726
		c-0.008-0.294-0.027-0.52-0.058-0.676h0.782c-0.039,0.211-0.059,0.438-0.059,0.676h1.983c0.411,0,0.73-0.019,0.956-0.057v0.676
		c-0.233-0.038-0.553-0.057-0.956-0.057h-1.983v0.792h2.507c0.404,0,0.721-0.02,0.946-0.058v0.688
		c-0.25-0.039-0.564-0.059-0.946-0.059h-5.495c-0.364,0-0.679,0.02-0.943,0.059v-0.688c0.226,0.038,0.544,0.058,0.956,0.058h2.31
		V104.508z M115.324,106.957v0.91h4.129v-0.91H115.324z M119.372,108.393h-1.762c0.356,0.396,0.762,0.742,1.214,1.038
		c0.543-0.312,0.972-0.65,1.282-1.016C119.982,108.4,119.737,108.393,119.372,108.393z"/>
	<path d="M127.071,102.103l0.922,0.129c-0.055,0.156-0.116,0.404-0.187,0.746c-0.07,0.335-0.175,0.759-0.314,1.272
		c0.823-0.07,1.52-0.199,2.088-0.384l0.035,0.804c-0.087,0.016-0.222,0.038-0.408,0.07c-0.521,0.117-1.159,0.199-1.913,0.245
		c-0.343,1.182-0.775,2.318-1.296,3.407c-0.226,0.451-0.501,0.96-0.828,1.527c-0.039,0.063-0.083,0.138-0.135,0.228
		c-0.05,0.089-0.083,0.146-0.099,0.169l-0.793-0.466c0.342-0.429,0.715-1.034,1.119-1.82c0.499-0.98,0.903-1.984,1.214-3.011
		c-0.388,0.016-0.677,0.024-0.863,0.024c-0.069,0-0.202-0.003-0.396-0.006c-0.194-0.005-0.319-0.006-0.374-0.006
		c-0.086-0.008-0.171-0.013-0.256-0.013h-0.151l0.011-0.805c0.35,0.063,0.813,0.094,1.39,0.094c0.077,0,0.219-0.002,0.426-0.006
		c0.204-0.004,0.344-0.006,0.413-0.006C126.916,103.449,127.048,102.718,127.071,102.103z M133.967,110.491l-0.433,0.794
		c-0.489-0.606-1.17-1.135-2.041-1.586c0.016,0.123,0.023,0.248,0.023,0.372c0,0.6-0.191,1.062-0.572,1.383
		c-0.381,0.323-0.929,0.484-1.645,0.484c-0.699,0-1.254-0.151-1.662-0.456c-0.409-0.302-0.613-0.715-0.613-1.235
		c0-0.312,0.099-0.603,0.298-0.875c0.198-0.272,0.461-0.475,0.788-0.607c0.396-0.171,0.854-0.256,1.376-0.256
		c0.374,0,0.766,0.058,1.179,0.176c-0.055-0.709-0.082-1.241-0.082-1.6c0-0.396,0.039-0.773,0.117-1.131l0.793,0.081
		c-0.102,0.374-0.152,0.734-0.152,1.085c0,0.638,0.043,1.229,0.129,1.773c0.917,0.404,1.68,0.874,2.287,1.411
		C133.842,110.391,133.912,110.453,133.967,110.491z M130.723,109.431c-0.436-0.155-0.867-0.234-1.294-0.234
		c-0.498,0-0.893,0.096-1.185,0.286c-0.292,0.191-0.438,0.445-0.438,0.765c0,0.295,0.132,0.528,0.396,0.699
		c0.265,0.173,0.627,0.257,1.086,0.257c0.505,0,0.875-0.104,1.108-0.31c0.233-0.205,0.35-0.526,0.35-0.962L130.723,109.431z
		 M133.943,105.324l-0.42,0.699c-0.949-0.653-1.98-1.183-3.092-1.587l0.432-0.652C132.053,104.258,133.08,104.771,133.943,105.324z"
		/>
	<path d="M138.471,102.477l0.921-0.163c0.022,0.389,0.125,0.982,0.303,1.778c0.18,0.798,0.369,1.492,0.572,2.083
		c0.482-0.201,1.423-0.548,2.823-1.038c0.357-0.132,0.606-0.236,0.746-0.315l0.35,0.888c-1.042,0.24-2.212,0.617-3.511,1.132
		c-0.996,0.404-1.721,0.809-2.176,1.213s-0.683,0.848-0.683,1.33c0,0.528,0.245,0.905,0.734,1.131
		c0.49,0.226,1.308,0.339,2.451,0.339c1.478,0,2.59-0.133,3.336-0.396l0.093,0.968c-0.147,0-0.436,0.024-0.861,0.071
		c-1.044,0.1-1.903,0.151-2.579,0.151c-1.166,0-2.03-0.105-2.591-0.316c-0.964-0.35-1.446-0.987-1.446-1.913
		c0-0.762,0.346-1.423,1.038-1.982c0.405-0.334,0.914-0.652,1.528-0.957c-0.311-0.895-0.595-1.979-0.851-3.256
		C138.598,102.882,138.532,102.633,138.471,102.477z M142.343,102.582l0.607-0.269c0.396,0.514,0.758,1.077,1.084,1.69l-0.618,0.293
		C143.074,103.589,142.717,103.019,142.343,102.582z M143.533,102.092l0.606-0.268c0.343,0.412,0.704,0.975,1.085,1.69l-0.618,0.292
		C144.264,103.107,143.906,102.535,143.533,102.092z"/>
</g>
<g>
	<path d="M42.167,87.064l0.355-0.438c0.554,0.33,1.095,0.733,1.623,1.213l-0.364,0.522C43.266,87.839,42.728,87.405,42.167,87.064z
		 M43.717,89.286l0.484,0.363c-0.392,0.983-0.799,1.83-1.223,2.538c-0.036,0.045-0.102,0.156-0.195,0.336l-0.541-0.494
		C42.733,91.531,43.225,90.616,43.717,89.286z M42.605,84.786l0.383-0.419c0.554,0.367,1.073,0.799,1.559,1.297l-0.383,0.485
		C43.723,85.646,43.203,85.191,42.605,84.786z M49.69,88.865h-2.156c0.292,0.729,0.688,1.346,1.185,1.853
		c0.499,0.508,1.129,0.936,1.896,1.284c-0.156,0.186-0.281,0.389-0.374,0.605c-0.797-0.447-1.439-0.943-1.927-1.488
		c-0.489-0.544-0.879-1.199-1.171-1.964c-0.175,0.733-0.475,1.388-0.897,1.959c-0.422,0.554-1.063,1.073-1.922,1.559
		c-0.093-0.175-0.23-0.349-0.411-0.521c0.491-0.237,0.891-0.473,1.2-0.71c0.307-0.235,0.576-0.516,0.807-0.84
		c0.323-0.467,0.557-1.046,0.7-1.736H45.49c-0.412,0-0.738,0.018-0.98,0.057v-0.653c0.242,0.038,0.565,0.056,0.971,0.056h1.232
		c0.067-0.511,0.112-1.172,0.13-1.988h-1.007c-0.404,0-0.707,0.016-0.906,0.047v-0.635c0.212,0.031,0.514,0.047,0.906,0.047h1.007
		v-0.663c0-0.342-0.021-0.647-0.065-0.914h0.71c-0.045,0.267-0.065,0.572-0.065,0.914v0.663h1.521c0.386,0,0.662-0.013,0.831-0.037
		c-0.025,0.182-0.038,0.441-0.038,0.783v1.783h0.094c0.268,0,0.534-0.018,0.802-0.056v0.653
		C50.371,88.883,50.057,88.865,49.69,88.865z M47.292,88.324h1.865v-1.988h-1.745C47.406,87.095,47.365,87.758,47.292,88.324z"/>
	<path d="M56.083,89.015l0.393,0.383c-0.355,0.323-0.7,0.595-1.037,0.813c0.269,0.285,0.622,0.585,1.064,0.896
		c-0.074,0.063-0.141,0.125-0.196,0.186c-0.106,0.113-0.178,0.188-0.214,0.226c-0.386-0.3-0.701-0.583-0.943-0.854
		c-0.243-0.271-0.466-0.59-0.672-0.957c-0.112-0.21-0.232-0.488-0.364-0.83c-0.18,0.268-0.332,0.47-0.456,0.607v2.043
		c0.472-0.161,0.926-0.343,1.362-0.541l0.027,0.521c-0.703,0.313-1.437,0.583-2.202,0.813c-0.032,0.014-0.091,0.031-0.179,0.057
		c-0.086,0.024-0.165,0.048-0.237,0.07c-0.072,0.021-0.123,0.039-0.154,0.052l-0.14-0.579c0.217-0.025,0.541-0.1,0.971-0.225v-1.661
		c-0.41,0.354-0.855,0.673-1.334,0.952c-0.075-0.169-0.182-0.323-0.317-0.467c0.535-0.248,1.008-0.554,1.418-0.915
		c0.262-0.218,0.514-0.49,0.757-0.822h-0.98c-0.336,0-0.609,0.017-0.821,0.048V88.24c0.188,0.031,0.46,0.047,0.821,0.047h1.316
		v-0.261c0-0.175-0.017-0.355-0.047-0.542h0.635c-0.031,0.143-0.047,0.324-0.047,0.542v0.261h1.289c0.347,0,0.621-0.016,0.819-0.047
		v0.588c-0.224-0.031-0.498-0.048-0.819-0.048h-1.233c0.174,0.431,0.374,0.792,0.598,1.085
		C55.52,89.609,55.827,89.325,56.083,89.015z M58.799,87.857l0.578,0.253c-0.068,0.13-0.14,0.288-0.214,0.475
		c-0.299,0.716-0.635,1.345-1.009,1.886c0.181,0.429,0.374,0.788,0.579,1.073c0.18,0.249,0.32,0.383,0.421,0.401
		c0.062-0.031,0.14-0.158,0.231-0.382c0.063-0.188,0.135-0.509,0.216-0.962c0.174,0.188,0.336,0.316,0.485,0.393
		c-0.118,0.56-0.239,0.958-0.364,1.193c-0.155,0.274-0.337,0.411-0.541,0.411c-0.423,0-0.894-0.544-1.41-1.634
		c-0.541,0.667-1.181,1.238-1.922,1.719c-0.125-0.169-0.279-0.314-0.467-0.439c0.84-0.473,1.559-1.086,2.155-1.838
		c-0.304-0.804-0.509-1.845-0.615-3.127H52.49c-0.343,0-0.654,0.019-0.935,0.056V86.71c0.263,0.037,0.573,0.056,0.935,0.056h1.475
		v-0.988h-0.953c-0.36,0-0.641,0.015-0.839,0.045v-0.588c0.198,0.031,0.479,0.047,0.839,0.047h0.953v-0.13
		c0-0.355-0.019-0.622-0.057-0.804h0.662c-0.043,0.225-0.064,0.494-0.064,0.813v0.121h0.906c0.366,0,0.643-0.016,0.83-0.047v0.588
		c-0.199-0.03-0.477-0.045-0.83-0.045h-0.906v0.988h2.38c-0.024-0.498-0.041-1.073-0.047-1.727c0-0.268-0.019-0.499-0.056-0.691
		h0.681c-0.037,0.156-0.056,0.448-0.056,0.878c0,0.404,0.013,0.918,0.038,1.54h1.521c0.372,0,0.684-0.019,0.933-0.056v0.625
		c-0.262-0.037-0.572-0.056-0.933-0.056h-1.494c0.087,1.032,0.236,1.894,0.447,2.586C58.419,89.104,58.712,88.436,58.799,87.857z
		 M57.828,84.955l0.43-0.271c0.473,0.479,0.871,0.97,1.195,1.474l-0.448,0.318C58.687,85.935,58.295,85.428,57.828,84.955z"/>
</g>
<g>
	<path d="M83.892,91.787v-6.571c0-0.235-0.009-0.472-0.028-0.709c0.137,0.02,0.345,0.027,0.625,0.027h1.278
		c0.255,0,0.445-0.012,0.57-0.036l0.289,0.336c-0.056,0.111-0.103,0.211-0.141,0.298c-0.306,0.767-0.629,1.481-0.97,2.147
		c0.392,0.473,0.65,0.874,0.774,1.203c0.136,0.361,0.204,0.734,0.204,1.12c0,0.511-0.163,0.813-0.494,0.905
		c-0.187,0.051-0.43,0.075-0.728,0.075c-0.106,0-0.214-0.003-0.327-0.011c-0.023-0.21-0.07-0.409-0.14-0.596
		c0.218,0.043,0.42,0.064,0.606,0.064c0.212,0,0.35-0.03,0.416-0.093c0.065-0.062,0.099-0.196,0.099-0.401
		c0-0.447-0.113-0.871-0.337-1.27c-0.125-0.23-0.36-0.538-0.71-0.924c0.412-0.759,0.754-1.523,1.027-2.295H84.46v6.729
		c0,0.354,0.016,0.644,0.047,0.868h-0.671C83.872,92.399,83.892,92.11,83.892,91.787z M87.95,88.792h-0.447
		c-0.354,0-0.638,0.018-0.849,0.056v-0.616c0.242,0.037,0.528,0.056,0.857,0.056h3.51c0.348,0,0.645-0.019,0.888-0.056v0.616
		c-0.263-0.038-0.558-0.056-0.888-0.056h-0.933v2.93c0,0.099,0.042,0.163,0.126,0.191c0.084,0.026,0.269,0.042,0.555,0.042
		c0.324,0,0.516-0.061,0.579-0.182c0.063-0.122,0.114-0.55,0.157-1.285c0.175,0.113,0.362,0.191,0.562,0.234
		c-0.025,0.299-0.048,0.534-0.071,0.705c-0.021,0.171-0.053,0.333-0.098,0.485c-0.043,0.153-0.088,0.261-0.134,0.321
		c-0.048,0.063-0.123,0.118-0.225,0.169c-0.103,0.049-0.21,0.078-0.323,0.089c-0.111,0.009-0.264,0.014-0.457,0.014
		c-0.41,0-0.699-0.021-0.867-0.065c-0.144-0.037-0.243-0.093-0.299-0.168c-0.056-0.074-0.084-0.19-0.084-0.346v-3.135H88.53
		c-0.038,0.651-0.106,1.159-0.205,1.521c-0.101,0.361-0.259,0.697-0.477,1.008c-0.387,0.521-1.049,0.967-1.989,1.335
		c-0.142-0.213-0.282-0.376-0.419-0.495c0.591-0.199,1.034-0.396,1.33-0.593c0.295-0.195,0.54-0.453,0.732-0.77
		c0.148-0.242,0.256-0.506,0.318-0.788C87.882,89.727,87.926,89.32,87.95,88.792z M88.772,85.271v-0.373
		c0-0.274-0.019-0.507-0.056-0.699h0.71c-0.038,0.168-0.058,0.404-0.058,0.71v0.362h1.578c0.316,0,0.616-0.014,0.896-0.046
		c-0.018,0.193-0.027,0.392-0.027,0.597v0.617c0,0.229,0.013,0.441,0.037,0.634h-0.606v-1.278H87.13v1.26h-0.58
		c0.021-0.161,0.029-0.373,0.029-0.634v-0.607c0-0.224-0.009-0.419-0.029-0.588c0.275,0.032,0.604,0.046,0.991,0.046H88.772z
		 M87.419,87.324v-0.577c0.199,0.024,0.435,0.037,0.71,0.037h2.155c0.262,0,0.492-0.013,0.69-0.037v0.577
		c-0.218-0.023-0.448-0.035-0.69-0.035h-2.165C87.845,87.289,87.611,87.301,87.419,87.324z"/>
	<path d="M97.126,85.151V84.73c0-0.211-0.019-0.417-0.056-0.615h0.719c-0.037,0.161-0.057,0.367-0.057,0.615v0.421h2.492
		c0.43,0,0.765-0.02,1.008-0.058v0.664c-0.249-0.031-0.589-0.048-1.018-0.048h-5.89c-0.013,2.191-0.082,3.698-0.21,4.522
		c-0.127,0.825-0.418,1.598-0.872,2.32c-0.168-0.182-0.34-0.324-0.513-0.43c0.211-0.33,0.367-0.617,0.471-0.863
		c0.103-0.246,0.188-0.534,0.257-0.863c0.167-0.784,0.252-2.029,0.252-3.734c0-0.758-0.013-1.278-0.037-1.558
		c0.329,0.031,0.65,0.047,0.961,0.047H97.126z M97.62,87.755h-1.922c-0.374,0-0.679,0.016-0.915,0.047v-0.653
		c0.188,0.03,0.495,0.047,0.924,0.047h4.583c0.386,0,0.706-0.02,0.962-0.056v0.671c-0.263-0.036-0.58-0.056-0.953-0.056h-2.053
		v4.014c0,0.316-0.067,0.524-0.201,0.621c-0.135,0.095-0.425,0.145-0.872,0.145c-0.349,0-0.676-0.013-0.98-0.037
		c-0.02-0.218-0.065-0.435-0.14-0.645c0.392,0.056,0.774,0.084,1.147,0.084c0.181,0,0.296-0.016,0.346-0.048
		c0.049-0.029,0.074-0.102,0.074-0.214V87.755z"/>
	<path d="M105.862,85.356h-2.474c-0.398,0-0.762,0.019-1.093,0.056v-0.69c0.306,0.038,0.668,0.056,1.093,0.056h6.048
		c0.404,0,0.766-0.018,1.082-0.056v0.69c-0.324-0.037-0.684-0.056-1.082-0.056h-2.931v1.064c0.92,0.46,1.557,0.793,1.908,0.997
		c0.353,0.207,0.82,0.511,1.405,0.915l-0.364,0.579c-0.565-0.441-1.226-0.878-1.979-1.307c-0.131-0.081-0.455-0.252-0.971-0.513
		v4.396c0,0.455,0.021,0.82,0.065,1.102h-0.775c0.043-0.281,0.066-0.646,0.066-1.102V85.356z"/>
	<path d="M118.872,86.354h-0.746c-0.182,0.604-0.371,1.114-0.57,1.531c-0.342,0.716-0.8,1.381-1.372,1.997
		c0.485,0.448,1.049,0.849,1.69,1.204c0.64,0.349,1.362,0.631,2.164,0.85c-0.174,0.174-0.311,0.379-0.409,0.616
		c-1.557-0.511-2.848-1.257-3.874-2.24c-1.095,1.014-2.398,1.758-3.91,2.23c-0.094-0.206-0.225-0.398-0.392-0.578
		c1.523-0.418,2.814-1.107,3.872-2.073c-0.44-0.478-0.818-0.989-1.13-1.53c-0.311-0.51-0.6-1.179-0.867-2.007h-0.69
		c-0.41,0-0.756,0.02-1.035,0.057v-0.663c0.267,0.044,0.614,0.065,1.044,0.065h2.679v-0.729c0-0.311-0.021-0.578-0.065-0.802h0.747
		c-0.044,0.212-0.065,0.477-0.065,0.793v0.737h2.912c0.447,0,0.802-0.021,1.064-0.065v0.663
		C119.655,86.374,119.308,86.354,118.872,86.354z M117.444,86.354h-3.472c0.211,0.69,0.466,1.285,0.765,1.782
		c0.28,0.455,0.62,0.899,1.018,1.336C116.533,88.619,117.096,87.58,117.444,86.354z"/>
</g>
<g>
	<path d="M63.194,40.845v-6.571c0-0.235-0.009-0.473-0.028-0.709c0.137,0.02,0.345,0.028,0.625,0.028h1.279
		c0.254,0,0.445-0.013,0.569-0.038l0.289,0.337c-0.056,0.11-0.103,0.211-0.14,0.298c-0.306,0.766-0.629,1.481-0.971,2.146
		c0.392,0.475,0.65,0.875,0.775,1.204c0.136,0.362,0.204,0.735,0.204,1.12c0,0.511-0.164,0.813-0.495,0.906
		c-0.186,0.05-0.429,0.074-0.728,0.074c-0.105,0-0.214-0.003-0.327-0.01c-0.023-0.21-0.07-0.41-0.139-0.597
		c0.217,0.043,0.419,0.064,0.606,0.064c0.212,0,0.349-0.03,0.416-0.093c0.064-0.062,0.098-0.196,0.098-0.4
		c0-0.448-0.112-0.872-0.336-1.271c-0.126-0.23-0.361-0.537-0.71-0.924c0.411-0.759,0.753-1.524,1.026-2.296h-1.447v6.729
		c0,0.354,0.017,0.644,0.047,0.868h-0.671C63.175,41.457,63.194,41.169,63.194,40.845z M67.254,37.85h-0.448
		c-0.354,0-0.638,0.018-0.849,0.056v-0.616c0.243,0.038,0.529,0.056,0.858,0.056h3.509c0.349,0,0.646-0.018,0.888-0.056v0.616
		c-0.262-0.038-0.557-0.056-0.888-0.056h-0.933v2.93c0,0.1,0.042,0.163,0.127,0.191c0.084,0.027,0.268,0.043,0.554,0.043
		c0.324,0,0.516-0.063,0.579-0.183c0.063-0.122,0.115-0.549,0.158-1.284c0.175,0.112,0.361,0.19,0.561,0.234
		c-0.024,0.298-0.048,0.533-0.07,0.704c-0.021,0.171-0.054,0.333-0.099,0.485c-0.042,0.152-0.087,0.26-0.134,0.321
		c-0.047,0.063-0.122,0.119-0.225,0.169c-0.103,0.049-0.209,0.078-0.322,0.089c-0.111,0.009-0.265,0.014-0.457,0.014
		c-0.41,0-0.699-0.022-0.868-0.065c-0.144-0.037-0.242-0.093-0.299-0.168c-0.055-0.074-0.084-0.19-0.084-0.346V37.85h-0.979
		c-0.038,0.652-0.106,1.159-0.205,1.521c-0.101,0.361-0.259,0.697-0.477,1.008c-0.386,0.522-1.048,0.968-1.988,1.335
		c-0.143-0.212-0.282-0.376-0.419-0.495c0.59-0.198,1.033-0.396,1.329-0.592c0.295-0.196,0.54-0.453,0.732-0.771
		c0.149-0.242,0.256-0.506,0.318-0.788C67.185,38.783,67.229,38.378,67.254,37.85z M68.076,34.33v-0.374
		c0-0.273-0.02-0.507-0.057-0.7h0.71c-0.037,0.17-0.057,0.405-0.057,0.711v0.363h1.578c0.315,0,0.616-0.015,0.896-0.047
		c-0.019,0.193-0.028,0.392-0.028,0.598v0.615c0,0.23,0.013,0.442,0.037,0.635h-0.606v-1.278h-4.116v1.261h-0.579
		c0.02-0.162,0.028-0.374,0.028-0.635v-0.607c0-0.224-0.009-0.419-0.028-0.588c0.274,0.032,0.604,0.047,0.99,0.047H68.076z
		 M66.722,36.383v-0.578c0.199,0.024,0.436,0.037,0.71,0.037h2.155c0.263,0,0.492-0.013,0.69-0.037v0.578
		c-0.217-0.023-0.447-0.036-0.69-0.036h-2.165C67.148,36.347,66.914,36.359,66.722,36.383z"/>
	<path d="M72.378,41.405V40.76c0.256,0.038,0.567,0.057,0.934,0.057h6.17c0.359,0,0.672-0.019,0.933-0.057v0.646
		c-0.249-0.038-0.561-0.056-0.933-0.056h-6.17C72.958,41.35,72.645,41.367,72.378,41.405z M76.008,34.181v-0.336
		c0-0.181-0.021-0.376-0.064-0.589h0.737c-0.043,0.182-0.064,0.374-0.064,0.579v0.346h2.752c0.355,0,0.666-0.013,0.935-0.038
		c-0.025,0.182-0.038,0.396-0.038,0.646v0.504c0,0.267,0.013,0.488,0.038,0.662h-0.616v-1.25h-6.57v1.25h-0.617
		c0.025-0.174,0.038-0.393,0.038-0.653v-0.523c0-0.248-0.013-0.46-0.038-0.635c0.268,0.025,0.579,0.038,0.934,0.038H76.008z
		 M79.295,35.422v0.598c-0.213-0.031-0.486-0.047-0.822-0.047h-4.106c-0.335,0-0.61,0.016-0.821,0.047v-0.598
		c0.193,0.031,0.467,0.047,0.821,0.047h4.106C78.827,35.469,79.102,35.453,79.295,35.422z M73.703,39.295v-1.866
		c0-0.298-0.013-0.548-0.037-0.745c0.205,0.022,0.491,0.035,0.859,0.035h3.761c0.367,0,0.653-0.013,0.858-0.035
		c-0.024,0.197-0.037,0.447-0.037,0.745v1.866c0,0.306,0.013,0.554,0.037,0.747c-0.255-0.024-0.544-0.036-0.867-0.036h-3.743
		c-0.33,0-0.62,0.012-0.868,0.036C73.69,39.849,73.703,39.601,73.703,39.295z M78.528,37.205h-4.246v0.876h4.246V37.205z
		 M78.528,38.577h-4.246v0.942h4.246V38.577z"/>
</g>
<g>
	<path d="M104.892,36.625l0.419,0.326c-0.273,0.455-0.513,0.816-0.718,1.083c0.187,0.187,0.389,0.36,0.605,0.522
		c-0.124,0.144-0.227,0.297-0.307,0.458c-0.399-0.374-0.729-0.747-0.991-1.121c0,0.105,0.003,0.219,0.005,0.336
		c0.004,0.119,0.007,0.209,0.011,0.271c0.002,0.063,0.004,0.106,0.004,0.131v2.155c0,0.41,0.019,0.734,0.057,0.971h-0.654
		c0.037-0.249,0.057-0.569,0.057-0.961v-1.998c0-0.111,0.01-0.42,0.027-0.924c-0.268,0.361-0.597,0.72-0.988,1.074
		c-0.063-0.176-0.162-0.346-0.299-0.514c1.026-0.84,1.761-1.859,2.202-3.061h-1.231c-0.269,0-0.52,0.014-0.757,0.047v-0.607
		c0.156,0.031,0.398,0.047,0.729,0.047h0.317v-0.896c0-0.269-0.016-0.505-0.047-0.71h0.635c-0.031,0.218-0.047,0.451-0.047,0.699
		v0.906h0.41c0.199,0,0.346-0.01,0.439-0.028l0.262,0.326c-0.031,0.038-0.081,0.137-0.149,0.299
		c-0.274,0.61-0.598,1.192-0.971,1.745c0.117,0.187,0.242,0.355,0.373,0.505C104.489,37.422,104.691,37.062,104.892,36.625z
		 M106.002,39.583v1.214c0,0.424,0.015,0.744,0.047,0.961h-0.653c0.037-0.273,0.055-0.591,0.055-0.951v-4.107
		c0-0.398-0.013-0.693-0.037-0.886c0.199,0.03,0.496,0.047,0.888,0.047h1.176v-0.935h-1.605c-0.286,0-0.532,0.013-0.737,0.038
		v-0.606c0.187,0.03,0.438,0.047,0.756,0.047h1.587v-0.299c0-0.311-0.019-0.595-0.056-0.85h0.661
		c-0.036,0.26-0.056,0.548-0.056,0.858v0.29h1.689c0.317,0,0.592-0.02,0.822-0.056v0.615c-0.193-0.025-0.472-0.038-0.831-0.038
		h-1.681v0.935h1.362c0.412,0,0.707-0.017,0.889-0.047c-0.025,0.192-0.038,0.494-0.038,0.904v4.201c0,0.255-0.06,0.429-0.179,0.521
		c-0.085,0.081-0.307,0.122-0.662,0.122c-0.143,0-0.354-0.009-0.636-0.028c-0.022-0.224-0.073-0.42-0.148-0.589
		c0.368,0.045,0.645,0.066,0.831,0.066c0.1,0,0.165-0.015,0.196-0.042c0.031-0.028,0.046-0.093,0.046-0.191v-1.195h-1.661v1.233
		c0,0.347,0.013,0.621,0.038,0.819h-0.626c0.025-0.191,0.038-0.462,0.038-0.81v-1.243H106.002z M106.002,37.446h1.475v-1.092h-1.475
		V37.446z M106.002,39.098h1.475v-1.166h-1.475V39.098z M108.026,37.446h1.661v-1.092h-1.661V37.446z M108.026,39.098h1.661v-1.166
		h-1.661V39.098z M110.005,33.938l-0.383,0.354c-0.379-0.298-0.771-0.55-1.175-0.756l0.383-0.317
		C109.253,33.43,109.645,33.669,110.005,33.938z"/>
	<path d="M113.263,35.495v5.115c0,0.386,0.016,0.749,0.047,1.092h-0.69c0.036-0.336,0.056-0.712,0.056-1.129v-3.099
		c0-0.399,0.013-0.775,0.038-1.129c-0.293,0.528-0.62,1.01-0.98,1.445c-0.149-0.248-0.283-0.419-0.402-0.513
		c0.716-0.796,1.282-1.681,1.699-2.651c0.242-0.578,0.396-1.078,0.458-1.503l0.662,0.207c-0.038,0.067-0.108,0.245-0.214,0.532
		C113.698,34.516,113.475,35.061,113.263,35.495z M115.671,37.568h2.828c0.448,0,0.771-0.017,0.971-0.047v0.635
		c-0.187-0.031-0.511-0.047-0.971-0.047h-0.99v2.641h1.578c0.329,0,0.647-0.019,0.951-0.056v0.644
		c-0.192-0.03-0.517-0.047-0.971-0.047h-3.9c-0.442,0-0.771,0.017-0.989,0.047v-0.644c0.28,0.037,0.609,0.056,0.989,0.056h1.754
		v-2.641h-1.512c-0.212,0.404-0.413,0.751-0.606,1.04s-0.461,0.642-0.803,1.06c-0.137-0.154-0.308-0.289-0.513-0.401
		c0.541-0.566,1.001-1.204,1.381-1.914c0.349-0.64,0.641-1.359,0.877-2.155h-0.924c-0.467,0-0.796,0.016-0.988,0.047v-0.653
		c0.272,0.037,0.603,0.057,0.988,0.057h1.073c0.205-0.878,0.317-1.521,0.337-1.933l0.689,0.093c-0.073,0.294-0.12,0.491-0.14,0.598
		c-0.105,0.536-0.196,0.948-0.271,1.242h2.445c0.404,0,0.737-0.02,0.999-0.057v0.653c-0.262-0.031-0.592-0.047-0.99-0.047h-2.612
		C116.184,36.33,115.957,36.939,115.671,37.568z"/>
</g>
<g>
	<path d="M9.244,85.002h2.745c0.428,0,0.768-0.019,1.018-0.057v0.606c-0.243-0.03-0.577-0.046-1-0.046H9.104
		c-0.087,0.286-0.175,0.535-0.261,0.746h2.781c0.447,0,0.771-0.013,0.971-0.037v0.561c-0.193-0.025-0.517-0.038-0.971-0.038h-1.428
		c0.187,0.331,0.357,0.604,0.512,0.821h1.625c0.436,0,0.774-0.018,1.018-0.057v0.616c-0.293-0.036-0.633-0.056-1.018-0.056H11.14
		c0.354,0.36,0.71,0.662,1.068,0.905c0.357,0.243,0.81,0.485,1.357,0.729c-0.174,0.174-0.314,0.348-0.42,0.522
		c-1.107-0.591-1.997-1.311-2.668-2.156H7.826c-0.685,0.884-1.513,1.615-2.482,2.194c-0.044-0.137-0.188-0.299-0.43-0.485
		c0.902-0.461,1.648-1.03,2.239-1.709H6.063c-0.411,0-0.76,0.02-1.046,0.056v-0.616c0.192,0.039,0.538,0.057,1.037,0.057h1.492
		c0.155-0.224,0.32-0.498,0.494-0.821H6.781c-0.448,0-0.764,0.013-0.943,0.038v-0.561c0.192,0.024,0.507,0.037,0.943,0.037h1.483
		c0.099-0.235,0.19-0.485,0.271-0.746H6.435c-0.417,0-0.746,0.016-0.989,0.046v-0.606c0.249,0.038,0.585,0.057,1.009,0.057h2.221
		c0.075-0.336,0.112-0.62,0.112-0.851l0.645,0.038C9.381,84.364,9.338,84.547,9.3,84.74c-0.005,0.02-0.014,0.056-0.022,0.113
		C9.269,84.909,9.257,84.957,9.244,85.002z M11.382,90.564H9.571c0.386,0.454,0.934,0.809,1.644,1.064
		c0.435,0.162,1.06,0.295,1.875,0.4c-0.167,0.205-0.29,0.401-0.363,0.588c-0.922-0.18-1.652-0.41-2.193-0.69
		c-0.611-0.316-1.105-0.716-1.484-1.195c-0.212,0.386-0.511,0.717-0.896,0.99c-0.586,0.41-1.4,0.719-2.446,0.924
		c-0.074-0.205-0.186-0.392-0.335-0.561c0.833-0.106,1.509-0.292,2.024-0.56c0.541-0.293,0.915-0.613,1.12-0.961H7.061
		c-0.316,0-0.581,0.016-0.793,0.047v-0.57c0.187,0.031,0.451,0.047,0.793,0.047h1.651c0.051-0.199,0.088-0.464,0.114-0.793H8.097
		c-0.299,0-0.551,0.016-0.756,0.047V88.78c0.18,0.032,0.433,0.048,0.756,0.048h2.212c0.317,0,0.569-0.016,0.757-0.048v0.562
		c-0.212-0.031-0.464-0.047-0.757-0.047H9.422c-0.024,0.306-0.065,0.57-0.122,0.793h2.082c0.349,0,0.616-0.016,0.803-0.047v0.57
		C11.967,90.58,11.7,90.564,11.382,90.564z M9.655,86.737H8.638c-0.155,0.305-0.308,0.578-0.457,0.821h1.932
		C9.964,87.328,9.811,87.055,9.655,86.737z"/>
	<path d="M18.699,87.839v3.78h3.052c0.381,0,0.728-0.02,1.046-0.056v0.709c-0.331-0.044-0.678-0.065-1.046-0.065h-6.216
		c-0.404,0-0.771,0.021-1.102,0.065v-0.709c0.305,0.036,0.673,0.056,1.102,0.056h2.502v-6.301c0-0.342-0.021-0.666-0.065-0.971
		h0.793c-0.043,0.299-0.065,0.623-0.065,0.971v1.913h2.361c0.379,0,0.703-0.018,0.971-0.056v0.719
		c-0.293-0.037-0.615-0.056-0.971-0.056H18.699z"/>
</g>
<rect x="12.751" y="0.5" fill="none" stroke="#231815" stroke-miterlimit="10" width="132.61" height="19.055"/>
<polyline fill="none" stroke="#231815" stroke-miterlimit="10" points="106.044,58.25 97.723,58.25 97.723,80.609 148.667,80.609 
	148.667,58.25 140.646,58.25 "/>
<g>
	<path d="M23.37,53.107v-0.32c0-0.485-0.033-0.873-0.098-1.162h1.007c-0.065,0.316-0.099,0.704-0.099,1.162v0.32h1.388
		c0.541,0,0.955-0.022,1.244-0.068v0.895c-0.316-0.046-0.732-0.068-1.244-0.068h-1.388v1.342h0.98c0.589,0,1.017-0.018,1.288-0.055
		c-0.028,0.168-0.042,0.583-0.042,1.246v2.227c0,0.625,0.014,1.063,0.042,1.315c-0.308-0.037-0.737-0.056-1.288-0.056h-0.993v1.316
		h1.203c0.533,0,0.942-0.024,1.232-0.071v0.924c-0.316-0.047-0.728-0.069-1.232-0.069h-1.203v1.078c0,0.523,0.037,0.946,0.111,1.273
		h-1.007c0.056-0.261,0.082-0.686,0.082-1.273v-1.078h-1.609c-0.523,0-0.942,0.022-1.26,0.069V61.13
		c0.289,0.047,0.71,0.071,1.26,0.071h1.609v-1.316h-0.908c-0.506,0-0.939,0.019-1.303,0.056c0.036-0.327,0.056-0.771,0.056-1.331
		v-2.141c0-0.514-0.02-0.952-0.056-1.316c0.308,0.037,0.742,0.055,1.303,0.055h0.924v-1.342h-1.498
		c-0.552,0-0.972,0.022-1.261,0.068v-0.895c0.28,0.046,0.7,0.068,1.261,0.068H23.37z M21.982,57.882v1.274h3.628v-1.274H21.982z
		 M21.997,55.937v1.217h3.626v-1.217H21.997z M31.518,59.534h-3.15c-0.094,0.905-0.229,1.662-0.406,2.268
		c-0.242,0.859-0.676,1.689-1.302,2.492c-0.242-0.243-0.49-0.438-0.741-0.588c0.503-0.615,0.865-1.194,1.084-1.735
		c0.22-0.542,0.381-1.26,0.483-2.156c0.141-1.251,0.211-3.275,0.211-6.076c0-0.793-0.02-1.344-0.058-1.652
		c0.402,0.038,0.85,0.056,1.345,0.056h2.114c0.521,0,0.965-0.018,1.329-0.056c-0.037,0.299-0.055,0.779-0.055,1.442v9.197
		c0,0.541-0.105,0.898-0.316,1.071c-0.209,0.174-0.637,0.259-1.28,0.259c-0.448,0-0.906-0.022-1.372-0.069
		c-0.037-0.336-0.112-0.663-0.225-0.98c0.682,0.121,1.231,0.183,1.652,0.183c0.308,0,0.499-0.03,0.575-0.091
		c0.073-0.061,0.111-0.214,0.111-0.456V59.534z M28.424,58.765h3.094v-2.535h-2.982C28.535,56.902,28.498,57.747,28.424,58.765z
		 M28.549,55.446h2.969v-2.521h-2.969V55.446z"/>
	<path d="M34.892,58.288l0.84-0.335c0.103,0.587,0.41,1.315,0.924,2.184c0.485-0.934,0.821-1.966,1.008-3.095h-1.834
		c-0.131,0-0.305,0.003-0.524,0.007c-0.22,0.005-0.353,0.006-0.398,0.006c0.26-0.344,0.522-0.721,0.783-1.133
		c0.644-0.998,1.171-1.926,1.582-2.785h-1.667c-0.4,0-0.724,0.022-0.966,0.069v-0.91c0.242,0.048,0.569,0.07,0.98,0.07h1.344
		c0.494,0,0.841-0.018,1.037-0.056l0.405,0.531c-0.102,0.168-0.242,0.431-0.42,0.785c-0.411,0.813-0.942,1.698-1.597,2.66h1.135
		c0.485,0,0.854-0.016,1.106-0.043c-0.02,0.132-0.062,0.401-0.126,0.811c-0.216,1.365-0.659,2.639-1.33,3.823
		c0.624,0.775,1.358,1.302,2.197,1.583c0.841,0.279,2.109,0.42,3.808,0.42c1.363,0,2.656-0.065,3.879-0.197
		c-0.149,0.327-0.252,0.659-0.308,0.994c-1.195,0.037-2.451,0.057-3.767,0.057c-1.979,0-3.481-0.243-4.508-0.729
		c-0.636-0.309-1.219-0.779-1.751-1.413c-0.308,0.457-0.602,0.842-0.881,1.154c-0.281,0.313-0.687,0.712-1.219,1.196
		c-0.195-0.279-0.406-0.513-0.63-0.698c0.57-0.486,1.004-0.885,1.303-1.198c0.299-0.312,0.601-0.692,0.909-1.141
		c-0.363-0.541-0.719-1.223-1.063-2.044C35.05,58.629,34.966,58.438,34.892,58.288z M42.102,56.342v-2.729
		c-0.793,0.139-1.704,0.261-2.73,0.363c-0.084-0.299-0.21-0.57-0.378-0.813c2.567-0.158,4.551-0.521,5.949-1.092
		c0.225-0.084,0.421-0.182,0.59-0.294l0.657,0.784c-0.056,0.019-0.174,0.056-0.35,0.111c-0.038,0.011-0.141,0.042-0.308,0.098
		c-0.859,0.29-1.705,0.514-2.535,0.673v2.897h2.255c0.521,0,0.979-0.027,1.371-0.084v0.953c-0.383-0.058-0.835-0.084-1.357-0.084
		h-2.269v3.149h1.792c0.542,0,0.999-0.028,1.372-0.084v0.953c-0.373-0.058-0.827-0.085-1.357-0.085h-4.046
		c-0.523,0-0.985,0.027-1.387,0.085v-0.953c0.363,0.056,0.822,0.084,1.372,0.084h1.358v-3.149h-1.694
		c-0.541,0-1.008,0.026-1.4,0.084v-0.953c0.383,0.057,0.85,0.084,1.4,0.084H42.102z"/>
</g>
<polyline fill="none" stroke="#231815" stroke-miterlimit="10" points="16.738,57.654 0.5,57.654 0.5,115.609 65.057,115.609 
	65.057,57.654 50.729,57.654 "/>
<g>
	<g>
		<polyline fill="none" stroke="#231815" stroke-miterlimit="10" points="59.807,19.555 59.807,72.638 47.004,72.638 		"/>
		<g>
			<path fill="#231815" d="M52.813,68.558c0.127,0.198,0.067,0.461-0.131,0.587l-5.484,3.493l5.484,3.493
				c0.198,0.126,0.258,0.389,0.131,0.587c-0.126,0.197-0.391,0.255-0.587,0.13l-6.048-3.852c-0.121-0.078-0.196-0.213-0.196-0.358
				s0.075-0.28,0.196-0.358l6.048-3.852c0.071-0.045,0.15-0.066,0.228-0.066C52.594,68.361,52.731,68.431,52.813,68.558z"/>
		</g>
	</g>
</g>
<g>
	<g>
		<line fill="none" stroke="#231815" stroke-miterlimit="10" x1="38.924" y1="79.492" x2="38.924" y2="98.74"/>
		<g>
			<path fill="#231815" d="M34.844,92.932c0.198-0.127,0.461-0.067,0.587,0.131l3.493,5.484l3.493-5.484
				c0.126-0.198,0.389-0.258,0.587-0.131c0.197,0.126,0.255,0.391,0.13,0.587l-3.852,6.048c-0.078,0.121-0.213,0.196-0.358,0.196
				s-0.28-0.075-0.358-0.196l-3.852-6.048c-0.045-0.071-0.066-0.149-0.066-0.228C34.647,93.15,34.717,93.013,34.844,92.932z"/>
		</g>
	</g>
</g>
<g>
	<g>
		<line fill="none" stroke="#231815" stroke-miterlimit="10" x1="26.701" y1="99.763" x2="26.701" y2="80.514"/>
		<g>
			<path fill="#231815" d="M30.781,86.324c-0.198,0.126-0.461,0.066-0.587-0.132l-3.493-5.484l-3.493,5.484
				c-0.126,0.198-0.389,0.258-0.587,0.132c-0.197-0.127-0.255-0.392-0.13-0.588l3.852-6.047c0.078-0.123,0.213-0.197,0.358-0.197
				s0.28,0.074,0.358,0.197l3.852,6.047c0.045,0.071,0.066,0.15,0.066,0.229C30.978,86.104,30.908,86.242,30.781,86.324z"/>
		</g>
	</g>
</g>
<g>
	<g>
		<line fill="none" stroke="#231815" stroke-miterlimit="10" x1="123.195" y1="20.545" x2="123.195" y2="48.98"/>
		<g>
			<path fill="#231815" d="M119.115,26.354c0.198,0.127,0.461,0.067,0.587-0.131l3.493-5.484l3.493,5.484
				c0.126,0.198,0.389,0.258,0.587,0.131c0.197-0.126,0.255-0.391,0.13-0.587l-3.852-6.048c-0.078-0.121-0.213-0.196-0.358-0.196
				s-0.28,0.075-0.358,0.196l-3.852,6.048c-0.045,0.071-0.066,0.149-0.066,0.228C118.919,26.135,118.988,26.272,119.115,26.354z"/>
		</g>
	</g>
</g>
<g>
	<g>
		<line fill="none" stroke="#231815" stroke-miterlimit="10" x1="123.195" y1="80.878" x2="123.195" y2="98.74"/>
		<g>
			<path fill="#231815" d="M119.115,92.932c0.198-0.127,0.461-0.067,0.587,0.131l3.493,5.484l3.493-5.484
				c0.126-0.198,0.389-0.258,0.587-0.131c0.197,0.126,0.255,0.391,0.13,0.587l-3.852,6.048c-0.078,0.121-0.213,0.196-0.358,0.196
				s-0.28-0.075-0.358-0.196l-3.852-6.048c-0.045-0.071-0.066-0.149-0.066-0.228C118.919,93.15,118.988,93.013,119.115,92.932z"/>
		</g>
	</g>
</g>
</svg>
