<?xml version="1.0" encoding="utf-8"?>
<!-- Generator: Adobe Illustrator 16.0.0, SVG Export Plug-In . SVG Version: 6.00 Build 0)  -->
<!DOCTYPE svg PUBLIC "-//W3C//DTD SVG 1.1//EN" "http://www.w3.org/Graphics/SVG/1.1/DTD/svg11.dtd">
<svg version="1.1" id="レイヤー_1" xmlns="http://www.w3.org/2000/svg" xmlns:xlink="http://www.w3.org/1999/xlink" x="0px"
	 y="0px" width="149.164px" height="129.415px" viewBox="0 0 149.164 129.415" enable-background="new 0 0 149.164 129.415"
	 xml:space="preserve">
<polyline fill="none" stroke="#000000" stroke-width="0.75" stroke-miterlimit="10" points="79.579,123.778 24.579,123.778 
	24.579,75.111 148.789,75.111 148.789,123.778 94.664,123.778 "/>
<g>
	<path fill="#FFFFFF" stroke="#000000" stroke-width="0.75" stroke-miterlimit="10" d="M115.89,96.319c0,0-9.52-1.556-9.52-15.25
		h19.082l-38.77-14.125l-38.77,14.125h19.083c0,13.694-9.521,15.25-9.521,15.25"/>
</g>
<g>
	<path d="M75.043,86.462c0.884-0.313,1.131-0.416,1.872-0.755v-5.863c0-0.52-0.026-0.909-0.091-1.364h1.001
		c-0.065,0.455-0.091,0.819-0.091,1.364v8.945c0,0.533,0.026,0.896,0.091,1.352h-1.001c0.065-0.455,0.091-0.818,0.091-1.352V86.5
		c-1.157,0.494-1.625,0.677-2.925,1.132c-0.234,0.078-0.299,0.104-0.546,0.195l-0.195-0.858c0.494-0.104,0.676-0.156,0.988-0.247
		v-5.681c0-0.521-0.026-0.897-0.091-1.353h0.988c-0.065,0.455-0.091,0.819-0.091,1.353V86.462z M83.649,79.338
		c0.325,0,0.663-0.014,0.962-0.053c-0.013,0.065-0.013,0.065-0.169,1.105c-0.156,0.936-0.494,2.275-0.806,3.146
		c-0.403,1.117-0.897,2.145-1.482,3.016c0.91,1.183,1.716,1.911,3.159,2.795c-0.234,0.273-0.312,0.403-0.52,0.819
		c-1.352-0.923-2.288-1.781-3.146-2.899c-0.91,1.17-1.872,2.055-3.237,2.951c-0.117-0.273-0.234-0.442-0.546-0.754
		c1.326-0.754,2.314-1.638,3.289-2.899c-0.637-0.987-1.066-1.924-1.417-3.106c-0.325-1.08-0.455-1.795-0.624-3.354
		c-0.403,0-0.637,0.026-0.897,0.065v-0.897c0.351,0.052,0.65,0.065,1.131,0.065H83.649z M79.918,80.105
		c0.13,1.339,0.247,1.976,0.533,2.978c0.313,1.078,0.663,1.885,1.209,2.756c1.014-1.625,1.599-3.328,1.963-5.733H79.918z"/>
	<path d="M93.217,80.665c0.585-0.729,0.988-1.418,1.365-2.38l0.845,0.3c-0.441,0.883-0.793,1.442-1.3,2.08h2.47
		c0.611,0,0.963-0.026,1.34-0.078v0.91c-0.391-0.053-0.793-0.078-1.326-0.078h-2.562c0.481,0.857,0.871,1.403,1.509,2.08
		c0.832,0.871,1.689,1.521,2.808,2.105c-0.247,0.286-0.377,0.48-0.521,0.819c-0.676-0.442-1.027-0.702-1.572-1.171
		c-0.014,0.248-0.014,0.391-0.014,0.638v3.029h0.715c0.533,0,0.793-0.013,1.08-0.065v0.885c-0.365-0.039-0.677-0.053-1.17-0.053
		h-9.322c-0.494,0-0.871,0.026-1.196,0.078v-0.91c0.273,0.065,0.507,0.078,1.001,0.078h0.781v-3.029c0-0.299,0-0.402-0.014-0.65
		c-0.481,0.404-0.845,0.664-1.573,1.105c-0.169-0.338-0.299-0.533-0.507-0.728c2.027-1.066,3.303-2.366,4.146-4.212h-2.392
		c-0.546,0-0.949,0.025-1.326,0.078v-0.91c0.351,0.052,0.728,0.078,1.326,0.078H93.217z M91.072,81.418
		c-0.649,1.455-1.299,2.353-2.418,3.393c0.313,0.014,0.508,0.014,0.858,0.014h5.447c0.272,0,0.481,0,0.806-0.014
		c-1.131-1.066-1.807-1.963-2.561-3.393H91.072z M89.59,78.246c0.585,0.677,0.923,1.157,1.378,1.989l-0.754,0.364
		c-0.455-0.897-0.741-1.326-1.352-2.003L89.59,78.246z M88.941,88.932h1.664v-3.38h-1.664V88.932z M91.359,88.932h1.664v-3.38
		h-1.664V88.932z M93.79,88.932h1.677v-3.38H93.79V88.932z"/>
</g>
<g>
	<path d="M78.241,99.515c-0.117,0.169-0.156,0.247-0.364,0.663c-0.559,1.117-1.378,2.301-2.184,3.158
		c-0.611,0.65-1.131,1.105-1.937,1.717c-0.195-0.313-0.351-0.508-0.624-0.729c1.534-1.053,2.587-2.145,3.406-3.51
		c0.403-0.676,0.637-1.223,0.702-1.65L78.241,99.515z M83.468,110.396c-0.325-0.663-0.468-0.91-0.754-1.417
		c-2.249,0.352-4.615,0.585-7.15,0.729c-1.001,0.064-1.079,0.064-1.482,0.143l-0.208-1.014c0.325,0.013,0.637,0.025,0.871,0.025
		c0.273,0,0.416,0,0.845-0.013c0.767-1.287,1.313-2.418,2.002-4.108c0.429-1.065,0.65-1.716,0.754-2.236l1.001,0.3
		c-0.013,0.026-0.026,0.052-0.039,0.065c-0.052,0.116-0.104,0.246-0.208,0.532c-0.767,1.911-1.729,3.966-2.548,5.408
		c2.496-0.13,3.744-0.247,5.746-0.533c-0.663-1.026-1.053-1.56-1.963-2.665l0.715-0.441c1.287,1.599,2.327,3.133,3.198,4.719
		L83.468,110.396z M80.998,99.137c0.221,0.716,0.754,1.664,1.469,2.574c0.754,0.963,1.573,1.703,2.86,2.574
		c-0.286,0.273-0.429,0.469-0.611,0.793c-2.171-1.65-3.133-2.795-4.395-5.199c-0.104-0.209-0.13-0.273-0.195-0.364L80.998,99.137z"
		/>
	<path d="M89.525,98.943c0.287,0.599,0.469,0.91,0.846,1.404c0.52,0.663,0.91,1.053,1.482,1.469
		c-0.195,0.208-0.287,0.338-0.469,0.702c-1.001-0.846-1.678-1.689-2.21-2.77c-0.599,1.34-1.404,2.34-2.704,3.394
		c-0.169-0.325-0.286-0.507-0.481-0.688c1.326-0.949,2.17-2.055,2.73-3.511H89.525z M87.588,105.014
		c-0.494,0-0.806,0.013-1.144,0.064v-0.845c0.325,0.052,0.65,0.065,1.209,0.065h2.536c0.545,0,0.871-0.014,1.156-0.053
		c-0.039,0.338-0.052,0.65-0.052,1.209v2.314c0,0.689-0.247,0.884-1.118,0.884c-0.143,0-0.195,0-0.559-0.025
		c-0.014-0.313-0.053-0.494-0.183-0.807c0.3,0.053,0.611,0.092,0.806,0.092c0.209,0,0.287-0.053,0.287-0.208v-2.691h-1.586v4.303
		c0,0.494,0.025,0.807,0.077,1.145H88.07c0.051-0.352,0.078-0.689,0.078-1.145v-4.303H87.588z M87.562,102.31
		c0.26,0.039,0.533,0.052,0.936,0.052h1.392c0.416,0,0.663-0.013,0.937-0.052v0.806c-0.287-0.039-0.508-0.052-0.91-0.052h-1.457
		c-0.35,0-0.61,0.013-0.896,0.052V102.31z M93.945,108.654c-0.961,0.937-1.56,1.365-2.742,1.95
		c-0.182-0.299-0.299-0.441-0.547-0.663c0.715-0.299,1.027-0.468,1.561-0.845c0.455-0.299,0.663-0.494,1.079-0.936L93.945,108.654z
		 M92.892,99.931c-0.623,0-0.896,0.013-1.287,0.077v-0.883c0.364,0.064,0.664,0.077,1.274,0.077h3.822
		c0.599,0,0.923-0.013,1.248-0.077v0.883c-0.403-0.064-0.649-0.077-1.248-0.077h-1.47c-0.168,0.571-0.312,0.948-0.52,1.403h1.586
		c0.624,0,0.885-0.013,1.17-0.052c-0.025,0.325-0.039,0.677-0.039,1.196v4.277c0,0.507,0.014,0.832,0.039,1.235
		c-0.338-0.026-0.676-0.039-1.117-0.039h-3.107c-0.416,0-0.689,0.013-1.105,0.039c0.026-0.364,0.039-0.794,0.039-1.21v-4.277
		c0-0.506-0.013-0.832-0.052-1.209c0.351,0.026,0.599,0.039,1.131,0.039h0.663c0.208-0.48,0.377-0.949,0.494-1.403H92.892z
		 M92.931,103.272h3.731v-1.234h-3.731V103.272z M92.931,105.249h3.731v-1.287h-3.731V105.249z M92.931,107.263h3.731v-1.326h-3.731
		V107.263z M95.792,108.173c0.793,0.793,1.431,1.235,2.613,1.807c-0.222,0.222-0.39,0.416-0.56,0.689
		c-1.195-0.663-1.807-1.131-2.652-2.016L95.792,108.173z"/>
</g>
<g>
	<path d="M82.097,119.715c0-0.623-0.026-1.078-0.078-1.599c0.429,0.052,0.819,0.065,1.521,0.065h7.774
		c0.689,0,1.066-0.014,1.547-0.065c-0.051,0.481-0.077,0.923-0.077,1.599v7.918c0,0.949,0.026,1.43,0.077,1.781h-0.909v-0.793
		h-9.022v0.793h-0.91c0.052-0.352,0.078-0.819,0.078-1.781V119.715z M82.929,127.88h9.022v-8.958h-9.022V127.88z M85.152,120.847
		c-0.559,0-0.871,0.013-1.222,0.065v-0.832c0.364,0.064,0.65,0.077,1.222,0.077h4.589c0.585,0,0.936-0.026,1.273-0.077v0.832
		c-0.363-0.053-0.676-0.065-1.261-0.065h-2.002v2.015h1.599c0.586,0,0.846-0.013,1.17-0.064v0.818
		c-0.324-0.052-0.623-0.064-1.17-0.064h-1.599v2.379h2.185c0.533,0,0.91-0.025,1.273-0.078v0.858
		c-0.377-0.053-0.768-0.078-1.273-0.078h-4.954c-0.533,0-0.897,0.025-1.287,0.078v-0.858c0.364,0.053,0.741,0.078,1.287,0.078h1.963
		v-2.379h-1.391c-0.546,0-0.858,0.013-1.183,0.064v-0.818c0.325,0.052,0.585,0.064,1.183,0.064h1.391v-2.015H85.152z
		 M89.326,123.786c0.533,0.532,0.74,0.818,1.222,1.547l-0.61,0.39c-0.455-0.793-0.664-1.079-1.158-1.612L89.326,123.786z"/>
</g>
<g>
	<path d="M31.546,52.812c0-0.672-0.027-1.163-0.084-1.723c0.463,0.056,0.883,0.07,1.639,0.07h8.377c0.742,0,1.148-0.014,1.667-0.07
		c-0.056,0.518-0.084,0.995-0.084,1.723v8.531c0,1.022,0.028,1.541,0.084,1.919h-0.98v-0.854h-9.722v0.854h-0.98
		c0.057-0.378,0.084-0.883,0.084-1.919V52.812z M32.442,61.609h9.722v-9.652h-9.722V61.609z M34.838,54.03
		c-0.603,0-0.938,0.014-1.316,0.07v-0.896c0.392,0.07,0.7,0.084,1.316,0.084h4.944c0.631,0,1.009-0.028,1.373-0.084v0.896
		c-0.393-0.056-0.729-0.07-1.358-0.07H37.64v2.171h1.723c0.631,0,0.91-0.014,1.261-0.07v0.883c-0.351-0.057-0.673-0.07-1.261-0.07
		H37.64v2.563h2.354c0.574,0,0.98-0.028,1.372-0.084v0.925c-0.406-0.057-0.826-0.084-1.372-0.084h-5.337
		c-0.575,0-0.967,0.027-1.387,0.084v-0.925c0.392,0.056,0.798,0.084,1.387,0.084h2.114v-2.563h-1.498
		c-0.589,0-0.925,0.014-1.275,0.07v-0.883c0.351,0.056,0.631,0.07,1.275,0.07h1.498V54.03H34.838z M39.334,57.196
		c0.574,0.574,0.799,0.883,1.317,1.667l-0.658,0.421c-0.49-0.854-0.715-1.163-1.247-1.737L39.334,57.196z"/>
	<path d="M56.123,61.875c0,0.952-0.337,1.205-1.556,1.205c-0.56,0-1.106-0.042-1.988-0.126c-0.042-0.435-0.07-0.575-0.183-0.98
		c0.883,0.168,1.527,0.237,2.297,0.237c0.406,0,0.533-0.098,0.533-0.42v-9.763h-8.77c-0.742,0-1.134,0.028-1.568,0.098v-1.022
		c0.435,0.07,0.813,0.098,1.568,0.098h8.363c0.588,0,0.966-0.014,1.358-0.056c-0.042,0.434-0.056,0.7-0.056,1.26V61.875z
		 M45.631,53.54c0.42,0.07,0.757,0.084,1.289,0.084h5.351c0.546,0,0.883-0.014,1.303-0.084v0.98
		c-0.42-0.056-0.771-0.084-1.274-0.084H46.92c-0.519,0-0.869,0.028-1.289,0.084V53.54z M52.509,59.284
		c0,0.447,0.014,0.728,0.042,1.078c-0.378-0.042-0.547-0.042-1.205-0.042h-3.978v1.316h-0.953c0.057-0.392,0.07-0.756,0.07-1.33
		v-3.152c0-0.518-0.014-0.854-0.056-1.19c0.35,0.028,0.672,0.042,1.204,0.042h3.824c0.574,0,0.799-0.014,1.093-0.042
		c-0.028,0.35-0.042,0.63-0.042,1.093V59.284z M47.382,59.549h4.244v-2.773h-4.244V59.549z"/>
	<path d="M62.73,63.332c-1.051-1.205-1.484-1.877-1.947-3.012c-0.462-1.121-0.672-2.228-0.672-3.446c0-1.218,0.21-2.325,0.672-3.445
		c0.463-1.135,0.896-1.807,1.947-3.012h1.247c-1.177,1.19-1.64,1.821-2.13,2.899c-0.504,1.121-0.756,2.283-0.756,3.558
		c0,1.275,0.252,2.438,0.756,3.559c0.49,1.078,0.953,1.709,2.13,2.899H62.73z"/>
	<path d="M70.68,51.971c0-0.687-0.028-1.022-0.099-1.457h1.121c-0.07,0.434-0.099,0.826-0.099,1.429v1.232h4.104
		c0.477,0,0.742-0.014,1.064-0.056c-0.056,0.364-0.069,0.659-0.069,1.107v3.824c0,0.463,0.027,0.827,0.084,1.247h-1.009v-0.953
		h-4.175v3.265c0,0.798,0.015,1.148,0.099,1.597h-1.121c0.07-0.477,0.099-0.841,0.099-1.597v-3.265h-3.95v0.953h-1.009
		c0.056-0.406,0.084-0.799,0.084-1.247v-3.824c0-0.434-0.028-0.743-0.07-1.107c0.337,0.042,0.603,0.056,1.051,0.056h3.895V51.971z
		 M66.729,54.016v3.488h3.95v-3.488H66.729z M75.778,57.504v-3.488h-4.175v3.488H75.778z"/>
	<path d="M82.608,56.874c0,0.631-0.519,1.149-1.148,1.149c-0.631,0-1.148-0.519-1.148-1.149c0-0.63,0.518-1.148,1.148-1.148
		C82.09,55.725,82.608,56.244,82.608,56.874z"/>
	<path d="M87.421,52.266c-0.672,0-1.148,0.028-1.639,0.084v-1.037c0.463,0.056,0.938,0.084,1.639,0.084h9.077
		c0.674,0,1.148-0.028,1.625-0.084v1.037c-0.49-0.056-0.98-0.084-1.625-0.084h-4.398v1.597c2.76,1.387,3.223,1.653,4.973,2.872
		l-0.545,0.868c-0.967-0.756-1.639-1.205-2.971-1.961c-0.293-0.182-0.293-0.182-1.457-0.771v6.598c0,0.757,0.029,1.205,0.1,1.653
		h-1.164c0.07-0.448,0.1-0.911,0.1-1.653v-9.203H87.421z"/>
	<path d="M99.783,56.58c0.434,0.014,0.49,0.014,0.686,0.014c0.084,0,0.084,0,0.463,0c0.393-0.49,0.434-0.546,0.98-1.317
		c-0.742-0.896-1.176-1.331-2.115-2.115l0.49-0.672c0.35,0.294,0.449,0.392,0.658,0.602c0.701-1.05,1.191-1.989,1.346-2.535
		l0.867,0.392c-0.125,0.182-0.182,0.266-0.336,0.546c-0.547,0.995-0.756,1.331-1.33,2.143c0.463,0.476,0.547,0.574,0.869,0.98
		c0.91-1.359,1.33-2.101,1.498-2.591l0.826,0.462c-0.141,0.196-0.211,0.308-0.49,0.742c-0.742,1.163-1.695,2.521-2.34,3.306
		c1.289-0.098,1.5-0.112,2.27-0.224c-0.209-0.448-0.309-0.63-0.615-1.134l0.629-0.309c0.645,1.065,0.912,1.597,1.303,2.634
		l-0.686,0.35c-0.141-0.434-0.195-0.56-0.322-0.868c-0.967,0.126-0.967,0.126-1.443,0.183v4.65c0,0.588,0.029,1.008,0.084,1.429
		h-0.994c0.057-0.448,0.084-0.854,0.084-1.443v-4.552c-0.379,0.042-0.379,0.042-0.531,0.056c-0.506,0.042-0.842,0.07-0.967,0.084
		c-0.393,0.028-0.504,0.028-0.715,0.084L99.783,56.58z M101.421,58.373c-0.309,2.213-0.447,2.844-0.84,3.866l-0.785-0.351
		c0.434-0.966,0.602-1.708,0.84-3.67L101.421,58.373z M104.195,58.008c0.279,0.911,0.42,1.513,0.561,2.451l-0.701,0.253
		c-0.111-0.995-0.238-1.583-0.531-2.494L104.195,58.008z M112.068,55.235c-0.043,0.126-0.113,0.364-0.211,0.714
		c-0.574,1.835-1.092,2.928-1.934,4.062c0.701,0.841,1.5,1.499,2.746,2.283c-0.322,0.364-0.336,0.406-0.561,0.854
		c-1.189-0.854-1.975-1.555-2.73-2.465c-0.896,0.98-1.738,1.639-3.139,2.423c-0.141-0.266-0.293-0.448-0.588-0.714
		c1.387-0.673,2.311-1.359,3.207-2.396c-0.994-1.415-1.457-2.703-1.848-5.015c-0.127,2.115-0.365,3.502-0.842,4.875
		c-0.434,1.261-1.064,2.395-1.834,3.333c-0.225-0.266-0.42-0.434-0.729-0.602c1.078-1.191,1.779-2.62,2.227-4.581
		c0.266-1.148,0.42-2.423,0.504-4.048c0.016-0.308,0.016-0.308,0.043-2.003h-0.295c-0.574,0-0.896,0.014-1.289,0.07v-0.938
		c0.406,0.056,0.842,0.084,1.443,0.084h3.18c0.574,0,0.91-0.014,1.303-0.056c-0.07,0.336-0.07,0.336-0.279,1.275
		c-0.168,0.798-0.393,1.737-0.617,2.493h0.756c0.547,0,0.855-0.014,1.107-0.056L112.068,55.235z M107.234,51.957
		c0.141,1.947,0.268,2.802,0.604,4.021c0.377,1.317,0.84,2.311,1.555,3.348c0.742-1.051,1.205-2.06,1.652-3.656h-1.512
		c-0.379,0-0.576,0-0.828,0.014c0.393-1.219,0.631-2.115,0.953-3.726H107.234z"/>
	<path d="M118.406,61.762c-1.318,0.743-2.283,1.079-4.146,1.471c-0.141-0.294-0.309-0.532-0.561-0.798
		c1.695-0.183,2.76-0.505,3.922-1.177L118.406,61.762z M116.626,53.764c-0.701,0-1.148,0.014-1.584,0.042
		c0.043-0.308,0.057-0.56,0.057-1.008v-0.42c0-0.434-0.014-0.687-0.057-1.022c0.406,0.056,0.799,0.07,1.611,0.07h2.887v-0.098
		c0-0.266-0.029-0.518-0.084-0.84h0.994c-0.057,0.294-0.084,0.574-0.084,0.84v0.098h2.982c0.813,0,1.205-0.014,1.611-0.07
		c-0.041,0.336-0.057,0.588-0.057,1.022v0.42c0,0.448,0.016,0.7,0.057,1.008c-0.434-0.028-0.883-0.042-1.582-0.042h-3.012v0.798
		h4.469c0.643,0,0.994-0.014,1.428-0.084v0.869c-0.393-0.056-0.826-0.084-1.428-0.084h-9.652c-0.602,0-1.008,0.028-1.428,0.084
		v-0.869c0.42,0.07,0.783,0.084,1.428,0.084h4.357v-0.798H116.626z M123.154,55.949c0.742,0,1.064-0.014,1.457-0.056
		c-0.029,0.406-0.043,0.826-0.043,1.527v2.255c0,0.715,0.014,1.163,0.057,1.457c-0.365-0.042-0.855-0.056-1.568-0.056h-6.15
		c-0.729,0-1.189,0.014-1.568,0.056c0.041-0.309,0.057-0.729,0.057-1.429v-2.312c0-0.602-0.016-1.064-0.043-1.485
		c0.406,0.028,0.771,0.042,1.457,0.042H123.154z M119.541,52.097h-3.586v1.022h3.586V52.097z M116.248,57.448h7.467v-0.812h-7.467
		V57.448z M116.248,58.919h7.467v-0.841h-7.467V58.919z M116.248,60.404h7.467v-0.854h-7.467V60.404z M124.05,53.12v-1.022h-3.684
		v1.022H124.05z M122.173,61.287c1.316,0.658,2.27,0.924,4.09,1.12c-0.238,0.28-0.295,0.364-0.547,0.826
		c-1.82-0.336-2.857-0.686-4.258-1.471L122.173,61.287z"/>
	<path d="M129.996,51.915c0-0.518-0.027-0.868-0.084-1.289h1.037c-0.07,0.406-0.084,0.756-0.084,1.289v0.869h0.699
		c0.463,0,0.813-0.014,1.219-0.07v0.91c-0.363-0.042-0.658-0.056-1.219-0.056h-1.441c0,0.225,0,0.393,0,0.504
		c-0.016,0.477-0.016,0.477-0.057,1.429h1.414c0.449,0,0.701-0.014,0.98-0.056c-0.027,0.224-0.027,0.28-0.055,1.499
		c-0.029,1.667-0.211,3.656-0.422,4.637c-0.236,1.093-0.447,1.274-1.484,1.274c-0.238,0-0.561-0.028-0.994-0.084
		c-0.027-0.378-0.057-0.603-0.141-0.91c0.449,0.126,0.799,0.182,1.135,0.182c0.533,0,0.604-0.126,0.785-1.232
		c0.195-1.303,0.309-2.886,0.322-4.539h-1.568c-0.113,1.723-0.184,2.395-0.393,3.348c-0.281,1.232-0.826,2.409-1.654,3.46
		c-0.266-0.379-0.391-0.519-0.658-0.729c1.094-1.373,1.5-2.451,1.725-4.482c0.125-1.191,0.195-2.396,0.223-4.301h-0.434
		c-0.533,0-0.826,0.014-1.176,0.07V52.7c0.377,0.056,0.713,0.084,1.217,0.084h1.107V51.915z M134.408,53.19
		c-0.434,0.84-0.799,1.373-1.471,2.157c-0.168-0.238-0.363-0.378-0.699-0.546c0.938-0.995,1.693-2.241,2.115-3.488
		c0.068-0.21,0.139-0.448,0.152-0.532c0.029-0.182,0.029-0.182,0.043-0.266l0.953,0.196c-0.141,0.322-0.141,0.35-0.211,0.519
		c-0.211,0.518-0.252,0.63-0.504,1.163h3.922c0.658,0,1.092-0.028,1.428-0.084v0.938c-0.404-0.042-0.826-0.056-1.4-0.056H134.408z
		 M134.941,55.823c-0.365,0.603-0.645,0.953-1.148,1.485c-0.197-0.21-0.365-0.322-0.688-0.49c0.799-0.771,1.219-1.345,1.625-2.241
		c0.168-0.378,0.252-0.658,0.309-0.995l0.869,0.238c-0.07,0.154-0.254,0.56-0.422,0.953c-0.041,0.112-0.068,0.154-0.125,0.28h3.082
		c0.531,0,0.77-0.014,1.105-0.084v0.925c-0.35-0.056-0.615-0.07-1.135-0.07h-1.457c-0.055,1.359-0.068,1.429-0.139,1.975h2.031
		c0.531,0,0.896-0.028,1.26-0.084v0.952c-0.406-0.056-0.742-0.084-1.26-0.084h-1.877c0.377,0.953,0.658,1.429,1.219,2.045
		c0.658,0.715,1.273,1.121,2.367,1.598c-0.281,0.294-0.406,0.476-0.574,0.854c-1.107-0.574-1.836-1.163-2.551-2.06
		c-0.477-0.588-0.699-0.994-0.951-1.709c-0.252,0.784-0.533,1.303-0.98,1.863c-0.658,0.813-1.43,1.373-2.621,1.919
		c-0.139-0.322-0.279-0.532-0.531-0.771c1.205-0.435,2.115-1.12,2.773-2.073c0.336-0.49,0.547-1.009,0.701-1.667h-1.57
		c-0.561,0-0.896,0.015-1.289,0.07v-0.925c0.352,0.057,0.674,0.07,1.303,0.07h1.695c0.098-0.687,0.127-1.022,0.141-1.975H134.941z"
		/>
	<path d="M141.488,63.332c1.178-1.177,1.639-1.821,2.129-2.899c0.506-1.121,0.758-2.283,0.758-3.559
		c0-1.274-0.252-2.437-0.758-3.558c-0.49-1.079-0.951-1.723-2.129-2.899h1.248c1.049,1.205,1.484,1.877,1.945,3.012
		c0.463,1.121,0.674,2.227,0.674,3.445c0,1.219-0.211,2.325-0.674,3.446c-0.461,1.135-0.896,1.807-1.945,3.012H141.488z"/>
</g>
<g>
	<path d="M2.031,27.059c0-0.588-0.028-0.967-0.099-1.415h1.051c-0.07,0.462-0.098,0.798-0.098,1.401v1.359h0.546
		c0.462,0,0.658-0.014,0.952-0.07v0.911c-0.308-0.042-0.546-0.056-0.952-0.056H2.886v2.871c0.504-0.196,0.784-0.308,1.456-0.658
		l0.042,0.84c-0.7,0.322-0.938,0.435-1.498,0.672V37.2c0,0.49-0.168,0.771-0.532,0.882c-0.196,0.057-0.743,0.099-1.191,0.099
		c-0.014,0-0.237-0.015-0.658-0.015c-0.014-0.364-0.042-0.504-0.182-0.896c0.392,0.057,0.813,0.099,1.078,0.099
		c0.519,0,0.631-0.057,0.631-0.351v-3.754c-0.561,0.21-0.911,0.351-1.051,0.393c-0.309,0.111-0.504,0.195-0.729,0.294L0,33.012
		c0.532-0.084,1.064-0.238,2.031-0.616v-3.208H1.162c-0.322,0-0.672,0.028-1.036,0.07v-0.938c0.364,0.056,0.645,0.084,1.051,0.084
		h0.854V27.059z M9.385,36.836h1.808c0.7,0,1.12-0.028,1.4-0.084v0.938c-0.393-0.057-0.771-0.07-1.415-0.07H6.023v0.742H5.085
		c0.056-0.364,0.084-0.771,0.084-1.415v-5.869c0-0.406,0-0.645,0.027-1.205c-0.35,0.504-0.546,0.742-0.994,1.219
		c-0.182-0.252-0.309-0.406-0.574-0.617c0.798-0.771,1.177-1.247,1.681-2.115c0.603-1.05,0.995-2.003,1.135-2.759l0.952,0.252
		c-0.069,0.14-0.069,0.14-0.238,0.532c-0.336,0.771-0.532,1.163-0.868,1.779h2.312c0.504-0.938,0.784-1.639,0.98-2.465l0.896,0.224
		c-0.406,0.995-0.616,1.457-1.036,2.241h1.54c0.574,0,1.064-0.028,1.387-0.084v0.952c-0.364-0.056-0.84-0.084-1.387-0.084H9.385
		v2.031h1.457c0.561,0,1.051-0.028,1.331-0.084v0.924c-0.337-0.042-0.813-0.07-1.317-0.07H9.385v2.115h1.471
		c0.589,0,1.051-0.028,1.317-0.084v0.938c-0.295-0.057-0.757-0.084-1.331-0.084H9.385V36.836z M8.545,30.98v-2.031H6.023v2.031
		H8.545z M6.023,33.866h2.521v-2.115H6.023V33.866z M6.023,36.836h2.521v-2.199H6.023V36.836z"/>
	<path d="M15.891,32.241c-0.084,1.442-0.182,2.297-0.364,3.082c-0.266,1.106-0.56,1.793-1.204,2.773
		c-0.183-0.267-0.393-0.477-0.687-0.673c0.7-0.994,0.98-1.639,1.162-2.703c0.196-1.064,0.309-2.689,0.309-4.511
		c0-0.813-0.014-1.303-0.07-1.821c0.421,0.056,0.742,0.07,1.429,0.07h3.25c0-0.406-0.014-0.518-0.056-0.826h0.924
		c-0.042,0.28-0.042,0.42-0.056,0.826h4.44c0.616,0,0.98-0.028,1.373-0.084v0.854c-0.435-0.056-0.813-0.084-1.387-0.084h-2.592V30
		h2.27c0.49,0,0.784-0.014,1.093-0.056c-0.028,0.252-0.042,0.406-0.042,0.798v0.672c0,0.336,0.014,0.575,0.042,0.869
		c-0.351-0.028-0.687-0.042-1.023-0.042h-6.19c-0.099,0.406-0.141,0.532-0.225,0.813h6.584c0.63,0,1.036-0.014,1.442-0.07v0.813
		c-0.406-0.056-0.841-0.07-1.442-0.07h-6.808c-0.099,0.28-0.154,0.421-0.322,0.854h7.466c0.406,0,0.7-0.014,1.036-0.056
		c-0.014,0.07-0.042,0.378-0.21,1.597c-0.14,1.079-0.294,1.541-0.603,1.793c-0.224,0.196-0.462,0.252-1.022,0.252
		c-0.364,0-0.645-0.027-1.303-0.111c-0.042-0.364-0.069-0.519-0.196-0.841c0.645,0.154,1.093,0.21,1.514,0.21
		c0.406,0,0.532-0.098,0.63-0.448c0.098-0.393,0.196-1.064,0.252-1.723h-7.466c-0.645,0-0.91,0-1.261,0.028
		c0.561-1.177,0.883-2.046,1.121-3.04H15.891z M17.698,26.428c0-0.336-0.015-0.504-0.057-0.799h0.938
		c-0.042,0.28-0.042,0.435-0.042,0.799v0.112h3.432v-0.112c0-0.322-0.014-0.519-0.056-0.799h0.952
		c-0.042,0.28-0.056,0.448-0.056,0.799v0.112h2.367c0.616,0,1.022-0.028,1.429-0.084v0.882c-0.406-0.056-0.826-0.084-1.429-0.084
		h-2.367c0,0.42,0.014,0.588,0.056,0.869h-0.938c0.042-0.294,0.042-0.364,0.042-0.869h-3.432c0,0.546,0,0.588,0.028,0.854h-0.925
		c0.042-0.294,0.042-0.434,0.057-0.854h-2.031c-0.603,0-0.98,0.028-1.415,0.084v-0.882c0.393,0.056,0.813,0.084,1.415,0.084h2.031
		V26.428z M17.67,35.841c-0.49,1.177-0.729,1.597-1.331,2.34l-0.771-0.448c0.701-0.7,1.009-1.219,1.303-2.172L17.67,35.841z
		 M18.314,31.583v-0.925h-2.367c-0.015,0.448-0.015,0.519-0.028,0.925H18.314z M18.314,30v-0.854h-2.367V30H18.314z M19.183,35.771
		c0.294,0.728,0.435,1.19,0.616,2.017l-0.84,0.168c-0.141-0.98-0.183-1.162-0.533-2.031L19.183,35.771z M21.578,30v-0.854h-2.493V30
		H21.578z M21.578,31.583v-0.925h-2.493v0.925H21.578z M21.214,35.673c0.364,0.673,0.477,0.925,0.813,1.793l-0.771,0.252
		c-0.238-0.826-0.378-1.162-0.757-1.849L21.214,35.673z M24.87,31.583v-0.925h-2.508v0.925H24.87z M23.188,35.463
		c0.421,0.504,0.645,0.826,0.925,1.358l-0.645,0.351c-0.252-0.574-0.406-0.841-0.882-1.471L23.188,35.463z"/>
</g>
<g>
	<path fill="#FFFFFF" stroke="#000000" stroke-width="0.75" stroke-miterlimit="10" d="M115.89,44.651c0,0-9.52-1.557-9.52-15.25
		h19.082L86.684,15.276l-38.77,14.125h19.083c0,13.693-9.521,15.25-9.521,15.25"/>
</g>
<g>
	<path d="M75.044,33.835c0.884-0.313,1.131-0.416,1.872-0.754v-5.863c0-0.52-0.026-0.91-0.091-1.365h1.001
		c-0.065,0.455-0.091,0.819-0.091,1.365v8.945c0,0.533,0.026,0.896,0.091,1.352h-1.001c0.065-0.455,0.091-0.818,0.091-1.352v-2.289
		c-1.157,0.494-1.625,0.676-2.925,1.131c-0.234,0.078-0.299,0.104-0.546,0.195l-0.195-0.857c0.494-0.105,0.676-0.156,0.988-0.248
		v-5.681c0-0.521-0.026-0.897-0.091-1.353h0.988c-0.065,0.455-0.091,0.819-0.091,1.353V33.835z M83.651,26.711
		c0.325,0,0.663-0.013,0.962-0.052c-0.013,0.064-0.013,0.064-0.169,1.105c-0.156,0.936-0.494,2.274-0.806,3.145
		c-0.403,1.119-0.897,2.146-1.482,3.018c0.91,1.182,1.716,1.91,3.159,2.795c-0.234,0.273-0.312,0.402-0.52,0.818
		c-1.352-0.922-2.288-1.781-3.146-2.898c-0.91,1.17-1.872,2.055-3.237,2.951c-0.117-0.273-0.234-0.443-0.546-0.754
		c1.326-0.754,2.314-1.639,3.289-2.9c-0.637-0.988-1.066-1.924-1.417-3.106c-0.325-1.079-0.455-1.794-0.624-3.354
		c-0.403,0-0.637,0.026-0.897,0.065v-0.897c0.351,0.053,0.65,0.065,1.131,0.065H83.651z M79.92,27.478
		c0.13,1.34,0.247,1.977,0.533,2.978c0.313,1.079,0.663,1.886,1.209,2.757c1.014-1.627,1.599-3.328,1.963-5.734H79.92z"/>
	<path d="M93.219,28.037c0.584-0.728,0.988-1.417,1.365-2.38l0.844,0.3c-0.441,0.884-0.793,1.442-1.299,2.08h2.469
		c0.611,0,0.963-0.026,1.34-0.078v0.91c-0.391-0.052-0.793-0.078-1.326-0.078h-2.561c0.48,0.858,0.871,1.403,1.508,2.08
		c0.832,0.87,1.689,1.521,2.809,2.106c-0.248,0.285-0.377,0.48-0.521,0.818c-0.676-0.441-1.027-0.701-1.572-1.17
		c-0.014,0.246-0.014,0.391-0.014,0.637v3.029h0.715c0.533,0,0.793-0.012,1.08-0.064v0.885c-0.365-0.039-0.676-0.053-1.17-0.053
		h-9.322c-0.493,0-0.87,0.025-1.195,0.078v-0.91c0.273,0.064,0.507,0.078,1.001,0.078h0.78v-3.029c0-0.299,0-0.404-0.014-0.65
		c-0.48,0.402-0.845,0.662-1.573,1.105c-0.169-0.338-0.299-0.533-0.507-0.729c2.027-1.066,3.302-2.365,4.146-4.212h-2.391
		c-0.547,0-0.949,0.026-1.326,0.078v-0.91c0.351,0.052,0.728,0.078,1.326,0.078H93.219z M91.073,28.791
		c-0.648,1.456-1.299,2.353-2.418,3.394c0.313,0.012,0.508,0.012,0.859,0.012h5.447c0.271,0,0.48,0,0.805-0.012
		c-1.131-1.066-1.807-1.963-2.561-3.394H91.073z M89.592,25.618c0.584,0.677,0.922,1.158,1.377,1.99l-0.754,0.363
		c-0.455-0.896-0.74-1.326-1.352-2.002L89.592,25.618z M88.942,36.306h1.664v-3.381h-1.664V36.306z M91.36,36.306h1.664v-3.381
		H91.36V36.306z M93.792,36.306h1.676v-3.381h-1.676V36.306z"/>
</g>
<g>
	<path d="M26.88,2.885c-0.406,0.827-0.644,1.219-1.303,2.059c-0.21-0.294-0.336-0.406-0.686-0.616
		c0.98-1.05,1.499-2.031,1.863-3.502c0.084-0.364,0.126-0.56,0.126-0.77l0.953,0.154c-0.084,0.224-0.112,0.336-0.238,0.756
		c-0.112,0.42-0.196,0.687-0.364,1.107h2.536c0.687,0,1.05-0.028,1.373-0.084v0.967c-0.434-0.042-0.896-0.07-1.373-0.07h-0.896
		c-0.028,1.513-0.028,1.681-0.098,2.62h1.191c0.574,0,0.994-0.028,1.331-0.084v0.98c-0.35-0.056-0.785-0.084-1.331-0.084h-1.261
		c-0.042,0.322-0.056,0.49-0.112,0.826c0.798,1.499,1.429,2.255,2.662,3.194c-0.252,0.266-0.378,0.462-0.561,0.84
		c-1.05-0.98-1.499-1.541-2.353-2.969c-0.504,1.709-1.261,2.801-2.802,4.034c-0.224-0.336-0.378-0.49-0.7-0.729
		c1.919-1.359,2.731-2.759,3.012-5.197h-1.275c-0.687,0-1.05,0.014-1.485,0.084v-0.98c0.42,0.07,0.771,0.084,1.513,0.084h1.331
		c0.056-0.771,0.07-1.064,0.084-2.62H26.88z M32.637,12.298H31.67c0.056-0.392,0.084-0.98,0.084-1.597V2.928
		c0-0.533-0.028-0.995-0.084-1.471c0.393,0.056,0.659,0.07,1.261,0.07h2.802c0.588,0,0.868-0.014,1.261-0.07
		c-0.056,0.42-0.07,0.813-0.07,1.471v7.676c0,0.659,0.028,1.289,0.084,1.695h-0.98v-0.994h-3.39V12.298z M32.637,10.492h3.39V2.339
		h-3.39V10.492z"/>
	<path d="M41.062,7.956c0-0.602,0.014-1.008,0.042-1.681c-0.504,0.644-0.91,1.037-1.597,1.569c-0.168-0.35-0.322-0.574-0.546-0.798
		c1.093-0.743,1.989-1.625,2.83-2.76c0.322-0.434,0.532-0.826,0.672-1.205l0.869,0.49c-0.168,0.21-0.21,0.28-0.42,0.603
		c-0.294,0.476-0.546,0.798-0.938,1.261v5.659c0,0.756,0.028,1.317,0.098,1.709h-1.107c0.07-0.392,0.098-0.966,0.098-1.709V7.956z
		 M42.995,0.658c-0.098,0.098-0.126,0.14-0.252,0.308c-0.84,1.149-1.849,2.129-3.11,3.04c-0.21-0.308-0.364-0.476-0.63-0.686
		c0.785-0.504,1.289-0.911,1.849-1.485c0.7-0.7,1.051-1.191,1.274-1.709L42.995,0.658z M45.026,5.309
		c-0.659,0-1.219,0.028-1.555,0.084v-0.98c0.336,0.056,0.883,0.084,1.555,0.084h4.917c0.714,0,1.219-0.028,1.541-0.084v0.98
		c-0.364-0.056-0.883-0.084-1.527-0.084h-0.798v6.136c0,0.896-0.336,1.134-1.569,1.134c-0.448,0-1.107-0.028-1.709-0.07
		c-0.042-0.393-0.098-0.645-0.224-0.967c0.798,0.112,1.4,0.168,1.975,0.168c0.476,0,0.588-0.056,0.588-0.336V5.309H45.026z
		 M44.046,0.896c0.378,0.056,0.826,0.084,1.457,0.084h3.922c0.63,0,1.05-0.028,1.443-0.084v0.98
		c-0.42-0.056-0.883-0.084-1.443-0.084h-3.922c-0.56,0-1.037,0.028-1.457,0.084V0.896z"/>
	<path d="M53.437,2.395c0-0.672-0.028-1.163-0.084-1.723c0.462,0.056,0.883,0.07,1.639,0.07h8.376c0.742,0,1.148-0.014,1.667-0.07
		c-0.056,0.518-0.084,0.995-0.084,1.723v8.531c0,1.022,0.028,1.541,0.084,1.919h-0.98V11.99h-9.722v0.854h-0.98
		c0.056-0.378,0.084-0.882,0.084-1.919V2.395z M54.333,11.192h9.722V1.541h-9.722V11.192z M56.729,3.614
		c-0.603,0-0.938,0.014-1.317,0.07V2.788c0.393,0.07,0.701,0.084,1.317,0.084h4.945c0.63,0,1.008-0.028,1.373-0.084v0.896
		c-0.392-0.056-0.729-0.07-1.359-0.07h-2.157v2.171h1.723c0.63,0,0.911-0.014,1.261-0.07v0.883c-0.35-0.056-0.672-0.07-1.261-0.07
		h-1.723v2.563h2.353c0.574,0,0.98-0.028,1.373-0.084v0.924c-0.406-0.056-0.826-0.084-1.373-0.084h-5.337
		c-0.574,0-0.966,0.028-1.387,0.084V9.007c0.392,0.056,0.798,0.084,1.387,0.084h2.115V6.527h-1.499c-0.588,0-0.924,0.014-1.274,0.07
		V5.715c0.35,0.056,0.63,0.07,1.274,0.07h1.499V3.614H56.729z M61.226,6.78c0.574,0.574,0.798,0.882,1.316,1.667l-0.658,0.42
		c-0.49-0.854-0.714-1.163-1.247-1.737L61.226,6.78z"/>
	<path d="M69.006,3.782c-0.757,0-1.135,0.014-1.471,0.07v-0.98c0.406,0.056,0.813,0.084,1.471,0.084h8.307
		c0.63,0,1.064-0.028,1.471-0.084v0.98c-0.393-0.056-0.743-0.07-1.471-0.07h-3.755v2.984h3.054c0.631,0,1.022-0.014,1.359-0.07
		v0.967c-0.393-0.056-0.687-0.07-1.359-0.07h-3.054v3.642h4.371c0.616,0,1.093-0.028,1.513-0.084v1.022
		c-0.532-0.07-0.938-0.098-1.513-0.098H68.53c-0.588,0-1.064,0.028-1.541,0.098V11.15c0.42,0.056,0.869,0.084,1.527,0.084h4.062
		V7.592h-2.773c-0.659,0-1.037,0.014-1.401,0.07V6.695c0.35,0.056,0.687,0.07,1.359,0.07h2.815V3.782H69.006z M71.583,0.042
		c1.484,0.602,1.975,0.854,3.348,1.737l-0.574,0.756c-1.219-0.854-1.961-1.261-3.39-1.807L71.583,0.042z"/>
	<path d="M85.433,12.915c-1.051-1.205-1.484-1.877-1.947-3.012c-0.462-1.121-0.672-2.227-0.672-3.446s0.21-2.325,0.672-3.446
		C83.949,1.877,84.382,1.205,85.433,0h1.247c-1.177,1.19-1.64,1.821-2.13,2.899c-0.504,1.121-0.756,2.283-0.756,3.558
		c0,1.274,0.252,2.437,0.756,3.558c0.49,1.079,0.953,1.709,2.13,2.9H85.433z"/>
	<path d="M94.405,11.248h4.58c0.658,0,1.093-0.028,1.569-0.084v1.064c-0.532-0.07-0.967-0.098-1.569-0.098h-9.329
		c-0.603,0-1.12,0.028-1.652,0.098v-1.064c0.462,0.056,0.952,0.084,1.652,0.084h3.754V1.793c0-0.532-0.027-0.967-0.098-1.457h1.19
		c-0.07,0.477-0.098,0.925-0.098,1.457v2.872h3.544c0.602,0,1.05-0.028,1.456-0.084v1.079c-0.434-0.056-0.854-0.084-1.456-0.084
		h-3.544V11.248z"/>
	<path d="M102.031,6.163c0.435,0.014,0.49,0.014,0.687,0.014c0.084,0,0.084,0,0.462,0c0.393-0.49,0.435-0.546,0.981-1.317
		c-0.743-0.896-1.177-1.331-2.115-2.115l0.49-0.672c0.35,0.294,0.448,0.392,0.658,0.602c0.7-1.05,1.19-1.989,1.345-2.535
		l0.868,0.392c-0.126,0.182-0.182,0.266-0.336,0.546c-0.547,0.995-0.757,1.331-1.331,2.143c0.463,0.476,0.547,0.574,0.869,0.98
		c0.91-1.359,1.33-2.101,1.498-2.591l0.827,0.462c-0.141,0.196-0.211,0.308-0.49,0.742c-0.743,1.163-1.695,2.521-2.34,3.306
		c1.289-0.098,1.499-0.112,2.27-0.224c-0.21-0.448-0.309-0.63-0.616-1.134l0.63-0.309c0.645,1.065,0.911,1.597,1.303,2.634
		l-0.687,0.35c-0.14-0.434-0.195-0.561-0.322-0.869c-0.966,0.126-0.966,0.126-1.442,0.182v4.65c0,0.588,0.028,1.009,0.084,1.429
		h-0.994c0.056-0.448,0.084-0.854,0.084-1.443V6.835c-0.379,0.042-0.379,0.042-0.532,0.056c-0.505,0.042-0.841,0.07-0.967,0.084
		c-0.393,0.028-0.504,0.028-0.715,0.084L102.031,6.163z M103.669,7.956c-0.308,2.213-0.447,2.844-0.84,3.866l-0.784-0.35
		c0.434-0.967,0.602-1.709,0.84-3.67L103.669,7.956z M106.444,7.592c0.279,0.911,0.42,1.513,0.56,2.452l-0.7,0.252
		c-0.112-0.995-0.238-1.583-0.532-2.493L106.444,7.592z M114.316,4.818c-0.042,0.126-0.112,0.364-0.21,0.714
		c-0.575,1.835-1.093,2.928-1.934,4.063c0.7,0.84,1.499,1.499,2.746,2.283c-0.322,0.364-0.337,0.406-0.561,0.854
		c-1.19-0.854-1.976-1.555-2.731-2.465c-0.896,0.98-1.737,1.639-3.138,2.423c-0.141-0.266-0.294-0.448-0.589-0.714
		c1.387-0.672,2.312-1.359,3.208-2.396c-0.994-1.415-1.457-2.704-1.849-5.015c-0.126,2.115-0.364,3.502-0.841,4.875
		c-0.435,1.261-1.064,2.396-1.835,3.334c-0.225-0.266-0.42-0.434-0.729-0.603c1.079-1.19,1.779-2.619,2.228-4.581
		c0.266-1.148,0.42-2.423,0.504-4.048c0.015-0.308,0.015-0.308,0.042-2.003h-0.294c-0.574,0-0.896,0.014-1.289,0.07V0.672
		c0.406,0.056,0.841,0.084,1.443,0.084h3.18c0.574,0,0.91-0.014,1.303-0.056c-0.07,0.336-0.07,0.336-0.28,1.275
		c-0.168,0.798-0.393,1.737-0.616,2.493h0.756c0.547,0,0.854-0.014,1.106-0.056L114.316,4.818z M109.483,1.541
		c0.141,1.947,0.267,2.802,0.603,4.021c0.378,1.316,0.841,2.311,1.555,3.348c0.742-1.05,1.205-2.059,1.653-3.656h-1.513
		c-0.379,0-0.575,0-0.827,0.014c0.393-1.219,0.631-2.115,0.953-3.726H109.483z"/>
	<path d="M120.654,11.346c-1.317,0.742-2.283,1.079-4.146,1.471c-0.14-0.294-0.309-0.532-0.561-0.798
		c1.695-0.182,2.76-0.504,3.922-1.177L120.654,11.346z M118.875,3.348c-0.7,0-1.148,0.014-1.583,0.042
		c0.042-0.308,0.057-0.56,0.057-1.008v-0.42c0-0.434-0.015-0.687-0.057-1.022c0.406,0.056,0.799,0.07,1.611,0.07h2.886V0.91
		c0-0.266-0.028-0.518-0.084-0.84h0.994c-0.056,0.294-0.084,0.574-0.084,0.84v0.098h2.983c0.813,0,1.205-0.014,1.611-0.07
		c-0.042,0.336-0.057,0.588-0.057,1.022v0.42c0,0.448,0.015,0.7,0.057,1.008c-0.435-0.028-0.883-0.042-1.583-0.042h-3.012v0.798
		h4.469c0.644,0,0.994-0.014,1.429-0.084v0.869c-0.393-0.056-0.827-0.084-1.429-0.084h-9.651c-0.603,0-1.009,0.028-1.429,0.084
		V4.062c0.42,0.07,0.784,0.084,1.429,0.084h4.356V3.348H118.875z M125.402,5.533c0.742,0,1.064-0.014,1.457-0.056
		c-0.028,0.406-0.042,0.826-0.042,1.527v2.255c0,0.714,0.014,1.163,0.056,1.457c-0.364-0.042-0.854-0.056-1.568-0.056h-6.149
		c-0.729,0-1.19,0.014-1.569,0.056c0.042-0.308,0.057-0.729,0.057-1.429V6.976c0-0.602-0.015-1.064-0.042-1.485
		c0.406,0.028,0.771,0.042,1.457,0.042H125.402z M121.789,1.681h-3.586v1.022h3.586V1.681z M118.497,7.032h7.466V6.219h-7.466V7.032
		z M118.497,8.502h7.466v-0.84h-7.466V8.502z M118.497,9.987h7.466V9.133h-7.466V9.987z M126.298,2.703V1.681h-3.684v1.022H126.298z
		 M124.421,10.87c1.316,0.659,2.27,0.925,4.091,1.121c-0.238,0.28-0.295,0.364-0.547,0.827c-1.821-0.336-2.857-0.687-4.258-1.471
		L124.421,10.87z"/>
	<path d="M132.245,1.499c0-0.518-0.028-0.868-0.084-1.289h1.036c-0.07,0.406-0.084,0.756-0.084,1.289v0.869h0.7
		c0.462,0,0.813-0.014,1.219-0.07v0.91c-0.364-0.042-0.658-0.056-1.219-0.056h-1.442c0,0.225,0,0.393,0,0.504
		c-0.015,0.477-0.015,0.477-0.057,1.429h1.415c0.448,0,0.7-0.014,0.98-0.056c-0.028,0.224-0.028,0.28-0.056,1.499
		c-0.028,1.667-0.21,3.656-0.421,4.637c-0.237,1.092-0.448,1.274-1.484,1.274c-0.238,0-0.561-0.028-0.994-0.084
		c-0.028-0.378-0.057-0.602-0.141-0.91c0.448,0.126,0.799,0.182,1.135,0.182c0.532,0,0.603-0.126,0.784-1.232
		c0.196-1.303,0.309-2.886,0.322-4.539h-1.568c-0.112,1.723-0.183,2.396-0.393,3.348c-0.28,1.232-0.826,2.409-1.653,3.459
		c-0.266-0.378-0.392-0.518-0.658-0.728c1.093-1.373,1.499-2.452,1.724-4.482c0.126-1.191,0.195-2.396,0.224-4.301h-0.435
		c-0.532,0-0.826,0.014-1.176,0.07V2.283c0.378,0.056,0.714,0.084,1.218,0.084h1.107V1.499z M136.657,2.773
		c-0.435,0.84-0.799,1.373-1.471,2.157c-0.168-0.238-0.364-0.378-0.7-0.546c0.938-0.995,1.694-2.241,2.115-3.488
		c0.069-0.21,0.14-0.448,0.153-0.532c0.028-0.182,0.028-0.182,0.042-0.266l0.953,0.196c-0.141,0.322-0.141,0.35-0.21,0.519
		c-0.211,0.518-0.253,0.63-0.505,1.163h3.922c0.659,0,1.093-0.028,1.429-0.084V2.83c-0.405-0.042-0.826-0.056-1.4-0.056H136.657z
		 M137.189,5.407c-0.364,0.603-0.645,0.953-1.148,1.485c-0.196-0.21-0.364-0.322-0.687-0.49c0.798-0.771,1.219-1.345,1.625-2.241
		c0.168-0.378,0.252-0.658,0.308-0.995l0.869,0.238c-0.07,0.154-0.253,0.56-0.421,0.953c-0.042,0.112-0.069,0.154-0.126,0.28h3.082
		c0.532,0,0.771-0.014,1.106-0.084v0.925c-0.351-0.056-0.616-0.07-1.135-0.07h-1.457c-0.056,1.359-0.069,1.429-0.14,1.975h2.031
		c0.532,0,0.896-0.028,1.261-0.084V8.25c-0.406-0.056-0.742-0.084-1.261-0.084h-1.877c0.378,0.952,0.658,1.429,1.219,2.045
		c0.658,0.714,1.274,1.121,2.367,1.597c-0.28,0.294-0.406,0.477-0.574,0.854c-1.106-0.574-1.835-1.163-2.55-2.059
		c-0.477-0.588-0.7-0.995-0.952-1.709c-0.252,0.785-0.532,1.303-0.98,1.863c-0.658,0.813-1.429,1.373-2.62,1.919
		c-0.14-0.322-0.279-0.532-0.532-0.771c1.205-0.434,2.115-1.121,2.773-2.073c0.337-0.49,0.547-1.008,0.701-1.667h-1.569
		c-0.561,0-0.896,0.014-1.289,0.07V7.312c0.351,0.056,0.673,0.07,1.303,0.07h1.695c0.098-0.687,0.126-1.022,0.14-1.975H137.189z"/>
	<path d="M143.737,12.915c1.177-1.177,1.639-1.821,2.129-2.9c0.505-1.121,0.757-2.283,0.757-3.558c0-1.275-0.252-2.438-0.757-3.558
		c-0.49-1.079-0.952-1.723-2.129-2.899h1.247c1.05,1.205,1.484,1.877,1.946,3.012c0.463,1.121,0.673,2.227,0.673,3.446
		s-0.21,2.325-0.673,3.446c-0.462,1.135-0.896,1.807-1.946,3.012H143.737z"/>
</g>
<g>
	<g>
		<line fill="none" stroke="#000000" stroke-miterlimit="10" x1="32.746" y1="15.276" x2="32.746" y2="47.617"/>
		<g>
			<path d="M27.946,40.782c0.232-0.148,0.542-0.079,0.69,0.154l4.109,6.452l4.109-6.452c0.148-0.233,0.458-0.303,0.69-0.154
				s0.3,0.46,0.153,0.691l-4.531,7.114c-0.092,0.144-0.251,0.231-0.422,0.231s-0.33-0.088-0.422-0.231l-4.531-7.114
				c-0.053-0.084-0.078-0.177-0.078-0.269C27.714,41.04,27.796,40.877,27.946,40.782z"/>
		</g>
	</g>
</g>
</svg>
