<?xml version="1.0" encoding="utf-8"?>
<!-- Generator: Adobe Illustrator 16.0.0, SVG Export Plug-In . SVG Version: 6.00 Build 0)  -->
<!DOCTYPE svg PUBLIC "-//W3C//DTD SVG 1.1//EN" "http://www.w3.org/Graphics/SVG/1.1/DTD/svg11.dtd">
<svg version="1.1" id="レイヤー_1" xmlns="http://www.w3.org/2000/svg" xmlns:xlink="http://www.w3.org/1999/xlink" x="0px"
	 y="0px" width="16.32px" height="16.319px" viewBox="0 0 16.32 16.319" enable-background="new 0 0 16.32 16.319"
	 xml:space="preserve">
<g>
	<g>
		<path d="M0.276,0v2.224c0,0,5.131,0,6.771,0c0,1.577,0,5.936,0,5.936h2.225V0H0.276z"/>
	</g>
	<g>
		<path d="M0,7.047v8.996h2.225c0,0,0-5.131,0-6.771c1.577,0,5.936,0,5.936,0V7.047H0z"/>
	</g>
	<g>
		<path d="M7.048,8.159v8.16h8.996v-2.225c0,0-5.131,0-6.771,0c0-1.577,0-5.936,0-5.936H7.048z"/>
	</g>
	<g>
		<path d="M14.096,0.275c0,0,0,5.131,0,6.771c-1.577,0-5.936,0-5.936,0v2.225h8.16V0.275H14.096z"/>
	</g>
</g>
</svg>
