<?xml version="1.0" encoding="utf-8"?>
<!-- Generator: Adobe Illustrator 16.0.0, SVG Export Plug-In . SVG Version: 6.00 Build 0)  -->
<!DOCTYPE svg PUBLIC "-//W3C//DTD SVG 1.1//EN" "http://www.w3.org/Graphics/SVG/1.1/DTD/svg11.dtd">
<svg version="1.1" id="レイヤー_1" xmlns="http://www.w3.org/2000/svg" xmlns:xlink="http://www.w3.org/1999/xlink" x="0px"
	 y="0px" width="120.336px" height="55.931px" viewBox="0 0 120.336 55.931" enable-background="new 0 0 120.336 55.931"
	 xml:space="preserve">
<path fill="#231815" d="M88.941,31.96c0.867,2.182,2.255,3.471,4.353,3.888c3.456,0.685,6.708,0.146,9.707-1.753
	c0.412-0.259,0.859-0.465,1.331-0.609c-2.751,2.931-9.862,4.458-13.928,1.419c-1.26,0.337-2.503,0.619-3.709,1.005
	c-0.657,0.208-1.297,0.529-1.872,0.907c-2.211,1.438-2.517,4.396-0.629,6.292c0.315,0.317,0.863,0.48,1.33,0.551
	c0.832,0.123,1.678,0.11,2.521,0.174c0.733,0.057,1.497-0.115,2.172,0.391c0.192,0.147,0.584-0.011,0.844,0.084
	c1.781,0.65,3.595,0.306,5.404,0.163l0.034,0.267c-0.813,0.113-1.622,0.237-2.435,0.335c-0.366,0.043-0.739,0.025-1.11,0.039
	c-0.173,0.007-0.358,0.057-0.521,0.017c-0.932-0.23-1.852-0.494-2.784-0.723c-0.362-0.09-0.735-0.147-1.106-0.175
	c-1.04-0.076-2.085-0.121-3.127-0.195c-1.733-0.12-2.184-1.512-2.577-2.804c-0.8-2.615,0.489-4.674,3.415-5.592
	c1.13-0.354,2.29-0.619,3.539-0.955c-0.061-0.932-0.875-1.418-1.237-2.229c-0.701,0.4-1.321,0.76-1.946,1.113
	c-0.624,0.352-1.155,0.259-1.392-0.452c-0.217-0.65-0.438-1.336-0.454-2.008c-0.058-3.141,0.924-6.06,1.964-8.975
	c1.119-3.127,3.3-5.269,6.026-6.974c0.402-0.251,0.776-0.557,1.236-0.891c-0.343-0.312-0.57-0.52-0.914-0.828
	c-0.085,0.373-0.137,0.636-0.205,0.893c-0.16,0.584-0.6,0.97-1.144,0.845c-0.398-0.09-0.893-0.49-1.024-0.867
	c-0.166-0.481-0.107-1.098,0.02-1.618c0.26-1.122,0.423-2.193-0.013-3.333c-0.312-0.821-0.009-1.243,0.939-1.85
	c0.388-1.25,0.635-2.524,1.17-3.661c0.492-1.046,1.181-2.051,1.982-2.886c1.145-1.192,3.865-0.883,4.878,0.449
	c0.201,0.262,0.234,0.65,0.373,1.057c1.445,1.295,1.768,3.239,2.456,5.096c0.119,0,0.317-0.012,0.515,0.002
	c0.789,0.058,1.141,0.548,0.935,1.309c-0.06,0.222-0.161,0.435-0.271,0.64c-0.478,0.891-0.559,1.808-0.304,2.791
	c0.118,0.47,0.136,0.98,0.108,1.469c-0.033,0.535-0.205,1.025-0.863,1.142c-0.665,0.115-0.95-0.284-1.188-0.787
	c-0.047-0.101-0.083-0.208-0.201-0.486c-0.234,0.228-0.398,0.387-0.609,0.594c0.294,0.203,0.454,0.321,0.622,0.427
	c2.2,1.371,3.956,3.19,5.436,5.3c1.083,1.547,1.411,3.368,1.823,5.142c0.622,2.688,1.181,5.391,1.673,8.107
	c0.205,1.132,0.175,2.309,0.25,3.495c0.612,0.204,1.248,0.393,1.863,0.626c0.806,0.301,1.309,0.887,1.355,1.757
	c0.045,0.838,0.036,1.678-0.006,2.517c-0.034,0.686-0.596,0.99-1.13,1.201c-0.888,0.346-1.808,0.631-2.725,0.897
	c-0.978,0.283-1.96,0.551-2.953,0.755c-0.64,0.131-1.3,0.129-1.954,0.201c-1.184,0.125-2.364,0.266-3.548,0.39
	c-0.721,0.074-1.44,0.165-2.163,0.183c-0.655,0.018-1.215-0.162-1.687-0.722c-0.296-0.35-0.804-0.57-1.258-0.724
	c-1.733-0.583-3.153-1.475-4.11-3.143c-0.608-1.053-1.768-1.534-2.995-1.658c-0.546-0.056-1.128,0.077-1.65-0.055
	c-0.387-0.098-0.839-0.42-1.007-0.764c-0.222-0.451,0.251-0.658,0.622-0.871c0.851-0.489,1.757-0.551,2.69-0.457
	c0.513,0.052,0.857,0.299,1.144,0.796c0.742,1.28,1.57,2.507,2.392,3.739c0.646,0.971,1.716,1.342,2.684,1.867
	c0.702,0.382,1.343,0.872,2.034,1.278c0.26,0.153,0.586,0.299,0.874,0.288c1.068-0.049,2.136-0.173,3.207-0.25
	c1.121-0.079,2.249-0.136,3.37-0.205c0.146-0.009,0.295-0.018,0.432-0.059c2.115-0.624,4.233-1.246,6.345-1.887
	c0.742-0.227,1.184-0.697,1.098-1.545c-0.035-0.345-0.029-0.701-0.011-1.047c0.103-1.577-0.718-2.478-2.941-2.515
	c-0.373,0.705-0.729,1.396-1.111,2.078c-0.038,0.071-0.192,0.079-0.478,0.185c0.089-0.34,0.089-0.568,0.2-0.716
	c1.226-1.642,1.209-3.521,0.836-5.357c-0.795-3.872-1.701-7.721-2.621-11.566c-0.395-1.637-1.551-2.836-2.676-4.021
	c-0.35-0.369-0.742-0.702-1.179-1.112c-0.248,3.447-0.483,6.755-0.723,10.085c1.295-1.598,1.932-3.516,2.546-5.663
	c0.106,0.307,0.202,0.436,0.177,0.534c-1.022,3.98-2.897,7.383-6.727,9.287c-2.476,1.23-4.564,0.042-6.048-1.804
	c-0.126-0.157-0.147-0.395-0.215-0.598l0.17-0.107c0.275,0.335,0.55,0.669,0.87,1.059c2.386-0.558,4.799-0.793,7.3-0.511
	c1.158-0.894,1.42-2.198,1.523-3.639c-1.216-0.346-2.508-0.54-3.184-1.815c1.013,0.482,1.881,1.333,3.253,1.188
	c0.111-0.839,0.267-1.688,0.324-2.541c0.114-1.623,0.139-3.255,0.26-4.881c0.064-0.86-0.196-1.458-0.986-1.83
	c-0.307-0.144-0.58-0.368-0.849-0.541c-2.977,2.398-5.299,2.384-7.235-0.042c-0.629,0.255-1.07,0.587-1.177,1.387
	c-0.286,2.156-0.577,4.299-0.313,6.489c-0.687-1.043-0.452-2.219-0.39-3.352c0.066-1.155,0.22-2.301,0.179-3.582
	c-0.714,0.615-1.449,1.203-2.138,1.844c-1.317,1.227-2.324,2.663-2.888,4.396c-0.516,1.597-1.062,3.184-1.605,4.806
	c1.384,0.095,2.141-0.361,1.975-1.122c-0.4,0.044-0.803,0.09-1.208,0.136l-0.043-0.187c0.385-0.151,0.768-0.297,1.192-0.463
	c-0.02-0.356-0.063-0.669-0.052-0.981c0.029-0.772,0.147-1.479,0.919-1.943c0.31-0.187,0.479-0.61,0.753-0.973
	c0.251,0.136,0.471,0.25,0.65,0.343c0.4-0.221,0.782-0.432,1.357-0.751c0.121,1.016,0.215,1.802,0.303,2.527
	c0.357,0.04,0.808-0.039,0.975,0.144c0.222,0.248,0.222,0.694,0.354,1.195c0.915-0.438,1.825-0.876,2.735-1.312l0.111,0.209
	c-0.851,0.692-1.895,1.054-2.984,1.576C92.516,28.108,91.648,30.513,88.941,31.96 M95.866,15.072l0.038,0.045l-0.054-0.028
	c-0.114-0.049-0.232-0.099-0.347-0.15l0.004-0.016C95.627,14.971,95.746,15.021,95.866,15.072z M94.611,3.007
	c-0.138,0.06-0.276,0.119-0.418,0.179l0.07,0.111c0.111-0.103,0.22-0.204,0.335-0.305h0.29l-0.017-0.094L94.611,3.007z
	 M97.754,3.747c0.296,0,0.591,0,0.888,0L98.62,3.571c-0.293,0.064-0.589,0.125-0.881,0.191c-0.544-0.514-1.427-0.521-1.836-0.015
	C96.521,3.747,97.139,3.747,97.754,3.747z M99.195,3.194c-0.369-0.702-0.524-0.725-1.16-0.208c0.373,0.062,0.773,0.125,1.174,0.194
	c0.396,0.191,0.796,0.383,1.192,0.573l-0.103,0.25c-0.338-0.031-0.672-0.065-1.011-0.097c0.889,0.505,0.889,0.505,1.422,0.248
	C100.385,3.224,100.21,3.114,99.195,3.194z M93.005,4.671c-0.109,0.304-0.219,0.611-0.38,1.056c0.586-0.393,1.256-0.599,1.39-0.986
	c0.232-0.674,0.695-0.815,1.229-1.045c-0.568,0.004-1.114,0.085-1.659,0.181c-0.445,0.079-0.61,0.381-0.593,0.806L93.005,4.671z
	 M95.855,5.117c-1.56-0.434-2.515,0.697-3.626,1.41l-0.034,0.205c0.646,0.075,0.573,0.536,0.523,1.002
	c-0.103,0.894-0.241,1.789-0.266,2.687c-0.066,1.98,0.836,3.299,2.754,3.813c1.208,0.321,2.487,0.381,3.737,0.55l0.245-0.08
	c1.061-0.681,2.125-1.376,2.222-2.802c0.068-1.068,0.134-2.147,0.087-3.214c-0.029-0.722-0.25-1.433,0.517-2.073
	c-0.396-0.02-0.644-0.031-0.906-0.045c-0.163-0.741-0.664-0.984-1.333-1.068C99.29,5.44,98.818,5.23,98.333,5.193
	c-0.825-0.065-1.659-0.046-2.487-0.063L95.855,5.117z M90.867,21.746l-0.25-0.101c-1.251,0.623-0.899,1.9-1.045,2.977l-0.248-0.01
	c-0.058-0.847-0.113-1.697-0.168-2.544l-0.258-0.008c-0.108,0.997-0.215,1.995-0.321,2.991l-0.19,0.023
	c-0.051-0.688-0.101-1.376-0.151-2.065l-0.205,0.03c-0.636,2.099,0.051,4.04,0.95,5.959l-0.23,0.191
	c-0.21-0.336-0.424-0.669-0.69-1.088c-0.697,0.58-1.312,1.093-1.926,1.604l-0.196-0.223c0.64-0.594,1.277-1.187,1.966-1.827
	c-0.047-0.196-0.107-0.436-0.182-0.734c-0.801,0.241-1.539,0.464-2.242,0.674c-0.685,2.862-0.513,4.885,0.53,5.846
	c0.302-0.158,0.664-0.285,0.953-0.508c1.058-0.816,2.104-1.646,3.122-2.505c2.007-1.688,2.224-3.953,1.98-6.353l-0.156-0.092
	c-0.213,0.842-0.427,1.679-0.638,2.517l-0.149-0.059c-0.076-1.158-0.153-2.316-0.23-3.474l-0.262,0.014
	c-0.038,0.523-0.076,1.046-0.114,1.57l-0.275,0.003c0-0.483-0.078-0.985,0.022-1.447C90.378,22.634,90.659,22.198,90.867,21.746z
	 M102.745,9.161l0.253,0.226c-1.206,0.373-0.93,1.278-1.013,2.064c-0.045,0.4-0.23,0.792-0.241,1.191
	c-0.018,0.503,0.022,1.025,0.159,1.504c0.056,0.187,0.463,0.405,0.671,0.371c0.201-0.03,0.49-0.361,0.504-0.572
	c0.027-0.542-0.023-1.104-0.142-1.635c-0.217-0.999-0.274-1.943,0.358-2.841c0.189-0.271,0.309-0.639,0.326-0.97
	c0.009-0.185-0.251-0.529-0.409-0.54c-0.279-0.02-0.638,0.09-0.841,0.278c-0.206,0.188-0.26,0.537-0.39,0.835
	C102.317,9.11,102.529,9.137,102.745,9.161z M94.023,29.736l-0.009,0.272c1.633,1.533,4.869,1.254,6.118-0.702
	C98.01,29.457,96.017,29.597,94.023,29.736z M91.652,9.786l-0.196-0.081c0.09-0.209,0.132-0.467,0.282-0.622
	c0.622-0.659,0.626-0.679-0.258-1.006c-0.495,0.255-0.606,0.733-0.421,1.175c0.517,1.24,0.254,2.433-0.022,3.661
	c-0.104,0.458-0.066,0.982,0.051,1.44c0.054,0.208,0.463,0.466,0.698,0.452c0.241-0.014,0.615-0.292,0.669-0.519
	c0.113-0.465,0.132-0.985,0.049-1.459c-0.188-1.064-0.463-2.112-0.693-3.132C91.874,9.659,91.764,9.722,91.652,9.786z
	 M91.007,38.832c-0.631-1.518-0.998-1.755-2.463-1.508c-0.076,0.199-0.156,0.395-0.226,0.58c-0.506,0-0.953,0-1.4,0
	c-0.02,0.102-0.038,0.205-0.059,0.303c0.291,0.096,0.569,0.239,0.87,0.276C88.823,38.621,89.922,38.718,91.007,38.832z
	 M100.387,14.466c-0.277,0.141-0.601,0.206-0.754,0.403c-0.571,0.736-1.416,0.913-2.222,1.05c-1.015,0.172-1.968-0.025-2.529-1.068
	c-0.095-0.176-0.31-0.288-0.584-0.532c0.194,1.324,1.476,2.034,3.095,1.92C98.982,16.125,100.394,15.331,100.387,14.466z
	 M94.902,2.182l0.066,0.149C95.265,2.214,95.56,2.096,95.803,2c0.072-0.477,0.13-0.84,0.188-1.203l-0.243-0.083
	c-0.146,0.369-0.29,0.738-0.431,1.108l0.161,0.08C95.285,1.997,95.095,2.089,94.902,2.182z M100.613,4.965
	c0.322,0.362,0.631,0.709,1.04,1.172C101.338,5.551,101.342,4.874,100.613,4.965z M99.009,1.271l-0.175,0.154
	C99,1.637,99.169,1.85,99.337,2.061l0.156-0.123C99.328,1.715,99.168,1.492,99.009,1.271z M97.294,1.667l0.161,0.229
	c0.158-0.169,0.324-0.342,0.481-0.514l-0.123-0.134C97.642,1.387,97.466,1.527,97.294,1.667z M98.438,4.313l-0.119,0.166
	c0.147,0.065,0.295,0.127,0.441,0.193l0.06-0.113C98.692,4.476,98.566,4.395,98.438,4.313z M97.731,4.379l-0.068-0.138l-0.282,0.141
	L97.45,4.52L97.731,4.379z M94.883,4.571l-0.034-0.132c-0.103,0.023-0.203,0.048-0.303,0.071l0.039,0.147
	C94.685,4.629,94.784,4.601,94.883,4.571z M95.69,4.296V4.41l0.213,0.037V4.258L95.69,4.296z M96.825,1.351l-0.047-0.099
	c-0.054,0.028-0.106,0.06-0.292,0.161C96.696,1.374,96.761,1.363,96.825,1.351z M96.036,2.776l-0.021-0.062L95.81,2.781l0.027,0.083
	L96.036,2.776z M99.411,4.698l-0.047,0.036l0.113,0.148l0.052-0.041L99.411,4.698z M98.114,15.161l-0.125-0.011l0.058,0.046
	L98.114,15.161z M94.271,2.366l-0.124-0.069l-0.049,0.061l0.076,0.113L94.271,2.366z M98.197,1.03l-0.096-0.013l0.042,0.04
	L98.197,1.03z M101.924,7.418l0.014-0.069L101.85,7.37l0.025,0.063L101.924,7.418z M93.764,3.297l-0.045-0.034l-0.013,0.047
	L93.764,3.297z M97.258,0.808l-0.007,0.048l0.056-0.02L97.258,0.808z"/>
<path fill="#231815" d="M107.857,34.432c-0.95,0.347-1.995,0.066-2.534,1.005c0.557-0.104,1.08-0.266,1.609-0.289
	c1.307-0.053,2.066,0.895,1.934,2.189c-0.156,1.5-1.186,2.525-1.893,3.717c-0.282,0.477-0.794,0.699-1.443,0.48
	c-0.36-0.119-0.799,0.023-1.203,0.004c-2.615-0.135-4.98-1.01-7.157-2.428l-0.26-0.229c-0.031-0.036-0.027-0.107-0.069-0.286
	c1.104,0.495,2.116,1.015,3.179,1.408c1.076,0.4,2.202,0.681,3.487,1.068c-1.024-1.296,0.478-2.159,0.151-3.284
	c-0.456-0.174-0.955-0.364-1.454-0.556l0.054-0.21c0.156-0.037,0.309-0.108,0.463-0.108c0.906-0.007,1.53-0.258,1.917-1.241
	C105.129,34.408,106.614,33.866,107.857,34.432 M106.148,40.982c0.97-0.66,1.023-0.824,0.95-2.822
	c-0.865-0.721-0.865-0.721-0.615-1.231c0.388,0.258,0.778,0.522,1.217,0.82c-0.027,0.286-0.063,0.679-0.098,1.07
	c0.108,0.022,0.215,0.044,0.321,0.067c0.159-0.564,0.38-1.117,0.468-1.691c0.139-0.929-0.523-1.62-1.465-1.63
	c-1.009-0.011-2.222,0.732-2.537,1.688c-0.281,0.855-0.416,1.76-0.614,2.645l0.139,0.067c0.226-0.364,0.454-0.728,0.685-1.091
	l0.215,0.073c-0.184,0.647-0.365,1.294-0.546,1.939l0.222,0.074c0.298-0.735,0.597-1.472,0.893-2.207l0.248,0.073
	c-0.119,0.63-0.239,1.261-0.382,2.011c1.024-0.539,0.53-1.526,1.029-2.317C106.699,39.456,106.303,40.2,106.148,40.982z"/>
<path fill="#231815" d="M92.508,37.251c0.345,0.212,0.701,0.41,1.033,0.641c0.951,0.66,1.87,1.373,2.844,1.994
	c1.923,1.221,4.095,1.572,6.314,1.742c0.272,0.021,0.548,0.036,0.822,0.056c0.022,0.103,0.039,0.206,0.061,0.307
	c-0.281,0.067-0.563,0.196-0.841,0.185c-2.053-0.082-4.062-0.471-5.845-1.503c-1.588-0.919-3.076-2.017-4.611-3.036
	C92.363,37.508,92.436,37.38,92.508,37.251"/>
<path fill="#231815" d="M90.915,32.257c0.203,0.055,0.352,0.047,0.4,0.114c1.478,2.063,3.505,2.09,5.682,1.546
	c1.701-0.426,3.207-1.184,4.334-2.585c0.063-0.077,0.184-0.104,0.432-0.042c-0.109,0.199-0.19,0.42-0.329,0.594
	c-1.742,2.166-6.169,3.609-9.237,2.018C91.572,33.578,90.971,33.179,90.915,32.257"/>
<path fill="#231815" d="M100.933,31.318c-1.782,1.712-3.885,2.408-6.372,1.92c-1.042-0.205-1.932-0.604-2.458-1.533l0.172-0.252
	c0.18,0.125,0.421,0.214,0.523,0.387c0.447,0.715,1.153,0.932,1.914,1.057c1.768,0.289,3.398-0.055,4.89-1.071
	c0.387-0.268,0.791-0.522,1.188-0.787L100.933,31.318"/>
<path fill="#231815" d="M104.832,27.112c-0.184,1.684-0.358,3.301-0.533,4.922C103.682,31.372,104.01,28.044,104.832,27.112"/>
<path fill="#231815" d="M108.19,32.347c-1.429,0.457-2.714,0.981-3.48,2.397C104.513,33.437,106.815,31.882,108.19,32.347"/>
<path fill="#231815" d="M90.646,43.421c0.36-0.146,0.718-0.293,1.076-0.438c0.047,0.116,0.092,0.235,0.137,0.351
	c-0.363,0.136-0.728,0.27-1.09,0.405C90.73,43.632,90.688,43.527,90.646,43.421"/>
<path fill="#231815" d="M93.567,43.547c-0.348,0.24-0.695,0.479-1.045,0.721l-0.177-0.255c0.345-0.245,0.691-0.488,1.034-0.734
	L93.567,43.547"/>
<path fill="#231815" d="M94.164,43.99c0.201-0.146,0.4-0.291,0.602-0.434l0.162,0.225c-0.201,0.146-0.398,0.292-0.6,0.435
	L94.164,43.99"/>
<path fill="#231815" d="M98.199,11.919c0.139,0.26,0.282,0.527,0.479,0.904c-0.885,0-1.682,0-2.65,0
	c0.251-0.408,0.443-0.728,0.622-1.025C97.19,11.841,97.642,11.875,98.199,11.919"/>
<path fill="#231815" d="M100.72,7.65c-1.1,0.013-2.053,0.26-2.767,1.18c-0.117-0.784,0.298-1.142,0.842-1.347
	C99.435,7.238,100.107,6.993,100.72,7.65"/>
<path fill="#231815" d="M94.236,7.455c0.874-0.546,1.65-0.231,2.384,0.186c0.447,0.253,0.693,0.67,0.441,1.341
	C96.561,7.607,95.379,7.575,94.236,7.455"/>
<path fill="#231815" d="M96.352,11.085c0.836,0,1.532,0,2.226,0C98.217,11.75,97.209,11.822,96.352,11.085"/>
<path fill="#231815" d="M100.603,8.864c-0.663,0.71-1.382,0.809-1.971,0.187C99.309,8.907,100.586,8.79,100.603,8.864"/>
<path fill="#231815" d="M94.258,8.949c0.657,0.073,1.284,0.147,1.942,0.222C95.638,9.741,94.851,9.644,94.258,8.949"/>
<path fill="#231815" d="M97.009,13.216c0.234-0.012,0.47-0.023,0.705-0.034l0.018,0.264c-0.234,0.017-0.47,0.031-0.704,0.047
	L97.009,13.216"/>
<polyline fill="#231815" points="95.84,5.13 95.855,5.117 95.84,5.13 "/>
<path fill="#231815" d="M90.474,25.453c-0.345,0.357-0.69,0.713-1.038,1.071l-0.215-0.205c0.331-0.368,0.659-0.737,0.989-1.107
	L90.474,25.453"/>
<path fill="#231815" d="M90.252,26.73c-0.342,0.39-0.684,0.783-1.026,1.172L88.986,27.7c0.333-0.392,0.662-0.785,0.997-1.177
	L90.252,26.73"/>
<path fill="#231815" d="M92.992,4.68c0.25-0.155,0.499-0.308,0.749-0.464l0.1,0.274c-0.279,0.061-0.557,0.118-0.836,0.179
	L92.992,4.68"/>
<path fill="#231815" d="M97.995,6.501c0,0.23-0.186,0.417-0.415,0.417c-0.232,0-0.418-0.187-0.418-0.417
	c0-0.23,0.186-0.418,0.418-0.418C97.81,6.084,97.995,6.272,97.995,6.501"/>
<path d="M38.856,24.937l-0.655,0.329v-4.389c0-0.198,0.197-0.393,0.393-0.393h33.136c0.198,0,0.392,0.198,0.392,0.393v4.389
	L71.4,24.937l7.599-6.352v0.589L71.4,12.823l0.721-0.329v4.389c0,0.197-0.196,0.392-0.392,0.392H38.594
	c-0.201,0-0.393-0.196-0.393-0.392v-4.389l0.655,0.329l-7.531,6.352v-0.589 M30.8,19.174c-0.13-0.067-0.196-0.198-0.196-0.329
	c0-0.065,0.066-0.196,0.196-0.261l7.532-6.418c0.129-0.131,0.328-0.131,0.458-0.066c0.13,0.066,0.262,0.196,0.262,0.392v4.389
	l-0.458-0.458h33.135l-0.458,0.458v-4.389c0-0.197,0.13-0.327,0.26-0.392c0.132-0.067,0.329-0.067,0.461,0.066l7.529,6.418
	c0.13,0.066,0.13,0.197,0.13,0.261c0,0.131,0,0.262-0.13,0.329l-7.529,6.418c-0.132,0.131-0.329,0.131-0.461,0.067
	c-0.13-0.067-0.26-0.262-0.26-0.392v-4.389l0.458,0.458H38.594l0.458-0.458v4.389c0,0.13-0.132,0.328-0.262,0.392
	c-0.13,0.066-0.328,0.066-0.458-0.067L30.8,19.174z"/>
<path d="M79.731,8.122c-0.385,0-0.679,0.264-0.679,0.678c0,0.413,0.296,0.677,0.679,0.677c0.373,0,0.678-0.264,0.678-0.677
	S80.104,8.122,79.731,8.122z M80.183,6.893c0-0.755,0.275-0.974,1.092-1.542c0.757-0.529,1.16-0.981,1.16-1.796
	c0-1.201-0.933-1.956-2.388-1.956c-0.855,0-1.445,0.216-1.868,0.568c-0.354,0.296-0.599,0.688-0.737,1.119l-0.03,0.167
	c0,0.215,0.177,0.334,0.365,0.383l0.177,0.021c0.177,0,0.333-0.087,0.411-0.324c0.227-0.667,0.728-1.131,1.631-1.131
	c0.933,0,1.494,0.463,1.494,1.19c0,0.501-0.215,0.755-0.941,1.267c-0.58,0.393-0.689,0.491-0.886,0.748
	c-0.267,0.335-0.364,0.659-0.364,1.277v0.275c0,0.255,0.196,0.384,0.449,0.384c0.248,0,0.433-0.126,0.433-0.384V6.894L80.183,6.893
	L80.183,6.893z M72.177,8.142c-0.382,0-0.678,0.264-0.678,0.678c0,0.413,0.296,0.677,0.678,0.677c0.364,0,0.678-0.264,0.678-0.677
	S72.541,8.142,72.177,8.142z M71.783,7.208c0,0.225,0.188,0.334,0.393,0.334c0.198,0,0.384-0.109,0.394-0.334l0.137-5.031
	c0.011-0.275-0.206-0.451-0.524-0.451c-0.324,0-0.539,0.176-0.539,0.451L71.783,7.208z M60.624,3.149
	c-0.227,0.403-0.461,0.806-0.738,1.179l-0.196-0.028c-0.215,0-0.364,0.098-0.364,0.275v0.48c-0.432,0.501-0.894,0.963-1.395,1.366
	c-0.098,0.079-0.147,0.197-0.147,0.314l0.088,0.254c0.069,0.089,0.177,0.138,0.286,0.138l0.255-0.098
	c0.335-0.286,0.659-0.6,0.962-0.924c-0.038,0.452-0.049,0.914-0.049,1.377v2.417c0,0.187,0.139,0.296,0.364,0.296
	c0.215,0,0.384-0.109,0.384-0.296V5.299c0.521-0.668,0.994-1.386,1.367-2.152h5.118c0.177,0,0.275-0.147,0.275-0.354
	c0-0.215-0.099-0.353-0.275-0.353h-4.798c0.15-0.324,0.267-0.667,0.385-1.002l0.021-0.127c0-0.147-0.109-0.247-0.305-0.285
	l-0.089-0.011c-0.186,0-0.313,0.079-0.362,0.255c-0.128,0.392-0.275,0.786-0.439,1.168h-2.684C58.113,2.438,58,2.576,58,2.791
	c0,0.216,0.113,0.354,0.288,0.354h2.337L60.624,3.149L60.624,3.149z M63.847,9.065V6.344h2.241c0.177,0,0.275-0.139,0.275-0.343
	c0-0.206-0.099-0.344-0.275-0.344h-2.241V4.066c0-0.196-0.146-0.295-0.373-0.295c-0.236,0-0.392,0.099-0.392,0.295v1.591h-1.966
	c-0.177,0-0.288,0.128-0.288,0.344c0,0.206,0.111,0.343,0.288,0.343h1.966v2.721h-2.39c-0.172,0-0.274,0.138-0.274,0.344
	c0,0.215,0.103,0.353,0.274,0.353h5.848c0.177,0,0.274-0.137,0.274-0.353c0-0.206-0.098-0.344-0.274-0.344H63.847z M53.628,7.09
	v1.956c0,0.246-0.108,0.304-0.492,0.304c-0.234,0-0.44-0.04-0.626-0.1l-0.101-0.01c-0.158,0-0.275,0.088-0.313,0.266l-0.021,0.126
	c0,0.158,0.089,0.276,0.247,0.314c0.256,0.069,0.562,0.1,0.886,0.1c0.787,0,1.149-0.255,1.149-0.806V7.087h2.467
	c0.168,0,0.255-0.138,0.255-0.343s-0.087-0.343-0.255-0.343h-2.467V6.01c0.688-0.324,1.298-0.706,1.758-1.129
	c0.159-0.158,0.237-0.334,0.237-0.49c0-0.286-0.237-0.522-0.659-0.522h-4.029c-0.177,0-0.274,0.127-0.274,0.334
	c0,0.198,0.098,0.344,0.274,0.344h3.51c0.111,0,0.159,0.028,0.159,0.077l-0.111,0.148c-0.251,0.226-0.688,0.501-1.111,0.698
	l-0.116-0.01c-0.218,0-0.365,0.088-0.365,0.265v0.677h-2.661c-0.168,0-0.266,0.138-0.266,0.343s0.098,0.344,0.266,0.344L53.628,7.09
	L53.628,7.09z M50.16,5.144c0.591-0.706,1.07-1.493,1.483-2.319h5.1c0.177,0,0.275-0.148,0.275-0.354
	c0-0.215-0.099-0.353-0.275-0.353h-4.775c0.09-0.226,0.188-0.452,0.275-0.689l0.021-0.117c0-0.138-0.114-0.247-0.315-0.285
	l-0.128-0.011c-0.163,0-0.274,0.088-0.323,0.247c-0.109,0.295-0.213,0.579-0.336,0.854h-2.799c-0.188,0-0.274,0.138-0.274,0.353
	c0,0.205,0.087,0.354,0.274,0.354h2.479c-0.267,0.491-0.55,0.974-0.896,1.415l-0.166-0.021c-0.215,0-0.384,0.088-0.384,0.275v0.414
	c-0.384,0.422-0.796,0.805-1.267,1.178c-0.1,0.078-0.149,0.188-0.149,0.295l0.079,0.247c0.089,0.117,0.196,0.177,0.315,0.177
	l0.234-0.088c0.218-0.177,0.492-0.441,0.787-0.776v3.911c0,0.187,0.166,0.285,0.384,0.285c0.237,0,0.385-0.098,0.385-0.285V5.143
	L50.16,5.144L50.16,5.144z M40.522,1.489h-0.02c-0.256,0-0.414,0.158-0.425,0.413c-0.069,1.444-0.115,3.263-0.115,4.787
	c0,1.25,0.206,1.887,0.657,2.329c0.481,0.462,1.171,0.678,2.094,0.678c1.013,0,1.936-0.335,2.662-1.041
	c0.591-0.569,1.002-1.366,1.307-2.359l0.029-0.166c0-0.198-0.127-0.353-0.304-0.403l-0.159-0.028c-0.165,0-0.304,0.109-0.373,0.335
	c-0.239,0.814-0.602,1.503-1.042,1.956c-0.58,0.599-1.345,0.844-2.103,0.844c-0.678,0-1.17-0.109-1.494-0.413
	c-0.313-0.304-0.433-0.815-0.433-1.74c0-1.571,0.079-3.311,0.128-4.755v-0.03C40.933,1.646,40.796,1.499,40.522,1.489z
	 M46.204,2.756c-0.207-0.324-0.523-0.727-0.778-1.013c-0.069-0.078-0.166-0.117-0.265-0.117l-0.206,0.068
	c-0.085,0.069-0.147,0.167-0.147,0.275l0.078,0.197c0.235,0.254,0.521,0.649,0.728,0.981c0.078,0.117,0.188,0.167,0.295,0.167
	l0.206-0.069c0.089-0.059,0.158-0.166,0.158-0.285L46.204,2.756z M45.19,3.375c-0.206-0.335-0.522-0.749-0.806-1.051
	c-0.069-0.079-0.158-0.117-0.255-0.117l-0.213,0.069c-0.103,0.068-0.159,0.177-0.159,0.285l0.078,0.205
	c0.253,0.296,0.559,0.699,0.776,1.013c0.068,0.098,0.166,0.138,0.264,0.138l0.227-0.06C45.2,3.797,45.25,3.69,45.25,3.581
	L45.19,3.375z M37.018,2.333c0-0.599-0.345-0.884-0.964-0.884h-6.27c-0.629,0-0.964,0.285-0.964,0.884v7.508
	c0,0.177,0.166,0.296,0.384,0.296c0.226,0,0.395-0.109,0.395-0.286V2.453c0-0.237,0.106-0.305,0.333-0.305h5.983
	c0.226,0,0.335,0.069,0.335,0.296V8.84c0,0.335-0.078,0.413-0.61,0.413c-0.305,0-0.678-0.039-0.991-0.108l-0.098-0.011
	c-0.158,0-0.267,0.099-0.305,0.276l-0.011,0.108c0,0.187,0.108,0.305,0.286,0.335c0.354,0.069,0.813,0.109,1.257,0.109
	c0.924,0,1.239-0.314,1.239-0.925V2.333L37.018,2.333z M31.807,7.533c-0.186,0-0.275-0.049-0.275-0.266V5.812
	c0-0.215,0.09-0.264,0.275-0.264h2.153c0.196,0,0.286,0.049,0.286,0.264v1.455c0,0.216-0.09,0.266-0.286,0.266H31.807z M34.98,5.625
	c0-0.521-0.245-0.748-0.806-0.748H31.61c-0.562,0-0.806,0.226-0.806,0.748v1.839c0,0.522,0.247,0.748,0.806,0.748h2.564
	c0.562,0,0.806-0.226,0.806-0.748V5.625z M35.345,3.856c0.177,0,0.275-0.147,0.275-0.343S35.521,3.18,35.345,3.18h-4.884
	c-0.177,0-0.275,0.137-0.275,0.334c0,0.205,0.098,0.343,0.275,0.343H35.345z"/>
<path d="M118.495,54.811c0.74-0.844,1.043-1.316,1.369-2.114c0.324-0.787,0.472-1.563,0.472-2.417c0-0.854-0.147-1.632-0.472-2.419
	c-0.326-0.795-0.629-1.266-1.369-2.113h-0.874c0.825,0.826,1.151,1.277,1.494,2.034c0.354,0.787,0.531,1.603,0.531,2.496
	s-0.178,1.708-0.531,2.495c-0.343,0.757-0.669,1.209-1.494,2.033h0.874V54.811z M109.341,48.089
	c0.433,0.668,0.629,1.053,0.953,1.847l0.55-0.286c-0.384-0.837-0.55-1.16-0.973-1.818L109.341,48.089z M112.546,50.093v-2.572h2.524
	c0.472,0,0.776,0.021,1.072,0.06v-0.688c-0.248,0.049-0.531,0.068-1.092,0.068h-2.505v-0.325c0-0.392,0.009-0.568,0.058-0.815
	h-0.727c0.04,0.266,0.06,0.481,0.06,0.815v0.325h-2.33c-0.433,0-0.728-0.021-1.07-0.068v0.688c0.343-0.039,0.667-0.06,1.054-0.06
	h2.347v2.572h-2.848c-0.45,0-0.74-0.02-1.07-0.068v0.697c0.395-0.039,0.689-0.059,1.081-0.059h2.565
	c-0.551,0.697-0.638,0.795-1.002,1.149c-0.796,0.786-1.721,1.425-2.731,1.915c0.215,0.217,0.284,0.314,0.441,0.57
	c0.647-0.363,1.189-0.729,1.756-1.201c0.789-0.649,1.217-1.14,1.846-2.114c-0.029,0.59-0.038,0.756-0.038,1.052v1.757
	c0,0.403-0.02,0.659-0.068,0.954h0.746c-0.049-0.285-0.068-0.55-0.068-0.954v-1.757c0-0.255-0.014-0.522-0.041-1.063
	c0.542,0.777,0.875,1.179,1.387,1.651c0.727,0.659,1.483,1.168,2.479,1.671c0.139-0.255,0.246-0.413,0.423-0.609
	c-1.002-0.413-1.797-0.915-2.652-1.66c-0.465-0.403-0.678-0.629-1.298-1.366h2.732c0.472,0,0.796,0.02,1.101,0.06V50.02
	c-0.236,0.05-0.512,0.069-1.078,0.069h-1.456c0.44-0.688,0.749-1.248,1.091-2.004l-0.609-0.246
	c-0.336,0.886-0.618,1.434-1.171,2.252h-0.906V50.093z M103.527,47.47h2.347v5.739h-2.347V47.47z M103.517,53.79h2.357v0.717h0.688
	c-0.038-0.226-0.049-0.551-0.049-0.975V47.87c0-0.463,0.011-0.737,0.049-1.03c-0.236,0.038-0.462,0.049-0.795,0.049h-2.134
	c-0.354,0-0.569-0.011-0.797-0.049c0.038,0.324,0.06,0.648,0.06,1.03v5.504c0,0.578-0.021,0.854-0.06,1.129h0.678v-0.714
	L103.517,53.79L103.517,53.79z M101.406,48.355c-0.188,1.641-0.424,2.506-0.943,3.419c-0.385-0.294-0.61-0.451-1.269-0.902
	c0.345-0.767,0.727-1.866,0.876-2.517H101.406z M99.017,47.804c-0.365,0-0.61-0.021-0.866-0.06v0.668
	c0.267-0.039,0.492-0.061,0.806-0.061h0.479c-0.275,1.052-0.567,1.819-1.005,2.723c0.778,0.48,1.115,0.706,1.712,1.188
	c-0.53,0.748-1.042,1.2-2.015,1.77c0.177,0.147,0.341,0.353,0.44,0.54c1.052-0.717,1.533-1.169,2.054-1.906
	c0.474,0.401,0.707,0.617,1.307,1.237l0.402-0.568c-0.669-0.6-0.933-0.825-1.386-1.188c0.624-1.151,0.901-2.133,1.1-4
	c0.02-0.177,0.02-0.235,0.041-0.384c-0.218,0.029-0.466,0.039-0.896,0.039h-0.991c0.099-0.432,0.166-0.767,0.166-0.776
	c0.177-0.875,0.177-0.875,0.245-1.14l-0.754-0.068l0.009,0.099c0,0.324-0.117,1.03-0.295,1.887L99.017,47.804L99.017,47.804z
	 M97.232,54.811c-0.825-0.836-1.149-1.277-1.494-2.033c-0.354-0.786-0.53-1.602-0.53-2.495c0-0.895,0.177-1.709,0.53-2.497
	c0.345-0.755,0.669-1.2,1.494-2.033h-0.874c-0.738,0.844-1.043,1.317-1.367,2.113c-0.326,0.787-0.474,1.564-0.474,2.419
	c0,0.854,0.147,1.629,0.474,2.416c0.324,0.796,0.629,1.269,1.367,2.114h0.874V54.811z M81.642,48.453
	c0.324-0.55,0.669-1.247,0.865-1.757c0.109-0.265,0.128-0.324,0.248-0.569l-0.7-0.254c-0.06,0.343-0.226,0.816-0.44,1.306
	c-0.542,1.2-1.25,2.161-2.241,3.056c0.196,0.188,0.215,0.217,0.411,0.552c0.651-0.639,0.915-0.953,1.269-1.554
	c-0.029,0.442-0.04,0.728-0.04,1.19v3.173c0,0.53-0.02,0.836-0.069,1.18h0.768c-0.049-0.353-0.069-0.679-0.069-1.14V48.453
	L81.642,48.453z M84.875,46.067c-0.04,0.55-0.205,1.386-0.53,2.633c-0.44,1.72-0.973,3.293-1.59,4.766
	c-0.277,0.01-0.346,0.01-0.414,0.01c-0.087,0-0.149,0-0.275-0.01l0.137,0.728c0.256-0.039,0.364-0.049,0.915-0.109
	c1.427-0.137,2.948-0.342,4.462-0.599c0.147,0.373,0.205,0.539,0.373,1.062l0.64-0.303c-0.64-1.66-1.229-2.898-2.143-4.433
	l-0.57,0.265c0.767,1.269,1.017,1.751,1.483,2.87c-1.338,0.205-2.721,0.373-3.921,0.473c0.707-1.592,1.355-3.686,2.055-6.572
	c0.069-0.314,0.117-0.481,0.166-0.619L84.875,46.067z"/>
<path d="M17.121,50.428v-1.345h1.592v1.345H17.121z M17.121,52.403v-1.445h1.592v1.445H17.121z M16.531,50.958v1.444h-1.442v-1.444
	H16.531z M16.531,49.082v1.345h-1.442v-1.345H16.531z M16.531,48.532H15.42c-0.489,0-0.748-0.01-0.963-0.04
	c0.028,0.266,0.04,0.473,0.04,0.865v3.332c0,0.402-0.012,0.639-0.04,0.893h0.627v-0.638h1.444v1.887c0,0.452-0.021,0.766-0.06,1.101
	h0.707c-0.041-0.296-0.062-0.648-0.062-1.119v-1.866h1.583v0.579h0.638c-0.027-0.255-0.038-0.481-0.038-0.894v-3.272
	c0-0.441,0.011-0.628,0.038-0.864c-0.235,0.029-0.461,0.039-0.964,0.039h-1.257v-0.501c0-0.433,0.021-0.717,0.062-1.051h-0.707
	c0.038,0.295,0.06,0.617,0.06,1.041L16.531,48.532L16.531,48.532z M12.856,51.685c0.354,0.413,0.629,0.668,1.2,1.111
	c0.079-0.197,0.166-0.334,0.313-0.539c-0.629-0.424-1.022-0.757-1.413-1.19c0.384-0.511,0.863-1.306,1.1-1.807
	c0.099-0.216,0.099-0.216,0.137-0.274l-0.283-0.343c-0.109,0.021-0.275,0.028-0.563,0.028h-0.491v-0.914
	c0-0.305,0.021-0.611,0.06-0.775h-0.727c0.038,0.215,0.062,0.539,0.062,0.765v0.925h-0.563c-0.342,0-0.512-0.01-0.738-0.05v0.648
	c0.237-0.039,0.442-0.049,0.767-0.049h1.719c-0.589,1.355-1.552,2.496-2.831,3.371c0.159,0.177,0.217,0.285,0.344,0.55
	c0.618-0.49,0.844-0.697,1.306-1.217v2.938c0,0.441-0.021,0.814-0.061,1.062h0.717c-0.038-0.335-0.061-0.618-0.061-1.062v-3.176
	L12.856,51.685L12.856,51.685z"/>
<radialGradient id="SVGID_1_" cx="-26.3491" cy="1025.6548" r="11.8382" fx="-24.7212" fy="1028.0055" gradientTransform="matrix(1.0915 0 0 -1.0872 42.3967 1128.3051)" gradientUnits="userSpaceOnUse">
	<stop  offset="0" style="stop-color:#E8E8E8;stop-opacity:0"/>
	<stop  offset="0.1066" style="stop-color:#E3E3E3;stop-opacity:0.1301"/>
	<stop  offset="0.2304" style="stop-color:#D5D5D5;stop-opacity:0.2812"/>
	<stop  offset="0.3626" style="stop-color:#BEBEBE;stop-opacity:0.4426"/>
	<stop  offset="0.5" style="stop-color:#9D9D9D;stop-opacity:0.6103"/>
	<stop  offset="0.5735" style="stop-color:#898989;stop-opacity:0.7"/>
	<stop  offset="0.661" style="stop-color:#747474;stop-opacity:0.7513"/>
	<stop  offset="0.7841" style="stop-color:#5D5D5D;stop-opacity:0.8235"/>
	<stop  offset="0.8999" style="stop-color:#4F4F4F;stop-opacity:0.8913"/>
	<stop  offset="1" style="stop-color:#4A4A4A;stop-opacity:0.95"/>
</radialGradient>
<circle fill="url(#SVGID_1_)" cx="12.922" cy="12.921" r="12.921"/>
<radialGradient id="SVGID_2_" cx="-26.7349" cy="1008.1255" r="4.8921" fx="-26.0622" fy="1009.097" gradientTransform="matrix(1.0915 0 0 -1.0872 42.3967 1128.3812)" gradientUnits="userSpaceOnUse">
	<stop  offset="0" style="stop-color:#E8E8E8;stop-opacity:0"/>
	<stop  offset="0.1153" style="stop-color:#E3E3E3;stop-opacity:0.1301"/>
	<stop  offset="0.2491" style="stop-color:#D5D5D5;stop-opacity:0.2812"/>
	<stop  offset="0.3921" style="stop-color:#BEBEBE;stop-opacity:0.4426"/>
	<stop  offset="0.5406" style="stop-color:#9D9D9D;stop-opacity:0.6103"/>
	<stop  offset="0.6201" style="stop-color:#898989;stop-opacity:0.7"/>
	<stop  offset="0.698" style="stop-color:#747474;stop-opacity:0.7513"/>
	<stop  offset="0.8077" style="stop-color:#5D5D5D;stop-opacity:0.8235"/>
	<stop  offset="0.9109" style="stop-color:#4F4F4F;stop-opacity:0.8913"/>
	<stop  offset="1" style="stop-color:#4A4A4A;stop-opacity:0.95"/>
</radialGradient>
<circle fill="url(#SVGID_2_)" cx="12.922" cy="32.251" r="5.341"/>
<radialGradient id="SVGID_3_" cx="-18.2227" cy="1005.8901" r="3.2363" fx="-17.7776" fy="1006.5328" gradientTransform="matrix(1.0915 0 0 -1.0872 42.3967 1128.391)" gradientUnits="userSpaceOnUse">
	<stop  offset="0" style="stop-color:#E8E8E8;stop-opacity:0"/>
	<stop  offset="0.1299" style="stop-color:#E3E3E3;stop-opacity:0.1301"/>
	<stop  offset="0.2807" style="stop-color:#D5D5D5;stop-opacity:0.2812"/>
	<stop  offset="0.4419" style="stop-color:#BEBEBE;stop-opacity:0.4426"/>
	<stop  offset="0.6093" style="stop-color:#9D9D9D;stop-opacity:0.6103"/>
	<stop  offset="0.6989" style="stop-color:#898989;stop-opacity:0.7"/>
	<stop  offset="0.7795" style="stop-color:#7D7D7D;stop-opacity:0.7669"/>
	<stop  offset="0.9248" style="stop-color:#5D5D5D;stop-opacity:0.8875"/>
	<stop  offset="1" style="stop-color:#4A4A4A;stop-opacity:0.95"/>
</radialGradient>
<circle fill="url(#SVGID_3_)" cx="22.312" cy="34.736" r="3.532"/>
<radialGradient id="SVGID_4_" cx="-22.2891" cy="999.7173" r="3.2347" fx="-21.8441" fy="1000.3597" gradientTransform="matrix(1.0915 0 0 -1.0872 42.3967 1128.4203)" gradientUnits="userSpaceOnUse">
	<stop  offset="0.1649" style="stop-color:#898989;stop-opacity:0.7"/>
	<stop  offset="0.2523" style="stop-color:#757575;stop-opacity:0.7262"/>
	<stop  offset="0.3715" style="stop-color:#626262;stop-opacity:0.7618"/>
	<stop  offset="0.5097" style="stop-color:#545454;stop-opacity:0.8032"/>
	<stop  offset="0.6827" style="stop-color:#4C4C4C;stop-opacity:0.855"/>
	<stop  offset="1" style="stop-color:#4A4A4A;stop-opacity:0.95"/>
</radialGradient>
<circle fill="url(#SVGID_4_)" cx="17.873" cy="41.473" r="3.532"/>
</svg>
