<?xml version="1.0" encoding="utf-8"?>
<!-- Generator: Adobe Illustrator 16.0.0, SVG Export Plug-In . SVG Version: 6.00 Build 0)  -->
<!DOCTYPE svg PUBLIC "-//W3C//DTD SVG 1.1//EN" "http://www.w3.org/Graphics/SVG/1.1/DTD/svg11.dtd">
<svg version="1.1" id="レイヤー_1" xmlns="http://www.w3.org/2000/svg" xmlns:xlink="http://www.w3.org/1999/xlink" x="0px"
	 y="0px" width="181.009px" height="80.895px" viewBox="0 0 181.009 80.895" enable-background="new 0 0 181.009 80.895"
	 xml:space="preserve">
<g>
	<path d="M29.482,2.003c0-0.528-0.012-0.839-0.048-1.151c0.384,0.024,0.684,0.036,1.487,0.036h1.307c0.576,0,0.792-0.012,1.08-0.036
		c-0.024,0.288-0.036,0.504-0.036,1.151v5.049c0,0.576,0.012,0.815,0.036,1.163h-0.768V7.664h-2.315v0.935H29.41
		c0.048-0.348,0.072-0.779,0.072-1.259V2.003z M30.226,3.814h2.315V1.571h-2.315V3.814z M30.226,6.992h2.315V4.486h-2.315V6.992z
		 M34.987,6.896c-0.144,0.863-0.384,1.583-0.756,2.267c-0.372,0.671-0.72,1.08-1.451,1.715c-0.192-0.251-0.336-0.384-0.624-0.563
		c0.888-0.696,1.343-1.271,1.715-2.147c0.456-1.091,0.6-2.363,0.6-5.541c0-1.151-0.012-1.715-0.06-2.063
		c0.348,0.036,0.624,0.048,1.163,0.048h2.591c0.54,0,0.852-0.012,1.139-0.048c-0.036,0.288-0.048,0.635-0.048,1.175v7.879
		c0,0.444-0.084,0.696-0.3,0.864c-0.156,0.12-0.432,0.168-0.936,0.168c-0.264,0-0.444-0.012-1.188-0.06
		c-0.036-0.336-0.084-0.54-0.204-0.828c0.671,0.12,1.079,0.156,1.487,0.156c0.3,0,0.384-0.084,0.384-0.408V6.896H34.987z
		 M35.215,4.018c-0.036,1.043-0.072,1.475-0.144,2.207h3.43V4.018H35.215z M38.501,1.295h-3.274v1.559c0,0.228,0,0.276,0,0.492
		h3.274V1.295z"/>
</g>
<g>
	<path d="M145.407,1.787c0-0.48-0.012-0.828-0.059-1.175c0.383,0.048,0.73,0.06,1.283,0.06h5.396c0.552,0,0.888-0.012,1.235-0.06
		c-0.048,0.348-0.06,0.647-0.06,1.104v7.688c0,0.576,0.023,0.912,0.071,1.283h-0.876V9.907h-6.188v0.779h-0.876
		c0.048-0.36,0.071-0.731,0.071-1.271V1.787z M146.212,4.761h6.188V1.403h-6.188V4.761z M146.212,9.175h6.188V5.493h-6.188V9.175z"
		/>
	<path d="M157.456,2.831c-0.468,0-0.875,0.024-1.319,0.072V2.027c0.444,0.06,0.792,0.084,1.319,0.084h3.357v-1.02
		c0-0.396-0.023-0.684-0.084-1.091h0.948c-0.06,0.36-0.084,0.708-0.084,1.08v1.031h3.538c0.6,0,0.995-0.024,1.344-0.084v0.875
		c-0.504-0.048-0.864-0.072-1.344-0.072h-3.238c1.344,2.423,2.95,4.102,4.941,5.181c-0.252,0.276-0.384,0.456-0.552,0.779
		c-0.972-0.647-1.716-1.271-2.495-2.099c-0.995-1.055-1.667-2.075-2.242-3.37c0.035,0.72,0.048,1.164,0.048,1.559v2.723h1.308
		c0.588,0,0.852-0.012,1.163-0.06v0.839c-0.36-0.06-0.647-0.072-1.188-0.072h-1.283v1.139c0,0.564,0.024,0.996,0.084,1.379h-0.948
		c0.061-0.42,0.084-0.839,0.084-1.391V8.312h-1.15c-0.564,0-0.852,0.012-1.212,0.072V7.544c0.312,0.048,0.575,0.06,1.188,0.06h1.175
		V4.881c0-0.444,0.013-0.899,0.049-1.547c-0.552,1.307-1.188,2.291-2.268,3.466c-0.755,0.828-1.402,1.403-2.278,2.015
		c-0.18-0.324-0.276-0.444-0.563-0.708c1.031-0.624,1.895-1.355,2.807-2.435c0.899-1.031,1.415-1.799,1.955-2.842H157.456z"/>
</g>
<g>
	<path d="M47.775,66.796c-0.647,0-0.983,0.012-1.415,0.072v-0.804c0.408,0.06,0.708,0.071,1.415,0.071h7.568
		c0.708,0,1.188-0.023,1.5-0.071v0.804c-0.372-0.049-0.804-0.072-1.5-0.072h-3.13v1.344c0,0.756-0.264,0.923-1.5,0.923
		c-0.36,0-0.755-0.024-1.247-0.071c-0.036-0.301-0.084-0.469-0.216-0.744c0.624,0.12,1.019,0.156,1.547,0.156
		c0.552,0,0.648-0.049,0.648-0.348v-1.26H47.775z M51.134,59c0-0.348-0.012-0.54-0.072-0.792h0.911
		c-0.048,0.204-0.072,0.432-0.072,0.78v0.264h3.202c0.672,0,1.151-0.012,1.643-0.06c-0.036,0.264-0.048,0.456-0.048,0.84v0.42
		c0,0.335,0.012,0.527,0.048,0.779h-0.768v-1.343h-8.743v1.319h-0.768c0.036-0.228,0.048-0.42,0.048-0.755v-0.48
		c0-0.312-0.012-0.54-0.048-0.78c0.396,0.048,0.852,0.06,1.499,0.06h3.167V59z M46.792,62.298c0.816-0.587,1.188-0.996,1.679-1.787
		l0.516,0.396c-0.563,0.852-0.839,1.163-1.667,1.883L46.792,62.298z M55.703,64.638c0,0.311,0.012,0.551,0.048,0.791
		c-0.288-0.036-0.6-0.048-1.091-0.048h-6.165c-0.503,0-0.792,0.012-1.091,0.048c0.036-0.252,0.048-0.468,0.048-0.791v-0.84
		c0-0.3-0.012-0.516-0.048-0.768c0.36,0.036,0.624,0.048,1.175,0.048h6.045c0.551,0,0.815-0.012,1.127-0.048
		c-0.036,0.252-0.048,0.444-0.048,0.78V64.638z M49.994,63.654h-1.823v1.164h1.823V63.654z M50.258,60.224
		c-0.048,0.216-0.06,0.432-0.06,0.779v0.636c0,0.204,0.132,0.228,1.295,0.228c1.127,0,1.559-0.024,1.715-0.108
		c0.132-0.06,0.216-0.348,0.216-0.756c0-0.048,0-0.108,0-0.192c0.228,0.144,0.396,0.204,0.672,0.276
		c-0.132,1.319-0.216,1.367-2.387,1.367c-2.039,0-2.207-0.048-2.207-0.635v-0.744c0-0.372-0.012-0.54-0.06-0.852H50.258z
		 M52.465,63.654h-1.799v1.164h1.799V63.654z M52.165,61.459c-0.432-0.444-0.755-0.684-1.343-1.02l0.468-0.372
		c0.576,0.335,0.864,0.54,1.355,0.971L52.165,61.459z M54.983,64.817v-1.164h-1.847v1.164H54.983z M55.811,62.694
		c-0.479-0.756-0.887-1.235-1.619-1.883l0.528-0.335c0.744,0.671,1.164,1.115,1.691,1.835L55.811,62.694z"/>
	<path d="M58.636,61.327c0.828,0.503,1.319,0.863,2.003,1.463l-0.456,0.66c-0.659-0.647-1.127-1.02-1.979-1.535L58.636,61.327z
		 M60.591,65.165c-0.492,1.486-0.768,2.146-1.5,3.479c-0.012,0.035-0.024,0.047-0.132,0.252l-0.684-0.612
		c0.216-0.228,0.3-0.349,0.504-0.684c0.468-0.827,0.839-1.716,1.199-2.902L60.591,65.165z M60.735,60.631
		c-0.611-0.672-1.127-1.104-1.907-1.619l0.504-0.54c0.755,0.527,1.235,0.923,1.907,1.595L60.735,60.631z M62.498,63.438
		c-0.132,2.614-0.552,4.173-1.451,5.516c-0.228-0.215-0.372-0.323-0.671-0.467c0.479-0.672,0.743-1.224,0.971-2.1
		c0.324-1.188,0.444-2.65,0.444-5.181c0-0.792-0.012-1.127-0.048-1.499c0.251,0.048,0.6,0.06,1.163,0.06h1.823v-0.432
		c0-0.6-0.024-0.923-0.072-1.187h0.864c-0.048,0.24-0.072,0.563-0.072,1.187v0.432h1.967c0.636,0,0.899-0.012,1.103-0.06l0.42,0.432
		c-0.072,0.096-0.144,0.228-0.24,0.432c-0.348,0.696-0.54,1.043-0.852,1.535c-0.252-0.144-0.36-0.192-0.684-0.288
		c0.372-0.492,0.552-0.804,0.792-1.367h-2.507v2.327h1.2c0.479,0,0.768-0.012,0.959-0.06l0.432,0.444
		c-0.096,0.18-0.132,0.264-0.264,0.54c-0.504,1.139-1.008,1.918-1.799,2.819c0.852,0.707,1.835,1.247,3.143,1.715
		c-0.252,0.287-0.336,0.42-0.48,0.719c-1.343-0.563-2.243-1.115-3.154-1.93c-0.887,0.839-1.799,1.427-3.034,1.967
		c-0.108-0.252-0.216-0.42-0.456-0.672c1.188-0.456,2.111-1.008,2.975-1.787c-0.864-0.9-1.403-1.787-1.883-3.094H62.498z
		 M64.729,62.778v-2.327h-2.183v0.863c0,0.432-0.012,0.828-0.024,1.463H64.729z M63.817,63.438c0.456,1.151,0.852,1.775,1.643,2.602
		c0.755-0.84,1.164-1.487,1.631-2.602H63.817z"/>
</g>
<g>
	<path d="M25.042,26.573c-0.588,0-0.959,0.024-1.332,0.072v-0.804c0.408,0.06,0.731,0.072,1.343,0.072h6.597
		c0.635,0,0.947-0.012,1.355-0.072v0.804c-0.384-0.048-0.744-0.072-1.331-0.072h-3.035v1.104h2.663c0.576,0,0.84-0.012,1.175-0.06
		v0.78c-0.324-0.048-0.624-0.06-1.151-0.06h-2.687v1.247h3.562c0.636,0,1.008-0.024,1.392-0.072v0.828
		c-0.396-0.06-0.768-0.084-1.416-0.084h-7.64c-0.647,0-1.007,0.024-1.415,0.084v-0.828c0.408,0.048,0.779,0.072,1.391,0.072h3.394
		v-1.247h-2.495c-0.54,0-0.839,0.012-1.164,0.06v-0.78c0.336,0.048,0.612,0.06,1.188,0.06h2.471v-1.104H25.042z M27.416,20.913
		c0.192-0.36,0.324-0.72,0.408-1.116l0.864,0.144c-0.084,0.18-0.336,0.696-0.48,0.972h2.854c0.576,0,0.912-0.012,1.223-0.048
		c-0.036,0.288-0.048,0.503-0.048,1.007v2.027c0,0.479,0.012,0.744,0.048,1.079c-0.251-0.024-0.671-0.036-1.187-0.036h-5.493
		c-0.468,0-0.912,0.012-1.188,0.036c0.036-0.335,0.048-0.587,0.048-1.067v-1.883c0-0.54-0.012-0.839-0.048-1.163
		c0.252,0.036,0.636,0.048,1.211,0.048H27.416z M25.209,22.58h6.285v-1.02h-6.285V22.58z M25.209,24.319h6.285v-1.104h-6.285V24.319
		z"/>
	<path d="M39.848,24.187H36.01v1.667h-0.803c0.036-0.252,0.048-0.468,0.048-0.816v-0.695c0-0.36-0.012-0.6-0.048-0.864
		c0.275,0.036,0.671,0.048,1.295,0.048h1.907c-0.204-0.635-0.42-1.139-0.816-1.859h-0.899c-0.468,0-0.815,0.012-1.187,0.06v-0.804
		c0.335,0.048,0.719,0.072,1.235,0.072h3.118v-0.432c0-0.324-0.024-0.551-0.072-0.815h0.9c-0.048,0.276-0.072,0.492-0.072,0.804
		v0.444h3.382c0.516,0,0.887-0.024,1.235-0.072v0.804c-0.384-0.048-0.72-0.06-1.188-0.06H43.05
		c-0.335,0.828-0.563,1.283-0.923,1.859h2.147c0.563,0,0.852-0.012,1.187-0.048c-0.036,0.288-0.048,0.492-0.048,0.899v0.708
		c0,0.335,0.012,0.551,0.048,0.792h-0.803v-1.691h-4.03v1.5h2.387c0.552,0,0.899-0.012,1.139-0.048
		c-0.036,0.264-0.048,0.612-0.048,1.043v2.015c0,0.671-0.252,0.863-1.151,0.863c-0.324,0-0.72-0.012-1.175-0.048
		c-0.036-0.288-0.084-0.456-0.18-0.731c0.492,0.072,0.959,0.12,1.284,0.12c0.384,0,0.479-0.06,0.479-0.3v-2.254h-2.734v3.178
		c0,0.468,0.024,0.792,0.084,1.235h-0.948c0.06-0.468,0.084-0.816,0.084-1.235v-3.178h-2.482v2.123c0,0.564,0.012,0.864,0.06,1.199
		h-0.876c0.036-0.408,0.06-0.768,0.06-1.187v-1.775c0-0.408-0.012-0.624-0.048-1.067c0.336,0.036,0.684,0.048,1.164,0.048h2.123
		V24.187z M41.347,23.527c0.384-0.611,0.647-1.163,0.887-1.859h-3.838c0.432,0.864,0.588,1.235,0.792,1.859H41.347z"/>
	<path d="M20.813,47.759c-0.899-1.032-1.271-1.607-1.667-2.579c-0.396-0.959-0.576-1.907-0.576-2.951s0.18-1.991,0.576-2.95
		c0.396-0.972,0.768-1.547,1.667-2.579h1.067c-1.007,1.02-1.403,1.559-1.823,2.482c-0.432,0.959-0.648,1.955-0.648,3.046
		s0.216,2.087,0.648,3.046c0.419,0.923,0.815,1.463,1.823,2.483H20.813z"/>
	<path d="M24.238,40.623c-0.432,0-0.756,0.024-1.056,0.072v-0.863c0.24,0.048,0.528,0.072,1.056,0.072h2.087v-1.631
		c0-0.528-0.024-0.888-0.072-1.248h0.924c-0.06,0.324-0.072,0.696-0.072,1.248v8.047c0,0.563,0.012,0.912,0.072,1.259h-0.924
		c0.048-0.348,0.072-0.72,0.072-1.271v-1.5c-0.804,0.456-1.547,0.828-2.639,1.319c-0.192,0.096-0.348,0.168-0.468,0.228
		l-0.324-0.828c0.384-0.096,0.612-0.168,1.055-0.36c0.936-0.408,1.5-0.696,2.375-1.211v-3.334H24.238z M29.779,45.984
		c0,0.216,0.048,0.312,0.204,0.372c0.168,0.06,0.552,0.096,1.127,0.096c1.056,0,1.427-0.096,1.595-0.408
		c0.144-0.288,0.264-1.091,0.276-2.027c0.264,0.18,0.42,0.24,0.755,0.348c-0.072,1.295-0.276,2.099-0.6,2.423
		c-0.288,0.288-0.803,0.384-2.015,0.384c-1.727,0-2.123-0.192-2.123-0.996V38.26c0-0.6-0.024-0.936-0.072-1.235h0.923
		c-0.06,0.384-0.072,0.72-0.072,1.235v2.878c0.899-0.504,1.751-1.08,2.482-1.679c0.3-0.252,0.516-0.456,0.696-0.684l0.6,0.66
		c-0.168,0.132-0.228,0.168-0.444,0.348c-0.983,0.803-1.907,1.415-3.334,2.194V45.984z"/>
	<path d="M38.36,44.173c-0.875,1.403-1.559,2.123-2.83,3.011c-0.228-0.324-0.312-0.42-0.552-0.624
		c0.72-0.432,1.079-0.708,1.547-1.187c0.504-0.504,0.768-0.875,1.164-1.607L38.36,44.173z M39.848,37.829
		c0-0.384-0.024-0.696-0.084-1.007h0.948c-0.06,0.24-0.084,0.551-0.084,1.007v0.444h3.706c0.6,0,0.983-0.024,1.331-0.084v0.852
		c-0.312-0.06-0.636-0.072-1.307-0.072h-7.964c-0.647,0-0.959,0.012-1.283,0.072v-0.852c0.36,0.06,0.731,0.084,1.331,0.084h3.406
		V37.829z M37.665,43.226c-0.48,0-0.72,0.012-1.067,0.048c0.036-0.312,0.048-0.54,0.048-0.971v-1.355
		c0-0.468-0.012-0.636-0.048-0.996C36.933,39.987,37.161,40,37.665,40h5.217c0.575,0,0.827-0.012,1.103-0.048
		c-0.036,0.288-0.048,0.528-0.048,0.996v1.355c0,0.419,0.012,0.66,0.036,0.959c-0.312-0.024-0.636-0.036-1.091-0.036h-2.087v3.334
		c0,0.684-0.312,0.9-1.319,0.9c-0.264,0-0.768-0.024-1.175-0.048c-0.036-0.324-0.072-0.468-0.204-0.792
		c0.492,0.084,0.899,0.12,1.295,0.12c0.528,0,0.624-0.048,0.624-0.288v-3.226H37.665z M37.401,42.566h5.781v-1.883h-5.781V42.566z
		 M42.846,43.753c0.444,0.719,0.684,1.031,1.175,1.511c0.504,0.503,0.863,0.779,1.667,1.259c-0.24,0.216-0.396,0.396-0.552,0.66
		c-0.708-0.492-1.007-0.732-1.511-1.248c-0.576-0.588-0.875-0.959-1.439-1.763L42.846,43.753z"/>
	<path d="M46.798,47.759c1.008-1.008,1.403-1.56,1.823-2.483c0.432-0.959,0.647-1.955,0.647-3.046s-0.216-2.087-0.647-3.046
		c-0.42-0.923-0.815-1.475-1.823-2.482h1.067c0.9,1.031,1.271,1.607,1.667,2.579c0.396,0.959,0.576,1.907,0.576,2.95
		s-0.18,1.991-0.576,2.951c-0.396,0.971-0.768,1.547-1.667,2.579H46.798z"/>
</g>
<rect x="16.509" y="17.978" fill="none" stroke="#231815" stroke-miterlimit="10" width="35" height="31.25"/>
<g>
	<path d="M146.292,21.068c0-0.504-0.024-0.828-0.072-1.188h0.888c-0.048,0.36-0.06,0.672-0.06,1.188v8.323
		c0,0.552,0.012,0.959,0.071,1.319h-0.899c0.048-0.348,0.072-0.755,0.072-1.319v-2.938c-0.42,0.3-1.031,0.671-1.607,0.983
		c-0.168,0.096-0.275,0.168-0.396,0.252l-0.349-0.804c0.492-0.132,1.584-0.696,2.352-1.235V21.068z M144.889,21.596
		c0.384,1.007,0.6,1.715,0.827,2.674l-0.695,0.252c-0.24-1.175-0.443-1.823-0.828-2.663L144.889,21.596z M154.591,20.505
		c-0.107,0.036-0.107,0.036-0.359,0.108c-0.804,0.252-2.135,0.527-3.334,0.719c-0.888,0.132-1.859,0.228-2.986,0.288
		c-0.072-0.288-0.133-0.444-0.288-0.731c2.519-0.024,5.457-0.504,6.38-1.056L154.591,20.505z M153.8,25.638
		c0.492,0,0.852-0.024,1.188-0.072v0.839c-0.336-0.048-0.72-0.072-1.188-0.072h-0.384v3.31c0,0.66-0.323,0.888-1.284,0.888
		c-0.467,0-0.923-0.024-1.57-0.084c-0.036-0.348-0.072-0.516-0.18-0.804c0.659,0.132,1.247,0.192,1.75,0.192
		c0.396,0,0.528-0.072,0.528-0.324v-3.178h-3.897c-0.456,0-0.828,0.024-1.14,0.072v-0.839c0.336,0.06,0.636,0.072,1.14,0.072h3.897
		c-0.012-0.468-0.024-0.647-0.06-0.935h0.048l-0.575-0.264c0.923-1.104,1.354-1.835,1.787-2.999l0.755,0.336
		c-0.755,1.451-1.079,1.955-1.847,2.927h0.695c-0.036,0.275-0.048,0.432-0.048,0.935H153.8z M148.87,24.63
		c-0.324-0.959-0.539-1.451-1.02-2.219l0.66-0.252c0.408,0.696,0.684,1.259,1.043,2.159L148.87,24.63z M150.405,29.08
		c-0.539-0.84-0.947-1.307-1.654-1.967l0.563-0.42c0.732,0.684,1.188,1.175,1.74,1.895L150.405,29.08z M150.97,24.307
		c-0.276-0.936-0.504-1.487-0.936-2.255l0.684-0.24c0.396,0.731,0.635,1.295,0.947,2.231L150.97,24.307z"/>
	<path d="M158.688,27.425c-0.479,0-0.708,0.012-1.031,0.048c0.036-0.359,0.048-0.563,0.048-0.899v-2.159
		c0-0.348-0.012-0.552-0.048-0.912c0.312,0.036,0.528,0.048,1.02,0.048h2.423v-0.924h-2.436c-0.455,0-0.707,0.012-1.031,0.06v-0.744
		c0.288,0.048,0.54,0.06,1.031,0.06h2.436c-0.012-0.384-0.037-0.552-0.072-0.804h0.852c-0.036,0.24-0.061,0.408-0.072,0.804h2.662
		c0.492,0,0.708-0.012,1.02-0.06v0.744c-0.299-0.048-0.563-0.06-1.02-0.06h-2.662v0.924h2.675c0.491,0,0.708-0.012,1.02-0.048
		c-0.036,0.336-0.048,0.516-0.048,0.912v2.159c0,0.384,0.012,0.564,0.048,0.899c-0.324-0.036-0.563-0.048-1.032-0.048h-2.662v0.983
		h3.803c0.491,0,0.839-0.024,1.175-0.072v0.815c-0.36-0.048-0.72-0.072-1.199-0.072h-3.778v0.396c0,0.492,0.023,0.828,0.084,1.248
		h-0.875c0.06-0.432,0.084-0.78,0.084-1.248V29.08h-3.502c-0.456,0-0.828,0.024-1.176,0.072v-0.815
		c0.336,0.048,0.66,0.072,1.151,0.072h3.526v-0.983H158.688z M156.54,22.472c0.037-0.252,0.049-0.468,0.049-0.828v-0.66
		c0-0.324-0.012-0.552-0.049-0.804c0.385,0.036,0.709,0.048,1.188,0.048h7.664c0.504,0,0.816-0.012,1.199-0.048
		c-0.035,0.24-0.047,0.444-0.047,0.792v0.671c0,0.36,0.012,0.576,0.047,0.828h-0.803v-1.583h-8.455v1.583H156.54z M161.099,24.163
		h-2.675v0.996h2.675V24.163z M161.099,25.758h-2.675v1.055h2.675V25.758z M164.732,25.158v-0.996h-2.927v0.996H164.732z
		 M164.732,26.813v-1.055h-2.927v1.055H164.732z"/>
	<path d="M142.063,47.759c-0.899-1.032-1.271-1.607-1.667-2.579c-0.396-0.959-0.575-1.907-0.575-2.951s0.18-1.991,0.575-2.95
		c0.396-0.972,0.768-1.547,1.667-2.579h1.067c-1.007,1.02-1.403,1.559-1.823,2.482c-0.432,0.959-0.647,1.955-0.647,3.046
		s0.216,2.087,0.647,3.046c0.42,0.923,0.816,1.463,1.823,2.483H142.063z"/>
	<path d="M144.649,38.752c0-0.576-0.025-0.996-0.072-1.475c0.396,0.048,0.756,0.06,1.402,0.06h7.172c0.637,0,0.984-0.012,1.428-0.06
		c-0.048,0.444-0.072,0.852-0.072,1.475v7.304c0,0.875,0.024,1.319,0.072,1.643h-0.84v-0.732h-8.322v0.732h-0.84
		c0.047-0.324,0.072-0.756,0.072-1.643V38.752z M145.417,46.284h8.322v-8.263h-8.322V46.284z M147.468,39.795
		c-0.516,0-0.805,0.012-1.128,0.06v-0.768c0.336,0.06,0.6,0.072,1.128,0.072h4.232c0.541,0,0.864-0.024,1.176-0.072v0.768
		c-0.336-0.048-0.623-0.06-1.163-0.06h-1.847v1.859h1.475c0.54,0,0.779-0.012,1.08-0.06v0.756c-0.301-0.048-0.576-0.06-1.08-0.06
		h-1.475v2.195h2.015c0.491,0,0.839-0.024,1.175-0.072v0.792c-0.348-0.048-0.707-0.072-1.175-0.072h-4.569
		c-0.492,0-0.828,0.024-1.188,0.072v-0.792c0.336,0.048,0.684,0.072,1.188,0.072h1.811V42.29h-1.283
		c-0.504,0-0.791,0.012-1.092,0.06v-0.756c0.301,0.048,0.54,0.06,1.092,0.06h1.283v-1.859H147.468z M151.317,42.506
		c0.491,0.492,0.684,0.756,1.127,1.427l-0.563,0.36c-0.42-0.731-0.612-0.996-1.067-1.487L151.317,42.506z"/>
	<path d="M158.136,38.38c-0.588,0-0.971,0.024-1.355,0.072v-0.888c0.348,0.06,0.732,0.084,1.344,0.084h6.896
		c0.635,0,1.02-0.024,1.402-0.084v0.888c-0.396-0.048-0.779-0.072-1.402-0.072h-3.107v3.202h2.508c0.6,0,0.923-0.024,1.271-0.072
		v0.852c-0.349-0.036-0.709-0.048-1.271-0.048h-2.508v3.79h3.599c0.6,0,0.983-0.024,1.331-0.072v0.899
		c-0.371-0.06-0.756-0.084-1.331-0.084h-7.771c-0.6,0-0.983,0.024-1.392,0.084v-0.899c0.396,0.048,0.744,0.072,1.392,0.072h3.321
		v-3.79h-2.29c-0.552,0-0.936,0.012-1.283,0.048V41.51c0.3,0.048,0.659,0.072,1.271,0.072h2.303V38.38H158.136z"/>
	<path d="M168.049,47.759c1.008-1.008,1.403-1.56,1.823-2.483c0.432-0.959,0.647-1.955,0.647-3.046s-0.216-2.087-0.647-3.046
		c-0.42-0.923-0.815-1.475-1.823-2.482h1.067c0.9,1.031,1.271,1.607,1.668,2.579c0.395,0.959,0.575,1.907,0.575,2.95
		s-0.181,1.991-0.575,2.951c-0.396,0.971-0.768,1.547-1.668,2.579H168.049z"/>
</g>
<rect x="137.759" y="17.978" fill="none" stroke="#231815" stroke-miterlimit="10" width="35" height="31.25"/>
<rect x="44.509" y="56.394" fill="none" stroke="#231815" stroke-miterlimit="10" width="26.084" height="14.833"/>
<path fill="none" stroke="#231815" stroke-miterlimit="10" d="M58.759,56.394V13.482c0-4.697-3.808-8.504-8.504-8.504h-9.121"/>
<path fill="none" stroke="#231815" stroke-miterlimit="10" d="M27.697,4.978H16.763c-4.697,0-8.504,3.807-8.504,8.504v58.409
	c0,4.696,3.807,8.504,8.504,8.504h33.492c4.696,0,8.504-3.808,8.504-8.504v-0.663"/>
<path fill="none" stroke="#231815" stroke-miterlimit="10" d="M143.884,3.978h-5.371c-4.697,0-8.504,3.807-8.504,8.504v58.409
	c0,4.696,3.807,8.504,8.504,8.504h33.492c4.697,0,8.504-3.808,8.504-8.504V12.482c0-4.697-3.807-8.504-8.504-8.504h-4.059"/>
<g>
	<g>
		<line fill="none" stroke="#231815" stroke-miterlimit="10" x1="73.419" y1="63.811" x2="130.009" y2="63.811"/>
		<g>
			<polygon fill="#231815" points="79.33,66.991 79.671,66.052 73.517,63.811 79.671,61.571 79.33,60.631 70.593,63.811 			"/>
		</g>
	</g>
</g>
<g>
	<g>
		<polyline fill="none" stroke="#231815" stroke-miterlimit="10" points="34.343,52.054 34.343,63.811 44.509,63.811 		"/>
		<g>
			<polygon fill="#231815" points="31.163,57.965 32.103,58.307 34.343,52.151 36.583,58.307 37.523,57.965 34.343,49.228 			"/>
		</g>
	</g>
</g>
<g>
	<g>
		<line fill="none" stroke="#231815" stroke-miterlimit="10" x1="58.759" y1="33.603" x2="127.183" y2="33.603"/>
		<g>
			<polygon fill="#231815" points="121.272,36.784 120.931,35.843 127.085,33.603 120.931,31.363 121.272,30.423 130.009,33.603 			
				"/>
		</g>
	</g>
</g>
<g>
	<path d="M72.996,73.315c0.216,0.035,0.36,0.045,0.693,0.045h0.468c0.261,0,0.478-0.019,0.685-0.045
		c-0.027,0.27-0.036,0.513-0.036,0.945v1.791c0.135,0.307,0.252,0.459,0.459,0.604c0.522,0.369,1.063,0.477,2.286,0.477
		c1.756,0,2.836-0.054,3.7-0.18c-0.126,0.297-0.162,0.396-0.207,0.639c-0.972,0.045-1.881,0.063-3.033,0.063
		c-1.549,0-2.026-0.054-2.566-0.306c-0.369-0.181-0.684-0.46-0.945-0.855c-0.396,0.396-0.621,0.594-1.053,0.927
		c-0.136,0.108-0.198,0.153-0.352,0.298l-0.297-0.595c0.387-0.171,0.909-0.567,1.449-1.089v-2.18h-0.594
		c-0.288,0-0.45,0.01-0.657,0.045V73.315z M73.544,69.911c0.64,0.613,0.928,0.928,1.44,1.594l-0.459,0.405
		c-0.504-0.72-0.811-1.08-1.396-1.63L73.544,69.911z M76.372,71.658c-0.315,0-0.522,0.009-0.721,0.027
		c0.027-0.181,0.036-0.306,0.036-0.585v-0.307c0-0.243-0.009-0.387-0.036-0.585c0.181,0.026,0.379,0.036,0.721,0.036h1.377
		c-0.009-0.262-0.018-0.379-0.045-0.549h0.595c-0.027,0.18-0.045,0.314-0.045,0.549h1.467c0.352,0,0.54-0.01,0.729-0.036
		c-0.027,0.18-0.036,0.342-0.036,0.585v0.307c0,0.242,0.009,0.414,0.027,0.585c-0.198-0.019-0.441-0.027-0.721-0.027h-1.467v0.513
		h1.962c0.378,0,0.55-0.008,0.783-0.045v0.541c-0.261-0.037-0.423-0.045-0.783-0.045h-4.474c-0.369,0-0.559,0.008-0.774,0.045
		v-0.541c0.225,0.037,0.396,0.045,0.774,0.045h2.017v-0.513H76.372z M76.47,76.475c-0.207,0-0.423,0.009-0.585,0.027
		c0.018-0.171,0.027-0.315,0.027-0.531v-2.396c0-0.207-0.019-0.396-0.027-0.521c0.135,0.027,0.297,0.036,0.576,0.036h3.106
		c0.287,0,0.449-0.009,0.585-0.036c-0.019,0.126-0.019,0.27-0.019,0.495v0.459c0,0.226,0,0.388,0.019,0.505
		c-0.171-0.019-0.333-0.027-0.585-0.027h-3.134v0.504h3.431c0.279,0,0.44-0.009,0.585-0.036c-0.009,0.108-0.019,0.288-0.019,0.505
		v0.549c0,0.207,0.01,0.378,0.019,0.495c-0.145-0.019-0.36-0.027-0.585-0.027H76.47z M76.209,70.659v0.604h1.549v-0.604H76.209z
		 M76.434,74.08h3.169v-0.585h-3.169V74.08z M79.891,76.061v-0.657h-3.457v0.657H79.891z M78.253,71.263h1.638v-0.604h-1.638V71.263
		z"/>
	<path d="M82.365,71.263c0-0.396-0.009-0.631-0.036-0.865c0.288,0.019,0.513,0.027,1.116,0.027h0.981
		c0.432,0,0.594-0.009,0.811-0.027c-0.019,0.217-0.027,0.379-0.027,0.865v3.789c0,0.433,0.009,0.613,0.027,0.874h-0.576v-0.415
		h-1.738v0.703H82.31c0.036-0.262,0.055-0.586,0.055-0.945V71.263z M82.922,72.622h1.738v-1.684h-1.738V72.622z M82.922,75.007
		h1.738v-1.881h-1.738V75.007z M86.497,74.935c-0.107,0.648-0.288,1.189-0.567,1.702c-0.278,0.505-0.54,0.811-1.089,1.288
		c-0.145-0.189-0.252-0.289-0.468-0.424c0.666-0.521,1.008-0.954,1.287-1.611c0.342-0.819,0.45-1.773,0.45-4.159
		c0-0.864-0.009-1.288-0.045-1.549c0.261,0.027,0.468,0.036,0.873,0.036h1.944c0.405,0,0.64-0.009,0.855-0.036
		c-0.027,0.216-0.036,0.478-0.036,0.882v5.916c0,0.332-0.063,0.521-0.225,0.647c-0.117,0.091-0.324,0.126-0.702,0.126
		c-0.198,0-0.334-0.009-0.892-0.045c-0.027-0.252-0.063-0.405-0.153-0.621c0.504,0.09,0.811,0.117,1.116,0.117
		c0.226,0,0.288-0.063,0.288-0.307v-1.963H86.497z M86.667,72.774c-0.026,0.783-0.054,1.107-0.107,1.656h2.574v-1.656H86.667z
		 M89.134,70.731h-2.457v1.17c0,0.171,0,0.207,0,0.369h2.457V70.731z"/>
	<path d="M92.058,74.099c-0.091,1.8-0.333,2.907-0.838,3.771c-0.171-0.207-0.27-0.297-0.468-0.414
		c0.504-0.801,0.693-1.611,0.783-3.286c-0.054,0.009-0.054,0.009-0.216,0.027c-0.019,0-0.288,0.054-0.352,0.071l-0.099-0.603
		c0.054,0.009,0.099,0.009,0.126,0.009c0.135,0,0.27-0.009,0.558-0.045c0.019-0.676,0.027-1.144,0.027-1.98
		c0-0.459-0.018-0.756-0.045-1c0.234,0.037,0.441,0.045,0.766,0.045h0.225c0.162-0.396,0.252-0.674,0.333-1.08l0.567,0.135
		c-0.126,0.369-0.234,0.631-0.378,0.945h0.612c0.342,0,0.576-0.018,0.737-0.045c-0.026,0.181-0.035,0.396-0.035,0.685v1.872
		l0.288-0.063l0.018,0.495c-0.153,0.036-0.171,0.046-0.306,0.072v3.358c0,0.504-0.162,0.639-0.748,0.639
		c-0.207,0-0.504-0.009-0.737-0.036c-0.027-0.261-0.055-0.378-0.127-0.576c0.352,0.072,0.586,0.099,0.874,0.099
		c0.188,0,0.225-0.035,0.225-0.233V73.81c-0.314,0.055-0.351,0.063-0.72,0.117v1.611c0,0.414,0.009,0.612,0.045,0.865h-0.559
		c0.036-0.262,0.045-0.451,0.045-0.865v-1.539L92.058,74.099z M93.849,71.163h-1.746v0.612c0,0.647-0.01,1.251-0.027,1.8
		c0.685-0.08,1.233-0.161,1.773-0.26V71.163z M92.823,71.523c0.271,0.485,0.423,0.837,0.585,1.323l-0.459,0.216
		c-0.144-0.53-0.279-0.854-0.531-1.341L92.823,71.523z M96.542,70.11c-0.047,0.18-0.082,0.306-0.137,0.566
		c-0.179,0.855-0.296,1.233-0.54,1.818c-0.207,0.486-0.369,0.793-0.684,1.252c-0.189-0.162-0.243-0.207-0.505-0.342
		c0.586-0.748,0.937-1.585,1.162-2.737c0.071-0.351,0.099-0.531,0.099-0.702L96.542,70.11z M95.83,77.808h-0.603
		c0.036-0.297,0.054-0.522,0.054-0.793v-2.557c0-0.314-0.009-0.477-0.045-0.729c0.207,0.026,0.369,0.035,0.657,0.035h2.079
		c0.307,0,0.469-0.009,0.658-0.035c-0.037,0.233-0.045,0.422-0.045,0.72v2.538c0,0.298,0.018,0.586,0.055,0.82h-0.604v-0.559H95.83
		V77.808z M95.83,76.754h2.197v-2.493H95.83V76.754z M97.784,69.894c0.035,0.271,0.117,0.559,0.232,0.918
		c0.369,1.063,0.766,1.828,1.324,2.549c-0.172,0.099-0.352,0.233-0.486,0.396c-0.521-0.802-0.738-1.224-1.135-2.206
		c-0.152-0.377-0.188-0.494-0.459-1.296c-0.027-0.081-0.035-0.108-0.072-0.181L97.784,69.894z"/>
	<path d="M103.614,74.837c-0.521,1.188-1.053,1.729-1.701,1.729c-0.855,0-1.494-0.938-1.494-2.197c0-0.918,0.342-1.81,0.945-2.484
		c0.721-0.793,1.701-1.197,2.908-1.197c1.008,0,1.891,0.314,2.475,0.891c0.568,0.549,0.873,1.332,0.873,2.197
		c0,1.395-0.756,2.547-2.061,3.105c-0.406,0.171-0.748,0.279-1.369,0.414c-0.09-0.297-0.145-0.387-0.314-0.604
		c0.656-0.107,1.08-0.225,1.504-0.423c0.99-0.45,1.592-1.413,1.592-2.521c0-1.026-0.521-1.854-1.43-2.26
		c-0.334-0.145-0.596-0.207-1.045-0.225C104.362,72.514,104.021,73.892,103.614,74.837z M102.507,71.694
		c-0.908,0.549-1.467,1.566-1.467,2.683c0,0.864,0.377,1.53,0.863,1.53c0.379,0,0.738-0.423,1.127-1.305
		c0.367-0.847,0.701-2.18,0.818-3.332C103.308,71.316,102.921,71.442,102.507,71.694z"/>
	<path d="M110.634,74.972c-0.252,0.818-0.469,1.387-0.738,1.926c-0.018,0.055-0.17,0.342-0.449,0.873l-0.514-0.468
		c0.369-0.342,0.855-1.386,1.242-2.683L110.634,74.972z M109.284,72.145c0.602,0.369,0.945,0.621,1.494,1.099l-0.342,0.477
		c-0.604-0.576-0.873-0.783-1.477-1.152L109.284,72.145z M109.671,69.93c0.576,0.396,0.945,0.712,1.395,1.188l-0.369,0.441
		c-0.521-0.586-0.811-0.838-1.395-1.225L109.671,69.93z M116.765,71.767c-0.072,0.027-0.1,0.027-0.197,0.072
		c-0.486,0.188-0.838,0.297-1.396,0.432c0.072,0.864,0.107,1.116,0.244,1.737c0.459-0.233,0.873-0.53,1.295-0.918l0.361,0.423
		c-0.641,0.478-1.018,0.721-1.531,1c0.387,1.322,0.82,2.088,1.611,2.862c-0.207,0.188-0.26,0.271-0.422,0.522
		c-0.73-0.819-1.135-1.539-1.504-2.639c-0.199-0.621-0.379-1.386-0.477-2.061c-0.01-0.127-0.01-0.127-0.092-0.82
		c-0.369,0.072-0.521,0.1-0.863,0.145v4.385c0,0.404,0.018,0.693,0.055,0.954h-0.676c0.035-0.288,0.055-0.576,0.055-0.964v-4.313
		c-0.307,0.037-0.307,0.037-1.055,0.091c-0.053,2.53-0.377,4.024-1.125,5.203c-0.152-0.18-0.252-0.271-0.486-0.405
		c0.369-0.504,0.586-1.035,0.766-1.881c0.207-1,0.297-2.089,0.297-3.728c0-0.495-0.01-0.864-0.035-1.188
		c0.098,0.01,0.152,0.01,0.207,0.01c0.648,0,2.033-0.207,2.916-0.441c0.576-0.145,1.008-0.307,1.314-0.496l0.486,0.479
		c-0.234,0.09-0.234,0.09-0.334,0.125c-1.178,0.441-2.35,0.685-4.006,0.828v1.009c1.469-0.09,2.297-0.216,3.215-0.486
		c0.459-0.135,0.746-0.252,0.953-0.396L116.765,71.767z"/>
	<path d="M117.995,73.315c0.217,0.035,0.361,0.045,0.693,0.045h0.469c0.26,0,0.477-0.019,0.684-0.045
		c-0.027,0.27-0.035,0.513-0.035,0.945v1.791c0.135,0.307,0.252,0.459,0.459,0.604c0.521,0.369,1.063,0.477,2.285,0.477
		c1.756,0,2.836-0.054,3.701-0.18c-0.127,0.297-0.162,0.396-0.207,0.639c-0.973,0.045-1.881,0.063-3.033,0.063
		c-1.549,0-2.027-0.054-2.566-0.306c-0.369-0.181-0.684-0.46-0.945-0.855c-0.396,0.396-0.621,0.594-1.053,0.927
		c-0.137,0.108-0.199,0.153-0.352,0.298l-0.297-0.595c0.387-0.171,0.908-0.567,1.449-1.089v-2.18h-0.594
		c-0.289,0-0.451,0.01-0.658,0.045V73.315z M118.544,69.911c0.641,0.613,0.928,0.928,1.441,1.594l-0.459,0.405
		c-0.504-0.72-0.811-1.08-1.396-1.63L118.544,69.911z M121.372,71.658c-0.316,0-0.523,0.009-0.721,0.027
		c0.027-0.181,0.035-0.306,0.035-0.585v-0.307c0-0.243-0.008-0.387-0.035-0.585c0.18,0.026,0.379,0.036,0.721,0.036h1.377
		c-0.01-0.262-0.018-0.379-0.045-0.549h0.594c-0.027,0.18-0.045,0.314-0.045,0.549h1.467c0.352,0,0.541-0.01,0.73-0.036
		c-0.027,0.18-0.037,0.342-0.037,0.585v0.307c0,0.242,0.01,0.414,0.027,0.585c-0.197-0.019-0.441-0.027-0.721-0.027h-1.467v0.513
		h1.963c0.377,0,0.549-0.008,0.783-0.045v0.541c-0.262-0.037-0.424-0.045-0.783-0.045h-4.475c-0.369,0-0.559,0.008-0.773,0.045
		v-0.541c0.225,0.037,0.395,0.045,0.773,0.045h2.018v-0.513H121.372z M121.47,76.475c-0.207,0-0.422,0.009-0.584,0.027
		c0.018-0.171,0.027-0.315,0.027-0.531v-2.396c0-0.207-0.02-0.396-0.027-0.521c0.135,0.027,0.297,0.036,0.576,0.036h3.105
		c0.287,0,0.449-0.009,0.586-0.036c-0.02,0.126-0.02,0.27-0.02,0.495v0.459c0,0.226,0,0.388,0.02,0.505
		c-0.172-0.019-0.334-0.027-0.586-0.027h-3.133v0.504h3.43c0.279,0,0.441-0.009,0.586-0.036c-0.01,0.108-0.02,0.288-0.02,0.505
		v0.549c0,0.207,0.01,0.378,0.02,0.495c-0.145-0.019-0.361-0.027-0.586-0.027H121.47z M121.21,70.659v0.604h1.549v-0.604H121.21z
		 M121.435,74.08h3.168v-0.585h-3.168V74.08z M124.892,76.061v-0.657h-3.457v0.657H124.892z M123.253,71.263h1.639v-0.604h-1.639
		V71.263z"/>
</g>
<g>
	<path d="M1.854,65.448c0-0.369-0.018-0.55-0.063-0.748h0.647c-0.045,0.217-0.063,0.414-0.063,0.748v0.207h0.892
		c0.387,0,0.576-0.01,0.801-0.045v0.576c-0.243-0.037-0.45-0.046-0.801-0.046H2.377v0.864h0.63c0.441,0,0.631-0.009,0.828-0.035
		c-0.026,0.162-0.026,0.287-0.026,0.801v1.432c0,0.531,0.009,0.684,0.026,0.846c-0.225-0.027-0.414-0.035-0.828-0.035H2.368v0.846
		h0.773c0.379,0,0.567-0.01,0.793-0.045v0.594c-0.243-0.035-0.414-0.045-0.793-0.045H2.368v0.693c0,0.378,0.018,0.585,0.071,0.819
		H1.792c0.045-0.207,0.054-0.405,0.054-0.819v-0.693H0.811c-0.369,0-0.567,0.01-0.811,0.045v-0.594
		c0.226,0.035,0.414,0.045,0.811,0.045h1.035v-0.846H1.261c-0.36,0-0.576,0.008-0.838,0.035c0.027-0.234,0.036-0.486,0.036-0.855
		v-1.377c0-0.369-0.009-0.586-0.036-0.846c0.226,0.026,0.441,0.035,0.838,0.035h0.594v-0.864H0.892
		c-0.378,0-0.585,0.009-0.811,0.046V65.61c0.216,0.035,0.414,0.045,0.811,0.045h0.963V65.448z M0.964,69.544h2.331v-0.819H0.964
		V69.544z M0.973,68.257h2.331v-0.783H0.973V68.257z M5.068,69.787c-0.071,0.692-0.135,1.026-0.261,1.458
		c-0.18,0.631-0.405,1.045-0.837,1.603c-0.189-0.188-0.279-0.261-0.478-0.378c0.648-0.793,0.873-1.351,1.008-2.503
		c0.091-0.802,0.136-2.052,0.136-3.907c0-0.549-0.009-0.837-0.036-1.063c0.288,0.027,0.441,0.037,0.864,0.037h1.359
		c0.405,0,0.594-0.01,0.855-0.037c-0.027,0.217-0.036,0.478-0.036,0.928v5.914c0,0.693-0.198,0.855-1.026,0.855
		c-0.243,0-0.522-0.008-0.883-0.045c-0.026-0.252-0.063-0.404-0.144-0.63c0.504,0.091,0.766,0.117,1.063,0.117
		c0.396,0,0.441-0.036,0.441-0.351v-1.999H5.068z M7.095,69.292v-1.63H5.177c0,0.667-0.009,0.774-0.072,1.63H7.095z M7.095,67.158
		v-1.62H5.186v1.62H7.095z"/>
	<path d="M11.971,71.749c-0.414,0.324-0.612,0.451-1.035,0.648c-0.513,0.262-0.837,0.379-1.548,0.576
		c-0.127-0.216-0.207-0.314-0.415-0.513c0.729-0.144,1.107-0.253,1.585-0.468c0.396-0.181,0.585-0.298,0.928-0.576L11.971,71.749z
		 M10.575,65.466c-0.387,0-0.594,0.009-0.818,0.045v-0.586c0.233,0.037,0.432,0.046,0.828,0.046h4.825
		c0.396,0,0.585-0.009,0.819-0.046v0.586c-0.198-0.027-0.459-0.045-0.802-0.045h-2.241v0.837h2.872c0.432,0,0.594-0.009,0.927-0.054
		v0.604c-0.207-0.037-0.558-0.055-0.909-0.055H9.928c-0.379,0-0.64,0.018-0.919,0.055v-0.604c0.243,0.035,0.522,0.054,0.919,0.054
		h2.691v-0.837H10.575z M15.005,67.401c0.559,0,0.738-0.01,1.018-0.027c-0.036,0.315-0.045,0.549-0.045,0.963v2.018
		c0,0.521,0.009,0.811,0.045,1.018c-0.297-0.027-0.612-0.046-0.964-0.046h-4.104c-0.352,0-0.676,0.019-0.973,0.046
		c0.036-0.207,0.045-0.514,0.045-1.027v-2.008c0-0.404-0.009-0.629-0.045-0.963c0.252,0.018,0.468,0.027,0.999,0.027H15.005z
		 M10.585,68.563h4.834v-0.711h-4.834V68.563z M10.585,69.706h4.834v-0.702h-4.834V69.706z M10.585,70.876h4.834v-0.729h-4.834
		V70.876z M14.312,71.398c0.766,0.522,1.53,0.81,2.665,0.999c-0.135,0.172-0.226,0.315-0.324,0.541
		c-1.233-0.316-1.872-0.586-2.782-1.189L14.312,71.398z"/>
	<path d="M18.216,69.76c0-0.351-0.009-0.603-0.035-0.873c0.261,0.026,0.477,0.036,0.828,0.036h1.701c0.288,0,0.495-0.01,0.729-0.027
		c-0.019,0.189-0.027,0.342-0.027,0.846v2.08c0,0.441,0.009,0.666,0.036,0.883h-0.585v-0.396h-2.089v0.567h-0.604
		c0.036-0.234,0.045-0.478,0.045-0.937V69.76z M18.774,71.804h2.089v-2.377h-2.089V71.804z M19.513,65.727
		c0-0.306-0.009-0.522-0.036-0.756c0.279,0.036,0.531,0.045,1.009,0.045h2.943c0.522,0,0.774-0.009,1.018-0.045
		c-0.027,0.233-0.036,0.423-0.036,0.747v1.521c0,0.342,0.009,0.576,0.036,0.792c-0.252-0.026-0.504-0.036-0.945-0.036h-3.07
		c-0.432,0-0.711,0.01-0.954,0.036c0.027-0.243,0.036-0.478,0.036-0.783V65.727z M20.08,67.482h3.754v-1.954H20.08V67.482z
		 M22.304,69.67c0-0.423,0-0.558-0.027-0.774c0.225,0.018,0.423,0.027,0.729,0.027h1.98c0.342,0,0.558-0.01,0.774-0.036
		c-0.027,0.233-0.036,0.504-0.036,0.882v2.17c0,0.486,0.009,0.711,0.045,0.937h-0.612v-0.567h-2.305v0.567h-0.585
		c0.026-0.234,0.036-0.468,0.036-0.882V69.67z M22.853,71.804h2.313v-2.377h-2.313V71.804z"/>
	<path d="M30.412,66.951c0.441,0,0.685-0.009,0.937-0.036c-0.027,0.279-0.036,0.469-0.036,0.846v4.331
		c0,0.081-0.009,0.135-0.036,0.252c0.486-0.513,0.792-1.063,1.035-1.882c0.243-0.828,0.396-1.801,0.45-2.836h-0.288
		c-0.351,0-0.604,0.018-0.864,0.055v-0.604c0.252,0.027,0.514,0.045,0.855,0.045h0.315c0.018-0.369,0.018-0.594,0.018-1.063
		c0-0.738-0.009-1.063-0.045-1.314h0.639c-0.026,0.18-0.045,0.738-0.045,1.531c0,0.306,0,0.494,0.019,0.846h0.792
		c0.369,0,0.612-0.018,0.855-0.055v0.613c-0.252-0.037-0.495-0.055-0.828-0.055h-0.793c0.046,0.729,0.189,1.477,0.414,2.134
		c0.343,1.044,0.829,1.864,1.459,2.485c-0.162,0.18-0.261,0.324-0.378,0.576c-1.026-1.189-1.53-2.395-1.792-4.285
		c-0.135,1.943-0.54,3.15-1.404,4.275c-0.153-0.197-0.279-0.324-0.423-0.432c-0.09,0.225-0.288,0.307-0.729,0.307
		c-0.135,0-0.36-0.01-0.639-0.019c-0.01-0.207-0.046-0.351-0.127-0.558c0.324,0.053,0.559,0.071,0.766,0.071
		c0.198,0,0.271-0.054,0.271-0.207V67.41h-3.034v4.357c0,0.567,0.009,0.828,0.054,1.107h-0.621c0.045-0.315,0.054-0.558,0.054-1.099
		v-4.016c0-0.369-0.009-0.584-0.035-0.846c0.252,0.027,0.485,0.036,0.909,0.036h0.909v-0.855h-1.306
		c-0.333,0-0.585,0.019-0.811,0.054v-0.585c0.234,0.036,0.486,0.054,0.838,0.054h1.278v-0.242c0-0.226-0.019-0.414-0.055-0.666
		h0.631c-0.045,0.197-0.055,0.359-0.055,0.656v0.252h1.188c0.36,0,0.612-0.018,0.855-0.054v0.585
		c-0.225-0.035-0.495-0.054-0.837-0.054h-1.207v0.855H30.412z M29.404,68.86c0.242-0.486,0.368-0.811,0.495-1.314l0.468,0.18
		c-0.226,0.549-0.306,0.72-0.54,1.135h0.099c0.324,0,0.469-0.01,0.657-0.046v0.531c-0.198-0.036-0.369-0.045-0.657-0.045h-0.387
		v0.892h0.324c0.324,0,0.468-0.01,0.657-0.045v0.531c-0.189-0.037-0.36-0.045-0.657-0.045h-0.324v0.891
		c0,0.432,0.009,0.676,0.036,0.918h-0.559c0.036-0.216,0.045-0.468,0.045-0.918v-0.891h-0.324c-0.306,0-0.468,0.008-0.666,0.045
		v-0.531c0.198,0.035,0.342,0.045,0.666,0.045h0.324v-0.892h-0.351c-0.298,0-0.469,0.009-0.676,0.045v-0.531
		c0.207,0.036,0.333,0.046,0.676,0.046H29.404z M28.675,67.581c0.18,0.369,0.261,0.559,0.423,1.035l-0.423,0.172
		c-0.135-0.459-0.234-0.703-0.414-1.045L28.675,67.581z M34.445,66.763c-0.225-0.559-0.441-0.919-0.819-1.432l0.405-0.234
		c0.387,0.504,0.594,0.837,0.855,1.359L34.445,66.763z"/>
	<path d="M40.087,71.839h2.944c0.423,0,0.702-0.018,1.008-0.053v0.684c-0.342-0.045-0.621-0.063-1.008-0.063h-5.996
		c-0.387,0-0.72,0.018-1.063,0.063v-0.684c0.298,0.035,0.612,0.053,1.063,0.053h2.413v-6.076c0-0.342-0.019-0.621-0.063-0.936h0.766
		c-0.045,0.305-0.063,0.594-0.063,0.936v1.846h2.278c0.387,0,0.675-0.018,0.937-0.055v0.693c-0.279-0.035-0.55-0.054-0.937-0.054
		h-2.278V71.839z"/>
</g>
<g>
	<path d="M66.283,26.798c-0.207,0-0.351,0.009-0.504,0.036v-0.513c-0.18,0.207-0.252,0.279-0.468,0.477
		c-0.117-0.225-0.126-0.234-0.333-0.45c0.449-0.369,0.747-0.684,1.08-1.17c0.261-0.378,0.405-0.657,0.531-1.026h0.647
		c0.279,0.63,0.586,1.026,1.216,1.576c-0.171,0.189-0.216,0.252-0.333,0.468c-0.612-0.639-0.864-0.99-1.171-1.602
		c-0.297,0.621-0.611,1.098-1.161,1.71c0.153,0.027,0.262,0.036,0.495,0.036h1.288c0.252,0,0.378-0.009,0.504-0.036v0.531
		c-0.153-0.027-0.271-0.036-0.504-0.036h-0.433v0.972h0.514c0.342,0,0.513-0.009,0.692-0.054v0.567
		c-0.207-0.027-0.396-0.036-0.692-0.036h-0.514v2.665c0.478-0.126,0.666-0.18,1.197-0.351l0.009,0.495
		c-0.864,0.279-1.746,0.513-2.521,0.666c-0.198,0.045-0.27,0.063-0.567,0.144l-0.135-0.585c0.369-0.018,0.837-0.099,1.504-0.252
		v-2.782h-0.693c-0.36,0-0.531,0.009-0.757,0.054v-0.585c0.198,0.036,0.396,0.054,0.757,0.054h0.693v-0.972H66.283z M65.779,30.66
		c-0.09-0.684-0.189-1.125-0.387-1.773l0.44-0.135c0.198,0.639,0.288,1.026,0.414,1.773L65.779,30.66z M67.444,30.309
		c0.181-0.549,0.262-0.909,0.36-1.584l0.441,0.126c-0.135,0.711-0.216,1.017-0.405,1.566L67.444,30.309z M68.669,25.447
		c0-0.585-0.009-0.765-0.026-1.026c0.216,0.027,0.44,0.036,0.98,0.036h2.368c0.612,0,0.783-0.009,0.99-0.036
		c-0.027,0.27-0.036,0.604-0.036,1.089v5.834c0,0.567-0.171,0.711-0.846,0.711c-0.207,0-0.595-0.018-0.955-0.045
		c-0.018-0.225-0.035-0.351-0.107-0.576c0.387,0.063,0.756,0.099,1.063,0.099c0.261,0,0.323-0.054,0.323-0.243v-6.329h-3.231v6.122
		c0,0.54,0.009,0.819,0.045,1.053h-0.612c0.036-0.297,0.045-0.522,0.045-1.053V25.447z M72.072,26.447
		c-0.198-0.036-0.342-0.045-0.666-0.045h-1.171c-0.342,0-0.468,0.009-0.684,0.045v-0.576c0.207,0.036,0.342,0.045,0.684,0.045h1.161
		c0.343,0,0.46-0.009,0.676-0.045V26.447z M71.793,29.57c0,0.225,0.009,0.36,0.027,0.522c-0.189-0.018-0.307-0.027-0.54-0.027
		h-0.973v0.558h-0.54c0.027-0.198,0.036-0.369,0.036-0.801v-1.972c0-0.198-0.009-0.378-0.027-0.549
		c0.171,0.018,0.352,0.027,0.585,0.027h0.828c0.298,0,0.469-0.009,0.631-0.027c-0.027,0.153-0.027,0.234-0.027,0.531V29.57z
		 M70.308,29.598h0.99v-1.792h-0.99V29.598z"/>
	<path d="M75.5,26.744c-0.226,0-0.424,0.009-0.595,0.036v-0.504c-0.198,0.198-0.288,0.271-0.54,0.478
		c-0.117-0.216-0.171-0.288-0.342-0.459c0.801-0.585,1.35-1.269,1.701-2.125h0.612c0.342,0.702,0.648,1.08,1.251,1.558
		c-0.144,0.162-0.225,0.27-0.342,0.459c-0.559-0.531-0.828-0.882-1.188-1.558c-0.333,0.685-0.621,1.099-1.144,1.63
		c0.162,0.027,0.352,0.036,0.595,0.036h1.053c0.252,0,0.433-0.009,0.595-0.036v0.522c-0.189-0.027-0.352-0.036-0.604-0.036h-0.288
		v1.026h0.45c0.352,0,0.567-0.009,0.811-0.045v0.567c-0.252-0.036-0.433-0.045-0.811-0.045h-0.45v2.584
		c0.486-0.135,0.702-0.198,1.323-0.405v0.513c-0.819,0.288-1.251,0.405-2.691,0.774c-0.226,0.054-0.504,0.126-0.64,0.162
		l-0.152-0.621c0.018,0.009,0.035,0.009,0.054,0.009c0.261,0,0.675-0.081,1.584-0.297v-2.719h-0.611
		c-0.36,0-0.595,0.009-0.847,0.045v-0.567c0.225,0.027,0.486,0.045,0.864,0.045h0.594v-1.026H75.5z M74.86,30.687
		c-0.117-0.738-0.226-1.152-0.459-1.801l0.45-0.153c0.225,0.603,0.288,0.855,0.477,1.773L74.86,30.687z M76.571,30.21
		c0.216-0.559,0.306-0.918,0.396-1.558l0.45,0.18c-0.126,0.621-0.234,1.008-0.441,1.539L76.571,30.21z M81.666,29.247
		c-0.081,0.072-0.09,0.081-0.342,0.351c-0.306,0.333-0.522,0.522-0.837,0.783c0.333,0.603,0.747,1.026,0.99,1.026
		c0.207,0,0.314-0.423,0.333-1.251c0.198,0.162,0.288,0.216,0.504,0.306c-0.108,1.125-0.324,1.584-0.747,1.584
		c-0.288,0-0.657-0.216-0.981-0.576c-0.18-0.198-0.324-0.405-0.522-0.765c-0.783,0.549-1.512,0.9-2.557,1.26
		c-0.09-0.216-0.162-0.342-0.314-0.531c1.035-0.288,1.791-0.63,2.628-1.197c-0.207-0.441-0.323-0.792-0.449-1.341l-0.819,0.108
		c-0.279,0.036-0.595,0.099-0.819,0.162l-0.072-0.594c0.054,0.009,0.09,0.009,0.126,0.009c0.145,0,0.45-0.027,0.711-0.063
		l0.766-0.099c-0.072-0.396-0.09-0.522-0.153-1.008l-0.477,0.063c-0.279,0.036-0.522,0.072-0.738,0.126l-0.072-0.541
		c0.036,0,0.063,0,0.081,0c0.144,0,0.36-0.018,0.675-0.054l0.469-0.054c-0.036-0.369-0.045-0.504-0.072-0.891l-0.459,0.054
		c-0.297,0.036-0.559,0.081-0.828,0.145l-0.072-0.559c0.126,0,0.126,0,0.135,0c0.153,0,0.441-0.018,0.693-0.054l0.504-0.054
		c-0.071-1.305-0.071-1.305-0.107-1.512h0.639c-0.018,0.144-0.026,0.297-0.026,0.513c0,0.297,0,0.504,0.018,0.936l1.432-0.171
		c0.378-0.045,0.603-0.09,0.837-0.162l0.063,0.558c-0.198,0-0.396,0.018-0.847,0.072l-1.458,0.171
		c0.036,0.387,0.045,0.54,0.081,0.891l1.215-0.153c0.414-0.045,0.612-0.081,0.847-0.153l0.081,0.549
		c-0.217,0-0.441,0.018-0.864,0.072l-1.225,0.144c0.054,0.45,0.081,0.64,0.153,1l1.422-0.189c0.378-0.045,0.612-0.09,0.828-0.162
		l0.072,0.594c-0.045-0.009-0.072-0.009-0.099-0.009c-0.162,0-0.424,0.027-0.766,0.072l-1.351,0.18
		c0.108,0.423,0.198,0.702,0.36,1.08c0.504-0.414,0.783-0.72,0.937-1.008L81.666,29.247z M80.118,24.079
		c0.504,0.27,0.765,0.441,1.179,0.792l-0.342,0.396c-0.378-0.36-0.675-0.576-1.197-0.846L80.118,24.079z"/>
	<path d="M87.866,28.094c0,0.405-0.333,0.738-0.738,0.738c-0.404,0-0.738-0.333-0.738-0.738c0-0.405,0.334-0.738,0.738-0.738
		C87.533,27.356,87.866,27.689,87.866,28.094z"/>
	<path d="M93.211,25.132c-0.432,0-0.737,0.018-1.053,0.054V24.52c0.297,0.036,0.604,0.054,1.053,0.054h5.834
		c0.433,0,0.738-0.018,1.045-0.054v0.666c-0.315-0.036-0.631-0.054-1.045-0.054h-2.826v1.026c1.773,0.891,2.07,1.062,3.195,1.845
		l-0.351,0.559c-0.621-0.486-1.054-0.774-1.909-1.261c-0.188-0.117-0.188-0.117-0.936-0.495v4.24c0,0.486,0.018,0.774,0.063,1.063
		h-0.747c0.045-0.288,0.063-0.585,0.063-1.063v-5.915H93.211z"/>
	<path d="M102.464,30.48c-0.288,0.765-0.495,1.134-0.945,1.656c-0.162-0.162-0.243-0.216-0.46-0.342
		c0.469-0.478,0.657-0.801,0.919-1.54L102.464,30.48z M102.229,29.922c-0.378,0-0.531,0.009-0.711,0.027
		c0.018-0.162,0.026-0.486,0.026-0.837v-3.925c0-0.342-0.009-0.576-0.036-0.801c0.217,0.018,0.433,0.027,0.802,0.027h0.909
		c0.441,0,0.585-0.009,0.774-0.027c-0.019,0.198-0.027,0.36-0.027,0.774v3.979c0,0.351,0.009,0.648,0.027,0.81
		c-0.252-0.018-0.423-0.027-0.738-0.027H102.229z M102.076,26.06h1.378v-1.162h-1.378V26.06z M102.076,27.725h1.378v-1.197h-1.378
		V27.725z M102.076,29.436h1.378v-1.242h-1.378V29.436z M103.427,30.237c0.271,0.63,0.433,0.891,0.811,1.368
		c-0.162,0.081-0.198,0.099-0.459,0.315c-0.36-0.513-0.522-0.811-0.802-1.468L103.427,30.237z M106.713,28.742
		c-0.459,0.945-1.116,1.647-2.17,2.296c-0.126-0.18-0.234-0.288-0.405-0.414c0.973-0.495,1.657-1.125,2.035-1.882h-0.738
		c-0.315,0.342-0.576,0.558-1.054,0.874c-0.135-0.18-0.188-0.234-0.369-0.396c0.883-0.486,1.323-0.936,1.692-1.701h-0.188
		c-0.343,0-0.621,0.009-0.792,0.036c0.026-0.234,0.035-0.432,0.035-0.81v-1.512c0-0.405-0.009-0.559-0.035-0.792
		c0.252,0.036,0.485,0.045,0.846,0.045h2.161c0.387,0,0.657-0.009,0.909-0.045c-0.027,0.225-0.036,0.45-0.036,0.828v1.477
		c0,0.396,0.009,0.657,0.036,0.801c-0.217-0.018-0.469-0.027-0.847-0.027h-1.549c-0.171,0.351-0.252,0.495-0.432,0.756h2.35
		c0.441,0,0.648-0.009,0.892-0.036c-0.019,0.126-0.036,0.306-0.045,0.567c-0.055,1.188-0.136,2.044-0.243,2.53
		c-0.126,0.567-0.315,0.729-0.883,0.729c-0.188,0-0.477-0.009-0.846-0.036c-0.019-0.234-0.045-0.342-0.136-0.567
		c0.441,0.072,0.685,0.09,0.964,0.09s0.342-0.099,0.432-0.657c0.072-0.504,0.126-1.152,0.172-2.152h-0.405
		c-0.252,0.685-0.459,1.089-0.828,1.612c-0.478,0.675-1.018,1.179-1.854,1.737c-0.136-0.198-0.208-0.27-0.424-0.423
		c0.819-0.468,1.378-0.954,1.854-1.593c0.333-0.45,0.514-0.783,0.712-1.333H106.713z M105.281,25.771h2.782v-0.811h-2.782V25.771z
		 M105.281,27.068h2.782V26.23h-2.782V27.068z"/>
	<path d="M110.383,29.093c0-0.351-0.009-0.603-0.035-0.873c0.261,0.027,0.477,0.036,0.828,0.036h1.701
		c0.288,0,0.495-0.009,0.729-0.027c-0.019,0.189-0.027,0.342-0.027,0.846v2.08c0,0.441,0.009,0.666,0.036,0.882h-0.585v-0.396
		h-2.089v0.567h-0.604c0.036-0.234,0.045-0.477,0.045-0.937V29.093z M110.941,31.137h2.089V28.76h-2.089V31.137z M111.68,25.06
		c0-0.306-0.009-0.522-0.036-0.756c0.279,0.036,0.531,0.045,1.009,0.045h2.943c0.522,0,0.774-0.009,1.018-0.045
		c-0.027,0.234-0.036,0.423-0.036,0.747v1.521c0,0.342,0.009,0.576,0.036,0.792c-0.252-0.027-0.504-0.036-0.945-0.036h-3.07
		c-0.432,0-0.711,0.009-0.954,0.036c0.027-0.243,0.036-0.477,0.036-0.783V25.06z M112.247,26.816h3.754v-1.954h-3.754V26.816z
		 M114.471,29.003c0-0.423,0-0.558-0.027-0.774c0.225,0.018,0.423,0.027,0.729,0.027h1.98c0.342,0,0.558-0.009,0.774-0.036
		c-0.027,0.234-0.036,0.504-0.036,0.882v2.169c0,0.486,0.009,0.711,0.045,0.937h-0.612v-0.567h-2.305v0.567h-0.585
		c0.026-0.234,0.036-0.468,0.036-0.882V29.003z M115.02,31.137h2.313V28.76h-2.313V31.137z"/>
</g>
</svg>
