<?xml version="1.0" encoding="utf-8"?>
<!-- Generator: Adobe Illustrator 16.0.0, SVG Export Plug-In . SVG Version: 6.00 Build 0)  -->
<!DOCTYPE svg PUBLIC "-//W3C//DTD SVG 1.1//EN" "http://www.w3.org/Graphics/SVG/1.1/DTD/svg11.dtd">
<svg version="1.1" id="レイヤー_1" xmlns="http://www.w3.org/2000/svg" xmlns:xlink="http://www.w3.org/1999/xlink" x="0px"
	 y="0px" width="569.667px" height="287.417px" viewBox="0 0 569.667 287.417" enable-background="new 0 0 569.667 287.417"
	 xml:space="preserve">
<g>
	<defs>
		<rect id="SVGID_1_" width="569.667" height="287.417"/>
	</defs>
	<clipPath id="SVGID_2_">
		<use xlink:href="#SVGID_1_"  overflow="visible"/>
	</clipPath>
	<g clip-path="url(#SVGID_2_)">
		
			<path fill-rule="evenodd" clip-rule="evenodd" fill="none" stroke="#000000" stroke-width="2" stroke-linecap="round" stroke-linejoin="round" stroke-miterlimit="10" d="
			M88,104.333c-0.614-1.623-1.229-3.245-1.844-4.867c-0.073,0.077-0.147,0.154-0.222,0.231c-1.774-2.704-3.55-5.408-5.681-8.654
			c-1.901-0.228-4.598-0.552-8.099-0.972c0.499-2.5,0.703-4.695,1.405-6.717c0.728-2.095,1.938-4.022,2.94-6.021
			c2.076-4.138,4.645-4.577,8.509-1.513c0.757,0.6,1.642,1.036,3.021,1.891c5.131-2.531,10.687-4.973,15.892-8.013
			c1.668-0.975,2.431-3.52,3.574-5.368c1.849-2.989,3.159-6.521,5.598-8.901c8.103-7.905,16.624-15.345,27.386-19.646
			c2.472-0.988,5.026-2.248,6.953-4.022c4.706-4.332,9.15-0.426,13.537,0.264c2.804,0.44,4.025,7.944,1.439,9.674
			c-5.978,3.997-7.62,9.602-7.374,16.135c0.313,8.373-3.363,15.418-7.762,22.501c1.394,0,2.297,0.285,2.691-0.042
			c7.649-6.355,16.612-10.367,25.529-14.471c0.878-0.404,1.756-0.888,2.493-1.502c9.299-7.752,19.967-7.646,31.017-5.506
			c0.804,0.155,1.795,0.3,2.476-0.022c6.639-3.152,11.256,1.8,16.508,4.072c2.988,1.294,3.831,3.986,3.479,6.967
			c-0.535,4.516-1.204,9.021-2.034,13.491c-0.202,1.09-1.252,2.021-2.133,3.362c-6.422-0.646-7.591,4.8-10.534,9.791
			c2.523,0.192,4.363,0.332,7.044,0.536c-0.776,2.331-1.527,4.588-2.249,6.753c2.326,1.664,4.659,3.332,7.22,5.163
			c1.58-1.717,3.26-3.543,5.023-5.459c4.978,2.523,8.73,8.534,15.155,3.551c4.383,6.595,7.548,12.736,6.228,20.351
			c-2.525-0.48-4.865-0.926-7.477-1.423c-3.17,1.491-5.068,3.875-3.895,7.895c2.875,0.933,5.584,1.811,8.242,2.673
			c-1.063,6.021-5.708,11.83,0.715,17.537c-5.981,5.655-6.322,12.461-3.786,19.788c0.275,0.796,0.394,1.655,0.507,2.496
			c0.919,6.775,4.928,9.39,11.509,7.503c1.827-0.523,3.692-1.51,5.494-1.412c6.228,0.335,6.824,0.09,8.566-5.8
			c2.757-0.259,5.595-0.695,8.439-0.748c3.375-0.062,5.644-0.759,7.184-4.467c1.601-3.852,6.595-2.804,9.843-4.525
			c1.752-0.928,3.786-1.322,5.183-1.787c1.352-8.119,2.911-15.407,3.656-22.778c0.413-4.091-0.644-8.315-0.814-12.488
			c-0.075-1.823,0.411-3.67,1.684-6.041c-13.628-17.78-27.256-35.562-40.532-52.885c7.209-13.494,20.012-21.023,30.288-31.081
			c3.083-3.019,6.333-5.432,11.012-5.022c3.505,0.308,4.212-2.697,4.369-4.978c0.285-4.136,0.266-8.417-0.526-12.461
			c-0.594-3.028-0.313-5.645,1.729-7.445c3.738-3.298,8.023-5.967,11.878-9.142c1.613-1.327,2.785-3.226,4.029-4.956
			c1.754-2.437,3.389-4.958,5.213-7.649c2.504,1.269,5.104,2.588,8.08,4.097c1.32-2.458,3.232-4.594,3.576-6.956
			c0.688-4.741,4.408-6.017,7.719-7.299c2.045-0.793,4.846-0.88,6.516,2.274c3.451,6.514,10.449,8.432,16.488,11.394
			c1.146,0.563,4.141-0.331,4.785-1.431c4.676-7.98,12.639-9.738,20.592-12.082c3.457-1.018,6.705-3.47,9.475-5.919
			c4.422-3.905,8.836-7.205,14.445-9.705c10.227-4.557,18.271-11.737,21.424-23.633c1.188-4.48,5.553-8.205,8.74-12.049
			c5.205-6.274,10.947-12.123,15.881-18.594"/>
		
			<path fill-rule="evenodd" clip-rule="evenodd" fill="none" stroke="#000000" stroke-width="2" stroke-linecap="round" stroke-linejoin="round" stroke-miterlimit="10" d="
			M89,103.333c0.834-1.666,1.668-3.333,2.501-5c6.416-0.796,6.95-0.25,9.071,5.976c1.219,3.576,3.166,6.905,5.162,11.147
			c2.599,2.142,5.842,2.042,9.294-0.586c2.862-2.181,6.033-3.952,8.958-6.056c5.334-3.834,11.186-4.257,16.96-1.854
			c3.519,1.465,6.511,4.191,9.739,6.351c-0.18,0.654-0.359,1.309-0.539,1.963c3.785-0.647,7.629-1.057,11.34-1.994
			c6.57-1.658,9.446-0.978,12.202,3.093c-1.444,3.8-2.774,7.301-4.443,11.692c-1.283-0.469-3.095-0.942-4.723-1.775
			c-1.717-0.879-3.258-2.1-5.259-3.426c-3.616,5.699-8.393,8.759-15.245,9.239c-2.781,0.195-5.69,3.053-7.959,5.29
			c-8.979,8.853-17.728,17.938-26.556,26.943c-0.416,0.426-0.77,0.914-1.063,1.267c0.583,2.055,1.103,3.884,1.675,5.901
			c13.029,0.667,17.757,9.719,20.387,20.827c0.633,2.675,1.302,5.341,2.035,8.344c-4.188,4.238-1.467,7.99,1.47,11.65
			c7.934,9.888,15.906,19.742,23.858,29.604c-6.116,1.84-8.116,0.527-22.874-2.44c2.301,3.903,24.383,5.468,22.883,10.218
			c-1.109,3.511-11.5,14-11.5,14l1.375,5L131,273.083c0,0,27.5-4.125,26.25,5.625c5.125-0.821,4.471,0.983,4.471,0.983
			s0.293,6.554,0.838,9.129c0.922,4.356-0.585,7.23-5.115,9.947c-1.143,3.713-2.099,6.623-2.922,9.571
			c-0.455,1.633-0.913,3.318-0.979,4.996c-0.207,5.186-1.663,6.343-6.547,5.017c-1.292-0.351-2.646-0.475-4.912-0.865
			c-2.188,12.427-6.976,23.691-15.146,33.235c-1.965,0.503-3.963,1.014-6.288,1.608c1.119,1.226,2.082,2.28,3.249,3.559
			c-5.16,5.709-6.436,13.616-12.704,18.685"/>
		
			<path fill-rule="evenodd" clip-rule="evenodd" fill="none" stroke="#000000" stroke-width="2" stroke-linecap="round" stroke-linejoin="round" stroke-miterlimit="10" d="
			M520,51.333c-2.9,11.723-7.65,22.711-12.893,33.552c-1.529,3.163-1.701,6.968-2.637,10.44c-0.504,1.877-0.83,4.113-2.053,5.431
			c-4.967,5.352-10.215,10.447-15.451,15.543c-0.932,0.907-2.227,1.692-3.48,1.977c-4.666,1.056-8.24,3.619-11.543,7.002
			c-3.477,3.562-9.945,3.601-13.443,0.556c3.438-7.716,5.467-10.557,10-14c-7.65-2.924-11.191-1.484-16.076,6.627
			c0.711,1.071,1.457,2.196,2.457,3.704c-3.424,5.996-7.086,11.988-10.273,18.224c-1.016,1.984-1.1,4.621-1.035,6.943
			c0.113,4.046-1.547,5.477-5.566,5.626c-3.311,0.122-6.58,1.333-9.68,2.021c-0.98-2.536-1.707-4.41-2.283-5.9
			c-3.686,0.461-6.854,1.039-10.045,1.22c-7.826,0.443-15.666,0.682-23.498,1.045c-3.824,0.178-7.525,0.113-9.527-3.596
			c-8.91,3.439-14.711,9.88-20.598,16.476c-3.66,4.101-8.424,7.278-12.959,10.493c-1.119,0.794-3.283,0.118-5.43,0.118
			c-2.035,1.96-6.744,3.459-4.049,7.536c-0.709,3.992-1.27,7.152-1.924,10.837c3.449,0.334,5.959,0.576,8.809,0.852
			c3.82-8.682,10.396-1.566,15.719-2.214c1.113-2.436,2.043-4.465,3.336-7.292c2.451,0.612,5.082,1.271,8.084,2.021
			c7.859-4.48,17.24-2.185,26.889-4.476c2.07-1.838,1.658-7.938,7.65-7.268c4.291,0.479,9.555-1.991,11.688,3.754
			c1.996,0,3.68,0,5.66,0c2.02,2.61,0.08,5.344-1.48,7.135c-2.822,3.24-2.16,5.555,0.039,8.682
			c2.076,2.951,3.371,6.451,5.162,10.011c9.293,1.257,13.697-1.429,16.951-10.57c1.645-4.619,3.736-8.917,10.221-9.584
			c-1.902-2.514-3.574-4.721-5.486-7.249c0.439-3.052,0.922-6.388,1.434-9.924c1.299,0,2.285,0,3.443,0
			c0.941,2.789,0.492,6.777,5.373,8.237c-0.42-2.496-0.748-4.443-1.232-7.324c3.088,1.852,5.27,3.159,7.861,4.713
			c-1.688,1.266-2.914,2.188-4.596,3.45c8.898,3.339,17.816,0.748,27.07,1.952c-0.713-6.263,0.959-11.478,6.799-16.474
			c0.279,5.436,0.504,9.806,0.771,14.994c8.068-1.934,4.758-9.226,8.586-12.945c1.207,0.549,2.975,1.352,4.74,2.15
			c1.809-5.776,3.209-6.804,7.826-5.404c-1.006,4.584-2.014,9.181-3.045,13.878c4.916,0.147,6.814-1.989,8.432-5.889
			c1.486-3.586,4.563-6.637,7.363-9.512c1.791-1.838,4.352-2.927,7.07-4.675c-1.268-2.743-2.564-5.28-3.625-7.912
			c-1.637-4.063-1.848-8.306,1.551-11.406c3.891-3.55,4.238-8.021,4.371-12.586c0.203-6.994-0.135-14.006,0.145-20.994
			c0.115-2.855,0.643-6.023,2.055-8.418c1.916-3.248,5.211-4.313,9.854-1.422c0.717-4.179,1.646-7.9,1.924-11.67
			c0.307-4.173,0.676-8.02,3.438-11.602c1.6-2.075,2.072-5.176,2.588-7.902c1.441-7.628,2.086-14.9-3.822-21.602
			c-5.391-6.112-5.125-13.804-3.094-21.513c-4.355-0.46-8.688-1.103-13.037-1.249c-1.119-0.038-2.289,1.487-4.057,2.731
			c3.865,3.511,7.09,6.441,10.742,9.76c-1.115,1.115-1.947,1.948-2.346,2.348c-2.822-0.399-4.902-0.448-6.811-1.047
			c-1.299-0.408-3.01-1.352-3.408-2.461c-1.422-3.972-4.223-5.409-8.363-5.521c-3.242,7.099-7.988,13.676-7.529,21.22
			c-2.338,1.939-4.143,3.436-5.947,4.932c0.213,0.422,0.426,0.844,0.639,1.266c1.527,0.383,3.057,0.765,4.584,1.146"/>
		
			<path fill-rule="evenodd" clip-rule="evenodd" fill="none" stroke="#000000" stroke-width="2" stroke-linecap="round" stroke-linejoin="round" stroke-miterlimit="10" d="
			M546.414-26.886c-6.896,3.69-11.303-2.636-17.578-3.444c-0.268,5.301-0.529,10.503-0.813,16.164c-3.346,0-6.199,0-9.92,0
			c0.492,6.241,0.939,11.909,1.387,17.576c0.393-0.006,0.783-0.013,1.174-0.02c-0.514,1.495-1.027,2.99-1.809,5.265
			c2.15,2.313,4.648,4.995,7.145,7.679"/>
		
			<path fill-rule="evenodd" clip-rule="evenodd" fill="none" stroke="#000000" stroke-width="2" stroke-linecap="round" stroke-linejoin="round" stroke-miterlimit="10" d="
			M527,15.333c2.975-7.41,6.791-9.02,17.057-2.126c0.904-1.988,1.762-3.878,3.129-6.892c-2.604-1.519-5.029-3.269-7.709-4.429
			c-6.25-2.705-6.342-2.658-5.324-10.178c3.516,2.187,6.682,4.155,10.498,6.528c2.373-3.035,4.863-6.219,7.566-9.675
			c6.846,3.658,12.664,6.546,18.256,9.818c5.623,3.29,11.021,6.963,16.768,10.627c3.361-2.958,5.834-6.235,5.35-11.184
			c-0.109-1.107,0.701-2.483,1.447-3.463c2.73-3.58,5.609-7.044,8.66-10.833c1.576,0.749,3.193,1.518,4.813,2.286
			c-0.027-0.237-0.055-0.476-0.082-0.713c3.357-0.423,6.709-1.137,10.074-1.209c7.34-0.158,12.666-3.498,17.359-10.358
			c-3.105,0.497-5.246,0.84-7.893,1.264c-2.277-2.768-3.486-5.293-1.209-9.593"/>
		
			<path fill-rule="evenodd" clip-rule="evenodd" fill="none" stroke="#000000" stroke-width="2" stroke-linecap="round" stroke-linejoin="round" stroke-miterlimit="10" d="
			M339,247.833c0.746,2.364,1.494,4.728,2.293,7.262c1.41-0.498,2.551-0.902,4.207-1.488c0-1.938,0-4.135,0-6.839
			c3.174,0.445,5.793,0.813,8.383,1.178c2.123-10.975,4.127-21.339,6.293-32.538c-1.518-1.875-3.617-4.467-5.705-7.046
			c0.691-1.363,1.367-2.693,2.039-4.017c-3.248-4.116-3.248-4.116-10.93-2.419c-0.721-0.585-1.721-1.27-2.561-2.111
			c-0.916-0.918-1.686-1.981-2.52-2.981c-7.277,0-7.277,0-12.182,6.75c-1.639,0-3.477,0-5.016,0
			c-3.027,2.514-5.751,4.777-9.317,7.74c2.629,0.296,4.311,0.485,6.014,0.678c0,2.034,0,4.188,0,6.549
			c-2.281-0.286-4.106-0.515-5.861-0.735c0.693,2.989,1.279,5.514,1.92,8.274c3.082,0.796,6.294,1.626,10.689,2.76
			c0.174-4.619,0.352-9.324,0.545-14.408c4.947,1.609,5.502,4.47,5.229,7.895c-0.414,5.16-0.668,10.333-1.027,15.498
			c-0.303,4.335-0.66,8.667-1.014,13.258c1.408,0.656,2.898,1.351,4.389,2.045c0.365-0.188,0.729-0.376,1.094-0.564
			c-0.707-2.295-1.414-4.59-2.24-7.267c0.691-1.513,1.623-3.546,2.561-5.598c1.373,0.485,2.516,0.89,4.691,1.659
			c-0.594,1.792-1.283,3.88-1.975,5.967"/>
		
			<path fill-rule="evenodd" clip-rule="evenodd" fill="none" stroke="#000000" stroke-width="2" stroke-linecap="round" stroke-linejoin="round" stroke-miterlimit="10" d="
			M635.5-39.167"/>
		
			<path fill-rule="evenodd" clip-rule="evenodd" fill="none" stroke="#000000" stroke-width="2" stroke-linecap="round" stroke-linejoin="round" stroke-miterlimit="10" d="
			M636-38.667"/>
		
			<path fill-rule="evenodd" clip-rule="evenodd" fill="none" stroke="#000000" stroke-width="2" stroke-linecap="round" stroke-linejoin="round" stroke-miterlimit="10" d="
			M259,208.833c-0.333-0.5-0.553-1.222-1.02-1.461c-1.926-0.987-3.927-1.828-6.375-2.938c-2.462,1.722-5.002,3.498-7.776,5.438
			c4.386,3.006,9.179,2.663,14.671-0.54"/>
		
			<path fill-rule="evenodd" clip-rule="evenodd" fill="none" stroke="#000000" stroke-width="2" stroke-linecap="round" stroke-linejoin="round" stroke-miterlimit="10" d="
			M489,90.333c-1.369,1.67-2.74,3.339-3.732,4.549c1.256,2.691,2.105,4.517,3.287,7.051c1.605-2.096,3.125-4.08,4.229-5.521
			c-1.479-2.289-2.381-3.684-3.283-5.078"/>
		
			<path fill-rule="evenodd" clip-rule="evenodd" fill="none" stroke="#000000" stroke-width="2" stroke-linecap="round" stroke-linejoin="round" stroke-miterlimit="10" d="
			M342.5,263.833c-0.678,3.531-1.355,7.063-2.143,11.172c-1.434-0.28-2.396-0.468-3.723-0.727c1.146-2.705,2.256-5.325,3.365-7.945"
			/>
		
			<path fill-rule="evenodd" clip-rule="evenodd" fill="none" stroke="#000000" stroke-width="2" stroke-linecap="round" stroke-linejoin="round" stroke-miterlimit="10" d="
			M328,271.333c1.01,0.604,2.02,1.209,3.029,1.813c0.268-0.503,0.533-1.007,0.801-1.511c-0.943-0.434-1.887-0.868-2.83-1.302"/>
		
			<path fill-rule="evenodd" clip-rule="evenodd" fill="none" stroke="#000000" stroke-width="2" stroke-linecap="round" stroke-linejoin="round" stroke-miterlimit="10" d="
			M306.615,187.583c0.255-1.422,2.449-8.566,1.885-7.25l1.75-2.063l1.438,2.781l-2.063,8.031L306.615,187.583z"/>
		
			<path fill-rule="evenodd" clip-rule="evenodd" fill="none" stroke="#000000" stroke-width="2" stroke-linecap="round" stroke-linejoin="round" stroke-miterlimit="10" d="
			M400,187.833c-5.732,7.225-12.83,5.352-20.627,2.601c-1.908,2.242-3.756,4.706-5.91,6.862c-2.244,2.248-4.787,4.2-7.541,6.578
			c2.533,0.96,4.615,1.748,7.326,2.775c-4.986,9.803,1.086,14.268,9.031,18.378c2.039-4.819,4.133-9.764,5.986-14.142
			c3.193-1.481,5.896-3.572,8.756-3.815c2.602-0.221,5.373,1.563,8.643,2.655c5.008-3.373,8.453-8.41,10.086-16.088
			c-4.945-1.882-10.098-3.844-15.25-5.805"/>
	</g>
	<path clip-path="url(#SVGID_2_)" d="M305.762,224.172c0.202-2.621,2.408-7.09-1.193-6.213
		C303.67,221.222,303.869,223.475,305.762,224.172z"/>
	<path clip-path="url(#SVGID_2_)" stroke="#000000" d="M305.334,224.66C304.253,218.062,300.324,231.31,305.334,224.66
		L305.334,224.66z"/>
	<path clip-path="url(#SVGID_2_)" fill="none" stroke="#000000" stroke-dasharray="3" d="M207.838,58.205
		c15.996-9.906,37.486-35.557,41.287-39.996c0,0,17.542,6.125,18.208-0.542c0.182-1.819-2.25-4.583-2.25-4.583S290.667,11.667,295,0
		"/>
	
		<polygon clip-path="url(#SVGID_2_)" fill-rule="evenodd" clip-rule="evenodd" fill="none" stroke="#000000" stroke-width="2" stroke-linecap="round" stroke-linejoin="round" stroke-miterlimit="10" points="
		306.25,189.083 309.151,190.271 307.701,194.208 305,192.896 	"/>
	<g clip-path="url(#SVGID_2_)">
		<path d="M323.492,51.277c0-0.738-0.035-1.099-0.127-1.495h1.297c-0.09,0.432-0.125,0.828-0.125,1.495v0.414h1.781
			c0.775,0,1.152-0.018,1.604-0.09v1.152c-0.486-0.072-0.9-0.09-1.604-0.09h-1.781v1.729h1.26c0.883,0,1.26-0.018,1.656-0.072
			c-0.055,0.324-0.055,0.576-0.055,1.603v2.863c0,1.063,0.02,1.369,0.055,1.693c-0.449-0.054-0.828-0.072-1.656-0.072h-1.279v1.692
			h1.549c0.756,0,1.135-0.018,1.584-0.09v1.188c-0.484-0.072-0.828-0.09-1.584-0.09h-1.549v1.387c0,0.756,0.037,1.17,0.145,1.638
			h-1.297c0.092-0.414,0.109-0.81,0.109-1.638v-1.387h-2.07c-0.738,0-1.135,0.018-1.621,0.09v-1.188
			c0.449,0.072,0.828,0.09,1.621,0.09h2.07v-1.692h-1.17c-0.721,0-1.152,0.018-1.676,0.072c0.055-0.468,0.072-0.973,0.072-1.71
			v-2.755c0-0.738-0.018-1.17-0.072-1.693c0.451,0.054,0.883,0.072,1.676,0.072h1.188v-1.729h-1.926
			c-0.758,0-1.172,0.018-1.621,0.09v-1.152c0.432,0.072,0.828,0.09,1.621,0.09h1.926V51.277z M321.708,59.469h4.664v-1.639h-4.664
			V59.469z M321.728,56.894h4.662v-1.566h-4.662V56.894z M329.919,59.955c-0.145,1.387-0.27,2.053-0.521,2.917
			c-0.361,1.26-0.811,2.088-1.676,3.205c-0.377-0.378-0.557-0.522-0.953-0.756c1.297-1.584,1.746-2.701,2.016-5.005
			c0.18-1.603,0.271-4.105,0.271-7.814c0-1.098-0.02-1.674-0.072-2.125c0.576,0.054,0.881,0.072,1.729,0.072h2.719
			c0.811,0,1.188-0.018,1.709-0.072c-0.053,0.432-0.07,0.954-0.07,1.854v11.83c0,1.386-0.396,1.71-2.053,1.71
			c-0.486,0-1.045-0.018-1.766-0.09c-0.053-0.504-0.125-0.811-0.287-1.261c1.008,0.18,1.529,0.234,2.125,0.234
			c0.791,0,0.881-0.072,0.881-0.702v-3.998H329.919z M333.97,58.965v-3.259h-3.834c0,1.333-0.02,1.548-0.145,3.259H333.97z
			 M333.97,54.698v-3.241h-3.816v3.241H333.97z"/>
		<path d="M339.619,62.026c-0.359,1.729-0.629,2.646-1.26,3.997l-0.99-0.594c0.684-1.17,1.008-2.125,1.314-3.745L339.619,62.026z
			 M343.544,54.355c0.504,0,0.846-0.018,1.35-0.072c-0.053,0.36-0.072,0.846-0.072,1.53v3.745c0,0.9,0.02,1.225,0.055,1.639
			c-0.594-0.036-1.045-0.054-1.854-0.054h-2.719c-0.721,0-1.082,0.018-1.711,0.054c0.053-0.486,0.072-0.973,0.072-1.584v-4.357
			c-0.217,0.27-0.217,0.27-0.434,0.54c-0.162-0.234-0.414-0.45-0.809-0.666c1.242-1.387,1.908-2.521,2.557-4.286
			c0.18-0.486,0.215-0.648,0.324-1.152l1.152,0.271c-0.055,0.108-0.072,0.144-0.127,0.27c-0.197,0.522-0.27,0.72-0.432,1.08h1.387
			c0.557,0,0.863-0.018,1.098-0.072l0.486,0.576c-0.18,0.306-0.18,0.306-0.523,1.08c-0.197,0.45-0.449,0.973-0.736,1.458H343.544z
			 M341.527,54.355c0.396-0.648,0.686-1.26,1.01-2.125h-2.035c-0.289,0.648-0.631,1.242-1.207,2.125H341.527z M339.656,57.182h1.602
			v-1.926h-1.602V57.182z M339.656,60.243h1.602v-2.179h-1.602V60.243z M341.06,61.9c0.234,1.44,0.324,2.323,0.359,3.691
			l-1.063,0.198c0.018-0.378,0.037-0.667,0.037-0.846c0-0.937-0.072-1.854-0.252-2.863L341.06,61.9z M342.806,61.774
			c0.359,1.134,0.521,1.8,0.793,3.295l-0.973,0.252c-0.217-1.603-0.324-2.106-0.666-3.313L342.806,61.774z M342.212,57.182h1.619
			v-1.926h-1.619V57.182z M342.212,60.243h1.619v-2.179h-1.619V60.243z M344.552,61.63c0.504,1.098,0.631,1.476,1.008,2.899
			l-0.881,0.306c-0.271-1.278-0.523-2.034-0.938-2.971L344.552,61.63z M349.648,53.419c0.793-1.278,1.225-2.215,1.674-3.655
			l1.117,0.432c-0.576,1.386-0.973,2.106-1.693,3.223h1.172c0.809,0,1.188-0.018,1.602-0.09v1.207
			c-0.432-0.072-0.883-0.09-1.674-0.09h-1.908v2.358h1.512c0.793,0,1.188-0.018,1.621-0.09v1.188
			c-0.434-0.072-0.828-0.09-1.586-0.09h-1.547v2.791h2.213c0.668,0,1.207-0.036,1.711-0.09v1.243
			c-0.486-0.072-0.99-0.108-1.674-0.108h-2.25v2.593c0,0.756,0.035,1.35,0.107,1.926h-1.332c0.072-0.504,0.107-1.152,0.107-1.944
			v-2.575h-1.926c-0.9,0-1.262,0.018-1.658,0.09v-1.225c0.559,0.072,1.01,0.09,1.639,0.09h1.945v-2.791h-1.441
			c-0.809,0-1.08,0.018-1.494,0.09v-1.188c0.434,0.072,0.793,0.09,1.514,0.09h1.422v-2.358h-1.801c-0.721,0-1.188,0.018-1.621,0.09
			v-1.207c0.434,0.072,0.775,0.09,1.531,0.09H349.648z M347.271,49.89c0.559,0.99,0.828,1.603,1.279,2.881l-1.027,0.414
			c-0.324-1.098-0.666-1.891-1.242-2.863L347.271,49.89z"/>
		<path d="M361.421,66.203c-1.352-1.548-1.908-2.413-2.504-3.871c-0.594-1.44-0.863-2.863-0.863-4.429
			c0-1.567,0.27-2.989,0.863-4.43c0.596-1.458,1.152-2.323,2.504-3.871h1.602c-1.512,1.53-2.105,2.341-2.736,3.727
			c-0.648,1.44-0.973,2.935-0.973,4.574c0,1.638,0.324,3.133,0.973,4.573c0.631,1.386,1.225,2.196,2.736,3.727H361.421z"/>
		<path d="M366.601,50.862c0.469,0.072,0.811,0.09,1.494,0.09h1.135c0.611,0,0.9-0.018,1.494-0.09
			c-0.107,1.099-0.162,2.017-0.162,2.989v8.75c0,0.846,0.037,1.368,0.145,2.035h-1.711c0.107-0.63,0.145-1.207,0.145-2.035V52.177
			h-0.973c-0.576,0-1.045,0.036-1.566,0.108V50.862z"/>
		<path d="M377.851,61.306c0.287,0.936,0.541,1.314,1.098,1.71c0.613,0.432,1.404,0.648,2.324,0.648
			c2.088,0,3.402-1.081,3.402-2.791c0-1.783-1.279-2.755-3.674-2.755c-0.504,0-0.953,0.036-1.439,0.09v-1.422
			c0.414,0.072,0.846,0.108,1.332,0.108c1.188,0,2.07-0.27,2.629-0.828c0.449-0.432,0.721-1.098,0.721-1.747
			c0-1.548-1.08-2.449-2.9-2.449c-1.098,0-1.891,0.306-2.395,0.955c-0.252,0.324-0.377,0.612-0.576,1.278l-1.494-0.324
			c0.307-0.918,0.523-1.333,0.973-1.8c0.793-0.864,2.016-1.314,3.584-1.314c2.609,0,4.266,1.368,4.266,3.529
			c0,1.099-0.467,2.071-1.26,2.629c-0.469,0.342-0.863,0.486-1.693,0.648c1.045,0.108,1.604,0.306,2.215,0.774
			c0.793,0.612,1.207,1.566,1.207,2.719c0,2.431-1.873,3.943-4.879,3.943c-1.818,0-3.17-0.504-4.033-1.477
			c-0.379-0.432-0.594-0.828-0.918-1.747L377.851,61.306z"/>
		<path d="M390.001,61.648c0.217,0.594,0.359,0.846,0.648,1.152c0.504,0.558,1.277,0.846,2.268,0.846c1.297,0,2.232-0.522,2.9-1.657
			c0.342-0.576,0.629-1.458,0.773-2.305c0.072-0.45,0.127-1.188,0.162-2.106c-0.252,0.486-0.396,0.666-0.721,1.008
			c-0.918,0.864-1.926,1.26-3.277,1.26c-1.332,0-2.467-0.414-3.24-1.188c-0.773-0.774-1.225-1.962-1.225-3.241
			c0-2.863,1.928-4.735,4.879-4.735c2.018,0,3.674,1.152,4.357,3.025c0.361,0.972,0.523,2.196,0.523,3.745
			c0,2.502-0.523,4.537-1.494,5.744c-0.9,1.134-2.09,1.674-3.746,1.674c-1.242,0-2.25-0.324-3.025-0.972
			c-0.504-0.414-0.791-0.828-1.26-1.783L390.001,61.648z M396.412,55.31c0-1.945-1.441-3.403-3.367-3.403
			c-1.189,0-2.27,0.576-2.863,1.53c-0.287,0.468-0.469,1.188-0.469,1.891c0,2.035,1.244,3.313,3.205,3.313
			C394.917,58.641,396.412,57.218,396.412,55.31z"/>
		<path d="M402.224,64.637c-1.135,0-1.404,0.018-1.98,0.09c0.197-1.422,0.252-1.692,0.521-2.376c0.449-1.135,1.207-2.125,2.34-3.097
			c0.631-0.54,0.668-0.558,2.756-1.98c1.783-1.207,2.377-1.999,2.377-3.097c0-1.368-1.152-2.25-2.99-2.25
			c-1.188,0-2.07,0.396-2.609,1.17c-0.342,0.486-0.504,0.918-0.631,1.818l-1.512-0.252c0.27-1.296,0.539-1.927,1.135-2.593
			c0.809-0.918,2.033-1.386,3.617-1.386c2.721,0,4.467,1.368,4.467,3.493c0,0.918-0.361,1.783-1.063,2.557
			c-0.541,0.612-1.008,0.954-3.061,2.323c-1.424,0.954-2,1.458-2.594,2.214c-0.559,0.738-0.811,1.225-1.025,2.089h5.742
			c0.9,0,1.514-0.036,2.197-0.126v1.513c-0.721-0.072-1.314-0.108-2.215-0.108H402.224z"/>
		<path d="M411.925,57.867c1.602-1.566,2.719-2.125,4.34-2.125c0.809,0,1.529,0.162,2.25,0.522c0.469,0.234,0.703,0.378,1.693,1.08
			c1.512,1.081,2.43,1.477,3.457,1.477c0.504,0,1.008-0.108,1.439-0.306c0.773-0.324,1.279-0.756,2.053-1.747l0.936,0.811
			c-0.863,1.008-1.35,1.44-2.07,1.854c-0.684,0.396-1.549,0.612-2.377,0.612c-0.557,0-1.152-0.108-1.709-0.288
			c-0.758-0.271-1.334-0.594-2.504-1.458c-1.422-1.063-2.143-1.369-3.24-1.369c-0.686,0-1.262,0.144-1.855,0.468
			c-0.504,0.288-0.846,0.576-1.512,1.26L411.925,57.867z"/>
		<path d="M431.906,50.862c0.469,0.072,0.811,0.09,1.494,0.09h1.135c0.611,0,0.9-0.018,1.494-0.09
			c-0.107,1.099-0.162,2.017-0.162,2.989v8.75c0,0.846,0.037,1.368,0.145,2.035H434.3c0.107-0.63,0.145-1.207,0.145-2.035V52.177
			h-0.973c-0.576,0-1.045,0.036-1.566,0.108V50.862z"/>
		<path d="M443.48,61.648c0.217,0.594,0.359,0.846,0.648,1.152c0.504,0.558,1.277,0.846,2.268,0.846c1.297,0,2.232-0.522,2.9-1.657
			c0.342-0.576,0.629-1.458,0.773-2.305c0.072-0.45,0.127-1.188,0.162-2.106c-0.252,0.486-0.396,0.666-0.721,1.008
			c-0.918,0.864-1.926,1.26-3.277,1.26c-1.332,0-2.467-0.414-3.24-1.188c-0.773-0.774-1.225-1.962-1.225-3.241
			c0-2.863,1.928-4.735,4.879-4.735c2.018,0,3.674,1.152,4.357,3.025c0.361,0.972,0.523,2.196,0.523,3.745
			c0,2.502-0.523,4.537-1.494,5.744c-0.9,1.134-2.09,1.674-3.746,1.674c-1.242,0-2.25-0.324-3.025-0.972
			c-0.504-0.414-0.791-0.828-1.26-1.783L443.48,61.648z M449.89,55.31c0-1.945-1.441-3.403-3.367-3.403
			c-1.189,0-2.27,0.576-2.863,1.53c-0.287,0.468-0.469,1.188-0.469,1.891c0,2.035,1.244,3.313,3.205,3.313
			C448.396,58.641,449.89,57.218,449.89,55.31z"/>
		<path d="M455.558,50.862c0.469,0.072,0.811,0.09,1.494,0.09h1.135c0.611,0,0.9-0.018,1.494-0.09
			c-0.107,1.099-0.162,2.017-0.162,2.989v8.75c0,0.846,0.037,1.368,0.145,2.035h-1.711c0.107-0.63,0.145-1.207,0.145-2.035V52.177
			h-0.973c-0.576,0-1.045,0.036-1.566,0.108V50.862z"/>
		<path d="M467.095,63.628c-0.484-0.486-0.863-1.044-1.08-1.657c-0.449-1.26-0.684-2.683-0.684-4.159
			c0-1.909,0.414-3.853,1.045-4.897c0.863-1.458,2.25-2.214,4.033-2.214c1.332,0,2.484,0.432,3.295,1.278
			c0.504,0.504,0.863,1.062,1.08,1.656c0.449,1.242,0.684,2.683,0.684,4.177c0,2.179-0.467,4.105-1.26,5.204
			c-0.9,1.26-2.16,1.891-3.816,1.891C469.058,64.907,467.943,64.475,467.095,63.628z M468.14,52.861
			c-0.377,0.415-0.666,0.864-0.811,1.314c-0.377,1.099-0.557,2.323-0.557,3.637c0,1.674,0.359,3.439,0.846,4.285
			c0.629,1.044,1.566,1.567,2.791,1.567c0.9,0,1.674-0.288,2.215-0.847c0.395-0.414,0.684-0.882,0.846-1.404
			c0.379-1.116,0.559-2.305,0.559-3.637c0-1.566-0.342-3.349-0.811-4.195c-0.594-1.081-1.566-1.639-2.826-1.639
			C469.455,51.943,468.716,52.249,468.14,52.861z"/>
		<path d="M476.996,66.203c1.512-1.513,2.107-2.341,2.736-3.727c0.648-1.44,0.973-2.935,0.973-4.573
			c0-1.639-0.324-3.133-0.973-4.574c-0.629-1.386-1.225-2.214-2.736-3.727h1.604c1.35,1.548,1.908,2.413,2.502,3.871
			c0.594,1.44,0.863,2.863,0.863,4.43c0,1.566-0.27,2.989-0.863,4.429c-0.594,1.458-1.152,2.323-2.502,3.871H476.996z"/>
	</g>
	<g clip-path="url(#SVGID_2_)">
		<rect x="350.761" y="118.351" fill-rule="evenodd" clip-rule="evenodd" fill="none" width="152.371" height="57.43"/>
		<text transform="matrix(1 0 0 1 350.7612 134.1909)" font-family="'HiraKakuProN-W3-90ms-RKSJ-H'" font-size="18">対馬</text>
	</g>
	<g clip-path="url(#SVGID_2_)">
		<rect x="196.262" y="119.101" fill-rule="evenodd" clip-rule="evenodd" fill="none" width="152.371" height="57.43"/>
		<text transform="matrix(1 0 0 1 196.2617 134.9409)" font-family="'HiraKakuProN-W3-90ms-RKSJ-H'" font-size="18">三浦</text>
	</g>
	<g clip-path="url(#SVGID_2_)">
		<rect x="188.865" y="225.118" fill-rule="evenodd" clip-rule="evenodd" fill="none" width="152.367" height="57.43"/>
		<text transform="matrix(1 0 0 1 188.8643 240.9604)" font-family="'HiraKakuProN-W3-90ms-RKSJ-H'" font-size="18">寧波</text>
	</g>
	<g clip-path="url(#SVGID_2_)">
		<rect x="384.978" y="232.701" fill-rule="evenodd" clip-rule="evenodd" fill="none" width="152.371" height="57.43"/>
		<text transform="matrix(1 0 0 1 384.978 248.5415)" font-family="'HiraKakuProN-W3-90ms-RKSJ-H'" font-size="18">博多</text>
	</g>
	<g clip-path="url(#SVGID_2_)">
		<rect x="463.306" y="189.089" fill-rule="evenodd" clip-rule="evenodd" fill="none" width="152.369" height="57.429"/>
		<text transform="matrix(1 0 0 1 463.3071 204.9292)" font-family="'HiraKakuProN-W3-90ms-RKSJ-H'" font-size="18">堺</text>
	</g>
	
		<polyline clip-path="url(#SVGID_2_)" fill-rule="evenodd" clip-rule="evenodd" fill="none" stroke="#000000" stroke-width="2" points="
		270.5,106.333 309.151,69.333 485.267,69.333 	"/>
	
		<polyline clip-path="url(#SVGID_2_)" fill-rule="evenodd" clip-rule="evenodd" fill="none" stroke="#000000" stroke-width="2" points="
		309.151,183.677 350.75,137.333 387,137.333 	"/>
	
		<circle clip-path="url(#SVGID_2_)" fill-rule="evenodd" clip-rule="evenodd" fill="#FF9700" stroke="#000000" cx="333.518" cy="204.718" r="4.649"/>
	
		<circle clip-path="url(#SVGID_2_)" fill-rule="evenodd" clip-rule="evenodd" fill="#FF9700" stroke="#000000" cx="299.438" cy="161.792" r="4.649"/>
	
		<circle clip-path="url(#SVGID_2_)" fill-rule="evenodd" clip-rule="evenodd" fill="#FF9700" stroke="#000000" cx="290.135" cy="164.416" r="4.649"/>
	
		<circle clip-path="url(#SVGID_2_)" fill-rule="evenodd" clip-rule="evenodd" fill="#FF9700" stroke="#000000" cx="150.351" cy="277.289" r="4.649"/>
	
		<circle clip-path="url(#SVGID_2_)" fill-rule="evenodd" clip-rule="evenodd" fill="#FF9700" stroke="#000000" cx="303.523" cy="153.273" r="4.649"/>
	
		<circle clip-path="url(#SVGID_2_)" fill-rule="evenodd" clip-rule="evenodd" fill="#FF9700" stroke="#000000" cx="431.016" cy="181.646" r="4.649"/>
	
		<polyline clip-path="url(#SVGID_2_)" fill-rule="evenodd" clip-rule="evenodd" fill="none" stroke="#000000" stroke-width="2" points="
		333.515,204.718 385.261,252.333 421.333,252.333 	"/>
	
		<polyline clip-path="url(#SVGID_2_)" fill-rule="evenodd" clip-rule="evenodd" fill="none" stroke="#000000" stroke-width="2" points="
		431.013,181.646 461.164,208.189 485.267,208.189 	"/>
	
		<ellipse transform="matrix(0.83 -0.5578 0.5578 0.83 -38.2735 193.1301)" clip-path="url(#SVGID_2_)" fill-rule="evenodd" clip-rule="evenodd" fill="none" stroke="#000000" cx="297.67" cy="159.348" rx="16.676" ry="9.806"/>
	
		<polyline clip-path="url(#SVGID_2_)" fill-rule="evenodd" clip-rule="evenodd" fill="none" stroke="#000000" stroke-width="2" points="
		291.75,155.833 233,138.583 196.262,138.583 	"/>
	
		<polyline clip-path="url(#SVGID_2_)" fill-rule="evenodd" clip-rule="evenodd" fill="none" stroke="#000000" stroke-width="2" points="
		150.348,277.289 187.333,244 228,244 	"/>
	<g clip-path="url(#SVGID_2_)">
		<path d="M62.428,197.617c0-0.792-0.019-1.26-0.072-1.729c0.576,0.037,1.026,0.055,2.232,0.055h1.963
			c0.864,0,1.188-0.018,1.62-0.055c-0.036,0.433-0.054,0.757-0.054,1.729v7.58c0,0.865,0.018,1.225,0.054,1.747h-1.152v-0.828
			h-3.475v1.404h-1.225c0.072-0.522,0.108-1.171,0.108-1.891V197.617z M63.544,200.335h3.475v-3.367h-3.475V200.335z
			 M63.544,205.107h3.475v-3.763h-3.475V205.107z M70.691,204.963c-0.216,1.296-0.576,2.376-1.134,3.403
			c-0.559,1.008-1.08,1.62-2.179,2.574c-0.288-0.378-0.504-0.576-0.937-0.846c1.333-1.045,2.017-1.909,2.575-3.223
			c0.684-1.639,0.9-3.548,0.9-8.319c0-1.729-0.019-2.575-0.091-3.097c0.522,0.054,0.937,0.072,1.747,0.072h3.889
			c0.811,0,1.278-0.019,1.711-0.072c-0.054,0.432-0.072,0.954-0.072,1.765v11.829c0,0.666-0.126,1.045-0.45,1.297
			c-0.233,0.18-0.648,0.252-1.404,0.252c-0.396,0-0.666-0.018-1.782-0.09c-0.055-0.504-0.126-0.811-0.307-1.242
			c1.009,0.18,1.621,0.233,2.233,0.233c0.45,0,0.576-0.126,0.576-0.612v-3.925H70.691z M71.034,200.642
			c-0.055,1.566-0.108,2.215-0.217,3.313h5.15v-3.313H71.034z M75.968,196.554h-4.916v2.342c0,0.342,0,0.414,0,0.738h4.916V196.554z
			"/>
		<path d="M11.06,231.013c-1.351-1.549-1.908-2.412-2.503-3.871c-0.594-1.44-0.864-2.863-0.864-4.43s0.271-2.988,0.864-4.43
			c0.595-1.458,1.152-2.322,2.503-3.871h1.603c-1.513,1.531-2.106,2.342-2.737,3.728c-0.647,1.44-0.972,2.935-0.972,4.573
			s0.324,3.133,0.972,4.574c0.631,1.386,1.225,2.196,2.737,3.727H11.06z"/>
		<path d="M16.239,215.672c0.469,0.072,0.811,0.091,1.495,0.091h1.134c0.612,0,0.9-0.019,1.495-0.091
			c-0.108,1.099-0.162,2.017-0.162,2.989v8.75c0,0.847,0.036,1.369,0.144,2.035h-1.71c0.107-0.631,0.144-1.207,0.144-2.035v-10.425
			h-0.972c-0.576,0-1.045,0.036-1.567,0.108V215.672z"/>
		<path d="M27.489,226.116c0.288,0.937,0.541,1.314,1.099,1.71c0.612,0.433,1.404,0.648,2.323,0.648c2.088,0,3.402-1.08,3.402-2.791
			c0-1.782-1.278-2.754-3.673-2.754c-0.504,0-0.954,0.035-1.44,0.09v-1.423c0.414,0.072,0.847,0.108,1.332,0.108
			c1.188,0,2.071-0.271,2.629-0.828c0.45-0.433,0.721-1.099,0.721-1.747c0-1.548-1.081-2.448-2.899-2.448
			c-1.098,0-1.891,0.306-2.395,0.954c-0.252,0.324-0.378,0.612-0.576,1.278l-1.494-0.324c0.306-0.918,0.521-1.332,0.972-1.801
			c0.793-0.863,2.017-1.314,3.583-1.314c2.611,0,4.268,1.369,4.268,3.529c0,1.099-0.468,2.07-1.26,2.629
			c-0.469,0.342-0.864,0.486-1.693,0.648c1.045,0.107,1.603,0.306,2.215,0.773c0.793,0.613,1.207,1.566,1.207,2.719
			c0,2.432-1.873,3.943-4.88,3.943c-1.818,0-3.169-0.504-4.033-1.477c-0.378-0.432-0.594-0.828-0.918-1.746L27.489,226.116z"/>
		<path d="M46.032,218.751c-0.234-0.576-0.36-0.828-0.631-1.135c-0.54-0.594-1.242-0.9-2.143-0.9c-1.404,0-2.467,0.757-3.114,2.233
			c-0.469,1.08-0.631,1.908-0.757,3.871c0.324-0.558,0.504-0.811,0.9-1.152c0.847-0.757,1.801-1.099,3.043-1.099
			c2.791,0,4.52,1.729,4.52,4.502c0,2.791-1.873,4.627-4.718,4.627c-1.278,0-2.484-0.414-3.259-1.135
			c-1.17-1.08-1.818-3.097-1.818-5.653c0-2.251,0.504-4.267,1.368-5.438c0.954-1.296,2.232-1.963,3.799-1.963
			c1.081,0,2.053,0.271,2.737,0.757c0.63,0.449,0.99,0.936,1.513,2.016L46.032,218.751z M43.133,221.777
			c-0.9,0-1.854,0.396-2.484,1.025c-0.595,0.595-0.9,1.387-0.9,2.287c0,1.944,1.458,3.385,3.403,3.385
			c1.17,0,2.25-0.559,2.809-1.458c0.288-0.468,0.468-1.206,0.468-1.909C46.428,222.983,45.239,221.777,43.133,221.777z"/>
		<path d="M58.416,223.054c0.9,0.667,1.351,1.621,1.351,2.827c0,2.467-1.801,3.854-4.97,3.854c-3.295,0-5.113-1.368-5.113-3.854
			c0-1.296,0.522-2.286,1.603-2.989c0.558-0.359,0.954-0.504,1.62-0.611c-1.584-0.288-2.61-1.566-2.61-3.241
			c0-2.179,1.71-3.565,4.429-3.565c2.755,0,4.448,1.351,4.448,3.565c0,1.675-1.009,2.935-2.611,3.241
			C57.318,222.388,57.822,222.605,58.416,223.054z M51.16,225.792c0,1.71,1.314,2.719,3.547,2.719c1.261,0,2.287-0.324,2.898-0.937
			c0.45-0.414,0.685-1.044,0.685-1.782c0-1.765-1.351-2.827-3.565-2.827C52.511,222.964,51.16,224.044,51.16,225.792z M51.7,219.148
			c0,1.602,1.152,2.574,3.043,2.574s3.024-0.973,3.024-2.574c0-1.513-1.188-2.467-3.043-2.467
			C52.889,216.681,51.7,217.654,51.7,219.148z"/>
		<path d="M61.563,222.677c1.603-1.566,2.719-2.125,4.34-2.125c0.81,0,1.53,0.162,2.25,0.521c0.469,0.234,0.702,0.379,1.693,1.08
			c1.512,1.081,2.431,1.477,3.457,1.477c0.504,0,1.008-0.107,1.44-0.306c0.773-0.324,1.278-0.756,2.052-1.747l0.937,0.811
			c-0.864,1.009-1.351,1.441-2.07,1.855c-0.685,0.396-1.549,0.611-2.377,0.611c-0.558,0-1.152-0.107-1.71-0.287
			c-0.757-0.271-1.333-0.595-2.503-1.459c-1.423-1.063-2.143-1.369-3.241-1.369c-0.685,0-1.261,0.145-1.854,0.469
			c-0.504,0.288-0.847,0.576-1.513,1.26L61.563,222.677z"/>
		<path d="M81.544,215.672c0.469,0.072,0.811,0.091,1.495,0.091h1.134c0.612,0,0.9-0.019,1.495-0.091
			c-0.108,1.099-0.162,2.017-0.162,2.989v8.75c0,0.847,0.036,1.369,0.144,2.035h-1.71c0.107-0.631,0.144-1.207,0.144-2.035v-10.425
			h-0.972c-0.576,0-1.045,0.036-1.567,0.108V215.672z"/>
		<path d="M99.511,218.751c-0.234-0.576-0.36-0.828-0.631-1.135c-0.54-0.594-1.242-0.9-2.143-0.9c-1.404,0-2.467,0.757-3.114,2.233
			c-0.469,1.08-0.631,1.908-0.757,3.871c0.324-0.558,0.504-0.811,0.9-1.152c0.847-0.757,1.801-1.099,3.043-1.099
			c2.791,0,4.52,1.729,4.52,4.502c0,2.791-1.873,4.627-4.718,4.627c-1.278,0-2.484-0.414-3.259-1.135
			c-1.17-1.08-1.818-3.097-1.818-5.653c0-2.251,0.504-4.267,1.368-5.438c0.954-1.296,2.232-1.963,3.799-1.963
			c1.081,0,2.053,0.271,2.737,0.757c0.63,0.449,0.99,0.936,1.513,2.016L99.511,218.751z M96.611,221.777
			c-0.9,0-1.854,0.396-2.484,1.025c-0.595,0.595-0.9,1.387-0.9,2.287c0,1.944,1.458,3.385,3.403,3.385
			c1.17,0,2.25-0.559,2.809-1.458c0.288-0.468,0.468-1.206,0.468-1.909C99.906,222.983,98.718,221.777,96.611,221.777z"/>
		<path d="M102.856,224.675c0.378-0.432,0.792-0.937,1.17-1.387l4.556-5.689c0.612-0.756,0.936-1.207,1.35-1.836h1.351
			c-0.09,1.062-0.107,1.62-0.107,3.043v5.905h0.684c0.757,0,1.225-0.036,1.873-0.126v1.494c-0.666-0.09-1.116-0.126-1.891-0.126
			h-0.666v1.548c0,0.865,0.036,1.279,0.144,1.945h-1.639c0.108-0.631,0.145-1.135,0.145-1.945v-1.548h-4.825
			c-1.009,0-1.549,0.019-2.143,0.072V224.675z M109.842,220.156c0-0.954,0.019-1.53,0.108-2.449
			c-0.378,0.541-0.828,1.135-1.351,1.801l-4.141,5.222h5.383V220.156z"/>
		<path d="M114.754,224.675c0.378-0.432,0.792-0.937,1.17-1.387l4.556-5.689c0.612-0.756,0.936-1.207,1.351-1.836h1.35
			c-0.09,1.062-0.107,1.62-0.107,3.043v5.905h0.684c0.757,0,1.225-0.036,1.873-0.126v1.494c-0.666-0.09-1.116-0.126-1.891-0.126
			h-0.666v1.548c0,0.865,0.036,1.279,0.144,1.945h-1.639c0.108-0.631,0.145-1.135,0.145-1.945v-1.548h-4.825
			c-1.009,0-1.549,0.019-2.143,0.072V224.675z M121.739,220.156c0-0.954,0.019-1.53,0.108-2.449
			c-0.378,0.541-0.828,1.135-1.351,1.801l-4.142,5.222h5.384V220.156z"/>
		<path d="M126.777,231.013c1.512-1.513,2.106-2.341,2.736-3.727c0.648-1.441,0.973-2.936,0.973-4.574s-0.324-3.133-0.973-4.573
			c-0.63-1.386-1.225-2.214-2.736-3.728h1.603c1.35,1.549,1.908,2.413,2.502,3.871c0.595,1.441,0.864,2.863,0.864,4.43
			s-0.27,2.989-0.864,4.43c-0.594,1.459-1.152,2.322-2.502,3.871H126.777z"/>
	</g>
</g>
</svg>
