<?xml version="1.0" encoding="utf-8"?>
<!-- Generator: Adobe Illustrator 16.0.0, SVG Export Plug-In . SVG Version: 6.00 Build 0)  -->
<!DOCTYPE svg PUBLIC "-//W3C//DTD SVG 1.1//EN" "http://www.w3.org/Graphics/SVG/1.1/DTD/svg11.dtd">
<svg version="1.1" id="レイヤー_1" xmlns="http://www.w3.org/2000/svg" xmlns:xlink="http://www.w3.org/1999/xlink" x="0px"
	 y="0px" width="199.137px" height="257.432px" viewBox="0 0 199.137 257.432" enable-background="new 0 0 199.137 257.432"
	 xml:space="preserve">
<path fill="none" stroke="#000000" stroke-width="1.1419" stroke-linecap="round" d="M51.566,169.857
	c1.28-5.149-2.21-10.58-7.71-10.3c-0.21-0.53-0.09-1.13,0.04-1.74c10.63,1.57,7.73-10.689,9.96-17.67
	c6.07,0.4,8.49,7.82,13.71,10.42c2.99-0.189,5.551-2.59,6.28-5.39c0.81-0.21,1.78-0.681,2.73-1.101
	c3.829,0.699,6.859,3.479,9.689,5.851c0.2,16.989-1.52,39.1,11.3,51.689c1.931-0.779,4.04-0.521,6.011-1.061
	c10.51-6.57,4.83-16.08,9.21-24.41c4.989,0.261,12.239,4.69,10.159,10.41c1.25,0.351,3.011,0.109,4.62,0.601
	c0.62,0.859,1.24,1.71,2.07,2.399c5.47-0.76,5.55,10.05,11.62,5.069c9.1-7.979,10.86-21.22,11.3-32.771
	c6.82-7.899,1.24-23.12-8.689-24.67c-1.66,1.431-0.641,3.67-1.601,5.37c-3.49,3.37-8.149,4.939-11.72,8.069
	c-9.061-2.449-19.01,2.189-26.18,7.931c-1.2-0.28-2.54-0.561-3.5-0.99c-0.351-0.51-0.711-1.12-1.061-1.739
	c2.01-15.979,4.16-32.79,13.05-46.971c3.7-2.1,2.681-6.779,2.09-10c3.021-0.87,6.011,2.15,6.841,5.011
	c5.14,3.899,11.18,1.92,16.779,6.21c3.261,2.511,4.261,7.479,7.221,9.779c10.35,8.04,19.77,8.34,29.859-4.39
	c1.521,1.779,1.01,4.93,0.601,7.08c-9.36,18.42-8.181,50.869-8.24,59.25c0,0,0.149,12.279,0.42,14.909
	c0.34,3.471,2.79,37.96,16.83,48.75c0.899-1.149,2.86-2.33,4.01-2.21c2.64,4.25,5.94,7.21,9.3,10.609"/>
<path fill="none" stroke="#000000" stroke-width="1.2247" stroke-linecap="round" d="M51.566,173.857c0-1.33,0-2.67,0-4"/>
<path fill="none" stroke="#000000" stroke-width="1.1486" stroke-linecap="round" d="M9.566,256.857
	c1.49-6.33,2.48-20.59-6.699-19.319c-0.711-1.051-1.381-2.391-2.08-3.681c9.39-4.77,11.3-17.39,20.779-22.899
	c2.59,0.49,4.681,2.301,7,3.319c4.66-1.569,7.551-6.75,12.69-5.729c7.93-9.891,8.46-23.04,10.31-34.69"/>
<path fill="none" stroke="#000000" stroke-width="1.1154" stroke-linecap="round" d="M62.156,1.098
	c4.83,5.109,10.04,10.63,16.41,13.55c4.63-1.489,9.36-2.33,14-3.58c7.101,1.57,10.69,8.021,13.23,13.79
	c11.5,7.87,15.26,24.23,31.77,24.301c1.98,2.08,4.67,3.021,4.301,6.38c1.199,0.181,2.18,1.261,2.92,2.029
	c0.619,0.091,1.069,0.33,1.51,0.57c0.2,0.54,0.08,1.14-0.061,1.739c-10.67,0.99-13.479,16.381-25.67,12.681
	c-7.21-5.649-20.14-12.141-28.01-5.109c-0.92-0.96-0.92-2.341-0.68-3.601c1.09-0.271,2.46,0.09,3.39-0.311
	c1.39-5.13-7.31-9.13-10.399-4.601c-0.931,9.38-9.44,15.84-18.311,17.221c-7.17,6.83,0.35,18.8-6.01,25.399
	c-5.44-0.771-8.87,4.21-13.98,4.601c-4.06,2.601-4.93,7.569-7.279,11.399c-0.521,0.33-1.131,0.71-1.75,1.08
	c-4.271-1.41-7.87-5.391-12.971-3.101c-17.479-15.051-8.17-38.391-0.699-55.689c1.329-1.101,3.21-0.721,4.399-1.29
	c2.96-8.99,2.48-19.069,0.98-28.38c-5.341-6.9-8.62-20.439-20.69-18.62c-1.28-4.979-4.52-8.13-7.9-11"/>
<g>
	<path d="M45.033,36.922c0.36,0.06,0.57,0.075,1.14,0.075h0.78c0.435,0,0.78-0.015,1.125-0.075c-0.045,0.465-0.06,0.855-0.06,1.56
		v2.895c0.285,0.66,0.765,1.095,1.5,1.41c0.675,0.285,1.785,0.39,3.93,0.39c1.98,0,3.855-0.105,5.205-0.3
		c-0.195,0.39-0.285,0.69-0.36,1.095c-1.545,0.06-3.795,0.105-5.07,0.105c-2.28,0-3.3-0.135-4.155-0.54
		c-0.645-0.3-1.035-0.645-1.56-1.395c-0.615,0.645-0.9,0.9-1.95,1.74c-0.105,0.075-0.195,0.15-0.345,0.3l-0.51-0.99
		c0.615-0.27,1.5-0.93,2.385-1.785v-3.585h-0.975c-0.495,0-0.72,0.015-1.08,0.075V36.922z M45.814,31.357
		c1.005,0.945,1.62,1.635,2.385,2.64l-0.75,0.66c-0.75-1.125-1.395-1.86-2.325-2.685L45.814,31.357z M51.678,32.677
		c-0.24-0.42-0.585-0.885-1.05-1.425l0.81-0.36c0.465,0.585,0.72,0.96,1.23,1.785h1.605c0.48-0.585,0.855-1.17,1.155-1.8l0.885,0.33
		c-0.39,0.63-0.705,1.065-1.05,1.47h1.38c0.72,0,1.14-0.03,1.485-0.09v0.975c-0.495-0.06-0.945-0.075-1.485-0.075h-2.79
		c-0.18,0.495-0.315,0.765-0.57,1.245h2.415c0.72,0,1.155-0.015,1.44-0.06c-0.045,0.465-0.06,0.93-0.06,1.515v4.08
		c0,0.6,0.015,1.11,0.06,1.545c-0.3-0.03-0.675-0.045-1.11-0.045h-4.77c-0.51,0-1.08,0.015-1.47,0.045
		c0.03-0.45,0.045-0.945,0.045-1.455v-4.215c0-0.525-0.03-1.125-0.075-1.47c0.345,0.045,0.825,0.06,1.575,0.06h1.005
		c0.255-0.465,0.42-0.825,0.57-1.245h-2.52c-0.72,0-1.05,0.015-1.515,0.06v-0.96c0.33,0.06,0.765,0.09,1.53,0.09H51.678z
		 M50.703,40.971h5.475v-1.38h-5.475V40.971z M50.719,36.772h5.459v-1.26h-5.459V36.772z M50.719,38.826h5.459v-1.29h-5.459V38.826z
		"/>
	<path d="M66.094,32.302c0-0.735-0.03-1.02-0.105-1.455h1.155c-0.075,0.45-0.105,0.75-0.105,1.455h4.77
		c0.735,0,1.17-0.03,1.545-0.105v1.065c-0.479-0.06-0.93-0.09-1.545-0.09h-4.77v1.545h4.05c0.615,0,0.975-0.015,1.35-0.06
		c-0.045,0.39-0.06,0.72-0.06,1.26v7.185c0,0.945-0.345,1.2-1.65,1.2c-0.48,0-0.975-0.03-1.56-0.075
		c-0.03-0.36-0.09-0.615-0.255-0.975c0.66,0.12,1.215,0.165,1.785,0.165c0.57,0,0.72-0.075,0.72-0.39v-7.47h-9.375v7.41
		c0,0.885,0.015,1.17,0.075,1.545h-1.125c0.06-0.42,0.09-0.825,0.09-1.59v-6.975c0-0.525-0.015-0.885-0.06-1.29
		c0.405,0.045,0.75,0.06,1.365,0.06h3.705v-1.545h-4.485c-0.63,0-1.095,0.03-1.53,0.09v-1.065c0.495,0.075,0.915,0.105,1.53,0.105
		H66.094z M67.203,37.851c0.525-0.66,0.87-1.29,1.185-2.055l0.9,0.27c-0.405,0.75-0.705,1.23-1.125,1.785h1.14
		c0.63,0,0.945-0.015,1.32-0.075v0.96c-0.405-0.06-0.75-0.075-1.32-0.075h-2.34v1.605h2.22c0.615,0,0.945-0.015,1.32-0.075v0.945
		c-0.375-0.06-0.75-0.075-1.32-0.075h-2.22v1.305c0,0.81,0.015,1.215,0.075,1.695h-1.065c0.06-0.51,0.075-0.9,0.075-1.68v-1.32h-1.8
		c-0.57,0-0.975,0.015-1.365,0.075v-0.945c0.39,0.06,0.72,0.075,1.38,0.075h1.785v-1.605h-2.025c-0.585,0-0.93,0.015-1.305,0.075
		v-0.96c0.375,0.06,0.705,0.075,1.35,0.075H67.203z M64.728,35.766c0.375,0.555,0.72,1.155,0.975,1.665l-0.765,0.33
		c-0.24-0.54-0.585-1.11-0.99-1.65L64.728,35.766z"/>
</g>
</svg>
