<?xml version="1.0" encoding="utf-8"?>
<!-- Generator: Adobe Illustrator 16.0.3, SVG Export Plug-In . SVG Version: 6.00 Build 0)  -->
<!DOCTYPE svg PUBLIC "-//W3C//DTD SVG 1.1//EN" "http://www.w3.org/Graphics/SVG/1.1/DTD/svg11.dtd">
<svg version="1.1" xmlns="http://www.w3.org/2000/svg" xmlns:xlink="http://www.w3.org/1999/xlink" x="0px" y="0px"
	 width="349.382px" height="322.663px" viewBox="76.118 0 349.382 322.663" enable-background="new 76.118 0 349.382 322.663"
	 xml:space="preserve">
<g>
	<defs>
		<rect id="SVGID_1_" x="76.118" width="349.382" height="322.663"/>
	</defs>
	<clipPath id="SVGID_2_">
		<use xlink:href="#SVGID_1_"  overflow="visible"/>
	</clipPath>
	
		<path clip-path="url(#SVGID_2_)" fill="none" stroke="#000000" stroke-width="0.6" stroke-linecap="round" stroke-linejoin="bevel" d="
		M166.104,306.107l-9.5,6.103l-2.9,7.75l-4.1,4.75h-2.15v5.25l-1.85,1.397v1.25l2,1v2h-1.9l-1.5-2.25h-5.1l-3.15-1.25v-2.397h2
		v-1.853l-0.028-0.067l-5.116,0.004l-3.65-5.25l2.25-1.75l-1.35-3.899h2.35v-1.601l-1.75-1.75l1.9-1.149h-3.5v-4.25l-1.5-1.601
		l-5,3.101l-1.15,1.399h-3.65l2.5-3.149h2.9l16-11.5v-4.851h1.6l1.4-4.149l5.1-3.5l4.75,6.75h3.9l8.25-1l3.935-3.218v-3.649
		l-1.15-3.25l3,1.399l5-3.75v-1.5l1.65-1.5l4.1,2.75h2l2.15-2.149l0.5,2.354h2.5l1,0.799v1.852l5.154,2.49h4l1.4,1.75l-1.9,2v4.353
		h1.5l1.4,2.397v1.353l-1.4,1.5l2.5,1.5l-2.85,1.25c-4.566,2.767-10.095,8.489-10.095,8.489c-2.257,2.191-3.55,5.482-3.95,10.648
		l-9.9-10.148L166.104,306.107"/>
	
		<path clip-path="url(#SVGID_2_)" fill="none" stroke="#000000" stroke-width="0.6" stroke-linecap="round" stroke-linejoin="bevel" d="
		M57.862,346.837v6.101l-0.9,0.75l-2.7-1.101v-2.25l2.6-3.5H57.862 M45.163,360.688l-0.75,1l1.35,2h2.75l-1.75-3H45.163
		 M43.913,365.188l-2.75,4.399l-2.5,0.5v-1.5l3.25-3.399H43.913"/>
	
		<path clip-path="url(#SVGID_2_)" fill="none" stroke="#000000" stroke-width="0.6" stroke-linecap="round" stroke-linejoin="bevel" d="
		M77.179,407.745l2.5-3v-2h2.4v4.647l-4,7.5v4.103l-1.4,1.147l-2.35,0.25v-2l-1-1.147v-1.103l3.85-3.897V407.745 M67.579,418.495
		l-2.5-2.353h-2.5l-3.9,2.103v2.748l2,2.649l4.4,0.101l2.5-2.75V418.495"/>
	
		<path clip-path="url(#SVGID_2_)" fill="none" stroke="#000000" stroke-width="0.6" stroke-linecap="round" stroke-linejoin="bevel" d="
		M28.003,308.105l-2.25-0.25v-1.6h2.25V308.105 M25.354,309.256v1.6l-1.75-1.6H25.354"/>
	
		<path clip-path="url(#SVGID_2_)" fill="none" stroke="#000000" stroke-width="0.6" stroke-linecap="round" stroke-linejoin="bevel" d="
		M23.854,315.756v2.75h-2l1,2v2.5l1,2l1.4-2.4v-3.35h2.35v-2.5l-2.1,1.5v-2.65h1.25v-4.1l-1.5,2.75L23.854,315.756"/>
	
		<path clip-path="url(#SVGID_2_)" fill="none" stroke="#000000" stroke-width="0.6" stroke-linecap="round" stroke-linejoin="bevel" d="
		M19.003,321.355v1.9l-2.15-1.15v1.9l1.65,1.75l1.6-2.15v-2.25H19.003 M12.003,325.605l-1.9-1.75v3.4l1.15,1.5l-1.75,2h2.85
		l1.15,1.5v-2.5h2.25v1.25h2.25v-1.75l-1.75-1.75v-2l-1.4-1.4l-1,1.5H12.003"/>
	
		<path clip-path="url(#SVGID_2_)" fill="none" stroke="#000000" stroke-width="0.6" stroke-linecap="round" stroke-linejoin="bevel" d="
		M67.087,322.654l0.177,0.009l-0.229,0.094v-4.75l-2.5-3.299l0.068-0.147l-2.5-2.201l-1.35,1.853l-2.25,1.147v2.5l1.85,3.5v1.603
		h-1.1l-2.65,1.75l1,1.25h1.65l1.25-1h2.75l2.25,3.25v2.397l-2.9,3h-1.75v1.25h-2.1l-2.15-1.397v-1.103l2.75-1.897v-2.75h-3v1h-4.5
		l-4.75,5.647h-2l2.75-5.25l-1.6-3h-1.9l-1.25-1.397v-3.25l-1.25-1.5l1.75-1.353v-1.397h2.5v1.647h1.4v5.5h3.75v1.603h2.1v-1.853
		l-1.35-1.397v-4l-1-1.103l-4.45-1.601l-0.05-0.05v-2.75h-2.15l-4.1-2.75l1.5-1.75v-3l-2.5,1.5v1.5l-2.65,2.396h-2.35l3.6-6.5h2.4
		v-1.896l1,1.146l1.6,1h2.65l1.35,1.5h2.5v-2.75h-2.6v-1.75h2.25l1.6-3.146h1.9l2.1,2.146v2h1.9v-1.5l3-1.35l-0.093-1.938l1.85-2
		h1.25l1.25,1.898h2.65l1.25-1.25v-1.75l2.25-2v-2.148l2-2.602h4l1.75-2.148h3.5l2,2.648l4.63-2.379l-1,3l1,6l1.5,2.648
		c3.433,0.5,6.35,1.699,8.75,3.602l1.593-0.082l2.5-3.5l2.1-1.102h1.9l3,3.75v5.75l-3.5,3.102h-3l-1.25,1.648l1.85,2.352h5.4v1.148
		h5l-2.65,3.25l2.5,1.75v1.352h3.15v1.25h-2.4v3.398h3.75l-3.35,4.602l-2.75,1.648l0.029,1.681l-4.65,4.101h-1.6v3h1v2.25h-1.55
		l-8.5,19.899v4.601h1l-1.25,5.649c-2.2,2.5-3.8,5.583-4.8,9.25l-0.05,0.101l-3.15-1.25l-1.35-2.351l-3.083,0.058l-1.65,2.5v1.5h1.4
		l1.5,3v1.25h-4.75v1.75l-6.25,4h-2.4l-1.1,1.602l-1.5-2.102l3.75-4v-1.648h1v-6.25l-1-0.25l-0.75-1.25v-3.352h-2.5v-2.898h2
		l1.25,2.148h1.5l1.35-3.148v-1.352l-2.85-1.75h-3.75l0.083,3.043l-3.4,4.399v1.75h1.25v4.851l3.15,2.649v2l-2.65,1.5h-2.75
		l-1.6-3.149l-7.4-1.5l-1.5-3.601l-1.35-2l1.6-1.149l1.5,1.649h1.5l2.15-3.899v-5.351l-3.65-3.25v-2.649l1.25-1v-8.397l1.3-1.603
		h2.6l2.25-1.851l-0.026-2.187l3.35-2.25v-1.75l2.9-3.25v-3l3-2.396v-1.25h-4.75v-1.25l4.1-2.5v-3.25l-2.1-1.25v-1.604
		L67.087,322.654"/>
	
		<path clip-path="url(#SVGID_2_)" fill="none" stroke="#000000" stroke-width="0.6" stroke-linecap="round" stroke-linejoin="bevel" d="
		M47.62,286.648l-2.25,1.5v3l2,1.9l2.25-2v-2.25L47.62,286.648"/>
	
		<path clip-path="url(#SVGID_2_)" fill="none" stroke="#000000" stroke-width="0.6" stroke-linecap="round" stroke-linejoin="bevel" d="
		M40.041,256.205l-2.9,1.396v2.854l0.4,2h-1.9v4l-0.45,0.75l3.45,2.25v-5.104l1.75-2h1.5v-3.5l1.25-1.396v-1.25H40.041"/>
	
		<path clip-path="url(#SVGID_2_)" fill="none" stroke="#000000" stroke-width="0.6" stroke-linecap="round" stroke-linejoin="bevel" d="
		M31.791,272.455v4l1.85,1l4.15-6.854l-4.65-1.896L31.791,272.455"/>
	
		<path clip-path="url(#SVGID_2_)" fill="none" stroke="#000000" stroke-width="0.6" stroke-linecap="round" stroke-linejoin="bevel" d="
		M185.245,272.174l-0.25-1.648h1.75l1.5-1.5h3v4.398h-3.4l-1.1-1.25H185.245"/>
	
		<path clip-path="url(#SVGID_2_)" fill="none" stroke="#000000" stroke-width="0.6" stroke-linecap="round" stroke-linejoin="bevel" d="
		M210.185,272.378l1.541-3.083l-1.488-0.917l-7.244,7.053l-0.023,1.75l-2.018,1.326l-0.028,2.147l1.37,2.268l3.1,0.041l1.27-1.483
		l1.75,0.023l1.02-1.487l-1.978-1.673l0.047-3.603L210.185,272.378"/>
	
		<path clip-path="url(#SVGID_2_)" fill="none" stroke="#000000" stroke-width="0.6" stroke-linecap="round" stroke-linejoin="bevel" d="
		M164.151,206.715l-2.4,1.5l-1.6-0.352l-2.4-1.5v-2.648l2.5-3l3.9,3.148V206.715"/>
	
		<path clip-path="url(#SVGID_2_)" fill="none" stroke="#000000" stroke-width="0.6" stroke-linecap="round" stroke-linejoin="bevel" d="
		M154.001,209.115v4.352l2.75-2.602L154.001,209.115 M152.901,208.865l-1,0.352v2.3l1,0.95V208.865 M150.901,209.565v3.25l-1-0.95
		v-2L150.901,209.565 M151.901,214.615h2.25l-1.5-1.148l-0.75,0.75V214.615"/>
	
		<path clip-path="url(#SVGID_2_)" fill="none" stroke="#000000" stroke-width="0.6" stroke-linecap="round" stroke-linejoin="bevel" d="
		M266.631,183.087v-2.25l-1.65-2v-3.5l-0.896-0.5v-3.4h1v-3.85l4.5-2.75h4.146l4.75-3.5h4.75l1.5,1.5v1.75h-2.896v2.55l-2.354,2.55
		h-2.299l-2.951,3.75l-2.75-1.85l-1.646,4.1v1.65l2.896,1.25l2.604-2l-0.047,6.549l-1.5,1v2.1l4.146,3.4h3.854l3.896-2.5v-3.65
		l5.75-2.25l2.379,0.054l7.502-3.25l4-3.602h4.75v-1.5l9.351-6.5l5.149-9.25l1.75-5.75l4.851-4.648l9.399-4.25l3.5-6.352
		l1.351-8.148l2.143-5.342v-2.604l6.604-7.75l2.05-9.511v-6.5l2.851-2.5l1.899-7.65v-3.6l-1.149-7.15l-1.601-2.1h-3.75v1.5h-1.899
		l-1.601-1.4v-3.45h4.15l3.946-7.05v-7.5l-2.1-2.25l0.077-3.527l-2.786-2.655l-0.02-1.852l3.07-2.46l-0.084-2.084l4.315-0.058
		l3.632-2.469l2.194-7.233l-2.581-3.912l1.66-1.571l-0.157-4.955l3.648,4.543l2.061-0.042l1.501-2.34l2.347,2.62
		c0.391,5.114,1.417,8.956,2.633,12.42l1.813,0.039l1.902-1.886l0.011-1.349l-1.188,0.086l-0.021-2.614l1.949-2.134l2.563,2.347
		l0.156,1.563l2.478-0.069l1.573,2.21l3.144-5.728l-0.15-8.067l-2-2l-2.75,3.85l-4.65,1.25h-4.25v-4.1l1.75-2.4v-3.35l2-2.65v-3.85
		l2.65,2.6l3.75,1.65l1.35,2.5h3.9l2.5-2.4h1.35v4.25H397.4v7.65l-1.24,1.568l0.15,5.99l1.137,3.725l0.025,3.752l3.356,6.978
		l2.252,0.005l7.514,9.194v3.25l2,1.4v1.6h-1v2l1.854,1.75h1.75v3.25l1.646,1.9v5.85h-1.5v2.75h2.354l1.5,1.9v2.1l-1.5,1.75v2h-1.25
		l-1.5,4h2.25l-1.75,1.25v1.65l1.146,1.25l-2.646,3l0.011,3.194l-2.851,1.5h-2l-1.149,1.352v3.398l-3.101,3v3.25l-2,1.352v1.398
		h1.75v2.602l1.101,1.148v1h-1.351v3.602l3,4.5h-1.75l-1.75,1.25v-2.5l-3.399-3.102h-4.5v2.102h-3.15v3l-2.1,2.25l-2.101,5.25
		l0.027,5.526l3.25,9.9l1,4.6v10.75l-2,4.9v6.25h-3.646l0.061,5.428c-2.932,3.9-4.813,7.783-5.646,11.65v5.5l-1.354,1.1v5.75
		l8.55,14.852l1.281,0.57v1.5h-5.1l-3.25,2.149l-3.165,2.896l-2.603,4.898v3.352h1v3.148l-0.75,2.25l-2.147,2l-4.409,1.267
		l-5.6,3.75v2.75l-2.4,2.25h-2.5l-2.25-4h3.15l-1.9-2l1-2l-1.25-1v-2.5l2.15-1.198l0.009-1.315h-1.899v-2.148l3.399-2.602v-1.148
		l6.015-5.047v-1.102l-3.75-3.25l-2.255-0.021v2.352h-4.15v2.75l-3.6,2.648l-0.118,6.877h2.649v1.149l-2.399,1.5v3.5h-1.101v-2.25
		l-1.5-3.5l-2.149-1.649h-4.601l-6.649,4.399v2.25l-1.397,1.5l-0.012,4.144l1.5,1.5v3.5h-1.25l-3.25,6.899l-2.85,2.851h-2.4
		l-2.85-2.601v-2h1.1v-10.75h3.65l-0.003-1.549l-2.5-2h-5l-3.65,2.852v1.648l-3.85,2.852l-3.329,6.654l-1.65,1.75v3.75l-6.5-2.399
		H293.27l-2.353-1.851l1.5-2.5h-2.147l-2.076,4.08l-11.897,3.9h-3.25v-1.4l2.647-2.35h3.603l4.25-2v-2l-1-1.15h-3.603v1h-4.75
		l-3.245-2.35v5.297l-2.5-1.75v-4.75h-1.25v-4.25l1.149-1v-1.25l-3.717-0.059l-2.102,4.5l-5,7v1.899h1.102v2.351l6.75,4.602
		l2.873-0.02v1.899h1.852v2.101l-1.352,1.649v4h-3.648v-2.399h-2.75l-3.821,1.418l-8.05,4.045l0.013,1.294l-2.101,1.75l1.5,1v3
		l-4.25,1.75l-5.75,12l-4.649,5.75h-2.101v-1.5h-2.649l-8.25-3.852v-2.898h-1.5l0.149-1.102h1.601v-1.25l-2.851-1l-7.649-5.898v-3
		h1.25l1.649-1.852l-1.75-1.25v-1.398l2.6-3.25h-1.5v-2l-1.853-1.546l8.35-5l3.5-3.85l-0.082-4.248l-2.352-2.5l-3.354,0.207
		l-5.529,3.221l-9.78-6.65h-2.35v1h-3v-1.5h-3.4l-1.5,1.5l-2.697,0.061l-5.4,5.25h-3.1l-3.4,4.103l-3.35,1.147h-1.75v-1.647h-2.45
		v-2.148l-2.524,2.009h-3.75l-4.383,3.414h-2v-1.851h-1.1l-1,1.601h-4v1.5l-7.044-0.031l-4.25,3.898h-4.75l-2.35-3.148v-1.352
		l-2.65-1.648l-4.85,3.648l-1.25,4.397l-0.13,6.257l-3.5,4l-6-4.354l-1.75,1.5h-1.65v-4.396h-4l-3.1,1.646l-2.039-1.813v2.1h-2v-1.6
		h-1.6l-1.65,2.1h-3.85l-2.75-2.85h-2.55l-2.85,2.6v-4.6l-1.35-2.15l2.1-2v-2.35h-1.35v-3.9h3.1v-2.5l2,1h3.4v-1.1h2.1v1.85h2.9
		l9.35-9.25h2.9l2.357-0.088l10.6-10l5.5-3.85h1.5l1.15-1.15v-1.1l2.35-3.25l3.055-1.533l3.85-3.148v-1.647l-1.35-1.75h3.75
		l2.75-2.5h4.35l4.25-3.603l1.75,2.25h4.65l-2,1.5h-3.75l-1.25,1.103h-4.25l-1.9,2.397h2.25l2.4-1.397h2.5l1.5,1l3.004-0.007
		l-1.299-2.262h1.65l2.75,2.103h1.35l1.65-2.853h3.5l3.1,1l7.518-0.041l1.9-1.25l2.5,1.5l1.25-1h3.25l4-3h2l3.059-1.436l1.5,1
		h10.843l3.85-3.604h2.25v-0.896h4l1.15,2.896l-3.75,4.604l3.5,3.25l4.25-4.25l1.51,2.277l1.25,1.5h2.353v1.25h3.5l-1.353-2.101v-1
		h1.75l1.25,1.5l1.603-1.649v-2.351h2.147v1.101h2.069v-5.105h2.051v2.85h2.25v-4.85l-3.398-2.5v-5.9l5.25-8.6l3.199-1.476
		l1.553-1.5v-1h2.101l4-5.75l4.149-5l4-9.25"/>
	
		<polyline clip-path="url(#SVGID_2_)" fill="none" stroke="#000000" stroke-width="0.6" stroke-linecap="round" stroke-linejoin="bevel" points="
		271.881,176.437 271.881,174.937 274.631,174.937 273.631,176.437 271.881,176.437 	"/>
	
		<path clip-path="url(#SVGID_2_)" fill="none" stroke="#000000" stroke-width="0.6" stroke-linecap="round" stroke-linejoin="bevel" d="
		M315.605,137.614v2.9h3l1,1l-2,4.1l-3,2.9l-3.25,2.1h-2.65v-1.5l2.25-1.75l1.4-2.75l-1.25-1.75l-1.65,1.5v-5.1l5.15-6.4l1.75-1.6
		h1.5v2.1L315.605,137.614"/>
	<path clip-path="url(#SVGID_2_)" fill="none" stroke="#000000" stroke-width="0.6" stroke-linejoin="bevel" d="M378.65,210.77
		l4,6.5l0.146,2l-1.5-1.25l-2.646-4.5V210.77 M379.05,217.67l-2.896-5.65l-3.104-1.75l-0.05,1.15l1.4,1.25l-1.354,1.6l-3.146-1.75
		v1.4l5.896,2.85L379.05,217.67"/>
	
		
	<path clip-path="url(#SVGID_2_)" fill="none" stroke="#000000" stroke-width="0.6" stroke-linejoin="bevel" d="M247.939,237.23
		l2.897,4.25v2l-3.25,1.5l-3.647,3v1.4h-2.603l-2.5,5.5v-4.25l1.25-2.4v-2l3.5-3.85l0.103-4.25l4.25-2.75V237.23"/>
	
		<path id="南海路" clip-path="url(#SVGID_2_)" fill="none" stroke="#00B464" stroke-width="2" stroke-linejoin="bevel" stroke-miterlimit="10" d="
		M224.582,263.941c0,0-10.663,8.906-10.36,15.074c0,0-7.198,0.006,0.29,6.184c0,0-7.205,3.086-2.327,9.351
		c0,0,2.562,13.017,13.032,13.391c0,0,3.432,6.556,10.232,3.715c0,0,3.781-1.972,4.447-5.5c0,0,6.318-4.679,8.961-13.322
		c0,0,11.705-4.019,14.393-8.581c0,0,9.584,1.568,5.667-6.153c0,0,3.958-3.433-0.663-5.45c0,0,51.369,3.193,57.245-6.758
		c0,0,2.712,7.024,6.245,1.605c0,0,13.232-5.68,15.318-18.848c0.313-1.973,6.535,0.655,6.535,0.655s4.777-4.927,2.09-11.114
		c0,0,4.681-4.62,1.788-7.419"/>
	<g id="東回り航路_5_" clip-path="url(#SVGID_2_)">
		<g>
			<path fill="none" stroke="#FF3A3A" stroke-width="2" stroke-linejoin="bevel" d="M387.526,209.949
				c0.229,0.529,0.521,1.095,0.891,1.699c2.954,4.833,1.714,14.667,1.714,14.667c1.714,8.583-8.214,13.053-8.214,13.053
				c0.833,8.053-16.583,12.214-16.583,12.214c1.365,4.454-8.595,9.994-11.751,8.4s-20.594,6.897-20.594,6.897
				s31.678-17.647,22.178-24.647c0,0,1.609-4.945,2.149-8.797"/>
			<g>
				<path fill="#FF3A3A" d="M366.881,249.303c-0.537,0.293-1.213,0.092-1.506-0.447l-8.117-14.916l-10.085,13.663
					c-0.364,0.494-1.061,0.601-1.553,0.236s-0.594-1.064-0.234-1.555l11.12-15.065c0.226-0.304,0.591-0.475,0.97-0.448
					s0.718,0.245,0.899,0.577l8.951,16.447c0.104,0.193,0.146,0.403,0.132,0.606C367.433,248.767,367.227,249.113,366.881,249.303z"
					/>
			</g>
		</g>
	</g>
	<g id="東回り航路_4_" clip-path="url(#SVGID_2_)">
		<g>
			<path fill="none" stroke="#FF3A3A" stroke-width="2" stroke-linejoin="bevel" d="M394.199,156.435
				c4.607,21.016-3.313,23.906-3.313,23.906c0,0.86-3.628,1.693-3.628,1.693c3.174,4.803-4.82,12.593-4.82,12.593l4.979,9.771
				c0,0-0.802,0.991-0.602,2.974"/>
			<g>
				<path fill="#FF3A3A" d="M372.717,195.369c0.416-0.449,1.12-0.473,1.569-0.055l12.439,11.561l5.218-16.161
					c0.188-0.584,0.814-0.907,1.396-0.718c0.582,0.188,0.901,0.82,0.716,1.399l-5.753,17.819c-0.116,0.36-0.409,0.638-0.776,0.733
					s-0.759-0.004-1.036-0.261l-13.716-12.748c-0.16-0.151-0.267-0.336-0.318-0.533
					C372.364,196.052,372.449,195.658,372.717,195.369z"/>
			</g>
		</g>
	</g>
	<g id="東回り航路_3_" clip-path="url(#SVGID_2_)">
		<g>
			<path fill="none" stroke="#FF3A3A" stroke-width="2" stroke-linejoin="bevel" d="M413.475,56.624
				c5.323,9.98,2.942,23.345,2.942,23.345c4.684-3.071,5.619,5.808,1.833,13.929c-3.617,7.758-10.291,14.415-10.291,14.415
				c0,0,0-1.915,0.124,15.585s-6.894,2.582-6.894,2.582c-1.894,7.416-12.581,11.935-12.581,11.935
				c2.27,5.931,3.879,11.034,4.979,15.423"/>
			<g>
				<path fill="#FF3A3A" d="M379.315,141.931c0.414-0.451,1.118-0.479,1.569-0.063l12.498,11.498l5.135-16.188
					c0.186-0.585,0.81-0.911,1.394-0.725c0.583,0.186,0.905,0.816,0.723,1.396l-5.661,17.849c-0.115,0.36-0.407,0.64-0.773,0.737
					s-0.758,0-1.037-0.256l-13.781-12.677c-0.161-0.15-0.269-0.335-0.32-0.532C378.966,142.616,379.05,142.221,379.315,141.931z"/>
			</g>
		</g>
	</g>
	<g id="東回り航路_2_" clip-path="url(#SVGID_2_)">
		<g>
			<path fill="none" stroke="#FF3A3A" stroke-width="2" stroke-linejoin="bevel" d="M360.217,28.592
				c2.673-4.185,6.12-6.364,6.12-6.364c2.413-7.497,7.152,0.341,7.152,0.341c4.13-1.675,6.793,15.079,6.793,15.079
				S371.583,0,391.917,2.731s9.833,44.291,9.833,44.291c4.74,1.416,8.043,4.09,10.326,7.327"/>
			<g>
				<path fill="#FF3A3A" d="M394.954,47.197c0.261-0.554,0.925-0.79,1.479-0.526l15.35,7.265l0.094-16.981
					c0.003-0.614,0.503-1.11,1.115-1.106s1.106,0.51,1.105,1.118l-0.104,18.725c-0.003,0.378-0.198,0.731-0.52,0.934
					s-0.725,0.225-1.066,0.064l-16.925-8.011c-0.198-0.095-0.355-0.239-0.465-0.412C394.824,47.955,394.786,47.553,394.954,47.197z"
					/>
			</g>
		</g>
	</g>
	<g id="東回り航路_1_" clip-path="url(#SVGID_2_)">
		<g>
			<path fill="none" stroke="#FF3A3A" stroke-width="2" stroke-linejoin="bevel" d="M352.542,114.231
				c-3.541-12.833,4.709-18.81,4.709-18.81c-1.332-7.976,3.327-15.217,3.327-15.217c-5.172,1.641-9.617-6.771-9.617-6.771
				c-2.622-4.964,7.715-9.818,7.715-9.818c-12.907-14.948-1.46-23.01-1.46-23.01c-0.328-3.794,0.47-7.031,1.713-9.681"/>
			<g>
				<path fill="#FF3A3A" d="M361.005,49.359c-0.61,0.042-1.14-0.423-1.181-1.036l-1.131-16.944l-14.877,8.19
					c-0.538,0.296-1.215,0.102-1.51-0.435c-0.294-0.537-0.094-1.215,0.438-1.51l16.403-9.031c0.332-0.182,0.735-0.184,1.068-0.001
					s0.549,0.523,0.575,0.9l1.248,18.683c0.014,0.22-0.036,0.428-0.134,0.606C361.73,49.103,361.398,49.332,361.005,49.359z"/>
			</g>
		</g>
	</g>
	<g id="西回り航路_5_" clip-path="url(#SVGID_2_)">
		<g>
			<path fill="none" stroke="#0A5EFF" stroke-width="2" stroke-linejoin="bevel" d="M98.04,265.779
				c-1.18,0.868-2.358,1.936-3.457,3.246c0,0-10.75-7.699-12.5,2.545s0.833,19.494,5.917,13.494c0,0,3.917-1.583,4.75,4.75
				c0,0-0.275,3.734,12.833,1.917s11.333,5.082,11.167,6.166s1.01,0.5,1.01,0.5s15.99-5.749,14.407-10.916s-4.917-12.859-0.5-13.305
				c0,0,1.781,9.528,9.807,4.708l10.521-3.158c0,0,14.658,2.908,21.207-2.877c0,0,7.463,2.579,16.506-10.02
				c0,0,12.856,6.503,20.783,3.452c0,0,3.006,4.043,6.55-0.462l4.952-1.233"/>
			<g>
				<path fill="#0A5EFF" d="M209.845,278.594c-0.444-0.421-0.461-1.125-0.038-1.569l11.693-12.315l-16.104-5.39
					c-0.583-0.194-0.898-0.824-0.703-1.404c0.195-0.58,0.83-0.893,1.407-0.701l17.757,5.943c0.358,0.12,0.633,0.416,0.725,0.784
					s-0.012,0.758-0.272,1.033l-12.893,13.579c-0.153,0.158-0.339,0.263-0.537,0.313
					C210.524,278.954,210.131,278.864,209.845,278.594z"/>
			</g>
		</g>
	</g>
	<g id="西回り航路_4_" clip-path="url(#SVGID_2_)">
		<g>
			<path fill="none" stroke="#0A5EFF" stroke-width="2" stroke-linejoin="bevel" d="M193.776,225.426
				c-13.197,0.923-28.264,2.989-33.339,7.596c0,0,5.35-9.107-8.438-7.091c-15.375,2.249-12.407,8.234-12.407,8.234
				s-8.342,4.833-7.905,12.429c0,0-9.456-0.521-11.634,8.287c0,0-4.512-3.326-10.929,2.559c-3.544,3.25-1.783,4.578-1.783,4.578
				s-3.267,0.243-7.05,2.323"/>
			<g>
				<path fill="#0A5EFF" d="M107.542,247.297c0.553,0.264,0.786,0.928,0.521,1.481l-7.327,15.32l16.981,0.162
					c0.614,0.005,1.108,0.507,1.102,1.119c-0.007,0.612-0.515,1.105-1.123,1.101l-18.724-0.179c-0.378-0.004-0.731-0.2-0.932-0.522
					s-0.222-0.725-0.06-1.066l8.079-16.893c0.096-0.198,0.241-0.355,0.414-0.463C106.784,247.163,107.186,247.128,107.542,247.297z"
					/>
			</g>
		</g>
	</g>
	<g id="西回り航路_3_" clip-path="url(#SVGID_2_)">
		<g>
			<path fill="none" stroke="#0A5EFF" stroke-width="2" stroke-linejoin="bevel" d="M254.839,189.872
				c-2.44,5.162-4.16,10.7-3.199,14.932c0,0-14.223,5.315-9.39,21.288c0,0-10.326,1.113-12.163,8.355c0,0-6.226-7.504-8.719-7.381
				c0,0,0.067-9.002-5.15-2.377c0,0-8.942-0.089-19.777,0.563"/>
			<g>
				<path fill="#0A5EFF" d="M211.139,214.005c0.352,0.501,0.228,1.195-0.275,1.546l-13.915,9.736l14.707,8.492
					c0.532,0.307,0.716,0.986,0.409,1.517c-0.307,0.529-0.991,0.709-1.519,0.406l-16.215-9.364
					c-0.328-0.189-0.538-0.534-0.554-0.913s0.163-0.74,0.473-0.958l15.342-10.735c0.182-0.125,0.385-0.19,0.588-0.199
					C210.545,213.517,210.913,213.684,211.139,214.005z"/>
			</g>
		</g>
	</g>
	<g id="西回り航路_2_" clip-path="url(#SVGID_2_)">
		<g>
			<path fill="none" stroke="#0A5EFF" stroke-width="2" stroke-linejoin="bevel" d="M315.567,162.318
				c-1.507,2.044-2.742,3.58-2.742,3.58s-5.779,4.746-7.511,8.54c0,0-21.303,1.686-30.684,12.49c0,0,14.786-23.997,10.619-26.597
				s-15,4.506-15,4.506s-10.833,0.426-6.166,10c0,0-4.426,5.709-8.055,12.646"/>
			<g>
				<path fill="#0A5EFF" d="M253.799,169.116c0.61-0.049,1.145,0.409,1.192,1.021l1.338,16.93l14.775-8.371
					c0.534-0.303,1.214-0.117,1.515,0.417s0.109,1.214-0.419,1.516l-16.293,9.229c-0.33,0.186-0.733,0.192-1.068,0.015
					s-0.556-0.516-0.586-0.893l-1.475-18.667c-0.017-0.22,0.03-0.428,0.126-0.608C253.076,169.38,253.406,169.148,253.799,169.116z"
					/>
			</g>
		</g>
	</g>
	<g id="西回り航路_1_" clip-path="url(#SVGID_2_)">
		<g>
			<path fill="none" stroke="#0A5EFF" stroke-width="2" stroke-linejoin="bevel" d="M352.542,114.231c0,0-11.33,3-7.377,15.319
				c0,0-6.076,2.243-3.162,10.378c0,0-9.449,2.011-10.018,6.49c0,0-9.755-1.172-11.048,6.812c-0.241,1.493-1.996,4.315-3.812,6.918"
				/>
			<g>
				<path fill="#0A5EFF" d="M316.888,141.578c0.612,0.021,1.092,0.537,1.069,1.15l-0.591,16.972l15.63-6.641
					c0.564-0.24,1.219,0.022,1.457,0.585c0.239,0.564-0.029,1.219-0.589,1.458l-17.234,7.322c-0.348,0.147-0.75,0.108-1.063-0.107
					s-0.493-0.576-0.481-0.954l0.652-18.714c0.009-0.22,0.079-0.422,0.194-0.59C316.141,141.759,316.494,141.565,316.888,141.578z"
					/>
			</g>
		</g>
	</g>
	<circle clip-path="url(#SVGID_2_)" stroke="#000000" stroke-miterlimit="10" cx="352.376" cy="112.565" r="6.041"/>
	<path clip-path="url(#SVGID_2_)" d="M360.214,99.657c1.458,0.912,2.147,1.417,3.463,2.612l-0.77,1.093
		c-1.315-1.315-2.045-1.883-3.463-2.733L360.214,99.657z M363.819,106.217c-0.608,1.661-1.155,2.916-1.863,4.212
		c-0.243,0.426-0.386,0.689-0.77,1.276c-0.142,0.243-0.162,0.304-0.364,0.627l-1.135-1.073c0.992-0.952,2.167-3.16,3.14-5.873
		L363.819,106.217z M361.167,94.756c1.255,0.871,1.944,1.438,3.218,2.754l-0.87,0.992c-1.195-1.357-1.882-1.964-3.199-2.835
		L361.167,94.756z M366.432,96.518c-0.79,0-1.398,0.042-1.964,0.102v-1.377c0.586,0.101,1.031,0.121,1.983,0.121h9.438
		c0.83,0,1.396-0.04,2.005-0.121v1.377c-0.568-0.061-1.175-0.102-1.985-0.102h-2.774v2.552h2.086c0.87,0,1.519-0.02,1.924-0.081
		c-0.042,0.405-0.061,0.891-0.061,2.044v9.214c0,1.033,0.039,1.701,0.121,2.41h-1.337v-1.194h-9.436v1.194h-1.338
		c0.082-0.668,0.121-1.397,0.121-2.289v-9.375c0-1.094-0.019-1.519-0.079-2.005c0.466,0.061,1.072,0.081,2.004,0.081h1.762v-2.552
		H366.432z M366.432,100.163v6.925h9.436V104.8c-0.526,0.021-0.851,0.021-1.114,0.021c-1.356,0-1.822-0.041-2.228-0.223
		c-0.425-0.183-0.565-0.486-0.565-1.073v-3.361h-1.904c-0.081,1.539-0.203,2.268-0.506,3.098c-0.386,1.053-0.892,1.742-1.964,2.693
		c-0.365-0.425-0.526-0.546-1.014-0.83c1.135-0.83,1.661-1.518,1.984-2.612c0.202-0.648,0.243-1.033,0.325-2.349H366.432z
		 M366.432,110.328h9.436v-2.146h-9.436V110.328z M370.076,99.069h1.884v-2.552h-1.884V99.069z M373.134,103.2
		c0,0.486,0.183,0.547,1.498,0.547c0.345,0,0.345,0,1.235-0.021v-3.564h-2.733V103.2z"/>
	<path clip-path="url(#SVGID_2_)" d="M395.538,112.536V111.3h-13.344v1.236h-1.418c0.081-0.73,0.122-1.418,0.122-2.349V97.611
		c0-0.749-0.041-1.377-0.102-2.025c0.77,0.082,1.418,0.102,2.329,0.102h11.502c0.891,0,1.539-0.02,2.309-0.102
		c-0.081,0.628-0.103,1.215-0.103,2.025v12.576c0,0.931,0.042,1.661,0.122,2.349H395.538z M382.194,102.674h5.811v-5.812h-5.811
		V102.674z M382.194,110.125h5.811v-6.298h-5.811V110.125z M389.282,102.674h6.256v-5.812h-6.256V102.674z M389.282,110.125h6.256
		v-6.298h-6.256V110.125z"/>
	<path clip-path="url(#SVGID_2_)" d="M288.278,53.246c-1.438,0-2.072,0.024-2.876,0.146v-1.706c0.828,0.122,1.561,0.171,2.948,0.171
		h6.924v-0.196c0-1.072-0.049-1.633-0.172-2.364h1.806c-0.123,0.731-0.172,1.413-0.172,2.364v0.196h7.289
		c1.586,0,2.39-0.049,3.047-0.171v1.706c-0.682-0.098-1.683-0.146-2.998-0.146h-7.338v2.023h5.314c1.536,0,2.121-0.025,2.78-0.122
		c-0.073,0.682-0.099,1.218-0.099,2.559v3.583c0,1.462,0,1.828,0.099,2.584c-0.659-0.123-1.341-0.146-2.78-0.146h-4.193
		c2.633,2.73,5.534,4.29,10.044,5.411c-0.438,0.585-0.609,0.829-0.926,1.536c-2.194-0.731-3.73-1.39-5.486-2.413
		c-1.925-1.122-3.313-2.267-4.826-3.998c0.05,0.634,0.073,1.438,0.073,1.901v2.486c0,1.317,0.025,1.951,0.172,2.707h-1.806
		c0.123-0.83,0.172-1.439,0.172-2.707v-2.462c0-0.463,0.024-1.195,0.073-1.877c-1.049,1.268-1.633,1.829-2.877,2.779
		c-1.975,1.512-4.12,2.633-6.802,3.56c-0.365-0.732-0.511-1-0.9-1.462c2.241-0.61,3.974-1.366,5.923-2.609
		c1.585-1.024,2.486-1.755,3.412-2.852h-3.559c-1.56,0-2.145,0.023-2.828,0.146l0.025-0.317c0.048-0.512,0.073-0.926,0.073-2.267
		v-3.535c0-1.414-0.025-1.853-0.099-2.633c0.585,0.122,1.244,0.146,2.706,0.146h4.852v-2.023H288.278z M289.326,56.537v2.243h5.948
		v-2.243H289.326z M289.326,60.022v2.462h5.948v-2.462H289.326z M296.736,58.779h6.485v-2.243h-6.485V58.779z M296.736,62.485h6.485
		v-2.462h-6.485V62.485z"/>
	<path clip-path="url(#SVGID_2_)" d="M311.983,60.583c0.17,1.024,0.658,2.219,1.464,3.632c0.657-1.56,0.926-2.657,1.364-5.436
		h-2.316c-0.584,0-0.584,0-1.218,0.024c-0.146,0-0.146,0-0.658,0.024c1.973-3.144,2.925-4.9,3.681-6.825h-2.585
		c-0.707,0-1.121,0.024-1.682,0.122V50.54c0.537,0.097,0.951,0.122,1.706,0.122h1.975c0.926,0,1.439-0.025,1.829-0.098l0.683,0.951
		c-0.195,0.317-0.317,0.561-0.61,1.219c-0.657,1.462-1.536,3.096-2.559,4.729h1.486c1,0,1.487-0.025,1.877-0.098
		c-0.073,0.39-0.098,0.512-0.22,1.56c-0.243,2.242-0.926,4.656-1.853,6.63c0.999,1.292,1.975,2.073,3.267,2.632
		c1.513,0.659,3.779,1,6.777,1c2.463,0,4.924-0.123,7.436-0.342c-0.342,0.78-0.366,0.901-0.514,1.707
		c-1.779,0.024-4.728,0.073-5.995,0.073c-6.437,0-9.142-0.878-11.628-3.802c-0.976,1.706-1.926,2.924-3.363,4.315
		c-0.318-0.439-0.587-0.732-1.099-1.195c1.487-1.268,2.511-2.511,3.56-4.339c-0.658-0.976-1.17-2-2.022-3.9
		c-0.025-0.074-0.123-0.244-0.245-0.537L311.983,60.583z M317.713,53.246c-0.025-2.121-0.025-2.121-0.05-2.267
		c-0.023-0.292-0.023-0.292-0.023-0.463c0.585,0.073,1.341,0.098,2.583,0.098h7.824c1.756,0,2.024,0,2.635-0.098
		c-0.073,0.731-0.099,1.487-0.099,2.778v10.604c0,1.365,0.025,2,0.099,2.804c-0.514-0.074-1.122-0.098-2.585-0.098h-7.923
		c-1.072,0-1.779,0.023-2.534,0.098c0.073-0.732,0.073-0.805,0.073-2.755V53.246z M319.174,65.263h9.922V51.954h-9.922V65.263z
		 M321.271,56.074c0-0.756-0.023-1.049-0.073-1.463c0.438,0.049,0.927,0.074,1.706,0.074h2.438c0.829,0,1.317-0.024,1.731-0.074
		C327.024,55.001,327,55.244,327,56v5.07c0,0.731,0.024,1.024,0.073,1.365c-0.414-0.048-1.024-0.073-1.683-0.073h-2.486
		c-0.657,0-1.291,0.025-1.706,0.073c0.05-0.365,0.073-0.731,0.073-1.462V56.074z M322.612,61.071h3.021v-5.095h-3.021V61.071z"/>
	<path clip-path="url(#SVGID_2_)" d="M339.176,50.077c-0.196,0.511-0.342,1.194-0.562,2.51c-0.389,2.463-0.73,5.12-0.804,6.363
		l0.097,0.025c0.05-0.195,0.05-0.195,0.172-0.707c0.292-1.341,0.78-2.536,1.487-3.633c1.364-2.096,2.974-3.145,4.876-3.145
		c1.583,0,2.948,0.756,3.898,2.17c1.024,1.511,1.463,3.315,1.463,5.924c0,4.412-1.975,7.751-5.63,9.58
		c-1.171,0.584-2.633,1.072-4.339,1.438c-0.294-0.731-0.44-1-0.976-1.658c2.267-0.341,3.535-0.731,4.949-1.536
		c2.852-1.633,4.192-4.193,4.192-8.093c0-3.925-1.366-6.191-3.707-6.191c-1.853,0-3.412,1.389-4.801,4.241
		c-0.854,1.779-1.317,3.656-1.317,5.437c0,0.097,0,0.219,0.025,0.584l-1.755,0.073c0-0.122,0-0.219,0-0.269l-0.025-0.438
		l-0.048-2.535c0-0.22,0-0.439,0-0.561c0-2.389,0.219-4.68,0.827-8.995c0.05-0.365,0.073-0.488,0.073-0.78L339.176,50.077z"/>
	<path clip-path="url(#SVGID_2_)" d="M286.005,279.58c0-1.09-0.045-1.511-0.155-2.155h1.711c-0.111,0.666-0.155,1.11-0.155,2.155
		h7.069c1.09,0,1.735-0.045,2.29-0.155v1.578c-0.71-0.088-1.378-0.133-2.29-0.133h-7.069v2.289h6.004
		c0.911,0,1.444-0.021,2.001-0.088c-0.068,0.577-0.09,1.067-0.09,1.867v10.651c0,1.399-0.512,1.777-2.446,1.777
		c-0.712,0-1.444-0.045-2.311-0.111c-0.045-0.533-0.134-0.911-0.378-1.444c0.978,0.178,1.801,0.245,2.646,0.245
		c0.844,0,1.066-0.112,1.066-0.579v-11.072h-13.896v10.982c0,1.313,0.022,1.735,0.11,2.292h-1.668
		c0.09-0.624,0.135-1.224,0.135-2.358v-10.338c0-0.777-0.022-1.313-0.09-1.912c0.601,0.066,1.112,0.088,2.023,0.088h5.493v-2.289
		h-6.649c-0.933,0-1.623,0.045-2.268,0.133v-1.578c0.734,0.11,1.355,0.155,2.268,0.155H286.005z M287.65,287.808
		c0.778-0.979,1.29-1.912,1.756-3.048l1.333,0.4c-0.6,1.114-1.044,1.825-1.666,2.647h1.69c0.933,0,1.398-0.022,1.955-0.11v1.423
		c-0.6-0.09-1.11-0.112-1.955-0.112h-3.47v2.38h3.29c0.912,0,1.402-0.023,1.957-0.111v1.4c-0.555-0.09-1.111-0.111-1.957-0.111
		h-3.29v1.935c0,1.199,0.021,1.802,0.111,2.513h-1.579c0.09-0.756,0.111-1.335,0.111-2.491v-1.956h-2.668
		c-0.846,0-1.444,0.021-2.023,0.111v-1.4c0.579,0.088,1.067,0.111,2.045,0.111h2.646v-2.38h-3.001c-0.868,0-1.38,0.022-1.936,0.112
		v-1.423c0.556,0.088,1.045,0.11,2.002,0.11H287.65z M283.981,284.716c0.554,0.824,1.065,1.714,1.443,2.47l-1.133,0.488
		c-0.355-0.8-0.868-1.645-1.468-2.446L283.981,284.716z"/>
	<path clip-path="url(#SVGID_2_)" d="M299.532,283.428c1.533,0.978,2.246,1.511,3.626,2.802l-0.957,1.066
		c-1.136-1.224-1.89-1.846-3.536-2.869L299.532,283.428z M303.379,290.61c-0.8,2.443-1.711,4.667-2.579,6.245
		c-0.243,0.467-0.243,0.467-0.379,0.734l-1.267-1c0.846-0.891,2.091-3.713,3.069-6.916L303.379,290.61z M300.933,277.891
		c1.356,1.022,2.226,1.802,3.27,2.912l-1.022,1.045c-1.244-1.468-1.912-2.09-3.247-3L300.933,277.891z M316.008,279.803
		c1.603,0,2.248-0.022,2.892-0.135v1.49c-0.511-0.066-1.244-0.088-2.802-0.088h-8.761c-1,1.778-1.6,2.601-2.89,4.047
		c-0.312-0.424-0.645-0.735-1.089-1.023c1.443-1.29,2.4-2.668,3.379-4.868c0.333-0.757,0.533-1.38,0.6-1.913l1.557,0.312
		c-0.11,0.245-0.11,0.245-0.333,0.866c-0.156,0.423-0.288,0.735-0.578,1.313H316.008z M306.249,294.5
		c-0.135,0.488-0.202,0.712-0.402,1.444l-1.511-0.2c0.646-1.712,1.135-3.778,1.556-6.491h-0.133c-0.912,0-1.401,0.022-2.047,0.133
		v-1.513c0.535,0.09,1.114,0.134,2.135,0.134h0.224c0.244-1.935,0.379-3.335,0.379-4.091c0-0.045,0-0.268-0.024-0.646
		c0.268,0.021,0.912,0.045,1.58,0.045h7.07c1.135,0,1.557-0.023,2.313-0.09c-0.11,0.578-0.11,0.778-0.2,3.358
		c-0.021,0.444-0.021,0.734-0.066,1.423h0.156c1.023,0,1.511-0.021,2.067-0.134v1.513c-0.666-0.09-1.312-0.133-2.067-0.133h-0.246
		c-0.021,0.223-0.021,0.223-0.044,0.621c-0.065,0.935-0.178,2.068-0.355,3.38h0.245c0.866,0,1.224-0.022,1.757-0.134v1.469
		c-0.578-0.067-1.023-0.089-1.802-0.089h-0.4c-0.444,2.579-0.845,3.046-2.668,3.046c-0.512,0-1.246-0.045-2.445-0.134
		c0-0.578-0.067-0.89-0.245-1.423c0.956,0.177,1.846,0.268,2.468,0.268c1.134,0,1.223-0.112,1.556-1.757H306.249z M307.271,289.253
		c-0.134,1.066-0.288,1.845-0.733,4.001h3.579c0.402-2.178,0.402-2.178,0.602-4.001H307.271z M310.873,288.007
		c0.155-1.532,0.155-1.689,0.245-3.491h-3.336c-0.109,1.514-0.155,1.979-0.333,3.491H310.873z M312.029,289.253
		c-0.223,1.823-0.223,1.823-0.6,4.001h3.891c0.154-1.222,0.267-2.201,0.399-4.001H312.029z M315.808,288.007
		c0.045-0.889,0.09-2.156,0.112-3.491h-3.49c-0.112,1.469-0.2,2.646-0.267,3.491H315.808z"/>
	<path clip-path="url(#SVGID_2_)" d="M325.626,285.072h-1.09c-0.935,0-1.557,0.021-2.047,0.088c0.067-0.6,0.089-1.199,0.089-2.068
		v-2.733c0-0.911-0.021-1.535-0.089-2.18c0.579,0.066,1.269,0.111,2.135,0.111h2.758c0.911,0,1.556-0.021,2.156-0.111
		c-0.067,0.602-0.089,1.156-0.089,2.18v2.891c0,1.022,0,1.467,0.067,1.891c-0.424-0.046-0.424-0.046-1.979-0.067h-0.623v3.336h0.867
		c0.823,0,1.179-0.022,1.557-0.112v1.4c-0.49-0.066-0.956-0.088-1.578-0.088h-0.846v4.625c1.246-0.356,1.713-0.489,3.047-0.979
		l0.044,1.29c-2.956,0.979-3.87,1.245-7.448,2.134c-0.288,0.09-0.533,0.156-0.934,0.29l-0.423-1.513
		c0.511-0.022,0.733-0.044,1.535-0.2v-5.625c0-1.134-0.046-1.712-0.134-2.334h1.512c-0.089,0.489-0.112,0.978-0.112,2.29v5.381
		c0.49-0.112,0.668-0.155,1.625-0.378V285.072z M323.913,283.894h4.224v-4.38h-4.224V283.894z M331.518,291.588
		c0-1.023-0.024-1.446-0.067-1.914c-0.444,0.246-0.602,0.334-1.156,0.646c-0.289-0.578-0.399-0.756-0.801-1.178
		c2.513-1.244,3.869-2.134,5.448-3.536c-0.89-0.979-1.602-1.957-2.358-3.268c-0.645,0.8-1.022,1.199-2.112,2.201
		c-0.333-0.512-0.51-0.711-0.933-1.002c2.155-1.734,3.802-4.068,4.381-6.225l1.4,0.378c-0.044,0.112-0.268,0.534-0.622,1.29
		c-0.112,0.245-0.157,0.333-0.267,0.555h3.179c1.111,0,1.646-0.021,2.089-0.11l0.824,0.889c-0.224,0.335-0.312,0.468-0.557,0.89
		c-1.156,2.022-1.956,3.136-3.179,4.402c1.511,1.269,3.023,2.135,5.336,3.069c-0.29,0.4-0.512,0.821-0.711,1.378
		c-2.513-1.223-3.98-2.135-5.537-3.535c-1.268,1.135-2.535,2.046-4.402,3.136c0.533,0.043,0.822,0.043,1.756,0.043h4.848
		c0.956,0,1.312,0,1.822-0.043c-0.066,0.467-0.066,0.821-0.066,1.935v3.957c0,1.178,0.023,1.801,0.111,2.334h-1.489v-1.178h-5.581
		v1.178h-1.468c0.067-0.533,0.112-1.135,0.112-2.268V291.588z M332.873,295.478h5.581v-4.559h-5.581V295.478z M333.741,280.715
		c-0.155,0.243-0.201,0.333-0.355,0.556c0.778,1.513,1.399,2.4,2.444,3.468c1.201-1.244,1.957-2.313,2.846-4.023H333.741z"/>
	<path clip-path="url(#SVGID_2_)" d="M176.852,191.88c-0.982,0-1.795,0.048-2.533,0.147v-1.746c0.664,0.099,1.5,0.148,2.559,0.148
		h16.751c1.058,0,1.869-0.05,2.557-0.148v1.746c-0.737-0.1-1.548-0.147-2.533-0.147h-5.681v3.69h3.812
		c1.303,0,2.017-0.025,2.927-0.123c-0.1,0.935-0.147,1.722-0.147,3.024v9.47c0,1.477,0.048,2.264,0.147,2.93h-1.698v-1.748h-15.545
		v1.748h-1.698c0.124-0.813,0.147-1.503,0.147-2.978v-9.422c0-1.155-0.048-2.09-0.147-3.024c0.763,0.098,1.648,0.123,2.877,0.123
		h3.42c0.025-0.86,0.049-1.379,0.049-2.189v-1.501H176.852z M177.468,196.997v10.649h15.521v-10.649h-5.018v4.476
		c0,0.519,0.171,0.59,1.206,0.59c1.351,0,1.598-0.048,1.722-0.418c0.098-0.22,0.122-0.737,0.122-1.819
		c0.518,0.271,0.887,0.393,1.353,0.468c-0.098,1.599-0.171,2.064-0.418,2.459c-0.343,0.542-1.008,0.714-2.754,0.714
		c-2.19,0-2.706-0.295-2.706-1.526v-4.942h-3.025c-0.221,2.483-0.516,3.615-1.353,5.042c-0.737,1.279-1.5,1.992-3.148,2.977
		c-0.369-0.565-0.616-0.813-1.132-1.207c1.55-0.81,2.361-1.499,3.001-2.557c0.664-1.132,0.959-2.262,1.132-4.255H177.468z
		 M183.617,193.331c0,0.885-0.025,1.402-0.049,2.239h2.927v-3.69h-2.878V193.331z"/>
	<path clip-path="url(#SVGID_2_)" d="M201.191,200.07c0.171,1.034,0.664,2.239,1.477,3.666c0.664-1.574,0.935-2.682,1.377-5.485
		h-2.337c-0.59,0-0.59,0-1.229,0.025c-0.147,0-0.147,0-0.664,0.024c1.991-3.173,2.951-4.946,3.714-6.887h-2.608
		c-0.713,0-1.132,0.023-1.698,0.121v-1.598c0.542,0.098,0.96,0.121,1.722,0.121h1.993c0.935,0,1.452-0.023,1.845-0.098l0.689,0.959
		c-0.197,0.32-0.32,0.565-0.615,1.231c-0.664,1.475-1.55,3.124-2.583,4.771h1.5c1.009,0,1.5-0.024,1.894-0.098
		c-0.074,0.393-0.098,0.516-0.221,1.574c-0.245,2.262-0.935,4.698-1.869,6.689c1.008,1.305,1.993,2.092,3.296,2.658
		c1.526,0.664,3.814,1.009,6.839,1.009c2.485,0,4.968-0.124,7.503-0.345c-0.346,0.787-0.369,0.91-0.518,1.722
		c-1.797,0.025-4.771,0.073-6.051,0.073c-6.494,0-9.224-0.885-11.733-3.838c-0.984,1.722-1.943,2.953-3.394,4.355
		c-0.321-0.443-0.592-0.738-1.108-1.207c1.5-1.279,2.533-2.532,3.591-4.376c-0.664-0.984-1.18-2.019-2.041-3.938
		c-0.026-0.073-0.124-0.245-0.247-0.542L201.191,200.07z M206.972,192.667c-0.025-2.14-0.025-2.14-0.049-2.287
		c-0.024-0.295-0.024-0.295-0.024-0.469c0.59,0.075,1.353,0.1,2.607,0.1h7.895c1.771,0,2.043,0,2.658-0.1
		c-0.074,0.739-0.1,1.503-0.1,2.806v10.699c0,1.377,0.025,2.019,0.1,2.83c-0.518-0.074-1.132-0.099-2.608-0.099h-7.995
		c-1.082,0-1.795,0.024-2.557,0.099c0.074-0.739,0.074-0.812,0.074-2.78V192.667z M208.447,204.793h10.012v-13.429h-10.012V204.793z
		 M210.563,195.521c0-0.763-0.024-1.058-0.074-1.477c0.442,0.05,0.935,0.075,1.722,0.075h2.458c0.838,0,1.33-0.025,1.748-0.075
		c-0.05,0.395-0.074,0.64-0.074,1.403v5.117c0,0.737,0.024,1.032,0.074,1.375c-0.418-0.048-1.034-0.072-1.697-0.072h-2.509
		c-0.664,0-1.303,0.024-1.722,0.072c0.05-0.367,0.074-0.737,0.074-1.475V195.521z M211.917,200.564h3.048v-5.142h-3.048V200.564z"/>
	<path clip-path="url(#SVGID_2_)" d="M228.63,189.469c-0.197,0.518-0.345,1.206-0.566,2.535c-0.393,2.482-0.737,5.165-0.812,6.42
		l0.098,0.024c0.051-0.197,0.051-0.197,0.174-0.714c0.295-1.353,0.787-2.559,1.5-3.666c1.377-2.114,3.002-3.173,4.92-3.173
		c1.6,0,2.977,0.764,3.935,2.19c1.034,1.524,1.477,3.346,1.477,5.977c0,4.451-1.993,7.822-5.682,9.668
		c-1.181,0.59-2.656,1.08-4.378,1.451c-0.297-0.738-0.443-1.009-0.984-1.674c2.287-0.344,3.566-0.737,4.994-1.551
		c2.877-1.646,4.23-4.229,4.23-8.166c0-3.96-1.379-6.246-3.74-6.246c-1.869,0-3.443,1.401-4.845,4.279
		c-0.86,1.795-1.329,3.688-1.329,5.485c0,0.099,0,0.222,0.025,0.591l-1.771,0.073c0-0.122,0-0.222,0-0.271l-0.025-0.443
		l-0.048-2.557c0-0.223,0-0.444,0-0.565c0-2.411,0.222-4.723,0.835-9.079c0.05-0.367,0.074-0.49,0.074-0.785L228.63,189.469z"/>
</g>
</svg>
