<?xml version="1.0" encoding="utf-8"?>
<!-- Generator: Adobe Illustrator 16.0.0, SVG Export Plug-In . SVG Version: 6.00 Build 0)  -->
<!DOCTYPE svg PUBLIC "-//W3C//DTD SVG 1.1//EN" "http://www.w3.org/Graphics/SVG/1.1/DTD/svg11.dtd">
<svg version="1.1" id="レイヤー_1" xmlns="http://www.w3.org/2000/svg" xmlns:xlink="http://www.w3.org/1999/xlink" x="0px"
	 y="0px" width="74.111px" height="36.308px" viewBox="0 0 74.111 36.308" enable-background="new 0 0 74.111 36.308"
	 xml:space="preserve">
<path fill="none" stroke="#000000" stroke-miterlimit="10" d="M41.835,2.908h25.026c3.728,0,6.749,3.022,6.749,6.749V29.06
	c0,3.727-3.021,6.749-6.749,6.749H7.249c-3.727,0-6.749-3.021-6.749-6.749V9.657c0-3.727,3.022-6.749,6.749-6.749h21.793"/>
<g>
	<path d="M12.169,25.347l0.461,0.119c-0.034,0.048-0.075,0.126-0.124,0.231c-0.115,0.244-0.201,0.41-0.259,0.5
		c0.049-0.012,0.615-0.026,1.699-0.045c0.135,0,0.232-0.013,0.293-0.04l0.242,0.236c-0.03,0.041-0.067,0.133-0.112,0.276
		c-0.244,0.821-0.62,1.525-1.125,2.114c-0.503,0.574-1.155,1.042-1.957,1.406c-0.075-0.135-0.169-0.246-0.281-0.332
		c0.424-0.172,0.793-0.371,1.108-0.599c0.314-0.227,0.607-0.502,0.877-0.824c0.442-0.536,0.765-1.165,0.968-1.884l-1.896,0.033
		c-0.349,0.563-0.797,1.05-1.345,1.463c-0.075-0.113-0.18-0.21-0.314-0.293c0.569-0.371,1.04-0.884,1.412-1.541
		C12.025,25.805,12.143,25.531,12.169,25.347z"/>
	<path d="M15.965,29.357v-0.472c0.161,0.022,0.379,0.034,0.653,0.034h3.188c0.273,0,0.491-0.012,0.652-0.034v0.472
		c-0.154-0.019-0.37-0.028-0.647-0.028h-3.199C16.338,29.329,16.124,29.338,15.965,29.357z M16.534,26.669v-0.456
		c0.149,0.022,0.351,0.034,0.602,0.034h2.148c0.251,0,0.452-0.012,0.602-0.034v0.456c-0.15-0.014-0.349-0.022-0.597-0.022h-2.159
		C16.882,26.647,16.683,26.655,16.534,26.669z"/>
</g>
<g>
	<path d="M52.687,25.347l0.461,0.119c-0.033,0.048-0.075,0.126-0.124,0.231c-0.116,0.244-0.202,0.41-0.259,0.5
		c0.049-0.012,0.615-0.026,1.698-0.045c0.135,0,0.232-0.013,0.293-0.04L55,26.349c-0.031,0.041-0.068,0.133-0.113,0.276
		c-0.244,0.821-0.618,1.525-1.124,2.114c-0.503,0.574-1.155,1.042-1.957,1.406c-0.075-0.135-0.169-0.246-0.281-0.332
		c0.424-0.172,0.793-0.371,1.108-0.599c0.315-0.227,0.607-0.502,0.877-0.824c0.442-0.536,0.766-1.165,0.968-1.884l-1.895,0.033
		c-0.348,0.563-0.796,1.05-1.345,1.463c-0.075-0.113-0.18-0.21-0.314-0.293c0.569-0.371,1.04-0.884,1.411-1.541
		C52.542,25.805,52.661,25.531,52.687,25.347z"/>
	<path d="M56.483,29.357v-0.472c0.161,0.022,0.379,0.034,0.652,0.034h3.189c0.273,0,0.49-0.012,0.652-0.034v0.472
		c-0.154-0.019-0.37-0.028-0.647-0.028H57.13C56.856,29.329,56.641,29.338,56.483,29.357z M57.051,26.669v-0.456
		c0.15,0.022,0.351,0.034,0.602,0.034h2.148c0.251,0,0.452-0.012,0.601-0.034v0.456c-0.15-0.014-0.348-0.022-0.596-0.022h-2.161
		C57.4,26.647,57.201,26.655,57.051,26.669z"/>
</g>
<g>
	<path d="M12.169,7.483l0.461,0.118c-0.034,0.049-0.075,0.126-0.124,0.23c-0.115,0.244-0.201,0.411-0.259,0.501
		c0.049-0.012,0.615-0.026,1.699-0.045c0.135,0,0.232-0.013,0.293-0.039l0.242,0.236c-0.03,0.041-0.067,0.133-0.112,0.275
		c-0.244,0.821-0.62,1.526-1.125,2.115c-0.503,0.574-1.155,1.043-1.957,1.406c-0.075-0.135-0.169-0.246-0.281-0.332
		c0.424-0.173,0.793-0.372,1.108-0.599c0.314-0.227,0.607-0.502,0.877-0.824c0.442-0.536,0.765-1.164,0.968-1.884l-1.896,0.034
		c-0.349,0.562-0.797,1.05-1.345,1.462c-0.075-0.112-0.18-0.21-0.314-0.293c0.569-0.371,1.04-0.884,1.412-1.541
		C12.025,7.94,12.143,7.667,12.169,7.483z"/>
	<path d="M15.965,11.493V11.02c0.161,0.022,0.379,0.035,0.653,0.035h3.188c0.273,0,0.491-0.012,0.652-0.035v0.473
		c-0.154-0.019-0.37-0.029-0.647-0.029h-3.199C16.338,11.464,16.124,11.474,15.965,11.493z M16.534,8.804V8.348
		c0.15,0.022,0.351,0.034,0.602,0.034h2.148c0.251,0,0.452-0.012,0.602-0.034v0.456c-0.15-0.015-0.349-0.022-0.597-0.022h-2.159
		C16.882,8.782,16.683,8.79,16.534,8.804z"/>
</g>
<g>
	<path d="M52.687,7.483l0.461,0.118c-0.033,0.049-0.075,0.126-0.124,0.23c-0.116,0.244-0.202,0.411-0.259,0.501
		c0.049-0.012,0.615-0.026,1.698-0.045c0.135,0,0.232-0.013,0.293-0.039L55,8.484c-0.031,0.041-0.068,0.133-0.113,0.275
		c-0.244,0.821-0.618,1.526-1.124,2.115c-0.503,0.574-1.155,1.043-1.957,1.406c-0.075-0.135-0.169-0.246-0.281-0.332
		c0.424-0.173,0.793-0.372,1.108-0.599s0.607-0.502,0.877-0.824c0.442-0.536,0.766-1.164,0.968-1.884l-1.895,0.034
		c-0.348,0.562-0.796,1.05-1.345,1.462c-0.075-0.112-0.18-0.21-0.314-0.293c0.569-0.371,1.04-0.884,1.411-1.541
		C52.542,7.94,52.661,7.667,52.687,7.483z"/>
	<path d="M56.483,11.493V11.02c0.161,0.022,0.379,0.035,0.652,0.035h3.189c0.273,0,0.49-0.012,0.652-0.035v0.473
		c-0.154-0.019-0.37-0.029-0.647-0.029H57.13C56.856,11.464,56.641,11.474,56.483,11.493z M57.051,8.804V8.348
		c0.15,0.022,0.351,0.034,0.602,0.034h2.148c0.251,0,0.452-0.012,0.601-0.034v0.456c-0.15-0.015-0.348-0.022-0.596-0.022h-2.161
		C57.4,8.782,57.201,8.79,57.051,8.804z"/>
</g>
<g>
	<g>
		<g>
			<g>
				
					<line fill="none" stroke="#000000" stroke-width="0.75" stroke-miterlimit="10" x1="22.433" y1="12.038" x2="27.37" y2="15.396"/>
				<g>
					<path d="M21.107,15.49c0.006-0.207,0.18-0.37,0.387-0.363l5.734,0.173l-2.268-5.27c-0.082-0.191,0.005-0.412,0.195-0.494
						s0.412,0.008,0.493,0.197l2.501,5.811c0.051,0.118,0.038,0.253-0.034,0.359s-0.193,0.167-0.321,0.164l-6.323-0.19
						c-0.074-0.003-0.143-0.026-0.199-0.065C21.169,15.742,21.103,15.623,21.107,15.49z"/>
				</g>
			</g>
		</g>
	</g>
</g>
<g>
	<g>
		<g>
			<g>
				
					<line fill="none" stroke="#000000" stroke-width="0.75" stroke-miterlimit="10" x1="49.288" y1="12.038" x2="44.351" y2="15.396"/>
				<g>
					<path d="M46.565,9.536c0.19,0.082,0.277,0.303,0.195,0.494l-2.268,5.27l5.734-0.173c0.207-0.006,0.381,0.156,0.387,0.363
						c0.006,0.207-0.159,0.38-0.364,0.387l-6.323,0.19c-0.128,0.003-0.249-0.058-0.321-0.164s-0.085-0.242-0.034-0.359l2.501-5.811
						c0.029-0.068,0.076-0.123,0.133-0.162C46.307,9.501,46.443,9.484,46.565,9.536z"/>
				</g>
			</g>
		</g>
	</g>
</g>
<g>
	<g>
		<g>
			<g>
				
					<line fill="none" stroke="#000000" stroke-width="0.75" stroke-miterlimit="10" x1="22.433" y1="26.515" x2="27.37" y2="23.158"/>
				<g>
					<path d="M25.156,29.017c-0.19-0.082-0.278-0.303-0.195-0.493l2.268-5.27l-5.734,0.172c-0.207,0.006-0.381-0.156-0.387-0.363
						c-0.006-0.207,0.159-0.38,0.364-0.387l6.323-0.19c0.128-0.003,0.249,0.058,0.321,0.164s0.085,0.242,0.034,0.359l-2.501,5.811
						c-0.03,0.068-0.077,0.123-0.134,0.162C25.413,29.052,25.278,29.069,25.156,29.017z"/>
				</g>
			</g>
		</g>
	</g>
</g>
<g>
	<g>
		<g>
			<g>
				
					<line fill="none" stroke="#000000" stroke-width="0.75" stroke-miterlimit="10" x1="49.288" y1="26.515" x2="44.351" y2="23.158"/>
				<g>
					<path d="M50.614,23.063c-0.006,0.207-0.18,0.37-0.387,0.363l-5.734-0.172l2.269,5.27c0.082,0.19-0.006,0.412-0.196,0.493
						c-0.189,0.082-0.411-0.008-0.493-0.196l-2.501-5.811c-0.051-0.118-0.038-0.253,0.034-0.359s0.193-0.167,0.321-0.164l6.323,0.19
						c0.074,0.003,0.143,0.026,0.199,0.065C50.551,22.811,50.618,22.93,50.614,23.063z"/>
				</g>
			</g>
		</g>
	</g>
</g>
<g>
	<path d="M30.219,2.902c0-0.359,0-0.445,0.02-0.742c-0.168,0.346-0.267,0.513-0.545,0.885c-0.111-0.192-0.111-0.192-0.247-0.341
		c0.457-0.532,0.798-1.138,1.076-1.912c0.124-0.34,0.18-0.569,0.21-0.792l0.421,0.105c-0.03,0.081-0.05,0.124-0.086,0.254
		c-0.161,0.495-0.248,0.73-0.465,1.207v3.403c0,0.303,0.007,0.495,0.031,0.718h-0.451c0.024-0.216,0.036-0.427,0.036-0.742V2.902z
		 M34.205,3.632C34.031,4.065,33.87,4.3,33.542,4.628c0.569,0.21,0.965,0.39,1.577,0.711l-0.29,0.321
		c-0.595-0.353-0.99-0.544-1.597-0.773c-0.551,0.402-1.194,0.625-2.178,0.755c-0.081-0.18-0.118-0.242-0.223-0.365
		c0.804-0.043,1.479-0.223,1.992-0.532c-0.439-0.143-0.805-0.235-1.374-0.347c0.334-0.315,0.465-0.464,0.688-0.767h-0.682
		c-0.24,0-0.389,0.006-0.513,0.031V3.261c0.117,0.025,0.241,0.031,0.488,0.031h0.935c0.136-0.235,0.191-0.346,0.247-0.526
		l0.409,0.111c-0.093,0.173-0.13,0.242-0.235,0.415h1.93c0.248,0,0.378-0.006,0.495-0.031v0.402
		c-0.123-0.025-0.271-0.031-0.513-0.031H34.205z M32.806,0.761c-0.501,0.056-0.879,0.093-1.355,0.118
		c-0.037-0.13-0.067-0.205-0.148-0.322c1.318-0.05,2.611-0.254,3.106-0.501l0.297,0.334c-0.638,0.173-0.903,0.229-1.535,0.328v0.606
		h1.485c0.272,0,0.402-0.006,0.545-0.031v0.396c-0.137-0.024-0.291-0.031-0.526-0.031h-1.262c0.532,0.47,1.206,0.835,1.911,1.021
		c-0.093,0.124-0.142,0.21-0.204,0.353c-0.885-0.322-1.262-0.563-1.967-1.268c0.012,0.111,0.018,0.247,0.018,0.333v0.297
		c0,0.13,0.007,0.229,0.02,0.303h-0.402c0.013-0.074,0.019-0.18,0.019-0.303V2.104c0-0.093,0.006-0.26,0.019-0.334
		c-0.378,0.421-0.601,0.613-1.021,0.879c-0.284,0.185-0.433,0.266-0.687,0.377c-0.08-0.143-0.136-0.205-0.254-0.316
		c0.65-0.241,1.2-0.582,1.702-1.052h-1.046c-0.254,0-0.402,0.006-0.538,0.031V1.293c0.143,0.025,0.278,0.031,0.544,0.031h1.281
		V0.761z M32.577,3.632c-0.16,0.223-0.284,0.372-0.482,0.588c0.427,0.093,0.749,0.173,1.07,0.278
		c0.353-0.297,0.464-0.458,0.619-0.866H32.577z"/>
	<path d="M36.053,1.07c0-0.297-0.013-0.513-0.037-0.761c0.204,0.025,0.39,0.031,0.724,0.031h3.7c0.328,0,0.507-0.006,0.736-0.031
		c-0.024,0.229-0.037,0.439-0.037,0.761v3.768c0,0.452,0.013,0.681,0.037,0.848h-0.434V5.309H36.45v0.377h-0.434
		c0.024-0.167,0.037-0.39,0.037-0.848V1.07z M36.45,4.956h4.293V0.693H36.45V4.956z M37.507,1.609c-0.266,0-0.414,0.006-0.582,0.031
		V1.244c0.174,0.031,0.31,0.037,0.582,0.037h2.185c0.277,0,0.444-0.012,0.606-0.037V1.64c-0.174-0.025-0.322-0.031-0.601-0.031
		h-0.953v0.959h0.762c0.277,0,0.401-0.006,0.557-0.031v0.39c-0.155-0.024-0.298-0.031-0.557-0.031h-0.762v1.132h1.039
		c0.254,0,0.434-0.012,0.606-0.037v0.408c-0.179-0.024-0.364-0.037-0.606-0.037h-2.357c-0.253,0-0.427,0.013-0.612,0.037V3.991
		c0.174,0.025,0.353,0.037,0.612,0.037h0.936V2.896h-0.663c-0.26,0-0.408,0.006-0.563,0.031v-0.39
		c0.154,0.025,0.278,0.031,0.563,0.031h0.663V1.609H37.507z M39.494,3.007c0.254,0.254,0.353,0.39,0.581,0.737l-0.291,0.186
		c-0.216-0.378-0.315-0.514-0.55-0.768L39.494,3.007z"/>
</g>
<g>
	<path fill-rule="evenodd" clip-rule="evenodd" d="M34.616,23.101c-0.344-0.447-0.671-0.873-0.997-1.297
		c-0.395,0.17-0.764,0.343-1.144,0.488c-0.665,0.255-1.349,0.455-2.039,0.63c-0.181,0.046-0.354,0.055-0.552,0.019
		c0.026-0.216,0.177-0.262,0.302-0.316c0.703-0.307,1.379-0.664,2.026-1.073c0.244-0.154,0.474-0.328,0.736-0.51
		c-0.186-0.614-0.715-0.984-1.015-1.549c0.127-0.121,0.255-0.243,0.354-0.336c0.242-0.014,0.389,0.061,0.502,0.206
		c0.163,0.208,0.323,0.416,0.486,0.624c0.097,0.123,0.194,0.245,0.302,0.38c0.092-0.04,0.18-0.052,0.228-0.101
		c0.471-0.479,0.978-0.926,1.386-1.499c-0.769-1.644-1.486-3.308-1.818-5.119c0.209-0.023,0.234,0.114,0.285,0.211
		c0.285,0.551,0.545,1.116,0.852,1.655c0.372,0.653,0.778,1.286,1.176,1.924c0.06,0.097,0.146,0.178,0.242,0.293
		c0.354-0.446,0.632-0.891,0.892-1.348c0.268-0.47,0.524-0.947,0.807-1.408c0.271-0.441,0.43-0.95,0.792-1.375
		c0.056,0.318-0.275,1.581-0.66,2.597c-0.316,0.837-0.636,1.673-1.088,2.422c0.123,0.427,1.104,1.52,1.573,1.747
		c0.351-0.44,0.709-0.889,1.067-1.336c0.289,0.038,0.491,0.156,0.627,0.433c-0.349,0.509-0.777,0.976-1.067,1.558
		c0.522,0.376,1.008,0.733,1.545,1.014c0.535,0.279,1.073,0.552,1.665,0.856c-0.261,0.11-0.478,0.091-0.685,0.037
		c-0.932-0.244-1.858-0.503-2.728-0.932c-0.116-0.059-0.246-0.089-0.396-0.142c-0.442,0.296-0.638,0.795-0.992,1.192
		c-0.292,0.029-0.497-0.126-0.662-0.393c0.169-0.505,0.688-0.797,0.825-1.31c-0.502-0.485-0.993-0.958-1.518-1.466
		c-0.492,0.469-0.991,0.946-1.515,1.446c-0.019,0.261,0.213,0.433,0.354,0.647c0.145,0.219,0.312,0.423,0.471,0.636
		C35.139,22.901,34.926,23.028,34.616,23.101z"/>
</g>
</svg>
