<?xml version="1.0" encoding="utf-8"?>
<!-- Generator: Adobe Illustrator 16.0.3, SVG Export Plug-In . SVG Version: 6.00 Build 0)  -->
<!DOCTYPE svg PUBLIC "-//W3C//DTD SVG 1.1//EN" "http://www.w3.org/Graphics/SVG/1.1/DTD/svg11.dtd">
<svg version="1.1" id="レイヤー_1" xmlns="http://www.w3.org/2000/svg" xmlns:xlink="http://www.w3.org/1999/xlink" x="0px"
	 y="0px" width="181.107px" height="38.576px" viewBox="0 0 181.107 38.576" enable-background="new 0 0 181.107 38.576"
	 xml:space="preserve">
<rect x="0.375" y="0.43" fill="#F9F9F9" stroke="#231815" stroke-width="0.75" stroke-miterlimit="10" width="37.797" height="14.206"/>
<rect x="0.375" y="14.636" fill="#F9F9F9" stroke="#231815" stroke-width="0.75" stroke-miterlimit="10" width="37.797" height="23.511"/>
<g>
	<path fill="#231815" d="M5.226,8.44c-0.328,0-0.527,0.008-0.792,0.031c0.024-0.256,0.032-0.416,0.032-0.76V6.257
		c0-0.367-0.008-0.584-0.032-0.799c0.168,0.023,0.4,0.031,0.784,0.031H8.32c0.392-0.52,0.64-0.943,0.871-1.494l0.552,0.207
		C9.392,4.81,9.199,5.09,8.88,5.489h0.239c0.393,0,0.632-0.008,0.792-0.031C9.887,5.673,9.879,5.874,9.879,6.257v1.432
		c0,0.384,0.008,0.592,0.032,0.783C9.639,8.448,9.407,8.44,9.119,8.44H7.36V9.2h2.526c0.353,0,0.6-0.017,0.808-0.049v0.561
		c-0.224-0.033-0.487-0.049-0.839-0.049H7.36v0.736c0,0.367,0.008,0.52,0.056,0.751h-0.6c0.04-0.208,0.048-0.36,0.048-0.751V9.663
		H4.482c-0.344,0-0.592,0.016-0.832,0.049V9.151C3.866,9.184,4.106,9.2,4.458,9.2h2.406V8.44H5.226z M5.298,5.458
		c-0.272-0.528-0.4-0.712-0.808-1.16l0.455-0.215c0.4,0.463,0.512,0.623,0.832,1.143L5.298,5.458z M6.864,5.913H4.962v0.8h1.902
		V5.913z M6.864,7.128H4.962v0.881h1.902V7.128z M7.137,5.298c-0.256-0.624-0.32-0.736-0.688-1.256l0.472-0.16
		C7.28,4.394,7.36,4.538,7.624,5.09L7.137,5.298z M9.383,6.713v-0.8H7.36v0.8H9.383z M9.383,8.009V7.128H7.36v0.881H9.383z"/>
	<path fill="#231815" d="M14.377,4.282c-0.04,0.048-0.048,0.057-0.104,0.128c-0.353,0.448-0.6,0.712-1.008,1.079
		c0.376,0.912,0.535,1.895,0.535,3.246c0,1.111-0.111,1.815-0.335,2.111c-0.145,0.176-0.32,0.248-0.624,0.248
		c-0.231,0-0.496-0.04-0.84-0.129c-0.008-0.207-0.023-0.335-0.08-0.543c0.368,0.128,0.68,0.199,0.904,0.199
		c0.119,0,0.216-0.063,0.271-0.168c0.144-0.264,0.216-0.902,0.216-1.814c0-0.455-0.016-0.791-0.048-1.135
		c-0.392,0.6-0.783,1.007-1.503,1.543c-0.08-0.184-0.168-0.32-0.28-0.424C12.25,8.12,12.714,7.64,13.17,6.872
		c-0.072-0.383-0.168-0.719-0.296-1.055c-0.368,0.287-0.64,0.472-1.128,0.752c-0.088-0.176-0.168-0.305-0.287-0.432
		c0.543-0.264,0.791-0.416,1.223-0.752c-0.239-0.464-0.432-0.72-0.768-1l0.424-0.312c0.024,0.032,0.08,0.104,0.28,0.336
		c0.144,0.185,0.312,0.424,0.439,0.647c0.424-0.392,0.728-0.768,0.88-1.104L14.377,4.282z M17.663,5.474
		c0.304,0,0.504-0.008,0.76-0.04c-0.024,0.216-0.032,0.415-0.032,0.76V7.64c0,0.377,0.008,0.584,0.032,0.793
		c-0.224-0.025-0.408-0.033-0.775-0.033H16.56v1.775c0.744-0.104,0.863-0.119,1.407-0.232c-0.191-0.423-0.264-0.566-0.504-0.982
		l0.448-0.152c0.432,0.736,0.6,1.104,0.959,2.096l-0.472,0.239c-0.119-0.399-0.176-0.56-0.271-0.792
		c-1.071,0.217-1.887,0.336-3.582,0.544c-0.152,0.017-0.264,0.032-0.432,0.071l-0.12-0.574c0.088,0.008,0.136,0.008,0.2,0.008
		c0.264,0,1.151-0.08,1.879-0.168V8.399h-0.976c-0.336,0-0.544,0.008-0.768,0.033c0.016-0.24,0.023-0.448,0.023-0.776V6.233
		c0-0.359-0.008-0.568-0.031-0.8c0.256,0.032,0.472,0.04,0.783,0.04h0.968V4.786c0-0.336-0.008-0.496-0.057-0.752h0.6
		c-0.039,0.225-0.056,0.408-0.056,0.744v0.695H17.663z M14.833,5.929v2.016h1.239V5.929H14.833z M16.56,7.944h1.344V5.929H16.56
		V7.944z"/>
	<path fill="#231815" d="M19.61,5.241c0.168,0.033,0.328,0.041,0.616,0.041h1.191c0.312,0,0.432-0.008,0.607-0.041v0.52
		c-0.168-0.023-0.272-0.031-0.552-0.031h-1.247c-0.28,0-0.433,0.008-0.616,0.031V5.241z M19.851,11.134
		c0.032-0.207,0.048-0.447,0.048-0.791V9.312c0-0.313-0.008-0.512-0.04-0.72c0.216,0.024,0.312,0.032,0.552,0.032h0.976
		c0.248,0,0.376-0.008,0.52-0.032c-0.024,0.2-0.024,0.296-0.024,0.672v1.056c0,0.279,0.009,0.463,0.032,0.646h-0.464v-0.295h-1.104
		v0.463H19.851z M19.866,4.138c0.184,0.033,0.32,0.041,0.584,0.041h0.839c0.265,0,0.393-0.008,0.584-0.041v0.504
		c-0.199-0.023-0.336-0.031-0.584-0.031H20.45c-0.24,0-0.416,0.008-0.584,0.031V4.138z M19.906,6.377
		c0.16,0.024,0.288,0.032,0.552,0.032h0.888c0.264,0,0.376-0.008,0.535-0.032v0.487c-0.207-0.023-0.304-0.031-0.535-0.031h-0.888
		c-0.248,0-0.368,0.008-0.552,0.031V6.377z M19.906,7.473c0.152,0.024,0.28,0.032,0.552,0.032h0.88c0.264,0,0.384-0.008,0.543-0.032
		v0.495c-0.184-0.023-0.287-0.031-0.543-0.031H20.45c-0.248,0-0.376,0.008-0.544,0.031V7.473z M20.338,10.255h1.111V9.023h-1.111
		V10.255z M22.889,6.793c-0.359,0-0.527,0.008-0.752,0.048V6.353c0.232,0.041,0.393,0.049,0.752,0.049h0.464V5.81H23.08
		c-0.287,0-0.472,0.008-0.655,0.039V5.401c0.184,0.024,0.352,0.032,0.655,0.032h0.272V4.905h-0.439c-0.296,0-0.488,0.009-0.68,0.041
		v-0.48c0.176,0.041,0.352,0.049,0.688,0.049h0.432c0-0.313-0.017-0.465-0.048-0.624h0.527c-0.032,0.151-0.048,0.304-0.048,0.624H25
		c0-0.385-0.009-0.473-0.049-0.624h0.528c-0.032,0.184-0.048,0.352-0.048,0.624h0.535c0.32,0,0.488-0.008,0.68-0.049v0.48
		c-0.208-0.032-0.392-0.041-0.68-0.041h-0.535v0.528h0.367c0.304,0,0.456-0.008,0.656-0.032v0.447
		c-0.192-0.031-0.368-0.039-0.656-0.039h-0.367v0.592h0.615c0.368,0,0.52-0.008,0.744-0.049v0.488
		c-0.225-0.04-0.393-0.048-0.744-0.048h-1.432v0.512h0.944c0.279,0,0.615-0.017,0.775-0.04c-0.024,0.128-0.024,0.199-0.032,0.264
		c0,0.128,0,0.128-0.008,0.552v1.279c0.256,0,0.359-0.008,0.52-0.04v0.472c-0.176-0.024-0.288-0.032-0.52-0.04v0.648
		c0,0.487-0.16,0.607-0.768,0.607c-0.232,0-0.536-0.008-0.792-0.032c-0.016-0.176-0.031-0.256-0.088-0.456
		c0.344,0.049,0.592,0.064,0.912,0.064c0.231,0,0.287-0.04,0.287-0.225V9.751h-2.854v0.488c0,0.512,0.009,0.647,0.032,0.879h-0.512
		c0.024-0.24,0.032-0.471,0.032-0.879V9.751c-0.176,0-0.304,0.016-0.424,0.04V9.319c0.12,0.023,0.231,0.04,0.424,0.04V8.056
		c0-0.312-0.008-0.52-0.032-0.775c0.224,0.016,0.432,0.024,0.88,0.024h0.8V6.793H22.889z M24.192,7.688h-1.2v0.631h1.2V7.688z
		 M24.192,8.696h-1.2v0.663h1.2V8.696z M25,5.434V4.905h-1.216v0.528H25z M25,6.401V5.81h-1.216v0.592H25z M25.847,8.319V7.688
		h-1.231v0.631H25.847z M25.847,9.359V8.696h-1.231v0.663H25.847z"/>
	<path fill="#231815" d="M29.098,4.978c-0.432,0.104-0.632,0.152-1.199,0.256c-0.032-0.16-0.096-0.287-0.224-0.455
		c0.959-0.129,1.734-0.32,2.438-0.6c0.216-0.08,0.367-0.16,0.479-0.24l0.344,0.424c-0.056,0.016-0.072,0.023-0.184,0.072
		c-0.4,0.16-0.8,0.303-1.168,0.407v1.224h0.608c0.336,0,0.512-0.008,0.695-0.04v0.528c-0.2-0.033-0.384-0.041-0.695-0.041h-0.584
		c0.096,0.24,0.168,0.376,0.336,0.632c0.304,0.456,0.535,0.728,0.968,1.096c-0.128,0.12-0.2,0.2-0.328,0.407
		c-0.479-0.512-0.768-0.943-1.04-1.574c0.024,0.432,0.024,0.432,0.04,1.359v1.711c0,0.487,0.009,0.743,0.049,0.975h-0.592
		c0.031-0.24,0.048-0.479,0.048-0.975V8.479c0-0.295,0.016-0.879,0.04-1.318c-0.176,0.583-0.344,0.975-0.64,1.479
		c-0.216,0.368-0.392,0.607-0.728,0.984c-0.112-0.185-0.208-0.305-0.336-0.433c0.735-0.72,1.224-1.56,1.575-2.679H28.41
		c-0.312,0-0.52,0.016-0.76,0.049V6.017c0.224,0.033,0.424,0.049,0.76,0.049h0.688V4.978z M31.744,10.862H31.2
		c0.024-0.231,0.04-0.496,0.04-0.928V5.489c0-0.367-0.016-0.607-0.04-0.848c0.24,0.032,0.408,0.041,0.752,0.041h1.727
		c0.345,0,0.544-0.009,0.76-0.041c-0.032,0.225-0.04,0.465-0.04,0.848V9.88c0,0.415,0.017,0.751,0.048,0.982h-0.56v-0.567h-2.143
		V10.862z M31.744,9.823h2.143V5.161h-2.143V9.823z"/>
</g>
<g>
	<path fill="#231815" d="M44.384,6.042c-0.024,0.145-0.024,0.145-0.032,0.561c-0.023,1.334-0.248,2.127-0.791,2.814
		c-0.488,0.615-1.08,1.015-2.047,1.383c-0.12-0.256-0.176-0.336-0.368-0.535c0.647-0.193,1.048-0.393,1.463-0.736
		c0.848-0.68,1.159-1.495,1.159-3.055c0-0.224-0.008-0.279-0.031-0.432H44.384z M47.542,5.034c-0.08,0.104-0.096,0.129-0.192,0.32
		c-0.551,1.072-1.295,1.799-2.334,2.279c-0.12-0.2-0.185-0.272-0.392-0.456c0.56-0.216,0.887-0.407,1.263-0.76
		c0.368-0.344,0.664-0.735,0.896-1.191h-4.541c-0.44,0-0.647,0.009-0.943,0.04V4.651c0.271,0.039,0.495,0.056,0.951,0.056h4.294
		c0.535,0,0.535,0,0.68-0.056L47.542,5.034z"/>
	<path fill="#231815" d="M54.455,4.595c-0.104,0.152-0.137,0.225-0.248,0.488c-0.52,1.223-0.768,1.711-1.176,2.334
		c0.688,0.568,1.199,1.057,1.839,1.72l-0.447,0.495c-0.424-0.543-0.936-1.055-1.743-1.734c-0.84,1.15-1.815,1.99-3.215,2.782
		c-0.144-0.239-0.207-0.312-0.415-0.479c1.279-0.624,2.303-1.487,3.182-2.671c-0.728-0.583-1.479-1.079-2.15-1.447l0.399-0.423
		c0.784,0.471,1.184,0.734,2.079,1.391c0.376-0.592,0.664-1.168,0.943-1.863c0.2-0.488,0.24-0.615,0.28-0.848L54.455,4.595z"/>
	<path fill="#231815" d="M58.793,4.38c-0.024,0.191-0.032,0.295-0.032,0.663v2.151c0,0.383,0.008,0.471,0.032,0.663h-0.664
		c0.024-0.185,0.032-0.353,0.032-0.672V5.051c0-0.344-0.008-0.479-0.032-0.671H58.793z M62.335,4.38
		c-0.032,0.184-0.04,0.311-0.04,0.695v0.943c0,1.271-0.057,1.975-0.2,2.438c-0.231,0.751-0.735,1.335-1.52,1.774
		c-0.392,0.225-0.775,0.377-1.455,0.576c-0.088-0.232-0.136-0.313-0.336-0.552c0.72-0.159,1.104-0.296,1.52-0.544
		c0.743-0.432,1.128-0.943,1.279-1.688c0.088-0.455,0.112-0.822,0.112-2.038V5.083c0-0.416-0.008-0.527-0.032-0.703H62.335z"/>
	<path fill="#231815" d="M67.68,5.722c0.032-0.407,0.049-0.847,0.049-1.199c0-0.184-0.009-0.271-0.032-0.415l0.647,0.017
		c-0.032,0.184-0.032,0.184-0.064,1.031c-0.016,0.248-0.016,0.344-0.039,0.566l1.998-0.008c0.36,0,0.368-0.008,0.528-0.055
		l0.296,0.256c-0.048,0.119-0.057,0.191-0.064,0.479c-0.023,1.04-0.12,2.247-0.224,2.799c-0.2,1.096-0.439,1.383-1.159,1.383
		c-0.256,0-0.568-0.039-0.991-0.135c0-0.049,0-0.072,0-0.097c0-0.184-0.017-0.296-0.089-0.503c0.433,0.143,0.768,0.207,1.032,0.207
		c0.392,0,0.52-0.191,0.671-0.983c0.12-0.632,0.192-1.655,0.2-2.839L68.2,6.233c-0.104,1.023-0.288,1.688-0.64,2.359
		c-0.448,0.824-1.191,1.575-2.096,2.119c-0.144-0.232-0.207-0.296-0.407-0.473c0.951-0.503,1.639-1.207,2.079-2.102
		c0.271-0.561,0.392-1.008,0.495-1.904l-1.455,0.009c-0.472,0-0.56,0-0.848,0.04l-0.008-0.607c0.272,0.047,0.464,0.056,0.863,0.056
		L67.68,5.722z"/>
	<path fill="#231815" d="M73.873,10.128c0,0.504,0.008,0.736,0.032,1.016h-0.56c0.031-0.271,0.048-0.552,0.048-1.008V7.681
		c0-0.344,0-0.344,0.023-1.223c-0.216,0.464-0.432,0.832-0.728,1.223c-0.088-0.168-0.168-0.271-0.327-0.432
		c0.623-0.743,1.079-1.559,1.415-2.542c0.128-0.376,0.191-0.624,0.216-0.839l0.52,0.167c-0.04,0.097-0.063,0.151-0.136,0.399
		c-0.168,0.52-0.256,0.76-0.504,1.313V10.128z M75.648,9.585c-0.313,0.688-0.568,1.047-1.088,1.559
		c-0.16-0.184-0.224-0.248-0.392-0.359c0.527-0.44,0.768-0.76,1.048-1.4L75.648,9.585z M75.353,9.152
		c-0.296,0-0.479,0.009-0.656,0.024c0.017-0.191,0.024-0.408,0.024-0.832V4.938c0-0.271-0.008-0.551-0.024-0.727
		c0.177,0.016,0.313,0.023,0.616,0.023h1.144c0.271,0,0.464-0.008,0.631-0.023c-0.023,0.207-0.031,0.455-0.031,0.807v3.383
		c0,0.352,0.008,0.575,0.023,0.775c-0.312-0.024-0.432-0.024-0.703-0.024H75.353z M75.185,5.714h1.407V4.675h-1.407V5.714z
		 M75.185,7.194h1.407V6.138h-1.407V7.194z M75.185,8.713h1.407V7.617h-1.407V8.713z M76.504,9.384
		c0.287,0.536,0.535,0.848,1.031,1.288c-0.16,0.112-0.248,0.184-0.399,0.36c-0.472-0.504-0.704-0.824-1.048-1.424L76.504,9.384z
		 M77.727,9.249c0.04-0.225,0.049-0.432,0.049-0.84v-3.11c0-0.384-0.009-0.608-0.04-0.84h0.583c-0.04,0.224-0.048,0.433-0.048,0.84
		v3.11c0,0.399,0.008,0.639,0.04,0.84H77.727z M79.638,4.075c-0.032,0.216-0.048,0.496-0.048,0.936v5.413
		c0,0.495-0.168,0.608-0.943,0.608c-0.16,0-0.399-0.009-0.615-0.017c-0.032-0.239-0.057-0.336-0.128-0.504
		c0.392,0.048,0.583,0.063,0.799,0.063c0.328,0,0.392-0.031,0.392-0.207V5.011c0-0.424-0.016-0.672-0.048-0.936H79.638z"/>
	<path fill="#231815" d="M87.23,11.199c-0.6-0.688-0.848-1.071-1.111-1.719c-0.265-0.64-0.384-1.271-0.384-1.968
		c0-0.695,0.119-1.326,0.384-1.967c0.264-0.646,0.512-1.031,1.111-1.719h0.711c-0.671,0.68-0.936,1.039-1.215,1.655
		c-0.288,0.64-0.432,1.304-0.432,2.03c0,0.729,0.144,1.393,0.432,2.031c0.279,0.616,0.544,0.977,1.215,1.655H87.23z"/>
	<path fill="#231815" d="M89.514,4.923c-0.32,0-0.584,0.016-0.824,0.048V4.403c0.216,0.031,0.488,0.048,0.832,0.048h5.445
		c0.344,0,0.607-0.017,0.831-0.048v0.567c-0.24-0.032-0.504-0.048-0.823-0.048h-1.848v1.199h1.239c0.424,0,0.656-0.008,0.952-0.04
		c-0.032,0.304-0.048,0.56-0.048,0.983v3.078c0,0.48,0.016,0.736,0.048,0.951h-0.552v-0.566h-5.054v0.566h-0.552
		c0.04-0.264,0.048-0.486,0.048-0.967V7.065c0-0.375-0.016-0.68-0.048-0.983c0.248,0.032,0.536,0.04,0.936,0.04h1.111
		c0.009-0.279,0.017-0.447,0.017-0.711V4.923H89.514z M89.713,6.586v3.462h5.046V6.586h-1.632v1.455
		c0,0.168,0.057,0.192,0.393,0.192c0.439,0,0.52-0.016,0.56-0.137c0.031-0.072,0.04-0.239,0.04-0.592
		c0.168,0.088,0.287,0.129,0.439,0.152c-0.032,0.52-0.056,0.672-0.136,0.8c-0.112,0.176-0.328,0.231-0.896,0.231
		c-0.712,0-0.88-0.096-0.88-0.496V6.586h-0.983c-0.072,0.808-0.168,1.175-0.439,1.64c-0.24,0.415-0.488,0.646-1.023,0.967
		c-0.12-0.184-0.2-0.264-0.368-0.392c0.504-0.265,0.768-0.487,0.976-0.831c0.216-0.368,0.312-0.736,0.368-1.384H89.713z
		 M91.712,5.395c0,0.288-0.008,0.456-0.016,0.728h0.951V4.923h-0.936V5.395z"/>
	<path fill="#231815" d="M97.873,10.128c0,0.504,0.008,0.736,0.032,1.016h-0.56c0.031-0.271,0.048-0.552,0.048-1.008V7.681
		c0-0.344,0-0.344,0.023-1.223c-0.216,0.464-0.432,0.832-0.728,1.223c-0.088-0.168-0.168-0.271-0.327-0.432
		c0.623-0.743,1.079-1.559,1.415-2.542c0.128-0.376,0.191-0.624,0.216-0.839l0.52,0.167c-0.04,0.097-0.063,0.151-0.136,0.399
		c-0.168,0.52-0.256,0.76-0.504,1.313V10.128z M99.648,9.585c-0.313,0.688-0.568,1.047-1.088,1.559
		c-0.16-0.184-0.224-0.248-0.392-0.359c0.527-0.44,0.768-0.76,1.048-1.4L99.648,9.585z M99.353,9.152
		c-0.296,0-0.479,0.009-0.656,0.024c0.017-0.191,0.024-0.408,0.024-0.832V4.938c0-0.271-0.008-0.551-0.024-0.727
		c0.177,0.016,0.313,0.023,0.616,0.023h1.144c0.271,0,0.464-0.008,0.631-0.023c-0.023,0.207-0.031,0.455-0.031,0.807v3.383
		c0,0.352,0.008,0.575,0.023,0.775c-0.312-0.024-0.432-0.024-0.703-0.024H99.353z M99.185,5.714h1.407V4.675h-1.407V5.714z
		 M99.185,7.194h1.407V6.138h-1.407V7.194z M99.185,8.713h1.407V7.617h-1.407V8.713z M100.504,9.384
		c0.287,0.536,0.535,0.848,1.031,1.288c-0.16,0.112-0.248,0.184-0.399,0.36c-0.472-0.504-0.704-0.824-1.048-1.424L100.504,9.384z
		 M101.727,9.249c0.04-0.225,0.049-0.432,0.049-0.84v-3.11c0-0.384-0.009-0.608-0.04-0.84h0.583c-0.04,0.224-0.048,0.433-0.048,0.84
		v3.11c0,0.399,0.008,0.639,0.04,0.84H101.727z M103.638,4.075c-0.032,0.216-0.048,0.496-0.048,0.936v5.413
		c0,0.495-0.168,0.608-0.943,0.608c-0.16,0-0.399-0.009-0.615-0.017c-0.032-0.239-0.057-0.336-0.128-0.504
		c0.392,0.048,0.583,0.063,0.799,0.063c0.328,0,0.392-0.031,0.392-0.207V5.011c0-0.424-0.016-0.672-0.048-0.936H103.638z"/>
	<path fill="#231815" d="M104.97,4.851c0-0.248-0.008-0.479-0.032-0.727c0.136,0.016,0.32,0.023,0.576,0.023h0.808
		c0.271,0,0.447-0.008,0.575-0.023l0.264,0.311c-0.048,0.088-0.08,0.16-0.136,0.305c-0.216,0.592-0.384,0.975-0.743,1.679
		c0.287,0.36,0.399,0.552,0.503,0.855c0.12,0.319,0.185,0.712,0.185,1.071c0,0.439-0.136,0.72-0.4,0.824
		c-0.144,0.056-0.359,0.08-0.671,0.08c-0.032,0-0.072,0-0.12-0.008c-0.008-0.217-0.032-0.336-0.104-0.488
		c0.168,0.023,0.232,0.031,0.353,0.031c0.375,0,0.472-0.104,0.472-0.512c0-0.352-0.064-0.688-0.208-1.016
		c-0.12-0.295-0.232-0.463-0.528-0.791c0.376-0.695,0.568-1.151,0.808-1.879h-1.104v5.629c0,0.439,0.017,0.703,0.049,0.912h-0.592
		c0.031-0.225,0.048-0.496,0.048-0.912V4.851z M109.52,10.36c0,0.295,0.016,0.535,0.056,0.783h-0.576
		c0.04-0.256,0.057-0.504,0.057-0.783V9.912h-1.487c-0.328,0-0.616,0.017-0.832,0.048V9.425c0.192,0.031,0.44,0.047,0.76,0.047h1.56
		V8.729h-1.032c-0.479,0-0.551,0-0.751,0.031c0.023-0.184,0.032-0.304,0.032-0.688V6.458c0-0.359-0.009-0.488-0.032-0.664
		c0.208,0.024,0.472,0.041,0.768,0.041h1.016V5.171h-1.271c-0.24,0-0.504,0.016-0.655,0.048V4.683
		c0.199,0.032,0.432,0.049,0.671,0.049h1.256V4.636c0-0.297-0.017-0.521-0.048-0.752h0.56c-0.032,0.215-0.048,0.424-0.048,0.752
		v0.096h1.471c0.336,0,0.615-0.017,0.823-0.049v0.536c-0.208-0.032-0.487-0.048-0.799-0.048h-1.495v0.664h1.215
		c0.304,0,0.536-0.009,0.744-0.041c-0.024,0.168-0.032,0.28-0.032,0.744v1.398c0,0.504,0.008,0.616,0.032,0.816
		c-0.152-0.016-0.152-0.016-0.752-0.023h-1.207v0.742h1.606c0.32,0,0.6-0.016,0.792-0.047V9.96c-0.224-0.031-0.512-0.048-0.84-0.048
		h-1.559V10.36z M107.76,6.25v0.8h1.296v-0.8H107.76z M107.76,7.45v0.863h1.296V7.45H107.76z M110.967,7.05v-0.8h-1.447v0.8H110.967
		z M110.967,8.313V7.45h-1.447v0.863H110.967z"/>
	<path fill="#231815" d="M114.457,4.979c-0.185-0.353-0.32-0.553-0.607-0.896l0.479-0.136c0.296,0.384,0.439,0.608,0.663,1.032h1.12
		c-0.152-0.393-0.313-0.704-0.536-1.032l0.496-0.112c0.224,0.393,0.392,0.721,0.567,1.145h0.84c0.312-0.408,0.464-0.656,0.688-1.137
		l0.512,0.185c-0.256,0.424-0.392,0.632-0.64,0.952h0.647c0.424,0,0.632-0.009,0.888-0.033c-0.024,0.185-0.032,0.36-0.032,0.672
		v0.656c0,0.231,0.008,0.383,0.04,0.575h-0.544V5.411h-5.581V6.85h-0.535c0.023-0.184,0.04-0.376,0.04-0.567V5.618
		c0-0.279-0.009-0.424-0.032-0.672c0.264,0.024,0.479,0.033,0.88,0.033H114.457z M114.937,7.921c-0.496,0-0.615,0.008-0.855,0.032
		c0.024-0.192,0.032-0.344,0.032-0.64V6.618c0-0.28-0.008-0.447-0.032-0.6c0.24,0.023,0.456,0.031,0.775,0.031h2.774
		c0.32,0,0.528-0.008,0.768-0.031c-0.016,0.144-0.023,0.295-0.023,0.607v0.688c0,0.344,0.008,0.455,0.031,0.64
		c-0.287-0.024-0.455-0.032-0.855-0.032h-1.199c-0.111,0.271-0.248,0.536-0.384,0.783h2.287c0.352,0,0.544-0.008,0.76-0.031
		c-0.032,0.216-0.04,0.392-0.04,0.752v0.919c0,0.328,0.008,0.544,0.048,0.776h-0.544v-0.328h-4.478v0.319h-0.544
		c0.032-0.247,0.048-0.487,0.048-0.768V9.425c0-0.344-0.008-0.528-0.04-0.752c0.217,0.023,0.416,0.031,0.768,0.031h1.216
		c0.144-0.23,0.271-0.495,0.384-0.783H114.937z M114.001,10.344h4.478V9.145h-4.478V10.344z M114.601,7.505h3.286V6.466h-3.286
		V7.505z"/>
	<path fill="#231815" d="M120.554,11.199c0.672-0.671,0.936-1.039,1.216-1.655c0.287-0.639,0.432-1.303,0.432-2.031
		c0-0.727-0.145-1.391-0.432-2.03c-0.28-0.616-0.544-0.983-1.216-1.655h0.712c0.6,0.688,0.848,1.072,1.111,1.719
		c0.264,0.641,0.384,1.271,0.384,1.967c0,0.696-0.12,1.328-0.384,1.968c-0.264,0.647-0.512,1.031-1.111,1.719H120.554z"/>
	<path fill="#231815" d="M129.065,5.53c0.256,0.049,0.576,0.072,1,0.072c0.159,0,0.247,0,0.479-0.016
		c0.16-0.984,0.176-1.119,0.176-1.472l0.632,0.063c-0.048,0.192-0.048,0.192-0.145,0.76c-0.04,0.256-0.063,0.368-0.104,0.607
		c0.624-0.063,1.056-0.143,1.439-0.271l0.04,0.552c-0.064,0.009-0.064,0.009-0.225,0.04c-0.407,0.088-0.959,0.16-1.351,0.191
		c-0.12,0.633-0.344,1.535-0.56,2.264c-0.265,0.855-0.496,1.463-0.92,2.438l-0.584-0.248c0.592-1.031,1.208-2.854,1.504-4.421
		c-0.16,0.008-0.256,0.008-0.552,0.008c-0.28,0-0.353,0-0.664-0.017c-0.016,0-0.032,0-0.032,0c-0.016,0-0.063,0-0.136,0.009V5.53z
		 M132.64,8.433c-0.16,0.192-0.184,0.217-0.24,0.305c-0.128,0.168-0.199,0.375-0.199,0.566c0,0.48,0.487,0.736,1.398,0.736
		c0.601,0,1.312-0.111,1.768-0.271l0.056,0.6c-0.088,0.016-0.088,0.016-0.352,0.056c-0.536,0.097-1,0.136-1.423,0.136
		c-1.312,0-1.991-0.408-1.991-1.199c0-0.359,0.111-0.607,0.535-1.151L132.64,8.433z M135.11,7.05
		c-0.384-0.04-0.607-0.057-0.943-0.057c-0.712,0-1.271,0.072-1.999,0.272l-0.056-0.544c0.927-0.199,1.446-0.264,2.118-0.264
		c0.152,0,0.272,0,0.872,0.023L135.11,7.05z M133.823,4.243c0.392,0.455,0.527,0.656,0.783,1.111l-0.407,0.225
		c-0.225-0.432-0.44-0.744-0.768-1.12L133.823,4.243z M134.614,3.852c0.384,0.456,0.528,0.655,0.775,1.111l-0.399,0.224
		c-0.231-0.432-0.439-0.735-0.775-1.119L134.614,3.852z"/>
	<path fill="#231815" d="M138.433,4.388c-0.256,0.76-0.487,2.398-0.487,3.485c0,0.44,0.031,1.032,0.063,1.304
		c0.032,0.176,0.048,0.344,0.048,0.432c0.16-0.568,0.216-0.712,0.672-1.695l0.408,0.191c-0.232,0.473-0.432,0.969-0.592,1.4
		c-0.16,0.471-0.224,0.743-0.224,1.016l-0.552,0.047c-0.017-0.104-0.024-0.127-0.064-0.279c-0.2-0.752-0.296-1.527-0.296-2.367
		c0-0.943,0.072-1.599,0.32-3.078c0.056-0.328,0.063-0.408,0.071-0.552L138.433,4.388z M139.248,6.003
		c0.304,0.071,0.768,0.104,1.359,0.104c0.32,0,0.616-0.016,1.016-0.049c-0.04-1.391-0.056-1.623-0.096-1.862l0.615-0.009
		c-0.016,0.129-0.023,0.177-0.023,0.272c0,0.056,0,0.097,0.008,0.239c0.008,0.185,0.008,0.185,0.048,1.296
		c0.607-0.088,0.976-0.192,1.271-0.335l0.04,0.574c-0.168,0.033-0.185,0.033-0.424,0.097c-0.304,0.071-0.552,0.12-0.872,0.159
		c0.009,0.217,0.009,0.345,0.009,0.576c0,1.52-0.145,2.176-0.616,2.814c-0.296,0.393-0.64,0.672-1.255,1.031
		c-0.16-0.207-0.225-0.271-0.432-0.432c0.56-0.271,0.935-0.551,1.223-0.92c0.408-0.52,0.536-1.103,0.536-2.382
		c0-0.224,0-0.399-0.017-0.632c-0.352,0.032-0.815,0.048-1.167,0.048c-0.224,0-0.68-0.016-0.968-0.032
		c-0.071-0.008-0.111-0.008-0.144-0.008c-0.024,0-0.064,0-0.12,0.008L139.248,6.003z"/>
	<path fill="#231815" d="M147.36,4.155c0.032,0.535,0.328,1.848,0.6,2.646c0.472-0.191,0.695-0.279,1.935-0.711
		c0.28-0.104,0.353-0.129,0.512-0.209l0.24,0.607c-0.56,0.121-1.703,0.488-2.406,0.776c-1.367,0.544-1.959,1.071-1.959,1.735
		c0,0.727,0.615,1.008,2.183,1.008c0.919,0,1.814-0.104,2.286-0.272l0.064,0.663c-0.152,0-0.152,0-0.592,0.049
		c-0.823,0.08-1.207,0.104-1.767,0.104c-0.792,0-1.392-0.072-1.775-0.216c-0.655-0.239-0.991-0.68-0.991-1.312
		c0-0.512,0.239-0.975,0.711-1.359c0.305-0.248,0.552-0.399,1.048-0.647c-0.224-0.655-0.376-1.216-0.584-2.239
		c-0.071-0.336-0.088-0.375-0.136-0.503L147.36,4.155z"/>
	<path fill="#231815" d="M155.896,8.425c-0.464,1.056-0.936,1.535-1.512,1.535c-0.76,0-1.327-0.832-1.327-1.951
		c0-0.814,0.304-1.607,0.84-2.207c0.64-0.703,1.511-1.063,2.582-1.063c0.896,0,1.68,0.279,2.199,0.791
		c0.504,0.488,0.775,1.184,0.775,1.951c0,1.239-0.672,2.263-1.831,2.758c-0.359,0.152-0.664,0.248-1.215,0.369
		c-0.08-0.265-0.129-0.344-0.28-0.537c0.584-0.096,0.959-0.199,1.335-0.375c0.88-0.4,1.415-1.256,1.415-2.238
		c0-0.912-0.463-1.647-1.271-2.008c-0.296-0.127-0.528-0.184-0.928-0.199C156.56,6.362,156.256,7.585,155.896,8.425z M154.912,5.634
		c-0.807,0.488-1.303,1.393-1.303,2.383c0,0.768,0.336,1.359,0.768,1.359c0.336,0,0.655-0.375,0.999-1.158
		c0.328-0.752,0.624-1.936,0.728-2.959C155.624,5.299,155.28,5.411,154.912,5.634z"/>
	<path fill="#231815" d="M160.682,5.243c0.168,0.031,0.328,0.039,0.616,0.039h1.19c0.313,0,0.433-0.008,0.608-0.039v0.52
		c-0.168-0.024-0.272-0.032-0.552-0.032h-1.247c-0.28,0-0.433,0.008-0.616,0.032V5.243z M160.922,11.136
		c0.031-0.208,0.048-0.448,0.048-0.792V9.313c0-0.312-0.008-0.512-0.04-0.72c0.216,0.023,0.312,0.032,0.552,0.032h0.976
		c0.248,0,0.376-0.009,0.52-0.032c-0.024,0.199-0.024,0.296-0.024,0.672v1.055c0,0.28,0.009,0.465,0.032,0.648h-0.464v-0.296h-1.104
		v0.464H160.922z M160.938,4.14c0.184,0.031,0.32,0.039,0.584,0.039h0.84c0.264,0,0.392-0.008,0.583-0.039v0.504
		c-0.2-0.024-0.336-0.033-0.583-0.033h-0.84c-0.24,0-0.416,0.009-0.584,0.033V4.14z M160.978,6.378
		c0.16,0.023,0.288,0.032,0.552,0.032h0.888c0.264,0,0.376-0.009,0.535-0.032v0.488c-0.208-0.024-0.304-0.032-0.535-0.032h-0.888
		c-0.248,0-0.368,0.008-0.552,0.032V6.378z M160.978,7.474c0.152,0.023,0.28,0.031,0.552,0.031h0.88
		c0.264,0,0.384-0.008,0.543-0.031V7.97c-0.184-0.024-0.287-0.033-0.543-0.033h-0.888c-0.248,0-0.376,0.009-0.544,0.033V7.474z
		 M161.409,10.256h1.111V9.024h-1.111V10.256z M163.96,6.794c-0.359,0-0.527,0.008-0.752,0.048V6.354
		c0.232,0.039,0.393,0.047,0.752,0.047h0.464V5.811h-0.271c-0.288,0-0.473,0.008-0.656,0.04V5.403
		c0.184,0.023,0.352,0.031,0.656,0.031h0.271V4.907h-0.439c-0.296,0-0.488,0.008-0.68,0.039V4.468
		c0.176,0.039,0.352,0.047,0.688,0.047h0.432c0-0.312-0.016-0.463-0.048-0.623h0.527c-0.032,0.152-0.048,0.304-0.048,0.623h1.215
		c0-0.383-0.008-0.471-0.048-0.623h0.528c-0.032,0.184-0.048,0.352-0.048,0.623h0.535c0.32,0,0.488-0.008,0.68-0.047v0.479
		c-0.208-0.031-0.392-0.039-0.68-0.039h-0.535v0.527h0.367c0.304,0,0.456-0.008,0.656-0.031v0.447
		c-0.192-0.032-0.368-0.04-0.656-0.04h-0.367v0.591h0.615c0.368,0,0.52-0.008,0.743-0.047v0.487
		c-0.224-0.04-0.392-0.048-0.743-0.048h-1.431v0.512h0.943c0.279,0,0.615-0.016,0.775-0.04c-0.024,0.128-0.024,0.2-0.032,0.264
		c0,0.128,0,0.128-0.008,0.552V9.36c0.256,0,0.359-0.008,0.52-0.04v0.472c-0.176-0.023-0.288-0.031-0.52-0.039v0.646
		c0,0.488-0.16,0.607-0.768,0.607c-0.232,0-0.536-0.008-0.792-0.031c-0.016-0.176-0.031-0.256-0.088-0.455
		c0.344,0.047,0.592,0.063,0.912,0.063c0.231,0,0.287-0.039,0.287-0.223V9.753h-2.854v0.486c0,0.512,0.009,0.648,0.032,0.881h-0.512
		c0.024-0.24,0.032-0.473,0.032-0.881V9.753c-0.176,0-0.304,0.016-0.424,0.039V9.32c0.12,0.024,0.231,0.04,0.424,0.04V8.058
		c0-0.313-0.008-0.52-0.032-0.775c0.224,0.016,0.432,0.023,0.88,0.023h0.8V6.794H163.96z M165.264,7.689h-1.2v0.632h1.2V7.689z
		 M165.264,8.696h-1.2V9.36h1.2V8.696z M166.07,5.435V4.907h-1.215v0.527H166.07z M166.07,6.401V5.811h-1.215v0.591H166.07z
		 M166.918,8.321V7.689h-1.23v0.632H166.918z M166.918,9.36V8.696h-1.23V9.36H166.918z"/>
	<path fill="#231815" d="M170.169,4.979c-0.432,0.104-0.632,0.151-1.199,0.256c-0.032-0.16-0.096-0.289-0.224-0.457
		c0.959-0.127,1.734-0.319,2.438-0.6c0.216-0.08,0.367-0.159,0.479-0.239l0.344,0.424c-0.056,0.017-0.072,0.024-0.184,0.071
		c-0.4,0.16-0.8,0.305-1.168,0.408v1.224h0.608c0.336,0,0.512-0.009,0.695-0.04v0.527c-0.2-0.031-0.384-0.039-0.695-0.039h-0.584
		c0.096,0.239,0.168,0.375,0.336,0.631c0.304,0.456,0.535,0.728,0.968,1.096c-0.128,0.119-0.2,0.199-0.328,0.408
		c-0.479-0.512-0.768-0.943-1.039-1.576c0.023,0.432,0.023,0.432,0.039,1.359v1.711c0,0.488,0.009,0.744,0.049,0.977h-0.592
		c0.031-0.24,0.048-0.48,0.048-0.977V8.481c0-0.297,0.016-0.88,0.04-1.32c-0.176,0.584-0.344,0.977-0.64,1.479
		c-0.216,0.368-0.392,0.608-0.728,0.983c-0.112-0.184-0.208-0.304-0.336-0.432c0.735-0.719,1.223-1.559,1.575-2.678h-0.592
		c-0.312,0-0.52,0.016-0.76,0.047V6.019c0.224,0.031,0.424,0.048,0.76,0.048h0.688V4.979z M172.815,10.864h-0.544
		c0.024-0.232,0.04-0.496,0.04-0.928V5.491c0-0.369-0.016-0.608-0.04-0.848c0.24,0.031,0.408,0.039,0.752,0.039h1.727
		c0.344,0,0.544-0.008,0.76-0.039c-0.031,0.223-0.04,0.463-0.04,0.848V9.88c0,0.416,0.017,0.752,0.048,0.984h-0.56v-0.568h-2.143
		V10.864z M172.815,9.824h2.143V5.163h-2.143V9.824z"/>
</g>
<g>
	<path fill="#231815" d="M42.021,18.856c0.52,0.889,0.734,1.367,1.07,2.455L42.5,21.56c-0.248-0.936-0.6-1.768-1.047-2.479
		L42.021,18.856z M47.002,18.993c-0.08,0.207-0.08,0.207-0.207,0.76c-0.336,1.471-0.969,2.734-1.824,3.653
		c-0.607,0.647-1.254,1.12-2.135,1.552c-0.16-0.264-0.223-0.336-0.424-0.488c0.896-0.392,1.504-0.808,2.104-1.447
		c0.832-0.879,1.375-2.015,1.719-3.542c0.064-0.296,0.08-0.424,0.096-0.663L47.002,18.993z"/>
	<path fill="#231815" d="M48.693,21.167c0.201,0.033,0.32,0.041,0.625,0.041h0.414c0.24,0,0.408-0.008,0.617-0.041
		c-0.033,0.24-0.041,0.448-0.041,0.848v1.568c0.121,0.256,0.217,0.383,0.393,0.512c0.463,0.344,0.943,0.439,2.078,0.439
		c1.527,0,2.463-0.041,3.215-0.152c-0.121,0.287-0.137,0.313-0.184,0.584c-0.713,0.031-1.84,0.056-2.783,0.056
		c-1.328,0-1.807-0.08-2.318-0.376c-0.264-0.152-0.457-0.344-0.664-0.655c-0.359,0.36-0.561,0.527-0.943,0.823
		c-0.129,0.096-0.191,0.152-0.313,0.264l-0.264-0.527c0.352-0.16,0.84-0.52,1.287-0.959v-1.936h-0.527
		c-0.271,0-0.391,0.008-0.592,0.04V21.167z M49.174,18.146c0.52,0.479,0.775,0.768,1.287,1.406l-0.408,0.369
		c-0.463-0.664-0.703-0.952-1.246-1.455L49.174,18.146z M51.443,19.145c-0.375,0-0.59,0.009-0.75,0.04v-0.496
		c0.184,0.024,0.432,0.041,0.83,0.041h1.4c0-0.272-0.016-0.488-0.057-0.721h0.561c-0.041,0.232-0.057,0.44-0.057,0.721h1.551
		c0.393,0,0.648-0.017,0.832-0.041v0.496c-0.184-0.031-0.408-0.04-0.799-0.04h-1.584v0.632h1.336c0.264,0,0.416-0.008,0.623-0.031
		c-0.023,0.184-0.031,0.318-0.031,0.543v1.6c0,0.215,0.008,0.344,0.031,0.52c-0.191-0.024-0.383-0.032-0.623-0.032h-1.336v0.655
		h1.615c0.393,0,0.623-0.008,0.791-0.039v0.495c-0.176-0.032-0.424-0.04-0.799-0.04h-1.607v0.152c0,0.256,0.016,0.496,0.057,0.727
		h-0.561c0.041-0.23,0.057-0.471,0.057-0.727v-0.152h-1.408c-0.336,0-0.631,0.016-0.799,0.04v-0.495
		c0.176,0.031,0.4,0.039,0.799,0.039h1.408v-0.655h-1.207c-0.24,0-0.424,0.008-0.633,0.032c0.025-0.184,0.033-0.313,0.033-0.52
		v-1.615c0-0.209-0.008-0.336-0.033-0.527c0.184,0.023,0.369,0.031,0.625,0.031h1.215v-0.632H51.443z M51.58,20.177v0.68h1.344
		v-0.68H51.58z M51.58,21.239v0.736h1.344v-0.736H51.58z M53.371,20.856h1.463v-0.68h-1.463V20.856z M53.371,21.976h1.463v-0.736
		h-1.463V21.976z"/>
	<path fill="#231815" d="M60.924,21.599c0,0.36-0.297,0.656-0.656,0.656s-0.656-0.296-0.656-0.656c0-0.359,0.297-0.654,0.656-0.654
		S60.924,21.239,60.924,21.599z"/>
	<path fill="#231815" d="M67.939,18.801c0-0.392-0.016-0.583-0.055-0.831h0.639c-0.039,0.248-0.057,0.471-0.057,0.814v0.705h2.344
		c0.271,0,0.424-0.009,0.607-0.033c-0.031,0.209-0.039,0.377-0.039,0.633v2.182c0,0.264,0.016,0.473,0.047,0.712H70.85v-0.544
		h-2.383v1.863c0,0.456,0.01,0.656,0.057,0.912h-0.639c0.039-0.272,0.055-0.48,0.055-0.912v-1.863h-2.254v0.544h-0.576
		c0.031-0.231,0.049-0.456,0.049-0.712v-2.182c0-0.248-0.018-0.424-0.041-0.633c0.191,0.024,0.344,0.033,0.6,0.033h2.223V18.801z
		 M65.686,19.968v1.991h2.254v-1.991H65.686z M70.85,21.959v-1.991h-2.383v1.991H70.85z"/>
	<path fill="#231815" d="M73.861,20.328c-0.287,0-0.543,0.017-0.775,0.04v-0.496c0.207,0.032,0.432,0.049,0.775,0.049h4.861
		c0.336,0,0.551-0.017,0.768-0.049v0.496c-0.24-0.023-0.48-0.04-0.768-0.04h-0.287v0.808h0.695c0.352,0,0.584-0.016,0.799-0.049
		v0.521c-0.215-0.032-0.471-0.048-0.799-0.048h-0.695v0.903h0.287c0.303,0,0.543-0.017,0.768-0.04v0.496
		c-0.232-0.024-0.48-0.041-0.768-0.041h-2.256v0.76h2.496c0.336,0,0.607-0.016,0.822-0.047v0.527
		c-0.23-0.032-0.479-0.049-0.83-0.049h-2.488v0.433c0,0.304,0.018,0.544,0.057,0.8h-0.584c0.041-0.248,0.057-0.496,0.057-0.8v-0.433
		h-2.311c-0.328,0-0.592,0.017-0.824,0.049v-0.527c0.217,0.031,0.465,0.047,0.824,0.047h2.311v-0.76h-2.135
		c-0.359,0-0.561,0.009-0.775,0.041v-0.496c0.207,0.032,0.398,0.04,0.775,0.04h0.271V21.56h-0.695c-0.336,0-0.576,0.016-0.809,0.048
		v-0.521c0.217,0.033,0.465,0.049,0.809,0.049h0.695v-0.808H73.861z M78.93,18.713c0.408,0,0.68-0.017,0.896-0.048v0.52
		c-0.24-0.023-0.512-0.04-0.896-0.04h-1.238v0.04c0,0.208,0.008,0.328,0.031,0.496H77.18c0.023-0.168,0.031-0.296,0.031-0.536
		h-1.918c0,0.28,0.008,0.368,0.031,0.536h-0.551c0.023-0.176,0.031-0.296,0.031-0.496v-0.04h-1.119c-0.385,0-0.656,0.017-0.896,0.04
		v-0.52c0.217,0.031,0.488,0.048,0.896,0.048h1.119v-0.208c0-0.176-0.016-0.32-0.049-0.504h0.576
		c-0.031,0.192-0.039,0.32-0.039,0.504v0.208h1.918v-0.208c0-0.168-0.016-0.312-0.047-0.504h0.574
		c-0.039,0.192-0.047,0.32-0.047,0.504v0.208H78.93z M74.613,21.136h1.383v-0.808h-1.383V21.136z M74.613,22.463h1.383V21.56h-1.383
		V22.463z M76.467,21.136h1.488v-0.808h-1.488V21.136z M76.467,22.463h1.488V21.56h-1.488V22.463z"/>
	<path fill="#231815" d="M84.58,18.089c-0.025,0.137-0.041,0.456-0.041,0.712c0,0.472,0.08,1.288,0.176,1.735
		c0.137,0.64,0.568,1.583,1.031,2.238c0.32,0.448,0.752,0.904,1.184,1.264c0.256,0.216,0.465,0.352,0.928,0.623
		c-0.191,0.176-0.279,0.272-0.416,0.504c-0.975-0.663-1.551-1.223-2.119-2.047c-0.494-0.727-0.799-1.471-1.039-2.543
		c-0.143,0.76-0.279,1.191-0.551,1.783c-0.279,0.616-0.633,1.128-1.145,1.64c-0.447,0.464-0.775,0.728-1.471,1.167
		c-0.135-0.215-0.232-0.319-0.432-0.471c0.809-0.448,1.168-0.713,1.631-1.208c1.111-1.191,1.656-2.727,1.656-4.693
		c0-0.336-0.008-0.495-0.033-0.704H84.58z"/>
	<path fill="#231815" d="M92.811,20.56c0.049,0.496,0.072,0.68,0.186,1.128l1.822-0.024c0.463,0,0.648-0.016,0.848-0.056v0.552
		c-0.297-0.023-0.297-0.023-0.84-0.023l-1.703,0.016c0.217,0.672,0.553,1.255,1.016,1.75c0.313,0.336,0.703,0.608,0.871,0.608
		c0.184,0,0.305-0.353,0.377-1.151c0.199,0.168,0.271,0.208,0.479,0.304c-0.176,1.063-0.383,1.423-0.807,1.423
		c-0.439,0-1.088-0.487-1.607-1.215c-0.393-0.543-0.648-1.055-0.855-1.711l-2.352,0.031v2.127c0.84-0.184,1.52-0.375,2.391-0.672
		l0.018,0.496c-1.232,0.408-1.912,0.592-3.271,0.872c-0.191,0.04-0.352,0.079-0.439,0.112l-0.135-0.576
		c0.207-0.008,0.486-0.048,0.918-0.128v-5.117c0-0.392-0.008-0.6-0.031-0.903c0.256,0.031,0.504,0.039,0.936,0.039h3.559
		c0.352,0,0.582-0.008,0.83-0.039c-0.023,0.16-0.023,0.279-0.023,0.639v0.952c0,0.296,0.008,0.448,0.023,0.592
		c-0.238-0.017-0.471-0.024-0.791-0.024H92.811z M90.244,20.112h4.246v-1.215h-4.246V20.112z M90.244,20.56v1.16l2.232-0.024
		c-0.08-0.384-0.129-0.671-0.186-1.136H90.244z"/>
	<path fill="#231815" d="M98.668,18.913c0-0.368-0.016-0.624-0.055-0.824h0.623c-0.031,0.184-0.049,0.473-0.049,0.824v0.743h2.096
		v-0.728c0-0.424-0.016-0.647-0.049-0.832h0.633c-0.041,0.24-0.057,0.496-0.057,0.824v0.735h0.855c0.336,0,0.625-0.016,0.848-0.048
		v0.568c-0.199-0.024-0.463-0.041-0.848-0.041h-0.855v2.023h1.039c0.361,0,0.744-0.023,0.961-0.057v0.6
		c-0.24-0.031-0.6-0.055-0.961-0.055h-5.188c-0.344,0-0.689,0.023-0.928,0.055v-0.6c0.238,0.041,0.566,0.057,0.928,0.057h1.006
		v-2.023h-0.775c-0.367,0-0.592,0.008-0.807,0.041v-0.568c0.232,0.032,0.488,0.048,0.807,0.048h0.775V18.913z M99.523,23.318
		c-0.463,0.567-0.783,0.872-1.287,1.239c-0.344,0.248-0.615,0.4-1.096,0.623c-0.119-0.199-0.191-0.279-0.375-0.439
		c0.623-0.256,0.912-0.407,1.295-0.688c0.447-0.336,0.664-0.56,1.008-1.031L99.523,23.318z M101.283,22.159v-2.023h-2.096v2.023
		H101.283z M101.402,23.015c0.369,0.496,0.609,0.735,1.08,1.063c0.385,0.264,0.68,0.424,1.295,0.688
		c-0.16,0.136-0.256,0.256-0.375,0.464c-0.729-0.367-0.984-0.52-1.383-0.84c-0.432-0.359-0.672-0.592-1.064-1.063L101.402,23.015z"
		/>
	<path fill="#231815" d="M106.189,19.065c-0.432,0.104-0.633,0.151-1.199,0.256c-0.033-0.16-0.096-0.289-0.225-0.457
		c0.959-0.127,1.734-0.319,2.439-0.6c0.215-0.08,0.367-0.159,0.479-0.239l0.344,0.424c-0.055,0.017-0.072,0.024-0.184,0.071
		c-0.4,0.16-0.799,0.305-1.168,0.408v1.224h0.609c0.336,0,0.512-0.009,0.695-0.04v0.527c-0.201-0.031-0.385-0.039-0.695-0.039
		h-0.584c0.096,0.239,0.168,0.375,0.336,0.631c0.303,0.456,0.535,0.728,0.967,1.096c-0.127,0.119-0.199,0.199-0.328,0.408
		c-0.479-0.512-0.768-0.943-1.039-1.576c0.023,0.432,0.023,0.432,0.039,1.359v1.711c0,0.488,0.01,0.744,0.049,0.977h-0.592
		c0.031-0.24,0.049-0.48,0.049-0.977v-1.662c0-0.297,0.016-0.88,0.039-1.32c-0.176,0.584-0.344,0.977-0.639,1.479
		c-0.217,0.368-0.393,0.608-0.729,0.983c-0.111-0.184-0.207-0.304-0.336-0.432c0.736-0.719,1.223-1.559,1.576-2.678h-0.592
		c-0.313,0-0.52,0.016-0.76,0.047v-0.543c0.223,0.031,0.424,0.048,0.76,0.048h0.688V19.065z M108.836,24.95h-0.545
		c0.025-0.232,0.041-0.496,0.041-0.928v-4.445c0-0.369-0.016-0.608-0.041-0.848c0.24,0.031,0.408,0.039,0.752,0.039h1.727
		c0.344,0,0.545-0.008,0.76-0.039c-0.031,0.223-0.039,0.463-0.039,0.848v4.389c0,0.416,0.016,0.752,0.047,0.984h-0.559v-0.568
		h-2.143V24.95z M108.836,23.91h2.143v-4.661h-2.143V23.91z"/>
	<path fill="#231815" d="M112.973,19.28c0-0.383-0.016-0.663-0.047-0.982c0.264,0.031,0.504,0.039,0.936,0.039h4.781
		c0.424,0,0.656-0.008,0.951-0.039c-0.031,0.295-0.047,0.566-0.047,0.982v4.869c0,0.584,0.016,0.88,0.047,1.096h-0.559v-0.487
		h-5.551v0.487h-0.559c0.031-0.216,0.047-0.504,0.047-1.096V19.28z M113.484,24.302h5.551v-5.509h-5.551V24.302z M114.854,19.976
		c-0.346,0-0.537,0.009-0.752,0.041v-0.512c0.223,0.039,0.398,0.047,0.752,0.047h2.822c0.359,0,0.574-0.016,0.783-0.047v0.512
		c-0.225-0.032-0.416-0.041-0.775-0.041h-1.232v1.24h0.984c0.359,0,0.52-0.008,0.719-0.04v0.503
		c-0.199-0.031-0.383-0.039-0.719-0.039h-0.984v1.463h1.344c0.328,0,0.561-0.016,0.783-0.048v0.528
		c-0.232-0.033-0.471-0.049-0.783-0.049h-3.047c-0.328,0-0.551,0.016-0.791,0.049v-0.528c0.225,0.032,0.455,0.048,0.791,0.048h1.207
		V21.64H115.1c-0.336,0-0.527,0.008-0.727,0.039v-0.503c0.199,0.032,0.359,0.04,0.727,0.04h0.855v-1.24H114.854z M117.42,21.783
		c0.326,0.327,0.455,0.504,0.75,0.952l-0.375,0.239c-0.279-0.487-0.408-0.663-0.711-0.991L117.42,21.783z"/>
	<path fill="#231815" d="M123.541,18.241c-0.057,0.152-0.064,0.184-0.129,0.512c-0.057,0.271-0.104,0.464-0.215,0.871
		c0.559-0.047,1.063-0.144,1.43-0.264l0.025,0.552c-0.088,0.017-0.088,0.017-0.281,0.048c-0.328,0.072-0.822,0.137-1.311,0.168
		c-0.248,0.855-0.535,1.6-0.887,2.335c-0.193,0.384-0.266,0.52-0.568,1.048c-0.072,0.111-0.121,0.207-0.16,0.271l-0.543-0.32
		c0.256-0.319,0.471-0.672,0.768-1.247c0.367-0.728,0.6-1.304,0.83-2.063c-0.199,0.008-0.471,0.016-0.592,0.016
		c-0.135,0-0.406-0.008-0.527-0.008c-0.088-0.008-0.152-0.008-0.176-0.008c-0.016,0-0.055,0-0.104,0l0.008-0.552
		c0.271,0.048,0.512,0.064,0.951,0.064c0.16,0,0.424-0.009,0.576-0.009c0.127-0.456,0.256-1.136,0.271-1.503L123.541,18.241z
		 M127.338,24.446c-0.313-0.385-0.814-0.784-1.398-1.088c0.016,0.128,0.016,0.176,0.016,0.256c0,0.824-0.543,1.279-1.52,1.279
		c-0.959,0-1.559-0.447-1.559-1.159c0-0.433,0.295-0.831,0.744-1.016c0.279-0.12,0.582-0.176,0.943-0.176
		c0.295,0,0.494,0.032,0.807,0.12c-0.039-0.52-0.057-0.896-0.057-1.096c0-0.287,0.018-0.48,0.08-0.775l0.545,0.056
		c-0.08,0.296-0.105,0.464-0.105,0.743c0,0.36,0.041,0.912,0.09,1.216c0.639,0.28,1.135,0.583,1.566,0.968
		c0.088,0.088,0.088,0.088,0.145,0.127L127.338,24.446z M124.523,23.015c-0.68,0-1.111,0.279-1.111,0.72
		c0,0.407,0.385,0.655,1.016,0.655c0.688,0,1-0.271,1-0.871c0-0.096-0.016-0.344-0.016-0.344
		C125.076,23.055,124.844,23.015,124.523,23.015z M127.33,20.84c-0.672-0.464-1.279-0.784-2.119-1.087l0.297-0.448
		c0.928,0.368,1.463,0.64,2.109,1.056L127.33,20.84z"/>
	<path fill="#231815" d="M131.355,18.298c0.033,0.535,0.328,1.838,0.6,2.646c0.473-0.201,0.697-0.28,1.936-0.713
		c0.279-0.104,0.352-0.127,0.512-0.215l0.24,0.607c-0.561,0.128-1.703,0.496-2.406,0.775c-1.367,0.552-1.959,1.08-1.959,1.743
		c0,0.72,0.615,1.007,2.182,1.007c0.92,0,1.816-0.104,2.287-0.271l0.064,0.664c-0.152,0-0.152,0-0.592,0.048
		c-0.824,0.079-1.207,0.104-1.768,0.104c-0.791,0-1.391-0.072-1.775-0.217c-0.654-0.24-0.99-0.68-0.99-1.311
		c0-0.512,0.24-0.977,0.711-1.359c0.305-0.248,0.553-0.408,1.047-0.656c-0.223-0.647-0.375-1.207-0.582-2.23
		c-0.072-0.336-0.088-0.384-0.137-0.512L131.355,18.298z M133.795,18.298c0.328,0.424,0.473,0.646,0.744,1.158l-0.424,0.2
		c-0.225-0.464-0.488-0.888-0.736-1.175L133.795,18.298z M134.611,17.962c0.279,0.336,0.463,0.631,0.742,1.158l-0.424,0.201
		c-0.238-0.496-0.463-0.855-0.734-1.176L134.611,17.962z"/>
	<path fill="#231815" d="M139.172,19.257c0.264-0.561,0.359-0.84,0.385-1.096l0.639,0.111c-0.072,0.104-0.072,0.104-0.207,0.433
		c-0.104,0.256-0.209,0.472-0.248,0.544c0.096-0.008,0.096-0.008,0.168-0.008c1.279-0.064,2.078-0.16,2.518-0.305l0.049,0.544
		c-0.129,0.009-0.176,0.017-0.32,0.04c-0.832,0.111-1.67,0.176-2.639,0.208c-0.24,0.472-0.439,0.792-0.719,1.136
		c-0.08,0.096-0.24,0.279-0.271,0.303c-0.057,0.041-0.096,0.072-0.105,0.08c0,0.008-0.008,0.008-0.008,0.008
		c0,0.009,0,0.009,0,0.009c0.008,0.017,0.008,0.017,0.018,0.024c0.287-0.225,0.287-0.225,0.367-0.28
		c0.367-0.256,0.791-0.392,1.207-0.392c0.592,0,0.951,0.295,1.055,0.887c0.584-0.231,1.041-0.399,1.393-0.527
		c0.391-0.136,0.416-0.145,0.543-0.232l0.256,0.561c-0.416,0.072-1.135,0.312-2.135,0.703c0.016,0.208,0.016,0.288,0.016,0.488
		c0,0.104,0,0.279-0.008,0.439c-0.008,0.176-0.008,0.288-0.008,0.359c0,0.112,0,0.176,0.016,0.289l-0.543,0.008
		c0.023-0.176,0.047-0.664,0.047-1.152c0-0.127,0-0.144-0.008-0.239c-1.086,0.512-1.502,0.888-1.502,1.367
		c0,0.528,0.496,0.759,1.623,0.759c0.791,0,1.678-0.127,2.135-0.311l0.072,0.615c-0.121,0.008-0.16,0.016-0.32,0.039
		c-0.633,0.104-1.328,0.16-1.943,0.16c-1.432,0-2.127-0.407-2.127-1.23c0-0.439,0.271-0.855,0.816-1.264
		c0.271-0.199,0.654-0.408,1.191-0.64c-0.064-0.44-0.256-0.632-0.633-0.632c-0.504,0-1.135,0.296-1.783,0.848
		c-0.311,0.264-0.486,0.447-0.615,0.664l-0.447-0.448c0.551-0.424,1.215-1.263,1.791-2.286c0.023-0.041,0.023-0.041,0.072-0.121
		c-0.033,0.009-0.113,0.017-0.152,0.017c-0.129,0-0.879-0.017-1.176-0.024c-0.039,0-0.104,0-0.127,0c-0.072,0-0.088,0-0.176,0.008
		l0.008-0.551c0.287,0.056,0.895,0.088,1.711,0.088H139.172z"/>
	<path fill="#231815" d="M148.508,18.033c0.543,0.696,1.063,1.159,1.902,1.687c0.584,0.377,1.049,0.6,1.648,0.816
		c-0.145,0.152-0.232,0.271-0.328,0.472c-1.473-0.672-2.6-1.487-3.486-2.534c-0.568,0.68-0.984,1.078-1.584,1.511
		c-0.566,0.415-1.111,0.735-1.783,1.056c-0.127-0.217-0.168-0.271-0.352-0.448c0.633-0.256,1.232-0.575,1.807-0.983
		c0.68-0.472,1.191-0.967,1.633-1.575H148.508z M150.338,22.567c0.248,0,0.4-0.008,0.568-0.033
		c-0.031,0.209-0.039,0.377-0.039,0.616v1.407c0,0.24,0.016,0.447,0.047,0.672h-0.559v-0.376h-4.127v0.376h-0.559
		c0.031-0.232,0.047-0.456,0.047-0.672v-1.415c0-0.224-0.016-0.416-0.039-0.608c0.168,0.025,0.336,0.033,0.574,0.033h2.32
		l1.287-1.111h-3.406c-0.289,0-0.535,0.016-0.752,0.039v-0.52c0.207,0.032,0.416,0.04,0.711,0.04h3.352
		c0.326,0,0.479-0.008,0.623-0.032l0.313,0.313c-0.025,0.023-0.025,0.023-0.08,0.072c-0.008,0.008-0.041,0.031-0.08,0.071
		c-0.025,0.017-0.072,0.063-0.137,0.12l-1.15,1.008H150.338z M146.229,24.397h4.127v-1.383h-4.127V24.397z M146.9,19.888
		c0.209,0.033,0.352,0.041,0.672,0.041h1.455c0.32,0,0.473-0.008,0.664-0.041v0.504c-0.191-0.031-0.369-0.039-0.672-0.039h-1.439
		c-0.295,0-0.488,0.008-0.68,0.039V19.888z"/>
	<path fill="#231815" d="M153.133,19.385c0.209,0.063,0.441,0.079,0.992,0.079c0.168,0,0.271,0,0.504-0.016
		c0.008-0.375,0.008-0.52,0.008-0.775c0-0.119-0.008-0.207-0.031-0.359l0.623,0.008c-0.041,0.152-0.049,0.184-0.064,0.567
		c-0.008,0.097-0.008,0.097-0.008,0.304c-0.008,0.088-0.008,0.129-0.008,0.232c0.623-0.057,1.199-0.16,1.471-0.271l0.041,0.535
		c-0.096,0.008-0.121,0.008-0.248,0.04c-0.424,0.079-0.889,0.144-1.279,0.168c-0.016,0.695-0.016,0.751-0.016,1.048
		c0.23,0.184,0.336,0.415,0.336,0.783c0,0.383-0.064,0.56-0.434,1.167c-0.223,0.384-0.318,0.64-0.318,0.888
		c0,0.199,0.096,0.336,0.318,0.424c0.248,0.096,0.648,0.145,1.209,0.145c0.662,0,1.342-0.097,1.678-0.232
		c0.336-0.137,0.473-0.328,0.473-0.648c0-0.407-0.199-1.047-0.473-1.519c0.264,0.071,0.361,0.088,0.625,0.097
		c0.248,0.543,0.391,1.086,0.391,1.494c0,0.416-0.16,0.729-0.471,0.928c-0.439,0.271-1.191,0.408-2.23,0.408
		c-1.439,0-2.064-0.305-2.064-1.016c0-0.225,0.072-0.488,0.193-0.695c0.031-0.049,0.031-0.049,0.135-0.209l-0.008-0.008
		c-0.145,0.104-0.24,0.137-0.424,0.137c-0.52,0-0.902-0.448-0.902-1.056c0-0.735,0.543-1.279,1.27-1.279
		c0.049,0,0.098,0,0.178,0.017c0.008-0.08,0.008-0.256,0.016-0.521c0.008-0.264,0.008-0.264,0.008-0.336
		c-0.297,0.009-0.512,0.017-0.648,0.017c-0.215,0-0.375-0.008-0.6-0.024c-0.064-0.008-0.111-0.008-0.135-0.008
		c-0.025,0-0.057,0-0.105,0.008V19.385z M154.365,21.184c-0.393,0-0.721,0.384-0.721,0.839c0,0.377,0.217,0.625,0.553,0.625
		c0.424,0,0.752-0.385,0.752-0.872c0-0.392-0.168-0.567-0.545-0.592C154.389,21.184,154.373,21.184,154.365,21.184z M157.787,19.04
		c0.752,0.504,1.279,0.984,1.807,1.64l-0.447,0.384c-0.439-0.623-1.119-1.271-1.768-1.679L157.787,19.04z"/>
	<path fill="#231815" d="M44.531,28.097c0.432,0.648,0.881,1.111,1.559,1.623c0.641,0.48,1.32,0.872,1.977,1.12
		c-0.152,0.176-0.24,0.312-0.344,0.528c-0.729-0.36-1.408-0.793-2.031-1.288c-0.633-0.503-1.008-0.903-1.463-1.535
		c-0.393,0.584-0.721,0.952-1.279,1.439c-0.625,0.536-1.279,0.968-2.055,1.358c-0.098-0.199-0.168-0.287-0.354-0.479
		c0.688-0.297,1.439-0.752,2.008-1.224c0.568-0.479,1-0.968,1.352-1.544H44.531z M42.725,31.312c-0.336,0-0.527,0.008-0.744,0.04
		v-0.544c0.225,0.032,0.385,0.04,0.721,0.04h3.07c0.336,0,0.504-0.008,0.719-0.04v0.544c-0.207-0.032-0.408-0.04-0.734-0.04h-1.297
		v1.215h1.488c0.344,0,0.527-0.008,0.734-0.039v0.543c-0.207-0.031-0.398-0.039-0.734-0.039h-1.488v1.431h2.416
		c0.367,0,0.646-0.017,0.879-0.048v0.584c-0.264-0.041-0.561-0.057-0.871-0.057h-5.221c-0.32,0-0.625,0.016-0.889,0.057v-0.584
		c0.232,0.031,0.512,0.048,0.896,0.048h2.27v-1.431h-1.334c-0.336,0-0.537,0.008-0.744,0.039v-0.543
		c0.199,0.031,0.4,0.039,0.744,0.039h1.334v-1.215H42.725z"/>
	<path fill="#231815" d="M53.811,31.384c-0.631,1.055-0.768,1.247-1.176,1.711c0.336,0.287,0.672,0.535,1.008,0.728
		c0.641,0.376,1.32,0.64,2.207,0.863c-0.16,0.208-0.207,0.288-0.287,0.528c-0.936-0.272-1.584-0.553-2.295-0.992
		c-0.385-0.24-0.68-0.463-1-0.768c-0.344,0.32-0.646,0.552-1.039,0.8c-0.664,0.424-1.295,0.704-2.143,0.96
		c-0.072-0.192-0.137-0.305-0.297-0.496c0.775-0.208,1.297-0.408,1.967-0.775c0.465-0.256,0.744-0.464,1.16-0.848
		c-0.535-0.584-0.631-0.729-1.176-1.719l0.488-0.248c0.072,0.184,0.127,0.319,0.215,0.471c0.201,0.353,0.568,0.864,0.824,1.145
		c0.271-0.288,0.424-0.488,0.752-1.023c0.119-0.184,0.199-0.36,0.271-0.6L53.811,31.384z M51.955,28.649
		c0-0.256-0.016-0.473-0.055-0.672h0.631c-0.039,0.152-0.055,0.367-0.055,0.672v0.359h2.357c0.4,0,0.688-0.016,0.904-0.057v0.576
		c-0.184-0.031-0.48-0.048-0.912-0.048h-5.102c-0.439,0-0.672,0.017-0.895,0.048v-0.576c0.223,0.041,0.504,0.057,0.895,0.057h2.23
		V28.649z M51.355,30.009c-0.383,0.6-0.623,0.895-1.047,1.303c-0.367,0.344-0.639,0.568-1.055,0.848
		c-0.113-0.16-0.209-0.264-0.393-0.4c0.473-0.279,0.809-0.535,1.16-0.871c0.359-0.336,0.584-0.623,0.879-1.135L51.355,30.009z
		 M53.508,29.745c0.336,0.486,0.535,0.711,0.928,1.039c0.398,0.344,0.688,0.527,1.295,0.84c-0.145,0.143-0.24,0.264-0.352,0.455
		c-0.592-0.359-0.873-0.56-1.264-0.912c-0.393-0.352-0.615-0.607-1.023-1.15L53.508,29.745z"/>
	<path fill="#231815" d="M57.75,32.526c-0.344,0-0.576,0.008-0.744,0.033c0.016-0.152,0.023-0.32,0.023-0.713v-1.519
		c0-0.392-0.008-0.567-0.023-0.72c0.16,0.023,0.352,0.032,0.695,0.032h1.615c0.375-0.512,0.592-0.919,0.855-1.599l0.488,0.176
		c-0.297,0.607-0.537,1.023-0.832,1.423c0.383,0,0.543-0.009,0.736-0.032c-0.025,0.184-0.033,0.393-0.033,0.76v1.455
		c0,0.344,0.008,0.576,0.033,0.736c-0.225-0.025-0.416-0.033-0.729-0.033h-0.832v0.768h0.951c0.305,0,0.568-0.016,0.793-0.039v0.52
		c-0.305-0.024-0.561-0.04-0.801-0.04h-0.943v0.695c0,0.353,0.016,0.608,0.049,0.815h-0.561c0.033-0.207,0.049-0.479,0.049-0.823
		v-0.688h-1.023c-0.344,0-0.648,0.016-0.84,0.048v-0.535c0.207,0.031,0.488,0.047,0.816,0.047h1.047v-0.768H57.75z M57.229,28.121
		c0.297,0.464,0.408,0.672,0.625,1.191l-0.439,0.177c-0.186-0.496-0.336-0.801-0.617-1.2L57.229,28.121z M57.494,30.056v0.809h1.047
		v-0.809H57.494z M57.494,31.264v0.855h1.047v-0.855H57.494z M58.564,28.017c0.271,0.504,0.352,0.696,0.527,1.256l-0.447,0.16
		c-0.145-0.512-0.256-0.791-0.527-1.264L58.564,28.017z M59.004,30.864h1.072v-0.809h-1.072V30.864z M59.004,32.119h1.072v-0.855
		h-1.072V32.119z M63.482,31.376c-0.016,0.023-0.088,0.168-0.217,0.424c-0.344,0.695-0.471,0.902-0.822,1.375
		c0.256,0.775,0.6,1.391,0.783,1.391c0.119,0,0.248-0.408,0.359-1.15c0.168,0.176,0.264,0.256,0.408,0.335
		c-0.191,0.991-0.408,1.392-0.729,1.392c-0.383,0-0.84-0.6-1.176-1.551c-0.574,0.623-1.102,1.047-1.869,1.494
		c-0.113-0.176-0.217-0.279-0.377-0.399c0.855-0.415,1.488-0.903,2.096-1.606c-0.184-0.729-0.281-1.336-0.361-2.295l-0.23,0.031
		c-0.344,0.032-0.447,0.049-0.607,0.088l-0.057-0.52c0.057,0.008,0.096,0.008,0.119,0.008c0.113,0,0.32-0.016,0.529-0.039
		l0.215-0.024c-0.031-0.663-0.031-0.672-0.047-1.64c-0.01-0.319-0.018-0.455-0.049-0.623h0.584
		c-0.041,0.168-0.049,0.344-0.049,0.775c0,0.424,0.016,1.135,0.033,1.439l1.135-0.128c0.305-0.032,0.471-0.056,0.639-0.104
		l0.033,0.512c-0.033,0-0.057,0-0.08,0c-0.111,0-0.344,0.016-0.561,0.041l-1.143,0.135c0.047,0.784,0.127,1.367,0.248,1.896
		c0.359-0.504,0.623-1.063,0.719-1.503L63.482,31.376z M63.211,29.784c-0.289-0.52-0.449-0.744-0.881-1.239l0.344-0.224
		c0.457,0.496,0.617,0.711,0.912,1.207L63.211,29.784z"/>
	<path fill="#231815" d="M64.973,29.28c0-0.383-0.016-0.663-0.047-0.982c0.264,0.031,0.504,0.039,0.936,0.039h4.781
		c0.424,0,0.656-0.008,0.951-0.039c-0.031,0.295-0.047,0.566-0.047,0.982v4.869c0,0.584,0.016,0.88,0.047,1.096h-0.559v-0.487
		h-5.551v0.487h-0.559c0.031-0.216,0.047-0.504,0.047-1.096V29.28z M65.484,34.302h5.551v-5.509h-5.551V34.302z M66.854,29.976
		c-0.346,0-0.537,0.009-0.752,0.041v-0.512c0.223,0.039,0.398,0.047,0.752,0.047h2.822c0.359,0,0.574-0.016,0.783-0.047v0.512
		c-0.225-0.032-0.416-0.041-0.775-0.041h-1.232v1.24h0.984c0.359,0,0.52-0.008,0.719-0.04v0.503
		c-0.199-0.031-0.383-0.039-0.719-0.039h-0.984v1.463h1.344c0.328,0,0.561-0.016,0.783-0.048v0.528
		c-0.232-0.033-0.471-0.049-0.783-0.049h-3.047c-0.328,0-0.551,0.016-0.791,0.049v-0.528c0.225,0.032,0.455,0.048,0.791,0.048h1.207
		V31.64H67.1c-0.336,0-0.527,0.008-0.727,0.039v-0.503c0.199,0.032,0.359,0.04,0.727,0.04h0.855v-1.24H66.854z M69.42,31.783
		c0.326,0.327,0.455,0.504,0.75,0.952l-0.375,0.239c-0.279-0.487-0.408-0.663-0.711-0.991L69.42,31.783z"/>
	<path fill="#231815" d="M75.381,28.241c0.031,0.535,0.328,1.848,0.6,2.646c0.471-0.191,0.695-0.279,1.934-0.711
		c0.281-0.104,0.354-0.129,0.512-0.209l0.24,0.607c-0.559,0.121-1.703,0.488-2.406,0.776c-1.367,0.544-1.959,1.071-1.959,1.735
		c0,0.727,0.615,1.008,2.184,1.008c0.918,0,1.814-0.104,2.285-0.272l0.064,0.663c-0.152,0-0.152,0-0.592,0.049
		c-0.822,0.08-1.207,0.104-1.766,0.104c-0.793,0-1.393-0.072-1.775-0.216c-0.656-0.239-0.992-0.68-0.992-1.312
		c0-0.512,0.24-0.975,0.711-1.359c0.305-0.248,0.553-0.399,1.049-0.647c-0.225-0.655-0.377-1.216-0.584-2.239
		c-0.072-0.336-0.088-0.375-0.137-0.503L75.381,28.241z"/>
	<path fill="#231815" d="M83.916,32.511c-0.463,1.056-0.936,1.535-1.512,1.535c-0.76,0-1.326-0.832-1.326-1.951
		c0-0.814,0.303-1.607,0.84-2.207c0.639-0.703,1.51-1.063,2.582-1.063c0.895,0,1.68,0.279,2.199,0.791
		c0.504,0.488,0.775,1.184,0.775,1.951c0,1.239-0.672,2.263-1.832,2.758c-0.359,0.152-0.664,0.248-1.215,0.369
		c-0.08-0.265-0.129-0.344-0.279-0.537c0.584-0.096,0.959-0.199,1.334-0.375c0.881-0.4,1.416-1.256,1.416-2.238
		c0-0.912-0.463-1.647-1.271-2.008c-0.295-0.127-0.527-0.184-0.928-0.199C84.58,30.448,84.275,31.671,83.916,32.511z M82.932,29.72
		c-0.807,0.488-1.303,1.393-1.303,2.383c0,0.768,0.336,1.359,0.768,1.359c0.336,0,0.656-0.375,1-1.158
		c0.328-0.752,0.623-1.936,0.727-2.959C83.645,29.385,83.301,29.497,82.932,29.72z"/>
	<path fill="#231815" d="M88.701,29.329c0.168,0.031,0.328,0.039,0.617,0.039h1.189c0.313,0,0.434-0.008,0.609-0.039v0.52
		c-0.168-0.024-0.273-0.032-0.553-0.032h-1.246c-0.281,0-0.434,0.008-0.617,0.032V29.329z M88.941,35.222
		c0.031-0.208,0.049-0.448,0.049-0.792v-1.031c0-0.312-0.008-0.512-0.041-0.72c0.217,0.023,0.313,0.032,0.553,0.032h0.975
		c0.248,0,0.377-0.009,0.52-0.032c-0.023,0.199-0.023,0.296-0.023,0.672v1.055c0,0.28,0.008,0.465,0.031,0.648h-0.463v-0.296h-1.104
		v0.464H88.941z M88.957,28.226c0.184,0.031,0.32,0.039,0.584,0.039h0.84c0.264,0,0.393-0.008,0.584-0.039v0.504
		c-0.201-0.024-0.336-0.033-0.584-0.033h-0.84c-0.24,0-0.416,0.009-0.584,0.033V28.226z M88.998,30.464
		c0.16,0.023,0.287,0.032,0.551,0.032h0.889c0.264,0,0.375-0.009,0.535-0.032v0.488c-0.209-0.024-0.305-0.032-0.535-0.032h-0.889
		c-0.248,0-0.367,0.008-0.551,0.032V30.464z M88.998,31.56c0.152,0.023,0.279,0.031,0.551,0.031h0.881
		c0.264,0,0.383-0.008,0.543-0.031v0.496c-0.184-0.024-0.287-0.033-0.543-0.033h-0.889c-0.248,0-0.375,0.009-0.543,0.033V31.56z
		 M89.43,34.342h1.111V33.11H89.43V34.342z M91.98,30.88c-0.359,0-0.527,0.008-0.752,0.048V30.44
		c0.232,0.039,0.393,0.047,0.752,0.047h0.463v-0.591h-0.271c-0.287,0-0.473,0.008-0.656,0.04v-0.447
		c0.184,0.023,0.352,0.031,0.656,0.031h0.271v-0.527h-0.439c-0.295,0-0.488,0.008-0.68,0.039v-0.479
		c0.176,0.039,0.352,0.047,0.688,0.047h0.432c0-0.312-0.016-0.463-0.047-0.623h0.527c-0.033,0.152-0.049,0.304-0.049,0.623h1.215
		c0-0.383-0.008-0.471-0.047-0.623h0.527c-0.031,0.184-0.047,0.352-0.047,0.623h0.535c0.32,0,0.488-0.008,0.68-0.047v0.479
		c-0.209-0.031-0.393-0.039-0.68-0.039h-0.535v0.527h0.367c0.303,0,0.455-0.008,0.656-0.031v0.447
		c-0.193-0.032-0.369-0.04-0.656-0.04h-0.367v0.591h0.615c0.367,0,0.52-0.008,0.742-0.047v0.487
		c-0.223-0.04-0.391-0.048-0.742-0.048h-1.432v0.512h0.943c0.279,0,0.615-0.016,0.775-0.04c-0.023,0.128-0.023,0.2-0.031,0.264
		c0,0.128,0,0.128-0.008,0.552v1.279c0.256,0,0.359-0.008,0.52-0.04v0.472c-0.176-0.023-0.289-0.031-0.52-0.039v0.646
		c0,0.488-0.16,0.607-0.768,0.607c-0.232,0-0.537-0.008-0.793-0.031c-0.016-0.176-0.031-0.256-0.088-0.455
		c0.344,0.047,0.592,0.063,0.912,0.063c0.232,0,0.287-0.039,0.287-0.223v-0.607h-2.854v0.486c0,0.512,0.008,0.648,0.031,0.881
		h-0.512c0.025-0.24,0.033-0.473,0.033-0.881v-0.486c-0.176,0-0.305,0.016-0.424,0.039v-0.472c0.119,0.024,0.23,0.04,0.424,0.04
		v-1.303c0-0.313-0.008-0.52-0.033-0.775c0.225,0.016,0.432,0.023,0.881,0.023h0.799V30.88H91.98z M93.283,31.775h-1.199v0.632
		h1.199V31.775z M93.283,32.782h-1.199v0.664h1.199V32.782z M94.09,29.521v-0.527h-1.215v0.527H94.09z M94.09,30.487v-0.591h-1.215
		v0.591H94.09z M94.938,32.407v-0.632h-1.23v0.632H94.938z M94.938,33.446v-0.664h-1.23v0.664H94.938z"/>
	<path fill="#231815" d="M98.189,29.065c-0.432,0.104-0.633,0.151-1.199,0.256c-0.033-0.16-0.096-0.289-0.225-0.457
		c0.959-0.127,1.734-0.319,2.439-0.6c0.215-0.08,0.367-0.159,0.479-0.239l0.344,0.424c-0.055,0.017-0.072,0.024-0.184,0.071
		c-0.4,0.16-0.799,0.305-1.168,0.408v1.224h0.609c0.336,0,0.512-0.009,0.695-0.04v0.527c-0.201-0.031-0.385-0.039-0.695-0.039
		h-0.584c0.096,0.239,0.168,0.375,0.336,0.631c0.303,0.456,0.535,0.728,0.967,1.096c-0.127,0.119-0.199,0.199-0.328,0.408
		c-0.479-0.512-0.768-0.943-1.039-1.576c0.023,0.432,0.023,0.432,0.039,1.359v1.711c0,0.488,0.01,0.744,0.049,0.977h-0.592
		c0.031-0.24,0.049-0.48,0.049-0.977v-1.662c0-0.297,0.016-0.88,0.039-1.32c-0.176,0.584-0.344,0.977-0.639,1.479
		c-0.217,0.368-0.393,0.608-0.729,0.983c-0.111-0.184-0.207-0.304-0.336-0.432c0.736-0.719,1.223-1.559,1.576-2.678h-0.592
		c-0.313,0-0.52,0.016-0.76,0.047v-0.543c0.223,0.031,0.424,0.048,0.76,0.048h0.688V29.065z M100.836,34.95h-0.545
		c0.025-0.232,0.041-0.496,0.041-0.928v-4.445c0-0.369-0.016-0.608-0.041-0.848c0.24,0.031,0.408,0.039,0.752,0.039h1.727
		c0.344,0,0.545-0.008,0.76-0.039c-0.031,0.223-0.039,0.463-0.039,0.848v4.389c0,0.416,0.016,0.752,0.047,0.984h-0.559v-0.568
		h-2.143V34.95z M100.836,33.91h2.143v-4.661h-2.143V33.91z"/>
</g>
<rect x="38.172" y="0.43" fill="none" stroke="#231815" stroke-width="0.86" stroke-miterlimit="10" width="142.506" height="14.206"/>
<g>
	<path fill="#231815" d="M7.455,21.706c0.432,0.647,0.879,1.111,1.559,1.623c0.639,0.479,1.318,0.871,1.975,1.119
		c-0.152,0.176-0.24,0.313-0.344,0.527c-0.727-0.359-1.406-0.791-2.031-1.287c-0.631-0.504-1.008-0.903-1.463-1.535
		c-0.391,0.584-0.719,0.951-1.279,1.439c-0.623,0.535-1.279,0.967-2.055,1.359c-0.096-0.2-0.168-0.288-0.352-0.48
		c0.688-0.295,1.439-0.751,2.006-1.223c0.568-0.48,1-0.968,1.352-1.543H7.455z M5.648,24.92c-0.336,0-0.529,0.008-0.744,0.04v-0.544
		c0.223,0.032,0.383,0.04,0.719,0.04h3.07c0.336,0,0.504-0.008,0.721-0.04v0.544c-0.209-0.032-0.408-0.04-0.736-0.04H7.383v1.216
		h1.486c0.344,0,0.527-0.008,0.736-0.041v0.545c-0.209-0.033-0.4-0.041-0.736-0.041H7.383v1.432h2.414
		c0.367,0,0.648-0.016,0.879-0.048v0.583c-0.264-0.039-0.559-0.056-0.871-0.056H4.584c-0.32,0-0.623,0.017-0.887,0.056v-0.583
		c0.23,0.032,0.512,0.048,0.895,0.048h2.271v-1.432H5.527c-0.336,0-0.535,0.008-0.744,0.041v-0.545
		c0.201,0.033,0.4,0.041,0.744,0.041h1.336V24.92H5.648z"/>
	<path fill="#231815" d="M17.51,23.505c0.424,0,0.68-0.008,0.951-0.04c-0.031,0.296-0.049,0.567-0.049,1.007v3.463
		c0,0.463,0.018,0.719,0.049,0.959H17.9v-0.455h-5.412v0.455h-0.561c0.041-0.271,0.049-0.488,0.049-0.975v-3.447
		c0-0.399-0.016-0.688-0.049-1.007c0.264,0.032,0.529,0.04,0.936,0.04h1.496c0.232-0.424,0.336-0.664,0.471-1.144H12.52
		c-0.352,0-0.592,0.017-0.848,0.048v-0.56c0.232,0.032,0.496,0.048,0.84,0.048h5.365c0.344,0,0.6-0.016,0.848-0.048v0.56
		c-0.232-0.031-0.504-0.048-0.848-0.048h-2.502c-0.121,0.432-0.256,0.76-0.457,1.144H17.51z M12.488,23.944v4.046h1.311v-4.046
		H12.488z M16.055,23.944h-1.768v1.039h1.768V23.944z M14.287,26.438h1.768v-1.023h-1.768V26.438z M14.287,27.99h1.768v-1.12h-1.768
		V27.99z M16.541,27.99H17.9v-4.046h-1.359V27.99z"/>
	<path fill="#231815" d="M19.625,22.937c0.168,0.033,0.328,0.041,0.615,0.041h1.191c0.313,0,0.432-0.008,0.607-0.041v0.52
		c-0.168-0.023-0.271-0.031-0.551-0.031H20.24c-0.279,0-0.432,0.008-0.615,0.031V22.937z M19.865,28.829
		c0.031-0.207,0.047-0.447,0.047-0.791v-1.031c0-0.313-0.008-0.512-0.039-0.72c0.215,0.024,0.311,0.032,0.551,0.032H21.4
		c0.248,0,0.375-0.008,0.52-0.032c-0.025,0.2-0.025,0.296-0.025,0.672v1.056c0,0.279,0.01,0.463,0.033,0.646h-0.465v-0.295h-1.104
		v0.463H19.865z M19.881,21.833c0.184,0.033,0.32,0.041,0.584,0.041h0.838c0.266,0,0.393-0.008,0.584-0.041v0.504
		c-0.199-0.023-0.336-0.031-0.584-0.031h-0.838c-0.24,0-0.416,0.008-0.584,0.031V21.833z M19.92,24.072
		c0.16,0.024,0.289,0.032,0.553,0.032h0.887c0.264,0,0.377-0.008,0.535-0.032v0.487c-0.207-0.023-0.303-0.031-0.535-0.031h-0.887
		c-0.248,0-0.369,0.008-0.553,0.031V24.072z M19.92,25.168c0.152,0.024,0.281,0.032,0.553,0.032h0.879
		c0.264,0,0.385-0.008,0.543-0.032v0.495c-0.184-0.023-0.287-0.031-0.543-0.031h-0.887c-0.248,0-0.377,0.008-0.545,0.031V25.168z
		 M20.352,27.95h1.111v-1.231h-1.111V27.95z M22.902,24.488c-0.359,0-0.527,0.008-0.752,0.048v-0.488
		c0.232,0.041,0.393,0.049,0.752,0.049h0.465v-0.592h-0.273c-0.287,0-0.471,0.008-0.654,0.039v-0.447
		c0.184,0.024,0.352,0.032,0.654,0.032h0.273v-0.528h-0.439c-0.297,0-0.488,0.009-0.68,0.041v-0.48
		c0.176,0.041,0.352,0.049,0.688,0.049h0.432c0-0.313-0.018-0.465-0.049-0.624h0.527c-0.031,0.151-0.047,0.304-0.047,0.624h1.215
		c0-0.385-0.008-0.473-0.049-0.624h0.529c-0.033,0.184-0.049,0.352-0.049,0.624h0.535c0.32,0,0.488-0.008,0.68-0.049v0.48
		c-0.207-0.032-0.391-0.041-0.68-0.041h-0.535v0.528h0.367c0.305,0,0.457-0.008,0.656-0.032v0.447
		c-0.191-0.031-0.367-0.039-0.656-0.039h-0.367v0.592h0.615c0.369,0,0.52-0.008,0.744-0.049v0.488
		c-0.225-0.04-0.393-0.048-0.744-0.048h-1.432V25h0.945c0.279,0,0.615-0.017,0.775-0.04c-0.025,0.128-0.025,0.199-0.033,0.264
		c0,0.128,0,0.128-0.008,0.552v1.279c0.256,0,0.359-0.008,0.52-0.04v0.472c-0.176-0.024-0.287-0.032-0.52-0.04v0.648
		c0,0.487-0.16,0.607-0.768,0.607c-0.232,0-0.535-0.008-0.791-0.032c-0.016-0.176-0.031-0.256-0.088-0.456
		c0.344,0.049,0.592,0.064,0.912,0.064c0.23,0,0.287-0.04,0.287-0.225v-0.607h-2.855v0.488c0,0.512,0.01,0.647,0.033,0.879h-0.512
		c0.023-0.24,0.031-0.471,0.031-0.879v-0.488c-0.176,0-0.303,0.016-0.424,0.04v-0.472c0.121,0.023,0.232,0.04,0.424,0.04v-1.304
		c0-0.312-0.008-0.52-0.031-0.775C22.75,24.991,22.959,25,23.406,25h0.801v-0.512H22.902z M24.207,25.384h-1.201v0.631h1.201V25.384
		z M24.207,26.392h-1.201v0.663h1.201V26.392z M25.014,23.129v-0.528h-1.215v0.528H25.014z M25.014,24.097v-0.592h-1.215v0.592
		H25.014z M25.861,26.015v-0.631h-1.232v0.631H25.861z M25.861,27.055v-0.663h-1.232v0.663H25.861z"/>
	<path fill="#231815" d="M29.111,22.673c-0.432,0.104-0.631,0.152-1.199,0.256c-0.031-0.16-0.096-0.287-0.223-0.455
		c0.959-0.129,1.734-0.32,2.438-0.6c0.217-0.08,0.367-0.16,0.48-0.24l0.344,0.424c-0.057,0.016-0.072,0.023-0.184,0.072
		c-0.4,0.16-0.801,0.303-1.168,0.407v1.224h0.607c0.336,0,0.512-0.008,0.695-0.04v0.528c-0.199-0.033-0.383-0.041-0.695-0.041
		h-0.584c0.096,0.24,0.168,0.376,0.336,0.632c0.305,0.456,0.535,0.728,0.969,1.096c-0.129,0.12-0.201,0.2-0.328,0.407
		c-0.48-0.512-0.768-0.943-1.041-1.574c0.025,0.432,0.025,0.432,0.041,1.359v1.711c0,0.487,0.008,0.743,0.049,0.975h-0.592
		c0.031-0.24,0.047-0.479,0.047-0.975v-1.664c0-0.295,0.016-0.879,0.041-1.318c-0.176,0.583-0.344,0.975-0.641,1.479
		c-0.215,0.368-0.391,0.607-0.727,0.984c-0.113-0.185-0.209-0.305-0.336-0.433c0.734-0.72,1.223-1.56,1.574-2.679h-0.592
		c-0.311,0-0.52,0.016-0.76,0.049v-0.545c0.225,0.033,0.424,0.049,0.76,0.049h0.688V22.673z M31.758,28.558h-0.543
		c0.023-0.231,0.039-0.496,0.039-0.928v-4.445c0-0.367-0.016-0.607-0.039-0.848c0.24,0.032,0.408,0.041,0.752,0.041h1.727
		c0.344,0,0.543-0.009,0.76-0.041c-0.033,0.225-0.041,0.465-0.041,0.848v4.391c0,0.415,0.018,0.751,0.049,0.982H33.9V27.99h-2.143
		V28.558z M31.758,27.519H33.9v-4.662h-2.143V27.519z"/>
</g>
<rect x="38.172" y="14.636" fill="none" stroke="#231815" stroke-width="0.86" stroke-miterlimit="10" width="142.506" height="23.511"/>
</svg>
