<?xml version="1.0" encoding="utf-8"?>
<!-- Generator: Adobe Illustrator 16.0.3, SVG Export Plug-In . SVG Version: 6.00 Build 0)  -->
<!DOCTYPE svg PUBLIC "-//W3C//DTD SVG 1.1//EN" "http://www.w3.org/Graphics/SVG/1.1/DTD/svg11.dtd">
<svg version="1.1" id="レイヤー_1" xmlns="http://www.w3.org/2000/svg" xmlns:xlink="http://www.w3.org/1999/xlink" x="0px"
	 y="0px" width="118.54px" height="57.117px" viewBox="0 0 118.54 57.117" enable-background="new 0 0 118.54 57.117"
	 xml:space="preserve">
<g>
	<path d="M45.16,2.534c0.119-0.21,0.309-0.363,0.483-0.482c0.028-0.021,0.056-0.028,0.091-0.028c0.063,0,0.126,0.035,0.161,0.084
		c0.014,0.035,0.028,0.07,0.028,0.112c0,0.056-0.021,0.111-0.07,0.146c-0.112,0.07-0.224,0.161-0.309,0.253
		c-0.063,0.069-0.118,0.175-0.126,0.279c0,0,0,0.008,0,0.015c0,0.027,0.015,0.035,0.035,0.035c0.007,0,0.015,0,0.021,0
		c0.042-0.008,0.056-0.008,0.077-0.008c0.224,0,0.427,0.176,0.427,0.448c0,0.245-0.168,0.463-0.462,0.463
		c-0.287,0-0.532-0.21-0.532-0.631C44.985,2.955,45.054,2.71,45.16,2.534z M46.449,2.534c0.119-0.21,0.308-0.363,0.482-0.482
		c0.028-0.021,0.057-0.028,0.092-0.028c0.063,0,0.126,0.035,0.161,0.084c0.014,0.035,0.027,0.07,0.027,0.112
		c0,0.056-0.021,0.111-0.069,0.146c-0.112,0.07-0.225,0.161-0.309,0.253c-0.063,0.069-0.119,0.175-0.126,0.279c0,0,0,0.008,0,0.015
		c0,0.027,0.014,0.035,0.035,0.035c0.007,0,0.014,0,0.021,0C46.805,2.94,46.82,2.94,46.84,2.94c0.225,0,0.428,0.176,0.428,0.448
		c0,0.245-0.168,0.463-0.463,0.463c-0.287,0-0.532-0.21-0.532-0.631C46.273,2.955,46.343,2.71,46.449,2.534z"/>
	<path d="M50.627,3.361c-0.217,0.546-0.497,1.071-0.847,1.533c0.111-0.069,0.237-0.104,0.371-0.104h2.759
		c0.441,0,0.651,0.175,0.651,0.616v1.855c0,0.448-0.21,0.624-0.651,0.624h-2.935c-0.44,0-0.651-0.176-0.651-0.624v-1.33
		c0-0.21,0.035-0.393,0.092-0.554c-0.302,0.393-0.666,0.75-1.072,1.086c-0.069,0.056-0.146,0.084-0.217,0.084
		c-0.077,0-0.147-0.035-0.203-0.105c-0.049-0.063-0.077-0.133-0.077-0.195c0-0.077,0.035-0.147,0.112-0.203
		c0.987-0.743,1.646-1.604,2.101-2.683h-1.891c-0.133,0-0.203-0.112-0.203-0.267c0-0.146,0.07-0.252,0.203-0.252h2.08
		c0.112-0.322,0.203-0.658,0.28-1.016c0.028-0.126,0.112-0.189,0.252-0.189c0.028,0,0.056,0,0.084,0.008
		c0.147,0.021,0.231,0.111,0.231,0.237c0,0.021-0.007,0.05-0.014,0.077c-0.077,0.309-0.161,0.603-0.26,0.883h3.236
		c0.133,0,0.203,0.105,0.203,0.252c0,0.154-0.07,0.267-0.203,0.267H50.627z M52.778,7.381c0.154,0,0.225-0.034,0.225-0.203V5.497
		c0-0.168-0.07-0.203-0.225-0.203h-2.683c-0.154,0-0.224,0.035-0.224,0.203v1.681c0,0.169,0.069,0.203,0.224,0.203H52.778z"/>
	<path d="M56.241,5.771c0,0.028-0.007,0.063-0.014,0.091c-0.21,0.623-0.581,1.45-0.883,1.968c-0.056,0.099-0.153,0.147-0.252,0.147
		c-0.049,0-0.104-0.014-0.154-0.042c-0.077-0.042-0.126-0.119-0.126-0.203c0-0.063,0.021-0.126,0.07-0.203
		c0.294-0.49,0.63-1.254,0.826-1.856c0.035-0.098,0.119-0.153,0.225-0.153c0.042,0,0.077,0.007,0.119,0.021
		C56.185,5.581,56.241,5.672,56.241,5.771z M56.171,4.251c0.076,0.069,0.104,0.146,0.104,0.217c0,0.063-0.028,0.126-0.077,0.175
		c-0.056,0.063-0.133,0.091-0.203,0.091c-0.069,0-0.14-0.027-0.196-0.076c-0.23-0.211-0.588-0.525-0.889-0.715
		c-0.057-0.035-0.092-0.105-0.092-0.175c0-0.057,0.021-0.112,0.063-0.161c0.063-0.07,0.147-0.112,0.231-0.112
		c0.049,0,0.098,0.014,0.146,0.042C55.541,3.704,55.94,4.033,56.171,4.251z M56.472,2.549c0.063,0.07,0.091,0.14,0.091,0.21
		c0,0.063-0.027,0.126-0.077,0.182c-0.063,0.057-0.133,0.092-0.21,0.092c-0.07,0-0.133-0.028-0.188-0.084
		c-0.231-0.245-0.582-0.54-0.854-0.729c-0.057-0.042-0.092-0.105-0.092-0.176c0-0.063,0.021-0.119,0.063-0.175
		c0.063-0.07,0.146-0.104,0.231-0.104c0.049,0,0.104,0.014,0.146,0.042C55.863,1.981,56.234,2.297,56.472,2.549z M58.279,3.956
		c-0.28,0.015-0.553,0.028-0.833,0.042c-0.014,1.73-0.196,2.9-0.757,3.881c-0.056,0.098-0.146,0.146-0.245,0.146
		c-0.042,0-0.091-0.014-0.133-0.035c-0.084-0.042-0.14-0.119-0.14-0.217c0-0.049,0.014-0.105,0.049-0.168
		c0.561-0.96,0.707-2.164,0.707-3.992V2.864c0-0.421,0.154-0.596,0.539-0.609c1.037-0.042,2.15-0.218,3.117-0.561
		c0.035-0.015,0.07-0.021,0.104-0.021c0.099,0,0.183,0.057,0.225,0.154c0.021,0.035,0.028,0.077,0.028,0.119
		c0,0.112-0.07,0.21-0.189,0.259c-0.952,0.322-2.087,0.477-3.103,0.525c-0.141,0.007-0.203,0.084-0.203,0.238v0.561
		c1.338-0.035,2.528-0.238,3.354-0.567c0.035-0.014,0.077-0.021,0.112-0.021c0.091,0,0.182,0.05,0.224,0.147
		c0.021,0.049,0.028,0.091,0.028,0.126c0,0.105-0.063,0.189-0.175,0.231c-0.287,0.104-0.603,0.196-0.96,0.272
		c0.015,0.421,0.042,0.848,0.119,1.269c0.287-0.176,0.532-0.372,0.757-0.582c0.056-0.049,0.126-0.084,0.196-0.084
		c0.063,0,0.133,0.028,0.188,0.092c0.057,0.056,0.077,0.118,0.077,0.175c0,0.084-0.042,0.154-0.112,0.21
		c-0.287,0.231-0.609,0.469-1.001,0.707c0.188,0.785,0.511,1.443,1.009,2.046c0.049,0.056,0.069,0.118,0.069,0.182
		c0,0.084-0.042,0.168-0.111,0.224c-0.057,0.05-0.127,0.07-0.189,0.07c-0.084,0-0.161-0.035-0.217-0.104
		c-0.848-1.086-1.198-2.466-1.275-4.111c-0.245,0.042-0.497,0.069-0.742,0.098v3.999c0,0.141-0.091,0.21-0.266,0.21
		c-0.154,0-0.253-0.069-0.253-0.21V3.956z"/>
	<path d="M62.723,3.396c-0.119,0.21-0.309,0.364-0.483,0.482c-0.028,0.021-0.057,0.028-0.092,0.028c-0.063,0-0.126-0.035-0.16-0.084
		c-0.015-0.035-0.028-0.07-0.028-0.112c0-0.056,0.021-0.111,0.07-0.146c0.111-0.07,0.224-0.161,0.308-0.252
		c0.063-0.07,0.119-0.176,0.126-0.28c0,0,0-0.008,0-0.015c0-0.027-0.014-0.035-0.035-0.035c-0.007,0-0.014,0-0.021,0
		C62.366,2.99,62.351,2.99,62.331,2.99c-0.225,0-0.428-0.176-0.428-0.448c0-0.245,0.169-0.463,0.463-0.463
		c0.287,0,0.532,0.21,0.532,0.631C62.898,2.976,62.828,3.221,62.723,3.396z M64.011,3.396c-0.119,0.21-0.308,0.364-0.483,0.482
		C63.5,3.9,63.472,3.907,63.437,3.907c-0.063,0-0.126-0.035-0.161-0.084c-0.014-0.035-0.028-0.07-0.028-0.112
		c0-0.056,0.021-0.111,0.07-0.146c0.112-0.07,0.225-0.161,0.309-0.252c0.063-0.07,0.119-0.176,0.126-0.28c0,0,0-0.008,0-0.015
		c0-0.027-0.014-0.035-0.035-0.035c-0.007,0-0.014,0-0.021,0C63.654,2.99,63.64,2.99,63.62,2.99c-0.225,0-0.428-0.176-0.428-0.448
		c0-0.245,0.168-0.463,0.462-0.463c0.287,0,0.533,0.21,0.533,0.631C64.187,2.976,64.117,3.221,64.011,3.396z"/>
</g>
<g>
	<path d="M24.372,15.036c0.108,0,0.162,0.078,0.162,0.204c0,0.114-0.054,0.204-0.162,0.204h-1.577c-0.108,0-0.162-0.09-0.162-0.204
		c0-0.12,0.054-0.204,0.162-0.204H24.372z M22.939,17.184c-0.102,0-0.156-0.097-0.156-0.198c0-0.108,0.054-0.198,0.156-0.198h1.313
		c0.102,0,0.156,0.09,0.156,0.192c0,0.107-0.054,0.204-0.156,0.204H22.939z M22.945,16.319c-0.102,0-0.156-0.09-0.156-0.197
		c0-0.108,0.054-0.198,0.156-0.198h1.308c0.096,0,0.15,0.09,0.15,0.198c0,0.102-0.054,0.197-0.15,0.197H22.945z M24.258,14.167
		c0.096,0,0.156,0.084,0.156,0.204c0,0.113-0.06,0.191-0.156,0.191h-1.307c-0.096,0-0.156-0.078-0.156-0.191
		c0-0.12,0.06-0.204,0.156-0.204H24.258z M24.426,19.006c0,0.318-0.144,0.444-0.462,0.444h-0.695c-0.318,0-0.462-0.126-0.462-0.444
		v-0.947c0-0.306,0.144-0.426,0.462-0.426h0.695c0.318,0,0.462,0.12,0.462,0.426V19.006z M23.215,18.928
		c0,0.108,0.06,0.15,0.162,0.15h0.479c0.102,0,0.162-0.042,0.162-0.15v-0.803c0-0.108-0.06-0.139-0.162-0.139h-0.479
		c-0.102,0-0.162,0.03-0.162,0.139V18.928z M27.347,16.602c0.33,0,0.479,0.126,0.479,0.407v1.176h0.21
		c0.102,0,0.156,0.072,0.156,0.18c0,0.108-0.054,0.187-0.156,0.187h-0.21v0.503c0,0.336-0.186,0.468-0.618,0.468
		c-0.186,0-0.384-0.006-0.545-0.035c-0.09-0.019-0.15-0.084-0.15-0.187c0-0.012,0-0.029,0.006-0.042
		c0.018-0.107,0.09-0.155,0.168-0.155c0.012,0,0.024,0,0.036,0.006c0.132,0.023,0.293,0.042,0.432,0.042
		c0.234,0,0.282-0.036,0.282-0.181v-0.419h-2.141v0.875c0,0.103-0.072,0.156-0.198,0.156c-0.12,0-0.204-0.054-0.204-0.156v-0.875
		h-0.18c-0.102,0-0.162-0.078-0.162-0.187c0-0.107,0.06-0.18,0.162-0.18h0.18v-1.176c0-0.281,0.15-0.407,0.479-0.407h0.774V16.26
		h-1.409c-0.096,0-0.15-0.078-0.15-0.174c0-0.108,0.054-0.174,0.15-0.174h0.75V15.51h-0.564c-0.084,0-0.138-0.077-0.138-0.161
		c0-0.097,0.054-0.181,0.138-0.181h0.564v-0.365h-0.696c-0.09,0-0.138-0.084-0.138-0.18c0-0.097,0.048-0.168,0.138-0.168h0.696
		v-0.282c0-0.108,0.078-0.156,0.198-0.156c0.132,0,0.198,0.048,0.198,0.156v0.282h0.912v-0.288c0-0.103,0.072-0.156,0.198-0.156
		s0.198,0.054,0.198,0.156v0.288h0.755c0.084,0,0.144,0.071,0.144,0.168c0,0.102-0.06,0.18-0.144,0.18h-0.755v0.365h0.605
		c0.084,0,0.138,0.084,0.138,0.181c0,0.09-0.054,0.161-0.138,0.161h-0.605v0.402h0.845c0.096,0,0.15,0.065,0.15,0.174
		c0,0.096-0.054,0.174-0.15,0.174h-1.499v0.342H27.347z M26.147,16.938h-0.696c-0.102,0-0.156,0.03-0.156,0.132v0.336h0.852V16.938z
		 M26.147,17.723h-0.852v0.462h0.852V17.723z M26.795,15.168v-0.365h-0.912v0.365H26.795z M26.795,15.912V15.51h-0.912v0.402H26.795
		z M27.437,17.405v-0.336c0-0.102-0.054-0.132-0.156-0.132h-0.744v0.468H27.437z M27.437,18.185v-0.462h-0.899v0.462H27.437z"/>
	<path d="M28.831,16.074c-0.114,0-0.18-0.084-0.18-0.21s0.066-0.21,0.18-0.21h0.899v-0.75c-0.27,0.066-0.534,0.12-0.773,0.15
		c-0.018,0.006-0.03,0.006-0.048,0.006c-0.102,0-0.186-0.054-0.204-0.18c-0.006-0.013-0.006-0.03-0.006-0.049
		c0-0.102,0.066-0.18,0.174-0.197c0.647-0.09,1.391-0.288,1.943-0.546c0.042-0.018,0.084-0.024,0.126-0.024
		c0.078,0,0.144,0.036,0.174,0.108c0.024,0.042,0.03,0.078,0.03,0.114c0,0.084-0.048,0.161-0.132,0.197
		c-0.24,0.103-0.534,0.204-0.839,0.294v0.876h0.797c0.108,0,0.174,0.084,0.174,0.203c0,0.126-0.066,0.217-0.174,0.217H30.21
		c0.198,0.426,0.552,0.899,0.857,1.175c0.054,0.048,0.084,0.114,0.084,0.174c0,0.054-0.018,0.108-0.06,0.15
		c-0.036,0.048-0.096,0.071-0.162,0.071c-0.054,0-0.114-0.018-0.156-0.065c-0.24-0.246-0.51-0.653-0.671-1.079
		c0.048,0.3,0.072,0.587,0.072,0.833v2.075c0,0.107-0.084,0.174-0.222,0.174c-0.138,0-0.228-0.066-0.228-0.174v-1.854
		c0-0.3,0.042-0.653,0.09-0.947c-0.174,0.6-0.503,1.218-0.875,1.655c-0.054,0.06-0.126,0.096-0.198,0.096
		c-0.048,0-0.096-0.018-0.144-0.054c-0.054-0.048-0.084-0.114-0.084-0.18c0-0.061,0.024-0.114,0.072-0.168
		c0.498-0.522,0.845-1.164,1.073-1.883H28.831z M33.904,18.742c0,0.348-0.168,0.504-0.521,0.504h-1.481
		c-0.354,0-0.521-0.156-0.521-0.504v-3.7c0-0.354,0.168-0.503,0.521-0.503h1.481c0.354,0,0.521,0.149,0.521,0.503V18.742z
		 M31.848,18.646c0,0.126,0.06,0.168,0.18,0.168h1.229c0.12,0,0.18-0.042,0.18-0.168v-3.508c0-0.132-0.06-0.168-0.18-0.168h-1.229
		c-0.12,0-0.18,0.036-0.18,0.168V18.646z"/>
	<path d="M34.879,17.615c-0.108,0-0.168-0.09-0.168-0.216s0.06-0.204,0.168-0.204h2.225V16.68c0-0.108,0.084-0.168,0.216-0.168
		s0.228,0.06,0.228,0.168v0.516h2.327c0.108,0,0.167,0.078,0.167,0.204c0,0.119-0.059,0.216-0.167,0.216h-2.033
		c0.504,0.539,1.337,1.049,2.087,1.295c0.107,0.036,0.162,0.12,0.162,0.222c0,0.03-0.006,0.066-0.018,0.097
		c-0.037,0.102-0.127,0.155-0.223,0.155c-0.029,0-0.06-0.006-0.09-0.018c-0.84-0.324-1.751-0.93-2.254-1.577
		c0.023,0.132,0.041,0.3,0.041,0.438v1.224c0,0.102-0.096,0.168-0.228,0.168s-0.216-0.066-0.216-0.168v-1.224
		c0-0.144,0.012-0.312,0.042-0.438c-0.51,0.63-1.284,1.199-2.153,1.564c-0.036,0.019-0.072,0.024-0.108,0.024
		c-0.09,0-0.168-0.054-0.204-0.156c-0.018-0.035-0.024-0.071-0.024-0.107c0-0.084,0.048-0.15,0.144-0.192
		c0.821-0.317,1.535-0.797,2.009-1.307H34.879z M38.549,14.431c0.258,0,0.401,0.15,0.401,0.33c0,0.09-0.042,0.191-0.126,0.281
		c-0.287,0.288-0.605,0.546-0.959,0.773c0.611,0.294,1.307,0.48,2.074,0.588c0.127,0.019,0.198,0.097,0.198,0.21
		c0,0.019,0,0.042-0.006,0.061c-0.024,0.138-0.108,0.197-0.216,0.197c-0.018,0-0.03,0-0.049-0.006
		c-0.898-0.132-1.721-0.396-2.428-0.804c-0.756,0.408-1.613,0.684-2.507,0.828c-0.018,0.006-0.036,0.006-0.054,0.006
		c-0.108,0-0.186-0.072-0.198-0.192c-0.006-0.012-0.006-0.023-0.006-0.042c0-0.102,0.06-0.191,0.174-0.21
		c0.792-0.113,1.535-0.335,2.183-0.642c-0.3-0.203-0.576-0.443-0.821-0.713c-0.306,0.264-0.648,0.503-1.001,0.671
		c-0.042,0.019-0.078,0.024-0.114,0.024c-0.078,0-0.15-0.042-0.192-0.12c-0.018-0.036-0.03-0.078-0.03-0.107
		c0-0.072,0.042-0.139,0.12-0.174c0.744-0.36,1.283-0.852,1.619-1.35c0.043-0.054,0.114-0.084,0.198-0.084
		c0.03,0,0.06,0.006,0.09,0.012c0.097,0.03,0.155,0.103,0.155,0.174c0,0.036-0.012,0.066-0.035,0.097
		c-0.042,0.06-0.09,0.125-0.145,0.191H38.549z M36.528,14.809c-0.012,0.012-0.023,0.018-0.03,0.03
		c0.282,0.287,0.6,0.552,0.948,0.755c0.336-0.197,0.642-0.42,0.899-0.671c0.036-0.036,0.054-0.061,0.054-0.078
		c0-0.024-0.035-0.036-0.096-0.036H36.528z"/>
	<path d="M41.688,17.027c-0.317,0.03-0.629,0.048-0.917,0.06c-0.006,0-0.006,0-0.012,0c-0.108,0-0.174-0.071-0.181-0.21
		c0-0.126,0.066-0.21,0.174-0.21c0.031,0,0.061,0,0.091,0c0.09,0,0.186,0,0.282-0.006c0.149-0.174,0.287-0.354,0.42-0.539
		c-0.252-0.313-0.564-0.636-0.828-0.864c-0.036-0.042-0.055-0.09-0.055-0.138c0-0.054,0.024-0.107,0.061-0.149
		c0.048-0.055,0.107-0.084,0.162-0.084c0.035,0,0.072,0.012,0.102,0.042c0.055,0.048,0.102,0.096,0.162,0.149
		c0.204-0.306,0.402-0.672,0.539-0.959c0.037-0.072,0.091-0.103,0.156-0.103c0.036,0,0.072,0.013,0.114,0.03
		c0.084,0.036,0.138,0.102,0.138,0.18c0,0.024-0.006,0.054-0.018,0.084c-0.156,0.313-0.378,0.689-0.643,1.056
		c0.127,0.132,0.246,0.27,0.36,0.408c0.233-0.336,0.456-0.678,0.63-0.99c0.042-0.065,0.107-0.102,0.174-0.102
		c0.036,0,0.072,0.012,0.107,0.03c0.078,0.042,0.133,0.107,0.133,0.186c0,0.03-0.006,0.06-0.03,0.09
		c-0.306,0.51-0.762,1.163-1.181,1.649c0.299-0.013,0.593-0.048,0.887-0.084c-0.061-0.138-0.119-0.271-0.174-0.378
		c-0.012-0.024-0.018-0.048-0.018-0.072c0-0.065,0.041-0.12,0.113-0.149c0.036-0.019,0.072-0.024,0.102-0.024
		c0.061,0,0.115,0.03,0.15,0.103c0.15,0.281,0.342,0.689,0.443,0.989c0.013,0.018,0.013,0.029,0.013,0.048
		c0,0.078-0.065,0.138-0.149,0.174c-0.031,0.012-0.061,0.018-0.097,0.018c-0.065,0-0.126-0.035-0.149-0.102
		c-0.024-0.078-0.055-0.162-0.084-0.252c-0.18,0.03-0.366,0.054-0.546,0.072v2.458c0,0.103-0.091,0.162-0.216,0.162
		c-0.126,0-0.217-0.06-0.217-0.162V17.027z M40.819,19.18c-0.023,0-0.054-0.006-0.078-0.012c-0.09-0.03-0.155-0.096-0.155-0.174
		c0-0.024,0.006-0.048,0.018-0.072c0.162-0.384,0.276-0.947,0.324-1.373c0.012-0.12,0.077-0.174,0.18-0.174
		c0.013,0,0.03,0,0.048,0.006c0.107,0.019,0.186,0.072,0.186,0.162c0,0.012,0,0.018,0,0.024c-0.047,0.485-0.162,1.067-0.329,1.486
		C40.981,19.138,40.903,19.18,40.819,19.18z M43.116,18.742c0,0.103-0.078,0.174-0.186,0.186c-0.018,0.007-0.036,0.007-0.049,0.007
		c-0.09,0-0.161-0.049-0.18-0.156c-0.054-0.348-0.155-0.869-0.258-1.199c-0.006-0.019-0.006-0.036-0.006-0.048
		c0-0.072,0.055-0.132,0.139-0.156c0.023-0.006,0.047-0.012,0.071-0.012c0.078,0,0.144,0.036,0.174,0.12
		c0.108,0.329,0.233,0.857,0.294,1.229C43.116,18.725,43.116,18.73,43.116,18.742z M43.823,15.378
		c-0.155,0.313-0.335,0.605-0.527,0.846c-0.041,0.054-0.102,0.084-0.168,0.084c-0.054,0-0.102-0.018-0.144-0.06
		c-0.054-0.055-0.084-0.12-0.084-0.181c0-0.054,0.019-0.102,0.054-0.144c0.366-0.443,0.666-1.056,0.863-1.745
		c0.031-0.096,0.103-0.138,0.192-0.138c0.024,0,0.048,0.006,0.078,0.012c0.108,0.024,0.174,0.084,0.174,0.18
		c0,0.024-0.006,0.042-0.013,0.072c-0.059,0.21-0.137,0.426-0.227,0.647h1.42c0.367,0,0.547,0.156,0.547,0.54
		c0,1.445-0.114,2.65-0.301,3.37c-0.119,0.462-0.365,0.605-0.875,0.605c-0.281,0-0.492-0.018-0.66-0.06
		c-0.09-0.019-0.149-0.108-0.149-0.216c0-0.024,0-0.042,0.006-0.066c0.024-0.114,0.097-0.186,0.192-0.186
		c0.018,0,0.041,0,0.06,0.006c0.144,0.042,0.3,0.06,0.521,0.06c0.288,0,0.39-0.042,0.462-0.329c0.156-0.6,0.275-1.854,0.275-3.101
		c0-0.15-0.053-0.198-0.197-0.198H43.823z M43.848,16.176c0.065,0,0.131,0.03,0.174,0.09c0.258,0.354,0.545,0.857,0.713,1.247
		c0.012,0.03,0.018,0.061,0.018,0.09c0,0.084-0.047,0.162-0.137,0.21c-0.049,0.019-0.091,0.03-0.133,0.03
		c-0.084,0-0.156-0.048-0.197-0.144c-0.15-0.378-0.396-0.828-0.648-1.193c-0.029-0.042-0.041-0.078-0.041-0.114
		c0-0.072,0.041-0.132,0.113-0.174C43.751,16.188,43.799,16.176,43.848,16.176z"/>
	<path d="M47.827,15.108c0.029-0.126,0.048-0.252,0.061-0.378h-0.93c-0.084,0-0.133-0.078-0.133-0.174
		c0-0.102,0.049-0.162,0.133-0.162h0.953c0.006-0.084,0.006-0.174,0.006-0.27s0.078-0.156,0.204-0.156
		c0.12,0,0.198,0.048,0.198,0.156c0,0.096,0,0.186-0.006,0.27h0.725c0.096,0,0.139,0.061,0.139,0.162
		c0,0.096-0.043,0.174-0.139,0.174h-0.75c-0.018,0.126-0.035,0.252-0.065,0.378h0.894c0.09,0,0.132,0.06,0.132,0.162
		c0,0.096-0.042,0.174-0.132,0.174H48.3c0.198,0.186,0.413,0.312,0.624,0.396c0.065,0.03,0.102,0.102,0.102,0.168
		c0,0.036-0.006,0.066-0.023,0.09c-0.049,0.066-0.097,0.103-0.162,0.103c-0.036,0-0.078-0.013-0.127-0.036
		c-0.227-0.108-0.479-0.307-0.684-0.552c-0.029,0.06-0.065,0.12-0.107,0.174c-0.228,0.336-0.611,0.605-0.995,0.785
		c-0.042,0.019-0.091,0.03-0.126,0.03c-0.072,0-0.133-0.036-0.174-0.108c-0.012-0.035-0.024-0.071-0.024-0.102
		c0-0.072,0.042-0.132,0.126-0.168c0.378-0.149,0.732-0.378,0.906-0.642c0.029-0.042,0.06-0.09,0.077-0.138h-0.972
		c-0.084,0-0.131-0.078-0.131-0.174c0-0.097,0.047-0.162,0.131-0.162H47.827z M48.528,18.784c0.066,0,0.133,0.024,0.174,0.084
		c0.03,0.036,0.043,0.078,0.043,0.12c0,0.06-0.037,0.12-0.108,0.162c-0.491,0.222-1.116,0.39-1.703,0.449c-0.013,0-0.024,0-0.036,0
		c-0.107,0-0.197-0.071-0.216-0.191c0-0.013,0-0.024,0-0.036c0-0.108,0.078-0.18,0.192-0.192c0.497-0.042,1.085-0.174,1.529-0.365
		C48.444,18.796,48.487,18.784,48.528,18.784z M47.766,18.664c-0.342,0-0.485-0.126-0.485-0.432v-1.499
		c0-0.282,0.204-0.432,0.522-0.432h3.147c0.349,0,0.528,0.149,0.528,0.432v1.499c0,0.306-0.15,0.432-0.492,0.432H47.766z
		 M51.053,16.775c0-0.108-0.061-0.138-0.168-0.138h-3.017c-0.108,0-0.162,0.029-0.162,0.138v0.204h3.347V16.775z M51.053,17.297
		h-3.347v0.342h3.347V17.297z M47.707,17.957v0.228c0,0.108,0.054,0.138,0.162,0.138h3.017c0.107,0,0.168-0.029,0.168-0.138v-0.228
		H47.707z M50.345,15.108c0.036-0.126,0.054-0.252,0.071-0.378h-0.761c-0.084,0-0.132-0.078-0.132-0.174
		c0-0.102,0.048-0.162,0.132-0.162h0.785c0.007-0.084,0.007-0.174,0.007-0.27c0-0.108,0.077-0.156,0.203-0.156
		c0.12,0,0.198,0.054,0.198,0.156c0,0.096,0,0.186-0.007,0.27h0.96c0.097,0,0.138,0.061,0.138,0.162
		c0,0.096-0.041,0.174-0.138,0.174h-0.989c-0.012,0.126-0.036,0.252-0.072,0.378H52c0.09,0,0.132,0.06,0.132,0.162
		c0,0.096-0.042,0.174-0.132,0.174h-1.056c0.271,0.3,0.642,0.527,1.038,0.701c0.096,0.042,0.131,0.108,0.131,0.174
		c0,0.036-0.006,0.072-0.023,0.103c-0.036,0.078-0.102,0.113-0.174,0.113c-0.036,0-0.066-0.006-0.102-0.023
		c-0.492-0.222-0.966-0.588-1.23-1.002c-0.012,0.013-0.018,0.03-0.029,0.042c-0.174,0.294-0.492,0.582-0.846,0.726
		c-0.042,0.019-0.078,0.024-0.107,0.024c-0.072,0-0.139-0.036-0.174-0.108c-0.019-0.029-0.024-0.06-0.024-0.084
		c0-0.071,0.042-0.132,0.132-0.168c0.258-0.102,0.539-0.287,0.672-0.497h-0.666c-0.084,0-0.132-0.078-0.132-0.174
		c0-0.097,0.048-0.162,0.132-0.162H50.345z M50.003,18.982c0-0.042,0.019-0.084,0.042-0.12c0.048-0.054,0.113-0.078,0.186-0.078
		c0.043,0,0.084,0.006,0.12,0.024c0.438,0.197,1.032,0.323,1.541,0.365c0.132,0.013,0.192,0.097,0.192,0.198
		c0,0.012,0,0.018-0.006,0.03c-0.012,0.132-0.09,0.191-0.217,0.191c-0.012,0-0.023,0-0.035,0c-0.553-0.042-1.193-0.204-1.709-0.443
		C50.04,19.108,50.003,19.048,50.003,18.982z"/>
	<path d="M56.112,15.384c0.035,0.72,0.119,1.325,0.27,1.842c0.029,0.102,0.06,0.203,0.102,0.306c0.3-0.438,0.54-0.93,0.708-1.47
		c0.03-0.09,0.096-0.132,0.174-0.132c0.036,0,0.071,0.006,0.108,0.024c0.102,0.029,0.155,0.096,0.155,0.186
		c0,0.03-0.006,0.061-0.012,0.09c-0.21,0.654-0.528,1.254-0.93,1.77c0.187,0.371,0.413,0.678,0.642,0.857
		c0.066,0.054,0.126,0.078,0.168,0.078c0.054,0,0.09-0.036,0.12-0.108c0.042-0.102,0.09-0.33,0.108-0.575
		c0.012-0.126,0.096-0.187,0.215-0.187c0.006,0,0.012,0,0.019,0c0.126,0.006,0.204,0.084,0.204,0.198c0,0.006,0,0.006,0,0.012
		c-0.024,0.33-0.108,0.702-0.246,0.924c-0.102,0.168-0.234,0.252-0.384,0.252c-0.132,0-0.282-0.066-0.444-0.187
		c-0.252-0.197-0.504-0.516-0.719-0.894c-0.42,0.45-0.918,0.816-1.47,1.086c-0.048,0.023-0.096,0.036-0.144,0.036
		c-0.072,0-0.145-0.036-0.186-0.108c-0.031-0.048-0.043-0.096-0.043-0.138c0-0.078,0.043-0.144,0.127-0.186
		c0.581-0.271,1.091-0.654,1.504-1.128c-0.071-0.162-0.131-0.336-0.186-0.516c-0.168-0.558-0.264-1.224-0.306-2.033h-1.871
		c-0.161,0-0.228,0.066-0.228,0.234v0.707h1.104c0.336,0,0.492,0.156,0.492,0.492c0,0.45-0.066,1.043-0.15,1.361
		c-0.09,0.378-0.294,0.468-0.666,0.468c-0.156,0-0.39-0.019-0.539-0.061c-0.103-0.029-0.162-0.096-0.162-0.191
		c0-0.024,0.006-0.054,0.012-0.078c0.023-0.107,0.084-0.149,0.168-0.149c0.023,0,0.048,0.006,0.078,0.012
		c0.113,0.023,0.275,0.042,0.396,0.042c0.204,0,0.264-0.03,0.3-0.186c0.072-0.294,0.113-0.738,0.113-1.134
		c0-0.126-0.053-0.162-0.18-0.162h-0.971c-0.024,1.044-0.18,1.877-0.546,2.614c-0.042,0.103-0.114,0.139-0.198,0.139
		c-0.048,0-0.102-0.013-0.15-0.042c-0.077-0.036-0.119-0.097-0.119-0.168c0-0.042,0.012-0.09,0.036-0.145
		c0.407-0.779,0.527-1.637,0.527-2.938v-0.69c0-0.365,0.181-0.552,0.546-0.552h1.99c-0.006-0.239-0.012-0.485-0.012-0.749
		c0-0.114,0.096-0.174,0.223-0.174c0.131,0,0.228,0.06,0.228,0.174c0,0.264,0,0.51,0.012,0.749h1.829c0.113,0,0.162,0.09,0.162,0.21
		c0,0.126-0.049,0.216-0.162,0.216H56.112z M57.526,14.515c0.061,0.048,0.084,0.108,0.084,0.162c0,0.048-0.018,0.096-0.047,0.132
		c-0.043,0.054-0.108,0.084-0.168,0.084c-0.049,0-0.096-0.019-0.145-0.054c-0.18-0.15-0.42-0.313-0.617-0.42
		c-0.066-0.036-0.096-0.097-0.096-0.156c0-0.042,0.012-0.084,0.041-0.12c0.043-0.06,0.103-0.09,0.168-0.09
		c0.036,0,0.078,0.012,0.114,0.03C57.071,14.185,57.346,14.358,57.526,14.515z"/>
</g>
<g>
	<path d="M24.371,38.411c0.108,0,0.162,0.078,0.162,0.204c0,0.114-0.054,0.204-0.162,0.204h-1.577c-0.108,0-0.162-0.09-0.162-0.204
		c0-0.12,0.054-0.204,0.162-0.204H24.371z M22.938,40.559c-0.102,0-0.156-0.097-0.156-0.198c0-0.108,0.054-0.198,0.156-0.198h1.313
		c0.102,0,0.156,0.09,0.156,0.192c0,0.107-0.054,0.204-0.156,0.204H22.938z M22.944,39.694c-0.102,0-0.156-0.09-0.156-0.197
		c0-0.108,0.054-0.198,0.156-0.198h1.308c0.096,0,0.15,0.09,0.15,0.198c0,0.102-0.054,0.197-0.15,0.197H22.944z M24.257,37.542
		c0.096,0,0.156,0.084,0.156,0.204c0,0.113-0.06,0.191-0.156,0.191H22.95c-0.096,0-0.156-0.078-0.156-0.191
		c0-0.12,0.06-0.204,0.156-0.204H24.257z M24.425,42.381c0,0.318-0.144,0.444-0.462,0.444h-0.695c-0.318,0-0.462-0.126-0.462-0.444
		v-0.947c0-0.306,0.144-0.426,0.462-0.426h0.695c0.318,0,0.462,0.12,0.462,0.426V42.381z M23.214,42.303
		c0,0.108,0.06,0.15,0.162,0.15h0.479c0.102,0,0.162-0.042,0.162-0.15V41.5c0-0.108-0.06-0.139-0.162-0.139h-0.479
		c-0.102,0-0.162,0.03-0.162,0.139V42.303z M27.346,39.977c0.33,0,0.479,0.126,0.479,0.407v1.176h0.21
		c0.102,0,0.156,0.072,0.156,0.18c0,0.108-0.054,0.187-0.156,0.187h-0.21v0.503c0,0.336-0.186,0.468-0.618,0.468
		c-0.186,0-0.384-0.006-0.545-0.035c-0.09-0.019-0.15-0.084-0.15-0.187c0-0.012,0-0.029,0.006-0.042
		c0.018-0.107,0.09-0.155,0.168-0.155c0.012,0,0.024,0,0.036,0.006c0.132,0.023,0.293,0.042,0.432,0.042
		c0.234,0,0.282-0.036,0.282-0.181v-0.419h-2.141v0.875c0,0.103-0.072,0.156-0.198,0.156c-0.12,0-0.204-0.054-0.204-0.156v-0.875
		h-0.18c-0.102,0-0.162-0.078-0.162-0.187c0-0.107,0.06-0.18,0.162-0.18h0.18v-1.176c0-0.281,0.15-0.407,0.479-0.407h0.774v-0.342
		h-1.409c-0.096,0-0.15-0.078-0.15-0.174c0-0.108,0.054-0.174,0.15-0.174h0.75v-0.402h-0.564c-0.084,0-0.138-0.077-0.138-0.161
		c0-0.097,0.054-0.181,0.138-0.181h0.564v-0.365h-0.696c-0.09,0-0.138-0.084-0.138-0.18c0-0.097,0.048-0.168,0.138-0.168h0.696
		v-0.282c0-0.108,0.078-0.156,0.198-0.156c0.132,0,0.198,0.048,0.198,0.156v0.282h0.912v-0.288c0-0.103,0.072-0.156,0.198-0.156
		s0.198,0.054,0.198,0.156v0.288h0.755c0.084,0,0.144,0.071,0.144,0.168c0,0.102-0.06,0.18-0.144,0.18H27.19v0.365h0.605
		c0.084,0,0.138,0.084,0.138,0.181c0,0.09-0.054,0.161-0.138,0.161H27.19v0.402h0.845c0.096,0,0.15,0.065,0.15,0.174
		c0,0.096-0.054,0.174-0.15,0.174h-1.499v0.342H27.346z M26.146,40.313h-0.696c-0.102,0-0.156,0.03-0.156,0.132v0.336h0.852V40.313z
		 M26.146,41.098h-0.852v0.462h0.852V41.098z M26.794,38.543v-0.365h-0.912v0.365H26.794z M26.794,39.287v-0.402h-0.912v0.402
		H26.794z M27.436,40.78v-0.336c0-0.102-0.054-0.132-0.156-0.132h-0.744v0.468H27.436z M27.436,41.56v-0.462h-0.899v0.462H27.436z"
		/>
	<path d="M28.83,39.449c-0.114,0-0.18-0.084-0.18-0.21s0.066-0.21,0.18-0.21h0.899v-0.75c-0.27,0.066-0.534,0.12-0.773,0.15
		c-0.018,0.006-0.03,0.006-0.048,0.006c-0.102,0-0.186-0.054-0.204-0.18c-0.006-0.013-0.006-0.03-0.006-0.049
		c0-0.102,0.066-0.18,0.174-0.197c0.647-0.09,1.391-0.288,1.943-0.546c0.042-0.018,0.084-0.024,0.126-0.024
		c0.078,0,0.144,0.036,0.174,0.108c0.024,0.042,0.03,0.078,0.03,0.114c0,0.084-0.048,0.161-0.132,0.197
		c-0.24,0.103-0.534,0.204-0.839,0.294v0.876h0.797c0.108,0,0.174,0.084,0.174,0.203c0,0.126-0.066,0.217-0.174,0.217h-0.761
		c0.198,0.426,0.552,0.899,0.857,1.175c0.054,0.048,0.084,0.114,0.084,0.174c0,0.054-0.018,0.108-0.06,0.15
		c-0.036,0.048-0.096,0.071-0.162,0.071c-0.054,0-0.114-0.018-0.156-0.065c-0.24-0.246-0.51-0.653-0.671-1.079
		c0.048,0.3,0.072,0.587,0.072,0.833v2.075c0,0.107-0.084,0.174-0.222,0.174c-0.138,0-0.228-0.066-0.228-0.174V40.93
		c0-0.3,0.042-0.653,0.09-0.947c-0.174,0.6-0.503,1.218-0.875,1.655c-0.054,0.06-0.126,0.096-0.198,0.096
		c-0.048,0-0.096-0.018-0.144-0.054c-0.054-0.048-0.084-0.114-0.084-0.18c0-0.061,0.024-0.114,0.072-0.168
		c0.498-0.522,0.845-1.164,1.073-1.883H28.83z M33.903,42.117c0,0.348-0.168,0.504-0.521,0.504H31.9
		c-0.354,0-0.521-0.156-0.521-0.504v-3.7c0-0.354,0.168-0.503,0.521-0.503h1.481c0.354,0,0.521,0.149,0.521,0.503V42.117z
		 M31.847,42.021c0,0.126,0.06,0.168,0.18,0.168h1.229c0.12,0,0.18-0.042,0.18-0.168v-3.508c0-0.132-0.06-0.168-0.18-0.168h-1.229
		c-0.12,0-0.18,0.036-0.18,0.168V42.021z"/>
	<path d="M34.878,40.99c-0.108,0-0.168-0.09-0.168-0.216s0.06-0.204,0.168-0.204h2.225v-0.516c0-0.108,0.084-0.168,0.216-0.168
		s0.229,0.06,0.229,0.168v0.516h2.326c0.107,0,0.168,0.078,0.168,0.204c0,0.119-0.061,0.216-0.168,0.216H37.84
		c0.504,0.539,1.338,1.049,2.087,1.295c0.108,0.036,0.162,0.12,0.162,0.222c0,0.03-0.007,0.066-0.019,0.097
		c-0.035,0.102-0.125,0.155-0.221,0.155c-0.031,0-0.061-0.006-0.091-0.018c-0.839-0.324-1.751-0.93-2.255-1.577
		c0.024,0.132,0.043,0.3,0.043,0.438v1.224c0,0.102-0.097,0.168-0.229,0.168s-0.216-0.066-0.216-0.168v-1.224
		c0-0.144,0.012-0.312,0.042-0.438c-0.51,0.63-1.284,1.199-2.153,1.564c-0.036,0.019-0.072,0.024-0.108,0.024
		c-0.09,0-0.168-0.054-0.204-0.156c-0.018-0.035-0.024-0.071-0.024-0.107c0-0.084,0.048-0.15,0.144-0.192
		c0.821-0.317,1.535-0.797,2.009-1.307H34.878z M38.547,37.806c0.259,0,0.402,0.15,0.402,0.33c0,0.09-0.042,0.191-0.126,0.281
		c-0.288,0.288-0.605,0.546-0.96,0.773c0.612,0.294,1.309,0.48,2.076,0.588c0.125,0.019,0.197,0.097,0.197,0.21
		c0,0.019,0,0.042-0.006,0.061c-0.023,0.138-0.107,0.197-0.216,0.197c-0.019,0-0.03,0-0.048-0.006
		c-0.9-0.132-1.721-0.396-2.43-0.804c-0.755,0.408-1.612,0.684-2.506,0.828c-0.018,0.006-0.036,0.006-0.054,0.006
		c-0.108,0-0.186-0.072-0.198-0.192c-0.006-0.012-0.006-0.023-0.006-0.042c0-0.102,0.06-0.191,0.174-0.21
		c0.792-0.113,1.535-0.335,2.183-0.642c-0.3-0.203-0.576-0.443-0.821-0.713c-0.306,0.264-0.648,0.503-1.001,0.671
		c-0.042,0.019-0.078,0.024-0.114,0.024c-0.078,0-0.15-0.042-0.192-0.12c-0.018-0.036-0.03-0.078-0.03-0.107
		c0-0.072,0.042-0.139,0.12-0.174c0.744-0.36,1.283-0.852,1.62-1.35c0.041-0.054,0.113-0.084,0.197-0.084
		c0.029,0,0.061,0.006,0.09,0.012c0.096,0.03,0.156,0.103,0.156,0.174c0,0.036-0.012,0.066-0.036,0.097
		c-0.042,0.06-0.09,0.125-0.144,0.191H38.547z M36.528,38.184c-0.013,0.012-0.024,0.018-0.031,0.03
		c0.283,0.287,0.599,0.552,0.948,0.755c0.335-0.197,0.642-0.42,0.899-0.671c0.036-0.036,0.054-0.061,0.054-0.078
		c0-0.024-0.036-0.036-0.096-0.036H36.528z"/>
	<path d="M41.688,40.402c-0.318,0.03-0.63,0.048-0.918,0.06c-0.006,0-0.006,0-0.012,0c-0.107,0-0.174-0.071-0.18-0.21
		c0-0.126,0.065-0.21,0.174-0.21c0.029,0,0.06,0,0.09,0c0.09,0,0.186,0,0.281-0.006c0.15-0.174,0.288-0.354,0.42-0.539
		c-0.252-0.313-0.563-0.636-0.827-0.864c-0.036-0.042-0.054-0.09-0.054-0.138c0-0.054,0.023-0.107,0.06-0.149
		c0.048-0.055,0.108-0.084,0.162-0.084c0.036,0,0.071,0.012,0.102,0.042c0.054,0.048,0.103,0.096,0.162,0.149
		c0.204-0.306,0.401-0.672,0.54-0.959c0.035-0.072,0.09-0.103,0.156-0.103c0.035,0,0.071,0.013,0.113,0.03
		c0.084,0.036,0.138,0.102,0.138,0.18c0,0.024-0.006,0.054-0.018,0.084c-0.156,0.313-0.378,0.689-0.642,1.056
		c0.125,0.132,0.246,0.27,0.359,0.408c0.234-0.336,0.456-0.678,0.63-0.99c0.042-0.065,0.108-0.102,0.174-0.102
		c0.036,0,0.071,0.012,0.108,0.03c0.078,0.042,0.131,0.107,0.131,0.186c0,0.03-0.006,0.06-0.029,0.09
		c-0.306,0.51-0.762,1.163-1.182,1.649c0.301-0.013,0.594-0.048,0.888-0.084c-0.06-0.138-0.12-0.271-0.174-0.378
		c-0.013-0.024-0.019-0.048-0.019-0.072c0-0.065,0.043-0.12,0.114-0.149c0.036-0.019,0.072-0.024,0.103-0.024
		c0.06,0,0.113,0.03,0.149,0.103c0.149,0.281,0.342,0.689,0.444,0.989c0.012,0.018,0.012,0.029,0.012,0.048
		c0,0.078-0.066,0.138-0.15,0.174c-0.029,0.012-0.06,0.018-0.096,0.018c-0.066,0-0.126-0.035-0.15-0.102
		c-0.023-0.078-0.053-0.162-0.084-0.252c-0.18,0.03-0.365,0.054-0.545,0.072v2.458c0,0.103-0.09,0.162-0.217,0.162
		c-0.125,0-0.215-0.06-0.215-0.162V40.402z M40.819,42.555c-0.025,0-0.055-0.006-0.078-0.012c-0.09-0.03-0.156-0.096-0.156-0.174
		c0-0.024,0.006-0.048,0.018-0.072c0.162-0.384,0.275-0.947,0.324-1.373c0.012-0.12,0.078-0.174,0.18-0.174
		c0.012,0,0.029,0,0.048,0.006c0.108,0.019,0.187,0.072,0.187,0.162c0,0.012,0,0.018,0,0.024c-0.049,0.485-0.162,1.067-0.33,1.486
		C40.98,42.513,40.902,42.555,40.819,42.555z M43.115,42.117c0,0.103-0.077,0.174-0.186,0.186c-0.019,0.007-0.036,0.007-0.048,0.007
		c-0.09,0-0.162-0.049-0.18-0.156c-0.055-0.348-0.156-0.869-0.258-1.199c-0.007-0.019-0.007-0.036-0.007-0.048
		c0-0.072,0.054-0.132,0.138-0.156c0.024-0.006,0.049-0.012,0.072-0.012c0.078,0,0.145,0.036,0.174,0.12
		c0.108,0.329,0.234,0.857,0.294,1.229C43.115,42.1,43.115,42.105,43.115,42.117z M43.823,38.753
		c-0.156,0.313-0.336,0.605-0.527,0.846c-0.043,0.054-0.103,0.084-0.168,0.084c-0.055,0-0.103-0.018-0.145-0.06
		c-0.054-0.055-0.084-0.12-0.084-0.181c0-0.054,0.018-0.102,0.055-0.144c0.365-0.443,0.665-1.056,0.863-1.745
		c0.029-0.096,0.102-0.138,0.191-0.138c0.023,0,0.048,0.006,0.078,0.012c0.107,0.024,0.174,0.084,0.174,0.18
		c0,0.024-0.006,0.042-0.012,0.072c-0.061,0.21-0.139,0.426-0.229,0.647h1.422c0.365,0,0.545,0.156,0.545,0.54
		c0,1.445-0.113,2.65-0.299,3.37c-0.121,0.462-0.366,0.605-0.876,0.605c-0.282,0-0.491-0.018-0.659-0.06
		c-0.09-0.019-0.15-0.108-0.15-0.216c0-0.024,0-0.042,0.006-0.066c0.023-0.114,0.096-0.186,0.191-0.186c0.019,0,0.043,0,0.061,0.006
		c0.145,0.042,0.3,0.06,0.521,0.06c0.288,0,0.391-0.042,0.462-0.329c0.155-0.6,0.276-1.854,0.276-3.101
		c0-0.15-0.055-0.198-0.198-0.198H43.823z M43.846,39.551c0.066,0,0.133,0.03,0.174,0.09c0.258,0.354,0.546,0.857,0.714,1.247
		c0.013,0.03,0.019,0.061,0.019,0.09c0,0.084-0.049,0.162-0.139,0.21c-0.048,0.019-0.09,0.03-0.132,0.03
		c-0.084,0-0.155-0.048-0.198-0.144c-0.149-0.378-0.395-0.828-0.646-1.193c-0.031-0.042-0.043-0.078-0.043-0.114
		c0-0.072,0.043-0.132,0.114-0.174C43.75,39.563,43.798,39.551,43.846,39.551z"/>
	<path d="M47.868,39.581c-0.042,1.289-0.252,2.368-0.756,3.16c-0.042,0.09-0.119,0.132-0.197,0.132
		c-0.049,0-0.096-0.012-0.145-0.042c-0.078-0.048-0.119-0.12-0.119-0.204c0-0.042,0.012-0.084,0.029-0.126
		c0.582-0.863,0.726-2.099,0.726-3.67v-0.558c0-0.396,0.198-0.569,0.581-0.569h3.826c0.114,0,0.18,0.09,0.18,0.216
		c0,0.132-0.065,0.228-0.18,0.228h-3.67c-0.197,0-0.264,0.06-0.264,0.252v0.75h3.148c0.318,0,0.479,0.161,0.479,0.396
		c0,0.09-0.018,0.18-0.06,0.281c-0.258,0.624-0.678,1.206-1.211,1.703c0.533,0.384,1.133,0.66,1.69,0.846
		c0.108,0.036,0.168,0.114,0.168,0.21c0,0.042-0.006,0.078-0.024,0.12c-0.035,0.114-0.119,0.174-0.233,0.174
		c-0.03,0-0.065-0.006-0.103-0.018c-0.617-0.21-1.283-0.54-1.864-1.014c-0.528,0.42-1.14,0.762-1.793,1.001
		c-0.042,0.019-0.091,0.024-0.126,0.024c-0.096,0-0.174-0.048-0.21-0.138c-0.019-0.042-0.024-0.078-0.024-0.114
		c0-0.096,0.061-0.174,0.198-0.222c0.569-0.204,1.122-0.498,1.601-0.857c-0.336-0.324-0.617-0.69-0.839-1.092
		c-0.149-0.275-0.265-0.569-0.349-0.869H47.868z M48.792,39.581c0.191,0.653,0.581,1.211,1.085,1.661
		c0.485-0.433,0.863-0.936,1.079-1.487c0.018-0.036,0.024-0.066,0.024-0.09c0-0.061-0.042-0.084-0.149-0.084H48.792z"/>
	<path d="M52.8,38.825c-0.114,0-0.174-0.084-0.174-0.204c0-0.126,0.06-0.216,0.174-0.216h1.067v-0.81
		c0-0.114,0.096-0.168,0.228-0.168c0.138,0,0.233,0.054,0.233,0.168v0.81h0.924c0.108,0,0.168,0.084,0.168,0.21
		s-0.06,0.21-0.168,0.21h-0.377c-0.03,0.653-0.15,1.313-0.408,1.919c0.294,0.384,0.57,0.768,0.785,1.121
		c0.03,0.048,0.043,0.09,0.043,0.132c0,0.078-0.043,0.145-0.103,0.192c-0.042,0.036-0.097,0.054-0.144,0.054
		c-0.072,0-0.145-0.036-0.198-0.114c-0.155-0.275-0.372-0.6-0.6-0.923c-0.042,0.071-0.084,0.144-0.126,0.21
		c-0.313,0.497-0.66,0.923-1.049,1.235c-0.072,0.054-0.139,0.09-0.205,0.09c-0.053,0-0.107-0.024-0.149-0.072
		c-0.048-0.048-0.071-0.107-0.071-0.162c0-0.054,0.023-0.107,0.084-0.155c0.426-0.349,0.779-0.738,1.061-1.212
		c0.061-0.102,0.12-0.21,0.168-0.312c-0.3-0.378-0.653-0.792-0.959-1.115c-0.043-0.042-0.061-0.09-0.061-0.138
		c0-0.061,0.024-0.114,0.084-0.168c0.042-0.036,0.102-0.061,0.162-0.061c0.055,0,0.107,0.019,0.15,0.061
		c0.27,0.287,0.557,0.611,0.827,0.947c0.18-0.486,0.258-1.014,0.27-1.529H52.8z M55.655,39.694c0.072,0,0.138,0.03,0.18,0.084
		c0.27,0.336,0.533,0.773,0.707,1.134c0.019,0.036,0.024,0.072,0.024,0.102c0,0.078-0.042,0.15-0.126,0.198
		c-0.042,0.023-0.084,0.036-0.125,0.036c-0.078,0-0.15-0.042-0.193-0.132c-0.155-0.33-0.413-0.75-0.677-1.08
		c-0.03-0.036-0.042-0.078-0.042-0.119c0-0.066,0.035-0.133,0.107-0.181C55.559,39.707,55.606,39.694,55.655,39.694z M58.005,38.759
		c0.108,0,0.174,0.09,0.174,0.216s-0.065,0.216-0.174,0.216h-0.546v3.095c0,0.39-0.222,0.569-0.756,0.569
		c-0.228,0-0.449-0.018-0.594-0.054c-0.102-0.023-0.155-0.09-0.155-0.197c0-0.024,0-0.049,0.006-0.078
		c0.03-0.12,0.103-0.174,0.192-0.174c0.018,0,0.029,0,0.047,0.006c0.133,0.036,0.289,0.048,0.45,0.048
		c0.282,0,0.354-0.048,0.354-0.234v-2.98h-1.355c-0.114,0-0.174-0.09-0.174-0.209c0-0.133,0.06-0.223,0.174-0.223h1.355v-1.127
		c0-0.114,0.09-0.168,0.228-0.168s0.228,0.054,0.228,0.168v1.127H58.005z"/>
</g>
<g>
	<path d="M89.848,4.293c0.102,0,0.162,0.078,0.162,0.198c0,0.114-0.061,0.21-0.162,0.21h-1.631c-0.108,0-0.162-0.09-0.162-0.21
		s0.054-0.198,0.162-0.198H89.848z M88.391,5.583c-0.103,0-0.15-0.096-0.15-0.203c0-0.103,0.048-0.192,0.15-0.192h1.283
		c0.102,0,0.149,0.084,0.149,0.192c0,0.107-0.048,0.203-0.149,0.203H88.391z M88.391,6.441c-0.103,0-0.15-0.097-0.15-0.204
		c0-0.103,0.048-0.192,0.15-0.192h1.277c0.102,0,0.149,0.084,0.149,0.192c0,0.107-0.048,0.204-0.149,0.204H88.391z M89.866,8.263
		c0,0.306-0.144,0.432-0.443,0.432h-0.737c-0.3,0-0.444-0.126-0.444-0.432V7.304c0-0.306,0.145-0.426,0.444-0.426h0.737
		c0.3,0,0.443,0.12,0.443,0.426V8.263z M89.704,3.424c0.097,0,0.15,0.078,0.15,0.191c0,0.108-0.054,0.204-0.15,0.204h-1.307
		c-0.103,0-0.15-0.096-0.15-0.204c0-0.107,0.048-0.191,0.15-0.191H89.704z M89.296,8.324c0.107,0,0.162-0.03,0.162-0.139V7.37
		c0-0.107-0.055-0.138-0.162-0.138h-0.485c-0.103,0-0.162,0.03-0.162,0.138v0.815c0,0.108,0.06,0.139,0.162,0.139H89.296z
		 M93.284,5.865c0.084,0,0.108,0.072,0.108,0.156c0,0.078-0.024,0.144-0.108,0.144h-1.079v0.318H93.5
		c0.091,0,0.133,0.065,0.133,0.155S93.59,6.806,93.5,6.806h-2.668c-0.324,0-0.479-0.114-0.479-0.42V5.733
		c0-0.108,0.006-0.204,0.012-0.3c-0.066,0.084-0.138,0.168-0.21,0.246c-0.048,0.054-0.102,0.078-0.156,0.078
		c-0.048,0-0.096-0.024-0.138-0.066c-0.036-0.036-0.054-0.084-0.054-0.132s0.023-0.102,0.065-0.15
		c0.282-0.275,0.564-0.647,0.72-1.043c0.03-0.072,0.084-0.108,0.162-0.108c0.024,0,0.048,0.007,0.078,0.013
		c0.084,0.023,0.132,0.071,0.132,0.144c0,0.03-0.012,0.066-0.03,0.108c-0.023,0.048-0.048,0.096-0.078,0.144
		c0.078-0.006,0.162-0.012,0.259-0.012h0.689c0.065-0.103,0.12-0.21,0.161-0.3c0.024-0.061,0.072-0.084,0.15-0.084
		c0.024,0,0.054,0.006,0.09,0.012c0.09,0.018,0.144,0.065,0.144,0.132c0,0.018-0.006,0.036-0.012,0.054
		c-0.029,0.061-0.071,0.126-0.113,0.187h1.199c0.096,0,0.132,0.071,0.132,0.161c0,0.091-0.036,0.156-0.132,0.156h-1.218v0.3h1.073
		c0.084,0,0.114,0.072,0.114,0.15c0,0.084-0.03,0.144-0.114,0.144h-1.073v0.3H93.284z M90.262,7.43
		c-0.097,0-0.133-0.072-0.133-0.168c0-0.09,0.036-0.162,0.133-0.162h2.578c0.204,0,0.3,0.126,0.3,0.258
		c0,0.084-0.036,0.18-0.114,0.246c-0.233,0.216-0.491,0.401-0.761,0.558c0.407,0.144,0.839,0.222,1.253,0.27
		c0.114,0.013,0.174,0.09,0.174,0.187c0,0.018,0,0.035-0.006,0.054c-0.024,0.114-0.072,0.174-0.187,0.174c-0.006,0-0.018,0-0.029,0
		c-0.51-0.054-1.098-0.216-1.625-0.468c-0.54,0.24-1.122,0.39-1.739,0.492c-0.012,0-0.019,0-0.03,0c-0.09,0-0.162-0.055-0.191-0.162
		c-0.006-0.019-0.006-0.042-0.006-0.061c0-0.084,0.048-0.155,0.144-0.168c0.491-0.065,0.966-0.18,1.392-0.342
		c-0.294-0.186-0.582-0.419-0.78-0.707H90.262z M93.482,3.664c0.102,0,0.156,0.066,0.156,0.181c0,0.107-0.055,0.174-0.156,0.174
		h-0.779v0.204c0,0.102-0.078,0.149-0.21,0.149c-0.12,0-0.21-0.048-0.21-0.149V4.018h-0.983v0.197c0,0.097-0.078,0.15-0.21,0.15
		c-0.126,0-0.21-0.054-0.21-0.15V4.018H90.19c-0.103,0-0.15-0.066-0.15-0.174c0-0.114,0.048-0.181,0.15-0.181h0.689v-0.27
		c0-0.096,0.084-0.149,0.21-0.149c0.132,0,0.21,0.054,0.21,0.149v0.27h0.983V3.4c0-0.102,0.09-0.149,0.21-0.149
		c0.132,0,0.21,0.048,0.21,0.149v0.264H93.482z M90.904,4.971c-0.103,0-0.156,0.036-0.156,0.144v0.156h1.085v-0.3H90.904z
		 M91.833,5.565h-1.085v0.3h1.085V5.565z M90.748,6.165v0.18c0,0.108,0.054,0.139,0.156,0.139h0.929V6.165H90.748z M91.101,7.43
		c0.204,0.216,0.45,0.401,0.714,0.539c0.264-0.126,0.504-0.275,0.714-0.443c0.036-0.018,0.048-0.042,0.048-0.06
		c0-0.019-0.024-0.036-0.072-0.036H91.101z"/>
	<path d="M95.17,7.706c0,0.03-0.006,0.061-0.024,0.09c-0.197,0.348-0.426,0.606-0.677,0.828c-0.042,0.036-0.091,0.054-0.139,0.054
		c-0.06,0-0.12-0.03-0.174-0.084c-0.042-0.048-0.065-0.102-0.065-0.156c0-0.06,0.023-0.107,0.071-0.149
		c0.246-0.204,0.444-0.426,0.6-0.684c0.036-0.066,0.103-0.103,0.174-0.103c0.036,0,0.072,0.007,0.108,0.024
		C95.128,7.568,95.17,7.634,95.17,7.706z M94.901,4.702c-0.09,0-0.132-0.072-0.132-0.162c0-0.084,0.048-0.156,0.138-0.156h1.69
		V4.246c0-0.102,0.078-0.149,0.198-0.149C96.921,4.096,97,4.144,97,4.246v0.138h1.769c0.084,0,0.139,0.061,0.139,0.156
		c0,0.09-0.055,0.162-0.139,0.162H97v0.275h1.661c0.084,0,0.138,0.061,0.138,0.156c0,0.09-0.054,0.156-0.138,0.156H97v0.281h2.41
		c0.09,0,0.145,0.061,0.145,0.162S99.5,5.907,99.41,5.907h-5.169c-0.09,0-0.144-0.072-0.144-0.168s0.054-0.168,0.144-0.168h2.356
		V5.29h-1.589c-0.084,0-0.132-0.072-0.132-0.156c0-0.09,0.048-0.156,0.132-0.156h1.589V4.702H94.901z M98.918,3.67
		c0.365,0,0.533,0.132,0.533,0.443v0.414c0,0.102-0.084,0.168-0.228,0.168s-0.222-0.066-0.222-0.174V4.173
		c0-0.107-0.054-0.144-0.187-0.144h-3.963c-0.133,0-0.192,0.036-0.192,0.144v0.354c0,0.102-0.078,0.168-0.222,0.168
		c-0.145,0-0.222-0.066-0.222-0.181V4.114c0-0.312,0.168-0.443,0.533-0.443h1.829V3.364c0-0.107,0.072-0.168,0.216-0.168
		c0.156,0,0.222,0.061,0.222,0.168V3.67H98.918z M98.625,6.165c0.312,0,0.462,0.12,0.462,0.408V6.89c0,0.288-0.15,0.402-0.462,0.402
		h-3.598c-0.307,0-0.456-0.114-0.456-0.402V6.573c0-0.288,0.149-0.408,0.456-0.408H98.625z M95.944,6.47h-0.798
		c-0.102,0-0.155,0.03-0.155,0.138v0.24c0,0.108,0.054,0.138,0.155,0.138h0.798V6.47z M95.596,7.616
		c0-0.107,0.078-0.174,0.216-0.174c0.126,0,0.216,0.066,0.216,0.174V8.15c0,0.155,0.084,0.191,0.39,0.21
		c0.132,0.006,0.282,0.012,0.432,0.012c0.271,0,0.546-0.019,0.756-0.048c0.162-0.019,0.24-0.066,0.27-0.145
		c0.036-0.077,0.049-0.168,0.061-0.258c0.006-0.084,0.071-0.12,0.162-0.12c0.018,0,0.035,0,0.06,0.007
		c0.12,0.012,0.198,0.09,0.198,0.18c0,0.012,0,0.018,0,0.03c-0.024,0.161-0.061,0.329-0.126,0.426
		c-0.072,0.149-0.21,0.222-0.492,0.251c-0.239,0.03-0.527,0.049-0.833,0.049c-0.181,0-0.372-0.007-0.564-0.019
		c-0.6-0.023-0.743-0.132-0.743-0.456V7.616z M97.275,6.986V6.47h-0.953v0.516H97.275z M97.407,7.772
		c0.036,0.029,0.061,0.078,0.061,0.132c0,0.042-0.012,0.084-0.036,0.12c-0.054,0.06-0.126,0.096-0.192,0.096
		c-0.035,0-0.077-0.012-0.102-0.036c-0.162-0.132-0.396-0.264-0.605-0.372c-0.054-0.029-0.078-0.077-0.078-0.126
		c0-0.042,0.018-0.09,0.048-0.132c0.048-0.06,0.103-0.078,0.15-0.078c0.036,0,0.071,0.013,0.107,0.024
		C96.969,7.496,97.233,7.64,97.407,7.772z M97.653,6.986h0.852c0.108,0,0.162-0.029,0.162-0.138v-0.24
		c0-0.107-0.054-0.138-0.162-0.138h-0.852V6.986z M99.482,8.276c0.036,0.048,0.054,0.096,0.054,0.144
		c0,0.072-0.036,0.138-0.102,0.18c-0.048,0.042-0.102,0.061-0.156,0.061c-0.06,0-0.113-0.03-0.155-0.091
		c-0.187-0.27-0.42-0.533-0.672-0.779c-0.042-0.042-0.061-0.084-0.061-0.132c0-0.054,0.03-0.107,0.084-0.149
		c0.042-0.03,0.091-0.049,0.133-0.049c0.054,0,0.107,0.024,0.155,0.061C99.033,7.742,99.278,8.024,99.482,8.276z"/>
	<path d="M103.239,8.011c0,0.252-0.191,0.414-0.413,0.414c-0.234,0-0.414-0.162-0.414-0.414c0-0.251,0.18-0.413,0.414-0.413
		C103.047,7.598,103.239,7.76,103.239,8.011z M102.501,3.958c0-0.168,0.132-0.275,0.33-0.275c0.191,0,0.324,0.107,0.317,0.275
		l-0.084,3.07c-0.006,0.139-0.119,0.204-0.239,0.204c-0.126,0-0.24-0.065-0.24-0.204L102.501,3.958z"/>
	<path d="M92.294,12.901c-0.084,0.246-0.162,0.485-0.281,0.714c-0.168,0.306-0.378,0.587-0.618,0.845
		c0.63,0.234,1.266,0.51,1.812,0.81c0.084,0.042,0.126,0.114,0.126,0.198c0,0.042-0.013,0.09-0.042,0.144
		c-0.049,0.084-0.12,0.133-0.204,0.133c-0.048,0-0.096-0.013-0.15-0.042c-0.569-0.33-1.235-0.642-1.913-0.912
		c-0.647,0.504-1.493,0.821-2.5,1.002c-0.013,0-0.024,0-0.03,0c-0.114,0-0.216-0.061-0.24-0.198
		c-0.006-0.024-0.006-0.042-0.006-0.06c0-0.12,0.078-0.204,0.187-0.216c0.81-0.139,1.511-0.354,2.08-0.72
		c-0.432-0.15-0.863-0.282-1.259-0.384c-0.15-0.036-0.234-0.156-0.234-0.288c0-0.084,0.03-0.168,0.097-0.246
		c0.191-0.233,0.378-0.497,0.558-0.779h-1.338c-0.107,0-0.168-0.096-0.168-0.216c0-0.126,0.061-0.216,0.168-0.216h1.584
		c0.138-0.264,0.258-0.534,0.348-0.792c0.036-0.102,0.096-0.149,0.191-0.149c0.03,0,0.061,0.006,0.096,0.018
		c0.114,0.036,0.181,0.103,0.181,0.198c0,0.029-0.006,0.065-0.024,0.107c-0.084,0.204-0.18,0.414-0.288,0.618h2.927
		c0.114,0,0.174,0.09,0.174,0.216c0,0.12-0.06,0.216-0.174,0.216H92.294z M92.894,10.886c0.36,0,0.522,0.155,0.522,0.51v0.569
		c0,0.12-0.097,0.18-0.24,0.18c-0.138,0-0.24-0.06-0.24-0.174v-0.485c0-0.132-0.065-0.174-0.191-0.174h-3.82
		c-0.126,0-0.191,0.042-0.191,0.174v0.485c0,0.114-0.103,0.174-0.24,0.174c-0.144,0-0.24-0.06-0.24-0.18v-0.569
		c0-0.354,0.162-0.51,0.522-0.51h1.793v-0.432c0-0.126,0.084-0.192,0.233-0.192c0.156,0,0.234,0.066,0.234,0.192v0.432H92.894z
		 M90.184,12.901c-0.18,0.3-0.372,0.582-0.57,0.833c-0.029,0.042-0.048,0.072-0.048,0.091c0,0.029,0.03,0.054,0.108,0.071
		c0.378,0.108,0.804,0.24,1.247,0.39c0.264-0.228,0.479-0.51,0.642-0.815c0.096-0.18,0.162-0.371,0.234-0.569H90.184z"/>
	<path d="M94.733,13.249c0-0.24,0.023-0.51,0.06-0.768c-0.12,0.21-0.27,0.443-0.414,0.605c-0.054,0.061-0.119,0.097-0.191,0.097
		c-0.054,0-0.108-0.019-0.156-0.061c-0.06-0.054-0.09-0.114-0.09-0.18c0-0.048,0.019-0.096,0.054-0.138
		c0.6-0.678,1.014-1.439,1.266-2.369c0.024-0.102,0.096-0.149,0.198-0.149c0.029,0,0.06,0.006,0.09,0.012
		c0.113,0.03,0.18,0.096,0.18,0.191c0,0.024,0,0.042-0.012,0.066c-0.12,0.401-0.3,0.84-0.528,1.289v3.82
		c0,0.113-0.09,0.174-0.228,0.174s-0.228-0.061-0.228-0.174V13.249z M96.459,12.481c-0.33,0-0.474-0.144-0.474-0.438v-1.05
		c0-0.3,0.156-0.449,0.485-0.449h2.249c0.33,0,0.479,0.144,0.479,0.443v1.056c0,0.294-0.149,0.438-0.479,0.438h-0.983v0.594h1.68
		c0.102,0,0.161,0.09,0.161,0.21c0,0.114-0.06,0.216-0.161,0.216h-1.47c0.45,0.642,1.02,1.079,1.613,1.392
		c0.084,0.042,0.126,0.113,0.126,0.197c0,0.048-0.012,0.096-0.042,0.145c-0.042,0.09-0.114,0.132-0.198,0.132
		c-0.048,0-0.096-0.013-0.144-0.042c-0.624-0.342-1.296-0.941-1.607-1.638c0.024,0.168,0.042,0.372,0.042,0.546v1.434
		c0,0.113-0.078,0.18-0.216,0.18s-0.216-0.066-0.216-0.18v-1.434c0-0.18,0.018-0.365,0.048-0.533
		c-0.336,0.755-0.959,1.277-1.577,1.648c-0.048,0.024-0.09,0.036-0.138,0.036c-0.072,0-0.15-0.036-0.198-0.107
		c-0.036-0.049-0.048-0.097-0.048-0.145c0-0.078,0.042-0.149,0.12-0.191c0.552-0.3,1.14-0.756,1.589-1.439h-1.385
		c-0.103,0-0.168-0.102-0.168-0.216c0-0.12,0.065-0.21,0.168-0.21h1.589v-0.594H96.459z M98.583,12.067
		c0.114,0,0.168-0.029,0.168-0.144v-0.815c0-0.114-0.054-0.145-0.168-0.145H96.61c-0.114,0-0.181,0.036-0.181,0.15v0.81
		c0,0.114,0.061,0.144,0.168,0.144H98.583z"/>
	<path d="M101.327,12.463c-0.042,1.289-0.252,2.368-0.756,3.16c-0.042,0.09-0.12,0.132-0.198,0.132
		c-0.048,0-0.096-0.012-0.144-0.042c-0.078-0.048-0.12-0.12-0.12-0.204c0-0.042,0.012-0.084,0.03-0.126
		c0.581-0.863,0.726-2.099,0.726-3.67v-0.558c0-0.396,0.197-0.569,0.581-0.569h3.826c0.114,0,0.18,0.09,0.18,0.216
		c0,0.132-0.065,0.228-0.18,0.228h-3.67c-0.198,0-0.264,0.06-0.264,0.252v0.75h3.148c0.317,0,0.479,0.161,0.479,0.396
		c0,0.09-0.018,0.18-0.06,0.281c-0.258,0.624-0.678,1.206-1.212,1.703c0.534,0.384,1.134,0.66,1.691,0.846
		c0.107,0.036,0.168,0.114,0.168,0.21c0,0.042-0.006,0.078-0.024,0.12c-0.036,0.114-0.12,0.174-0.233,0.174
		c-0.03,0-0.066-0.006-0.103-0.018c-0.617-0.21-1.283-0.54-1.864-1.014c-0.528,0.42-1.14,0.762-1.793,1.001
		c-0.042,0.019-0.091,0.024-0.126,0.024c-0.097,0-0.174-0.048-0.21-0.138c-0.019-0.042-0.024-0.078-0.024-0.114
		c0-0.096,0.061-0.174,0.198-0.222c0.569-0.204,1.121-0.498,1.601-0.857c-0.336-0.324-0.617-0.69-0.839-1.092
		c-0.15-0.275-0.265-0.569-0.349-0.869H101.327z M102.25,12.463c0.192,0.653,0.582,1.211,1.086,1.661
		c0.485-0.433,0.863-0.936,1.079-1.487c0.018-0.036,0.024-0.066,0.024-0.09c0-0.061-0.042-0.084-0.15-0.084H102.25z"/>
	<path d="M106.259,11.708c-0.114,0-0.174-0.084-0.174-0.204c0-0.126,0.06-0.216,0.174-0.216h1.067v-0.81
		c0-0.114,0.096-0.168,0.228-0.168c0.138,0,0.233,0.054,0.233,0.168v0.81h0.924c0.108,0,0.168,0.084,0.168,0.21
		s-0.06,0.21-0.168,0.21h-0.378c-0.029,0.653-0.149,1.313-0.407,1.919c0.294,0.384,0.569,0.768,0.785,1.121
		c0.03,0.048,0.042,0.09,0.042,0.132c0,0.078-0.042,0.145-0.102,0.192c-0.042,0.036-0.097,0.054-0.145,0.054
		c-0.071,0-0.144-0.036-0.197-0.114c-0.156-0.275-0.372-0.6-0.6-0.923c-0.042,0.071-0.084,0.144-0.126,0.21
		c-0.313,0.497-0.66,0.923-1.05,1.235c-0.072,0.054-0.138,0.09-0.204,0.09c-0.054,0-0.107-0.024-0.149-0.072
		c-0.048-0.048-0.072-0.107-0.072-0.162c0-0.054,0.024-0.107,0.084-0.155c0.426-0.349,0.779-0.738,1.062-1.212
		c0.06-0.102,0.12-0.21,0.168-0.312c-0.3-0.378-0.653-0.792-0.96-1.115c-0.042-0.042-0.06-0.09-0.06-0.138
		c0-0.061,0.024-0.114,0.084-0.168c0.042-0.036,0.102-0.061,0.162-0.061c0.054,0,0.107,0.019,0.149,0.061
		c0.271,0.287,0.558,0.611,0.828,0.947c0.18-0.486,0.258-1.014,0.27-1.529H106.259z M109.114,12.577c0.071,0,0.138,0.03,0.18,0.084
		c0.27,0.336,0.533,0.773,0.707,1.134c0.019,0.036,0.024,0.072,0.024,0.102c0,0.078-0.042,0.15-0.126,0.198
		c-0.042,0.023-0.084,0.036-0.126,0.036c-0.078,0-0.15-0.042-0.192-0.132c-0.155-0.33-0.413-0.75-0.677-1.08
		c-0.03-0.036-0.042-0.078-0.042-0.119c0-0.066,0.035-0.133,0.107-0.181C109.017,12.589,109.065,12.577,109.114,12.577z
		 M111.464,11.641c0.107,0,0.174,0.09,0.174,0.216s-0.066,0.216-0.174,0.216h-0.546v3.095c0,0.39-0.222,0.569-0.756,0.569
		c-0.228,0-0.449-0.018-0.594-0.054c-0.102-0.023-0.155-0.09-0.155-0.197c0-0.024,0-0.049,0.006-0.078
		c0.029-0.12,0.102-0.174,0.191-0.174c0.019,0,0.03,0,0.048,0.006c0.132,0.036,0.288,0.048,0.45,0.048
		c0.281,0,0.354-0.048,0.354-0.234v-2.98h-1.355c-0.113,0-0.174-0.09-0.174-0.209c0-0.133,0.061-0.223,0.174-0.223h1.355v-1.127
		c0-0.114,0.09-0.168,0.229-0.168c0.138,0,0.228,0.054,0.228,0.168v1.127H111.464z"/>
	<path d="M115.239,15.011c0,0.252-0.191,0.414-0.413,0.414c-0.234,0-0.414-0.162-0.414-0.414c0-0.251,0.18-0.413,0.414-0.413
		C115.047,14.598,115.239,14.76,115.239,15.011z M114.501,10.958c0-0.168,0.132-0.275,0.33-0.275c0.191,0,0.324,0.107,0.317,0.275
		l-0.084,3.07c-0.006,0.139-0.119,0.204-0.239,0.204c-0.126,0-0.24-0.065-0.24-0.204L114.501,10.958z"/>
</g>
<g>
	<path fill="none" stroke="#000000" stroke-width="0.3741" stroke-miterlimit="10" d="M39.107,6.416
		c0,1.757,1.424,3.181,3.181,3.181h24.7c1.757,0,3.181-1.424,3.181-3.181V3.403c0-1.757-1.424-3.181-3.181-3.181h-24.7
		c-1.757,0-3.181,1.424-3.181,3.181V6.416z"/>
</g>
<g>
	<path d="M45.16,49.867c0.119-0.209,0.309-0.363,0.483-0.482c0.028-0.021,0.056-0.027,0.091-0.027c0.063,0,0.126,0.035,0.161,0.084
		c0.014,0.035,0.028,0.07,0.028,0.111c0,0.057-0.021,0.111-0.07,0.146c-0.112,0.07-0.224,0.162-0.309,0.254
		c-0.063,0.068-0.118,0.174-0.126,0.279c0,0,0,0.008,0,0.014c0,0.027,0.015,0.035,0.035,0.035c0.007,0,0.015,0,0.021,0
		c0.042-0.008,0.056-0.008,0.077-0.008c0.224,0,0.427,0.176,0.427,0.449c0,0.244-0.168,0.463-0.462,0.463
		c-0.287,0-0.532-0.211-0.532-0.631C44.985,50.289,45.054,50.043,45.16,49.867z M46.449,49.867c0.119-0.209,0.308-0.363,0.482-0.482
		c0.028-0.021,0.057-0.027,0.092-0.027c0.063,0,0.126,0.035,0.161,0.084c0.014,0.035,0.027,0.07,0.027,0.111
		c0,0.057-0.021,0.111-0.069,0.146c-0.112,0.07-0.225,0.162-0.309,0.254c-0.063,0.068-0.119,0.174-0.126,0.279c0,0,0,0.008,0,0.014
		c0,0.027,0.014,0.035,0.035,0.035c0.007,0,0.014,0,0.021,0c0.042-0.008,0.057-0.008,0.077-0.008c0.225,0,0.428,0.176,0.428,0.449
		c0,0.244-0.168,0.463-0.463,0.463c-0.287,0-0.532-0.211-0.532-0.631C46.273,50.289,46.343,50.043,46.449,49.867z"/>
	<path d="M49.752,52.523c-0.378,0.861-0.903,1.723-1.464,2.311c-0.07,0.07-0.154,0.105-0.231,0.105c-0.069,0-0.14-0.029-0.196-0.084
		c-0.069-0.07-0.104-0.148-0.104-0.225c0-0.057,0.028-0.119,0.077-0.168c0.595-0.596,1.135-1.43,1.513-2.346
		c0.196-0.471,0.35-0.988,0.469-1.527h-1.639c-0.14,0-0.224-0.127-0.224-0.266c0-0.141,0.084-0.26,0.224-0.26h1.744
		c0.049-0.287,0.084-0.574,0.112-0.861c0.021-0.168,0.119-0.232,0.272-0.232c0.015,0,0.028,0,0.05,0
		c0.161,0.016,0.259,0.086,0.259,0.246c0,0.014,0,0.035,0,0.049c-0.035,0.266-0.07,0.533-0.119,0.799h3.467
		c0.141,0,0.225,0.119,0.225,0.26c0,0.139-0.084,0.266-0.225,0.266h-3.579c-0.104,0.482-0.252,0.973-0.427,1.436h3.6
		c0.126,0,0.196,0.098,0.196,0.244c0,0.148-0.07,0.254-0.196,0.254h-1.751v2.219h2.157c0.126,0,0.196,0.098,0.196,0.246
		c0,0.154-0.07,0.258-0.196,0.258h-4.818c-0.126,0-0.196-0.104-0.196-0.258c0-0.148,0.07-0.246,0.196-0.246h2.101v-2.219H49.752z"/>
	<path d="M56.241,53.104c0,0.029-0.007,0.063-0.014,0.092c-0.21,0.623-0.581,1.449-0.883,1.967c-0.056,0.1-0.153,0.148-0.252,0.148
		c-0.049,0-0.104-0.014-0.154-0.043c-0.077-0.041-0.126-0.119-0.126-0.203c0-0.063,0.021-0.125,0.07-0.203
		c0.294-0.49,0.63-1.254,0.826-1.855c0.035-0.098,0.119-0.154,0.225-0.154c0.042,0,0.077,0.008,0.119,0.021
		C56.185,52.914,56.241,53.006,56.241,53.104z M56.171,51.584c0.076,0.07,0.104,0.146,0.104,0.217c0,0.063-0.028,0.127-0.077,0.176
		c-0.056,0.063-0.133,0.09-0.203,0.09c-0.069,0-0.14-0.027-0.196-0.076c-0.23-0.211-0.588-0.525-0.889-0.715
		c-0.057-0.035-0.092-0.105-0.092-0.174c0-0.057,0.021-0.113,0.063-0.162c0.063-0.07,0.147-0.111,0.231-0.111
		c0.049,0,0.098,0.014,0.146,0.041C55.541,51.037,55.94,51.367,56.171,51.584z M56.472,49.883c0.063,0.07,0.091,0.139,0.091,0.209
		c0,0.063-0.027,0.127-0.077,0.182c-0.063,0.057-0.133,0.092-0.21,0.092c-0.07,0-0.133-0.027-0.188-0.084
		c-0.231-0.244-0.582-0.539-0.854-0.729c-0.057-0.041-0.092-0.105-0.092-0.176c0-0.063,0.021-0.119,0.063-0.174
		c0.063-0.07,0.146-0.105,0.231-0.105c0.049,0,0.104,0.014,0.146,0.043C55.863,49.314,56.234,49.631,56.472,49.883z M58.279,51.289
		c-0.28,0.016-0.553,0.029-0.833,0.043c-0.014,1.73-0.196,2.9-0.757,3.881c-0.056,0.098-0.146,0.146-0.245,0.146
		c-0.042,0-0.091-0.014-0.133-0.035c-0.084-0.043-0.14-0.119-0.14-0.217c0-0.049,0.014-0.105,0.049-0.168
		c0.561-0.961,0.707-2.164,0.707-3.992v-0.75c0-0.42,0.154-0.596,0.539-0.609c1.037-0.041,2.15-0.217,3.117-0.561
		c0.035-0.014,0.07-0.021,0.104-0.021c0.099,0,0.183,0.057,0.225,0.154c0.021,0.035,0.028,0.078,0.028,0.119
		c0,0.113-0.07,0.211-0.189,0.26c-0.952,0.322-2.087,0.477-3.103,0.525c-0.141,0.006-0.203,0.084-0.203,0.238v0.561
		c1.338-0.035,2.528-0.238,3.354-0.568c0.035-0.014,0.077-0.021,0.112-0.021c0.091,0,0.182,0.051,0.224,0.148
		c0.021,0.049,0.028,0.09,0.028,0.125c0,0.105-0.063,0.189-0.175,0.232c-0.287,0.104-0.603,0.195-0.96,0.271
		c0.015,0.422,0.042,0.848,0.119,1.27c0.287-0.176,0.532-0.373,0.757-0.582c0.056-0.049,0.126-0.084,0.196-0.084
		c0.063,0,0.133,0.027,0.188,0.092c0.057,0.055,0.077,0.117,0.077,0.174c0,0.084-0.042,0.154-0.112,0.211
		c-0.287,0.23-0.609,0.469-1.001,0.707c0.188,0.785,0.511,1.443,1.009,2.045c0.049,0.057,0.069,0.119,0.069,0.182
		c0,0.084-0.042,0.168-0.111,0.225c-0.057,0.049-0.127,0.07-0.189,0.07c-0.084,0-0.161-0.035-0.217-0.105
		c-0.848-1.086-1.198-2.465-1.275-4.111c-0.245,0.043-0.497,0.07-0.742,0.098v4c0,0.141-0.091,0.209-0.266,0.209
		c-0.154,0-0.253-0.068-0.253-0.209V51.289z"/>
	<path d="M62.723,50.73c-0.119,0.209-0.309,0.363-0.483,0.482c-0.028,0.021-0.057,0.027-0.092,0.027
		c-0.063,0-0.126-0.035-0.16-0.084c-0.015-0.035-0.028-0.07-0.028-0.111c0-0.057,0.021-0.111,0.07-0.146
		c0.111-0.07,0.224-0.162,0.308-0.252c0.063-0.07,0.119-0.176,0.126-0.281c0,0,0-0.008,0-0.014c0-0.027-0.014-0.035-0.035-0.035
		c-0.007,0-0.014,0-0.021,0c-0.042,0.008-0.057,0.008-0.077,0.008c-0.225,0-0.428-0.176-0.428-0.449
		c0-0.244,0.169-0.463,0.463-0.463c0.287,0,0.532,0.211,0.532,0.631C62.898,50.309,62.828,50.555,62.723,50.73z M64.011,50.73
		c-0.119,0.209-0.308,0.363-0.483,0.482c-0.027,0.021-0.056,0.027-0.091,0.027c-0.063,0-0.126-0.035-0.161-0.084
		c-0.014-0.035-0.028-0.07-0.028-0.111c0-0.057,0.021-0.111,0.07-0.146c0.112-0.07,0.225-0.162,0.309-0.252
		c0.063-0.07,0.119-0.176,0.126-0.281c0,0,0-0.008,0-0.014c0-0.027-0.014-0.035-0.035-0.035c-0.007,0-0.014,0-0.021,0
		c-0.042,0.008-0.056,0.008-0.076,0.008c-0.225,0-0.428-0.176-0.428-0.449c0-0.244,0.168-0.463,0.462-0.463
		c0.287,0,0.533,0.211,0.533,0.631C64.187,50.309,64.117,50.555,64.011,50.73z"/>
</g>
<g>
	<path fill="none" stroke="#000000" stroke-width="0.3741" stroke-miterlimit="10" d="M39.107,53.749
		c0,1.757,1.424,3.181,3.181,3.181h24.7c1.757,0,3.181-1.424,3.181-3.181v-3.013c0-1.757-1.424-3.182-3.181-3.182h-24.7
		c-1.757,0-3.181,1.425-3.181,3.182V53.749z"/>
</g>
<g>
	<path d="M9.197,30.348c0,0.449-0.217,0.639-0.651,0.639H4.862c-0.434,0-0.651-0.189-0.651-0.639v-4.51
		c0-0.455,0.217-0.644,0.651-0.644h3.684c0.435,0,0.651,0.188,0.651,0.644V30.348z M8.637,27.729v-1.793
		c0-0.161-0.084-0.21-0.238-0.21h-3.39c-0.154,0-0.238,0.049-0.238,0.21v1.793H8.637z M4.771,30.242
		c0,0.162,0.084,0.211,0.238,0.211h3.39c0.154,0,0.238-0.049,0.238-0.211v-1.988H4.771V30.242z"/>
	<path d="M10.791,26.601c-0.126,0-0.196-0.112-0.196-0.259c0-0.141,0.07-0.252,0.196-0.252h2.591v-1.044
		c0-0.141,0.105-0.21,0.266-0.21c0.168,0,0.266,0.069,0.266,0.21v1.044h2.675c0.126,0,0.196,0.104,0.196,0.252
		c0,0.14-0.07,0.259-0.196,0.259h-2.43c0.582,1.17,1.611,2.276,2.655,2.893c0.105,0.063,0.147,0.168,0.147,0.266
		c0,0.063-0.021,0.127-0.049,0.176c-0.063,0.09-0.154,0.139-0.245,0.139c-0.063,0-0.126-0.02-0.189-0.063
		c-0.995-0.645-2.052-1.771-2.633-3.166c0.049,0.322,0.07,0.707,0.07,1.022v1.499h1.191c0.126,0,0.196,0.113,0.196,0.246
		c0,0.146-0.07,0.244-0.196,0.244h-1.191v1.289c0,0.133-0.098,0.203-0.266,0.203c-0.161,0-0.266-0.07-0.266-0.203v-1.289h-1.205
		c-0.126,0-0.203-0.098-0.203-0.244c0-0.133,0.077-0.246,0.203-0.246h1.205v-1.492c0-0.308,0.014-0.693,0.063-1.022
		c-0.56,1.352-1.59,2.528-2.521,3.167c-0.07,0.049-0.147,0.076-0.217,0.076c-0.084,0-0.161-0.041-0.224-0.119
		c-0.042-0.055-0.063-0.119-0.063-0.182c0-0.092,0.049-0.182,0.14-0.246c0.924-0.609,1.975-1.715,2.556-2.948H10.791z"/>
	<path d="M18.582,29.178c0-0.23,0.028-0.482,0.042-0.699c-0.238,0.238-0.49,0.469-0.756,0.658c-0.063,0.041-0.119,0.063-0.182,0.063
		c-0.077,0-0.147-0.035-0.203-0.111c-0.035-0.057-0.056-0.119-0.056-0.176c0-0.076,0.035-0.146,0.119-0.195
		c0.819-0.582,1.52-1.31,1.919-2.045c0.014-0.028,0.021-0.057,0.021-0.077c0-0.056-0.035-0.091-0.105-0.091h-1.597
		c-0.133,0-0.203-0.099-0.203-0.245c0-0.141,0.07-0.238,0.203-0.238h0.798v-0.974c0-0.119,0.105-0.196,0.266-0.196
		s0.266,0.07,0.266,0.196v0.974h0.518c0.273,0,0.448,0.168,0.448,0.399c0,0.077-0.021,0.161-0.063,0.252
		c-0.182,0.392-0.448,0.784-0.763,1.162c0.294,0.344,0.616,0.624,0.924,0.827c0.077,0.049,0.112,0.127,0.112,0.203
		c0,0.049-0.014,0.105-0.049,0.154c-0.063,0.076-0.133,0.119-0.217,0.119c-0.049,0-0.105-0.021-0.154-0.063
		c-0.245-0.184-0.546-0.463-0.785-0.764c0.014,0.238,0.028,0.477,0.028,0.721v2.129c0,0.105-0.105,0.197-0.266,0.197
		c-0.14,0-0.266-0.064-0.266-0.197V29.178z M20.354,27.498c-0.126,0-0.21-0.112-0.21-0.259c0-0.147,0.084-0.252,0.21-0.252h1.176
		v-1.92c0-0.14,0.105-0.217,0.273-0.217s0.273,0.077,0.273,0.217v1.92h1.415c0.126,0,0.196,0.104,0.196,0.252
		c0,0.154-0.07,0.259-0.196,0.259h-1.415v3.018h1.66c0.126,0,0.196,0.105,0.196,0.252c0,0.154-0.07,0.268-0.196,0.268h-3.74
		c-0.126,0-0.196-0.113-0.196-0.26c0-0.154,0.07-0.26,0.196-0.26h1.534v-3.018H20.354z"/>
	<path d="M27.704,24.843c0.154,0,0.315,0.056,0.406,0.161c0.714,0.917,1.695,1.61,2.746,2.101c0.112,0.057,0.168,0.154,0.168,0.26
		c0,0.042-0.007,0.084-0.028,0.126c-0.049,0.112-0.133,0.175-0.238,0.175c-0.056,0-0.119-0.014-0.182-0.049
		c-1.093-0.539-2.094-1.274-2.781-2.164c-0.035-0.035-0.063-0.056-0.091-0.056s-0.056,0.021-0.084,0.049
		c-0.624,0.826-1.667,1.681-2.815,2.22c-0.042,0.021-0.077,0.028-0.119,0.028c-0.098,0-0.189-0.056-0.252-0.168
		c-0.021-0.042-0.035-0.084-0.035-0.126c0-0.105,0.07-0.21,0.175-0.26c1.093-0.525,2.024-1.219,2.725-2.136
		C27.389,24.899,27.543,24.843,27.704,24.843z M27.347,28.891c-0.259,0.561-0.525,1.115-0.861,1.633
		c0.89-0.057,1.779-0.133,2.662-0.26c-0.217-0.258-0.448-0.512-0.666-0.729c-0.042-0.041-0.063-0.098-0.063-0.146
		c0-0.07,0.035-0.133,0.098-0.176c0.063-0.049,0.126-0.07,0.189-0.07c0.07,0,0.14,0.021,0.189,0.078
		c0.504,0.482,1.079,1.162,1.457,1.695c0.035,0.041,0.049,0.098,0.049,0.146c0,0.084-0.042,0.162-0.112,0.217
		c-0.056,0.043-0.126,0.063-0.182,0.063c-0.084,0-0.161-0.033-0.21-0.104c-0.112-0.168-0.245-0.352-0.385-0.533
		c-1.387,0.217-2.991,0.35-4.469,0.434c-0.007,0-0.007,0-0.014,0c-0.14,0-0.259-0.098-0.267-0.266c0-0.006,0-0.014,0-0.021
		c0-0.16,0.077-0.258,0.225-0.266c0.294-0.006,0.595-0.021,0.889-0.035c0.336-0.525,0.624-1.078,0.848-1.66h-1.856
		c-0.126,0-0.203-0.104-0.203-0.252c0-0.154,0.077-0.258,0.203-0.258h5.673c0.133,0,0.203,0.104,0.203,0.252
		c0,0.154-0.07,0.258-0.203,0.258H27.347z M29.147,27.036c0.126,0,0.196,0.119,0.196,0.259c0,0.141-0.07,0.259-0.196,0.259h-2.879
		c-0.126,0-0.196-0.118-0.196-0.259c0-0.14,0.07-0.259,0.196-0.259H29.147z"/>
	<path d="M33.233,28.982c-0.414,0-0.582-0.133-0.582-0.518V27.54c0-0.385,0.168-0.519,0.582-0.519h2.914
		c0.413,0,0.588,0.134,0.588,0.519v0.925c0,0.385-0.175,0.518-0.588,0.518h-0.624v1.443c0,0.195,0.07,0.252,0.266,0.273
		c0.119,0.014,0.294,0.02,0.54,0.02c0.315,0,0.518-0.02,0.63-0.041c0.154-0.035,0.245-0.113,0.294-0.246s0.077-0.371,0.099-0.566
		c0.006-0.119,0.09-0.189,0.224-0.189c0.014,0,0.035,0,0.056,0.008c0.176,0.014,0.252,0.104,0.252,0.238c0,0.006,0,0.014,0,0.02
		c-0.021,0.287-0.091,0.609-0.182,0.807c-0.091,0.182-0.266,0.322-0.504,0.377c-0.176,0.043-0.477,0.064-0.904,0.064
		c-0.315,0-0.567-0.008-0.735-0.029c-0.378-0.035-0.574-0.189-0.574-0.566v-1.611h-0.743c-0.077,0.861-0.483,1.4-0.959,1.75
		c-0.385,0.281-0.861,0.477-1.436,0.59c-0.028,0.006-0.056,0.006-0.084,0.006c-0.112,0-0.21-0.055-0.252-0.203
		c-0.007-0.035-0.014-0.063-0.014-0.09c0-0.127,0.084-0.225,0.21-0.246c0.455-0.076,0.896-0.238,1.219-0.455
		c0.392-0.266,0.7-0.666,0.777-1.352H33.233z M35.636,26.005c0.266-0.308,0.476-0.608,0.609-0.84
		c0.042-0.077,0.119-0.126,0.217-0.126c0.042,0,0.078,0.007,0.126,0.021c0.119,0.049,0.182,0.134,0.182,0.218
		c0,0.027-0.007,0.056-0.021,0.084c-0.125,0.182-0.335,0.44-0.525,0.644h0.896c0.414,0,0.604,0.154,0.604,0.533v0.784
		c0,0.126-0.105,0.21-0.267,0.21s-0.267-0.084-0.267-0.21V26.65c0-0.146-0.076-0.182-0.224-0.182h-4.545
		c-0.147,0-0.224,0.035-0.224,0.182v0.673c0,0.126-0.105,0.21-0.266,0.21s-0.266-0.077-0.266-0.21v-0.784
		c0-0.379,0.189-0.533,0.602-0.533h0.813c-0.14-0.21-0.329-0.44-0.476-0.623c-0.028-0.035-0.042-0.077-0.042-0.112
		c0-0.069,0.042-0.14,0.14-0.188c0.056-0.021,0.105-0.035,0.147-0.035c0.091,0,0.161,0.042,0.203,0.098
		c0.175,0.203,0.406,0.519,0.609,0.861h0.7v-0.987c0-0.126,0.091-0.21,0.252-0.21s0.259,0.084,0.259,0.21v0.987H35.636z
		 M36.007,28.549c0.14,0,0.203-0.043,0.203-0.168v-0.75c0-0.126-0.063-0.161-0.203-0.161h-2.633c-0.14,0-0.203,0.035-0.203,0.161
		v0.75c0,0.125,0.063,0.168,0.203,0.168H36.007z"/>
</g>
<g>
	<path fill="none" stroke="#000000" stroke-width="0.5" stroke-miterlimit="10" d="M0.25,28.57c0,2.35,1.903,4.252,4.252,4.252
		h32.913c2.348,0,4.252-1.902,4.252-4.252v-0.871c0-2.348-1.904-4.252-4.252-4.252H4.502c-2.349,0-4.252,1.904-4.252,4.252V28.57z"
		/>
</g>
<g>
	<path d="M71.442,30.348c0,0.449-0.217,0.639-0.652,0.639h-3.684c-0.434,0-0.651-0.189-0.651-0.639v-4.51
		c0-0.455,0.218-0.644,0.651-0.644h3.684c0.436,0,0.652,0.188,0.652,0.644V30.348z M70.881,27.729v-1.793
		c0-0.161-0.084-0.21-0.238-0.21h-3.39c-0.154,0-0.238,0.049-0.238,0.21v1.793H70.881z M67.015,30.242
		c0,0.162,0.084,0.211,0.238,0.211h3.39c0.154,0,0.238-0.049,0.238-0.211v-1.988h-3.866V30.242z"/>
	<path d="M73.035,26.601c-0.126,0-0.196-0.112-0.196-0.259c0-0.141,0.07-0.252,0.196-0.252h2.591v-1.044
		c0-0.141,0.105-0.21,0.267-0.21c0.168,0,0.267,0.069,0.267,0.21v1.044h2.675c0.126,0,0.196,0.104,0.196,0.252
		c0,0.14-0.07,0.259-0.196,0.259h-2.431c0.582,1.17,1.611,2.276,2.655,2.893c0.104,0.063,0.147,0.168,0.147,0.266
		c0,0.063-0.021,0.127-0.05,0.176c-0.063,0.09-0.153,0.139-0.245,0.139c-0.063,0-0.126-0.02-0.189-0.063
		c-0.994-0.645-2.052-1.771-2.633-3.166c0.049,0.322,0.07,0.707,0.07,1.022v1.499h1.19c0.126,0,0.196,0.113,0.196,0.246
		c0,0.146-0.07,0.244-0.196,0.244h-1.19v1.289c0,0.133-0.099,0.203-0.267,0.203c-0.161,0-0.267-0.07-0.267-0.203v-1.289h-1.204
		c-0.126,0-0.203-0.098-0.203-0.244c0-0.133,0.077-0.246,0.203-0.246h1.204v-1.492c0-0.308,0.015-0.693,0.063-1.022
		c-0.56,1.352-1.59,2.528-2.521,3.167c-0.069,0.049-0.147,0.076-0.217,0.076c-0.084,0-0.161-0.041-0.224-0.119
		c-0.043-0.055-0.063-0.119-0.063-0.182c0-0.092,0.049-0.182,0.14-0.246c0.925-0.609,1.975-1.715,2.557-2.948H73.035z"/>
	<path d="M80.827,29.178c0-0.23,0.027-0.482,0.041-0.699c-0.238,0.238-0.49,0.469-0.756,0.658c-0.063,0.041-0.119,0.063-0.182,0.063
		c-0.078,0-0.147-0.035-0.203-0.111c-0.035-0.057-0.057-0.119-0.057-0.176c0-0.076,0.035-0.146,0.119-0.195
		c0.819-0.582,1.52-1.31,1.919-2.045c0.015-0.028,0.021-0.057,0.021-0.077c0-0.056-0.035-0.091-0.104-0.091h-1.597
		c-0.133,0-0.203-0.099-0.203-0.245c0-0.141,0.07-0.238,0.203-0.238h0.799v-0.974c0-0.119,0.104-0.196,0.266-0.196
		s0.266,0.07,0.266,0.196v0.974h0.519c0.273,0,0.448,0.168,0.448,0.399c0,0.077-0.021,0.161-0.063,0.252
		c-0.183,0.392-0.449,0.784-0.764,1.162c0.294,0.344,0.616,0.624,0.924,0.827c0.078,0.049,0.113,0.127,0.113,0.203
		c0,0.049-0.015,0.105-0.05,0.154c-0.063,0.076-0.133,0.119-0.217,0.119c-0.05,0-0.105-0.021-0.154-0.063
		c-0.245-0.184-0.546-0.463-0.784-0.764c0.014,0.238,0.027,0.477,0.027,0.721v2.129c0,0.105-0.104,0.197-0.266,0.197
		c-0.141,0-0.266-0.064-0.266-0.197V29.178z M82.598,27.498c-0.126,0-0.211-0.112-0.211-0.259c0-0.147,0.085-0.252,0.211-0.252
		h1.176v-1.92c0-0.14,0.105-0.217,0.273-0.217s0.273,0.077,0.273,0.217v1.92h1.415c0.126,0,0.196,0.104,0.196,0.252
		c0,0.154-0.07,0.259-0.196,0.259h-1.415v3.018h1.66c0.126,0,0.195,0.105,0.195,0.252c0,0.154-0.069,0.268-0.195,0.268h-3.74
		c-0.126,0-0.195-0.113-0.195-0.26c0-0.154,0.069-0.26,0.195-0.26h1.533v-3.018H82.598z"/>
	<path d="M89.948,24.843c0.154,0,0.315,0.056,0.406,0.161c0.715,0.917,1.695,1.61,2.746,2.101c0.111,0.057,0.168,0.154,0.168,0.26
		c0,0.042-0.008,0.084-0.028,0.126c-0.049,0.112-0.133,0.175-0.237,0.175c-0.057,0-0.119-0.014-0.183-0.049
		c-1.093-0.539-2.095-1.274-2.78-2.164c-0.035-0.035-0.063-0.056-0.092-0.056c-0.027,0-0.056,0.021-0.084,0.049
		c-0.623,0.826-1.666,1.681-2.814,2.22c-0.043,0.021-0.078,0.028-0.119,0.028c-0.099,0-0.189-0.056-0.253-0.168
		c-0.021-0.042-0.034-0.084-0.034-0.126c0-0.105,0.069-0.21,0.174-0.26c1.094-0.525,2.025-1.219,2.725-2.136
		C89.633,24.899,89.788,24.843,89.948,24.843z M89.59,28.891c-0.258,0.561-0.524,1.115-0.861,1.633
		c0.891-0.057,1.779-0.133,2.662-0.26c-0.217-0.258-0.448-0.512-0.666-0.729c-0.041-0.041-0.063-0.098-0.063-0.146
		c0-0.07,0.035-0.133,0.098-0.176c0.063-0.049,0.127-0.07,0.189-0.07c0.07,0,0.141,0.021,0.189,0.078
		c0.504,0.482,1.078,1.162,1.457,1.695c0.035,0.041,0.049,0.098,0.049,0.146c0,0.084-0.043,0.162-0.112,0.217
		c-0.056,0.043-0.126,0.063-0.183,0.063c-0.084,0-0.16-0.033-0.21-0.104c-0.112-0.168-0.245-0.352-0.385-0.533
		c-1.387,0.217-2.991,0.35-4.469,0.434c-0.007,0-0.007,0-0.014,0c-0.14,0-0.259-0.098-0.267-0.266c0-0.006,0-0.014,0-0.021
		c0-0.16,0.077-0.258,0.225-0.266c0.294-0.006,0.596-0.021,0.889-0.035c0.337-0.525,0.624-1.078,0.848-1.66h-1.855
		c-0.127,0-0.203-0.104-0.203-0.252c0-0.154,0.076-0.258,0.203-0.258h5.673c0.134,0,0.203,0.104,0.203,0.252
		c0,0.154-0.069,0.258-0.203,0.258H89.59z M91.391,27.036c0.126,0,0.195,0.119,0.195,0.259c0,0.141-0.069,0.259-0.195,0.259h-2.879
		c-0.126,0-0.195-0.118-0.195-0.259c0-0.14,0.069-0.259,0.195-0.259H91.391z"/>
	<path d="M95.477,28.982c-0.413,0-0.581-0.133-0.581-0.518V27.54c0-0.385,0.168-0.519,0.581-0.519h2.914
		c0.413,0,0.588,0.134,0.588,0.519v0.925c0,0.385-0.175,0.518-0.588,0.518h-0.623v1.443c0,0.195,0.07,0.252,0.266,0.273
		c0.119,0.014,0.295,0.02,0.539,0.02c0.315,0,0.519-0.02,0.631-0.041c0.154-0.035,0.245-0.113,0.294-0.246s0.077-0.371,0.099-0.566
		c0.006-0.119,0.09-0.189,0.224-0.189c0.014,0,0.035,0,0.056,0.008c0.176,0.014,0.252,0.104,0.252,0.238c0,0.006,0,0.014,0,0.02
		c-0.021,0.287-0.091,0.609-0.182,0.807c-0.091,0.182-0.266,0.322-0.504,0.377c-0.176,0.043-0.477,0.064-0.904,0.064
		c-0.314,0-0.566-0.008-0.734-0.029c-0.379-0.035-0.574-0.189-0.574-0.566v-1.611h-0.743c-0.077,0.861-0.483,1.4-0.96,1.75
		c-0.385,0.281-0.861,0.477-1.436,0.59c-0.027,0.006-0.056,0.006-0.084,0.006c-0.111,0-0.21-0.055-0.252-0.203
		c-0.007-0.035-0.014-0.063-0.014-0.09c0-0.127,0.084-0.225,0.21-0.246c0.455-0.076,0.896-0.238,1.219-0.455
		c0.392-0.266,0.7-0.666,0.777-1.352H95.477z M97.879,26.005c0.267-0.308,0.477-0.608,0.609-0.84
		c0.043-0.077,0.119-0.126,0.217-0.126c0.043,0,0.078,0.007,0.127,0.021c0.119,0.049,0.182,0.134,0.182,0.218
		c0,0.027-0.007,0.056-0.021,0.084c-0.125,0.182-0.336,0.44-0.525,0.644h0.896c0.414,0,0.604,0.154,0.604,0.533v0.784
		c0,0.126-0.105,0.21-0.267,0.21s-0.267-0.084-0.267-0.21V26.65c0-0.146-0.076-0.182-0.224-0.182h-4.546
		c-0.146,0-0.224,0.035-0.224,0.182v0.673c0,0.126-0.104,0.21-0.267,0.21c-0.16,0-0.266-0.077-0.266-0.21v-0.784
		c0-0.379,0.189-0.533,0.602-0.533h0.813c-0.14-0.21-0.328-0.44-0.476-0.623c-0.028-0.035-0.042-0.077-0.042-0.112
		c0-0.069,0.042-0.14,0.141-0.188c0.055-0.021,0.104-0.035,0.146-0.035c0.091,0,0.161,0.042,0.203,0.098
		c0.175,0.203,0.406,0.519,0.609,0.861h0.7v-0.987c0-0.126,0.091-0.21,0.252-0.21s0.259,0.084,0.259,0.21v0.987H97.879z
		 M98.25,28.549c0.141,0,0.203-0.043,0.203-0.168v-0.75c0-0.126-0.063-0.161-0.203-0.161h-2.633c-0.141,0-0.203,0.035-0.203,0.161
		v0.75c0,0.125,0.063,0.168,0.203,0.168H98.25z"/>
</g>
<g>
	<path fill="none" stroke="#000000" stroke-width="0.5" stroke-miterlimit="10" d="M62.495,28.57c0,2.35,1.902,4.252,4.252,4.252
		h32.912c2.348,0,4.252-1.902,4.252-4.252v-0.871c0-2.348-1.904-4.252-4.252-4.252H66.747c-2.35,0-4.252,1.904-4.252,4.252V28.57z"
		/>
</g>
<polyline fill="none" stroke="#000000" stroke-width="0.75" stroke-miterlimit="10" points="37.685,50.904 21.205,50.904 
	21.205,33.09 "/>
<polyline fill="none" stroke="#000000" stroke-width="0.75" stroke-miterlimit="10" points="19.205,33.09 19.205,52.904 
	37.685,52.904 "/>
<polyline fill="none" stroke="#000000" stroke-width="0.75" stroke-miterlimit="10" points="35.164,47.441 38.411,51.879 
	35.164,56.316 "/>
<polyline fill="none" stroke="#000000" stroke-width="0.75" stroke-miterlimit="10" points="37.685,5.634 21.205,5.634 
	21.205,23.448 "/>
<polyline fill="none" stroke="#000000" stroke-width="0.75" stroke-miterlimit="10" points="19.205,23.448 19.205,3.634 
	37.685,3.634 "/>
<polyline fill="none" stroke="#000000" stroke-width="0.75" stroke-miterlimit="10" points="35.164,9.097 38.411,4.66 35.164,0.222 
	"/>
<polyline fill="none" stroke="#000000" stroke-width="0.75" stroke-miterlimit="10" points="81.89,22.056 81.89,5.575 70.168,5.575 
	"/>
<polyline fill="none" stroke="#000000" stroke-width="0.75" stroke-miterlimit="10" points="70.168,3.575 83.889,3.575 
	83.889,22.056 "/>
<polyline fill="none" stroke="#000000" stroke-width="0.75" stroke-miterlimit="10" points="78.519,19.534 82.956,22.781 
	87.393,19.534 "/>
<polyline fill="none" stroke="#000000" stroke-width="0.75" stroke-miterlimit="10" points="81.89,33.971 81.89,50.451 
	70.168,50.451 "/>
<polyline fill="none" stroke="#000000" stroke-width="0.75" stroke-miterlimit="10" points="70.168,52.451 83.889,52.451 
	83.889,33.971 "/>
<polyline fill="none" stroke="#000000" stroke-width="0.75" stroke-miterlimit="10" points="78.519,36.492 82.956,33.245 
	87.393,36.492 "/>
<polygon fill="none" stroke="#000000" stroke-width="0.8" stroke-miterlimit="10" points="118.139,1.368 86.014,1.368 
	86.014,17.988 89.692,17.988 90.639,22.781 95.159,17.988 118.139,17.988 "/>
<path d="M106.514,11.238"/>
</svg>
