<?xml version="1.0" encoding="utf-8"?>
<!-- Generator: Adobe Illustrator 16.0.3, SVG Export Plug-In . SVG Version: 6.00 Build 0)  -->
<!DOCTYPE svg PUBLIC "-//W3C//DTD SVG 1.1//EN" "http://www.w3.org/Graphics/SVG/1.1/DTD/svg11.dtd">
<svg version="1.1" id="レイヤー_1" xmlns="http://www.w3.org/2000/svg" xmlns:xlink="http://www.w3.org/1999/xlink" x="0px"
	 y="0px" width="94.985px" height="104.946px" viewBox="0 0 94.985 104.946" enable-background="new 0 0 94.985 104.946"
	 xml:space="preserve">
<g>
	<defs>
		<rect id="SVGID_1_" width="94.985" height="104.946"/>
	</defs>
	<clipPath id="SVGID_2_">
		<use xlink:href="#SVGID_1_"  overflow="visible"/>
	</clipPath>
	<path clip-path="url(#SVGID_2_)" fill="none" stroke="#4A9DD7" stroke-miterlimit="10" d="M45.027,22.112c0,0-0.5,4.042-1.75,6.042
		s-7.104,6.834-2.792,9.459s9.403,4.5,9.292,9.541l-1.38,4.462"/>
	<path clip-path="url(#SVGID_2_)" fill="none" stroke="#4A9DD7" stroke-miterlimit="10" d="M28.486,4.28
		c0,0-3.334,5.831-1.584,7.332s3.834,4.958,1.584,8.979s-5.999,5.91-4.75,11.104s3.117,6.591,8.334,8.671s12.051,2.913,12.691,3.246
		c0.227,0.117,1.04,0.188,1.433,1.667c1.149,4.337,2.623,8.485,5.909,11.395c5.083,4.5,6.972,7.591,10.75,7.368
		c12.258-0.722,11.943,0.602,16.878,5.997c0,0,3.344,3.297,5.497,4.164"/>
	<g clip-path="url(#SVGID_2_)">
		<path fill="none" stroke="#000000" stroke-width="0.425" stroke-miterlimit="3.864" d="M87.539-126.102
			c0,0,1.566-0.251,1.549,0.499c-0.019,0.751,0.218,1.708-0.486,2.154c-0.705,0.446-1.599,0.396-1.449-0.929
			C87.26-125.36,87.539-126.102,87.539-126.102z M79.014-87.459l0.321-1.442l-0.225-0.353l-0.157-0.642l1.032-1.886l0.547-1.089
			l1.479-1.182l1.286-0.317l1.868-2.911l3.326-8.033l1.234-8.2l-0.251-4.295l-1.956-3.468l-0.101-0.927c0,0,0.957-0.238,1.741-0.365
			c0.782-0.126,0.545-1.084,0.77-2.091c0.227-1.005,0.214-1.613-0.507-1.774c-0.717-0.161-1.417-1.073-2.252-0.052
			c-0.831,1.021-1.376,2.105-0.706,3.162c0.66,1.046,0.481,1.256-0.46,1.491l-1.089-0.028l-0.867-0.195l-0.706,0.447l-1.063,0.669
			l-1.735-0.391l-0.962-1.124l-0.159-0.641l-0.096-0.93l0.613-1.376l-0.096-0.931l0.196-0.864l0.643-0.157l0.962,1.124l1.672,0.678
			l1.928-0.476l2.188-1.629l4.448-6.266l0.742-1.953l1.453-5.125l-0.122-2.146l-1.189-1.479l-0.608-1.349 M11.091-48.822
			l0.608,1.348l0.449,0.707l-0.481,0.799l-0.71,0.446l-0.193,0.866l-0.772,0.734l-0.484,0.8l0.097,0.93l-1.995,0.762L6.61-41.048
			l-0.418,0.511l0.514,0.418l0.578,0.13l2.024,0.455l1.512,0.036l3.635-1.302l3.894-2.457l2.771-4.223l0.454-2.017l-0.804-0.483
			l-0.933,0.093l-1.223,0.028l-0.802-0.483l-0.739-0.771l4.837-7.996l0.387-1.731l-1.8-0.101l-3.091,2.938l-2.477,1.564
			l-1.063,0.669l-4.282,4.185l-0.807,2.241l-0.164,2.083l0.932-0.094L11.091-48.822z M-364.41,218.961l-2.25-0.81l-1.187-1.477
			l-2.349,0.984l-0.836,1.024l-2.797,0.281l-0.005,2.723l0.959,3.848l1.187,1.478l4.115,0.624l0.771-0.736l2.348-0.986l1.193-1.246
			l0.582-2.594l-1.476-1.543L-364.41,218.961z M-381.406,212.113l0.643-0.157l1.029,0.837l1.221-0.029l0.962,1.124l0.094,0.93
			l-0.483,0.8l-0.644,0.158l-0.867-0.195l-0.224-0.351l-0.513-0.419l-0.096-0.931l-0.157-0.641L-381.406,212.113z M-350.653,138.786
			l-1.482,1.181l-2.377-0.231l-0.962-1.124l-2.156,0.121l-0.9,1.312l0.802,0.483l-1.644,3.264l0.19,1.857l-0.972,4.325l-0.484,0.799
			l-0.194,0.865l-0.868-0.194l-1.061,0.671l0.574,2.853l1.7,1.896l1.698,4.62l-1.81,5.349l-3.22,3.513l-2.349,0.987l-1.347-2.119
			l-0.512-0.417l-1.352,0.604l1.537,3.978l-0.934,0.095l-0.129,0.576l1.606,0.966l-0.708,0.446l-0.129,0.578l0.225,0.353l0.03,1.218
			l4.338,0.976l4.657,2.257l0.899,1.412l-0.005,2.725l1.093,0.548l0.642-0.159l1.542,1.255l0.257-1.152l1.577-0.251l1.416-0.894
			l0.193-0.865l0.323-1.44l-1.54-1.255l-1.122-1.766l0.72-8.62l2.578-3.355l2.672-2.428l0.808-2.242l0.707-0.446l2.669,0.296
			l3.595,2.929l-0.324,1.44l-3.09,2.938l-1.158-0.26l0.39-1.729l-1.251-1.189l-2.025-0.455l-0.998,0.381l-0.613,1.377l1.766,1.607
			l1.318,0.901l-0.549,1.088l-0.324,1.441l1.921,4.975l-0.941,5.54l-1.963,1.98l-1.227,2.754l-4.183,2.391l-0.418,0.511l0.448,0.706
			l-0.454,2.018l2.704-1.21l6.172-0.43l4.277-1.462l2.384-2.492l2.023,0.456l3.766-1.881l-1.96-0.742l0.773-0.735l0.324-1.44
			l-2.121-1.386l0.324-1.44l3.315-2.586l1.736,0.391l0.803,0.482 M-359.366,138.343l-0.833-1.7l-0.096-0.931l0.261-1.152
			l0.481-0.801l3.794-0.662l0.385,0.995l-0.774,0.734l-0.453,2.019l-0.13,0.575l-0.578-0.129L-359.366,138.343z M-341.439,205.953
			l-2.348,0.985l-0.325,1.442l-3.798,3.385l-1.165,5.188l-3.445,3.163l-1.705,0.828l-0.484,0.8l0.061,2.437l-0.258,1.152
			l0.159,0.642l4.019-0.309l0.772-0.735l1.13-3.682l1.74-2.335l1.641-0.539l2.871-6.017l0.838-1.022l1-3.106L-341.439,205.953z
			 M-371.098,198.685l0.804,0.483l-0.485,0.801l-1.671-0.678L-371.098,198.685z M-383.595,193.456l-0.836,1.023l-1.092-0.55
			l-0.16-0.641l0.71-0.447L-383.595,193.456z M-377.547,150.306l-3.733,3.098l-0.258,1.153l-1.063,0.668l-1.896-1.029l2.801-3.004
			l2.927-0.857L-377.547,150.306z M-373.847,148.715l2.443-0.056l0.482-0.802l-1.54-1.255l-0.675-1.058l-0.865-0.195l-1.128,0.956
			L-373.847,148.715z M-351.564,125.259l-0.032-1.218l1.417-0.894l3.504-0.726l1.351-0.605l0.738,0.772l2.764,1.226l-4.058,4.539
			l-0.866-0.196l-1.063,0.67l-0.16-0.642l0.418-0.511l-2.827-0.939l-1.222,0.029l0.195-0.865L-351.564,125.259z M-362.404,128.88
			l-0.708,0.446l-0.483,0.799l0.255,1.571l-0.325,1.441l3.376-0.149l3.25-2.298l1.256-1.534l1.51,0.036l1.674-2.047l-0.672-1.059
			l0.837-1.024l0.063-0.287l0.587-5.318l-1.025-0.835l-1.801-0.102l-1.993,0.763l-0.675-1.061l-0.643,0.159l-0.164,2.082
			l-3.768,4.602l-0.742,1.955l1.026,0.835l1.093,0.549l0.579,0.131l-0.418,0.511l-0.354,0.224l-0.867-0.195L-362.404,128.88z
			 M-354.535,133.069l-0.094-0.929l1.124-0.958l0.934-0.094l0.095,0.93L-354.535,133.069z M-340.851,119.491l-0.744,1.951
			l-1.222,0.029l0.484-0.8l-0.159-0.642l0.417-0.513L-340.851,119.491z M-348.776,130.427l0.193-0.863l1.028,0.835l-0.195,0.865
			l-0.866-0.196L-348.776,130.427z M-399.294,99.701l-0.191-1.859l-0.897-1.413l0.743-1.953l-0.803-0.481l-0.544-1.638l-1.415,0.894
			l-0.515-0.418l-0.514-0.419l-1.351,0.605l-0.512-0.417l-0.385-0.997l-0.515-0.418l-0.578-0.13l-0.971,4.324l-0.035,1.507
			l-0.932,0.092l-0.194,0.865l-1.511-0.036l0.225,0.353l0.674,1.061l3.761,0.845l-0.196,0.863l1.575-0.252l0.165-2.082l1.8,0.102
			l0.962,1.127L-399.294,99.701z M-384.984,76.574l0.513,0.419l-0.13,0.576l-0.867-0.196l-0.513-0.417l-0.29-0.065l0.418-0.512
			L-384.984,76.574z M-380.736,73.895l0.029,1.218l-1.64,0.539l-0.578-0.13l-0.738-0.771l0.129-0.577l0.483-0.799l1.222-0.028
			L-380.736,73.895z M-382.51,77.734l0.449,0.706l-0.259,1.153l-0.514-0.419l-0.16-0.641l0.194-0.865L-382.51,77.734z
			 M-391.369,88.764l-0.708,0.447l-0.643,0.158l-0.483,0.8l0.159,0.642l1.382,0.613L-391.369,88.764z M-386.315,83.845l0.354-0.224
			l0.679-1.665l0.678-1.664l0.643-0.158l-0.129,0.577l-0.389,1.729l-0.26,1.152l-0.418,0.512l-0.418,0.513l-0.485,0.799
			l-0.743,1.953l1.511,0.037l1.866-0.188l-0.128,0.577l-1.835,1.404l-1.222,0.028l-0.801-0.483l-0.549,1.088l-0.419,0.512
			l-0.035,1.506l-1.415,0.894l-0.614,1.377l-0.384-0.996l-0.031-1.218l0.967-1.6l-0.093-0.929l-0.675-1.061l-0.159-0.641
			l0.418-0.512l0.802,0.482l0.708-0.444l0.872-2.531l0.064-0.288l0.644-0.158l0.578,0.13L-386.315,83.845z M-395.971,91.667
			l0.45,0.707l0.708-0.447l0.548-1.089l-0.869-0.194l-1.09-0.548l-0.195,0.864L-395.971,91.667z M-397.127,91.407l0.384,0.995
			l-0.483,0.799l-0.353,0.224l-0.709,0.446l-0.738-0.771l-0.159-0.643l0.677-1.664l0.544,1.636L-397.127,91.407z M-349.981,58.699
			l-0.45-0.706l0.678-1.664l-2.054-1.673l-2.672,2.428l-0.164,2.083l0.927,2.63l3.571-1.015L-349.981,58.699z M-364.016,69.778
			l-0.094-0.928l1.511,0.035l0.579,0.131l0.672,1.059l-0.996,0.383l-0.644,0.156L-364.016,69.778z M-364.507,76.025l-1.126,0.96
			l-0.484,0.799l-1.286,0.316l-0.354,0.223l-0.258,1.154l-1.545,1.47l-1.769,1.116l-1.8-0.102l-1.158-0.262l0.933-0.093l0.483-0.8
			l-0.095-0.93l0.129-0.577l0.643-0.155l1.094,0.546l0.354-0.223l-0.254-1.57l0.064-0.288l0.354-0.225l0.579,0.131l0.417-0.513
			l0.129-0.576l0.549-1.088l0.353-0.223l0.356-0.224l0.869,0.195l1.221-0.03l1.286-0.313l0.063-0.29l-0.514-0.417l0.55-1.09
			l0.802,0.483l0.03,1.218L-364.507,76.025z M-367.808,90.727l0.772-0.735l0.289,0.066l0.58,0.129l-0.13,0.577l-0.708,0.445
			L-367.808,90.727z M-368.518,70.888l0.161,0.641l-0.26,1.152l-0.836,1.024l-0.643,0.157l-0.225-0.354l0.839-1.022l0.321-1.442
			L-368.518,70.888z M-355.117,74.805l-1.932,0.476l0.194-0.866l1.352-0.605L-355.117,74.805z M-354.574,76.441l0.804,0.481
			l0.158,0.642l-0.258,1.154l-0.42,0.511l-0.512-0.418l-0.161-0.642l0.129-0.576l0.13-0.576L-354.574,76.441z M-299.133,82.536
			l-1.315-0.901l-2.25-0.808l-1.501-5.484l0.068-3.013l-0.512-0.417l0.195-0.865l1.061-0.67l0.164-2.083l2.094-2.558l-1.735-0.389
			l-1.062,0.669l-2.928,0.855l-0.802-0.482l-0.159-0.641l-0.579-0.132l-1.994,0.766l-0.577-0.131l0.835-1.023l1.576-0.251
			l0.419-0.512l-0.802-0.482L-310,64.653l-1.448-0.325l-2.119-1.383l-2.189,1.626l-4.981-0.816l-3.186,2.011l-0.836,1.021
			l0.383,0.995l-2.672,2.427l-0.996,0.382l-1.577,0.251l-1.575,0.254l-0.354,0.222l0.45,0.708l0.706-0.447l0.869,0.194l0.997-0.38
			l0.225,0.354l-0.195,0.863l-0.418,0.511l-0.644,0.159l-0.129,0.577l-2.795,0.278l-1.737-0.389l-0.225-0.353l0.485-0.8
			l-0.226-0.354l-0.868-0.195l-0.125-2.147l-0.934,0.093l-1.062,0.67l-2.123,1.34l-1.222,0.028l-0.13,0.576l0.514,0.419l-0.13,0.575
			l0.29,0.066l0.803,0.481l-0.644,0.159l-1.063,0.67l-2.442,0.056 M-286.091,129.974l0.998-0.381l0.257-1.153l1.063-0.669
			l0.868,0.195l1.221-0.029l2.061-1.052l-1.318-0.9l1.771-1.117l0.036-1.505l3.438-0.439l0.42-0.511l-2.185-1.097l-4.05-0.909
			l0.614-1.377l0.325-1.44l1.415-0.895l2.668,0.297l0.258-1.152l-2.956-0.361l-1.831-1.319l1.48-1.181l-2.185-1.096l-0.318-1.284
			l4.505-3.833l-2.956-0.361l-1.96-0.743l-1.605-0.965l-6.009-1.652l-1.476-1.543l0.005-2.725l0.772-0.735l2.828,0.938l2.508-0.345
			l0.099-1.794l2.184,1.097l2.772-4.223l0.682-4.388l-1.443-3.049l-1.924-2.249l-3.956,0.02l-4.311,2.969l-2.958-0.361l-4.848-4.118
			 M-343.321,75.031l-1.836,1.406l-0.996,0.381l-0.804-0.484l-0.094-0.928l-0.644,0.158l-0.095-0.93l1.351-0.604l-0.673-1.061
			l-0.608-1.348l-1.158-0.262l-0.932,0.095l-0.449-0.705l-1.515,2.686l-0.324,1.442l-0.448-0.707l-0.097-0.929l-0.354,0.223
			l-0.708,0.447l-0.771,0.734l0.961,1.124l0.963,1.125l-0.583,2.595l-1.256,1.534l-0.608-1.348 M-354.997,79.677l-0.962-1.126
			l-2.762-1.225l-0.898-1.414l-1.575,0.253l-1.383-0.614l-0.868-0.194l-0.194,0.865l-0.353,0.224l-0.196,0.863l-0.129,0.577
			l-0.128,0.575l0.224,0.354l0.159,0.641l-1.769,1.117l-0.484,0.8l0.224,0.354l0.514,0.417l0.738,0.772l1.028,0.836l0.319,1.283
			l1.123,1.766l-0.129,0.577l-0.933,0.093l-0.193,0.864l0.867,0.195l1.192-1.247l2.473,1.162l-0.419,0.512l-0.932,0.093
			l-0.259,1.152l0.159,0.643l0.804,0.483l0.578,0.13l0.802,0.482l0.16,0.642l0.514,0.419l1.157,0.259l1.477,1.544l0.059,2.435
			l-1,3.105l0.159,0.643l0.609,1.348l0.384,0.994l-0.418,0.512l-1.317-0.901l-1.316-0.901l-0.45-0.706l-1.575,0.251l-0.483,0.802
			l-0.514-0.42l-0.384-0.994l-0.803-0.484l0.518-2.307l0.13-0.575l0.738,0.771l0.354-0.222l0.064-0.29l0.196-0.864l0.164-2.082
			l-0.097-0.93l-1.51-0.036l-0.643,0.157l0.131-0.575l0.546-1.088l0.035-1.508l-0.803-0.483l-0.383-0.993l-0.29-0.064l-2.253,1.916
			l-0.679,1.663l-1.416,0.894l0.928,2.631l-0.551,3.813l0.897,1.413l1.606,0.966l0.932-0.093l-0.483,0.799l0.383,0.995l0.096,0.931
			l0.609,1.348l0.867,0.195l-0.484,0.798l-4.348,4.475l-1.35,0.604l2.089,0.167l1.351-0.605l0.771-0.735l1.931-0.475l2.542-1.851
			l1.965-1.982l3.983,1.198l4.758,0.464l0.35,2.501l-1.705,0.828l-1.287,0.316l-0.932,0.093l-0.195,0.863l0.319,1.284l0.739,0.771
			l0.609,1.348l2.024,0.454l1.48-1.181l2.732,0.009l3.09-2.939l0.359-2.947l-1.312-3.625l-1.251-1.189l-4.372,0.531l-1.094-0.547
			l-0.672-1.061l3.989-1.526l1.126-0.958 M-344.81,101.948l-0.155-3.366l-1.313-3.624l0.26-1.153l0.932-0.094l2.701-1.21
			l0.967-1.599l1.093,0.548l0.159,0.641l0.805,0.484l1.186,1.478l0.483-0.8l0.838-1.023 M-336.259,101.751l-0.648,2.881l2.405,4.174
			l0.03,1.218l1.604,0.966l0.321,1.283l-1.036,4.612l-2.089-0.168l-2.124,1.341l-1.866,0.186l-0.546,1.088l1.379,0.614l4.917,1.104
			l0.933-0.093l-0.418,0.511l-0.998,0.381l0.161,0.643l-0.355,0.223l-0.866-0.195l-1.128,0.958l-1.286,0.316l-0.708,0.447
			l0.898,1.412l-0.065,0.288l-0.932,0.095l-0.419,0.511l0.384,0.994l-0.13,0.577l-4.925,4.344l-0.388,1.729l-1.995,0.764
			l-0.193,0.864l-2.156,0.122l-0.547,1.089l-1.609,1.758 M-329.02,179.07l2.119,1.385l-0.165,2.082l2.699,1.516l0.674,1.059
			l0.677-1.665l1.771-1.115l-0.161-0.642l0.773-0.736l-0.03-1.217l0.707-0.446l0.131-0.575l2.511-3.069l1.415-0.895l1.904-4.417
			l1.87-2.911l-0.834-1.699l0.324-1.442l5.512-9.661l7.99-11.225l2.898-2.074l-0.385-0.995l-0.031-1.218l0.868,0.195l0.933-0.093
			l0.353-0.225l1.062-0.67l-1.315-0.9l0.547-1.089l0.42-0.512l-0.321-1.283l0.26-1.151l0.738,0.771l1.575-0.252l1.964-1.98
			l2.059-1.052l1.417-0.895 M-336.854,92.229l0.16,0.643l-0.004,2.722l1.282,2.409l-0.842,3.748 M-253.787,70.016l-0.194,0.864
			l-1.352,0.604l-0.971,4.324l-1.516,2.687l-0.708,0.447l-1.671-0.679l-0.772,0.735l-0.228,2.371l0.029,1.218l-0.065,0.288
			l-0.997,0.381l-0.45-0.706l0.485-0.801l-0.995-2.341l-2.313-0.521l-1.476-1.541l-0.161-0.642l-1.412-1.831l-0.608-1.348
			l-1.316-0.902l-0.997,0.383l-1.063,0.669l-0.224-0.354l0.548-1.087l1.063-0.67l-0.094-0.93l-0.675-1.059l-2.537-0.874
			l-1.929,0.475l-2.091-0.166l-2.797,0.28l-0.802-0.483l-0.224-0.354l-0.32-1.281l-0.644,0.156l-0.643,0.158l-0.259,1.153
			l-0.419,0.511l-0.064,0.29l-0.643,0.157l-0.513-0.418l0.771-0.734l-0.225-0.353l-0.998,0.381l0.129-0.576l0.419-0.512
			l-0.384-0.994l-0.998,0.381l-2.028,2.269l-3.73,0.373l-0.962-1.124l-0.579-0.13l-1.511-0.037l-0.159-0.641l0.483-0.801
			l0.195-0.862l-2.439-2.669l-1.316-0.901l-1.417,0.894l-1.48,1.181l-1.994,0.764l-0.579-0.13l0.519-2.306l-0.061-2.437l-0.48-1.925
			l-0.158-0.642l0.194-0.864l2.06-1.05l0.773-0.735l0.454-2.018l-0.319-1.282l-0.386-0.996l0.648-2.882l0.483-0.8l0.643-0.159
			l1.671,0.68l1.286-0.318l1.353-0.604l-1.607-0.969l-1.156-0.257l0.065-0.288l0.482-0.802l1.351-0.604l1.701,1.896l2.315,0.521
			l1.443,0.324l0.387,0.993l0.094,0.931l0.803,0.483l1.157,0.261l0.643-0.159l0.869,0.195l2.313,0.52l1.127-0.959l2.024,0.456
			l2.607-2.14l0.902-1.311l2.702-1.21l1.351-0.606l1.321-1.821l1.576-0.252l0.193-0.864l0.997-0.382l1.382,0.614l1.734,0.388
			 M-263.256,82.421l-0.195,0.864l-0.547,1.089l-0.643,0.155l-1.157-0.258l0.417-0.512l0.643-0.158l0.773-0.735l0.195-0.864
			L-263.256,82.421z M-269.93,74.261l-0.614,1.375l-1.062,0.671l-0.578-0.13l-0.161-0.642l-0.16-0.642l0.354-0.223l0.867,0.193
			l0.838-1.021L-269.93,74.261z M-288.695,48.245l-1.093-0.549l-0.254-1.571l1.96,0.745l0.933-0.095l0.318,1.282l-1.156-0.259
			L-288.695,48.245z M-279.207,45.229l-0.259,1.153l-0.932,0.093l-0.225-0.353l1.19-1.245L-279.207,45.229z M-252.552,82.101
			l1.866-0.187l1.286-0.316l0.578,0.13l0.096,0.928l-2.09-0.166l-1.64,0.54l-0.548,1.089l-0.642,0.157l-0.804-0.483l-0.16-0.641
			l-0.803-0.483l-1.221,0.029l-0.804-0.484l-0.708,0.447l-0.513-0.419l-0.802-0.481l0.034-1.508l1.833-1.404l1.576-0.251
			l1.251,1.189l0.319,1.282l0.45,0.708l0.868,0.195L-252.552,82.101z M-259.342,86.631l1.606,0.966l0.194-0.864l-0.804-0.484
			l-0.607-1.349l-0.418,0.513L-259.342,86.631z M-259.165,137.233l0.029,1.22l-1.22,0.028l-0.097-0.931l0.84-1.023L-259.165,137.233
			z M-217.239,70.958l0.58,0.13l-0.195,0.864l0.032,1.218l-0.13,0.577l-0.579-0.129l-0.898-1.413l0.13-0.578L-217.239,70.958z
			 M-220.938,72.549l-0.354,0.222l-0.129,0.578l0.225,0.354l1.157,0.26l0.998-0.381l-0.161-0.643l-0.803-0.482L-220.938,72.549z
			 M-251.659,65.951l2.414-1.275l0.866,0.196l-1.479,1.181l-1.77,1.116l-0.449-0.706L-251.659,65.951z M-244.018,72.513l0.354-0.225
			l0.483-0.8l0.868,0.195l-0.194,0.865l-0.643,0.158l-0.064,0.288l0.094,0.929l-0.129,0.577l0.513,0.417l0.29,0.065l0.867,0.194
			l-0.064,0.289l-0.482,0.801l-0.708,0.446l-0.579-0.13l0.129-0.576l-0.579-0.131l-2.602-0.584l-0.225-0.354l0.483-0.801
			l1.576-0.252l0.354-0.222l0.195-0.865L-244.018,72.513z M-243.017,69.405l-0.418,0.513l-0.419,0.512l-0.902,1.311l-0.772,0.734
			l-0.709,0.447l-0.514-0.419l0.773-0.735l-1.122-1.765l-0.703-2.278l-0.16-0.641l0.932-0.094l1.093,0.548l0.224,0.353l0.543,1.637
			l0.803,0.484l0.26-1.154l-0.739-0.771l-0.159-0.641l0.193-0.866l0.354-0.223l0.868,0.194l0.449,0.706l0.03,1.221L-243.017,69.405z
			 M-236.175,72.759l0.803,0.484l0.803,0.482l-0.194,0.865l-0.58-0.131l-1.315-0.9l0.193-0.866L-236.175,72.759z M-226.852,71.826
			l-0.612,1.377l-0.837,1.021l-1.157-0.259l-0.513-0.419l-0.226-0.353l1.994-0.765l0.838-1.021L-226.852,71.826z M-230.874,74.858
			l0.095,0.93l-0.578-0.13l-0.997,0.381l-0.515-0.417l0.773-0.735L-230.874,74.858z M-242.396,82.868l-0.514-0.419l0.548-1.088
			l0.933-0.094l0.708-0.445l-0.389,1.729L-242.396,82.868z M-252.948,129.851l-2.894-0.65l0.259-1.152l-0.578-0.13l-1.062,0.67
			l-0.289-0.065l-0.675-1.06l-1.769,1.116l-0.515-0.418l0.324-1.441l1.286-0.316l-1.38-0.613l0.708-0.446l1.894,1.031l-0.318-1.283
			l-0.609-1.348l-0.897-1.413l-0.514-0.419l-0.998,0.383l-0.836,1.023l-0.868-0.195l0.614-1.377l0.612-1.376l1.317,0.902
			l0.934-0.095l0.707-0.445l0.129-0.578l-0.319-1.281l1.737,0.389l-0.097-0.93l-1.669-0.676l0.034-1.508l0.643-0.158l-0.447-0.706
			l-1.093-0.548l0.419-0.514l1.446,0.327l1.123,1.765l0.772-0.734l0.484-0.799l0.453-2.019l-1.027-0.837l0.42-0.511l0.931-0.094
			l0.42-0.51l-0.161-0.644l-2.313-0.518l-2.314-0.521l-0.095-0.93l2.06-1.053l-1.382-0.613l0.484-0.799l-0.16-0.642l1.127-0.957
			l0.194-0.865l-1.412-1.831l-9.421,2.727l-0.868-0.194l0.193-0.864l-0.643,0.158l-2.861,0.568l1.126-0.959l3.282-1.078l4.02-0.309
			l2.637-0.922l4.502-1.108l5.823-2.932l4.855-1.331l3.958-2.744l1.456-5.123l0.9-1.311l0.514,0.418l1.546-1.469l0.872-2.53
			l6.85-2.095l0.966-1.6l1.158,0.261l0.672,1.06l0.061,2.437l1.217,2.694l0.543,1.636l1.283,2.408l4.532,0.109l1.063-0.669
			l1.092,0.548l4.691,0.752l1.511,0.036l0.803,0.482l3.924-1.237l0.708-0.447 M-221.875,75.366l-0.417,0.512l-0.129,0.577
			l0.867,0.193l0.803,0.483l0.129-0.576l-0.448-0.706L-221.875,75.366z M-222.454,75.238l-0.508-3.145l-1.222,0.028l-0.644,0.158
			l0.162,0.642l0.318,1.283l-1.639,0.539l-0.933,0.095l-0.483,0.8l1.156,0.26l2.798-0.281L-222.454,75.238z M-223.708,76.772
			l1.251,1.188l1.157,0.263l-0.065,0.286l-1.063,0.67l-2.347,0.986l-0.385-0.995l0.066-0.288l-0.225-0.354l0.643-0.157l0.997-0.383
			l-0.385-0.994L-223.708,76.772z M-196.734,74.353l0.578,0.131l-0.128,0.577l-0.838,1.021l-0.16-0.641L-196.734,74.353z
			 M-183.297,74.04l0.483-0.799l1.092,0.548l0.933-0.095l-0.129,0.577l-0.644,0.159l-0.868-0.195L-183.297,74.04z M-174.749,76.567
			l-0.774,0.732l-0.902,1.313l-0.578-0.132l0.678-1.664l-0.096-0.929l-1.155-0.26l-0.869-0.195l0.259-1.152l0.26-1.152l1.38,0.612
			l0.997-0.382l0.708-0.446l0.773-0.735l0.514,0.419l0.867,0.195l0.644-0.159l1.091,0.548l-0.481,0.801l-0.135,3.3l-0.771,0.734
			l-0.355,0.225l-0.353,0.223l-0.256-1.572L-174.749,76.567z M-196.989-8.364l-0.419,0.512l-0.418,0.512l-1.994,0.764l0.259-1.152
			l-0.095-0.932l0.997-0.38l1.222-0.029L-196.989-8.364z M-200.564-4.625l-1.38-0.612l-0.869-0.195l-0.384-0.995l1.671,0.679
			L-200.564-4.625z M-202.483-9.597l-0.773,0.733l0.029,1.219l-0.064,0.288l-1.091-0.549l-0.319-1.282l1.125-0.959l0.869,0.194
			L-202.483-9.597z M-198.915-10.613l-0.259,1.153l-1.22,0.028l-0.55,1.088l-0.193,0.865l-0.514-0.419l-0.254-1.57l0.901-1.313
			l1.511,0.037L-198.915-10.613z M-188.391-18.24l-0.868-0.195l-1.286,0.316l-1.9,1.692l-1.45,2.4l0.833,1.701l0.16,0.641
			l0.739,0.771l1.445,0.325l0.45,0.706l0.867,0.195l0.612-1.377l1.222-0.027l0.643-0.158l0.614-1.377l0.164-2.081l-0.896-1.414
			l-1.253-1.189L-188.391-18.24z M-162.491,69.327l0.514,0.418l0.161,0.644l-0.065,0.286l-0.643,0.159l-0.451-0.706l-0.095-0.93
			L-162.491,69.327z M-161.398,69.875l0.867,0.196l-0.194,0.864l-0.354,0.224l-0.224-0.354l-0.224-0.353L-161.398,69.875z
			 M-163.777,69.644l0.449,0.708l-0.065,0.287l-0.868-0.193l-0.578-0.132l0.194-0.864l0.644-0.157L-163.777,69.644z
			 M-128.264,136.059l0.997-0.382l0.514,0.419l-0.195,0.864l-0.804-0.483L-128.264,136.059z M-128.813,137.146l-0.803-0.483
			l-0.643,0.159l0.159,0.64l0.868,0.195L-128.813,137.146z M-150.556,83.817l-1.126,0.958l-0.484,0.8l-0.323,1.44l0.096,0.931
			l-0.131,0.576l0.994,2.343l0.384,0.994l-0.354,0.224l-1.575,0.252l-1.866,0.187l-0.932,0.094l-0.708,0.446l-0.643,0.157
			l-0.419,0.512l-0.288-0.065l-0.803-0.481l-0.867-0.195l-0.709,0.446l-0.673-1.061l-0.16-0.64l-0.384-0.995l-0.45-0.706
			l-0.447-0.706l0.063-0.289l0.549-1.088l0.548-1.088l0.354-0.224l0.514,0.418l0.579,0.131l0.642-0.159l0.355-0.224l1.515-2.688
			l1.835-1.404l1.061-0.67l1.287-0.315l1.321-1.823l0.355-0.224l1.286-0.316l0.708-0.446l3.411-1.657l0.737,0.772l-2.575,3.357
			L-150.556,83.817z M-267.147,41.579l2.378,0.232l2.862-0.569l1.9-1.692l0.418-0.511l1.158,0.26l0.932-0.094l2.962-2.364
			l3.055-1.432l3.315-2.586l2.797-0.279l2.832-1.786l1.64-0.54l1.286-0.316l4.796-3.768l1.191-1.246l5.563-1.778l2.927-0.856
			l1.609-1.757l0.743-1.954l-0.094-0.929l-1.029-0.837l0.773-0.734l2.089,0.166l1.961,0.743l-0.674-1.059l0.418-0.513l1.801,0.102
			l1.157,0.261l0.772-0.735l0.933-0.094l1.735,0.392l0.514,0.419l1.511,0.035l0.643-0.159l0.419-0.512l0.354-0.223l0.579,0.13
			l1.156,0.26l1.063-0.669l0.997-0.383l0.419-0.512l0.707-0.445l1.187,1.478l2.763,1.225l4.114,0.622l-0.131,0.577l-3.311-0.138
			l-2.379-0.232l-1.575,0.251l-0.482,0.801l-0.42,0.511l-1.93,0.475l-0.578-0.129l-0.867-0.195l-1.381-0.611l-3.665,0.084
			l-0.772,0.735l0.095,0.929l0.512,0.419l2.508-0.346l2.219-0.409l2.089,0.165l1.705-0.827l0.225,0.354l-0.193,0.864l0.448,0.705
			l1.896,1.032l2.827,0.94l0.869,0.192 M-118.189,127.724l-1.9,1.693l-1.256,1.535l0.159,0.642l0.738,0.771l-0.354,0.222
			l-0.868-0.194l-0.933,0.094l-0.193,0.865l0.159,0.64l-5.081,0.979l-3.598-0.202l-1.383-0.613l-1.092-0.548l-2.25-0.808
			l-2.344-1.738l-1.027-0.836l-1.605-0.966l-0.739-0.772l-0.514-0.418l-0.32-1.283l0.1-1.795l-0.672-1.059l-0.804-0.484l0.13-0.575
			l0.195-0.864l0.802,0.482l0.289,0.065l0.579,0.13l0.838-1.022l-2.28-2.027l-0.803-0.482l-0.737-0.771l-0.834-1.702l-1.476-1.542
			l-0.833-1.701l-1.283-2.407l-0.803-0.484l-1.669-0.678l0.128-0.577l0.645-0.157l0.418-0.513l0.195-0.863l-0.385-0.995l0.13-0.576
			l2.153-0.121l0.773-0.735l0.996-0.382l0.483-0.8l-1.83-1.319l-0.45-0.707l1.256-1.534l0.838-1.023l0.354-0.223l0.354-0.224
			l0.932-0.092l0.419-0.512l-0.16-0.643l-1.381-0.613l0.129-0.577l0.165-2.081l-0.449-0.707l-0.225-0.354l-0.513-0.418l-0.802-0.482
			l0.836-1.024l0.997-0.38 M-145.842,91.235l4.791-1.043l2.704-1.21l3.055-1.433l2.318-2.206l0.773-0.734l2.158-2.845l0.128-0.577
			l-0.16-0.642l-0.094-0.93l0.644-0.157l0.419-0.512l-0.097-0.931l-0.159-0.642 M-129.361,77.375l-0.225-0.354l-0.868-0.194
			l-0.933,0.093l-0.289-0.064l-0.03-1.218l-0.803-0.483l-1.157-0.26l-0.998,0.383l-1.51-0.038l-0.13,0.576l-1.062,0.67l-0.578-0.13
			l-0.869-0.194l-0.643,0.158l-3.216,0.791l-2.023-0.454l-2.794-2.443l-2.792-2.445l-3.272-4.367l-1.671-0.679l-3.312-0.137
			l-1.959-0.745l-0.224-0.354l-4.692-0.75l-1.415,0.895l-0.579-0.131l-0.514-0.418l-0.579-0.131l-0.998,0.382 M-74.226,74.017
			l-0.449-0.707l-0.448-0.706l-0.515-0.418l-0.354,0.224l-0.129,0.576l-0.548,1.088l-2.413,1.274l-1.002,3.105l-6.245,6.167
			l-0.807,2.24l0.318,1.283l-0.806,2.24l1.989,1.961l1.542,1.254l1.701,1.897l0.962,1.125l1.959,0.742l0.45,0.707l1.605,0.965
			l0.515,0.42l-0.196,0.863l0.16,0.643l1.092,0.548l0.868,0.195l-1.226,2.751l-1.287,0.317l-1.286,0.316l0.672,1.061l0.032,1.218
			l-0.229,2.37l-0.933,0.094l-1.156-0.26l-0.58-0.13l-1.576,0.251l-0.514-0.418l-0.159-0.642l0.933-0.094l0.353-0.223l-0.385-0.995
			l-1.445-0.324l-1.157-0.261l-0.58-0.128l-0.028-1.22l-0.579-0.129l-0.644,0.158l-1.321,1.823l-1.511-0.038l-0.225-0.354
			l-0.578-0.129l-0.354,0.224l-1.155-0.26l-1.643,0.539l-1.416,0.893l-2.507,0.345l-1.511-0.036l-0.577-0.129l-0.225-0.354
			l-0.58-0.13l-1.061,0.67l-0.708,0.446l-0.195,0.865l0.16,0.641l0.448,0.707l-1.126,0.957l-2.089-0.167l-0.482,0.801l-0.196,0.864
			l1.253,1.191l-0.419,0.51l-0.643,0.159l0.16,0.641l0.225,0.354l-0.26,1.153l-0.579-0.131l-0.513-0.418l-0.643,0.158l-0.131,0.576
			l-0.129,0.577l-0.353,0.223l-0.997,0.383l-1.93,0.475l-2.06,1.051l-2.447,2.78l-3.125,4.445 M-205.211,68.815l-1.865,0.186
			l-0.418,0.512l-1.322,1.823l-0.643,0.159l-0.933,0.093l-1.541-1.254l-0.449-0.708l-0.03-1.218l-1.222,0.029l-2.637,0.921
			l-2.09-0.168l-1.157-0.259l-1.126,0.958l-0.997,0.382l-4.049-0.91l-1.51-0.037l-1.865,0.188l-1.8-0.103l-1.704,0.829l-0.484,0.798
			l0.16,0.642l-0.579-0.129l-4.373,0.532l-2.184-1.097l-0.997,0.381l-0.447-0.707l-0.161-0.64l0.707-0.447l-1.187-1.479
			l-0.318-1.282l-0.031-1.218l-0.674-1.061l1.222-0.026l0.129-0.577l-2.763-1.227l-0.159-0.642l-1.576,0.251l-3.056,1.433
			l-3.185,2.011l-1.261,4.26 M-205.147,88.813l1.127-0.958l2.322-4.928l-1.248-3.914l3.307,2.861l3.604-2.52l2.22-0.41l1.32-1.823
			l0.514,0.417l-0.194,0.865l0.868,0.195l0.967-1.6l0.354-0.223l1.446,0.325l1.829,1.319l1.382,0.613l1.735,0.389l2.218-0.41
			l0.484-0.799l0.513,0.418l0.384,0.995l-0.548,1.087l0.225,0.354l1.801,0.102l0.289,0.065l0.513,0.418l0.868,0.194l0.515,0.419
			l-0.324,1.44l-0.419,0.512l3.66,2.64l1.03,0.836l0.832,1.702l1.156,0.259 M-170.399,89.654l4.114,0.622l0.771-0.735l0.162,0.641
			l-0.035,1.507l1.026,0.837l-0.483,0.799l-2.03,2.271l-1.324,4.546l-0.194,0.864l0.932-0.092l0.644-0.159l0.513,0.418l0.929,2.631
			l-0.708,0.446l0.675,1.06l-0.968,1.599l-0.354,0.225l-1.091-0.549l-0.483,0.801l1.026,0.835l0.16,0.642l1.093,0.549l0.449,0.707
			l-5.789,1.424l-3.829,2.167l-1.641,0.54l-1.865,0.188l-1.062,0.669l-0.996,0.383l-0.484,0.799l-0.418,0.512l-0.708,0.447
			l-0.933,0.092l-0.579-0.13l-0.194,0.865 M-169.493,65.333l-1.799-0.102l-0.867-0.194l-0.644,0.157l0.158,0.642l-0.127,0.576
			l-0.643,0.157l-2.573,0.635l-1.062,0.671l-0.549,1.087l-0.644,0.159l-1.51-0.038l-1.027-0.835l-1.157-0.262l-0.129,0.578
			l0.029,1.217l-2.411,1.274l-1.512-0.035l-0.485,0.8l-0.611,1.377l-1.223,0.026l-1.736-0.39l-0.801-0.482l-0.643,0.159
			l-1.063,0.668l-0.803-0.481l-0.03-1.219l0.034-1.507l-0.224-0.354l-0.708,0.447l-0.643,0.158l-0.58-0.13l-0.579-0.13l0.454-2.018
			l-0.578-0.13l-1.127,0.958l-4.019,0.308l-1.156-0.258l-0.449-0.71l-0.868-0.194l-0.099,1.796l-0.354,0.223l-0.962-1.123
			 M-184.074,118.071l-1.191,1.247l-1.126,0.957l-1.481,1.183l-4.45,8.991l-4.325-9.147l-1.477-1.542l-1.796-2.826l-1.541-1.254
			l-3.406-1.066l-1.122-1.767l-3.47-0.78l-2.574,0.633l0.323-1.44l-0.578-0.129l-0.966,1.599l-0.13,0.576l-0.933,0.093l-5.239,0.338
			l-1.641,0.539l0.449,0.706l2.507-0.345l0.579,0.129l-0.065,0.29l-4.437,0.818l-0.354,0.224l-0.421,0.512l-0.063,0.288
			l-0.514-0.417l-0.161-0.643l-0.579-0.131l-0.644,0.159l-1.61,1.758l-1.13,3.683l-1.61,1.758l-0.807,2.241l-0.353,0.224
			l-1.028-0.838l-3.155,3.228l-1.191,1.247l-0.194,0.865l-1.607-0.966l-0.576-0.131l-0.643,0.157l-1.128,0.958l-1.196,3.972
			l-0.164,2.082l-0.868-0.195l-0.644,0.158l-0.967,1.6l1.766,1.607l-0.358,2.948l-2.024-0.455l0.13-0.575l-0.226-0.354l-0.543-1.637
			l-1.381-0.612l-1.446-0.324l-0.933,0.093l-1.062,0.669l-1.381-0.612l-0.514-0.418l-1.99-1.962l-2.218,0.41l0.164-2.082
			l1.834-1.405l0.484-0.799l1.511,0.036l-0.094-0.929l0.548-1.09l-1.445-0.323 M-198.806,22.717l-1.638-2.184l-1.057-2.055
			l0.418-0.512l1.511,0.036l0.516,0.42l0.095,0.928l0.449,0.707l0.737,0.771l2.344,1.737l1.156,0.26l2.962-2.362l1.575-0.251
			l1.158,0.26l5.973,3.159l6.588,1.783l3.794-0.663l1.54,1.255l1.671,0.679l5.4,0.304l4.408-2.038l3.31,0.139 M-138.029,29.406
			l3.699-1.591l3.122-1.723l1.928-0.475l1.671,0.679l1.93-0.475l1.67,0.678l0.804,0.483l0.992,2.341l0.095,0.932l-0.128,0.576
			l-0.708,0.445l-0.803-0.482l-1.257,1.534L-126.077,33l-1.48,1.181l-1.287,0.315l0.804,0.484l0.933-0.094l1.125-0.958l0.643-0.158
			l0.291,0.064l-0.483,0.801l-0.454,2.018l1.252,1.188l1.028,0.837l-0.13,0.577l-1.255,1.534l0.513,0.418l1.192-1.246l1.381,0.612
			l0.129-0.575l-0.962-1.127l-0.031-1.217l3.281-1.08l2.125-1.338l0.094,0.929l-0.996,0.381l0.385,0.996l-0.066,0.287l0.803,0.483
			 M-155.896,25.09l0.869,0.195l3.634-1.305l1.316,0.901l1.671,0.678l5.27,0.883l2.603,0.585l1.895,1.03l0.608,1.349 M21.42,187.849
			l-0.993-2.341l-0.736-0.771l-0.093-0.93l0.481-0.801l0.644-0.158l0.804,0.484l0.478,1.923l1.606,0.968l0.321,1.282l-0.132,0.576
			l-1.127,0.959L21.42,187.849z M20.877,105.069l1.094,0.549l0.447,0.705l0.386,0.996l-0.136,3.298l-0.996,0.382l-0.963-1.125
			l-1.252-1.188l0.454-2.019L20.877,105.069z M15.426,117.167l-0.514-0.419l0.065-0.287l0.288,0.064l0.226,0.354L15.426,117.167z
			 M12.746,125.044l-0.097-0.934l0.613-1.374l1.125-0.959l0.452,0.707l-1.033,1.888l-0.613,1.377L12.746,125.044z M10.911,126.446
			l-0.804-0.482l0.065-0.289l0.643-0.157l0.16,0.642L10.911,126.446z M8.399,129.516l-0.323,1.44l-1.063,0.671l-0.512-0.418
			l0.416-0.513l0.903-1.311L8.399,129.516z M18.478,138.743l1.388-2.109l0.931-0.095l0.644-0.157l0.449,0.705l-0.39,1.731
			l-0.708,0.445l-0.802-0.482l-0.998,0.381L18.478,138.743z M21.675,148.848l0.676,1.061l-0.547,1.089l-0.806-0.484l-0.447-0.705
			L21.675,148.848z M-51.019,96.488l-0.29-0.065l-6.108,0.141l-2.088-0.165l-7.395,0.458l-1.8-0.103l-0.643,0.159l-0.224-0.353
			l0.064-0.289l0.419-0.512l0.353-0.224l0.773-0.734l0.772-0.732l0.708-0.449l0.515,0.419l0.866,0.195l0.645-0.159l2.442-0.056
			l1.93-0.476l0.773-0.734l0.643-0.158l0.867,0.194l0.354-0.223l0.902-1.312l0.614-1.376l-0.608-1.348l-0.803-0.483l-2.155,0.122
			l-1.575,0.251l-0.418,0.512l-0.804-0.482l-0.29-0.065l-1.379-0.613l-2.444,0.059l-0.515-0.419l-0.159-0.643l-0.449-0.707
			l-0.739-0.771l-0.672-1.058l0.26-1.154l-0.226-0.352l-0.997,0.38l-0.647,2.883l-0.1,1.794l-0.453,2.018l-0.932,0.094l-0.673-1.061
			l-1.251-1.188l-0.45-0.707l0.26-1.152l0.836-1.023l-0.254-1.571l0.034-1.505l-0.285-2.791l0.324-1.44l1.032-1.889l1.48-1.181
			l0.902-1.312l-1.157-0.259l-1.64,0.54l-1.351,0.604 M14.152,89.025l-1.322,1.822l-0.55,3.813l0.447,0.706l0.831,1.701
			l-0.609,1.377l-0.262,1.151l-0.063,0.288l-1.285,0.318l-0.356,0.222l-0.354,0.224l-1.292,3.04l-3.376,2.875l-1.034,1.888
			l-0.645,0.158l-0.579-0.131l-1.059,0.672l-1.417,0.893l-2.091-0.167l-1.315-0.9l-0.386-0.997l0.131-0.575l-0.096-0.932
			l-0.449-0.705l-0.445-0.706l-0.45-0.706l0.127-0.576l0.355-0.223l0.644-0.16l0.127-0.576l0.196-0.864l0.229-2.37l0.937-2.818
			l0.772-0.734l0.972-4.322l0.548-1.09l0.641-0.158l2.827,0.938l0.42-0.51l-0.769-1.99l-0.767-1.989l-3.275-1.643l-2.735-0.011
			l-2.509,0.345l-3.474,1.945l-0.419,0.512l-0.191,0.865l0.447,0.705l-0.772,0.736l-3.698,1.591l-2.769,1.496l-3.896,5.182
			l-3.252,2.297l-1.096,2.177l0.095,0.93l0.383,0.995l0.096,0.928l-1.96-0.741l-3.146-2.222l-4.592-2.545l-6.429-1.142l-3.117-1.003
			l-3.694-1.131l-0.225-0.356l0.643-0.156l0.13-0.577l-0.672-1.059l0.195-0.864l0.418-0.512l1.479-1.183l-0.226-0.354l-0.929,0.095
			l-1.866,0.188l-0.708,0.446l-0.708,0.446l0.384,0.993l1.186,1.479l-0.129,0.575l-0.354,0.224l-0.352,0.224l-0.579-0.13
			l-2.089-0.166 M-42.865-18.251l-0.933,0.094l-1.641,0.54l-0.737-0.771l-0.674-1.06l0.709-0.447l0.997-0.381l1.091,0.548
			l1.287-0.317l0.709-0.445l0.448,0.705l-0.482,0.801l-0.13,0.575L-42.865-18.251z M-117.245,38.313l0.096,0.93l1.027,0.836
			l-0.259,1.152l1.222-0.026l0.579,0.129l0.997-0.382l0.708-0.445l1.222-0.028l0.868,0.194l-1.062,0.67l-0.129,0.575l-0.997,0.383
			l1.67,0.677l2.024,0.456l1.415-0.894l0.484-0.8l-0.449-0.705l-0.708,0.446l-0.933,0.093l-0.16-0.643l0.065-0.287l0.838-1.023
			l0.643-0.156l1.315,0.899l0.515,0.418l0.447,0.707l0.675,1.06l0.418-0.511l-0.031-1.22l0.867,0.196l0.643-0.159l0.1-1.794
			l-0.608-1.349l1.157,0.26l1.605,0.967l3.182,0.715l0.354-0.224l0.259-1.153l-0.447-0.705l0.901-1.312l0.324-1.442l1.351-0.604
			l0.933-0.092l0.255,1.569l-0.483,0.801l0.095,0.929l-0.194,0.865l1.316,0.902l1.65-5.988l-0.031-1.218l-2.309-3.245l0.488-3.523
			l-0.898-1.413l0.194-0.865l0.482-0.799l2.608-2.139l1.869-2.911l2.349-0.986l1.126-0.959l0.808-2.239l3.15-0.504l0.998-0.383
			 M-80.653,12.016l0.997-0.38l1.964-1.982l2.509-0.345l8.819-6.799l3.605-2.521l3.219-3.516l3.867-6.398l1.421-3.618l0.164-2.081
			l-0.543-1.637l0.393-4.454l-0.513-0.417l-0.514-0.418l1.001-3.107l1.416-0.892l0.194-0.865l0.584-2.594l0.772-0.734l1.994-0.764
			l3.57-1.015l0.868,0.194l2.668,0.297l6.206-1.937l0.419-0.512l1.286-0.316l1.799,0.102l1.865-0.186l3.051,1.291l0.351,2.501
			l-0.194,0.864l-1.062,0.671l-1.316-0.902l-0.933,0.094l-1.256,1.534l0.095,0.93l0.383,0.995l-1.963,1.981l-2.733-0.009
			l-1.929,0.475l-2.093,2.559l-2.509,0.345l-1.157-0.26l-0.383-0.995l-0.738-0.771l-1.222,0.028l0.449,0.706l-0.258,1.154
			l-1.353,0.604l-0.323,1.442l-1.063,0.668l-0.418,0.513l0.738,0.771l1.67,0.678l0.963,1.125l1.446,0.323l1.321-1.822l0.868,0.195
			l-0.744,1.952l0.061,2.438l-0.452,2.016 M-43.326-10.786l-2.803,3.006l-0.612,1.376l2.823,3.662l3.372,2.573l3.535,0.491
			l1.865-0.187l2.413-1.275l1.904-4.416l1.416-0.893l7.394-0.459 M85.026,73.76l0.223,0.353l-0.127,0.576l-0.837,1.024l-1.157-0.261
			l-0.868-0.194l-1.929,0.475l-0.29-0.065l-0.515-0.418l-0.578-0.131l-0.868-0.194l-4.92,1.619l-2.831,1.787l-1.836,1.404
			L66.4,82.292l-1.386,2.11l-0.453,2.018l-0.196,0.865l0.159,0.641l0.517,0.419l-0.873,2.528l-1.354,3.33l-0.84,1.021l-1.416,0.894
			l-1.992,0.764l-2.862,0.568l-0.932,0.095l-0.579-0.132l-1.092-0.548l-0.354,0.225l-3.12,1.72l-1.931,0.476l-0.997,0.382
			l-0.771,0.734l-0.549,1.088l-0.614,1.375l-0.482,0.801l-0.998,0.381l-0.772,0.736l-0.933,0.093l-1.445-0.325l-0.867-0.194
			l-0.191-1.859l-0.448-0.705l-1.092-0.55l-0.158-0.642l0.353-0.224l2.025,0.455l0.287,0.064l0.132-0.576l0.128-0.576l-0.832-1.7
			l0.063-0.289l0.195-0.865l0.482-0.8l0.164-2.083l0.325-1.439l0.257-1.155l0.419-0.511l0.709-0.445l0.418-0.512l0.55-1.088
			l-1.058-2.055l0.127-0.576L41.9,85.873l-0.29-0.065l-0.161-0.644l0.707-0.446l0.868,0.195l0.419-0.511l0.26-1.153l0.354-0.224
			l0.935-0.094l0.513,0.419l0.643-0.159l-0.318-1.282l0.483-0.8l1.64-0.539l1.126-0.96l2.154-0.12l2.385-2.492l0.351-0.224
			l1.287-0.317l0.482-0.799l-0.092-0.929l-0.227-0.354l-0.801-0.482l-0.226-0.354l-0.159-0.642l-0.096-0.93l-2.184-1.095
			l-1.67-0.681l-0.485,0.802l-0.771,0.734 M49.026,71.729l-0.709,0.446l-0.513-0.42l-0.225-0.353l-0.224-0.353l-0.29-0.065
			l-0.354,0.224l-0.579-0.129l-0.644,0.157l-0.996,0.383l-0.644,0.158l-0.484,0.8l0.096,0.929l0.32,1.283l-0.708,0.446
			 M43.074,75.235l-2.769,1.497l-1.641,0.539l-1.06,0.671l0.158,0.642l0.738,0.771l-1.546,1.471l-0.552,3.812l0.385,0.995
			l1.541,1.255l0.449,0.706l-0.421,0.511l-1.769,1.117l-0.968,1.599l0.675,1.062l-1.287,0.315l-1.156-0.26l0.712-3.17l-1.862-2.539
			l-0.158-0.641l0.55-1.088l-2.119-1.384l-4.919-1.105l-3.889-0.269l-2.638,0.922l-0.706,0.447l-0.645,0.158l-2.671,2.429
			l-0.13,0.576l-0.1,1.792l-0.708,0.447l-0.419,0.513 M93.4,22.957l-1.899,1.692l-8.893,12.536l-1.358,6.054l-2.319,2.203
			l-0.94,5.542l0.605,4.073l2.525,9.043l2.14,8.051l0.963,1.126l0.803,0.482 M49.397-61.109l0.642-0.159l0.837-1.023l-0.159-0.64
			l-0.096-0.931l-0.837,1.024l-0.771,0.735L49.397-61.109z M105.885-24.501l0.729,6.221l0.38,3.719l-0.134,3.3l-0.103,1.793
			l-0.225,2.373l-1.396,7.558l-1.648,5.988l-2.936,6.305l-1.003,3.106l0.45,0.706l-0.389,1.729l-0.708,0.446l-0.354,0.223
			l-1.158-0.261l-0.641,0.16l-0.774,0.733l-1.221,0.028l-1.063,0.671L93.4,22.957 M-22.021-6.907l2.154-0.122l9.099-1.285
			l6.596-3.666l2.892,0.648l2.669,0.298l1.257-1.535l1.704-0.827l7.527-3.76l3.571-1.015l4.606-5.628l2.122-1.338l3.286-3.805
			l1.614-4.481l4.216-3.897l8.139-2.41l4.37-0.533l4.408-2.039l5.539-5.718l3.518-8.898l2.158-2.846l1.772-3.841 M140.51-69.104
			l-0.326,4.166l-0.42,0.511l-1.157-0.26l-0.416,0.512l0.093,0.928l-0.77,0.737l-1.577,0.251l-1.191,1.246l-0.195,0.864l0.256,1.572
			l-0.195,0.864l-2.638,0.921l-0.677,1.664l0.512,0.418l1.577-0.251l-0.613,1.376l-0.931,0.093l-0.391,1.73l0.449,0.707l1.029,0.837
			l0.382,0.993l-0.416,0.513l-1.225,0.028l-0.352,0.223l-0.55,1.088l1.253,1.189l-0.42,0.511l-0.932,0.093l-0.355,0.224l-0.482,0.8
			l0.162,0.642l1.22-0.029l0.737,0.771l-0.128,0.576l-0.838,1.023l0.768,1.99l1.028,0.837l-0.194,0.864l-1.093-0.548l-0.933,0.093
			l-0.13,0.576l-0.644,0.158l-0.737-0.77l-0.095-0.93l-0.675-1.061l-0.896-1.412l0.096-1.796l-0.286-0.063l-0.998,0.382l-0.45-0.707
			l-0.383-0.995l-2.313-0.519l-2.378-0.232l-1.353,0.604l-0.838,1.024l-0.128,0.577l-0.708,0.445l-0.579-0.129l-0.32-1.283
			l-1.574,0.252l0.031,1.219l-0.196,0.863l-1.415,0.894l-2.607,2.14l-3.995,6.975l-0.614,1.377l-0.778,3.457l0.287,2.789
			 M153.669-135.788l0.831,1.702l2.336,7.185l-0.777,3.459l2.215,2.314l-0.482,0.801l-1.287,0.315l-0.291,2.66l1.632,2.185
			l1.673,0.678l-0.393,4.453l0.731,3.495l-0.421,3.236l-0.68,1.664l-0.836,1.023l-1.646,3.264l-0.033,1.506l0.578,0.13l1.258-1.533
			l0.929-0.096l-0.067,3.012l0.964,1.126l-0.325,1.44l-1.545,1.469l-0.772,0.735l-0.194,0.865l1.509,0.037l-1.607,1.757
			l-1.512-0.037l-0.324,1.442l-1.835,1.404l0.514,0.417l1.512,0.037l-0.484,0.8l-2.281,0.698l-0.195,0.863l-0.131,0.577l0.096,0.931
			l0.515,0.418l0.58,0.13l0.158,0.641l-0.484,0.801l-1.286,0.316l-0.772,0.733l-0.13,0.579l0.45,0.707l-1.643,0.539l-0.419,0.512
			l0.161,0.642l0.803,0.482l0.159,0.642l-0.64,0.16l-1.419,0.891l-0.838,1.024l-1.577,0.251l-0.801-0.482l-0.707,0.446l-0.645,0.158
			l-0.578-0.13l0.261-1.152l-0.997,0.381l-0.391,1.729l-0.708,0.446l-0.738-0.771l-0.13,0.576 M61.196-63.606l0.552-1.086
			l2.092-2.558l8.464-6.577l6.71-13.632 M92.156-145.972l0.613-1.376l0.005-2.723l-0.255-1.572l0.258-1.153l-0.16-0.642
			l-1.799-0.101l-0.096-0.931l0.614-1.375l1.995-0.763l1.705-0.83l1.514-2.688l1.642-0.539l0.93-0.094l0.163,0.643l0.736,0.771
			l0.868,0.195l2.059-1.051l0.063-0.29l2.512-0.343l0.479-0.801l2.709-3.933l1.196-3.97l0.999-0.381l1.507,0.035l0.195-0.864
			l-0.867-0.194l-1.318-0.903l0.163-2.082l-0.671-1.06l-1.027-0.836l0.772-0.734l1.512,0.037l1.061-0.671l1.036-4.613l1.478,1.545
			l1.505,2.761l1.736,0.39l1.416-0.894l1.353-0.604l0.802,0.483l1.409,1.831l-0.389,1.729l-0.099,1.795l0.22,3.076l-0.296,5.384
			l0.509,3.142l0.317,1.282l0.805,0.484l1.22-0.029l1.063-0.669l1.483-1.181l-0.256-1.57l0.677-1.665l2.251-1.918l1.254,1.19
			l0.447,0.707l0.227,0.354l-0.418,0.511l-0.131,0.576l0.158,0.641l1.225-0.026l1.38,0.612l2.503,2.379l1.352-0.605l3.831-4.893
			l2.264-7.364l-1.341-4.842l-0.999,0.381l-1.961,1.982l-2.705,1.208l-3.826-0.556l-1.993,0.763l-2.443,0.057l-2.089-0.166
			l0.2-3.589l2.481-4.286l1.194-3.971l3.381-2.875l1.066-3.394l0.868,0.196l2.243,3.529l1.801,0.103l1.989,1.96l0.48,1.925
			l2.15,2.603l4.465,0.397l3.121-1.722l0.354-0.222l0.161,0.641l0.225,0.354l-1.71,3.552l-1.972,7.429l-1.776,3.84l-1.488,6.629
			l0.64,2.567l-0.817,7.687l1.435,8.498l1.026,0.837l1.352-0.605l0.579,0.13l0.513,0.418l1.537,3.979l0.964,1.124 M171.348-359.203
			l1.031-1.888l0.877-5.253l-1.064,0.67l-0.513-0.417l-0.671-1.06l-0.552,1.086l0.378,6.444L171.348-359.203z M173.849-354.098
			l-0.23,2.37l1.252,1.19l0.45,0.706l1.219-0.03l1.287-0.316l1.352-0.604l0.807-2.241l-0.255-1.571l-1.024-0.836l-1.158-0.261
			l-0.45-0.706l-0.511-0.418l-2.351,0.985l-1.127,0.958L173.849-354.098z M176.298-319.032l0.516,0.418l-0.067,0.288l-0.352,0.223
			l-0.738-0.771L176.298-319.032z M173.695-319.617l0.224,0.353l-0.063,0.289l-0.482,0.8l-0.29-0.064l-0.225-0.355l0.13-0.576
			L173.695-319.617z M90.74-226.224l-0.544-1.636l0.259-1.153l0.969-1.598l0.707-0.447l2.154-0.124l0.996-0.38l0.58,0.13
			l-0.519,2.306l-1.417,0.893l-1.708,3.553l-1.481,1.18l-0.096-0.929l-0.158-0.642L90.74-226.224z M308.688-265.979l0.519-2.305
			l1.162-2.464l0.129-0.577l1.062-0.67l1.707-0.827l2.443-0.056l1.188-1.248l1.192-1.246l1.098-2.176l0.708-0.446l0.801,0.482
			l0.194-0.865l1.356-3.329l1.768-1.117l1.417-0.892l1.51,0.037l0.837-1.024l1.676-2.045l2.732,0.008l1.513,0.037l2.442-0.056
			l4.085-3.322l0.935-0.093l0.513,0.417l0.868,0.195l0.355-0.222l1.189-1.246l0.903-1.312l-0.514-0.418l-3.891-0.268l-2.313-0.52
			l-1.091-0.549l-0.9-1.413l-2.727-2.733l-1.285,0.318l-4.573,4.119l-2.062,3.777l-1.48,1.181l-1.705,0.827l-0.613,1.377
			l-1.545,1.47l-2.03,2.268l-1.481,1.182l-0.548,1.087l-0.192,0.865l-0.773,0.735l-5.857,4.436l-1.287,0.317l-1.352,0.604
			l-0.901,1.312l-0.42,0.511l-1.285,0.317l-0.063,0.288l0.545,1.636l-0.102,1.794l-0.484,0.799l-0.193,0.864l0.802,0.483
			l0.935-0.093l1.798,0.102l0.225,0.353l0.16,0.642l-0.481,0.799l-0.262,1.154l0.805,0.483l0.481-0.801l0.036-1.506L308.688-265.979
			z M343.05-263.407l0.065-0.288l0.191-0.866l0.644-0.158l3.664-0.085l2.415-1.275l1.928-0.476l0.61,1.349l0.962,1.124l-0.614,1.375
			l-1.509-0.034l-0.419,0.511l-0.901,1.312l-3.44,0.438l-1.351,0.605l-0.486,0.799l-0.446-0.706l-0.704-2.278L343.05-263.407z
			 M332.048-257.703l1.188-1.248l1.384,0.614l0.093,0.929L332.048-257.703z M324.455-253.656l0.707-0.447l1.221-0.029l1.446,0.326
			l0.449,0.706l-0.066,0.287l0.097,0.93l-1.063,0.67l-0.995,0.382l-1.479-1.543L324.455-253.656z M317.922-250.28l-0.095-0.93
			l0.868,0.196l0.867,0.193l0.096,0.93L317.922-250.28z M322.773-248.886l0.869,0.195l0.707-0.447l0.129-0.576l-1.156-0.261
			l-0.709,0.447L322.773-248.886z M321.872-247.575l0.225,0.354l-0.13,0.575l-0.803-0.482l0.065-0.287L321.872-247.575z
			 M355.566-292.084l0.258-1.153l0.744-1.952l1.126-0.958l0.644-0.158l1.063-0.669l-0.544-1.636l-0.386-0.996l0.065-0.289
			l0.773-0.734l0.383,0.994l0.673,1.06l0.934-0.093l-0.03-1.217l-0.161-0.643l0.354-0.222l0.998-0.382l0.576,0.13l1.736,0.388
			l2.964-2.361l0.128-0.578l-0.256-1.569l-1.411-1.833l-0.094-0.929l0.42-0.512l0.64-0.159l1.158,0.26l0.449,0.706l0.867,0.196
			l0.709-0.447l-0.032-1.218l0.13-0.576l2.477-1.564l2.351-0.985l4.088-3.32l1.127-0.958l0.516-2.307l-0.317-1.282l-0.096-0.931
			l0.354-0.223l1.092,0.548l0.516,0.419l0.736,0.771l0.739,0.771l0.934-0.092l0.997-0.382l0.257-1.153l0.838-1.023l0.483-0.801
			l0.419-0.511l2.189-1.626l1.446,0.324l0.707-0.446l1.032-1.888l-0.157-3.366l-0.254-1.572l0.613-1.376l1.126-0.958l1.481-1.18
			l1.381,0.613l-0.551,3.812l0.861,2.918l2.12,1.384l2.603,0.584l2.604,0.585l1.801,0.101l3.219-3.516l2.703-1.21l1.031-1.888
			l2.959-2.361l2.479-1.564l0.837-1.023l4.084-0.597l1.959,0.744l1.991,1.962l-0.485,0.799l-1.06,0.671l-1.127,0.958l1.636,2.185
			l-0.324,1.441l-2.123,1.339l-2.669-0.297l-3.247-0.428l-2.506,0.346l-0.903,1.312l-1.48,1.181l-0.837,1.023l-0.933,0.093
			l-3.666,0.085l-2.701,1.209l-1.351,0.605l-4.602,2.903l-1.674,2.045l-4.573,4.12l-0.995,0.382l-1.223,0.027l-0.802-0.482
			l-0.934,0.093l-0.643,0.158l-0.418,0.513l-0.517-0.419l-1.699-1.895l-1.928,0.475l-0.773,0.734l-0.129,0.577l0.158,0.641
			l0.609,1.348l-2.318,2.205l-0.194,0.864l-0.774,0.735l-1.219,0.029l-0.997,0.381l-1.127,0.958l-1.288,0.316l-1.64,0.541
			l-2.253,1.916l-1.607,1.758l-1.101,2.175l-1.126,0.958l-0.771,0.736l-0.71,0.446l-3.309-0.138l-1.288,0.316l-1.609,1.757
			l-1.03,1.89l-0.131,0.574l-0.481,0.801l-2.381-0.232L355.566-292.084z M259.159-291.639l-0.867-0.194l-4.946-2.322l4.237,2.768
			l0.61,1.348l-1.959-0.742l-2.153,0.121l-3.183-0.715l-0.255-1.572l-1.412-1.83l-0.093-0.93l0.064-0.288l1.83,1.319l0.353-0.223
			l-0.226-0.354l-3.947-2.704l-7.193-5.855l-1.057-2.054l-8.408-8.549l-4.04-6.356l-3.563-4.436l-4.004-7.862l-0.19-1.861
			l-1.118-4.488l-8.719-15.282l-7.442-10.15l-1.77,1.117l-0.389,1.729l-2.768,1.497l-2.956-0.36l-1.123-1.766l-1.061,0.67
			l0.414,2.212l-0.1,1.795l-3.899,5.179l-0.387,1.73l1.217,2.696l1.466,6.99l0.408,7.662l0.381,3.718l-3.14,12.617l-1.898,1.693
			l-0.678,1.665l-2.805,5.728l-0.008,2.723l-1.261,6.984l-1.843,4.128l-1.48,1.182l-2.058,1.051l-3.635,1.304l-2.217,0.411
			l-0.968,1.6l-1.257,1.534l-0.163,2.083l0.603,4.071l-0.617,4.101l0.253,1.571l1.06,2.054l0.128,2.147l-0.614,1.377l-3.35,4.092
			l-1.416,0.893l-2.127,1.339l-2.186,1.63l-1.513-0.039l-1.315-0.901l-1.765-1.606l-1.959-0.743l0.096-1.796l-1.156-0.259
			l-0.642,0.158l-1.35,0.605l-3.443,0.437l-0.736-0.771l-1.188-1.479l-1.475-1.543l-1.093-0.547l0.193-0.866l-0.672-1.058
			l-3.979-3.922l-1.091-0.548l-1.13,0.957l-0.996,0.382l-1.156-0.26l-0.772,0.735l-1.744,5.058l0.673,1.059l1.253,1.19l1.631,4.908
			l1.731,3.113l-0.839,1.023l-2.862,0.568l-1.609,1.759l-4.088,3.321l-0.52,2.304l-0.706,0.447l-0.802-0.482l-0.321-1.284
			l-0.736-0.771l-0.515-0.417l-0.933,0.092l-2.094,2.558l-3.764,1.878l-3.182-0.713l-2.57,0.632l-1.259,1.535l-1.001,3.106
			l0.349,2.499l-0.582,2.595l-2.092,2.558l-1.646,3.265l-0.164,2.082l-0.036,1.505l0.964,1.125l1.734,0.39l0.351,2.5l0.611,1.35
			l2.181,1.095l1.928,2.25l1.275,5.131l-0.553,3.812l-1.063,3.394l-0.42,0.512l-0.868-0.196l-0.708,0.447l-0.678,1.665l-0.419,0.511
			l-0.771,0.737l-0.709,0.445l-1.031,1.888l-1.42,3.618l1.151,2.983l-0.453,2.019l0.188,1.858l2.025,0.456l3.95,2.704l0.837-1.025
			l2.094-2.556l1.512,0.036l4.63-1.684l0.264-3.877l1.097-2.177l0.646-0.158l0.579,0.131l1.574-0.252l4.183-2.391l0.806-2.241
			l0.58,0.128l0.867,0.196l0.03,1.218l-0.773,0.734l0.449,0.707l0.513,0.418l1.48-1.183l4.145,1.84l2.148,2.601l1.513,0.038
			l1.577-0.251l2.829-1.787l0.646-0.156l1.796,0.1l0.551-1.087l-1.925-2.25l-1.123-1.766l-3.052-1.291l-0.737-0.772l-0.928-2.629
			l-2.759-3.951l-2.116-4.108l-3.117-1.003l-3.245-0.427l-1.925-2.248l-1.572-2.475l-2.212-2.312l-1.672-0.679l-0.45-0.708
			l0.323-1.44l0.485-0.799l0.836-1.023l1.127-0.958l0.584-2.594l0.836-1.023l3.51-3.451l0.771-0.735l1.931-0.475l1.028,0.837
			l1.091,0.548l1.932-0.476l2.311,0.52l0.995,2.343l0.834,1.703l0.448,0.704l1.092,0.549l0.61,1.349l1.473,1.542l-0.322,1.44
			l0.32,1.284l0.868,0.195l0.961,1.124l-0.064,0.289l-0.932,0.093l-0.419,0.512l1.829,1.318l7.627-5.553l3.439-0.438l5.6-3.284
			l6.787-1.805l3.468,0.779l4.501,1.616l5.644,7.323l3.054,1.292l3.852,4.5l2.792,2.443l4.268,3.988l4.24,2.769l4.557,4.049
			l6.392,2.648l4.592,5.271l0.704,2.278l1.474,1.541l2-3.486l1.963-1.982l1.938-5.922l-0.831-1.702l1.001-3.105l3.254-5.021
			l4.12-4.829l5.152-3.99l8.109-6.353l6.661-3.954l5.212-1.553l1.927-0.477l0.935-0.093l2.088,0.166l2.025,0.455l0.254,1.572
			l0.869,0.195l2.022,0.454l0.738,0.771l0.643-0.159l3.089-0.214l3.341,1.357l2.312,0.519l1.446,0.324l-0.448-0.706l-1.188-1.478
			l0.195-0.864l0.967-1.6l1.704-0.829l0.771,1.991l0.961,1.124l2.603,0.584l1.801,0.102l1.963-1.981l0.709-0.446l1.574-0.251
			l0.646-0.157l0.483-0.799l-0.806-0.484l-0.448-0.707l0.065-0.287l0.485-0.8l0.707-0.446l0.868,0.195l1.09,0.547l1.287-0.317
			l1.771-1.115l2.218-0.411l2.604,0.585l1.029,0.837l1.024,0.835l1.161-2.464l0.773-0.735l0.934-0.093l0.481-0.801l0.552-1.086
			l1.126-0.958l1.638-0.541l3.506-0.727l1.48-1.181l-1.896-1.033l-2.509,0.345l-2.347,0.988l-1.286,0.316l-1.354,0.604l-1.319,1.823
			l-2.024-0.454l-1.315-0.901l-0.962-1.125l-0.065,0.289l0.608,1.348l-1.158-0.261l-0.737-0.771l-0.963-1.125l-2.246-0.807
			l0.835-1.022l0.933-0.094l1.027,0.836l0.578,0.13l-1.123-1.767l-0.544-1.636l0.009-5.449l0.196-0.863l-0.417-2.215l-0.896-1.411
			l2.183,1.097l1.478,1.542l-0.261,1.152l1.512,0.036l0.194-0.863l-0.897-1.414l-5.911-3.447l-1.022-3.561l-1.252-1.19l0.26-1.153
			l0.421-0.51l1.094-2.177l0.712-3.171l3.126-4.445l1.963-1.982l1.582-2.973l3.573-3.74l0.551-3.813l-0.317-1.282l-3.381,2.872
			l-0.967,1.601l-7.852,5.201l-3.379,2.874l-4.379,3.255l-1.349,0.604l-4.115-0.622l-3.47-0.779l-2.826-0.938l-1.834-1.319
			l-2.117-1.384l-0.448-0.707l0.034-1.505l-1.768-1.609l0.197-0.863l0.677-1.664l-1.641,0.539l-0.645,0.158l-0.388,1.729
			l-1.128,0.958l-1.443-0.324l0.034-1.506l1.833-1.406l-2.343-1.738l-1.672-0.677L259.159-291.639z"/>
	</g>
	<polygon clip-path="url(#SVGID_2_)" fill="#FFFFFF" points="143.197,-153.5 143.104,-154.43 143.232,-155.007 143.845,-156.384 
		145.158,-155.483 144.279,-150.229 142.995,-149.912 142.262,-150.682 141.748,-151.099 143.16,-151.995 143.424,-153.147 	"/>
	<polygon clip-path="url(#SVGID_2_)" fill="none" stroke="#000000" stroke-width="0.425" stroke-miterlimit="3.864" points="
		143.197,-153.5 143.104,-154.43 143.232,-155.007 143.845,-156.384 145.158,-155.483 144.279,-150.229 142.995,-149.912 
		142.262,-150.682 141.748,-151.099 143.16,-151.995 143.424,-153.147 	"/>
	<polygon clip-path="url(#SVGID_2_)" fill="#FFFFFF" points="127.693,-142.444 126.604,-142.992 124.232,-143.222 123.976,-142.068 
		124.256,-139.279 125.122,-139.085 126.086,-140.687 127.594,-140.649 127.497,-141.581 	"/>
	<polygon clip-path="url(#SVGID_2_)" fill="none" stroke="#000000" stroke-width="0.425" stroke-miterlimit="3.864" points="
		127.693,-142.444 126.604,-142.992 124.232,-143.222 123.976,-142.068 124.256,-139.279 125.122,-139.085 126.086,-140.687 
		127.594,-140.649 127.497,-141.581 	"/>
	<polygon clip-path="url(#SVGID_2_)" fill="#FFFFFF" points="112.872,-108.821 111.973,-107.51 110.755,-107.48 110.307,-108.186 
		111.047,-110.141 	"/>
	<polygon clip-path="url(#SVGID_2_)" fill="none" stroke="#000000" stroke-width="0.425" stroke-miterlimit="3.864" points="
		112.872,-108.821 111.973,-107.51 110.755,-107.48 110.307,-108.186 111.047,-110.141 	"/>
	<polygon clip-path="url(#SVGID_2_)" fill="#FFFFFF" points="70.059,-13.942 69.54,-11.637 71.329,-8.812 72.128,-8.329 
		73.829,-9.158 73.929,-10.951 72.364,-13.426 70.858,-13.461 	"/>
	<polygon clip-path="url(#SVGID_2_)" fill="none" stroke="#000000" stroke-width="0.425" stroke-miterlimit="3.864" points="
		70.059,-13.942 69.54,-11.637 71.329,-8.812 72.128,-8.329 73.829,-9.158 73.929,-10.951 72.364,-13.426 70.858,-13.461 	"/>
	<polygon clip-path="url(#SVGID_2_)" fill="#FFFFFF" points="274.148,-264.625 273.408,-262.67 273.854,-261.965 275.591,-264.301 	
		"/>
	<polygon clip-path="url(#SVGID_2_)" fill="none" stroke="#000000" stroke-width="0.425" stroke-miterlimit="3.864" points="
		274.148,-264.625 273.408,-262.67 273.854,-261.965 275.591,-264.301 	"/>
	<polygon clip-path="url(#SVGID_2_)" fill="#FFFFFF" points="258.816,-258.376 258.592,-258.73 258.146,-259.437 257.569,-259.565 
		259.398,-260.973 259.845,-260.265 259.01,-259.242 	"/>
	<polygon clip-path="url(#SVGID_2_)" fill="none" stroke="#000000" stroke-width="0.425" stroke-miterlimit="3.864" points="
		258.816,-258.376 258.592,-258.73 258.146,-259.437 257.569,-259.565 259.398,-260.973 259.845,-260.265 259.01,-259.242 	"/>
	<polygon clip-path="url(#SVGID_2_)" fill="#FFFFFF" points="201.566,-308.189 202.209,-308.347 203.427,-308.377 203.396,-309.595 
		202.438,-310.72 201.285,-310.979 	"/>
	<polygon clip-path="url(#SVGID_2_)" fill="none" stroke="#000000" stroke-width="0.425" stroke-miterlimit="3.864" points="
		201.566,-308.189 202.209,-308.347 203.427,-308.377 203.396,-309.595 202.438,-310.72 201.285,-310.979 	"/>
	<polygon clip-path="url(#SVGID_2_)" fill="#FFFFFF" points="210.952,-347.273 210.181,-346.538 210.497,-345.256 211.299,-344.772 
		211.971,-343.713 213.123,-343.454 212.87,-345.026 	"/>
	<polygon clip-path="url(#SVGID_2_)" fill="none" stroke="#000000" stroke-width="0.425" stroke-miterlimit="3.864" points="
		210.952,-347.273 210.181,-346.538 210.497,-345.256 211.299,-344.772 211.971,-343.713 213.123,-343.454 212.87,-345.026 	"/>
	<polygon clip-path="url(#SVGID_2_)" fill="#FFFFFF" points="163.052,-243.239 162.571,-242.438 159.075,-241.71 157.828,-242.898 
		158.088,-244.051 159.657,-244.304 161.072,-245.198 162.319,-244.009 	"/>
	<polygon clip-path="url(#SVGID_2_)" fill="none" stroke="#000000" stroke-width="0.425" stroke-miterlimit="3.864" points="
		163.052,-243.239 162.571,-242.438 159.075,-241.71 157.828,-242.898 158.088,-244.051 159.657,-244.304 161.072,-245.198 
		162.319,-244.009 	"/>
	<polygon clip-path="url(#SVGID_2_)" fill="#FFFFFF" points="141.767,-240.146 142.248,-240.946 145.002,-239.721 144.744,-238.567 
		143.974,-237.833 142.754,-237.803 141.314,-238.127 	"/>
	<polygon clip-path="url(#SVGID_2_)" fill="none" stroke="#000000" stroke-width="0.425" stroke-miterlimit="3.864" points="
		141.767,-240.146 142.248,-240.946 145.002,-239.721 144.744,-238.567 143.974,-237.833 142.754,-237.803 141.314,-238.127 	"/>
	<polygon clip-path="url(#SVGID_2_)" fill="#FFFFFF" points="143.719,-239.405 142.054,-240.081 141.858,-239.215 142.308,-238.51 
		143.237,-238.603 	"/>
	<polygon clip-path="url(#SVGID_2_)" fill="none" stroke="#000000" stroke-width="0.425" stroke-miterlimit="3.864" points="
		143.719,-239.405 142.054,-240.081 141.858,-239.215 142.308,-238.51 143.237,-238.603 	"/>
	<polygon clip-path="url(#SVGID_2_)" fill="#FFFFFF" points="267.576,-263.679 267.706,-264.255 268.16,-266.273 270.501,-267.261 
		270.12,-268.256 266.884,-268.68 265.474,-267.786 265.021,-265.767 	"/>
	<polygon clip-path="url(#SVGID_2_)" fill="none" stroke="#000000" stroke-width="0.425" stroke-miterlimit="3.864" points="
		267.576,-263.679 267.706,-264.255 268.16,-266.273 270.501,-267.261 270.12,-268.256 266.884,-268.68 265.474,-267.786 
		265.021,-265.767 	"/>
	<polygon clip-path="url(#SVGID_2_)" fill="#FFFFFF" points="266.05,-267.657 265.5,-266.568 266.236,-265.797 266.748,-265.379 
		267.138,-267.108 	"/>
	<polygon clip-path="url(#SVGID_2_)" fill="none" stroke="#000000" stroke-width="0.425" stroke-miterlimit="3.864" points="
		266.05,-267.657 265.5,-266.568 266.236,-265.797 266.748,-265.379 267.138,-267.108 	"/>
	<polygon clip-path="url(#SVGID_2_)" fill="#FFFFFF" points="57.022,64.303 55.872,64.044 54.111,62.438 54.529,61.926 
		55.394,62.119 	"/>
	<polygon clip-path="url(#SVGID_2_)" fill="none" stroke="#000000" stroke-width="0.425" stroke-miterlimit="3.864" points="
		57.022,64.303 55.872,64.044 54.111,62.438 54.529,61.926 55.394,62.119 	"/>
	<polygon clip-path="url(#SVGID_2_)" fill="#FFFFFF" points="60.316,67.164 61.342,68 61.213,68.576 59.642,68.829 58.489,68.569 	
		"/>
	<polygon clip-path="url(#SVGID_2_)" fill="none" stroke="#000000" stroke-width="0.425" stroke-miterlimit="3.864" points="
		60.316,67.164 61.342,68 61.213,68.576 59.642,68.829 58.489,68.569 	"/>
	<polygon clip-path="url(#SVGID_2_)" fill="#FFFFFF" points="76.176,55.884 77.481,59.509 77.446,61.016 78.053,62.363 
		78.081,63.582 76.928,63.322 76.739,61.462 75.305,58.413 75.182,56.267 75.348,54.184 75.765,53.672 	"/>
	<polygon clip-path="url(#SVGID_2_)" fill="none" stroke="#000000" stroke-width="0.425" stroke-miterlimit="3.864" points="
		76.176,55.884 77.481,59.509 77.446,61.016 78.053,62.363 78.081,63.582 76.928,63.322 76.739,61.462 75.305,58.413 75.182,56.267 
		75.348,54.184 75.765,53.672 	"/>
	<polygon clip-path="url(#SVGID_2_)" fill="#FFFFFF" points="69.105,50.965 67.953,50.704 68.4,51.411 69.675,53.817 69.352,55.26 
		66.692,54.966 64.646,53.294 63.587,53.966 66.434,56.118 68.099,56.795 68.223,58.944 71.393,59.657 73.215,60.975 71.536,53.631 
			"/>
	<polygon clip-path="url(#SVGID_2_)" fill="none" stroke="#000000" stroke-width="0.425" stroke-miterlimit="3.864" points="
		69.105,50.965 67.953,50.704 68.4,51.411 69.675,53.817 69.352,55.26 66.692,54.966 64.646,53.294 63.587,53.966 66.434,56.118 
		68.099,56.795 68.223,58.944 71.393,59.657 73.215,60.975 71.536,53.631 	"/>
	<polygon clip-path="url(#SVGID_2_)" fill="#FFFFFF" points="61.825,67.198 62.625,67.682 63.238,66.305 62.438,65.822 	"/>
	<polygon clip-path="url(#SVGID_2_)" fill="none" stroke="#000000" stroke-width="0.425" stroke-miterlimit="3.864" points="
		62.438,65.823 61.824,67.199 62.626,67.682 63.238,66.305 	"/>
	<polygon clip-path="url(#SVGID_2_)" fill="#FFFFFF" points="10.927,82.117 10,82.212 10.568,85.066 12.077,85.103 	"/>
	<polygon clip-path="url(#SVGID_2_)" fill="none" stroke="#000000" stroke-width="0.425" stroke-miterlimit="3.864" points="
		10.927,82.117 10,82.212 10.568,85.066 12.077,85.103 	"/>
	<polygon clip-path="url(#SVGID_2_)" fill="#FFFFFF" points="-1.153,68.499 0,68.758 -0.735,67.988 	"/>
	<polygon clip-path="url(#SVGID_2_)" fill="none" stroke="#000000" stroke-width="0.425" stroke-miterlimit="3.864" points="
		-0.735,67.989 -1.153,68.499 0,68.758 	"/>
	<polygon clip-path="url(#SVGID_2_)" fill="#FFFFFF" points="2.502,68.412 4.454,69.153 4.714,68.001 2.982,67.61 	"/>
	<polygon clip-path="url(#SVGID_2_)" fill="none" stroke="#000000" stroke-width="0.425" stroke-miterlimit="3.864" points="
		2.502,68.412 4.454,69.153 4.714,68.001 2.982,67.61 	"/>
	<polygon clip-path="url(#SVGID_2_)" fill="#FFFFFF" points="9.506,73.621 7.424,73.456 7.358,73.744 8.448,74.291 	"/>
	<polygon clip-path="url(#SVGID_2_)" fill="none" stroke="#000000" stroke-width="0.425" stroke-miterlimit="3.864" points="
		9.506,73.621 7.424,73.456 7.358,73.744 8.448,74.291 	"/>
	<polygon clip-path="url(#SVGID_2_)" fill="#FFFFFF" points="-16.275,38.751 -14.704,38.498 -13.839,38.691 -14.096,39.848 
		-15.379,40.164 -15.891,39.746 	"/>
	<polygon clip-path="url(#SVGID_2_)" fill="none" stroke="#000000" stroke-width="0.425" stroke-miterlimit="3.864" points="
		-16.275,38.751 -14.704,38.498 -13.839,38.691 -14.096,39.848 -15.379,40.164 -15.891,39.746 	"/>
	<polygon clip-path="url(#SVGID_2_)" fill="#FFFFFF" points="-3.205,69.553 -2.981,69.906 -1.831,70.163 -1.411,69.652 
		-2.212,69.17 	"/>
	<polygon clip-path="url(#SVGID_2_)" fill="none" stroke="#000000" stroke-width="0.425" stroke-miterlimit="3.864" points="
		-2.213,69.17 -3.205,69.553 -2.98,69.906 -1.831,70.164 -1.412,69.652 	"/>
	<polygon clip-path="url(#SVGID_2_)" fill="#FFFFFF" points="-100.711,62.794 -99.782,62.699 -100.164,61.704 -98.206,59.724 
		-93.073,58.452 -90.732,57.463 -89.573,54.997 -91.427,52.463 -91.607,47.877 -92.119,47.459 -92.378,48.612 -92.925,49.7 
		-93.437,49.283 -93.689,47.711 -94.173,48.514 -96.542,48.283 -97.444,49.596 -97.832,51.324 -97.774,53.762 -105.093,59.386 
		-106.094,62.493 -107.283,63.74 -108.185,65.055 -108.22,66.56 -108.255,68.064 -107.39,68.26 -106.808,65.665 -104.301,62.594 	
		"/>
	<polygon clip-path="url(#SVGID_2_)" fill="none" stroke="#000000" stroke-width="0.425" stroke-miterlimit="3.864" points="
		-100.711,62.794 -99.782,62.699 -100.164,61.704 -98.206,59.724 -93.073,58.452 -90.732,57.463 -89.573,54.997 -91.427,52.463 
		-91.607,47.877 -92.119,47.459 -92.378,48.612 -92.925,49.7 -93.437,49.283 -93.689,47.711 -94.173,48.514 -96.542,48.283 
		-97.444,49.596 -97.832,51.324 -97.774,53.762 -105.093,59.386 -106.094,62.493 -107.283,63.74 -108.185,65.055 -108.22,66.56 
		-108.255,68.064 -107.39,68.26 -106.808,65.665 -104.301,62.594 	"/>
	<g clip-path="url(#SVGID_2_)">
		<path fill="none" stroke="#000000" stroke-width="0.43" stroke-miterlimit="3.864" stroke-dasharray="2.83,1.13" d="M7.526,50.9
			l0.069-3.013 M9.899,74.141l2.982,4.305l-2.158,2.846l0.542,4.36l1.858,2.537l0.992,1.327 M-33.434,75.005l1.577-0.252
			l3.828-2.168l6.562-2.159l2.189-1.628l0.162-2.084l1.484-1.179l1.034-4.613l1.995-0.763 M-42.909,69.848l0.933-0.092l2.318-2.205
			l0.069-3.013l1.798,0.102l0.653-5.605l-1.83-1.32l-1.217-2.695l1.195-3.971l-5.905-6.171l-0.32-1.282l2.383-2.493l3.312,0.139
			l6.694-5.461l-1.118-4.489l-0.031-1.219l1.416-0.893l1.226-2.753l1.74-2.334l0.328-4.165 M-42.909,69.848l0.285,2.789l1.092,0.549
			l5.914,0.723l2.184,1.097 M9.899,74.141l-1.77,1.116l-6.621-0.275L0.708,74.5l-2.666-3.023l-0.736-0.771L-4.594,72.4l-1.39,4.835
			l-0.292,2.657l-1.837,1.406l-2.088-0.166l-0.737-0.773l-0.607-4.071l-2.149-2.602l-1.995,0.763l-0.248-4.294l1.415-0.894
			l1.165-5.189l-0.992-2.342l-0.254-1.571 M15.235,54.448l-3.984-1.198L7.526,50.9 M15.235,54.448l1.95,6.19l3.207,4.658
			l-1.707,3.552l-0.968,1.599l-7.818,3.693 M43.449,41.105l1.378,0.612l1.733,3.113 M36.911,6.635l-2.472-1.162l-0.538-4.36
			l-1.804-0.101l-1.32,1.822l-3.02-0.072l-0.772,0.733l-0.711,3.171l-0.998,0.383L24.533,9l-4.018,0.31l-1.518,2.688l-5.045-0.529
			 M47.806,51.471l-1.279-5.133l0.034-1.507 M13.953,11.468l0.396-4.453l-0.706-2.277l-1.476-1.543l0.262-3.877l-0.383-0.994
			l-3.89-0.269L5.454-0.736l-1.9,1.693L1.69,1.145l-0.808,2.24l-1.061,0.67l-1.253-1.189L-6.253,2.69l-1.771,1.116l-1.409-1.83
			l-0.062-2.436l-4.079-2.128l-1.351,0.604l-1.515,2.688l-1.545,1.47l-1.576,0.251 M-14.604,60.159l-0.187-4.583l1.192-1.247
			l0.553-3.813l2.383-2.492l2.023,0.455l3.22-3.517l1.319,0.902l1.794,2.826l4.626,1.038l0.609,1.349l1.606,0.966L7.526,50.9
			 M7.596,47.888l-2.15-2.603l-0.474-4.647l-0.385-0.996l0.258-1.152l1.418-0.893l0.261-3.878l2.03-2.269l0.135-3.301l-0.77-1.989
			l-5.272-0.882l-1.859-2.537l1-3.105l3.061-4.157l2.217-0.41l1.032-1.888l2.734,0.009l2.993-1.144l0.127-0.578 M-22.021-6.907
			l2.084,2.89l0.152,6.09l0.224,0.354 M-29.264,19.927l3.414-4.381l0.708-0.446l1.096-2.175l1.834-1.405l2.65-9.094 M40.862,9.338
			l-3.951-2.703 M15.235,54.448l1.95,6.19l3.207,4.658 M40.862,9.338l-1.095,2.177l0.153,3.364l-1.253,1.536l-1.587,5.697
			l3.979,3.923l-4.734,6.202l-0.581,2.596l2.34,4.46l3.821,0.559l1.543,1.254 M47.806,51.471l0.478,1.924l0.062,2.437l0.638,2.564
			l0.992,2.343l-0.615,4.101l-0.102,2.565l0.94,2.753 M47.806,51.471l3.4,3.791l1.796,2.826l6.901,5.789l7.198,0.405l1.643-0.539
			l4.359,0.127c0,0,1.584,0.252,2.872,1.898c1.291,1.649,2.758,3.186,4.334,4.898c1.578,1.714,4.939,3.445,4.939,3.445
			 M49.359,64.839l-1.608-0.967l-6.556-0.563l-1.641,0.538l-2.153,0.122l-1.253-1.189l-4.402-0.686l-4.911-3.83l-8.606-4.959
			l-2.993,1.144 M7.596,47.888l0.192-0.865l1.966-1.98l2.731,0.008l5.694-2.354l2.797-0.28l3.674-5.532l3.021,0.073l3.436,2.285
			l0.963,1.126l2.088,0.165l2.635,1.804l5.494,1.233l2.54-1.852 M20.393,65.297l1.736,0.389l0.19,1.86l6.647,4.218l2.308,3.244
			l1.482-1.184l0.486-3.522l4.983,0.817l2.02,3.179l2.827,0.938 M46.561,44.831L51,44.013l2.157-2.847l10.193-3.462l3.248,0.427
			l3.509-3.45l1.43-9.065l1.256-1.533l0.656-8.332l0.099-1.795 M61.432-28.128l-6.825,6.036l-0.588,5.317l-4.98-0.814l-1.48,1.182
			l-6.557-0.565l-1.834,1.403l0.219,3.078l-2.739,5.44l-0.323,1.441l2.184,1.096L36.911,6.635 M61.197-63.458l5.748,5.382
			l-0.04,4.23l0.32,1.283l3.369,2.574l0.703,2.277l-0.771,0.734l-3.763,1.881l-2.314-0.521l-2.384,2.492l-0.618,4.102l-1.545,1.469
			l-1.578,2.976l-0.229,2.37l1.282,2.409l2.055,1.672 M73.548,13.955l0.517-2.306l-1.475-1.543l0.166-2.081l-3.598-2.929
			l-6.395-2.647L60.61,2.571l-2.254,1.916L55.85,4.833l-7.911,2.764l-3.151,0.504l-1.414,0.894l-2.511,0.344 M73.548,13.955
			c0,0,1.328,2.484,3.008,3.583c1.674,1.099,1.799,2.065,2.658,3.616c0.858,1.552,1.865,1.777,3.655,0.52
			c1.793-1.257,3.184-1.397,2.579-2.74c-0.604-1.344,0.283-2.278,1.232-0.781c2.34,3.695,5.718,3.971,6.874,4.903 M105.884-24.501
			l-1.705,0.828l-1.002,3.105l-1.929,0.475l-2.378-0.23l-2.056-1.673l-0.284-2.79l-1.254-1.188l-4.496-1.616l-1.701-1.896
			l-3.247-0.426l-2.662-3.02 M61.432-28.128l2.12,1.384l4.663-0.466l0.929-0.094l1.313,3.626l1.541,1.253l2.314,0.521l3.629,1.422
			l3.12-1.723l-0.349-2.501l0.583-2.593l1.874-5.634 M100.682-68.966l0.545,1.636l1.571,2.474l-2.1,5.28l-2.601-0.584l-0.262,1.152
			l0.61,1.348l-0.553,3.812l1.282,2.407l-0.614,1.376l-3.153,3.229l-2.709,3.933l-1.807,5.347l-1.869,2.911l-4.02,0.307L83.3-33.51
			 M100.682-68.966l0.545,1.636l1.571,2.474l-2.1,5.28l-2.601-0.584l-0.262,1.152l0.61,1.348l-0.553,3.812l1.282,2.407l-0.614,1.376
			l-3.153,3.229l-2.709,3.933l-1.807,5.347l-1.869,2.911l-4.02,0.307L83.3-33.51"/>
	</g>
	<g clip-path="url(#SVGID_2_)">
		<path fill="none" stroke="#000000" stroke-width="0.283" d="M565.201-386.581l-10.488,23.256l31.006,13.983 M582.224-341.59
			l-23.255-10.488l13.983-31.007"/>
		<g>
			<path d="M464.07-416.604c-0.227,0.01-0.711-0.032-1.254-0.277c-1.208-0.545-1.619-1.766-1.036-3.059
				c0.587-1.302,1.877-1.867,3.179-1.28c0.473,0.213,0.789,0.524,0.914,0.683l-0.396,0.446c-0.133-0.182-0.36-0.423-0.771-0.608
				c-0.977-0.44-1.841,0.111-2.249,1.018c-0.461,1.023-0.139,1.942,0.713,2.326c0.418,0.189,0.758,0.202,1.009,0.203L464.07-416.604
				z"/>
			<path d="M468.492-418.73c-0.109-0.172-0.33-0.447-0.709-0.619c-0.465-0.209-0.842-0.034-0.996,0.307
				c-0.164,0.364,0,0.643,0.438,1.12c0.556,0.586,0.789,1.12,0.503,1.756c-0.339,0.751-1.136,0.989-2.058,0.573
				c-0.418-0.188-0.77-0.486-0.979-0.787l0.401-0.415c0.166,0.233,0.46,0.552,0.824,0.717c0.565,0.255,0.98,0.079,1.151-0.301
				c0.179-0.396,0.051-0.714-0.404-1.189c-0.584-0.608-0.77-1.168-0.539-1.679c0.297-0.659,1.068-0.964,1.92-0.58
				c0.402,0.182,0.691,0.451,0.854,0.693L468.492-418.73z"/>
			<path d="M470.854-413.358l-0.612-0.276l0.733-1.626l-2.533-1.143l0.185-0.411l4.178-2.647l0.667,0.301l-1.66,3.681l0.79,0.355
				l-0.224,0.496l-0.79-0.355L470.854-413.358z M469.316-416.606l1.883,0.85l0.93-2.062c0.144-0.317,0.299-0.62,0.451-0.915
				l-0.031-0.015c-0.34,0.276-0.591,0.461-0.856,0.658l-2.368,1.468L469.316-416.606z"/>
			<path d="M483.932-411.265c0.498,0.383,0.946,1.146,0.545,2.036c-0.238,0.527-0.606,0.808-0.997,0.949
				c-0.569,0.209-1.281,0.093-2.173-0.309c-0.487-0.221-0.834-0.424-1.063-0.555l2.616-5.803c0.356,0.076,0.846,0.231,1.327,0.448
				c0.728,0.329,1.146,0.685,1.36,1.137c0.172,0.366,0.18,0.78-0.02,1.222c-0.262,0.581-0.883,0.906-1.586,0.851L483.932-411.265z
				 M481.105-409.341c0.133,0.097,0.338,0.199,0.61,0.322c0.813,0.366,1.685,0.377,2.087-0.514c0.398-0.884-0.223-1.555-1.005-1.907
				l-0.62-0.28L481.105-409.341z M483.092-411.904c0.783,0.353,1.488,0.131,1.761-0.474l0.004-0.009
				c0.314-0.696-0.061-1.229-0.866-1.592c-0.341-0.154-0.553-0.222-0.684-0.243l-0.904,2.006L483.092-411.904z"/>
		</g>
		<g>
			<path d="M489.374-405.006l-0.612-0.276l0.733-1.627l-2.533-1.143l0.185-0.411l4.178-2.646l0.667,0.301l-1.66,3.68l0.79,0.356
				l-0.224,0.496l-0.79-0.356L489.374-405.006z M487.836-408.254l1.883,0.849l0.93-2.061c0.143-0.317,0.298-0.621,0.45-0.916
				l-0.031-0.014c-0.339,0.276-0.591,0.461-0.855,0.658l-2.369,1.468L487.836-408.254z"/>
		</g>
		<g>
			<path d="M496.725-409.522c-1.162,0.324-2.436,1.308-3.142,2.872c-0.724,1.604-0.587,3.204-0.072,4.256l-0.018,0.039l-0.466-0.21
				c-0.465-1.058-0.574-2.675,0.146-4.271s2.004-2.583,3.104-2.935l0.465,0.21L496.725-409.522z"/>
			<path d="M498.063-401.088l-3.432-1.548l0.178-0.395l0.836-0.342c2.008-0.772,3.086-1.302,3.512-2.247
				c0.279-0.62,0.268-1.316-0.569-1.693c-0.466-0.21-0.999-0.143-1.38-0.043l-0.014-0.548c0.5-0.157,1.139-0.167,1.758,0.112
				c1.17,0.527,1.25,1.59,0.891,2.387c-0.492,1.093-1.679,1.678-3.425,2.344l-0.674,0.274l-0.007,0.016l2.564,1.156L498.063-401.088
				z"/>
			<path d="M504.742-405.059l-0.24,0.535l-2.084-0.939l-0.982,1.533c0.132,0.041,0.263,0.081,0.464,0.172
				c1.03,0.465,1.677,1.492,1.148,2.663c-0.517,1.146-1.739,1.583-2.886,1.066c-0.581-0.263-0.992-0.653-1.179-0.942l0.413-0.419
				c0.15,0.244,0.496,0.615,1,0.842c0.729,0.329,1.597,0.077,1.966-0.764c0.36-0.798,0.101-1.586-0.984-2.075
				c-0.31-0.14-0.561-0.225-0.768-0.281l1.583-2.539L504.742-405.059z"/>
			<path d="M505.898-404.537l3.401,1.535l-0.185,0.41l-4.857,4.299l-0.658-0.298l4.794-4.158l0.007-0.016l-2.742-1.237
				L505.898-404.537z"/>
			<path d="M512.842-395.345l-0.499,0.194l-1.178-3.113l-3.106,1.182l-0.183-0.502l3.103-1.174l-1.174-3.104l0.497-0.195
				l1.171,3.111l3.113-1.179l0.188,0.494l-3.106,1.183L512.842-395.345z"/>
			<path d="M516.813-396.407c0.63,0.424,0.962,1.235,0.584,2.072c-0.416,0.923-1.444,1.428-2.746,0.841
				c-0.581-0.263-1.024-0.686-1.203-0.991l0.417-0.408c0.146,0.234,0.517,0.653,1.027,0.884c0.977,0.439,1.603-0.098,1.843-0.633
				c0.385-0.853-0.16-1.564-0.92-1.907l-0.381-0.171l0.217-0.48l0.38,0.171c0.558,0.251,1.437,0.228,1.765-0.501
				c0.228-0.503,0.12-1.073-0.577-1.388c-0.426-0.192-0.923-0.165-1.232-0.099l0.019-0.561c0.377-0.091,1.018-0.063,1.576,0.188
				c1.062,0.479,1.229,1.366,0.915,2.063c-0.27,0.597-0.89,0.961-1.672,0.896L516.813-396.407z"/>
			<path d="M519.6-395.076c0.438-0.269,1.057-0.381,1.678-0.102c0.983,0.444,1.31,1.478,0.807,2.593
				c-0.479,1.062-1.566,1.737-2.697,1.227c-1.132-0.511-1.469-1.79-0.791-3.293c0.703-1.558,2.166-2.856,4.188-2.317
				c0.231,0.067,0.436,0.132,0.567,0.191l-0.233,0.537c-1.611-0.727-2.907,0.098-3.541,1.153L519.6-395.076z M521.412-392.832
				c0.402-0.891,0.155-1.627-0.541-1.941c-0.683-0.307-1.502,0.125-1.697,0.559c-0.472,1.065-0.351,1.996,0.455,2.359
				C520.304-391.551,521.018-391.956,521.412-392.832z"/>
			<path d="M524.809-389.025l-0.613-0.276l0.733-1.626l-2.533-1.143l0.186-0.412l4.177-2.646l0.667,0.301l-1.659,3.68l0.789,0.356
				l-0.224,0.496l-0.789-0.356L524.809-389.025z M523.27-392.273l1.883,0.85l0.93-2.062c0.144-0.317,0.299-0.62,0.451-0.915
				l-0.031-0.015c-0.339,0.276-0.591,0.461-0.856,0.658l-2.368,1.468L523.27-392.273z"/>
			<path d="M532.162-385.709l-0.635-0.286l1.101-2.44c0.37-0.821,0.313-1.48-0.322-1.768c-0.519-0.234-1.212,0.041-1.502,0.684
				l-1.198,2.658l-0.635-0.287l1.174-2.603c0.305-0.675,0.248-1.315-0.349-1.584c-0.55-0.248-1.283,0.074-1.58,0.732l-1.167,2.588
				l-0.635-0.286l1.415-3.139c0.196-0.434,0.319-0.75,0.462-1.105l0.565,0.255l-0.269,0.699l0.022,0.011
				c0.418-0.307,0.97-0.496,1.636-0.195c0.55,0.248,0.822,0.781,0.773,1.365l0.016,0.007c0.506-0.378,1.086-0.526,1.736-0.233
				c0.52,0.234,1.19,0.938,0.537,2.387L532.162-385.709z"/>
			<path d="M539.162-382.552l-0.635-0.286l1.1-2.44c0.371-0.821,0.314-1.481-0.321-1.769c-0.52-0.233-1.212,0.041-1.502,0.685
				l-1.198,2.657l-0.635-0.286l1.174-2.603c0.304-0.675,0.248-1.315-0.349-1.584c-0.55-0.248-1.283,0.073-1.581,0.732l-1.166,2.587
				l-0.635-0.286l1.415-3.138c0.195-0.434,0.319-0.751,0.461-1.106l0.565,0.255l-0.269,0.7l0.023,0.01
				c0.418-0.306,0.97-0.495,1.636-0.194c0.549,0.247,0.822,0.781,0.773,1.364l0.016,0.008c0.506-0.378,1.086-0.527,1.736-0.233
				c0.52,0.234,1.189,0.938,0.536,2.387L539.162-382.552z"/>
			<path d="M539.963-381.444c1.162-0.325,2.436-1.308,3.141-2.872c0.724-1.604,0.588-3.203,0.074-4.256l0.018-0.039l0.464,0.21
				c0.473,1.062,0.575,2.674-0.146,4.27c-0.719,1.596-1.995,2.587-3.104,2.937l-0.465-0.21L539.963-381.444z"/>
		</g>
	</g>
	<circle clip-path="url(#SVGID_2_)" cx="41.34" cy="20.592" r="3.688"/>
	<circle clip-path="url(#SVGID_2_)" cx="48.6" cy="42.998" r="1.781"/>
	<g clip-path="url(#SVGID_2_)">
		<path d="M43.847,12.606H42.35c-0.368,0-0.607,0.008-0.849,0.031c0.025-0.215,0.033-0.359,0.033-0.6v-1.394
			c0-0.249-0.008-0.399-0.033-0.6c0.232,0.023,0.537,0.04,0.905,0.04h3.377c0.465,0,0.689-0.008,0.904-0.04
			c-0.024,0.2-0.031,0.351-0.031,0.6v1.394c0,0.247,0.007,0.375,0.031,0.6c-0.256-0.023-0.464-0.031-0.848-0.031h-1.481v1.36h1.969
			c0.394,0,0.568-0.008,0.753-0.04v0.545c-0.224-0.033-0.393-0.04-0.753-0.04h-1.969v1.681c0.513,0.095,0.985,0.136,1.529,0.136
			c0.447,0,1.041-0.024,1.674-0.072c-0.112,0.225-0.145,0.319-0.177,0.561c-0.448,0.017-0.816,0.023-1.297,0.023
			c-2.266,0-3.33-0.473-4.106-1.816c-0.369,0.873-0.655,1.361-1.168,1.928c-0.161-0.176-0.239-0.238-0.433-0.351
			c0.521-0.537,0.832-0.992,1.12-1.688c0.248-0.577,0.408-1.187,0.457-1.754l0.544,0.12c-0.039,0.137-0.063,0.232-0.111,0.433
			c-0.097,0.408-0.128,0.52-0.2,0.752c0.216,0.432,0.375,0.656,0.656,0.952c0.304,0.313,0.592,0.496,1,0.641V12.606z M42.047,10.549
			v1.601h4.097v-1.601H42.047z"/>
		<path d="M49.714,11.853c-0.016,1.666-0.088,2.475-0.296,3.371c-0.136,0.623-0.321,1.081-0.666,1.671
			c-0.135-0.175-0.216-0.262-0.423-0.406c0.712-1.145,0.888-2.25,0.888-5.644c0-0.367-0.007-0.64-0.031-0.88
			c0.271,0.024,0.52,0.031,0.968,0.031h4.227c0.399,0,0.632-0.007,0.841-0.031c-0.017,0.191-0.024,0.376-0.024,0.616v0.704
			c0,0.24,0.008,0.4,0.024,0.593c-0.249-0.016-0.465-0.025-0.793-0.025H49.714z M54.708,11.404v-0.96h-4.986v0.96H54.708z
			 M51.883,13.006c-0.553,0.088-0.992,0.152-1.648,0.216c-0.058-0.159-0.13-0.296-0.216-0.424c1.216-0.064,2.504-0.28,3.449-0.576
			c0.384-0.112,0.504-0.16,0.648-0.241l0.376,0.409c-0.072,0.023-0.072,0.023-0.25,0.072c-0.655,0.192-1.184,0.32-1.863,0.455v0.737
			l1.863-0.231c0.328-0.041,0.57-0.088,0.77-0.146l0.041,0.529c-0.041,0-0.072,0-0.096,0c-0.154,0-0.434,0.023-0.682,0.056
			l-1.896,0.232v0.8l2.281-0.271c0.32-0.04,0.576-0.089,0.761-0.145l0.048,0.528c-0.272,0-0.488,0.016-0.777,0.048l-2.313,0.28
			v0.695c0,0.321,0.119,0.353,1.337,0.353c0.825,0,1.145-0.031,1.256-0.127c0.105-0.08,0.169-0.385,0.208-0.921
			c0.153,0.089,0.304,0.145,0.488,0.177c-0.087,0.721-0.185,1-0.383,1.152c-0.185,0.128-0.594,0.176-1.585,0.176
			c-1.618,0-1.817-0.08-1.817-0.704v-0.737l-1.297,0.153c-0.239,0.032-0.521,0.079-0.769,0.135l-0.041-0.519
			c0.209,0,0.465-0.017,0.777-0.057l1.329-0.161v-0.793l-1.145,0.145c-0.313,0.042-0.504,0.072-0.769,0.13l-0.039-0.513
			c0.215,0,0.495-0.018,0.783-0.057l1.169-0.145V13.006z"/>
		<path d="M57.541,12.157c-0.185,0-0.312,0.009-0.447,0.032v-0.456c-0.16,0.184-0.226,0.247-0.416,0.424
			c-0.104-0.2-0.113-0.207-0.298-0.399c0.4-0.328,0.666-0.609,0.961-1.041c0.231-0.336,0.36-0.584,0.474-0.913h0.575
			c0.249,0.562,0.521,0.913,1.081,1.401c-0.153,0.169-0.192,0.225-0.297,0.416c-0.544-0.568-0.768-0.881-1.041-1.425
			c-0.264,0.552-0.544,0.978-1.032,1.521c0.137,0.023,0.232,0.03,0.44,0.03h1.145c0.226,0,0.337-0.007,0.448-0.03v0.472
			c-0.136-0.023-0.239-0.032-0.448-0.032h-0.384v0.864h0.455c0.305,0,0.458-0.008,0.617-0.047v0.504
			c-0.184-0.024-0.352-0.031-0.617-0.031h-0.455v2.369c0.425-0.113,0.593-0.161,1.063-0.313l0.009,0.44
			c-0.768,0.248-1.553,0.457-2.241,0.593c-0.177,0.04-0.24,0.056-0.504,0.128l-0.12-0.52c0.327-0.018,0.745-0.09,1.336-0.226v-2.472
			h-0.615c-0.321,0-0.473,0.007-0.673,0.046v-0.519c0.176,0.031,0.352,0.047,0.673,0.047h0.615v-0.864H57.541z M57.094,15.591
			c-0.081-0.607-0.169-1.001-0.345-1.576l0.392-0.12c0.176,0.567,0.258,0.912,0.369,1.576L57.094,15.591z M58.573,15.279
			c0.16-0.488,0.232-0.808,0.321-1.409l0.393,0.112c-0.12,0.633-0.192,0.904-0.362,1.393L58.573,15.279z M59.662,10.957
			c0-0.52-0.008-0.681-0.023-0.912c0.192,0.023,0.392,0.032,0.872,0.032h2.105c0.544,0,0.696-0.009,0.88-0.032
			c-0.023,0.239-0.032,0.536-0.032,0.969v5.186c0,0.505-0.151,0.633-0.752,0.633c-0.185,0-0.528-0.016-0.848-0.04
			c-0.017-0.2-0.033-0.313-0.097-0.513c0.343,0.056,0.672,0.089,0.944,0.089c0.232,0,0.288-0.048,0.288-0.217v-5.626h-2.873v5.442
			c0,0.48,0.008,0.728,0.039,0.937h-0.544c0.032-0.266,0.04-0.465,0.04-0.937V10.957z M62.688,11.845
			c-0.177-0.031-0.305-0.039-0.592-0.039h-1.042c-0.304,0-0.415,0.008-0.607,0.039v-0.513c0.184,0.033,0.304,0.042,0.607,0.042
			h1.032c0.305,0,0.409-0.009,0.602-0.042V11.845z M62.439,14.623c0,0.199,0.009,0.32,0.024,0.465
			c-0.169-0.018-0.271-0.024-0.48-0.024h-0.865v0.496H60.64c0.023-0.177,0.032-0.328,0.032-0.713v-1.753
			c0-0.177-0.009-0.336-0.025-0.487c0.152,0.015,0.313,0.024,0.521,0.024h0.736c0.266,0,0.416-0.01,0.561-0.024
			c-0.024,0.136-0.024,0.208-0.024,0.472V14.623z M61.118,14.647h0.881v-1.594h-0.881V14.647z"/>
		<path d="M67.595,10.525c0-0.304-0.018-0.506-0.057-0.745h0.664c-0.04,0.232-0.056,0.432-0.056,0.745v5.146h2.36v-3.658
			c0-0.336-0.016-0.512-0.048-0.744h0.633c-0.031,0.271-0.049,0.488-0.049,0.753v3.985c0,0.32,0.018,0.56,0.058,0.848h-0.594v-0.672
			h-5.113v0.672h-0.593c0.04-0.335,0.056-0.521,0.056-0.808v-3.995c0-0.305-0.016-0.551-0.056-0.783h0.632
			c-0.032,0.223-0.039,0.448-0.039,0.776v3.626h2.201V10.525z"/>
	</g>
	<g clip-path="url(#SVGID_2_)">
		<path d="M4.669,18.562c-0.496,0.12-0.743,0.176-1.335,0.28c-0.064-0.184-0.12-0.296-0.232-0.456
			c0.983-0.128,1.623-0.279,2.535-0.607c0.288-0.096,0.384-0.144,0.519-0.232l0.36,0.424c-0.128,0.048-0.128,0.048-0.319,0.112
			c-0.368,0.136-0.648,0.231-1.048,0.344v1.247h0.784c0.28,0,0.488-0.008,0.696-0.04v0.528c-0.2-0.032-0.393-0.04-0.712-0.04H5.166
			c0.136,0.336,0.2,0.447,0.384,0.703c0.248,0.36,0.503,0.632,0.992,1.063c-0.137,0.152-0.209,0.256-0.297,0.432
			c-0.591-0.615-0.823-0.943-1.135-1.583c0.024,0.448,0.04,0.992,0.04,1.352v1.663c0,0.487,0.008,0.743,0.048,0.976H4.606
			c0.04-0.28,0.056-0.544,0.056-0.976v-1.56c0-0.447,0.008-0.671,0.04-1.359c-0.376,1.008-0.768,1.647-1.487,2.423
			c-0.112-0.208-0.2-0.327-0.328-0.455c0.479-0.448,0.775-0.815,1.087-1.344c0.256-0.439,0.488-0.943,0.616-1.335H3.83
			c-0.32,0-0.536,0.016-0.751,0.048v-0.544c0.184,0.04,0.376,0.048,0.76,0.048h0.831V18.562z M7.788,18.026
			c-0.032,0.256-0.04,0.447-0.04,0.911v3.086c0,0.544,0.008,0.704,0.04,0.928H7.196c0.032-0.224,0.04-0.392,0.04-0.928v-3.086
			c0-0.447-0.016-0.664-0.048-0.911H7.788z M9.771,17.578c-0.041,0.264-0.057,0.56-0.057,1.008v5.253
			c0,0.567-0.191,0.704-0.951,0.704c-0.225,0-0.561-0.009-0.816-0.024c-0.039-0.208-0.08-0.328-0.168-0.527
			c0.424,0.048,0.768,0.071,1.032,0.071c0.319,0,0.384-0.04,0.384-0.239v-5.237c0-0.456-0.016-0.752-0.049-1.008H9.771z"/>
		<path d="M12.189,18.234c0-0.464-0.008-0.632-0.039-0.832h0.575c-0.032,0.2-0.04,0.416-0.04,0.823v0.824h0.447
			c0.232,0,0.369-0.009,0.521-0.032v0.504c-0.208-0.024-0.368-0.032-0.521-0.032h-0.424c0.185,0.527,0.545,1.111,1.008,1.623
			c-0.127,0.128-0.231,0.248-0.328,0.399c-0.367-0.512-0.52-0.783-0.743-1.351c0.024,0.392,0.04,0.959,0.04,1.312v2.311
			c0,0.432,0.008,0.711,0.049,0.927H12.15c0.031-0.224,0.047-0.512,0.047-0.927v-2.127c0-0.376,0.009-0.775,0.041-1.287
			c-0.313,1.015-0.584,1.583-1.119,2.286c-0.121-0.199-0.176-0.279-0.328-0.432c0.615-0.703,1.096-1.687,1.335-2.734h-0.52
			c-0.151,0-0.336,0.008-0.552,0.032v-0.504c0.168,0.023,0.312,0.032,0.552,0.032h0.583V18.234z M17.923,21.656
			c-0.552,0.52-0.936,0.815-1.415,1.104c0.463,0.575,0.928,0.943,1.742,1.367c-0.159,0.151-0.215,0.224-0.367,0.455
			c-0.791-0.487-1.271-0.903-1.703-1.486c-0.4-0.544-0.647-1.088-0.871-1.888h-0.832v2.583c0.576-0.145,0.888-0.24,1.455-0.432
			l0.049,0.464c-0.889,0.304-1.16,0.375-2.312,0.655c-0.2,0.056-0.28,0.072-0.415,0.12l-0.137-0.552
			c0.256-0.016,0.447-0.048,0.863-0.136v-5.245c0-0.313-0.016-0.56-0.031-0.832c0.231,0.024,0.447,0.032,0.807,0.032h1.943
			c0.4,0,0.624-0.008,0.8-0.04c-0.024,0.208-0.024,0.368-0.024,0.871v1.72c0,0.495,0,0.655,0.024,0.823
			c-0.208-0.023-0.424-0.032-0.8-0.032h-0.92c0.145,0.552,0.24,0.776,0.473,1.176c0.527-0.312,0.887-0.616,1.295-1.096
			L17.923,21.656z M16.987,19.297v-0.991h-2.511v0.991H16.987z M14.477,20.776h2.511v-1.039h-2.511V20.776z"/>
		<path d="M20.303,19.873c0,2.375-0.297,3.534-1.191,4.693c-0.152-0.191-0.248-0.279-0.457-0.424
			c0.832-0.919,1.104-1.991,1.104-4.294v-1.575c0-0.312-0.016-0.479-0.047-0.711h0.639c-0.039,0.199-0.047,0.352-0.047,0.728V19.873
			z M22.861,17.891c-0.033,0.231-0.049,0.439-0.049,0.751v4.229c0,0.424,0.016,0.68,0.049,0.904h-0.641
			c0.032-0.232,0.049-0.48,0.049-0.904v-4.229c0-0.359-0.017-0.56-0.049-0.751H22.861z M25.443,17.586
			c-0.04,0.225-0.049,0.393-0.049,0.776v5.205c0,0.503,0.009,0.743,0.049,0.999h-0.64c0.032-0.24,0.048-0.512,0.048-0.999v-5.205
			c0-0.376-0.008-0.552-0.048-0.776H25.443z"/>
	</g>
	<g clip-path="url(#SVGID_2_)">
		<path d="M44.527,30.31c0.52,0.312,0.831,0.552,1.279,0.968l-0.32,0.399c-0.463-0.472-0.735-0.688-1.279-1.016L44.527,30.31z
			 M45.711,32.805c-0.248,0.855-0.44,1.375-0.744,1.99c-0.104,0.208-0.137,0.272-0.176,0.344c-0.049,0.088-0.049,0.088-0.088,0.177
			l-0.447-0.4c0.311-0.312,0.768-1.327,1.055-2.414L45.711,32.805z M44.91,28.375c0.496,0.336,0.792,0.6,1.16,1.016l-0.359,0.359
			c-0.393-0.464-0.648-0.703-1.145-1.047L44.91,28.375z M48.501,28.935c0-0.376-0.009-0.52-0.04-0.72h0.576
			c-0.033,0.2-0.041,0.336-0.041,0.72h1.488c0.398,0,0.607-0.008,0.839-0.04v0.527c-0.272-0.031-0.512-0.04-0.808-0.04h-3.654v0.872
			c0,1.631-0.111,2.807-0.352,3.758c-0.152,0.584-0.312,0.968-0.607,1.423c-0.145-0.151-0.248-0.231-0.447-0.335
			c0.295-0.408,0.479-0.84,0.631-1.52c0.191-0.84,0.288-1.991,0.288-3.51c0-0.473-0.009-0.752-0.048-1.176
			c0.216,0.032,0.375,0.04,0.752,0.04H48.501z M50.812,32.748c-0.12,0.152-0.12,0.152-0.256,0.336
			c-0.248,0.336-0.655,0.76-1.071,1.096c0.584,0.352,1.223,0.6,2.031,0.783c-0.121,0.152-0.192,0.272-0.264,0.48
			c-0.92-0.28-1.552-0.576-2.144-0.984c-0.696,0.48-1.319,0.744-2.263,0.952c-0.08-0.208-0.12-0.288-0.264-0.456
			c0.848-0.144,1.479-0.367,2.158-0.775c-0.512-0.439-0.783-0.768-1.047-1.287c-0.296,0-0.432,0.008-0.623,0.031v-0.503
			c0.184,0.031,0.383,0.048,0.654,0.048h2.151c0.319,0,0.479-0.008,0.616-0.024L50.812,32.748z M50.229,31.461
			c0,0.136,0.008,0.344,0.016,0.472c-0.032,0-0.032,0-0.129-0.008c-0.039,0-0.327-0.008-0.424-0.008h-1.263
			c-0.159,0-0.399,0.008-0.528,0.016c0.009-0.144,0.017-0.327,0.017-0.479v-0.8h-0.239c-0.225,0-0.416,0.008-0.607,0.032v-0.487
			c0.176,0.023,0.367,0.04,0.6,0.04h0.247v-0.137c0-0.144-0.008-0.304-0.04-0.512h0.535c-0.023,0.185-0.031,0.328-0.031,0.512v0.137
			h1.383v-0.129c0-0.176-0.008-0.319-0.031-0.512h0.535c-0.031,0.177-0.039,0.313-0.039,0.512v0.129h0.383
			c0.4,0,0.544-0.009,0.712-0.04v0.495c-0.231-0.032-0.456-0.04-0.712-0.04h-0.383V31.461z M48.205,32.893
			c0.216,0.407,0.447,0.663,0.92,1.031c0.447-0.344,0.655-0.56,0.999-1.031H48.205z M48.381,30.653v0.864h1.383v-0.864H48.381z"/>
		<path d="M53.71,32.309v2.327c0.823-0.192,1.359-0.336,2.056-0.56l0.008,0.495c-1.04,0.336-1.808,0.536-3.127,0.815
			c-0.216,0.04-0.336,0.072-0.447,0.104l-0.16-0.584c0.32-0.016,0.567-0.056,1.151-0.168v-4.917c0-0.288-0.009-0.544-0.032-0.728
			c0.168,0.023,0.408,0.031,0.695,0.031h1.479v-0.312c0-0.2-0.017-0.399-0.056-0.575h0.631c-0.039,0.168-0.055,0.359-0.055,0.583
			v0.304h1.566c0.296,0,0.535-0.008,0.703-0.031c-0.016,0.176-0.031,0.439-0.031,0.735v1.783c0,0.327,0.008,0.527,0.023,0.711
			c-0.199-0.008-0.504-0.016-0.68-0.016h-1.814c0.224,0.567,0.392,0.823,0.775,1.216c0.936-0.488,1.479-0.856,1.839-1.256
			l0.399,0.384c-0.088,0.064-0.096,0.064-0.295,0.208c-0.432,0.336-0.977,0.655-1.607,0.968c0.664,0.535,1.503,0.919,2.494,1.151
			c-0.127,0.176-0.184,0.271-0.287,0.527c-1.264-0.416-2.104-0.88-2.783-1.543c-0.512-0.504-0.799-0.943-1.055-1.655H53.71z
			 M53.71,30.454h3.886v-0.872H53.71V30.454z M53.71,31.861h3.886v-0.968H53.71V31.861z"/>
		<path d="M60.031,30.27c0.495,0.304,0.831,0.544,1.23,0.912l-0.328,0.415c-0.399-0.407-0.719-0.663-1.223-0.959L60.031,30.27z
			 M61.277,32.828c-0.271,0.863-0.52,1.495-0.863,2.143c-0.119,0.225-0.144,0.272-0.184,0.36l-0.455-0.392
			c0.319-0.304,0.759-1.287,1.095-2.423L61.277,32.828z M60.367,28.311c0.479,0.328,0.775,0.584,1.103,0.936l-0.335,0.4
			c-0.353-0.424-0.592-0.64-1.112-0.983L60.367,28.311z M62.109,29.542c-0.264,0-0.408,0.008-0.592,0.04v-0.504
			c0.184,0.032,0.32,0.04,0.607,0.04h0.48v-0.256c0-0.271-0.016-0.439-0.049-0.615h0.528c-0.04,0.191-0.048,0.336-0.048,0.6v0.271
			h0.6c0.271,0,0.432-0.008,0.615-0.04v0.504c-0.184-0.032-0.344-0.04-0.607-0.04h-0.607v0.688h0.352
			c0.432,0,0.552-0.008,0.703-0.031c-0.023,0.191-0.023,0.271-0.023,0.615v0.896c0,0.392,0,0.472,0.023,0.664
			c-0.176-0.024-0.391-0.032-0.768-0.032h-0.199c0.304,0.535,0.592,0.871,1.127,1.287c-0.127,0.152-0.191,0.248-0.287,0.424
			c-0.424-0.432-0.641-0.72-0.96-1.279c0.024,0.399,0.032,0.695,0.032,1.136v0.807c0,0.353,0.016,0.568,0.048,0.776h-0.528
			c0.033-0.192,0.049-0.432,0.049-0.776v-0.743c0-0.432,0.008-0.743,0.031-1.111c-0.407,0.928-0.68,1.343-1.287,1.935
			c-0.104-0.168-0.207-0.296-0.328-0.392c0.68-0.592,1.137-1.224,1.504-2.063h-0.168c-0.376,0-0.584,0.008-0.791,0.032
			c0.023-0.217,0.031-0.344,0.031-0.656v-0.871c0-0.304-0.008-0.456-0.031-0.647c0.184,0.023,0.295,0.031,0.711,0.031h0.328v-0.688
			H62.109z M62.014,30.638v1.295h0.592v-1.295H62.014z M63.037,31.933h0.615v-1.295h-0.615V31.933z M65.308,34.283
			c-0.368,0.521-0.64,0.816-1.159,1.224c-0.137-0.144-0.248-0.24-0.416-0.336c0.592-0.359,0.88-0.632,1.168-1.127L65.308,34.283z
			 M65.044,28.998c-0.392,0-0.567,0.009-0.768,0.032v-0.512c0.231,0.04,0.424,0.048,0.768,0.048h1.255
			c0.344,0,0.576-0.016,0.76-0.048v0.528c-0.176-0.032-0.392-0.049-0.744-0.049h-0.415c-0.097,0.336-0.159,0.536-0.256,0.808h0.448
			c0.336,0,0.527-0.008,0.688-0.031c-0.016,0.199-0.024,0.375-0.024,0.728v2.59c0,0.32,0.009,0.528,0.024,0.752
			c-0.225-0.016-0.385-0.023-0.664-0.023h-0.959c-0.272,0-0.439,0.008-0.688,0.023c0.016-0.248,0.023-0.439,0.023-0.72v-2.599
			c0-0.304-0.008-0.504-0.031-0.743c0.247,0.016,0.367,0.023,0.727,0.023c0.12-0.319,0.192-0.575,0.232-0.808H65.044z
			 M64.916,30.966h1.415v-0.752h-1.415V30.966z M64.916,32.156h1.415v-0.783h-1.415V32.156z M64.916,33.396h1.415v-0.84h-1.415
			V33.396z M66.188,34.052c0.328,0.504,0.592,0.768,1.031,1.048c-0.104,0.088-0.208,0.216-0.336,0.392
			c-0.504-0.432-0.64-0.576-1.08-1.208L66.188,34.052z"/>
		<path d="M69.215,30.686c0,2.375-0.297,3.534-1.191,4.693c-0.152-0.191-0.248-0.279-0.457-0.424
			c0.832-0.919,1.104-1.991,1.104-4.294v-1.575c0-0.312-0.016-0.479-0.047-0.711h0.639c-0.039,0.199-0.047,0.352-0.047,0.728V30.686
			z M71.773,28.703c-0.033,0.231-0.049,0.439-0.049,0.751v4.229c0,0.424,0.016,0.68,0.049,0.904h-0.641
			c0.032-0.232,0.049-0.48,0.049-0.904v-4.229c0-0.359-0.017-0.56-0.049-0.751H71.773z M74.355,28.398
			c-0.04,0.225-0.049,0.393-0.049,0.776v5.205c0,0.503,0.009,0.743,0.049,0.999h-0.64c0.032-0.24,0.048-0.512,0.048-0.999v-5.205
			c0-0.376-0.008-0.552-0.048-0.776H74.355z"/>
	</g>
	<g clip-path="url(#SVGID_2_)">
		<path d="M55.786,42.721c0.392,0.664,0.751,1.08,1.392,1.623c0.655,0.561,1.199,0.888,2.095,1.271
			c-0.112,0.128-0.24,0.32-0.319,0.472c-0.576-0.288-0.824-0.432-1.225-0.703c-0.008,0.088-0.008,0.176-0.008,0.424v1.719
			c0,0.352,0.017,0.584,0.049,0.815h-0.561v-0.447h-3.342v0.447h-0.56c0.032-0.224,0.048-0.479,0.048-0.815v-1.695
			c0-0.199,0-0.248,0-0.407c-0.336,0.239-0.56,0.375-1.184,0.703c-0.104-0.191-0.168-0.288-0.312-0.439
			c0.848-0.384,1.359-0.704,1.967-1.231c0.647-0.56,0.999-0.991,1.399-1.735H55.786z M54.851,41.481
			c-0.439,0.647-0.768,1.008-1.296,1.424c-0.335,0.271-0.391,0.304-1.039,0.695c-0.16-0.224-0.215-0.288-0.375-0.424
			c0.592-0.312,0.943-0.544,1.287-0.831c0.432-0.36,0.664-0.641,0.967-1.168L54.851,41.481z M57.105,45.16c0.104,0,0.128,0,0.304,0
			c-0.384-0.288-0.695-0.568-1.015-0.896c-0.344-0.352-0.521-0.575-0.864-1.119c-0.544,0.872-0.927,1.296-1.823,2.016
			c0.145,0,0.168,0,0.256,0H57.105z M53.867,47.438h3.342v-1.823h-3.342V47.438z M56.65,41.162c0.455,0.615,0.775,0.943,1.326,1.351
			c0.288,0.208,0.52,0.353,1.008,0.608c-0.104,0.104-0.232,0.287-0.336,0.464c-1.031-0.601-1.6-1.112-2.414-2.136L56.65,41.162z"/>
		<path d="M63.066,41.945c0-0.392-0.016-0.584-0.057-0.831h0.641c-0.04,0.247-0.057,0.472-0.057,0.815v0.703h2.344
			c0.271,0,0.424-0.008,0.607-0.031c-0.032,0.207-0.041,0.375-0.041,0.631v2.184c0,0.264,0.017,0.472,0.049,0.711h-0.576v-0.544
			h-2.383v1.863c0,0.456,0.008,0.655,0.057,0.911H63.01c0.041-0.271,0.057-0.479,0.057-0.911v-1.863h-2.255v0.544h-0.575
			c0.031-0.231,0.048-0.455,0.048-0.711v-2.184c0-0.248-0.017-0.424-0.04-0.631c0.191,0.023,0.344,0.031,0.6,0.031h2.223V41.945z
			 M60.812,43.113v1.99h2.255v-1.99H60.812z M65.977,45.104v-1.99h-2.383v1.99H65.977z"/>
		<path d="M69.14,41.825c0-0.304-0.017-0.487-0.048-0.68h0.584c-0.041,0.216-0.049,0.384-0.049,0.688v0.895h0.376
			c0.272,0,0.464-0.008,0.696-0.039v0.527c-0.232-0.032-0.432-0.04-0.696-0.04h-0.327c0.207,0.504,0.215,0.52,0.352,0.775
			c0.231,0.416,0.416,0.672,0.752,1.023c-0.104,0.128-0.209,0.28-0.297,0.464c-0.416-0.552-0.6-0.88-0.887-1.599
			c0.023,0.552,0.031,0.879,0.031,1.471v2.311c0,0.353,0.016,0.536,0.049,0.752h-0.584c0.031-0.2,0.048-0.408,0.048-0.744v-2.19
			c0-0.535,0.008-0.911,0.04-1.471c-0.328,1.111-0.703,1.887-1.279,2.622c-0.096-0.176-0.208-0.328-0.328-0.447
			c0.615-0.68,1.256-1.959,1.479-2.967h-0.527c-0.303,0-0.487,0.008-0.719,0.04v-0.527c0.215,0.023,0.432,0.039,0.719,0.039h0.616
			V41.825z M73.873,47.542c0,0.504-0.168,0.624-0.896,0.624c-0.304,0-0.56-0.016-0.96-0.048c-0.023-0.232-0.063-0.36-0.144-0.544
			c0.472,0.072,0.823,0.104,1.063,0.104c0.352,0,0.408-0.024,0.408-0.208v-4.19h-1.656c-0.319,0-0.623,0.017-0.831,0.049v-0.561
			c0.192,0.032,0.479,0.049,0.823,0.049h1.664v-0.712c0-0.384-0.017-0.695-0.057-0.92h0.632c-0.032,0.248-0.048,0.544-0.048,0.928
			v0.704h0.207c0.328,0,0.553-0.017,0.768-0.049v0.544c-0.247-0.023-0.503-0.032-0.759-0.032h-0.216V47.542z M72.121,46.239
			c-0.335-0.823-0.623-1.327-1.119-1.991l0.456-0.231c0.472,0.632,0.8,1.191,1.144,1.919L72.121,46.239z"/>
	</g>
</g>
</svg>
