<?xml version="1.0" encoding="utf-8"?>
<!-- Generator: Adobe Illustrator 16.0.3, SVG Export Plug-In . SVG Version: 6.00 Build 0)  -->
<!DOCTYPE svg PUBLIC "-//W3C//DTD SVG 1.1//EN" "http://www.w3.org/Graphics/SVG/1.1/DTD/svg11.dtd">
<svg version="1.1" id="レイヤー_1" xmlns="http://www.w3.org/2000/svg" xmlns:xlink="http://www.w3.org/1999/xlink" x="0px"
	 y="0px" width="183.521px" height="86.917px" viewBox="0 0 183.521 86.917" enable-background="new 0 0 183.521 86.917"
	 xml:space="preserve">
<g>
	<path fill="#231815" d="M80.813,3.953c0-0.319-0.009-0.552-0.04-0.783c0.256,0.032,0.488,0.04,0.855,0.04h3.598
		c0.368,0,0.592-0.008,0.824-0.04c-0.032,0.231-0.041,0.432-0.041,0.735V9.03c0,0.384,0.017,0.608,0.049,0.855h-0.584v-0.52H81.35
		v0.52h-0.584c0.031-0.239,0.048-0.487,0.048-0.847V3.953z M81.35,5.936h4.125V3.697H81.35V5.936z M81.35,8.878h4.125V6.423H81.35
		V8.878z"/>
	<path fill="#231815" d="M88.846,4.649c-0.313,0-0.584,0.016-0.88,0.048V4.113c0.296,0.04,0.528,0.056,0.88,0.056h2.238v-0.68
		c0-0.264-0.016-0.455-0.057-0.728h0.633c-0.041,0.24-0.057,0.472-0.057,0.72v0.688h2.359c0.399,0,0.663-0.016,0.895-0.056v0.584
		c-0.336-0.032-0.575-0.048-0.895-0.048h-2.159c0.896,1.615,1.967,2.734,3.294,3.454c-0.168,0.184-0.256,0.304-0.367,0.52
		c-0.648-0.432-1.145-0.848-1.664-1.399c-0.663-0.703-1.111-1.383-1.494-2.247c0.023,0.48,0.031,0.776,0.031,1.04v1.814h0.871
		c0.393,0,0.568-0.008,0.776-0.04v0.56c-0.239-0.039-0.433-0.048-0.792-0.048h-0.855v0.76c0,0.376,0.016,0.664,0.057,0.92h-0.633
		c0.041-0.28,0.057-0.56,0.057-0.928V8.302h-0.768c-0.375,0-0.568,0.009-0.808,0.048v-0.56c0.208,0.032,0.384,0.04,0.792,0.04h0.783
		V6.016c0-0.296,0.008-0.6,0.032-1.031c-0.368,0.871-0.792,1.526-1.511,2.311c-0.504,0.552-0.936,0.936-1.52,1.343
		c-0.12-0.216-0.184-0.296-0.376-0.472c0.688-0.416,1.263-0.903,1.871-1.623c0.6-0.688,0.943-1.199,1.304-1.895H88.846z"/>
	<path fill="#231815" d="M77.229,17.233c0.209,0.032,0.36,0.04,0.664,0.04h0.504c0.271,0,0.4-0.008,0.664-0.04
		c-0.049,0.488-0.072,0.896-0.072,1.328v3.886c0,0.376,0.016,0.607,0.064,0.903h-0.76c0.047-0.28,0.063-0.536,0.063-0.903v-4.63
		h-0.432c-0.256,0-0.464,0.016-0.696,0.048V17.233z"/>
	<path fill="#231815" d="M82.357,22.902c-0.217-0.216-0.385-0.464-0.48-0.735c-0.199-0.56-0.303-1.191-0.303-1.847
		c0-0.848,0.184-1.711,0.463-2.175c0.384-0.647,1-0.983,1.791-0.983c0.592,0,1.104,0.191,1.463,0.567
		c0.225,0.224,0.385,0.472,0.48,0.735c0.199,0.552,0.304,1.191,0.304,1.855c0,0.968-0.208,1.823-0.56,2.311
		c-0.4,0.56-0.959,0.84-1.695,0.84C83.229,23.47,82.732,23.278,82.357,22.902z M82.82,18.121c-0.168,0.185-0.295,0.384-0.359,0.584
		c-0.168,0.487-0.248,1.031-0.248,1.615c0,0.743,0.16,1.527,0.376,1.902c0.28,0.464,0.696,0.696,1.239,0.696
		c0.4,0,0.744-0.128,0.984-0.376c0.176-0.184,0.303-0.392,0.375-0.624c0.168-0.495,0.248-1.023,0.248-1.615
		c0-0.695-0.152-1.486-0.359-1.862c-0.264-0.479-0.696-0.728-1.256-0.728C83.404,17.713,83.076,17.849,82.82,18.121z"/>
	<path fill="#231815" d="M87.805,22.558v0.792h-0.791v-0.792H87.805z"/>
	<path fill="#231815" d="M89.533,22.902c-0.217-0.216-0.385-0.464-0.48-0.735c-0.199-0.56-0.303-1.191-0.303-1.847
		c0-0.848,0.184-1.711,0.463-2.175c0.384-0.647,1-0.983,1.791-0.983c0.592,0,1.104,0.191,1.463,0.567
		c0.225,0.224,0.385,0.472,0.48,0.735c0.199,0.552,0.304,1.191,0.304,1.855c0,0.968-0.208,1.823-0.56,2.311
		c-0.4,0.56-0.959,0.84-1.695,0.84C90.404,23.47,89.908,23.278,89.533,22.902z M89.996,18.121c-0.168,0.185-0.295,0.384-0.359,0.584
		c-0.168,0.487-0.248,1.031-0.248,1.615c0,0.743,0.16,1.527,0.376,1.902c0.28,0.464,0.696,0.696,1.239,0.696
		c0.4,0,0.744-0.128,0.984-0.376c0.176-0.184,0.303-0.392,0.375-0.624c0.168-0.495,0.248-1.023,0.248-1.615
		c0-0.695-0.152-1.486-0.359-1.862c-0.264-0.479-0.696-0.728-1.256-0.728C90.58,17.713,90.252,17.849,89.996,18.121z"/>
	<path fill="#231815" d="M94.789,22.902c-0.217-0.216-0.385-0.464-0.48-0.735c-0.199-0.56-0.303-1.191-0.303-1.847
		c0-0.848,0.184-1.711,0.463-2.175c0.384-0.647,1-0.983,1.791-0.983c0.592,0,1.104,0.191,1.463,0.567
		c0.225,0.224,0.385,0.472,0.48,0.735c0.199,0.552,0.304,1.191,0.304,1.855c0,0.968-0.208,1.823-0.56,2.311
		c-0.4,0.56-0.959,0.84-1.695,0.84C95.66,23.47,95.164,23.278,94.789,22.902z M95.252,18.121c-0.168,0.185-0.295,0.384-0.359,0.584
		c-0.168,0.487-0.248,1.031-0.248,1.615c0,0.743,0.16,1.527,0.376,1.902c0.28,0.464,0.696,0.696,1.239,0.696
		c0.4,0,0.744-0.128,0.984-0.376c0.176-0.184,0.303-0.392,0.375-0.624c0.168-0.495,0.248-1.023,0.248-1.615
		c0-0.695-0.152-1.486-0.359-1.862c-0.264-0.479-0.696-0.728-1.256-0.728C95.836,17.713,95.508,17.849,95.252,18.121z"/>
	<path fill="#231815" d="M77.293,35.35c-0.504,0-0.623,0.008-0.879,0.04c0.088-0.632,0.111-0.752,0.231-1.056
		c0.2-0.504,0.536-0.943,1.04-1.375c0.279-0.24,0.295-0.248,1.223-0.88c0.791-0.535,1.056-0.888,1.056-1.375
		c0-0.607-0.512-0.999-1.327-0.999c-0.527,0-0.92,0.176-1.16,0.52c-0.151,0.216-0.223,0.407-0.279,0.808l-0.672-0.112
		c0.12-0.576,0.24-0.855,0.504-1.151c0.359-0.408,0.903-0.615,1.607-0.615c1.207,0,1.982,0.607,1.982,1.551
		c0,0.407-0.16,0.792-0.472,1.136c-0.239,0.271-0.448,0.424-1.358,1.031c-0.633,0.424-0.889,0.647-1.152,0.983
		c-0.248,0.327-0.359,0.544-0.455,0.928h2.551c0.398,0,0.671-0.017,0.975-0.057v0.672c-0.32-0.032-0.584-0.048-0.983-0.048H77.293z"
		/>
	<path fill="#231815" d="M85.211,30.6c-0.104-0.256-0.159-0.367-0.279-0.503c-0.24-0.265-0.552-0.4-0.951-0.4
		c-0.624,0-1.096,0.336-1.383,0.992c-0.209,0.479-0.281,0.847-0.336,1.719c0.144-0.248,0.223-0.36,0.399-0.512
		c0.376-0.336,0.8-0.488,1.351-0.488c1.24,0,2.008,0.768,2.008,1.999c0,1.239-0.832,2.055-2.096,2.055
		c-0.567,0-1.104-0.184-1.447-0.503c-0.52-0.48-0.807-1.376-0.807-2.511c0-1,0.224-1.896,0.607-2.415
		c0.424-0.575,0.991-0.871,1.688-0.871c0.479,0,0.91,0.12,1.215,0.336c0.279,0.199,0.439,0.415,0.672,0.896L85.211,30.6z
		 M83.924,31.944c-0.399,0-0.823,0.176-1.104,0.456c-0.264,0.264-0.399,0.615-0.399,1.015c0,0.864,0.647,1.504,1.511,1.504
		c0.521,0,1-0.248,1.248-0.647c0.128-0.208,0.207-0.536,0.207-0.848C85.387,32.48,84.859,31.944,83.924,31.944z"/>
	<path fill="#231815" d="M87.805,34.558v0.792h-0.791v-0.792H87.805z"/>
	<path fill="#231815" d="M89.404,33.871c0.129,0.416,0.24,0.584,0.488,0.76c0.271,0.192,0.623,0.288,1.031,0.288
		c0.928,0,1.512-0.48,1.512-1.239c0-0.792-0.568-1.224-1.631-1.224c-0.225,0-0.424,0.016-0.641,0.04v-0.632
		c0.185,0.032,0.377,0.048,0.592,0.048c0.527,0,0.92-0.12,1.168-0.367c0.199-0.192,0.32-0.488,0.32-0.776
		c0-0.688-0.48-1.087-1.288-1.087c-0.487,0-0.839,0.136-1.063,0.424c-0.111,0.144-0.168,0.271-0.256,0.567l-0.664-0.144
		c0.137-0.408,0.232-0.592,0.432-0.8c0.353-0.384,0.896-0.584,1.592-0.584c1.159,0,1.895,0.608,1.895,1.567
		c0,0.488-0.207,0.92-0.559,1.167c-0.209,0.152-0.385,0.217-0.752,0.288c0.463,0.048,0.711,0.136,0.982,0.344
		c0.353,0.272,0.537,0.696,0.537,1.208c0,1.079-0.832,1.751-2.168,1.751c-0.807,0-1.406-0.225-1.791-0.656
		c-0.168-0.191-0.264-0.367-0.407-0.775L89.404,33.871z"/>
	<path fill="#231815" d="M97.891,32.511c0.4,0.296,0.6,0.72,0.6,1.256c0,1.095-0.799,1.711-2.207,1.711
		c-1.463,0-2.27-0.607-2.27-1.711c0-0.576,0.231-1.016,0.711-1.327c0.248-0.16,0.424-0.225,0.72-0.272
		c-0.704-0.128-1.159-0.695-1.159-1.438c0-0.968,0.76-1.584,1.967-1.584c1.223,0,1.975,0.6,1.975,1.584
		c0,0.743-0.447,1.303-1.159,1.438C97.403,32.215,97.627,32.312,97.891,32.511z M94.669,33.727c0,0.76,0.583,1.207,1.575,1.207
		c0.56,0,1.016-0.144,1.287-0.416c0.199-0.184,0.304-0.463,0.304-0.791c0-0.784-0.6-1.256-1.583-1.256S94.669,32.952,94.669,33.727z
		 M94.908,30.777c0,0.711,0.512,1.143,1.352,1.143s1.344-0.432,1.344-1.143c0-0.672-0.527-1.096-1.352-1.096
		C95.437,29.681,94.908,30.113,94.908,30.777z"/>
	<path fill="#231815" d="M76.973,45.871c0.129,0.416,0.24,0.584,0.488,0.76c0.271,0.192,0.623,0.288,1.031,0.288
		c0.928,0,1.512-0.48,1.512-1.239c0-0.792-0.568-1.224-1.631-1.224c-0.225,0-0.424,0.016-0.641,0.04v-0.632
		c0.185,0.032,0.377,0.048,0.592,0.048c0.527,0,0.92-0.12,1.168-0.367c0.199-0.192,0.32-0.488,0.32-0.776
		c0-0.688-0.48-1.087-1.288-1.087c-0.487,0-0.839,0.136-1.063,0.424c-0.111,0.144-0.168,0.271-0.256,0.567l-0.664-0.144
		c0.137-0.408,0.232-0.592,0.432-0.8c0.353-0.384,0.896-0.584,1.592-0.584c1.159,0,1.895,0.608,1.895,1.567
		c0,0.488-0.207,0.92-0.559,1.167c-0.209,0.152-0.385,0.217-0.752,0.288c0.463,0.048,0.711,0.136,0.982,0.344
		c0.353,0.272,0.537,0.696,0.537,1.208c0,1.079-0.832,1.751-2.168,1.751c-0.807,0-1.406-0.225-1.791-0.656
		c-0.168-0.191-0.264-0.367-0.407-0.775L76.973,45.871z"/>
	<path fill="#231815" d="M85.459,44.511c0.4,0.296,0.6,0.72,0.6,1.256c0,1.095-0.799,1.711-2.207,1.711
		c-1.463,0-2.27-0.607-2.27-1.711c0-0.576,0.231-1.016,0.711-1.327c0.248-0.16,0.424-0.225,0.72-0.272
		c-0.704-0.128-1.159-0.695-1.159-1.438c0-0.968,0.76-1.584,1.967-1.584c1.223,0,1.975,0.6,1.975,1.584
		c0,0.743-0.447,1.303-1.159,1.438C84.972,44.215,85.195,44.312,85.459,44.511z M82.237,45.727c0,0.76,0.583,1.207,1.575,1.207
		c0.56,0,1.016-0.144,1.287-0.416c0.199-0.184,0.304-0.463,0.304-0.791c0-0.784-0.6-1.256-1.583-1.256S82.237,44.952,82.237,45.727z
		 M82.477,42.777c0,0.711,0.512,1.143,1.352,1.143s1.344-0.432,1.344-1.143c0-0.672-0.527-1.096-1.352-1.096
		C83.005,41.681,82.477,42.113,82.477,42.777z"/>
	<path fill="#231815" d="M87.805,46.558v0.792h-0.791v-0.792H87.805z"/>
	<path fill="#231815" d="M93.107,41.817c-0.145,0.112-0.28,0.288-0.592,0.768c-0.721,1.111-1.056,1.791-1.367,2.767
		c-0.209,0.664-0.297,1.071-0.424,1.999h-0.76c0.256-1.447,0.472-2.167,0.967-3.19c0.385-0.8,0.729-1.352,1.439-2.318h-2.598
		c-0.377,0-0.6,0.016-0.904,0.056v-0.68c0.313,0.04,0.527,0.056,0.912,0.056h2.398c0.472,0,0.647-0.008,0.928-0.04V41.817z"/>
	<path fill="#231815" d="M97.891,44.511c0.4,0.296,0.6,0.72,0.6,1.256c0,1.095-0.799,1.711-2.207,1.711
		c-1.463,0-2.27-0.607-2.27-1.711c0-0.576,0.231-1.016,0.711-1.327c0.248-0.16,0.424-0.225,0.72-0.272
		c-0.704-0.128-1.159-0.695-1.159-1.438c0-0.968,0.76-1.584,1.967-1.584c1.223,0,1.975,0.6,1.975,1.584
		c0,0.743-0.447,1.303-1.159,1.438C97.403,44.215,97.627,44.312,97.891,44.511z M94.669,45.727c0,0.76,0.583,1.207,1.575,1.207
		c0.56,0,1.016-0.144,1.287-0.416c0.199-0.184,0.304-0.463,0.304-0.791c0-0.784-0.6-1.256-1.583-1.256S94.669,44.952,94.669,45.727z
		 M94.908,42.777c0,0.711,0.512,1.143,1.352,1.143s1.344-0.432,1.344-1.143c0-0.672-0.527-1.096-1.352-1.096
		C95.437,41.681,94.908,42.113,94.908,42.777z"/>
	<path fill="#231815" d="M79.922,59.35c-0.504,0-0.624,0.008-0.88,0.04c0.088-0.632,0.112-0.752,0.231-1.056
		c0.2-0.504,0.536-0.943,1.04-1.375c0.28-0.24,0.296-0.248,1.224-0.88c0.791-0.535,1.055-0.888,1.055-1.375
		c0-0.607-0.512-0.999-1.327-0.999c-0.527,0-0.919,0.176-1.159,0.52c-0.152,0.216-0.225,0.407-0.279,0.808l-0.672-0.112
		c0.119-0.576,0.24-0.855,0.504-1.151c0.359-0.408,0.902-0.615,1.606-0.615c1.208,0,1.983,0.607,1.983,1.551
		c0,0.407-0.16,0.792-0.473,1.136c-0.239,0.271-0.447,0.424-1.359,1.031c-0.631,0.424-0.887,0.647-1.15,0.983
		c-0.248,0.327-0.359,0.544-0.456,0.928h2.551c0.399,0,0.671-0.017,0.976-0.057v0.672c-0.32-0.032-0.584-0.048-0.984-0.048H79.922z"
		/>
	<path fill="#231815" d="M85.178,58.558v0.792h-0.792v-0.792H85.178z"/>
	<path fill="#231815" d="M86.905,58.902c-0.216-0.216-0.384-0.464-0.479-0.735c-0.199-0.56-0.304-1.191-0.304-1.847
		c0-0.848,0.184-1.711,0.464-2.175c0.383-0.647,0.999-0.983,1.791-0.983c0.592,0,1.104,0.191,1.463,0.567
		c0.225,0.224,0.384,0.472,0.48,0.735c0.199,0.552,0.303,1.191,0.303,1.855c0,0.968-0.207,1.823-0.559,2.311
		c-0.4,0.56-0.961,0.84-1.695,0.84C87.777,59.47,87.281,59.278,86.905,58.902z M87.369,54.121c-0.168,0.185-0.296,0.384-0.359,0.584
		c-0.168,0.487-0.248,1.031-0.248,1.615c0,0.743,0.16,1.527,0.375,1.902c0.28,0.464,0.696,0.696,1.24,0.696
		c0.399,0,0.743-0.128,0.982-0.376c0.177-0.184,0.305-0.392,0.377-0.624c0.168-0.495,0.248-1.023,0.248-1.615
		c0-0.695-0.152-1.486-0.36-1.862c-0.265-0.479-0.696-0.728-1.255-0.728C87.953,53.713,87.625,53.849,87.369,54.121z"/>
	<path fill="#231815" d="M92.161,58.902c-0.216-0.216-0.384-0.464-0.479-0.735c-0.199-0.56-0.304-1.191-0.304-1.847
		c0-0.848,0.184-1.711,0.464-2.175c0.383-0.647,0.999-0.983,1.791-0.983c0.592,0,1.104,0.191,1.463,0.567
		c0.225,0.224,0.384,0.472,0.48,0.735c0.199,0.552,0.303,1.191,0.303,1.855c0,0.968-0.207,1.823-0.559,2.311
		c-0.4,0.56-0.961,0.84-1.695,0.84C93.033,59.47,92.537,59.278,92.161,58.902z M92.625,54.121c-0.168,0.185-0.296,0.384-0.359,0.584
		c-0.168,0.487-0.248,1.031-0.248,1.615c0,0.743,0.16,1.527,0.375,1.902c0.28,0.464,0.696,0.696,1.24,0.696
		c0.399,0,0.743-0.128,0.982-0.376c0.177-0.184,0.305-0.392,0.377-0.624c0.168-0.495,0.248-1.023,0.248-1.615
		c0-0.695-0.152-1.486-0.36-1.862c-0.265-0.479-0.696-0.728-1.255-0.728C93.209,53.713,92.881,53.849,92.625,54.121z"/>
	<path fill="#231815" d="M77.229,65.233c0.209,0.032,0.36,0.04,0.664,0.04h0.504c0.271,0,0.4-0.008,0.664-0.04
		c-0.049,0.488-0.072,0.896-0.072,1.328v3.886c0,0.376,0.016,0.607,0.064,0.903h-0.76c0.047-0.28,0.063-0.536,0.063-0.903v-4.63
		h-0.432c-0.256,0-0.464,0.016-0.696,0.048V65.233z"/>
	<path fill="#231815" d="M82.229,69.871c0.129,0.416,0.24,0.584,0.488,0.76c0.271,0.192,0.623,0.288,1.031,0.288
		c0.928,0,1.512-0.48,1.512-1.239c0-0.792-0.568-1.224-1.631-1.224c-0.225,0-0.424,0.016-0.641,0.04v-0.632
		c0.185,0.032,0.377,0.048,0.592,0.048c0.527,0,0.92-0.12,1.168-0.367c0.199-0.192,0.32-0.488,0.32-0.776
		c0-0.688-0.48-1.087-1.288-1.087c-0.487,0-0.839,0.136-1.063,0.424c-0.111,0.144-0.168,0.271-0.256,0.567l-0.664-0.144
		c0.137-0.408,0.232-0.592,0.432-0.8c0.353-0.384,0.896-0.584,1.592-0.584c1.159,0,1.895,0.608,1.895,1.567
		c0,0.488-0.207,0.92-0.559,1.167c-0.209,0.152-0.385,0.217-0.752,0.288c0.463,0.048,0.711,0.136,0.982,0.344
		c0.353,0.272,0.537,0.696,0.537,1.208c0,1.079-0.832,1.751-2.168,1.751c-0.807,0-1.406-0.225-1.791-0.656
		c-0.168-0.191-0.264-0.367-0.407-0.775L82.229,69.871z"/>
	<path fill="#231815" d="M87.805,70.558v0.792h-0.791v-0.792H87.805z"/>
	<path fill="#231815" d="M92.635,68.511c0.4,0.296,0.6,0.72,0.6,1.256c0,1.095-0.799,1.711-2.207,1.711
		c-1.463,0-2.27-0.607-2.27-1.711c0-0.576,0.231-1.016,0.711-1.327c0.248-0.16,0.424-0.225,0.72-0.272
		c-0.704-0.128-1.159-0.695-1.159-1.438c0-0.968,0.76-1.584,1.967-1.584c1.223,0,1.975,0.6,1.975,1.584
		c0,0.743-0.447,1.303-1.159,1.438C92.147,68.215,92.371,68.312,92.635,68.511z M89.413,69.727c0,0.76,0.583,1.207,1.575,1.207
		c0.56,0,1.016-0.144,1.287-0.416c0.199-0.184,0.304-0.463,0.304-0.791c0-0.784-0.6-1.256-1.583-1.256S89.413,68.952,89.413,69.727z
		 M89.652,66.777c0,0.711,0.512,1.143,1.352,1.143s1.344-0.432,1.344-1.143c0-0.672-0.527-1.096-1.352-1.096
		C90.181,65.681,89.652,66.113,89.652,66.777z"/>
	<path fill="#231815" d="M98.363,65.817c-0.145,0.112-0.28,0.288-0.592,0.768c-0.721,1.111-1.056,1.791-1.367,2.767
		c-0.209,0.664-0.297,1.071-0.424,1.999h-0.76c0.256-1.447,0.472-2.167,0.967-3.19c0.385-0.8,0.729-1.352,1.439-2.318h-2.598
		c-0.377,0-0.6,0.016-0.904,0.056v-0.68c0.313,0.04,0.527,0.056,0.912,0.056h2.398c0.472,0,0.647-0.008,0.928-0.04V65.817z"/>
	<path fill="#231815" d="M77.293,83.35c-0.504,0-0.623,0.008-0.879,0.04c0.088-0.632,0.111-0.752,0.231-1.056
		c0.2-0.504,0.536-0.943,1.04-1.375c0.279-0.24,0.295-0.248,1.223-0.88c0.791-0.535,1.056-0.888,1.056-1.375
		c0-0.607-0.512-0.999-1.327-0.999c-0.527,0-0.92,0.176-1.16,0.52c-0.151,0.216-0.223,0.407-0.279,0.808l-0.672-0.112
		c0.12-0.576,0.24-0.855,0.504-1.151c0.359-0.408,0.903-0.615,1.607-0.615c1.207,0,1.982,0.607,1.982,1.551
		c0,0.407-0.16,0.792-0.472,1.136c-0.239,0.271-0.448,0.424-1.358,1.031c-0.633,0.424-0.889,0.647-1.152,0.983
		c-0.248,0.327-0.359,0.544-0.455,0.928h2.551c0.398,0,0.671-0.017,0.975-0.057v0.672c-0.32-0.032-0.584-0.048-0.983-0.048H77.293z"
		/>
	<path fill="#231815" d="M82.605,79.592c-0.017,0.144-0.017,0.144-0.064,0.359c0.384-0.367,0.848-0.552,1.399-0.552
		c0.583,0,1.079,0.192,1.438,0.544c0.36,0.344,0.536,0.815,0.536,1.407c0,1.287-0.839,2.11-2.159,2.11
		c-0.623,0-1.143-0.184-1.527-0.543c-0.199-0.2-0.311-0.368-0.503-0.752l0.655-0.191c0.08,0.224,0.137,0.327,0.256,0.463
		c0.271,0.305,0.672,0.473,1.136,0.473c0.896,0,1.495-0.608,1.495-1.527c0-0.88-0.552-1.455-1.399-1.455
		c-0.407,0-0.759,0.111-1.048,0.336c-0.191,0.151-0.279,0.264-0.367,0.479l-0.6-0.057c0.064-0.312,0.088-0.479,0.119-0.823
		l0.177-1.807c0.016-0.232,0.024-0.328,0.024-0.48c0-0.111,0-0.144-0.017-0.344c0.248,0.032,0.376,0.04,0.848,0.04h1.647
		c0.432,0,0.615-0.016,0.936-0.063v0.68c-0.305-0.048-0.561-0.064-0.936-0.064h-1.879L82.605,79.592z"/>
	<path fill="#231815" d="M87.805,82.558v0.792h-0.791v-0.792H87.805z"/>
	<path fill="#231815" d="M89.66,77.233c0.209,0.032,0.36,0.04,0.664,0.04h0.504c0.271,0,0.4-0.008,0.664-0.04
		c-0.049,0.488-0.072,0.896-0.072,1.328v3.886c0,0.376,0.016,0.607,0.064,0.903h-0.76c0.047-0.28,0.063-0.536,0.063-0.903v-4.63
		h-0.432c-0.256,0-0.464,0.016-0.696,0.048V77.233z"/>
	<path fill="#231815" d="M94.916,77.233c0.209,0.032,0.36,0.04,0.664,0.04h0.504c0.271,0,0.4-0.008,0.664-0.04
		c-0.049,0.488-0.072,0.896-0.072,1.328v3.886c0,0.376,0.016,0.607,0.064,0.903h-0.76c0.047-0.28,0.063-0.536,0.063-0.903v-4.63
		h-0.432c-0.256,0-0.464,0.016-0.696,0.048V77.233z"/>
</g>
<g>
	<path fill="#231815" d="M8.021,30.354c-0.344,0.703-0.646,1.184-1.095,1.711c-0.159-0.16-0.256-0.231-0.456-0.336
		c0.641-0.688,1.096-1.463,1.432-2.454c0.119-0.344,0.168-0.528,0.176-0.752l0.6,0.16c-0.056,0.111-0.096,0.231-0.16,0.424
		c-0.023,0.071-0.119,0.336-0.287,0.775h1.679v-0.848c0-0.319-0.017-0.552-0.056-0.848h0.647c-0.04,0.264-0.056,0.512-0.056,0.848
		v0.848h1.967c0.359,0,0.639-0.016,0.911-0.048v0.567c-0.296-0.032-0.552-0.048-0.903-0.048h-1.975v1.719h1.615
		c0.399,0,0.646-0.016,0.855-0.048v0.56c-0.232-0.031-0.48-0.048-0.855-0.048h-1.615v2.095h2.23c0.408,0,0.672-0.016,0.943-0.056
		v0.584c-0.304-0.04-0.543-0.057-0.936-0.057H7.543c-0.385,0-0.656,0.017-0.943,0.057v-0.584c0.279,0.04,0.535,0.056,0.936,0.056
		h2.374v-2.095H8.445c-0.367,0-0.623,0.017-0.847,0.048v-0.56c0.216,0.032,0.448,0.048,0.847,0.048h1.464v-1.719H8.021z"/>
	<path fill="#231815" d="M17.917,28.683c0-0.185-0.016-0.352-0.048-0.544h0.615c-0.031,0.176-0.047,0.352-0.047,0.544v0.176h2.135
		c0.407,0,0.646-0.016,0.848-0.048v0.52c-0.256-0.024-0.473-0.032-0.832-0.032h-0.712c-0.168,0.384-0.304,0.664-0.472,0.96h1.191
		c0.464,0,0.703-0.008,0.928-0.048v0.527c-0.232-0.032-0.473-0.04-0.928-0.04h-4.989c-0.008,2.574-0.224,3.67-0.896,4.646
		c-0.145-0.2-0.199-0.264-0.392-0.408c0.28-0.399,0.432-0.743,0.544-1.199c0.151-0.583,0.239-1.519,0.239-2.479
		c0-0.424-0.008-0.815-0.032-1.047c0.297,0.04,0.52,0.048,0.92,0.048h0.903c-0.104-0.352-0.216-0.624-0.384-0.96h-0.719
		c-0.344,0-0.545,0.008-0.784,0.032v-0.52c0.185,0.032,0.415,0.048,0.8,0.048h2.11V28.683z M16.854,32.112
		c-0.231,0.456-0.455,0.784-0.823,1.224c-0.144-0.16-0.224-0.224-0.392-0.328c0.432-0.439,0.647-0.743,0.887-1.271
		c0.152-0.319,0.232-0.543,0.289-0.831l0.52,0.12c-0.057,0.12-0.145,0.336-0.28,0.647h1.247v-0.16c0-0.288-0.008-0.432-0.039-0.615
		h0.566c-0.031,0.191-0.039,0.327-0.039,0.615v0.16h1.591c0.399,0,0.607-0.016,0.792-0.048v0.52
		c-0.217-0.024-0.456-0.032-0.792-0.032h-1.591v0.976h1.326c0.36,0,0.537-0.008,0.729-0.04v0.504
		c-0.232-0.024-0.408-0.032-0.729-0.032h-1.326v1.168h2.063c0.352,0,0.568-0.009,0.744-0.04v0.535
		c-0.225-0.032-0.457-0.048-0.752-0.048h-4.558c-0.28,0-0.504,0.016-0.735,0.048v-0.535c0.191,0.031,0.399,0.04,0.727,0.04h2.023
		V33.52h-0.983c-0.304,0-0.528,0.008-0.743,0.032v-0.496c0.176,0.024,0.367,0.032,0.743,0.032h0.983v-0.976H16.854z M18.885,30.258
		c0.224-0.408,0.312-0.6,0.447-0.96h-2.295c0.152,0.313,0.248,0.544,0.385,0.96H18.885z"/>
	<path fill="#231815" d="M7.758,64.771c0-0.208-0.016-0.392-0.047-0.607h0.52c-0.032,0.208-0.049,0.384-0.049,0.607v0.256h0.512
		c0.32,0,0.448-0.008,0.648-0.04v0.487c-0.208-0.023-0.336-0.031-0.641-0.031H8.174v0.703h0.328c0.4,0,0.535-0.008,0.711-0.023
		L9.205,66.17c0.328-0.176,0.576-0.353,0.855-0.6c0.512-0.448,0.801-0.808,1.04-1.304h0.487c0.496,0.783,1.24,1.399,2.207,1.815
		c-0.128,0.136-0.207,0.256-0.312,0.432c-0.88-0.48-1.615-1.096-2.119-1.799c-0.439,0.711-1.056,1.318-1.847,1.839
		c-0.096-0.16-0.176-0.256-0.313-0.376c-0.016,0.144-0.016,0.279-0.016,0.68v1.335c0,0.448,0.008,0.592,0.023,0.768
		c-0.063-0.008-0.063-0.008-0.199-0.016c-0.048,0-0.352-0.008-0.535-0.008H8.182v0.735h0.512c0.297,0,0.456-0.008,0.641-0.04v0.495
		c-0.192-0.031-0.36-0.039-0.641-0.039H8.182v0.607c0,0.312,0.017,0.52,0.049,0.751h-0.52c0.031-0.207,0.047-0.392,0.047-0.759v-0.6
		H7.127c-0.296,0-0.464,0.008-0.664,0.039v-0.495c0.191,0.032,0.359,0.04,0.664,0.04h0.631v-0.735H7.479
		c-0.271,0-0.543,0.008-0.768,0.031c0.023-0.191,0.031-0.424,0.031-0.791V66.89c0-0.376-0.008-0.584-0.031-0.776
		c0.24,0.024,0.464,0.032,0.744,0.032h0.303v-0.703H7.175c-0.296,0-0.464,0.008-0.655,0.04v-0.496
		c0.191,0.032,0.344,0.04,0.655,0.04h0.583V64.771z M7.143,66.537v0.792h0.615v-0.792H7.143z M7.143,67.697v0.847h0.615v-0.847
		H7.143z M8.789,67.329v-0.792H8.174v0.792H8.789z M8.789,68.544v-0.847H8.174v0.847H8.789z M10.045,70.688
		c0,0.271,0.016,0.52,0.04,0.728H9.582c0.023-0.232,0.039-0.472,0.039-0.736v-2.902c0-0.296-0.008-0.512-0.023-0.743
		c0.16,0.023,0.319,0.032,0.631,0.032h0.561c0.312,0,0.471-0.009,0.639-0.032c-0.016,0.191-0.023,0.416-0.023,0.752v3.038
		c0,0.256-0.048,0.359-0.199,0.439c-0.097,0.04-0.185,0.056-0.416,0.056c-0.12,0-0.192,0-0.344-0.008
		c-0.008-0.176-0.032-0.296-0.096-0.464c0.176,0.04,0.344,0.057,0.479,0.057c0.112,0,0.152-0.04,0.152-0.16v-0.991h-0.936V70.688z
		 M10.98,68.225v-0.768h-0.936v0.768H10.98z M10.98,69.368v-0.76h-0.936v0.76H10.98z M10.333,65.978
		c0.168,0.024,0.327,0.032,0.607,0.032h1.008c0.288,0,0.423-0.008,0.6-0.032v0.488c-0.177-0.024-0.336-0.032-0.6-0.032H10.94
		c-0.271,0-0.432,0.008-0.607,0.032V65.978z M12.428,67.097c-0.031,0.185-0.04,0.353-0.04,0.608v1.639
		c0,0.271,0.017,0.504,0.04,0.695H11.9c0.023-0.191,0.039-0.432,0.039-0.688v-1.639c0-0.256-0.008-0.432-0.039-0.616H12.428z
		 M13.428,70.688c0,0.512-0.137,0.64-0.672,0.64c-0.168,0-0.368-0.009-0.568-0.032c-0.008-0.184-0.031-0.312-0.096-0.496
		c0.256,0.057,0.464,0.08,0.656,0.08c0.199,0,0.248-0.048,0.248-0.248v-2.974c0-0.32-0.017-0.552-0.049-0.792h0.527
		c-0.031,0.256-0.047,0.472-0.047,0.792V70.688z"/>
	<path fill="#231815" d="M17.75,64.946c0-0.359-0.017-0.544-0.057-0.728h0.647c-0.04,0.224-0.056,0.392-0.056,0.728v2.022h2.103
		v-1.511c0-0.224-0.008-0.399-0.032-0.584h0.6c-0.031,0.232-0.039,0.384-0.039,0.608v1.591c0,0.16,0.008,0.271,0.016,0.407
		c-0.16-0.008-0.344-0.016-0.496-0.016h-2.15v2.927h2.383v-1.52c0-0.288-0.008-0.487-0.041-0.688h0.608
		c-0.032,0.208-0.04,0.399-0.04,0.712v1.807c0,0.288,0.016,0.464,0.048,0.672h-0.575v-0.48h-5.197v0.48h-0.576
		c0.032-0.2,0.049-0.416,0.049-0.672v-1.759c0-0.304-0.008-0.512-0.041-0.712h0.607c-0.031,0.2-0.039,0.376-0.039,0.68v1.479h2.279
		v-2.927h-2c-0.144,0-0.328,0.008-0.496,0.016c0.009-0.151,0.017-0.271,0.017-0.407V65.49c0-0.2-0.017-0.392-0.04-0.616h0.6
		c-0.023,0.168-0.031,0.344-0.031,0.592v1.503h1.951V64.946z"/>
</g>
<g>
	<path fill="#231815" d="M46.372,6.103c0-0.176-0.008-0.312-0.024-0.472c0.168,0.016,0.344,0.023,0.568,0.023h1.734V4.352h-1.879
		c-0.407,0.68-0.791,1.151-1.326,1.631c-0.129-0.184-0.209-0.264-0.385-0.384c0.792-0.672,1.224-1.255,1.6-2.15
		c0.104-0.232,0.16-0.416,0.199-0.584l0.568,0.16c-0.032,0.063-0.057,0.12-0.104,0.216L47.02,3.888h3.966
		c0.353,0,0.521-0.008,0.72-0.04v0.544c-0.199-0.032-0.392-0.04-0.72-0.04h-1.807v1.303h1.446c0.328,0,0.504-0.008,0.713-0.04v0.528
		c-0.209-0.024-0.4-0.032-0.704-0.032h-1.455v1.567h2.015c0.359,0,0.584-0.017,0.808-0.048v0.575
		c-0.231-0.032-0.479-0.048-0.808-0.048h-2.015v1.319c0,0.344,0.016,0.536,0.056,0.743h-0.631c0.039-0.199,0.047-0.375,0.047-0.743
		V8.157h-2.887c-0.327,0-0.574,0.016-0.807,0.048V7.63c0.232,0.031,0.455,0.048,0.807,0.048h0.608V6.103z M48.65,7.678V6.11h-1.759
		v1.567H48.65z"/>
	<path fill="#231815" d="M31.721,17.324c0.182,0.028,0.315,0.035,0.582,0.035h0.441c0.237,0,0.35-0.007,0.58-0.035
		c-0.041,0.428-0.063,0.785-0.063,1.163v3.404c0,0.329,0.014,0.532,0.057,0.791h-0.666c0.042-0.245,0.057-0.47,0.057-0.791v-4.056
		H32.33c-0.225,0-0.406,0.014-0.609,0.042V17.324z"/>
	<path fill="#231815" d="M36.223,21.52c0.084,0.231,0.139,0.33,0.252,0.448c0.195,0.218,0.496,0.33,0.882,0.33
		c0.505,0,0.868-0.203,1.128-0.645c0.133-0.225,0.245-0.567,0.301-0.896c0.028-0.176,0.049-0.463,0.063-0.819
		c-0.098,0.188-0.153,0.259-0.279,0.392c-0.357,0.336-0.75,0.49-1.275,0.49c-0.518,0-0.959-0.161-1.26-0.462
		c-0.302-0.301-0.477-0.764-0.477-1.261c0-1.113,0.75-1.842,1.898-1.842c0.784,0,1.428,0.448,1.694,1.177
		c0.14,0.378,0.203,0.854,0.203,1.456c0,0.974-0.203,1.766-0.581,2.234c-0.351,0.441-0.813,0.651-1.457,0.651
		c-0.483,0-0.875-0.126-1.177-0.378c-0.196-0.161-0.308-0.322-0.49-0.693L36.223,21.52z M38.715,19.055
		c0-0.757-0.561-1.324-1.309-1.324c-0.463,0-0.883,0.225-1.114,0.596c-0.112,0.183-0.183,0.462-0.183,0.735
		c0,0.792,0.484,1.289,1.247,1.289C38.134,20.351,38.715,19.797,38.715,19.055z"/>
	<path fill="#231815" d="M40.919,17.324c0.183,0.028,0.315,0.035,0.581,0.035h0.441c0.238,0,0.351-0.007,0.582-0.035
		c-0.043,0.428-0.063,0.785-0.063,1.163v3.404c0,0.329,0.015,0.532,0.056,0.791h-0.665c0.042-0.245,0.056-0.47,0.056-0.791v-4.056
		h-0.378c-0.224,0-0.406,0.014-0.609,0.042V17.324z"/>
	<path fill="#231815" d="M45.406,22.29c-0.189-0.188-0.336-0.406-0.42-0.644c-0.176-0.49-0.267-1.044-0.267-1.618
		c0-0.742,0.161-1.499,0.406-1.905c0.337-0.567,0.876-0.861,1.569-0.861c0.518,0,0.967,0.168,1.281,0.497
		c0.196,0.196,0.336,0.413,0.42,0.645c0.176,0.483,0.267,1.044,0.267,1.625c0,0.848-0.183,1.597-0.49,2.024
		c-0.351,0.49-0.841,0.735-1.485,0.735C46.17,22.788,45.735,22.619,45.406,22.29z M45.813,18.103
		c-0.146,0.161-0.26,0.336-0.315,0.511c-0.147,0.428-0.217,0.903-0.217,1.415c0,0.651,0.14,1.338,0.329,1.667
		c0.245,0.406,0.609,0.609,1.086,0.609c0.35,0,0.65-0.112,0.861-0.329c0.154-0.161,0.266-0.344,0.329-0.547
		c0.147-0.434,0.217-0.896,0.217-1.415c0-0.608-0.133-1.302-0.315-1.632c-0.23-0.42-0.609-0.637-1.1-0.637
		C46.324,17.745,46.037,17.864,45.813,18.103z"/>
	<path fill="#231815" d="M50.148,20.049c0.623-0.609,1.058-0.826,1.688-0.826c0.316,0,0.596,0.063,0.876,0.203
		c0.183,0.091,0.273,0.147,0.659,0.42c0.588,0.421,0.945,0.574,1.344,0.574c0.196,0,0.393-0.042,0.561-0.118
		c0.301-0.127,0.498-0.295,0.799-0.68l0.363,0.315c-0.336,0.392-0.525,0.56-0.805,0.721c-0.266,0.154-0.603,0.238-0.925,0.238
		c-0.217,0-0.448-0.042-0.665-0.112c-0.295-0.104-0.519-0.23-0.974-0.567c-0.554-0.413-0.833-0.532-1.261-0.532
		c-0.266,0-0.49,0.057-0.721,0.183c-0.197,0.112-0.33,0.224-0.589,0.49L50.148,20.049z"/>
	<path fill="#231815" d="M58.355,21.387c0.111,0.364,0.21,0.512,0.427,0.666c0.238,0.168,0.546,0.252,0.903,0.252
		c0.813,0,1.324-0.421,1.324-1.086c0-0.693-0.498-1.071-1.43-1.071c-0.195,0-0.371,0.014-0.56,0.035v-0.554
		c0.161,0.028,0.329,0.042,0.519,0.042c0.462,0,0.805-0.105,1.022-0.322c0.175-0.168,0.28-0.427,0.28-0.68
		c0-0.602-0.42-0.952-1.128-0.952c-0.427,0-0.735,0.119-0.932,0.371c-0.099,0.126-0.147,0.238-0.224,0.497l-0.582-0.126
		c0.119-0.356,0.203-0.518,0.379-0.7c0.308-0.336,0.784-0.511,1.394-0.511c1.016,0,1.659,0.532,1.659,1.372
		c0,0.428-0.182,0.806-0.49,1.022c-0.182,0.134-0.336,0.189-0.658,0.253c0.406,0.042,0.623,0.118,0.861,0.301
		c0.309,0.238,0.47,0.609,0.47,1.058c0,0.945-0.729,1.534-1.897,1.534c-0.708,0-1.232-0.196-1.569-0.575
		c-0.147-0.168-0.231-0.321-0.357-0.679L58.355,21.387z"/>
	<path fill="#231815" d="M62.746,21.387c0.112,0.364,0.211,0.512,0.428,0.666c0.238,0.168,0.546,0.252,0.903,0.252
		c0.813,0,1.323-0.421,1.323-1.086c0-0.693-0.497-1.071-1.428-1.071c-0.197,0-0.372,0.014-0.561,0.035v-0.554
		c0.16,0.028,0.328,0.042,0.518,0.042c0.463,0,0.806-0.105,1.023-0.322c0.174-0.168,0.279-0.427,0.279-0.68
		c0-0.602-0.42-0.952-1.127-0.952c-0.428,0-0.736,0.119-0.932,0.371c-0.098,0.126-0.147,0.238-0.225,0.497l-0.581-0.126
		c0.119-0.356,0.203-0.518,0.378-0.7c0.309-0.336,0.785-0.511,1.395-0.511c1.016,0,1.659,0.532,1.659,1.372
		c0,0.428-0.183,0.806-0.49,1.022c-0.183,0.134-0.336,0.189-0.658,0.253c0.406,0.042,0.623,0.118,0.861,0.301
		c0.308,0.238,0.47,0.609,0.47,1.058c0,0.945-0.729,1.534-1.898,1.534c-0.707,0-1.232-0.196-1.568-0.575
		c-0.147-0.168-0.231-0.321-0.357-0.679L62.746,21.387z"/>
	<path fill="#231815" d="M31.734,29.324c0.183,0.028,0.316,0.035,0.582,0.035h0.441c0.238,0,0.35-0.007,0.581-0.035
		c-0.042,0.428-0.063,0.785-0.063,1.163v3.404c0,0.329,0.015,0.532,0.057,0.791h-0.666c0.043-0.245,0.057-0.47,0.057-0.791v-4.056
		h-0.379c-0.224,0-0.406,0.014-0.609,0.042V29.324z"/>
	<path fill="#231815" d="M36.236,33.52c0.084,0.231,0.14,0.33,0.252,0.448c0.196,0.218,0.497,0.33,0.883,0.33
		c0.504,0,0.868-0.203,1.127-0.645c0.133-0.225,0.246-0.567,0.301-0.896c0.029-0.176,0.05-0.463,0.063-0.819
		c-0.098,0.188-0.153,0.259-0.28,0.392c-0.357,0.336-0.749,0.49-1.274,0.49c-0.519,0-0.96-0.161-1.261-0.462
		s-0.477-0.764-0.477-1.261c0-1.113,0.75-1.842,1.898-1.842c0.785,0,1.429,0.448,1.695,1.177c0.14,0.378,0.203,0.854,0.203,1.456
		c0,0.974-0.203,1.766-0.582,2.234c-0.35,0.441-0.813,0.651-1.457,0.651c-0.482,0-0.875-0.126-1.176-0.378
		c-0.196-0.161-0.309-0.322-0.49-0.693L36.236,33.52z M38.729,31.055c0-0.757-0.561-1.324-1.31-1.324
		c-0.463,0-0.883,0.225-1.113,0.596c-0.113,0.183-0.183,0.462-0.183,0.735c0,0.792,0.483,1.289,1.247,1.289
		C38.148,32.351,38.729,31.797,38.729,31.055z"/>
	<path fill="#231815" d="M40.989,34.683c-0.441,0-0.546,0.007-0.771,0.035c0.077-0.554,0.098-0.658,0.203-0.925
		c0.176-0.441,0.469-0.826,0.91-1.204c0.246-0.211,0.26-0.218,1.072-0.771c0.693-0.47,0.924-0.777,0.924-1.205
		c0-0.532-0.447-0.875-1.162-0.875c-0.463,0-0.806,0.153-1.016,0.455c-0.133,0.188-0.196,0.357-0.245,0.707l-0.589-0.098
		c0.105-0.505,0.211-0.75,0.441-1.009c0.315-0.357,0.792-0.539,1.408-0.539c1.058,0,1.736,0.532,1.736,1.358
		c0,0.357-0.14,0.693-0.412,0.995c-0.211,0.237-0.393,0.371-1.191,0.903c-0.553,0.371-0.777,0.567-1.008,0.861
		c-0.218,0.287-0.316,0.477-0.4,0.813h2.234c0.351,0,0.589-0.015,0.855-0.049v0.588c-0.281-0.028-0.512-0.042-0.861-0.042H40.989z"
		/>
	<path fill="#231815" d="M47.921,30.522c-0.091-0.225-0.14-0.322-0.245-0.441c-0.211-0.231-0.483-0.351-0.834-0.351
		c-0.546,0-0.959,0.295-1.211,0.869c-0.183,0.42-0.246,0.742-0.295,1.506c0.127-0.218,0.196-0.315,0.351-0.448
		c0.329-0.294,0.7-0.428,1.184-0.428c1.085,0,1.758,0.673,1.758,1.751c0,1.086-0.728,1.8-1.835,1.8c-0.497,0-0.967-0.161-1.268-0.44
		c-0.455-0.421-0.707-1.205-0.707-2.199c0-0.876,0.195-1.66,0.531-2.115c0.372-0.505,0.869-0.764,1.479-0.764
		c0.42,0,0.799,0.105,1.064,0.294c0.245,0.175,0.385,0.364,0.588,0.784L47.921,30.522z M46.793,31.699
		c-0.35,0-0.721,0.154-0.967,0.399c-0.23,0.23-0.35,0.539-0.35,0.889c0,0.757,0.566,1.317,1.324,1.317
		c0.455,0,0.875-0.218,1.092-0.567c0.112-0.183,0.182-0.47,0.182-0.742C48.074,32.168,47.612,31.699,46.793,31.699z"/>
	<path fill="#231815" d="M50.163,32.049c0.623-0.609,1.058-0.826,1.688-0.826c0.315,0,0.596,0.063,0.876,0.203
		c0.182,0.091,0.273,0.147,0.658,0.42c0.588,0.421,0.945,0.574,1.345,0.574c0.196,0,0.392-0.042,0.56-0.118
		c0.302-0.127,0.498-0.295,0.799-0.68l0.364,0.315c-0.336,0.392-0.525,0.56-0.806,0.721c-0.266,0.154-0.602,0.238-0.924,0.238
		c-0.217,0-0.449-0.042-0.666-0.112c-0.294-0.104-0.518-0.23-0.973-0.567c-0.554-0.413-0.834-0.532-1.262-0.532
		c-0.266,0-0.49,0.057-0.721,0.183c-0.196,0.112-0.33,0.224-0.588,0.49L50.163,32.049z"/>
	<path fill="#231815" d="M58.605,34.683c-0.441,0-0.547,0.007-0.771,0.035c0.077-0.554,0.099-0.658,0.203-0.925
		c0.175-0.441,0.47-0.826,0.911-1.204c0.244-0.211,0.259-0.218,1.071-0.771c0.693-0.47,0.925-0.777,0.925-1.205
		c0-0.532-0.449-0.875-1.163-0.875c-0.462,0-0.806,0.153-1.016,0.455c-0.134,0.188-0.196,0.357-0.245,0.707l-0.588-0.098
		c0.104-0.505,0.209-0.75,0.441-1.009c0.314-0.357,0.791-0.539,1.407-0.539c1.058,0,1.737,0.532,1.737,1.358
		c0,0.357-0.141,0.693-0.414,0.995c-0.209,0.237-0.392,0.371-1.19,0.903c-0.554,0.371-0.777,0.567-1.009,0.861
		c-0.217,0.287-0.314,0.477-0.398,0.813h2.234c0.35,0,0.588-0.015,0.854-0.049v0.588c-0.279-0.028-0.511-0.042-0.861-0.042H58.605z"
		/>
	<path fill="#231815" d="M65.562,32.196c0.351,0.259,0.525,0.63,0.525,1.1c0,0.959-0.7,1.499-1.933,1.499
		c-1.282,0-1.99-0.532-1.99-1.499c0-0.504,0.203-0.89,0.624-1.163c0.218-0.14,0.371-0.195,0.63-0.237
		c-0.615-0.112-1.016-0.609-1.016-1.261c0-0.848,0.666-1.387,1.724-1.387c1.071,0,1.729,0.524,1.729,1.387
		c0,0.651-0.393,1.142-1.016,1.261C65.135,31.938,65.33,32.021,65.562,32.196z M62.739,33.261c0,0.665,0.511,1.058,1.38,1.058
		c0.49,0,0.889-0.126,1.127-0.364c0.176-0.161,0.267-0.406,0.267-0.693c0-0.687-0.525-1.1-1.387-1.1
		C63.264,32.161,62.739,32.581,62.739,33.261z M62.949,30.677c0,0.623,0.448,1.001,1.184,1.001s1.177-0.378,1.177-1.001
		c0-0.589-0.462-0.96-1.184-0.96C63.412,29.717,62.949,30.095,62.949,30.677z"/>
	<path fill="#231815" d="M31.721,41.324c0.182,0.028,0.315,0.035,0.582,0.035h0.441c0.237,0,0.35-0.007,0.58-0.035
		c-0.041,0.428-0.063,0.785-0.063,1.163v3.404c0,0.329,0.014,0.532,0.057,0.791h-0.666c0.042-0.245,0.057-0.47,0.057-0.791v-4.056
		H32.33c-0.225,0-0.406,0.014-0.609,0.042V41.324z"/>
	<path fill="#231815" d="M36.223,45.52c0.084,0.231,0.139,0.33,0.252,0.448c0.195,0.218,0.496,0.33,0.882,0.33
		c0.505,0,0.868-0.203,1.128-0.645c0.133-0.225,0.245-0.567,0.301-0.896c0.028-0.176,0.049-0.463,0.063-0.819
		c-0.098,0.188-0.153,0.259-0.279,0.392c-0.357,0.336-0.75,0.49-1.275,0.49c-0.518,0-0.959-0.161-1.26-0.462
		c-0.302-0.301-0.477-0.764-0.477-1.261c0-1.113,0.75-1.842,1.898-1.842c0.784,0,1.428,0.448,1.694,1.177
		c0.14,0.378,0.203,0.854,0.203,1.456c0,0.974-0.203,1.766-0.581,2.234c-0.351,0.441-0.813,0.651-1.457,0.651
		c-0.483,0-0.875-0.126-1.177-0.378c-0.196-0.161-0.308-0.322-0.49-0.693L36.223,45.52z M38.715,43.055
		c0-0.757-0.561-1.324-1.309-1.324c-0.463,0-0.883,0.225-1.114,0.596c-0.112,0.183-0.183,0.462-0.183,0.735
		c0,0.792,0.484,1.289,1.247,1.289C38.134,44.351,38.715,43.797,38.715,43.055z"/>
	<path fill="#231815" d="M40.695,45.387c0.111,0.364,0.21,0.512,0.427,0.666c0.238,0.168,0.546,0.252,0.903,0.252
		c0.813,0,1.324-0.421,1.324-1.086c0-0.693-0.498-1.071-1.43-1.071c-0.195,0-0.371,0.014-0.56,0.035v-0.554
		c0.161,0.028,0.329,0.042,0.519,0.042c0.462,0,0.805-0.105,1.022-0.322c0.175-0.168,0.28-0.427,0.28-0.68
		c0-0.602-0.42-0.952-1.128-0.952c-0.427,0-0.735,0.119-0.932,0.371c-0.099,0.126-0.147,0.238-0.224,0.497l-0.582-0.126
		c0.119-0.356,0.203-0.518,0.379-0.7c0.308-0.336,0.784-0.511,1.394-0.511c1.016,0,1.659,0.532,1.659,1.372
		c0,0.428-0.182,0.806-0.49,1.022c-0.182,0.134-0.336,0.189-0.658,0.253c0.406,0.042,0.623,0.118,0.861,0.301
		c0.309,0.238,0.47,0.609,0.47,1.058c0,0.945-0.729,1.534-1.897,1.534c-0.708,0-1.232-0.196-1.569-0.575
		c-0.147-0.168-0.231-0.321-0.357-0.679L40.695,45.387z"/>
	<path fill="#231815" d="M47.906,42.522c-0.091-0.225-0.14-0.322-0.244-0.441c-0.211-0.231-0.484-0.351-0.834-0.351
		c-0.547,0-0.959,0.295-1.212,0.869c-0.183,0.42-0.245,0.742-0.294,1.506c0.126-0.218,0.195-0.315,0.35-0.448
		c0.33-0.294,0.701-0.428,1.184-0.428c1.086,0,1.758,0.673,1.758,1.751c0,1.086-0.728,1.8-1.834,1.8
		c-0.498,0-0.967-0.161-1.268-0.44c-0.455-0.421-0.708-1.205-0.708-2.199c0-0.876,0.196-1.66,0.532-2.115
		c0.371-0.505,0.869-0.764,1.479-0.764c0.42,0,0.798,0.105,1.064,0.294c0.244,0.175,0.385,0.364,0.588,0.784L47.906,42.522z
		 M46.779,43.699c-0.351,0-0.722,0.154-0.967,0.399c-0.231,0.23-0.35,0.539-0.35,0.889c0,0.757,0.566,1.317,1.323,1.317
		c0.455,0,0.876-0.218,1.093-0.567c0.111-0.183,0.182-0.47,0.182-0.742C48.061,44.168,47.598,43.699,46.779,43.699z"/>
	<path fill="#231815" d="M50.148,44.049c0.623-0.609,1.058-0.826,1.688-0.826c0.316,0,0.596,0.063,0.876,0.203
		c0.183,0.091,0.273,0.147,0.659,0.42c0.588,0.421,0.945,0.574,1.344,0.574c0.196,0,0.393-0.042,0.561-0.118
		c0.301-0.127,0.498-0.295,0.799-0.68l0.363,0.315c-0.336,0.392-0.525,0.56-0.805,0.721c-0.266,0.154-0.603,0.238-0.925,0.238
		c-0.217,0-0.448-0.042-0.665-0.112c-0.295-0.104-0.519-0.23-0.974-0.567c-0.554-0.413-0.833-0.532-1.261-0.532
		c-0.266,0-0.49,0.057-0.721,0.183c-0.197,0.112-0.33,0.224-0.589,0.49L50.148,44.049z"/>
	<path fill="#231815" d="M58.355,45.387c0.111,0.364,0.21,0.512,0.427,0.666c0.238,0.168,0.546,0.252,0.903,0.252
		c0.813,0,1.324-0.421,1.324-1.086c0-0.693-0.498-1.071-1.43-1.071c-0.195,0-0.371,0.014-0.56,0.035v-0.554
		c0.161,0.028,0.329,0.042,0.519,0.042c0.462,0,0.805-0.105,1.022-0.322c0.175-0.168,0.28-0.427,0.28-0.68
		c0-0.602-0.42-0.952-1.128-0.952c-0.427,0-0.735,0.119-0.932,0.371c-0.099,0.126-0.147,0.238-0.224,0.497l-0.582-0.126
		c0.119-0.356,0.203-0.518,0.379-0.7c0.308-0.336,0.784-0.511,1.394-0.511c1.016,0,1.659,0.532,1.659,1.372
		c0,0.428-0.182,0.806-0.49,1.022c-0.182,0.134-0.336,0.189-0.658,0.253c0.406,0.042,0.623,0.118,0.861,0.301
		c0.309,0.238,0.47,0.609,0.47,1.058c0,0.945-0.729,1.534-1.897,1.534c-0.708,0-1.232-0.196-1.569-0.575
		c-0.147-0.168-0.231-0.321-0.357-0.679L58.355,45.387z"/>
	<path fill="#231815" d="M65.576,44.196c0.35,0.259,0.525,0.63,0.525,1.1c0,0.959-0.701,1.499-1.934,1.499
		c-1.281,0-1.988-0.532-1.988-1.499c0-0.504,0.202-0.89,0.623-1.163c0.217-0.14,0.371-0.195,0.63-0.237
		c-0.616-0.112-1.016-0.609-1.016-1.261c0-0.848,0.665-1.387,1.724-1.387c1.07,0,1.729,0.524,1.729,1.387
		c0,0.651-0.393,1.142-1.016,1.261C65.148,43.938,65.345,44.021,65.576,44.196z M62.754,45.261c0,0.665,0.511,1.058,1.379,1.058
		c0.49,0,0.89-0.126,1.128-0.364c0.175-0.161,0.267-0.406,0.267-0.693c0-0.687-0.525-1.1-1.387-1.1
		C63.278,44.161,62.754,44.581,62.754,45.261z M62.963,42.677c0,0.623,0.449,1.001,1.184,1.001c0.736,0,1.178-0.378,1.178-1.001
		c0-0.589-0.463-0.96-1.184-0.96C63.426,41.717,62.963,42.095,62.963,42.677z"/>
	<path fill="#231815" d="M31.721,53.324c0.182,0.028,0.315,0.035,0.582,0.035h0.441c0.237,0,0.35-0.007,0.58-0.035
		c-0.041,0.428-0.063,0.785-0.063,1.163v3.404c0,0.329,0.014,0.532,0.057,0.791h-0.666c0.042-0.245,0.057-0.47,0.057-0.791v-4.056
		H32.33c-0.225,0-0.406,0.014-0.609,0.042V53.324z"/>
	<path fill="#231815" d="M36.223,57.52c0.084,0.231,0.139,0.33,0.252,0.448c0.195,0.218,0.496,0.33,0.882,0.33
		c0.505,0,0.868-0.203,1.128-0.645c0.133-0.225,0.245-0.567,0.301-0.896c0.028-0.176,0.049-0.463,0.063-0.819
		c-0.098,0.188-0.153,0.259-0.279,0.392c-0.357,0.336-0.75,0.49-1.275,0.49c-0.518,0-0.959-0.161-1.26-0.462
		c-0.302-0.301-0.477-0.764-0.477-1.261c0-1.113,0.75-1.842,1.898-1.842c0.784,0,1.428,0.448,1.694,1.177
		c0.14,0.378,0.203,0.854,0.203,1.456c0,0.974-0.203,1.766-0.581,2.234c-0.351,0.441-0.813,0.651-1.457,0.651
		c-0.483,0-0.875-0.126-1.177-0.378c-0.196-0.161-0.308-0.322-0.49-0.693L36.223,57.52z M38.715,55.055
		c0-0.757-0.561-1.324-1.309-1.324c-0.463,0-0.883,0.225-1.114,0.596c-0.112,0.183-0.183,0.462-0.183,0.735
		c0,0.792,0.484,1.289,1.247,1.289C38.134,56.351,38.715,55.797,38.715,55.055z"/>
	<path fill="#231815" d="M40.919,53.324c0.183,0.028,0.315,0.035,0.581,0.035h0.441c0.238,0,0.351-0.007,0.582-0.035
		c-0.043,0.428-0.063,0.785-0.063,1.163v3.404c0,0.329,0.015,0.532,0.056,0.791h-0.665c0.042-0.245,0.056-0.47,0.056-0.791v-4.056
		h-0.378c-0.224,0-0.406,0.014-0.609,0.042V53.324z"/>
	<path fill="#231815" d="M45.406,58.29c-0.189-0.188-0.336-0.406-0.42-0.644c-0.176-0.49-0.267-1.044-0.267-1.618
		c0-0.742,0.161-1.499,0.406-1.905c0.337-0.567,0.876-0.861,1.569-0.861c0.518,0,0.967,0.168,1.281,0.497
		c0.196,0.196,0.336,0.413,0.42,0.645c0.176,0.483,0.267,1.044,0.267,1.625c0,0.848-0.183,1.597-0.49,2.024
		c-0.351,0.49-0.841,0.735-1.485,0.735C46.17,58.788,45.735,58.619,45.406,58.29z M45.813,54.103
		c-0.146,0.161-0.26,0.336-0.315,0.511c-0.147,0.428-0.217,0.903-0.217,1.415c0,0.651,0.14,1.338,0.329,1.667
		c0.245,0.406,0.609,0.609,1.086,0.609c0.35,0,0.65-0.112,0.861-0.329c0.154-0.161,0.266-0.344,0.329-0.547
		c0.147-0.434,0.217-0.896,0.217-1.415c0-0.608-0.133-1.302-0.315-1.632c-0.23-0.42-0.609-0.637-1.1-0.637
		C46.324,53.745,46.037,53.864,45.813,54.103z"/>
	<path fill="#231815" d="M50.148,56.049c0.623-0.609,1.058-0.826,1.688-0.826c0.316,0,0.596,0.063,0.876,0.203
		c0.183,0.091,0.273,0.147,0.659,0.42c0.588,0.421,0.945,0.574,1.344,0.574c0.196,0,0.393-0.042,0.561-0.118
		c0.301-0.127,0.498-0.295,0.799-0.68l0.363,0.315c-0.336,0.392-0.525,0.56-0.805,0.721c-0.266,0.154-0.603,0.238-0.925,0.238
		c-0.217,0-0.448-0.042-0.665-0.112c-0.295-0.104-0.519-0.23-0.974-0.567c-0.554-0.413-0.833-0.532-1.261-0.532
		c-0.266,0-0.49,0.057-0.721,0.183c-0.197,0.112-0.33,0.224-0.589,0.49L50.148,56.049z"/>
	<path fill="#231815" d="M58.355,57.387c0.111,0.364,0.21,0.512,0.427,0.666c0.238,0.168,0.546,0.252,0.903,0.252
		c0.813,0,1.324-0.421,1.324-1.086c0-0.693-0.498-1.071-1.43-1.071c-0.195,0-0.371,0.014-0.56,0.035v-0.554
		c0.161,0.028,0.329,0.042,0.519,0.042c0.462,0,0.805-0.105,1.022-0.322c0.175-0.168,0.28-0.427,0.28-0.68
		c0-0.602-0.42-0.952-1.128-0.952c-0.427,0-0.735,0.119-0.932,0.371c-0.099,0.126-0.147,0.238-0.224,0.497l-0.582-0.126
		c0.119-0.356,0.203-0.518,0.379-0.7c0.308-0.336,0.784-0.511,1.394-0.511c1.016,0,1.659,0.532,1.659,1.372
		c0,0.428-0.182,0.806-0.49,1.022c-0.182,0.134-0.336,0.189-0.658,0.253c0.406,0.042,0.623,0.118,0.861,0.301
		c0.309,0.238,0.47,0.609,0.47,1.058c0,0.945-0.729,1.534-1.897,1.534c-0.708,0-1.232-0.196-1.569-0.575
		c-0.147-0.168-0.231-0.321-0.357-0.679L58.355,57.387z"/>
	<path fill="#231815" d="M62.746,57.387c0.112,0.364,0.211,0.512,0.428,0.666c0.238,0.168,0.546,0.252,0.903,0.252
		c0.813,0,1.323-0.421,1.323-1.086c0-0.693-0.497-1.071-1.428-1.071c-0.197,0-0.372,0.014-0.561,0.035v-0.554
		c0.16,0.028,0.328,0.042,0.518,0.042c0.463,0,0.806-0.105,1.023-0.322c0.174-0.168,0.279-0.427,0.279-0.68
		c0-0.602-0.42-0.952-1.127-0.952c-0.428,0-0.736,0.119-0.932,0.371c-0.098,0.126-0.147,0.238-0.225,0.497l-0.581-0.126
		c0.119-0.356,0.203-0.518,0.378-0.7c0.309-0.336,0.785-0.511,1.395-0.511c1.016,0,1.659,0.532,1.659,1.372
		c0,0.428-0.183,0.806-0.49,1.022c-0.183,0.134-0.336,0.189-0.658,0.253c0.406,0.042,0.623,0.118,0.861,0.301
		c0.308,0.238,0.47,0.609,0.47,1.058c0,0.945-0.729,1.534-1.898,1.534c-0.707,0-1.232-0.196-1.568-0.575
		c-0.147-0.168-0.231-0.321-0.357-0.679L62.746,57.387z"/>
	<path fill="#231815" d="M31.734,65.324c0.183,0.028,0.316,0.035,0.582,0.035h0.441c0.238,0,0.35-0.007,0.581-0.035
		c-0.042,0.428-0.063,0.785-0.063,1.163v3.404c0,0.329,0.015,0.532,0.057,0.791h-0.666c0.043-0.245,0.057-0.47,0.057-0.791v-4.056
		h-0.379c-0.224,0-0.406,0.014-0.609,0.042V65.324z"/>
	<path fill="#231815" d="M36.236,69.52c0.084,0.231,0.14,0.33,0.252,0.448c0.196,0.218,0.497,0.33,0.883,0.33
		c0.504,0,0.868-0.203,1.127-0.645c0.133-0.225,0.246-0.567,0.301-0.896c0.029-0.176,0.05-0.463,0.063-0.819
		c-0.098,0.188-0.153,0.259-0.28,0.392c-0.357,0.336-0.749,0.49-1.274,0.49c-0.519,0-0.96-0.161-1.261-0.462
		s-0.477-0.764-0.477-1.261c0-1.113,0.75-1.842,1.898-1.842c0.785,0,1.429,0.448,1.695,1.177c0.14,0.378,0.203,0.854,0.203,1.456
		c0,0.974-0.203,1.766-0.582,2.234c-0.35,0.441-0.813,0.651-1.457,0.651c-0.482,0-0.875-0.126-1.176-0.378
		c-0.196-0.161-0.309-0.322-0.49-0.693L36.236,69.52z M38.729,67.055c0-0.757-0.561-1.324-1.31-1.324
		c-0.463,0-0.883,0.225-1.113,0.596c-0.113,0.183-0.183,0.462-0.183,0.735c0,0.792,0.483,1.289,1.247,1.289
		C38.148,68.351,38.729,67.797,38.729,67.055z"/>
	<path fill="#231815" d="M40.989,70.683c-0.441,0-0.546,0.007-0.771,0.035c0.077-0.554,0.098-0.658,0.203-0.925
		c0.176-0.441,0.469-0.826,0.91-1.204c0.246-0.211,0.26-0.218,1.072-0.771c0.693-0.47,0.924-0.777,0.924-1.205
		c0-0.532-0.447-0.875-1.162-0.875c-0.463,0-0.806,0.153-1.016,0.455c-0.133,0.188-0.196,0.357-0.245,0.707l-0.589-0.098
		c0.105-0.505,0.211-0.75,0.441-1.009c0.315-0.357,0.792-0.539,1.408-0.539c1.058,0,1.736,0.532,1.736,1.358
		c0,0.357-0.14,0.693-0.412,0.995c-0.211,0.237-0.393,0.371-1.191,0.903c-0.553,0.371-0.777,0.567-1.008,0.861
		c-0.218,0.287-0.316,0.477-0.4,0.813h2.234c0.351,0,0.589-0.015,0.855-0.049v0.588c-0.281-0.028-0.512-0.042-0.861-0.042H40.989z"
		/>
	<path fill="#231815" d="M47.921,66.522c-0.091-0.225-0.14-0.322-0.245-0.441c-0.211-0.231-0.483-0.351-0.834-0.351
		c-0.546,0-0.959,0.295-1.211,0.869c-0.183,0.42-0.246,0.742-0.295,1.506c0.127-0.218,0.196-0.315,0.351-0.448
		c0.329-0.294,0.7-0.428,1.184-0.428c1.085,0,1.758,0.673,1.758,1.751c0,1.086-0.728,1.8-1.835,1.8c-0.497,0-0.967-0.161-1.268-0.44
		c-0.455-0.421-0.707-1.205-0.707-2.199c0-0.876,0.195-1.66,0.531-2.115c0.372-0.505,0.869-0.764,1.479-0.764
		c0.42,0,0.799,0.105,1.064,0.294c0.245,0.175,0.385,0.364,0.588,0.784L47.921,66.522z M46.793,67.699
		c-0.35,0-0.721,0.154-0.967,0.399c-0.23,0.23-0.35,0.539-0.35,0.889c0,0.757,0.566,1.317,1.324,1.317
		c0.455,0,0.875-0.218,1.092-0.567c0.112-0.183,0.182-0.47,0.182-0.742C48.074,68.168,47.612,67.699,46.793,67.699z"/>
	<path fill="#231815" d="M50.163,68.049c0.623-0.609,1.058-0.826,1.688-0.826c0.315,0,0.596,0.063,0.876,0.203
		c0.182,0.091,0.273,0.147,0.658,0.42c0.588,0.421,0.945,0.574,1.345,0.574c0.196,0,0.392-0.042,0.56-0.118
		c0.302-0.127,0.498-0.295,0.799-0.68l0.364,0.315c-0.336,0.392-0.525,0.56-0.806,0.721c-0.266,0.154-0.602,0.238-0.924,0.238
		c-0.217,0-0.449-0.042-0.666-0.112c-0.294-0.104-0.518-0.23-0.973-0.567c-0.554-0.413-0.834-0.532-1.262-0.532
		c-0.266,0-0.49,0.057-0.721,0.183c-0.196,0.112-0.33,0.224-0.588,0.49L50.163,68.049z"/>
	<path fill="#231815" d="M58.605,70.683c-0.441,0-0.547,0.007-0.771,0.035c0.077-0.554,0.099-0.658,0.203-0.925
		c0.175-0.441,0.47-0.826,0.911-1.204c0.244-0.211,0.259-0.218,1.071-0.771c0.693-0.47,0.925-0.777,0.925-1.205
		c0-0.532-0.449-0.875-1.163-0.875c-0.462,0-0.806,0.153-1.016,0.455c-0.134,0.188-0.196,0.357-0.245,0.707l-0.588-0.098
		c0.104-0.505,0.209-0.75,0.441-1.009c0.314-0.357,0.791-0.539,1.407-0.539c1.058,0,1.737,0.532,1.737,1.358
		c0,0.357-0.141,0.693-0.414,0.995c-0.209,0.237-0.392,0.371-1.19,0.903c-0.554,0.371-0.777,0.567-1.009,0.861
		c-0.217,0.287-0.314,0.477-0.398,0.813h2.234c0.35,0,0.588-0.015,0.854-0.049v0.588c-0.279-0.028-0.511-0.042-0.861-0.042H58.605z"
		/>
	<path fill="#231815" d="M65.562,68.196c0.351,0.259,0.525,0.63,0.525,1.1c0,0.959-0.7,1.499-1.933,1.499
		c-1.282,0-1.99-0.532-1.99-1.499c0-0.504,0.203-0.89,0.624-1.163c0.218-0.14,0.371-0.195,0.63-0.237
		c-0.615-0.112-1.016-0.609-1.016-1.261c0-0.848,0.666-1.387,1.724-1.387c1.071,0,1.729,0.524,1.729,1.387
		c0,0.651-0.393,1.142-1.016,1.261C65.135,67.938,65.33,68.021,65.562,68.196z M62.739,69.261c0,0.665,0.511,1.058,1.38,1.058
		c0.49,0,0.889-0.126,1.127-0.364c0.176-0.161,0.267-0.406,0.267-0.693c0-0.687-0.525-1.1-1.387-1.1
		C63.264,68.161,62.739,68.581,62.739,69.261z M62.949,66.677c0,0.623,0.448,1.001,1.184,1.001s1.177-0.378,1.177-1.001
		c0-0.589-0.462-0.96-1.184-0.96C63.412,65.717,62.949,66.095,62.949,66.677z"/>
	<path fill="#231815" d="M31.721,77.324c0.182,0.028,0.315,0.035,0.582,0.035h0.441c0.237,0,0.35-0.007,0.58-0.035
		c-0.041,0.428-0.063,0.785-0.063,1.163v3.404c0,0.329,0.014,0.532,0.057,0.791h-0.666c0.042-0.245,0.057-0.47,0.057-0.791v-4.056
		H32.33c-0.225,0-0.406,0.014-0.609,0.042V77.324z"/>
	<path fill="#231815" d="M36.223,81.52c0.084,0.231,0.139,0.33,0.252,0.448c0.195,0.218,0.496,0.33,0.882,0.33
		c0.505,0,0.868-0.203,1.128-0.645c0.133-0.225,0.245-0.567,0.301-0.896c0.028-0.176,0.049-0.463,0.063-0.819
		c-0.098,0.188-0.153,0.259-0.279,0.392c-0.357,0.336-0.75,0.49-1.275,0.49c-0.518,0-0.959-0.161-1.26-0.462
		c-0.302-0.301-0.477-0.764-0.477-1.261c0-1.113,0.75-1.842,1.898-1.842c0.784,0,1.428,0.448,1.694,1.177
		c0.14,0.378,0.203,0.854,0.203,1.456c0,0.974-0.203,1.766-0.581,2.234c-0.351,0.441-0.813,0.651-1.457,0.651
		c-0.483,0-0.875-0.126-1.177-0.378c-0.196-0.161-0.308-0.322-0.49-0.693L36.223,81.52z M38.715,79.055
		c0-0.757-0.561-1.324-1.309-1.324c-0.463,0-0.883,0.225-1.114,0.596c-0.112,0.183-0.183,0.462-0.183,0.735
		c0,0.792,0.484,1.289,1.247,1.289C38.134,80.351,38.715,79.797,38.715,79.055z"/>
	<path fill="#231815" d="M40.695,81.387c0.111,0.364,0.21,0.512,0.427,0.666c0.238,0.168,0.546,0.252,0.903,0.252
		c0.813,0,1.324-0.421,1.324-1.086c0-0.693-0.498-1.071-1.43-1.071c-0.195,0-0.371,0.014-0.56,0.035v-0.554
		c0.161,0.028,0.329,0.042,0.519,0.042c0.462,0,0.805-0.105,1.022-0.322c0.175-0.168,0.28-0.427,0.28-0.68
		c0-0.602-0.42-0.952-1.128-0.952c-0.427,0-0.735,0.119-0.932,0.371c-0.099,0.126-0.147,0.238-0.224,0.497l-0.582-0.126
		c0.119-0.356,0.203-0.518,0.379-0.7c0.308-0.336,0.784-0.511,1.394-0.511c1.016,0,1.659,0.532,1.659,1.372
		c0,0.428-0.182,0.806-0.49,1.022c-0.182,0.134-0.336,0.189-0.658,0.253c0.406,0.042,0.623,0.118,0.861,0.301
		c0.309,0.238,0.47,0.609,0.47,1.058c0,0.945-0.729,1.534-1.897,1.534c-0.708,0-1.232-0.196-1.569-0.575
		c-0.147-0.168-0.231-0.321-0.357-0.679L40.695,81.387z"/>
	<path fill="#231815" d="M47.906,78.522c-0.091-0.225-0.14-0.322-0.244-0.441c-0.211-0.231-0.484-0.351-0.834-0.351
		c-0.547,0-0.959,0.295-1.212,0.869c-0.183,0.42-0.245,0.742-0.294,1.506c0.126-0.218,0.195-0.315,0.35-0.448
		c0.33-0.294,0.701-0.428,1.184-0.428c1.086,0,1.758,0.673,1.758,1.751c0,1.086-0.728,1.8-1.834,1.8
		c-0.498,0-0.967-0.161-1.268-0.44c-0.455-0.421-0.708-1.205-0.708-2.199c0-0.876,0.196-1.66,0.532-2.115
		c0.371-0.505,0.869-0.764,1.479-0.764c0.42,0,0.798,0.105,1.064,0.294c0.244,0.175,0.385,0.364,0.588,0.784L47.906,78.522z
		 M46.779,79.699c-0.351,0-0.722,0.154-0.967,0.399c-0.231,0.23-0.35,0.539-0.35,0.889c0,0.757,0.566,1.317,1.323,1.317
		c0.455,0,0.876-0.218,1.093-0.567c0.111-0.183,0.182-0.47,0.182-0.742C48.061,80.168,47.598,79.699,46.779,79.699z"/>
	<path fill="#231815" d="M50.148,80.049c0.623-0.609,1.058-0.826,1.688-0.826c0.316,0,0.596,0.063,0.876,0.203
		c0.183,0.091,0.273,0.147,0.659,0.42c0.588,0.421,0.945,0.574,1.344,0.574c0.196,0,0.393-0.042,0.561-0.118
		c0.301-0.127,0.498-0.295,0.799-0.68l0.363,0.315c-0.336,0.392-0.525,0.56-0.805,0.721c-0.266,0.154-0.603,0.238-0.925,0.238
		c-0.217,0-0.448-0.042-0.665-0.112c-0.295-0.104-0.519-0.23-0.974-0.567c-0.554-0.413-0.833-0.532-1.261-0.532
		c-0.266,0-0.49,0.057-0.721,0.183c-0.197,0.112-0.33,0.224-0.589,0.49L50.148,80.049z"/>
	<path fill="#231815" d="M58.355,81.387c0.111,0.364,0.21,0.512,0.427,0.666c0.238,0.168,0.546,0.252,0.903,0.252
		c0.813,0,1.324-0.421,1.324-1.086c0-0.693-0.498-1.071-1.43-1.071c-0.195,0-0.371,0.014-0.56,0.035v-0.554
		c0.161,0.028,0.329,0.042,0.519,0.042c0.462,0,0.805-0.105,1.022-0.322c0.175-0.168,0.28-0.427,0.28-0.68
		c0-0.602-0.42-0.952-1.128-0.952c-0.427,0-0.735,0.119-0.932,0.371c-0.099,0.126-0.147,0.238-0.224,0.497l-0.582-0.126
		c0.119-0.356,0.203-0.518,0.379-0.7c0.308-0.336,0.784-0.511,1.394-0.511c1.016,0,1.659,0.532,1.659,1.372
		c0,0.428-0.182,0.806-0.49,1.022c-0.182,0.134-0.336,0.189-0.658,0.253c0.406,0.042,0.623,0.118,0.861,0.301
		c0.309,0.238,0.47,0.609,0.47,1.058c0,0.945-0.729,1.534-1.897,1.534c-0.708,0-1.232-0.196-1.569-0.575
		c-0.147-0.168-0.231-0.321-0.357-0.679L58.355,81.387z"/>
	<path fill="#231815" d="M65.576,80.196c0.35,0.259,0.525,0.63,0.525,1.1c0,0.959-0.701,1.499-1.934,1.499
		c-1.281,0-1.988-0.532-1.988-1.499c0-0.504,0.202-0.89,0.623-1.163c0.217-0.14,0.371-0.195,0.63-0.237
		c-0.616-0.112-1.016-0.609-1.016-1.261c0-0.848,0.665-1.387,1.724-1.387c1.07,0,1.729,0.524,1.729,1.387
		c0,0.651-0.393,1.142-1.016,1.261C65.148,79.938,65.345,80.021,65.576,80.196z M62.754,81.261c0,0.665,0.511,1.058,1.379,1.058
		c0.49,0,0.89-0.126,1.128-0.364c0.175-0.161,0.267-0.406,0.267-0.693c0-0.687-0.525-1.1-1.387-1.1
		C63.278,80.161,62.754,80.581,62.754,81.261z M62.963,78.677c0,0.623,0.449,1.001,1.184,1.001c0.736,0,1.178-0.378,1.178-1.001
		c0-0.589-0.463-0.96-1.184-0.96C63.426,77.717,62.963,78.095,62.963,78.677z"/>
</g>
<g>
	<path fill="#231815" d="M116.52,3.718c-0.145,0.104-0.152,0.12-0.353,0.336c-0.504,0.528-1.183,1.111-1.871,1.607v3.406
		c0,0.455,0.009,0.632,0.04,0.848h-0.695c0.039-0.208,0.048-0.393,0.048-0.832V6.045c-1.04,0.64-1.623,0.903-3.087,1.399
		c-0.111-0.256-0.151-0.336-0.312-0.536c1.503-0.392,2.887-1.079,4.149-2.07c0.744-0.576,1.304-1.136,1.527-1.512L116.52,3.718z"/>
	<path fill="#231815" d="M120.945,4.046c-0.057-0.336-0.097-0.487-0.176-0.68l0.631-0.112c0.008,0.2,0.023,0.353,0.088,0.688
		l0.16,0.879l1.807-0.279c0.352-0.057,0.52-0.097,0.704-0.16l0.112,0.575c-0.217,0.017-0.217,0.017-0.713,0.097l-1.814,0.287
		l0.305,1.607l1.982-0.319c0.359-0.057,0.592-0.104,0.791-0.177l0.112,0.592c-0.159,0.009-0.208,0.017-0.353,0.032
		c-0.031,0.008-0.111,0.024-0.247,0.048c-0.088,0.008-0.128,0.017-0.185,0.024l-2.006,0.319l0.328,1.775
		c0.071,0.416,0.096,0.504,0.176,0.751l-0.641,0.129C122,9.899,121.969,9.7,121.912,9.356l-0.328-1.791L119.441,7.9
		c-0.455,0.08-0.504,0.088-0.768,0.168L118.57,7.46c0.264,0,0.463-0.024,0.791-0.072l2.127-0.344l-0.287-1.615l-1.647,0.256
		c-0.328,0.057-0.592,0.112-0.8,0.177l-0.111-0.608c0.264-0.008,0.471-0.023,0.831-0.08l1.631-0.264L120.945,4.046z M123.416,2.983
		c0.271,0.336,0.447,0.6,0.695,1.071L123.68,4.23c-0.217-0.447-0.4-0.743-0.688-1.087L123.416,2.983z M124.247,2.687
		c0.28,0.336,0.448,0.6,0.695,1.079l-0.432,0.168c-0.216-0.439-0.399-0.743-0.68-1.087L124.247,2.687z"/>
	<path fill="#231815" d="M128.249,3.502c-0.024,0.192-0.032,0.296-0.032,0.664v2.15c0,0.384,0.008,0.472,0.032,0.664h-0.663
		c0.023-0.184,0.031-0.352,0.031-0.672V4.174c0-0.344-0.008-0.479-0.031-0.672H128.249z M131.791,3.502
		c-0.031,0.185-0.039,0.313-0.039,0.696v0.943c0,1.271-0.057,1.975-0.201,2.438c-0.231,0.752-0.734,1.335-1.519,1.775
		c-0.392,0.224-0.776,0.375-1.455,0.575c-0.089-0.231-0.136-0.312-0.336-0.552c0.72-0.16,1.104-0.296,1.519-0.544
		c0.744-0.432,1.128-0.943,1.279-1.687c0.088-0.456,0.112-0.824,0.112-2.039V4.207c0-0.416-0.008-0.528-0.032-0.704H131.791z"/>
	<path fill="#231815" d="M140.455,9.748c-0.632-0.808-1.535-1.68-2.559-2.471c-0.561,0.64-0.951,1.007-1.527,1.431
		c-0.552,0.4-0.976,0.664-1.567,0.96c-0.128-0.24-0.192-0.328-0.392-0.528c0.615-0.247,1.008-0.463,1.623-0.919
		c1.279-0.943,2.271-2.207,2.854-3.606c0.017-0.048,0.024-0.056,0.04-0.096c0.016-0.023,0.016-0.032,0.023-0.056
		c-0.071,0.008-0.096,0.008-0.191,0.008l-2.67,0.04c-0.36,0.008-0.592,0.023-0.824,0.063l-0.016-0.647
		c0.215,0.032,0.359,0.04,0.631,0.04c0.024,0,0.096,0,0.209,0l2.854-0.032c0.28-0.008,0.376-0.016,0.512-0.063l0.336,0.344
		c-0.08,0.096-0.136,0.191-0.224,0.392c-0.448,0.991-0.823,1.623-1.319,2.239c1.047,0.799,1.751,1.431,2.662,2.398L140.455,9.748z"
		/>
	<path fill="#231815" d="M118.496,20.789c0.4,0.296,0.6,0.72,0.6,1.256c0,1.095-0.799,1.711-2.207,1.711
		c-1.463,0-2.27-0.607-2.27-1.711c0-0.576,0.231-1.016,0.711-1.327c0.248-0.16,0.424-0.225,0.72-0.272
		c-0.704-0.128-1.159-0.695-1.159-1.438c0-0.968,0.76-1.584,1.967-1.584c1.223,0,1.975,0.6,1.975,1.584
		c0,0.743-0.447,1.303-1.159,1.438C118.009,20.493,118.232,20.589,118.496,20.789z M115.274,22.004c0,0.76,0.583,1.207,1.575,1.207
		c0.56,0,1.016-0.144,1.287-0.416c0.199-0.184,0.304-0.463,0.304-0.791c0-0.784-0.6-1.256-1.583-1.256
		S115.274,21.229,115.274,22.004z M115.514,19.054c0,0.711,0.512,1.143,1.352,1.143s1.344-0.432,1.344-1.143
		c0-0.672-0.527-1.096-1.352-1.096C116.042,17.958,115.514,18.39,115.514,19.054z"/>
	<path fill="#231815" d="M120.65,23.179c-0.217-0.216-0.385-0.464-0.48-0.735c-0.199-0.56-0.303-1.191-0.303-1.847
		c0-0.848,0.184-1.711,0.463-2.175c0.384-0.647,1-0.983,1.791-0.983c0.592,0,1.104,0.191,1.463,0.567
		c0.225,0.224,0.385,0.472,0.48,0.735c0.199,0.552,0.304,1.191,0.304,1.855c0,0.968-0.208,1.823-0.56,2.311
		c-0.4,0.56-0.959,0.84-1.695,0.84C121.521,23.748,121.025,23.555,120.65,23.179z M121.113,18.398
		c-0.168,0.185-0.295,0.384-0.359,0.584c-0.168,0.487-0.248,1.031-0.248,1.615c0,0.743,0.16,1.527,0.376,1.902
		c0.28,0.464,0.696,0.696,1.239,0.696c0.4,0,0.744-0.128,0.984-0.376c0.176-0.184,0.303-0.392,0.375-0.624
		c0.168-0.495,0.248-1.023,0.248-1.615c0-0.695-0.152-1.486-0.359-1.862c-0.264-0.479-0.696-0.728-1.256-0.728
		C121.697,17.991,121.369,18.126,121.113,18.398z"/>
	<path fill="#231815" d="M126.098,22.835v0.792h-0.791v-0.792H126.098z"/>
	<path fill="#231815" d="M128.074,19.87c-0.017,0.144-0.017,0.144-0.064,0.359c0.384-0.367,0.848-0.552,1.399-0.552
		c0.583,0,1.079,0.192,1.438,0.544c0.36,0.344,0.536,0.815,0.536,1.407c0,1.287-0.839,2.11-2.159,2.11
		c-0.623,0-1.143-0.184-1.527-0.543c-0.199-0.2-0.311-0.368-0.503-0.752l0.655-0.191c0.08,0.224,0.137,0.327,0.256,0.463
		c0.271,0.305,0.672,0.473,1.136,0.473c0.896,0,1.495-0.608,1.495-1.527c0-0.88-0.552-1.455-1.399-1.455
		c-0.407,0-0.759,0.111-1.048,0.336c-0.191,0.151-0.279,0.264-0.367,0.479l-0.6-0.057c0.064-0.312,0.088-0.479,0.119-0.823
		l0.177-1.807c0.016-0.232,0.024-0.328,0.024-0.48c0-0.111,0-0.144-0.017-0.344c0.248,0.032,0.376,0.04,0.848,0.04h1.647
		c0.432,0,0.615-0.016,0.936-0.063v0.68c-0.305-0.048-0.561-0.064-0.936-0.064h-1.879L128.074,19.87z"/>
	<path fill="#231815" d="M133.082,23.179c-0.217-0.216-0.385-0.464-0.48-0.735c-0.199-0.56-0.303-1.191-0.303-1.847
		c0-0.848,0.184-1.711,0.463-2.175c0.384-0.647,1-0.983,1.791-0.983c0.592,0,1.104,0.191,1.463,0.567
		c0.225,0.224,0.385,0.472,0.48,0.735c0.199,0.552,0.304,1.191,0.304,1.855c0,0.968-0.208,1.823-0.56,2.311
		c-0.4,0.56-0.959,0.84-1.695,0.84C133.953,23.748,133.457,23.555,133.082,23.179z M133.545,18.398
		c-0.168,0.185-0.295,0.384-0.359,0.584c-0.168,0.487-0.248,1.031-0.248,1.615c0,0.743,0.16,1.527,0.376,1.902
		c0.28,0.464,0.696,0.696,1.239,0.696c0.4,0,0.744-0.128,0.984-0.376c0.176-0.184,0.303-0.392,0.375-0.624
		c0.168-0.495,0.248-1.023,0.248-1.615c0-0.695-0.152-1.486-0.359-1.862c-0.264-0.479-0.696-0.728-1.256-0.728
		C134.129,17.991,133.801,18.126,133.545,18.398z"/>
	<path fill="#231815" d="M115.643,31.87c-0.017,0.144-0.017,0.144-0.064,0.359c0.384-0.367,0.848-0.552,1.399-0.552
		c0.583,0,1.079,0.192,1.438,0.544c0.36,0.344,0.536,0.815,0.536,1.407c0,1.287-0.839,2.11-2.159,2.11
		c-0.623,0-1.143-0.184-1.527-0.543c-0.199-0.2-0.311-0.368-0.503-0.752l0.655-0.191c0.08,0.224,0.137,0.327,0.256,0.463
		c0.271,0.305,0.672,0.473,1.136,0.473c0.896,0,1.495-0.608,1.495-1.527c0-0.88-0.552-1.455-1.399-1.455
		c-0.407,0-0.759,0.111-1.048,0.336c-0.191,0.151-0.279,0.264-0.367,0.479l-0.6-0.057c0.064-0.312,0.088-0.479,0.119-0.823
		l0.177-1.807c0.016-0.232,0.024-0.328,0.024-0.48c0-0.111,0-0.144-0.017-0.344c0.248,0.032,0.376,0.04,0.848,0.04h1.647
		c0.432,0,0.615-0.016,0.936-0.063v0.68c-0.305-0.048-0.561-0.064-0.936-0.064h-1.879L115.643,31.87z"/>
	<path fill="#231815" d="M120.898,31.87c-0.017,0.144-0.017,0.144-0.064,0.359c0.384-0.367,0.848-0.552,1.399-0.552
		c0.583,0,1.079,0.192,1.438,0.544c0.36,0.344,0.536,0.815,0.536,1.407c0,1.287-0.839,2.11-2.159,2.11
		c-0.623,0-1.143-0.184-1.527-0.543c-0.199-0.2-0.311-0.368-0.503-0.752l0.655-0.191c0.08,0.224,0.137,0.327,0.256,0.463
		c0.271,0.305,0.672,0.473,1.136,0.473c0.896,0,1.495-0.608,1.495-1.527c0-0.88-0.552-1.455-1.399-1.455
		c-0.407,0-0.759,0.111-1.048,0.336c-0.191,0.151-0.279,0.264-0.367,0.479l-0.6-0.057c0.064-0.312,0.088-0.479,0.119-0.823
		l0.177-1.807c0.016-0.232,0.024-0.328,0.024-0.48c0-0.111,0-0.144-0.017-0.344c0.248,0.032,0.376,0.04,0.848,0.04h1.647
		c0.432,0,0.615-0.016,0.936-0.063v0.68c-0.305-0.048-0.561-0.064-0.936-0.064h-1.879L120.898,31.87z"/>
	<path fill="#231815" d="M126.098,34.835v0.792h-0.791v-0.792H126.098z"/>
	<path fill="#231815" d="M127.826,35.179c-0.217-0.216-0.385-0.464-0.48-0.735c-0.199-0.56-0.303-1.191-0.303-1.847
		c0-0.848,0.184-1.711,0.463-2.175c0.384-0.647,1-0.983,1.791-0.983c0.592,0,1.104,0.191,1.463,0.567
		c0.225,0.224,0.385,0.472,0.48,0.735c0.199,0.552,0.304,1.191,0.304,1.855c0,0.968-0.208,1.823-0.56,2.311
		c-0.4,0.56-0.959,0.84-1.695,0.84C128.697,35.748,128.201,35.555,127.826,35.179z M128.289,30.398
		c-0.168,0.185-0.295,0.384-0.359,0.584c-0.168,0.487-0.248,1.031-0.248,1.615c0,0.743,0.16,1.527,0.376,1.902
		c0.28,0.464,0.696,0.696,1.239,0.696c0.4,0,0.744-0.128,0.984-0.376c0.176-0.184,0.303-0.392,0.375-0.624
		c0.168-0.495,0.248-1.023,0.248-1.615c0-0.695-0.152-1.486-0.359-1.862c-0.264-0.479-0.696-0.728-1.256-0.728
		C128.873,29.991,128.545,30.126,128.289,30.398z"/>
	<path fill="#231815" d="M133.082,35.179c-0.217-0.216-0.385-0.464-0.48-0.735c-0.199-0.56-0.303-1.191-0.303-1.847
		c0-0.848,0.184-1.711,0.463-2.175c0.384-0.647,1-0.983,1.791-0.983c0.592,0,1.104,0.191,1.463,0.567
		c0.225,0.224,0.385,0.472,0.48,0.735c0.199,0.552,0.304,1.191,0.304,1.855c0,0.968-0.208,1.823-0.56,2.311
		c-0.4,0.56-0.959,0.84-1.695,0.84C133.953,35.748,133.457,35.555,133.082,35.179z M133.545,30.398
		c-0.168,0.185-0.295,0.384-0.359,0.584c-0.168,0.487-0.248,1.031-0.248,1.615c0,0.743,0.16,1.527,0.376,1.902
		c0.28,0.464,0.696,0.696,1.239,0.696c0.4,0,0.744-0.128,0.984-0.376c0.176-0.184,0.303-0.392,0.375-0.624
		c0.168-0.495,0.248-1.023,0.248-1.615c0-0.695-0.152-1.486-0.359-1.862c-0.264-0.479-0.696-0.728-1.256-0.728
		C134.129,29.991,133.801,30.126,133.545,30.398z"/>
	<path fill="#231815" d="M115.266,46.148c0.129,0.416,0.24,0.584,0.488,0.76c0.271,0.192,0.623,0.288,1.031,0.288
		c0.928,0,1.512-0.48,1.512-1.239c0-0.792-0.568-1.224-1.631-1.224c-0.225,0-0.424,0.016-0.641,0.04v-0.632
		c0.185,0.032,0.377,0.048,0.592,0.048c0.527,0,0.92-0.12,1.168-0.367c0.199-0.192,0.32-0.488,0.32-0.776
		c0-0.688-0.48-1.087-1.288-1.087c-0.487,0-0.839,0.136-1.063,0.424c-0.111,0.144-0.168,0.271-0.256,0.567l-0.664-0.144
		c0.137-0.408,0.232-0.592,0.432-0.8c0.353-0.384,0.896-0.584,1.592-0.584c1.159,0,1.895,0.608,1.895,1.567
		c0,0.488-0.207,0.92-0.559,1.167c-0.209,0.152-0.385,0.217-0.752,0.288c0.463,0.048,0.711,0.136,0.982,0.344
		c0.353,0.272,0.537,0.696,0.537,1.208c0,1.079-0.832,1.751-2.168,1.751c-0.807,0-1.406-0.225-1.791-0.656
		c-0.168-0.191-0.264-0.367-0.407-0.775L115.266,46.148z"/>
	<path fill="#231815" d="M123.504,42.877c-0.104-0.256-0.159-0.367-0.279-0.503c-0.24-0.265-0.552-0.4-0.951-0.4
		c-0.624,0-1.096,0.336-1.383,0.992c-0.209,0.479-0.281,0.847-0.336,1.719c0.144-0.248,0.223-0.36,0.399-0.512
		c0.376-0.336,0.8-0.488,1.351-0.488c1.24,0,2.008,0.768,2.008,1.999c0,1.239-0.832,2.055-2.096,2.055
		c-0.567,0-1.104-0.184-1.447-0.503c-0.52-0.48-0.807-1.376-0.807-2.511c0-1,0.224-1.896,0.607-2.415
		c0.424-0.575,0.991-0.871,1.688-0.871c0.479,0,0.91,0.12,1.215,0.336c0.279,0.199,0.439,0.415,0.672,0.896L123.504,42.877z
		 M122.217,44.221c-0.399,0-0.823,0.176-1.104,0.456c-0.264,0.264-0.399,0.615-0.399,1.015c0,0.864,0.647,1.504,1.511,1.504
		c0.521,0,1-0.248,1.248-0.647c0.128-0.208,0.207-0.536,0.207-0.848C123.68,44.757,123.152,44.221,122.217,44.221z"/>
	<path fill="#231815" d="M126.098,46.835v0.792h-0.791v-0.792H126.098z"/>
	<path fill="#231815" d="M131.4,42.094c-0.145,0.112-0.28,0.288-0.592,0.768c-0.721,1.111-1.056,1.791-1.367,2.767
		c-0.209,0.664-0.297,1.071-0.424,1.999h-0.76c0.256-1.447,0.472-2.167,0.967-3.19c0.385-0.8,0.729-1.352,1.439-2.318h-2.598
		c-0.377,0-0.6,0.016-0.904,0.056v-0.68c0.313,0.04,0.527,0.056,0.912,0.056h2.398c0.472,0,0.647-0.008,0.928-0.04V42.094z"/>
	<path fill="#231815" d="M133.082,47.179c-0.217-0.216-0.385-0.464-0.48-0.735c-0.199-0.56-0.303-1.191-0.303-1.847
		c0-0.848,0.184-1.711,0.463-2.175c0.384-0.647,1-0.983,1.791-0.983c0.592,0,1.104,0.191,1.463,0.567
		c0.225,0.224,0.385,0.472,0.48,0.735c0.199,0.552,0.304,1.191,0.304,1.855c0,0.968-0.208,1.823-0.56,2.311
		c-0.4,0.56-0.959,0.84-1.695,0.84C133.953,47.748,133.457,47.555,133.082,47.179z M133.545,42.398
		c-0.168,0.185-0.295,0.384-0.359,0.584c-0.168,0.487-0.248,1.031-0.248,1.615c0,0.743,0.16,1.527,0.376,1.902
		c0.28,0.464,0.696,0.696,1.239,0.696c0.4,0,0.744-0.128,0.984-0.376c0.176-0.184,0.303-0.392,0.375-0.624
		c0.168-0.495,0.248-1.023,0.248-1.615c0-0.695-0.152-1.486-0.359-1.862c-0.264-0.479-0.696-0.728-1.256-0.728
		C134.129,41.991,133.801,42.126,133.545,42.398z"/>
	<path fill="#231815" d="M118.248,54.877c-0.104-0.256-0.159-0.367-0.279-0.503c-0.24-0.265-0.552-0.4-0.951-0.4
		c-0.624,0-1.096,0.336-1.383,0.992c-0.209,0.479-0.281,0.847-0.336,1.719c0.144-0.248,0.223-0.36,0.399-0.512
		c0.376-0.336,0.8-0.488,1.351-0.488c1.24,0,2.008,0.768,2.008,1.999c0,1.239-0.832,2.055-2.096,2.055
		c-0.567,0-1.104-0.184-1.447-0.503c-0.52-0.48-0.807-1.376-0.807-2.511c0-1,0.224-1.896,0.607-2.415
		c0.424-0.575,0.991-0.871,1.688-0.871c0.479,0,0.91,0.12,1.215,0.336c0.279,0.199,0.439,0.415,0.672,0.896L118.248,54.877z
		 M116.961,56.221c-0.399,0-0.823,0.176-1.104,0.456c-0.264,0.264-0.399,0.615-0.399,1.015c0,0.864,0.647,1.504,1.511,1.504
		c0.521,0,1-0.248,1.248-0.647c0.128-0.208,0.207-0.536,0.207-0.848C118.424,56.757,117.896,56.221,116.961,56.221z"/>
	<path fill="#231815" d="M123.504,54.877c-0.104-0.256-0.159-0.367-0.279-0.503c-0.24-0.265-0.552-0.4-0.951-0.4
		c-0.624,0-1.096,0.336-1.383,0.992c-0.209,0.479-0.281,0.847-0.336,1.719c0.144-0.248,0.223-0.36,0.399-0.512
		c0.376-0.336,0.8-0.488,1.351-0.488c1.24,0,2.008,0.768,2.008,1.999c0,1.239-0.832,2.055-2.096,2.055
		c-0.567,0-1.104-0.184-1.447-0.503c-0.52-0.48-0.807-1.376-0.807-2.511c0-1,0.224-1.896,0.607-2.415
		c0.424-0.575,0.991-0.871,1.688-0.871c0.479,0,0.91,0.12,1.215,0.336c0.279,0.199,0.439,0.415,0.672,0.896L123.504,54.877z
		 M122.217,56.221c-0.399,0-0.823,0.176-1.104,0.456c-0.264,0.264-0.399,0.615-0.399,1.015c0,0.864,0.647,1.504,1.511,1.504
		c0.521,0,1-0.248,1.248-0.647c0.128-0.208,0.207-0.536,0.207-0.848C123.68,56.757,123.152,56.221,122.217,56.221z"/>
	<path fill="#231815" d="M126.098,58.835v0.792h-0.791v-0.792H126.098z"/>
	<path fill="#231815" d="M128.074,55.87c-0.017,0.144-0.017,0.144-0.064,0.359c0.384-0.367,0.848-0.552,1.399-0.552
		c0.583,0,1.079,0.192,1.438,0.544c0.36,0.344,0.536,0.815,0.536,1.407c0,1.287-0.839,2.11-2.159,2.11
		c-0.623,0-1.143-0.184-1.527-0.543c-0.199-0.2-0.311-0.368-0.503-0.752l0.655-0.191c0.08,0.224,0.137,0.327,0.256,0.463
		c0.271,0.305,0.672,0.473,1.136,0.473c0.896,0,1.495-0.608,1.495-1.527c0-0.88-0.552-1.455-1.399-1.455
		c-0.407,0-0.759,0.111-1.048,0.336c-0.191,0.151-0.279,0.264-0.367,0.479l-0.6-0.057c0.064-0.312,0.088-0.479,0.119-0.823
		l0.177-1.807c0.016-0.232,0.024-0.328,0.024-0.48c0-0.111,0-0.144-0.017-0.344c0.248,0.032,0.376,0.04,0.848,0.04h1.647
		c0.432,0,0.615-0.016,0.936-0.063v0.68c-0.305-0.048-0.561-0.064-0.936-0.064h-1.879L128.074,55.87z"/>
	<path fill="#231815" d="M133.082,59.179c-0.217-0.216-0.385-0.464-0.48-0.735c-0.199-0.56-0.303-1.191-0.303-1.847
		c0-0.848,0.184-1.711,0.463-2.175c0.384-0.647,1-0.983,1.791-0.983c0.592,0,1.104,0.191,1.463,0.567
		c0.225,0.224,0.385,0.472,0.48,0.735c0.199,0.552,0.304,1.191,0.304,1.855c0,0.968-0.208,1.823-0.56,2.311
		c-0.4,0.56-0.959,0.84-1.695,0.84C133.953,59.748,133.457,59.555,133.082,59.179z M133.545,54.398
		c-0.168,0.185-0.295,0.384-0.359,0.584c-0.168,0.487-0.248,1.031-0.248,1.615c0,0.743,0.16,1.527,0.376,1.902
		c0.28,0.464,0.696,0.696,1.239,0.696c0.4,0,0.744-0.128,0.984-0.376c0.176-0.184,0.303-0.392,0.375-0.624
		c0.168-0.495,0.248-1.023,0.248-1.615c0-0.695-0.152-1.486-0.359-1.862c-0.264-0.479-0.696-0.728-1.256-0.728
		C134.129,53.991,133.801,54.126,133.545,54.398z"/>
	<path fill="#231815" d="M115.25,70.148c0.128,0.416,0.24,0.584,0.488,0.76c0.271,0.192,0.623,0.288,1.031,0.288
		c0.928,0,1.512-0.48,1.512-1.239c0-0.792-0.568-1.224-1.632-1.224c-0.224,0-0.424,0.016-0.64,0.04v-0.632
		c0.184,0.032,0.376,0.048,0.592,0.048c0.527,0,0.92-0.12,1.168-0.367c0.199-0.192,0.318-0.488,0.318-0.776
		c0-0.688-0.479-1.087-1.287-1.087c-0.487,0-0.839,0.136-1.063,0.424c-0.112,0.144-0.168,0.271-0.256,0.567l-0.664-0.144
		c0.137-0.408,0.232-0.592,0.432-0.8c0.352-0.384,0.896-0.584,1.592-0.584c1.158,0,1.895,0.608,1.895,1.567
		c0,0.488-0.208,0.92-0.56,1.167c-0.208,0.152-0.384,0.217-0.752,0.288c0.464,0.048,0.712,0.136,0.983,0.344
		c0.352,0.272,0.536,0.696,0.536,1.208c0,1.079-0.831,1.751-2.167,1.751c-0.808,0-1.407-0.225-1.791-0.656
		c-0.168-0.191-0.264-0.367-0.408-0.775L115.25,70.148z"/>
	<path fill="#231815" d="M120.65,70.3c0.096,0.264,0.16,0.376,0.287,0.512c0.225,0.248,0.568,0.376,1.008,0.376
		c0.576,0,0.991-0.232,1.287-0.736c0.152-0.256,0.279-0.647,0.344-1.023c0.032-0.199,0.057-0.527,0.072-0.936
		c-0.111,0.216-0.176,0.296-0.32,0.448c-0.407,0.384-0.855,0.56-1.455,0.56c-0.592,0-1.096-0.184-1.439-0.527
		s-0.543-0.872-0.543-1.439c0-1.271,0.855-2.103,2.166-2.103c0.896,0,1.632,0.512,1.936,1.343c0.16,0.432,0.232,0.976,0.232,1.663
		c0,1.111-0.232,2.015-0.664,2.551c-0.4,0.504-0.928,0.743-1.663,0.743c-0.552,0-0.999-0.144-1.343-0.432
		c-0.225-0.184-0.353-0.367-0.561-0.791L120.65,70.3z M123.496,67.486c0-0.864-0.639-1.512-1.494-1.512
		c-0.528,0-1.008,0.256-1.271,0.68c-0.129,0.208-0.209,0.528-0.209,0.84c0,0.903,0.553,1.471,1.424,1.471
		C122.832,68.964,123.496,68.333,123.496,67.486z"/>
	<path fill="#231815" d="M126.082,70.835v0.792h-0.792v-0.792H126.082z"/>
	<path fill="#231815" d="M126.898,69.508c0.168-0.191,0.352-0.416,0.52-0.615l2.023-2.527c0.271-0.335,0.415-0.535,0.6-0.815h0.6
		c-0.041,0.472-0.049,0.72-0.049,1.352v2.623h0.305c0.336,0,0.543-0.017,0.831-0.057v0.664c-0.296-0.04-0.495-0.056-0.839-0.056
		h-0.297v0.688c0,0.384,0.017,0.567,0.064,0.863h-0.728c0.048-0.28,0.063-0.504,0.063-0.863v-0.688h-2.143
		c-0.447,0-0.688,0.008-0.951,0.031V69.508z M130,67.501c0-0.424,0.008-0.68,0.049-1.087c-0.168,0.239-0.368,0.503-0.6,0.799
		l-1.84,2.319H130V67.501z"/>
	<path fill="#231815" d="M133.098,71.179c-0.216-0.216-0.384-0.464-0.479-0.735c-0.2-0.56-0.304-1.191-0.304-1.847
		c0-0.848,0.184-1.711,0.463-2.175c0.385-0.647,1-0.983,1.791-0.983c0.592,0,1.104,0.191,1.464,0.567
		c0.224,0.224,0.384,0.472,0.479,0.735c0.2,0.552,0.305,1.191,0.305,1.855c0,0.968-0.209,1.823-0.561,2.311
		c-0.399,0.56-0.959,0.84-1.695,0.84C133.969,71.748,133.474,71.555,133.098,71.179z M133.562,66.398
		c-0.168,0.185-0.296,0.384-0.36,0.584c-0.168,0.487-0.247,1.031-0.247,1.615c0,0.743,0.159,1.527,0.376,1.902
		c0.279,0.464,0.695,0.696,1.238,0.696c0.4,0,0.744-0.128,0.984-0.376c0.176-0.184,0.304-0.392,0.375-0.624
		c0.168-0.495,0.248-1.023,0.248-1.615c0-0.695-0.151-1.486-0.359-1.862c-0.264-0.479-0.695-0.728-1.256-0.728
		C134.145,65.991,133.817,66.126,133.562,66.398z"/>
	<path fill="#231815" d="M115.521,77.51c0.209,0.032,0.36,0.04,0.664,0.04h0.504c0.271,0,0.4-0.008,0.664-0.04
		c-0.049,0.488-0.072,0.896-0.072,1.328v3.886c0,0.376,0.016,0.607,0.064,0.903h-0.76c0.047-0.28,0.063-0.536,0.063-0.903v-4.63
		h-0.432c-0.256,0-0.464,0.016-0.696,0.048V77.51z"/>
	<path fill="#231815" d="M124.225,78.094c-0.145,0.112-0.28,0.288-0.592,0.768c-0.721,1.111-1.056,1.791-1.367,2.767
		c-0.209,0.664-0.297,1.071-0.424,1.999h-0.76c0.256-1.447,0.472-2.167,0.967-3.19c0.385-0.8,0.729-1.352,1.439-2.318h-2.598
		c-0.377,0-0.6,0.016-0.904,0.056v-0.68c0.313,0.04,0.527,0.056,0.912,0.056h2.398c0.472,0,0.647-0.008,0.928-0.04V78.094z"/>
	<path fill="#231815" d="M126.098,82.835v0.792h-0.791v-0.792H126.098z"/>
	<path fill="#231815" d="M127.953,77.51c0.209,0.032,0.36,0.04,0.664,0.04h0.504c0.271,0,0.4-0.008,0.664-0.04
		c-0.049,0.488-0.072,0.896-0.072,1.328v3.886c0,0.376,0.016,0.607,0.064,0.903h-0.76c0.047-0.28,0.063-0.536,0.063-0.903v-4.63
		h-0.432c-0.256,0-0.464,0.016-0.696,0.048V77.51z"/>
	<path fill="#231815" d="M133.098,82.3c0.096,0.264,0.16,0.376,0.288,0.512c0.224,0.248,0.567,0.376,1.007,0.376
		c0.576,0,0.992-0.232,1.287-0.736c0.152-0.256,0.28-0.647,0.344-1.023c0.033-0.199,0.057-0.527,0.072-0.936
		c-0.111,0.216-0.176,0.296-0.319,0.448c-0.407,0.384-0.855,0.56-1.456,0.56c-0.591,0-1.095-0.184-1.438-0.527
		s-0.544-0.872-0.544-1.439c0-1.271,0.855-2.103,2.167-2.103c0.896,0,1.632,0.512,1.935,1.343c0.16,0.432,0.232,0.976,0.232,1.663
		c0,1.111-0.232,2.015-0.664,2.551c-0.399,0.504-0.928,0.743-1.662,0.743c-0.553,0-1-0.144-1.344-0.432
		c-0.225-0.184-0.352-0.367-0.561-0.791L133.098,82.3z M135.944,79.486c0-0.864-0.64-1.512-1.495-1.512
		c-0.527,0-1.008,0.256-1.271,0.68c-0.128,0.208-0.208,0.528-0.208,0.84c0,0.903,0.552,1.471,1.423,1.471
		C135.281,80.964,135.944,80.333,135.944,79.486z"/>
</g>
<g>
	<path fill="#231815" d="M152.133,5.166c-0.023,0.145-0.023,0.145-0.031,0.56c-0.024,1.336-0.248,2.127-0.792,2.814
		c-0.487,0.616-1.079,1.016-2.047,1.384c-0.12-0.256-0.176-0.336-0.368-0.536c0.648-0.191,1.048-0.392,1.464-0.735
		c0.847-0.68,1.159-1.495,1.159-3.055c0-0.224-0.008-0.279-0.031-0.432H152.133z M155.291,4.159
		c-0.08,0.104-0.096,0.128-0.191,0.319c-0.552,1.071-1.295,1.799-2.334,2.279c-0.121-0.2-0.185-0.272-0.393-0.456
		c0.56-0.216,0.888-0.408,1.264-0.76c0.367-0.344,0.664-0.735,0.895-1.191h-4.541c-0.439,0-0.647,0.008-0.943,0.04V3.775
		c0.271,0.04,0.496,0.056,0.951,0.056h4.294c0.536,0,0.536,0,0.68-0.056L155.291,4.159z"/>
	<path fill="#231815" d="M162.204,3.718c-0.104,0.152-0.136,0.225-0.248,0.488c-0.52,1.223-0.768,1.711-1.175,2.335
		c0.688,0.567,1.199,1.055,1.838,1.719l-0.447,0.495c-0.424-0.543-0.936-1.055-1.742-1.734c-0.84,1.151-1.815,1.99-3.215,2.782
		c-0.145-0.24-0.208-0.312-0.416-0.479c1.279-0.624,2.303-1.487,3.183-2.671c-0.728-0.584-1.479-1.079-2.151-1.447l0.4-0.424
		c0.783,0.472,1.184,0.736,2.078,1.392c0.377-0.592,0.664-1.167,0.943-1.863c0.201-0.487,0.24-0.615,0.281-0.848L162.204,3.718z"/>
	<path fill="#231815" d="M166.542,3.502c-0.024,0.192-0.032,0.296-0.032,0.664v2.15c0,0.384,0.008,0.472,0.032,0.664h-0.663
		c0.023-0.184,0.031-0.352,0.031-0.672V4.174c0-0.344-0.008-0.479-0.031-0.672H166.542z M170.084,3.502
		c-0.031,0.185-0.039,0.313-0.039,0.696v0.943c0,1.271-0.057,1.975-0.201,2.438c-0.231,0.752-0.734,1.335-1.519,1.775
		c-0.392,0.224-0.776,0.375-1.455,0.575c-0.089-0.231-0.136-0.312-0.336-0.552c0.72-0.16,1.104-0.296,1.519-0.544
		c0.744-0.432,1.128-0.943,1.279-1.687c0.088-0.456,0.112-0.824,0.112-2.039V4.207c0-0.416-0.008-0.528-0.032-0.704H170.084z"/>
	<path fill="#231815" d="M175.43,4.846c0.031-0.408,0.048-0.848,0.048-1.199c0-0.185-0.008-0.272-0.032-0.416l0.648,0.016
		c-0.033,0.185-0.033,0.185-0.064,1.031c-0.016,0.248-0.016,0.344-0.04,0.568l1.999-0.008c0.359,0,0.367-0.009,0.527-0.057
		l0.297,0.256c-0.049,0.12-0.057,0.192-0.064,0.48c-0.024,1.039-0.12,2.246-0.225,2.798c-0.199,1.096-0.439,1.384-1.158,1.384
		c-0.256,0-0.568-0.04-0.992-0.137c0-0.048,0-0.071,0-0.096c0-0.184-0.016-0.296-0.088-0.504c0.432,0.145,0.768,0.208,1.031,0.208
		c0.393,0,0.52-0.191,0.672-0.983c0.119-0.632,0.191-1.655,0.199-2.838l-2.238,0.008c-0.104,1.023-0.287,1.687-0.64,2.358
		c-0.448,0.823-1.191,1.575-2.095,2.119c-0.145-0.232-0.208-0.296-0.408-0.472c0.951-0.504,1.64-1.208,2.079-2.104
		c0.272-0.56,0.392-1.007,0.496-1.902l-1.456,0.008c-0.471,0-0.559,0-0.847,0.04l-0.009-0.607c0.272,0.048,0.465,0.056,0.864,0.056
		L175.43,4.846z"/>
	<path fill="#231815" d="M156.541,18.877c-0.104-0.256-0.159-0.367-0.279-0.503c-0.24-0.265-0.552-0.4-0.951-0.4
		c-0.624,0-1.096,0.336-1.383,0.992c-0.209,0.479-0.281,0.847-0.336,1.719c0.144-0.248,0.223-0.36,0.399-0.512
		c0.376-0.336,0.8-0.488,1.351-0.488c1.24,0,2.008,0.768,2.008,1.999c0,1.239-0.832,2.055-2.096,2.055
		c-0.567,0-1.104-0.184-1.447-0.503c-0.52-0.48-0.807-1.376-0.807-2.511c0-1,0.224-1.896,0.607-2.415
		c0.424-0.575,0.991-0.871,1.688-0.871c0.479,0,0.91,0.12,1.215,0.336c0.279,0.199,0.439,0.415,0.672,0.896L156.541,18.877z
		 M155.254,20.221c-0.399,0-0.823,0.176-1.104,0.456c-0.264,0.264-0.399,0.615-0.399,1.015c0,0.864,0.647,1.504,1.511,1.504
		c0.521,0,1-0.248,1.248-0.647c0.128-0.208,0.207-0.536,0.207-0.848C156.717,20.757,156.189,20.221,155.254,20.221z"/>
	<path fill="#231815" d="M159.135,23.627c-0.504,0-0.623,0.008-0.879,0.04c0.088-0.632,0.111-0.752,0.231-1.056
		c0.2-0.504,0.536-0.943,1.04-1.375c0.279-0.24,0.295-0.248,1.223-0.88c0.791-0.535,1.056-0.888,1.056-1.375
		c0-0.607-0.512-0.999-1.327-0.999c-0.527,0-0.92,0.176-1.16,0.52c-0.151,0.216-0.223,0.407-0.279,0.808l-0.672-0.112
		c0.12-0.576,0.24-0.855,0.504-1.151c0.359-0.408,0.903-0.615,1.607-0.615c1.207,0,1.982,0.607,1.982,1.551
		c0,0.407-0.16,0.792-0.472,1.136c-0.239,0.271-0.448,0.424-1.358,1.031c-0.633,0.424-0.889,0.647-1.152,0.983
		c-0.248,0.327-0.359,0.544-0.455,0.928h2.551c0.398,0,0.671-0.017,0.975-0.057v0.672c-0.32-0.032-0.584-0.048-0.983-0.048H159.135z
		"/>
	<path fill="#231815" d="M164.391,22.835v0.792H163.6v-0.792H164.391z"/>
	<path fill="#231815" d="M166.119,23.179c-0.217-0.216-0.385-0.464-0.48-0.735c-0.199-0.56-0.303-1.191-0.303-1.847
		c0-0.848,0.184-1.711,0.463-2.175c0.384-0.647,1-0.983,1.791-0.983c0.592,0,1.104,0.191,1.463,0.567
		c0.225,0.224,0.385,0.472,0.48,0.735c0.199,0.552,0.304,1.191,0.304,1.855c0,0.968-0.208,1.823-0.56,2.311
		c-0.4,0.56-0.959,0.84-1.695,0.84C166.99,23.748,166.494,23.555,166.119,23.179z M166.582,18.398
		c-0.168,0.185-0.295,0.384-0.359,0.584c-0.168,0.487-0.248,1.031-0.248,1.615c0,0.743,0.16,1.527,0.376,1.902
		c0.28,0.464,0.696,0.696,1.239,0.696c0.4,0,0.744-0.128,0.984-0.376c0.176-0.184,0.303-0.392,0.375-0.624
		c0.168-0.495,0.248-1.023,0.248-1.615c0-0.695-0.152-1.486-0.359-1.862c-0.264-0.479-0.696-0.728-1.256-0.728
		C167.166,17.991,166.838,18.126,166.582,18.398z"/>
	<path fill="#231815" d="M171.375,23.179c-0.217-0.216-0.385-0.464-0.48-0.735c-0.199-0.56-0.303-1.191-0.303-1.847
		c0-0.848,0.184-1.711,0.463-2.175c0.384-0.647,1-0.983,1.791-0.983c0.592,0,1.104,0.191,1.463,0.567
		c0.225,0.224,0.385,0.472,0.48,0.735c0.199,0.552,0.304,1.191,0.304,1.855c0,0.968-0.208,1.823-0.56,2.311
		c-0.4,0.56-0.959,0.84-1.695,0.84C172.246,23.748,171.75,23.555,171.375,23.179z M171.838,18.398
		c-0.168,0.185-0.295,0.384-0.359,0.584c-0.168,0.487-0.248,1.031-0.248,1.615c0,0.743,0.16,1.527,0.376,1.902
		c0.28,0.464,0.696,0.696,1.239,0.696c0.4,0,0.744-0.128,0.984-0.376c0.176-0.184,0.303-0.392,0.375-0.624
		c0.168-0.495,0.248-1.023,0.248-1.615c0-0.695-0.152-1.486-0.359-1.862c-0.264-0.479-0.696-0.728-1.256-0.728
		C172.422,17.991,172.094,18.126,171.838,18.398z"/>
	<path fill="#231815" d="M156.789,32.789c0.4,0.296,0.6,0.72,0.6,1.256c0,1.095-0.799,1.711-2.207,1.711
		c-1.463,0-2.27-0.607-2.27-1.711c0-0.576,0.231-1.016,0.711-1.327c0.248-0.16,0.424-0.225,0.72-0.272
		c-0.704-0.128-1.159-0.695-1.159-1.438c0-0.968,0.76-1.584,1.967-1.584c1.223,0,1.975,0.6,1.975,1.584
		c0,0.743-0.447,1.303-1.159,1.438C156.302,32.493,156.525,32.589,156.789,32.789z M153.567,34.004c0,0.76,0.583,1.207,1.575,1.207
		c0.56,0,1.016-0.144,1.287-0.416c0.199-0.184,0.304-0.463,0.304-0.791c0-0.784-0.6-1.256-1.583-1.256
		S153.567,33.229,153.567,34.004z M153.807,31.054c0,0.711,0.512,1.143,1.352,1.143s1.344-0.432,1.344-1.143
		c0-0.672-0.527-1.096-1.352-1.096C154.335,29.958,153.807,30.39,153.807,31.054z"/>
	<path fill="#231815" d="M159.135,35.627c-0.504,0-0.623,0.008-0.879,0.04c0.088-0.632,0.111-0.752,0.231-1.056
		c0.2-0.504,0.536-0.943,1.04-1.375c0.279-0.24,0.295-0.248,1.223-0.88c0.791-0.535,1.056-0.888,1.056-1.375
		c0-0.607-0.512-0.999-1.327-0.999c-0.527,0-0.92,0.176-1.16,0.52c-0.151,0.216-0.223,0.407-0.279,0.808l-0.672-0.112
		c0.12-0.576,0.24-0.855,0.504-1.151c0.359-0.408,0.903-0.615,1.607-0.615c1.207,0,1.982,0.607,1.982,1.551
		c0,0.407-0.16,0.792-0.472,1.136c-0.239,0.271-0.448,0.424-1.358,1.031c-0.633,0.424-0.889,0.647-1.152,0.983
		c-0.248,0.327-0.359,0.544-0.455,0.928h2.551c0.398,0,0.671-0.017,0.975-0.057v0.672c-0.32-0.032-0.584-0.048-0.983-0.048H159.135z
		"/>
	<path fill="#231815" d="M164.391,34.835v0.792H163.6v-0.792H164.391z"/>
	<path fill="#231815" d="M166.119,35.179c-0.217-0.216-0.385-0.464-0.48-0.735c-0.199-0.56-0.303-1.191-0.303-1.847
		c0-0.848,0.184-1.711,0.463-2.175c0.384-0.647,1-0.983,1.791-0.983c0.592,0,1.104,0.191,1.463,0.567
		c0.225,0.224,0.385,0.472,0.48,0.735c0.199,0.552,0.304,1.191,0.304,1.855c0,0.968-0.208,1.823-0.56,2.311
		c-0.4,0.56-0.959,0.84-1.695,0.84C166.99,35.748,166.494,35.555,166.119,35.179z M166.582,30.398
		c-0.168,0.185-0.295,0.384-0.359,0.584c-0.168,0.487-0.248,1.031-0.248,1.615c0,0.743,0.16,1.527,0.376,1.902
		c0.28,0.464,0.696,0.696,1.239,0.696c0.4,0,0.744-0.128,0.984-0.376c0.176-0.184,0.303-0.392,0.375-0.624
		c0.168-0.495,0.248-1.023,0.248-1.615c0-0.695-0.152-1.486-0.359-1.862c-0.264-0.479-0.696-0.728-1.256-0.728
		C167.166,29.991,166.838,30.126,166.582,30.398z"/>
	<path fill="#231815" d="M171.375,35.179c-0.217-0.216-0.385-0.464-0.48-0.735c-0.199-0.56-0.303-1.191-0.303-1.847
		c0-0.848,0.184-1.711,0.463-2.175c0.384-0.647,1-0.983,1.791-0.983c0.592,0,1.104,0.191,1.463,0.567
		c0.225,0.224,0.385,0.472,0.48,0.735c0.199,0.552,0.304,1.191,0.304,1.855c0,0.968-0.208,1.823-0.56,2.311
		c-0.4,0.56-0.959,0.84-1.695,0.84C172.246,35.748,171.75,35.555,171.375,35.179z M171.838,30.398
		c-0.168,0.185-0.295,0.384-0.359,0.584c-0.168,0.487-0.248,1.031-0.248,1.615c0,0.743,0.16,1.527,0.376,1.902
		c0.28,0.464,0.696,0.696,1.239,0.696c0.4,0,0.744-0.128,0.984-0.376c0.176-0.184,0.303-0.392,0.375-0.624
		c0.168-0.495,0.248-1.023,0.248-1.615c0-0.695-0.152-1.486-0.359-1.862c-0.264-0.479-0.696-0.728-1.256-0.728
		C172.422,29.991,172.094,30.126,171.838,30.398z"/>
	<path fill="#231815" d="M156.789,44.789c0.4,0.296,0.6,0.72,0.6,1.256c0,1.095-0.799,1.711-2.207,1.711
		c-1.463,0-2.27-0.607-2.27-1.711c0-0.576,0.231-1.016,0.711-1.327c0.248-0.16,0.424-0.225,0.72-0.272
		c-0.704-0.128-1.159-0.695-1.159-1.438c0-0.968,0.76-1.584,1.967-1.584c1.223,0,1.975,0.6,1.975,1.584
		c0,0.743-0.447,1.303-1.159,1.438C156.302,44.493,156.525,44.589,156.789,44.789z M153.567,46.004c0,0.76,0.583,1.207,1.575,1.207
		c0.56,0,1.016-0.144,1.287-0.416c0.199-0.184,0.304-0.463,0.304-0.791c0-0.784-0.6-1.256-1.583-1.256
		S153.567,45.229,153.567,46.004z M153.807,43.054c0,0.711,0.512,1.143,1.352,1.143s1.344-0.432,1.344-1.143
		c0-0.672-0.527-1.096-1.352-1.096C154.335,41.958,153.807,42.39,153.807,43.054z"/>
	<path fill="#231815" d="M161.797,42.877c-0.104-0.256-0.159-0.367-0.279-0.503c-0.24-0.265-0.552-0.4-0.951-0.4
		c-0.624,0-1.096,0.336-1.383,0.992c-0.209,0.479-0.281,0.847-0.336,1.719c0.144-0.248,0.223-0.36,0.399-0.512
		c0.376-0.336,0.8-0.488,1.351-0.488c1.24,0,2.008,0.768,2.008,1.999c0,1.239-0.832,2.055-2.096,2.055
		c-0.567,0-1.104-0.184-1.447-0.503c-0.52-0.48-0.807-1.376-0.807-2.511c0-1,0.224-1.896,0.607-2.415
		c0.424-0.575,0.991-0.871,1.688-0.871c0.479,0,0.91,0.12,1.215,0.336c0.279,0.199,0.439,0.415,0.672,0.896L161.797,42.877z
		 M160.51,44.221c-0.399,0-0.823,0.176-1.104,0.456c-0.264,0.264-0.399,0.615-0.399,1.015c0,0.864,0.647,1.504,1.511,1.504
		c0.521,0,1-0.248,1.248-0.647c0.128-0.208,0.207-0.536,0.207-0.848C161.973,44.757,161.445,44.221,160.51,44.221z"/>
	<path fill="#231815" d="M164.391,46.835v0.792H163.6v-0.792H164.391z"/>
	<path fill="#231815" d="M166.119,47.179c-0.217-0.216-0.385-0.464-0.48-0.735c-0.199-0.56-0.303-1.191-0.303-1.847
		c0-0.848,0.184-1.711,0.463-2.175c0.384-0.647,1-0.983,1.791-0.983c0.592,0,1.104,0.191,1.463,0.567
		c0.225,0.224,0.385,0.472,0.48,0.735c0.199,0.552,0.304,1.191,0.304,1.855c0,0.968-0.208,1.823-0.56,2.311
		c-0.4,0.56-0.959,0.84-1.695,0.84C166.99,47.748,166.494,47.555,166.119,47.179z M166.582,42.398
		c-0.168,0.185-0.295,0.384-0.359,0.584c-0.168,0.487-0.248,1.031-0.248,1.615c0,0.743,0.16,1.527,0.376,1.902
		c0.28,0.464,0.696,0.696,1.239,0.696c0.4,0,0.744-0.128,0.984-0.376c0.176-0.184,0.303-0.392,0.375-0.624
		c0.168-0.495,0.248-1.023,0.248-1.615c0-0.695-0.152-1.486-0.359-1.862c-0.264-0.479-0.696-0.728-1.256-0.728
		C167.166,41.991,166.838,42.126,166.582,42.398z"/>
	<path fill="#231815" d="M171.375,47.179c-0.217-0.216-0.385-0.464-0.48-0.735c-0.199-0.56-0.303-1.191-0.303-1.847
		c0-0.848,0.184-1.711,0.463-2.175c0.384-0.647,1-0.983,1.791-0.983c0.592,0,1.104,0.191,1.463,0.567
		c0.225,0.224,0.385,0.472,0.48,0.735c0.199,0.552,0.304,1.191,0.304,1.855c0,0.968-0.208,1.823-0.56,2.311
		c-0.4,0.56-0.959,0.84-1.695,0.84C172.246,47.748,171.75,47.555,171.375,47.179z M171.838,42.398
		c-0.168,0.185-0.295,0.384-0.359,0.584c-0.168,0.487-0.248,1.031-0.248,1.615c0,0.743,0.16,1.527,0.376,1.902
		c0.28,0.464,0.696,0.696,1.239,0.696c0.4,0,0.744-0.128,0.984-0.376c0.176-0.184,0.303-0.392,0.375-0.624
		c0.168-0.495,0.248-1.023,0.248-1.615c0-0.695-0.152-1.486-0.359-1.862c-0.264-0.479-0.696-0.728-1.256-0.728
		C172.422,41.991,172.094,42.126,171.838,42.398z"/>
	<path fill="#231815" d="M155.388,57.508c0.167-0.191,0.352-0.416,0.52-0.615l2.022-2.527c0.272-0.335,0.416-0.535,0.6-0.815h0.6
		c-0.039,0.472-0.047,0.72-0.047,1.352v2.623h0.303c0.336,0,0.545-0.017,0.832-0.057v0.664c-0.296-0.04-0.496-0.056-0.84-0.056
		h-0.295v0.688c0,0.384,0.016,0.567,0.063,0.863h-0.728c0.048-0.28,0.064-0.504,0.064-0.863v-0.688h-2.144
		c-0.448,0-0.688,0.008-0.951,0.031V57.508z M158.49,55.501c0-0.424,0.008-0.68,0.047-1.087c-0.168,0.239-0.367,0.503-0.6,0.799
		l-1.838,2.319h2.391V55.501z"/>
	<path fill="#231815" d="M161.779,58.835v0.792h-0.792v-0.792H161.779z"/>
	<path fill="#231815" d="M163.507,59.179c-0.216-0.216-0.384-0.464-0.479-0.735c-0.199-0.56-0.304-1.191-0.304-1.847
		c0-0.848,0.184-1.711,0.464-2.175c0.383-0.647,0.999-0.983,1.791-0.983c0.592,0,1.104,0.191,1.463,0.567
		c0.225,0.224,0.384,0.472,0.48,0.735c0.199,0.552,0.303,1.191,0.303,1.855c0,0.968-0.207,1.823-0.559,2.311
		c-0.4,0.56-0.961,0.84-1.695,0.84C164.379,59.748,163.883,59.555,163.507,59.179z M163.971,54.398
		c-0.168,0.185-0.296,0.384-0.359,0.584c-0.168,0.487-0.248,1.031-0.248,1.615c0,0.743,0.16,1.527,0.375,1.902
		c0.28,0.464,0.696,0.696,1.24,0.696c0.399,0,0.743-0.128,0.982-0.376c0.177-0.184,0.305-0.392,0.377-0.624
		c0.168-0.495,0.248-1.023,0.248-1.615c0-0.695-0.152-1.486-0.36-1.862c-0.265-0.479-0.696-0.728-1.255-0.728
		C164.555,53.991,164.227,54.126,163.971,54.398z"/>
	<path fill="#231815" d="M168.763,59.179c-0.216-0.216-0.384-0.464-0.479-0.735c-0.199-0.56-0.304-1.191-0.304-1.847
		c0-0.848,0.184-1.711,0.464-2.175c0.383-0.647,0.999-0.983,1.791-0.983c0.592,0,1.104,0.191,1.463,0.567
		c0.225,0.224,0.384,0.472,0.48,0.735c0.199,0.552,0.303,1.191,0.303,1.855c0,0.968-0.207,1.823-0.559,2.311
		c-0.4,0.56-0.961,0.84-1.695,0.84C169.635,59.748,169.139,59.555,168.763,59.179z M169.227,54.398
		c-0.168,0.185-0.296,0.384-0.359,0.584c-0.168,0.487-0.248,1.031-0.248,1.615c0,0.743,0.16,1.527,0.375,1.902
		c0.28,0.464,0.696,0.696,1.24,0.696c0.399,0,0.743-0.128,0.982-0.376c0.177-0.184,0.305-0.392,0.377-0.624
		c0.168-0.495,0.248-1.023,0.248-1.615c0-0.695-0.152-1.486-0.36-1.862c-0.265-0.479-0.696-0.728-1.255-0.728
		C169.811,53.991,169.482,54.126,169.227,54.398z"/>
	<path fill="#231815" d="M156.547,67.87c-0.016,0.144-0.016,0.144-0.064,0.359c0.385-0.367,0.848-0.552,1.4-0.552
		c0.583,0,1.078,0.192,1.438,0.544c0.36,0.344,0.536,0.815,0.536,1.407c0,1.287-0.84,2.11-2.159,2.11
		c-0.624,0-1.144-0.184-1.527-0.543c-0.2-0.2-0.312-0.368-0.503-0.752l0.654-0.191c0.08,0.224,0.137,0.327,0.256,0.463
		c0.272,0.305,0.672,0.473,1.137,0.473c0.895,0,1.494-0.608,1.494-1.527c0-0.88-0.551-1.455-1.398-1.455
		c-0.408,0-0.76,0.111-1.048,0.336c-0.192,0.151-0.28,0.264-0.368,0.479l-0.6-0.057c0.064-0.312,0.088-0.479,0.12-0.823l0.177-1.807
		c0.016-0.232,0.023-0.328,0.023-0.48c0-0.111,0-0.144-0.016-0.344c0.248,0.032,0.375,0.04,0.848,0.04h1.646
		c0.432,0,0.615-0.016,0.936-0.063v0.68c-0.304-0.048-0.56-0.064-0.936-0.064h-1.879L156.547,67.87z"/>
	<path fill="#231815" d="M161.746,70.835v0.792h-0.791v-0.792H161.746z"/>
	<path fill="#231815" d="M162.563,69.508c0.167-0.191,0.352-0.416,0.52-0.615l2.022-2.527c0.272-0.335,0.416-0.535,0.6-0.815h0.6
		c-0.039,0.472-0.047,0.72-0.047,1.352v2.623h0.303c0.336,0,0.545-0.017,0.832-0.057v0.664c-0.296-0.04-0.496-0.056-0.84-0.056
		h-0.295v0.688c0,0.384,0.016,0.567,0.063,0.863h-0.728c0.048-0.28,0.064-0.504,0.064-0.863v-0.688h-2.144
		c-0.448,0-0.688,0.008-0.951,0.031V69.508z M165.666,67.501c0-0.424,0.008-0.68,0.047-1.087c-0.168,0.239-0.367,0.503-0.6,0.799
		l-1.838,2.319h2.391V67.501z"/>
	<path fill="#231815" d="M168.763,71.179c-0.216-0.216-0.384-0.464-0.479-0.735c-0.199-0.56-0.304-1.191-0.304-1.847
		c0-0.848,0.184-1.711,0.464-2.175c0.383-0.647,0.999-0.983,1.791-0.983c0.592,0,1.104,0.191,1.463,0.567
		c0.225,0.224,0.384,0.472,0.48,0.735c0.199,0.552,0.303,1.191,0.303,1.855c0,0.968-0.207,1.823-0.559,2.311
		c-0.4,0.56-0.961,0.84-1.695,0.84C169.635,71.748,169.139,71.555,168.763,71.179z M169.227,66.398
		c-0.168,0.185-0.296,0.384-0.359,0.584c-0.168,0.487-0.248,1.031-0.248,1.615c0,0.743,0.16,1.527,0.375,1.902
		c0.28,0.464,0.696,0.696,1.24,0.696c0.399,0,0.743-0.128,0.982-0.376c0.177-0.184,0.305-0.392,0.377-0.624
		c0.168-0.495,0.248-1.023,0.248-1.615c0-0.695-0.152-1.486-0.36-1.862c-0.265-0.479-0.696-0.728-1.255-0.728
		C169.811,65.991,169.482,66.126,169.227,66.398z"/>
	<path fill="#231815" d="M156.507,83.627c-0.503,0-0.624,0.008-0.88,0.04c0.088-0.632,0.112-0.752,0.232-1.056
		c0.199-0.504,0.535-0.943,1.039-1.375c0.28-0.24,0.297-0.248,1.224-0.88c0.792-0.535,1.056-0.888,1.056-1.375
		c0-0.607-0.512-0.999-1.328-0.999c-0.527,0-0.919,0.176-1.158,0.52c-0.152,0.216-0.225,0.407-0.28,0.808l-0.672-0.112
		c0.12-0.576,0.24-0.855,0.504-1.151c0.36-0.408,0.903-0.615,1.606-0.615c1.208,0,1.983,0.607,1.983,1.551
		c0,0.407-0.159,0.792-0.472,1.136c-0.24,0.271-0.447,0.424-1.359,1.031c-0.631,0.424-0.887,0.647-1.15,0.983
		c-0.248,0.327-0.36,0.544-0.457,0.928h2.551c0.4,0,0.672-0.017,0.977-0.057v0.672c-0.32-0.032-0.584-0.048-0.984-0.048H156.507z"/>
	<path fill="#231815" d="M161.763,82.835v0.792h-0.792v-0.792H161.763z"/>
	<path fill="#231815" d="M163.738,79.87c-0.016,0.144-0.016,0.144-0.063,0.359c0.384-0.367,0.848-0.552,1.399-0.552
		c0.584,0,1.079,0.192,1.439,0.544c0.359,0.344,0.535,0.815,0.535,1.407c0,1.287-0.84,2.11-2.158,2.11
		c-0.624,0-1.145-0.184-1.527-0.543c-0.2-0.2-0.313-0.368-0.504-0.752l0.656-0.191c0.079,0.224,0.135,0.327,0.256,0.463
		c0.271,0.305,0.671,0.473,1.135,0.473c0.896,0,1.495-0.608,1.495-1.527c0-0.88-0.552-1.455-1.399-1.455
		c-0.408,0-0.76,0.111-1.047,0.336c-0.192,0.151-0.28,0.264-0.368,0.479l-0.6-0.057c0.063-0.312,0.088-0.479,0.12-0.823l0.176-1.807
		c0.016-0.232,0.023-0.328,0.023-0.48c0-0.111,0-0.144-0.016-0.344c0.248,0.032,0.376,0.04,0.848,0.04h1.646
		c0.432,0,0.616-0.016,0.936-0.063v0.68c-0.303-0.048-0.559-0.064-0.936-0.064h-1.879L163.738,79.87z"/>
	<path fill="#231815" d="M168.938,83.627c-0.503,0-0.624,0.008-0.88,0.04c0.088-0.632,0.112-0.752,0.232-1.056
		c0.199-0.504,0.535-0.943,1.039-1.375c0.28-0.24,0.297-0.248,1.224-0.88c0.792-0.535,1.056-0.888,1.056-1.375
		c0-0.607-0.512-0.999-1.328-0.999c-0.527,0-0.919,0.176-1.158,0.52c-0.152,0.216-0.225,0.407-0.28,0.808l-0.672-0.112
		c0.12-0.576,0.24-0.855,0.504-1.151c0.36-0.408,0.903-0.615,1.606-0.615c1.208,0,1.983,0.607,1.983,1.551
		c0,0.407-0.159,0.792-0.472,1.136c-0.24,0.271-0.447,0.424-1.359,1.031c-0.631,0.424-0.887,0.647-1.15,0.983
		c-0.248,0.327-0.36,0.544-0.457,0.928h2.551c0.4,0,0.672-0.017,0.977-0.057v0.672c-0.32-0.032-0.584-0.048-0.984-0.048H168.938z"/>
</g>
<rect x="68.268" y="13.542" fill="none" stroke="#231815" stroke-width="0.75" stroke-miterlimit="10" width="38.293" height="12.167"/>
<rect x="68.268" y="0.375" fill="none" stroke="#231815" stroke-width="0.75" stroke-miterlimit="10" width="38.293" height="13.167"/>
<rect x="68.268" y="25.708" fill="none" stroke="#231815" stroke-width="0.75" stroke-miterlimit="10" width="38.293" height="12.167"/>
<rect x="68.268" y="37.875" fill="none" stroke="#231815" stroke-width="0.75" stroke-miterlimit="10" width="38.293" height="12.167"/>
<rect x="68.268" y="50.042" fill="none" stroke="#231815" stroke-width="0.75" stroke-miterlimit="10" width="38.293" height="12.167"/>
<rect x="68.268" y="62.208" fill="none" stroke="#231815" stroke-width="0.75" stroke-miterlimit="10" width="38.293" height="12.167"/>
<rect x="68.268" y="74.375" fill="none" stroke="#231815" stroke-width="0.75" stroke-miterlimit="10" width="38.293" height="12.167"/>
<rect x="106.561" y="13.542" fill="none" stroke="#231815" stroke-width="0.75" stroke-miterlimit="10" width="38.293" height="12.167"/>
<rect x="106.561" y="0.375" fill="none" stroke="#231815" stroke-width="0.75" stroke-miterlimit="10" width="38.293" height="13.167"/>
<rect x="106.561" y="25.708" fill="none" stroke="#231815" stroke-width="0.75" stroke-miterlimit="10" width="38.293" height="12.167"/>
<rect x="106.561" y="37.875" fill="none" stroke="#231815" stroke-width="0.75" stroke-miterlimit="10" width="38.293" height="12.167"/>
<rect x="106.561" y="50.042" fill="none" stroke="#231815" stroke-width="0.75" stroke-miterlimit="10" width="38.293" height="12.167"/>
<rect x="106.561" y="62.208" fill="none" stroke="#231815" stroke-width="0.75" stroke-miterlimit="10" width="38.293" height="12.167"/>
<rect x="106.561" y="74.375" fill="none" stroke="#231815" stroke-width="0.75" stroke-miterlimit="10" width="38.293" height="12.167"/>
<rect x="144.854" y="13.542" fill="none" stroke="#231815" stroke-width="0.75" stroke-miterlimit="10" width="38.293" height="12.167"/>
<rect x="144.854" y="0.375" fill="none" stroke="#231815" stroke-width="0.75" stroke-miterlimit="10" width="38.293" height="13.167"/>
<rect x="144.854" y="25.708" fill="none" stroke="#231815" stroke-width="0.75" stroke-miterlimit="10" width="38.293" height="12.167"/>
<rect x="144.854" y="37.875" fill="none" stroke="#231815" stroke-width="0.75" stroke-miterlimit="10" width="38.293" height="12.167"/>
<rect x="144.854" y="50.042" fill="none" stroke="#231815" stroke-width="0.75" stroke-miterlimit="10" width="38.293" height="12.167"/>
<rect x="144.854" y="62.208" fill="none" stroke="#231815" stroke-width="0.75" stroke-miterlimit="10" width="38.293" height="12.167"/>
<rect x="144.854" y="74.375" fill="none" stroke="#231815" stroke-width="0.75" stroke-miterlimit="10" width="38.293" height="12.167"/>
<rect x="27.768" y="13.542" fill="none" stroke="#231815" stroke-width="0.75" stroke-miterlimit="10" width="40.5" height="12.167"/>
<rect x="27.768" y="0.375" fill="none" stroke="#231815" stroke-width="0.75" stroke-miterlimit="10" width="40.5" height="13.167"/>
<rect x="0.375" y="0.375" fill="none" stroke="#231815" stroke-width="0.75" stroke-miterlimit="10" width="27.393" height="13.167"/>
<rect x="27.768" y="25.708" fill="none" stroke="#231815" stroke-width="0.75" stroke-miterlimit="10" width="40.5" height="12.167"/>
<rect x="27.768" y="37.875" fill="none" stroke="#231815" stroke-width="0.75" stroke-miterlimit="10" width="40.5" height="12.167"/>
<rect x="27.768" y="50.042" fill="none" stroke="#231815" stroke-width="0.75" stroke-miterlimit="10" width="40.5" height="12.167"/>
<rect x="27.768" y="62.208" fill="none" stroke="#231815" stroke-width="0.75" stroke-miterlimit="10" width="40.5" height="12.167"/>
<rect x="27.768" y="74.375" fill="none" stroke="#231815" stroke-width="0.75" stroke-miterlimit="10" width="40.5" height="12.167"/>
<polygon fill="none" stroke="#231815" stroke-width="0.75" stroke-miterlimit="10" points="0.375,50.042 0.375,62.208 0.375,74.375 
	0.375,86.542 27.768,86.542 27.768,74.375 27.768,62.208 27.768,50.042 "/>
<polygon fill="none" stroke="#231815" stroke-width="0.75" stroke-miterlimit="10" points="0.375,13.542 0.375,25.708 0.375,37.875 
	0.375,50.042 27.768,50.042 27.768,37.875 27.768,25.708 27.768,13.542 "/>
</svg>
