<?xml version="1.0" encoding="utf-8"?>
<!-- Generator: Adobe Illustrator 16.0.3, SVG Export Plug-In . SVG Version: 6.00 Build 0)  -->
<!DOCTYPE svg PUBLIC "-//W3C//DTD SVG 1.1//EN" "http://www.w3.org/Graphics/SVG/1.1/DTD/svg11.dtd">
<svg version="1.1" id="レイヤー_1" xmlns="http://www.w3.org/2000/svg" xmlns:xlink="http://www.w3.org/1999/xlink" x="0px"
	 y="0px" width="167.103px" height="91.162px" viewBox="0 0 167.103 91.162" enable-background="new 0 0 167.103 91.162"
	 xml:space="preserve">
<g>
	<g>
		<line fill="none" stroke="#000000" stroke-width="0.5" stroke-miterlimit="10" x1="31.436" y1="90.912" x2="31.436" y2="90.412"/>
		
			<line fill="none" stroke="#000000" stroke-width="0.5" stroke-miterlimit="10" stroke-dasharray="1.0074,1.0074" x1="31.436" y1="89.404" x2="31.436" y2="1.254"/>
		<line fill="none" stroke="#000000" stroke-width="0.5" stroke-miterlimit="10" x1="31.436" y1="0.75" x2="31.436" y2="0.25"/>
	</g>
</g>
<rect x="31.436" y="0.25" fill="#A1BEFF" stroke="#000000" stroke-width="0.5" stroke-miterlimit="10" width="40.896" height="17.596"/>
<rect x="31.436" y="24.605" fill="#A1BEFF" stroke="#000000" stroke-width="0.5" stroke-miterlimit="10" width="39.678" height="17.596"/>
<rect x="31.436" y="48.961" fill="#A1BEFF" stroke="#000000" stroke-width="0.5" stroke-miterlimit="10" width="48.072" height="17.597"/>
<rect x="31.436" y="73.315" fill="#A1BEFF" stroke="#000000" stroke-width="0.5" stroke-miterlimit="10" width="74.208" height="17.597"/>
<rect x="72.332" y="9.048" fill="none" stroke="#000000" stroke-width="0.5" stroke-miterlimit="10" width="47.531" height="8.798"/>
<rect x="71.113" y="33.403" fill="none" stroke="#000000" stroke-width="0.5" stroke-miterlimit="10" width="44.01" height="8.798"/>
<rect x="79.508" y="57.759" fill="none" stroke="#000000" stroke-width="0.5" stroke-miterlimit="10" width="44.011" height="8.799"/>
<rect x="105.644" y="82.114" fill="none" stroke="#000000" stroke-width="0.5" stroke-miterlimit="10" width="30.063" height="8.798"/>
<rect x="119.863" y="9.048" fill="none" stroke="#000000" stroke-width="0.5" stroke-miterlimit="10" width="46.989" height="8.798"/>
<polygon fill="none" stroke="#000000" stroke-width="0.5" stroke-miterlimit="10" points="119.863,0.25 72.332,0.25 72.332,9.048 
	119.863,9.048 166.853,9.048 166.853,0.25 "/>
<rect x="115.123" y="33.403" fill="none" stroke="#000000" stroke-width="0.5" stroke-miterlimit="10" width="51.729" height="8.798"/>
<polygon fill="none" stroke="#000000" stroke-width="0.5" stroke-miterlimit="10" points="115.123,24.605 71.113,24.605 
	71.113,33.403 115.123,33.403 166.853,33.403 166.853,24.605 "/>
<rect x="123.519" y="57.759" fill="none" stroke="#000000" stroke-width="0.5" stroke-miterlimit="10" width="43.334" height="8.799"/>
<polygon fill="none" stroke="#000000" stroke-width="0.5" stroke-miterlimit="10" points="123.519,48.961 79.508,48.961 
	79.508,57.839 123.519,57.839 166.853,57.839 166.853,48.961 "/>
<rect x="135.706" y="82.114" fill="none" stroke="#000000" stroke-width="0.5" stroke-miterlimit="10" width="31.146" height="8.798"/>
<polygon fill="none" stroke="#000000" stroke-width="0.5" stroke-miterlimit="10" points="135.706,73.315 105.644,73.315 
	105.644,82.113 135.706,82.113 166.853,82.113 166.853,73.315 "/>
<g>
	<path d="M2.671,2.892C2.853,2.92,2.985,2.927,3.252,2.927h0.441c0.238,0,0.35-0.007,0.581-0.035
		C4.232,3.319,4.211,3.677,4.211,4.055v3.404c0,0.329,0.015,0.532,0.057,0.791H3.603c0.042-0.245,0.056-0.47,0.056-0.791V3.403H3.28
		c-0.225,0-0.406,0.014-0.609,0.042V2.892z"/>
	<path d="M7.171,7.087c0.084,0.231,0.141,0.33,0.252,0.448c0.196,0.218,0.498,0.33,0.883,0.33c0.504,0,0.868-0.203,1.128-0.645
		c0.133-0.225,0.245-0.567,0.301-0.896c0.028-0.176,0.049-0.463,0.063-0.819c-0.099,0.188-0.154,0.259-0.28,0.392
		c-0.357,0.336-0.75,0.49-1.274,0.49c-0.519,0-0.96-0.161-1.261-0.462C6.681,5.624,6.506,5.161,6.506,4.664
		c0-1.113,0.749-1.842,1.898-1.842c0.784,0,1.429,0.448,1.694,1.177c0.141,0.378,0.203,0.854,0.203,1.456
		c0,0.974-0.203,1.766-0.581,2.234C9.37,8.131,8.908,8.341,8.264,8.341c-0.483,0-0.875-0.126-1.177-0.378
		C6.891,7.802,6.779,7.641,6.597,7.27L7.171,7.087z M9.664,4.622c0-0.757-0.56-1.324-1.31-1.324c-0.462,0-0.882,0.225-1.113,0.596
		C7.129,4.076,7.06,4.355,7.06,4.629c0,0.792,0.482,1.289,1.246,1.289C9.083,5.918,9.664,5.364,9.664,4.622z"/>
	<path d="M11.924,8.25c-0.441,0-0.546,0.007-0.771,0.035c0.077-0.554,0.099-0.658,0.203-0.925c0.175-0.441,0.47-0.826,0.91-1.204
		c0.245-0.211,0.26-0.218,1.072-0.771c0.693-0.47,0.924-0.777,0.924-1.205c0-0.532-0.448-0.875-1.162-0.875
		c-0.462,0-0.806,0.153-1.016,0.455c-0.133,0.188-0.196,0.357-0.245,0.707L11.252,4.37c0.104-0.505,0.21-0.75,0.44-1.009
		c0.315-0.357,0.792-0.539,1.408-0.539c1.058,0,1.737,0.532,1.737,1.358c0,0.357-0.141,0.693-0.414,0.995
		c-0.21,0.237-0.392,0.371-1.19,0.903c-0.553,0.371-0.777,0.567-1.009,0.861c-0.217,0.287-0.314,0.477-0.398,0.813h2.233
		c0.351,0,0.589-0.015,0.854-0.049v0.588c-0.279-0.028-0.511-0.042-0.861-0.042H11.924z"/>
	<path d="M16.368,7.087c0.084,0.231,0.141,0.33,0.252,0.448c0.196,0.218,0.498,0.33,0.883,0.33c0.504,0,0.868-0.203,1.128-0.645
		c0.133-0.225,0.245-0.567,0.301-0.896c0.028-0.176,0.049-0.463,0.063-0.819c-0.099,0.188-0.154,0.259-0.28,0.392
		c-0.357,0.336-0.75,0.49-1.274,0.49c-0.519,0-0.96-0.161-1.261-0.462c-0.302-0.301-0.477-0.764-0.477-1.261
		c0-1.113,0.749-1.842,1.898-1.842c0.784,0,1.429,0.448,1.694,1.177c0.141,0.378,0.203,0.854,0.203,1.456
		c0,0.974-0.203,1.766-0.581,2.234c-0.351,0.441-0.813,0.651-1.457,0.651c-0.483,0-0.875-0.126-1.177-0.378
		c-0.196-0.161-0.308-0.322-0.49-0.693L16.368,7.087z M18.861,4.622c0-0.757-0.56-1.324-1.31-1.324
		c-0.462,0-0.882,0.225-1.113,0.596c-0.112,0.183-0.182,0.462-0.182,0.735c0,0.792,0.482,1.289,1.246,1.289
		C18.28,5.918,18.861,5.364,18.861,4.622z"/>
	<path d="M23.313,5.225c0-0.154-0.007-0.273-0.021-0.413c0.147,0.014,0.302,0.021,0.498,0.021h1.52V3.69h-1.646
		c-0.356,0.596-0.693,1.009-1.162,1.429c-0.112-0.161-0.183-0.231-0.336-0.336c0.693-0.589,1.071-1.1,1.4-1.884
		c0.091-0.203,0.14-0.364,0.175-0.512l0.498,0.141c-0.028,0.056-0.05,0.104-0.092,0.188L23.88,3.284h3.474
		c0.309,0,0.455-0.007,0.631-0.035v0.477c-0.176-0.028-0.344-0.035-0.631-0.035h-1.583v1.142h1.268c0.287,0,0.441-0.007,0.624-0.035
		V5.26c-0.183-0.021-0.351-0.028-0.617-0.028h-1.274v1.373h1.766c0.314,0,0.511-0.015,0.707-0.042v0.504
		c-0.203-0.028-0.42-0.042-0.707-0.042h-1.766V8.18c0,0.302,0.015,0.47,0.049,0.651h-0.553c0.035-0.175,0.042-0.329,0.042-0.651
		V7.024H22.78c-0.287,0-0.505,0.014-0.708,0.042V6.563c0.203,0.027,0.399,0.042,0.708,0.042h0.532V5.225z M25.309,6.604V5.231
		h-1.541v1.373H25.309z"/>
</g>
<g>
	<path d="M0.589,10.883c0.155,0.023,0.27,0.029,0.497,0.029h0.378c0.204,0,0.3-0.006,0.498-0.029
		c-0.036,0.365-0.054,0.671-0.054,0.995v2.914c0,0.282,0.012,0.456,0.048,0.678h-0.57c0.036-0.21,0.048-0.401,0.048-0.678V11.32
		H1.11c-0.192,0-0.348,0.012-0.521,0.036V10.883z"/>
	<path d="M4.435,15.134c-0.161-0.162-0.287-0.348-0.359-0.552c-0.15-0.42-0.228-0.894-0.228-1.385c0-0.636,0.138-1.283,0.348-1.631
		c0.288-0.486,0.749-0.738,1.343-0.738c0.444,0,0.828,0.145,1.098,0.426c0.168,0.168,0.288,0.354,0.359,0.552
		c0.15,0.414,0.229,0.894,0.229,1.392c0,0.726-0.156,1.367-0.42,1.732c-0.3,0.42-0.72,0.63-1.271,0.63
		C5.089,15.56,4.717,15.416,4.435,15.134z M4.783,11.548c-0.126,0.138-0.223,0.288-0.271,0.438
		c-0.126,0.366-0.186,0.774-0.186,1.212c0,0.558,0.12,1.146,0.281,1.427c0.21,0.348,0.522,0.522,0.93,0.522
		c0.3,0,0.558-0.097,0.738-0.282c0.132-0.138,0.228-0.294,0.281-0.468c0.126-0.372,0.187-0.768,0.187-1.211
		c0-0.522-0.114-1.116-0.271-1.397c-0.197-0.36-0.521-0.546-0.941-0.546C5.221,11.242,4.975,11.344,4.783,11.548z"/>
	<path d="M11.058,11.32c-0.107,0.084-0.21,0.216-0.443,0.575c-0.54,0.834-0.792,1.344-1.025,2.075
		c-0.156,0.498-0.222,0.804-0.318,1.499H8.701c0.191-1.085,0.354-1.625,0.726-2.393c0.288-0.6,0.546-1.014,1.079-1.739H8.558
		c-0.282,0-0.45,0.013-0.678,0.042v-0.51c0.233,0.03,0.396,0.042,0.684,0.042h1.799c0.354,0,0.485-0.006,0.695-0.029V11.32z"/>
	<path d="M12.464,14.876v0.594H11.87v-0.594H12.464z"/>
	<path d="M13.075,13.881c0.126-0.144,0.265-0.312,0.391-0.462l1.517-1.895c0.204-0.252,0.312-0.402,0.45-0.612h0.449
		c-0.03,0.354-0.036,0.54-0.036,1.014v1.967h0.229c0.252,0,0.407-0.012,0.623-0.042v0.498c-0.222-0.03-0.371-0.042-0.629-0.042
		h-0.223v0.516c0,0.288,0.013,0.426,0.048,0.647h-0.545c0.035-0.21,0.048-0.378,0.048-0.647v-0.516h-1.607
		c-0.336,0-0.516,0.006-0.714,0.023V13.881z M15.402,12.376c0-0.318,0.006-0.51,0.036-0.816c-0.126,0.181-0.276,0.378-0.45,0.601
		l-1.379,1.738h1.793V12.376z"/>
	<path d="M19.267,13.461c0-0.294,0.007-0.636,0.024-0.882c-0.174,0.336-0.3,0.54-0.527,0.822c-0.072-0.132-0.15-0.252-0.234-0.349
		c0.438-0.497,0.773-1.091,1.037-1.853c0.108-0.317,0.174-0.569,0.198-0.773l0.414,0.102c-0.042,0.09-0.055,0.145-0.103,0.3
		c-0.09,0.306-0.27,0.773-0.443,1.17V15.2c0,0.359,0.006,0.539,0.024,0.749h-0.426c0.029-0.216,0.035-0.396,0.035-0.737V13.461z
		 M20.767,14.553c-0.15,0.533-0.288,0.827-0.57,1.241l-0.317-0.216c0.317-0.384,0.443-0.648,0.563-1.134L20.767,14.553z
		 M23.278,10.979c0.282,0,0.438-0.006,0.606-0.03v0.348c-0.174-0.018-0.36-0.023-0.606-0.023h-0.161
		c-0.066,0.168-0.162,0.371-0.271,0.569h0.642c0.3,0,0.45-0.006,0.606-0.03v0.366c-0.181-0.024-0.313-0.03-0.606-0.03h-2.926
		c-0.271,0-0.408,0.006-0.588,0.03v-0.366c0.156,0.024,0.3,0.03,0.588,0.03h0.623c-0.071-0.21-0.155-0.396-0.258-0.569h-0.071
		c-0.271,0-0.42,0.006-0.594,0.023v-0.348c0.155,0.024,0.323,0.03,0.594,0.03h0.941v-0.096c0-0.168-0.006-0.282-0.03-0.391h0.438
		c-0.023,0.12-0.029,0.217-0.029,0.396v0.09H23.278z M20.982,14.175c-0.3,0-0.444,0.006-0.612,0.023
		c0.019-0.203,0.024-0.281,0.024-0.605v-0.563c0-0.258-0.006-0.384-0.024-0.527c0.156,0.018,0.276,0.023,0.588,0.023h2.081
		c0.306,0,0.42-0.006,0.588-0.023c-0.019,0.132-0.024,0.275-0.024,0.527v0.563c0,0.318,0.006,0.426,0.024,0.605
		c-0.162-0.018-0.307-0.023-0.618-0.023H20.982z M20.748,13.197h2.495v-0.384h-2.495V13.197z M20.748,13.887h2.495v-0.408h-2.495
		V13.887z M21.479,14.385c-0.029,0.138-0.036,0.228-0.036,0.449v0.534c0,0.144,0.078,0.168,0.636,0.168
		c0.426,0,0.636-0.024,0.689-0.09c0.055-0.061,0.072-0.192,0.078-0.492c0.108,0.054,0.198,0.078,0.33,0.102
		c-0.03,0.408-0.078,0.576-0.186,0.66c-0.108,0.09-0.414,0.126-1.02,0.126c-0.714,0-0.882-0.072-0.882-0.378V14.84
		c0-0.186-0.012-0.306-0.036-0.455H21.479z M22.469,11.842c0.108-0.198,0.192-0.378,0.259-0.569h-1.41
		c0.072,0.144,0.156,0.348,0.246,0.569H22.469z M21.899,14.259c0.318,0.246,0.504,0.407,0.726,0.653l-0.264,0.228
		c-0.222-0.281-0.401-0.461-0.695-0.689L21.899,14.259z M23.375,14.421c0.354,0.426,0.527,0.671,0.779,1.121l-0.312,0.21
		c-0.246-0.504-0.42-0.773-0.75-1.157L23.375,14.421z"/>
	<path d="M25.405,15.26c0,0.378,0.006,0.498,0.029,0.636h-0.468c0.024-0.162,0.036-0.336,0.036-0.653v-3.856
		c0-0.228-0.006-0.371-0.023-0.533c0.155,0.018,0.306,0.023,0.552,0.023h3.657c0.258,0,0.408-0.006,0.552-0.023
		c-0.018,0.168-0.023,0.3-0.023,0.552v3.934c0,0.359-0.132,0.443-0.714,0.443c-0.24,0-0.569-0.012-0.857-0.035
		c-0.019-0.15-0.042-0.246-0.096-0.391c0.419,0.049,0.713,0.072,0.947,0.072c0.264,0,0.317-0.023,0.317-0.138v-1.865h-3.909V15.26z
		 M27.114,11.242h-1.709v1.823h1.709V11.242z M29.314,13.065v-1.823h-1.811v1.823H29.314z"/>
</g>
<g>
	<path d="M2.671,26.843c0.182,0.028,0.314,0.035,0.581,0.035h0.441c0.238,0,0.35-0.007,0.581-0.035
		c-0.042,0.428-0.063,0.785-0.063,1.163v3.404c0,0.329,0.015,0.532,0.057,0.791H3.603c0.042-0.245,0.056-0.47,0.056-0.791v-4.056
		H3.28c-0.225,0-0.406,0.014-0.609,0.042V26.843z"/>
	<path d="M7.171,31.038c0.084,0.231,0.141,0.33,0.252,0.448c0.196,0.218,0.498,0.33,0.883,0.33c0.504,0,0.868-0.203,1.128-0.645
		c0.133-0.225,0.245-0.567,0.301-0.896c0.028-0.176,0.049-0.463,0.063-0.819c-0.099,0.188-0.154,0.259-0.28,0.392
		c-0.357,0.336-0.75,0.49-1.274,0.49c-0.519,0-0.96-0.161-1.261-0.462c-0.302-0.301-0.477-0.764-0.477-1.261
		c0-1.113,0.749-1.842,1.898-1.842c0.784,0,1.429,0.448,1.694,1.177c0.141,0.378,0.203,0.854,0.203,1.456
		c0,0.974-0.203,1.766-0.581,2.234c-0.351,0.441-0.813,0.651-1.457,0.651c-0.483,0-0.875-0.126-1.177-0.378
		c-0.196-0.161-0.308-0.322-0.49-0.693L7.171,31.038z M9.664,28.573c0-0.757-0.56-1.324-1.31-1.324
		c-0.462,0-0.882,0.225-1.113,0.596C7.129,28.027,7.06,28.307,7.06,28.58c0,0.792,0.482,1.289,1.246,1.289
		C9.083,29.869,9.664,29.315,9.664,28.573z"/>
	<path d="M11.644,30.905c0.112,0.364,0.21,0.512,0.428,0.666c0.238,0.168,0.546,0.252,0.903,0.252c0.813,0,1.323-0.421,1.323-1.086
		c0-0.693-0.497-1.071-1.429-1.071c-0.196,0-0.371,0.014-0.56,0.035v-0.554c0.16,0.028,0.329,0.042,0.518,0.042
		c0.463,0,0.806-0.105,1.022-0.322c0.176-0.168,0.28-0.427,0.28-0.68c0-0.602-0.42-0.952-1.127-0.952
		c-0.428,0-0.736,0.119-0.932,0.371c-0.099,0.126-0.147,0.238-0.225,0.497l-0.581-0.126c0.119-0.356,0.203-0.518,0.378-0.7
		c0.309-0.336,0.784-0.511,1.394-0.511c1.016,0,1.66,0.532,1.66,1.372c0,0.428-0.182,0.806-0.49,1.022
		c-0.182,0.134-0.336,0.189-0.658,0.253c0.406,0.042,0.623,0.118,0.861,0.301c0.309,0.238,0.47,0.609,0.47,1.058
		c0,0.945-0.729,1.534-1.898,1.534c-0.707,0-1.232-0.196-1.568-0.575c-0.147-0.168-0.231-0.321-0.357-0.679L11.644,30.905z"/>
	<path d="M16.467,26.843c0.182,0.028,0.314,0.035,0.581,0.035h0.441c0.238,0,0.35-0.007,0.581-0.035
		c-0.042,0.428-0.063,0.785-0.063,1.163v3.404c0,0.329,0.015,0.532,0.057,0.791h-0.665c0.042-0.245,0.056-0.47,0.056-0.791v-4.056
		h-0.378c-0.225,0-0.406,0.014-0.609,0.042V26.843z"/>
	<path d="M23.313,29.176c0-0.154-0.007-0.273-0.021-0.413c0.147,0.014,0.302,0.021,0.498,0.021h1.52v-1.142h-1.646
		c-0.356,0.596-0.693,1.009-1.162,1.429c-0.112-0.161-0.183-0.231-0.336-0.336c0.693-0.589,1.071-1.1,1.4-1.884
		c0.091-0.203,0.14-0.364,0.175-0.512l0.498,0.141c-0.028,0.056-0.05,0.104-0.092,0.188l-0.266,0.567h3.474
		c0.309,0,0.455-0.007,0.631-0.035v0.477c-0.176-0.028-0.344-0.035-0.631-0.035h-1.583v1.142h1.268c0.287,0,0.441-0.007,0.624-0.035
		v0.463c-0.183-0.021-0.351-0.028-0.617-0.028h-1.274v1.373h1.766c0.314,0,0.511-0.015,0.707-0.042v0.504
		c-0.203-0.028-0.42-0.042-0.707-0.042h-1.766v1.155c0,0.302,0.015,0.47,0.049,0.651h-0.553c0.035-0.175,0.042-0.329,0.042-0.651
		v-1.155H22.78c-0.287,0-0.505,0.014-0.708,0.042v-0.504c0.203,0.027,0.399,0.042,0.708,0.042h0.532V29.176z M25.309,30.556v-1.373
		h-1.541v1.373H25.309z"/>
</g>
<g>
	<path d="M7.139,35.271c-0.107,0.084-0.21,0.216-0.443,0.575c-0.54,0.834-0.792,1.344-1.025,2.075
		c-0.156,0.498-0.222,0.804-0.318,1.499H4.782c0.191-1.085,0.354-1.625,0.726-2.393c0.288-0.6,0.546-1.014,1.079-1.739H4.639
		c-0.282,0-0.45,0.013-0.678,0.042v-0.51c0.233,0.03,0.396,0.042,0.684,0.042h1.799c0.354,0,0.485-0.006,0.695-0.029V35.271z"/>
	<path d="M10.728,37.292c0.3,0.222,0.449,0.54,0.449,0.941c0,0.822-0.6,1.283-1.654,1.283c-1.098,0-1.703-0.455-1.703-1.283
		c0-0.432,0.174-0.762,0.533-0.995c0.187-0.12,0.318-0.168,0.54-0.204c-0.527-0.096-0.869-0.521-0.869-1.079
		c0-0.726,0.569-1.188,1.475-1.188c0.918,0,1.481,0.45,1.481,1.188c0,0.558-0.336,0.978-0.87,1.079
		C10.361,37.07,10.529,37.143,10.728,37.292z M8.311,38.204c0,0.569,0.438,0.905,1.182,0.905c0.42,0,0.762-0.108,0.966-0.312
		c0.149-0.139,0.228-0.349,0.228-0.594c0-0.588-0.45-0.941-1.188-0.941S8.311,37.622,8.311,38.204z M8.491,35.991
		c0,0.533,0.383,0.857,1.013,0.857s1.008-0.324,1.008-0.857c0-0.504-0.396-0.822-1.014-0.822
		C8.887,35.169,8.491,35.493,8.491,35.991z"/>
	<path d="M12.487,38.827v0.594h-0.594v-0.594H12.487z"/>
	<path d="M16.109,37.292c0.3,0.222,0.45,0.54,0.45,0.941c0,0.822-0.601,1.283-1.655,1.283c-1.098,0-1.703-0.455-1.703-1.283
		c0-0.432,0.174-0.762,0.533-0.995c0.187-0.12,0.318-0.168,0.54-0.204c-0.527-0.096-0.869-0.521-0.869-1.079
		c0-0.726,0.569-1.188,1.475-1.188c0.918,0,1.481,0.45,1.481,1.188c0,0.558-0.336,0.978-0.87,1.079
		C15.743,37.07,15.911,37.143,16.109,37.292z M13.692,38.204c0,0.569,0.438,0.905,1.182,0.905c0.42,0,0.762-0.108,0.966-0.312
		c0.149-0.139,0.228-0.349,0.228-0.594c0-0.588-0.45-0.941-1.188-0.941S13.692,37.622,13.692,38.204z M13.872,35.991
		c0,0.533,0.385,0.857,1.014,0.857c0.63,0,1.008-0.324,1.008-0.857c0-0.504-0.396-0.822-1.014-0.822
		C14.269,35.169,13.872,35.493,13.872,35.991z"/>
	<path d="M19.267,37.412c0-0.294,0.007-0.636,0.024-0.882c-0.174,0.336-0.3,0.54-0.527,0.822c-0.072-0.132-0.15-0.252-0.234-0.349
		c0.438-0.497,0.773-1.091,1.037-1.853c0.108-0.317,0.174-0.569,0.198-0.773l0.414,0.102c-0.042,0.09-0.055,0.145-0.103,0.3
		c-0.09,0.306-0.27,0.773-0.443,1.17v3.202c0,0.359,0.006,0.539,0.024,0.749h-0.426c0.029-0.216,0.035-0.396,0.035-0.737V37.412z
		 M20.767,38.504c-0.15,0.533-0.288,0.827-0.57,1.241l-0.317-0.216c0.317-0.384,0.443-0.648,0.563-1.134L20.767,38.504z
		 M23.278,34.93c0.282,0,0.438-0.006,0.606-0.03v0.348c-0.174-0.018-0.36-0.023-0.606-0.023h-0.161
		c-0.066,0.168-0.162,0.371-0.271,0.569h0.642c0.3,0,0.45-0.006,0.606-0.03v0.366c-0.181-0.024-0.313-0.03-0.606-0.03h-2.926
		c-0.271,0-0.408,0.006-0.588,0.03v-0.366c0.156,0.024,0.3,0.03,0.588,0.03h0.623c-0.071-0.21-0.155-0.396-0.258-0.569h-0.071
		c-0.271,0-0.42,0.006-0.594,0.023v-0.348c0.155,0.024,0.323,0.03,0.594,0.03h0.941v-0.096c0-0.168-0.006-0.282-0.03-0.391h0.438
		c-0.023,0.12-0.029,0.217-0.029,0.396v0.09H23.278z M20.982,38.126c-0.3,0-0.444,0.006-0.612,0.023
		c0.019-0.203,0.024-0.281,0.024-0.605V36.98c0-0.258-0.006-0.384-0.024-0.527c0.156,0.018,0.276,0.023,0.588,0.023h2.081
		c0.306,0,0.42-0.006,0.588-0.023c-0.019,0.132-0.024,0.275-0.024,0.527v0.563c0,0.318,0.006,0.426,0.024,0.605
		c-0.162-0.018-0.307-0.023-0.618-0.023H20.982z M20.748,37.148h2.495v-0.384h-2.495V37.148z M20.748,37.838h2.495V37.43h-2.495
		V37.838z M21.479,38.336c-0.029,0.138-0.036,0.228-0.036,0.449v0.534c0,0.144,0.078,0.168,0.636,0.168
		c0.426,0,0.636-0.024,0.689-0.09c0.055-0.061,0.072-0.192,0.078-0.492c0.108,0.054,0.198,0.078,0.33,0.102
		c-0.03,0.408-0.078,0.576-0.186,0.66c-0.108,0.09-0.414,0.126-1.02,0.126c-0.714,0-0.882-0.072-0.882-0.378v-0.624
		c0-0.186-0.012-0.306-0.036-0.455H21.479z M22.469,35.793c0.108-0.198,0.192-0.378,0.259-0.569h-1.41
		c0.072,0.144,0.156,0.348,0.246,0.569H22.469z M21.899,38.21c0.318,0.246,0.504,0.407,0.726,0.653l-0.264,0.228
		c-0.222-0.281-0.401-0.461-0.695-0.689L21.899,38.21z M23.375,38.372c0.354,0.426,0.527,0.671,0.779,1.121l-0.312,0.21
		c-0.246-0.504-0.42-0.773-0.75-1.157L23.375,38.372z"/>
	<path d="M25.405,39.211c0,0.378,0.006,0.498,0.029,0.636h-0.468c0.024-0.162,0.036-0.336,0.036-0.653v-3.856
		c0-0.228-0.006-0.371-0.023-0.533c0.155,0.018,0.306,0.023,0.552,0.023h3.657c0.258,0,0.408-0.006,0.552-0.023
		c-0.018,0.168-0.023,0.3-0.023,0.552v3.934c0,0.359-0.132,0.443-0.714,0.443c-0.24,0-0.569-0.012-0.857-0.035
		c-0.019-0.15-0.042-0.246-0.096-0.391c0.419,0.049,0.713,0.072,0.947,0.072c0.264,0,0.317-0.023,0.317-0.138v-1.865h-3.909V39.211z
		 M27.114,35.193h-1.709v1.823h1.709V35.193z M29.314,37.017v-1.823h-1.811v1.823H29.314z"/>
</g>
<g>
	<path d="M2.671,51.241c0.182,0.028,0.314,0.035,0.581,0.035h0.441c0.238,0,0.35-0.007,0.581-0.035
		c-0.042,0.428-0.063,0.785-0.063,1.163v3.404c0,0.329,0.015,0.532,0.057,0.791H3.603c0.042-0.245,0.056-0.47,0.056-0.791v-4.056
		H3.28c-0.225,0-0.406,0.014-0.609,0.042V51.241z"/>
	<path d="M7.171,55.437c0.084,0.231,0.141,0.33,0.252,0.448c0.196,0.218,0.498,0.33,0.883,0.33c0.504,0,0.868-0.203,1.128-0.645
		c0.133-0.225,0.245-0.567,0.301-0.896c0.028-0.176,0.049-0.463,0.063-0.819c-0.099,0.188-0.154,0.259-0.28,0.392
		c-0.357,0.336-0.75,0.49-1.274,0.49c-0.519,0-0.96-0.161-1.261-0.462c-0.302-0.301-0.477-0.764-0.477-1.261
		c0-1.113,0.749-1.842,1.898-1.842c0.784,0,1.429,0.448,1.694,1.177c0.141,0.378,0.203,0.854,0.203,1.456
		c0,0.974-0.203,1.766-0.581,2.234C9.37,56.48,8.908,56.69,8.264,56.69c-0.483,0-0.875-0.126-1.177-0.378
		c-0.196-0.161-0.308-0.322-0.49-0.693L7.171,55.437z M9.664,52.972c0-0.757-0.56-1.324-1.31-1.324
		c-0.462,0-0.882,0.225-1.113,0.596c-0.112,0.183-0.182,0.462-0.182,0.735c0,0.792,0.482,1.289,1.246,1.289
		C9.083,54.268,9.664,53.714,9.664,52.972z"/>
	<path d="M11.644,55.304c0.112,0.364,0.21,0.512,0.428,0.666c0.238,0.168,0.546,0.252,0.903,0.252c0.813,0,1.323-0.421,1.323-1.086
		c0-0.693-0.497-1.071-1.429-1.071c-0.196,0-0.371,0.014-0.56,0.035v-0.554c0.16,0.028,0.329,0.042,0.518,0.042
		c0.463,0,0.806-0.105,1.022-0.322c0.176-0.168,0.28-0.427,0.28-0.68c0-0.602-0.42-0.952-1.127-0.952
		c-0.428,0-0.736,0.119-0.932,0.371c-0.099,0.126-0.147,0.238-0.225,0.497l-0.581-0.126c0.119-0.356,0.203-0.518,0.378-0.7
		c0.309-0.336,0.784-0.511,1.394-0.511c1.016,0,1.66,0.532,1.66,1.372c0,0.428-0.182,0.806-0.49,1.022
		c-0.182,0.134-0.336,0.189-0.658,0.253c0.406,0.042,0.623,0.118,0.861,0.301c0.309,0.238,0.47,0.609,0.47,1.058
		c0,0.945-0.729,1.534-1.898,1.534c-0.707,0-1.232-0.196-1.568-0.575c-0.147-0.168-0.231-0.321-0.357-0.679L11.644,55.304z"/>
	<path d="M16.242,55.304c0.112,0.364,0.21,0.512,0.428,0.666c0.237,0.168,0.546,0.252,0.903,0.252c0.813,0,1.323-0.421,1.323-1.086
		c0-0.693-0.497-1.071-1.429-1.071c-0.196,0-0.371,0.014-0.561,0.035v-0.554c0.161,0.028,0.33,0.042,0.519,0.042
		c0.463,0,0.806-0.105,1.022-0.322c0.176-0.168,0.28-0.427,0.28-0.68c0-0.602-0.42-0.952-1.127-0.952
		c-0.428,0-0.736,0.119-0.932,0.371c-0.099,0.126-0.147,0.238-0.225,0.497l-0.581-0.126c0.119-0.356,0.203-0.518,0.378-0.7
		c0.309-0.336,0.784-0.511,1.394-0.511c1.016,0,1.66,0.532,1.66,1.372c0,0.428-0.182,0.806-0.49,1.022
		c-0.182,0.134-0.336,0.189-0.658,0.253c0.406,0.042,0.623,0.118,0.861,0.301c0.309,0.238,0.47,0.609,0.47,1.058
		c0,0.945-0.729,1.534-1.898,1.534c-0.707,0-1.232-0.196-1.569-0.575c-0.146-0.168-0.23-0.321-0.356-0.679L16.242,55.304z"/>
	<path d="M23.313,53.574c0-0.154-0.007-0.273-0.021-0.413c0.147,0.014,0.302,0.021,0.498,0.021h1.52V52.04h-1.646
		c-0.356,0.596-0.693,1.009-1.162,1.429c-0.112-0.161-0.183-0.231-0.336-0.336c0.693-0.589,1.071-1.1,1.4-1.884
		c0.091-0.203,0.14-0.364,0.175-0.512l0.498,0.141c-0.028,0.056-0.05,0.104-0.092,0.188l-0.266,0.567h3.474
		c0.309,0,0.455-0.007,0.631-0.035v0.477c-0.176-0.028-0.344-0.035-0.631-0.035h-1.583v1.142h1.268c0.287,0,0.441-0.007,0.624-0.035
		v0.463c-0.183-0.021-0.351-0.028-0.617-0.028h-1.274v1.373h1.766c0.314,0,0.511-0.015,0.707-0.042v0.504
		c-0.203-0.028-0.42-0.042-0.707-0.042h-1.766v1.155c0,0.302,0.015,0.47,0.049,0.651h-0.553c0.035-0.175,0.042-0.329,0.042-0.651
		v-1.155H22.78c-0.287,0-0.505,0.014-0.708,0.042v-0.504c0.203,0.027,0.399,0.042,0.708,0.042h0.532V53.574z M25.309,54.954v-1.373
		h-1.541v1.373H25.309z"/>
</g>
<g>
	<path d="M0.612,59.232c0.155,0.023,0.27,0.029,0.497,0.029h0.378c0.204,0,0.3-0.006,0.498-0.029
		c-0.036,0.365-0.054,0.671-0.054,0.995v2.914c0,0.282,0.012,0.456,0.048,0.678h-0.57c0.036-0.21,0.048-0.401,0.048-0.678V59.67
		H1.134c-0.192,0-0.348,0.012-0.521,0.036V59.232z"/>
	<path d="M4.555,59.232c0.155,0.023,0.27,0.029,0.497,0.029H5.43c0.204,0,0.3-0.006,0.498-0.029
		c-0.036,0.365-0.054,0.671-0.054,0.995v2.914c0,0.282,0.012,0.456,0.048,0.678h-0.57c0.036-0.21,0.048-0.401,0.048-0.678V59.67
		H5.076c-0.192,0-0.348,0.012-0.521,0.036V59.232z"/>
	<path d="M8.497,59.232c0.155,0.023,0.27,0.029,0.497,0.029h0.378c0.204,0,0.3-0.006,0.498-0.029
		c-0.036,0.365-0.054,0.671-0.054,0.995v2.914c0,0.282,0.012,0.456,0.048,0.678h-0.57c0.036-0.21,0.048-0.401,0.048-0.678V59.67
		H9.019c-0.192,0-0.348,0.012-0.521,0.036V59.232z"/>
	<path d="M12.487,63.226v0.594h-0.594v-0.594H12.487z"/>
	<path d="M16.463,59.67c-0.107,0.084-0.21,0.216-0.443,0.575c-0.54,0.834-0.792,1.344-1.025,2.075
		c-0.156,0.498-0.222,0.804-0.318,1.499h-0.569c0.191-1.085,0.354-1.625,0.726-2.393c0.288-0.6,0.546-1.014,1.079-1.739h-1.948
		c-0.282,0-0.45,0.013-0.678,0.042v-0.51c0.233,0.03,0.396,0.042,0.684,0.042h1.799c0.354,0,0.485-0.006,0.695-0.029V59.67z"/>
	<path d="M19.267,61.811c0-0.294,0.007-0.636,0.024-0.882c-0.174,0.336-0.3,0.54-0.527,0.822c-0.072-0.132-0.15-0.252-0.234-0.349
		c0.438-0.497,0.773-1.091,1.037-1.853c0.108-0.317,0.174-0.569,0.198-0.773l0.414,0.102c-0.042,0.09-0.055,0.145-0.103,0.3
		c-0.09,0.306-0.27,0.773-0.443,1.17v3.202c0,0.359,0.006,0.539,0.024,0.749h-0.426c0.029-0.216,0.035-0.396,0.035-0.737V61.811z
		 M20.767,62.902c-0.15,0.533-0.288,0.827-0.57,1.241l-0.317-0.216c0.317-0.384,0.443-0.648,0.563-1.134L20.767,62.902z
		 M23.278,59.328c0.282,0,0.438-0.006,0.606-0.03v0.348c-0.174-0.018-0.36-0.023-0.606-0.023h-0.161
		c-0.066,0.168-0.162,0.371-0.271,0.569h0.642c0.3,0,0.45-0.006,0.606-0.03v0.366c-0.181-0.024-0.313-0.03-0.606-0.03h-2.926
		c-0.271,0-0.408,0.006-0.588,0.03v-0.366c0.156,0.024,0.3,0.03,0.588,0.03h0.623c-0.071-0.21-0.155-0.396-0.258-0.569h-0.071
		c-0.271,0-0.42,0.006-0.594,0.023v-0.348c0.155,0.024,0.323,0.03,0.594,0.03h0.941v-0.096c0-0.168-0.006-0.282-0.03-0.391h0.438
		c-0.023,0.12-0.029,0.217-0.029,0.396v0.09H23.278z M20.982,62.524c-0.3,0-0.444,0.006-0.612,0.023
		c0.019-0.203,0.024-0.281,0.024-0.605v-0.563c0-0.258-0.006-0.384-0.024-0.527c0.156,0.018,0.276,0.023,0.588,0.023h2.081
		c0.306,0,0.42-0.006,0.588-0.023c-0.019,0.132-0.024,0.275-0.024,0.527v0.563c0,0.318,0.006,0.426,0.024,0.605
		c-0.162-0.018-0.307-0.023-0.618-0.023H20.982z M20.748,61.547h2.495v-0.384h-2.495V61.547z M20.748,62.236h2.495v-0.408h-2.495
		V62.236z M21.479,62.734c-0.029,0.138-0.036,0.228-0.036,0.449v0.534c0,0.144,0.078,0.168,0.636,0.168
		c0.426,0,0.636-0.024,0.689-0.09c0.055-0.061,0.072-0.192,0.078-0.492c0.108,0.054,0.198,0.078,0.33,0.102
		c-0.03,0.408-0.078,0.576-0.186,0.66c-0.108,0.09-0.414,0.126-1.02,0.126c-0.714,0-0.882-0.072-0.882-0.378v-0.624
		c0-0.186-0.012-0.306-0.036-0.455H21.479z M22.469,60.191c0.108-0.198,0.192-0.378,0.259-0.569h-1.41
		c0.072,0.144,0.156,0.348,0.246,0.569H22.469z M21.899,62.608c0.318,0.246,0.504,0.407,0.726,0.653l-0.264,0.228
		c-0.222-0.281-0.401-0.461-0.695-0.689L21.899,62.608z M23.375,62.771c0.354,0.426,0.527,0.671,0.779,1.121l-0.312,0.21
		c-0.246-0.504-0.42-0.773-0.75-1.157L23.375,62.771z"/>
	<path d="M25.405,63.609c0,0.378,0.006,0.498,0.029,0.636h-0.468c0.024-0.162,0.036-0.336,0.036-0.653v-3.856
		c0-0.228-0.006-0.371-0.023-0.533c0.155,0.018,0.306,0.023,0.552,0.023h3.657c0.258,0,0.408-0.006,0.552-0.023
		c-0.018,0.168-0.023,0.3-0.023,0.552v3.934c0,0.359-0.132,0.443-0.714,0.443c-0.24,0-0.569-0.012-0.857-0.035
		c-0.019-0.15-0.042-0.246-0.096-0.391c0.419,0.049,0.713,0.072,0.947,0.072c0.264,0,0.317-0.023,0.317-0.138v-1.865h-3.909V63.609z
		 M27.114,59.592h-1.709v1.823h1.709V59.592z M29.314,61.415v-1.823h-1.811v1.823H29.314z"/>
</g>
<g>
	<path d="M2.671,75.621c0.182,0.028,0.314,0.035,0.581,0.035h0.441c0.238,0,0.35-0.007,0.581-0.035
		c-0.042,0.428-0.063,0.785-0.063,1.163v3.404c0,0.329,0.015,0.532,0.057,0.791H3.603c0.042-0.245,0.056-0.47,0.056-0.791v-4.056
		H3.28c-0.225,0-0.406,0.014-0.609,0.042V75.621z"/>
	<path d="M7.171,79.816c0.084,0.231,0.141,0.33,0.252,0.448c0.196,0.218,0.498,0.33,0.883,0.33c0.504,0,0.868-0.203,1.128-0.645
		c0.133-0.225,0.245-0.567,0.301-0.896c0.028-0.176,0.049-0.463,0.063-0.819c-0.099,0.188-0.154,0.259-0.28,0.392
		c-0.357,0.336-0.75,0.49-1.274,0.49c-0.519,0-0.96-0.161-1.261-0.462c-0.302-0.301-0.477-0.764-0.477-1.261
		c0-1.113,0.749-1.842,1.898-1.842c0.784,0,1.429,0.448,1.694,1.177c0.141,0.378,0.203,0.854,0.203,1.456
		c0,0.974-0.203,1.766-0.581,2.234C9.37,80.86,8.908,81.07,8.264,81.07c-0.483,0-0.875-0.126-1.177-0.378
		c-0.196-0.161-0.308-0.322-0.49-0.693L7.171,79.816z M9.664,77.352c0-0.757-0.56-1.324-1.31-1.324
		c-0.462,0-0.882,0.225-1.113,0.596c-0.112,0.183-0.182,0.462-0.182,0.735c0,0.792,0.482,1.289,1.246,1.289
		C9.083,78.647,9.664,78.094,9.664,77.352z"/>
	<path d="M11.644,79.684c0.112,0.364,0.21,0.512,0.428,0.666c0.238,0.168,0.546,0.252,0.903,0.252c0.813,0,1.323-0.421,1.323-1.086
		c0-0.693-0.497-1.071-1.429-1.071c-0.196,0-0.371,0.014-0.56,0.035v-0.554c0.16,0.028,0.329,0.042,0.518,0.042
		c0.463,0,0.806-0.105,1.022-0.322c0.176-0.168,0.28-0.427,0.28-0.68c0-0.602-0.42-0.952-1.127-0.952
		c-0.428,0-0.736,0.119-0.932,0.371c-0.099,0.126-0.147,0.238-0.225,0.497l-0.581-0.126c0.119-0.356,0.203-0.518,0.378-0.7
		c0.309-0.336,0.784-0.511,1.394-0.511c1.016,0,1.66,0.532,1.66,1.372c0,0.428-0.182,0.806-0.49,1.022
		c-0.182,0.134-0.336,0.189-0.658,0.253c0.406,0.042,0.623,0.118,0.861,0.301c0.309,0.238,0.47,0.609,0.47,1.058
		c0,0.945-0.729,1.534-1.898,1.534c-0.707,0-1.232-0.196-1.568-0.575c-0.147-0.168-0.231-0.321-0.357-0.679L11.644,79.684z"/>
	<path d="M19.072,78.493c0.35,0.259,0.524,0.63,0.524,1.1c0,0.959-0.7,1.499-1.933,1.499c-1.281,0-1.989-0.532-1.989-1.499
		c0-0.504,0.203-0.89,0.624-1.163c0.217-0.14,0.371-0.195,0.63-0.237c-0.616-0.112-1.016-0.609-1.016-1.261
		c0-0.848,0.665-1.387,1.723-1.387c1.072,0,1.73,0.524,1.73,1.387c0,0.651-0.393,1.142-1.016,1.261
		C18.645,78.234,18.841,78.318,19.072,78.493z M16.249,79.558c0,0.665,0.512,1.058,1.38,1.058c0.49,0,0.89-0.126,1.128-0.364
		c0.175-0.161,0.266-0.406,0.266-0.693c0-0.687-0.524-1.1-1.387-1.1C16.774,78.458,16.249,78.878,16.249,79.558z M16.46,76.974
		c0,0.623,0.447,1.001,1.184,1.001c0.735,0,1.176-0.378,1.176-1.001c0-0.589-0.462-0.96-1.184-0.96
		C16.922,76.014,16.46,76.392,16.46,76.974z"/>
	<path d="M23.313,77.954c0-0.154-0.007-0.273-0.021-0.413c0.147,0.014,0.302,0.021,0.498,0.021h1.52V76.42h-1.646
		c-0.356,0.596-0.693,1.009-1.162,1.429c-0.112-0.161-0.183-0.231-0.336-0.336c0.693-0.589,1.071-1.1,1.4-1.884
		c0.091-0.203,0.14-0.364,0.175-0.512l0.498,0.141c-0.028,0.056-0.05,0.104-0.092,0.188l-0.266,0.567h3.474
		c0.309,0,0.455-0.007,0.631-0.035v0.477c-0.176-0.028-0.344-0.035-0.631-0.035h-1.583v1.142h1.268c0.287,0,0.441-0.007,0.624-0.035
		v0.463c-0.183-0.021-0.351-0.028-0.617-0.028h-1.274v1.373h1.766c0.314,0,0.511-0.015,0.707-0.042v0.504
		c-0.203-0.028-0.42-0.042-0.707-0.042h-1.766v1.155c0,0.302,0.015,0.47,0.049,0.651h-0.553c0.035-0.175,0.042-0.329,0.042-0.651
		v-1.155H22.78c-0.287,0-0.505,0.014-0.708,0.042v-0.504c0.203,0.027,0.399,0.042,0.708,0.042h0.532V77.954z M25.309,79.334v-1.373
		h-1.541v1.373H25.309z"/>
</g>
<g>
	<path d="M0.66,88.199c-0.378,0-0.468,0.006-0.66,0.03c0.066-0.474,0.084-0.563,0.174-0.792c0.15-0.378,0.402-0.707,0.78-1.031
		c0.21-0.18,0.222-0.186,0.917-0.659c0.594-0.402,0.792-0.666,0.792-1.032c0-0.455-0.384-0.749-0.996-0.749
		c-0.396,0-0.689,0.132-0.869,0.39c-0.114,0.162-0.168,0.306-0.21,0.605l-0.504-0.084c0.09-0.432,0.18-0.642,0.378-0.863
		c0.27-0.306,0.678-0.462,1.205-0.462c0.906,0,1.487,0.456,1.487,1.163c0,0.307-0.12,0.594-0.354,0.852
		c-0.18,0.204-0.336,0.318-1.02,0.774c-0.474,0.317-0.666,0.485-0.863,0.737c-0.187,0.246-0.271,0.407-0.342,0.695h1.913
		c0.3,0,0.503-0.012,0.731-0.042v0.504c-0.24-0.024-0.438-0.036-0.737-0.036H0.66z"/>
	<path d="M4.645,85.381c-0.013,0.108-0.013,0.108-0.048,0.27c0.287-0.275,0.636-0.413,1.049-0.413c0.438,0,0.81,0.144,1.08,0.407
		c0.27,0.258,0.401,0.612,0.401,1.056c0,0.966-0.63,1.583-1.619,1.583c-0.468,0-0.857-0.138-1.146-0.407
		c-0.149-0.15-0.233-0.276-0.378-0.564l0.492-0.144c0.06,0.168,0.102,0.246,0.191,0.348c0.204,0.228,0.504,0.354,0.852,0.354
		c0.672,0,1.122-0.455,1.122-1.145c0-0.66-0.414-1.092-1.05-1.092c-0.306,0-0.569,0.084-0.785,0.252
		c-0.145,0.114-0.21,0.198-0.276,0.359l-0.449-0.042c0.048-0.233,0.065-0.359,0.09-0.617l0.132-1.355
		c0.012-0.174,0.018-0.246,0.018-0.359c0-0.084,0-0.108-0.012-0.258c0.186,0.023,0.281,0.029,0.636,0.029H6.18
		c0.323,0,0.462-0.012,0.701-0.048v0.51c-0.228-0.036-0.42-0.048-0.701-0.048H4.771L4.645,85.381z"/>
	<path d="M8.545,88.199c-0.378,0-0.468,0.006-0.66,0.03c0.066-0.474,0.084-0.563,0.174-0.792c0.15-0.378,0.402-0.707,0.78-1.031
		c0.21-0.18,0.222-0.186,0.917-0.659c0.594-0.402,0.792-0.666,0.792-1.032c0-0.455-0.384-0.749-0.996-0.749
		c-0.396,0-0.689,0.132-0.869,0.39c-0.114,0.162-0.168,0.306-0.21,0.605l-0.504-0.084c0.09-0.432,0.18-0.642,0.378-0.863
		c0.27-0.306,0.678-0.462,1.205-0.462c0.906,0,1.487,0.456,1.487,1.163c0,0.307-0.12,0.594-0.354,0.852
		c-0.18,0.204-0.336,0.318-1.02,0.774C9.192,86.658,9,86.826,8.803,87.078c-0.187,0.246-0.271,0.407-0.342,0.695h1.913
		c0.3,0,0.503-0.012,0.731-0.042v0.504c-0.24-0.024-0.438-0.036-0.737-0.036H8.545z"/>
	<path d="M12.487,87.605v0.594h-0.594v-0.594H12.487z"/>
	<path d="M13.969,85.381c-0.013,0.108-0.013,0.108-0.048,0.27c0.287-0.275,0.636-0.413,1.049-0.413c0.438,0,0.81,0.144,1.08,0.407
		c0.27,0.258,0.401,0.612,0.401,1.056c0,0.966-0.63,1.583-1.619,1.583c-0.468,0-0.857-0.138-1.146-0.407
		c-0.149-0.15-0.233-0.276-0.378-0.564l0.492-0.144c0.06,0.168,0.102,0.246,0.191,0.348c0.204,0.228,0.504,0.354,0.852,0.354
		c0.672,0,1.122-0.455,1.122-1.145c0-0.66-0.414-1.092-1.05-1.092c-0.306,0-0.569,0.084-0.785,0.252
		c-0.145,0.114-0.21,0.198-0.276,0.359l-0.449-0.042c0.048-0.233,0.065-0.359,0.09-0.617l0.132-1.355
		c0.012-0.174,0.018-0.246,0.018-0.359c0-0.084,0-0.108-0.012-0.258c0.186,0.023,0.281,0.029,0.636,0.029h1.235
		c0.323,0,0.462-0.012,0.701-0.048v0.51c-0.228-0.036-0.42-0.048-0.701-0.048h-1.409L13.969,85.381z"/>
	<path d="M19.267,86.19c0-0.294,0.007-0.636,0.024-0.882c-0.174,0.336-0.3,0.54-0.527,0.822c-0.072-0.132-0.15-0.252-0.234-0.349
		c0.438-0.497,0.773-1.091,1.037-1.853c0.108-0.317,0.174-0.569,0.198-0.773l0.414,0.102c-0.042,0.09-0.055,0.145-0.103,0.3
		c-0.09,0.306-0.27,0.773-0.443,1.17v3.202c0,0.359,0.006,0.539,0.024,0.749h-0.426c0.029-0.216,0.035-0.396,0.035-0.737V86.19z
		 M20.767,87.282c-0.15,0.533-0.288,0.827-0.57,1.241l-0.317-0.216c0.317-0.384,0.443-0.648,0.563-1.134L20.767,87.282z
		 M23.278,83.708c0.282,0,0.438-0.006,0.606-0.03v0.348c-0.174-0.018-0.36-0.023-0.606-0.023h-0.161
		c-0.066,0.168-0.162,0.371-0.271,0.569h0.642c0.3,0,0.45-0.006,0.606-0.03v0.366c-0.181-0.024-0.313-0.03-0.606-0.03h-2.926
		c-0.271,0-0.408,0.006-0.588,0.03v-0.366c0.156,0.024,0.3,0.03,0.588,0.03h0.623c-0.071-0.21-0.155-0.396-0.258-0.569h-0.071
		c-0.271,0-0.42,0.006-0.594,0.023v-0.348c0.155,0.024,0.323,0.03,0.594,0.03h0.941v-0.096c0-0.168-0.006-0.282-0.03-0.391h0.438
		c-0.023,0.12-0.029,0.217-0.029,0.396v0.09H23.278z M20.982,86.904c-0.3,0-0.444,0.006-0.612,0.023
		c0.019-0.203,0.024-0.281,0.024-0.605v-0.563c0-0.258-0.006-0.384-0.024-0.527c0.156,0.018,0.276,0.023,0.588,0.023h2.081
		c0.306,0,0.42-0.006,0.588-0.023c-0.019,0.132-0.024,0.275-0.024,0.527v0.563c0,0.318,0.006,0.426,0.024,0.605
		c-0.162-0.018-0.307-0.023-0.618-0.023H20.982z M20.748,85.927h2.495v-0.384h-2.495V85.927z M20.748,86.616h2.495v-0.408h-2.495
		V86.616z M21.479,87.114c-0.029,0.138-0.036,0.228-0.036,0.449v0.534c0,0.144,0.078,0.168,0.636,0.168
		c0.426,0,0.636-0.024,0.689-0.09c0.055-0.061,0.072-0.192,0.078-0.492c0.108,0.054,0.198,0.078,0.33,0.102
		c-0.03,0.408-0.078,0.576-0.186,0.66c-0.108,0.09-0.414,0.126-1.02,0.126c-0.714,0-0.882-0.072-0.882-0.378v-0.624
		c0-0.186-0.012-0.306-0.036-0.455H21.479z M22.469,84.571c0.108-0.198,0.192-0.378,0.259-0.569h-1.41
		c0.072,0.144,0.156,0.348,0.246,0.569H22.469z M21.899,86.988c0.318,0.246,0.504,0.407,0.726,0.653l-0.264,0.228
		c-0.222-0.281-0.401-0.461-0.695-0.689L21.899,86.988z M23.375,87.15c0.354,0.426,0.527,0.671,0.779,1.121l-0.312,0.21
		c-0.246-0.504-0.42-0.773-0.75-1.157L23.375,87.15z"/>
	<path d="M25.405,87.989c0,0.378,0.006,0.498,0.029,0.636h-0.468c0.024-0.162,0.036-0.336,0.036-0.653v-3.856
		c0-0.228-0.006-0.371-0.023-0.533c0.155,0.018,0.306,0.023,0.552,0.023h3.657c0.258,0,0.408-0.006,0.552-0.023
		c-0.018,0.168-0.023,0.3-0.023,0.552v3.934c0,0.359-0.132,0.443-0.714,0.443c-0.24,0-0.569-0.012-0.857-0.035
		c-0.019-0.15-0.042-0.246-0.096-0.391c0.419,0.049,0.713,0.072,0.947,0.072c0.264,0,0.317-0.023,0.317-0.138v-1.865h-3.909V87.989z
		 M27.114,83.972h-1.709v1.823h1.709V83.972z M29.314,85.795v-1.823h-1.811v1.823H29.314z"/>
</g>
<g>
	<path d="M37.612,2.698c-1.4,0.091-1.4,0.091-2.185,0.111c-0.05-0.175-0.077-0.245-0.176-0.392c0.161,0,0.287,0,0.357,0
		c1.093,0,2.486-0.112,3.474-0.28c0.448-0.07,0.631-0.119,0.89-0.218l0.309,0.399c-0.063,0.015-0.273,0.049-0.883,0.161
		c-0.308,0.057-0.826,0.126-1.358,0.176v0.581h2.227c0.295,0,0.505-0.015,0.708-0.042V3.65c-0.189-0.028-0.406-0.042-0.708-0.042
		H38.04v0.477h1.646c0.238,0,0.393-0.008,0.561-0.028c-0.021,0.189-0.028,0.294-0.028,0.483v1.253c0,0.196,0.007,0.302,0.028,0.477
		c-0.183-0.021-0.329-0.027-0.567-0.027H38.04v0.532h1.765c0.301,0,0.512-0.015,0.707-0.042v0.469
		c-0.203-0.028-0.413-0.042-0.707-0.042H38.04v0.588h2.255c0.301,0,0.504-0.014,0.715-0.042v0.477
		c-0.211-0.028-0.414-0.042-0.715-0.042h-4.798c-0.301,0-0.504,0.014-0.707,0.042V7.705c0.189,0.028,0.42,0.042,0.707,0.042h2.115
		V7.159H35.98c-0.294,0-0.504,0.014-0.7,0.042V6.732c0.189,0.027,0.42,0.042,0.7,0.042h1.632V6.242H36.1
		c-0.238,0-0.378,0.007-0.561,0.027c0.021-0.196,0.028-0.28,0.028-0.477V4.54c0-0.189-0.007-0.294-0.028-0.483
		c0.168,0.021,0.322,0.028,0.561,0.028h1.513V3.608h-2.087c-0.309,0-0.497,0.014-0.707,0.042V3.195
		c0.182,0.027,0.42,0.042,0.707,0.042h2.087V2.698z M36.002,4.428v0.561h1.61V4.428H36.002z M36.002,5.331v0.567h1.61V5.331H36.002z
		 M38.04,4.988h1.744V4.428H38.04V4.988z M38.04,5.898h1.744V5.331H38.04V5.898z"/>
	<path d="M42.868,5.254c0-0.392,0-0.483,0.015-0.854c-0.21,0.386-0.477,0.735-0.89,1.177c-0.077-0.133-0.203-0.301-0.301-0.406
		c0.735-0.721,1.226-1.457,1.582-2.36c0.147-0.371,0.203-0.567,0.238-0.84l0.519,0.146c-0.028,0.07-0.028,0.07-0.147,0.393
		c-0.063,0.161-0.301,0.722-0.56,1.303v3.67c0,0.273,0.014,0.561,0.042,0.848h-0.547c0.028-0.28,0.049-0.547,0.049-0.869V5.254z
		 M45.229,7.369c0,0.245,0.105,0.28,0.918,0.28c0.798,0,1.064-0.042,1.17-0.168c0.111-0.154,0.182-0.525,0.237-1.282
		c0.169,0.112,0.315,0.176,0.463,0.218c-0.084,0.771-0.183,1.169-0.329,1.372c-0.176,0.231-0.519,0.295-1.569,0.295
		c-1.17,0-1.352-0.084-1.352-0.631V2.81c0-0.308-0.021-0.581-0.042-0.756h0.546c-0.027,0.188-0.042,0.448-0.042,0.756v1.982
		c0.477-0.267,0.834-0.504,1.226-0.806c0.483-0.378,0.764-0.651,1.002-0.974l0.406,0.371c-0.098,0.084-0.098,0.084-0.428,0.386
		c-0.608,0.553-1.26,1.009-2.206,1.533V7.369z"/>
	<path d="M52.131,7.747c0,0.435-0.133,0.519-0.784,0.519c-0.196,0-0.561-0.014-0.806-0.042c-0.049-0.203-0.077-0.294-0.147-0.448
		c0.357,0.049,0.687,0.077,0.918,0.077c0.322,0,0.371-0.021,0.371-0.168V6.276h-2.102c-0.308,0-0.525,0.015-0.735,0.042V5.836
		c0.203,0.027,0.428,0.042,0.729,0.042h2.108V5.759c0-0.141-0.007-0.267-0.021-0.413h0.295c0.483-0.231,0.882-0.483,1.253-0.792
		h-2.563c-0.238,0-0.477,0.014-0.666,0.035V4.134c0.196,0.021,0.421,0.035,0.68,0.035h2.528c0.259,0,0.399-0.008,0.519-0.028
		l0.266,0.28c-0.091,0.07-0.091,0.07-0.245,0.203c-0.469,0.392-0.903,0.679-1.597,1.036v0.218h2.08c0.315,0,0.539-0.015,0.735-0.042
		v0.482c-0.196-0.027-0.435-0.042-0.742-0.042h-2.073V7.747z M50.24,3.118c-0.203-0.357-0.33-0.532-0.659-0.911l0.421-0.133
		c0.322,0.399,0.469,0.609,0.714,1.037h1.022c-0.133-0.371-0.266-0.645-0.511-1.009l0.434-0.119c0.267,0.462,0.379,0.7,0.533,1.128
		h0.77c0.329-0.379,0.519-0.68,0.722-1.128l0.441,0.189c-0.294,0.469-0.441,0.672-0.673,0.938h0.547
		c0.406,0,0.561-0.008,0.806-0.028c-0.021,0.182-0.028,0.322-0.028,0.581v0.519c0,0.161,0.014,0.329,0.035,0.49h-0.463V3.496h-4.944
		v1.177h-0.462c0.021-0.161,0.035-0.315,0.035-0.49V3.664c0-0.259-0.008-0.399-0.028-0.581c0.259,0.028,0.413,0.035,0.799,0.035
		H50.24z"/>
	<path d="M57.037,3.188c-0.33,0-0.561,0.014-0.806,0.042V2.698c0.224,0.027,0.441,0.042,0.813,0.042h3.726
		c0.364,0,0.581-0.015,0.813-0.042V3.23c-0.252-0.028-0.477-0.042-0.806-0.042h-1.688v3.999h2.115c0.364,0,0.581-0.015,0.819-0.049
		v0.546c-0.225-0.035-0.47-0.049-0.819-0.049h-4.602c-0.351,0-0.574,0.014-0.819,0.049V7.139c0.238,0.034,0.455,0.049,0.826,0.049
		h1.976V3.188H57.037z"/>
	<path d="M63.806,4.673c-0.344,0-0.532,0.007-0.75,0.035V4.273c0.196,0.028,0.386,0.035,0.75,0.035h1.016
		c-0.099-0.273-0.203-0.511-0.371-0.791h-0.883c-0.351,0-0.588,0.014-0.791,0.035V3.104c0.203,0.028,0.42,0.043,0.777,0.043h0.483
		c-0.141-0.245-0.302-0.456-0.575-0.743l0.399-0.188c0.315,0.378,0.435,0.56,0.624,0.932h0.588v-0.54
		c0-0.238-0.014-0.434-0.042-0.588h0.477c-0.021,0.14-0.028,0.301-0.028,0.581v0.547h0.742V2.6c0-0.259-0.007-0.448-0.027-0.581
		h0.476c-0.028,0.146-0.042,0.343-0.042,0.588v0.54h0.673c0.301-0.435,0.413-0.631,0.553-0.967l0.428,0.182
		c-0.21,0.357-0.273,0.441-0.525,0.785h0.42c0.364,0,0.589-0.015,0.784-0.043v0.449c-0.203-0.021-0.44-0.035-0.791-0.035h-0.826
		c-0.168,0.385-0.252,0.567-0.379,0.791h0.995c0.364,0,0.553-0.007,0.756-0.035v0.435c-0.217-0.028-0.406-0.035-0.756-0.035h-1.905
		v0.512h1.471c0.351,0,0.567-0.008,0.757-0.035v0.427c-0.21-0.028-0.406-0.035-0.757-0.035h-1.471v0.54h2.122
		c0.399,0,0.609-0.015,0.799-0.042v0.455c-0.245-0.028-0.483-0.042-0.792-0.042h-1.835c0.603,0.567,1.597,1.001,2.781,1.211
		c-0.127,0.154-0.189,0.245-0.273,0.435c-0.911-0.273-1.232-0.393-1.716-0.658c-0.421-0.231-0.757-0.49-1.114-0.854
		c0.021,0.315,0.028,0.441,0.028,0.596v0.469c0,0.301,0.014,0.519,0.042,0.729h-0.504c0.035-0.225,0.042-0.441,0.042-0.735V7.181
		c0-0.161,0.007-0.315,0.027-0.589c-0.686,0.715-1.352,1.093-2.633,1.506c-0.091-0.182-0.161-0.273-0.287-0.406
		c1.155-0.259,1.905-0.616,2.599-1.239h-1.717c-0.314,0-0.546,0.014-0.791,0.042V6.039c0.196,0.027,0.406,0.042,0.791,0.042h2.011
		v-0.54h-1.387c-0.344,0-0.547,0.007-0.75,0.035V5.149c0.196,0.027,0.413,0.035,0.75,0.035h1.387V4.673H63.806z M66.509,4.309
		c0.154-0.259,0.245-0.455,0.357-0.791h-1.947c0.161,0.336,0.218,0.462,0.329,0.791H66.509z"/>
</g>
<g>
	<path d="M73.789,13.42c0.112,0.008,0.182,0.015,0.273,0.015c0.021,0,0.034,0,0.161-0.007c0.259-0.372,0.272-0.393,0.462-0.701
		c-0.183-0.272-0.525-0.7-0.861-1.05l0.224-0.329c0.119,0.133,0.154,0.175,0.238,0.272c0.309-0.49,0.539-0.98,0.596-1.268
		l0.434,0.203c-0.069,0.091-0.069,0.091-0.294,0.519c-0.133,0.266-0.308,0.561-0.49,0.833c0.183,0.218,0.238,0.295,0.364,0.477
		c0.448-0.757,0.539-0.938,0.631-1.226l0.392,0.203c-0.091,0.133-0.104,0.161-0.287,0.497c-0.245,0.448-0.672,1.106-0.994,1.555
		c0.651-0.042,0.651-0.042,0.854-0.069c-0.07-0.203-0.105-0.302-0.218-0.575l0.295-0.104c0.182,0.42,0.294,0.735,0.434,1.226
		l-0.329,0.147c-0.035-0.176-0.035-0.183-0.084-0.372c-0.133,0.021-0.133,0.021-0.413,0.05v2.206c0,0.42,0.007,0.616,0.042,0.806
		h-0.477c0.028-0.189,0.042-0.406,0.042-0.806v-2.164c-0.111,0.007-0.111,0.007-0.651,0.056c-0.126,0.014-0.188,0.021-0.287,0.049
		L73.789,13.42z M74.482,14.247c-0.084,1.036-0.133,1.316-0.315,1.904l-0.35-0.168c0.188-0.56,0.259-0.952,0.314-1.813
		L74.482,14.247z M75.68,14.128c0.154,0.574,0.189,0.714,0.287,1.323l-0.329,0.099c-0.077-0.616-0.133-0.925-0.252-1.345
		L75.68,14.128z M79.903,16.096c0.077-0.098,0.133-0.378,0.154-0.854c0.119,0.119,0.217,0.203,0.336,0.267
		c-0.035,0.42-0.091,0.644-0.183,0.854c-0.063,0.146-0.175,0.252-0.272,0.252c-0.273,0-0.596-0.441-0.876-1.184
		c-0.329,0.525-0.609,0.833-1.127,1.261c-0.077-0.105-0.189-0.218-0.315-0.302c0.596-0.427,0.938-0.805,1.303-1.407
		c-0.161-0.596-0.245-1.282-0.302-2.34h-0.826v2.809c0.252-0.077,0.309-0.091,0.623-0.196v0.364
		c-0.91,0.309-1.365,0.441-2.171,0.609c-0.21,0.05-0.273,0.063-0.385,0.099l-0.099-0.455c0.238,0,0.47-0.035,0.96-0.147v-3.082
		h-0.301c-0.253,0-0.406,0.008-0.582,0.035v-0.434c0.21,0.027,0.357,0.034,0.666,0.034h0.518v-0.7h-0.371
		c-0.203,0-0.343,0.007-0.525,0.021v-0.406c0.161,0.027,0.267,0.035,0.525,0.035h0.371v-0.203c0-0.28-0.014-0.448-0.042-0.589h0.455
		c-0.027,0.141-0.034,0.294-0.034,0.596v0.196h0.356c0.245,0,0.393-0.008,0.532-0.028V11.6c-0.168-0.015-0.308-0.021-0.532-0.021
		h-0.356v0.7h1.204c-0.014-0.378-0.014-0.378-0.028-1.484c0-0.133-0.007-0.225-0.027-0.357h0.462
		c-0.028,0.175-0.035,0.322-0.035,0.693c0,0.539,0,0.658,0.007,1.148h0.47c0.351,0,0.532-0.007,0.735-0.042v0.448
		c-0.225-0.034-0.406-0.042-0.735-0.042H79c0.049,1.044,0.069,1.261,0.182,1.835c0.218-0.476,0.378-1.001,0.441-1.429l0.378,0.189
		c-0.035,0.091-0.042,0.119-0.14,0.435c-0.168,0.524-0.329,0.924-0.547,1.316c0.176,0.554,0.435,1.044,0.582,1.106H79.903z
		 M76.304,13.217c0.14,0.708,0.195,1.1,0.245,1.766l-0.337,0.111c-0.021-0.672-0.084-1.162-0.23-1.778L76.304,13.217z
		 M77.081,15.647c0.203-0.056,0.203-0.056,0.356-0.091v-2.914h-0.356V15.647z M78.51,13.252c-0.084,0.722-0.168,1.212-0.302,1.724
		l-0.301-0.07c0.147-0.623,0.224-1.128,0.252-1.758L78.51,13.252z M79.651,12.055c-0.141-0.42-0.273-0.722-0.519-1.135l0.329-0.154
		c0.217,0.379,0.357,0.666,0.532,1.093L79.651,12.055z"/>
	<path d="M80.852,13.462c0.092,0.008,0.176,0.015,0.372,0.015c0.014,0,0.014,0,0.175,0c0.336-0.435,0.336-0.435,0.539-0.729
		c-0.336-0.428-0.658-0.777-1.016-1.1l0.259-0.329c0.147,0.146,0.183,0.188,0.288,0.294c0.363-0.532,0.566-0.91,0.644-1.204
		l0.428,0.188c-0.077,0.105-0.084,0.112-0.26,0.435c-0.153,0.28-0.35,0.581-0.553,0.861c0.189,0.203,0.189,0.203,0.441,0.511
		c0.399-0.595,0.645-1.022,0.721-1.253l0.414,0.224c-0.092,0.126-0.092,0.126-0.28,0.428c-0.267,0.427-0.813,1.197-1.17,1.652
		c0.441-0.027,0.757-0.056,1.086-0.104c-0.112-0.238-0.168-0.337-0.322-0.567l0.308-0.168c0.26,0.42,0.477,0.833,0.645,1.246
		l-0.343,0.189c-0.063-0.168-0.084-0.231-0.134-0.357c-0.279,0.042-0.279,0.042-0.609,0.077v2.263c0,0.308,0.008,0.482,0.043,0.7
		h-0.498c0.028-0.21,0.042-0.399,0.042-0.7v-2.221c-0.252,0.021-0.252,0.021-0.847,0.056c-0.099,0.008-0.231,0.021-0.309,0.035
		L80.852,13.462z M81.692,14.31c-0.175,1.184-0.231,1.45-0.455,2.024l-0.371-0.189c0.245-0.588,0.301-0.84,0.434-1.912L81.692,14.31
		z M83.121,14.205c0.168,0.609,0.245,0.98,0.336,1.646l-0.385,0.105c-0.056-0.659-0.141-1.135-0.294-1.646L83.121,14.205z
		 M85.782,15.879h0.693c0.393,0,0.512-0.007,0.687-0.042v0.469c-0.182-0.021-0.385-0.035-0.687-0.035h-2.213v0.448h-0.455
		c0.028-0.175,0.042-0.398,0.042-0.714v-2.676c0-0.238,0.007-0.434,0.021-0.806c-0.175,0.267-0.224,0.33-0.371,0.512
		c-0.056-0.084-0.188-0.225-0.287-0.287c0.435-0.477,0.729-0.938,0.988-1.534c0.133-0.301,0.224-0.574,0.266-0.791l0.448,0.14
		c-0.035,0.07-0.049,0.112-0.098,0.218c-0.203,0.462-0.337,0.742-0.463,0.974h1.009c0.267-0.498,0.413-0.862,0.504-1.247
		l0.428,0.133l-0.077,0.183c-0.154,0.378-0.231,0.539-0.441,0.932h0.638c0.294,0,0.539-0.015,0.693-0.043v0.47
		c-0.161-0.028-0.371-0.035-0.693-0.035h-0.631v0.945h0.505c0.28,0,0.497-0.014,0.645-0.042v0.463
		c-0.161-0.028-0.329-0.035-0.645-0.035h-0.505v0.987h0.512c0.287,0,0.497-0.014,0.645-0.042v0.462
		c-0.112-0.021-0.176-0.027-0.245-0.027c-0.063,0-0.196,0-0.406-0.008h-0.505V15.879z M85.376,13.091v-0.945h-1.113v0.945H85.376z
		 M84.263,14.464h1.113v-0.987h-1.113V14.464z M84.263,15.879h1.113v-1.03h-1.113V15.879z"/>
	<path d="M89.162,11.593c-0.33,0-0.561,0.014-0.806,0.042v-0.532c0.224,0.027,0.441,0.042,0.813,0.042h3.726
		c0.364,0,0.581-0.015,0.813-0.042v0.532c-0.252-0.028-0.477-0.042-0.806-0.042h-1.688v3.999h2.115c0.364,0,0.581-0.015,0.819-0.049
		v0.546c-0.225-0.035-0.47-0.049-0.819-0.049h-4.602c-0.351,0-0.574,0.014-0.819,0.049v-0.546c0.238,0.034,0.455,0.049,0.826,0.049
		h1.976v-3.999H89.162z"/>
	<path d="M95.931,13.077c-0.344,0-0.532,0.007-0.75,0.035v-0.435c0.196,0.028,0.386,0.035,0.75,0.035h1.016
		c-0.099-0.273-0.203-0.511-0.371-0.791h-0.883c-0.351,0-0.588,0.014-0.791,0.035v-0.449c0.203,0.028,0.42,0.043,0.777,0.043h0.483
		c-0.141-0.245-0.302-0.456-0.575-0.743l0.399-0.188c0.315,0.378,0.435,0.56,0.624,0.932h0.588v-0.54
		c0-0.238-0.014-0.434-0.042-0.588h0.477c-0.021,0.14-0.028,0.301-0.028,0.581v0.547h0.742v-0.547c0-0.259-0.007-0.448-0.027-0.581
		h0.476c-0.028,0.146-0.042,0.343-0.042,0.588v0.54h0.673c0.301-0.435,0.413-0.631,0.553-0.967l0.428,0.182
		c-0.21,0.357-0.273,0.441-0.525,0.785h0.42c0.364,0,0.589-0.015,0.784-0.043v0.449c-0.203-0.021-0.44-0.035-0.791-0.035h-0.826
		c-0.168,0.385-0.252,0.567-0.379,0.791h0.995c0.364,0,0.553-0.007,0.756-0.035v0.435c-0.217-0.028-0.406-0.035-0.756-0.035h-1.905
		v0.512h1.471c0.351,0,0.567-0.008,0.757-0.035v0.427c-0.21-0.028-0.406-0.035-0.757-0.035h-1.471v0.54h2.122
		c0.399,0,0.609-0.015,0.799-0.042v0.455c-0.245-0.028-0.483-0.042-0.792-0.042h-1.835c0.603,0.567,1.597,1.001,2.781,1.211
		c-0.127,0.154-0.189,0.245-0.273,0.435c-0.911-0.273-1.232-0.393-1.716-0.658c-0.421-0.231-0.757-0.49-1.114-0.854
		c0.021,0.315,0.028,0.441,0.028,0.596v0.469c0,0.301,0.014,0.519,0.042,0.729h-0.504c0.035-0.225,0.042-0.441,0.042-0.735v-0.462
		c0-0.161,0.007-0.315,0.027-0.589c-0.686,0.715-1.352,1.093-2.633,1.506c-0.091-0.182-0.161-0.273-0.287-0.406
		c1.155-0.259,1.905-0.616,2.599-1.239h-1.717c-0.314,0-0.546,0.014-0.791,0.042v-0.455c0.196,0.027,0.406,0.042,0.791,0.042h2.011
		v-0.54h-1.387c-0.344,0-0.547,0.007-0.75,0.035v-0.427c0.196,0.027,0.413,0.035,0.75,0.035h1.387v-0.512H95.931z M98.634,12.713
		c0.154-0.259,0.245-0.455,0.357-0.791h-1.947c0.161,0.336,0.218,0.462,0.329,0.791H98.634z"/>
</g>
<g>
	<path d="M111.45,7.601c0,0.336,0.014,0.546,0.042,0.729h-0.477c0.028-0.196,0.042-0.413,0.042-0.735V7.139h-0.623
		c-0.302,0-0.428,0.007-0.638,0.042V6.739c0.196,0.027,0.329,0.035,0.638,0.035h0.623V6.144h-0.364
		c-0.287,0-0.477,0.007-0.687,0.028c0.021-0.196,0.028-0.428,0.028-0.735V4.393c0-0.301-0.007-0.519-0.028-0.714
		c0.176,0.021,0.371,0.027,0.687,0.027h0.364V3.083h-0.596c-0.279,0-0.44,0.007-0.637,0.035V2.677
		c0.188,0.035,0.329,0.042,0.637,0.042h0.596c0-0.378-0.014-0.539-0.042-0.735h0.477c-0.028,0.175-0.042,0.378-0.042,0.735h0.476
		c0.302,0,0.441-0.007,0.631-0.042v0.441c-0.196-0.028-0.336-0.035-0.631-0.035h-0.476v0.623h0.364c0.322,0,0.511-0.007,0.7-0.027
		c-0.021,0.168-0.028,0.364-0.028,0.714v1.044c0,0.336,0.007,0.546,0.028,0.735c-0.203-0.021-0.393-0.028-0.708-0.028h-0.356v0.631
		h0.651c0.294,0,0.427-0.008,0.602-0.035v0.441c-0.195-0.035-0.336-0.042-0.608-0.042h-0.645V7.601z M110.406,4.05v0.672h0.651V4.05
		H110.406z M110.406,5.044v0.757h0.651V5.044H110.406z M112.115,4.722V4.05h-0.672v0.672H112.115z M112.115,5.801V5.044h-0.672
		v0.757H112.115z M115.204,5.989c0.308,0,0.441-0.007,0.616-0.035v0.463c-0.175-0.028-0.343-0.035-0.623-0.035h-0.771v1.268h0.959
		c0.287,0,0.49-0.014,0.673-0.042v0.483c-0.196-0.028-0.393-0.042-0.673-0.042h-2.318c-0.279,0-0.482,0.014-0.679,0.042V7.607
		c0.203,0.035,0.364,0.042,0.665,0.042h0.952V6.382h-0.553c-0.287,0-0.47,0.007-0.638,0.035V5.954
		c0.176,0.028,0.336,0.035,0.645,0.035h0.546V5.682c0-0.371-0.007-0.547-0.042-0.735h0.505c-0.035,0.175-0.042,0.356-0.042,0.735
		v0.308H115.204z M115.723,2.642c-0.057,0.07-0.099,0.126-0.189,0.273c-0.364,0.567-0.609,0.875-0.952,1.19
		c0.455,0.351,0.903,0.574,1.582,0.791c-0.119,0.141-0.182,0.238-0.245,0.399c-0.742-0.294-1.177-0.539-1.639-0.924
		c-0.448,0.371-0.861,0.623-1.506,0.91c-0.077-0.161-0.146-0.259-0.273-0.364c0.624-0.231,1.044-0.462,1.492-0.813
		c-0.406-0.406-0.645-0.764-0.903-1.345c-0.245,0.007-0.309,0.014-0.435,0.028V2.341c0.168,0.027,0.357,0.042,0.616,0.042h1.717
		c0.217,0,0.371-0.015,0.476-0.035L115.723,2.642z M113.516,2.761c0.218,0.477,0.406,0.742,0.764,1.093
		c0.386-0.364,0.574-0.603,0.876-1.093H113.516z"/>
	<path d="M118.037,3.188c-0.33,0-0.561,0.014-0.806,0.042V2.698c0.224,0.027,0.441,0.042,0.813,0.042h3.726
		c0.364,0,0.581-0.015,0.813-0.042V3.23c-0.252-0.028-0.477-0.042-0.806-0.042h-1.688v3.999h2.115c0.364,0,0.581-0.015,0.819-0.049
		v0.546c-0.225-0.035-0.47-0.049-0.819-0.049h-4.602c-0.351,0-0.574,0.014-0.819,0.049V7.139c0.238,0.034,0.455,0.049,0.826,0.049
		h1.976V3.188H118.037z"/>
	<path d="M124.806,4.673c-0.344,0-0.532,0.007-0.75,0.035V4.273c0.196,0.028,0.386,0.035,0.75,0.035h1.016
		c-0.099-0.273-0.203-0.511-0.371-0.791h-0.883c-0.351,0-0.588,0.014-0.791,0.035V3.104c0.203,0.028,0.42,0.043,0.777,0.043h0.483
		c-0.141-0.245-0.302-0.456-0.575-0.743l0.399-0.188c0.315,0.378,0.435,0.56,0.624,0.932h0.588v-0.54
		c0-0.238-0.014-0.434-0.042-0.588h0.477c-0.021,0.14-0.028,0.301-0.028,0.581v0.547h0.742V2.6c0-0.259-0.007-0.448-0.027-0.581
		h0.476c-0.028,0.146-0.042,0.343-0.042,0.588v0.54h0.673c0.301-0.435,0.413-0.631,0.553-0.967l0.428,0.182
		c-0.21,0.357-0.273,0.441-0.525,0.785h0.42c0.364,0,0.589-0.015,0.784-0.043v0.449c-0.203-0.021-0.44-0.035-0.791-0.035h-0.826
		c-0.168,0.385-0.252,0.567-0.379,0.791h0.995c0.364,0,0.553-0.007,0.756-0.035v0.435c-0.217-0.028-0.406-0.035-0.756-0.035h-1.905
		v0.512h1.471c0.351,0,0.567-0.008,0.757-0.035v0.427c-0.21-0.028-0.406-0.035-0.757-0.035h-1.471v0.54h2.122
		c0.399,0,0.609-0.015,0.799-0.042v0.455c-0.245-0.028-0.483-0.042-0.792-0.042h-1.835c0.603,0.567,1.597,1.001,2.781,1.211
		c-0.127,0.154-0.189,0.245-0.273,0.435c-0.911-0.273-1.232-0.393-1.716-0.658c-0.421-0.231-0.757-0.49-1.114-0.854
		c0.021,0.315,0.028,0.441,0.028,0.596v0.469c0,0.301,0.014,0.519,0.042,0.729h-0.504c0.035-0.225,0.042-0.441,0.042-0.735V7.181
		c0-0.161,0.007-0.315,0.027-0.589c-0.686,0.715-1.352,1.093-2.633,1.506c-0.091-0.182-0.161-0.273-0.287-0.406
		c1.155-0.259,1.905-0.616,2.599-1.239h-1.717c-0.314,0-0.546,0.014-0.791,0.042V6.039c0.196,0.027,0.406,0.042,0.791,0.042h2.011
		v-0.54h-1.387c-0.344,0-0.547,0.007-0.75,0.035V5.149c0.196,0.027,0.413,0.035,0.75,0.035h1.387V4.673H124.806z M127.509,4.309
		c0.154-0.259,0.245-0.455,0.357-0.791h-1.947c0.161,0.336,0.218,0.462,0.329,0.791H127.509z"/>
</g>
<g>
	<path d="M41.829,35.798c-0.441,0-0.546,0.007-0.771,0.035c0.077-0.554,0.099-0.658,0.203-0.925c0.175-0.441,0.47-0.826,0.91-1.204
		c0.245-0.211,0.26-0.218,1.072-0.771c0.693-0.47,0.924-0.777,0.924-1.205c0-0.532-0.448-0.875-1.162-0.875
		c-0.462,0-0.806,0.153-1.016,0.455c-0.133,0.188-0.196,0.357-0.245,0.707l-0.588-0.098c0.104-0.505,0.21-0.75,0.44-1.009
		c0.315-0.357,0.792-0.539,1.408-0.539c1.058,0,1.737,0.532,1.737,1.358c0,0.357-0.141,0.693-0.414,0.995
		c-0.21,0.237-0.392,0.371-1.19,0.903c-0.553,0.371-0.777,0.567-1.009,0.861c-0.217,0.287-0.314,0.477-0.398,0.813h2.233
		c0.351,0,0.589-0.015,0.854-0.049v0.588c-0.279-0.028-0.511-0.042-0.861-0.042H41.829z"/>
	<path d="M46.273,34.635c0.084,0.231,0.141,0.33,0.252,0.448c0.196,0.218,0.498,0.33,0.883,0.33c0.504,0,0.868-0.203,1.128-0.645
		c0.133-0.225,0.245-0.567,0.301-0.896c0.028-0.176,0.049-0.463,0.063-0.819c-0.099,0.188-0.154,0.259-0.28,0.392
		c-0.357,0.336-0.75,0.49-1.274,0.49c-0.519,0-0.96-0.161-1.261-0.462c-0.302-0.301-0.477-0.764-0.477-1.261
		c0-1.113,0.749-1.842,1.898-1.842c0.784,0,1.429,0.448,1.694,1.177c0.141,0.378,0.203,0.854,0.203,1.456
		c0,0.974-0.203,1.766-0.581,2.234c-0.351,0.441-0.813,0.651-1.457,0.651c-0.483,0-0.875-0.126-1.177-0.378
		c-0.196-0.161-0.308-0.322-0.49-0.693L46.273,34.635z M48.767,32.17c0-0.757-0.56-1.324-1.31-1.324
		c-0.462,0-0.882,0.225-1.113,0.596c-0.112,0.183-0.182,0.462-0.182,0.735c0,0.792,0.482,1.289,1.246,1.289
		C48.186,33.466,48.767,32.912,48.767,32.17z"/>
	<path d="M51.026,35.104v0.693h-0.693v-0.693H51.026z"/>
	<path d="M52.426,34.502c0.112,0.364,0.21,0.512,0.428,0.666c0.237,0.168,0.546,0.252,0.903,0.252c0.813,0,1.323-0.421,1.323-1.086
		c0-0.693-0.497-1.071-1.429-1.071c-0.196,0-0.371,0.014-0.561,0.035v-0.554c0.161,0.028,0.33,0.042,0.519,0.042
		c0.463,0,0.806-0.105,1.022-0.322c0.176-0.168,0.28-0.427,0.28-0.68c0-0.602-0.42-0.952-1.127-0.952
		c-0.428,0-0.736,0.119-0.932,0.371c-0.099,0.126-0.147,0.238-0.225,0.497l-0.581-0.126c0.119-0.356,0.203-0.518,0.378-0.7
		c0.309-0.336,0.784-0.511,1.394-0.511c1.016,0,1.66,0.532,1.66,1.372c0,0.428-0.182,0.806-0.49,1.022
		c-0.182,0.134-0.336,0.189-0.658,0.253c0.406,0.042,0.623,0.118,0.861,0.301c0.309,0.238,0.47,0.609,0.47,1.058
		c0,0.945-0.729,1.534-1.898,1.534c-0.707,0-1.232-0.196-1.569-0.575c-0.146-0.168-0.23-0.321-0.356-0.679L52.426,34.502z"/>
	<path d="M57.228,33.087c-0.252-0.245-0.385-0.658-0.385-1.176c0-0.938,0.448-1.492,1.219-1.492c0.763,0,1.211,0.546,1.211,1.492
		c0,0.518-0.133,0.931-0.385,1.176c-0.21,0.203-0.497,0.315-0.826,0.315C57.725,33.402,57.438,33.29,57.228,33.087z M57.312,31.911
		c0,0.686,0.273,1.078,0.75,1.078c0.469,0,0.742-0.393,0.742-1.078c0-0.693-0.267-1.079-0.742-1.079
		C57.578,30.832,57.312,31.225,57.312,31.911z M61.598,30.377l0.295,0.224l-4.245,5.372l-0.294-0.23L61.598,30.377z M60.358,35.623
		c-0.252-0.245-0.385-0.658-0.385-1.177c0-0.938,0.448-1.492,1.218-1.492c0.771,0,1.212,0.547,1.212,1.499
		c0,0.512-0.133,0.925-0.385,1.17c-0.21,0.203-0.497,0.314-0.827,0.314C60.855,35.938,60.568,35.833,60.358,35.623z M60.442,34.446
		c0,0.687,0.273,1.078,0.749,1.078c0.47,0,0.743-0.392,0.743-1.078c0-0.693-0.267-1.079-0.743-1.079
		C60.709,33.367,60.442,33.76,60.442,34.446z"/>
</g>
<g>
	<path d="M104.299,14.877c0.112,0.364,0.21,0.512,0.428,0.666c0.237,0.168,0.546,0.252,0.903,0.252c0.813,0,1.323-0.421,1.323-1.086
		c0-0.693-0.497-1.071-1.429-1.071c-0.196,0-0.371,0.014-0.561,0.035v-0.554c0.161,0.028,0.33,0.042,0.519,0.042
		c0.463,0,0.806-0.105,1.022-0.322c0.176-0.168,0.28-0.427,0.28-0.68c0-0.602-0.42-0.952-1.127-0.952
		c-0.428,0-0.736,0.119-0.932,0.371c-0.099,0.126-0.147,0.238-0.225,0.497l-0.581-0.126c0.119-0.356,0.203-0.518,0.378-0.7
		c0.309-0.336,0.784-0.511,1.394-0.511c1.016,0,1.66,0.532,1.66,1.372c0,0.428-0.182,0.806-0.49,1.022
		c-0.182,0.134-0.336,0.189-0.658,0.253c0.406,0.042,0.623,0.118,0.861,0.301c0.309,0.238,0.47,0.609,0.47,1.058
		c0,0.945-0.729,1.534-1.898,1.534c-0.707,0-1.232-0.196-1.569-0.575c-0.146-0.168-0.23-0.321-0.356-0.679L104.299,14.877z"/>
	<path d="M109.227,12.881c-0.014,0.126-0.014,0.126-0.056,0.315c0.336-0.322,0.742-0.483,1.226-0.483
		c0.511,0,0.945,0.168,1.261,0.477c0.315,0.301,0.469,0.714,0.469,1.232c0,1.128-0.735,1.849-1.891,1.849
		c-0.546,0-1.002-0.161-1.338-0.476c-0.175-0.176-0.273-0.322-0.441-0.658l0.574-0.169c0.07,0.196,0.119,0.287,0.225,0.406
		c0.238,0.267,0.588,0.414,0.994,0.414c0.785,0,1.31-0.533,1.31-1.338c0-0.771-0.482-1.275-1.226-1.275
		c-0.356,0-0.665,0.099-0.917,0.295c-0.168,0.133-0.245,0.23-0.322,0.42l-0.525-0.049c0.056-0.273,0.077-0.421,0.105-0.722
		l0.153-1.583c0.015-0.203,0.021-0.287,0.021-0.42c0-0.099,0-0.126-0.014-0.302c0.217,0.028,0.329,0.035,0.742,0.035h1.442
		c0.379,0,0.539-0.014,0.819-0.056v0.596c-0.266-0.042-0.49-0.057-0.819-0.057h-1.646L109.227,12.881z"/>
	<path d="M113.776,15.479v0.693h-0.693v-0.693H113.776z"/>
	<path d="M115.4,10.814c0.182,0.028,0.314,0.035,0.581,0.035h0.441c0.238,0,0.35-0.007,0.581-0.035
		c-0.042,0.428-0.063,0.785-0.063,1.163v3.404c0,0.329,0.015,0.532,0.057,0.791h-0.665c0.042-0.245,0.056-0.47,0.056-0.791v-4.056
		h-0.378c-0.225,0-0.406,0.014-0.609,0.042V10.814z"/>
</g>
<g>
	<path d="M42.938,14.877c0.112,0.364,0.21,0.512,0.428,0.666c0.237,0.168,0.546,0.252,0.903,0.252c0.813,0,1.323-0.421,1.323-1.086
		c0-0.693-0.497-1.071-1.429-1.071c-0.196,0-0.371,0.014-0.561,0.035v-0.554c0.161,0.028,0.33,0.042,0.519,0.042
		c0.463,0,0.806-0.105,1.022-0.322c0.176-0.168,0.28-0.427,0.28-0.68c0-0.602-0.42-0.952-1.127-0.952
		c-0.428,0-0.736,0.119-0.932,0.371c-0.099,0.126-0.147,0.238-0.225,0.497l-0.581-0.126c0.119-0.356,0.203-0.518,0.378-0.7
		c0.309-0.336,0.784-0.511,1.394-0.511c1.016,0,1.66,0.532,1.66,1.372c0,0.428-0.182,0.806-0.49,1.022
		c-0.182,0.134-0.336,0.189-0.658,0.253c0.406,0.042,0.623,0.118,0.861,0.301c0.309,0.238,0.47,0.609,0.47,1.058
		c0,0.945-0.729,1.534-1.898,1.534c-0.707,0-1.232-0.196-1.569-0.575c-0.146-0.168-0.23-0.321-0.356-0.679L42.938,14.877z"/>
	<path d="M47.649,15.78c-0.189-0.188-0.336-0.406-0.42-0.644c-0.176-0.49-0.267-1.044-0.267-1.618c0-0.742,0.161-1.499,0.406-1.905
		c0.336-0.567,0.876-0.861,1.569-0.861c0.518,0,0.966,0.168,1.281,0.497c0.196,0.196,0.336,0.413,0.42,0.645
		c0.176,0.483,0.267,1.044,0.267,1.625c0,0.848-0.183,1.597-0.49,2.024c-0.351,0.49-0.841,0.735-1.485,0.735
		C48.413,16.278,47.979,16.109,47.649,15.78z M48.056,11.593c-0.147,0.161-0.259,0.336-0.315,0.511
		c-0.146,0.428-0.217,0.903-0.217,1.415c0,0.651,0.14,1.338,0.329,1.667c0.245,0.406,0.609,0.609,1.086,0.609
		c0.35,0,0.651-0.112,0.861-0.329c0.153-0.161,0.266-0.344,0.329-0.547c0.146-0.434,0.217-0.896,0.217-1.415
		c0-0.608-0.133-1.302-0.315-1.632c-0.23-0.42-0.609-0.637-1.1-0.637C48.566,11.235,48.279,11.354,48.056,11.593z"/>
	<path d="M52.416,15.479v0.693h-0.693v-0.693H52.416z"/>
	<path d="M54.096,16.173c-0.441,0-0.546,0.007-0.771,0.035c0.077-0.554,0.099-0.658,0.203-0.925c0.175-0.441,0.47-0.826,0.91-1.204
		c0.245-0.211,0.26-0.218,1.072-0.771c0.693-0.47,0.924-0.777,0.924-1.205c0-0.532-0.448-0.875-1.162-0.875
		c-0.462,0-0.806,0.153-1.016,0.455c-0.133,0.188-0.196,0.357-0.245,0.707l-0.588-0.098c0.104-0.505,0.21-0.75,0.44-1.009
		c0.315-0.357,0.792-0.539,1.408-0.539c1.058,0,1.737,0.532,1.737,1.358c0,0.357-0.141,0.693-0.414,0.995
		c-0.21,0.237-0.392,0.371-1.19,0.903c-0.553,0.371-0.777,0.567-1.009,0.861c-0.217,0.287-0.314,0.477-0.398,0.813h2.233
		c0.351,0,0.589-0.015,0.854-0.049v0.588c-0.279-0.028-0.511-0.042-0.861-0.042H54.096z"/>
	<path d="M58.617,13.462c-0.252-0.245-0.385-0.658-0.385-1.176c0-0.938,0.448-1.492,1.219-1.492c0.763,0,1.211,0.546,1.211,1.492
		c0,0.518-0.133,0.931-0.385,1.176c-0.21,0.203-0.497,0.315-0.826,0.315C59.114,13.777,58.827,13.665,58.617,13.462z M58.701,12.286
		c0,0.686,0.273,1.078,0.75,1.078c0.469,0,0.742-0.393,0.742-1.078c0-0.693-0.267-1.079-0.742-1.079
		C58.968,11.207,58.701,11.6,58.701,12.286z M62.987,10.752l0.295,0.224l-4.245,5.372l-0.294-0.23L62.987,10.752z M61.748,15.998
		c-0.252-0.245-0.385-0.658-0.385-1.177c0-0.938,0.448-1.492,1.218-1.492c0.771,0,1.212,0.547,1.212,1.499
		c0,0.512-0.133,0.925-0.385,1.17c-0.21,0.203-0.497,0.314-0.827,0.314C62.245,16.313,61.958,16.208,61.748,15.998z M61.832,14.821
		c0,0.687,0.273,1.078,0.749,1.078c0.47,0,0.743-0.392,0.743-1.078c0-0.693-0.267-1.079-0.743-1.079
		C62.099,13.742,61.832,14.135,61.832,14.821z"/>
</g>
<g>
	<path d="M124.497,10.99c0.217,0.021,0.343,0.027,0.63,0.027c0.631,0,1.64-0.042,2.137-0.098c0.154-0.014,0.294-0.042,0.392-0.084
		l0.295,0.371c-0.112,0.077-0.161,0.119-0.344,0.294c-0.687,0.666-1.597,1.373-2.297,1.786c0.343-0.063,0.616-0.098,1.681-0.188
		c0.287-0.021,0.715-0.063,1.247-0.112c0.287-0.021,0.497-0.042,0.637-0.057c0.092-0.007,0.119-0.007,0.203-0.027l0.05,0.49
		c-0.07,0-0.127,0-0.154,0c-0.715,0-1.408,0.133-1.927,0.378c-0.356,0.168-0.679,0.413-0.875,0.665
		c-0.161,0.211-0.224,0.371-0.224,0.582c0,0.574,0.602,0.903,1.666,0.903c0.183,0,0.322-0.015,0.477-0.042l0.021,0.539
		c-0.119-0.007-0.119-0.007-0.477-0.014c-0.819-0.015-1.429-0.168-1.765-0.456c-0.267-0.224-0.414-0.539-0.414-0.882
		c0-0.623,0.519-1.177,1.527-1.618c-0.098,0.014-0.098,0.014-0.385,0.063c-0.119,0.014-0.743,0.098-1.143,0.146
		c-1.113,0.134-1.807,0.238-2.065,0.315l-0.057-0.532c0.021,0,0.035,0,0.05,0c0.217,0,0.742-0.056,1.226-0.141
		c0.693-0.413,1.625-1.142,2.325-1.807c0.111-0.104,0.14-0.126,0.23-0.196c-0.392,0.077-1.162,0.134-2.191,0.168
		c-0.267,0.015-0.295,0.015-0.435,0.028L124.497,10.99z"/>
	<path d="M132.981,14.352c-0.406,0.925-0.819,1.345-1.323,1.345c-0.665,0-1.163-0.729-1.163-1.709c0-0.714,0.267-1.407,0.735-1.933
		c0.561-0.616,1.324-0.932,2.263-0.932c0.784,0,1.471,0.245,1.926,0.693c0.441,0.428,0.68,1.037,0.68,1.709
		c0,1.086-0.589,1.982-1.604,2.416c-0.315,0.134-0.582,0.218-1.065,0.322c-0.069-0.23-0.111-0.301-0.245-0.469
		c0.512-0.084,0.841-0.176,1.17-0.329c0.771-0.351,1.239-1.1,1.239-1.962c0-0.798-0.405-1.442-1.113-1.758
		c-0.259-0.111-0.462-0.161-0.813-0.175C133.563,12.545,133.297,13.616,132.981,14.352z M132.12,11.907
		c-0.707,0.428-1.142,1.219-1.142,2.088c0,0.672,0.294,1.19,0.673,1.19c0.294,0,0.574-0.329,0.875-1.016
		c0.287-0.658,0.547-1.695,0.638-2.592C132.744,11.613,132.442,11.711,132.12,11.907z"/>
	<path d="M137.93,13.596c0-0.252,0.007-0.483,0.028-0.841c-0.302,0.512-0.393,0.645-0.735,1.051
		c-0.147-0.217-0.168-0.245-0.295-0.378c0.617-0.651,1.037-1.296,1.353-2.088c0.146-0.356,0.259-0.735,0.294-0.994l0.49,0.154
		c-0.042,0.098-0.063,0.161-0.147,0.399c-0.154,0.462-0.301,0.798-0.539,1.246v3.769c0,0.329,0.014,0.595,0.035,0.833h-0.525
		c0.028-0.252,0.042-0.477,0.042-0.848V13.596z M139.954,13.112v2.599c0,0.175,0.049,0.23,0.259,0.272
		c0.189,0.042,0.477,0.057,1.029,0.057c0.876,0,1.233-0.035,1.395-0.126c0.16-0.092,0.252-0.386,0.301-1.002
		c0.189,0.105,0.259,0.126,0.455,0.175c-0.112,0.708-0.224,1.022-0.413,1.156c-0.225,0.153-0.687,0.21-1.765,0.21
		c-0.414,0-0.764-0.014-1.016-0.042c-0.273-0.028-0.47-0.099-0.574-0.21c-0.077-0.077-0.112-0.196-0.112-0.386v-2.549l-0.126,0.042
		c-0.379,0.133-0.463,0.168-0.581,0.23l-0.099-0.483c0.189-0.027,0.406-0.076,0.609-0.146l0.196-0.07v-0.967
		c0-0.294-0.014-0.511-0.042-0.714h0.525c-0.028,0.196-0.042,0.399-0.042,0.693v0.841l1.022-0.357v-1.261
		c0-0.252-0.015-0.448-0.042-0.651h0.511c-0.027,0.203-0.042,0.385-0.042,0.651v1.113l1.1-0.378c0.28-0.099,0.421-0.154,0.554-0.225
		c-0.007,0.105-0.015,0.218-0.015,0.309c-0.014,0.609-0.076,1.709-0.126,2.122c-0.069,0.588-0.188,0.722-0.637,0.722
		c-0.161,0-0.309-0.007-0.505-0.028c-0.027-0.168-0.049-0.273-0.119-0.448c0.218,0.049,0.421,0.077,0.561,0.077
		c0.231,0,0.252-0.049,0.309-0.603c0.042-0.392,0.069-0.945,0.084-1.562l-1.205,0.427v1.976c0,0.272,0.015,0.476,0.042,0.672h-0.511
		c0.027-0.196,0.042-0.392,0.042-0.679v-1.821L139.954,13.112z"/>
</g>
<g>
	<path d="M150.064,14.877c0.112,0.364,0.21,0.512,0.428,0.666c0.237,0.168,0.546,0.252,0.903,0.252c0.813,0,1.323-0.421,1.323-1.086
		c0-0.693-0.497-1.071-1.429-1.071c-0.196,0-0.371,0.014-0.561,0.035v-0.554c0.161,0.028,0.33,0.042,0.519,0.042
		c0.463,0,0.806-0.105,1.022-0.322c0.176-0.168,0.28-0.427,0.28-0.68c0-0.602-0.42-0.952-1.127-0.952
		c-0.428,0-0.736,0.119-0.932,0.371c-0.099,0.126-0.147,0.238-0.225,0.497l-0.581-0.126c0.119-0.356,0.203-0.518,0.378-0.7
		c0.309-0.336,0.784-0.511,1.394-0.511c1.016,0,1.66,0.532,1.66,1.372c0,0.428-0.182,0.806-0.49,1.022
		c-0.182,0.134-0.336,0.189-0.658,0.253c0.406,0.042,0.623,0.118,0.861,0.301c0.309,0.238,0.47,0.609,0.47,1.058
		c0,0.945-0.729,1.534-1.898,1.534c-0.707,0-1.232-0.196-1.569-0.575c-0.146-0.168-0.23-0.321-0.356-0.679L150.064,14.877z"/>
	<path d="M153.977,14.316c0.147-0.168,0.309-0.364,0.456-0.539l1.771-2.213c0.238-0.294,0.364-0.47,0.525-0.715h0.525
		c-0.035,0.413-0.042,0.631-0.042,1.184v2.298h0.266c0.294,0,0.477-0.015,0.729-0.049v0.581c-0.259-0.035-0.435-0.049-0.735-0.049
		h-0.259v0.602c0,0.337,0.014,0.498,0.056,0.757h-0.638c0.042-0.245,0.057-0.441,0.057-0.757v-0.602h-1.877
		c-0.393,0-0.603,0.007-0.834,0.027V14.316z M156.694,12.559c0-0.371,0.007-0.595,0.042-0.952c-0.147,0.21-0.322,0.441-0.525,0.7
		l-1.61,2.031h2.094V12.559z"/>
	<path d="M159.57,15.479v0.693h-0.693v-0.693H159.57z"/>
	<path d="M161.194,10.814c0.182,0.028,0.314,0.035,0.581,0.035h0.441c0.238,0,0.35-0.007,0.581-0.035
		c-0.042,0.428-0.063,0.785-0.063,1.163v3.404c0,0.329,0.015,0.532,0.057,0.791h-0.665c0.042-0.245,0.056-0.47,0.056-0.791v-4.056
		h-0.378c-0.225,0-0.406,0.014-0.609,0.042V10.814z"/>
</g>
<g>
	<path d="M86.799,39.252c0.112,0.364,0.21,0.512,0.428,0.666c0.237,0.168,0.546,0.252,0.903,0.252c0.813,0,1.323-0.421,1.323-1.086
		c0-0.693-0.497-1.071-1.429-1.071c-0.196,0-0.371,0.014-0.561,0.035v-0.554c0.161,0.028,0.33,0.042,0.519,0.042
		c0.463,0,0.806-0.105,1.022-0.322c0.176-0.168,0.28-0.427,0.28-0.68c0-0.602-0.42-0.952-1.127-0.952
		c-0.428,0-0.736,0.119-0.932,0.371c-0.099,0.126-0.147,0.238-0.225,0.497l-0.581-0.126c0.119-0.356,0.203-0.518,0.378-0.7
		c0.309-0.336,0.784-0.511,1.394-0.511c1.016,0,1.66,0.532,1.66,1.372c0,0.428-0.182,0.806-0.49,1.022
		c-0.182,0.134-0.336,0.189-0.658,0.253c0.406,0.042,0.623,0.118,0.861,0.301c0.309,0.238,0.47,0.609,0.47,1.058
		c0,0.945-0.729,1.534-1.898,1.534c-0.707,0-1.232-0.196-1.569-0.575c-0.146-0.168-0.23-0.321-0.356-0.679L86.799,39.252z"/>
	<path d="M91.678,40.548c-0.441,0-0.546,0.007-0.771,0.035c0.077-0.554,0.099-0.658,0.203-0.925c0.175-0.441,0.47-0.826,0.91-1.204
		c0.245-0.211,0.26-0.218,1.072-0.771c0.693-0.47,0.924-0.777,0.924-1.205c0-0.532-0.448-0.875-1.162-0.875
		c-0.462,0-0.806,0.153-1.016,0.455c-0.133,0.188-0.196,0.357-0.245,0.707l-0.588-0.098c0.104-0.505,0.21-0.75,0.44-1.009
		c0.315-0.357,0.792-0.539,1.408-0.539c1.058,0,1.737,0.532,1.737,1.358c0,0.357-0.141,0.693-0.414,0.995
		c-0.21,0.237-0.392,0.371-1.19,0.903c-0.553,0.371-0.777,0.567-1.009,0.861c-0.217,0.287-0.314,0.477-0.398,0.813h2.233
		c0.351,0,0.589-0.015,0.854-0.049v0.588c-0.279-0.028-0.511-0.042-0.861-0.042H91.678z"/>
	<path d="M96.276,39.854v0.693h-0.693v-0.693H96.276z"/>
	<path d="M98.005,37.256c-0.014,0.126-0.014,0.126-0.056,0.315c0.336-0.322,0.742-0.483,1.226-0.483
		c0.512,0,0.945,0.168,1.261,0.477c0.315,0.301,0.469,0.714,0.469,1.232c0,1.128-0.735,1.849-1.891,1.849
		c-0.546,0-1.002-0.161-1.338-0.476c-0.175-0.176-0.273-0.322-0.441-0.658l0.574-0.169c0.07,0.196,0.119,0.287,0.225,0.406
		c0.238,0.267,0.588,0.414,0.994,0.414c0.785,0,1.31-0.533,1.31-1.338c0-0.771-0.482-1.275-1.226-1.275
		c-0.356,0-0.665,0.099-0.917,0.295c-0.168,0.133-0.245,0.23-0.322,0.42l-0.525-0.049c0.056-0.273,0.077-0.421,0.105-0.722
		l0.153-1.583c0.015-0.203,0.021-0.287,0.021-0.42c0-0.099,0-0.126-0.014-0.302c0.217,0.028,0.329,0.035,0.742,0.035h1.442
		c0.379,0,0.539-0.014,0.819-0.056v0.596c-0.266-0.042-0.49-0.057-0.819-0.057h-1.646L98.005,37.256z"/>
</g>
<g>
	<path d="M132.578,39.252c0.112,0.364,0.21,0.512,0.428,0.666c0.237,0.168,0.546,0.252,0.903,0.252c0.813,0,1.323-0.421,1.323-1.086
		c0-0.693-0.497-1.071-1.429-1.071c-0.196,0-0.371,0.014-0.561,0.035v-0.554c0.161,0.028,0.33,0.042,0.519,0.042
		c0.463,0,0.806-0.105,1.022-0.322c0.176-0.168,0.28-0.427,0.28-0.68c0-0.602-0.42-0.952-1.127-0.952
		c-0.428,0-0.736,0.119-0.932,0.371c-0.099,0.126-0.147,0.238-0.225,0.497l-0.581-0.126c0.119-0.356,0.203-0.518,0.378-0.7
		c0.309-0.336,0.784-0.511,1.394-0.511c1.016,0,1.66,0.532,1.66,1.372c0,0.428-0.182,0.806-0.49,1.022
		c-0.182,0.134-0.336,0.189-0.658,0.253c0.406,0.042,0.623,0.118,0.861,0.301c0.309,0.238,0.47,0.609,0.47,1.058
		c0,0.945-0.729,1.534-1.898,1.534c-0.707,0-1.232-0.196-1.569-0.575c-0.146-0.168-0.23-0.321-0.356-0.679L132.578,39.252z"/>
	<path d="M140.007,38.062c0.35,0.259,0.525,0.63,0.525,1.1c0,0.959-0.701,1.499-1.934,1.499c-1.281,0-1.989-0.532-1.989-1.499
		c0-0.504,0.203-0.89,0.624-1.163c0.217-0.14,0.371-0.195,0.63-0.237c-0.616-0.112-1.016-0.609-1.016-1.261
		c0-0.848,0.665-1.387,1.723-1.387c1.072,0,1.73,0.524,1.73,1.387c0,0.651-0.393,1.142-1.016,1.261
		C139.579,37.803,139.775,37.887,140.007,38.062z M137.184,39.126c0,0.665,0.512,1.058,1.38,1.058c0.49,0,0.89-0.126,1.128-0.364
		c0.175-0.161,0.266-0.406,0.266-0.693c0-0.687-0.524-1.1-1.387-1.1C137.709,38.026,137.184,38.446,137.184,39.126z M137.394,36.542
		c0,0.623,0.449,1.001,1.185,1.001s1.176-0.378,1.176-1.001c0-0.589-0.462-0.96-1.184-0.96
		C137.856,35.582,137.394,35.96,137.394,36.542z"/>
	<path d="M142.056,39.854v0.693h-0.693v-0.693H142.056z"/>
	<path d="M143.735,40.548c-0.441,0-0.546,0.007-0.771,0.035c0.077-0.554,0.099-0.658,0.203-0.925c0.175-0.441,0.47-0.826,0.91-1.204
		c0.245-0.211,0.26-0.218,1.072-0.771c0.693-0.47,0.924-0.777,0.924-1.205c0-0.532-0.448-0.875-1.162-0.875
		c-0.462,0-0.806,0.153-1.016,0.455c-0.133,0.188-0.196,0.357-0.245,0.707l-0.588-0.098c0.104-0.505,0.21-0.75,0.44-1.009
		c0.315-0.357,0.792-0.539,1.408-0.539c1.058,0,1.737,0.532,1.737,1.358c0,0.357-0.141,0.693-0.414,0.995
		c-0.21,0.237-0.392,0.371-1.19,0.903c-0.553,0.371-0.777,0.567-1.009,0.861c-0.217,0.287-0.314,0.477-0.398,0.813h2.233
		c0.351,0,0.589-0.015,0.854-0.049v0.588c-0.279-0.028-0.511-0.042-0.861-0.042H143.735z"/>
</g>
<g>
	<path d="M46.762,58.675c0.112,0.364,0.21,0.512,0.428,0.666c0.237,0.168,0.546,0.252,0.903,0.252c0.813,0,1.323-0.421,1.323-1.086
		c0-0.693-0.497-1.071-1.429-1.071c-0.196,0-0.371,0.014-0.561,0.035v-0.554c0.161,0.028,0.33,0.042,0.519,0.042
		c0.463,0,0.806-0.105,1.022-0.322c0.176-0.168,0.28-0.427,0.28-0.68c0-0.602-0.42-0.952-1.127-0.952
		c-0.428,0-0.736,0.119-0.932,0.371c-0.099,0.126-0.147,0.238-0.225,0.497l-0.581-0.126c0.119-0.356,0.203-0.518,0.378-0.7
		c0.309-0.336,0.784-0.511,1.394-0.511c1.016,0,1.66,0.532,1.66,1.372c0,0.428-0.182,0.806-0.49,1.022
		c-0.182,0.134-0.336,0.189-0.658,0.253c0.406,0.042,0.623,0.118,0.861,0.301c0.309,0.238,0.47,0.609,0.47,1.058
		c0,0.945-0.729,1.534-1.898,1.534c-0.707,0-1.232-0.196-1.569-0.575c-0.146-0.168-0.23-0.321-0.356-0.679L46.762,58.675z"/>
	<path d="M51.689,56.679c-0.014,0.126-0.014,0.126-0.056,0.315c0.336-0.322,0.742-0.483,1.226-0.483
		c0.511,0,0.945,0.168,1.261,0.477c0.315,0.301,0.469,0.714,0.469,1.232c0,1.128-0.735,1.849-1.891,1.849
		c-0.546,0-1.002-0.161-1.338-0.476c-0.175-0.176-0.273-0.322-0.441-0.658l0.574-0.169c0.07,0.196,0.119,0.287,0.225,0.406
		c0.238,0.267,0.588,0.414,0.994,0.414c0.785,0,1.31-0.533,1.31-1.338c0-0.771-0.482-1.275-1.226-1.275
		c-0.356,0-0.665,0.099-0.917,0.295c-0.168,0.133-0.245,0.23-0.322,0.42l-0.525-0.049c0.056-0.273,0.077-0.421,0.105-0.722
		l0.153-1.583c0.015-0.203,0.021-0.287,0.021-0.42c0-0.099,0-0.126-0.014-0.302c0.217,0.028,0.329,0.035,0.742,0.035h1.442
		c0.379,0,0.539-0.014,0.819-0.056v0.596c-0.266-0.042-0.49-0.057-0.819-0.057h-1.646L51.689,56.679z"/>
	<path d="M56.239,59.277v0.693h-0.693v-0.693H56.239z"/>
	<path d="M57.968,56.679c-0.014,0.126-0.014,0.126-0.056,0.315c0.336-0.322,0.742-0.483,1.226-0.483
		c0.512,0,0.945,0.168,1.261,0.477c0.315,0.301,0.469,0.714,0.469,1.232c0,1.128-0.735,1.849-1.891,1.849
		c-0.546,0-1.002-0.161-1.338-0.476c-0.175-0.176-0.273-0.322-0.441-0.658l0.574-0.169c0.07,0.196,0.119,0.287,0.225,0.406
		c0.238,0.267,0.588,0.414,0.994,0.414c0.785,0,1.31-0.533,1.31-1.338c0-0.771-0.482-1.275-1.226-1.275
		c-0.356,0-0.665,0.099-0.917,0.295c-0.168,0.133-0.245,0.23-0.322,0.42l-0.525-0.049c0.056-0.273,0.077-0.421,0.105-0.722
		l0.153-1.583c0.015-0.203,0.021-0.287,0.021-0.42c0-0.099,0-0.126-0.014-0.302c0.217,0.028,0.329,0.035,0.742,0.035h1.442
		c0.379,0,0.539-0.014,0.819-0.056v0.596c-0.266-0.042-0.49-0.057-0.819-0.057h-1.646L57.968,56.679z"/>
	<path d="M62.44,57.26c-0.252-0.245-0.385-0.658-0.385-1.176c0-0.938,0.448-1.492,1.219-1.492c0.763,0,1.211,0.546,1.211,1.492
		c0,0.518-0.133,0.931-0.385,1.176c-0.21,0.203-0.497,0.315-0.826,0.315C62.938,57.575,62.65,57.463,62.44,57.26z M62.524,56.084
		c0,0.686,0.273,1.078,0.75,1.078c0.469,0,0.742-0.393,0.742-1.078c0-0.693-0.267-1.079-0.742-1.079
		C62.791,55.005,62.524,55.397,62.524,56.084z M66.811,54.55l0.295,0.224l-4.245,5.372l-0.294-0.23L66.811,54.55z M65.571,59.796
		c-0.252-0.245-0.385-0.658-0.385-1.177c0-0.938,0.448-1.492,1.218-1.492c0.771,0,1.212,0.547,1.212,1.499
		c0,0.512-0.133,0.925-0.385,1.17c-0.21,0.203-0.497,0.314-0.827,0.314C66.068,60.11,65.781,60.006,65.571,59.796z M65.655,58.619
		c0,0.687,0.273,1.078,0.749,1.078c0.47,0,0.743-0.392,0.743-1.078c0-0.693-0.267-1.079-0.743-1.079
		C65.922,57.54,65.655,57.933,65.655,58.619z"/>
</g>
<g>
	<path d="M95.424,63.425c0.112,0.364,0.21,0.512,0.428,0.666c0.237,0.168,0.546,0.252,0.903,0.252c0.813,0,1.323-0.421,1.323-1.086
		c0-0.693-0.497-1.071-1.429-1.071c-0.196,0-0.371,0.014-0.561,0.035v-0.554c0.161,0.028,0.33,0.042,0.519,0.042
		c0.463,0,0.806-0.105,1.022-0.322c0.176-0.168,0.28-0.427,0.28-0.68c0-0.602-0.42-0.952-1.127-0.952
		c-0.428,0-0.736,0.119-0.932,0.371c-0.099,0.126-0.147,0.238-0.225,0.497l-0.581-0.126c0.119-0.356,0.203-0.518,0.378-0.7
		c0.309-0.336,0.784-0.511,1.394-0.511c1.016,0,1.66,0.532,1.66,1.372c0,0.428-0.182,0.806-0.49,1.022
		c-0.182,0.134-0.336,0.189-0.658,0.253c0.406,0.042,0.623,0.118,0.861,0.301c0.309,0.238,0.47,0.609,0.47,1.058
		c0,0.945-0.729,1.534-1.898,1.534c-0.707,0-1.232-0.196-1.569-0.575c-0.146-0.168-0.23-0.321-0.356-0.679L95.424,63.425z"/>
	<path d="M100.303,64.721c-0.441,0-0.546,0.007-0.771,0.035c0.077-0.554,0.099-0.658,0.203-0.925c0.175-0.441,0.47-0.826,0.91-1.204
		c0.245-0.211,0.26-0.218,1.072-0.771c0.693-0.47,0.924-0.777,0.924-1.205c0-0.532-0.448-0.875-1.162-0.875
		c-0.462,0-0.806,0.153-1.016,0.455c-0.133,0.188-0.196,0.357-0.245,0.707l-0.588-0.098c0.104-0.505,0.21-0.75,0.44-1.009
		c0.315-0.357,0.792-0.539,1.408-0.539c1.058,0,1.737,0.532,1.737,1.358c0,0.357-0.141,0.693-0.414,0.995
		c-0.21,0.237-0.392,0.371-1.19,0.903c-0.553,0.371-0.777,0.567-1.009,0.861c-0.217,0.287-0.314,0.477-0.398,0.813h2.233
		c0.351,0,0.589-0.015,0.854-0.049v0.588c-0.279-0.028-0.511-0.042-0.861-0.042H100.303z"/>
	<path d="M104.901,64.027v0.693h-0.693v-0.693H104.901z"/>
	<path d="M106.63,61.429c-0.014,0.126-0.014,0.126-0.056,0.315c0.336-0.322,0.742-0.483,1.226-0.483
		c0.512,0,0.945,0.168,1.261,0.477c0.315,0.301,0.469,0.714,0.469,1.232c0,1.128-0.735,1.849-1.891,1.849
		c-0.546,0-1.002-0.161-1.338-0.476c-0.175-0.176-0.273-0.322-0.441-0.658l0.574-0.169c0.07,0.196,0.119,0.287,0.225,0.406
		c0.238,0.267,0.588,0.414,0.994,0.414c0.785,0,1.31-0.533,1.31-1.338c0-0.771-0.482-1.275-1.226-1.275
		c-0.356,0-0.665,0.099-0.917,0.295c-0.168,0.133-0.245,0.23-0.322,0.42l-0.525-0.049c0.056-0.273,0.077-0.421,0.105-0.722
		l0.153-1.583c0.015-0.203,0.021-0.287,0.021-0.42c0-0.099,0-0.126-0.014-0.302c0.217,0.028,0.329,0.035,0.742,0.035h1.442
		c0.379,0,0.539-0.014,0.819-0.056v0.596c-0.266-0.042-0.49-0.057-0.819-0.057h-1.646L106.63,61.429z"/>
</g>
<g>
	<path d="M140.05,63.425c0.112,0.364,0.21,0.512,0.428,0.666c0.237,0.168,0.546,0.252,0.903,0.252c0.813,0,1.323-0.421,1.323-1.086
		c0-0.693-0.497-1.071-1.429-1.071c-0.196,0-0.371,0.014-0.561,0.035v-0.554c0.161,0.028,0.33,0.042,0.519,0.042
		c0.463,0,0.806-0.105,1.022-0.322c0.176-0.168,0.28-0.427,0.28-0.68c0-0.602-0.42-0.952-1.127-0.952
		c-0.428,0-0.736,0.119-0.932,0.371c-0.099,0.126-0.147,0.238-0.225,0.497l-0.581-0.126c0.119-0.356,0.203-0.518,0.378-0.7
		c0.309-0.336,0.784-0.511,1.394-0.511c1.016,0,1.66,0.532,1.66,1.372c0,0.428-0.182,0.806-0.49,1.022
		c-0.182,0.134-0.336,0.189-0.658,0.253c0.406,0.042,0.623,0.118,0.861,0.301c0.309,0.238,0.47,0.609,0.47,1.058
		c0,0.945-0.729,1.534-1.898,1.534c-0.707,0-1.232-0.196-1.569-0.575c-0.146-0.168-0.23-0.321-0.356-0.679L140.05,63.425z"/>
	<path d="M144.929,64.721c-0.441,0-0.546,0.007-0.771,0.035c0.077-0.554,0.099-0.658,0.203-0.925c0.175-0.441,0.47-0.826,0.91-1.204
		c0.245-0.211,0.26-0.218,1.072-0.771c0.693-0.47,0.924-0.777,0.924-1.205c0-0.532-0.448-0.875-1.162-0.875
		c-0.462,0-0.806,0.153-1.016,0.455c-0.133,0.188-0.196,0.357-0.245,0.707l-0.588-0.098c0.104-0.505,0.21-0.75,0.44-1.009
		c0.315-0.357,0.792-0.539,1.408-0.539c1.058,0,1.737,0.532,1.737,1.358c0,0.357-0.141,0.693-0.414,0.995
		c-0.21,0.237-0.392,0.371-1.19,0.903c-0.553,0.371-0.777,0.567-1.009,0.861c-0.217,0.287-0.314,0.477-0.398,0.813h2.233
		c0.351,0,0.589-0.015,0.854-0.049v0.588c-0.279-0.028-0.511-0.042-0.861-0.042H144.929z"/>
	<path d="M149.527,64.027v0.693h-0.693v-0.693H149.527z"/>
	<path d="M151.039,64.328c-0.189-0.188-0.336-0.406-0.42-0.644c-0.176-0.49-0.267-1.044-0.267-1.618
		c0-0.742,0.161-1.499,0.406-1.905c0.336-0.567,0.876-0.861,1.569-0.861c0.518,0,0.966,0.168,1.281,0.497
		c0.196,0.196,0.336,0.413,0.42,0.645c0.176,0.483,0.267,1.044,0.267,1.625c0,0.848-0.183,1.597-0.49,2.024
		c-0.351,0.49-0.841,0.735-1.485,0.735C151.803,64.826,151.368,64.657,151.039,64.328z M151.445,60.141
		c-0.147,0.161-0.259,0.336-0.315,0.511c-0.146,0.428-0.217,0.903-0.217,1.415c0,0.651,0.14,1.338,0.329,1.667
		c0.245,0.406,0.609,0.609,1.086,0.609c0.35,0,0.651-0.112,0.861-0.329c0.153-0.161,0.266-0.344,0.329-0.547
		c0.146-0.434,0.217-0.896,0.217-1.415c0-0.608-0.133-1.302-0.315-1.632c-0.23-0.42-0.609-0.637-1.1-0.637
		C151.956,59.783,151.669,59.902,151.445,60.141z"/>
</g>
<g>
	<path d="M61.094,81.179c-0.014,0.126-0.014,0.126-0.056,0.315c0.336-0.322,0.742-0.483,1.226-0.483
		c0.512,0,0.945,0.168,1.261,0.477c0.315,0.301,0.469,0.714,0.469,1.232c0,1.128-0.735,1.849-1.891,1.849
		c-0.546,0-1.002-0.161-1.338-0.476c-0.175-0.176-0.273-0.322-0.441-0.658l0.574-0.169c0.07,0.196,0.119,0.287,0.225,0.406
		c0.238,0.267,0.588,0.414,0.994,0.414c0.785,0,1.31-0.533,1.31-1.338c0-0.771-0.482-1.275-1.226-1.275
		c-0.356,0-0.665,0.099-0.917,0.295c-0.168,0.133-0.245,0.23-0.322,0.42l-0.525-0.049c0.056-0.273,0.077-0.421,0.105-0.722
		l0.153-1.583c0.015-0.203,0.021-0.287,0.021-0.42c0-0.099,0-0.126-0.014-0.302c0.217,0.028,0.329,0.035,0.742,0.035h1.442
		c0.379,0,0.539-0.014,0.819-0.056v0.596c-0.266-0.042-0.49-0.057-0.819-0.057h-1.646L61.094,81.179z"/>
	<path d="M64.677,82.614c0.147-0.168,0.309-0.364,0.456-0.539l1.771-2.213c0.238-0.294,0.364-0.47,0.525-0.715h0.525
		c-0.035,0.413-0.042,0.631-0.042,1.184v2.298h0.266c0.294,0,0.477-0.015,0.729-0.049v0.581c-0.259-0.035-0.435-0.049-0.735-0.049
		h-0.259v0.602c0,0.337,0.014,0.498,0.056,0.757h-0.638c0.042-0.245,0.057-0.441,0.057-0.757v-0.602h-1.877
		c-0.393,0-0.603,0.007-0.834,0.027V82.614z M67.395,80.856c0-0.371,0.007-0.595,0.042-0.952c-0.147,0.21-0.322,0.441-0.525,0.7
		l-1.61,2.031h2.094V80.856z"/>
	<path d="M70.271,83.777v0.693h-0.693v-0.693H70.271z"/>
	<path d="M74.5,81.984c0.35,0.259,0.525,0.63,0.525,1.1c0,0.959-0.701,1.499-1.934,1.499c-1.281,0-1.989-0.532-1.989-1.499
		c0-0.504,0.203-0.89,0.624-1.163c0.217-0.14,0.371-0.195,0.63-0.237c-0.616-0.112-1.016-0.609-1.016-1.261
		c0-0.848,0.665-1.387,1.723-1.387c1.072,0,1.73,0.524,1.73,1.387c0,0.651-0.393,1.142-1.016,1.261
		C74.072,81.726,74.269,81.81,74.5,81.984z M71.677,83.049c0,0.665,0.512,1.058,1.38,1.058c0.49,0,0.89-0.126,1.128-0.364
		c0.175-0.161,0.266-0.406,0.266-0.693c0-0.687-0.524-1.1-1.387-1.1C72.202,81.949,71.677,82.369,71.677,83.049z M71.887,80.465
		c0,0.623,0.449,1.001,1.185,1.001s1.176-0.378,1.176-1.001c0-0.589-0.462-0.96-1.184-0.96
		C72.35,79.505,71.887,79.883,71.887,80.465z"/>
	<path d="M76.472,81.76c-0.252-0.245-0.385-0.658-0.385-1.176c0-0.938,0.448-1.492,1.219-1.492c0.763,0,1.211,0.546,1.211,1.492
		c0,0.518-0.133,0.931-0.385,1.176c-0.21,0.203-0.497,0.315-0.826,0.315C76.969,82.075,76.682,81.963,76.472,81.76z M76.556,80.584
		c0,0.686,0.273,1.078,0.75,1.078c0.469,0,0.742-0.393,0.742-1.078c0-0.693-0.267-1.079-0.742-1.079
		C76.822,79.505,76.556,79.897,76.556,80.584z M80.842,79.05l0.295,0.224l-4.245,5.372l-0.294-0.23L80.842,79.05z M79.603,84.296
		c-0.252-0.245-0.385-0.658-0.385-1.177c0-0.938,0.448-1.492,1.218-1.492c0.771,0,1.212,0.547,1.212,1.499
		c0,0.512-0.133,0.925-0.385,1.17c-0.21,0.203-0.497,0.314-0.827,0.314C80.1,84.61,79.813,84.506,79.603,84.296z M79.687,83.119
		c0,0.687,0.273,1.078,0.749,1.078c0.47,0,0.743-0.392,0.743-1.078c0-0.693-0.267-1.079-0.743-1.079
		C79.953,82.04,79.687,82.433,79.687,83.119z"/>
</g>
<g>
	<path d="M114.49,89.221c-0.441,0-0.546,0.007-0.771,0.035c0.077-0.554,0.099-0.658,0.203-0.925c0.175-0.441,0.47-0.826,0.91-1.204
		c0.245-0.211,0.26-0.218,1.072-0.771c0.693-0.47,0.924-0.777,0.924-1.205c0-0.532-0.448-0.875-1.162-0.875
		c-0.462,0-0.806,0.153-1.016,0.455c-0.133,0.188-0.196,0.357-0.245,0.707l-0.588-0.098c0.104-0.505,0.21-0.75,0.44-1.009
		c0.315-0.357,0.792-0.539,1.408-0.539c1.058,0,1.737,0.532,1.737,1.358c0,0.357-0.141,0.693-0.414,0.995
		c-0.21,0.237-0.392,0.371-1.19,0.903c-0.553,0.371-0.777,0.567-1.009,0.861c-0.217,0.287-0.314,0.477-0.398,0.813h2.233
		c0.351,0,0.589-0.015,0.854-0.049v0.588c-0.279-0.028-0.511-0.042-0.861-0.042H114.49z"/>
	<path d="M119.089,89.221c-0.441,0-0.546,0.007-0.771,0.035c0.077-0.554,0.099-0.658,0.203-0.925c0.175-0.441,0.47-0.826,0.91-1.204
		c0.245-0.211,0.26-0.218,1.072-0.771c0.693-0.47,0.924-0.777,0.924-1.205c0-0.532-0.448-0.875-1.162-0.875
		c-0.462,0-0.806,0.153-1.016,0.455c-0.133,0.188-0.196,0.357-0.245,0.707l-0.588-0.098c0.104-0.505,0.21-0.75,0.44-1.009
		c0.315-0.357,0.792-0.539,1.408-0.539c1.058,0,1.737,0.532,1.737,1.358c0,0.357-0.141,0.693-0.414,0.995
		c-0.21,0.237-0.392,0.371-1.19,0.903c-0.553,0.371-0.777,0.567-1.009,0.861c-0.217,0.287-0.314,0.477-0.398,0.813h2.233
		c0.351,0,0.589-0.015,0.854-0.049v0.588c-0.279-0.028-0.511-0.042-0.861-0.042H119.089z"/>
	<path d="M123.688,88.527v0.693h-0.693v-0.693H123.688z"/>
	<path d="M125.367,89.221c-0.441,0-0.546,0.007-0.771,0.035c0.077-0.554,0.099-0.658,0.203-0.925c0.175-0.441,0.47-0.826,0.91-1.204
		c0.245-0.211,0.26-0.218,1.072-0.771c0.693-0.47,0.924-0.777,0.924-1.205c0-0.532-0.448-0.875-1.162-0.875
		c-0.462,0-0.806,0.153-1.016,0.455c-0.133,0.188-0.196,0.357-0.245,0.707l-0.588-0.098c0.104-0.505,0.21-0.75,0.44-1.009
		c0.315-0.357,0.792-0.539,1.408-0.539c1.058,0,1.737,0.532,1.737,1.358c0,0.357-0.141,0.693-0.414,0.995
		c-0.21,0.237-0.392,0.371-1.19,0.903c-0.553,0.371-0.777,0.567-1.009,0.861c-0.217,0.287-0.314,0.477-0.398,0.813h2.233
		c0.351,0,0.589-0.015,0.854-0.049v0.588c-0.279-0.028-0.511-0.042-0.861-0.042H125.367z"/>
</g>
<g>
	<path d="M144.725,89.221c-0.441,0-0.546,0.007-0.771,0.035c0.077-0.554,0.099-0.658,0.203-0.925c0.175-0.441,0.47-0.826,0.91-1.204
		c0.245-0.211,0.26-0.218,1.072-0.771c0.693-0.47,0.924-0.777,0.924-1.205c0-0.532-0.448-0.875-1.162-0.875
		c-0.462,0-0.806,0.153-1.016,0.455c-0.133,0.188-0.196,0.357-0.245,0.707l-0.588-0.098c0.104-0.505,0.21-0.75,0.44-1.009
		c0.315-0.357,0.792-0.539,1.408-0.539c1.058,0,1.737,0.532,1.737,1.358c0,0.357-0.141,0.693-0.414,0.995
		c-0.21,0.237-0.392,0.371-1.19,0.903c-0.553,0.371-0.777,0.567-1.009,0.861c-0.217,0.287-0.314,0.477-0.398,0.813h2.233
		c0.351,0,0.589-0.015,0.854-0.049v0.588c-0.279-0.028-0.511-0.042-0.861-0.042H144.725z"/>
	<path d="M149.043,87.925c0.112,0.364,0.21,0.512,0.428,0.666c0.238,0.168,0.546,0.252,0.903,0.252c0.813,0,1.323-0.421,1.323-1.086
		c0-0.693-0.497-1.071-1.429-1.071c-0.196,0-0.371,0.014-0.56,0.035v-0.554c0.16,0.028,0.329,0.042,0.518,0.042
		c0.463,0,0.806-0.105,1.022-0.322c0.176-0.168,0.28-0.427,0.28-0.68c0-0.602-0.42-0.952-1.127-0.952
		c-0.428,0-0.736,0.119-0.932,0.371c-0.099,0.126-0.147,0.238-0.225,0.497l-0.581-0.126c0.119-0.356,0.203-0.518,0.378-0.7
		c0.309-0.336,0.784-0.511,1.394-0.511c1.016,0,1.66,0.532,1.66,1.372c0,0.428-0.182,0.806-0.49,1.022
		c-0.182,0.134-0.336,0.189-0.658,0.253c0.406,0.042,0.623,0.118,0.861,0.301c0.309,0.238,0.47,0.609,0.47,1.058
		c0,0.945-0.729,1.534-1.898,1.534c-0.707,0-1.232-0.196-1.568-0.575c-0.147-0.168-0.231-0.321-0.357-0.679L149.043,87.925z"/>
	<path d="M153.922,88.527v0.693h-0.693v-0.693H153.922z"/>
	<path d="M155.434,88.828c-0.189-0.188-0.336-0.406-0.42-0.644c-0.176-0.49-0.267-1.044-0.267-1.618
		c0-0.742,0.161-1.499,0.406-1.905c0.336-0.567,0.876-0.861,1.569-0.861c0.518,0,0.966,0.168,1.281,0.497
		c0.196,0.196,0.336,0.413,0.42,0.645c0.176,0.483,0.267,1.044,0.267,1.625c0,0.848-0.183,1.597-0.49,2.024
		c-0.351,0.49-0.841,0.735-1.485,0.735C156.197,89.326,155.763,89.157,155.434,88.828z M155.84,84.641
		c-0.147,0.161-0.259,0.336-0.315,0.511c-0.146,0.428-0.217,0.903-0.217,1.415c0,0.651,0.14,1.338,0.329,1.667
		c0.245,0.406,0.609,0.609,1.086,0.609c0.35,0,0.651-0.112,0.861-0.329c0.153-0.161,0.266-0.344,0.329-0.547
		c0.146-0.434,0.217-0.896,0.217-1.415c0-0.608-0.133-1.302-0.315-1.632c-0.23-0.42-0.609-0.637-1.1-0.637
		C156.351,84.283,156.063,84.402,155.84,84.641z"/>
</g>
<polyline fill="none" stroke="#000000" stroke-width="0.5" stroke-miterlimit="10" stroke-dasharray="1,1" points="72.332,17.846 
	71.113,24.605 71.113,42.201 79.508,48.961 79.508,66.558 105.644,73.315 "/>
</svg>
