<?xml version="1.0" encoding="utf-8"?>
<!-- Generator: Adobe Illustrator 16.0.3, SVG Export Plug-In . SVG Version: 6.00 Build 0)  -->
<!DOCTYPE svg PUBLIC "-//W3C//DTD SVG 1.1//EN" "http://www.w3.org/Graphics/SVG/1.1/DTD/svg11.dtd">
<svg version="1.1" id="レイヤー_1" xmlns="http://www.w3.org/2000/svg" xmlns:xlink="http://www.w3.org/1999/xlink" x="0px"
	 y="0px" width="160.844px" height="160.838px" viewBox="0 0 160.844 160.838" enable-background="new 0 0 160.844 160.838"
	 xml:space="preserve">
<path d="M0.551,71.016l78.871,8.289V0C38.916,0.49,5.272,30.783,0.551,71.016z"/>
<path fill="#FF0653" d="M81.422,0v81.526L0.341,73.005C0.097,75.566,0,77.725,0,80.416c0,44.345,36.077,80.422,80.422,80.422
	s80.422-36.077,80.422-80.422C160.844,36.404,125.309,0.536,81.422,0z"/>
<g>
	<path d="M57.3,102.396c-0.051,0.306-0.051,0.306-0.068,1.189c-0.051,2.839-0.527,4.521-1.683,5.984
		c-1.037,1.309-2.294,2.158-4.352,2.939c-0.255-0.543-0.374-0.713-0.782-1.139c1.377-0.408,2.227-0.832,3.111-1.563
		c1.802-1.444,2.465-3.179,2.465-6.493c0-0.477-0.017-0.596-0.068-0.918H57.3z M64.014,100.254c-0.17,0.222-0.204,0.272-0.408,0.681
		c-1.173,2.278-2.754,3.825-4.964,4.845c-0.255-0.426-0.391-0.578-0.833-0.969c1.19-0.459,1.887-0.867,2.686-1.615
		c0.782-0.73,1.411-1.564,1.904-2.533h-9.655c-0.935,0-1.377,0.018-2.006,0.086v-1.31c0.578,0.085,1.054,0.119,2.023,0.119h9.128
		c1.139,0,1.139,0,1.445-0.119L64.014,100.254z"/>
	<path d="M78.702,99.32c-0.221,0.322-0.289,0.475-0.527,1.036c-1.105,2.601-1.632,3.638-2.499,4.964
		c1.462,1.207,2.55,2.244,3.91,3.654l-0.952,1.055c-0.901-1.156-1.989-2.244-3.706-3.689c-1.785,2.447-3.858,4.232-6.833,5.916
		c-0.306-0.51-0.442-0.664-0.884-1.021c2.72-1.325,4.896-3.161,6.766-5.677c-1.547-1.241-3.145-2.295-4.573-3.077l0.85-0.901
		c1.666,1.004,2.516,1.564,4.419,2.958c0.799-1.258,1.411-2.481,2.006-3.96c0.425-1.037,0.51-1.31,0.595-1.803L78.702,99.32z"/>
	<path d="M87.917,98.861c-0.051,0.407-0.067,0.629-0.067,1.41v4.572c0,0.816,0.017,1.004,0.067,1.411h-1.411
		c0.051-0.391,0.068-0.748,0.068-1.428v-4.538c0-0.731-0.018-1.021-0.068-1.428H87.917z M95.447,98.861
		c-0.068,0.391-0.085,0.662-0.085,1.479v2.006c0,2.702-0.118,4.198-0.425,5.184c-0.493,1.599-1.564,2.84-3.229,3.774
		c-0.833,0.476-1.649,0.799-3.094,1.224c-0.187-0.493-0.289-0.663-0.714-1.173c1.529-0.34,2.346-0.629,3.229-1.155
		c1.581-0.918,2.396-2.006,2.72-3.588c0.188-0.969,0.238-1.75,0.238-4.334v-1.921c0-0.884-0.018-1.122-0.068-1.495H95.447z"/>
	<path d="M106.805,101.717c0.067-0.867,0.102-1.803,0.102-2.551c0-0.391-0.018-0.577-0.068-0.883l1.377,0.033
		c-0.068,0.391-0.068,0.391-0.136,2.193c-0.034,0.527-0.034,0.73-0.085,1.207l4.25-0.018c0.764,0,0.781-0.017,1.121-0.119
		l0.629,0.545c-0.102,0.254-0.119,0.407-0.136,1.02c-0.052,2.209-0.255,4.776-0.476,5.949c-0.426,2.328-0.936,2.94-2.465,2.94
		c-0.545,0-1.207-0.085-2.108-0.288c0-0.103,0-0.154,0-0.205c0-0.391-0.034-0.629-0.187-1.07c0.918,0.306,1.632,0.441,2.192,0.441
		c0.833,0,1.104-0.408,1.429-2.09c0.254-1.344,0.407-3.52,0.424-6.035l-4.76,0.018c-0.221,2.176-0.611,3.586-1.359,5.014
		c-0.951,1.752-2.533,3.35-4.453,4.505c-0.307-0.493-0.442-0.629-0.867-1.003c2.023-1.07,3.484-2.566,4.42-4.471
		c0.578-1.189,0.832-2.142,1.054-4.045l-3.094,0.017c-1.003,0-1.19,0-1.802,0.085l-0.018-1.292c0.578,0.103,0.986,0.119,1.836,0.119
		L106.805,101.717z"/>
	<path d="M65.281,118.119c-0.306,0.237-0.595,0.611-1.258,1.631c-1.53,2.363-2.244,3.809-2.907,5.882
		c-0.442,1.411-0.629,2.278-0.901,4.249h-1.615c0.544-3.076,1.003-4.605,2.057-6.781c0.816-1.7,1.547-2.873,3.06-4.93h-5.524
		c-0.799,0-1.275,0.033-1.921,0.119v-1.445c0.663,0.085,1.122,0.119,1.938,0.119h5.1c1.003,0,1.377-0.018,1.972-0.085V118.119z"/>
	<path d="M74.92,119.784c-0.221-0.544-0.34-0.782-0.595-1.071c-0.51-0.561-1.173-0.85-2.022-0.85c-1.326,0-2.329,0.715-2.941,2.107
		c-0.442,1.021-0.595,1.803-0.714,3.655c0.306-0.526,0.476-0.765,0.85-1.088c0.799-0.714,1.7-1.036,2.873-1.036
		c2.635,0,4.267,1.631,4.267,4.249c0,2.635-1.768,4.368-4.454,4.368c-1.207,0-2.346-0.391-3.077-1.07
		c-1.105-1.02-1.717-2.924-1.717-5.338c0-2.125,0.476-4.028,1.292-5.133c0.901-1.225,2.107-1.854,3.586-1.854
		c1.02,0,1.938,0.255,2.584,0.714c0.595,0.425,0.935,0.884,1.428,1.903L74.92,119.784z M72.184,122.641
		c-0.85,0-1.751,0.373-2.346,0.969c-0.561,0.561-0.85,1.309-0.85,2.158c0,1.836,1.377,3.195,3.213,3.195
		c1.105,0,2.125-0.526,2.652-1.377c0.272-0.441,0.442-1.139,0.442-1.801C75.294,123.779,74.172,122.641,72.184,122.641z"/>
	<path d="M80.429,128.199v1.682h-1.683v-1.682H80.429z"/>
	<path d="M91.699,118.119c-0.307,0.237-0.596,0.611-1.258,1.631c-1.53,2.363-2.244,3.809-2.907,5.882
		c-0.442,1.411-0.629,2.278-0.901,4.249h-1.614c0.544-3.076,1.003-4.605,2.057-6.781c0.815-1.7,1.547-2.873,3.06-4.93H84.61
		c-0.799,0-1.274,0.033-1.921,0.119v-1.445c0.663,0.085,1.122,0.119,1.938,0.119h5.1c1.004,0,1.377-0.018,1.973-0.085V118.119z"/>
	<path d="M95.49,123.303c-0.611-0.595-0.935-1.598-0.935-2.855c0-2.277,1.088-3.621,2.958-3.621c1.853,0,2.94,1.326,2.94,3.621
		c0,1.258-0.323,2.261-0.935,2.855c-0.51,0.493-1.207,0.766-2.006,0.766C96.697,124.068,96,123.796,95.49,123.303z M95.694,120.447
		c0,1.666,0.663,2.617,1.819,2.617c1.139,0,1.801-0.951,1.801-2.617c0-1.683-0.646-2.617-1.801-2.617
		C96.34,117.83,95.694,118.781,95.694,120.447z M106.098,116.725l0.714,0.544L96.51,130.307l-0.713-0.561L106.098,116.725z
		 M103.089,129.457c-0.612-0.596-0.935-1.599-0.935-2.856c0-2.278,1.088-3.62,2.957-3.62c1.87,0,2.941,1.326,2.941,3.637
		c0,1.241-0.324,2.244-0.936,2.84c-0.51,0.492-1.207,0.764-2.006,0.764C104.295,130.221,103.599,129.967,103.089,129.457z
		 M103.293,126.601c0,1.666,0.662,2.618,1.818,2.618c1.139,0,1.802-0.952,1.802-2.618c0-1.683-0.646-2.618-1.802-2.618
		C103.938,123.982,103.293,124.936,103.293,126.601z"/>
</g>
</svg>
