<?xml version="1.0" encoding="utf-8"?>
<!-- Generator: Adobe Illustrator 16.0.0, SVG Export Plug-In . SVG Version: 6.00 Build 0)  -->
<!DOCTYPE svg PUBLIC "-//W3C//DTD SVG 1.1//EN" "http://www.w3.org/Graphics/SVG/1.1/DTD/svg11.dtd">
<svg version="1.1" id="輔仁親王" xmlns="http://www.w3.org/2000/svg" xmlns:xlink="http://www.w3.org/1999/xlink" x="0px"
	 y="0px" width="111.019px" height="40.056px" viewBox="0 0 111.019 40.056" enable-background="new 0 0 111.019 40.056"
	 xml:space="preserve">
<g>
	<path d="M0.643,4.58C0.574,5.27,0.479,5.617,0.269,5.991C0.185,5.88,0.121,5.823,0,5.749c0.137-0.221,0.206-0.4,0.269-0.674
		c0.09-0.411,0.137-1.101,0.137-1.932C0.406,2.785,0.4,2.59,0.379,2.4c0.132,0.021,0.232,0.026,0.463,0.026h0.379
		c0.221,0,0.342-0.005,0.437-0.026C1.643,2.538,1.638,2.664,1.638,2.932v2.58c0,0.321-0.1,0.416-0.442,0.416
		c-0.116,0-0.253-0.01-0.369-0.026C0.822,5.78,0.806,5.696,0.764,5.575C0.948,5.612,1.069,5.627,1.18,5.627
		c0.126,0,0.163-0.031,0.163-0.158V4.58H0.643z M1.496,1.584c0-0.137-0.011-0.231-0.021-0.332h0.358
		c-0.016,0.1-0.021,0.184-0.021,0.332v0.058h1.248V1.584c0-0.132-0.005-0.227-0.021-0.332h0.363C3.386,1.342,3.38,1.437,3.38,1.584
		v0.058h0.884c0.227,0,0.374-0.011,0.532-0.032v0.347C4.649,1.937,4.47,1.927,4.265,1.927H3.38c0.005,0.089,0.011,0.142,0.021,0.195
		H3.038c0.01-0.058,0.016-0.11,0.021-0.195H1.812c0,0.163,0.005,0.237,0.021,0.337H1.475C1.49,2.164,1.49,2.08,1.496,1.927H0.674
		c-0.21,0-0.379,0.01-0.532,0.031V1.611C0.3,1.632,0.448,1.643,0.674,1.643h0.821V1.584z M1.343,4.312V3.627H0.695
		C0.69,3.911,0.68,4.096,0.664,4.312H1.343z M1.343,3.359V2.701H0.701v0.437c0,0.053,0,0.09,0,0.222H1.343z M1.927,2.854
		c0.121,0.021,0.2,0.026,0.5,0.026C2.322,2.659,2.238,2.521,2.117,2.364L2.37,2.253c0.137,0.21,0.226,0.379,0.332,0.626h0.21
		C2.98,2.637,3.017,2.421,3.017,2.216L3.37,2.232C3.349,2.316,3.349,2.316,3.28,2.611C3.265,2.679,3.249,2.732,3.207,2.879h0.447
		c0.153-0.2,0.243-0.363,0.337-0.616l0.284,0.11c-0.126,0.237-0.21,0.374-0.311,0.505h0.168c0.279,0,0.395-0.005,0.516-0.026v0.294
		C4.512,3.137,4.375,3.132,4.133,3.132H3.638c0.068,0.179,0.126,0.29,0.221,0.437H4.27c0.279,0,0.384-0.005,0.516-0.026v0.305
		C4.649,3.838,4.512,3.833,4.27,3.833H4.049c0.237,0.284,0.495,0.49,0.837,0.668c-0.079,0.079-0.131,0.147-0.2,0.253
		C4.275,4.491,3.98,4.201,3.728,3.833H2.775C2.496,4.259,2.27,4.491,1.859,4.785c-0.068-0.1-0.122-0.158-0.216-0.226
		c0.379-0.237,0.584-0.421,0.806-0.727H2.274c-0.279,0-0.389,0.005-0.521,0.026V3.543c0.132,0.021,0.242,0.026,0.521,0.026h0.343
		c0.089-0.158,0.147-0.279,0.21-0.437H2.443c-0.268,0-0.374,0.005-0.516,0.026V2.854z M2.964,5.201
		C2.707,5.37,2.496,5.48,2.196,5.617c-0.137,0.058-0.158,0.069-0.237,0.11l-0.168-0.29C2.164,5.349,2.517,5.191,2.87,4.959
		L2.964,5.201z M2.533,4.348C2.707,4.501,2.77,4.57,2.917,4.764l-0.21,0.168C2.585,4.754,2.496,4.648,2.322,4.501L2.533,4.348z
		 M3.364,5.512c0,0.364-0.073,0.432-0.447,0.432c-0.095,0-0.184-0.005-0.379-0.026c-0.005-0.132-0.021-0.2-0.063-0.321
		c0.185,0.042,0.327,0.058,0.453,0.058c0.116,0,0.137-0.027,0.137-0.158v-1.1c0-0.126-0.005-0.232-0.026-0.348h0.353
		c-0.021,0.11-0.027,0.21-0.027,0.342V5.512z M3.117,3.132C3.059,3.28,3.007,3.412,2.922,3.569h0.642
		C3.48,3.417,3.417,3.285,3.359,3.132H3.117z M3.675,4.975c0.379,0.29,0.574,0.395,0.969,0.547C4.565,5.602,4.507,5.68,4.449,5.78
		C4.065,5.596,3.917,5.507,3.485,5.175L3.675,4.975z M4.139,4.47C4.012,4.643,3.865,4.807,3.728,4.938l-0.2-0.174
		C3.691,4.627,3.77,4.527,3.907,4.306L4.139,4.47z"/>
	<path d="M7.759,2.358C7.843,2.18,7.906,2.005,7.964,1.79H6.211v0.379c0,2.085-0.147,2.964-0.616,3.77
		C5.511,5.823,5.442,5.744,5.332,5.659C5.753,4.943,5.874,4.19,5.874,2.306c0-0.511-0.005-0.658-0.026-0.842
		c0.2,0.021,0.358,0.026,0.637,0.026h2.933c0.3,0,0.452-0.011,0.584-0.032v0.358C9.854,1.795,9.712,1.79,9.428,1.79H8.312
		C8.243,2.027,8.19,2.158,8.101,2.358h0.953c0.269,0,0.432-0.005,0.569-0.021c-0.021,0.137-0.026,0.29-0.026,0.511v0.937
		c0,0.232,0.005,0.379,0.026,0.516C9.459,4.286,9.286,4.28,9.059,4.28H8.307v1.29c0,0.326-0.106,0.384-0.695,0.384
		c-0.142,0-0.263-0.005-0.426-0.021C7.164,5.775,7.153,5.744,7.101,5.591c0.242,0.042,0.432,0.058,0.653,0.058
		c0.185,0,0.221-0.016,0.221-0.116V4.28H7.248c-0.205,0-0.379,0.006-0.553,0.021C6.711,4.143,6.716,3.98,6.716,3.759V2.875
		c0-0.237-0.005-0.369-0.021-0.537c0.152,0.016,0.321,0.021,0.553,0.021H7.759z M7.364,4.627c-0.29,0.516-0.574,0.863-0.953,1.19
		C6.332,5.712,6.269,5.659,6.153,5.586c0.416-0.337,0.664-0.626,0.906-1.101L7.364,4.627z M7.032,3.153h2.243V2.643H7.032V3.153z
		 M7.032,4.001h2.243V3.432H7.032V4.001z M9.064,4.485c0.29,0.432,0.616,0.763,1.027,1.053c-0.1,0.074-0.174,0.142-0.269,0.264
		C9.396,5.454,9.127,5.154,8.785,4.638L9.064,4.485z"/>
	<path d="M14.68,3.701c-0.068,0.1-0.084,0.132-0.131,0.2c-0.231,0.353-0.442,0.611-0.711,0.858c0.216,0.311,0.395,0.5,0.653,0.668
		c0.127,0.089,0.232,0.137,0.29,0.137c0.058,0,0.1-0.037,0.126-0.116c0.058-0.168,0.09-0.337,0.116-0.611
		c0.11,0.095,0.184,0.143,0.3,0.184c-0.063,0.406-0.126,0.627-0.237,0.774c-0.047,0.063-0.084,0.084-0.189,0.11
		c-0.047,0.011-0.063,0.011-0.068,0.011c-0.1-0.016-0.164-0.021-0.179-0.032c-0.358-0.126-0.737-0.458-1.053-0.916
		c-0.484,0.395-0.917,0.637-1.622,0.906c-0.053-0.111-0.105-0.174-0.237-0.306c0.674-0.195,1.195-0.458,1.69-0.869
		c-0.243-0.432-0.374-0.848-0.464-1.432h-1.448V3.58c-0.005,1.079-0.194,1.763-0.658,2.369c-0.105-0.116-0.179-0.179-0.294-0.252
		c0.453-0.516,0.611-1.063,0.611-2.143c0-0.252-0.011-0.437-0.026-0.605c0.158,0.021,0.29,0.027,0.532,0.027h1.253
		c-0.016-0.153-0.026-0.274-0.032-0.358c-0.005-0.074-0.016-0.153-0.031-0.222h0.4c-0.021,0.116-0.026,0.174-0.026,0.264
		c0,0.079,0.005,0.205,0.016,0.316h1.416c0.231,0,0.369-0.011,0.516-0.032v0.358c-0.164-0.021-0.327-0.032-0.548-0.032h-1.348
		c0.079,0.511,0.189,0.869,0.374,1.216c0.348-0.327,0.563-0.637,0.695-0.974L14.68,3.701z M12.042,1.69
		c0-0.132-0.011-0.253-0.032-0.374h0.379c-0.016,0.121-0.026,0.242-0.026,0.374v0.074h1.211V1.69c0-0.126-0.011-0.242-0.032-0.374
		h0.379c-0.016,0.116-0.026,0.242-0.026,0.374v0.074h0.816c0.269,0,0.442-0.011,0.595-0.032v0.353
		c-0.153-0.021-0.327-0.026-0.595-0.026h-0.816v0.147c0,0.147,0.005,0.237,0.021,0.348h-0.363c0.016-0.111,0.021-0.205,0.021-0.348
		V2.058h-1.211v0.158c0,0.142,0.005,0.237,0.021,0.347h-0.364c0.016-0.105,0.021-0.215,0.021-0.347V2.058h-0.79
		c-0.269,0-0.437,0.005-0.585,0.026V1.732c0.148,0.021,0.321,0.032,0.585,0.032h0.79V1.69z M14.47,2.932
		c-0.153-0.205-0.279-0.332-0.506-0.495l0.221-0.164c0.232,0.168,0.363,0.285,0.526,0.469L14.47,2.932z"/>
	<path d="M18.137,3.027c0-0.137-0.005-0.237-0.016-0.348h0.242c0.49-0.263,0.774-0.474,1.2-0.863h-2.548
		c-0.21,0-0.395,0.011-0.532,0.032V1.468C16.642,1.49,16.8,1.5,17.021,1.5h2.496c0.216,0,0.315-0.005,0.411-0.021l0.216,0.242
		c-0.111,0.095-0.116,0.1-0.189,0.168c-0.595,0.537-0.785,0.674-1.464,1.058v0.427h1.479c0.3,0,0.458-0.011,0.637-0.031v0.389
		c-0.189-0.021-0.353-0.032-0.637-0.032H18.49v1.759c0,0.353-0.126,0.442-0.605,0.442c-0.168,0-0.332-0.011-0.668-0.037
		c-0.021-0.163-0.037-0.231-0.089-0.369c0.321,0.047,0.542,0.069,0.758,0.069c0.206,0,0.253-0.027,0.253-0.153V3.701h-1.569
		c-0.263,0-0.448,0.011-0.648,0.032V3.343c0.195,0.021,0.364,0.031,0.658,0.031h1.559V3.027z"/>
</g>
<g>
	<path d="M0.237,36.729c0.348,0.21,0.553,0.363,0.848,0.642l-0.211,0.284c-0.331-0.331-0.495-0.457-0.847-0.674L0.237,36.729z
		 M1.021,38.367c-0.2,0.688-0.305,0.957-0.663,1.663l-0.3-0.269c0.216-0.216,0.5-0.858,0.7-1.579L1.021,38.367z M0.5,35.455
		c0.326,0.231,0.521,0.4,0.769,0.669l-0.237,0.242c-0.274-0.316-0.447-0.475-0.769-0.685L0.5,35.455z M4.028,36.45
		c0.206,0,0.342-0.005,0.49-0.021c-0.016,0.101-0.021,0.205-0.021,0.396v1.011c0,0.21,0.005,0.311,0.021,0.41
		c-0.142-0.016-0.258-0.021-0.421-0.021H3.517v1.485c0,0.158-0.053,0.263-0.147,0.305c-0.079,0.032-0.158,0.043-0.311,0.043
		c-0.1,0-0.311-0.005-0.437-0.017c-0.011-0.126-0.026-0.199-0.073-0.331c0.215,0.031,0.342,0.042,0.484,0.042
		c0.132,0,0.158-0.021,0.158-0.137v-1.391H2.654c-0.158,0-0.29,0.006-0.448,0.021c0.016-0.1,0.021-0.2,0.021-0.373v-1.027
		c0-0.163-0.005-0.289-0.016-0.416c0.137,0.017,0.294,0.021,0.5,0.021h0.295c0.089-0.189,0.131-0.332,0.173-0.553H1.869v0.595
		c0,1.748-0.173,2.728-0.631,3.517c-0.1-0.115-0.132-0.147-0.285-0.247c0.185-0.284,0.279-0.521,0.379-0.879
		c0.122-0.469,0.2-1.19,0.211-1.917l0.005-0.663c0-0.016,0-0.032,0-0.048c0-0.199-0.01-0.463-0.031-0.684
		c0.142,0.021,0.258,0.025,0.5,0.025h2.19c0.258,0,0.405-0.005,0.558-0.025v0.353c-0.152-0.016-0.353-0.026-0.553-0.026H3.517
		C3.449,36.15,3.412,36.25,3.333,36.45H4.028z M2.69,38.545c-0.158,0.568-0.305,0.879-0.642,1.321
		c-0.089-0.101-0.147-0.147-0.258-0.216c0.189-0.227,0.273-0.348,0.384-0.574c0.105-0.211,0.147-0.348,0.21-0.632L2.69,38.545z
		 M2.538,37.181h1.648v-0.458H2.538V37.181z M2.538,37.945h1.648v-0.489H2.538V37.945z M4.218,38.445
		c0.189,0.542,0.357,0.826,0.668,1.169c-0.116,0.079-0.152,0.11-0.263,0.242c-0.321-0.416-0.49-0.742-0.69-1.301L4.218,38.445z"/>
	<path d="M6.463,35.833c0-0.216-0.01-0.348-0.032-0.458h0.379c-0.016,0.127-0.026,0.279-0.026,0.458v0.031h1.853v-0.031
		c0-0.211-0.01-0.348-0.031-0.458h0.379c-0.021,0.127-0.026,0.273-0.026,0.458v0.031h0.484c0.232,0,0.39-0.01,0.532-0.031v0.343
		C9.807,36.16,9.644,36.15,9.443,36.15H8.959v1.689h0.579c0.216,0,0.39-0.01,0.537-0.031v0.342
		c-0.152-0.021-0.316-0.031-0.526-0.031H8.754c0.363,0.348,0.79,0.558,1.469,0.727c-0.089,0.121-0.126,0.189-0.185,0.321
		c-0.789-0.264-1.232-0.543-1.685-1.048h-1.3c-0.4,0.5-0.858,0.8-1.622,1.068c-0.058-0.152-0.084-0.189-0.184-0.315
		c0.626-0.147,1.122-0.411,1.416-0.753H5.895c-0.216,0-0.379,0.011-0.526,0.031v-0.342c0.142,0.021,0.305,0.031,0.521,0.031h0.574
		V36.15H6.069c-0.2,0-0.369,0.01-0.532,0.026v-0.343c0.137,0.021,0.3,0.031,0.532,0.031h0.395V35.833z M7.522,38.724
		c0-0.195-0.011-0.301-0.027-0.421h0.364c-0.021,0.12-0.027,0.221-0.027,0.421v0.048h0.753c0.221,0,0.321-0.006,0.458-0.021v0.326
		c-0.131-0.016-0.247-0.021-0.458-0.021H7.832v0.585h1.443c0.269,0,0.411-0.006,0.553-0.026v0.348
		c-0.163-0.021-0.337-0.032-0.563-0.032H6.237c-0.232,0-0.411,0.011-0.574,0.032v-0.348c0.121,0.016,0.284,0.026,0.563,0.026h1.295
		v-0.585H6.875c-0.206,0-0.316,0.006-0.458,0.021V38.75c0.126,0.016,0.248,0.021,0.458,0.021h0.647V38.724z M8.638,36.529V36.15
		H6.785v0.379H8.638z M8.638,37.176v-0.374H6.785v0.374H8.638z M8.638,37.839v-0.39H6.785v0.39H8.638z"/>
	<path d="M12.869,37.134c0-0.137-0.006-0.237-0.016-0.348h0.242c0.49-0.264,0.774-0.474,1.2-0.863h-2.548
		c-0.21,0-0.395,0.01-0.532,0.031v-0.379c0.158,0.021,0.316,0.032,0.537,0.032h2.496c0.215,0,0.315-0.006,0.411-0.021l0.216,0.242
		c-0.111,0.095-0.116,0.1-0.189,0.168c-0.595,0.537-0.785,0.674-1.464,1.059v0.426h1.479c0.3,0,0.458-0.01,0.637-0.031v0.39
		c-0.189-0.021-0.353-0.031-0.637-0.031h-1.479v1.758c0,0.354-0.126,0.442-0.605,0.442c-0.168,0-0.332-0.01-0.668-0.037
		c-0.021-0.163-0.037-0.231-0.089-0.368c0.321,0.048,0.542,0.068,0.758,0.068c0.206,0,0.253-0.026,0.253-0.152v-1.711H11.3
		c-0.264,0-0.448,0.01-0.648,0.031v-0.39c0.195,0.021,0.363,0.031,0.658,0.031h1.559V37.134z"/>
</g>
<g>
	<path d="M0.729,18.901c0.005-0.179,0.005-0.3,0.005-0.374c0-0.037,0-0.037,0.005-0.332c-0.158,0.206-0.279,0.332-0.521,0.521
		c-0.063-0.131-0.089-0.179-0.195-0.29c0.369-0.258,0.658-0.547,0.921-0.921c0.158-0.221,0.253-0.384,0.311-0.537l0.3,0.185
		c-0.058,0.074-0.084,0.116-0.153,0.231c-0.068,0.121-0.2,0.3-0.348,0.479v2.174c0,0.273,0.011,0.468,0.026,0.626H0.697
		c0.021-0.147,0.032-0.337,0.032-0.611V18.901z M1.503,16.063c-0.042,0.053-0.042,0.053-0.121,0.158
		c-0.295,0.417-0.637,0.748-1.047,1.032c-0.069-0.121-0.116-0.179-0.211-0.258c0.495-0.3,0.9-0.727,1.084-1.127L1.503,16.063z
		 M3.177,16.053c-0.042,0.058-0.058,0.073-0.131,0.189c-0.169,0.237-0.369,0.484-0.585,0.711c0.216,0.184,0.295,0.258,0.474,0.426
		c0.458-0.49,0.727-0.832,0.842-1.069l0.332,0.195c-0.052,0.058-0.084,0.095-0.21,0.248c-0.347,0.426-0.663,0.758-1.132,1.195
		c0.731-0.042,0.731-0.042,1.405-0.106c-0.131-0.163-0.21-0.247-0.41-0.452l0.247-0.168c0.358,0.379,0.563,0.626,0.911,1.095
		l-0.274,0.189c-0.142-0.21-0.184-0.273-0.29-0.421c-0.9,0.1-0.9,0.1-1.479,0.137c-0.1,0.189-0.131,0.237-0.253,0.411h1
		c0.189,0,0.347-0.01,0.432-0.026l0.215,0.2c-0.047,0.053-0.047,0.053-0.121,0.158c-0.179,0.258-0.474,0.558-0.763,0.785
		c0.453,0.274,0.99,0.468,1.548,0.563c-0.084,0.132-0.084,0.137-0.174,0.332c-0.495-0.121-0.742-0.211-1.185-0.432
		c-0.216-0.105-0.326-0.174-0.463-0.269c-0.559,0.368-0.99,0.553-1.675,0.716c-0.058-0.131-0.084-0.168-0.2-0.306
		c0.621-0.11,1.105-0.294,1.616-0.605c-0.279-0.248-0.432-0.406-0.605-0.658c-0.206,0.216-0.421,0.39-0.721,0.579
		c-0.063-0.089-0.137-0.168-0.237-0.252c0.584-0.316,0.99-0.695,1.238-1.169c-0.037,0-0.311,0.016-0.827,0.042
		C1.55,18.301,1.54,18.301,1.45,18.317l-0.058-0.353c0.095,0.016,0.216,0.021,0.379,0.021c0.095,0,0.095,0,0.563-0.016
		c0.285-0.269,0.285-0.269,0.379-0.363c-0.363-0.347-0.563-0.511-1.053-0.863L1.887,16.5c0.2,0.153,0.263,0.206,0.347,0.269
		c0.295-0.316,0.558-0.685,0.627-0.879L3.177,16.053z M2.466,18.901c0.205,0.279,0.384,0.463,0.653,0.668
		c0.295-0.216,0.49-0.411,0.669-0.668H2.466z"/>
	<path d="M10.056,20.307c-0.168-0.026-0.321-0.037-0.61-0.037H6.161c-0.279,0-0.458,0.011-0.643,0.037v-0.421
		c0.179,0.021,0.353,0.032,0.637,0.032H9.44c0.274,0,0.437-0.011,0.616-0.032V20.307z M5.913,16.28
		c0.158,0.026,0.316,0.037,0.605,0.037h2.522c0.294,0,0.463-0.011,0.631-0.037v0.416c-0.179-0.021-0.348-0.032-0.631-0.032H6.519
		c-0.279,0-0.437,0.011-0.605,0.032V16.28z M6.234,17.996c0.137,0.021,0.295,0.032,0.548,0.032h2.011c0.252,0,0.4-0.01,0.547-0.032
		v0.406c-0.163-0.021-0.3-0.026-0.547-0.026H6.787c-0.258,0-0.406,0.005-0.553,0.026V17.996z"/>
	<path d="M14.43,16.479c-0.027,0.026-0.037,0.032-0.068,0.074c-0.379,0.4-0.643,0.626-0.99,0.858c0.632,0.321,1.227,0.5,2.09,0.631
		c-0.084,0.121-0.121,0.179-0.168,0.316c-0.669-0.126-1.09-0.242-1.601-0.453c-0.205-0.084-0.379-0.174-0.611-0.316
		c-0.231,0.132-0.384,0.21-0.658,0.327c-0.521,0.226-0.843,0.326-1.532,0.479c-0.037-0.126-0.068-0.185-0.153-0.3
		c0.822-0.131,1.448-0.337,2.069-0.684c-0.263-0.189-0.437-0.343-0.701-0.622c-0.337,0.305-0.6,0.479-1.021,0.679
		c-0.052-0.095-0.1-0.153-0.21-0.247c0.405-0.185,0.705-0.369,0.984-0.611c0.284-0.247,0.495-0.5,0.663-0.79l0.358,0.105
		C12.813,16,12.74,16.09,12.571,16.295h1.168c0.232,0,0.353-0.005,0.49-0.026L14.43,16.479z M14.735,18.654
		c0.29,0,0.432-0.005,0.584-0.031v0.353c-0.168-0.021-0.353-0.032-0.595-0.032h-1.327c0.2,0.221,0.337,0.342,0.558,0.505
		c0.484,0.342,0.884,0.547,1.49,0.753c-0.089,0.116-0.137,0.189-0.205,0.332c-0.569-0.237-0.953-0.458-1.369-0.779
		c-0.29-0.221-0.432-0.364-0.701-0.669c0.011,0.2,0.016,0.342,0.016,0.463v0.643c0,0.279,0.005,0.363,0.032,0.5h-0.379
		c0.026-0.158,0.032-0.252,0.032-0.5v-0.643c0-0.126,0.005-0.274,0.016-0.453c-0.305,0.342-0.495,0.526-0.763,0.727
		c-0.316,0.242-0.711,0.469-1.179,0.684c-0.053-0.131-0.111-0.221-0.2-0.315c0.795-0.29,1.432-0.706,1.911-1.248h-1.243
		c-0.231,0-0.426,0.01-0.589,0.032v-0.353c0.142,0.026,0.273,0.031,0.553,0.031h1.495v-0.258c0-0.179-0.005-0.232-0.021-0.358h0.358
		c-0.016,0.105-0.021,0.2-0.021,0.358v0.258H14.735z M12.308,16.601c0.285,0.305,0.463,0.453,0.774,0.647
		c0.321-0.21,0.532-0.379,0.832-0.685h-1.569L12.308,16.601z"/>
</g>
<g>
	<path d="M25.756,8.901c0.158-0.279,0.263-0.537,0.321-0.785l0.39,0.079c-0.016,0.026-0.016,0.026-0.042,0.095
		c-0.084,0.21-0.195,0.432-0.295,0.611h1.379c0.274,0,0.426-0.005,0.616-0.026c-0.021,0.184-0.026,0.342-0.026,0.653v2.69
		c0,0.321,0.005,0.474,0.032,0.626h-0.385v-0.306h-2.858v0.306h-0.384c0.021-0.158,0.032-0.321,0.032-0.637v-2.68
		c0-0.295-0.006-0.484-0.027-0.653c0.179,0.021,0.337,0.026,0.605,0.026H25.756z M24.888,10.491h2.858V9.222h-2.858V10.491z
		 M24.888,12.213h2.858v-1.401h-2.858V12.213z"/>
	<path d="M29.36,9.454c0.363,0.221,0.585,0.39,0.938,0.711l-0.216,0.29c-0.353-0.358-0.559-0.527-0.932-0.748L29.36,9.454z
		 M30.309,11.17c-0.253,0.647-0.405,0.963-0.695,1.448c-0.031,0.053-0.068,0.116-0.121,0.21l-0.311-0.279
		c0.269-0.279,0.584-0.874,0.848-1.585L30.309,11.17z M29.613,8.207c0.374,0.247,0.605,0.432,0.88,0.71l-0.211,0.274
		c-0.3-0.321-0.489-0.484-0.885-0.753L29.613,8.207z M31.077,8.733c-0.222,0-0.416,0.011-0.553,0.032V8.385
		c0.132,0.021,0.321,0.032,0.558,0.032h2.28c0.242,0,0.426-0.01,0.579-0.032v0.369c-0.127-0.016-0.211-0.021-0.427-0.021v3.669
		c0,0.321-0.132,0.411-0.59,0.411c-0.147,0-0.342-0.01-0.61-0.032c-0.016-0.147-0.031-0.205-0.084-0.353
		c0.32,0.047,0.5,0.063,0.699,0.063c0.2,0,0.243-0.026,0.243-0.142V8.733H31.077z M30.84,11.892
		c0.016-0.116,0.026-0.279,0.026-0.438V9.88c0-0.189-0.005-0.316-0.021-0.442c0.131,0.016,0.242,0.021,0.442,0.021h0.758
		c0.2,0,0.311-0.005,0.442-0.021c-0.016,0.126-0.021,0.237-0.021,0.437v1.158c0,0.179,0.006,0.284,0.021,0.395
		c-0.116-0.011-0.232-0.016-0.4-0.016h-0.89v0.479H30.84z M31.198,11.112h0.937V9.754h-0.937V11.112z"/>
</g>
<g>
	<path d="M43.598,8.77c0-0.237-0.011-0.416-0.031-0.579h0.384c-0.021,0.168-0.031,0.332-0.031,0.579v0.785h0.126
		c0.205,0,0.306-0.005,0.432-0.021V9.87c-0.115-0.016-0.236-0.021-0.437-0.021h-0.121v1.532c0.194-0.094,0.258-0.121,0.458-0.226
		l0.026,0.311c-0.453,0.237-0.61,0.311-1.147,0.542c-0.096,0.042-0.143,0.063-0.211,0.1l-0.095-0.363
		c0.137-0.021,0.306-0.084,0.647-0.227V9.849h-0.174c-0.179,0-0.306,0.005-0.453,0.026V9.528c0.143,0.021,0.274,0.026,0.458,0.026
		h0.169V8.77z M44.977,9.56c-0.026,1.79-0.184,2.469-0.747,3.28c-0.1-0.105-0.152-0.142-0.306-0.205
		c0.279-0.363,0.432-0.637,0.526-0.974c0.147-0.505,0.222-1.395,0.222-2.632c0-0.358-0.006-0.548-0.021-0.711
		c0.163,0.016,0.326,0.026,0.548,0.026h1.874c0.2,0,0.343-0.005,0.495-0.021c-0.011,0.116-0.016,0.221-0.016,0.374v0.5
		c0,0.153,0.005,0.274,0.016,0.379c-0.143-0.011-0.279-0.016-0.442-0.016H44.977z M47.246,9.275V8.638h-2.259v0.29
		c0,0.179,0,0.258-0.005,0.347H47.246z M45.604,11.076c-0.132,0-0.227,0.005-0.326,0.016c0.01-0.095,0.016-0.184,0.016-0.316v-0.558
		c0-0.147-0.006-0.231-0.021-0.332h0.338c-0.017,0.09-0.021,0.174-0.021,0.327v0.579h0.621v-0.664c0-0.189-0.005-0.3-0.026-0.421
		h0.353c-0.021,0.11-0.026,0.221-0.026,0.416v0.669h0.658v-0.579c0-0.143-0.005-0.237-0.021-0.332h0.342
		c-0.021,0.111-0.026,0.211-0.026,0.337v0.542c0,0.137,0.005,0.237,0.016,0.332c-0.11-0.011-0.194-0.016-0.331-0.016h-0.638v1.232
		h0.785v-0.595c0-0.179-0.006-0.285-0.021-0.39h0.358c-0.021,0.11-0.026,0.231-0.026,0.4v0.685c0,0.189,0.011,0.332,0.031,0.469
		h-0.342v-0.279H45.43v0.29h-0.337c0.021-0.126,0.026-0.258,0.026-0.442v-0.721c0-0.184-0.006-0.29-0.021-0.4h0.354
		c-0.017,0.105-0.021,0.205-0.021,0.39v0.595h0.779v-1.232H45.604z"/>
	<path d="M48.397,9.454c0.363,0.221,0.584,0.39,0.937,0.711l-0.216,0.29c-0.353-0.358-0.558-0.527-0.932-0.748L48.397,9.454z
		 M49.345,11.17c-0.253,0.647-0.405,0.963-0.695,1.448c-0.031,0.053-0.068,0.116-0.121,0.21l-0.31-0.279
		c0.268-0.279,0.584-0.874,0.847-1.585L49.345,11.17z M48.649,8.207c0.374,0.247,0.605,0.432,0.88,0.71l-0.211,0.274
		c-0.3-0.321-0.489-0.484-0.884-0.753L48.649,8.207z M50.113,8.733c-0.221,0-0.416,0.011-0.553,0.032V8.385
		c0.132,0.021,0.321,0.032,0.559,0.032h2.279c0.242,0,0.427-0.01,0.579-0.032v0.369c-0.126-0.016-0.211-0.021-0.427-0.021v3.669
		c0,0.321-0.131,0.411-0.589,0.411c-0.147,0-0.343-0.01-0.611-0.032c-0.016-0.147-0.031-0.205-0.084-0.353
		c0.321,0.047,0.5,0.063,0.7,0.063s0.242-0.026,0.242-0.142V8.733H50.113z M49.877,11.892c0.016-0.116,0.026-0.279,0.026-0.438V9.88
		c0-0.189-0.006-0.316-0.021-0.442c0.132,0.016,0.242,0.021,0.442,0.021h0.758c0.2,0,0.311-0.005,0.442-0.021
		c-0.016,0.126-0.021,0.237-0.021,0.437v1.158c0,0.179,0.005,0.284,0.021,0.395c-0.116-0.011-0.231-0.016-0.4-0.016h-0.89v0.479
		H49.877z M50.234,11.112h0.938V9.754h-0.938V11.112z"/>
</g>
<g>
	<path d="M63.315,11.744c-0.143,0.511-0.264,0.769-0.526,1.127l-0.285-0.19c0.279-0.353,0.385-0.563,0.521-1.058L63.315,11.744z
		 M64.289,8.622c0.105-0.168,0.189-0.347,0.247-0.526l0.354,0.068c-0.063,0.121-0.19,0.353-0.259,0.458h1.312
		c0.205,0,0.311-0.005,0.432-0.021c-0.011,0.095-0.017,0.164-0.017,0.337v0.911c0,0.137,0.006,0.247,0.017,0.363
		c-0.137-0.011-0.264-0.016-0.41-0.016H63.61v0.337h3.021c0.221,0,0.363-0.01,0.511-0.031v0.342
		c-0.142-0.021-0.311-0.032-0.517-0.032H63.61v0.4h3.059c0.205,0,0.306-0.005,0.4-0.021c-0.017,0.068-0.032,0.168-0.043,0.258
		c-0.152,1.227-0.252,1.396-0.842,1.396c-0.143,0-0.331-0.011-0.479-0.021c-0.01-0.126-0.026-0.2-0.073-0.332
		c0.269,0.037,0.389,0.047,0.542,0.047c0.264,0,0.337-0.058,0.4-0.31c0.052-0.2,0.1-0.511,0.12-0.743h-2.995
		c-0.205,0-0.315,0.005-0.437,0.01c0.016-0.137,0.021-0.273,0.021-0.479V9.012c0-0.147-0.005-0.285-0.021-0.411
		c0.132,0.016,0.231,0.021,0.421,0.021H64.289z M66.032,9.275V8.896H63.61v0.379H66.032z M63.61,9.928h2.422V9.539H63.61V9.928z
		 M64.052,11.676c0.096,0.347,0.143,0.558,0.206,1.005l-0.337,0.058c-0.032-0.358-0.084-0.695-0.169-1.021L64.052,11.676z
		 M64.899,11.644c0.137,0.258,0.217,0.458,0.337,0.843l-0.295,0.089c-0.1-0.384-0.168-0.563-0.311-0.863L64.899,11.644z
		 M65.758,11.57c0.152,0.211,0.237,0.353,0.358,0.611l-0.269,0.126c-0.084-0.221-0.158-0.369-0.332-0.632L65.758,11.57z"/>
	<path d="M69.499,10.828c-0.521,0.416-0.722,0.558-1.237,0.879c-0.121,0.079-0.152,0.1-0.258,0.163l-0.205-0.342
		c0.205-0.074,0.342-0.137,0.595-0.295c0.379-0.231,0.6-0.395,0.947-0.689L69.499,10.828z M68.394,8.749
		c-0.248,0-0.405,0.011-0.543,0.032V8.401c0.143,0.026,0.316,0.037,0.548,0.037h1.037c0.274,0,0.406-0.005,0.517-0.021
		c-0.017,0.142-0.021,0.295-0.021,0.505v3.49c0,0.3-0.127,0.39-0.542,0.39c-0.195,0-0.442-0.011-0.647-0.026
		c-0.017-0.132-0.042-0.232-0.101-0.379c0.269,0.047,0.532,0.073,0.758,0.073c0.148,0,0.2-0.037,0.2-0.137V8.749H68.394z
		 M68.341,9.154c0.353,0.427,0.521,0.669,0.747,1.074l-0.295,0.2c-0.215-0.442-0.384-0.695-0.731-1.101L68.341,9.154z
		 M71.778,10.786c-0.463,0.369-0.778,0.59-1.216,0.858c-0.137,0.084-0.179,0.111-0.269,0.174l-0.2-0.342
		c0.427-0.158,0.984-0.511,1.532-0.974L71.778,10.786z M70.678,8.749c-0.247,0-0.405,0.011-0.542,0.032V8.401
		c0.143,0.026,0.316,0.037,0.548,0.037h1.026c0.279,0,0.405-0.005,0.516-0.021c-0.015,0.147-0.021,0.29-0.021,0.505v3.49
		c0,0.3-0.132,0.39-0.553,0.39c-0.179,0-0.4-0.011-0.579-0.026c-0.016-0.148-0.042-0.237-0.095-0.374
		c0.284,0.047,0.511,0.068,0.7,0.068c0.142,0,0.189-0.037,0.189-0.137V8.749H70.678z M70.615,9.154
		c0.348,0.416,0.516,0.653,0.748,1.074l-0.29,0.2c-0.227-0.453-0.4-0.711-0.732-1.101L70.615,9.154z"/>
</g>
<g>
	<path d="M87.661,11.128c0.006-0.179,0.006-0.3,0.006-0.374c0-0.037,0-0.037,0.005-0.332c-0.157,0.205-0.279,0.332-0.521,0.521
		c-0.063-0.132-0.09-0.179-0.195-0.29c0.368-0.258,0.658-0.547,0.921-0.921c0.158-0.221,0.253-0.384,0.312-0.537l0.3,0.184
		c-0.058,0.074-0.084,0.116-0.153,0.231c-0.068,0.121-0.199,0.3-0.347,0.479v2.174c0,0.273,0.01,0.469,0.025,0.626H87.63
		c0.021-0.147,0.031-0.337,0.031-0.611V11.128z M88.436,8.291c-0.042,0.053-0.042,0.053-0.121,0.158
		c-0.295,0.416-0.638,0.748-1.048,1.032c-0.068-0.121-0.115-0.179-0.211-0.258c0.495-0.3,0.9-0.726,1.085-1.126L88.436,8.291z
		 M90.109,8.28c-0.042,0.059-0.058,0.074-0.131,0.189c-0.169,0.237-0.369,0.485-0.585,0.711c0.216,0.184,0.295,0.258,0.474,0.426
		c0.458-0.49,0.727-0.832,0.843-1.069l0.331,0.195c-0.052,0.058-0.084,0.095-0.21,0.248c-0.348,0.426-0.664,0.758-1.133,1.195
		c0.732-0.042,0.732-0.042,1.406-0.105c-0.132-0.163-0.21-0.247-0.41-0.453l0.247-0.168c0.358,0.379,0.563,0.627,0.91,1.095
		l-0.273,0.189c-0.142-0.21-0.184-0.274-0.289-0.421c-0.9,0.1-0.9,0.1-1.479,0.137c-0.1,0.189-0.132,0.237-0.253,0.411h1.001
		c0.189,0,0.347-0.011,0.432-0.026l0.216,0.2c-0.048,0.053-0.048,0.053-0.121,0.158c-0.18,0.258-0.474,0.558-0.764,0.784
		c0.452,0.274,0.989,0.469,1.548,0.563c-0.085,0.132-0.085,0.137-0.174,0.332c-0.495-0.122-0.742-0.211-1.185-0.432
		c-0.216-0.105-0.326-0.173-0.463-0.268c-0.559,0.368-0.99,0.553-1.675,0.716c-0.058-0.131-0.084-0.168-0.2-0.306
		c0.622-0.11,1.105-0.294,1.616-0.605c-0.278-0.247-0.432-0.405-0.605-0.658c-0.205,0.216-0.421,0.39-0.721,0.579
		c-0.063-0.09-0.137-0.168-0.237-0.253c0.585-0.316,0.99-0.695,1.237-1.169c-0.037,0-0.311,0.016-0.826,0.042
		c-0.153,0.011-0.163,0.011-0.253,0.026l-0.058-0.353c0.094,0.016,0.216,0.021,0.379,0.021c0.095,0,0.095,0,0.563-0.016
		c0.284-0.269,0.284-0.269,0.379-0.363c-0.363-0.347-0.563-0.511-1.053-0.863l0.226-0.242c0.2,0.153,0.264,0.206,0.348,0.269
		c0.295-0.316,0.559-0.685,0.627-0.879L90.109,8.28z M89.399,11.128c0.205,0.279,0.384,0.463,0.652,0.668
		c0.295-0.216,0.489-0.411,0.669-0.668H89.399z"/>
	<path d="M94.162,8.901c0.157-0.279,0.262-0.537,0.32-0.785l0.39,0.079c-0.016,0.026-0.016,0.026-0.042,0.095
		c-0.084,0.21-0.194,0.432-0.295,0.611h1.38c0.273,0,0.426-0.005,0.615-0.026c-0.021,0.184-0.026,0.342-0.026,0.653v2.69
		c0,0.321,0.005,0.474,0.032,0.626h-0.385v-0.306h-2.858v0.306h-0.385c0.021-0.158,0.031-0.321,0.031-0.637v-2.68
		c0-0.295-0.005-0.484-0.025-0.653c0.179,0.021,0.337,0.026,0.604,0.026H94.162z M93.293,10.491h2.858V9.222h-2.858V10.491z
		 M93.293,12.213h2.858v-1.401h-2.858V12.213z"/>
	<path d="M97.766,9.454c0.363,0.221,0.585,0.39,0.938,0.711l-0.216,0.29c-0.354-0.358-0.559-0.527-0.933-0.748L97.766,9.454z
		 M98.713,11.17c-0.252,0.647-0.405,0.963-0.694,1.448c-0.032,0.053-0.068,0.116-0.121,0.21l-0.311-0.279
		c0.269-0.279,0.584-0.874,0.847-1.585L98.713,11.17z M98.019,8.207c0.374,0.247,0.605,0.432,0.879,0.71l-0.21,0.274
		c-0.301-0.321-0.49-0.484-0.886-0.753L98.019,8.207z M99.481,8.733c-0.221,0-0.415,0.011-0.552,0.032V8.385
		c0.131,0.021,0.32,0.032,0.558,0.032h2.279c0.242,0,0.427-0.01,0.579-0.032v0.369c-0.127-0.016-0.21-0.021-0.427-0.021v3.669
		c0,0.321-0.131,0.411-0.589,0.411c-0.147,0-0.343-0.01-0.611-0.032c-0.016-0.147-0.031-0.205-0.084-0.353
		c0.321,0.047,0.5,0.063,0.7,0.063s0.242-0.026,0.242-0.142V8.733H99.481z M99.245,11.892c0.016-0.116,0.026-0.279,0.026-0.438V9.88
		c0-0.189-0.006-0.316-0.021-0.442c0.132,0.016,0.242,0.021,0.442,0.021h0.758c0.2,0,0.311-0.005,0.442-0.021
		c-0.016,0.126-0.021,0.237-0.021,0.437v1.158c0,0.179,0.006,0.284,0.021,0.395c-0.115-0.011-0.231-0.016-0.4-0.016h-0.889v0.479
		H99.245z M99.604,11.112h0.937V9.754h-0.937V11.112z"/>
</g>
<g>
	<path d="M88.898,26.218c-0.021,0.063-0.021,0.089-0.063,0.342c-0.116,0.711-0.369,1.443-0.685,2.006
		c-0.237,0.416-0.505,0.758-0.874,1.111c-0.105-0.126-0.189-0.2-0.326-0.274c0.573-0.484,0.984-1.084,1.253-1.842
		c0.158-0.448,0.269-0.98,0.269-1.291c0-0.021,0-0.052-0.006-0.11L88.898,26.218z M89.693,25.513c0.273,0,0.442-0.005,0.574-0.021
		c-0.006,0.042-0.006,0.068-0.006,0.084c0,0.252,0.059,0.643,0.158,1.074c0.259,1.127,0.801,2.096,1.527,2.738
		c-0.164,0.121-0.164,0.121-0.311,0.279c-0.442-0.432-0.806-0.953-1.09-1.553c-0.332-0.71-0.517-1.374-0.632-2.275h-0.764
		c-0.237,0-0.4,0.011-0.532,0.032v-0.389c0.127,0.021,0.285,0.032,0.537,0.032H89.693z"/>
	<path d="M96.094,25.681c-0.026,0.026-0.037,0.032-0.068,0.074c-0.379,0.4-0.643,0.626-0.99,0.858
		c0.632,0.321,1.227,0.5,2.091,0.632c-0.085,0.121-0.122,0.179-0.169,0.316c-0.669-0.127-1.09-0.243-1.601-0.453
		c-0.205-0.084-0.379-0.174-0.61-0.316c-0.232,0.132-0.385,0.21-0.659,0.326c-0.521,0.227-0.842,0.327-1.531,0.479
		c-0.037-0.126-0.068-0.185-0.153-0.3c0.822-0.132,1.448-0.337,2.069-0.685c-0.263-0.189-0.437-0.342-0.7-0.621
		c-0.337,0.305-0.6,0.479-1.021,0.679c-0.054-0.095-0.101-0.152-0.212-0.247c0.406-0.185,0.706-0.369,0.985-0.61
		c0.284-0.248,0.494-0.5,0.663-0.79l0.358,0.105c-0.068,0.074-0.143,0.164-0.311,0.369h1.168c0.231,0,0.354-0.005,0.49-0.026
		L96.094,25.681z M96.398,27.855c0.29,0,0.433-0.005,0.585-0.031v0.353c-0.169-0.021-0.353-0.032-0.595-0.032h-1.327
		c0.2,0.221,0.337,0.342,0.559,0.505c0.483,0.342,0.884,0.547,1.489,0.752c-0.09,0.116-0.137,0.19-0.205,0.332
		c-0.568-0.237-0.953-0.458-1.369-0.779c-0.289-0.221-0.432-0.363-0.699-0.668c0.01,0.2,0.015,0.342,0.015,0.463v0.642
		c0,0.279,0.006,0.364,0.032,0.5h-0.379c0.025-0.158,0.031-0.253,0.031-0.5V28.75c0-0.126,0.006-0.274,0.016-0.453
		c-0.306,0.343-0.495,0.526-0.764,0.727c-0.315,0.242-0.711,0.469-1.18,0.685c-0.052-0.132-0.11-0.221-0.199-0.316
		c0.795-0.29,1.432-0.706,1.911-1.248h-1.243c-0.231,0-0.426,0.01-0.589,0.032v-0.353c0.142,0.026,0.273,0.031,0.553,0.031h1.495
		v-0.257c0-0.18-0.006-0.232-0.021-0.358h0.358c-0.016,0.105-0.021,0.2-0.021,0.358v0.257H96.398z M93.972,25.802
		c0.284,0.305,0.464,0.453,0.774,0.648c0.32-0.211,0.531-0.379,0.832-0.685h-1.569L93.972,25.802z"/>
	<path d="M97.813,25.686c0-0.142-0.006-0.269-0.017-0.4c0.079,0.01,0.195,0.016,0.354,0.016h0.721c0.168,0,0.242-0.005,0.321-0.021
		l0.163,0.189c-0.016,0.031-0.047,0.095-0.079,0.168c-0.194,0.495-0.342,0.816-0.547,1.211c0.252,0.305,0.353,0.458,0.437,0.68
		c0.073,0.194,0.115,0.416,0.115,0.631c0,0.3-0.089,0.458-0.278,0.51c-0.101,0.027-0.247,0.042-0.411,0.042
		c-0.047,0-0.089,0-0.185-0.005c-0.015-0.148-0.036-0.227-0.078-0.337c0.132,0.026,0.231,0.037,0.342,0.037
		c0.242,0,0.29-0.048,0.29-0.279c0-0.242-0.063-0.489-0.189-0.716c-0.079-0.147-0.19-0.29-0.4-0.521
		c0.258-0.474,0.41-0.816,0.579-1.295h-0.816v3.796c0,0.21,0.005,0.337,0.026,0.489h-0.379c0.021-0.142,0.032-0.294,0.032-0.489
		V25.686z M99.851,27.703c-0.206,0-0.332,0.005-0.479,0.032v-0.348c0.137,0.021,0.289,0.032,0.484,0.032h1.979
		c0.216,0,0.363-0.01,0.501-0.032v0.348c-0.148-0.021-0.296-0.032-0.501-0.032h-0.526v1.653c0,0.11,0.063,0.132,0.385,0.132
		c0.368,0,0.368,0,0.416-0.827c0.126,0.079,0.179,0.1,0.315,0.132c-0.079,0.927-0.137,1.005-0.737,1.005
		c-0.242,0-0.39-0.01-0.489-0.037c-0.163-0.042-0.216-0.11-0.216-0.29v-1.769h-0.553c-0.042,0.742-0.137,1.08-0.385,1.427
		c-0.231,0.311-0.547,0.526-1.121,0.752c-0.079-0.115-0.152-0.205-0.236-0.279c0.668-0.227,0.947-0.411,1.163-0.769
		c0.168-0.274,0.227-0.537,0.253-1.132H99.851z M100.566,25.507c0-0.153-0.011-0.285-0.032-0.395h0.4
		c-0.021,0.095-0.031,0.21-0.031,0.4v0.205h0.89c0.189,0,0.363-0.011,0.506-0.026c-0.011,0.11-0.017,0.164-0.017,0.337v0.347
		c0,0.153,0.006,0.237,0.021,0.358h-0.342v-0.721H99.64v0.711h-0.326c0.016-0.137,0.016-0.19,0.016-0.358v-0.342
		c0-0.158,0-0.189-0.016-0.332c0.185,0.021,0.342,0.026,0.558,0.026h0.695V25.507z M99.803,26.55c0.126,0.016,0.211,0.021,0.4,0.021
		h1.217c0.184,0,0.263-0.005,0.389-0.021v0.326c-0.137-0.016-0.242-0.021-0.389-0.021h-1.223c-0.146,0-0.273,0.005-0.395,0.021
		V26.55z"/>
	<path d="M104.013,30.335c-0.306-0.468-0.433-0.722-0.558-1.101c-0.143-0.426-0.217-0.879-0.217-1.368
		c0-0.49,0.074-0.942,0.217-1.369c0.125-0.374,0.252-0.627,0.558-1.095l0.331,0.211c-0.295,0.452-0.41,0.689-0.526,1.063
		c-0.12,0.379-0.179,0.774-0.179,1.19c0,0.416,0.059,0.816,0.179,1.195c0.116,0.374,0.231,0.61,0.526,1.063L104.013,30.335z"/>
	<path d="M109.031,29.861c-0.622-0.463-1.017-0.716-1.659-1.059c-0.289,0.258-0.605,0.458-0.989,0.632
		c-0.354,0.158-0.748,0.274-1.39,0.405c-0.068-0.173-0.09-0.21-0.19-0.337c1.059-0.163,1.68-0.405,2.243-0.869
		c-0.447-0.221-0.489-0.237-1.259-0.537c-0.084,0.121-0.104,0.153-0.205,0.279c-0.132-0.073-0.194-0.105-0.342-0.168
		c0.379-0.442,0.716-0.974,0.984-1.542h-0.879c-0.232,0-0.39,0.01-0.548,0.032v-0.395c0.152,0.026,0.337,0.037,0.548,0.037h1.021
		c0.217-0.521,0.321-0.853,0.38-1.195l0.416,0.079c-0.09,0.232-0.137,0.358-0.143,0.374c-0.147,0.426-0.189,0.532-0.273,0.742h2.19
		c0.215,0,0.389-0.01,0.547-0.037v0.395c-0.152-0.021-0.321-0.032-0.542-0.032h-0.427c-0.126,0.537-0.2,0.764-0.342,1.058
		c-0.137,0.295-0.327,0.574-0.553,0.832c0.637,0.332,1.006,0.552,1.658,1.005L109.031,29.861z M106.604,26.666
		c-0.195,0.432-0.396,0.79-0.638,1.163c0.643,0.248,0.911,0.358,1.337,0.569c0.189-0.206,0.4-0.505,0.537-0.785
		c0.132-0.273,0.2-0.479,0.311-0.947H106.604z"/>
	<path d="M110.244,25.402c0.306,0.468,0.433,0.722,0.559,1.095c0.147,0.427,0.216,0.879,0.216,1.369
		c0,0.494-0.068,0.942-0.216,1.368c-0.126,0.379-0.253,0.632-0.559,1.101l-0.331-0.21c0.295-0.453,0.411-0.69,0.526-1.063
		c0.121-0.379,0.179-0.774,0.179-1.195c0-0.421-0.058-0.812-0.179-1.19c-0.115-0.374-0.231-0.611-0.526-1.063L110.244,25.402z"/>
</g>
<g>
	<path d="M87.119,19.138c0.132,0.021,0.211,0.026,0.411,0.026h0.373c0.158,0,0.269-0.005,0.4-0.026
		c-0.021,0.164-0.026,0.305-0.026,0.558v0.979c0.079,0.179,0.18,0.295,0.374,0.426c0.242,0.164,0.585,0.221,1.343,0.221
		c0.9,0,1.537-0.032,1.979-0.1c-0.074,0.174-0.095,0.226-0.122,0.384c-0.558,0.021-1.241,0.037-1.837,0.037
		c-0.815,0-1.163-0.063-1.511-0.279c-0.147-0.095-0.269-0.216-0.4-0.406c-0.236,0.237-0.416,0.395-0.684,0.595
		c-0.096,0.073-0.111,0.084-0.19,0.152l-0.174-0.358c0.11-0.042,0.127-0.053,0.206-0.1c0.205-0.131,0.468-0.337,0.694-0.563V19.47
		h-0.447c-0.174,0-0.258,0.005-0.39,0.026V19.138z M87.535,17.19c0.358,0.332,0.547,0.542,0.854,0.953l-0.264,0.237
		c-0.321-0.453-0.49-0.647-0.843-0.968L87.535,17.19z M89.43,18.875c-0.036,1.043-0.179,1.595-0.547,2.085
		c-0.11-0.131-0.142-0.158-0.273-0.247c0.385-0.474,0.495-1.006,0.495-2.427c0-0.363-0.006-0.537-0.021-0.69
		c0.026,0,0.053,0,0.068,0c0.326,0,0.995-0.121,1.511-0.273c0.348-0.1,0.506-0.168,0.647-0.269l0.29,0.3
		c-0.042,0.016-0.042,0.016-0.195,0.074c-0.531,0.21-1.169,0.358-1.969,0.458v0.526c0,0.042,0,0.053,0,0.153h1.88
		c0.221,0,0.343-0.005,0.474-0.026v0.363c-0.143-0.021-0.269-0.026-0.469-0.026h-0.426v1.664c0,0.237,0.01,0.4,0.036,0.527h-0.4
		c0.021-0.122,0.032-0.269,0.032-0.527v-1.664H89.43z"/>
	<path d="M92.834,19.964c0-0.21,0.006-0.369,0.017-0.59c-0.147,0.19-0.248,0.295-0.432,0.453c-0.048-0.116-0.095-0.195-0.185-0.285
		c0.321-0.231,0.559-0.489,0.811-0.879c0.095-0.153,0.174-0.311,0.216-0.442l0.306,0.174c-0.048,0.068-0.058,0.09-0.185,0.311
		c-0.058,0.105-0.137,0.226-0.231,0.347v2.069c0,0.306,0.006,0.458,0.031,0.616h-0.379c0.026-0.179,0.031-0.327,0.031-0.621V19.964z
		 M93.557,17.206c-0.038,0.047-0.054,0.069-0.106,0.137c-0.326,0.437-0.579,0.706-0.947,0.995c-0.053-0.105-0.105-0.174-0.2-0.264
		c0.448-0.316,0.811-0.721,0.948-1.053L93.557,17.206z M94.203,19.733c-0.205,0-0.342,0.005-0.474,0.016
		c0.011-0.095,0.016-0.195,0.016-0.348v-0.289c0-0.143-0.005-0.227-0.016-0.321c0.11,0.01,0.237,0.016,0.427,0.016h0.995
		c0.21,0,0.353-0.005,0.458-0.016c-0.011,0.1-0.016,0.194-0.016,0.347v0.263c0,0.153,0.005,0.264,0.016,0.348
		c-0.116-0.01-0.264-0.016-0.463-0.016h-0.085v0.353h0.227c0.184,0,0.306-0.005,0.469-0.026v0.306
		c-0.163-0.016-0.274-0.021-0.469-0.021h-0.227v0.453h0.326c0.19,0,0.337-0.005,0.495-0.026v0.321
		c-0.147-0.016-0.305-0.026-0.458-0.026h-0.363v0.231c0,0.184,0.011,0.316,0.031,0.463h-0.363c0.021-0.153,0.032-0.284,0.032-0.463
		v-0.231h-0.874c-0.189,0-0.343,0.01-0.489,0.026v-0.316c0.073,0.011,0.231,0.021,0.405,0.021h0.031v-0.453
		c-0.11,0.005-0.174,0.01-0.311,0.021v-0.306c0.163,0.021,0.294,0.026,0.469,0.026h0.769v-0.353H94.203z M94.119,18.211
		c0.079-0.211,0.09-0.248,0.152-0.469h-0.104c-0.153,0-0.29,0.005-0.438,0.026v-0.311c0.137,0.021,0.274,0.026,0.447,0.026h0.164
		c0.058-0.242,0.073-0.321,0.095-0.469l0.315,0.053c-0.011,0.047-0.011,0.047-0.037,0.158c-0.01,0.037-0.031,0.121-0.068,0.258
		h0.396c0.21,0,0.347-0.005,0.457-0.016c-0.01,0.126-0.016,0.232-0.016,0.379v0.363c0.158,0,0.232-0.005,0.332-0.026v0.263
		c0.095,0.016,0.174,0.021,0.331,0.021h0.611c0.179,0,0.274-0.005,0.369-0.026v0.342c-0.111-0.021-0.2-0.026-0.369-0.026h-0.095
		v2.527c0,0.353-0.084,0.416-0.563,0.416c-0.09,0-0.237-0.005-0.363-0.011c-0.005-0.137-0.021-0.211-0.063-0.337
		c0.169,0.026,0.375,0.047,0.5,0.047c0.127,0,0.158-0.026,0.158-0.111v-2.532h-0.185c-0.152,0-0.23,0.005-0.331,0.026v-0.284
		c-0.137-0.021-0.227-0.026-0.405-0.026h-1.396c-0.205,0-0.311,0.005-0.447,0.026v-0.316c0.121,0.021,0.227,0.026,0.442,0.026
		H94.119z M94.035,19.485h1.269v-0.432h-1.269V19.485z M94.124,20.796h0.638v-0.453h-0.638V20.796z M95.193,18.211v-0.469h-0.621
		c-0.059,0.184-0.09,0.29-0.158,0.469H95.193z M97.025,17.68c-0.095-0.016-0.211-0.026-0.343-0.026H96.13
		c-0.104,0-0.21,0.01-0.295,0.026v-0.342c0.09,0.016,0.212,0.026,0.337,0.026h0.511c0.137,0,0.253-0.011,0.343-0.026V17.68z"/>
</g>
<g>
	<path d="M87.703,3.27c-0.221,0-0.357,0.01-0.525,0.032V2.954c0.131,0.021,0.294,0.031,0.525,0.031h3.491
		c0.231,0,0.395-0.01,0.526-0.031v0.348C91.568,3.28,91.415,3.27,91.194,3.27h-1.517v1.143c0,0.3-0.104,0.369-0.558,0.369
		c-0.138,0-0.222-0.006-0.517-0.021c-0.015-0.121-0.042-0.216-0.089-0.332c0.189,0.032,0.395,0.047,0.573,0.047
		c0.211,0,0.248-0.021,0.248-0.132V3.27H87.703z M88.614,3.633c-0.416,0.5-0.652,0.705-1.2,1.042
		c-0.074-0.121-0.121-0.173-0.231-0.273c0.526-0.279,0.773-0.479,1.138-0.932L88.614,3.633z M89.251,1.458
		c0-0.126-0.005-0.2-0.026-0.305H89.6c-0.017,0.084-0.021,0.163-0.021,0.305v0.079h1.543c0.215,0,0.357-0.005,0.525-0.021
		c-0.016,0.11-0.021,0.2-0.021,0.353v0.3c0,0.163,0.005,0.258,0.021,0.363h-0.342V1.827h-3.706v0.706h-0.343
		c0.016-0.11,0.021-0.205,0.021-0.363v-0.3c0-0.147-0.006-0.237-0.021-0.353c0.169,0.016,0.311,0.021,0.527,0.021h1.468V1.458z
		 M89.246,0.4c0-0.143-0.01-0.258-0.031-0.358h0.395c-0.021,0.095-0.031,0.206-0.031,0.353v0.379h1.458V0.526
		c0-0.126-0.005-0.21-0.021-0.326h0.368c-0.021,0.105-0.026,0.2-0.026,0.326v0.29c0,0.084,0.005,0.153,0.011,0.248
		C91.21,1.058,91.1,1.053,90.999,1.053h-3.132c-0.096,0-0.185,0.005-0.343,0.011c0.006-0.084,0.011-0.174,0.011-0.253V0.526
		c0-0.121-0.005-0.221-0.026-0.326h0.368c-0.016,0.094-0.021,0.194-0.021,0.337v0.237h1.39V0.4z M87.998,2.232
		c0.116,0.021,0.216,0.026,0.442,0.026h2.021c0.222,0,0.316-0.005,0.438-0.026v0.337c-0.127-0.021-0.221-0.026-0.438-0.026H88.44
		c-0.21,0-0.326,0.005-0.442,0.026V2.232z M90.536,3.469c0.427,0.458,0.689,0.658,1.2,0.911c-0.115,0.121-0.142,0.152-0.231,0.294
		c-0.532-0.321-0.837-0.579-1.231-1.037L90.536,3.469z"/>
	<path d="M92.893,2.938c0-0.21,0.005-0.374,0.016-0.621c-0.157,0.232-0.263,0.348-0.5,0.558c-0.068-0.153-0.09-0.184-0.189-0.295
		c0.363-0.279,0.643-0.589,0.89-0.984c0.11-0.179,0.2-0.353,0.236-0.474l0.301,0.185c-0.037,0.052-0.074,0.116-0.147,0.237
		c-0.068,0.126-0.179,0.29-0.285,0.432v2.201c0,0.342,0.006,0.495,0.027,0.631h-0.379c0.021-0.153,0.031-0.332,0.031-0.611V2.938z
		 M93.677,0.2c-0.031,0.037-0.031,0.037-0.152,0.179c-0.306,0.374-0.627,0.668-1.027,0.953c-0.058-0.111-0.115-0.184-0.21-0.269
		c0.264-0.164,0.421-0.284,0.61-0.463c0.242-0.231,0.385-0.411,0.479-0.6L93.677,0.2z M93.435,4.37
		c0.269-0.395,0.379-0.668,0.484-1.189l0.3,0.11c-0.146,0.584-0.269,0.885-0.5,1.274L93.435,4.37z M96.384,1.379
		c0.221,0,0.367-0.005,0.479-0.021c-0.017,0.127-0.021,0.2-0.021,0.385v0.621c0,0.179,0.005,0.263,0.021,0.358
		c-0.132-0.016-0.258-0.021-0.474-0.021h-2.127c-0.185,0-0.316,0.005-0.453,0.016c0.01-0.1,0.016-0.184,0.016-0.332V1.722
		c0-0.168-0.006-0.253-0.016-0.358c0.137,0.01,0.258,0.016,0.432,0.016h0.895V0.869h-0.952c-0.206,0-0.337,0.005-0.506,0.021V0.553
		c0.147,0.021,0.29,0.026,0.521,0.026h0.937V0.405c0-0.147-0.005-0.242-0.025-0.348h0.368c-0.021,0.106-0.026,0.19-0.026,0.353
		v0.168h1.085c0.258,0,0.384-0.005,0.531-0.026v0.342c-0.174-0.021-0.278-0.026-0.517-0.026h-1.1v0.511H96.384z M94.135,2.427h0.605
		V1.648h-0.605V2.427z M94.841,4.27c0,0.126,0.095,0.153,0.558,0.153c0.627,0,0.653-0.026,0.679-0.706
		c0.153,0.079,0.175,0.09,0.307,0.121c-0.063,0.516-0.116,0.69-0.238,0.769c-0.115,0.079-0.367,0.111-0.831,0.111
		c-0.632,0-0.795-0.074-0.795-0.353V3.564c0-0.179-0.011-0.294-0.032-0.432h0.385c-0.026,0.132-0.031,0.242-0.031,0.421V4.27z
		 M95.635,3.754c-0.21-0.316-0.399-0.532-0.662-0.748l0.23-0.173c0.274,0.226,0.448,0.4,0.686,0.706L95.635,3.754z M95.035,2.427
		h0.59V1.648h-0.59V2.427z M95.92,2.427h0.61V1.648h-0.61V2.427z M96.894,4.491c-0.211-0.542-0.348-0.805-0.626-1.206l0.269-0.142
		c0.278,0.411,0.427,0.685,0.647,1.169L96.894,4.491z"/>
</g>
<g>
	<path d="M26.535,24.987c0.206,0.284,0.405,0.474,0.685,0.658c0.4,0.252,0.806,0.405,1.459,0.536
		c-0.085,0.106-0.143,0.206-0.2,0.343c-1.117-0.295-1.764-0.716-2.27-1.479c-0.174,0.421-0.426,0.727-0.827,0.984
		c-0.353,0.227-0.668,0.353-1.195,0.484c-0.053-0.132-0.089-0.189-0.195-0.332c0.532-0.099,0.806-0.194,1.127-0.379
		c0.379-0.221,0.611-0.463,0.774-0.815h-1.337c-0.189,0-0.332,0.01-0.489,0.031v-0.353c0.137,0.021,0.263,0.032,0.484,0.032h1.442
		c0.037-0.168,0.053-0.252,0.074-0.505h-0.953c-0.221,0-0.337,0.006-0.458,0.026v-0.332c0.137,0.021,0.227,0.026,0.458,0.026h0.979
		c0.011-0.206,0.011-0.264,0.016-0.469h-1.016c-0.221,0-0.363,0.011-0.505,0.032v-0.342c0.137,0.021,0.274,0.032,0.505,0.032h1.021
		c-0.005-0.242-0.005-0.311-0.032-0.426h0.39c-0.021,0.094-0.026,0.184-0.026,0.426h1.1c0.237,0,0.369-0.011,0.506-0.032v0.342
		c-0.153-0.026-0.285-0.032-0.506-0.032h-1.105c-0.006,0.168-0.011,0.295-0.021,0.469h1.042c0.232,0,0.316-0.005,0.453-0.026v0.332
		c-0.126-0.021-0.231-0.026-0.453-0.026h-1.063c-0.026,0.227-0.037,0.321-0.079,0.505h1.8c0.222,0,0.353-0.01,0.489-0.032v0.353
		c-0.157-0.021-0.295-0.031-0.495-0.031H26.535z M26.104,22.102c0-0.121-0.011-0.205-0.037-0.327h0.411
		c-0.021,0.116-0.032,0.206-0.032,0.327v0.2h1.548c0.221,0,0.358-0.005,0.527-0.021c-0.017,0.111-0.021,0.216-0.021,0.353v0.311
		c0,0.153,0.005,0.258,0.021,0.363h-0.342v-0.716h-3.707v0.716h-0.348c0.016-0.116,0.021-0.206,0.021-0.363v-0.305
		c0-0.143-0.006-0.248-0.021-0.358c0.168,0.016,0.305,0.021,0.532,0.021h1.448V22.102z"/>
	<path d="M30.229,25.934c0,0.253,0.011,0.442,0.026,0.622h-0.4c0.021-0.185,0.032-0.363,0.032-0.632v-1.748
		c0-0.247,0.005-0.384,0.016-0.637c-0.153,0.295-0.29,0.495-0.548,0.811c-0.1-0.174-0.142-0.227-0.231-0.29
		c0.416-0.463,0.711-0.921,0.942-1.469c0.132-0.306,0.236-0.637,0.273-0.874l0.379,0.116c-0.068,0.168-0.068,0.168-0.184,0.49
		c-0.059,0.163-0.169,0.432-0.306,0.737V25.934z M33.941,26.066c-0.163-0.021-0.332-0.032-0.563-0.032H31.15
		c-0.221,0-0.399,0.01-0.573,0.032v-0.4c0.157,0.021,0.337,0.032,0.563,0.032h2.237c0.21,0,0.41-0.01,0.563-0.032V26.066z
		 M30.846,22.533c0.152,0.021,0.321,0.032,0.547,0.032h1.712c0.215,0,0.39-0.011,0.547-0.032v0.395
		c-0.147-0.021-0.342-0.032-0.547-0.032h-1.712c-0.226,0-0.384,0.011-0.547,0.032V22.533z"/>
	<path d="M34.955,23.823c-0.205,0-0.305,0.006-0.432,0.032v-0.353c0.105,0.021,0.242,0.032,0.427,0.032h0.911
		c0.021-0.053,0.021-0.053,0.063-0.137c0.127-0.269,0.185-0.438,0.248-0.706l0.315,0.094c-0.053,0.105-0.053,0.105-0.163,0.369
		c-0.068,0.164-0.1,0.232-0.174,0.379h0.222c0.205,0,0.3-0.005,0.415-0.026v0.337c-0.126-0.016-0.236-0.021-0.426-0.021h-0.537
		v0.527h0.511c0.21,0,0.311-0.005,0.432-0.027v0.327c-0.126-0.015-0.231-0.021-0.422-0.021h-0.468
		c0.216,0.379,0.395,0.568,0.779,0.816c-0.095,0.105-0.137,0.158-0.2,0.263c-0.306-0.263-0.448-0.437-0.653-0.8
		c0.016,0.121,0.021,0.237,0.021,0.447v0.685c0,0.248,0.011,0.4,0.031,0.495h-0.357c0.021-0.09,0.031-0.274,0.031-0.495v-0.658
		c0-0.163,0.005-0.342,0.021-0.442c-0.241,0.521-0.474,0.826-0.905,1.195c-0.084-0.126-0.131-0.174-0.231-0.258
		c0.495-0.363,0.79-0.721,1.021-1.248h-0.479c-0.205,0-0.3,0.006-0.432,0.032v-0.342c0.116,0.026,0.227,0.032,0.438,0.032h0.568
		v-0.527H34.955z M36.329,22.323c0.18,0,0.279-0.005,0.427-0.026v0.332c-0.115-0.016-0.231-0.021-0.4-0.021h-1.348
		c-0.157,0-0.242,0.005-0.379,0.032v-0.348c0.126,0.026,0.231,0.032,0.416,0.032h0.474v-0.147c0-0.174-0.005-0.258-0.026-0.369
		h0.374c-0.021,0.105-0.026,0.189-0.026,0.363v0.153H36.329z M35.15,23.48c-0.068-0.284-0.116-0.442-0.231-0.7l0.273-0.095
		c0.116,0.279,0.152,0.39,0.231,0.69L35.15,23.48z M37.298,24.86c-0.163,0-0.242,0.005-0.363,0.016
		c0.011-0.126,0.016-0.227,0.016-0.516v-1.858c0-0.237-0.005-0.39-0.025-0.516c0.157,0.021,0.284,0.026,0.505,0.026h1.011
		c0.253,0,0.363-0.005,0.511-0.026c-0.016,0.158-0.021,0.316-0.021,0.547v1.853c0,0.222,0.005,0.385,0.021,0.495
		c-0.143-0.016-0.227-0.021-0.479-0.021h-0.094v1.164c0,0.095,0.036,0.11,0.273,0.11c0.216,0,0.289-0.021,0.321-0.095
		c0.031-0.089,0.053-0.29,0.053-0.605c0.126,0.084,0.168,0.105,0.295,0.142c-0.017,0.332-0.048,0.548-0.105,0.669
		c-0.074,0.148-0.211,0.195-0.601,0.195c-0.453,0-0.548-0.052-0.548-0.311V24.86h-0.384c-0.031,0.39-0.116,0.674-0.284,0.942
		c-0.211,0.348-0.521,0.585-0.984,0.764c-0.069-0.121-0.116-0.173-0.227-0.269c0.453-0.142,0.737-0.337,0.937-0.642
		c0.158-0.237,0.222-0.453,0.242-0.795H37.298z M37.251,22.865h1.374v-0.563h-1.374V22.865z M37.251,23.717h1.374v-0.579h-1.374
		V23.717z M37.251,24.591h1.374v-0.6h-1.374V24.591z"/>
	<path d="M40.603,22.475c-0.258,0-0.427,0.011-0.595,0.032v-0.39c0.152,0.026,0.321,0.037,0.59,0.037h3.027
		c0.278,0,0.447-0.011,0.615-0.037v0.39c-0.174-0.021-0.342-0.032-0.615-0.032h-1.364v1.406h1.101c0.264,0,0.405-0.01,0.558-0.032
		v0.374c-0.152-0.016-0.311-0.021-0.558-0.021h-1.101v1.664h1.579c0.264,0,0.433-0.01,0.585-0.032v0.395
		c-0.163-0.026-0.332-0.037-0.585-0.037h-3.411c-0.264,0-0.432,0.01-0.61,0.037v-0.395c0.174,0.021,0.326,0.032,0.61,0.032h1.459
		v-1.664h-1.006c-0.242,0-0.411,0.005-0.563,0.021v-0.374c0.132,0.021,0.29,0.032,0.559,0.032h1.011v-1.406H40.603z"/>
</g>
<g>
	<path d="M25.141,33.634c0,0.242,0.01,0.416,0.031,0.542h-0.353c0.021-0.153,0.031-0.311,0.031-0.553v-0.315h-0.379
		c-0.232,0-0.337,0.005-0.484,0.032v-0.332c0.158,0.021,0.258,0.026,0.484,0.026h0.379v-0.484h-0.195
		c-0.231,0-0.379,0.006-0.521,0.021c0.016-0.137,0.021-0.311,0.021-0.552v-0.79c0-0.242-0.005-0.4-0.021-0.537
		c0.132,0.016,0.284,0.021,0.521,0.021h0.195v-0.468h-0.363c-0.21,0-0.337,0.005-0.484,0.026v-0.332
		c0.143,0.026,0.248,0.032,0.484,0.032h0.363c0-0.295-0.01-0.416-0.031-0.563h0.353c-0.021,0.132-0.031,0.285-0.031,0.563h0.284
		c0.227,0,0.332-0.005,0.474-0.032v0.332c-0.158-0.021-0.263-0.026-0.474-0.026h-0.284v0.468h0.21c0.242,0,0.379-0.005,0.521-0.021
		c-0.016,0.121-0.021,0.279-0.021,0.532v0.795c0,0.252,0.005,0.41,0.021,0.552c-0.153-0.015-0.284-0.021-0.526-0.021h-0.205v0.484
		h0.326c0.205,0,0.321-0.005,0.458-0.026v0.332c-0.147-0.026-0.248-0.032-0.458-0.032h-0.326V33.634z M24.429,30.97v0.505h0.421
		V30.97H24.429z M24.429,31.718v0.574h0.421v-0.574H24.429z M25.583,31.476V30.97h-0.442v0.505H25.583z M25.583,32.292v-0.574
		h-0.442v0.574H25.583z M26.472,33.645c0,0.242,0.005,0.384,0.026,0.532h-0.353c0.016-0.147,0.027-0.327,0.027-0.532v-2.327
		c0-0.231-0.005-0.358-0.021-0.5c0.137,0.015,0.305,0.026,0.505,0.026h0.495v-0.511h-0.753c-0.153,0-0.273,0.005-0.395,0.021v-0.342
		c0.121,0.021,0.231,0.026,0.416,0.026h0.732v-0.163c0-0.2-0.011-0.337-0.032-0.479h0.369c-0.026,0.158-0.032,0.284-0.032,0.484
		v0.158h0.785c0.189,0,0.326-0.005,0.469-0.026v0.347c-0.153-0.021-0.29-0.026-0.447-0.026h-0.806v0.511h0.59
		c0.221,0,0.379-0.005,0.5-0.026c-0.016,0.121-0.021,0.269-0.021,0.51v2.449c0,0.268-0.09,0.337-0.447,0.337
		c-0.005,0-0.1-0.005-0.284-0.01c-0.011-0.132-0.032-0.216-0.079-0.316c0.137,0.016,0.247,0.026,0.368,0.026
		c0.116,0,0.143-0.026,0.143-0.126v-0.732h-0.769v0.748c0,0.205,0.005,0.321,0.021,0.463H27.13c0.016-0.131,0.021-0.258,0.021-0.463
		v-0.748h-0.679V33.645z M27.151,31.744v-0.622h-0.679v0.622H27.151z M27.151,32.676v-0.653h-0.679v0.653H27.151z M28.226,31.744
		v-0.622h-0.769v0.622H28.226z M28.226,32.676v-0.653h-0.769v0.653H28.226z M28.305,30.012c-0.227-0.164-0.395-0.258-0.648-0.374
		l0.179-0.19c0.358,0.174,0.358,0.174,0.643,0.358L28.305,30.012z"/>
	<path d="M30.229,33.55c0,0.253,0.011,0.442,0.026,0.622h-0.4c0.021-0.185,0.032-0.363,0.032-0.632v-1.748
		c0-0.248,0.005-0.384,0.016-0.637c-0.153,0.295-0.29,0.495-0.548,0.811c-0.1-0.173-0.142-0.227-0.231-0.289
		c0.416-0.463,0.711-0.922,0.942-1.469c0.132-0.305,0.236-0.637,0.273-0.874l0.379,0.116c-0.068,0.168-0.068,0.168-0.184,0.49
		c-0.059,0.164-0.169,0.432-0.306,0.737V33.55z M33.941,33.681c-0.163-0.021-0.332-0.031-0.563-0.031H31.15
		c-0.221,0-0.399,0.01-0.573,0.031v-0.4c0.157,0.021,0.337,0.032,0.563,0.032h2.237c0.21,0,0.41-0.011,0.563-0.032V33.681z
		 M30.846,30.148c0.152,0.021,0.321,0.032,0.547,0.032h1.712c0.215,0,0.39-0.01,0.547-0.032v0.395
		c-0.147-0.021-0.342-0.031-0.547-0.031h-1.712c-0.226,0-0.384,0.01-0.547,0.031V30.148z"/>
	<path d="M34.955,31.438c-0.205,0-0.305,0.006-0.432,0.032v-0.352c0.105,0.021,0.242,0.031,0.427,0.031h0.911
		c0.021-0.053,0.021-0.053,0.063-0.137c0.127-0.269,0.185-0.437,0.248-0.706l0.315,0.095c-0.053,0.105-0.053,0.105-0.163,0.368
		c-0.068,0.163-0.1,0.232-0.174,0.379h0.222c0.205,0,0.3-0.005,0.415-0.026v0.337c-0.126-0.016-0.236-0.021-0.426-0.021h-0.537
		v0.527h0.511c0.21,0,0.311-0.005,0.432-0.026v0.327c-0.126-0.016-0.231-0.021-0.422-0.021h-0.468
		c0.216,0.38,0.395,0.569,0.779,0.816c-0.095,0.105-0.137,0.158-0.2,0.263c-0.306-0.263-0.448-0.437-0.653-0.8
		c0.016,0.121,0.021,0.237,0.021,0.447v0.684c0,0.248,0.011,0.4,0.031,0.495h-0.357c0.021-0.09,0.031-0.273,0.031-0.495v-0.658
		c0-0.164,0.005-0.342,0.021-0.442c-0.241,0.521-0.474,0.826-0.905,1.194c-0.084-0.126-0.131-0.173-0.231-0.258
		c0.495-0.363,0.79-0.721,1.021-1.248h-0.479c-0.205,0-0.3,0.006-0.432,0.032v-0.342c0.116,0.027,0.227,0.032,0.438,0.032h0.568
		v-0.527H34.955z M36.329,29.938c0.18,0,0.279-0.005,0.427-0.026v0.332c-0.115-0.016-0.231-0.021-0.4-0.021h-1.348
		c-0.157,0-0.242,0.006-0.379,0.032v-0.347c0.126,0.026,0.231,0.031,0.416,0.031h0.474v-0.147c0-0.174-0.005-0.258-0.026-0.369
		h0.374c-0.021,0.105-0.026,0.189-0.026,0.363v0.153H36.329z M35.15,31.096c-0.068-0.284-0.116-0.442-0.231-0.7l0.273-0.095
		c0.116,0.279,0.152,0.39,0.231,0.689L35.15,31.096z M37.298,32.476c-0.163,0-0.242,0.005-0.363,0.016
		c0.011-0.126,0.016-0.227,0.016-0.517v-1.858c0-0.237-0.005-0.389-0.025-0.516c0.157,0.021,0.284,0.026,0.505,0.026h1.011
		c0.253,0,0.363-0.005,0.511-0.026c-0.016,0.158-0.021,0.316-0.021,0.547v1.853c0,0.222,0.005,0.385,0.021,0.495
		c-0.143-0.016-0.227-0.021-0.479-0.021h-0.094v1.164c0,0.095,0.036,0.11,0.273,0.11c0.216,0,0.289-0.021,0.321-0.095
		c0.031-0.089,0.053-0.289,0.053-0.605c0.126,0.084,0.168,0.105,0.295,0.142c-0.017,0.332-0.048,0.548-0.105,0.668
		c-0.074,0.148-0.211,0.195-0.601,0.195c-0.453,0-0.548-0.052-0.548-0.311v-1.269h-0.384c-0.031,0.39-0.116,0.674-0.284,0.942
		c-0.211,0.348-0.521,0.585-0.984,0.764c-0.069-0.122-0.116-0.174-0.227-0.269c0.453-0.142,0.737-0.337,0.937-0.642
		c0.158-0.237,0.222-0.453,0.242-0.795H37.298z M37.251,30.48h1.374v-0.563h-1.374V30.48z M37.251,31.333h1.374v-0.579h-1.374
		V31.333z M37.251,32.207h1.374v-0.6h-1.374V32.207z"/>
	<path d="M40.603,30.09c-0.258,0-0.427,0.011-0.595,0.032v-0.389c0.152,0.026,0.321,0.037,0.59,0.037h3.027
		c0.278,0,0.447-0.01,0.615-0.037v0.389c-0.174-0.021-0.342-0.032-0.615-0.032h-1.364v1.406h1.101c0.264,0,0.405-0.011,0.558-0.032
		v0.374c-0.152-0.016-0.311-0.021-0.558-0.021h-1.101v1.663h1.579c0.264,0,0.433-0.01,0.585-0.031v0.395
		c-0.163-0.027-0.332-0.037-0.585-0.037h-3.411c-0.264,0-0.432,0.01-0.61,0.037V33.45c0.174,0.021,0.326,0.031,0.61,0.031h1.459
		v-1.663h-1.006c-0.242,0-0.411,0.005-0.563,0.021v-0.374c0.132,0.021,0.29,0.032,0.559,0.032h1.011V30.09H40.603z"/>
</g>
<line fill="none" stroke="#000000" stroke-width="0.5" stroke-miterlimit="10" x1="7.075" y1="21.615" x2="7.075" y2="34.266"/>
<line fill="none" stroke="#000000" stroke-width="0.5" stroke-miterlimit="10" x1="8.837" y1="21.615" x2="8.837" y2="34.266"/>
<line fill="none" stroke="#000000" stroke-width="0.5" stroke-miterlimit="10" x1="7.075" y1="14.716" x2="7.075" y2="6.991"/>
<line fill="none" stroke="#000000" stroke-width="0.5" stroke-miterlimit="10" x1="8.837" y1="6.991" x2="8.837" y2="14.716"/>
<path fill="none" stroke="#000000" stroke-width="0.5" stroke-miterlimit="10" d="M8.837,28.28h9.447 M23.09,24.562h-4.806v7.133
	h4.806"/>
<line fill="none" stroke="#000000" stroke-width="0.5" stroke-miterlimit="10" x1="8.837" y1="10.957" x2="23.09" y2="10.957"/>
<line fill="none" stroke="#000000" stroke-width="0.5" stroke-miterlimit="10" x1="34.726" y1="10.957" x2="41.831" y2="10.957"/>
<line fill="none" stroke="#000000" stroke-width="0.5" stroke-miterlimit="10" x1="54.032" y1="10.957" x2="61.137" y2="10.957"/>
<path fill="none" stroke="#000000" stroke-width="0.5" stroke-miterlimit="10" d="M73.422,10.957h12.799 M86.221,2.557h-5.832
	v24.842h5.832 M86.221,19.384h-5.832"/>
</svg>
