<?xml version="1.0" encoding="utf-8"?>
<!-- Generator: Adobe Illustrator 16.0.0, SVG Export Plug-In . SVG Version: 6.00 Build 0)  -->
<!DOCTYPE svg PUBLIC "-//W3C//DTD SVG 1.1//EN" "http://www.w3.org/Graphics/SVG/1.1/DTD/svg11.dtd">
<svg version="1.1" id="レイヤー_1" xmlns="http://www.w3.org/2000/svg" xmlns:xlink="http://www.w3.org/1999/xlink" x="0px"
	 y="0px" width="277.502px" height="80.758px" viewBox="0 0 277.502 80.758" enable-background="new 0 0 277.502 80.758"
	 xml:space="preserve">
<rect x="0.5" y="22.38" fill="none" stroke="#231815" stroke-miterlimit="10" width="51.5" height="31.5"/>
<g>
	<path d="M8.451,30.244c0-0.924-0.044-1.519-0.132-2.179h1.628c-0.088,0.66-0.11,1.232-0.11,2.179v15.27
		c0,1.012,0.022,1.76,0.132,2.42h-1.65c0.088-0.638,0.132-1.386,0.132-2.42v-5.391c-0.77,0.55-1.892,1.232-2.948,1.804
		c-0.308,0.176-0.506,0.308-0.726,0.461l-0.638-1.474c0.902-0.242,2.904-1.276,4.313-2.267V30.244z M5.876,31.212
		c0.704,1.849,1.1,3.146,1.518,4.907l-1.276,0.462c-0.44-2.157-0.814-3.345-1.518-4.885L5.876,31.212z M23.677,29.21
		c-0.198,0.066-0.198,0.066-0.66,0.198c-1.474,0.462-3.917,0.968-6.117,1.32c-1.628,0.242-3.411,0.418-5.479,0.528
		c-0.132-0.528-0.242-0.814-0.528-1.342c4.621-0.044,10.011-0.924,11.706-1.937L23.677,29.21z M22.225,38.627
		c0.902,0,1.563-0.044,2.178-0.132v1.54c-0.616-0.088-1.32-0.132-2.178-0.132h-0.704v6.073c0,1.21-0.594,1.628-2.354,1.628
		c-0.858,0-1.694-0.043-2.882-0.154c-0.066-0.637-0.132-0.945-0.33-1.474c1.21,0.242,2.289,0.353,3.212,0.353
		c0.727,0,0.968-0.133,0.968-0.594v-5.832h-7.151c-0.836,0-1.518,0.044-2.09,0.132v-1.54c0.616,0.11,1.166,0.132,2.09,0.132h7.151
		c-0.022-0.858-0.044-1.188-0.11-1.716h0.088l-1.056-0.484c1.694-2.024,2.486-3.366,3.279-5.501l1.386,0.616
		c-1.386,2.663-1.98,3.586-3.388,5.369h1.276c-0.066,0.506-0.088,0.792-0.088,1.716H22.225z M13.182,36.779
		c-0.594-1.76-0.99-2.662-1.871-4.07l1.21-0.462c0.748,1.276,1.254,2.311,1.914,3.961L13.182,36.779z M15.998,44.942
		c-0.99-1.54-1.738-2.398-3.037-3.608l1.034-0.77c1.342,1.254,2.178,2.156,3.19,3.476L15.998,44.942z M17.032,36.185
		c-0.506-1.716-0.924-2.728-1.716-4.136l1.254-0.44c0.726,1.342,1.166,2.376,1.738,4.093L17.032,36.185z"/>
	<path d="M31.177,41.906c-0.88,0-1.298,0.022-1.892,0.088c0.066-0.66,0.088-1.034,0.088-1.65v-3.96c0-0.638-0.022-1.012-0.088-1.672
		c0.572,0.066,0.968,0.088,1.87,0.088H35.6v-1.694h-4.467c-0.836,0-1.298,0.022-1.892,0.11V31.85c0.528,0.088,0.99,0.11,1.892,0.11
		H35.6c-0.022-0.704-0.066-1.012-0.132-1.474h1.563c-0.066,0.44-0.11,0.748-0.132,1.474h4.885c0.902,0,1.298-0.022,1.871-0.11v1.364
		c-0.55-0.088-1.034-0.11-1.871-0.11h-4.885v1.694h4.907c0.902,0,1.298-0.022,1.871-0.088c-0.066,0.616-0.088,0.946-0.088,1.672
		v3.96c0,0.704,0.022,1.034,0.088,1.65c-0.594-0.066-1.034-0.088-1.893-0.088h-4.885v1.804h6.975c0.902,0,1.541-0.043,2.156-0.132
		v1.497c-0.66-0.089-1.32-0.133-2.2-0.133h-6.931v0.727c0,0.902,0.044,1.518,0.154,2.288h-1.606c0.11-0.792,0.154-1.431,0.154-2.288
		v-0.727h-6.425c-0.836,0-1.518,0.044-2.156,0.133v-1.497c0.616,0.089,1.21,0.132,2.112,0.132H35.6v-1.804H31.177z M27.238,32.818
		c0.066-0.462,0.088-0.858,0.088-1.518v-1.21c0-0.594-0.022-1.012-0.088-1.474c0.704,0.066,1.298,0.088,2.178,0.088h14.06
		c0.924,0,1.496-0.022,2.2-0.088c-0.066,0.44-0.088,0.814-0.088,1.452V31.3c0,0.66,0.022,1.056,0.088,1.518h-1.474v-2.904H28.69
		v2.904H27.238z M35.6,35.921h-4.907v1.826H35.6V35.921z M35.6,38.847h-4.907v1.936H35.6V38.847z M42.267,37.747v-1.826h-5.369
		v1.826H42.267z M42.267,40.783v-1.936h-5.369v1.936H42.267z"/>
</g>
<line stroke="#231815" stroke-miterlimit="10" x1="135.874" y1="16.25" x2="161.874" y2="16.25"/>
<rect x="84.375" y="0.501" fill="none" stroke="#231815" stroke-miterlimit="10" width="51.5" height="31.5"/>
<g>
	<path d="M91.247,14.833c-1.012,0-1.716,0.044-2.464,0.132v-1.54c0.572,0.088,1.254,0.132,2.464,0.132h5.501v-3.125h-3.719
		c-1.122,0-1.804,0.022-2.42,0.11V9.046c0.528,0.088,1.21,0.132,2.42,0.132h3.719V8.254c0-0.99-0.022-1.496-0.132-2.112h1.672
		c-0.088,0.572-0.132,1.122-0.132,2.134v0.902h2.398c1.167,0,1.805-0.044,2.376-0.132v1.497c-0.726-0.088-1.122-0.11-2.332-0.11
		h-2.442v3.125h1.65c2.707-2.112,4.951-4.511,5.721-6.161l1.408,0.88c-0.33,0.352-0.418,0.462-0.924,1.078
		c-1.144,1.386-2.596,2.816-4.247,4.203h3.851c1.144,0,1.76-0.044,2.354-0.132v1.54c-0.726-0.088-1.43-0.132-2.398-0.132h-5.435
		c-1.518,1.122-2.948,2.046-4.708,3.059v2.068c2.574-0.704,4.422-1.32,6.359-2.157c1.078-0.44,1.628-0.748,2.068-1.078l1.122,1.21
		c-0.11,0.044-0.11,0.044-0.308,0.132c-0.044,0.022-0.132,0.066-0.264,0.11c-0.924,0.418-1.694,0.749-3.08,1.254
		c-2.179,0.792-2.905,1.012-5.897,1.804v1.87c0,0.572,0.242,0.771,1.122,0.902c0.572,0.088,1.65,0.132,3.542,0.132
		c2.86,0,3.917-0.132,4.269-0.572c0.308-0.396,0.44-1.188,0.528-3.015c0.484,0.352,0.836,0.506,1.386,0.66
		c-0.396,4.181-0.528,4.247-6.931,4.247c-2.618,0-3.763-0.11-4.511-0.462c-0.616-0.264-0.814-0.682-0.814-1.672v-4.665
		c-1.606,0.814-2.904,1.386-4.797,2.134c-0.242-0.484-0.44-0.748-0.902-1.254c3.454-1.144,6.667-2.706,9.681-4.708H91.247z"/>
	<path d="M119.474,8.298c0-1.078-0.044-1.606-0.154-2.288h1.76c-0.11,0.682-0.154,1.298-0.154,2.244v1.937h6.447
		c0.748,0,1.166-0.022,1.672-0.088c-0.088,0.572-0.11,1.034-0.11,1.738v6.007c0,0.726,0.044,1.298,0.132,1.958h-1.584V18.31h-6.557
		v5.126c0,1.254,0.022,1.804,0.154,2.508h-1.76c0.11-0.748,0.154-1.32,0.154-2.508V18.31h-6.205v1.496h-1.584
		c0.088-0.638,0.132-1.254,0.132-1.958V11.84c0-0.682-0.044-1.166-0.11-1.738c0.528,0.066,0.946,0.088,1.65,0.088h6.117V8.298z
		 M113.269,11.511v5.479h6.205v-5.479H113.269z M127.482,16.989v-5.479h-6.557v5.479H127.482z"/>
</g>
<rect x="84.376" y="48.758" fill="none" stroke="#231815" stroke-miterlimit="10" width="93.792" height="31.5"/>
<g>
	<path d="M99.014,61.111c0.748,2.816,1.914,5.127,3.586,7.085c1.606,1.871,3.455,3.213,5.963,4.291
		c-0.44,0.527-0.616,0.77-0.968,1.475c-4.929-2.619-7.657-5.832-9.241-10.87c-0.594,3.212-2.046,5.875-4.291,7.899
		c-1.386,1.232-2.596,2.002-4.752,2.992c-0.308-0.616-0.484-0.858-0.946-1.342c2.75-1.123,4.356-2.201,5.787-3.852
		c1.716-1.979,2.641-4.313,3.059-7.679h-5.985c-1.166,0-1.782,0.044-2.42,0.154v-1.716c0.572,0.109,1.298,0.153,2.464,0.153h6.073
		c0.066-1.056,0.088-1.738,0.088-2.597c0-1.012-0.066-1.804-0.154-2.398h1.804c-0.11,0.727-0.154,1.211-0.154,2.289
		c-0.022,1.122-0.044,1.76-0.11,2.706h6.667c1.123,0,1.849-0.044,2.442-0.153v1.716c-0.704-0.11-1.32-0.154-2.42-0.154H99.014z"/>
	<path d="M113.445,56.645c0-0.902-0.044-1.453-0.132-2.135h1.628c-0.11,0.66-0.132,1.188-0.132,2.09v3.807h0.924
		c0.902,0,1.342-0.021,1.76-0.109v1.43c-0.55-0.066-1.056-0.088-1.804-0.088h-0.88v6.425c0.814-0.353,1.21-0.55,2.267-1.122
		l0.088,1.342c-1.826,0.969-2.948,1.453-5.611,2.465c-0.286,0.088-0.572,0.22-0.902,0.374l-0.396-1.496
		c0.771-0.132,1.497-0.374,3.191-1.013v-6.975h-1.101c-0.902,0-1.342,0.021-1.848,0.132v-1.496c0.528,0.11,0.902,0.132,1.848,0.132
		h1.101V56.645z M119.737,62.101c-0.22,5.589-1.034,8.405-3.344,11.706c-0.352-0.396-0.638-0.594-1.21-0.858
		c1.254-1.65,1.915-2.904,2.354-4.577c0.616-2.332,0.88-5.236,0.88-10.188c0-1.298-0.022-1.869-0.088-2.75
		c0.704,0.088,1.386,0.11,2.311,0.11h7.195c0.902,0,1.584-0.044,2.157-0.132v1.563c-0.594-0.089-1.145-0.111-2.112-0.111h-8.075
		v1.717c0,0.792,0,1.342-0.022,2.289h6.689c0.902,0,1.452-0.022,1.804-0.111l0.77,0.859c-0.088,0.176-0.132,0.264-0.22,0.527
		c-1.012,2.949-2.002,4.885-3.521,6.887c1.541,1.717,3.059,2.773,5.259,3.697c-0.418,0.418-0.66,0.792-0.924,1.32
		c-2.245-1.145-3.675-2.223-5.215-3.939c-1.519,1.717-2.971,2.773-5.457,3.961c-0.286-0.506-0.528-0.77-1.012-1.145
		c2.442-1.033,4.049-2.134,5.655-3.828c-1.584-2.156-2.552-4.356-3.102-6.997H119.737z M121.872,62.101
		c0.374,2.091,1.276,4.137,2.618,5.94c1.342-1.804,2.112-3.454,2.838-5.94H121.872z"/>
	<path d="M134.96,56.886c0-1.013-0.044-1.782-0.132-2.421h1.606c-0.088,0.705-0.132,1.387-0.132,2.443v3.256h0.352
		c0.77,0,1.32-0.021,1.804-0.088v1.408c-0.638-0.066-1.254-0.088-1.826-0.088h-0.33v6.184c0.682-0.375,1.078-0.617,2.002-1.255
		l0.11,1.364c-1.694,1.1-2.574,1.584-4.841,2.707c-0.264,0.131-0.264,0.131-0.858,0.439l-0.462-1.475
		c0.55-0.132,1.519-0.506,2.707-1.1v-6.865h-0.528c-0.704,0-1.298,0.044-1.871,0.109v-1.451c0.594,0.088,1.145,0.109,1.915,0.109
		h0.484V56.886z M147.106,59.197c0.176,2.618,0.528,5.083,1.056,7.239c0.858-1.541,1.584-3.564,1.805-4.951l1.43,0.528
		c-0.264,0.616-0.308,0.771-0.506,1.276c-0.594,1.563-1.475,3.389-2.266,4.643c0.791,2.178,1.914,4.203,2.311,4.203
		c0.264,0,0.506-1.189,0.682-3.213c0.462,0.484,0.704,0.682,1.145,0.902c-0.375,2.838-0.837,3.895-1.717,3.895
		c-1.034,0-2.289-1.629-3.367-4.357c-1.451,1.959-2.617,3.015-4.752,4.357c-0.286-0.463-0.572-0.727-1.034-1.057
		c2.442-1.364,3.718-2.486,5.325-4.687c-0.748-2.311-1.232-5.303-1.431-8.779h-5.061c0,0.308,0,0.506,0,0.683
		c0,0.373-0.022,1.584-0.044,2.441h2.332c0.77,0,1.475-0.021,1.959-0.088c-0.022,0.088-0.022,0.133-0.022,0.176
		c-0.022,0.287-0.022,0.287-0.132,2.486c-0.133,2.597-0.44,4.225-0.858,4.731c-0.33,0.374-0.814,0.528-1.673,0.528
		c-0.418,0-1.056-0.022-1.605-0.066c0-0.551-0.066-0.836-0.242-1.387c0.572,0.11,1.275,0.176,1.717,0.176
		c0.594,0,0.857-0.131,0.967-0.483c0.265-0.858,0.419-2.398,0.484-4.841h-2.971c-0.088,2.377-0.506,4.951-1.056,6.602
		c-0.484,1.408-1.1,2.552-2.024,3.674c-0.396-0.418-0.638-0.594-1.188-0.88c2.267-2.53,3.015-5.655,3.015-12.542
		c0-1.364-0.022-2.068-0.088-2.574c1.145,0.088,1.387,0.109,2.135,0.109h4.291c-0.022-0.638-0.045-1.254-0.045-2.068
		c0-0.659-0.021-1.033-0.088-1.496h1.541c-0.089,0.484-0.111,0.881-0.111,1.629c0,0.33,0,0.902,0.045,1.936h2.553
		c0.968,0,1.76-0.043,2.287-0.131v1.496c-0.66-0.066-1.539-0.11-2.354-0.11H147.106z M150.429,57.569
		c-0.836-0.969-1.408-1.475-2.509-2.223l0.836-0.77c0.969,0.638,1.585,1.121,2.575,2.09L150.429,57.569z"/>
	<path d="M157.555,64.631c0-1.034,0.021-1.782,0.088-2.729c-0.836,1.431-1.364,2.068-2.86,3.543
		c-0.418-0.748-0.483-0.814-0.925-1.232c2.223-2.047,3.785-4.225,4.951-6.909c0.463-1.078,0.814-2.156,0.946-2.948l1.54,0.551
		c-0.197,0.483-0.197,0.483-0.506,1.275c-0.439,1.166-1.166,2.619-1.826,3.785v11.705c0,1.034,0.044,1.826,0.154,2.619H157.4
		c0.11-0.748,0.154-1.453,0.154-2.686V64.631z M166.861,61.836c0.572,3.543,1.387,5.92,2.773,8.01
		c1.012,1.518,2.111,2.597,2.662,2.597c0.264,0,0.439-0.198,0.616-0.727c0.198-0.616,0.352-1.606,0.506-2.904
		c0.55,0.484,0.88,0.726,1.298,0.946c-0.506,3.146-1.122,4.313-2.288,4.313c-1.519,0-3.718-2.354-5.215-5.545
		c-0.813-1.782-1.408-3.916-1.804-6.557l-2.992,0.309c-0.925,0.088-1.52,0.176-2.179,0.33l-0.089-1.585
		c0.265,0.022,0.353,0.022,0.44,0.022c0.419,0,1.167-0.045,1.782-0.11l2.861-0.286c-0.154-1.408-0.242-2.729-0.265-3.851
		c-0.022-0.946-0.065-1.562-0.154-2.003l1.694-0.021c-0.088,0.418-0.109,0.814-0.109,1.452c0,1.32,0.065,2.442,0.285,4.269
		l5.171-0.527c1.255-0.133,1.694-0.198,2.223-0.353l0.132,1.585c-0.132,0-0.176,0-0.242,0h-0.285c-0.287,0-1.057,0.043-1.673,0.109
		L166.861,61.836z M168.996,54.818c1.408,1.101,2.156,1.782,3.543,3.235l-1.057,1.012c-0.902-1.166-2.046-2.289-3.432-3.41
		L168.996,54.818z"/>
</g>
<rect x="161.742" y="0.5" fill="none" stroke="#231815" stroke-miterlimit="10" width="115.26" height="31.5"/>
<g>
	<path d="M176.381,12.852c0.748,2.816,1.914,5.127,3.586,7.085c1.607,1.871,3.455,3.213,5.963,4.291
		c-0.439,0.528-0.615,0.77-0.968,1.474c-4.929-2.619-7.657-5.831-9.241-10.87c-0.594,3.212-2.047,5.875-4.291,7.899
		c-1.386,1.232-2.596,2.002-4.752,2.993c-0.309-0.616-0.484-0.858-0.946-1.342c2.751-1.122,4.356-2.2,5.786-3.851
		c1.717-1.98,2.641-4.313,3.059-7.679h-5.984c-1.166,0-1.782,0.044-2.42,0.154V11.29c0.572,0.11,1.298,0.154,2.464,0.154h6.073
		c0.066-1.056,0.088-1.738,0.088-2.596c0-1.012-0.066-1.804-0.154-2.398h1.805c-0.11,0.726-0.154,1.21-0.154,2.289
		c-0.021,1.122-0.044,1.76-0.109,2.706h6.666c1.123,0,1.849-0.044,2.442-0.154v1.716c-0.704-0.11-1.319-0.154-2.421-0.154H176.381z"
		/>
	<path d="M190.813,8.386c0-0.902-0.045-1.453-0.133-2.134h1.629c-0.111,0.66-0.133,1.188-0.133,2.09v3.807h0.924
		c0.902,0,1.343-0.022,1.761-0.11v1.43c-0.55-0.066-1.056-0.088-1.804-0.088h-0.881v6.425c0.814-0.352,1.211-0.55,2.267-1.122
		l0.088,1.342c-1.826,0.968-2.948,1.452-5.61,2.464c-0.287,0.088-0.572,0.22-0.902,0.374l-0.396-1.496
		c0.771-0.132,1.496-0.375,3.191-1.012V13.38h-1.102c-0.901,0-1.342,0.022-1.848,0.132v-1.496c0.528,0.11,0.902,0.132,1.848,0.132
		h1.102V8.386z M197.104,13.842c-0.22,5.589-1.034,8.405-3.345,11.706c-0.352-0.396-0.638-0.594-1.209-0.858
		c1.254-1.65,1.914-2.904,2.354-4.577c0.616-2.333,0.881-5.237,0.881-10.188c0-1.298-0.022-1.87-0.089-2.75
		c0.704,0.088,1.386,0.11,2.311,0.11h7.194c0.902,0,1.585-0.044,2.157-0.132v1.563c-0.595-0.088-1.145-0.11-2.112-0.11h-8.075v1.716
		c0,0.792,0,1.342-0.022,2.289h6.689c0.902,0,1.452-0.022,1.805-0.11l0.77,0.858c-0.088,0.176-0.133,0.264-0.221,0.528
		c-1.012,2.949-2.002,4.885-3.52,6.887c1.54,1.716,3.059,2.772,5.258,3.696c-0.418,0.418-0.66,0.792-0.924,1.32
		c-2.244-1.144-3.674-2.222-5.215-3.938c-1.518,1.716-2.971,2.772-5.457,3.96c-0.285-0.506-0.527-0.77-1.012-1.144
		c2.442-1.034,4.049-2.134,5.654-3.829c-1.584-2.156-2.552-4.356-3.102-6.997H197.104z M199.238,13.842
		c0.375,2.09,1.277,4.137,2.619,5.941c1.342-1.804,2.112-3.455,2.838-5.941H199.238z"/>
	<path d="M220.249,20.575c0,0.814,0.044,1.584,0.109,2.178h-1.408v-1.276h-6.732v2.002h-1.452c0.088-0.616,0.153-1.563,0.153-2.905
		V9.332c0-0.946-0.021-1.562-0.088-2.244c0.639,0.066,1.276,0.088,2.267,0.088h4.95c1.013,0,1.629-0.022,2.289-0.088
		c-0.066,0.55-0.088,0.968-0.088,1.936h6.887c1.254,0,2.046-0.044,2.706-0.154v1.584c-0.66-0.11-1.232-0.132-2.641-0.132h-0.439
		v13.466c0,1.452-0.396,1.738-2.377,1.738c-0.77,0-1.672-0.022-2.42-0.088c-0.044-0.55-0.11-0.902-0.264-1.452
		c1.122,0.132,1.914,0.198,2.684,0.198c0.793,0,0.946-0.088,0.946-0.506V10.322h-5.082V20.575z M212.239,13.49h2.641V8.408h-2.641
		V13.49z M212.239,20.245h2.641v-5.544h-2.641V20.245z M216.178,13.49h2.772V8.408h-2.772V13.49z M216.178,20.245h2.772v-5.544
		h-2.772V20.245z"/>
	<path d="M248.256,7.857c1.144,0,1.826-0.044,2.42-0.132v1.43c-0.66-0.088-1.276-0.11-2.354-0.11h-6.799
		c-0.286,0.858-0.418,1.232-0.66,1.849h6.601c1.364,0,1.738-0.022,2.289-0.088v1.342c-0.551-0.066-0.969-0.088-2.289-0.088h-3.19
		c0.507,0.946,0.727,1.298,1.299,2.068h3.63c1.232,0,1.827-0.022,2.398-0.132v1.474c-0.77-0.088-1.452-0.132-2.398-0.132h-2.618
		c1.584,1.65,3.103,2.707,5.391,3.763c-0.506,0.462-0.682,0.682-1.034,1.232c-2.728-1.584-4.334-2.905-6.007-4.995h-6.645
		c-1.563,2.002-3.169,3.455-5.611,5.105c-0.197-0.418-0.506-0.77-1.012-1.166c2.091-1.167,3.608-2.354,4.995-3.939h-2.267
		c-0.99,0-1.672,0.044-2.442,0.132v-1.474c0.572,0.11,1.166,0.132,2.442,0.132h3.234c0.484-0.682,0.88-1.32,1.276-2.068h-3.036
		c-1.255,0-1.717,0.022-2.223,0.088v-1.342c0.528,0.066,0.924,0.088,2.223,0.088h3.586c0.264-0.616,0.44-1.1,0.66-1.849h-4.95
		c-1.034,0-1.673,0.022-2.311,0.11v-1.43c0.572,0.088,1.298,0.132,2.398,0.132h5.192c0.176-0.814,0.22-1.21,0.242-1.98l1.563,0.132
		c-0.044,0.154-0.044,0.198-0.11,0.462c-0.11,0.484-0.11,0.484-0.176,0.814c-0.044,0.264-0.044,0.264-0.11,0.572H248.256z
		 M242.293,21.169h4.95c1.32,0,1.805-0.022,2.377-0.088v1.364c-0.595-0.066-1.078-0.088-2.377-0.088h-4.95v1.43
		c0,0.814,0.044,1.541,0.153,2.223h-1.672c0.11-0.748,0.154-1.43,0.154-2.223v-1.43h-4.973c-1.211,0-1.717,0.022-2.289,0.088V21.06
		c0.507,0.088,1.101,0.11,2.289,0.11h4.973v-2.024h-2.333c-0.88,0-1.342,0.022-1.914,0.11v-1.364c0.55,0.088,1.013,0.11,1.914,0.11
		h2.333v-0.176c0-0.836-0.044-1.386-0.132-1.892h1.605c-0.088,0.528-0.109,1.012-0.109,1.892v0.176h2.684
		c0.902,0,1.343-0.022,1.893-0.11v1.364c-0.572-0.088-1.034-0.11-1.893-0.11h-2.684V21.169z M240.334,12.06
		c-0.396,0.814-0.704,1.342-1.166,2.068h4.885c-0.484-0.77-0.682-1.1-1.122-2.068H240.334z"/>
	<path d="M257.229,18.353c0-0.946,0.022-1.584,0.066-2.641c-0.792,1.012-1.431,1.628-2.509,2.464
		c-0.264-0.55-0.506-0.902-0.858-1.254c1.717-1.166,3.125-2.552,4.445-4.334c0.506-0.682,0.836-1.298,1.056-1.893l1.364,0.77
		c-0.264,0.33-0.33,0.44-0.66,0.946c-0.462,0.748-0.857,1.254-1.474,1.98v8.889c0,1.188,0.044,2.068,0.153,2.685h-1.738
		c0.11-0.616,0.154-1.519,0.154-2.685V18.353z M260.266,6.889c-0.153,0.154-0.197,0.22-0.396,0.484
		c-1.32,1.804-2.904,3.344-4.885,4.774c-0.33-0.484-0.572-0.748-0.99-1.078c1.232-0.792,2.024-1.43,2.904-2.332
		c1.101-1.101,1.65-1.871,2.002-2.685L260.266,6.889z M263.456,14.194c-1.034,0-1.914,0.044-2.442,0.132v-1.541
		c0.528,0.088,1.387,0.132,2.442,0.132h7.724c1.122,0,1.914-0.044,2.42-0.132v1.541c-0.571-0.088-1.386-0.132-2.398-0.132h-1.254
		v9.637c0,1.408-0.528,1.783-2.464,1.783c-0.704,0-1.738-0.044-2.685-0.11c-0.066-0.616-0.154-1.012-0.353-1.518
		c1.255,0.176,2.2,0.264,3.103,0.264c0.748,0,0.925-0.088,0.925-0.528v-9.527H263.456z M261.916,7.263
		c0.595,0.088,1.299,0.132,2.289,0.132h6.16c0.99,0,1.65-0.044,2.267-0.132v1.541c-0.66-0.088-1.386-0.132-2.267-0.132h-6.16
		c-0.881,0-1.629,0.044-2.289,0.132V7.263z"/>
</g>
<polyline fill="none" stroke="#231815" stroke-miterlimit="10" points="52,38.927 69.25,38.927 69.25,16.25 84.375,16.25 "/>
<polyline fill="none" stroke="#231815" stroke-miterlimit="10" points="84.375,61.605 69.25,61.605 69.25,38.928 "/>
</svg>
