<?xml version="1.0" encoding="utf-8"?>
<!-- Generator: Adobe Illustrator 16.0.0, SVG Export Plug-In . SVG Version: 6.00 Build 0)  -->
<!DOCTYPE svg PUBLIC "-//W3C//DTD SVG 1.1//EN" "http://www.w3.org/Graphics/SVG/1.1/DTD/svg11.dtd">
<svg version="1.1" id="レイヤー_1" xmlns="http://www.w3.org/2000/svg" xmlns:xlink="http://www.w3.org/1999/xlink" x="0px"
	 y="0px" width="47.715px" height="26.033px" viewBox="0 0 47.715 26.033" enable-background="new 0 0 47.715 26.033"
	 xml:space="preserve">
<g>
	<g>
		<linearGradient id="SVGID_1_" gradientUnits="userSpaceOnUse" x1="43.5479" y1="8.3159" x2="36.5679" y2="17.9647">
			<stop  offset="0.4945" style="stop-color:#FFFFFF"/>
			<stop  offset="0.8297" style="stop-color:#898989"/>
			<stop  offset="1" style="stop-color:#595757"/>
		</linearGradient>
		<polygon fill="url(#SVGID_1_)" points="32.504,23.556 47.715,17.599 47.715,13.744 30.77,10.937 		"/>
	</g>
	<g>
		<linearGradient id="SVGID_2_" gradientUnits="userSpaceOnUse" x1="22.4536" y1="31.7544" x2="15.822" y2="21.3132">
			<stop  offset="0.4945" style="stop-color:#FBF9F0"/>
			<stop  offset="0.8297" style="stop-color:#898989"/>
			<stop  offset="1" style="stop-color:#3E3A39"/>
		</linearGradient>
		<path fill="url(#SVGID_2_)" d="M20.172,15.444c-0.641-0.964-2.85-3.964-2.85-3.964l-7.491,5.869l-0.004,0.004v-0.005l-7.606-3.333
			c-0.147,0.186-0.272,0.41-0.341,0.674c-0.261,0.998-1.653,5.7-1.653,5.7s-0.331,0.856,0.646,1.323
			c0.978,0.465,8.534,4.125,8.534,4.125s0.34,0.254,0.907,0.183c0.299-0.036,0.665-0.165,1.075-0.47
			c1.188-0.879,20.246-3.685,20.246-3.685S20.813,16.41,20.172,15.444z"/>
	</g>
	<g>
		<g>
			<linearGradient id="SVGID_3_" gradientUnits="userSpaceOnUse" x1="31.5742" y1="1.8062" x2="26.176" y2="11.3636">
				<stop  offset="0.4945" style="stop-color:#FFFFFF"/>
				<stop  offset="0.8297" style="stop-color:#898989"/>
				<stop  offset="1" style="stop-color:#595757"/>
			</linearGradient>
			<path fill="url(#SVGID_3_)" d="M39.23,11.39c-0.105-0.252-0.262-0.457-0.434-0.619l-7.051,4.387v0.004L31.74,15.16L11.553,3.769
				c-0.294,0.266-0.471,0.505-0.471,0.505s-1.72,3.328-2.218,4.374c-0.496,1.047,0.302,1.436,0.302,1.436S30.072,22.798,31.373,23.5
				c0.449,0.242,0.83,0.318,1.131,0.311c0.572-0.012,0.873-0.311,0.873-0.311s6.955-4.703,7.855-5.305
				c0.9-0.601,0.449-1.4,0.449-1.4S39.631,12.339,39.23,11.39z"/>
			<g>
				<linearGradient id="SVGID_4_" gradientUnits="userSpaceOnUse" x1="33.5791" y1="12.2393" x2="39.5409" y2="25.5012">
					<stop  offset="0" style="stop-color:#FFF7F6"/>
					<stop  offset="0.4835" style="stop-color:#A8A8A8"/>
					<stop  offset="1" style="stop-color:#FFFFFF"/>
				</linearGradient>
				<path fill="url(#SVGID_4_)" d="M39.23,11.146c-0.105-0.252-0.262-0.457-0.434-0.618l-7.051,4.387v0.005l0.758,8.646
					c0.572-0.01,0.873-0.311,0.873-0.311s6.955-4.703,7.855-5.303c0.9-0.602,0.449-1.402,0.449-1.402S39.631,12.095,39.23,11.146z"
					/>
			</g>
			<linearGradient id="SVGID_5_" gradientUnits="userSpaceOnUse" x1="38.7969" y1="7.459" x2="11.5537" y2="7.459">
				<stop  offset="0" style="stop-color:#FFF7F6"/>
				<stop  offset="0.4835" style="stop-color:#A8A8A8"/>
				<stop  offset="1" style="stop-color:#DCDDDD"/>
			</linearGradient>
			<path fill="url(#SVGID_5_)" d="M19.387,0.289c-0.76-0.395-1.127-0.333-1.613-0.121c-0.484,0.213-4.715,2.494-5.443,2.828
				c-0.304,0.139-0.569,0.341-0.777,0.53L31.74,14.917l0.006-0.003l7.051-4.387c-0.479-0.45-1.078-0.586-1.078-0.586L19.387,0.289z"
				/>
			<linearGradient id="SVGID_6_" gradientUnits="userSpaceOnUse" x1="22.7656" y1="11.9766" x2="18.8721" y2="19.2769">
				<stop  offset="0.2315" style="stop-color:#CAC7C6"/>
				<stop  offset="0.294" style="stop-color:#BDBBBB"/>
				<stop  offset="0.4001" style="stop-color:#AEADAD"/>
				<stop  offset="0.4835" style="stop-color:#A8A8A8"/>
				<stop  offset="1" style="stop-color:#FFFFFF"/>
			</linearGradient>
			<path fill="url(#SVGID_6_)" d="M31.74,14.917L11.553,3.526c-0.294,0.265-0.471,0.505-0.471,0.505s-1.72,3.328-2.218,4.373
				C8.369,9.451,9.167,9.839,9.167,9.839s20.906,12.717,22.207,13.416c0.449,0.243,0.83,0.318,1.131,0.311l-0.758-8.646
				L31.74,14.917z"/>
			<linearGradient id="SVGID_7_" gradientUnits="userSpaceOnUse" x1="11.5903" y1="9.1919" x2="31.8066" y2="9.1919">
				<stop  offset="0" style="stop-color:#898989"/>
				<stop  offset="0.7527" style="stop-color:#EFEFEF"/>
				<stop  offset="1" style="stop-color:#898989"/>
			</linearGradient>
			<path fill="url(#SVGID_7_)" d="M31.203,13.931L13.304,3.953c-0.545-0.305-1.078-0.471-1.432-0.471
				c-0.115,0-0.211,0.018-0.282,0.054l20.128,11.366c-0.068-0.195-0.033-0.41,0.088-0.572
				C31.631,14.193,31.428,14.056,31.203,13.931z"/>
			<linearGradient id="SVGID_8_" gradientUnits="userSpaceOnUse" x1="11.4521" y1="9.436" x2="31.7559" y2="9.436">
				<stop  offset="0" style="stop-color:#898989"/>
				<stop  offset="0.4835" style="stop-color:#B5B5B6"/>
			</linearGradient>
			<path fill="url(#SVGID_8_)" d="M31.719,14.902L11.59,3.536c-0.049,0.024-0.086,0.058-0.109,0.101
				c-0.164,0.295,0.385,0.916,1.228,1.385L30.607,15c0.258,0.145,0.516,0.258,0.75,0.337c0.082-0.151,0.225-0.267,0.398-0.308
				l-0.006-0.054C31.738,14.951,31.727,14.927,31.719,14.902z"/>
			<path fill="#FDC942" d="M32.42,15.328c0.002-0.004,0.004-0.008,0.006-0.012c0.004-0.007,0.008-0.015,0.012-0.021
				c-0.012,0.002-0.021,0.004-0.033,0.006C32.41,15.31,32.414,15.318,32.42,15.328z"/>
			<path fill="#F1E1BB" d="M38.668,10.416c0.043,0.035,0.086,0.072,0.129,0.112c0.018,0.017,0.033,0.033,0.051,0.051
				C38.799,10.511,38.736,10.456,38.668,10.416z"/>
			<g>
				<linearGradient id="SVGID_9_" gradientUnits="userSpaceOnUse" x1="32.1602" y1="12.9111" x2="38.9688" y2="12.9111">
					<stop  offset="0" style="stop-color:#898989"/>
					<stop  offset="0.4835" style="stop-color:#B5B5B6"/>
				</linearGradient>
				<path fill="url(#SVGID_9_)" d="M38.848,10.579c-0.018-0.018-0.033-0.034-0.051-0.051l-6.637,4.13
					c0.232,0.25,0.342,0.482,0.277,0.637c0.061-0.016,0.119-0.039,0.176-0.074l6.068-3.763c0.283-0.178,0.373-0.552,0.195-0.838
					C38.867,10.605,38.857,10.591,38.848,10.579z"/>
			</g>
			<linearGradient id="SVGID_10_" gradientUnits="userSpaceOnUse" x1="31.8066" y1="12.4946" x2="38.7969" y2="12.4946">
				<stop  offset="0" style="stop-color:#898989"/>
				<stop  offset="0.4835" style="stop-color:#B5B5B6"/>
			</linearGradient>
			<path fill="url(#SVGID_10_)" d="M38.359,10.332c-0.109,0-0.221,0.03-0.32,0.092l-6.066,3.762
				c-0.066,0.041-0.123,0.093-0.166,0.151c0.137,0.106,0.256,0.216,0.354,0.321l6.637-4.13c-0.043-0.04-0.086-0.077-0.129-0.112
				C38.574,10.361,38.467,10.332,38.359,10.332z"/>
			<polygon fill="#E9CD87" points="31.746,14.919 31.746,14.915 31.74,14.917 			"/>
			<g>
				<linearGradient id="SVGID_11_" gradientUnits="userSpaceOnUse" x1="32.415" y1="17.647" x2="32.5772" y2="25.2722">
					<stop  offset="0" style="stop-color:#898989"/>
					<stop  offset="0.4835" style="stop-color:#B5B5B6"/>
				</linearGradient>
				<path fill="url(#SVGID_11_)" d="M32.5,15.589c-0.008-0.096-0.037-0.184-0.08-0.262c-0.061,0.096-0.197,0.142-0.383,0.142
					c-0.074,0-0.156-0.007-0.246-0.022l0.713,8.109c0.014,0,0.029,0,0.043-0.002c0.336-0.027,0.582-0.327,0.555-0.671L32.5,15.589z"
					/>
			</g>
			<linearGradient id="SVGID_12_" gradientUnits="userSpaceOnUse" x1="31.8535" y1="17.6587" x2="32.0157" y2="25.2836">
				<stop  offset="0" style="stop-color:#898989"/>
				<stop  offset="0.4835" style="stop-color:#B5B5B6"/>
			</linearGradient>
			<path fill="url(#SVGID_12_)" d="M31.359,15.336c-0.055,0.104-0.082,0.226-0.072,0.354l0.602,7.293
				c0.027,0.326,0.293,0.573,0.607,0.573c0.002,0,0.006,0,0.008,0l-0.713-8.109C31.66,15.425,31.514,15.388,31.359,15.336z"/>
			<path fill="#DDAC2B" d="M31.807,14.336c-0.121,0.161-0.156,0.375-0.088,0.567c0.01,0.025,0.02,0.05,0.031,0.074l0.006,0.053
				c-0.172,0.041-0.314,0.154-0.396,0.306c0.154,0.052,0.301,0.089,0.432,0.11c0.09,0.016,0.172,0.022,0.246,0.022
				c0.186,0,0.332-0.058,0.383-0.142c0.043-0.072,0.029-0.068,0.031-0.088c0.025-0.152-0.086-0.359-0.291-0.582
				C32.063,14.552,31.943,14.443,31.807,14.336z"/>
		</g>
		<g>
			<path fill="#939393" d="M31.328,15.048c-0.166,0.289-0.031,0.525,0.305,0.525h0.473c0.334,0,0.471-0.236,0.305-0.525l-0.238-0.41
				c-0.166-0.289-0.439-0.29-0.607,0L31.328,15.048z"/>
		</g>
	</g>
	<g>
		<path fill="#939393" d="M31.426,7.552l-5.157,4.285l1.331,0.734c0,0,2.84-2.264,3.867-3.291
			C32.496,8.251,31.426,7.552,31.426,7.552z"/>
	</g>
	<g>
		<polygon fill="#939393" points="20.563,16.755 22.522,17.955 27.217,13.111 25.743,12.29 		"/>
		<polygon fill="#939393" points="25.743,12.29 27.217,13.111 27.6,12.572 26.269,11.837 		"/>
	</g>
	<g>
		<g>
			<linearGradient id="SVGID_13_" gradientUnits="userSpaceOnUse" x1="2.083" y1="12.7222" x2="11.0978" y2="32.7756">
				<stop  offset="0" style="stop-color:#FFF7F6"/>
				<stop  offset="0.4835" style="stop-color:#A8A8A8"/>
				<stop  offset="1" style="stop-color:#FFFFFF"/>
			</linearGradient>
			<path fill="url(#SVGID_13_)" d="M9.654,17.029l-7.605-3.333c-0.147,0.185-0.272,0.41-0.341,0.675
				c-0.261,0.996-1.653,5.699-1.653,5.699s-0.331,0.856,0.646,1.322c0.978,0.465,8.534,4.125,8.534,4.125s0.34,0.254,0.907,0.184
				l-0.486-8.668L9.654,17.029z"/>
		</g>
		<linearGradient id="SVGID_14_" gradientUnits="userSpaceOnUse" x1="2.0483" y1="8.6909" x2="28.0098" y2="8.6909">
			<stop  offset="0" style="stop-color:#FFF7F6"/>
			<stop  offset="0.4835" style="stop-color:#A8A8A8"/>
			<stop  offset="1" style="stop-color:#FFFFFF"/>
		</linearGradient>
		<path fill="url(#SVGID_14_)" d="M21.372,0.435c-0.512-0.141-0.883-0.15-1.578,0.35L3.031,12.962c0,0-0.574,0.22-0.982,0.733
			l7.605,3.333l0.005,0.001L28.01,2.869c-0.232-0.158-0.525-0.32-0.846-0.414C26.396,2.228,21.883,0.576,21.372,0.435z"/>
		<linearGradient id="SVGID_15_" gradientUnits="userSpaceOnUse" x1="22.7153" y1="8.7739" x2="8.9589" y2="34.5672">
			<stop  offset="0" style="stop-color:#FFF7F6"/>
			<stop  offset="0.4835" style="stop-color:#A8A8A8"/>
			<stop  offset="1" style="stop-color:#FFFFFF"/>
		</linearGradient>
		<path fill="url(#SVGID_15_)" d="M28.547,3.3c0,0-0.209-0.212-0.537-0.432L9.659,17.03l-0.004,0.003l0.486,8.668
			c0.299-0.036,0.665-0.166,1.075-0.471c1.188-0.879,20.059-16.454,20.059-16.454s0.732-0.499,0.092-1.464
			C30.727,6.348,28.547,3.3,28.547,3.3z"/>
		<linearGradient id="SVGID_16_" gradientUnits="userSpaceOnUse" x1="12.3271" y1="13.5171" x2="29.8912" y2="3.3765">
			<stop  offset="0" style="stop-color:#898989"/>
			<stop  offset="0.7527" style="stop-color:#EFEFEF"/>
			<stop  offset="1" style="stop-color:#898989"/>
		</linearGradient>
		<path fill="url(#SVGID_16_)" d="M27.682,2.841c-0.35,0.051-0.854,0.293-1.349,0.672L10.05,15.974
			c-0.204,0.156-0.387,0.32-0.54,0.482c0.143,0.144,0.209,0.352,0.169,0.555l18.29-14.156C27.893,2.829,27.795,2.826,27.682,2.841z"
			/>
		<linearGradient id="SVGID_17_" gradientUnits="userSpaceOnUse" x1="12.5186" y1="16.6392" x2="23.1159" y2="6.0418">
			<stop  offset="0" style="stop-color:#898989"/>
			<stop  offset="0.4835" style="stop-color:#B5B5B6"/>
		</linearGradient>
		<path fill="url(#SVGID_17_)" d="M27.969,2.855L9.679,17.011c-0.005,0.025-0.013,0.052-0.021,0.078l0.004,0.054
			c0.176,0.016,0.333,0.108,0.437,0.248c0.222-0.112,0.459-0.261,0.694-0.441L27.074,4.488c0.768-0.586,1.221-1.279,1.018-1.549
			C28.061,2.9,28.02,2.873,27.969,2.855z"/>
		<path fill="#FDC942" d="M9.039,17.524c0.002,0.003,0.005,0.007,0.008,0.011c0.004-0.011,0.008-0.02,0.012-0.029
			c-0.012,0-0.022-0.001-0.034-0.002C9.028,17.51,9.033,17.517,9.039,17.524z"/>
		<path fill="#F1E1BB" d="M2.004,13.753c0.015-0.02,0.029-0.039,0.044-0.058c0.036-0.046,0.073-0.089,0.112-0.13
			C2.097,13.617,2.044,13.679,2.004,13.753z"/>
		<g>
			<linearGradient id="SVGID_18_" gradientUnits="userSpaceOnUse" x1="9.2075" y1="15.5991" x2="1.9312" y2="15.5991">
				<stop  offset="0" style="stop-color:#898989"/>
				<stop  offset="0.4835" style="stop-color:#B5B5B6"/>
			</linearGradient>
			<path fill="url(#SVGID_18_)" d="M2.048,13.696c-0.015,0.019-0.029,0.038-0.044,0.058c-0.008,0.015-0.016,0.029-0.021,0.045
				c-0.136,0.309,0.006,0.666,0.313,0.801l6.543,2.855c0.06,0.027,0.122,0.043,0.185,0.049c-0.086-0.145-0.01-0.389,0.184-0.67
				L2.048,13.696z"/>
		</g>
		<linearGradient id="SVGID_19_" gradientUnits="userSpaceOnUse" x1="9.5103" y1="15.1333" x2="2.0483" y2="15.1333">
			<stop  offset="0" style="stop-color:#898989"/>
			<stop  offset="0.4835" style="stop-color:#B5B5B6"/>
		</linearGradient>
		<path fill="url(#SVGID_19_)" d="M2.784,13.484c-0.108-0.047-0.223-0.061-0.331-0.045c-0.106,0.016-0.207,0.06-0.292,0.127
			c-0.039,0.041-0.076,0.084-0.112,0.13l7.159,3.138c0.082-0.119,0.184-0.242,0.303-0.368c-0.051-0.052-0.114-0.095-0.185-0.126
			L2.784,13.484z"/>
		<polygon fill="#E9CD87" points="9.655,17.033 9.659,17.03 9.654,17.029 		"/>
		<g>
			<linearGradient id="SVGID_20_" gradientUnits="userSpaceOnUse" x1="9.5313" y1="19.8286" x2="9.6925" y2="27.4086">
				<stop  offset="0" style="stop-color:#898989"/>
				<stop  offset="0.4835" style="stop-color:#B5B5B6"/>
			</linearGradient>
			<path fill="url(#SVGID_20_)" d="M9.444,17.62c-0.184,0.026-0.323,0.001-0.397-0.085c-0.033,0.082-0.048,0.174-0.042,0.27
				l0.447,7.305c0.022,0.345,0.311,0.605,0.646,0.586c0.015-0.002,0.029-0.002,0.043-0.004l-0.455-8.129
				C9.599,17.589,9.518,17.609,9.444,17.62z"/>
		</g>
		<linearGradient id="SVGID_21_" gradientUnits="userSpaceOnUse" x1="10.1431" y1="19.7378" x2="10.3064" y2="27.4151">
			<stop  offset="0" style="stop-color:#898989"/>
			<stop  offset="0.4835" style="stop-color:#B5B5B6"/>
		</linearGradient>
		<path fill="url(#SVGID_21_)" d="M10.218,17.73c-0.008-0.127-0.052-0.244-0.123-0.339c-0.145,0.073-0.283,0.132-0.41,0.171
			l0.455,8.129c0.003-0.001,0.006-0.002,0.008-0.002c0.311-0.045,0.539-0.328,0.519-0.654L10.218,17.73z"/>
		<path fill="#939393" d="M9.662,17.146l-0.004-0.055c0.009-0.025,0.017-0.051,0.021-0.076c0.04-0.201-0.025-0.408-0.169-0.55
			c-0.119,0.126-0.221,0.249-0.303,0.368C9.036,17.083,8.957,17.304,9,17.452c0.006,0.019-0.008,0.017,0.046,0.083
			c0.062,0.076,0.214,0.111,0.397,0.085c0.074-0.011,0.155-0.03,0.241-0.058c0.127-0.039,0.266-0.098,0.41-0.171
			C9.994,17.253,9.837,17.161,9.662,17.146z"/>
	</g>
	<g>
		<path fill="#939393" d="M9.016,17.256c-0.124,0.31,0.046,0.524,0.376,0.477l0.469-0.067c0.331-0.048,0.433-0.303,0.226-0.564
			l-0.293-0.373c-0.207-0.262-0.478-0.223-0.602,0.088L9.016,17.256z"/>
	</g>
	<g>
		<polygon fill="#FFFFFF" points="32.658,19.621 32.785,18.906 32.412,19.509 31.629,18.283 32.172,19.633 29.738,19.333 
			32.119,19.898 31.098,20.935 32.293,20.105 32.48,22.503 32.563,20.097 33.273,20.369 32.725,19.881 34.096,19.39 		"/>
	</g>
	<g>
		<polygon fill="#FFFFFF" points="5.902,14.203 4.89,14.228 5.738,12.337 4.556,14.04 3.01,10.906 4.2,14.183 2.167,13.779 
			4.09,14.552 1.38,16.651 4.309,14.867 4.541,15.927 4.693,14.892 6.348,16.139 4.951,14.608 		"/>
	</g>
</g>
</svg>
