<?xml version="1.0" encoding="utf-8"?>
<!-- Generator: Adobe Illustrator 16.0.0, SVG Export Plug-In . SVG Version: 6.00 Build 0)  -->
<!DOCTYPE svg PUBLIC "-//W3C//DTD SVG 1.1//EN" "http://www.w3.org/Graphics/SVG/1.1/DTD/svg11.dtd">
<svg version="1.1" id="レイヤー_1" xmlns="http://www.w3.org/2000/svg" xmlns:xlink="http://www.w3.org/1999/xlink" x="0px"
	 y="0px" width="589.533px" height="296.583px" viewBox="0 0 589.533 296.583" enable-background="new 0 0 589.533 296.583"
	 xml:space="preserve">
<g>
	
		<linearGradient id="SVGID_1_" gradientUnits="userSpaceOnUse" x1="398.3813" y1="94.2119" x2="398.3813" y2="93.5986" gradientTransform="matrix(-1 -0.0075 -0.0075 1 897.3915 3.28)">
		<stop  offset="0" style="stop-color:#8C8C8C"/>
		<stop  offset="0.0761" style="stop-color:#FFFFFF"/>
		<stop  offset="0.1271" style="stop-color:#ECECEF"/>
		<stop  offset="0.1971" style="stop-color:#D8D8DF"/>
		<stop  offset="0.2446" style="stop-color:#D1D1D9"/>
		<stop  offset="0.5949" style="stop-color:#CFCFD7"/>
		<stop  offset="0.7211" style="stop-color:#C9C9D0"/>
		<stop  offset="0.8111" style="stop-color:#BFBFC5"/>
		<stop  offset="0.8838" style="stop-color:#AFAFB4"/>
		<stop  offset="0.9453" style="stop-color:#9C9C9E"/>
		<stop  offset="0.9837" style="stop-color:#8C8C8C"/>
	</linearGradient>
	<path fill="url(#SVGID_1_)" d="M496.042,94.334c-0.001,0.085,0.067,0.154,0.152,0.154l4.216,0.032
		c0.085,0.001,0.154-0.067,0.155-0.152l0.002-0.307c0.001-0.085-0.067-0.154-0.152-0.154l-4.217-0.032
		c-0.084-0.001-0.153,0.067-0.154,0.152L496.042,94.334z"/>
	
		<linearGradient id="SVGID_2_" gradientUnits="userSpaceOnUse" x1="365.9663" y1="109.2393" x2="366.8872" y2="109.2393" gradientTransform="matrix(-1 -0.0075 -0.0075 1 897.3915 3.28)">
		<stop  offset="0" style="stop-color:#8C8C8C"/>
		<stop  offset="0.0761" style="stop-color:#FFFFFF"/>
		<stop  offset="0.1271" style="stop-color:#ECECEF"/>
		<stop  offset="0.1971" style="stop-color:#D8D8DF"/>
		<stop  offset="0.2446" style="stop-color:#D1D1D9"/>
		<stop  offset="0.5949" style="stop-color:#CFCFD7"/>
		<stop  offset="0.7211" style="stop-color:#C9C9D0"/>
		<stop  offset="0.8111" style="stop-color:#BFBFC5"/>
		<stop  offset="0.8838" style="stop-color:#AFAFB4"/>
		<stop  offset="0.9453" style="stop-color:#9C9C9E"/>
		<stop  offset="0.9837" style="stop-color:#8C8C8C"/>
	</linearGradient>
	<path fill="url(#SVGID_2_)" d="M529.638,116.105c0,0.085,0.067,0.154,0.152,0.154l0.613,0.005c0.084,0.001,0.153-0.067,0.154-0.152
		l0.096-12.675c0-0.084-0.067-0.153-0.152-0.154l-0.613-0.005c-0.085,0-0.154,0.067-0.154,0.152L529.638,116.105z"/>
	
		<linearGradient id="SVGID_3_" gradientUnits="userSpaceOnUse" x1="377.8228" y1="108.7275" x2="378.7437" y2="108.7275" gradientTransform="matrix(-1 -0.0075 -0.0075 1 897.3915 3.28)">
		<stop  offset="0" style="stop-color:#8C8C8C"/>
		<stop  offset="0.0761" style="stop-color:#FFFFFF"/>
		<stop  offset="0.1271" style="stop-color:#ECECEF"/>
		<stop  offset="0.1971" style="stop-color:#D8D8DF"/>
		<stop  offset="0.2446" style="stop-color:#D1D1D9"/>
		<stop  offset="0.5949" style="stop-color:#CFCFD7"/>
		<stop  offset="0.7211" style="stop-color:#C9C9D0"/>
		<stop  offset="0.8111" style="stop-color:#BFBFC5"/>
		<stop  offset="0.8838" style="stop-color:#AFAFB4"/>
		<stop  offset="0.9453" style="stop-color:#9C9C9E"/>
		<stop  offset="0.9837" style="stop-color:#8C8C8C"/>
	</linearGradient>
	<path fill="url(#SVGID_3_)" d="M517.785,115.505c0,0.084,0.067,0.154,0.152,0.154l0.613,0.004c0.085,0,0.154-0.067,0.154-0.152
		l0.096-12.674c0.001-0.085-0.067-0.154-0.152-0.155l-0.613-0.005c-0.085,0-0.154,0.068-0.154,0.153L517.785,115.505z"/>
	
		<linearGradient id="SVGID_4_" gradientUnits="userSpaceOnUse" x1="397.9604" y1="100.3447" x2="398.8804" y2="100.3447" gradientTransform="matrix(-1 -0.0075 -0.0075 1 897.3915 3.28)">
		<stop  offset="0" style="stop-color:#8C8C8C"/>
		<stop  offset="0.0761" style="stop-color:#FFFFFF"/>
		<stop  offset="0.1271" style="stop-color:#ECECEF"/>
		<stop  offset="0.1971" style="stop-color:#D8D8DF"/>
		<stop  offset="0.2446" style="stop-color:#D1D1D9"/>
		<stop  offset="0.5949" style="stop-color:#CFCFD7"/>
		<stop  offset="0.7211" style="stop-color:#C9C9D0"/>
		<stop  offset="0.8111" style="stop-color:#BFBFC5"/>
		<stop  offset="0.8838" style="stop-color:#AFAFB4"/>
		<stop  offset="0.9453" style="stop-color:#9C9C9E"/>
		<stop  offset="0.9837" style="stop-color:#8C8C8C"/>
	</linearGradient>
	<path fill="url(#SVGID_4_)" d="M497.711,106.971c-0.001,0.085,0.067,0.154,0.151,0.154l0.613,0.005
		c0.085,0,0.154-0.067,0.154-0.152l0.096-12.675c0.001-0.085-0.067-0.154-0.152-0.154l-0.613-0.005
		c-0.085,0-0.153,0.067-0.154,0.152L497.711,106.971z"/>
	<path fill="#B2B2B2" d="M496.158,94.322c0,0.014,0.017,0.026,0.038,0.026l0.153,0.001c0.021,0,0.038-0.012,0.038-0.026l0.017-2.159
		c0-0.014-0.017-0.026-0.038-0.026l-0.153-0.001c-0.021,0-0.039,0.011-0.039,0.025L496.158,94.322z"/>
	<path fill="#B2B2B2" d="M500.259,94.314c0,0.015,0.017,0.027,0.038,0.027l0.153,0.001c0.021,0,0.039-0.011,0.039-0.026l0.016-2.158
		c0-0.015-0.017-0.026-0.038-0.026l-0.153-0.001c-0.021,0-0.038,0.011-0.038,0.025L500.259,94.314z"/>
	<path fill="#B2B2B2" d="M499.071,94.305c0,0.015,0.018,0.026,0.039,0.026l0.152,0.001c0.021,0,0.039-0.011,0.039-0.026l0.017-2.158
		c0-0.015-0.018-0.026-0.038-0.026l-0.153-0.001c-0.021,0-0.039,0.011-0.039,0.026L499.071,94.305z"/>
	<path fill="#B2B2B2" d="M497.615,94.256c0,0.015,0.018,0.026,0.038,0.026l0.153,0.001c0.021,0,0.038-0.011,0.039-0.025l0.016-2.159
		c0-0.014-0.017-0.025-0.038-0.026l-0.153-0.001c-0.021,0-0.038,0.012-0.038,0.026L497.615,94.256z"/>
	
		<linearGradient id="SVGID_5_" gradientUnits="userSpaceOnUse" x1="347.5923" y1="114.9639" x2="347.5923" y2="101.0107" gradientTransform="matrix(-1 -0.0075 -0.0075 1 897.3915 3.28)">
		<stop  offset="0.0109" style="stop-color:#8C8C8C"/>
		<stop  offset="0.0761" style="stop-color:#FFFFFF"/>
		<stop  offset="0.1271" style="stop-color:#ECECEF"/>
		<stop  offset="0.1971" style="stop-color:#D8D8DF"/>
		<stop  offset="0.2446" style="stop-color:#D1D1D9"/>
		<stop  offset="0.5225" style="stop-color:#E1E1E6"/>
		<stop  offset="0.9239" style="stop-color:#F5F5F5"/>
		<stop  offset="0.9837" style="stop-color:#D1D1D9"/>
	</linearGradient>
	<path fill="url(#SVGID_5_)" d="M541.2,114.812c-0.003,0.424,0.337,0.77,0.761,0.772l13.952,0.105
		c0.424,0.003,0.771-0.338,0.773-0.761l0.093-12.419c0.004-0.424-0.338-0.77-0.761-0.773l-13.953-0.105
		c-0.423-0.003-0.769,0.337-0.771,0.761L541.2,114.812z"/>
	<g>
		
			<linearGradient id="SVGID_6_" gradientUnits="userSpaceOnUse" x1="342.1489" y1="104.0767" x2="342.1489" y2="102.7998" gradientTransform="matrix(-1 -0.0075 -0.0075 1 897.3915 3.28)">
			<stop  offset="0.0054" style="stop-color:#8C8C8C"/>
			<stop  offset="0.0318" style="stop-color:#7B7B7B"/>
			<stop  offset="0.0904" style="stop-color:#5C5C5C"/>
			<stop  offset="0.1566" style="stop-color:#404040"/>
			<stop  offset="0.2316" style="stop-color:#2A2A2A"/>
			<stop  offset="0.319" style="stop-color:#191919"/>
			<stop  offset="0.4272" style="stop-color:#0E0E0E"/>
			<stop  offset="0.5789" style="stop-color:#070707"/>
			<stop  offset="1" style="stop-color:#050505"/>
		</linearGradient>
		<path fill="url(#SVGID_6_)" d="M554.002,104.686c0,0.057,0.045,0.102,0.102,0.103l0.716,0.005c0.057,0,0.103-0.045,0.103-0.101
			l0.009-1.074c0-0.056-0.046-0.102-0.103-0.102l-0.716-0.005c-0.057,0-0.102,0.044-0.103,0.101L554.002,104.686z"/>
		
			<linearGradient id="SVGID_7_" gradientUnits="userSpaceOnUse" x1="343.9888" y1="104.0767" x2="343.9888" y2="102.7993" gradientTransform="matrix(-1 -0.0075 -0.0075 1 897.3915 3.28)">
			<stop  offset="0.0054" style="stop-color:#8C8C8C"/>
			<stop  offset="0.0318" style="stop-color:#7B7B7B"/>
			<stop  offset="0.0904" style="stop-color:#5C5C5C"/>
			<stop  offset="0.1566" style="stop-color:#404040"/>
			<stop  offset="0.2316" style="stop-color:#2A2A2A"/>
			<stop  offset="0.319" style="stop-color:#191919"/>
			<stop  offset="0.4272" style="stop-color:#0E0E0E"/>
			<stop  offset="0.5789" style="stop-color:#070707"/>
			<stop  offset="1" style="stop-color:#050505"/>
		</linearGradient>
		<path fill="url(#SVGID_7_)" d="M552.163,104.671c-0.001,0.056,0.045,0.103,0.102,0.103l0.715,0.005
			c0.058,0,0.104-0.045,0.104-0.101l0.009-1.073c0-0.057-0.046-0.103-0.103-0.103l-0.715-0.005c-0.057,0-0.103,0.044-0.104,0.101
			L552.163,104.671z"/>
		
			<linearGradient id="SVGID_8_" gradientUnits="userSpaceOnUse" x1="345.8286" y1="104.0771" x2="345.8286" y2="102.7993" gradientTransform="matrix(-1 -0.0075 -0.0075 1 897.3915 3.28)">
			<stop  offset="0.0054" style="stop-color:#8C8C8C"/>
			<stop  offset="0.0318" style="stop-color:#7B7B7B"/>
			<stop  offset="0.0904" style="stop-color:#5C5C5C"/>
			<stop  offset="0.1566" style="stop-color:#404040"/>
			<stop  offset="0.2316" style="stop-color:#2A2A2A"/>
			<stop  offset="0.319" style="stop-color:#191919"/>
			<stop  offset="0.4272" style="stop-color:#0E0E0E"/>
			<stop  offset="0.5789" style="stop-color:#070707"/>
			<stop  offset="1" style="stop-color:#050505"/>
		</linearGradient>
		<path fill="url(#SVGID_8_)" d="M550.323,104.658c-0.001,0.057,0.045,0.103,0.102,0.103l0.716,0.005
			c0.057,0,0.103-0.045,0.103-0.102l0.008-1.074c0.001-0.056-0.045-0.102-0.102-0.102l-0.715-0.005
			c-0.057,0-0.103,0.044-0.104,0.101L550.323,104.658z"/>
		
			<linearGradient id="SVGID_9_" gradientUnits="userSpaceOnUse" x1="347.6685" y1="104.0767" x2="347.6685" y2="102.7993" gradientTransform="matrix(-1 -0.0075 -0.0075 1 897.3915 3.28)">
			<stop  offset="0.0054" style="stop-color:#8C8C8C"/>
			<stop  offset="0.0318" style="stop-color:#7B7B7B"/>
			<stop  offset="0.0904" style="stop-color:#5C5C5C"/>
			<stop  offset="0.1566" style="stop-color:#404040"/>
			<stop  offset="0.2316" style="stop-color:#2A2A2A"/>
			<stop  offset="0.319" style="stop-color:#191919"/>
			<stop  offset="0.4272" style="stop-color:#0E0E0E"/>
			<stop  offset="0.5789" style="stop-color:#070707"/>
			<stop  offset="1" style="stop-color:#050505"/>
		</linearGradient>
		<path fill="url(#SVGID_9_)" d="M548.482,104.644c0,0.057,0.046,0.103,0.102,0.103l0.716,0.005c0.057,0,0.104-0.044,0.104-0.101
			l0.008-1.073c0.001-0.057-0.045-0.102-0.102-0.103l-0.716-0.005c-0.057,0-0.103,0.044-0.103,0.101L548.482,104.644z"/>
		
			<linearGradient id="SVGID_10_" gradientUnits="userSpaceOnUse" x1="349.5083" y1="104.0767" x2="349.5083" y2="102.7993" gradientTransform="matrix(-1 -0.0075 -0.0075 1 897.3915 3.28)">
			<stop  offset="0.0054" style="stop-color:#8C8C8C"/>
			<stop  offset="0.0318" style="stop-color:#7B7B7B"/>
			<stop  offset="0.0904" style="stop-color:#5C5C5C"/>
			<stop  offset="0.1566" style="stop-color:#404040"/>
			<stop  offset="0.2316" style="stop-color:#2A2A2A"/>
			<stop  offset="0.319" style="stop-color:#191919"/>
			<stop  offset="0.4272" style="stop-color:#0E0E0E"/>
			<stop  offset="0.5789" style="stop-color:#070707"/>
			<stop  offset="1" style="stop-color:#050505"/>
		</linearGradient>
		<path fill="url(#SVGID_10_)" d="M546.643,104.63c-0.001,0.057,0.045,0.103,0.101,0.103l0.717,0.005
			c0.056,0,0.102-0.045,0.103-0.101l0.008-1.074c0-0.056-0.045-0.102-0.102-0.103l-0.716-0.005c-0.057,0-0.103,0.044-0.103,0.101
			L546.643,104.63z"/>
		
			<linearGradient id="SVGID_11_" gradientUnits="userSpaceOnUse" x1="351.3491" y1="104.0767" x2="351.3491" y2="102.7993" gradientTransform="matrix(-1 -0.0075 -0.0075 1 897.3915 3.28)">
			<stop  offset="0.0054" style="stop-color:#8C8C8C"/>
			<stop  offset="0.0318" style="stop-color:#7B7B7B"/>
			<stop  offset="0.0904" style="stop-color:#5C5C5C"/>
			<stop  offset="0.1566" style="stop-color:#404040"/>
			<stop  offset="0.2316" style="stop-color:#2A2A2A"/>
			<stop  offset="0.319" style="stop-color:#191919"/>
			<stop  offset="0.4272" style="stop-color:#0E0E0E"/>
			<stop  offset="0.5789" style="stop-color:#070707"/>
			<stop  offset="1" style="stop-color:#050505"/>
		</linearGradient>
		<path fill="url(#SVGID_11_)" d="M544.803,104.616c-0.001,0.056,0.044,0.103,0.101,0.103l0.716,0.005
			c0.057,0,0.103-0.045,0.103-0.102l0.009-1.074c0-0.056-0.045-0.102-0.102-0.102l-0.716-0.006c-0.057,0-0.103,0.044-0.103,0.101
			L544.803,104.616z"/>
		
			<linearGradient id="SVGID_12_" gradientUnits="userSpaceOnUse" x1="353.189" y1="104.0771" x2="353.189" y2="102.7993" gradientTransform="matrix(-1 -0.0075 -0.0075 1 897.3915 3.28)">
			<stop  offset="0.0054" style="stop-color:#8C8C8C"/>
			<stop  offset="0.0318" style="stop-color:#7B7B7B"/>
			<stop  offset="0.0904" style="stop-color:#5C5C5C"/>
			<stop  offset="0.1566" style="stop-color:#404040"/>
			<stop  offset="0.2316" style="stop-color:#2A2A2A"/>
			<stop  offset="0.319" style="stop-color:#191919"/>
			<stop  offset="0.4272" style="stop-color:#0E0E0E"/>
			<stop  offset="0.5789" style="stop-color:#070707"/>
			<stop  offset="1" style="stop-color:#050505"/>
		</linearGradient>
		<path fill="url(#SVGID_12_)" d="M542.963,104.603c-0.001,0.057,0.044,0.102,0.101,0.103l0.716,0.006
			c0.057,0,0.103-0.045,0.104-0.102l0.008-1.073c0-0.057-0.045-0.103-0.102-0.103l-0.716-0.005c-0.057,0-0.103,0.044-0.103,0.101
			L542.963,104.603z"/>
	</g>
	<g>
		
			<linearGradient id="SVGID_13_" gradientUnits="userSpaceOnUse" x1="342.1489" y1="106.1475" x2="342.1489" y2="104.8691" gradientTransform="matrix(-1 -0.0075 -0.0075 1 897.3915 3.28)">
			<stop  offset="0.0054" style="stop-color:#8C8C8C"/>
			<stop  offset="0.0318" style="stop-color:#7B7B7B"/>
			<stop  offset="0.0904" style="stop-color:#5C5C5C"/>
			<stop  offset="0.1566" style="stop-color:#404040"/>
			<stop  offset="0.2316" style="stop-color:#2A2A2A"/>
			<stop  offset="0.319" style="stop-color:#191919"/>
			<stop  offset="0.4272" style="stop-color:#0E0E0E"/>
			<stop  offset="0.5789" style="stop-color:#070707"/>
			<stop  offset="1" style="stop-color:#050505"/>
		</linearGradient>
		<path fill="url(#SVGID_13_)" d="M553.987,106.755c0,0.057,0.045,0.104,0.102,0.104l0.716,0.005c0.057,0,0.103-0.045,0.103-0.102
			l0.009-1.073c0-0.057-0.046-0.103-0.103-0.103l-0.716-0.005c-0.056,0-0.102,0.045-0.103,0.102L553.987,106.755z"/>
		
			<linearGradient id="SVGID_14_" gradientUnits="userSpaceOnUse" x1="343.9888" y1="106.147" x2="343.9888" y2="104.8691" gradientTransform="matrix(-1 -0.0075 -0.0075 1 897.3915 3.28)">
			<stop  offset="0.0054" style="stop-color:#8C8C8C"/>
			<stop  offset="0.0318" style="stop-color:#7B7B7B"/>
			<stop  offset="0.0904" style="stop-color:#5C5C5C"/>
			<stop  offset="0.1566" style="stop-color:#404040"/>
			<stop  offset="0.2316" style="stop-color:#2A2A2A"/>
			<stop  offset="0.319" style="stop-color:#191919"/>
			<stop  offset="0.4272" style="stop-color:#0E0E0E"/>
			<stop  offset="0.5789" style="stop-color:#070707"/>
			<stop  offset="1" style="stop-color:#050505"/>
		</linearGradient>
		<path fill="url(#SVGID_14_)" d="M552.147,106.742c-0.001,0.057,0.045,0.103,0.102,0.103l0.716,0.006
			c0.057,0,0.103-0.045,0.103-0.102l0.008-1.073c0.001-0.057-0.044-0.103-0.101-0.103l-0.716-0.005
			c-0.057,0-0.103,0.045-0.104,0.102L552.147,106.742z"/>
		
			<linearGradient id="SVGID_15_" gradientUnits="userSpaceOnUse" x1="345.8286" y1="106.1475" x2="345.8286" y2="104.8691" gradientTransform="matrix(-1 -0.0075 -0.0075 1 897.3915 3.28)">
			<stop  offset="0.0054" style="stop-color:#8C8C8C"/>
			<stop  offset="0.0318" style="stop-color:#7B7B7B"/>
			<stop  offset="0.0904" style="stop-color:#5C5C5C"/>
			<stop  offset="0.1566" style="stop-color:#404040"/>
			<stop  offset="0.2316" style="stop-color:#2A2A2A"/>
			<stop  offset="0.319" style="stop-color:#191919"/>
			<stop  offset="0.4272" style="stop-color:#0E0E0E"/>
			<stop  offset="0.5789" style="stop-color:#070707"/>
			<stop  offset="1" style="stop-color:#050505"/>
		</linearGradient>
		<path fill="url(#SVGID_15_)" d="M550.307,106.728c-0.001,0.057,0.045,0.103,0.102,0.104l0.716,0.005
			c0.057,0,0.103-0.045,0.103-0.101l0.009-1.074c0-0.057-0.046-0.103-0.103-0.103l-0.715-0.005c-0.057,0-0.103,0.045-0.104,0.102
			L550.307,106.728z"/>
		
			<linearGradient id="SVGID_16_" gradientUnits="userSpaceOnUse" x1="347.6685" y1="106.1475" x2="347.6685" y2="104.8691" gradientTransform="matrix(-1 -0.0075 -0.0075 1 897.3915 3.28)">
			<stop  offset="0.0054" style="stop-color:#8C8C8C"/>
			<stop  offset="0.0318" style="stop-color:#7B7B7B"/>
			<stop  offset="0.0904" style="stop-color:#5C5C5C"/>
			<stop  offset="0.1566" style="stop-color:#404040"/>
			<stop  offset="0.2316" style="stop-color:#2A2A2A"/>
			<stop  offset="0.319" style="stop-color:#191919"/>
			<stop  offset="0.4272" style="stop-color:#0E0E0E"/>
			<stop  offset="0.5789" style="stop-color:#070707"/>
			<stop  offset="1" style="stop-color:#050505"/>
		</linearGradient>
		<path fill="url(#SVGID_16_)" d="M548.467,106.714c-0.001,0.057,0.044,0.103,0.101,0.103l0.717,0.006
			c0.056,0,0.103-0.045,0.103-0.102l0.008-1.073c0.001-0.057-0.045-0.103-0.101-0.103l-0.717-0.005
			c-0.056,0-0.103,0.045-0.103,0.102L548.467,106.714z"/>
		
			<linearGradient id="SVGID_17_" gradientUnits="userSpaceOnUse" x1="349.5083" y1="106.147" x2="349.5083" y2="104.8687" gradientTransform="matrix(-1 -0.0075 -0.0075 1 897.3915 3.28)">
			<stop  offset="0.0054" style="stop-color:#8C8C8C"/>
			<stop  offset="0.0318" style="stop-color:#7B7B7B"/>
			<stop  offset="0.0904" style="stop-color:#5C5C5C"/>
			<stop  offset="0.1566" style="stop-color:#404040"/>
			<stop  offset="0.2316" style="stop-color:#2A2A2A"/>
			<stop  offset="0.319" style="stop-color:#191919"/>
			<stop  offset="0.4272" style="stop-color:#0E0E0E"/>
			<stop  offset="0.5789" style="stop-color:#070707"/>
			<stop  offset="1" style="stop-color:#050505"/>
		</linearGradient>
		<path fill="url(#SVGID_17_)" d="M546.627,106.7c-0.001,0.057,0.045,0.103,0.101,0.104l0.717,0.005
			c0.056,0,0.102-0.045,0.103-0.102l0.008-1.073c0.001-0.057-0.045-0.103-0.102-0.103l-0.716-0.006
			c-0.057,0-0.103,0.045-0.103,0.102L546.627,106.7z"/>
		
			<linearGradient id="SVGID_18_" gradientUnits="userSpaceOnUse" x1="351.3491" y1="106.1475" x2="351.3491" y2="104.8687" gradientTransform="matrix(-1 -0.0075 -0.0075 1 897.3915 3.28)">
			<stop  offset="0.0054" style="stop-color:#8C8C8C"/>
			<stop  offset="0.0318" style="stop-color:#7B7B7B"/>
			<stop  offset="0.0904" style="stop-color:#5C5C5C"/>
			<stop  offset="0.1566" style="stop-color:#404040"/>
			<stop  offset="0.2316" style="stop-color:#2A2A2A"/>
			<stop  offset="0.319" style="stop-color:#191919"/>
			<stop  offset="0.4272" style="stop-color:#0E0E0E"/>
			<stop  offset="0.5789" style="stop-color:#070707"/>
			<stop  offset="1" style="stop-color:#050505"/>
		</linearGradient>
		<path fill="url(#SVGID_18_)" d="M544.788,106.686c-0.001,0.057,0.045,0.103,0.101,0.103l0.716,0.006
			c0.057,0,0.103-0.045,0.103-0.102l0.009-1.073c0-0.057-0.045-0.103-0.102-0.104l-0.716-0.005c-0.057,0-0.103,0.045-0.103,0.102
			L544.788,106.686z"/>
		
			<linearGradient id="SVGID_19_" gradientUnits="userSpaceOnUse" x1="353.1899" y1="106.147" x2="353.1899" y2="104.8691" gradientTransform="matrix(-1 -0.0075 -0.0075 1 897.3915 3.28)">
			<stop  offset="0.0054" style="stop-color:#8C8C8C"/>
			<stop  offset="0.0318" style="stop-color:#7B7B7B"/>
			<stop  offset="0.0904" style="stop-color:#5C5C5C"/>
			<stop  offset="0.1566" style="stop-color:#404040"/>
			<stop  offset="0.2316" style="stop-color:#2A2A2A"/>
			<stop  offset="0.319" style="stop-color:#191919"/>
			<stop  offset="0.4272" style="stop-color:#0E0E0E"/>
			<stop  offset="0.5789" style="stop-color:#070707"/>
			<stop  offset="1" style="stop-color:#050505"/>
		</linearGradient>
		<path fill="url(#SVGID_19_)" d="M542.947,106.672c0,0.057,0.045,0.103,0.102,0.103l0.716,0.005c0.057,0,0.104-0.045,0.104-0.102
			l0.008-1.073c0-0.057-0.045-0.103-0.102-0.103l-0.716-0.005c-0.057,0-0.103,0.045-0.104,0.102L542.947,106.672z"/>
	</g>
	<g>
		
			<linearGradient id="SVGID_20_" gradientUnits="userSpaceOnUse" x1="342.1489" y1="108.2168" x2="342.1489" y2="106.939" gradientTransform="matrix(-1 -0.0075 -0.0075 1 897.3915 3.28)">
			<stop  offset="0.0054" style="stop-color:#8C8C8C"/>
			<stop  offset="0.0318" style="stop-color:#7B7B7B"/>
			<stop  offset="0.0904" style="stop-color:#5C5C5C"/>
			<stop  offset="0.1566" style="stop-color:#404040"/>
			<stop  offset="0.2316" style="stop-color:#2A2A2A"/>
			<stop  offset="0.319" style="stop-color:#191919"/>
			<stop  offset="0.4272" style="stop-color:#0E0E0E"/>
			<stop  offset="0.5789" style="stop-color:#070707"/>
			<stop  offset="1" style="stop-color:#050505"/>
		</linearGradient>
		<path fill="url(#SVGID_20_)" d="M553.971,108.826c0,0.057,0.045,0.102,0.102,0.103l0.716,0.005
			c0.057,0.001,0.103-0.044,0.103-0.102l0.009-1.073c0-0.056-0.045-0.103-0.102-0.103l-0.716-0.005
			c-0.057,0-0.103,0.045-0.104,0.102L553.971,108.826z"/>
		
			<linearGradient id="SVGID_21_" gradientUnits="userSpaceOnUse" x1="343.9888" y1="108.2173" x2="343.9888" y2="106.9395" gradientTransform="matrix(-1 -0.0075 -0.0075 1 897.3915 3.28)">
			<stop  offset="0.0054" style="stop-color:#8C8C8C"/>
			<stop  offset="0.0318" style="stop-color:#7B7B7B"/>
			<stop  offset="0.0904" style="stop-color:#5C5C5C"/>
			<stop  offset="0.1566" style="stop-color:#404040"/>
			<stop  offset="0.2316" style="stop-color:#2A2A2A"/>
			<stop  offset="0.319" style="stop-color:#191919"/>
			<stop  offset="0.4272" style="stop-color:#0E0E0E"/>
			<stop  offset="0.5789" style="stop-color:#070707"/>
			<stop  offset="1" style="stop-color:#050505"/>
		</linearGradient>
		<path fill="url(#SVGID_21_)" d="M552.131,108.812c0,0.057,0.045,0.103,0.102,0.103l0.716,0.005c0.056,0,0.103-0.045,0.104-0.102
			l0.008-1.073c0-0.057-0.045-0.103-0.102-0.103l-0.716-0.005c-0.057,0-0.103,0.045-0.104,0.102L552.131,108.812z"/>
		
			<linearGradient id="SVGID_22_" gradientUnits="userSpaceOnUse" x1="345.8286" y1="108.2173" x2="345.8286" y2="106.9395" gradientTransform="matrix(-1 -0.0075 -0.0075 1 897.3915 3.28)">
			<stop  offset="0.0054" style="stop-color:#8C8C8C"/>
			<stop  offset="0.0318" style="stop-color:#7B7B7B"/>
			<stop  offset="0.0904" style="stop-color:#5C5C5C"/>
			<stop  offset="0.1566" style="stop-color:#404040"/>
			<stop  offset="0.2316" style="stop-color:#2A2A2A"/>
			<stop  offset="0.319" style="stop-color:#191919"/>
			<stop  offset="0.4272" style="stop-color:#0E0E0E"/>
			<stop  offset="0.5789" style="stop-color:#070707"/>
			<stop  offset="1" style="stop-color:#050505"/>
		</linearGradient>
		<path fill="url(#SVGID_22_)" d="M550.292,108.798c-0.001,0.056,0.045,0.102,0.102,0.103l0.715,0.005
			c0.057,0.001,0.104-0.044,0.104-0.101l0.009-1.073c0-0.057-0.046-0.103-0.102-0.103l-0.716-0.005
			c-0.057,0-0.103,0.045-0.104,0.101L550.292,108.798z"/>
		
			<linearGradient id="SVGID_23_" gradientUnits="userSpaceOnUse" x1="347.6685" y1="108.2168" x2="347.6685" y2="106.939" gradientTransform="matrix(-1 -0.0075 -0.0075 1 897.3915 3.28)">
			<stop  offset="0.0054" style="stop-color:#8C8C8C"/>
			<stop  offset="0.0318" style="stop-color:#7B7B7B"/>
			<stop  offset="0.0904" style="stop-color:#5C5C5C"/>
			<stop  offset="0.1566" style="stop-color:#404040"/>
			<stop  offset="0.2316" style="stop-color:#2A2A2A"/>
			<stop  offset="0.319" style="stop-color:#191919"/>
			<stop  offset="0.4272" style="stop-color:#0E0E0E"/>
			<stop  offset="0.5789" style="stop-color:#070707"/>
			<stop  offset="1" style="stop-color:#050505"/>
		</linearGradient>
		<path fill="url(#SVGID_23_)" d="M548.452,108.784c-0.001,0.056,0.045,0.102,0.102,0.103l0.716,0.005
			c0.057,0,0.103-0.045,0.103-0.102l0.008-1.073c0.001-0.056-0.045-0.103-0.102-0.103l-0.716-0.006
			c-0.057,0-0.103,0.045-0.103,0.102L548.452,108.784z"/>
		
			<linearGradient id="SVGID_24_" gradientUnits="userSpaceOnUse" x1="349.5103" y1="108.2173" x2="349.5103" y2="106.939" gradientTransform="matrix(-1 -0.0075 -0.0075 1 897.3915 3.28)">
			<stop  offset="0.0054" style="stop-color:#8C8C8C"/>
			<stop  offset="0.0318" style="stop-color:#7B7B7B"/>
			<stop  offset="0.0904" style="stop-color:#5C5C5C"/>
			<stop  offset="0.1566" style="stop-color:#404040"/>
			<stop  offset="0.2316" style="stop-color:#2A2A2A"/>
			<stop  offset="0.319" style="stop-color:#191919"/>
			<stop  offset="0.4272" style="stop-color:#0E0E0E"/>
			<stop  offset="0.5789" style="stop-color:#070707"/>
			<stop  offset="1" style="stop-color:#050505"/>
		</linearGradient>
		<path fill="url(#SVGID_24_)" d="M546.611,108.77c0,0.056,0.046,0.103,0.102,0.103l0.717,0.005c0.056,0,0.102-0.044,0.103-0.101
			l0.008-1.074c0.001-0.056-0.045-0.103-0.101-0.103l-0.717-0.005c-0.056,0-0.103,0.045-0.103,0.101L546.611,108.77z"/>
		
			<linearGradient id="SVGID_25_" gradientUnits="userSpaceOnUse" x1="351.3491" y1="108.2168" x2="351.3491" y2="106.9395" gradientTransform="matrix(-1 -0.0075 -0.0075 1 897.3915 3.28)">
			<stop  offset="0.0054" style="stop-color:#8C8C8C"/>
			<stop  offset="0.0318" style="stop-color:#7B7B7B"/>
			<stop  offset="0.0904" style="stop-color:#5C5C5C"/>
			<stop  offset="0.1566" style="stop-color:#404040"/>
			<stop  offset="0.2316" style="stop-color:#2A2A2A"/>
			<stop  offset="0.319" style="stop-color:#191919"/>
			<stop  offset="0.4272" style="stop-color:#0E0E0E"/>
			<stop  offset="0.5789" style="stop-color:#070707"/>
			<stop  offset="1" style="stop-color:#050505"/>
		</linearGradient>
		<path fill="url(#SVGID_25_)" d="M544.772,108.756c-0.001,0.057,0.045,0.103,0.101,0.103l0.716,0.005
			c0.057,0.001,0.103-0.044,0.103-0.102l0.009-1.073c0-0.057-0.045-0.103-0.102-0.103l-0.716-0.005
			c-0.057,0-0.102,0.045-0.103,0.102L544.772,108.756z"/>
		
			<linearGradient id="SVGID_26_" gradientUnits="userSpaceOnUse" x1="353.1899" y1="108.2173" x2="353.1899" y2="106.939" gradientTransform="matrix(-1 -0.0075 -0.0075 1 897.3915 3.28)">
			<stop  offset="0.0054" style="stop-color:#8C8C8C"/>
			<stop  offset="0.0318" style="stop-color:#7B7B7B"/>
			<stop  offset="0.0904" style="stop-color:#5C5C5C"/>
			<stop  offset="0.1566" style="stop-color:#404040"/>
			<stop  offset="0.2316" style="stop-color:#2A2A2A"/>
			<stop  offset="0.319" style="stop-color:#191919"/>
			<stop  offset="0.4272" style="stop-color:#0E0E0E"/>
			<stop  offset="0.5789" style="stop-color:#070707"/>
			<stop  offset="1" style="stop-color:#050505"/>
		</linearGradient>
		<path fill="url(#SVGID_26_)" d="M542.931,108.742c0,0.057,0.045,0.103,0.102,0.104l0.716,0.005c0.057,0,0.104-0.044,0.104-0.101
			l0.008-1.074c0.001-0.056-0.045-0.103-0.102-0.103l-0.716-0.005c-0.057,0-0.103,0.045-0.103,0.102L542.931,108.742z"/>
	</g>
	<g>
		<path fill="#9C210A" d="M498.687,94.658c-0.059,0.02-0.09,0.083-0.07,0.142c0.173,0.507,4.286,12.423,9.898,13.538
			c0.061,0.012,0.119-0.027,0.131-0.087c0.013-0.061-0.026-0.119-0.087-0.131c-5.486-1.09-9.689-13.268-9.731-13.391
			C498.808,94.669,498.745,94.638,498.687,94.658z"/>
	</g>
	<g>
		<path fill="#9C210A" d="M498.357,93.93c-0.062,0-0.111,0.05-0.111,0.112c0.003,0.535,0.108,13.141,5.074,15.985
			c0.053,0.031,0.121,0.012,0.152-0.042c0.03-0.053,0.012-0.121-0.042-0.152c-4.854-2.781-4.961-15.663-4.961-15.793
			C498.468,93.979,498.418,93.93,498.357,93.93z"/>
	</g>
	<g>
		<path fill="#9C210A" d="M518.523,102.781c0.002,0.535,0.107,13.141,5.073,15.985l0.11-0.193
			c-4.854-2.781-4.961-15.663-4.961-15.792L518.523,102.781z"/>
	</g>
	<g>
		<path fill="#9C210A" d="M530.58,103.485c0.002,0.535,0.108,13.141,5.074,15.986l0.11-0.193
			c-4.854-2.782-4.961-15.664-4.962-15.793L530.58,103.485z"/>
	</g>
	<linearGradient id="SVGID_27_" gradientUnits="userSpaceOnUse" x1="524.228" y1="123.8257" x2="524.228" y2="104.6802">
		<stop  offset="0" style="stop-color:#9C210A"/>
		<stop  offset="0.0743" style="stop-color:#A41A08"/>
		<stop  offset="0.308" style="stop-color:#B80702"/>
		<stop  offset="0.4663" style="stop-color:#BF0000"/>
		<stop  offset="0.6942" style="stop-color:#BC0201"/>
		<stop  offset="0.8325" style="stop-color:#B40A03"/>
		<stop  offset="0.9465" style="stop-color:#A61807"/>
		<stop  offset="1" style="stop-color:#9C210A"/>
	</linearGradient>
	<polygon fill="url(#SVGID_27_)" points="484.851,123.826 559.546,123.826 556.955,119.939 563.605,112.322 514.389,111.646 
		507.691,105.309 485.308,104.68 489.534,113.605 	"/>
	<polygon fill="#FFBF00" points="489.534,113.605 489.292,113.096 562.45,113.646 561.702,114.503 489.372,113.959 	"/>
</g>
<linearGradient id="SVGID_28_" gradientUnits="userSpaceOnUse" x1="294.7666" y1="274.5928" x2="294.7666" y2="124.0629">
	<stop  offset="0" style="stop-color:#000D3B"/>
	<stop  offset="0.0441" style="stop-color:#001040"/>
	<stop  offset="0.0979" style="stop-color:#00184F"/>
	<stop  offset="0.1569" style="stop-color:#002568"/>
	<stop  offset="0.2195" style="stop-color:#00378B"/>
	<stop  offset="0.2843" style="stop-color:#004EB6"/>
	<stop  offset="0.3226" style="stop-color:#005ED4"/>
	<stop  offset="0.3471" style="stop-color:#0060D8"/>
	<stop  offset="0.4892" style="stop-color:#006AE9"/>
	<stop  offset="0.5801" style="stop-color:#0974EB"/>
	<stop  offset="0.7335" style="stop-color:#208EF1"/>
	<stop  offset="0.9295" style="stop-color:#45B9FB"/>
	<stop  offset="1" style="stop-color:#54CAFF"/>
</linearGradient>
<rect x="0" y="123" fill="url(#SVGID_28_)" width="589.532" height="151.031"/>
<path fill="#BC8017" d="M0,90l59.667,4.667c0,0,29.667,19,36.333,22.333s6.667,3.333,6.667,3.333s15.333,9.333,25,20.333
	c0,0,64.159,17.499,70.667,17.499s27.287-19.397,35.878-18.991c8.539,0.403,21.392-0.915,29.625,3.658
	c11.5,6.387,18.713,19.235,34.336,19.888c7.963,0.333,14.889,0.606,19.993,0.779c29.5,1,38.834,12.166,58.834,25.5
	s28.666,31.668,45.666,35.334s44.667,5.334,56.667,21c6.645,8.675,7.458,9.035,9.752,12.468c0.309,0.462,1.881,2.994,2.039,3.199
	c0.341,0.445,5.656,13.03,5.656,13.03H0V90z"/>
<g>
	<g>
		<path fill="none" stroke="#FFEC5F" stroke-width="3" stroke-miterlimit="10" d="M509.917,274.031c0,0-5.75,1.969-11.25-8.531
			s-6.5-35.5-56-43.25c0,0-13.75-0.75-20.25-4.75c-4.697-2.891-23.235-23.931-43.347-38.869"/>
		<g>
			<polygon fill="#FFEC5F" points="388.397,174.37 355.917,165.5 379.609,189.424 			"/>
		</g>
	</g>
</g>
<g>
	<path fill="#FFFFFF" d="M469.797,184.979c-1.26,0-1.561,0.021-2.201,0.101c0.221-1.581,0.281-1.881,0.58-2.641
		c0.5-1.261,1.341-2.361,2.602-3.441c0.699-0.6,0.74-0.62,3.061-2.2c1.98-1.34,2.641-2.221,2.641-3.44
		c0-1.521-1.281-2.501-3.321-2.501c-1.319,0-2.3,0.44-2.9,1.301c-0.38,0.54-0.56,1.02-0.7,2.021l-1.68-0.28
		c0.299-1.44,0.6-2.141,1.26-2.881c0.9-1.021,2.26-1.54,4.021-1.54c3.021,0,4.962,1.521,4.962,3.881c0,1.02-0.4,1.98-1.181,2.84
		c-0.601,0.681-1.12,1.061-3.401,2.581c-1.58,1.061-2.221,1.62-2.881,2.461c-0.619,0.819-0.899,1.359-1.14,2.32h6.382
		c1,0,1.68-0.04,2.439-0.141v1.681c-0.799-0.08-1.459-0.12-2.46-0.12H469.797z"/>
	<path fill="#FFFFFF" d="M482.458,183.859c-0.541-0.54-0.961-1.16-1.201-1.841c-0.5-1.399-0.76-2.98-0.76-4.62
		c0-2.121,0.461-4.281,1.16-5.441c0.961-1.62,2.501-2.461,4.481-2.461c1.479,0,2.761,0.48,3.661,1.421
		c0.56,0.56,0.96,1.18,1.199,1.84c0.5,1.381,0.761,2.98,0.761,4.642c0,2.42-0.521,4.561-1.4,5.781c-1,1.399-2.4,2.1-4.241,2.1
		C484.637,185.279,483.397,184.8,482.458,183.859z M483.618,171.896c-0.42,0.46-0.74,0.961-0.9,1.461
		c-0.42,1.22-0.62,2.58-0.62,4.041c0,1.86,0.399,3.82,0.94,4.761c0.699,1.16,1.74,1.74,3.101,1.74c1,0,1.86-0.32,2.46-0.94
		c0.44-0.46,0.761-0.98,0.94-1.561c0.421-1.24,0.62-2.561,0.62-4.04c0-1.741-0.38-3.722-0.9-4.661c-0.66-1.2-1.74-1.82-3.141-1.82
		C485.078,170.877,484.258,171.217,483.618,171.896z"/>
	<path fill="#FFFFFF" d="M495.597,183.859c-0.54-0.54-0.96-1.16-1.2-1.841c-0.5-1.399-0.76-2.98-0.76-4.62
		c0-2.121,0.46-4.281,1.16-5.441c0.96-1.62,2.5-2.461,4.48-2.461c1.48,0,2.761,0.48,3.661,1.421c0.56,0.56,0.96,1.18,1.2,1.84
		c0.5,1.381,0.76,2.98,0.76,4.642c0,2.42-0.52,4.561-1.4,5.781c-1,1.399-2.4,2.1-4.24,2.1
		C497.778,185.279,496.538,184.8,495.597,183.859z M496.758,171.896c-0.421,0.46-0.74,0.961-0.9,1.461
		c-0.42,1.22-0.621,2.58-0.621,4.041c0,1.86,0.4,3.82,0.941,4.761c0.699,1.16,1.74,1.74,3.1,1.74c1,0,1.861-0.32,2.461-0.94
		c0.439-0.46,0.76-0.98,0.939-1.561c0.421-1.24,0.621-2.561,0.621-4.04c0-1.741-0.381-3.722-0.9-4.661
		c-0.66-1.2-1.74-1.82-3.141-1.82C498.217,170.877,497.398,171.217,496.758,171.896z"/>
	<path fill="#FFFFFF" d="M507.758,185.1c0.1-0.72,0.14-1.32,0.14-2.261v-6.261c0-1.001-0.04-1.541-0.14-2.261h1.619v1.101
		c0,0.1-0.02,0.34-0.039,0.72c0.18-0.34,0.359-0.58,0.76-1c0.68-0.681,1.66-1.04,2.82-1.04c1.141,0,1.98,0.34,2.581,1.02
		c0.3,0.32,0.42,0.561,0.62,1.16c0.939-1.54,2.021-2.18,3.7-2.18c1.32,0,2.321,0.42,2.921,1.22c0.48,0.641,0.681,1.421,0.681,2.601
		v4.941c0,1,0.04,1.54,0.14,2.24h-1.801c0.12-0.74,0.141-1.2,0.141-2.261v-4.721c0-1.9-0.7-2.721-2.301-2.721
		c-1,0-1.94,0.54-2.521,1.46c-0.38,0.58-0.66,1.461-0.66,2.061v3.941c0,1,0.04,1.561,0.14,2.24h-1.8
		c0.101-0.72,0.14-1.24,0.14-2.261v-4.721c0-1.761-0.8-2.721-2.24-2.721c-1.04,0-2,0.561-2.621,1.521c-0.359,0.54-0.66,1.48-0.66,2
		v3.921c0,0.921,0.041,1.461,0.141,2.261H507.758z"/>
</g>
<g>
	<path fill="#FFEC5F" d="M516.68,256.905c1.16,0,1.721-0.04,2.2-0.141v1.4c-0.601-0.08-1.28-0.12-2.2-0.12h-5.182
		c1.801,2.501,4.562,4.501,8.063,5.882c-0.42,0.399-0.701,0.74-0.98,1.18c-1.881-0.96-3.061-1.72-4.342-2.74
		c-1.399-1.12-2.02-1.78-3.439-3.641c0.039,0.72,0.06,1.5,0.06,2.181v3.5c0,0.82,0.04,1.341,0.14,1.9h-1.52
		c0.1-0.58,0.14-1.06,0.14-1.9v-3.5c0-0.841,0.021-1.36,0.06-2.121c-1.92,2.661-4.141,4.461-7.562,6.161
		c-0.3-0.46-0.54-0.76-0.96-1.1c3.561-1.501,5.922-3.261,7.762-5.802h-4.842c-0.799,0-1.459,0.04-2.18,0.12v-1.4
		c0.66,0.101,1.26,0.141,2.18,0.141h5.542v-1.36c0-0.78-0.021-1.2-0.101-1.721h1.441c-0.08,0.44-0.101,0.92-0.101,1.7v1.381H516.68z
		 M513.479,252.084c1-1.24,1.58-2.221,2.281-3.801l1.22,0.54c-0.96,1.66-1.4,2.32-2.16,3.261h1.7c1.02,0,1.561-0.021,2.2-0.08
		c-0.06,0.48-0.079,0.94-0.079,1.66v0.66c0,0.48,0.039,0.94,0.1,1.421H517.4v-2.561h-13.963v2.561h-1.341
		c0.061-0.501,0.101-0.98,0.101-1.421v-0.68c0-0.681-0.021-1.12-0.08-1.641c0.66,0.06,1.22,0.08,2.2,0.08H513.479z M505.078,248.403
		c0.84,1.04,1.36,1.8,2.021,3.061l-1.16,0.5c-0.601-1.28-1.041-1.96-2.001-3.061L505.078,248.403z M509.678,248.123
		c0.9,1.261,1.16,1.681,1.9,3.2l-1.2,0.501c-0.62-1.44-0.94-2.001-1.86-3.241L509.678,248.123z"/>
	<path fill="#FFEC5F" d="M526.217,262.026v2.66c2.182-0.32,2.961-0.48,4.801-0.92l0.061,1.04c-2.76,0.64-4.121,0.88-7.301,1.32
		c-0.381,0.06-0.641,0.12-0.98,0.2l-0.28-1.28c0.06,0.02,0.101,0.02,0.14,0.02c0.4,0,1.181-0.08,2.341-0.22v-6.541
		c-1.101,0.819-1.841,1.26-3.261,1.92c-0.26-0.5-0.4-0.68-0.84-1.101c1.68-0.56,2.561-1,3.721-1.84c0.9-0.681,1.279-1.08,2.141-2.16
		h-3.182c-0.88,0-1.42,0.04-1.98,0.119v-1.22c0.541,0.08,1.061,0.12,1.98,0.12h6.142v-1.221h-4.821c-0.84,0-1.22,0.021-1.76,0.101
		v-1.181c0.52,0.08,0.859,0.101,1.76,0.101h4.821v-1.221h-5.321c-0.82,0-1.4,0.04-1.96,0.12v-1.221c0.54,0.08,1.08,0.12,1.96,0.12
		h2.661c-0.341-0.58-0.72-1.06-1.3-1.66l1.18-0.4c0.68,0.761,1.04,1.261,1.5,2.061h4.041c0.52-0.72,0.82-1.2,1.24-2.08l1.28,0.42
		c-0.601,0.92-0.82,1.221-1.16,1.66h2.681c0.88,0,1.44-0.04,1.961-0.12v1.221c-0.58-0.08-1.121-0.12-1.961-0.12h-5.602v1.221h5.142
		c0.88,0,1.22-0.021,1.74-0.101v1.181c-0.54-0.08-0.921-0.101-1.74-0.101h-5.142v1.221h6.422c0.92,0,1.439-0.021,1.98-0.12v1.22
		c-0.58-0.079-1.121-0.119-1.98-0.119h-3.161c0.98,1.08,1.421,1.479,2.36,2.12c1.061,0.7,1.98,1.14,3.441,1.62
		c-0.381,0.4-0.521,0.58-0.78,1.12c-1.54-0.74-2.461-1.3-3.621-2.2v2.58c0,0.82,0.021,1.301,0.06,1.721
		c-0.359-0.04-0.359-0.04-1.6-0.06h-3.121c0.621,0.7,1.281,1.18,2.301,1.68c1.721-0.96,2.641-1.62,3.701-2.7l1.02,0.74
		c-1.6,1.22-2.36,1.74-3.621,2.44c1.521,0.561,3.081,0.84,5.322,1.021c-0.341,0.399-0.48,0.66-0.721,1.18
		c-2.721-0.359-4.541-0.88-6.182-1.76c-1.34-0.721-2.1-1.341-3.221-2.601H526.217z M526.217,258.926h8.202v-1.24h-8.202V258.926z
		 M526.217,261.086h8.202v-1.261h-8.202V261.086z M529.858,256.745c0-0.601-0.02-0.841-0.1-1.181h1.4
		c-0.061,0.32-0.08,0.58-0.08,1.181h3.301c-0.48-0.48-0.721-0.721-1.5-1.62h-4.721c-0.66,0.88-0.9,1.16-1.361,1.62H529.858z"/>
	<path fill="#FFEC5F" d="M548.938,248.743c-0.18,0.24-0.26,0.4-0.56,1.021c-1.54,3.101-3.481,5.421-6.302,7.501
		c-0.26-0.399-0.52-0.7-0.98-1.08c2.421-1.62,4.141-3.461,5.481-5.861c0.501-0.88,0.761-1.5,0.86-2.101L548.938,248.743z
		 M546.999,256.524c-0.761,0-1.441,0.04-2.061,0.12v-1.42c0.58,0.08,1.26,0.12,2.08,0.12h6.581c0.92,0,1.521-0.021,2.101-0.101
		c-0.06,0.36-0.06,0.521-0.08,1.421c0,3.881-0.38,7.262-0.9,8.201c-0.34,0.601-0.82,0.801-1.98,0.801c-0.66,0-1.359-0.04-2.62-0.16
		c-0.06-0.54-0.12-0.84-0.32-1.42c1.101,0.22,2.101,0.34,2.821,0.34c0.64,0,0.859-0.12,1-0.5c0.42-1.221,0.66-3.941,0.66-7.402
		h-4.661c-0.181,2.201-0.64,3.701-1.561,5.262c-1.04,1.74-2.601,3.101-5.041,4.36c-0.261-0.46-0.46-0.72-0.88-1.12
		c2.561-1.24,4.08-2.561,5.041-4.381c0.66-1.26,0.939-2.36,1.08-4.121H546.999z M553.219,248.263c0.16,0.521,0.34,0.921,0.76,1.681
		c1.461,2.621,3.161,4.421,5.901,6.222c-0.38,0.359-0.64,0.7-0.939,1.22c-3.161-2.34-4.861-4.36-6.741-8.041
		c-0.101-0.181-0.221-0.4-0.32-0.561L553.219,248.263z"/>
</g>
<g>
	<path d="M299.066,282.802c0.68,2.561,1.741,4.661,3.261,6.441c1.46,1.7,3.141,2.92,5.421,3.9c-0.4,0.48-0.56,0.7-0.88,1.341
		c-4.481-2.381-6.961-5.302-8.402-9.883c-0.54,2.921-1.86,5.342-3.901,7.182c-1.26,1.12-2.36,1.82-4.321,2.721
		c-0.28-0.561-0.44-0.78-0.86-1.221c2.5-1.02,3.96-2,5.261-3.5c1.561-1.801,2.401-3.921,2.781-6.981h-5.441
		c-1.061,0-1.621,0.04-2.201,0.14v-1.561c0.52,0.101,1.18,0.141,2.24,0.141h5.521c0.06-0.961,0.08-1.581,0.08-2.36
		c0-0.921-0.06-1.641-0.14-2.181h1.64c-0.1,0.66-0.14,1.1-0.14,2.08c-0.02,1.021-0.04,1.601-0.1,2.461h6.061
		c1.021,0,1.681-0.04,2.221-0.141v1.561c-0.64-0.1-1.2-0.14-2.201-0.14H299.066z"/>
	<path d="M310.345,279.001c0-0.62-0.02-1.2-0.08-1.801c0.3,0.04,0.78,0.06,1.44,0.06h2.081c0.68,0,1.12-0.02,1.44-0.06l0.64,0.76
		c-0.1,0.2-0.16,0.32-0.26,0.601c-0.5,1.36-1.36,3.301-2.021,4.521c0.78,0.921,1.1,1.461,1.46,2.361c0.3,0.8,0.46,1.6,0.46,2.32
		c0,1.021-0.36,1.74-1,2.021c-0.4,0.16-0.98,0.24-1.781,0.24c-0.02,0-0.08,0-0.16,0h-0.22c-0.02-0.581-0.06-0.841-0.22-1.261
		c0.42,0.06,0.58,0.08,0.84,0.08c1,0,1.32-0.28,1.32-1.181c0-0.74-0.14-1.46-0.44-2.18c-0.36-0.86-0.7-1.381-1.541-2.321
		c0.9-1.6,1.521-3,2.101-4.82h-2.821v14.183c0,1,0.04,1.681,0.12,2.221h-1.48c0.08-0.521,0.12-1.24,0.12-2.301V279.001z
		 M320.427,287.763c0-0.521-0.04-0.881-0.12-1.261h1.48c-0.08,0.36-0.12,0.721-0.12,1.261v1.14h3.241c0.92,0,1.32-0.02,1.82-0.119
		v1.279c-0.5-0.06-0.98-0.079-1.82-0.079h-3.241v2.86h4.141c0.94,0,1.461-0.021,1.961-0.101v1.32c-0.66-0.08-1.301-0.12-1.98-0.12
		h-9.662c-0.84,0-1.44,0.04-2,0.12v-1.32c0.58,0.061,1.22,0.101,1.98,0.101h4.321v-2.86h-2.541c-0.84,0-1.3,0.02-1.82,0.079v-1.279
		c0.5,0.1,0.9,0.119,1.82,0.119h2.541V287.763z M320.447,279.881h-2.381c-0.8,0-1.2,0.02-1.76,0.08v-1.28
		c0.48,0.1,0.9,0.12,1.76,0.12h2.381v-0.94c0-0.48-0.04-0.84-0.12-1.221h1.46c-0.08,0.381-0.12,0.74-0.12,1.221v0.94h3.121
		c0.9,0,1.34-0.021,1.82-0.12v1.28c-0.54-0.061-1.021-0.08-1.82-0.08h-3.121v2.36h3.981c0.92,0,1.38-0.02,1.84-0.1v1.28
		c-0.62-0.08-1.16-0.101-1.84-0.101h-2.381v2.161c0,0.439,0.14,0.52,1.021,0.52c1.04,0,1.46-0.04,1.74-0.2
		c0.2-0.14,0.28-0.56,0.28-1.6c0.52,0.239,0.72,0.3,1.14,0.38c-0.22,2.32-0.42,2.48-3.2,2.48c-0.681,0-1.24-0.04-1.501-0.12
		c-0.54-0.16-0.66-0.38-0.66-1.101v-2.521h-2.1c-0.16,0.94-0.261,1.301-0.581,1.881c-0.6,1.1-1.44,1.76-3,2.36
		c-0.2-0.4-0.4-0.66-0.74-0.98c1.46-0.46,2.16-0.96,2.681-1.9c0.22-0.42,0.3-0.68,0.399-1.36h-1.64c-0.68,0-1.221,0.021-1.841,0.101
		v-1.28c0.44,0.08,0.9,0.1,1.841,0.1h3.341V279.881z"/>
	<path d="M333.105,281.621c0.4,1.36,1.04,2.641,1.96,3.881c-0.3,0.34-0.479,0.601-0.7,0.98c-0.66-1.16-0.939-1.761-1.38-3.041
		c0.08,2.221,0.08,2.221,0.08,2.94v6.202c0,1.04,0.04,1.76,0.12,2.32h-1.421c0.08-0.601,0.12-1.28,0.12-2.32v-5.642
		c0-0.94,0.021-1.48,0.101-3.101c-0.5,2.221-1.221,4.081-2.28,5.761c-0.301-0.54-0.421-0.7-0.801-1.08
		c1.2-1.58,2.28-4.201,2.82-6.901h-0.779c-0.58,0-1.021,0.021-1.381,0.08v-1.24c0.36,0.06,0.761,0.08,1.381,0.08h0.939v-1.801
		c0-1.12-0.02-1.58-0.1-2.061h1.38c-0.08,0.541-0.1,1.081-0.1,2.041v1.82h0.521c0.58,0,0.859-0.021,1.3-0.08v1.24
		c-0.44-0.06-0.8-0.08-1.3-0.08H333.105z M336.426,287.702c-0.22,3.321-0.62,5.142-1.521,6.901c-0.38-0.439-0.56-0.56-1.04-0.819
		c1.261-2.261,1.581-5.021,1.581-13.583c0-1.501-0.021-1.98-0.101-2.701c0.46,0.08,0.92,0.101,1.761,0.101h1.48
		c0.84,0,1.28-0.021,1.7-0.101c-0.061,0.5-0.061,0.78-0.061,1.98v13.223c0,1.32-0.38,1.701-1.7,1.701c-0.38,0-0.88-0.021-1.38-0.061
		c-0.021-0.54-0.08-0.86-0.261-1.28c0.66,0.141,1.121,0.2,1.621,0.2c0.479,0,0.58-0.12,0.58-0.72v-4.842H336.426z M336.546,283.262
		c0,0.62,0,1.1-0.02,1.4c0,1.16,0,1.16-0.04,1.94h2.601v-3.341H336.546z M339.087,278.7h-2.501v2.521l-0.02,0.94h2.521V278.7z
		 M342.688,287.702c-0.18,3.481-0.48,5.081-1.361,6.901c-0.26-0.359-0.5-0.58-0.98-0.88c0.5-1,0.701-1.641,0.921-2.98
		c0.299-1.801,0.42-4.561,0.42-9.962c0-1.721-0.021-2.621-0.102-3.281c0.441,0.08,0.9,0.101,1.74,0.101h1.842
		c0.84,0,1.279-0.021,1.699-0.101c-0.039,0.44-0.059,0.9-0.059,2.061v13.243c0,1.3-0.4,1.721-1.682,1.721
		c-0.42,0-0.879-0.04-1.721-0.141c-0.039-0.5-0.08-0.78-0.238-1.26c0.799,0.18,1.32,0.26,1.76,0.26c0.619,0,0.699-0.08,0.699-0.721
		v-4.961H342.688z M345.627,286.603v-3.341h-2.82c-0.02,0.58-0.02,1.06-0.02,1.34c-0.02,1.141-0.02,1.141-0.041,2.001H345.627z
		 M345.627,282.161V278.7h-2.801v2.521l-0.02,0.94H345.627z"/>
</g>
<g>
	<path d="M224.419,167.187c-0.08,0.26-0.12,0.42-0.26,1.36c-0.84,5.701-2.42,9.462-5.281,12.482c-0.521-0.56-0.7-0.7-1.28-1.04
		c1.24-1.16,2.06-2.28,2.9-3.961c0.98-1.98,1.68-4.32,2.061-6.941c0.12-0.8,0.2-1.521,0.2-1.88c0-0.061,0-0.181-0.02-0.32
		L224.419,167.187z M229.96,166.887c0.04,1.04,0.42,3.021,0.92,4.801c0.98,3.581,2.5,6.321,4.541,8.262
		c-0.56,0.38-0.76,0.54-1.24,1.12c-1.34-1.44-2.341-3.021-3.341-5.201c-0.96-2.16-1.68-4.661-2.101-7.361
		c-0.12-0.74-0.16-1-0.26-1.32L229.96,166.887z M232.321,166.667c0.74,1.08,1.16,1.86,1.68,3.08l-1.08,0.46
		c-0.48-1.22-0.98-2.16-1.641-3.12L232.321,166.667z M234.381,165.887c0.74,1.08,1.161,1.84,1.681,3.08l-1.101,0.44
		c-0.46-1.221-0.96-2.16-1.64-3.121L234.381,165.887z"/>
	<path d="M237.938,179.689c1.56-0.061,3.96-0.681,5.821-1.54c3.861-1.721,6.542-4.661,8.162-8.902c0.46,0.62,0.66,0.8,1.22,1.181
		c-1.6,3.48-3.46,5.821-6.101,7.642c-2.061,1.4-4.121,2.22-7.462,2.98c-0.54,0.12-0.7,0.16-1.2,0.32L237.938,179.689z
		 M239.219,167.287c2.14,1.359,3.38,2.34,4.821,3.761l-1.04,1.24c-1.44-1.561-3.021-2.861-4.761-3.921L239.219,167.287z"/>
	<path d="M263.281,165.546c-0.181,0.261-0.181,0.261-0.44,0.82c-0.521,1.08-0.7,1.421-0.92,1.78c0.26-0.06,0.26-0.06,6.041-0.16
		c0.7,0,0.76-0.02,1.04-0.14l0.86,0.84c-0.18,0.24-0.18,0.261-0.4,0.98c-0.84,2.82-2.3,5.541-4.001,7.521
		c-1.84,2.101-4.04,3.681-6.961,5.001c-0.32-0.58-0.48-0.779-1-1.18c3.021-1.24,5.141-2.761,7.062-5.062
		c1.54-1.86,2.74-4.2,3.44-6.701l-6.741,0.12c-1.221,1.96-2.821,3.721-4.781,5.201c-0.34-0.5-0.54-0.681-1.12-1.04
		c2.12-1.381,3.641-3.041,5.021-5.481c0.761-1.32,1.16-2.221,1.261-2.921L263.281,165.546z"/>
</g>
<g>
	<path fill="#FF0000" d="M273.669,97.058c-0.016-0.128-0.032-0.208-0.032-0.304c0-0.896,0.736-1.633,1.648-1.633
		c0.913,0,1.649,0.736,1.649,1.648s-0.736,1.648-1.649,1.648c-0.112,0-0.208-0.016-0.352-0.048c-0.56,2.081-1.313,3.825-2.225,5.122
		c-0.945,1.36-2.369,2.689-3.938,3.665c-0.912,0.577-1.632,0.929-2.945,1.425c-0.24-0.512-0.368-0.688-0.785-1.104
		c1.441-0.432,2.385-0.88,3.618-1.696c2.625-1.761,4.146-4.05,5.042-7.635h-8.147c-0.816,0-1.264,0.016-1.792,0.096v-1.28
		c0.608,0.08,0.928,0.096,1.809,0.096h7.875H273.669z M274.31,96.77c0,0.528,0.448,0.977,0.976,0.977
		c0.544,0,0.977-0.433,0.977-0.977s-0.432-0.977-0.977-0.977C274.742,95.793,274.31,96.226,274.31,96.77z"/>
	<path fill="#FF0000" d="M278.449,99.843c0.576,0.08,0.912,0.096,1.873,0.096h8.211c0.592,0,0.769-0.016,1.041-0.111l0.592,0.688
		c-0.144,0.225-0.176,0.305-0.448,1.009c-1.361,3.729-3.569,5.778-7.715,7.171c-0.192-0.464-0.304-0.641-0.688-1.104
		c2.145-0.608,3.553-1.328,4.754-2.433c1.136-1.041,1.856-2.226,2.593-4.194h-8.355c-0.848,0-1.313,0.017-1.856,0.08V99.843z
		 M279.825,96.129c0.464,0.097,0.784,0.112,1.681,0.112h5.346c0.896,0,1.216-0.016,1.681-0.112v1.232
		c-0.432-0.063-0.816-0.08-1.665-0.08h-5.378c-0.848,0-1.232,0.017-1.665,0.08V96.129z"/>
	<path fill="#FF0000" d="M292.417,106.854c1.249-0.048,3.169-0.544,4.658-1.232c3.089-1.377,5.234-3.729,6.53-7.123
		c0.368,0.496,0.528,0.641,0.977,0.944c-1.281,2.785-2.769,4.658-4.882,6.114c-1.649,1.121-3.297,1.777-5.971,2.386
		c-0.432,0.096-0.56,0.128-0.96,0.256L292.417,106.854z M293.441,96.93c1.713,1.088,2.705,1.873,3.857,3.009l-0.832,0.992
		c-1.152-1.248-2.417-2.288-3.81-3.137L293.441,96.93z"/>
	<path fill="#FF0000" d="M312.691,95.537c-0.144,0.208-0.144,0.208-0.353,0.656c-0.416,0.864-0.56,1.137-0.736,1.425
		c0.209-0.049,0.209-0.049,4.834-0.128c0.561,0,0.608-0.017,0.833-0.112l0.688,0.672c-0.145,0.192-0.145,0.208-0.32,0.784
		c-0.673,2.257-1.841,4.435-3.201,6.019c-1.473,1.681-3.233,2.945-5.57,4.002c-0.257-0.464-0.385-0.624-0.801-0.944
		c2.417-0.992,4.114-2.209,5.65-4.05c1.232-1.488,2.193-3.361,2.753-5.362l-5.394,0.096c-0.977,1.569-2.257,2.978-3.826,4.162
		c-0.271-0.4-0.432-0.544-0.896-0.832c1.697-1.104,2.913-2.434,4.018-4.386c0.608-1.057,0.929-1.777,1.009-2.337L312.691,95.537z"/>
	<path fill="#FF0000" d="M322.258,108.742c0.063-0.432,0.096-0.816,0.096-1.681v-9.939c0-0.849-0.032-1.233-0.096-1.633h1.376
		c-0.063,0.416-0.08,0.752-0.08,1.664v2.993c2.465,0.881,4.322,1.761,7.123,3.378l-0.688,1.185c-1.504-1.057-3.713-2.241-5.97-3.17
		c-0.24-0.096-0.353-0.16-0.497-0.271l-0.031,0.016c0.048,0.32,0.063,0.544,0.063,0.944v4.818c0,0.896,0.017,1.248,0.08,1.696
		H322.258z"/>
	<path fill="#FF0000" d="M332.833,106.854c1.249-0.048,3.169-0.544,4.658-1.232c3.089-1.377,5.233-3.729,6.53-7.123
		c0.368,0.496,0.528,0.641,0.977,0.944c-1.28,2.785-2.77,4.658-4.882,6.114c-1.648,1.121-3.298,1.777-5.971,2.386
		c-0.432,0.096-0.561,0.128-0.96,0.256L332.833,106.854z M333.857,96.93c1.713,1.088,2.705,1.873,3.857,3.009l-0.832,0.992
		c-1.152-1.248-2.417-2.288-3.81-3.137L333.857,96.93z"/>
</g>
<g>
	<path d="M124.366,276.94c0.44,0.92,0.72,1.4,1.3,2.16c0.8,1.021,1.4,1.62,2.28,2.261c-0.3,0.32-0.44,0.52-0.72,1.08
		c-1.54-1.301-2.581-2.601-3.4-4.261c-0.92,2.061-2.161,3.601-4.161,5.221c-0.26-0.5-0.44-0.78-0.74-1.06
		c2.041-1.461,3.341-3.161,4.201-5.401H124.366z M121.385,286.282c-0.76,0-1.24,0.02-1.76,0.1v-1.3c0.5,0.08,1,0.1,1.86,0.1h3.901
		c0.84,0,1.34-0.02,1.78-0.08c-0.06,0.521-0.08,1.001-0.08,1.86v3.562c0,1.06-0.38,1.36-1.721,1.36c-0.22,0-0.3,0-0.86-0.04
		c-0.02-0.48-0.08-0.761-0.28-1.24c0.46,0.08,0.94,0.14,1.24,0.14c0.32,0,0.44-0.08,0.44-0.32v-4.141h-2.44v6.621
		c0,0.761,0.04,1.24,0.12,1.761h-1.46c0.08-0.54,0.12-1.061,0.12-1.761v-6.621H121.385z M121.345,282.121
		c0.4,0.061,0.82,0.08,1.44,0.08h2.141c0.64,0,1.02-0.02,1.44-0.08v1.24c-0.44-0.06-0.78-0.08-1.4-0.08h-2.241
		c-0.54,0-0.94,0.021-1.38,0.08V282.121z M131.167,291.884c-1.48,1.439-2.4,2.1-4.221,3c-0.28-0.46-0.46-0.68-0.84-1.02
		c1.1-0.461,1.581-0.721,2.4-1.301c0.7-0.46,1.021-0.76,1.661-1.44L131.167,291.884z M129.547,278.461c-0.96,0-1.38,0.02-1.98,0.119
		v-1.359c0.56,0.1,1.02,0.119,1.96,0.119h5.881c0.92,0,1.42-0.02,1.92-0.119v1.359c-0.62-0.1-1-0.119-1.92-0.119h-2.261
		c-0.26,0.88-0.48,1.46-0.8,2.16h2.441c0.96,0,1.36-0.021,1.8-0.08c-0.04,0.5-0.06,1.04-0.06,1.84v6.582c0,0.78,0.02,1.28,0.06,1.9
		c-0.52-0.04-1.041-0.061-1.721-0.061h-4.781c-0.64,0-1.06,0.021-1.7,0.061c0.04-0.561,0.06-1.221,0.06-1.86v-6.582
		c0-0.779-0.02-1.28-0.08-1.86c0.54,0.04,0.92,0.061,1.74,0.061h1.02c0.32-0.74,0.58-1.46,0.76-2.16H129.547z M129.607,283.602
		h5.741v-1.9h-5.741V283.602z M129.607,286.643h5.741v-1.98h-5.741V286.643z M129.607,289.743h5.741v-2.041h-5.741V289.743z
		 M134.008,291.144c1.22,1.22,2.2,1.9,4.021,2.78c-0.34,0.34-0.6,0.64-0.86,1.061c-1.84-1.021-2.781-1.74-4.081-3.101
		L134.008,291.144z"/>
	<path d="M139.864,281.901c1.381,0.88,2.021,1.36,3.261,2.521l-0.859,0.96c-1.021-1.1-1.701-1.66-3.181-2.58L139.864,281.901z
		 M143.325,288.362c-0.72,2.201-1.54,4.201-2.32,5.621c-0.22,0.421-0.22,0.421-0.34,0.66l-1.141-0.899
		c0.761-0.801,1.881-3.341,2.761-6.222L143.325,288.362z M141.125,276.92c1.22,0.921,2,1.621,2.94,2.621l-0.92,0.939
		c-1.12-1.319-1.721-1.88-2.921-2.7L141.125,276.92z M154.688,278.641c1.44,0,2.021-0.021,2.601-0.12v1.34
		c-0.46-0.06-1.12-0.079-2.521-0.079h-7.882c-0.899,1.6-1.439,2.34-2.601,3.641c-0.279-0.381-0.58-0.66-0.979-0.921
		c1.3-1.16,2.16-2.4,3.04-4.381c0.301-0.68,0.48-1.24,0.54-1.72l1.4,0.279c-0.1,0.221-0.1,0.221-0.3,0.78
		c-0.14,0.381-0.26,0.66-0.521,1.181H154.688z M145.906,291.863c-0.12,0.44-0.181,0.641-0.36,1.301l-1.36-0.181
		c0.58-1.54,1.021-3.4,1.4-5.841h-0.12c-0.82,0-1.26,0.02-1.841,0.12v-1.36c0.48,0.08,1.001,0.12,1.921,0.12h0.2
		c0.22-1.74,0.34-3.001,0.34-3.681c0-0.04,0-0.24-0.02-0.581c0.239,0.021,0.819,0.04,1.42,0.04h6.361c1.021,0,1.4-0.02,2.08-0.079
		c-0.1,0.52-0.1,0.699-0.18,3.021c-0.02,0.399-0.02,0.66-0.06,1.28h0.14c0.92,0,1.36-0.021,1.86-0.12v1.36
		c-0.601-0.08-1.181-0.12-1.86-0.12h-0.22c-0.021,0.2-0.021,0.2-0.04,0.56c-0.061,0.841-0.16,1.86-0.32,3.041h0.22
		c0.78,0,1.101-0.021,1.581-0.12v1.32c-0.521-0.06-0.921-0.08-1.621-0.08h-0.359c-0.4,2.32-0.761,2.74-2.401,2.74
		c-0.46,0-1.12-0.04-2.2-0.119c0-0.521-0.06-0.801-0.22-1.28c0.86,0.159,1.66,0.239,2.221,0.239c1.02,0,1.1-0.1,1.399-1.58H145.906z
		 M146.826,287.143c-0.12,0.96-0.26,1.66-0.66,3.601h3.221c0.36-1.96,0.36-1.96,0.54-3.601H146.826z M150.066,286.022
		c0.141-1.381,0.141-1.521,0.221-3.141h-3.001c-0.1,1.36-0.14,1.78-0.3,3.141H150.066z M151.107,287.143
		c-0.2,1.641-0.2,1.641-0.54,3.601h3.5c0.141-1.101,0.24-1.98,0.36-3.601H151.107z M154.508,286.022c0.04-0.801,0.08-1.94,0.1-3.141
		h-3.141c-0.1,1.32-0.18,2.38-0.239,3.141H154.508z"/>
</g>
<line fill="none" stroke="#000000" stroke-miterlimit="10" x1="106.833" y1="81.084" x2="106.833" y2="296.581"/>
<line fill="none" stroke="#000000" stroke-miterlimit="10" x1="170.667" y1="81.084" x2="170.667" y2="296.581"/>
<line fill="none" stroke="#000000" stroke-miterlimit="10" x1="458.667" y1="81.084" x2="458.667" y2="296.581"/>
<g>
	<linearGradient id="SVGID_29_" gradientUnits="userSpaceOnUse" x1="449.8276" y1="-2.0728" x2="454.5481" y2="65.4332">
		<stop  offset="0" style="stop-color:#FFF000"/>
		<stop  offset="1" style="stop-color:#EF8200"/>
	</linearGradient>
	<path fill-rule="evenodd" clip-rule="evenodd" fill="url(#SVGID_29_)" d="M452.19,13.174c10.191,0,18.503,8.311,18.503,18.504
		c0,10.191-8.312,18.502-18.503,18.502s-18.504-8.311-18.504-18.502C433.686,21.484,441.999,13.174,452.19,13.174L452.19,13.174z
		 M452.188,0l2.577,9.895c-0.846-0.1-1.704-0.15-2.575-0.15c-0.872,0-1.733,0.051-2.578,0.151L452.188,0L452.188,0z M460.843,11.529
		c1.594,0.688,3.091,1.559,4.464,2.588l2.72-9.873L460.843,11.529L460.843,11.529z M469.748,18.559
		c1.029,1.373,1.9,2.871,2.589,4.465l7.285-7.186L469.748,18.559L469.748,18.559z M473.969,29.102l9.896,2.576l-9.896,2.576
		c0.1-0.846,0.153-1.705,0.153-2.576C474.123,30.806,474.07,29.945,473.969,29.102L473.969,29.102z M472.335,40.33
		c-0.688,1.594-1.562,3.092-2.591,4.465l9.877,2.721L472.335,40.33L472.335,40.33z M465.306,49.232
		c-1.374,1.029-2.87,1.902-4.465,2.592l7.186,7.285L465.306,49.232L465.306,49.232z M454.765,53.455l-2.577,9.9l-2.576-9.9
		c0.845,0.102,1.705,0.154,2.578,0.154C453.061,53.609,453.921,53.557,454.765,53.455L454.765,53.455z M443.536,51.822
		c-1.594-0.688-3.091-1.561-4.464-2.59l-2.723,9.877L443.536,51.822L443.536,51.822z M434.634,44.795
		c-1.03-1.373-1.901-2.873-2.591-4.467l-7.288,7.188L434.634,44.795L434.634,44.795z M430.411,34.256l-9.899-2.578l9.898-2.578
		c-0.1,0.846-0.152,1.706-0.152,2.578C430.257,32.549,430.31,33.41,430.411,34.256L430.411,34.256z M432.042,23.024
		c0.688-1.594,1.561-3.091,2.589-4.464l-9.876-2.723L432.042,23.024L432.042,23.024z M439.07,14.118
		c1.373-1.028,2.87-1.899,4.464-2.589l-7.185-7.285L439.07,14.118z"/>
</g>
<path fill-rule="evenodd" clip-rule="evenodd" fill="#008F21" d="M337.667,158.375l1.5-4.625c0,0,2.5,2.625,2,2.313
	S337.667,158.375,337.667,158.375z"/>
<path fill-rule="evenodd" clip-rule="evenodd" fill="#008F21" d="M341.608,155.633v-5.07c0,0,3.689,2.016,3.229,1.537
	C344.375,151.621,341.608,155.633,341.608,155.633z"/>
<path fill-rule="evenodd" clip-rule="evenodd" fill="#008F21" d="M343.548,157.375c4.118-1.625,4.118-1.625,4.118-1.625v-1l-0.5-1.9
	h-1.559l-2.06,3.9"/>
<path fill-rule="evenodd" clip-rule="evenodd" fill="#008F21" d="M336.894,152.441c4.118-1.625,4.118-1.625,4.118-1.625v-1l-0.5-1.9
	h-1.559l-2.06,3.9"/>
<polygon fill-rule="evenodd" clip-rule="evenodd" fill="#008F21" points="343.798,149.25 346.417,150.191 347.417,149.25 
	347.417,147.25 343.798,148.721 "/>
<g id="txt">
	<g id="icon_11067" transform="translate(0,0)">
		<g>
			<path fill="#FFFFFF" d="M370.318,149.106l1.403-3.624c0.03-0.082,0.005-0.173-0.063-0.226c-0.069-0.053-0.164-0.053-0.233-0.002
				l-3.643,2.688c-0.784-0.093-1.632-1.966-5.364-2.896l1.091-0.155c0.174-0.024,0.327-0.126,0.418-0.277
				c0.09-0.151,0.106-0.334,0.047-0.499l-0.548-1.508c-0.067-0.185-0.223-0.323-0.413-0.368c-0.19-0.046-0.392,0.008-0.534,0.142
				l-2.497,2.352c-4.04,0.088-7.068,3.339-7.068,4.374c0.138,0.868,1.798,2.863,4.311,3.832c0.263-0.366,0.475-0.72,0.644-1.057
				c0.494-0.986,0.634-1.834,0.634-2.417c0-0.234-0.023-0.427-0.053-0.561c-0.047-0.223,0.095-0.441,0.316-0.488
				c0.223-0.048,0.441,0.095,0.488,0.316c0.043,0.2,0.069,0.444,0.069,0.732c0,0.711-0.168,1.685-0.72,2.785
				c-0.156,0.31-0.343,0.63-0.564,0.957c0.864,0.235,1.809,0.342,2.812,0.246l0.745,1.45c0.075,0.146,0.209,0.255,0.368,0.298
				c0.16,0.042,0.33,0.015,0.469-0.076l0.568-0.372c0.157-0.102,0.254-0.272,0.264-0.458c0.009-0.187-0.071-0.366-0.217-0.483
				l-0.761-0.612c3.845-0.917,4.703-2.834,5.496-2.928l3.643,2.687c0.069,0.052,0.164,0.051,0.233-0.001
				c0.068-0.053,0.094-0.145,0.063-0.225L370.318,149.106z M355.722,149.381c-0.341,0-0.617-0.276-0.617-0.616
				c0-0.341,0.276-0.617,0.617-0.617s0.616,0.276,0.616,0.617C356.338,149.104,356.063,149.381,355.722,149.381z"/>
		</g>
	</g>
</g>
<g id="txt_2_">
	<g id="icon_11067_2_" transform="translate(0,0)">
		<g>
			<path fill="#FFFFFF" d="M380.907,157.871l1.809-4.67c0.039-0.105,0.006-0.223-0.082-0.291c-0.089-0.067-0.211-0.067-0.301-0.002
				l-4.693,3.463c-1.011-0.12-2.103-2.533-6.912-3.731l1.405-0.2c0.225-0.031,0.422-0.162,0.539-0.357
				c0.115-0.194,0.137-0.43,0.061-0.643l-0.706-1.942c-0.087-0.238-0.287-0.417-0.532-0.475c-0.245-0.06-0.505,0.01-0.688,0.183
				l-3.218,3.029c-5.205,0.113-9.107,4.303-9.107,5.637c0.178,1.118,2.316,3.689,5.555,4.938c0.338-0.472,0.611-0.928,0.829-1.361
				c0.637-1.271,0.816-2.363,0.816-3.114c0-0.303-0.03-0.551-0.068-0.723c-0.061-0.287,0.122-0.568,0.408-0.629
				c0.287-0.063,0.568,0.122,0.629,0.407c0.056,0.258,0.09,0.572,0.09,0.944c0,0.916-0.217,2.17-0.928,3.588
				c-0.201,0.399-0.441,0.812-0.728,1.233c1.113,0.304,2.33,0.44,3.623,0.317l0.96,1.868c0.097,0.189,0.27,0.329,0.475,0.384
				c0.206,0.055,0.425,0.02,0.604-0.098l0.732-0.479c0.203-0.131,0.327-0.352,0.34-0.59c0.012-0.241-0.092-0.473-0.279-0.623
				l-0.98-0.789c4.954-1.182,6.061-3.651,7.082-3.772l4.693,3.462c0.09,0.066,0.212,0.065,0.301-0.002
				c0.088-0.067,0.121-0.186,0.082-0.289L380.907,157.871z M362.1,158.225c-0.439,0-0.795-0.356-0.795-0.794
				c0-0.439,0.355-0.796,0.795-0.796s0.794,0.356,0.794,0.796C362.894,157.868,362.54,158.225,362.1,158.225z"/>
		</g>
	</g>
</g>
<g id="txt_1_">
	<g id="icon_11067_1_" transform="translate(0,0)">
		<g>
			<path fill="#FFFFFF" d="M316.091,152.511l-1.235,3.188c-0.027,0.072-0.004,0.151,0.056,0.198
				c0.061,0.047,0.145,0.047,0.206,0.002l3.205-2.364c0.69,0.081,1.436,1.729,4.72,2.547l-0.959,0.137
				c-0.153,0.021-0.288,0.11-0.368,0.244c-0.079,0.134-0.094,0.294-0.041,0.439l0.482,1.326c0.06,0.163,0.196,0.284,0.364,0.324
				c0.167,0.041,0.344-0.007,0.47-0.124l2.197-2.07c3.555-0.076,6.22-2.938,6.22-3.848c-0.121-0.765-1.582-2.52-3.793-3.372
				c-0.231,0.322-0.417,0.633-0.566,0.93c-0.435,0.867-0.558,1.613-0.558,2.127c0,0.205,0.021,0.375,0.046,0.493
				c0.042,0.195-0.083,0.389-0.278,0.429c-0.196,0.042-0.388-0.083-0.43-0.278c-0.038-0.176-0.061-0.391-0.061-0.644
				c0-0.626,0.147-1.482,0.633-2.451c0.138-0.272,0.302-0.555,0.497-0.842c-0.76-0.207-1.591-0.301-2.474-0.217l-0.656-1.276
				c-0.066-0.129-0.184-0.224-0.324-0.262c-0.141-0.037-0.291-0.013-0.413,0.066l-0.5,0.328c-0.138,0.089-0.223,0.239-0.232,0.403
				c-0.008,0.163,0.063,0.321,0.191,0.425l0.669,0.539c-3.383,0.807-4.139,2.493-4.836,2.576l-3.205-2.364
				c-0.061-0.045-0.145-0.045-0.206,0.001c-0.06,0.046-0.083,0.127-0.056,0.198L316.091,152.511z M328.935,152.269
				c0.3,0,0.543,0.243,0.543,0.542c0,0.301-0.243,0.543-0.543,0.543s-0.542-0.242-0.542-0.543
				C328.393,152.512,328.635,152.269,328.935,152.269z"/>
		</g>
	</g>
</g>
<circle fill="none" stroke="#FF2400" stroke-miterlimit="10" cx="342.542" cy="152.849" r="9.042"/>
<g>
	<g>
		<polyline fill="none" stroke="#ED9E00" stroke-miterlimit="10" points="420.003,49.671 411.266,50.391 410.546,59.128 
			401.813,59.844 401.093,68.581 392.36,69.297 391.641,78.034 382.902,78.755 382.182,87.494 373.443,88.215 372.722,96.952 
			363.984,97.672 363.26,106.415 354.515,107.142 353.788,115.888 348.423,121.391 		"/>
		<g>
			<polygon fill="#ED9E00" points="347.808,116.163 348.808,116.186 348.691,121.115 353.616,120.872 353.665,121.872 
				347.666,122.167 			"/>
		</g>
	</g>
</g>
<g>
	<g>
		<polyline fill="none" stroke="#ED9E00" stroke-miterlimit="10" points="429.81,56.363 421.073,57.083 420.353,65.82 
			411.62,66.536 410.9,75.272 402.167,75.989 401.448,84.726 392.708,85.447 391.989,94.186 383.25,94.907 382.529,103.644 
			373.791,104.364 373.067,113.106 364.322,113.834 363.594,122.58 358.23,128.082 		"/>
		<g>
			<polygon fill="#ED9E00" points="357.615,122.855 358.615,122.877 358.498,127.807 363.422,127.564 363.471,128.564 
				357.472,128.858 			"/>
		</g>
	</g>
</g>
<g>
	<g>
		<polyline fill="none" stroke="#ED9E00" stroke-miterlimit="10" points="441.849,62.671 433.112,63.391 432.392,72.128 
			423.659,72.844 422.939,81.581 414.206,82.297 413.487,91.034 404.748,91.755 404.028,100.494 395.289,101.215 394.568,109.952 
			385.83,110.672 385.106,119.415 376.361,120.142 375.633,128.888 370.269,134.391 		"/>
		<g>
			<polygon fill="#ED9E00" points="369.654,129.163 370.654,129.186 370.537,134.115 375.461,133.873 375.51,134.873 
				369.511,135.166 			"/>
		</g>
	</g>
</g>
<g>
	<path fill="none" stroke="#000000" stroke-miterlimit="10" d="M351.616,287c35.322,0,70.645,0,105.967,0"/>
	<path fill="none" stroke="#000000" stroke-miterlimit="10" d="M171.751,287c37.916,0,75.916,0,113.529,0"/>
	<g>
		<polygon points="175.064,291.09 175.747,290.357 172.135,287.001 175.747,283.644 175.064,282.911 170.667,287.001 		"/>
	</g>
	<g>
		<polygon points="454.268,291.09 453.586,290.357 457.198,287.001 453.586,283.644 454.268,282.911 458.667,287.001 		"/>
	</g>
</g>
<line fill="none" stroke="#FF2400" stroke-miterlimit="10" x1="338.953" y1="144.551" x2="337.667" y2="143.807"/>
<line fill="none" stroke="#FF2400" stroke-miterlimit="10" x1="337.667" y1="143.807" x2="305.333" y2="111.333"/>
<g>
	<g>
		
			<line fill="none" stroke="#FFFFFF" stroke-width="3" stroke-miterlimit="10" x1="458.667" y1="126.254" x2="458.667" y2="228.83"/>
		<g>
			<polygon fill="#FFFFFF" points="446.397,136.193 448.594,138.24 458.664,127.404 468.736,138.24 470.933,136.193 458.664,123 			
				"/>
		</g>
		<g>
			<polygon fill="#FFFFFF" points="446.397,218.889 448.594,216.843 458.664,227.678 468.736,216.843 470.933,218.889 
				458.664,232.083 			"/>
		</g>
	</g>
</g>
<path fill="none" stroke="#000000" stroke-miterlimit="10" d="M279.341,149.582c0,6.627-5.373,12-12,12h-50.667
	c-6.627,0-12-5.373-12-12V143c0-6.628,5.373-12,12-12h50.667c6.627,0,12,5.372,12,12V149.582z"/>
</svg>
