<?xml version="1.0" encoding="utf-8"?>
<!-- Generator: Adobe Illustrator 16.0.0, SVG Export Plug-In . SVG Version: 6.00 Build 0)  -->
<!DOCTYPE svg PUBLIC "-//W3C//DTD SVG 1.1//EN" "http://www.w3.org/Graphics/SVG/1.1/DTD/svg11.dtd">
<svg version="1.1" id="レイヤー_1" xmlns="http://www.w3.org/2000/svg" xmlns:xlink="http://www.w3.org/1999/xlink" x="0px"
	 y="0px" width="110.301px" height="114.457px" viewBox="0 0 110.301 114.457" enable-background="new 0 0 110.301 114.457"
	 xml:space="preserve">
<g>
	<line fill="none" stroke="#000000" stroke-width="0.5" x1="35.594" y1="14.302" x2="85.396" y2="14.302"/>
	<line fill="none" stroke="#000000" stroke-width="0.5" x1="17.663" y1="32.16" x2="103.336" y2="32.16"/>
	<line fill="none" stroke="#FF5546" stroke-width="0.5" x1="10.64" y1="57.161" x2="110.051" y2="57.161"/>
	<line fill="none" stroke="#000000" stroke-width="0.5" x1="35.594" y1="100.021" x2="85.396" y2="100.021"/>
	<line fill="none" stroke="#000000" stroke-width="0.5" x1="17.663" y1="82.163" x2="103.336" y2="82.163"/>
	<circle fill="none" stroke="#000000" stroke-width="0.5" cx="60.346" cy="57.162" r="49.706"/>
	<line fill="none" stroke="#000000" stroke-width="0.5" x1="50.573" y1="8.403" x2="70.416" y2="8.403"/>
	<line fill="none" stroke="#000000" stroke-width="0.5" x1="50.573" y1="105.799" x2="70.416" y2="105.799"/>
</g>
<g>
	<path fill="#231815" d="M0.693,58.869c-0.191-0.191-0.34-0.411-0.425-0.651C0.092,57.722,0,57.162,0,56.582
		c0-0.751,0.162-1.516,0.41-1.926c0.34-0.574,0.885-0.871,1.586-0.871c0.524,0,0.978,0.17,1.296,0.503
		c0.198,0.198,0.34,0.417,0.425,0.651c0.177,0.488,0.27,1.055,0.27,1.643c0,0.856-0.185,1.614-0.496,2.046
		c-0.354,0.496-0.85,0.743-1.501,0.743C1.465,59.371,1.026,59.201,0.693,58.869z M1.104,54.635c-0.149,0.163-0.263,0.34-0.319,0.517
		c-0.148,0.432-0.219,0.914-0.219,1.431c0,0.658,0.142,1.352,0.332,1.685c0.248,0.411,0.616,0.616,1.098,0.616
		c0.354,0,0.658-0.113,0.871-0.333c0.156-0.163,0.27-0.347,0.333-0.552c0.148-0.439,0.22-0.906,0.22-1.431
		c0-0.616-0.135-1.316-0.319-1.649c-0.233-0.425-0.616-0.645-1.111-0.645C1.621,54.273,1.331,54.394,1.104,54.635z"/>
	<path fill="#231815" d="M6.186,54.571c0,0.446-0.354,0.8-0.793,0.8c-0.446,0-0.801-0.354-0.801-0.8
		c0-0.439,0.354-0.793,0.801-0.793C5.831,53.778,6.186,54.132,6.186,54.571z M4.911,54.571c0,0.269,0.212,0.481,0.481,0.481
		c0.262,0,0.475-0.213,0.475-0.481c0-0.262-0.213-0.475-0.475-0.475C5.123,54.097,4.911,54.309,4.911,54.571z"/>
</g>
<g>
	<path fill="#231815" d="M5.832,32.968c0.113,0.368,0.213,0.517,0.432,0.673c0.241,0.17,0.553,0.255,0.914,0.255
		c0.821,0,1.338-0.425,1.338-1.098c0-0.701-0.503-1.083-1.444-1.083c-0.198,0-0.375,0.014-0.566,0.035v-0.559
		c0.163,0.028,0.333,0.042,0.524,0.042c0.467,0,0.813-0.106,1.033-0.326c0.177-0.17,0.283-0.432,0.283-0.687
		c0-0.608-0.425-0.963-1.14-0.963c-0.433,0-0.743,0.121-0.942,0.375c-0.099,0.127-0.148,0.241-0.227,0.502L5.45,30.009
		c0.12-0.361,0.205-0.524,0.382-0.708c0.312-0.34,0.793-0.517,1.409-0.517c1.026,0,1.678,0.538,1.678,1.388
		c0,0.432-0.184,0.814-0.495,1.034c-0.185,0.135-0.34,0.191-0.666,0.255c0.411,0.042,0.631,0.12,0.871,0.305
		c0.312,0.24,0.475,0.616,0.475,1.069c0,0.956-0.736,1.55-1.919,1.55c-0.715,0-1.246-0.198-1.586-0.58
		c-0.148-0.17-0.233-0.326-0.361-0.687L5.832,32.968z"/>
	<path fill="#231815" d="M10.602,33.881c-0.191-0.191-0.34-0.411-0.425-0.651C10,32.734,9.908,32.175,9.908,31.595
		c0-0.751,0.162-1.516,0.41-1.926c0.34-0.574,0.885-0.871,1.586-0.871c0.524,0,0.978,0.17,1.296,0.503
		c0.198,0.198,0.34,0.417,0.425,0.651c0.177,0.488,0.27,1.055,0.27,1.643c0,0.856-0.185,1.614-0.496,2.046
		c-0.354,0.496-0.85,0.743-1.501,0.743C11.373,34.384,10.935,34.214,10.602,33.881z M11.013,29.647
		c-0.149,0.163-0.263,0.34-0.319,0.517c-0.148,0.432-0.219,0.914-0.219,1.431c0,0.658,0.142,1.352,0.332,1.685
		c0.248,0.411,0.616,0.616,1.098,0.616c0.354,0,0.658-0.113,0.871-0.333c0.156-0.163,0.27-0.347,0.333-0.552
		c0.148-0.439,0.22-0.906,0.22-1.431c0-0.616-0.135-1.316-0.319-1.649c-0.233-0.425-0.616-0.645-1.111-0.645
		C11.529,29.286,11.239,29.407,11.013,29.647z"/>
	<path fill="#231815" d="M16.094,29.584c0,0.446-0.354,0.8-0.793,0.8c-0.446,0-0.801-0.354-0.801-0.8
		c0-0.439,0.354-0.793,0.801-0.793C15.739,28.791,16.094,29.145,16.094,29.584z M14.819,29.584c0,0.269,0.212,0.481,0.481,0.481
		c0.262,0,0.475-0.213,0.475-0.481c0-0.262-0.213-0.475-0.475-0.475C15.031,29.109,14.819,29.322,14.819,29.584z"/>
</g>
<g>
	<path fill="#231815" d="M4.946,83.29c0.113,0.368,0.213,0.517,0.433,0.672c0.24,0.17,0.552,0.255,0.913,0.255
		c0.821,0,1.338-0.425,1.338-1.097c0-0.701-0.503-1.083-1.444-1.083c-0.198,0-0.375,0.014-0.566,0.036v-0.56
		c0.163,0.028,0.333,0.042,0.523,0.042c0.468,0,0.814-0.106,1.034-0.326c0.177-0.17,0.283-0.432,0.283-0.687
		c0-0.609-0.425-0.963-1.14-0.963c-0.432,0-0.744,0.12-0.941,0.375c-0.1,0.127-0.149,0.241-0.227,0.503L4.564,80.33
		c0.12-0.361,0.205-0.523,0.382-0.708c0.312-0.34,0.793-0.517,1.409-0.517c1.026,0,1.678,0.538,1.678,1.388
		c0,0.432-0.184,0.814-0.495,1.034c-0.185,0.134-0.34,0.191-0.666,0.255c0.411,0.042,0.63,0.121,0.871,0.304
		c0.312,0.241,0.475,0.616,0.475,1.069c0,0.956-0.736,1.551-1.919,1.551c-0.715,0-1.246-0.198-1.586-0.581
		c-0.148-0.17-0.233-0.325-0.361-0.687L4.946,83.29z"/>
	<path fill="#231815" d="M9.716,84.203c-0.19-0.191-0.34-0.411-0.425-0.651c-0.177-0.496-0.269-1.055-0.269-1.636
		c0-0.75,0.163-1.515,0.41-1.926c0.34-0.573,0.886-0.871,1.586-0.871c0.524,0,0.978,0.17,1.296,0.502
		c0.198,0.198,0.34,0.418,0.425,0.651c0.177,0.489,0.269,1.055,0.269,1.643c0,0.857-0.184,1.614-0.495,2.046
		c-0.354,0.496-0.85,0.744-1.501,0.744C10.488,84.706,10.049,84.536,9.716,84.203z M10.127,79.969
		c-0.148,0.163-0.262,0.34-0.318,0.517c-0.149,0.432-0.22,0.913-0.22,1.43c0,0.659,0.142,1.353,0.333,1.686
		c0.247,0.41,0.615,0.616,1.097,0.616c0.354,0,0.659-0.113,0.871-0.333c0.155-0.163,0.269-0.347,0.333-0.553
		c0.148-0.438,0.219-0.906,0.219-1.43c0-0.616-0.134-1.317-0.318-1.65c-0.233-0.425-0.615-0.644-1.111-0.644
		C10.644,79.608,10.354,79.729,10.127,79.969z"/>
	<path fill="#231815" d="M15.208,79.905c0,0.446-0.354,0.8-0.793,0.8c-0.446,0-0.8-0.354-0.8-0.8c0-0.438,0.354-0.793,0.8-0.793
		C14.854,79.112,15.208,79.467,15.208,79.905z M13.934,79.905c0,0.27,0.212,0.481,0.481,0.481c0.262,0,0.474-0.212,0.474-0.481
		c0-0.262-0.212-0.474-0.474-0.474C14.146,79.431,13.934,79.644,13.934,79.905z"/>
</g>
<g>
	<path fill="#231815" d="M53.74,2.287c-0.254,0-0.445,0.014-0.623,0.042v-0.51c0.143,0.028,0.313,0.042,0.623,0.042h1.232V0.899
		c0-0.312-0.014-0.524-0.043-0.736h0.546c-0.036,0.191-0.043,0.411-0.043,0.736v4.75c0,0.333,0.007,0.538,0.043,0.744H54.93
		c0.029-0.206,0.043-0.425,0.043-0.75V4.758c-0.475,0.269-0.913,0.488-1.558,0.778c-0.113,0.057-0.205,0.1-0.276,0.135l-0.191-0.488
		c0.227-0.057,0.361-0.1,0.623-0.213c0.553-0.24,0.886-0.41,1.402-0.715V2.287H53.74z M57.012,5.451c0,0.128,0.028,0.185,0.12,0.22
		c0.1,0.035,0.326,0.057,0.666,0.057c0.623,0,0.843-0.057,0.941-0.241c0.085-0.17,0.155-0.644,0.163-1.197
		c0.155,0.106,0.248,0.142,0.445,0.206c-0.042,0.765-0.162,1.239-0.354,1.43c-0.17,0.17-0.475,0.227-1.189,0.227
		c-1.02,0-1.253-0.113-1.253-0.588V0.892c0-0.354-0.015-0.552-0.043-0.729h0.546c-0.036,0.227-0.043,0.425-0.043,0.729v1.699
		c0.531-0.297,1.033-0.637,1.466-0.991c0.177-0.148,0.304-0.269,0.41-0.403l0.354,0.39c-0.1,0.078-0.135,0.099-0.262,0.205
		c-0.581,0.475-1.126,0.835-1.969,1.296V5.451z"/>
	<path fill="#231815" d="M60.877,0.729c0-0.396-0.007-0.574-0.035-0.729h0.481c-0.028,0.191-0.035,0.375-0.035,0.722v0.673h0.19
		c0.199,0,0.333-0.007,0.461-0.028v0.439c-0.092-0.021-0.241-0.028-0.453-0.028h-0.185c0.149,0.531,0.347,0.914,0.666,1.274
		c-0.113,0.163-0.128,0.184-0.22,0.389C61.5,3.051,61.38,2.789,61.26,2.393c0.021,0.616,0.028,0.758,0.028,1.027v2.23
		c0,0.39,0.014,0.609,0.042,0.808h-0.495c0.028-0.206,0.042-0.453,0.042-0.821V3.639c0-0.304,0.015-0.658,0.035-1.09
		c-0.219,0.935-0.403,1.437-0.793,2.103c-0.099-0.184-0.162-0.269-0.275-0.382c0.445-0.644,0.793-1.522,0.984-2.492h-0.283
		c-0.163,0-0.34,0.014-0.496,0.036V1.366c0.127,0.021,0.276,0.028,0.496,0.028h0.332V0.729z M61.678,5.713
		c0.212,0.028,0.403,0.042,0.729,0.042h3.285c0.34,0,0.56-0.014,0.744-0.042v0.481c-0.227-0.028-0.433-0.036-0.751-0.036h-3.285
		c-0.298,0-0.503,0.007-0.722,0.036V5.713z M63.73,0.729c-0.085,0.297-0.127,0.417-0.24,0.694h0.283c0.354,0,0.46-0.007,0.566-0.021
		c-0.015,0.276-0.015,0.276-0.036,1.006c-0.028,1.154-0.099,2.074-0.19,2.527c-0.1,0.446-0.234,0.552-0.68,0.552
		c-0.185,0-0.433-0.014-0.616-0.036c-0.007-0.191-0.028-0.283-0.078-0.432c0.276,0.057,0.488,0.085,0.68,0.085
		c0.262,0,0.283-0.042,0.361-0.666c0.077-0.609,0.113-1.465,0.12-2.662h-0.623c-0.007,0-0.148,0.007-0.418,0.014
		c0.178-0.297,0.333-0.687,0.439-1.062H62.52c-0.297,0-0.523,0.014-0.736,0.036V0.297c0.205,0.028,0.418,0.043,0.744,0.043h3.079
		c0.347,0,0.56-0.015,0.751-0.043v0.468c-0.213-0.021-0.446-0.036-0.744-0.036H63.73z M62.414,4.56c-0.143,0-0.241,0.007-0.39,0.014
		c0.007-0.134,0.014-0.269,0.014-0.432V2.527c0-0.148-0.007-0.269-0.021-0.396c0.127,0.014,0.269,0.021,0.432,0.021h0.467
		c0.205,0,0.333-0.007,0.461-0.021c-0.015,0.113-0.015,0.177-0.015,0.375v1.707c0,0.113,0.007,0.212,0.015,0.361
		c-0.199-0.014-0.27-0.014-0.39-0.014H62.414z M62.414,4.205h0.573V2.499h-0.573V4.205z M66.272,1.904
		c-0.17,0.977-0.347,1.564-0.63,2.11c0.269,0.439,0.48,0.68,0.877,0.984c-0.092,0.092-0.177,0.22-0.247,0.383
		c-0.383-0.347-0.588-0.588-0.85-0.999c-0.263,0.396-0.496,0.659-0.928,1.034c-0.078-0.142-0.148-0.22-0.276-0.326
		c0.461-0.347,0.708-0.623,0.991-1.069c-0.283-0.553-0.41-0.978-0.552-1.891c-0.106,0.007-0.135,0.007-0.22,0.021V1.734
		c0.135,0.021,0.29,0.028,0.56,0.028h0.785c0.149,0,0.27-0.007,0.404-0.014L66.272,1.904z M65.026,2.131
		c0.085,0.673,0.184,1.048,0.396,1.487c0.227-0.524,0.312-0.829,0.403-1.487H65.026z"/>
</g>
<g>
	<path fill="#231815" d="M55.879,108.68c0-0.347-0.014-0.481-0.05-0.687h0.546c-0.036,0.212-0.05,0.354-0.05,0.687h2.251
		c0.348,0,0.553-0.015,0.729-0.05v0.503c-0.227-0.028-0.438-0.043-0.729-0.043h-2.251v0.729h1.911c0.291,0,0.461-0.007,0.638-0.028
		c-0.021,0.184-0.028,0.34-0.028,0.595v3.392c0,0.446-0.163,0.566-0.779,0.566c-0.227,0-0.46-0.015-0.736-0.036
		c-0.014-0.17-0.042-0.291-0.12-0.46c0.312,0.057,0.573,0.078,0.843,0.078c0.269,0,0.34-0.035,0.34-0.184v-3.526h-4.426v3.498
		c0,0.417,0.008,0.552,0.036,0.729h-0.531c0.028-0.198,0.042-0.389,0.042-0.75V110.4c0-0.248-0.007-0.417-0.027-0.609
		c0.19,0.021,0.354,0.028,0.644,0.028h1.749v-0.729h-2.117c-0.297,0-0.517,0.015-0.722,0.043v-0.503
		c0.233,0.035,0.432,0.05,0.722,0.05H55.879z M56.402,111.299c0.248-0.312,0.411-0.608,0.56-0.97l0.425,0.127
		c-0.191,0.354-0.332,0.581-0.531,0.842h0.539c0.297,0,0.445-0.007,0.623-0.035v0.453c-0.191-0.028-0.354-0.035-0.623-0.035h-1.105
		v0.757h1.049c0.29,0,0.445-0.007,0.623-0.036v0.446c-0.178-0.028-0.354-0.035-0.623-0.035h-1.049v0.616
		c0,0.382,0.008,0.574,0.036,0.8h-0.503c0.028-0.241,0.035-0.425,0.035-0.793v-0.623h-0.85c-0.269,0-0.46,0.007-0.645,0.035v-0.446
		c0.185,0.028,0.34,0.036,0.652,0.036h0.842v-0.757h-0.955c-0.276,0-0.439,0.007-0.616,0.035v-0.453
		c0.177,0.028,0.333,0.035,0.637,0.035H56.402z M55.234,110.315c0.178,0.262,0.34,0.545,0.461,0.786l-0.361,0.156
		c-0.113-0.255-0.276-0.524-0.468-0.779L55.234,110.315z"/>
	<path fill="#231815" d="M60.877,108.729c0-0.396-0.007-0.574-0.035-0.729h0.481c-0.028,0.191-0.035,0.375-0.035,0.722v0.673h0.19
		c0.199,0,0.333-0.007,0.461-0.028v0.439c-0.092-0.021-0.241-0.028-0.453-0.028h-0.185c0.149,0.531,0.347,0.914,0.666,1.274
		c-0.113,0.163-0.128,0.184-0.22,0.389c-0.248-0.389-0.368-0.651-0.488-1.048c0.021,0.616,0.028,0.758,0.028,1.027v2.23
		c0,0.39,0.014,0.609,0.042,0.808h-0.495c0.028-0.206,0.042-0.453,0.042-0.821v-1.997c0-0.304,0.015-0.658,0.035-1.09
		c-0.219,0.935-0.403,1.437-0.793,2.103c-0.099-0.184-0.162-0.269-0.275-0.382c0.445-0.644,0.793-1.522,0.984-2.492h-0.283
		c-0.163,0-0.34,0.014-0.496,0.036v-0.446c0.127,0.021,0.276,0.028,0.496,0.028h0.332V108.729z M61.678,113.713
		c0.212,0.028,0.403,0.042,0.729,0.042h3.285c0.34,0,0.56-0.014,0.744-0.042v0.481c-0.227-0.028-0.433-0.036-0.751-0.036h-3.285
		c-0.298,0-0.503,0.007-0.722,0.036V113.713z M63.73,108.729c-0.085,0.297-0.127,0.417-0.24,0.694h0.283
		c0.354,0,0.46-0.007,0.566-0.021c-0.015,0.276-0.015,0.276-0.036,1.006c-0.028,1.154-0.099,2.074-0.19,2.527
		c-0.1,0.446-0.234,0.552-0.68,0.552c-0.185,0-0.433-0.014-0.616-0.036c-0.007-0.191-0.028-0.283-0.078-0.432
		c0.276,0.057,0.488,0.085,0.68,0.085c0.262,0,0.283-0.042,0.361-0.666c0.077-0.609,0.113-1.465,0.12-2.662h-0.623
		c-0.007,0-0.148,0.007-0.418,0.014c0.178-0.297,0.333-0.687,0.439-1.062H62.52c-0.297,0-0.523,0.014-0.736,0.036v-0.468
		c0.205,0.028,0.418,0.043,0.744,0.043h3.079c0.347,0,0.56-0.015,0.751-0.043v0.468c-0.213-0.021-0.446-0.036-0.744-0.036H63.73z
		 M62.414,112.56c-0.143,0-0.241,0.007-0.39,0.014c0.007-0.134,0.014-0.269,0.014-0.432v-1.614c0-0.148-0.007-0.269-0.021-0.396
		c0.127,0.014,0.269,0.021,0.432,0.021h0.467c0.205,0,0.333-0.007,0.461-0.021c-0.015,0.113-0.015,0.177-0.015,0.375v1.707
		c0,0.113,0.007,0.212,0.015,0.361c-0.199-0.014-0.27-0.014-0.39-0.014H62.414z M62.414,112.205h0.573v-1.706h-0.573V112.205z
		 M66.272,109.904c-0.17,0.977-0.347,1.564-0.63,2.11c0.269,0.439,0.48,0.68,0.877,0.984c-0.092,0.092-0.177,0.22-0.247,0.383
		c-0.383-0.347-0.588-0.588-0.85-0.999c-0.263,0.396-0.496,0.659-0.928,1.034c-0.078-0.142-0.148-0.22-0.276-0.326
		c0.461-0.347,0.708-0.623,0.991-1.069c-0.283-0.553-0.41-0.978-0.552-1.891c-0.106,0.007-0.135,0.007-0.22,0.021v-0.418
		c0.135,0.021,0.29,0.028,0.56,0.028h0.785c0.149,0,0.27-0.007,0.404-0.014L66.272,109.904z M65.026,110.131
		c0.085,0.673,0.184,1.048,0.396,1.487c0.227-0.524,0.312-0.829,0.403-1.487H65.026z"/>
</g>
<g>
	<path fill="#231815" d="M22.42,97.756c-0.093-0.227-0.143-0.326-0.248-0.446c-0.213-0.234-0.488-0.354-0.843-0.354
		c-0.552,0-0.97,0.298-1.225,0.878c-0.185,0.425-0.248,0.751-0.298,1.522c0.128-0.22,0.198-0.318,0.354-0.453
		c0.333-0.297,0.708-0.432,1.196-0.432c1.098,0,1.777,0.68,1.777,1.77c0,1.098-0.736,1.82-1.855,1.82
		c-0.502,0-0.977-0.163-1.281-0.446c-0.46-0.425-0.715-1.218-0.715-2.224c0-0.885,0.198-1.678,0.538-2.138
		c0.375-0.51,0.878-0.772,1.493-0.772c0.426,0,0.808,0.106,1.076,0.297c0.248,0.177,0.39,0.368,0.596,0.793L22.42,97.756z
		 M21.279,98.946c-0.354,0-0.729,0.156-0.977,0.404c-0.234,0.233-0.354,0.545-0.354,0.899c0,0.765,0.573,1.331,1.339,1.331
		c0.46,0,0.885-0.219,1.104-0.574c0.113-0.184,0.185-0.474,0.185-0.75C22.575,99.42,22.107,98.946,21.279,98.946z"/>
	<path fill="#231815" d="M24.548,101.565c-0.19-0.191-0.34-0.411-0.425-0.651c-0.177-0.496-0.269-1.055-0.269-1.636
		c0-0.75,0.163-1.515,0.41-1.926c0.34-0.573,0.886-0.871,1.586-0.871c0.524,0,0.978,0.17,1.296,0.502
		c0.198,0.198,0.34,0.418,0.425,0.651c0.177,0.489,0.269,1.055,0.269,1.643c0,0.857-0.184,1.614-0.495,2.046
		c-0.354,0.496-0.85,0.744-1.501,0.744C25.32,102.068,24.881,101.898,24.548,101.565z M24.959,97.332
		c-0.148,0.163-0.262,0.34-0.318,0.517c-0.149,0.432-0.22,0.913-0.22,1.43c0,0.659,0.142,1.353,0.333,1.686
		c0.247,0.41,0.615,0.616,1.097,0.616c0.354,0,0.659-0.113,0.871-0.333c0.155-0.163,0.269-0.347,0.333-0.553
		c0.148-0.438,0.219-0.906,0.219-1.43c0-0.616-0.134-1.317-0.318-1.65c-0.233-0.425-0.615-0.644-1.111-0.644
		C25.476,96.971,25.186,97.091,24.959,97.332z"/>
	<path fill="#231815" d="M30.04,97.268c0,0.446-0.354,0.8-0.793,0.8c-0.446,0-0.8-0.354-0.8-0.8c0-0.438,0.354-0.793,0.8-0.793
		C29.686,96.475,30.04,96.829,30.04,97.268z M28.766,97.268c0,0.27,0.212,0.481,0.481,0.481c0.262,0,0.474-0.212,0.474-0.481
		c0-0.262-0.212-0.474-0.474-0.474C28.978,96.793,28.766,97.006,28.766,97.268z"/>
</g>
<g>
	<path fill="#231815" d="M22.42,12.423c-0.093-0.227-0.143-0.326-0.248-0.446c-0.213-0.234-0.488-0.354-0.843-0.354
		c-0.552,0-0.97,0.298-1.225,0.878c-0.185,0.425-0.248,0.751-0.298,1.522c0.128-0.22,0.198-0.318,0.354-0.453
		c0.333-0.297,0.708-0.432,1.196-0.432c1.098,0,1.777,0.68,1.777,1.77c0,1.098-0.736,1.82-1.855,1.82
		c-0.502,0-0.977-0.163-1.281-0.446c-0.46-0.425-0.715-1.218-0.715-2.224c0-0.885,0.198-1.678,0.538-2.138
		c0.375-0.51,0.878-0.772,1.493-0.772c0.426,0,0.808,0.106,1.076,0.297c0.248,0.177,0.39,0.368,0.596,0.793L22.42,12.423z
		 M21.279,13.612c-0.354,0-0.729,0.156-0.977,0.404c-0.234,0.233-0.354,0.545-0.354,0.899c0,0.765,0.573,1.331,1.339,1.331
		c0.46,0,0.885-0.219,1.104-0.574c0.113-0.184,0.185-0.474,0.185-0.75C22.575,14.086,22.107,13.612,21.279,13.612z"/>
	<path fill="#231815" d="M24.548,16.232c-0.19-0.191-0.34-0.411-0.425-0.651c-0.177-0.496-0.269-1.055-0.269-1.636
		c0-0.75,0.163-1.515,0.41-1.926c0.34-0.573,0.886-0.871,1.586-0.871c0.524,0,0.978,0.17,1.296,0.502
		c0.198,0.198,0.34,0.418,0.425,0.651c0.177,0.489,0.269,1.055,0.269,1.643c0,0.857-0.184,1.614-0.495,2.046
		c-0.354,0.496-0.85,0.744-1.501,0.744C25.32,16.735,24.881,16.565,24.548,16.232z M24.959,11.998
		c-0.148,0.163-0.262,0.34-0.318,0.517c-0.149,0.432-0.22,0.913-0.22,1.43c0,0.659,0.142,1.353,0.333,1.686
		c0.247,0.41,0.615,0.616,1.097,0.616c0.354,0,0.659-0.113,0.871-0.333c0.155-0.163,0.269-0.347,0.333-0.553
		c0.148-0.438,0.219-0.906,0.219-1.43c0-0.616-0.134-1.317-0.318-1.65c-0.233-0.425-0.615-0.644-1.111-0.644
		C25.476,11.637,25.186,11.757,24.959,11.998z"/>
	<path fill="#231815" d="M30.04,11.934c0,0.446-0.354,0.8-0.793,0.8c-0.446,0-0.8-0.354-0.8-0.8c0-0.438,0.354-0.793,0.8-0.793
		C29.686,11.141,30.04,11.496,30.04,11.934z M28.766,11.934c0,0.27,0.212,0.481,0.481,0.481c0.262,0,0.474-0.212,0.474-0.481
		c0-0.262-0.212-0.474-0.474-0.474C28.978,11.46,28.766,11.672,28.766,11.934z"/>
</g>
</svg>
