<?xml version="1.0" encoding="utf-8"?>
<!-- Generator: Adobe Illustrator 16.0.3, SVG Export Plug-In . SVG Version: 6.00 Build 0)  -->
<!DOCTYPE svg PUBLIC "-//W3C//DTD SVG 1.1//EN" "http://www.w3.org/Graphics/SVG/1.1/DTD/svg11.dtd">
<svg version="1.1" id="レイヤー_1" xmlns="http://www.w3.org/2000/svg" xmlns:xlink="http://www.w3.org/1999/xlink" x="0px"
	 y="0px" width="291.103px" height="149.079px" viewBox="0 0 291.103 149.079" enable-background="new 0 0 291.103 149.079"
	 xml:space="preserve">
<polygon fill="#FFFFFF" stroke="#231815" stroke-miterlimit="10" points="152.269,0.587 290.603,22.921 290.602,53.92 
	152.269,31.587 "/>
<line fill="none" stroke="#231815" stroke-miterlimit="10" x1="0.597" y1="95.158" x2="152.269" y2="0.587"/>
<line fill="none" stroke="#231815" stroke-miterlimit="10" x1="0.597" y1="126.062" x2="152.269" y2="31.492"/>
<line fill="none" stroke="#231815" stroke-miterlimit="10" x1="138.93" y1="117.586" x2="290.603" y2="23.016"/>
<polygon fill="#CE9551" stroke="#231815" stroke-linecap="round" stroke-linejoin="round" stroke-miterlimit="10" points="
	290.603,53.92 138.93,148.491 138.93,117.491 290.506,23.016 "/>
<path fill="#67FF4B" stroke="#231815" stroke-linecap="round" stroke-linejoin="round" stroke-miterlimit="10" d="M253.176,46.292
	c0,0-24.563,0.427-33.813,1.58s-18,0.517-22-0.79s-23-2.807-32.25-3.307s-22.25,2.199-28,2.35s-16,4.9-22.5,3.4
	s-14.945-4.941-17.438-7.25c-1.958-1.814-5.097-4.218-5.098-4.218l60.095-37.47l138.333,22.333L253.176,46.292z"/>
<path fill="#67FF4B" stroke="#231815" stroke-linecap="round" stroke-linejoin="round" stroke-miterlimit="10" d="M177.065,93.749
	c0,0-14.869-12.641-22.201-13.307c-7.333-0.666-19.333,1.051-27.667-10.141s-8-14.235-17-16.38S91.894,42.65,90.947,41.38
	c-0.917-1.229-1.113-1.923-1.113-1.923L0.5,95.158l138.334,22.333L177.065,93.749z"/>
<path fill="#00EDFF" stroke="#231815" stroke-linecap="round" stroke-linejoin="round" stroke-miterlimit="10" d="M177.065,124.712
	V93.749c0,0-14.869-12.641-22.201-13.307c-7.333-0.666-19.333,1.051-27.667-10.141s-8-14.235-17-16.38S91.894,42.65,90.947,41.38
	c-0.917-1.229-1.113-1.923-1.113-1.923l2.245-1.399c0,0,3.14,2.404,5.098,4.218c2.492,2.309,10.938,5.75,17.438,7.25
	s16.75-3.25,22.5-3.4s18.75-2.85,28-2.35s28.25,2,32.25,3.307s12.75,1.943,22,0.79s33.813-1.58,33.813-1.58v30.964L177.065,124.712z
	"/>
<polygon fill="#B27020" stroke="#231815" stroke-miterlimit="10" points="0.597,95.158 138.93,117.491 138.93,148.491 
	0.596,126.158 "/>
</svg>
