<?xml version="1.0" encoding="utf-8"?>
<!-- Generator: Adobe Illustrator 16.0.3, SVG Export Plug-In . SVG Version: 6.00 Build 0)  -->
<!DOCTYPE svg PUBLIC "-//W3C//DTD SVG 1.1//EN" "http://www.w3.org/Graphics/SVG/1.1/DTD/svg11.dtd">
<svg version="1.1" id="レイヤー_1" xmlns="http://www.w3.org/2000/svg" xmlns:xlink="http://www.w3.org/1999/xlink" x="0px"
	 y="0px" width="449.235px" height="129.644px" viewBox="0 0 449.235 129.644" enable-background="new 0 0 449.235 129.644"
	 xml:space="preserve">
<linearGradient id="rect3130_1_" gradientUnits="userSpaceOnUse" x1="172.7407" y1="959.6621" x2="172.7407" y2="912.4751" gradientTransform="matrix(0.6226 0 0 -0.4982 117.1113 569.3345)">
	<stop  offset="0" style="stop-color:#D52C00"/>
	<stop  offset="1" style="stop-color:#F48C00"/>
</linearGradient>
<path id="rect3130" fill="url(#rect3130_1_)" d="M0.735,72.607v56.628h220.811h9.544h217.482V72.607H231.09h-9.544H0.735
	L0.735,72.607z"/>
<path id="rect3979" fill="#C5BFBF" d="M161.648,68.119v5.438h50.481h7.052h62.261v-5.438h-62.261h-7.052H161.648z"/>
<radialGradient id="rect3132_1_" cx="233.8638" cy="1325.4629" r="167.411" gradientTransform="matrix(1.2586 0 0 -0.1889 -28.0269 304.4615)" gradientUnits="userSpaceOnUse">
	<stop  offset="0" style="stop-color:#4755E7"/>
	<stop  offset="0.7304" style="stop-color:#23A9EE"/>
	<stop  offset="1" style="stop-color:#00FDF6"/>
</radialGradient>
<path id="rect3132" fill="url(#rect3132_1_)" d="M132.436,20.328v43.698h91.418h11.313h75.502V20.328h-75.502h-11.313H132.436z"/>
<path id="path3975" fill="#3E382B" stroke="#757575" d="M266.686,68.971l-23.004,3.169l-16.783-1.408H221.5l-1.057-5.047
	l0.704-22.534l4.226-13.263l4.341,4.46l-0.543,10.679l0.783-9.028l6.824,3.83l-0.387,14.327l0.838-9.987l9.951,0.816l1.494,10.747
	l-0.25-6.058l12.531,0.083l0.705,8.921l0.125-6.058l10.498,1.659L266.686,68.971z"/>
<path id="path3134" fill="#7B2406" stroke="#985454" stroke-width="2" d="M360.167,33.762l15.492-31.924
	c0,0,17.369,10.094,30.75,13.614c14.271,3.023,30.463,8.396,41.826,12.405v72.568c0,0-91.455-5.028-100.75-5.028
	s-48.133-6.639-54.773-9.627c-6.639-2.987-32.863-14.938-32.863-14.938l22.24-33.86l11.078,0.83l-6.805,20.084l0.623,0.082
	l12.367-38.175l12.781,1.161l-5.395,29.711h0.082l9.045-45.063l21.428,4.232L326.09,39.297l0.482,0.166l14.854-38.259l29.846,8.216
	l-11.229,24.297L360.167,33.762z"/>
<path id="path3138" d="M380.358,59.587v1.756h24.088v-1.756H380.358z"/>
<path id="path3140" stroke="#000000" stroke-width="3.8584" stroke-miterlimit="5" d="M423.112,60.462l-24.891,6.993V53.469
	L423.112,60.462z"/>
<path id="path3931" fill="#3E382B" stroke="#757575" d="M176.409,68.971l23.004,3.169l16.783-1.408h5.398l1.057-5.047l-0.704-22.534
	l-4.226-13.263l-4.343,4.46l0.543,10.679l-0.782-9.028l-6.825,3.83l0.388,14.327l-0.837-9.987l-9.952,0.816l-1.494,10.747
	l0.249-6.058l-12.531,0.083l-0.705,8.921l-0.125-6.058l-10.498,1.659L176.409,68.971z"/>
<path id="path3933" fill="#7B2406" stroke="#985454" stroke-width="2" d="M89.07,34.592L73.577,2.668c0,0-17.37,10.094-30.75,13.614
	C28.555,19.305,12.364,21.627,1,25.636v75.619c0,0,91.455-5.027,100.75-5.027s48.134-6.639,54.774-9.627
	c6.639-2.987,32.864-14.938,32.864-14.938l-22.242-33.859l-11.077,0.83l6.805,20.083l-0.624,0.083l-12.365-38.175l-12.782,1.161
	l5.395,29.711h-0.081l-9.046-45.063l-21.427,4.232l11.204,29.461l-0.482,0.166L107.809,2.034L77.964,10.25l11.228,24.296
	L89.07,34.592z"/>
<path id="path3937" d="M70.371,59.587v1.756H46.283v-1.756H70.371z"/>
<path id="path3939" stroke="#000000" stroke-width="3.8584" stroke-miterlimit="5" d="M27.617,60.462l24.891,6.993V53.469
	L27.617,60.462z"/>
<path fill="#FFFFFF" d="M16.526,116.512c1.216,1.257,1.815,1.946,3.29,3.832c0.696-0.729,1.556-1.703,2.155-2.494
	c0.892-1.176,1.993-3.001,2.674-4.4c0.049-0.102,0.064-0.121,0.13-0.243c-0.228,0.021-0.228,0.021-9.253,0.04
	c-0.875,0-1.329,0.021-1.88,0.082v-1.603c0.567,0.102,0.956,0.122,1.896,0.122h9.447c0.567,0,0.648-0.021,0.908-0.143l0.681,1.015
	c-0.195,0.243-0.309,0.426-0.648,1.074c-1.588,3.103-3.306,5.536-5.348,7.604c0.615,0.832,1.28,1.886,2.366,3.691l-0.989,1.034
	c-1.475-2.94-3.889-6.267-6.319-8.721L16.526,116.512z"/>
<path fill="#FFFFFF" d="M28.543,124.177c1.264-0.061,3.208-0.689,4.715-1.562c3.128-1.744,5.3-4.725,6.612-9.024
	c0.372,0.629,0.534,0.812,0.988,1.197c-1.297,3.528-2.804,5.9-4.942,7.746c-1.669,1.42-3.338,2.251-6.045,3.021
	c-0.438,0.122-0.566,0.162-0.972,0.324L28.543,124.177z M29.581,111.604c1.733,1.38,2.738,2.373,3.905,3.813l-0.843,1.258
	c-1.167-1.582-2.447-2.9-3.856-3.975L29.581,111.604z"/>
<path fill="#FFFFFF" d="M44.694,126.569c0.064-0.547,0.097-1.034,0.097-2.129v-12.593c0-1.075-0.032-1.562-0.097-2.068h1.394
	c-0.065,0.526-0.081,0.953-0.081,2.108v3.792c2.495,1.115,4.375,2.231,7.211,4.279l-0.696,1.501c-1.523-1.339-3.76-2.84-6.045-4.016
	c-0.243-0.122-0.356-0.203-0.502-0.345l-0.033,0.021c0.049,0.405,0.065,0.689,0.065,1.196v6.104c0,1.136,0.016,1.582,0.081,2.149
	H44.694z"/>
<path fill="#FFFFFF" d="M59.239,110.59c-0.064,0.507-0.064,0.507-0.098,1.744c-0.129,5.496-0.259,6.996-0.875,9.044
	c-0.551,1.887-1.328,3.245-2.803,5.01c-0.324-0.527-0.486-0.71-0.973-1.096c1.329-1.318,2.204-2.778,2.738-4.664
	c0.503-1.764,0.729-4.421,0.729-8.699c0-0.73-0.017-0.974-0.064-1.44L59.239,110.59z M63.257,110.367
	c-0.081,0.486-0.097,0.852-0.097,1.784L63.063,124.4c1.345-0.629,2.172-1.278,3.015-2.353c0.891-1.156,1.522-2.494,1.912-4.056
	c0.34,0.547,0.47,0.729,0.907,1.176c-0.794,2.332-1.863,4.016-3.257,5.212c-0.714,0.608-1.361,1.014-2.317,1.48
	c-0.292,0.142-0.292,0.142-0.519,0.243c-0.194,0.102-0.228,0.121-0.373,0.223l-0.648-0.933c0.098-0.345,0.113-0.507,0.113-1.379
	l0.098-11.863c0-1.318,0-1.318-0.064-1.805L63.257,110.367z"/>
<path fill="#FFFFFF" d="M22.899,79.017c-0.016-0.163-0.032-0.264-0.032-0.386c0-1.136,0.746-2.068,1.669-2.068
	c0.924,0,1.67,0.933,1.67,2.089c0,1.155-0.746,2.089-1.67,2.089c-0.113,0-0.21-0.021-0.356-0.062
	c-0.566,2.637-1.328,4.847-2.252,6.489c-0.956,1.724-2.398,3.407-3.986,4.645c-0.924,0.729-1.653,1.176-2.981,1.805
	c-0.243-0.649-0.373-0.872-0.795-1.399c1.459-0.548,2.415-1.115,3.663-2.149c2.657-2.23,4.196-5.131,5.104-9.673h-8.249
	c-0.826,0-1.279,0.02-1.814,0.121v-1.622c0.616,0.102,0.939,0.122,1.831,0.122h7.973H22.899z M23.547,78.651
	c0,0.669,0.454,1.237,0.988,1.237c0.552,0,0.989-0.548,0.989-1.237s-0.438-1.237-0.989-1.237
	C23.985,77.414,23.547,77.962,23.547,78.651z"/>
<path fill="#FFFFFF" d="M30.395,77.617c-0.049,0.426-0.081,0.953-0.081,1.805L30.265,91.65c1.863-0.386,3.338-1.015,4.635-2.028
	c1.62-1.257,2.706-2.718,3.646-4.867c0.405,0.71,0.503,0.872,0.892,1.277c-2.22,4.138-4.602,6.023-8.929,7.078
	c-0.632,0.162-0.713,0.183-0.939,0.304L28.92,92.4c0.081-0.345,0.113-0.568,0.113-1.318l0.032-11.62v-0.75
	c0-0.405-0.016-0.648-0.049-1.095H30.395z"/>
<path fill="#FFFFFF" d="M41.878,84.572c0.47,0.102,0.907,0.122,2.009,0.122h9.415c1.199,0,1.459-0.021,1.961-0.102v1.643
	c-0.519-0.061-0.892-0.081-1.977-0.081h-9.399c-1.183,0-1.523,0.021-2.009,0.081V84.572z"/>
<path fill="#FFFFFF" d="M59.697,93.819c0.064-0.547,0.097-1.034,0.097-2.129V79.098c0-1.075-0.032-1.562-0.097-2.068h1.394
	c-0.065,0.526-0.081,0.953-0.081,2.108v3.792c2.495,1.115,4.375,2.231,7.211,4.279l-0.696,1.501c-1.523-1.339-3.76-2.84-6.045-4.016
	c-0.243-0.122-0.356-0.203-0.502-0.345l-0.033,0.021c0.049,0.405,0.065,0.689,0.065,1.196v6.104c0,1.136,0.016,1.582,0.081,2.149
	H59.697z"/>
<path fill="#FFFFFF" d="M79.914,93.069c-0.13-0.729-0.308-1.439-0.503-2.068l-0.842-2.616h-5.656l-0.843,2.616
	c-0.242,0.771-0.389,1.358-0.502,2.068h-1.686c0.324-0.669,0.438-0.974,0.875-2.332l3.63-11.194
	c0.309-0.952,0.438-1.419,0.519-1.886h1.637c0.065,0.386,0.146,0.649,0.552,1.886l3.63,11.194c0.404,1.217,0.615,1.805,0.858,2.332
	H79.914z M76.089,80.294c-0.049-0.162-0.049-0.183-0.356-1.298c-0.081,0.304-0.146,0.527-0.179,0.669
	c-0.097,0.324-0.146,0.548-0.178,0.629l-2.074,6.691h4.877L76.089,80.294z"/>
<path fill="#FFFFFF" d="M379.508,79.017c-0.016-0.163-0.032-0.264-0.032-0.386c0-1.136,0.746-2.068,1.669-2.068
	c0.924,0,1.67,0.933,1.67,2.089c0,1.155-0.746,2.089-1.67,2.089c-0.113,0-0.21-0.021-0.356-0.062
	c-0.566,2.637-1.328,4.847-2.252,6.489c-0.956,1.724-2.398,3.407-3.986,4.645c-0.924,0.729-1.653,1.176-2.981,1.805
	c-0.243-0.649-0.373-0.872-0.795-1.399c1.459-0.548,2.415-1.115,3.663-2.149c2.657-2.23,4.196-5.131,5.104-9.673h-8.249
	c-0.826,0-1.279,0.02-1.814,0.121v-1.622c0.616,0.102,0.939,0.122,1.831,0.122h7.973H379.508z M380.157,78.651
	c0,0.669,0.454,1.237,0.988,1.237c0.552,0,0.989-0.548,0.989-1.237s-0.438-1.237-0.989-1.237
	C380.594,77.414,380.157,77.962,380.157,78.651z"/>
<path fill="#FFFFFF" d="M387.004,77.617c-0.049,0.426-0.081,0.953-0.081,1.805l-0.049,12.229c1.863-0.386,3.338-1.015,4.635-2.028
	c1.62-1.257,2.706-2.718,3.646-4.867c0.405,0.71,0.503,0.872,0.892,1.277c-2.22,4.138-4.602,6.023-8.929,7.078
	c-0.632,0.162-0.713,0.183-0.939,0.304L385.53,92.4c0.081-0.345,0.113-0.568,0.113-1.318l0.032-11.62v-0.75
	c0-0.405-0.016-0.648-0.049-1.095H387.004z"/>
<path fill="#FFFFFF" d="M398.488,84.572c0.47,0.102,0.907,0.122,2.009,0.122h9.415c1.199,0,1.459-0.021,1.961-0.102v1.643
	c-0.519-0.061-0.892-0.081-1.977-0.081h-9.399c-1.183,0-1.523,0.021-2.009,0.081V84.572z"/>
<path fill="#FFFFFF" d="M416.306,93.819c0.064-0.547,0.097-1.034,0.097-2.129V79.098c0-1.075-0.032-1.562-0.097-2.068h1.394
	c-0.065,0.526-0.081,0.953-0.081,2.108v3.792c2.495,1.115,4.375,2.231,7.211,4.279l-0.696,1.501c-1.523-1.339-3.76-2.84-6.045-4.016
	c-0.243-0.122-0.356-0.203-0.502-0.345l-0.033,0.021c0.049,0.405,0.065,0.689,0.065,1.196v6.104c0,1.136,0.016,1.582,0.081,2.149
	H416.306z"/>
<path fill="#FFFFFF" d="M429.295,93.069c-0.713,0-1.215,0.021-1.782,0.061c0.113-0.811,0.146-1.338,0.146-2.514v-10.85
	c0-0.872-0.032-1.42-0.13-2.149c0.503,0.04,0.827,0.04,1.767,0.04h3.451c2.351,0,3.663,1.339,3.663,3.731
	c0,1.177-0.292,2.068-0.875,2.718c-0.341,0.365-0.633,0.547-1.28,0.811c0.745,0.183,1.134,0.386,1.571,0.853
	c0.665,0.709,1.005,1.743,1.005,3.041c0,2.718-1.426,4.259-3.905,4.259H429.295z M432.731,84.269c1.507,0,2.398-0.994,2.398-2.697
	c0-1.683-0.811-2.535-2.415-2.535h-3.808v5.232H432.731z M428.907,91.69h3.905c1.767,0,2.706-1.055,2.706-3.001
	c0-2.008-0.939-3.042-2.738-3.042h-3.873V91.69z"/>
<path fill="#FFFFFF" d="M384.135,116.512c1.216,1.257,1.815,1.946,3.29,3.832c0.696-0.729,1.556-1.703,2.155-2.494
	c0.892-1.176,1.993-3.001,2.674-4.4c0.049-0.102,0.064-0.121,0.13-0.243c-0.228,0.021-0.228,0.021-9.253,0.04
	c-0.875,0-1.329,0.021-1.88,0.082v-1.603c0.567,0.102,0.956,0.122,1.896,0.122h9.447c0.567,0,0.648-0.021,0.908-0.143l0.681,1.015
	c-0.195,0.243-0.309,0.426-0.648,1.074c-1.588,3.103-3.306,5.536-5.348,7.604c0.615,0.832,1.28,1.886,2.366,3.691l-0.989,1.034
	c-1.475-2.94-3.889-6.267-6.319-8.721L384.135,116.512z"/>
<path fill="#FFFFFF" d="M396.153,124.177c1.264-0.061,3.208-0.689,4.715-1.562c3.128-1.744,5.3-4.725,6.612-9.024
	c0.372,0.629,0.534,0.812,0.988,1.197c-1.297,3.528-2.804,5.9-4.942,7.746c-1.669,1.42-3.338,2.251-6.045,3.021
	c-0.438,0.122-0.566,0.162-0.972,0.324L396.153,124.177z M397.19,111.604c1.733,1.38,2.738,2.373,3.905,3.813l-0.843,1.258
	c-1.167-1.582-2.447-2.9-3.856-3.975L397.19,111.604z"/>
<path fill="#FFFFFF" d="M412.303,126.569c0.064-0.547,0.097-1.034,0.097-2.129v-12.593c0-1.075-0.032-1.562-0.097-2.068h1.394
	c-0.065,0.526-0.081,0.953-0.081,2.108v3.792c2.495,1.115,4.375,2.231,7.211,4.279l-0.696,1.501c-1.523-1.339-3.76-2.84-6.045-4.016
	c-0.243-0.122-0.356-0.203-0.502-0.345l-0.033,0.021c0.049,0.405,0.065,0.689,0.065,1.196v6.104c0,1.136,0.016,1.582,0.081,2.149
	H412.303z"/>
<path fill="#FFFFFF" d="M426.848,110.59c-0.064,0.507-0.064,0.507-0.098,1.744c-0.129,5.496-0.259,6.996-0.875,9.044
	c-0.551,1.887-1.328,3.245-2.803,5.01c-0.324-0.527-0.486-0.71-0.973-1.096c1.329-1.318,2.204-2.778,2.738-4.664
	c0.503-1.764,0.729-4.421,0.729-8.699c0-0.73-0.017-0.974-0.064-1.44L426.848,110.59z M430.867,110.367
	c-0.081,0.486-0.097,0.852-0.097,1.784l-0.098,12.249c1.345-0.629,2.172-1.278,3.015-2.353c0.891-1.156,1.522-2.494,1.912-4.056
	c0.34,0.547,0.47,0.729,0.907,1.176c-0.794,2.332-1.863,4.016-3.257,5.212c-0.714,0.608-1.361,1.014-2.317,1.48
	c-0.292,0.142-0.292,0.142-0.519,0.243c-0.194,0.102-0.228,0.121-0.373,0.223l-0.648-0.933c0.098-0.345,0.113-0.507,0.113-1.379
	l0.098-11.863c0-1.318,0-1.318-0.064-1.805L430.867,110.367z"/>
<path fill="#FF100A" d="M216.458,71.524c0,0,1.717-12.71,2-13.986c1.141-5.145,3.75-14.218,3.75-14.218l8.125,23.073l0.625,12.5
	l2.5-9.5c0,0,5.688,36.25,4.469,60.25h-27.969c0,0-2.25-47.225,6.5-65.112"/>
<path id="path4954_2_" d="M223.023,129.235h1.756v-24.088h-1.756V129.235z"/>
<path id="path5148_2_" stroke="#000000" stroke-width="3.8584" stroke-miterlimit="5" d="M223.898,86.481l6.993,24.891h-13.986
	L223.898,86.481z"/>
<path fill="#FFFFFF" d="M204.917,71.012c1.216,1.257,1.815,1.946,3.29,3.832c0.696-0.729,1.556-1.703,2.155-2.494
	c0.892-1.176,1.993-3.001,2.674-4.4c0.049-0.102,0.064-0.121,0.13-0.243c-0.228,0.021-0.228,0.021-9.253,0.04
	c-0.875,0-1.329,0.021-1.88,0.082v-1.603c0.567,0.102,0.956,0.122,1.896,0.122h9.447c0.567,0,0.648-0.021,0.908-0.143l0.681,1.015
	c-0.195,0.243-0.309,0.426-0.648,1.074c-1.588,3.103-3.306,5.536-5.348,7.604c0.615,0.832,1.28,1.886,2.366,3.691l-0.989,1.034
	c-1.475-2.94-3.889-6.267-6.319-8.721L204.917,71.012z"/>
<path fill="#FFFFFF" d="M222.023,64.461c-0.146,0.264-0.146,0.264-0.356,0.832c-0.422,1.095-0.567,1.439-0.745,1.784
	c0.162-0.04,0.291-0.061,0.583-0.061l4.083-0.081c0.566-0.021,0.615-0.021,0.826-0.143l0.875,1.055
	c-0.145,0.243-0.145,0.264-0.324,0.994c-0.648,2.717-1.814,5.455-3.175,7.401c-1.491,2.13-3.273,3.752-5.64,5.07
	c-0.259-0.589-0.389-0.771-0.811-1.196c2.447-1.237,4.165-2.778,5.721-5.131c1.248-1.866,2.22-4.238,2.788-6.773l-5.461,0.102
	c-0.988,2.008-2.285,3.792-3.873,5.272c-0.275-0.507-0.438-0.669-0.907-1.034c1.718-1.42,2.949-3.103,4.067-5.577
	c0.615-1.317,0.939-2.251,1.021-2.94L222.023,64.461z M227.323,64.34c0.664,1.055,0.973,1.663,1.49,2.88l-0.811,0.547
	c-0.404-1.074-0.811-1.886-1.49-2.94L227.323,64.34z M228.797,63.468c0.664,1.055,0.973,1.643,1.49,2.88l-0.811,0.547
	c-0.404-1.074-0.811-1.906-1.49-2.94L228.797,63.468z"/>
<path fill="#FFFFFF" d="M234.137,71.012c1.215,1.257,1.814,1.946,3.289,3.832c0.697-0.729,1.557-1.703,2.156-2.494
	c0.891-1.176,1.992-3.001,2.674-4.4c0.049-0.102,0.064-0.121,0.129-0.243c-0.227,0.021-0.227,0.021-9.252,0.04
	c-0.875,0-1.33,0.021-1.881,0.082v-1.603c0.566,0.102,0.957,0.122,1.896,0.122h9.447c0.566,0,0.648-0.021,0.908-0.143l0.68,1.015
	c-0.195,0.243-0.309,0.426-0.648,1.074c-1.588,3.103-3.305,5.536-5.348,7.604c0.615,0.832,1.281,1.886,2.367,3.691l-0.99,1.034
	c-1.475-2.94-3.889-6.267-6.318-8.721L234.137,71.012z"/>
<path d="M207.026,13.089c1.118,0.893,1.637,1.379,2.642,2.555l-0.697,0.974c-0.826-1.115-1.377-1.683-2.576-2.616L207.026,13.089z
	 M209.83,19.639c-0.584,2.23-1.248,4.259-1.88,5.698c-0.179,0.426-0.179,0.426-0.275,0.67l-0.924-0.913
	c0.615-0.811,1.523-3.387,2.236-6.307L209.83,19.639z M208.047,8.039c0.989,0.933,1.621,1.643,2.383,2.657l-0.746,0.953
	c-0.907-1.339-1.394-1.906-2.365-2.738L208.047,8.039z M219.034,9.783c1.167,0,1.637-0.021,2.106-0.122v1.359
	c-0.373-0.062-0.907-0.081-2.042-0.081h-6.385c-0.729,1.622-1.166,2.372-2.106,3.69c-0.227-0.385-0.47-0.669-0.794-0.933
	c1.054-1.177,1.75-2.434,2.463-4.441c0.243-0.689,0.39-1.257,0.438-1.744l1.135,0.284c-0.081,0.223-0.081,0.223-0.243,0.791
	c-0.113,0.385-0.211,0.669-0.421,1.196H219.034z M211.92,23.188c-0.097,0.446-0.146,0.649-0.291,1.318l-1.103-0.183
	c0.47-1.562,0.826-3.447,1.135-5.922h-0.098c-0.664,0-1.021,0.021-1.49,0.122v-1.379c0.389,0.081,0.81,0.122,1.556,0.122h0.162
	c0.178-1.765,0.275-3.042,0.275-3.731c0-0.041,0-0.243-0.017-0.588c0.194,0.02,0.664,0.04,1.15,0.04h5.153
	c0.826,0,1.135-0.021,1.686-0.081c-0.081,0.527-0.081,0.71-0.146,3.063c-0.016,0.405-0.016,0.669-0.048,1.298h0.113
	c0.745,0,1.102-0.021,1.507-0.122v1.379c-0.486-0.081-0.956-0.122-1.507-0.122h-0.179c-0.016,0.203-0.016,0.203-0.032,0.568
	c-0.049,0.852-0.13,1.886-0.259,3.082h0.178c0.632,0,0.892-0.02,1.28-0.121v1.338c-0.421-0.061-0.745-0.081-1.313-0.081h-0.292
	c-0.324,2.353-0.615,2.778-1.944,2.778c-0.373,0-0.907-0.04-1.782-0.122c0-0.526-0.049-0.811-0.179-1.298
	c0.697,0.163,1.345,0.244,1.799,0.244c0.826,0,0.892-0.102,1.135-1.603H211.92z M212.666,18.401
	c-0.098,0.974-0.211,1.684-0.535,3.65h2.609c0.291-1.987,0.291-1.987,0.438-3.65H212.666z M215.291,17.267
	c0.113-1.399,0.113-1.542,0.178-3.185h-2.431c-0.081,1.379-0.113,1.806-0.243,3.185H215.291z M216.134,18.401
	c-0.162,1.663-0.162,1.663-0.438,3.65h2.836c0.113-1.115,0.194-2.008,0.291-3.65H216.134z M218.889,17.267
	c0.032-0.812,0.064-1.968,0.081-3.185h-2.545c-0.081,1.339-0.146,2.414-0.194,3.185H218.889z"/>
<path d="M226.999,11.974c0.486,1.196,1.508,2.434,2.82,3.487c-0.211,0.284-0.355,0.629-0.502,1.075
	c-1.377-1.257-1.945-1.967-2.805-3.528c-0.598,1.196-0.971,1.764-1.684,2.636c-0.567,0.689-0.956,1.075-1.75,1.765
	c-0.275-0.588-0.275-0.608-0.6-1.014c1.49-1.196,2.479-2.353,3.176-3.731c0.129-0.243,0.227-0.487,0.291-0.689H226.999z
	 M224.649,19.74c-0.713,0-1.021,0.021-1.523,0.122v-1.258c0.405,0.081,0.681,0.102,1.523,0.102h2.998
	c0.893,0,1.199-0.021,1.539-0.081c-0.047,0.507-0.064,0.912-0.064,1.765v2.514c0,1.096-0.258,1.48-1.037,1.48
	c-0.258,0-0.615-0.02-1.102-0.101c-0.016-0.446-0.064-0.71-0.211-1.136c0.471,0.121,0.777,0.162,1.102,0.162
	c0.26,0,0.342-0.102,0.342-0.426V19.74h-2.092v4.259c0,1.115,0.018,1.663,0.098,2.149h-1.15c0.064-0.527,0.097-1.095,0.097-2.149
	V19.74H224.649z M229.592,8.992c0-0.527-0.033-0.974-0.098-1.46h1.199c-0.064,0.446-0.098,0.893-0.098,1.439v1.116h4.699V9.459
	c0-0.507-0.016-0.812-0.064-1.258h1.135c-0.064,0.406-0.08,0.73-0.08,1.197v0.669c0,0.446,0.016,0.729,0.031,1.115
	c-0.453-0.021-0.762-0.041-1.068-0.041h-10.113c-0.292,0-0.551,0.021-1.037,0.041c0.017-0.324,0.032-0.73,0.032-1.055V9.398
	c0-0.446-0.016-0.73-0.081-1.197h1.135c-0.049,0.406-0.065,0.73-0.065,1.258v0.629h4.473V8.992z M224.553,16.15
	c0.34,0.062,0.47,0.062,1.084,0.062h1.523c0.617,0,0.713,0,1.07-0.062v1.116c-0.34-0.062-0.486-0.062-1.07-0.062h-1.523
	c-0.566,0-0.728,0-1.084,0.062V16.15z M232.67,23.837c-1.199,1.196-1.879,1.683-3.207,2.352c-0.229-0.426-0.373-0.628-0.648-0.953
	c1.377-0.526,2.057-0.973,3.078-2.068L232.67,23.837z M235.329,14.935c0.697,0,1.07-0.021,1.377-0.082
	c-0.031,0.446-0.049,0.893-0.049,1.663v4.745c0,0.67,0.018,1.116,0.049,1.623c-0.615-0.021-0.939-0.041-1.361-0.041h-3.598
	c-0.404,0-0.695,0-1.408,0.041c0.031-0.527,0.047-1.015,0.047-1.582v-4.766c0-0.669-0.016-1.196-0.064-1.663
	c0.422,0.041,0.73,0.062,1.395,0.062h0.744c0.211-0.508,0.324-0.872,0.471-1.359h-1.879c-0.746,0-1.104,0.021-1.541,0.102V12.46
	c0.422,0.081,0.779,0.102,1.541,0.102h4.795c0.762,0,1.119-0.021,1.523-0.102v1.237c-0.486-0.102-0.793-0.122-1.523-0.122h-1.943
	c-0.162,0.487-0.291,0.872-0.486,1.359H235.329z M231.293,17.246h4.457v-1.358h-4.457V17.246z M231.293,19.558h4.457v-1.399h-4.457
	V19.558z M231.293,21.89h4.457v-1.419h-4.457V21.89z M234.891,23.106c0.973,0.994,1.67,1.521,2.9,2.149
	c-0.26,0.325-0.422,0.588-0.615,1.015c-1.313-0.872-1.928-1.399-2.982-2.535L234.891,23.106z"/>
</svg>
