<?xml version="1.0" encoding="utf-8"?>
<!-- Generator: Adobe Illustrator 16.0.3, SVG Export Plug-In . SVG Version: 6.00 Build 0)  -->
<!DOCTYPE svg PUBLIC "-//W3C//DTD SVG 1.1//EN" "http://www.w3.org/Graphics/SVG/1.1/DTD/svg11.dtd">
<svg version="1.1" id="レイヤー_1" xmlns="http://www.w3.org/2000/svg" xmlns:xlink="http://www.w3.org/1999/xlink" x="0px"
	 y="0px" width="726.441px" height="270.957px" viewBox="0 0 726.441 270.957" enable-background="new 0 0 726.441 270.957"
	 xml:space="preserve">
<rect x="1" y="35.305" fill="none" stroke="#000000" stroke-width="2" stroke-miterlimit="10" width="166.667" height="166.667"/>
<rect x="365.901" y="1" fill="none" stroke="#000000" stroke-width="2" stroke-miterlimit="10" width="359.54" height="235.277"/>
<g>
	<path d="M50.256,178.419c-0.156-0.858-0.442-1.977-0.728-2.73l-1.04-2.834h-8.32l-1.04,2.834c-0.468,1.248-0.572,1.638-0.78,2.73
		h-4.264c0.39-0.702,0.91-1.873,1.378-3.068l5.72-15.003c0.494-1.3,0.702-1.95,0.832-2.626h4.524c0.13,0.624,0.286,1.04,0.884,2.626
		l5.772,15.003c0.65,1.664,0.962,2.392,1.326,3.068H50.256z M44.77,162.168c-0.104-0.286-0.182-0.599-0.468-1.456
		c-0.416,1.222-0.416,1.222-0.494,1.456l-2.704,7.696h6.448L44.77,162.168z"/>
	<path d="M69.106,177.613c0,1.223,0.026,1.872,0.13,2.652H66.09c0.13-0.78,0.156-1.482,0.156-2.704v-6.526
		c-1.014,0.936-1.56,1.352-2.886,2.21c-0.312-0.988-0.78-1.924-1.326-2.704c1.82-1.04,3.068-2.028,4.472-3.51
		c1.222-1.274,1.976-2.34,2.834-4.004h-4.238c-0.937,0-1.482,0.025-2.185,0.104v-2.886c0.65,0.077,1.196,0.104,2.054,0.104h1.3
		v-2.184c0-0.677-0.052-1.378-0.156-1.977h3.146c-0.104,0.599-0.156,1.17-0.156,2.028v2.132h1.066c0.806,0,1.17-0.026,1.508-0.078
		l1.248,1.353c-0.234,0.39-0.39,0.649-0.572,1.092c-0.858,1.872-1.352,2.73-2.6,4.446c1.222,1.378,2.418,2.313,4.134,3.302
		c-0.624,0.832-1.014,1.561-1.43,2.549c-1.352-0.885-2.236-1.639-3.354-2.938V177.613z M80.13,176.391h3.12
		c1.3,0,2.158-0.052,2.964-0.156v3.146c-0.91-0.13-1.924-0.183-2.964-0.183h-8.893c-1.04,0-2.028,0.053-2.938,0.183v-3.146
		c0.832,0.104,1.742,0.156,2.99,0.156h2.834v-10.167h-1.95c-0.884,0-1.716,0.053-2.548,0.131v-2.938
		c0.754,0.104,1.43,0.13,2.548,0.13h1.95v-4.576c0-1.066-0.052-1.69-0.182-2.704h3.25c-0.156,1.04-0.182,1.586-0.182,2.704v4.576
		h2.756c1.17,0,1.82-0.026,2.548-0.13v2.938c-0.832-0.078-1.638-0.131-2.548-0.131H80.13V176.391z"/>
	<path d="M93.364,161.336c-1.43,0-2.34,0.052-3.354,0.156v-3.068c0.91,0.104,1.794,0.156,3.38,0.156h13.988
		c1.534,0,2.366-0.053,3.354-0.156v3.068c-1.066-0.104-1.924-0.156-3.328-0.156h-5.72v13.91h6.968c1.508,0,2.496-0.052,3.536-0.182
		v3.146c-0.962-0.13-2.132-0.182-3.536-0.182H92.064c-1.352,0-2.444,0.052-3.536,0.182v-3.146c1.066,0.13,2.002,0.182,3.588,0.182
		h6.5v-13.91H93.364z"/>
	<path d="M124.876,172.231c-1.092,0.962-1.664,1.352-3.198,2.21c-0.313-0.572-0.442-0.754-0.988-1.378
		c-1.482,0.91-2.756,1.586-5.174,2.729c-0.026,0.026-0.156,0.104-0.338,0.208c-0.052,0.026-0.156,0.053-0.26,0.13l-0.65-3.042
		c0.702-0.155,1.638-0.493,2.938-1.04v-6.89h-0.754c-0.754,0-1.352,0.025-2.028,0.13v-2.782c0.598,0.104,1.196,0.13,2.054,0.13
		h0.728v-3.224c0-1.326-0.052-2.106-0.156-2.887h3.016c-0.13,0.832-0.156,1.534-0.156,2.912v3.198h0.468
		c0.858,0,1.378-0.025,1.846-0.104v2.729c-0.624-0.078-1.118-0.104-1.82-0.104h-0.494v5.59c0.702-0.364,0.91-0.494,1.742-0.962
		v1.794c1.43-0.858,2.34-1.638,3.094-2.626h-0.572c-1.092,0-1.794,0.052-2.418,0.13v-2.6c0.598,0.104,1.274,0.13,2.444,0.13h11.362
		c1.248,0,2.054-0.053,2.704-0.156v2.6c-0.728-0.077-1.56-0.104-2.678-0.104h-7.956c-0.234,0.416-0.364,0.598-0.702,1.066h8.269
		c1.274,0,1.768-0.026,2.522-0.078c-0.052,0.416-0.078,0.754-0.104,1.534c-0.13,3.275-0.52,5.901-1.066,7.072
		c-0.52,1.195-1.352,1.534-3.64,1.534c-0.702,0-1.17-0.026-2.185-0.078c-0.104-0.963-0.312-1.639-0.702-2.393
		c-1.404,1.223-2.496,1.95-4.291,2.86c-0.572-0.858-0.988-1.3-1.872-1.977c2.288-0.987,3.38-1.638,4.732-2.808
		c1.066-0.91,1.898-1.977,2.704-3.458h-1.56c-1.586,2.418-3.822,4.186-7.202,5.694c-0.442-0.807-0.832-1.248-1.664-1.977
		c2.964-1.092,4.68-2.158,6.032-3.718H124.876z M125.656,165.523c-1.014,0-1.872,0.025-2.392,0.104
		c0.078-0.729,0.104-1.482,0.104-2.522v-3.796c0-1.118-0.026-1.56-0.104-2.366c0.806,0.104,1.404,0.13,2.626,0.13h7.566
		c1.3,0,2.028-0.025,2.782-0.13c-0.078,0.729-0.104,1.248-0.104,2.574v3.588c0,1.145,0.026,1.898,0.104,2.496
		c-0.546-0.052-1.326-0.077-2.366-0.077H125.656z M126.046,160.453h7.358v-1.093h-7.358V160.453z M126.046,163.417h7.358v-1.066
		h-7.358V163.417z M133.977,172.231c-1.014,2.21-2.028,3.614-3.64,5.096c1.066,0.156,1.924,0.208,2.678,0.208
		c0.962,0,1.248-0.26,1.482-1.378c0.182-0.91,0.312-2.054,0.442-3.926H133.977z"/>
</g>
<g>
	<path fill="#E94619" d="M248.381,133.675c-1.08,0.24-1.53,0.33-3.09,0.57c-0.21-0.9-0.54-1.62-1.2-2.79
		c2.88-0.3,4.89-0.78,7.29-1.649c0.84-0.33,1.32-0.54,1.86-0.931l1.86,2.641c-2.04,0.899-2.04,0.899-3.6,1.38v3.989h0.96
		c0.99,0,1.5-0.029,2.07-0.12v3.12c-0.6-0.09-1.14-0.12-2.07-0.12h-0.81c1.11,1.98,1.53,2.46,3.18,3.9
		c-0.54,0.84-0.84,1.439-1.44,2.88c-0.84-0.99-1.08-1.32-2.07-2.91c0.12,0.87,0.18,2.189,0.18,3.33v6.18
		c0,1.68,0.06,2.67,0.18,3.689h-3.479c0.12-1.02,0.18-1.95,0.18-3.689v-5.19c0-0.869,0.06-2.189,0.18-3.449
		c-0.87,2.58-1.95,4.529-3.6,6.689c-0.39-1.229-0.87-2.16-1.59-3.21c1.83-1.95,3.72-5.34,4.59-8.22h-1.62
		c-1.05,0-1.59,0.03-2.31,0.15v-3.18c0.66,0.12,1.17,0.149,2.31,0.149h2.04V133.675z M266.291,140.965
		c-0.18,0.24-0.18,0.24-0.45,0.69c-0.09,0.149-0.36,0.51-0.63,0.899h2.64c1.08,0,1.68-0.03,2.31-0.12l1.77,1.86
		c-0.39,0.689-0.39,0.689-0.75,1.41c-0.24,0.42-1.47,2.31-1.83,2.819c-1.74,2.34-4.53,4.59-7.53,6.12
		c-2.19,1.109-4.02,1.71-6.99,2.279c-0.42-1.229-0.84-1.949-1.62-3.029c3.57-0.45,5.609-1.141,8.58-2.79
		c-0.93-0.99-1.11-1.14-2.4-2.1l2.28-1.681c1.53,1.141,1.77,1.32,2.64,2.101c1.53-1.23,2.46-2.28,3.84-4.26h-5.189
		c-2.25,2.13-4.35,3.6-7.2,4.89c-0.54-0.87-1.08-1.53-1.95-2.46c3.72-1.38,7.38-3.99,9-6.45c-2.22,1.5-4.26,2.521-7.05,3.51
		c-0.51-1.109-0.93-1.71-1.83-2.67c3-0.84,4.11-1.319,6.39-2.64c-0.12-0.09-0.18-0.18-0.24-0.24c-0.54-0.6-0.6-0.689-0.93-0.96
		c-0.06-0.06-0.18-0.18-0.39-0.329c-0.12-0.12-0.33-0.271-0.6-0.48l2.19-1.62c1.32,1.021,1.62,1.26,2.37,2.01
		c1.74-1.35,2.52-2.13,3.66-3.749h-5.4c-1.56,1.619-3.12,2.85-5.37,4.14c-0.57-0.931-1.08-1.561-1.89-2.25
		c2.31-1.14,4.44-2.79,5.88-4.56c0.57-0.75,1.2-1.801,1.32-2.311l3.18,0.96c-0.18,0.24-0.18,0.24-0.51,0.78
		c-0.03,0.03-0.12,0.15-0.24,0.33c-0.06,0.06-0.15,0.18-0.27,0.33h3.45c1.08,0,1.65-0.03,2.28-0.12l1.68,1.8
		c-0.33,0.479-0.33,0.479-0.84,1.26c-1.59,2.46-3.06,4.02-5.64,5.97L266.291,140.965z"/>
	<path fill="#E94619" d="M282.312,154.195c0,0.96,0.06,1.71,0.18,2.64h-3.33c0.15-0.96,0.21-1.739,0.21-2.79v-1.829h-2.58
		c-1.26,0-2.04,0.029-2.91,0.18v-3.12c0.81,0.12,1.41,0.15,2.76,0.15h2.73v-1.771h-1.41c-1.35,0-2.07,0.03-3.06,0.09
		c0.09-0.96,0.12-1.949,0.12-3.359v-5.01c0-1.44-0.03-2.22-0.12-3.15c0.84,0.091,1.41,0.12,3,0.12h1.47v-1.77h-2.49
		c-1.29,0-1.86,0.03-2.76,0.12v-3.03c0.81,0.12,1.44,0.15,2.91,0.15h2.34v-0.3c0-0.9-0.06-1.591-0.18-2.431h3.3
		c-0.15,0.811-0.21,1.5-0.21,2.431v0.3h2.1c1.47,0,2.07-0.03,2.91-0.15v3.03c-0.87-0.09-1.29-0.12-2.76-0.12h-2.25v1.77h1.89
		c1.38,0,1.95-0.029,2.52-0.09c-0.06,0.63-0.09,1.32-0.09,2.91v5.34c0,1.8,0.03,2.52,0.09,3.239c-0.6-0.06-1.2-0.09-2.64-0.09h-1.74
		v1.771h2.31c1.11,0,1.62-0.03,2.46-0.15v3.09c-0.84-0.12-1.5-0.149-2.73-0.149h-2.04V154.195z M277.602,138.956v1.8h1.86v-1.8
		H277.602z M277.602,143.095v1.95h1.86v-1.95H277.602z M284.051,140.755v-1.8h-1.83v1.8H284.051z M284.051,145.045v-1.95h-1.83v1.95
		H284.051z M290.321,142.015c-1.2,0-2.01,0.03-2.85,0.15v-3.33c0.84,0.15,1.62,0.18,2.94,0.18h7.979c1.35,0,2.1-0.029,2.94-0.18
		v3.33c-0.84-0.12-1.68-0.15-2.94-0.15h-3.93c-0.93,3.84-1.92,6.99-3.15,10.2c2.43-0.301,3.9-0.54,5.76-0.9
		c-0.84-2.34-1.41-3.72-2.37-5.819l2.76-1.08c1.86,3.93,2.88,6.569,4.17,10.799l-2.94,1.44c-0.36-1.38-0.36-1.38-0.78-2.729
		c-1.23,0.3-1.98,0.479-3.24,0.749c-0.54,0.091-2.67,0.45-6.39,1.08c-1.08,0.181-1.26,0.21-1.74,0.301l-0.69-3.391
		c0.78-0.029,1.17-0.029,2.13-0.12c1.5-3.989,2.67-7.89,3.15-10.529H290.321z M288.491,131.096c0.81,0.149,1.44,0.18,2.91,0.18h6.03
		c1.44,0,2.07-0.03,2.88-0.18v3.239c-0.12,0.03-0.18,0.03-0.24,0.03c-0.03,0-0.03,0-0.479-0.061c-0.45-0.029-1.26-0.06-2.16-0.06
		h-6.03c-1.38,0-2.1,0.03-2.91,0.15V131.096z"/>
</g>
<g>
	<path d="M526.933,47.108c-0.88,2.46-1.52,3.581-2.94,5.081c2.541,1.021,4.142,1.78,6.781,3.221l-0.96,1.141
		c-2.36-1.48-4.261-2.461-6.761-3.481c-0.621,0.54-1.28,0.98-2.021,1.381c-0.921,0.5-2.321,1.08-3.661,1.52
		c-0.8,0.261-1.4,0.421-2.74,0.7c-0.2-0.5-0.4-0.84-0.74-1.26c2.32-0.4,3.801-0.84,5.621-1.62c0.82-0.36,1.48-0.74,2.2-1.24
		c-1.841-0.7-3.16-1.101-5.441-1.661c1.24-1.56,1.721-2.26,2.601-3.78h-2.92c-0.86,0-1.421,0.04-2.021,0.12v-1.421
		c0.56,0.101,1.06,0.12,2.021,0.12h3.561c0.8-1.54,1.14-2.34,1.34-3.24l1.44,0.32c-0.14,0.279-0.14,0.279-0.32,0.68l-1.06,2.24
		h8.281c0.94,0,1.48-0.04,2.021-0.12v1.421c-0.56-0.08-1.16-0.12-2.021-0.12H526.933z M521.632,40.367c0-0.66-0.04-1.141-0.12-1.661
		h1.541c-0.08,0.461-0.12,0.98-0.12,1.661v0.5h5.721c0.84,0,1.44-0.021,2.16-0.101c-0.079,0.46-0.1,0.94-0.1,1.521v1.141
		c0,0.5,0.021,0.96,0.1,1.4h-1.34v-2.801h-13.983v2.801h-1.34c0.06-0.46,0.1-0.9,0.1-1.4v-1.141c0-0.54-0.04-1.04-0.1-1.521
		c0.7,0.08,1.32,0.101,2.141,0.101h5.341V40.367z M520.292,47.108c-0.78,1.36-1.12,1.92-2.021,3.181
		c1.92,0.521,2.86,0.82,4.461,1.42c0.6-0.58,1.04-1.1,1.48-1.76c0.6-0.881,0.859-1.421,1.34-2.841H520.292z"/>
	<path d="M535.372,47.768c0-1,0-1.5,0.06-2.4c-0.48,1-0.94,1.74-1.761,2.86c-0.26-0.46-0.439-0.72-0.8-1.101
		c1.42-1.6,2.461-3.42,3.36-5.861c0.46-1.26,0.601-1.82,0.761-2.82l1.34,0.48c-0.14,0.359-0.2,0.5-0.38,1.08
		c-0.4,1.28-0.7,2.021-1.36,3.501v11.002c0,1,0.021,1.7,0.1,2.341h-1.439c0.08-0.721,0.12-1.36,0.12-2.4V47.768z M549.274,44.607
		c0.86,0,1.341-0.02,1.761-0.08c-0.061,0.421-0.08,0.9-0.08,1.741v8.201c0,0.86,0.02,1.421,0.12,2.181h-1.36v-1.32h-9.862v1.32
		h-1.36c0.08-0.641,0.12-1.301,0.12-2.12v-8.183c0-0.699-0.04-1.3-0.1-1.82c0.5,0.061,0.96,0.08,1.78,0.08h2v-3.48h-1.761
		c-0.859,0-1.46,0.04-2.08,0.12v-1.4c0.521,0.08,0.96,0.1,2.08,0.12c1.921,0.04,3.901,0.06,5.981,0.06
		c2.801,0,4.441-0.06,5.222-0.18v1.4c-0.58-0.08-1.221-0.12-2.081-0.12h-2.48v3.48H549.274z M539.852,45.727v8.482h2.44v-8.482
		H539.852z M545.973,41.126h-2.48v3.48h2.48V41.126z M543.493,54.209h2.48v-8.482h-2.48V54.209z M547.173,54.209h2.541v-8.482
		h-2.541V54.209z"/>
	<path d="M560.672,39.286c-0.141,0.381-0.16,0.461-0.32,1.281c-0.14,0.68-0.26,1.16-0.54,2.18c1.4-0.12,2.66-0.359,3.581-0.66
		l0.06,1.381c-0.22,0.04-0.22,0.04-0.7,0.12c-0.82,0.18-2.061,0.34-3.28,0.42c-0.62,2.141-1.341,4.001-2.221,5.841
		c-0.48,0.961-0.66,1.301-1.42,2.621c-0.181,0.279-0.301,0.52-0.4,0.68l-1.36-0.8c0.641-0.801,1.181-1.681,1.921-3.121
		c0.92-1.82,1.5-3.261,2.08-5.161c-0.5,0.021-1.181,0.04-1.48,0.04c-0.34,0-1.021-0.02-1.32-0.02c-0.22-0.021-0.38-0.021-0.44-0.021
		c-0.04,0-0.14,0-0.26,0l0.021-1.38c0.68,0.12,1.28,0.16,2.38,0.16c0.4,0,1.061-0.021,1.44-0.021c0.32-1.14,0.641-2.841,0.681-3.761
		L560.672,39.286z M570.174,54.809c-0.78-0.96-2.04-1.96-3.501-2.721c0.04,0.32,0.04,0.44,0.04,0.641
		c0,2.061-1.36,3.201-3.801,3.201c-2.4,0-3.9-1.121-3.9-2.901c0-1.08,0.74-2.08,1.86-2.54c0.7-0.301,1.46-0.44,2.36-0.44
		c0.74,0,1.24,0.08,2.021,0.3c-0.101-1.3-0.141-2.24-0.141-2.74c0-0.72,0.04-1.2,0.2-1.94l1.36,0.14c-0.2,0.74-0.26,1.16-0.26,1.86
		c0,0.9,0.1,2.281,0.22,3.041c1.601,0.7,2.841,1.46,3.921,2.421c0.22,0.22,0.22,0.22,0.36,0.319L570.174,54.809z M563.132,51.229
		c-1.7,0-2.78,0.7-2.78,1.8c0,1.021,0.96,1.641,2.541,1.641c1.72,0,2.5-0.68,2.5-2.181c0-0.24-0.04-0.86-0.04-0.86
		C564.513,51.329,563.933,51.229,563.132,51.229z M570.154,45.788c-1.68-1.16-3.2-1.961-5.301-2.721l0.74-1.12
		c2.32,0.92,3.661,1.601,5.281,2.641L570.154,45.788z"/>
	<path d="M585.593,43.307c1.181-1.66,1.62-2.421,2.501-4.341l1.26,0.54c-1.061,1.86-1.62,2.761-2.381,3.801h1.681
		c0.98,0,1.521-0.021,2.181-0.08c-0.061,0.46-0.08,0.84-0.08,1.54v1.48c0,0.46,0.04,0.86,0.1,1.32h-1.36v-3.141h-13.923v3.141h-1.36
		c0.08-0.54,0.101-0.88,0.101-1.34v-1.421c0-0.68-0.021-1.12-0.08-1.58c0.68,0.06,1.18,0.08,2.16,0.08H585.593z M587.173,47.948
		c0.28-0.02,0.681-0.02,1.2-0.02c0.2-0.021,0.341-0.021,0.641-0.061c-0.04,0.24-0.04,0.42-0.08,1.001
		c-0.14,2.9-0.36,4.801-0.721,5.961c-0.34,1.14-0.979,1.48-2.74,1.48c-0.52,0-1.22-0.04-2.141-0.12c-0.04-0.521-0.1-0.9-0.279-1.36
		c0.899,0.16,1.82,0.24,2.58,0.24c1,0,1.261-0.221,1.5-1.261c0.221-0.96,0.4-2.58,0.48-4.721h-5.301
		c-0.4,1.76-1.001,3.04-1.98,4.181c-0.881,1.021-2.041,1.881-3.481,2.561c-0.34,0.16-0.68,0.32-1.54,0.681
		c-0.28-0.58-0.46-0.82-0.86-1.181c2.141-0.7,3.501-1.44,4.581-2.501c1.04-1.02,1.58-2.04,2.001-3.74h-3.281
		c-0.8,0-1.58,0.04-2.08,0.12v-1.36c0.399,0.06,1.16,0.1,2.08,0.1h3.48c0.101-0.74,0.141-1.36,0.141-1.96
		c0-0.32-0.021-0.48-0.061-0.74h1.461c-0.061,0.28-0.08,0.44-0.12,1.16c-0.021,0.56-0.061,0.96-0.141,1.54H587.173z M577.971,43.007
		c-0.739-1.521-1.1-2.101-2.12-3.381l1.141-0.5c1,1.26,1.32,1.78,2.141,3.32L577.971,43.007z M582.573,42.607
		c-0.62-1.44-0.92-1.98-1.9-3.36l1.14-0.44c0.801,1.101,1.28,1.88,1.94,3.261L582.573,42.607z"/>
	<path d="M594.811,48.728c0-1.14,0.02-1.92,0.08-2.961c-0.42,0.881-0.721,1.381-1.421,2.321c-0.06-0.12-0.119-0.2-0.14-0.261
		c-0.24-0.399-0.32-0.5-0.62-0.84c1.061-1.28,1.82-2.501,2.501-4.041c0.66-1.48,1.14-3.021,1.36-4.32l1.3,0.359
		c-0.14,0.32-0.16,0.36-0.36,1.101c-0.34,1.18-0.82,2.46-1.5,3.94v10.242c0,1.2,0.02,1.78,0.08,2.48h-1.4
		c0.08-0.7,0.12-1.4,0.12-2.5V48.728z M600.672,40.966c-0.9,0.141-1.28,0.2-2.581,0.34c-0.08-0.399-0.159-0.58-0.439-1.02
		c2.141-0.141,3.32-0.301,4.721-0.641c0.94-0.22,1.28-0.34,1.94-0.68l0.7,1.06c-1.261,0.36-1.62,0.44-3.261,0.74v1.501h1.74
		c0.721,0,1.2-0.021,1.681-0.101v1.16c-0.54-0.06-1.021-0.08-1.681-0.08h-1.74v1.261h1.82c0.98,0,1.181,0,1.54-0.04
		c-0.06,0.44-0.06,0.64-0.06,1.681v2.44c0,1.08,0,1.28,0.04,1.74c-0.58-0.04-0.92-0.04-1.58-0.04h-1.761v1.34h1.4
		c0.82,0,1.24-0.02,1.641-0.08v1.121c-0.421-0.061-0.841-0.08-1.621-0.08h-1.42v1.58c1.261-0.16,1.561-0.22,2.74-0.44v1.021
		c-2.44,0.4-4.461,0.7-6.181,0.88c-0.44,0.04-0.86,0.101-1.181,0.16l-0.26-1.28c0.16,0.021,0.38,0.021,0.479,0.021
		c0.62,0,2.041-0.101,3.321-0.24v-1.7h-1.66c-0.82,0-1.24,0.02-1.661,0.08v-1.121c0.381,0.061,0.82,0.08,1.661,0.08h1.66v-1.34
		h-1.521c-0.72,0-1.181,0.02-1.7,0.06c0.06-0.56,0.08-0.979,0.08-1.74v-2.42c0-0.78-0.021-1.2-0.08-1.741
		c0.38,0.04,0.7,0.061,1.66,0.061h1.561v-1.261h-1.761c-0.78,0-1.2,0.021-1.66,0.08v-1.14c0.4,0.06,0.8,0.08,1.66,0.08h1.761V40.966
		z M598.552,45.427v1.501h2.12v-1.501H598.552z M598.552,47.808v1.561h2.12v-1.561H598.552z M604.033,46.928v-1.501h-2.28v1.501
		H604.033z M604.033,49.369v-1.561h-2.28v1.561H604.033z M609.834,43.147c0.74,0,1.14-0.02,1.5-0.06
		c-0.06,0.399-0.06,0.399-0.1,2.72c-0.08,4.381-0.301,7.402-0.641,8.902c-0.3,1.44-0.68,1.801-1.82,1.801
		c-0.4,0-0.9-0.04-1.681-0.12c-0.06-0.561-0.12-0.881-0.239-1.28c0.699,0.14,1.32,0.22,1.72,0.22c0.681,0,0.841-0.3,1.08-2.061
		c0.28-1.88,0.36-3.78,0.44-9.002h-1.681c-0.18,3.321-0.2,3.561-0.439,5.021c-0.54,3.181-1.581,5.841-2.881,7.381
		c-0.4-0.38-0.66-0.56-1.061-0.76c2.081-2.461,3.001-5.821,3.221-11.643h-0.32c-0.6,0-0.88,0.021-1.359,0.101v-1.32
		c0.439,0.08,0.739,0.1,1.359,0.1h0.36c0.021-0.7,0.021-1.301,0.021-1.96c0-1.4-0.021-1.701-0.12-2.321h1.4
		c-0.08,0.5-0.101,0.921-0.12,1.9c0,1.28,0,1.28-0.021,2.381H609.834z"/>
	<path d="M619.752,41.827c0.66-1.4,0.899-2.101,0.96-2.74l1.601,0.279c-0.181,0.261-0.181,0.261-0.521,1.081
		c-0.26,0.64-0.521,1.18-0.62,1.36c0.24-0.021,0.24-0.021,0.42-0.021c3.201-0.16,5.201-0.4,6.302-0.76l0.12,1.36
		c-0.32,0.02-0.44,0.04-0.801,0.1c-2.08,0.28-4.181,0.44-6.602,0.521c-0.6,1.18-1.1,1.98-1.8,2.84c-0.2,0.24-0.601,0.7-0.681,0.761
		c-0.14,0.1-0.239,0.18-0.26,0.2c0,0.02-0.02,0.02-0.02,0.02c0,0.021,0,0.021,0,0.021c0.02,0.04,0.02,0.04,0.04,0.06
		c0.72-0.561,0.72-0.561,0.92-0.7c0.92-0.64,1.98-0.98,3.021-0.98c1.48,0,2.381,0.74,2.641,2.221c1.46-0.58,2.601-1,3.48-1.32
		c0.98-0.34,1.04-0.36,1.36-0.58l0.641,1.4c-1.041,0.18-2.841,0.78-5.342,1.761c0.04,0.52,0.04,0.72,0.04,1.22
		c0,0.26,0,0.7-0.02,1.101c-0.021,0.439-0.021,0.72-0.021,0.9c0,0.279,0,0.439,0.04,0.72l-1.36,0.021
		c0.061-0.44,0.12-1.661,0.12-2.881c0-0.32,0-0.36-0.02-0.601c-2.721,1.28-3.761,2.221-3.761,3.421c0,1.32,1.24,1.9,4.061,1.9
		c1.98,0,4.201-0.32,5.341-0.78l0.181,1.541c-0.301,0.02-0.4,0.039-0.801,0.1c-1.58,0.26-3.32,0.4-4.86,0.4
		c-3.581,0-5.321-1.021-5.321-3.081c0-1.101,0.68-2.141,2.04-3.161c0.681-0.5,1.641-1.02,2.98-1.6
		c-0.16-1.101-0.64-1.581-1.58-1.581c-1.26,0-2.841,0.74-4.461,2.121c-0.78,0.66-1.22,1.12-1.54,1.66l-1.12-1.12
		c1.38-1.061,3.04-3.161,4.48-5.722c0.061-0.1,0.061-0.1,0.181-0.3c-0.08,0.021-0.28,0.04-0.381,0.04c-0.319,0-2.2-0.04-2.94-0.06
		c-0.1,0-0.26,0-0.32,0c-0.18,0-0.22,0-0.439,0.02l0.02-1.38c0.721,0.14,2.24,0.22,4.281,0.22H619.752z"/>
	<path d="M644.673,48.668h-3.601c-0.761,0-1.141,0.02-1.621,0.1v-1.101c-0.78,0.421-1.2,0.62-1.98,0.961v6.562
		c0,1.1-0.439,1.42-1.96,1.42c-0.46,0-0.88-0.021-1.601-0.08c-0.04-0.46-0.1-0.78-0.28-1.26c0.841,0.119,1.341,0.159,1.881,0.159
		c0.58,0,0.74-0.12,0.74-0.56v-5.722c-1.36,0.561-2.16,0.9-2.421,1.021l-0.36-1.34c0.78-0.141,1.32-0.32,2.781-0.921v-4.2h-1.16
		c-0.44,0-0.921,0.04-1.48,0.1v-1.34c0.5,0.079,0.94,0.119,1.5,0.119h1.141v-1.82c0-0.92-0.04-1.46-0.12-2.021h1.46
		c-0.08,0.54-0.12,1.061-0.12,1.98v1.86h0.881c0.72,0,0.96-0.02,1.38-0.1v1.3c-0.36-0.06-0.76-0.079-1.36-0.079h-0.9v3.681
		c0.78-0.32,1.2-0.521,2.161-1.041v1.161c0.439,0.06,0.939,0.08,1.52,0.08h8.322c0.74,0,1.28-0.04,1.78-0.12v1.32
		c-0.52-0.08-1.04-0.12-1.78-0.12h-3.581v2.3h2.661c0.82,0,1.3-0.02,1.74-0.1v1.26c-0.521-0.079-0.92-0.1-1.74-0.1h-2.661v2.881
		c0.82,0.12,1.521,0.18,2.521,0.18c1.001,0,2.081-0.04,3.261-0.14c-0.24,0.52-0.319,0.8-0.38,1.3
		c-1.561,0.021-1.561,0.021-1.801,0.021c-3.42,0-5.261-0.36-6.541-1.261c-0.58-0.399-1.04-0.86-1.7-1.68
		c-0.641,1.34-1.341,2.4-2.32,3.44c-0.32-0.34-0.58-0.54-1.021-0.761c1.2-1.18,1.86-2.14,2.501-3.641c0.42-1,0.66-1.86,0.739-2.761
		l1.301,0.32c-0.12,0.32-0.18,0.48-0.32,1.021c-0.14,0.44-0.26,0.84-0.42,1.26c0.86,1.261,1.681,1.921,2.961,2.381V48.668z
		 M642.493,46.068c-0.74,0-1.301,0.02-1.801,0.06c0.04-0.58,0.061-1.16,0.061-1.88v-2.901c0-0.74-0.021-1.38-0.061-1.86
		c0.58,0.061,1.081,0.08,1.881,0.08h5.441c0.84,0,1.32-0.02,1.88-0.08c-0.06,0.421-0.08,0.881-0.08,1.601v3.241
		c0,0.64,0.021,1.06,0.08,1.8c-0.46-0.04-1.12-0.06-1.92-0.06H642.493z M641.932,42.307h6.682v-1.681h-6.682V42.307z
		 M641.932,45.028h6.682v-1.701h-6.682V45.028z"/>
	<path d="M658.792,38.846c-0.08,0.24-0.16,0.439-0.3,0.88c-0.58,1.7-0.92,2.541-1.521,3.781v10.922c0,0.86,0.04,1.7,0.101,2.341
		h-1.48c0.08-0.7,0.12-1.341,0.12-2.4v-6.562c0-0.92,0.02-1.5,0.06-2.421c-0.66,1.261-1.16,1.98-2.101,3.081
		c-0.06-0.101-0.1-0.16-0.12-0.22c-0.199-0.341-0.199-0.341-0.38-0.561c-0.18-0.2-0.28-0.32-0.3-0.34
		c1.42-1.561,2.461-3.161,3.36-5.161c0.58-1.28,1.041-2.821,1.16-3.761L658.792,38.846z M663.252,51.829
		c-1.36,2.061-2.601,3.401-4.48,4.801c-0.36-0.439-0.561-0.62-1.061-0.96c1.961-1.28,3.201-2.58,4.401-4.581L663.252,51.829z
		 M666.673,43.007v-2.461c0-0.64-0.04-1.16-0.12-1.66h1.501c-0.101,0.52-0.12,1-0.12,1.66v2.461h1.28c0.8,0,1.34-0.04,1.86-0.12v1.4
		c-0.54-0.08-1.08-0.12-1.86-0.12h-1.28v4.921h1.8c0.841,0,1.36-0.04,1.94-0.12v1.42c-0.58-0.08-1.12-0.12-1.94-0.12h-9.842
		c-0.82,0-1.32,0.04-1.921,0.12v-1.42c0.521,0.08,1.081,0.12,1.921,0.12h1.681v-4.921h-1.001c-0.779,0-1.359,0.04-1.86,0.12v-1.4
		c0.521,0.08,1.081,0.12,1.86,0.12h1.001v-2.48c0-0.601-0.04-1.081-0.12-1.641h1.48c-0.08,0.52-0.101,0.98-0.101,1.66v2.461H666.673
		z M666.673,49.088v-4.921h-3.841v4.921H666.673z M667.133,51.008c1.381,2.061,2.621,3.321,4.521,4.581
		c-0.36,0.32-0.641,0.62-1,1.101c-1.701-1.261-3.221-2.881-4.621-4.981L667.133,51.008z"/>
	<path d="M681.752,51.548c0.04-0.62,0.04-0.76,0.04-1.42v-0.72l-0.18-7.122c-0.021-0.84-0.04-1.44-0.12-2.2h1.98
		c-0.061,0.76-0.101,1.36-0.12,2.2l-0.16,7.122c-0.021,0.84-0.021,0.84-0.021,0.92c0,0.36,0.021,0.72,0.061,1.22H681.752z
		 M681.533,55.29v-1.881h1.94v1.881H681.533z"/>
</g>
<g>
	<path d="M572.798,190.519c-0.88,2.46-1.521,3.581-2.94,5.081c2.54,1.021,4.141,1.78,6.781,3.221l-0.96,1.141
		c-2.36-1.48-4.261-2.461-6.762-3.481c-0.62,0.54-1.28,0.98-2.021,1.381c-0.92,0.5-2.32,1.08-3.661,1.52
		c-0.8,0.261-1.399,0.421-2.74,0.7c-0.2-0.5-0.4-0.84-0.74-1.26c2.32-0.4,3.801-0.84,5.621-1.62c0.82-0.36,1.48-0.74,2.201-1.24
		c-1.841-0.7-3.161-1.101-5.441-1.661c1.24-1.56,1.72-2.26,2.601-3.78h-2.921c-0.86,0-1.42,0.04-2.021,0.12v-1.421
		c0.561,0.101,1.061,0.12,2.021,0.12h3.561c0.801-1.54,1.141-2.34,1.341-3.24l1.44,0.32c-0.141,0.279-0.141,0.279-0.32,0.68
		l-1.061,2.24h8.282c0.939,0,1.48-0.04,2.021-0.12v1.421c-0.561-0.08-1.16-0.12-2.021-0.12H572.798z M567.498,183.778
		c0-0.66-0.04-1.141-0.12-1.661h1.54c-0.08,0.461-0.12,0.98-0.12,1.661v0.5h5.722c0.84,0,1.44-0.021,2.16-0.101
		c-0.08,0.46-0.1,0.94-0.1,1.521v1.141c0,0.5,0.02,0.96,0.1,1.4h-1.341v-2.801h-13.982v2.801h-1.341c0.061-0.46,0.101-0.9,0.101-1.4
		v-1.141c0-0.54-0.04-1.04-0.101-1.521c0.7,0.08,1.32,0.101,2.141,0.101h5.342V183.778z M566.157,190.519
		c-0.78,1.36-1.12,1.92-2.021,3.181c1.921,0.521,2.861,0.82,4.461,1.42c0.601-0.58,1.04-1.1,1.48-1.76
		c0.601-0.881,0.86-1.421,1.341-2.841H566.157z"/>
	<path d="M581.236,191.179c0-1,0-1.5,0.06-2.4c-0.479,1-0.939,1.74-1.76,2.86c-0.26-0.46-0.44-0.72-0.801-1.101
		c1.421-1.6,2.461-3.42,3.361-5.861c0.46-1.26,0.6-1.82,0.76-2.82l1.341,0.48c-0.141,0.359-0.2,0.5-0.381,1.08
		c-0.399,1.28-0.699,2.021-1.359,3.501v11.002c0,1,0.02,1.7,0.1,2.341h-1.44c0.08-0.721,0.12-1.36,0.12-2.4V191.179z
		 M595.139,188.018c0.859,0,1.34-0.02,1.76-0.08c-0.06,0.421-0.08,0.9-0.08,1.741v8.201c0,0.86,0.021,1.421,0.12,2.181h-1.36v-1.32
		h-9.861v1.32h-1.36c0.08-0.641,0.119-1.301,0.119-2.12v-8.183c0-0.699-0.039-1.3-0.1-1.82c0.5,0.061,0.96,0.08,1.78,0.08h2.001
		v-3.48h-1.761c-0.86,0-1.46,0.04-2.08,0.12v-1.4c0.52,0.08,0.96,0.1,2.08,0.12c1.92,0.04,3.9,0.06,5.981,0.06
		c2.801,0,4.44-0.06,5.221-0.18v1.4c-0.58-0.08-1.22-0.12-2.08-0.12h-2.48v3.48H595.139z M585.717,189.138v8.482h2.44v-8.482
		H585.717z M591.838,184.538h-2.48v3.48h2.48V184.538z M589.358,197.621h2.48v-8.482h-2.48V197.621z M593.039,197.621h2.54v-8.482
		h-2.54V197.621z"/>
	<path d="M606.537,182.697c-0.14,0.381-0.16,0.461-0.319,1.281c-0.141,0.68-0.261,1.16-0.54,2.18c1.399-0.12,2.66-0.359,3.58-0.66
		l0.061,1.381c-0.221,0.04-0.221,0.04-0.7,0.12c-0.82,0.18-2.061,0.34-3.281,0.42c-0.62,2.141-1.34,4.001-2.22,5.841
		c-0.48,0.961-0.66,1.301-1.421,2.621c-0.18,0.279-0.3,0.52-0.4,0.68l-1.359-0.8c0.64-0.801,1.18-1.681,1.92-3.121
		c0.92-1.82,1.5-3.261,2.08-5.161c-0.5,0.021-1.18,0.04-1.479,0.04c-0.341,0-1.021-0.02-1.32-0.02
		c-0.221-0.021-0.381-0.021-0.44-0.021c-0.04,0-0.14,0-0.26,0l0.02-1.38c0.681,0.12,1.28,0.16,2.381,0.16
		c0.399,0,1.06-0.021,1.44-0.021c0.319-1.14,0.64-2.841,0.68-3.761L606.537,182.697z M616.039,198.22
		c-0.779-0.96-2.04-1.96-3.5-2.721c0.04,0.32,0.04,0.44,0.04,0.641c0,2.061-1.36,3.201-3.801,3.201
		c-2.401,0-3.901-1.121-3.901-2.901c0-1.08,0.74-2.08,1.86-2.54c0.7-0.301,1.461-0.44,2.36-0.44c0.74,0,1.24,0.08,2.021,0.3
		c-0.1-1.3-0.14-2.24-0.14-2.74c0-0.72,0.04-1.2,0.2-1.94l1.36,0.14c-0.2,0.74-0.261,1.16-0.261,1.86c0,0.9,0.101,2.281,0.221,3.041
		c1.6,0.7,2.84,1.46,3.921,2.421c0.22,0.22,0.22,0.22,0.359,0.319L616.039,198.22z M608.998,194.64c-1.7,0-2.78,0.7-2.78,1.8
		c0,1.021,0.96,1.641,2.54,1.641c1.721,0,2.501-0.68,2.501-2.181c0-0.24-0.04-0.86-0.04-0.86
		C610.377,194.74,609.797,194.64,608.998,194.64z M616.019,189.199c-1.681-1.16-3.201-1.961-5.301-2.721l0.74-1.12
		c2.32,0.92,3.66,1.601,5.28,2.641L616.019,189.199z"/>
	<path d="M627.498,184.318c0-0.761-0.04-1.421-0.141-2.101h1.641c-0.1,0.66-0.14,1.3-0.14,2.101v4.301h4.66
		c1.041,0,1.601-0.04,2.161-0.12v1.46c-0.62-0.08-1.181-0.1-2.161-0.1h-4.66v7.981h6.161c0.94,0,1.64-0.04,2.26-0.12v1.521
		c-0.739-0.1-1.399-0.14-2.26-0.14h-13.143c-0.9,0-1.641,0.04-2.381,0.14v-1.521c0.62,0.08,1.36,0.12,2.381,0.12h5.621v-7.981
		h-4.201c-0.98,0-1.601,0.02-2.181,0.1v-1.46c0.521,0.08,1.2,0.12,2.181,0.12h4.201V184.318z"/>
	<path d="M641.876,184.518c0-0.94-0.04-1.641-0.12-2.221h1.479c-0.079,0.64-0.119,1.24-0.119,2.24v2.98h0.56
		c0.84,0,1.221-0.02,1.601-0.1v1.3c-0.5-0.06-0.92-0.08-1.62-0.08h-0.54v6.281c0.859-0.399,1.22-0.58,2.26-1.16l0.12,1.221
		c-1.94,1.08-2.9,1.521-5.161,2.44c-0.28,0.1-0.58,0.24-0.8,0.34l-0.34-1.38c0.72-0.12,1.24-0.3,2.681-0.9v-6.842h-0.74
		c-0.841,0-1.161,0.021-1.681,0.12v-1.36c0.46,0.101,0.86,0.12,1.681,0.12h0.74V184.518z M647.998,197.48
		c0,0.48,0.12,0.641,0.6,0.761c0.48,0.14,1.381,0.18,3.221,0.18c2.821,0,3.661-0.12,3.981-0.58c0.26-0.36,0.399-1.28,0.42-2.7
		c0.46,0.28,0.7,0.38,1.28,0.52c-0.24,3.701-0.601,3.941-5.802,3.941c-4.141,0-4.961-0.3-4.961-1.86v-7.342l-0.439,0.14
		c-1.121,0.381-1.201,0.421-1.661,0.641l-0.359-1.36c0.56-0.061,1.1-0.18,1.74-0.4l0.72-0.24v-3.141c0-0.84-0.04-1.46-0.12-2.04
		h1.501c-0.08,0.601-0.12,1.181-0.12,1.98v2.801l2.86-0.961v-3.7c0-0.78-0.04-1.261-0.12-1.86h1.48c-0.08,0.58-0.12,1.16-0.12,1.88
		v3.281l3.081-1.021c0.62-0.2,1.04-0.38,1.58-0.62c-0.08,2.001-0.16,3.4-0.32,5.361c-0.14,1.78-0.4,2.62-0.92,2.921
		c-0.36,0.199-0.74,0.279-1.44,0.279c-0.18,0-0.42-0.02-0.88-0.06c-0.061-0.521-0.141-0.84-0.301-1.261
		c0.54,0.12,1.061,0.181,1.541,0.181c0.46,0,0.56-0.101,0.66-0.681c0.14-0.74,0.239-2.22,0.319-5.061l-3.32,1.14v5.521
		c0,0.8,0.04,1.341,0.12,1.921h-1.48c0.08-0.561,0.12-1.121,0.12-1.94v-5.081l-2.86,0.96V197.48z"/>
</g>
<g>
	<g>
		<path d="M615.777,102.584c0,4.727-3.868,8.595-8.595,8.595l0,0c-4.727,0-8.594-3.868-8.594-8.595v-1.504
			c0-4.727,3.867-8.595,8.594-8.595l0,0c4.727,0,8.595,3.868,8.595,8.595V102.584z"/>
		<path d="M615.733,115.231c-4.131-0.764-5.99-0.86-8.551-0.86s-4.421,0.096-8.551,0.86c-4.131,0.764-10.286,3.399-10.286,9.057
			v4.451h37.674v-4.451C626.019,118.63,619.864,115.995,615.733,115.231z"/>
	</g>
</g>
<g>
	<g>
		<path d="M580.444,80.864c0,4.727-3.868,8.595-8.595,8.595l0,0c-4.727,0-8.594-3.868-8.594-8.595V79.36
			c0-4.727,3.867-8.595,8.594-8.595l0,0c4.727,0,8.595,3.868,8.595,8.595V80.864z"/>
		<path d="M580.4,93.511c-4.131-0.764-5.99-0.86-8.551-0.86s-4.421,0.096-8.551,0.86c-4.131,0.764-10.286,3.399-10.286,9.057v4.451
			h37.674v-4.451C590.686,96.91,584.531,94.274,580.4,93.511z"/>
	</g>
</g>
<g>
	<g>
		<path d="M654.33,85.853c0,4.727-3.868,8.595-8.595,8.595l0,0c-4.727,0-8.594-3.868-8.594-8.595v-1.504
			c0-4.727,3.867-8.595,8.594-8.595l0,0c4.727,0,8.595,3.868,8.595,8.595V85.853z"/>
		<path d="M654.286,98.5c-4.131-0.764-5.99-0.86-8.551-0.86s-4.421,0.096-8.551,0.86c-4.131,0.764-10.286,3.399-10.286,9.057v4.451
			h37.674v-4.451C664.572,101.898,658.417,99.263,654.286,98.5z"/>
	</g>
</g>
<path fill="none" stroke="#000000" stroke-miterlimit="10" d="M697.329,30.692H508.662c-6.627,0-12,5.373-12,12v10.667
	c0,6.627,5.373,12,12,12h59.144l4.044,2.667l2.927-2.667h22.843l9.189,22.667l2.586-22.667h31.674l3.001,5.406l2.787-5.406h50.473
	c6.628,0,12-5.373,12-12V42.692C709.329,36.065,703.957,30.692,697.329,30.692z"/>
<g>
	<g>
		
			<line fill="none" stroke="#000000" stroke-width="7" stroke-miterlimit="10" x1="143.954" y1="117.725" x2="418.363" y2="117.725"/>
		<g>
			<polygon points="395.169,146.353 390.394,141.227 415.677,117.731 390.394,94.229 395.169,89.103 425.955,117.731 			"/>
		</g>
	</g>
</g>
<g>
	<path d="M75.147,207.13c1.598,0,2.72-0.035,3.773-0.17c-0.102,1.461-0.17,2.719-0.17,3.842v22.063c0,1.938,0.068,3.264,0.204,4.658
		h-5.711v-1.699H59.101v1.699h-5.609c0.136-1.395,0.204-2.957,0.204-4.658v-22.029c0-1.258-0.068-2.482-0.17-3.875
		c1.122,0.102,2.346,0.17,3.91,0.17H75.147z M73.243,218.757v-6.596H59.101v6.596H73.243z M59.101,223.619v7.105h14.143v-7.105
		H59.101z"/>
	<path d="M105.033,216.003c1.19,2.277,2.176,3.705,3.91,5.574c2.38,2.551,4.726,4.352,7.649,5.883
		c-1.19,1.699-1.836,2.924-2.754,5.234c-2.38-1.563-3.604-2.549-5.303-4.182v3.061c-1.088-0.102-2.108-0.17-3.4-0.17h-2.448v1.801
		c0,1.701,0.068,3.23,0.238,4.557h-5.848c0.136-1.359,0.238-2.891,0.238-4.557v-1.801h-2.209c-1.258,0-2.346,0.068-3.366,0.17
		v-3.127c-1.938,1.938-3.128,2.957-5.167,4.316c-0.952-2.379-1.53-3.502-2.686-5.064c2.821-1.701,5.065-3.639,7.275-6.256
		c1.564-1.836,2.38-3.025,3.638-5.439h-5.507c-1.666,0-2.958,0.068-4.352,0.238v-5.373c1.36,0.172,2.686,0.238,4.352,0.238h8.023
		v-2.072c0-1.496-0.068-2.346-0.238-3.197h5.813c-0.17,0.816-0.204,1.701-0.204,3.197v2.072h8.363c1.768,0,3.127-0.066,4.419-0.238
		v5.373c-1.462-0.17-2.686-0.238-4.419-0.238H105.033z M97.316,223.583c0-1.053,0.034-1.768,0.136-2.924
		c-1.224,2.313-2.278,3.877-4.147,6.086c0.68,0,0.884,0,1.496,0h2.516V223.583z M105.543,226.746c0.714,0,0.917,0,1.292,0
		c-1.768-2.039-2.992-3.773-4.317-6.119c0.136,1.938,0.17,2.313,0.17,2.891v3.229H105.543z"/>
</g>
<g>
	<path d="M511.077,258.378c0-0.238,0-0.51,0-1.156c0.034-0.713,0.034-1.461,0.067-2.244c-0.611,0.885-1.359,1.836-2.107,2.686
		c-0.544-2.277-1.054-3.705-2.107-6.119c3.025-2.787,6.153-8.873,6.73-13.02l5.305,1.529c-1.53,4.521-1.633,4.828-2.788,7.105
		v19.615c0,1.463,0.067,2.822,0.204,4.182h-5.508c0.137-1.223,0.204-2.311,0.204-4.182V258.378z M526.07,247.738v-4.861
		c0-1.564-0.035-2.449-0.205-3.707h5.406c-0.17,1.225-0.205,1.973-0.205,3.502v3.639l4.624-1.361
		c1.429-0.406,2.108-0.645,2.821-0.984c-0.033,0.713-0.067,1.02-0.067,2.209c-0.034,5.779-0.237,10.131-0.578,11.865
		c-0.407,2.107-1.632,2.889-4.454,2.889c-0.305,0-0.645,0-1.291-0.066c-0.204-1.871-0.408-2.822-1.055-4.455v2.855
		c0,1.496,0.035,2.313,0.17,3.537h-5.337c0.136-1.156,0.171-1.904,0.171-3.707v-6.357l-2.041,0.613v11.082
		c0,0.477,0.137,0.646,0.578,0.783c0.715,0.203,1.395,0.236,3.604,0.236c3.57,0,4.658-0.135,5.27-0.645
		c0.51-0.443,0.612-1.088,0.715-3.639c1.938,0.68,3.059,0.953,5.201,1.293c-0.238,3.773-0.748,5.711-1.803,6.527
		c-1.291,1.02-3.841,1.359-10.063,1.359c-6.936,0-8.566-0.715-8.566-3.74v-11.762c-0.885,0.271-1.293,0.408-2.006,0.748
		l-0.103-5.406c0.646-0.068,0.985-0.137,2.108-0.408v-3.229c0-1.836-0.035-2.551-0.17-3.74h5.404
		c-0.135,1.053-0.17,1.699-0.17,3.535v2.006L526.07,247.738z M531.066,256.066c0.477,0.102,1.088,0.17,1.36,0.17
		c0.884,0,1.122-1.223,1.122-5.678l-2.482,0.715V256.066z"/>
	<path d="M542.628,243.861c0-1.324-0.067-2.48-0.203-4.012c1.155,0.137,2.039,0.137,4.012,0.137l22.573,0.035
		c1.53,0,2.72-0.068,3.978-0.172c-0.137,1.225-0.17,2.348-0.17,4.012v22.371c0,2.074,0.068,3.568,0.204,4.691h-5.372v-1.803h-19.854
		v1.803h-5.371c0.136-1.123,0.203-2.414,0.203-4.691V243.861z M547.796,264.498h19.82v-19.82h-19.82V264.498z M552.181,250.253
		c-1.495,0-2.039,0.033-2.99,0.17V245.8c0.85,0.102,1.393,0.135,2.99,0.135h11.117c1.564,0,2.211-0.033,3.025-0.135v4.623
		c-0.951-0.137-1.495-0.17-3.025-0.17h-3.365v1.938h2.787c1.463,0,1.938-0.033,2.754-0.17v4.59
		c-0.578-0.102-0.748-0.102-1.326-0.137c0.477,0.715,0.578,0.918,1.021,1.938l-1.733,0.443c1.666,0,2.244-0.035,3.162-0.17v4.656
		c-0.918-0.102-1.564-0.135-3.094-0.135h-11.627c-1.734,0-2.211,0.033-3.061,0.135v-4.656c0.885,0.135,1.53,0.17,3.061,0.17h3.059
		v-2.414h-2.209c-1.462,0-1.938,0.033-2.788,0.17v-4.59c0.815,0.137,1.326,0.17,2.788,0.17h2.209v-1.938H552.181z M559.933,258.855
		h2.074c-0.375-0.918-0.578-1.326-1.088-2.109l1.224-0.305h-2.21V258.855z"/>
</g>
<ellipse opacity="0.8" fill="#834522" cx="486.388" cy="163.503" rx="60.858" ry="31.277"/>
<g>
	<path d="M517.359,141.08V95.518c0-0.344-0.197-0.657-0.506-0.808c-0.125-0.061-0.258-0.09-0.392-0.09
		c-0.197,0-0.395,0.065-0.556,0.192l-14.27,11.246V95.518c0-0.344-0.196-0.657-0.506-0.808c-0.125-0.061-0.258-0.09-0.392-0.09
		c-0.198,0-0.395,0.065-0.556,0.192l-14.433,11.374V95.518c0-0.344-0.196-0.657-0.506-0.808c-0.124-0.061-0.258-0.09-0.391-0.09
		c-0.198,0-0.395,0.065-0.556,0.192l-15.112,11.908l-0.5-16.108h-12.74l-0.528,17.022l0,0v33.445h-3.225v9.298h68.391v-9.298
		H517.359z M507.985,118.884v10.198h-10.198v-10.198H507.985z M491.488,118.884v10.198h-10.199v-10.198H491.488z M474.99,118.884
		v10.198h-10.198v-10.198H474.99z"/>
	<polygon points="468.152,73.441 456.48,73.441 456.324,78.465 468.308,78.465 	"/>
	<polygon points="468.406,81.613 456.226,81.613 456.043,87.463 468.588,87.463 	"/>
</g>
<path fill="none" stroke="#000000" stroke-miterlimit="10" d="M652.421,175.041h-88.032c-1.117,0-2.194,0.164-3.221,0.45
	l-15.081-2.784l7.047,10.205c-0.474,1.289-0.745,2.676-0.745,4.129v8.666c0,6.627,5.373,12,12,12h88.032c6.628,0,12-5.373,12-12
	v-8.666C664.421,180.414,659.049,175.041,652.421,175.041z"/>
<g>
	
		<ellipse fill="none" stroke="#000000" stroke-width="15" stroke-miterlimit="10" stroke-dasharray="1.9642,19.6423" cx="86.552" cy="107.772" rx="48.189" ry="41.104"/>
</g>
</svg>
