<?xml version="1.0" encoding="utf-8"?>
<!-- Generator: Adobe Illustrator 16.0.3, SVG Export Plug-In . SVG Version: 6.00 Build 0)  -->
<!DOCTYPE svg PUBLIC "-//W3C//DTD SVG 1.1//EN" "http://www.w3.org/Graphics/SVG/1.1/DTD/svg11.dtd">
<svg version="1.1" id="レイヤー_1" xmlns="http://www.w3.org/2000/svg" xmlns:xlink="http://www.w3.org/1999/xlink" x="0px"
	 y="0px" width="549.282px" height="404.532px" viewBox="0 0 549.282 404.532" enable-background="new 0 0 549.282 404.532"
	 xml:space="preserve">
<path fill-rule="evenodd" clip-rule="evenodd" fill="#FFFFFF" stroke="#070001" stroke-width="0.4814" stroke-linecap="round" stroke-linejoin="round" stroke-miterlimit="10" d="
	M7.952,155.24c0,0,2.456-4.121,2.889-5.777s1.377-3.734,0-4.813c-1.376-1.078-1.78-0.762-3.85-2.889
	c-2.071-2.127-2.186-1.531-2.889-2.889s-1.744-1.887-2.888-1.926c-1.146-0.037-0.964-3.85-0.964-3.85s1.608-1.107,1.925-2.889
	c0.319-1.781,0-11.553,0-11.553s1.521-0.789,2.888-0.963c1.368-0.173,3.853,0,3.853,0l1.925-2.888c0,0,2.013-2.937,2.888-1.926
	c0.878,1.011,1.927,0.964,1.927,0.964l2.888-5.777c0,0,2.744-1.193,2.888-1.926c0.146-0.73,0-2.888,0-2.888s-2.888-2.589-2.888-3.85
	c0-1.262-1.926-5.776-1.926-5.776s1.319-2.311,1.926-1.926c0.606,0.385,3.851,0,3.851,0l3.852,3.851c0,0,1.059,1.974,2.888,2.888
	c1.829,0.915,6.739-0.963,6.739-0.963s2.916-0.25,3.851,0.963c0.935,1.213,4.456,1.203,4.813,0c0.356-1.203,4.12-6.219,4.814-6.739
	c0.693-0.519,0.962-5.776,0.962-5.776s-2.07-3.677-1.925-4.814c0.145-1.136-1.925-5.776-1.925-5.776s2.193-3.253,2.888-3.851
	c0.693-0.597,5.775-2.888,5.775-2.888s2.272-5.055,1.926-5.776c-0.346-0.722-1.888-10.879-0.962-11.553
	c0.924-0.674,2.435-3.09,2.888-3.851c0.453-0.76,0.962-7.702,0.962-7.702v-8.665c0,0-3.368-8.424-4.813-11.552
	c-1.443-3.129-1.8-4.188-1.925-5.776s2.889-5.776,2.889-5.776l0.962-4.813l1.926,0.962h3.851l1.925-3.851
	c0,0,2.012,3.803,2.89,4.814c0.876,1.011,4.313,3.466,5.775,4.813s6.778,10.763,8.665,13.478c1.888,2.716,3.802,6.335,4.813,7.702
	c1.011,1.368,8.964,10.831,10.59,11.553c1.626,0.722,7.702,6.74,7.702,6.74s7.248,2.512,7.701,3.85
	c0.452,1.339,3.92,2.013,3.851,2.888c-0.068,0.877,0.964,2.889,0.964,2.889l4.813,0.962c0,0,1.213,0.857,1.926,0
	c0.713-0.857,2.889-1.925,2.889-1.925l2.888,1.925l-0.962,2.889c0,0,2.609,3.052,2.888,1.925c0.279-1.126,1.925-4.814,1.925-4.814
	s2.58,4.13,2.888,4.814c0.309,0.684,5.595,3.273,6.74,2.888c1.144-0.385,5.776-0.962,5.776-0.962l6.738-6.739
	c0,0,4.949-2.195,4.814-2.888c-0.136-0.693,5.776-5.776,5.776-5.776s1.472,0.895,0.963,1.925c-0.51,1.031-3.852,7.702-3.852,7.702
	l-1.925,5.776l-3.851,5.776l0.962,2.888l2.889,3.852l1.925,1.925l2.889,1.926l-3.852,0.963l0.963,3.851l0.963,2.888l1.926,2.889
	l1.925,0.962l5.776-4.813h4.814l0.962,1.925l-5.776,1.926l-1.926,4.813c0,0-4.216,0.713-6.739,0.963
	c-2.521,0.25-4.813,0.962-4.813,0.962l-1.926,2.888c0,0-4.862,2.408-5.776,2.888c-0.915,0.482-2.888-1.925-2.888-1.925
	s-2.802-0.376-1.926,1.925s1.242,1.551,0,1.926s-7.403,1.444-9.627,0c-2.225-1.443-2.889-2.888-2.889-2.888
	s-5.671,1.194-6.738,1.925c-1.069,0.731-6.865,5.479-8.665,6.74c-1.802,1.26-13.045,14.401-13.479,15.403s-0.962,7.701-0.962,7.701
	v6.74l-2.889,1.926v2.887c0,0-8.723-7.951-8.693-8.568c0.02-0.605-9.513-2.436-12.729-5.141c-3.204-2.715-6.854-4.428-8.423-5.545
	c-1.568-1.117-6.738-2.889-6.738-2.889l-3.852-3.851c0,0-6.863-1.896-7.702-1.925c-0.837-0.029-5.063,2.166-6.738,2.887
	c-1.676,0.723-6.045,2.445-6.739,3.852s-3.851,3.852-3.851,3.852l-0.963,1.926c0,0-1.117-2.129-2.89-3.852
	c-1.771-1.723-2.184-2.945-2.888-3.852c-0.702-0.904-1.925-2.888-1.925-2.888s-4.188-0.77-4.814,0
	c-0.626,0.771-2.888-0.962-2.888-0.962l-4.813,5.776c0,0-1.732,4.082-0.962,5.777c0.77,1.693,1.974,2.377,2.888,3.85
	c0.915,1.473,3.157,2.484,3.851,2.889c0.694,0.404,3.071,1.223,3.852,0.963s4.813,1.926,4.813,1.926s1.936,2.311,2.888,3.852
	c0.954,1.539,2.89,2.887,2.89,2.887l3.851,1.926c0,0,1.849,4.42,0,4.814s-4.554,2.85-5.776,1.924
	c-1.223-0.924-5.776-3.85-5.776-3.85l-1.925-1.926l-2.89,2.889c0,0-4.159,3.928-4.813,3.85c-0.654-0.076,1.367,3.947,0.964,4.814
	c-0.405,0.867-6.74,3.85-6.74,3.85l-1.925,1.926l-3.852-1.926c0,0-2.029-2.896-1.924-3.85c0.104-0.953-0.704-4.438,0-4.814
	C6.731,158.715,7.952,155.24,7.952,155.24z"/>
<path fill-rule="evenodd" clip-rule="evenodd" fill="#FFFFFF" stroke="#070001" stroke-width="0.4814" stroke-linecap="round" stroke-linejoin="round" stroke-miterlimit="10" d="
	M336.804,45.711c0,0,3.254-5.768,3.85-4.814c0.597,0.954,5.776-0.962,5.776-0.962l0.963-3.851c0,0,1.811-2.157,1.926-2.888
	c0.116-0.731,0.964-3.851,0.964-3.851l-1.926-3.851c0,0,1.569-2.147,1.926-2.888c0.355-0.742,2.888,1.925,2.888,1.925l3.85-1.925
	l0.963,3.851c0,0,0.79,3.62,0.964,4.813c0.172,1.194,0,6.739,0,6.739h4.813l1.926-5.776l3.852,0.963l3.851,2.888
	c0,0,2.061,0.375,1.925-1.925c-0.135-2.301,0.964-4.813,0.964-4.813l1.924-4.814l-1.924-2.888c0,0-4.997,1.511-5.776,1.926
	c-0.78,0.414-5.324,0.298-5.776,0.962c-0.454,0.665-1.926-2.888-1.926-2.888l0.962-3.851l2.888-5.776h2.89l2.888,0.962l2.888,4.814
	h1.926l4.814-2.889l-0.963,9.627c0,0-1.156,9.724-0.963,11.553c0.192,1.829,1.231,6.604,1.926,7.702
	c0.693,1.098,1.646,1.954,1.925,2.888s3.851,4.814,3.851,4.814l1.926,1.925l-1.926,1.925l-4.813,0.963l-3.611,0.722l-5.719,3.542
	c0,0-2.579,0.062-3.185,0.55c-0.579,0.466-4.64,1.401-4.64,1.401l1.029-4.369l1.685-3.771c0,0-2.989,0.813-2.889,0
	c0.121-0.963-0.962-2.888-0.962-2.888l-4.175,3.902c0,0-1.284-0.851-2.565-1.014c-1.28-0.164-2.888,0.962-2.888,0.962l-2.889-2.888
	l-4.813,1.926c0,0-1.92-0.629-2.748-0.687c-0.827-0.059-3.991-1.239-3.991-1.239l-0.868,3.17l-2.021-3.17l-0.961-3.851l-1.927-0.963
	L336.804,45.711z"/>
<path fill-rule="evenodd" clip-rule="evenodd" fill="#FFFFFF" stroke="#070001" stroke-width="0.4814" stroke-linecap="round" stroke-linejoin="round" stroke-miterlimit="10" d="
	M386.864,110.213l-2.888-0.962l-0.963,4.813c0,0-2.141,3.137-2.298,3.172c-0.495,0.113-2.706-0.354-3.188-0.517
	c-0.479-0.164-3.179,1.195-3.179,1.195c0.091-0.071-0.531-0.855-0.696-1.257c-0.8-1.926-1.754-3.657-1.754-3.657
	s-0.357-0.034-1.4,0.1c-0.853,0.11-3.37,0.318-3.853,0c-0.479-0.318-1.924-1.925-1.924-1.925l-0.964-0.963l-0.688-0.688
	l-0.274-3.163l-0.963-1.925c0,0,0.833-2.902,0.514-3.546l-0.514-2.23l-1.925-2.888c0,0-0.513-1.404-0.286-2.768
	c0.151-0.9,0.938-3.302,0.938-3.302s-0.006-2.432,0.311-2.595c0.317-0.164,1.926-1.926,1.926-1.926l0.739-2.534
	c0,0-0.71-0.961-0.739-2.28c-0.04-1.805,0.612-2.637,0.962-3.851c0.269-0.925,0.781-1.446,0.781-2.091s0.183-0.797,0.136-2.44
	c-0.027-1.014,0.192-1.891-0.073-2.97c-0.107-0.436,0.018-1.86,0.335-1.86s0.411-2.266,0.411-2.266s0.336-0.889,0.336-1.852
	c0-0.577,0.962-0.962,0.962-0.962l3.853-0.963c0,0,4.168-0.481,3.851-0.962c-0.318-0.481,4.089-2.532,4.089-2.532l2.747-0.954
	l4.035-0.806l2.606-0.522l1.926-1.925c0,0,5.296,4.977,4.813,5.776c-0.48,0.799,0.482,3.37,0,3.851c-0.48,0.481-0.48,4.333,0,3.851
	c0.482-0.481,0,0.963,0,0.963s1.926,2.888,2.888,4.813c0.964,1.925,0.964,7.865,0.964,9.627s1.126,3.052,0.963,3.851
	c-0.164,0.8,0.963,3.206,0.963,2.889s-0.319,0-0.963,0.963c-0.646,0.962-1.281,2.407-0.963,2.888
	c0.317,0.481-0.164,1.126-0.964,1.925c-0.798,0.799-1.125,2.243-0.962,2.888c0.164,0.645,0.799,1.608,0.962,1.925
	c0.165,0.318,0.319,0.963-0.962,1.926c-1.28,0.962-0.799,2.243-0.963,2.888c-0.164,0.645,1.127,1.925,0,1.925
	c-1.126,0-1.608,0.645-1.925,0.962c-0.318,0.318,0.163,2.243-0.964,1.926c-1.125-0.318-2.725-0.164-2.888,0.962
	c-0.164,1.126-1.926,1.926-1.926,1.926L386.864,110.213z"/>
<path fill-rule="evenodd" clip-rule="evenodd" fill="#FFFFFF" stroke="#070001" stroke-width="0.4814" stroke-linecap="round" stroke-linejoin="round" stroke-miterlimit="10" d="
	M331.989,71.704c0,0,1.607,0.645,2.888,0c1.28-0.645,4.016-2.243,3.853-3.851c-0.165-1.608,0.479-2.57,0.963-3.851
	c0.48-1.281,0.961-3.851,0.961-3.851v-1.925l-0.961-2.889l0.961-2.888l2.889,0.963l3.851,0.963l3.469-1.387l1.345-0.539l2.889,2.888
	l2.888-0.962c0,0,3.206,1.444,2.889,0.962c-0.316-0.481,1.763-1.28,1.926-1.925s1.926-1.925,1.926-1.925l0.962,2.888h2.889
	c0,0-0.506,1.206-0.763,1.707c-0.351,0.683-1.164,2.144-1.164,2.144l-0.787,4.289l-0.175,1.487
	c-0.481,0.481-0.962,4.813-0.962,4.813v4.814c0,0-0.646,3.051-0.964,2.888c-0.316-0.164-0.799,1.925-0.962,2.888
	c-0.163,0.963,0.694,3.398,0.694,3.398s-1.254,2.663-1.254,2.98c0,0.318-1.049,1.488-1.366,1.324c-0.316-0.164,0.481,1.925,0,1.925
	s-0.316,2.725-0.962,2.888s0,3.851,0,3.851s1.925,2.407,1.925,2.888c0,0.481,0.641,3.931,0.641,3.931l-0.641,1.845l0.963,1.925
	l0.25,2.879l-3.698,2.447c0,0-0.199,0.896-0.902,1.254c-1.015,0.516-3.516,1.438-3.352,1.121s-2.889-1.444-2.889-1.925
	c0-0.482-1.924-3.851-1.924-3.851l-3.853-0.963l-3.077-0.252c-0.481,0-2.37-1.121-2.699-1.673c-0.293-0.496-2.889-0.24-2.889-0.24
	l-0.961-0.722l-0.964-0.963v-2.888c0-0.645,1.445-4.015,1.925-3.851c0.483,0.164,2.245-1.607,1.928-1.925
	c-0.319-0.317,0.961-4.813,0.961-4.813V84.22c0,0,0.964-2.089,0.964-2.888s-0.964-2.888-0.964-2.888l-1.924-2.889l-1.926-0.962
	c0,0-3.052-0.317-2.888,0c0.163,0.318,0,1.926,0,1.926h-2.889l-0.963-0.963V73.63L331.989,71.704z"/>
<path fill-rule="evenodd" clip-rule="evenodd" fill="#FFFFFF" stroke="#070001" stroke-width="0.4814" stroke-linecap="round" stroke-linejoin="round" stroke-miterlimit="10" d="
	M356.809,122.675c0,0-2.356,1.578-1.714,3.904c0.178,0.641,1.925,1.926,1.925,1.926l-0.81,2.432c0,0-0.456,0.915-0.774,1.079
	c-0.318,0.163-1.159,0.708-1.606,2.441c-0.508,1.958-0.496,4.801-0.659,5.601c-0.163,0.799,0.083,1.844-0.722,2.647
	c-1.023,1.022-1.887,1.545-2.616,1.909c-0.723,0.361-2.199,0.15-2.439,1.22c-0.287,1.286,0.165,2.889,0,2.889h4.533
	c0,0,1.152,0.492,1.596,0.876c0.241,0.207,0.726,0.73,1.974,0.929c1.766,0.28,1.524-0.322,2.809,0.119
	c0.972,0.336,0.643-0.441,0.943,0.902c0.288,1.287,0.935,2.532,0.935,2.532l0.689,1.38l3.526-3.101l2.249-0.75v-4.813
	c0-0.482,1.281-6.422,0.964-6.739c-0.318-0.317,1.444-4.496,1.926-4.813l2.888-1.926l2.888-1.926h2.888c0,0,0.319-1.607,1.927,0
	c1.607,1.608,4.813,5.777,4.813,5.777s1.444-0.8,0.963-1.926c-0.481-1.127-2.889-4.332-2.889-4.813s0.8-0.646,0.963-1.926
	s0-3.852,0-3.852l-0.963-0.962c0,0,1.444-1.762,0.963-1.926c-0.48-0.164,1.127-0.481,0.963-0.962
	c-0.163-0.482-0.963-1.926-0.963-1.926s2.09-2.888,1.926-2.888s1.925-1.762,1.925-1.925s-0.163-1.281,0-1.925
	c0.165-0.645-0.826-1.652-0.826-1.652l-1.978-0.887l-1.097-0.094l-0.532,2.653c0,0,0.265,0.943-0.381,1.906
	s-1.663,2.645-1.925,2.888c-0.217,0.201-1.287,0.331-1.925,0c-1.004-0.521-2.889,0-2.889,0l-1.926,0.963l-1.572-2.836l-0.878-2.078
	l-5.253,0.1c0,0-1.098-1.711-1.579-1.547c-0.482,0.164-1.608-2.321-2.253-2.158c-0.646,0.164-1.346,1.039-1.346,1.039
	s-2.335,1.4-2.522,1.704c-0.5,0.805-3.121,2.286-3.604,1.969c-0.481-0.318,0.715,0.919,0.715,0.919s2.089,3.37,1.925,3.851
	c-0.163,0.482,0,1.926,0,1.926L356.809,122.675z"/>
<path fill-rule="evenodd" clip-rule="evenodd" fill="#FFFFFF" stroke="#070001" stroke-width="0.4814" stroke-linecap="round" stroke-linejoin="round" stroke-miterlimit="10" d="
	M326.212,126.579c-0.162-0.48-0.961-3.687,0.964-4.813c1.926-1.126,3.688-0.799,3.852-1.925c0.164-1.126,2.242-2.888,1.925-3.851
	c-0.316-0.962,0.964-3.206,0.964-3.851s0.798-3.533,0.961-3.851s0.963-4.813,0.963-4.813s0.844,1.444,1.925,1.685
	c0.842,0.186,2.435,0.018,2.435,0.018l2.426,1.813l4.522,0.516l3.135,0.783l1.924,3.851l2.889,1.925l1.925,2.888l0.963,1.925
	c0,0-0.248,3.358-0.728,3.521c-0.481,0.164-1.996,1.611-2.16,2.255c-0.164,0.645,0,2.244,0,1.926c0-0.317,1.925,1.926,1.925,1.926
	l-0.962,2.888l-1.926,1.926c0,0-1.125,4.169-0.962,3.852c0.163-0.318,0,2.888,0,2.888v1.926l-2.438,2.182l-1.927,0.962
	c0.196-0.093-1.412,0.062-1.412,0.707v4.813v3.852c0,0-1.925,1.607-1.925,1.926c0,0.317-2.725,1.607-2.889,0.963
	c-0.162-0.646-4.814-2.889-4.814-2.889h-1.925h-3.851c0,0-2.725-1.443-2.888-1.926c-0.164-0.48-0.962-4.813-0.962-4.813l0.962-3.851
	l1.301-2.162c0,0,1.419-1.239,1.75-1.371c0.8-0.317,2.782-1.927,2.782-1.927s1.07-1.924,0.905-2.241
	c-0.163-0.318-0.963-2.889-0.963-2.889h-2.888c0,0-0.559-2.578-0.962-2.888c-0.719-0.554-1.589-1.508-1.589-1.508l-1.351-1.164
	C328.088,127.759,326.377,127.061,326.212,126.579z"/>
<path fill-rule="evenodd" clip-rule="evenodd" fill="#FFFFFF" stroke="#070001" stroke-width="0.4814" stroke-linecap="round" stroke-linejoin="round" stroke-miterlimit="10" d="
	M316.589,167.977c0,0,2.394-0.705,3.377-0.885c0.669-0.12,4.752-1.633,4.435-1.47c-0.317,0.165,2.293-1.006,2.293-1.006
	s-0.96-2.376,0.062-4.32c0.317-0.603,1.385-2.909,1.385-2.909s0.96-1.195,1.207-1.64c0.402-0.722,1.681-1.686,1.681-1.249
	c0,0.318,3.859,0,3.859,0h2.878c0,0,3.642,1.688,3.853,1.926c1.011,1.141,1.745,1.141,2.528,0.816
	c1.021-0.423,2.662-2.238,2.662-2.238l0.585-0.676v-5.604h4.813l2.889,1.924h3.852l0.963,2.889l0.962,1.926l1.627-1.43l2.284-1.799
	l1.864-0.622c0,0,2.725,4.169,2.89,4.813c0.163,0.646,0,5.459,0,5.775c0,0.318,1.443,7.539,0.963,9.628
	c-0.482,2.089-0.482,6.258-0.963,6.739c-0.481,0.481,0.48,4.333,0,4.813c-0.481,0.481-3.053,4.978-3.852,4.813
	c-0.799-0.163-2.725,2.244-2.888,1.926c-0.163-0.317-2.888-1.926-2.888-1.926h-2.89l-2.888,2.889l-1.926,0.962
	c0,0-1.125-0.962-1.924-1.925c-0.801-0.963-2.89-3.85-2.89-3.85s-1.28-1.128-1.925-1.927c-0.646-0.799-3.051-4.014-2.889-3.851
	c0.009,0.01,0.009,0.01,0.009,0.01c0.011-0.01-1.817-2.09-2.896-1.936c-1.128,0.163-4.652,0.646-4.815,0.963
	s-0.798,2.407-2.888,2.888c-2.089,0.482-5.294,2.244-5.777,2.889c-0.479,0.645-3.849,1.926-3.849,1.926s-2.199,0.636-2.553,0.491
	c-1.047-0.432-3.222-2.417-3.222-2.417l-0.963-3.852l0.119-3.609l-1.082-3.128l1.926-1.927l0.182-1.605L316.589,167.977z"/>
<path fill-rule="evenodd" clip-rule="evenodd" fill="#FFFFFF" stroke="#070001" stroke-width="0.4814" stroke-linecap="round" stroke-linejoin="round" stroke-miterlimit="10" d="
	M322.363,209.373c0,0-1.444-1.761-0.964-2.888c0.481-1.127,0.645-4.65,0.964-4.813c0.316-0.163,0-1.926,0-1.926l-2.593-3.215v-1.887
	l0.667-1.638v-2.888l0.012-2.428l3.839-1.422c0,0,4.169-2.726,4.813-2.89c0.646-0.163,3.307-1.059,3.626-1.223
	c0.316-0.163,1.497-1.351,1.497-1.351l0.652-1.277l4.815-0.963l1.325,0.496l6.375,7.207c0,0-0.261,0.508-0.122,2.293
	c0.182,2.343-0.024,3.481-0.841,4.444c-0.23,0.273-0.962,0.963-0.962,0.963v1.927v2.888c0,0,0.738,3.687,0.689,4.667
	c-0.033,0.68-0.689,3.034-0.689,3.034s-3.056,0.849-3.851,0.963c-0.984,0.142-2.718,1.234-3.853,1.925
	c-0.487,0.299-2.441,2.136-3.051,2.408c-0.291,0.129,0,0-0.798,0.479c-0.8,0.482-3.819,1.478-3.852,1.926
	c-0.022,0.31-0.837-0.81-1.645-1.371c-1.9-1.321-3.814-1.517-4.132-1.517S322.363,209.373,322.363,209.373z"/>
<path fill-rule="evenodd" clip-rule="evenodd" fill="#FFFFFF" stroke="#070001" stroke-width="0.4814" stroke-linecap="round" stroke-linejoin="round" stroke-miterlimit="10" d="
	M307.389,188.939c0,0,1.124-1.678,1.604-2.958c0.483-1.281,0.418-1.438,2.394-2.2c1.283-0.495,4.296-2.101,4.296-2.101l0.606,2.43
	l0.637,1.438l3.512,2.645c0,0,0.318,3.533,0,4.813c-0.318,1.281-0.831,2.264-0.667,3.062c0.162,0.799,1.143,1.882,1.143,1.882
	l1.508,2.168c0,0-0.18,3.301-0.571,4.272c-0.268,0.667-1.067,2.935-0.099,4.052c0.759,0.875,1.905,1.95,2.051,2.507
	c0.146,0.56,1.449,0.35,1.449,0.35l3.977,2.078c0,0-4.295,0.646-4.939,0.81c-0.645,0.165-1.925,0.646-2.889,0
	c-0.962-0.645-3.037-1.85-3.85-1.926c-1.438-0.131-1.408-0.221-3.849-0.962c0,0-0.899,2.116-1.38,2.762s-1.157,3.848-2.471,3.978
	c-1.532,0.151-2.407,0.8-2.889,0.963c-0.481,0.164-3.37,1.444-3.853,1.925c-0.481,0.482-2.889,0.964-2.889,0.964
	s-2.09-1.28-1.927-1.926s-0.295-3.085-0.131-3.402c0.163-0.319-0.786-1.566-0.786-1.73c0-0.163,0.6-3.532,0.917-4.494
	c0.317-0.964-0.317-2.408,0-2.889c0.317-0.481-1.925-1.925-1.925-1.925l-1.174,1.961c0,0-0.754-0.2-1.716-0.999
	c-0.964-0.799-2.407-1.887-2.89-2.889c-0.155-0.322,0.963-4.813,0.963-4.813s3.688-2.408,3.852-2.888
	c0.164-0.482,4.17-2.09,3.854-1.927c-0.318,0.164,1.279,0.22,1.598-0.097c0.318-0.318,2.028-0.588,2.028-0.588l1.256-1.705
	l1.616-1.278L307.389,188.939z"/>
<path fill-rule="evenodd" clip-rule="evenodd" fill="#FFFFFF" stroke="#070001" stroke-width="0.4814" stroke-linecap="round" stroke-linejoin="round" stroke-miterlimit="10" d="
	M356.058,206.485c0,0-0.163,7.221,0,7.701c0.164,0.482,0.481,3.37,0.962,3.852c0.482,0.481,0.963,2.888,0.963,2.888
	s1.607,3.852,1.927,3.852c0.317,0,2.089,4.332,2.888,4.813c0.799,0.48,2.613,2.321,2.613,2.321l-4.539-3.284l-4.505-3.546
	l-2.234-1.269c0,0-2.317,1.1-3.517,2.613c-0.694,0.876-5.311,0.594-6.11,0.276c-0.8-0.318-6.903-1.608-6.74-1.926
	c0.165-0.318-1.295-1.568-1.925-2.888c-0.42-0.883-2.888-2.889-2.888-2.889s-3.204-0.317-2.888-0.963c0.317-0.645,0-1.925,0-1.925
	v-1.927c0-0.48,5.259-2.678,5.259-2.678s1.923-1.694,1.534-1.41c-0.487,0.361,1.984-0.955,2.301-1.438
	c0.318-0.479,3.47-1.188,3.47-1.188l2.84-0.987l0.534-2.027l-0.005-2.674c0,0-0.529-2.201-0.529-3.964c0-1.761-0.481-3.687,0-3.851
	c0.481-0.163,1.7-1.5,1.925-2.888c0.116-0.711,0-4.813,0-4.813s3.028,4.158,3.416,4.442c0.994,0.724,1.397,1.332,1.397,1.332
	s1.513-0.465,2.598-1.633c1.222-1.315,2.216-2.218,2.698-2.218c0.48,0,2.242-0.317,2.407,0c0.163,0.318,2.888,1.926,2.888,1.926
	s0,3.688-0.963,4.813c-0.963,1.128-2.725,4.169-2.888,4.814c-0.164,0.646-0.481,4.015-0.964,3.851
	C357.502,203.434,356.058,206.485,356.058,206.485z"/>
<path fill-rule="evenodd" clip-rule="evenodd" fill="#FFFFFF" stroke="#070001" stroke-width="0.4814" stroke-linecap="round" stroke-linejoin="round" stroke-miterlimit="10" d="
	M322.363,137.17c0.163,0.317,0.48-4.496,0.961-4.814c0.483-0.317,0.442-2.366,0.442-2.366l2.445-3.41c0,0,2.524,1.521,2.89,1.926
	c0.239,0.265,2.006,1.523,2.706,3.92c0.313,1.076,0.8,0.997,1.724,0.894c0.504-0.057,1.346,0,1.346,0l0.963,2.889
	c0,0-1.279,3.205-2.888,3.851c-1.607,0.645-2.888,2.089-2.888,1.926s-1.232,3.191-1.385,3.615c-0.8,2.222-0.319,3.349-0.319,3.349
	s0.26,3.167,0.741,3.625c0.551,0.526,2.918,1.844,2.438,1.68c-0.482-0.164-3.563,2.489-3.399,3.135
	c0.163,0.645-2.244,3.688-1.928,4.813c0.32,1.128,0.964,2.725,0,2.89c-0.961,0.163-5.774,1.925-5.774,1.925
	s-4.013,0.646-3.849,0.963c0.163,0.317,0.316,4.332,0,4.813c-0.319,0.481-2.011,1.425-1.926,1.927
	c0.246,1.45,0.318,1.924,0.963,2.888c0.644,0.962,0,3.532,0,3.85c0,0.318-0.645,0.645-0.963,0.963
	c-0.318,0.317-4.813,1.926-4.813,1.926l-1.925,3.851c0,0,0,0.481-1.927,1.926s-2.726,2.089-2.89,2.888
	c-0.164,0.8-4.17,1.127-3.852,0.963c0.316-0.163-0.41-1.348-0.303-2.635c0.02-0.239-0.313-0.831-0.313-0.831
	s-0.828-0.867-1.311-2.311c-0.481-1.444-0.962-1.607-0.962-2.888c0-1.281-0.164-2.406-0.965-1.926
	c-0.799,0.481-3.533,0.963-3.852,1.926c-0.318,0.964-2.156,2.188-2.889,2.888c-1.413,1.348-2.287,3.089-2.889,2.889
	c-0.613-0.203-2.891-1.28-2.891-0.963c0,0.371-1.926,1.333-1.926,0.963c0-0.318-0.963-1.926-0.963-1.926l-1.927-0.963l-0.962-0.962
	l-2.209,2.694l-2.606,4.044c0,0-0.491-0.627-0.963-1.926c-0.801-2.206-0.499-4.382-0.499-4.382l-1.427-1.393l-0.963-0.964
	c0,0,3.053-1.607,3.852-1.926c0.8-0.317,5.615-1.281,5.778-1.926c0.165-0.645,2.89-2.888,2.89-2.888l2.889-0.962
	c0.482-0.164,4.17,0.799,4.816,0c0.645-0.8,1.926-3.053,3.852-4.814c1.926-1.763,4.652-1.926,4.815-2.888
	c0.164-0.963,0.318-2.243,1.927-3.851s2.089-3.37,2.89-3.853c0.798-0.479,1.28-2.569,0.962-2.888
	c-0.318-0.316,0.963-5.776,0.963-5.776s3.854-3.052,5.778-3.851c1.926-0.799,4.331-0.317,5.775-1.926
	c1.443-1.606,4.014-2.57,4.812-3.851c0.586-0.944,2.012-2.552,1.926-2.889C322.044,139.74,322.2,136.852,322.363,137.17z"/>
<path fill-rule="evenodd" clip-rule="evenodd" fill="#FFFFFF" stroke="#070001" stroke-width="0.4814" stroke-linecap="round" stroke-linejoin="round" stroke-miterlimit="10" d="
	M286.736,142.945c0,0,2.891-1.926,2.891-2.888s1.762-2.089,1.926-2.888c0.164-0.8,1.927-2.888,1.927-2.888s0.799,4.013,0,5.775
	c-0.8,1.763-1.128,3.851-0.964,3.851s0.964,0.646,0.964,0.963s2.726-1.444,2.89-0.963c0.163,0.481,0,2.889,0,2.889
	s-1.609,0.163-1.928,0.962c-0.318,0.8-0.645,2.725-1.926,3.852c-1.281,1.126-3.207,3.206-3.852,2.888
	c-0.646-0.317-2.889-0.963-2.889-0.963s1.762-1.925,1.926-2.889c0.164-0.962,0.48-0.799,0.963-1.924
	c0.481-1.126-0.164-3.207,0-2.889s-1.928,1.925-1.928,1.925s-0.48,0.964-0.961,0c-0.482-0.962,1.28-2.888,0.961-2.888
	C286.42,144.871,286.736,142.945,286.736,142.945z"/>
<path fill-rule="evenodd" clip-rule="evenodd" fill="#FFFFFF" stroke="#070001" stroke-width="0.4814" stroke-linecap="round" stroke-linejoin="round" stroke-miterlimit="10" d="
	M300.688,221.89c0.483,0,3.385-1.444,4.349-1.926c0.963-0.482,3.534-2.09,3.852-1.926c0.318,0.163,1.126,0.646,1.927-0.962
	l1.924-3.852c0.481-0.964,0.317-2.089,0.963-1.926c0.644,0.163,4.785,0.9,5.266,1.382c0.481,0.482,2.423,1.719,3.102,1.78
	c1.746,0.156,2.818-0.222,4.335-0.475c0.352-0.059,1.936-0.687,2.254-0.523c0.316,0.163,1.407,0.724,1.407,0.724v3.852
	c0,0-0.207,0.7,1.228,0.7c1.925,0,2.84,1.603,2.463,1.944c-0.396,0.359-0.485,1.043,0.161,2.169
	c0.645,1.127,2.013,3.491,1.694,3.973c-0.317,0.48,0.547,2.448,0.229,2.767c-0.317,0.317-3.817-0.457-4.559-0.145
	c-2.261,0.947-4.026-0.712-5.633,0.567c-1.608,1.28-3.122,1.021-4.249,0.54c-1.126-0.482-3.531-2.407-4.811-2.888
	c-1.28-0.482-4.456-1.921-4.813-1.926c-1.87-0.026-3.206,1.607-2.889,0.963l-1.298,0.799c0.584-0.048-3.036,0.284-4.48-0.799
	c-0.98-0.736-1.926-1.926-1.926-1.926S300.207,221.89,300.688,221.89z"/>
<path fill-rule="evenodd" clip-rule="evenodd" fill="#FFFFFF" stroke="#070001" stroke-width="0.4814" stroke-linecap="round" stroke-linejoin="round" stroke-miterlimit="10" d="
	M357.982,233.441c0,0-3.688,4.015-4.813,4.813c-1.127,0.801-1.763,2.57-1.926,2.889c-0.163,0.317-0.482,2.09,0,2.888
	c0.481,0.799,0.317,6.902,0,6.739c-0.317-0.164-0.163,0.963-1.926,1.926c-1.761,0.962-6.575,1.925-6.739,1.925
	c-0.162,0-1.762,1.281-2.887,2.89c-1.128,1.607-1.928,2.888-1.928,2.888l-1.925,1.925l-2.888-1.925c0,0-1.188-1.701-0.963-1.926
	c0.401-0.401,1.28-0.482,1.927-0.962c0.645-0.482,1.444-2.571,0.961-4.814c-0.48-2.243-0.645-1.763,0-2.889
	c0.646-1.125,0-1.925,0-1.925s-2.241-0.8-1.925-0.963c0.317-0.164,1.127-1.281,1.925-1.927c0.8-0.644,1.444-2.569,1.927-2.888
	c0.481-0.316,1.761-0.962,2.889-1.925c1.125-0.963,3.205-1.607,2.887-2.888c-0.317-1.281-2.887-2.889-2.887-2.889h-1.928
	l-0.961,1.926l-0.964-4.813c-0.163-0.801,0.411-2.359,0.093-2.197c-0.317,0.164-0.527-4.129-0.527-4.129l0.177,0.754
	c0,0-0.063-1.272-1.343-2.554l-0.88-2.349l0.951-0.862l3.454,4.598c0,0,4.466,1.427,5.633,1.612c0.568,0.09,1.491,0.906,3.099,0.589
	c1.607-0.316,2.658,0.688,3.786-0.275c1.125-0.963,3.85-2.89,3.85-2.89l1.926,0.964c-0.317-0.163,4.649,4.015,4.813,3.851
	c0.163-0.163,3.852,2.889,3.852,2.889v0.962h-0.964c-0.962,0-3.687,1.444-3.85,0.963
	C359.744,232.961,357.982,233.441,357.982,233.441z"/>
<path fill-rule="evenodd" clip-rule="evenodd" fill="#FFFFFF" stroke="#070001" stroke-width="0.4814" stroke-linecap="round" stroke-linejoin="round" stroke-miterlimit="10" d="
	M308.246,227.097c0,0,2.49-1.569,3.53-1.356c1.04,0.212,4.176,1.521,4.813,1.926c0.635,0.404,2.876,1.73,3.21,1.941
	c1.01,0.637,1.877,1.053,2.444,1.342c0.727,0.368,1.515-0.203,2.045-0.396c0.529-0.193,1.56-0.501,1.924-0.963
	c0.367-0.463,3.611,0.818,4.815,0c1.203-0.818,2.889,0,2.889,0h1.924c0,0-0.08,2.803,0.373,3.784
	c0.453,0.982-2.297,1.991-2.297,1.991s-0.598,0.751-0.964,0.964c-0.365,0.212-0.145,4.028-0.963,3.651
	c-0.817-0.377-0.666-1.467-2.206-2.217s-2.607-1.435-2.607-1.435s-3.927,0.317-3.852,0c0.078-0.318,0.093,1.03-0.359,1.435
	c-0.454,0.404-0.041,1.134-1.565,0.49c-1.547-0.652-1.404-0.213-3.85-0.962c-2.444-0.751-3.666-2.022-3.849-2.889
	s-0.665,0.173-1.925-0.963c-1.262-1.136-1.389-0.485-1.87-1.529c-0.407-0.884-1.98-2.321-1.98-2.321L308.246,227.097z"/>
<path fill-rule="evenodd" clip-rule="evenodd" fill="#FFFFFF" stroke="#070001" stroke-width="0.4814" stroke-linecap="round" stroke-linejoin="round" stroke-miterlimit="10" d="
	M312.738,239.218l0.963-2.888l-0.217-2.287c0,0,0.576,1.967,4.427,3.411c0.354,0.133,2.584,0.311,2.584,0.311l1.975,0.924
	l0.854-2.358c0,0,2.888,0,3.255,0.212c0.365,0.213,1.338-0.444,2.522,0.751l1.938,1.542l0.949,1.346c0,0-2.483,0.443-2.888,0.963
	c-0.403,0.519-1.704,2.253-0.962,2.888c0.74,0.637,0.653,3.188,0.962,3.852c0.308,0.662,1.926,1.925,1.926,1.925
	s-0.839,0.009-0.963,0.963c-0.125,0.954-0.213,2.696-0.963,2.888c-0.75,0.193-1.926-1.925-1.926-1.925s-0.799-2.061-0.964-2.888
	c-0.162-0.827-1.924-1.926-1.924-1.926s-1.55,0.135-1.925,0c-0.377-0.135-2.916,0.115-3.852,0.963
	c-0.934,0.848-3.406,1.241-3.849,1.925c-0.442,0.683-0.962,2.889-0.962,2.889l-1.925,0.962c0,0-1.887-0.327-1.926-1.925
	c-0.038-1.598-0.886-3.439-0.135-4.633c0.751-1.194,0.135-2.107,0.135-2.107s-0.522-1.42-1.187-1.593s-1.471-1.301-1.471-1.301
	l2.657-1.919L312.738,239.218z"/>
<path fill-rule="evenodd" clip-rule="evenodd" fill="#FFFFFF" stroke="#070001" stroke-width="0.4814" stroke-linecap="round" stroke-linejoin="round" stroke-miterlimit="10" d="
	M272.292,193.97c0,0,2.013-2.445,1.926-2.888c-0.086-0.443,2.89-3.851,2.89-3.851s3.346,2.229,3.563,3.133
	c0.362,1.498,1.775-0.445,3.125,0.192c0.625,0.295,2.203,0.519,2.203,0.519l3.021-3.195c0,0,1.556-0.729,2.122-2.032
	c0.77-1.767,3.86-2.277,3.86-2.277s1.333-0.771,1.257,0.368c-0.09,1.36,0.678,3.289,0.678,3.289s0.443,2.197,1.358,2.892
	c0.915,0.693,0.655,2.252,0.964,2.888s0.75,1.194,0,0.963c-0.751-0.231-3.021,1.337-4.125,2.243
	c-1.816,1.491-2.814,1.833-3.58,2.571c-0.702,0.676-0.282,1.544-0.744,3.219c-0.464,1.676-0.14,1.247,0.283,2.336
	c0.424,1.086,2.73,2.439,2.73,2.439s1.833,1.064,1.582,0.67c-0.249-0.395,0.36-1.613,0.965-1.925
	c0.803-0.417,1.925,1.925,1.925,1.925v3.851c0,0-0.548,1.897-0.963,2.888c-0.415,0.992,0.688,0.311,0.832,2.375
	c0.167,2.438,0.163,3.657,0.163,3.657l2.096,1.671l0.277,1.214c0,0,0.648,1.364-0.736,1.825c-1.667,0.557-2.381,1.148-3.594-0.151
	c-1.214-1.3-0.868-1.252-1.928-0.964c-1.059,0.289-1.029-0.191-1.926,0c-0.895,0.194-1.94,0.489-1.94,0.489s0-0.366-2.185,1.093
	c-2,1.335-1.654,1.308-1.654,1.308s0.025,2.401-0.961,3.851c-1.205,1.766-0.716,0.846-0.617,2.874
	c0.096,1.964-0.145,4.162-0.585,5.365c-0.392,1.068-0.964,2.566-1.37,4.355c-0.357,1.565-0.389,1.22-3.09,2.243
	c-1.42,0.537-1.2,1.85-2.684,3.003c-1.303,1.013-2.8,1.652-3.627,2.28c-0.94,0.713-4.005-0.849-4.4-0.867s-1.165,0.713-1.926,0.963
	c-0.761,0.25-1.888-2.351-1.888-2.351s0.298-2.8,0.925-3.427c2.879-2.876,2.869-1.781,1.478-4.445
	c-0.481-0.92-3.565-1.446-2.843-2.63c0.724-1.189,1.486-2.188,0.402-3.514c-0.461-0.563-1.016-0.328-1.632-2.09
	c-0.618-1.762-0.699-1.733-2.221-2.724c-1.522-0.991-0.995-2.596-0.995-2.596s-0.04-0.703,0.228-1.331
	c0.326-0.766,0.809-0.284,2.23-1.011c1.004-0.514,3.077-2.329,3.077-2.329s1.199-1.798,1-2.57c-0.119-0.457-1.27-1.216-1.27-1.216
	s-0.497,0.223-0.602-1.262c-0.065-0.909,0.589-1.432,1.148-3.09c0.559-1.656,0.491-2.531,0.963-2.888
	c0.472-0.355,1.271-1.193,0.963-1.926c-0.308-0.731-0.963-1.925-0.963-1.925l-0.617-1.248l1.58-3.004l2.889-2.487
	c0,0,0.582-1.82,0.685-2.788C272.09,197.214,272.292,193.97,272.292,193.97z"/>
<path fill-rule="evenodd" clip-rule="evenodd" fill="#FFFFFF" stroke="#070001" stroke-width="0.4814" stroke-linecap="round" stroke-linejoin="round" stroke-miterlimit="10" d="
	M290.484,246.657c0,0,0.115,2.805,1.068,4.113c0.953,1.31,2.36,0.973,2.889,0.963c0.529-0.009,1.041-5.189,0.963-5.775
	c-0.076-0.588,2.168-2.543,1.927-2.89c-0.24-0.346,0.578,1.724,0.963,1.925c0.386,0.203,3.047,0.669,3.047,0.669
	s0.556-1.023,0.807-1.631c0.249-0.606,2.889,0,2.889,0l4.49-0.173c0,0-2.847-1.398-2.315-1.918c0.715-0.699,2.197-1.646,2.916-1.852
	c3.734-1.069,2.451-1.271,3.217-2.661c0.185-0.333,0.141-3.385,0.141-3.385s-2.497-0.539-3.288-1.645
	c-1.37-1.911-2.271-2.808-2.271-2.808s0.568-2.647,0.121-2.371c-1.311,0.808-4.938-0.517-4.938-0.517l-2.004-2.165l-3.454,1.183
	l-1.282-0.943c0,0-0.521-1.328-1.928-0.964c-1.406,0.367-2.889,0-2.889,0l-3.852,1.927c0,0-0.84-0.032-0.965,0.963
	c-0.277,2.217-0.48,2.888-0.961,3.851c-0.18,0.358-1.06,1.396-0.963,1.925c0.096,0.53,0.018,1.526,0.384,1.902
	s1.636,1.836,1.636,1.836s-0.913,2.126-0.096,3.964c0.819,1.839,1.163,5.064,1.471,5.544
	C289.144,247.202,290.484,246.657,290.484,246.657z"/>
<path fill-rule="evenodd" clip-rule="evenodd" fill="#FFFFFF" stroke="#070001" stroke-width="0.4814" stroke-linecap="round" stroke-linejoin="round" stroke-miterlimit="10" d="
	M245.327,191.082l0.118-2.647c0,0,0.133-0.602,1.808-2.165c1.653-1.547,3.852-0.964,3.852-0.964l-0.962,3.851
	c0,0-0.144,0.954,0,1.926c0.145,0.973,2.1,2.157,2.889,2.888c0.79,0.731,2.676,1.194,3.852,0.962c1.176-0.23,2.129-0.789,2.89-1.925
	c0.761-1.136,1.858-1.463,1.926-2.888c0.068-1.426-0.259-2.407,0.963-2.888c1.223-0.482,2.889-1.926,2.889-1.926h2.889
	c0,0,1.227,1.543,1.926,1.926c0.449,0.245,0.387,2.126,0.387,2.126s-0.283,1.445,0.576,2.687c0.858,1.243,0.963,1.886,0.963,2.888
	c0.004,3.132-0.97,5.839-1.346,6.107c-0.376,0.269-2.804,2.23-3.208,3.491c-0.404,1.263-0.521,2.091-2.188,1.955
	c-1.667-0.135-3.183,0.061-4.176-0.7c-0.991-0.76-2.333-1.072-3.529-1.226c-1.194-0.153-3.307-0.706-3.557-0.147
	c-0.25,0.559-0.903,0.591-1,1.063c-0.097,0.473-0.921,3.297-2.63,5.316c-0.888,1.049-1.179,1.104-2.444-0.454
	c-0.936-1.154-1.926-1.926-1.926-1.926s-2.889,3.244-2.889,2.888c0-0.355-0.206-3.751-0.239-4.156
	c-0.289-3.53-0.896-6.405-0.723-7.396c0.174-0.99,0.643-2.693,0.643-2.693c0.355-0.394,0.898-2.484,0.898-2.484l1.326-1.019
	L245.327,191.082z"/>
<path fill-rule="evenodd" clip-rule="evenodd" fill="#FFFFFF" stroke="#070001" stroke-width="0.4814" stroke-linecap="round" stroke-linejoin="round" stroke-miterlimit="10" d="
	M267.546,240.102c1.102,1.645,1.915,2.254,0.894,2.967c-1.021,0.714-1.075,1.181-1.564,1.725c-0.684,0.757-1.097,2.198-1.238,3.167
	c-0.146,1.004-0.267,0.588-1.58,1.144c-2.038,0.864-1.456,0.607-2.905,0.481c-0.912-0.079-0.532-0.798-2.343-0.739
	c-1.811,0.058-3.315,1.814-3.92,1.265c-0.608-0.549-0.886-0.957-1.858-2.228s-1.801-3.601-2.889-3.852
	c-1.089-0.249-4.306,0.439-5.174,0.952c-0.965,0.572-2.089-0.069-2.53,0.975c-0.393,0.925-2.573,1.449-2.232,2.77
	c0.788,3.045-0.656,3.969-0.656,3.969s-0.82-0.25-1.928-0.963c-1.107-0.713-1.926-1.926-1.926-1.926s-1.492-1.723-1.925-0.962
	c-0.435,0.76-1.926,1.925-1.926,1.925s-1.646-2.83-0.962-3.851c0.683-1.021,2.108-1.936,1.925-2.889
	c-0.184-0.953,0.258-1.763-0.021-2.379c-0.279-0.617-1.018-0.664-0.941-1.472c0.077-0.809-0.377-1.35-0.377-1.35
	s-1.25-0.789-1.549-1.538c-0.298-0.751-0.962-2.889-0.962-2.889s-0.481-1.451,0.373-2.293c0.373-0.368,0.589-0.595,1.553-1.558
	c1.15-1.151,1.042-1.527,3.074-1.288c2.032,0.241,2.059,0.608,3.336,0.139c1.035-0.381,1.39-0.573,3.219-0.776
	c1.83-0.202,2.533-0.309,2.889-0.962c0.357-0.655,1.397-0.896,0.964-1.926c-0.434-1.031-1.926-2.889-1.926-2.889
	s-1.927-0.962-1.512-1.137c0.414-0.172-0.752-2.599-0.416-2.714c0.337-0.115,1.148-0.4,1.148-0.4s1.048-1.911,0.779-2.487
	c-0.27-0.578,0.962-4.814,0.962-4.814l2.889-2.888c0,0,0.698,0.924,1.926,1.926c0.679,0.552,0.723,2.204,1.927,0.962
	c1.203-1.241,1.337-1.254,1.925-2.888c0.772-2.142,1.397-3.351,1.927-3.852c0.53-0.5,2.889,0,2.889,0s2.293,0.309,3.852,0.964
	c1.562,0.654,1.917,0.74,2.89,0.962c0.973,0.222,3.236-0.285,3.236-0.285l1.82,3.535l-0.696,1.188c0,0-0.977,0.145-0.949,1.299
	c0.029,1.155-0.001,1.404-0.733,2.532c-0.688,1.06-1.214,2.61-0.752,3.284c0.462,0.674,1.686,1.716,1.686,1.716l-0.723,2.136
	c0,0-0.346,0.847-1.926,1.924c-1.58,1.08-3.65,1.522-3.65,1.522s0,0-0.203,1.367c-0.201,1.367,0.185,2.29,0.963,2.888
	c0.78,0.598,1.484,0.78,1.926,1.926c0.444,1.145,0.43,1.571,1.614,2.551c1.688,1.397,0.48,2.903,0.48,2.903
	s-1.289,1.418-0.165,1.908L267.546,240.102z"/>
<path fill-rule="evenodd" clip-rule="evenodd" fill="#FFFFFF" stroke="#070001" stroke-width="0.4814" stroke-linecap="round" stroke-linejoin="round" stroke-miterlimit="10" d="
	M227.031,210.337c0,0,5.43-4.228,5.776-4.813c0.347-0.588,2.6-3.234,2.888-3.852c0.289-0.616,2.485-5.814,2.89-5.775
	c0.405,0.037,0.982-1.917,1.925-3.853c0.944-1.934,2.196-2.252,1.927-2.888c-0.27-0.636-0.963-4.813-0.963-4.813
	s0.192-0.963,0-1.926c-0.192-0.963-2.245-3.388-1.925-3.851c0.317-0.462,0.895-3.176,0.961-3.85c0.068-0.676,1.156-3.158,0.964-2.89
	c-0.039,0.059-0.067,0.077-0.078,0.067c-0.029-0.02,0.319-0.461,2.003-1.03c2.12-0.713,2.052-0.337,3.853-0.962
	c1.8-0.626,2.726-1.454,3.852-1.926c1.127-0.472,3.554-2.483,4.816-2.888c1.261-0.405,2.398-1.339,2.889-0.964
	c0.491,0.377,1.925,1.927,1.925,1.927s0.04,1.339-0.962,1.925c-1.002,0.587-2.89,1.926-2.89,1.926s0.232,1.298,0,1.925
	c-0.23,0.626-1.319,1.637-1.926,1.925c-0.606,0.289-1.926,0-1.926,0s0.289,1.444-0.964,1.927c-1.251,0.481-1.925,1.926-1.925,1.926
	h-2.889l-0.964,0.962l-0.962,1.926l0.962,0.962c0,0,3.371,0.529,2.89,0c-0.481-0.529,0-1.925,0-1.925l1.926,0.963v1.925l0.963,1.926
	l-0.963,0.963h-1.926c0,0-1.945,0.462-2.89,1.926c-0.944,1.462-0.799,1.839-0.962,2.888c-0.164,1.05-0.022,3.431-0.022,3.431
	s0,0-0.941,0.42c-0.418,0.187-2.187,4.996-1.926,5.776c0.26,0.78,0.962,10.591,0.962,10.591s0.006,1.114-0.167,1.558
	c-0.172,0.443-1.086,3.226-0.826,3.783c0.261,0.559,0,2.66,0,2.66l-1.896,0.663c0,0-2.128,0.838-2.889-0.963
	c-0.76-1.801-0.961-1.925-0.961-1.925s-5.932-0.482-5.778,0c0.154,0.48-1.169-0.063-1.926-0.964
	c-0.854-1.016-1.925-2.889-1.925-2.889V210.337z"/>
<path fill-rule="evenodd" clip-rule="evenodd" fill="#FFFFFF" stroke="#070001" stroke-width="0.4814" stroke-linecap="round" stroke-linejoin="round" stroke-miterlimit="10" d="
	M271.329,256.547c0.019,1.373,0.38-5.678,0.803-5.687c0.424-0.009,1.484,0,3.05-1.053c0.328-0.222,2.888-1.925,2.888-1.925
	s1.591-2.734,2.89-2.89c1.3-0.152,1.668-0.182,1.926-0.962c0.26-0.78,0.963-2.522,0.963-2.888s0.965-2.889,0.965-2.889
	s0.357-3.971,0.724-3.595c0.365,0.377,1.319,1.469,1.05,2.323c-0.746,2.365,0.229,2.978,0.519,4.2
	c0.288,1.223,0.703,3.146,0.823,3.565c0.279,0.976,0.828,1.656,1.216,1.801c0.712,0.264,1.302-0.381,1.446,0.37
	c0.145,0.75,0.08,3.243,0.678,3.492c0.598,0.251,0.202,0.869,1.391,1.207c0.965,0.273,1.141,0.638,1.993-0.251
	c0.722-0.755,0.753-5.41,0.753-5.41l1.927-2.89c0,0,0.048,1.366,0.963,1.925s1.233,0.335,2.558,0.581
	c0.779,0.146,0.871-1.119,1.296-1.543c0.423-0.424,2.531,0.067,2.889,0c0.356-0.067,2.417,0.251,2.89,0
	c0.471-0.249,1.601-0.173,1.601-0.173s0.893,2.311,0.324,3.062c-0.567,0.75-0.448,1.385-0.411,1.972
	c0.039,0.586,0.454,3.192,0.454,3.192l0.813,1.133c0,0,1.07,0.441,2.032,4.294c0.157,0.625,1.925,2.888,1.925,2.888
	s-0.423,2.619-0.962,2.888c-0.54,0.269-1.376,1.637-1.925,1.925c-0.549,0.289-1.001,2.312-1.926,2.889
	c-0.925,0.578-0.982,0.8-1.925,1.926c-0.945,1.125-2.37,3.417-2.89,2.888c-0.521-0.53-3.14-2.6-2.889-2.888
	c0.249-0.289-1.464-3.351-0.964-3.851c0.5-0.501,0.896-4.361,0.964-4.814c0.067-0.452,0.962-2.888,0.962-2.888l1.927-0.962v-2.89
	c0,0,1.772-0.799-0.964-0.963c-2.734-0.163-5.778,0-5.778,0s-1.944,0.327-1.925,0.963c0.018,0.636-1.59,0.387-0.965,1.926
	c0.627,1.54-0.963,2.888-0.963,2.888l-3.852,0.964l-0.963,1.925c0,0,0.317,0.5-0.963,1.925c-1.281,1.426-2.908,1.858-2.889,3.852
	s1.732,3.235,0.961,3.852c-0.769,0.617-2.357-0.77-2.889-0.964c-0.529-0.192-4.67-0.499-5.778-0.962
	c-1.106-0.463-2.532,1.328-3.852,0.962c-1.319-0.364-3.025-0.674-3.852-0.962c-0.829-0.289-1.926-0.963-1.926-0.963
	s-1.087-0.991-0.963-1.925c0.125-0.936,0-1.927,0-1.927s-2.562,0.049-1.926,0.964c0.635,0.914-0.285,4.996-0.963,3.851
	c-0.747-1.263-1.216-2.769-1.216-2.769l0.468-4.258c0,0,1.158-0.249,3.638-1.639c2.447-1.371,3.871-2.32,3.852-2.888
	C271.309,257.904,271.323,256.186,271.329,256.547z"/>
<path fill-rule="evenodd" clip-rule="evenodd" fill="#FFFFFF" stroke="#070001" stroke-width="0.4814" stroke-linecap="round" stroke-linejoin="round" stroke-miterlimit="10" d="
	M242.438,256.547c0,0-0.462,0.145-0.963-0.963s-2.359-2.993-1.925-2.888c0.433,0.105,0.961-1.444,0.961-1.926
	s-0.533-2.664,0.058-3.111c0.636-0.484,0.821-0.982,1.87-1.701c1.14-0.782,2.677-1.08,2.889-0.965
	c0.211,0.116,1.887-0.979,1.926-0.962c0.039,0.019,1.454-0.318,1.926,0s1.292-0.179,1.821,0.631c0.53,0.809,2.868,4.985,3.245,4.783
	c0.376-0.201,0.481,1.172,1.676,0.362c1.195-0.808,3.082-0.962,3.852-0.962s1.407,1.01,1.926,0.962
	c0.521-0.048,3.446-1.002,3.891-1.388c0.441-0.385,1.465,2.678,1.888,2.351c0.424-0.328,1.234-0.899,1.926-0.963
	c0.597-0.055,2.729,1.053,2.729,1.053l-0.255,0.581c-0.216,2.477-0.162,1.89-0.216,2.477c-0.218,2.401-0.147,2.527-0.35,4.752
	c-0.019,0.197-1.283,0.87-1.87,1.343c-1.295,1.044-2.133,1.432-2.779,1.932c-0.645,0.501-3.077,0.793-3.039,1.342
	c0.039,0.549,0.193,1.021,0,1.925c-0.192,0.905-0.491,2.129,0,2.889c0.491,0.761,1.159,2.116,1.159,2.116s-3.018-0.624-4.049-0.19
	c-1.029,0.433-3.573,1.512-4.814,1.926c-1.242,0.413-4.816,0.962-4.816,0.962s0.338-1.473,0.963-1.926
	c0.626-0.452,4.508-1.568,4.815-1.925c0.308-0.356,1.946,0.183,1.927-0.963c-0.02-1.145,1.165-1.185,0-1.925
	c-1.166-0.742-1.927-1.927-1.927-1.927s-2.099,0.51-1.926,0.963s-0.221,2.484-1.926,1.927c-1.705-0.559-3.871,0.076-3.853-0.963
	c0.02-1.04-0.8-3.215-0.963-2.889c-0.163,0.327-0.962,0.962-0.962,0.962s-0.491,0.915,0,1.927c0.491,1.011,2.369,0.856,1.926,1.925
	c-0.442,1.069-1.733,1.165-1.926,0.963c-0.192-0.202-1.84-1.212-1.926-1.925c-0.088-0.713-1.079-2.254-0.963-2.89
	c0.116-0.635,1.359-1.462,0.963-1.925c-0.396-0.463-2.234-2.646-1.927-2.889c0.309-0.24,0.781-0.086,0.964-0.962
	s0.963-1.926,0.963-1.926H242.438z"/>
<path fill-rule="evenodd" clip-rule="evenodd" fill="#FFFFFF" stroke="#070001" stroke-width="0.4814" stroke-linecap="round" stroke-linejoin="round" stroke-miterlimit="10" d="
	M237.621,263.286c0,0-2.021,2.33-1.926,2.889c0.097,0.559,0.356,2.406,0,2.888c-0.355,0.48-0.48,1.694,0,1.925
	c0.481,0.231,0.713,0.5,1.926,1.926c1.214,1.426,1.359,0.674,2.889,1.926c1.532,1.251,2.196,1.916,2.889,1.926
	c0.694,0.009,3.179,0.24,2.889,0.963c-0.289,0.722,0.521,0.923,0,1.925c-0.52,1.001-2.34,2.339-1.925,2.888
	c0.415,0.55,0.116,2.003,0,1.926s-1.224-0.549-1.926-0.963c-0.704-0.413-2.716-1.665-2.889-0.963
	c-0.174,0.704-2.428,2.108-3.854,2.888c-1.425,0.781-2.32,0.078-3.851,0.964c-1.53,0.885-2.801,1.135-2.888,1.926
	c-0.087,0.789-1.078,1.694-0.962,1.925c0.115,0.231,0.038,2.503,0,2.889c-0.039,0.385,0.096,2.956-0.963,2.889
	c-1.059-0.068-2.821,0.239-2.888,0.962c-0.067,0.722-1.347,1.626-1.925,2.888s-0.665,2.532-0.963,2.889
	c-0.299,0.355,0,1.925,0,1.925s-1.697,0.743-1.925,0.753c-0.452,0.021,0.359-1.224-1.216-2.804c-1.823-1.829-2.456-1.469-2.636-1.8
	c-0.403-0.748,0.01-1.185,0-1.925c-0.009-0.741,1.495-2.596,1.926-2.888c0.932-0.633,0.602,0.27,1.925-0.965
	c1.102-1.025,1.088-1.933,1.925-1.924c0.838,0.01,2.022-0.491,1.926-0.964c-0.097-0.471-1.676-4.359-0.963-4.813
	c0.712-0.453,2.224-1.569,1.925-1.927c-0.299-0.354-0.713-1.134-0.962-1.925c-0.25-0.79-0.865-2.157-0.963-2.888
	c-0.101-0.751-0.179-2.269,0.331-2.047c0.51,0.223,3.838,0.034,3.521-0.841c-0.318-0.877,0.625-1.377,0-1.926
	c-0.626-0.55-2.809-1.582-3.193-1.803c-0.54-0.312-2.006-0.151-1.621-1.086c1.353-3.284,0.418-3.011,0.963-2.888
	c-0.423-0.096-1.888-1.39-1.716-1.718c0.204-0.389-0.346-1.259-0.209-2.133c0.201-1.285,1.738-2.309,2.046-2.446
	c0.802-0.361,1.902-0.444,2.487-0.845c0.225-0.154-0.591-1.455,2.939-0.611c1.324,0.315,3.719-3.358,3.719-3.358
	s0.56-0.948,0.545-1.568c-0.024-0.999,0.419-2.048,0.438-2.654c0.02-0.606,0.245-3.035,0.341-2.958s-0.303-0.778-0.736-0.873
	c-0.434-0.096,2.097-2.198,2.097-2.198l0.564,0.184l2.257,2.406c0,0,0.381,0.025,1.696,1.083c1.545,1.243,1.577,1.478,1.577,1.478
	s0.953,1.358,1.212,1.771s0,1.927,0,1.927s-1.522,1.153-1.925,0.962c-0.406-0.192-0.685,0.443-0.964,0.962
	C238.306,259.955,237.621,263.286,237.621,263.286z"/>
<path fill-rule="evenodd" clip-rule="evenodd" fill="#FFFFFF" stroke="#070001" stroke-width="0.4814" stroke-linecap="round" stroke-linejoin="round" stroke-miterlimit="10" d="
	M222.217,215.149c0,0,0.028-1.059,0.963-1.925c0.934-0.866,3.851-2.888,3.851-2.888s-0.193,1.097,0,1.924
	c0.193,0.828,1.197,2.092,1.925,2.889c1.263,1.384,1.29,0.877,2.888,0.964c1.599,0.085,3.851,0,3.851,0s0.93-0.296,1.386,0.723
	c0.54,1.202,1.504,2.165,1.504,2.165h1.925l0.416,2.714l1.932,1.68c0,0,0.36,1.078,1.024,1.464c0.665,0.385,0.314,1.545,0.314,1.545
	s-0.013,1.429-1.66,1.902c-1.264,0.363-4.445,0.702-4.445,0.702s-1.605,0.978-2.396,0.583c-0.79-0.396-3.62-0.52-3.851,0
	c-0.231,0.521-2.34,1.868-1.926,1.926c0.068,0.01,0.087,0.01,0.087,0c0.01-0.02-0.818-0.125-1.049,0.962
	c-0.269,1.29,0.688,4.052,0.147,2.642c-0.197-0.516-2.698-1.877-2.823-2.463c-0.126-0.587-2.138,0.784-2.138,0.784
	s1.151,1.543,0.962,1.925c-0.389,0.79-1.482,2.254-2.888,2.889c-1.406,0.636-3.09,0.377-2.888,0.963
	c0.202,0.587-0.299,0.423-0.963,0.963c-0.664,0.539-1.357,1.117-1.925,1.925c-0.568,0.809-1.271,1.397-1.926,1.926
	c-0.655,0.53-1.147,1.356-1.34,1.057c-0.192-0.299-3.059,1.716-3.474,0.87c-0.414-0.849-0.509-2.272-1.925-1.927s-1.925,0-1.925,0
	l-1.926-1.926c0,0-1.451-1.583-1.104-2.243c0.401-0.762-0.686-0.962,0.142-1.607c0.828-0.644,2.378,2.119,2.888,1.926
	c0.51-0.193,1.694-2.378,1.925-1.926c0.231,0.453,2.888,0.963,2.888,0.963s-0.722,0.413,0.963-0.963
	c1.685-1.377,2.08-0.549,2.888-0.962c0.809-0.415-0.896-1.975,0.962-1.927c1.859,0.049,2.639,0.867,2.889,0
	c0.25-0.865-0.616-4.091,0-3.85c0.616,0.24,2.782,0.222,2.888,0.962c0.105,0.741,0.54,3.013,0.963,0.963s0.953-3.09,0.963-3.851
	c0.009-0.76-1.666-2.446-1.926-2.888c-0.26-0.443-1.762,0.895-1.925-0.963c-0.164-1.859-0.299-2.09-0.963-2.889
	c-0.664-0.798-1.348-1.405,0-1.926c1.348-0.52,2.233-0.586,2.888-1.925S222.217,215.149,222.217,215.149z"/>
<path fill-rule="evenodd" clip-rule="evenodd" fill="#FFFFFF" stroke="#070001" stroke-width="0.4814" stroke-linecap="round" stroke-linejoin="round" stroke-miterlimit="10" d="
	M213.553,256.547c0.125-0.636,0.703-2.311,0.962-3.851c0.26-1.541,0-2.889,0-2.889l-1.925-0.962l0.963-1.926
	c0,0-0.125-1.492,0-1.927c0.125-0.432,1.893-1.563,2.888-2.888c0.975-1.297,2.888-2.527,2.888-2.527s-0.227-0.596,1.859-0.997
	c1.364-0.261,2.548-1.374,2.548-1.374s2.211-1.358,0.645-3.836c-0.257-0.406,1.687-0.893,1.687-0.893s2.689,2.516,2.888,2.888
	c0.399,0.752,0.915,1.06,0.962,1.927c0.049,0.865,0.049,0.51,0.963,0.962c0.915,0.453,1.143,2.873,1.143,2.873
	s1.062,0.534,0.782,0.978s0,1.926,0,1.926s0,1.117-0.963,1.927c-0.962,0.808-0.942,0.178-1.125,1.621
	c-0.183,1.444,0.624,2.989,1.125,3.191s1.242,0.356,0.963,1.926c-0.279,1.568-0.963,5.776-0.963,5.776l-1.747,2.262l-2.104,1.589
	c0,0-2.628-0.722-2.889,0c-0.26,0.722-2.376,1.283-2.376,1.283s-1.221,0.076-1.798,0.519c-0.182,0.139-1.881-0.411-2.683-0.258
	c-1.446,0.276-1.896-1.107-1.896-1.107s-1.548-0.061-1.837-0.437s0.52-0.744,0.182-2.122c-0.337-1.375-0.182-2.69-0.182-2.69
	S213.427,257.183,213.553,256.547z"/>
<path fill-rule="evenodd" clip-rule="evenodd" fill="#FFFFFF" stroke="#070001" stroke-width="0.4814" stroke-linecap="round" stroke-linejoin="round" stroke-miterlimit="10" d="
	M187.357,244.687c0,0,0.431-0.402,1.384-1.47c0.954-1.068,2.91-1.564,2.669-3.036c-0.241-1.473-0.311-2.124-1.37-1.671
	c-1.059,0.452-2.811,1.757-2.811,1.757l-0.633-2.012c0,0,0.253-3.368,0.07-3.32s-0.317-0.743,0.732-1.012s2.605-0.539,4.011-1.444
	c1.406-0.903,1.993-0.472,2.888-0.962c0.896-0.491,2.889-1.926,2.889-1.926s-0.106,1.136,0.963,1.926
	c1.068,0.789,2.964,1.23,1.925,1.925c-1.04,0.693-2.907-0.78-2.888,0.963c0.02,1.742-0.75,3.216,0,3.851
	c0.75,0.636,1.453,1.474,1.925,0.963c0.472-0.51,1.55-1.512,1.926-1.925c0.375-0.415,1.925,0,1.925,0s-0.49,0.93-0.211,1.701
	c0.147,0.405-0.309,1.58,1.407,3.345c0.75,0.771,0.65,1.372,1.693,1.692c1.012,0.311,2.339,0.019,2.888,0
	c0.548-0.018,1.203,2.136,1.203,2.136l3.61-1.174l-0.017,1.688l-0.946,2.165l1.925,0.962c0,0,0.168,0.891,0.06,2.453
	c-0.167,2.406-1.155,3.438-1.183,4.046c-0.041,0.881,0.569,0.442,1.123,1.204c0.353,0.482-0.442,1.058,0,1.924
	c0.443,0.868,0,2.889,0,2.889s0.904,0.165,2.044,0.844c2.088,1.242-0.229,0.203,0.616,0.598l4.62,0.443c0,0-1.292,0.879-1.503,1.967
	c-0.212,1.087,1.03,2.762-0.962,1.925c-1.993-0.838-3.976,1.117-4.814,0.963c-0.837-0.154-1.367-0.309-1.925-0.963
	c-0.559-0.655-1.463-0.723-1.925-2.889s-1.194-2.975-1.925-3.851c-0.732-0.876-1.457-0.916-1.457-0.916s-1.663,0.185-2.395-0.046
	c-0.731-0.231-2.865-2.738-3.49-3.13c-0.463-0.29,0.076-1.77-0.36-2.647c-0.589-1.183-1.117-1.482-1.926-1.925
	c-0.808-0.443-2.406-0.936-2.888-0.963c-0.481-0.028-0.241-0.32-1.378-0.731c-1.548-0.56-2.082-0.766-2.843-1.201
	c-2.598-1.488-4.585-4.045-4.585-4.045L187.357,244.687z"/>
<path fill-rule="evenodd" clip-rule="evenodd" fill="#FFFFFF" stroke="#070001" stroke-width="0.4814" stroke-linecap="round" stroke-linejoin="round" stroke-miterlimit="10" d="
	M210.665,274.839c0,0,0.066-0.481,0.135-1.176c0.086-1.067,0.144-2.628-0.135-3.638c-0.462-1.667-0.148-3.523-0.148-3.523
	l0.148-1.291c0,0,0.711,2.454,2.302,3.259c2.061,1.044,1.928,0.546,2.971,0.108c1.133-0.475,2.108-0.676,2.108-0.676
	s2.191-0.153,2.456,0.405c0.26,0.553,0.26,0.553,0.451,0.763c0.85,0.939,1.266,0.955,1.266,0.955l-0.895,3.462
	c0,0,0.142,0.156,0.979,0.334c1.635,0.348,3.954,2.237,3.954,2.237l-0.186,1.669c0,0-0.401,0.921-1.926,0.963
	c-1.322,0.034-1.983-0.732-1.925,0.962s0.641,2.348,0.65,2.982c0.01,0.636,1.006,2.407,1.006,2.407s0.402,0.696-0.186,1.194
	c-0.566,0.479-1.708,0.877-1.65,1.781c0.058,0.904,1.12,3.524,1.143,4.149c0.03,0.843-2.055,0.138-2.674,1.244
	c-0.907,1.614-2.344,2.484-3.102,2.608c-0.668,0.106-1.775,2.343-1.775,2.343l-4.964-0.418c0,0-1.56-0.337-1.925-0.963
	c-0.366-0.626-0.646-1.771-0.963-3.851c-0.317-2.08-1.418-4.358-0.963-4.813c0.993-0.994,1.129-1.98,1.838-2.16
	c1.83-0.463,2.976-0.729,2.976-0.729s-2.061-3.069-1.926-3.85c0.135-0.78,0.387-1.65,0.387-1.65s0.693-0.908,0.846-1.507
	C211.081,277.843,210.665,274.839,210.665,274.839z"/>
<path fill-rule="evenodd" clip-rule="evenodd" fill="#FFFFFF" stroke="#070001" stroke-width="0.4814" stroke-linecap="round" stroke-linejoin="round" stroke-miterlimit="10" d="
	M194.298,281.578c0,0,1.589,0.135,2.889-0.963s1.916-0.654,2.888-2.888c0.972-2.234,1.964-1.35,1.926-2.889
	c-0.039-1.54,0.039-2.869,0-3.852c-0.039-0.98,0-2.888,0-2.888s-0.62-1.775-0.292-3.026c0.327-1.251,0.378-2.192,0.292-2.75
	c-0.086-0.559,0.123-1.475-0.021-2.556c-0.204-1.534-0.831-2.579-0.831-2.579l0.852,0.322c0,0,2.146,2.982,2.888,2.888
	c0.742-0.096,2.889,0,2.889,0s2.044,2.051,2.362,3.089c0.318,1.041,0.32,3.492,0.32,3.492s-0.176,1.607,0.073,2.446
	c0.209,0.709,0.425,0.688,0.329,2.083c-0.097,1.397-0.234,2.676-0.195,3.33c0.038,0.654,0.27,3.582,0.27,3.582l-1.233,2.194
	c0,0-3.423-0.021-3.85,0c-0.819,0.037-1.683,0.241-1.683,0.241s-1.786,1.585-2.515,1.562c-0.497-0.017-2.187,0.216-2.187,0.216
	s-1.787,0.159-2.763-0.018c-1.413-0.256-2.439,0.623-2.824,0.845c-0.385,0.223-1.506-0.921-1.506-0.921L194.298,281.578z"/>
<path fill-rule="evenodd" clip-rule="evenodd" fill="#FFFFFF" stroke="#070001" stroke-width="0.4814" stroke-linecap="round" stroke-linejoin="round" stroke-miterlimit="10" d="
	M198.149,301.795c0,0,2.329,1.242,2.888,1.925c0.559,0.685-0.376,3.352,0,3.853c0.375,0.499,2.656,1.339,2.887,1.925
	c0.232,0.586,1.416,2.166,1.926,1.925c0.51-0.24,0.414,0.887,1.925,0.963c1.511,0.078,3.447,0.935,3.851,0.963
	c0.404,0.027,0.703,0.059,1.925-0.963s1.993-0.816,2.888-1.925s1.492-0.732,1.925-1.926c0.434-1.194,0.782-3.824,0.782-3.824
	l-1.035-2.078l-2.735-2.024l0.069-2.245c0,0-5.536-0.147-6.516-1.154c-0.624-0.642-0.654-1.459-0.654-1.459l-0.556-2.932
	l-0.75-2.747l-0.336-1.572c0,0,0.518-0.479,1.188-1.666c0.632-1.118,3.805-1.404,3.805-1.404s-0.456-0.826-0.875-1.395
	c-1.652-2.246-1.051-3.418-1.051-3.418l-3.373-0.14c-2.656,0-4.208,2.17-4.076,1.996c0,0-1.504-0.2-2.178,0.068
	c-0.674,0.27-4.813,0-4.813,0l-2.888,1.926c0,0,0.567,2.021,0.962,1.926c0.395-0.096,0.25,0.375,0.962,0.963
	c0.713,0.586,2.407,1.982,1.926,1.925c-0.481-0.059-1.926,0.963-1.926,0.963s-0.712,1.396,0,1.925
	c0.713,0.53,0.963,1.926,0.963,1.926s-1.222,0.761-1.925,0.962c-0.703,0.203-1.04-0.288-0.962,0.965
	c0.077,1.251,1.944,2.512,1.925,2.888c-0.019,0.376,2.041,1.28,1.926,1.925C196.108,301.478,198.149,301.795,198.149,301.795z"/>
<path fill-rule="evenodd" clip-rule="evenodd" fill="#FFFFFF" stroke="#070001" stroke-width="0.4814" stroke-linecap="round" stroke-linejoin="round" stroke-miterlimit="10" d="
	M218.366,248.846c0,0,3.148-2.042,2.888-2.888c-0.26-0.849,0-0.965,0-0.965s-0.289-1.404,0-1.925c0.289-0.52,1.733-0.49,1.926-0.963
	c0.192-0.472,0.962-0.962,0.962-0.962s1.502-0.213,1.926,0.962c0.423,1.177,0.404,1.763,0.962,1.926
	c0.559,0.164,1.367,1.117,0.963,1.927c-0.404,0.808,0.125,1.578-0.963,1.925c-1.088,0.346-2.494,1.492-2.888,1.925
	c-0.395,0.434-1.618,1.223-1.925,1.926c-0.308,0.703-1.926,1.925-1.926,1.925h-1.925v1.926l-0.962,2.889l-0.963-0.962l-0.202-3.062
	l1.165-3.679L218.366,248.846z"/>
<path fill-rule="evenodd" clip-rule="evenodd" fill="#FFFFFF" stroke="#070001" stroke-width="0.4814" stroke-linecap="round" stroke-linejoin="round" stroke-miterlimit="10" d="
	M172.156,237.293c0,0,1.492-2.62,1.925-2.889c0.434-0.27,1.955,0.636,1.926,0c-0.029-0.636,8.761,0.269,8.664,0
	c-0.096-0.27,1.743-0.462,1.926,0c0.182,0.462,0,3.216,0,3.851c0,0.636,0.279,2.484,0.962,1.926
	c0.684-0.559,2.888-1.926,2.888-1.926s0.923,0.602,0.963,1.926c0.015,0.502,0.144,1.117-0.963,1.925
	c-1.107,0.809-2.373,1.348-2.42,1.877c-0.048,0.53-1.517,0.617-0.468,1.976c1.049,1.356,1.983,2.405,2.888,2.888
	c0.905,0.48,1.733,1.206,2.874,1.576c0.956,0.313,2.103,0.976,2.902,1.312c0.799,0.337,2.416,0.674,2.888,0.963
	c0.472,0.288,1.55,1.367,1.926,1.925c0.375,0.559-0.01,1.099,0,1.926c0.009,0.827,0.962,2.888,0.962,2.888s-0.145,1.984,0,2.889
	c0.144,0.905-0.423,3.956-0.962,4.814c-0.54,0.856-0.385,1.529-1.926,1.925c-1.54,0.396-3.6-0.115-3.851,0.963
	c-0.25,1.077-2.233,2.225-2.888,1.926c-0.655-0.3-2.378-0.53-2.889-0.964c-0.51-0.433-1.973-0.49-2.888-1.925
	s-2.889-2.888-2.889-2.888h-3.851c0,0-5.574,0.472-6.739,0.963c-1.165,0.49-2.05,2.166-2.888,0.962
	c-0.837-1.203-1.926-3.852-1.926-3.852s-0.907-1.411-1.048-4.297c-0.061-1.255,0.389-2.834,2.011-4.367
	c1.41-1.333,2.712-2.94,2.889-3.851c0.264-1.363-0.006-2.401,0.556-3.421c0.408-0.741,1.11-0.831,1.57-1.809
	c0.537-1.141,1.146-2.071-0.201-3.436c-1.215-1.23-2.615-2.574-2.452-3.133C171.792,239.377,172.156,237.293,172.156,237.293z"/>
<path fill-rule="evenodd" clip-rule="evenodd" fill="#FFFFFF" stroke="#070001" stroke-width="0.4814" stroke-linecap="round" stroke-linejoin="round" stroke-miterlimit="10" d="
	M179.857,282.54c0,0,0.963-1.656,1.926-2.888c0.963-1.231,1.694-1.983,2.888-2.888c1.194-0.905,3.851-2.89,3.851-2.89l1.926-0.962
	c0,0-1.646,2.099-1.926,2.889c-0.279,0.789-1.925,2.889-1.925,2.889v1.925c0,0.731,0.096,1.472,0.962,1.925s0.962,1.926,0.962,1.926
	s-1.01,0.279-1.925,0.962c-0.915,0.684-2.206,0.51-1.926,0.964c0.279,0.453-1.376,1.656-1.925,0.963
	c-0.549-0.694-1.925-2.889-1.925-2.889h-0.963V282.54z"/>
<path fill-rule="evenodd" clip-rule="evenodd" fill="#FFFFFF" stroke="#070001" stroke-width="0.4814" stroke-linecap="round" stroke-linejoin="round" stroke-miterlimit="10" d="
	M138.46,241.144c0,0,5.15,0.973,5.776,0c0.626-0.972,0.963-0.963,0.963-0.963h5.776c0,0,0.26,0.837,1.925,0.963
	c1.666,0.125,4.304,0.606,4.813,0c0.511-0.606-0.596-1.781,0.963-1.926c1.56-0.145,2.667,1.156,3.851,0.963s2.667-0.269,3.851-0.963
	c1.184-0.693,3.225-2.888,3.851-2.888c0.625,0,3.223-1.153,3.223-1.153c-0.937,2.09-0.952,1.992-1.297,3.078
	c-0.202,0.636-1.079,1.848,0,2.889c1.078,1.04,2.888,2.888,2.888,2.888s-0.664,2.494-0.963,2.889
	c-0.298,0.395-1.54,1.262-1.925,1.926c-0.385,0.664-2.195,0.99-3.852,1.925c-1.655,0.935-3.657,0.713-3.851,0
	c-0.192-0.712-0.548-2.32-1.925-2.888c-1.377-0.568-3.302-2.186-2.889-1.925c0,0-1.521,0.749-1.925,0.962
	c-0.404,0.212-1.434,1.625-1.925,1.926c-0.491,0.298-2.908,0.434-2.889,0c0.02-0.435-0.395-2.32-1.925-1.926
	c-1.531,0.395-2.051-0.116-2.889,0.963c-0.838,1.078-1.454,0.577-2.888,1.925c-1.435,1.348-2.889,1.926-2.889,1.926
	s-0.538,0.859-1.107,1.528c-0.444,0.523-1.896,1.476-1.896,1.476s-0.105,0.544-0.848,0.847c-1.021,0.415-5.237-0.145-4.813,0
	c0.423,0.146-0.058-0.703,0-1.926c0.058-1.222,0.318-1.261,1.926-2.888c1.607-1.627,2.888-1.223,2.888-2.888
	c0-1.667-0.366-1.907,0-2.89C138.826,244.014,138.46,241.144,138.46,241.144z"/>
<path fill-rule="evenodd" clip-rule="evenodd" fill="#FFFFFF" stroke="#070001" stroke-width="0.4814" stroke-linecap="round" stroke-linejoin="round" stroke-miterlimit="10" d="
	M144.99,276.3l-2.171-4.456c0,0-0.362-0.699-1.47-2.781c-1.324-2.486-0.755-3.396-0.852-4.282c-0.096-0.885-1.074-2.457-1.074-2.457
	s-1.046-2.299-0.963-2.889c0.217-1.515,0-3.851,0-3.851l3.851-3.851c0,0,1.019-0.354,1.925-0.963c1.51-1.014,4.11-3.048,4.477-3.272
	c0.626-0.387,2.024-0.538,2.263-0.578c1.403-0.239,2.056,2.076,2.056,2.076l2.485-0.01l1.991-1.908l2.131-1.12l1.858,1.385
	c0,0,1.587,0.771,1.991,1.253c0.405,0.48,0.792,1.607,0.965,2.175c0.174,0.568,0.842,0.746,1.69,0.61
	c1.108-0.179,3.278-1.092,4.087-1.573c0.808-0.481,2.154-1.274,2.154-1.274c-0.019,1.213-0.229,3.2-0.229,3.2
	s-1.394,2.46-1.925,2.888c-1.845,1.485-2.888,3.852-2.888,3.852s-0.396,0.646,0.009,2.561c0.404,1.917,0.597,2.59,0.953,3.215
	c0.356,0.626-0.157-0.131,0.518,1.189c0.674,1.319,1.409,2.662,1.409,2.662s-2.013-0.991-2.888,0
	c-0.876,0.99-1.964,2.041-2.889,2.888c-0.924,0.849-1.559,0.991-2.888,1.926s-3.168,2.466-2.889,2.889s-0.568,1.963-2.888,1.926
	c-2.321-0.039-4.813,0-4.813,0l-0.963-1.926l-0.963,1.926l-2.134-0.466L144.99,276.3z"/>
<path fill-rule="evenodd" clip-rule="evenodd" fill="#FFFFFF" stroke="#070001" stroke-width="0.4814" stroke-linecap="round" stroke-linejoin="round" stroke-miterlimit="10" d="
	M92.192,270.602c0,0,2.906-1.116,3.908-2.502c1.001-1.386,4.881-6.046,5.776-6.739c0.896-0.693,2.772-2.801,3.852-3.85
	c1.078-1.05,2.888-1.927,2.888-1.927l1.926-0.963c0,0,3.389-3.32,3.851-3.851c0.461-0.529,2.204-1.491,2.888-1.925
	c0.683-0.435,1.521-0.761,1.925-0.963c0.405-0.202-0.587-3.466,0-3.852c0.587-0.386,1.983-1.637,1.926-1.926
	c-0.058-0.288,3.851-1.925,3.851-1.925s1.626-2.012,2.888-1.926c1.261,0.088,3.331,1.194,3.852,0c0.519-1.193,7.701,0,7.701,0
	l-0.963,2.889c0,0,0.292,2.374,0.076,3.563c-0.396,2.174,0.615,3.023-0.452,4.285c-0.827,0.979-2.633,1.903-2.933,2.2
	c-0.685,0.681-1.448,1.934-1.448,1.934s0.268,2.15-0.086,2.22c-1.333,0.258-4.741,0.085-5.747,0.239
	c-1.564,0.241-2.638-0.693-2.888,0c-0.25,0.694-1.042,1.771-1.926,2.889c-0.582,0.736-0.742,0.069-1.763,0.888
	c-1.02,0.817-0.938,1.207-0.938,1.207s2.581,1.275,2.168,2.195c-0.125,0.28-3.618,2.164-3.618,2.164s-1.289,0.857-3.118,1.214
	c-1.829,0.356-4.699-0.826-5.766-0.56c-0.591,0.149-1.521-0.129-2.369,0.594c-0.847,0.722-1.726,1.291-2.034,1.737
	c-0.252,0.365-0.477,0.069-0.854,1.15c-0.665,1.906-0.006,2.465-0.609,3.295c-0.72,0.992-1.649,1.599-2.527,2.951
	c-0.751,1.155-0.008,3.199-0.715,4.344c-0.599,0.97-1.124,2.7-1.926,2.888c-1.002,0.235-5.436-0.225-5.436-0.225
	s-1.841-0.468-1.305-1.213c0.533-0.739,0.952-1.7,0.952-1.7s-0.508-0.247-0.95-0.712c-0.441-0.465-0.923-0.862-1.418-1.96
	c-0.586-1.3-0.79-2.423-0.28-3C91.062,273.152,92.192,270.602,92.192,270.602z"/>
<path fill-rule="evenodd" clip-rule="evenodd" fill="#FFFFFF" stroke="#070001" stroke-width="0.4814" stroke-linecap="round" stroke-linejoin="round" stroke-miterlimit="10" d="
	M105.647,286.113c0,0,2.584-2.101,2.969-2.61c0.385-0.51,2.888-2.888,2.888-2.888h1.925l1.926,1.925c0,0-0.597,3.766,0,3.852
	c0.597,0.086,2.07,1.106,2.888,0.963c0.819-0.146,4.14-1.878,3.851-1.927c-0.058-0.009-0.086-0.009-0.086-0.009
	c0-0.019,0.433-0.067,1.049-0.953c0.76-1.107,3.187-2.379,2.889-1.926c-0.299,0.453-0.53-0.453,0.962,0
	c1.493,0.453,3.283,0.28,3.852,0c0.567-0.278,1.453-1.56,1.925-1.925c0.472-0.365,0.963-0.963,0.963-0.963s2.426-0.876,2.889-0.962
	c0.461-0.088,1.194,0.182,1.925,0.962c0.731,0.78,1.107,1.328,1.926,0.963c0.818-0.365,2.214-1.656,2.888-1.925
	c0.675-0.27,1.926-2.287,1.926-2.287l-1.645-3.05c0,0-0.931-1.355-1.244-2.366c-0.189-0.611-0.881-1.191-0.962-1.925
	c-0.201-1.804-0.714-0.958-0.963-2.888c-0.049-0.384,0.306-1.026,0-1.927c-0.732-2.152-1.285-2.31-1.613-3.2
	c-0.397-1.083-0.432-1.813-0.313-2.575c0.118-0.745,0-2.889,0-2.889l-4.413,0.024l-1.164-0.239l-6.337,0.239
	c0,0-0.948-0.718-1.564-0.024c-0.617,0.694-1.223,2.521-1.926,2.889c-0.703,0.366-3.244,1.473-2.888,1.926
	c0.355,0.452,3.494,2.03,1.925,2.888c-1.569,0.857-2.84,1.521-3.851,1.925c-1.01,0.405-2.849,1.339-3.85,0.964
	c-1.001-0.376-2.762-0.661-2.762-0.661l-3.434,0.182c0,0-0.778,0.704-1.404,1.194c-0.625,0.491-1.305,0.971-2.027,2.173
	c-0.535,0.891-0.299,3.648-0.963,3.851s-1.357,1.453-1.926,1.926c-0.567,0.473-0.532,2.284-0.623,3.171
	c-0.107,1.051-0.193,0.802-0.1,1.764c0.134,1.377,2.764,1.949,2.648,2.767c-0.116,0.818-0.398,1.836,0,2.888
	C104.364,286.914,105.628,286.115,105.647,286.113z"/>
<path fill-rule="evenodd" clip-rule="evenodd" fill="#FFFFFF" stroke="#070001" stroke-width="0.4814" stroke-linecap="round" stroke-linejoin="round" stroke-miterlimit="10" d="
	M68.181,286.392c0,0-2.57-3.938-1.925-3.852c0.645,0.087,1.83,0.55,2.889-0.962c1.059-1.512,1.328-3.351,1.925-2.888
	c0.597,0.461,3.852,1.925,3.852,1.925s0.337,2.292,1.925,0.963c1.588-1.328,1.81-1.243,2.889-1.926
	c1.078-0.684,2.137-2.349,2.888-2.888c0.75-0.54,1.926-1.926,1.926-1.926s1.915-0.202,1.925-0.964
	c0.009-0.76-0.289-1.54,0.962-2.888c1.252-1.348,4.073-0.577,3.851-0.962c-0.221-0.386,1.049,0.115,0.963,0.962
	c-0.086,0.849-2.118,2.466-1.925,3.852c0.192,1.386,0.635,2.194,0.962,2.889c0.327,0.693,2.06,0.963,1.925,1.925
	c-0.134,0.963-1.424,0.876-0.962,1.926c0.462,1.049,3.851,0.962,3.851,0.962l3.084-0.088l1.729-2.8c0,0,0.434,0.598,0.962,0.963
	c0.529,0.365,1.858,1.472,1.926,1.925c0.067,0.453-0.362,2.646,0,2.888c0.277,0.188,0.395,1.06,0.963,0.964
	c0.567-0.096,0.832-0.564,1.026,0.245c0.27,1.122,0.514,1.055-0.063,2.643c-0.578,1.589,1.222,1.811,0.962,2.888
	c-0.26,1.079,0.991,2.504,0,2.888c-0.992,0.387-1.579,0.443-1.925,0.965c-0.346,0.52-1.58,1.318-0.963,1.925
	s2.503,1.965,1.926,1.925c-0.578-0.039-3.852-1.925-3.852-1.925l-2.888-0.963c0,0,0.048,0.067-1.925-1.927
	c-1.973-1.991-3.995-2.318-4.813-2.888c-0.818-0.567-1.569-0.712-1.925,0c-0.356,0.713-1.117,0.301-1.926,0.964
	c-0.808,0.664-4.813,0-4.813,0s0.578,1.723,0,1.924c-0.578,0.203-2.888-1.924-2.888-1.924v1.924c0,0-0.212,0.627-0.962,0.965
	c-0.751,0.336-2.744,1.125-3.851,0c-1.107-1.128-0.732-1.263-1.926-1.927c-1.194-0.663-1.376-1.906-1.925-1.926
	c-0.549-0.019-0.279,0.664-0.963,0.964c-0.683,0.299-2.069,0.164-1.925,0.962c0.144,0.799,0.586,1.589,0,1.927
	c-0.587,0.336-1.791-1.444-1.926-1.927c-0.135-0.481-0.144-1.636-0.963-2.888c-0.818-1.251-0.828-1.502,0-1.926
	C67.084,288.856,67.989,286.306,68.181,286.392z"/>
<path fill-rule="evenodd" clip-rule="evenodd" fill="#FFFFFF" stroke="#070001" stroke-width="0.4814" stroke-linecap="round" stroke-linejoin="round" stroke-miterlimit="10" d="
	M102.839,316.236l4.813-3.852l3.851-0.963c0,0,2.147-2.329,1.925-1.925s1.146-1.877,1.926-1.925
	c0.779-0.049,1.887-0.232,2.888-0.964c1.001-0.731,2.946-0.731,2.889-1.926c-0.058-1.193-0.674-6.613,0-6.738
	c0.674-0.126,2.08,0.212,1.925-0.963s0.982-2.59,0.962-2.889c-0.019-0.298,1.926-0.962,1.926-0.962l1.925-3.852
	c0,0,0.116,0.154,0.963,0.963c0.847,0.809,3.745,4.246,3.851,4.813c0.106,0.569,1.098,2.003,2.889,1.927
	c1.791-0.077,3.351-2.128,3.851-1.927c0.5,0.203,4.005,1.176,4.813,0.965c0.809-0.213,3.851-2.889,3.851-2.889l1.801,0.9
	c0.64,2.979,0.862,2.942,1.354,4.386c0.314,0.923-2.617,0.49-2.617,0.49s-2.989-0.196-5.409,0.671
	c-2.337,0.837-5.365,1.189-6.862,1.256c-1.231,0.056-0.937,0.631-1.746,1.924c-0.987,1.578-2.082,3.908-2.294,4.958
	c-0.212,1.049-0.613,1.59-1.259,2.446c-1.013,1.344-1.723,1.471-2.223,2.223c-0.449,0.676-1.147,1.209-2.178,1.007
	s-1.673-0.044-1.673-0.044s0.536,2.103,0.811,2.667c0.321,0.653,0.723,2.225,0.152,3.11c-0.582,0.897-1.842,0.401-2.227,1.19
	c-0.385,0.789-0.491,0.585-1.168,1.715c-0.71,1.184-2.786,1.676-3.345,1.907s-0.773,2.72-0.455,3.375
	c0.425,0.877,2.235,0.07,2.36,0.57c0.125,0.5-0.942,3.757-0.942,3.757s-2.388,0.51-3.852,0c-1.463-0.51-2.888-2.888-2.888-2.888
	s-0.327-0.463,0-0.963c0.328-0.501-0.963-2.889-0.963-2.889l0.963-1.926l1.926-1.926l-0.962-1.924c0,0-1.57,2.367-1.926,0.962
	c-0.356-1.405-0.962-2.888-0.962-2.888v-1.927l0.962-1.925h-0.962c0,0-1.165-0.943-1.926,0c-0.76,0.944-2.445,3.188-2.888,2.889
	c-0.443-0.3-2.888,0.963-2.888,0.963L102.839,316.236z"/>
<path fill-rule="evenodd" clip-rule="evenodd" fill="#FFFFFF" stroke="#070001" stroke-width="0.4814" stroke-linecap="round" stroke-linejoin="round" stroke-miterlimit="10" d="
	M121.131,337.416h-2.889l1.926-2.889v-2.888c0,0,0.404-0.918,0.623-1.652c0.122-0.408,0.34-2.198,0.34-2.198
	s-2.638,0.157-2.579-0.773c0.066-1.033,0.066-3.31,0.653-3.078c0.587,0.231,2.888-0.963,2.888-0.963s1.03-2.396,1.925-2.888
	c0.896-0.491,1.3-0.52,1.926-0.962c0.625-0.443,0.115-3.14,0-2.889c-0.117,0.25-0.963-2.889-0.963-2.889h2.888l1.926-1.926
	l1.926-1.925l0.962-2.889c0,0,1.55-3.119,1.925-3.851c0.376-0.731,1.098-2.021,1.926-1.926c0.828,0.096,5.419-0.559,5.776-0.963
	c0.356-0.403,5.776-0.962,5.776-0.962h2.889c0,0,2.368,0.086,2.888,0.962c0.52,0.877,3.851,2.889,3.851,2.889l1.925-1.926h1.926
	c0,0-0.222,3.206,0.962,3.851s3.12,0.366,2.888,0.963c-0.231,0.598-0.187,2.047-0.257,3.164c-0.069,1.083-0.578,1.42,1.46,1.449
	c2.473,0.036,3.721,0.193,3.721,0.193s-1.478,1.952-2.037,2.896c-0.558,0.944-1.463,3.101-1.925,3.852
	c-0.463,0.749-1.097,2.281-0.963,2.888c0.135,0.606-0.963,0.962-0.963,0.962s-0.548,0.347-1.925-1.924
	c-1.377-2.272-0.462-2.321-1.925-3.853c-1.463-1.529-2.484-1.405-2.889-1.925c-0.404-0.521-0.981-2.051-2.888-1.926
	c-1.906,0.126-3.85-0.962-3.85-0.962s-2.783,1.203-2.889,0.962c-0.105-0.24-1.636,0.155-2.888,0.963
	c-1.251,0.809-2.051,1.396-1.926,1.926c0.125,0.528-0.586,0.481-0.962,0.962c-0.376,0.482-3.851,0.964-3.851,0.964
	s-0.645,1.404-0.963,1.925c-0.173,0.289-0.288,0.02-0.279,0.009c0.01,0,0.097,0.174,0.279,0.955c0.415,1.751,0.039,2.464-0.962,3.85
	c-1.001,1.386-2.398,2.012-2.889,2.888c-0.491,0.878-0.885-0.413-0.963,0.964c-0.077,1.376,0.529,2.753-0.962,2.888
	c-1.493,0.136-2.176,0.972-1.926,1.926c0.25,0.953,0.298,1.435,0,1.925c-0.299,0.49-0.963,0.963-0.963,0.963s-0.664,1.396,0,1.925
	c0.664,0.53,3.831,2.688,2.889,2.889c-0.944,0.202-5.209-0.847-4.814-0.962c0,0-1.492,0.212-1.925,0.962
	c-0.434,0.75-2.889,0-2.889,0L121.131,337.416z"/>
<path fill-rule="evenodd" clip-rule="evenodd" fill="#FFFFFF" stroke="#070001" stroke-width="0.4814" stroke-linecap="round" stroke-linejoin="round" stroke-miterlimit="10" d="
	M148.087,285.428c0,0,3.417-0.403,3.851-0.962s2.879-1.376,3.851-2.888s1.145,0.048,2.888,0s3.033,0.962,3.851,0
	c0.818-0.963,1.925-0.963,1.925-0.963s3.495,2.483,3.851,2.888c0.356,0.404,2.128,1.79,2.889,1.925
	c0.761,0.138,2.888,0.964,2.888,0.964l-0.962,2.888c0,0-0.63-0.813-1.842-1.842c-0.323-0.274-3.595,0.73-4.664,0.803
	c-1.696,0.115-2.018-0.083-2.762,1.2c-0.546,0.943-1.322,1.765-1.322,1.765l-2.521-0.651l-1.015-0.595l-3.807,0.454
	c0,0-0.796,0.933-1.747,1.452c-0.84,0.458-2.85,1.481-2.85,1.481l-0.575,0.746l-1.926-0.962c0,0-1.175-1.867,0-2.889
	s2.311-2.927,1.926-2.888C149.628,287.392,148.087,285.428,148.087,285.428z"/>
<path fill-rule="evenodd" clip-rule="evenodd" fill="#FFFFFF" stroke="#070001" stroke-width="0.4814" stroke-linecap="round" stroke-linejoin="round" stroke-miterlimit="10" d="
	M178.895,288.317c-0.356,1.087-2.763,2.772-1.925,3.85c0.837,1.079,1.367,1.128,1.925,1.926c0.559,0.799,0.819,2.233,0.962,2.889
	c0.145,0.654,0.501,2.928,0.963,2.888c0.461-0.039,0.962,0.963,0.962,0.963s-4.005,0.646-4.813,1.926
	c-0.809,1.28-0.847,2.657-1.926,2.888c-1.078,0.231-2.32,1.607-2.888,1.927c-0.568,0.316-1.454,3.08-1.925,2.888
	c-0.472-0.193-5.09-0.22-5.09-0.22c0.015-0.778,0.021-0.763,0.026-2.546c0.004-1.375,0.196-2.283,0.196-2.283
	s-2.485-0.396-2.834-0.729c-0.568-0.542-0.811-3.487-0.975-3.563c-0.875-0.405-1.914-0.288-1.914-0.288s-1.521,2.061-1.925,1.926
	c-0.404-0.136-2.939-1.689-3.402-2.388c-0.23-0.348-1.228-1.064-1.228-1.064l-1.838-0.71l-1.372-4.474c0,0,1.177-1.02,3.025-1.955
	c1.849-0.934,1.732-1.818,2.889-1.925c1.155-0.105,3.437-0.626,3.85,0c0.415,0.626,2.436,0.936,2.889,0.963
	c0.453,0.028,1.925-2.888,1.925-2.888s1.687,0.09,1.926,0c0.709-0.271,4.813-0.963,4.813-0.963l1.925,1.925l0.962-2.888l0.963-0.964
	l3.851,1.927C178.895,287.354,179.25,287.229,178.895,288.317z"/>
<path fill-rule="evenodd" clip-rule="evenodd" fill="#FFFFFF" stroke="#070001" stroke-width="0.4814" stroke-linecap="round" stroke-linejoin="round" stroke-miterlimit="10" d="
	M43.15,311.422c0,0-0.327-0.684,0-1.925c0.328-1.242,3.851-2.889,3.851-2.889s1.791,3.583,2.888,2.889
	c1.098-0.693,1.474-1.974,1.925-2.889c0.453-0.914,0-1.926,0-1.926l1.926-2.888c0,0-0.356-0.327,0-0.963
	c0.356-0.635-0.347-1.203,1.925-1.925c2.272-0.723,3.052,0.722,3.852,0c0.798-0.723,1.405-1.3,1.925-1.926
	c0.521-0.626,3.158-0.655,3.851,0c0.693,0.654,2.513,1.82,2.888,0.963c0.376-0.858,0.636-0.423,0.963,0
	c0.327,0.423,0.684,2.888,0.963,3.851c0.279,0.963,1.01,1.694,1.925,2.888c0.915,1.194,0.559,2.938,1.925,2.89
	c1.368-0.049,1.926,0.962,1.926,0.962s-0.02,1.436-0.268,2.142c-0.187,0.529,0.343,0.885-1.766,0.778
	c-2.108-0.104-2.725-0.343-3.36,0.101c-0.636,0.442-1.027,2.043-2.308,2.756c-1.28,0.713-2.14,1.322-2.227,2.122
	c-0.086,0.799,0.571,1.208,0.302,1.729s-1.104,1.296-1.008,2.123c0.097,0.827,0.729,1.352,1.008,1.729
	c0.279,0.375,0.228,3.754,0,4.813c-0.083,0.384-3.042-0.01-3.851-0.964c-0.808-0.952-1.762-1.703-1.925-0.962
	s-2.965,0.366-3.851,1.926c-0.885,1.559-3.244,4.227-2.888,4.813c0.356,0.586-0.963-2.888-0.963-2.888s-1.232-2.303-0.963-2.89
	c0.27-0.586-0.962-0.962-0.962-0.962l-0.963-0.963c0,0,0.645-1.521,0.963-1.925c0.317-0.405,1.155-1.984,1.925-1.926
	c0.77,0.058,0.52,0.027,1.925-0.962c1.406-0.992,1.714-0.664,1.926-1.926c0.212-1.263-0.963-2.889-0.963-2.889s-1.184-0.713-1.925,0
	c-0.742,0.713-1.926,1.926-1.926,1.926l-1.925-1.926l-0.962-0.963c0,0-2.06-1.406-1.926-0.963c0.134,0.442-0.963,0.963-0.963,0.963
	l-1.925,0.963c0,0-1.29-0.443-0.963-0.963C43.478,312.827,43.15,311.422,43.15,311.422z"/>
<path fill-rule="evenodd" clip-rule="evenodd" fill="#FFFFFF" stroke="#070001" stroke-width="0.4814" stroke-linecap="round" stroke-linejoin="round" stroke-miterlimit="10" d="
	M81.66,309.497c0,0,3.793-1.145,3.851-1.925c0.058-0.78,1.222-3.168,1.925-2.89c0.703,0.28,2.696,1.376,2.889,1.926
	c0.192,0.549,0.818,2.117,0.962,2.889c0.145,0.77-0.327,2.262,0,2.888c0.327,0.627,1.502,2.225,0,2.888
	c-1.502,0.664-2.888,0.964-2.888,0.964s-0.193,0.944-0.963,0.963c-0.77,0.018-2.714,2.464-1.925,2.888
	c0.789,0.424,2.888,0.962,2.888,0.962l2.888-0.962c0,0,0.501,0.587,0.963,0.962c0.462,0.377,1.56,0.54,1.925,0
	c0.366-0.538,0.096-2.578,0.963-1.924c0.866,0.653,1.887,1.549,1.925,1.924c0.038,0.377-1.877,1.733-1.925,2.889
	c-0.048,1.155-0.222,1.417,0.962,1.925c1.185,0.51,1.569-0.779,1.926,0.964c0.356,1.742-0.722,1.656,0,2.888
	c0.722,1.231,1.3,2.532,1.926,2.888c0.626,0.357,0.75,0.473,0.962,0.963s-1.319,2.542-1.926,2.888
	c-0.606,0.347-0.938,0.534-1.631,0.833s-1.807,0.098-2.221-0.471c-0.415-0.567-0.743-1.425-1.203-1.228
	c-0.56,0.237-2.647,1.829-2.647,1.829s-3.292,0.466-4.813,0.963c-1.041,0.339-0.994-0.068-1.639-0.938
	c-0.262-0.354-1.22-2.346-1.249-1.952c-0.028,0.396-1.925,1.927-1.925,1.927s-1.541-0.395-1.925-0.964
	c-0.386-0.567-0.219,0.06-0.963-1.925c-0.843-2.246-1.565-1.604-1.926-3.852c-0.367-2.281,0.562-2.887-0.962-4.813
	c-0.842-1.063-1.101-2.732-1.548-2.839c-0.641-0.154-3.266-0.049-3.266-0.049s-1.058-1.672-0.961-0.286
	c0.096,1.386,0.961,4.138,0.961,4.138s1.579,0.193,1.078,0.561c-0.5,0.365-3.333,3.073-3.966,2.327
	c-0.614-0.726-1.925-2.888-1.925-2.888V324.9v-2.888c0,0-1.29-1.069-0.963-1.926c0.327-0.856,1.061-2.512,1.061-2.512
	s-1.206-1.168,0.505-2.413c2.199-1.6,0.757-0.288,2.356-1.798c0.982-0.928,1.492-2.19,2.089-2.064
	c0.597,0.124,3.617,0.122,3.617,0.122l0.639-0.305l0.324-2.583h3.851L81.66,309.497z"/>
<path fill-rule="evenodd" clip-rule="evenodd" fill="#FFFFFF" stroke="#070001" stroke-width="0.4814" stroke-linecap="round" stroke-linejoin="round" stroke-miterlimit="10" d="
	M33.523,318.161c0.625-0.028,1.762,0.481,1.925-0.962c0.164-1.444-1.358-2.687-0.962-2.889c0.395-0.203-1.31-0.54,0-1.926
	c1.31-1.386,2.82-3.292,2.888-2.888c0.067,0.404,2.32,0.423,1.925,0.963c-0.395,0.539,0.674,2.31,0.962,2.888
	c0.289,0.577,0.173,1.714,0.963,0.963s1.78-0.764,1.78-0.764s0.464,0.551,1.109,0.764c0.644,0.213,2.378-1.227,2.378-1.227
	l0.713-0.748c0,0,2.367,1.079,2.684,1.975c0.317,0.895,1.422,1.794,1.925,1.926c0.467,0.122,2.227-2.133,2.227-2.133
	s1.624,0.207,2.166,1.138c0.519,0.891,0.392,1.022,0.421,1.958c0.029,0.934-1.381,1.221-2.34,2.139
	c-0.99,0.949-2.113,0.722-2.8,1.747c-0.667,0.997-1.125,1.807-1.125,1.807s-0.12,0.886-0.716,1.117
	c-0.597,0.231-0.483-0.084-1.167-0.22c-0.684-0.135-1.479-0.814-1.479-0.814s0.134-0.009-0.963,0.963
	c-1.097,0.973-2.021-0.327-1.925,0.963c0.096,1.29-0.645,1.463,0,1.926c0.644,0.462,1.559,0.645,1.925,1.926
	c0.366,1.28,0,1.924,0,1.924s-1.146-1.178-2.647-1.043s-1.001,0.35-2.166-0.881c-1.281-1.355-1.589-2.18-1.925-2.89
	c-0.355-0.748-1.193-2.074-1.193-2.074s-1.488-0.271-2.176-0.572c-1.4-0.616-2.685-2.767-2.685-2.767S32.897,318.189,33.523,318.161
	z"/>
<path fill-rule="evenodd" clip-rule="evenodd" fill="#FFFFFF" stroke="#070001" stroke-width="0.4814" stroke-linecap="round" stroke-linejoin="round" stroke-miterlimit="10" d="
	M45.076,334.527c0.597-0.288,3.533,0.201,4.813,0.962c1.28,0.762,1.29,1.627,1.925,1.927c0.636,0.299,0.828,2.002,0,2.889
	c-0.828,0.886-4.813,2.888-4.813,2.888s-3.533,0.259-2.888-0.964c0.644-1.222,2.108-0.799,1.925-1.924
	c-0.182-1.128-0.962-2.889-0.962-2.889s-0.511-1.31-0.962-0.964c-0.453,0.347-0.107,1.492-1.926,1.927
	c-1.819,0.433-2.677,0.394-2.888,0.962s-2.455,3.843-2.888,3.852c-0.434,0.01-2.782,3.841-2.888,1.925
	c-0.106-1.915,0.934-2.675,0.963-3.851s0.885-2.503,0-3.851c-0.886-1.349-2.147-2.051-2.888-2.889
	c-0.741-0.837-3.389-2.744-2.888-2.888c0.5-0.145,1.925-2.888,1.925-2.888v-1.926c0,0,1.435,1.559,1.925,1.926
	c0.491,0.364-0.211,0.191,0.963,1.924c1.174,1.734,2.31,2.398,1.925,2.889c-0.385,0.49,0.848,0.337,0.963,0.963
	s1.358,1.482,1.925,0.962c0.568-0.519,2.734-0.038,1.925-1.925c-0.809-1.886-2.31-2.243-1.925-2.889
	c0.385-0.644-0.962-1.924-0.962-1.924s-0.442-1.84-1.926-1.926c-1.482-0.086-1.925-0.964-1.925-0.964s-1.185-0.789-1.925-0.962
	c-0.741-0.173-1.926-0.963-1.926-0.963s-0.356,0.5-0.962,0c-0.607-0.5-2.148-1.521-1.926-1.925c0.222-0.405,0.972-2.445,0.963-2.888
	c-0.009-0.443,0.963-2.889,0.963-2.889l1.925,0.963l2.888,0.962c0,0-0.809,1.78,0,2.888c0.809,1.108,1.925,1.926,1.925,1.926
	l1.9,0.657c0,0,0.603-0.117,0.988,0.306c0.385,0.423,0.755,1.604,1.227,2.797c0.473,1.193,2.624,2.979,2.624,2.979
	s1.463-0.135,1.926,0c0.462,0.136,1.925,0.962,1.925,0.962s-0.366,0.377,0,0.964C46.405,332.226,44.479,334.816,45.076,334.527z"/>
<path fill-rule="evenodd" clip-rule="evenodd" fill="#FFFFFF" stroke="#070001" stroke-width="0.4814" stroke-linecap="round" stroke-linejoin="round" stroke-miterlimit="10" d="
	M55.666,352.819c0,0,0.193,1.849-0.963,2.888c-1.155,1.041-2.609,0.799-2.888,1.927c-0.279,1.125-0.962,2.888-0.962,2.888
	c2.268,0.276,2.137,0.364,3.851,0c1.406-0.3,1.993-0.53,2.888-0.963c0.896-0.434,1.402,0.632,1.926,0.963
	c0.286,0.181-0.482,0.279,1.925,0.962c1.568,0.444,3.427,1.906,4.813,0.963c1.386-0.944,1.051-2.105,2.891-2.203
	c1.809-0.094,2.66-0.41,3.208-0.844c0.548-0.434,1.613-2.649,1.613-2.649s-0.409-1.991-0.458-2.686
	c-0.048-0.693-0.35-1.437-0.809-3.278c-0.297-1.191-1.044-2.127-1.563-2.887c-0.366-0.537-1.03-1.819-1.03-1.819l2.4-2.308
	c0,0,0.937-0.95,2.073-2.127c1.136-1.175,1.128-1.695,1.587-2.514c0.496-0.883,1.64-2.68,1.64-2.68l0.963-1.925l-0.963-1.926
	c0,0-1.087-1.462-0.963-1.926c0.125-0.462,0.058-1.655,0-2.887c-0.058-1.233-0.404-0.973-0.962-1.927
	c-0.558-0.952-1.052-2.86-1.926-2.888c-1.082-0.034-2.753,0.453-2.888,0c-0.134-0.452-0.962-0.962-0.962-0.962l0.962,4.813
	c0,0,1.778-0.097,0.923,0.842c-0.895,0.98-1.573,1.099-2.228,1.576c-0.523,0.381-1.006,0.922-1.329,0.65
	c-1.688-1.423-1.728-2.982-2.18-3.068s-1.413,0.066-2.536-0.213c-0.669-0.168-0.689-0.164-1.315-0.751
	c-0.625-0.586-0.792-1.59-1.513-1.246c-0.853,0.403-1.448,0.804-2.252,0.985c-0.602,0.137-1.822,0.646-2.159,1.473
	s-0.33,0.093-1.474,2.117c-1.245,2.207-1.345,2.22-1.267,2.448c0.418,1.223,0.934,1.713,1.925,2.888
	c0.992,1.176,1.03,1.396,1.925,1.925c0.896,0.53,1.396,0.944,0.963,1.927c-0.434,0.981-0.212,2.233-0.963,2.888
	s-4.813,2.888-4.813,2.888s3.735,0.954,4.813,0c1.079-0.952,3.052-2.532,2.888-1.926s-0.299,1.223-0.962,1.926
	c-0.665,0.704-1.907,1.137-1.926,1.926c-0.019,0.79-0.625,2.062-0.962,2.889C56.292,349.796,55.666,352.819,55.666,352.819z"/>
<path fill-rule="evenodd" clip-rule="evenodd" fill="#FFFFFF" stroke="#070001" stroke-width="0.4814" stroke-linecap="round" stroke-linejoin="round" stroke-miterlimit="10" d="
	M47.964,349.932c0,0,0-1.156,0.963-1.926c0.962-0.771,1.925-0.963,1.925-0.963h2.888v1.926c0,0-1.464,1.56-1.926,1.925
	c-0.461,0.366-2.888,0.963-2.888,0.963L47.964,349.932z"/>
<path fill-rule="evenodd" clip-rule="evenodd" fill="#FFFFFF" stroke="#070001" stroke-width="0.4814" stroke-linecap="round" stroke-linejoin="round" stroke-miterlimit="10" d="
	M40.262,350.894c0,0-0.375-1.753,0.963-2.888c1.338-1.136,2.889-1.926,2.889-1.926s0.549,0.308,0.962,0
	c0.414-0.308,0.597,0.222,0.962,0.963c0.366,0.74,1.194,1.926,0.963,2.889c-0.231,0.962-0.963,2.888-0.963,2.888
	s-0.461,1.936-0.962,1.926c-0.5-0.01-1.156,0.934-1.926,1.924c-0.77,0.992-2.888,1.927-2.888,1.927s-1.3-1.453-0.962-1.927
	c0.337-0.471,0.962-2.888,0.962-2.888V350.894z"/>
<path fill-rule="evenodd" clip-rule="evenodd" fill="#FFFFFF" stroke="#070001" stroke-width="0.4814" stroke-linecap="round" stroke-linejoin="round" stroke-miterlimit="10" d="
	M83.585,373.999c0,0,1.126,4.188,0,4.814s-2.176,1.396-1.925,1.925c0.25,0.529,0.298,1.58,0,2.888
	c-0.299,1.31,0.384,2.271-0.963,2.888c-1.348,0.617-4.627-1.205-4.627-1.205s-0.146-0.479-0.187-2.646c-0.02-1.029,0-4.813,0-4.813
	l-4.64-2.149c0,0,0.209-0.227-0.244-1.054c-0.453-0.828-2.255-1.815-2.255-1.815l-2.488,0.205l0.963-2.888l-3.452-3.992l-0.895-2.66
	l-1.43-2.013l1.925,0.963l2.473,0.197c0,0,1.6-1.458,2.341-2.122c0.742-0.664,2.936,0.201,3.851-0.963
	c0.915-1.165,2.388-2.513,1.925-3.852c-0.462-1.339-1.56-6.835-1.925-6.738c-0.366,0.095-1.925-2.889-1.925-2.889
	s1.376-1.53,1.925-1.926c0.549-0.394,2.85-2.444,2.889-2.888c0.038-0.443,1.713-2.506,1.925-2.888
	c0.531-0.956,0.963-1.927,0.963-1.927l0.963-1.925c0,0,1.461,2.634,1.942,2.565c0.481-0.067,0.82,0.604,1.347,0.162
	c0.438-0.367,1.524-1.766,1.524-1.766l1.901,2.97c0,0,4.925-1.159,5.8-1.043c0.876,0.115,2.705-2.139,2.888-1.927
	c0.183,0.214,1.299,1.927,1.925,1.927c0.963,0,2.084-0.616,1.764-0.229c-0.588,0.712-2.13,3.975-2.726,4.08
	c-0.598,0.105-1.608,1.358-1.926,1.926c-0.317,0.568-1.521,3.013-1.925,2.888c-0.404-0.125,0.587,1.598,0,1.926
	c-0.587,0.326-2.811,3.446-2.888,4.813s-0.75,1.762-0.963,3.85c-0.212,2.09-2.166,4.333-1.925,5.777
	c0.24,1.444-0.703,1.589-0.962,2.888C84.288,366.635,83.585,373.999,83.585,373.999z"/>
<path fill-rule="evenodd" clip-rule="evenodd" fill="#FFFFFF" stroke="#070001" stroke-width="0.4814" stroke-linecap="round" stroke-linejoin="round" stroke-miterlimit="10" d="
	M46.039,391.328c-0.292-0.219-0.602-3.25-0.962-3.851c-0.213-0.355-1.926-1.926-1.926-1.926s-0.414-1.309,0.963-0.963l3.851,0.963
	c0,0-0.645-1.676,0-2.889c0.645-1.212,1.742-0.808,1.925-1.925s0-2.465,0-2.889c0-0.422-2.021-2.425-1.925-2.888
	s-1.194-1.561-1.926-1.926s-1.925-1.925-1.925-1.925s1.743-1.203,1.925-1.925c0.183-0.723,0.366-2.494,0-2.89
	c-0.366-0.395-0.962-0.963-0.962-0.963v-1.925l-0.962-1.926c0,0,1.01,0.346,1.925,0c0.915-0.345,2.292-1.03,2.889-0.962
	c0.597,0.067,1.925,0,1.925,0l2.406,0.234l2.996-0.639c0,0,1.861-1.071,2.3-0.559c1.03,1.203,2.888,1.925,2.888,1.925
	s0.397,0.453,1.284,1.765c0.505,0.746,0.035,0.787,0.642,2.086c0.607,1.301,1.049,2.099,1.925,2.889
	c0.876,0.789,1.926,1.926,1.926,1.926l-0.963,2.888c0,0,2.561-0.548,2.889,0c0.327,0.55,1.713,1.312,1.925,1.926
	c0.401,1.163,0.721,0.955,1.44,1.326c1.331,0.688,1.5,0.694,1.5,0.694l1.874,0.867v3.852c0,0-0.121,2.768,0.187,3.607
	c0.146,0.401-2.478-0.701-3.075-0.72c-0.597-0.02-1.973,0.481-1.926,0.963c0.048,0.481,0,1.926,0,1.926s1.778,0.593,1.926,0.963
	c0.241,0.602,0,3.85,0,3.85s-0.048,0.04-0.963,0c-0.915-0.038-0.741-0.23-1.925,0.964c-1.185,1.194-1.657,2.021-2.889,2.888
	c-1.232,0.866-1.926,0-1.926,0l-1.925,0.963l-1.925,1.926c0,0-1.404,0.28-1.925,0c-0.412-0.221,2.137-4.217,1.925-3.852
	c-0.02,0.029-0.029,0.048-0.029,0.048s0.896-1.56,0.991-1.973c0.106-0.453,0.963-2.888,0.963-2.888v-3.853
	c0,0-0.703-0.808-0.963-1.925c-0.26-1.116,0-2.888,0-2.888h-3.851v-2.888h0.963h1.925c0,0,0.308,0.749,0.962,0.962
	c0.655,0.213,0.963-0.962,0.963-0.962l0.963-1.927c0,0-1.483,0.279-1.926-0.962c-0.442-1.242-1.925-1.926-1.925-1.926l-1.925,0.963
	c0,0-1.126,4.236-0.963,4.813c0.164,0.578-0.962,1.926-0.962,1.926s-1.406-0.396-0.963,0.962c0.443,1.358,0.751,2.407,0.963,2.889
	s-1.126,0.81,0,1.926c1.126,1.117,0.25,2.83,0.962,2.889c0.713,0.058,2.042,0.586,1.926,0.962c-0.117,0.377,0.663,1.28,0,1.926
	c-0.665,0.645-3.379,1.28-3.852,0.962c-0.472-0.317-0.963-1.926-0.963-1.926s-0.221-2.348-0.962-1.924
	c-0.742,0.422-4.813,0.962-4.813,0.962S46.36,391.568,46.039,391.328z"/>
<path fill-rule="evenodd" clip-rule="evenodd" fill="#FFFFFF" stroke="#070001" stroke-width="0.4814" stroke-linecap="round" stroke-linejoin="round" stroke-miterlimit="10" d="
	M448.601,332.121l3.851-0.964l0.962-1.926l1.926-1.924l-3.851-2.889h2.889c0,0,2.358,2.368,2.889,1.925
	c0.528-0.442,2.888-1.925,2.888-1.925l1.925-3.851l1.926-2.889c0,0,1.588,0.896,1.926,1.925c0.336,1.031-0.75,3.283-0.964,3.853
	c-0.212,0.567-0.027,2.579-0.962,2.887c-0.936,0.31-2.389,2.225-2.888,1.926c-0.501-0.298-2.272,0.336-2.889,0.962l-2.889,2.89
	c0,0-0.472,0.615-1.926,0.963c-1.453,0.345-0.847,0.076-0.962,0.962s0.962,1.926,0.962,1.926s-3.195,0.328-2.888,0.963
	c0.31,0.635-0.962,3.85-0.962,3.85l1.925,0.965l-1.925,1.924h-1.927l-1.925-1.924l1.925-2.89l0.964-1.925l-0.964-2.889
	L448.601,332.121z"/>
<polyline fill-rule="evenodd" clip-rule="evenodd" fill="none" stroke="#070001" stroke-width="0.4814" stroke-linecap="round" stroke-linejoin="round" stroke-miterlimit="10" points="
	549.042,239.733 433.996,239.733 367.57,306.16 367.57,404.292 "/>
<polyline fill-rule="evenodd" clip-rule="evenodd" fill="none" stroke="#070001" stroke-width="0.4814" stroke-linecap="round" stroke-linejoin="round" stroke-miterlimit="10" points="
	12.104,181.68 127.149,181.68 193.575,115.253 193.575,17.122 "/>
<circle fill-rule="evenodd" clip-rule="evenodd" fill="#070001" cx="61.442" cy="301.858" r="3"/>
<circle fill-rule="evenodd" clip-rule="evenodd" fill="#070001" cx="59.444" cy="309.441" r="3"/>
<circle fill-rule="evenodd" clip-rule="evenodd" fill="#070001" cx="67.405" cy="303.662" r="3"/>
<circle fill-rule="evenodd" clip-rule="evenodd" fill="#070001" cx="67.405" cy="310.572" r="3"/>
<circle fill-rule="evenodd" clip-rule="evenodd" fill="#070001" cx="78.228" cy="282.179" r="3"/>
<circle fill-rule="evenodd" clip-rule="evenodd" fill="#070001" cx="73.733" cy="288.351" r="3"/>
<circle fill-rule="evenodd" clip-rule="evenodd" fill="#070001" cx="83.086" cy="287.563" r="3"/>
<circle fill-rule="evenodd" clip-rule="evenodd" fill="#070001" cx="92.988" cy="287.563" r="3"/>
<circle fill-rule="evenodd" clip-rule="evenodd" fill="#070001" cx="134.866" cy="314.218" r="3"/>
<circle fill-rule="evenodd" clip-rule="evenodd" fill="#070001" cx="149.875" cy="306.662" r="3"/>
<circle fill-rule="evenodd" clip-rule="evenodd" fill="#070001" cx="172.384" cy="260.165" r="3"/>
<circle fill-rule="evenodd" clip-rule="evenodd" fill="#070001" cx="221.795" cy="236.079" r="3"/>
<circle fill-rule="evenodd" clip-rule="evenodd" fill="#070001" cx="242.295" cy="238.514" r="3"/>
<circle fill-rule="evenodd" clip-rule="evenodd" fill="#070001" cx="233.771" cy="248.845" r="3"/>
<circle fill-rule="evenodd" clip-rule="evenodd" fill="#070001" cx="274.641" cy="185.197" r="3"/>
<circle fill-rule="evenodd" clip-rule="evenodd" fill="#070001" cx="283.489" cy="181.68" r="3"/>
<circle fill-rule="evenodd" clip-rule="evenodd" fill="#070001" cx="324.239" cy="242.579" r="3"/>
<circle fill-rule="evenodd" clip-rule="evenodd" fill="#070001" cx="325.91" cy="225.72" r="3"/>
<circle fill-rule="evenodd" clip-rule="evenodd" fill="#070001" cx="318.232" cy="225.72" r="3"/>
<circle fill-rule="evenodd" clip-rule="evenodd" fill="#070001" cx="309.901" cy="223.749" r="3"/>
<circle fill-rule="evenodd" clip-rule="evenodd" fill="#070001" cx="318.232" cy="217.087" r="3"/>
<circle fill-rule="evenodd" clip-rule="evenodd" fill="#070001" cx="330.043" cy="204.336" r="3"/>
<circle fill-rule="evenodd" clip-rule="evenodd" fill="#070001" cx="352.239" cy="211.282" r="3"/>
<circle fill-rule="evenodd" clip-rule="evenodd" fill="#070001" cx="378.489" cy="100.579" r="3"/>
<circle fill-rule="evenodd" clip-rule="evenodd" fill="#070001" cx="391.989" cy="99.079" r="3"/>
<circle fill-rule="evenodd" clip-rule="evenodd" fill="#070001" cx="379.954" cy="52.986" r="3"/>
<circle fill-rule="evenodd" clip-rule="evenodd" fill="#070001" cx="379.954" cy="19.579" r="3"/>
<circle fill-rule="evenodd" clip-rule="evenodd" fill="#070001" cx="21.489" cy="154.53" r="3"/>
<circle fill-rule="evenodd" clip-rule="evenodd" fill="#070001" cx="39.244" cy="126.578" r="3"/>
<path opacity="0.5" fill-rule="evenodd" clip-rule="evenodd" fill="#ED6A1E" d="M96.795,280.671
	c3.949,5.322,2.837,12.839-2.485,16.788l-23.248,17.252c-5.322,3.949-12.838,2.836-16.788-2.485l-1.182-1.593
	c-3.95-5.322-2.837-12.839,2.485-16.788l23.248-17.252c5.322-3.949,12.837-2.837,16.787,2.485L96.795,280.671z"/>
<ellipse opacity="0.5" fill-rule="evenodd" clip-rule="evenodd" fill="#ED6A1E" cx="319.114" cy="221.871" rx="14.875" ry="10.041"/>
<g>
	<path fill="#EC671B" d="M30.364,238.045c-1.247,0.015-1.247,0.015-1.401,0.028c-0.028,0.014-0.126,0.014-0.266,0.042
		c-0.056,0-0.126,0.014-0.224,0.028v-1.64c0.448,0.07,0.995,0.099,1.877,0.099h8.559c0.854,0,1.317-0.028,1.849-0.099v1.64
		c-0.561-0.07-1.051-0.099-1.835-0.099h-4.889c-0.35,1.247-0.658,1.989-1.275,3.025h5.603c0.588,0,0.981-0.014,1.443-0.069
		c-0.028,0.42-0.056,1.064-0.056,1.442v4.524c0,0.547,0.028,1.135,0.084,1.625h-1.667v-0.799h-5.687v0.785h-1.667
		c0.056-0.49,0.098-1.037,0.098-1.611v-2.535c0-0.364,0.014-0.658,0.028-0.868c-0.588,0.756-1.247,1.4-2.143,2.115
		c-0.224-0.561-0.532-1.065-0.953-1.527c1.401-0.896,2.381-1.877,3.278-3.292c0.588-0.91,0.826-1.456,1.261-2.815H30.364z
		 M32.465,246.394h5.715v-3.922h-5.715V246.394z"/>
	<path fill="#EC671B" d="M44.924,239.39c0,3.012-0.238,5.323-0.714,6.892c-0.252,0.854-0.56,1.583-1.037,2.438
		c-0.476-0.616-0.672-0.826-1.218-1.246c1.148-2.031,1.442-3.908,1.442-9.161c0-0.771-0.028-1.401-0.07-1.85
		c0.504,0.042,1.093,0.07,1.849,0.07h7.984c0.798,0,1.302-0.028,1.681-0.084v1.569c-0.462-0.057-0.911-0.07-1.681-0.07h-8.237
		V239.39z M50.556,238.465c-0.042,0.309-0.07,0.603-0.07,1.051c0,1.934,0.14,2.899,0.546,3.908c0.476,1.219,1.19,2.045,2.423,2.844
		c0.56,0.364,1.093,0.645,1.793,0.896c-0.546,0.854-0.56,0.883-0.869,1.555c-0.952-0.406-1.779-0.925-2.521-1.555
		c-1.023-0.896-1.611-1.793-2.073-3.18c-0.462,1.526-1.022,2.438-2.059,3.319c-0.701,0.603-1.415,1.037-2.367,1.443
		c-0.252-0.505-0.588-1.037-0.911-1.415c0.63-0.238,1.415-0.645,1.919-0.994c1.191-0.813,1.947-1.989,2.255-3.433
		c0.196-0.966,0.28-2.003,0.28-3.403c0-0.351-0.028-0.742-0.084-1.037H50.556z M45.317,243.396c0.602-1.163,0.84-2.004,1.064-3.685
		l1.457,0.351c-0.35,1.975-0.588,2.773-1.176,4.006L45.317,243.396z M51.326,243.27c0.757-1.148,1.219-2.157,1.667-3.712
		l1.499,0.616c-0.827,2.004-1.121,2.592-1.891,3.782L51.326,243.27z"/>
	<path fill="#EC671B" d="M58,242.037c-0.771,0-1.233,0.028-1.695,0.07v-1.569c0.42,0.057,0.896,0.084,1.709,0.084h9.217
		c0.827,0,1.331-0.027,1.737-0.084v1.569c-0.476-0.042-0.98-0.07-1.709-0.07h-5.477c-0.393,0.687-0.575,0.995-0.896,1.443h5.505
		c0.644,0,0.924-0.015,1.19-0.057c-0.042,0.435-0.056,0.784-0.056,1.205v2.717c0,0.533,0.014,0.896,0.07,1.415h-1.639v-0.603h-5.673
		v0.589H58.63c0.056-0.421,0.084-0.826,0.084-1.274v-1.682c-0.603,0.49-1.051,0.785-1.849,1.233
		c-0.21-0.589-0.434-0.967-0.854-1.499c1.177-0.532,1.821-0.938,2.549-1.611c0.63-0.588,1.023-1.093,1.443-1.877H58z
		 M61.754,236.994c0-0.476-0.028-0.784-0.084-1.148h1.709c-0.07,0.351-0.084,0.673-0.084,1.148v1.233h3.012v-0.813
		c0-0.294-0.028-0.616-0.07-0.911h1.653c-0.056,0.337-0.07,0.631-0.07,0.98v1.191c0,0.42,0.014,0.729,0.042,0.952
		c-0.35-0.014-0.687-0.028-1.163-0.028H58.49c-0.532,0-0.813,0-1.163,0.028c0.028-0.294,0.042-0.588,0.042-0.938v-1.19
		c0-0.378-0.028-0.715-0.084-0.995h1.667c-0.056,0.253-0.07,0.561-0.07,0.896v0.827h2.872V236.994z M60.241,246.771h5.729v-1.919
		h-5.729V246.771z"/>
	<path fill="#EC671B" d="M75.95,244.391c-0.798,1.807-1.695,2.634-2.844,2.634c-1.597,0-2.745-1.625-2.745-3.881
		c0-1.54,0.546-2.983,1.541-4.076c1.177-1.288,2.83-1.961,4.819-1.961c3.362,0,5.547,2.045,5.547,5.197
		c0,2.423-1.261,4.356-3.404,5.225c-0.672,0.28-1.219,0.42-2.199,0.588c-0.238-0.742-0.406-1.05-0.854-1.639
		c1.289-0.168,2.129-0.392,2.788-0.771c1.219-0.672,1.947-2.003,1.947-3.502c0-1.345-0.602-2.438-1.723-3.109
		c-0.435-0.252-0.798-0.364-1.415-0.42C77.141,240.875,76.65,242.808,75.95,244.391z M73.891,239.376
		c-1.177,0.84-1.905,2.283-1.905,3.782c0,1.148,0.49,2.059,1.107,2.059c0.462,0,0.938-0.588,1.442-1.793
		c0.533-1.261,0.995-3.151,1.163-4.734C74.97,238.773,74.465,238.97,73.891,239.376z"/>
	<path fill="#EC671B" d="M87.415,244.517c-0.224,0.294-0.35,0.448-0.729,0.854c-0.28-0.406-0.49-0.658-0.813-0.967
		c-0.252,2.045-0.63,3.236-1.373,4.385c-0.462-0.7-0.658-0.938-1.121-1.373c0.42-0.714,0.616-1.148,0.798-1.849
		c0.28-1.093,0.434-2.662,0.434-4.665c0-0.56-0.028-1.078-0.07-1.541c0.546,0.057,0.966,0.07,1.597,0.07h1.443
		c-0.14-0.518-0.21-0.687-0.476-1.19h-1.191c-0.742,0-1.037,0.014-1.429,0.056v-1.513c0.378,0.057,0.813,0.084,1.527,0.084h3.432
		v-0.14c0-0.294-0.028-0.561-0.07-0.883h1.723c-0.056,0.294-0.084,0.547-0.084,0.883v0.14h3.432c0.729,0,1.177-0.027,1.583-0.084
		v1.513c-0.406-0.042-0.757-0.056-1.499-0.056h-1.079c-0.28,0.616-0.35,0.771-0.588,1.19h1.849c0.756,0,1.177-0.014,1.569-0.07v1.43
		c-0.448-0.057-0.84-0.07-1.569-0.07h-8.657c0,1.625-0.028,2.199-0.126,3.264c0.392-0.393,0.672-0.757,0.98-1.316
		c0.322-0.589,0.448-0.896,0.729-1.793l1.415,0.322c-0.14,0.35-0.14,0.35-0.308,0.756h1.569c0-0.435-0.014-0.658-0.056-0.896h1.597
		c-0.042,0.294-0.056,0.49-0.056,0.896h2.521c0.686,0,0.995-0.014,1.345-0.07v1.485c-0.406-0.042-0.714-0.057-1.359-0.057h-2.507
		v1.107H93.9c0.658,0,0.911-0.015,1.261-0.057v1.373c-0.406-0.042-0.645-0.056-1.261-0.056h-2.101v1.358h3.166
		c0.561,0,0.981-0.028,1.331-0.07v1.499c-0.42-0.056-0.841-0.084-1.373-0.084h-7.774c-0.477,0-0.854,0.014-1.345,0.07v-1.485
		c0.35,0.057,0.714,0.07,1.316,0.07h3.208v-1.358h-1.625c-0.504,0-0.896,0.014-1.289,0.056V244.517z M88.144,243.312
		c-0.238,0.448-0.378,0.701-0.645,1.065c0.28,0.027,0.602,0.042,1.19,0.042h1.639v-1.107H88.144z M91.323,239.432
		c0.252-0.462,0.35-0.687,0.532-1.19h-3.138c0.224,0.477,0.308,0.7,0.476,1.19H91.323z"/>
	<path fill="#EC671B" d="M99.174,237.625c0-0.729-0.028-1.177-0.084-1.611h1.611c-0.07,0.448-0.084,0.841-0.084,1.625v1.793h0.308
		c0.518,0,0.714-0.014,0.938-0.056v1.471c-0.294-0.042-0.546-0.056-0.98-0.056h-0.266v3.81c0.546-0.252,0.7-0.322,1.331-0.645
		l0.042,1.485c-1.275,0.687-2.031,1.022-3.46,1.555c-0.392,0.154-0.518,0.21-0.729,0.308l-0.294-1.61
		c0.42-0.057,0.827-0.183,1.667-0.504v-4.398h-0.322c-0.532,0-0.756,0.014-1.093,0.069v-1.499c0.308,0.057,0.546,0.07,1.093,0.07
		h0.322V237.625z M104.203,246.548c0,0.28,0.098,0.378,0.406,0.435c0.364,0.069,0.882,0.098,1.905,0.098
		c1.667,0,2.115-0.07,2.325-0.364c0.168-0.238,0.252-0.715,0.252-1.667c0.448,0.196,1.05,0.378,1.526,0.462
		c-0.168,2.802-0.462,2.998-4.454,2.998c-2.83,0-3.446-0.267-3.446-1.499v-4.818c-0.126,0.042-0.224,0.07-0.28,0.084
		c-0.42,0.14-0.574,0.196-0.854,0.322l-0.35-1.527c0.392-0.056,0.882-0.153,1.359-0.308l0.126-0.042v-1.919
		c0-0.673-0.014-1.022-0.084-1.485h1.653c-0.056,0.448-0.084,0.854-0.084,1.429v1.527l1.358-0.435V237.4
		c0-0.644-0.014-0.938-0.07-1.4h1.625c-0.056,0.462-0.084,0.91-0.084,1.429v1.961l2.018-0.63c0.546-0.168,0.77-0.252,1.148-0.421
		c-0.028,0.617-0.042,0.715-0.07,1.472c-0.07,1.975-0.168,3.249-0.308,3.852c-0.182,0.799-0.56,1.036-1.583,1.036
		c-0.182,0-0.309,0-0.659-0.027c-0.07-0.603-0.168-1.009-0.378-1.443c0.322,0.07,0.574,0.112,0.784,0.112
		c0.35,0,0.435-0.056,0.49-0.35c0.07-0.463,0.126-1.331,0.168-2.689l-1.611,0.504v3.488c0,0.574,0.028,0.966,0.084,1.4h-1.625
		c0.056-0.477,0.07-0.784,0.07-1.443v-2.969l-1.358,0.434V246.548z"/>
</g>
<g>
	<path fill="#EC671B" d="M374.857,216.943c-1.246,0.015-1.246,0.015-1.4,0.028c-0.028,0.014-0.127,0.014-0.267,0.042
		c-0.056,0-0.126,0.014-0.224,0.028v-1.64c0.447,0.07,0.994,0.099,1.877,0.099h8.559c0.854,0,1.316-0.028,1.849-0.099v1.64
		c-0.561-0.07-1.051-0.099-1.835-0.099h-4.889c-0.35,1.247-0.658,1.989-1.275,3.025h5.604c0.588,0,0.98-0.014,1.443-0.069
		c-0.028,0.42-0.057,1.064-0.057,1.442v4.524c0,0.547,0.028,1.135,0.084,1.625h-1.666v-0.799h-5.688v0.785h-1.667
		c0.056-0.49,0.099-1.037,0.099-1.611v-2.535c0-0.364,0.014-0.658,0.027-0.868c-0.588,0.756-1.246,1.4-2.143,2.115
		c-0.225-0.561-0.533-1.065-0.953-1.527c1.4-0.896,2.381-1.877,3.277-3.292c0.589-0.91,0.826-1.456,1.262-2.815H374.857z
		 M376.959,225.292h5.715v-3.922h-5.715V225.292z"/>
	<path fill="#EC671B" d="M389.418,218.288c0,3.012-0.238,5.323-0.715,6.892c-0.252,0.854-0.561,1.583-1.037,2.438
		c-0.476-0.616-0.672-0.826-1.218-1.246c1.148-2.031,1.442-3.908,1.442-9.161c0-0.771-0.027-1.401-0.07-1.85
		c0.505,0.042,1.094,0.07,1.85,0.07h7.984c0.799,0,1.303-0.028,1.681-0.084v1.569c-0.462-0.057-0.911-0.07-1.681-0.07h-8.236
		V218.288z M395.049,217.363c-0.042,0.309-0.07,0.603-0.07,1.051c0,1.934,0.141,2.899,0.547,3.908
		c0.476,1.219,1.189,2.045,2.423,2.844c0.56,0.364,1.093,0.645,1.793,0.896c-0.546,0.854-0.56,0.883-0.868,1.555
		c-0.953-0.406-1.779-0.925-2.521-1.555c-1.023-0.896-1.611-1.793-2.073-3.18c-0.462,1.526-1.022,2.438-2.06,3.319
		c-0.7,0.603-1.414,1.037-2.367,1.443c-0.252-0.505-0.588-1.037-0.91-1.415c0.631-0.238,1.414-0.645,1.919-0.994
		c1.19-0.813,1.947-1.989,2.255-3.433c0.196-0.966,0.281-2.003,0.281-3.403c0-0.351-0.029-0.742-0.085-1.037H395.049z
		 M389.811,222.295c0.602-1.163,0.84-2.004,1.064-3.685l1.456,0.351c-0.351,1.975-0.589,2.773-1.177,4.006L389.811,222.295z
		 M395.818,222.168c0.758-1.148,1.219-2.157,1.668-3.712l1.498,0.616c-0.826,2.004-1.12,2.592-1.891,3.782L395.818,222.168z"/>
	<path fill="#EC671B" d="M402.493,220.936c-0.771,0-1.233,0.028-1.694,0.07v-1.569c0.42,0.057,0.896,0.084,1.709,0.084h9.217
		c0.826,0,1.33-0.027,1.736-0.084v1.569c-0.477-0.042-0.98-0.07-1.709-0.07h-5.477c-0.393,0.687-0.574,0.995-0.896,1.443h5.505
		c0.644,0,0.925-0.015,1.19-0.057c-0.042,0.435-0.057,0.784-0.057,1.205v2.717c0,0.533,0.015,0.896,0.07,1.415h-1.639v-0.603h-5.673
		v0.589h-1.653c0.057-0.421,0.084-0.826,0.084-1.274v-1.682c-0.602,0.49-1.051,0.785-1.849,1.233
		c-0.21-0.589-0.435-0.967-0.854-1.499c1.177-0.532,1.821-0.938,2.549-1.611c0.631-0.588,1.023-1.093,1.443-1.877H402.493z
		 M406.247,215.893c0-0.476-0.028-0.784-0.084-1.148h1.709c-0.069,0.351-0.084,0.673-0.084,1.148v1.233h3.012v-0.813
		c0-0.294-0.028-0.616-0.07-0.911h1.653c-0.057,0.337-0.07,0.631-0.07,0.98v1.191c0,0.42,0.014,0.729,0.042,0.952
		c-0.351-0.014-0.687-0.028-1.163-0.028h-8.208c-0.532,0-0.813,0-1.163,0.028c0.028-0.294,0.043-0.588,0.043-0.938v-1.19
		c0-0.378-0.028-0.715-0.084-0.995h1.666c-0.056,0.253-0.07,0.561-0.07,0.896v0.827h2.872V215.893z M404.734,225.67h5.729v-1.919
		h-5.729V225.67z"/>
	<path fill="#EC671B" d="M420.443,223.289c-0.799,1.807-1.695,2.634-2.844,2.634c-1.597,0-2.745-1.625-2.745-3.881
		c0-1.54,0.546-2.983,1.54-4.076c1.178-1.288,2.83-1.961,4.819-1.961c3.362,0,5.547,2.045,5.547,5.197
		c0,2.423-1.261,4.356-3.403,5.225c-0.673,0.28-1.219,0.42-2.199,0.588c-0.238-0.742-0.406-1.05-0.855-1.639
		c1.289-0.168,2.129-0.392,2.788-0.771c1.219-0.672,1.946-2.003,1.946-3.502c0-1.345-0.602-2.438-1.723-3.109
		c-0.434-0.252-0.798-0.364-1.414-0.42C421.634,219.773,421.144,221.706,420.443,223.289z M418.385,218.274
		c-1.178,0.84-1.906,2.283-1.906,3.782c0,1.148,0.49,2.059,1.107,2.059c0.462,0,0.938-0.588,1.442-1.793
		c0.532-1.261,0.995-3.151,1.163-4.734C419.463,217.672,418.959,217.868,418.385,218.274z"/>
	<path fill="#EC671B" d="M431.908,223.415c-0.225,0.294-0.35,0.448-0.729,0.854c-0.28-0.406-0.49-0.658-0.813-0.967
		c-0.252,2.045-0.631,3.236-1.373,4.385c-0.462-0.7-0.658-0.938-1.12-1.373c0.42-0.714,0.616-1.148,0.798-1.849
		c0.281-1.093,0.435-2.662,0.435-4.665c0-0.56-0.028-1.078-0.069-1.541c0.546,0.057,0.966,0.07,1.596,0.07h1.443
		c-0.141-0.518-0.21-0.687-0.477-1.19h-1.19c-0.742,0-1.036,0.014-1.429,0.056v-1.513c0.379,0.057,0.813,0.084,1.527,0.084h3.432
		v-0.14c0-0.294-0.028-0.561-0.07-0.883h1.723c-0.056,0.294-0.084,0.547-0.084,0.883v0.14h3.432c0.729,0,1.178-0.027,1.584-0.084
		v1.513c-0.406-0.042-0.758-0.056-1.5-0.056h-1.078c-0.28,0.616-0.35,0.771-0.588,1.19h1.849c0.757,0,1.177-0.014,1.569-0.07v1.43
		c-0.449-0.057-0.841-0.07-1.569-0.07h-8.657c0,1.625-0.027,2.199-0.125,3.264c0.392-0.393,0.672-0.757,0.98-1.316
		c0.322-0.589,0.447-0.896,0.729-1.793l1.414,0.322c-0.141,0.35-0.141,0.35-0.309,0.756h1.569c0-0.435-0.015-0.658-0.056-0.896
		h1.597c-0.042,0.294-0.056,0.49-0.056,0.896h2.521c0.686,0,0.994-0.014,1.344-0.07v1.485c-0.406-0.042-0.714-0.057-1.358-0.057
		h-2.507v1.107h2.101c0.658,0,0.911-0.015,1.261-0.057v1.373c-0.406-0.042-0.645-0.056-1.261-0.056h-2.101v1.358h3.165
		c0.561,0,0.981-0.028,1.331-0.07v1.499c-0.42-0.056-0.841-0.084-1.373-0.084h-7.773c-0.477,0-0.855,0.014-1.346,0.07v-1.485
		c0.351,0.057,0.715,0.07,1.316,0.07h3.209v-1.358h-1.625c-0.505,0-0.896,0.014-1.289,0.056V223.415z M432.637,222.21
		c-0.238,0.448-0.379,0.701-0.645,1.065c0.28,0.027,0.602,0.042,1.19,0.042h1.64v-1.107H432.637z M435.816,218.33
		c0.252-0.462,0.35-0.687,0.532-1.19h-3.138c0.225,0.477,0.309,0.7,0.477,1.19H435.816z"/>
	<path fill="#EC671B" d="M443.667,216.523c0-0.729-0.028-1.177-0.084-1.611h1.61c-0.07,0.448-0.084,0.841-0.084,1.625v1.793h0.309
		c0.518,0,0.715-0.014,0.938-0.056v1.471c-0.294-0.042-0.546-0.056-0.98-0.056h-0.267v3.81c0.547-0.252,0.701-0.322,1.331-0.645
		l0.042,1.485c-1.275,0.687-2.031,1.022-3.46,1.555c-0.392,0.154-0.519,0.21-0.729,0.308l-0.294-1.61
		c0.42-0.057,0.826-0.183,1.667-0.504v-4.398h-0.322c-0.532,0-0.757,0.014-1.093,0.069v-1.499c0.309,0.057,0.547,0.07,1.093,0.07
		h0.322V216.523z M448.695,225.446c0,0.28,0.098,0.378,0.406,0.435c0.364,0.069,0.883,0.098,1.905,0.098
		c1.667,0,2.115-0.07,2.325-0.364c0.168-0.238,0.252-0.715,0.252-1.667c0.449,0.196,1.051,0.378,1.527,0.462
		c-0.168,2.802-0.463,2.998-4.455,2.998c-2.829,0-3.445-0.267-3.445-1.499v-4.818c-0.126,0.042-0.225,0.07-0.28,0.084
		c-0.421,0.14-0.574,0.196-0.854,0.322l-0.35-1.527c0.392-0.056,0.882-0.153,1.358-0.308l0.126-0.042V217.7
		c0-0.673-0.014-1.022-0.084-1.485h1.652c-0.056,0.448-0.084,0.854-0.084,1.429v1.527l1.359-0.435v-2.438
		c0-0.644-0.014-0.938-0.07-1.4h1.625c-0.057,0.462-0.084,0.91-0.084,1.429v1.961l2.018-0.63c0.545-0.168,0.77-0.252,1.148-0.421
		c-0.029,0.617-0.043,0.715-0.07,1.472c-0.07,1.975-0.168,3.249-0.309,3.852c-0.182,0.799-0.561,1.036-1.582,1.036
		c-0.183,0-0.309,0-0.659-0.027c-0.069-0.603-0.168-1.009-0.378-1.443c0.322,0.07,0.574,0.112,0.784,0.112
		c0.351,0,0.435-0.056,0.49-0.35c0.07-0.463,0.126-1.331,0.169-2.689l-1.611,0.504v3.488c0,0.574,0.027,0.966,0.084,1.4h-1.625
		c0.057-0.477,0.07-0.784,0.07-1.443v-2.969l-1.359,0.434V225.446z"/>
</g>
<line fill="none" stroke="#EC671B" stroke-miterlimit="10" x1="67.498" y1="287.564" x2="67.498" y2="253.813"/>
<line fill="none" stroke="#EC671B" stroke-miterlimit="10" x1="328.91" y1="220.75" x2="368.573" y2="220.75"/>
</svg>
