<?xml version="1.0" encoding="utf-8"?>
<!-- Generator: Adobe Illustrator 16.0.0, SVG Export Plug-In . SVG Version: 6.00 Build 0)  -->
<!DOCTYPE svg PUBLIC "-//W3C//DTD SVG 1.1//EN" "http://www.w3.org/Graphics/SVG/1.1/DTD/svg11.dtd">
<svg version="1.1" id="レイヤー_1" xmlns="http://www.w3.org/2000/svg" xmlns:xlink="http://www.w3.org/1999/xlink" x="0px"
	 y="0px" width="224.305px" height="193.349px" viewBox="0 0 224.305 193.349" enable-background="new 0 0 224.305 193.349"
	 xml:space="preserve">
<g>
	<polygon fill-rule="evenodd" clip-rule="evenodd" fill="#FFFFFF" points="42.312,0 214.873,0 214.873,179.041 42.312,179.041 
		42.312,0 	"/>
</g>
<g>
	<path fill="none" stroke="#868686" stroke-width="0.72" stroke-linejoin="round" stroke-miterlimit="10" d="M42.312,179.041
		h172.561 M42.312,99.48h172.561 M42.312,59.64h172.561 M42.312,19.92h172.561"/>
</g>
<g>
	<path fill="none" stroke="#B7B7B7" stroke-width="0.72" stroke-linejoin="round" stroke-miterlimit="10" d="M70.993,0v179.041
		 M99.792,0v179.041 M128.592,0v179.041 M157.392,0v179.041 M186.073,0v179.041 M214.873,0v179.041"/>
</g>
<g>
	
		<line fill="none" stroke="#868686" stroke-width="0.72" stroke-linejoin="round" stroke-miterlimit="10" x1="42.312" y1="179.041" x2="42.312" y2="0"/>
</g>
<g>
	<path fill="none" stroke="#868686" stroke-width="0.72" stroke-linejoin="round" stroke-miterlimit="10" d="M38.953,179.041h3.359
		 M38.953,139.201h3.359 M38.953,99.48h3.359 M38.953,59.64h3.359 M38.953,19.92h3.359"/>
</g>
<g>
	
		<line fill="none" stroke="#868686" stroke-width="0.72" stroke-linejoin="round" stroke-miterlimit="10" x1="42.312" y1="139.201" x2="214.873" y2="139.201"/>
</g>
<g>
	<path fill="none" stroke="#868686" stroke-width="0.72" stroke-linejoin="round" stroke-miterlimit="10" d="M42.312,139.201v3.359
		 M99.792,139.201v3.359 M157.392,139.201v3.359 M214.873,139.201v3.359"/>
</g>
<g>
	<defs>
		<polygon id="SVGID_1_" points="42.193,179.761 215.592,179.761 215.592,0 42.193,0 42.193,179.761 		"/>
	</defs>
	<clipPath id="SVGID_2_">
		<use xlink:href="#SVGID_1_"  overflow="visible"/>
	</clipPath>
	
		<polyline clip-path="url(#SVGID_2_)" fill="none" stroke="#000000" stroke-width="0.96" stroke-linecap="round" stroke-linejoin="round" stroke-miterlimit="10" points="
		53.472,85.92 63.792,74.4 61.392,52.92 51.672,29.88 55.993,11.521 75.913,6.36 141.073,13.92 131.113,16.32 79.033,20.28 
		51.432,36.24 46.512,58.08 48.792,79.2 53.472,85.92 	"/>
</g>
<g>
	<polygon points="53.494,83.396 56.014,85.917 53.494,88.437 50.974,85.917 53.494,83.396 	"/>
	<polygon fill="none" stroke="#000000" stroke-width="0.24" stroke-linejoin="round" stroke-miterlimit="10" points="53.494,83.396 
		56.014,85.917 53.494,88.437 50.974,85.917 53.494,83.396 	"/>
	<polygon points="63.814,71.876 66.334,74.396 63.814,76.917 61.294,74.396 63.814,71.876 	"/>
	<polygon fill="none" stroke="#000000" stroke-width="0.24" stroke-linejoin="round" stroke-miterlimit="10" points="63.814,71.876 
		66.334,74.396 63.814,76.917 61.294,74.396 63.814,71.876 	"/>
	<polygon points="61.415,50.396 63.934,52.917 61.415,55.437 58.894,52.917 61.415,50.396 	"/>
	<polygon fill="none" stroke="#000000" stroke-width="0.24" stroke-linejoin="round" stroke-miterlimit="10" points="61.415,50.396 
		63.934,52.917 61.415,55.437 58.894,52.917 61.415,50.396 	"/>
	<polygon points="51.694,27.356 54.214,29.877 51.694,32.396 49.174,29.877 51.694,27.356 	"/>
	<polygon fill="none" stroke="#000000" stroke-width="0.24" stroke-linejoin="round" stroke-miterlimit="10" points="51.694,27.356 
		54.214,29.877 51.694,32.396 49.174,29.877 51.694,27.356 	"/>
	<polygon points="56.014,8.997 58.534,11.517 56.014,14.037 53.494,11.517 56.014,8.997 	"/>
	<polygon fill="none" stroke="#000000" stroke-width="0.24" stroke-linejoin="round" stroke-miterlimit="10" points="56.014,8.997 
		58.534,11.517 56.014,14.037 53.494,11.517 56.014,8.997 	"/>
	<polygon points="75.934,3.837 78.455,6.356 75.934,8.877 73.415,6.356 75.934,3.837 	"/>
	<polygon fill="none" stroke="#000000" stroke-width="0.24" stroke-linejoin="round" stroke-miterlimit="10" points="75.934,3.837 
		78.455,6.356 75.934,8.877 73.415,6.356 75.934,3.837 	"/>
	<polygon points="141.094,11.396 143.614,13.917 141.094,16.437 138.574,13.917 141.094,11.396 	"/>
	<polygon fill="none" stroke="#000000" stroke-width="0.24" stroke-linejoin="round" stroke-miterlimit="10" points="
		141.094,11.396 143.614,13.917 141.094,16.437 138.574,13.917 141.094,11.396 	"/>
	<polygon points="131.134,13.797 133.654,16.316 131.134,18.837 128.614,16.316 131.134,13.797 	"/>
	<polygon fill="none" stroke="#000000" stroke-width="0.24" stroke-linejoin="round" stroke-miterlimit="10" points="
		131.134,13.797 133.654,16.316 131.134,18.837 128.614,16.316 131.134,13.797 	"/>
	<polygon points="79.054,17.757 81.574,20.276 79.054,22.797 76.534,20.276 79.054,17.757 	"/>
	<polygon fill="none" stroke="#000000" stroke-width="0.24" stroke-linejoin="round" stroke-miterlimit="10" points="79.054,17.757 
		81.574,20.276 79.054,22.797 76.534,20.276 79.054,17.757 	"/>
	<polygon points="51.455,33.717 53.974,36.237 51.455,38.757 48.934,36.237 51.455,33.717 	"/>
	<polygon fill="none" stroke="#000000" stroke-width="0.24" stroke-linejoin="round" stroke-miterlimit="10" points="51.455,33.717 
		53.974,36.237 51.455,38.757 48.934,36.237 51.455,33.717 	"/>
	<polygon points="46.534,55.557 49.054,58.077 46.534,60.597 44.014,58.077 46.534,55.557 	"/>
	<polygon fill="none" stroke="#000000" stroke-width="0.24" stroke-linejoin="round" stroke-miterlimit="10" points="46.534,55.557 
		49.054,58.077 46.534,60.597 44.014,58.077 46.534,55.557 	"/>
	<polygon points="48.814,76.677 51.334,79.197 48.814,81.717 46.294,79.197 48.814,76.677 	"/>
	<polygon fill="none" stroke="#000000" stroke-width="0.24" stroke-linejoin="round" stroke-miterlimit="10" points="48.814,76.677 
		51.334,79.197 48.814,81.717 46.294,79.197 48.814,76.677 	"/>
	<polygon points="53.494,83.396 56.014,85.917 53.494,88.437 50.974,85.917 53.494,83.396 	"/>
	<polygon fill="none" stroke="#000000" stroke-width="0.24" stroke-linejoin="round" stroke-miterlimit="10" points="53.494,83.396 
		56.014,85.917 53.494,88.437 50.974,85.917 53.494,83.396 	"/>
</g>
<g>
	<g>
		<path d="M51.608,89.917c0.259,0.04,0.448,0.05,0.827,0.05h0.627c0.339,0,0.499-0.01,0.827-0.05c-0.06,0.608-0.09,1.116-0.09,1.654
			v4.843c0,0.468,0.021,0.757,0.08,1.126h-0.946c0.06-0.349,0.079-0.668,0.079-1.126v-5.77h-0.538c-0.318,0-0.577,0.02-0.866,0.06
			V89.917z"/>
	</g>
</g>
<g>
	<g>
		<path d="M64.904,54.78c0.159,0.519,0.299,0.728,0.608,0.947c0.339,0.239,0.776,0.359,1.285,0.359c1.155,0,1.883-0.598,1.883-1.544
			c0-0.987-0.707-1.525-2.032-1.525c-0.279,0-0.528,0.02-0.797,0.05v-0.788c0.229,0.04,0.468,0.06,0.737,0.06
			c0.657,0,1.146-0.149,1.454-0.458c0.249-0.239,0.398-0.608,0.398-0.966c0-0.857-0.598-1.355-1.604-1.355
			c-0.608,0-1.047,0.169-1.325,0.528c-0.14,0.179-0.21,0.339-0.319,0.708l-0.827-0.179c0.17-0.508,0.289-0.737,0.538-0.997
			c0.438-0.479,1.116-0.728,1.983-0.728c1.444,0,2.361,0.757,2.361,1.953c0,0.608-0.26,1.146-0.697,1.455
			c-0.26,0.189-0.479,0.269-0.938,0.359c0.578,0.06,0.888,0.169,1.226,0.428c0.438,0.339,0.668,0.867,0.668,1.505
			c0,1.345-1.036,2.182-2.7,2.182c-1.007,0-1.754-0.279-2.231-0.817c-0.21-0.239-0.329-0.458-0.509-0.966L64.904,54.78z"/>
	</g>
</g>
<g>
	<g>
		<path d="M48.982,11.961c-0.021,0.179-0.021,0.179-0.08,0.448c0.479-0.458,1.057-0.688,1.744-0.688
			c0.727,0,1.345,0.239,1.793,0.677c0.448,0.429,0.668,1.017,0.668,1.754c0,1.604-1.046,2.63-2.69,2.63
			c-0.777,0-1.425-0.229-1.903-0.677c-0.249-0.25-0.389-0.458-0.628-0.937l0.817-0.239c0.1,0.279,0.17,0.408,0.319,0.578
			c0.338,0.379,0.837,0.588,1.414,0.588c1.116,0,1.863-0.757,1.863-1.903c0-1.096-0.688-1.813-1.743-1.813
			c-0.509,0-0.946,0.139-1.306,0.418c-0.239,0.189-0.349,0.329-0.458,0.598l-0.747-0.07c0.079-0.389,0.109-0.598,0.149-1.026
			l0.219-2.251c0.021-0.289,0.03-0.409,0.03-0.598c0-0.139,0-0.179-0.021-0.428c0.31,0.04,0.469,0.05,1.057,0.05h2.053
			c0.538,0,0.767-0.02,1.166-0.08v0.847c-0.379-0.06-0.698-0.08-1.166-0.08h-2.342L48.982,11.961z"/>
	</g>
</g>
<g>
	<g>
		<path d="M149.796,10.731c-0.179,0.14-0.349,0.359-0.737,0.957c-0.896,1.385-1.315,2.232-1.704,3.448
			c-0.259,0.827-0.368,1.335-0.527,2.491h-0.947c0.319-1.804,0.588-2.701,1.206-3.976c0.479-0.996,0.906-1.684,1.794-2.889h-3.238
			c-0.469,0-0.748,0.02-1.126,0.069V9.984c0.389,0.05,0.657,0.07,1.136,0.07h2.989c0.588,0,0.807-0.01,1.155-0.05V10.731z"/>
	</g>
</g>
<g>
	<g>
		<path d="M78.115,29.717c0.119,0.329,0.199,0.468,0.358,0.638c0.279,0.309,0.708,0.468,1.256,0.468
			c0.717,0,1.235-0.289,1.604-0.917c0.189-0.319,0.35-0.807,0.429-1.275c0.04-0.249,0.07-0.658,0.09-1.166
			c-0.14,0.269-0.219,0.369-0.398,0.558c-0.508,0.479-1.066,0.698-1.813,0.698c-0.737,0-1.365-0.229-1.794-0.658
			c-0.428-0.429-0.677-1.086-0.677-1.793c0-1.584,1.065-2.621,2.7-2.621c1.115,0,2.032,0.638,2.411,1.674
			c0.199,0.538,0.289,1.216,0.289,2.072c0,1.385-0.289,2.511-0.827,3.179c-0.498,0.628-1.156,0.927-2.072,0.927
			c-0.688,0-1.246-0.179-1.675-0.538c-0.278-0.229-0.438-0.458-0.697-0.986L78.115,29.717z M81.662,26.209
			c0-1.076-0.797-1.883-1.863-1.883c-0.657,0-1.255,0.319-1.584,0.847c-0.159,0.259-0.259,0.658-0.259,1.046
			c0,1.125,0.688,1.833,1.773,1.833C80.834,28.053,81.662,27.266,81.662,26.209z"/>
	</g>
</g>
<g>
	<g>
		<path d="M36.52,48.16c0.259,0.04,0.448,0.05,0.827,0.05h0.627c0.339,0,0.499-0.01,0.827-0.05c-0.06,0.608-0.09,1.116-0.09,1.654
			v4.843c0,0.468,0.021,0.757,0.08,1.126h-0.946c0.06-0.349,0.079-0.668,0.079-1.126v-5.77h-0.538c-0.318,0-0.577,0.02-0.866,0.06
			V48.16z"/>
		<path d="M43.114,48.16c0.259,0.04,0.448,0.05,0.827,0.05h0.627c0.339,0,0.499-0.01,0.827-0.05c-0.06,0.608-0.09,1.116-0.09,1.654
			v4.843c0,0.468,0.021,0.757,0.08,1.126h-0.946c0.06-0.349,0.079-0.668,0.079-1.126v-5.77H43.98c-0.318,0-0.577,0.02-0.866,0.06
			V48.16z"/>
	</g>
</g>
<g>
	<g>
		<path d="M16.32,178.841c0.278,0.041,0.488,0.051,0.906,0.051h1.186c0.429,0,0.638-0.01,0.917-0.051v0.838
			c-0.279-0.041-0.498-0.051-0.917-0.051h-1.186c-0.398,0-0.628,0.01-0.906,0.051V178.841z"/>
		<path d="M21.241,174.537c0.259,0.041,0.448,0.051,0.827,0.051h0.627c0.339,0,0.499-0.01,0.827-0.051
			c-0.06,0.609-0.09,1.117-0.09,1.654v4.844c0,0.467,0.021,0.756,0.08,1.125h-0.946c0.06-0.348,0.079-0.668,0.079-1.125v-5.77
			h-0.538c-0.318,0-0.577,0.02-0.866,0.059V174.537z"/>
		<path d="M27.673,181.601c-0.269-0.268-0.478-0.576-0.598-0.916c-0.249-0.697-0.378-1.484-0.378-2.301
			c0-1.057,0.229-2.133,0.577-2.711c0.479-0.807,1.246-1.225,2.232-1.225c0.737,0,1.375,0.238,1.823,0.707
			c0.279,0.279,0.479,0.588,0.598,0.916c0.249,0.688,0.379,1.484,0.379,2.313c0,1.205-0.259,2.271-0.697,2.879
			c-0.498,0.697-1.196,1.047-2.112,1.047C28.76,182.31,28.142,182.07,27.673,181.601z M28.251,175.644
			c-0.209,0.229-0.368,0.479-0.448,0.727c-0.209,0.607-0.309,1.285-0.309,2.014c0,0.926,0.199,1.902,0.468,2.371
			c0.349,0.578,0.867,0.867,1.545,0.867c0.498,0,0.927-0.16,1.226-0.469c0.219-0.229,0.379-0.488,0.468-0.777
			c0.21-0.617,0.31-1.275,0.31-2.014c0-0.865-0.189-1.852-0.448-2.32c-0.329-0.598-0.867-0.906-1.564-0.906
			C28.979,175.136,28.571,175.304,28.251,175.644z"/>
	</g>
</g>
<g>
	<g>
		<path d="M27.633,141.828c-0.269-0.268-0.478-0.576-0.598-0.916c-0.249-0.697-0.378-1.484-0.378-2.301
			c0-1.057,0.229-2.133,0.577-2.711c0.479-0.807,1.246-1.225,2.232-1.225c0.737,0,1.375,0.238,1.823,0.707
			c0.279,0.279,0.479,0.588,0.598,0.916c0.249,0.688,0.379,1.484,0.379,2.313c0,1.205-0.259,2.271-0.697,2.879
			c-0.498,0.697-1.196,1.047-2.112,1.047C28.72,142.537,28.102,142.296,27.633,141.828z M28.211,135.871
			c-0.209,0.229-0.368,0.479-0.448,0.727c-0.209,0.607-0.309,1.285-0.309,2.014c0,0.926,0.199,1.902,0.468,2.371
			c0.349,0.578,0.867,0.867,1.545,0.867c0.498,0,0.927-0.16,1.226-0.469c0.219-0.229,0.379-0.488,0.468-0.777
			c0.21-0.617,0.31-1.275,0.31-2.014c0-0.865-0.189-1.852-0.448-2.32c-0.329-0.598-0.867-0.906-1.564-0.906
			C28.939,135.363,28.531,135.531,28.211,135.871z"/>
	</g>
</g>
<g>
	<g>
		<path d="M21.223,94.983c0.259,0.04,0.448,0.05,0.827,0.05h0.627c0.339,0,0.499-0.01,0.827-0.05c-0.06,0.608-0.09,1.116-0.09,1.654
			v4.843c0,0.467,0.021,0.756,0.08,1.125h-0.946c0.06-0.348,0.079-0.668,0.079-1.125v-5.77h-0.538c-0.318,0-0.577,0.02-0.866,0.06
			V94.983z"/>
		<path d="M27.657,102.046c-0.269-0.268-0.478-0.576-0.598-0.916c-0.249-0.697-0.378-1.485-0.378-2.301
			c0-1.056,0.229-2.132,0.577-2.71c0.479-0.807,1.246-1.226,2.232-1.226c0.737,0,1.375,0.239,1.823,0.708
			c0.279,0.279,0.479,0.588,0.598,0.917c0.249,0.688,0.379,1.485,0.379,2.312c0,1.206-0.259,2.272-0.697,2.879
			c-0.498,0.697-1.196,1.047-2.112,1.047C28.744,102.755,28.125,102.515,27.657,102.046z M28.235,96.089
			c-0.209,0.229-0.368,0.478-0.448,0.728c-0.209,0.607-0.309,1.285-0.309,2.013c0,0.927,0.199,1.903,0.468,2.372
			c0.349,0.578,0.867,0.867,1.545,0.867c0.498,0,0.927-0.16,1.226-0.469c0.219-0.229,0.379-0.488,0.468-0.777
			c0.21-0.617,0.31-1.276,0.31-2.013c0-0.867-0.189-1.854-0.448-2.322c-0.329-0.598-0.867-0.907-1.564-0.907
			C28.962,95.581,28.554,95.75,28.235,96.089z"/>
	</g>
</g>
<g>
	<g>
		<path d="M21.302,62.816c-0.627,0-0.777,0.01-1.096,0.05c0.109-0.787,0.14-0.937,0.289-1.315c0.249-0.628,0.667-1.176,1.295-1.714
			c0.349-0.299,0.369-0.309,1.524-1.096c0.986-0.667,1.315-1.106,1.315-1.713c0-0.757-0.638-1.246-1.654-1.246
			c-0.657,0-1.146,0.219-1.444,0.647c-0.189,0.269-0.279,0.508-0.349,1.006l-0.837-0.14c0.149-0.717,0.299-1.066,0.628-1.435
			c0.448-0.508,1.126-0.767,2.002-0.767c1.505,0,2.472,0.757,2.472,1.933c0,0.508-0.199,0.986-0.588,1.415
			c-0.299,0.339-0.559,0.528-1.694,1.286c-0.787,0.528-1.105,0.807-1.435,1.226c-0.309,0.408-0.448,0.677-0.568,1.156h3.179
			c0.498,0,0.837-0.02,1.216-0.07v0.837c-0.398-0.04-0.728-0.06-1.226-0.06H21.302z"/>
		<path d="M27.657,62.258c-0.269-0.269-0.478-0.578-0.598-0.917c-0.249-0.697-0.378-1.484-0.378-2.301
			c0-1.056,0.229-2.132,0.577-2.71c0.479-0.807,1.246-1.226,2.232-1.226c0.737,0,1.375,0.239,1.823,0.708
			c0.279,0.279,0.479,0.588,0.598,0.917c0.249,0.688,0.379,1.485,0.379,2.312c0,1.206-0.259,2.271-0.697,2.879
			c-0.498,0.697-1.196,1.046-2.112,1.046C28.744,62.966,28.125,62.727,27.657,62.258z M28.235,56.3
			c-0.209,0.229-0.368,0.478-0.448,0.728c-0.209,0.607-0.309,1.285-0.309,2.013c0,0.926,0.199,1.903,0.468,2.371
			c0.349,0.578,0.867,0.867,1.545,0.867c0.498,0,0.927-0.16,1.226-0.468c0.219-0.229,0.379-0.488,0.468-0.777
			c0.21-0.618,0.31-1.275,0.31-2.013c0-0.867-0.189-1.854-0.448-2.322c-0.329-0.598-0.867-0.907-1.564-0.907
			C28.962,55.792,28.554,55.961,28.235,56.3z"/>
	</g>
</g>
<g>
	<g>
		<path d="M20.904,21.199c0.159,0.519,0.299,0.728,0.608,0.947c0.339,0.239,0.776,0.359,1.285,0.359
			c1.155,0,1.883-0.598,1.883-1.544c0-0.987-0.707-1.525-2.032-1.525c-0.279,0-0.528,0.02-0.797,0.05v-0.788
			c0.229,0.04,0.468,0.06,0.737,0.06c0.657,0,1.146-0.149,1.454-0.458c0.249-0.239,0.398-0.608,0.398-0.966
			c0-0.857-0.598-1.355-1.604-1.355c-0.608,0-1.047,0.169-1.325,0.528c-0.14,0.179-0.21,0.339-0.319,0.708l-0.827-0.179
			c0.17-0.508,0.289-0.737,0.538-0.997c0.438-0.479,1.116-0.728,1.983-0.728c1.444,0,2.361,0.757,2.361,1.953
			c0,0.608-0.26,1.146-0.697,1.455c-0.26,0.189-0.479,0.269-0.938,0.359c0.578,0.06,0.888,0.169,1.226,0.428
			c0.438,0.339,0.668,0.867,0.668,1.505c0,1.345-1.036,2.182-2.7,2.182c-1.007,0-1.754-0.279-2.231-0.817
			c-0.21-0.239-0.329-0.458-0.509-0.966L20.904,21.199z"/>
		<path d="M27.657,22.485c-0.269-0.269-0.478-0.578-0.598-0.917c-0.249-0.697-0.378-1.484-0.378-2.301
			c0-1.056,0.229-2.132,0.577-2.71c0.479-0.807,1.246-1.226,2.232-1.226c0.737,0,1.375,0.239,1.823,0.708
			c0.279,0.279,0.479,0.588,0.598,0.917c0.249,0.688,0.379,1.485,0.379,2.312c0,1.206-0.259,2.271-0.697,2.879
			c-0.498,0.697-1.196,1.046-2.112,1.046C28.744,23.192,28.125,22.953,27.657,22.485z M28.235,16.526
			c-0.209,0.229-0.368,0.478-0.448,0.728c-0.209,0.607-0.309,1.285-0.309,2.013c0,0.926,0.199,1.903,0.468,2.371
			c0.349,0.578,0.867,0.867,1.545,0.867c0.498,0,0.927-0.16,1.226-0.468c0.219-0.229,0.379-0.488,0.468-0.777
			c0.21-0.618,0.31-1.275,0.31-2.013c0-0.867-0.189-1.854-0.448-2.322c-0.329-0.598-0.867-0.907-1.564-0.907
			C28.962,16.018,28.554,16.188,28.235,16.526z"/>
	</g>
</g>
<g>
	<g>
		<path d="M40.422,155.25c-0.269-0.268-0.478-0.576-0.598-0.916c-0.249-0.697-0.378-1.484-0.378-2.301
			c0-1.057,0.229-2.133,0.577-2.711c0.479-0.807,1.246-1.225,2.232-1.225c0.737,0,1.375,0.238,1.823,0.707
			c0.279,0.279,0.479,0.588,0.598,0.916c0.249,0.688,0.379,1.484,0.379,2.313c0,1.205-0.259,2.271-0.697,2.879
			c-0.498,0.697-1.196,1.047-2.112,1.047C41.509,155.958,40.891,155.718,40.422,155.25z M41,149.292
			c-0.209,0.229-0.368,0.479-0.448,0.727c-0.209,0.607-0.309,1.285-0.309,2.014c0,0.926,0.199,1.902,0.468,2.371
			c0.349,0.578,0.867,0.867,1.545,0.867c0.498,0,0.927-0.16,1.226-0.469c0.219-0.229,0.379-0.488,0.468-0.777
			c0.21-0.617,0.31-1.275,0.31-2.014c0-0.865-0.189-1.852-0.448-2.32c-0.329-0.598-0.867-0.906-1.564-0.906
			C41.728,148.785,41.32,148.953,41,149.292z"/>
	</g>
</g>
<g>
	<g>
		<path d="M91.559,148.185c0.259,0.041,0.448,0.051,0.827,0.051h0.627c0.339,0,0.499-0.01,0.827-0.051
			c-0.06,0.609-0.09,1.117-0.09,1.654v4.844c0,0.467,0.021,0.756,0.08,1.125h-0.946c0.06-0.348,0.079-0.668,0.079-1.125v-5.77
			h-0.538c-0.318,0-0.577,0.02-0.866,0.059V148.185z"/>
		<path d="M97.993,155.25c-0.269-0.268-0.478-0.576-0.598-0.916c-0.249-0.697-0.378-1.484-0.378-2.301
			c0-1.057,0.229-2.133,0.577-2.711c0.479-0.807,1.246-1.225,2.232-1.225c0.737,0,1.375,0.238,1.823,0.707
			c0.279,0.279,0.479,0.588,0.598,0.916c0.249,0.688,0.379,1.484,0.379,2.313c0,1.205-0.259,2.271-0.697,2.879
			c-0.498,0.697-1.196,1.047-2.112,1.047C99.08,155.958,98.461,155.718,97.993,155.25z M98.571,149.292
			c-0.209,0.229-0.368,0.479-0.448,0.727c-0.209,0.607-0.309,1.285-0.309,2.014c0,0.926,0.199,1.902,0.468,2.371
			c0.349,0.578,0.867,0.867,1.545,0.867c0.498,0,0.927-0.16,1.226-0.469c0.219-0.229,0.379-0.488,0.468-0.777
			c0.21-0.617,0.31-1.275,0.31-2.014c0-0.865-0.189-1.852-0.448-2.32c-0.329-0.598-0.867-0.906-1.564-0.906
			C99.298,148.785,98.89,148.953,98.571,149.292z"/>
		<path d="M104.585,155.25c-0.269-0.268-0.478-0.576-0.598-0.916c-0.249-0.697-0.378-1.484-0.378-2.301
			c0-1.057,0.229-2.133,0.577-2.711c0.479-0.807,1.246-1.225,2.232-1.225c0.737,0,1.375,0.238,1.823,0.707
			c0.279,0.279,0.479,0.588,0.598,0.916c0.249,0.688,0.379,1.484,0.379,2.313c0,1.205-0.259,2.271-0.697,2.879
			c-0.498,0.697-1.196,1.047-2.112,1.047C105.672,155.958,105.054,155.718,104.585,155.25z M105.164,149.292
			c-0.209,0.229-0.368,0.479-0.448,0.727c-0.209,0.607-0.309,1.285-0.309,2.014c0,0.926,0.199,1.902,0.468,2.371
			c0.349,0.578,0.867,0.867,1.545,0.867c0.498,0,0.927-0.16,1.226-0.469c0.219-0.229,0.379-0.488,0.468-0.777
			c0.21-0.617,0.31-1.275,0.31-2.014c0-0.865-0.189-1.852-0.448-2.32c-0.329-0.598-0.867-0.906-1.564-0.906
			C105.891,148.785,105.483,148.953,105.164,149.292z"/>
	</g>
</g>
<g>
	<g>
		<path d="M149.177,155.808c-0.627,0-0.777,0.01-1.096,0.051c0.109-0.787,0.14-0.938,0.289-1.316
			c0.249-0.627,0.667-1.176,1.295-1.713c0.349-0.299,0.369-0.309,1.524-1.096c0.986-0.668,1.315-1.107,1.315-1.715
			c0-0.758-0.638-1.246-1.654-1.246c-0.657,0-1.146,0.221-1.444,0.648c-0.189,0.27-0.279,0.508-0.349,1.006l-0.837-0.139
			c0.149-0.717,0.299-1.066,0.628-1.436c0.448-0.508,1.126-0.768,2.002-0.768c1.505,0,2.472,0.758,2.472,1.934
			c0,0.508-0.199,0.986-0.588,1.416c-0.299,0.338-0.559,0.527-1.694,1.285c-0.787,0.527-1.105,0.807-1.435,1.225
			c-0.309,0.408-0.448,0.678-0.568,1.156h3.179c0.498,0,0.837-0.02,1.216-0.07v0.838c-0.398-0.041-0.728-0.061-1.226-0.061H149.177z
			"/>
		<path d="M155.532,155.25c-0.269-0.268-0.478-0.576-0.598-0.916c-0.249-0.697-0.378-1.484-0.378-2.301
			c0-1.057,0.229-2.133,0.577-2.711c0.479-0.807,1.246-1.225,2.232-1.225c0.737,0,1.375,0.238,1.823,0.707
			c0.279,0.279,0.479,0.588,0.598,0.916c0.249,0.688,0.379,1.484,0.379,2.313c0,1.205-0.259,2.271-0.697,2.879
			c-0.498,0.697-1.196,1.047-2.112,1.047C156.619,155.958,156,155.718,155.532,155.25z M156.11,149.292
			c-0.209,0.229-0.368,0.479-0.448,0.727c-0.209,0.607-0.309,1.285-0.309,2.014c0,0.926,0.199,1.902,0.468,2.371
			c0.349,0.578,0.867,0.867,1.545,0.867c0.498,0,0.927-0.16,1.226-0.469c0.219-0.229,0.379-0.488,0.468-0.777
			c0.21-0.617,0.31-1.275,0.31-2.014c0-0.865-0.189-1.852-0.448-2.32c-0.329-0.598-0.867-0.906-1.564-0.906
			C156.837,148.785,156.429,148.953,156.11,149.292z"/>
		<path d="M162.125,155.25c-0.269-0.268-0.478-0.576-0.598-0.916c-0.249-0.697-0.378-1.484-0.378-2.301
			c0-1.057,0.229-2.133,0.577-2.711c0.479-0.807,1.246-1.225,2.232-1.225c0.737,0,1.375,0.238,1.823,0.707
			c0.279,0.279,0.479,0.588,0.598,0.916c0.249,0.688,0.379,1.484,0.379,2.313c0,1.205-0.259,2.271-0.697,2.879
			c-0.498,0.697-1.196,1.047-2.112,1.047C163.211,155.958,162.593,155.718,162.125,155.25z M162.703,149.292
			c-0.209,0.229-0.368,0.479-0.448,0.727c-0.209,0.607-0.309,1.285-0.309,2.014c0,0.926,0.199,1.902,0.468,2.371
			c0.349,0.578,0.867,0.867,1.545,0.867c0.498,0,0.927-0.16,1.226-0.469c0.219-0.229,0.379-0.488,0.468-0.777
			c0.21-0.617,0.31-1.275,0.31-2.014c0-0.865-0.189-1.852-0.448-2.32c-0.329-0.598-0.867-0.906-1.564-0.906
			C163.43,148.785,163.022,148.953,162.703,149.292z"/>
	</g>
</g>
<g>
	<g>
		<path d="M206.326,153.964c0.159,0.52,0.299,0.729,0.608,0.947c0.339,0.238,0.776,0.359,1.285,0.359
			c1.155,0,1.883-0.598,1.883-1.545c0-0.986-0.707-1.525-2.032-1.525c-0.279,0-0.528,0.021-0.797,0.051v-0.787
			c0.229,0.039,0.468,0.059,0.737,0.059c0.657,0,1.146-0.148,1.454-0.457c0.249-0.24,0.398-0.607,0.398-0.967
			c0-0.857-0.598-1.355-1.604-1.355c-0.608,0-1.047,0.17-1.325,0.529c-0.14,0.178-0.21,0.338-0.319,0.707l-0.827-0.18
			c0.17-0.508,0.289-0.738,0.538-0.996c0.438-0.479,1.116-0.729,1.983-0.729c1.444,0,2.361,0.758,2.361,1.953
			c0,0.607-0.26,1.146-0.697,1.455c-0.26,0.189-0.479,0.27-0.938,0.359c0.578,0.059,0.888,0.168,1.226,0.428
			c0.438,0.34,0.668,0.867,0.668,1.504c0,1.346-1.036,2.184-2.7,2.184c-1.007,0-1.754-0.279-2.231-0.818
			c-0.21-0.238-0.329-0.457-0.509-0.967L206.326,153.964z"/>
		<path d="M213.079,155.25c-0.269-0.268-0.478-0.576-0.598-0.916c-0.249-0.697-0.378-1.484-0.378-2.301
			c0-1.057,0.229-2.133,0.577-2.711c0.479-0.807,1.246-1.225,2.232-1.225c0.737,0,1.375,0.238,1.823,0.707
			c0.279,0.279,0.479,0.588,0.598,0.916c0.249,0.688,0.379,1.484,0.379,2.313c0,1.205-0.259,2.271-0.697,2.879
			c-0.498,0.697-1.196,1.047-2.112,1.047C214.166,155.958,213.547,155.718,213.079,155.25z M213.657,149.292
			c-0.209,0.229-0.368,0.479-0.448,0.727c-0.209,0.607-0.309,1.285-0.309,2.014c0,0.926,0.199,1.902,0.468,2.371
			c0.349,0.578,0.867,0.867,1.545,0.867c0.498,0,0.927-0.16,1.226-0.469c0.219-0.229,0.379-0.488,0.468-0.777
			c0.21-0.617,0.31-1.275,0.31-2.014c0-0.865-0.189-1.852-0.448-2.32c-0.329-0.598-0.867-0.906-1.564-0.906
			C214.384,148.785,213.976,148.953,213.657,149.292z"/>
		<path d="M219.671,155.25c-0.269-0.268-0.478-0.576-0.598-0.916c-0.249-0.697-0.378-1.484-0.378-2.301
			c0-1.057,0.229-2.133,0.577-2.711c0.479-0.807,1.246-1.225,2.232-1.225c0.737,0,1.375,0.238,1.823,0.707
			c0.279,0.279,0.479,0.588,0.598,0.916c0.249,0.688,0.379,1.484,0.379,2.313c0,1.205-0.259,2.271-0.697,2.879
			c-0.498,0.697-1.196,1.047-2.112,1.047C220.758,155.958,220.14,155.718,219.671,155.25z M220.25,149.292
			c-0.209,0.229-0.368,0.479-0.448,0.727c-0.209,0.607-0.309,1.285-0.309,2.014c0,0.926,0.199,1.902,0.468,2.371
			c0.349,0.578,0.867,0.867,1.545,0.867c0.498,0,0.927-0.16,1.226-0.469c0.219-0.229,0.379-0.488,0.468-0.777
			c0.21-0.617,0.31-1.275,0.31-2.014c0-0.865-0.189-1.852-0.448-2.32c-0.329-0.598-0.867-0.906-1.564-0.906
			C220.977,148.785,220.569,148.953,220.25,149.292z"/>
	</g>
</g>
<g>
	<g>
		<path stroke="#000000" stroke-width="0.2846" stroke-miterlimit="10" d="M2.732,45.733c-0.089,0.578-0.219,1.076-0.408,1.544
			c-0.259,0.658-0.538,1.096-1.096,1.734c-0.18-0.229-0.319-0.369-0.548-0.528c0.617-0.618,0.937-1.146,1.176-1.953
			c0.278-0.947,0.389-2.172,0.389-4.384c0-0.917-0.011-1.315-0.04-1.694c0.358,0.04,0.617,0.05,1.046,0.05h3.746
			c0.438,0,0.698-0.01,1.037-0.05c-0.03,0.269-0.04,0.518-0.04,1.026v6.556c0,0.359-0.09,0.568-0.279,0.698
			c-0.159,0.1-0.349,0.129-0.797,0.129c-0.329,0-0.747-0.01-1.196-0.04c-0.029-0.259-0.069-0.418-0.159-0.677
			c0.498,0.07,0.946,0.1,1.425,0.1c0.289,0,0.369-0.06,0.369-0.309v-2.202H2.732z M7.356,45.136v-1.773H2.912
			c-0.01,0.548-0.029,0.927-0.109,1.773H7.356z M7.356,42.764V41.11H2.921l-0.01,1.415v0.239H7.356z"/>
	</g>
</g>
<g>
	<g>
		<path stroke="#000000" stroke-width="0.2846" stroke-miterlimit="10" d="M1.965,55.23c-0.438,0-0.737,0.02-1.046,0.06v-0.717
			c0.288,0.04,0.598,0.06,1.056,0.06h5.969c0.458,0,0.757-0.02,1.056-0.06v0.717c-0.309-0.04-0.607-0.06-1.046-0.06H5.233v3.697h3.1
			c0.488,0,0.807-0.02,1.065-0.07v0.747c-0.259-0.05-0.567-0.07-1.086-0.07H5.233v2.75c0,0.369,0.021,0.737,0.07,1.086H4.486
			c0.05-0.359,0.07-0.708,0.07-1.086v-2.75h-2.97c-0.508,0-0.827,0.02-1.096,0.07v-0.747c0.278,0.05,0.578,0.07,1.086,0.07h2.979
			V55.23H1.965z M2.125,55.708c0.558,0.847,0.857,1.425,1.285,2.432l-0.628,0.319c-0.398-1.066-0.688-1.654-1.226-2.481
			L2.125,55.708z M8.302,55.987c-0.429,1.096-0.737,1.654-1.415,2.591L6.29,58.279c0.688-0.867,0.996-1.435,1.405-2.581
			L8.302,55.987z"/>
	</g>
</g>
<g>
	<g>
		<path stroke="#000000" stroke-width="0.2846" stroke-miterlimit="10" d="M1.746,69.621c0-0.408-0.02-0.657-0.06-0.966h0.747
			c-0.05,0.299-0.06,0.538-0.06,0.947v1.674h0.22c0.398,0,0.598-0.01,0.787-0.05v0.658c-0.22-0.03-0.438-0.04-0.798-0.04H2.374
			v2.959c0.458-0.209,0.658-0.319,1.206-0.628l0.029,0.628C2.703,75.3,2.274,75.5,1.058,75.978c-0.179,0.07-0.358,0.139-0.498,0.199
			L0.371,75.52c0.26-0.04,0.718-0.189,1.375-0.448v-3.229H1.307c-0.418,0-0.617,0.01-0.866,0.06v-0.688
			c0.249,0.05,0.448,0.06,0.866,0.06h0.438V69.621z M4.964,70.687c-0.379,0.767-0.718,1.255-1.306,1.913
			c-0.039-0.05-0.069-0.08-0.079-0.11c-0.149-0.179-0.189-0.209-0.398-0.338c0.688-0.698,1.046-1.236,1.414-2.123
			c0.25-0.598,0.409-1.116,0.459-1.515l0.688,0.18c-0.04,0.1-0.06,0.149-0.12,0.339c-0.109,0.338-0.239,0.677-0.389,1.056h2.97
			c0.718-0.02,0.718-0.02,0.896-0.04c-0.029,0.199-0.04,0.378-0.04,0.787c0,2.182-0.089,3.717-0.278,4.853
			c-0.159,0.887-0.339,1.335-0.598,1.515c-0.17,0.109-0.438,0.159-0.857,0.159c-0.289,0-0.607-0.02-1.166-0.08
			c-0.02-0.249-0.06-0.409-0.179-0.698c0.548,0.11,1.076,0.169,1.425,0.169c0.378,0,0.518-0.139,0.647-0.647
			c0.249-0.997,0.358-2.491,0.368-5.42H4.964z M7.724,74.214c-1.076,0.647-1.634,0.927-3.179,1.594
			c-0.119,0.05-0.179,0.08-0.259,0.129l-0.259-0.697c0.189-0.04,0.368-0.09,0.578-0.169c1.136-0.418,2.013-0.847,3.009-1.485
			L7.724,74.214z M4.536,72.152c0.26,0.05,0.438,0.06,0.867,0.06h1.195c0.409,0,0.628-0.02,0.827-0.06v0.667
			c-0.209-0.03-0.458-0.04-0.817-0.04H5.393c-0.398,0-0.618,0.01-0.857,0.06V72.152z"/>
	</g>
</g>
<g>
	<g>
		<path stroke="#000000" stroke-width="0.2846" stroke-miterlimit="10" d="M2.454,84.263c-0.498,0.827-0.897,1.306-1.564,1.923
			c-0.07-0.149-0.209-0.269-0.469-0.438c0.857-0.717,1.445-1.504,1.903-2.521c0.109-0.239,0.159-0.389,0.189-0.588l0.707,0.16
			c-0.069,0.12-0.079,0.139-0.169,0.349c-0.09,0.179-0.13,0.269-0.279,0.538h4.902c0.578,0,0.917-0.02,1.256-0.07v0.717
			c-0.239-0.05-0.647-0.07-1.256-0.07H2.454z M6.28,91.407c-0.618-0.638-1.057-1.036-1.943-1.734
			C3.4,90.54,2.693,91.009,1.218,91.706c-0.149-0.249-0.239-0.359-0.479-0.548c1.425-0.598,2.242-1.086,3.089-1.863
			c-0.598-0.438-0.986-0.688-1.903-1.226l0.429-0.399c0.807,0.458,1.235,0.728,1.903,1.206c0.577-0.598,0.976-1.156,1.115-1.544
			l0.638,0.369c-0.04,0.05-0.04,0.05-0.14,0.169c-0.05,0.069-0.05,0.069-0.249,0.338c-0.259,0.359-0.548,0.708-0.856,1.037
			c0.737,0.548,1.275,1.006,1.973,1.644L6.28,91.407z M2.055,87.083c-0.438,0-0.737,0.02-1.026,0.06v-0.678
			c0.269,0.04,0.538,0.06,0.927,0.06h4.772c0.588,0,0.817-0.01,1.126-0.05c-0.03,0.299-0.04,0.528-0.04,0.847
			c0,1.216,0.13,2.222,0.369,2.899c0.139,0.399,0.389,0.788,0.498,0.788c0.14,0,0.299-0.748,0.358-1.664
			c0.209,0.209,0.319,0.289,0.548,0.389c-0.079,0.688-0.14,0.986-0.269,1.365c-0.13,0.418-0.349,0.648-0.598,0.648
			c-0.389,0-0.877-0.588-1.146-1.395c-0.249-0.748-0.358-1.684-0.379-3.269H2.055z M2.224,85.06c0.189,0.04,0.458,0.05,0.867,0.05
			h4.035c0.479,0,0.768-0.02,0.977-0.06v0.677c-0.27-0.05-0.508-0.06-0.977-0.06H3.151c-0.408,0-0.678,0.01-0.927,0.05V85.06z"/>
	</g>
</g>
<g>
	<g>
		<path stroke="#000000" stroke-width="0.2846" stroke-miterlimit="10" d="M0.83,99.628c0.617,0.37,1.105,0.737,1.693,1.256
			l-0.398,0.547c-0.598-0.607-0.996-0.926-1.664-1.334L0.83,99.628z M2.653,102.806c-0.498,1.275-0.777,1.844-1.346,2.811
			c-0.079,0.119-0.129,0.209-0.199,0.348l-0.588-0.518c0.528-0.527,1.087-1.594,1.604-3.02L2.653,102.806z M1.328,97.217
			c0.657,0.448,1.036,0.757,1.604,1.315L2.523,99.04c-0.528-0.578-0.927-0.926-1.594-1.375L1.328,97.217z M9.02,105.138
			c0.278,0,0.418-0.01,0.627-0.049v0.646c-0.139-0.02-0.238-0.039-0.328-0.039c-0.18,0-0.398-0.01-0.647-0.021H3.25
			c-0.329,0-0.678,0.021-0.977,0.061v-0.646c0.229,0.039,0.438,0.049,0.678,0.049h0.279l-0.011-2.391c0-0.34-0.01-0.52-0.029-0.787
			C3.45,101.99,3.659,102,4.107,102h3.856c0.479,0,0.668-0.01,0.917-0.039c-0.04,0.367-0.04,0.457-0.04,0.746v2.432H9.02z
			 M4.486,101.062c-0.349,0-0.667,0.012-0.927,0.031c0.021-0.25,0.03-0.508,0.03-0.848v-1.962c0-0.339-0.01-0.578-0.03-0.837
			c0.229,0.03,0.498,0.04,0.947,0.04h2.989c0.468,0,0.747-0.01,0.956-0.04c-0.03,0.309-0.04,0.499-0.04,0.817v2.012
			c0,0.311,0.01,0.51,0.04,0.818c-0.249-0.02-0.558-0.031-0.927-0.031H4.486z M3.819,105.138h1.086v-2.611H3.819V105.138z
			 M4.187,98.99h3.627v-0.966H4.187V98.99z M4.187,100.544h3.627v-1.026H4.187V100.544z M5.472,105.138h1.097v-2.611H5.472V105.138z
			 M7.136,105.138h1.116v-2.611H7.136V105.138z"/>
	</g>
</g>
<g>
	<g>
		<path stroke="#000000" stroke-width="0.2846" stroke-miterlimit="10" d="M1.011,116.376c0.856-0.748,1.335-1.057,2.143-1.387
			c0.797-0.328,1.574-0.477,2.44-0.477c0.877,0,1.654,0.148,2.451,0.477c0.808,0.33,1.286,0.639,2.143,1.387v0.887
			c-0.837-0.838-1.295-1.166-2.053-1.516c-0.797-0.359-1.624-0.537-2.541-0.537c-0.906,0-1.733,0.178-2.53,0.537
			c-0.758,0.35-1.216,0.678-2.053,1.516V116.376z"/>
	</g>
</g>
<g>
	<g>
		<path stroke="#000000" stroke-width="0.2846" stroke-miterlimit="10" d="M2.383,122.605c0,0.629-0.498,1.127-1.115,1.127
			c-0.628,0-1.126-0.498-1.126-1.127c0-0.617,0.498-1.115,1.126-1.115C1.885,121.49,2.383,121.988,2.383,122.605z M0.59,122.605
			c0,0.379,0.299,0.678,0.678,0.678c0.368,0,0.667-0.299,0.667-0.678c0-0.367-0.299-0.668-0.667-0.668
			C0.889,121.937,0.59,122.238,0.59,122.605z M8.461,124.589c-0.149-0.43-0.249-0.639-0.458-0.877
			c-0.398-0.469-1.007-0.719-1.733-0.719c-1.614,0-2.631,1.236-2.631,3.219c0,1.973,1.026,3.229,2.631,3.229
			c0.797,0,1.464-0.299,1.863-0.838c0.219-0.289,0.318-0.537,0.408-0.986l0.827,0.189c-0.18,0.588-0.31,0.867-0.538,1.186
			c-0.559,0.748-1.475,1.156-2.591,1.156c-0.957,0-1.764-0.299-2.332-0.877c-0.697-0.697-1.076-1.783-1.076-3.029
			c0-1.285,0.399-2.371,1.137-3.098c0.577-0.559,1.345-0.848,2.291-0.848c0.927,0,1.685,0.27,2.232,0.807
			c0.349,0.34,0.538,0.639,0.777,1.256L8.461,124.589z"/>
	</g>
</g>
<g>
	<g>
		<path stroke="#000000" stroke-width="0.2846" stroke-miterlimit="10" d="M1.011,132.775c0.837,0.836,1.295,1.166,2.053,1.514
			c0.797,0.359,1.634,0.539,2.53,0.539c0.907,0,1.744-0.18,2.541-0.539c0.758-0.348,1.216-0.678,2.053-1.514v0.887
			c-0.856,0.746-1.335,1.057-2.143,1.385c-0.797,0.328-1.584,0.479-2.451,0.479c-0.856,0-1.644-0.15-2.44-0.479
			c-0.808-0.328-1.286-0.639-2.143-1.385V132.775z"/>
	</g>
</g>
<g>
	<g>
		<path stroke="#000000" stroke-width="0.2846" stroke-miterlimit="10" d="M85.278,185.066c-0.438,0-0.737,0.02-1.046,0.061v-0.719
			c0.288,0.041,0.598,0.061,1.056,0.061h5.969c0.458,0,0.757-0.02,1.056-0.061v0.719c-0.309-0.041-0.607-0.061-1.046-0.061h-2.721
			v3.697h3.1c0.488,0,0.807-0.021,1.065-0.07v0.748c-0.259-0.051-0.567-0.07-1.086-0.07h-3.079v2.75c0,0.369,0.021,0.736,0.07,1.086
			h-0.817c0.05-0.359,0.07-0.707,0.07-1.086v-2.75h-2.97c-0.508,0-0.827,0.02-1.096,0.07v-0.748c0.278,0.049,0.578,0.07,1.086,0.07
			h2.979v-3.697H85.278z M85.437,185.544c0.558,0.848,0.857,1.424,1.285,2.432l-0.628,0.318c-0.398-1.066-0.688-1.654-1.226-2.48
			L85.437,185.544z M91.615,185.824c-0.429,1.096-0.737,1.654-1.415,2.59l-0.598-0.299c0.688-0.867,0.996-1.436,1.405-2.58
			L91.615,185.824z"/>
		<path stroke="#000000" stroke-width="0.2846" stroke-miterlimit="10" d="M95.257,185.175c0-0.408-0.02-0.658-0.06-0.967h0.747
			c-0.05,0.299-0.06,0.539-0.06,0.947v1.674h0.22c0.398,0,0.598-0.01,0.787-0.051v0.658c-0.22-0.029-0.438-0.039-0.798-0.039h-0.209
			v2.959c0.458-0.209,0.658-0.318,1.206-0.627l0.029,0.627c-0.906,0.498-1.335,0.697-2.551,1.176
			c-0.179,0.07-0.358,0.139-0.498,0.199l-0.189-0.658c0.26-0.039,0.718-0.189,1.375-0.447v-3.229h-0.438
			c-0.418,0-0.617,0.01-0.866,0.059v-0.688c0.249,0.051,0.448,0.061,0.866,0.061h0.438V185.175z M98.476,186.242
			c-0.379,0.768-0.718,1.256-1.306,1.912c-0.039-0.049-0.069-0.078-0.079-0.109c-0.149-0.178-0.189-0.209-0.398-0.338
			c0.688-0.697,1.046-1.236,1.414-2.123c0.25-0.598,0.409-1.115,0.459-1.514l0.688,0.18c-0.04,0.1-0.06,0.148-0.12,0.338
			c-0.109,0.34-0.239,0.678-0.389,1.057h2.97c0.718-0.02,0.718-0.02,0.896-0.041c-0.029,0.201-0.04,0.379-0.04,0.789
			c0,2.182-0.089,3.715-0.278,4.852c-0.159,0.887-0.339,1.336-0.598,1.514c-0.17,0.111-0.438,0.16-0.857,0.16
			c-0.289,0-0.607-0.02-1.166-0.08c-0.02-0.248-0.06-0.408-0.179-0.697c0.548,0.109,1.076,0.17,1.425,0.17
			c0.378,0,0.518-0.141,0.647-0.648c0.249-0.996,0.358-2.49,0.368-5.42H98.476z M101.236,189.769
			c-1.076,0.648-1.634,0.926-3.179,1.594c-0.119,0.051-0.179,0.08-0.259,0.131l-0.259-0.699c0.189-0.039,0.368-0.09,0.578-0.168
			c1.136-0.42,2.013-0.848,3.009-1.484L101.236,189.769z M98.047,187.707c0.26,0.049,0.438,0.061,0.867,0.061h1.195
			c0.409,0,0.628-0.021,0.827-0.061v0.668c-0.209-0.031-0.458-0.041-0.817-0.041h-1.215c-0.398,0-0.618,0.01-0.857,0.061V187.707z"
			/>
		<path stroke="#000000" stroke-width="0.2846" stroke-miterlimit="10" d="M107.58,184.777c-0.061,0.109-0.061,0.109-0.379,0.797
			c-0.239,0.549-0.508,1.057-0.867,1.654c0.429,0.527,0.598,0.816,0.758,1.236c0.14,0.377,0.209,0.727,0.209,1.096
			c0,0.479-0.149,0.846-0.408,1.006c-0.16,0.1-0.429,0.15-0.817,0.15c-0.109,0-0.279-0.012-0.479-0.021
			c-0.029-0.299-0.05-0.408-0.129-0.607c0.269,0.051,0.388,0.061,0.617,0.061c0.498,0,0.598-0.119,0.598-0.738
			c0-0.428-0.159-0.945-0.438-1.395c-0.129-0.219-0.269-0.398-0.577-0.727c0.548-0.877,0.807-1.406,1.126-2.303h-1.555v7.184
			c0,0.369,0.02,0.668,0.05,0.928h-0.728c0.04-0.289,0.06-0.568,0.06-0.928v-7.014c0-0.27-0.01-0.498-0.029-0.758
			c0.14,0.02,0.209,0.031,0.289,0.031h1.753c0.31,0,0.469-0.012,0.618-0.041L107.58,184.777z M108.396,189.531
			c-0.349,0-0.527,0.01-0.757,0.049v-0.648c0.219,0.041,0.408,0.051,0.797,0.051h2.083v-0.18c0-0.26-0.011-0.488-0.05-0.768h0.688
			c-0.04,0.26-0.05,0.479-0.05,0.768v0.18h0.856c0.429,0,0.607-0.01,0.856-0.051v0.648c-0.259-0.039-0.458-0.049-0.856-0.049h-0.856
			v1.363h1.285c0.418,0,0.617-0.01,0.866-0.049v0.648c-0.269-0.041-0.498-0.051-0.906-0.051h-1.245v0.857
			c0,0.357,0.02,0.588,0.06,0.855h-0.708c0.04-0.268,0.061-0.508,0.061-0.855v-0.857h-2.541c-0.409,0-0.658,0.01-0.917,0.051v-0.648
			c0.239,0.039,0.398,0.049,0.768,0.049h0.567V189.531z M111.395,184.806c0.339,0,0.509-0.01,0.708-0.039l0.349,0.359
			c-0.688,0.906-0.977,1.215-1.674,1.783c0.757,0.488,1.534,0.797,2.62,1.045c-0.14,0.189-0.199,0.311-0.299,0.559
			c-1.155-0.328-1.963-0.688-2.78-1.256c-0.826,0.578-1.494,0.908-2.77,1.355c-0.119-0.238-0.229-0.389-0.368-0.537
			c1.136-0.32,1.893-0.658,2.67-1.166c-0.398-0.33-0.618-0.559-1.076-1.105c-0.398,0.418-0.688,0.646-1.256,1.035
			c-0.129-0.189-0.219-0.299-0.418-0.447c0.946-0.549,1.544-1.127,2.032-1.924c0.13-0.199,0.199-0.35,0.279-0.539l0.638,0.17
			c-0.219,0.359-0.279,0.469-0.448,0.707H111.395z M110.519,190.894v-1.363h-1.525v1.363H110.519z M109.154,185.394
			c0.438,0.559,0.678,0.809,1.155,1.186c0.538-0.428,0.798-0.688,1.256-1.244h-2.361L109.154,185.394z"/>
		<path stroke="#000000" stroke-width="0.2846" stroke-miterlimit="10" d="M118.027,186.958c-0.08,0.199-0.09,0.24-0.21,0.619
			c-0.538,1.803-1.554,3.307-2.969,4.393c-0.189-0.229-0.299-0.318-0.558-0.498c0.647-0.428,1.136-0.887,1.653-1.555
			c0.638-0.836,1.017-1.594,1.315-2.67h-1.644c-0.419,0-0.708,0.02-0.947,0.061v-0.729c0.249,0.041,0.498,0.051,0.967,0.051h1.066
			c0.527,0,0.757-0.01,0.946-0.039L118.027,186.958z M122.74,186.232c-0.13,0.129-0.13,0.129-0.279,0.309
			c-0.239,0.279-0.917,0.967-1.285,1.305c-0.279,0.25-0.279,0.25-0.847,0.697c0.349,0.52,0.747,1.008,1.176,1.426
			c0.598,0.588,1.126,0.977,1.942,1.395c-0.249,0.219-0.358,0.35-0.528,0.629c-0.816-0.488-1.514-1.086-2.142-1.824
			c-0.438-0.508-0.797-1.037-1.126-1.654c-0.239-0.447-0.339-0.688-0.528-1.266c0.06,0.867,0.08,1.416,0.08,1.943v2.949
			c0,0.629-0.199,0.797-0.907,0.797c-0.379,0-0.787-0.02-1.266-0.068c-0.02-0.289-0.06-0.43-0.159-0.688
			c0.559,0.1,0.946,0.139,1.335,0.139c0.279,0,0.339-0.051,0.339-0.289v-6.805c0-0.359-0.02-0.678-0.069-1.008h0.787
			c-0.06,0.32-0.08,0.639-0.08,0.998v0.688c0.13,0.707,0.359,1.305,0.837,2.131c1.126-0.945,1.784-1.664,2.103-2.291L122.74,186.232
			z"/>
		<path stroke="#000000" stroke-width="0.2846" stroke-miterlimit="10" d="M124.639,187.199c0.269,0.039,0.567,0.049,0.986,0.049
			h6.865c0.418,0,0.717-0.01,0.986-0.049v0.588c-0.26-0.041-0.479-0.051-0.977-0.051h-6.875c-0.488,0-0.728,0.01-0.986,0.051
			V187.199z M126.811,190.726c-0.408,0-0.668,0.01-0.957,0.039c0.03-0.27,0.03-0.379,0.03-0.807v-1.057
			c0-0.27-0.01-0.459-0.03-0.688c0.199,0.029,0.499,0.041,0.947,0.041h4.563c0.378,0,0.638-0.012,0.927-0.041
			c-0.021,0.189-0.03,0.379-0.03,0.658v1.096c0,0.359,0.01,0.637,0.03,0.797c-0.359-0.029-0.618-0.039-0.957-0.039h-2.032v0.566
			h2.63c0.409,0,0.608-0.01,0.837-0.049v0.568c-0.259-0.041-0.468-0.051-0.856-0.051h-2.61v0.588h3.158
			c0.458,0,0.718-0.01,1.017-0.059v0.598c-0.299-0.041-0.598-0.061-1.017-0.061h-6.806c-0.418,0-0.728,0.02-1.016,0.061v-0.598
			c0.299,0.049,0.558,0.059,1.016,0.059h3.069v-0.588h-2.441c-0.398,0-0.607,0.01-0.867,0.051v-0.568
			c0.22,0.039,0.438,0.049,0.848,0.049h2.461v-0.566H126.811z M126.662,186.75c-0.559,0-0.747,0.01-0.986,0.029
			c0.029-0.219,0.04-0.408,0.04-0.756v-0.906c0-0.301-0.011-0.488-0.04-0.719c0.289,0.031,0.558,0.041,0.986,0.041h4.822
			c0.438,0,0.688-0.01,0.967-0.041c-0.03,0.219-0.04,0.408-0.04,0.719v0.906c0,0.289,0.01,0.498,0.04,0.756
			c-0.249-0.02-0.419-0.029-0.996-0.029H126.662z M126.283,185.375h5.56v-0.488h-5.56V185.375z M126.283,186.312h5.55v-0.508h-5.55
			V186.312z M126.453,188.703v0.568h2.271v-0.568H126.453z M126.453,189.699v0.578h2.271v-0.578H126.453z M129.302,189.271h2.391
			v-0.568h-2.391V189.271z M129.302,190.277h2.391v-0.578h-2.391V190.277z"/>
		<path stroke="#000000" stroke-width="0.2846" stroke-miterlimit="10" d="M142.968,193.207c-0.747-0.857-1.056-1.336-1.385-2.143
			c-0.329-0.797-0.479-1.584-0.479-2.451s0.149-1.654,0.479-2.451c0.329-0.807,0.638-1.285,1.385-2.143h0.887
			c-0.837,0.848-1.165,1.297-1.514,2.063c-0.359,0.797-0.538,1.625-0.538,2.531s0.179,1.734,0.538,2.531
			c0.349,0.768,0.677,1.215,1.514,2.063H142.968z"/>
	</g>
</g>
<g>
	<g>
		<path stroke="#000000" stroke-width="0.2846" stroke-miterlimit="10" d="M145.185,192.339c0.05-0.359,0.07-0.658,0.07-1.125
			v-3.119c0-0.498-0.021-0.768-0.07-1.127h0.808v0.549c0,0.049-0.01,0.17-0.021,0.359c0.09-0.17,0.18-0.289,0.379-0.498
			c0.339-0.34,0.827-0.52,1.405-0.52c0.567,0,0.986,0.17,1.285,0.508c0.149,0.16,0.209,0.279,0.309,0.578
			c0.469-0.766,1.007-1.086,1.844-1.086c0.657,0,1.155,0.209,1.455,0.607c0.238,0.32,0.338,0.709,0.338,1.297v2.461
			c0,0.498,0.021,0.768,0.07,1.115h-0.896c0.06-0.369,0.069-0.598,0.069-1.125v-2.352c0-0.947-0.349-1.355-1.146-1.355
			c-0.498,0-0.967,0.27-1.256,0.727c-0.189,0.289-0.329,0.729-0.329,1.027v1.963c0,0.498,0.021,0.777,0.07,1.115h-0.896
			c0.05-0.359,0.069-0.617,0.069-1.125v-2.352c0-0.877-0.398-1.355-1.116-1.355c-0.518,0-0.996,0.279-1.305,0.758
			c-0.18,0.268-0.329,0.736-0.329,0.996v1.953c0,0.457,0.02,0.727,0.069,1.125H145.185z"/>
		<path stroke="#000000" stroke-width="0.2846" stroke-miterlimit="10" d="M154.777,192.339c0.05-0.359,0.07-0.658,0.07-1.125
			v-3.119c0-0.498-0.021-0.768-0.07-1.127h0.808v0.549c0,0.049-0.01,0.17-0.021,0.359c0.09-0.17,0.18-0.289,0.379-0.498
			c0.339-0.34,0.827-0.52,1.405-0.52c0.567,0,0.986,0.17,1.285,0.508c0.149,0.16,0.209,0.279,0.309,0.578
			c0.469-0.766,1.007-1.086,1.844-1.086c0.657,0,1.155,0.209,1.455,0.607c0.238,0.32,0.338,0.709,0.338,1.297v2.461
			c0,0.498,0.021,0.768,0.07,1.115h-0.896c0.06-0.369,0.069-0.598,0.069-1.125v-2.352c0-0.947-0.349-1.355-1.146-1.355
			c-0.498,0-0.967,0.27-1.256,0.727c-0.189,0.289-0.329,0.729-0.329,1.027v1.963c0,0.498,0.021,0.777,0.07,1.115h-0.896
			c0.05-0.359,0.069-0.617,0.069-1.125v-2.352c0-0.877-0.398-1.355-1.116-1.355c-0.518,0-0.996,0.279-1.305,0.758
			c-0.18,0.268-0.329,0.736-0.329,0.996v1.953c0,0.457,0.02,0.727,0.069,1.125H154.777z"/>
	</g>
</g>
<g>
	<g>
		<path stroke="#000000" stroke-width="0.2846" stroke-miterlimit="10" d="M164.06,193.207c0.837-0.838,1.165-1.295,1.515-2.063
			c0.358-0.797,0.538-1.625,0.538-2.531s-0.18-1.734-0.538-2.531c-0.35-0.766-0.678-1.225-1.515-2.063h0.887
			c0.747,0.857,1.056,1.336,1.385,2.143c0.329,0.797,0.479,1.584,0.479,2.451s-0.149,1.654-0.479,2.451
			c-0.329,0.807-0.638,1.285-1.385,2.143H164.06z"/>
	</g>
</g>
</svg>
