<?xml version="1.0" encoding="utf-8"?>
<!-- Generator: Adobe Illustrator 16.0.3, SVG Export Plug-In . SVG Version: 6.00 Build 0)  -->
<!DOCTYPE svg PUBLIC "-//W3C//DTD SVG 1.1//EN" "http://www.w3.org/Graphics/SVG/1.1/DTD/svg11.dtd">
<svg version="1.1" id="レイヤー_1" xmlns="http://www.w3.org/2000/svg" xmlns:xlink="http://www.w3.org/1999/xlink" x="0px"
	 y="0px" width="197.332px" height="176.861px" viewBox="0 0 197.332 176.861" enable-background="new 0 0 197.332 176.861"
	 xml:space="preserve">
<polygon fill="#E5B9D5" stroke="#000000" stroke-width="0.5" stroke-miterlimit="10" points="108.615,57.027 108.615,50.762 
	103.445,50.762 103.445,44.438 97.794,44.438 97.794,38.174 94.758,38.174 94.758,31.853 96.379,31.853 96.379,25.534 
	83.652,25.534 83.652,31.853 83.652,38.174 83.652,44.438 83.652,50.762 83.652,57.027 83.652,63.346 83.652,69.612 83.652,75.935 
	83.652,82.252 83.652,88.521 83.652,94.844 83.652,101.106 83.652,107.425 83.652,113.741 83.652,120.011 83.652,126.326 
	83.652,132.606 83.652,138.919 101.186,138.919 101.186,132.606 102.676,132.606 102.676,126.326 101.908,126.326 101.908,120.011 
	101.743,120.011 101.743,113.741 104.337,113.741 104.337,107.425 104.894,107.425 104.894,101.106 105.014,101.106 105.014,94.844 
	105.182,94.844 105.182,88.521 103.24,88.521 103.24,82.252 104.337,82.252 104.337,75.935 106.716,75.935 106.716,69.612 
	106.877,69.612 106.877,63.346 106.832,63.346 106.832,57.027 "/>
<polygon fill="#59C1E6" stroke="#000000" stroke-width="0.5" stroke-miterlimit="10" points="77.997,25.534 77.997,31.853 
	76.379,31.853 76.379,38.174 72.785,38.174 72.785,44.438 66.327,44.438 66.327,50.762 60.666,50.762 60.666,57.027 61.558,57.027 
	61.558,63.346 60.752,63.346 60.752,69.612 60.426,69.612 60.426,75.935 62.446,75.935 62.446,82.252 63.093,82.252 63.093,88.521 
	60.954,88.521 60.954,94.844 60.992,94.844 60.992,101.106 61.317,101.106 61.317,107.425 62.084,107.425 62.084,113.741 
	64.628,113.741 64.628,120.011 64.545,120.011 64.545,126.326 63.778,126.326 63.778,132.606 65.27,132.606 65.27,138.919 
	83.652,138.919 83.652,132.606 83.652,126.326 83.652,120.011 83.652,113.741 83.652,107.425 83.652,101.106 83.652,94.844 
	83.652,88.521 83.652,82.252 83.652,75.935 83.652,69.612 83.652,63.346 83.652,57.027 83.652,50.762 83.652,44.438 83.652,38.174 
	83.652,31.853 83.652,25.534 "/>
<g>
	<g>
		<g>
			<line fill="none" stroke="#4F4F4F" stroke-width="0.3" x1="12.029" y1="120.002" x2="14.529" y2="120.002"/>
			
				<line fill="none" stroke="#4F4F4F" stroke-width="0.3" stroke-dasharray="5.0502,2.0201" x1="16.549" y1="120.002" x2="149.875" y2="120.002"/>
			<line fill="none" stroke="#4F4F4F" stroke-width="0.3" x1="150.885" y1="120.002" x2="153.385" y2="120.002"/>
		</g>
		<g>
			<line fill="none" stroke="#4F4F4F" stroke-width="0.3" x1="12.029" y1="57.183" x2="14.529" y2="57.183"/>
			
				<line fill="none" stroke="#4F4F4F" stroke-width="0.3" stroke-dasharray="5.0502,2.0201" x1="16.549" y1="57.183" x2="149.875" y2="57.183"/>
			<line fill="none" stroke="#4F4F4F" stroke-width="0.3" x1="150.885" y1="57.183" x2="153.385" y2="57.183"/>
		</g>
	</g>
</g>
<line fill="none" stroke="#000000" stroke-width="0.3" x1="83.583" y1="138.919" x2="83.583" y2="25.417"/>
<line fill="none" stroke="#000000" stroke-width="0.5" x1="12.029" y1="25.417" x2="15.572" y2="25.417"/>
<line fill="none" stroke="#000000" stroke-width="0.5" x1="12.029" y1="38.029" x2="15.572" y2="38.029"/>
<line fill="none" stroke="#000000" stroke-width="0.5" x1="12.029" y1="50.64" x2="15.572" y2="50.64"/>
<line fill="none" stroke="#000000" stroke-width="0.5" x1="12.029" y1="63.252" x2="15.572" y2="63.252"/>
<line fill="none" stroke="#000000" stroke-width="0.5" x1="12.029" y1="75.863" x2="15.572" y2="75.863"/>
<line fill="none" stroke="#000000" stroke-width="0.5" x1="12.029" y1="88.475" x2="15.572" y2="88.475"/>
<line fill="none" stroke="#000000" stroke-width="0.5" x1="12.029" y1="101.085" x2="15.572" y2="101.085"/>
<line fill="none" stroke="#000000" stroke-width="0.5" x1="12.029" y1="113.699" x2="15.572" y2="113.699"/>
<line fill="none" stroke="#000000" stroke-width="0.5" x1="12.029" y1="126.309" x2="15.572" y2="126.309"/>
<polyline fill="none" stroke="#000000" stroke-width="0.5" points="12.029,25.417 12.029,138.92 153.385,138.92 "/>
<g>
	<path d="M1.041,32.727c-0.411-0.63-0.581-0.97-0.75-1.479C0.1,30.674,0,30.064,0,29.406s0.1-1.268,0.291-1.841
		c0.17-0.503,0.34-0.843,0.75-1.473l0.446,0.283c-0.396,0.609-0.553,0.928-0.708,1.43c-0.163,0.51-0.241,1.041-0.241,1.6
		s0.078,1.098,0.241,1.607c0.155,0.502,0.312,0.821,0.708,1.43L1.041,32.727z"/>
	<path d="M7.31,28.033c-0.135-0.191-0.177-0.248-0.312-0.396l0.325-0.121c0.142,0.156,0.241,0.298,0.39,0.517
		c0.29-0.007,0.34-0.007,0.524-0.036v0.446c-0.184-0.028-0.354-0.035-0.644-0.035H6.523c0.057,0.68,0.163,1.274,0.333,1.763
		c0.325-0.503,0.58-1.098,0.63-1.494l0.446,0.177c-0.05,0.092-0.071,0.142-0.128,0.283c-0.205,0.559-0.438,0.991-0.778,1.465
		c0.24,0.503,0.446,0.793,0.736,1.013l0.057,0.035h0.014c0.135-0.17,0.213-0.481,0.262-1.104c0.127,0.142,0.227,0.213,0.389,0.283
		c-0.155,0.984-0.297,1.268-0.63,1.268c-0.34,0-0.743-0.411-1.111-1.133c-0.46,0.524-0.885,0.878-1.466,1.204
		c-0.071-0.113-0.163-0.212-0.297-0.333c0.666-0.333,1.133-0.708,1.586-1.261c-0.255-0.644-0.382-1.239-0.46-2.166H3.019v0.481
		c-0.014,1.55-0.205,2.4-0.736,3.2c-0.106-0.135-0.191-0.213-0.347-0.326c0.488-0.693,0.666-1.486,0.666-3.016
		c0-0.375-0.007-0.517-0.028-0.751c0.262,0.028,0.432,0.036,0.694,0.036h2.811c-0.007-0.134-0.007-0.134-0.021-0.559H2.884
		c-0.283,0-0.474,0.014-0.672,0.042v-0.474c0.191,0.028,0.382,0.042,0.68,0.042h0.595v-0.496c0-0.241-0.015-0.411-0.043-0.595H3.96
		c-0.036,0.198-0.042,0.347-0.042,0.602v0.488h1.211v-0.793c0-0.233-0.015-0.403-0.043-0.588h0.503
		c-0.021,0.163-0.028,0.262-0.035,0.503h1.635c0.269,0,0.425-0.007,0.616-0.042v0.446c-0.177-0.028-0.325-0.035-0.616-0.035H5.554
		v0.51H7.67c0.297,0,0.474-0.014,0.672-0.042v0.474c-0.198-0.028-0.396-0.042-0.68-0.042H6.481c0.014,0.432,0.014,0.432,0.021,0.559
		H7.31z M4.031,29.874c-0.177,0.715-0.34,1.09-0.701,1.607c-0.092-0.085-0.219-0.163-0.347-0.233c0.375-0.46,0.538-0.835,0.68-1.529
		L4.031,29.874z M3.896,29.328c-0.255,0-0.396,0.007-0.559,0.036v-0.432c0.156,0.028,0.291,0.036,0.559,0.036h1.459
		c0.227,0,0.361-0.007,0.538-0.036v0.432c-0.142-0.028-0.276-0.036-0.531-0.036H4.874v1.912c0,0.389-0.135,0.51-0.574,0.51
		c-0.099,0-0.283-0.007-0.474-0.028c-0.015-0.163-0.043-0.27-0.085-0.418c0.177,0.042,0.361,0.063,0.517,0.063
		s0.205-0.035,0.205-0.148v-1.891H3.896z M5.539,29.718c0.213,0.418,0.333,0.694,0.468,1.069l-0.354,0.17
		c-0.155-0.481-0.262-0.744-0.453-1.104L5.539,29.718z"/>
	<path d="M9.426,26.093c0.41,0.63,0.58,0.97,0.75,1.473c0.198,0.573,0.291,1.183,0.291,1.841c0,0.666-0.092,1.268-0.291,1.841
		c-0.17,0.51-0.34,0.85-0.75,1.479l-0.446-0.283c0.396-0.608,0.552-0.927,0.708-1.43c0.163-0.51,0.241-1.041,0.241-1.607
		s-0.078-1.09-0.241-1.6c-0.156-0.502-0.312-0.821-0.708-1.43L9.426,26.093z"/>
</g>
<g>
	<path d="M52.967,72.96c-0.233,0.595-0.51,0.97-0.963,1.31c-0.475,0.354-0.998,0.581-1.869,0.807
		c-0.063-0.149-0.12-0.241-0.276-0.417c0.914-0.198,1.431-0.396,1.891-0.729c0.361-0.262,0.566-0.531,0.75-0.97h-1.565
		c-0.325,0-0.545,0.014-0.771,0.042v-0.474c0.198,0.028,0.446,0.042,0.771,0.042h1.699c0.057-0.241,0.078-0.361,0.078-0.552
		c0-0.007,0-0.028-0.007-0.057l0.523,0.028c-0.028,0.106-0.035,0.156-0.078,0.34c-0.021,0.106-0.036,0.142-0.057,0.241h1.912
		c0.255,0,0.432-0.007,0.722-0.028c-0.014,0.113-0.014,0.113-0.042,0.368c-0.092,0.941-0.212,1.522-0.347,1.734
		c-0.149,0.234-0.34,0.291-0.928,0.291c-0.283,0-0.517-0.014-0.963-0.057c-0.021-0.17-0.05-0.276-0.12-0.474
		c0.446,0.078,0.771,0.106,1.125,0.106s0.453-0.036,0.524-0.184c0.092-0.198,0.156-0.566,0.233-1.366H52.967z M55.473,71.189
		c0,0.298,0.007,0.446,0.028,0.651c-0.191-0.021-0.404-0.035-0.651-0.035h-3.576c-0.255,0-0.481,0.014-0.68,0.035
		c0.021-0.198,0.036-0.361,0.036-0.651v-1.55c0-0.312-0.007-0.489-0.036-0.68c0.198,0.028,0.396,0.036,0.673,0.036h3.562
		c0.276,0,0.474-0.007,0.672-0.036c-0.021,0.198-0.028,0.361-0.028,0.68V71.189z M51.069,69.37v0.85h1.728v-0.85H51.069z
		 M51.069,70.588v0.85h1.728v-0.85H51.069z M55.034,70.22v-0.85h-1.819v0.85H55.034z M55.034,71.438v-0.85h-1.819v0.85H55.034z"/>
</g>
<g>
	<path d="M117.434,75.056c-0.836-0.623-1.367-0.963-2.23-1.423c-0.39,0.347-0.814,0.616-1.331,0.85
		c-0.475,0.212-1.005,0.368-1.869,0.545c-0.092-0.234-0.12-0.283-0.255-0.453c1.423-0.22,2.259-0.545,3.016-1.168
		c-0.602-0.297-0.658-0.319-1.691-0.722c-0.113,0.163-0.142,0.205-0.276,0.375c-0.177-0.099-0.262-0.142-0.46-0.227
		c0.51-0.595,0.963-1.31,1.324-2.074h-1.183c-0.312,0-0.524,0.014-0.736,0.042V70.27c0.205,0.035,0.453,0.049,0.736,0.049h1.373
		c0.29-0.701,0.433-1.147,0.51-1.607l0.56,0.106c-0.12,0.312-0.184,0.481-0.191,0.502c-0.198,0.574-0.255,0.715-0.368,0.999h2.945
		c0.29,0,0.524-0.014,0.736-0.049V70.8c-0.205-0.028-0.432-0.042-0.729-0.042h-0.573c-0.17,0.722-0.269,1.026-0.46,1.423
		c-0.184,0.396-0.439,0.772-0.743,1.119c0.856,0.446,1.353,0.743,2.229,1.352L117.434,75.056z M114.17,70.758
		c-0.263,0.581-0.531,1.062-0.857,1.564c0.864,0.333,1.225,0.481,1.799,0.765c0.255-0.276,0.538-0.68,0.722-1.055
		c0.177-0.368,0.27-0.645,0.418-1.274H114.17z"/>
</g>
<g>
	<path d="M157.439,88.235c-0.304,0.623-0.573,1.048-0.97,1.515c-0.142-0.142-0.227-0.205-0.403-0.297
		c0.566-0.609,0.97-1.295,1.268-2.173c0.105-0.305,0.148-0.468,0.155-0.666l0.531,0.142c-0.05,0.1-0.085,0.206-0.142,0.375
		c-0.021,0.064-0.106,0.297-0.255,0.687h1.487v-0.751c0-0.283-0.015-0.488-0.05-0.75h0.573c-0.035,0.233-0.05,0.453-0.05,0.75v0.751
		h1.742c0.318,0,0.566-0.015,0.807-0.043v0.503c-0.262-0.028-0.488-0.042-0.8-0.042h-1.749v1.522h1.431
		c0.354,0,0.573-0.014,0.758-0.042v0.495c-0.206-0.028-0.426-0.042-0.758-0.042h-1.431v1.854h1.976c0.361,0,0.595-0.014,0.836-0.049
		v0.517c-0.27-0.036-0.482-0.05-0.829-0.05h-4.552c-0.34,0-0.581,0.014-0.836,0.05v-0.517c0.248,0.036,0.475,0.049,0.828,0.049
		h2.104v-1.854h-1.296c-0.326,0-0.553,0.014-0.751,0.042v-0.495c0.191,0.028,0.396,0.042,0.751,0.042h1.296v-1.522H157.439z"/>
	<path d="M166.204,86.755c0-0.163-0.014-0.312-0.042-0.481h0.545c-0.028,0.156-0.043,0.312-0.043,0.481v0.156h1.891
		c0.361,0,0.574-0.015,0.751-0.043v0.46c-0.227-0.021-0.418-0.028-0.736-0.028h-0.63c-0.149,0.34-0.27,0.587-0.418,0.85h1.055
		c0.41,0,0.623-0.007,0.821-0.042v0.467c-0.205-0.028-0.418-0.036-0.821-0.036h-4.418c-0.007,2.28-0.198,3.25-0.793,4.114
		c-0.127-0.177-0.177-0.234-0.347-0.361c0.247-0.354,0.382-0.659,0.481-1.063c0.135-0.517,0.212-1.345,0.212-2.194
		c0-0.375-0.007-0.723-0.028-0.928c0.262,0.035,0.461,0.042,0.814,0.042h0.8c-0.092-0.312-0.19-0.552-0.34-0.85h-0.637
		c-0.305,0-0.481,0.007-0.694,0.028v-0.46c0.163,0.028,0.368,0.043,0.708,0.043h1.869V86.755z M165.263,89.792
		c-0.205,0.404-0.403,0.694-0.729,1.083c-0.127-0.142-0.198-0.198-0.347-0.291c0.382-0.389,0.573-0.659,0.786-1.125
		c0.135-0.283,0.205-0.481,0.255-0.736l0.46,0.106c-0.05,0.106-0.127,0.297-0.248,0.574h1.104v-0.142
		c0-0.255-0.007-0.383-0.035-0.545h0.503c-0.028,0.17-0.035,0.291-0.035,0.545v0.142h1.408c0.354,0,0.538-0.015,0.701-0.043v0.46
		c-0.191-0.021-0.403-0.028-0.701-0.028h-1.408v0.864h1.175c0.318,0,0.475-0.007,0.645-0.035v0.446
		c-0.206-0.021-0.361-0.028-0.645-0.028h-1.175v1.034h1.826c0.312,0,0.503-0.007,0.658-0.035v0.474
		c-0.198-0.028-0.403-0.042-0.665-0.042h-4.036c-0.248,0-0.445,0.014-0.651,0.042v-0.474c0.17,0.028,0.354,0.035,0.645,0.035h1.791
		v-1.034h-0.87c-0.27,0-0.468,0.007-0.659,0.028v-0.439c0.156,0.021,0.326,0.028,0.659,0.028h0.87v-0.864H165.263z M167.061,88.15
		c0.199-0.361,0.276-0.531,0.396-0.85h-2.031c0.135,0.276,0.219,0.481,0.34,0.85H167.061z"/>
	<path d="M171.527,89.099c0-0.156-0.007-0.276-0.021-0.418c0.148,0.015,0.304,0.021,0.503,0.021h1.536v-1.154h-1.664
		c-0.361,0.602-0.701,1.02-1.175,1.444c-0.113-0.163-0.185-0.233-0.34-0.34c0.7-0.595,1.083-1.111,1.416-1.904
		c0.092-0.205,0.141-0.368,0.177-0.517l0.503,0.142c-0.029,0.057-0.05,0.106-0.093,0.191l-0.269,0.574h3.512
		c0.312,0,0.46-0.007,0.637-0.036v0.481c-0.177-0.028-0.347-0.036-0.637-0.036h-1.601v1.154h1.282c0.29,0,0.445-0.007,0.63-0.035
		v0.467c-0.185-0.021-0.354-0.028-0.623-0.028h-1.289v1.388h1.784c0.318,0,0.518-0.014,0.715-0.042v0.51
		c-0.205-0.028-0.424-0.043-0.715-0.043h-1.784v1.168c0,0.304,0.015,0.474,0.05,0.659h-0.56c0.036-0.178,0.043-0.333,0.043-0.659
		v-1.168h-2.556c-0.291,0-0.51,0.015-0.716,0.043v-0.51c0.206,0.028,0.403,0.042,0.716,0.042h0.537V89.099z M173.546,90.493v-1.388
		h-1.558v1.388H173.546z"/>
	<path d="M180.094,87.966c0.262,0,0.39-0.007,0.56-0.042v0.354c0.56-0.467,1.026-1.204,1.225-1.919h0.489
		c0.134,0.347,0.318,0.687,0.573,1.041c0.297,0.403,0.552,0.658,0.941,0.941c-0.12,0.163-0.155,0.22-0.248,0.404
		c-0.736-0.623-1.09-1.097-1.501-1.99c-0.191,0.51-0.318,0.765-0.566,1.126c-0.212,0.305-0.389,0.503-0.715,0.821
		c-0.1-0.17-0.163-0.262-0.262-0.347c-0.121-0.015-0.298-0.021-0.503-0.021h-2.024c-0.283,0-0.426,0.007-0.659,0.028v-0.439
		c0.185,0.036,0.29,0.042,0.566,0.042v-0.658c0-0.283-0.007-0.418-0.042-0.616h0.467c-0.028,0.198-0.035,0.305-0.035,0.616v0.658
		h0.658v-1.013c0-0.304-0.007-0.453-0.042-0.651h0.481c-0.035,0.191-0.043,0.319-0.043,0.595v0.064h0.518
		c0.275,0,0.403-0.007,0.58-0.042v0.411c-0.177-0.021-0.318-0.028-0.58-0.028h-0.518v0.666H180.094z M180.59,88.603
		c-0.021,0.198-0.028,0.389-0.028,0.68v2.598c0,0.404,0.007,0.566,0.028,0.8h-0.432v-0.291h-2.174v0.369h-0.446
		c0.028-0.234,0.035-0.411,0.035-0.807v-2.627c0-0.326-0.007-0.538-0.035-0.729h0.468c-0.021,0.198-0.036,0.432-0.036,0.701v2.726
		h2.202v-2.761c0-0.283-0.007-0.489-0.028-0.659H180.59z M179.669,89.807c0.17,0,0.255-0.007,0.354-0.021v0.354
		c-0.113-0.015-0.234-0.021-0.354-0.021h-0.333c0.191,0.418,0.453,0.75,0.822,1.076c-0.093,0.099-0.135,0.148-0.213,0.283
		c-0.333-0.361-0.523-0.645-0.736-1.076c0.021,0.403,0.028,0.56,0.028,0.821v0.227c0,0.198,0.007,0.262,0.028,0.403h-0.39
		c0.021-0.148,0.028-0.219,0.028-0.403v-0.22c0-0.276,0.008-0.389,0.028-0.814c-0.22,0.481-0.34,0.666-0.722,1.097
		c-0.071-0.127-0.113-0.184-0.22-0.283c0.354-0.312,0.581-0.616,0.808-1.111h-0.319c-0.12,0-0.24,0.007-0.354,0.021v-0.354
		c0.106,0.015,0.212,0.021,0.354,0.021h0.425v-0.658c0-0.248-0.007-0.425-0.028-0.623h0.383c-0.015,0.163-0.021,0.375-0.021,0.623
		v0.658H179.669z M178.409,88.631c0.155,0.326,0.24,0.524,0.333,0.842l-0.283,0.142c-0.086-0.34-0.156-0.517-0.333-0.842
		L178.409,88.631z M180.023,88.766c-0.135,0.39-0.205,0.553-0.354,0.85l-0.262-0.142c0.148-0.283,0.22-0.474,0.312-0.842
		L180.023,88.766z M181.496,89.792c-0.318,0-0.453,0.007-0.666,0.042v-0.467c0.185,0.028,0.312,0.036,0.694,0.036h1.26
		c0.368,0,0.56-0.007,0.694-0.028c-0.021,0.17-0.028,0.354-0.028,0.665v1.473c0,0.383-0.135,0.489-0.603,0.489
		c-0.049,0-0.212-0.007-0.367-0.014c-0.008-0.17-0.029-0.269-0.086-0.425c0.185,0.035,0.354,0.057,0.489,0.057
		c0.12,0,0.155-0.042,0.155-0.163v-1.664h-0.998v2.223c0,0.396,0.014,0.595,0.043,0.771h-0.51c0.035-0.197,0.042-0.375,0.042-0.771
		v-2.223H181.496z M181.291,88.348c0.162,0.021,0.24,0.021,0.58,0.021h0.566c0.333,0,0.41,0,0.56-0.021v0.411
		c-0.156-0.021-0.227-0.021-0.546-0.021h-0.594c-0.313,0-0.411,0.007-0.566,0.021V88.348z"/>
	<path d="M187.874,86.401c-0.021,0.12-0.035,0.403-0.035,0.63c0,0.418,0.071,1.14,0.155,1.536c0.121,0.566,0.503,1.402,0.914,1.982
		c0.283,0.396,0.665,0.8,1.048,1.119c0.227,0.191,0.41,0.312,0.821,0.552c-0.17,0.156-0.248,0.241-0.368,0.447
		c-0.864-0.588-1.374-1.083-1.876-1.813c-0.439-0.645-0.709-1.303-0.921-2.251c-0.128,0.672-0.248,1.055-0.488,1.579
		c-0.248,0.545-0.56,0.999-1.013,1.452c-0.396,0.411-0.687,0.644-1.303,1.034c-0.12-0.192-0.205-0.284-0.383-0.418
		c0.716-0.396,1.034-0.63,1.445-1.069c0.983-1.055,1.465-2.415,1.465-4.156c0-0.298-0.007-0.439-0.028-0.623H187.874z"/>
	<path d="M192.058,92.434c0.036-0.262,0.05-0.496,0.05-0.814v-3.922c0-0.319-0.007-0.51-0.035-0.75
		c0.248,0.028,0.425,0.035,0.758,0.035h3.724c0.333,0,0.517-0.007,0.765-0.035c-0.028,0.22-0.035,0.425-0.035,0.75v3.922
		c0,0.312,0.014,0.566,0.049,0.814h-0.53v-0.566h-4.213v0.566H192.058z M192.589,91.428h4.213v-4.007h-4.213V91.428z"/>
</g>
<g>
	<path d="M157.355,127.849c0-0.156-0.008-0.277-0.021-0.418c0.148,0.014,0.305,0.021,0.502,0.021h1.537v-1.154h-1.664
		c-0.361,0.602-0.701,1.02-1.176,1.443c-0.113-0.162-0.184-0.232-0.34-0.34c0.701-0.594,1.084-1.111,1.416-1.904
		c0.093-0.205,0.143-0.367,0.178-0.516l0.502,0.141c-0.027,0.057-0.049,0.106-0.092,0.191l-0.269,0.574h3.512
		c0.312,0,0.46-0.008,0.637-0.036v0.481c-0.177-0.028-0.347-0.035-0.637-0.035h-1.601v1.154h1.281c0.291,0,0.446-0.008,0.631-0.035
		v0.467c-0.185-0.021-0.354-0.029-0.623-0.029h-1.289v1.389h1.784c0.319,0,0.517-0.014,0.716-0.043v0.51
		c-0.206-0.027-0.426-0.043-0.716-0.043h-1.784v1.169c0,0.304,0.015,0.474,0.05,0.659h-0.56c0.035-0.178,0.043-0.334,0.043-0.659
		v-1.169h-2.557c-0.29,0-0.51,0.016-0.715,0.043v-0.51c0.205,0.029,0.404,0.043,0.715,0.043h0.539V127.849z M159.373,129.244v-1.389
		h-1.558v1.389H159.373z"/>
	<path d="M165.036,126.269c-0.042,0.107-0.085,0.199-0.163,0.412c-0.403,1.047-0.687,1.535-1.324,2.266
		c-0.17-0.186-0.233-0.242-0.41-0.348c0.523-0.518,0.856-1.006,1.154-1.713c0.12-0.283,0.198-0.524,0.255-0.801L165.036,126.269z
		 M168.598,128.401c-0.035,0.042-0.035,0.042-0.1,0.128c-0.028,0.042-0.028,0.042-0.191,0.275c-0.474,0.701-1.055,1.26-1.763,1.713
		c-0.729,0.453-1.522,0.744-2.739,0.999c-0.093-0.227-0.143-0.312-0.283-0.474c1.246-0.221,1.946-0.453,2.689-0.893
		c0.879-0.51,1.615-1.303,1.94-2.068L168.598,128.401z M166.664,125.066c-0.027,0.191-0.042,0.396-0.042,0.715v2.818
		c0,0.432-0.148,0.538-0.765,0.538c-0.198,0-0.467-0.015-0.743-0.036c-0.015-0.205-0.028-0.275-0.106-0.494
		c0.312,0.063,0.623,0.098,0.807,0.098c0.263,0,0.326-0.027,0.326-0.154v-2.77c0-0.361-0.014-0.545-0.043-0.715H166.664z
		 M168.145,126.05c0.078,0.27,0.205,0.538,0.403,0.857c0.305,0.48,0.608,0.813,1.118,1.217c-0.134,0.121-0.177,0.178-0.347,0.404
		c-0.36-0.334-0.637-0.623-0.878-0.957c-0.24-0.332-0.283-0.402-0.608-1.033c-0.093-0.17-0.106-0.191-0.156-0.275L168.145,126.05z"
		/>
	<path d="M173.701,125.152c-0.021,0.119-0.035,0.402-0.035,0.629c0,0.418,0.07,1.141,0.156,1.537
		c0.12,0.566,0.502,1.402,0.913,1.982c0.283,0.396,0.665,0.8,1.048,1.119c0.227,0.19,0.41,0.311,0.821,0.551
		c-0.17,0.156-0.248,0.242-0.368,0.447c-0.864-0.588-1.374-1.084-1.877-1.813c-0.438-0.645-0.707-1.303-0.92-2.252
		c-0.127,0.672-0.248,1.055-0.488,1.578c-0.248,0.546-0.56,0.999-1.013,1.452c-0.396,0.411-0.687,0.644-1.303,1.034
		c-0.12-0.191-0.205-0.283-0.382-0.418c0.715-0.396,1.033-0.631,1.443-1.069c0.984-1.056,1.466-2.415,1.466-4.155
		c0-0.299-0.007-0.439-0.028-0.623H173.701z"/>
	<path d="M177.885,131.183c0.035-0.262,0.05-0.496,0.05-0.814v-3.922c0-0.318-0.007-0.51-0.035-0.75
		c0.247,0.027,0.425,0.035,0.757,0.035h3.725c0.333,0,0.517-0.008,0.765-0.035c-0.028,0.219-0.035,0.424-0.035,0.75v3.922
		c0,0.313,0.014,0.566,0.05,0.814h-0.531v-0.566h-4.213v0.566H177.885z M178.416,130.177h4.213v-4.006h-4.213V130.177z"/>
</g>
<g>
	<path d="M156.959,49.384c-0.326,0-0.553,0.015-0.793,0.043v-0.496c0.184,0.028,0.403,0.043,0.793,0.043h1.77v-1.006h-1.196
		c-0.361,0-0.581,0.007-0.779,0.036v-0.481c0.17,0.028,0.39,0.042,0.779,0.042h1.196v-0.297c0-0.319-0.007-0.481-0.043-0.68h0.539
		c-0.029,0.184-0.043,0.361-0.043,0.687v0.29h0.771c0.375,0,0.581-0.014,0.765-0.042v0.481c-0.233-0.028-0.36-0.036-0.75-0.036
		h-0.786v1.006h0.531c0.871-0.68,1.593-1.452,1.841-1.982l0.453,0.283c-0.106,0.113-0.135,0.148-0.298,0.347
		c-0.368,0.446-0.835,0.906-1.366,1.353h1.239c0.368,0,0.566-0.015,0.758-0.043v0.496c-0.234-0.028-0.461-0.043-0.772-0.043h-1.749
		c-0.488,0.361-0.948,0.659-1.515,0.984v0.666c0.828-0.227,1.423-0.425,2.046-0.694c0.348-0.142,0.524-0.241,0.666-0.347
		l0.361,0.389c-0.036,0.014-0.036,0.014-0.1,0.042c-0.014,0.007-0.043,0.021-0.085,0.035c-0.298,0.135-0.545,0.241-0.991,0.404
		c-0.701,0.255-0.935,0.326-1.897,0.581v0.602c0,0.185,0.078,0.248,0.361,0.291c0.184,0.028,0.53,0.042,1.14,0.042
		c0.92,0,1.26-0.042,1.373-0.184c0.1-0.127,0.143-0.382,0.17-0.97c0.156,0.113,0.27,0.163,0.446,0.213
		c-0.127,1.345-0.17,1.366-2.229,1.366c-0.843,0-1.211-0.035-1.452-0.148c-0.198-0.085-0.262-0.22-0.262-0.538v-1.501
		c-0.517,0.262-0.935,0.446-1.544,0.687c-0.077-0.156-0.141-0.241-0.29-0.403c1.112-0.368,2.146-0.871,3.115-1.516H156.959z"/>
	<path d="M164.441,49.349c0-0.156-0.007-0.276-0.021-0.418c0.148,0.015,0.305,0.021,0.503,0.021h1.536v-1.154h-1.664
		c-0.36,0.602-0.7,1.02-1.175,1.444c-0.113-0.163-0.185-0.233-0.34-0.34c0.701-0.595,1.083-1.111,1.416-1.904
		c0.092-0.205,0.142-0.368,0.177-0.517l0.503,0.142c-0.028,0.057-0.05,0.106-0.092,0.191l-0.27,0.574h3.512
		c0.312,0,0.46-0.007,0.638-0.036v0.481c-0.178-0.028-0.348-0.036-0.638-0.036h-1.6v1.154h1.281c0.29,0,0.446-0.007,0.63-0.035
		v0.467c-0.184-0.021-0.354-0.028-0.623-0.028h-1.288v1.388h1.784c0.318,0,0.517-0.014,0.715-0.042v0.51
		c-0.205-0.028-0.425-0.043-0.715-0.043h-1.784v1.168c0,0.304,0.014,0.474,0.05,0.659h-0.56c0.035-0.177,0.042-0.333,0.042-0.659
		v-1.168h-2.556c-0.29,0-0.51,0.015-0.715,0.043v-0.51c0.205,0.028,0.403,0.042,0.715,0.042h0.538V49.349z M166.459,50.743v-1.388
		h-1.558v1.388H166.459z"/>
	<path d="M173.701,46.651c-0.021,0.12-0.035,0.403-0.035,0.63c0,0.418,0.07,1.14,0.156,1.536c0.12,0.566,0.502,1.402,0.913,1.982
		c0.283,0.396,0.665,0.8,1.048,1.119c0.227,0.191,0.41,0.312,0.821,0.552c-0.17,0.156-0.248,0.241-0.368,0.446
		c-0.864-0.588-1.374-1.083-1.877-1.813c-0.438-0.645-0.707-1.303-0.92-2.251c-0.127,0.672-0.248,1.055-0.488,1.579
		c-0.248,0.545-0.56,0.999-1.013,1.452c-0.396,0.411-0.687,0.644-1.303,1.034c-0.12-0.191-0.205-0.283-0.382-0.418
		c0.715-0.396,1.033-0.63,1.443-1.069c0.984-1.055,1.466-2.415,1.466-4.156c0-0.298-0.007-0.439-0.028-0.623H173.701z"/>
	<path d="M177.885,52.684c0.035-0.262,0.05-0.496,0.05-0.814v-3.922c0-0.319-0.007-0.51-0.035-0.75
		c0.247,0.028,0.425,0.035,0.757,0.035h3.725c0.333,0,0.517-0.007,0.765-0.035c-0.028,0.22-0.035,0.425-0.035,0.75v3.922
		c0,0.312,0.014,0.566,0.05,0.814h-0.531v-0.566h-4.213v0.566H177.885z M178.416,51.678h4.213v-4.007h-4.213V51.678z"/>
</g>
<g>
	<path d="M6.241,37.861c0.354,0.262,0.531,0.637,0.531,1.111c0,0.97-0.708,1.515-1.954,1.515c-1.295,0-2.011-0.538-2.011-1.515
		c0-0.51,0.206-0.899,0.63-1.175c0.219-0.142,0.375-0.198,0.637-0.241c-0.623-0.113-1.026-0.616-1.026-1.274
		c0-0.856,0.673-1.402,1.742-1.402c1.083,0,1.749,0.531,1.749,1.402c0,0.658-0.396,1.154-1.026,1.274
		C5.809,37.599,6.007,37.684,6.241,37.861z M3.388,38.938c0,0.672,0.517,1.069,1.395,1.069c0.496,0,0.899-0.127,1.14-0.368
		c0.177-0.163,0.269-0.411,0.269-0.701c0-0.694-0.531-1.112-1.402-1.112S3.388,38.25,3.388,38.938z M3.6,36.325
		c0,0.63,0.453,1.012,1.197,1.012c0.743,0,1.189-0.382,1.189-1.012c0-0.595-0.468-0.97-1.197-0.97
		C4.067,35.354,3.6,35.737,3.6,36.325z"/>
	<path d="M8.149,39.978c-0.191-0.191-0.34-0.411-0.425-0.651c-0.177-0.496-0.269-1.055-0.269-1.635c0-0.751,0.163-1.516,0.41-1.926
		c0.34-0.574,0.885-0.871,1.586-0.871c0.524,0,0.978,0.17,1.296,0.503c0.198,0.198,0.34,0.417,0.425,0.651
		c0.177,0.488,0.269,1.055,0.269,1.643c0,0.856-0.184,1.614-0.496,2.046c-0.354,0.496-0.85,0.743-1.501,0.743
		C8.921,40.48,8.482,40.311,8.149,39.978z M8.561,35.744c-0.149,0.163-0.262,0.34-0.319,0.517c-0.149,0.432-0.219,0.914-0.219,1.431
		c0,0.658,0.142,1.352,0.333,1.685c0.248,0.411,0.616,0.616,1.097,0.616c0.354,0,0.659-0.113,0.871-0.333
		c0.156-0.163,0.269-0.347,0.333-0.552c0.148-0.439,0.219-0.906,0.219-1.431c0-0.616-0.134-1.316-0.319-1.649
		c-0.233-0.425-0.616-0.645-1.111-0.645C9.077,35.383,8.787,35.503,8.561,35.744z"/>
</g>
<g>
	<path d="M6.021,61.418c-0.092-0.227-0.142-0.326-0.248-0.446c-0.212-0.234-0.488-0.354-0.842-0.354
		c-0.552,0-0.97,0.298-1.225,0.878c-0.184,0.425-0.248,0.751-0.297,1.522c0.127-0.22,0.198-0.318,0.354-0.453
		c0.333-0.297,0.708-0.432,1.197-0.432c1.097,0,1.777,0.68,1.777,1.77c0,1.098-0.736,1.82-1.854,1.82
		c-0.503,0-0.978-0.163-1.282-0.446c-0.46-0.425-0.715-1.218-0.715-2.224c0-0.885,0.198-1.678,0.538-2.138
		c0.375-0.51,0.878-0.772,1.494-0.772c0.425,0,0.807,0.106,1.076,0.297c0.248,0.177,0.39,0.368,0.595,0.793L6.021,61.418z
		 M4.882,62.608c-0.354,0-0.729,0.156-0.978,0.404c-0.233,0.233-0.354,0.545-0.354,0.899c0,0.765,0.573,1.331,1.338,1.331
		c0.46,0,0.885-0.219,1.104-0.574c0.113-0.184,0.184-0.474,0.184-0.75C6.177,63.082,5.71,62.608,4.882,62.608z"/>
	<path d="M8.149,65.228c-0.191-0.191-0.34-0.411-0.425-0.651c-0.177-0.496-0.269-1.055-0.269-1.636c0-0.75,0.163-1.515,0.41-1.926
		c0.34-0.573,0.885-0.871,1.586-0.871c0.524,0,0.978,0.17,1.296,0.502c0.198,0.198,0.34,0.418,0.425,0.651
		c0.177,0.489,0.269,1.055,0.269,1.643c0,0.857-0.184,1.614-0.496,2.046c-0.354,0.496-0.85,0.744-1.501,0.744
		C8.921,65.73,8.482,65.561,8.149,65.228z M8.561,60.994c-0.149,0.163-0.262,0.34-0.319,0.517c-0.149,0.432-0.219,0.913-0.219,1.43
		c0,0.659,0.142,1.353,0.333,1.686c0.248,0.41,0.616,0.616,1.097,0.616c0.354,0,0.659-0.113,0.871-0.333
		c0.156-0.163,0.269-0.347,0.333-0.553c0.148-0.438,0.219-0.906,0.219-1.43c0-0.616-0.134-1.317-0.319-1.65
		c-0.233-0.425-0.616-0.644-1.111-0.644C9.077,60.633,8.787,60.753,8.561,60.994z"/>
</g>
<g>
	<path d="M2.687,89.245c0.149-0.17,0.312-0.368,0.46-0.545l1.792-2.237c0.24-0.297,0.368-0.475,0.531-0.722H6
		c-0.035,0.417-0.042,0.637-0.042,1.197v2.322h0.269c0.298,0,0.481-0.015,0.736-0.05v0.588c-0.262-0.036-0.438-0.05-0.743-0.05
		H5.958v0.609c0,0.34,0.014,0.502,0.057,0.765H5.37c0.042-0.248,0.057-0.446,0.057-0.765v-0.609H3.529
		c-0.396,0-0.609,0.007-0.843,0.028V89.245z M5.434,87.468c0-0.375,0.007-0.602,0.043-0.963c-0.149,0.212-0.326,0.446-0.531,0.708
		l-1.628,2.053h2.117V87.468z"/>
	<path d="M8.178,90.725c-0.191-0.191-0.34-0.411-0.425-0.651c-0.177-0.496-0.269-1.055-0.269-1.635c0-0.751,0.163-1.516,0.41-1.926
		c0.34-0.574,0.885-0.871,1.586-0.871c0.524,0,0.978,0.17,1.296,0.503c0.198,0.198,0.34,0.417,0.425,0.651
		c0.177,0.488,0.269,1.055,0.269,1.643c0,0.856-0.184,1.614-0.496,2.046c-0.354,0.496-0.85,0.743-1.501,0.743
		C8.95,91.228,8.511,91.058,8.178,90.725z M8.589,86.491c-0.149,0.163-0.262,0.34-0.319,0.517c-0.149,0.432-0.219,0.914-0.219,1.431
		c0,0.658,0.142,1.352,0.333,1.685c0.248,0.411,0.616,0.616,1.097,0.616c0.354,0,0.659-0.113,0.871-0.333
		c0.156-0.163,0.269-0.347,0.333-0.552c0.148-0.439,0.219-0.906,0.219-1.431c0-0.616-0.134-1.316-0.319-1.649
		c-0.233-0.425-0.616-0.645-1.111-0.645C9.105,86.13,8.815,86.25,8.589,86.491z"/>
</g>
<g>
	<path d="M3.664,116.123c-0.446,0-0.553,0.008-0.779,0.035c0.078-0.559,0.1-0.664,0.206-0.934c0.177-0.446,0.474-0.836,0.92-1.219
		c0.248-0.211,0.262-0.219,1.083-0.777c0.701-0.475,0.935-0.787,0.935-1.219c0-0.537-0.453-0.885-1.175-0.885
		c-0.468,0-0.814,0.156-1.027,0.461c-0.134,0.19-0.198,0.36-0.248,0.715l-0.595-0.1c0.106-0.51,0.212-0.758,0.446-1.02
		c0.319-0.361,0.8-0.545,1.423-0.545c1.069,0,1.756,0.537,1.756,1.373c0,0.361-0.142,0.701-0.418,1.006
		c-0.212,0.24-0.396,0.375-1.204,0.913c-0.559,0.376-0.786,0.573-1.02,0.87c-0.219,0.291-0.319,0.482-0.404,0.822h2.259
		c0.354,0,0.595-0.014,0.864-0.05v0.595c-0.283-0.028-0.517-0.043-0.871-0.043H3.664z"/>
	<path d="M8.149,115.726c-0.191-0.191-0.34-0.41-0.425-0.65c-0.177-0.496-0.269-1.055-0.269-1.637c0-0.75,0.163-1.514,0.41-1.926
		c0.34-0.572,0.885-0.87,1.586-0.87c0.524,0,0.978,0.17,1.296,0.503c0.198,0.197,0.34,0.418,0.425,0.65
		c0.177,0.489,0.269,1.056,0.269,1.643c0,0.857-0.184,1.615-0.496,2.047c-0.354,0.496-0.85,0.744-1.501,0.744
		C8.921,116.23,8.482,116.06,8.149,115.726z M8.561,111.493c-0.149,0.163-0.262,0.34-0.319,0.517
		c-0.149,0.432-0.219,0.914-0.219,1.43c0,0.659,0.142,1.354,0.333,1.686c0.248,0.41,0.616,0.616,1.097,0.616
		c0.354,0,0.659-0.113,0.871-0.333c0.156-0.162,0.269-0.347,0.333-0.553c0.148-0.438,0.219-0.906,0.219-1.43
		c0-0.615-0.134-1.316-0.319-1.649c-0.233-0.425-0.616-0.644-1.111-0.644C9.077,111.132,8.787,111.251,8.561,111.493z"/>
</g>
<g>
	<path d="M7.435,141.224c-0.191-0.191-0.34-0.41-0.425-0.651c-0.177-0.495-0.27-1.056-0.27-1.636c0-0.75,0.163-1.516,0.411-1.926
		c0.34-0.573,0.885-0.871,1.586-0.871c0.523,0,0.977,0.17,1.295,0.504c0.198,0.197,0.34,0.417,0.425,0.65
		c0.177,0.488,0.269,1.055,0.269,1.643c0,0.857-0.184,1.615-0.496,2.047c-0.354,0.495-0.85,0.742-1.501,0.742
		C8.206,141.726,7.767,141.556,7.435,141.224z M7.845,136.99c-0.148,0.164-0.262,0.34-0.318,0.518
		c-0.148,0.432-0.22,0.913-0.22,1.43c0,0.658,0.142,1.353,0.333,1.686c0.248,0.41,0.616,0.615,1.098,0.615
		c0.354,0,0.658-0.113,0.871-0.332c0.156-0.163,0.269-0.348,0.333-0.553c0.149-0.439,0.22-0.906,0.22-1.43
		c0-0.616-0.135-1.316-0.318-1.65c-0.234-0.424-0.616-0.645-1.112-0.645C8.362,136.628,8.071,136.75,7.845,136.99z"/>
</g>
<g>
	<path d="M27.649,143.267c0.354,0.262,0.531,0.637,0.531,1.111c0,0.971-0.708,1.516-1.954,1.516c-1.296,0-2.011-0.539-2.011-1.516
		c0-0.51,0.205-0.898,0.63-1.176c0.22-0.141,0.375-0.197,0.638-0.24c-0.623-0.113-1.027-0.615-1.027-1.274
		c0-0.856,0.672-1.401,1.742-1.401c1.083,0,1.749,0.531,1.749,1.401c0,0.659-0.396,1.153-1.027,1.274
		C27.218,143.005,27.416,143.089,27.649,143.267z M24.796,144.343c0,0.672,0.517,1.068,1.395,1.068c0.495,0,0.899-0.127,1.14-0.367
		c0.177-0.164,0.269-0.411,0.269-0.701c0-0.693-0.531-1.111-1.402-1.111S24.796,143.656,24.796,144.343z M25.009,141.73
		c0,0.631,0.453,1.014,1.196,1.014c0.744,0,1.189-0.383,1.189-1.014c0-0.594-0.467-0.969-1.196-0.969
		C25.476,140.761,25.009,141.142,25.009,141.73z"/>
</g>
<g>
	<path d="M42.669,141.58c-0.092-0.227-0.142-0.325-0.248-0.445c-0.212-0.234-0.488-0.354-0.842-0.354
		c-0.552,0-0.97,0.297-1.225,0.877c-0.184,0.426-0.248,0.75-0.297,1.522c0.127-0.22,0.198-0.319,0.354-0.453
		c0.333-0.298,0.708-0.433,1.197-0.433c1.097,0,1.777,0.68,1.777,1.771c0,1.097-0.736,1.818-1.854,1.818
		c-0.503,0-0.978-0.162-1.282-0.445c-0.46-0.426-0.715-1.219-0.715-2.223c0-0.886,0.198-1.679,0.538-2.139
		c0.375-0.51,0.878-0.771,1.494-0.771c0.425,0,0.807,0.105,1.076,0.297c0.248,0.178,0.39,0.368,0.595,0.793L42.669,141.58z
		 M41.529,142.769c-0.354,0-0.729,0.156-0.978,0.404c-0.233,0.233-0.354,0.545-0.354,0.898c0,0.766,0.573,1.332,1.338,1.332
		c0.46,0,0.885-0.221,1.104-0.574c0.113-0.184,0.184-0.475,0.184-0.75C42.825,143.244,42.357,142.769,41.529,142.769z"/>
	<path d="M54.053,143.91c0.149-0.17,0.312-0.369,0.46-0.545l1.792-2.238c0.24-0.297,0.368-0.475,0.531-0.722h0.531
		c-0.035,0.417-0.042,0.638-0.042,1.196v2.322h0.269c0.298,0,0.481-0.014,0.736-0.049v0.588c-0.262-0.036-0.438-0.051-0.743-0.051
		h-0.262v0.609c0,0.34,0.014,0.502,0.057,0.765h-0.645c0.042-0.247,0.057-0.446,0.057-0.765v-0.609h-1.897
		c-0.396,0-0.609,0.008-0.843,0.029V143.91z M56.8,142.132c0-0.375,0.007-0.602,0.043-0.963c-0.149,0.213-0.326,0.445-0.531,0.708
		l-1.628,2.054H56.8V142.132z"/>
</g>
<g>
	<path d="M69.062,145.786c-0.446,0-0.552,0.007-0.778,0.036c0.078-0.561,0.099-0.666,0.205-0.936
		c0.177-0.445,0.475-0.836,0.92-1.217c0.248-0.213,0.262-0.221,1.083-0.779c0.701-0.475,0.935-0.786,0.935-1.219
		c0-0.537-0.453-0.885-1.176-0.885c-0.467,0-0.814,0.156-1.026,0.461c-0.135,0.191-0.198,0.361-0.248,0.715l-0.595-0.1
		c0.106-0.51,0.213-0.758,0.446-1.02c0.318-0.361,0.8-0.545,1.423-0.545c1.069,0,1.756,0.539,1.756,1.373
		c0,0.361-0.142,0.701-0.417,1.006c-0.212,0.24-0.396,0.375-1.204,0.914c-0.56,0.375-0.786,0.572-1.02,0.871
		c-0.22,0.289-0.318,0.48-0.403,0.82h2.258c0.354,0,0.595-0.014,0.864-0.049v0.594c-0.283-0.027-0.517-0.042-0.871-0.042H69.062z"/>
	<path d="M83.349,145.389c-0.191-0.19-0.34-0.411-0.425-0.651c-0.177-0.496-0.27-1.055-0.27-1.635c0-0.752,0.163-1.516,0.411-1.926
		c0.34-0.574,0.885-0.871,1.586-0.871c0.523,0,0.977,0.17,1.295,0.502c0.198,0.199,0.34,0.418,0.425,0.652
		c0.177,0.488,0.269,1.055,0.269,1.643c0,0.855-0.184,1.613-0.496,2.045c-0.354,0.496-0.85,0.744-1.501,0.744
		C84.12,145.892,83.681,145.722,83.349,145.389z M83.759,141.156c-0.148,0.162-0.262,0.34-0.318,0.516
		c-0.148,0.433-0.22,0.914-0.22,1.432c0,0.658,0.142,1.352,0.333,1.684c0.248,0.412,0.616,0.617,1.098,0.617
		c0.354,0,0.658-0.113,0.871-0.334c0.156-0.162,0.269-0.346,0.333-0.551c0.149-0.439,0.22-0.906,0.22-1.432
		c0-0.615-0.135-1.316-0.318-1.648c-0.234-0.426-0.616-0.645-1.112-0.645C84.276,140.794,83.985,140.915,83.759,141.156z"/>
</g>
<g>
	<path d="M97.061,145.786c-0.446,0-0.552,0.007-0.778,0.036c0.078-0.561,0.099-0.666,0.205-0.936
		c0.177-0.445,0.475-0.836,0.92-1.217c0.248-0.213,0.262-0.221,1.083-0.779c0.701-0.475,0.935-0.786,0.935-1.219
		c0-0.537-0.453-0.885-1.176-0.885c-0.467,0-0.814,0.156-1.026,0.461c-0.135,0.191-0.198,0.361-0.248,0.715l-0.595-0.1
		c0.106-0.51,0.213-0.758,0.446-1.02c0.318-0.361,0.8-0.545,1.423-0.545c1.069,0,1.756,0.539,1.756,1.373
		c0,0.361-0.142,0.701-0.417,1.006c-0.212,0.24-0.396,0.375-1.204,0.914c-0.56,0.375-0.786,0.572-1.02,0.871
		c-0.22,0.289-0.318,0.48-0.403,0.82h2.258c0.354,0,0.595-0.014,0.864-0.049v0.594c-0.283-0.027-0.517-0.042-0.871-0.042H97.061z"/>
	<path d="M111.795,143.91c0.148-0.17,0.312-0.369,0.46-0.545l1.791-2.238c0.241-0.297,0.368-0.475,0.531-0.722h0.531
		c-0.036,0.417-0.043,0.638-0.043,1.196v2.322h0.27c0.297,0,0.481-0.014,0.736-0.049v0.588c-0.263-0.036-0.439-0.051-0.743-0.051
		h-0.263v0.609c0,0.34,0.015,0.502,0.057,0.765h-0.644c0.042-0.247,0.057-0.446,0.057-0.765v-0.609h-1.898
		c-0.396,0-0.608,0.008-0.842,0.029V143.91z M114.542,142.132c0-0.375,0.007-0.602,0.042-0.963
		c-0.148,0.213-0.325,0.445-0.531,0.708l-1.628,2.054h2.117V142.132z"/>
</g>
<g>
	<path d="M128.417,141.58c-0.092-0.227-0.142-0.325-0.248-0.445c-0.212-0.234-0.488-0.354-0.843-0.354
		c-0.552,0-0.97,0.297-1.225,0.877c-0.184,0.426-0.248,0.75-0.297,1.522c0.127-0.22,0.198-0.319,0.354-0.453
		c0.333-0.298,0.708-0.433,1.197-0.433c1.097,0,1.776,0.68,1.776,1.771c0,1.097-0.736,1.818-1.854,1.818
		c-0.503,0-0.978-0.162-1.281-0.445c-0.461-0.426-0.716-1.219-0.716-2.223c0-0.886,0.198-1.679,0.538-2.139
		c0.375-0.51,0.878-0.771,1.494-0.771c0.425,0,0.807,0.105,1.076,0.297c0.248,0.178,0.39,0.368,0.595,0.793L128.417,141.58z
		 M127.277,142.769c-0.354,0-0.729,0.156-0.978,0.404c-0.233,0.233-0.354,0.545-0.354,0.898c0,0.766,0.573,1.332,1.338,1.332
		c0.46,0,0.885-0.221,1.104-0.574c0.113-0.184,0.184-0.475,0.184-0.75C128.572,143.244,128.105,142.769,127.277,142.769z"/>
	<path d="M143.596,143.273c0.354,0.262,0.531,0.637,0.531,1.111c0,0.969-0.708,1.515-1.954,1.515c-1.296,0-2.011-0.538-2.011-1.515
		c0-0.51,0.205-0.9,0.63-1.176c0.22-0.142,0.376-0.198,0.638-0.24c-0.623-0.113-1.027-0.617-1.027-1.275
		c0-0.855,0.673-1.401,1.742-1.401c1.083,0,1.749,0.53,1.749,1.401c0,0.658-0.396,1.154-1.026,1.275
		C143.164,143.01,143.362,143.095,143.596,143.273z M140.742,144.349c0,0.672,0.518,1.068,1.396,1.068
		c0.495,0,0.899-0.127,1.14-0.368c0.177-0.163,0.27-0.411,0.27-0.7c0-0.695-0.531-1.112-1.402-1.112
		S140.742,143.662,140.742,144.349z M140.955,141.736c0,0.631,0.453,1.012,1.196,1.012s1.189-0.381,1.189-1.012
		c0-0.595-0.467-0.971-1.196-0.971C141.422,140.765,140.955,141.148,140.955,141.736z"/>
</g>
<g>
	<path d="M142.111,154.207c-0.41-0.631-0.58-0.971-0.75-1.48c-0.191-0.574-0.291-1.182-0.291-1.841s0.1-1.267,0.291-1.841
		c0.17-0.502,0.34-0.842,0.75-1.473l0.447,0.283c-0.396,0.609-0.553,0.928-0.709,1.43c-0.162,0.51-0.24,1.041-0.24,1.601
		s0.078,1.097,0.24,1.606c0.156,0.504,0.313,0.822,0.709,1.432L142.111,154.207z"/>
	<path d="M143.883,150.298c-0.254-0.248-0.389-0.666-0.389-1.189c0-0.949,0.453-1.509,1.232-1.509c0.771,0,1.225,0.552,1.225,1.509
		c0,0.523-0.135,0.941-0.389,1.189c-0.213,0.205-0.504,0.318-0.836,0.318C144.387,150.617,144.096,150.503,143.883,150.298z
		 M143.969,149.109c0,0.693,0.275,1.09,0.758,1.09c0.475,0,0.75-0.396,0.75-1.09c0-0.701-0.27-1.092-0.75-1.092
		C144.238,148.017,143.969,148.414,143.969,149.109z M148.301,147.558l0.299,0.227l-4.291,5.43l-0.297-0.233L148.301,147.558z
		 M147.049,152.861c-0.256-0.248-0.391-0.666-0.391-1.189c0-0.949,0.453-1.508,1.232-1.508s1.225,0.552,1.225,1.515
		c0,0.517-0.135,0.935-0.389,1.183c-0.213,0.205-0.502,0.318-0.836,0.318C147.551,153.179,147.262,153.074,147.049,152.861z
		 M147.133,151.671c0,0.693,0.277,1.09,0.758,1.09c0.475,0,0.75-0.396,0.75-1.09c0-0.701-0.268-1.09-0.75-1.09
		C147.402,150.582,147.133,150.978,147.133,151.671z"/>
	<path d="M150.496,147.572c0.41,0.631,0.58,0.971,0.75,1.473c0.199,0.574,0.291,1.182,0.291,1.841c0,0.665-0.092,1.267-0.291,1.841
		c-0.17,0.51-0.34,0.85-0.75,1.48l-0.445-0.283c0.396-0.609,0.551-0.928,0.707-1.432c0.164-0.51,0.24-1.04,0.24-1.606
		s-0.076-1.091-0.24-1.601c-0.156-0.502-0.311-0.82-0.707-1.43L150.496,147.572z"/>
</g>
<path fill="none" stroke="#E71F19" stroke-miterlimit="10" d="M108.615,123.781c0,6.627-5.373,12-12,12h-26.73
	c-6.627,0-12-5.373-12-12v-52.5c0-6.627,5.373-12,12-12h26.73c6.627,0,12,5.373,12,12V123.781z"/>
<g>
	<path fill="#E71F19" d="M10.255,160.236c0-0.477,0.011-0.932,0.044-1.331c-0.344,0.644-0.644,1.065-1.165,1.664
		c-0.145-0.267-0.211-0.354-0.455-0.632c0.932-0.966,1.564-1.941,2.074-3.185c0.255-0.644,0.433-1.209,0.488-1.597l0.776,0.211
		c-0.078,0.188-0.111,0.277-0.199,0.51c-0.3,0.843-0.3,0.843-0.876,2.086v6.034c0,0.532,0.011,0.909,0.055,1.298h-0.81
		c0.044-0.41,0.066-0.776,0.066-1.331V160.236z M13.328,159.57v2.906c0.91-0.188,1.42-0.332,2.374-0.654v0.666
		c-1.409,0.455-2.229,0.666-3.561,0.921c-0.166,0.033-0.255,0.056-0.421,0.11l-0.155-0.775c0.344,0,0.477-0.023,1.076-0.123v-5.236
		c0-0.51-0.011-0.765-0.056-0.998c1.953-0.055,4.337-0.588,5.191-1.176l0.588,0.644c-1.32,0.455-1.476,0.499-2.23,0.688
		c0.022,1.164,0.033,1.441,0.133,2.285l1.464-0.045c0.599-0.021,0.754-0.033,1.054-0.1l0.011,0.754
		c-0.411-0.021-0.422-0.021-0.754-0.021c-0.145,0-0.233,0-0.3,0.011l-1.387,0.044c0.2,1.242,0.444,1.975,0.943,2.818
		c0.321,0.543,0.699,0.942,0.898,0.942c0.222,0,0.399-0.688,0.466-1.83c0.2,0.2,0.355,0.333,0.599,0.478
		c-0.211,1.563-0.488,2.129-1.043,2.129c-0.311,0-0.743-0.321-1.176-0.854c-0.688-0.854-1.131-2.041-1.364-3.661L13.328,159.57z
		 M12.196,164.096c0.255,0.044,0.51,0.056,0.943,0.056h3.095c0.488,0,0.776-0.012,1.065-0.056v0.743
		c-0.377-0.044-0.666-0.066-1.065-0.066h-3.018c-0.488,0-0.699,0.012-1.021,0.066V164.096z M15.591,158.849
		c-0.066-0.609-0.089-0.943-0.144-2.163c-0.71,0.144-1.209,0.211-2.119,0.288v1.953L15.591,158.849z"/>
	<path fill="#E71F19" d="M22.107,159.603c0-0.244-0.011-0.432-0.033-0.654c0.233,0.022,0.477,0.033,0.788,0.033h2.407v-1.808h-2.607
		c-0.566,0.942-1.098,1.597-1.842,2.263c-0.177-0.255-0.288-0.365-0.532-0.532c1.098-0.932,1.697-1.741,2.219-2.983
		c0.144-0.322,0.222-0.578,0.277-0.811l0.788,0.222c-0.044,0.089-0.078,0.167-0.145,0.3l-0.421,0.898h5.502
		c0.488,0,0.721-0.012,0.999-0.055v0.754c-0.277-0.045-0.543-0.056-0.999-0.056H26v1.808h2.008c0.455,0,0.699-0.011,0.987-0.055
		v0.732c-0.289-0.033-0.555-0.045-0.976-0.045H26v2.174h2.795c0.499,0,0.81-0.021,1.121-0.066v0.799
		c-0.322-0.045-0.666-0.066-1.121-0.066H26v1.83c0,0.477,0.022,0.744,0.078,1.031h-0.876c0.056-0.277,0.067-0.521,0.067-1.031v-1.83
		h-4.005c-0.455,0-0.799,0.021-1.12,0.066v-0.799c0.321,0.045,0.632,0.066,1.12,0.066h0.843V159.603z M25.269,161.789v-2.174h-2.441
		v2.174H25.269z"/>
	<path fill="#E71F19" d="M35.512,157.829c0.411,0,0.61-0.011,0.876-0.066v0.555c0.876-0.732,1.608-1.886,1.919-3.007h0.766
		c0.21,0.544,0.499,1.076,0.898,1.631c0.466,0.633,0.865,1.032,1.476,1.476c-0.189,0.255-0.244,0.345-0.389,0.632
		c-1.153-0.976-1.708-1.719-2.352-3.117c-0.299,0.799-0.499,1.199-0.888,1.765c-0.333,0.477-0.61,0.788-1.12,1.286
		c-0.155-0.266-0.255-0.41-0.411-0.543c-0.188-0.022-0.466-0.033-0.788-0.033h-3.172c-0.444,0-0.666,0.011-1.032,0.044v-0.688
		c0.289,0.056,0.455,0.066,0.887,0.066v-1.032c0-0.443-0.011-0.654-0.066-0.965h0.732c-0.044,0.311-0.055,0.478-0.055,0.965v1.032
		h1.032v-1.587c0-0.477-0.011-0.709-0.067-1.02h0.754c-0.055,0.299-0.066,0.499-0.066,0.932v0.1h0.81
		c0.433,0,0.632-0.012,0.91-0.066v0.643c-0.277-0.033-0.499-0.043-0.91-0.043h-0.81v1.042H35.512z M36.289,158.828
		c-0.033,0.311-0.044,0.609-0.044,1.064v4.071c0,0.632,0.011,0.888,0.044,1.253h-0.677v-0.455h-3.405v0.578h-0.699
		c0.044-0.367,0.055-0.645,0.055-1.266v-4.115c0-0.51-0.011-0.843-0.055-1.143h0.732c-0.033,0.311-0.056,0.677-0.056,1.098v4.271
		h3.45v-4.326c0-0.443-0.011-0.766-0.044-1.031H36.289z M34.847,160.712c0.266,0,0.399-0.011,0.555-0.033v0.555
		c-0.178-0.021-0.366-0.033-0.555-0.033h-0.521c0.299,0.654,0.71,1.176,1.287,1.687c-0.144,0.155-0.21,0.233-0.333,0.444
		c-0.521-0.566-0.821-1.01-1.154-1.688c0.033,0.633,0.044,0.877,0.044,1.287v0.355c0,0.311,0.011,0.41,0.044,0.633h-0.61
		c0.034-0.233,0.044-0.344,0.044-0.633v-0.344c0-0.434,0.011-0.61,0.044-1.275c-0.344,0.754-0.532,1.042-1.131,1.719
		c-0.111-0.199-0.178-0.288-0.344-0.443c0.554-0.488,0.909-0.965,1.264-1.742h-0.499c-0.188,0-0.377,0.012-0.555,0.033v-0.555
		c0.167,0.022,0.333,0.033,0.555,0.033h0.666v-1.031c0-0.389-0.011-0.666-0.044-0.977h0.599c-0.022,0.256-0.033,0.588-0.033,0.977
		v1.031H34.847z M32.872,158.872c0.244,0.511,0.377,0.821,0.521,1.319l-0.444,0.223c-0.133-0.533-0.244-0.811-0.521-1.32
		L32.872,158.872z M35.401,159.082c-0.211,0.611-0.322,0.865-0.555,1.332l-0.411-0.223c0.233-0.443,0.344-0.742,0.488-1.319
		L35.401,159.082z M37.708,160.691c-0.499,0-0.71,0.011-1.042,0.066v-0.732c0.288,0.045,0.488,0.056,1.087,0.056h1.975
		c0.577,0,0.876-0.011,1.087-0.044c-0.034,0.266-0.044,0.555-0.044,1.043v2.307c0,0.6-0.211,0.766-0.943,0.766
		c-0.078,0-0.333-0.012-0.577-0.022c-0.011-0.267-0.044-0.421-0.133-0.665c0.288,0.055,0.554,0.088,0.765,0.088
		c0.188,0,0.244-0.066,0.244-0.254v-2.607h-1.564v3.482c0,0.622,0.022,0.933,0.066,1.21h-0.799c0.056-0.311,0.067-0.588,0.067-1.21
		v-3.482H37.708z M37.387,158.427c0.255,0.033,0.377,0.033,0.91,0.033h0.888c0.521,0,0.644,0,0.876-0.033v0.645
		c-0.244-0.033-0.355-0.033-0.854-0.033h-0.932c-0.488,0-0.644,0.01-0.888,0.033V158.427z"/>
	<path fill="#E71F19" d="M46.022,155.587c0.044,0.744,0.455,2.563,0.832,3.672c0.655-0.266,0.965-0.388,2.685-0.986
		c0.389-0.145,0.488-0.178,0.71-0.289l0.333,0.844c-0.776,0.166-2.363,0.676-3.339,1.076c-1.897,0.754-2.718,1.486-2.718,2.406
		c0,1.01,0.854,1.398,3.028,1.398c1.275,0,2.518-0.145,3.172-0.377l0.089,0.92c-0.211,0-0.211,0-0.821,0.066
		c-1.143,0.111-1.675,0.145-2.452,0.145c-1.098,0-1.93-0.1-2.462-0.299c-0.91-0.334-1.376-0.943-1.376-1.82
		c0-0.709,0.333-1.354,0.987-1.885c0.422-0.345,0.766-0.555,1.453-0.899c-0.311-0.909-0.521-1.687-0.81-3.106
		c-0.1-0.465-0.122-0.521-0.188-0.698L46.022,155.587z"/>
	<path fill="#E71F19" d="M57.885,155.921c0-0.289-0.022-0.5-0.066-0.755h0.843c-0.044,0.243-0.066,0.454-0.066,0.743v0.222h3.461
		c0.466,0,0.754-0.022,1.098-0.066v0.731c-0.355-0.044-0.654-0.055-1.098-0.055H54.59c-0.433,0-0.754,0.011-1.098,0.055v-0.731
		c0.322,0.044,0.644,0.066,1.121,0.066h3.272V155.921z M53.858,161.378c0-0.389-0.011-0.666-0.044-0.998
		c0.322,0.033,0.632,0.044,1.098,0.044h6.878c0.543,0,0.788-0.011,1.076-0.044c-0.034,0.344-0.044,0.588-0.044,0.977v2.939
		c0,0.377-0.067,0.565-0.255,0.688c-0.177,0.122-0.366,0.155-0.954,0.155c-0.255,0-0.321,0-1.031-0.033
		c-0.022-0.3-0.056-0.433-0.145-0.688c0.444,0.066,0.865,0.101,1.253,0.101c0.399,0,0.455-0.034,0.455-0.255v-3.251h-7.599v3.194
		c0,0.488,0.011,0.755,0.066,1.133h-0.821c0.044-0.301,0.066-0.688,0.066-1.121V161.378z M55.333,158.261
		c0-0.355-0.011-0.609-0.034-0.843c0.289,0.033,0.577,0.044,1.054,0.044h4.115c0.433,0,0.632-0.011,0.943-0.044
		c-0.022,0.321-0.033,0.478-0.033,0.854v0.599c0,0.487,0,0.621,0.033,0.865c-0.321-0.033-0.543-0.044-1.021-0.044h-4.093
		c-0.421,0-0.644,0.011-0.999,0.044c0.022-0.233,0.034-0.433,0.034-0.865V158.261z M56.01,159.126h4.692v-1.087H56.01V159.126z
		 M60.536,163.175c0,0.4,0.011,0.566,0.033,0.788c-0.289-0.022-0.632-0.034-1.021-0.034h-2.818v0.611H56.01
		c0.034-0.233,0.056-0.521,0.056-0.922v-1.109c0-0.354-0.011-0.576-0.033-0.809c0.255,0.021,0.488,0.033,0.898,0.033h2.663
		c0.421,0,0.688-0.012,0.976-0.033c-0.022,0.221-0.033,0.388-0.033,0.754V163.175z M56.72,163.375h3.173v-1.087H56.72V163.375z"/>
	<path fill="#E71F19" d="M66.454,159.603c0-0.244-0.011-0.432-0.033-0.654c0.233,0.022,0.477,0.033,0.788,0.033h2.407v-1.808h-2.607
		c-0.566,0.942-1.098,1.597-1.842,2.263c-0.177-0.255-0.288-0.365-0.532-0.532c1.098-0.932,1.697-1.741,2.219-2.983
		c0.144-0.322,0.222-0.578,0.277-0.811l0.788,0.222c-0.044,0.089-0.078,0.167-0.145,0.3l-0.421,0.898h5.502
		c0.488,0,0.721-0.012,0.999-0.055v0.754c-0.277-0.045-0.543-0.056-0.999-0.056h-2.507v1.808h2.008c0.455,0,0.699-0.011,0.987-0.055
		v0.732c-0.289-0.033-0.555-0.045-0.976-0.045h-2.019v2.174h2.795c0.499,0,0.81-0.021,1.121-0.066v0.799
		c-0.322-0.045-0.666-0.066-1.121-0.066h-2.795v1.83c0,0.477,0.022,0.744,0.078,1.031h-0.876c0.056-0.277,0.067-0.521,0.067-1.031
		v-1.83H65.61c-0.455,0-0.799,0.021-1.12,0.066v-0.799c0.321,0.045,0.632,0.066,1.12,0.066h0.843V159.603z M69.615,161.789v-2.174
		h-2.441v2.174H69.615z"/>
	<path fill="#E71F19" d="M79.858,157.829c0.411,0,0.61-0.011,0.876-0.066v0.555c0.876-0.732,1.608-1.886,1.919-3.007h0.766
		c0.21,0.544,0.499,1.076,0.898,1.631c0.466,0.633,0.865,1.032,1.475,1.476c-0.188,0.255-0.244,0.345-0.388,0.632
		c-1.153-0.976-1.708-1.719-2.352-3.117c-0.299,0.799-0.499,1.199-0.888,1.765c-0.333,0.477-0.61,0.788-1.12,1.286
		c-0.155-0.266-0.255-0.41-0.411-0.543c-0.188-0.022-0.466-0.033-0.788-0.033h-3.172c-0.444,0-0.666,0.011-1.032,0.044v-0.688
		c0.289,0.056,0.455,0.066,0.887,0.066v-1.032c0-0.443-0.011-0.654-0.066-0.965h0.732c-0.044,0.311-0.055,0.478-0.055,0.965v1.032
		h1.032v-1.587c0-0.477-0.011-0.709-0.067-1.02h0.754c-0.055,0.299-0.066,0.499-0.066,0.932v0.1h0.81
		c0.433,0,0.632-0.012,0.91-0.066v0.643c-0.277-0.033-0.499-0.043-0.91-0.043h-0.81v1.042H79.858z M80.635,158.828
		c-0.033,0.311-0.044,0.609-0.044,1.064v4.071c0,0.632,0.011,0.888,0.044,1.253h-0.677v-0.455h-3.405v0.578h-0.699
		c0.044-0.367,0.056-0.645,0.056-1.266v-4.115c0-0.51-0.011-0.843-0.056-1.143h0.732c-0.033,0.311-0.056,0.677-0.056,1.098v4.271
		h3.45v-4.326c0-0.443-0.011-0.766-0.044-1.031H80.635z M79.193,160.712c0.266,0,0.399-0.011,0.555-0.033v0.555
		c-0.178-0.021-0.366-0.033-0.555-0.033h-0.521c0.299,0.654,0.71,1.176,1.287,1.687c-0.144,0.155-0.21,0.233-0.333,0.444
		c-0.521-0.566-0.821-1.01-1.154-1.688c0.033,0.633,0.044,0.877,0.044,1.287v0.355c0,0.311,0.011,0.41,0.044,0.633h-0.61
		c0.033-0.233,0.044-0.344,0.044-0.633v-0.344c0-0.434,0.011-0.61,0.044-1.275c-0.344,0.754-0.532,1.042-1.131,1.719
		c-0.111-0.199-0.178-0.288-0.344-0.443c0.555-0.488,0.91-0.965,1.265-1.742h-0.499c-0.188,0-0.377,0.012-0.555,0.033v-0.555
		c0.167,0.022,0.333,0.033,0.555,0.033h0.666v-1.031c0-0.389-0.011-0.666-0.044-0.977h0.599c-0.022,0.256-0.033,0.588-0.033,0.977
		v1.031H79.193z M77.218,158.872c0.244,0.511,0.377,0.821,0.521,1.319l-0.444,0.223c-0.133-0.533-0.244-0.811-0.521-1.32
		L77.218,158.872z M79.748,159.082c-0.211,0.611-0.322,0.865-0.555,1.332l-0.411-0.223c0.233-0.443,0.344-0.742,0.488-1.319
		L79.748,159.082z M82.055,160.691c-0.499,0-0.71,0.011-1.042,0.066v-0.732c0.288,0.045,0.488,0.056,1.087,0.056h1.975
		c0.577,0,0.876-0.011,1.087-0.044c-0.034,0.266-0.044,0.555-0.044,1.043v2.307c0,0.6-0.211,0.766-0.943,0.766
		c-0.078,0-0.333-0.012-0.577-0.022c-0.011-0.267-0.044-0.421-0.133-0.665c0.288,0.055,0.555,0.088,0.765,0.088
		c0.188,0,0.244-0.066,0.244-0.254v-2.607h-1.564v3.482c0,0.622,0.022,0.933,0.066,1.21h-0.799c0.056-0.311,0.066-0.588,0.066-1.21
		v-3.482H82.055z M81.733,158.427c0.255,0.033,0.377,0.033,0.91,0.033h0.888c0.521,0,0.644,0,0.876-0.033v0.645
		c-0.244-0.033-0.355-0.033-0.854-0.033h-0.932c-0.488,0-0.644,0.01-0.888,0.033V158.427z"/>
	<path fill="#E71F19" d="M91.111,161.511c-0.644,1.465-1.298,2.131-2.097,2.131c-1.054,0-1.841-1.154-1.841-2.707
		c0-1.132,0.421-2.23,1.165-3.063c0.888-0.976,2.097-1.475,3.583-1.475c1.243,0,2.33,0.389,3.051,1.098
		c0.699,0.677,1.076,1.643,1.076,2.707c0,1.719-0.932,3.139-2.541,3.827c-0.499,0.211-0.921,0.344-1.686,0.511
		c-0.111-0.367-0.178-0.478-0.388-0.744c0.81-0.133,1.331-0.277,1.853-0.521c1.22-0.555,1.963-1.741,1.963-3.105
		c0-1.265-0.644-2.285-1.764-2.785c-0.411-0.177-0.732-0.254-1.287-0.277C92.032,158.65,91.61,160.347,91.111,161.511z
		 M89.747,157.64c-1.12,0.677-1.808,1.93-1.808,3.306c0,1.065,0.466,1.886,1.065,1.886c0.466,0,0.91-0.521,1.387-1.608
		c0.455-1.042,0.865-2.685,1.009-4.104C90.734,157.174,90.257,157.33,89.747,157.64z"/>
	<path fill="#E71F19" d="M99.436,157.164c-0.466,0-0.788,0.021-1.121,0.066v-0.732c0.311,0.045,0.644,0.066,1.121,0.066h1.597
		c-0.244-0.443-0.51-0.787-0.932-1.209l0.644-0.266c0.41,0.465,0.721,0.909,1.042,1.475h1.775c0.455-0.51,0.666-0.832,0.977-1.486
		l0.709,0.244c-0.344,0.555-0.598,0.877-0.942,1.242h1.708c0.488,0,0.799-0.021,1.109-0.066v0.732
		c-0.311-0.045-0.632-0.066-1.109-0.066h-3.039v1.02h2.707c0.443,0,0.654-0.011,0.953-0.055v0.699
		c-0.277-0.045-0.521-0.057-0.953-0.057h-2.707v1.065h3.494c0.511,0,0.821-0.022,1.109-0.066v0.722
		c-0.311-0.045-0.633-0.067-1.109-0.067h-5.436c-0.344,1.153-0.61,1.774-1.076,2.507c-0.533,0.821-0.999,1.343-1.875,2.086
		c-0.177-0.289-0.255-0.389-0.499-0.6c1.442-1.053,2.229-2.195,2.729-3.993h-1.332c-0.466,0-0.788,0.022-1.12,0.067v-0.722
		c0.299,0.044,0.61,0.066,1.12,0.066h3.328v-1.065h-2.496c-0.433,0-0.688,0.012-0.965,0.057v-0.699
		c0.288,0.044,0.521,0.055,0.965,0.055h2.496v-1.02H99.436z M101.721,162.244c-0.399,0-0.654,0.012-0.92,0.056v-0.71
		c0.277,0.045,0.5,0.055,0.932,0.055h4.049c0.466,0,0.71-0.01,0.977-0.055v0.71c-0.277-0.044-0.555-0.056-0.977-0.056h-1.953v1.975
		h2.553c0.477,0,0.798-0.021,1.119-0.066v0.743c-0.311-0.044-0.665-0.066-1.143-0.066h-5.602c-0.477,0-0.81,0.022-1.143,0.066
		v-0.743c0.322,0.045,0.599,0.066,1.054,0.066h2.452v-1.975H101.721z"/>
	<path fill="#E71F19" d="M109.069,158.373c0.399-0.012,1.554-0.145,2.452-0.289c0.188-0.832,0.333-1.885,0.333-2.352
		c0-0.021,0-0.078,0-0.145l0.887,0.1c-0.077,0.234-0.11,0.434-0.211,1.065c-0.055,0.321-0.133,0.732-0.232,1.265
		c0.255-0.021,0.399-0.033,0.654-0.033c0.788,0,1.254,0.133,1.598,0.466c0.388,0.366,0.543,0.876,0.543,1.786
		c0,1.697-0.288,3.173-0.743,3.816c-0.266,0.377-0.565,0.521-1.087,0.521c-0.477,0-0.942-0.123-1.675-0.434
		c0.022-0.166,0.022-0.244,0.022-0.398c0-0.166,0-0.233-0.033-0.434c0.632,0.322,1.253,0.511,1.652,0.511
		c0.277,0,0.488-0.177,0.633-0.532c0.299-0.71,0.466-1.842,0.466-3.084c0-1.176-0.333-1.553-1.365-1.553
		c-0.243,0-0.388,0.011-0.798,0.055c-0.411,1.742-0.921,3.174-1.676,4.693c-0.144,0.277-0.377,0.721-0.721,1.342l-0.754-0.443
		c0.344-0.434,0.765-1.176,1.153-2.008c0.521-1.109,0.854-2.086,1.22-3.518c-0.953,0.145-1.486,0.233-1.586,0.256
		c-0.255,0.045-0.344,0.066-0.644,0.145L109.069,158.373z M116.357,157.351c1.132,1.221,1.798,2.363,2.319,3.928l-0.71,0.399
		c-0.422-1.521-1.188-2.874-2.264-3.982L116.357,157.351z M116.945,155.821c0.511,0.555,0.766,0.888,1.177,1.554l-0.533,0.332
		c-0.321-0.588-0.677-1.064-1.153-1.575L116.945,155.821z M117.955,155.244c0.511,0.555,0.766,0.898,1.176,1.564l-0.532,0.333
		c-0.321-0.588-0.677-1.065-1.153-1.575L117.955,155.244z"/>
	<path fill="#E71F19" d="M122.818,157.13c-0.067,0.166-0.134,0.311-0.256,0.643c-0.632,1.643-1.076,2.408-2.074,3.551
		c-0.267-0.289-0.366-0.378-0.644-0.545c0.821-0.809,1.343-1.574,1.809-2.684c0.188-0.443,0.311-0.821,0.399-1.254L122.818,157.13z
		 M128.397,160.468c-0.055,0.067-0.055,0.067-0.155,0.2c-0.044,0.067-0.044,0.067-0.299,0.433c-0.743,1.098-1.653,1.975-2.763,2.685
		c-1.143,0.71-2.385,1.165-4.293,1.563c-0.145-0.354-0.222-0.487-0.443-0.742c1.952-0.344,3.05-0.711,4.215-1.398
		c1.376-0.799,2.529-2.041,3.04-3.238L128.397,160.468z M125.369,155.244c-0.044,0.3-0.066,0.621-0.066,1.121v4.414
		c0,0.678-0.232,0.844-1.198,0.844c-0.311,0-0.731-0.021-1.164-0.056c-0.022-0.321-0.045-0.433-0.167-0.776
		c0.488,0.1,0.977,0.155,1.265,0.155c0.41,0,0.511-0.044,0.511-0.244v-4.337c0-0.566-0.022-0.854-0.067-1.121H125.369z
		 M127.688,156.787c0.122,0.421,0.322,0.842,0.633,1.342c0.477,0.754,0.954,1.275,1.753,1.908c-0.211,0.188-0.277,0.277-0.544,0.632
		c-0.565-0.521-0.998-0.976-1.376-1.497c-0.377-0.521-0.443-0.633-0.953-1.62c-0.145-0.267-0.167-0.3-0.244-0.433L127.688,156.787z"
		/>
	<path fill="#E71F19" d="M134.937,155.587c-0.078,0.211-0.089,0.256-0.178,0.711c-0.077,0.377-0.144,0.643-0.299,1.209
		c0.776-0.066,1.475-0.2,1.985-0.366l0.033,0.765c-0.122,0.023-0.122,0.023-0.389,0.067c-0.454,0.1-1.143,0.188-1.819,0.233
		c-0.344,1.187-0.743,2.218-1.23,3.238c-0.267,0.533-0.366,0.721-0.788,1.453c-0.1,0.156-0.166,0.289-0.222,0.377l-0.755-0.443
		c0.355-0.443,0.655-0.932,1.065-1.73c0.51-1.01,0.832-1.809,1.153-2.861c-0.277,0.01-0.654,0.021-0.82,0.021
		c-0.188,0-0.566-0.012-0.732-0.012c-0.122-0.01-0.211-0.01-0.244-0.01c-0.022,0-0.077,0-0.145,0l0.012-0.766
		c0.377,0.066,0.71,0.088,1.32,0.088c0.222,0,0.588-0.011,0.798-0.011c0.178-0.632,0.355-1.575,0.378-2.085L134.937,155.587z
		 M140.206,164.197c-0.433-0.533-1.132-1.088-1.941-1.51c0.022,0.178,0.022,0.244,0.022,0.355c0,1.143-0.755,1.775-2.108,1.775
		c-1.331,0-2.163-0.621-2.163-1.609c0-0.599,0.41-1.153,1.032-1.408c0.388-0.166,0.81-0.244,1.309-0.244
		c0.41,0,0.688,0.045,1.12,0.166c-0.056-0.721-0.077-1.242-0.077-1.52c0-0.399,0.021-0.666,0.11-1.076l0.755,0.078
		c-0.111,0.41-0.145,0.643-0.145,1.031c0,0.5,0.056,1.265,0.122,1.686c0.888,0.389,1.575,0.811,2.175,1.343
		c0.121,0.122,0.121,0.122,0.199,0.178L140.206,164.197z M136.301,162.21c-0.942,0-1.542,0.389-1.542,0.998
		c0,0.566,0.532,0.91,1.409,0.91c0.954,0,1.387-0.377,1.387-1.209c0-0.133-0.022-0.478-0.022-0.478
		C137.066,162.266,136.745,162.21,136.301,162.21z M140.194,159.193c-0.932-0.643-1.774-1.087-2.939-1.508l0.41-0.621
		c1.287,0.51,2.03,0.887,2.929,1.463L140.194,159.193z"/>
	<path fill="#E71F19" d="M143.927,156.609c-0.056,0.344-0.077,0.709-0.077,1.32c0,1.22,0.121,2.739,0.288,3.449
		c0.244,1.131,0.699,1.896,1.12,1.896c0.2,0,0.389-0.188,0.555-0.555c0.255-0.555,0.433-1.143,0.577-1.896
		c0.244,0.289,0.344,0.389,0.654,0.633c-0.544,1.941-1.054,2.684-1.842,2.684c-0.621,0-1.197-0.621-1.575-1.686
		c-0.388-1.054-0.543-2.474-0.599-5.203c-0.011-0.422-0.011-0.455-0.033-0.654L143.927,156.609z M149.285,157.197
		c0.721,0.854,1.176,1.586,1.586,2.529c0.422,0.932,0.633,1.719,0.832,2.961l-0.788,0.322c-0.199-2.063-1.009-3.961-2.307-5.469
		L149.285,157.197z"/>
</g>
<g>
	<path fill="#E71F19" d="M32.016,0.943c0-0.277-0.022-0.521-0.066-0.799h0.854c-0.044,0.266-0.066,0.5-0.066,0.799v0.089h3.272
		c0.466,0,0.754-0.011,1.109-0.044c-0.033,0.211-0.044,0.433-0.044,0.743v0.533c0,0.321,0.011,0.521,0.044,0.754h-0.71V1.631H28.6
		v1.386h-0.721c0.034-0.255,0.044-0.433,0.044-0.765V1.73c0-0.289-0.011-0.532-0.044-0.743c0.355,0.033,0.644,0.044,1.121,0.044
		h3.017V0.943z M28.389,7.277c0-0.577-0.011-0.798-0.044-1.076c0.244,0.022,0.466,0.033,1.054,0.033h6.179
		c0.588,0,0.81-0.011,1.054-0.033c-0.033,0.288-0.044,0.51-0.044,1.076v1.897c0,0.5,0.022,0.888,0.066,1.143H35.91v-0.51h-6.845
		v0.51h-0.743c0.044-0.288,0.066-0.643,0.066-1.143V7.277z M29.065,7.709h2.984V6.8h-2.984V7.709z M29.065,9.241h2.984V8.275h-2.984
		V9.241z M29.099,2.274c0.255,0.044,0.511,0.056,0.91,0.056H35c0.399,0,0.632-0.011,0.898-0.056v0.677
		C35.61,2.906,35.389,2.896,35,2.896h-4.992c-0.399,0-0.621,0.011-0.91,0.055V2.274z M35.644,4.836c0,0.344,0.011,0.477,0.044,0.754
		c-0.288-0.033-0.599-0.044-0.943-0.044h-4.504c-0.344,0-0.643,0.011-0.932,0.044c0.033-0.277,0.044-0.433,0.044-0.754V4.293
		c0-0.299-0.011-0.466-0.044-0.754c0.277,0.033,0.555,0.044,0.932,0.044h4.515c0.366,0,0.654-0.011,0.932-0.044
		c-0.033,0.266-0.044,0.433-0.044,0.754V4.836z M30.02,4.116v0.898h4.948V4.116H30.02z M32.704,7.709h3.206V6.8h-3.206V7.709z
		 M32.704,9.241h3.206V8.275h-3.206V9.241z"/>
	<path fill="#E71F19" d="M43.081,1.476c0-0.433-0.022-0.777-0.078-1.154h0.932c-0.055,0.399-0.078,0.71-0.078,1.154v2.285h3.284
		c0.455,0,0.854-0.022,1.253-0.078v0.854c-0.41-0.056-0.776-0.078-1.242-0.078h-3.295v4.426h2.696c0.588,0,0.876-0.011,1.187-0.067
		v0.832c-0.322-0.044-0.621-0.066-1.187-0.066h-5.957c-0.577,0-0.887,0.022-1.198,0.066V8.819c0.277,0.044,0.622,0.067,1.187,0.067
		h2.496V4.459h-2.984c-0.477,0-0.899,0.022-1.332,0.078V3.683c0.444,0.055,0.81,0.078,1.332,0.078h2.984V1.476z"/>
	<path fill="#E71F19" d="M54.179,1.387c0-0.422-0.022-0.699-0.078-1.032h0.92c-0.055,0.322-0.078,0.599-0.078,1.032V8.52h3.272V3.45
		c0-0.466-0.022-0.71-0.066-1.031h0.876c-0.044,0.377-0.066,0.676-0.066,1.042v5.524c0,0.444,0.022,0.776,0.078,1.176h-0.821V9.229
		h-7.088v0.932h-0.821c0.055-0.466,0.078-0.721,0.078-1.12V3.505c0-0.421-0.022-0.766-0.078-1.087h0.876
		c-0.044,0.311-0.056,0.621-0.056,1.076V8.52h3.051V1.387z"/>
	<path fill="#E71F19" d="M62.192,1.287c-0.455,0-0.743,0.011-1.021,0.044V0.632c0.311,0.044,0.599,0.055,1.076,0.055h3.14
		c0.51,0,0.788-0.011,1.076-0.055v0.699c-0.277-0.033-0.565-0.044-1.009-0.044h-0.188v1.564h0.41c0.51,0,0.766-0.011,1.054-0.056
		v0.721c-0.3-0.044-0.555-0.056-1.043-0.056h-0.421v1.62c0,0.455,0.011,0.754,0.044,0.965h0.765
		c-0.055,0.222-0.066,0.421-0.066,0.832v0.177h2.407c0.621,0,0.921-0.011,1.22-0.066v0.743c-0.344-0.044-0.677-0.056-1.209-0.056
		h-2.418v1.509h3.383c0.61,0,0.954-0.011,1.231-0.056v0.766c-0.366-0.044-0.766-0.066-1.265-0.066h-7.177
		c-0.477,0-0.876,0.022-1.243,0.066V9.129c0.267,0.034,0.644,0.056,1.221,0.056h3.161V7.676h-2.152c-0.533,0-0.876,0.011-1.22,0.056
		V6.989c0.299,0.055,0.565,0.066,1.176,0.066h2.196V6.878c0-0.366-0.011-0.588-0.044-0.777h-0.743
		C64.577,5.835,64.6,5.524,64.6,5.069V3.461h-1.609c-0.066,0.655-0.188,1.121-0.421,1.653c-0.244,0.533-0.532,0.898-1.12,1.409
		c-0.178-0.244-0.289-0.344-0.533-0.521c0.644-0.51,0.843-0.754,1.076-1.276c0.177-0.388,0.255-0.688,0.322-1.265h-0.399
		c-0.477,0-0.766,0.011-1.043,0.056V2.795c0.289,0.044,0.577,0.056,1.043,0.056h0.443c0.034-0.577,0.044-0.81,0.044-1.564H62.192z
		 M63.08,1.287c0,0.766-0.011,1.054-0.044,1.564H64.6V1.287H63.08z M67.14,4.582c0.044-0.233,0.067-0.555,0.067-0.999V1.775
		c0-0.444-0.022-0.743-0.067-0.999h0.81c-0.044,0.244-0.056,0.51-0.056,0.976v1.864c0,0.477,0.011,0.732,0.044,0.965H67.14z
		 M70.168,5.369c0,0.666-0.244,0.843-1.131,0.843c-0.355,0-0.721-0.011-1.098-0.044C67.894,5.835,67.85,5.68,67.75,5.436
		c0.399,0.066,0.788,0.1,0.998,0.1c0.011,0,0.034,0,0.067,0c0.055,0,0.177,0,0.333,0c0.255-0.011,0.311-0.056,0.311-0.255V1.397
		c0-0.488-0.011-0.754-0.066-1.076h0.843c-0.044,0.244-0.067,0.577-0.067,1.098V5.369z"/>
	<path fill="#E71F19" d="M74.321,0.943c-0.167,0.477-0.299,1.021-0.466,1.775c-0.233,1.165-0.333,2.141-0.333,3.472
		c0,0.865,0.022,1.52,0.067,2.108c0.155-0.744,0.366-1.354,0.721-2.164l0.532,0.255c-0.499,1.098-0.898,2.429-0.898,3.051
		c0,0.033,0,0.088,0,0.166l-0.799,0.067c-0.022-0.178-0.033-0.233-0.066-0.444c-0.211-1.176-0.289-1.975-0.289-3.14
		c0-1.575,0.133-2.751,0.499-4.393c0.111-0.521,0.133-0.632,0.155-0.888L74.321,0.943z M77.15,5.402
		c-0.555,0.61-0.832,1.143-0.832,1.631c0,0.821,0.699,1.22,2.13,1.22c1.009,0,1.952-0.145,2.551-0.388l0.111,0.854
		c-0.144,0.011-0.167,0.022-0.388,0.055c-0.776,0.155-1.52,0.222-2.274,0.222c-1.265,0-2.063-0.266-2.541-0.843
		c-0.222-0.277-0.333-0.61-0.333-1.021c0-0.677,0.277-1.276,0.965-2.063L77.15,5.402z M75.741,2.119
		c0.477,0.122,1.021,0.167,1.886,0.167c1.231,0,2.23-0.1,2.973-0.299l0.056,0.788c-0.022,0-0.277,0.033-0.766,0.1
		c-0.644,0.089-1.531,0.144-2.385,0.144c-0.621,0-1.054-0.033-1.774-0.111L75.741,2.119z"/>
	<path fill="#E71F19" d="M85.042,8.819c1.576-0.51,1.586-0.521,2.829-1.042l0.011,0.677c-1.353,0.588-2.551,1.021-4.138,1.508
		c-0.255,0.067-0.399,0.122-0.577,0.189l-0.244-0.788c0.433-0.044,0.699-0.111,1.387-0.311v-7.41c0-0.477-0.022-0.765-0.066-1.109
		h0.865c-0.044,0.3-0.067,0.622-0.067,1.109v2.163h1.853c0.488,0,0.732-0.011,0.998-0.066v0.799
		c-0.255-0.044-0.543-0.066-0.998-0.066h-1.853V8.819z M89.18,8.952c0,0.299,0.177,0.344,1.253,0.344
		c1.032,0,1.342-0.044,1.475-0.222c0.178-0.222,0.255-0.843,0.277-2.097c0.255,0.167,0.422,0.244,0.699,0.322
		c-0.1,1.387-0.211,1.963-0.477,2.296c-0.233,0.299-0.688,0.388-1.986,0.388c-1.642,0-1.963-0.145-1.963-0.876V1.642
		c0-0.543-0.022-0.832-0.066-1.109h0.854c-0.044,0.322-0.066,0.644-0.066,1.109v2.94c1.498-0.865,2.496-1.653,3.017-2.418
		l0.566,0.599c-0.178,0.155-0.266,0.233-0.411,0.355c-0.832,0.788-1.875,1.509-3.172,2.229V8.952z"/>
	<path fill="#E71F19" d="M94.11,5.879c0.421-0.277,1.298-1.243,2.229-2.474c0.322-0.422,0.411-0.533,0.555-0.666
		c0.311-0.277,0.599-0.421,0.888-0.421c0.311,0,0.61,0.155,0.954,0.499c0.111,0.1,0.3,0.311,0.81,0.899
		c1.021,1.187,2.529,2.651,3.517,3.417c0.421,0.333,0.643,0.477,0.887,0.577l-0.377,0.954c-0.1-0.1-0.122-0.122-0.266-0.233
		c-0.688-0.543-1.953-1.675-2.696-2.407c-0.655-0.666-1.076-1.12-2.152-2.374c-0.299-0.344-0.477-0.477-0.666-0.477
		c-0.244,0-0.344,0.089-0.876,0.799c-0.655,0.876-1.231,1.575-1.941,2.363c-0.2,0.222-0.222,0.244-0.322,0.366L94.11,5.879z
		 M101.354,2.119c0.433,0.444,0.754,0.876,1.154,1.531l-0.555,0.333c-0.367-0.621-0.644-0.999-1.154-1.553L101.354,2.119z
		 M102.407,1.52c0.433,0.444,0.755,0.876,1.165,1.531l-0.566,0.333c-0.354-0.632-0.643-1.009-1.153-1.564L102.407,1.52z"/>
	<path fill="#E71F19" d="M105.64,2.141c0.211,0,0.321,0,0.399,0c0.155,0,0.289-0.011,0.633-0.034c1.32-0.1,4.869-0.299,6.301-0.366
		c0.621-0.022,1.143-0.067,1.32-0.122l0.066,0.832c-0.443,0-0.821,0.044-1.242,0.144c-0.744,0.2-1.521,0.599-2.131,1.121
		c-0.887,0.743-1.364,1.642-1.364,2.563c0,0.932,0.565,1.675,1.554,2.052c0.543,0.2,1.242,0.355,1.664,0.355c0.021,0,0.066,0,0.11,0
		l-0.144,0.898c-0.123-0.022-0.167-0.033-0.345-0.066c-1.099-0.189-1.764-0.422-2.396-0.854c-0.788-0.532-1.232-1.353-1.232-2.263
		c0-1.287,0.755-2.519,2.075-3.406c0.344-0.233,0.632-0.388,1.054-0.588c-0.654,0.111-1.209,0.167-2.44,0.244
		c-2.296,0.155-3.284,0.244-3.827,0.366L105.64,2.141z"/>
	<path fill="#E71F19" d="M119.678,2.651c0.609,0.366,0.998,0.632,1.464,0.998c0.909-0.688,1.409-1.176,2.108-2.041h-3.007
		c-0.998,0.954-1.874,1.564-3.173,2.208c-0.133-0.233-0.244-0.377-0.432-0.555c1.309-0.577,2.362-1.298,3.283-2.252
		c0.398-0.41,0.621-0.699,0.776-1.009l0.799,0.2c-0.101,0.122-0.111,0.122-0.355,0.421c-0.133,0.155-0.177,0.211-0.354,0.411h2.107
		c0.455,0,0.766-0.022,1.031-0.056l0.377,0.421c-0.676,0.843-0.765,0.943-0.998,1.187c-0.876,0.954-1.985,1.842-3.128,2.529
		c-0.999,0.588-1.908,0.999-3.194,1.431c-0.078-0.233-0.2-0.421-0.389-0.654c1.465-0.389,2.685-0.954,3.982-1.831
		c-0.377-0.333-0.811-0.644-1.42-0.999L119.678,2.651z M121.896,5.624c-1.021,0.91-2.03,1.498-3.628,2.119
		c-0.155-0.3-0.243-0.422-0.421-0.599c1.475-0.5,2.584-1.098,3.482-1.864c0.577-0.488,0.977-0.921,1.209-1.331l0.722,0.277
		c-0.478,0.543-0.511,0.577-0.755,0.821h1.964c0.466,0,0.776-0.022,1.043-0.056l0.399,0.433c-0.133,0.167-0.133,0.167-0.322,0.411
		c-1.01,1.331-1.941,2.163-3.25,2.917c-1.265,0.732-2.407,1.154-4.504,1.675c-0.133-0.322-0.178-0.399-0.399-0.699
		c1.708-0.255,3.395-0.843,4.715-1.653c-0.433-0.399-0.799-0.666-1.486-1.054l0.565-0.411c0.644,0.399,0.898,0.588,1.52,1.076
		c0.844-0.599,1.398-1.143,2.131-2.063H121.896z"/>
	<path fill="#E71F19" d="M129.167,1.608c-0.056,0.344-0.077,0.71-0.077,1.32c0,1.22,0.121,2.74,0.288,3.45
		c0.244,1.131,0.699,1.897,1.12,1.897c0.2,0,0.389-0.188,0.555-0.555c0.255-0.555,0.433-1.143,0.577-1.897
		c0.244,0.289,0.344,0.388,0.654,0.632c-0.544,1.941-1.054,2.685-1.842,2.685c-0.621,0-1.197-0.621-1.575-1.686
		c-0.388-1.054-0.543-2.474-0.599-5.203c-0.011-0.422-0.011-0.455-0.033-0.655L129.167,1.608z M134.525,2.196
		c0.721,0.854,1.176,1.586,1.586,2.529c0.422,0.932,0.633,1.72,0.832,2.962l-0.788,0.322c-0.199-2.063-1.009-3.96-2.307-5.469
		L134.525,2.196z"/>
</g>
<g>
	<path fill="#E71F19" d="M52.381,176.861c-0.832-0.954-1.176-1.486-1.542-2.385c-0.366-0.888-0.533-1.764-0.533-2.729
		c0-0.966,0.167-1.842,0.533-2.729c0.366-0.898,0.71-1.431,1.542-2.385h0.987c-0.932,0.942-1.298,1.442-1.686,2.296
		c-0.399,0.888-0.599,1.809-0.599,2.818c0,1.009,0.2,1.93,0.599,2.816c0.388,0.855,0.754,1.354,1.686,2.297H52.381z"/>
	<path fill="#E71F19" d="M59.762,166.876c-0.033,0.189-0.055,0.633-0.055,0.988c0,0.654,0.111,1.785,0.244,2.406
		c0.188,0.889,0.788,2.197,1.431,3.107c0.444,0.621,1.043,1.253,1.642,1.752c0.355,0.299,0.643,0.488,1.287,0.865
		c-0.266,0.244-0.388,0.377-0.577,0.699c-1.354-0.921-2.152-1.697-2.94-2.84c-0.688-1.01-1.109-2.041-1.442-3.527
		c-0.2,1.053-0.388,1.652-0.766,2.473c-0.388,0.855-0.876,1.564-1.586,2.275c-0.621,0.643-1.076,1.009-2.041,1.619
		c-0.188-0.3-0.322-0.443-0.599-0.654c1.121-0.621,1.62-0.988,2.263-1.676c1.542-1.652,2.296-3.783,2.296-6.512
		c0-0.466-0.011-0.688-0.044-0.977H59.762z"/>
	<path fill="#E71F19" d="M66.301,176.329c0.055-0.411,0.078-0.776,0.078-1.276v-6.145c0-0.5-0.011-0.799-0.056-1.176
		c0.388,0.044,0.666,0.055,1.187,0.055h5.835c0.521,0,0.81-0.011,1.198-0.055c-0.044,0.344-0.056,0.665-0.056,1.176v6.145
		c0,0.488,0.022,0.889,0.078,1.276h-0.832v-0.888h-6.6v0.888H66.301z M67.133,174.753h6.6v-6.279h-6.6V174.753z"/>
	<path fill="#E71F19" d="M77.709,171.924c0-0.433,0.011-0.81,0.044-1.364c-0.477,0.854-0.688,1.188-1.12,1.719
		c-0.122-0.232-0.233-0.398-0.433-0.598c0.666-0.788,1.154-1.554,1.564-2.463c0.411-0.91,0.688-1.775,0.788-2.475l0.766,0.2
		c-0.133,0.366-0.133,0.366-0.333,1.009c-0.144,0.444-0.21,0.621-0.588,1.587v6.013c0,0.532,0.011,0.909,0.056,1.297h-0.81
		c0.044-0.398,0.067-0.754,0.067-1.33V171.924z M79.129,172.435c0-0.311-0.011-0.5-0.034-0.721c0.311,0.021,0.555,0.033,1.054,0.033
		h5.047c0.477,0,0.865-0.012,1.275-0.057c-0.022,0.2-0.033,0.455-0.033,0.744v0.377c0,0.244,0.011,0.466,0.044,0.666h-0.732v-1.143
		h-5.957v1.131h-0.71c0.033-0.211,0.044-0.41,0.044-0.666V172.435z M82.413,167.509c0-0.299-0.022-0.532-0.066-0.743h0.821
		c-0.033,0.211-0.055,0.433-0.055,0.743v0.232h2.174c0.444,0,0.821-0.021,1.099-0.066v0.722c-0.322-0.044-0.644-0.056-1.054-0.056
		h-4.87c-0.399,0-0.721,0.012-1.043,0.056v-0.722c0.311,0.045,0.61,0.066,1.076,0.066h1.919V167.509z M81.137,173.833
		c-0.5,0-0.843,0.022-1.087,0.056v-0.71c0.233,0.033,0.566,0.056,1.076,0.056h3.284c0.532,0,0.843-0.012,1.087-0.056v0.71
		c-0.244-0.033-0.599-0.056-1.109-0.056H83.3v1.997c0,0.643-0.233,0.81-1.109,0.81c-0.488,0-0.766-0.011-1.187-0.044
		c-0.022-0.277-0.066-0.455-0.155-0.711c0.466,0.078,0.91,0.123,1.287,0.123c0.377,0,0.466-0.057,0.466-0.277v-1.897H81.137z
		 M80.183,169.695c0-0.289-0.011-0.477-0.044-0.776c0.277,0.033,0.621,0.056,1.032,0.056h3.294c0.399,0,0.743-0.022,1.021-0.056
		c-0.033,0.288-0.044,0.443-0.044,0.754v0.732c0,0.267,0.011,0.444,0.044,0.698c-0.255-0.033-0.565-0.044-1.054-0.044h-3.25
		c-0.455,0-0.766,0.011-1.043,0.044c0.033-0.287,0.044-0.454,0.044-0.754V169.695z M80.837,170.504h3.949v-0.976h-3.949V170.504z"/>
	<path fill="#E71F19" d="M87.864,169.595c0.732,0.432,1.143,0.732,1.808,1.32l-0.421,0.609c-0.61-0.621-0.999-0.92-1.797-1.397
		L87.864,169.595z M89.805,173.289c-0.421,1.165-0.632,1.62-1.298,2.773c-0.089,0.133-0.089,0.133-0.222,0.355
		c-0.066,0.121-0.066,0.121-0.122,0.211l-0.622-0.6c0.521-0.443,1.187-1.686,1.73-3.205L89.805,173.289z M88.374,166.867
		c0.71,0.487,1.121,0.832,1.697,1.441l-0.466,0.533c-0.577-0.666-0.976-0.999-1.697-1.477L88.374,166.867z M90.826,171.458v1.221
		h-0.71c0.022-0.189,0.033-0.377,0.033-0.61v-0.622c0-0.232-0.011-0.432-0.033-0.609c0.2,0.021,0.444,0.033,0.898,0.033h5.436
		c0.499,0,0.71-0.012,0.987-0.045c-0.022,0.2-0.033,0.311-0.033,0.645v0.531c0,0.289,0.011,0.444,0.044,0.666h-0.721v-1.209h-2.695
		v1.143h1.542c0.499,0,0.788-0.012,1.009-0.045c-0.033,0.268-0.044,0.545-0.044,0.999v1.753c0,0.555-0.222,0.732-0.92,0.732
		c-0.167,0-0.488-0.022-0.744-0.045c-0.022-0.244-0.055-0.443-0.133-0.666c0.311,0.057,0.577,0.09,0.843,0.09
		c0.222,0,0.3-0.057,0.3-0.211v-2.02h-1.853v2.618c0,0.421,0.022,0.677,0.066,0.976h-0.788c0.044-0.311,0.066-0.576,0.066-0.976
		v-2.618h-1.653v1.809c0,0.466,0.011,0.766,0.056,1.098h-0.788c0.033-0.311,0.055-0.688,0.055-1.131v-1.432
		c0-0.389-0.011-0.676-0.033-0.965c0.222,0.021,0.588,0.033,1.043,0.033h1.32v-1.143H90.826z M96.517,169.517
		c0,0.256,0.011,0.433,0.033,0.621c-0.255-0.021-0.444-0.033-0.976-0.033h-3.672c-0.421,0-0.721,0.012-0.921,0.033
		c0.022-0.188,0.033-0.377,0.033-0.609v-1.132c-0.455,0.011-0.543,0.022-0.765,0.056v-0.732c0.222,0.045,0.421,0.056,0.765,0.066
		v-0.155c0-0.366-0.011-0.599-0.066-0.888h0.776c-0.055,0.289-0.066,0.511-0.066,0.865v0.178h1.708v-0.166
		c0-0.366-0.022-0.644-0.067-0.898h0.766c-0.044,0.277-0.066,0.521-0.066,0.898v0.166h1.875v-0.178c0-0.344-0.022-0.588-0.066-0.865
		h0.776c-0.055,0.277-0.066,0.511-0.066,0.888v0.155c0.51,0,0.743-0.011,1.032-0.066v0.732c-0.322-0.045-0.588-0.056-1.032-0.056
		V169.517z M93.366,168.397h-1.708v1.132h1.708V168.397z M95.873,169.529v-1.132h-1.875v1.132H95.873z"/>
	<path fill="#E71F19" d="M98.551,176.861c0.932-0.932,1.298-1.441,1.687-2.297c0.399-0.887,0.599-1.808,0.599-2.816
		c0-1.01-0.2-1.931-0.599-2.818c-0.389-0.854-0.754-1.364-1.687-2.296h0.987c0.832,0.954,1.176,1.486,1.542,2.385
		c0.367,0.888,0.533,1.764,0.533,2.729c0,0.965-0.166,1.841-0.533,2.729c-0.366,0.898-0.71,1.431-1.542,2.385H98.551z"/>
</g>
<line fill="none" stroke="#E71F19" stroke-miterlimit="10" x1="77.221" y1="135.781" x2="77.221" y2="153.08"/>
<line fill="none" stroke="#E71F19" stroke-miterlimit="10" x1="77.221" y1="11.732" x2="77.221" y2="29.031"/>
<path fill="none" stroke="#E71F19" stroke-miterlimit="10" d="M108.615,41.031c0-6.627-5.373-12-12-12h-26.73
	c-6.627,0-12,5.373-12,12v1.25c0,6.627,5.373,12,12,12h26.73c6.627,0,12-5.373,12-12V41.031z"/>
</svg>
