<?xml version="1.0" encoding="utf-8"?>
<!-- Generator: Adobe Illustrator 16.0.0, SVG Export Plug-In . SVG Version: 6.00 Build 0)  -->
<!DOCTYPE svg PUBLIC "-//W3C//DTD SVG 1.1//EN" "http://www.w3.org/Graphics/SVG/1.1/DTD/svg11.dtd">
<svg version="1.1" id="レイヤー_1" xmlns="http://www.w3.org/2000/svg" xmlns:xlink="http://www.w3.org/1999/xlink" x="0px"
	 y="0px" width="150.883px" height="103.75px" viewBox="0 0 150.883 103.75" enable-background="new 0 0 150.883 103.75"
	 xml:space="preserve">
<g>
	<rect x="12.272" y="11.55" fill="none" width="40.875" height="9.25"/>
	<path fill="#040000" d="M29.771,18.542c-0.064-0.288-0.152-0.568-0.248-0.815l-0.416-1.032h-2.79l-0.416,1.032
		c-0.12,0.304-0.192,0.536-0.248,0.815h-0.831c0.159-0.264,0.216-0.384,0.432-0.919l1.791-4.414c0.151-0.376,0.216-0.56,0.256-0.744
		h0.808c0.031,0.152,0.071,0.256,0.271,0.744l1.791,4.414c0.2,0.479,0.304,0.711,0.424,0.919H29.771z M27.883,13.505
		c-0.023-0.064-0.023-0.072-0.176-0.512c-0.04,0.12-0.071,0.208-0.088,0.264c-0.048,0.128-0.071,0.216-0.088,0.248l-1.023,2.638
		h2.407L27.883,13.505z"/>
	<path fill="#040000" d="M33.413,13.233c0-0.384-0.016-0.664-0.048-0.983c0.265,0.032,0.504,0.04,0.936,0.04h4.781
		c0.424,0,0.656-0.008,0.952-0.04c-0.032,0.295-0.048,0.567-0.048,0.983v4.869c0,0.583,0.016,0.879,0.048,1.095h-0.56V18.71h-5.55
		v0.487h-0.56c0.032-0.216,0.048-0.503,0.048-1.095V13.233z M33.924,18.254h5.55v-5.509h-5.55V18.254z M35.292,13.928
		c-0.345,0-0.536,0.008-0.752,0.04v-0.512c0.224,0.04,0.399,0.048,0.752,0.048h2.822c0.359,0,0.575-0.016,0.783-0.048v0.512
		c-0.224-0.032-0.416-0.04-0.775-0.04h-1.231v1.24h0.983c0.36,0,0.52-0.008,0.72-0.04v0.503c-0.2-0.032-0.384-0.04-0.72-0.04h-0.983
		v1.463h1.344c0.327,0,0.56-0.016,0.783-0.048v0.527c-0.232-0.032-0.472-0.048-0.783-0.048h-3.047c-0.328,0-0.552,0.016-0.791,0.048
		v-0.527c0.224,0.032,0.455,0.048,0.791,0.048h1.207v-1.463H35.54c-0.336,0-0.527,0.008-0.728,0.04v-0.503
		c0.2,0.032,0.36,0.04,0.728,0.04h0.855v-1.24H35.292z M37.859,15.735c0.327,0.328,0.455,0.504,0.751,0.952l-0.375,0.24
		c-0.28-0.488-0.408-0.664-0.712-0.991L37.859,15.735z"/>
</g>
<g>
	<rect x="110.008" y="72.444" fill="none" width="40.875" height="9.25"/>
	<path fill="#040000" d="M111.501,79.437c-0.352,0-0.6,0.008-0.881,0.023c0.057-0.32,0.072-0.527,0.072-0.992V74.19
		c0-0.344-0.016-0.559-0.063-0.848c0.246,0.017,0.406,0.017,0.871,0.017h1.703c1.158,0,1.807,0.528,1.807,1.472
		c0,0.463-0.145,0.814-0.432,1.07c-0.168,0.145-0.313,0.217-0.633,0.32c0.369,0.072,0.561,0.152,0.777,0.336
		c0.326,0.279,0.494,0.688,0.494,1.199c0,1.071-0.703,1.68-1.926,1.68H111.501z M113.197,75.966c0.742,0,1.184-0.392,1.184-1.063
		c0-0.663-0.4-0.999-1.191-0.999h-1.879v2.063H113.197z M111.31,78.892h1.926c0.871,0,1.336-0.415,1.336-1.183
		c0-0.792-0.465-1.2-1.352-1.2h-1.91V78.892z"/>
	<path fill="#040000" d="M118.406,74.127c0-0.384-0.016-0.663-0.049-0.983c0.266,0.031,0.504,0.039,0.936,0.039h4.781
		c0.424,0,0.656-0.008,0.953-0.039c-0.033,0.295-0.049,0.567-0.049,0.983v4.869c0,0.583,0.016,0.88,0.049,1.095h-0.561v-0.486
		h-5.549v0.486h-0.561c0.033-0.215,0.049-0.503,0.049-1.095V74.127z M118.917,79.147h5.549V73.64h-5.549V79.147z M120.285,74.822
		c-0.344,0-0.535,0.009-0.752,0.04v-0.512c0.225,0.04,0.4,0.049,0.752,0.049h2.822c0.359,0,0.576-0.017,0.783-0.049v0.512
		c-0.223-0.031-0.416-0.04-0.775-0.04h-1.23v1.239h0.982c0.361,0,0.52-0.008,0.721-0.039v0.503c-0.201-0.032-0.385-0.04-0.721-0.04
		h-0.982v1.463h1.344c0.326,0,0.559-0.016,0.783-0.047v0.527c-0.232-0.032-0.473-0.049-0.783-0.049h-3.047
		c-0.328,0-0.553,0.017-0.791,0.049v-0.527c0.223,0.031,0.455,0.047,0.791,0.047h1.207v-1.463h-0.855
		c-0.336,0-0.527,0.008-0.729,0.04v-0.503c0.201,0.031,0.361,0.039,0.729,0.039h0.855v-1.239H120.285z M122.851,76.63
		c0.328,0.328,0.455,0.504,0.752,0.951l-0.375,0.24c-0.281-0.488-0.408-0.664-0.713-0.992L122.851,76.63z"/>
</g>
<g>
	<rect x="54.831" fill="none" width="40.875" height="9.25"/>
	<path fill="#040000" d="M56.107,6.712c0,0.456,0.016,0.695,0.048,0.896h-0.592c0.032-0.216,0.048-0.464,0.048-0.896V1.475
		c0-0.392-0.008-0.624-0.031-0.879c0.224,0.024,0.432,0.032,0.831,0.032h1.199c0.4,0,0.592-0.008,0.815-0.032
		c-0.016,0.224-0.023,0.464-0.023,0.759v0.872c0,0.312,0.008,0.536,0.023,0.736c-0.224-0.016-0.472-0.024-0.808-0.024h-1.511V6.712z
		 M56.107,1.587h1.839V1.003h-1.839V1.587z M56.107,2.563h1.839V1.955h-1.839V2.563z M59.09,5.457
		C59.474,6,60.033,6.353,60.865,6.576c-0.112,0.16-0.168,0.264-0.24,0.448c0.288,0.04,0.487,0.056,0.695,0.056
		c0.216,0,0.28-0.048,0.28-0.232v-3.91h-1.655c-0.344,0-0.6,0.008-0.815,0.024c0.016-0.208,0.023-0.448,0.023-0.736V1.355
		c0-0.28-0.008-0.52-0.023-0.759c0.224,0.024,0.416,0.032,0.815,0.032h1.352c0.407,0,0.615-0.008,0.839-0.032
		c-0.031,0.304-0.04,0.527-0.04,0.879v5.397c0,0.544-0.136,0.664-0.775,0.664c-0.224,0-0.487-0.016-0.751-0.032
		C60.545,7.272,60.521,7.176,60.449,7c0.088,0.016,0.096,0.016,0.176,0.024c-0.84-0.296-1.415-0.719-1.839-1.335
		c-0.304,0.768-0.8,1.175-1.951,1.591c-0.08-0.176-0.16-0.288-0.296-0.416c0.68-0.192,1.096-0.392,1.415-0.68
		c0.208-0.192,0.344-0.408,0.448-0.728h-1.008c-0.328,0-0.512,0.008-0.728,0.04V5.025c0.184,0.032,0.376,0.04,0.712,0.04h1.119
		c0.032-0.24,0.04-0.335,0.048-0.711H57.53c-0.296,0-0.503,0.008-0.68,0.032V3.93c0.185,0.032,0.353,0.04,0.68,0.04h0.408
		c-0.152-0.256-0.248-0.392-0.487-0.672l0.407-0.167c0.248,0.32,0.399,0.551,0.56,0.839h0.815c0.232-0.328,0.328-0.504,0.48-0.848
		l0.447,0.136c-0.151,0.28-0.271,0.463-0.447,0.711h0.455c0.32,0,0.488-0.008,0.68-0.04v0.456c-0.176-0.024-0.392-0.032-0.68-0.032
		H59.01c-0.016,0.352-0.023,0.479-0.063,0.711h1.358c0.344,0,0.504-0.008,0.712-0.04v0.472c-0.2-0.032-0.384-0.04-0.72-0.04H59.09z
		 M59.617,1.587h1.983V1.003h-1.983V1.587z M59.617,2.563h1.983V1.955h-1.983V2.563z"/>
	<path fill="#040000" d="M64.539,1.307c-0.359,0.088-0.52,0.12-0.983,0.2c-0.056-0.176-0.104-0.271-0.208-0.423
		c1.151-0.16,1.927-0.392,2.359-0.712l0.304,0.416c-0.064,0.032-0.072,0.032-0.2,0.096c-0.304,0.128-0.496,0.208-0.783,0.288v1.295
		h0.384c0.247,0,0.399-0.008,0.552-0.032v0.504c-0.16-0.024-0.313-0.032-0.552-0.032h-0.368c0.256,0.656,0.52,1.071,0.951,1.527
		c-0.136,0.168-0.176,0.232-0.271,0.424c-0.368-0.48-0.536-0.784-0.735-1.375c0.016,0.368,0.016,0.368,0.04,1.191V6.72
		c0,0.456,0.016,0.704,0.048,0.927h-0.584c0.032-0.248,0.048-0.496,0.048-0.927V4.801c0-0.296,0.024-0.879,0.04-1.263
		c-0.264,0.943-0.632,1.647-1.207,2.367c-0.097-0.192-0.168-0.304-0.296-0.456c0.367-0.408,0.632-0.799,0.911-1.335
		c0.192-0.376,0.384-0.879,0.472-1.208h-0.527c-0.304,0-0.488,0.008-0.672,0.04v-0.52c0.184,0.032,0.344,0.04,0.672,0.04h0.607
		V1.307z M68.409,2.011c0.352-0.592,0.512-0.936,0.712-1.575l0.52,0.2c-0.264,0.6-0.456,0.951-0.728,1.375h0.479
		c0.271,0,0.447-0.008,0.655-0.032c-0.023,0.152-0.031,0.288-0.031,0.527v1.295c0,0.224,0.008,0.376,0.031,0.576
		c-0.199-0.024-0.384-0.032-0.655-0.032h-0.488v2.51c0,0.192,0.064,0.216,0.528,0.216c0.344,0,0.464-0.04,0.527-0.168
		c0.064-0.152,0.104-0.472,0.128-1.056c0.185,0.128,0.296,0.184,0.472,0.232c-0.063,0.736-0.12,1.016-0.256,1.208
		c-0.136,0.2-0.352,0.256-1.031,0.256c-0.703,0-0.863-0.104-0.863-0.584V4.346h-0.752c-0.023,0.719-0.12,1.255-0.319,1.751
		c-0.296,0.728-0.736,1.191-1.495,1.591c-0.112-0.168-0.208-0.271-0.384-0.416c0.72-0.328,1.111-0.688,1.383-1.288
		c0.2-0.432,0.304-0.975,0.312-1.639h-0.296c-0.256,0-0.415,0.008-0.615,0.032c0.016-0.184,0.024-0.368,0.024-0.583V2.53
		c0-0.176-0.009-0.368-0.024-0.551c0.224,0.024,0.368,0.032,0.632,0.032H68.409z M67.226,1.883c-0.2-0.496-0.376-0.808-0.688-1.215
		l0.456-0.208c0.319,0.456,0.504,0.776,0.703,1.215L67.226,1.883z M66.746,3.906h2.79V2.451h-2.79V3.906z"/>
	<path fill="#040000" d="M71.58,1.339c0-0.272-0.009-0.504-0.032-0.736c0.12,0.016,0.288,0.024,0.552,0.024h0.808
		c0.288,0,0.455-0.008,0.592-0.024l0.264,0.296c-0.056,0.096-0.056,0.096-0.248,0.592c-0.184,0.488-0.439,1.063-0.704,1.575
		c0.288,0.352,0.4,0.536,0.528,0.855c0.136,0.352,0.208,0.744,0.208,1.095c0,0.64-0.272,0.872-1.016,0.872c-0.024,0-0.024,0-0.168,0
		c0-0.208-0.024-0.32-0.096-0.472c0.144,0.016,0.224,0.024,0.336,0.024c0.392,0,0.479-0.088,0.479-0.504
		c0-0.335-0.064-0.655-0.208-0.991c-0.144-0.32-0.256-0.496-0.56-0.832c0.376-0.712,0.607-1.263,0.855-2.047h-1.104V6.68
		c0,0.512,0.008,0.728,0.048,0.976h-0.584c0.04-0.248,0.049-0.488,0.049-0.983V1.339z M74.714,5.457
		c-0.264,0-0.512,0.008-0.751,0.032c0.023-0.304,0.031-0.424,0.031-0.671v-1.04c0-0.32-0.008-0.552-0.031-0.728
		c0.151,0.024,0.407,0.032,0.759,0.032h2.495c0.352,0,0.576-0.008,0.744-0.032c-0.023,0.2-0.033,0.368-0.033,0.704v1.023
		c0,0.376,0.01,0.52,0.033,0.711c-0.217-0.024-0.465-0.032-0.752-0.032h-1.047v0.583h1.487c0.424,0,0.664-0.008,0.824-0.04v0.52
		c-0.176-0.032-0.512-0.048-0.84-0.048h-1.471v0.384c0,0.344,0.016,0.608,0.048,0.8h-0.575c0.031-0.192,0.048-0.464,0.048-0.8V6.472
		h-1.439c-0.328,0-0.632,0.016-0.84,0.048V6.009c0.176,0.024,0.424,0.032,0.8,0.032h1.479V5.457H74.714z M77.433,1.011
		c0.328,0,0.566-0.016,0.791-0.04v0.48c-0.207-0.024-0.432-0.032-0.783-0.032h-0.16c-0.104,0.304-0.217,0.56-0.328,0.784h0.729
		c0.311,0,0.559-0.016,0.775-0.04v0.504c-0.225-0.024-0.496-0.04-0.785-0.04h-3.397c-0.28,0-0.544,0.016-0.775,0.04V2.163
		c0.208,0.024,0.439,0.04,0.688,0.04h0.647c-0.064-0.288-0.144-0.52-0.256-0.784h-0.04c-0.312,0-0.512,0.008-0.68,0.032v-0.48
		c0.24,0.032,0.479,0.04,0.792,0.04h1.007v-0.12c0-0.192-0.008-0.344-0.032-0.512h0.561c-0.032,0.168-0.04,0.288-0.04,0.512v0.12
		H77.433z M74.466,4.074h2.991V3.49h-2.991V4.074z M74.466,5.049h2.991V4.465h-2.991V5.049z M76.473,2.203
		c0.113-0.232,0.216-0.488,0.312-0.784h-1.719c0.12,0.296,0.192,0.528,0.256,0.784H76.473z"/>
	<path fill="#040000" d="M80.347,2.354c-0.08,0.992-0.32,1.743-0.775,2.455c-0.129-0.184-0.207-0.264-0.375-0.368
		c0.543-0.744,0.742-1.615,0.742-3.214c0-0.32-0.008-0.463-0.023-0.616c0.152,0.016,0.359,0.024,0.68,0.024h1.295
		c0.271,0,0.553-0.008,0.672-0.024c-0.016,0.12-0.023,0.336-0.023,0.6v0.56c0,0.352,0,0.472,0.016,0.6
		c-0.049-0.008-0.049-0.008-0.16-0.008c-0.016,0-0.057,0-0.119-0.008c-0.049,0-0.176,0-0.361,0H80.347z M82.626,5.505
		c0-0.28-0.016-0.424-0.049-0.607h0.584c-0.031,0.191-0.039,0.304-0.039,0.607v0.08h1.693c0.434,0,0.625-0.008,0.84-0.048v0.527
		c-0.248-0.032-0.455-0.04-0.84-0.04h-1.693v0.904h2.311c0.439,0,0.68-0.008,0.887-0.04v0.528c-0.271-0.032-0.568-0.048-0.904-0.048
		h-5.164c-0.336,0-0.641,0.016-0.896,0.048V6.888c0.201,0.024,0.457,0.04,0.873,0.04h2.398V6.024h-1.711
		c-0.393,0-0.6,0.008-0.84,0.04V5.537c0.215,0.04,0.391,0.048,0.84,0.048h1.711V5.505z M82.066,1.947V1.043h-1.654v0.248
		c0,0.208-0.008,0.376-0.023,0.656H82.066z M80.419,3.666c0-0.352-0.008-0.48-0.023-0.672c0.176,0.024,0.271,0.024,0.615,0.024
		h0.871c0.393,0,0.535-0.008,0.68-0.032c-0.016,0.192-0.016,0.288-0.016,0.664v0.528c0,0.384,0,0.503,0.016,0.671
		c-0.217-0.016-0.416-0.024-0.68-0.024h-0.791c-0.359,0-0.48,0.008-0.695,0.024c0.016-0.224,0.023-0.328,0.023-0.68V3.666z
		 M80.859,4.425h1.248V3.418h-1.248V4.425z M83.746,2.515c-0.111-0.328-0.176-0.472-0.4-0.848l0.424-0.136
		c0.217,0.408,0.313,0.64,0.424,0.983h0.623c0.16-0.312,0.266-0.576,0.385-0.983l0.48,0.136c-0.16,0.352-0.297,0.624-0.416,0.848
		h0.344c0.352,0,0.559-0.008,0.752-0.04v0.488c-0.232-0.032-0.4-0.04-0.768-0.04h-0.881v0.792h0.721c0.336,0,0.471-0.008,0.68-0.04
		v0.496c-0.217-0.04-0.369-0.048-0.688-0.048h-0.713v0.152c0,0.432,0.008,0.672,0.049,0.88h-0.561
		c0.033-0.248,0.049-0.456,0.049-0.88V4.122h-0.584c-0.313,0-0.48,0.008-0.688,0.048V3.674c0.207,0.032,0.352,0.04,0.688,0.04h0.584
		V2.922h-0.801c-0.336,0-0.535,0.008-0.742,0.04V2.475c0.176,0.032,0.367,0.04,0.734,0.04H83.746z M84.234,0.852
		c0-0.224-0.018-0.36-0.049-0.528h0.568c-0.033,0.136-0.049,0.264-0.049,0.528v0.152H85.4c0.352,0,0.576-0.016,0.775-0.048v0.503
		c-0.199-0.032-0.398-0.04-0.742-0.04h-1.775c-0.336,0-0.527,0.008-0.721,0.04V0.956c0.186,0.032,0.416,0.048,0.76,0.048h0.537
		V0.852z"/>
</g>
<g>
	<rect x="4.688" y="55.042" fill="none" width="56.042" height="9.25"/>
	<path fill="#040000" d="M12.091,59.499c-0.023,0.12-0.031,0.176-0.04,0.328c-0.008,0.112-0.071,0.52-0.096,0.664
		c-0.104,0.512-0.399,0.999-0.84,1.367c-0.415,0.359-0.799,0.551-1.551,0.783c-0.104-0.216-0.176-0.328-0.344-0.504
		c0.52-0.111,0.76-0.199,1.079-0.367c0.832-0.464,1.216-1.088,1.216-1.967c0-0.12-0.008-0.185-0.024-0.32L12.091,59.499z
		 M12.404,56.157c0-0.336-0.009-0.52-0.049-0.735h0.592c-0.031,0.184-0.048,0.384-0.048,0.735v0.152h2.399
		c0.415,0,0.663-0.017,0.871-0.049v0.544c-0.24-0.032-0.512-0.048-0.863-0.048h-2.407v0.824h1.848c0.432,0,0.655-0.009,0.847-0.049
		v0.527c-0.231-0.031-0.424-0.039-0.847-0.039h-4.078c-0.384,0-0.607,0.008-0.84,0.039v-0.527c0.192,0.032,0.416,0.049,0.84,0.049
		h1.735v-0.824h-2.207c-0.384,0-0.616,0.016-0.888,0.048v-0.544c0.208,0.032,0.456,0.049,0.896,0.049h2.199V56.157z M9.341,60.187
		c0.023-0.176,0.032-0.319,0.032-0.543v-0.456c0-0.224-0.009-0.368-0.032-0.544c0.248,0.024,0.447,0.032,0.791,0.032h5.149
		c0.36,0,0.552-0.008,0.8-0.032c-0.024,0.168-0.032,0.305-0.032,0.536v0.456c0,0.239,0.008,0.392,0.032,0.551h-0.544v-1.063H9.876
		v1.063H9.341z M13.643,61.714c0,0.24,0.088,0.272,0.815,0.272c0.743,0,0.967-0.032,1.071-0.168c0.104-0.136,0.168-0.44,0.208-1.063
		c0.151,0.088,0.319,0.16,0.504,0.199c-0.064,0.729-0.185,1.12-0.376,1.296c-0.185,0.159-0.544,0.216-1.375,0.216
		c-0.592,0-0.896-0.032-1.104-0.104c-0.192-0.072-0.256-0.192-0.256-0.473v-1.759c0-0.344-0.009-0.487-0.04-0.64h0.6
		c-0.032,0.168-0.048,0.336-0.048,0.624V61.714z"/>
	<path fill="#040000" d="M17.269,60.515c0.224-0.144,0.8-0.703,1.407-1.352c0.008-0.319,0.024-0.823,0.048-1.526
		c-1.071,0.071-1.071,0.071-1.255,0.112l-0.032-0.553c0.128,0.017,0.176,0.017,0.248,0.017c0.023,0,0.376-0.024,1.047-0.063
		c0.024-0.608,0.032-0.969,0.032-1.072c0-0.168-0.008-0.24-0.023-0.399l0.631,0.008c-0.04,0.192-0.063,0.448-0.096,1.423
		c0.072-0.008,0.096-0.016,0.16-0.039l0.208,0.247c-0.104,0.089-0.2,0.208-0.408,0.496c0,0.088,0,0.151-0.008,0.2
		c-0.008,0.16-0.008,0.16-0.016,0.535c0,0,0,0.032-0.008,0.072c0,0.064-0.009,0.08-0.009,0.128l0.017,0.008
		c0.119-0.176,0.392-0.432,1.016-0.936c0.728-0.583,1.327-0.88,1.807-0.88c0.575,0,0.936,0.36,0.936,0.936
		c0,0.272-0.048,0.568-0.184,1.168c-0.296,1.287-0.345,1.566-0.345,1.895c0,0.368,0.168,0.568,0.48,0.568
		c0.216,0,0.487-0.176,0.68-0.44c0.199-0.28,0.359-0.607,0.455-0.919c0.168,0.295,0.216,0.367,0.368,0.543
		c-0.224,0.424-0.312,0.568-0.496,0.792c-0.319,0.392-0.68,0.575-1.104,0.575c-0.207,0-0.415-0.063-0.56-0.168
		c-0.264-0.184-0.376-0.463-0.376-0.911c0-0.407,0.017-0.495,0.305-1.862c0.159-0.729,0.199-0.984,0.199-1.199
		c0-0.265-0.168-0.433-0.439-0.433c-0.312,0-0.695,0.177-1.207,0.544c-0.48,0.352-0.704,0.552-1.543,1.359v1.727
		c0,1.023,0,1.088,0.023,1.328h-0.624c0.049-0.297,0.049-0.297,0.057-1.32c0-0.936,0-0.936,0.023-1.295h-0.016
		c-0.032,0.064-0.056,0.088-0.144,0.191c-0.12,0.137-0.12,0.137-0.393,0.44c-0.088,0.096-0.199,0.224-0.336,0.376
		c-0.127,0.144-0.151,0.168-0.207,0.256L17.269,60.515z"/>
	<path fill="#040000" d="M26.892,55.941c-0.12,0.344-0.216,0.735-0.336,1.279c-0.168,0.839-0.239,1.543-0.239,2.503
		c0,0.623,0.016,1.096,0.048,1.52c0.111-0.536,0.264-0.977,0.52-1.56l0.384,0.184c-0.359,0.792-0.647,1.751-0.647,2.198
		c0,0.024,0,0.064,0,0.121l-0.576,0.047c-0.016-0.127-0.023-0.168-0.048-0.319c-0.151-0.848-0.208-1.423-0.208-2.263
		c0-1.135,0.097-1.982,0.36-3.166c0.08-0.376,0.096-0.456,0.111-0.64L26.892,55.941z M28.931,59.155
		c-0.399,0.439-0.6,0.824-0.6,1.176c0,0.592,0.504,0.879,1.535,0.879c0.728,0,1.407-0.104,1.839-0.279l0.08,0.615
		c-0.104,0.008-0.12,0.017-0.28,0.041c-0.56,0.111-1.095,0.159-1.639,0.159c-0.911,0-1.487-0.192-1.831-0.607
		c-0.16-0.2-0.24-0.44-0.24-0.735c0-0.488,0.2-0.92,0.696-1.487L28.931,59.155z M27.916,56.789c0.344,0.088,0.735,0.12,1.359,0.12
		c0.888,0,1.607-0.072,2.143-0.217l0.04,0.568c-0.016,0-0.199,0.023-0.552,0.072c-0.464,0.063-1.104,0.104-1.719,0.104
		c-0.447,0-0.76-0.023-1.279-0.08L27.916,56.789z"/>
	<path fill="#040000" d="M38.218,56.054c-0.088,0.072-0.151,0.127-0.983,0.928c-0.399,0.375-0.831,0.734-1.839,1.511
		c-0.296,0.224-0.352,0.288-0.352,0.399c0,0.145,0.063,0.2,0.711,0.703c1.16,0.889,1.384,1.072,2.559,2.184
		c0.12,0.119,0.137,0.128,0.225,0.199l-0.504,0.496c-0.192-0.271-0.504-0.607-1.031-1.096c-0.536-0.495-0.855-0.76-2.023-1.67
		c-0.447-0.353-0.575-0.528-0.575-0.801c0-0.191,0.08-0.375,0.231-0.535c0.096-0.096,0.096-0.096,0.68-0.544
		c1.063-0.815,2.063-1.751,2.343-2.19L38.218,56.054z"/>
	<path fill="#040000" d="M42.468,56.421c-0.04,0.248-0.056,0.512-0.056,0.951c0,0.88,0.088,1.976,0.208,2.487
		c0.176,0.815,0.504,1.367,0.808,1.367c0.144,0,0.279-0.136,0.399-0.399c0.184-0.4,0.312-0.824,0.416-1.367
		c0.176,0.207,0.248,0.279,0.472,0.455c-0.392,1.399-0.76,1.936-1.327,1.936c-0.448,0-0.863-0.448-1.136-1.216
		c-0.279-0.76-0.392-1.783-0.432-3.75c-0.008-0.304-0.008-0.327-0.024-0.472L42.468,56.421z M46.331,56.845
		c0.52,0.615,0.848,1.144,1.144,1.823c0.304,0.671,0.455,1.239,0.6,2.135l-0.568,0.231c-0.144-1.486-0.728-2.854-1.663-3.941
		L46.331,56.845z"/>
	<path fill="#040000" d="M52.412,60.587c0.016-0.248,0.016-0.304,0.016-0.568v-0.287l-0.072-2.847
		c-0.008-0.336-0.016-0.575-0.048-0.88h0.792c-0.024,0.305-0.04,0.544-0.048,0.88l-0.064,2.847
		c-0.008,0.336-0.008,0.336-0.008,0.367c0,0.145,0.008,0.288,0.024,0.488H52.412z M52.324,62.082v-0.751h0.775v0.751H52.324z"/>
</g>
<g>
	<rect x="85.45" y="30.691" fill="none" width="58.718" height="27.854"/>
	<path fill="#040000" d="M89.25,38.242c0,0.513,0.018,0.783,0.053,1.008h-0.666c0.037-0.243,0.055-0.522,0.055-1.008v-5.896
		c0-0.441-0.01-0.703-0.035-0.991c0.252,0.027,0.484,0.036,0.936,0.036h1.35c0.451,0,0.666-0.009,0.918-0.036
		c-0.018,0.252-0.025,0.522-0.025,0.855v0.981c0,0.351,0.008,0.603,0.025,0.828c-0.252-0.018-0.529-0.027-0.908-0.027H89.25V38.242z
		 M89.25,32.472h2.07v-0.657h-2.07V32.472z M89.25,33.57h2.07v-0.684h-2.07V33.57z M92.607,36.829
		c0.432,0.612,1.063,1.008,1.998,1.261c-0.125,0.18-0.188,0.297-0.27,0.504c0.324,0.045,0.549,0.063,0.783,0.063
		c0.244,0,0.314-0.054,0.314-0.261v-4.402H93.57c-0.387,0-0.674,0.009-0.918,0.027c0.018-0.234,0.027-0.504,0.027-0.828V32.21
		c0-0.315-0.01-0.585-0.027-0.855c0.252,0.027,0.469,0.036,0.918,0.036h1.521c0.459,0,0.693-0.009,0.945-0.036
		c-0.035,0.342-0.045,0.594-0.045,0.991v6.077c0,0.612-0.152,0.747-0.873,0.747c-0.252,0-0.549-0.018-0.846-0.036
		c-0.027-0.261-0.055-0.369-0.135-0.567c0.098,0.018,0.107,0.018,0.197,0.027c-0.945-0.333-1.594-0.81-2.07-1.503
		c-0.342,0.864-0.9,1.323-2.197,1.792c-0.09-0.198-0.18-0.324-0.332-0.468c0.764-0.216,1.232-0.441,1.594-0.765
		c0.232-0.216,0.387-0.459,0.504-0.819h-1.135c-0.369,0-0.576,0.009-0.82,0.045v-0.531c0.207,0.036,0.424,0.045,0.803,0.045h1.26
		c0.035-0.27,0.045-0.378,0.055-0.801h-1.145c-0.332,0-0.566,0.009-0.766,0.036v-0.513c0.207,0.036,0.396,0.045,0.766,0.045h0.459
		c-0.17-0.288-0.279-0.441-0.549-0.756l0.459-0.189c0.279,0.36,0.451,0.621,0.631,0.945h0.918c0.262-0.369,0.369-0.567,0.541-0.954
		l0.504,0.153c-0.172,0.315-0.307,0.522-0.504,0.801h0.512c0.361,0,0.549-0.009,0.766-0.045v0.513
		c-0.197-0.027-0.441-0.036-0.766-0.036h-1.305c-0.018,0.396-0.027,0.54-0.072,0.801h1.531c0.387,0,0.566-0.009,0.801-0.045v0.531
		c-0.225-0.036-0.432-0.045-0.811-0.045H92.607z M93.201,32.472h2.232v-0.657h-2.232V32.472z M93.201,33.57h2.232v-0.684h-2.232
		V33.57z"/>
	<path fill="#040000" d="M98.736,32.156c-0.406,0.099-0.586,0.135-1.107,0.225c-0.064-0.198-0.117-0.306-0.234-0.477
		c1.297-0.18,2.17-0.441,2.656-0.801l0.342,0.468c-0.072,0.036-0.082,0.036-0.225,0.108c-0.344,0.144-0.559,0.234-0.883,0.324v1.458
		h0.432c0.279,0,0.451-0.009,0.621-0.036v0.567c-0.18-0.027-0.352-0.036-0.621-0.036h-0.414c0.289,0.738,0.586,1.206,1.072,1.719
		c-0.154,0.189-0.199,0.261-0.307,0.478c-0.414-0.541-0.604-0.882-0.828-1.549c0.018,0.414,0.018,0.414,0.045,1.341v2.305
		c0,0.513,0.018,0.792,0.053,1.044h-0.656c0.035-0.279,0.055-0.558,0.055-1.044v-2.16c0-0.333,0.025-0.991,0.045-1.423
		c-0.297,1.063-0.711,1.854-1.359,2.665c-0.109-0.216-0.189-0.342-0.334-0.513c0.414-0.459,0.711-0.9,1.027-1.503
		c0.215-0.423,0.432-0.99,0.531-1.359H98.05c-0.342,0-0.549,0.009-0.756,0.045v-0.585c0.207,0.036,0.387,0.045,0.756,0.045h0.686
		V32.156z M103.093,32.949c0.395-0.667,0.576-1.053,0.801-1.773l0.584,0.225c-0.297,0.675-0.512,1.071-0.818,1.548h0.541
		c0.305,0,0.504-0.009,0.738-0.036c-0.027,0.171-0.037,0.324-0.037,0.594v1.458c0,0.252,0.01,0.423,0.037,0.648
		c-0.227-0.027-0.434-0.036-0.738-0.036h-0.551v2.827c0,0.216,0.072,0.243,0.596,0.243c0.387,0,0.521-0.045,0.594-0.189
		c0.072-0.171,0.117-0.531,0.145-1.188c0.207,0.144,0.332,0.207,0.531,0.261c-0.072,0.828-0.137,1.143-0.289,1.359
		c-0.152,0.225-0.396,0.288-1.162,0.288c-0.791,0-0.971-0.117-0.971-0.657v-2.944h-0.848c-0.027,0.81-0.135,1.413-0.359,1.971
		c-0.334,0.819-0.828,1.342-1.684,1.792c-0.127-0.189-0.234-0.306-0.432-0.468c0.811-0.369,1.25-0.774,1.557-1.45
		c0.225-0.486,0.342-1.098,0.352-1.845h-0.334c-0.287,0-0.467,0.009-0.693,0.036c0.02-0.207,0.027-0.414,0.027-0.657v-1.422
		c0-0.198-0.008-0.414-0.027-0.621c0.254,0.027,0.414,0.036,0.713,0.036H103.093z M101.759,32.805
		c-0.225-0.558-0.422-0.909-0.773-1.369l0.514-0.234c0.359,0.513,0.566,0.873,0.791,1.368L101.759,32.805z M101.22,35.082h3.143
		v-1.638h-3.143V35.082z"/>
	<path fill="#040000" d="M109.914,36.217c-0.521,1.188-1.053,1.729-1.701,1.729c-0.855,0-1.494-0.937-1.494-2.197
		c0-0.918,0.342-1.81,0.945-2.485c0.721-0.792,1.701-1.197,2.908-1.197c1.008,0,1.891,0.315,2.475,0.891
		c0.568,0.549,0.873,1.333,0.873,2.197c0,1.396-0.756,2.548-2.061,3.106c-0.406,0.171-0.748,0.279-1.369,0.414
		c-0.09-0.297-0.145-0.387-0.314-0.603c0.656-0.108,1.08-0.225,1.504-0.423c0.99-0.45,1.592-1.414,1.592-2.521
		c0-1.026-0.521-1.854-1.43-2.26c-0.334-0.144-0.596-0.207-1.045-0.225C110.662,33.894,110.32,35.271,109.914,36.217z
		 M108.806,33.075c-0.908,0.549-1.467,1.566-1.467,2.683c0,0.864,0.377,1.531,0.863,1.531c0.379,0,0.738-0.423,1.127-1.306
		c0.369-0.846,0.701-2.179,0.818-3.331C109.607,32.697,109.22,32.823,108.806,33.075z"/>
	<path fill="#040000" d="M118.644,31.4c-0.082,0.108-0.117,0.18-0.252,0.459c-0.693,1.396-1.566,2.439-2.836,3.376
		c-0.117-0.18-0.234-0.315-0.441-0.486c1.09-0.729,1.863-1.557,2.467-2.638c0.225-0.396,0.342-0.675,0.387-0.945L118.644,31.4z
		 M117.771,34.902c-0.342,0-0.648,0.018-0.928,0.054v-0.639c0.262,0.036,0.566,0.054,0.936,0.054h2.963
		c0.414,0,0.684-0.009,0.945-0.045c-0.027,0.162-0.027,0.234-0.037,0.639c0,1.747-0.17,3.268-0.404,3.691
		c-0.152,0.27-0.369,0.36-0.891,0.36c-0.297,0-0.613-0.018-1.18-0.072c-0.027-0.243-0.055-0.378-0.145-0.639
		c0.496,0.099,0.945,0.153,1.27,0.153c0.287,0,0.387-0.054,0.449-0.225c0.189-0.549,0.299-1.774,0.299-3.331h-2.098
		c-0.082,0.99-0.289,1.666-0.703,2.368c-0.469,0.783-1.17,1.396-2.27,1.962c-0.115-0.207-0.207-0.324-0.395-0.504
		c1.152-0.558,1.836-1.152,2.268-1.972c0.297-0.567,0.424-1.063,0.486-1.854H117.771z M120.57,31.184
		c0.072,0.234,0.154,0.414,0.342,0.756c0.658,1.179,1.424,1.989,2.656,2.8c-0.17,0.162-0.287,0.315-0.422,0.549
		c-1.424-1.054-2.189-1.963-3.035-3.619c-0.045-0.081-0.1-0.18-0.145-0.252L120.57,31.184z"/>
	<path fill="#040000" d="M124.726,32.958c0.289,0.054,0.648,0.081,1.127,0.081c0.18,0,0.277,0,0.539-0.018
		c0.18-1.107,0.199-1.26,0.199-1.656l0.711,0.072c-0.055,0.216-0.055,0.216-0.162,0.855c-0.045,0.288-0.072,0.414-0.117,0.684
		c0.701-0.072,1.188-0.162,1.619-0.306l0.047,0.621c-0.072,0.009-0.072,0.009-0.254,0.045c-0.459,0.099-1.08,0.18-1.521,0.216
		c-0.135,0.711-0.387,1.729-0.629,2.548c-0.297,0.963-0.559,1.647-1.035,2.746l-0.658-0.279c0.666-1.162,1.359-3.214,1.693-4.979
		c-0.18,0.009-0.289,0.009-0.621,0.009c-0.316,0-0.396,0-0.748-0.018c-0.018,0-0.035,0-0.035,0c-0.018,0-0.072,0-0.154,0.009V32.958
		z M128.751,36.226c-0.18,0.216-0.207,0.243-0.27,0.342c-0.145,0.189-0.227,0.423-0.227,0.639c0,0.54,0.549,0.828,1.576,0.828
		c0.676,0,1.477-0.126,1.99-0.306l0.063,0.675c-0.1,0.018-0.1,0.018-0.396,0.063c-0.604,0.108-1.125,0.153-1.602,0.153
		c-1.477,0-2.242-0.459-2.242-1.35c0-0.405,0.125-0.684,0.604-1.296L128.751,36.226z M131.533,34.668
		c-0.432-0.045-0.684-0.063-1.063-0.063c-0.801,0-1.432,0.081-2.25,0.306l-0.063-0.612c1.043-0.225,1.629-0.297,2.385-0.297
		c0.172,0,0.307,0,0.98,0.027L131.533,34.668z M130.083,31.508c0.441,0.513,0.594,0.738,0.883,1.251l-0.459,0.252
		c-0.252-0.486-0.496-0.837-0.865-1.26L130.083,31.508z M130.974,31.067c0.434,0.513,0.596,0.738,0.873,1.251l-0.449,0.252
		c-0.262-0.486-0.496-0.828-0.873-1.26L130.974,31.067z"/>
	<path fill="#040000" d="M135.267,31.67c-0.289,0.855-0.551,2.701-0.551,3.925c0,0.496,0.037,1.162,0.072,1.468
		c0.037,0.198,0.055,0.387,0.055,0.486c0.18-0.639,0.242-0.801,0.756-1.908l0.459,0.216c-0.26,0.531-0.486,1.089-0.666,1.576
		c-0.18,0.531-0.252,0.837-0.252,1.143l-0.621,0.054c-0.018-0.117-0.027-0.144-0.072-0.315c-0.225-0.847-0.332-1.72-0.332-2.665
		c0-1.063,0.08-1.8,0.359-3.466c0.063-0.369,0.072-0.459,0.08-0.622L135.267,31.67z M136.185,33.489
		c0.342,0.081,0.863,0.117,1.529,0.117c0.361,0,0.693-0.018,1.145-0.054c-0.045-1.566-0.064-1.828-0.109-2.098l0.693-0.009
		c-0.018,0.144-0.025,0.198-0.025,0.306c0,0.063,0,0.108,0.008,0.27c0.01,0.207,0.01,0.207,0.055,1.458
		c0.684-0.099,1.098-0.216,1.432-0.378l0.045,0.648c-0.189,0.036-0.207,0.036-0.479,0.108c-0.342,0.081-0.621,0.135-0.98,0.18
		c0.01,0.243,0.01,0.387,0.01,0.648c0,1.71-0.162,2.449-0.693,3.169c-0.334,0.441-0.721,0.756-1.414,1.162
		c-0.18-0.234-0.252-0.306-0.486-0.486c0.631-0.306,1.053-0.621,1.377-1.035c0.459-0.585,0.604-1.243,0.604-2.683
		c0-0.252,0-0.45-0.018-0.711c-0.396,0.036-0.918,0.054-1.314,0.054c-0.252,0-0.766-0.018-1.09-0.036
		c-0.08-0.009-0.125-0.009-0.162-0.009c-0.027,0-0.072,0-0.135,0.009L136.185,33.489z"/>
	<path fill="#040000" d="M89.132,46.172c0-0.459,0.008-0.621,0.035-1.089c-0.26,0.513-0.432,0.792-0.828,1.305
		c-0.098-0.171-0.225-0.36-0.359-0.495c0.684-0.783,1.125-1.521,1.494-2.521c0.207-0.567,0.287-0.855,0.342-1.27l0.621,0.162
		c-0.063,0.171-0.09,0.252-0.17,0.486c-0.189,0.594-0.289,0.837-0.586,1.494v4.952c0,0.432,0.018,0.747,0.045,1.054h-0.648
		c0.037-0.324,0.055-0.613,0.055-1.081V46.172z M90.572,50.296c0.037-0.307,0.045-0.567,0.045-1.108v-3.97
		c0-0.387-0.018-0.693-0.053-0.945h0.639c-0.027,0.243-0.045,0.567-0.045,0.963v4.033h4.25c0.439,0,0.674-0.009,0.918-0.045v0.613
		c-0.297-0.037-0.541-0.055-0.928-0.055h-4.24v0.514H90.572z M91.49,43.562c-0.377,0-0.576,0.009-0.836,0.036v-0.576
		c0.234,0.036,0.449,0.045,0.863,0.045h1.818c0.055-0.36,0.064-0.495,0.1-0.9l0.586,0.036c-0.072,0.441-0.09,0.567-0.145,0.864
		h1.711c0.414,0,0.584-0.009,0.836-0.054v0.594c-0.26-0.036-0.504-0.045-0.801-0.045h-1.846c-0.08,0.36-0.08,0.36-0.197,0.855h1.387
		c0.359,0,0.584-0.009,0.783-0.027c-0.018,0.234-0.027,0.369-0.027,0.855v2.62c0,0.351,0.01,0.522,0.027,0.765
		c-0.307-0.018-0.504-0.027-0.793-0.027h-2.098c-0.297,0-0.494,0.009-0.783,0.027c0.018-0.207,0.027-0.441,0.027-0.729v-2.737
		l-0.01-0.342V44.66c0-0.072-0.008-0.144-0.027-0.27c0.227,0.018,0.424,0.027,0.758,0.027h0.215c0.1-0.378,0.145-0.567,0.207-0.855
		H91.49z M92.617,45.641h2.592v-0.765h-2.592V45.641z M92.617,46.875h2.592V46.1h-2.592V46.875z M92.617,48.144h2.592v-0.811h-2.592
		V48.144z"/>
	<path fill="#040000" d="M98.375,49.341c0,0.333,0.02,0.603,0.064,0.91h-0.668c0.047-0.315,0.064-0.585,0.064-0.91v-0.603
		c-0.271,0.045-0.434,0.072-0.568,0.117l-0.098-0.648c0.26,0,0.27,0,0.666-0.054v-4.24c0-0.378-0.01-0.594-0.037-0.819
		c0.982-0.144,2.197-0.576,2.674-0.945l0.379,0.522c-0.828,0.414-1.584,0.684-2.477,0.873v0.891h1.459
		c0.352,0,0.559-0.009,0.801-0.045v0.585c-0.225-0.027-0.432-0.036-0.783-0.036h-1.477v1.17h1.449c0.352,0,0.541-0.009,0.793-0.045
		v0.585c-0.217-0.027-0.441-0.036-0.783-0.036h-1.459v1.468c0.928-0.144,1.469-0.261,2.332-0.495l0.018,0.531
		c-0.773,0.207-1.018,0.261-2.35,0.522V49.341z M104.919,46.29c-0.09,0.126-0.135,0.198-0.242,0.387
		c-0.396,0.667-0.855,1.27-1.377,1.783c0.656,0.549,1.314,0.891,2.34,1.207c-0.145,0.153-0.242,0.315-0.352,0.541
		c-1.053-0.396-1.756-0.793-2.402-1.369c-0.766,0.622-1.477,1-2.656,1.396c-0.1-0.216-0.199-0.36-0.352-0.513
		c1.117-0.324,1.873-0.685,2.619-1.27c-0.549-0.604-0.828-1.071-1.16-1.963c-0.172,0.009-0.252,0.018-0.451,0.045V45.92
		c0.154,0.036,0.307,0.045,0.641,0.045h2.385c0.342,0,0.504-0.009,0.684-0.045L104.919,46.29z M104.019,44.633
		c0,0.153,0.072,0.189,0.406,0.189c0.494,0,0.521-0.054,0.584-1.089c0.172,0.117,0.307,0.189,0.514,0.252
		c-0.08,0.657-0.135,0.882-0.252,1.08c-0.125,0.216-0.297,0.261-0.908,0.261c-0.713,0-0.883-0.108-0.883-0.549v-1.8h-1.324
		c-0.008,0.612-0.053,0.945-0.18,1.332c-0.18,0.594-0.424,0.955-0.973,1.44c-0.189-0.198-0.225-0.234-0.477-0.387
		c0.486-0.36,0.721-0.64,0.9-1.099c0.117-0.306,0.189-0.783,0.189-1.305c0-0.216-0.01-0.351-0.037-0.531
		c0.189,0.027,0.387,0.036,0.721,0.036h0.99c0.342,0,0.559-0.009,0.766-0.036c-0.027,0.27-0.037,0.477-0.037,0.855V44.633z
		 M101.886,46.487c0.287,0.711,0.541,1.107,1.025,1.611c0.486-0.468,0.793-0.855,1.252-1.611H101.886z"/>
	<path fill="#040000" d="M106.494,44.669c0.324-0.009,1.26-0.117,1.988-0.234c0.154-0.675,0.271-1.53,0.271-1.908
		c0-0.018,0-0.063,0-0.117l0.719,0.081c-0.063,0.189-0.09,0.351-0.17,0.864c-0.045,0.261-0.109,0.594-0.189,1.026
		c0.207-0.018,0.324-0.027,0.531-0.027c0.639,0,1.018,0.108,1.297,0.378c0.314,0.297,0.439,0.711,0.439,1.449
		c0,1.377-0.232,2.575-0.602,3.097c-0.217,0.306-0.459,0.423-0.883,0.423c-0.387,0-0.766-0.099-1.359-0.351
		c0.018-0.135,0.018-0.198,0.018-0.324c0-0.135,0-0.189-0.027-0.352c0.514,0.261,1.018,0.415,1.342,0.415
		c0.225,0,0.396-0.144,0.514-0.432c0.242-0.576,0.377-1.495,0.377-2.503c0-0.954-0.27-1.26-1.107-1.26
		c-0.197,0-0.314,0.009-0.646,0.045c-0.334,1.414-0.748,2.575-1.359,3.808c-0.117,0.225-0.307,0.585-0.586,1.09l-0.611-0.361
		c0.277-0.351,0.621-0.954,0.936-1.629c0.424-0.9,0.693-1.692,0.99-2.854c-0.773,0.117-1.207,0.189-1.287,0.207
		c-0.207,0.036-0.279,0.054-0.523,0.117L106.494,44.669z M112.408,43.841c0.918,0.99,1.459,1.917,1.881,3.187l-0.576,0.324
		c-0.342-1.233-0.963-2.332-1.836-3.232L112.408,43.841z M112.884,42.598c0.414,0.45,0.621,0.72,0.955,1.26l-0.432,0.271
		c-0.262-0.478-0.551-0.864-0.938-1.279L112.884,42.598z M113.705,42.13c0.414,0.45,0.621,0.729,0.953,1.27l-0.432,0.27
		c-0.262-0.477-0.549-0.864-0.936-1.278L113.705,42.13z"/>
	<path fill="#040000" d="M119.435,49.269h2.945c0.422,0,0.701-0.018,1.008-0.054v0.684c-0.342-0.045-0.621-0.063-1.008-0.063h-5.996
		c-0.387,0-0.721,0.018-1.063,0.063v-0.684c0.297,0.036,0.611,0.054,1.063,0.054h2.412v-6.077c0-0.342-0.018-0.621-0.063-0.936
		h0.766c-0.045,0.306-0.064,0.594-0.064,0.936v1.846h2.279c0.387,0,0.674-0.018,0.936-0.054v0.693
		c-0.279-0.036-0.549-0.054-0.936-0.054h-2.279V49.269z"/>
	<path fill="#040000" d="M124.494,44.669c0.324-0.009,1.26-0.117,1.988-0.234c0.154-0.675,0.271-1.53,0.271-1.908
		c0-0.018,0-0.063,0-0.117l0.719,0.081c-0.063,0.189-0.09,0.351-0.17,0.864c-0.045,0.261-0.109,0.594-0.189,1.026
		c0.207-0.018,0.324-0.027,0.531-0.027c0.639,0,1.018,0.108,1.297,0.378c0.314,0.297,0.439,0.711,0.439,1.449
		c0,1.377-0.232,2.575-0.602,3.097c-0.217,0.306-0.459,0.423-0.883,0.423c-0.387,0-0.766-0.099-1.359-0.351
		c0.018-0.135,0.018-0.198,0.018-0.324c0-0.135,0-0.189-0.027-0.352c0.514,0.261,1.018,0.415,1.342,0.415
		c0.225,0,0.396-0.144,0.514-0.432c0.242-0.576,0.377-1.495,0.377-2.503c0-0.954-0.27-1.26-1.107-1.26
		c-0.197,0-0.314,0.009-0.646,0.045c-0.334,1.414-0.748,2.575-1.359,3.808c-0.117,0.225-0.307,0.585-0.586,1.09l-0.611-0.361
		c0.277-0.351,0.621-0.954,0.936-1.629c0.424-0.9,0.693-1.692,0.99-2.854c-0.773,0.117-1.207,0.189-1.287,0.207
		c-0.207,0.036-0.279,0.054-0.523,0.117L124.494,44.669z M130.408,43.841c0.918,0.99,1.459,1.917,1.881,3.187l-0.576,0.324
		c-0.342-1.233-0.963-2.332-1.836-3.232L130.408,43.841z M130.884,42.598c0.414,0.45,0.621,0.72,0.955,1.26l-0.432,0.271
		c-0.262-0.478-0.551-0.864-0.938-1.279L130.884,42.598z M131.705,42.13c0.414,0.45,0.621,0.729,0.953,1.27l-0.432,0.27
		c-0.262-0.477-0.549-0.864-0.936-1.278L131.705,42.13z"/>
	<path fill="#040000" d="M134.943,42.904c0.252,0.045,0.414,0.054,0.846,0.054c0.748,0,1.945-0.054,2.754-0.117
		c0.234-0.018,0.316-0.036,0.434-0.099l0.377,0.495c-0.125,0.063-0.17,0.099-0.459,0.378c-1.242,1.215-2.332,2.151-2.961,2.557
		l0.018,0.027c0.684-0.369,1.414-0.558,2.205-0.558c1.504,0,2.467,0.738,2.467,1.891c0,1.404-1.305,2.332-3.303,2.332
		c-1.27,0-2-0.468-2-1.296c0-0.603,0.559-1.053,1.307-1.053c0.602,0,1.125,0.261,1.484,0.738c0.189,0.252,0.289,0.468,0.414,0.864
		c0.945-0.261,1.441-0.81,1.441-1.576c0-0.864-0.721-1.377-1.936-1.377c-1.324,0-2.746,0.576-3.791,1.54l-0.404-0.576
		c0.324-0.189,0.648-0.423,1.26-0.918c0.963-0.766,2.387-2.017,3.008-2.629c0.053-0.054,0.053-0.054,0.125-0.126
		c0,0,0.018-0.018,0.037-0.036l0.035-0.036l-0.018-0.018c-0.027,0-0.027,0-0.082,0.009c-0.287,0.054-1.367,0.117-2.736,0.162
		c-0.197,0.009-0.287,0.018-0.486,0.045L134.943,42.904z M136.634,48.027c-0.449,0-0.729,0.216-0.729,0.558
		c0,0.234,0.117,0.405,0.359,0.549c0.234,0.126,0.621,0.207,1.01,0.207c0.225,0,0.332-0.009,0.656-0.063
		C137.734,48.459,137.283,48.027,136.634,48.027z"/>
</g>
<g>
	<rect x="71.948" y="68.146" fill="none" width="40.875" height="23.125"/>
	<path fill="#040000" d="M87.611,70.013c0.336,0,0.51,0.133,0.51,0.49v1.751c0,0.357-0.174,0.49-0.51,0.49h-0.422v0.567h0.813
		c0.119,0,0.189,0.105,0.189,0.238s-0.07,0.225-0.189,0.225h-0.813v0.952c0,0.118-0.068,0.183-0.23,0.183
		c-0.141,0-0.23-0.064-0.23-0.183v-0.952h-0.945c-0.127,0-0.189-0.092-0.189-0.225s0.063-0.238,0.189-0.238h0.945v-0.567h-0.42
		c-0.338,0-0.512-0.133-0.512-0.49v-1.758c0-0.351,0.174-0.483,0.512-0.483h0.42V69.48h-0.896c-0.119,0-0.182-0.091-0.182-0.231
		c0-0.119,0.063-0.217,0.182-0.217h0.896v-0.483c0-0.112,0.09-0.183,0.23-0.183c0.162,0,0.23,0.07,0.23,0.183v0.483h0.855
		c0.125,0,0.189,0.098,0.189,0.217c0,0.141-0.064,0.231-0.189,0.231h-0.855v0.532H87.611z M86.433,70.44
		c-0.119,0-0.189,0.035-0.189,0.154v0.56h0.484V70.44H86.433z M86.244,71.567v0.596c0,0.119,0.07,0.154,0.189,0.154h0.295v-0.75
		H86.244z M87.679,71.154v-0.56c0-0.119-0.063-0.154-0.182-0.154h-0.309v0.714H87.679z M87.498,72.317
		c0.119,0,0.182-0.035,0.182-0.154v-0.596h-0.49v0.75H87.498z M91.939,70.349c-0.049,0-0.1-0.014-0.154-0.049
		c-0.596-0.343-1.197-0.826-1.555-1.281c-0.043-0.063-0.084-0.092-0.119-0.092s-0.078,0.028-0.119,0.092
		c-0.357,0.477-0.896,0.98-1.408,1.303c-0.057,0.035-0.111,0.056-0.168,0.056c-0.076,0-0.146-0.042-0.203-0.126
		c-0.027-0.049-0.043-0.092-0.043-0.141c0-0.076,0.051-0.153,0.135-0.217c0.504-0.309,1.016-0.777,1.387-1.26
		c0.111-0.141,0.258-0.211,0.412-0.211s0.309,0.07,0.42,0.211c0.379,0.447,0.945,0.917,1.506,1.211
		c0.1,0.049,0.148,0.141,0.148,0.23c0,0.043-0.016,0.092-0.043,0.141C92.085,70.308,92.015,70.349,91.939,70.349z M88.892,74.733
		c0,0.111-0.084,0.176-0.225,0.176c-0.133,0-0.225-0.064-0.225-0.176v-3.355c0-0.356,0.168-0.504,0.52-0.504h0.637
		c0.357,0,0.525,0.147,0.525,0.504v2.977c0,0.337-0.146,0.47-0.469,0.47c-0.141,0-0.268-0.014-0.357-0.028
		c-0.105-0.021-0.176-0.104-0.176-0.224c0-0.015,0-0.028,0-0.035c0.014-0.118,0.092-0.188,0.176-0.188c0.014,0,0.027,0,0.035,0.006
		c0.076,0.015,0.146,0.021,0.223,0.021c0.113,0,0.135-0.027,0.135-0.175v-0.771h-0.799V74.733z M89.691,71.974v-0.518
		c0-0.127-0.064-0.162-0.176-0.162h-0.469c-0.119,0-0.154,0.035-0.154,0.162v0.518H89.691z M89.691,73.031v-0.658h-0.799v0.658
		H89.691z M90.937,69.957c0.119,0,0.189,0.098,0.189,0.224c0,0.133-0.07,0.231-0.189,0.231h-1.59c-0.127,0-0.189-0.099-0.189-0.231
		c0-0.126,0.063-0.224,0.189-0.224H90.937z M90.978,73.487c0,0.111-0.09,0.168-0.23,0.168c-0.125,0-0.225-0.057-0.225-0.168v-2.354
		c0-0.112,0.092-0.168,0.225-0.168s0.23,0.056,0.23,0.168V73.487z M91.904,74.243c0,0.393-0.168,0.581-0.582,0.581
		c-0.168,0-0.363-0.014-0.49-0.034c-0.111-0.029-0.189-0.099-0.189-0.238c0-0.015,0-0.035,0-0.049
		c0.021-0.134,0.105-0.197,0.203-0.197c0.014,0,0.029,0,0.043,0.008c0.105,0.021,0.238,0.035,0.336,0.035
		c0.168,0,0.217-0.057,0.217-0.26v-3.138c0-0.126,0.092-0.188,0.23-0.188c0.148,0,0.232,0.063,0.232,0.188V74.243z"/>
	<path fill="#040000" d="M93.945,71.497c-0.414,0-0.645-0.195-0.645-0.623v-1.604c0-0.141,0.105-0.21,0.273-0.21
		c0.16,0,0.279,0.069,0.279,0.21v1.492c0,0.168,0.07,0.224,0.232,0.224h1.484v-2.283c0-0.14,0.111-0.224,0.279-0.224
		s0.287,0.084,0.287,0.224v2.283h1.555c0.162,0,0.232-0.056,0.232-0.224v-1.485c0-0.147,0.105-0.217,0.273-0.217
		c0.16,0,0.279,0.069,0.279,0.217v1.597c0,0.428-0.23,0.623-0.65,0.623h-1.689v2.62h1.814c0.168,0,0.252-0.07,0.252-0.238v-1.562
		c0-0.154,0.113-0.231,0.281-0.231s0.279,0.077,0.279,0.231v1.674c0,0.455-0.238,0.65-0.666,0.65h-4.439
		c-0.428,0-0.658-0.202-0.658-0.658v-1.659c0-0.161,0.105-0.238,0.279-0.238c0.168,0,0.281,0.077,0.281,0.238v1.555
		c0,0.168,0.076,0.238,0.244,0.238h1.766v-2.62H93.945z"/>
</g>
<rect x="69.176" y="8.708" fill="none" stroke="#040000" stroke-width="0.75" stroke-miterlimit="10" width="8.75" height="9.467"/>
<rect x="69.176" y="18.175" fill="none" stroke="#040000" stroke-width="0.75" stroke-miterlimit="10" width="8.75" height="9.467"/>
<rect x="69.176" y="27.642" fill="none" stroke="#040000" stroke-width="0.75" stroke-miterlimit="10" width="8.75" height="9.466"/>
<rect x="69.176" y="46.575" fill="none" stroke="#040000" stroke-width="0.75" stroke-miterlimit="10" width="8.75" height="9.467"/>
<rect x="69.176" y="56.042" fill="none" stroke="#040000" stroke-width="0.75" stroke-miterlimit="10" width="8.75" height="9.466"/>
<rect x="69.176" y="74.975" fill="none" stroke="#040000" stroke-width="0.75" stroke-miterlimit="10" width="8.75" height="9.467"/>
<rect x="69.176" y="84.441" fill="none" stroke="#040000" stroke-width="0.75" stroke-miterlimit="10" width="8.75" height="9.467"/>
<rect x="69.176" y="93.908" fill="none" stroke="#040000" stroke-width="0.75" stroke-miterlimit="10" width="8.75" height="9.467"/>
<rect x="69.176" y="37.108" fill="#FFFFFF" stroke="#040000" stroke-width="0.75" stroke-miterlimit="10" width="8.75" height="9.467"/>
<g>
	<g>
		<line fill="none" stroke="#040000" stroke-miterlimit="10" x1="106.844" y1="76.606" x2="48.202" y2="76.606"/>
		<g>
			<path fill="#040000" d="M55.037,71.807c0.148,0.232,0.079,0.542-0.154,0.69l-6.452,4.109l6.452,4.109
				c0.233,0.148,0.303,0.458,0.154,0.69s-0.46,0.3-0.691,0.153l-7.114-4.531C47.088,76.937,47,76.777,47,76.606
				s0.088-0.33,0.231-0.422l7.114-4.531c0.084-0.053,0.177-0.078,0.269-0.078C54.779,71.575,54.941,71.657,55.037,71.807z"/>
		</g>
	</g>
</g>
<rect x="69.176" y="65.508" fill="#FFFFFF" stroke="#040000" stroke-width="0.75" stroke-miterlimit="10" width="8.75" height="9.467"/>
<path fill="none" stroke="#040000" stroke-miterlimit="10" d="M129.406,76.268c0,2.606-2.112,4.719-4.719,4.719h-13.124
	c-2.606,0-4.719-2.112-4.719-4.719l0,0c0-2.606,2.112-4.719,4.719-4.719h13.124C127.293,71.549,129.406,73.661,129.406,76.268
	L129.406,76.268z"/>
<polyline fill="none" stroke="#040000" stroke-miterlimit="10" points="21.5,16.175 0.5,16.175 0.5,93.908 60,93.908 60,16.175 
	42.667,16.175 "/>
<g>
	<path d="M43.979,75.648l-1.372-5.814c-0.145-0.702-0.762-1.206-1.479-1.206H27.657c-0.593,0-1.132,0.348-1.376,0.89l-2.679,5.073
		l-5.272,0.979c-0.714,0.132-1.233,0.756-1.233,1.483v4.239c0,0.834,0.676,1.51,1.509,1.51h1.81
		c0.308,1.544,1.671,2.708,3.307,2.708c1.635,0,2.998-1.164,3.307-2.708h7.937c0.309,1.544,1.671,2.708,3.307,2.708
		c1.636,0,2.999-1.164,3.307-2.708H42.5c0.834,0,1.51-0.676,1.51-1.51v-5.341C44.01,75.85,44,75.749,43.979,75.648z M23.724,83.297
		c-0.641,0-1.159-0.519-1.159-1.158c0-0.641,0.519-1.159,1.159-1.159c0.64,0,1.159,0.519,1.159,1.159
		C24.882,82.778,24.363,83.297,23.724,83.297z M38.274,83.297c-0.64,0-1.159-0.519-1.159-1.158c0-0.641,0.519-1.159,1.159-1.159
		c0.641,0,1.159,0.519,1.159,1.159C39.433,82.778,38.915,83.297,38.274,83.297z"/>
</g>
<path d="M43.69,40.189l-1.357-6.622c-0.143-0.695-0.754-1.192-1.463-1.192H27.465c-0.546,0-1.049,0.298-1.312,0.776l-2.621,4.807
	l-5.215,0.968c-0.708,0.131-1.221,0.747-1.221,1.468v5.379c0,0.825,0.668,1.492,1.493,1.492h2.383
	c0.305,1.529,1.654,2.681,3.271,2.681c1.618,0,2.966-1.152,3.271-2.681h6.836c0.305,1.529,1.654,2.681,3.271,2.681
	c1.619,0,2.967-1.152,3.271-2.681h1.334c0.824,0,1.493-0.667,1.493-1.492v-5.284C43.721,40.387,43.711,40.287,43.69,40.189z
	 M24.245,47.755c-0.633,0-1.147-0.515-1.147-1.148c0-0.633,0.514-1.146,1.147-1.146c0.633,0,1.147,0.513,1.147,1.146
	C25.392,47.241,24.877,47.755,24.245,47.755z M37.623,47.755c-0.632,0-1.146-0.515-1.146-1.148c0-0.633,0.514-1.146,1.146-1.146
	c0.634,0,1.147,0.513,1.147,1.146C38.77,47.241,38.256,47.755,37.623,47.755z M41.63,45.173h-0.994
	c-0.536-1.123-1.684-1.901-3.014-1.901c-1.329,0-2.476,0.778-3.013,1.901h-7.352c-0.536-1.123-1.683-1.901-3.013-1.901
	c-1.329,0-2.478,0.778-3.013,1.901h-2.044v-4.284l5.802-1.076l2.94-5.35h12.452l1.248,6.086V45.173z"/>
<g>
	<rect x="37.051" y="22.083" fill="none" width="40.875" height="9.25"/>
	<path fill="#040000" d="M37.752,23.765c0-0.384-0.016-0.664-0.048-0.983c0.265,0.032,0.504,0.04,0.936,0.04h4.781
		c0.424,0,0.656-0.008,0.952-0.04c-0.032,0.295-0.048,0.567-0.048,0.983v4.869c0,0.583,0.016,0.879,0.048,1.095h-0.56v-0.487h-5.55
		v0.487h-0.56c0.032-0.216,0.048-0.503,0.048-1.095V23.765z M38.264,28.786h5.55v-5.509h-5.55V28.786z M39.632,24.46
		c-0.345,0-0.536,0.008-0.752,0.04v-0.512c0.224,0.04,0.399,0.048,0.752,0.048h2.822c0.359,0,0.575-0.016,0.783-0.048V24.5
		c-0.224-0.032-0.416-0.04-0.775-0.04H41.23v1.24h0.983c0.36,0,0.52-0.008,0.72-0.04v0.503c-0.2-0.032-0.384-0.04-0.72-0.04H41.23
		v1.463h1.344c0.327,0,0.56-0.016,0.783-0.048v0.527c-0.232-0.032-0.472-0.048-0.783-0.048h-3.047c-0.328,0-0.552,0.016-0.791,0.048
		v-0.527c0.224,0.032,0.455,0.048,0.791,0.048h1.207v-1.463h-0.855c-0.336,0-0.527,0.008-0.728,0.04V25.66
		c0.2,0.032,0.36,0.04,0.728,0.04h0.855v-1.24H39.632z M42.198,26.268c0.327,0.328,0.455,0.504,0.751,0.952l-0.375,0.24
		c-0.28-0.488-0.408-0.664-0.712-0.991L42.198,26.268z"/>
	<path fill="#040000" d="M48.895,22.974c0-0.184-0.016-0.352-0.048-0.544h0.616c-0.032,0.176-0.049,0.352-0.049,0.544v0.176h2.135
		c0.408,0,0.648-0.016,0.848-0.048v0.52c-0.256-0.024-0.472-0.032-0.831-0.032h-0.712c-0.168,0.384-0.304,0.664-0.472,0.96h1.191
		c0.464,0,0.704-0.008,0.928-0.048v0.528c-0.232-0.032-0.472-0.04-0.928-0.04h-4.989c-0.008,2.575-0.224,3.67-0.896,4.646
		c-0.144-0.2-0.2-0.264-0.392-0.408c0.279-0.4,0.432-0.744,0.544-1.199c0.151-0.584,0.239-1.52,0.239-2.479
		c0-0.424-0.008-0.815-0.032-1.047c0.296,0.04,0.521,0.048,0.92,0.048h0.903c-0.104-0.352-0.216-0.624-0.384-0.96h-0.72
		c-0.344,0-0.543,0.008-0.783,0.032v-0.52c0.184,0.032,0.416,0.048,0.8,0.048h2.11V22.974z M47.831,26.403
		c-0.231,0.456-0.455,0.784-0.823,1.224c-0.144-0.16-0.224-0.224-0.392-0.328c0.432-0.439,0.647-0.743,0.888-1.271
		c0.151-0.32,0.231-0.544,0.287-0.832l0.52,0.12c-0.056,0.12-0.144,0.335-0.279,0.647h1.247v-0.16c0-0.288-0.008-0.432-0.04-0.615
		h0.568c-0.032,0.191-0.04,0.328-0.04,0.615v0.16h1.591c0.399,0,0.607-0.016,0.791-0.048v0.52c-0.216-0.024-0.455-0.032-0.791-0.032
		h-1.591v0.976h1.327c0.359,0,0.535-0.008,0.728-0.04v0.504c-0.232-0.024-0.408-0.032-0.728-0.032h-1.327v1.167h2.063
		c0.352,0,0.567-0.008,0.743-0.04v0.536c-0.224-0.032-0.455-0.048-0.751-0.048h-4.558c-0.28,0-0.504,0.016-0.735,0.048v-0.536
		c0.191,0.032,0.399,0.04,0.728,0.04h2.022v-1.167h-0.983c-0.304,0-0.527,0.008-0.743,0.032v-0.496
		c0.176,0.024,0.367,0.032,0.743,0.032h0.983v-0.976H47.831z M49.862,24.549c0.224-0.408,0.312-0.6,0.447-0.96h-2.294
		c0.151,0.312,0.247,0.544,0.384,0.96H49.862z"/>
</g>
<path fill="none" stroke="#000000" stroke-miterlimit="10" d="M51.73,21.187H38.606c-2.606,0-4.719,2.112-4.719,4.719
	s2.112,4.719,4.719,4.719h5.667l-0.259,3.472l3.472-3.472h4.244c2.606,0,4.719-2.112,4.719-4.719S54.336,21.187,51.73,21.187z"/>
<path fill="none" stroke="#040000" stroke-width="0.5" stroke-miterlimit="10" d="M81.333,76.606c0,0,1.77-16.896,11.052-23.564"/>
<path fill="none" stroke="#040000" stroke-miterlimit="10" d="M50.558,53.042H10.58c-3.253,0-5.891,2.638-5.891,5.891
	c0,3.254,2.638,5.892,5.891,5.892h22.979l1.941,2.551l3.941-2.551h11.116c3.253,0,5.891-2.638,5.891-5.892
	C56.449,55.68,53.811,53.042,50.558,53.042z"/>
<g>
</g>
<g>
</g>
<g>
</g>
<g>
</g>
<g>
</g>
<g>
</g>
<g>
</g>
</svg>
