<?xml version="1.0" encoding="utf-8"?>
<!-- Generator: Adobe Illustrator 16.0.0, SVG Export Plug-In . SVG Version: 6.00 Build 0)  -->
<!DOCTYPE svg PUBLIC "-//W3C//DTD SVG 1.1//EN" "http://www.w3.org/Graphics/SVG/1.1/DTD/svg11.dtd">
<svg version="1.1" id="レイヤー_1" xmlns="http://www.w3.org/2000/svg" xmlns:xlink="http://www.w3.org/1999/xlink" x="0px"
	 y="0px" width="226.493px" height="194.89px" viewBox="0 0 226.493 194.89" enable-background="new 0 0 226.493 194.89"
	 xml:space="preserve">
<g>
	<g>
		<polygon fill-rule="evenodd" clip-rule="evenodd" fill="#FFFFFF" points="42.199,4.637 217.038,4.637 217.038,180.558 
			42.199,180.558 42.199,4.637 		"/>
	</g>
	<g>
		<path fill="none" stroke="#868686" stroke-width="0.72" stroke-linejoin="round" stroke-miterlimit="10" d="M42.199,180.558
			h174.839 M42.199,92.597h174.839 M42.199,48.557h174.839 M42.199,4.637h174.839"/>
	</g>
	<g>
		<path fill="none" stroke="#B7B7B7" stroke-width="0.72" stroke-linejoin="round" stroke-miterlimit="10" d="M71.358,4.637v175.921
			 M100.519,4.637v175.921 M129.679,4.637v175.921 M158.839,4.637v175.921 M187.998,4.637v175.921 M217.038,4.637v175.921"/>
	</g>
	<g>
		
			<line fill="none" stroke="#868686" stroke-width="0.72" stroke-linejoin="round" stroke-miterlimit="10" x1="42.199" y1="180.558" x2="42.199" y2="4.637"/>
	</g>
	<g>
		<path fill="none" stroke="#868686" stroke-width="0.72" stroke-linejoin="round" stroke-miterlimit="10" d="M38.958,180.558h3.24
			 M38.958,136.517h3.24 M38.958,92.597h3.24 M38.958,48.557h3.24 M38.958,4.637h3.24"/>
	</g>
	<g>
		
			<line fill="none" stroke="#868686" stroke-width="0.72" stroke-linejoin="round" stroke-miterlimit="10" x1="42.199" y1="136.517" x2="217.038" y2="136.517"/>
	</g>
	<g>
		<path fill="none" stroke="#868686" stroke-width="0.72" stroke-linejoin="round" stroke-miterlimit="10" d="M42.199,136.517v3.359
			 M100.519,136.517v3.359 M158.839,136.517v3.359 M217.038,136.517v3.359"/>
	</g>
	<g>
		<defs>
			<polygon id="SVGID_1_" points="42.199,181.277 217.759,181.277 217.759,4.517 42.199,4.517 42.199,181.277 			"/>
		</defs>
		<clipPath id="SVGID_2_">
			<use xlink:href="#SVGID_1_"  overflow="visible"/>
		</clipPath>
		
			<polyline clip-path="url(#SVGID_2_)" fill="none" stroke="#000000" stroke-width="0.96" stroke-linecap="round" stroke-linejoin="round" stroke-miterlimit="10" points="
			89.119,76.757 111.318,77.117 121.879,75.797 130.639,75.797 102.918,75.437 67.639,76.277 57.679,76.277 60.559,75.797 
			86.838,76.757 104.958,77.597 92.958,77.117 89.479,76.757 89.119,76.757 		"/>
	</g>
	<g>
		<polygon points="89.135,74.178 91.655,76.698 89.135,79.218 86.615,76.698 89.135,74.178 		"/>
		<polygon fill="none" stroke="#000000" stroke-width="0.24" stroke-linejoin="round" stroke-miterlimit="10" points="
			89.135,74.178 91.655,76.698 89.135,79.218 86.615,76.698 89.135,74.178 		"/>
		<polygon points="111.334,74.538 113.854,77.059 111.334,79.578 108.814,77.059 111.334,74.538 		"/>
		<polygon fill="none" stroke="#000000" stroke-width="0.24" stroke-linejoin="round" stroke-miterlimit="10" points="
			111.334,74.538 113.854,77.059 111.334,79.578 108.814,77.059 111.334,74.538 		"/>
		<polygon points="121.895,73.218 124.415,75.738 121.895,78.258 119.375,75.738 121.895,73.218 		"/>
		<polygon fill="none" stroke="#000000" stroke-width="0.24" stroke-linejoin="round" stroke-miterlimit="10" points="
			121.895,73.218 124.415,75.738 121.895,78.258 119.375,75.738 121.895,73.218 		"/>
		<polygon points="130.654,73.218 133.175,75.738 130.654,78.258 128.135,75.738 130.654,73.218 		"/>
		<polygon fill="none" stroke="#000000" stroke-width="0.24" stroke-linejoin="round" stroke-miterlimit="10" points="
			130.654,73.218 133.175,75.738 130.654,78.258 128.135,75.738 130.654,73.218 		"/>
		<polygon points="102.935,72.858 105.455,75.378 102.935,77.898 100.415,75.378 102.935,72.858 		"/>
		<polygon fill="none" stroke="#000000" stroke-width="0.24" stroke-linejoin="round" stroke-miterlimit="10" points="
			102.935,72.858 105.455,75.378 102.935,77.898 100.415,75.378 102.935,72.858 		"/>
		<polygon points="67.655,73.698 70.175,76.218 67.655,78.738 65.135,76.218 67.655,73.698 		"/>
		<polygon fill="none" stroke="#000000" stroke-width="0.24" stroke-linejoin="round" stroke-miterlimit="10" points="
			67.655,73.698 70.175,76.218 67.655,78.738 65.135,76.218 67.655,73.698 		"/>
		<polygon points="57.695,73.698 60.215,76.218 57.695,78.738 55.175,76.218 57.695,73.698 		"/>
		<polygon fill="none" stroke="#000000" stroke-width="0.24" stroke-linejoin="round" stroke-miterlimit="10" points="
			57.695,73.698 60.215,76.218 57.695,78.738 55.175,76.218 57.695,73.698 		"/>
		<polygon points="60.575,73.218 63.095,75.738 60.575,78.258 58.055,75.738 60.575,73.218 		"/>
		<polygon fill="none" stroke="#000000" stroke-width="0.24" stroke-linejoin="round" stroke-miterlimit="10" points="
			60.575,73.218 63.095,75.738 60.575,78.258 58.055,75.738 60.575,73.218 		"/>
		<polygon points="86.854,74.178 89.375,76.698 86.854,79.218 84.334,76.698 86.854,74.178 		"/>
		<polygon fill="none" stroke="#000000" stroke-width="0.24" stroke-linejoin="round" stroke-miterlimit="10" points="
			86.854,74.178 89.375,76.698 86.854,79.218 84.334,76.698 86.854,74.178 		"/>
		<polygon points="104.975,75.019 107.495,77.538 104.975,80.059 102.455,77.538 104.975,75.019 		"/>
		<polygon fill="none" stroke="#000000" stroke-width="0.24" stroke-linejoin="round" stroke-miterlimit="10" points="
			104.975,75.019 107.495,77.538 104.975,80.059 102.455,77.538 104.975,75.019 		"/>
		<polygon points="92.975,74.538 95.495,77.059 92.975,79.578 90.455,77.059 92.975,74.538 		"/>
		<polygon fill="none" stroke="#000000" stroke-width="0.24" stroke-linejoin="round" stroke-miterlimit="10" points="
			92.975,74.538 95.495,77.059 92.975,79.578 90.455,77.059 92.975,74.538 		"/>
		<polygon points="89.495,74.178 92.015,76.698 89.495,79.218 86.975,76.698 89.495,74.178 		"/>
		<polygon fill="none" stroke="#000000" stroke-width="0.24" stroke-linejoin="round" stroke-miterlimit="10" points="
			89.495,74.178 92.015,76.698 89.495,79.218 86.975,76.698 89.495,74.178 		"/>
		<polygon points="89.135,74.178 91.655,76.698 89.135,79.218 86.615,76.698 89.135,74.178 		"/>
		<polygon fill="none" stroke="#000000" stroke-width="0.24" stroke-linejoin="round" stroke-miterlimit="10" points="
			89.135,74.178 91.655,76.698 89.135,79.218 86.615,76.698 89.135,74.178 		"/>
	</g>
	<g>
		<g>
			<path d="M82.067,78.563c0.259,0.04,0.449,0.05,0.827,0.05h0.628c0.339,0,0.498-0.01,0.827-0.05
				c-0.06,0.608-0.089,1.116-0.089,1.654v4.843c0,0.468,0.02,0.757,0.08,1.126h-0.947c0.06-0.349,0.08-0.668,0.08-1.126v-5.77
				h-0.538c-0.319,0-0.578,0.02-0.867,0.06V78.563z"/>
		</g>
	</g>
	<g>
		<g>
			<path d="M135.373,78.248c0.159,0.519,0.299,0.728,0.608,0.947c0.339,0.239,0.776,0.359,1.285,0.359
				c1.155,0,1.883-0.598,1.883-1.544c0-0.987-0.707-1.525-2.032-1.525c-0.279,0-0.528,0.02-0.797,0.05v-0.788
				c0.229,0.04,0.468,0.06,0.737,0.06c0.657,0,1.146-0.149,1.454-0.458c0.249-0.239,0.398-0.608,0.398-0.966
				c0-0.857-0.598-1.355-1.604-1.355c-0.608,0-1.047,0.169-1.325,0.528c-0.14,0.179-0.21,0.339-0.319,0.708l-0.827-0.179
				c0.17-0.508,0.289-0.737,0.538-0.997c0.438-0.479,1.116-0.728,1.983-0.728c1.444,0,2.361,0.757,2.361,1.953
				c0,0.608-0.26,1.146-0.697,1.455c-0.26,0.189-0.479,0.269-0.938,0.359c0.578,0.06,0.888,0.169,1.226,0.428
				c0.438,0.339,0.668,0.867,0.668,1.505c0,1.345-1.036,2.182-2.7,2.182c-1.007,0-1.754-0.279-2.231-0.817
				c-0.21-0.239-0.329-0.458-0.509-0.966L135.373,78.248z"/>
		</g>
	</g>
	<g>
		<g>
			<path d="M100.021,67.323c-0.02,0.179-0.02,0.179-0.08,0.448c0.479-0.458,1.056-0.688,1.744-0.688
				c0.728,0,1.345,0.239,1.793,0.677c0.449,0.429,0.668,1.017,0.668,1.754c0,1.604-1.046,2.63-2.69,2.63
				c-0.777,0-1.425-0.229-1.903-0.677c-0.249-0.25-0.388-0.458-0.627-0.937l0.817-0.239c0.1,0.279,0.169,0.408,0.319,0.578
				c0.339,0.379,0.837,0.588,1.415,0.588c1.116,0,1.863-0.757,1.863-1.903c0-1.096-0.688-1.813-1.744-1.813
				c-0.508,0-0.947,0.139-1.306,0.418c-0.239,0.189-0.349,0.329-0.458,0.598l-0.748-0.07c0.08-0.389,0.11-0.598,0.149-1.026
				l0.219-2.251c0.02-0.289,0.03-0.409,0.03-0.598c0-0.139,0-0.179-0.02-0.428c0.309,0.04,0.468,0.05,1.056,0.05h2.053
				c0.538,0,0.767-0.02,1.166-0.08V65.2c-0.378-0.06-0.697-0.08-1.166-0.08h-2.342L100.021,67.323z"/>
		</g>
	</g>
	<g>
		<g>
			<path d="M54.861,74.743c-0.179,0.14-0.349,0.359-0.737,0.957c-0.896,1.385-1.315,2.232-1.704,3.448
				c-0.259,0.827-0.369,1.335-0.528,2.491h-0.946c0.319-1.804,0.588-2.701,1.206-3.976c0.479-0.996,0.907-1.684,1.793-2.889h-3.238
				c-0.468,0-0.747,0.02-1.126,0.069v-0.847c0.389,0.05,0.658,0.07,1.136,0.07h2.989c0.588,0,0.807-0.01,1.156-0.05V74.743z"/>
		</g>
	</g>
	<g>
		<g>
			<path d="M87.506,70.859c0.12,0.329,0.199,0.468,0.358,0.638c0.279,0.309,0.708,0.468,1.256,0.468
				c0.717,0,1.235-0.289,1.604-0.917c0.189-0.319,0.349-0.807,0.428-1.275c0.04-0.249,0.07-0.658,0.09-1.166
				c-0.14,0.269-0.219,0.369-0.398,0.558c-0.508,0.479-1.066,0.698-1.813,0.698c-0.737,0-1.365-0.229-1.793-0.658
				c-0.429-0.429-0.678-1.086-0.678-1.793c0-1.584,1.066-2.621,2.7-2.621c1.116,0,2.033,0.638,2.412,1.674
				c0.199,0.538,0.289,1.216,0.289,2.072c0,1.385-0.289,2.511-0.827,3.179c-0.499,0.628-1.156,0.927-2.073,0.927
				c-0.688,0-1.246-0.179-1.674-0.538c-0.279-0.229-0.438-0.458-0.698-0.986L87.506,70.859z M91.053,67.352
				c0-1.076-0.797-1.883-1.863-1.883c-0.657,0-1.255,0.319-1.584,0.847c-0.16,0.259-0.259,0.658-0.259,1.046
				c0,1.125,0.688,1.833,1.774,1.833C90.226,69.195,91.053,68.408,91.053,67.352z"/>
		</g>
	</g>
	<g>
		<g>
			<path d="M90.747,80.594c0.259,0.04,0.449,0.05,0.827,0.05h0.628c0.339,0,0.498-0.01,0.827-0.05
				c-0.06,0.608-0.089,1.116-0.089,1.654v4.843c0,0.468,0.02,0.757,0.08,1.126h-0.947c0.06-0.349,0.08-0.668,0.08-1.126v-5.77
				h-0.538c-0.319,0-0.578,0.02-0.867,0.06V80.594z"/>
			<path d="M97.34,80.594c0.259,0.04,0.449,0.05,0.827,0.05h0.628c0.339,0,0.498-0.01,0.827-0.05
				c-0.06,0.608-0.089,1.116-0.089,1.654v4.843c0,0.468,0.02,0.757,0.08,1.126h-0.947c0.06-0.349,0.08-0.668,0.08-1.126v-5.77
				h-0.538c-0.319,0-0.578,0.02-0.867,0.06V80.594z"/>
		</g>
	</g>
	<g>
		<g>
			<path d="M16.32,180.382c0.279,0.041,0.488,0.051,0.907,0.051h1.186c0.428,0,0.638-0.01,0.917-0.051v0.838
				c-0.279-0.041-0.498-0.051-0.917-0.051h-1.186c-0.398,0-0.627,0.01-0.907,0.051V180.382z"/>
			<path d="M21.24,176.078c0.259,0.041,0.449,0.051,0.827,0.051h0.628c0.339,0,0.498-0.01,0.827-0.051
				c-0.06,0.609-0.089,1.117-0.089,1.654v4.844c0,0.467,0.02,0.756,0.08,1.125h-0.947c0.06-0.348,0.08-0.668,0.08-1.125v-5.77
				h-0.538c-0.319,0-0.578,0.02-0.867,0.059V176.078z"/>
			<path d="M27.675,183.142c-0.269-0.268-0.479-0.576-0.598-0.916c-0.25-0.697-0.379-1.484-0.379-2.301
				c0-1.057,0.229-2.133,0.578-2.711c0.478-0.807,1.245-1.225,2.232-1.225c0.737,0,1.375,0.238,1.823,0.707
				c0.279,0.279,0.478,0.588,0.598,0.916c0.25,0.688,0.379,1.484,0.379,2.313c0,1.205-0.259,2.271-0.698,2.879
				c-0.498,0.697-1.195,1.047-2.112,1.047C28.761,183.851,28.143,183.611,27.675,183.142z M28.252,177.185
				c-0.209,0.229-0.369,0.479-0.448,0.727c-0.209,0.607-0.309,1.285-0.309,2.014c0,0.926,0.199,1.902,0.468,2.371
				c0.349,0.578,0.867,0.867,1.544,0.867c0.498,0,0.926-0.16,1.226-0.469c0.219-0.229,0.378-0.488,0.468-0.777
				c0.209-0.617,0.309-1.275,0.309-2.014c0-0.865-0.189-1.852-0.448-2.32c-0.329-0.598-0.867-0.906-1.564-0.906
				C28.98,176.677,28.571,176.845,28.252,177.185z"/>
		</g>
	</g>
	<g>
		<g>
			<path d="M27.634,139.15c-0.269-0.268-0.479-0.576-0.598-0.916c-0.25-0.697-0.379-1.484-0.379-2.301
				c0-1.057,0.229-2.133,0.578-2.711c0.478-0.807,1.245-1.225,2.232-1.225c0.737,0,1.375,0.238,1.823,0.707
				c0.279,0.279,0.479,0.588,0.598,0.916c0.25,0.688,0.379,1.484,0.379,2.313c0,1.205-0.259,2.271-0.698,2.879
				c-0.498,0.697-1.195,1.047-2.112,1.047C28.72,139.859,28.103,139.619,27.634,139.15z M28.212,133.193
				c-0.209,0.229-0.369,0.479-0.448,0.727c-0.209,0.607-0.309,1.285-0.309,2.014c0,0.926,0.199,1.902,0.468,2.371
				c0.349,0.578,0.867,0.867,1.544,0.867c0.498,0,0.926-0.16,1.226-0.469c0.219-0.229,0.378-0.488,0.468-0.777
				c0.209-0.617,0.309-1.275,0.309-2.014c0-0.865-0.189-1.852-0.448-2.32c-0.329-0.598-0.867-0.906-1.564-0.906
				C28.939,132.685,28.531,132.853,28.212,133.193z"/>
		</g>
	</g>
	<g>
		<g>
			<path d="M21.223,88.094c0.259,0.04,0.449,0.05,0.827,0.05h0.628c0.339,0,0.498-0.01,0.827-0.05
				c-0.06,0.608-0.089,1.116-0.089,1.654v4.843c0,0.468,0.02,0.757,0.08,1.126h-0.947c0.06-0.349,0.08-0.668,0.08-1.126v-5.77H22.09
				c-0.319,0-0.578,0.02-0.867,0.06V88.094z"/>
			<path d="M27.657,95.159c-0.269-0.269-0.479-0.578-0.598-0.917c-0.25-0.697-0.379-1.484-0.379-2.301
				c0-1.056,0.229-2.132,0.578-2.71c0.478-0.807,1.245-1.226,2.232-1.226c0.737,0,1.375,0.239,1.823,0.708
				c0.279,0.279,0.478,0.588,0.598,0.917c0.25,0.688,0.379,1.485,0.379,2.312c0,1.206-0.259,2.271-0.698,2.879
				c-0.498,0.697-1.195,1.046-2.112,1.046C28.743,95.866,28.125,95.627,27.657,95.159z M28.235,89.2
				c-0.209,0.229-0.369,0.478-0.448,0.728c-0.209,0.607-0.309,1.285-0.309,2.013c0,0.926,0.199,1.903,0.468,2.371
				c0.349,0.578,0.867,0.867,1.544,0.867c0.498,0,0.926-0.16,1.226-0.468c0.219-0.229,0.378-0.488,0.468-0.777
				c0.209-0.618,0.309-1.275,0.309-2.013c0-0.867-0.189-1.854-0.448-2.322c-0.329-0.598-0.867-0.907-1.564-0.907
				C28.962,88.692,28.554,88.861,28.235,89.2z"/>
		</g>
	</g>
	<g>
		<g>
			<path d="M21.303,51.732c-0.628,0-0.777,0.01-1.096,0.05c0.109-0.787,0.14-0.937,0.289-1.315c0.249-0.628,0.667-1.176,1.295-1.714
				c0.349-0.299,0.369-0.309,1.524-1.096c0.986-0.667,1.315-1.106,1.315-1.713c0-0.757-0.638-1.246-1.654-1.246
				c-0.658,0-1.146,0.219-1.445,0.647c-0.189,0.269-0.279,0.508-0.349,1.006l-0.837-0.14c0.149-0.717,0.299-1.066,0.627-1.435
				c0.449-0.508,1.126-0.767,2.003-0.767c1.504,0,2.471,0.757,2.471,1.933c0,0.508-0.199,0.986-0.588,1.415
				c-0.299,0.339-0.558,0.528-1.694,1.286c-0.787,0.528-1.106,0.807-1.435,1.226c-0.309,0.408-0.448,0.677-0.568,1.156h3.179
				c0.498,0,0.837-0.02,1.215-0.07v0.837c-0.398-0.04-0.728-0.06-1.226-0.06H21.303z"/>
			<path d="M27.657,51.174c-0.269-0.269-0.479-0.578-0.598-0.917c-0.25-0.697-0.379-1.484-0.379-2.301
				c0-1.056,0.229-2.132,0.578-2.71c0.478-0.807,1.245-1.226,2.232-1.226c0.737,0,1.375,0.239,1.823,0.708
				c0.279,0.279,0.478,0.588,0.598,0.917c0.25,0.688,0.379,1.485,0.379,2.312c0,1.206-0.259,2.271-0.698,2.879
				c-0.498,0.697-1.195,1.046-2.112,1.046C28.743,51.882,28.125,51.643,27.657,51.174z M28.235,45.216
				c-0.209,0.229-0.369,0.478-0.448,0.728c-0.209,0.607-0.309,1.285-0.309,2.013c0,0.926,0.199,1.903,0.468,2.371
				c0.349,0.578,0.867,0.867,1.544,0.867c0.498,0,0.926-0.16,1.226-0.468c0.219-0.229,0.378-0.488,0.468-0.777
				c0.209-0.618,0.309-1.275,0.309-2.013c0-0.867-0.189-1.854-0.448-2.322c-0.329-0.598-0.867-0.907-1.564-0.907
				C28.962,44.708,28.554,44.877,28.235,45.216z"/>
		</g>
	</g>
	<g>
		<g>
			<path d="M20.904,5.889c0.16,0.519,0.299,0.728,0.608,0.947c0.339,0.239,0.777,0.359,1.286,0.359c1.156,0,1.883-0.598,1.883-1.544
				c0-0.987-0.707-1.525-2.032-1.525c-0.279,0-0.528,0.02-0.797,0.05V3.388c0.229,0.04,0.468,0.06,0.737,0.06
				c0.658,0,1.146-0.149,1.455-0.458c0.25-0.239,0.399-0.608,0.399-0.966c0-0.857-0.598-1.355-1.604-1.355
				c-0.608,0-1.046,0.169-1.325,0.528c-0.139,0.179-0.209,0.339-0.319,0.708l-0.827-0.179c0.169-0.508,0.289-0.737,0.538-0.997
				C21.343,0.249,22.021,0,22.887,0c1.445,0,2.362,0.757,2.362,1.953c0,0.608-0.259,1.146-0.698,1.455
				c-0.259,0.189-0.478,0.269-0.937,0.359c0.578,0.06,0.887,0.169,1.226,0.428c0.438,0.339,0.667,0.867,0.667,1.505
				c0,1.345-1.036,2.182-2.7,2.182c-1.006,0-1.754-0.279-2.232-0.817c-0.209-0.239-0.329-0.458-0.508-0.966L20.904,5.889z"/>
			<path d="M27.657,7.174c-0.269-0.269-0.479-0.578-0.598-0.917c-0.25-0.697-0.379-1.484-0.379-2.301
				c0-1.056,0.229-2.132,0.578-2.71c0.478-0.807,1.245-1.226,2.232-1.226c0.737,0,1.375,0.239,1.823,0.708
				c0.279,0.279,0.478,0.588,0.598,0.917c0.25,0.688,0.379,1.485,0.379,2.312c0,1.206-0.259,2.271-0.698,2.879
				c-0.498,0.697-1.195,1.046-2.112,1.046C28.743,7.882,28.125,7.643,27.657,7.174z M28.235,1.216
				c-0.209,0.229-0.369,0.478-0.448,0.728c-0.209,0.607-0.309,1.285-0.309,2.013c0,0.926,0.199,1.903,0.468,2.371
				c0.349,0.578,0.867,0.867,1.544,0.867c0.498,0,0.926-0.16,1.226-0.468c0.219-0.229,0.378-0.488,0.468-0.777
				c0.209-0.618,0.309-1.275,0.309-2.013c0-0.867-0.189-1.854-0.448-2.322c-0.329-0.598-0.867-0.907-1.564-0.907
				C28.962,0.708,28.554,0.877,28.235,1.216z"/>
		</g>
	</g>
	<g>
		<g>
			<path d="M40.423,152.58c-0.269-0.268-0.479-0.576-0.598-0.916c-0.25-0.697-0.379-1.484-0.379-2.301
				c0-1.057,0.229-2.133,0.578-2.711c0.478-0.807,1.245-1.225,2.232-1.225c0.737,0,1.375,0.238,1.823,0.707
				c0.279,0.279,0.479,0.588,0.598,0.916c0.25,0.688,0.379,1.484,0.379,2.313c0,1.205-0.259,2.271-0.698,2.879
				c-0.498,0.697-1.195,1.047-2.112,1.047C41.509,153.289,40.892,153.048,40.423,152.58z M41.001,146.623
				c-0.209,0.229-0.369,0.479-0.448,0.727c-0.209,0.607-0.309,1.285-0.309,2.014c0,0.926,0.199,1.902,0.468,2.371
				c0.349,0.578,0.867,0.867,1.544,0.867c0.498,0,0.926-0.16,1.226-0.469c0.219-0.229,0.378-0.488,0.468-0.777
				c0.209-0.617,0.309-1.275,0.309-2.014c0-0.865-0.189-1.852-0.448-2.32c-0.329-0.598-0.867-0.906-1.564-0.906
				C41.729,146.115,41.32,146.283,41.001,146.623z"/>
		</g>
	</g>
	<g>
		<g>
			<path d="M92.286,145.515c0.259,0.041,0.449,0.051,0.827,0.051h0.628c0.339,0,0.498-0.01,0.827-0.051
				c-0.06,0.609-0.089,1.117-0.089,1.654v4.844c0,0.467,0.02,0.756,0.08,1.125h-0.947c0.06-0.348,0.08-0.668,0.08-1.125v-5.77
				h-0.538c-0.319,0-0.578,0.02-0.867,0.059V145.515z"/>
			<path d="M98.72,152.58c-0.269-0.268-0.479-0.576-0.598-0.916c-0.25-0.697-0.379-1.484-0.379-2.301
				c0-1.057,0.229-2.133,0.578-2.711c0.478-0.807,1.245-1.225,2.232-1.225c0.737,0,1.375,0.238,1.823,0.707
				c0.279,0.279,0.478,0.588,0.598,0.916c0.25,0.688,0.379,1.484,0.379,2.313c0,1.205-0.259,2.271-0.698,2.879
				c-0.498,0.697-1.195,1.047-2.112,1.047C99.806,153.289,99.188,153.048,98.72,152.58z M99.297,146.623
				c-0.209,0.229-0.369,0.479-0.448,0.727c-0.209,0.607-0.309,1.285-0.309,2.014c0,0.926,0.199,1.902,0.468,2.371
				c0.349,0.578,0.867,0.867,1.544,0.867c0.498,0,0.926-0.16,1.226-0.469c0.219-0.229,0.378-0.488,0.468-0.777
				c0.209-0.617,0.309-1.275,0.309-2.014c0-0.865-0.189-1.852-0.448-2.32c-0.329-0.598-0.867-0.906-1.564-0.906
				C100.025,146.115,99.616,146.283,99.297,146.623z"/>
			<path d="M105.313,152.58c-0.269-0.268-0.479-0.576-0.598-0.916c-0.25-0.697-0.379-1.484-0.379-2.301
				c0-1.057,0.229-2.133,0.578-2.711c0.478-0.807,1.245-1.225,2.232-1.225c0.737,0,1.375,0.238,1.823,0.707
				c0.279,0.279,0.478,0.588,0.598,0.916c0.25,0.688,0.379,1.484,0.379,2.313c0,1.205-0.259,2.271-0.698,2.879
				c-0.498,0.697-1.195,1.047-2.112,1.047C106.399,153.289,105.782,153.048,105.313,152.58z M105.891,146.623
				c-0.209,0.229-0.369,0.479-0.448,0.727c-0.209,0.607-0.309,1.285-0.309,2.014c0,0.926,0.199,1.902,0.468,2.371
				c0.349,0.578,0.867,0.867,1.544,0.867c0.498,0,0.926-0.16,1.226-0.469c0.219-0.229,0.378-0.488,0.468-0.777
				c0.209-0.617,0.309-1.275,0.309-2.014c0-0.865-0.189-1.852-0.448-2.32c-0.329-0.598-0.867-0.906-1.564-0.906
				C106.619,146.115,106.21,146.283,105.891,146.623z"/>
		</g>
	</g>
	<g>
		<g>
			<path d="M150.639,153.138c-0.627,0-0.777,0.01-1.096,0.051c0.109-0.787,0.14-0.938,0.289-1.316
				c0.249-0.627,0.667-1.176,1.295-1.713c0.349-0.299,0.369-0.309,1.524-1.096c0.986-0.668,1.315-1.107,1.315-1.715
				c0-0.758-0.638-1.246-1.654-1.246c-0.657,0-1.146,0.221-1.444,0.648c-0.189,0.27-0.279,0.508-0.349,1.006l-0.837-0.139
				c0.149-0.717,0.299-1.066,0.628-1.436c0.448-0.508,1.126-0.768,2.002-0.768c1.505,0,2.472,0.758,2.472,1.934
				c0,0.508-0.199,0.986-0.588,1.416c-0.299,0.338-0.559,0.527-1.694,1.285c-0.787,0.527-1.105,0.807-1.435,1.225
				c-0.309,0.408-0.448,0.678-0.568,1.156h3.179c0.498,0,0.837-0.02,1.216-0.07v0.838c-0.398-0.041-0.728-0.061-1.226-0.061H150.639
				z"/>
			<path d="M156.993,152.58c-0.269-0.268-0.478-0.576-0.598-0.916c-0.249-0.697-0.378-1.484-0.378-2.301
				c0-1.057,0.229-2.133,0.577-2.711c0.479-0.807,1.246-1.225,2.232-1.225c0.737,0,1.375,0.238,1.823,0.707
				c0.279,0.279,0.479,0.588,0.598,0.916c0.249,0.688,0.379,1.484,0.379,2.313c0,1.205-0.259,2.271-0.697,2.879
				c-0.498,0.697-1.196,1.047-2.112,1.047C158.08,153.289,157.462,153.048,156.993,152.58z M157.571,146.623
				c-0.209,0.229-0.368,0.479-0.448,0.727c-0.209,0.607-0.309,1.285-0.309,2.014c0,0.926,0.199,1.902,0.468,2.371
				c0.349,0.578,0.867,0.867,1.545,0.867c0.498,0,0.927-0.16,1.226-0.469c0.219-0.229,0.379-0.488,0.468-0.777
				c0.21-0.617,0.31-1.275,0.31-2.014c0-0.865-0.189-1.852-0.448-2.32c-0.329-0.598-0.867-0.906-1.564-0.906
				C158.299,146.115,157.891,146.283,157.571,146.623z"/>
			<path d="M163.586,152.58c-0.269-0.268-0.478-0.576-0.598-0.916c-0.249-0.697-0.378-1.484-0.378-2.301
				c0-1.057,0.229-2.133,0.577-2.711c0.479-0.807,1.246-1.225,2.232-1.225c0.737,0,1.375,0.238,1.823,0.707
				c0.279,0.279,0.479,0.588,0.598,0.916c0.249,0.688,0.379,1.484,0.379,2.313c0,1.205-0.259,2.271-0.697,2.879
				c-0.498,0.697-1.196,1.047-2.112,1.047C164.673,153.289,164.055,153.048,163.586,152.58z M164.164,146.623
				c-0.209,0.229-0.368,0.479-0.448,0.727c-0.209,0.607-0.309,1.285-0.309,2.014c0,0.926,0.199,1.902,0.468,2.371
				c0.349,0.578,0.867,0.867,1.545,0.867c0.498,0,0.927-0.16,1.226-0.469c0.219-0.229,0.379-0.488,0.468-0.777
				c0.21-0.617,0.31-1.275,0.31-2.014c0-0.865-0.189-1.852-0.448-2.32c-0.329-0.598-0.867-0.906-1.564-0.906
				C164.892,146.115,164.483,146.283,164.164,146.623z"/>
		</g>
	</g>
	<g>
		<g>
			<path d="M208.514,151.294c0.159,0.52,0.299,0.729,0.608,0.947c0.339,0.238,0.776,0.359,1.285,0.359
				c1.155,0,1.883-0.598,1.883-1.545c0-0.986-0.707-1.525-2.032-1.525c-0.279,0-0.528,0.021-0.797,0.051v-0.787
				c0.229,0.039,0.468,0.059,0.737,0.059c0.657,0,1.146-0.148,1.454-0.457c0.249-0.24,0.398-0.607,0.398-0.967
				c0-0.857-0.598-1.355-1.604-1.355c-0.608,0-1.047,0.17-1.325,0.529c-0.14,0.178-0.21,0.338-0.319,0.707l-0.827-0.18
				c0.17-0.508,0.289-0.738,0.538-0.996c0.438-0.479,1.116-0.729,1.983-0.729c1.444,0,2.361,0.758,2.361,1.953
				c0,0.607-0.26,1.146-0.697,1.455c-0.26,0.189-0.479,0.27-0.938,0.359c0.578,0.059,0.888,0.168,1.226,0.428
				c0.438,0.34,0.668,0.867,0.668,1.504c0,1.346-1.036,2.184-2.7,2.184c-1.007,0-1.754-0.279-2.231-0.818
				c-0.21-0.238-0.329-0.457-0.509-0.967L208.514,151.294z"/>
			<path d="M215.267,152.58c-0.269-0.268-0.478-0.576-0.598-0.916c-0.249-0.697-0.378-1.484-0.378-2.301
				c0-1.057,0.229-2.133,0.577-2.711c0.479-0.807,1.246-1.225,2.232-1.225c0.737,0,1.375,0.238,1.823,0.707
				c0.279,0.279,0.479,0.588,0.598,0.916c0.249,0.688,0.379,1.484,0.379,2.313c0,1.205-0.259,2.271-0.697,2.879
				c-0.498,0.697-1.196,1.047-2.112,1.047C216.354,153.289,215.735,153.048,215.267,152.58z M215.845,146.623
				c-0.209,0.229-0.368,0.479-0.448,0.727c-0.209,0.607-0.309,1.285-0.309,2.014c0,0.926,0.199,1.902,0.468,2.371
				c0.349,0.578,0.867,0.867,1.545,0.867c0.498,0,0.927-0.16,1.226-0.469c0.219-0.229,0.379-0.488,0.468-0.777
				c0.21-0.617,0.31-1.275,0.31-2.014c0-0.865-0.189-1.852-0.448-2.32c-0.329-0.598-0.867-0.906-1.564-0.906
				C216.572,146.115,216.164,146.283,215.845,146.623z"/>
			<path d="M221.859,152.58c-0.269-0.268-0.478-0.576-0.598-0.916c-0.249-0.697-0.378-1.484-0.378-2.301
				c0-1.057,0.229-2.133,0.577-2.711c0.479-0.807,1.246-1.225,2.232-1.225c0.737,0,1.375,0.238,1.823,0.707
				c0.279,0.279,0.479,0.588,0.598,0.916c0.249,0.688,0.379,1.484,0.379,2.313c0,1.205-0.259,2.271-0.697,2.879
				c-0.498,0.697-1.196,1.047-2.112,1.047C222.946,153.289,222.328,153.048,221.859,152.58z M222.438,146.623
				c-0.209,0.229-0.368,0.479-0.448,0.727c-0.209,0.607-0.309,1.285-0.309,2.014c0,0.926,0.199,1.902,0.468,2.371
				c0.349,0.578,0.867,0.867,1.545,0.867c0.498,0,0.927-0.16,1.226-0.469c0.219-0.229,0.379-0.488,0.468-0.777
				c0.21-0.617,0.31-1.275,0.31-2.014c0-0.865-0.189-1.852-0.448-2.32c-0.329-0.598-0.867-0.906-1.564-0.906
				C223.165,146.115,222.757,146.283,222.438,146.623z"/>
		</g>
	</g>
	<g>
		<g>
			<path stroke="#000000" stroke-width="0.2846" stroke-miterlimit="10" d="M2.733,48.821c-0.09,0.578-0.219,1.076-0.409,1.544
				c-0.259,0.658-0.538,1.096-1.096,1.734c-0.18-0.229-0.319-0.369-0.548-0.528c0.618-0.618,0.937-1.146,1.176-1.953
				c0.279-0.947,0.389-2.172,0.389-4.384c0-0.917-0.01-1.315-0.04-1.694c0.359,0.04,0.618,0.05,1.046,0.05h3.747
				c0.438,0,0.697-0.01,1.036-0.05c-0.03,0.269-0.04,0.518-0.04,1.026v6.556c0,0.359-0.089,0.568-0.279,0.698
				c-0.159,0.1-0.349,0.129-0.797,0.129c-0.329,0-0.748-0.01-1.196-0.04c-0.03-0.259-0.07-0.418-0.16-0.677
				c0.499,0.07,0.947,0.1,1.425,0.1c0.289,0,0.369-0.06,0.369-0.309v-2.202H2.733z M7.356,48.224V46.45H2.912
				c-0.01,0.548-0.03,0.927-0.109,1.773H7.356z M7.356,45.852v-1.654H2.922l-0.01,1.415v0.239H7.356z"/>
		</g>
	</g>
	<g>
		<g>
			<path stroke="#000000" stroke-width="0.2846" stroke-miterlimit="10" d="M1.966,58.31c-0.438,0-0.737,0.02-1.046,0.06v-0.717
				c0.289,0.04,0.598,0.06,1.056,0.06h5.968c0.458,0,0.757-0.02,1.056-0.06v0.717c-0.309-0.04-0.607-0.06-1.046-0.06h-2.72v3.697
				h3.099c0.488,0,0.807-0.02,1.066-0.07v0.747c-0.259-0.05-0.568-0.07-1.086-0.07H5.234v2.75c0,0.369,0.02,0.737,0.07,1.086H4.486
				c0.05-0.359,0.07-0.708,0.07-1.086v-2.75H1.587c-0.508,0-0.827,0.02-1.096,0.07v-0.747c0.279,0.05,0.578,0.07,1.086,0.07h2.979
				V58.31H1.966z M2.125,58.788c0.558,0.847,0.857,1.425,1.286,2.432l-0.628,0.319c-0.398-1.066-0.688-1.654-1.226-2.481
				L2.125,58.788z M8.303,59.067c-0.428,1.096-0.737,1.654-1.415,2.591L6.29,61.359c0.688-0.867,0.997-1.435,1.405-2.581
				L8.303,59.067z"/>
		</g>
	</g>
	<g>
		<g>
			<path stroke="#000000" stroke-width="0.2846" stroke-miterlimit="10" d="M1.747,72.701c0-0.408-0.02-0.657-0.06-0.966h0.748
				c-0.05,0.299-0.06,0.538-0.06,0.947v1.674h0.219c0.399,0,0.598-0.01,0.787-0.05v0.658c-0.219-0.03-0.438-0.04-0.797-0.04H2.374
				v2.959c0.458-0.209,0.658-0.319,1.206-0.628l0.03,0.628c-0.907,0.498-1.335,0.697-2.551,1.176
				c-0.18,0.07-0.359,0.139-0.499,0.199L0.372,78.6c0.259-0.04,0.717-0.189,1.375-0.448v-3.229H1.308
				c-0.418,0-0.618,0.01-0.867,0.06v-0.688c0.249,0.05,0.448,0.06,0.867,0.06h0.438V72.701z M4.965,73.767
				c-0.379,0.767-0.717,1.255-1.305,1.913c-0.04-0.05-0.07-0.08-0.08-0.11c-0.149-0.179-0.189-0.209-0.398-0.338
				c0.688-0.698,1.046-1.236,1.415-2.123c0.249-0.598,0.409-1.116,0.458-1.515l0.688,0.18c-0.04,0.1-0.06,0.149-0.12,0.339
				c-0.11,0.338-0.239,0.677-0.389,1.056h2.969c0.717-0.02,0.717-0.02,0.897-0.04c-0.03,0.199-0.04,0.378-0.04,0.787
				c0,2.182-0.09,3.717-0.279,4.853c-0.16,0.887-0.339,1.335-0.598,1.515c-0.169,0.109-0.438,0.159-0.857,0.159
				c-0.289,0-0.608-0.02-1.166-0.08c-0.02-0.249-0.06-0.409-0.18-0.698c0.548,0.11,1.076,0.169,1.425,0.169
				c0.379,0,0.519-0.139,0.648-0.647c0.249-0.997,0.358-2.491,0.369-5.42H4.965z M7.725,77.294
				c-1.076,0.647-1.634,0.927-3.178,1.594c-0.12,0.05-0.179,0.08-0.259,0.129l-0.259-0.697c0.189-0.04,0.369-0.09,0.578-0.169
				c1.136-0.418,2.013-0.847,3.009-1.485L7.725,77.294z M4.536,75.232c0.259,0.05,0.438,0.06,0.867,0.06h1.196
				c0.408,0,0.627-0.02,0.827-0.06v0.667c-0.209-0.03-0.458-0.04-0.817-0.04H5.393c-0.398,0-0.618,0.01-0.857,0.06V75.232z"/>
		</g>
	</g>
	<g>
		<g>
			<path stroke="#000000" stroke-width="0.2846" stroke-miterlimit="10" d="M2.454,87.343c-0.499,0.827-0.897,1.306-1.564,1.923
				c-0.07-0.149-0.209-0.269-0.468-0.438c0.857-0.717,1.445-1.504,1.903-2.521c0.11-0.239,0.16-0.389,0.189-0.588l0.708,0.16
				c-0.07,0.12-0.08,0.139-0.169,0.349c-0.09,0.179-0.129,0.269-0.279,0.538h4.902c0.578,0,0.917-0.02,1.256-0.07v0.717
				c-0.239-0.05-0.648-0.07-1.256-0.07H2.454z M6.28,94.487c-0.618-0.638-1.057-1.036-1.943-1.734
				C3.4,93.62,2.693,94.089,1.218,94.786c-0.149-0.249-0.239-0.359-0.478-0.548c1.425-0.598,2.242-1.086,3.089-1.863
				c-0.598-0.438-0.987-0.688-1.903-1.226l0.429-0.399c0.807,0.458,1.235,0.728,1.903,1.206c0.578-0.598,0.977-1.156,1.116-1.544
				l0.638,0.369c-0.04,0.05-0.04,0.05-0.14,0.169c-0.05,0.069-0.05,0.069-0.249,0.338c-0.259,0.359-0.548,0.708-0.857,1.037
				c0.737,0.548,1.275,1.006,1.973,1.644L6.28,94.487z M2.055,90.163c-0.438,0-0.737,0.02-1.026,0.06v-0.678
				c0.269,0.04,0.538,0.06,0.927,0.06h4.773c0.588,0,0.817-0.01,1.126-0.05c-0.03,0.299-0.04,0.528-0.04,0.847
				c0,1.216,0.129,2.222,0.369,2.899c0.14,0.399,0.389,0.788,0.498,0.788c0.14,0,0.299-0.748,0.359-1.664
				c0.209,0.209,0.319,0.289,0.548,0.389c-0.08,0.688-0.139,0.986-0.269,1.365c-0.129,0.418-0.349,0.648-0.598,0.648
				c-0.389,0-0.877-0.588-1.146-1.395c-0.249-0.748-0.358-1.684-0.378-3.269H2.055z M2.225,88.14c0.189,0.04,0.458,0.05,0.867,0.05
				h4.035c0.479,0,0.767-0.02,0.977-0.06v0.677c-0.269-0.05-0.508-0.06-0.977-0.06H3.151c-0.409,0-0.678,0.01-0.927,0.05V88.14z"/>
		</g>
	</g>
	<g>
		<g>
			<path stroke="#000000" stroke-width="0.2846" stroke-miterlimit="10" d="M0.83,102.7c0.618,0.369,1.106,0.737,1.694,1.256
				l-0.398,0.547c-0.598-0.607-0.996-0.926-1.664-1.334L0.83,102.7z M2.653,105.878c-0.499,1.275-0.777,1.844-1.345,2.811
				c-0.08,0.119-0.129,0.209-0.199,0.348l-0.588-0.518c0.528-0.527,1.086-1.594,1.604-3.02L2.653,105.878z M1.328,100.289
				c0.657,0.448,1.036,0.757,1.604,1.315l-0.409,0.508c-0.528-0.578-0.926-0.926-1.594-1.375L1.328,100.289z M9.02,108.21
				c0.279,0,0.418-0.01,0.628-0.049v0.646c-0.14-0.02-0.239-0.039-0.329-0.039c-0.179,0-0.398-0.01-0.647-0.021h-5.42
				c-0.329,0-0.678,0.021-0.977,0.061v-0.646c0.229,0.039,0.438,0.049,0.678,0.049h0.279l-0.01-2.391c0-0.34-0.01-0.52-0.03-0.787
				c0.259,0.029,0.468,0.039,0.917,0.039h3.856c0.479,0,0.667-0.01,0.917-0.039c-0.04,0.367-0.04,0.457-0.04,0.746v2.432H9.02z
				 M4.486,104.134c-0.349,0-0.667,0.012-0.926,0.031c0.02-0.25,0.03-0.508,0.03-0.847v-1.963c0-0.339-0.01-0.578-0.03-0.837
				c0.229,0.03,0.498,0.04,0.946,0.04h2.989c0.468,0,0.748-0.01,0.957-0.04c-0.03,0.309-0.04,0.499-0.04,0.817v2.012
				c0,0.31,0.01,0.509,0.04,0.818c-0.249-0.02-0.558-0.031-0.927-0.031H4.486z M3.819,108.21h1.086v-2.611H3.819V108.21z
				 M4.188,102.063h3.627v-0.966H4.188V102.063z M4.188,103.617h3.627v-1.026H4.188V103.617z M5.473,108.21h1.096v-2.611H5.473
				V108.21z M7.137,108.21h1.116v-2.611H7.137V108.21z"/>
		</g>
	</g>
	<g>
		<g>
			<path stroke="#000000" stroke-width="0.2846" stroke-miterlimit="10" d="M1.02,119.457c0.857-0.748,1.335-1.057,2.142-1.387
				c0.797-0.328,1.574-0.477,2.441-0.477c0.876,0,1.654,0.148,2.451,0.477c0.807,0.33,1.285,0.639,2.142,1.387v0.887
				c-0.837-0.838-1.295-1.166-2.053-1.516c-0.797-0.359-1.624-0.537-2.541-0.537c-0.907,0-1.734,0.178-2.531,0.537
				c-0.757,0.35-1.216,0.678-2.053,1.516V119.457z"/>
		</g>
	</g>
	<g>
		<g>
			<path stroke="#000000" stroke-width="0.2846" stroke-miterlimit="10" d="M2.384,125.677c0,0.629-0.499,1.127-1.116,1.127
				c-0.627,0-1.126-0.498-1.126-1.127c0-0.617,0.499-1.115,1.126-1.115C1.886,124.562,2.384,125.06,2.384,125.677z M0.591,125.677
				c0,0.379,0.299,0.678,0.677,0.678c0.369,0,0.667-0.299,0.667-0.678c0-0.367-0.299-0.668-0.667-0.668
				C0.89,125.009,0.591,125.31,0.591,125.677z M8.462,127.662c-0.15-0.43-0.25-0.639-0.458-0.877
				c-0.398-0.469-1.006-0.719-1.734-0.719c-1.614,0-2.63,1.236-2.63,3.219c0,1.973,1.026,3.229,2.63,3.229
				c0.797,0,1.465-0.299,1.863-0.838c0.219-0.289,0.319-0.537,0.409-0.986l0.827,0.189c-0.18,0.588-0.309,0.867-0.538,1.186
				c-0.558,0.748-1.475,1.156-2.591,1.156c-0.957,0-1.764-0.299-2.332-0.877c-0.698-0.697-1.076-1.783-1.076-3.029
				c0-1.285,0.398-2.371,1.136-3.098c0.578-0.559,1.345-0.848,2.292-0.848c0.927,0,1.684,0.27,2.232,0.807
				c0.349,0.34,0.538,0.639,0.777,1.256L8.462,127.662z"/>
		</g>
	</g>
	<g>
		<g>
			<path stroke="#000000" stroke-width="0.2846" stroke-miterlimit="10" d="M1.02,135.855c0.837,0.836,1.295,1.166,2.053,1.514
				c0.797,0.359,1.634,0.539,2.531,0.539c0.907,0,1.744-0.18,2.541-0.539c0.757-0.348,1.216-0.678,2.053-1.514v0.887
				c-0.857,0.746-1.335,1.057-2.142,1.385c-0.797,0.328-1.584,0.479-2.451,0.479c-0.857,0-1.644-0.15-2.441-0.479
				c-0.807-0.328-1.285-0.639-2.142-1.385V135.855z"/>
		</g>
	</g>
	<g>
		<g>
			<path stroke="#000000" stroke-width="0.2846" stroke-miterlimit="10" d="M86.341,186.607c-0.438,0-0.737,0.02-1.046,0.061v-0.719
				c0.289,0.041,0.598,0.061,1.056,0.061h5.968c0.458,0,0.757-0.02,1.056-0.061v0.719c-0.309-0.041-0.607-0.061-1.046-0.061h-2.72
				v3.697h3.099c0.488,0,0.807-0.021,1.066-0.07v0.748c-0.259-0.051-0.568-0.07-1.086-0.07h-3.079v2.75
				c0,0.369,0.02,0.736,0.07,1.086h-0.817c0.05-0.359,0.07-0.707,0.07-1.086v-2.75h-2.969c-0.508,0-0.827,0.02-1.096,0.07v-0.748
				c0.279,0.049,0.578,0.07,1.086,0.07h2.979v-3.697H86.341z M86.5,187.085c0.558,0.848,0.857,1.424,1.286,2.432l-0.628,0.318
				c-0.398-1.066-0.688-1.654-1.226-2.48L86.5,187.085z M92.678,187.365c-0.428,1.096-0.737,1.654-1.415,2.59l-0.598-0.299
				c0.688-0.867,0.997-1.436,1.405-2.58L92.678,187.365z"/>
			<path stroke="#000000" stroke-width="0.2846" stroke-miterlimit="10" d="M96.321,186.716c0-0.408-0.02-0.658-0.06-0.967h0.748
				c-0.05,0.299-0.06,0.539-0.06,0.947v1.674h0.219c0.399,0,0.598-0.01,0.787-0.051v0.658c-0.219-0.029-0.438-0.039-0.797-0.039
				h-0.209v2.959c0.458-0.209,0.658-0.318,1.206-0.627l0.03,0.627c-0.907,0.498-1.335,0.697-2.551,1.176
				c-0.18,0.07-0.359,0.139-0.499,0.199l-0.189-0.658c0.259-0.039,0.717-0.189,1.375-0.447v-3.229h-0.438
				c-0.418,0-0.618,0.01-0.867,0.059v-0.688c0.249,0.051,0.448,0.061,0.867,0.061h0.438V186.716z M99.539,187.783
				c-0.379,0.768-0.717,1.256-1.305,1.912c-0.04-0.049-0.07-0.078-0.08-0.109c-0.149-0.178-0.189-0.209-0.398-0.338
				c0.688-0.697,1.046-1.236,1.415-2.123c0.249-0.598,0.409-1.115,0.458-1.514l0.688,0.18c-0.04,0.1-0.06,0.148-0.12,0.338
				c-0.11,0.34-0.239,0.678-0.389,1.057h2.969c0.717-0.02,0.717-0.02,0.897-0.041c-0.03,0.201-0.04,0.379-0.04,0.789
				c0,2.182-0.09,3.715-0.279,4.852c-0.16,0.887-0.339,1.336-0.598,1.514c-0.169,0.111-0.438,0.16-0.857,0.16
				c-0.289,0-0.608-0.02-1.166-0.08c-0.02-0.248-0.06-0.408-0.18-0.697c0.548,0.109,1.076,0.17,1.425,0.17
				c0.379,0,0.519-0.141,0.648-0.648c0.249-0.996,0.358-2.49,0.369-5.42H99.539z M102.299,191.31
				c-1.076,0.648-1.634,0.926-3.178,1.594c-0.12,0.051-0.179,0.08-0.259,0.131l-0.259-0.699c0.189-0.039,0.369-0.09,0.578-0.168
				c1.136-0.42,2.013-0.848,3.009-1.484L102.299,191.31z M99.11,189.248c0.259,0.049,0.438,0.061,0.867,0.061h1.196
				c0.408,0,0.627-0.021,0.827-0.061v0.668c-0.209-0.031-0.458-0.041-0.817-0.041h-1.216c-0.398,0-0.618,0.01-0.857,0.061V189.248z"
				/>
			<path stroke="#000000" stroke-width="0.2846" stroke-miterlimit="10" d="M108.642,186.318c-0.06,0.109-0.06,0.109-0.378,0.797
				c-0.239,0.549-0.508,1.057-0.867,1.654c0.429,0.527,0.598,0.816,0.757,1.236c0.14,0.377,0.209,0.727,0.209,1.096
				c0,0.479-0.149,0.846-0.409,1.006c-0.159,0.1-0.428,0.15-0.817,0.15c-0.11,0-0.279-0.012-0.479-0.021
				c-0.03-0.299-0.05-0.408-0.129-0.607c0.269,0.051,0.389,0.061,0.618,0.061c0.499,0,0.598-0.119,0.598-0.738
				c0-0.428-0.16-0.945-0.438-1.395c-0.129-0.219-0.269-0.398-0.578-0.727c0.548-0.877,0.807-1.406,1.126-2.303H106.3v7.184
				c0,0.369,0.02,0.668,0.05,0.928h-0.728c0.04-0.289,0.06-0.568,0.06-0.928v-7.014c0-0.27-0.01-0.498-0.03-0.758
				c0.14,0.02,0.209,0.031,0.289,0.031h1.754c0.309,0,0.468-0.012,0.618-0.041L108.642,186.318z M109.459,191.072
				c-0.349,0-0.528,0.01-0.757,0.049v-0.648c0.219,0.041,0.408,0.051,0.797,0.051h2.083v-0.18c0-0.26-0.01-0.488-0.05-0.768h0.688
				c-0.04,0.26-0.05,0.479-0.05,0.768v0.18h0.856c0.429,0,0.608-0.01,0.857-0.051v0.648c-0.259-0.039-0.458-0.049-0.857-0.049
				h-0.856v1.363h1.285c0.419,0,0.618-0.01,0.867-0.049v0.648c-0.27-0.041-0.498-0.051-0.907-0.051h-1.245v0.857
				c0,0.357,0.02,0.588,0.06,0.855h-0.707c0.04-0.268,0.06-0.508,0.06-0.855v-0.857h-2.541c-0.408,0-0.657,0.01-0.917,0.051v-0.648
				c0.239,0.039,0.398,0.049,0.767,0.049h0.568V191.072z M112.458,186.347c0.339,0,0.508-0.01,0.707-0.039l0.349,0.359
				c-0.688,0.906-0.976,1.215-1.674,1.783c0.758,0.488,1.535,0.797,2.621,1.045c-0.14,0.189-0.199,0.311-0.299,0.559
				c-1.156-0.328-1.963-0.688-2.78-1.256c-0.827,0.578-1.495,0.908-2.77,1.355c-0.12-0.238-0.229-0.389-0.369-0.537
				c1.136-0.32,1.893-0.658,2.67-1.166c-0.398-0.33-0.618-0.559-1.076-1.105c-0.398,0.418-0.688,0.646-1.255,1.035
				c-0.129-0.189-0.219-0.299-0.418-0.447c0.946-0.549,1.544-1.127,2.033-1.924c0.129-0.199,0.199-0.35,0.279-0.539l0.638,0.17
				c-0.219,0.359-0.279,0.469-0.448,0.707H112.458z M111.581,192.435v-1.363h-1.524v1.363H111.581z M110.216,186.935
				c0.438,0.559,0.678,0.809,1.156,1.186c0.538-0.428,0.797-0.688,1.255-1.244h-2.361L110.216,186.935z"/>
			<path stroke="#000000" stroke-width="0.2846" stroke-miterlimit="10" d="M119.09,188.5c-0.08,0.199-0.09,0.24-0.21,0.619
				c-0.538,1.803-1.554,3.307-2.969,4.393c-0.189-0.229-0.299-0.318-0.558-0.498c0.647-0.428,1.136-0.887,1.653-1.555
				c0.638-0.836,1.017-1.594,1.315-2.67h-1.644c-0.419,0-0.708,0.02-0.947,0.061v-0.729c0.249,0.041,0.498,0.051,0.967,0.051h1.066
				c0.527,0,0.757-0.01,0.946-0.039L119.09,188.5z M123.803,187.773c-0.13,0.129-0.13,0.129-0.279,0.309
				c-0.239,0.279-0.917,0.967-1.285,1.305c-0.279,0.25-0.279,0.25-0.847,0.697c0.349,0.52,0.747,1.008,1.176,1.426
				c0.598,0.588,1.126,0.977,1.942,1.395c-0.249,0.219-0.358,0.35-0.528,0.629c-0.816-0.488-1.514-1.086-2.142-1.824
				c-0.438-0.508-0.797-1.037-1.126-1.654c-0.239-0.447-0.339-0.688-0.528-1.266c0.06,0.867,0.08,1.416,0.08,1.943v2.949
				c0,0.629-0.199,0.797-0.907,0.797c-0.379,0-0.787-0.02-1.266-0.068c-0.02-0.289-0.06-0.43-0.159-0.688
				c0.559,0.1,0.946,0.139,1.335,0.139c0.279,0,0.339-0.051,0.339-0.289v-6.805c0-0.359-0.02-0.678-0.069-1.008h0.787
				c-0.06,0.32-0.08,0.639-0.08,0.998v0.688c0.13,0.707,0.359,1.305,0.837,2.131c1.126-0.945,1.784-1.664,2.103-2.291
				L123.803,187.773z"/>
			<path stroke="#000000" stroke-width="0.2846" stroke-miterlimit="10" d="M125.702,188.74c0.269,0.039,0.567,0.049,0.986,0.049
				h6.865c0.418,0,0.717-0.01,0.986-0.049v0.588c-0.26-0.041-0.479-0.051-0.977-0.051h-6.875c-0.488,0-0.728,0.01-0.986,0.051
				V188.74z M127.874,192.267c-0.408,0-0.668,0.01-0.957,0.039c0.03-0.27,0.03-0.379,0.03-0.807v-1.057
				c0-0.27-0.01-0.459-0.03-0.688c0.199,0.029,0.499,0.041,0.947,0.041h4.563c0.378,0,0.638-0.012,0.927-0.041
				c-0.021,0.189-0.03,0.379-0.03,0.658v1.096c0,0.359,0.01,0.637,0.03,0.797c-0.359-0.029-0.618-0.039-0.957-0.039h-2.032v0.566
				h2.63c0.409,0,0.608-0.01,0.837-0.049v0.568c-0.259-0.041-0.468-0.051-0.856-0.051h-2.61v0.588h3.158
				c0.458,0,0.718-0.01,1.017-0.059v0.598c-0.299-0.041-0.598-0.061-1.017-0.061h-6.806c-0.418,0-0.728,0.02-1.016,0.061v-0.598
				c0.299,0.049,0.558,0.059,1.016,0.059h3.069v-0.588h-2.441c-0.398,0-0.607,0.01-0.867,0.051v-0.568
				c0.22,0.039,0.438,0.049,0.848,0.049h2.461v-0.566H127.874z M127.725,188.291c-0.559,0-0.747,0.01-0.986,0.029
				c0.029-0.219,0.04-0.408,0.04-0.756v-0.906c0-0.301-0.011-0.488-0.04-0.719c0.289,0.031,0.558,0.041,0.986,0.041h4.822
				c0.438,0,0.688-0.01,0.967-0.041c-0.03,0.219-0.04,0.408-0.04,0.719v0.906c0,0.289,0.01,0.498,0.04,0.756
				c-0.249-0.02-0.419-0.029-0.996-0.029H127.725z M127.346,186.916h5.56v-0.488h-5.56V186.916z M127.346,187.853h5.55v-0.508h-5.55
				V187.853z M127.516,190.244v0.568h2.271v-0.568H127.516z M127.516,191.24v0.578h2.271v-0.578H127.516z M130.365,190.812h2.391
				v-0.568h-2.391V190.812z M130.365,191.818h2.391v-0.578h-2.391V191.818z"/>
			<path stroke="#000000" stroke-width="0.2846" stroke-miterlimit="10" d="M144.031,194.748c-0.747-0.857-1.056-1.336-1.385-2.143
				c-0.329-0.797-0.479-1.584-0.479-2.451s0.149-1.654,0.479-2.451c0.329-0.807,0.638-1.285,1.385-2.143h0.887
				c-0.837,0.848-1.165,1.297-1.514,2.063c-0.359,0.797-0.538,1.625-0.538,2.531s0.179,1.734,0.538,2.531
				c0.349,0.768,0.677,1.215,1.514,2.063H144.031z"/>
		</g>
	</g>
	<g>
		<g>
			<path stroke="#000000" stroke-width="0.2846" stroke-miterlimit="10" d="M146.24,193.88c0.05-0.359,0.07-0.658,0.07-1.125v-3.119
				c0-0.498-0.021-0.768-0.07-1.127h0.808v0.549c0,0.049-0.01,0.17-0.021,0.359c0.09-0.17,0.18-0.289,0.379-0.498
				c0.339-0.34,0.827-0.52,1.405-0.52c0.567,0,0.986,0.17,1.285,0.508c0.149,0.16,0.209,0.279,0.309,0.578
				c0.469-0.766,1.007-1.086,1.844-1.086c0.657,0,1.155,0.209,1.455,0.607c0.238,0.32,0.338,0.709,0.338,1.297v2.461
				c0,0.498,0.021,0.768,0.07,1.115h-0.896c0.06-0.369,0.069-0.598,0.069-1.125v-2.352c0-0.947-0.349-1.355-1.146-1.355
				c-0.498,0-0.967,0.27-1.256,0.727c-0.189,0.289-0.329,0.729-0.329,1.027v1.963c0,0.498,0.021,0.777,0.07,1.115h-0.896
				c0.05-0.359,0.069-0.617,0.069-1.125v-2.352c0-0.877-0.398-1.355-1.116-1.355c-0.518,0-0.996,0.279-1.305,0.758
				c-0.18,0.268-0.329,0.736-0.329,0.996v1.953c0,0.457,0.02,0.727,0.069,1.125H146.24z"/>
			<path stroke="#000000" stroke-width="0.2846" stroke-miterlimit="10" d="M155.832,193.88c0.05-0.359,0.07-0.658,0.07-1.125
				v-3.119c0-0.498-0.021-0.768-0.07-1.127h0.808v0.549c0,0.049-0.01,0.17-0.021,0.359c0.09-0.17,0.18-0.289,0.379-0.498
				c0.339-0.34,0.827-0.52,1.405-0.52c0.567,0,0.986,0.17,1.285,0.508c0.149,0.16,0.209,0.279,0.309,0.578
				c0.469-0.766,1.007-1.086,1.844-1.086c0.657,0,1.155,0.209,1.455,0.607c0.238,0.32,0.338,0.709,0.338,1.297v2.461
				c0,0.498,0.021,0.768,0.07,1.115h-0.896c0.06-0.369,0.069-0.598,0.069-1.125v-2.352c0-0.947-0.349-1.355-1.146-1.355
				c-0.498,0-0.967,0.27-1.256,0.727c-0.189,0.289-0.329,0.729-0.329,1.027v1.963c0,0.498,0.021,0.777,0.07,1.115h-0.896
				c0.05-0.359,0.069-0.617,0.069-1.125v-2.352c0-0.877-0.398-1.355-1.116-1.355c-0.518,0-0.996,0.279-1.305,0.758
				c-0.18,0.268-0.329,0.736-0.329,0.996v1.953c0,0.457,0.02,0.727,0.069,1.125H155.832z"/>
		</g>
	</g>
	<g>
		<g>
			<path stroke="#000000" stroke-width="0.2846" stroke-miterlimit="10" d="M165.115,194.748c0.837-0.838,1.165-1.295,1.515-2.063
				c0.358-0.797,0.538-1.625,0.538-2.531s-0.18-1.734-0.538-2.531c-0.35-0.766-0.678-1.225-1.515-2.063h0.887
				c0.747,0.857,1.056,1.336,1.385,2.143c0.329,0.797,0.479,1.584,0.479,2.451s-0.149,1.654-0.479,2.451
				c-0.329,0.807-0.638,1.285-1.385,2.143H165.115z"/>
		</g>
	</g>
</g>
</svg>
