<?xml version="1.0" encoding="utf-8"?>
<!-- Generator: Adobe Illustrator 16.0.0, SVG Export Plug-In . SVG Version: 6.00 Build 0)  -->
<!DOCTYPE svg PUBLIC "-//W3C//DTD SVG 1.1//EN" "http://www.w3.org/Graphics/SVG/1.1/DTD/svg11.dtd">
<svg version="1.1" id="レイヤー_1" xmlns="http://www.w3.org/2000/svg" xmlns:xlink="http://www.w3.org/1999/xlink" x="0px"
	 y="0px" width="222.375px" height="143.614px" viewBox="0 0 222.375 143.614" enable-background="new 0 0 222.375 143.614"
	 xml:space="preserve">
<g>
	<g>
		<polygon fill-rule="evenodd" clip-rule="evenodd" fill="#FFFFFF" points="45.156,4.598 179.796,4.598 179.796,122.198 
			45.156,122.198 45.156,4.598 		"/>
	</g>
	<g>
		<path fill="none" stroke="#868686" stroke-width="0.72" stroke-linejoin="round" stroke-miterlimit="10" d="M45.156,100.837
			h134.64 M45.156,79.358h134.64 M45.156,57.998h134.64 M45.156,36.638h134.64 M45.156,15.278h134.64"/>
	</g>
	<g>
		<defs>
			<polygon id="SVGID_1_" points="45.156,122.798 180.516,122.798 180.516,4.478 45.156,4.478 45.156,122.798 			"/>
		</defs>
		<clipPath id="SVGID_2_">
			<use xlink:href="#SVGID_1_"  overflow="visible"/>
		</clipPath>
		<polygon clip-path="url(#SVGID_2_)" fill-rule="evenodd" clip-rule="evenodd" fill="#4F81BD" points="48.516,104.917 
			53.076,104.917 53.076,122.198 48.516,122.198 48.516,104.917 		"/>
		
			<polygon clip-path="url(#SVGID_2_)" fill="none" stroke="#4F81BD" stroke-width="0.72" stroke-linejoin="round" stroke-miterlimit="10" points="
			48.516,104.917 53.076,104.917 53.076,122.198 48.516,122.198 48.516,104.917 		"/>
		<polygon clip-path="url(#SVGID_2_)" fill-rule="evenodd" clip-rule="evenodd" fill="#4F81BD" points="59.796,96.878 
			64.236,96.878 64.236,122.198 59.796,122.198 59.796,96.878 		"/>
		
			<polygon clip-path="url(#SVGID_2_)" fill="none" stroke="#4F81BD" stroke-width="0.72" stroke-linejoin="round" stroke-miterlimit="10" points="
			59.796,96.878 64.236,96.878 64.236,122.198 59.796,122.198 59.796,96.878 		"/>
		<polygon clip-path="url(#SVGID_2_)" fill-rule="evenodd" clip-rule="evenodd" fill="#4F81BD" points="70.956,92.917 
			75.516,92.917 75.516,122.198 70.956,122.198 70.956,92.917 		"/>
		
			<polygon clip-path="url(#SVGID_2_)" fill="none" stroke="#4F81BD" stroke-width="0.72" stroke-linejoin="round" stroke-miterlimit="10" points="
			70.956,92.917 75.516,92.917 75.516,122.198 70.956,122.198 70.956,92.917 		"/>
		<polygon clip-path="url(#SVGID_2_)" fill-rule="evenodd" clip-rule="evenodd" fill="#4F81BD" points="82.236,89.677 
			86.676,89.677 86.676,122.198 82.236,122.198 82.236,89.677 		"/>
		
			<polygon clip-path="url(#SVGID_2_)" fill="none" stroke="#4F81BD" stroke-width="0.72" stroke-linejoin="round" stroke-miterlimit="10" points="
			82.236,89.677 86.676,89.677 86.676,122.198 82.236,122.198 82.236,89.677 		"/>
		<polygon clip-path="url(#SVGID_2_)" fill-rule="evenodd" clip-rule="evenodd" fill="#4F81BD" points="93.396,99.878 
			97.956,99.878 97.956,122.198 93.396,122.198 93.396,99.878 		"/>
		
			<polygon clip-path="url(#SVGID_2_)" fill="none" stroke="#4F81BD" stroke-width="0.72" stroke-linejoin="round" stroke-miterlimit="10" points="
			93.396,99.878 97.956,99.878 97.956,122.198 93.396,122.198 93.396,99.878 		"/>
		<polygon clip-path="url(#SVGID_2_)" fill-rule="evenodd" clip-rule="evenodd" fill="#4F81BD" points="104.676,112.837 
			109.116,112.837 109.116,122.198 104.676,122.198 104.676,112.837 		"/>
		
			<polygon clip-path="url(#SVGID_2_)" fill="none" stroke="#4F81BD" stroke-width="0.72" stroke-linejoin="round" stroke-miterlimit="10" points="
			104.676,112.837 109.116,112.837 109.116,122.198 104.676,122.198 104.676,112.837 		"/>
		<polygon clip-path="url(#SVGID_2_)" fill-rule="evenodd" clip-rule="evenodd" fill="#4F81BD" points="115.836,116.558 
			120.396,116.558 120.396,122.198 115.836,122.198 115.836,116.558 		"/>
		
			<polygon clip-path="url(#SVGID_2_)" fill="none" stroke="#4F81BD" stroke-width="0.72" stroke-linejoin="round" stroke-miterlimit="10" points="
			115.836,116.558 120.396,116.558 120.396,122.198 115.836,122.198 115.836,116.558 		"/>
		<polygon clip-path="url(#SVGID_2_)" fill-rule="evenodd" clip-rule="evenodd" fill="#4F81BD" points="127.116,115.478 
			131.556,115.478 131.556,122.198 127.116,122.198 127.116,115.478 		"/>
		
			<polygon clip-path="url(#SVGID_2_)" fill="none" stroke="#4F81BD" stroke-width="0.72" stroke-linejoin="round" stroke-miterlimit="10" points="
			127.116,115.478 131.556,115.478 131.556,122.198 127.116,122.198 127.116,115.478 		"/>
		<polygon clip-path="url(#SVGID_2_)" fill-rule="evenodd" clip-rule="evenodd" fill="#4F81BD" points="138.276,105.878 
			142.836,105.878 142.836,122.198 138.276,122.198 138.276,105.878 		"/>
		
			<polygon clip-path="url(#SVGID_2_)" fill="none" stroke="#4F81BD" stroke-width="0.72" stroke-linejoin="round" stroke-miterlimit="10" points="
			138.276,105.878 142.836,105.878 142.836,122.198 138.276,122.198 138.276,105.878 		"/>
		<polygon clip-path="url(#SVGID_2_)" fill-rule="evenodd" clip-rule="evenodd" fill="#4F81BD" points="149.556,99.157 
			153.996,99.157 153.996,122.198 149.556,122.198 149.556,99.157 		"/>
		
			<polygon clip-path="url(#SVGID_2_)" fill="none" stroke="#4F81BD" stroke-width="0.72" stroke-linejoin="round" stroke-miterlimit="10" points="
			149.556,99.157 153.996,99.157 153.996,122.198 149.556,122.198 149.556,99.157 		"/>
		<polygon clip-path="url(#SVGID_2_)" fill-rule="evenodd" clip-rule="evenodd" fill="#4F81BD" points="160.716,103.597 
			165.276,103.597 165.276,122.198 160.716,122.198 160.716,103.597 		"/>
		
			<polygon clip-path="url(#SVGID_2_)" fill="none" stroke="#4F81BD" stroke-width="0.72" stroke-linejoin="round" stroke-miterlimit="10" points="
			160.716,103.597 165.276,103.597 165.276,122.198 160.716,122.198 160.716,103.597 		"/>
		<polygon clip-path="url(#SVGID_2_)" fill-rule="evenodd" clip-rule="evenodd" fill="#4F81BD" points="171.996,104.798 
			176.436,104.798 176.436,122.198 171.996,122.198 171.996,104.798 		"/>
		
			<polygon clip-path="url(#SVGID_2_)" fill="none" stroke="#4F81BD" stroke-width="0.72" stroke-linejoin="round" stroke-miterlimit="10" points="
			171.996,104.798 176.436,104.798 176.436,122.198 171.996,122.198 171.996,104.798 		"/>
	</g>
	<g>
		
			<line fill="none" stroke="#868686" stroke-width="0.72" stroke-linejoin="round" stroke-miterlimit="10" x1="179.796" y1="122.198" x2="179.796" y2="4.598"/>
	</g>
	<g>
		<path fill="none" stroke="#868686" stroke-width="0.72" stroke-linejoin="round" stroke-miterlimit="10" d="M179.796,122.198
			h3.359 M179.796,102.519h3.359 M179.796,82.958h3.359 M179.796,63.397h3.359 M179.796,43.718h3.359 M179.796,24.158h3.359
			 M179.796,4.598h3.359"/>
	</g>
	<g>
		
			<line fill="none" stroke="#868686" stroke-width="0.72" stroke-linejoin="round" stroke-miterlimit="10" x1="45.156" y1="122.198" x2="45.156" y2="4.598"/>
	</g>
	<g>
		<path fill="none" stroke="#868686" stroke-width="0.72" stroke-linejoin="round" stroke-miterlimit="10" d="M41.796,122.198h3.36
			 M41.796,100.837h3.36 M41.796,79.358h3.36 M41.796,57.998h3.36 M41.796,36.638h3.36 M41.796,15.278h3.36"/>
	</g>
	<g>
		
			<line fill="none" stroke="#868686" stroke-width="0.72" stroke-linejoin="round" stroke-miterlimit="10" x1="45.156" y1="122.198" x2="179.796" y2="122.198"/>
	</g>
	<g>
		<path fill="none" stroke="#868686" stroke-width="0.72" stroke-linejoin="round" stroke-miterlimit="10" d="M45.156,122.198v3.359
			 M56.436,122.198v3.359 M67.596,122.198v3.359 M78.876,122.198v3.359 M90.036,122.198v3.359 M101.316,122.198v3.359
			 M112.476,122.198v3.359 M123.756,122.198v3.359 M134.916,122.198v3.359 M146.196,122.198v3.359 M157.356,122.198v3.359
			 M168.636,122.198v3.359 M179.796,122.198v3.359"/>
	</g>
	<g>
		<defs>
			<polygon id="SVGID_3_" points="45.156,122.798 180.516,122.798 180.516,4.478 45.156,4.478 45.156,122.798 			"/>
		</defs>
		<clipPath id="SVGID_4_">
			<use xlink:href="#SVGID_3_"  overflow="visible"/>
		</clipPath>
		
			<polyline clip-path="url(#SVGID_4_)" fill="none" stroke="#FF0000" stroke-width="1.68" stroke-linecap="round" stroke-linejoin="round" stroke-miterlimit="10" points="
			50.796,56.318 61.956,56.558 73.236,55.958 84.396,55.958 95.676,55.718 106.836,56.078 118.116,56.078 129.276,55.958 
			140.556,56.318 151.716,56.678 162.996,56.558 174.156,56.318 		"/>
	</g>
	<g>
		<polygon fill="#FF0000" points="50.849,53.813 53.369,56.333 50.849,58.854 48.329,56.333 50.849,53.813 		"/>
		<polygon fill="none" stroke="#FF0000" stroke-width="0.72" stroke-linejoin="round" stroke-miterlimit="10" points="
			50.849,53.813 53.369,56.333 50.849,58.854 48.329,56.333 50.849,53.813 		"/>
		<polygon fill="#FF0000" points="62.009,54.054 64.529,56.574 62.009,59.094 59.489,56.574 62.009,54.054 		"/>
		<polygon fill="none" stroke="#FF0000" stroke-width="0.72" stroke-linejoin="round" stroke-miterlimit="10" points="
			62.009,54.054 64.529,56.574 62.009,59.094 59.489,56.574 62.009,54.054 		"/>
		<polygon fill="#FF0000" points="73.289,53.454 75.809,55.974 73.289,58.494 70.769,55.974 73.289,53.454 		"/>
		<polygon fill="none" stroke="#FF0000" stroke-width="0.72" stroke-linejoin="round" stroke-miterlimit="10" points="
			73.289,53.454 75.809,55.974 73.289,58.494 70.769,55.974 73.289,53.454 		"/>
		<polygon fill="#FF0000" points="84.449,53.454 86.969,55.974 84.449,58.494 81.929,55.974 84.449,53.454 		"/>
		<polygon fill="none" stroke="#FF0000" stroke-width="0.72" stroke-linejoin="round" stroke-miterlimit="10" points="
			84.449,53.454 86.969,55.974 84.449,58.494 81.929,55.974 84.449,53.454 		"/>
		<polygon fill="#FF0000" points="95.729,53.213 98.249,55.734 95.729,58.253 93.209,55.734 95.729,53.213 		"/>
		<polygon fill="none" stroke="#FF0000" stroke-width="0.72" stroke-linejoin="round" stroke-miterlimit="10" points="
			95.729,53.213 98.249,55.734 95.729,58.253 93.209,55.734 95.729,53.213 		"/>
		<polygon fill="#FF0000" points="106.889,53.574 109.409,56.094 106.889,58.614 104.369,56.094 106.889,53.574 		"/>
		<polygon fill="none" stroke="#FF0000" stroke-width="0.72" stroke-linejoin="round" stroke-miterlimit="10" points="
			106.889,53.574 109.409,56.094 106.889,58.614 104.369,56.094 106.889,53.574 		"/>
		<polygon fill="#FF0000" points="118.169,53.574 120.689,56.094 118.169,58.614 115.649,56.094 118.169,53.574 		"/>
		<polygon fill="none" stroke="#FF0000" stroke-width="0.72" stroke-linejoin="round" stroke-miterlimit="10" points="
			118.169,53.574 120.689,56.094 118.169,58.614 115.649,56.094 118.169,53.574 		"/>
		<polygon fill="#FF0000" points="129.33,53.454 131.849,55.974 129.33,58.494 126.809,55.974 129.33,53.454 		"/>
		<polygon fill="none" stroke="#FF0000" stroke-width="0.72" stroke-linejoin="round" stroke-miterlimit="10" points="
			129.33,53.454 131.849,55.974 129.33,58.494 126.809,55.974 129.33,53.454 		"/>
		<polygon fill="#FF0000" points="140.609,53.813 143.129,56.333 140.609,58.854 138.089,56.333 140.609,53.813 		"/>
		<polygon fill="none" stroke="#FF0000" stroke-width="0.72" stroke-linejoin="round" stroke-miterlimit="10" points="
			140.609,53.813 143.129,56.333 140.609,58.854 138.089,56.333 140.609,53.813 		"/>
		<polygon fill="#FF0000" points="151.769,54.174 154.289,56.694 151.769,59.214 149.25,56.694 151.769,54.174 		"/>
		<polygon fill="none" stroke="#FF0000" stroke-width="0.72" stroke-linejoin="round" stroke-miterlimit="10" points="
			151.769,54.174 154.289,56.694 151.769,59.214 149.25,56.694 151.769,54.174 		"/>
		<polygon fill="#FF0000" points="163.049,54.054 165.569,56.574 163.049,59.094 160.529,56.574 163.049,54.054 		"/>
		<polygon fill="none" stroke="#FF0000" stroke-width="0.72" stroke-linejoin="round" stroke-miterlimit="10" points="
			163.049,54.054 165.569,56.574 163.049,59.094 160.529,56.574 163.049,54.054 		"/>
		<polygon fill="#FF0000" points="174.209,53.813 176.729,56.333 174.209,58.854 171.689,56.333 174.209,53.813 		"/>
		<polygon fill="none" stroke="#FF0000" stroke-width="0.72" stroke-linejoin="round" stroke-miterlimit="10" points="
			174.209,53.813 176.729,56.333 174.209,58.854 171.689,56.333 174.209,53.813 		"/>
	</g>
	<g>
		<g>
			<path d="M189.599,121.995c0.278,0.041,0.488,0.051,0.906,0.051h1.186c0.429,0,0.638-0.01,0.917-0.051v0.838
				c-0.279-0.041-0.498-0.051-0.917-0.051h-1.186c-0.398,0-0.628,0.01-0.906,0.051V121.995z"/>
			<path d="M194.599,125.313c-0.627,0-0.777,0.01-1.096,0.051c0.109-0.787,0.14-0.938,0.289-1.316
				c0.249-0.627,0.667-1.176,1.295-1.713c0.349-0.299,0.369-0.309,1.524-1.096c0.986-0.668,1.315-1.107,1.315-1.715
				c0-0.758-0.638-1.246-1.654-1.246c-0.657,0-1.146,0.221-1.444,0.648c-0.189,0.27-0.279,0.508-0.349,1.006l-0.837-0.139
				c0.149-0.717,0.299-1.066,0.628-1.436c0.448-0.508,1.126-0.768,2.002-0.768c1.505,0,2.472,0.758,2.472,1.934
				c0,0.508-0.199,0.986-0.588,1.416c-0.299,0.338-0.559,0.527-1.694,1.285c-0.787,0.527-1.105,0.807-1.435,1.225
				c-0.309,0.408-0.448,0.678-0.568,1.156h3.179c0.498,0,0.837-0.02,1.216-0.07v0.838c-0.398-0.041-0.728-0.061-1.226-0.061H194.599
				z"/>
			<path d="M200.953,124.755c-0.269-0.268-0.478-0.576-0.598-0.916c-0.249-0.697-0.378-1.484-0.378-2.301
				c0-1.057,0.229-2.133,0.577-2.711c0.479-0.807,1.246-1.225,2.232-1.225c0.737,0,1.375,0.238,1.823,0.707
				c0.279,0.279,0.479,0.588,0.598,0.916c0.249,0.688,0.379,1.484,0.379,2.313c0,1.205-0.259,2.271-0.697,2.879
				c-0.498,0.697-1.196,1.047-2.112,1.047C202.04,125.464,201.421,125.224,200.953,124.755z M201.531,118.798
				c-0.209,0.229-0.368,0.479-0.448,0.727c-0.209,0.607-0.309,1.285-0.309,2.014c0,0.926,0.199,1.902,0.468,2.371
				c0.349,0.578,0.867,0.867,1.545,0.867c0.498,0,0.927-0.16,1.226-0.469c0.219-0.229,0.379-0.488,0.468-0.777
				c0.21-0.617,0.31-1.275,0.31-2.014c0-0.865-0.189-1.852-0.448-2.32c-0.329-0.598-0.867-0.906-1.564-0.906
				C202.258,118.29,201.85,118.458,201.531,118.798z"/>
		</g>
	</g>
	<g>
		<g>
			<path d="M189.599,102.394c0.278,0.041,0.488,0.051,0.906,0.051h1.186c0.429,0,0.638-0.01,0.917-0.051v0.838
				c-0.279-0.041-0.498-0.051-0.917-0.051h-1.186c-0.398,0-0.628,0.01-0.906,0.051V102.394z"/>
			<path d="M194.52,98.089c0.259,0.041,0.448,0.051,0.827,0.051h0.627c0.339,0,0.499-0.01,0.827-0.051
				c-0.06,0.609-0.09,1.117-0.09,1.654v4.844c0,0.467,0.021,0.756,0.08,1.125h-0.946c0.06-0.348,0.079-0.668,0.079-1.125v-5.77
				h-0.538c-0.318,0-0.577,0.02-0.866,0.059V98.089z"/>
			<path d="M200.953,105.153c-0.269-0.268-0.478-0.576-0.598-0.916c-0.249-0.697-0.378-1.484-0.378-2.301
				c0-1.057,0.229-2.133,0.577-2.711c0.479-0.807,1.246-1.225,2.232-1.225c0.737,0,1.375,0.238,1.823,0.707
				c0.279,0.279,0.479,0.588,0.598,0.916c0.249,0.688,0.379,1.484,0.379,2.313c0,1.205-0.259,2.271-0.697,2.879
				c-0.498,0.697-1.196,1.047-2.112,1.047C202.04,105.862,201.421,105.622,200.953,105.153z M201.531,99.196
				c-0.209,0.229-0.368,0.479-0.448,0.727c-0.209,0.607-0.309,1.285-0.309,2.014c0,0.926,0.199,1.902,0.468,2.371
				c0.349,0.578,0.867,0.867,1.545,0.867c0.498,0,0.927-0.16,1.226-0.469c0.219-0.229,0.379-0.488,0.468-0.777
				c0.21-0.617,0.31-1.275,0.31-2.014c0-0.865-0.189-1.852-0.448-2.32c-0.329-0.598-0.867-0.906-1.564-0.906
				C202.258,98.688,201.85,98.856,201.531,99.196z"/>
		</g>
	</g>
	<g>
		<g>
			<path d="M190.764,85.552c-0.269-0.268-0.478-0.576-0.598-0.916c-0.249-0.697-0.378-1.484-0.378-2.301
				c0-1.057,0.229-2.133,0.577-2.711c0.479-0.807,1.246-1.225,2.232-1.225c0.737,0,1.375,0.238,1.823,0.707
				c0.279,0.279,0.479,0.588,0.598,0.916c0.249,0.688,0.379,1.484,0.379,2.313c0,1.205-0.259,2.271-0.697,2.879
				c-0.498,0.697-1.196,1.047-2.112,1.047C191.851,86.261,191.233,86.021,190.764,85.552z M191.342,79.595
				c-0.209,0.229-0.368,0.479-0.448,0.727c-0.209,0.607-0.309,1.285-0.309,2.014c0,0.926,0.199,1.902,0.468,2.371
				c0.349,0.578,0.867,0.867,1.545,0.867c0.498,0,0.927-0.16,1.226-0.469c0.219-0.229,0.379-0.488,0.468-0.777
				c0.21-0.617,0.31-1.275,0.31-2.014c0-0.865-0.189-1.852-0.448-2.32c-0.329-0.598-0.867-0.906-1.564-0.906
				C192.07,79.087,191.662,79.255,191.342,79.595z"/>
		</g>
	</g>
	<g>
		<g>
			<path d="M190.924,58.887c0.259,0.04,0.448,0.05,0.827,0.05h0.627c0.339,0,0.499-0.01,0.827-0.05
				c-0.06,0.608-0.09,1.116-0.09,1.654v4.843c0,0.467,0.021,0.756,0.08,1.125h-0.946c0.06-0.348,0.079-0.668,0.079-1.125v-5.77
				h-0.538c-0.318,0-0.577,0.02-0.866,0.06V58.887z"/>
			<path d="M197.358,65.95c-0.269-0.268-0.478-0.577-0.598-0.916c-0.249-0.698-0.378-1.485-0.378-2.302
				c0-1.056,0.229-2.132,0.577-2.71c0.479-0.807,1.246-1.226,2.232-1.226c0.737,0,1.375,0.239,1.823,0.708
				c0.279,0.279,0.479,0.588,0.598,0.917c0.249,0.688,0.379,1.485,0.379,2.312c0,1.206-0.259,2.271-0.697,2.879
				c-0.498,0.697-1.196,1.047-2.112,1.047C198.445,66.659,197.827,66.419,197.358,65.95z M197.936,59.993
				c-0.209,0.229-0.368,0.478-0.448,0.728c-0.209,0.607-0.309,1.285-0.309,2.013c0,0.926,0.199,1.903,0.468,2.371
				c0.349,0.579,0.867,0.868,1.545,0.868c0.498,0,0.927-0.16,1.226-0.469c0.219-0.229,0.379-0.488,0.468-0.777
				c0.21-0.617,0.31-1.275,0.31-2.012c0-0.867-0.189-1.854-0.448-2.322c-0.329-0.598-0.867-0.907-1.564-0.907
				C198.664,59.484,198.255,59.654,197.936,59.993z"/>
		</g>
	</g>
	<g>
		<g>
			<path d="M191.003,46.916c-0.627,0-0.777,0.01-1.096,0.05c0.109-0.787,0.14-0.937,0.289-1.315
				c0.249-0.628,0.667-1.176,1.295-1.714c0.349-0.299,0.369-0.309,1.524-1.096c0.986-0.667,1.315-1.106,1.315-1.713
				c0-0.757-0.638-1.246-1.654-1.246c-0.657,0-1.146,0.219-1.444,0.647c-0.189,0.269-0.279,0.508-0.349,1.006l-0.837-0.14
				c0.149-0.717,0.299-1.066,0.628-1.435c0.448-0.508,1.126-0.767,2.002-0.767c1.505,0,2.472,0.757,2.472,1.933
				c0,0.508-0.199,0.986-0.588,1.415c-0.299,0.339-0.559,0.528-1.694,1.286c-0.787,0.528-1.105,0.807-1.435,1.226
				c-0.309,0.408-0.448,0.677-0.568,1.156h3.179c0.498,0,0.837-0.02,1.216-0.07v0.837c-0.398-0.04-0.728-0.06-1.226-0.06H191.003z"
				/>
			<path d="M197.358,46.357c-0.269-0.269-0.478-0.578-0.598-0.917c-0.249-0.697-0.378-1.484-0.378-2.301
				c0-1.056,0.229-2.132,0.577-2.71c0.479-0.807,1.246-1.226,2.232-1.226c0.737,0,1.375,0.239,1.823,0.708
				c0.279,0.279,0.479,0.588,0.598,0.917c0.249,0.688,0.379,1.485,0.379,2.312c0,1.206-0.259,2.271-0.697,2.879
				c-0.498,0.697-1.196,1.046-2.112,1.046C198.445,47.065,197.827,46.826,197.358,46.357z M197.936,40.399
				c-0.209,0.229-0.368,0.478-0.448,0.728c-0.209,0.607-0.309,1.285-0.309,2.013c0,0.926,0.199,1.903,0.468,2.371
				c0.349,0.578,0.867,0.867,1.545,0.867c0.498,0,0.927-0.16,1.226-0.468c0.219-0.229,0.379-0.488,0.468-0.777
				c0.21-0.618,0.31-1.275,0.31-2.013c0-0.867-0.189-1.854-0.448-2.322c-0.329-0.598-0.867-0.907-1.564-0.907
				C198.664,39.891,198.255,40.06,197.936,40.399z"/>
		</g>
	</g>
	<g>
		<g>
			<path d="M190.605,25.47c0.159,0.519,0.299,0.728,0.608,0.947c0.339,0.239,0.776,0.359,1.285,0.359
				c1.155,0,1.883-0.598,1.883-1.544c0-0.987-0.707-1.525-2.032-1.525c-0.279,0-0.528,0.02-0.797,0.05v-0.788
				c0.229,0.04,0.468,0.06,0.737,0.06c0.657,0,1.146-0.149,1.454-0.458c0.249-0.239,0.398-0.608,0.398-0.966
				c0-0.857-0.598-1.355-1.604-1.355c-0.608,0-1.047,0.169-1.325,0.528c-0.14,0.179-0.21,0.339-0.319,0.708l-0.827-0.179
				c0.17-0.508,0.289-0.737,0.538-0.997c0.438-0.479,1.116-0.728,1.983-0.728c1.444,0,2.361,0.757,2.361,1.953
				c0,0.608-0.26,1.146-0.697,1.455c-0.26,0.189-0.479,0.269-0.938,0.359c0.578,0.06,0.888,0.169,1.226,0.428
				c0.438,0.339,0.668,0.867,0.668,1.505c0,1.345-1.036,2.182-2.7,2.182c-1.007,0-1.754-0.279-2.231-0.817
				c-0.21-0.239-0.329-0.458-0.509-0.966L190.605,25.47z"/>
			<path d="M197.358,26.756c-0.269-0.269-0.478-0.578-0.598-0.917c-0.249-0.697-0.378-1.484-0.378-2.301
				c0-1.056,0.229-2.132,0.577-2.71c0.479-0.807,1.246-1.226,2.232-1.226c0.737,0,1.375,0.239,1.823,0.708
				c0.279,0.279,0.479,0.588,0.598,0.917c0.249,0.688,0.379,1.485,0.379,2.312c0,1.206-0.259,2.271-0.697,2.879
				c-0.498,0.697-1.196,1.046-2.112,1.046C198.445,27.463,197.827,27.224,197.358,26.756z M197.936,20.797
				c-0.209,0.229-0.368,0.478-0.448,0.728c-0.209,0.607-0.309,1.285-0.309,2.013c0,0.926,0.199,1.903,0.468,2.371
				c0.349,0.578,0.867,0.867,1.545,0.867c0.498,0,0.927-0.16,1.226-0.468c0.219-0.229,0.379-0.488,0.468-0.777
				c0.21-0.618,0.31-1.275,0.31-2.013c0-0.867-0.189-1.854-0.448-2.322c-0.329-0.598-0.867-0.907-1.564-0.907
				C198.664,20.289,198.255,20.458,197.936,20.797z"/>
		</g>
	</g>
	<g>
		<g>
			<path d="M189.628,5.072c0.21-0.239,0.438-0.518,0.648-0.767l2.521-3.149c0.339-0.418,0.518-0.667,0.747-1.016h0.747
				c-0.05,0.588-0.06,0.896-0.06,1.684v3.269h0.379c0.418,0,0.678-0.02,1.036-0.07v0.827c-0.369-0.05-0.618-0.07-1.046-0.07h-0.369
				v0.857c0,0.478,0.021,0.708,0.08,1.076h-0.907c0.06-0.349,0.08-0.628,0.08-1.076V5.779h-2.671c-0.558,0-0.856,0.01-1.186,0.04
				V5.072z M193.495,2.571c0-0.528,0.01-0.847,0.06-1.355c-0.209,0.299-0.458,0.627-0.747,0.996l-2.292,2.89h2.979V2.571z"/>
			<path d="M197.358,7.154c-0.269-0.269-0.478-0.578-0.598-0.917c-0.249-0.697-0.378-1.484-0.378-2.301
				c0-1.056,0.229-2.132,0.577-2.71C197.438,0.418,198.206,0,199.192,0c0.737,0,1.375,0.239,1.823,0.708
				c0.279,0.279,0.479,0.588,0.598,0.917c0.249,0.688,0.379,1.485,0.379,2.312c0,1.206-0.259,2.271-0.697,2.879
				c-0.498,0.697-1.196,1.046-2.112,1.046C198.445,7.862,197.827,7.623,197.358,7.154z M197.936,1.196
				c-0.209,0.229-0.368,0.478-0.448,0.728c-0.209,0.607-0.309,1.285-0.309,2.013c0,0.926,0.199,1.903,0.468,2.371
				c0.349,0.578,0.867,0.867,1.545,0.867c0.498,0,0.927-0.16,1.226-0.468c0.219-0.229,0.379-0.488,0.468-0.777
				c0.21-0.618,0.31-1.275,0.31-2.013c0-0.867-0.189-1.854-0.448-2.322c-0.329-0.598-0.867-0.907-1.564-0.907
				C198.664,0.688,198.255,0.857,197.936,1.196z"/>
		</g>
	</g>
	<g>
		<g>
			<path d="M30.538,124.755c-0.269-0.268-0.479-0.576-0.598-0.916c-0.25-0.697-0.379-1.484-0.379-2.301
				c0-1.057,0.229-2.133,0.578-2.711c0.478-0.807,1.245-1.225,2.232-1.225c0.737,0,1.375,0.238,1.823,0.707
				c0.279,0.279,0.479,0.588,0.598,0.916c0.25,0.688,0.379,1.484,0.379,2.313c0,1.205-0.259,2.271-0.698,2.879
				c-0.498,0.697-1.195,1.047-2.112,1.047C31.624,125.464,31.006,125.224,30.538,124.755z M31.116,118.798
				c-0.209,0.229-0.369,0.479-0.448,0.727c-0.209,0.607-0.309,1.285-0.309,2.014c0,0.926,0.199,1.902,0.468,2.371
				c0.349,0.578,0.867,0.867,1.544,0.867c0.498,0,0.926-0.16,1.226-0.469c0.219-0.229,0.378-0.488,0.468-0.777
				c0.209-0.617,0.309-1.275,0.309-2.014c0-0.865-0.189-1.852-0.448-2.32c-0.329-0.598-0.867-0.906-1.564-0.906
				C31.843,118.29,31.435,118.458,31.116,118.798z"/>
		</g>
	</g>
	<g>
		<g>
			<path d="M17.557,96.308c0.259,0.041,0.449,0.051,0.827,0.051h0.628c0.339,0,0.498-0.01,0.827-0.051
				c-0.06,0.609-0.089,1.117-0.089,1.654v4.844c0,0.467,0.02,0.756,0.08,1.125h-0.947c0.06-0.348,0.08-0.668,0.08-1.125v-5.77
				h-0.538c-0.319,0-0.578,0.02-0.867,0.059V96.308z"/>
			<path d="M23.991,103.372c-0.269-0.268-0.479-0.576-0.598-0.916c-0.25-0.697-0.379-1.484-0.379-2.301
				c0-1.057,0.229-2.133,0.578-2.711c0.478-0.807,1.245-1.225,2.232-1.225c0.737,0,1.375,0.238,1.823,0.707
				c0.279,0.279,0.478,0.588,0.598,0.916c0.25,0.688,0.379,1.484,0.379,2.313c0,1.205-0.259,2.271-0.698,2.879
				c-0.498,0.697-1.195,1.047-2.112,1.047C25.077,104.081,24.459,103.841,23.991,103.372z M24.568,97.415
				c-0.209,0.229-0.369,0.479-0.448,0.727c-0.209,0.607-0.309,1.285-0.309,2.014c0,0.926,0.199,1.902,0.468,2.371
				c0.349,0.578,0.867,0.867,1.544,0.867c0.498,0,0.926-0.16,1.226-0.469c0.219-0.229,0.378-0.488,0.468-0.777
				c0.209-0.617,0.309-1.275,0.309-2.014c0-0.865-0.189-1.852-0.448-2.32c-0.329-0.598-0.867-0.906-1.564-0.906
				C25.296,96.907,24.887,97.075,24.568,97.415z"/>
			<path d="M30.584,103.372c-0.269-0.268-0.479-0.576-0.598-0.916c-0.25-0.697-0.379-1.484-0.379-2.301
				c0-1.057,0.229-2.133,0.578-2.711c0.478-0.807,1.245-1.225,2.232-1.225c0.737,0,1.375,0.238,1.823,0.707
				c0.279,0.279,0.478,0.588,0.598,0.916c0.25,0.688,0.379,1.484,0.379,2.313c0,1.205-0.259,2.271-0.698,2.879
				c-0.498,0.697-1.195,1.047-2.112,1.047C31.67,104.081,31.053,103.841,30.584,103.372z M31.162,97.415
				c-0.209,0.229-0.369,0.479-0.448,0.727c-0.209,0.607-0.309,1.285-0.309,2.014c0,0.926,0.199,1.902,0.468,2.371
				c0.349,0.578,0.867,0.867,1.544,0.867c0.498,0,0.926-0.16,1.226-0.469c0.219-0.229,0.378-0.488,0.468-0.777
				c0.209-0.617,0.309-1.275,0.309-2.014c0-0.865-0.189-1.852-0.448-2.32c-0.329-0.598-0.867-0.906-1.564-0.906
				C31.89,96.907,31.481,97.075,31.162,97.415z"/>
		</g>
	</g>
	<g>
		<g>
			<path d="M17.637,82.548c-0.628,0-0.777,0.01-1.096,0.051c0.109-0.787,0.14-0.938,0.289-1.316
				c0.249-0.627,0.667-1.176,1.295-1.713c0.349-0.299,0.369-0.309,1.524-1.096c0.986-0.668,1.315-1.107,1.315-1.715
				c0-0.758-0.638-1.246-1.654-1.246c-0.658,0-1.146,0.221-1.445,0.648c-0.189,0.27-0.279,0.508-0.349,1.006l-0.837-0.139
				c0.149-0.717,0.299-1.066,0.627-1.436c0.449-0.508,1.126-0.768,2.003-0.768c1.504,0,2.471,0.758,2.471,1.934
				c0,0.508-0.199,0.986-0.588,1.416c-0.299,0.338-0.558,0.527-1.694,1.285c-0.787,0.527-1.106,0.807-1.435,1.225
				c-0.309,0.408-0.448,0.678-0.568,1.156h3.179c0.498,0,0.837-0.02,1.215-0.07v0.838c-0.398-0.041-0.728-0.061-1.226-0.061H17.637z
				"/>
			<path d="M23.991,81.989c-0.269-0.268-0.479-0.576-0.598-0.916c-0.25-0.697-0.379-1.484-0.379-2.301
				c0-1.057,0.229-2.133,0.578-2.711c0.478-0.807,1.245-1.225,2.232-1.225c0.737,0,1.375,0.238,1.823,0.707
				c0.279,0.279,0.478,0.588,0.598,0.916c0.25,0.688,0.379,1.484,0.379,2.313c0,1.205-0.259,2.271-0.698,2.879
				c-0.498,0.697-1.195,1.047-2.112,1.047C25.077,82.698,24.459,82.458,23.991,81.989z M24.568,76.032
				c-0.209,0.229-0.369,0.479-0.448,0.727c-0.209,0.607-0.309,1.285-0.309,2.014c0,0.926,0.199,1.902,0.468,2.371
				c0.349,0.578,0.867,0.867,1.544,0.867c0.498,0,0.926-0.16,1.226-0.469c0.219-0.229,0.378-0.488,0.468-0.777
				c0.209-0.617,0.309-1.275,0.309-2.014c0-0.865-0.189-1.852-0.448-2.32c-0.329-0.598-0.867-0.906-1.564-0.906
				C25.296,75.524,24.887,75.692,24.568,76.032z"/>
			<path d="M30.584,81.989c-0.269-0.268-0.479-0.576-0.598-0.916c-0.25-0.697-0.379-1.484-0.379-2.301
				c0-1.057,0.229-2.133,0.578-2.711c0.478-0.807,1.245-1.225,2.232-1.225c0.737,0,1.375,0.238,1.823,0.707
				c0.279,0.279,0.478,0.588,0.598,0.916c0.25,0.688,0.379,1.484,0.379,2.313c0,1.205-0.259,2.271-0.698,2.879
				c-0.498,0.697-1.195,1.047-2.112,1.047C31.67,82.698,31.053,82.458,30.584,81.989z M31.162,76.032
				c-0.209,0.229-0.369,0.479-0.448,0.727c-0.209,0.607-0.309,1.285-0.309,2.014c0,0.926,0.199,1.902,0.468,2.371
				c0.349,0.578,0.867,0.867,1.544,0.867c0.498,0,0.926-0.16,1.226-0.469c0.219-0.229,0.378-0.488,0.468-0.777
				c0.209-0.617,0.309-1.275,0.309-2.014c0-0.865-0.189-1.852-0.448-2.32c-0.329-0.598-0.867-0.906-1.564-0.906
				C31.89,75.524,31.481,75.692,31.162,76.032z"/>
		</g>
	</g>
	<g>
		<g>
			<path d="M17.238,59.33c0.16,0.519,0.299,0.728,0.608,0.947c0.339,0.239,0.777,0.359,1.286,0.359c1.156,0,1.883-0.598,1.883-1.544
				c0-0.987-0.707-1.525-2.032-1.525c-0.279,0-0.528,0.02-0.797,0.05v-0.788c0.229,0.04,0.468,0.06,0.737,0.06
				c0.658,0,1.146-0.149,1.455-0.458c0.25-0.239,0.399-0.608,0.399-0.966c0-0.857-0.598-1.355-1.604-1.355
				c-0.608,0-1.046,0.169-1.325,0.528c-0.139,0.179-0.209,0.339-0.319,0.708L16.7,55.165c0.169-0.508,0.289-0.737,0.538-0.997
				c0.438-0.479,1.116-0.728,1.983-0.728c1.445,0,2.362,0.757,2.362,1.953c0,0.608-0.259,1.146-0.698,1.455
				c-0.259,0.189-0.478,0.269-0.937,0.359c0.578,0.06,0.887,0.169,1.226,0.428c0.438,0.339,0.667,0.867,0.667,1.505
				c0,1.345-1.036,2.182-2.7,2.182c-1.006,0-1.754-0.279-2.232-0.817c-0.209-0.239-0.329-0.458-0.508-0.966L17.238,59.33z"/>
			<path d="M23.991,60.615c-0.269-0.269-0.479-0.578-0.598-0.917c-0.25-0.697-0.379-1.484-0.379-2.301
				c0-1.056,0.229-2.132,0.578-2.71c0.478-0.807,1.245-1.226,2.232-1.226c0.737,0,1.375,0.239,1.823,0.708
				c0.279,0.279,0.478,0.588,0.598,0.917c0.25,0.688,0.379,1.485,0.379,2.312c0,1.206-0.259,2.271-0.698,2.879
				c-0.498,0.697-1.195,1.046-2.112,1.046C25.077,61.323,24.459,61.083,23.991,60.615z M24.568,54.657
				c-0.209,0.229-0.369,0.478-0.448,0.728c-0.209,0.607-0.309,1.285-0.309,2.013c0,0.926,0.199,1.903,0.468,2.371
				c0.349,0.578,0.867,0.867,1.544,0.867c0.498,0,0.926-0.16,1.226-0.468c0.219-0.229,0.378-0.488,0.468-0.777
				c0.209-0.618,0.309-1.275,0.309-2.013c0-0.867-0.189-1.854-0.448-2.322c-0.329-0.598-0.867-0.907-1.564-0.907
				C25.296,54.148,24.887,54.318,24.568,54.657z"/>
			<path d="M30.584,60.615c-0.269-0.269-0.479-0.578-0.598-0.917c-0.25-0.697-0.379-1.484-0.379-2.301
				c0-1.056,0.229-2.132,0.578-2.71c0.478-0.807,1.245-1.226,2.232-1.226c0.737,0,1.375,0.239,1.823,0.708
				c0.279,0.279,0.478,0.588,0.598,0.917c0.25,0.688,0.379,1.485,0.379,2.312c0,1.206-0.259,2.271-0.698,2.879
				c-0.498,0.697-1.195,1.046-2.112,1.046C31.67,61.323,31.053,61.083,30.584,60.615z M31.162,54.657
				c-0.209,0.229-0.369,0.478-0.448,0.728c-0.209,0.607-0.309,1.285-0.309,2.013c0,0.926,0.199,1.903,0.468,2.371
				c0.349,0.578,0.867,0.867,1.544,0.867c0.498,0,0.926-0.16,1.226-0.468c0.219-0.229,0.378-0.488,0.468-0.777
				c0.209-0.618,0.309-1.275,0.309-2.013c0-0.867-0.189-1.854-0.448-2.322c-0.329-0.598-0.867-0.907-1.564-0.907
				C31.89,54.148,31.481,54.318,31.162,54.657z"/>
		</g>
	</g>
	<g>
		<g>
			<path d="M16.223,37.15c0.209-0.239,0.438-0.518,0.647-0.767l2.521-3.149c0.339-0.418,0.518-0.667,0.747-1.016h0.748
				c-0.05,0.588-0.06,0.896-0.06,1.684v3.269h0.379c0.418,0,0.677-0.02,1.036-0.07v0.827c-0.369-0.05-0.618-0.07-1.046-0.07h-0.369
				v0.857c0,0.478,0.02,0.708,0.08,1.076h-0.907c0.06-0.349,0.08-0.628,0.08-1.076v-0.857h-2.67c-0.558,0-0.857,0.01-1.186,0.04
				V37.15z M20.088,34.649c0-0.528,0.01-0.847,0.06-1.355c-0.209,0.299-0.458,0.627-0.748,0.996l-2.292,2.89h2.979V34.649z"/>
			<path d="M23.952,39.232c-0.269-0.269-0.479-0.578-0.598-0.917c-0.25-0.697-0.379-1.484-0.379-2.301
				c0-1.056,0.229-2.132,0.578-2.71c0.478-0.807,1.245-1.226,2.232-1.226c0.737,0,1.375,0.239,1.823,0.708
				c0.279,0.279,0.478,0.588,0.598,0.917c0.25,0.688,0.379,1.485,0.379,2.312c0,1.206-0.259,2.271-0.698,2.879
				c-0.498,0.697-1.195,1.046-2.112,1.046C25.038,39.94,24.42,39.701,23.952,39.232z M24.529,33.274
				c-0.209,0.229-0.369,0.478-0.448,0.728c-0.209,0.607-0.309,1.285-0.309,2.013c0,0.926,0.199,1.903,0.468,2.371
				c0.349,0.578,0.867,0.867,1.544,0.867c0.498,0,0.926-0.16,1.226-0.468c0.219-0.229,0.378-0.488,0.468-0.777
				c0.209-0.618,0.309-1.275,0.309-2.013c0-0.867-0.189-1.854-0.448-2.322c-0.329-0.598-0.867-0.907-1.564-0.907
				C25.257,32.766,24.848,32.935,24.529,33.274z"/>
			<path d="M30.545,39.232c-0.269-0.269-0.479-0.578-0.598-0.917c-0.25-0.697-0.379-1.484-0.379-2.301
				c0-1.056,0.229-2.132,0.578-2.71c0.478-0.807,1.245-1.226,2.232-1.226c0.737,0,1.375,0.239,1.823,0.708
				c0.279,0.279,0.478,0.588,0.598,0.917c0.25,0.688,0.379,1.485,0.379,2.312c0,1.206-0.259,2.271-0.698,2.879
				c-0.498,0.697-1.195,1.046-2.112,1.046C31.631,39.94,31.014,39.701,30.545,39.232z M31.123,33.274
				c-0.209,0.229-0.369,0.478-0.448,0.728c-0.209,0.607-0.309,1.285-0.309,2.013c0,0.926,0.199,1.903,0.468,2.371
				c0.349,0.578,0.867,0.867,1.544,0.867c0.498,0,0.926-0.16,1.226-0.468c0.219-0.229,0.378-0.488,0.468-0.777
				c0.209-0.618,0.309-1.275,0.309-2.013c0-0.867-0.189-1.854-0.448-2.322c-0.329-0.598-0.867-0.907-1.564-0.907
				C31.851,32.766,31.442,32.935,31.123,33.274z"/>
		</g>
	</g>
	<g>
		<g>
			<path d="M17.707,13.725c-0.02,0.179-0.02,0.179-0.08,0.448c0.479-0.458,1.056-0.688,1.744-0.688c0.728,0,1.345,0.239,1.793,0.677
				c0.449,0.429,0.668,1.017,0.668,1.754c0,1.604-1.046,2.63-2.69,2.63c-0.777,0-1.425-0.229-1.903-0.677
				c-0.249-0.25-0.388-0.458-0.627-0.937l0.817-0.239c0.1,0.279,0.169,0.408,0.319,0.578c0.339,0.379,0.837,0.588,1.415,0.588
				c1.116,0,1.863-0.757,1.863-1.903c0-1.096-0.688-1.813-1.744-1.813c-0.508,0-0.947,0.139-1.306,0.418
				c-0.239,0.189-0.349,0.329-0.458,0.598l-0.748-0.07c0.08-0.389,0.11-0.598,0.149-1.026l0.219-2.251
				c0.02-0.289,0.03-0.409,0.03-0.598c0-0.139,0-0.179-0.02-0.428c0.309,0.04,0.468,0.05,1.056,0.05h2.053
				c0.538,0,0.767-0.02,1.166-0.08v0.847c-0.378-0.06-0.697-0.08-1.166-0.08h-2.342L17.707,13.725z"/>
			<path d="M23.991,17.85c-0.269-0.269-0.479-0.578-0.598-0.917c-0.25-0.697-0.379-1.484-0.379-2.301
				c0-1.056,0.229-2.132,0.578-2.71c0.478-0.807,1.245-1.226,2.232-1.226c0.737,0,1.375,0.239,1.823,0.708
				c0.279,0.279,0.478,0.588,0.598,0.917c0.25,0.688,0.379,1.485,0.379,2.312c0,1.206-0.259,2.271-0.698,2.879
				c-0.498,0.697-1.195,1.046-2.112,1.046C25.077,18.557,24.459,18.318,23.991,17.85z M24.568,11.891
				c-0.209,0.229-0.369,0.478-0.448,0.728c-0.209,0.607-0.309,1.285-0.309,2.013c0,0.926,0.199,1.903,0.468,2.371
				c0.349,0.578,0.867,0.867,1.544,0.867c0.498,0,0.926-0.16,1.226-0.468c0.219-0.229,0.378-0.488,0.468-0.777
				c0.209-0.618,0.309-1.275,0.309-2.013c0-0.867-0.189-1.854-0.448-2.322c-0.329-0.598-0.867-0.907-1.564-0.907
				C25.296,11.383,24.887,11.552,24.568,11.891z"/>
			<path d="M30.584,17.85c-0.269-0.269-0.479-0.578-0.598-0.917c-0.25-0.697-0.379-1.484-0.379-2.301
				c0-1.056,0.229-2.132,0.578-2.71c0.478-0.807,1.245-1.226,2.232-1.226c0.737,0,1.375,0.239,1.823,0.708
				c0.279,0.279,0.478,0.588,0.598,0.917c0.25,0.688,0.379,1.485,0.379,2.312c0,1.206-0.259,2.271-0.698,2.879
				c-0.498,0.697-1.195,1.046-2.112,1.046C31.67,18.557,31.053,18.318,30.584,17.85z M31.162,11.891
				c-0.209,0.229-0.369,0.478-0.448,0.728c-0.209,0.607-0.309,1.285-0.309,2.013c0,0.926,0.199,1.903,0.468,2.371
				c0.349,0.578,0.867,0.867,1.544,0.867c0.498,0,0.926-0.16,1.226-0.468c0.219-0.229,0.378-0.488,0.468-0.777
				c0.209-0.618,0.309-1.275,0.309-2.013c0-0.867-0.189-1.854-0.448-2.322c-0.329-0.598-0.867-0.907-1.564-0.907
				C31.89,11.383,31.481,11.552,31.162,11.891z"/>
		</g>
	</g>
	<g>
		<g>
			<path d="M49.096,131.104c0.259,0.041,0.449,0.051,0.827,0.051h0.628c0.339,0,0.498-0.01,0.827-0.051
				c-0.06,0.609-0.089,1.117-0.089,1.654v4.844c0,0.467,0.02,0.756,0.08,1.125h-0.947c0.06-0.348,0.08-0.668,0.08-1.125v-5.77
				h-0.538c-0.319,0-0.578,0.02-0.867,0.059V131.104z"/>
		</g>
	</g>
	<g>
		<g>
			<path d="M71.214,136.884c0.16,0.52,0.299,0.729,0.608,0.947c0.339,0.238,0.777,0.359,1.286,0.359
				c1.156,0,1.883-0.598,1.883-1.545c0-0.986-0.707-1.525-2.032-1.525c-0.279,0-0.528,0.021-0.797,0.051v-0.787
				c0.229,0.039,0.468,0.059,0.737,0.059c0.658,0,1.146-0.148,1.455-0.457c0.25-0.24,0.399-0.607,0.399-0.967
				c0-0.857-0.598-1.355-1.604-1.355c-0.608,0-1.046,0.17-1.325,0.529c-0.139,0.178-0.209,0.338-0.319,0.707l-0.827-0.18
				c0.169-0.508,0.289-0.738,0.538-0.996c0.438-0.479,1.116-0.729,1.983-0.729c1.445,0,2.362,0.758,2.362,1.953
				c0,0.607-0.259,1.146-0.698,1.455c-0.259,0.189-0.478,0.27-0.937,0.359c0.578,0.059,0.887,0.168,1.226,0.428
				c0.438,0.34,0.667,0.867,0.667,1.504c0,1.346-1.036,2.184-2.7,2.184c-1.006,0-1.754-0.279-2.232-0.818
				c-0.209-0.238-0.329-0.457-0.508-0.967L71.214,136.884z"/>
		</g>
	</g>
	<g>
		<g>
			<path d="M94.136,134.044c-0.02,0.18-0.02,0.18-0.08,0.449c0.479-0.459,1.056-0.688,1.744-0.688c0.728,0,1.345,0.238,1.793,0.678
				c0.449,0.428,0.668,1.016,0.668,1.754c0,1.604-1.046,2.631-2.69,2.631c-0.777,0-1.425-0.23-1.903-0.678
				c-0.249-0.25-0.388-0.459-0.627-0.938l0.817-0.238c0.1,0.279,0.169,0.408,0.319,0.578c0.339,0.377,0.837,0.588,1.415,0.588
				c1.116,0,1.863-0.758,1.863-1.904c0-1.096-0.688-1.813-1.744-1.813c-0.508,0-0.947,0.139-1.306,0.418
				c-0.239,0.189-0.349,0.328-0.458,0.598l-0.748-0.07c0.08-0.389,0.11-0.598,0.149-1.025l0.219-2.252
				c0.02-0.289,0.03-0.408,0.03-0.598c0-0.141,0-0.18-0.02-0.43c0.309,0.041,0.468,0.051,1.056,0.051h2.053
				c0.538,0,0.767-0.02,1.166-0.08v0.848c-0.378-0.061-0.697-0.08-1.166-0.08h-2.342L94.136,134.044z"/>
		</g>
	</g>
	<g>
		<g>
			<path d="M120.718,131.833c-0.179,0.139-0.349,0.359-0.737,0.957c-0.896,1.385-1.315,2.23-1.704,3.447
				c-0.259,0.826-0.368,1.334-0.527,2.49h-0.947c0.319-1.803,0.588-2.699,1.206-3.975c0.479-0.998,0.906-1.686,1.794-2.891h-3.238
				c-0.469,0-0.748,0.02-1.126,0.07v-0.848c0.389,0.051,0.657,0.07,1.136,0.07h2.989c0.588,0,0.807-0.01,1.155-0.051V131.833z"/>
		</g>
	</g>
	<g>
		<g>
			<path d="M138.73,137.073c0.119,0.33,0.199,0.469,0.358,0.639c0.279,0.309,0.708,0.469,1.256,0.469
				c0.717,0,1.235-0.289,1.604-0.918c0.189-0.318,0.35-0.807,0.429-1.275c0.04-0.248,0.07-0.656,0.09-1.166
				c-0.14,0.27-0.219,0.369-0.398,0.559c-0.508,0.479-1.066,0.697-1.813,0.697c-0.737,0-1.365-0.229-1.794-0.658
				c-0.428-0.428-0.677-1.086-0.677-1.793c0-1.584,1.065-2.621,2.7-2.621c1.115,0,2.032,0.639,2.411,1.674
				c0.199,0.539,0.289,1.217,0.289,2.074c0,1.385-0.289,2.51-0.827,3.178c-0.498,0.627-1.156,0.926-2.072,0.926
				c-0.688,0-1.246-0.178-1.675-0.537c-0.278-0.229-0.438-0.459-0.697-0.986L138.73,137.073z M142.277,133.567
				c0-1.076-0.797-1.885-1.863-1.885c-0.657,0-1.255,0.32-1.584,0.848c-0.159,0.26-0.259,0.658-0.259,1.047
				c0,1.125,0.688,1.832,1.773,1.832C141.45,135.409,142.277,134.622,142.277,133.567z"/>
		</g>
	</g>
	<g>
		<g>
			<path d="M158.018,131.104c0.259,0.041,0.448,0.051,0.827,0.051h0.627c0.339,0,0.499-0.01,0.827-0.051
				c-0.06,0.609-0.09,1.117-0.09,1.654v4.844c0,0.467,0.021,0.756,0.08,1.125h-0.946c0.06-0.348,0.079-0.668,0.079-1.125v-5.77
				h-0.538c-0.318,0-0.577,0.02-0.866,0.059V131.104z"/>
			<path d="M164.612,131.104c0.259,0.041,0.448,0.051,0.827,0.051h0.627c0.339,0,0.499-0.01,0.827-0.051
				c-0.06,0.609-0.09,1.117-0.09,1.654v4.844c0,0.467,0.021,0.756,0.08,1.125h-0.946c0.06-0.348,0.079-0.668,0.079-1.125v-5.77
				h-0.538c-0.318,0-0.577,0.02-0.866,0.059V131.104z"/>
		</g>
	</g>
	<g>
		<g>
			<path stroke="#000000" stroke-width="0.2846" stroke-miterlimit="10" d="M214.002,22.024c-0.438,0-0.737,0.02-1.046,0.06v-0.717
				c0.288,0.04,0.598,0.06,1.056,0.06h5.969c0.458,0,0.757-0.02,1.056-0.06v0.717c-0.309-0.04-0.607-0.06-1.046-0.06h-2.721v3.697
				h3.1c0.488,0,0.807-0.02,1.065-0.07v0.747c-0.259-0.05-0.567-0.07-1.086-0.07h-3.079v2.75c0,0.369,0.021,0.737,0.07,1.086h-0.817
				c0.05-0.359,0.07-0.708,0.07-1.086v-2.75h-2.97c-0.508,0-0.827,0.02-1.096,0.07v-0.747c0.278,0.05,0.578,0.07,1.086,0.07h2.979
				v-3.697H214.002z M214.162,22.502c0.558,0.847,0.857,1.425,1.285,2.432l-0.628,0.319c-0.398-1.066-0.688-1.654-1.226-2.481
				L214.162,22.502z M220.339,22.782c-0.429,1.096-0.737,1.654-1.415,2.591l-0.598-0.299c0.688-0.867,0.996-1.435,1.405-2.581
				L220.339,22.782z"/>
		</g>
	</g>
	<g>
		<g>
			<path stroke="#000000" stroke-width="0.2846" stroke-miterlimit="10" d="M213.783,36.407c0-0.408-0.02-0.657-0.06-0.966h0.747
				c-0.05,0.299-0.06,0.538-0.06,0.947v1.674h0.22c0.398,0,0.598-0.01,0.787-0.05v0.658c-0.22-0.03-0.438-0.04-0.798-0.04h-0.209
				v2.959c0.458-0.209,0.658-0.319,1.206-0.628l0.029,0.628c-0.906,0.498-1.335,0.697-2.551,1.176
				c-0.179,0.07-0.358,0.139-0.498,0.199l-0.189-0.658c0.26-0.04,0.718-0.189,1.375-0.448v-3.229h-0.438
				c-0.418,0-0.617,0.01-0.866,0.06v-0.688c0.249,0.05,0.448,0.06,0.866,0.06h0.438V36.407z M217.001,37.474
				c-0.379,0.767-0.718,1.255-1.306,1.913c-0.039-0.05-0.069-0.08-0.079-0.11c-0.149-0.179-0.189-0.209-0.398-0.338
				c0.688-0.698,1.046-1.236,1.414-2.123c0.25-0.598,0.409-1.116,0.459-1.515l0.688,0.18c-0.04,0.1-0.06,0.149-0.12,0.339
				c-0.109,0.338-0.239,0.677-0.389,1.056h2.97c0.718-0.02,0.718-0.02,0.896-0.04c-0.029,0.199-0.04,0.378-0.04,0.787
				c0,2.182-0.089,3.717-0.278,4.853c-0.159,0.887-0.339,1.335-0.598,1.515c-0.17,0.109-0.438,0.159-0.857,0.159
				c-0.289,0-0.607-0.02-1.166-0.08c-0.02-0.249-0.06-0.409-0.179-0.698c0.548,0.11,1.076,0.169,1.425,0.169
				c0.378,0,0.518-0.139,0.647-0.647c0.249-0.997,0.358-2.491,0.368-5.42H217.001z M219.761,41.001
				c-1.076,0.647-1.634,0.927-3.179,1.594c-0.119,0.05-0.179,0.08-0.259,0.129l-0.259-0.697c0.189-0.04,0.368-0.09,0.578-0.169
				c1.136-0.418,2.013-0.847,3.009-1.485L219.761,41.001z M216.573,38.938c0.26,0.05,0.438,0.06,0.867,0.06h1.195
				c0.409,0,0.628-0.02,0.827-0.06v0.667c-0.209-0.03-0.458-0.04-0.817-0.04h-1.215c-0.398,0-0.618,0.01-0.857,0.06V38.938z"/>
		</g>
	</g>
	<g>
		<g>
			<path stroke="#000000" stroke-width="0.2846" stroke-miterlimit="10" d="M214.491,51.065c-0.498,0.827-0.897,1.306-1.564,1.923
				c-0.07-0.149-0.209-0.269-0.469-0.438c0.857-0.717,1.445-1.504,1.903-2.521c0.109-0.239,0.159-0.389,0.189-0.588l0.707,0.16
				c-0.069,0.12-0.079,0.139-0.169,0.349c-0.09,0.179-0.13,0.269-0.279,0.538h4.902c0.578,0,0.917-0.02,1.256-0.07v0.717
				c-0.239-0.05-0.647-0.07-1.256-0.07H214.491z M218.317,58.209c-0.618-0.638-1.057-1.036-1.943-1.734
				c-0.937,0.867-1.644,1.335-3.118,2.033c-0.149-0.249-0.239-0.359-0.479-0.548c1.425-0.598,2.242-1.086,3.089-1.863
				c-0.598-0.438-0.986-0.688-1.903-1.226l0.429-0.399c0.807,0.458,1.235,0.728,1.903,1.206c0.577-0.598,0.976-1.156,1.115-1.544
				l0.638,0.369c-0.04,0.05-0.04,0.05-0.14,0.169c-0.05,0.069-0.05,0.069-0.249,0.338c-0.259,0.359-0.548,0.708-0.856,1.037
				c0.737,0.548,1.275,1.006,1.973,1.644L218.317,58.209z M214.092,53.885c-0.438,0-0.737,0.02-1.026,0.06v-0.678
				c0.269,0.04,0.538,0.06,0.927,0.06h4.772c0.588,0,0.817-0.01,1.126-0.05c-0.03,0.299-0.04,0.528-0.04,0.847
				c0,1.216,0.13,2.222,0.369,2.899c0.139,0.399,0.389,0.788,0.498,0.788c0.14,0,0.299-0.748,0.358-1.664
				c0.209,0.209,0.319,0.289,0.548,0.389c-0.079,0.688-0.14,0.986-0.269,1.365c-0.13,0.418-0.349,0.648-0.598,0.648
				c-0.389,0-0.877-0.588-1.146-1.395c-0.249-0.748-0.358-1.684-0.379-3.269H214.092z M214.261,51.862
				c0.189,0.04,0.458,0.05,0.867,0.05h4.035c0.479,0,0.768-0.02,0.977-0.06v0.677c-0.27-0.05-0.508-0.06-0.977-0.06h-3.976
				c-0.408,0-0.678,0.01-0.927,0.05V51.862z"/>
		</g>
	</g>
	<g>
		<g>
			<path stroke="#000000" stroke-width="0.2846" stroke-miterlimit="10" d="M212.867,66.415c0.617,0.369,1.105,0.736,1.693,1.256
				l-0.398,0.547c-0.598-0.607-0.996-0.926-1.664-1.334L212.867,66.415z M214.69,69.593c-0.498,1.275-0.777,1.844-1.346,2.811
				c-0.079,0.119-0.129,0.209-0.199,0.348l-0.588-0.518c0.528-0.527,1.087-1.594,1.604-3.02L214.69,69.593z M213.365,64.003
				c0.657,0.448,1.036,0.757,1.604,1.315l-0.409,0.508c-0.528-0.579-0.927-0.927-1.594-1.375L213.365,64.003z M221.057,71.925
				c0.278,0,0.418-0.01,0.627-0.049v0.646c-0.139-0.02-0.238-0.039-0.328-0.039c-0.18,0-0.398-0.01-0.647-0.021h-5.421
				c-0.329,0-0.678,0.021-0.977,0.061v-0.646c0.229,0.039,0.438,0.049,0.678,0.049h0.279l-0.011-2.391c0-0.34-0.01-0.52-0.029-0.787
				c0.259,0.029,0.468,0.039,0.916,0.039H220c0.479,0,0.668-0.01,0.917-0.039c-0.04,0.367-0.04,0.457-0.04,0.746v2.432H221.057z
				 M216.523,67.849c-0.349,0-0.667,0.012-0.927,0.031c0.021-0.25,0.03-0.508,0.03-0.848V65.07c0-0.339-0.01-0.578-0.03-0.837
				c0.229,0.03,0.498,0.04,0.947,0.04h2.989c0.468,0,0.747-0.01,0.956-0.04c-0.03,0.309-0.04,0.499-0.04,0.817v2.012
				c0,0.311,0.01,0.51,0.04,0.818c-0.249-0.02-0.558-0.031-0.927-0.031H216.523z M215.856,71.925h1.086v-2.611h-1.086V71.925z
				 M216.224,65.776h3.627V64.81h-3.627V65.776z M216.224,67.331h3.627v-1.025h-3.627V67.331z M217.509,71.925h1.097v-2.611h-1.097
				V71.925z M219.173,71.925h1.116v-2.611h-1.116V71.925z"/>
		</g>
	</g>
	<g>
		<g>
			<path stroke="#000000" stroke-width="0.2846" stroke-miterlimit="10" d="M213.056,83.171c0.856-0.748,1.335-1.057,2.143-1.387
				c0.797-0.328,1.574-0.477,2.44-0.477c0.877,0,1.654,0.148,2.451,0.477c0.808,0.33,1.286,0.639,2.143,1.387v0.887
				c-0.837-0.838-1.295-1.166-2.053-1.516c-0.797-0.359-1.624-0.537-2.541-0.537c-0.906,0-1.733,0.178-2.53,0.537
				c-0.758,0.35-1.216,0.678-2.053,1.516V83.171z"/>
		</g>
	</g>
	<g>
		<g>
			<path stroke="#000000" stroke-width="0.2846" stroke-miterlimit="10" d="M214.42,89.274c0,0.629-0.498,1.127-1.115,1.127
				c-0.628,0-1.126-0.498-1.126-1.127c0-0.617,0.498-1.115,1.126-1.115C213.922,88.159,214.42,88.657,214.42,89.274z
				 M212.627,89.274c0,0.379,0.299,0.678,0.678,0.678c0.368,0,0.667-0.299,0.667-0.678c0-0.367-0.299-0.668-0.667-0.668
				C212.926,88.606,212.627,88.907,212.627,89.274z M220.499,91.259c-0.149-0.43-0.249-0.639-0.458-0.877
				c-0.398-0.469-1.007-0.719-1.733-0.719c-1.614,0-2.631,1.236-2.631,3.219c0,1.973,1.026,3.229,2.631,3.229
				c0.797,0,1.464-0.299,1.863-0.838c0.219-0.289,0.318-0.537,0.408-0.986l0.827,0.189c-0.18,0.588-0.31,0.867-0.538,1.186
				c-0.559,0.748-1.475,1.156-2.591,1.156c-0.957,0-1.764-0.299-2.332-0.877c-0.697-0.697-1.076-1.783-1.076-3.029
				c0-1.285,0.399-2.371,1.137-3.098c0.577-0.559,1.345-0.848,2.291-0.848c0.927,0,1.685,0.27,2.232,0.807
				c0.349,0.34,0.538,0.639,0.777,1.256L220.499,91.259z"/>
		</g>
	</g>
	<g>
		<g>
			<path stroke="#000000" stroke-width="0.2846" stroke-miterlimit="10" d="M213.056,99.444c0.837,0.836,1.295,1.166,2.053,1.514
				c0.797,0.359,1.634,0.539,2.53,0.539c0.907,0,1.744-0.18,2.541-0.539c0.758-0.348,1.216-0.678,2.053-1.514v0.887
				c-0.856,0.746-1.335,1.057-2.143,1.385c-0.797,0.328-1.584,0.479-2.451,0.479c-0.856,0-1.644-0.15-2.44-0.479
				c-0.808-0.328-1.286-0.639-2.143-1.385V99.444z"/>
		</g>
	</g>
	<g>
		<g>
			<path stroke="#000000" stroke-width="0.2846" stroke-miterlimit="10" d="M1.838,12.478c-0.438,0-0.737,0.02-1.046,0.06V11.82
				c0.289,0.04,0.598,0.06,1.056,0.06h5.968c0.458,0,0.757-0.02,1.056-0.06v0.717c-0.309-0.04-0.607-0.06-1.046-0.06h-2.72v3.697
				h3.099c0.488,0,0.807-0.02,1.066-0.07v0.747c-0.259-0.05-0.568-0.07-1.086-0.07H5.106v2.75c0,0.369,0.02,0.737,0.07,1.086H4.359
				c0.05-0.359,0.07-0.708,0.07-1.086v-2.75H1.459c-0.508,0-0.827,0.02-1.096,0.07v-0.747c0.279,0.05,0.578,0.07,1.086,0.07h2.979
				v-3.697H1.838z M1.998,12.956c0.558,0.847,0.857,1.425,1.286,2.432l-0.628,0.319c-0.398-1.066-0.688-1.654-1.226-2.481
				L1.998,12.956z M8.175,13.235c-0.428,1.096-0.737,1.654-1.415,2.591l-0.598-0.299c0.688-0.867,0.997-1.435,1.405-2.581
				L8.175,13.235z"/>
		</g>
	</g>
	<g>
		<g>
			<path stroke="#000000" stroke-width="0.2846" stroke-miterlimit="10" d="M1.619,26.868c0-0.408-0.02-0.657-0.06-0.966h0.748
				c-0.05,0.299-0.06,0.538-0.06,0.947v1.674h0.219c0.399,0,0.598-0.01,0.787-0.05v0.658c-0.219-0.03-0.438-0.04-0.797-0.04H2.247
				v2.959c0.458-0.209,0.658-0.319,1.206-0.628l0.03,0.628c-0.907,0.498-1.335,0.697-2.551,1.176
				c-0.18,0.07-0.359,0.139-0.499,0.199l-0.189-0.658c0.259-0.04,0.717-0.189,1.375-0.448V29.09H1.181
				c-0.418,0-0.618,0.01-0.867,0.06v-0.688c0.249,0.05,0.448,0.06,0.867,0.06h0.438V26.868z M4.837,27.935
				c-0.379,0.767-0.717,1.255-1.305,1.913c-0.04-0.05-0.07-0.08-0.08-0.11c-0.149-0.179-0.189-0.209-0.398-0.338
				c0.688-0.698,1.046-1.236,1.415-2.123c0.249-0.598,0.409-1.116,0.458-1.515l0.688,0.18c-0.04,0.1-0.06,0.149-0.12,0.339
				c-0.11,0.338-0.239,0.677-0.389,1.056h2.969c0.717-0.02,0.717-0.02,0.897-0.04c-0.03,0.199-0.04,0.378-0.04,0.787
				c0,2.182-0.09,3.717-0.279,4.853c-0.16,0.887-0.339,1.335-0.598,1.515c-0.169,0.109-0.438,0.159-0.857,0.159
				c-0.289,0-0.608-0.02-1.166-0.08c-0.02-0.249-0.06-0.409-0.18-0.698c0.548,0.11,1.076,0.169,1.425,0.169
				c0.379,0,0.519-0.139,0.648-0.647c0.249-0.997,0.358-2.491,0.369-5.42H4.837z M7.597,31.462
				c-1.076,0.647-1.634,0.927-3.178,1.594c-0.12,0.05-0.179,0.08-0.259,0.129l-0.259-0.697c0.189-0.04,0.369-0.09,0.578-0.169
				c1.136-0.418,2.013-0.847,3.009-1.485L7.597,31.462z M4.409,29.399c0.259,0.05,0.438,0.06,0.867,0.06h1.196
				c0.408,0,0.627-0.02,0.827-0.06v0.667c-0.209-0.03-0.458-0.04-0.817-0.04H5.266c-0.398,0-0.618,0.01-0.857,0.06V29.399z"/>
		</g>
	</g>
	<g>
		<g>
			<path stroke="#000000" stroke-width="0.2846" stroke-miterlimit="10" d="M3.741,40.743c-0.06,0.11-0.06,0.11-0.378,0.797
				c-0.239,0.548-0.508,1.056-0.867,1.654c0.429,0.528,0.598,0.817,0.757,1.236c0.14,0.378,0.209,0.727,0.209,1.096
				c0,0.479-0.149,0.847-0.409,1.006c-0.159,0.1-0.428,0.149-0.817,0.149c-0.11,0-0.279-0.01-0.479-0.02
				c-0.03-0.299-0.05-0.409-0.129-0.608c0.269,0.05,0.389,0.06,0.618,0.06c0.499,0,0.598-0.12,0.598-0.737
				c0-0.428-0.16-0.946-0.438-1.395c-0.129-0.219-0.269-0.398-0.578-0.727c0.548-0.877,0.807-1.405,1.126-2.302H1.4v7.184
				c0,0.369,0.02,0.667,0.05,0.926H0.722c0.04-0.289,0.06-0.568,0.06-0.926v-7.015c0-0.269-0.01-0.499-0.03-0.757
				c0.14,0.02,0.209,0.03,0.289,0.03h1.754c0.309,0,0.468-0.01,0.618-0.04L3.741,40.743z M4.559,45.496
				c-0.349,0-0.528,0.01-0.757,0.05v-0.647c0.219,0.04,0.408,0.05,0.797,0.05h2.083v-0.18c0-0.259-0.01-0.488-0.05-0.767h0.688
				c-0.04,0.259-0.05,0.479-0.05,0.767v0.18h0.857c0.428,0,0.608-0.01,0.857-0.05v0.647c-0.259-0.04-0.458-0.05-0.857-0.05H7.269
				v1.365h1.285c0.419,0,0.618-0.01,0.867-0.05v0.647c-0.269-0.04-0.499-0.05-0.907-0.05H7.269v0.857c0,0.359,0.02,0.588,0.06,0.857
				H6.621c0.04-0.269,0.06-0.508,0.06-0.857v-0.857H4.14c-0.409,0-0.658,0.01-0.917,0.05v-0.647c0.239,0.04,0.398,0.05,0.767,0.05
				h0.568V45.496z M7.558,40.773c0.339,0,0.508-0.01,0.708-0.04l0.349,0.358c-0.688,0.907-0.977,1.216-1.674,1.784
				c0.757,0.488,1.534,0.797,2.62,1.046c-0.139,0.189-0.199,0.309-0.299,0.558c-1.156-0.329-1.963-0.688-2.78-1.256
				c-0.827,0.578-1.495,0.907-2.77,1.355c-0.12-0.239-0.229-0.389-0.369-0.538c1.136-0.319,1.893-0.658,2.67-1.166
				c-0.398-0.329-0.618-0.558-1.076-1.106c-0.398,0.418-0.688,0.647-1.255,1.036c-0.129-0.189-0.219-0.299-0.418-0.448
				c0.946-0.548,1.544-1.126,2.033-1.923c0.129-0.2,0.199-0.349,0.279-0.538l0.638,0.169c-0.219,0.358-0.279,0.468-0.448,0.707
				H7.558z M6.681,46.861v-1.365H5.156v1.365H6.681z M5.315,41.361c0.438,0.558,0.678,0.807,1.156,1.186
				c0.538-0.429,0.797-0.688,1.255-1.246H5.365L5.315,41.361z"/>
		</g>
	</g>
	<g>
		<g>
			<path stroke="#000000" stroke-width="0.2846" stroke-miterlimit="10" d="M3.99,57.214c-0.08,0.199-0.089,0.239-0.209,0.618
				c-0.538,1.804-1.554,3.308-2.969,4.395c-0.189-0.229-0.299-0.319-0.558-0.499c0.647-0.428,1.136-0.887,1.654-1.554
				c0.638-0.837,1.017-1.594,1.315-2.67H1.579c-0.418,0-0.708,0.02-0.947,0.06v-0.727c0.25,0.04,0.499,0.05,0.967,0.05h1.066
				c0.528,0,0.757-0.01,0.947-0.04L3.99,57.214z M8.704,56.487c-0.13,0.129-0.13,0.129-0.279,0.309
				c-0.239,0.279-0.917,0.967-1.285,1.305C6.86,58.35,6.86,58.35,6.292,58.799c0.349,0.518,0.748,1.006,1.176,1.425
				c0.598,0.588,1.126,0.977,1.943,1.395c-0.249,0.219-0.358,0.349-0.528,0.627c-0.817-0.488-1.515-1.086-2.142-1.823
				c-0.438-0.508-0.797-1.036-1.126-1.654c-0.239-0.449-0.339-0.688-0.528-1.266c0.06,0.867,0.08,1.415,0.08,1.943v2.949
				c0,0.628-0.199,0.797-0.907,0.797c-0.378,0-0.787-0.02-1.265-0.07c-0.02-0.289-0.06-0.428-0.16-0.688
				c0.558,0.1,0.947,0.14,1.335,0.14c0.279,0,0.339-0.05,0.339-0.289v-6.805c0-0.359-0.02-0.678-0.07-1.007h0.787
				c-0.06,0.319-0.08,0.638-0.08,0.997v0.688c0.129,0.708,0.358,1.305,0.837,2.132c1.126-0.947,1.783-1.664,2.102-2.292
				L8.704,56.487z"/>
		</g>
	</g>
	<g>
		<g>
			<path stroke="#000000" stroke-width="0.2846" stroke-miterlimit="10" d="M0.403,71.735c0.269,0.039,0.568,0.049,0.986,0.049
				h6.865c0.418,0,0.718-0.01,0.987-0.049v0.588c-0.259-0.041-0.479-0.051-0.977-0.051H1.39c-0.488,0-0.727,0.01-0.986,0.051V71.735
				z M2.576,75.263c-0.409,0-0.668,0.01-0.957,0.039c0.03-0.27,0.03-0.379,0.03-0.807v-1.057c0-0.27-0.01-0.459-0.03-0.688
				c0.199,0.029,0.498,0.041,0.946,0.041h4.563c0.379,0,0.638-0.012,0.927-0.041c-0.02,0.189-0.03,0.379-0.03,0.658v1.096
				c0,0.359,0.01,0.637,0.03,0.797c-0.358-0.029-0.618-0.039-0.957-0.039H5.066v0.566h2.631c0.408,0,0.607-0.01,0.837-0.049v0.568
				c-0.259-0.041-0.468-0.051-0.857-0.051H5.066v0.588h3.159c0.458,0,0.717-0.01,1.017-0.059v0.598
				c-0.299-0.041-0.598-0.061-1.017-0.061H1.42c-0.418,0-0.728,0.02-1.017,0.061v-0.598c0.299,0.049,0.558,0.059,1.017,0.059h3.069
				v-0.588H2.047c-0.398,0-0.608,0.01-0.867,0.051V75.78c0.219,0.039,0.438,0.049,0.847,0.049h2.461v-0.566H2.576z M2.426,71.286
				c-0.558,0-0.748,0.01-0.987,0.029c0.03-0.219,0.04-0.408,0.04-0.756v-0.906c0-0.301-0.01-0.488-0.04-0.719
				c0.289,0.031,0.558,0.041,0.987,0.041h4.822c0.438,0,0.688-0.01,0.967-0.041c-0.03,0.219-0.04,0.408-0.04,0.719v0.906
				c0,0.289,0.01,0.498,0.04,0.756c-0.249-0.02-0.418-0.029-0.997-0.029H2.426z M2.047,69.911h5.56v-0.488h-5.56V69.911z
				 M2.047,70.849h5.55v-0.508h-5.55V70.849z M2.217,73.239v0.568h2.272v-0.568H2.217z M2.217,74.235v0.578h2.272v-0.578H2.217z
				 M5.066,73.808h2.392v-0.568H5.066V73.808z M5.066,74.813h2.392v-0.578H5.066V74.813z"/>
		</g>
	</g>
	<g>
		<g>
			<path stroke="#000000" stroke-width="0.2846" stroke-miterlimit="10" d="M0.885,87.905c0.857-0.748,1.335-1.057,2.142-1.387
				c0.797-0.328,1.574-0.477,2.441-0.477c0.876,0,1.654,0.148,2.451,0.477c0.807,0.33,1.285,0.639,2.142,1.387v0.887
				c-0.837-0.838-1.295-1.166-2.053-1.516c-0.797-0.359-1.624-0.537-2.541-0.537c-0.907,0-1.734,0.178-2.531,0.537
				c-0.757,0.35-1.216,0.678-2.053,1.516V87.905z"/>
		</g>
	</g>
	<g>
		<g>
			<path stroke="#000000" stroke-width="0.2846" stroke-miterlimit="10" d="M0.902,101.47c0.05-0.359,0.07-0.658,0.07-1.125v-3.119
				c0-0.498-0.02-0.768-0.07-1.127h0.807v0.549c0,0.049-0.01,0.17-0.02,0.359c0.09-0.17,0.179-0.289,0.378-0.498
				c0.339-0.34,0.827-0.52,1.405-0.52c0.568,0,0.986,0.17,1.285,0.508c0.149,0.16,0.209,0.279,0.309,0.578
				c0.468-0.766,1.006-1.086,1.843-1.086c0.658,0,1.156,0.209,1.455,0.607c0.239,0.32,0.339,0.709,0.339,1.297v2.461
				c0,0.498,0.02,0.768,0.07,1.115H7.877c0.06-0.369,0.07-0.598,0.07-1.125v-2.352c0-0.947-0.349-1.355-1.146-1.355
				c-0.498,0-0.966,0.27-1.255,0.727c-0.189,0.289-0.329,0.729-0.329,1.027v1.963c0,0.498,0.02,0.777,0.07,1.115H4.39
				c0.05-0.359,0.07-0.617,0.07-1.125v-2.352c0-0.877-0.398-1.355-1.116-1.355c-0.518,0-0.996,0.279-1.305,0.758
				c-0.179,0.268-0.329,0.736-0.329,0.996v1.953c0,0.457,0.02,0.727,0.07,1.125H0.902z"/>
		</g>
	</g>
	<g>
		<g>
			<path stroke="#000000" stroke-width="0.2846" stroke-miterlimit="10" d="M0.902,115.876c0.05-0.359,0.07-0.658,0.07-1.125v-3.119
				c0-0.498-0.02-0.768-0.07-1.127h0.807v0.549c0,0.049-0.01,0.17-0.02,0.359c0.09-0.17,0.179-0.289,0.378-0.498
				c0.339-0.34,0.827-0.52,1.405-0.52c0.568,0,0.986,0.17,1.285,0.508c0.149,0.16,0.209,0.279,0.309,0.578
				c0.468-0.766,1.006-1.086,1.843-1.086c0.658,0,1.156,0.209,1.455,0.607c0.239,0.32,0.339,0.709,0.339,1.297v2.461
				c0,0.498,0.02,0.768,0.07,1.115H7.877c0.06-0.369,0.07-0.598,0.07-1.125v-2.352c0-0.947-0.349-1.355-1.146-1.355
				c-0.498,0-0.966,0.27-1.255,0.727c-0.189,0.289-0.329,0.729-0.329,1.027v1.963c0,0.498,0.02,0.777,0.07,1.115H4.39
				c0.05-0.359,0.07-0.617,0.07-1.125v-2.352c0-0.877-0.398-1.355-1.116-1.355c-0.518,0-0.996,0.279-1.305,0.758
				c-0.179,0.268-0.329,0.736-0.329,0.996v1.953c0,0.457,0.02,0.727,0.07,1.125H0.902z"/>
		</g>
	</g>
	<g>
		<g>
			<path stroke="#000000" stroke-width="0.2846" stroke-miterlimit="10" d="M0.885,118.702c0.837,0.836,1.295,1.166,2.053,1.514
				c0.797,0.359,1.634,0.539,2.531,0.539c0.907,0,1.744-0.18,2.541-0.539c0.757-0.348,1.216-0.678,2.053-1.514v0.887
				c-0.857,0.746-1.335,1.057-2.142,1.385c-0.797,0.328-1.584,0.479-2.451,0.479c-0.857,0-1.644-0.15-2.441-0.479
				c-0.807-0.328-1.285-0.639-2.142-1.385V118.702z"/>
		</g>
	</g>
	<g>
		<g>
			<path stroke="#000000" stroke-width="0.2846" stroke-miterlimit="10" d="M176.519,140.114c-0.089,0.578-0.219,1.076-0.408,1.545
				c-0.259,0.656-0.538,1.096-1.096,1.732c-0.18-0.229-0.319-0.367-0.548-0.527c0.617-0.617,0.937-1.146,1.176-1.953
				c0.278-0.947,0.389-2.172,0.389-4.385c0-0.916-0.011-1.314-0.04-1.693c0.358,0.039,0.617,0.051,1.046,0.051h3.746
				c0.438,0,0.698-0.012,1.037-0.051c-0.03,0.27-0.04,0.518-0.04,1.025v6.557c0,0.359-0.09,0.568-0.279,0.697
				c-0.159,0.1-0.349,0.131-0.797,0.131c-0.329,0-0.747-0.01-1.196-0.041c-0.029-0.258-0.069-0.418-0.159-0.678
				c0.498,0.07,0.946,0.1,1.425,0.1c0.289,0,0.369-0.059,0.369-0.309v-2.201H176.519z M181.143,139.517v-1.773h-4.444
				c-0.01,0.547-0.029,0.926-0.109,1.773H181.143z M181.143,137.146v-1.654h-4.435l-0.01,1.414v0.24H181.143z"/>
		</g>
	</g>
</g>
</svg>
