<?xml version="1.0" encoding="utf-8"?>
<!-- Generator: Adobe Illustrator 16.0.0, SVG Export Plug-In . SVG Version: 6.00 Build 0)  -->
<!DOCTYPE svg PUBLIC "-//W3C//DTD SVG 1.1//EN" "http://www.w3.org/Graphics/SVG/1.1/DTD/svg11.dtd">
<svg version="1.1" id="レイヤー_1" xmlns="http://www.w3.org/2000/svg" xmlns:xlink="http://www.w3.org/1999/xlink" x="0px"
	 y="0px" width="253.704px" height="257.269px" viewBox="0 0 253.704 257.269" enable-background="new 0 0 253.704 257.269"
	 xml:space="preserve">
<path fill="none" stroke="#93762C" stroke-width="0.75" stroke-miterlimit="10" d="M118.65,126.369c0,0-20.75,16.25-29,16.25
	s-17.75-3.75-13-14.5s34.25-47.75,49.5-49.25s24.073-2.289,33.5,6c9.667,8.5,11.417,10.417,10.083,12.167s-4.917,4-12.5,4
	s-12.167,1.667-16,4.583S118.65,126.369,118.65,126.369z"/>
<path fill="none" stroke="#93762C" stroke-width="0.75" stroke-miterlimit="10" d="M88.65,89.286c0,0,11.5-9.75,23.333-18.583
	s16.833-15.5,30.833-12.167s21.153,8.546,31.333,17.5c13.833,12.167,33.523,46.142,23.667,52
	c-6.167,3.666-18.334-15.334-26.667-15.5s-21.833,12-40,26.833s-63.167,42.833-69,36s-14.667-21.166,1-47.333
	S83.182,95.337,88.65,89.286z"/>
<path fill="none" stroke="#93762C" stroke-width="0.75" stroke-miterlimit="10" d="M92.65,74.035c0,0,41.667-44.333,73.333-33
	s41.292,40.958,45.417,65.708s11.5,78.376-4.5,78.376c-19,0-26.125-60.721-36.773-60.721c0,0-4.768,0.345-15.435,7.345
	s-77.875,69.459-103.208,69.459s-21.5-22.5-10.667-50.667S67.817,97.535,92.65,74.035z"/>
<path fill="none" stroke="#93762C" stroke-width="0.75" stroke-miterlimit="10" d="M83.9,68.119c0,0,57.953-51,86.227-51
	s51.023,50,57.523,70s22.878,90.769-1.25,129.5c-19,30.5-44-23.5-48.5-37s-9.764-34.75-16.382-28.75s-71.868,50-94.868,58.25
	s-44.75,8.5-43.25-21.25S43.65,106.369,83.9,68.119z"/>
<path fill="none" stroke="#93762C" stroke-width="0.75" stroke-miterlimit="10" d="M78.4,54.869c0,0,64.5-63,101-53.5
	s61.5,70.75,68,117s13.75,94-14.5,125.25s-53.75-1.25-64-10.5s-17-29-23-23.5s-109.25,60-132.5,27.25s-15.843-107.311,26-146
	C81.244,52.18,78.4,54.869,78.4,54.869z"/>
<path fill="none" stroke="#93762C" stroke-width="0.75" stroke-miterlimit="10" d="M110.984,96.202c0,0,12.083-7.333,14.583-5.333
	s2.82,6.833,1.285,8.583s-19.368,14.628-23.868,10.814S110.984,96.202,110.984,96.202z"/>
<path fill="none" stroke="#FF0000" stroke-width="2" stroke-miterlimit="10" d="M173.134,0.018
	c-0.667,36.667-41.902,58.232-41.902,58.232l-18.431,45.102c-71.667,67.667-90.929,140.524-90.929,140.524 M204.118,256.651
	c19.35-52.133-0.192-110.991-3.64-119.633c-4.581-11.485-11.344-25.333-27.344-38.5s-60.333,4.833-60.333,4.833"/>
<path fill="none" stroke="#5DC96C" stroke-width="2" stroke-miterlimit="10" d="M146.654,102.631c0,0,24.846,3.421,24.497,9.904
	s-22.424,96.208-22.424,96.208"/>
</svg>
