<?xml version="1.0" encoding="utf-8"?>
<!-- Generator: Adobe Illustrator 16.0.0, SVG Export Plug-In . SVG Version: 6.00 Build 0)  -->
<!DOCTYPE svg PUBLIC "-//W3C//DTD SVG 1.1//EN" "http://www.w3.org/Graphics/SVG/1.1/DTD/svg11.dtd">
<svg version="1.1" id="レイヤー_1" xmlns="http://www.w3.org/2000/svg" xmlns:xlink="http://www.w3.org/1999/xlink" x="0px"
	 y="0px" width="160.254px" height="204.105px" viewBox="0 0 160.254 204.105" enable-background="new 0 0 160.254 204.105"
	 xml:space="preserve">
<circle fill="#DBF5FF" stroke="#231815" stroke-miterlimit="10" cx="80.127" cy="104.804" r="79.627"/>
<g>
	<g>
		<line fill="none" stroke="#231815" stroke-miterlimit="10" x1="80.129" y1="25.178" x2="80.129" y2="26.678"/>
		
			<line fill="none" stroke="#231815" stroke-miterlimit="10" stroke-dasharray="2.9857,4.9761" x1="80.129" y1="31.655" x2="80.129" y2="180.441"/>
		<line fill="none" stroke="#231815" stroke-miterlimit="10" x1="80.129" y1="182.929" x2="80.129" y2="184.429"/>
	</g>
</g>
<line fill="none" stroke="#231815" stroke-miterlimit="10" x1="116.813" y1="20.026" x2="43.44" y2="189.582"/>
<path fill="none" stroke="#FF8080" stroke-width="1.5" stroke-miterlimit="10" stroke-dasharray="3,5" d="M153.203,136.427
	c3.482-8.047-26.412-28.727-66.771-46.191C46.071,72.77,10.531,65.134,7.049,73.181"/>
<path fill="none" stroke="#FF0000" stroke-width="1.5" stroke-miterlimit="10" d="M7.049,73.181
	c-3.482,8.047,26.413,28.728,66.772,46.191c40.361,17.466,75.9,25.102,79.382,17.054"/>
<g>
	<g>
		<path fill="none" stroke="#36637F" stroke-width="3" stroke-miterlimit="10" d="M132.688,23.705
			c5.355,3.747,8.326,7.298,7.396,9.447c-1.577,3.644-13.77,1.873-27.232-3.953c-13.463-5.825-23.101-13.502-21.522-17.146
			c1.407-3.254,11.288-2.188,22.978,2.229"/>
		<g>
			<polygon fill="#36637F" points="132.895,28.105 123.279,18.199 136.561,21.969 			"/>
		</g>
	</g>
</g>
<g>
	<path d="M98.633,70.952c0-0.563-0.023-0.983-0.072-1.331h0.888c-0.048,0.384-0.071,0.744-0.071,1.343v1.787h0.336
		c0.504,0,0.73-0.012,0.959-0.06v0.778c-0.3-0.035-0.552-0.048-0.971-0.048h-0.324v3.767c0.516-0.24,0.73-0.349,1.355-0.696
		l0.07,0.731c-1.162,0.647-1.738,0.911-3.094,1.463c-0.168,0.06-0.348,0.144-0.48,0.204l-0.203-0.828
		c0.433-0.072,0.744-0.181,1.607-0.54V73.42h-0.443c-0.504,0-0.695,0.013-1.008,0.072v-0.815c0.275,0.061,0.517,0.072,1.008,0.072
		h0.443V70.952z M102.303,78.724c0,0.287,0.071,0.384,0.359,0.456c0.288,0.084,0.826,0.107,1.931,0.107
		c1.691,0,2.195-0.072,2.388-0.348c0.156-0.216,0.24-0.769,0.252-1.619c0.275,0.168,0.42,0.228,0.768,0.312
		c-0.145,2.22-0.359,2.362-3.479,2.362c-2.482,0-2.975-0.18-2.975-1.115v-4.4l-0.264,0.084c-0.672,0.228-0.721,0.251-0.996,0.384
		l-0.217-0.816c0.337-0.036,0.66-0.107,1.045-0.239l0.432-0.145v-1.883c0-0.504-0.023-0.875-0.072-1.223h0.899
		c-0.048,0.358-0.071,0.708-0.071,1.187v1.679l1.715-0.575v-2.22c0-0.468-0.023-0.755-0.072-1.114h0.889
		c-0.048,0.348-0.072,0.694-0.072,1.127v1.967l1.848-0.612c0.371-0.12,0.623-0.228,0.947-0.372
		c-0.048,1.199-0.097,2.039-0.191,3.214c-0.084,1.067-0.239,1.571-0.553,1.751c-0.215,0.12-0.442,0.168-0.862,0.168
		c-0.107,0-0.253-0.012-0.527-0.036c-0.036-0.312-0.084-0.504-0.181-0.756c0.324,0.072,0.636,0.108,0.924,0.108
		c0.275,0,0.336-0.061,0.396-0.408c0.084-0.444,0.145-1.331,0.191-3.034l-1.99,0.685v3.31c0,0.48,0.023,0.804,0.071,1.151h-0.888
		c0.048-0.336,0.072-0.671,0.072-1.163V73.65l-1.715,0.576v4.498H102.303z"/>
	<path d="M111.986,79.108c0,0.576,0.025,0.947,0.072,1.247h-0.791c0.049-0.349,0.071-0.695,0.071-1.26V78.34h-1.127
		c-0.517,0-0.769,0.013-1.104,0.072v-0.768c0.324,0.048,0.576,0.06,1.104,0.06h1.127v-1.091h-0.61c-0.517,0-0.84,0.012-1.177,0.048
		c0.036-0.36,0.048-0.684,0.048-1.235v-1.835c0-0.54-0.012-0.863-0.048-1.223c0.3,0.036,0.612,0.048,1.177,0.048h0.61v-1.032h-1.056
		c-0.491,0-0.756,0.013-1.104,0.061v-0.769c0.323,0.061,0.575,0.072,1.104,0.072h1.056c0-0.647-0.012-0.924-0.071-1.271h0.791
		c-0.06,0.323-0.072,0.624-0.072,1.271h1.068c0.527,0,0.768-0.012,1.092-0.072v0.769c-0.349-0.048-0.588-0.061-1.092-0.061h-1.068
		v1.032h0.625c0.6,0,0.826-0.012,1.211-0.048c-0.036,0.312-0.049,0.684-0.049,1.223v1.835c0,0.553,0.013,0.937,0.049,1.235
		c-0.348-0.036-0.659-0.048-1.223-0.048h-0.613v1.091h1.021c0.492,0,0.731-0.012,1.079-0.06v0.768
		c-0.322-0.06-0.6-0.072-1.066-0.072h-1.031v0.769H111.986z M110.236,73.003v1.176h1.104v-1.176H110.236z M110.236,74.742v1.283
		h1.104v-1.283H110.236z M113.139,74.178v-1.176h-1.15v1.176H113.139z M113.139,76.025v-1.283h-1.15v1.283H113.139z M118.536,72.008
		c0.517,0,0.875-0.023,1.104-0.06c-0.024,0.276-0.037,0.54-0.037,1.163v5.913c0,0.456,0.023,0.959,0.072,1.307h-0.756v-0.636h-3.766
		v0.636h-0.756c0.047-0.372,0.072-0.792,0.072-1.283v-5.937c0-0.647-0.014-0.852-0.05-1.151c0.276,0.036,0.612,0.048,1.116,0.048
		h1.115v-1.354c0-0.552-0.024-0.863-0.072-1.175h0.827c-0.048,0.359-0.071,0.671-0.071,1.188v1.343L118.536,72.008L118.536,72.008z
		 M115.154,72.691v2.687h1.498v-2.687H115.154z M115.154,76.038v2.974h1.498v-2.974H115.154z M118.92,75.378v-2.687h-1.583v2.687
		H118.92z M118.92,79.011v-2.974h-1.583v2.974H118.92z"/>
</g>
<g>
	<path d="M99.289,142.816c-0.264,0.828-0.42,1.223-0.756,1.799c-0.299,0.527-0.504,0.814-0.995,1.379
		c-0.251-0.228-0.396-0.324-0.695-0.479c0.468-0.48,0.671-0.721,0.947-1.164c0.36-0.576,0.528-0.972,0.756-1.812L99.289,142.816z
		 M98.246,141.833c-0.504,0-0.889,0.024-1.248,0.072v-0.839c0.313,0.048,0.695,0.071,1.248,0.071h3.479v-1.69h-2.688
		c-0.491,0-0.779,0.012-1.115,0.06v-0.828c0.313,0.049,0.588,0.061,1.115,0.061h2.688v-0.444c0-0.54-0.013-0.755-0.072-1.055h0.924
		c-0.061,0.24-0.084,0.563-0.084,1.055v0.444h2.951c0.527,0,0.803-0.012,1.115-0.061v0.828c-0.336-0.048-0.613-0.06-1.115-0.06
		h-2.951v1.69h3.767c0.552,0,0.937-0.023,1.247-0.071v0.839c-0.359-0.048-0.742-0.072-1.247-0.072h-2.375v5.193
		c0,0.671-0.312,0.898-1.224,0.898c-0.359,0-0.768-0.012-1.271-0.06c-0.049-0.288-0.084-0.456-0.191-0.792
		c0.468,0.084,0.898,0.12,1.308,0.12c0.491,0,0.611-0.061,0.611-0.313v-5.049h-1.655c-0.07,1.571-0.238,2.579-0.563,3.37
		c-0.527,1.271-1.319,2.051-2.892,2.902c-0.19-0.301-0.336-0.456-0.6-0.66c1.559-0.695,2.29-1.367,2.771-2.53
		c0.313-0.756,0.42-1.438,0.504-3.083h-2.436V141.833z M105.682,142.504c0.504,1.561,0.899,2.291,1.871,3.418
		c-0.324,0.168-0.479,0.288-0.742,0.503c-0.937-1.307-1.319-2.051-1.859-3.646L105.682,142.504z"/>
	<path d="M108.879,142.011c0.287,0.049,0.455,0.061,0.911,0.061h0.624c0.348,0,0.623-0.012,0.898-0.061
		c-0.035,0.372-0.047,0.685-0.047,1.248v2.314c0.228,0.528,0.61,0.876,1.198,1.127c0.539,0.228,1.427,0.312,3.144,0.312
		c1.582,0,3.082-0.084,4.16-0.239c-0.156,0.312-0.228,0.552-0.287,0.875c-1.235,0.048-3.035,0.084-4.055,0.084
		c-1.822,0-2.639-0.108-3.322-0.433c-0.516-0.239-0.826-0.516-1.246-1.115c-0.491,0.516-0.721,0.72-1.56,1.391
		c-0.084,0.06-0.155,0.12-0.276,0.24l-0.406-0.792c0.49-0.216,1.199-0.744,1.906-1.428v-2.866h-0.779
		c-0.396,0-0.576,0.012-0.863,0.06V142.011z M109.502,137.563c0.805,0.755,1.296,1.307,1.907,2.11l-0.601,0.527
		c-0.6-0.899-1.115-1.487-1.858-2.146L109.502,137.563z M114.191,138.618c-0.191-0.336-0.469-0.708-0.84-1.139l0.647-0.288
		c0.372,0.468,0.575,0.768,0.983,1.427h1.283c0.383-0.468,0.684-0.936,0.924-1.439l0.707,0.265c-0.313,0.504-0.563,0.852-0.84,1.175
		h1.104c0.576,0,0.912-0.024,1.188-0.072v0.779c-0.396-0.048-0.754-0.06-1.188-0.06h-2.23c-0.144,0.396-0.252,0.61-0.455,0.994
		h1.932c0.574,0,0.923-0.012,1.15-0.048c-0.035,0.372-0.048,0.744-0.048,1.211v3.263c0,0.479,0.013,0.887,0.048,1.234
		c-0.24-0.023-0.539-0.036-0.888-0.036h-3.813c-0.407,0-0.863,0.013-1.176,0.036c0.023-0.359,0.036-0.756,0.036-1.164v-3.37
		c0-0.42-0.024-0.898-0.062-1.175c0.277,0.036,0.66,0.048,1.261,0.048h0.804c0.204-0.372,0.336-0.659,0.455-0.994h-2.015
		c-0.575,0-0.841,0.012-1.211,0.048v-0.769c0.264,0.048,0.61,0.072,1.223,0.072h1.021V138.618z M113.412,145.25h4.378v-1.103h-4.378
		V145.25z M113.424,141.893h4.366v-1.008h-4.366V141.893z M113.424,143.536h4.366v-1.032h-4.366V143.536z"/>
</g>
<g>
	<path d="M60.391,164.99c-0.504,0-0.624,0.008-0.88,0.04c0.088-0.632,0.112-0.752,0.231-1.056c0.2-0.505,0.536-0.943,1.04-1.375
		c0.28-0.24,0.296-0.248,1.224-0.881c0.791-0.535,1.055-0.887,1.055-1.375c0-0.607-0.512-1-1.327-1
		c-0.527,0-0.919,0.177-1.159,0.521c-0.152,0.216-0.224,0.408-0.279,0.808l-0.672-0.111c0.119-0.576,0.24-0.855,0.504-1.151
		c0.359-0.408,0.902-0.616,1.606-0.616c1.208,0,1.983,0.608,1.983,1.551c0,0.408-0.16,0.792-0.472,1.136
		c-0.24,0.271-0.448,0.424-1.359,1.031c-0.632,0.424-0.888,0.647-1.151,0.983c-0.248,0.328-0.359,0.543-0.456,0.927h2.551
		c0.399,0,0.672-0.016,0.976-0.056v0.672c-0.32-0.032-0.584-0.048-0.983-0.048L60.391,164.99L60.391,164.99z"/>
	<path d="M65.326,163.51c0.128,0.416,0.24,0.584,0.488,0.761c0.271,0.191,0.623,0.288,1.031,0.288c0.928,0,1.511-0.48,1.511-1.24
		c0-0.792-0.567-1.224-1.631-1.224c-0.224,0-0.424,0.017-0.64,0.04v-0.632c0.184,0.032,0.376,0.048,0.592,0.048
		c0.527,0,0.919-0.12,1.167-0.367c0.2-0.192,0.32-0.488,0.32-0.775c0-0.688-0.479-1.087-1.287-1.087
		c-0.488,0-0.84,0.136-1.063,0.424c-0.112,0.144-0.168,0.271-0.256,0.567l-0.664-0.145c0.136-0.408,0.232-0.592,0.432-0.8
		c0.352-0.384,0.896-0.583,1.592-0.583c1.159,0,1.895,0.607,1.895,1.567c0,0.487-0.208,0.919-0.56,1.167
		c-0.208,0.151-0.384,0.216-0.752,0.288c0.464,0.048,0.712,0.136,0.983,0.344c0.352,0.271,0.536,0.694,0.536,1.207
		c0,1.08-0.832,1.751-2.167,1.751c-0.808,0-1.407-0.225-1.791-0.655c-0.168-0.192-0.264-0.368-0.408-0.776L65.326,163.51z"/>
	<path d="M70.902,164.198v0.792H70.11v-0.792H70.902z"/>
	<path d="M71.719,162.871c0.168-0.192,0.352-0.416,0.52-0.615l2.022-2.526c0.272-0.336,0.416-0.536,0.601-0.815h0.6
		c-0.04,0.472-0.049,0.719-0.049,1.352v2.622h0.305c0.335,0,0.543-0.016,0.831-0.056v0.664c-0.296-0.04-0.496-0.056-0.84-0.056
		h-0.296v0.688c0,0.384,0.017,0.568,0.064,0.864h-0.728c0.048-0.28,0.063-0.504,0.063-0.864v-0.688H72.67
		c-0.447,0-0.688,0.008-0.951,0.032V162.871z M74.821,160.864c0-0.424,0.008-0.68,0.048-1.087c-0.168,0.24-0.368,0.504-0.6,0.8
		l-1.84,2.319h2.392V160.864z"/>
	<path d="M78.861,159.688c0,0.504-0.399,0.903-0.896,0.903c-0.503,0-0.903-0.399-0.903-0.903c0-0.496,0.4-0.896,0.903-0.896
		C78.462,158.793,78.861,159.193,78.861,159.688z M77.423,159.688c0,0.304,0.239,0.544,0.543,0.544c0.296,0,0.536-0.24,0.536-0.544
		c0-0.296-0.24-0.536-0.536-0.536C77.662,159.153,77.423,159.393,77.423,159.688z"/>
</g>
<g>
	<path d="M33.893,194.318c0-0.587-0.023-0.815-0.084-1.163h0.924c-0.06,0.359-0.084,0.6-0.084,1.163h3.814
		c0.587,0,0.935-0.024,1.235-0.084v0.852c-0.385-0.048-0.744-0.071-1.235-0.071h-3.814v1.234h3.238c0.492,0,0.779-0.012,1.079-0.048
		c-0.035,0.313-0.048,0.576-0.048,1.008v5.745c0,0.756-0.275,0.959-1.319,0.959c-0.384,0-0.779-0.023-1.247-0.06
		c-0.024-0.288-0.072-0.492-0.204-0.779c0.528,0.096,0.972,0.132,1.428,0.132c0.455,0,0.575-0.06,0.575-0.312v-5.974h-7.496v5.925
		c0,0.708,0.012,0.937,0.061,1.235h-0.899c0.048-0.336,0.071-0.66,0.071-1.271v-5.577c0-0.42-0.012-0.708-0.047-1.032
		c0.323,0.036,0.6,0.048,1.091,0.048h2.962v-1.234h-3.586c-0.504,0-0.875,0.023-1.223,0.071v-0.852
		c0.396,0.06,0.732,0.084,1.223,0.084H33.893z M34.78,198.756c0.42-0.526,0.695-1.03,0.947-1.643l0.72,0.216
		c-0.323,0.601-0.563,0.984-0.899,1.427h0.912c0.503,0,0.755-0.012,1.055-0.06v0.768c-0.323-0.048-0.6-0.06-1.055-0.06h-1.871v1.283
		h1.774c0.492,0,0.756-0.013,1.056-0.061v0.756c-0.3-0.048-0.6-0.06-1.056-0.06h-1.774v1.043c0,0.647,0.012,0.971,0.06,1.355h-0.852
		c0.048-0.408,0.061-0.721,0.061-1.344v-1.055h-1.439c-0.456,0-0.78,0.012-1.092,0.06v-0.756c0.312,0.048,0.576,0.061,1.104,0.061
		h1.428v-1.283H32.24c-0.468,0-0.744,0.012-1.044,0.06v-0.768c0.3,0.048,0.563,0.06,1.079,0.06H34.78z M32.802,197.089
		c0.3,0.444,0.575,0.924,0.779,1.332l-0.611,0.265c-0.192-0.433-0.468-0.889-0.792-1.319L32.802,197.089z"/>
	<path d="M42.354,194.402c0-0.671-0.012-0.971-0.06-1.235h0.815c-0.048,0.324-0.06,0.636-0.06,1.225v1.139h0.323
		c0.336,0,0.564-0.012,0.78-0.048v0.744c-0.156-0.036-0.408-0.049-0.768-0.049h-0.313c0.252,0.9,0.588,1.548,1.128,2.159
		c-0.192,0.276-0.216,0.313-0.372,0.66c-0.42-0.66-0.624-1.104-0.827-1.774c0.035,1.043,0.048,1.282,0.048,1.738v3.778
		c0,0.66,0.023,1.031,0.071,1.367H42.28c0.048-0.349,0.071-0.769,0.071-1.392v-3.382c0-0.516,0.024-1.115,0.061-1.847
		c-0.372,1.583-0.684,2.435-1.344,3.562c-0.168-0.312-0.275-0.456-0.468-0.647c0.756-1.091,1.344-2.579,1.667-4.223h-0.479
		c-0.275,0-0.575,0.024-0.839,0.061v-0.755c0.216,0.036,0.467,0.048,0.839,0.048h0.563v-1.129H42.354z M43.71,202.846
		c0.36,0.048,0.684,0.071,1.235,0.071h5.565c0.575,0,0.947-0.023,1.259-0.071v0.814c-0.384-0.048-0.731-0.06-1.271-0.06h-5.564
		c-0.504,0-0.852,0.012-1.224,0.06V202.846z M47.188,194.402c-0.145,0.504-0.216,0.708-0.408,1.175h0.479
		c0.601,0,0.78-0.012,0.96-0.036c-0.024,0.468-0.024,0.468-0.06,1.703c-0.049,1.955-0.168,3.514-0.324,4.282
		c-0.168,0.756-0.396,0.936-1.151,0.936c-0.312,0-0.731-0.023-1.044-0.06c-0.012-0.324-0.048-0.479-0.132-0.731
		c0.468,0.097,0.828,0.145,1.151,0.145c0.444,0,0.48-0.072,0.612-1.127c0.132-1.032,0.191-2.483,0.203-4.511h-1.055
		c-0.013,0-0.252,0.013-0.708,0.024c0.3-0.503,0.563-1.163,0.744-1.799h-1.319c-0.504,0-0.888,0.023-1.248,0.06v-0.792
		c0.349,0.048,0.708,0.072,1.26,0.072h5.217c0.588,0,0.947-0.024,1.271-0.072v0.792c-0.359-0.036-0.756-0.06-1.259-0.06
		L47.188,194.402L47.188,194.402z M44.957,200.891c-0.239,0-0.407,0.012-0.659,0.023c0.012-0.228,0.024-0.456,0.024-0.731v-2.734
		c0-0.252-0.013-0.456-0.036-0.671c0.216,0.023,0.455,0.036,0.731,0.036h0.791c0.349,0,0.564-0.013,0.78-0.036
		c-0.024,0.19-0.024,0.3-0.024,0.635v2.892c0,0.191,0.012,0.359,0.024,0.611c-0.336-0.023-0.456-0.023-0.66-0.023L44.957,200.891
		L44.957,200.891z M44.957,200.291h0.972v-2.89h-0.972V200.291z M51.494,196.394c-0.288,1.654-0.588,2.649-1.067,3.573
		c0.455,0.744,0.815,1.151,1.487,1.667c-0.156,0.156-0.3,0.372-0.42,0.648c-0.647-0.588-0.996-0.996-1.439-1.691
		c-0.443,0.673-0.84,1.116-1.571,1.751c-0.132-0.239-0.252-0.371-0.468-0.551c0.779-0.588,1.199-1.056,1.68-1.811
		c-0.48-0.937-0.696-1.655-0.936-3.202c-0.181,0.012-0.229,0.012-0.372,0.036v-0.708c0.228,0.036,0.491,0.048,0.947,0.048h1.331
		c0.252,0,0.456-0.012,0.684-0.024L51.494,196.394z M49.383,196.777c0.145,1.139,0.313,1.774,0.672,2.519
		c0.384-0.888,0.527-1.402,0.684-2.519H49.383z"/>
</g>
<g>
	<path d="M111.771,3.874c-0.433,0-0.756,0.024-1.058,0.072V3.083c0.24,0.048,0.528,0.072,1.058,0.072h2.086V1.523
		c0-0.528-0.023-0.889-0.071-1.248h0.923c-0.061,0.324-0.07,0.695-0.07,1.248V9.57c0,0.563,0.012,0.912,0.07,1.259h-0.923
		c0.048-0.348,0.071-0.72,0.071-1.271V8.06c-0.803,0.456-1.547,0.827-2.64,1.318c-0.19,0.097-0.348,0.168-0.467,0.229l-0.323-0.828
		c0.383-0.096,0.61-0.168,1.055-0.36c0.936-0.408,1.5-0.695,2.375-1.211V3.874H111.771z M117.313,9.235
		c0,0.216,0.049,0.312,0.203,0.372c0.168,0.06,0.553,0.096,1.129,0.096c1.055,0,1.426-0.096,1.594-0.408
		c0.145-0.288,0.265-1.091,0.275-2.026c0.266,0.18,0.42,0.239,0.756,0.348c-0.07,1.295-0.274,2.099-0.6,2.423
		c-0.288,0.288-0.804,0.384-2.016,0.384c-1.727,0-2.122-0.191-2.122-0.996V1.51c0-0.6-0.023-0.936-0.072-1.234h0.924
		c-0.06,0.384-0.071,0.72-0.071,1.234v2.88c0.898-0.505,1.75-1.08,2.482-1.68c0.301-0.251,0.516-0.456,0.695-0.684l0.6,0.66
		c-0.168,0.132-0.229,0.168-0.443,0.348c-0.982,0.804-1.906,1.416-3.334,2.195V9.235z"/>
	<path d="M123.854,1.235c0-0.671-0.012-0.971-0.06-1.235h0.815c-0.049,0.324-0.061,0.636-0.061,1.225v1.139h0.323
		c0.336,0,0.563-0.012,0.78-0.048v0.744c-0.156-0.036-0.408-0.049-0.769-0.049h-0.313c0.252,0.9,0.589,1.548,1.129,2.159
		c-0.192,0.276-0.217,0.313-0.372,0.66c-0.42-0.66-0.624-1.104-0.827-1.774c0.035,1.043,0.048,1.282,0.048,1.738v3.778
		c0,0.66,0.022,1.031,0.071,1.367h-0.84c0.049-0.349,0.072-0.769,0.072-1.392V6.165c0-0.516,0.023-1.115,0.061-1.847
		c-0.372,1.583-0.684,2.435-1.344,3.562c-0.168-0.312-0.275-0.456-0.469-0.647c0.756-1.091,1.344-2.579,1.668-4.223h-0.479
		c-0.274,0-0.575,0.024-0.839,0.061V2.315c0.216,0.036,0.467,0.048,0.839,0.048h0.563V1.235H123.854z M125.21,9.678
		c0.36,0.049,0.685,0.072,1.235,0.072h5.564c0.575,0,0.947-0.023,1.26-0.072v0.815c-0.385-0.048-0.731-0.06-1.271-0.06h-5.564
		c-0.504,0-0.852,0.012-1.224,0.06V9.678z M128.688,1.235c-0.145,0.504-0.215,0.708-0.408,1.175h0.479
		c0.601,0,0.78-0.012,0.96-0.036c-0.023,0.468-0.023,0.468-0.06,1.703c-0.05,1.955-0.168,3.514-0.324,4.282
		c-0.168,0.756-0.396,0.936-1.151,0.936c-0.312,0-0.73-0.023-1.043-0.06c-0.013-0.324-0.049-0.479-0.133-0.731
		c0.469,0.097,0.828,0.145,1.151,0.145c0.444,0,0.479-0.072,0.612-1.127c0.131-1.032,0.19-2.483,0.203-4.511h-1.056
		c-0.013,0-0.252,0.013-0.708,0.024c0.301-0.503,0.563-1.163,0.744-1.799h-1.318c-0.505,0-0.889,0.023-1.248,0.06V0.504
		c0.348,0.048,0.707,0.072,1.26,0.072h5.217c0.588,0,0.947-0.024,1.271-0.072v0.792c-0.359-0.036-0.757-0.06-1.26-0.06
		L128.688,1.235L128.688,1.235z M126.457,7.724c-0.239,0-0.407,0.012-0.659,0.023c0.013-0.228,0.024-0.456,0.024-0.731V4.282
		c0-0.252-0.014-0.456-0.036-0.671c0.216,0.023,0.455,0.036,0.731,0.036h0.791c0.349,0,0.563-0.013,0.779-0.036
		c-0.023,0.19-0.023,0.3-0.023,0.635v2.891c0,0.192,0.012,0.36,0.023,0.612c-0.336-0.023-0.456-0.023-0.66-0.023L126.457,7.724
		L126.457,7.724z M126.457,7.124h0.973v-2.89h-0.973V7.124z M132.994,3.227c-0.288,1.654-0.588,2.649-1.066,3.573
		c0.454,0.744,0.814,1.151,1.486,1.667c-0.156,0.156-0.301,0.372-0.42,0.648c-0.646-0.588-0.996-0.996-1.439-1.691
		c-0.443,0.673-0.84,1.116-1.57,1.751c-0.133-0.239-0.252-0.372-0.469-0.551c0.779-0.588,1.199-1.056,1.68-1.811
		c-0.479-0.937-0.695-1.655-0.936-3.202c-0.181,0.012-0.229,0.012-0.371,0.036v-0.71c0.228,0.036,0.49,0.048,0.946,0.048h1.331
		c0.252,0,0.456-0.012,0.684-0.024L132.994,3.227z M130.883,3.61c0.145,1.139,0.313,1.774,0.672,2.519
		c0.385-0.888,0.527-1.402,0.684-2.519H130.883z"/>
</g>
<g>
	<g>
		<line fill="none" stroke="#000000" stroke-miterlimit="10" x1="77.595" y1="175.462" x2="54.869" y2="169.533"/>
		<g>
			<path d="M72.193,169.093c-0.203,0.188-0.214,0.505-0.025,0.707l5.205,5.605l-7.28,2.347c-0.264,0.085-0.408,0.367-0.323,0.629
				c0.085,0.264,0.369,0.406,0.63,0.323l8.028-2.588c0.162-0.052,0.287-0.184,0.33-0.35s-0.002-0.343-0.117-0.468l-5.74-6.181
				c-0.067-0.072-0.151-0.12-0.24-0.143C72.501,168.934,72.323,168.972,72.193,169.093z"/>
		</g>
		<g>
			<path d="M62.694,166.614c0.085,0.262-0.06,0.544-0.323,0.629l-7.28,2.347l5.205,5.605c0.188,0.203,0.178,0.52-0.025,0.707
				c-0.202,0.188-0.521,0.174-0.707-0.026l-5.74-6.181c-0.115-0.125-0.16-0.301-0.117-0.467s0.168-0.297,0.33-0.351l8.028-2.588
				c0.095-0.03,0.19-0.031,0.279-0.008C62.504,166.325,62.64,166.445,62.694,166.614z"/>
		</g>
	</g>
</g>
</svg>
