<?xml version="1.0" encoding="utf-8"?>
<!-- Generator: Adobe Illustrator 16.0.0, SVG Export Plug-In . SVG Version: 6.00 Build 0)  -->
<!DOCTYPE svg PUBLIC "-//W3C//DTD SVG 1.1//EN" "http://www.w3.org/Graphics/SVG/1.1/DTD/svg11.dtd">
<svg version="1.1" id="レイヤー_1" xmlns="http://www.w3.org/2000/svg" xmlns:xlink="http://www.w3.org/1999/xlink" x="0px"
	 y="0px" width="420.916px" height="150.17px" viewBox="0 0 420.916 150.17" enable-background="new 0 0 420.916 150.17"
	 xml:space="preserve">
<path fill="#EEEEEF" d="M101.313,21.765h-3.999c-0.991,0-2.324,3-3.324,2.332c-1-0.666-0.853-2.332-2.01-2.332
	c-1.156,0-0.843,0-3.157-0.334c-2.313-0.334-2.852,0.334-4.343,0.334h-5.833h-2.834c-0.657,0-1.509,0-2.657,1.5
	c-1.147,1.5-1.833,2-2.5,1.832c-0.667-0.166-0.833-2-1.666-2.666c-0.833-0.668-0.519-0.666-2.676-0.666h-3.667h-2.833h-3.167
	c-0.491,0-2.631-0.025-2.631-0.025c-3.159,0-6.133,2.229-6.133,2.229s-1.672,1.113-2.229,1.301
	c-0.557,0.186-2.044-1.674-2.972-2.416c-0.931-0.744-2.415-1.115-4.087-1.486c-1.674-0.371-2.044,0.371-5.018,0.186
	s-1.3,0.187-4.458,0.187c-3.159,0-4.645-0.371-5.946-0.371h-6.688c-2.786,0-2.971,0.178-5.201,0.178H1.323v35.287l103.824,0.217
	V21.765H101.313z"/>
<polygon fill="#DBDCDC" points="105.147,57.05 120.378,35.884 120.378,0.597 105.147,21.763 "/>
<path fill="#EEEEEF" d="M400.617,36.562c-0.375,0.5-2,1.25-3.125,3.375s-3,2.875-3.75,4.625s-0.75,1.75-1.75,2.75
	s-3.5,4.625-3.5,4.625s-2.125-3.625-2.75-4.25s-0.75-1-1.75-1.5s-2.25-2.5-3-3.5s-2.375-3.375-3.125-4.625s-0.25-1.125-1.75-2.25
	s-2.625-5.25-3.5-4.75s-2.5,3.75-3.375,4.875s-2.125,1.25-3,2.375s-1.875,1.125-3.125,2.5s-1.875,2.125-2.625,3.125
	s-0.875,1.75-2,2.875s-1.75,2.625-2.5,3.375s-0.75,1.375-1.375,1.25s-1.375-1.625-2.125-2.625s-2.375-2.5-2.875-2.875
	s-2.25-3.375-4-4.125s-3.125-2.375-4.125-3.75s-1.125-3.25-2.25-2.5s-1.875,2.5-3.875,3.75s-6,3.375-6.5,3.75s-4,3-5.125,4.25
	s-3.875,2.75-4.25,3s-1.25,0.5-2.5-1.125s-5-3.875-6.375-6.75s-2.75-4.625-3.125-5.375s-5.625-8.916-5.625-8.916v28.736h101.125
	V33.946C402.542,34.423,400.94,36.134,400.617,36.562"/>
<path fill="#DBDCDC" d="M403.117,33.812c0,0-0.05,0.055-0.125,0.135v22.936l17.498-20.877V15.187L403.117,33.812z"/>
<path fill="none" stroke="#231815" stroke-width="0.75" d="M120.377,0.597v35.287L105.147,57.05 M1.323,21.546v35.287l103.824,0.217
	V21.765 M35.313,0.597h6c2.323,0,2.992-0.5,5.667,0c2.676,0.5,1.01,0,3.5,0h4.167h3.92c1.328,0,1.424-0.25,2.84,0.25
	s1.75,0.666,2.25,1.334c0.5,0.666,1.416,1.084,1.416,1.084s-0.082-0.084,1.334-0.75c1.416-0.668,1.083-1.002,2.083-1.334
	c1-0.334,1.167-0.584,2.244-0.584h5h4.25c1.244,0,1.672,0.334,3.089,0.418c1.417,0.082,3.583-0.418,5.494-0.418h4.834
	c2.327,0,1.923,0.25,5.006,0.418c3.083,0.166,5.249-0.418,6.91-0.418c1.662,0,2.007,0.25,2.59,0.334c0.582,0.084,0.666,0.5,1,0.916
	c0.332,0.418,0.166,1.166,0.583,1.084c0.417-0.084,1.749-0.418,2.333-1c0.583-0.584,1-1,2.167-1.084
	c1.167-0.082,0.573-0.416,1.911-0.25c1.339,0.168,4.476,0,4.476,0l-15.229,21.168h-3.834h-4c-0.99,0-2.323,3-3.323,2.332
	c-1-0.664-0.854-2.332-2.01-2.332s-0.844,0-3.157-0.334c-2.314-0.334-2.853,0.334-4.343,0.334h-5.833h-2.834
	c-0.657,0-1.51,0-2.657,1.5s-1.833,2-2.5,1.832c-0.667-0.164-0.833-2-1.666-2.666c-0.833-0.668-0.52-0.666-2.677-0.666h-3.666
	h-2.834h-3.166c-0.491,0-2.632-0.023-2.632-0.023c-3.158,0-6.133,2.229-6.133,2.229s-1.671,1.113-2.229,1.301
	c-0.558,0.186-2.044-1.674-2.973-2.416c-0.931-0.742-2.415-1.113-4.086-1.486c-1.675-0.371-2.047,0.373-5.019,0.186
	c-2.973-0.186-1.3,0.188-4.458,0.188s-4.645-0.373-5.946-0.373h-6.688c-2.787,0-2.972,0.178-5.201,0.178H1.323L35.313,0.597z"/>
<path fill="none" stroke="#231815" stroke-width="0.5" d="M47.365,8.827c-0.759-0.184-2.021-0.291-2.687,0.125 M46.553,7.263
	c-0.139-0.447-0.438-0.787-0.188-1.25 M48.865,8.202c0.223-0.502,0.274-0.988,0.665-1.371c0.267-0.264,0.636-0.279,0.71-0.693
	 M59.552,11.89c0.467-0.379,1.54-0.607,2.125-0.375 M60.49,10.327c1.02-0.719,1.779-0.828,2.938-1 M63.24,7.202
	c0.402-0.674,1.346-0.797,2.061-0.992c0.641-0.176,1.657,0.213,2.128-0.008 M62.365,6.513c0.042-0.148-0.225-0.613-0.308-0.826
	c-0.314-0.805-0.612-1.113-1.567-1.299 M60.115,9.077c-0.339-0.49-1.918-0.451-2.313-0.25 M57.74,12.015
	c-0.259,0.043-0.61,0.242-0.872,0.252c-0.581,0.023-0.849-0.221-1.439,0.123 M52.677,12.888c-0.134-0.598,0.281-1.129,0.378-1.742
	c0.158-1.023,0.108-0.826,0.997-1.443 M50.927,9.888c0.117-0.43,0.339-1.945,1.063-1.875 M50.99,11.515
	c-0.818-0.336-1.814-0.561-2.716-0.432c-0.714,0.104-1.354,0.326-2.096,0.305 M53.177,15.577c-0.003-1.885-0.468-3.186-2.134-4.193
	c0.465-0.977-1.396-1.879-2.054-2.314c-0.692-0.457-1.725-0.668-2.24-1.307c-0.114-0.139-0.104-0.367-0.262-0.539
	c-0.4-0.439-1.326-0.607-1.872-0.771 M45.677,20.013c-0.382-1.27-1.711-1.59-2.687-2.061 M47.365,19.263
	c-0.112-0.42-0.338-1.242-0.674-1.572c-0.282-0.277-0.778-0.324-1.139-0.488 M49.615,16.14c0.079-0.629-0.316-1.52-0.938-1.688
	 M51.177,17.452c0.662,0.004,1.333-0.365,2.017-0.379c0.563-0.01,1.146,0.127,1.733,0.129 M49.178,19.765
	c0.896-0.357,1.604-0.871,2.58-0.756c0.677,0.08,1.279,0.23,1.98,0.006 M71.052,20.388c-0.067-0.625-0.568-1.348-1.083-1.678
	c-0.485-0.309-0.87-0.156-1.417-0.32 M73.427,18.138c0.037-0.934-1.414-1.504-2.125-1.686 M75.615,15.64
	c-0.12-0.291-0.525-0.588-0.813-0.75 M77.615,14.515c-0.239-0.385-0.192-1.041-0.625-1.252 M79.115,12.138
	c0.008-0.432-0.674-1.193-0.938-1.186 M81.802,11.388c0.437-0.031,1.104-0.129,1.438-0.311 M78.677,14.89
	c1.461-1.047,3.497-0.889,5-1.688 M74.677,19.515c0.561-0.705,1.996-0.959,2.816-1.111c0.681-0.127,1.331-0.49,2.059-0.451
	 M95.24,16.765c-0.723-0.102-1.442-0.195-2.105-0.498c-0.507-0.23-0.813-0.51-1.395-0.439 M94.677,14.265
	c-0.051-1.125-2.104-1.561-2.875-1.875 M93.677,11.327c-0.145-0.318-0.703-0.818-0.943-1.014C92.351,10,91.843,9.635,91.302,9.702
	 M100.178,10.577c0.26-0.873,0.15-1.91-0.376-2.689 M105.428,7.702c1.092-0.578,2.182-0.131,3.312-0.625 M102.928,8.952
	c0.812-0.9,2.344-0.172,3.062-0.814 M100.115,12.202c0.865-0.309,0.934-0.641,1.865-0.498c0.614,0.096,1.275,0.008,1.885-0.127
	 M97.677,15.577c0.412-0.33,1.421-0.619,1.952-0.844c0.987-0.416,1.629,0.176,2.609,0.094 M95.657,18.015
	c0,0,0.666-0.832,1.333-1.752c0.667-0.916,0.5-0.164,1.25-1.748s0.499-1.252,1.333-1.918c0.834-0.666,1.417-2.082,2.167-2.666
	s2.084-2.168,3.167-3.334c1.083-1.166,0.582-1.334,1.916-2.25c1.334-0.916,2.334-1.584,2.334-1.584 M94.323,23.931
	c0,0,0.418-2.166,0.584-2.916s0.166-1.334,0.583-2.584s-0.333-1.166-0.5-2.75s-0.833-3-0.833-3s-0.584-3-1.084-3.418
	c-0.5-0.416-0.834-0.332-0.5-1.25c0.334-0.916,0.333-1.082,1.25-1.75c0.917-0.666,0.751-0.75,1.084-1.332
	c0.333-0.584,0.666-0.75,0.666-0.75 M70.907,24.849c0,0,0.833-1.25,1.333-1.918s-0.001-0.332,0.833-1.666s-0.249-0.332,1.334-1.666
	s1.916-1.916,2.833-2.75s1.333-2.416,2.583-3.25s1.917-2,2.167-2.75s0.417-2.086,0.417-2.086 M45.407,25.181
	c0.5-0.75,0.25-0.582,0.833-1.666s-0.334-1,1.083-2.25c1.417-1.252,0.75-1.666,1.75-2.834c1-1.166,1.001-1.5,2.334-2s1-1,2.75-1.416
	s3.082-1.752,3.666-2.334c0.584-0.582,1.084-1.332,2.167-2.082s-0.084-0.918,0.833-2c0.917-1.086-0.332-0.418,1.834-2.086
	c2.166-1.664,2.416-3.25,2.416-3.25"/>
<path fill="none" stroke="#231815" stroke-width="0.75" d="M420.49,15.188c0,0-0.873-2.625-1.498-3.375s-0.625-2.375-1-2.375
	s-3.5,2-4.5,2.375s-2.375,0.875-3.75,1.875s-2.75,0.375-2.75,0.375s-0.5-0.125-2.375-1.125s-3.25-2.75-4.375-3.375
	s-1.75-0.5-3.5,0.375s-4,2.75-5.125,3.5s-2,1.25-3.625-0.5s-2-2.25-3.125-3.25s-1.75-4.875-2.875-5.875s-1.75-0.625-2.625-0.125
	s-1.375,1.375-2.75,2.625s-1.25,2.125-2.625,3s-2.75,1.875-3.375,1.625s-1.25-1-1.25-1s-1.5-2.375-2.375-4.625
	s-1.125-4.25-2.125-4.5s-1.875,1.875-2.5,2.875s-1.375,3-2.875,4.25s-3.5,3.625-5.375,4.875s-1.25,2.875-2.75,2.5
	s-1.75-0.75-2.625-0.25s-2.125,2.5-4.25,3s-4,1.375-5.375,1.75s-1.75-1.25-1.875-2s-1.375-3.125-2.125-4.5s-1.25-3.25-2.25-4.5
	s-2.5,0.125-3.875,1.125s-1.625,1.25-3.25,2.375s-3.708,2.834-4.875,4.334s-1.5,1.5-2.5,0s-2.833-4.168-3.5-4.834
	c-0.667-0.668-1,0.334-2,1.334c-1,0.998-0.667,0.5-1.667,1.166s-1.166,1.166-2,1.5s-1,1.5-2.333,3s-2.333,3.666-2.333,3.666
	s-1,1.168-1.834,3c-0.834,1.834-0.833,2.668-0.833,2.668s5.25,8.166,5.625,8.916s1.75,2.5,3.125,5.375s5.125,5.125,6.375,6.75
	s2.125,1.375,2.5,1.125s3.125-1.75,4.25-3s4.625-3.875,5.125-4.25s4.5-2.5,6.5-3.75s2.75-3,3.875-3.75s1.25,1.125,2.25,2.5
	s2.375,3,4.125,3.75s3.5,3.75,4,4.125s2.125,1.875,2.875,2.875s1.5,2.5,2.125,2.625s0.625-0.5,1.375-1.25s1.375-2.25,2.5-3.375
	s1.25-1.875,2-2.875s1.375-1.75,2.625-3.125s2.25-1.375,3.125-2.5s2.125-1.25,3-2.375s2.5-4.375,3.375-4.875s2,3.625,3.5,4.75
	s1,1,1.75,2.25s2.375,3.625,3.125,4.625s2,3,3,3.5s1.125,0.875,1.75,1.5s2.75,4.25,2.75,4.25s2.5-3.625,3.5-4.625s1-1,1.75-2.75
	s2.625-2.5,3.75-4.625s2.75-2.875,3.125-3.375s2.5-2.75,2.5-2.75L420.49,15.188z"/>
<path fill="none" stroke="#231815" stroke-width="0.5" d="M410.7,17.813c-0.439,0.363-1.229,0.586-1.594,1.064
	c-0.243,0.318-0.181,0.695-0.49,1.012c-0.343,0.352-0.938,0.445-1.332,0.756 M416.45,15.813c0.374,1.094,0.263,2.488-0.666,3.25
	 M395.534,28.396c0.64,0.793,1.047,1.813,1.083,2.834 M398.867,13.729c0.36,0.48,0.671,0.959,0.862,1.551
	c0.203,0.625,0.158,1.377,0.638,1.865 M398.2,17.313c-0.108,0.777,0.476,1.439,0.754,2.123c0.285,0.693,0.227,1.709,0.663,2.293
	 M396.95,23.813c0.559,1.035,1.753,2.074,1.75,3.332 M394.45,20.563c-0.336,1.186-1.393,2.035-1.922,3.162
	c0.174-0.084,0.467-0.125,0.632-0.225c-0.709,0.754-1.323,1.885-1.793,2.813 M396.117,16.063c-0.632,0.76-1.412,1.664-2.083,2.416
	 M385.534,21.813c0.39,0.789,0.882,1.555,1.154,2.398c0.225,0.699,0.179,1.4,0.346,2.102 M380.95,9.813
	c1.865,0.834,3.191,3.584,3.999,5.402c-0.306,0.063-0.636-0.02-0.901-0.152c0.49,1.113,1.439,1.918,1.947,3.041
	c0.434,0.953,1.028,2.193,1.205,3.209 M374.367,29.813c0.994,0.275,2.776,0.699,3.333,1.648c-0.349,0.105-0.77,0.111-1.063,0.273
	c0.767,0.742,1.954,1.254,2.58,2.084c0.586,0.779,1.106,1.559,1.98,2.244 M383.284,23.063c-0.646,1.133-1.336,3.131-0.584,4.332
	 M380.867,17.646c-0.444,0.924-1.07,1.734-1.522,2.639c-0.479,0.957-0.356,2.016-0.561,3.029 M370.117,29.813
	c-0.562,1.537-2.017,3.246-3.75,3.416 M373.45,26.396c-0.488,0.561-1.46,0.674-1.583,1.5 M372.867,22.063
	c-1.354,0.904-2.567,1.879-3.44,3.232c-0.734,1.139-1.19,2.695-2.143,3.684 M375.617,13.229c-1.136,0.459-1.96,1.307-2.56,2.338
	c0.516,0.197,1.063,0.273,1.599,0.385c-2.047,0.654-2.47,3.258-4.039,4.443 M359.95,15.813c0.129,1.209-0.97,2.447-1.416,3.5
	 M362.534,9.979c-1.206,1.527-3.355,2.473-3.917,4.416 M361.867,19.229c0.887,0.973,0.584,3.029,0.583,4.25 M364.784,8.979
	c0.609,1.891,0.646,3.234,0.406,5.215c-0.688-0.299-1.303-1.047-2.078-1.135c0.048,1.236,0.669,2.135,0.564,3.412
	c-0.07,0.885-0.33,2.158,0.188,2.924 M348.284,37.729c0.934,0.551,1.021,1.477,1.25,2.416 M355.117,48.396
	c-0.53-0.777-3.688-4.313-2.584-4.85c-0.336-0.941-1.009-1.889-1.666-2.65 M355.45,27.063c-0.026,1.094,0.696,2.117,0.584,3.166
	 M354.45,21.229c0.354,0.766,1.069,1.316,1.409,2.08c0.346,0.771-0.001,1.75,0.341,2.42 M351.7,27.646
	c-0.629,1.455-1.955,2.982-1.75,4.668 M352.617,24.729c-0.503,1.105-1.785,1.99-1.896,3.219c0.076,0.063,0.15,0.047,0.229-0.053
	 M351.7,20.313c-0.093,0.686-2.118,3.375-1.916,3.582 M341.284,33.813c0.54,0.629,0.928,1.371,1.333,2.082 M342.7,31.313
	c0.646,0.773,1.246,1.742,1.667,2.666 M338.617,31.479c-0.729,1.012-1.885,1.693-2.636,2.744c-0.332,0.461-0.729,0.891-1.047,1.346
	c-0.063,0.09,0.013,0.338-0.088,0.477c-0.705,0.979-2.063,1.273-2.717,2.354c0.373-0.627,1-1.402,0.977-2.16
	c-0.596-0.014-1.094,0.811-1.492,1.188c-0.729,0.689-1.5,1.383-2.253,2.049c-1.136,1.004-2.673,2.145-4.077,2.754 M346.95,20.146
	c-0.573,1.063-2.054,2.975-3.221,3.371c-0.526-1.066-0.749-1.012-1.594-0.133c-0.684,0.707-1.308,1.547-2.047,2.182
	c-0.795,0.682-1.785,1.154-2.641,1.748 M330.2,17.313c0.18,1.018,0.241,2.057,0.334,3.082 M332.534,11.896
	c0.266,1.42,1.203,2.459,0.971,3.986c-0.813-0.182-1.422-0.961-2.207-1.129c0.659,0.814,0.822,2.01,1.244,2.963
	c0.453,1.016,1.041,2.254,1.161,3.365c0.063,0.578-0.532,1.711-0.419,1.982 M328.367,24.146c0.713,0.945,0.965,2.381,0.583,3.5
	 M325.784,27.063c0.419,1.625,1.387,3.021,1.577,4.738c-0.849-0.193-1.07-1.438-1.397,0.006c-0.313,1.379,1.551,4.355-0.014,5.172
	 M323.2,27.646c-0.555,0.426-1.638,1.367-1.833,2.084 M326.7,21.646c-0.961,0.309-1.143,0.275-1.768,1.045
	c-0.233,0.285-0.575,0.77-0.883,1.008c-0.313,0.244-0.74,0.291-1.018,0.615 M327.117,16.813c-0.747,0.371-1.174,0.877-1.828,1.359
	c0.04,0.021,0.138,0.092,0.179,0.123c-0.649,0.492-1.394,0.947-2.018,1.434 M315.284,21.229c0.405,0.232,1.119,0.646,1.334,1.115
	c0.407,0.883,0.098,0.316-0.164,0.783c-0.158,0.291-0.55-0.186-0.479,0.361c0.035,0.283,0.74,0.682,0.977,0.824 M316.534,26.646
	c0.805,0.691,1.408,2.654,1.833,3.334 M314.2,28.563c0.074,0.9-0.26,1.664-0.5,2.5 M313.784,24.813
	c-0.602,1.232-1.051,2.285-0.917,3.666 M312.2,20.646c-0.138,0.418-0.286,0.855-0.479,1.252c-0.186,0.373-0.457,0.557-0.604,0.832
	c-0.481,0.912-0.521,2.004-1.081,3 M379.117,8.313c-0.2,2.037,0.531,4.809,1.107,6.721c0.382,1.271,0.546,1.689,1.808,2.129
	c1.699,0.592,2.283,0.869,2.447,2.891c-0.233-0.08-0.609-0.008-0.861-0.111c0.13,2.162,1.434,4.283,2.089,6.342
	c0.361,1.131,0.569,3.016,1.16,3.904 M417.867,10.063c-0.837,1.016-3.503,3.432-3.503,4.711c0.372,0.078,0.717,0.332,1.127,0.297
	c-1.04,2.369-4.483,3.701-5.624,5.992 M390.492,43.313c0.288-1.299,0.07-2.609-0.065-3.91c-0.214-2.041,0.16-2.848,1.05-4.576
	c0.605-1.184,0.731-2.359,1.018-3.639 M399.242,10.063c-1.711,2.205-3.288,4.736-1.185,7.227c-2.708,3.174-2.581,7.662-4.565,11.148
	 M352.117,16.063c0.323,0.947,0.268,1.83,0.526,2.721c0.235,0.813,1.162,1.445,1.26,2.357c0.126,1.166-0.296,2.668-0.198,4.002
	c0.172,2.289,0.491,4.619,0.412,6.92 M364.492,2.438c-0.097,2.82-0.554,5.125-1.397,7.813c-0.544,1.732-1.587,3.264-1.859,5.057
	c-0.314,2.084-0.548,4.229-0.732,6.326c-0.07,0.787-0.275,1.527-0.386,2.289c-0.029,0.213-0.181,1.707,0.002,1.141 M372.742,31.063
	c0.111-1.779,0.896-3.42,1.481-5.068c0.104-0.295,0.537-1.016,0.537-1.252c0.003-1.146-0.924-0.838-1.357-1.842
	c-0.449-1.041,0.896-2.91,1.147-3.957c0.307-1.285,0.494-2.572,1.06-3.779c0.445-0.947,1.062-1.813,1.531-2.75
	c0.75-1.496,1.065-3.301,1.948-4.709c0.688-1.1,1.462-1.846,1.525-3.268 M339.617,35.313c0.521-1.342,0.126-2.916,0.741-4.127
	c0.395-0.768,1.545-1.781,2.259-2.248 M352.117,15.438c-0.546,1.016-1.883,1.811-2.622,2.744c-0.896,1.133-0.818,2.477-1.54,3.783
	c-0.606,1.105-1.763,1.576-2.45,2.646c-0.959,1.49-0.863,2.252-2.638,3.326 M331.867,8.563c-0.829,1.922-2.394,3.451-3.028,5.488
	c-0.356,1.137-0.506,2.057-0.99,3.229c-0.43,1.031-0.686,1.516-0.615,2.539c0.07,1.09,0.73,0.998,0.133,2.404
	c-0.296,0.695-0.786,1.439-1.213,1.949c-0.034-0.086-0.083-0.162-0.146-0.23c-1.41,0.582-1.957,4.094-2.442,5.396
	c-1.119,2.992-0.573,7.797-3.57,9.475 M316.867,38.813c-0.009,1.586,0.136,3.166,0.125,4.75 M314.492,12.188
	c0.185,2.301-0.717,4.307-1.798,6.197c-0.43,0.754-0.835,0.617-0.229,1.867c0.412,0.85,1.553,1.322,1.873,2.141
	c0.125,0.32-0.262,0.609-0.209,0.783c0.194,0.668,0.437,1.328,0.711,1.988c0.627,1.521,0.658,1.947,0.522,3.508
	c-0.14,1.605-0.196,3.672,0.38,5.158c0.326,0.846,1.189,1.664,0.747,2.607 M388.492,51.938c0,0,0.25-3.375,1.25-5.125
	s0.25-3,1.625-4.5s-0.375-0.375,1.875-2.375s0.5-4.5,1.75-4s2.375-0.375,3-1.125s0.75-1.125,2.125-3.5s4.125-6.125,4.125-6.125
	 M354.992,51.188c0,0,0.875-3.5,1.5-5.875s-0.25-1,1.125-3s1.875-4.5,3-6.125s1.875-4.25,2-4.75s1.625-3.375,1.625-3.375
	 M318.742,50.438c0,0-0.25-0.375,1.25-2.375s1-2,1.75-3.125s0.75-2.375,1.625-3.875s1.125-3.75,1.125-3.75 M319.367,17.813
	c0,0,1.125,1.25,1,2.5s0.375,3.25,0.5,3.625 M371.492,10.938c0,0-0.75-0.375-1.25,1.875s-1.125,3.5-1.125,3.5l-0.25,0.5
	 M408.742,14.188c0,0-1,0.625-1.75,1.75s-1.125,3-1.75,4.125 M389.117,13.813c0,0,1.375,1.5,1.5,3s-0.125,1.75-0.125,2.625
	s0.375,1.875,0.375,1.875 M339.117,19.813c0,0-1.125-0.125-2.125,1s-1.75,4.125-1.75,4.125s-2.625,3.125-3,3.75"/>
<path fill="none" stroke="#231815" stroke-width="0.75" d="M169.999,115.176h7.833c2.833,0,4.834,0.166,9.667,0.166
	s7.333,0,9.333-0.166c2-0.168,6,0.332,8.167,0.166s6.167,0.334,11.5,0s8.5-0.5,10.333-0.666c1.833-0.168,10.167,0.166,12.834,0.332
	s9,0.168,12.833,0.168s4.667-0.334,6.5-0.334s4.333,0.334,10.833,0.334l-16.166,20.832h-9.5c-2.833,0-4.834-0.166-9.667-0.166
	s-7.333,0-9.333,0.166c-2,0.168-6-0.332-8.167-0.166s-6.167-0.334-11.5,0s-8.5,0.5-10.333,0.666
	c-1.833,0.168-10.167-0.166-12.834-0.332s-9-0.168-12.833-0.168s-4.667,0.334-6.5,0.334s-4.333-0.334-10.833-0.334L169.999,115.176z
	 M420.49,15.188v20.818l-17.498,20.875 M402.992,33.813v23.068H301.867V28.146"/>
<path fill="none" stroke="#231815" stroke-width="0.5" d="M221.416,129.926c0.388,0.416,0.931,1.072,0.875,1.584 M224.416,124.635
	c-0.285-0.584-1.594-0.135-2.084-0.043 M218.332,126.135c0.237-0.053,0.521-0.082,0.752,0c0.2,0.068,0.313,0.265,0.54,0.25
	 M218.457,127.551c0.063-0.364,0.502-0.764,0.81-0.959c0.214-0.135,0.783-0.514,1.024-0.5 M224.124,129.092
	c0.031-0.592-0.18-1.127-0.583-1.541 M220.624,131.592c0.447-0.668,0.657-1.006,0.75-1.83c0.034-0.305,0.226-0.663,0.208-0.961
	 M207.416,129.051c-0.222-0.383-0.056-1.127-0.667-1.291 M206.332,129.176c0.075-0.733-0.073-1.041-0.542-1.545
	c-0.349-0.375-0.908-1.073-1.374-1.205 M201.332,128.967c0.039-1.174-0.205-2.188,0.542-3.166 M200.291,128.592
	c0.364-0.428,0.642-0.713,1.166-0.916 M164.041,132.551c-0.08-0.36-0.011-0.77,0.083-1.125 M163.166,132.301
	c0.001-0.545-0.187-1.405,0.125-1.875 M167.249,132.383c-0.127-0.35-0.194-0.793-0.161-1.166c0.104,0.056,0.23,0.029,0.33,0.08
	c0.13-0.276-0.145-0.879-0.211-1.205 M170.457,131.842c-0.104-0.551-0.185-1.108-0.249-1.664c-0.029-0.273-0.001-0.577-0.251-0.711
	 M171.041,131.008c-0.001-0.311,0.001-0.514-0.123-0.787c-0.153-0.342-0.23-0.204-0.376-0.329c-0.302-0.263-0.598-0.507-0.811-0.845
	c-0.24-0.381-0.368-0.83-0.857-0.955 M222.624,122.998c-1.049-0.688-1.51-0.904-2.486-0.104c-0.741,0.604-1.596,1.573-1.894,2.515
	c-0.227,0.721,0.039,1.018,0.136,1.621c0.067,0.418-0.162,0.896-0.238,1.301c-0.244,1.271,0.134,1.996,0.675,3.139
	c0.424,0.9,0.614,1.836,1.685,1.185c1.08-0.657,2.164-1.235,2.87-2.362c0.707-1.129,1.563-1.854,1.761-3.242
	c0.099-0.659,0.045-1.741-0.295-2.258C224.444,124.192,223.294,123.217,222.624,122.998z M202.624,123.404
	c-1.739,0.475-3.277,1.838-4.386,3.276c-1.176,1.528,2.769,2.358,3.747,2.349c1.099-0.013,2.006-0.005,3.072,0.125
	c0.682,0.081,2.813,0.284,3.134-0.438c0.131-0.295-0.291-1.998-0.454-2.252c-0.417-0.648-1.461-1.355-2.043-1.799
	c-0.941-0.717-1.692-0.889-2.757-1.199L202.624,123.404z M168.937,125.404c-1.162,0.021-1.88,0.381-2.759,1.131
	c-0.935,0.795-2.038,1.248-3.062,1.879c-0.917,0.567-1.528,1.178-2.153,2.063c-0.525,0.75-0.485,1.086,0.441,1.412
	c2.021,0.709,4.442,0.786,6.581,0.563c0.661-0.068,1.518-0.115,2.138-0.351c0.632-0.235,0.711-0.75,1.135-1.259
	c0.449-0.541,1.646-0.725,1.788-1.444c0.111-0.563-0.605-1.608-0.981-1.987c-0.469-0.474-1.189-0.941-1.703-1.318
	c-0.436-0.317-0.771-0.532-1.3-0.69L168.937,125.404L168.937,125.404z M232.082,128.758c-0.085-1.985,0.293-3.703-0.729-5.506
	c-0.453-0.799-1.282-1.106-1.856-1.781c-0.589-0.689-1.01-1.518-1.983-1.727c-0.117-0.379-0.304-0.664-0.428-1.004
	c-0.179-0.492-0.248-1.017-0.421-1.529c-0.244-0.731-0.424-1.685-0.833-2.285 M227.999,135.676c1.113-1.674,2.122-3.469,3.088-5.153
	c0.462-0.806,0.906-1.875,1.594-2.435c0.924-0.752,2.202-0.957,3.048-1.842c0.304-0.32,0.429-0.783,0.734-1.088
	c0.4-0.396,1.063-0.472,1.457-0.882c0.359-0.373,0.248-0.549,0.417-0.937c0.099-0.223-0.049-0.387,0.168-0.688
	c0.386-0.532,1.416-0.717,1.979-0.965c0.404-0.181,0.892-0.629,1.286-0.748c0.405-0.121,0.902,0.041,1.323-0.011
	c0.833-0.102,1.729-0.48,2.54-0.694c0.772-0.202,0.973-0.471,1.354-1.211c0.474-0.922,0.771-1.506,1.553-2.267
	c0.634-0.618,1.248-1.211,1.794-1.918 M206.916,135.592c0.739-0.977,1.957-1.396,2.395-2.575c0.254-0.685,0.016-1.222,0.354-1.8
	c0.338-0.571,1.15-1.018,1.578-1.545c0.569-0.696,1.001-1.379,1.588-2.028c1.142-1.267-0.088-0.946-0.905-1.957
	c-0.596-0.733-0.119-0.728,0.328-1.237c0.573-0.65,0.774-1.586,1.303-2.271c0.636-0.823,2.143-1.475,2.443-2.502 M184.582,128.508
	c0.623-0.463,1.253-0.662,1.931-0.985c0.818-0.394,1.056-0.362,1.899-0.528c0.619-0.121,2.208-1.146,2.582-1.746
	c0.338-0.543-0.216-1.054,0.018-1.494c0.144-0.271,0.923-0.412,1.197-0.596c0.521-0.347,0.583-0.539,1.264-0.732
	c0.735-0.209,1.801-0.18,2.438-0.659c0.081-0.063-0.063-0.271,0.012-0.332c0.367-0.285,0.728-0.511,1.13-0.759
	c0.318-0.194,0.67-0.371,0.844-0.684c0.43-0.771,0.296-1.173,1.188-1.75c1.35-0.869,3.326-1.396,4.334-2.814 M181.582,136.008
	c0.212-0.389,0.125-1.155,0.287-1.662c0.187-0.575,0.148-0.819,0.209-1.424c0.107-1.062,0.844-1.646,1.409-2.518
	c-0.499-0.691,0.541-0.896,0.852-1.388c0.597-0.938-0.021-1.987-0.007-2.843c0.019-0.803-0.013-1.584-0.064-2.354
	c-0.038-0.555,0.19-1.021,0.172-1.563c-0.021-0.467-0.343-0.905-0.609-1.271c-0.661-0.899-1.354-0.635-2.406-0.907
	c-0.377-0.101-1.146-0.291-1.438-0.552c-0.126-0.11-0.097-0.362-0.227-0.513c-0.805-0.926-1.772-1.689-2.758-2.424"/>
<path fill="#EEEEEF" d="M70.203,133.096c-2-0.75-1.25-0.625-3.375-1.375s-1.75,0.125-2.875,0.375s-2.75,1.125-4.375,1.875
	s-2.75,1-4,1.25s-1.25-0.125-2.25-0.375s-1-0.5-2.5-1s-1.375-0.75-3.25-1s-3.5,0.75-4.75,1.375
	c-1.021,0.513-3.213,1.523-3.978,1.875h37.058l-0.08-0.125C75.828,135.971,72.203,133.846,70.203,133.096"/>
<path fill="#DBDCDC" d="M107.703,128.096c-0.5,0.25-2.875,1.75-2.875,1.75v6.25l12.375-18.375v-2.633l-6.75,9.883
	C110.453,124.971,108.203,127.846,107.703,128.096"/>
<path fill="#EEEEEF" d="M13.453,131.346c-1.5-1-1.25-0.75-2.375-1.625s-1.875-1.125-3.25-1.375s-5.792-1-5.792-1v8.75h18.167
	c0,0-2.75-2.25-4.25-2.875S14.953,132.346,13.453,131.346"/>
<path fill="#EEEEEF" d="M102.203,131.971c-1.5,0.375-1.375,1.875-3.875,2.625c-1.933,0.58-2.072,1.232-2.035,1.5h8.535v-6.25
	C104.828,129.846,103.703,131.596,102.203,131.971"/>
<polygon fill="#DBDCDC" points="255.526,22.009 255.526,56.833 270.757,32.378 270.757,0.843 "/>
<path fill="#EEEEEF" d="M251.692,22.009h-4h-2.206c0,0-2.282,1.709-2.657,2.209s-1,1.75-1.5,3.25s-1.125,4-1.5,3.5
	s-0.75-1.5-1-1.875s-1.875-2.75-2.5-4.625s-1.47-2.459-1.47-2.459h-5.834h-2.833c-0.252,0-1.193,0.191-2.304,0.4
	c-1.691,0.318-2.687,0.684-3.937,1.934s-0.875,0.625-2.875,2.375s-2,3.25-2.125,3.625s-1.625-0.125-1.625-0.125
	s-0.875-1.25-1.25-1.5s-0.875-2.625-2.375-4.125s-2.75-2.375-3.335-2.588c-0.759-0.275-1.974-0.02-1.974-0.02
	c-2.393,0-9.06,0.223-12.858-0.162c-1.833-0.188-1.501,1.02-3.167,2.186c-1.666,1.168-0.667,1.666-1.834,2.834
	c-1.167,1.166-2,3.666-2.833,4c-0.833,0.332-1.333-0.834-1.667-1.334s-1.333-2.166-1.833-3.166s-2.167-2.5-2.167-2.5
	s-1.333-1.334-2-1.5c-0.667-0.168-1-0.668-1.811-0.701c-0.234-0.01-0.455-0.027-0.67-0.027h-6.689c-2.787,0-2.971,0.178-5.201,0.178
	H151.7v35.041h103.824V22.009H251.692z"/>
<path fill="none" stroke="#231815" stroke-width="0.75" d="M104.828,136.096l12.375-18.375v-3 M117.453,114.721h-0.25
	c0,0-1.5,0.625-2.375,0.75s-2.375,1.25-3.125,1.25s-1.625-0.375-2.375-0.5s-0.75-0.125-3.375,0.125s-3.25,0.625-4,0.625h-3.625
	c-1.625,0-0.75-0.25-2.5-1s-1.875-0.875-2.75-1.125s-2.375-0.25-3.125,0s-2.875,1.25-4,1.75s-0.875,0.125-2.625,0.125
	s-0.75,0.125-3.5-0.125s-2.25,0.375-3.125,0.25s-0.875-0.375-2.25-1s-1.5-1.125-4.625-2.75s-3.5-0.875-4.625-0.25
	s-3.625,0.75-7,2.125s-2.125,0.75-2.5,0.875s-1.875-0.125-3-0.125s-2.375-0.25-5-0.375s-5.25,0.375-5.25,0.375
	s-3.875-0.75-6.375-0.875s-2.125-0.375-4.75-0.375h-5.25c-3.25,0,0,0-2.75-0.5s-0.875-0.125-2.375,0.5s-0.75,0.875-2.5,2
	s-2.125,2.5-4.875,3.25s-1.875,1.125-3.125,1.625s-2.375,2.125-3.875,2.875s-1,1.25-2.125,1.5s-1.75,1-1.75,1l-0.667,0.625
	c0,0,4.417,0.75,5.792,1s2.125,0.5,3.25,1.375s0.875,0.625,2.375,1.625s1,1.25,2.5,1.875s4.25,2.875,4.25,2.875 M96.328,136.221
	c0,0-0.5-0.875,2-1.625s2.375-2.25,3.875-2.625s2.625-2.125,2.625-2.125s2.375-1.5,2.875-1.75s2.75-3.125,2.75-3.125l7-10.25
	 M38.578,136.221c0,0,3-1.375,4.25-2s2.875-1.625,4.75-1.375s1.75,0.5,3.25,1s1.5,0.75,2.5,1s1,0.625,2.25,0.375s2.375-0.5,4-1.25
	s3.25-1.625,4.375-1.875s0.75-1.125,2.875-0.375s1.375,0.625,3.375,1.375s5.625,2.875,5.625,2.875 M104.828,129.846v6.25H2.036
	v-8.75 M270.757,0.843v31.535l-15.229,24.455 M151.702,21.792v35.041h103.824V22.009 M182.036,0.843l-30.334,20.949h9.963
	c2.23,0,2.414-0.178,5.201-0.178h6.689c0.215,0,0.436,0.018,0.67,0.027c0.811,0.033,1.144,0.533,1.811,0.701
	c0.667,0.166,2,1.5,2,1.5s1.667,1.5,2.167,2.5s1.499,2.666,1.833,3.166s0.834,1.666,1.667,1.334c0.833-0.334,1.666-2.834,2.833-4
	c1.167-1.168,0.168-1.666,1.834-2.834c1.666-1.166,1.334-2.371,3.167-2.186c3.8,0.385,10.467,0.162,12.858,0.162
	c0,0,1.215-0.256,1.974,0.02c0.585,0.213,1.835,1.088,3.335,2.588s2,3.875,2.375,4.125s1.25,1.5,1.25,1.5s1.5,0.5,1.625,0.125
	s0.125-1.875,2.125-3.625s1.625-1.125,2.875-2.375s2.243-1.615,3.937-1.934c1.108-0.209,2.052-0.4,2.304-0.4h2.833h5.834
	c0,0,0.845,0.584,1.47,2.459s2.25,4.25,2.5,4.625s0.625,1.375,1,1.875s1-2,1.5-3.5s1.125-2.75,1.5-3.25s2.657-2.209,2.657-2.209
	h2.206h4h3.834l15.229-21.166c0,0-3.139,0.166-4.478,0s-0.744,0.166-1.911,0.25s-1.583,0.5-2.167,1.082
	c-0.584,0.584-4.457,2.959-4.873,3.043c-0.418,0.082-0.25-0.668-0.584-1.084c-0.332-0.416-0.416-0.834-1-0.916
	c-0.582-0.084-2.131-2.375-3.791-2.375c-1.661,0-0.085,0.582-3.168,0.416c-3.082-0.166-2.679-0.416-5.006-0.416h-4.834
	c-1.911,0-4.077,0.5-5.494,0.416s-3.755,1.959-4.998,1.959c-1.244,0-1.549-2.375-3.375-2.375h-3.966h-3.159
	c-1.125,0-2.125,0.125-2.875,0.25s-2.125,0.625-2.875,1s-1.75,1-2.25,1.125s-1.875,0.25-3,1s-1,1.875-2,0.625
	s-1.875-2.25-1.875-2.75s-1.25-1-1.25-1h-3.5c-0.625,0-5-0.5-5.75-0.5s-2.75,0.375-2.75,0.375s-0.875,1.125-1.25,1.5l-1.875,1.875
	c0,0-2.625-1.25-2.875-1.75S182.036,0.843,182.036,0.843z"/>
<path fill="none" stroke="#231815" stroke-width="0.5" d="M245.537,11.677c0.458,0.586,0.979,1.639,1.093,2.385
	c-0.51-0.256-1.053-0.561-1.644-0.553c-0.146,0.846-0.638,1.59-0.762,2.477c-0.212,1.514-1.123,3.006-1.021,4.523 M241.454,9.177
	c0.283-0.654,0.888-1.043,1.167-1.668 M250.287,6.259c0.063,0.604,0.025,1.434,0.25,1.918 M249.954,3.093
	c0.105,0.643,0.277,1.348,0.25,2 M247.954,5.593c0.219,0.842,0.274,2.213,0.419,3.094c0.109,0.676,0.603,1.613,0.331,2.24
	 M245.121,4.677c-1.146,0.771-1.09,2.643-1,3.75 M245.371,6.593c-0.482,0.629-0.81,1.262-1.161,1.91
	c-0.28,0.521-2.625,7.078-2.756,7.59 M240.287,13.843c-0.102-0.529-0.486-0.975-0.75-1.416 M236.621,12.927
	c0.013,1.045,0.581,2.092,0.479,3.078c-0.035,0.334-0.225,0.783-0.146,0.922 M236.037,14.509c0.549,1.029,0.853,2.207,1.318,3.279
	c0.281,0.639,0.759,1.42,0.682,2.139 M221.621,15.259c0.463-0.449,1.193-0.641,1.75-1 M219.704,20.759
	c0.533-1.592,2.152-2.865,3.326-3.92c0.63-0.566,1.01-1.479,1.424-2.08 M222.204,7.927c0.201,0.975-0.211,0.943-0.5,1.832
	 M221.454,6.593c0.34,0.523,1.006,0.762,0.833,1.488c-0.01-1.334-0.063-2.52-0.25-3.822 M211.871,19.677
	c0.089,0.449,0.466,0.818,0.66,1.238c0.231,0.496,0.282,1.053,0.572,1.523c-0.114-0.064-0.269-0.082-0.385-0.148
	c-0.399,0.756,0.272,1.555,0.629,2.184c0.466,0.83,0.83,2.143,0.438,3.035 M211.787,15.093c0.199,0.822,0.934,1.342,1.233,2.119
	c0.168,0.432,0.187,0.938,0.345,1.385c0.172,0.482,0.402,0.646,0.339,1.162 M218.287,9.009c-0.099,1.74,0.749,3.262,0.334,5
	 M213.787,12.093c0.354,0.826,1.188,2.008,1.584,2.666 M214.787,11.427c0.56,0.889,0.764,1.832,0.771,2.73
	c0.006,0.863-0.049,2.654,0.396,3.436 M204.871,9.927c-1.326,0.996-2.882,1.334-4.157,2.465c-0.614,0.545-1.228,0.828-1.978,1.162
	c-0.981,0.438-1.44,1.061-2.188,1.789c-0.315,0.309-0.779,0.512-1.096,0.834 M179.703,15.675c0.545,0.26,0.848,1.865,1,2.5
	 M180.37,13.843c1.077,1.055,2.108,2.656,2.025,4.182c-0.04,0.723,0.08,0.949,0.314,1.686c0.188,0.586,0.107,1.102,0.174,1.723
	c0.104,0.967-0.063,2.635,0.423,3.498c0.081-0.02,0.13-0.078,0.146-0.172 M181.62,10.925c0.812,0.5,1.819,1.287,2.667,1.668
	 M181.953,8.843c0.688,1.547,1.949,2.756,2.59,4.258c0.521,1.219,0.812,2.666,0.91,3.992 M181.87,4.093
	c1.527,0.205,3.01,3.037,3.417,4.332 M190.787,3.259c-0.701,0.408-0.593,1.162-0.845,1.832c-0.276,0.732-1.081,1.357-1.072,2.168
	 M200.287,2.759c0.692,1.096,1.687,2.727,1.75,4.084 M198.12,4.343c0.212,0.486,0.264,1.053,0.25,1.582 M197.37,4.593
	c0.158,0.564,0.135,1.143,0.23,1.717c0.086,0.523,0.252,0.605,0.419,0.975c0.182,0.406,0.289,0.381,0.25,1.035
	c-0.015,0.209-0.065,0.393-0.066,0.605 M195.12,6.593c-0.079,0.732-0.144,1.418-0.146,2.148c-0.002,0.705-0.439,1.869-0.354,2.352
	 M191.953,8.509c-0.031,1.619-0.389,1.688-1.333,2.75 M191.537,8.093c-0.646,0.705-0.418,1.729-0.726,2.547
	c-0.339,0.904-0.466,1.662-0.524,2.703 M186.828,4.468c0.52,3.037,2.417,5.893,2.377,8.975c-0.01,0.791-0.48,1.523-0.379,2.422
	c0.106,0.92,0.178,1.672,0.243,2.684c0.076-0.074,0.167-0.148,0.259-0.205 M205.329,5.468c-1.687,0.893-2.918,2.576-4.397,3.779
	c-1.357,1.1-2.915,1.648-4.36,2.604c-0.948,0.629-1.961,1.594-2.988,2.086c-0.65,0.313-1.497,0.189-2.004,0.674
	c-0.349,0.334-0.356,0.953-0.607,1.258c-1.313,1.592-1.997,2.449-2.675,4.621c-0.488,1.576-1.258,2.418-2.029,3.795
	c-0.94,1.67-2.483,4.502-2.589,6.412c-0.188,0.234-0.01-0.08-0.099-0.104 M239.954,30.343c-0.05-1.447,0.094-2.828-0.035-4.277
	c-0.076-0.865-0.516-2.262-0.351-3.1c0.217-1.098,1.345-1.77,1.526-2.986c0.109-0.744-0.394-1.137-0.38-1.76
	c0.014-0.512,0.568-0.768,0.686-1.225c0.223-0.871-0.313-2.547-0.928-3.186c0.379-1.098,0.233-2.996,0.354-4.217 M228.454,3.218
	c-1.393,1.059-2.778,2.898-3.875,4.25 M220.329,13.843c0.83-0.654,0.999-1.742,1.487-2.555c0.354-0.59,0.874-0.895,1.138-1.57
	 M215.204,28.718c2.234-4.33,2.573-9.17,4.5-13.5 M245.454,1.093c-0.302,1.063-1.188,6.707,1.377,5.412
	c1.197-0.605,3.117-3.9,3.748-5.162 M190.078,1.218c0.501,1.107,0.763,2.682,0.75,3.893c-0.014,1.188,0.051,3.414,1.777,3.266
	c0.894-0.076,1.785-1.381,2.382-1.908c0.889-0.783,1.902-1.379,2.811-2.119c1.257-1.023,2.72-2.387,4.03-3.131 M174.453,21.509
	c2.604-1.295,4.377-4.236,5.348-6.773c0.674-1.756,1.581-2.953,1.909-4.805c0.261-1.469,0.903-3.004,0.511-4.527
	c-0.316-1.217-1.221-2.854-0.643-4.063 M214.204,1.593c-1.458,0.746-2.896,2.84-4.162,3.998c-1,0.918-2.002,2.053-3.052,2.883
	c-0.646,0.512-1.283,0.678-1.867,1.352c-0.896,1.031-1.435,2.283-2.407,3.256c-1.35,1.346-3.231,2.105-4.843,3.09
	c-1.432,0.875-2.961,1.668-4.394,2.574c-1.305,0.824-2.199,1.982-3.025,3.223 M206.829,21.968c2.313-2.016,3.205-5.418,5.041-7.76
	c1.969-2.512,4.692-4.506,7.337-6.084c0.734-0.439,1.781-1.039,2.125-1.779c0.432-0.926,0.037-1.451,0.854-2.246
	c0.774-0.758,1.457-1.137,2.068-1.906c0.295-0.367,0.903-1.004,1.072-1.225 M233.453,1.259c-0.753,1.957-6.003,6.146-6.841,8.043
	c-0.817,1.859-1.463,3.887-2.009,5.85c-0.655,2.352-2.153,5.1-2.026,7.584c-0.021,0.174,0.068-0.121,0.127-0.143 M257.579,5.218
	c-1.523,1.205-3.453,2.715-4.875,4.148c-1.801,1.811-2.326,4.689-3.626,6.826c-0.809,1.33-1.828,2.445-2.524,3.83
	c-0.343,0.676-0.53,1.555-1.225,1.945 M234.954,22.093c-0.114-2.451,0.196-4.76,1-7.035c0.284-0.807,0.175-1.754,0.396-2.461
	c0.206-0.66,0.926-1.52,1.351-2.104c0.67-0.922,1.395-1.867,2.118-2.75c0.685-0.834,1.136-1.99,1.87-2.783
	c0.84-0.904,2.245-1.25,2.99-2.332c0.332-0.484,0.446-1.094,0.773-1.535 M104.328,128.533c0.361-0.246,0.988-0.199,1.438-0.25
	 M99.828,129.721c0.92-0.62,1.994-0.784,2.938-1.125 M109.391,118.783c1.377,0,2.354,0.012,3.312,1.063 M108.078,121.658
	c0.329,0.256,0.749,0.401,1,0.75 M104.391,120.846c0.936-0.368,1.857,0.005,2.812,0.125 M102.203,125.408
	c0.39-0.459,1.715-0.642,2.297-0.791c1.049-0.271,2.27,0.061,3.393-0.084 M96.391,119.346c-0.111-0.627-0.712-0.872-1.25-1.063
	 M91.953,120.658c0.754,0.084,1.342,0.5,1.813,1 M92.266,122.846c0.218-1.928-0.994-3.102-1.5-4.813 M87.391,119.783
	c0.089-0.246,0.027-0.597,0.139-0.834c0.145-0.313,0.476-0.438,0.729-0.683c0.385-0.369,0.686-0.88,1.008-1.298 M75.953,121.596
	c0.452,0.023,1.885,1.009,2,0.938 M77.078,123.096c-0.29-0.471-0.435-1.049-0.876-1.415c-0.476-0.396-1.511-0.521-1.751-1.072
	c-1.089-0.125-2.116-0.659-3.123-1.138 M75.578,125.908c-0.213-0.486-1.077-1.095-1.625-1.063 M68.828,123.346
	c1.776-0.868,3.19,1.285,4.506,2.009c0.743,0.407,1.005,0.519,1.416,1.256c0.187,0.334,0.31,0.731,0.643,0.925 M64.328,124.721
	c0.828-0.398,1.519-0.645,2.375-0.875 M60.891,129.346c0.459-0.383,0.94-0.659,1.453-0.922c0.626-0.319,1.821-0.42,2.172-1.016
	 M69.453,127.846c-0.512-0.059-1.016-0.27-1.5-0.438 M75.578,131.346c-0.434-0.441-0.768-0.979-1.24-1.379
	c-0.521-0.438-0.946-0.483-1.58-0.69c-0.632-0.209-1.573-1.06-2.305-1.056 M51.891,129.033c-0.498-0.037-0.999-0.144-1.5-0.188
	 M57.141,132.596c-0.217-0.381-0.127-0.655-0.362-1.03c-0.334-0.534-0.951-0.683-1.438-1.03c-0.3-0.216-0.48-0.535-0.826-0.701
	c-0.574-0.274-1.339-0.303-1.873-0.61 M60.703,124.783c-0.069-0.545-0.431-1.313-0.875-1.625 M61.558,123.213
	c-0.037-1.019-1.498-1.36-2.23-1.742 M57.516,125.533c0.498,0.764,1.013,1.971,1.512,2.688c0.403,0.578,0.415,0.828,0.363,1.563
	 M59.391,126.971c-0.784-0.605-1.419-1.159-2.24-1.684c-1.197-0.763-2.674-0.793-4.01-1.066 M44.391,127.033
	c0.438-0.896,2.845-0.74,3.375-1.25 M42.953,130.346c0.505-0.434,1.08-0.389,1.693-0.551c0.458-0.123,0.626-0.269,1.058-0.504
	c0.42-0.228,1.007-0.315,1.499-0.508 M17.703,121.221c-0.56-0.191-1.167-0.282-1.75-0.375 M12.453,126.221
	c-0.578-0.463-1.386-0.516-2.062-0.75 M19.766,129.033c0.862,0.133,1.498,0.996,2.187,1.438 M24.578,120.158
	c0.196-0.638-0.384-1.938-1-2.313 M17.766,118.471c0.431,0.152,1.539,0.048,1.981,0.248c0.354,0.158,0.745,0.543,1.115,0.752
	c0.888,0.505,1.402,1.111,1.654,2.132c0.062,0.063,0.103,0.045,0.123-0.067 M22.453,128.658c-0.375-1.242-0.246-2.347-1.75-2.75
	 M23.141,127.408c-0.312-1.23-0.369-2.443-1.729-3.002c-0.121-0.688-0.799-1.101-1.3-1.554c-0.56-0.509-0.843-1.302-1.722-1.319
	 M20.703,132.283c-0.008-1.095-0.373-3.23-1.48-3.683c-1.614-0.656-3.77-0.968-5.206-2.007 M34.953,127.556
	c-0.122-0.736-0.29-1.457-0.301-2.224c-0.009-0.74-0.015-0.869-0.38-1.479c-0.52-0.867-0.983-1.777-1.402-2.68
	c-0.646-1.393-2.042-1.711-2.167-3.355c-0.076-0.998-0.452-2.088-0.333-3.098 M29.453,136.055c0.354-0.801,0.805-1.493,1.511-1.993
	c0.747-0.526,1.535-0.666,1.493-1.75c-0.035-0.905-0.721-1.524-0.587-2.487c0.108-0.777,0.463-1.121,1.072-1.595
	c1.494-1.16,3.265-0.554,4.853-1.521c0.661-0.399,1.334-1.387,1.408-2.146c0.134-1.364-1.33-1.705-2.074-2.61
	c-0.842-1.396,0.989-2.736,2.086-3.994c0.403-0.461,1.008-0.881,1.596-1.154c0.612-0.284,1.973-0.316,2.18-0.852
	c0.274-0.188,0.575-0.332,0.881-0.479 M87.703,130.221c0.346-0.682,0.902-1.732,1.492-2.229c0.346-0.291,0.862-0.265,1.235-0.429
	c0.391-0.172,0.729-0.412,1.113-0.608c0.9-0.455,1.224-0.402,1.735-1.168c0.296-0.438,0.413-1.006,0.667-1.397
	c0.601-0.921,2.038-1.212,2.919-1.849c0.9-0.647,1.485-1.513,2.339-2.219c0.679-0.563,1.855-1.248,2.326-1.938
	c0.109-0.157-0.049-0.426,0.065-0.6c0.228-0.349,0.63-0.523,0.855-0.896 M84.787,135.805c0.336-0.616,0.411-1.295,0.728-1.889
	c0.401-0.76,0.922-1.488,1.338-2.256c0.286-0.525,0.74-1.343,0.771-1.945c0.026-0.516-0.184-0.764-0.479-1.176
	c-0.409-0.563-0.815-1.103-1.421-1.521c-0.977-0.675-1.188-0.472-1.433-1.362c-0.187-0.688-0.422-1.365-0.34-2.123
	c0.18-1.662,0.646-3.604-0.6-4.98c-0.507-0.563-1.035-1.104-1.648-1.582 M96.12,135.721c0.221-0.364,0.01-1.041,0.096-1.526
	c0.142-0.788,0.46-1.508,0.574-2.321c0.187-1.312,1.135-1.791,1.828-2.896c0.777-1.235,1.441-2.733,2.815-3.403
	c0.371-0.181,0.755-0.183,0.938-0.515c0.168-0.308-0.001-0.877,0.158-1.248c0.188-0.438,0.58-0.737,0.76-1.19
	c0.196-0.492,0.108-0.994,0.435-1.433c0.844-1.144,3.241-1.785,4.49-2.069c1.701-0.39,2.891-1.306,3.905-2.646 M86.036,116.806
	c0.508,0.717,1.314,1.745,1.336,2.663c0.019,0.707-0.294,1.189-0.146,1.918c0.267,1.343,1.678,1.412,2.881,1.671
	c1.008,0.215,1.6,0.155,2.448-0.505c0.666-0.52,1.221-0.823,2.005-1.241c1.463-0.778,2.793-3.078,3.062-4.672 M75.87,135.89
	c-0.63-1.5-0.146-3.022-0.156-4.574c1.059-0.166,0.115-1.364-0.103-1.834c-0.338-0.724-0.388-1.217-0.261-1.957
	c0.093-0.545,0.374-1.056,0.445-1.594c0.061-0.438-0.075-0.882,0.053-1.31c0.355-1.195,1.68-1.388,2.493-2.22
	c0.307-0.313,1.325-1.489,1.432-1.937c0.155-0.653-0.655-1.305-1.059-1.682c-0.438-0.416-0.742-0.773-1.332-1.134
	c-0.518-0.315-1.076-0.666-1.514-1.099 M67.12,112.39c-0.45,0.924-1.833,1.84-1.719,2.967c0.29-0.108,0.585-0.086,0.808,0.103
	c-0.661,1.231-2.271,3.229-3.673,3.683 M54.953,135.221c1.239-0.543,1.178-2.161,2.25-2.758c1.007,0.82,1.413-0.93,1.663-1.489
	c0.568-1.281,1.819-2.462,0.59-3.856c0.517-0.957,1.314-1.808,1.778-2.865c0.132-0.301,0.16-0.769,0.324-1.037
	c0.392-0.651,1.078-1.143,1.478-1.823 M38.87,136.055c0.563-1.008,0.704-2.227,1.514-3.081c0.848-0.896,1.606-1.531,2.257-2.603
	c0.7-1.16,1.113-2.588,1.875-3.693c0.563-0.819,1.557-1.479,2.206-2.186c0.476-0.521,1.076-0.843,1.576-1.334
	c0.406-0.402,0.628-0.904,1.057-1.298c0.667-0.612,1.479-1.213,2.202-1.741c1.13-0.828,2.69-1.265,3.313-2.566
	c0.234-0.489,0.554-1.122,0.75-1.663 M25.12,114.721c0,0.699,0.547,5.07-0.572,5.259c-0.491,1.961-0.623,2.399-0.903,4.192
	c-0.217,1.369-0.313,3.127-0.955,4.361c-0.192,0.368-0.38,0.446-0.487,0.821c-0.107,0.384-0.037,0.741-0.2,1.131
	c-0.264,0.625-0.955,1.048-1.218,1.604c-0.448,0.949,0.025,2.188-0.347,3.156c-0.152,0.399-0.566,0.692-0.803,0.971
	c0.028-0.129,0.032-0.289,0.068-0.414 M15.703,119.14c0.854-0.785,2.432-0.466,3.348-0.99c0.672-0.385,1.197-1.024,1.902-1.437
	c0.882-0.514,1.772-0.848,2.656-1.33c0.516-0.282,0.906-0.805,1.511-0.912"/>
<path d="M41.304,62.239c0.19-0.408,0.335-0.804,0.468-1.296h-3.994v0.864c0,4.749-0.335,6.752-1.403,8.587
	c-0.19-0.264-0.348-0.444-0.6-0.636c0.959-1.631,1.233-3.346,1.233-7.64c0-1.163-0.012-1.499-0.06-1.919
	c0.456,0.048,0.816,0.06,1.451,0.06h6.681c0.686,0,1.031-0.023,1.331-0.071v0.815c-0.336-0.048-0.66-0.061-1.307-0.061h-2.542
	c-0.156,0.54-0.276,0.84-0.48,1.296h2.171c0.612,0,0.983-0.013,1.295-0.049c-0.048,0.313-0.06,0.66-0.06,1.164v2.135
	c0,0.527,0.012,0.863,0.06,1.175c-0.37-0.035-0.768-0.048-1.281-0.048h-1.715v2.938c0,0.744-0.24,0.876-1.583,0.876
	c-0.324,0-0.602-0.013-0.974-0.048c-0.048-0.36-0.072-0.433-0.19-0.78c0.552,0.097,0.981,0.132,1.485,0.132
	c0.42,0,0.504-0.035,0.504-0.264v-2.854H40.14c-0.47,0-0.863,0.013-1.261,0.048c0.036-0.359,0.05-0.731,0.05-1.235v-2.015
	c0-0.539-0.014-0.839-0.05-1.224c0.35,0.036,0.731,0.049,1.261,0.049L41.304,62.239L41.304,62.239z M40.404,67.408
	c-0.659,1.175-1.307,1.967-2.17,2.71c-0.18-0.239-0.324-0.359-0.588-0.527c0.948-0.768,1.511-1.427,2.063-2.507L40.404,67.408z
	 M39.648,64.05h5.107v-1.163h-5.107V64.05z M39.648,65.98h5.107v-1.295h-5.107V65.98z M44.278,67.084
	c0.66,0.983,1.403,1.739,2.339,2.399c-0.228,0.167-0.396,0.323-0.612,0.6c-0.971-0.792-1.583-1.476-2.361-2.651L44.278,67.084z"/>
<path d="M49.346,61.172c0-0.564-0.024-0.983-0.072-1.332h0.887c-0.048,0.384-0.072,0.744-0.072,1.344v1.787h0.336
	c0.505,0,0.731-0.013,0.959-0.061v0.78c-0.3-0.036-0.552-0.048-0.972-0.048h-0.324v3.766c0.518-0.24,0.731-0.348,1.355-0.695
	l0.072,0.731c-1.164,0.647-1.739,0.911-3.096,1.463c-0.168,0.06-0.348,0.144-0.479,0.204l-0.204-0.828
	c0.432-0.071,0.743-0.18,1.607-0.539v-4.102H48.9c-0.503,0-0.695,0.012-1.007,0.071v-0.815c0.274,0.06,0.516,0.072,1.007,0.072
	h0.444v-1.798H49.346z M53.016,68.943c0,0.288,0.07,0.384,0.358,0.456c0.288,0.084,0.828,0.107,1.933,0.107
	c1.689,0,2.193-0.072,2.386-0.348c0.156-0.216,0.24-0.768,0.252-1.619c0.276,0.168,0.42,0.228,0.768,0.312
	c-0.144,2.219-0.358,2.363-3.478,2.363c-2.482,0-2.974-0.181-2.974-1.116v-4.401l-0.266,0.084c-0.671,0.229-0.719,0.252-0.995,0.384
	l-0.216-0.815c0.336-0.036,0.66-0.107,1.043-0.239l0.434-0.145v-1.883c0-0.504-0.024-0.876-0.072-1.224h0.897
	c-0.048,0.36-0.07,0.708-0.07,1.188v1.679l1.715-0.575v-2.219c0-0.468-0.024-0.756-0.072-1.115h0.888
	c-0.048,0.348-0.07,0.695-0.07,1.127v1.967l1.847-0.611c0.372-0.12,0.624-0.228,0.948-0.372c-0.048,1.199-0.098,2.039-0.192,3.215
	c-0.083,1.067-0.24,1.571-0.551,1.751c-0.216,0.12-0.444,0.168-0.864,0.168c-0.106,0-0.252-0.013-0.526-0.036
	c-0.036-0.312-0.085-0.504-0.182-0.756c0.324,0.072,0.636,0.108,0.923,0.108c0.276,0,0.336-0.061,0.396-0.408
	c0.084-0.443,0.144-1.331,0.19-3.034l-1.989,0.684v3.311c0,0.479,0.022,0.803,0.07,1.151h-0.888
	c0.048-0.336,0.072-0.672,0.072-1.164V63.87l-1.715,0.575V68.943z"/>
<path d="M61.238,60.956c-0.492,0-0.72,0.012-1.031,0.06v-0.827c0.35,0.048,0.659,0.071,1.091,0.071h3.768
	c0.442,0,0.73-0.021,1.08-0.071v0.827c-0.313-0.048-0.518-0.06-1.021-0.06H64.86v2.974h0.372c0.516,0,0.756-0.012,1.056-0.06v0.84
	c-0.3-0.049-0.552-0.061-1.056-0.061H64.86v4.498c0,0.563,0.022,0.911,0.072,1.247l-0.889,0.012
	c0.062-0.396,0.072-0.707,0.072-1.247v-4.51h-1.811c-0.036,0.983-0.084,1.535-0.204,2.195c-0.275,1.451-0.792,2.494-1.787,3.609
	c-0.204-0.239-0.324-0.336-0.636-0.539c1.307-1.26,1.835-2.747,1.883-5.266H61.07c-0.444,0-0.779,0.024-1.091,0.072v-0.863
	c0.3,0.048,0.624,0.071,1.091,0.071h0.492v-2.974h-0.324V60.956z M62.305,63.93h1.811v-2.974h-1.811V63.93z M70.953,66.448
	c-0.264,0.252-0.264,0.252-0.828,0.899c-0.504,0.588-1.295,1.296-2.039,1.835c-0.694,0.504-1.247,0.828-2.123,1.248
	c-0.132-0.252-0.252-0.432-0.468-0.696c1.463-0.587,2.746-1.486,3.922-2.722c0.35-0.372,0.695-0.84,0.854-1.14L70.953,66.448z
	 M70.113,60.308c-0.144,0.12-0.24,0.216-0.624,0.576c-1.188,1.115-2.003,1.715-3.178,2.314c-0.146-0.275-0.252-0.443-0.48-0.684
	c1.058-0.456,1.883-1.02,2.771-1.847c0.479-0.456,0.66-0.647,0.814-0.888L70.113,60.308z M70.544,63.343
	c-0.167,0.132-0.273,0.229-0.503,0.467c-1.127,1.176-2.291,2.052-3.692,2.771c-0.168-0.323-0.276-0.479-0.47-0.707
	c1.163-0.492,2.063-1.079,3.082-2.039c0.408-0.384,0.722-0.743,0.912-1.056L70.544,63.343z"/>
<path d="M194.144,68.812c-0.072-0.216-0.072-0.229-0.132-0.408c-1.271,0.384-2.903,0.779-3.994,0.972
	c-0.192,0.036-0.408,0.084-0.587,0.132l-0.229-0.852c0.276,0,0.396-0.012,0.875-0.084c0.563-0.779,1.151-1.729,1.729-2.723
	c-0.815-1.055-1.429-1.667-2.542-2.614l0.49-0.6c0.336,0.313,0.492,0.456,0.686,0.647c0.768-1.211,1.379-2.578,1.521-3.358
	l0.854,0.288c-0.108,0.18-0.108,0.18-0.563,1.224c-0.348,0.791-0.73,1.487-1.295,2.362c0.48,0.492,0.731,0.779,1.235,1.38
	c0.624-1.151,1.08-2.146,1.247-2.723l0.804,0.371c-0.168,0.3-0.204,0.36-0.563,1.092c-0.722,1.439-1.775,3.214-2.677,4.51
	c1.235-0.229,1.823-0.372,2.783-0.646c-0.275-0.672-0.408-0.948-0.768-1.562l0.636-0.264c0.503,0.899,0.792,1.523,1.151,2.507
	c0.455-0.744,0.729-1.464,0.981-2.543c0.216-0.899,0.349-1.847,0.408-2.843h-0.588c-0.602,0-0.911,0.013-1.163,0.061v-0.815
	c0.3,0.06,0.624,0.084,1.175,0.084h0.612c0.022-0.6,0.036-1.067,0.036-1.403c0-0.48-0.024-0.78-0.072-1.14h0.912
	c-0.072,0.408-0.072,0.408-0.084,1.835c-0.013,0.168-0.013,0.312-0.036,0.708h1.739c0.609,0,0.861-0.013,1.065-0.049
	c-0.036,0.204-0.048,0.408-0.084,1.428c-0.084,2.71-0.312,5.037-0.552,5.841c-0.168,0.563-0.54,0.791-1.235,0.791
	c-0.406,0-0.636-0.012-1.211-0.084c-0.012-0.335-0.048-0.527-0.132-0.803c0.54,0.107,0.947,0.168,1.247,0.168
	c0.54,0,0.636-0.133,0.792-1.151c0.204-1.308,0.313-2.915,0.348-5.47h-2.015c-0.12,1.823-0.419,3.322-0.887,4.546
	c-0.456,1.175-1.057,2.075-1.991,3.022c-0.18-0.264-0.324-0.408-0.611-0.624c0.602-0.516,0.899-0.863,1.309-1.499L194.144,68.812z"
	/>
<path d="M203.517,64.422c0-0.264-0.014-0.468-0.036-0.708c0.252,0.024,0.516,0.036,0.852,0.036h2.604v-1.955h-2.818
	c-0.612,1.02-1.188,1.728-1.992,2.447c-0.19-0.276-0.312-0.396-0.576-0.576c1.188-1.008,1.837-1.883,2.399-3.227
	c0.155-0.348,0.239-0.623,0.299-0.875l0.854,0.24c-0.048,0.096-0.084,0.18-0.156,0.323l-0.455,0.972h5.949
	c0.525,0,0.779-0.012,1.079-0.06v0.815c-0.302-0.048-0.588-0.061-1.079-0.061h-2.711v1.955h2.171c0.491,0,0.755-0.012,1.065-0.06
	v0.791c-0.313-0.036-0.6-0.048-1.056-0.048h-2.183v2.351h3.021c0.54,0,0.876-0.023,1.211-0.071v0.863
	c-0.348-0.048-0.72-0.072-1.211-0.072h-3.021v1.979c0,0.516,0.021,0.803,0.084,1.115h-0.947c0.06-0.3,0.072-0.563,0.072-1.115
	v-1.979h-4.33c-0.492,0-0.864,0.024-1.211,0.072v-0.863c0.348,0.048,0.684,0.071,1.211,0.071h0.911V64.422L203.517,64.422z
	 M206.936,66.784v-2.351h-2.641v2.351H206.936z"/>
<path d="M214.57,60.979c0-0.479-0.024-0.804-0.071-1.14h0.839c-0.048,0.313-0.06,0.672-0.06,1.151v0.216h2.207v-0.228
	c0-0.54-0.013-0.852-0.063-1.14h0.828c-0.049,0.3-0.07,0.648-0.07,1.151v0.216c0.432,0,0.777-0.023,0.993-0.071v0.768
	c-0.252-0.036-0.489-0.048-0.993-0.048v5.121c0.432,0,0.729-0.024,0.945-0.061v0.744c-0.273-0.024-0.623-0.036-1.092-0.036h-3.789
	c-0.479,0-0.708,0.012-0.973,0.06v-0.768c0.24,0.048,0.504,0.061,0.96,0.061h0.336v-5.121h-0.071c-0.492,0-0.805,0.012-1.032,0.06
	v-0.779c0.218,0.048,0.528,0.071,1.032,0.071h0.071L214.57,60.979L214.57,60.979z M215.805,68.415
	c-0.59,0.936-0.947,1.344-1.871,2.075c-0.156-0.252-0.275-0.384-0.554-0.575c0.899-0.588,1.355-1.067,1.802-1.871L215.805,68.415z
	 M217.485,63.103v-1.247h-2.207v1.247H217.485z M217.485,64.974v-1.26h-2.207v1.26H217.485z M217.485,66.977v-1.392h-2.207v1.392
	H217.485z M217.304,68.031c0.384,0.563,0.624,0.816,1.175,1.235c-0.239,0.168-0.35,0.276-0.551,0.517
	c-0.518-0.48-0.792-0.792-1.164-1.38L217.304,68.031z M220.363,66.664c-0.156,1.764-0.491,2.699-1.403,3.887
	c-0.288-0.349-0.3-0.36-0.588-0.552c0.72-0.84,1.008-1.5,1.188-2.711c0.12-0.875,0.204-2.998,0.204-5.564
	c0-0.804-0.015-1.08-0.05-1.416c0.338,0.036,0.602,0.048,1.15,0.048h1.656c0.551,0,0.813-0.012,1.139-0.048
	c-0.035,0.276-0.048,0.636-0.048,1.164v8.083c0,0.408-0.108,0.66-0.323,0.779c-0.145,0.084-0.479,0.133-0.973,0.133
	c-0.167,0-0.299-0.013-0.947-0.049c-0.035-0.348-0.071-0.491-0.189-0.852c0.658,0.12,0.936,0.156,1.317,0.156
	c0.288,0,0.384-0.072,0.384-0.264v-2.795L220.363,66.664L220.363,66.664z M220.471,63.798c-0.024,1.176-0.024,1.428-0.072,2.195
	h2.48v-2.195H220.471z M222.881,61.027h-2.396v1.631c0,0.204,0,0.252,0,0.468h2.396V61.027z"/>
<path d="M37.346,143.981c-0.554,0-0.938,0.022-1.345,0.07v-0.84c0.313,0.048,0.686,0.072,1.345,0.072h2.999v-1.703h-2.027
	c-0.612,0-0.984,0.012-1.319,0.061v-0.814c0.288,0.048,0.66,0.072,1.319,0.072h2.027v-0.504c0-0.541-0.014-0.815-0.072-1.151h0.912
	c-0.048,0.312-0.072,0.61-0.072,1.163v0.492h1.307c0.638,0,0.983-0.024,1.295-0.072v0.814c-0.396-0.049-0.61-0.061-1.271-0.061
	h-1.331v1.703h0.899c1.475-1.151,2.696-2.459,3.116-3.358l0.77,0.479c-0.182,0.191-0.229,0.252-0.504,0.588
	c-0.624,0.756-1.415,1.535-2.314,2.291h2.101c0.624,0,0.959-0.024,1.281-0.072v0.84c-0.396-0.048-0.777-0.07-1.307-0.07h-2.962
	c-0.828,0.61-1.607,1.113-2.566,1.666v1.129c1.403-0.385,2.411-0.721,3.466-1.176c0.59-0.24,0.89-0.408,1.129-0.59l0.61,0.66
	c-0.06,0.023-0.06,0.023-0.168,0.072c-0.022,0.012-0.072,0.035-0.144,0.06c-0.503,0.229-0.923,0.408-1.681,0.686
	c-1.188,0.432-1.583,0.552-3.214,0.982v1.021c0,0.312,0.132,0.42,0.612,0.492c0.312,0.048,0.899,0.069,1.931,0.069
	c1.561,0,2.137-0.069,2.327-0.312c0.168-0.217,0.24-0.647,0.288-1.645c0.264,0.191,0.456,0.275,0.755,0.359
	c-0.216,2.277-0.288,2.314-3.776,2.314c-1.429,0-2.053-0.062-2.458-0.252c-0.338-0.146-0.444-0.373-0.444-0.912v-2.543
	c-0.875,0.443-1.583,0.757-2.615,1.164c-0.132-0.266-0.24-0.407-0.492-0.686c1.885-0.623,3.636-1.475,5.277-2.564h-3.684V143.981z"
	/>
<path d="M50.017,143.922c0-0.264-0.014-0.468-0.036-0.708c0.252,0.024,0.516,0.036,0.852,0.036h2.604v-1.955h-2.818
	c-0.612,1.021-1.188,1.728-1.991,2.447c-0.19-0.276-0.312-0.396-0.576-0.576c1.188-1.008,1.837-1.883,2.399-3.228
	c0.156-0.349,0.24-0.623,0.3-0.875l0.854,0.239c-0.048,0.097-0.084,0.181-0.156,0.323l-0.456,0.973h5.949
	c0.526,0,0.78-0.013,1.08-0.061v0.814c-0.3-0.049-0.588-0.062-1.08-0.062h-2.71v1.955H56.4c0.492,0,0.755-0.013,1.065-0.06v0.791
	c-0.312-0.037-0.6-0.05-1.056-0.05h-2.183v2.353h3.021c0.54,0,0.875-0.023,1.211-0.071v0.863C58.111,147.024,57.74,147,57.248,147
	h-3.021v1.979c0,0.516,0.022,0.803,0.084,1.113h-0.948c0.06-0.3,0.072-0.563,0.072-1.113V147h-4.33
	c-0.492,0-0.864,0.024-1.211,0.072v-0.863c0.348,0.048,0.684,0.071,1.211,0.071h0.911L50.017,143.922L50.017,143.922z
	 M53.436,146.284v-2.352h-2.641v2.352H53.436z"/>
<path d="M61.07,140.479c0-0.479-0.024-0.806-0.072-1.142h0.839c-0.048,0.313-0.06,0.672-0.06,1.151v0.216h2.207v-0.229
	c0-0.539-0.012-0.852-0.062-1.14h0.828c-0.048,0.3-0.07,0.647-0.07,1.151v0.216c0.432,0,0.778-0.022,0.994-0.071v0.768
	c-0.252-0.034-0.49-0.047-0.994-0.047v5.121c0.432,0,0.73-0.023,0.946-0.062v0.744c-0.274-0.024-0.624-0.036-1.091-0.036h-3.79
	c-0.479,0-0.708,0.012-0.972,0.061v-0.769c0.24,0.048,0.504,0.062,0.959,0.062h0.336v-5.121h-0.072
	c-0.492,0-0.804,0.013-1.032,0.061v-0.779c0.218,0.049,0.528,0.071,1.032,0.071h0.072L61.07,140.479L61.07,140.479z M62.305,147.915
	c-0.59,0.936-0.947,1.344-1.871,2.075c-0.156-0.252-0.276-0.384-0.554-0.575c0.9-0.588,1.355-1.066,1.801-1.871L62.305,147.915z
	 M63.984,142.603v-1.246h-2.207v1.246H63.984z M63.984,144.474v-1.26h-2.207v1.26H63.984z M63.984,146.478v-1.393h-2.207v1.393
	H63.984z M63.804,147.531c0.384,0.563,0.624,0.814,1.175,1.235c-0.24,0.168-0.35,0.274-0.551,0.517
	c-0.518-0.48-0.792-0.792-1.164-1.38L63.804,147.531z M66.863,146.164c-0.156,1.764-0.492,2.699-1.403,3.887
	c-0.288-0.349-0.3-0.36-0.588-0.552c0.72-0.84,1.008-1.5,1.188-2.711c0.12-0.875,0.204-2.998,0.204-5.564
	c0-0.804-0.014-1.08-0.05-1.416c0.338,0.036,0.602,0.049,1.151,0.049h1.655c0.552,0,0.813-0.013,1.139-0.049
	c-0.036,0.276-0.048,0.637-0.048,1.164v8.083c0,0.408-0.108,0.66-0.324,0.779c-0.144,0.084-0.479,0.133-0.972,0.133
	c-0.167,0-0.3-0.013-0.947-0.049c-0.036-0.349-0.072-0.491-0.19-0.853c0.658,0.121,0.936,0.155,1.317,0.155
	c0.288,0,0.384-0.071,0.384-0.264v-2.795L66.863,146.164L66.863,146.164z M66.971,143.298c-0.024,1.176-0.024,1.428-0.072,2.195
	h2.481v-2.195H66.971z M69.381,140.526h-2.397v1.632c0,0.204,0,0.252,0,0.468h2.397V140.526z"/>
<path d="M189.886,141.499c0.792,0.408,1.223,0.672,1.919,1.199l-0.456,0.624c-0.722-0.602-1.164-0.899-1.955-1.283L189.886,141.499z
	 M194.996,148.911c0,0.479,0.024,0.863,0.084,1.259h-0.924c0.06-0.442,0.084-0.778,0.084-1.247v-1.115h-3.622
	c-0.527,0-0.863,0.023-1.223,0.072v-0.84c0.336,0.048,0.646,0.072,1.164,0.072h3.682v-0.072c0-0.359-0.012-0.6-0.048-0.827h0.863
	c-0.05,0.216-0.062,0.443-0.062,0.827v0.072h3.852c0.54,0,0.84-0.014,1.197-0.072v0.84c-0.372-0.049-0.693-0.072-1.233-0.072h-3.813
	L194.996,148.911L194.996,148.911z M192.537,144.103c-0.744,0.826-1.367,1.402-2.171,2.016c-0.18,0.132-0.18,0.132-0.408,0.322
	l-0.492-0.693c0.744-0.372,1.871-1.296,2.71-2.255L192.537,144.103z M190.546,139.231c0.828,0.479,1.188,0.744,1.835,1.318
	l-0.468,0.602c-0.671-0.66-1.08-0.961-1.871-1.394L190.546,139.231z M198.366,142.051c0.563,0,0.887-0.012,1.127-0.048v0.695
	c-0.288-0.036-0.612-0.049-1.127-0.049h-1.416v0.937h1.403c0.576,0,0.888-0.012,1.14-0.048v0.695
	c-0.276-0.036-0.612-0.049-1.127-0.049h-1.416v1.066h1.955c0.479,0,0.804-0.012,1.139-0.061v0.742
	c-0.312-0.035-0.684-0.06-1.163-0.06h-4.7c-0.372,0-0.673,0.012-0.973,0.048c0.036-0.348,0.048-0.527,0.048-0.898v-1.979
	c0-0.552,0.014-0.804,0.05-1.283c-0.456,0.563-0.54,0.66-0.983,1.067c-0.084-0.181-0.228-0.349-0.479-0.554
	c1.151-0.909,1.921-1.918,2.446-3.213l0.732,0.252c-0.084,0.145-0.084,0.145-0.216,0.371c-0.134,0.239-0.182,0.313-0.506,0.805
	h2.005c0.358-0.491,0.539-0.815,0.742-1.331l0.695,0.239c-0.324,0.553-0.468,0.769-0.729,1.092h1.667
	c0.442,0,0.814-0.023,1.149-0.062v0.731c-0.3-0.036-0.66-0.061-1.079-0.061h-1.799v0.946h1.415V142.051z M196.279,142.051v-0.946
	h-2.327v0.946H196.279z M193.952,143.586h2.327v-0.937h-2.327V143.586z M193.952,145.253h2.327v-1.066h-2.327V145.253z"/>
<path d="M203.145,140.349c-0.527,0-0.889,0.023-1.259,0.071v-0.864c0.348,0.049,0.72,0.072,1.271,0.072h7.185
	c0.553,0,0.91-0.023,1.271-0.072v0.864c-0.372-0.048-0.731-0.071-1.259-0.071h-3.274v4.448h3.729c0.588,0,0.972-0.022,1.281-0.084
	v0.899c-0.312-0.062-0.684-0.084-1.307-0.084h-3.706v3.311c0,0.444,0.024,0.889,0.084,1.309h-0.981
	c0.06-0.433,0.084-0.853,0.084-1.309v-3.311h-3.574c-0.612,0-0.996,0.022-1.319,0.084v-0.899c0.336,0.062,0.695,0.084,1.309,0.084
	h3.586v-4.448H203.145z M203.337,140.923c0.672,1.02,1.031,1.717,1.55,2.928l-0.758,0.383c-0.479-1.281-0.828-1.989-1.476-2.984
	L203.337,140.923z M210.774,141.259c-0.518,1.319-0.891,1.991-1.703,3.119l-0.721-0.359c0.828-1.043,1.197-1.728,1.689-3.105
	L210.774,141.259z"/>
<path d="M218.803,141.739c0.19-0.408,0.336-0.805,0.469-1.297h-3.994v0.865c0,4.748-0.336,6.752-1.404,8.586
	c-0.189-0.265-0.348-0.443-0.6-0.637c0.96-1.631,1.234-3.346,1.234-7.64c0-1.163-0.012-1.499-0.061-1.919
	c0.456,0.048,0.816,0.06,1.451,0.06h6.681c0.686,0,1.031-0.022,1.331-0.069v0.813c-0.336-0.048-0.66-0.062-1.307-0.062h-2.543
	c-0.156,0.539-0.275,0.841-0.48,1.297h2.172c0.611,0,0.982-0.014,1.295-0.051c-0.048,0.313-0.061,0.66-0.061,1.164v2.137
	c0,0.525,0.013,0.861,0.061,1.175c-0.372-0.035-0.768-0.048-1.281-0.048h-1.717v2.938c0,0.744-0.238,0.876-1.584,0.876
	c-0.321,0-0.6-0.013-0.971-0.048c-0.049-0.359-0.072-0.433-0.19-0.779c0.552,0.098,0.981,0.133,1.485,0.133
	c0.42,0,0.504-0.035,0.504-0.266v-2.854h-1.653c-0.47,0-0.863,0.013-1.261,0.048c0.035-0.359,0.047-0.729,0.047-1.235v-2.015
	c0-0.539-0.012-0.839-0.047-1.226c0.35,0.037,0.73,0.051,1.261,0.051L218.803,141.739L218.803,141.739z M217.904,146.908
	c-0.659,1.175-1.308,1.967-2.171,2.71c-0.18-0.239-0.324-0.359-0.588-0.527c0.946-0.768,1.512-1.427,2.063-2.507L217.904,146.908z
	 M217.149,143.55h5.107v-1.163h-5.107V143.55z M217.149,145.479h5.107v-1.295h-5.107V145.479z M221.778,146.584
	c0.66,0.983,1.403,1.739,2.339,2.399c-0.228,0.166-0.396,0.322-0.612,0.6c-0.971-0.792-1.582-1.477-2.36-2.65L221.778,146.584z"/>
<path d="M342.601,61.004c0-0.54-0.024-0.888-0.071-1.26h0.923c-0.048,0.348-0.069,0.72-0.069,1.26v8.251
	c0,0.576,0.021,0.96,0.069,1.319h-0.923c0.047-0.384,0.071-0.768,0.071-1.319v-2.986c-0.659,0.444-0.779,0.516-1.931,1.163
	c-0.084,0.049-0.084,0.049-0.191,0.12l-0.373-0.839c0.637-0.156,1.572-0.636,2.495-1.271V61.004z M341.102,61.472
	c0.408,0.983,0.623,1.643,0.875,2.626l-0.684,0.313c-0.254-1.116-0.455-1.739-0.875-2.675L341.102,61.472z M345.17,64.229
	c-0.457,0-0.878,0.024-1.227,0.072v-0.863c0.324,0.048,0.696,0.071,1.227,0.071h1.918v-2.53c0-0.456-0.023-0.815-0.084-1.199h0.945
	c-0.06,0.372-0.084,0.72-0.084,1.199v2.53h2.102c0.468,0,0.852-0.023,1.211-0.084v0.876c-0.434-0.048-0.827-0.072-1.211-0.072
	h-2.102v4.966h1.632c0.554,0,0.925-0.024,1.283-0.072v0.852c-0.407-0.06-0.813-0.084-1.283-0.084h-3.958
	c-0.42,0-0.852,0.024-1.281,0.072v-0.828c0.348,0.036,0.777,0.063,1.281,0.063h1.549V64.23L345.17,64.229L345.17,64.229z"/>
<path d="M354.517,64.422c0-0.264-0.012-0.468-0.036-0.708c0.252,0.024,0.516,0.036,0.852,0.036h2.604v-1.955h-2.818
	c-0.61,1.02-1.188,1.728-1.99,2.447c-0.191-0.276-0.313-0.396-0.575-0.576c1.188-1.008,1.835-1.883,2.397-3.227
	c0.155-0.348,0.239-0.623,0.3-0.875l0.853,0.24c-0.048,0.096-0.084,0.18-0.156,0.323l-0.455,0.972h5.949
	c0.527,0,0.779-0.012,1.079-0.06v0.815c-0.3-0.048-0.588-0.061-1.079-0.061h-2.711v1.955h2.171c0.491,0,0.755-0.012,1.067-0.06
	v0.791c-0.313-0.036-0.602-0.048-1.058-0.048h-2.183v2.351h3.021c0.54,0,0.876-0.023,1.213-0.071v0.863
	c-0.35-0.048-0.722-0.072-1.213-0.072h-3.021v1.979c0,0.516,0.021,0.803,0.084,1.115h-0.947c0.062-0.3,0.072-0.563,0.072-1.115
	v-1.979h-4.33c-0.492,0-0.863,0.024-1.211,0.072v-0.863c0.348,0.048,0.684,0.071,1.211,0.071h0.911L354.517,64.422L354.517,64.422z
	 M357.936,66.784v-2.351h-2.639v2.351H357.936z"/>
<path d="M365.57,60.979c0-0.479-0.022-0.804-0.071-1.14h0.841c-0.05,0.313-0.062,0.672-0.062,1.151v0.216h2.207v-0.228
	c0-0.54-0.013-0.852-0.061-1.14h0.828c-0.051,0.3-0.072,0.648-0.072,1.151v0.216c0.432,0,0.779-0.023,0.995-0.071v0.768
	c-0.252-0.036-0.491-0.048-0.995-0.048v5.121c0.432,0,0.729-0.024,0.947-0.061v0.744c-0.275-0.024-0.623-0.036-1.094-0.036h-3.789
	c-0.479,0-0.708,0.012-0.973,0.06v-0.768c0.24,0.048,0.504,0.061,0.96,0.061h0.336v-5.121h-0.071c-0.49,0-0.805,0.012-1.03,0.06
	v-0.779c0.216,0.048,0.526,0.071,1.03,0.071h0.071L365.57,60.979L365.57,60.979z M366.805,68.415
	c-0.588,0.936-0.947,1.344-1.871,2.075c-0.156-0.252-0.275-0.384-0.552-0.575c0.897-0.588,1.354-1.067,1.8-1.871L366.805,68.415z
	 M368.485,63.103v-1.247h-2.207v1.247H368.485z M368.485,64.974v-1.26h-2.207v1.26H368.485z M368.485,66.977v-1.392h-2.207v1.392
	H368.485z M368.304,68.031c0.384,0.563,0.624,0.816,1.175,1.235c-0.239,0.168-0.348,0.276-0.551,0.517
	c-0.518-0.48-0.792-0.792-1.164-1.38L368.304,68.031z M371.363,66.664c-0.156,1.764-0.491,2.699-1.401,3.887
	c-0.288-0.349-0.302-0.36-0.59-0.552c0.722-0.84,1.01-1.5,1.188-2.711c0.12-0.875,0.204-2.998,0.204-5.564
	c0-0.804-0.014-1.08-0.048-1.416c0.336,0.036,0.6,0.048,1.148,0.048h1.656c0.551,0,0.814-0.012,1.139-0.048
	c-0.034,0.276-0.048,0.636-0.048,1.164v8.083c0,0.408-0.106,0.66-0.323,0.779c-0.145,0.084-0.479,0.133-0.973,0.133
	c-0.167,0-0.299-0.013-0.947-0.049c-0.033-0.348-0.069-0.491-0.189-0.852c0.66,0.12,0.936,0.156,1.317,0.156
	c0.288,0,0.386-0.072,0.386-0.264v-2.795L371.363,66.664L371.363,66.664z M371.471,63.798c-0.024,1.176-0.024,1.428-0.072,2.195
	h2.482v-2.195H371.471z M373.883,61.027h-2.398v1.631c0,0.204,0,0.252,0,0.468h2.398V61.027z"/>
<g>
	<g>
		<line fill="none" stroke="#231815" stroke-width="2" x1="124.586" y1="28.837" x2="146.667" y2="28.837"/>
		<g>
			<polygon fill="#231815" points="140.041,37.017 138.676,35.552 145.9,28.839 138.676,22.124 140.041,20.659 148.836,28.839 			
				"/>
		</g>
	</g>
</g>
<g>
	<g>
		<line fill="none" stroke="#231815" stroke-width="2" x1="124.586" y1="129.849" x2="146.667" y2="129.849"/>
		<g>
			<polygon fill="#231815" points="140.041,138.026 138.676,136.563 145.9,129.851 138.676,123.135 140.041,121.67 148.836,129.851 
							"/>
		</g>
	</g>
</g>
<g>
	<g>
		<line fill="none" stroke="#231815" stroke-width="2" x1="273.336" y1="28.837" x2="295.417" y2="28.837"/>
		<g>
			<polygon fill="#231815" points="288.791,37.017 287.426,35.552 294.65,28.839 287.426,22.124 288.791,20.659 297.586,28.839 			
				"/>
		</g>
	</g>
</g>
<g>
	<g>
		<line fill="none" stroke="#231815" stroke-width="2" x1="296.863" y1="55.593" x2="125.668" y2="112.09"/>
		<g>
			<polygon fill="#231815" points="129.398,102.245 131.153,103.209 126.397,111.849 135.361,115.96 134.524,117.778 
				123.608,112.769 			"/>
		</g>
	</g>
</g>
</svg>
