<?xml version="1.0" encoding="utf-8"?>
<!-- Generator: Adobe Illustrator 16.0.3, SVG Export Plug-In . SVG Version: 6.00 Build 0)  -->
<!DOCTYPE svg PUBLIC "-//W3C//DTD SVG 1.1//EN" "http://www.w3.org/Graphics/SVG/1.1/DTD/svg11.dtd">
<svg version="1.1" id="レイヤー_1" xmlns="http://www.w3.org/2000/svg" xmlns:xlink="http://www.w3.org/1999/xlink" x="0px"
	 y="0px" width="138.75px" height="160.294px" viewBox="0 0 138.75 160.294" enable-background="new 0 0 138.75 160.294"
	 xml:space="preserve">
<g>
	<defs>
		<rect id="SVGID_1_" width="138.75" height="160.294"/>
	</defs>
	<clipPath id="SVGID_2_">
		<use xlink:href="#SVGID_1_"  overflow="visible"/>
	</clipPath>
	
		<polygon clip-path="url(#SVGID_2_)" fill="none" stroke="#040000" stroke-width="0.8819" stroke-linecap="round" stroke-linejoin="round" stroke-miterlimit="10" points="
		156.503,-8.378 155.399,-7.937 154.296,-8.378 155.399,-8.599 154.296,-8.378 155.399,-7.937 156.503,-8.158 155.399,-8.599 	"/>
	
		<line clip-path="url(#SVGID_2_)" fill="none" stroke="#040000" stroke-width="0.8819" stroke-linecap="round" stroke-linejoin="round" stroke-miterlimit="10" x1="65.787" y1="63.055" x2="65.787" y2="63.055"/>
	
		<line clip-path="url(#SVGID_2_)" fill="none" stroke="#040000" stroke-width="0.8819" stroke-linecap="round" stroke-linejoin="round" stroke-miterlimit="10" x1="65.125" y1="63.716" x2="65.125" y2="63.716"/>
	
		<polygon clip-path="url(#SVGID_2_)" fill="none" stroke="#040000" stroke-width="0.8819" stroke-linecap="round" stroke-linejoin="round" stroke-miterlimit="10" points="
		94.702,95.023 94.481,96.126 94.923,97.008 94.702,98.11 95.144,99.213 95.144,100.535 95.585,101.638 96.688,102.52 
		96.909,103.622 97.13,104.725 98.233,104.504 97.792,103.401 97.351,102.299 96.909,101.196 95.806,100.535 96.247,99.433 
		96.026,98.33 95.585,97.229 95.364,96.126 	"/>
	
		<polygon clip-path="url(#SVGID_2_)" fill="none" stroke="#040000" stroke-width="0.8819" stroke-linecap="round" stroke-linejoin="round" stroke-miterlimit="10" points="
		98.896,44.976 98.454,46.079 98.896,44.976 99.558,43.874 100.882,43.874 101.765,42.771 101.765,41.449 102.206,42.551 
		101.985,43.653 100.882,44.315 99.778,44.976 98.896,45.858 98.013,46.74 97.571,46.96 98.454,46.079 97.571,46.96 98.233,46.74 
		98.896,45.638 99.778,44.756 100.882,44.315 101.985,43.653 102.206,42.551 101.765,41.449 101.765,42.771 100.882,43.874 
		99.558,43.874 	"/>
	
		<polygon clip-path="url(#SVGID_2_)" fill="none" stroke="#040000" stroke-width="0.8819" stroke-linecap="round" stroke-linejoin="round" stroke-miterlimit="10" points="
		132.665,112.44 132.886,113.984 132.003,114.866 131.12,115.748 130.899,116.851 129.796,117.732 128.692,118.394 127.589,119.055 
		126.485,119.496 125.382,119.937 124.278,120.599 123.837,121.7 123.396,122.803 123.616,124.126 124.058,125.229 124.278,126.33 
		124.499,127.433 123.837,128.535 123.175,129.638 122.513,130.74 122.071,131.843 122.071,132.725 122.733,133.826 
		122.954,134.929 122.954,136.252 123.396,137.354 124.278,138.236 125.382,138.677 126.706,138.897 127.81,138.236 
		128.913,138.016 129.796,137.134 130.237,136.031 130.679,134.929 130.899,133.826 131.12,132.725 131.562,131.622 131.782,130.52 
		132.224,129.417 132.444,128.314 132.886,127.213 133.327,126.11 133.548,125.008 133.989,123.905 134.21,122.803 134.431,121.7 
		134.872,120.599 134.651,119.496 134.872,118.394 135.756,119.496 135.977,118.394 135.756,117.291 135.535,116.188 
		135.314,115.086 135.093,113.984 134.21,112.882 133.769,111.779 	"/>
	
		<line clip-path="url(#SVGID_2_)" fill="none" stroke="#040000" stroke-width="0.8819" stroke-linecap="round" stroke-linejoin="round" stroke-miterlimit="10" x1="111.035" y1="51.812" x2="111.035" y2="51.812"/>
	
		<line clip-path="url(#SVGID_2_)" fill="none" stroke="#040000" stroke-width="0.8819" stroke-linecap="round" stroke-linejoin="round" stroke-miterlimit="10" x1="106.841" y1="131.401" x2="106.841" y2="131.401"/>
	
		<line clip-path="url(#SVGID_2_)" fill="none" stroke="#040000" stroke-width="0.8819" stroke-linecap="round" stroke-linejoin="round" stroke-miterlimit="10" x1="106.841" y1="130.96" x2="106.841" y2="130.96"/>
	
		<polygon clip-path="url(#SVGID_2_)" fill="none" stroke="#040000" stroke-width="0.8819" stroke-linecap="round" stroke-linejoin="round" stroke-miterlimit="10" points="
		63.58,11.244 62.477,11.685 63.139,12.346 64.242,13.008 65.346,13.449 66.45,14.11 67.554,14.331 67.554,13.008 67.774,11.905 
		68.216,10.803 67.112,11.023 66.009,11.464 64.684,11.464 	"/>
	
		<polygon clip-path="url(#SVGID_2_)" fill="none" stroke="#040000" stroke-width="0.8819" stroke-linecap="round" stroke-linejoin="round" stroke-miterlimit="10" points="
		105.296,16.756 104.192,17.197 103.089,17.417 101.985,17.638 100.882,17.858 101.103,18.74 102.427,18.74 103.53,18.52 
		104.192,17.417 	"/>
	
		<line clip-path="url(#SVGID_2_)" fill="none" stroke="#040000" stroke-width="0.8819" stroke-linecap="round" stroke-linejoin="round" stroke-miterlimit="10" x1="100.22" y1="26.016" x2="100.22" y2="26.016"/>
	
		<polygon clip-path="url(#SVGID_2_)" fill="none" stroke="#040000" stroke-width="0.8819" stroke-linecap="round" stroke-linejoin="round" stroke-miterlimit="10" points="
		55.193,4.85 54.09,5.071 54.531,5.512 54.752,6.614 54.531,7.937 54.752,9.039 55.855,8.598 56.959,8.378 57.18,7.275 57.18,5.953 
		56.959,4.85 56.076,3.968 	"/>
	
		<polygon clip-path="url(#SVGID_2_)" fill="none" stroke="#040000" stroke-width="0.8819" stroke-linecap="round" stroke-linejoin="round" stroke-miterlimit="10" points="
		56.738,0 55.635,0.661 54.973,1.764 55.193,2.646 56.076,3.527 56.518,2.425 56.738,1.323 	"/>
	
		<polyline clip-path="url(#SVGID_2_)" fill="none" stroke="#040000" stroke-width="0.8819" stroke-linecap="round" stroke-linejoin="round" stroke-miterlimit="10" points="
		87.859,-44.977 88.963,-45.197 90.066,-45.417 91.391,-45.417 92.715,-45.638 93.818,-46.079 94.261,-44.977 95.364,-44.756 
		96.247,-43.874 94.923,-44.095 93.818,-43.654 92.715,-43.433 91.832,-42.551 90.508,-42.551 89.404,-42.772 88.301,-42.992 
		87.197,-42.772 85.873,-42.551 84.77,-42.11 83.666,-41.449 83.887,-40.347 84.549,-39.244 85.652,-39.024 85.432,-37.921 
		85.432,-36.599 84.77,-35.496 83.445,-35.496 83.004,-36.599 82.121,-37.48 81.018,-37.26 79.914,-36.599 79.693,-35.496 
		79.03,-34.394 78.81,-33.292 79.03,-32.189 79.472,-31.087 78.589,-30.205 79.03,-31.307 78.368,-30.205 77.706,-29.103 
		76.603,-28.221 75.499,-28 76.603,-28.662 75.499,-28.221 74.616,-29.103 73.513,-29.543 72.409,-29.323 71.306,-29.103 
		70.202,-28.662 69.099,-28 67.995,-27.78 66.892,-27.339 65.787,-26.677 64.904,-27.559 63.801,-28 62.697,-28.662 61.814,-27.78 
		60.711,-27.339 59.387,-27.118 59.607,-28.221 58.504,-28.441 57.621,-29.323 56.738,-30.205 56.959,-31.307 57.842,-32.189 
		58.945,-33.071 59.387,-34.173 58.283,-34.394 57.842,-35.496 56.518,-35.496 55.414,-34.614 54.311,-33.732 54.09,-32.63 
		54.09,-31.307 55.193,-30.646 55.193,-29.323 55.414,-28 55.635,-26.898 54.752,-26.016 53.648,-26.457 52.324,-26.457 
		52.104,-25.354 50.999,-25.795 49.675,-25.795 48.792,-24.693 49.675,-23.811 48.792,-22.929 48.571,-24.032 47.247,-24.032 
		46.806,-22.929 46.364,-21.827 47.468,-21.606 46.364,-20.945 45.04,-20.945 46.144,-20.504 44.819,-20.504 43.716,-20.063 
		42.612,-19.843 41.509,-19.622 41.288,-18.52 40.847,-17.417 39.743,-16.977 38.64,-16.536 37.977,-15.433 36.874,-15.654 
		35.991,-16.536 34.887,-15.874 35.549,-14.772 35.108,-13.669 33.783,-13.89 32.68,-14.331 31.576,-14.11 30.473,-13.89 
		29.369,-13.229 29.811,-12.126 30.914,-11.685 32.018,-11.244 33.121,-10.803 34.225,-10.142 34.446,-9.04 35.549,-8.158 
		36.432,-7.276 36.432,-5.953 36.211,-4.851 36.211,-3.307 35.77,-2.205 35.549,-1.103 34.446,-0.662 33.342,-0.882 32.018,-1.103 
		30.693,-1.103 29.59,-0.882 28.486,-1.103 27.383,-1.543 26.279,-1.323 24.734,-1.323 23.63,-1.764 22.527,-1.103 21.423,-0.882 
		20.541,0 21.423,1.102 21.203,2.205 21.423,3.307 21.865,4.409 21.423,5.512 21.203,6.614 20.982,7.716 20.319,8.819 20.761,9.921 
		21.423,11.023 21.423,12.346 21.865,13.449 22.968,13.669 24.072,13.449 25.175,13.228 26.058,14.331 26.72,15.433 27.824,15.874 
		28.707,14.992 29.811,14.551 30.914,14.331 32.238,14.331 33.563,14.331 34.667,14.11 35.108,13.008 36.211,12.346 37.094,11.464 
		37.977,10.362 38.419,9.26 37.977,8.157 38.419,7.055 39.081,5.953 39.743,4.85 40.847,4.189 42.171,3.968 43.274,3.307 
		44.378,2.646 44.378,1.323 44.157,0.22 45.04,-0.662 46.144,-1.103 47.247,-0.882 48.351,-0.662 49.454,-0.221 50.778,-0.221 
		51.662,-1.103 52.766,-1.764 53.869,-1.984 54.752,-2.866 55.855,-3.307 56.959,-2.866 58.063,-2.205 58.283,-1.103 58.725,0 
		59.607,0.882 60.711,1.543 61.594,2.425 62.697,3.307 63.801,3.968 64.904,4.189 65.787,5.071 66.892,5.512 67.774,6.614 
		68.878,7.055 69.319,8.157 69.54,9.26 69.099,10.362 68.657,11.464 69.761,11.023 70.423,9.921 71.526,9.26 71.306,8.157 
		70.202,7.496 70.644,6.394 71.747,5.953 72.851,6.173 73.513,7.275 73.954,6.173 73.071,5.291 71.968,4.85 70.864,4.189 
		69.761,3.748 69.54,2.646 68.437,2.425 67.112,2.205 66.009,1.323 65.125,0.22 64.904,-0.882 63.801,-1.764 62.697,-2.425 
		62.035,-3.528 62.477,-4.63 61.814,-5.732 62.918,-5.953 64.021,-6.614 64.463,-5.512 64.904,-4.41 65.787,-5.292 66.892,-5.071 
		67.112,-3.969 67.995,-3.087 68.437,-1.984 69.319,-1.103 70.644,-0.882 71.747,-0.221 72.851,0.441 73.954,1.102 75.058,1.764 
		75.94,2.646 76.161,3.968 75.94,5.071 76.161,6.173 77.044,7.055 77.485,8.157 78.368,9.039 79.03,10.142 80.135,10.583 
		81.459,10.583 82.563,10.803 81.459,11.023 80.355,10.803 79.251,11.464 79.914,12.567 80.135,13.669 81.238,13.89 81.68,14.992 
		82.783,14.771 82.783,13.449 82.342,12.346 83.445,12.787 83.004,11.685 84.107,11.464 83.887,10.362 82.783,9.701 82.563,8.598 
		82.563,7.275 82.121,6.173 83.445,6.394 84.549,7.055 83.666,6.173 84.77,6.834 84.549,5.732 85.432,4.85 86.756,4.63 87.859,4.85 
		88.963,5.512 90.287,5.512 89.184,6.173 90.287,5.732 91.391,5.071 92.494,4.63 93.818,4.63 93.377,3.527 92.494,2.646 
		92.053,1.543 92.273,0.441 92.494,-0.662 93.598,-1.103 93.818,-2.205 94.04,-3.307 94.923,-4.189 95.806,-5.071 95.585,-6.173 
		96.688,-6.614 96.909,-7.717 98.013,-8.378 99.116,-8.599 100.22,-9.04 99.999,-7.937 101.103,-7.276 102.206,-7.496 
		103.53,-7.276 102.427,-6.614 101.323,-5.953 102.427,-5.292 103.31,-4.41 103.53,-3.307 104.634,-3.528 105.737,-4.189 
		106.841,-4.63 107.945,-4.851 109.049,-5.512 107.945,-5.732 106.841,-5.953 105.958,-6.835 106.62,-5.732 105.517,-6.394 
		104.634,-7.276 103.53,-7.717 104.854,-7.717 106.179,-7.937 107.282,-8.378 108.387,-8.819 109.49,-9.04 110.594,-9.48 
		111.697,-9.921 113.021,-9.921 114.125,-10.362 113.242,-9.48 112.139,-8.819 112.359,-7.717 111.477,-6.614 111.035,-5.512 
		109.932,-5.732 110.373,-4.63 111.477,-3.969 112.58,-3.307 113.684,-2.866 114.566,-1.984 115.449,-1.103 116.553,-0.221 
		117.656,0 118.539,0.882 118.98,1.984 118.98,3.307 117.877,3.968 116.773,4.409 115.67,4.63 114.566,4.409 113.242,4.63 
		111.918,4.63 110.814,4.409 109.711,3.968 108.607,3.748 107.503,3.086 106.399,2.866 105.296,2.425 103.972,2.425 102.868,2.205 
		101.765,2.646 100.661,3.086 99.558,3.748 98.454,4.409 97.13,4.189 95.806,4.189 94.702,4.409 95.806,5.071 94.702,5.291 
		93.598,5.953 92.273,6.173 91.17,5.953 90.066,6.173 89.184,7.055 88.963,8.157 90.066,7.937 90.287,9.039 90.287,10.362 
		89.184,10.583 90.287,11.023 91.17,11.905 91.391,13.008 92.494,13.669 91.391,14.331 92.715,14.331 93.818,14.551 94.923,15.212 
		96.026,15.653 97.13,15.433 97.571,14.11 98.896,14.11 99.999,14.771 101.103,15.433 102.206,15.653 103.53,15.653 104.634,14.771 
		105.737,14.11 106.841,14.771 107.945,13.89 107.725,14.992 107.945,16.094 107.725,17.197 107.725,18.52 107.945,18.96 
		107.282,20.063 106.841,21.165 106.399,22.268 105.958,23.37 105.517,24.472 105.075,25.575 103.972,26.457 102.868,26.677 
		101.765,26.457 102.868,26.236 101.765,26.457 100.661,26.236 99.558,25.795 98.454,25.575 97.351,25.795 96.247,26.236 
		95.144,26.897 93.818,26.677 92.715,26.457 91.611,26.236 90.508,25.795 89.404,25.575 88.301,25.354 87.197,25.575 86.314,24.693 
		84.99,24.472 83.887,24.252 83.004,23.37 81.9,22.929 80.797,22.708 79.693,22.929 78.589,23.149 77.485,23.811 76.823,24.913 
		77.265,26.016 77.044,27.118 76.161,28 75.058,28.22 73.954,27.559 72.851,26.897 71.747,26.457 70.644,26.236 69.319,26.236 
		68.437,25.354 67.995,24.252 66.892,23.59 65.787,23.149 64.684,22.929 63.359,22.929 62.256,22.708 61.152,22.268 60.049,21.827 
		58.945,20.945 57.842,20.504 58.283,19.401 59.387,18.52 59.828,17.417 58.945,16.315 58.504,15.212 59.387,14.331 58.283,14.11 
		57.621,13.008 56.297,13.228 55.193,13.669 54.09,13.89 52.986,13.669 51.883,13.89 50.778,13.449 49.675,14.11 48.571,14.551 
		47.468,13.89 46.144,13.89 45.04,14.11 43.716,14.331 42.612,14.551 41.509,14.771 40.185,14.992 39.081,15.433 38.198,16.535 
		36.874,16.535 35.991,17.417 34.887,17.858 34.225,17.858 33.121,17.638 31.797,17.638 30.473,17.638 29.148,17.417 28.266,16.535 
		27.162,16.315 26.72,17.417 26.279,18.52 25.617,19.622 24.734,20.724 23.63,21.165 22.527,21.827 21.423,22.708 20.541,23.59 
		20.319,24.693 19.657,25.795 19.437,26.897 19.878,28 19.437,29.102 18.774,30.205 17.892,31.086 16.788,31.748 15.905,32.63 
		14.802,32.85 13.698,33.291 12.815,34.394 12.374,35.496 11.491,36.378 10.387,37.039 10.167,38.142 9.725,39.244 9.284,40.346 
		8.401,41.228 7.518,42.11 7.297,43.212 6.856,44.315 5.973,45.197 5.752,46.299 5.531,47.401 6.415,48.283 7.077,49.386 
		6.635,50.488 7.077,51.591 7.518,52.692 7.518,54.235 7.077,55.339 6.635,56.44 6.635,57.764 5.973,58.866 5.09,59.748 
		5.752,60.851 6.193,61.952 7.297,62.614 5.973,62.614 5.973,63.937 7.077,64.157 5.973,64.378 6.856,65.26 7.959,65.921 
		9.063,65.479 8.622,66.583 9.284,67.685 10.167,68.567 11.27,69.228 12.153,70.11 12.815,71.212 13.036,72.315 13.478,73.417 
		14.581,73.858 15.464,74.739 16.567,75.401 17.45,76.283 18.554,76.944 19.437,77.827 20.319,78.708 21.423,79.37 22.527,79.812 
		23.63,80.252 23.851,80.252 24.955,79.812 26.058,79.591 27.162,79.149 28.266,78.708 29.369,78.929 30.473,78.708 29.369,78.487 
		30.473,78.268 31.576,78.708 32.9,78.929 34.004,79.149 35.108,79.37 36.211,78.708 37.315,78.487 38.419,77.827 39.522,77.606 
		40.626,76.944 41.729,76.724 42.833,76.504 43.937,76.283 45.04,76.063 46.144,76.283 47.247,76.724 48.13,77.827 48.571,78.929 
		49.233,80.031 50.337,80.472 51.44,80.031 52.545,79.812 53.648,80.031 54.752,79.591 55.635,80.472 56.518,81.354 57.4,82.235 
		57.4,83.56 57.18,84.661 56.738,85.764 56.959,86.866 56.518,87.968 57.621,88.409 56.518,88.63 55.855,89.732 55.635,90.834 
		56.738,91.496 56.738,92.818 57.621,93.7 58.725,94.582 59.607,95.685 60.49,96.566 61.152,97.669 61.814,98.771 62.035,99.874 
		63.359,99.874 62.256,100.095 62.477,101.196 63.139,102.299 63.58,103.401 64.021,104.504 63.801,105.606 63.801,106.929 
		64.242,108.031 64.904,109.134 65.125,110.236 64.904,111.338 64.463,112.44 63.359,113.103 62.697,114.204 62.477,115.307 
		62.035,116.409 61.814,117.512 61.594,118.614 60.932,119.717 61.152,120.818 60.932,121.921 60.932,122.362 61.152,123.465 
		61.594,124.566 62.477,125.448 62.918,126.551 63.359,127.653 64.021,128.756 64.463,129.858 65.125,130.96 66.009,132.063 
		66.45,133.165 66.229,134.268 66.45,135.37 66.45,136.692 66.892,137.795 67.112,138.897 67.112,140.221 67.333,141.322 
		67.774,142.425 68.437,143.527 69.099,144.63 70.202,145.291 70.644,146.394 71.085,147.496 71.526,148.599 71.968,149.7 
		72.63,150.803 73.513,151.905 73.733,153.008 73.513,154.11 73.292,155.213 73.954,156.314 73.733,157.417 74.837,157.638 
		75.94,158.299 77.044,158.74 78.147,157.858 79.472,157.858 80.576,157.638 81.68,156.977 83.004,156.977 84.107,156.756 
		85.211,156.977 86.314,157.417 87.418,156.977 88.521,156.314 89.846,156.314 90.949,155.653 92.053,154.992 93.156,154.11 
		94.261,153.229 95.144,152.126 96.026,151.244 96.909,150.362 97.792,149.26 98.454,148.157 99.116,147.055 99.999,146.173 
		101.103,145.291 101.323,144.188 101.544,143.086 101.985,141.984 101.985,140.661 101.765,139.559 102.647,138.456 
		103.751,138.016 105.075,137.574 106.179,137.134 107.062,136.031 106.841,134.929 107.062,133.826 107.062,132.504 
		106.62,131.401 106.399,130.299 106.179,129.196 105.517,128.095 106.179,126.992 107.062,126.11 108.166,125.448 109.049,124.566 
		109.711,123.465 110.814,122.803 111.918,122.142 113.021,121.7 114.125,121.26 115.229,120.599 116.111,119.496 116.994,118.614 
		117.215,117.512 117.436,116.409 116.994,115.307 116.994,113.984 116.773,112.882 116.773,111.559 116.553,110.456 
		116.994,109.354 116.332,108.252 115.229,108.031 115.008,106.708 114.787,105.606 114.346,104.504 114.566,103.401 
		114.787,102.299 114.346,101.196 113.463,100.314 113.684,99.213 114.125,98.11 114.787,97.008 115.229,95.905 115.891,94.803 
		116.111,93.7 117.215,93.26 118.098,92.157 118.98,91.275 119.643,90.173 120.525,89.291 121.629,88.63 122.513,87.527 
		123.396,86.646 124.499,85.764 125.603,85.103 126.706,84.661 127.81,83.779 128.692,82.897 129.575,82.016 130.458,80.913 
		131.341,79.812 132.003,78.708 132.886,77.606 133.327,76.504 133.769,75.401 134.431,74.299 134.872,73.196 135.756,72.315 
		136.197,71.212 136.639,70.11 136.859,69.008 137.301,67.905 137.301,66.583 136.859,65.479 135.756,66.142 134.651,66.362 
		133.548,66.803 132.444,66.583 131.341,67.023 130.017,67.023 128.913,67.685 127.589,67.685 126.485,67.905 125.382,68.347 
		124.278,68.567 123.175,67.905 122.513,66.803 121.408,66.142 122.292,65.26 121.85,64.157 120.967,63.275 120.084,62.394 
		118.98,61.512 118.318,60.409 117.215,59.968 116.111,59.527 115.449,58.425 114.346,57.543 114.125,56.44 113.904,55.339 
		113.463,54.235 113.021,53.354 111.918,52.692 110.814,52.031 110.594,50.929 110.373,49.827 110.152,48.724 109.932,47.401 
		109.711,46.299 109.49,45.197 108.607,44.315 107.503,43.653 107.062,42.551 107.503,41.449 106.62,40.567 105.958,39.464 
		105.517,38.362 104.854,37.26 104.192,36.157 103.972,35.055 103.31,33.953 102.868,32.85 101.985,31.968 101.544,30.866 
		100.882,29.764 101.985,30.205 102.647,31.307 103.31,32.409 104.192,33.291 105.075,32.189 105.296,31.086 105.737,29.984 
		105.737,31.307 105.517,32.409 106.62,33.071 107.282,34.173 107.945,35.275 108.607,36.378 109.27,37.48 110.152,38.362 
		110.373,39.464 110.814,40.567 111.918,41.228 112.801,42.11 113.463,43.212 113.904,44.315 113.904,45.638 114.125,46.74 
		114.566,47.842 115.449,48.724 116.553,49.386 117.436,50.268 117.877,51.37 118.539,52.472 118.98,53.575 120.084,54.456 
		120.525,55.56 121.188,56.661 120.967,57.983 121.188,59.087 121.629,60.188 121.85,61.291 122.071,62.394 122.292,63.496 
		123.396,64.157 124.499,63.716 125.603,63.496 126.706,62.835 127.81,62.614 128.913,62.394 130.017,62.173 131.12,61.512 
		132.444,61.291 133.327,60.409 134.431,59.968 135.535,59.748 136.639,59.307 137.742,59.087 138.846,58.425 139.508,57.323 
		140.391,56.44 141.494,56 142.598,55.56 143.701,55.339 144.805,55.56 145.246,54.456 146.129,53.575 147.453,53.575 
		147.895,52.472 148.998,51.591 150.322,51.591 150.102,50.488 150.322,49.386 150.985,48.283 152.089,47.842 152.751,46.74 
		153.634,45.858 154.075,44.756 153.192,43.874 152.53,42.771 151.427,42.11 150.322,41.89 149.219,41.449 148.336,40.567 
		147.453,39.464 147.453,38.142 147.674,37.039 146.57,37.48 145.688,38.362 144.805,39.244 143.922,40.346 142.818,41.228 
		141.494,41.228 140.391,41.008 139.287,41.449 138.184,40.787 137.963,39.685 138.184,38.583 138.184,37.26 137.08,37.039 
		136.859,38.142 136.639,39.244 135.756,38.362 135.314,37.26 135.093,36.157 134.431,35.055 133.548,34.173 132.886,33.071 
		132.224,31.968 131.562,30.866 130.679,29.984 131.12,28.882 132.444,28.882 132.886,27.779 133.989,28.441 135.093,28.22 
		135.756,29.323 136.418,30.425 137.08,31.527 137.521,32.63 138.625,33.291 139.729,33.732 140.611,34.614 141.715,35.055 
		142.818,35.716 143.922,35.937 145.025,35.716 146.129,35.055 147.232,34.834 148.336,35.055 148.998,36.157 149.219,37.26 
		150.322,37.921 151.427,38.142 152.53,38.362 153.854,38.362 154.958,38.583 156.062,38.803 157.165,39.244 158.489,39.023 
		159.593,38.803 160.917,38.803 162.021,38.583 163.124,38.803 164.229,38.583 165.553,38.583 166.656,38.362 167.539,39.244 
		168.643,39.685 168.643,41.008 169.746,41.669 170.188,41.89 171.07,42.771 171.953,43.653 173.057,43.874 174.16,43.653 
		173.277,44.535 172.174,44.976 172.836,46.079 173.719,46.96 174.822,47.842 175.926,48.063 177.029,47.401 178.133,46.74 
		177.912,45.638 178.796,44.756 178.796,46.079 179.017,47.181 179.458,48.283 179.017,49.386 179.237,50.488 179.458,51.591 
		179.679,52.692 179.899,53.795 180.12,54.897 180.341,56 180.562,57.103 181.003,58.204 181.444,59.307 182.106,60.409 
		182.769,61.512 182.989,62.614 183.21,63.716 183.651,64.819 184.534,65.921 185.196,67.023 185.417,68.126 185.858,69.228 
		186.079,70.331 186.521,71.433 187.403,72.315 188.507,72.976 189.61,72.315 189.831,71.212 190.935,70.771 191.377,69.669 
		192.039,68.567 192.922,67.685 192.922,66.362 193.143,65.039 193.584,63.937 193.805,62.835 193.584,61.512 193.584,60.188 
		193.363,59.087 194.025,57.983 195.129,57.764 196.012,56.882 197.115,56.661 197.557,55.56 198.66,54.677 199.764,54.016 
		200.646,53.134 201.75,52.252 202.633,51.37 203.516,50.488 204.619,50.047 205.723,49.386 206.605,48.283 206.385,47.181 
		207.269,46.299 208.372,46.079 208.813,44.976 209.255,46.079 210.138,45.197 210.358,46.299 211.462,46.079 212.345,45.197 
		213.669,44.976 213.448,43.874 213.228,42.771 214.11,43.653 215.214,43.874 216.097,44.756 216.317,45.858 216.538,46.96 
		217.2,48.063 218.304,48.724 219.188,49.606 220.07,50.488 220.512,51.591 220.953,52.692 221.174,53.795 221.395,54.897 
		220.953,56 220.732,57.103 221.836,57.543 222.939,57.983 223.822,57.103 224.926,56.44 225.809,55.56 226.691,56.44 
		227.354,57.543 227.574,58.646 227.795,59.968 228.016,61.071 228.236,62.173 229.119,63.055 229.34,64.157 229.34,65.479 
		229.561,66.583 229.34,67.685 229.119,68.787 229.119,69.228 229.119,69.228 228.898,70.331 228.678,71.433 228.457,72.535 
		228.678,73.638 229.561,72.756 230.223,73.858 231.105,74.739 231.768,75.843 232.43,76.944 232.65,78.047 232.871,79.149 
		233.092,80.252 233.313,81.354 234.195,82.235 234.416,83.339 235.521,84 236.624,84.661 237.728,85.543 239.052,85.543 
		240.155,85.983 239.935,84.882 239.052,83.779 238.61,82.677 238.39,81.575 238.61,80.472 238.39,79.37 237.728,78.268 
		236.845,77.386 235.741,76.504 234.858,75.622 233.533,75.401 232.871,74.299 232.43,72.976 231.768,71.874 231.547,70.771 
		230.443,70.331 230.223,69.228 230.664,68.126 230.885,67.023 231.547,65.921 231.988,64.819 231.988,63.496 232.65,62.394 
		233.754,63.055 234.416,64.157 235.741,64.157 236.624,65.039 237.507,65.921 237.948,67.023 239.052,67.244 238.831,68.347 
		240.155,68.347 240.597,68.567 241.7,69.228 241.259,70.331 241.259,71.653 242.362,71.433 243.466,70.771 243.687,69.669 
		244.79,69.448 245.673,68.567 246.776,68.347 247.66,67.464 248.764,67.023 249.646,66.142 249.867,65.039 250.088,63.937 
		249.867,62.835 250.088,61.731 249.646,60.63 249.205,59.527 248.543,58.425 247.881,57.323 246.997,56.44 245.894,55.779 
		245.011,54.897 244.349,53.795 243.466,52.692 242.804,51.591 243.245,50.488 243.907,49.386 244.79,48.504 245.673,47.622 
		246.776,46.74 247.881,46.299 248.984,46.079 250.088,46.52 251.191,46.74 250.75,47.842 251.191,48.945 252.295,48.724 
		251.633,47.622 252.736,46.96 253.84,46.52 254.943,46.079 256.047,45.858 257.15,45.638 258.254,44.976 258.033,43.874 
		258.916,44.756 260.02,44.315 261.123,43.874 262.227,43.653 263.552,43.653 264.435,42.771 265.538,41.89 266.642,41.228 
		267.083,40.126 268.187,39.905 268.628,38.803 269.731,38.362 269.952,37.26 270.173,36.157 271.056,35.275 271.938,34.394 
		272.159,33.291 273.042,32.409 273.925,31.307 274.366,30.205 274.808,29.102 273.704,28.661 272.601,28.441 271.497,28.22 
		272.601,27.779 273.704,27.118 273.925,26.016 272.821,25.354 271.718,24.693 272.821,24.913 273.925,25.354 273.263,24.252 
		272.601,23.149 271.938,22.047 271.718,20.945 271.276,19.842 270.173,19.401 269.069,18.74 269.511,17.638 270.394,16.756 
		270.835,15.653 271.938,15.874 272.601,14.771 273.704,14.331 274.808,13.89 275.691,13.008 274.587,12.567 273.483,12.787 
		272.38,11.905 271.276,12.346 270.394,13.228 269.29,13.669 268.628,12.567 267.745,11.464 266.642,11.244 265.979,10.142 
		266.421,9.039 267.524,8.819 268.628,8.598 269.29,7.496 270.394,6.834 271.497,6.394 272.159,5.291 273.263,4.63 274.366,5.071 
		274.808,6.173 273.925,7.275 273.704,8.378 272.821,9.26 273.925,9.48 275.028,8.598 276.133,7.937 277.236,7.496 278.34,7.275 
		279.002,7.055 279.885,7.937 281.209,7.937 280.988,9.039 280.768,10.142 279.885,11.244 280.988,11.905 282.092,11.685 
		283.416,11.905 283.857,13.008 284.078,14.11 282.975,13.89 283.195,14.992 283.637,16.094 283.195,17.197 282.975,18.299 
		283.195,19.401 284.299,19.181 285.402,18.74 286.506,18.52 287.609,17.858 288.713,17.638 289.154,16.535 288.934,15.433 
		289.154,14.331 288.934,13.228 288.271,12.126 287.389,11.244 286.947,10.142 285.844,9.26 284.961,8.378 285.402,7.275 
		286.506,6.834 287.609,6.173 288.492,5.291 289.596,4.85 289.375,3.527 290.037,2.425 291.142,1.543 291.362,1.764 291.804,0.882 
		292.907,0.22 293.79,-0.662 294.673,0.22 295.776,0.661 296.88,0.441 297.983,0 299.087,-0.662 300.19,-1.103 300.853,-2.205 
		301.515,-3.307 302.397,-4.189 303.281,-5.071 304.164,-5.953 305.047,-6.835 305.93,-7.937 306.371,-9.04 307.033,-10.142 
		307.916,-11.244 308.799,-12.126 309.682,-13.008 309.902,-14.11 310.123,-15.213 310.564,-16.315 310.564,-17.638 
		310.344,-18.961 310.785,-20.063 311.227,-21.166 312.109,-22.047 311.668,-23.15 311.889,-24.252 310.785,-24.914 
		311.889,-25.575 310.785,-26.236 309.902,-27.339 309.02,-28.221 307.916,-27.78 306.813,-28 307.033,-26.898 306.15,-26.016 
		306.371,-27.118 305.268,-26.236 304.164,-26.457 305.268,-27.118 304.385,-28 303.281,-27.78 302.839,-28.882 301.515,-28.882 
		300.411,-29.103 300.853,-30.205 301.956,-30.646 302.839,-31.528 303.943,-32.189 305.047,-33.071 305.93,-34.173 
		306.813,-35.055 307.695,-35.937 308.799,-36.599 309.682,-37.48 310.564,-38.362 311.227,-39.465 312.33,-40.126 313.213,-41.008 
		314.096,-41.89 315.199,-42.331 316.523,-42.331 317.848,-42.331 319.173,-42.331 320.497,-42.551 321.38,-41.669 322.263,-42.551 
		323.366,-42.331 324.69,-42.331 325.794,-42.11 326.897,-42.772 327.78,-43.654 328.884,-43.433 329.987,-42.772 331.091,-42.992 
		332.195,-42.331 333.299,-42.11 332.195,-41.89 331.091,-41.449 332.195,-41.008 333.299,-41.449 334.623,-41.449 335.727,-41.89 
		336.83,-41.449 337.934,-41.669 339.037,-41.89 338.154,-42.772 337.051,-43.433 337.713,-44.536 338.596,-45.417 339.699,-46.079 
		340.582,-46.961 341.686,-47.622 342.348,-48.725 343.451,-49.386 344.555,-49.166 345.658,-49.386 346.762,-49.606 
		347.866,-49.166 348.97,-48.945 348.087,-48.063 347.866,-46.961 348.97,-46.299 350.073,-46.961 351.177,-47.843 352.28,-48.284 
		353.384,-48.945 354.487,-49.166 354.267,-50.268 354.708,-51.37 355.812,-51.591 357.136,-51.811 358.019,-50.929 356.915,-51.15 
		356.253,-50.047 356.032,-48.945 355.812,-47.843 355.37,-46.74 354.267,-46.52 353.163,-46.079 352.06,-45.638 351.397,-44.536 
		350.294,-43.654 349.19,-42.992 348.308,-41.89 347.425,-41.008 346.541,-39.906 345.658,-39.024 344.555,-38.362 343.451,-37.921 
		342.127,-37.701 342.348,-36.599 341.465,-35.717 340.582,-34.835 340.141,-33.732 339.699,-32.63 339.699,-31.307 
		339.699,-29.984 339.92,-28.882 340.141,-27.78 340.361,-26.677 340.582,-25.354 340.803,-24.252 341.244,-23.15 341.465,-22.047 
		341.465,-20.725 342.348,-19.843 343.451,-20.504 344.334,-21.386 345.217,-22.488 345.438,-23.591 345.879,-24.693 
		346.983,-25.134 348.087,-25.575 347.866,-26.677 348.528,-27.78 349.411,-28.662 350.515,-28.882 351.618,-28.662 352.28,-29.764 
		351.618,-30.866 352.06,-31.969 352.501,-33.071 353.604,-33.732 353.825,-32.63 354.708,-33.512 354.046,-34.614 353.825,-35.717 
		354.267,-36.819 354.487,-37.921 353.384,-38.142 352.28,-37.701 352.28,-39.024 352.942,-40.126 353.825,-41.008 354.708,-42.11 
		354.929,-43.213 355.591,-44.315 356.915,-44.315 358.239,-44.315 359.344,-44.977 360.447,-45.197 360.889,-44.095 
		361.771,-44.977 362.875,-45.417 363.979,-46.079 365.303,-46.079 366.406,-45.858 367.289,-44.756 368.393,-44.536 
		369.055,-45.638 370.158,-46.079 371.262,-46.74 372.365,-47.181 373.027,-48.284 374.131,-48.725 375.235,-48.945 
		376.339,-49.386 377.442,-49.827 378.546,-50.488 379.649,-50.709 380.753,-51.37 381.856,-51.591 383.181,-51.591 384.284,-51.15 
		385.388,-51.37 386.271,-52.252 385.829,-53.354 384.946,-54.236 383.622,-54.457 384.726,-54.898 384.284,-56 383.622,-57.103 
		382.519,-56.882 381.856,-57.984 380.532,-57.984 379.429,-57.543 380.312,-58.425 381.415,-58.646 380.312,-58.866 
		381.415,-59.087 382.298,-57.984 383.622,-57.764 384.946,-57.764 386.05,-58.205 386.491,-59.307 	"/>
	
		<polygon clip-path="url(#SVGID_2_)" fill="none" stroke="#040000" stroke-width="0.8819" stroke-linecap="round" stroke-linejoin="round" stroke-miterlimit="10" points="
		138.404,-9.701 137.08,-9.701 138.404,-9.701 139.508,-9.04 140.611,-9.48 141.053,-8.378 141.273,-7.276 140.391,-6.173 
		141.494,-5.732 140.17,-5.732 138.846,-5.732 137.742,-5.512 137.301,-4.41 138.184,-3.528 137.08,-3.748 135.977,-3.969 
		136.639,-2.866 137.08,-1.764 137.742,-0.662 138.846,0 139.949,0.441 139.949,1.764 140.17,3.086 140.611,4.189 140.832,3.086 
		141.053,1.984 142.156,1.764 142.818,2.866 143.701,3.748 144.143,4.85 143.039,5.071 141.715,5.071 140.611,4.63 140.391,5.732 
		140.611,6.834 141.936,6.834 142.156,7.937 141.053,8.157 142.156,8.378 142.818,9.48 142.598,10.583 142.598,11.905 
		142.818,13.008 142.598,14.11 141.494,13.89 140.17,13.89 139.066,14.331 137.742,14.11 136.639,13.89 135.756,13.008 
		134.651,12.787 133.548,12.346 133.106,11.244 132.886,10.142 132.886,8.819 133.989,8.378 133.989,7.055 134.651,5.953 
		135.977,5.953 134.872,5.512 133.769,4.63 133.327,3.527 132.444,2.646 131.562,1.764 130.679,0.882 130.237,-0.221 
		130.458,-1.323 130.017,-2.425 129.134,-3.307 128.692,-3.528 129.575,-4.41 130.017,-5.512 130.458,-6.614 131.782,-6.614 
		132.665,-7.496 133.548,-8.378 134.872,-8.378 135.977,-9.26 137.08,-9.701 135.977,-9.26 134.872,-8.378 133.548,-8.378 
		132.665,-7.496 131.782,-6.614 130.458,-6.614 130.017,-5.512 129.575,-4.41 128.692,-3.528 128.692,-3.528 129.796,-2.646 
		130.458,-1.543 130.237,-0.441 130.679,0.661 131.562,1.764 132.444,2.646 133.327,3.527 133.769,4.63 134.872,5.291 
		135.977,5.953 134.651,5.953 133.989,7.055 133.989,8.378 132.886,8.598 132.886,9.921 133.106,11.023 133.327,12.126 
		134.431,12.567 135.535,12.787 136.418,13.669 137.521,14.11 138.625,14.331 139.729,14.11 140.832,13.89 141.936,14.11 
		143.039,13.669 142.818,12.567 142.377,11.464 142.377,10.142 142.377,8.819 141.273,7.937 141.936,6.834 140.611,6.834 
		140.391,5.732 140.611,4.63 141.715,5.071 143.039,5.071 144.143,4.85 143.701,3.748 142.818,2.866 142.156,1.764 141.053,1.984 
		140.832,3.086 140.611,4.189 139.949,3.086 139.949,1.764 139.949,0.441 138.846,0 137.742,-0.662 137.301,-1.764 136.639,-2.866 
		136.197,-3.969 137.301,-4.41 137.742,-5.512 138.846,-5.732 140.17,-5.732 141.494,-5.732 140.391,-6.173 141.273,-7.276 
		141.053,-8.378 140.611,-9.48 139.508,-9.04 	"/>
	
		<polygon clip-path="url(#SVGID_2_)" fill="none" stroke="#040000" stroke-width="0.8819" stroke-linecap="round" stroke-linejoin="round" stroke-miterlimit="10" points="
		155.399,-7.496 154.296,-7.276 153.192,-7.055 152.089,-6.394 151.868,-5.292 151.647,-4.189 152.31,-3.528 152.751,-4.63 
		153.192,-5.732 153.413,-4.63 153.192,-3.528 153.192,-2.205 154.517,-2.205 155.399,-3.087 155.62,-4.41 155.179,-5.512 
		154.517,-6.614 155.399,-7.496 154.296,-6.614 155.179,-5.732 155.399,-4.63 155.62,-3.528 155.179,-2.425 154.075,-2.205 
		152.972,-2.425 153.192,-3.528 153.413,-4.63 152.972,-5.732 152.751,-4.63 152.31,-3.528 151.647,-4.189 151.868,-5.292 
		152.089,-6.394 153.192,-7.055 154.296,-7.276 	"/>
	
		<polygon clip-path="url(#SVGID_2_)" fill="none" stroke="#040000" stroke-width="0.8819" stroke-linecap="round" stroke-linejoin="round" stroke-miterlimit="10" points="
		66.892,62.835 66.009,63.716 65.787,63.055 	"/>
	
		<line clip-path="url(#SVGID_2_)" fill="none" stroke="#040000" stroke-width="0.8819" stroke-linecap="round" stroke-linejoin="round" stroke-miterlimit="10" x1="65.346" y1="63.716" x2="65.346" y2="63.716"/>
	
		<polyline clip-path="url(#SVGID_2_)" fill="none" stroke="#040000" stroke-width="0.8819" stroke-linecap="round" stroke-linejoin="round" stroke-miterlimit="10" points="
		65.125,63.055 65.125,63.055 65.125,63.055 	"/>
	
		<polygon clip-path="url(#SVGID_2_)" fill="none" stroke="#040000" stroke-width="0.8819" stroke-linecap="round" stroke-linejoin="round" stroke-miterlimit="10" points="
		105.296,108.913 105.075,107.811 105.296,108.913 105.517,110.236 105.958,111.338 105.517,112.44 105.737,113.543 
		105.737,114.866 106.62,115.969 105.517,116.188 105.296,115.086 104.634,113.984 104.413,112.882 104.192,111.779 
		104.634,110.677 104.634,109.354 104.192,108.252 103.972,107.37 105.075,107.811 103.972,107.37 104.192,108.031 104.413,109.134 
		104.634,110.456 104.192,111.559 104.413,112.661 104.634,113.764 105.075,114.866 105.517,115.969 106.62,116.188 
		105.958,115.086 105.737,113.764 105.517,112.44 105.958,111.338 105.517,110.236 	"/>
	
		<polygon clip-path="url(#SVGID_2_)" fill="none" stroke="#040000" stroke-width="0.8819" stroke-linecap="round" stroke-linejoin="round" stroke-miterlimit="10" points="
		94.923,95.023 94.702,96.126 94.923,97.008 94.702,98.11 95.144,99.213 95.144,100.535 95.806,101.638 96.688,102.52 
		96.909,103.622 97.13,104.725 98.233,104.504 97.792,103.401 97.351,102.299 96.909,101.196 95.806,100.535 96.247,99.433 
		96.026,98.33 95.806,97.229 95.364,96.126 	"/>
	
		<polygon clip-path="url(#SVGID_2_)" fill="none" stroke="#040000" stroke-width="0.8819" stroke-linecap="round" stroke-linejoin="round" stroke-miterlimit="10" points="
		103.31,88.188 102.206,88.409 103.31,88.188 104.413,88.63 105.517,88.851 104.413,89.512 104.192,90.614 103.53,91.717 
		103.751,92.818 102.647,93.26 101.985,94.362 101.544,93.26 100.44,93.039 99.558,92.157 99.778,91.055 99.558,89.952 
		99.999,88.851 101.103,88.63 102.206,88.409 101.103,88.63 99.999,88.851 99.558,89.952 99.778,90.394 99.778,91.717 
		99.558,92.818 99.999,93.921 100.661,92.818 101.765,93.26 101.985,94.362 102.647,93.26 103.751,92.818 103.53,91.717 
		104.192,90.614 104.413,89.512 105.517,88.851 104.413,88.63 	"/>
	<g clip-path="url(#SVGID_2_)">
		<path fill="#D55315" d="M45.803,44.954c-0.83-1.02-1.979-2.139-3.068-2.969c-1.129,1.26-2.278,2.139-3.808,2.889
			c-0.28-0.52-0.4-0.68-0.81-1.109c0.77-0.3,1.249-0.57,1.999-1.1c1.509-1.06,2.708-2.509,3.358-4.067l0.11-0.26
			c-0.16,0.01-0.16,0.01-3.308,0.06c-0.479,0.01-0.75,0.03-1.089,0.08l-0.04-1.279c0.28,0.05,0.47,0.06,0.879,0.06
			c0.04,0,0.12,0,0.24,0l3.518-0.05c0.56-0.01,0.64-0.02,0.889-0.109l0.66,0.679c-0.13,0.15-0.21,0.29-0.32,0.54
			c-0.459,1.069-0.949,1.939-1.559,2.759c0.63,0.42,1.169,0.839,1.849,1.449c0.25,0.22,0.25,0.22,1.459,1.389L45.803,44.954z"/>
		<path fill="#D55315" d="M52.995,42.875h2.418c0.7,0,0.91-0.01,1.299-0.07v1.26c-0.36-0.04-0.62-0.05-1.279-0.05h-5.997
			c-0.66,0-0.919,0.01-1.279,0.05v-1.26c0.39,0.061,0.6,0.07,1.299,0.07h2.259v-4.107h-1.529c-0.66,0-0.919,0.01-1.279,0.05v-1.249
			c0.38,0.06,0.62,0.069,1.299,0.069h4.447c0.68,0,0.92-0.01,1.299-0.069v1.249c-0.359-0.04-0.609-0.05-1.279-0.05h-1.679V42.875z"
			/>
		<path fill="#D55315" d="M65.623,45.143c-0.83-1.02-1.979-2.129-3.068-2.958c-1.129,1.249-2.279,2.129-3.808,2.889
			c-0.28-0.53-0.399-0.69-0.81-1.12c0.77-0.3,1.25-0.56,1.999-1.089c1.509-1.06,2.708-2.519,3.358-4.068l0.11-0.27
			c-0.16,0.01-0.16,0.01-3.308,0.06c-0.48,0.011-0.75,0.03-1.089,0.08l-0.04-1.269c0.28,0.05,0.47,0.06,0.879,0.06
			c0.04,0,0.12,0,0.24,0l3.518-0.05c0.56-0.01,0.64-0.021,0.89-0.12l0.66,0.689c-0.13,0.14-0.21,0.29-0.32,0.53
			c-0.46,1.079-0.95,1.948-1.559,2.758c0.629,0.43,1.169,0.85,1.849,1.449c0.25,0.23,0.25,0.23,1.459,1.39L65.623,45.143z
			 M65.443,36.398c0.41,0.5,0.59,0.779,0.87,1.359l-0.739,0.38c-0.28-0.59-0.52-0.97-0.87-1.379L65.443,36.398z M66.643,37.578
			c-0.27-0.54-0.5-0.899-0.85-1.329l0.729-0.34c0.38,0.43,0.59,0.739,0.859,1.289L66.643,37.578z"/>
		<path fill="#D55315" d="M67.867,40.046c0.27,0.04,0.43,0.05,0.8,0.05h0.739c0.29,0,0.52-0.01,0.76-0.05
			c-0.03,0.31-0.04,0.55-0.04,1.089v2.239c0.26,0.439,0.51,0.629,1.02,0.779c0.37,0.11,0.969,0.15,2.309,0.15
			c1.639,0,2.809-0.051,3.768-0.16c-0.17,0.43-0.24,0.659-0.3,1.06c-1.349,0.06-2.189,0.079-3.348,0.079
			c-0.6,0-1.449-0.029-1.859-0.06c-0.979-0.07-1.569-0.359-2.129-1.06c-0.49,0.45-0.71,0.64-1.16,0.949
			c-0.08,0.061-0.18,0.141-0.29,0.23l-0.49-1.14c0.37-0.16,0.83-0.47,1.429-0.979v-2.148h-0.53c-0.27,0-0.41,0.01-0.68,0.05V40.046z
			 M68.717,36.338c0.799,0.799,0.959,0.999,1.499,1.759l-0.79,0.859c-0.53-0.85-0.909-1.319-1.509-1.879L68.717,36.338z
			 M71.735,38.727c-0.31,0-0.51,0.01-0.74,0.04v-0.36h-0.67c0.03-0.21,0.04-0.369,0.04-0.609v-0.62c0-0.249-0.01-0.459-0.04-0.659
			c0.29,0.03,0.54,0.04,0.97,0.04h4.657c0.4,0,0.64-0.01,0.95-0.04c-0.03,0.189-0.04,0.37-0.04,0.64v0.6
			c0,0.27,0.01,0.46,0.05,0.649h-0.719v0.36c-0.23-0.03-0.38-0.04-0.73-0.04h-1.419v0.43h1.529c0.419,0,0.589-0.01,0.819-0.03
			c-0.03,0.229-0.04,0.42-0.04,0.739v1.51c0,0.33,0.01,0.5,0.04,0.729c-0.33-0.021-0.51-0.03-0.819-0.03h-1.52v0.45h2.009
			c0.41,0,0.58-0.01,0.799-0.05v0.939c-0.25-0.03-0.42-0.04-0.83-0.04h-1.979c0.01,0.329,0.02,0.489,0.06,0.729h-1.119
			c0.04-0.271,0.05-0.39,0.06-0.729h-1.849c-0.35,0-0.56,0.01-0.8,0.05v-0.949c0.24,0.029,0.51,0.05,0.79,0.05h1.869v-0.45h-1.429
			c-0.37,0-0.5,0-0.8,0.03c0.03-0.229,0.03-0.33,0.03-0.729v-1.51c0-0.439,0-0.52-0.03-0.739c0.24,0.021,0.42,0.03,0.8,0.03h1.419
			v-0.43H71.735z M73.054,37.417h-1.679v0.479c0.11,0.011,0.18,0.011,0.31,0.011h1.369V37.417z M71.845,39.856v0.44h1.209v-0.44
			H71.845z M71.845,40.946v0.42h1.209v-0.42H71.845z M75.563,37.908c0.07,0,0.07,0,0.27,0v-0.49h-1.789v0.49H75.563z M74.044,40.296
			h1.309v-0.44h-1.309V40.296z M74.044,41.366h1.309v-0.42h-1.309V41.366z"/>
		<path fill="#D55315" d="M78.427,38.657c0.71,0.41,1.08,0.68,1.819,1.3l-0.65,0.929c-0.759-0.709-1.059-0.939-1.829-1.389
			L78.427,38.657z M80.206,42.105c-0.56,1.619-0.72,1.969-1.429,3.248l-0.97-0.859c0.46-0.51,1.03-1.669,1.489-3.028L80.206,42.105z
			 M79.906,38.457c-0.709-0.689-0.919-0.869-1.769-1.429l0.689-0.77c0.74,0.47,1.08,0.72,1.629,1.199v-0.869
			c0.29,0.04,0.669,0.06,1.179,0.06h4.198c0.52,0,0.879-0.02,1.209-0.06v1.139c-0.24-0.029-0.33-0.029-0.719-0.04v6.587
			c0,0.8-0.35,1.049-1.469,1.049c-0.2,0-0.76-0.029-1.12-0.06c-0.05-0.43-0.11-0.67-0.28-1.069c0.62,0.08,0.93,0.1,1.27,0.1
			c0.45,0,0.51-0.029,0.51-0.279v-6.327h-3.608c-0.45,0-0.839,0.021-1.149,0.051L79.906,38.457z M83.524,38.697
			c0.37,0,0.54-0.01,0.78-0.03c-0.03,0.24-0.04,0.46-0.04,0.83v2.498c0,0.37,0.01,0.6,0.04,0.83c-0.24-0.021-0.41-0.03-0.78-0.03
			h-1.579v0.859h-1.069c0.03-0.21,0.05-0.649,0.05-1.02v-3.147c0-0.34-0.01-0.57-0.04-0.82c0.24,0.021,0.43,0.03,0.79,0.03H83.524z
			 M81.945,41.825h1.27v-2.168h-1.27V41.825z"/>
	</g>
	<ellipse opacity="0.7" clip-path="url(#SVGID_2_)" fill="#E1540E" cx="100.882" cy="28.145" rx="3.471" ry="3.254"/>
	
		<line clip-path="url(#SVGID_2_)" fill="none" stroke="#040000" stroke-miterlimit="10" x1="100.882" y1="28.145" x2="89.25" y2="36.231"/>
</g>
</svg>
