<?xml version="1.0" encoding="utf-8"?>
<!-- Generator: Adobe Illustrator 16.0.3, SVG Export Plug-In . SVG Version: 6.00 Build 0)  -->
<!DOCTYPE svg PUBLIC "-//W3C//DTD SVG 1.1//EN" "http://www.w3.org/Graphics/SVG/1.1/DTD/svg11.dtd">
<svg version="1.1" id="レイヤー_1" xmlns="http://www.w3.org/2000/svg" xmlns:xlink="http://www.w3.org/1999/xlink" x="0px"
	 y="0px" width="625.123px" height="378.021px" viewBox="0 0 625.123 378.021" enable-background="new 0 0 625.123 378.021"
	 xml:space="preserve">
<g>
	<g>
		<polygon fill="#FFFFFF" points="20.377,14.211 602.617,14.211 602.617,293.452 20.377,293.452 		"/>
	</g>
	<g>
		<path fill="none" stroke="#D9D9D9" stroke-width="0.75" stroke-linejoin="round" stroke-miterlimit="10" d="M20.377,265.492
			h582.24 M20.377,237.531h582.24 M20.377,209.692h582.24 M20.377,181.732h582.24 M20.377,153.772h582.24 M20.377,125.932h582.24
			 M20.377,97.972h582.24 M20.377,70.012h582.24 M20.377,42.052h582.24 M20.377,14.211h582.24"/>
	</g>
	<g>
		
			<line fill="none" stroke="#8A8A8A" stroke-width="0.5" stroke-linejoin="round" stroke-miterlimit="10" x1="602.617" y1="293.452" x2="602.617" y2="14.211"/>
	</g>
	<g>
		<path fill="none" stroke="#8A8A8A" stroke-width="0.5" stroke-linejoin="round" stroke-miterlimit="10" d="M602.617,293.452h3
			 M602.617,246.892h3 M602.617,200.332h3 M602.617,153.772h3 M602.617,107.211h3 M602.617,60.772h3 M602.617,14.211h3"/>
	</g>
	<g>
		
			<line fill="none" stroke="#040000" stroke-width="0.75" stroke-linejoin="round" stroke-miterlimit="10" x1="20.377" y1="293.452" x2="602.617" y2="293.452"/>
	</g>
	<g>
		<path fill="none" stroke="#040000" stroke-width="0.75" stroke-linejoin="round" stroke-miterlimit="10" d="M41.258,291.171v2.28
			 M82.777,291.171v2.28 M124.417,291.171v2.28 M165.938,291.171v2.28 M207.578,291.171v2.28 M249.098,291.171v2.28
			 M290.738,291.171v2.28 M332.258,291.171v2.28 M373.897,291.171v2.28 M415.537,291.171v2.28 M457.058,291.171v2.28
			 M498.697,291.171v2.28 M540.218,291.171v2.28 M581.857,291.171v2.28 M602.617,291.171v2.28"/>
	</g>
	<g>
		<g>
			<defs>
				<rect id="SVGID_1_" x="20.377" y="14.091" width="582.961" height="280.08"/>
			</defs>
			<clipPath id="SVGID_2_">
				<use xlink:href="#SVGID_1_"  overflow="visible"/>
			</clipPath>
			
				<polyline clip-path="url(#SVGID_2_)" fill="none" stroke="#E7211A" stroke-width="2" stroke-linecap="round" stroke-linejoin="round" stroke-miterlimit="10" points="
				41.198,205.912 82.837,200.751 124.357,194.751 165.998,204.232 207.518,230.152 249.158,235.912 290.678,233.751 
				332.317,232.192 373.838,238.192 415.478,239.992 457.117,244.312 498.638,246.711 540.277,245.872 581.798,240.832 			"/>
		</g>
	</g>
	<g>
		<g>
			<defs>
				<rect id="SVGID_3_" x="20.377" y="14.091" width="582.961" height="280.08"/>
			</defs>
			<clipPath id="SVGID_4_">
				<use xlink:href="#SVGID_3_"  overflow="visible"/>
			</clipPath>
			
				<polyline clip-path="url(#SVGID_4_)" fill="none" stroke="#306FAB" stroke-width="2" stroke-linecap="round" stroke-linejoin="round" stroke-miterlimit="10" points="
				41.198,231.351 82.837,229.072 124.357,227.152 165.998,225.112 207.518,224.152 249.158,224.511 290.678,225.351 
				332.317,227.631 373.838,230.631 415.478,233.751 457.117,235.792 498.638,235.551 540.277,232.431 581.798,231.112 			"/>
		</g>
	</g>
	<g>
		<g>
			<defs>
				<rect id="SVGID_5_" x="20.377" y="14.091" width="582.961" height="280.08"/>
			</defs>
			<clipPath id="SVGID_6_">
				<use xlink:href="#SVGID_5_"  overflow="visible"/>
			</clipPath>
			
				<polyline clip-path="url(#SVGID_6_)" fill="none" stroke="#F4BB1B" stroke-width="2" stroke-linecap="round" stroke-linejoin="round" stroke-miterlimit="10" points="
				41.198,34.552 82.837,78.232 124.357,124.672 165.998,167.152 207.518,177.352 249.158,206.751 290.678,231.591 332.317,247.192 
				373.838,260.031 415.478,266.872 457.117,270.232 498.638,272.992 540.277,274.671 581.798,275.632 			"/>
		</g>
	</g>
	<g>
		<g>
			<defs>
				<rect id="SVGID_7_" x="20.377" y="14.091" width="582.961" height="280.08"/>
			</defs>
			<clipPath id="SVGID_8_">
				<use xlink:href="#SVGID_7_"  overflow="visible"/>
			</clipPath>
			
				<polyline clip-path="url(#SVGID_8_)" fill="none" stroke="#767171" stroke-width="2" stroke-linecap="round" stroke-linejoin="round" stroke-miterlimit="10" points="
				41.198,95.392 82.837,81.711 124.357,63.232 165.998,73.671 207.518,134.392 249.158,153.112 290.678,157.192 332.317,160.432 
				373.838,172.312 415.478,168.232 457.117,167.631 498.638,166.671 540.277,160.552 581.798,145.792 			"/>
		</g>
	</g>
	<g>
		<g>
			<text transform="matrix(1 0 0 1 611.1641 296.3586)" fill="#040000" font-family="'HiraKakuProN-W3-90ms-RKSJ-H'" font-size="9">0</text>
		</g>
	</g>
	<g>
		<g>
			<text transform="matrix(1 0 0 1 611.1641 249.8196)" fill="#040000" font-family="'HiraKakuProN-W3-90ms-RKSJ-H'" font-size="9">0</text>
			<text transform="matrix(1 0 0 1 617.0498 249.8196)" fill="#040000" font-family="'HiraKakuProN-W3-90ms-RKSJ-H'" font-size="9">.5</text>
		</g>
	</g>
	<g>
		<g>
			<text transform="matrix(1 0 0 1 611.1641 203.2727)" fill="#040000" font-family="'HiraKakuProN-W3-90ms-RKSJ-H'" font-size="9">1</text>
		</g>
	</g>
	<g>
		<g>
			<text transform="matrix(1 0 0 1 611.1641 156.7336)" fill="#040000" font-family="'HiraKakuProN-W3-90ms-RKSJ-H'" font-size="9">1</text>
			<text transform="matrix(1 0 0 1 617.0498 156.7336)" fill="#040000" font-family="'HiraKakuProN-W3-90ms-RKSJ-H'" font-size="9">.5</text>
		</g>
	</g>
	<g>
		<g>
			<text transform="matrix(1 0 0 1 611.1641 110.1868)" fill="#040000" font-family="'HiraKakuProN-W3-90ms-RKSJ-H'" font-size="9">2</text>
		</g>
	</g>
	<g>
		<g>
			<text transform="matrix(1 0 0 1 611.1641 63.6477)" fill="#040000" font-family="'HiraKakuProN-W3-90ms-RKSJ-H'" font-size="9">2</text>
			<text transform="matrix(1 0 0 1 617.0498 63.6477)" fill="#040000" font-family="'HiraKakuProN-W3-90ms-RKSJ-H'" font-size="9">.5</text>
		</g>
	</g>
	<g>
		<g>
			<text transform="matrix(1 0 0 1 611.1641 17.1008)" fill="#040000" font-family="'HiraKakuProN-W3-90ms-RKSJ-H'" font-size="9">3</text>
		</g>
	</g>
	<g>
		<g>
			<text transform="matrix(1 0 0 1 5.9453 296.3586)" fill="#595A59" font-family="'HiraKakuProN-W3-90ms-RKSJ-H'" font-size="9">0</text>
		</g>
	</g>
	<g>
		<g>
			<text transform="matrix(1 0 0 1 5.9453 268.4368)" fill="#595A59" font-family="'HiraKakuProN-W3-90ms-RKSJ-H'" font-size="9">5</text>
		</g>
	</g>
	<g>
		<g>
			<text transform="matrix(1 0 0 1 0.0313 240.5071)" fill="#595A59" font-family="'HiraKakuProN-W3-90ms-RKSJ-H'" font-size="9">1</text>
			<text transform="matrix(1 0 0 1 5.9175 240.5071)" fill="#595A59" font-family="'HiraKakuProN-W3-90ms-RKSJ-H'" font-size="9">0</text>
		</g>
	</g>
	<g>
		<g>
			<text transform="matrix(1 0 0 1 0.0313 212.5774)" fill="#595A59" font-family="'HiraKakuProN-W3-90ms-RKSJ-H'" font-size="9">1</text>
			<text transform="matrix(1 0 0 1 5.9175 212.5774)" fill="#595A59" font-family="'HiraKakuProN-W3-90ms-RKSJ-H'" font-size="9">5</text>
		</g>
	</g>
	<g>
		<g>
			<text transform="matrix(1 0 0 1 0.0313 184.6477)" fill="#595A59" font-family="'HiraKakuProN-W3-90ms-RKSJ-H'" font-size="9">2</text>
			<text transform="matrix(1 0 0 1 5.9175 184.6477)" fill="#595A59" font-family="'HiraKakuProN-W3-90ms-RKSJ-H'" font-size="9">0</text>
		</g>
	</g>
	<g>
		<g>
			<text transform="matrix(1 0 0 1 0.0313 156.7336)" fill="#595A59" font-family="'HiraKakuProN-W3-90ms-RKSJ-H'" font-size="9">2</text>
			<text transform="matrix(1 0 0 1 5.9175 156.7336)" fill="#595A59" font-family="'HiraKakuProN-W3-90ms-RKSJ-H'" font-size="9">5</text>
		</g>
	</g>
	<g>
		<g>
			<text transform="matrix(1 0 0 1 0.0313 128.8118)" fill="#595A59" font-family="'HiraKakuProN-W3-90ms-RKSJ-H'" font-size="9">3</text>
			<text transform="matrix(1 0 0 1 5.9175 128.8118)" fill="#595A59" font-family="'HiraKakuProN-W3-90ms-RKSJ-H'" font-size="9">0</text>
		</g>
	</g>
	<g>
		<g>
			<text transform="matrix(1 0 0 1 0.0313 100.8821)" fill="#595A59" font-family="'HiraKakuProN-W3-90ms-RKSJ-H'" font-size="9">3</text>
			<text transform="matrix(1 0 0 1 5.9175 100.8821)" fill="#595A59" font-family="'HiraKakuProN-W3-90ms-RKSJ-H'" font-size="9">5</text>
		</g>
	</g>
	<g>
		<g>
			<text transform="matrix(1 0 0 1 0 72.9524)" fill="#595A59" font-family="'HiraKakuProN-W3-90ms-RKSJ-H'" font-size="9">4</text>
			<text transform="matrix(1 0 0 1 5.9941 72.9524)" fill="#595A59" font-family="'HiraKakuProN-W3-90ms-RKSJ-H'" font-size="9">0</text>
		</g>
	</g>
	<g>
		<g>
			<text transform="matrix(1 0 0 1 0 45.0227)" fill="#595A59" font-family="'HiraKakuProN-W3-90ms-RKSJ-H'" font-size="9">4</text>
			<text transform="matrix(1 0 0 1 5.9941 45.0227)" fill="#595A59" font-family="'HiraKakuProN-W3-90ms-RKSJ-H'" font-size="9">5</text>
		</g>
	</g>
	<g>
		<g>
			<text transform="matrix(1 0 0 1 0.0313 17.1008)" fill="#595A59" font-family="'HiraKakuProN-W3-90ms-RKSJ-H'" font-size="9">5</text>
			<text transform="matrix(1 0 0 1 5.9175 17.1008)" fill="#595A59" font-family="'HiraKakuProN-W3-90ms-RKSJ-H'" font-size="9">0</text>
		</g>
	</g>
	<g>
		<g>
			
				<text transform="matrix(1.748455e-007 -1 1 1.748455e-007 44.6553 349.9778)" fill="#595A59" font-family="'HiraKakuProN-W3-90ms-RKSJ-H'" font-size="9">1</text>
			
				<text transform="matrix(1.748455e-007 -1 1 1.748455e-007 44.6553 344.0911)" fill="#595A59" font-family="'HiraKakuProN-W3-90ms-RKSJ-H'" font-size="9">9</text>
			
				<text transform="matrix(1.748455e-007 -1 1 1.748455e-007 44.6553 338.0969)" fill="#595A59" font-family="'HiraKakuProN-W3-90ms-RKSJ-H'" font-size="9">50</text>
			
				<text transform="matrix(1.748455e-007 -1 1 1.748455e-007 44.6553 326.3254)" fill="#595A59" font-family="'HiraKakuProN-W3-90ms-RKSJ-H'" font-size="9">-</text>
			
				<text transform="matrix(1.748455e-007 -1 1 1.748455e-007 44.6553 323.0852)" fill="#595A59" font-family="'HiraKakuProN-W3-90ms-RKSJ-H'" font-size="9">1</text>
			
				<text transform="matrix(1.748455e-007 -1 1 1.748455e-007 44.6553 317.2004)" fill="#595A59" font-family="'HiraKakuProN-W3-90ms-RKSJ-H'" font-size="9">9</text>
			
				<text transform="matrix(1.748455e-007 -1 1 1.748455e-007 44.6553 311.2063)" fill="#595A59" font-family="'HiraKakuProN-W3-90ms-RKSJ-H'" font-size="9">5</text>
			
				<text transform="matrix(1.748455e-007 -1 1 1.748455e-007 44.6553 305.3196)" fill="#595A59" font-family="'HiraKakuProN-W3-90ms-RKSJ-H'" font-size="9">5</text>
		</g>
	</g>
	<g>
		<g>
			
				<text transform="matrix(1.748455e-007 -1 1 1.748455e-007 86.2402 349.9778)" fill="#595A59" font-family="'HiraKakuProN-W3-90ms-RKSJ-H'" font-size="9">1</text>
			
				<text transform="matrix(1.748455e-007 -1 1 1.748455e-007 86.2402 344.0911)" fill="#595A59" font-family="'HiraKakuProN-W3-90ms-RKSJ-H'" font-size="9">9</text>
			
				<text transform="matrix(1.748455e-007 -1 1 1.748455e-007 86.2402 338.0969)" fill="#595A59" font-family="'HiraKakuProN-W3-90ms-RKSJ-H'" font-size="9">55</text>
			
				<text transform="matrix(1.748455e-007 -1 1 1.748455e-007 86.2402 326.3254)" fill="#595A59" font-family="'HiraKakuProN-W3-90ms-RKSJ-H'" font-size="9">-</text>
			
				<text transform="matrix(1.748455e-007 -1 1 1.748455e-007 86.2402 323.0852)" fill="#595A59" font-family="'HiraKakuProN-W3-90ms-RKSJ-H'" font-size="9">1</text>
			
				<text transform="matrix(1.748455e-007 -1 1 1.748455e-007 86.2402 317.2004)" fill="#595A59" font-family="'HiraKakuProN-W3-90ms-RKSJ-H'" font-size="9">9</text>
			
				<text transform="matrix(1.748455e-007 -1 1 1.748455e-007 86.2402 311.2063)" fill="#595A59" font-family="'HiraKakuProN-W3-90ms-RKSJ-H'" font-size="9">6</text>
			
				<text transform="matrix(1.748455e-007 -1 1 1.748455e-007 86.2402 305.3196)" fill="#595A59" font-family="'HiraKakuProN-W3-90ms-RKSJ-H'" font-size="9">0</text>
		</g>
	</g>
	<g>
		<g>
			
				<text transform="matrix(1.748455e-007 -1 1 1.748455e-007 127.8271 349.9778)" fill="#595A59" font-family="'HiraKakuProN-W3-90ms-RKSJ-H'" font-size="9">1</text>
			
				<text transform="matrix(1.748455e-007 -1 1 1.748455e-007 127.8271 344.0911)" fill="#595A59" font-family="'HiraKakuProN-W3-90ms-RKSJ-H'" font-size="9">9</text>
			
				<text transform="matrix(1.748455e-007 -1 1 1.748455e-007 127.8271 338.0969)" fill="#595A59" font-family="'HiraKakuProN-W3-90ms-RKSJ-H'" font-size="9">60</text>
			
				<text transform="matrix(1.748455e-007 -1 1 1.748455e-007 127.8271 326.3254)" fill="#595A59" font-family="'HiraKakuProN-W3-90ms-RKSJ-H'" font-size="9">-</text>
			
				<text transform="matrix(1.748455e-007 -1 1 1.748455e-007 127.8271 323.0852)" fill="#595A59" font-family="'HiraKakuProN-W3-90ms-RKSJ-H'" font-size="9">1</text>
			
				<text transform="matrix(1.748455e-007 -1 1 1.748455e-007 127.8271 317.2004)" fill="#595A59" font-family="'HiraKakuProN-W3-90ms-RKSJ-H'" font-size="9">9</text>
			
				<text transform="matrix(1.748455e-007 -1 1 1.748455e-007 127.8271 311.2063)" fill="#595A59" font-family="'HiraKakuProN-W3-90ms-RKSJ-H'" font-size="9">6</text>
			
				<text transform="matrix(1.748455e-007 -1 1 1.748455e-007 127.8271 305.3196)" fill="#595A59" font-family="'HiraKakuProN-W3-90ms-RKSJ-H'" font-size="9">5</text>
		</g>
	</g>
	<g>
		<g>
			
				<text transform="matrix(1.748455e-007 -1 1 1.748455e-007 169.4121 349.9778)" fill="#595A59" font-family="'HiraKakuProN-W3-90ms-RKSJ-H'" font-size="9">1</text>
			
				<text transform="matrix(1.748455e-007 -1 1 1.748455e-007 169.4121 344.0911)" fill="#595A59" font-family="'HiraKakuProN-W3-90ms-RKSJ-H'" font-size="9">9</text>
			
				<text transform="matrix(1.748455e-007 -1 1 1.748455e-007 169.4121 338.0969)" fill="#595A59" font-family="'HiraKakuProN-W3-90ms-RKSJ-H'" font-size="9">65</text>
			
				<text transform="matrix(1.748455e-007 -1 1 1.748455e-007 169.4121 326.3254)" fill="#595A59" font-family="'HiraKakuProN-W3-90ms-RKSJ-H'" font-size="9">-</text>
			
				<text transform="matrix(1.748455e-007 -1 1 1.748455e-007 169.4121 323.0852)" fill="#595A59" font-family="'HiraKakuProN-W3-90ms-RKSJ-H'" font-size="9">1</text>
			
				<text transform="matrix(1.748455e-007 -1 1 1.748455e-007 169.4121 317.2004)" fill="#595A59" font-family="'HiraKakuProN-W3-90ms-RKSJ-H'" font-size="9">9</text>
			
				<text transform="matrix(1.748455e-007 -1 1 1.748455e-007 169.4121 311.2063)" fill="#595A59" font-family="'HiraKakuProN-W3-90ms-RKSJ-H'" font-size="9">7</text>
			
				<text transform="matrix(1.748455e-007 -1 1 1.748455e-007 169.4131 305.3196)" fill="#595A59" font-family="'HiraKakuProN-W3-90ms-RKSJ-H'" font-size="9">0</text>
		</g>
	</g>
	<g>
		<g>
			
				<text transform="matrix(1.748455e-007 -1 1 1.748455e-007 210.9902 349.9778)" fill="#595A59" font-family="'HiraKakuProN-W3-90ms-RKSJ-H'" font-size="9">1</text>
			
				<text transform="matrix(1.748455e-007 -1 1 1.748455e-007 210.9902 344.0911)" fill="#595A59" font-family="'HiraKakuProN-W3-90ms-RKSJ-H'" font-size="9">9</text>
			
				<text transform="matrix(1.748455e-007 -1 1 1.748455e-007 210.9902 338.0969)" fill="#595A59" font-family="'HiraKakuProN-W3-90ms-RKSJ-H'" font-size="9">70</text>
			
				<text transform="matrix(1.748455e-007 -1 1 1.748455e-007 210.9902 326.3254)" fill="#595A59" font-family="'HiraKakuProN-W3-90ms-RKSJ-H'" font-size="9">-</text>
			
				<text transform="matrix(1.748455e-007 -1 1 1.748455e-007 210.9902 323.0852)" fill="#595A59" font-family="'HiraKakuProN-W3-90ms-RKSJ-H'" font-size="9">1</text>
			
				<text transform="matrix(1.748455e-007 -1 1 1.748455e-007 210.9902 317.2004)" fill="#595A59" font-family="'HiraKakuProN-W3-90ms-RKSJ-H'" font-size="9">9</text>
			
				<text transform="matrix(1.748455e-007 -1 1 1.748455e-007 210.9902 311.2063)" fill="#595A59" font-family="'HiraKakuProN-W3-90ms-RKSJ-H'" font-size="9">7</text>
			
				<text transform="matrix(1.748455e-007 -1 1 1.748455e-007 210.9902 305.3196)" fill="#595A59" font-family="'HiraKakuProN-W3-90ms-RKSJ-H'" font-size="9">5</text>
		</g>
	</g>
	<g>
		<g>
			
				<text transform="matrix(1.748455e-007 -1 1 1.748455e-007 252.585 349.9778)" fill="#595A59" font-family="'HiraKakuProN-W3-90ms-RKSJ-H'" font-size="9">1</text>
			
				<text transform="matrix(1.748455e-007 -1 1 1.748455e-007 252.585 344.0911)" fill="#595A59" font-family="'HiraKakuProN-W3-90ms-RKSJ-H'" font-size="9">9</text>
			
				<text transform="matrix(1.748455e-007 -1 1 1.748455e-007 252.585 338.0969)" fill="#595A59" font-family="'HiraKakuProN-W3-90ms-RKSJ-H'" font-size="9">75</text>
			
				<text transform="matrix(1.748455e-007 -1 1 1.748455e-007 252.585 326.3254)" fill="#595A59" font-family="'HiraKakuProN-W3-90ms-RKSJ-H'" font-size="9">-</text>
			
				<text transform="matrix(1.748455e-007 -1 1 1.748455e-007 252.585 323.0852)" fill="#595A59" font-family="'HiraKakuProN-W3-90ms-RKSJ-H'" font-size="9">1</text>
			
				<text transform="matrix(1.748455e-007 -1 1 1.748455e-007 252.585 317.2004)" fill="#595A59" font-family="'HiraKakuProN-W3-90ms-RKSJ-H'" font-size="9">9</text>
			
				<text transform="matrix(1.748455e-007 -1 1 1.748455e-007 252.585 311.2063)" fill="#595A59" font-family="'HiraKakuProN-W3-90ms-RKSJ-H'" font-size="9">8</text>
			
				<text transform="matrix(1.748455e-007 -1 1 1.748455e-007 252.585 305.3196)" fill="#595A59" font-family="'HiraKakuProN-W3-90ms-RKSJ-H'" font-size="9">0</text>
		</g>
	</g>
	<g>
		<g>
			
				<text transform="matrix(1.748455e-007 -1 1 1.748455e-007 294.1699 349.9778)" fill="#595A59" font-family="'HiraKakuProN-W3-90ms-RKSJ-H'" font-size="9">1</text>
			
				<text transform="matrix(1.748455e-007 -1 1 1.748455e-007 294.1699 344.0911)" fill="#595A59" font-family="'HiraKakuProN-W3-90ms-RKSJ-H'" font-size="9">9</text>
			
				<text transform="matrix(1.748455e-007 -1 1 1.748455e-007 294.1699 338.0969)" fill="#595A59" font-family="'HiraKakuProN-W3-90ms-RKSJ-H'" font-size="9">80</text>
			
				<text transform="matrix(1.748455e-007 -1 1 1.748455e-007 294.1699 326.3254)" fill="#595A59" font-family="'HiraKakuProN-W3-90ms-RKSJ-H'" font-size="9">-</text>
			
				<text transform="matrix(1.748455e-007 -1 1 1.748455e-007 294.1699 323.0852)" fill="#595A59" font-family="'HiraKakuProN-W3-90ms-RKSJ-H'" font-size="9">1</text>
			
				<text transform="matrix(1.748455e-007 -1 1 1.748455e-007 294.1699 317.2004)" fill="#595A59" font-family="'HiraKakuProN-W3-90ms-RKSJ-H'" font-size="9">9</text>
			
				<text transform="matrix(1.748455e-007 -1 1 1.748455e-007 294.1699 311.2063)" fill="#595A59" font-family="'HiraKakuProN-W3-90ms-RKSJ-H'" font-size="9">8</text>
			
				<text transform="matrix(1.748455e-007 -1 1 1.748455e-007 294.1699 305.3196)" fill="#595A59" font-family="'HiraKakuProN-W3-90ms-RKSJ-H'" font-size="9">5</text>
		</g>
	</g>
	<g>
		<g>
			
				<text transform="matrix(1.748455e-007 -1 1 1.748455e-007 335.7568 349.9778)" fill="#595A59" font-family="'HiraKakuProN-W3-90ms-RKSJ-H'" font-size="9">1</text>
			
				<text transform="matrix(1.748455e-007 -1 1 1.748455e-007 335.7568 344.0911)" fill="#595A59" font-family="'HiraKakuProN-W3-90ms-RKSJ-H'" font-size="9">9</text>
			
				<text transform="matrix(1.748455e-007 -1 1 1.748455e-007 335.7568 338.0969)" fill="#595A59" font-family="'HiraKakuProN-W3-90ms-RKSJ-H'" font-size="9">85</text>
			
				<text transform="matrix(1.748455e-007 -1 1 1.748455e-007 335.7568 326.3254)" fill="#595A59" font-family="'HiraKakuProN-W3-90ms-RKSJ-H'" font-size="9">-</text>
			
				<text transform="matrix(1.748455e-007 -1 1 1.748455e-007 335.7568 323.0852)" fill="#595A59" font-family="'HiraKakuProN-W3-90ms-RKSJ-H'" font-size="9">1</text>
			
				<text transform="matrix(1.748455e-007 -1 1 1.748455e-007 335.7568 317.2004)" fill="#595A59" font-family="'HiraKakuProN-W3-90ms-RKSJ-H'" font-size="9">9</text>
			
				<text transform="matrix(1.748455e-007 -1 1 1.748455e-007 335.7568 311.2063)" fill="#595A59" font-family="'HiraKakuProN-W3-90ms-RKSJ-H'" font-size="9">9</text>
			
				<text transform="matrix(1.748455e-007 -1 1 1.748455e-007 335.7568 305.3196)" fill="#595A59" font-family="'HiraKakuProN-W3-90ms-RKSJ-H'" font-size="9">0</text>
		</g>
	</g>
	<g>
		<g>
			
				<text transform="matrix(1.748455e-007 -1 1 1.748455e-007 377.335 349.9778)" fill="#595A59" font-family="'HiraKakuProN-W3-90ms-RKSJ-H'" font-size="9">1</text>
			
				<text transform="matrix(1.748455e-007 -1 1 1.748455e-007 377.335 344.0911)" fill="#595A59" font-family="'HiraKakuProN-W3-90ms-RKSJ-H'" font-size="9">9</text>
			
				<text transform="matrix(1.748455e-007 -1 1 1.748455e-007 377.335 338.0969)" fill="#595A59" font-family="'HiraKakuProN-W3-90ms-RKSJ-H'" font-size="9">90</text>
			
				<text transform="matrix(1.748455e-007 -1 1 1.748455e-007 377.335 326.3254)" fill="#595A59" font-family="'HiraKakuProN-W3-90ms-RKSJ-H'" font-size="9">-</text>
			
				<text transform="matrix(1.748455e-007 -1 1 1.748455e-007 377.335 323.0852)" fill="#595A59" font-family="'HiraKakuProN-W3-90ms-RKSJ-H'" font-size="9">1</text>
			
				<text transform="matrix(1.748455e-007 -1 1 1.748455e-007 377.335 317.2004)" fill="#595A59" font-family="'HiraKakuProN-W3-90ms-RKSJ-H'" font-size="9">9</text>
			
				<text transform="matrix(1.748455e-007 -1 1 1.748455e-007 377.335 311.2063)" fill="#595A59" font-family="'HiraKakuProN-W3-90ms-RKSJ-H'" font-size="9">9</text>
			
				<text transform="matrix(1.748455e-007 -1 1 1.748455e-007 377.335 305.3196)" fill="#595A59" font-family="'HiraKakuProN-W3-90ms-RKSJ-H'" font-size="9">5</text>
		</g>
	</g>
	<g>
		<g>
			
				<text transform="matrix(1.748455e-007 -1 1 1.748455e-007 418.9209 349.9778)" fill="#595A59" font-family="'HiraKakuProN-W3-90ms-RKSJ-H'" font-size="9">1</text>
			
				<text transform="matrix(1.748455e-007 -1 1 1.748455e-007 418.9209 344.0911)" fill="#595A59" font-family="'HiraKakuProN-W3-90ms-RKSJ-H'" font-size="9">9</text>
			
				<text transform="matrix(1.748455e-007 -1 1 1.748455e-007 418.9209 338.0969)" fill="#595A59" font-family="'HiraKakuProN-W3-90ms-RKSJ-H'" font-size="9">95</text>
			
				<text transform="matrix(1.748455e-007 -1 1 1.748455e-007 418.9209 326.3254)" fill="#595A59" font-family="'HiraKakuProN-W3-90ms-RKSJ-H'" font-size="9">-</text>
			
				<text transform="matrix(1.748455e-007 -1 1 1.748455e-007 418.9209 323.0852)" fill="#595A59" font-family="'HiraKakuProN-W3-90ms-RKSJ-H'" font-size="9">2</text>
			
				<text transform="matrix(1.748455e-007 -1 1 1.748455e-007 418.9209 317.2004)" fill="#595A59" font-family="'HiraKakuProN-W3-90ms-RKSJ-H'" font-size="9">0</text>
			
				<text transform="matrix(1.748455e-007 -1 1 1.748455e-007 418.9209 311.2063)" fill="#595A59" font-family="'HiraKakuProN-W3-90ms-RKSJ-H'" font-size="9">0</text>
			
				<text transform="matrix(1.748455e-007 -1 1 1.748455e-007 418.9209 305.3196)" fill="#595A59" font-family="'HiraKakuProN-W3-90ms-RKSJ-H'" font-size="9">0</text>
		</g>
	</g>
	<g>
		<g>
			
				<text transform="matrix(1.748455e-007 -1 1 1.748455e-007 460.5146 349.9778)" fill="#595A59" font-family="'HiraKakuProN-W3-90ms-RKSJ-H'" font-size="9">2</text>
			
				<text transform="matrix(1.748455e-007 -1 1 1.748455e-007 460.5146 344.0911)" fill="#595A59" font-family="'HiraKakuProN-W3-90ms-RKSJ-H'" font-size="9">0</text>
			
				<text transform="matrix(1.748455e-007 -1 1 1.748455e-007 460.5146 338.0969)" fill="#595A59" font-family="'HiraKakuProN-W3-90ms-RKSJ-H'" font-size="9">00</text>
			
				<text transform="matrix(1.748455e-007 -1 1 1.748455e-007 460.5146 326.3254)" fill="#595A59" font-family="'HiraKakuProN-W3-90ms-RKSJ-H'" font-size="9">-</text>
			
				<text transform="matrix(1.748455e-007 -1 1 1.748455e-007 460.5146 323.0852)" fill="#595A59" font-family="'HiraKakuProN-W3-90ms-RKSJ-H'" font-size="9">2</text>
			
				<text transform="matrix(1.748455e-007 -1 1 1.748455e-007 460.5146 317.2004)" fill="#595A59" font-family="'HiraKakuProN-W3-90ms-RKSJ-H'" font-size="9">0</text>
			
				<text transform="matrix(1.748455e-007 -1 1 1.748455e-007 460.5146 311.2063)" fill="#595A59" font-family="'HiraKakuProN-W3-90ms-RKSJ-H'" font-size="9">0</text>
			
				<text transform="matrix(1.748455e-007 -1 1 1.748455e-007 460.5146 305.3196)" fill="#595A59" font-family="'HiraKakuProN-W3-90ms-RKSJ-H'" font-size="9">5</text>
		</g>
	</g>
	<g>
		<g>
			
				<text transform="matrix(1.748455e-007 -1 1 1.748455e-007 502.1006 349.9778)" fill="#595A59" font-family="'HiraKakuProN-W3-90ms-RKSJ-H'" font-size="9">2</text>
			
				<text transform="matrix(1.748455e-007 -1 1 1.748455e-007 502.1006 344.0911)" fill="#595A59" font-family="'HiraKakuProN-W3-90ms-RKSJ-H'" font-size="9">0</text>
			
				<text transform="matrix(1.748455e-007 -1 1 1.748455e-007 502.1006 338.0989)" fill="#595A59" font-family="'HiraKakuProN-W3-90ms-RKSJ-H'" font-size="9">05</text>
			
				<text transform="matrix(1.748455e-007 -1 1 1.748455e-007 502.1006 326.3254)" fill="#595A59" font-family="'HiraKakuProN-W3-90ms-RKSJ-H'" font-size="9">-</text>
			
				<text transform="matrix(1.748455e-007 -1 1 1.748455e-007 502.1006 323.0852)" fill="#595A59" font-family="'HiraKakuProN-W3-90ms-RKSJ-H'" font-size="9">2</text>
			
				<text transform="matrix(1.748455e-007 -1 1 1.748455e-007 502.1006 317.2004)" fill="#595A59" font-family="'HiraKakuProN-W3-90ms-RKSJ-H'" font-size="9">0</text>
			
				<text transform="matrix(1.748455e-007 -1 1 1.748455e-007 502.1006 311.2063)" fill="#595A59" font-family="'HiraKakuProN-W3-90ms-RKSJ-H'" font-size="9">1</text>
			
				<text transform="matrix(1.748455e-007 -1 1 1.748455e-007 502.1006 305.3196)" fill="#595A59" font-family="'HiraKakuProN-W3-90ms-RKSJ-H'" font-size="9">0</text>
		</g>
	</g>
	<g>
		<g>
			
				<text transform="matrix(1.748455e-007 -1 1 1.748455e-007 543.6787 349.9778)" fill="#595A59" font-family="'HiraKakuProN-W3-90ms-RKSJ-H'" font-size="9">2</text>
			
				<text transform="matrix(1.748455e-007 -1 1 1.748455e-007 543.6787 344.0911)" fill="#595A59" font-family="'HiraKakuProN-W3-90ms-RKSJ-H'" font-size="9">0</text>
			
				<text transform="matrix(1.748455e-007 -1 1 1.748455e-007 543.6787 338.0989)" fill="#595A59" font-family="'HiraKakuProN-W3-90ms-RKSJ-H'" font-size="9">10</text>
			
				<text transform="matrix(1.748455e-007 -1 1 1.748455e-007 543.6787 326.3254)" fill="#595A59" font-family="'HiraKakuProN-W3-90ms-RKSJ-H'" font-size="9">-</text>
			
				<text transform="matrix(1.748455e-007 -1 1 1.748455e-007 543.6787 323.0852)" fill="#595A59" font-family="'HiraKakuProN-W3-90ms-RKSJ-H'" font-size="9">2</text>
			
				<text transform="matrix(1.748455e-007 -1 1 1.748455e-007 543.6787 317.2004)" fill="#595A59" font-family="'HiraKakuProN-W3-90ms-RKSJ-H'" font-size="9">0</text>
			
				<text transform="matrix(1.748455e-007 -1 1 1.748455e-007 543.6787 311.2063)" fill="#595A59" font-family="'HiraKakuProN-W3-90ms-RKSJ-H'" font-size="9">1</text>
			
				<text transform="matrix(1.748455e-007 -1 1 1.748455e-007 543.6787 305.3196)" fill="#595A59" font-family="'HiraKakuProN-W3-90ms-RKSJ-H'" font-size="9">5</text>
		</g>
	</g>
	<g>
		<g>
			
				<text transform="matrix(1.748455e-007 -1 1 1.748455e-007 585.2646 349.9778)" fill="#595A59" font-family="'HiraKakuProN-W3-90ms-RKSJ-H'" font-size="9">2</text>
			
				<text transform="matrix(1.748455e-007 -1 1 1.748455e-007 585.2646 344.0911)" fill="#595A59" font-family="'HiraKakuProN-W3-90ms-RKSJ-H'" font-size="9">0</text>
			
				<text transform="matrix(1.748455e-007 -1 1 1.748455e-007 585.2646 338.0989)" fill="#595A59" font-family="'HiraKakuProN-W3-90ms-RKSJ-H'" font-size="9">15</text>
			
				<text transform="matrix(1.748455e-007 -1 1 1.748455e-007 585.2646 326.3254)" fill="#595A59" font-family="'HiraKakuProN-W3-90ms-RKSJ-H'" font-size="9">-</text>
			
				<text transform="matrix(1.748455e-007 -1 1 1.748455e-007 585.2646 323.0852)" fill="#595A59" font-family="'HiraKakuProN-W3-90ms-RKSJ-H'" font-size="9">2</text>
			
				<text transform="matrix(1.748455e-007 -1 1 1.748455e-007 585.2646 317.2004)" fill="#595A59" font-family="'HiraKakuProN-W3-90ms-RKSJ-H'" font-size="9">0</text>
			
				<text transform="matrix(1.748455e-007 -1 1 1.748455e-007 585.2646 311.2063)" fill="#595A59" font-family="'HiraKakuProN-W3-90ms-RKSJ-H'" font-size="9">2</text>
			
				<text transform="matrix(1.748455e-007 -1 1 1.748455e-007 585.2646 305.3196)" fill="#595A59" font-family="'HiraKakuProN-W3-90ms-RKSJ-H'" font-size="9">0</text>
		</g>
	</g>
	<g>
		<g>
			
				<text transform="matrix(1 0 0 1 1.4375 310.8743)" fill="#040000" font-family="'HiraKakuProN-W3-90ms-RKSJ-H'" font-size="9.96">(</text>
			
				<text transform="matrix(1 0 0 1 5.0327 310.8743)" fill="#040000" font-family="'HiraKakuProN-W3-90ms-RKSJ-H'" font-size="9.96">‰)</text>
		</g>
	</g>
	<g>
		
			<line fill="none" stroke="#E7211A" stroke-width="2" stroke-linecap="round" stroke-linejoin="round" stroke-miterlimit="10" x1="120.038" y1="369.351" x2="139.238" y2="369.351"/>
	</g>
	<g>
		<g>
			
				<text transform="matrix(1 0 0 1 141.2813 373.5461)" fill="#595A59" font-family="'HiraKakuProN-W3-90ms-RKSJ-H'" font-size="12">粗出生率</text>
		</g>
	</g>
	<g>
		
			<line fill="none" stroke="#306FAB" stroke-width="2" stroke-linecap="round" stroke-linejoin="round" stroke-miterlimit="10" x1="211.598" y1="369.351" x2="230.797" y2="369.351"/>
	</g>
	<g>
		<g>
			
				<text transform="matrix(1 0 0 1 232.8438 373.5461)" fill="#595A59" font-family="'HiraKakuProN-W3-90ms-RKSJ-H'" font-size="12">粗死亡率</text>
		</g>
	</g>
	<g>
		
			<line fill="none" stroke="#F4BB1B" stroke-width="2" stroke-linecap="round" stroke-linejoin="round" stroke-miterlimit="10" x1="303.158" y1="369.351" x2="322.357" y2="369.351"/>
	</g>
	<g>
		<g>
			
				<text transform="matrix(1 0 0 1 324.4063 373.5461)" fill="#595A59" font-family="'HiraKakuProN-W3-90ms-RKSJ-H'" font-size="12">乳児死亡率</text>
		</g>
	</g>
	<g>
		
			<line fill="none" stroke="#767171" stroke-width="2" stroke-linecap="round" stroke-linejoin="round" stroke-miterlimit="10" x1="406.718" y1="369.351" x2="425.918" y2="369.351"/>
	</g>
	<g>
		<g>
			
				<text transform="matrix(1 0 0 1 427.9609 373.5461)" fill="#595A59" font-family="'HiraKakuProN-W3-90ms-RKSJ-H'" font-size="12">合計特殊出生率</text>
		</g>
	</g>
</g>
<g>
	<g>
		<path fill="#070001" d="M558.133,0.108c0.378,0.612,0.792,1.063,1.485,1.629c0.766,0.632,1.611,1.136,2.467,1.478
			c-0.162,0.188-0.252,0.343-0.36,0.566c-0.898-0.44-1.81-1.034-2.539-1.655c-0.564-0.479-0.979-0.938-1.386-1.514
			c-0.604,0.847-1.099,1.359-1.891,1.973c-0.612,0.469-1.18,0.818-1.909,1.17c-0.099-0.207-0.171-0.307-0.378-0.513
			c0.928-0.414,1.702-0.909,2.449-1.566c0.639-0.55,0.988-0.953,1.386-1.565L558.133,0.108L558.133,0.108z M554.991,8.156
			c0.036-0.278,0.055-0.539,0.055-0.882V5.284c0-0.333-0.009-0.576-0.045-0.828c0.188,0.026,0.378,0.036,0.702,0.036h4.222
			c0.324,0,0.516-0.01,0.702-0.036c-0.035,0.242-0.045,0.479-0.045,0.828v1.989c0,0.352,0.021,0.621,0.055,0.882h-0.646v-0.52
			h-4.349v0.521L554.991,8.156L554.991,8.156z M555.639,7.104h4.351V5.042h-4.351V7.104z M555.703,2.846
			c0.162,0.026,0.378,0.035,0.711,0.035h2.791c0.351,0,0.567-0.009,0.756-0.035v0.611c-0.198-0.026-0.414-0.036-0.756-0.036h-2.8
			c-0.279,0-0.516,0.01-0.702,0.036V2.846z"/>
		<path fill="#070001" d="M562.874,1.675c0.243,0.036,0.459,0.055,0.783,0.055h2.17c0.352,0,0.576-0.019,0.783-0.055V2.27
			c-0.217-0.036-0.459-0.045-0.783-0.045h-2.179c-0.298,0-0.522,0.009-0.774,0.045V1.675z M563.298,0.45
			c0.216,0.035,0.404,0.045,0.729,0.045h1.468c0.314,0,0.495-0.01,0.711-0.045v0.566c-0.233-0.027-0.405-0.036-0.711-0.036h-1.468
			c-0.308,0-0.531,0.009-0.729,0.036V0.45z M563.307,2.944c0.188,0.026,0.333,0.035,0.648,0.035h1.604
			c0.307,0,0.439-0.009,0.64-0.035v0.55c-0.234-0.027-0.353-0.036-0.64-0.036h-1.604c-0.298,0-0.441,0.009-0.648,0.036V2.944z
			 M563.307,4.188c0.182,0.025,0.324,0.036,0.648,0.036h1.604c0.307,0,0.439-0.011,0.64-0.036v0.549
			c-0.216-0.026-0.333-0.035-0.64-0.035h-1.604c-0.307,0-0.441,0.009-0.648,0.035V4.188z M563.946,8.237h-0.604
			c0.036-0.261,0.056-0.521,0.056-0.863V6.177c0-0.298-0.011-0.505-0.047-0.738c0.198,0.026,0.344,0.036,0.631,0.036h1.646
			c0.262,0,0.434-0.01,0.612-0.027c-0.027,0.207-0.036,0.38-0.036,0.722v1.188c0,0.307,0.019,0.54,0.055,0.766h-0.604V7.771h-1.711
			L563.946,8.237L563.946,8.237z M563.938,7.292h1.729V5.96h-1.729V7.292z M568.429,1.145c0-0.423-0.018-0.676-0.063-0.999h0.711
			c-0.045,0.277-0.063,0.61-0.063,0.999v1.817h0.854c0.486,0,0.783-0.019,1.081-0.054v0.646c-0.334-0.035-0.631-0.055-1.081-0.055
			h-0.854V6.94c0,0.576,0.02,0.945,0.071,1.287h-0.72c0.045-0.359,0.063-0.647,0.063-1.287V3.502h-0.792
			c-0.396,0-0.729,0.02-1.033,0.055V2.908c0.277,0.035,0.585,0.054,1.033,0.054h0.792L568.429,1.145L568.429,1.145z"/>
		<path fill="#070001" d="M572.568,2.503c-0.101,0.531-0.188,0.828-0.396,1.358c-0.217-0.135-0.307-0.18-0.495-0.252
			c0.227-0.504,0.333-0.873,0.44-1.459c0.081-0.404,0.126-0.837,0.126-1.134c0-0.072,0-0.137-0.009-0.243l0.575,0.09
			c-0.019,0.108-0.019,0.136-0.035,0.288c-0.02,0.227-0.056,0.479-0.107,0.848h0.639V0.812c0-0.298-0.018-0.505-0.063-0.747h0.675
			c-0.045,0.232-0.063,0.439-0.063,0.747V2h0.197c0.344,0,0.567-0.02,0.783-0.056v0.604c-0.232-0.026-0.468-0.045-0.765-0.045
			h-0.218v1.772c0.368-0.171,0.521-0.242,0.944-0.468l0.01,0.54l-0.034,0.019c0.216,0.035,0.468,0.045,0.827,0.045h2.609V3.367
			H575.6c-0.404,0-0.666,0.019-0.919,0.054V2.81c0.243,0.036,0.506,0.055,0.919,0.055h1.271V1.665h-0.99
			c-0.333,0-0.621,0.02-0.854,0.046V1.116c0.225,0.035,0.484,0.054,0.854,0.054h0.99V0.803c0-0.271-0.02-0.506-0.055-0.729h0.655
			c-0.033,0.233-0.054,0.433-0.054,0.729V1.17h1.242c0.369,0,0.631-0.019,0.854-0.054v0.595c-0.241-0.026-0.521-0.046-0.854-0.046
			h-1.242v1.197h1.549c0.405,0,0.666-0.019,0.918-0.055V3.42c-0.242-0.036-0.54-0.054-0.892-0.054h-0.226V4.41H579
			c0.396,0,0.64-0.019,0.873-0.055V4.97c-0.262-0.036-0.521-0.056-0.873-0.056h-0.233v2.559c0,0.504-0.217,0.656-0.938,0.656
			c-0.252,0-0.576-0.02-0.918-0.035c-0.02-0.263-0.054-0.396-0.135-0.612c0.402,0.072,0.783,0.117,1.035,0.117
			c0.332,0,0.396-0.036,0.396-0.243V4.916h-2.646c-0.36,0-0.604,0.02-0.873,0.056V4.411c-0.36,0.197-0.405,0.227-0.839,0.434v2.483
			c0,0.333,0.02,0.641,0.063,0.944h-0.675c0.045-0.243,0.063-0.566,0.063-0.944V5.097c-0.09,0.035-0.09,0.035-0.333,0.135
			c-0.225,0.09-0.423,0.171-0.565,0.233c-0.056,0.019-0.056,0.019-0.227,0.091c-0.09,0.035-0.126,0.054-0.216,0.099l-0.198-0.63
			c0.369-0.063,0.812-0.207,1.539-0.504V2.503H572.568z M575.746,5.249c0.531,0.504,0.854,0.873,1.288,1.467l-0.479,0.353
			c-0.387-0.604-0.736-1.025-1.251-1.513L575.746,5.249z"/>
		<path fill="#070001" d="M581.982,3.891c0.388,0.306,0.646,0.54,0.872,0.792c0.218-0.631,0.314-1.1,0.414-1.928h-1.135
			c-0.288,0.899-0.604,1.504-1.105,2.144c-0.137-0.207-0.207-0.288-0.389-0.44c0.495-0.595,0.773-1.135,1.026-1.953
			c0.144-0.459,0.225-0.854,0.297-1.478h-0.307c-0.343,0-0.54,0.01-0.783,0.045V0.486c0.207,0.036,0.45,0.045,0.819,0.045h1.619
			c0.396,0,0.641-0.009,0.873-0.045v0.585c-0.226-0.026-0.495-0.045-0.802-0.045h-0.882c-0.063,0.486-0.117,0.773-0.234,1.251h0.855
			c0.358,0,0.585-0.009,0.747-0.035c-0.026,0.116-0.036,0.217-0.072,0.54c-0.116,1.116-0.414,2.18-0.854,3.063
			c-0.461,0.928-0.944,1.558-1.847,2.367c-0.106-0.182-0.226-0.308-0.414-0.46c0.981-0.811,1.494-1.478,1.962-2.521
			c-0.333-0.414-0.594-0.666-0.943-0.927L581.982,3.891z M586.087,0.9c-0.009-0.44-0.026-0.711-0.036-0.828h0.597
			c-0.021,0.198-0.021,0.198-0.036,0.828v0.812h1.089c0.388,0,0.64-0.02,0.838-0.056v0.596c-0.243-0.036-0.479-0.045-0.838-0.045
			h-1.089V3.7h1.402c0.343,0,0.604-0.019,0.848-0.055V4.24c-0.263-0.026-0.521-0.045-0.819-0.045h-1.35
			c0.288,0.531,0.549,0.893,0.972,1.352c0.531,0.576,0.909,0.899,1.558,1.332c-0.207,0.233-0.261,0.308-0.358,0.56
			c-0.495-0.404-0.945-0.838-1.287-1.232c-0.515-0.576-0.612-0.722-1.02-1.404c0.036,0.233,0.057,0.55,0.057,0.937v1.621
			c0,0.378,0.018,0.646,0.054,0.899h-0.63c0.036-0.227,0.054-0.566,0.054-0.908V5.744c0-0.396,0.02-0.667,0.055-0.919
			c-0.388,0.692-0.646,1.08-1.045,1.521c-0.484,0.54-0.837,0.854-1.459,1.306c-0.125-0.197-0.231-0.314-0.396-0.449
			c0.747-0.495,1.287-0.954,1.756-1.521c0.449-0.55,0.711-0.928,0.999-1.485h-1.171c-0.323,0-0.566,0.019-0.854,0.055V3.646
			c0.278,0.045,0.485,0.055,0.864,0.055h1.251V2.206h-1.07c-0.161,0.423-0.278,0.646-0.53,1.063
			c-0.126-0.126-0.216-0.171-0.45-0.271c0.414-0.63,0.64-1.188,0.792-1.973c0.045-0.233,0.055-0.342,0.063-0.53l0.566,0.116
			c-0.036,0.108-0.036,0.108-0.136,0.559c-0.035,0.188-0.081,0.344-0.135,0.541h0.898L586.087,0.9L586.087,0.9z"/>
		<path fill="#070001" d="M593.467,0.945c0-0.404-0.019-0.611-0.063-0.818h0.729c-0.045,0.252-0.063,0.44-0.063,0.818v2.277h2.368
			V1.521c0-0.252-0.011-0.45-0.036-0.657h0.675c-0.036,0.262-0.045,0.434-0.045,0.686V3.34c0,0.182,0.009,0.308,0.019,0.459
			c-0.181-0.009-0.388-0.019-0.559-0.019h-2.422v3.296h2.683V5.365c0-0.322-0.009-0.549-0.045-0.772h0.685
			c-0.034,0.233-0.045,0.45-0.045,0.802v2.034c0,0.323,0.02,0.521,0.056,0.757h-0.648v-0.54h-5.852v0.54h-0.647
			c0.035-0.227,0.054-0.469,0.054-0.757v-1.98c0-0.342-0.009-0.575-0.045-0.801h0.686c-0.036,0.226-0.045,0.423-0.045,0.767v1.665
			h2.564V3.781h-2.251c-0.161,0-0.368,0.01-0.559,0.019c0.01-0.171,0.019-0.306,0.019-0.459V1.559c0-0.227-0.019-0.44-0.045-0.692
			h0.676c-0.026,0.188-0.035,0.387-0.035,0.665v1.692h2.195V0.945H593.467z"/>
		<path fill="#070001" d="M600.522,2.53c-0.389,0.792-0.729,1.332-1.233,1.927c-0.18-0.181-0.288-0.262-0.513-0.378
			c0.72-0.773,1.231-1.646,1.609-2.765c0.137-0.387,0.189-0.594,0.198-0.848l0.675,0.182c-0.063,0.126-0.105,0.262-0.18,0.478
			c-0.027,0.081-0.135,0.379-0.324,0.874h1.893V1.044c0-0.358-0.02-0.621-0.063-0.954h0.729c-0.045,0.298-0.063,0.576-0.063,0.954
			v0.955h2.214c0.405,0,0.723-0.02,1.026-0.056v0.641c-0.333-0.036-0.621-0.055-1.019-0.055h-2.224v1.937h1.818
			c0.449,0,0.729-0.02,0.963-0.055v0.631c-0.261-0.036-0.54-0.056-0.963-0.056h-1.818v2.359h2.512c0.459,0,0.757-0.02,1.063-0.063
			V7.94c-0.342-0.045-0.611-0.063-1.053-0.063h-5.789c-0.434,0-0.738,0.02-1.063,0.063V7.283c0.315,0.045,0.604,0.063,1.055,0.063
			h2.675V4.987H601c-0.414,0-0.702,0.02-0.954,0.056V4.411c0.243,0.035,0.504,0.055,0.954,0.055h1.647V2.53H600.522z"/>
		<path fill="#070001" d="M612.016,7.526c0,0.297,0.02,0.531,0.063,0.783h-0.703c0.046-0.279,0.063-0.495,0.063-0.783V6.167h-2.729
			c-0.369,0-0.621,0.019-0.928,0.055v-0.64c0.226,0.036,0.576,0.063,0.898,0.063h2.756V5.491c0-0.242-0.01-0.404-0.035-0.576h0.646
			c-0.026,0.162-0.036,0.323-0.036,0.586v0.145h2.962c0.324,0,0.648-0.025,0.894-0.063v0.64c-0.263-0.036-0.561-0.055-0.938-0.055
			h-2.917v1.358L612.016,7.526L612.016,7.526z M607.848,4.528c0.693-0.207,1.404-0.594,2.106-1.151l0.225,0.45
			c-0.504,0.378-0.771,0.56-1.206,0.801c-0.18,0.101-0.252,0.137-0.478,0.253c-0.135,0.063-0.18,0.091-0.378,0.197L607.848,4.528z
			 M609.648,4.33c0.136,0.02,0.343,0.026,0.478,0.026c0.036,0,0.045,0,0.271-0.009c0.468-0.414,0.603-0.54,0.918-0.864
			c-0.405-0.469-0.774-0.802-1.353-1.216l0.354-0.359c0.195,0.152,0.27,0.206,0.414,0.323c0.241-0.288,0.438-0.585,0.603-0.918
			h-2.548c-0.351,0-0.63,0.019-0.891,0.045V0.738c0.261,0.036,0.529,0.055,0.937,0.055h2.655V0.604c0-0.227-0.02-0.405-0.054-0.604
			h0.675c-0.045,0.227-0.056,0.369-0.056,0.604v0.188h2.862c0.405,0,0.687-0.019,0.938-0.055v0.621
			c-0.263-0.026-0.54-0.045-0.893-0.045h-3.043c-0.253,0.468-0.46,0.767-0.847,1.226c0.271,0.252,0.378,0.358,0.576,0.585
			c0.433-0.479,0.62-0.722,1.009-1.297l0.432,0.314c-0.404,0.54-0.468,0.611-1.063,1.241l-0.101,0.101
			c-0.565,0.576-0.565,0.576-0.854,0.828c1.323-0.107,1.323-0.107,1.782-0.182c-0.188-0.241-0.288-0.352-0.566-0.63l0.396-0.216
			c0.55,0.559,0.766,0.827,1.27,1.559l-0.468,0.252c-0.162-0.288-0.217-0.379-0.36-0.596c-0.892,0.162-1.521,0.233-2.89,0.353
			c-0.228,0.019-0.36,0.026-0.479,0.054L609.648,4.33z M608.622,1.692c0.521,0.414,0.828,0.693,1.26,1.171l-0.414,0.379
			c-0.495-0.596-0.691-0.793-1.251-1.217L608.622,1.692z M615.194,1.999c-0.469,0.504-0.864,0.847-1.468,1.27l-0.38-0.369
			c0.612-0.396,0.975-0.72,1.424-1.241L615.194,1.999z M613.96,3.412c0.747,0.459,1.099,0.729,1.711,1.271l-0.388,0.449
			c-0.54-0.575-0.945-0.899-1.674-1.378L613.96,3.412z"/>
	</g>
</g>
</svg>
