<?xml version="1.0" encoding="utf-8"?>
<!-- Generator: Adobe Illustrator 16.0.0, SVG Export Plug-In . SVG Version: 6.00 Build 0)  -->
<!DOCTYPE svg PUBLIC "-//W3C//DTD SVG 1.1//EN" "http://www.w3.org/Graphics/SVG/1.1/DTD/svg11.dtd">
<svg version="1.1" xmlns="http://www.w3.org/2000/svg" xmlns:xlink="http://www.w3.org/1999/xlink" x="0px" y="0px"
	 width="264.797px" height="374.147px" viewBox="0 0 264.797 374.147" enable-background="new 0 0 264.797 374.147"
	 xml:space="preserve">
<g id="地図">
	<rect x="0.857" y="0.367" fill="#E4EEC3" width="263.94" height="373.415"/>
	<path fill="#A7D072" stroke="#FFFFFF" d="M83.635,33.232c3.151,0,7.786,1.669,7.786,7.787c0,3.508,5.933,3.421,5.933,10.012
		c0,2.038,37.447,8.527,39.859,6.117c2.41-2.411,5.998-15.996,9.826-15.016c3.824,0.979,13.44,3.059,16.869,6.489
		c3.43,3.428,2.41,7.23,8.992,8.991c6.582,1.76,6.766-9.733,11.586-9.733s10.383,17.984,8.527,22.062
		c-1.854,4.077-6.674,1.298-10.195,4.82c-1.322,1.321,5.896,0.745,6.674,4.264c1.811,8.201-8.412,9.64-6.674,18.725
		c0.738,3.861,17.426,12.05,20.207,12.05s7.973-5.004,10.938-3.522c2.967,1.482,2.873,10.475,5.746,13.348
		c2.874,2.873,7.27-4.597,11.496-3.337c9.02,2.688,0.184,21.319-3.432,24.934s-27.418,0.723-31.051,6.211
		c-3.771,5.697-7.23,9.459-4.636,15.388c2.597,5.927,3.769,15.117,10.428,18.584c12.375,6.442-3.195,5.515-4.587,11.91
		c-1.393,6.396,15.016,10.567,4.541,21.043c-9.699,9.699,4.719,33.23-4.079,48.385c-3.336,5.748,4.373,15.278,1.483,18.168
		c-3.139,3.14-18.354-7.045-23.544-1.854c-5.191,5.191-11.31,13.162-15.294,15.295c-3.986,2.132-11.029,0.462-16.221,3.059
		c-5.193,2.597-5.747,17.186-4.266,20.339c1.483,3.154-7.231-1.059-10.566-1.059c-3.337,0,0.928,8.899-1.668,11.494
		c-2.596,2.597-8.047-7.414-14.646-6.673c-7.184,0.805-7.791,8.542-15.758,6.117c-7.967-2.424-10.196-9.826-21.32-5.562
		c-11.123,4.265-11.812,12.182-17.055,10.011c-4.845-2.005-8.157-6.304-7.23-11.68c0.927-5.376,11.68-13.72,11.68-21.506
		c0-7.785-9.27-9.27-13.626-13.625c-1.804-1.804,3.096-5.801,0.092-9.177c-4.25-4.778-17.479-5.031-16.314-10.938
		c2.463-12.481,12.237-15.388,17.706-20.855c5.468-5.469,4.471-9.619,10.103-11.958c5.205-2.162-1.947-8.621,3.151-13.718
		c5.098-5.099,17.056,4.447,19.651,3.336s5.933-3.895,5.933-8.156c0-4.264,0-5.007-3.708-10.383
		c-3.708-5.375-8.897-0.928-11.493-2.039s-3.061-16.778-4.544-20.485c-1.483-3.707-4.541-13.072-2.688-17.148
		c1.854-4.078,3.798-2.298,6.72-8.657c2.92-6.359,2.18-33.612,0.326-38.061c-1.855-4.449-10.197-1.298-8.344-7.044
		s8.713-7.973,8.713-13.163c0-5.19-7.785-4.265-9.083-7.23c-1.299-2.966,9.083-19.838,9.083-22.989c0-3.15-4.449-4.82-2.596-8.342
		c1.854-3.521,12.422,1.297,9.456-6.489C79.556,43.985,80.484,33.232,83.635,33.232z"/>
	<linearGradient id="SVGID_1_" gradientUnits="userSpaceOnUse" x1="161.0415" y1="239.791" x2="161.0415" y2="226.834">
		<stop  offset="0" style="stop-color:#A8D174"/>
		<stop  offset="0.1196" style="stop-color:#A4CC71"/>
		<stop  offset="0.3739" style="stop-color:#9DC36C"/>
		<stop  offset="0.6527" style="stop-color:#98BD69"/>
		<stop  offset="1" style="stop-color:#96BB68"/>
	</linearGradient>
	<path fill="url(#SVGID_1_)" stroke="#A7D072" stroke-width="2" d="M175.695,239.791c0,0-8.31-12.957-14.653-12.957
		c-6.342,0-14.652,12.957-14.652,12.957"/>
	<linearGradient id="SVGID_2_" gradientUnits="userSpaceOnUse" x1="182.1431" y1="227.7334" x2="182.1431" y2="214.7754">
		<stop  offset="0" style="stop-color:#A8D174"/>
		<stop  offset="0.1196" style="stop-color:#A4CC71"/>
		<stop  offset="0.3739" style="stop-color:#9DC36C"/>
		<stop  offset="0.6527" style="stop-color:#98BD69"/>
		<stop  offset="1" style="stop-color:#96BB68"/>
	</linearGradient>
	<path fill="url(#SVGID_2_)" stroke="#A7D072" stroke-width="2" d="M196.795,227.733c0,0-8.308-12.958-14.652-12.958
		c-6.344,0-14.651,12.958-14.651,12.958"/>
	<linearGradient id="SVGID_3_" gradientUnits="userSpaceOnUse" x1="143.3452" y1="246.1406" x2="143.3452" y2="233.1836">
		<stop  offset="0" style="stop-color:#A8D174"/>
		<stop  offset="0.1196" style="stop-color:#A4CC71"/>
		<stop  offset="0.3739" style="stop-color:#9DC36C"/>
		<stop  offset="0.6527" style="stop-color:#98BD69"/>
		<stop  offset="1" style="stop-color:#96BB68"/>
	</linearGradient>
	<path fill="url(#SVGID_3_)" stroke="#A7D072" stroke-width="2" d="M157.997,246.141c0,0-8.307-12.957-14.65-12.957
		s-14.651,12.957-14.651,12.957"/>
	<linearGradient id="SVGID_4_" gradientUnits="userSpaceOnUse" x1="125.0771" y1="256.2344" x2="125.0771" y2="243.2754">
		<stop  offset="0" style="stop-color:#A8D174"/>
		<stop  offset="0.1196" style="stop-color:#A4CC71"/>
		<stop  offset="0.3739" style="stop-color:#9DC36C"/>
		<stop  offset="0.6527" style="stop-color:#98BD69"/>
		<stop  offset="1" style="stop-color:#96BB68"/>
	</linearGradient>
	<path fill="url(#SVGID_4_)" stroke="#A7D072" stroke-width="2" d="M139.729,256.234c0,0-8.308-12.959-14.652-12.959
		c-6.344,0-14.651,12.959-14.651,12.959"/>
	<linearGradient id="SVGID_5_" gradientUnits="userSpaceOnUse" x1="177.5806" y1="211.9063" x2="177.5806" y2="198.9492">
		<stop  offset="0" style="stop-color:#A8D174"/>
		<stop  offset="0.1196" style="stop-color:#A4CC71"/>
		<stop  offset="0.3739" style="stop-color:#9DC36C"/>
		<stop  offset="0.6527" style="stop-color:#98BD69"/>
		<stop  offset="1" style="stop-color:#96BB68"/>
	</linearGradient>
	<path fill="url(#SVGID_5_)" stroke="#A7D072" stroke-width="2" d="M192.233,211.906c0,0-8.308-12.957-14.651-12.957
		c-6.346,0-14.653,12.957-14.653,12.957"/>
	<linearGradient id="SVGID_6_" gradientUnits="userSpaceOnUse" x1="180.1646" y1="191.2363" x2="180.1646" y2="178.2788">
		<stop  offset="0" style="stop-color:#A8D174"/>
		<stop  offset="0.1196" style="stop-color:#A4CC71"/>
		<stop  offset="0.3739" style="stop-color:#9DC36C"/>
		<stop  offset="0.6527" style="stop-color:#98BD69"/>
		<stop  offset="1" style="stop-color:#96BB68"/>
	</linearGradient>
	<path fill="url(#SVGID_6_)" stroke="#A7D072" stroke-width="2" d="M194.815,191.236c0,0-8.307-12.958-14.65-12.958
		s-14.651,12.958-14.651,12.958"/>
	<linearGradient id="SVGID_7_" gradientUnits="userSpaceOnUse" x1="193.9878" y1="131.3428" x2="193.9878" y2="118.3857">
		<stop  offset="0" style="stop-color:#A8D174"/>
		<stop  offset="0.1196" style="stop-color:#A4CC71"/>
		<stop  offset="0.3739" style="stop-color:#9DC36C"/>
		<stop  offset="0.6527" style="stop-color:#98BD69"/>
		<stop  offset="1" style="stop-color:#96BB68"/>
	</linearGradient>
	<path fill="url(#SVGID_7_)" stroke="#A7D072" stroke-width="2" d="M208.639,131.343c0,0-8.307-12.957-14.65-12.957
		s-14.652,12.957-14.652,12.957"/>
	<linearGradient id="SVGID_8_" gradientUnits="userSpaceOnUse" x1="172.1392" y1="156.355" x2="172.1392" y2="143.3975">
		<stop  offset="0" style="stop-color:#A8D174"/>
		<stop  offset="0.1196" style="stop-color:#A4CC71"/>
		<stop  offset="0.3739" style="stop-color:#9DC36C"/>
		<stop  offset="0.6527" style="stop-color:#98BD69"/>
		<stop  offset="1" style="stop-color:#96BB68"/>
	</linearGradient>
	<path fill="url(#SVGID_8_)" stroke="#A7D072" stroke-width="2" d="M186.792,156.355c0,0-8.309-12.958-14.652-12.958
		s-14.652,12.958-14.652,12.958"/>
	<linearGradient id="SVGID_9_" gradientUnits="userSpaceOnUse" x1="165.0757" y1="214.9854" x2="165.0757" y2="202.0273">
		<stop  offset="0" style="stop-color:#A8D174"/>
		<stop  offset="0.1196" style="stop-color:#A4CC71"/>
		<stop  offset="0.3739" style="stop-color:#9DC36C"/>
		<stop  offset="0.6527" style="stop-color:#98BD69"/>
		<stop  offset="1" style="stop-color:#96BB68"/>
	</linearGradient>
	<path fill="url(#SVGID_9_)" stroke="#A7D072" stroke-width="2" d="M179.727,214.985c0,0-8.308-12.958-14.651-12.958
		s-14.651,12.958-14.651,12.958"/>
	<linearGradient id="SVGID_10_" gradientUnits="userSpaceOnUse" x1="140.0991" y1="224.459" x2="140.0991" y2="211.502">
		<stop  offset="0" style="stop-color:#A8D174"/>
		<stop  offset="0.1196" style="stop-color:#A4CC71"/>
		<stop  offset="0.3739" style="stop-color:#9DC36C"/>
		<stop  offset="0.6527" style="stop-color:#98BD69"/>
		<stop  offset="1" style="stop-color:#96BB68"/>
	</linearGradient>
	<path fill="url(#SVGID_10_)" stroke="#A7D072" stroke-width="2" d="M154.751,224.459c0,0-8.308-12.957-14.651-12.957
		s-14.652,12.957-14.652,12.957"/>
	<linearGradient id="SVGID_11_" gradientUnits="userSpaceOnUse" x1="106.9414" y1="196.4688" x2="106.9414" y2="183.5103">
		<stop  offset="0" style="stop-color:#A8D174"/>
		<stop  offset="0.1196" style="stop-color:#A4CC71"/>
		<stop  offset="0.3739" style="stop-color:#9DC36C"/>
		<stop  offset="0.6527" style="stop-color:#98BD69"/>
		<stop  offset="1" style="stop-color:#96BB68"/>
	</linearGradient>
	<path fill="url(#SVGID_11_)" stroke="#A7D072" stroke-width="2" d="M121.593,196.469c0,0-8.308-12.959-14.651-12.959
		c-6.345,0-14.652,12.959-14.652,12.959"/>
	<linearGradient id="SVGID_12_" gradientUnits="userSpaceOnUse" x1="112.1089" y1="206.8027" x2="112.1089" y2="193.8457">
		<stop  offset="0" style="stop-color:#A8D174"/>
		<stop  offset="0.1196" style="stop-color:#A4CC71"/>
		<stop  offset="0.3739" style="stop-color:#9DC36C"/>
		<stop  offset="0.6527" style="stop-color:#98BD69"/>
		<stop  offset="1" style="stop-color:#96BB68"/>
	</linearGradient>
	<path fill="url(#SVGID_12_)" stroke="#A7D072" stroke-width="2" d="M126.76,206.803c0,0-8.307-12.957-14.651-12.957
		s-14.651,12.957-14.651,12.957"/>
	<linearGradient id="SVGID_13_" gradientUnits="userSpaceOnUse" x1="161.6567" y1="251.2939" x2="161.6567" y2="238.3359">
		<stop  offset="0" style="stop-color:#A8D174"/>
		<stop  offset="0.1196" style="stop-color:#A4CC71"/>
		<stop  offset="0.3739" style="stop-color:#9DC36C"/>
		<stop  offset="0.6527" style="stop-color:#98BD69"/>
		<stop  offset="1" style="stop-color:#96BB68"/>
	</linearGradient>
	<path fill="url(#SVGID_13_)" stroke="#A7D072" stroke-width="2" d="M176.309,251.294c0,0-8.308-12.958-14.651-12.958
		c-6.345,0-14.652,12.958-14.652,12.958"/>
	<linearGradient id="SVGID_14_" gradientUnits="userSpaceOnUse" x1="176.7495" y1="257.791" x2="176.7495" y2="244.833">
		<stop  offset="0" style="stop-color:#A8D174"/>
		<stop  offset="0.1196" style="stop-color:#A4CC71"/>
		<stop  offset="0.3739" style="stop-color:#9DC36C"/>
		<stop  offset="0.6527" style="stop-color:#98BD69"/>
		<stop  offset="1" style="stop-color:#96BB68"/>
	</linearGradient>
	<path fill="url(#SVGID_14_)" stroke="#A7D072" stroke-width="2" d="M191.401,257.791c0,0-8.308-12.958-14.651-12.958
		s-14.651,12.958-14.651,12.958"/>
	<linearGradient id="SVGID_15_" gradientUnits="userSpaceOnUse" x1="80.3564" y1="257.168" x2="80.3564" y2="244.2109">
		<stop  offset="0" style="stop-color:#A8D174"/>
		<stop  offset="0.1196" style="stop-color:#A4CC71"/>
		<stop  offset="0.3739" style="stop-color:#9DC36C"/>
		<stop  offset="0.6527" style="stop-color:#98BD69"/>
		<stop  offset="1" style="stop-color:#96BB68"/>
	</linearGradient>
	<path fill="url(#SVGID_15_)" stroke="#A7D072" stroke-width="2" d="M95.008,257.168c0,0-8.309-12.957-14.652-12.957
		s-14.652,12.957-14.652,12.957"/>
	<linearGradient id="SVGID_16_" gradientUnits="userSpaceOnUse" x1="76.0122" y1="238.7715" x2="76.0122" y2="225.8135">
		<stop  offset="0" style="stop-color:#A8D174"/>
		<stop  offset="0.1196" style="stop-color:#A4CC71"/>
		<stop  offset="0.3739" style="stop-color:#9DC36C"/>
		<stop  offset="0.6527" style="stop-color:#98BD69"/>
		<stop  offset="1" style="stop-color:#96BB68"/>
	</linearGradient>
	<path fill="url(#SVGID_16_)" stroke="#A7D072" stroke-width="2" d="M90.664,238.771c0,0-8.308-12.958-14.651-12.958
		s-14.651,12.958-14.651,12.958"/>
	<linearGradient id="SVGID_17_" gradientUnits="userSpaceOnUse" x1="67.6523" y1="264.2734" x2="67.6523" y2="251.3164">
		<stop  offset="0" style="stop-color:#A8D174"/>
		<stop  offset="0.1196" style="stop-color:#A4CC71"/>
		<stop  offset="0.3739" style="stop-color:#9DC36C"/>
		<stop  offset="0.6527" style="stop-color:#98BD69"/>
		<stop  offset="1" style="stop-color:#96BB68"/>
	</linearGradient>
	<path fill="url(#SVGID_17_)" stroke="#A7D072" stroke-width="2" d="M82.304,264.273c0,0-8.308-12.957-14.652-12.957
		c-6.343,0-14.651,12.957-14.651,12.957"/>
	<linearGradient id="SVGID_18_" gradientUnits="userSpaceOnUse" x1="72.3086" y1="277.4551" x2="72.3086" y2="264.4971">
		<stop  offset="0" style="stop-color:#A8D174"/>
		<stop  offset="0.1196" style="stop-color:#A4CC71"/>
		<stop  offset="0.3739" style="stop-color:#9DC36C"/>
		<stop  offset="0.6527" style="stop-color:#98BD69"/>
		<stop  offset="1" style="stop-color:#96BB68"/>
	</linearGradient>
	<path fill="url(#SVGID_18_)" stroke="#A7D072" stroke-width="2" d="M86.959,277.455c0,0-8.308-12.958-14.65-12.958
		c-6.345,0-14.652,12.958-14.652,12.958"/>
	<linearGradient id="SVGID_19_" gradientUnits="userSpaceOnUse" x1="148.1108" y1="273.6543" x2="148.1108" y2="260.6973">
		<stop  offset="0" style="stop-color:#A8D174"/>
		<stop  offset="0.1196" style="stop-color:#A4CC71"/>
		<stop  offset="0.3739" style="stop-color:#9DC36C"/>
		<stop  offset="0.6527" style="stop-color:#98BD69"/>
		<stop  offset="1" style="stop-color:#96BB68"/>
	</linearGradient>
	<path fill="url(#SVGID_19_)" stroke="#A7D072" stroke-width="2" d="M162.762,273.654c0,0-8.308-12.957-14.651-12.957
		s-14.651,12.957-14.651,12.957"/>
	<linearGradient id="SVGID_20_" gradientUnits="userSpaceOnUse" x1="133.0386" y1="278.8223" x2="133.0386" y2="265.8652">
		<stop  offset="0" style="stop-color:#A8D174"/>
		<stop  offset="0.1196" style="stop-color:#A4CC71"/>
		<stop  offset="0.3739" style="stop-color:#9DC36C"/>
		<stop  offset="0.6527" style="stop-color:#98BD69"/>
		<stop  offset="1" style="stop-color:#96BB68"/>
	</linearGradient>
	<path fill="url(#SVGID_20_)" stroke="#A7D072" stroke-width="2" d="M147.691,278.822c0,0-8.308-12.957-14.651-12.957
		c-6.345,0-14.652,12.957-14.652,12.957"/>
	<linearGradient id="SVGID_21_" gradientUnits="userSpaceOnUse" x1="149.5034" y1="287.1973" x2="149.5034" y2="274.2402">
		<stop  offset="0" style="stop-color:#A8D174"/>
		<stop  offset="0.1196" style="stop-color:#A4CC71"/>
		<stop  offset="0.3739" style="stop-color:#9DC36C"/>
		<stop  offset="0.6527" style="stop-color:#98BD69"/>
		<stop  offset="1" style="stop-color:#96BB68"/>
	</linearGradient>
	<path fill="url(#SVGID_21_)" stroke="#A7D072" stroke-width="2" d="M164.155,287.197c0,0-8.308-12.957-14.651-12.957
		s-14.651,12.957-14.651,12.957"/>
	<linearGradient id="SVGID_22_" gradientUnits="userSpaceOnUse" x1="131.4873" y1="208.5254" x2="131.4873" y2="195.5684">
		<stop  offset="0" style="stop-color:#A8D174"/>
		<stop  offset="0.1196" style="stop-color:#A4CC71"/>
		<stop  offset="0.3739" style="stop-color:#9DC36C"/>
		<stop  offset="0.6527" style="stop-color:#98BD69"/>
		<stop  offset="1" style="stop-color:#96BB68"/>
	</linearGradient>
	<path fill="url(#SVGID_22_)" stroke="#A7D072" stroke-width="2" d="M146.139,208.525c0,0-8.309-12.957-14.652-12.957
		s-14.652,12.957-14.652,12.957"/>
	<linearGradient id="SVGID_23_" gradientUnits="userSpaceOnUse" x1="209.8774" y1="137.8384" x2="209.8774" y2="124.8809">
		<stop  offset="0" style="stop-color:#A8D174"/>
		<stop  offset="0.1196" style="stop-color:#A4CC71"/>
		<stop  offset="0.3739" style="stop-color:#9DC36C"/>
		<stop  offset="0.6527" style="stop-color:#98BD69"/>
		<stop  offset="1" style="stop-color:#96BB68"/>
	</linearGradient>
	<path fill="url(#SVGID_23_)" stroke="#A7D072" stroke-width="2" d="M224.53,137.838c0,0-8.307-12.958-14.652-12.958
		c-6.344,0-14.651,12.958-14.651,12.958"/>
	<path fill="none" stroke="#FFFFFF" d="M187.912,50.057c-1.333-3.333-8.333-14.333-7-19.333s-8.667-7.667-8.667-9.667
		s4.667-3.333,4.667-5s-3.667-14-7.667-15.333"/>
	<path fill="none" stroke="#FFFFFF" d="M81.245,35.058c1.667-2.667,3-10.667,6.667-13.667c7.876-6.444,4.333-18.333,7.667-21"/>
	<path fill="none" stroke="#FFFFFF" d="M68.912,163.391c-1.667,0.333-10,6-13,6s-7.666,2-8.333,3s-2.333,1.667-5,1
		s-14.046-3.542-15.713-1.876c-1.269,1.269,0.046,12.543-7.621,13.21c-7.667,0.666-8.333-0.334-19,5.666"/>
	<path fill="none" stroke="#FFFFFF" d="M162.912,293.058c0,0,3.333,7.667,4,11s2,9.332-1,10.666s-8,2.334-9,3.334
		s1.999,6,2.667,9.333c0.666,3.333,5.332,13,3,16c-2.334,3-3.334,4.666-10.334,2.333s-11.031-0.619-10.333,3.334
		c1,5.667,7.333,9.332,8,10.666s0.667,7.334-2,7.667s-5.333,4.666-2.667,6.333"/>
	<g>
		<path fill="none" stroke="#FFFFFF" stroke-width="3" stroke-linejoin="round" d="M94.47,121.902c0,2.518-1.549,5.229-1.549,5.229
			c-5.811,5.81-3.68,10.07-2.325,11.426c1.357,1.355,8.716,1.55,9.49,6.197c0.891,5.349-5.477,7.129-7.165,10.264
			c-1.355,2.517-3.018,3.637-3.89,6.833c-0.871,3.196-4.824,3.431-4.824,3.431s1.549,3.679-0.582,7.746
			c-2.131,4.066-13.263,6.354-13.263,6.354"/>
		<path fill="none" stroke="#000000" stroke-width="3" stroke-linejoin="round" stroke-dasharray="7,7" d="M94.432,121.918
			c0,2.517-1.549,5.229-1.549,5.229c-5.81,5.81-3.68,10.069-2.324,11.425c1.356,1.355,8.715,1.549,9.49,6.197
			c0.891,5.349-5.478,7.129-7.166,10.264c-1.355,2.518-3.018,3.638-3.889,6.833s-4.826,3.431-4.826,3.431s1.55,3.68-0.58,7.746
			c-2.131,4.067-13.264,6.354-13.264,6.354"/>
		<path fill="none" stroke="#FFFFFF" stroke-width="3" stroke-linecap="round" stroke-linejoin="round" d="M115.288,67.486
			c0,0,4.406,2.034,4.406,4.406s0.553,9.364,0.146,12.83c-0.321,2.719-1.551,10.845-1.551,11.619s1.742,9.683,2.712,10.65
			c0.968,0.969,3.098,9.877,4.066,10.845c0.968,0.969,0.329,3.777-3.194,5.132c-3.777,1.453-9.653,0.775-10.749,0.775
			s-12.394-1.065-13.362-1.065s-8.908-2.324-12.199-7.165c-3.293-4.842-3.293-7.359-3.293-11.813s0.582-9.102,0.582-9.102"/>
		<path fill="none" stroke="#000000" stroke-width="3" stroke-dasharray="7,7" d="M115.25,67.475c0,0,4.406,2.034,4.406,4.406
			c0,2.373,0.553,9.364,0.145,12.83c-0.32,2.72-1.549,10.844-1.549,11.619c0,0.775,1.742,9.683,2.711,10.651
			c0.968,0.968,3.098,9.876,4.066,10.845s0.329,3.776-3.195,5.132c-3.775,1.452-9.652,0.774-10.748,0.774
			c-1.095,0-12.393-1.065-13.361-1.065s-8.909-2.324-12.201-7.166c-3.291-4.841-3.291-7.359-3.291-11.813
			c0-4.454,0.581-8.773,0.581-8.773"/>
		<path fill="none" stroke="#FFFFFF" stroke-width="3" stroke-linejoin="round" d="M75.663,97.696c0,0,5.445-3.098,7.189-3.098
			c1.742,0,8.326-1.743,11.23-2.905c2.906-1.162,9.684-7.746,12.975-14.523c0,0,8.23-6.778,8.23-8.23c0,0,0,0.097,0-2.614
			c0-2.711-0.871-5.229-0.871-6.584c0-1.356,1.735-4.021,1.735-4.021"/>
		<path fill="none" stroke="#000000" stroke-width="3" stroke-dasharray="7,7" d="M75.674,97.686c0,0,5.445-3.099,7.188-3.099
			c1.744,0,8.328-1.743,11.232-2.905s9.683-7.746,12.975-14.523c0,0,8.23-6.778,8.23-8.23c0,0,0,0.097,0-2.614
			c0-2.711-0.871-5.229-0.871-6.584c0-1.356,1.736-4.021,1.736-4.021"/>
	</g>
</g>
<g id="イラスト_xFF0F_アイコン">
	<path fill="#FFFFFF" d="M237.796,338.367c0,2.448-1.985,4.434-4.435,4.434h-12.684c-2.451,0-4.438-1.985-4.438-4.434V220.434
		c0-2.449,1.986-4.435,4.438-4.435h12.684c2.449,0,4.435,1.985,4.435,4.435V338.367z"/>
	<path fill="none" stroke="#4FC1F0" stroke-width="3" stroke-linecap="round" stroke-linejoin="round" d="M99.079,327.142
		c0,0,2.156-3.868,6.232-5.976c4.075-2.108-6.07-7.339-6.07-8.767c0-1.427,6.658-5.071,10.779-3.012
		c3.687,1.843-0.477-6.499-0.477-7.609c0,0,2.3-0.477,2.3-2.299c0-1.823-3.845-2.378-3.845-5.666c0-3.29,2.18-8.522,2.18-11.375
		c0-2.854-8.37,1.712-4.756-1.903c2.935-2.934,2.857-6.116,1.348-5.627c-2.689,0.871-6.239-2.049-7.054-3.408
		c-0.952-1.586-4.281,3.17-6.024,1.427c-1.744-1.744-3.25-3.092-1.744-4.598s4.439-4.597,4.439-7.927
		c0-3.329,4.597-0.95,4.597-5.072s1.585-3.646,1.585-5.707c0-2.061-5.547-5.549-8.56-6.182c-3.013-0.635,4.2-6.66,4.2-7.848
		c0-1.189-7.688-5.945-7.688-10.385c0-4.438,4.755-4.438,4.755-4.438s3.964,1.586,6.5,1.586s3.646,6.657,6.023,6.657
		s1.109-3.17,4.122-3.805c3.012-0.633,3.487,2.695,4.756,1.427c1.268-1.268,2.854-4.438,4.597-6.182
		c1.744-1.743,1.902-8.72,6.024-9.354"/>
	<path fill="#CCDE68" d="M131.877,62.84c0,0-3.088,8.451-1.543,10.97c1.543,2.52,11.862,3.007,14.22,2.52
		c2.356-0.488,3.007-1.625,3.251-2.52c0.598-2.195-0.813-6.583-5.121-9.507C138.377,61.377,133.991,60.034,131.877,62.84z"/>
	<path fill="#FFFFFF" d="M147.538,189.161c0,1.225-0.993,2.218-2.217,2.218h-16.864c-1.226,0-2.218-0.993-2.218-2.218v-3.112
		c0-1.225,0.992-2.218,2.218-2.218h16.864c1.224,0,2.217,0.993,2.217,2.218V189.161z"/>
	<path fill="#FFFFFF" d="M110.577,313.338c0,1.226-0.993,2.218-2.218,2.218h-28.61c-1.225,0-2.218-0.992-2.218-2.218v-3.046
		c0-1.226,0.993-2.219,2.218-2.219h28.61c1.225,0,2.218,0.993,2.218,2.219V313.338z"/>
	<path fill="#FFFFFF" d="M88.143,81.783c0,1.225-0.992,2.218-2.218,2.218H69.062c-1.225,0-2.218-0.993-2.218-2.218v-3.782
		c0-1.225,0.993-2.217,2.218-2.217h16.863c1.226,0,2.218,0.993,2.218,2.217V81.783z"/>
	<path fill="#FFFFFF" d="M105.717,66.288c0,1.225-0.993,2.218-2.219,2.218H86.635c-1.225,0-2.218-0.993-2.218-2.218v-3.782
		c0-1.224,0.993-2.218,2.218-2.218h16.863c1.226,0,2.219,0.994,2.219,2.218V66.288z"/>
	<path fill="#FFFFFF" d="M152.233,57.815c0,1.225-0.993,2.218-2.217,2.218h-16.864c-1.226,0-2.218-0.993-2.218-2.218v-3.781
		c0-1.225,0.992-2.218,2.218-2.218h16.864c1.224,0,2.217,0.993,2.217,2.218V57.815z"/>
	<path fill="#FFFFFF" d="M154.245,84.79c0,1.225-0.993,2.218-2.219,2.218h-22.799c-1.226,0-2.218-0.993-2.218-2.218v-3.782
		c0-1.225,0.992-2.218,2.218-2.218h22.799c1.226,0,2.219,0.993,2.219,2.218V84.79z"/>
	<path fill="#FFFFFF" d="M175.94,72.386c0,1.225-0.995,2.218-2.219,2.218H150.92c-1.225,0-2.216-0.993-2.216-2.218v-3.783
		c0-1.225,0.991-2.218,2.216-2.218h22.801c1.224,0,2.219,0.993,2.219,2.218V72.386z"/>
	<g>
		<path fill="#D7AD48" d="M150.813,99.267c0.89-3.168,0.436-7.982,0.415-8.186c-0.104-1.068-1.054-1.85-2.122-1.747
			c-1.068,0.104-1.851,1.054-1.747,2.122c0.038,0.4,0.082,1.079,0.103,1.866c-0.271-0.269-0.476-0.448-0.555-0.514
			c-0.82-0.688-2.039-0.583-2.731,0.234c-0.691,0.817-0.59,2.042,0.224,2.737c0.615,0.525,2.112,2.161,2.153,3.713
			c-0.009,0.018-0.018,0.036-0.026,0.054c-0.251-0.583-0.544-1.053-0.821-1.383c-0.68-0.808-1.862-0.906-2.687-0.247
			c-0.823,0.659-0.956,1.875-0.317,2.714c0.05,0.067,1.192,1.632,0.092,4.42c-0.513,0.643-0.977,1.197-1.333,1.607
			c-0.357-0.412-0.822-0.967-1.336-1.611c-1.097-2.785,0.045-4.349,0.096-4.417c0.638-0.84,0.505-2.056-0.319-2.714
			c-0.823-0.658-2.007-0.56-2.686,0.248c-0.277,0.33-0.57,0.799-0.821,1.383c-0.009-0.018-0.019-0.036-0.027-0.054
			c0.039-1.552,1.537-3.188,2.152-3.713c0.813-0.695,0.915-1.92,0.224-2.737c-0.692-0.817-1.911-0.923-2.731-0.234
			c-0.079,0.066-0.284,0.245-0.554,0.513c0.021-0.787,0.063-1.465,0.102-1.865c0.103-1.068-0.68-2.018-1.748-2.121
			s-2.018,0.679-2.122,1.747c-0.02,0.204-0.472,5.017,0.417,8.185c0.694,2.471,3.006,5.712,4.72,7.884
			c0.034,0.052,0.075,0.097,0.114,0.145c0.896,1.127,1.611,1.947,1.805,2.166c0.704,0.794,1.911,0.873,2.715,0.187
			c0.804,0.687,2.011,0.608,2.715-0.187c0.195-0.22,0.921-1.051,1.826-2.193c0.029-0.036,0.06-0.069,0.086-0.108
			C147.801,104.988,150.119,101.741,150.813,99.267z"/>
		<path fill="#D38E3D" d="M154.334,105.544c-4.961-2.481-7.193,1.489-7.193,1.489s-3.231-1.437-5.705-1.446v-0.001
			c-0.008,0-0.018,0-0.025,0c-0.006,0-0.016,0-0.023,0v0.001c-2.475,0.009-5.609,1.446-5.609,1.446s-2.233-3.97-7.195-1.489
			c-4.96,2.48,5.955,3.474,5.955,3.474s0.543,11.716,6.945,13.736v0.017c0.008-0.002,0.016-0.006,0.023-0.008
			c0.008,0.002,0.016,0.006,0.025,0.008v-0.017c6.402-2.021,6.85-13.736,6.85-13.736S159.295,108.024,154.334,105.544z"/>
		<g>
			<path d="M136.254,113.908c-0.178,0.24-0.03,1.174,0.449,1.524c0.48,0.351,1.211,0.608,1.389,0.369
				c0.174-0.24,0.06-0.914-0.212-1.35C137.525,113.884,136.428,113.668,136.254,113.908z"/>
			<path d="M146.665,113.908c0.176,0.24,0.03,1.174-0.45,1.524c-0.479,0.351-1.212,0.608-1.388,0.369
				c-0.175-0.24-0.06-0.914,0.212-1.35C145.393,113.884,146.491,113.668,146.665,113.908z"/>
		</g>
		<ellipse cx="141.483" cy="122.388" rx="0.968" ry="0.571"/>
		<path d="M128.874,105.408c0,0-1.669,0.431-1.669,1.516c0,0.648,1.721,1.057,1.721,1.057S127.288,106.992,128.874,105.408z"/>
		<path d="M153.995,105.408c0,0,1.67,0.431,1.67,1.516c0,0.648-1.721,1.057-1.721,1.057S155.579,106.992,153.995,105.408z"/>
	</g>
	<g>
		<path fill="#F6DBE9" d="M153.331,175.621h23.617c0,0-6.695-13.878-11.809-13.878S153.331,175.621,153.331,175.621z"/>
		<path fill="#6CB92E" d="M135.786,179.838h32.727c0,0-9.278-19.231-16.362-19.231C145.064,160.607,135.786,179.838,135.786,179.838
			z"/>
		<g>
			<path fill="#F0B1CF" d="M141.455,160.747l-0.761,1.471v4.518c0,0,1.877-1.878,1.877-3.096S141.455,160.747,141.455,160.747z"/>
			<path fill="#F0B1CF" d="M138.815,163.64c0,1.218,1.879,3.096,1.879,3.096v-4.518l-0.762-1.471
				C139.932,160.747,138.815,162.421,138.815,163.64z"/>
			<path fill="#F0B1CF" d="M135.294,164.106l1.165,1.179l4.294,1.396c0,0-1.204-2.366-2.363-2.742
				C137.233,163.562,135.294,164.106,135.294,164.106z"/>
			<path fill="#F0B1CF" d="M137.23,167.51c1.159,0.376,3.523-0.829,3.523-0.829l-4.294-1.396l-1.636,0.269
				C134.824,165.554,136.071,167.134,137.23,167.51z"/>
			<path fill="#F0B1CF" d="M136.522,171.066l1.482-0.743l2.654-3.654c0,0-2.622,0.416-3.338,1.401
				C136.604,169.055,136.522,171.066,136.522,171.066z"/>
			<path fill="#F0B1CF" d="M140.36,170.277c0.716-0.986,0.301-3.608,0.301-3.608l-2.656,3.654l-0.248,1.639
				C137.756,171.961,139.644,171.263,140.36,170.277z"/>
			<path fill="#F0B1CF" d="M143.583,172.048l-0.249-1.639l-2.655-3.654c0,0-0.416,2.624,0.299,3.609
				C141.695,171.35,143.583,172.048,143.583,172.048z"/>
			<path fill="#F0B1CF" d="M144.017,168.157c-0.715-0.986-3.338-1.401-3.338-1.401l2.654,3.654l1.481,0.744
				C144.815,171.153,144.734,169.142,144.017,168.157z"/>
			<path fill="#F0B1CF" d="M146.559,165.603l-1.635-0.269l-4.295,1.396c0,0,2.366,1.206,3.525,0.829
				C145.312,167.182,146.559,165.603,146.559,165.603z"/>
			<path fill="#F0B1CF" d="M142.993,163.987c-1.159,0.376-2.363,2.743-2.363,2.743l4.295-1.396l1.164-1.18
				C146.088,164.154,144.151,163.611,142.993,163.987z"/>
		</g>
		<g>
			<path fill="#F0B1CF" d="M163.048,169.121l-0.763,1.471v4.518c0,0,1.879-1.878,1.879-3.096
				C164.165,170.795,163.048,169.121,163.048,169.121z"/>
			<path fill="#F0B1CF" d="M160.407,172.013c0,1.218,1.879,3.096,1.879,3.096v-4.518l-0.76-1.471
				C161.526,169.121,160.407,170.795,160.407,172.013z"/>
			<path fill="#F0B1CF" d="M156.887,172.48l1.166,1.179l4.296,1.396c0,0-1.208-2.367-2.366-2.743S156.887,172.48,156.887,172.48z"/>
			<path fill="#F0B1CF" d="M158.823,175.884c1.158,0.377,3.526-0.829,3.526-0.829l-4.296-1.396l-1.637,0.27
				C156.417,173.928,157.666,175.508,158.823,175.884z"/>
			<path fill="#F0B1CF" d="M158.118,179.44l1.48-0.743l2.654-3.655c0,0-2.621,0.417-3.338,1.401S158.118,179.44,158.118,179.44z"/>
			<path fill="#F0B1CF" d="M161.954,178.651c0.715-0.986,0.301-3.609,0.301-3.609l-2.656,3.655l-0.248,1.639
				C159.35,180.336,161.237,179.637,161.954,178.651z"/>
			<path fill="#F0B1CF" d="M165.175,180.422l-0.248-1.638l-2.655-3.655c0,0-0.416,2.624,0.3,3.609
				C163.289,179.724,165.175,180.422,165.175,180.422z"/>
			<path fill="#F0B1CF" d="M165.611,176.531c-0.717-0.986-3.339-1.401-3.339-1.401l2.655,3.655l1.479,0.743
				C166.407,179.527,166.327,177.516,165.611,176.531z"/>
			<path fill="#F0B1CF" d="M168.153,173.977l-1.635-0.27l-4.297,1.396c0,0,2.367,1.206,3.525,0.83
				C166.906,175.556,168.153,173.977,168.153,173.977z"/>
			<path fill="#F0B1CF" d="M164.584,172.36c-1.157,0.376-2.363,2.743-2.363,2.743l4.297-1.396l1.162-1.178
				C167.68,172.529,165.744,171.985,164.584,172.36z"/>
		</g>
	</g>
	<g>
		<path fill="#AAAEB3" d="M174.13,43.472c0,0,1.999-3.581,3.278,0.261c1.281,3.842-2.51,2.604-1.023,5.795
			c1.553,3.336-2,3.475-2,1.693"/>
		<path fill="#AAAEB3" d="M158.422,43.472c0,0-1.999-3.581-3.279,0.261c-1.281,3.842,2.51,2.604,1.024,5.795
			c-1.554,3.336,1.997,3.475,1.997,1.693"/>
		<path fill="#AAAEB3" d="M174.415,37.574c-0.891-2.11-3.999-5.679-8.199-5.679c-4.197,0-6.995,3.77-7.947,5.679
			c-0.954,1.909,0,14.037,0,14.037c0,1.219,0.996,2.218,2.217,2.218h11.711c1.221,0,2.219-0.999,2.219-2.218
			C174.415,51.61,175.305,39.684,174.415,37.574z"/>
		<circle fill="#AAAEB3" stroke="#7C8285" stroke-width="0.5" cx="157.998" cy="38.696" r="1.284"/>
		<circle fill="#AAAEB3" stroke="#7C8285" stroke-width="0.5" cx="157.998" cy="41.325" r="1.284"/>
		<circle fill="#AAAEB3" stroke="#7C8285" stroke-width="0.5" cx="158.836" cy="36.202" r="1.284"/>
		<circle fill="#AAAEB3" stroke="#7C8285" stroke-width="0.5" cx="160.662" cy="34.374" r="1.285"/>
		<circle fill="#AAAEB3" stroke="#7C8285" stroke-width="0.5" cx="162.55" cy="32.638" r="1.284"/>
		<circle fill="#AAAEB3" stroke="#7C8285" stroke-width="0.5" cx="165.052" cy="31.933" r="1.285"/>
		<circle fill="#AAAEB3" stroke="#7C8285" stroke-width="0.5" cx="167.617" cy="31.933" r="1.284"/>
		<circle fill="#AAAEB3" stroke="#7C8285" stroke-width="0.5" cx="166.318" cy="33.065" r="1.284"/>
		<circle fill="#AAAEB3" stroke="#7C8285" stroke-width="0.5" cx="170.053" cy="32.83" r="1.285"/>
		<circle fill="#AAAEB3" stroke="#7C8285" stroke-width="0.5" cx="172.168" cy="34.241" r="1.284"/>
		<circle fill="#AAAEB3" stroke="#7C8285" stroke-width="0.5" cx="174.014" cy="36.158" r="1.284"/>
		<circle fill="#AAAEB3" stroke="#7C8285" stroke-width="0.5" cx="174.655" cy="38.655" r="1.285"/>
		<circle fill="#AAAEB3" stroke="#7C8285" stroke-width="0.5" cx="174.655" cy="41.156" r="1.285"/>
		<circle fill="#AAAEB3" stroke="#7C8285" stroke-width="0.5" cx="168.755" cy="34.147" r="1.284"/>
		<circle fill="#AAAEB3" stroke="#7C8285" stroke-width="0.5" cx="170.935" cy="34.917" r="1.284"/>
		<circle fill="#AAAEB3" stroke="#7C8285" stroke-width="0.5" cx="163.882" cy="34.147" r="1.285"/>
		<circle fill="#AAAEB3" stroke="#7C8285" stroke-width="0.5" cx="161.701" cy="34.917" r="1.284"/>
		<circle fill="#AAAEB3" stroke="#7C8285" stroke-width="0.5" cx="172.602" cy="37.229" r="1.283"/>
		<circle fill="#AAAEB3" stroke="#7C8285" stroke-width="0.5" cx="159.97" cy="37.293" r="1.284"/>
		<circle fill="#AAAEB3" stroke="#7C8285" stroke-width="0.5" cx="161.701" cy="36.465" r="1.284"/>
		<circle fill="#AAAEB3" stroke="#7C8285" stroke-width="0.5" cx="170.935" cy="36.465" r="1.284"/>
		<circle fill="#AAAEB3" stroke="#7C8285" stroke-width="0.5" cx="166.318" cy="34.792" r="1.284"/>
		<circle fill="#AAAEB3" stroke="#7C8285" stroke-width="0.5" cx="168.755" cy="36.465" r="1.284"/>
		<circle fill="#AAAEB3" stroke="#7C8285" stroke-width="0.5" cx="163.882" cy="36.465" r="1.285"/>
		<circle fill="#AAAEB3" stroke="#7C8285" stroke-width="0.5" cx="166.318" cy="36.465" r="1.284"/>
		<circle fill="#AAAEB3" stroke="#7C8285" stroke-width="0.75" cx="166.318" cy="40.317" r="1.284"/>
		<path fill="none" stroke="#7C8285" stroke-linecap="round" stroke-linejoin="round" d="M159.555,42.962
			c0,0,0.658-1.938,2.597-1.938s3.028,1.118,3.028,1.938s-0.637,4.136-0.637,5.104c0,0.97,1.875,0.711,1.875,0.711"/>
		<path fill="none" stroke="#7C8285" stroke-linecap="round" stroke-linejoin="round" d="M173.272,42.962
			c0,0-0.659-1.938-2.598-1.938c-1.939,0-2.887,1.37-2.887,2.19c0,0.82,0.495,3.884,0.495,4.853c0,0.97-1.874,0.711-1.874,0.711"/>
		
			<line fill="none" stroke="#7C8285" stroke-width="2" stroke-linecap="round" stroke-linejoin="round" x1="159.875" y1="44.836" x2="163.752" y2="44.836"/>
		
			<line fill="none" stroke="#7C8285" stroke-width="2" stroke-linecap="round" stroke-linejoin="round" x1="168.987" y1="44.836" x2="172.864" y2="44.836"/>
		<path fill="#AAAEB3" stroke="#7C8285" stroke-width="0.75" d="M169.76,50.264c0,0.321-0.261,0.582-0.581,0.582h-5.622
			c-0.32,0-0.581-0.261-0.581-0.582l0,0c0-0.321,0.261-0.581,0.581-0.581h5.622C169.5,49.683,169.76,49.942,169.76,50.264
			L169.76,50.264z"/>
		<path fill="#AAAEB3" stroke="#7C8285" stroke-width="0.75" d="M169.76,51.428c0,0.321-0.261,0.581-0.581,0.581h-5.622
			c-0.32,0-0.581-0.26-0.581-0.581l0,0c0-0.322,0.261-0.582,0.581-0.582h5.622C169.5,50.846,169.76,51.106,169.76,51.428
			L169.76,51.428z"/>
		<path fill="#AAAEB3" stroke="#7C8285" stroke-width="0.75" d="M160.415,54.435c0,0.735,2.865,1.33-1.33,1.33h-3.347
			c-0.735,0-1.331-0.595-1.331-1.33V47.44c0-0.735,0.596-1.331,1.331-1.331h3.347c0.735,0,1.33,0.596,1.33,1.331V54.435z"/>
		<path fill="#AAAEB3" stroke="#7C8285" stroke-width="0.4463" d="M159.305,52.583"/>
		<path fill="#AAAEB3" stroke="#7C8285" stroke-width="0.4463" d="M159.305,54.394"/>
		<path fill="#AAAEB3" stroke="#7C8285" stroke-width="0.75" d="M159.411,52.623v-2.157c0-0.735,0.475-1.331,1.061-1.331h0.404
			c0.586,0,1.061,0.596,1.061,1.331v3.969c0,0.735-0.475,1.33-1.061,1.33h-0.404"/>
	</g>
	<g>
		<path fill="#D6EDF8" d="M81.674,290.165c0,0-9.998,5.713-4.807,7.293c5.191,1.581,13.747-0.729,16.439,1.459
			c2.691,2.188,12.867,1.154,11.824-3.158c-1.057-4.375-2.596-3.205-6.344-4.299C95.167,290.403,86.961,286.275,81.674,290.165z"/>
		<g>
			<circle fill="#F9D480" cx="97.156" cy="290.783" r="2.587"/>
			<polygon fill="#F9D480" points="94.79,295.557 97.156,291.46 99.522,295.557 			"/>
			<path fill="#FFFFFF" d="M99.394,287.793c0,0.451-0.373,0.819-0.829,0.819h-3.082c-0.456,0-0.828-0.368-0.828-0.819
				c0-0.449,0.372-0.818,0.828-0.818h3.082C99.021,286.975,99.394,287.344,99.394,287.793z"/>
		</g>
		<g>
			<path fill="none" stroke="#ED7E1B" stroke-width="0.8922" stroke-linecap="round" stroke-linejoin="round" d="M81.575,285.489
				c0,0-0.936,0.001-0.936-1.552c0-1.552,2.184-1.18,2.184-2.235c0-1.055-0.779-1.925-1.637-2.606"/>
			<path fill="none" stroke="#ED7E1B" stroke-width="0.8922" stroke-linecap="round" stroke-linejoin="round" d="M90.133,285.489
				c0,0-0.936,0.001-0.936-1.552c0-1.552,2.184-1.18,2.184-2.235c0-1.055-0.779-1.925-1.638-2.606"/>
			<path fill="none" stroke="#ED7E1B" stroke-width="0.8922" stroke-linecap="round" stroke-linejoin="round" d="M98.692,285.489
				c0,0-0.936,0.001-0.936-1.552c0-1.552,2.184-1.18,2.184-2.235c0-1.055-0.779-1.925-1.637-2.606"/>
		</g>
		<path fill="#C9CACA" d="M76.172,299.146c0,0,1.141,0.966,2.941,0.702c1.799-0.264,2.963-1.009,2.963-1.427
			c0-0.417,0.131-2.722-2.074-2.491c-2.207,0.23-2.199,0.856-3.304,1.328C75.594,297.73,76.172,299.146,76.172,299.146z"/>
		<path fill="#C9CACA" d="M82.583,299.105c0,0,1.01,0.878,1.712,0.438c0.702-0.438,1.495-0.718,0.702-1.229
			c-0.791-0.512-1.271-1.068-1.843-0.79s-1.091,0.19-1.091,0.799C82.063,298.93,82.583,299.105,82.583,299.105z"/>
		<path fill="#C9CACA" d="M87.145,299.813c0,0,2.92,1.169,2.92,0.584c0-0.584,0.365-0.656,0-1.605s-0.802-2.555-2.043-1.753
			c-1.242,0.804-1.826,0.22-1.826,1.606S87.145,299.813,87.145,299.813z"/>
	</g>
	<g>
		<polygon fill="none" stroke="#727171" stroke-width="1.0429" points="99.379,111.027 97.147,108.98 99.65,107.392 
			101.908,109.463 		"/>
		<circle fill="#727171" cx="98.378" cy="120.41" r="1.485"/>
		<circle fill="#727171" cx="101.935" cy="120.795" r="1.486"/>
		<circle fill="#727171" cx="112.543" cy="121.646" r="1.486"/>
		<circle fill="#727171" cx="116.098" cy="121.848" r="1.486"/>
		<path fill="#5CB531" d="M119.561,119.83c-0.072,1.064-0.994,1.869-2.059,1.796l-20.117-1.372
			c-1.063-0.072-1.867-0.994-1.795-2.059l0.365-5.35c0.072-1.064,0.994-1.869,2.059-1.796l20.115,1.372
			c1.065,0.072,1.869,0.994,1.797,2.059L119.561,119.83z"/>
		<g>
			<path fill="#D6EDF8" d="M100.076,115.554c-0.026,0.354-0.336,0.621-0.69,0.594l-1.687-0.126c-0.354-0.026-0.62-0.335-0.594-0.69
				l0.126-1.687c0.027-0.354,0.336-0.62,0.689-0.594l1.688,0.127c0.355,0.026,0.621,0.335,0.594,0.689L100.076,115.554z"/>
			<path fill="#D6EDF8" d="M103.717,115.828c-0.025,0.354-0.336,0.621-0.69,0.593l-1.687-0.126c-0.355-0.027-0.62-0.336-0.594-0.69
				l0.127-1.687c0.027-0.354,0.336-0.621,0.689-0.594l1.687,0.126c0.354,0.027,0.62,0.336,0.595,0.69L103.717,115.828z"/>
			<path fill="#D6EDF8" d="M107.359,116.101c-0.026,0.354-0.335,0.621-0.69,0.594l-1.686-0.126c-0.355-0.026-0.621-0.335-0.594-0.69
				l0.127-1.687c0.025-0.355,0.334-0.621,0.689-0.594l1.687,0.126c0.354,0.027,0.62,0.336,0.593,0.69L107.359,116.101z"/>
			<path fill="#D6EDF8" d="M111.001,116.374c-0.027,0.354-0.337,0.621-0.69,0.594l-1.687-0.126c-0.354-0.026-0.622-0.336-0.595-0.69
				l0.127-1.687c0.027-0.354,0.336-0.621,0.69-0.594l1.687,0.127c0.355,0.026,0.621,0.336,0.594,0.689L111.001,116.374z"/>
			<path fill="#D6EDF8" d="M114.643,116.647c-0.026,0.355-0.336,0.621-0.691,0.594l-1.686-0.127
				c-0.355-0.026-0.621-0.336-0.594-0.69l0.127-1.686c0.025-0.355,0.336-0.621,0.69-0.594l1.686,0.126
				c0.354,0.027,0.621,0.336,0.595,0.691L114.643,116.647z"/>
			<path fill="#D6EDF8" d="M118.284,116.921c-0.025,0.354-0.335,0.621-0.689,0.594l-1.686-0.126
				c-0.355-0.027-0.621-0.335-0.595-0.69l0.127-1.687c0.026-0.355,0.335-0.621,0.69-0.594l1.687,0.127
				c0.354,0.026,0.62,0.336,0.594,0.69L118.284,116.921z"/>
		</g>
	</g>
	
		<text transform="matrix(0.9979 0.0645 -0.0645 0.9979 113.0806 120.7305)" fill="#FFFFFF" font-family="'ShinGoPro-Ultra'" font-size="3.1048">JR</text>
	<circle fill="#CF6443" cx="86.528" cy="87.408" r="2.807"/>
	<circle fill="#CF6443" cx="103.777" cy="303.055" r="2.808"/>
	<circle fill="#CF6443" cx="99.735" cy="255.446" r="2.807"/>
	<circle fill="#CF6443" cx="130.021" cy="177.742" r="2.807"/>
	<circle fill="#CF6443" cx="103.347" cy="72.144" r="2.808"/>
	<circle fill="#CF6443" cx="137.447" cy="66.057" r="2.806"/>
	<circle fill="#CF6443" cx="143.868" cy="72.915" r="2.807"/>
	<circle fill="#CF6443" cx="120.354" cy="136.279" r="2.807"/>
	<polygon fill="#FFFFFF" points="79.495,83.33 86.527,87.408 83.477,83.394 	"/>
	<polygon fill="#FFFFFF" points="96.859,308.918 103.777,303.055 100.289,308.918 	"/>
	<polyline fill="#FFFFFF" points="129.483,183.895 130.021,177.742 132.146,184.23 129.556,184.23 	"/>
	<g>
		<path fill="#FDD100" d="M86.598,35.191c0,0-0.934-0.214-0.934-1.435s1.939-2.013,1.939-2.013s-1.687,1.617,0,3.304"/>
		<path fill="#FDD100" d="M105.057,35.191c0,0,0.935-0.214,0.935-1.435s-1.939-2.013-1.939-2.013s1.687,1.617,0,3.304"/>
		<rect x="85.206" y="47.085" fill="#FFFFFF" width="21.298" height="9.121"/>
		<polygon fill="#CC551D" points="85.267,47.61 81.841,51.037 109.868,51.037 106.442,47.61 		"/>
		<rect x="86.375" y="41.226" fill="#FFFFFF" width="18.958" height="5.511"/>
		<g>
			<path fill="#CC551D" stroke="#CC551D" stroke-width="0" stroke-linecap="square" stroke-linejoin="bevel" d="M109.725,42.107
				c0.006,0-0.143,0-0.477,0"/>
			<path fill="#CC551D" stroke="#CC551D" stroke-width="1.3121" stroke-linecap="square" stroke-linejoin="bevel" d="
				M105.141,35.628h-8.719h-1.137h-8.719c0,0-0.547,6.479-4.107,6.479c2.012,0,9.867,0,12.826,0c0,0,0.428,0,1.137,0
				c2.959,0,10.816,0,12.826,0C105.69,42.107,105.141,35.628,105.141,35.628z"/>
			<path fill="#CC551D" stroke="#CC551D" stroke-width="0" stroke-linecap="square" stroke-linejoin="bevel" d="M82.459,42.107
				c-0.332,0-0.48,0-0.477,0"/>
		</g>
		<g>
			<path fill="none" stroke="#A1A5AA" stroke-width="0" stroke-linecap="round" stroke-linejoin="round" d="M110.295,41.613
				c0.005,0-0.15,0-0.497,0"/>
			<path fill="#A1A5AA" d="M105.523,34.868h-9.077h-1.183h-9.078c0,0-0.569,6.745-4.274,6.745c2.092,0,10.271,0,13.353,0
				c0,0,0.445,0,1.183,0c3.08,0,11.26,0,13.353,0C106.093,41.613,105.523,34.868,105.523,34.868z"/>
			<path fill="none" stroke="#A1A5AA" stroke-width="0" stroke-linecap="round" stroke-linejoin="round" d="M81.911,41.613
				c-0.348,0-0.502,0-0.498,0"/>
		</g>
		<line fill="none" stroke="#A1A5AA" stroke-width="1.366" x1="85.286" y1="43.793" x2="106.423" y2="43.793"/>
		<rect x="89.997" y="53.292" fill="#6A7073" width="11.715" height="3.073"/>
		<g>
			<line fill="none" stroke="#CC551D" stroke-width="2.732" x1="101.711" y1="50.277" x2="101.711" y2="56.206"/>
			<line fill="none" stroke="#CC551D" stroke-width="2.732" x1="97.807" y1="50.277" x2="97.807" y2="56.206"/>
			<line fill="none" stroke="#CC551D" stroke-width="2.732" x1="93.901" y1="50.277" x2="93.901" y2="56.206"/>
			<line fill="none" stroke="#CC551D" stroke-width="2.732" x1="89.997" y1="50.277" x2="89.997" y2="56.206"/>
		</g>
		<line fill="none" stroke="#CC551D" stroke-width="1.366" x1="106.503" y1="51.037" x2="106.503" y2="56.206"/>
		<line fill="none" stroke="#CC551D" stroke-width="1.366" x1="85.206" y1="51.037" x2="85.206" y2="56.206"/>
		<rect x="81.827" y="56.206" fill="#D5D8DD" width="28.041" height="2.28"/>
		<path fill="#6A7073" d="M86.567,35.628"/>
		<rect x="102.541" y="52.502" fill="#729072" width="2.226" height="2.299"/>
		<rect x="86.883" y="52.502" fill="#729072" width="2.227" height="2.299"/>
		<g>
			<rect x="87.062" y="45.104" fill="#729072" stroke="#CC551D" stroke-width="0.3415" width="2.226" height="0.935"/>
			<rect x="90.157" y="45.104" fill="#729072" stroke="#CC551D" stroke-width="0.3415" width="2.228" height="0.935"/>
			<rect x="93.252" y="45.104" fill="#729072" stroke="#CC551D" stroke-width="0.3415" width="2.227" height="0.935"/>
			<rect x="96.348" y="45.104" fill="#729072" stroke="#CC551D" stroke-width="0.3415" width="2.227" height="0.935"/>
			<rect x="99.444" y="45.104" fill="#729072" stroke="#CC551D" stroke-width="0.3415" width="2.227" height="0.935"/>
			<rect x="102.54" y="45.104" fill="#729072" stroke="#CC551D" stroke-width="0.3415" width="2.227" height="0.935"/>
		</g>
		<line fill="none" stroke="#CC551D" stroke-width="1.4424" x1="85.286" y1="44.438" x2="106.423" y2="44.438"/>
		<line fill="none" stroke="#CC551D" stroke-width="0.683" x1="85.662" y1="46.039" x2="106.06" y2="46.039"/>
		<polygon fill="#A1A5AA" points="85.267,46.851 81.841,50.277 109.868,50.277 106.442,46.851 		"/>
	</g>
	<polygon fill="#FFFFFF" points="97.155,67.686 103.347,72.144 100.618,67.166 	"/>
	<g>
		
			<line fill="none" stroke="#FFFFFF" stroke-width="3" stroke-linecap="round" stroke-linejoin="round" x1="87.439" y1="251.129" x2="87.439" y2="242.553"/>
		
			<line fill="none" stroke="#FFFFFF" stroke-width="3" stroke-linecap="round" stroke-linejoin="round" x1="117.684" y1="242.553" x2="117.684" y2="251.129"/>
		
			<line fill="none" stroke="#FFFFFF" stroke-width="2" stroke-linecap="round" stroke-linejoin="round" x1="87.151" y1="251.254" x2="117.684" y2="251.254"/>
		<path fill="none" stroke="#FFFFFF" stroke-linecap="round" stroke-linejoin="round" d="M117.684,243.119
			c0,0-9.152,5.816-15.267,5.816s-14.979-5.699-14.979-5.699"/>
		<path fill="none" stroke="#FFFFFF" stroke-linecap="round" stroke-linejoin="round" d="M117.684,244.756
			c0,0-9.152,5.816-15.267,5.816s-14.979-5.699-14.979-5.699"/>
		
			<line fill="none" stroke="#FFFFFF" stroke-linecap="round" stroke-linejoin="round" x1="115.504" y1="244.625" x2="115.504" y2="251.129"/>
		
			<line fill="none" stroke="#FFFFFF" stroke-linecap="round" stroke-linejoin="round" x1="113.323" y1="245.705" x2="113.323" y2="251.129"/>
		
			<line fill="none" stroke="#FFFFFF" stroke-linecap="round" stroke-linejoin="round" x1="111.142" y1="246.624" x2="111.142" y2="251.129"/>
		
			<line fill="none" stroke="#FFFFFF" stroke-linecap="round" stroke-linejoin="round" x1="108.961" y1="247.451" x2="108.961" y2="251.129"/>
		
			<line fill="none" stroke="#FFFFFF" stroke-linecap="round" stroke-linejoin="round" x1="106.78" y1="248.119" x2="106.78" y2="251.129"/>
		
			<line fill="none" stroke="#FFFFFF" stroke-linecap="round" stroke-linejoin="round" x1="104.599" y1="248.715" x2="104.599" y2="251.129"/>
		
			<line fill="none" stroke="#FFFFFF" stroke-linecap="round" stroke-linejoin="round" x1="89.579" y1="244.625" x2="89.579" y2="251.129"/>
		
			<line fill="none" stroke="#FFFFFF" stroke-linecap="round" stroke-linejoin="round" x1="91.717" y1="245.705" x2="91.717" y2="251.129"/>
		
			<line fill="none" stroke="#FFFFFF" stroke-linecap="round" stroke-linejoin="round" x1="93.859" y1="246.624" x2="93.859" y2="251.129"/>
		
			<line fill="none" stroke="#FFFFFF" stroke-linecap="round" stroke-linejoin="round" x1="95.999" y1="247.451" x2="95.999" y2="251.129"/>
		
			<line fill="none" stroke="#FFFFFF" stroke-linecap="round" stroke-linejoin="round" x1="98.138" y1="248.119" x2="98.138" y2="251.129"/>
		
			<line fill="none" stroke="#FFFFFF" stroke-linecap="round" stroke-linejoin="round" x1="100.278" y1="248.715" x2="100.278" y2="251.129"/>
		
			<line fill="none" stroke="#FFFFFF" stroke-linecap="round" stroke-linejoin="round" x1="102.417" y1="248.936" x2="102.417" y2="250.572"/>
	</g>
	<path fill="#FFFFFF" d="M130.409,266.557c0,1.226-0.992,2.219-2.217,2.219H99.583c-1.227,0-2.219-0.993-2.219-2.219v-3.046
		c0-1.225,0.992-2.218,2.219-2.218h28.609c1.225,0,2.217,0.993,2.217,2.218V266.557z"/>
	<path fill="#FFFFFF" d="M149.815,147.362c0,1.225-0.995,2.218-2.221,2.218h-28.609c-1.225,0-2.218-0.993-2.218-2.218v-3.047
		c0-1.225,0.993-2.218,2.218-2.218h28.609c1.226,0,2.221,0.993,2.221,2.218V147.362z"/>
	<polyline fill="#FFFFFF" points="99.735,262.059 99.735,255.446 102.116,261.726 	"/>
	<g>
		<ellipse fill="#D6D6C1" cx="119.041" cy="159.77" rx="16.726" ry="2.877"/>
		<path fill="#AAAEB3" stroke="#7C8285" stroke-width="0.5091" d="M124.694,153.371c-1.196-0.292-1.367,2.918-0.49,4.47
			c0.875,1.553,3.138,2.211,3.939,1.979c1.758-0.507,1.388-2.02,2.737-2.903c1.35-0.882,0.433-2.509-0.069-3.396
			c-0.501-0.887-1.232-2.181-2.475-1.367C127.092,152.967,125.146,153.481,124.694,153.371z"/>
		<path fill="#AAAEB3" stroke="#7C8285" stroke-width="0.5197" d="M106.729,152.966c0,0-4.33,2.285,0,4.113
			c4.328,1.828,10.102,1.599,12.201,1.599s6.626-1.314,5.117-2.627c-1.508-1.314-4.986-2.285-6.823-2.285
			S107.909,152.966,106.729,152.966z"/>
		<path fill="#AAAEB3" stroke="#7C8285" stroke-width="0.4915" d="M104.92,156.949c0,0-1.768,1.25-0.471,2.502
			c1.296,1.251,2.592,1.934,3.299,1.251c0.708-0.683,3.184-1.479,0.708-2.275C105.982,157.631,105.982,156.949,104.92,156.949z"/>
		<path fill="#AAAEB3" stroke="#7C8285" stroke-width="0.5896" d="M109.514,157.865c0,0-1.666,1.944-0.832,2.777
			c0.832,0.834,2.499,1.528,3.193,0.834c0.695-0.694,0.695-2.5,0.695-2.5S111.459,157.865,109.514,157.865z"/>
		<path fill="#AAAEB3" stroke="#7C8285" stroke-width="0.5896" d="M113.126,158.699c0,0-2.224,2.222,0,2.222c2.222,0,3.61,0,5.694,0
			c2.083,0,6.111,0.417,4.584-1.111c-1.529-1.528-4.033-1.724-4.587-1.695C118.265,158.143,113.821,158.699,113.126,158.699z"/>
		<path fill="#AAAEB3" stroke="#7C8285" stroke-width="0.5896" d="M129.715,157.39c0,0-1.39,0.694-1.39,1.389
			c0,0.694,1.806,2.222,3.056,2.222s1.805-1.11,1.805-2.639c0-1.528-0.694-1.528-1.805-1.528
			C130.27,156.833,129.715,157.39,129.715,157.39z"/>
		<path fill="#AAAEB3" stroke="#7C8285" stroke-width="0.5896" d="M125.542,158.033c-1.43,0.536-1.39,0.447-1.836,1.43
			c-0.448,0.983,2.34,2.683,4.031,2.049c1.69-0.633,2.584-0.82,2.22-1.796c-0.366-0.975-0.054-0.833-1.126-1.321
			C127.758,157.908,125.542,158.033,125.542,158.033z"/>
	</g>
	<polygon fill="#FFFFFF" points="121.165,142.968 120.354,136.279 124.412,142.736 	"/>
	<polyline fill="#FFFFFF" points="137.958,59.079 137.448,66.057 140.655,59.362 	"/>
	<polyline fill="#FFFFFF" points="133.698,79.666 136.821,73.276 136.821,79.666 	"/>
	<polyline fill="#FFFFFF" points="149.333,69.503 143.868,72.915 149.612,72.386 	"/>
	<g>
		<rect x="163.614" y="93.766" fill="#AAAEB3" width="29.73" height="2.914"/>
		<rect x="163.614" y="92.914" fill="#CC551D" width="29.73" height="0.852"/>
		<rect x="163.614" y="89.439" fill="#484F4F" width="29.73" height="3.475"/>
		<g>
			<rect x="170.027" y="84.957" fill="#FFFFFF" width="16.784" height="11.718"/>
			<polygon fill="#CC551D" points="166.508,83.63 168.012,84.957 189.484,84.957 190.493,84.066 			"/>
			<g>
				<path fill="none" stroke="#484F4F" stroke-width="0" stroke-linecap="round" stroke-linejoin="round" d="M164.569,84.066
					c-0.027,0-0.043,0-0.039,0"/>
				<path fill="none" stroke="#484F4F" stroke-width="0" stroke-linecap="round" stroke-linejoin="round" d="M192.471,84.066
					c0.004,0-0.012,0-0.039,0"/>
				<path fill="#484F4F" d="M187.725,77.683l0.361-0.32h-9.576h-0.02h-9.576l0.361,0.32c0,0,1.449,3.032,0,4.309
					c-1.448,1.277-3.802,2.075-4.707,2.075c0.748,0,13.51,0,13.922,0c0.006,0,0.02,0,0.02,0c0.412,0,13.174,0,13.922,0
					c-0.905,0-3.259-0.798-4.707-2.075C186.276,80.714,187.725,77.683,187.725,77.683z"/>
			</g>
			<polygon fill="#CC551D" points="167.969,89.013 188.792,89.013 186.891,90.688 170.108,90.688 			"/>
			<line fill="none" stroke="#CC551D" stroke-width="0.9067" x1="167.969" y1="87.577" x2="188.792" y2="87.577"/>
			<line fill="none" stroke="#CC551D" stroke-width="0.9067" x1="168.641" y1="87.577" x2="168.641" y2="89.013"/>
			<line fill="none" stroke="#CC551D" stroke-width="0.9067" x1="171.418" y1="87.577" x2="171.418" y2="89.013"/>
			<line fill="none" stroke="#CC551D" stroke-width="0.9067" x1="174.197" y1="87.577" x2="174.197" y2="89.013"/>
			<line fill="none" stroke="#CC551D" stroke-width="0.9067" x1="176.975" y1="87.577" x2="176.975" y2="89.013"/>
			<line fill="none" stroke="#CC551D" stroke-width="0.9067" x1="179.754" y1="87.577" x2="179.754" y2="89.013"/>
			<line fill="none" stroke="#CC551D" stroke-width="0.9067" x1="182.532" y1="87.577" x2="182.532" y2="89.013"/>
			<line fill="none" stroke="#CC551D" stroke-width="0.9067" x1="185.31" y1="87.577" x2="185.31" y2="89.013"/>
			<line fill="none" stroke="#CC551D" stroke-width="0.9067" x1="188.088" y1="87.577" x2="188.088" y2="89.013"/>
			<line fill="none" stroke="#CC551D" stroke-width="1.2361" x1="170.108" y1="85.851" x2="186.891" y2="85.851"/>
			<line fill="none" stroke="#CC551D" stroke-width="1.2361" x1="170.108" y1="91.643" x2="186.891" y2="91.643"/>
			<line fill="none" stroke="#CC551D" stroke-width="2.4179" x1="170.512" y1="90.688" x2="170.512" y2="96.674"/>
			<line fill="none" stroke="#CC551D" stroke-width="2.4179" x1="186.407" y1="90.688" x2="186.407" y2="96.674"/>
			<rect x="175.971" y="93.265" fill="#AAAEB3" width="5.576" height="3.41"/>
			<line fill="none" stroke="#CC551D" stroke-width="2.4179" x1="175.835" y1="92.779" x2="181.083" y2="92.779"/>
			<line fill="none" stroke="#CC551D" stroke-width="2.4179" x1="181.547" y1="90.688" x2="181.547" y2="96.674"/>
			<line fill="none" stroke="#CC551D" stroke-width="2.4179" x1="175.373" y1="90.688" x2="175.373" y2="96.674"/>
			<line fill="none" stroke="#CC551D" stroke-width="1.2361" x1="178.5" y1="92.779" x2="178.5" y2="84.422"/>
			<line fill="none" stroke="#CC551D" stroke-width="1.2361" x1="183.92" y1="91.643" x2="183.92" y2="84.422"/>
			<line fill="none" stroke="#CC551D" stroke-width="1.2361" x1="172.928" y1="91.643" x2="172.928" y2="84.422"/>
		</g>
		<line fill="none" stroke="#CC551D" stroke-width="2.4179" x1="166.672" y1="93.766" x2="166.672" y2="96.68"/>
		<line fill="none" stroke="#CC551D" stroke-width="2.4179" x1="190.178" y1="93.766" x2="190.178" y2="96.68"/>
		<rect x="163.614" y="96.68" fill="#D5D8DD" width="29.73" height="1.173"/>
	</g>
	<g>
		<path fill="#D4AFD2" stroke="#FFFFFF" stroke-width="0.25" d="M187.745,81.377C190.021,83.652,185.469,83.652,187.745,81.377
			C185.469,83.652,185.469,79.101,187.745,81.377C185.469,79.101,190.021,79.101,187.745,81.377
			C190.021,79.101,190.021,83.652,187.745,81.377z"/>
		<path fill="#D5D7EC" stroke="#FFFFFF" stroke-width="0.25" d="M188.442,74.562C190.719,76.838,186.166,76.838,188.442,74.562
			C186.166,76.838,186.166,72.286,188.442,74.562C186.166,72.286,190.719,72.286,188.442,74.562
			C190.719,72.286,190.719,76.838,188.442,74.562z"/>
		<path fill="#D5D7EC" stroke="#FFFFFF" stroke-width="0.25" d="M190.539,76.66C192.815,78.936,188.263,78.936,190.539,76.66
			C188.263,78.936,188.263,74.383,190.539,76.66C188.263,74.383,192.815,74.383,190.539,76.66
			C192.815,74.383,192.815,78.936,190.539,76.66z"/>
		<path fill="#D4AFD2" stroke="#FFFFFF" stroke-width="0.25" d="M187.528,77.413C189.805,79.689,185.25,79.689,187.528,77.413
			C185.25,79.689,185.25,75.136,187.528,77.413C185.25,75.136,189.805,75.136,187.528,77.413
			C189.805,75.136,189.805,79.689,187.528,77.413z"/>
		<path fill="#D5D7EC" stroke="#FFFFFF" stroke-width="0.25" d="M189.383,79.267C191.658,81.543,187.106,81.543,189.383,79.267
			C187.106,81.543,187.106,76.99,189.383,79.267C187.106,76.99,191.658,76.99,189.383,79.267
			C191.658,76.99,191.658,81.543,189.383,79.267z"/>
		<path fill="#D4AFD2" stroke="#FFFFFF" stroke-width="0.25" d="M190.428,81.338C192.704,83.614,188.151,83.614,190.428,81.338
			C188.151,83.614,188.151,79.061,190.428,81.338C188.151,79.061,192.704,79.061,190.428,81.338
			C192.704,79.061,192.704,83.614,190.428,81.338z"/>
		<path fill="#D4AFD2" stroke="#FFFFFF" stroke-width="0.25" d="M191.721,77.681C193.997,79.957,189.444,79.957,191.721,77.681
			C189.444,79.957,189.444,75.405,191.721,77.681C189.444,75.405,193.997,75.405,191.721,77.681
			C193.997,75.405,193.997,79.957,191.721,77.681z"/>
		<path fill="#D4AFD2" stroke="#FFFFFF" stroke-width="0.25" d="M191.536,83.76C193.813,86.036,189.26,86.036,191.536,83.76
			C189.26,86.036,189.26,81.483,191.536,83.76C189.26,81.483,193.813,81.483,191.536,83.76
			C193.813,81.483,193.813,86.036,191.536,83.76z"/>
		<path fill="#D5D7EC" stroke="#FFFFFF" stroke-width="0.25" d="M188.503,82.653C190.78,84.93,186.229,84.93,188.503,82.653
			C186.229,84.93,186.229,80.377,188.503,82.653C186.229,80.377,190.78,80.377,188.503,82.653
			C190.78,80.377,190.78,84.93,188.503,82.653z"/>
		<path fill="#D5D7EC" stroke="#FFFFFF" stroke-width="0.25" d="M191.344,82.572C193.621,84.849,189.067,84.849,191.344,82.572
			C189.067,84.849,189.067,80.297,191.344,82.572C189.067,80.297,193.621,80.297,191.344,82.572
			C193.621,80.297,193.621,84.849,191.344,82.572z"/>
		<path fill="#D5D7EC" stroke="#FFFFFF" stroke-width="0.25" d="M193.477,73.667C195.753,75.943,191.2,75.943,193.477,73.667
			C191.2,75.943,191.2,71.39,193.477,73.667C191.2,71.39,195.753,71.39,193.477,73.667C195.753,71.39,195.753,75.943,193.477,73.667
			z"/>
		<path fill="#D5D7EC" stroke="#FFFFFF" stroke-width="0.25" d="M192.975,76.051C195.251,78.327,190.698,78.327,192.975,76.051
			C190.698,78.327,190.698,73.774,192.975,76.051C190.698,73.774,195.251,73.774,192.975,76.051
			C195.251,73.774,195.251,78.327,192.975,76.051z"/>
		<path fill="#D5D7EC" stroke="#FFFFFF" stroke-width="0.25" d="M191.092,87.022C193.37,89.298,188.817,89.298,191.092,87.022
			C188.817,89.298,188.817,84.746,191.092,87.022C188.817,84.746,193.37,84.746,191.092,87.022
			C193.37,84.746,193.37,89.298,191.092,87.022z"/>
		<path fill="#D5D7EC" stroke="#FFFFFF" stroke-width="0.25" d="M191.092,90.986C193.37,93.264,188.817,93.264,191.092,90.986
			C188.817,93.264,188.817,88.71,191.092,90.986C188.817,88.71,193.37,88.71,191.092,90.986
			C193.37,88.71,193.37,93.264,191.092,90.986z"/>
		<path fill="#D4AFD2" stroke="#FFFFFF" stroke-width="0.25" d="M189.443,85.356C191.719,87.632,187.168,87.632,189.443,85.356
			C187.168,87.632,187.168,83.08,189.443,85.356C187.168,83.08,191.719,83.08,189.443,85.356
			C191.719,83.08,191.719,87.632,189.443,85.356z"/>
		<path fill="#D4AFD2" stroke="#FFFFFF" stroke-width="0.25" d="M192.85,79.437C195.126,81.713,190.573,81.713,192.85,79.437
			C190.573,81.713,190.573,77.16,192.85,79.437C190.573,77.16,195.126,77.16,192.85,79.437
			C195.126,77.16,195.126,81.713,192.85,79.437z"/>
		<path fill="#D4AFD2" stroke="#FFFFFF" stroke-width="0.25" d="M190.598,74.119C192.875,76.395,188.323,76.395,190.598,74.119
			C188.323,76.395,188.323,71.842,190.598,74.119C188.323,71.842,192.875,71.842,190.598,74.119
			C192.875,71.842,192.875,76.395,190.598,74.119z"/>
		<path fill="#D4AFD2" stroke="#FFFFFF" stroke-width="0.25" d="M190.088,88.594C192.366,90.87,187.813,90.87,190.088,88.594
			C187.813,90.87,187.813,86.318,190.088,88.594C187.813,86.318,192.366,86.318,190.088,88.594
			C192.366,86.318,192.366,90.87,190.088,88.594z"/>
	</g>
	<g>
		<polygon fill="#AD844C" points="71.678,51.478 71.675,51.478 65.191,51.478 67.235,52.754 71.675,52.754 71.676,52.754 
			76.116,52.754 78.162,51.478 		"/>
		<rect x="67.165" y="52.754" fill="#FFFFFF" width="9.023" height="2.482"/>
		<rect x="67.165" y="57.125" fill="#FFFFFF" width="9.023" height="2.482"/>
		<rect x="67.165" y="61.496" fill="#FFFFFF" width="9.023" height="2.482"/>
		<rect x="67.165" y="65.994" fill="#FFFFFF" width="9.023" height="2.482"/>
		<rect x="65.227" y="70.364" fill="#FFFFFF" width="12.897" height="3.003"/>
		<polygon fill="#8B8581" points="76.806,55.236 71.699,55.236 71.653,55.236 66.806,55.236 63.572,57.175 71.653,57.175 
			71.699,57.175 79.781,57.175 		"/>
		<polygon fill="#8B8581" points="76.805,63.939 71.696,63.939 71.657,63.939 66.71,63.939 62.721,65.955 71.657,65.955 
			71.696,65.955 80.631,65.955 		"/>
		<rect x="66.629" y="54.25" fill="#AD844C" width="10.095" height="0.986"/>
		<rect x="66.629" y="58.675" fill="#AD844C" width="10.095" height="0.986"/>
		<rect x="66.629" y="62.973" fill="#AD844C" width="10.095" height="0.986"/>
		<rect x="66.629" y="67.525" fill="#AD844C" width="10.095" height="0.986"/>
		<polygon fill="#8B8581" points="76.806,59.558 71.698,59.558 71.655,59.558 66.71,59.558 63.146,61.574 71.655,61.574 
			71.698,61.574 80.206,61.574 		"/>
		<rect x="65.227" y="70.364" fill="#AD844C" width="12.897" height="1.508"/>
		<polygon fill="#8B8581" points="76.806,68.426 71.694,68.426 71.658,68.426 66.71,68.426 62.263,70.442 71.658,70.442 
			71.694,70.442 81.089,70.442 		"/>
		<g>
			<g>
				<polygon fill="#8B8581" points="71.676,35.649 71.676,35.771 71.29,38.034 71.29,45.643 71.676,45.643 71.676,45.521 
					72.063,45.521 72.063,37.912 				"/>
			</g>
		</g>
		<polygon fill="#8B8581" points="63.752,51.462 79.6,51.462 71.676,44.806 		"/>
	</g>
</g>
<g id="テキスト">
	<g>
		<path fill="#CF6443" d="M233.138,230.729c-2.155-1.916-3.721-3.593-4.966-5.014l1.134-1.022c-1.102,0.064-2.507,0.145-3.289,0.176
			c-1.661,2.14-3.434,4.2-5.333,6.132l-1.262-1.118c1.293-1.645,2.603-3.272,3.912-4.901c-0.384,0.016-2.747,0.08-2.954,0.08v-1.741
			c2.411-0.176,2.411-0.176,4.566-0.287c0.048-0.063,0.08-0.096,0.096-0.128c0.064-0.063,1.772-2.123,2.044-2.459l1.405,1.006
			c-0.176,0.24-0.895,1.246-1.038,1.453c3.05-0.08,3.385-0.096,6.036-0.111v1.597c-1.325,0.111-2.651,0.207-3.977,0.287
			c2.204,1.996,3.514,3.385,4.87,4.934L233.138,230.729z M223.893,233.683c-0.479,0.511-1.357,1.421-2.555,2.379l-1.149-1.134
			c0.814-0.894,1.676-1.645,2.634-2.379L223.893,233.683z M231.669,231.463c-4.248,0.335-7.361,0.384-9.581,0.415v-1.645
			c2.826-0.224,5.972-0.367,9.581-0.367V231.463z M229.53,228.908c-1.885,0.144-3.784,0.239-5.669,0.271v-1.612
			c1.933-0.192,3.481-0.256,5.669-0.256V228.908z M224.404,234.337c0.144,0,1.182-0.016,1.645-0.016
			c-0.016-0.83-0.016-1.325,0.017-2.188l1.82-0.017c0.016,0.399,0.048,1.166,0.048,2.076c0,0.814-0.032,1.469-0.048,1.868
			c-1.772,0-2.795-0.063-3.593-0.128L224.404,234.337z M232.627,234.401c0,0.702-0.639,1.165-1.229,1.165
			c-0.719,0-1.421-0.734-1.421-1.437c0-0.176,0.111-1.15,1.277-1.15C232.068,232.979,232.627,233.698,232.627,234.401z"/>
		<path fill="#CF6443" d="M232.995,254.232c-2.06-0.813-4.807-2.49-6.371-3.848l0.847-1.182c-1.038,0.063-2.683,0.111-3.721,0.159
			v0.08c0,0.336-0.048,1.837-0.048,2.14c0.351-0.096,1.852-0.559,2.155-0.654c0.191-0.064,0.335-0.096,0.606-0.16l0.495,1.581
			c-1.501,0.782-4.822,1.757-6.211,2.028l-0.543-1.581c0.367-0.16,0.591-0.256,1.645-0.606c-0.063-1.725-0.096-3.338-0.096-5.078
			c0-2.618,0.08-4.599,0.144-5.972l1.788-0.032c0.08,1.772,0.08,2.348,0.08,3.465c1.964-0.191,3.369-0.239,4.104-0.255v1.549
			c-1.213,0.111-2.507,0.224-4.087,0.287v1.438c3.48-0.271,3.576-0.288,6.131-0.368c-0.016-1.261-0.016-1.549-0.016-4.167
			c-2.348,0.128-2.683,0.144-5.621,0.239v-1.708c1.438-0.208,6.579-0.432,7.489-0.415c0.048,0.67,0.111,1.964,0.111,3.736
			c0,1.82-0.079,3.177-0.111,3.96c-0.655,0.079-1.868,0.239-4.072,0.319c0.814,0.398,2.156,1.197,3.21,1.82
			c-0.08-0.128-0.208-0.304-0.208-0.688c0-0.813,0.671-1.197,1.198-1.197c0.559,0,1.229,0.463,1.229,1.197
			c0,0.767-0.831,1.214-1.405,1.182c0.255,0.16,1.421,0.831,1.645,0.975c0.239,0.144,0.319,0.207,0.526,0.352L232.995,254.232z
			 M228.364,240.038c0,0.814-0.798,1.197-1.293,1.197c-0.782,0-1.294-0.719-1.294-1.341c0-0.799,0.767-1.166,1.31-1.166
			C227.837,238.729,228.364,239.367,228.364,240.038z"/>
		<path fill="#CF6443" d="M226.56,261.498c-0.017,2.235-0.368,3.561-0.783,4.534c-0.654,1.501-1.852,2.427-3.081,2.427
			c-0.591,0-1.422-0.351-1.868-0.989c-0.512-0.734-0.639-1.645-0.639-2.396c0-3.896,3.337-7.185,7.345-7.185
			c3.8,0,5.972,2.97,5.972,6.227c0,2.107-0.942,4.503-3.034,6.61l-1.356-1.069c1.676-2.124,2.347-3.977,2.347-5.478
			c0-2.538-1.645-4.391-3.912-4.391c-3.098,0-5.396,2.858-5.396,5.253c0,1.166,0.591,1.325,0.767,1.325
			c0.718,0,1.133-1.213,1.213-1.421c0.447-1.325,0.543-2.092,0.703-3.448H226.56z"/>
		<path fill="#CF6443" d="M232.771,277.255c-0.096,1.07-0.256,2.331-0.687,3.976c0.606,0.432,1.645,1.214,2.395,2.188l-1.197,1.262
			c-0.367-0.352-0.942-0.894-1.868-1.501c-0.559,1.453-1.182,2.858-1.996,4.184l-1.564-0.734c1.021-2.22,1.245-2.891,1.756-4.392
			c-0.463-0.207-1.964-0.782-3.146-0.878c-0.494,1.229-1.102,2.204-1.58,2.874c-0.56,0.782-1.485,1.916-2.986,1.916
			c-0.91,0-1.964-0.687-1.964-1.995c0-2.363,2.268-4.375,5.174-4.791c0.335-1.021,0.639-2.06,0.862-3.113
			c-2.044,0.256-4.551,0.447-5.254,0.463l-0.063-1.852c1.054-0.208,5.685-0.703,7.553-0.703c-0.24,2.396-0.655,3.849-1.07,5.237
			c1.07,0.112,2.107,0.384,3.114,0.782c0.335-1.165,0.59-2.347,0.766-3.161L232.771,277.255z M222.903,282.316
			c-0.591,0.479-1.021,1.198-1.021,1.518c0,0.223,0.191,0.383,0.352,0.383c0.718,0,1.708-1.932,2.012-2.587
			C223.925,281.742,223.366,281.949,222.903,282.316z"/>
		<path fill="#CF6443" d="M222.775,290.223c0.688,1.438,1.965,5.381,2.156,6.1l-1.661,0.623c-0.543-1.07-1.532-3.434-2.203-6.164
			L222.775,290.223z M232.787,294.406c-1.421,0.654-3.72,1.964-4.854,2.715c-1.661,1.102-3.273,2.555-3.273,3.832
			c0,0.687,0.862,1.165,2.587,1.165c1.804,0,4.599-0.543,4.678-0.559l0.24,1.677c-1.438,0.479-3.673,0.846-5.078,0.846
			c-3.321,0-4.614-1.692-4.614-3.098c0-1.899,1.421-3.593,4.023-5.285c1.884-1.229,4.455-2.395,5.572-2.842L232.787,294.406z
			 M233.027,290.894c0,0.622-0.575,0.941-0.975,0.941c-0.526,0-0.974-0.511-0.974-1.037c0-0.479,0.383-0.975,0.941-0.975
			C232.532,289.823,233.027,290.318,233.027,290.894z M234.576,292.762c0,0.399-0.319,0.91-0.927,0.91
			c-0.479,0-1.038-0.432-1.038-1.07c0-0.479,0.336-0.91,0.895-0.91C234.192,291.691,234.576,292.267,234.576,292.762z"/>
		<path fill="#CF6443" d="M224.18,315.046c-0.224,0.415-0.639,1.31-0.639,1.933c0,0.495,0.191,0.941,1.134,1.165
			c0.639,0.145,1.246,0.192,2.076,0.192c1.261,0,2.73-0.097,5.396-0.639l0.336,1.724c-0.99,0.352-3.577,0.958-5.797,0.958
			c-1.069,0-5.381-0.048-5.381-3.001c0-0.942,0.432-2.092,1.277-3.146L224.18,315.046z M231.717,309.25
			c-3.657,0.335-8.958,0.511-10.044,0.495v-1.757c3.338-0.367,6.69-0.431,10.044-0.431V309.25z"/>
		<path fill="#CF6443" d="M221.514,324.065c1.405-0.224,6.643-0.559,9.117-0.543c-1.182,1.741-3.721,4.455-4.168,4.902
			c3.258-0.016,5.924,1.725,5.924,3.8c0,1.422-1.069,3.242-4.183,4.136c-1.294,0.367-2.619,0.495-4.04,0.559l-0.144-1.756
			c1.341-0.112,2.459-0.319,3.72-0.734c1.262-0.415,2.348-1.229,2.348-2.14c0-1.645-2.698-1.933-4.04-2.06
			c-1.421-0.145-2.49-0.145-3.513-0.112c0.687-0.878,1.421-1.708,2.172-2.555c0.287-0.319,1.581-1.708,1.853-1.996
			c-0.703,0.064-2.061,0.191-3.13,0.256c-0.287,0.016-1.597,0.048-1.853,0.063L221.514,324.065z"/>
	</g>
	<g>
		<text transform="matrix(1 0 0 1 128.0371 189.624)" fill="#CF6443" font-family="'ShinGoPro-Regular'" font-size="5.3225">吉野山</text>
	</g>
	<text transform="matrix(1 0 0 1 79.2524 313.8828)" fill="#CF6443" font-family="'ShinGoPro-Regular'" font-size="5.3225">十津川温泉</text>
	<g>
		<text transform="matrix(1 0 0 1 128.7563 85.1611)" fill="#CF6443" font-family="'ShinGoPro-Regular'" font-size="5.3225">奈良公園</text>
	</g>
	<g>
		<text transform="matrix(1 0 0 1 132.6274 58.1714)" fill="#CF6443" font-family="'ShinGoPro-Regular'" font-size="5.3225">東大寺</text>
	</g>
	<text transform="matrix(1 0 0 1 68.8418 81.9722)" fill="#CF6443" font-family="'ShinGoPro-Regular'" font-size="5.3225">法隆寺</text>
	<text transform="matrix(1 0 0 1 86.5078 66.5615)" fill="#CF6443" font-family="'ShinGoPro-Regular'" font-size="5.3225">薬師寺</text>
	<g>
		<text transform="matrix(1 0 0 1 99.3091 266.9902)" fill="#CF6443" font-family="'ShinGoPro-Regular'" font-size="5.3225">谷瀬の吊橋</text>
	</g>
	<g>
		<text transform="matrix(1 0 0 1 118.832 147.8647)" fill="#CF6443" font-family="'ShinGoPro-Regular'" font-size="5.3225">石舞台古墳</text>
	</g>
	<g>
		<text transform="matrix(1 0 0 1 150.813 72.377)" fill="#CF6443" font-family="'ShinGoPro-Regular'" font-size="5.3225">春日大社</text>
	</g>
	<text transform="matrix(1 0 0 1 40.624 98.1602)" fill="#A3B04B" font-family="'ShinGoPro-Light'" font-size="4.4354">大阪府</text>
	<g>
		<text transform="matrix(1 0 0 1 118.5142 39.1157)" fill="#A3B04B" font-family="'ShinGoPro-Light'" font-size="4.4354">京都府</text>
	</g>
	<g>
		<text transform="matrix(1 0 0 1 212.5493 175.041)" fill="#A3B04B" font-family="'ShinGoPro-Light'" font-size="4.4354">三重県</text>
	</g>
	<g>
		<text transform="matrix(1 0 0 1 40.624 208.585)" fill="#A3B04B" font-family="'ShinGoPro-Light'" font-size="4.4354">和歌山県</text>
	</g>
</g>
</svg>
