<?xml version="1.0" encoding="utf-8"?>
<!-- Generator: Adobe Illustrator 16.0.3, SVG Export Plug-In . SVG Version: 6.00 Build 0)  -->
<!DOCTYPE svg PUBLIC "-//W3C//DTD SVG 1.1//EN" "http://www.w3.org/Graphics/SVG/1.1/DTD/svg11.dtd">
<svg version="1.1" id="レイヤー_1" xmlns="http://www.w3.org/2000/svg" xmlns:xlink="http://www.w3.org/1999/xlink" x="0px"
	 y="0px" width="2123.896484px" height="1455.172852px" viewBox="0 0 2123.896484 1455.172852"
	 enable-background="new 0 0 2123.896484 1455.172852" xml:space="preserve">
<rect x="3.333496" y="480.074219" fill="#55DDFF" width="2120.562988" height="168.016602"/>
<path id="path3356" fill="#FF6600" d="M0,813.771484l2123.896484-3.664063v645.064453L0,1455.172852V813.771484z"/>
<path id="path3374" fill="#894D26" d="M2123.896484,873.320313l-896.84082-4.5
	c-259.451172-162.032227-31.006836-99.675781-327.416504-214.236328c0-28.414063,66.666992-153.333008,264.000488-175.123047
	c477.808594-7.693359,537.391602,0.878906,960.256836,0.613281V873.320313z"/>
<g id="g4298" transform="translate(-3.1127 -.65685)">
	<g id="g4286" transform="matrix(1.7969 0 0 1.7969 -1565.5 338.51)">
		<path id="path4280" fill="#B3B3B3" d="M1699.959229-27.261932c0,0-5.938965-15.119354-11.269409-21.015469
			c-6.901001-7.633049-17.493164-10.913979-25.599609-17.251934c-20.17688-15.775322-50.193848-26.797997-57.041626-51.477547
			c-6.22168-22.4198,0.940186-53.893814,20.311768-66.781143c16.76709-11.15419,40.224365,2.903229,60.103516,6.121658
			c23.546387,3.811905,54.423096-2.617355,69.842529,15.581848c6.605225,7.796082,4.572754,20.811127,1.669434,30.608261
			c-4.111816,13.874275-15.689941,24.515427-25.599609,35.060394c-4.375,4.655914-11.084717,7.008057-14.746582,12.242767
			c-3.161865,4.519501-4.24231,10.228119-5.565063,15.58239c-3.396729,13.741657-5.993408,42.042892-5.993408,42.042892
			L1699.959229-27.261932z"/>
		<path id="path4282" fill="#9E9E9E" d="M1701.259277-22.682106c0-1.66954-1.605469-9.424324-3.478271-13.774261
			c-3.934692-9.133572-9.654175-17.524761-16.000854-25.181721c-6.406372-7.730328-14.607422-13.777523-21.981201-20.591557
			c-7.282471-6.727631-14.866089-13.131889-21.9823-20.033966c-6.028198-5.845024-14.378052-10.304749-17.530151-18.086159
			c-2.403198-5.931442-1.315308-12.935692,0-19.199196c1.705444-8.129227,3.328247-17.891052,10.016113-22.817078
			c4.660767-3.431473,11.466187-2.090729,17.253052-1.9478c9.206421,0.227722,18.118164,3.414093,27.269165,4.452118
			c10.066162,1.14238,20.26062,0.829346,30.329956,1.9478c9.426025,1.047272,19.653076,0.146194,28.104004,4.452103
			c5.024902,2.560852,10.847656,6.43634,11.965088,11.965057c1.070557,5.301559-3.329346,10.394424-6.121704,15.026428
			c-4.469482,7.414024-11.897583,12.68895-16.695435,19.894829c-6.581421,9.884102-13.57373,20.105156-16.346436,31.651192
			c-4.173828,17.372044,0.278198,53.599258,0.278198,53.599258L1701.259277-22.682106z"/>
		<path id="path4284" fill="#CCCCCC" d="M1702.459229-20.94191c0,0-0.470703-12.556351-2.434814-18.434532
			c-3.409668-10.20203-10.564941-18.741039-15.860596-28.103951c-4.120605-7.284683-6.970581-15.45903-12.381348-21.843178
			c-7.676025-9.055313-18.953003-14.36013-27.686523-22.399147c-5.38147-4.953735-13.354248-8.773788-15.165039-15.860107
			c-1.415161-5.53688,1.274902-11.805817,4.452148-16.55629c2.794434-4.178757,7.030273-8.219452,11.964966-9.181946
			c8.21521-1.603226,15.949829,5.309708,24.208374,6.678177c10.815063,1.791824,22.115967-0.360321,32.833252,1.9478
			c8.639038,1.859756,21.212769,1.369537,24.765991,9.46019c1.565186,3.564087-2.098877,7.650986-4.312988,10.85202
			c-4.818481,6.966209-14.178101,10.004211-18.782349,17.113358c-5.732544,8.850418-9.44873,19.516029-9.878174,30.051208
			c-0.516235,12.677002,6.665161,24.519226,8.904297,37.008186c1.244507,6.94175,2.504272,21.007858,2.504272,21.007858
			L1702.459229-20.94191z"/>
	</g>
</g>
<linearGradient id="path4223_1_" gradientUnits="userSpaceOnUse" x1="1097.795044" y1="705.881836" x2="1280.884155" y2="487.654541" gradientTransform="matrix(1 0 0 -1 -70.867676 2048.826172)">
	<stop  offset="0" style="stop-color:#A05A2C"/>
	<stop  offset="1" style="stop-color:#A05A2C;stop-opacity:0"/>
</linearGradient>
<path id="path4223" fill="url(#path4223_1_)" d="M0.089966,642.519531L0.000122,862.821289
	c0,0,299.714355-0.730469,506.734863-3.730469c566.911133-5.807617,734.109863,473.926758,810.080566,563.077148
	c75.947266,17.935547,195.736328,79.206055,270.027344-79.81543C1334.817505,848.0625,915.071411,548.680664,637.585571,548.680664
	c-406.608887,0-533.974121,0-637.505371,0L0.089966,642.519531z"/>
<path id="path4254" fill="#502D16" d="M844.718872,764.092773l-2.587891,45.496094
	c137.980469,37.605469,226.175293,134.716797,298.03125,206.541016l-25.119141,39.861328l100.480469-17.714844
	l-25.119141-101.871094l-25.119141,39.861328c-70.3125-64.137695-155.800781-180.390625-320.501953-212.179688
	L844.718872,764.092773z"/>
<path id="path4248" fill="#502D16" d="M463.376587,564.082031v44.291016l-251.191406-0.463867v44l251.191406,0.754883v44.291016
	l125.669922-66.436523L463.376587,564.082031z"/>
<path id="path4248_1_" fill="#502D16" d="M1154.497192,696.955078v-44.291016l106.535156,0.463867v-44l-106.535156-0.754883
	v-44.291016l-125.669922,66.436523L1154.497192,696.955078z"/>
<path fill="#FF100A" d="M1471.622192,1126.21582c0,0,1.399414-6.019531,1.630859-6.623047
	c0.929688-2.436523,5.568359-6.445313,5.568359-6.445313l4.109375,10.638672l1.172852-2.313477l1.374023,3.734375
	c-2.607422,23.950195-5.348633,21.722656-10.536133,26.925781l-5.916992-10.556641c0,0-4.533203-10.200195,2.597656-18.671875"/>
<path fill="#FF100A" d="M1473.733521,1041.917969c0,0,1.399414-6.019531,1.630859-6.623047
	c0.929688-2.436523,5.568359-6.445313,5.568359-6.445313l4.109375,10.638672l1.172852-2.313477l1.374023,3.734375
	c-2.607422,23.950195-5.348633,21.722656-10.536133,26.925781l-5.916992-10.556641c0,0-4.533203-10.200195,2.597656-18.671875"/>
<path fill="#FF100A" d="M1496.704224,1077.358398c0,0,1.399414-6.019531,1.630859-6.623047
	c0.929688-2.436523,5.568359-6.445313,5.568359-6.445313l4.109375,10.638672l1.172852-2.313477l1.374023,3.734375
	c-2.607422,23.950195-5.348633,21.722656-10.536133,26.925781l-5.916992-10.556641c0,0-4.533203-10.200195,2.597656-18.671875"/>
<path fill="#FF100A" d="M1492.744263,1165.201172c0,0,1.399414-6.019531,1.630859-6.623047
	c0.929688-2.436523,5.568359-6.445313,5.568359-6.445313l4.109375,10.638672l1.172852-2.313477l1.374023,3.734375
	c-2.607422,23.950195-5.348633,21.722656-10.536133,26.925781l-5.916992-10.556641c0,0-4.533203-10.200195,2.597656-18.671875"/>
<path fill="#FF100A" d="M1501.680786,976.867188c0,0,1.399414-6.019531,1.630859-6.623047
	c0.929688-2.436523,5.568359-6.445313,5.568359-6.445313l4.109375,10.638672l1.172852-2.313477l1.374023,3.734375
	c-2.607422,23.950195-5.348633,21.722656-10.536133,26.925781l-5.916992-10.556641c0,0-4.533203-10.200195,2.597656-18.671875"/>
<path fill="#FF100A" d="M1467.02356,937.881836c0,0,1.399414-6.019531,1.630859-6.623047
	c0.929688-2.436523,5.568359-6.445313,5.568359-6.445313l4.109375,10.638672l1.172852-2.313477l1.374023,3.734375
	c-2.607422,23.950195-5.348633,21.722656-10.536133,26.925781l-5.916992-10.556641c0,0-4.533203-10.200195,2.597656-18.671875"/>
<g enable-background="new    ">
	<path fill="#FFFFFF" d="M1316.136841,1266.926758c9.361328,9.689453,13.979492,15.001953,25.337891,29.537109
		c5.367188-5.626953,11.982422-13.12793,16.600586-19.222656c6.865234-9.064453,15.352539-23.129883,20.594727-33.913086
		c0.375-0.782227,0.499023-0.938477,0.999023-1.875977c-1.748047,0.15625-1.748047,0.15625-71.270508,0.3125
		c-6.740234,0-10.235352,0.15625-14.478516,0.625v-12.345703c4.368164,0.78125,7.364258,0.9375,14.603516,0.9375h72.767578
		c4.369141,0,4.993164-0.15625,6.990234-1.09375l5.242188,7.814453c-1.498047,1.875-2.37207,3.28125-4.993164,8.283203
		c-12.231445,23.910156-25.461914,42.664063-41.189453,58.604492c4.743164,6.407227,9.861328,14.53418,18.223633,28.442383
		l-7.614258,7.970703c-11.358398-22.660156-29.956055-48.291016-48.677734-67.200195L1316.136841,1266.926758z"/>
	<path fill="#FFFFFF" d="M1447.939575,1216.448242c-1.123047,2.03125-1.123047,2.03125-2.746094,6.40625
		c-3.245117,8.439453-4.368164,11.09668-5.741211,13.753906c1.248047-0.3125,2.246094-0.46875,4.493164-0.46875l31.454102-0.625977
		c4.368164-0.15625,4.743164-0.15625,6.365234-1.09375l6.740234,8.125977c-1.123047,1.875977-1.123047,2.032227-2.496094,7.658203
		c-4.993164,20.941406-13.979492,42.039063-24.463867,57.042969c-11.483398,16.40918-25.213867,28.912109-43.436523,39.070313
		c-1.99707-4.533203-2.996094-5.939453-6.241211-9.220703c18.847656-9.533203,32.078125-21.411133,44.060547-39.539063
		c9.611328-14.378906,17.099609-32.663086,21.46875-52.198242l-42.063477,0.782227
		c-7.614258,15.470703-17.599609,29.223633-29.831055,40.632813c-2.12207-3.908203-3.370117-5.158203-6.990234-7.970703
		c13.230469-10.939453,22.716797-23.911133,31.329102-42.977539c4.743164-10.158203,7.239258-17.34668,7.863281-22.661133
		L1447.939575,1216.448242z M1488.755005,1215.509766c5.117188,8.126953,7.488281,12.81543,11.482422,22.192383l-6.240234,4.21875
		c-3.121094-8.282227-6.241211-14.533203-11.483398-22.660156L1488.755005,1215.509766z M1500.113403,1208.790039
		c5.117188,8.126953,7.488281,12.658203,11.482422,22.191406l-6.240234,4.219727
		c-3.121094-8.282227-6.241211-14.69043-11.483398-22.661133L1500.113403,1208.790039z"/>
	<path fill="#FFFFFF" d="M1541.29895,1266.926758c9.361328,9.689453,13.979492,15.001953,25.337891,29.537109
		c5.367188-5.626953,11.982422-13.12793,16.600586-19.222656c6.865234-9.064453,15.352539-23.129883,20.594727-33.913086
		c0.375-0.782227,0.499023-0.938477,0.999023-1.875977c-1.748047,0.15625-1.748047,0.15625-71.270508,0.3125
		c-6.740234,0-10.235352,0.15625-14.478516,0.625v-12.345703c4.368164,0.78125,7.364258,0.9375,14.603516,0.9375h72.767578
		c4.369141,0,4.993164-0.15625,6.990234-1.09375l5.242188,7.814453c-1.498047,1.875-2.37207,3.28125-4.993164,8.283203
		c-12.231445,23.910156-25.461914,42.664063-41.189453,58.604492c4.743164,6.407227,9.861328,14.53418,18.223633,28.442383
		l-7.614258,7.970703c-11.358398-22.660156-29.956055-48.291016-48.677734-67.200195L1541.29895,1266.926758z"/>
</g>
<ellipse fill="none" stroke="#000000" stroke-width="4" stroke-miterlimit="10" cx="899.639526" cy="580.556641" rx="72.341553" ry="67.53418"/>
<g enable-background="new    ">
	<path d="M767.672485,414.304657c7.951172,6.348633,11.638672,9.811523,18.783203,18.180176l-4.955078,6.925781
		c-5.876953-7.936035-9.794922-11.976074-18.322266-18.612793L767.672485,414.304657z M787.608032,460.909149
		c-4.148438,15.87207-8.873047,30.300781-13.367188,40.544922c-1.267578,3.030273-1.267578,3.030273-1.958984,4.761719
		l-6.568359-6.493164c4.378906-5.771484,10.832031-24.095703,15.902344-44.873047L787.608032,460.909149z M774.932251,378.376923
		c7.029297,6.637695,11.523438,11.6875,16.939453,18.901855l-5.300781,6.781738
		c-6.453125-9.523438-9.910156-13.563477-16.824219-19.479004L774.932251,378.376923z M853.061157,390.786102
		c8.296875,0,11.638672-0.144531,14.980469-0.866211v9.66748c-2.650391-0.433105-6.453125-0.577148-14.519531-0.577148h-45.402344
		c-5.185547,11.542969-8.296875,16.881348-14.980469,26.260254c-1.613281-2.741211-3.341797-4.761719-5.646484-6.637207
		c7.490234-8.368652,12.445313-17.314453,17.515625-31.599121c1.728516-4.905273,2.765625-8.945313,3.111328-12.408203
		l8.066406,2.019531c-0.576172,1.587402-0.576172,1.587402-1.728516,5.627441
		c-0.806641,2.741699-1.498047,4.76123-2.996094,8.513184H853.061157z M802.473267,486.159149
		c-0.691406,3.174805-1.037109,4.617188-2.074219,9.378906l-7.835938-1.298828
		c3.341797-11.109375,5.876953-24.52832,8.066406-42.130859h-0.691406c-4.724609,0-7.259766,0.143555-10.601563,0.865234v-9.811523
		c2.765625,0.577148,5.761719,0.865723,11.0625,0.865723h1.152344c1.267578-12.553223,1.958984-21.643066,1.958984-26.548828
		c0-0.288574,0-1.731445-0.115234-4.184082c1.382813,0.144043,4.724609,0.288086,8.181641,0.288086h36.644531
		c5.876953,0,8.066406-0.144043,11.984375-0.577148c-0.576172,3.751953-0.576172,5.050293-1.037109,21.787598
		c-0.115234,2.885742-0.115234,4.76123-0.345703,9.234375h0.806641c5.300781,0,7.835938-0.144043,10.716797-0.865723v9.811523
		c-3.457031-0.577148-6.798828-0.865234-10.716797-0.865234h-1.267578c-0.115234,1.442383-0.115234,1.442383-0.230469,4.039063
		c-0.345703,6.060547-0.921875,13.418945-1.84375,21.931641h1.267578c4.494141,0,6.337891-0.143555,9.103516-0.865234v9.523438
		c-2.996094-0.433594-5.300781-0.578125-9.333984-0.578125h-2.074219c-2.304688,16.738281-4.378906,19.767578-13.828125,19.767578
		c-2.650391,0-6.453125-0.288086-12.675781-0.865234c0-3.751953-0.345703-5.771484-1.267578-9.234375
		c4.955078,1.154297,9.564453,1.731445,12.791016,1.731445c5.876953,0,6.337891-0.72168,8.066406-11.399414H802.473267z
		 M807.774048,452.108368c-0.691406,6.925781-1.498047,11.975586-3.802734,25.970703h18.552734
		c2.074219-14.139648,2.074219-14.139648,3.111328-25.970703H807.774048z M826.442017,444.027802
		c0.806641-9.955566,0.806641-10.96582,1.267578-22.652832h-17.285156c-0.576172,9.811523-0.806641,12.841309-1.728516,22.652832
		H826.442017z M832.434204,452.108368c-1.152344,11.831055-1.152344,11.831055-3.111328,25.970703h20.166016
		c0.806641-7.935547,1.382813-14.28418,2.074219-25.970703H832.434204z M852.024048,444.027802
		c0.230469-5.771484,0.460938-13.995605,0.576172-22.652832h-18.091797c-0.576172,9.522461-1.037109,17.169922-1.382813,22.652832
		H852.024048z"/>
	<path d="M884.513306,413.005829c7.605469,5.916016,11.984375,10.100586,19.359375,18.324707l-4.609375,7.358887
		c-7.144531-8.946289-11.408203-13.130371-19.244141-19.045898L884.513306,413.005829z M901.798462,459.177704
		c-4.033203,16.160156-7.605469,27.270508-12.675781,38.380859c-1.613281,3.750977-1.84375,4.18457-2.650391,6.204102
		l-6.453125-7.070313c5.53125-7.791016,11.177734-22.941406,16.017578-43.574219L901.798462,459.177704z M889.468384,377.799774
		c7.144531,6.348633,11.292969,10.821777,17.400391,19.334961l-5.185547,6.492676
		c-6.107422-8.945801-10.140625-13.562988-17.400391-19.76709L889.468384,377.799774z M916.548462,428.588837
		c-5.416016,0-7.259766,0.144531-10.832031,0.72168v-8.657227c3.226563,0.72168,5.416016,0.865723,10.832031,0.865723h10.947266
		v-10.532715h-6.222656c-4.263672,0-6.568359,0.144043-9.564453,0.721191v-8.368652
		c2.765625,0.577148,5.070313,0.72168,9.564453,0.72168h6.222656v-9.66748h-8.642578
		c-4.609375,0-7.029297,0.144043-9.910156,0.721191v-8.80127c2.650391,0.721191,5.185547,0.865723,10.025391,0.865723h8.527344
		c0-4.472656-0.230469-7.50293-0.691406-11.110352h7.835938c-0.460938,3.607422-0.576172,5.194336-0.576172,11.110352h20.166016
		c0-5.48291-0.115234-7.935547-0.576172-11.110352h7.951172c-0.460938,3.607422-0.691406,6.493164-0.691406,11.110352h11.177734
		c5.070313,0,7.259766-0.144531,10.025391-0.865723v8.80127c-2.880859-0.577148-5.185547-0.721191-10.025391-0.721191h-11.177734
		v9.66748h9.103516c4.378906,0,6.683594-0.144531,9.333984-0.72168v8.368652
		c-3.111328-0.577148-5.185547-0.721191-9.449219-0.721191h-8.988281v10.532715h11.638672
		c5.53125,0,7.605469-0.144043,11.0625-0.865723v8.801758c-3.457031-0.72168-5.646484-0.866211-11.177734-0.866211h-25.466797
		v9.090332h17.285156c4.839844,0,9.103516-0.288574,11.292969-0.721191c-0.460938,3.462891-0.576172,7.791016-0.576172,15.005859
		v22.652344h1.498047c3.917969,0,5.992188-0.143555,8.642578-0.576172v8.65625
		c-2.650391-0.432617-5.646484-0.720703-8.642578-0.720703h-1.498047v11.831055c0,8.080078-2.535156,10.533203-11.177734,10.533203
		c-3.341797,0-7.029297-0.144531-11.869141-0.72168c-0.230469-2.885742-0.691406-5.337891-1.498047-8.224609
		c5.53125,0.866211,9.333984,1.298828,13.597656,1.298828c3.341797,0,4.263672-0.865234,4.263672-3.895508v-10.821289h-47.591797
		v9.089844c0,7.214844,0.115234,11.542969,0.576172,15.438477h-8.066406c0.460938-5.049805,0.576172-9.37793,0.576172-15.438477
		v-9.089844c-5.300781,0-6.453125,0.144531-9.21875,0.577148v-8.512695c2.765625,0.432617,5.300781,0.576172,9.21875,0.576172
		v-23.229492c0-6.925781-0.115234-10.244629-0.460938-14.284668c3.457031,0.433105,6.222656,0.577148,11.523438,0.577148h15.671875
		v-9.090332H916.548462z M940.517212,444.893524h-19.820313v11.110352h19.820313V444.893524z M940.517212,462.929657h-19.820313
		v11.686523h19.820313V462.929657z M934.064087,404.060516h20.166016v-9.66748h-20.166016V404.060516z M934.064087,421.519012
		h20.166016v-10.532715h-20.166016V421.519012z M968.288696,456.003876v-11.110352h-21.318359v11.110352H968.288696z
		 M968.288696,474.61618v-11.686523h-21.318359v11.686523H968.288696z"/>
</g>
<path fill="#F24141" d="M1461.006958,1123.665039c0,0-16.03418,64.918945,50.632813,86.918945"/>
<path fill="#FF0000" d="M1444.352661,869.991211c0,0,55.019531,34.607422,96.666992,0H1444.352661z"/>
<ellipse fill="#FF0000" cx="1493.972778" cy="668.250977" rx="51.666992" ry="23.666992"/>
<polyline fill="#894D26" points="1287.052856,483.339813 1471.942505,291.349091 1511.639771,291.349091 1665.034302,483.339813 "/>
<rect x="1485.856567" y="291.349121" fill="#FF0000" width="15.766602" height="578.64209"/>
<g enable-background="new    ">
	<path fill="#FFFFFF" d="M140.803345,731.041016c-0.125-1.25-0.249512-2.03125-0.249512-2.96875
		c0-8.751953,5.741699-15.941406,12.855957-15.941406c7.114746,0,12.856445,7.189453,12.856445,16.097656
		c0,8.907227-5.741699,16.09668-12.856445,16.09668c-0.873535,0-1.622559-0.15625-2.746094-0.46875
		c-4.368164,20.316406-10.234863,37.350586-17.349121,50.009766c-7.364258,13.283203-18.473145,26.254883-30.705078,35.788086
		c-7.114746,5.625977-12.731445,9.064453-22.966309,13.90918c-1.87207-5.000977-2.871094-6.720703-6.116211-10.78418
		c11.233398-4.21875,18.597656-8.594727,28.208984-16.56543c20.469727-17.19043,32.327148-39.539063,39.316895-74.545898H77.521118
		c-6.365723,0-9.860352,0.15625-13.979492,0.9375v-12.501953c4.743164,0.78125,7.239258,0.9375,14.104492,0.9375h61.409668
		H140.803345z M145.796021,728.228516c0,5.157227,3.495117,9.533203,7.61377,9.533203c4.244141,0,7.61377-4.219727,7.61377-9.533203
		s-3.369629-9.533203-7.61377-9.533203C149.166138,718.695313,145.796021,722.915039,145.796021,728.228516z"/>
	<path fill="#FFFFFF" d="M198.587036,720.257813c-0.374512,3.282227-0.624512,7.344727-0.624512,13.90918l-0.374023,94.237305
		c14.353516-2.969727,25.711914-7.814453,35.697266-15.628906c12.481934-9.688477,20.844727-20.941406,28.083984-37.506836
		c3.120605,5.469727,3.869141,6.719727,6.864746,9.845703c-17.099609,31.880859-35.447754,46.415039-68.773926,54.541992
		c-4.867676,1.25-5.492188,1.40625-7.239258,2.34375l-4.992676-7.813477c0.624023-2.657227,0.873535-4.375977,0.873535-10.158203
		l0.249512-89.548828v-5.782227c0-3.125977-0.124512-5.000977-0.374512-8.439453H198.587036z"/>
	<path fill="#FFFFFF" d="M287.074829,773.862305c3.620117,0.78125,6.989746,0.9375,15.477539,0.9375h72.518555
		c9.236328,0,11.233398-0.15625,15.103027-0.78125v12.658203c-3.994141-0.46875-6.865234-0.625-15.228027-0.625h-72.393555
		c-9.111816,0-11.73291,0.15625-15.477539,0.625V773.862305z"/>
	<path fill="#FFFFFF" d="M424.368286,845.125977c0.499512-4.219727,0.749023-7.970703,0.749023-16.40918v-97.050781
		c0-8.282227-0.249512-12.033203-0.749023-15.94043h10.734375c-0.499512,4.063477-0.624023,7.345703-0.624023,16.25293v29.224609
		c19.22168,8.595703,33.700195,17.191406,55.543457,32.975586l-5.367188,11.564453
		c-11.73291-10.314453-28.95752-21.878906-46.556641-30.943359c-1.872559-0.9375-2.746094-1.5625-3.869629-2.657227
		l-0.249512,0.15625c0.374512,3.125977,0.499512,5.313477,0.499512,9.220703v47.041016
		c0,8.750977,0.124512,12.189453,0.624023,16.56543H424.368286z"/>
	<path fill="#FFFFFF" d="M580.132935,839.34375c-0.998535-5.625977-2.371582-11.095703-3.869629-15.94043l-6.490234-20.160156
		h-43.561035l-6.490723,20.160156c-1.87207,5.938477-2.995605,10.470703-3.869141,15.94043h-12.980957
		c2.496094-5.157227,3.370117-7.501953,6.739746-17.972656l27.958984-86.266602
		c2.371582-7.344727,3.370117-10.939453,3.994141-14.53418h12.606934c0.499023,2.969727,1.123047,5.000977,4.243652,14.53418
		l27.958984,86.266602c3.120117,9.376953,4.743164,13.90918,6.615234,17.972656H580.132935z M550.675903,740.886719
		c-0.374512-1.25-0.374512-1.40625-2.746094-10.001953c-0.624023,2.344727-1.123047,4.063477-1.372559,5.157227
		c-0.749023,2.500977-1.123535,4.219727-1.373047,4.844727l-15.976563,51.572266h37.569824L550.675903,740.886719z"/>
</g>
<g enable-background="new    ">
	<path fill="#FFFFFF" d="M1672.719849,718.869141c-0.125-1.25-0.25-2.03125-0.25-2.96875
		c0-8.751953,5.742188-15.941406,12.856445-15.941406s12.856445,7.189453,12.856445,16.097656
		c0,8.907227-5.742188,16.09668-12.856445,16.09668c-0.874023,0-1.623047-0.15625-2.746094-0.46875
		c-4.368164,20.316406-10.235352,37.350586-17.349609,50.009766c-7.364258,13.283203-18.472656,26.254883-30.705078,35.788086
		c-7.114258,5.625977-12.731445,9.064453-22.96582,13.90918c-1.87207-5.000977-2.871094-6.720703-6.116211-10.78418
		c11.233398-4.21875,18.597656-8.594727,28.208984-16.56543c20.469727-17.19043,32.327148-39.539063,39.316406-74.545898h-63.53125
		c-6.366211,0-9.860352,0.15625-13.979492,0.9375v-12.501953c4.743164,0.78125,7.239258,0.9375,14.104492,0.9375h61.40918
		H1672.719849z M1677.712036,716.056641c0,5.157227,3.495117,9.533203,7.614258,9.533203
		c4.244141,0,7.613281-4.219727,7.613281-9.533203s-3.369141-9.533203-7.613281-9.533203
		S1677.712036,710.743164,1677.712036,716.056641z"/>
	<path fill="#FFFFFF" d="M1730.503052,708.085938c-0.374023,3.282227-0.624023,7.344727-0.624023,13.90918l-0.374023,94.237305
		c14.353516-2.969727,25.711914-7.814453,35.697266-15.628906c12.481445-9.688477,20.844727-20.941406,28.083984-37.506836
		c3.120117,5.469727,3.869141,6.719727,6.864258,9.845703c-17.099609,31.880859-35.447266,46.415039-68.773438,54.541992
		c-4.868164,1.25-5.492188,1.40625-7.239258,2.34375l-4.993164-7.813477c0.624023-2.657227,0.874023-4.375977,0.874023-10.158203
		l0.249023-89.548828v-5.782227c0-3.125977-0.124023-5.000977-0.374023-8.439453H1730.503052z"/>
	<path fill="#FFFFFF" d="M1818.991333,761.69043c3.620117,0.78125,6.990234,0.9375,15.477539,0.9375h72.518555
		c9.236328,0,11.233398-0.15625,15.102539-0.78125v12.658203c-3.994141-0.46875-6.864258-0.625-15.227539-0.625h-72.393555
		c-9.111328,0-11.733398,0.15625-15.477539,0.625V761.69043z"/>
	<path fill="#FFFFFF" d="M1956.285278,832.954102c0.499023-4.219727,0.748047-7.970703,0.748047-16.40918v-97.050781
		c0-8.282227-0.249023-12.033203-0.748047-15.94043h10.733398c-0.499023,4.063477-0.624023,7.345703-0.624023,16.25293v29.224609
		c19.22168,8.595703,33.701172,17.191406,55.543945,32.975586l-5.367188,11.564453
		c-11.732422-10.314453-28.958008-21.878906-46.556641-30.943359c-1.87207-0.9375-2.746094-1.5625-3.869141-2.657227l-0.25,0.15625
		c0.374023,3.125977,0.499023,5.313477,0.499023,9.220703v47.041016c0,8.750977,0.125,12.189453,0.624023,16.56543H1956.285278z"/>
	<path fill="#FFFFFF" d="M2056.380859,827.171875c-5.492188,0-9.361206,0.15625-13.72937,0.46875
		c0.873047-6.250977,1.123047-10.314453,1.123047-19.378906v-83.610352c0-6.719727-0.25-10.939453-0.999023-16.56543
		c3.870117,0.3125,6.366089,0.3125,13.605347,0.3125h26.585938c18.098633,0,28.208984,10.314453,28.208984,28.755859
		c0,9.064453-2.24707,15.94043-6.740234,20.941406c-2.621094,2.813477-4.868164,4.219727-9.860352,6.250977
		c5.741211,1.407227,8.736328,2.969727,12.106445,6.564453c5.118164,5.469727,7.739258,13.439453,7.739258,23.441406
		c0,20.941406-10.984375,32.819336-30.081055,32.819336H2056.380859z M2082.841797,759.345703
		c11.608398,0,18.472656-7.657227,18.472656-20.785156c0-12.970703-6.240234-19.535156-18.597656-19.535156h-29.332031v40.320313
		H2082.841797z M2053.384766,816.544922h30.081055c13.605469,0,20.844727-8.126953,20.844727-23.129883
		c0-15.47168-7.239258-23.442383-21.09375-23.442383h-29.832031V816.544922z"/>
</g>
<g enable-background="new    ">
	<path fill="#FFFFFF" d="M323.53479,1193.65918c9.361328,9.689453,13.979492,15.00293,25.337891,29.537109
		c5.367188-5.625977,11.982422-13.126953,16.600586-19.22168c6.865234-9.064453,15.352539-23.129883,20.594727-33.913086
		c0.374512-0.78125,0.499512-0.9375,0.999023-1.875977c-1.747559,0.15625-1.747559,0.15625-71.270508,0.3125
		c-6.740234,0-10.235352,0.15625-14.479004,0.625977v-12.34668c4.368652,0.78125,7.364258,0.9375,14.603516,0.9375h72.768555
		c4.368652,0,4.992676-0.15625,6.989746-1.09375l5.242188,7.814453c-1.498047,1.875-2.371582,3.28125-4.992676,8.282227
		c-12.231934,23.911133-25.462891,42.665039-41.189453,58.605469c4.742676,6.407227,9.860352,14.53418,18.223145,28.443359
		l-7.61377,7.969727c-11.358398-22.660156-29.956055-48.290039-48.678711-67.200195L323.53479,1193.65918z"/>
	<path fill="#FFFFFF" d="M416.1427,1252.733398c9.73584-0.46875,24.713867-5.313477,36.321777-12.033203
		c24.089844-13.44043,40.81543-36.413086,50.924805-69.544922c2.871094,4.844727,4.119141,6.250977,7.614258,9.220703
		c-9.985352,27.192383-21.592773,45.477539-38.069336,59.699219c-12.855957,10.939453-25.711914,17.34668-46.556641,23.285156
		c-3.370117,0.938477-4.368164,1.250977-7.48877,2.500977L416.1427,1252.733398z M424.130981,1155.839844
		c13.355469,10.626953,21.094238,18.285156,30.081055,29.380859l-6.490723,9.689453
		c-8.986816-12.19043-18.847168-22.348633-29.706055-30.630859L424.130981,1155.839844z"/>
	<path fill="#FFFFFF" d="M540.578735,1271.174805c0.5-4.219727,0.749023-7.970703,0.749023-16.40918v-97.050781
		c0-8.282227-0.249023-12.033203-0.749023-15.94043h10.734375c-0.499023,4.063477-0.624023,7.345703-0.624023,16.25293v29.224609
		c19.22168,8.595703,33.701172,17.191406,55.543945,32.975586l-5.367188,11.564453
		c-11.732422-10.314453-28.958008-21.878906-46.556641-30.943359c-1.87207-0.9375-2.746094-1.5625-3.869141-2.657227l-0.25,0.15625
		c0.375,3.125977,0.499023,5.313477,0.499023,9.220703v47.041016c0,8.750977,0.125,12.189453,0.624023,16.56543H540.578735z"/>
	<path fill="#FFFFFF" d="M652.65979,1148.025391c-0.499023,3.907227-0.499023,3.907227-0.749023,13.44043
		c-0.998047,42.351563-1.99707,53.916992-6.740234,69.701172c-4.243164,14.53418-10.234375,25.004883-21.592773,38.601563
		c-2.49707-4.063477-3.745117-5.469727-7.489258-8.439453c10.235352-10.158203,16.974609-21.410156,21.09375-35.944336
		c3.869141-13.59668,5.617188-34.069336,5.617188-67.044922c0-5.625977-0.125-7.500977-0.499023-11.095703L652.65979,1148.025391z
		 M683.613892,1146.306641c-0.624023,3.750977-0.748047,6.563477-0.748047,13.75293l-0.749023,94.393555
		c10.359375-4.844727,16.725586-9.845703,23.21582-18.128906c6.865234-8.908203,11.732422-19.222656,14.728516-31.255859
		c2.621094,4.219727,3.619141,5.625977,6.989258,9.064453c-6.116211,17.97168-14.353516,30.943359-25.087891,40.164063
		c-5.492188,4.688477-10.484375,7.813477-17.848633,11.408203c-2.24707,1.09375-2.24707,1.09375-3.994141,1.875
		c-1.498047,0.78125-1.748047,0.9375-2.871094,1.719727l-4.992188-7.189453c0.748047-2.65625,0.873047-3.907227,0.873047-10.626953
		l0.749023-91.423828c0-10.158203,0-10.158203-0.499023-13.90918L683.613892,1146.306641z"/>
</g>
<g id="g5142_1_" transform="matrix(1.5452791,0,0,1,-328.18721,-50.3595)">
	<path id="path4954_1_" d="M1217.234863,1212.185669h12.840332v-136.546875h-12.840332V1212.185669z"/>
	<path id="path5148_1_" stroke="#000000" stroke-width="3.85835" stroke-miterlimit="5" d="M1223.644287,1056.099731
		l25.798096,71.171875h-51.589844L1223.644287,1056.099731z"/>
</g>
</svg>
