<?xml version="1.0" encoding="utf-8"?>
<!-- Generator: Adobe Illustrator 16.0.3, SVG Export Plug-In . SVG Version: 6.00 Build 0)  -->
<!DOCTYPE svg PUBLIC "-//W3C//DTD SVG 1.1//EN" "http://www.w3.org/Graphics/SVG/1.1/DTD/svg11.dtd">
<svg version="1.1" id="レイヤー_1" xmlns="http://www.w3.org/2000/svg" xmlns:xlink="http://www.w3.org/1999/xlink" x="0px"
	 y="0px" width="104.197px" height="43.559px" viewBox="0 0 104.197 43.559" enable-background="new 0 0 104.197 43.559"
	 xml:space="preserve">
<g>
	<path fill="#231815" d="M50.358,9.324c-0.063-0.288-0.151-0.568-0.248-0.815l-0.415-1.032h-2.791l-0.416,1.032
		c-0.119,0.304-0.191,0.536-0.247,0.815h-0.832c0.16-0.264,0.216-0.384,0.432-0.919l1.791-4.414c0.152-0.376,0.216-0.56,0.256-0.744
		h0.808c0.032,0.152,0.072,0.256,0.272,0.744l1.791,4.414c0.199,0.479,0.304,0.711,0.423,0.919H50.358z M48.471,4.287
		c-0.024-0.064-0.024-0.072-0.176-0.512c-0.04,0.12-0.072,0.208-0.088,0.264c-0.048,0.128-0.072,0.216-0.088,0.248l-1.023,2.638
		h2.406L48.471,4.287z"/>
	<path fill="#231815" d="M54.487,9.148c0,0.335,0.018,0.567,0.049,0.784h-0.592c0.031-0.232,0.049-0.456,0.049-0.792V6.654
		c-0.393,0.392-0.607,0.576-1.104,0.943c-0.088-0.192-0.152-0.288-0.297-0.448c0.561-0.352,1-0.711,1.439-1.183
		c0.416-0.448,0.68-0.84,0.992-1.487h-1.496c-0.24,0-0.416,0.008-0.639,0.032V3.983c0.215,0.024,0.391,0.032,0.623,0.032h0.473
		V3.271c0-0.232-0.018-0.44-0.041-0.616h0.6c-0.031,0.168-0.047,0.376-0.047,0.624v0.735h0.463c0.24,0,0.367-0.008,0.463-0.024
		l0.248,0.28c-0.055,0.088-0.104,0.176-0.191,0.344c-0.24,0.488-0.504,0.896-0.879,1.359c0.408,0.472,0.734,0.751,1.287,1.087
		c-0.121,0.152-0.191,0.264-0.271,0.44c-0.504-0.352-0.801-0.616-1.129-1.008V9.148z M57.263,3.408c0-0.272-0.016-0.424-0.057-0.728
		h0.633c-0.049,0.28-0.057,0.456-0.057,0.728v1.727h1.047c0.344,0,0.561-0.016,0.785-0.048v0.56c-0.248-0.024-0.504-0.04-0.785-0.04
		h-1.047v3.414h1.264c0.416,0,0.656-0.016,0.863-0.048v0.6c-0.264-0.04-0.512-0.056-0.863-0.056h-2.879
		c-0.352,0-0.6,0.016-0.855,0.056v-0.6c0.209,0.032,0.447,0.048,0.863,0.048h1.088V5.606h-0.791c-0.271,0-0.537,0.016-0.783,0.04
		v-0.56c0.207,0.032,0.447,0.048,0.783,0.048h0.791V3.408z"/>
</g>
<g>
	<path fill="#231815" d="M46.536,20.506c0.145,0,0.232,0.104,0.232,0.279c0,0.168-0.088,0.28-0.232,0.28h-0.543v4.581
		c0,0.152-0.104,0.232-0.296,0.232c-0.185,0-0.296-0.08-0.296-0.232v-4.581h-0.647c-0.145,0-0.232-0.112-0.232-0.28
		s0.088-0.279,0.232-0.279h0.647v-1.808c0-0.144,0.111-0.231,0.296-0.231c0.191,0,0.296,0.088,0.296,0.231v1.808H46.536z
		 M46.64,22.881c-0.136,0-0.208-0.104-0.208-0.265c0-0.159,0.072-0.264,0.208-0.264h0.655c0.008-0.176,0.017-0.367,0.017-0.56
		c0-0.152,0.104-0.231,0.287-0.231c0.168,0,0.272,0.071,0.272,0.231c0,0.192-0.008,0.376-0.017,0.56h0.592
		c0.408,0,0.6,0.224,0.6,0.584c0,0.751-0.071,1.599-0.191,2.15c-0.096,0.448-0.336,0.624-0.823,0.624
		c-0.177,0-0.368-0.024-0.512-0.056c-0.137-0.024-0.225-0.12-0.225-0.256c0-0.017,0-0.04,0.008-0.064
		c0.024-0.144,0.12-0.216,0.225-0.216c0.023,0,0.04,0,0.063,0.008c0.112,0.032,0.264,0.057,0.384,0.057
		c0.225,0,0.32-0.064,0.352-0.296c0.089-0.416,0.152-1.16,0.152-1.8c0-0.151-0.088-0.207-0.216-0.207h-0.456
		c-0.128,1.103-0.479,2.063-1.071,2.774c-0.063,0.071-0.151,0.111-0.239,0.111c-0.064,0-0.128-0.016-0.177-0.056
		c-0.071-0.064-0.111-0.144-0.111-0.216s0.023-0.136,0.08-0.192c0.527-0.623,0.839-1.391,0.967-2.422H46.64z M50.837,19.194
		c0.408,0,0.656,0.2,0.648,0.632c-0.009,0.384-0.08,0.823-0.192,1.056c-0.128,0.319-0.384,0.479-0.968,0.479
		c-0.304,0-0.6-0.032-0.863-0.088c-0.12-0.024-0.2-0.12-0.2-0.24c0-0.023,0-0.056,0.009-0.08c0.031-0.144,0.119-0.208,0.231-0.208
		c0.024,0,0.048,0,0.072,0.009c0.199,0.04,0.447,0.088,0.672,0.088c0.359,0,0.455-0.057,0.52-0.216
		c0.08-0.16,0.119-0.456,0.128-0.696c0-0.008,0-0.016,0-0.023c0-0.136-0.08-0.176-0.216-0.176h-1.544
		c-0.327,0.831-0.943,1.375-1.895,1.791c-0.056,0.023-0.104,0.031-0.144,0.031c-0.112,0-0.2-0.063-0.248-0.176
		c-0.017-0.04-0.024-0.08-0.024-0.12c0-0.104,0.057-0.191,0.185-0.239c0.743-0.32,1.215-0.688,1.503-1.287H47.16
		c-0.144,0-0.224-0.104-0.224-0.272c0-0.159,0.08-0.264,0.224-0.264h1.543c0.048-0.176,0.088-0.368,0.112-0.575
		c0.023-0.152,0.112-0.208,0.279-0.208c0.009,0,0.017,0,0.032,0c0.16,0.008,0.272,0.096,0.272,0.239c0,0.017,0,0.024,0,0.032
		c-0.024,0.184-0.057,0.352-0.097,0.512H50.837z M49.462,22.881c-0.144,0-0.216-0.112-0.216-0.272c0-0.151,0.072-0.264,0.216-0.264
		h0.56c0.008-0.176,0.017-0.368,0.017-0.56c0-0.152,0.104-0.232,0.287-0.232c0.168,0,0.288,0.072,0.288,0.232
		c0,0.191-0.008,0.376-0.016,0.56h0.72c0.407,0,0.607,0.231,0.607,0.607c0,0.815-0.047,1.615-0.16,2.087
		c-0.104,0.496-0.336,0.672-0.855,0.672c-0.224,0-0.456-0.032-0.632-0.072c-0.128-0.032-0.191-0.12-0.191-0.248
		c0-0.023,0-0.048,0.008-0.079c0.023-0.137,0.12-0.208,0.224-0.208c0.024,0,0.04,0,0.064,0.008c0.104,0.032,0.304,0.072,0.439,0.072
		c0.248,0,0.336-0.072,0.384-0.288c0.104-0.464,0.144-1.151,0.144-1.808c0-0.151-0.088-0.207-0.224-0.207h-0.567
		c-0.128,1.19-0.488,2.11-1.063,2.774c-0.08,0.079-0.168,0.119-0.256,0.119c-0.072,0-0.136-0.023-0.192-0.071
		c-0.056-0.048-0.096-0.12-0.096-0.2c0-0.063,0.024-0.136,0.088-0.2c0.52-0.575,0.832-1.359,0.943-2.422H49.462z"/>
	<path fill="#231815" d="M53.905,21.425c-0.145,0-0.225-0.128-0.225-0.287c0-0.16,0.08-0.272,0.225-0.272h4.781
		c0.143,0,0.223,0.112,0.223,0.272c0,0.159-0.08,0.287-0.223,0.287h-2.031v1.248h2.135c0.135,0,0.215,0.119,0.215,0.271
		c0,0.16-0.08,0.288-0.215,0.288h-2.135v1.695c0.359,0.063,0.814,0.088,1.318,0.088c0.488,0,1.016-0.024,1.561-0.057
		c0.008,0,0.008,0,0.016,0c0.191,0,0.271,0.12,0.271,0.304c0,0.009,0,0.017,0,0.024c0,0.184-0.111,0.296-0.287,0.304
		c-0.441,0.024-0.848,0.032-1.225,0.032c-0.639,0-1.191-0.032-1.695-0.12c-1.031-0.168-1.822-0.64-2.27-1.455
		c-0.264,0.615-0.625,1.184-1.064,1.647c-0.055,0.063-0.135,0.104-0.223,0.104c-0.072,0-0.152-0.024-0.225-0.088
		c-0.072-0.072-0.111-0.16-0.111-0.248c0-0.072,0.031-0.144,0.08-0.208c0.791-0.743,1.262-1.839,1.414-2.982
		c0.025-0.136,0.121-0.208,0.264-0.208c0.033,0,0.064,0,0.096,0.009c0.16,0.031,0.256,0.136,0.256,0.271c0,0.016,0,0.04-0.008,0.056
		c-0.055,0.36-0.143,0.712-0.256,1.048c0.313,0.615,0.824,1.087,1.48,1.319v-3.343H53.905z M59.054,19.362
		c0.463,0,0.688,0.184,0.688,0.647v0.824c0,0.159-0.127,0.231-0.313,0.231c-0.184,0-0.326-0.072-0.326-0.231v-0.68
		c0-0.168-0.072-0.225-0.248-0.225h-5.117c-0.168,0-0.248,0.057-0.248,0.225v0.68c0,0.159-0.145,0.231-0.328,0.231
		c-0.176,0-0.313-0.072-0.313-0.231V20.01c0-0.464,0.225-0.647,0.688-0.647h2.391V18.73c0-0.168,0.113-0.256,0.313-0.256
		c0.207,0,0.313,0.088,0.313,0.256v0.632H59.054z"/>
</g>
<rect x="38.25" y="0.375" fill="none" stroke="#231815" stroke-width="0.75" stroke-miterlimit="10" width="28.347" height="12.75"/>
<g>
	<path fill="#231815" d="M9.069,39.383c-0.352,0-0.6,0.008-0.88,0.023c0.057-0.32,0.072-0.527,0.072-0.991v-4.278
		c0-0.344-0.016-0.559-0.063-0.848c0.247,0.017,0.407,0.017,0.871,0.017h1.703c1.159,0,1.807,0.528,1.807,1.472
		c0,0.463-0.144,0.814-0.432,1.07c-0.168,0.145-0.312,0.217-0.632,0.32c0.368,0.072,0.561,0.152,0.776,0.336
		c0.327,0.279,0.495,0.688,0.495,1.199c0,1.071-0.703,1.68-1.927,1.68H9.069z M10.764,35.912c0.743,0,1.184-0.392,1.184-1.063
		c0-0.663-0.4-0.999-1.191-0.999H8.877v2.063H10.764z M8.877,38.839h1.927c0.871,0,1.335-0.416,1.335-1.184
		c0-0.792-0.464-1.199-1.352-1.199h-1.91V38.839z"/>
	<path fill="#231815" d="M16.613,39.207c0,0.335,0.017,0.566,0.048,0.783H16.07c0.031-0.232,0.048-0.456,0.048-0.792v-2.486
		c-0.392,0.392-0.607,0.575-1.104,0.943c-0.088-0.192-0.152-0.288-0.296-0.448c0.56-0.352,0.999-0.711,1.439-1.183
		c0.415-0.448,0.68-0.84,0.991-1.487h-1.495c-0.24,0-0.416,0.008-0.64,0.031v-0.527c0.216,0.024,0.392,0.032,0.623,0.032h0.473
		V33.33c0-0.232-0.017-0.44-0.04-0.616h0.6c-0.032,0.168-0.048,0.376-0.048,0.624v0.735h0.463c0.24,0,0.368-0.008,0.464-0.024
		l0.248,0.28c-0.056,0.088-0.104,0.176-0.191,0.344c-0.24,0.487-0.504,0.896-0.88,1.359c0.408,0.472,0.735,0.751,1.287,1.087
		c-0.12,0.152-0.191,0.264-0.271,0.44c-0.504-0.353-0.8-0.616-1.128-1.008V39.207z M19.387,33.466c0-0.272-0.016-0.424-0.056-0.728
		h0.632c-0.048,0.279-0.056,0.455-0.056,0.728v1.727h1.047c0.344,0,0.56-0.016,0.784-0.048v0.56c-0.248-0.024-0.504-0.04-0.784-0.04
		h-1.047v3.414h1.263c0.416,0,0.656-0.016,0.863-0.048v0.601c-0.264-0.041-0.512-0.057-0.863-0.057h-2.878
		c-0.353,0-0.6,0.016-0.855,0.057V39.03c0.208,0.032,0.447,0.048,0.863,0.048h1.087v-3.414h-0.791c-0.271,0-0.536,0.016-0.783,0.04
		v-0.56c0.207,0.032,0.447,0.048,0.783,0.048h0.791V33.466z"/>
</g>
<rect x="0.375" y="30.434" fill="none" stroke="#231815" stroke-width="0.75" stroke-miterlimit="10" width="28.347" height="12.75"/>
<g>
	<path fill="#231815" d="M87.686,35.033c-0.12-0.344-0.208-0.512-0.376-0.704c-0.32-0.376-0.8-0.575-1.384-0.575
		c-1.295,0-2.11,0.991-2.11,2.582c0,1.583,0.823,2.591,2.11,2.591c0.632,0,1.168-0.24,1.495-0.672
		c0.168-0.231,0.248-0.432,0.32-0.792l0.663,0.152c-0.136,0.472-0.239,0.695-0.432,0.951c-0.447,0.6-1.175,0.928-2.07,0.928
		c-0.768,0-1.415-0.24-1.871-0.703c-0.56-0.561-0.863-1.432-0.863-2.432c0-1.031,0.319-1.902,0.911-2.486
		c0.464-0.447,1.071-0.68,1.831-0.68c0.752,0,1.359,0.217,1.791,0.648c0.28,0.271,0.432,0.512,0.624,1.007L87.686,35.033z"/>
	<path fill="#231815" d="M91.967,39.207c0,0.335,0.017,0.566,0.048,0.783h-0.591c0.031-0.232,0.048-0.456,0.048-0.792v-2.486
		c-0.392,0.392-0.607,0.575-1.104,0.943c-0.088-0.192-0.152-0.288-0.296-0.448c0.56-0.352,0.999-0.711,1.439-1.183
		c0.415-0.448,0.68-0.84,0.991-1.487h-1.495c-0.24,0-0.416,0.008-0.64,0.031v-0.527c0.216,0.024,0.392,0.032,0.623,0.032h0.473
		V33.33c0-0.232-0.017-0.44-0.04-0.616h0.6c-0.032,0.168-0.048,0.376-0.048,0.624v0.735h0.463c0.24,0,0.368-0.008,0.464-0.024
		l0.248,0.28c-0.056,0.088-0.104,0.176-0.191,0.344c-0.24,0.487-0.504,0.896-0.88,1.359c0.408,0.472,0.735,0.751,1.287,1.087
		c-0.12,0.152-0.191,0.264-0.271,0.44c-0.504-0.353-0.8-0.616-1.128-1.008V39.207z M94.741,33.466c0-0.272-0.016-0.424-0.056-0.728
		h0.632c-0.048,0.279-0.056,0.455-0.056,0.728v1.727h1.047c0.344,0,0.56-0.016,0.784-0.048v0.56c-0.248-0.024-0.504-0.04-0.784-0.04
		h-1.047v3.414h1.263c0.416,0,0.656-0.016,0.863-0.048v0.601c-0.264-0.041-0.512-0.057-0.863-0.057h-2.878
		c-0.353,0-0.6,0.016-0.855,0.057V39.03c0.208,0.032,0.447,0.048,0.863,0.048h1.087v-3.414H93.95c-0.271,0-0.536,0.016-0.783,0.04
		v-0.56c0.207,0.032,0.447,0.048,0.783,0.048h0.791V33.466z"/>
</g>
<rect x="75.476" y="30.434" fill="none" stroke="#231815" stroke-width="0.75" stroke-miterlimit="10" width="28.347" height="12.75"/>
<g>
	<path fill="none" stroke="#231815" stroke-width="0.5" stroke-miterlimit="10" d="M38.735,23.55c0,2.349,1.903,4.252,4.252,4.252
		h19.842c2.349,0,4.252-1.903,4.252-4.252v-2.746c0-2.348-1.903-4.252-4.252-4.252H42.987c-2.349,0-4.252,1.904-4.252,4.252V23.55z"
		/>
</g>
<line fill="none" stroke="#231815" stroke-width="0.75" stroke-miterlimit="10" x1="14.548" y1="30.434" x2="38.25" y2="6.75"/>
<line fill="none" stroke="#231815" stroke-width="0.75" stroke-miterlimit="10" x1="90.299" y1="30.434" x2="66.597" y2="6.75"/>
<line fill="none" stroke="#231815" stroke-width="0.75" stroke-miterlimit="10" x1="28.722" y1="36.809" x2="75.476" y2="36.809"/>
</svg>
