<?xml version="1.0" encoding="utf-8"?>
<!-- Generator: Adobe Illustrator 16.0.3, SVG Export Plug-In . SVG Version: 6.00 Build 0)  -->
<!DOCTYPE svg PUBLIC "-//W3C//DTD SVG 1.1//EN" "http://www.w3.org/Graphics/SVG/1.1/DTD/svg11.dtd">
<svg version="1.1" id="レイヤー_1" xmlns="http://www.w3.org/2000/svg" xmlns:xlink="http://www.w3.org/1999/xlink" x="0px"
	 y="0px" width="141.419px" height="62.248px" viewBox="0 0 141.419 62.248" enable-background="new 0 0 141.419 62.248"
	 xml:space="preserve">
<rect x="128.828" y="9.58" fill="none" stroke="#000000" stroke-width="0.5" stroke-miterlimit="10" width="12.342" height="18.486"/>
<rect x="134.381" y="35.256" fill="none" stroke="#000000" stroke-width="0.5" stroke-miterlimit="10" width="6.788" height="18.487"/>
<rect x="95.875" y="9.58" fill="none" stroke="#000000" stroke-width="0.5" stroke-miterlimit="10" width="32.952" height="18.486"/>
<rect x="107.6" y="35.256" fill="none" stroke="#000000" stroke-width="0.5" stroke-miterlimit="10" width="26.781" height="18.487"/>
<rect x="58.479" y="9.58" fill="none" stroke="#000000" stroke-width="0.5" stroke-miterlimit="10" width="37.396" height="18.486"/>
<rect x="68.106" y="35.256" fill="none" stroke="#000000" stroke-width="0.5" stroke-miterlimit="10" width="39.494" height="18.487"/>
<rect x="17.752" y="9.58" fill="none" stroke="#000000" stroke-width="0.5" stroke-miterlimit="10" width="40.727" height="18.486"/>
<rect x="17.752" y="35.256" fill="none" stroke="#000000" stroke-width="0.5" stroke-miterlimit="10" width="50.354" height="18.487"/>
<g>
	<path fill="#231815" d="M0.014,41.627c0.182,0.028,0.314,0.035,0.581,0.035h0.441c0.238,0,0.35-0.007,0.581-0.035
		c-0.042,0.428-0.063,0.784-0.063,1.163v3.403c0,0.329,0.015,0.532,0.057,0.792H0.945c0.042-0.245,0.056-0.47,0.056-0.792v-4.055
		H0.623c-0.225,0-0.406,0.014-0.609,0.042V41.627z"/>
	<path fill="#231815" d="M4.514,45.822c0.084,0.231,0.141,0.329,0.252,0.448C4.962,46.488,5.264,46.6,5.648,46.6
		c0.504,0,0.868-0.203,1.128-0.645c0.133-0.224,0.245-0.566,0.301-0.896c0.028-0.175,0.049-0.462,0.063-0.819
		c-0.099,0.189-0.154,0.26-0.28,0.393c-0.357,0.336-0.75,0.49-1.274,0.49c-0.519,0-0.96-0.161-1.261-0.462
		c-0.302-0.302-0.477-0.764-0.477-1.261c0-1.114,0.749-1.842,1.898-1.842c0.784,0,1.429,0.448,1.694,1.176
		c0.141,0.379,0.203,0.854,0.203,1.457c0,0.974-0.203,1.765-0.581,2.234c-0.351,0.441-0.813,0.651-1.457,0.651
		c-0.483,0-0.875-0.126-1.177-0.378c-0.196-0.161-0.308-0.322-0.49-0.693L4.514,45.822z M7.007,43.357
		c0-0.757-0.56-1.324-1.31-1.324c-0.462,0-0.882,0.225-1.113,0.596c-0.112,0.182-0.182,0.462-0.182,0.735
		c0,0.791,0.482,1.288,1.246,1.288C6.426,44.652,7.007,44.1,7.007,43.357z"/>
	<path fill="#231815" d="M9.315,43.693c-0.014,0.126-0.014,0.126-0.056,0.315c0.336-0.322,0.742-0.483,1.226-0.483
		c0.512,0,0.945,0.168,1.261,0.476c0.315,0.302,0.469,0.715,0.469,1.233c0,1.127-0.735,1.849-1.891,1.849
		c-0.546,0-1.002-0.161-1.338-0.477c-0.175-0.175-0.273-0.321-0.441-0.658l0.574-0.168c0.07,0.196,0.119,0.287,0.225,0.406
		c0.238,0.267,0.588,0.413,0.994,0.413c0.785,0,1.31-0.532,1.31-1.338c0-0.77-0.482-1.274-1.226-1.274
		c-0.356,0-0.665,0.099-0.917,0.294c-0.168,0.134-0.245,0.231-0.322,0.421l-0.525-0.05c0.056-0.272,0.077-0.42,0.105-0.721
		l0.153-1.583c0.015-0.203,0.021-0.287,0.021-0.42c0-0.099,0-0.126-0.014-0.302c0.217,0.028,0.329,0.035,0.742,0.035h1.442
		c0.379,0,0.539-0.014,0.819-0.056v0.595c-0.266-0.042-0.49-0.056-0.819-0.056H9.463L9.315,43.693z"/>
	<path fill="#231815" d="M13.697,46.593c-0.189-0.189-0.336-0.406-0.42-0.645c-0.176-0.49-0.267-1.043-0.267-1.617
		c0-0.743,0.161-1.499,0.406-1.905c0.336-0.567,0.876-0.861,1.569-0.861c0.518,0,0.966,0.168,1.281,0.497
		c0.196,0.196,0.336,0.413,0.42,0.645c0.176,0.483,0.267,1.043,0.267,1.625c0,0.847-0.183,1.597-0.49,2.023
		c-0.351,0.49-0.841,0.735-1.485,0.735C14.461,47.09,14.026,46.922,13.697,46.593z M14.104,42.404
		c-0.147,0.161-0.259,0.337-0.315,0.512c-0.146,0.427-0.217,0.903-0.217,1.415c0,0.651,0.14,1.337,0.329,1.666
		c0.245,0.406,0.609,0.609,1.086,0.609c0.35,0,0.651-0.111,0.861-0.329c0.153-0.161,0.266-0.343,0.329-0.546
		c0.146-0.435,0.217-0.896,0.217-1.415c0-0.609-0.133-1.303-0.315-1.632c-0.23-0.42-0.609-0.637-1.1-0.637
		C14.614,42.048,14.327,42.166,14.104,42.404z"/>
</g>
<g>
	<path fill="#231815" d="M0,16.049c0.182,0.028,0.314,0.035,0.581,0.035h0.441c0.238,0,0.35-0.007,0.581-0.035
		c-0.042,0.428-0.063,0.784-0.063,1.163v3.403c0,0.329,0.015,0.532,0.057,0.792H0.932c0.042-0.245,0.056-0.47,0.056-0.792v-4.055
		H0.609c-0.225,0-0.406,0.014-0.609,0.042V16.049z"/>
	<path fill="#231815" d="M4.5,20.244c0.084,0.231,0.141,0.329,0.252,0.448c0.196,0.218,0.498,0.329,0.883,0.329
		c0.504,0,0.868-0.203,1.128-0.645c0.133-0.224,0.245-0.566,0.301-0.896c0.028-0.175,0.049-0.462,0.063-0.819
		c-0.099,0.189-0.154,0.26-0.28,0.393c-0.357,0.336-0.75,0.49-1.274,0.49c-0.519,0-0.96-0.161-1.261-0.462
		c-0.302-0.302-0.477-0.764-0.477-1.261c0-1.114,0.749-1.842,1.898-1.842c0.784,0,1.429,0.448,1.694,1.176
		c0.141,0.379,0.203,0.854,0.203,1.457c0,0.974-0.203,1.765-0.581,2.234c-0.351,0.441-0.813,0.651-1.457,0.651
		c-0.483,0-0.875-0.126-1.177-0.378c-0.196-0.161-0.308-0.322-0.49-0.693L4.5,20.244z M6.993,17.779c0-0.757-0.56-1.324-1.31-1.324
		c-0.462,0-0.882,0.225-1.113,0.596c-0.112,0.182-0.182,0.462-0.182,0.735c0,0.791,0.482,1.288,1.246,1.288
		C6.412,19.074,6.993,18.521,6.993,17.779z"/>
	<path fill="#231815" d="M8.286,19.551c0.147-0.168,0.309-0.364,0.455-0.539l1.772-2.213c0.238-0.295,0.364-0.47,0.525-0.715h0.525
		c-0.035,0.413-0.042,0.631-0.042,1.184v2.298h0.266c0.294,0,0.477-0.015,0.729-0.05v0.582c-0.259-0.035-0.435-0.05-0.735-0.05
		h-0.259v0.603c0,0.336,0.014,0.497,0.056,0.757H10.94c0.043-0.245,0.057-0.441,0.057-0.757v-0.603H9.12
		c-0.393,0-0.603,0.008-0.834,0.028V19.551z M11.004,17.793c0-0.371,0.007-0.596,0.042-0.952c-0.147,0.21-0.322,0.44-0.525,0.7
		l-1.61,2.031h2.094V17.793z"/>
	<path fill="#231815" d="M13.824,16.049c0.182,0.028,0.314,0.035,0.581,0.035h0.441c0.238,0,0.35-0.007,0.581-0.035
		c-0.042,0.428-0.063,0.784-0.063,1.163v3.403c0,0.329,0.015,0.532,0.057,0.792h-0.665c0.042-0.245,0.056-0.47,0.056-0.792v-4.055
		h-0.378c-0.225,0-0.406,0.014-0.609,0.042V16.049z"/>
</g>
<g>
	<path fill="#231815" d="M27.555,24.553c0.112,0.364,0.21,0.511,0.428,0.665c0.238,0.168,0.546,0.252,0.903,0.252
		c0.813,0,1.323-0.42,1.323-1.085c0-0.693-0.497-1.072-1.429-1.072c-0.196,0-0.371,0.015-0.56,0.035v-0.553
		c0.16,0.027,0.329,0.042,0.518,0.042c0.463,0,0.806-0.105,1.022-0.322c0.176-0.168,0.28-0.428,0.28-0.68
		c0-0.603-0.42-0.952-1.127-0.952c-0.428,0-0.736,0.119-0.932,0.371c-0.099,0.126-0.147,0.238-0.225,0.497l-0.581-0.126
		c0.119-0.357,0.203-0.519,0.378-0.7c0.309-0.336,0.784-0.512,1.394-0.512c1.016,0,1.66,0.532,1.66,1.373
		c0,0.428-0.182,0.806-0.49,1.022c-0.182,0.133-0.336,0.189-0.658,0.252c0.406,0.042,0.623,0.119,0.861,0.302
		c0.309,0.238,0.47,0.609,0.47,1.058c0,0.945-0.729,1.533-1.898,1.533c-0.707,0-1.232-0.196-1.568-0.574
		c-0.147-0.168-0.231-0.322-0.357-0.679L27.555,24.553z"/>
	<path fill="#231815" d="M32.153,24.553c0.112,0.364,0.21,0.511,0.428,0.665c0.237,0.168,0.546,0.252,0.903,0.252
		c0.813,0,1.323-0.42,1.323-1.085c0-0.693-0.497-1.072-1.429-1.072c-0.196,0-0.371,0.015-0.561,0.035v-0.553
		c0.161,0.027,0.33,0.042,0.519,0.042c0.463,0,0.806-0.105,1.022-0.322c0.176-0.168,0.28-0.428,0.28-0.68
		c0-0.603-0.42-0.952-1.127-0.952c-0.428,0-0.736,0.119-0.932,0.371c-0.099,0.126-0.147,0.238-0.225,0.497l-0.581-0.126
		c0.119-0.357,0.203-0.519,0.378-0.7c0.309-0.336,0.784-0.512,1.394-0.512c1.016,0,1.66,0.532,1.66,1.373
		c0,0.428-0.182,0.806-0.49,1.022c-0.182,0.133-0.336,0.189-0.658,0.252c0.406,0.042,0.623,0.119,0.861,0.302
		c0.309,0.238,0.47,0.609,0.47,1.058c0,0.945-0.729,1.533-1.898,1.533c-0.707,0-1.232-0.196-1.569-0.574
		c-0.146-0.168-0.23-0.322-0.356-0.679L32.153,24.553z"/>
	<path fill="#231815" d="M37.032,25.155v0.693h-0.693v-0.693H37.032z"/>
	<path fill="#231815" d="M38.544,25.456c-0.189-0.189-0.336-0.406-0.42-0.645c-0.176-0.49-0.267-1.043-0.267-1.617
		c0-0.743,0.161-1.499,0.406-1.905c0.336-0.567,0.876-0.861,1.569-0.861c0.518,0,0.966,0.168,1.281,0.497
		c0.196,0.196,0.336,0.413,0.42,0.645c0.176,0.483,0.267,1.043,0.267,1.625c0,0.847-0.183,1.597-0.49,2.023
		c-0.351,0.49-0.841,0.735-1.485,0.735C39.308,25.953,38.873,25.785,38.544,25.456z M38.95,21.268
		c-0.147,0.161-0.259,0.337-0.315,0.512c-0.146,0.427-0.217,0.903-0.217,1.415c0,0.651,0.14,1.337,0.329,1.666
		c0.245,0.406,0.609,0.609,1.086,0.609c0.35,0,0.651-0.111,0.861-0.329c0.153-0.161,0.266-0.343,0.329-0.546
		c0.146-0.435,0.217-0.896,0.217-1.415c0-0.609-0.133-1.303-0.315-1.632c-0.23-0.42-0.609-0.637-1.1-0.637
		C39.461,20.911,39.174,21.029,38.95,21.268z"/>
	<path fill="#231815" d="M43.233,23.138c-0.252-0.245-0.385-0.658-0.385-1.177c0-0.938,0.448-1.491,1.219-1.491
		c0.763,0,1.211,0.546,1.211,1.491c0,0.519-0.133,0.932-0.385,1.177c-0.21,0.203-0.497,0.315-0.826,0.315
		C43.73,23.453,43.443,23.341,43.233,23.138z M43.317,21.961c0,0.687,0.273,1.079,0.75,1.079c0.469,0,0.742-0.393,0.742-1.079
		c0-0.693-0.267-1.078-0.742-1.078C43.584,20.883,43.317,21.274,43.317,21.961z M47.604,20.428l0.295,0.224l-4.245,5.372
		l-0.294-0.231L47.604,20.428z M46.364,25.673c-0.252-0.245-0.385-0.658-0.385-1.176c0-0.938,0.448-1.492,1.218-1.492
		c0.771,0,1.212,0.546,1.212,1.499c0,0.511-0.133,0.924-0.385,1.169c-0.21,0.203-0.497,0.315-0.827,0.315
		C46.861,25.988,46.574,25.884,46.364,25.673z M46.448,24.497c0,0.686,0.273,1.078,0.749,1.078c0.47,0,0.743-0.393,0.743-1.078
		c0-0.693-0.267-1.079-0.743-1.079C46.715,23.418,46.448,23.811,46.448,24.497z"/>
</g>
<g>
	<path fill="#231815" d="M70.396,24.553c0.112,0.364,0.21,0.511,0.428,0.665c0.238,0.168,0.546,0.252,0.903,0.252
		c0.813,0,1.324-0.42,1.324-1.085c0-0.693-0.498-1.072-1.43-1.072c-0.196,0-0.371,0.015-0.559,0.035v-0.553
		c0.16,0.027,0.329,0.042,0.518,0.042c0.463,0,0.805-0.105,1.021-0.322c0.176-0.168,0.281-0.428,0.281-0.68
		c0-0.603-0.42-0.952-1.127-0.952c-0.428,0-0.737,0.119-0.932,0.371c-0.099,0.126-0.147,0.238-0.225,0.497l-0.581-0.126
		c0.119-0.357,0.203-0.519,0.378-0.7c0.309-0.336,0.784-0.512,1.393-0.512c1.016,0,1.66,0.532,1.66,1.373
		c0,0.428-0.182,0.806-0.49,1.022c-0.182,0.133-0.336,0.189-0.658,0.252c0.406,0.042,0.623,0.119,0.861,0.302
		c0.309,0.238,0.471,0.609,0.471,1.058c0,0.945-0.729,1.533-1.898,1.533c-0.708,0-1.233-0.196-1.569-0.574
		c-0.147-0.168-0.231-0.322-0.357-0.679L70.396,24.553z"/>
	<path fill="#231815" d="M75.107,25.456c-0.189-0.189-0.336-0.406-0.42-0.645c-0.176-0.49-0.268-1.043-0.268-1.617
		c0-0.743,0.162-1.499,0.406-1.905c0.336-0.567,0.877-0.861,1.57-0.861c0.518,0,0.965,0.168,1.281,0.497
		c0.195,0.196,0.336,0.413,0.42,0.645c0.176,0.483,0.266,1.043,0.266,1.625c0,0.847-0.182,1.597-0.49,2.023
		c-0.35,0.49-0.84,0.735-1.484,0.735C75.871,25.953,75.435,25.785,75.107,25.456z M75.513,21.268
		c-0.148,0.161-0.26,0.337-0.316,0.512c-0.146,0.427-0.217,0.903-0.217,1.415c0,0.651,0.141,1.337,0.33,1.666
		c0.244,0.406,0.609,0.609,1.086,0.609c0.35,0,0.65-0.111,0.861-0.329c0.152-0.161,0.266-0.343,0.328-0.546
		c0.146-0.435,0.217-0.896,0.217-1.415c0-0.609-0.133-1.303-0.314-1.632c-0.23-0.42-0.609-0.637-1.1-0.637
		C76.023,20.911,75.736,21.029,75.513,21.268z"/>
	<path fill="#231815" d="M79.873,25.155v0.693h-0.693v-0.693H79.873z"/>
	<path fill="#231815" d="M81.273,24.553c0.111,0.364,0.209,0.511,0.428,0.665c0.238,0.168,0.545,0.252,0.902,0.252
		c0.813,0,1.324-0.42,1.324-1.085c0-0.693-0.498-1.072-1.43-1.072c-0.195,0-0.371,0.015-0.559,0.035v-0.553
		c0.16,0.027,0.328,0.042,0.518,0.042c0.463,0,0.805-0.105,1.021-0.322c0.176-0.168,0.281-0.428,0.281-0.68
		c0-0.603-0.42-0.952-1.127-0.952c-0.428,0-0.736,0.119-0.932,0.371c-0.1,0.126-0.148,0.238-0.225,0.497l-0.582-0.126
		c0.119-0.357,0.203-0.519,0.379-0.7c0.309-0.336,0.783-0.512,1.393-0.512c1.016,0,1.66,0.532,1.66,1.373
		c0,0.428-0.182,0.806-0.49,1.022c-0.182,0.133-0.336,0.189-0.658,0.252c0.406,0.042,0.623,0.119,0.861,0.302
		c0.309,0.238,0.471,0.609,0.471,1.058c0,0.945-0.729,1.533-1.898,1.533c-0.707,0-1.232-0.196-1.568-0.574
		c-0.148-0.168-0.232-0.322-0.357-0.679L81.273,24.553z"/>
</g>
<g>
	<path fill="#231815" d="M106.759,25.849c-0.441,0-0.547,0.007-0.771,0.035c0.078-0.554,0.1-0.659,0.203-0.925
		c0.176-0.441,0.471-0.826,0.91-1.205c0.246-0.21,0.26-0.217,1.072-0.771c0.693-0.469,0.924-0.777,0.924-1.204
		c0-0.532-0.447-0.876-1.162-0.876c-0.461,0-0.805,0.154-1.016,0.456c-0.133,0.188-0.195,0.356-0.244,0.707l-0.588-0.099
		c0.104-0.504,0.209-0.749,0.439-1.008c0.316-0.357,0.793-0.539,1.408-0.539c1.059,0,1.738,0.532,1.738,1.358
		c0,0.357-0.141,0.693-0.414,0.994c-0.211,0.238-0.393,0.371-1.191,0.903c-0.553,0.372-0.777,0.567-1.008,0.862
		c-0.217,0.287-0.314,0.476-0.398,0.813h2.232c0.352,0,0.59-0.015,0.855-0.05v0.589c-0.279-0.028-0.512-0.042-0.861-0.042H106.759z"
		/>
	<path fill="#231815" d="M113.689,21.688c-0.09-0.225-0.139-0.322-0.244-0.441c-0.211-0.231-0.484-0.351-0.834-0.351
		c-0.547,0-0.959,0.294-1.211,0.869c-0.182,0.42-0.246,0.742-0.295,1.505c0.127-0.217,0.197-0.314,0.35-0.448
		c0.33-0.294,0.701-0.427,1.184-0.427c1.086,0,1.76,0.672,1.76,1.751c0,1.086-0.729,1.8-1.836,1.8c-0.498,0-0.967-0.161-1.268-0.441
		c-0.455-0.42-0.707-1.204-0.707-2.199c0-0.875,0.195-1.659,0.531-2.115c0.371-0.504,0.869-0.763,1.479-0.763
		c0.42,0,0.799,0.104,1.064,0.294c0.246,0.175,0.385,0.364,0.588,0.784L113.689,21.688z M112.562,22.864
		c-0.35,0-0.721,0.154-0.967,0.399c-0.23,0.231-0.35,0.54-0.35,0.89c0,0.757,0.566,1.316,1.324,1.316
		c0.455,0,0.875-0.217,1.092-0.566c0.111-0.183,0.182-0.47,0.182-0.743C113.843,23.334,113.382,22.864,112.562,22.864z"/>
	<path fill="#231815" d="M115.957,25.155v0.693h-0.693v-0.693H115.957z"/>
	<path fill="#231815" d="M120.599,21.002c-0.127,0.098-0.246,0.252-0.52,0.672c-0.629,0.974-0.924,1.569-1.197,2.424
		c-0.182,0.581-0.26,0.938-0.371,1.751h-0.666c0.225-1.268,0.414-1.898,0.848-2.795c0.336-0.7,0.639-1.184,1.262-2.031h-2.277
		c-0.328,0-0.525,0.015-0.791,0.049v-0.595c0.273,0.035,0.463,0.049,0.799,0.049h2.102c0.412,0,0.566-0.007,0.813-0.035V21.002z"/>
</g>
<g>
	<path fill="#231815" d="M26.313,14.432c-0.014,0.126-0.014,0.126-0.056,0.315c0.336-0.322,0.742-0.483,1.226-0.483
		c0.512,0,0.945,0.168,1.261,0.477c0.315,0.308,0.47,0.721,0.47,1.239c0,1.128-0.735,1.849-1.892,1.849
		c-0.546,0-1.001-0.161-1.338-0.483c-0.175-0.168-0.272-0.314-0.44-0.651l0.574-0.175c0.069,0.196,0.119,0.294,0.224,0.413
		c0.238,0.267,0.589,0.413,0.995,0.413c0.784,0,1.31-0.532,1.31-1.337c0-0.777-0.483-1.282-1.226-1.282
		c-0.357,0-0.666,0.099-0.918,0.294c-0.168,0.134-0.245,0.231-0.322,0.421l-0.525-0.049c0.057-0.273,0.077-0.414,0.105-0.722
		l0.154-1.583c0.014-0.203,0.021-0.287,0.021-0.42c0-0.099,0-0.126-0.014-0.302c0.217,0.028,0.329,0.035,0.742,0.035h1.442
		c0.379,0,0.54-0.014,0.82-0.056v0.595c-0.267-0.042-0.49-0.056-0.82-0.056H26.46L26.313,14.432z"/>
	<path fill="#231815" d="M32.108,17.514c0,0.259,0.014,0.469,0.049,0.707h-0.519c0.035-0.245,0.05-0.455,0.05-0.707v-0.47
		c-0.211,0.035-0.337,0.056-0.441,0.091l-0.077-0.504c0.203,0,0.21,0,0.519-0.042V13.29c0-0.294-0.008-0.462-0.028-0.638
		c0.764-0.111,1.709-0.448,2.08-0.735l0.294,0.406c-0.645,0.322-1.232,0.532-1.926,0.68v0.693h1.135
		c0.272,0,0.434-0.007,0.623-0.035v0.455c-0.175-0.021-0.336-0.027-0.609-0.027h-1.148v0.91h1.128c0.272,0,0.42-0.007,0.616-0.035
		v0.455c-0.168-0.021-0.344-0.027-0.609-0.027h-1.135v1.142c0.722-0.112,1.142-0.203,1.813-0.386l0.015,0.413
		c-0.603,0.161-0.792,0.203-1.828,0.406V17.514z M37.2,15.139c-0.07,0.099-0.105,0.154-0.189,0.302
		c-0.308,0.518-0.665,0.987-1.071,1.387c0.511,0.427,1.022,0.693,1.821,0.938c-0.112,0.119-0.189,0.245-0.273,0.42
		c-0.819-0.308-1.366-0.616-1.87-1.064c-0.596,0.483-1.148,0.777-2.066,1.086c-0.077-0.169-0.153-0.28-0.272-0.399
		c0.868-0.252,1.456-0.532,2.038-0.987c-0.428-0.47-0.645-0.834-0.904-1.527c-0.133,0.007-0.195,0.014-0.35,0.035v-0.477
		c0.119,0.028,0.238,0.035,0.497,0.035h1.856c0.266,0,0.392-0.007,0.532-0.035L37.2,15.139z M36.5,13.851
		c0,0.119,0.056,0.146,0.314,0.146c0.386,0,0.406-0.042,0.456-0.847c0.133,0.091,0.237,0.146,0.398,0.195
		c-0.063,0.512-0.104,0.687-0.195,0.841c-0.099,0.168-0.231,0.203-0.708,0.203c-0.553,0-0.687-0.084-0.687-0.428v-1.4H35.05
		c-0.007,0.477-0.042,0.735-0.14,1.037c-0.141,0.462-0.329,0.742-0.757,1.12c-0.147-0.154-0.175-0.182-0.371-0.301
		c0.378-0.28,0.561-0.498,0.7-0.854c0.091-0.238,0.147-0.609,0.147-1.016c0-0.168-0.007-0.273-0.028-0.413
		c0.147,0.021,0.301,0.027,0.561,0.027h0.771c0.266,0,0.434-0.007,0.595-0.027c-0.021,0.21-0.027,0.371-0.027,0.665V13.851z
		 M34.84,15.293c0.224,0.554,0.42,0.861,0.799,1.254c0.378-0.364,0.616-0.665,0.973-1.254H34.84z"/>
	<path fill="#231815" d="M39.024,12.87c0-0.287-0.015-0.483-0.057-0.735h0.561c-0.027,0.188-0.042,0.406-0.042,0.658v0.084
		l0.035,3.551c0.385-0.154,0.616-0.259,0.918-0.406c0.546-0.273,0.868-0.441,1.071-0.588l0.091,0.434
		c-0.841,0.505-1.59,0.869-2.745,1.31c-0.21,0.077-0.273,0.105-0.413,0.176l-0.154-0.512c0.294-0.07,0.476-0.126,0.771-0.231
		L39.024,12.87z M43.871,12.127c-0.021,0.141-0.028,0.169-0.057,0.693c-0.034,0.54-0.182,1.387-0.314,1.85
		c-0.126,0.448-0.309,0.854-0.561,1.274c0.393,0.742,0.952,1.316,1.716,1.772c-0.14,0.146-0.217,0.259-0.315,0.448
		c-0.469-0.33-0.735-0.575-1.078-0.974c-0.252-0.295-0.386-0.49-0.589-0.841c-0.616,0.826-1.4,1.4-2.563,1.87
		c-0.076-0.168-0.188-0.315-0.301-0.42c0.603-0.225,0.987-0.414,1.4-0.693c0.988-0.666,1.611-1.563,1.912-2.773
		c0.147-0.589,0.225-1.212,0.225-1.856c0-0.175-0.007-0.231-0.021-0.364L43.871,12.127z M40.811,12.61
		c0.553,0.567,0.854,0.932,1.358,1.674l-0.42,0.295c-0.463-0.757-0.7-1.065-1.324-1.709L40.811,12.61z"/>
	<path fill="#231815" d="M46.122,12.758c-0.336,0-0.574,0.014-0.819,0.042v-0.519c0.231,0.028,0.47,0.042,0.819,0.042h4.539
		c0.336,0,0.574-0.014,0.813-0.042V12.8c-0.245-0.028-0.49-0.042-0.813-0.042h-2.199v0.798c1.38,0.693,1.61,0.827,2.486,1.437
		l-0.273,0.434c-0.483-0.378-0.819-0.602-1.484-0.98c-0.147-0.091-0.147-0.091-0.729-0.385v3.299c0,0.378,0.014,0.603,0.049,0.826
		H47.93c0.034-0.224,0.049-0.455,0.049-0.826v-4.602H46.122z"/>
</g>
<g>
	<path fill="#231815" d="M62.153,14.432c-0.014,0.126-0.014,0.126-0.056,0.315c0.336-0.322,0.742-0.483,1.226-0.483
		c0.512,0,0.945,0.168,1.261,0.477c0.315,0.308,0.47,0.721,0.47,1.239c0,1.128-0.735,1.849-1.892,1.849
		c-0.546,0-1.001-0.161-1.338-0.483c-0.175-0.168-0.272-0.314-0.44-0.651l0.574-0.175c0.069,0.196,0.119,0.294,0.224,0.413
		c0.238,0.267,0.589,0.413,0.995,0.413c0.784,0,1.31-0.532,1.31-1.337c0-0.777-0.483-1.282-1.226-1.282
		c-0.357,0-0.666,0.099-0.918,0.294c-0.168,0.134-0.245,0.231-0.322,0.421l-0.525-0.049c0.057-0.273,0.077-0.414,0.105-0.722
		l0.154-1.583c0.014-0.203,0.021-0.287,0.021-0.42c0-0.099,0-0.126-0.014-0.302c0.217,0.028,0.329,0.035,0.742,0.035h1.442
		c0.379,0,0.54-0.014,0.82-0.056v0.595c-0.267-0.042-0.49-0.056-0.82-0.056h-1.646L62.153,14.432z"/>
	<path fill="#231815" d="M67.949,17.514c0,0.259,0.014,0.469,0.049,0.707h-0.519c0.035-0.245,0.05-0.455,0.05-0.707v-0.47
		c-0.211,0.035-0.337,0.056-0.441,0.091l-0.077-0.504c0.203,0,0.21,0,0.519-0.042V13.29c0-0.294-0.008-0.462-0.028-0.638
		c0.764-0.111,1.709-0.448,2.08-0.735l0.294,0.406c-0.645,0.322-1.232,0.532-1.926,0.68v0.693h1.135
		c0.272,0,0.434-0.007,0.623-0.035v0.455c-0.175-0.021-0.336-0.027-0.609-0.027h-1.148v0.91h1.128c0.272,0,0.42-0.007,0.616-0.035
		v0.455c-0.168-0.021-0.344-0.027-0.609-0.027h-1.135v1.142c0.722-0.112,1.142-0.203,1.813-0.386l0.015,0.413
		c-0.603,0.161-0.792,0.203-1.828,0.406V17.514z M73.041,15.139c-0.07,0.099-0.105,0.154-0.189,0.302
		c-0.307,0.518-0.664,0.987-1.07,1.387c0.51,0.427,1.021,0.693,1.82,0.938c-0.111,0.119-0.189,0.245-0.273,0.42
		c-0.818-0.308-1.365-0.616-1.87-1.064c-0.596,0.483-1.148,0.777-2.066,1.086c-0.077-0.169-0.153-0.28-0.272-0.399
		c0.868-0.252,1.456-0.532,2.038-0.987c-0.428-0.47-0.645-0.834-0.904-1.527c-0.133,0.007-0.195,0.014-0.35,0.035v-0.477
		c0.119,0.028,0.238,0.035,0.497,0.035h1.857c0.266,0,0.391-0.007,0.531-0.035L73.041,15.139z M72.341,13.851
		c0,0.119,0.055,0.146,0.314,0.146c0.385,0,0.406-0.042,0.455-0.847c0.133,0.091,0.238,0.146,0.398,0.195
		c-0.063,0.512-0.104,0.687-0.195,0.841c-0.098,0.168-0.23,0.203-0.707,0.203c-0.553,0-0.688-0.084-0.688-0.428v-1.4h-1.029
		c-0.007,0.477-0.042,0.735-0.14,1.037c-0.141,0.462-0.329,0.742-0.757,1.12c-0.147-0.154-0.175-0.182-0.371-0.301
		c0.378-0.28,0.561-0.498,0.7-0.854c0.091-0.238,0.147-0.609,0.147-1.016c0-0.168-0.007-0.273-0.028-0.413
		c0.147,0.021,0.301,0.027,0.561,0.027h0.77c0.266,0,0.434-0.007,0.596-0.027c-0.021,0.21-0.027,0.371-0.027,0.665V13.851z
		 M70.681,15.293c0.224,0.554,0.42,0.861,0.799,1.254c0.377-0.364,0.616-0.665,0.973-1.254H70.681z"/>
	<path fill="#231815" d="M74.087,15.048c0.623-0.609,1.059-0.826,1.688-0.826c0.316,0,0.596,0.063,0.877,0.203
		c0.182,0.091,0.271,0.146,0.658,0.42c0.588,0.42,0.945,0.574,1.344,0.574c0.197,0,0.393-0.042,0.561-0.119
		c0.301-0.126,0.498-0.294,0.799-0.679l0.363,0.314c-0.336,0.393-0.525,0.561-0.805,0.722c-0.266,0.154-0.602,0.238-0.924,0.238
		c-0.219,0-0.449-0.042-0.666-0.112c-0.295-0.104-0.518-0.231-0.975-0.567c-0.553-0.413-0.832-0.532-1.26-0.532
		c-0.266,0-0.49,0.057-0.721,0.183c-0.197,0.111-0.33,0.224-0.59,0.49L74.087,15.048z"/>
	<path fill="#231815" d="M83.062,12.365c0.184,0.028,0.316,0.035,0.582,0.035h0.441c0.238,0,0.35-0.007,0.582-0.035
		c-0.043,0.428-0.064,0.785-0.064,1.163v3.403c0,0.329,0.014,0.532,0.057,0.792h-0.666c0.043-0.245,0.057-0.47,0.057-0.792v-4.055
		h-0.379c-0.223,0-0.406,0.014-0.609,0.042V12.365z"/>
	<path fill="#231815" d="M91.394,16.519c0,0.26,0.014,0.505,0.035,0.693H90.98v-0.406h-2.143v0.638h-0.463
		c0.029-0.196,0.049-0.497,0.049-0.925v-3.579c0-0.301-0.006-0.497-0.027-0.714c0.203,0.021,0.406,0.028,0.721,0.028h1.576
		c0.322,0,0.518-0.008,0.729-0.028c-0.021,0.175-0.027,0.308-0.027,0.616h2.191c0.398,0,0.652-0.014,0.861-0.049v0.504
		c-0.209-0.035-0.393-0.042-0.84-0.042h-0.141v4.286c0,0.463-0.125,0.554-0.756,0.554c-0.246,0-0.533-0.007-0.771-0.028
		c-0.014-0.175-0.035-0.287-0.084-0.462c0.357,0.042,0.609,0.063,0.855,0.063c0.252,0,0.301-0.027,0.301-0.161v-4.251h-1.617V16.519
		z M88.843,14.264h0.842v-1.618h-0.842V14.264z M88.843,16.414h0.842v-1.766h-0.842V16.414z M90.097,14.264h0.883v-1.618h-0.883
		V14.264z M90.097,16.414h0.883v-1.766h-0.883V16.414z"/>
</g>
<g>
	<path fill="#231815" d="M100.437,12.365c0.182,0.028,0.314,0.035,0.58,0.035h0.441c0.238,0,0.352-0.007,0.582-0.035
		c-0.041,0.428-0.063,0.785-0.063,1.163v3.403c0,0.329,0.014,0.532,0.055,0.792h-0.664c0.041-0.245,0.055-0.47,0.055-0.792v-4.055
		h-0.377c-0.225,0-0.406,0.014-0.609,0.042V12.365z"/>
	<path fill="#231815" d="M105.462,15.048c0.623-0.609,1.057-0.826,1.688-0.826c0.314,0,0.596,0.063,0.875,0.203
		c0.182,0.091,0.273,0.146,0.658,0.42c0.588,0.42,0.945,0.574,1.346,0.574c0.195,0,0.391-0.042,0.561-0.119
		c0.301-0.126,0.496-0.294,0.797-0.679l0.365,0.314c-0.336,0.393-0.525,0.561-0.807,0.722c-0.266,0.154-0.602,0.238-0.924,0.238
		c-0.217,0-0.447-0.042-0.666-0.112c-0.293-0.104-0.518-0.231-0.973-0.567c-0.553-0.413-0.834-0.532-1.262-0.532
		c-0.266,0-0.49,0.057-0.721,0.183c-0.195,0.111-0.328,0.224-0.588,0.49L105.462,15.048z"/>
	<path fill="#231815" d="M114.486,17.724c-0.441,0-0.547,0.007-0.77,0.042c0.076-0.561,0.098-0.666,0.203-0.932
		c0.174-0.441,0.469-0.826,0.91-1.205c0.244-0.21,0.258-0.217,1.07-0.771c0.693-0.469,0.926-0.777,0.926-1.204
		c0-0.532-0.449-0.876-1.164-0.876c-0.461,0-0.805,0.154-1.016,0.456c-0.133,0.188-0.195,0.356-0.244,0.707l-0.588-0.098
		c0.105-0.505,0.209-0.75,0.441-1.009c0.314-0.357,0.791-0.539,1.406-0.539c1.059,0,1.738,0.532,1.738,1.358
		c0,0.357-0.141,0.693-0.414,0.994c-0.209,0.238-0.393,0.371-1.189,0.903c-0.555,0.372-0.779,0.567-1.01,0.862
		c-0.217,0.287-0.314,0.476-0.398,0.813h2.234c0.35,0,0.588-0.015,0.854-0.05v0.589c-0.279-0.028-0.512-0.042-0.861-0.042H114.486z"
		/>
	<path fill="#231815" d="M122.767,16.519c0,0.26,0.014,0.505,0.035,0.693h-0.447v-0.406h-2.145v0.638h-0.461
		c0.027-0.196,0.049-0.497,0.049-0.925v-3.579c0-0.301-0.008-0.497-0.029-0.714c0.203,0.021,0.406,0.028,0.723,0.028h1.576
		c0.322,0,0.518-0.008,0.729-0.028c-0.021,0.175-0.029,0.308-0.029,0.616h2.193c0.398,0,0.65-0.014,0.861-0.049v0.504
		c-0.211-0.035-0.393-0.042-0.842-0.042h-0.139v4.286c0,0.463-0.127,0.554-0.758,0.554c-0.244,0-0.531-0.007-0.77-0.028
		c-0.014-0.175-0.035-0.287-0.084-0.462c0.357,0.042,0.609,0.063,0.854,0.063c0.252,0,0.303-0.027,0.303-0.161v-4.251h-1.619V16.519
		z M120.218,14.264h0.84v-1.618h-0.84V14.264z M120.218,16.414h0.84v-1.766h-0.84V16.414z M121.472,14.264h0.883v-1.618h-0.883
		V14.264z M121.472,16.414h0.883v-1.766h-0.883V16.414z"/>
</g>
<g>
	<path fill="#231815" d="M87.076,5.723c-0.439,0-0.545,0.007-0.77,0.042c0.076-0.561,0.098-0.666,0.203-0.932
		c0.176-0.441,0.469-0.826,0.91-1.205c0.246-0.21,0.26-0.217,1.072-0.771c0.693-0.469,0.924-0.777,0.924-1.204
		c0-0.532-0.447-0.876-1.162-0.876c-0.463,0-0.805,0.154-1.016,0.456c-0.133,0.188-0.195,0.356-0.246,0.707l-0.588-0.098
		c0.105-0.505,0.211-0.75,0.441-1.009c0.316-0.357,0.791-0.539,1.408-0.539c1.057,0,1.736,0.532,1.736,1.358
		c0,0.357-0.139,0.693-0.412,0.994c-0.211,0.238-0.393,0.371-1.191,0.903c-0.553,0.372-0.777,0.567-1.008,0.862
		c-0.217,0.287-0.316,0.476-0.4,0.813h2.234c0.35,0,0.588-0.015,0.855-0.05v0.589c-0.281-0.028-0.512-0.042-0.861-0.042H87.076z"/>
	<path fill="#231815" d="M95.359,4.518c0,0.26,0.014,0.505,0.035,0.693h-0.449V4.805h-2.143v0.638h-0.463
		c0.029-0.196,0.049-0.497,0.049-0.925V0.938c0-0.301-0.006-0.497-0.027-0.714c0.203,0.021,0.406,0.028,0.721,0.028h1.576
		c0.322,0,0.518-0.008,0.729-0.028c-0.021,0.175-0.027,0.308-0.027,0.616h2.191c0.398,0,0.652-0.014,0.861-0.049v0.504
		c-0.209-0.035-0.393-0.042-0.84-0.042h-0.141V5.54c0,0.463-0.125,0.554-0.756,0.554c-0.246,0-0.533-0.007-0.771-0.028
		c-0.014-0.175-0.035-0.287-0.084-0.462c0.357,0.042,0.609,0.063,0.855,0.063c0.252,0,0.301-0.027,0.301-0.161V1.254h-1.617V4.518z
		 M92.808,2.263h0.842V0.645h-0.842V2.263z M92.808,4.413h0.842V2.647h-0.842V4.413z M94.062,2.263h0.883V0.645h-0.883V2.263z
		 M94.062,4.413h0.883V2.647h-0.883V4.413z"/>
	<path fill="#231815" d="M99.83,0.869c0-0.287-0.014-0.483-0.057-0.735h0.561c-0.027,0.188-0.041,0.406-0.041,0.658v0.084
		l0.035,3.551c0.385-0.154,0.615-0.259,0.918-0.406c0.545-0.273,0.867-0.441,1.07-0.588l0.092,0.434
		c-0.842,0.505-1.59,0.869-2.746,1.31c-0.209,0.077-0.273,0.105-0.412,0.176L99.095,4.84c0.293-0.07,0.475-0.126,0.77-0.231
		L99.83,0.869z M104.677,0.126c-0.021,0.141-0.029,0.169-0.057,0.693c-0.035,0.54-0.182,1.387-0.314,1.85
		c-0.127,0.448-0.309,0.854-0.561,1.274c0.393,0.742,0.951,1.316,1.715,1.772c-0.139,0.146-0.217,0.259-0.314,0.448
		c-0.469-0.33-0.736-0.575-1.078-0.974c-0.252-0.295-0.387-0.49-0.59-0.841c-0.615,0.826-1.4,1.4-2.563,1.87
		c-0.076-0.168-0.189-0.315-0.301-0.42c0.602-0.225,0.986-0.414,1.4-0.693c0.988-0.666,1.611-1.563,1.912-2.773
		c0.146-0.589,0.225-1.212,0.225-1.856c0-0.175-0.008-0.231-0.021-0.364L104.677,0.126z M101.617,0.609
		c0.553,0.567,0.854,0.932,1.357,1.674l-0.42,0.295c-0.463-0.757-0.699-1.065-1.324-1.709L101.617,0.609z"/>
	<path fill="#231815" d="M109.294,5.456h2.291c0.33,0,0.547-0.014,0.785-0.042v0.532c-0.268-0.035-0.484-0.049-0.785-0.049h-4.664
		c-0.301,0-0.561,0.014-0.826,0.049V5.414c0.23,0.028,0.475,0.042,0.826,0.042h1.877V0.729c0-0.266-0.014-0.483-0.049-0.729h0.596
		c-0.035,0.238-0.051,0.463-0.051,0.729v1.436h1.773c0.301,0,0.525-0.014,0.729-0.042v0.54c-0.219-0.028-0.428-0.042-0.729-0.042
		h-1.773V5.456z"/>
	<path fill="#231815" d="M116.154,0.322c0.182,0.028,0.314,0.035,0.582,0.035h0.441c0.238,0,0.35-0.007,0.58-0.035
		c-0.041,0.428-0.063,0.784-0.063,1.163v3.403c0,0.329,0.014,0.532,0.057,0.792h-0.666c0.043-0.245,0.057-0.47,0.057-0.792V0.834
		h-0.379c-0.225,0-0.406,0.014-0.609,0.042V0.322z"/>
	<path fill="#231815" d="M120.64,5.288c-0.189-0.189-0.336-0.406-0.42-0.645c-0.176-0.49-0.266-1.043-0.266-1.617
		c0-0.743,0.16-1.499,0.406-1.905c0.336-0.567,0.875-0.861,1.568-0.861c0.518,0,0.967,0.168,1.281,0.497
		c0.197,0.196,0.336,0.413,0.42,0.645c0.176,0.483,0.268,1.043,0.268,1.625c0,0.847-0.184,1.597-0.49,2.023
		c-0.352,0.49-0.842,0.735-1.486,0.735C121.404,5.785,120.97,5.617,120.64,5.288z M121.046,1.1
		c-0.146,0.161-0.258,0.337-0.314,0.512c-0.146,0.427-0.217,0.903-0.217,1.415c0,0.651,0.139,1.337,0.328,1.666
		c0.246,0.406,0.609,0.609,1.086,0.609c0.35,0,0.652-0.111,0.861-0.329c0.154-0.161,0.266-0.343,0.33-0.546
		c0.146-0.435,0.217-0.896,0.217-1.415c0-0.609-0.133-1.303-0.316-1.632c-0.23-0.42-0.609-0.637-1.1-0.637
		C121.558,0.743,121.271,0.861,121.046,1.1z"/>
	<path fill="#231815" d="M125.408,4.987v0.693h-0.693V4.987H125.408z"/>
	<path fill="#231815" d="M126.919,5.288c-0.189-0.189-0.336-0.406-0.42-0.645c-0.176-0.49-0.268-1.043-0.268-1.617
		c0-0.743,0.162-1.499,0.406-1.905c0.336-0.567,0.877-0.861,1.57-0.861c0.518,0,0.965,0.168,1.281,0.497
		c0.195,0.196,0.336,0.413,0.42,0.645c0.176,0.483,0.266,1.043,0.266,1.625c0,0.847-0.182,1.597-0.49,2.023
		c-0.35,0.49-0.84,0.735-1.484,0.735C127.683,5.785,127.248,5.617,126.919,5.288z M127.326,1.1c-0.148,0.161-0.26,0.337-0.316,0.512
		c-0.146,0.427-0.217,0.903-0.217,1.415c0,0.651,0.141,1.337,0.33,1.666c0.244,0.406,0.609,0.609,1.086,0.609
		c0.35,0,0.65-0.111,0.861-0.329c0.152-0.161,0.266-0.343,0.328-0.546c0.146-0.435,0.217-0.896,0.217-1.415
		c0-0.609-0.133-1.303-0.314-1.632c-0.23-0.42-0.609-0.637-1.1-0.637C127.835,0.743,127.548,0.861,127.326,1.1z"/>
</g>
<g>
	<path fill="#231815" d="M32.434,45.627c0.147-0.168,0.309-0.364,0.456-0.539l1.771-2.213c0.238-0.295,0.364-0.47,0.525-0.715h0.525
		c-0.035,0.413-0.042,0.631-0.042,1.184v2.298h0.266c0.294,0,0.477-0.015,0.729-0.05v0.582c-0.259-0.035-0.435-0.05-0.735-0.05
		H35.67v0.603c0,0.336,0.014,0.497,0.056,0.757h-0.638c0.042-0.245,0.057-0.441,0.057-0.757v-0.603h-1.877
		c-0.393,0-0.603,0.008-0.834,0.028V45.627z M35.151,43.869c0-0.371,0.007-0.596,0.042-0.952c-0.147,0.21-0.322,0.44-0.525,0.7
		l-1.61,2.031h2.094V43.869z"/>
	<path fill="#231815" d="M37.859,47.091c-0.189-0.189-0.336-0.406-0.42-0.645c-0.176-0.49-0.267-1.043-0.267-1.617
		c0-0.743,0.161-1.499,0.406-1.905c0.336-0.567,0.876-0.861,1.569-0.861c0.518,0,0.966,0.168,1.281,0.497
		c0.196,0.196,0.336,0.413,0.42,0.645c0.176,0.483,0.267,1.043,0.267,1.625c0,0.847-0.183,1.597-0.49,2.023
		c-0.351,0.49-0.841,0.735-1.485,0.735C38.623,47.588,38.188,47.42,37.859,47.091z M38.266,42.902
		c-0.147,0.161-0.259,0.337-0.315,0.512c-0.146,0.427-0.217,0.903-0.217,1.415c0,0.651,0.14,1.337,0.329,1.666
		c0.245,0.406,0.609,0.609,1.086,0.609c0.35,0,0.651-0.111,0.861-0.329c0.153-0.161,0.266-0.343,0.329-0.546
		c0.146-0.435,0.217-0.896,0.217-1.415c0-0.609-0.133-1.303-0.315-1.632c-0.23-0.42-0.609-0.637-1.1-0.637
		C38.776,42.546,38.489,42.664,38.266,42.902z"/>
	<path fill="#231815" d="M42.626,46.79v0.693h-0.693V46.79H42.626z"/>
	<path fill="#231815" d="M46.855,44.997c0.35,0.259,0.524,0.63,0.524,1.1c0,0.959-0.7,1.498-1.933,1.498
		c-1.281,0-1.989-0.532-1.989-1.498c0-0.505,0.203-0.89,0.624-1.163c0.217-0.14,0.371-0.196,0.63-0.238
		c-0.616-0.111-1.016-0.609-1.016-1.261c0-0.847,0.665-1.387,1.723-1.387c1.072,0,1.73,0.525,1.73,1.387
		c0,0.651-0.393,1.142-1.016,1.261C46.428,44.737,46.624,44.821,46.855,44.997z M44.032,46.062c0,0.665,0.512,1.058,1.38,1.058
		c0.49,0,0.89-0.126,1.128-0.364c0.175-0.161,0.266-0.406,0.266-0.693c0-0.687-0.524-1.1-1.387-1.1
		C44.558,44.962,44.032,45.382,44.032,46.062z M44.243,43.477c0,0.624,0.447,1.002,1.184,1.002c0.735,0,1.176-0.378,1.176-1.002
		c0-0.588-0.462-0.959-1.184-0.959C44.705,42.518,44.243,42.896,44.243,43.477z"/>
	<path fill="#231815" d="M48.827,44.772c-0.252-0.245-0.385-0.658-0.385-1.177c0-0.938,0.448-1.491,1.219-1.491
		c0.763,0,1.211,0.546,1.211,1.491c0,0.519-0.133,0.932-0.385,1.177c-0.21,0.203-0.497,0.315-0.826,0.315
		C49.324,45.088,49.037,44.976,48.827,44.772z M48.911,43.596c0,0.687,0.273,1.079,0.75,1.079c0.469,0,0.742-0.393,0.742-1.079
		c0-0.693-0.267-1.078-0.742-1.078C49.178,42.518,48.911,42.909,48.911,43.596z M53.197,42.063l0.295,0.224l-4.245,5.372
		l-0.294-0.231L53.197,42.063z M51.958,47.308c-0.252-0.245-0.385-0.658-0.385-1.176c0-0.938,0.448-1.492,1.218-1.492
		c0.771,0,1.212,0.546,1.212,1.499c0,0.511-0.133,0.924-0.385,1.169c-0.21,0.203-0.497,0.315-0.827,0.315
		C52.455,47.623,52.168,47.519,51.958,47.308z M52.042,46.132c0,0.686,0.273,1.078,0.749,1.078c0.47,0,0.743-0.393,0.743-1.078
		c0-0.693-0.267-1.079-0.743-1.079C52.309,45.053,52.042,45.445,52.042,46.132z"/>
</g>
<g>
	<path fill="#231815" d="M81.017,46.188c0.113,0.364,0.211,0.511,0.428,0.665c0.238,0.168,0.547,0.252,0.904,0.252
		c0.813,0,1.322-0.42,1.322-1.085c0-0.693-0.496-1.072-1.428-1.072c-0.197,0-0.371,0.015-0.561,0.035V44.43
		c0.16,0.027,0.33,0.042,0.518,0.042c0.463,0,0.807-0.105,1.023-0.322c0.176-0.168,0.279-0.428,0.279-0.68
		c0-0.603-0.42-0.952-1.127-0.952c-0.428,0-0.736,0.119-0.932,0.371c-0.098,0.126-0.146,0.238-0.225,0.497l-0.58-0.126
		c0.119-0.357,0.203-0.519,0.377-0.7c0.309-0.336,0.785-0.512,1.395-0.512c1.016,0,1.66,0.532,1.66,1.373
		c0,0.428-0.182,0.806-0.49,1.022c-0.182,0.133-0.336,0.189-0.658,0.252c0.406,0.042,0.623,0.119,0.861,0.302
		c0.309,0.238,0.469,0.609,0.469,1.058c0,0.945-0.729,1.533-1.898,1.533c-0.707,0-1.232-0.196-1.568-0.574
		c-0.146-0.168-0.23-0.322-0.357-0.679L81.017,46.188z"/>
	<path fill="#231815" d="M85.896,47.483c-0.441,0-0.545,0.007-0.77,0.035c0.076-0.554,0.098-0.659,0.203-0.925
		c0.174-0.441,0.469-0.826,0.91-1.205c0.244-0.21,0.26-0.217,1.072-0.771c0.693-0.469,0.924-0.777,0.924-1.204
		c0-0.532-0.449-0.876-1.162-0.876c-0.463,0-0.807,0.154-1.016,0.456c-0.133,0.188-0.197,0.356-0.246,0.707l-0.588-0.099
		c0.105-0.504,0.211-0.749,0.441-1.008c0.314-0.357,0.791-0.539,1.408-0.539c1.057,0,1.736,0.532,1.736,1.358
		c0,0.357-0.141,0.693-0.414,0.994c-0.209,0.238-0.391,0.371-1.189,0.903c-0.553,0.372-0.777,0.567-1.01,0.862
		c-0.217,0.287-0.314,0.476-0.398,0.813h2.234c0.35,0,0.588-0.015,0.854-0.05v0.589c-0.279-0.028-0.51-0.042-0.861-0.042H85.896z"/>
	<path fill="#231815" d="M90.496,46.79v0.693h-0.693V46.79H90.496z"/>
	<path fill="#231815" d="M92.007,47.091c-0.189-0.189-0.336-0.406-0.42-0.645c-0.176-0.49-0.268-1.043-0.268-1.617
		c0-0.743,0.162-1.499,0.406-1.905c0.336-0.567,0.877-0.861,1.57-0.861c0.518,0,0.965,0.168,1.281,0.497
		c0.195,0.196,0.336,0.413,0.42,0.645c0.176,0.483,0.266,1.043,0.266,1.625c0,0.847-0.182,1.597-0.49,2.023
		c-0.35,0.49-0.84,0.735-1.484,0.735C92.771,47.588,92.335,47.42,92.007,47.091z M92.414,42.902
		c-0.148,0.161-0.26,0.337-0.316,0.512c-0.146,0.427-0.217,0.903-0.217,1.415c0,0.651,0.141,1.337,0.33,1.666
		c0.244,0.406,0.609,0.609,1.086,0.609c0.35,0,0.65-0.111,0.861-0.329c0.152-0.161,0.266-0.343,0.328-0.546
		c0.146-0.435,0.217-0.896,0.217-1.415c0-0.609-0.133-1.303-0.314-1.632c-0.23-0.42-0.609-0.637-1.1-0.637
		C92.923,42.546,92.636,42.664,92.414,42.902z"/>
</g>
<g>
	<path fill="#231815" d="M114.435,47.483c-0.441,0-0.545,0.007-0.77,0.035c0.076-0.554,0.098-0.659,0.203-0.925
		c0.174-0.441,0.469-0.826,0.91-1.205c0.244-0.21,0.26-0.217,1.072-0.771c0.693-0.469,0.924-0.777,0.924-1.204
		c0-0.532-0.449-0.876-1.162-0.876c-0.463,0-0.807,0.154-1.016,0.456c-0.133,0.188-0.197,0.356-0.246,0.707l-0.588-0.099
		c0.105-0.504,0.211-0.749,0.441-1.008c0.314-0.357,0.791-0.539,1.408-0.539c1.057,0,1.736,0.532,1.736,1.358
		c0,0.357-0.141,0.693-0.414,0.994c-0.209,0.238-0.391,0.371-1.189,0.903c-0.553,0.372-0.777,0.567-1.01,0.862
		c-0.217,0.287-0.314,0.476-0.398,0.813h2.234c0.35,0,0.588-0.015,0.854-0.05v0.589c-0.279-0.028-0.51-0.042-0.861-0.042H114.435z"
		/>
	<path fill="#231815" d="M118.978,42.125c0.182,0.028,0.314,0.035,0.582,0.035h0.441c0.238,0,0.35-0.007,0.58-0.035
		c-0.041,0.428-0.063,0.784-0.063,1.163v3.403c0,0.329,0.014,0.532,0.057,0.792h-0.666c0.043-0.245,0.057-0.47,0.057-0.792v-4.055
		h-0.379c-0.225,0-0.406,0.014-0.609,0.042V42.125z"/>
	<path fill="#231815" d="M123.632,46.79v0.693h-0.693V46.79H123.632z"/>
	<path fill="#231815" d="M128.275,42.637c-0.125,0.098-0.244,0.252-0.518,0.672c-0.631,0.974-0.926,1.569-1.197,2.424
		c-0.184,0.581-0.26,0.938-0.371,1.751h-0.666c0.225-1.268,0.412-1.898,0.848-2.795c0.336-0.7,0.637-1.184,1.26-2.031h-2.275
		c-0.33,0-0.525,0.015-0.791,0.049v-0.595c0.271,0.035,0.461,0.049,0.797,0.049h2.102c0.414,0,0.568-0.007,0.813-0.035V42.637z"/>
</g>
<g>
	<path fill="#231815" d="M122.5,58.857c-0.014,0.127-0.014,0.127-0.057,0.315c0.336-0.322,0.742-0.483,1.227-0.483
		c0.512,0,0.945,0.168,1.26,0.477c0.316,0.301,0.469,0.715,0.469,1.232c0,1.128-0.734,1.85-1.891,1.85
		c-0.545,0-1.002-0.161-1.338-0.477c-0.174-0.175-0.273-0.322-0.441-0.658l0.574-0.168c0.07,0.195,0.119,0.287,0.225,0.406
		c0.238,0.266,0.588,0.413,0.994,0.413c0.785,0,1.311-0.532,1.311-1.338c0-0.771-0.482-1.274-1.227-1.274
		c-0.355,0-0.664,0.098-0.916,0.294c-0.168,0.133-0.246,0.231-0.322,0.42l-0.525-0.049c0.055-0.273,0.076-0.42,0.105-0.722
		l0.152-1.583c0.016-0.203,0.021-0.287,0.021-0.42c0-0.098,0-0.126-0.014-0.301c0.217,0.027,0.33,0.035,0.742,0.035h1.443
		c0.379,0,0.539-0.015,0.818-0.057v0.596c-0.266-0.042-0.49-0.057-0.818-0.057h-1.646L122.5,58.857z"/>
	<path fill="#231815" d="M127.048,61.456v0.693h-0.693v-0.693H127.048z"/>
	<path fill="#231815" d="M128.777,58.857c-0.014,0.127-0.014,0.127-0.055,0.315c0.336-0.322,0.742-0.483,1.225-0.483
		c0.512,0,0.945,0.168,1.262,0.477c0.314,0.301,0.469,0.715,0.469,1.232c0,1.128-0.736,1.85-1.891,1.85
		c-0.547,0-1.002-0.161-1.338-0.477c-0.176-0.175-0.273-0.322-0.441-0.658l0.574-0.168c0.07,0.195,0.119,0.287,0.225,0.406
		c0.238,0.266,0.588,0.413,0.994,0.413c0.785,0,1.309-0.532,1.309-1.338c0-0.771-0.482-1.274-1.225-1.274
		c-0.357,0-0.666,0.098-0.918,0.294c-0.168,0.133-0.244,0.231-0.322,0.42l-0.525-0.049c0.057-0.273,0.078-0.42,0.105-0.722
		l0.154-1.583c0.014-0.203,0.021-0.287,0.021-0.42c0-0.098,0-0.126-0.014-0.301c0.217,0.027,0.328,0.035,0.742,0.035h1.441
		c0.379,0,0.539-0.015,0.82-0.057v0.596c-0.266-0.042-0.49-0.057-0.82-0.057h-1.645L128.777,58.857z"/>
</g>
<line fill="none" stroke="#000000" stroke-width="0.5" stroke-miterlimit="10" stroke-dasharray="2,1" x1="58.479" y1="28.066" x2="68.106" y2="35.256"/>
<line fill="none" stroke="#000000" stroke-width="0.5" stroke-miterlimit="10" stroke-dasharray="2,1" x1="95.875" y1="28.066" x2="107.6" y2="35.256"/>
<line fill="none" stroke="#000000" stroke-width="0.5" stroke-miterlimit="10" stroke-dasharray="2,1" x1="128.828" y1="28.066" x2="134.381" y2="35.256"/>
<g>
	<g>
		<polyline fill="none" stroke="#231815" stroke-width="0.5" stroke-miterlimit="10" points="131.086,3.238 135.752,3.238 
			135.752,13.035 		"/>
		<g>
			<circle fill="#231815" cx="135.752" cy="13.008" r="0.563"/>
		</g>
	</g>
</g>
<g>
	<g>
		<polyline fill="none" stroke="#231815" stroke-width="0.5" stroke-miterlimit="10" points="132.544,59.801 137.775,59.801 
			137.775,50.188 		"/>
		<g>
			<circle fill="#231815" cx="137.775" cy="50.217" r="0.564"/>
		</g>
	</g>
</g>
</svg>
