<?xml version="1.0" encoding="utf-8"?>
<!-- Generator: Adobe Illustrator 16.0.3, SVG Export Plug-In . SVG Version: 6.00 Build 0)  -->
<!DOCTYPE svg PUBLIC "-//W3C//DTD SVG 1.1//EN" "http://www.w3.org/Graphics/SVG/1.1/DTD/svg11.dtd">
<svg version="1.1" id="レイヤー_1" xmlns="http://www.w3.org/2000/svg" xmlns:xlink="http://www.w3.org/1999/xlink" x="0px"
	 y="0px" width="112.697px" height="15.324px" viewBox="0 0 112.697 15.324" enable-background="new 0 0 112.697 15.324"
	 xml:space="preserve">
<g>
	<path d="M44.458,11.424c0.3,0.223,0.45,0.541,0.45,0.941c0,0.822-0.601,1.283-1.655,1.283c-1.098,0-1.703-0.455-1.703-1.283
		c0-0.432,0.174-0.762,0.533-0.994c0.187-0.121,0.318-0.168,0.54-0.205c-0.527-0.096-0.869-0.521-0.869-1.078
		c0-0.726,0.569-1.188,1.475-1.188c0.918,0,1.481,0.45,1.481,1.188c0,0.557-0.336,0.977-0.87,1.078
		C44.092,11.203,44.26,11.275,44.458,11.424z M42.041,12.336c0,0.57,0.438,0.906,1.182,0.906c0.42,0,0.762-0.109,0.966-0.313
		c0.149-0.139,0.228-0.348,0.228-0.594c0-0.588-0.45-0.941-1.188-0.941S42.041,11.754,42.041,12.336z M42.221,10.123
		c0,0.533,0.385,0.857,1.014,0.857c0.63,0,1.008-0.324,1.008-0.857c0-0.504-0.396-0.822-1.014-0.822
		C42.617,9.301,42.221,9.625,42.221,10.123z"/>
	<path d="M46.218,13.553c-0.378,0-0.468,0.006-0.66,0.031c0.066-0.475,0.084-0.564,0.174-0.793c0.15-0.377,0.402-0.707,0.78-1.031
		c0.21-0.18,0.222-0.186,0.917-0.658c0.594-0.402,0.792-0.666,0.792-1.033c0-0.455-0.384-0.749-0.996-0.749
		c-0.396,0-0.689,0.132-0.869,0.389c-0.114,0.162-0.168,0.307-0.21,0.605l-0.504-0.084c0.09-0.432,0.18-0.641,0.378-0.863
		c0.27-0.306,0.678-0.462,1.205-0.462c0.906,0,1.487,0.456,1.487,1.163c0,0.307-0.12,0.594-0.354,0.852
		c-0.18,0.205-0.336,0.318-1.02,0.775c-0.474,0.316-0.666,0.484-0.863,0.736c-0.187,0.246-0.271,0.408-0.342,0.695h1.913
		c0.3,0,0.503-0.012,0.731-0.041v0.504c-0.24-0.025-0.438-0.037-0.737-0.037H46.218z"/>
	<path d="M50.094,11.232c-0.216-0.209-0.33-0.563-0.33-1.008c0-0.803,0.384-1.277,1.044-1.277c0.653,0,1.037,0.468,1.037,1.277
		c0,0.445-0.113,0.799-0.329,1.008c-0.181,0.174-0.426,0.27-0.708,0.27C50.52,11.502,50.273,11.406,50.094,11.232z M50.166,10.225
		c0,0.588,0.233,0.924,0.642,0.924c0.401,0,0.636-0.336,0.636-0.924c0-0.594-0.228-0.923-0.636-0.923
		C50.394,9.301,50.166,9.637,50.166,10.225z M53.836,8.912l0.252,0.192l-3.634,4.599l-0.252-0.197L53.836,8.912z M52.774,13.404
		c-0.216-0.211-0.33-0.564-0.33-1.008c0-0.805,0.384-1.277,1.044-1.277c0.659,0,1.037,0.467,1.037,1.283
		c0,0.438-0.114,0.791-0.33,1.002c-0.18,0.174-0.426,0.27-0.707,0.27C53.2,13.674,52.954,13.584,52.774,13.404z M52.847,12.396
		c0,0.588,0.233,0.924,0.642,0.924c0.401,0,0.636-0.336,0.636-0.924c0-0.594-0.229-0.924-0.636-0.924
		C53.074,11.473,52.847,11.809,52.847,12.396z"/>
</g>
<g>
	<path d="M96.625,8.966c0.155,0.023,0.27,0.029,0.497,0.029H97.5c0.204,0,0.3-0.006,0.498-0.029
		c-0.036,0.365-0.054,0.67-0.054,0.995v2.914c0,0.283,0.012,0.457,0.048,0.678h-0.57c0.036-0.209,0.048-0.4,0.048-0.678V9.404
		h-0.323c-0.192,0-0.348,0.012-0.521,0.036V8.966z"/>
	<path d="M102.798,11.424c0.3,0.223,0.449,0.541,0.449,0.941c0,0.822-0.6,1.283-1.654,1.283c-1.098,0-1.703-0.455-1.703-1.283
		c0-0.432,0.174-0.762,0.533-0.994c0.187-0.121,0.318-0.168,0.54-0.205c-0.527-0.096-0.869-0.521-0.869-1.078
		c0-0.726,0.569-1.188,1.475-1.188c0.918,0,1.481,0.45,1.481,1.188c0,0.557-0.336,0.977-0.87,1.078
		C102.432,11.203,102.6,11.275,102.798,11.424z M100.381,12.336c0,0.57,0.438,0.906,1.182,0.906c0.42,0,0.762-0.109,0.966-0.313
		c0.149-0.139,0.228-0.348,0.228-0.594c0-0.588-0.45-0.941-1.188-0.941S100.381,11.754,100.381,12.336z M100.562,10.123
		c0,0.533,0.383,0.857,1.013,0.857s1.008-0.324,1.008-0.857c0-0.504-0.396-0.822-1.014-0.822
		C100.957,9.301,100.562,9.625,100.562,10.123z"/>
	<path d="M104.491,11.232c-0.216-0.209-0.33-0.563-0.33-1.008c0-0.803,0.384-1.277,1.044-1.277c0.653,0,1.037,0.468,1.037,1.277
		c0,0.445-0.113,0.799-0.329,1.008c-0.181,0.174-0.426,0.27-0.708,0.27C104.917,11.502,104.671,11.406,104.491,11.232z
		 M104.563,10.225c0,0.588,0.233,0.924,0.642,0.924c0.401,0,0.636-0.336,0.636-0.924c0-0.594-0.228-0.923-0.636-0.923
		C104.791,9.301,104.563,9.637,104.563,10.225z M108.233,8.912l0.252,0.192l-3.634,4.599l-0.252-0.197L108.233,8.912z
		 M107.172,13.404c-0.216-0.211-0.33-0.564-0.33-1.008c0-0.805,0.384-1.277,1.044-1.277c0.659,0,1.037,0.467,1.037,1.283
		c0,0.438-0.114,0.791-0.33,1.002c-0.18,0.174-0.426,0.27-0.707,0.27C107.598,13.674,107.352,13.584,107.172,13.404z
		 M107.244,12.396c0,0.588,0.233,0.924,0.642,0.924c0.401,0,0.636-0.336,0.636-0.924c0-0.594-0.229-0.924-0.636-0.924
		C107.472,11.473,107.244,11.809,107.244,12.396z"/>
</g>
<g>
	<path d="M94.452,5.274c0-0.222,0.006-0.384,0.019-0.678c-0.168,0.223-0.288,0.349-0.522,0.546c-0.054-0.132-0.107-0.21-0.203-0.306
		c0.558-0.42,1.049-1.056,1.223-1.577l0.342,0.198c-0.036,0.048-0.048,0.071-0.113,0.186c-0.114,0.204-0.265,0.426-0.391,0.582
		v2.423c0,0.348,0.007,0.521,0.036,0.701h-0.426c0.024-0.186,0.036-0.372,0.036-0.708V5.274z M95.328,2.114
		c-0.103,0.126-0.103,0.126-0.234,0.318c-0.233,0.336-0.647,0.773-1.014,1.073c-0.077-0.138-0.132-0.21-0.239-0.306
		c0.539-0.396,0.965-0.882,1.14-1.308L95.328,2.114z M95.682,4.663c-0.234,0-0.348,0.006-0.485,0.03V4.315
		c0.132,0.023,0.251,0.03,0.474,0.03h1.217c0.229,0,0.354-0.007,0.486-0.024v0.366c-0.145-0.019-0.246-0.024-0.45-0.024h-0.456
		v0.594h0.307c0.228,0,0.335-0.006,0.479-0.024v0.354c-0.138-0.013-0.282-0.019-0.479-0.019h-0.307v0.654
		C96.737,6.167,96.893,6.131,97.366,6l0.007,0.318c-0.678,0.191-1.182,0.312-1.781,0.432c-0.216,0.042-0.312,0.06-0.426,0.09
		l-0.072-0.396c0.282-0.013,0.504-0.042,1.037-0.15V5.568h-0.39c-0.203,0-0.317,0.006-0.474,0.024V5.226
		c0.126,0.024,0.246,0.03,0.48,0.03h0.383V4.663H95.682z M96.209,2.414c0-0.186-0.006-0.306-0.023-0.42h0.371
		c-0.018,0.114-0.023,0.234-0.023,0.414v1.14h0.479V2.78c0-0.216-0.006-0.3-0.018-0.402h0.359c-0.018,0.097-0.023,0.223-0.023,0.408
		v0.75c0,0.149,0.006,0.239,0.018,0.335c-0.168-0.012-0.233-0.012-0.39-0.012h-1.193c-0.114,0-0.24,0.006-0.372,0.012
		c0.012-0.102,0.019-0.186,0.019-0.3V2.786c0-0.174-0.007-0.3-0.024-0.408h0.36c-0.013,0.091-0.019,0.181-0.019,0.402v0.768h0.479
		V2.414z M99.424,3.284c-0.126-0.019-0.187-0.024-0.408-0.03c-0.036,0.563-0.065,0.779-0.144,1.151
		c-0.096,0.462-0.229,0.857-0.402,1.229c0.271,0.497,0.51,0.779,1.05,1.265c-0.084,0.072-0.204,0.223-0.27,0.336
		c-0.438-0.432-0.702-0.768-0.978-1.241c-0.3,0.492-0.654,0.87-1.182,1.277c-0.078-0.126-0.15-0.21-0.258-0.294
		c0.594-0.407,0.941-0.785,1.253-1.343c-0.203-0.474-0.336-0.96-0.413-1.59c-0.103,0.181-0.103,0.181-0.181,0.288
		c-0.096-0.126-0.126-0.149-0.27-0.222c0.216-0.3,0.354-0.575,0.485-0.959c0.145-0.408,0.271-0.978,0.271-1.206
		c0-0.006,0-0.023,0-0.036l0.401,0.072c-0.023,0.096-0.036,0.138-0.06,0.252c-0.072,0.312-0.084,0.366-0.187,0.684h0.768
		c0.246,0,0.384-0.006,0.522-0.036V3.284z M98.021,3.253c-0.042,0.12-0.054,0.156-0.12,0.312c0.072,0.689,0.18,1.17,0.378,1.667
		c0.228-0.569,0.354-1.229,0.384-1.979H98.021z"/>
	<path d="M104.71,5.329c0.264,0,0.432-0.013,0.605-0.036v0.426c-0.186-0.024-0.359-0.036-0.605-0.036h-4.138
		c-0.246,0-0.432,0.012-0.605,0.036V5.292c0.174,0.023,0.342,0.036,0.605,0.036h0.443V2.971c0-0.216-0.006-0.354-0.018-0.485
		c1.163-0.03,2.794-0.348,3.28-0.636l0.288,0.359c-0.03,0.013-0.126,0.042-0.282,0.091c-0.852,0.264-1.949,0.468-2.872,0.521v0.749
		h3.124c0.252,0,0.384-0.006,0.54-0.029v0.407c-0.156-0.023-0.3-0.029-0.54-0.029h-0.744v1.409H104.71z M102.006,6.173
		c-0.624,0.612-0.972,0.846-1.71,1.176c-0.09-0.138-0.149-0.21-0.3-0.342c0.63-0.21,1.235-0.594,1.661-1.05L102.006,6.173z
		 M103.402,3.919h-1.99v1.409h1.99V3.919z M103.438,5.921c0.492,0.522,1.073,0.9,1.715,1.116c-0.144,0.174-0.149,0.186-0.264,0.354
		c-0.468-0.216-0.672-0.33-0.978-0.546c-0.294-0.21-0.462-0.359-0.791-0.701L103.438,5.921z"/>
	<path d="M106.692,4.081c-0.271,0-0.468,0.013-0.66,0.036V3.703c0.145,0.024,0.33,0.036,0.666,0.036h1.511V2.99h-0.965
		c-0.306,0-0.468,0.006-0.648,0.029V2.624c0.145,0.024,0.33,0.036,0.654,0.036h0.959V2.45c0-0.258-0.012-0.396-0.036-0.569h0.45
		c-0.03,0.149-0.036,0.3-0.036,0.569v0.21h0.558c0.318,0,0.504-0.012,0.66-0.036v0.396c-0.162-0.023-0.318-0.029-0.642-0.029h-0.576
		v0.749h0.54c0.665-0.497,1.283-1.151,1.511-1.589l0.354,0.234c-0.072,0.077-0.108,0.119-0.187,0.216
		c-0.33,0.396-0.653,0.713-1.163,1.139h0.983c0.306,0,0.479-0.012,0.642-0.036v0.414c-0.191-0.023-0.401-0.036-0.659-0.036h-1.416
		c-0.342,0.246-0.611,0.42-0.965,0.636c0.317-0.012,0.455-0.012,0.623-0.012h1.032c0.287,0,0.443-0.006,0.653-0.024
		c-0.024,0.174-0.024,0.313-0.024,0.66v1.343c0,0.3,0.006,0.456,0.03,0.618h-0.414V7.019h-2.477v0.282h-0.42
		c0.024-0.18,0.036-0.348,0.036-0.618v-1.02c0-0.125,0-0.281,0.006-0.432c-0.342,0.181-0.671,0.324-1.175,0.534
		c-0.066-0.132-0.126-0.228-0.234-0.342c1.074-0.366,1.871-0.756,2.765-1.344H106.692z M107.651,5.664h2.482V5.029h-2.482V5.664z
		 M107.651,6.696h2.482V5.988h-2.482V6.696z"/>
</g>
<g>
	<path d="M12.666,5.329c0.264,0,0.432-0.013,0.605-0.036v0.426c-0.186-0.024-0.359-0.036-0.605-0.036H8.528
		c-0.246,0-0.432,0.012-0.605,0.036V5.292c0.174,0.023,0.342,0.036,0.605,0.036h0.443V2.971c0-0.216-0.006-0.354-0.018-0.485
		c1.163-0.03,2.794-0.348,3.28-0.636l0.288,0.359c-0.03,0.013-0.126,0.042-0.282,0.091c-0.852,0.264-1.949,0.468-2.872,0.521v0.749
		h3.124c0.252,0,0.384-0.006,0.54-0.029v0.407c-0.156-0.023-0.3-0.029-0.54-0.029h-0.744v1.409H12.666z M9.962,6.173
		C9.338,6.786,8.99,7.019,8.252,7.349c-0.09-0.138-0.149-0.21-0.3-0.342c0.63-0.21,1.235-0.594,1.661-1.05L9.962,6.173z
		 M11.358,3.919h-1.99v1.409h1.99V3.919z M11.395,5.921c0.492,0.522,1.073,0.9,1.715,1.116c-0.144,0.174-0.149,0.186-0.264,0.354
		c-0.468-0.216-0.672-0.33-0.978-0.546c-0.294-0.21-0.462-0.359-0.791-0.701L11.395,5.921z"/>
	<path d="M14.99,6.593c0,0.294,0.012,0.486,0.042,0.726h-0.456c0.018-0.132,0.036-0.42,0.036-0.726V5.358
		c0-0.233,0.006-0.359,0.018-0.684c-0.21,0.271-0.323,0.384-0.636,0.63c-0.065-0.168-0.09-0.204-0.21-0.348
		c0.606-0.402,1.176-1.079,1.41-1.661l0.342,0.228c-0.03,0.042-0.036,0.055-0.084,0.126c-0.145,0.24-0.258,0.402-0.462,0.66V6.593z
		 M15.548,2.12c-0.054,0.055-0.078,0.078-0.168,0.198c-0.33,0.432-0.678,0.756-1.211,1.121c-0.078-0.138-0.139-0.203-0.252-0.294
		c0.491-0.312,0.803-0.581,1.085-0.941c0.096-0.126,0.174-0.239,0.21-0.323L15.548,2.12z M18.714,4.705
		c-0.065,0.09-0.09,0.126-0.162,0.252c-0.3,0.504-0.623,0.899-0.995,1.224c0.186,0.144,0.354,0.239,0.588,0.359
		c0.432,0.216,0.701,0.317,1.127,0.408c-0.102,0.155-0.144,0.239-0.197,0.39c-0.744-0.223-1.254-0.474-1.817-0.906
		c-0.569,0.42-1.067,0.666-1.781,0.882c-0.054-0.138-0.102-0.216-0.222-0.365c0.684-0.168,1.121-0.366,1.703-0.774
		c-0.414-0.384-0.702-0.785-0.96-1.349c-0.222,0-0.342,0.006-0.474,0.023V4.447c0.139,0.023,0.282,0.036,0.486,0.036h2.045
		c0.233,0,0.359-0.006,0.438-0.03L18.714,4.705z M16.651,2.509c-0.024,0.528-0.09,0.804-0.282,1.122
		c-0.138,0.233-0.27,0.372-0.558,0.588c-0.09-0.133-0.162-0.204-0.282-0.288c0.33-0.216,0.48-0.396,0.612-0.72
		c0.09-0.216,0.132-0.498,0.132-0.834c0-0.084-0.006-0.138-0.012-0.233c0.113,0.012,0.191,0.018,0.432,0.018h1.001
		c0.24,0,0.313-0.006,0.426-0.018c-0.018,0.12-0.018,0.186-0.018,0.438v0.941c0,0.103,0.042,0.12,0.317,0.12
		c0.492,0,0.492,0,0.516-0.695c0.162,0.107,0.234,0.138,0.354,0.168c-0.036,0.401-0.078,0.6-0.15,0.695
		c-0.084,0.12-0.282,0.168-0.701,0.168c-0.588,0-0.714-0.06-0.714-0.318V2.509H16.651z M16.388,4.825
		c0.209,0.432,0.455,0.743,0.869,1.115c0.414-0.348,0.659-0.647,0.924-1.115H16.388z"/>
	<path d="M23.94,3.439c0.324,0,0.521-0.006,0.689-0.023c-0.018,0.155-0.023,0.294-0.023,0.552V4.68c0,0.258,0.006,0.402,0.023,0.552
		c-0.216-0.018-0.342-0.023-0.672-0.023h-0.726v1.421c0,0.174,0.132,0.21,0.732,0.21c0.545,0,0.755-0.03,0.839-0.132
		c0.084-0.096,0.096-0.21,0.096-0.762c0.145,0.084,0.246,0.126,0.378,0.156C25.26,6.618,25.206,6.87,25.086,6.99
		c-0.132,0.144-0.438,0.197-1.104,0.197c-0.924,0-1.128-0.084-1.128-0.438V5.208h-0.719c-0.084,0.558-0.192,0.863-0.438,1.193
		c-0.186,0.258-0.432,0.468-0.731,0.636c-0.239,0.138-0.438,0.21-0.846,0.317c-0.065-0.168-0.107-0.246-0.216-0.372
		c0.504-0.113,0.773-0.222,1.073-0.432c0.486-0.336,0.69-0.695,0.762-1.343h-0.468c-0.323,0-0.479,0.006-0.671,0.023
		c0.018-0.155,0.023-0.3,0.023-0.552V3.727c-0.138,0.108-0.204,0.162-0.396,0.3c-0.084-0.114-0.132-0.174-0.252-0.275
		c0.63-0.42,1.043-0.822,1.463-1.428c0.168-0.24,0.229-0.342,0.282-0.504l0.42,0.126C22.1,2.006,22.1,2.006,22.046,2.083
		c-0.019,0.019-0.024,0.03-0.072,0.108c-0.03,0.048-0.042,0.066-0.096,0.138h1.121c0.306,0,0.462-0.006,0.558-0.029l0.198,0.222
		c-0.072,0.078-0.084,0.096-0.204,0.246c-0.246,0.306-0.402,0.479-0.612,0.671H23.94z M22.495,3.439
		c0.252-0.222,0.438-0.438,0.672-0.779h-1.523c-0.233,0.306-0.401,0.492-0.695,0.779H22.495z M22.394,3.769h-1.397v1.109h1.397
		V3.769z M22.759,4.878h1.476V3.769h-1.476V4.878z"/>
	<path d="M26.169,2.528c0-0.168-0.007-0.336-0.019-0.456c0.072,0.012,0.24,0.019,0.39,0.019h0.792c0.191,0,0.3-0.007,0.384-0.024
		l0.21,0.204c-0.013,0.036-0.013,0.036-0.042,0.096c-0.013,0.019-0.024,0.054-0.048,0.103c-0.204,0.497-0.408,0.911-0.654,1.325
		c0.216,0.275,0.3,0.419,0.384,0.659c0.078,0.228,0.12,0.485,0.12,0.743c0,0.384-0.102,0.601-0.317,0.672
		c-0.108,0.036-0.265,0.054-0.426,0.054c-0.066,0-0.072,0-0.204-0.006c-0.006-0.149-0.024-0.216-0.072-0.359
		c0.15,0.018,0.24,0.023,0.354,0.023c0.229,0,0.313-0.096,0.313-0.365c0-0.576-0.138-0.93-0.546-1.392
		c0.3-0.485,0.479-0.857,0.684-1.403h-0.936v4.252c0,0.234,0.012,0.45,0.03,0.636h-0.432c0.023-0.168,0.036-0.396,0.036-0.642V2.528
		z M28.597,5.448c-0.317,0.768-0.516,1.062-1.025,1.535c-0.126-0.155-0.149-0.174-0.281-0.275c0.281-0.234,0.401-0.354,0.558-0.569
		c0.168-0.24,0.264-0.426,0.414-0.834L28.597,5.448z M28.675,3.943c-0.186,0-0.306,0.006-0.462,0.024V3.589
		c-0.191,0.144-0.27,0.204-0.497,0.342c-0.096-0.18-0.103-0.18-0.24-0.324c0.792-0.432,1.283-0.911,1.703-1.673h0.42
		c0.432,0.726,1.02,1.247,1.889,1.679c-0.078,0.108-0.162,0.234-0.228,0.36c-0.852-0.504-1.373-0.978-1.859-1.697
		c-0.455,0.666-0.671,0.905-1.188,1.313c0.133,0.018,0.252,0.023,0.468,0.023h1.506c0.203,0,0.317-0.006,0.455-0.023v0.378
		c-0.155-0.019-0.264-0.024-0.455-0.024h-0.624v0.75h1.121c0.246,0,0.402-0.013,0.57-0.036v0.414
		c-0.162-0.024-0.336-0.036-0.57-0.036h-1.121v1.751c0,0.348-0.144,0.462-0.569,0.462c-0.139,0-0.348-0.007-0.528-0.024
		c-0.023-0.168-0.042-0.222-0.119-0.396c0.251,0.036,0.449,0.054,0.611,0.054c0.168,0,0.228-0.036,0.228-0.138V5.035h-0.846
		c-0.21,0-0.384,0.012-0.516,0.029V4.663c0.126,0.018,0.313,0.03,0.516,0.03h0.846v-0.75H28.675z M30.396,5.316
		c0.3,0.654,0.516,0.941,0.995,1.355c-0.12,0.102-0.174,0.168-0.288,0.318c-0.51-0.54-0.72-0.858-1.025-1.529L30.396,5.316z"/>
	<path d="M32.648,4.081c-0.271,0-0.468,0.013-0.66,0.036V3.703c0.145,0.024,0.33,0.036,0.666,0.036h1.511V2.99H33.2
		c-0.306,0-0.468,0.006-0.648,0.029V2.624c0.145,0.024,0.33,0.036,0.654,0.036h0.959V2.45c0-0.258-0.012-0.396-0.036-0.569h0.45
		c-0.03,0.149-0.036,0.3-0.036,0.569v0.21h0.558c0.318,0,0.504-0.012,0.66-0.036v0.396c-0.162-0.023-0.318-0.029-0.642-0.029h-0.576
		v0.749h0.54c0.665-0.497,1.283-1.151,1.511-1.589l0.354,0.234C36.876,2.461,36.84,2.503,36.762,2.6
		c-0.33,0.396-0.653,0.713-1.163,1.139h0.983c0.306,0,0.479-0.012,0.642-0.036v0.414c-0.191-0.023-0.401-0.036-0.659-0.036h-1.416
		c-0.342,0.246-0.611,0.42-0.965,0.636c0.317-0.012,0.455-0.012,0.623-0.012h1.032c0.287,0,0.443-0.006,0.653-0.024
		c-0.024,0.174-0.024,0.313-0.024,0.66v1.343c0,0.3,0.006,0.456,0.03,0.618h-0.414V7.019h-2.477v0.282h-0.42
		c0.024-0.18,0.036-0.348,0.036-0.618v-1.02c0-0.125,0-0.281,0.006-0.432c-0.342,0.181-0.671,0.324-1.175,0.534
		c-0.066-0.132-0.126-0.228-0.234-0.342c1.074-0.366,1.871-0.756,2.765-1.344H32.648z M33.607,5.664h2.482V5.029h-2.482V5.664z
		 M33.607,6.696h2.482V5.988h-2.482V6.696z"/>
	<path d="M40.604,6.845c-0.378,0-0.468,0.006-0.66,0.03c0.066-0.474,0.084-0.563,0.174-0.792c0.15-0.378,0.402-0.707,0.78-1.031
		c0.21-0.18,0.222-0.186,0.917-0.659c0.594-0.402,0.792-0.666,0.792-1.032c0-0.455-0.384-0.749-0.996-0.749
		c-0.396,0-0.689,0.132-0.869,0.39c-0.114,0.162-0.168,0.306-0.21,0.605l-0.504-0.084c0.09-0.432,0.18-0.642,0.378-0.863
		c0.27-0.306,0.678-0.462,1.205-0.462c0.906,0,1.487,0.456,1.487,1.163c0,0.307-0.12,0.594-0.354,0.852
		c-0.18,0.204-0.336,0.318-1.02,0.774c-0.474,0.317-0.666,0.485-0.863,0.737c-0.187,0.246-0.271,0.407-0.342,0.695h1.913
		c0.3,0,0.503-0.012,0.731-0.042v0.504c-0.24-0.024-0.438-0.036-0.737-0.036H40.604z"/>
	<path d="M43.719,5.256c0.126-0.144,0.265-0.312,0.39-0.462L45.626,2.9c0.204-0.252,0.312-0.402,0.45-0.612h0.449
		c-0.03,0.354-0.036,0.54-0.036,1.014v1.967h0.229c0.252,0,0.407-0.012,0.623-0.042v0.498c-0.222-0.03-0.371-0.042-0.629-0.042
		h-0.223v0.516c0,0.288,0.013,0.426,0.048,0.647h-0.545c0.036-0.21,0.048-0.378,0.048-0.647V5.682h-1.607
		c-0.336,0-0.516,0.006-0.714,0.023V5.256z M46.046,3.751c0-0.318,0.006-0.51,0.036-0.816c-0.126,0.181-0.276,0.378-0.45,0.601
		l-1.379,1.738h1.793V3.751z"/>
	<path d="M50,2.654c-0.251,0-0.449,0.012-0.642,0.036V2.251C49.545,2.276,49.736,2.288,50,2.288h4.03
		c0.258,0,0.443-0.012,0.642-0.036V2.69c-0.18-0.024-0.39-0.036-0.642-0.036h-2.429c-0.036,0.791-0.036,0.791-0.084,1.169h1.817
		c0.359,0,0.545-0.006,0.695-0.029c-0.018,0.107-0.024,0.216-0.036,0.468c-0.048,1.181-0.144,2.009-0.288,2.422
		c-0.132,0.384-0.329,0.498-0.869,0.498c-0.216,0-0.485-0.024-0.924-0.072c-0.012-0.174-0.042-0.287-0.096-0.432
		c0.479,0.09,0.773,0.126,1.05,0.126c0.348,0,0.426-0.072,0.516-0.491c0.113-0.552,0.186-1.302,0.21-2.129H51.47
		c-0.138,0.791-0.366,1.396-0.75,1.984c-0.275,0.414-0.569,0.714-1.109,1.14c-0.107-0.15-0.191-0.228-0.323-0.317
		c0.791-0.564,1.193-1.05,1.505-1.842c0.258-0.642,0.372-1.367,0.396-2.494H50z"/>
	<path d="M57.513,6.845c-0.378,0-0.468,0.006-0.66,0.03c0.066-0.474,0.084-0.563,0.174-0.792c0.15-0.378,0.402-0.707,0.78-1.031
		c0.21-0.18,0.222-0.186,0.917-0.659c0.594-0.402,0.792-0.666,0.792-1.032c0-0.455-0.384-0.749-0.996-0.749
		c-0.396,0-0.689,0.132-0.869,0.39c-0.114,0.162-0.168,0.306-0.21,0.605l-0.504-0.084c0.09-0.432,0.18-0.642,0.378-0.863
		c0.27-0.306,0.678-0.462,1.205-0.462c0.906,0,1.487,0.456,1.487,1.163c0,0.307-0.12,0.594-0.354,0.852
		c-0.18,0.204-0.336,0.318-1.02,0.774c-0.474,0.317-0.666,0.485-0.863,0.737C57.584,5.97,57.5,6.131,57.429,6.419h1.913
		c0.3,0,0.503-0.012,0.731-0.042v0.504c-0.24-0.024-0.438-0.036-0.737-0.036H57.513z"/>
	<path d="M63.638,4.716c0.3,0.222,0.449,0.54,0.449,0.941c0,0.822-0.6,1.283-1.654,1.283c-1.098,0-1.703-0.455-1.703-1.283
		c0-0.432,0.174-0.762,0.533-0.995c0.187-0.12,0.318-0.168,0.54-0.204c-0.527-0.096-0.869-0.521-0.869-1.079
		c0-0.726,0.569-1.188,1.475-1.188c0.918,0,1.481,0.45,1.481,1.188c0,0.558-0.336,0.978-0.87,1.079
		C63.271,4.495,63.439,4.567,63.638,4.716z M61.221,5.628c0,0.569,0.438,0.905,1.182,0.905c0.42,0,0.762-0.108,0.966-0.312
		c0.149-0.139,0.228-0.349,0.228-0.594c0-0.588-0.45-0.941-1.188-0.941S61.221,5.046,61.221,5.628z M61.401,3.416
		c0,0.533,0.383,0.857,1.013,0.857s1.008-0.324,1.008-0.857c0-0.504-0.396-0.822-1.014-0.822
		C61.797,2.593,61.401,2.917,61.401,3.416z"/>
	<path d="M67.395,3.284c-0.078-0.192-0.12-0.276-0.21-0.378c-0.181-0.198-0.414-0.3-0.714-0.3c-0.468,0-0.821,0.252-1.037,0.743
		c-0.156,0.36-0.21,0.636-0.252,1.289c0.107-0.186,0.168-0.27,0.3-0.384c0.281-0.251,0.6-0.365,1.014-0.365
		C67.424,3.889,68,4.464,68,5.388c0,0.93-0.624,1.541-1.571,1.541c-0.426,0-0.827-0.138-1.086-0.378
		c-0.39-0.359-0.605-1.031-0.605-1.883c0-0.749,0.168-1.421,0.456-1.811c0.317-0.432,0.743-0.654,1.266-0.654
		c0.359,0,0.684,0.09,0.911,0.252c0.21,0.15,0.33,0.313,0.504,0.672L67.395,3.284z M66.429,4.291c-0.3,0-0.618,0.132-0.827,0.342
		c-0.198,0.198-0.3,0.462-0.3,0.762c0,0.647,0.485,1.128,1.133,1.128c0.39,0,0.75-0.187,0.936-0.486
		c0.096-0.155,0.156-0.401,0.156-0.636C67.526,4.693,67.13,4.291,66.429,4.291z"/>
	<path d="M69.195,6.509c-0.161-0.162-0.287-0.348-0.359-0.552c-0.15-0.419-0.228-0.894-0.228-1.385c0-0.636,0.138-1.283,0.348-1.631
		c0.288-0.486,0.749-0.738,1.343-0.738c0.444,0,0.828,0.145,1.098,0.426c0.168,0.168,0.288,0.354,0.359,0.552
		c0.15,0.414,0.229,0.894,0.229,1.392c0,0.726-0.156,1.367-0.42,1.733c-0.3,0.419-0.72,0.629-1.271,0.629
		C69.85,6.935,69.478,6.792,69.195,6.509z M69.544,2.923c-0.126,0.138-0.223,0.288-0.271,0.438
		c-0.126,0.366-0.186,0.774-0.186,1.212c0,0.558,0.12,1.146,0.281,1.427c0.21,0.348,0.522,0.522,0.93,0.522
		c0.3,0,0.558-0.097,0.738-0.282c0.132-0.138,0.228-0.294,0.281-0.468c0.126-0.372,0.187-0.768,0.187-1.211
		c0-0.522-0.114-1.116-0.271-1.397c-0.197-0.36-0.521-0.546-0.941-0.546C69.981,2.618,69.735,2.719,69.544,2.923z"/>
	<path d="M77.001,1.97c-0.019,0.102-0.03,0.342-0.03,0.533c0,0.354,0.06,0.966,0.132,1.302c0.103,0.479,0.426,1.188,0.773,1.679
		c0.24,0.336,0.564,0.678,0.888,0.947c0.192,0.162,0.348,0.265,0.695,0.468c-0.144,0.133-0.209,0.204-0.312,0.378
		c-0.731-0.497-1.163-0.917-1.589-1.535c-0.372-0.546-0.6-1.104-0.779-1.906c-0.108,0.569-0.21,0.894-0.414,1.337
		c-0.21,0.462-0.474,0.846-0.857,1.229c-0.336,0.348-0.582,0.546-1.104,0.875c-0.102-0.162-0.174-0.239-0.324-0.354
		c0.606-0.336,0.876-0.534,1.224-0.905c0.834-0.894,1.241-2.045,1.241-3.521c0-0.252-0.006-0.372-0.023-0.527H77.001z"/>
</g>
<g>
	<g>
		<g>
			
				<rect x="92.269" y="0.224" fill="none" stroke="#000000" stroke-width="0.4468" stroke-miterlimit="10" width="20.205" height="14.878"/>
		</g>
	</g>
	<g>
		<g>
			
				<rect x="0.224" y="0.224" fill="none" stroke="#000000" stroke-width="0.4468" stroke-miterlimit="10" width="92.045" height="14.878"/>
		</g>
	</g>
</g>
</svg>
