<?xml version="1.0" encoding="utf-8"?>
<!-- Generator: Adobe Illustrator 16.0.3, SVG Export Plug-In . SVG Version: 6.00 Build 0)  -->
<!DOCTYPE svg PUBLIC "-//W3C//DTD SVG 1.1//EN" "http://www.w3.org/Graphics/SVG/1.1/DTD/svg11.dtd">
<svg version="1.1" id="レイヤー_1" xmlns="http://www.w3.org/2000/svg" xmlns:xlink="http://www.w3.org/1999/xlink" x="0px"
	 y="0px" width="98.08px" height="35.88px" viewBox="0 0 98.08 35.88" enable-background="new 0 0 98.08 35.88"
	 xml:space="preserve">
<g>
	<path d="M68.042,28.553c-0.031,0.256-0.047,0.496-0.047,0.815v5.237c0,0.336,0.016,0.584,0.047,0.848h-0.639
		c0.039-0.279,0.057-0.535,0.057-0.855v-5.229c0-0.287-0.018-0.543-0.057-0.815H68.042z M69.314,29.561
		c0-0.328-0.008-0.576-0.031-0.792c0.232,0.024,0.432,0.032,0.783,0.032h2.662c0.361,0,0.568-0.008,0.775-0.032
		c-0.023,0.232-0.031,0.424-0.031,0.744v4.973c0,0.305,0.016,0.616,0.049,0.848h-0.592v-0.52h-3.086v0.527h-0.576
		c0.031-0.224,0.047-0.495,0.047-0.871V29.561z M69.851,31.447h3.078v-2.158h-3.078V31.447z M69.851,34.326h3.078v-2.391h-3.078
		V34.326z"/>
	<path d="M75.98,29.944c-0.232,0.472-0.369,0.695-0.744,1.176c-0.119-0.168-0.191-0.232-0.393-0.353
		c0.561-0.6,0.855-1.159,1.064-1.999c0.047-0.207,0.072-0.319,0.072-0.439l0.543,0.088c-0.049,0.128-0.064,0.192-0.137,0.432
		c-0.063,0.24-0.111,0.392-0.207,0.632h1.447c0.393,0,0.6-0.016,0.783-0.048v0.552c-0.248-0.024-0.512-0.04-0.783-0.04h-0.512
		c-0.016,0.863-0.016,0.959-0.057,1.495h0.68c0.328,0,0.568-0.016,0.76-0.048v0.56c-0.199-0.032-0.447-0.048-0.76-0.048h-0.719
		c-0.023,0.184-0.033,0.279-0.064,0.472c0.455,0.855,0.816,1.287,1.52,1.823c-0.145,0.151-0.217,0.264-0.32,0.479
		c-0.6-0.56-0.855-0.88-1.344-1.695c-0.287,0.976-0.719,1.6-1.598,2.303c-0.129-0.191-0.217-0.279-0.4-0.416
		c1.096-0.775,1.559-1.575,1.719-2.966h-0.727c-0.393,0-0.6,0.008-0.848,0.048v-0.56c0.238,0.04,0.439,0.048,0.863,0.048h0.76
		c0.031-0.439,0.039-0.607,0.047-1.495H75.98z M79.265,35.317h-0.551c0.031-0.224,0.047-0.56,0.047-0.911v-4.438
		c0-0.304-0.016-0.567-0.047-0.839c0.223,0.032,0.375,0.04,0.719,0.04h1.6c0.336,0,0.496-0.008,0.719-0.04
		c-0.031,0.239-0.039,0.464-0.039,0.839v4.382c0,0.376,0.016,0.735,0.047,0.968h-0.559V34.75h-1.936V35.317z M79.265,34.286h1.936
		v-4.653h-1.936V34.286z"/>
	<path d="M84.484,33.479c-0.48,0.976-0.561,1.104-1.191,2.03l-0.449-0.384c0.273-0.264,0.457-0.503,0.729-0.935
		c0.199-0.32,0.32-0.568,0.527-1.063L84.484,33.479z M84.076,32.631c-0.352-0.352-0.672-0.584-1.176-0.863l0.287-0.36
		c0.512,0.288,0.752,0.448,1.191,0.815L84.076,32.631z M84.986,28.849c0-0.208-0.016-0.352-0.031-0.504h0.543
		c-0.023,0.152-0.031,0.288-0.031,0.504v0.088h1.887v-0.088c0-0.208-0.008-0.344-0.023-0.504h0.543
		c-0.023,0.152-0.031,0.28-0.031,0.504v0.088h1.352c0.344,0,0.592-0.016,0.807-0.048v0.52c-0.23-0.031-0.479-0.048-0.807-0.048
		h-1.352c0,0.216,0.008,0.32,0.031,0.464H87.33c0.016-0.151,0.023-0.248,0.023-0.464h-1.887c0,0.256,0.008,0.376,0.031,0.536h-0.543
		c0.023-0.16,0.031-0.288,0.031-0.536H83.74c-0.328,0-0.576,0.017-0.809,0.048v-0.52c0.217,0.032,0.465,0.048,0.809,0.048h1.246
		V28.849z M84.339,31.12c-0.367-0.385-0.656-0.632-1.127-0.928l0.311-0.336c0.48,0.312,0.752,0.527,1.145,0.903L84.339,31.12z
		 M85.386,31.839c-0.336,0-0.559,0.009-0.76,0.04v-0.472c0.184,0.032,0.4,0.04,0.76,0.04h0.473
		c-0.145-0.231-0.232-0.352-0.408-0.527l0.408-0.176c0.215,0.264,0.311,0.415,0.455,0.703h0.711v-0.855
		c-0.639,0.048-0.639,0.048-0.822,0.056c-0.096,0-0.096,0-0.607,0.024c-0.168,0-0.209,0.008-0.48,0.016
		c-0.031-0.151-0.072-0.264-0.16-0.432c0.137,0.008,0.248,0.008,0.313,0.008c1.688,0,3.334-0.199,3.893-0.472l0.385,0.416
		c-0.799,0.184-1.416,0.28-2.088,0.344v0.896h0.736c0.279-0.359,0.447-0.632,0.584-0.983l0.463,0.16
		c-0.215,0.352-0.359,0.56-0.559,0.823h0.527c0.367,0,0.584-0.008,0.768-0.04v0.472c-0.225-0.023-0.48-0.04-0.768-0.04h-1.352
		c0.553,0.504,1.344,0.912,2.352,1.208c-0.217,0.296-0.217,0.296-0.271,0.424c-0.273-0.112-0.361-0.145-0.672-0.296v1.615
		c0,0.319,0.016,0.6,0.047,0.831h-0.504v-0.319h-3.117v0.312h-0.496c0.031-0.24,0.047-0.52,0.047-0.823v-1.575
		c-0.223,0.111-0.295,0.144-0.535,0.247c-0.055-0.128-0.152-0.247-0.287-0.367c0.975-0.32,1.662-0.712,2.207-1.256H85.386z
		 M85.691,33.343v0.583h1.311v-0.583H85.691z M87.001,34.294h-1.311v0.624h1.311V34.294z M88.857,32.967
		c-0.592-0.32-1-0.616-1.424-1.056c0.016,0.152,0.023,0.296,0.023,0.424v0.12c0,0.144,0.01,0.271,0.033,0.384h-0.488
		c0.016-0.136,0.023-0.248,0.023-0.392v-0.112c0-0.128,0.008-0.296,0.025-0.424c-0.416,0.456-0.809,0.76-1.344,1.056H88.857z
		 M88.816,33.926v-0.583h-1.383v0.583H88.816z M88.816,34.918v-0.624h-1.383v0.624H88.816z"/>
	<path d="M94.138,32.271h-1.879c-0.328,0-0.52,0.009-0.752,0.04v-0.495c0.199,0.032,0.393,0.04,0.768,0.04h1.863v-0.52h-1.672
		c-0.264,0-0.479,0.008-0.654,0.031c0.023-0.184,0.031-0.327,0.031-0.535v-0.353c0-0.216-0.008-0.344-0.031-0.543
		c0.207,0.023,0.383,0.031,0.662,0.031h1.664V29.44H91.82c-0.369,0-0.656,0.016-0.896,0.048v-0.527
		c0.217,0.032,0.449,0.048,0.912,0.048h2.303c0-0.392-0.008-0.512-0.049-0.72h0.584c-0.047,0.2-0.055,0.312-0.055,0.72h2.445
		c0.465,0,0.705-0.016,0.92-0.048v0.527c-0.264-0.032-0.527-0.048-0.904-0.048h-2.461v0.527h1.838c0.279,0,0.457-0.008,0.656-0.031
		c-0.023,0.199-0.033,0.319-0.033,0.543v0.353c0,0.224,0.01,0.336,0.033,0.535c-0.176-0.023-0.393-0.031-0.648-0.031h-1.846v0.52
		h1.742c0.463,0,0.68-0.008,0.896-0.032c-0.018,0.168-0.025,0.32-0.025,0.664v0.335c0.457,0,0.672-0.008,0.848-0.048v0.504
		c-0.199-0.032-0.424-0.04-0.848-0.04v0.52c0,0.393,0.016,0.608,0.049,0.8h-0.52v-0.328h-2.143v0.664
		c0,0.552-0.16,0.664-0.936,0.664c-0.168,0-0.313-0.009-0.76-0.032c-0.016-0.2-0.049-0.304-0.137-0.504
		c0.408,0.056,0.688,0.08,0.992,0.08c0.287,0,0.359-0.04,0.359-0.216v-0.656H92.21c-0.367,0-0.535,0.009-0.783,0.04v-0.495
		c0.225,0.031,0.385,0.04,0.768,0.04h1.943v-0.576H91.74c-0.439,0-0.656,0.008-0.871,0.04v-0.504
		c0.191,0.032,0.416,0.048,0.871,0.048h2.398V32.271z M92.324,30.36v0.592h1.814V30.36H92.324z M94.619,30.952h1.982V30.36h-1.982
		V30.952z M96.761,32.822v-0.552h-2.143v0.552H96.761z M94.619,33.814h2.143v-0.576h-2.143V33.814z"/>
</g>
<g>
	<path d="M68.042,0.386c-0.031,0.256-0.047,0.496-0.047,0.815v5.237c0,0.336,0.016,0.584,0.047,0.848h-0.639
		c0.039-0.279,0.057-0.535,0.057-0.855V1.201c0-0.287-0.018-0.543-0.057-0.815H68.042z M69.314,1.394
		c0-0.328-0.008-0.576-0.031-0.792c0.232,0.024,0.432,0.032,0.783,0.032h2.662c0.361,0,0.568-0.008,0.775-0.032
		c-0.023,0.232-0.031,0.424-0.031,0.744v4.973c0,0.305,0.016,0.616,0.049,0.848h-0.592v-0.52h-3.086v0.527h-0.576
		c0.031-0.224,0.047-0.495,0.047-0.871V1.394z M69.851,3.28h3.078V1.122h-3.078V3.28z M69.851,6.159h3.078V3.769h-3.078V6.159z"/>
	<path d="M76.484,5.312c-0.48,0.976-0.561,1.104-1.191,2.03l-0.449-0.384c0.273-0.264,0.457-0.503,0.729-0.935
		c0.199-0.32,0.32-0.568,0.527-1.063L76.484,5.312z M76.076,4.464C75.724,4.112,75.404,3.88,74.9,3.601l0.287-0.36
		c0.512,0.288,0.752,0.448,1.191,0.815L76.076,4.464z M76.986,0.682c0-0.208-0.016-0.352-0.031-0.504h0.543
		c-0.023,0.152-0.031,0.288-0.031,0.504V0.77h1.887V0.682c0-0.208-0.008-0.344-0.023-0.504h0.543
		c-0.023,0.152-0.031,0.28-0.031,0.504V0.77h1.352c0.344,0,0.592-0.016,0.807-0.048v0.52c-0.23-0.031-0.479-0.048-0.807-0.048
		h-1.352c0,0.216,0.008,0.32,0.031,0.464H79.33c0.016-0.151,0.023-0.248,0.023-0.464h-1.887c0,0.256,0.008,0.376,0.031,0.536h-0.543
		c0.023-0.16,0.031-0.288,0.031-0.536H75.74c-0.328,0-0.576,0.017-0.809,0.048v-0.52c0.217,0.032,0.465,0.048,0.809,0.048h1.246
		V0.682z M76.339,2.953c-0.367-0.385-0.656-0.632-1.127-0.928l0.311-0.336c0.48,0.312,0.752,0.527,1.145,0.903L76.339,2.953z
		 M77.386,3.672c-0.336,0-0.559,0.009-0.76,0.04V3.24c0.184,0.032,0.4,0.04,0.76,0.04h0.473c-0.145-0.231-0.232-0.352-0.408-0.527
		l0.408-0.176c0.215,0.264,0.311,0.415,0.455,0.703h0.711V2.425c-0.639,0.048-0.639,0.048-0.822,0.056c-0.096,0-0.096,0-0.607,0.024
		c-0.168,0-0.209,0.008-0.48,0.016c-0.031-0.151-0.072-0.264-0.16-0.432c0.137,0.008,0.248,0.008,0.313,0.008
		c1.688,0,3.334-0.199,3.893-0.472l0.385,0.416c-0.799,0.184-1.416,0.28-2.088,0.344V3.28h0.736
		c0.279-0.359,0.447-0.632,0.584-0.983l0.463,0.16c-0.215,0.352-0.359,0.56-0.559,0.823h0.527c0.367,0,0.584-0.008,0.768-0.04v0.472
		c-0.225-0.023-0.48-0.04-0.768-0.04h-1.352c0.553,0.504,1.344,0.912,2.352,1.208c-0.217,0.296-0.217,0.296-0.271,0.424
		c-0.273-0.112-0.361-0.145-0.672-0.296v1.615c0,0.319,0.016,0.6,0.047,0.831h-0.504V7.135h-3.117v0.312h-0.496
		c0.031-0.24,0.047-0.52,0.047-0.823V5.048c-0.223,0.111-0.295,0.144-0.535,0.247c-0.055-0.128-0.152-0.247-0.287-0.367
		c0.975-0.32,1.662-0.712,2.207-1.256H77.386z M77.691,5.176v0.583h1.311V5.176H77.691z M79.001,6.127h-1.311v0.624h1.311V6.127z
		 M80.857,4.8c-0.592-0.32-1-0.616-1.424-1.056c0.016,0.152,0.023,0.296,0.023,0.424v0.12c0,0.144,0.01,0.271,0.033,0.384h-0.488
		c0.016-0.136,0.023-0.248,0.023-0.392V4.168c0-0.128,0.008-0.296,0.025-0.424C78.634,4.2,78.242,4.504,77.707,4.8H80.857z
		 M80.816,5.759V5.176h-1.383v0.583H80.816z M80.816,6.751V6.127h-1.383v0.624H80.816z"/>
	<path d="M86.089,1.098c0-0.312-0.016-0.56-0.055-0.832h0.672c-0.041,0.288-0.057,0.512-0.057,0.832v1.647h2.367
		c0.328,0,0.615-0.017,0.902-0.057v0.616c-0.295-0.04-0.559-0.057-0.895-0.057H86.65v3.19h1.943c0.424,0,0.631-0.008,0.855-0.048
		v0.6c-0.232-0.032-0.447-0.048-0.855-0.048h-4.295c-0.414,0-0.639,0.016-0.863,0.048v-0.6c0.201,0.032,0.449,0.048,0.855,0.048
		h1.799v-3.19h-2.15c-0.344,0-0.646,0.017-0.959,0.057V2.688c0.32,0.04,0.584,0.057,0.959,0.057h2.15V1.098z"/>
</g>
<g>
	<path d="M41.417,15.389c-0.903,0.616-1.879,1.04-2.918,1.327c-0.024,0.009-0.057,0.009-0.08,0.009c-0.128,0-0.232-0.072-0.28-0.217
		c-0.008-0.031-0.008-0.063-0.008-0.096c0-0.128,0.063-0.231,0.184-0.279c0.912-0.208,2.007-0.64,2.847-1.208
		c-0.12-0.176-0.248-0.352-0.399-0.512c-0.664,0.353-1.384,0.624-2.104,0.8c-0.032,0.008-0.063,0.008-0.088,0.008
		c-0.128,0-0.216-0.08-0.248-0.216c-0.016-0.032-0.016-0.063-0.016-0.096c0-0.128,0.088-0.208,0.216-0.256
		c0.888-0.176,1.815-0.512,2.479-0.96h-1.767c-0.128,0-0.2-0.104-0.2-0.247c0-0.152,0.072-0.248,0.2-0.248h4.854
		c0.128,0,0.199,0.096,0.199,0.248c0,0.144-0.071,0.247-0.199,0.247h-1.416c0.088,0.488,0.216,0.968,0.4,1.424
		c0.399-0.296,0.783-0.632,1.071-0.983c0.048-0.056,0.111-0.08,0.191-0.08c0.072,0,0.152,0.024,0.225,0.088
		c0.08,0.063,0.119,0.152,0.119,0.231c0,0.057-0.023,0.12-0.071,0.168c-0.32,0.344-0.768,0.728-1.296,1.088
		c0.432,0.808,1.032,1.423,1.815,1.895c0.104,0.064,0.168,0.168,0.168,0.288c0,0.064-0.017,0.128-0.056,0.184
		c-0.072,0.097-0.177,0.145-0.28,0.145c-0.063,0-0.136-0.024-0.2-0.064c-1.423-0.879-2.271-2.391-2.646-4.382h-0.248
		c-0.207,0.16-0.424,0.313-0.647,0.456c0.376,0.376,0.647,0.84,0.832,1.279c0.216,0.528,0.319,1.151,0.319,1.799
		c0,1.111-0.344,1.384-1.063,1.384c-0.327,0-0.592-0.024-0.823-0.08c-0.128-0.032-0.231-0.128-0.231-0.271
		c0-0.024,0-0.057,0.008-0.088c0.032-0.145,0.144-0.225,0.271-0.225c0.024,0,0.048,0,0.072,0.008c0.176,0.049,0.416,0.08,0.607,0.08
		c0.464,0,0.584-0.071,0.584-0.839c0-0.216-0.017-0.433-0.04-0.64c-0.951,0.751-2.151,1.343-3.343,1.711
		c-0.031,0.008-0.063,0.016-0.104,0.016c-0.112,0-0.224-0.063-0.271-0.2c-0.009-0.04-0.017-0.079-0.017-0.119
		c0-0.137,0.088-0.248,0.216-0.296c1.144-0.296,2.415-0.896,3.398-1.695c-0.048-0.192-0.12-0.368-0.2-0.544L41.417,15.389z
		 M44.439,11.935c0.464,0,0.688,0.176,0.688,0.624v0.768c0,0.16-0.12,0.24-0.312,0.24c-0.192,0-0.313-0.08-0.313-0.24V12.67
		c0-0.151-0.08-0.199-0.256-0.199h-5.173c-0.176,0-0.256,0.048-0.256,0.199v0.656c0,0.16-0.128,0.24-0.319,0.24
		c-0.192,0-0.305-0.08-0.305-0.24v-0.768c0-0.448,0.225-0.624,0.688-0.624h2.423v-0.52c0-0.151,0.104-0.224,0.313-0.224
		s0.296,0.072,0.296,0.224v0.52H44.439z"/>
	<path d="M46.979,16.477c0-0.408,0.016-0.76,0.048-1.104c-0.232,0.264-0.488,0.52-0.744,0.728c-0.071,0.056-0.136,0.088-0.199,0.088
		c-0.08,0-0.152-0.048-0.225-0.136c-0.039-0.057-0.063-0.12-0.063-0.184c0-0.089,0.04-0.168,0.12-0.232
		c0.848-0.655,1.575-1.559,1.959-2.343c0.016-0.04,0.023-0.072,0.023-0.096c0-0.056-0.04-0.088-0.119-0.088h-1.56
		c-0.144,0-0.224-0.112-0.224-0.272c0-0.159,0.08-0.271,0.224-0.271h0.752v-1.127c0-0.145,0.119-0.225,0.304-0.225
		c0.184,0,0.304,0.08,0.304,0.225v1.127h0.487c0.304,0,0.504,0.168,0.504,0.439c0,0.097-0.023,0.208-0.08,0.328
		c-0.199,0.416-0.487,0.871-0.808,1.295c0.336,0.36,0.647,0.616,0.943,0.824c0.08,0.048,0.12,0.136,0.12,0.231
		c0,0.064-0.023,0.128-0.063,0.192c-0.064,0.071-0.145,0.111-0.216,0.111c-0.057,0-0.112-0.023-0.16-0.063
		c-0.248-0.2-0.496-0.432-0.752-0.735c0.024,0.399,0.032,0.751,0.032,1.079v2.167c0,0.144-0.128,0.224-0.304,0.224
		c-0.184,0-0.304-0.08-0.304-0.224V16.477z M50.568,16.708c-0.607,0.416-1.247,0.8-1.927,1.128
		c-0.048,0.023-0.096,0.031-0.136,0.031c-0.104,0-0.2-0.063-0.256-0.168c-0.024-0.056-0.032-0.104-0.032-0.144
		c0-0.104,0.048-0.191,0.16-0.24c0.719-0.296,1.486-0.719,2.19-1.207v-1.727h-1.927c-0.136,0-0.216-0.104-0.216-0.256
		c0-0.152,0.08-0.272,0.216-0.272h3.182l0.024-0.688h-2.534c-0.129,0-0.2-0.104-0.2-0.248c0-0.136,0.071-0.231,0.2-0.231h2.559
		l0.016-0.496c0-0.008,0-0.016,0-0.023c0-0.128-0.08-0.168-0.208-0.168h-2.606c-0.128,0-0.2-0.112-0.2-0.256
		c0-0.145,0.072-0.264,0.2-0.264h2.782c0.384,0,0.616,0.176,0.616,0.575c0,0.016,0,0.024,0,0.04l-0.064,1.759h0.808
		c0.144,0,0.224,0.112,0.224,0.264c0,0.16-0.08,0.265-0.224,0.265H51.12v0.224c0.16,0.432,0.367,0.831,0.6,1.191
		c0.328-0.296,0.607-0.624,0.815-0.943c0.056-0.08,0.128-0.12,0.208-0.12c0.056,0,0.12,0.016,0.168,0.056
		c0.088,0.064,0.144,0.145,0.144,0.24c0,0.048-0.016,0.104-0.056,0.151c-0.232,0.328-0.6,0.704-0.983,1.048
		c0.399,0.527,0.863,0.959,1.359,1.279c0.088,0.063,0.136,0.152,0.136,0.256c0,0.056-0.016,0.12-0.048,0.184
		c-0.064,0.104-0.16,0.152-0.256,0.152c-0.064,0-0.128-0.024-0.185-0.064c-0.871-0.6-1.614-1.575-1.958-2.574
		c0.031,0.296,0.056,0.743,0.056,1.031v1.375c0,0.552-0.288,0.76-0.815,0.76c-0.264,0-0.504-0.023-0.735-0.072
		c-0.129-0.023-0.208-0.119-0.208-0.264c0-0.023,0-0.048,0.008-0.071c0.016-0.152,0.128-0.225,0.231-0.225
		c0.017,0,0.032,0,0.048,0.009c0.168,0.048,0.4,0.079,0.592,0.079c0.248,0,0.328-0.071,0.328-0.335V16.708z M49.113,14.829
		c0.063,0,0.128,0.024,0.191,0.08c0.24,0.216,0.496,0.504,0.688,0.752c0.04,0.063,0.064,0.119,0.064,0.184
		c0,0.08-0.04,0.151-0.112,0.2c-0.063,0.04-0.119,0.063-0.176,0.063c-0.08,0-0.144-0.04-0.208-0.12
		c-0.159-0.216-0.432-0.527-0.647-0.735c-0.056-0.056-0.08-0.112-0.08-0.176c0-0.072,0.04-0.136,0.096-0.184
		C48.985,14.854,49.049,14.829,49.113,14.829z"/>
</g>
<g>
	<path d="M3.08,15.368c-0.312,0-0.464,0.009-0.655,0.048v-0.527c0.184,0.04,0.344,0.048,0.672,0.048h0.976v-0.424
		c0-0.104-0.017-0.231-0.04-0.327h0.535c-0.023,0.096-0.032,0.224-0.032,0.327v0.424h0.88c0.28,0,0.439-0.008,0.647-0.048v0.52
		c-0.184-0.031-0.344-0.04-0.647-0.04h-0.76C4.958,15.792,5.183,16,5.783,16.384c-0.128,0.152-0.185,0.248-0.28,0.432
		c-0.52-0.439-0.688-0.623-0.999-1.104c0.016,0.177,0.023,0.408,0.031,0.704v1.159c0,0.28,0.009,0.472,0.04,0.688H4.023
		c0.032-0.208,0.049-0.424,0.049-0.688v-1.136c0-0.191,0.008-0.399,0.023-0.663c-0.328,0.688-0.783,1.215-1.511,1.775
		c-0.088-0.185-0.176-0.313-0.304-0.448c0.399-0.264,0.743-0.552,1.039-0.88c0.24-0.271,0.359-0.439,0.584-0.855H3.08z
		 M4.503,13.586c0.279-0.473,0.424-0.832,0.535-1.312l0.479,0.151c-0.191,0.48-0.359,0.848-0.543,1.16h0.472
		c0.304,0,0.464-0.009,0.647-0.04v0.535c-0.2-0.032-0.359-0.04-0.647-0.04H3.072c-0.312,0-0.479,0.008-0.663,0.04v-0.535
		c0.176,0.031,0.344,0.04,0.663,0.04H4.503z M5.319,11.746c0.328,0,0.479-0.008,0.672-0.039v0.535
		c-0.217-0.032-0.368-0.04-0.68-0.04H3.264c-0.336,0-0.488,0.008-0.696,0.04v-0.535c0.185,0.031,0.353,0.039,0.704,0.039h0.8V11.53
		c0-0.256-0.009-0.384-0.04-0.56h0.583c-0.031,0.168-0.04,0.296-0.04,0.56v0.216H5.319z M3.488,13.514
		c-0.136-0.448-0.24-0.695-0.456-1.071l0.424-0.16c0.224,0.399,0.32,0.64,0.456,1.079L3.488,13.514z M8.964,13.529
		c0.36,0,0.552-0.016,0.736-0.048v0.552c-0.2-0.032-0.376-0.04-0.704-0.04H8.701v3.486c0,0.399,0.008,0.6,0.048,0.8H8.133
		c0.032-0.208,0.048-0.408,0.048-0.8v-3.486H6.926c0,0.104,0,0.104,0,0.312c-0.009,1.063-0.177,2.144-0.456,2.871
		c-0.16,0.424-0.32,0.728-0.592,1.095c-0.168-0.159-0.256-0.231-0.456-0.335c0.768-0.944,1.008-2.063,1.008-4.733
		c0-0.904-0.016-1.248-0.04-1.479c0.04,0,0.08,0,0.096,0c0.424,0,1.239-0.16,1.896-0.368c0.336-0.111,0.535-0.199,0.735-0.344
		l0.407,0.448c-0.071,0.023-0.079,0.023-0.287,0.111c-0.664,0.272-1.271,0.424-2.303,0.592v1.367H8.964z"/>
	<path d="M17.636,12.954c-0.184-0.032-0.336-0.04-0.735-0.04c-0.096,0.951-0.208,1.439-0.479,2.11
		c-0.16,0.4-0.345,0.744-0.584,1.088c0.575,0.72,1.167,1.207,1.942,1.591c-0.159,0.168-0.239,0.288-0.335,0.496
		c-0.8-0.48-1.407-1.016-1.911-1.695c-0.592,0.688-1.159,1.127-2.199,1.695c-0.111-0.2-0.208-0.32-0.359-0.448
		c0.512-0.224,0.799-0.384,1.167-0.647c0.439-0.312,0.8-0.647,1.104-1.016c-0.416-0.655-0.672-1.271-0.848-2.022
		c-0.2,0.407-0.304,0.6-0.52,0.911c-0.136-0.16-0.224-0.231-0.384-0.328c0.08-0.096,0.104-0.127,0.168-0.216
		c-0.145-0.023-0.304-0.031-0.712-0.031h-0.336v2.158c0.472-0.159,0.696-0.239,1.296-0.479l0.008,0.496
		c-1.023,0.399-1.688,0.623-2.279,0.783c-0.623,0.168-1.007,0.271-1.183,0.336l-0.145-0.576c0.176-0.008,0.344-0.031,0.6-0.088
		v-2.75c0-0.36-0.008-0.552-0.04-0.792h0.552c-0.031,0.248-0.04,0.464-0.04,0.784v2.646c0.208-0.048,0.448-0.12,0.744-0.208v-4.518
		h-0.84c-0.256,0-0.487,0.016-0.72,0.048v-0.567c0.232,0.032,0.44,0.048,0.736,0.048h1.935c0.328,0,0.52-0.008,0.72-0.04v0.552
		c-0.216-0.032-0.368-0.04-0.664-0.04h-0.68v1.743h0.336c0.416,0,0.567-0.008,0.72-0.032v0.512c0.392-0.615,0.68-1.343,0.896-2.295
		c0.128-0.527,0.2-0.959,0.208-1.207l0.56,0.112c-0.048,0.159-0.048,0.159-0.256,1.047c-0.04,0.152-0.063,0.248-0.104,0.392h1.902
		c0.36,0,0.584-0.016,0.76-0.048V12.954z M14.837,12.914c-0.071,0.224-0.096,0.312-0.176,0.512c0.192,0.911,0.448,1.583,0.872,2.255
		c0.504-0.808,0.768-1.663,0.863-2.767H14.837z"/>
	<path d="M21.966,11.427c0-0.2-0.016-0.36-0.048-0.512h0.607c-0.04,0.136-0.048,0.271-0.048,0.52v0.296h2.223
		c0.448,0,0.688-0.016,0.88-0.048v0.552c-0.256-0.032-0.48-0.04-0.863-0.04h-5.102c-0.008,1.942-0.08,3.222-0.224,4.038
		c-0.128,0.688-0.36,1.311-0.736,1.95c-0.104-0.136-0.224-0.239-0.432-0.359c0.32-0.496,0.504-0.943,0.64-1.535
		c0.152-0.695,0.24-1.967,0.24-3.622c0-0.479-0.008-0.735-0.032-0.976c0.256,0.024,0.512,0.04,0.823,0.04h2.071V11.427z
		 M20.615,18.247c0.04-0.224,0.048-0.448,0.048-0.903v-1.768c0-0.432,0.017-0.815,0.032-1.071c-0.2,0.36-0.407,0.616-0.775,0.983
		c-0.088-0.168-0.208-0.319-0.336-0.432c0.52-0.447,0.911-0.928,1.271-1.575c0.216-0.384,0.384-0.775,0.456-1.096l0.535,0.152
		c-0.176,0.439-0.432,0.951-0.688,1.359v3.454c0,0.456,0.008,0.655,0.04,0.896H20.615z M24.597,17.503
		c0,0.448-0.208,0.608-0.815,0.608c-0.272,0-0.616-0.017-0.944-0.048c-0.031-0.225-0.063-0.36-0.144-0.561
		c0.456,0.089,0.744,0.12,1.031,0.12c0.304,0,0.368-0.04,0.368-0.231v-3.263h-1.759c-0.368,0-0.561,0.008-0.776,0.04v-0.527
		c0.168,0.032,0.368,0.04,0.76,0.04h1.775v-0.536c0-0.279-0.008-0.455-0.04-0.655h0.584c-0.032,0.191-0.04,0.352-0.04,0.647v0.544
		h0.287c0.345,0,0.552-0.017,0.76-0.048v0.543c-0.216-0.031-0.439-0.048-0.76-0.048h-0.287V17.503z M22.262,14.665
		c0.544,0.552,0.735,0.783,1.199,1.471l-0.439,0.32c-0.344-0.624-0.6-0.968-1.151-1.52L22.262,14.665z"/>
	<path d="M29.647,15.528c-0.464,1.056-0.936,1.535-1.512,1.535c-0.76,0-1.327-0.831-1.327-1.951c0-0.815,0.304-1.606,0.84-2.206
		c0.64-0.704,1.511-1.063,2.582-1.063c0.896,0,1.68,0.279,2.199,0.791c0.504,0.488,0.775,1.184,0.775,1.951
		c0,1.239-0.672,2.263-1.831,2.759c-0.359,0.151-0.664,0.248-1.215,0.367c-0.08-0.264-0.129-0.344-0.28-0.535
		c0.584-0.096,0.959-0.2,1.335-0.376c0.88-0.399,1.415-1.255,1.415-2.239c0-0.911-0.463-1.646-1.271-2.007
		c-0.296-0.128-0.528-0.184-0.928-0.199C30.31,13.466,30.006,14.688,29.647,15.528z M28.663,12.738
		c-0.807,0.487-1.303,1.391-1.303,2.383c0,0.768,0.336,1.358,0.768,1.358c0.336,0,0.655-0.375,0.999-1.159
		c0.328-0.751,0.624-1.935,0.728-2.958C29.375,12.402,29.031,12.514,28.663,12.738z"/>
	<path d="M11.872,26.768c-0.312,0.64-0.552,0.983-1.039,1.503c-0.145-0.159-0.217-0.224-0.4-0.335
		c0.512-0.48,0.72-0.776,1.016-1.416L11.872,26.768z M11.624,26.264c-0.288,0-0.472,0.009-0.664,0.024
		c0.017-0.168,0.024-0.448,0.024-0.768v-3.422c0-0.265-0.008-0.48-0.032-0.76c0.336,0.016,0.488,0.023,0.704,0.023h1.023
		c0.304,0,0.544-0.008,0.712-0.023c-0.017,0.191-0.024,0.439-0.024,0.743v3.486c0,0.336,0.008,0.552,0.024,0.72
		c-0.2-0.016-0.376-0.024-0.688-0.024H11.624z M11.463,22.826h1.432v-1.023h-1.432V22.826z M11.463,24.305h1.432v-1.063h-1.432
		V24.305z M11.463,25.832h1.432v-1.111h-1.432V25.832z M12.839,26.528c0.327,0.567,0.503,0.815,0.896,1.247
		c-0.168,0.104-0.2,0.136-0.4,0.336c-0.352-0.44-0.552-0.752-0.888-1.352L12.839,26.528z M14.454,23.242
		c-0.264,0-0.56,0.016-0.783,0.039v-0.535c0.248,0.023,0.488,0.04,0.783,0.04h1.607v-0.896c0-0.384-0.016-0.552-0.048-0.744h0.592
		c-0.032,0.225-0.048,0.464-0.048,0.744l0.008,0.896h0.344c0.304,0,0.52-0.017,0.735-0.048v0.552
		c-0.216-0.032-0.424-0.048-0.72-0.048h-0.359l0.04,4.245c0,0.472-0.184,0.624-0.768,0.624c-0.232,0-0.56-0.017-0.848-0.048
		c-0.024-0.216-0.048-0.32-0.144-0.544c0.359,0.063,0.711,0.104,0.927,0.104c0.272,0,0.32-0.031,0.32-0.231l-0.008-2.646
		c0-0.32,0.016-0.76,0.048-1.088c-0.296,0.672-0.704,1.376-1.136,1.911c-0.384,0.479-0.76,0.855-1.303,1.271
		c-0.145-0.2-0.265-0.328-0.376-0.408c0.623-0.424,1.056-0.839,1.527-1.471c0.432-0.576,0.535-0.76,0.983-1.719H14.454z"/>
	<path d="M25.636,22.954c-0.184-0.032-0.336-0.04-0.735-0.04c-0.096,0.951-0.208,1.439-0.479,2.11
		c-0.16,0.4-0.345,0.744-0.584,1.088c0.575,0.72,1.167,1.207,1.942,1.591c-0.159,0.168-0.239,0.288-0.335,0.496
		c-0.8-0.48-1.407-1.016-1.911-1.695c-0.592,0.688-1.159,1.127-2.199,1.695c-0.111-0.2-0.208-0.32-0.359-0.448
		c0.512-0.224,0.799-0.384,1.167-0.647c0.439-0.312,0.8-0.647,1.104-1.016c-0.416-0.655-0.672-1.271-0.848-2.022
		c-0.2,0.407-0.304,0.6-0.52,0.911c-0.136-0.16-0.224-0.231-0.384-0.328c0.08-0.096,0.104-0.127,0.168-0.216
		c-0.145-0.023-0.304-0.031-0.712-0.031h-0.336v2.158c0.472-0.159,0.696-0.239,1.296-0.479l0.008,0.496
		c-1.023,0.399-1.688,0.623-2.279,0.783c-0.623,0.168-1.007,0.271-1.183,0.336l-0.145-0.576c0.176-0.008,0.344-0.031,0.6-0.088
		v-2.75c0-0.36-0.008-0.552-0.04-0.792h0.552c-0.031,0.248-0.04,0.464-0.04,0.784v2.646c0.208-0.048,0.448-0.12,0.744-0.208v-4.518
		h-0.84c-0.256,0-0.487,0.016-0.72,0.048v-0.567c0.232,0.032,0.44,0.048,0.736,0.048h1.935c0.328,0,0.52-0.008,0.72-0.04v0.552
		c-0.216-0.032-0.368-0.04-0.664-0.04h-0.68v1.743h0.336c0.416,0,0.567-0.008,0.72-0.032v0.512c0.392-0.615,0.68-1.343,0.896-2.295
		c0.128-0.527,0.2-0.959,0.208-1.207l0.56,0.112c-0.048,0.159-0.048,0.159-0.256,1.047c-0.04,0.152-0.063,0.248-0.104,0.392h1.902
		c0.36,0,0.584-0.016,0.76-0.048V22.954z M22.837,22.914c-0.071,0.224-0.096,0.312-0.176,0.512c0.192,0.911,0.448,1.583,0.872,2.255
		c0.504-0.808,0.768-1.663,0.863-2.767H22.837z"/>
</g>
<path fill="none" stroke="#000000" stroke-width="0.75" stroke-miterlimit="10" d="M35.167,27.855c0,1.565-1.27,2.835-2.835,2.835
	H3.21c-1.565,0-2.835-1.27-2.835-2.835v-17.08c0-1.565,1.27-2.835,2.835-2.835h29.122c1.565,0,2.835,1.27,2.835,2.835V27.855z"/>
<line fill="none" stroke="#000000" stroke-width="0.75" stroke-miterlimit="10" x1="35.167" y1="19.315" x2="56.167" y2="19.315"/>
<g>
	<g>
		<polyline fill="none" stroke="#000000" stroke-width="0.75" stroke-miterlimit="10" points="63.807,3.773 56.167,3.773 
			56.167,32.106 63.807,32.106 		"/>
		<g>
			<path d="M58.681,0.174c-0.111,0.174-0.059,0.406,0.115,0.518l4.84,3.082l-4.84,3.082c-0.174,0.111-0.227,0.344-0.115,0.518
				c0.111,0.175,0.346,0.225,0.519,0.115l5.335-3.398c0.108-0.068,0.174-0.188,0.174-0.316s-0.065-0.248-0.174-0.316L59.2,0.059
				C59.136,0.02,59.068,0,58.998,0C58.875,0,58.753,0.062,58.681,0.174z"/>
		</g>
		<g>
			<path d="M58.681,35.706c-0.111-0.174-0.059-0.406,0.115-0.518l4.84-3.082l-4.84-3.082c-0.174-0.111-0.227-0.344-0.115-0.518
				c0.111-0.175,0.346-0.226,0.519-0.115l5.335,3.398c0.108,0.069,0.174,0.188,0.174,0.316s-0.065,0.247-0.174,0.316L59.2,35.821
				c-0.063,0.04-0.132,0.059-0.202,0.059C58.875,35.88,58.753,35.818,58.681,35.706z"/>
		</g>
	</g>
</g>
</svg>
