<?xml version="1.0" encoding="utf-8"?>
<!-- Generator: Adobe Illustrator 16.0.3, SVG Export Plug-In . SVG Version: 6.00 Build 0)  -->
<!DOCTYPE svg PUBLIC "-//W3C//DTD SVG 1.1//EN" "http://www.w3.org/Graphics/SVG/1.1/DTD/svg11.dtd">
<svg version="1.1" xmlns="http://www.w3.org/2000/svg" xmlns:xlink="http://www.w3.org/1999/xlink" x="0px" y="0px" width="79.76px"
	 height="74.394px" viewBox="0 0 79.76 74.394" enable-background="new 0 0 79.76 74.394" xml:space="preserve">
<g id="Kaigansen">
	<path fill="none" stroke="#595757" stroke-width="0.6852" stroke-linecap="round" stroke-linejoin="round" d="M-0.104,69.368
		c0.284-0.011,0.554-0.012,0.776-0.012c0.804,0,2.987-0.747,3.331-0.977c0.345-0.23,0.288-1.091,0.345-1.436
		s0.862,0.402,1.437,0.345c0.574-0.058,0.919-0.862,1.321-1.264s1.207,0.287,1.896,0.287c0.689,0,1.206-0.517,1.494-0.861
		c0.287-0.345,0.689-0.632,1.263-0.632s1.609-1.034,2.126-1.724c0.517-0.689,0.344-1.206,1.091-1.321
		c0.747-0.115,0.632-1.034,0.632-1.264c0-0.229,1.206-0.517,1.838-1.091s0-1.091,0.288-1.436c0.287-0.345,0.804-2.24,1.034-2.929
		c0.229-0.689,1.263-1.379,2.068-1.494c0.804-0.115,0.976-0.172,1.091-1.148c0.115-0.977,0.517-1.379,0.747-1.609
		c0.23-0.229,0.058-1.091-0.058-1.608s-1.551-0.517-2.068-0.861c-0.517-0.345,1.608-2.011,1.781-2.298s-1.687-1.284-1.859-1.456
		s1.112-0.038,1.399-0.325s-0.402-1.723-0.977-2.01c-0.575-0.287-1.666-1.551-1.896-2.413c-0.23-0.861-1.207-2.872-1.838-3.274
		s-0.575-1.034-0.058-1.494c0.517-0.46,1.494-1.551,1.724-2.125s0.919-1.321,1.666-1.436c0.747-0.115,2.24-0.345,3.332-0.632
		c1.091-0.287,0.977-1.034-0.287-1.034c-1.264,0-2.413-0.632-3.16-0.919c-0.747-0.287-2.872,0.977-3.332,1.264
		c-0.459,0.288-1.149-0.459-1.666-1.378s-1.666-1.896-2.24-2.7c-0.575-0.804-0.574-1.034,0.345-1.321
		c0.919-0.287,1.953-0.229,2.814-0.344c0.862-0.115,0.287-1.034,0.862-1.724c0.575-0.689,3.389-2.584,3.734-2.815
		c0.345-0.229,0.689-0.172,1.034-0.172s0.747,0.23,0.862,0.977c0.115,0.747-0.689,1.494-1.149,1.896
		c-0.459,0.402-0.172,0.689,0,1.264s-0.23,1.092,0.115,1.379c0.344,0.287,2.929-1.896,4.079-1.953
		c1.149-0.057,1.838-0.632,2.183-0.115s1.148,0.345,1.493,0.345s-0.229,1.092-0.115,1.838c0.115,0.747-0.919,1.781-1.034,2.183
		c-0.115,0.402,3.791,1.092,4.078,1.264s0.805,1.494,0.632,1.896c-0.172,0.402-0.632-0.23-1.092,0s0.402,2.24,0.632,2.7
		s-0.689,1.724-0.919,2.413c-0.229,0.689,0.287,1.896,0.747,2.068s1.781-1.206,2.24-1.378s1.379-0.115,1.839-0.058
		c0.459,0.057,1.206-1.034,1.723-1.723c0.518-0.689,0.058-1.724-0.172-2.585c-0.229-0.862-0.23-3.102-0.46-3.734
		s-1.034-2.527-2.413-3.446c-1.378-0.919-0.804-1.379-0.574-1.896s1.436-0.861,2.068-1.321c0.632-0.459,2.413-2.873,2.642-3.332
		c0.23-0.459,1.321-2.815,1.551-3.159c0.23-0.345,1.608-0.862,1.838-0.919c0.229-0.058,0.689-1.264,1.092-1.551
		c0.402-0.287,1.034,0.804,1.781,1.379c0.747,0.574,2.814-0.345,3.676-0.632c0.861-0.288,2.24-2.413,2.585-2.814
		s1.436-1.838,2.011-2.47c0.574-0.632,1.321-1.148,2.24-1.838c0.919-0.689,1.78-2.585,2.01-3.274
		c0.19-0.572,1.128-2.047,1.803-3.124"/>
	<path fill="none" stroke="#595757" stroke-width="0.6852" stroke-linecap="round" stroke-linejoin="round" d="M-0.104,69.368"/>
	<path fill="none" stroke="#595757" stroke-width="0.6852" stroke-linecap="round" stroke-linejoin="round" d="M21.982,60.108
		c-0.236-0.589-2.298,1.437-2.528,1.723c-0.229,0.287-0.919,2.413-0.919,3.044c0,0.632,0.575,2.298,1.034,2.873
		s0.46,0.632,0.862-0.345c0.401-0.977,0.861-2.757,1.263-3.102s1.034-2.126,0.805-2.7C22.27,61.027,22.098,60.396,21.982,60.108z"/>
	<path fill="none" stroke="#595757" stroke-width="0.6852" stroke-linecap="round" stroke-linejoin="round" d="M42.087,46.192
		c-0.421,0.053-0.431-1.206-0.603-1.077c-0.172,0.129-0.215,1.034-0.474,0.948c-0.258-0.086-0.517-0.862-0.603-1.335
		c-0.086-0.474-0.172-1.077,0.172-1.336c0.345-0.258,0.862-1.292,0.603-1.68c-0.258-0.388-0.474-0.948-0.732-0.818
		c-0.258,0.129,0.043,1.335-0.172,1.335s-1.163-0.819-1.206-1.034c-0.043-0.215,0.043-0.948,0.431-1.12s0.991-0.474,1.292-0.991
		s0.905-0.56,1.25-0.215s0.775,0.388,1.206,0.215c0.431-0.172,0.517,0.215,0.56,0.775s0.905,1.12,0.604,1.551
		c-0.302,0.431-0.862,1.551-0.948,2.197c-0.086,0.646-0.086,1.508-0.388,1.724C42.777,45.546,42.432,46.149,42.087,46.192z"/>
	<path fill="none" stroke="#595757" stroke-width="0.6852" stroke-linecap="round" stroke-linejoin="round" d="M46.267,42.142
		c-0.695-0.347-0.431-1.508-0.776-1.637c-0.344-0.129-0.689-0.129-0.517-0.344s0.905-1.12,1.292-1.465s0.603,0.215,1.292,0.129
		c0.689-0.086,0.818-1.207,1.335-1.293c0.517-0.086,1.163,0.474,1.465,0.689c0.301,0.215-0.646,1.81-0.948,1.81
		c-0.302,0-1.336-0.431-1.68-0.043C47.387,40.376,46.87,42.444,46.267,42.142z"/>
	<path fill="none" stroke="#595757" stroke-width="0.6852" stroke-linecap="round" stroke-linejoin="round" d="M52.513,39.859
		c-0.652-0.072-0.775-0.215-1.077-0.689c-0.302-0.474-0.431-1.12-0.216-1.292c0.216-0.172,0.905-0.646,0.431-0.991
		c-0.474-0.345-1.034-0.431-1.379-0.345c-0.345,0.086-1.292,0.259-1.508,0.345s-0.818,0.603-1.206,0.431
		c-0.388-0.173-0.689,0.646-0.905,0.646s-0.948,0.258-1.164,0.043c-0.215-0.215-0.905-0.129-1.034,0.043
		c-0.129,0.172-0.431,0.172-1.12,0.172c-0.689,0-1.853,0.388-1.465-0.258s0.991-0.56,1.422-0.819
		c0.431-0.258,0.689-0.948,1.249-1.292c0.56-0.345,1.25-1.292,1.81-1.422s2.283,0,2.757-0.215c0.474-0.216,0.431-0.604,1.422-0.517
		c0.991,0.086,0.948,0.086,1.292,0.215s0.345,0.431,0.603,0.431s0.818-0.043,0.948-0.431s-0.345-0.775-0.043-1.207
		c0.302-0.431,1.077-0.948,1.163-1.465c0.086-0.517-0.043-1.163,0.129-1.465c0.172-0.301,0.861-0.517,1.077-0.56
		c0.215-0.043-0.086,0.474-0.302,0.905c-0.215,0.431-0.172,1.077,0.259,0.991c0.431-0.086,0.775-0.258,1.034-0.56
		s1.077-0.991,1.767-1.25c0.689-0.259,1.465-1.12,2.024-1.81c0.56-0.689,1.034-1.766,1.207-2.413
		c0.172-0.646,0.862-1.853,0.56-2.197s-0.862-0.301-0.474-0.689c0.388-0.388,0.474-0.302,0.345-0.862
		c-0.129-0.56-0.474-0.862-0.215-1.12c0.259-0.258,0.431-0.431,0.517-0.818c0.086-0.388-0.086-0.732,0.258-0.776
		c0.345-0.043,0.302,0.172,0.388,0.56c0.086,0.388,0.172,0.603,0.517,0.603s0.732,0.173,0.732-0.129s0.043-0.646-0.086-0.646
		s-0.603,0-0.603-0.172c0-0.172,0-0.604,0.431-0.646s0.732,0.258,0.775,0.56c0.043,0.301,0.345,1.81,0.603,2.025
		c0.259,0.215,0.603,2.714,0.603,3.059c0,0.345-0.517,1.077-0.603,1.422c-0.086,0.345,0,1.25-0.258,1.336
		c-0.258,0.086-0.302-0.129-0.604-0.086c-0.301,0.043-0.431,0.517-0.387,0.905c0.043,0.388,0.215,2.111,0.043,2.456
		s-0.388,1.939-0.517,2.197c-0.129,0.258-0.431,1.077-0.043,1.594c0.388,0.517-0.259,0.431-0.604,1.034
		c-0.344,0.603-0.129,1.422-0.517,1.422s-1.034-0.129-1.034-0.56s0.388-0.991,0.56-1.163s0.129-0.604-0.043-0.56
		c-0.172,0.043-0.56,0.689-0.862,0.732c-0.301,0.043-0.603-0.129-0.646,0.258c-0.043,0.388-0.302,1.637-0.603,1.637
		c-0.302,0-0.302-0.775-0.517-0.732s-0.431,0.56-0.646,0.689c-0.215,0.129-1.163,0.646-1.508,0.646s-0.948,0-1.163-0.043
		c-0.215-0.043-0.517-0.56-0.646-0.431c-0.129,0.129-0.258,1.034-0.431,1.163c-0.172,0.129-0.431,0.086-0.818,0.431
		C53.806,38.523,53.289,39.945,52.513,39.859z"/>
	<path fill="none" stroke="#595757" stroke-width="0.6852" stroke-linecap="round" stroke-linejoin="round" d="M63.155,17.413
		c-0.364,0.182-0.775,0.905-1.034,0.646c-0.258-0.258-0.603-0.56-0.431-0.861c0.172-0.302,0.56-0.259,0.302-0.646
		c-0.259-0.388-0.604-0.991-0.474-1.465s0.775-0.689,1.077-0.991s0.043-1.034,0.56-0.948c0.517,0.086,1.034,0.56,1.25,0.388
		s0.904-0.948,0.732-1.379c-0.172-0.431,0.258-1.378,0.431-1.594c0.172-0.216,0.302-2.542,0.086-2.887
		c-0.216-0.345-0.216-0.775,0.086-1.034c0.301-0.259,0.517-0.517,0.689-0.172c0.172,0.344,0.991,1.551,1.594,2.068
		c0.604,0.517,1.551,1.378,2.025,1.335c0.474-0.043,0.991-0.517,1.077-0.172s-0.086,0.775,0.345,0.775s1.422-0.646,1.422-0.431
		s-0.043,0.905,0.043,1.163c0.086,0.259,0.086,1.12,0.431,1.12s0.948-0.043,0.732,0.172s-2.025,0.474-2.843,0.862
		c-0.819,0.388-1.551,1.12-1.853,1.896c-0.302,0.775-0.388,1.637-0.775,1.336c-0.388-0.302-1.724-1.379-2.154-1.336
		c-0.431,0.043-1.12-0.603-1.335-0.474c-0.215,0.129-1.207,1.164-1.293,0.905c-0.086-0.258-0.603-1.034-0.861-0.948
		c-0.258,0.086-0.689,0.948-0.302,1.121c0.388,0.172,0.56,0.215,1.034,0.258c0.474,0.043,0.732,0.775,0.388,0.775
		S63.327,17.327,63.155,17.413z"/>
	<path fill="none" stroke="#595757" stroke-width="0.6852" stroke-linecap="round" stroke-linejoin="round" d="M66.026-0.042
		c-0.21,1.674-0.468,3.907-0.02,4.091c0.687,0.283,0.888-1.292,1.171-1.534c0.283-0.243,1.206,0.939,2.019,1.292
		c0.928,0.404-0.485-2.423-0.485-2.786c0-0.183-0.194-0.601-0.423-1.063"/>
	<path fill="none" stroke="#595757" stroke-width="0.6852" stroke-linecap="round" stroke-linejoin="round" d="M75.741,9.445
		c0.152,0.382-1.753,2.045-1.962,1.753C73.57,10.906,75.657,9.236,75.741,9.445z"/>
	<path fill="none" stroke="#595757" stroke-width="0.6852" stroke-linecap="round" stroke-linejoin="round" d="M77.201,9.152
		c-0.761-0.571,1.503-2.17,1.795-2.17c0.505,0,1.503-0.96,1.711-0.919C80.916,6.105,77.368,9.278,77.201,9.152z"/>
	<path fill="none" stroke="#595757" stroke-width="0.6852" stroke-linecap="round" stroke-linejoin="round" d="M35.705,57.049
		c-0.381-0.173-1.463,1.254-0.976,1.462C35.218,58.721,36.472,57.397,35.705,57.049z"/>
	<path fill="none" stroke="#595757" stroke-width="0.6852" stroke-linecap="round" stroke-linejoin="round" d="M48.552,71.277
		c-0.338-0.038-0.183-0.261,0-0.314C48.735,70.911,48.788,71.303,48.552,71.277z"/>
	<path fill="none" stroke="#595757" stroke-width="0.6852" stroke-linecap="round" stroke-linejoin="round" d="M64.663,59.646
		c-0.338-0.038-0.183-0.261,0-0.314C64.846,59.28,64.898,59.672,64.663,59.646z"/>
	<path fill="none" stroke="#595757" stroke-width="0.6852" stroke-linecap="round" stroke-linejoin="round" d="M25.302,62.917
		c-0.338-0.038-0.183-0.261,0-0.314C25.485,62.551,25.538,62.943,25.302,62.917z"/>
</g>
<g id="レイヤー_2">
	<path fill="#FFFFFF" stroke="#000000" stroke-width="0.25" stroke-miterlimit="10" d="M14.658,72.347c0,0.829-0.651,1.5-1.454,1.5
		H5.503c-0.803,0-1.454-0.672-1.454-1.5v-0.105c0-0.829,0.651-1.5,1.454-1.5h7.701c0.803,0,1.454,0.672,1.454,1.5V72.347z"/>
	<path fill="#FFFFFF" stroke="#000000" stroke-width="0.25" stroke-miterlimit="10" d="M38.733,60.316
		c0,0.783-0.635,1.417-1.417,1.417h-4.149c-0.783,0-1.417-0.635-1.417-1.417v-0.306c0-0.783,0.635-1.417,1.417-1.417h4.149
		c0.783,0,1.417,0.635,1.417,1.417V60.316z"/>
	<path fill="#FFFFFF" stroke="#000000" stroke-width="0.25" stroke-miterlimit="10" d="M73.947,6.574
		c0,0.788-0.63,1.426-1.406,1.426h-5.094c-0.776,0-1.406-0.639-1.406-1.426l0,0c0-0.788,0.63-1.427,1.406-1.427h5.094
		C73.317,5.147,73.947,5.786,73.947,6.574L73.947,6.574z"/>
	<path fill="#FFFFFF" stroke="#000000" stroke-width="0.25" stroke-miterlimit="10" d="M16.974,39.114
		c0,0.783-0.635,1.417-1.417,1.417h-4.149c-0.783,0-1.417-0.635-1.417-1.417v-0.306c0-0.783,0.635-1.417,1.417-1.417h4.149
		c0.783,0,1.417,0.635,1.417,1.417V39.114z"/>
	<path fill="#FFFFFF" stroke="#000000" stroke-width="0.25" stroke-miterlimit="10" d="M36.058,26.39
		c0,0.783-0.635,1.417-1.417,1.417h-4.149c-0.783,0-1.417-0.635-1.417-1.417v-0.306c0-0.783,0.635-1.417,1.417-1.417h4.149
		c0.783,0,1.417,0.635,1.417,1.417V26.39z"/>
	<rect x="37.063" y="39.625" fill="#FAEDB1" stroke="#040000" stroke-width="0.25" width="5.604" height="2.938"/>
	<rect x="37.48" y="39.863" fill="none" width="25.875" height="8.313"/>
	<text transform="matrix(1 0 0 1 37.4805 42.0625)" font-family="'HiraKakuProN-W3-90ms-RKSJ-H'" font-size="2.5">長崎</text>
	<g>
		<path d="M12.084,38.111c0-0.123-0.005-0.183-0.018-0.26h0.2c-0.012,0.078-0.017,0.147-0.017,0.255v0.221h0.733
			c0.085,0,0.133-0.003,0.19-0.01c-0.01,0.065-0.013,0.118-0.013,0.198v0.683c0,0.083,0.005,0.147,0.015,0.223h-0.18v-0.17H12.25
			v0.583c0,0.143,0.002,0.205,0.017,0.285h-0.2c0.013-0.085,0.018-0.15,0.018-0.285V39.25h-0.706v0.17h-0.18
			c0.01-0.073,0.015-0.143,0.015-0.223v-0.683c0-0.078-0.005-0.133-0.013-0.198c0.06,0.007,0.108,0.01,0.188,0.01h0.695V38.111z
			 M11.378,38.476v0.623h0.706v-0.623H11.378z M12.995,39.099v-0.623H12.25v0.623H12.995z"/>
		<path d="M13.603,38.261c0-0.12-0.005-0.208-0.015-0.308c0.083,0.01,0.158,0.013,0.293,0.013h1.497
			c0.132,0,0.205-0.003,0.297-0.013c-0.01,0.093-0.015,0.178-0.015,0.308v1.524c0,0.183,0.005,0.275,0.015,0.343H15.5v-0.153h-1.737
			v0.153h-0.175c0.01-0.068,0.015-0.158,0.015-0.343V38.261z M13.763,39.833H15.5v-1.724h-1.737V39.833z M14.191,38.479
			c-0.107,0-0.167,0.002-0.235,0.013v-0.16c0.07,0.012,0.125,0.015,0.235,0.015h0.883c0.113,0,0.181-0.005,0.246-0.015v0.16
			c-0.07-0.01-0.13-0.013-0.243-0.013h-0.386v0.388H15c0.112,0,0.163-0.002,0.225-0.012v0.158c-0.063-0.01-0.12-0.013-0.225-0.013
			h-0.308v0.458h0.42c0.103,0,0.175-0.005,0.246-0.015v0.166c-0.073-0.01-0.148-0.015-0.246-0.015h-0.953
			c-0.103,0-0.173,0.005-0.248,0.015v-0.166c0.07,0.01,0.143,0.015,0.248,0.015h0.378v-0.458h-0.268
			c-0.105,0-0.165,0.002-0.228,0.013v-0.158c0.063,0.01,0.112,0.012,0.228,0.012h0.268v-0.388H14.191z M14.994,39.044
			c0.103,0.103,0.143,0.158,0.235,0.298l-0.118,0.075c-0.087-0.153-0.127-0.208-0.223-0.311L14.994,39.044z"/>
	</g>
	<g>
		<path d="M6.104,72.191c0-0.018,0.002-0.055,0.008-0.163c-0.048,0.092-0.07,0.125-0.188,0.28c-0.13,0.172-0.35,0.378-0.593,0.553
			c-0.113,0.083-0.21,0.143-0.413,0.258c-0.04-0.072-0.06-0.098-0.125-0.15c0.303-0.135,0.585-0.335,0.848-0.598
			c0.14-0.14,0.278-0.313,0.36-0.456L5.18,71.921c-0.158,0-0.193,0-0.278,0.01v-0.188c0.09,0.015,0.135,0.018,0.283,0.018
			l0.911-0.005l-0.002-0.245c-0.002-0.13-0.002-0.13-0.013-0.203h0.2c-0.007,0.055-0.01,0.095-0.01,0.138v0.06l0.005,0.25h0.33
			c0.14,0,0.17-0.002,0.25-0.015v0.183c-0.053-0.005-0.105-0.008-0.208-0.008c-0.01,0-0.025,0-0.038,0H6.276l0.018,1.219
			c0,0.107,0.005,0.188,0.012,0.255H6.104c0.008-0.073,0.01-0.1,0.01-0.198c0-0.027,0-0.04,0-0.055l-0.01-0.921v-0.015V72.191z"/>
		<path d="M7.172,71.981c0.09,0.013,0.143,0.015,0.293,0.015h1.284c0.093,0,0.12-0.002,0.163-0.018l0.093,0.108
			c-0.022,0.035-0.028,0.047-0.07,0.158c-0.212,0.583-0.558,0.903-1.206,1.121c-0.03-0.073-0.047-0.101-0.107-0.173
			c0.335-0.095,0.555-0.208,0.743-0.38c0.178-0.163,0.29-0.348,0.405-0.656H7.463c-0.133,0-0.205,0.002-0.291,0.013V71.981z
			 M7.388,71.4c0.073,0.015,0.123,0.018,0.263,0.018h0.836c0.14,0,0.19-0.002,0.263-0.018v0.193c-0.067-0.01-0.127-0.013-0.26-0.013
			H7.648c-0.133,0-0.193,0.002-0.26,0.013V71.4z"/>
		<path d="M9.36,73.077c0.195-0.007,0.495-0.085,0.728-0.192c0.483-0.215,0.818-0.583,1.021-1.114
			c0.058,0.078,0.083,0.1,0.153,0.147c-0.2,0.436-0.433,0.729-0.764,0.956c-0.257,0.175-0.515,0.278-0.933,0.373
			c-0.068,0.015-0.087,0.02-0.15,0.04L9.36,73.077z M9.52,71.526c0.268,0.17,0.423,0.292,0.603,0.47l-0.13,0.155
			c-0.18-0.195-0.378-0.358-0.595-0.491L9.52,71.526z"/>
		<path d="M12.471,71.286c-0.033,0.047-0.033,0.047-0.087,0.165c-0.023,0.047-0.048,0.09-0.078,0.138
			c0.027-0.002,0.05-0.005,0.092-0.005l0.653-0.007c0.06-0.002,0.107-0.01,0.145-0.025l0.133,0.138
			c-0.03,0.04-0.03,0.042-0.075,0.163c-0.087,0.233-0.213,0.488-0.328,0.668c-0.25,0.388-0.585,0.663-1.106,0.901
			c-0.04-0.075-0.063-0.103-0.123-0.155c0.213-0.083,0.348-0.155,0.518-0.272c0.195-0.135,0.311-0.238,0.433-0.396
			c-0.18-0.163-0.363-0.293-0.561-0.405l0.115-0.128c0.212,0.123,0.35,0.221,0.553,0.388c0.148-0.223,0.26-0.46,0.348-0.726
			l-0.876,0.012c-0.17,0.273-0.348,0.468-0.596,0.666c-0.058-0.065-0.08-0.083-0.145-0.12c0.27-0.195,0.476-0.426,0.638-0.713
			c0.08-0.145,0.127-0.253,0.147-0.343L12.471,71.286z M13.316,71.266c0.108,0.123,0.158,0.195,0.25,0.353l-0.12,0.065
			c-0.07-0.133-0.145-0.24-0.246-0.355L13.316,71.266z M13.547,71.148c0.107,0.12,0.158,0.192,0.25,0.35l-0.12,0.068
			c-0.07-0.133-0.145-0.24-0.248-0.355L13.547,71.148z"/>
	</g>
	<g>
		<path d="M32.96,59.349c-0.105,0-0.138,0.002-0.2,0.013v-0.168c0.063,0.013,0.11,0.015,0.213,0.015h0.288
			c0.098,0,0.146-0.002,0.208-0.015v0.166c-0.065-0.008-0.11-0.01-0.193-0.01h-0.078v0.561h0.078c0.075,0,0.103-0.002,0.165-0.013
			v0.16c-0.058-0.007-0.098-0.01-0.165-0.01h-0.078v0.596c0.115-0.06,0.16-0.085,0.285-0.16l0.005,0.163
			c-0.16,0.098-0.315,0.183-0.456,0.243c-0.135,0.063-0.218,0.1-0.25,0.12l-0.052-0.17c0.075-0.018,0.16-0.05,0.318-0.12v-0.67
			h-0.085c-0.07,0-0.112,0.002-0.167,0.012v-0.163c0.055,0.01,0.095,0.013,0.17,0.013h0.083v-0.561H32.96z M33.841,60.16
			c-0.01,0.05-0.01,0.08-0.012,0.195c-0.008,0.483-0.143,0.761-0.463,0.961c-0.05-0.052-0.073-0.07-0.143-0.112
			c0.105-0.055,0.175-0.108,0.246-0.186c0.147-0.16,0.21-0.36,0.21-0.673c0-0.08-0.002-0.128-0.013-0.185H33.841z M34.729,59.307
			c0.107,0,0.167-0.002,0.228-0.013v0.163c-0.06-0.007-0.123-0.012-0.218-0.012h-0.598c-0.072,0.167-0.132,0.285-0.215,0.42
			c0.33-0.013,0.438-0.02,0.668-0.042c-0.088-0.09-0.128-0.128-0.235-0.223l0.113-0.08c0.178,0.145,0.305,0.277,0.485,0.495
			l-0.123,0.098C34.772,60.03,34.75,60,34.707,59.947c-0.375,0.04-0.473,0.045-0.986,0.067c-0.078,0.005-0.138,0.01-0.183,0.018
			l-0.022-0.17c0.035,0.005,0.107,0.007,0.188,0.007c0.005,0,0.01,0,0.058,0c0.09-0.14,0.155-0.265,0.22-0.425h-0.223
			c-0.095,0-0.158,0.002-0.218,0.012v-0.165c0.053,0.013,0.113,0.015,0.223,0.015h0.358v-0.073c0-0.08-0.005-0.125-0.012-0.172h0.18
			c-0.01,0.042-0.013,0.09-0.013,0.172v0.073H34.729z M34.059,61.218c0.01-0.06,0.015-0.135,0.015-0.223v-0.61
			c0-0.09-0.005-0.153-0.015-0.213h0.175c-0.008,0.068-0.01,0.125-0.01,0.213v0.61c0,0.093,0.002,0.16,0.01,0.223H34.059z
			 M34.644,61.061c0,0.07,0.005,0.073,0.11,0.073c0.075,0,0.103-0.01,0.112-0.04c0.015-0.038,0.025-0.147,0.028-0.305
			c0.052,0.03,0.098,0.05,0.145,0.063c-0.018,0.205-0.02,0.218-0.038,0.285c-0.027,0.105-0.085,0.135-0.25,0.135
			c-0.223,0-0.258-0.022-0.258-0.167V60.4c0-0.118-0.002-0.183-0.013-0.246h0.175c-0.01,0.058-0.013,0.13-0.013,0.243V61.061z"/>
		<path d="M35.445,59.352c-0.105,0-0.143,0.002-0.21,0.013v-0.168c0.065,0.013,0.118,0.015,0.215,0.015h0.383
			c0.092,0,0.14-0.002,0.203-0.015v0.166c-0.063-0.008-0.115-0.01-0.198-0.01H35.71v0.568h0.092c0.078,0,0.105-0.003,0.166-0.013
			v0.16c-0.058-0.008-0.1-0.01-0.166-0.01H35.71v0.556c0.123-0.06,0.172-0.087,0.308-0.167l0.008,0.16
			c-0.195,0.12-0.36,0.205-0.593,0.31c-0.085,0.035-0.108,0.048-0.158,0.075l-0.058-0.175c0.103-0.027,0.193-0.063,0.34-0.13v-0.628
			h-0.123c-0.07,0-0.113,0.002-0.17,0.013v-0.163c0.055,0.01,0.1,0.013,0.172,0.013h0.12v-0.568H35.445z M36.551,60.608
			c-0.198,0.15-0.318,0.23-0.496,0.333c-0.035,0.021-0.073,0.048-0.1,0.068l-0.087-0.163c0.15-0.055,0.368-0.186,0.628-0.371
			L36.551,60.608z M36.233,59.652c-0.095,0-0.17,0.005-0.24,0.015v-0.168c0.07,0.01,0.143,0.015,0.245,0.015h0.383v-0.192
			c0-0.088-0.005-0.168-0.018-0.25h0.186c-0.013,0.078-0.018,0.15-0.018,0.24v0.203h0.475c0.101,0,0.175-0.005,0.243-0.015v0.168
			c-0.073-0.01-0.148-0.015-0.238-0.015h-0.48c0.007,0.158,0.123,0.493,0.248,0.713c0.147,0.26,0.305,0.44,0.533,0.596
			c-0.048,0.045-0.075,0.083-0.108,0.15c-0.183-0.14-0.313-0.285-0.438-0.48c-0.135-0.218-0.2-0.385-0.257-0.668
			c0.015,0.208,0.022,0.398,0.022,0.505v0.666c0,0.138-0.055,0.173-0.271,0.173c-0.07,0-0.125-0.002-0.24-0.013
			c-0.01-0.07-0.018-0.105-0.042-0.163c0.118,0.018,0.223,0.027,0.305,0.027c0.08,0,0.098-0.012,0.098-0.063v-1.444H36.233z
			 M36.323,60.313c-0.085-0.2-0.145-0.308-0.26-0.458l0.128-0.07c0.123,0.17,0.18,0.263,0.268,0.448L36.323,60.313z M37.257,59.442
			c-0.13-0.118-0.213-0.18-0.365-0.271l0.105-0.098c0.147,0.09,0.235,0.153,0.363,0.258L37.257,59.442z M37.004,60.223
			c0.118-0.143,0.193-0.266,0.278-0.451l0.138,0.087c-0.098,0.175-0.178,0.298-0.298,0.456L37.004,60.223z"/>
	</g>
	<g>
		<path d="M30.771,25.315c0-0.103-0.005-0.152-0.018-0.208h0.18c-0.012,0.06-0.018,0.115-0.018,0.208v0.058h0.248
			c0.107,0,0.16-0.002,0.223-0.012v0.16c-0.067-0.01-0.125-0.013-0.223-0.013h-0.248v0.24h0.175c0.123,0,0.175-0.002,0.23-0.01
			c-0.008,0.045-0.008,0.08-0.008,0.223v0.398c0,0.147,0.002,0.19,0.008,0.235c-0.063-0.007-0.115-0.01-0.23-0.01h-0.178v0.235
			h0.215c0.105,0,0.158-0.002,0.22-0.013v0.165c-0.067-0.01-0.115-0.012-0.22-0.012h-0.215v0.192c0,0.105,0.005,0.163,0.02,0.228
			h-0.18c0.013-0.058,0.015-0.113,0.015-0.228V26.96h-0.288c-0.103,0-0.158,0.002-0.225,0.012v-0.165
			c0.063,0.01,0.115,0.013,0.225,0.013h0.288v-0.235h-0.163c-0.1,0-0.16,0.002-0.233,0.01c0.008-0.065,0.01-0.135,0.01-0.238v-0.383
			c0-0.103-0.002-0.163-0.01-0.235c0.063,0.007,0.123,0.01,0.233,0.01h0.165v-0.24h-0.268c-0.105,0-0.163,0.002-0.225,0.013v-0.16
			c0.06,0.01,0.115,0.012,0.225,0.012h0.268V25.315z M30.523,26.454h0.648v-0.228h-0.648V26.454z M30.526,26.097h0.648v-0.218
			h-0.648V26.097z M31.665,26.522c-0.02,0.192-0.038,0.285-0.073,0.405c-0.05,0.175-0.112,0.291-0.232,0.445
			c-0.053-0.052-0.078-0.072-0.133-0.105c0.18-0.22,0.243-0.375,0.28-0.696c0.025-0.223,0.038-0.57,0.038-1.086
			c0-0.153-0.002-0.233-0.01-0.295c0.08,0.008,0.123,0.01,0.24,0.01h0.378c0.113,0,0.165-0.002,0.238-0.01
			c-0.007,0.06-0.01,0.133-0.01,0.258v1.644c0,0.193-0.055,0.238-0.286,0.238c-0.067,0-0.145-0.002-0.245-0.013
			c-0.007-0.07-0.018-0.112-0.04-0.175c0.14,0.025,0.213,0.032,0.295,0.032c0.11,0,0.123-0.01,0.123-0.098v-0.555H31.665z
			 M32.228,26.384v-0.453h-0.533c0,0.185-0.002,0.215-0.02,0.453H32.228z M32.228,25.791v-0.45h-0.53v0.45H32.228z"/>
		<path d="M33.011,26.81c-0.05,0.24-0.087,0.368-0.175,0.556l-0.138-0.083c0.095-0.163,0.14-0.295,0.183-0.521L33.011,26.81z
			 M33.557,25.744c0.07,0,0.117-0.002,0.188-0.01c-0.008,0.05-0.01,0.118-0.01,0.213v0.521c0,0.125,0.002,0.17,0.008,0.228
			c-0.083-0.005-0.145-0.007-0.258-0.007h-0.378c-0.1,0-0.15,0.002-0.238,0.007c0.008-0.067,0.01-0.135,0.01-0.22v-0.605
			c-0.03,0.038-0.03,0.038-0.06,0.075c-0.022-0.033-0.058-0.063-0.113-0.093c0.173-0.192,0.265-0.35,0.355-0.595
			c0.025-0.068,0.03-0.09,0.045-0.16l0.16,0.037c-0.007,0.015-0.01,0.02-0.018,0.038c-0.027,0.073-0.038,0.1-0.06,0.15h0.193
			c0.078,0,0.12-0.002,0.152-0.01l0.068,0.08c-0.025,0.042-0.025,0.042-0.073,0.15c-0.027,0.063-0.063,0.135-0.103,0.203H33.557z
			 M33.276,25.744c0.055-0.09,0.095-0.175,0.14-0.295h-0.283c-0.04,0.09-0.087,0.173-0.167,0.295H33.276z M33.016,26.137h0.223
			v-0.268h-0.223V26.137z M33.016,26.562h0.223v-0.303h-0.223V26.562z M33.211,26.792c0.033,0.2,0.045,0.323,0.05,0.513
			l-0.148,0.027c0.003-0.052,0.005-0.092,0.005-0.118c0-0.13-0.01-0.258-0.035-0.397L33.211,26.792z M33.454,26.774
			c0.05,0.158,0.073,0.25,0.11,0.458l-0.135,0.035c-0.03-0.223-0.045-0.293-0.093-0.46L33.454,26.774z M33.371,26.137h0.226v-0.268
			h-0.226V26.137z M33.371,26.562h0.226v-0.303h-0.226V26.562z M33.696,26.754c0.07,0.153,0.088,0.206,0.141,0.403L33.714,27.2
			c-0.037-0.178-0.072-0.283-0.13-0.413L33.696,26.754z M34.405,25.613c0.11-0.178,0.17-0.308,0.233-0.508l0.155,0.06
			c-0.08,0.193-0.135,0.293-0.235,0.448h0.163c0.112,0,0.165-0.002,0.223-0.012v0.167c-0.06-0.01-0.123-0.013-0.233-0.013h-0.265
			v0.328h0.21c0.11,0,0.166-0.002,0.226-0.013v0.165c-0.06-0.01-0.115-0.012-0.22-0.012h-0.215v0.388h0.308
			c0.093,0,0.168-0.005,0.238-0.012v0.172c-0.067-0.01-0.138-0.015-0.232-0.015h-0.313v0.36c0,0.105,0.005,0.188,0.015,0.268h-0.186
			c0.01-0.07,0.015-0.16,0.015-0.271v-0.358h-0.268c-0.125,0-0.175,0.003-0.23,0.013V26.6c0.078,0.01,0.14,0.012,0.228,0.012h0.27
			v-0.388h-0.2c-0.113,0-0.15,0.002-0.208,0.012v-0.165c0.06,0.01,0.11,0.013,0.21,0.013h0.198v-0.328h-0.25
			c-0.1,0-0.166,0.003-0.226,0.013v-0.167c0.06,0.01,0.108,0.012,0.213,0.012H34.405z M34.074,25.123
			c0.078,0.138,0.115,0.223,0.178,0.4l-0.143,0.058c-0.045-0.153-0.093-0.263-0.173-0.398L34.074,25.123z"/>
	</g>
	<g>
		<path d="M67.976,6.183c-0.008,0.045-0.008,0.045-0.01,0.175c-0.007,0.418-0.078,0.666-0.248,0.881
			c-0.153,0.193-0.338,0.318-0.641,0.433c-0.038-0.08-0.055-0.105-0.115-0.167c0.203-0.061,0.328-0.123,0.458-0.23
			c0.265-0.213,0.363-0.468,0.363-0.956c0-0.07-0.002-0.087-0.01-0.135H67.976z M68.964,5.867c-0.025,0.032-0.03,0.04-0.06,0.1
			c-0.173,0.335-0.405,0.563-0.73,0.713c-0.038-0.063-0.058-0.085-0.123-0.143C68.226,6.47,68.329,6.41,68.446,6.3
			c0.115-0.107,0.208-0.23,0.28-0.373h-1.421c-0.138,0-0.203,0.002-0.295,0.012V5.747c0.085,0.012,0.155,0.018,0.298,0.018h1.344
			c0.168,0,0.168,0,0.213-0.018L68.964,5.867z"/>
		<path d="M70.922,5.729c-0.045,0.032-0.048,0.038-0.11,0.105C70.654,6,70.441,6.183,70.226,6.337v1.066
			c0,0.143,0.002,0.198,0.012,0.266h-0.218c0.013-0.065,0.015-0.123,0.015-0.26V6.458c-0.325,0.2-0.508,0.283-0.966,0.438
			c-0.035-0.08-0.047-0.105-0.098-0.167c0.471-0.123,0.903-0.338,1.299-0.648c0.233-0.18,0.408-0.355,0.478-0.473L70.922,5.729z"/>
		<path d="M72.972,5.85c-0.022,0.025-0.038,0.058-0.068,0.133c-0.118,0.292-0.252,0.538-0.42,0.766
			c0.135,0.118,0.298,0.275,0.451,0.438l-0.125,0.15c-0.117-0.145-0.277-0.313-0.435-0.45c-0.275,0.32-0.608,0.573-0.991,0.75
			c-0.032-0.07-0.05-0.095-0.115-0.163c0.288-0.123,0.455-0.225,0.668-0.403c0.125-0.105,0.175-0.158,0.303-0.305
			c-0.26-0.215-0.393-0.313-0.593-0.431l0.123-0.118c0.221,0.143,0.36,0.243,0.578,0.418c0.155-0.21,0.286-0.45,0.383-0.718
			L71.658,5.93c-0.143,0.002-0.198,0.005-0.27,0.018l-0.005-0.19c0.068,0.01,0.115,0.013,0.21,0.013c0.01,0,0.032,0,0.067,0
			l1.046-0.013c0.095-0.002,0.105-0.002,0.158-0.022L72.972,5.85z"/>
	</g>
	<rect x="38.813" y="45.958" fill="#C6E2B7" stroke="#040000" stroke-width="0.25" width="8.25" height="2.938"/>
	<g>
		<path d="M40.036,46.435c0-0.058-0.002-0.093-0.01-0.143h0.17c-0.007,0.055-0.007,0.075-0.007,0.155h0.568
			c0-0.08-0.002-0.103-0.01-0.155h0.167c-0.007,0.055-0.007,0.07-0.007,0.155h0.425c0.103,0,0.183-0.005,0.255-0.015v0.163
			c-0.078-0.01-0.148-0.015-0.255-0.015h-0.425c0,0.05,0.002,0.068,0.007,0.1H40.75c0.005-0.038,0.005-0.045,0.007-0.1h-0.568v0.022
			c0,0.068,0,0.09,0.007,0.14h-0.17c0.007-0.047,0.01-0.083,0.01-0.138V46.58h-0.403c-0.105,0-0.18,0.005-0.252,0.015v-0.163
			c0.07,0.01,0.15,0.015,0.252,0.015h0.403V46.435z M39.621,46.92v1.406c0,0.093,0.005,0.17,0.015,0.243h-0.18
			c0.01-0.063,0.015-0.153,0.015-0.248V46.99c0-0.095-0.002-0.135-0.007-0.203c0.07,0.007,0.115,0.01,0.19,0.01h0.25
			c0.063,0,0.11-0.002,0.14-0.007l0.083,0.075c-0.013,0.022-0.018,0.032-0.033,0.072c-0.093,0.22-0.135,0.308-0.23,0.458
			c0.078,0.08,0.107,0.125,0.145,0.205c0.04,0.088,0.06,0.17,0.06,0.255c0,0.178-0.078,0.25-0.273,0.25
			c-0.035,0-0.058-0.003-0.107-0.008c-0.008-0.067-0.018-0.107-0.04-0.155c0.067,0.018,0.12,0.025,0.16,0.025
			c0.08,0,0.118-0.04,0.118-0.123c0-0.06-0.015-0.135-0.042-0.197c-0.04-0.088-0.083-0.148-0.18-0.243
			c0.11-0.163,0.172-0.292,0.24-0.485H39.621z M40.309,47.543c0,0.235-0.005,0.315-0.035,0.458c-0.05,0.235-0.115,0.373-0.255,0.533
			c-0.042-0.048-0.07-0.07-0.13-0.1c0.105-0.098,0.155-0.173,0.2-0.295c0.053-0.14,0.078-0.308,0.078-0.521
			c0-0.087-0.002-0.138-0.008-0.213c0.075,0.008,0.15,0.013,0.248,0.013h0.966c0.11,0,0.178-0.002,0.233-0.013v0.15
			c-0.065-0.007-0.146-0.013-0.228-0.013H40.309z M40.767,46.842c0-0.05-0.002-0.065-0.01-0.112h0.173
			c-0.008,0.047-0.01,0.06-0.01,0.112h0.375c0.11,0,0.18-0.002,0.243-0.012v0.143c-0.075-0.008-0.158-0.01-0.23-0.01h-0.105
			l0.085,0.068c-0.028,0.012-0.028,0.012-0.075,0.047c-0.058,0.042-0.09,0.063-0.143,0.093c0.08,0.027,0.145,0.055,0.318,0.127
			l-0.078,0.107c-0.183-0.085-0.25-0.115-0.385-0.165c-0.178,0.073-0.323,0.11-0.613,0.155c-0.018-0.065-0.022-0.078-0.06-0.125
			c0.198-0.013,0.34-0.038,0.505-0.09c-0.118-0.038-0.19-0.055-0.37-0.095l0.085-0.095c0.21,0.052,0.293,0.078,0.445,0.127
			c0.1-0.047,0.183-0.103,0.235-0.155h-0.678c-0.103,0-0.178,0.002-0.243,0.01V46.83c0.073,0.007,0.15,0.012,0.243,0.012H40.767z
			 M40.564,47.874c-0.043,0.078-0.068,0.113-0.133,0.188c-0.04-0.04-0.055-0.052-0.107-0.083c0.115-0.12,0.163-0.208,0.22-0.393
			l0.132,0.045c-0.027,0.06-0.035,0.08-0.055,0.125h0.263c0-0.078-0.003-0.113-0.008-0.16h0.155
			c-0.005,0.045-0.007,0.087-0.007,0.16h0.29c0.093,0,0.163-0.002,0.225-0.013v0.14c-0.055-0.007-0.12-0.01-0.223-0.01h-0.292v0.198
			h0.228c0.083,0,0.165-0.005,0.228-0.013v0.14c-0.052-0.007-0.123-0.01-0.223-0.01h-0.232v0.208h0.335
			c0.118,0,0.183-0.002,0.235-0.013v0.15c-0.09-0.01-0.158-0.015-0.243-0.015h-0.836c-0.098,0-0.167,0.005-0.24,0.015v-0.15
			c0.068,0.008,0.143,0.013,0.235,0.013h0.373v-0.208h-0.198c-0.1,0-0.17,0.002-0.233,0.01v-0.14
			c0.073,0.01,0.138,0.013,0.225,0.013h0.206v-0.198H40.564z"/>
		<path d="M42.959,46.457c0-0.072-0.002-0.112-0.012-0.158h0.185c-0.013,0.04-0.015,0.083-0.015,0.16v0.04h0.711
			c0.12,0,0.19-0.005,0.27-0.015v0.16c-0.08-0.01-0.145-0.012-0.263-0.012h-1.654c0,0.738-0.017,1.071-0.063,1.366
			c-0.035,0.233-0.085,0.38-0.188,0.563c-0.045-0.05-0.083-0.083-0.13-0.112c0.103-0.168,0.145-0.298,0.177-0.536
			c0.033-0.255,0.05-0.625,0.05-1.136c0-0.135-0.005-0.213-0.013-0.29c0.085,0.01,0.155,0.012,0.253,0.012h0.69V46.457z
			 M43.047,47.598c-0.168,0.007-0.333,0.01-0.498,0.01c-0.04,0-0.09,0-0.163-0.003c-0.018-0.05-0.028-0.075-0.068-0.13
			c0.143,0.007,0.21,0.007,0.34,0.007c0.548,0,0.974-0.035,1.124-0.092l0.101,0.127c-0.363,0.053-0.363,0.053-0.688,0.073v0.163
			h0.518c0.125,0,0.193-0.002,0.265-0.013v0.15c-0.085-0.01-0.145-0.013-0.265-0.013h-0.518v0.167h0.638
			c0.125,0,0.188-0.002,0.258-0.012v0.155c-0.073-0.013-0.138-0.015-0.26-0.015h-0.636v0.215c0,0.087-0.03,0.137-0.09,0.158
			c-0.038,0.015-0.088,0.02-0.183,0.02c-0.061,0-0.141-0.002-0.228-0.007c-0.01-0.058-0.02-0.087-0.05-0.147
			c0.103,0.015,0.198,0.022,0.283,0.022c0.107,0,0.12-0.007,0.12-0.08v-0.18h-0.626c-0.103,0-0.18,0.005-0.252,0.015v-0.153
			c0.058,0.007,0.105,0.01,0.252,0.01h0.626v-0.167h-0.5c-0.093,0-0.175,0.005-0.25,0.013v-0.15c0.06,0.01,0.128,0.013,0.25,0.013
			h0.5V47.598z M42.396,46.938c-0.072,0-0.112,0.002-0.143,0.01v-0.13c0.028,0.008,0.068,0.01,0.148,0.01h0.23v-0.023
			c0-0.05-0.005-0.08-0.01-0.117h0.148c-0.007,0.04-0.01,0.07-0.01,0.12v0.02h0.128c0.07,0,0.107-0.002,0.145-0.01v0.13
			c-0.04-0.008-0.067-0.01-0.145-0.01h-0.1c0.075,0.07,0.107,0.093,0.27,0.185c-0.045,0.038-0.06,0.055-0.087,0.09
			c-0.103-0.073-0.163-0.13-0.22-0.208c0.005,0.068,0.01,0.125,0.01,0.143v0.09c0,0.058,0.003,0.103,0.008,0.135h-0.148
			c0.008-0.042,0.013-0.093,0.013-0.135v-0.092c0-0.05,0.002-0.093,0.007-0.138c-0.095,0.143-0.167,0.215-0.345,0.34
			c-0.027-0.042-0.05-0.068-0.092-0.103c0.17-0.095,0.27-0.175,0.385-0.308H42.396z M43.282,46.938c-0.065,0-0.103,0.002-0.158,0.01
			v-0.13c0.042,0.008,0.085,0.01,0.16,0.01h0.198v-0.023c0-0.045-0.005-0.08-0.01-0.115h0.147c-0.01,0.04-0.01,0.065-0.01,0.115
			v0.023h0.22c0.08,0,0.125-0.002,0.167-0.01v0.13c-0.045-0.008-0.1-0.01-0.167-0.01h-0.175c0.14,0.14,0.245,0.21,0.471,0.305
			c-0.038,0.04-0.055,0.065-0.083,0.115c-0.21-0.113-0.315-0.198-0.443-0.353c0.008,0.048,0.01,0.09,0.01,0.141v0.09
			c0,0.047,0.002,0.093,0.01,0.135h-0.147c0.005-0.038,0.01-0.078,0.01-0.13v-0.095c0-0.038,0-0.058,0.007-0.138
			c-0.127,0.165-0.233,0.252-0.425,0.36c-0.03-0.043-0.048-0.06-0.095-0.093c0.21-0.103,0.318-0.18,0.47-0.338H43.282z"/>
		<path d="M44.866,47.914c-0.15,0.305-0.175,0.345-0.373,0.636l-0.14-0.12c0.085-0.083,0.143-0.158,0.228-0.293
			c0.063-0.1,0.1-0.178,0.165-0.333L44.866,47.914z M44.738,47.648c-0.11-0.11-0.21-0.183-0.368-0.271l0.09-0.112
			c0.16,0.09,0.235,0.14,0.373,0.255L44.738,47.648z M45.024,46.465c0-0.065-0.005-0.11-0.01-0.158h0.17
			c-0.008,0.047-0.01,0.09-0.01,0.158v0.027h0.591v-0.027c0-0.065-0.003-0.108-0.008-0.158h0.17c-0.008,0.047-0.01,0.087-0.01,0.158
			v0.027h0.423c0.108,0,0.186-0.005,0.253-0.015v0.163c-0.073-0.01-0.15-0.015-0.253-0.015h-0.423c0,0.067,0.002,0.1,0.01,0.145
			h-0.17c0.005-0.048,0.008-0.078,0.008-0.145h-0.591c0,0.08,0.002,0.117,0.01,0.167h-0.17c0.008-0.05,0.01-0.09,0.01-0.167h-0.391
			c-0.103,0-0.18,0.005-0.252,0.015v-0.163c0.067,0.01,0.145,0.015,0.252,0.015h0.391V46.465z M44.821,47.175
			c-0.115-0.12-0.206-0.198-0.353-0.291l0.098-0.105c0.15,0.098,0.235,0.166,0.358,0.283L44.821,47.175z M45.149,47.4
			c-0.105,0-0.175,0.002-0.238,0.013v-0.147c0.058,0.01,0.125,0.012,0.238,0.012h0.147c-0.045-0.073-0.072-0.11-0.127-0.165
			l0.127-0.055c0.068,0.083,0.098,0.13,0.143,0.22h0.223V47.01c-0.2,0.015-0.2,0.015-0.258,0.018c-0.03,0-0.03,0-0.19,0.007
			c-0.053,0-0.065,0.002-0.15,0.005c-0.01-0.047-0.023-0.083-0.05-0.135c0.042,0.002,0.078,0.002,0.098,0.002
			c0.528,0,1.043-0.063,1.219-0.148l0.12,0.13c-0.25,0.058-0.443,0.087-0.653,0.107v0.28h0.23c0.087-0.113,0.14-0.198,0.183-0.308
			l0.145,0.05c-0.067,0.11-0.113,0.175-0.175,0.258h0.166c0.115,0,0.183-0.002,0.24-0.012v0.147c-0.07-0.008-0.15-0.013-0.24-0.013
			h-0.423c0.173,0.158,0.421,0.285,0.736,0.378c-0.067,0.093-0.067,0.093-0.085,0.133c-0.085-0.035-0.113-0.045-0.21-0.093v0.505
			c0,0.1,0.005,0.188,0.015,0.26H46.22v-0.1h-0.976v0.098h-0.155c0.01-0.075,0.015-0.163,0.015-0.258v-0.493
			c-0.07,0.035-0.093,0.045-0.168,0.078c-0.018-0.04-0.047-0.078-0.09-0.115c0.305-0.1,0.521-0.223,0.69-0.393H45.149z
			 M45.244,47.871v0.183h0.41v-0.183H45.244z M45.654,48.169h-0.41v0.195h0.41V48.169z M46.235,47.753
			c-0.185-0.1-0.313-0.193-0.445-0.331c0.005,0.048,0.007,0.093,0.007,0.133v0.038c0,0.045,0.002,0.085,0.01,0.12h-0.153
			c0.005-0.042,0.008-0.078,0.008-0.123v-0.035c0-0.04,0.002-0.093,0.007-0.133c-0.13,0.143-0.253,0.238-0.42,0.331H46.235z
			 M46.223,48.054v-0.183H45.79v0.183H46.223z M46.223,48.364v-0.195H45.79v0.195H46.223z"/>
	</g>
	<rect x="34.124" y="35.588" fill="#E5B4D2" stroke="#040000" stroke-width="0.25" width="8.25" height="2.938"/>
	<rect x="34.542" y="35.826" fill="none" width="25.875" height="8.313"/>
	<text transform="matrix(1 0 0 1 34.542 38.0254)" font-family="'HiraKakuProN-W3-90ms-RKSJ-H'" font-size="2.5">対馬藩</text>
	<rect x="58.854" y="15.542" fill="#C0E4F8" stroke="#040000" stroke-width="0.25" width="8.25" height="2.938"/>
	<rect x="59.271" y="15.779" fill="none" width="25.875" height="8.313"/>
	<text transform="matrix(1 0 0 1 59.2715 17.9795)" font-family="'HiraKakuProN-W3-90ms-RKSJ-H'" font-size="2.5">松前藩</text>
	<polygon fill="#C6E2B7" stroke="#000000" stroke-width="0.1" stroke-miterlimit="10" points="42.258,52.362 42.667,48.896 
		39.461,50.274 40.66,51.169 37.039,56.021 35.84,55.127 35.432,58.593 38.638,57.215 37.439,56.32 41.06,51.468 	"/>
	<polygon fill="#FAEDB1" stroke="#000000" stroke-width="0.1" stroke-miterlimit="10" points="35.122,44.893 36.188,45.941 
		37.063,42.563 33.699,43.494 34.766,44.542 11.294,68.411 10.228,67.362 9.354,70.741 12.717,69.81 11.651,68.761 	"/>
	<polygon fill="#FAEDB1" stroke="#040000" stroke-width="0.1" stroke-miterlimit="10" points="37.063,41.094 34.041,39.349 
		34.041,40.844 27.024,40.85 19.975,39.238 20.309,37.78 16.974,38.808 19.531,41.183 19.864,39.725 26.969,41.344 34.041,41.344 
		34.041,42.839 	"/>
	<polygon fill="#DFB0CD" stroke="#000000" stroke-width="0.1" stroke-miterlimit="10" points="38.249,35.588 37.89,32.117 
		36.679,32.994 34.59,30.108 35.801,29.231 32.615,27.807 32.974,31.278 34.185,30.401 36.274,33.287 35.063,34.164 	"/>
	<polygon fill="#C0E4F8" stroke="#000000" stroke-width="0.1" stroke-miterlimit="10" points="69.213,11.401 69.994,8 66.658,9.024 
		67.752,10.042 64.854,13.158 63.759,12.14 62.979,15.542 66.315,14.518 65.22,13.499 68.119,10.383 	"/>
	<path fill="#FFFFFF" stroke="#000000" stroke-width="0.25" stroke-miterlimit="10" d="M60.902,33.697
		c0,0.783-0.635,1.417-1.417,1.417h-4.149c-0.783,0-1.417-0.635-1.417-1.417v-0.306c0-0.783,0.635-1.417,1.417-1.417h4.149
		c0.783,0,1.417,0.635,1.417,1.417V33.697z"/>
	<g>
		<path d="M55.235,32.816c0-0.1-0.002-0.173-0.013-0.245c0.08,0.01,0.153,0.012,0.268,0.012h1.126c0.115,0,0.185-0.002,0.258-0.012
			c-0.01,0.072-0.013,0.135-0.013,0.23v1.604c0,0.12,0.005,0.19,0.015,0.268h-0.183v-0.163h-1.292v0.163H55.22
			c0.01-0.075,0.015-0.153,0.015-0.266V32.816z M55.402,33.437h1.292v-0.701h-1.292V33.437z M55.402,34.358h1.292V33.59h-1.292
			V34.358z"/>
		<path d="M57.63,33.034c-0.098,0-0.183,0.005-0.275,0.015v-0.183c0.092,0.013,0.165,0.018,0.275,0.018h0.701v-0.212
			c0-0.083-0.005-0.143-0.017-0.228h0.197c-0.012,0.075-0.018,0.148-0.018,0.226v0.215h0.738c0.125,0,0.208-0.005,0.28-0.018v0.183
			c-0.105-0.01-0.18-0.015-0.28-0.015h-0.675c0.28,0.505,0.615,0.855,1.031,1.081c-0.053,0.058-0.08,0.095-0.115,0.163
			c-0.203-0.135-0.357-0.265-0.521-0.438c-0.208-0.22-0.348-0.433-0.468-0.703c0.007,0.15,0.01,0.243,0.01,0.325v0.568h0.273
			c0.123,0,0.178-0.003,0.243-0.013v0.175c-0.075-0.013-0.135-0.015-0.248-0.015h-0.268v0.238c0,0.118,0.005,0.208,0.018,0.288
			h-0.197c0.012-0.087,0.017-0.175,0.017-0.29v-0.235h-0.24c-0.118,0-0.177,0.002-0.252,0.015v-0.175
			c0.065,0.01,0.12,0.013,0.248,0.013h0.245v-0.568c0-0.093,0.002-0.188,0.01-0.323c-0.115,0.273-0.248,0.478-0.473,0.723
			c-0.158,0.173-0.292,0.293-0.475,0.42c-0.038-0.067-0.058-0.092-0.118-0.147c0.215-0.13,0.395-0.283,0.585-0.508
			c0.188-0.215,0.295-0.375,0.408-0.593H57.63z"/>
	</g>
</g>
</svg>
