<?xml version="1.0" encoding="utf-8"?>
<!-- Generator: Adobe Illustrator 16.0.3, SVG Export Plug-In . SVG Version: 6.00 Build 0)  -->
<!DOCTYPE svg PUBLIC "-//W3C//DTD SVG 1.1//EN" "http://www.w3.org/Graphics/SVG/1.1/DTD/svg11.dtd">
<svg version="1.1" id="レイヤー_1" xmlns="http://www.w3.org/2000/svg" xmlns:xlink="http://www.w3.org/1999/xlink" x="0px"
	 y="0px" width="127.582px" height="103.636px" viewBox="0 0 127.582 103.636" enable-background="new 0 0 127.582 103.636"
	 xml:space="preserve">
<g>
	<path d="M112.46,92.146c-0.541,1.099-0.631,1.242-1.342,2.287l-0.504-0.432c0.306-0.298,0.513-0.568,0.819-1.054
		c0.225-0.36,0.359-0.64,0.594-1.198L112.46,92.146z M112,91.192c-0.396-0.396-0.756-0.657-1.323-0.972l0.324-0.406
		c0.576,0.324,0.847,0.505,1.342,0.919L112,91.192z M113.027,86.934c0-0.233-0.018-0.396-0.036-0.566h0.612
		c-0.026,0.171-0.036,0.324-0.036,0.566v0.1h2.125v-0.1c0-0.233-0.009-0.387-0.027-0.566h0.612
		c-0.026,0.171-0.036,0.314-0.036,0.566v0.1h1.521c0.388,0,0.667-0.018,0.909-0.055v0.586c-0.261-0.036-0.54-0.055-0.909-0.055
		h-1.521c0,0.244,0.01,0.361,0.036,0.523h-0.612c0.019-0.172,0.027-0.279,0.027-0.523h-2.125c0,0.289,0.01,0.424,0.036,0.604h-0.612
		c0.027-0.18,0.036-0.324,0.036-0.604h-1.404c-0.369,0-0.648,0.019-0.909,0.055v-0.586c0.243,0.037,0.522,0.055,0.909,0.055h1.404
		V86.934z M112.298,89.491c-0.414-0.433-0.738-0.712-1.27-1.044l0.351-0.379c0.54,0.352,0.847,0.594,1.288,1.018L112.298,89.491z
		 M113.477,90.301c-0.378,0-0.63,0.01-0.854,0.045v-0.531c0.207,0.037,0.449,0.045,0.854,0.045h0.531
		c-0.162-0.26-0.261-0.396-0.459-0.594l0.459-0.197c0.243,0.297,0.352,0.468,0.514,0.791h0.801v-0.963
		c-0.72,0.055-0.72,0.055-0.927,0.063c-0.108,0-0.108,0-0.685,0.026c-0.189,0-0.234,0.01-0.54,0.019
		c-0.036-0.171-0.081-0.298-0.181-0.486c0.153,0.009,0.279,0.009,0.352,0.009c1.899,0,3.754-0.225,4.385-0.531l0.432,0.469
		c-0.9,0.207-1.594,0.314-2.35,0.387v1.008h0.828c0.315-0.404,0.504-0.711,0.657-1.106l0.522,0.18
		c-0.243,0.396-0.405,0.63-0.631,0.927h0.595c0.414,0,0.657-0.008,0.864-0.045v0.531c-0.252-0.026-0.54-0.045-0.864-0.045h-1.521
		c0.621,0.567,1.513,1.027,2.646,1.359c-0.243,0.334-0.243,0.334-0.306,0.478c-0.307-0.126-0.405-0.162-0.757-0.333v1.818
		c0,0.36,0.019,0.676,0.055,0.937h-0.567v-0.36h-3.511v0.352h-0.559c0.036-0.271,0.054-0.586,0.054-0.928V91.85
		c-0.252,0.126-0.333,0.162-0.603,0.279c-0.063-0.145-0.171-0.279-0.324-0.414c1.098-0.36,1.872-0.801,2.484-1.414H113.477z
		 M113.82,91.994v0.656h1.476v-0.656H113.82z M115.295,93.064h-1.476v0.703h1.476V93.064z M117.384,91.57
		c-0.666-0.359-1.125-0.693-1.603-1.188c0.019,0.17,0.027,0.332,0.027,0.477v0.135c0,0.162,0.009,0.307,0.036,0.433h-0.55
		c0.019-0.153,0.027-0.279,0.027-0.441v-0.126c0-0.145,0.009-0.333,0.027-0.477c-0.469,0.513-0.909,0.854-1.513,1.188H117.384z
		 M117.339,92.65v-0.656h-1.558v0.656H117.339z M117.339,93.768v-0.703h-1.558v0.703H117.339z"/>
	<path d="M123.27,87.402c0-0.352-0.019-0.631-0.063-0.937h0.756c-0.045,0.324-0.063,0.576-0.063,0.937v1.854h2.665
		c0.369,0,0.692-0.019,1.017-0.063v0.693c-0.333-0.045-0.63-0.063-1.008-0.063H123.9v3.592h2.188c0.478,0,0.711-0.009,0.963-0.054
		v0.675c-0.261-0.035-0.504-0.054-0.963-0.054h-4.834c-0.469,0-0.721,0.019-0.973,0.054v-0.675c0.225,0.036,0.504,0.054,0.963,0.054
		h2.026v-3.592h-2.422c-0.388,0-0.729,0.018-1.081,0.063v-0.693c0.36,0.045,0.657,0.063,1.081,0.063h2.422V87.402z"/>
</g>
<path fill-rule="evenodd" clip-rule="evenodd" fill="#FFFFFF" stroke="#000000" d="M108.917,0.5h-67.84
	c-8.264,0-13.966,5.596-13.966,12.5s5.702,12.5,13.966,12.5h48.715l11.478,7.407L99.421,25.5h9.496
	c8.267,0,13.968-5.596,13.968-12.5S117.184,0.5,108.917,0.5z"/>
<g>
	<path d="M63.969,33.207c-0.903,0.615-1.879,1.039-2.918,1.327c-0.024,0.008-0.057,0.008-0.08,0.008
		c-0.128,0-0.232-0.072-0.28-0.216c-0.008-0.032-0.008-0.064-0.008-0.096c0-0.128,0.063-0.232,0.184-0.28
		c0.912-0.208,2.007-0.64,2.847-1.207c-0.12-0.176-0.248-0.352-0.399-0.512c-0.664,0.352-1.384,0.624-2.104,0.799
		c-0.032,0.008-0.063,0.008-0.088,0.008c-0.128,0-0.216-0.08-0.248-0.216c-0.016-0.032-0.016-0.064-0.016-0.096
		c0-0.128,0.088-0.208,0.216-0.256c0.888-0.176,1.815-0.512,2.479-0.959h-1.767c-0.128,0-0.2-0.104-0.2-0.248
		c0-0.152,0.072-0.248,0.2-0.248h4.854c0.128,0,0.199,0.096,0.199,0.248c0,0.144-0.071,0.248-0.199,0.248h-1.416
		c0.088,0.488,0.216,0.967,0.4,1.423c0.399-0.296,0.783-0.632,1.071-0.983c0.048-0.056,0.111-0.08,0.191-0.08
		c0.072,0,0.152,0.024,0.225,0.088c0.08,0.064,0.119,0.152,0.119,0.232c0,0.056-0.023,0.12-0.071,0.168
		c-0.32,0.344-0.768,0.728-1.296,1.087c0.432,0.808,1.032,1.423,1.815,1.895c0.104,0.064,0.168,0.168,0.168,0.288
		c0,0.064-0.017,0.128-0.056,0.184c-0.072,0.096-0.177,0.144-0.28,0.144c-0.063,0-0.136-0.024-0.2-0.063
		c-1.423-0.88-2.271-2.391-2.646-4.382h-0.248c-0.207,0.16-0.424,0.312-0.647,0.456c0.376,0.376,0.647,0.84,0.832,1.279
		c0.216,0.528,0.319,1.151,0.319,1.799c0,1.111-0.344,1.383-1.063,1.383c-0.327,0-0.592-0.024-0.823-0.08
		c-0.128-0.032-0.231-0.128-0.231-0.272c0-0.024,0-0.056,0.008-0.088c0.032-0.144,0.144-0.224,0.271-0.224
		c0.024,0,0.048,0,0.072,0.008c0.176,0.048,0.416,0.08,0.607,0.08c0.464,0,0.584-0.072,0.584-0.84c0-0.216-0.017-0.432-0.04-0.64
		c-0.951,0.752-2.151,1.343-3.343,1.711c-0.031,0.008-0.063,0.016-0.104,0.016c-0.112,0-0.224-0.064-0.271-0.2
		c-0.009-0.04-0.017-0.08-0.017-0.12c0-0.136,0.088-0.248,0.216-0.296c1.144-0.296,2.415-0.896,3.398-1.695
		c-0.048-0.192-0.12-0.368-0.2-0.544L63.969,33.207z M66.991,29.752c0.464,0,0.688,0.176,0.688,0.624v0.768
		c0,0.16-0.12,0.24-0.312,0.24c-0.192,0-0.313-0.08-0.313-0.24v-0.656c0-0.152-0.08-0.2-0.256-0.2h-5.173
		c-0.176,0-0.256,0.048-0.256,0.2v0.656c0,0.16-0.128,0.24-0.319,0.24c-0.192,0-0.305-0.08-0.305-0.24v-0.768
		c0-0.448,0.225-0.624,0.688-0.624h2.423v-0.52c0-0.152,0.104-0.224,0.313-0.224s0.296,0.072,0.296,0.224v0.52H66.991z"/>
	<path d="M69.53,34.293c0-0.408,0.016-0.759,0.048-1.103c-0.232,0.264-0.488,0.52-0.744,0.728c-0.071,0.056-0.136,0.088-0.199,0.088
		c-0.08,0-0.152-0.048-0.225-0.136c-0.039-0.056-0.063-0.12-0.063-0.184c0-0.088,0.04-0.168,0.12-0.232
		c0.848-0.656,1.575-1.559,1.959-2.343c0.016-0.04,0.023-0.072,0.023-0.096c0-0.056-0.04-0.088-0.119-0.088h-1.56
		c-0.144,0-0.224-0.112-0.224-0.272c0-0.16,0.08-0.272,0.224-0.272h0.752v-1.127c0-0.144,0.119-0.224,0.304-0.224
		c0.184,0,0.304,0.08,0.304,0.224v1.127h0.487c0.304,0,0.504,0.168,0.504,0.44c0,0.096-0.023,0.208-0.08,0.328
		c-0.199,0.416-0.487,0.872-0.808,1.295c0.336,0.36,0.647,0.616,0.943,0.823c0.08,0.048,0.12,0.136,0.12,0.232
		c0,0.064-0.023,0.128-0.063,0.192c-0.064,0.072-0.145,0.112-0.216,0.112c-0.057,0-0.112-0.024-0.16-0.064
		c-0.248-0.2-0.496-0.432-0.752-0.736c0.024,0.4,0.032,0.751,0.032,1.08v2.167c0,0.144-0.128,0.224-0.304,0.224
		c-0.184,0-0.304-0.08-0.304-0.224V34.293z M73.12,34.525c-0.607,0.416-1.247,0.8-1.927,1.127c-0.048,0.024-0.096,0.032-0.136,0.032
		c-0.104,0-0.2-0.064-0.256-0.168c-0.024-0.056-0.032-0.104-0.032-0.144c0-0.104,0.048-0.192,0.16-0.24
		c0.719-0.296,1.486-0.72,2.19-1.208v-1.727h-1.927c-0.136,0-0.216-0.104-0.216-0.256s0.08-0.271,0.216-0.271h3.182l0.024-0.688
		h-2.534c-0.129,0-0.2-0.104-0.2-0.248c0-0.136,0.071-0.232,0.2-0.232h2.559l0.016-0.496c0-0.008,0-0.016,0-0.024
		c0-0.128-0.08-0.168-0.208-0.168h-2.606c-0.128,0-0.2-0.112-0.2-0.256c0-0.144,0.072-0.264,0.2-0.264h2.782
		c0.384,0,0.616,0.176,0.616,0.576c0,0.016,0,0.024,0,0.04l-0.064,1.759h0.808c0.144,0,0.224,0.112,0.224,0.264
		c0,0.16-0.08,0.264-0.224,0.264h-2.095v0.224c0.16,0.432,0.367,0.832,0.6,1.191c0.328-0.296,0.607-0.624,0.815-0.944
		c0.056-0.08,0.128-0.12,0.208-0.12c0.056,0,0.12,0.016,0.168,0.056c0.088,0.064,0.144,0.144,0.144,0.24
		c0,0.048-0.016,0.104-0.056,0.152c-0.232,0.328-0.6,0.704-0.983,1.047c0.399,0.528,0.863,0.959,1.359,1.279
		c0.088,0.064,0.136,0.152,0.136,0.256c0,0.056-0.016,0.12-0.048,0.184c-0.064,0.104-0.16,0.152-0.256,0.152
		c-0.064,0-0.128-0.024-0.185-0.064c-0.871-0.6-1.614-1.575-1.958-2.575c0.031,0.296,0.056,0.744,0.056,1.031v1.375
		c0,0.552-0.288,0.759-0.815,0.759c-0.264,0-0.504-0.024-0.735-0.072c-0.129-0.024-0.208-0.12-0.208-0.264
		c0-0.024,0-0.048,0.008-0.072c0.016-0.152,0.128-0.224,0.231-0.224c0.017,0,0.032,0,0.048,0.008c0.168,0.048,0.4,0.08,0.592,0.08
		c0.248,0,0.328-0.072,0.328-0.336V34.525z M71.665,32.646c0.063,0,0.128,0.024,0.191,0.08c0.24,0.216,0.496,0.504,0.688,0.751
		c0.04,0.064,0.064,0.12,0.064,0.184c0,0.08-0.04,0.152-0.112,0.2c-0.063,0.04-0.119,0.064-0.176,0.064
		c-0.08,0-0.144-0.04-0.208-0.12c-0.159-0.216-0.432-0.528-0.647-0.736c-0.056-0.056-0.08-0.112-0.08-0.176
		c0-0.072,0.04-0.136,0.096-0.184C71.537,32.67,71.601,32.646,71.665,32.646z"/>
</g>
<g>
	<path d="M24.438,67.402c-0.036,0.288-0.055,0.559-0.055,0.918v5.896c0,0.379,0.019,0.658,0.055,0.955h-0.721
		c0.045-0.315,0.063-0.604,0.063-0.963V68.32c0-0.324-0.019-0.611-0.063-0.918H24.438z M25.869,68.537
		c0-0.369-0.009-0.648-0.036-0.892c0.262,0.026,0.486,0.036,0.883,0.036h2.998c0.405,0,0.639-0.01,0.873-0.036
		c-0.027,0.261-0.036,0.478-0.036,0.837v5.6c0,0.342,0.018,0.693,0.054,0.955h-0.666v-0.586h-3.475v0.594h-0.648
		c0.036-0.252,0.054-0.558,0.054-0.98V68.537z M26.473,70.661h3.466V68.23h-3.466V70.661z M26.473,73.902h3.466v-2.691h-3.466
		V73.902z"/>
	<path d="M33.321,73.623c0-0.072,0-0.126,0-0.242c-0.36,0.188-0.63,0.305-1.135,0.512c-0.071-0.207-0.162-0.323-0.324-0.477
		c0.892-0.242,1.639-0.604,2.332-1.125h-1.351c-0.396,0-0.639,0.018-0.918,0.054v-0.576c0.27,0.036,0.522,0.054,0.918,0.054h1.873
		c0.216-0.234,0.279-0.314,0.423-0.531h-1.287c-0.279,0-0.505,0.01-0.721,0.027c0.019-0.189,0.027-0.404,0.027-0.594v-1.242
		c0-0.199-0.009-0.424-0.027-0.613c0.181,0.019,0.324,0.027,0.721,0.027h4.258c0.388,0,0.531-0.009,0.712-0.027
		c-0.019,0.189-0.027,0.379-0.027,0.613v1.242c0,0.225,0.009,0.404,0.027,0.594c-0.217-0.018-0.45-0.027-0.721-0.027h-2.395
		c-0.153,0.234-0.216,0.324-0.388,0.531h3.764c0.396,0,0.648-0.018,0.918-0.054v0.576c-0.252-0.036-0.522-0.054-0.909-0.054h-1.251
		c0.603,0.514,1.179,0.766,2.35,1.044c-0.136,0.162-0.207,0.279-0.315,0.495c-0.576-0.189-0.801-0.279-1.242-0.504
		c-0.009,0.207-0.009,0.234-0.009,0.405v0.802c0,0.477-0.181,0.603-0.874,0.603c-0.197,0-0.504-0.009-0.711-0.026
		c-0.045-0.234-0.063-0.334-0.135-0.496c0.306,0.036,0.63,0.063,0.873,0.063c0.234,0,0.297-0.036,0.297-0.181v-0.945H36.13v0.955
		c0,0.468,0.009,0.684,0.054,0.945h-0.639c0.045-0.271,0.054-0.496,0.054-0.945v-0.955H33.87v0.855c0,0.396,0.009,0.567,0.045,0.766
		h-0.639c0.026-0.225,0.045-0.441,0.045-0.766V73.623z M34.365,67.709c0-0.217-0.009-0.334-0.036-0.522h0.612
		c-0.026,0.18-0.026,0.288-0.026,0.522v0.107h2.07v-0.107c0-0.226-0.009-0.343-0.036-0.522h0.621
		c-0.027,0.18-0.036,0.288-0.036,0.53v0.1h1.495c0.369,0,0.666-0.018,0.918-0.054v0.576c-0.333-0.054-0.576-0.072-0.909-0.072
		h-1.504c0,0.181,0.009,0.288,0.036,0.45h-0.612c0.019-0.145,0.027-0.198,0.027-0.45h-2.07c0,0.252,0,0.298,0.026,0.44h-0.612
		c0.027-0.17,0.027-0.233,0.036-0.44h-1.449c-0.324,0-0.585,0.019-0.909,0.063v-0.576c0.252,0.045,0.54,0.063,0.918,0.063h1.44
		V67.709z M33.699,69.887h4.556V69.32h-4.556V69.887z M33.699,70.877h4.556v-0.584h-4.556V70.877z M34.879,72.291
		c-0.36,0.342-0.621,0.54-1.071,0.818c0.207,0,0.233,0,0.306,0h1.485c0-0.287-0.009-0.422-0.036-0.603h0.621
		c-0.035,0.198-0.054,0.343-0.054,0.603h1.747c0.144,0,0.197,0,0.351-0.008c-0.369-0.226-0.585-0.396-1.018-0.811H34.879z"/>
	<path d="M43.122,67.34c0.198,0.414,0.324,0.63,0.586,0.972c0.359,0.46,0.63,0.729,1.025,1.018
		c-0.135,0.144-0.197,0.233-0.323,0.485c-0.693-0.584-1.162-1.17-1.531-1.917c-0.414,0.927-0.972,1.62-1.872,2.35
		c-0.117-0.226-0.198-0.351-0.333-0.478c0.918-0.656,1.503-1.422,1.891-2.43H43.122z M41.781,71.543
		c-0.343,0-0.559,0.01-0.793,0.045v-0.584c0.226,0.035,0.45,0.045,0.838,0.045h1.755c0.379,0,0.604-0.01,0.802-0.037
		c-0.027,0.234-0.036,0.451-0.036,0.838v1.603c0,0.478-0.171,0.612-0.774,0.612c-0.099,0-0.135,0-0.387-0.018
		c-0.009-0.217-0.036-0.343-0.126-0.559c0.207,0.036,0.423,0.063,0.558,0.063c0.145,0,0.198-0.035,0.198-0.144v-1.864h-1.099v2.98
		c0,0.342,0.019,0.559,0.055,0.793h-0.657c0.036-0.244,0.054-0.479,0.054-0.793v-2.98H41.781z M41.763,69.671
		c0.181,0.027,0.369,0.036,0.648,0.036h0.963c0.288,0,0.46-0.009,0.648-0.036v0.558c-0.198-0.026-0.351-0.035-0.63-0.035h-1.009
		c-0.243,0-0.423,0.009-0.621,0.035V69.671z M46.184,74.064c-0.666,0.648-1.081,0.945-1.899,1.35
		c-0.127-0.207-0.208-0.305-0.379-0.459c0.495-0.207,0.712-0.324,1.081-0.584c0.314-0.207,0.459-0.343,0.747-0.648L46.184,74.064z
		 M45.454,68.023c-0.433,0-0.621,0.01-0.892,0.055v-0.613c0.252,0.045,0.459,0.055,0.883,0.055h2.646c0.414,0,0.64-0.01,0.864-0.055
		v0.613c-0.279-0.045-0.45-0.055-0.864-0.055h-1.018c-0.117,0.396-0.216,0.657-0.359,0.973h1.098c0.433,0,0.612-0.01,0.811-0.036
		c-0.018,0.226-0.027,0.468-0.027,0.828v2.962c0,0.352,0.01,0.576,0.027,0.855c-0.234-0.018-0.468-0.027-0.774-0.027h-2.151
		c-0.288,0-0.478,0.01-0.766,0.027c0.019-0.252,0.027-0.549,0.027-0.838v-2.961c0-0.352-0.009-0.576-0.036-0.838
		c0.243,0.018,0.414,0.027,0.783,0.027h0.459c0.145-0.334,0.262-0.657,0.343-0.973H45.454z M45.481,70.338h2.583v-0.855h-2.583
		V70.338z M45.481,71.705h2.583v-0.891h-2.583V71.705z M45.481,73.102h2.583v-0.919h-2.583V73.102z M47.462,73.731
		c0.549,0.549,0.99,0.854,1.81,1.251c-0.153,0.153-0.271,0.288-0.388,0.478c-0.828-0.46-1.251-0.783-1.836-1.396L47.462,73.731z"/>
</g>
<g>
	<path d="M17.068,87.577c0-0.2-0.016-0.36-0.048-0.512h0.607c-0.04,0.136-0.048,0.272-0.048,0.52v0.296h2.223
		c0.448,0,0.688-0.016,0.88-0.048v0.552c-0.256-0.032-0.48-0.04-0.863-0.04h-5.102c-0.008,1.942-0.08,3.222-0.224,4.038
		c-0.128,0.688-0.36,1.311-0.736,1.951c-0.104-0.137-0.224-0.24-0.432-0.36c0.32-0.495,0.504-0.943,0.64-1.535
		c0.152-0.696,0.24-1.967,0.24-3.622c0-0.48-0.008-0.736-0.032-0.976c0.256,0.024,0.512,0.04,0.823,0.04h2.071V87.577z
		 M15.717,94.397c0.04-0.224,0.048-0.448,0.048-0.903v-1.768c0-0.432,0.017-0.815,0.032-1.071c-0.2,0.36-0.407,0.616-0.775,0.983
		c-0.088-0.168-0.208-0.32-0.336-0.432c0.52-0.447,0.911-0.928,1.271-1.575c0.216-0.384,0.384-0.775,0.456-1.095l0.535,0.151
		c-0.176,0.44-0.432,0.952-0.688,1.359v3.454c0,0.455,0.008,0.656,0.04,0.896H15.717z M19.699,93.654
		c0,0.447-0.208,0.607-0.815,0.607c-0.272,0-0.616-0.016-0.944-0.049c-0.031-0.223-0.063-0.359-0.144-0.559
		c0.456,0.088,0.744,0.119,1.031,0.119c0.304,0,0.368-0.039,0.368-0.231v-3.263h-1.759c-0.368,0-0.561,0.008-0.776,0.041v-0.528
		c0.168,0.032,0.368,0.04,0.76,0.04h1.775v-0.535c0-0.281-0.008-0.457-0.04-0.656h0.584c-0.032,0.191-0.04,0.352-0.04,0.647v0.544
		h0.287c0.345,0,0.552-0.016,0.76-0.049v0.545c-0.216-0.033-0.439-0.049-0.76-0.049h-0.287V93.654z M17.364,90.815
		c0.544,0.552,0.735,0.784,1.199,1.472l-0.439,0.319c-0.344-0.624-0.6-0.968-1.151-1.519L17.364,90.815z"/>
</g>
<g>
	<path d="M9.32,55.33c-0.344,0.032-0.68,0.048-1.007,0.064c-0.008,0-0.017,0-0.024,0c-0.144,0-0.224-0.08-0.239-0.256
		c0-0.008,0-0.016,0-0.024c0-0.16,0.088-0.248,0.239-0.248c0.12,0,0.248-0.008,0.376-0.008c0.168-0.224,0.319-0.448,0.472-0.68
		c-0.296-0.424-0.695-0.88-1.008-1.2c-0.039-0.04-0.063-0.096-0.063-0.16c0-0.072,0.032-0.144,0.088-0.216
		c0.056-0.064,0.128-0.096,0.192-0.096c0.063,0,0.119,0.024,0.167,0.072c0.057,0.056,0.112,0.12,0.168,0.184
		c0.272-0.448,0.536-0.919,0.704-1.311c0.04-0.096,0.12-0.136,0.208-0.136c0.04,0,0.088,0.008,0.136,0.032
		c0.12,0.04,0.184,0.12,0.184,0.216c0,0.04-0.008,0.08-0.031,0.128c-0.208,0.448-0.496,0.927-0.84,1.479
		c0.032,0.04,0.056,0.072,0.088,0.104c0.111,0.144,0.224,0.28,0.328,0.416c0.287-0.456,0.551-0.912,0.743-1.303
		c0.048-0.096,0.128-0.144,0.224-0.144c0.048,0,0.096,0.008,0.152,0.032c0.104,0.064,0.16,0.144,0.16,0.24
		c0,0.048-0.009,0.088-0.024,0.128c-0.368,0.671-0.928,1.519-1.423,2.183c0.384-0.024,0.759-0.048,1.135-0.104
		c-0.071-0.176-0.151-0.36-0.239-0.528c-0.009-0.024-0.017-0.048-0.017-0.072c0-0.088,0.072-0.16,0.16-0.2
		c0.04-0.016,0.08-0.024,0.112-0.024c0.079,0,0.151,0.04,0.191,0.12c0.192,0.368,0.399,0.872,0.512,1.255
		c0.008,0.024,0.008,0.048,0.008,0.072c0,0.096-0.063,0.184-0.168,0.216c-0.04,0.008-0.071,0.016-0.111,0.016
		c-0.097,0-0.176-0.04-0.208-0.136c-0.024-0.088-0.048-0.176-0.08-0.264c-0.224,0.04-0.456,0.064-0.688,0.096v3.318
		c0,0.136-0.112,0.216-0.288,0.216c-0.168,0-0.288-0.08-0.288-0.216V55.33z M8.961,56.009c0,0.008,0,0.008,0,0.016
		c-0.04,0.72-0.16,1.479-0.344,2.039c-0.04,0.112-0.145,0.176-0.264,0.176c-0.032,0-0.072-0.008-0.104-0.016
		c-0.111-0.032-0.199-0.12-0.199-0.232c0-0.032,0.008-0.056,0.016-0.088c0.208-0.552,0.312-1.327,0.344-1.919
		c0.008-0.128,0.136-0.2,0.271-0.2c0.009,0,0.017,0,0.024,0C8.841,55.793,8.961,55.873,8.961,56.009z M11.08,57.249
		c0,0.112-0.08,0.192-0.216,0.224c-0.032,0.008-0.057,0.008-0.089,0.008c-0.127,0-0.216-0.072-0.231-0.184
		c-0.056-0.392-0.16-0.888-0.264-1.263c-0.008-0.032-0.017-0.056-0.017-0.088c0-0.112,0.08-0.167,0.185-0.2
		c0.032-0.008,0.063-0.008,0.096-0.008c0.104,0,0.184,0.048,0.216,0.152c0.128,0.4,0.24,0.888,0.312,1.311
		C11.08,57.216,11.08,57.232,11.08,57.249z M12.511,55.345c0,1.016-0.128,1.719-0.432,2.263c-0.224,0.408-0.552,0.744-0.983,1.032
		c-0.064,0.04-0.144,0.063-0.208,0.063c-0.096,0-0.191-0.04-0.248-0.127c-0.048-0.056-0.063-0.128-0.063-0.192
		c0-0.096,0.04-0.184,0.128-0.24c0.367-0.24,0.647-0.496,0.839-0.808c0.272-0.44,0.36-1.047,0.36-1.999
		c0-0.176,0.151-0.248,0.319-0.248S12.511,55.177,12.511,55.345z M12.935,52.875c-0.191,0.464-0.424,0.92-0.695,1.352
		c0.655-0.04,1.303-0.088,1.959-0.168c-0.168-0.2-0.344-0.4-0.536-0.583c-0.032-0.04-0.048-0.08-0.048-0.128
		c0-0.072,0.048-0.144,0.128-0.192c0.064-0.032,0.12-0.048,0.176-0.048c0.08,0,0.152,0.032,0.208,0.088
		c0.424,0.432,0.823,0.879,1.199,1.415c0.04,0.048,0.056,0.104,0.056,0.152c0,0.096-0.056,0.184-0.136,0.24
		c-0.063,0.032-0.128,0.056-0.191,0.056c-0.08,0-0.152-0.04-0.208-0.128c-0.096-0.136-0.192-0.272-0.28-0.4
		c-0.959,0.136-2.143,0.232-3.158,0.272c-0.008,0-0.008,0-0.016,0c-0.16,0-0.256-0.104-0.264-0.272c0-0.008,0-0.016,0-0.024
		c0-0.144,0.08-0.256,0.288-0.256c0.063,0,0.127,0,0.191,0c0.28-0.44,0.52-0.896,0.712-1.375H11.16
		c-0.137,0-0.217-0.104-0.217-0.264c0-0.16,0.08-0.272,0.217-0.272h1.526v-0.751c0-0.144,0.12-0.24,0.296-0.24
		s0.304,0.096,0.304,0.24v0.751h1.896c0.136,0,0.216,0.104,0.216,0.272c0,0.152-0.08,0.264-0.216,0.264H12.935z M13.311,55.29
		c0-0.136,0.136-0.216,0.304-0.216c0.176,0,0.304,0.08,0.304,0.216v2.526c0,0.216,0.048,0.232,0.416,0.232
		c0.376,0,0.439-0.072,0.487-0.248c0.064-0.248,0.08-0.664,0.08-0.984c0-0.192,0.145-0.256,0.304-0.256
		c0.145,0,0.272,0.08,0.272,0.264c0,0.424-0.024,0.959-0.136,1.279c-0.128,0.368-0.4,0.496-1.063,0.496
		c-0.76,0-0.968-0.08-0.968-0.592V55.29z"/>
	<path d="M17.673,54.418c0.063,0.056,0.104,0.136,0.104,0.224c0,0.072-0.024,0.144-0.08,0.208c-0.063,0.088-0.168,0.128-0.256,0.128
		c-0.071,0-0.136-0.024-0.184-0.064c-0.256-0.248-0.8-0.64-1.079-0.815c-0.072-0.048-0.112-0.128-0.112-0.224
		c0-0.064,0.024-0.136,0.063-0.192c0.072-0.08,0.16-0.128,0.265-0.128c0.048,0,0.104,0.016,0.151,0.04
		C16.929,53.81,17.329,54.122,17.673,54.418z M17.896,56.121c0,0.032-0.008,0.08-0.024,0.12c-0.264,0.696-0.663,1.599-1.095,2.239
		c-0.064,0.088-0.16,0.136-0.265,0.136c-0.063,0-0.136-0.024-0.207-0.056c-0.089-0.064-0.145-0.16-0.145-0.256
		c0-0.056,0.017-0.12,0.056-0.176c0.416-0.592,0.824-1.431,1.072-2.119c0.048-0.128,0.144-0.192,0.264-0.192
		c0.04,0,0.088,0.008,0.128,0.024C17.824,55.897,17.896,56.001,17.896,56.121z M18.232,52.667c0,0.072-0.024,0.152-0.08,0.208
		c-0.064,0.08-0.152,0.112-0.24,0.112s-0.176-0.032-0.239-0.096c-0.272-0.264-0.752-0.656-1.063-0.863
		c-0.064-0.04-0.104-0.128-0.104-0.216c0-0.072,0.024-0.144,0.072-0.208c0.063-0.08,0.16-0.128,0.264-0.128
		c0.056,0,0.112,0.016,0.168,0.048c0.328,0.208,0.815,0.6,1.119,0.896C18.2,52.491,18.232,52.579,18.232,52.667z M22.31,53.842
		c-0.264-0.376-0.552-0.744-0.839-1.071c-0.048-0.048-0.064-0.104-0.064-0.16c0-0.08,0.048-0.16,0.136-0.208
		c0.057-0.04,0.12-0.056,0.185-0.056c0.088,0,0.168,0.032,0.231,0.104c0.512,0.567,1.071,1.319,1.527,2.031
		c0.032,0.056,0.048,0.12,0.048,0.176c0,0.096-0.048,0.192-0.144,0.248c-0.057,0.04-0.12,0.056-0.185,0.056
		c-0.104,0-0.207-0.064-0.271-0.168c-0.08-0.144-0.176-0.288-0.264-0.432c-1.359,0.16-2.935,0.264-4.406,0.288
		c-0.176,0-0.295-0.104-0.304-0.304c0-0.008,0-0.016,0-0.016c0-0.168,0.104-0.304,0.272-0.304c0.144,0,0.279,0,0.424,0
		c0.527-0.799,0.951-1.679,1.239-2.438c0.048-0.136,0.159-0.2,0.288-0.2c0.048,0,0.096,0.008,0.144,0.024
		c0.136,0.04,0.208,0.128,0.208,0.248c0,0.032-0.008,0.072-0.024,0.12c-0.319,0.784-0.76,1.591-1.184,2.247
		C20.319,54.002,21.318,53.946,22.31,53.842z M22.15,55.394c0.495,0,0.728,0.192,0.728,0.688v1.831c0,0.503-0.232,0.695-0.728,0.695
		h-2.942c-0.504,0-0.728-0.192-0.728-0.695v-1.831c0-0.496,0.224-0.688,0.728-0.688H22.15z M22.022,58.032
		c0.168,0,0.247-0.048,0.247-0.224v-1.607c0-0.176-0.079-0.231-0.247-0.231h-2.687c-0.168,0-0.248,0.056-0.248,0.231v1.607
		c0,0.176,0.08,0.224,0.248,0.224H22.022z"/>
</g>
<g>
	<path d="M80.533,55.33c-0.344,0.032-0.68,0.048-1.007,0.064c-0.008,0-0.017,0-0.024,0c-0.144,0-0.224-0.08-0.239-0.256
		c0-0.008,0-0.016,0-0.024c0-0.16,0.088-0.248,0.239-0.248c0.12,0,0.248-0.008,0.376-0.008c0.168-0.224,0.319-0.448,0.472-0.68
		c-0.296-0.424-0.695-0.88-1.008-1.2c-0.039-0.04-0.063-0.096-0.063-0.16c0-0.072,0.032-0.144,0.088-0.216
		c0.056-0.064,0.128-0.096,0.192-0.096c0.063,0,0.119,0.024,0.167,0.072c0.057,0.056,0.112,0.12,0.168,0.184
		c0.272-0.448,0.536-0.919,0.704-1.311c0.04-0.096,0.12-0.136,0.208-0.136c0.04,0,0.088,0.008,0.136,0.032
		c0.12,0.04,0.184,0.12,0.184,0.216c0,0.04-0.008,0.08-0.031,0.128c-0.208,0.448-0.496,0.927-0.84,1.479
		c0.032,0.04,0.056,0.072,0.088,0.104c0.111,0.144,0.224,0.28,0.328,0.416c0.287-0.456,0.551-0.912,0.743-1.303
		c0.048-0.096,0.128-0.144,0.224-0.144c0.048,0,0.096,0.008,0.152,0.032c0.104,0.064,0.16,0.144,0.16,0.24
		c0,0.048-0.009,0.088-0.024,0.128c-0.368,0.671-0.928,1.519-1.423,2.183c0.384-0.024,0.759-0.048,1.135-0.104
		c-0.071-0.176-0.151-0.36-0.239-0.528c-0.009-0.024-0.017-0.048-0.017-0.072c0-0.088,0.072-0.16,0.16-0.2
		c0.04-0.016,0.08-0.024,0.112-0.024c0.079,0,0.151,0.04,0.191,0.12c0.192,0.368,0.399,0.872,0.512,1.255
		c0.008,0.024,0.008,0.048,0.008,0.072c0,0.096-0.063,0.184-0.168,0.216c-0.04,0.008-0.071,0.016-0.111,0.016
		c-0.097,0-0.176-0.04-0.208-0.136c-0.024-0.088-0.048-0.176-0.08-0.264c-0.224,0.04-0.456,0.064-0.688,0.096v3.318
		c0,0.136-0.112,0.216-0.288,0.216c-0.168,0-0.288-0.08-0.288-0.216V55.33z M80.174,56.009c0,0.008,0,0.008,0,0.016
		c-0.04,0.72-0.16,1.479-0.344,2.039c-0.04,0.112-0.145,0.176-0.264,0.176c-0.032,0-0.072-0.008-0.104-0.016
		c-0.111-0.032-0.199-0.12-0.199-0.232c0-0.032,0.008-0.056,0.016-0.088c0.208-0.552,0.312-1.327,0.344-1.919
		c0.008-0.128,0.136-0.2,0.271-0.2c0.009,0,0.017,0,0.024,0C80.054,55.793,80.174,55.873,80.174,56.009z M82.293,57.249
		c0,0.112-0.08,0.192-0.216,0.224c-0.032,0.008-0.057,0.008-0.089,0.008c-0.127,0-0.216-0.072-0.231-0.184
		c-0.056-0.392-0.16-0.888-0.264-1.263c-0.008-0.032-0.017-0.056-0.017-0.088c0-0.112,0.08-0.167,0.185-0.2
		c0.032-0.008,0.063-0.008,0.096-0.008c0.104,0,0.184,0.048,0.216,0.152c0.128,0.4,0.24,0.888,0.312,1.311
		C82.293,57.216,82.293,57.232,82.293,57.249z M83.724,55.345c0,1.016-0.128,1.719-0.432,2.263
		c-0.224,0.408-0.552,0.744-0.983,1.032c-0.064,0.04-0.144,0.063-0.208,0.063c-0.096,0-0.191-0.04-0.248-0.127
		c-0.048-0.056-0.063-0.128-0.063-0.192c0-0.096,0.04-0.184,0.128-0.24c0.367-0.24,0.647-0.496,0.839-0.808
		c0.272-0.44,0.36-1.047,0.36-1.999c0-0.176,0.151-0.248,0.319-0.248S83.724,55.177,83.724,55.345z M84.147,52.875
		c-0.191,0.464-0.424,0.92-0.695,1.352c0.655-0.04,1.303-0.088,1.959-0.168c-0.168-0.2-0.344-0.4-0.536-0.583
		c-0.032-0.04-0.048-0.08-0.048-0.128c0-0.072,0.048-0.144,0.128-0.192c0.064-0.032,0.12-0.048,0.176-0.048
		c0.08,0,0.152,0.032,0.208,0.088c0.424,0.432,0.823,0.879,1.199,1.415c0.04,0.048,0.056,0.104,0.056,0.152
		c0,0.096-0.056,0.184-0.136,0.24c-0.063,0.032-0.128,0.056-0.191,0.056c-0.08,0-0.152-0.04-0.208-0.128
		c-0.096-0.136-0.192-0.272-0.28-0.4c-0.959,0.136-2.143,0.232-3.158,0.272c-0.008,0-0.008,0-0.016,0
		c-0.16,0-0.256-0.104-0.264-0.272c0-0.008,0-0.016,0-0.024c0-0.144,0.08-0.256,0.288-0.256c0.063,0,0.127,0,0.191,0
		c0.28-0.44,0.52-0.896,0.712-1.375h-1.159c-0.137,0-0.217-0.104-0.217-0.264c0-0.16,0.08-0.272,0.217-0.272h1.526v-0.751
		c0-0.144,0.12-0.24,0.296-0.24s0.304,0.096,0.304,0.24v0.751h1.896c0.136,0,0.216,0.104,0.216,0.272
		c0,0.152-0.08,0.264-0.216,0.264H84.147z M84.523,55.29c0-0.136,0.136-0.216,0.304-0.216c0.176,0,0.304,0.08,0.304,0.216v2.526
		c0,0.216,0.048,0.232,0.416,0.232c0.376,0,0.439-0.072,0.487-0.248c0.064-0.248,0.08-0.664,0.08-0.984
		c0-0.192,0.145-0.256,0.304-0.256c0.145,0,0.272,0.08,0.272,0.264c0,0.424-0.024,0.959-0.136,1.279
		c-0.128,0.368-0.4,0.496-1.063,0.496c-0.76,0-0.968-0.08-0.968-0.592V55.29z"/>
	<path d="M88.886,54.418c0.063,0.056,0.104,0.136,0.104,0.224c0,0.072-0.024,0.144-0.08,0.208c-0.063,0.088-0.168,0.128-0.256,0.128
		c-0.071,0-0.136-0.024-0.184-0.064c-0.256-0.248-0.8-0.64-1.079-0.815c-0.072-0.048-0.112-0.128-0.112-0.224
		c0-0.064,0.024-0.136,0.063-0.192c0.072-0.08,0.16-0.128,0.265-0.128c0.048,0,0.104,0.016,0.151,0.04
		C88.142,53.81,88.542,54.122,88.886,54.418z M89.109,56.121c0,0.032-0.008,0.08-0.024,0.12c-0.264,0.696-0.663,1.599-1.095,2.239
		c-0.064,0.088-0.16,0.136-0.265,0.136c-0.063,0-0.136-0.024-0.207-0.056c-0.089-0.064-0.145-0.16-0.145-0.256
		c0-0.056,0.017-0.12,0.056-0.176c0.416-0.592,0.824-1.431,1.072-2.119c0.048-0.128,0.144-0.192,0.264-0.192
		c0.04,0,0.088,0.008,0.128,0.024C89.037,55.897,89.109,56.001,89.109,56.121z M89.445,52.667c0,0.072-0.024,0.152-0.08,0.208
		c-0.064,0.08-0.152,0.112-0.24,0.112s-0.176-0.032-0.239-0.096c-0.272-0.264-0.752-0.656-1.063-0.863
		c-0.064-0.04-0.104-0.128-0.104-0.216c0-0.072,0.024-0.144,0.072-0.208c0.063-0.08,0.16-0.128,0.264-0.128
		c0.056,0,0.112,0.016,0.168,0.048c0.328,0.208,0.815,0.6,1.119,0.896C89.413,52.491,89.445,52.579,89.445,52.667z M93.522,53.842
		c-0.264-0.376-0.552-0.744-0.839-1.071c-0.048-0.048-0.064-0.104-0.064-0.16c0-0.08,0.048-0.16,0.136-0.208
		c0.057-0.04,0.12-0.056,0.185-0.056c0.088,0,0.168,0.032,0.231,0.104c0.512,0.567,1.071,1.319,1.527,2.031
		c0.032,0.056,0.048,0.12,0.048,0.176c0,0.096-0.048,0.192-0.144,0.248c-0.057,0.04-0.12,0.056-0.185,0.056
		c-0.104,0-0.207-0.064-0.271-0.168c-0.08-0.144-0.176-0.288-0.264-0.432c-1.359,0.16-2.935,0.264-4.406,0.288
		c-0.176,0-0.295-0.104-0.304-0.304c0-0.008,0-0.016,0-0.016c0-0.168,0.104-0.304,0.272-0.304c0.144,0,0.279,0,0.424,0
		c0.527-0.799,0.951-1.679,1.239-2.438c0.048-0.136,0.159-0.2,0.288-0.2c0.048,0,0.096,0.008,0.144,0.024
		c0.136,0.04,0.208,0.128,0.208,0.248c0,0.032-0.008,0.072-0.024,0.12c-0.319,0.784-0.76,1.591-1.184,2.247
		C91.532,54.002,92.531,53.946,93.522,53.842z M93.363,55.394c0.495,0,0.728,0.192,0.728,0.688v1.831
		c0,0.503-0.232,0.695-0.728,0.695h-2.942c-0.504,0-0.728-0.192-0.728-0.695v-1.831c0-0.496,0.224-0.688,0.728-0.688H93.363z
		 M93.235,58.032c0.168,0,0.247-0.048,0.247-0.224v-1.607c0-0.176-0.079-0.231-0.247-0.231h-2.687c-0.168,0-0.248,0.056-0.248,0.231
		v1.607c0,0.176,0.08,0.224,0.248,0.224H93.235z"/>
</g>
<g>
	<path d="M48.699,51.62c0-0.152,0.12-0.24,0.304-0.24c0.192,0,0.304,0.088,0.304,0.24v6.892c0,0.152-0.111,0.24-0.304,0.24
		c-0.184,0-0.304-0.088-0.304-0.24v-1.983c-0.6,0.256-1.312,0.528-1.871,0.688c-0.04,0.008-0.08,0.016-0.112,0.016
		c-0.119,0-0.216-0.072-0.256-0.208c-0.016-0.048-0.023-0.096-0.023-0.144c0-0.12,0.063-0.2,0.184-0.231
		c0.12-0.032,0.256-0.072,0.392-0.112v-4.182c0-0.152,0.128-0.232,0.305-0.232c0.184,0,0.304,0.08,0.304,0.232v3.99
		c0.367-0.128,0.728-0.256,1.079-0.416V51.62z M49.843,52.395c-0.152,0-0.24-0.12-0.24-0.288c0-0.167,0.088-0.295,0.24-0.295h3.014
		c0.44,0,0.696,0.208,0.696,0.624c0,0.056-0.008,0.112-0.017,0.176c-0.224,1.439-0.68,2.743-1.415,3.854
		c0.456,0.6,1.031,1.127,1.719,1.575c0.089,0.056,0.137,0.152,0.137,0.264c0,0.072-0.024,0.144-0.064,0.208
		c-0.063,0.104-0.16,0.152-0.264,0.152c-0.072,0-0.144-0.024-0.208-0.064c-0.672-0.448-1.239-0.983-1.703-1.599
		c-0.487,0.616-1.063,1.159-1.751,1.623c-0.063,0.04-0.136,0.064-0.208,0.064c-0.096,0-0.191-0.04-0.256-0.144
		c-0.048-0.064-0.063-0.128-0.063-0.192c0-0.104,0.056-0.208,0.16-0.271c0.703-0.464,1.279-1.008,1.742-1.607
		c-0.768-1.239-1.151-2.638-1.263-4.078H49.843z M50.69,52.395c0.071,0.68,0.159,1.335,0.367,1.991
		c0.168,0.528,0.4,1.056,0.688,1.527c0.608-0.976,0.976-2.079,1.151-3.246c0.009-0.032,0.009-0.056,0.009-0.08
		c0-0.136-0.08-0.192-0.248-0.192H50.69z"/>
	<path d="M56.268,52.371c-0.136,0-0.24-0.136-0.24-0.312c0-0.16,0.104-0.304,0.24-0.304h1.583c0.487,0,0.72,0.184,0.728,0.664
		c0.016,1.056,0.304,2.007,0.832,2.982c0.52,0.952,1.438,1.887,2.326,2.431c0.096,0.064,0.152,0.168,0.152,0.28
		c0,0.072-0.024,0.152-0.072,0.224c-0.08,0.104-0.184,0.16-0.296,0.16c-0.072,0-0.152-0.024-0.224-0.072
		c-1.439-0.968-2.615-2.447-3.03-4.422c-0.464,1.983-1.647,3.51-3.079,4.438c-0.088,0.056-0.167,0.08-0.239,0.08
		c-0.12,0-0.216-0.056-0.296-0.168c-0.048-0.072-0.072-0.144-0.072-0.216c0-0.104,0.064-0.208,0.176-0.28
		c0.92-0.576,1.775-1.439,2.312-2.438c0.512-0.959,0.823-1.959,0.839-2.823c0-0.184-0.063-0.224-0.248-0.224H56.268z"/>
</g>
<g>
	<path d="M5.525,76.953h2.063c-0.479,0.648-0.655,0.96-0.847,1.487c-0.24,0.68-0.353,1.423-0.353,2.327
		c0,0.903,0.112,1.646,0.353,2.326c0.191,0.527,0.367,0.84,0.847,1.487H5.525V76.953z"/>
	<path d="M10.831,81.375c0.231-0.32,0.288-0.408,0.447-0.72H9.951c-0.447,0-0.711,0.009-0.919,0.032
		c0.023-0.208,0.031-0.376,0.031-0.695v-0.576c0-0.32-0.008-0.512-0.031-0.728c0.224,0.024,0.504,0.04,0.863,0.04h0.911v-0.775
		H9.407c-0.415,0-0.671,0.008-0.887,0.039v-0.527c0.199,0.032,0.472,0.049,0.903,0.049h5.045c0.448,0,0.704-0.017,0.912-0.049v0.527
		c-0.225-0.031-0.48-0.039-0.888-0.039h-1.495v0.775h0.951c0.384,0,0.647-0.016,0.871-0.04c-0.023,0.216-0.031,0.384-0.031,0.728
		v0.568c0,0.352,0.008,0.512,0.031,0.703c-0.199-0.023-0.455-0.032-0.919-0.032h-2.063c-0.225,0.392-0.272,0.456-0.448,0.72h3.095
		c0.439,0,0.688-0.016,0.896-0.048v0.528c-0.256-0.033-0.512-0.041-0.896-0.041h-0.88c-0.264,0.553-0.52,0.888-0.96,1.264
		c0.992,0.32,1.663,0.568,2.559,0.951l-0.359,0.439c-0.896-0.439-1.527-0.695-2.639-1.07c-0.903,0.559-1.902,0.839-3.518,0.975
		c-0.057-0.184-0.112-0.304-0.232-0.496c1.327-0.031,2.271-0.23,3.143-0.663c-0.624-0.184-1.191-0.319-1.991-0.487
		c0.376-0.336,0.528-0.504,0.88-0.912H9.392c-0.384,0-0.64,0.008-0.888,0.041v-0.528c0.208,0.032,0.464,0.048,0.888,0.048H10.831z
		 M9.552,79.137v1.111h1.255v-1.111H9.552z M11.071,81.814c-0.208,0.256-0.313,0.385-0.608,0.68c0.744,0.168,1.023,0.24,1.632,0.424
		c0.479-0.352,0.759-0.672,0.943-1.104H11.071z M11.263,78.729h1.279v-0.775h-1.279V78.729z M11.263,80.248h1.279v-1.111h-1.279
		V80.248z M12.998,80.248h1.303v-1.111h-1.303V80.248z"/>
	<path d="M17.344,78.137c0-0.375-0.016-0.656-0.048-0.887h0.592c-0.032,0.256-0.048,0.495-0.048,0.895v1.191h0.224
		c0.336,0,0.487-0.008,0.64-0.039v0.52c-0.2-0.024-0.368-0.033-0.647-0.033H17.84v2.512c0.344-0.16,0.487-0.232,0.903-0.465
		l0.048,0.488c-0.775,0.432-1.159,0.607-2.063,0.976c-0.112,0.04-0.232,0.097-0.32,0.136l-0.136-0.551
		c0.288-0.049,0.496-0.121,1.071-0.36v-2.735h-0.296c-0.336,0-0.464,0.009-0.672,0.049v-0.544c0.185,0.04,0.344,0.048,0.672,0.048
		h0.296V78.137z M19.79,83.318c0,0.191,0.049,0.256,0.24,0.303c0.191,0.057,0.552,0.072,1.287,0.072
		c1.128,0,1.463-0.047,1.592-0.231c0.104-0.144,0.159-0.512,0.167-1.079c0.185,0.111,0.28,0.151,0.512,0.207
		c-0.096,1.479-0.239,1.576-2.318,1.576c-1.655,0-1.982-0.121-1.982-0.744v-2.935l-0.177,0.056
		c-0.447,0.152-0.479,0.168-0.663,0.256l-0.144-0.543c0.224-0.024,0.439-0.072,0.695-0.16L19.287,80v-1.256
		c0-0.336-0.017-0.584-0.049-0.815h0.601c-0.032,0.24-0.049,0.472-0.049,0.792v1.119l1.144-0.384v-1.479
		c0-0.312-0.016-0.504-0.048-0.743h0.592c-0.032,0.231-0.048,0.464-0.048,0.751v1.313l1.231-0.408
		c0.248-0.08,0.415-0.152,0.631-0.248c-0.031,0.799-0.063,1.359-0.127,2.143c-0.057,0.712-0.16,1.047-0.368,1.168
		c-0.144,0.08-0.296,0.111-0.576,0.111c-0.071,0-0.168-0.008-0.352-0.023c-0.023-0.209-0.056-0.336-0.12-0.504
		c0.216,0.048,0.424,0.072,0.616,0.072c0.184,0,0.224-0.041,0.264-0.272c0.056-0.296,0.096-0.888,0.128-2.022l-1.327,0.455v2.207
		c0,0.32,0.016,0.535,0.048,0.768h-0.592c0.032-0.224,0.048-0.447,0.048-0.775v-2.031L19.79,80.32V83.318z"/>
	<path d="M24.28,84.581c0.479-0.647,0.655-0.96,0.848-1.487c0.24-0.68,0.352-1.406,0.352-2.326s-0.111-1.647-0.352-2.327
		c-0.192-0.527-0.368-0.839-0.848-1.487h2.063v7.628H24.28z"/>
</g>
<g>
	<path d="M39.108,76.953h2.063c-0.479,0.648-0.655,0.96-0.847,1.487c-0.24,0.68-0.353,1.423-0.353,2.327
		c0,0.903,0.112,1.646,0.353,2.326c0.191,0.527,0.367,0.84,0.847,1.487h-2.063V76.953z"/>
	<path d="M43.23,77.841c0.248,0.024,0.392,0.032,0.72,0.032c0.72,0,1.87-0.049,2.438-0.111c0.176-0.017,0.336-0.049,0.447-0.097
		l0.336,0.424c-0.128,0.088-0.184,0.136-0.392,0.336c-0.783,0.759-1.823,1.567-2.622,2.038c0.392-0.071,0.703-0.111,1.918-0.215
		c0.328-0.024,0.816-0.072,1.424-0.129c0.328-0.023,0.567-0.047,0.728-0.063c0.104-0.008,0.136-0.008,0.231-0.032l0.057,0.561
		c-0.08,0-0.145,0-0.176,0c-0.816,0-1.607,0.151-2.199,0.432c-0.408,0.191-0.775,0.471-0.999,0.76
		c-0.185,0.239-0.256,0.424-0.256,0.663c0,0.655,0.688,1.031,1.902,1.031c0.208,0,0.368-0.017,0.544-0.048l0.023,0.615
		c-0.136-0.008-0.136-0.008-0.543-0.016c-0.936-0.016-1.631-0.191-2.016-0.52c-0.304-0.256-0.472-0.615-0.472-1.008
		c0-0.711,0.592-1.344,1.743-1.847c-0.111,0.017-0.111,0.017-0.439,0.071c-0.136,0.017-0.848,0.113-1.304,0.168
		c-1.271,0.152-2.063,0.272-2.358,0.36l-0.063-0.608c0.023,0,0.04,0,0.056,0c0.248,0,0.848-0.063,1.399-0.159
		c0.791-0.472,1.854-1.304,2.654-2.063c0.128-0.119,0.16-0.143,0.264-0.223c-0.447,0.088-1.327,0.151-2.503,0.191
		c-0.304,0.016-0.335,0.016-0.495,0.031L43.23,77.841z"/>
	<path d="M52.334,81.679c-0.464,1.056-0.936,1.535-1.512,1.535c-0.76,0-1.327-0.831-1.327-1.95c0-0.816,0.304-1.607,0.84-2.207
		c0.64-0.704,1.511-1.064,2.582-1.064c0.896,0,1.68,0.281,2.199,0.793c0.504,0.486,0.775,1.183,0.775,1.95
		c0,1.239-0.672,2.263-1.831,2.759c-0.359,0.152-0.664,0.248-1.215,0.367c-0.08-0.264-0.129-0.344-0.28-0.535
		c0.584-0.096,0.959-0.2,1.335-0.376c0.88-0.399,1.415-1.255,1.415-2.239c0-0.911-0.463-1.646-1.271-2.006
		c-0.296-0.129-0.528-0.185-0.928-0.201C52.997,79.615,52.693,80.84,52.334,81.679z M51.35,78.889
		c-0.807,0.487-1.303,1.391-1.303,2.383c0,0.768,0.336,1.359,0.768,1.359c0.336,0,0.655-0.377,0.999-1.16
		c0.328-0.752,0.624-1.935,0.728-2.958C52.062,78.553,51.718,78.664,51.35,78.889z"/>
	<path d="M57.743,80.815c0-0.288,0.008-0.552,0.031-0.96c-0.344,0.584-0.447,0.736-0.839,1.199
		c-0.168-0.248-0.192-0.279-0.336-0.432c0.703-0.743,1.184-1.479,1.543-2.383c0.168-0.407,0.296-0.839,0.336-1.135l0.56,0.176
		c-0.048,0.111-0.072,0.184-0.168,0.455c-0.176,0.528-0.344,0.912-0.615,1.424v4.302c0,0.376,0.016,0.68,0.04,0.952h-0.601
		c0.032-0.289,0.049-0.545,0.049-0.969V80.815z M60.054,80.264v2.967c0,0.199,0.056,0.264,0.296,0.312
		c0.216,0.048,0.543,0.063,1.175,0.063c1,0,1.407-0.039,1.592-0.144c0.184-0.104,0.287-0.44,0.344-1.144
		c0.216,0.12,0.296,0.145,0.52,0.2c-0.128,0.808-0.256,1.167-0.472,1.319c-0.256,0.176-0.784,0.24-2.016,0.24
		c-0.472,0-0.871-0.017-1.159-0.049c-0.312-0.031-0.535-0.111-0.655-0.24c-0.088-0.088-0.128-0.223-0.128-0.439v-2.91l-0.144,0.048
		c-0.433,0.151-0.528,0.192-0.664,0.265l-0.112-0.553c0.216-0.031,0.464-0.088,0.696-0.168l0.224-0.08v-1.104
		c0-0.335-0.016-0.583-0.048-0.814h0.6c-0.032,0.224-0.048,0.455-0.048,0.791v0.959l1.167-0.407v-1.438
		c0-0.289-0.016-0.512-0.048-0.744h0.584c-0.032,0.232-0.048,0.439-0.048,0.744v1.271l1.255-0.432
		c0.319-0.112,0.479-0.176,0.632-0.256c-0.008,0.12-0.017,0.248-0.017,0.353c-0.016,0.695-0.088,1.95-0.144,2.422
		c-0.08,0.672-0.216,0.824-0.728,0.824c-0.184,0-0.352-0.008-0.575-0.033c-0.032-0.191-0.057-0.311-0.137-0.512
		c0.248,0.057,0.48,0.088,0.64,0.088c0.265,0,0.288-0.055,0.353-0.688c0.048-0.447,0.079-1.078,0.096-1.782l-1.375,0.487v2.255
		c0,0.312,0.016,0.544,0.048,0.768h-0.584c0.032-0.224,0.048-0.448,0.048-0.775v-2.079L60.054,80.264z"/>
	<path d="M64.783,84.581c0.479-0.647,0.655-0.96,0.848-1.487c0.24-0.68,0.352-1.406,0.352-2.326s-0.111-1.647-0.352-2.327
		c-0.192-0.527-0.368-0.839-0.848-1.487h2.063v7.628H64.783z"/>
</g>
<g>
	<path d="M54.175,92.727c-0.6,0.768-1.056,1.15-1.847,1.543c-0.152-0.191-0.208-0.248-0.392-0.384
		c0.455-0.192,0.711-0.336,1.039-0.592c0.32-0.248,0.496-0.432,0.783-0.823L54.175,92.727z M55.646,93.646
		c0,0.367,0.016,0.591,0.056,0.799h-0.624c0.04-0.208,0.057-0.455,0.057-0.799v-1.504h-2.079c-0.32,0-0.544,0.008-0.792,0.023
		c0.032-0.207,0.04-0.383,0.04-0.783v-2.678c0-0.336-0.008-0.48-0.048-0.721h0.592c-0.032,0.225-0.04,0.385-0.04,0.712v2.999h5.27
		c0.359,0,0.552-0.008,0.783-0.041v0.536c-0.24-0.04-0.432-0.048-0.775-0.048h-2.438V93.646z M57.893,90.424
		c0,0.375,0.009,0.567,0.04,0.752c-0.231-0.025-0.464-0.033-0.839-0.033h-2.527c-0.352,0-0.575,0.008-0.823,0.033
		c0.024-0.217,0.032-0.416,0.032-0.776v-2.255c0-0.295-0.008-0.487-0.032-0.719c0.248,0.031,0.512,0.039,0.871,0.039h2.503
		c0.344,0,0.536-0.008,0.815-0.039c-0.031,0.191-0.04,0.398-0.04,0.751V90.424z M54.255,88.568h3.15v-0.672h-3.15V88.568z
		 M54.255,89.648h3.15v-0.68h-3.15V89.648z M54.255,90.735h3.15v-0.688h-3.15V90.735z M57.014,92.479
		c0.399,0.424,0.663,0.647,1.079,0.92c0.24,0.168,0.432,0.264,0.88,0.463c-0.152,0.129-0.248,0.24-0.368,0.416
		c-0.783-0.392-1.295-0.791-1.991-1.543L57.014,92.479z"/>
</g>
<g>
	<path d="M93.575,92.263c-0.48,0.976-0.561,1.103-1.191,2.03l-0.448-0.383c0.272-0.264,0.456-0.504,0.728-0.936
		c0.2-0.32,0.32-0.568,0.528-1.064L93.575,92.263z M93.167,91.415c-0.352-0.353-0.672-0.583-1.176-0.864l0.288-0.359
		c0.512,0.288,0.752,0.447,1.191,0.816L93.167,91.415z M94.078,87.633c0-0.207-0.016-0.352-0.031-0.504h0.543
		c-0.023,0.152-0.031,0.288-0.031,0.504v0.088h1.887v-0.088c0-0.207-0.008-0.344-0.024-0.504h0.544
		c-0.023,0.152-0.032,0.28-0.032,0.504v0.088h1.352c0.344,0,0.592-0.016,0.808-0.048v0.521c-0.231-0.033-0.479-0.049-0.808-0.049
		h-1.352c0,0.217,0.009,0.32,0.032,0.464h-0.544c0.017-0.151,0.024-0.247,0.024-0.464h-1.887c0,0.256,0.008,0.376,0.031,0.536
		h-0.543c0.023-0.16,0.031-0.288,0.031-0.536h-1.247c-0.328,0-0.575,0.016-0.808,0.049v-0.521c0.216,0.032,0.464,0.048,0.808,0.048
		h1.247V87.633z M93.431,89.904c-0.367-0.385-0.655-0.633-1.127-0.928l0.312-0.336c0.479,0.312,0.752,0.527,1.144,0.903
		L93.431,89.904z M94.479,90.623c-0.336,0-0.56,0.008-0.76,0.041v-0.473c0.184,0.032,0.399,0.04,0.76,0.04h0.472
		c-0.145-0.231-0.232-0.352-0.408-0.527l0.408-0.177c0.216,0.265,0.312,0.416,0.456,0.704h0.711v-0.855
		c-0.64,0.048-0.64,0.048-0.823,0.056c-0.096,0-0.096,0-0.607,0.024c-0.168,0-0.208,0.008-0.48,0.017
		c-0.031-0.152-0.071-0.265-0.159-0.432c0.136,0.008,0.247,0.008,0.312,0.008c1.688,0,3.334-0.201,3.894-0.473l0.384,0.416
		c-0.799,0.184-1.415,0.279-2.087,0.344v0.896h0.736c0.279-0.36,0.447-0.632,0.583-0.983l0.464,0.16
		c-0.216,0.352-0.359,0.56-0.56,0.823H98.3c0.368,0,0.584-0.008,0.768-0.04v0.473c-0.224-0.025-0.479-0.041-0.768-0.041h-1.351
		c0.552,0.504,1.343,0.912,2.351,1.207c-0.216,0.297-0.216,0.297-0.271,0.424c-0.272-0.111-0.36-0.143-0.672-0.295v1.615
		c0,0.319,0.016,0.6,0.048,0.831H97.9v-0.319h-3.118v0.312h-0.496c0.032-0.239,0.048-0.521,0.048-0.823v-1.576
		c-0.224,0.113-0.296,0.145-0.535,0.248c-0.056-0.127-0.152-0.248-0.288-0.367c0.976-0.32,1.663-0.712,2.207-1.256H94.479z
		 M94.782,92.127v0.584h1.312v-0.584H94.782z M96.094,93.078h-1.312v0.623h1.312V93.078z M97.948,91.751
		c-0.592-0.319-0.999-0.616-1.423-1.056c0.016,0.152,0.023,0.296,0.023,0.424v0.12c0,0.144,0.009,0.271,0.032,0.384h-0.487
		c0.016-0.137,0.023-0.248,0.023-0.393v-0.111c0-0.128,0.008-0.296,0.024-0.424c-0.416,0.455-0.808,0.76-1.344,1.056H97.948z
		 M97.908,92.711v-0.584h-1.383v0.584H97.908z M97.908,93.701v-0.623h-1.383v0.623H97.908z"/>
</g>
<polyline fill="none" stroke="#000000" stroke-width="0.9648" stroke-miterlimit="10" points="50.132,71.047 71.348,71.047 
	71.348,96.514 0.482,96.514 0.482,71.047 22.825,71.047 "/>
<g>
	<g>
		<line fill="none" stroke="#000000" stroke-miterlimit="10" x1="35.915" y1="76.766" x2="35.915" y2="78.266"/>
		
			<line fill="none" stroke="#000000" stroke-miterlimit="10" stroke-dasharray="2.996,1.9974" x1="35.915" y1="80.264" x2="35.915" y2="94.244"/>
		<line fill="none" stroke="#000000" stroke-miterlimit="10" x1="35.915" y1="95.243" x2="35.915" y2="96.743"/>
	</g>
</g>
<g>
	<g>
		<line fill="none" stroke="#000000" stroke-miterlimit="10" x1="29.312" y1="43.516" x2="29.312" y2="64.014"/>
		<g>
			<polygon points="25.222,60.701 25.954,60.019 29.311,63.631 32.668,60.019 33.4,60.701 29.311,65.099 			"/>
		</g>
	</g>
</g>
<g>
	<g>
		<line fill="none" stroke="#000000" stroke-miterlimit="10" x1="40.103" y1="44.6" x2="40.103" y2="65.099"/>
		<g>
			<polygon points="36.013,47.914 36.745,48.596 40.102,44.984 43.459,48.596 44.191,47.914 40.102,43.516 			"/>
		</g>
	</g>
</g>
<g>
	<g>
		<line fill="none" stroke="#000000" stroke-miterlimit="10" x1="96.191" y1="43.516" x2="96.191" y2="84.375"/>
		<g>
			<polygon points="92.102,81.063 92.834,80.38 96.19,83.992 99.548,80.38 100.28,81.063 96.19,85.46 			"/>
		</g>
	</g>
</g>
<g>
	<path d="M10.389,38.253c-0.352,0-0.522,0.009-0.738,0.054v-0.594c0.207,0.045,0.387,0.054,0.756,0.054h1.099V37.29
		c0-0.117-0.019-0.261-0.045-0.369h0.603c-0.026,0.108-0.036,0.252-0.036,0.369v0.477h0.99c0.315,0,0.495-0.009,0.729-0.054v0.585
		c-0.207-0.036-0.387-0.045-0.729-0.045h-0.854c0.342,0.477,0.594,0.711,1.269,1.143c-0.144,0.171-0.207,0.279-0.314,0.486
		c-0.585-0.495-0.774-0.702-1.126-1.242c0.019,0.198,0.027,0.459,0.036,0.792v1.306c0,0.315,0.01,0.531,0.045,0.774h-0.621
		c0.036-0.234,0.055-0.477,0.055-0.774v-1.279c0-0.216,0.009-0.45,0.026-0.747c-0.369,0.774-0.882,1.369-1.701,1.999
		c-0.099-0.207-0.198-0.351-0.342-0.504c0.45-0.297,0.837-0.621,1.17-0.99c0.271-0.306,0.405-0.495,0.657-0.963H10.389z
		 M11.991,36.246c0.315-0.531,0.478-0.936,0.604-1.476l0.54,0.171c-0.216,0.54-0.405,0.954-0.612,1.305h0.531
		c0.343,0,0.522-0.009,0.729-0.045v0.603c-0.225-0.036-0.405-0.045-0.729-0.045h-2.674c-0.351,0-0.54,0.009-0.747,0.045v-0.603
		c0.198,0.036,0.388,0.045,0.747,0.045H11.991z M12.91,34.175c0.369,0,0.54-0.009,0.756-0.045v0.603
		c-0.243-0.036-0.414-0.045-0.765-0.045h-2.305c-0.379,0-0.55,0.009-0.783,0.045V34.13c0.207,0.036,0.396,0.045,0.792,0.045h0.9
		v-0.243c0-0.288-0.01-0.432-0.045-0.63h0.657c-0.036,0.189-0.046,0.333-0.046,0.63v0.243H12.91z M10.848,36.165
		c-0.153-0.504-0.271-0.783-0.514-1.206l0.478-0.18c0.252,0.45,0.36,0.72,0.513,1.215L10.848,36.165z M17.015,36.183
		c0.404,0,0.621-0.018,0.828-0.054v0.621c-0.226-0.036-0.424-0.045-0.793-0.045h-0.333v3.925c0,0.45,0.01,0.675,0.055,0.9h-0.693
		c0.036-0.234,0.054-0.459,0.054-0.9v-3.925h-1.413c0,0.117,0,0.117,0,0.351c-0.009,1.197-0.198,2.413-0.514,3.232
		c-0.18,0.477-0.359,0.819-0.666,1.233c-0.188-0.18-0.288-0.261-0.513-0.378c0.864-1.062,1.134-2.323,1.134-5.33
		c0-1.017-0.018-1.404-0.045-1.666c0.045,0,0.09,0,0.108,0c0.477,0,1.396-0.18,2.134-0.414c0.378-0.126,0.603-0.225,0.828-0.387
		l0.459,0.504c-0.081,0.027-0.09,0.027-0.324,0.126c-0.747,0.306-1.432,0.477-2.593,0.666v1.54H17.015z"/>
	<path d="M26.771,35.535c-0.207-0.036-0.378-0.045-0.828-0.045c-0.108,1.071-0.234,1.62-0.54,2.376
		c-0.181,0.45-0.388,0.837-0.657,1.225c0.647,0.81,1.314,1.359,2.188,1.792c-0.181,0.189-0.271,0.324-0.378,0.558
		c-0.9-0.541-1.585-1.144-2.152-1.909c-0.666,0.774-1.305,1.27-2.476,1.909c-0.126-0.225-0.233-0.36-0.405-0.504
		c0.576-0.252,0.9-0.432,1.314-0.729c0.495-0.351,0.9-0.729,1.243-1.144c-0.469-0.738-0.757-1.431-0.955-2.277
		c-0.225,0.459-0.342,0.675-0.585,1.026c-0.153-0.18-0.252-0.261-0.432-0.369c0.09-0.108,0.116-0.144,0.188-0.243
		c-0.162-0.027-0.342-0.036-0.801-0.036h-0.378v2.431c0.53-0.18,0.783-0.27,1.458-0.54l0.009,0.558
		c-1.152,0.45-1.899,0.702-2.565,0.882c-0.702,0.189-1.135,0.306-1.333,0.378l-0.161-0.648c0.197-0.009,0.387-0.036,0.675-0.099
		v-3.097c0-0.405-0.009-0.621-0.045-0.891h0.621c-0.036,0.279-0.045,0.522-0.045,0.882V40c0.234-0.054,0.504-0.135,0.837-0.234
		v-5.086h-0.945c-0.288,0-0.549,0.018-0.81,0.054v-0.639c0.261,0.036,0.495,0.054,0.828,0.054h2.179c0.369,0,0.585-0.009,0.81-0.045
		v0.621c-0.243-0.036-0.414-0.045-0.747-0.045h-0.765v1.963h0.378c0.468,0,0.639-0.009,0.81-0.036v0.576
		c0.441-0.693,0.766-1.513,1.009-2.584c0.144-0.594,0.225-1.08,0.234-1.359l0.63,0.126c-0.054,0.18-0.054,0.18-0.288,1.18
		c-0.045,0.171-0.072,0.279-0.117,0.441h2.143c0.405,0,0.657-0.018,0.855-0.054V35.535z M23.62,35.49
		c-0.081,0.252-0.107,0.351-0.197,0.576c0.216,1.026,0.504,1.782,0.98,2.539c0.567-0.909,0.864-1.873,0.973-3.115H23.62z"/>
	<path d="M31.638,33.815c0-0.225-0.018-0.405-0.054-0.576h0.685c-0.045,0.153-0.055,0.306-0.055,0.585v0.333h2.503
		c0.505,0,0.774-0.018,0.99-0.054v0.621c-0.288-0.036-0.54-0.045-0.972-0.045h-5.744c-0.009,2.188-0.09,3.628-0.252,4.546
		c-0.144,0.774-0.405,1.477-0.828,2.197c-0.117-0.153-0.252-0.27-0.486-0.405c0.36-0.558,0.567-1.062,0.721-1.729
		c0.171-0.783,0.27-2.214,0.27-4.078c0-0.54-0.009-0.828-0.036-1.098c0.288,0.027,0.576,0.045,0.928,0.045h2.331V33.815z
		 M30.118,41.494c0.045-0.252,0.054-0.504,0.054-1.017v-1.99c0-0.486,0.018-0.918,0.036-1.206c-0.226,0.405-0.459,0.693-0.874,1.107
		c-0.099-0.189-0.233-0.36-0.378-0.486c0.586-0.504,1.026-1.044,1.432-1.773c0.243-0.432,0.433-0.874,0.514-1.233l0.603,0.171
		c-0.198,0.495-0.486,1.071-0.774,1.53v3.889c0,0.513,0.01,0.738,0.046,1.008H30.118z M34.6,40.657c0,0.504-0.233,0.684-0.918,0.684
		c-0.306,0-0.693-0.018-1.063-0.054c-0.036-0.252-0.071-0.405-0.162-0.63c0.514,0.099,0.838,0.135,1.162,0.135
		c0.342,0,0.414-0.045,0.414-0.261v-3.673h-1.98c-0.415,0-0.631,0.009-0.874,0.045v-0.594c0.189,0.036,0.414,0.045,0.855,0.045
		h1.999V35.75c0-0.315-0.01-0.513-0.045-0.738h0.657c-0.036,0.216-0.046,0.396-0.046,0.729v0.612h0.324
		c0.388,0,0.621-0.018,0.855-0.054v0.612c-0.243-0.036-0.495-0.054-0.855-0.054H34.6V40.657z M31.972,37.461
		c0.611,0.622,0.828,0.882,1.35,1.657l-0.495,0.36c-0.387-0.702-0.675-1.089-1.296-1.71L31.972,37.461z"/>
	<path d="M39.163,37.407c0,0.405-0.333,0.738-0.738,0.738c-0.404,0-0.738-0.333-0.738-0.738c0-0.405,0.334-0.738,0.738-0.738
		C38.83,36.669,39.163,37.002,39.163,37.407z"/>
	<path d="M45.481,37.002c0.324,0.963,0.666,1.558,1.233,2.152c0.657,0.693,1.458,1.188,2.548,1.584
		c-0.171,0.207-0.243,0.324-0.369,0.603c-1.135-0.504-1.954-1.081-2.656-1.873c-0.477-0.531-0.855-1.207-1.161-2.053
		c-0.271,0.981-0.721,1.783-1.404,2.458c-0.576,0.585-1.18,0.972-2.206,1.431c-0.126-0.27-0.188-0.36-0.387-0.558
		c1.161-0.414,2.044-1.017,2.629-1.783c0.432-0.576,0.702-1.179,0.854-1.962h-2.034c-0.369,0-0.675,0.018-0.954,0.054v-0.639
		c0.27,0.036,0.549,0.054,0.954,0.054h2.125c0.09-0.666,0.099-0.864,0.117-1.936h-2.539c-0.469,0-0.747,0.018-0.999,0.063v-0.666
		c0.233,0.045,0.566,0.063,0.999,0.063h5.905c0.424,0,0.757-0.018,1-0.063v0.666c-0.252-0.045-0.531-0.063-1-0.063h-2.772
		c-0.009,1-0.036,1.359-0.108,1.936h2.584c0.405,0,0.676-0.018,0.964-0.054v0.639c-0.298-0.036-0.586-0.054-0.964-0.054H45.481z"/>
	<path d="M51.699,38.416c-0.441,0-0.72,0.018-0.999,0.054v-0.603c0.306,0.045,0.549,0.054,1.008,0.054h4.952
		c0.477,0,0.711-0.009,1.017-0.054v0.603c-0.288-0.036-0.558-0.054-0.999-0.054H54.4v0.828h1.998c0.433,0,0.631-0.009,0.883-0.045
		v0.585c-0.243-0.036-0.469-0.045-0.864-0.045H54.4v0.937h2.674c0.477,0,0.756-0.018,1.044-0.054v0.621
		c-0.297-0.045-0.576-0.063-1.063-0.063h-5.734c-0.486,0-0.756,0.018-1.063,0.063v-0.621c0.307,0.036,0.585,0.054,1.045,0.054h2.548
		v-0.937h-1.873c-0.405,0-0.63,0.009-0.873,0.045v-0.585c0.252,0.036,0.459,0.045,0.891,0.045h1.855v-0.828H51.699z M53.482,34.166
		c0.144-0.27,0.242-0.54,0.306-0.837l0.648,0.108c-0.063,0.135-0.252,0.522-0.36,0.729h2.143c0.433,0,0.685-0.009,0.918-0.036
		c-0.026,0.216-0.036,0.378-0.036,0.756v1.521c0,0.36,0.01,0.558,0.036,0.811c-0.188-0.018-0.504-0.027-0.891-0.027h-4.123
		c-0.352,0-0.685,0.009-0.892,0.027c0.026-0.252,0.036-0.441,0.036-0.801v-1.414c0-0.405-0.01-0.63-0.036-0.873
		c0.188,0.027,0.477,0.036,0.909,0.036H53.482z M51.825,35.417h4.718v-0.765h-4.718V35.417z M51.825,36.723h4.718v-0.829h-4.718
		V36.723z"/>
</g>
<g>
	<path d="M83.864,35.871c-0.262,0.531-0.414,0.783-0.838,1.324c-0.135-0.189-0.216-0.261-0.44-0.396
		c0.63-0.675,0.963-1.305,1.197-2.25c0.054-0.234,0.081-0.36,0.081-0.495l0.612,0.099c-0.055,0.144-0.072,0.216-0.153,0.486
		c-0.072,0.27-0.126,0.441-0.234,0.711h1.63c0.441,0,0.675-0.018,0.882-0.054v0.621c-0.278-0.027-0.576-0.045-0.882-0.045h-0.576
		c-0.019,0.972-0.019,1.081-0.063,1.684h0.766c0.369,0,0.639-0.018,0.855-0.054v0.63c-0.226-0.036-0.505-0.054-0.855-0.054h-0.811
		c-0.026,0.207-0.036,0.315-0.072,0.531c0.514,0.963,0.919,1.45,1.711,2.053c-0.162,0.171-0.243,0.297-0.36,0.54
		c-0.675-0.63-0.963-0.99-1.512-1.909c-0.324,1.099-0.811,1.801-1.801,2.593c-0.145-0.216-0.243-0.315-0.45-0.468
		c1.233-0.874,1.755-1.774,1.936-3.34h-0.819c-0.441,0-0.675,0.009-0.954,0.054V37.5c0.27,0.045,0.495,0.054,0.972,0.054h0.855
		c0.036-0.495,0.045-0.684,0.055-1.684H83.864z M87.564,41.921h-0.621c0.035-0.252,0.054-0.63,0.054-1.026v-4.997
		c0-0.342-0.019-0.639-0.054-0.945c0.252,0.036,0.423,0.045,0.81,0.045h1.801c0.378,0,0.559-0.009,0.811-0.045
		c-0.036,0.27-0.045,0.522-0.045,0.945v4.934c0,0.423,0.018,0.828,0.054,1.089h-0.63v-0.639h-2.179V41.921z M87.564,40.76h2.179
		v-5.24h-2.179V40.76z"/>
	<path d="M93.432,39.851c-0.541,1.098-0.631,1.242-1.342,2.287l-0.504-0.432c0.306-0.297,0.513-0.567,0.819-1.053
		c0.225-0.36,0.359-0.64,0.594-1.198L93.432,39.851z M92.972,38.896c-0.396-0.396-0.756-0.657-1.323-0.972l0.324-0.405
		c0.576,0.324,0.847,0.504,1.342,0.918L92.972,38.896z M93.998,34.638c0-0.234-0.018-0.396-0.036-0.567h0.612
		c-0.026,0.171-0.036,0.324-0.036,0.567v0.099h2.125v-0.099c0-0.234-0.009-0.387-0.027-0.567h0.612
		c-0.026,0.171-0.036,0.315-0.036,0.567v0.099h1.521c0.388,0,0.667-0.018,0.909-0.054v0.585c-0.261-0.036-0.54-0.054-0.909-0.054
		h-1.521c0,0.243,0.01,0.36,0.036,0.522h-0.612c0.019-0.171,0.027-0.279,0.027-0.522h-2.125c0,0.288,0.01,0.423,0.036,0.604h-0.612
		c0.027-0.18,0.036-0.324,0.036-0.604h-1.404c-0.369,0-0.648,0.018-0.909,0.054v-0.585c0.243,0.036,0.522,0.054,0.909,0.054h1.404
		V34.638z M93.27,37.195c-0.414-0.433-0.738-0.711-1.27-1.044l0.351-0.378c0.54,0.351,0.847,0.594,1.288,1.018L93.27,37.195z
		 M94.448,38.005c-0.378,0-0.63,0.009-0.854,0.045v-0.531c0.207,0.036,0.449,0.045,0.854,0.045h0.531
		c-0.162-0.261-0.261-0.396-0.459-0.594l0.459-0.198c0.243,0.297,0.352,0.468,0.514,0.792h0.801v-0.963
		c-0.72,0.054-0.72,0.054-0.927,0.063c-0.108,0-0.108,0-0.685,0.027c-0.189,0-0.234,0.009-0.54,0.018
		c-0.036-0.171-0.081-0.297-0.181-0.486c0.153,0.009,0.279,0.009,0.352,0.009c1.899,0,3.754-0.225,4.385-0.531l0.432,0.468
		c-0.9,0.207-1.594,0.315-2.35,0.387v1.008h0.828c0.315-0.405,0.504-0.711,0.657-1.107l0.522,0.18
		c-0.243,0.396-0.405,0.63-0.631,0.927h0.595c0.414,0,0.657-0.009,0.864-0.045v0.531c-0.252-0.027-0.54-0.045-0.864-0.045H97.23
		c0.621,0.567,1.513,1.026,2.646,1.359c-0.243,0.333-0.243,0.333-0.306,0.477c-0.307-0.126-0.405-0.162-0.757-0.333v1.818
		c0,0.36,0.019,0.675,0.055,0.937h-0.567v-0.36h-3.511v0.351h-0.559c0.036-0.27,0.054-0.585,0.054-0.927v-1.773
		c-0.252,0.126-0.333,0.162-0.603,0.279c-0.063-0.144-0.171-0.279-0.324-0.414c1.098-0.36,1.872-0.801,2.484-1.414H94.448z
		 M94.791,39.697v0.657h1.476v-0.657H94.791z M96.267,40.769h-1.476v0.702h1.476V40.769z M98.355,39.274
		c-0.666-0.36-1.125-0.693-1.603-1.188c0.019,0.171,0.027,0.333,0.027,0.477v0.135c0,0.162,0.009,0.306,0.036,0.432h-0.55
		c0.019-0.153,0.027-0.279,0.027-0.441v-0.126c0-0.144,0.009-0.333,0.027-0.477c-0.469,0.513-0.909,0.855-1.513,1.188H98.355z
		 M98.311,40.354v-0.657h-1.558v0.657H98.311z M98.311,41.471v-0.702h-1.558v0.702H98.311z"/>
	<path d="M104.295,38.491h-2.116c-0.369,0-0.585,0.009-0.846,0.045v-0.558c0.225,0.036,0.441,0.045,0.864,0.045h2.098v-0.585h-1.882
		c-0.297,0-0.54,0.009-0.738,0.036c0.027-0.207,0.036-0.369,0.036-0.603v-0.396c0-0.243-0.009-0.387-0.036-0.612
		c0.234,0.027,0.433,0.036,0.747,0.036h1.873v-0.594h-2.611c-0.414,0-0.738,0.018-1.008,0.054v-0.594
		c0.243,0.036,0.504,0.054,1.026,0.054h2.593c0-0.441-0.009-0.576-0.054-0.81h0.657c-0.055,0.225-0.063,0.351-0.063,0.81h2.755
		c0.522,0,0.792-0.018,1.035-0.054v0.594c-0.297-0.036-0.594-0.054-1.018-0.054h-2.772v0.594h2.07c0.315,0,0.514-0.009,0.738-0.036
		c-0.026,0.225-0.036,0.36-0.036,0.612v0.396c0,0.252,0.01,0.378,0.036,0.603c-0.198-0.027-0.44-0.036-0.729-0.036h-2.079v0.585
		h1.963c0.521,0,0.765-0.009,1.008-0.036c-0.018,0.189-0.026,0.36-0.026,0.747v0.378c0.513,0,0.756-0.009,0.954-0.054v0.567
		c-0.226-0.036-0.478-0.045-0.954-0.045v0.585c0,0.441,0.018,0.684,0.054,0.9h-0.585v-0.369h-2.413v0.747
		c0,0.621-0.18,0.747-1.054,0.747c-0.188,0-0.351-0.009-0.854-0.036c-0.019-0.225-0.055-0.342-0.153-0.567
		c0.459,0.063,0.774,0.09,1.116,0.09c0.324,0,0.405-0.045,0.405-0.243v-0.738h-2.17c-0.414,0-0.604,0.009-0.882,0.045v-0.558
		c0.252,0.036,0.432,0.045,0.864,0.045h2.188V39.58h-2.701c-0.495,0-0.738,0.009-0.981,0.045v-0.567
		c0.217,0.036,0.469,0.054,0.981,0.054h2.701V38.491z M102.251,36.339v0.666h2.044v-0.666H102.251z M104.835,37.005h2.232v-0.666
		h-2.232V37.005z M107.248,39.112v-0.622h-2.413v0.622H107.248z M104.835,40.229h2.413V39.58h-2.413V40.229z"/>
</g>
<g>
	<g>
		
			<line fill="none" stroke="#000000" stroke-width="0.8433" stroke-miterlimit="10" x1="59.103" y1="37.553" x2="80.855" y2="37.553"/>
		<g>
			<polygon points="78.061,41.002 77.485,40.384 80.531,37.554 77.485,34.723 78.061,34.105 81.77,37.554 			"/>
		</g>
	</g>
</g>
<g>
	<path d="M37.949,4.084c0-0.152,0.12-0.24,0.304-0.24c0.192,0,0.304,0.088,0.304,0.24v6.892c0,0.152-0.111,0.24-0.304,0.24
		c-0.184,0-0.304-0.088-0.304-0.24V8.994c-0.6,0.256-1.312,0.528-1.871,0.688c-0.04,0.008-0.08,0.016-0.112,0.016
		c-0.119,0-0.216-0.072-0.256-0.208c-0.016-0.048-0.023-0.096-0.023-0.144c0-0.12,0.063-0.2,0.184-0.231
		c0.12-0.032,0.256-0.072,0.392-0.112V4.82c0-0.152,0.128-0.232,0.305-0.232c0.184,0,0.304,0.08,0.304,0.232v3.99
		c0.367-0.128,0.728-0.256,1.079-0.416V4.084z M39.093,4.86c-0.152,0-0.24-0.12-0.24-0.288c0-0.167,0.088-0.295,0.24-0.295h3.014
		c0.44,0,0.696,0.208,0.696,0.624c0,0.056-0.008,0.112-0.017,0.176c-0.224,1.439-0.68,2.743-1.415,3.854
		c0.456,0.6,1.031,1.127,1.719,1.575c0.089,0.056,0.137,0.152,0.137,0.264c0,0.072-0.024,0.144-0.064,0.208
		c-0.063,0.104-0.16,0.152-0.264,0.152c-0.072,0-0.144-0.024-0.208-0.064c-0.672-0.448-1.239-0.983-1.703-1.599
		c-0.487,0.616-1.063,1.159-1.751,1.623c-0.063,0.04-0.136,0.064-0.208,0.064c-0.096,0-0.191-0.04-0.256-0.144
		c-0.048-0.064-0.063-0.128-0.063-0.192c0-0.104,0.056-0.208,0.16-0.271c0.703-0.464,1.279-1.008,1.742-1.607
		c-0.768-1.239-1.151-2.638-1.263-4.078H39.093z M39.94,4.86c0.071,0.68,0.159,1.335,0.367,1.991c0.168,0.528,0.4,1.056,0.688,1.527
		c0.608-0.976,0.976-2.079,1.151-3.246c0.009-0.032,0.009-0.056,0.009-0.08c0-0.136-0.08-0.192-0.248-0.192H39.94z"/>
	<path d="M45.518,4.836c-0.136,0-0.24-0.136-0.24-0.312c0-0.16,0.104-0.304,0.24-0.304h1.583c0.487,0,0.72,0.184,0.728,0.664
		c0.016,1.056,0.304,2.007,0.832,2.982c0.52,0.952,1.438,1.887,2.326,2.431c0.096,0.064,0.152,0.168,0.152,0.28
		c0,0.072-0.024,0.152-0.072,0.224c-0.08,0.104-0.184,0.16-0.296,0.16c-0.072,0-0.152-0.024-0.224-0.072
		c-1.439-0.968-2.615-2.447-3.03-4.422c-0.464,1.983-1.647,3.51-3.079,4.438c-0.088,0.056-0.167,0.08-0.239,0.08
		c-0.12,0-0.216-0.056-0.296-0.168c-0.048-0.072-0.072-0.144-0.072-0.216c0-0.104,0.064-0.208,0.176-0.28
		c0.92-0.576,1.775-1.439,2.312-2.438c0.512-0.959,0.823-1.959,0.839-2.823c0-0.184-0.063-0.224-0.248-0.224H45.518z"/>
	<path d="M53.382,4.428c0,0.048-0.009,0.088-0.024,0.144c-0.271,1.048-0.464,2.399-0.464,3.494c0,0.824,0.096,1.655,0.24,2.335
		c0.008,0.048,0.016,0.096,0.016,0.136c0,0.176-0.072,0.288-0.248,0.32c-0.031,0.008-0.071,0.008-0.096,0.008
		c-0.176,0-0.288-0.112-0.328-0.304C52.318,9.865,52.23,9.01,52.23,8.074c0-1.104,0.191-2.591,0.472-3.646
		c0.056-0.2,0.168-0.28,0.327-0.28c0.032,0,0.064,0,0.104,0.008C53.293,4.188,53.382,4.284,53.382,4.428z M58.331,5.476
		c0.023-0.008,0.048-0.008,0.071-0.008c0.16,0,0.264,0.104,0.272,0.256c0.008,0.024,0.008,0.048,0.008,0.072
		c0,0.168-0.08,0.264-0.24,0.296c-0.367,0.072-0.791,0.12-1.255,0.16c0.008,0.472,0.016,0.904,0.048,1.303
		c0.024,0.304,0.063,0.712,0.088,1.056c0.479,0.224,1.039,0.624,1.392,0.991c0.063,0.064,0.104,0.16,0.104,0.248
		s-0.032,0.176-0.096,0.248c-0.072,0.072-0.16,0.104-0.24,0.104s-0.168-0.032-0.231-0.104c-0.313-0.344-0.616-0.6-0.92-0.792
		c0.008,0.072,0.008,0.16,0.008,0.216c0,0.847-0.575,1.247-1.583,1.247c-0.983,0-1.623-0.488-1.623-1.287
		c0-0.712,0.6-1.231,1.552-1.231c0.359,0,0.695,0.056,0.991,0.144c-0.024-0.264-0.048-0.584-0.064-0.848
		c-0.023-0.384-0.04-0.8-0.048-1.255c-0.439,0.024-0.928,0.04-1.407,0.04c-0.279,0-0.56-0.008-0.831-0.016
		c-0.208-0.008-0.296-0.136-0.296-0.328c0-0.184,0.104-0.304,0.287-0.304c0,0,0.009,0,0.017,0c0.288,0.008,0.592,0.016,0.896,0.016
		c0.432,0,0.879-0.008,1.319-0.04c-0.008-0.4-0.017-0.816-0.017-1.224c0-0.208,0.112-0.312,0.305-0.312
		c0.207,0,0.335,0.112,0.335,0.304c0,0.136,0,0.271,0,0.408c0,0.272,0,0.536,0,0.784C57.563,5.58,57.963,5.54,58.331,5.476z
		 M55.685,8.81c-0.568,0-0.936,0.272-0.936,0.68s0.367,0.68,0.951,0.68c0.768,0,1.031-0.272,1.031-0.919
		c0-0.072-0.008-0.128-0.016-0.224C56.388,8.882,56.052,8.81,55.685,8.81z"/>
	<path d="M59.639,8.434c-0.145,0-0.224-0.12-0.224-0.28c0-0.16,0.079-0.264,0.224-0.264h1.455V7.411c0-0.16,0.104-0.232,0.279-0.232
		c0.177,0,0.28,0.072,0.28,0.232V7.89h1.344c0.144,0,0.224,0.104,0.224,0.264c0,0.152-0.08,0.28-0.224,0.28h-1.104
		c0.296,0.352,0.592,0.6,0.871,0.792c0.08,0.056,0.12,0.144,0.12,0.232c0,0.064-0.024,0.128-0.064,0.184
		c-0.063,0.08-0.151,0.12-0.231,0.12c-0.056,0-0.112-0.024-0.168-0.064c-0.28-0.232-0.607-0.632-0.848-1.023
		c0.056,0.24,0.08,0.536,0.08,0.759v1.583c0,0.144-0.112,0.224-0.288,0.224s-0.279-0.08-0.279-0.224V9.521
		c0-0.248,0.031-0.544,0.08-0.776c-0.272,0.656-0.792,1.264-1.336,1.687c-0.056,0.04-0.119,0.064-0.184,0.064
		c-0.088,0-0.176-0.048-0.231-0.136c-0.032-0.056-0.049-0.112-0.049-0.168c0-0.088,0.04-0.176,0.128-0.24
		c0.536-0.376,1.04-0.928,1.384-1.519H59.639z M63.021,6.443c0.144,0,0.232,0.12,0.232,0.28c0,0.16-0.089,0.28-0.232,0.28h-3.382
		c-0.145,0-0.224-0.12-0.224-0.28c0-0.16,0.079-0.28,0.224-0.28h1.967c0.208-0.384,0.376-0.799,0.447-1.087
		c0.032-0.128,0.128-0.192,0.248-0.192c0.024,0,0.057,0.008,0.096,0.016c0.12,0.024,0.217,0.088,0.217,0.2
		c0,0.024,0,0.048-0.009,0.08c-0.088,0.272-0.239,0.632-0.439,0.983H63.021z M62.94,4.524c0.145,0,0.232,0.112,0.232,0.272
		s-0.088,0.28-0.232,0.28h-3.15c-0.144,0-0.231-0.12-0.231-0.28s0.088-0.272,0.231-0.272h1.312V3.988
		c0-0.136,0.128-0.232,0.312-0.232c0.177,0,0.313,0.096,0.313,0.232v0.536H62.94z M60.446,5.18c0.104,0,0.184,0.056,0.231,0.144
		c0.096,0.176,0.216,0.456,0.264,0.695c0.009,0.024,0.009,0.04,0.009,0.064c0,0.112-0.057,0.208-0.192,0.232
		c-0.032,0.008-0.072,0.016-0.104,0.016c-0.112,0-0.2-0.056-0.225-0.168C60.382,5.955,60.286,5.684,60.19,5.5
		c-0.017-0.032-0.024-0.064-0.024-0.096c0-0.088,0.064-0.176,0.168-0.208C60.374,5.188,60.414,5.18,60.446,5.18z M66.65,6.395
		c0.145,0,0.232,0.12,0.232,0.28c0,0.16-0.088,0.288-0.232,0.288h-0.72v4.005c0,0.16-0.104,0.248-0.304,0.248
		c-0.176,0-0.287-0.088-0.287-0.248V6.963h-1.2C64.124,8.09,64.061,8.85,63.9,9.441c-0.168,0.631-0.416,1.208-0.672,1.607
		c-0.064,0.104-0.168,0.152-0.28,0.152c-0.063,0-0.136-0.024-0.191-0.064c-0.088-0.056-0.128-0.136-0.128-0.224
		c0-0.064,0.023-0.136,0.072-0.208c0.264-0.376,0.495-0.896,0.64-1.463c0.168-0.688,0.216-1.479,0.216-2.927V5.211
		c0-0.439,0.191-0.64,0.552-0.695c0.671-0.112,1.438-0.296,2.087-0.552c0.048-0.016,0.096-0.024,0.136-0.024
		c0.111,0,0.208,0.056,0.271,0.168c0.024,0.056,0.032,0.12,0.032,0.168c0,0.112-0.048,0.208-0.145,0.24
		c-0.703,0.248-1.455,0.424-2.11,0.528c-0.184,0.032-0.231,0.104-0.231,0.344v1.007H66.65z"/>
	<path d="M69.709,9.521c0.344-0.112,0.688-0.232,1.016-0.368c0.04-0.016,0.088-0.024,0.12-0.024c0.12,0,0.208,0.072,0.248,0.192
		c0.008,0.04,0.016,0.08,0.016,0.112c0,0.12-0.071,0.208-0.184,0.256c-1.063,0.432-2.295,0.792-3.238,0.992
		c-0.024,0.008-0.048,0.008-0.08,0.008c-0.136,0-0.231-0.08-0.264-0.24c-0.008-0.032-0.008-0.056-0.008-0.088
		c0-0.136,0.063-0.248,0.191-0.272c0.112-0.024,0.224-0.048,0.336-0.072v-3.43c0-0.152,0.128-0.248,0.304-0.248
		s0.288,0.096,0.288,0.248v3.294c0.063-0.016,0.12-0.032,0.184-0.048c0.16-0.04,0.328-0.088,0.488-0.136V5.083h-1.367
		c-0.152,0-0.232-0.12-0.232-0.28c0-0.16,0.08-0.28,0.232-0.28h3.102c0.152,0,0.232,0.12,0.232,0.28c0,0.16-0.08,0.28-0.232,0.28
		h-1.151v1.735h0.792c0.144,0,0.231,0.112,0.231,0.288c0,0.168-0.088,0.288-0.231,0.288h-0.792V9.521z M74.123,5.827
		c-0.064,0.624-0.145,1.224-0.344,1.823c-0.168,0.52-0.416,1-0.72,1.455c0.447,0.568,0.999,1.023,1.671,1.391
		c0.104,0.056,0.168,0.176,0.168,0.304c0,0.064-0.016,0.136-0.056,0.192c-0.072,0.104-0.168,0.152-0.272,0.152
		c-0.071,0-0.151-0.024-0.224-0.072c-0.663-0.416-1.215-0.911-1.663-1.487c-0.535,0.607-1.207,1.103-1.991,1.535
		c-0.063,0.032-0.128,0.048-0.184,0.048c-0.104,0-0.191-0.048-0.248-0.152c-0.04-0.056-0.056-0.12-0.056-0.184
		c0-0.104,0.056-0.208,0.16-0.256c0.768-0.4,1.439-0.872,1.959-1.495c-0.376-0.6-0.648-1.263-0.815-1.943
		c-0.097,0.176-0.192,0.352-0.305,0.528c-0.056,0.08-0.128,0.12-0.207,0.12c-0.072,0-0.145-0.032-0.208-0.08
		c-0.072-0.064-0.104-0.144-0.104-0.232c0-0.064,0.024-0.136,0.064-0.192c0.567-0.808,1.023-2.175,1.167-3.23
		c0.024-0.152,0.12-0.224,0.271-0.224c0.017,0,0.04,0,0.064,0.008c0.16,0.016,0.28,0.104,0.28,0.256c0,0.024,0,0.048-0.009,0.072
		c-0.071,0.344-0.159,0.72-0.271,1.104h2.367c0.151,0,0.231,0.112,0.231,0.28c0,0.16-0.08,0.28-0.231,0.28H74.123z M72.068,5.827
		c-0.072,0.192-0.145,0.384-0.225,0.576c0.177,0.76,0.448,1.503,0.855,2.175c0.296-0.487,0.521-1.023,0.656-1.583
		c0.096-0.384,0.136-0.775,0.168-1.167H72.068z"/>
	<path d="M82.539,4.508c0.168,0,0.231,0.128,0.231,0.28c0,0.16-0.063,0.295-0.231,0.295h-5.478c-0.279,0-0.376,0.096-0.376,0.352
		c0,1.087-0.023,2.343-0.111,3.262c-0.08,0.76-0.272,1.559-0.56,2.183c-0.08,0.184-0.2,0.272-0.336,0.272
		c-0.048,0-0.097-0.008-0.145-0.032c-0.136-0.056-0.199-0.144-0.199-0.264c0-0.072,0.023-0.152,0.063-0.248
		c0.28-0.56,0.488-1.312,0.568-2.127c0.088-0.943,0.079-2.127,0.079-3.167c0-0.536,0.288-0.807,0.815-0.807h2.144V3.997
		c0-0.152,0.136-0.248,0.319-0.248c0.192,0,0.313,0.096,0.313,0.248v0.512H82.539z M77.669,8.762c0-0.448,0.032-0.879,0.072-1.208
		c-0.176,0.28-0.359,0.536-0.512,0.688c-0.08,0.088-0.16,0.136-0.239,0.136c-0.072,0-0.137-0.04-0.192-0.112
		c-0.056-0.056-0.08-0.128-0.08-0.2c0-0.088,0.04-0.184,0.128-0.271c0.56-0.568,1.128-1.423,1.455-2.303
		c0.04-0.104,0.128-0.16,0.248-0.16c0.04,0,0.088,0.008,0.136,0.024C78.82,5.388,78.9,5.483,78.9,5.595
		c0,0.04-0.008,0.072-0.023,0.112c-0.16,0.392-0.368,0.775-0.592,1.135v4.174c0,0.152-0.12,0.232-0.312,0.232
		c-0.177,0-0.305-0.08-0.305-0.232V8.762z M81.787,10.353c0,0.552-0.304,0.768-0.88,0.768c-0.335,0-0.64-0.024-0.863-0.08
		c-0.136-0.024-0.231-0.12-0.231-0.272c0-0.032,0-0.056,0.008-0.088c0.032-0.16,0.136-0.232,0.264-0.232c0.016,0,0.04,0,0.064,0.008
		c0.159,0.048,0.439,0.08,0.68,0.08c0.271,0,0.359-0.072,0.359-0.336V7.106h-2.255c-0.151,0-0.224-0.112-0.224-0.28
		s0.072-0.271,0.224-0.271h2.255V5.627c0-0.16,0.12-0.24,0.304-0.24c0.176,0,0.296,0.08,0.296,0.24v0.928h0.84
		c0.144,0,0.224,0.104,0.224,0.271c0,0.16-0.08,0.28-0.224,0.28h-0.84V10.353z M79.356,7.65c0.072,0,0.144,0.032,0.208,0.096
		c0.336,0.32,0.672,0.76,0.943,1.167c0.032,0.056,0.048,0.104,0.048,0.152c0,0.096-0.056,0.192-0.151,0.256
		c-0.057,0.048-0.12,0.064-0.185,0.064c-0.096,0-0.184-0.048-0.231-0.128c-0.24-0.392-0.584-0.823-0.896-1.151
		c-0.048-0.048-0.064-0.096-0.064-0.152c0-0.08,0.048-0.16,0.128-0.224C79.229,7.674,79.293,7.65,79.356,7.65z"/>
	<path d="M85.67,4.3c0.023-0.208,0.144-0.28,0.304-0.28c0.023,0,0.048,0,0.071,0.008c0.185,0.016,0.288,0.112,0.288,0.272
		c0,0.024,0,0.048-0.008,0.072c-0.063,0.456-0.16,0.928-0.264,1.367c0.231-0.008,0.424-0.016,0.615-0.016
		c1.096,0,1.575,0.56,1.575,1.807c0,0.768-0.111,1.559-0.279,2.135c-0.225,0.784-0.68,1.072-1.319,1.072
		c-0.384,0-0.832-0.104-1.159-0.288c-0.112-0.064-0.177-0.176-0.177-0.296c0-0.056,0.009-0.112,0.04-0.16
		c0.048-0.112,0.145-0.176,0.256-0.176c0.064,0,0.137,0.016,0.208,0.056c0.232,0.112,0.552,0.2,0.848,0.2
		c0.336,0,0.544-0.144,0.688-0.655c0.128-0.448,0.232-1.208,0.232-1.919c0-0.888-0.232-1.184-0.983-1.184
		c-0.272,0-0.488,0.016-0.688,0.032c-0.128,0.464-0.271,0.936-0.432,1.399c-0.376,1.08-0.808,2.047-1.295,2.838
		c-0.08,0.144-0.192,0.2-0.304,0.2c-0.057,0-0.12-0.016-0.176-0.056c-0.112-0.064-0.176-0.168-0.176-0.28
		c0-0.064,0.016-0.136,0.063-0.208c0.479-0.768,0.911-1.679,1.271-2.694c0.128-0.376,0.264-0.76,0.368-1.151
		c-0.408,0.032-0.976,0.112-1.432,0.176c-0.024,0.008-0.048,0.008-0.072,0.008c-0.136,0-0.248-0.088-0.271-0.256
		c-0.008-0.016-0.008-0.04-0.008-0.064c0-0.152,0.104-0.272,0.271-0.296c0.479-0.072,1.144-0.152,1.663-0.192
		C85.51,5.284,85.598,4.788,85.67,4.3z M90.531,8.274c0,0.144-0.072,0.248-0.2,0.288c-0.048,0.024-0.104,0.032-0.152,0.032
		c-0.136,0-0.247-0.08-0.304-0.248c-0.296-0.904-0.848-2.063-1.479-2.847c-0.04-0.048-0.057-0.104-0.057-0.16
		c0-0.104,0.064-0.216,0.176-0.271c0.057-0.032,0.112-0.048,0.168-0.048c0.112,0,0.216,0.056,0.288,0.144
		c0.624,0.776,1.247,2.007,1.535,2.966C90.522,8.178,90.531,8.234,90.531,8.274z"/>
	<path d="M92.31,8.05c0.696-0.64,1.647-1.087,2.839-1.087c1.367,0,2.207,0.768,2.207,1.815c0,1.271-1.136,2.063-3.079,2.063
		c-0.663,0-1.359-0.088-1.807-0.231c-0.152-0.048-0.256-0.16-0.256-0.328c0-0.032,0-0.064,0.008-0.096
		c0.048-0.16,0.16-0.24,0.296-0.24c0.04,0,0.072,0.008,0.112,0.016c0.415,0.12,1.071,0.208,1.639,0.208
		c1.472,0,2.398-0.543,2.398-1.431c0-0.608-0.535-1.159-1.551-1.159c-1.104,0-2.015,0.399-2.694,1.095
		c-0.145,0.144-0.264,0.216-0.408,0.216c-0.04,0-0.08-0.008-0.12-0.016c-0.184-0.032-0.287-0.152-0.287-0.384
		c0-0.024,0-0.064,0.008-0.096c0.088-0.832,0.256-1.711,0.439-2.487c0.032-0.168,0.145-0.272,0.304-0.272
		c0.024,0,0.048,0,0.072,0.008c0.168,0.024,0.271,0.12,0.271,0.272c0,0.032,0,0.063-0.008,0.096
		c-0.144,0.607-0.279,1.247-0.312,1.503c-0.024,0.184-0.056,0.336-0.112,0.512L92.31,8.05z M96.1,4.7
		c0.176,0.016,0.32,0.16,0.32,0.328c0,0.016,0,0.024,0,0.04c-0.024,0.192-0.168,0.312-0.36,0.312c-0.008,0-0.023,0-0.032,0
		c-0.983-0.064-2.294-0.288-3.198-0.527c-0.151-0.04-0.231-0.168-0.231-0.304c0-0.04,0.008-0.072,0.016-0.112
		c0.04-0.152,0.16-0.248,0.296-0.248c0.032,0,0.057,0,0.088,0.008C93.829,4.428,95.124,4.62,96.1,4.7z"/>
	<path d="M103.691,6.763c0.416,0,0.647,0.208,0.647,0.504c0,0.128-0.048,0.272-0.144,0.432c-0.392,0.648-0.951,1.239-1.623,1.751
		c0.808,0.504,1.759,0.855,2.75,1.047c0.168,0.032,0.256,0.136,0.256,0.288c0,0.04-0.008,0.08-0.016,0.12
		c-0.04,0.184-0.16,0.28-0.319,0.28c-0.04,0-0.072-0.008-0.112-0.016c-1.096-0.232-2.175-0.688-3.086-1.343
		c-0.952,0.616-2.056,1.08-3.207,1.335c-0.039,0.008-0.079,0.008-0.111,0.008c-0.16,0-0.288-0.08-0.328-0.248
		c-0.008-0.04-0.016-0.072-0.016-0.104c0-0.16,0.096-0.28,0.264-0.312c1.016-0.208,2.007-0.584,2.87-1.087
		c-0.439-0.384-0.839-0.824-1.167-1.312c-0.168-0.248-0.296-0.512-0.424-0.783h-0.808c-0.144,0-0.224-0.112-0.224-0.28
		s0.08-0.28,0.224-0.28h2.463V5.58h-2.935c-0.144,0-0.24-0.12-0.24-0.296s0.097-0.296,0.24-0.296h2.935V4.036
		c0-0.144,0.111-0.24,0.304-0.24c0.2,0,0.304,0.096,0.304,0.24v0.952h3.095c0.151,0,0.239,0.12,0.239,0.296
		s-0.088,0.296-0.239,0.296h-3.095v1.183H103.691z M100.59,7.323c0.327,0.703,0.847,1.279,1.446,1.759
		c0.624-0.44,1.151-0.959,1.52-1.535c0.032-0.056,0.048-0.096,0.048-0.128c0-0.064-0.056-0.096-0.176-0.096H100.59z"/>
	<path d="M107.118,8.554c0,0.008,0,0.008,0,0.016c-0.04,0.632-0.16,1.407-0.344,1.983c-0.032,0.104-0.152,0.176-0.271,0.176
		c-0.04,0-0.072-0.008-0.104-0.016c-0.111-0.04-0.2-0.136-0.2-0.24c0-0.024,0.009-0.056,0.017-0.08
		c0.191-0.504,0.319-1.264,0.359-1.879c0.008-0.112,0.12-0.184,0.24-0.184c0.016,0,0.023,0,0.04,0
		C106.998,8.346,107.118,8.418,107.118,8.554z M107.534,7.794c-0.36,0.032-0.72,0.056-1.063,0.064c-0.008,0-0.017,0-0.017,0
		c-0.144,0-0.239-0.088-0.247-0.264c0-0.176,0.088-0.271,0.247-0.271c0.04,0,0.089,0,0.128,0c0.104,0,0.208,0,0.32,0
		c0.112-0.144,0.216-0.296,0.319-0.448c0.04-0.056,0.08-0.12,0.12-0.176c-0.304-0.432-0.72-0.936-1.031-1.263
		c-0.048-0.056-0.072-0.12-0.072-0.184c0-0.072,0.032-0.136,0.088-0.2c0.057-0.056,0.128-0.088,0.192-0.088
		c0.056,0,0.12,0.024,0.16,0.064c0.063,0.064,0.128,0.128,0.191,0.2c0.272-0.432,0.504-0.927,0.672-1.311
		c0.04-0.096,0.12-0.136,0.216-0.136c0.04,0,0.088,0.008,0.144,0.032c0.104,0.04,0.177,0.128,0.177,0.232
		c0,0.032-0.009,0.072-0.024,0.112c-0.208,0.44-0.496,0.983-0.832,1.487c0.152,0.192,0.296,0.384,0.433,0.583
		c0.319-0.504,0.615-1.007,0.839-1.431c0.04-0.096,0.12-0.144,0.216-0.144c0.048,0,0.097,0.016,0.145,0.04
		c0.104,0.048,0.176,0.144,0.176,0.24c0,0.04-0.008,0.08-0.032,0.12c-0.399,0.704-0.999,1.599-1.479,2.239
		c0.393-0.024,0.784-0.064,1.176-0.12c-0.08-0.176-0.168-0.344-0.256-0.512c-0.024-0.048-0.032-0.088-0.032-0.128
		c0-0.08,0.048-0.144,0.136-0.192c0.049-0.024,0.088-0.032,0.128-0.032c0.072,0,0.137,0.04,0.185,0.12
		c0.208,0.359,0.447,0.839,0.583,1.255c0.009,0.032,0.017,0.056,0.017,0.088c0,0.088-0.064,0.16-0.168,0.208
		c-0.04,0.016-0.08,0.024-0.12,0.024c-0.088,0-0.16-0.048-0.192-0.136c-0.023-0.08-0.056-0.152-0.079-0.232
		c-0.225,0.032-0.44,0.064-0.656,0.088c-0.048,0-0.088,0.008-0.128,0.016v3.278c0,0.136-0.111,0.208-0.287,0.208
		c-0.168,0-0.288-0.072-0.288-0.208V7.794z M108.709,8.258c0.097,0,0.168,0.048,0.208,0.152c0.16,0.448,0.312,1.072,0.384,1.535
		c0,0.016,0,0.032,0,0.04c0,0.128-0.096,0.224-0.224,0.24c-0.024,0.008-0.04,0.008-0.064,0.008c-0.111,0-0.199-0.064-0.224-0.208
		c-0.08-0.488-0.199-1.031-0.344-1.487c-0.008-0.024-0.008-0.04-0.008-0.063c0-0.088,0.072-0.168,0.184-0.2
		C108.653,8.266,108.686,8.258,108.709,8.258z M111.739,4.068c0.448,0.768,1.16,1.479,1.936,1.967
		c0.08,0.064,0.128,0.16,0.128,0.256c0,0.072-0.024,0.144-0.064,0.2c-0.071,0.104-0.151,0.144-0.239,0.144
		c-0.064,0-0.128-0.024-0.192-0.072c-0.768-0.528-1.52-1.303-1.919-2.007c-0.032-0.048-0.063-0.072-0.096-0.072
		s-0.064,0.024-0.088,0.08c-0.376,0.712-1.008,1.471-1.655,1.967c-0.064,0.048-0.136,0.072-0.2,0.072
		c-0.08,0-0.159-0.04-0.224-0.128c-0.056-0.072-0.08-0.144-0.08-0.208c0-0.088,0.04-0.168,0.128-0.224
		c0.656-0.472,1.231-1.144,1.68-1.983c0.079-0.152,0.256-0.231,0.432-0.231C111.468,3.829,111.644,3.9,111.739,4.068z M112.483,7.73
		c0.464,0,0.703,0.192,0.703,0.664v1.943c0,0.472-0.239,0.664-0.703,0.664h-2.143c-0.472,0-0.712-0.192-0.712-0.664V8.394
		c0-0.472,0.24-0.664,0.712-0.664H112.483z M112.539,6.283c0.152,0,0.248,0.128,0.248,0.288c0,0.16-0.096,0.296-0.248,0.296h-2.287
		c-0.151,0-0.239-0.128-0.239-0.296c0-0.16,0.088-0.288,0.239-0.288H112.539z M112.348,10.449c0.159,0,0.247-0.048,0.247-0.216V8.49
		c0-0.168-0.088-0.216-0.247-0.216h-1.888c-0.151,0-0.239,0.048-0.239,0.216v1.751c0,0.16,0.088,0.208,0.239,0.208H112.348z"/>
</g>
<g>
	<path d="M37.438,19.122c0,0.04-0.008,0.096-0.032,0.144c-0.248,0.567-0.6,1.175-0.976,1.655c-0.079,0.096-0.168,0.144-0.264,0.144
		c-0.063,0-0.136-0.024-0.2-0.064c-0.079-0.056-0.127-0.136-0.127-0.224c0-0.064,0.023-0.136,0.079-0.2
		c0.376-0.464,0.72-1.023,0.96-1.559c0.063-0.128,0.151-0.184,0.248-0.184c0.048,0,0.088,0.008,0.136,0.032
		C37.375,18.921,37.438,19.01,37.438,19.122z M38.534,15.196c0,0.16-0.088,0.232-0.288,0.232c-0.176,0-0.288-0.072-0.288-0.232
		V14.86h-1.879c-0.136,0-0.216-0.096-0.216-0.256s0.08-0.256,0.216-0.256h1.879v-0.344c0-0.16,0.112-0.24,0.288-0.24
		c0.2,0,0.288,0.08,0.288,0.24v0.344h1.879v-0.344c0-0.16,0.104-0.24,0.288-0.24c0.199,0,0.287,0.08,0.287,0.24v0.344h1.959
		c0.136,0,0.216,0.096,0.216,0.256s-0.08,0.256-0.216,0.256h-1.959v0.272c0,0.16-0.088,0.232-0.287,0.232
		c-0.185,0-0.288-0.072-0.288-0.232V14.86h-1.879V15.196z M37.23,17.618c0.072,0.064,0.112,0.136,0.112,0.216
		c0,0.063-0.024,0.128-0.072,0.191c-0.063,0.072-0.136,0.112-0.224,0.112c-0.072,0-0.145-0.032-0.216-0.096
		c-0.224-0.2-0.576-0.456-0.832-0.607c-0.088-0.048-0.128-0.128-0.128-0.208c0-0.056,0.024-0.112,0.064-0.168
		c0.063-0.08,0.144-0.12,0.224-0.12c0.048,0,0.104,0.016,0.152,0.04C36.623,17.139,37.007,17.411,37.23,17.618z M37.542,16.107
		c0.072,0.072,0.104,0.144,0.104,0.216c0,0.056-0.024,0.12-0.08,0.184s-0.128,0.104-0.208,0.104c-0.063,0-0.136-0.032-0.2-0.088
		c-0.239-0.232-0.56-0.488-0.815-0.664c-0.088-0.064-0.136-0.136-0.136-0.216c0-0.056,0.024-0.112,0.072-0.176
		c0.056-0.072,0.128-0.104,0.208-0.104c0.063,0,0.136,0.024,0.208,0.064C36.99,15.604,37.335,15.891,37.542,16.107z M42.915,16.947
		c0.137,0,0.2,0.088,0.2,0.232c0,0.128-0.063,0.232-0.2,0.232h-1.887c0.584,0.512,1.271,0.832,2.063,1.095
		c0.144,0.048,0.199,0.144,0.199,0.24c0,0.04-0.008,0.08-0.016,0.112c-0.056,0.144-0.136,0.208-0.248,0.208
		c-0.032,0-0.072-0.008-0.112-0.024c-0.167-0.048-0.384-0.168-0.6-0.288c0.097,0.096,0.145,0.216,0.145,0.368v1.335
		c0,0.44-0.2,0.608-0.647,0.608h-3.055c-0.448,0-0.647-0.168-0.647-0.608v-1.343c0-0.128,0.048-0.24,0.12-0.328
		c-0.128,0.064-0.272,0.136-0.384,0.184c-0.049,0.016-0.097,0.024-0.137,0.024c-0.104,0-0.191-0.056-0.247-0.168
		c-0.017-0.04-0.024-0.08-0.024-0.12c0-0.104,0.063-0.2,0.192-0.24c0.671-0.208,1.351-0.568,1.91-1.055h-1.774
		c-0.136,0-0.2-0.104-0.2-0.232c0-0.144,0.064-0.232,0.2-0.232h1.047c-0.071-0.128-0.136-0.232-0.208-0.328
		c-0.031-0.048-0.048-0.096-0.048-0.136c0-0.08,0.048-0.144,0.145-0.184c0.04-0.008,0.079-0.016,0.119-0.016
		c0.097,0,0.177,0.048,0.24,0.128c0.112,0.152,0.224,0.352,0.296,0.536h0.655v-0.808c-0.631,0.048-1.255,0.072-1.847,0.072
		c-0.16,0-0.231-0.088-0.24-0.248c0-0.008,0-0.016,0-0.024c0-0.152,0.088-0.224,0.24-0.224c1.319,0,2.814-0.08,4.07-0.424
		c0.031-0.008,0.056-0.016,0.088-0.016c0.119,0,0.216,0.063,0.256,0.191c0.008,0.032,0.016,0.072,0.016,0.104
		c0,0.112-0.072,0.2-0.2,0.224c-0.583,0.128-1.223,0.224-1.862,0.296v0.855h0.711c0.216-0.28,0.376-0.56,0.496-0.8
		c0.056-0.104,0.136-0.144,0.224-0.144c0.04,0,0.08,0.008,0.12,0.024c0.104,0.032,0.168,0.096,0.168,0.184
		c0,0.04-0.008,0.08-0.032,0.12c-0.112,0.208-0.248,0.416-0.407,0.616H42.915z M39.989,18.906h-1.128
		c-0.136,0-0.207,0.04-0.207,0.184v0.424h1.335V18.906z M39.989,19.937h-1.335v0.488c0,0.136,0.071,0.184,0.207,0.184h1.128V19.937z
		 M41.469,18.482c0.151,0,0.304,0.016,0.432,0.048c-0.568-0.28-1.008-0.6-1.424-1.04c0.04,0.128,0.057,0.296,0.057,0.416v0.264
		c0,0.144-0.097,0.216-0.265,0.216c-0.159,0-0.256-0.072-0.256-0.224v-0.256c0-0.128,0.017-0.296,0.048-0.416
		c-0.383,0.432-0.815,0.76-1.335,1.023c0.112-0.024,0.224-0.032,0.344-0.032H41.469z M41.916,19.089
		c0-0.144-0.072-0.184-0.208-0.184h-1.199v0.607h1.407V19.089z M41.708,20.609c0.136,0,0.208-0.048,0.208-0.184v-0.488h-1.407v0.672
		H41.708z"/>
	<path d="M45.255,19.697c0,0.048-0.009,0.096-0.032,0.152c-0.168,0.4-0.472,0.888-0.76,1.208c-0.08,0.08-0.168,0.12-0.256,0.12
		c-0.072,0-0.144-0.024-0.208-0.08c-0.071-0.063-0.111-0.136-0.111-0.216c0-0.064,0.023-0.136,0.088-0.192
		c0.279-0.288,0.56-0.711,0.735-1.103c0.04-0.104,0.136-0.152,0.24-0.152c0.039,0,0.079,0.008,0.128,0.024
		C45.19,19.505,45.255,19.585,45.255,19.697z M44.287,14.684c0-0.472,0.216-0.648,0.688-0.648h1.216
		c0.464,0,0.688,0.176,0.688,0.648v3.878c0,0.463-0.224,0.631-0.688,0.631h-1.216c-0.472,0-0.688-0.168-0.688-0.631V14.684z
		 M46.31,14.788c0-0.152-0.088-0.208-0.239-0.208h-0.976c-0.152,0-0.24,0.056-0.24,0.208v0.768h1.455V14.788z M46.31,16.067h-1.455
		v0.975h1.455V16.067z M44.854,17.554v0.904c0,0.152,0.088,0.2,0.24,0.2h0.976c0.151,0,0.239-0.048,0.239-0.2v-0.904H44.854z
		 M46.143,19.425c0.096,0,0.184,0.048,0.239,0.144c0.168,0.32,0.416,0.68,0.624,0.903c0.056,0.064,0.088,0.152,0.088,0.224
		c0,0.088-0.04,0.168-0.104,0.216c-0.071,0.048-0.136,0.072-0.208,0.072c-0.088,0-0.167-0.04-0.231-0.128
		c-0.224-0.288-0.496-0.711-0.655-1.055c-0.032-0.048-0.04-0.096-0.04-0.136c0-0.096,0.056-0.167,0.168-0.216
		C46.063,19.433,46.103,19.425,46.143,19.425z M47.357,16.059c-0.144,0-0.216-0.12-0.216-0.28c0-0.16,0.072-0.272,0.216-0.272h2.175
		l-0.008-1.439c0-0.152,0.12-0.232,0.296-0.232c0.191,0,0.304,0.08,0.304,0.232l0.008,1.439h0.872c0.151,0,0.224,0.112,0.224,0.272
		c0,0.16-0.072,0.28-0.224,0.28H50.14l0.032,4.246c0.008,0.56-0.24,0.744-0.823,0.744c-0.288,0-0.584-0.016-0.815-0.064
		c-0.152-0.032-0.232-0.136-0.232-0.28c0-0.024,0-0.056,0.008-0.08c0.024-0.144,0.12-0.24,0.248-0.24c0.024,0,0.048,0,0.072,0.008
		c0.216,0.048,0.479,0.072,0.647,0.072c0.224,0,0.296-0.048,0.296-0.256l-0.024-2.559c0-0.328,0.032-0.728,0.08-1.08
		c-0.464,1.144-1.327,2.271-2.303,3.022c-0.071,0.056-0.144,0.088-0.216,0.088c-0.08,0-0.16-0.048-0.231-0.136
		c-0.04-0.056-0.064-0.112-0.064-0.176c0-0.096,0.048-0.184,0.136-0.256c0.984-0.704,1.815-1.863,2.343-3.055H47.357z"/>
	<path d="M54.094,19.521c0.344-0.112,0.688-0.232,1.016-0.368c0.04-0.016,0.088-0.024,0.12-0.024c0.12,0,0.208,0.072,0.248,0.192
		c0.008,0.04,0.016,0.08,0.016,0.112c0,0.12-0.071,0.208-0.184,0.256c-1.063,0.432-2.295,0.792-3.238,0.992
		c-0.024,0.008-0.048,0.008-0.08,0.008c-0.136,0-0.231-0.08-0.264-0.24c-0.008-0.032-0.008-0.056-0.008-0.088
		c0-0.136,0.063-0.248,0.191-0.272c0.112-0.024,0.224-0.048,0.336-0.072v-3.43c0-0.152,0.128-0.248,0.304-0.248
		s0.288,0.096,0.288,0.248v3.294c0.063-0.016,0.12-0.032,0.184-0.048c0.16-0.04,0.328-0.088,0.488-0.136v-4.614h-1.367
		c-0.152,0-0.232-0.12-0.232-0.28c0-0.16,0.08-0.28,0.232-0.28h3.102c0.152,0,0.232,0.12,0.232,0.28c0,0.16-0.08,0.28-0.232,0.28
		h-1.151v1.735h0.792c0.144,0,0.231,0.112,0.231,0.288c0,0.168-0.088,0.288-0.231,0.288h-0.792V19.521z M58.508,15.827
		c-0.064,0.624-0.145,1.224-0.344,1.823c-0.168,0.52-0.416,1-0.72,1.455c0.447,0.568,0.999,1.023,1.671,1.391
		c0.104,0.056,0.168,0.176,0.168,0.304c0,0.064-0.016,0.136-0.056,0.192c-0.072,0.104-0.168,0.152-0.272,0.152
		c-0.071,0-0.151-0.024-0.224-0.072c-0.663-0.416-1.215-0.911-1.663-1.487c-0.535,0.607-1.207,1.103-1.991,1.535
		c-0.063,0.032-0.128,0.048-0.184,0.048c-0.104,0-0.191-0.048-0.248-0.152c-0.04-0.056-0.056-0.12-0.056-0.184
		c0-0.104,0.056-0.208,0.16-0.256c0.768-0.4,1.439-0.872,1.959-1.495c-0.376-0.6-0.648-1.263-0.815-1.943
		c-0.097,0.176-0.192,0.352-0.305,0.528c-0.056,0.08-0.128,0.12-0.207,0.12c-0.072,0-0.145-0.032-0.208-0.08
		c-0.072-0.064-0.104-0.144-0.104-0.232c0-0.064,0.024-0.136,0.064-0.192c0.567-0.808,1.023-2.175,1.167-3.23
		c0.024-0.152,0.12-0.224,0.271-0.224c0.017,0,0.04,0,0.064,0.008c0.16,0.016,0.28,0.104,0.28,0.256c0,0.024,0,0.048-0.009,0.072
		c-0.071,0.344-0.159,0.72-0.271,1.104h2.367c0.151,0,0.231,0.112,0.231,0.28c0,0.16-0.08,0.28-0.231,0.28H58.508z M56.453,15.827
		c-0.072,0.192-0.145,0.384-0.225,0.576c0.177,0.76,0.448,1.503,0.855,2.175c0.296-0.487,0.521-1.023,0.656-1.583
		c0.096-0.384,0.136-0.775,0.168-1.167H56.453z"/>
	<path d="M62.055,14.3c0.023-0.208,0.144-0.28,0.304-0.28c0.023,0,0.048,0,0.071,0.008c0.185,0.016,0.288,0.112,0.288,0.272
		c0,0.024,0,0.048-0.008,0.072c-0.063,0.456-0.16,0.928-0.264,1.367c0.231-0.008,0.424-0.016,0.615-0.016
		c1.096,0,1.575,0.56,1.575,1.807c0,0.768-0.111,1.559-0.279,2.135c-0.225,0.784-0.68,1.072-1.319,1.072
		c-0.384,0-0.832-0.104-1.159-0.288c-0.112-0.064-0.177-0.176-0.177-0.296c0-0.056,0.009-0.112,0.04-0.16
		c0.048-0.112,0.145-0.176,0.256-0.176c0.064,0,0.137,0.016,0.208,0.056c0.232,0.112,0.552,0.2,0.848,0.2
		c0.336,0,0.544-0.144,0.688-0.655c0.128-0.448,0.232-1.208,0.232-1.919c0-0.888-0.232-1.184-0.983-1.184
		c-0.272,0-0.488,0.016-0.688,0.032c-0.128,0.464-0.271,0.936-0.432,1.399c-0.376,1.08-0.808,2.047-1.295,2.838
		c-0.08,0.144-0.192,0.2-0.304,0.2c-0.057,0-0.12-0.016-0.176-0.056c-0.112-0.064-0.176-0.168-0.176-0.28
		c0-0.064,0.016-0.136,0.063-0.208c0.479-0.768,0.911-1.679,1.271-2.694c0.128-0.376,0.264-0.76,0.368-1.151
		c-0.408,0.032-0.976,0.112-1.432,0.176c-0.024,0.008-0.048,0.008-0.072,0.008c-0.136,0-0.248-0.088-0.271-0.256
		c-0.008-0.016-0.008-0.04-0.008-0.064c0-0.152,0.104-0.272,0.271-0.296c0.479-0.072,1.144-0.152,1.663-0.192
		C61.895,15.284,61.982,14.788,62.055,14.3z M66.916,18.274c0,0.144-0.072,0.248-0.2,0.288c-0.048,0.024-0.104,0.032-0.152,0.032
		c-0.136,0-0.247-0.08-0.304-0.248c-0.296-0.904-0.848-2.063-1.479-2.847c-0.04-0.048-0.057-0.104-0.057-0.16
		c0-0.104,0.064-0.216,0.176-0.271c0.057-0.032,0.112-0.048,0.168-0.048c0.112,0,0.216,0.056,0.288,0.144
		c0.624,0.776,1.247,2.007,1.535,2.966C66.907,18.178,66.916,18.234,66.916,18.274z"/>
	<path d="M68.694,18.05c0.696-0.64,1.647-1.087,2.839-1.087c1.367,0,2.207,0.768,2.207,1.815c0,1.271-1.136,2.063-3.079,2.063
		c-0.663,0-1.359-0.088-1.807-0.231c-0.152-0.048-0.256-0.16-0.256-0.328c0-0.032,0-0.064,0.008-0.096
		c0.048-0.16,0.16-0.24,0.296-0.24c0.04,0,0.072,0.008,0.112,0.016c0.415,0.12,1.071,0.208,1.639,0.208
		c1.472,0,2.398-0.543,2.398-1.431c0-0.608-0.535-1.159-1.551-1.159c-1.104,0-2.015,0.399-2.694,1.095
		c-0.145,0.144-0.264,0.216-0.408,0.216c-0.04,0-0.08-0.008-0.12-0.016c-0.184-0.032-0.287-0.152-0.287-0.384
		c0-0.024,0-0.064,0.008-0.096c0.088-0.832,0.256-1.711,0.439-2.487c0.032-0.168,0.145-0.272,0.304-0.272
		c0.024,0,0.048,0,0.072,0.008c0.168,0.024,0.271,0.12,0.271,0.272c0,0.032,0,0.063-0.008,0.096
		c-0.144,0.607-0.279,1.247-0.312,1.503c-0.024,0.184-0.056,0.336-0.112,0.512L68.694,18.05z M72.484,14.7
		c0.176,0.016,0.32,0.16,0.32,0.328c0,0.016,0,0.024,0,0.04c-0.024,0.192-0.168,0.312-0.36,0.312c-0.008,0-0.023,0-0.032,0
		c-0.983-0.064-2.294-0.288-3.198-0.527c-0.151-0.04-0.231-0.168-0.231-0.304c0-0.04,0.008-0.072,0.016-0.112
		c0.04-0.152,0.16-0.248,0.296-0.248c0.032,0,0.057,0,0.088,0.008C70.214,14.428,71.509,14.62,72.484,14.7z"/>
	<path d="M78.038,18.378c-0.28,0.824-0.512,1.183-0.792,1.447c-0.256,0.248-0.592,0.352-0.919,0.352
		c-0.832,0-1.495-0.807-1.495-2.151c0-1.991,1.391-3.43,3.573-3.43c1.888,0,3.135,1.231,3.135,2.99c0,1.127-0.487,1.983-1.319,2.511
		c-0.464,0.296-1.039,0.479-1.679,0.576c-0.032,0.008-0.064,0.008-0.088,0.008c-0.168,0-0.305-0.08-0.336-0.28
		c-0.009-0.024-0.009-0.056-0.009-0.08c0-0.16,0.104-0.28,0.288-0.312c0.584-0.08,1.199-0.28,1.6-0.576
		c0.504-0.375,0.871-1.023,0.871-1.863c0-1.351-0.888-2.334-2.303-2.383C78.494,16.403,78.317,17.522,78.038,18.378z M75.479,18.018
		c0,0.959,0.407,1.463,0.831,1.463c0.185,0,0.368-0.064,0.536-0.232c0.176-0.168,0.359-0.512,0.552-1.096
		c0.248-0.751,0.447-1.847,0.504-2.942C76.438,15.348,75.479,16.467,75.479,18.018z"/>
	<path d="M84.518,14.084c0-0.152,0.12-0.24,0.304-0.24c0.192,0,0.304,0.088,0.304,0.24v6.892c0,0.152-0.111,0.24-0.304,0.24
		c-0.184,0-0.304-0.088-0.304-0.24v-1.983c-0.6,0.256-1.312,0.528-1.871,0.688c-0.04,0.008-0.08,0.016-0.112,0.016
		c-0.119,0-0.216-0.072-0.256-0.208c-0.016-0.048-0.023-0.096-0.023-0.144c0-0.12,0.063-0.2,0.184-0.231
		c0.12-0.032,0.256-0.072,0.392-0.112V14.82c0-0.152,0.128-0.232,0.305-0.232c0.184,0,0.304,0.08,0.304,0.232v3.99
		c0.367-0.128,0.728-0.256,1.079-0.416V14.084z M85.661,14.86c-0.152,0-0.24-0.12-0.24-0.288c0-0.167,0.088-0.295,0.24-0.295h3.014
		c0.44,0,0.696,0.208,0.696,0.624c0,0.056-0.008,0.112-0.017,0.176c-0.224,1.439-0.68,2.743-1.415,3.854
		c0.456,0.6,1.031,1.127,1.719,1.575c0.089,0.056,0.137,0.152,0.137,0.264c0,0.072-0.024,0.144-0.064,0.208
		c-0.063,0.104-0.16,0.152-0.264,0.152c-0.072,0-0.144-0.024-0.208-0.064c-0.672-0.448-1.239-0.983-1.703-1.599
		c-0.487,0.616-1.063,1.159-1.751,1.623c-0.063,0.04-0.136,0.064-0.208,0.064c-0.096,0-0.191-0.04-0.256-0.144
		c-0.048-0.064-0.063-0.128-0.063-0.192c0-0.104,0.056-0.208,0.16-0.271c0.703-0.464,1.279-1.008,1.742-1.607
		c-0.768-1.239-1.151-2.638-1.263-4.078H85.661z M86.509,14.86c0.071,0.68,0.159,1.335,0.367,1.991
		c0.168,0.528,0.4,1.056,0.688,1.527c0.608-0.976,0.976-2.079,1.151-3.246c0.009-0.032,0.009-0.056,0.009-0.08
		c0-0.136-0.08-0.192-0.248-0.192H86.509z"/>
	<path d="M92.086,14.836c-0.136,0-0.24-0.136-0.24-0.312c0-0.16,0.104-0.304,0.24-0.304h1.583c0.487,0,0.72,0.184,0.728,0.664
		c0.016,1.056,0.304,2.007,0.832,2.982c0.52,0.952,1.438,1.887,2.326,2.431c0.096,0.064,0.152,0.168,0.152,0.28
		c0,0.072-0.024,0.152-0.072,0.224c-0.08,0.104-0.184,0.16-0.296,0.16c-0.072,0-0.152-0.024-0.224-0.072
		c-1.439-0.968-2.615-2.447-3.03-4.422c-0.464,1.983-1.647,3.51-3.079,4.438c-0.088,0.056-0.167,0.08-0.239,0.08
		c-0.12,0-0.216-0.056-0.296-0.168c-0.048-0.072-0.072-0.144-0.072-0.216c0-0.104,0.064-0.208,0.176-0.28
		c0.92-0.576,1.775-1.439,2.312-2.438c0.512-0.959,0.823-1.959,0.839-2.823c0-0.184-0.063-0.224-0.248-0.224H92.086z"/>
	<path d="M99.134,19.529c-0.08,0.136-0.184,0.208-0.296,0.208c-0.071,0-0.144-0.024-0.224-0.072
		c-0.104-0.064-0.151-0.16-0.151-0.264c0-0.072,0.023-0.16,0.071-0.24c0.552-0.936,1.088-2.079,1.415-3.158
		c-0.296,0.016-0.607,0.024-0.919,0.024c-0.096,0-0.2,0-0.304,0c-0.185,0-0.28-0.12-0.28-0.312s0.112-0.312,0.296-0.312
		c0.112,0,0.224,0,0.344,0c0.344,0,0.704-0.008,1.048-0.024c0.111-0.392,0.208-0.792,0.287-1.199
		c0.017-0.176,0.137-0.264,0.296-0.264c0.024,0,0.049,0,0.08,0.008c0.176,0.032,0.28,0.12,0.28,0.28c0,0.032,0,0.064-0.008,0.104
		c-0.072,0.328-0.152,0.672-0.24,1.016c0.392-0.032,0.768-0.064,1.104-0.112c0.023-0.008,0.048-0.008,0.072-0.008
		c0.159,0,0.256,0.096,0.287,0.264c0,0.016,0,0.032,0,0.048c0,0.152-0.096,0.272-0.287,0.304c-0.416,0.064-0.888,0.104-1.368,0.144
		C100.254,17.219,99.733,18.482,99.134,19.529z M105.187,19.713c0.08,0.08,0.12,0.176,0.12,0.264c0,0.08-0.032,0.16-0.088,0.224
		c-0.072,0.072-0.152,0.112-0.232,0.112c-0.079,0-0.167-0.04-0.239-0.104c-0.312-0.312-0.704-0.64-1.04-0.832
		c0.017,0.096,0.017,0.2,0.017,0.272c-0.04,0.872-0.6,1.279-1.688,1.279c-0.999,0-1.663-0.528-1.663-1.279
		c0-0.768,0.68-1.319,1.672-1.319c0.335,0,0.663,0.048,0.991,0.136c-0.048-0.448-0.088-1.08-0.088-1.599
		c0-0.232,0.136-0.328,0.312-0.328c0.191,0,0.328,0.104,0.328,0.328c0,0.688,0.031,1.248,0.096,1.815
		C104.219,18.938,104.787,19.313,105.187,19.713z M102.061,18.897c-0.647,0-1.056,0.304-1.056,0.744c0,0.44,0.392,0.688,1.048,0.688
		c0.68,0,1.047-0.256,1.047-0.823c0-0.128,0-0.24-0.016-0.4C102.764,18.961,102.404,18.897,102.061,18.897z M105.075,15.963
		c0.111,0.072,0.159,0.192,0.159,0.296c0,0.064-0.016,0.128-0.048,0.184c-0.063,0.096-0.168,0.152-0.271,0.152
		c-0.072,0-0.136-0.024-0.2-0.064c-0.472-0.328-1.071-0.64-1.671-0.879c-0.104-0.04-0.152-0.136-0.152-0.24
		c0-0.064,0.017-0.128,0.048-0.184c0.072-0.112,0.177-0.168,0.296-0.168c0.049,0,0.097,0.008,0.145,0.024
		C103.987,15.315,104.627,15.66,105.075,15.963z"/>
	<path d="M107.687,14.484c0,0.008,0,0.016,0,0.024c-0.04,1.175-0.104,2.59-0.104,3.87c0,0.751,0.096,1.167,0.352,1.415
		c0.265,0.248,0.664,0.336,1.216,0.336c0.615,0,1.239-0.2,1.711-0.688c0.36-0.368,0.655-0.928,0.848-1.591
		c0.056-0.184,0.168-0.271,0.304-0.271c0.04,0,0.088,0.008,0.128,0.024c0.144,0.04,0.248,0.167,0.248,0.328
		c0,0.04-0.008,0.088-0.024,0.136c-0.248,0.808-0.583,1.456-1.063,1.919c-0.591,0.576-1.343,0.848-2.166,0.848
		c-0.752,0-1.312-0.176-1.703-0.552c-0.368-0.36-0.536-0.879-0.536-1.895c0-1.239,0.04-2.718,0.096-3.894
		c0.008-0.208,0.137-0.336,0.344-0.336c0,0,0.009,0,0.017,0C107.574,14.164,107.687,14.284,107.687,14.484z"/>
</g>
<g>
	<g>
		<line fill="none" stroke="#000000" stroke-miterlimit="10" x1="100.186" y1="90.93" x2="108.185" y2="90.93"/>
		<g>
			<polygon points="104.872,95.02 104.189,94.287 107.802,90.932 104.189,87.574 104.872,86.842 109.27,90.932 			"/>
		</g>
	</g>
</g>
<g>
	<path d="M97.837,100.146c0-0.32,0.024-0.68,0.08-1.023c-0.136,0.279-0.296,0.56-0.479,0.799c-0.064,0.08-0.16,0.129-0.248,0.129
		c-0.064,0-0.12-0.024-0.184-0.072c-0.08-0.064-0.12-0.152-0.12-0.24c0-0.064,0.023-0.128,0.063-0.184
		c0.647-0.8,1.224-2.007,1.512-3.15c0.04-0.152,0.144-0.216,0.271-0.216c0.032,0,0.064,0.008,0.104,0.016
		c0.127,0.032,0.231,0.112,0.231,0.24c0,0.016,0,0.04-0.008,0.071c-0.152,0.576-0.36,1.152-0.616,1.703v5.189
		c0,0.152-0.119,0.232-0.304,0.232c-0.184,0-0.304-0.08-0.304-0.232V100.146z M99.372,97.42c-0.144,0-0.216-0.112-0.216-0.248
		c0-0.152,0.072-0.256,0.216-0.256h1.743c0.032-0.168,0.063-0.336,0.088-0.512c0.024-0.136,0.112-0.225,0.288-0.225
		c0.016,0,0.023,0,0.04,0c0.176,0.017,0.279,0.113,0.279,0.24c0,0.016,0,0.04-0.008,0.057c-0.024,0.151-0.056,0.295-0.088,0.439
		h2.366c0.145,0,0.225,0.104,0.225,0.256c0,0.136-0.08,0.248-0.225,0.248h-2.494c-0.056,0.207-0.12,0.408-0.191,0.607h2.454
		c0.128,0,0.2,0.088,0.2,0.224c0,0.128-0.072,0.24-0.2,0.24h-1.431c0.096,0.224,0.207,0.448,0.335,0.655h1.504
		c0.136,0,0.216,0.104,0.216,0.256c0,0.137-0.08,0.248-0.216,0.248h-1.136c0.359,0.416,0.792,0.744,1.312,1.031
		c0.088,0.057,0.136,0.145,0.136,0.248c0,0.064-0.016,0.128-0.056,0.191c-0.064,0.088-0.145,0.137-0.232,0.137
		c-0.063,0-0.128-0.024-0.191-0.064c-0.576-0.384-1.144-0.903-1.6-1.543h-1.902c-0.393,0.592-0.872,1.144-1.432,1.592
		c-0.072,0.055-0.152,0.088-0.231,0.088c-0.08,0-0.16-0.041-0.217-0.112c-0.048-0.056-0.071-0.128-0.071-0.192
		c0-0.088,0.04-0.168,0.128-0.231c0.504-0.36,0.871-0.728,1.175-1.144H98.98c-0.144,0-0.216-0.111-0.216-0.248
		c0-0.152,0.072-0.256,0.216-0.256h1.287c0.048-0.08,0.096-0.16,0.136-0.248c0.072-0.136,0.145-0.271,0.208-0.407h-1.144
		c-0.136,0-0.199-0.112-0.199-0.24c0-0.136,0.063-0.224,0.199-0.224h1.327c0.072-0.199,0.145-0.4,0.2-0.607H99.372z M99.324,102.266
		c-0.136,0-0.216-0.121-0.216-0.265s0.08-0.256,0.216-0.256h1.911v-0.695h-1.063c-0.136,0-0.216-0.104-0.216-0.248
		s0.08-0.248,0.216-0.248h1.063v-0.447c0-0.144,0.111-0.216,0.279-0.216c0.176,0,0.296,0.072,0.296,0.216v0.447h1.12
		c0.144,0,0.216,0.104,0.216,0.248s-0.072,0.248-0.216,0.248h-1.12v0.695h2.119c0.144,0,0.216,0.112,0.216,0.256
		s-0.072,0.265-0.216,0.265h-2.119v1.143c0,0.152-0.136,0.24-0.296,0.24c-0.159,0-0.279-0.088-0.279-0.24v-1.143H99.324z
		 M101.211,98.491c-0.08,0.184-0.168,0.368-0.264,0.544c-0.016,0.039-0.04,0.072-0.056,0.111h1.287
		c-0.12-0.216-0.216-0.432-0.304-0.655H101.211z"/>
	<path d="M106.037,101.449c0-0.408,0.016-0.76,0.048-1.104c-0.232,0.264-0.488,0.52-0.744,0.729
		c-0.071,0.056-0.136,0.088-0.199,0.088c-0.08,0-0.152-0.049-0.225-0.137c-0.039-0.056-0.063-0.119-0.063-0.184
		c0-0.088,0.04-0.168,0.12-0.232c0.848-0.655,1.575-1.559,1.959-2.342c0.016-0.041,0.023-0.072,0.023-0.096
		c0-0.057-0.04-0.088-0.119-0.088h-1.56c-0.144,0-0.224-0.113-0.224-0.272c0-0.16,0.08-0.272,0.224-0.272h0.752v-1.127
		c0-0.144,0.119-0.224,0.304-0.224c0.184,0,0.304,0.08,0.304,0.224v1.127h0.487c0.304,0,0.504,0.168,0.504,0.44
		c0,0.096-0.023,0.208-0.08,0.327c-0.199,0.416-0.487,0.872-0.808,1.296c0.336,0.36,0.647,0.616,0.943,0.823
		c0.08,0.049,0.12,0.137,0.12,0.232c0,0.063-0.023,0.127-0.063,0.191c-0.064,0.072-0.145,0.112-0.216,0.112
		c-0.057,0-0.112-0.024-0.16-0.063c-0.248-0.201-0.496-0.433-0.752-0.736c0.024,0.4,0.032,0.752,0.032,1.08v2.166
		c0,0.145-0.128,0.225-0.304,0.225c-0.184,0-0.304-0.08-0.304-0.225V101.449z M109.627,101.682
		c-0.607,0.416-1.247,0.799-1.927,1.127c-0.048,0.023-0.096,0.032-0.136,0.032c-0.104,0-0.2-0.063-0.256-0.168
		c-0.024-0.056-0.032-0.104-0.032-0.144c0-0.104,0.048-0.192,0.16-0.24c0.719-0.296,1.486-0.72,2.19-1.207v-1.728H107.7
		c-0.136,0-0.216-0.104-0.216-0.256s0.08-0.271,0.216-0.271h3.182l0.024-0.688h-2.534c-0.129,0-0.2-0.104-0.2-0.247
		c0-0.136,0.071-0.231,0.2-0.231h2.559l0.016-0.496c0-0.008,0-0.016,0-0.024c0-0.128-0.08-0.168-0.208-0.168h-2.606
		c-0.128,0-0.2-0.112-0.2-0.256s0.072-0.264,0.2-0.264h2.782c0.384,0,0.616,0.176,0.616,0.575c0,0.017,0,0.024,0,0.041l-0.064,1.759
		h0.808c0.144,0,0.224,0.112,0.224,0.264c0,0.159-0.08,0.264-0.224,0.264h-2.095v0.224c0.16,0.432,0.367,0.832,0.6,1.191
		c0.328-0.295,0.607-0.623,0.815-0.943c0.056-0.08,0.128-0.119,0.208-0.119c0.056,0,0.12,0.016,0.168,0.055
		c0.088,0.064,0.144,0.145,0.144,0.24c0,0.049-0.016,0.104-0.056,0.152c-0.232,0.328-0.6,0.703-0.983,1.047
		c0.399,0.528,0.863,0.96,1.359,1.279c0.088,0.064,0.136,0.152,0.136,0.256c0,0.057-0.016,0.12-0.048,0.185
		c-0.064,0.104-0.16,0.151-0.256,0.151c-0.064,0-0.128-0.023-0.185-0.063c-0.871-0.6-1.614-1.575-1.958-2.575
		c0.031,0.297,0.056,0.744,0.056,1.031v1.376c0,0.552-0.288,0.759-0.815,0.759c-0.264,0-0.504-0.023-0.735-0.071
		c-0.129-0.024-0.208-0.12-0.208-0.264c0-0.024,0-0.048,0.008-0.072c0.016-0.151,0.128-0.224,0.231-0.224
		c0.017,0,0.032,0,0.048,0.008c0.168,0.048,0.4,0.08,0.592,0.08c0.248,0,0.328-0.072,0.328-0.336V101.682z M108.172,99.803
		c0.063,0,0.128,0.023,0.191,0.08c0.24,0.215,0.496,0.504,0.688,0.751c0.04,0.063,0.064,0.12,0.064,0.185
		c0,0.08-0.04,0.151-0.112,0.199c-0.063,0.04-0.119,0.064-0.176,0.064c-0.08,0-0.144-0.041-0.208-0.12
		c-0.159-0.216-0.432-0.528-0.647-0.735c-0.056-0.057-0.08-0.112-0.08-0.176c0-0.072,0.04-0.137,0.096-0.185
		C108.044,99.826,108.107,99.803,108.172,99.803z"/>
</g>
</svg>
