<?xml version="1.0" encoding="utf-8"?>
<!-- Generator: Adobe Illustrator 16.0.0, SVG Export Plug-In . SVG Version: 6.00 Build 0)  -->
<!DOCTYPE svg PUBLIC "-//W3C//DTD SVG 1.1//EN" "http://www.w3.org/Graphics/SVG/1.1/DTD/svg11.dtd">
<svg version="1.1" id="レイヤー_1" xmlns="http://www.w3.org/2000/svg" xmlns:xlink="http://www.w3.org/1999/xlink" x="0px"
	 y="0px" width="425.76px" height="182.836px" viewBox="0 0 425.76 182.836" enable-background="new 0 0 425.76 182.836"
	 xml:space="preserve">
<path fill="none" stroke="#040000" stroke-miterlimit="10" d="M23.898,150.358c-12.921,0-23.398-10.518-23.398-23.486v-67.53
	c0-12.971,10.477-23.488,23.398-23.488h170.468c12.921,0,23.398,10.517,23.398,23.488v67.528c0,12.971-10.478,23.487-23.398,23.487
	L23.898,150.358L23.898,150.358z"/>
<g>
	<path fill="#040000" d="M26.689,117.03l1.605,0.413c-0.12,0.168-0.263,0.437-0.433,0.802c-0.403,0.85-0.702,1.428-0.9,1.744
		c0.17-0.039,2.141-0.092,5.913-0.156c0.469,0,0.809-0.043,1.018-0.135l0.844,0.82c-0.106,0.141-0.235,0.461-0.392,0.958
		c-0.85,2.858-2.155,5.312-3.915,7.36c-1.75,1.998-4.021,3.631-6.812,4.894c-0.26-0.468-0.587-0.856-0.979-1.153
		c1.476-0.603,2.76-1.295,3.858-2.082c1.095-0.791,2.113-1.748,3.053-2.871c1.539-1.861,2.663-4.049,3.367-6.561l-6.597,0.12
		c-1.211,1.958-2.771,3.655-4.678,5.095c-0.262-0.393-0.626-0.734-1.095-1.021c1.982-1.293,3.62-3.077,4.913-5.363
		C26.186,118.622,26.597,117.67,26.689,117.03z"/>
	<path fill="#040000" d="M39.901,130.989v-1.646c0.56,0.078,1.318,0.119,2.271,0.119H53.27c0.951,0,1.709-0.039,2.271-0.119v1.646
		c-0.534-0.066-1.287-0.101-2.251-0.101H42.152C41.199,130.888,40.45,130.918,39.901,130.989z M41.878,121.627v-1.588
		c0.522,0.078,1.219,0.121,2.094,0.121h7.477c0.874,0,1.572-0.043,2.093-0.121v1.588c-0.523-0.049-1.214-0.076-2.075-0.076h-7.514
		C43.091,121.551,42.398,121.581,41.878,121.627z"/>
</g>
<g>
	<path fill="#040000" d="M164.937,117.03l1.604,0.413c-0.12,0.168-0.262,0.437-0.432,0.802c-0.403,0.85-0.703,1.428-0.9,1.744
		c0.17-0.039,2.141-0.092,5.912-0.156c0.47,0,0.809-0.043,1.019-0.135l0.845,0.82c-0.105,0.141-0.235,0.461-0.39,0.958
		c-0.851,2.858-2.156,5.312-3.915,7.36c-1.751,1.998-4.022,3.631-6.813,4.894c-0.26-0.468-0.585-0.856-0.979-1.153
		c1.478-0.603,2.76-1.295,3.859-2.082c1.095-0.791,2.114-1.748,3.053-2.871c1.541-1.861,2.663-4.049,3.37-6.561l-6.596,0.12
		c-1.212,1.958-2.771,3.655-4.679,5.095c-0.264-0.393-0.625-0.734-1.097-1.021c1.984-1.293,3.62-3.077,4.912-5.363
		C164.432,118.622,164.843,117.67,164.937,117.03z"/>
	<path fill="#040000" d="M178.149,130.989v-1.646c0.558,0.078,1.315,0.119,2.269,0.119h11.1c0.95,0,1.707-0.039,2.269-0.119v1.646
		c-0.533-0.066-1.287-0.101-2.25-0.101h-11.134C179.445,130.888,178.696,130.918,178.149,130.989z M180.122,121.627v-1.588
		c0.523,0.078,1.219,0.121,2.093,0.121h7.478c0.87,0,1.571-0.043,2.089-0.121v1.588c-0.522-0.049-1.212-0.076-2.074-0.076h-7.516
		C181.337,121.551,180.645,121.581,180.122,121.627z"/>
</g>
<g>
	<path fill="#040000" d="M26.689,54.854l1.605,0.411c-0.12,0.17-0.263,0.438-0.433,0.801c-0.403,0.851-0.702,1.43-0.9,1.745
		c0.17-0.04,2.141-0.092,5.913-0.155c0.469,0,0.809-0.045,1.018-0.137l0.844,0.821c-0.106,0.142-0.235,0.463-0.392,0.96
		c-0.85,2.855-2.155,5.31-3.915,7.359c-1.75,1.999-4.021,3.629-6.812,4.893c-0.26-0.468-0.587-0.854-0.979-1.154
		c1.476-0.602,2.76-1.296,3.858-2.083c1.095-0.788,2.113-1.747,3.053-2.871c1.539-1.862,2.663-4.047,3.367-6.557l-6.597,0.12
		c-1.211,1.958-2.771,3.653-4.678,5.091c-0.262-0.39-0.626-0.73-1.095-1.021c1.982-1.291,3.62-3.078,4.913-5.362
		C26.186,56.449,26.597,55.493,26.689,54.854z"/>
	<path fill="#040000" d="M39.901,68.812v-1.646c0.56,0.078,1.318,0.121,2.271,0.121H53.27c0.951,0,1.709-0.041,2.271-0.121v1.646
		c-0.534-0.065-1.287-0.1-2.251-0.1H42.152C41.199,68.712,40.45,68.745,39.901,68.812z M41.878,59.457v-1.588
		c0.522,0.078,1.219,0.12,2.094,0.12h7.477c0.874,0,1.572-0.04,2.093-0.12v1.588c-0.523-0.053-1.214-0.08-2.075-0.08h-7.514
		C43.091,59.376,42.398,59.404,41.878,59.457z"/>
</g>
<g>
	<path fill="#040000" d="M164.937,54.854l1.604,0.411c-0.12,0.17-0.262,0.438-0.432,0.801c-0.403,0.851-0.703,1.43-0.9,1.745
		c0.17-0.04,2.141-0.092,5.912-0.155c0.47,0,0.809-0.045,1.019-0.137l0.845,0.821c-0.105,0.142-0.235,0.463-0.39,0.96
		c-0.851,2.855-2.156,5.31-3.915,7.359c-1.751,1.999-4.022,3.629-6.813,4.893c-0.26-0.468-0.585-0.854-0.979-1.154
		c1.478-0.602,2.76-1.296,3.859-2.083c1.095-0.788,2.114-1.747,3.053-2.871c1.541-1.862,2.663-4.047,3.37-6.557l-6.596,0.12
		c-1.212,1.958-2.771,3.653-4.679,5.091c-0.264-0.39-0.625-0.73-1.097-1.021c1.984-1.291,3.62-3.078,4.912-5.362
		C164.432,56.449,164.843,55.493,164.937,54.854z"/>
	<path fill="#040000" d="M178.149,68.812v-1.646c0.558,0.078,1.315,0.121,2.269,0.121h11.1c0.95,0,1.707-0.041,2.269-0.121v1.646
		c-0.533-0.065-1.287-0.1-2.25-0.1h-11.134C179.445,68.712,178.696,68.745,178.149,68.812z M180.122,59.457v-1.588
		c0.523,0.078,1.219,0.12,2.093,0.12h7.478c0.87,0,1.571-0.04,2.089-0.12v1.588c-0.522-0.053-1.212-0.08-2.074-0.08h-7.516
		C181.337,59.376,180.645,59.404,180.122,59.457z"/>
</g>
<g>
	<path fill="#040000" d="M39.45,83.786l1.927,0.493c-0.142,0.205-0.313,0.527-0.517,0.964c-0.485,1.021-0.846,1.716-1.08,2.091
		c0.204-0.046,2.568-0.111,7.094-0.189c0.563,0,0.97-0.053,1.22-0.166l1.01,0.99c-0.125,0.172-0.282,0.555-0.469,1.15
		c-1.018,3.43-2.584,6.374-4.697,8.831c-2.099,2.397-4.824,4.354-8.174,5.873c-0.313-0.564-0.705-1.025-1.175-1.385
		c1.77-0.723,3.312-1.557,4.627-2.504c1.315-0.943,2.537-2.092,3.665-3.439c1.847-2.238,3.194-4.862,4.04-7.869l-7.916,0.138
		c-1.457,2.352-3.328,4.385-5.614,6.109c-0.313-0.472-0.752-0.877-1.315-1.225c2.38-1.548,4.345-3.692,5.895-6.434
		C38.848,85.699,39.341,84.556,39.45,83.786z"/>
	<path fill="#040000" d="M52.486,100.536v-1.974c0.674,0.095,1.582,0.142,2.725,0.142h13.318c1.143,0,2.051-0.047,2.724-0.142v1.974
		c-0.641-0.078-1.542-0.119-2.701-0.119H55.187C54.043,100.417,53.144,100.458,52.486,100.536z M54.858,89.31v-1.904
		c0.627,0.094,1.464,0.138,2.514,0.138h8.972c1.049,0,1.887-0.044,2.514-0.138v1.904c-0.627-0.065-1.457-0.096-2.49-0.096h-9.02
		C56.313,89.214,55.485,89.245,54.858,89.31z"/>
	<path fill="#040000" d="M83.561,104.833h-2.09c-0.877-1.002-1.542-1.854-1.997-2.559c-0.454-0.708-0.877-1.537-1.268-2.492
		c-0.752-1.816-1.128-3.738-1.128-5.775c0-2.035,0.375-3.961,1.128-5.777c0.391-0.955,0.814-1.785,1.268-2.488
		c0.454-0.704,1.119-1.561,1.997-2.562h2.09c-0.986,1.001-1.726,1.835-2.219,2.5c-0.493,0.667-0.943,1.453-1.351,2.358
		c-0.846,1.881-1.268,3.873-1.268,5.969c0,2.098,0.422,4.088,1.268,5.967c0.407,0.91,0.857,1.695,1.351,2.359
		C81.836,102.999,82.574,103.833,83.561,104.833z"/>
	<path fill="#040000" d="M103.808,90.644h-6.929c0.798,2.979,2.075,5.499,3.829,7.565c1.675,1.941,3.795,3.467,6.365,4.58
		c-0.407,0.5-0.752,1.023-1.034,1.574c-2.63-1.396-4.72-3.003-6.271-4.828c-1.55-1.824-2.749-4.082-3.593-6.777
		c-0.643,3.447-2.17,6.258-4.581,8.436c-1.347,1.188-3.037,2.254-5.073,3.193c-0.267-0.531-0.603-1.012-1.01-1.434
		c1.457-0.593,2.658-1.209,3.605-1.842c0.948-0.632,1.805-1.389,2.573-2.265c1.754-2.022,2.841-4.755,3.265-8.198h-6.389
		c-1.081,0-1.942,0.056-2.583,0.164V88.98c0.563,0.111,1.44,0.165,2.63,0.165h6.483c0.063-1.002,0.094-1.927,0.094-2.771
		c0-0.972-0.055-1.824-0.165-2.56h1.927c-0.11,0.719-0.165,1.534-0.165,2.442c-0.016,1.11-0.055,2.074-0.117,2.889h7.116
		c1.143,0,2.013-0.054,2.607-0.165v1.833C105.687,90.702,104.825,90.644,103.808,90.644z"/>
	<path fill="#040000" d="M113.578,89.753v-3.196c-1.237,0.299-2.413,0.551-3.523,0.754c-0.079-0.425-0.297-0.868-0.658-1.339
		c2.739-0.361,5.128-0.945,7.163-1.762c0.581-0.218,1.051-0.451,1.41-0.703l1.01,1.246c-0.092,0.032-0.273,0.1-0.537,0.21
		c-1.3,0.517-2.443,0.917-3.43,1.196v3.594h1.784c0.908,0,1.59-0.038,2.042-0.118v1.552c-0.485-0.08-1.166-0.118-2.042-0.118h-1.716
		c0.237,0.596,0.565,1.215,0.986,1.854c0.814,1.24,1.762,2.313,2.844,3.221c-0.361,0.328-0.682,0.729-0.961,1.195
		c-1.317-1.396-2.334-2.937-3.057-4.625c0.048,0.845,0.088,2.176,0.12,3.992v5.025c0,1.359,0.044,2.318,0.14,2.865h-1.739
		c0.096-0.704,0.142-1.661,0.142-2.865v-4.886c0-1.144,0.038-2.435,0.118-3.873c-0.47,1.563-1.097,3.013-1.881,4.343
		c-0.562,0.973-1.276,1.936-2.137,2.893c-0.297-0.484-0.626-0.908-0.986-1.268c2.067-2.038,3.609-4.66,4.625-7.869h-1.735
		c-0.784,0-1.528,0.044-2.233,0.14v-1.597c0.658,0.094,1.401,0.14,2.233,0.14L113.578,89.753L113.578,89.753z M121.354,102.18v1.668
		h-1.598c0.078-0.754,0.119-1.659,0.119-2.727V88.064c0-0.876-0.041-1.707-0.119-2.489c0.579,0.077,1.315,0.119,2.208,0.119h5.073
		c0.956,0,1.699-0.042,2.234-0.119c-0.08,0.547-0.121,1.377-0.121,2.489v12.896c0,1.254,0.048,2.217,0.142,2.89h-1.646v-1.668
		L121.354,102.18L121.354,102.18z M121.354,87.1v13.693h6.292V87.1H121.354z"/>
	<path fill="#040000" d="M135.563,89.803v-3.524c0-1.048-0.048-1.92-0.142-2.607h1.74c-0.096,0.753-0.142,1.629-0.142,2.63v3.502
		h0.658c0.875,0,1.504-0.04,1.881-0.118v1.525c-0.52-0.062-1.151-0.096-1.904-0.096h-0.635v7.377
		c0.845-0.392,1.73-0.849,2.651-1.361l0.141,1.432c-1.77,0.986-3.79,1.941-6.061,2.866c-0.189,0.062-0.501,0.194-0.938,0.397
		l-0.399-1.619c0.673-0.113,1.722-0.461,3.146-1.058v-8.031h-0.868c-0.83,0-1.487,0.046-1.973,0.141v-1.598
		c0.438,0.094,1.097,0.142,1.973,0.142h0.872V89.803z M142.75,92.689v8.81c0,0.283,0.046,0.484,0.142,0.61
		c0.094,0.126,0.281,0.22,0.562,0.283c0.485,0.142,1.747,0.21,3.783,0.21c1.659,0,2.808-0.046,3.44-0.143
		c0.635-0.092,1.046-0.271,1.233-0.537c0.298-0.424,0.463-1.479,0.493-3.17c0.455,0.268,0.956,0.469,1.506,0.611
		c-0.048,0.813-0.1,1.438-0.153,1.865c-0.056,0.434-0.191,0.848-0.399,1.246c-0.212,0.396-0.434,0.679-0.658,0.835
		c-0.228,0.155-0.627,0.301-1.198,0.435c-0.572,0.133-1.163,0.207-1.774,0.225c-0.61,0.017-1.487,0.023-2.63,0.023
		c-1.689,0-2.928-0.061-3.712-0.176c-0.782-0.122-1.331-0.324-1.644-0.623c-0.313-0.296-0.47-0.761-0.47-1.388v-8.619l-0.516,0.165
		c-0.86,0.296-1.51,0.549-1.95,0.753l-0.424-1.597c0.658-0.063,1.342-0.219,2.045-0.471l0.845-0.283V88.07
		c0-0.926-0.046-1.723-0.14-2.399h1.761c-0.096,0.707-0.14,1.481-0.14,2.328v3.288l3.358-1.128v-4.347
		c0-0.749-0.046-1.479-0.142-2.183h1.74c-0.096,0.689-0.14,1.426-0.14,2.206v3.855l3.619-1.199c0.531-0.172,1.15-0.413,1.854-0.727
		c-0.094,2.206-0.218,4.305-0.375,6.293c-0.157,1.957-0.518,3.102-1.082,3.429c-0.39,0.222-0.956,0.329-1.69,0.329
		c-0.157,0-0.5-0.021-1.032-0.068c-0.063-0.531-0.183-1.024-0.355-1.479c0.642,0.143,1.249,0.21,1.812,0.21
		c0.266,0,0.445-0.046,0.539-0.142c0.092-0.092,0.172-0.313,0.233-0.657c0.157-0.858,0.283-2.841,0.376-5.941l-3.899,1.34v6.482
		c0,0.829,0.044,1.584,0.14,2.256h-1.74c0.096-0.657,0.142-1.419,0.142-2.278v-5.965L142.75,92.689z"/>
	<path fill="#040000" d="M165.675,87.335v-1.761c0-0.673-0.056-1.362-0.165-2.067h1.879c-0.094,0.485-0.142,1.173-0.142,2.067v1.761
		h7.188c1.127,0,2.028-0.056,2.703-0.164v1.76c-0.531-0.096-1.418-0.139-2.653-0.139h-8.901c-0.079,1.314-0.189,2.435-0.329,3.357
		h6.409c1.128,0,1.935-0.041,2.42-0.117c-0.046,0.454-0.086,1.004-0.118,1.645c-0.046,1.41-0.157,2.896-0.329,4.461
		c-0.172,1.568-0.361,2.748-0.562,3.55c-0.252,1.019-0.569,1.688-0.952,2.021c-0.382,0.328-1.045,0.494-1.984,0.494
		c-0.91,0-2-0.072-3.265-0.211c-0.063-0.613-0.191-1.168-0.376-1.668c1.315,0.25,2.498,0.371,3.546,0.371
		c0.504,0,0.853-0.119,1.047-0.363c0.197-0.242,0.378-0.795,0.55-1.658c0.344-1.721,0.589-4.094,0.729-7.114h-7.376
		c-0.468,2.409-1.212,4.416-2.232,6.012c-0.767,1.177-1.738,2.255-2.913,3.242c-0.642,0.544-1.495,1.118-2.56,1.714
		c-0.235-0.408-0.617-0.85-1.15-1.318c1.095-0.526,2.001-1.086,2.724-1.666c0.723-0.578,1.403-1.293,2.045-2.138
		c0.971-1.254,1.693-2.723,2.171-4.403c0.478-1.684,0.765-3.754,0.856-6.212H159c-1.126,0-2.005,0.046-2.63,0.138v-1.759
		c0.702,0.11,1.573,0.164,2.607,0.164h6.698V87.335L165.675,87.335z"/>
	<path fill="#040000" d="M181.389,104.833h-2.091c0.971-0.971,1.703-1.797,2.196-2.479c0.493-0.682,0.95-1.477,1.375-2.385
		c0.845-1.879,1.266-3.87,1.266-5.965c0-2.099-0.422-4.091-1.266-5.968c-0.424-0.909-0.881-1.701-1.375-2.385
		c-0.493-0.681-1.225-1.507-2.196-2.478h2.091c0.875,1.002,1.541,1.856,1.996,2.562c0.455,0.703,0.877,1.533,1.27,2.488
		c0.751,1.816,1.124,3.742,1.124,5.777c0,2.037-0.373,3.959-1.124,5.774c-0.392,0.956-0.814,1.785-1.27,2.493
		C182.929,102.973,182.264,103.833,181.389,104.833z"/>
</g>
<polyline fill="none" stroke="#000000" stroke-miterlimit="10" points="112.557,78.107 112.557,11.068 222.901,11.068 "/>
<polyline fill="none" stroke="#000000" stroke-miterlimit="10" points="112.557,150.358 112.557,173.527 222.901,173.527 "/>
<g>
	<path d="M261.392,77.506l0.029,0.656c-0.059,0.013-0.156,0.032-0.294,0.058c-0.724,0.15-1.3,0.249-1.731,0.295v1.692
		c0.783-0.235,1.482-0.353,2.105-0.353c0.704,0,1.281,0.138,1.732,0.412c0.672,0.397,1.004,0.975,1.004,1.731
		c0,0.574-0.19,1.056-0.576,1.443c-0.383,0.389-0.855,0.583-1.418,0.583c-0.387,0-0.708-0.097-0.977-0.289
		c-0.264-0.192-0.438-0.465-0.531-0.816c-0.084-0.32-0.121-0.689-0.117-1.107c0.236-0.058,0.451-0.143,0.646-0.254
		c-0.013,0.117-0.021,0.244-0.021,0.383c0,0.508,0.079,0.875,0.237,1.101c0.151,0.225,0.412,0.337,0.771,0.337
		c0.379,0,0.692-0.129,0.94-0.387c0.244-0.257,0.371-0.589,0.371-0.993c0-0.476-0.191-0.854-0.569-1.136
		c-0.38-0.279-0.888-0.42-1.525-0.42c-0.593,0-1.284,0.127-2.075,0.381v2.447c0,0.521-0.236,0.782-0.716,0.782
		c-0.271,0-0.558-0.056-0.849-0.171c-0.294-0.113-0.551-0.266-0.766-0.455c-0.302-0.261-0.451-0.567-0.451-0.92
		c0-0.431,0.261-0.864,0.772-1.301c0.349-0.288,0.808-0.556,1.38-0.803v-1.85c-0.057,0.006-0.188,0.017-0.39,0.028
		c-0.118,0.007-0.325,0.01-0.627,0.01c-0.274,0-0.447-0.003-0.521-0.01h-0.222h-0.177v-0.646c0.265,0.046,0.602,0.068,0.998,0.068
		c0.333,0,0.646-0.01,0.938-0.029v-0.968c0-0.379-0.016-0.689-0.047-0.931h0.723c-0.033,0.229-0.049,0.531-0.049,0.91v0.939
		C260.217,77.823,260.882,77.683,261.392,77.506z M258.769,82.909V81.05c-0.481,0.234-0.856,0.479-1.121,0.734
		c-0.264,0.254-0.394,0.499-0.394,0.734c0,0.208,0.138,0.403,0.421,0.587c0.299,0.188,0.59,0.283,0.871,0.283
		c0.096,0,0.157-0.027,0.184-0.083C258.757,83.25,258.769,83.118,258.769,82.909z M264.651,78.769l-0.508,0.44
		c-0.535-0.744-1.192-1.384-1.978-1.918l0.509-0.382c0.443,0.313,0.807,0.606,1.098,0.881
		C264.06,78.065,264.351,78.391,264.651,78.769z"/>
	<path d="M271.177,77.506l0.031,0.656c-0.059,0.013-0.157,0.032-0.295,0.058c-0.723,0.15-1.301,0.249-1.73,0.295v1.692
		c0.782-0.235,1.482-0.353,2.105-0.353c0.703,0,1.279,0.138,1.73,0.412c0.674,0.397,1.006,0.975,1.006,1.731
		c0,0.574-0.19,1.056-0.576,1.443c-0.383,0.389-0.856,0.583-1.42,0.583c-0.385,0-0.707-0.097-0.975-0.289
		c-0.264-0.192-0.438-0.465-0.531-0.816c-0.084-0.32-0.121-0.689-0.119-1.107c0.238-0.058,0.451-0.143,0.646-0.254
		c-0.012,0.117-0.02,0.244-0.02,0.383c0,0.508,0.08,0.875,0.236,1.101c0.153,0.225,0.414,0.337,0.772,0.337
		c0.379,0,0.692-0.129,0.94-0.387c0.244-0.257,0.371-0.589,0.371-0.993c0-0.476-0.191-0.854-0.57-1.136
		c-0.379-0.279-0.887-0.42-1.524-0.42c-0.593,0-1.284,0.127-2.075,0.381v2.447c0,0.521-0.238,0.782-0.716,0.782
		c-0.271,0-0.559-0.056-0.849-0.171c-0.295-0.113-0.551-0.266-0.766-0.455c-0.302-0.261-0.451-0.567-0.451-0.92
		c0-0.431,0.261-0.864,0.772-1.301c0.349-0.288,0.808-0.556,1.38-0.803v-1.85c-0.058,0.006-0.188,0.017-0.391,0.028
		c-0.118,0.007-0.324,0.01-0.627,0.01c-0.273,0-0.447-0.003-0.52-0.01h-0.223h-0.176v-0.646c0.264,0.046,0.602,0.068,0.998,0.068
		c0.332,0,0.646-0.01,0.938-0.029v-0.968c0-0.379-0.017-0.689-0.047-0.931h0.723c-0.033,0.229-0.049,0.531-0.049,0.91v0.939
		C270.004,77.823,270.669,77.683,271.177,77.506z M268.556,82.909V81.05c-0.481,0.234-0.856,0.479-1.121,0.734
		c-0.264,0.254-0.394,0.499-0.394,0.734c0,0.208,0.138,0.403,0.42,0.587c0.299,0.188,0.589,0.283,0.872,0.283
		c0.096,0,0.156-0.027,0.184-0.083C268.543,83.25,268.556,83.118,268.556,82.909z M274.438,78.769l-0.508,0.44
		c-0.535-0.744-1.193-1.384-1.978-1.918l0.509-0.382c0.443,0.313,0.807,0.606,1.098,0.881
		C273.847,78.065,274.136,78.391,274.438,78.769z"/>
	<path d="M276.74,78.26l-0.03-0.636c0.232,0.019,0.479,0.028,0.732,0.028c0.705,0,1.477-0.045,2.322-0.137
		c-0.312-0.764-0.506-1.21-0.59-1.341l0.733-0.127c0.1,0.398,0.271,0.858,0.521,1.38c1.186-0.196,2.057-0.411,2.61-0.646
		l0.062,0.636c-0.929,0.248-1.75,0.431-2.47,0.548c0.173,0.372,0.354,0.741,0.56,1.105c1.143-0.234,1.889-0.437,2.244-0.606
		l0.075,0.655c-0.298,0.073-0.478,0.115-0.526,0.129c-0.608,0.155-1.121,0.273-1.537,0.352c0.279,0.457,0.492,0.782,0.643,0.979
		c0.145,0.195,0.412,0.519,0.795,0.969l-0.576,0.411c-0.313-0.183-0.674-0.307-1.074-0.372c-0.414-0.059-0.842-0.088-1.284-0.088
		c-0.704,0-1.267,0.102-1.687,0.303c-0.421,0.203-0.632,0.474-0.632,0.813c0,0.32,0.177,0.566,0.535,0.739s0.876,0.26,1.549,0.26
		c0.509,0,1.043-0.063,1.609-0.191c0.565-0.127,0.993-0.281,1.288-0.464l0.134,0.763c-0.093,0.02-0.287,0.075-0.585,0.166
		c-0.791,0.242-1.625,0.362-2.508,0.362c-0.86,0-1.533-0.137-2.016-0.411c-0.488-0.274-0.734-0.679-0.734-1.214
		c0-0.528,0.266-0.942,0.793-1.242c0.531-0.3,1.262-0.45,2.193-0.45c0.723,0,1.385,0.095,1.978,0.284
		c-0.313-0.333-0.662-0.836-1.048-1.508c-0.77,0.144-1.916,0.238-3.434,0.284c-0.355,0.014-0.58,0.025-0.688,0.039l-0.021-0.646
		c0.22,0.019,0.479,0.029,0.784,0.029c1.162,0,2.189-0.082,3.081-0.245c-0.214-0.405-0.401-0.776-0.558-1.116
		c-0.688,0.099-1.571,0.157-2.643,0.177C277.049,78.237,276.851,78.248,276.74,78.26z"/>
	<path d="M286.966,77.34l-0.029-0.705c0.201,0.039,0.52,0.06,0.946,0.06c0.72,0,1.267-0.023,1.646-0.069
		c0.145-0.013,0.268-0.052,0.363-0.117l0.52,0.411c-0.064,0.085-0.122,0.192-0.172,0.322c-0.051,0.131-0.172,0.496-0.367,1.097
		c-0.072,0.222-0.227,0.679-0.459,1.37c0.867,0.092,1.759,0.35,2.673,0.773c0.076-0.489,0.114-1.151,0.114-1.987
		c0-0.162-0.012-0.322-0.038-0.479l0.733,0.011c-0.02,0.11-0.03,0.313-0.039,0.605c-0.025,0.914-0.084,1.622-0.176,2.125
		c0.539,0.28,0.986,0.524,1.342,0.733c0.084,0.052,0.177,0.101,0.283,0.146l-0.264,0.754c-0.329-0.261-0.837-0.584-1.529-0.969
		c-0.214,0.665-0.551,1.256-1.006,1.771c-0.449,0.496-0.971,0.894-1.556,1.194c-0.191-0.229-0.363-0.397-0.521-0.51
		c0.653-0.3,1.182-0.675,1.586-1.126c0.463-0.508,0.762-1.056,0.898-1.644c-0.833-0.437-1.734-0.707-2.698-0.813
		c-0.356,1.077-0.661,1.863-0.922,2.358c-0.34,0.646-0.733,0.97-1.185,0.97c-0.363,0-0.674-0.153-0.918-0.46
		c-0.248-0.307-0.375-0.689-0.375-1.146c0-0.404,0.104-0.776,0.307-1.115c0.198-0.34,0.489-0.613,0.859-0.822
		c0.455-0.274,1.043-0.414,1.763-0.421c0.249-0.737,0.509-1.56,0.78-2.467c-0.594,0.046-1.209,0.079-1.848,0.099
		C287.397,77.297,287.161,77.315,286.966,77.34z M288.549,80.247c-0.712,0.059-1.247,0.271-1.612,0.637
		c-0.314,0.326-0.472,0.701-0.472,1.125c0,0.261,0.062,0.481,0.188,0.66c0.121,0.18,0.274,0.27,0.451,0.27
		c0.197,0,0.4-0.189,0.604-0.567C287.911,81.992,288.192,81.284,288.549,80.247z"/>
	<path d="M271.778,91.002h-5.776c0.665,2.479,1.728,4.579,3.192,6.304c1.395,1.616,3.16,2.89,5.302,3.813
		c-0.336,0.42-0.627,0.854-0.86,1.313c-2.189-1.16-3.934-2.502-5.226-4.021c-1.292-1.519-2.29-3.402-2.993-5.646
		c-0.535,2.87-1.809,5.212-3.818,7.026c-1.121,0.992-2.531,1.879-4.229,2.662c-0.223-0.445-0.501-0.844-0.842-1.195
		c1.216-0.494,2.218-1.006,3.005-1.535c0.792-0.528,1.503-1.159,2.145-1.889c1.462-1.686,2.366-3.961,2.72-6.832h-5.322
		c-0.901,0-1.62,0.046-2.151,0.137v-1.526c0.466,0.092,1.2,0.137,2.19,0.137h5.4c0.055-0.834,0.08-1.604,0.08-2.309
		c0-0.81-0.046-1.521-0.138-2.135h1.604c-0.09,0.601-0.137,1.28-0.137,2.036c-0.016,0.927-0.046,1.729-0.1,2.407h5.933
		c0.952,0,1.675-0.045,2.173-0.137v1.526C273.341,91.048,272.623,91.002,271.778,91.002z"/>
	<path d="M284.146,87.519h-4.775c-0.85,0-1.586,0.038-2.209,0.116v-1.447c0.535,0.092,1.266,0.137,2.189,0.137h11.256
		c0.939,0,1.705-0.045,2.289-0.137v1.447c-0.639-0.078-1.402-0.116-2.289-0.116h-5.069v5.226h4.09c0.812,0,1.503-0.039,2.076-0.117
		v1.391c-0.509-0.053-1.2-0.078-2.076-0.078h-4.09v6.186h5.872c0.875,0,1.598-0.039,2.171-0.117v1.468
		c-0.558-0.093-1.284-0.138-2.171-0.138h-12.686c-0.887,0-1.644,0.045-2.271,0.138v-1.468c0.642,0.078,1.397,0.117,2.271,0.117
		h5.422V93.94h-3.735c-0.892,0-1.586,0.025-2.095,0.078v-1.391c0.492,0.078,1.186,0.117,2.072,0.117h3.758V87.519z"/>
</g>
<g>
	<path d="M243.417,167.747l0.919,0.842c-0.144,0.195-0.313,0.527-0.508,0.998c-0.562,1.383-1.397,2.662-2.506,3.838
		c-0.497,0.547-1.241,1.188-2.231,1.918c-0.289-0.34-0.681-0.652-1.175-0.939c1.228-0.757,2.179-1.531,2.856-2.33
		c0.666-0.781,1.188-1.63,1.565-2.544c0.065-0.13,0.104-0.216,0.119-0.256c-0.287,0.067-0.438,0.101-0.451,0.101l-7.711,1.291
		l1.722,9.396c0.157,0.797,0.301,1.39,0.43,1.778l-1.564,0.314c-0.052-0.574-0.13-1.16-0.234-1.761l-1.782-9.494l-2.604,0.433
		c-0.859,0.144-1.514,0.287-1.957,0.43l-0.254-1.508c0.549-0.012,1.215-0.076,1.998-0.194l2.583-0.431l-0.43-2.369
		c-0.144-0.756-0.272-1.291-0.392-1.604l1.604-0.234c0.015,0.469,0.079,0.984,0.194,1.545l0.451,2.428l8.494-1.391
		C242.894,167.95,243.183,167.866,243.417,167.747z"/>
	<path d="M250.522,173.051l1.076-0.862c1.238,1.019,2.563,2.252,3.975,3.7c1.029-0.862,1.896-1.663,2.604-2.408
		c1.2-1.266,2.276-2.68,3.229-4.247l0.156-0.233c-0.184,0.013-3.908,0.024-11.177,0.039c-0.927,0-1.684,0.026-2.271,0.076v-1.545
		c0.549,0.076,1.312,0.116,2.289,0.116h11.412c0.483,0,0.849-0.044,1.098-0.136l0.82,0.979c-0.195,0.194-0.455,0.541-0.782,1.035
		c-1.865,2.926-4.021,5.371-6.459,7.342c0.627,0.68,1.579,1.864,2.856,3.563l-1.193,0.998c-0.887-1.424-2.014-2.883-3.377-4.385
		C253.415,175.583,251.996,174.239,250.522,173.051z"/>
	<path d="M273.032,181.899h-1.684c0.077-0.535,0.115-1.223,0.115-2.057v-12.155c0-0.847-0.038-1.513-0.115-1.997h1.684
		c-0.067,0.432-0.1,1.109-0.1,2.038v3.657c2.715,0.968,5.617,2.345,8.711,4.132l-0.843,1.448c-1.997-1.408-4.431-2.7-7.302-3.875
		c-0.246-0.104-0.449-0.215-0.605-0.332l-0.037,0.02c0.052,0.352,0.076,0.737,0.076,1.154v5.893
		C272.933,180.75,272.964,181.44,273.032,181.899z"/>
	<path d="M303.82,168.471v1.313c-0.379-0.066-0.979-0.099-1.802-0.099c-0.116,1.162-0.258,2.106-0.421,2.836
		c-0.161,0.731-0.415,1.509-0.753,2.33c-0.379,0.966-0.854,1.853-1.43,2.663c1.357,1.695,2.943,2.992,4.758,3.896
		c-0.341,0.352-0.614,0.756-0.824,1.211c-1.917-1.146-3.477-2.529-4.677-4.146c-0.729,0.85-1.495,1.578-2.29,2.189
		c-0.796,0.615-1.828,1.266-3.093,1.957c-0.249-0.443-0.541-0.809-0.882-1.095c1.109-0.483,2.063-1.012,2.857-1.585
		c1.043-0.745,1.943-1.572,2.7-2.486c-0.965-1.527-1.657-3.18-2.073-4.953c-0.442,0.902-0.867,1.645-1.272,2.232
		c-0.272-0.326-0.587-0.595-0.938-0.803c0.145-0.17,0.281-0.346,0.412-0.527c-0.313-0.054-0.896-0.08-1.742-0.08h-0.824v5.284
		c1.033-0.353,2.09-0.743,3.172-1.175l0.021,1.216c-2.271,0.888-4.132,1.524-5.58,1.917c-1.631,0.445-2.597,0.717-2.896,0.821
		l-0.354-1.408c0.404-0.015,0.895-0.084,1.467-0.214v-6.736c0-0.807-0.031-1.451-0.098-1.938h1.352
		c-0.065,0.51-0.098,1.15-0.098,1.918v6.48c0.325-0.078,0.934-0.25,1.82-0.51V167.92h-2.055c-0.614,0-1.203,0.039-1.764,0.119
		v-1.392c0.561,0.08,1.162,0.118,1.801,0.118h4.736c0.771,0,1.357-0.032,1.764-0.1v1.354c-0.443-0.066-0.986-0.1-1.625-0.1h-1.666
		v4.267h0.824c0.848,0,1.435-0.024,1.76-0.076v1.252c0.953-1.489,1.686-3.36,2.193-5.618c0.313-1.318,0.483-2.304,0.508-2.955
		l1.37,0.273c-0.077,0.262-0.286,1.113-0.626,2.563c-0.144,0.549-0.228,0.867-0.255,0.959h4.658
		C302.77,168.586,303.389,168.549,303.82,168.471z M300.786,169.685h-3.816c-0.195,0.601-0.339,1.017-0.431,1.252
		c0.457,2.14,1.168,3.981,2.134,5.519C299.859,174.565,300.564,172.307,300.786,169.685z"/>
	<path d="M308.38,168.763v-1.781c0-0.952-0.032-1.625-0.098-2.015h1.37c-0.066,0.404-0.098,1.07-0.098,1.994v1.802h0.489
		c0.521,0,0.944-0.024,1.271-0.076v1.212c-0.365-0.038-0.771-0.059-1.215-0.059h-0.488c0.433,1.162,1.182,2.191,2.252,3.094
		c-0.262,0.287-0.503,0.605-0.726,0.96c-0.665-0.72-1.22-1.535-1.663-2.446c0.053,1.434,0.079,2.484,0.079,3.149v5.97
		c0,0.979,0.038,1.734,0.116,2.271h-1.409c0.091-0.549,0.137-1.307,0.137-2.271v-5.54c0-0.688,0.021-1.265,0.06-1.722
		c0.052-0.692,0.084-1.273,0.098-1.743c-0.339,1.399-0.697,2.538-1.075,3.425c-0.38,0.891-0.888,1.771-1.527,2.645
		c-0.273-0.443-0.541-0.789-0.801-1.037c1.368-1.721,2.388-3.973,3.053-6.752h-1.096c-0.641,0-1.092,0.027-1.353,0.076v-1.23
		c0.301,0.053,0.75,0.076,1.353,0.076L308.38,168.763L308.38,168.763z M318.402,176.497v1.584h2.212
		c0.757,0,1.298-0.031,1.625-0.097v1.192c-0.394-0.064-0.935-0.098-1.625-0.098h-2.212v1.741h2.544c0.861,0,1.533-0.03,2.017-0.098
		v1.252c-0.627-0.076-1.306-0.116-2.035-0.116h-7.086v0.958h-1.272c0.092-0.534,0.138-1.212,0.138-2.034v-4.365
		c0-0.521,0.02-1.035,0.06-1.545c-0.471,0.521-0.998,1.018-1.587,1.487c-0.143-0.249-0.402-0.528-0.78-0.843
		c1.63-1.16,3.032-2.729,4.207-4.697h-1.135c-0.705,0-1.254,0.039-1.646,0.117v-1.271c0.365,0.065,0.921,0.096,1.665,0.096h1.682
		c0.275-0.547,0.529-1.18,0.766-1.895h-2.096c-0.272,0.402-0.725,0.951-1.35,1.645c-0.156-0.223-0.465-0.459-0.921-0.705
		c0.783-0.717,1.422-1.533,1.919-2.447c0.208-0.354,0.402-0.828,0.587-1.428l1.154,0.371c-0.223,0.496-0.472,0.992-0.744,1.486
		h5.854c0.86,0,1.565-0.039,2.114-0.119v1.293c-0.522-0.064-1.233-0.096-2.134-0.096h-3.211c-0.273,0.741-0.527,1.377-0.764,1.895
		h4.679c0.898,0,1.564-0.037,1.997-0.115v1.292c-0.472-0.078-1.137-0.117-1.997-0.117h-5.228c-0.352,0.652-0.815,1.345-1.39,2.074
		h3.053c0.354-0.509,0.646-1.103,0.881-1.781l1.076,0.392c-0.222,0.457-0.489,0.922-0.801,1.391h2.29
		c0.729,0,1.331-0.04,1.801-0.116v1.229c-0.587-0.063-1.194-0.096-1.821-0.096h-2.484v1.586h2.212c0.705,0,1.246-0.033,1.625-0.099
		v1.192c-0.484-0.064-1.025-0.098-1.625-0.098h-2.213V176.497z M317.326,175.499v-1.586h-3.484v1.586H317.326z M317.326,176.497
		h-3.484v1.584h3.484V176.497z M313.841,179.081v1.74h3.484v-1.74H313.841z"/>
	<path d="M335.118,168.314c-0.313,2.937-0.952,5.526-1.919,7.771c-0.573,1.293-1.156,2.24-1.751,2.849
		c-0.596,0.608-1.242,0.909-1.948,0.909c-0.927,0-1.699-0.452-2.318-1.36c-0.621-0.905-0.931-2.045-0.931-3.413
		c0-2.063,0.688-3.863,2.055-5.402c1.579-1.734,3.688-2.604,6.323-2.604c2.271,0,4.063,0.646,5.383,1.938
		c1.266,1.227,1.897,2.817,1.897,4.774c0,1.524-0.393,2.884-1.173,4.072c-0.784,1.187-1.888,2.079-3.311,2.68
		c-0.821,0.354-1.813,0.653-2.974,0.902c-0.145-0.484-0.373-0.923-0.688-1.312c1.345-0.223,2.437-0.529,3.27-0.922
		c1.07-0.482,1.915-1.216,2.537-2.201c0.619-0.984,0.929-2.076,0.929-3.279c0-1.121-0.271-2.109-0.813-2.965
		c-0.541-0.855-1.308-1.504-2.3-1.946C336.709,168.517,335.953,168.355,335.118,168.314z M333.708,168.333
		c-1.083,0.092-2.057,0.399-2.917,0.92c-0.991,0.601-1.771,1.42-2.339,2.457s-0.852,2.162-0.852,3.377
		c0,0.939,0.181,1.729,0.537,2.367c0.359,0.641,0.808,0.959,1.343,0.959c0.795,0,1.61-0.945,2.445-2.838
		c0.403-0.925,0.771-2.057,1.097-3.387C333.349,170.859,333.577,169.575,333.708,168.333z"/>
	<path d="M346.862,167.687h3.798c-0.459-0.821-1.038-1.61-1.743-2.368l1.154-0.488c0.783,0.967,1.422,1.918,1.919,2.856h3.149
		c0.745-0.911,1.385-1.886,1.919-2.914l1.252,0.468c-0.69,1.03-1.298,1.85-1.818,2.446h3.816c0.771,0,1.423-0.04,1.957-0.116v1.35
		c-0.563-0.076-1.214-0.115-1.957-0.115h-6.224c-0.275,0.797-0.557,1.453-0.844,1.977h4.776c0.509,0,1.108-0.025,1.802-0.078
		c-0.055,0.482-0.079,0.998-0.079,1.545v8.633c0,0.666,0.038,1.279,0.117,1.842h-1.351v-1.116h-9.806v1.116h-1.353
		c0.078-0.563,0.116-1.176,0.116-1.842v-8.633c0-0.521-0.023-1.037-0.078-1.545c0.72,0.053,1.324,0.078,1.821,0.078h2.701
		c0.339-0.588,0.619-1.244,0.841-1.977h-5.891c-0.72,0-1.371,0.039-1.957,0.115v-1.35
		C345.426,167.647,346.078,167.687,346.862,167.687z M358.508,171.856h-9.806v2.096h9.806V171.856z M358.508,175.027h-9.806v2.097
		h9.806V175.027z M358.508,178.2h-9.806v2.309h9.806V178.2z"/>
	<path d="M380.02,174.911h-7.204c0.341,0.627,0.687,1.15,1.037,1.575c0.353,0.425,0.85,0.897,1.487,1.418
		c0.613-0.403,1.208-0.866,1.781-1.388c0.574-0.523,0.998-0.986,1.272-1.393l1.154,0.707c-0.063,0.065-0.184,0.17-0.354,0.313
		l-0.214,0.216c-1.02,0.938-1.944,1.671-2.779,2.19c1.787,1.176,3.771,2.002,5.95,2.486c-0.263,0.393-0.489,0.828-0.688,1.312
		c-2.884-0.821-5.199-2.009-6.948-3.562c-1.213-1.045-2.204-2.336-2.974-3.877h-2.368v5.422c1.645-0.418,3.071-0.861,4.285-1.33
		l0.04,1.191c-1.646,0.627-4.125,1.346-7.439,2.154c-0.39,0.115-0.671,0.197-0.841,0.234l-0.411-1.371
		c0.443-0.023,1.475-0.215,3.094-0.566v-5.734h-1.527c-0.703,0-1.35,0.039-1.938,0.116v-1.312c0.471,0.078,1.116,0.117,1.938,0.117
		h1.527v-6.049c0-0.781-0.026-1.428-0.078-1.938c0.47,0.066,1.147,0.099,2.035,0.099h8.338c1.006,0,1.703-0.038,2.096-0.118v1.313
		c-0.521-0.064-1.214-0.096-2.076-0.096h-9.041v1.506h8.436c0.783,0,1.417-0.032,1.897-0.1v1.271
		c-0.547-0.077-1.182-0.117-1.897-0.117h-8.436v1.548h8.436c0.849,0,1.48-0.04,1.897-0.118v1.293
		c-0.573-0.08-1.206-0.119-1.897-0.119h-8.436v1.625h10.784c0.743,0,1.376-0.039,1.898-0.117v1.312
		C381.35,174.95,380.737,174.911,380.02,174.911z"/>
</g>
<g>
	<g>
		<line fill="none" stroke="#000000" stroke-miterlimit="10" x1="275.161" y1="104.846" x2="275.161" y2="106.846"/>
		
			<line fill="none" stroke="#000000" stroke-miterlimit="10" stroke-dasharray="4.1186,2.0593" x1="275.161" y1="108.907" x2="275.161" y2="157.299"/>
		<line fill="none" stroke="#000000" stroke-miterlimit="10" x1="275.161" y1="158.329" x2="275.161" y2="160.329"/>
	</g>
</g>
<g>
	<g>
		<line fill="none" stroke="#000000" stroke-miterlimit="10" x1="275.161" y1="18.072" x2="275.161" y2="20.072"/>
		
			<line fill="none" stroke="#000000" stroke-miterlimit="10" stroke-dasharray="4.1186,2.0593" x1="275.161" y1="22.131" x2="275.161" y2="70.525"/>
		<line fill="none" stroke="#000000" stroke-miterlimit="10" x1="275.161" y1="71.554" x2="275.161" y2="73.554"/>
	</g>
</g>
<path fill="none" stroke="#000000" stroke-miterlimit="10" d="M273.222,20.29"/>
<g>
	<g>
		<path fill="none" stroke="#000000" stroke-miterlimit="10" d="M308.359,23.632c5.281,7.854,38.359,62.04-0.119,135.625"/>
		<g>
			<path d="M308.134,31.999c0.275-0.005,0.495-0.235,0.489-0.511l-0.155-7.648l6.996,3.093c0.253,0.112,0.549-0.001,0.66-0.254
				c0.111-0.253-0.005-0.549-0.256-0.661l-7.714-3.411c-0.156-0.069-0.337-0.054-0.479,0.041c-0.142,0.095-0.226,0.256-0.223,0.426
				l0.171,8.433c0.002,0.099,0.032,0.19,0.083,0.267C307.798,31.913,307.957,32.002,308.134,31.999z"/>
		</g>
		<g>
			<path d="M306.998,150.993c0.274-0.029,0.521,0.172,0.548,0.447l0.772,7.609l6.569-3.918c0.237-0.141,0.545-0.063,0.688,0.174
				c0.141,0.236,0.061,0.545-0.174,0.688l-7.245,4.318c-0.146,0.087-0.328,0.096-0.48,0.018c-0.151-0.076-0.256-0.227-0.271-0.396
				l-0.854-8.392c-0.009-0.1,0.01-0.193,0.051-0.274C306.675,151.12,306.822,151.01,306.998,150.993z"/>
		</g>
	</g>
</g>
<g>
	<path d="M338.205,86.618v-11.68c0-0.634-0.022-1.162-0.07-1.585c0.364,0.047,0.923,0.07,1.674,0.07h10.869
		c0.717,0,1.258-0.023,1.62-0.07c-0.047,0.423-0.07,0.957-0.07,1.603V86.9c0,0.528-0.136,0.871-0.404,1.03
		c-0.271,0.158-0.852,0.237-1.743,0.237c-0.563,0-1.328-0.029-2.29-0.088c-0.061-0.411-0.147-0.793-0.264-1.145
		c0.985,0.141,1.891,0.211,2.712,0.211c0.341,0,0.563-0.026,0.67-0.079c0.104-0.053,0.158-0.155,0.158-0.309V74.445H339.37v12.173
		c0,0.751,0.04,1.38,0.122,1.885H338.1C338.17,87.939,338.205,87.311,338.205,86.618z M340.565,77.44v-1.181
		c0.307,0.059,0.781,0.088,1.428,0.088h6.553c0.635,0,1.11-0.029,1.428-0.088v1.181c-0.316-0.06-0.78-0.088-1.394-0.088h-6.605
		C341.375,77.352,340.906,77.38,340.565,77.44z M348.617,80.329v3.348c0,0.375,0.017,0.716,0.053,1.021
		c-0.354-0.035-0.717-0.054-1.093-0.054h-4.687v1.551h-1.145c0.046-0.423,0.07-0.963,0.07-1.62v-4.229
		c0-0.399-0.02-0.757-0.054-1.074c0.363,0.035,0.758,0.053,1.18,0.053h4.439c0.469,0,0.898-0.018,1.286-0.053
		C348.633,79.589,348.617,79.941,348.617,80.329z M342.891,80.293v3.383h4.635v-3.383H342.891z"/>
	<path d="M370.566,79.607v1.462c-0.587-0.082-1.363-0.123-2.324-0.123h-10.854c-1.031,0-1.813,0.041-2.342,0.123v-1.462
		c0.527,0.082,1.311,0.123,2.342,0.123h10.854C369.296,79.73,370.073,79.689,370.566,79.607z"/>
	<path d="M354.263,93.848h1.408c-0.058,0.328-0.088,0.852-0.088,1.566c0,1.34,0.13,2.612,0.388,3.822
		c0.153,0.706,0.444,1.523,0.872,2.459c0.428,0.934,0.896,1.758,1.401,2.475c0.717,1.011,1.584,1.938,2.606,2.783
		c0.458,0.389,1.14,0.846,2.043,1.375c-0.388,0.353-0.693,0.723-0.916,1.108c-1.067-0.729-1.959-1.433-2.668-2.114
		c-0.711-0.681-1.378-1.479-1.999-2.396c-1.033-1.516-1.799-3.383-2.292-5.602c-0.27,1.457-0.675,2.766-1.214,3.928
		c-0.611,1.34-1.45,2.545-2.52,3.613c-0.493,0.516-0.967,0.953-1.418,1.311c-0.453,0.359-1.063,0.777-1.824,1.261
		c-0.258-0.399-0.575-0.746-0.951-1.038c0.894-0.495,1.588-0.926,2.087-1.296c0.499-0.369,1.002-0.824,1.506-1.364
		c2.433-2.607,3.647-6.055,3.647-10.342C354.333,94.777,354.311,94.258,354.263,93.848z"/>
	<path d="M367.633,98.217h-1.444c-0.188,0.986-0.463,1.925-0.827,2.816c-0.307-0.222-0.629-0.404-0.971-0.545
		c0.74-1.646,1.111-3.341,1.111-5.092c0-0.164-0.006-0.316-0.018-0.457l1.128,0.176c-0.049,0.363-0.082,0.676-0.107,0.934
		c-0.021,0.188-0.05,0.4-0.078,0.635c-0.029,0.234-0.05,0.411-0.062,0.527h1.268V95.01c0-0.528-0.042-1.016-0.122-1.463h1.32
		c-0.07,0.365-0.106,0.853-0.106,1.463v2.201h0.812c0.48,0,0.847-0.028,1.093-0.088v1.146c-0.328-0.046-0.693-0.069-1.093-0.069
		h-0.812v3.93c0.693-0.283,1.357-0.57,1.991-0.864v1.058c-0.682,0.316-1.346,0.611-1.991,0.881v4.563
		c0,0.635,0.036,1.25,0.106,1.849h-1.32c0.08-0.527,0.122-1.146,0.122-1.849v-4.142c-1.526,0.554-2.406,0.883-2.642,0.986
		l-0.354-1.25c0.671-0.082,1.669-0.359,2.995-0.826L367.633,98.217L367.633,98.217z M377.076,97.478h-1.708
		c-0.423,1.571-0.93,2.871-1.518,3.892c-0.82,1.41-1.896,2.627-3.223,3.646c-0.2-0.316-0.476-0.604-0.827-0.863
		c1.36-0.928,2.431-2.061,3.205-3.398c0.527-0.903,0.964-1.998,1.304-3.275h-1.585c-0.54,1.045-1.175,2.001-1.902,2.871
		c-0.271-0.283-0.569-0.518-0.898-0.706c0.927-1.009,1.649-2.103,2.168-3.276c0.422-0.939,0.709-1.854,0.861-2.746l1.232,0.264
		c-0.082,0.188-0.24,0.609-0.475,1.269c-0.166,0.458-0.342,0.909-0.529,1.356h5.428c0.702,0,1.201-0.022,1.497-0.07
		c-0.049,0.307-0.089,1.135-0.123,2.482c-0.07,2.865-0.206,5.127-0.404,6.781c-0.167,1.457-0.405,2.408-0.723,2.854
		s-0.912,0.671-1.78,0.671c-0.458,0-1.122-0.064-1.991-0.193c-0.046-0.445-0.151-0.857-0.315-1.234
		c0.95,0.236,1.721,0.353,2.308,0.353c0.375,0,0.647-0.106,0.817-0.323c0.171-0.219,0.311-0.638,0.415-1.261
		c0.317-1.843,0.511-4.874,0.581-9.089h-0.773c-0.283,1.387-0.583,2.542-0.898,3.469c-0.683,1.928-1.598,3.611-2.748,5.057
		c-0.471,0.599-0.952,1.127-1.444,1.586c-0.493,0.457-1.15,0.986-1.974,1.584c-0.258-0.352-0.559-0.639-0.897-0.862
		c1.162-0.763,2.143-1.569,2.94-2.422c0.8-0.851,1.503-1.841,2.114-2.97C376.053,101.37,376.676,99.555,377.076,97.478z"/>
</g>
<g>
	<path d="M243.101,6.42h-5.899c0.68,2.533,1.767,4.68,3.26,6.44c1.427,1.653,3.233,2.954,5.42,3.9
		c-0.347,0.427-0.64,0.873-0.88,1.34c-2.24-1.187-4.02-2.557-5.34-4.11c-1.32-1.553-2.34-3.478-3.061-5.771
		c-0.547,2.935-1.847,5.327-3.899,7.18c-1.147,1.013-2.587,1.92-4.32,2.72c-0.228-0.454-0.513-0.86-0.86-1.22
		c1.24-0.506,2.264-1.03,3.07-1.57s1.536-1.183,2.19-1.93c1.493-1.72,2.42-4.046,2.78-6.98h-5.44c-0.92,0-1.653,0.047-2.2,0.14V5
		c0.48,0.093,1.227,0.14,2.24,0.14h5.52c0.053-0.853,0.08-1.64,0.08-2.36c0-0.827-0.047-1.553-0.14-2.18h1.64
		c-0.094,0.613-0.14,1.307-0.14,2.08c-0.015,0.947-0.047,1.767-0.101,2.46h6.061c0.973,0,1.713-0.046,2.22-0.14v1.56
		C244.701,6.467,243.967,6.42,243.101,6.42z"/>
	<path d="M251.42,5.66V2.94c-1.054,0.253-2.054,0.467-3,0.64c-0.067-0.36-0.254-0.74-0.56-1.14c2.332-0.307,4.365-0.807,6.1-1.5
		c0.493-0.187,0.893-0.387,1.2-0.6l0.858,1.06c-0.08,0.027-0.232,0.087-0.459,0.18c-1.106,0.44-2.08,0.78-2.92,1.02v3.06h1.521
		c0.772,0,1.353-0.033,1.739-0.1v1.32c-0.414-0.066-0.993-0.1-1.739-0.1h-1.46c0.199,0.507,0.479,1.034,0.84,1.58
		c0.693,1.053,1.5,1.967,2.42,2.74c-0.307,0.28-0.58,0.62-0.82,1.02c-1.119-1.187-1.986-2.5-2.6-3.94c0.04,0.72,0.072,1.854,0.1,3.4
		v4.28c0,1.16,0.041,1.973,0.12,2.44h-1.479c0.08-0.6,0.119-1.414,0.119-2.44V11.7c0-0.973,0.033-2.073,0.102-3.3
		c-0.4,1.333-0.934,2.567-1.602,3.7c-0.479,0.827-1.086,1.646-1.818,2.46c-0.254-0.413-0.533-0.773-0.84-1.08
		c1.76-1.733,3.072-3.967,3.939-6.7h-1.479c-0.667,0-1.302,0.04-1.9,0.12V5.54c0.562,0.08,1.193,0.12,1.9,0.12H251.42z
		 M258.041,16.24v1.42h-1.36c0.066-0.64,0.102-1.413,0.102-2.32V4.22c0-0.747-0.034-1.453-0.102-2.12
		c0.493,0.067,1.12,0.1,1.881,0.1h4.319c0.813,0,1.446-0.033,1.9-0.1c-0.067,0.467-0.101,1.173-0.101,2.12V15.2
		c0,1.067,0.039,1.887,0.119,2.46h-1.4v-1.42H258.041z M258.041,3.4v11.66h5.358V3.4H258.041z"/>
	<path d="M270.14,5.7v-3c0-0.893-0.039-1.633-0.119-2.22h1.479c-0.08,0.64-0.12,1.387-0.12,2.24V5.7h0.561
		c0.746,0,1.279-0.033,1.601-0.1v1.3c-0.438-0.053-0.979-0.08-1.62-0.08h-0.54v6.28c0.72-0.333,1.474-0.72,2.261-1.16l0.119,1.22
		c-1.507,0.84-3.227,1.654-5.16,2.44c-0.16,0.053-0.427,0.167-0.799,0.34l-0.341-1.38c0.573-0.093,1.468-0.393,2.681-0.9V6.82h-0.74
		c-0.706,0-1.268,0.04-1.68,0.12V5.58c0.373,0.08,0.934,0.12,1.68,0.12H270.14z M276.259,8.16v7.5c0,0.24,0.041,0.414,0.121,0.52
		c0.08,0.107,0.24,0.187,0.48,0.24c0.412,0.12,1.486,0.18,3.219,0.18c1.414,0,2.391-0.04,2.93-0.12
		c0.541-0.08,0.891-0.233,1.051-0.46c0.254-0.36,0.394-1.26,0.42-2.7c0.388,0.227,0.813,0.4,1.279,0.52
		c-0.039,0.693-0.082,1.224-0.129,1.59c-0.047,0.367-0.16,0.72-0.34,1.06c-0.18,0.34-0.367,0.577-0.561,0.71
		c-0.194,0.133-0.533,0.257-1.021,0.37c-0.487,0.113-0.989,0.177-1.51,0.19c-0.521,0.013-1.269,0.021-2.24,0.021
		c-1.438,0-2.494-0.05-3.16-0.15c-0.668-0.1-1.133-0.277-1.399-0.53c-0.269-0.253-0.4-0.647-0.4-1.18V8.58l-0.439,0.14
		c-0.731,0.253-1.287,0.467-1.66,0.64L272.541,8c0.562-0.053,1.14-0.187,1.739-0.4L275,7.36V4.22c0-0.787-0.039-1.466-0.119-2.04
		h1.5c-0.08,0.6-0.121,1.26-0.121,1.98v2.8L279.121,6V2.3c0-0.64-0.041-1.26-0.121-1.86h1.479c-0.08,0.587-0.119,1.213-0.119,1.88
		V5.6l3.08-1.02c0.453-0.147,0.979-0.354,1.58-0.62c-0.08,1.88-0.188,3.667-0.319,5.36c-0.136,1.667-0.441,2.64-0.921,2.92
		c-0.334,0.187-0.813,0.28-1.44,0.28c-0.133,0-0.426-0.02-0.879-0.06c-0.056-0.453-0.153-0.873-0.301-1.26
		c0.547,0.12,1.062,0.18,1.541,0.18c0.227,0,0.379-0.04,0.459-0.12c0.08-0.08,0.146-0.267,0.2-0.56
		c0.134-0.733,0.24-2.42,0.318-5.06l-3.318,1.14v5.52c0,0.707,0.039,1.347,0.119,1.92H279c0.08-0.56,0.121-1.207,0.121-1.939V7.2
		L276.259,8.16z"/>
	<path d="M295.781,3.6V2.1c0-0.573-0.048-1.16-0.142-1.76h1.602c-0.08,0.414-0.12,1-0.12,1.76v1.5h6.12c0.96,0,1.727-0.047,2.3-0.14
		v1.5c-0.453-0.08-1.207-0.12-2.26-0.12h-7.58c-0.067,1.12-0.16,2.073-0.28,2.86h5.46c0.96,0,1.646-0.033,2.062-0.1
		c-0.04,0.387-0.074,0.853-0.102,1.4c-0.04,1.2-0.133,2.467-0.279,3.8s-0.308,2.34-0.479,3.02c-0.214,0.867-0.483,1.44-0.81,1.72
		c-0.327,0.28-0.892,0.42-1.69,0.42c-0.773,0-1.7-0.06-2.78-0.18c-0.053-0.521-0.16-0.993-0.318-1.42
		c1.119,0.213,2.126,0.32,3.02,0.32c0.427,0,0.724-0.103,0.89-0.31c0.167-0.207,0.323-0.677,0.472-1.41
		c0.293-1.467,0.5-3.487,0.62-6.06h-6.28c-0.4,2.053-1.033,3.76-1.9,5.12c-0.652,1-1.479,1.92-2.479,2.76
		c-0.547,0.467-1.273,0.953-2.182,1.46c-0.199-0.347-0.525-0.72-0.979-1.12c0.934-0.453,1.706-0.927,2.32-1.42
		c0.611-0.493,1.191-1.1,1.738-1.82c0.827-1.066,1.443-2.316,1.852-3.75c0.406-1.433,0.648-3.197,0.729-5.29h-4.199
		c-0.961,0-1.707,0.04-2.239,0.12v-1.5c0.6,0.093,1.34,0.14,2.22,0.14H295.781z"/>
	<path d="M317.701,3.62c-0.32,3-0.975,5.646-1.96,7.94c-0.587,1.32-1.185,2.29-1.79,2.91c-0.607,0.62-1.271,0.93-1.99,0.93
		c-0.946,0-1.736-0.463-2.37-1.39c-0.633-0.926-0.95-2.09-0.95-3.49c0-2.107,0.7-3.947,2.102-5.52c1.613-1.773,3.767-2.66,6.46-2.66
		c2.32,0,4.152,0.66,5.5,1.98c1.293,1.253,1.938,2.88,1.938,4.88c0,1.56-0.398,2.947-1.198,4.16
		c-0.802,1.213-1.928,2.127-3.381,2.74c-0.841,0.36-1.854,0.667-3.039,0.92c-0.147-0.493-0.382-0.94-0.7-1.34
		c1.373-0.227,2.485-0.54,3.34-0.94c1.093-0.493,1.956-1.243,2.59-2.25c0.633-1.006,0.95-2.123,0.95-3.35
		c0-1.146-0.277-2.156-0.83-3.03c-0.554-0.873-1.337-1.537-2.35-1.99C319.328,3.827,318.554,3.66,317.701,3.62z M316.26,3.64
		c-1.105,0.094-2.1,0.407-2.979,0.94c-1.015,0.613-1.812,1.45-2.392,2.51c-0.579,1.06-0.868,2.21-0.868,3.45
		c0,0.96,0.183,1.767,0.55,2.42c0.365,0.653,0.822,0.98,1.37,0.98c0.813,0,1.646-0.967,2.5-2.9c0.413-0.947,0.785-2.1,1.119-3.46
		C315.894,6.22,316.127,4.907,316.26,3.64z"/>
	<path d="M335.121,0.58L336.76,1c-0.12,0.173-0.267,0.447-0.438,0.82c-0.414,0.867-0.721,1.46-0.92,1.78
		c0.173-0.04,2.187-0.093,6.04-0.16c0.479,0,0.825-0.046,1.04-0.14l0.858,0.84c-0.105,0.147-0.239,0.474-0.398,0.98
		c-0.867,2.92-2.2,5.427-4,7.52c-1.787,2.04-4.107,3.707-6.96,5c-0.269-0.48-0.602-0.873-1-1.18c1.506-0.613,2.818-1.323,3.938-2.13
		c1.12-0.807,2.16-1.783,3.12-2.93c1.573-1.907,2.72-4.14,3.44-6.7l-6.74,0.12c-1.24,2-2.834,3.733-4.78,5.2
		c-0.267-0.4-0.64-0.747-1.12-1.04c2.026-1.32,3.7-3.146,5.021-5.48C334.607,2.207,335.027,1.233,335.121,0.58z"/>
	<path d="M348.621,14.84v-1.68c0.573,0.08,1.347,0.12,2.32,0.12h11.34c0.973,0,1.746-0.04,2.319-0.12v1.68
		c-0.547-0.066-1.313-0.1-2.301-0.1h-11.38C349.947,14.74,349.18,14.773,348.621,14.84z M350.64,5.28V3.66
		c0.533,0.08,1.247,0.12,2.142,0.12h7.64c0.895,0,1.606-0.04,2.141-0.12v1.62c-0.533-0.053-1.239-0.08-2.119-0.08h-7.682
		C351.88,5.2,351.173,5.227,350.64,5.28z"/>
	<path d="M377.701,3.62c-0.32,3-0.975,5.646-1.96,7.94c-0.587,1.32-1.185,2.29-1.79,2.91c-0.607,0.62-1.271,0.93-1.99,0.93
		c-0.946,0-1.736-0.463-2.37-1.39c-0.633-0.926-0.95-2.09-0.95-3.49c0-2.107,0.7-3.947,2.102-5.52c1.613-1.773,3.767-2.66,6.46-2.66
		c2.32,0,4.152,0.66,5.5,1.98c1.293,1.253,1.938,2.88,1.938,4.88c0,1.56-0.398,2.947-1.198,4.16
		c-0.802,1.213-1.928,2.127-3.381,2.74c-0.841,0.36-1.854,0.667-3.039,0.92c-0.147-0.493-0.382-0.94-0.7-1.34
		c1.373-0.227,2.485-0.54,3.34-0.94c1.093-0.493,1.956-1.243,2.59-2.25c0.633-1.006,0.95-2.123,0.95-3.35
		c0-1.146-0.277-2.156-0.83-3.03c-0.554-0.873-1.337-1.537-2.35-1.99C379.328,3.827,378.554,3.66,377.701,3.62z M376.26,3.64
		c-1.105,0.094-2.1,0.407-2.979,0.94c-1.015,0.613-1.812,1.45-2.392,2.51c-0.579,1.06-0.868,2.21-0.868,3.45
		c0,0.96,0.183,1.767,0.55,2.42c0.365,0.653,0.822,0.98,1.37,0.98c0.813,0,1.646-0.967,2.5-2.9c0.413-0.947,0.785-2.1,1.119-3.46
		C375.894,6.22,376.127,4.907,376.26,3.64z"/>
	<path d="M389.701,2.98h3.88c-0.467-0.84-1.061-1.646-1.78-2.42l1.182-0.5c0.8,0.987,1.452,1.96,1.96,2.92h3.22
		c0.76-0.933,1.413-1.927,1.96-2.98l1.28,0.48c-0.707,1.053-1.327,1.887-1.86,2.5h3.9c0.785,0,1.452-0.04,2-0.12v1.38
		c-0.574-0.08-1.24-0.12-2-0.12h-6.36c-0.28,0.813-0.566,1.487-0.86,2.02h4.881c0.521,0,1.134-0.026,1.841-0.08
		c-0.055,0.493-0.08,1.02-0.08,1.58v8.82c0,0.68,0.04,1.307,0.12,1.88h-1.381V17.2h-10.021v1.14h-1.38
		c0.08-0.573,0.12-1.2,0.12-1.88V7.64c0-0.533-0.027-1.06-0.08-1.58c0.732,0.053,1.353,0.08,1.859,0.08h2.761
		c0.347-0.6,0.633-1.273,0.858-2.02h-6.02c-0.733,0-1.4,0.04-2,0.12V2.86C388.234,2.94,388.901,2.98,389.701,2.98z M401.601,7.24
		H391.58v2.14h10.021V7.24z M401.601,10.48H391.58v2.14h10.021V10.48z M401.601,13.72H391.58v2.36h10.021V13.72z"/>
	<path d="M423.581,10.36h-7.36c0.348,0.64,0.7,1.177,1.062,1.61c0.358,0.435,0.866,0.917,1.52,1.45
		c0.627-0.413,1.233-0.887,1.82-1.42s1.02-1.007,1.3-1.42l1.181,0.72c-0.066,0.067-0.188,0.173-0.359,0.32l-0.22,0.22
		c-1.04,0.96-1.987,1.707-2.842,2.24c1.827,1.2,3.854,2.047,6.08,2.54c-0.267,0.4-0.5,0.846-0.698,1.34
		c-2.947-0.84-5.313-2.053-7.102-3.64c-1.24-1.066-2.253-2.387-3.04-3.96h-2.42v5.54c1.68-0.427,3.14-0.88,4.38-1.36l0.04,1.22
		c-1.68,0.64-4.213,1.373-7.6,2.2c-0.4,0.12-0.688,0.2-0.86,0.24l-0.42-1.4c0.453-0.026,1.507-0.22,3.16-0.58v-5.86h-1.562
		c-0.72,0-1.38,0.04-1.979,0.12V9.14c0.479,0.08,1.14,0.12,1.979,0.12h1.562V3.08c0-0.8-0.027-1.46-0.08-1.98
		c0.479,0.067,1.173,0.1,2.08,0.1h8.52c1.027,0,1.74-0.04,2.142-0.12v1.34c-0.533-0.066-1.24-0.1-2.12-0.1h-9.24v1.54h8.62
		c0.8,0,1.446-0.033,1.939-0.1v1.3c-0.561-0.08-1.206-0.12-1.939-0.12h-8.62v1.58h8.62c0.866,0,1.513-0.04,1.939-0.12v1.32
		c-0.587-0.08-1.232-0.12-1.939-0.12h-8.62v1.66h11.021c0.76,0,1.405-0.04,1.938-0.12v1.34
		C424.941,10.4,424.314,10.36,423.581,10.36z"/>
</g>
</svg>
