<?xml version="1.0" encoding="utf-8"?>
<!-- Generator: Adobe Illustrator 16.0.3, SVG Export Plug-In . SVG Version: 6.00 Build 0)  -->
<!DOCTYPE svg PUBLIC "-//W3C//DTD SVG 1.1//EN" "http://www.w3.org/Graphics/SVG/1.1/DTD/svg11.dtd">
<svg version="1.1" id="レイヤー_1" xmlns="http://www.w3.org/2000/svg" xmlns:xlink="http://www.w3.org/1999/xlink" x="0px"
	 y="0px" width="119.217px" height="63.514px" viewBox="0 0 119.217 63.514" enable-background="new 0 0 119.217 63.514"
	 xml:space="preserve">
<g>
	<path d="M53.106,41.724c0-0.369-0.018-0.549-0.063-0.748h0.647c-0.045,0.216-0.063,0.415-0.063,0.748v0.207h0.892
		c0.387,0,0.576-0.009,0.801-0.045v0.576c-0.243-0.036-0.45-0.045-0.801-0.045h-0.892v0.864h0.63c0.441,0,0.631-0.009,0.828-0.036
		c-0.026,0.162-0.026,0.288-0.026,0.801v1.431c0,0.531,0.009,0.685,0.026,0.847c-0.225-0.027-0.414-0.036-0.828-0.036H53.62v0.847
		h0.773c0.379,0,0.567-0.01,0.793-0.045v0.594c-0.243-0.036-0.414-0.045-0.793-0.045H53.62v0.693c0,0.377,0.018,0.584,0.071,0.818
		h-0.647c0.045-0.207,0.054-0.404,0.054-0.818v-0.693h-1.035c-0.369,0-0.567,0.009-0.811,0.045V47.09
		c0.226,0.035,0.414,0.045,0.811,0.045h1.035v-0.847h-0.585c-0.36,0-0.576,0.009-0.838,0.036c0.027-0.234,0.036-0.486,0.036-0.855
		v-1.377c0-0.369-0.009-0.585-0.036-0.846c0.226,0.027,0.441,0.036,0.838,0.036h0.594v-0.864h-0.963
		c-0.378,0-0.585,0.009-0.811,0.045v-0.576c0.216,0.036,0.414,0.045,0.811,0.045h0.963V41.724z M52.216,45.82h2.331V45h-2.331V45.82
		z M52.225,44.532h2.331v-0.783h-2.331V44.532z M56.32,46.063c-0.071,0.693-0.135,1.027-0.261,1.459
		c-0.18,0.63-0.405,1.044-0.837,1.602c-0.189-0.188-0.279-0.26-0.478-0.377c0.648-0.793,0.873-1.352,1.008-2.504
		c0.091-0.801,0.136-2.052,0.136-3.907c0-0.549-0.009-0.837-0.036-1.062c0.288,0.027,0.441,0.036,0.864,0.036h1.359
		c0.405,0,0.594-0.009,0.855-0.036c-0.027,0.216-0.036,0.477-0.036,0.927v5.915c0,0.693-0.198,0.855-1.026,0.855
		c-0.243,0-0.522-0.01-0.883-0.045c-0.026-0.252-0.063-0.405-0.144-0.631c0.504,0.09,0.766,0.117,1.063,0.117
		c0.396,0,0.441-0.035,0.441-0.351v-1.999H56.32z M58.347,45.568v-1.63h-1.918c0,0.667-0.009,0.774-0.072,1.63H58.347z
		 M58.347,43.434v-1.621h-1.909v1.621H58.347z"/>
	<path d="M61.17,47.098c-0.18,0.865-0.314,1.324-0.63,1.999L60.045,48.8c0.342-0.585,0.504-1.063,0.657-1.872L61.17,47.098z
		 M63.133,43.263c0.252,0,0.423-0.009,0.676-0.036c-0.027,0.18-0.036,0.423-0.036,0.765v1.873c0,0.449,0.009,0.611,0.026,0.818
		c-0.297-0.018-0.521-0.027-0.927-0.027h-1.359c-0.36,0-0.54,0.01-0.855,0.027c0.027-0.242,0.036-0.486,0.036-0.792v-2.179
		c-0.108,0.135-0.108,0.135-0.216,0.271c-0.081-0.117-0.207-0.225-0.405-0.333c0.621-0.693,0.954-1.26,1.278-2.143
		c0.09-0.243,0.107-0.324,0.162-0.576l0.576,0.135c-0.027,0.054-0.036,0.072-0.063,0.135c-0.099,0.261-0.135,0.36-0.216,0.541h0.693
		c0.279,0,0.432-0.009,0.549-0.036l0.243,0.288c-0.09,0.153-0.09,0.153-0.261,0.54c-0.1,0.225-0.226,0.486-0.369,0.729H63.133z
		 M62.125,43.263c0.197-0.324,0.342-0.63,0.504-1.063h-1.018c-0.144,0.324-0.315,0.621-0.603,1.063H62.125z M61.188,44.676h0.801
		v-0.963h-0.801V44.676z M61.188,46.207h0.801v-1.089h-0.801V46.207z M61.891,47.035c0.117,0.721,0.162,1.161,0.18,1.846
		l-0.531,0.099c0.01-0.188,0.019-0.333,0.019-0.423c0-0.469-0.036-0.928-0.126-1.432L61.891,47.035z M62.764,46.973
		c0.181,0.566,0.261,0.9,0.396,1.646l-0.486,0.127c-0.108-0.802-0.162-1.054-0.333-1.656L62.764,46.973z M62.467,44.676h0.811
		v-0.963h-0.811V44.676z M62.467,46.207h0.811v-1.089h-0.811V46.207z M63.637,46.9c0.253,0.549,0.315,0.738,0.505,1.449L63.7,48.502
		c-0.135-0.639-0.261-1.017-0.468-1.484L63.637,46.9z M66.185,42.795c0.396-0.639,0.612-1.107,0.838-1.828l0.558,0.216
		c-0.288,0.693-0.486,1.054-0.846,1.612h0.585c0.405,0,0.594-0.009,0.801-0.045v0.603c-0.216-0.036-0.44-0.045-0.837-0.045h-0.954
		v1.179h0.756c0.396,0,0.595-0.009,0.811-0.045v0.594c-0.216-0.036-0.414-0.045-0.792-0.045h-0.774v1.395h1.107
		c0.333,0,0.603-0.018,0.854-0.045v0.621c-0.242-0.035-0.495-0.054-0.837-0.054h-1.125v1.296c0,0.379,0.018,0.676,0.054,0.964
		h-0.666c0.036-0.253,0.054-0.576,0.054-0.973v-1.287h-0.963c-0.45,0-0.631,0.009-0.828,0.045v-0.612
		c0.278,0.036,0.504,0.045,0.819,0.045h0.972v-1.395h-0.72c-0.405,0-0.54,0.009-0.747,0.045v-0.594
		c0.216,0.036,0.396,0.045,0.756,0.045h0.711v-1.179h-0.9c-0.359,0-0.594,0.009-0.81,0.045V42.75
		c0.216,0.036,0.387,0.045,0.765,0.045H66.185z M64.996,41.03c0.279,0.495,0.414,0.801,0.64,1.44l-0.514,0.207
		c-0.161-0.549-0.333-0.945-0.621-1.431L64.996,41.03z"/>
</g>
<g>
	<path d="M30.679,37.795c0-0.266,0.021-0.553,0.056-0.833c-0.104,0.21-0.224,0.42-0.351,0.582c-0.069,0.084-0.153,0.126-0.245,0.126
		c-0.056,0-0.111-0.014-0.153-0.049c-0.077-0.049-0.112-0.133-0.112-0.217c0-0.063,0.021-0.126,0.07-0.175
		c0.658-0.784,1.113-1.8,1.33-2.731c0.028-0.119,0.105-0.175,0.231-0.175c0.028,0,0.056,0,0.091,0.007
		c0.126,0.021,0.21,0.098,0.21,0.217c0,0.028,0,0.049-0.007,0.077c-0.119,0.462-0.308,0.995-0.588,1.569v4.398
		c0,0.133-0.099,0.203-0.267,0.203c-0.154,0-0.266-0.07-0.266-0.203V37.795z M31.967,35.96c-0.126,0-0.195-0.105-0.195-0.252
		c0-0.147,0.069-0.245,0.195-0.245h1.724v-0.875c0-0.14,0.119-0.203,0.272-0.203c0.161,0,0.28,0.063,0.28,0.203v0.875h1.954
		c0.133,0,0.203,0.098,0.203,0.245c0,0.147-0.07,0.252-0.203,0.252h-1.835c0.049,0.539,0.168,1.064,0.344,1.576
		c0.413-0.28,0.854-0.665,1.085-0.938c0.042-0.056,0.105-0.084,0.175-0.084c0.063,0,0.127,0.021,0.183,0.07
		c0.077,0.056,0.112,0.14,0.112,0.224c0,0.063-0.021,0.119-0.07,0.168c-0.336,0.336-0.806,0.714-1.296,1.037
		c0.371,0.819,0.903,1.485,1.548,2.024c0.057,0.056,0.091,0.126,0.091,0.203c0,0.07-0.027,0.133-0.076,0.196
		c-0.063,0.077-0.141,0.112-0.225,0.112c-0.07,0-0.14-0.028-0.196-0.077c-1.177-1.043-1.947-2.486-2.143-4.51h-0.05
		c-0.168,0.406-0.378,0.792-0.63,1.148v2.71c0.413-0.105,0.819-0.224,1.155-0.343c0.042-0.014,0.077-0.021,0.112-0.021
		c0.105,0,0.175,0.056,0.217,0.154c0.008,0.035,0.015,0.07,0.015,0.105c0,0.098-0.049,0.182-0.154,0.217
		c-0.777,0.294-1.779,0.539-2.542,0.687c-0.021,0.007-0.042,0.007-0.063,0.007c-0.133,0-0.217-0.084-0.238-0.224
		c-0.007-0.021-0.007-0.049-0.007-0.07c0-0.126,0.07-0.217,0.189-0.238c0.245-0.035,0.511-0.091,0.784-0.147v-2.192
		c-0.273,0.294-0.567,0.546-0.868,0.771c-0.063,0.049-0.127,0.07-0.183,0.07c-0.077,0-0.14-0.035-0.196-0.105
		c-0.042-0.056-0.063-0.119-0.063-0.182c0-0.084,0.042-0.168,0.119-0.224c0.771-0.518,1.456-1.261,1.828-2.122H31.967z"/>
	<path d="M38.512,40.555c0,0.133-0.104,0.203-0.273,0.203c-0.153,0-0.272-0.07-0.272-0.203v-2.788
		c-0.21,0.238-0.406,0.427-0.561,0.553c-0.049,0.042-0.105,0.063-0.168,0.063c-0.084,0-0.161-0.042-0.225-0.126
		c-0.034-0.056-0.056-0.112-0.056-0.175c0-0.077,0.035-0.154,0.105-0.21c0.336-0.266,0.63-0.54,0.903-0.84v-0.294
		c0-0.133,0.119-0.196,0.272-0.196c0.05,0,0.085,0.007,0.119,0.014c0.245-0.315,0.448-0.658,0.638-1.008H37.23
		c-0.134,0-0.196-0.105-0.196-0.252c0-0.154,0.063-0.252,0.196-0.252h1.996c0.084-0.196,0.161-0.399,0.238-0.609
		c0.034-0.112,0.111-0.175,0.23-0.175c0.028,0,0.057,0,0.091,0.007c0.141,0.028,0.225,0.105,0.225,0.203
		c0,0.028-0.007,0.056-0.014,0.084c-0.063,0.168-0.134,0.329-0.196,0.49h3.403c0.126,0,0.196,0.098,0.196,0.252
		c0,0.147-0.07,0.252-0.196,0.252h-3.635c-0.294,0.588-0.638,1.148-1.058,1.653V40.555z M39.086,38.587
		c-0.119,0-0.188-0.098-0.188-0.245s0.069-0.245,0.188-0.245h1.898v-0.483c0-0.126,0.104-0.189,0.259-0.189
		c0.028,0,0.063,0,0.084,0.007c0.302-0.14,0.609-0.336,0.792-0.497c0.049-0.042,0.077-0.084,0.077-0.105
		c0-0.035-0.035-0.056-0.112-0.056h-2.501c-0.126,0-0.195-0.105-0.195-0.245c0-0.147,0.069-0.238,0.195-0.238h2.872
		c0.301,0,0.469,0.168,0.469,0.371c0,0.112-0.056,0.238-0.168,0.351c-0.329,0.301-0.763,0.574-1.253,0.805v0.28h1.758
		c0.119,0,0.182,0.098,0.182,0.245s-0.063,0.245-0.182,0.245h-1.758v1.534c0,0.392-0.26,0.574-0.82,0.574
		c-0.23,0-0.448-0.021-0.63-0.07c-0.112-0.028-0.175-0.112-0.175-0.224c0-0.028,0.007-0.063,0.014-0.091
		c0.028-0.126,0.112-0.189,0.225-0.189c0.021,0,0.049,0,0.069,0.007c0.134,0.042,0.28,0.07,0.448,0.07
		c0.273,0,0.351-0.042,0.351-0.217v-1.394H39.086z"/>
</g>
<g>
	<path d="M13.674,20.072c-0.217,0-0.287,0.07-0.287,0.287c0,0.959-0.007,1.779-0.077,2.535c-0.098,1.022-0.336,1.821-0.581,2.339
		c-0.056,0.119-0.147,0.175-0.238,0.175c-0.049,0-0.098-0.014-0.147-0.035c-0.111-0.056-0.175-0.147-0.175-0.252
		c0-0.042,0.007-0.084,0.035-0.126c0.273-0.539,0.477-1.253,0.554-2.206c0.056-0.672,0.069-1.52,0.069-2.591
		c0-0.435,0.238-0.638,0.666-0.638h4.776c0.14,0,0.217,0.112,0.217,0.259s-0.077,0.252-0.217,0.252H13.674z M18.395,24.786
		c0.126,0,0.196,0.105,0.196,0.252c0,0.154-0.07,0.266-0.196,0.266h-4.917c-0.126,0-0.195-0.112-0.195-0.266
		c0-0.147,0.069-0.252,0.195-0.252h2.13v-2.241h-1.618c-0.126,0-0.196-0.112-0.196-0.259s0.07-0.245,0.196-0.245h1.618v-1.471
		c0-0.133,0.111-0.196,0.279-0.196c0.169,0,0.28,0.063,0.28,0.196v1.471h1.898c0.119,0,0.189,0.098,0.189,0.245
		s-0.07,0.259-0.189,0.259h-1.898v2.241H18.395z"/>
	<path d="M19.799,22.551c0-0.266,0.021-0.567,0.069-0.854c-0.126,0.266-0.266,0.54-0.406,0.735
		c-0.049,0.077-0.119,0.112-0.188,0.112c-0.057,0-0.119-0.021-0.183-0.07C19.028,22.432,19,22.369,19,22.299
		c0-0.056,0.021-0.119,0.063-0.182c0.581-0.819,1.001-1.772,1.239-2.788c0.028-0.112,0.112-0.168,0.225-0.168
		c0.034,0,0.063,0.007,0.098,0.014c0.126,0.028,0.203,0.098,0.203,0.21c0,0.028-0.007,0.056-0.014,0.084
		c-0.119,0.455-0.273,0.911-0.483,1.359v4.644c0,0.133-0.112,0.196-0.273,0.196c-0.154,0-0.259-0.063-0.259-0.196V22.551z
		 M23.272,22.846c0.126,0,0.196,0.091,0.196,0.238c0,0.14-0.07,0.238-0.196,0.238h-0.932v1.037c0.364-0.07,0.722-0.154,1.029-0.245
		c0.021-0.007,0.042-0.007,0.063-0.007c0.098,0,0.168,0.077,0.196,0.196c0.007,0.021,0.007,0.042,0.007,0.063
		c0,0.126-0.057,0.203-0.168,0.224c-0.792,0.224-1.793,0.414-2.605,0.519c-0.007,0-0.021,0-0.028,0
		c-0.126,0-0.224-0.077-0.245-0.231c0-0.021,0-0.035,0-0.049c0-0.133,0.077-0.224,0.203-0.238c0.315-0.035,0.68-0.084,1.051-0.14
		v-1.127h-0.896c-0.126,0-0.196-0.098-0.196-0.238c0-0.147,0.07-0.238,0.196-0.238h0.896V22.18c0-0.126,0.084-0.189,0.245-0.189
		s0.252,0.063,0.252,0.189v0.666H23.272z M22.117,20.065c-0.161,0.462-0.357,0.911-0.582,1.352c0.428-0.021,0.861-0.07,1.282-0.133
		c-0.105-0.189-0.225-0.371-0.344-0.532c-0.027-0.042-0.042-0.077-0.042-0.112c0-0.077,0.049-0.14,0.141-0.182
		c0.035-0.021,0.077-0.028,0.111-0.028c0.077,0,0.141,0.035,0.189,0.105c0.259,0.357,0.525,0.827,0.687,1.198
		c0.021,0.042,0.028,0.077,0.028,0.119c0,0.084-0.05,0.154-0.141,0.189c-0.035,0.021-0.077,0.028-0.112,0.028
		c-0.091,0-0.168-0.049-0.203-0.133c-0.027-0.07-0.063-0.154-0.098-0.231c-0.687,0.112-1.471,0.196-2.164,0.238
		c-0.007,0-0.007,0-0.014,0c-0.134,0-0.218-0.098-0.225-0.252c0-0.007,0-0.014,0-0.021c0-0.126,0.07-0.224,0.189-0.224
		c0.063,0,0.126,0,0.188-0.007c0.238-0.441,0.421-0.896,0.582-1.373H21.08c-0.126,0-0.189-0.098-0.189-0.238
		c0-0.147,0.063-0.238,0.189-0.238h2.297c0.127,0,0.196,0.091,0.196,0.238c0,0.14-0.069,0.238-0.196,0.238H22.117z M24.351,23.777
		c0,0.126-0.111,0.196-0.266,0.196c-0.141,0-0.26-0.07-0.26-0.196v-3.971c0-0.119,0.119-0.182,0.26-0.182
		c0.154,0,0.266,0.063,0.266,0.189V23.777z M25.507,24.912c0,0.476-0.26,0.651-0.764,0.651c-0.238,0-0.483-0.028-0.673-0.063
		c-0.126-0.021-0.195-0.112-0.195-0.238c0-0.021,0-0.042,0.007-0.063c0.021-0.14,0.104-0.217,0.217-0.217
		c0.021,0,0.035,0,0.057,0.007c0.168,0.035,0.364,0.063,0.518,0.063c0.225,0,0.302-0.056,0.302-0.294v-5.302
		c0-0.126,0.111-0.196,0.266-0.196s0.267,0.07,0.267,0.196V24.912z"/>
</g>
<g>
	<path d="M61.755,19.734c0-0.28,0.027-0.588,0.069-0.883c-0.126,0.252-0.259,0.483-0.42,0.701c-0.056,0.077-0.133,0.119-0.21,0.119
		c-0.063,0-0.119-0.021-0.175-0.07c-0.077-0.063-0.112-0.133-0.112-0.203c0-0.056,0.021-0.119,0.069-0.175
		c0.589-0.757,1.058-1.723,1.311-2.753c0.034-0.119,0.111-0.175,0.23-0.175c0.035,0,0.07,0.007,0.105,0.014
		c0.133,0.028,0.21,0.105,0.21,0.217c0,0.028-0.007,0.056-0.014,0.091c-0.147,0.462-0.322,0.945-0.532,1.421v4.588
		c0,0.133-0.105,0.196-0.267,0.196c-0.154,0-0.266-0.063-0.266-0.196V19.734z M63.624,20.575c-0.133,0-0.195-0.091-0.195-0.224
		c0-0.126,0.063-0.203,0.195-0.203h2.704c0.272,0,0.427,0.154,0.427,0.35c0,0.112-0.049,0.245-0.154,0.364
		c-0.272,0.301-0.602,0.588-0.973,0.833c0.504,0.245,1.092,0.399,1.736,0.511c0.141,0.021,0.225,0.126,0.225,0.266
		c0,0.021,0,0.042-0.007,0.063c-0.021,0.14-0.119,0.224-0.253,0.224c-0.027,0-0.049,0-0.077-0.007
		c-0.763-0.168-1.478-0.413-2.087-0.777c-0.651,0.364-1.387,0.637-2.107,0.777c-0.028,0.007-0.063,0.007-0.092,0.007
		c-0.126,0-0.224-0.063-0.252-0.196c-0.007-0.028-0.007-0.056-0.007-0.077c0-0.112,0.07-0.196,0.203-0.224
		c0.658-0.133,1.274-0.329,1.813-0.582c-0.406-0.322-0.714-0.672-0.994-1.106H63.624z M66.902,19.23c0.406,0,0.595,0.14,0.595,0.546
		v0.518c0,0.147-0.104,0.203-0.259,0.203c-0.146,0-0.266-0.056-0.266-0.203v-0.455c0-0.133-0.07-0.168-0.189-0.168h-3.32
		c-0.118,0-0.188,0.035-0.188,0.168v0.455c0,0.147-0.119,0.203-0.273,0.203c-0.146,0-0.252-0.056-0.252-0.203v-0.518
		c0-0.406,0.189-0.546,0.588-0.546H66.902z M66.475,17.164c0-0.147-0.063-0.189-0.21-0.189h-2.857c-0.112,0-0.175-0.098-0.175-0.224
		c0-0.119,0.063-0.224,0.175-0.224h2.998c0.392,0,0.574,0.14,0.574,0.525v1.226c0,0.378-0.183,0.525-0.574,0.525h-3.061
		c-0.112,0-0.176-0.098-0.176-0.217s0.063-0.224,0.176-0.224h2.92c0.147,0,0.21-0.035,0.21-0.182v-0.301h-2.927
		c-0.105,0-0.161-0.098-0.161-0.21c0-0.112,0.056-0.217,0.161-0.217h2.927V17.164z M64.262,20.575
		c0.231,0.343,0.554,0.645,0.903,0.869c0.364-0.217,0.687-0.462,0.945-0.75c0.035-0.042,0.05-0.063,0.05-0.084
		c0-0.028-0.035-0.035-0.099-0.035H64.262z"/>
	<path d="M68.201,17.332c0-0.427,0.189-0.609,0.561-0.609h1.365c0.364,0,0.547,0.182,0.547,0.609v3.971
		c0,0.427-0.183,0.609-0.547,0.609h-1.365c-0.371,0-0.561-0.182-0.561-0.609V17.332z M68.866,17.192
		c-0.111,0-0.188,0.056-0.188,0.189v1.625h0.539v-1.814H68.866z M69.217,19.454h-0.539v1.793c0,0.133,0.077,0.189,0.188,0.189h0.351
		V19.454z M69.658,19.006h0.546v-1.625c0-0.133-0.07-0.189-0.182-0.189h-0.364V19.006z M70.022,21.436
		c0.111,0,0.182-0.056,0.182-0.189v-1.793h-0.546v1.982H70.022z M73.615,16.884c0.308,0,0.49,0.161,0.49,0.392
		c0,0.084-0.028,0.182-0.077,0.287c-0.231,0.476-0.574,0.932-0.987,1.338c0.427,0.357,0.924,0.651,1.464,0.896
		c0.098,0.035,0.153,0.119,0.153,0.224c0,0.035-0.007,0.077-0.027,0.119c-0.042,0.112-0.141,0.175-0.238,0.175
		c-0.028,0-0.056-0.007-0.084-0.014c-0.603-0.28-1.163-0.644-1.632-1.064c-0.477,0.399-1.016,0.75-1.555,1.022
		c-0.05,0.021-0.099,0.035-0.147,0.035c-0.084,0-0.154-0.042-0.196-0.133c-0.021-0.042-0.035-0.084-0.035-0.133
		c0-0.091,0.042-0.175,0.134-0.217c0.518-0.245,1.016-0.56,1.449-0.917c-0.273-0.294-0.511-0.616-0.7-0.973
		c-0.133,0.175-0.28,0.343-0.435,0.497c-0.056,0.063-0.133,0.091-0.203,0.091c-0.063,0-0.126-0.028-0.175-0.084
		c-0.042-0.042-0.063-0.105-0.063-0.168s0.027-0.133,0.084-0.196c0.482-0.462,0.861-1.015,1.085-1.618
		c0.042-0.119,0.119-0.161,0.225-0.161c0.027,0,0.056,0.007,0.084,0.007c0.126,0.035,0.203,0.098,0.203,0.203
		c0,0.042-0.015,0.084-0.035,0.14c-0.035,0.084-0.077,0.168-0.119,0.252H73.615z M74.092,22.073c0,0.406-0.176,0.554-0.596,0.554
		h-1.702c-0.42,0-0.595-0.147-0.595-0.554v-1.337c0-0.371,0.195-0.532,0.616-0.532h1.667c0.413,0,0.609,0.161,0.609,0.532V22.073z
		 M73.355,22.158c0.147,0,0.218-0.042,0.218-0.196v-1.1c0-0.154-0.07-0.189-0.218-0.189h-1.421c-0.141,0-0.218,0.035-0.218,0.189
		v1.1c0,0.154,0.077,0.196,0.218,0.196H73.355z M72.032,17.332c-0.042,0.063-0.077,0.126-0.119,0.182
		c0.21,0.385,0.462,0.742,0.771,1.058c0.343-0.336,0.623-0.708,0.813-1.093c0.014-0.028,0.021-0.056,0.021-0.077
		c0-0.049-0.034-0.07-0.104-0.07H72.032z"/>
	<path d="M78.149,20.301c-0.245,0.722-0.448,1.037-0.693,1.268c-0.224,0.217-0.518,0.308-0.805,0.308
		c-0.729,0-1.311-0.708-1.311-1.884c0-1.744,1.219-3.004,3.131-3.004c1.653,0,2.746,1.079,2.746,2.619
		c0,0.988-0.428,1.737-1.156,2.199c-0.406,0.259-0.91,0.42-1.471,0.504c-0.028,0.007-0.056,0.007-0.077,0.007
		c-0.146,0-0.266-0.07-0.294-0.246c-0.007-0.021-0.007-0.049-0.007-0.07c0-0.14,0.091-0.245,0.252-0.273
		c0.512-0.07,1.051-0.245,1.4-0.504c0.441-0.329,0.764-0.896,0.764-1.632c0-1.184-0.777-2.045-2.017-2.087
		C78.549,18.572,78.395,19.552,78.149,20.301z M75.908,19.986c0,0.84,0.357,1.282,0.729,1.282c0.161,0,0.322-0.056,0.47-0.203
		c0.153-0.147,0.314-0.448,0.483-0.959c0.217-0.658,0.392-1.618,0.44-2.578C76.749,17.647,75.908,18.627,75.908,19.986z"/>
	<path d="M83.069,20.259c0.028,0,0.057,0.007,0.092,0.014c0.126,0.028,0.195,0.112,0.195,0.238c0,0.028-0.007,0.063-0.014,0.098
		c-0.133,0.553-0.42,1.218-0.742,1.66c-0.063,0.091-0.161,0.133-0.252,0.133c-0.063,0-0.119-0.014-0.169-0.049
		c-0.076-0.056-0.111-0.14-0.111-0.224c0-0.056,0.021-0.119,0.056-0.161c0.294-0.392,0.567-0.973,0.707-1.52
		C82.859,20.33,82.943,20.259,83.069,20.259z M82.439,17.185c-0.126,0-0.196-0.098-0.196-0.245c0-0.14,0.07-0.238,0.196-0.238h2.073
		c0.126,0,0.196,0.091,0.196,0.238c0,0.147-0.07,0.245-0.196,0.245h-0.764v1.569c0.224-0.077,0.441-0.161,0.623-0.238
		c0.042-0.014,0.07-0.021,0.105-0.021c0.077,0,0.14,0.042,0.168,0.126c0.014,0.035,0.021,0.07,0.021,0.105
		c0,0.098-0.049,0.196-0.133,0.231c-0.581,0.273-1.471,0.575-2.129,0.757c-0.028,0.007-0.049,0.007-0.07,0.007
		c-0.104,0-0.203-0.07-0.238-0.203c-0.007-0.035-0.014-0.07-0.014-0.098c0-0.119,0.063-0.203,0.189-0.231
		c0.294-0.07,0.623-0.168,0.959-0.266v-1.737H82.439z M83.91,20.365c0-0.119,0.112-0.203,0.273-0.203s0.272,0.084,0.272,0.203v1.492
		c0,0.245,0.063,0.287,0.995,0.287c0.848,0,1.001-0.077,1.071-0.231c0.042-0.091,0.077-0.252,0.091-0.469
		c0.007-0.133,0.099-0.217,0.231-0.217c0.014,0,0.035,0,0.049,0c0.154,0.021,0.238,0.112,0.238,0.238c0,0.007,0,0.021,0,0.028
		c-0.021,0.287-0.07,0.518-0.183,0.735c-0.153,0.28-0.398,0.406-1.498,0.406c-1.261,0-1.541-0.063-1.541-0.666V20.365z
		 M86.858,16.534c0.399,0,0.574,0.154,0.574,0.546v2.031c0,0.154,0.05,0.189,0.273,0.189c0.168,0,0.259-0.049,0.294-0.175
		c0.049-0.168,0.077-0.42,0.084-0.638c0.008-0.147,0.105-0.21,0.238-0.21c0.007,0,0.015,0,0.021,0
		c0.119,0.007,0.217,0.084,0.217,0.224c0,0.007,0,0.007,0,0.014c-0.014,0.392-0.056,0.7-0.161,0.932
		c-0.104,0.231-0.294,0.315-0.707,0.315c-0.624,0-0.777-0.119-0.777-0.504v-2.08c0-0.133-0.057-0.175-0.196-0.175h-0.96
		c-0.14,0-0.196,0.042-0.196,0.175c0,1.226-0.168,1.982-0.798,2.654c-0.077,0.07-0.154,0.105-0.238,0.105
		c-0.049,0-0.105-0.021-0.161-0.056c-0.07-0.056-0.098-0.126-0.098-0.189c0-0.077,0.027-0.147,0.091-0.196
		c0.588-0.553,0.672-1.205,0.672-2.417c0-0.392,0.183-0.546,0.575-0.546H86.858z M85.248,20.014c0.063,0,0.126,0.028,0.182,0.07
		c0.26,0.238,0.589,0.609,0.792,0.911c0.034,0.056,0.056,0.112,0.056,0.168c0,0.063-0.028,0.126-0.098,0.175
		c-0.057,0.042-0.119,0.063-0.183,0.063c-0.077,0-0.154-0.035-0.196-0.105c-0.21-0.301-0.511-0.644-0.763-0.889
		c-0.042-0.035-0.063-0.091-0.063-0.147c0-0.063,0.035-0.133,0.098-0.182C85.129,20.035,85.185,20.014,85.248,20.014z
		 M85.935,17.682c0.069,0,0.133,0.028,0.182,0.091c0.203,0.28,0.448,0.659,0.588,0.911c0.021,0.035,0.028,0.077,0.028,0.112
		c0,0.084-0.042,0.168-0.126,0.217c-0.049,0.021-0.091,0.035-0.14,0.035c-0.084,0-0.168-0.042-0.211-0.126
		c-0.098-0.203-0.35-0.616-0.553-0.896c-0.021-0.035-0.035-0.077-0.035-0.112c0-0.07,0.035-0.133,0.098-0.175
		C85.822,17.703,85.878,17.682,85.935,17.682z M87.321,20.217c0.084,0,0.161,0.035,0.224,0.119c0.386,0.483,0.7,1.037,0.932,1.562
		c0.028,0.042,0.035,0.091,0.035,0.133c0,0.112-0.063,0.196-0.161,0.245c-0.049,0.021-0.091,0.028-0.133,0.028
		c-0.105,0-0.196-0.056-0.245-0.175c-0.211-0.511-0.532-1.058-0.89-1.527c-0.035-0.042-0.049-0.091-0.049-0.14
		c0-0.084,0.049-0.161,0.133-0.203C87.216,20.231,87.271,20.217,87.321,20.217z"/>
	<path d="M90.98,18.327c-0.008,0.126-0.008,0.252-0.008,0.336c-0.007,0.112-0.014,0.196-0.034,0.315
		c0.063-0.084,0.146-0.189,0.224-0.267c0.189-0.189,0.413-0.399,0.609-0.553c0.596-0.469,1.079-0.707,1.59-0.707
		c0.651,0,1.037,0.399,1.037,0.973c0,0.364-0.043,0.666-0.141,1.184c-0.147,0.778-0.217,1.254-0.217,1.527
		c0,0.343,0.14,0.462,0.378,0.462c0.273,0,0.477-0.175,0.673-0.756c0.042-0.126,0.133-0.196,0.245-0.196
		c0.034,0,0.076,0.007,0.111,0.021c0.119,0.042,0.183,0.133,0.183,0.245c0,0.035-0.007,0.077-0.021,0.119
		c-0.272,0.854-0.672,1.163-1.232,1.163c-0.532,0-0.925-0.308-0.925-0.98c0-0.329,0.057-0.833,0.203-1.576
		c0.099-0.504,0.147-0.84,0.147-1.1c0-0.35-0.183-0.546-0.525-0.546c-0.406,0-0.813,0.224-1.38,0.693
		c-0.266,0.224-0.623,0.588-0.932,0.932c-0.007,0.273-0.007,0.539-0.007,0.813c0,0.651,0.014,1.303,0.021,1.975
		c0,0.154-0.105,0.252-0.28,0.252c-0.007,0-0.007,0-0.015,0c-0.146,0-0.279-0.091-0.279-0.245c0-0.399-0.008-0.833-0.008-1.205
		c0-0.154,0-0.294,0-0.413c0-0.175,0.008-0.385,0.035-0.666c-0.077,0.154-0.146,0.245-0.217,0.343
		c-0.203,0.287-0.435,0.567-0.616,0.813c-0.07,0.091-0.147,0.126-0.231,0.126c-0.063,0-0.133-0.028-0.189-0.077
		c-0.063-0.056-0.098-0.133-0.098-0.21c0-0.07,0.028-0.147,0.077-0.21c0.364-0.462,0.799-1.008,1.254-1.499
		c0.007-0.371,0.014-0.722,0.027-1.114c-0.301,0.028-0.651,0.056-0.994,0.091c-0.007,0-0.021,0-0.028,0
		c-0.14,0-0.245-0.098-0.252-0.231c0-0.014,0-0.021,0-0.035c0-0.154,0.091-0.273,0.217-0.287c0.357-0.035,0.729-0.056,1.072-0.084
		c0.007-0.329,0.021-0.679,0.035-1.043c0-0.175,0.104-0.266,0.272-0.266c0.007,0,0.015,0,0.021,0c0.161,0,0.266,0.084,0.266,0.259
		c0,0,0,0.007,0,0.014c-0.021,0.336-0.035,0.659-0.049,1.002c0.007,0,0.014,0,0.021,0c0.161,0,0.259,0.098,0.259,0.217
		c0,0.077-0.035,0.154-0.105,0.217L90.98,18.327z"/>
</g>
<g>
	<path d="M77.106,32.521c-0.371,0-0.539-0.147-0.539-0.498v-1.037c0-0.357,0.168-0.504,0.539-0.504h2.122
		c0.371,0,0.547,0.147,0.547,0.504v1.037c0,0.35-0.176,0.498-0.547,0.498h-0.833v0.385h1.491c0.119,0,0.176,0.105,0.176,0.224
		c0,0.126-0.057,0.224-0.176,0.224h-3.529c-0.119,0-0.175-0.098-0.175-0.224c0-0.112,0.056-0.224,0.175-0.224h1.526v-0.385H77.106z
		 M77.366,35.49c0,0.028-0.008,0.063-0.021,0.098c-0.147,0.308-0.42,0.722-0.658,0.945c-0.056,0.056-0.126,0.084-0.196,0.084
		c-0.063,0-0.126-0.021-0.175-0.077c-0.042-0.049-0.07-0.105-0.07-0.168c0-0.056,0.021-0.112,0.063-0.154
		c0.224-0.21,0.455-0.532,0.602-0.84c0.035-0.077,0.112-0.119,0.189-0.119c0.042,0,0.077,0.007,0.119,0.028
		C77.316,35.329,77.366,35.399,77.366,35.49z M77.247,35.07c-0.386,0-0.567-0.119-0.567-0.448v-0.49c0-0.33,0.182-0.456,0.567-0.456
		h1.855c0.371,0,0.547,0.126,0.547,0.456v0.49c0,0.329-0.176,0.448-0.547,0.448h-0.665v1.142c0,0.392-0.175,0.574-0.609,0.574
		c-0.175,0-0.336-0.028-0.435-0.049c-0.104-0.028-0.168-0.098-0.168-0.217c0-0.021,0-0.042,0.007-0.063
		c0.021-0.126,0.092-0.189,0.189-0.189c0.014,0,0.028,0,0.042,0.007c0.07,0.014,0.182,0.035,0.28,0.035
		c0.133,0,0.182-0.049,0.182-0.231V35.07H77.247z M79.285,31.323v-0.28c0-0.119-0.063-0.154-0.189-0.154h-1.856
		c-0.118,0-0.182,0.035-0.182,0.154v0.28H79.285z M77.058,31.988c0,0.119,0.063,0.154,0.182,0.154h1.856
		c0.126,0,0.189-0.035,0.189-0.154v-0.287h-2.228V31.988z M78.956,34.671c0.126,0,0.195-0.035,0.195-0.154v-0.294
		c0-0.112-0.069-0.147-0.195-0.147h-1.583c-0.126,0-0.196,0.035-0.196,0.147v0.294c0,0.119,0.07,0.154,0.196,0.154H78.956z
		 M79.096,35.259c0.07,0,0.133,0.028,0.168,0.084c0.161,0.196,0.357,0.532,0.455,0.729c0.021,0.042,0.035,0.084,0.035,0.126
		c0,0.077-0.049,0.147-0.133,0.203c-0.042,0.021-0.084,0.035-0.126,0.035c-0.084,0-0.161-0.056-0.196-0.14
		c-0.091-0.196-0.259-0.504-0.413-0.708c-0.028-0.042-0.042-0.084-0.042-0.119c0-0.07,0.035-0.126,0.112-0.168
		C79.005,35.273,79.054,35.259,79.096,35.259z M82.661,34.517c0,0.056-0.021,0.119-0.07,0.175c-0.609,0.777-1.548,1.555-2.382,1.968
		c-0.049,0.028-0.098,0.042-0.146,0.042c-0.099,0-0.183-0.056-0.231-0.161c-0.021-0.042-0.035-0.091-0.035-0.14
		c0-0.098,0.057-0.189,0.161-0.238c0.771-0.371,1.632-1.092,2.192-1.814c0.063-0.077,0.14-0.119,0.217-0.119
		c0.057,0,0.119,0.021,0.176,0.07C82.618,34.363,82.661,34.44,82.661,34.517z M82.275,30.658c0,0.056-0.021,0.112-0.063,0.161
		c-0.448,0.504-1.198,1.093-1.793,1.415c-0.05,0.021-0.099,0.035-0.147,0.035c-0.099,0-0.196-0.056-0.238-0.154
		c-0.021-0.049-0.035-0.091-0.035-0.14c0-0.091,0.057-0.175,0.141-0.217c0.567-0.28,1.253-0.813,1.646-1.282
		c0.049-0.063,0.119-0.098,0.196-0.098c0.063,0,0.133,0.028,0.188,0.077C82.24,30.518,82.275,30.588,82.275,30.658z M82.492,32.5
		c0,0.056-0.021,0.112-0.063,0.161c-0.532,0.617-1.359,1.261-2.018,1.618c-0.056,0.035-0.104,0.049-0.153,0.049
		c-0.092,0-0.169-0.049-0.218-0.154c-0.027-0.049-0.042-0.105-0.042-0.154c0-0.091,0.049-0.182,0.141-0.224
		c0.616-0.315,1.436-0.938,1.862-1.464c0.057-0.07,0.134-0.105,0.203-0.105c0.063,0,0.126,0.021,0.183,0.07
		C82.458,32.353,82.492,32.43,82.492,32.5z"/>
	<path d="M83.938,33.816c-0.084,0-0.14-0.098-0.14-0.196c0-0.063,0.021-0.119,0.056-0.154c-0.07,0.042-0.14,0.077-0.21,0.112
		c-0.042,0.021-0.084,0.028-0.119,0.028c-0.084,0-0.154-0.035-0.196-0.112c-0.021-0.035-0.035-0.077-0.035-0.119
		c0-0.084,0.042-0.168,0.126-0.203c0.463-0.189,0.827-0.441,1.1-0.75c-0.378,0.056-0.805,0.105-1.134,0.126
		c-0.008,0-0.008,0-0.015,0c-0.112,0-0.217-0.07-0.224-0.182c0-0.007,0-0.021,0-0.028c0-0.112,0.077-0.196,0.175-0.196
		c0.105,0,0.217-0.007,0.336-0.014c0.112-0.098,0.225-0.21,0.329-0.315c-0.203-0.224-0.469-0.469-0.672-0.624
		c-0.057-0.035-0.077-0.091-0.077-0.14c0-0.042,0.014-0.091,0.056-0.126c0.042-0.056,0.105-0.084,0.161-0.084
		c0.042,0,0.084,0.014,0.126,0.042c0.035,0.028,0.077,0.063,0.119,0.098c0.176-0.182,0.364-0.427,0.47-0.588
		c0.042-0.077,0.104-0.105,0.168-0.105c0.042,0,0.084,0.014,0.126,0.042c0.07,0.042,0.112,0.105,0.112,0.175
		c0,0.035-0.007,0.063-0.028,0.098c-0.14,0.217-0.351,0.456-0.546,0.638c0.091,0.091,0.182,0.175,0.266,0.266
		c0.168-0.189,0.322-0.378,0.448-0.561c0.035-0.049,0.091-0.077,0.154-0.077c0.049,0,0.098,0.014,0.14,0.042
		c0.063,0.042,0.099,0.112,0.099,0.182c0,0.035-0.015,0.077-0.035,0.105c-0.28,0.336-0.589,0.665-0.861,0.903
		c0.196-0.021,0.399-0.035,0.595-0.063c0.05-0.077,0.092-0.154,0.127-0.231c0.027-0.07,0.091-0.105,0.16-0.105
		c0.035,0,0.07,0.007,0.112,0.021c0.07,0.021,0.112,0.084,0.112,0.154c0,0.028-0.007,0.056-0.014,0.084
		c-0.26,0.637-0.771,1.127-1.401,1.485c0.007-0.007,0.021-0.007,0.035-0.007h2.192v-0.175c0-0.105,0.104-0.154,0.252-0.154
		c0.154,0,0.252,0.049,0.252,0.154v0.175h2.396c0.084,0,0.14,0.077,0.14,0.182c0,0.098-0.056,0.196-0.14,0.196h-1.093
		c-0.056,0.133-0.104,0.259-0.168,0.385h1.73c0.084,0,0.14,0.084,0.14,0.196c0,0.105-0.056,0.196-0.14,0.196h-6.171
		c-0.084,0-0.14-0.091-0.14-0.196c0-0.112,0.056-0.196,0.14-0.196h1.681c-0.042-0.133-0.091-0.259-0.146-0.385H83.938z
		 M88.211,34.888c0.371,0,0.546,0.112,0.546,0.427v0.952c0,0.322-0.175,0.441-0.546,0.441h-3.6c-0.372,0-0.547-0.119-0.547-0.441
		v-0.952c0-0.315,0.175-0.427,0.547-0.427H88.211z M88.281,35.616v-0.21c0-0.112-0.063-0.14-0.189-0.14H84.73
		c-0.127,0-0.189,0.028-0.189,0.14v0.21H88.281z M84.541,36.191c0,0.112,0.063,0.14,0.189,0.14h3.361
		c0.126,0,0.189-0.028,0.189-0.14v-0.21h-3.74V36.191z M86.929,32.094c0.057,0.007,0.105,0.028,0.134,0.063
		c0.168,0.182,0.434,0.539,0.525,0.693c0.027,0.035,0.035,0.07,0.035,0.105c0,0.084-0.057,0.161-0.127,0.196
		c-0.034,0.014-0.076,0.028-0.119,0.028c-0.076,0-0.14-0.035-0.188-0.112c-0.035-0.063-0.091-0.147-0.154-0.238
		c-0.554,0.133-1.204,0.245-1.793,0.308c-0.014,0-0.021,0-0.035,0c-0.098,0-0.168-0.07-0.182-0.175
		c-0.007-0.021-0.007-0.035-0.007-0.056c0-0.105,0.056-0.182,0.161-0.189c0.084-0.007,0.168-0.014,0.252-0.021v-1.863
		c0-0.287,0.153-0.42,0.483-0.42h1.058c0.321,0,0.476,0.133,0.476,0.42v0.875c0,0.28-0.154,0.385-0.504,0.385H86.929z
		 M85.389,33.816c0.056,0.126,0.104,0.252,0.146,0.385h1.709c0.07-0.126,0.126-0.252,0.176-0.385H85.389z M87.014,31.099v-0.203
		c0-0.105-0.057-0.133-0.161-0.133h-0.82c-0.111,0-0.168,0.028-0.168,0.133v0.203H87.014z M86.853,31.743
		c0.104,0,0.161-0.028,0.161-0.119v-0.203h-1.149v0.322H86.853z M85.864,32.647c0.05-0.007,0.092-0.014,0.141-0.021
		c0.266-0.035,0.532-0.07,0.791-0.126c-0.042-0.056-0.077-0.105-0.112-0.14c-0.021-0.028-0.034-0.063-0.034-0.098
		c0-0.056,0.034-0.112,0.098-0.14c0.028-0.014,0.063-0.021,0.091-0.028h-0.974V32.647z M88.239,33.144
		c0,0.105-0.092,0.175-0.225,0.175s-0.238-0.07-0.238-0.175v-2.276c0-0.329,0.154-0.448,0.505-0.448h0.84
		c0.273,0,0.441,0.161,0.441,0.357c0,0.063-0.021,0.133-0.07,0.203c-0.111,0.168-0.287,0.406-0.398,0.539
		c-0.028,0.035-0.042,0.063-0.042,0.091c0,0.021,0.014,0.049,0.049,0.077c0.315,0.245,0.504,0.462,0.504,0.791
		c0,0.378-0.259,0.617-0.616,0.617c-0.168,0-0.336-0.014-0.483-0.063c-0.077-0.028-0.126-0.105-0.126-0.196
		c0-0.021,0-0.042,0.007-0.063c0.028-0.105,0.099-0.154,0.189-0.154c0.014,0,0.035,0,0.056,0.007
		c0.063,0.014,0.196,0.042,0.294,0.042c0.134,0,0.211-0.07,0.211-0.224c0-0.21-0.196-0.385-0.483-0.616
		c-0.07-0.056-0.105-0.126-0.105-0.196c0-0.07,0.028-0.14,0.091-0.21c0.112-0.14,0.238-0.315,0.315-0.441
		c0.021-0.028,0.028-0.056,0.028-0.084c0-0.042-0.035-0.07-0.099-0.07h-0.469c-0.112,0-0.175,0.035-0.175,0.147V33.144z"/>
</g>
<g>
	<path d="M40.588,60.517c0-0.267,0.021-0.554,0.056-0.833c-0.104,0.21-0.224,0.42-0.35,0.581c-0.07,0.084-0.154,0.126-0.246,0.126
		c-0.056,0-0.111-0.014-0.153-0.049c-0.077-0.049-0.112-0.133-0.112-0.217c0-0.063,0.021-0.127,0.07-0.176
		c0.658-0.784,1.113-1.8,1.33-2.731c0.028-0.119,0.105-0.175,0.231-0.175c0.028,0,0.056,0,0.091,0.007
		c0.126,0.021,0.21,0.099,0.21,0.218c0,0.027,0,0.049-0.007,0.076c-0.119,0.463-0.308,0.994-0.588,1.568v4.398
		c0,0.134-0.099,0.203-0.267,0.203c-0.154,0-0.266-0.069-0.266-0.203V60.517z M41.876,58.682c-0.126,0-0.195-0.105-0.195-0.252
		c0-0.147,0.069-0.245,0.195-0.245H43.6v-0.876c0-0.14,0.119-0.203,0.272-0.203c0.161,0,0.28,0.063,0.28,0.203v0.876h1.954
		c0.133,0,0.203,0.098,0.203,0.245c0,0.146-0.07,0.252-0.203,0.252h-1.835c0.049,0.539,0.168,1.064,0.344,1.576
		c0.413-0.28,0.854-0.666,1.085-0.939c0.042-0.055,0.105-0.084,0.175-0.084c0.063,0,0.127,0.021,0.183,0.07
		c0.077,0.057,0.112,0.141,0.112,0.225c0,0.063-0.021,0.119-0.07,0.168c-0.336,0.336-0.806,0.715-1.296,1.037
		c0.371,0.818,0.903,1.484,1.548,2.023c0.057,0.057,0.091,0.126,0.091,0.203c0,0.07-0.027,0.133-0.076,0.196
		c-0.063,0.077-0.141,0.112-0.225,0.112c-0.07,0-0.14-0.028-0.196-0.078c-1.177-1.043-1.947-2.486-2.143-4.51h-0.05
		c-0.168,0.406-0.378,0.791-0.63,1.148v2.711c0.413-0.105,0.819-0.225,1.155-0.344c0.042-0.014,0.077-0.021,0.112-0.021
		c0.105,0,0.175,0.056,0.217,0.153c0.008,0.035,0.015,0.07,0.015,0.105c0,0.098-0.049,0.182-0.154,0.217
		c-0.777,0.295-1.779,0.539-2.542,0.688c-0.021,0.006-0.042,0.006-0.063,0.006c-0.133,0-0.217-0.084-0.238-0.224
		c-0.007-0.021-0.007-0.049-0.007-0.069c0-0.127,0.07-0.218,0.189-0.238c0.245-0.035,0.511-0.092,0.784-0.147v-2.192
		c-0.273,0.294-0.567,0.547-0.868,0.771c-0.063,0.049-0.127,0.069-0.183,0.069c-0.077,0-0.14-0.034-0.196-0.104
		c-0.042-0.056-0.063-0.119-0.063-0.183c0-0.084,0.042-0.168,0.119-0.224c0.771-0.519,1.456-1.261,1.828-2.122H41.876z"/>
	<path d="M48.421,63.276c0,0.133-0.104,0.203-0.273,0.203c-0.153,0-0.272-0.07-0.272-0.203v-2.788
		c-0.21,0.238-0.406,0.428-0.561,0.554c-0.049,0.042-0.105,0.063-0.168,0.063c-0.084,0-0.161-0.043-0.225-0.127
		c-0.034-0.056-0.056-0.111-0.056-0.175c0-0.077,0.035-0.153,0.105-0.21c0.336-0.266,0.63-0.539,0.903-0.84v-0.295
		c0-0.133,0.119-0.195,0.272-0.195c0.05,0,0.085,0.006,0.119,0.014c0.245-0.315,0.448-0.658,0.638-1.009H47.14
		c-0.134,0-0.196-0.104-0.196-0.253c0-0.153,0.063-0.252,0.196-0.252h1.996c0.084-0.195,0.161-0.398,0.238-0.609
		c0.034-0.111,0.111-0.175,0.23-0.175c0.028,0,0.057,0,0.091,0.007c0.141,0.028,0.225,0.105,0.225,0.203
		c0,0.028-0.007,0.057-0.014,0.084c-0.063,0.168-0.134,0.33-0.196,0.49h3.403c0.126,0,0.196,0.099,0.196,0.252
		c0,0.148-0.07,0.253-0.196,0.253h-3.635c-0.294,0.589-0.638,1.148-1.058,1.653V63.276z M48.995,61.309
		c-0.119,0-0.188-0.099-0.188-0.246c0-0.146,0.069-0.244,0.188-0.244h1.898v-0.484c0-0.125,0.104-0.188,0.259-0.188
		c0.028,0,0.063,0,0.084,0.007c0.302-0.141,0.609-0.336,0.792-0.497c0.049-0.042,0.077-0.084,0.077-0.104
		c0-0.035-0.035-0.057-0.112-0.057h-2.501c-0.126,0-0.195-0.105-0.195-0.245c0-0.147,0.069-0.238,0.195-0.238h2.872
		c0.301,0,0.469,0.168,0.469,0.371c0,0.112-0.056,0.238-0.168,0.351c-0.329,0.301-0.763,0.574-1.253,0.805v0.281h1.758
		c0.119,0,0.182,0.098,0.182,0.244c0,0.147-0.063,0.246-0.182,0.246h-1.758v1.533c0,0.393-0.26,0.574-0.82,0.574
		c-0.23,0-0.448-0.021-0.63-0.07c-0.112-0.027-0.175-0.111-0.175-0.224c0-0.028,0.007-0.063,0.014-0.091
		c0.028-0.127,0.112-0.189,0.225-0.189c0.021,0,0.049,0,0.069,0.008c0.134,0.041,0.28,0.069,0.448,0.069
		c0.273,0,0.351-0.042,0.351-0.218v-1.393H48.995z"/>
	<path d="M55.617,59.858c0.546-0.386,0.938-0.574,1.373-0.574c0.504,0,0.875,0.217,0.966,0.819c0.631-0.225,1.24-0.413,1.724-0.553
		c0.042-0.008,0.084-0.015,0.119-0.015c0.126,0,0.217,0.063,0.259,0.188c0.007,0.043,0.014,0.078,0.014,0.113
		c0,0.125-0.069,0.224-0.224,0.258c-0.512,0.134-1.17,0.309-1.842,0.555c0.014,0.252,0.021,0.496,0.021,0.748
		c0,0.134,0,0.267-0.007,0.4c-0.007,0.175-0.119,0.266-0.273,0.266c-0.161,0-0.259-0.091-0.259-0.266c0-0.189,0-0.421,0-0.645
		c0-0.112,0-0.231,0-0.336c-0.98,0.377-1.415,0.798-1.415,1.232c0,0.413,0.455,0.63,1.443,0.63c0.672,0,1.372-0.063,1.891-0.153
		c0.035-0.008,0.063-0.008,0.098-0.008c0.141,0,0.231,0.07,0.26,0.217c0.007,0.028,0.007,0.049,0.007,0.07
		c0,0.147-0.098,0.267-0.259,0.287c-0.525,0.092-1.205,0.147-1.954,0.147c-1.317,0-2.06-0.364-2.06-1.17
		c0-0.665,0.645-1.316,1.947-1.786c-0.042-0.427-0.252-0.546-0.561-0.546c-0.596,0-1.365,0.462-2.206,1.317
		c-0.063,0.069-0.147,0.104-0.225,0.104c-0.069,0-0.133-0.028-0.188-0.084c-0.063-0.056-0.091-0.134-0.091-0.21
		c0-0.084,0.034-0.162,0.098-0.225c0.603-0.561,1.205-1.289,1.66-2.01c-0.099,0-0.21,0-0.322,0c-0.351,0-0.75-0.008-1.064-0.021
		c-0.154-0.007-0.245-0.119-0.245-0.259c0-0.007,0-0.021,0-0.028c0.014-0.14,0.111-0.259,0.252-0.259c0.007,0,0.014,0,0.021,0
		c0.329,0.028,0.777,0.035,1.24,0.035c0.133,0,0.266,0,0.399,0c0.14-0.253,0.266-0.512,0.35-0.764
		c0.049-0.147,0.147-0.203,0.26-0.203c0.034,0,0.063,0.007,0.098,0.015c0.14,0.027,0.217,0.111,0.217,0.217
		c0,0.035-0.007,0.076-0.027,0.119c-0.084,0.203-0.176,0.392-0.28,0.602c0.595-0.021,1.429-0.104,2.199-0.217
		c0.021-0.007,0.042-0.007,0.063-0.007c0.141,0,0.231,0.077,0.252,0.224c0,0.015,0,0.028,0,0.049c0,0.134-0.084,0.232-0.237,0.26
		c-0.883,0.126-1.759,0.203-2.557,0.225c-0.273,0.462-0.596,0.882-0.96,1.197L55.617,59.858z"/>
	<path d="M67.106,62.66c0.133,0,0.203,0.125,0.203,0.266c0,0.147-0.07,0.273-0.203,0.273h-5.988c-0.133,0-0.203-0.126-0.203-0.273
		c0-0.141,0.07-0.266,0.203-0.266h1.022v-4.041c0-0.141,0.126-0.218,0.287-0.218s0.287,0.077,0.287,0.218v4.041h1.429v-5.352
		c0-0.133,0.112-0.217,0.28-0.217c0.161,0,0.28,0.084,0.28,0.217v2.129h1.954c0.133,0,0.21,0.119,0.21,0.273
		s-0.077,0.267-0.21,0.267h-1.954v2.683H67.106z"/>
	<path d="M69.267,62.625c-0.63,0-1.106-0.504-1.106-1.408c0-0.861,0.441-1.646,1.184-2.199c-0.091-0.393-0.168-0.799-0.224-1.211
		c0-0.021,0-0.035,0-0.049c0-0.141,0.077-0.246,0.217-0.267c0.028-0.007,0.049-0.007,0.07-0.007c0.133,0,0.224,0.076,0.238,0.23
		c0.042,0.336,0.098,0.68,0.161,1.016c0.469-0.252,1.036-0.398,1.709-0.398c0.056-0.287,0.104-0.574,0.14-0.841
		c0.021-0.169,0.112-0.245,0.252-0.245c0.021,0,0.042,0,0.063,0.007c0.154,0.015,0.245,0.119,0.245,0.259
		c0,0.021,0,0.043-0.007,0.063c-0.035,0.252-0.084,0.525-0.141,0.806c0.399,0.063,0.722,0.182,1.002,0.371
		c0.603,0.385,0.98,1.008,0.98,1.869c0,1.381-1.037,2.305-2.669,2.508c-0.027,0.008-0.049,0.008-0.069,0.008
		c-0.161,0-0.267-0.092-0.287-0.232c-0.008-0.021-0.008-0.041-0.008-0.063c0-0.133,0.084-0.245,0.253-0.266
		c1.323-0.168,2.191-0.89,2.191-1.947c0-0.631-0.28-1.142-0.707-1.443c-0.231-0.16-0.497-0.259-0.799-0.308
		c-0.084,0.343-0.175,0.673-0.279,0.966c-0.211,0.589-0.491,1.184-0.785,1.633c0.057,0.098,0.126,0.188,0.189,0.287
		c0.042,0.056,0.063,0.125,0.063,0.195s-0.027,0.147-0.098,0.203c-0.049,0.043-0.119,0.07-0.189,0.07
		c-0.069,0-0.133-0.027-0.175-0.076c-0.056-0.07-0.098-0.134-0.147-0.203C70.114,62.471,69.666,62.625,69.267,62.625z
		 M69.484,59.571c-0.505,0.42-0.777,1.022-0.777,1.604c0,0.546,0.252,0.896,0.581,0.896c0.266,0,0.603-0.133,0.945-0.581
		C69.939,60.943,69.666,60.278,69.484,59.571z M71.172,59.676c0.091-0.266,0.168-0.546,0.238-0.848
		c-0.512,0-1.044,0.147-1.478,0.393c0.154,0.651,0.378,1.275,0.637,1.801C70.794,60.643,71.004,60.16,71.172,59.676z"/>
	<path d="M79.503,60.607c-0.435-0.398-0.869-0.917-1.254-1.568c-0.806,0.105-1.702,0.168-2.592,0.168
		c-0.168,0-0.272-0.112-0.272-0.295c0-0.16,0.104-0.272,0.266-0.272c0.764,0,1.597-0.035,2.305-0.119
		c-0.175-0.315-0.322-0.658-0.441-0.987c-0.014-0.042-0.021-0.084-0.021-0.119c0-0.126,0.092-0.203,0.218-0.231
		c0.035-0.007,0.07-0.014,0.104-0.014c0.119,0,0.211,0.056,0.26,0.21c0.119,0.364,0.266,0.715,0.448,1.058
		c0.616-0.084,1.232-0.21,1.729-0.357c0.042-0.014,0.084-0.021,0.119-0.021c0.112,0,0.196,0.063,0.245,0.189
		c0.007,0.034,0.014,0.069,0.014,0.104c0,0.112-0.063,0.218-0.188,0.252c-0.49,0.154-1.1,0.273-1.625,0.357
		c0.371,0.644,0.91,1.274,1.506,1.842c0.07,0.07,0.098,0.147,0.098,0.224c0,0.084-0.035,0.162-0.091,0.225
		c-0.063,0.057-0.126,0.077-0.196,0.077c-0.084,0-0.175-0.028-0.272-0.084c-0.463-0.245-1.219-0.435-2.011-0.435
		c-0.974,0-1.617,0.295-1.617,0.91c0,0.568,0.679,0.869,1.708,0.869c0.673,0,1.373-0.105,1.912-0.26
		c0.042-0.006,0.084-0.014,0.119-0.014c0.126,0,0.225,0.063,0.252,0.182c0.015,0.043,0.021,0.085,0.021,0.119
		c0,0.134-0.077,0.232-0.231,0.273c-0.574,0.176-1.288,0.273-2.052,0.273c-1.499,0-2.332-0.539-2.332-1.449
		c0-0.876,0.848-1.401,2.164-1.401c0.651,0,1.274,0.154,1.688,0.329L79.503,60.607z"/>
	<path d="M86.769,60.636c-0.098,0.525-0.356,0.819-0.854,0.819c-0.343,0-0.763-0.133-1.085-0.398
		C84.766,61,84.73,60.923,84.73,60.839c0-0.056,0.021-0.119,0.057-0.168c0.056-0.07,0.14-0.112,0.224-0.112
		c0.063,0,0.126,0.021,0.183,0.07c0.175,0.14,0.44,0.259,0.665,0.259c0.21,0,0.315-0.104,0.371-0.392
		c0.049-0.267,0.07-0.673,0.077-1.121c-0.371,0.014-0.722,0.021-1.051,0.042c-0.448,0.028-0.896,0.05-1.352,0.084
		c0,0.253,0,0.505,0,0.771c0,1.261,0.035,1.555,0.14,1.73c0.176,0.322,0.567,0.412,1.457,0.412c0.68,0,1.366-0.069,1.842-0.168
		c0.035-0.006,0.07-0.006,0.099-0.006c0.146,0,0.245,0.084,0.266,0.23c0.008,0.021,0.008,0.042,0.008,0.063
		c0,0.168-0.099,0.273-0.26,0.302c-0.504,0.099-1.226,0.161-1.933,0.161c-1.106,0-1.695-0.182-1.947-0.623
		c-0.189-0.295-0.252-0.638-0.252-1.842c0-0.057,0-0.127,0-0.189c0-0.26,0.007-0.525,0.007-0.806
		c-0.357,0.021-0.735,0.056-1.106,0.084c-0.015,0-0.028,0-0.042,0c-0.147,0-0.238-0.112-0.245-0.252c0-0.007,0-0.015,0-0.021
		c0-0.148,0.091-0.253,0.238-0.26c0.378-0.027,0.763-0.057,1.155-0.091c0.007-0.435,0.007-0.918,0.007-1.303
		c0-0.169,0.126-0.259,0.287-0.259c0.183,0.006,0.294,0.098,0.294,0.259c0,0.413,0,0.841-0.007,1.268
		c0.428-0.028,0.869-0.056,1.324-0.077c0.301-0.014,0.672-0.035,1.071-0.049c0.007-0.147,0.007-0.295,0.007-0.441
		c0-0.287-0.007-0.567-0.007-0.834c0-0.16,0.119-0.252,0.28-0.252s0.294,0.092,0.294,0.246c0,0.203,0,0.406,0,0.615
		c0,0.211,0,0.421-0.007,0.652c0.378-0.015,0.799-0.021,1.19-0.028c0.196,0,0.273,0.098,0.273,0.259c0,0.176-0.077,0.28-0.267,0.28
		c-0.392,0-0.798,0.015-1.204,0.021C86.867,59.838,86.832,60.307,86.769,60.636z"/>
	<path d="M89.524,58.947c-0.049,0-0.091,0-0.14,0c-0.168-0.006-0.252-0.104-0.252-0.272c0-0.007,0-0.015,0-0.021
		c0.007-0.154,0.091-0.26,0.266-0.26c0.378,0,0.848-0.007,1.303-0.035c0.077-0.329,0.147-0.658,0.203-0.987
		c0.028-0.154,0.119-0.224,0.267-0.224c0.021,0,0.042,0,0.063,0.006c0.161,0.015,0.252,0.119,0.252,0.246
		c0,0.014,0,0.035-0.007,0.056c-0.049,0.272-0.104,0.56-0.175,0.861c0.469-0.042,0.932-0.099,1.303-0.168
		c0.021-0.007,0.049-0.007,0.07-0.007c0.133,0,0.23,0.07,0.252,0.225c0.007,0.021,0.007,0.049,0.007,0.069
		c0,0.126-0.084,0.231-0.203,0.252c-0.448,0.077-1.002,0.14-1.569,0.183c-0.35,1.387-0.826,2.85-1.365,3.992
		c-0.063,0.125-0.161,0.189-0.267,0.189c-0.056,0-0.104-0.015-0.161-0.043c-0.098-0.049-0.153-0.14-0.153-0.252
		c0-0.049,0.014-0.111,0.042-0.175c0.511-1.058,0.987-2.389,1.316-3.671C90.218,58.927,89.847,58.947,89.524,58.947z M91.92,61.91
		c0,0.238,0.105,0.385,0.315,0.49c0.203,0.098,0.525,0.133,0.959,0.133c0.539,0,1.121-0.056,1.521-0.14
		c0.034-0.007,0.063-0.007,0.098-0.007c0.147,0,0.238,0.084,0.259,0.217c0.007,0.028,0.007,0.049,0.007,0.07
		c0,0.141-0.076,0.252-0.259,0.294c-0.413,0.099-0.987,0.147-1.583,0.147c-0.56,0-1.001-0.07-1.303-0.225
		c-0.399-0.203-0.56-0.504-0.56-0.945c0-0.314,0.16-0.693,0.427-0.938c0.063-0.056,0.126-0.084,0.189-0.084
		c0.056,0,0.104,0.021,0.153,0.049c0.07,0.042,0.112,0.126,0.112,0.203c0,0.056-0.021,0.112-0.07,0.161
		C92.004,61.518,91.92,61.7,91.92,61.91z M94.525,59.165c0.175,0.007,0.273,0.133,0.273,0.294s-0.105,0.273-0.267,0.273
		c-0.007,0-0.021,0-0.028,0c-0.182-0.008-0.427-0.008-0.623-0.008c-0.497,0-1.155,0.057-1.632,0.147
		c-0.021,0.007-0.042,0.007-0.063,0.007c-0.146,0-0.259-0.091-0.272-0.244c-0.007-0.021-0.007-0.035-0.007-0.057
		c0-0.126,0.077-0.238,0.224-0.266c0.519-0.099,1.212-0.168,1.786-0.168C94.098,59.145,94.309,59.15,94.525,59.165z"/>
	<path d="M96.707,57.758c0.224,0,0.28,0.118,0.28,0.293c0,0.295,0,0.604,0,0.896c0,0.449,0.007,0.869,0.027,1.191
		c0.07,0.84,0.189,1.379,0.399,1.8c0.091,0.183,0.273,0.315,0.427,0.315c0.161,0,0.295-0.057,0.399-0.217
		c0.147-0.218,0.273-0.582,0.344-1.065c0.027-0.175,0.104-0.252,0.252-0.252c0.021,0,0.049,0,0.07,0.007
		c0.161,0.021,0.266,0.105,0.266,0.273c0,0.021,0,0.042-0.007,0.063c-0.098,0.652-0.28,1.128-0.512,1.43
		c-0.237,0.293-0.511,0.412-0.777,0.412c-0.294,0-0.609-0.133-0.847-0.49c-0.302-0.455-0.519-1.219-0.589-2.233
		c-0.042-0.561-0.049-1.38-0.049-2.13C96.392,57.869,96.511,57.758,96.707,57.758z M100.573,58.114c0.091,0,0.175,0.042,0.237,0.14
		c0.673,0.911,1.17,2.326,1.268,3.523c0,0.021,0,0.035,0,0.049c0,0.182-0.069,0.301-0.245,0.336
		c-0.027,0.008-0.056,0.008-0.076,0.008c-0.161,0-0.273-0.099-0.287-0.273c-0.099-1.177-0.525-2.438-1.156-3.326
		c-0.035-0.057-0.056-0.119-0.056-0.176c0-0.098,0.056-0.189,0.146-0.23C100.461,58.129,100.517,58.114,100.573,58.114z"/>
</g>
<rect x="46.708" y="38.962" fill="none" stroke="#000000" stroke-width="0.75" stroke-miterlimit="10" width="25.513" height="12.333"/>
<g>
	<path d="M27.971,9.663c-0.233-0.027-0.423-0.036-0.756-0.036h-2.089v0.684h-0.621c0.036-0.297,0.055-0.576,0.055-0.936V3.667
		c0-0.333-0.01-0.496-0.027-0.738c0.207,0.027,0.387,0.036,0.747,0.036h2.134c0.387,0,0.594-0.009,0.801-0.045v0.604
		c-0.243-0.027-0.504-0.045-0.792-0.045h-2.296v5.636h2.089c0.352,0,0.567-0.009,0.756-0.045V9.663z M25.783,4.433
		c0.424,0.486,0.702,0.837,1.071,1.323c0.243-0.738,0.369-1.377,0.405-1.962l0.559,0.18c-0.055,0.225-0.055,0.225-0.271,1.198
		c-0.054,0.279-0.162,0.621-0.342,1.071c0.387,0.567,0.648,0.99,0.999,1.647L27.81,8.304c-0.262-0.567-0.531-1.044-0.838-1.513
		c-0.351,0.766-0.72,1.359-1.251,2.017c-0.136-0.207-0.243-0.324-0.396-0.441c0.585-0.639,0.945-1.207,1.314-2.053
		c-0.423-0.603-0.675-0.909-1.215-1.512L25.783,4.433z M30.23,4.964c-0.026,0.135-0.036,0.234-0.036,0.396
		c0,0.684,0.117,1.521,0.298,2.053c0.342,1.026,0.999,1.854,2.025,2.539c-0.145,0.153-0.279,0.333-0.396,0.531
		c-0.738-0.576-1.143-1.026-1.539-1.702c-0.369-0.639-0.549-1.17-0.64-1.927c-0.071,0.811-0.233,1.333-0.576,1.954
		c-0.378,0.657-0.846,1.188-1.503,1.693c-0.162-0.216-0.279-0.333-0.433-0.432c0.819-0.549,1.342-1.144,1.675-1.891
		c0.342-0.756,0.513-1.675,0.513-2.746c0-0.171-0.009-0.333-0.035-0.468H30.23z M31.23,3.775c0.342,0,0.531-0.009,0.738-0.045
		l0.288,0.315c-0.045,0.108-0.091,0.234-0.153,0.432c-0.189,0.603-0.559,1.404-0.918,2.008c-0.189-0.145-0.288-0.198-0.495-0.288
		c0.423-0.622,0.639-1.081,0.918-1.927h-2.341c-0.279,0.738-0.531,1.206-0.954,1.818c-0.153-0.162-0.262-0.252-0.459-0.36
		c0.369-0.477,0.63-0.937,0.9-1.629c0.233-0.576,0.432-1.377,0.449-1.801l0.622,0.117c-0.036,0.108-0.036,0.108-0.262,0.936
		c-0.036,0.153-0.072,0.27-0.117,0.423H31.23z"/>
	<path d="M40.149,5.621c0.423,0,0.702-0.018,0.963-0.054v0.639c-0.252-0.036-0.567-0.054-0.963-0.054H37.7
		c0.802,1.243,2.07,2.251,3.683,2.926c-0.189,0.225-0.252,0.324-0.405,0.603C40.041,9.195,39.33,8.7,38.682,8.097
		c-0.567-0.522-0.937-1-1.287-1.639c0.018,0.288,0.018,0.288,0.036,0.927v2.053c0,0.414,0.018,0.756,0.063,1.098h-0.702
		c0.045-0.333,0.063-0.693,0.063-1.107V7.395c0-0.378,0.009-0.685,0.035-0.927c-0.432,0.756-0.81,1.233-1.485,1.873
		c-0.513,0.486-0.99,0.819-1.863,1.332c-0.135-0.261-0.216-0.369-0.423-0.567c0.963-0.45,1.675-0.937,2.367-1.621
		c0.424-0.414,0.802-0.882,1.071-1.333h-2.25c-0.396,0-0.712,0.018-0.973,0.054V5.567c0.252,0.036,0.531,0.054,0.973,0.054h2.548
		V3.325c0-0.369-0.019-0.594-0.063-0.882h0.702c-0.045,0.243-0.063,0.504-0.063,0.882v2.296H40.149z M35.359,5.252
		c-0.351-0.801-0.647-1.306-1.197-2.017l0.495-0.306c0.55,0.729,0.838,1.206,1.233,2.007L35.359,5.252z M38.411,5.009
		c0.604-0.685,0.945-1.233,1.314-2.107l0.559,0.315c-0.414,0.819-0.766,1.359-1.404,2.125L38.411,5.009z"/>
	<path d="M43.838,6.035c0.531,0.378,0.891,0.666,1.242,1.017c0.252-0.648,0.369-1.125,0.504-1.98h-1.63
		c-0.359,0.882-0.773,1.512-1.476,2.25c-0.162-0.252-0.226-0.324-0.396-0.459c0.64-0.612,1.035-1.179,1.359-1.972
		c0.207-0.495,0.315-0.936,0.396-1.53h-0.64c-0.333,0-0.576,0.018-0.811,0.045V2.821c0.234,0.036,0.469,0.045,0.847,0.045h2.557
		c0.378,0,0.666-0.018,0.9-0.045v0.585c-0.261-0.027-0.54-0.045-0.892-0.045h-1.396c-0.09,0.558-0.144,0.792-0.278,1.233h1.368
		c0.378,0,0.576-0.009,0.747-0.036c-0.018,0.072-0.027,0.144-0.099,0.585c-0.207,1.333-0.486,2.197-0.973,3.025
		c-0.549,0.937-1.161,1.558-2.26,2.305c-0.126-0.216-0.207-0.306-0.405-0.468c1.188-0.748,1.846-1.423,2.341-2.431
		c-0.45-0.486-0.747-0.738-1.296-1.089L43.838,6.035z M47.826,3.1C47.79,3.343,47.78,3.595,47.78,4.126v3.286
		c0,0.621,0,0.801,0.046,1.044h-0.667c0.036-0.243,0.045-0.45,0.045-1.044V4.126c0-0.495-0.018-0.765-0.054-1.026H47.826z
		 M49.852,2.533c-0.045,0.279-0.063,0.639-0.063,1.135v5.915c0,0.657-0.198,0.801-1.044,0.801c-0.189,0-0.433-0.009-0.999-0.036
		c-0.019-0.234-0.055-0.396-0.145-0.621c0.45,0.072,0.783,0.099,1.233,0.099c0.333,0,0.387-0.036,0.387-0.252V3.667
		c0-0.486-0.018-0.829-0.063-1.135H49.852z"/>
	<path d="M53.099,6.782c0.306,0,0.504-0.009,0.675-0.027c-0.018,0.153-0.018,0.225-0.026,0.423
		c-0.045,1.495-0.198,2.494-0.441,2.854c-0.162,0.252-0.387,0.342-0.828,0.342c-0.288,0-0.595-0.018-0.945-0.045
		c-0.019-0.252-0.036-0.36-0.108-0.594c0.388,0.054,0.747,0.09,1.009,0.09c0.297,0,0.414-0.063,0.486-0.279
		c0.162-0.504,0.252-1.251,0.27-2.269h-1.197c-0.261,0-0.45,0.009-0.612,0.018c0.171-0.747,0.271-1.548,0.297-2.53
		c0.226,0.027,0.369,0.036,0.864,0.036h0.693V3.334h-1.053c-0.352,0-0.621,0.009-0.828,0.036V2.776
		c0.188,0.036,0.44,0.054,0.837,0.054h1.018c0.216,0,0.414-0.009,0.594-0.027c-0.018,0.198-0.027,0.387-0.027,0.63v1.188
		c0,0.27,0.01,0.522,0.027,0.711c-0.189-0.018-0.387-0.027-0.64-0.027h-0.954c-0.026,0.315-0.126,1.116-0.188,1.477H53.099z
		 M56.259,4.792c-0.378,0.027-0.595,0.045-1.18,0.072c-0.594,0.027-0.756,0.036-0.937,0.072l-0.09-0.585
		c0.145,0.009,0.279,0.018,0.414,0.018c0.081,0,0.081,0,0.396-0.009c0.468-0.729,0.738-1.26,0.963-1.917l0.621,0.162
		c-0.432,0.846-0.612,1.17-0.999,1.737c0.864-0.027,1.729-0.09,2.565-0.18c-0.323-0.405-0.477-0.576-0.909-1.026l0.424-0.261
		c0.666,0.666,1.143,1.233,1.729,2.035l-0.46,0.351c-0.216-0.324-0.27-0.405-0.45-0.657c-0.621,0.072-1.143,0.117-1.557,0.153v0.99
		h1.35c0.315,0,0.478-0.009,0.703-0.036c-0.027,0.18-0.036,0.333-0.036,0.594v1.107c0,0.297,0.009,0.477,0.036,0.693
		c-0.253-0.027-0.45-0.036-0.757-0.036H56.79v1.369c0.612-0.081,0.9-0.126,1.396-0.216c-0.198-0.288-0.271-0.387-0.531-0.711
		l0.432-0.234c0.621,0.81,0.928,1.269,1.323,1.989l-0.486,0.252c-0.18-0.369-0.242-0.496-0.477-0.874
		c-1.423,0.27-2.413,0.405-4.159,0.567c-0.135,0.009-0.198,0.027-0.315,0.045l-0.117-0.621c0.108,0.009,0.162,0.009,0.243,0.009
		c0.369,0,1.333-0.063,2.161-0.144V8.069h-1.144c-0.36,0-0.549,0.009-0.802,0.036c0.027-0.216,0.036-0.414,0.036-0.72V6.377
		c0-0.27-0.009-0.468-0.036-0.666c0.217,0.027,0.424,0.036,0.784,0.036h1.161V4.792z M54.863,6.224v1.368h1.396V6.224H54.863z
		 M56.79,7.592h1.494V6.224H56.79V7.592z"/>
	<path d="M64.952,6.449c0,0.405-0.333,0.738-0.738,0.738c-0.404,0-0.738-0.333-0.738-0.738c0-0.405,0.334-0.738,0.738-0.738
		C64.619,5.711,64.952,6.044,64.952,6.449z"/>
	<path d="M70.802,9.132v0.639h-0.693c0.027-0.198,0.036-0.378,0.036-0.675V4.208c0-0.369-0.009-0.486-0.036-0.702
		c0.18,0.018,0.351,0.027,0.702,0.027h4.799c0.387,0,0.495,0,0.702-0.027c-0.027,0.216-0.027,0.333-0.027,0.702v4.871
		c0,0.27,0.009,0.504,0.027,0.693h-0.685V9.132H70.802z M75.627,4.126h-4.825v4.42h4.825V4.126z"/>
	<path d="M79.369,5.099c0.855,0.351,1.504,0.684,2.287,1.179l-0.352,0.604c-0.657-0.477-1.477-0.927-2.296-1.233L79.369,5.099z
		 M79.136,9.213c0.585,0,1.521-0.216,2.421-0.558c1.117-0.423,1.972-1.063,2.701-2.008c0.504-0.657,0.802-1.224,1.08-2.017
		c0.226,0.234,0.315,0.315,0.559,0.478c-0.783,1.873-1.882,3.097-3.466,3.88c-0.631,0.315-1.54,0.621-2.278,0.774
		c-0.144,0.027-0.306,0.063-0.486,0.099c-0.18,0.036-0.216,0.054-0.351,0.099L79.136,9.213z M80.071,2.947
		c0.883,0.36,1.468,0.657,2.233,1.134l-0.369,0.603c-0.622-0.459-1.558-0.963-2.215-1.188L80.071,2.947z"/>
	<path d="M91.367,4.792c-0.027,0.162-0.027,0.162-0.036,0.63c-0.026,1.503-0.279,2.395-0.891,3.169
		c-0.55,0.693-1.216,1.143-2.305,1.558C88,9.861,87.938,9.771,87.722,9.546C88.45,9.33,88.9,9.105,89.369,8.718
		c0.954-0.765,1.305-1.684,1.305-3.439c0-0.252-0.009-0.315-0.036-0.486H91.367z M94.923,3.658c-0.09,0.117-0.107,0.144-0.216,0.36
		c-0.621,1.206-1.458,2.025-2.629,2.565c-0.135-0.225-0.207-0.306-0.44-0.513c0.63-0.243,0.999-0.459,1.422-0.855
		c0.414-0.387,0.747-0.828,1.009-1.341h-5.114c-0.495,0-0.729,0.009-1.062,0.045V3.226c0.306,0.045,0.558,0.063,1.071,0.063h4.834
		c0.604,0,0.604,0,0.766-0.063L94.923,3.658z"/>
</g>
<rect x="20.505" y="0.375" fill="none" stroke="#000000" stroke-width="0.75" stroke-miterlimit="10" width="78.416" height="12.333"/>
<g>
	<path d="M9.662,43.227c0.585,0.351,0.973,0.639,1.53,1.125l-0.36,0.504c-0.549-0.549-0.909-0.837-1.512-1.207L9.662,43.227z
		 M11.229,46.197c-0.414,1.063-0.621,1.495-1.225,2.53c-0.036,0.063-0.071,0.136-0.126,0.243l-0.521-0.469
		c0.468-0.494,0.954-1.422,1.396-2.655L11.229,46.197z M10.059,41.075c0.603,0.405,0.972,0.702,1.431,1.162l-0.378,0.459
		c-0.432-0.486-0.81-0.819-1.422-1.225L10.059,41.075z M12.579,42.128c-0.405,0-0.621,0.009-0.855,0.045v-0.567
		c0.261,0.036,0.504,0.054,0.855,0.054h1.521c0-0.351-0.009-0.478-0.054-0.729h0.63c-0.045,0.243-0.054,0.36-0.054,0.729h1.737
		c0.378,0,0.612-0.018,0.882-0.054v0.567c-0.243-0.036-0.459-0.045-0.882-0.045h-1.737v0.604h1.422c0.414,0,0.621-0.009,0.864-0.045
		v0.549c-0.261-0.036-0.486-0.045-0.855-0.045h-1.431v0.648h1.908c0.423,0,0.675-0.018,0.918-0.054v0.585
		c-0.261-0.045-0.495-0.054-0.918-0.054h-4.097c-0.432,0-0.684,0.018-0.954,0.054v-0.585c0.243,0.036,0.495,0.054,0.954,0.054h1.666
		v-0.648h-1.342c-0.369,0-0.594,0.009-0.854,0.045v-0.549c0.242,0.036,0.468,0.045,0.854,0.045h1.342v-0.604H12.579z M12.75,48.08
		c0,0.477,0.018,0.765,0.054,0.98h-0.647c0.035-0.252,0.045-0.514,0.045-0.98v-2.477c0-0.441,0-0.558-0.027-0.81
		c0.297,0.027,0.514,0.036,0.892,0.036h2.772c0.441,0,0.657-0.009,0.828-0.045c-0.026,0.225-0.036,0.513-0.036,0.963v2.539
		c0,0.539-0.18,0.692-0.81,0.692c-0.252,0-0.567-0.009-0.937-0.036c-0.036-0.216-0.072-0.342-0.171-0.549
		c0.414,0.072,0.729,0.1,1.026,0.1c0.288,0,0.342-0.045,0.342-0.244v-0.738H12.75V48.08z M16.081,45.919v-0.63H12.75v0.63H16.081z
		 M16.081,47.053v-0.675H12.75v0.675H16.081z"/>
</g>
<rect x="0.375" y="38.962" fill="none" stroke="#000000" stroke-width="0.75" stroke-miterlimit="10" width="25.513" height="12.333"/>
<g>
	<path d="M98.493,42.327c0-0.36-0.009-0.621-0.045-0.882c0.288,0.036,0.55,0.045,0.964,0.045h4.051c0.414,0,0.666-0.009,0.928-0.045
		c-0.036,0.261-0.046,0.486-0.046,0.828v5.771c0,0.433,0.019,0.685,0.055,0.964h-0.657v-0.585h-4.646v0.585h-0.657
		c0.036-0.271,0.054-0.55,0.054-0.954V42.327z M99.097,44.56h4.646v-2.521h-4.646V44.56z M99.097,47.873h4.646v-2.765h-4.646V47.873
		z"/>
	<path d="M107.529,43.11c-0.351,0-0.657,0.018-0.99,0.054v-0.657c0.333,0.045,0.595,0.063,0.99,0.063h2.521v-0.765
		c0-0.297-0.018-0.513-0.063-0.819h0.711c-0.045,0.27-0.063,0.531-0.063,0.81v0.774h2.655c0.45,0,0.747-0.018,1.009-0.063v0.657
		c-0.379-0.036-0.648-0.054-1.009-0.054h-2.431c1.009,1.818,2.215,3.08,3.709,3.889c-0.188,0.207-0.288,0.343-0.414,0.585
		c-0.729-0.486-1.287-0.954-1.872-1.575c-0.748-0.792-1.252-1.558-1.684-2.53c0.026,0.54,0.036,0.873,0.036,1.17v2.044h0.98
		c0.441,0,0.64-0.01,0.874-0.045v0.63c-0.271-0.046-0.486-0.054-0.892-0.054h-0.963v0.855c0,0.422,0.018,0.746,0.063,1.035h-0.711
		c0.045-0.315,0.063-0.631,0.063-1.045v-0.846h-0.864c-0.423,0-0.639,0.008-0.909,0.054v-0.63c0.234,0.035,0.433,0.045,0.892,0.045
		h0.882v-2.044c0-0.333,0.01-0.675,0.036-1.162c-0.414,0.981-0.891,1.72-1.701,2.602c-0.567,0.621-1.054,1.053-1.711,1.512
		c-0.135-0.242-0.207-0.332-0.423-0.53c0.774-0.468,1.423-1.018,2.106-1.828c0.676-0.774,1.063-1.351,1.468-2.134H107.529z"/>
</g>
<rect x="93.329" y="38.962" fill="none" stroke="#000000" stroke-width="0.75" stroke-miterlimit="10" width="25.513" height="12.333"/>
<g>
	<g>
		
			<line fill="none" stroke="#000000" stroke-width="0.75" stroke-miterlimit="10" x1="46.708" y1="45.129" x2="26.789" y2="45.129"/>
		<g>
			<path d="M31.915,41.529c0.111,0.174,0.06,0.406-0.115,0.518l-4.839,3.082l4.839,3.082c0.175,0.111,0.227,0.344,0.115,0.518
				c-0.111,0.175-0.345,0.225-0.518,0.115l-5.336-3.398c-0.107-0.069-0.174-0.188-0.174-0.316s0.066-0.248,0.174-0.316l5.336-3.398
				c0.063-0.04,0.132-0.059,0.201-0.059C31.722,41.355,31.844,41.417,31.915,41.529z"/>
		</g>
	</g>
</g>
<g>
	<g>
		<polyline fill="none" stroke="#000000" stroke-width="0.75" stroke-miterlimit="10" points="59.712,12.708 13.132,31.32 
			13.132,38.061 		"/>
		<g>
			<path d="M9.532,32.935c0.174-0.111,0.406-0.06,0.518,0.116l3.082,4.839l3.082-4.839c0.111-0.175,0.344-0.227,0.518-0.116
				c0.175,0.111,0.225,0.345,0.115,0.519l-3.398,5.336c-0.068,0.107-0.188,0.173-0.316,0.173s-0.248-0.066-0.316-0.173l-3.398-5.336
				c-0.039-0.063-0.059-0.133-0.059-0.201C9.358,33.128,9.42,33.006,9.532,32.935z"/>
		</g>
	</g>
</g>
<path fill="none" stroke="#000000" stroke-width="0.75" stroke-miterlimit="10" d="M59.712,38.962"/>
<g>
	<g>
		
			<line fill="none" stroke="#000000" stroke-width="0.75" stroke-miterlimit="10" x1="59.712" y1="12.708" x2="59.712" y2="38.061"/>
		<g>
			<path d="M56.112,32.935c0.174-0.111,0.406-0.06,0.518,0.116l3.082,4.839l3.082-4.839c0.111-0.175,0.344-0.227,0.518-0.116
				c0.175,0.111,0.225,0.345,0.115,0.519l-3.398,5.336c-0.068,0.107-0.188,0.173-0.316,0.173s-0.248-0.066-0.316-0.173l-3.398-5.336
				c-0.039-0.063-0.059-0.133-0.059-0.201C55.938,33.128,56,33.006,56.112,32.935z"/>
		</g>
	</g>
</g>
<g>
	<g>
		
			<line fill="none" stroke="#000000" stroke-width="0.75" stroke-linecap="round" stroke-miterlimit="10" x1="59.712" y1="28.962" x2="60.712" y2="28.962"/>
		
			<line fill="none" stroke="#000000" stroke-width="0.75" stroke-linecap="round" stroke-miterlimit="10" stroke-dasharray="1.922,1.922" x1="62.634" y1="28.962" x2="103.958" y2="28.962"/>
		<polyline fill="none" stroke="#000000" stroke-width="0.75" stroke-linecap="round" stroke-miterlimit="10" points="
			104.919,28.962 105.919,28.962 105.919,29.962 		"/>
		
			<line fill="none" stroke="#000000" stroke-width="0.75" stroke-linecap="round" stroke-miterlimit="10" stroke-dasharray="2.3661,2.3661" x1="105.919" y1="32.329" x2="105.919" y2="35.877"/>
		
			<line fill="none" stroke="#000000" stroke-width="0.75" stroke-linecap="round" stroke-miterlimit="10" x1="105.919" y1="37.061" x2="105.919" y2="38.061"/>
		<g>
			<path d="M102.319,32.935c0.174-0.111,0.406-0.06,0.518,0.116l3.082,4.839l3.082-4.839c0.111-0.175,0.344-0.227,0.518-0.116
				c0.175,0.111,0.225,0.345,0.115,0.519l-3.398,5.336c-0.068,0.107-0.188,0.173-0.316,0.173s-0.248-0.066-0.316-0.173l-3.398-5.336
				c-0.039-0.063-0.059-0.133-0.059-0.201C102.146,33.128,102.207,33.006,102.319,32.935z"/>
		</g>
	</g>
</g>
<g>
	<g>
		<polyline fill="none" stroke="#000000" stroke-width="0.75" stroke-miterlimit="10" points="37.279,46.03 37.279,54.941 
			105.919,54.941 105.919,51.296 		"/>
		<g>
			<path d="M33.68,51.156c0.174,0.111,0.406,0.06,0.518-0.115l3.082-4.839l3.082,4.839c0.111,0.175,0.344,0.227,0.518,0.115
				c0.175-0.111,0.226-0.345,0.115-0.518l-3.398-5.336c-0.069-0.108-0.188-0.174-0.316-0.174s-0.247,0.066-0.316,0.174l-3.398,5.336
				c-0.04,0.063-0.059,0.132-0.059,0.201C33.506,50.963,33.567,51.085,33.68,51.156z"/>
		</g>
	</g>
</g>
</svg>
