<?xml version="1.0" encoding="utf-8"?>
<!-- Generator: Adobe Illustrator 16.0.3, SVG Export Plug-In . SVG Version: 6.00 Build 0)  -->
<!DOCTYPE svg PUBLIC "-//W3C//DTD SVG 1.1//EN" "http://www.w3.org/Graphics/SVG/1.1/DTD/svg11.dtd">
<svg version="1.1" id="レイヤー_1" xmlns="http://www.w3.org/2000/svg" xmlns:xlink="http://www.w3.org/1999/xlink" x="0px"
	 y="0px" width="900px" height="600px" viewBox="0 0 900 600" enable-background="new 0 0 900 600" xml:space="preserve">
<g>
	<path fill-rule="evenodd" clip-rule="evenodd" d="M0,0c300,0,600,0,900,0c0,200,0,400,0,600c-300,0-600,0-900,0C0,400,0,200,0,0z
		 M652.011,433.988c0.09,0.248,0.179,0.495,0.269,0.743c0.146-0.108,0.293-0.218,0.439-0.326c-0.243-0.132-0.486-0.264-0.729-0.396
		c-1.199-2.308-2.253-4.704-3.619-6.907c-9.461-15.252-18.962-30.479-28.524-45.666c-1.123-1.783-1.001-3.164-0.149-5.037
		c3.394-7.464,6.86-14.918,9.736-22.587c3.617-9.646,6.045-19.64,7.735-29.841c0.543-3.272,0.089-6.956,2.249-9.795
		c18.209-2.897,36.235-5.765,55.311-8.799c-2.35-1.054-3.795-1.757-5.284-2.354c-1.517-0.607-3.095-1.06-4.611-1.666
		c-13.699-5.475-27.402-10.94-41.072-16.486c-1.795-0.729-3.815-1.368-4.719-3.811c0.23-7.645-1.463-15.346-2.938-23.105
		c-2.117-11.136-5.345-21.891-9.774-32.313c-0.811-1.906-1.179-4-1.69-5.795c12.842-12.863,25.317-25.359,37.789-37.859
		c0.113-0.114,0.22-0.278,0.239-0.43c0.012-0.094-0.148-0.209-0.33-0.44c-18.235,3.224-36.545,6.46-55.105,9.74
		c-12.446-18.103-28.435-32.786-46.493-45.087c0.2-1.404,0.22-2.421,0.498-3.359c1.861-6.257,3.775-12.498,5.677-18.742
		c3.327-10.926,6.667-21.848,9.961-32.783c0.149-0.495-0.09-1.107-0.192-2.083c-14.333,14.491-27.374,29.551-41.301,43.432
		c-1-0.23-1.507-0.275-1.954-0.462c-9.383-3.922-19.019-6.961-29.029-8.88c-4.354-0.834-8.702-1.499-13.092-2.104
		c-6.045-0.833-12.109-1.164-18.166-1.607c-4.268-0.312-8.546,0.06-12.835,0.669c-5.383,0.764-10.861,0.854-16.298,1.239
		c-0.492,0.034-1.048-0.023-1.46,0.187c-2.688,1.364-5.496,0.544-8.587,0.901c-2.745-7.905-5.174-15.688-8.152-23.254
		c-2.999-7.616-5.035-15.621-9.138-24.032c-4.89,18.367-9.488,35.639-14.055,52.789c-27.369,6.695-53.763,15.276-76.466,32.508
		c-4.79-3.965-9.409-7.688-13.916-11.541c-7.935-6.782-15.809-13.637-23.689-20.482c-1.051-0.914-2.084-1.736-4.176-2.033
		c7.017,17.829,13.785,35.024,20.571,52.265c-18.579,18.809-32.394,40.629-41.437,65.542c-5.818,0.381-11.48-1.902-17.396-0.597
		c5.074,2.756,9.966,5.412,14.897,8.09c-3.526,11.391-5.913,22.885-7.381,35.01c-5.206,1.538-10.515,3.075-15.804,4.681
		c-5.148,1.563-10.281,3.178-15.409,4.807c-5.123,1.627-10.506,2.524-15.896,5.152c15.995,6.794,31.389,13.14,46.398,19.878
		c3.128,29.73,11.345,57.279,27.313,82.403c-13.899,15.027-27.698,29.944-42.027,45.436c1.595,0,2.428,0.194,3.128-0.028
		c12.917-4.108,25.815-8.279,38.727-12.406c6.809-2.176,13.637-4.293,20.521-6.457c14.702,16.362,31.944,28.984,51.483,38.607
		c-0.358,1.782-0.745,3.367-0.988,4.973c-1.006,6.637-1.985,13.277-2.943,19.921c-1.356,9.408-2.708,18.816-4.001,28.233
		c-0.184,1.343-0.025,2.731-0.025,5.198c12.308-16.579,23.894-32.187,35.497-47.817c12.42,3.472,24.996,5.374,37.372,6.224
		c0.496,0.714,0.76,0.96,0.861,1.26c3.513,10.369,6.992,20.749,10.539,31.106c0.314,0.918,1.054,1.69,1.956,3.089
		c3.506-12.393,6.788-23.996,10.052-35.537c1.035-0.396,1.95-1.038,2.871-1.048c4.97-0.052,9.746-1.362,14.618-2.007
		c7.485-0.989,14.832-2.522,22.069-4.605c6.583-1.895,13.164-3.811,19.682-5.917c4.349-1.405,8.602-3.112,12.863-4.773
		c4.251-1.656,8.459-3.424,12.991-5.267c1.229,1.394,2.296,2.671,3.434,3.884c5.114,5.453,10.245,10.89,15.375,16.327
		c5.696,6.038,11.399,12.071,17.42,18.446c0.11-1.065,0.327-1.709,0.215-2.29c-3.264-16.823-6.561-33.641-9.839-50.389
		c1.277-1.856,2.679-3.161,5.436-2.412c3.176,3.137,6.592,6.539,10.04,9.909c3.536,3.457,6.956,7.044,11.311,11.006
		c0-2.298,0.229-3.63-0.04-4.852c-1.054-4.775-2.378-9.492-3.386-14.276c-1.004-4.766-2.705-9.438-2.522-14.351
		c9.679-7.375,18.19-15.64,25.8-24.747c9.299,4.68,18.274,9.141,27.198,13.704c7.33,3.748,14.577,7.66,21.915,11.393
		C649.082,433.537,650.609,433.639,652.011,433.988z"/>
	<path fill-rule="evenodd" clip-rule="evenodd" fill="#DC0029" d="M652.011,433.988c-1.401-0.35-2.929-0.451-4.184-1.089
		c-7.338-3.732-14.585-7.645-21.915-11.393c-8.924-4.563-17.899-9.024-27.198-13.704c-7.609,9.107-16.121,17.372-25.8,24.747
		c-0.183,4.913,1.519,9.585,2.522,14.351c1.008,4.784,2.332,9.501,3.386,14.276c0.27,1.222,0.04,2.554,0.04,4.852
		c-4.354-3.962-7.774-7.549-11.311-11.006c-3.448-3.37-6.864-6.772-10.04-9.909c-2.757-0.749-4.158,0.556-5.436,2.412
		c3.278,16.748,6.575,33.565,9.839,50.389c0.112,0.581-0.104,1.225-0.215,2.29c-6.021-6.375-11.724-12.408-17.42-18.446
		c-5.13-5.438-10.261-10.874-15.375-16.327c-1.138-1.213-2.205-2.49-3.434-3.884c-4.532,1.843-8.74,3.61-12.991,5.267
		c-4.262,1.661-8.515,3.368-12.863,4.773c-6.518,2.106-13.099,4.022-19.682,5.917c-7.237,2.083-14.584,3.616-22.069,4.605
		c-4.872,0.645-9.648,1.955-14.618,2.007c-0.921,0.01-1.836,0.652-2.871,1.048c-3.264,11.541-6.546,23.145-10.052,35.537
		c-0.902-1.398-1.642-2.171-1.956-3.089c-3.547-10.357-7.026-20.737-10.539-31.106c-0.102-0.3-0.365-0.546-0.861-1.26
		c-12.376-0.85-24.952-2.752-37.372-6.224c-11.604,15.631-23.189,31.238-35.497,47.817c0-2.467-0.158-3.855,0.025-5.198
		c1.293-9.417,2.645-18.825,4.001-28.233c0.958-6.644,1.938-13.284,2.943-19.921c0.243-1.605,0.63-3.19,0.988-4.973
		c-19.539-9.623-36.781-22.245-51.483-38.607c-6.883,2.164-13.711,4.281-20.521,6.457c-12.912,4.127-25.809,8.298-38.727,12.406
		c-0.701,0.223-1.534,0.028-3.128,0.028c14.329-15.491,28.127-30.408,42.027-45.436c-15.968-25.124-24.185-52.673-27.313-82.403
		c-15.009-6.738-30.403-13.084-46.398-19.878c5.389-2.628,10.772-3.525,15.896-5.152c5.128-1.629,10.261-3.243,15.409-4.807
		c5.289-1.605,10.598-3.143,15.804-4.681c1.468-12.125,3.855-23.619,7.381-35.01c-4.931-2.678-9.823-5.334-14.897-8.09
		c5.915-1.306,11.577,0.978,17.396,0.597c9.043-24.913,22.857-46.733,41.437-65.542c-6.786-17.24-13.554-34.436-20.571-52.265
		c2.092,0.297,3.125,1.119,4.176,2.033c7.88,6.846,15.754,13.7,23.689,20.482c4.507,3.854,9.126,7.576,13.916,11.541
		c22.703-17.231,49.097-25.813,76.466-32.508c4.566-17.15,9.165-34.422,14.055-52.789c4.103,8.411,6.139,16.416,9.138,24.032
		c2.979,7.565,5.407,15.349,8.152,23.254c3.091-0.357,5.898,0.463,8.587-0.901c0.412-0.21,0.968-0.152,1.46-0.187
		c5.437-0.386,10.915-0.476,16.298-1.239c4.289-0.609,8.567-0.98,12.835-0.669c6.057,0.443,12.121,0.774,18.166,1.607
		c4.39,0.604,8.738,1.27,13.092,2.104c10.011,1.919,19.646,4.958,29.029,8.88c0.447,0.187,0.954,0.231,1.954,0.462
		c13.927-13.881,26.968-28.94,41.301-43.432c0.103,0.976,0.342,1.588,0.192,2.083c-3.294,10.936-6.634,21.857-9.961,32.783
		c-1.901,6.244-3.815,12.485-5.677,18.742c-0.278,0.938-0.298,1.955-0.498,3.359c18.059,12.301,34.047,26.984,46.493,45.087
		c18.561-3.28,36.87-6.517,55.105-9.74c0.182,0.231,0.342,0.347,0.33,0.44c-0.02,0.151-0.126,0.315-0.239,0.43
		c-12.472,12.5-24.947,24.996-37.789,37.859c0.512,1.795,0.88,3.889,1.69,5.795c4.43,10.422,7.657,21.177,9.774,32.313
		c1.476,7.76,3.169,15.461,2.938,23.105c0.903,2.442,2.924,3.082,4.719,3.811c13.67,5.546,27.373,11.012,41.072,16.486
		c1.517,0.606,3.095,1.059,4.611,1.666c1.489,0.598,2.935,1.301,5.284,2.354c-19.075,3.034-37.102,5.901-55.311,8.799
		c-2.16,2.839-1.706,6.522-2.249,9.795c-1.69,10.201-4.118,20.195-7.735,29.841c-2.876,7.669-6.343,15.123-9.736,22.587
		c-0.852,1.873-0.974,3.254,0.149,5.037c9.563,15.188,19.063,30.414,28.524,45.666c1.366,2.203,2.42,4.6,3.619,6.907
		L652.011,433.988z M335.952,188.949c0.262-0.151,0.523-0.303,0.202-0.116c0.156-0.338,0.027-0.061-0.102,0.217
		c-0.355,0.312-0.711,0.624-1.067,0.936c-0.482,0.061-1.125-0.059-1.424,0.208c-3.706,3.301-7.536,6.489-10.979,10.051
		c-3.199,3.309-5.931,7.065-8.94,10.563c-6.474,7.525-11.535,15.989-16.262,24.65c-1.766,3.235-2.995,6.764-4.451,10.118
		c0.688,0.505,1.082,1.044,1.482,1.05c4.632,0.059,9.265,0.037,14.14,0.037c0.059-0.116,0.331-0.522,0.473-0.97
		c0.489-1.549,0.899-3.122,1.399-4.667c5.312-16.426,12.288-32.053,22.129-46.319c0.996-1.444,1.649-3.124,2.461-4.694
		C335.327,189.658,335.64,189.304,335.952,188.949z M581,384.001c2.351,0.31,2.031-1.942,2.916-3.039
		c8.604-10.838,17.717-28.225,17.975-34.396c-2.374-0.917-4.772-1.844-7.396-2.856c-0.549,1.062-1.177,1.849-1.379,2.732
		c-2.18,9.512-4.626,18.925-8.621,27.885c-0.915,2.053-1.216,4.379-1.799,6.579C581.521,381.604,580.82,382.561,581,384.001
		c-0.244,0.124-0.488,0.249-0.731,0.374c0.133,0.125,0.265,0.25,0.397,0.375C580.777,384.5,580.889,384.25,581,384.001z
		 M525.018,159.836c-0.581-1.231-1.287-2.2-2.879-1.475c0,0.43,0,0.741,0,1.341c0.873,0.109,1.783,0.223,2.692,0.336
		c1.254,1.296,2.344,2.82,3.789,3.847c6.104,4.335,11.458,9.488,16.703,14.781c0.541,0.545,1.23,0.943,1.913,1.455
		c1.719-1.879,3.234-3.534,4.707-5.144c-0.274-0.452-0.376-0.814-0.613-0.98c-7.42-5.189-15.229-9.71-23.463-13.48
		C526.996,160.118,525.972,160.055,525.018,159.836z M594.086,267.974c0.054,1.482-0.158,3.034,0.205,4.436
		c1.819,7.018,2.284,14.191,2.79,21.373c0.193,2.74,0.61,5.465,0.945,8.367c4.725,1.503,8.64,4.34,13.719,5.105
		c2.573-11.205,0.729-22.122-0.076-33.494c-0.993-0.518-2.047-1.355-3.231-1.63c-3.643-0.845-7.331-1.497-11.011-2.173
		c-1.214-0.223-2.239-0.564-2.464-1.97c4.431-2.787,8.861-5.573,13.58-8.542c-4.806-21.255-14.017-39.949-27.803-57.265
		c-2.079,3.489-3.758,6.465-5.594,9.34c-1.507,2.357-1.293,4.471-0.048,6.925c3.122,6.153,6.164,12.359,8.916,18.685
		c3.589,8.25,6.303,16.797,8.236,25.616C592.619,264.426,592.208,266.707,594.086,267.974z M305.51,389.058
		c4.491-6.496,8.982-12.991,13.635-19.721c-2.211-5.355-4.489-10.875-6.917-16.756c-6.92,4.5-13.51,8.785-20.199,13.135
		c1.644,3.649,3.085,7.309,4.906,10.769c2.142,4.071,4.597,7.979,6.972,11.924c0.191,0.317,0.815,0.374,1.238,0.553
		c-0.419,1.682,0.732,2.83,1.511,4.025c1.35,2.069,2.798,4.089,4.369,5.994c4.507,5.465,9.097,10.862,13.744,16.394
		c1.429-0.432,2.55-0.634,3.549-1.098c2.988-1.389,5.9-2.939,8.9-4.299c1.158-0.525,2.472-0.707,3.715-1.046l0.128,0.124
		c-0.181,0.959-0.232,1.965-0.565,2.867c-1.524,4.133-3.128,8.236-4.723,12.402c1.233,1.149,2.214,2.328,3.434,3.154
		c4.354,2.951,8.754,5.84,13.201,8.649c15.459,9.764,32.395,15.614,50.312,18.8c1.009,0.18,2.099-0.095,4.072-0.213
		c-11.602-5.147-21.7-10.98-31.329-17.665c-9.729-6.753-18.162-14.931-26.39-23.367c-8.208-8.417-14.568-18.275-21.317-27.687
		c-1.347,0.131-2.346,0.132-3.301,0.335C318.2,387.666,311.953,389.034,305.51,389.058z M515.079,214.102
		c-0.408-0.038-0.816-0.075-1.224-0.112c4.428-4.661,8.855-9.322,13.263-13.961c-12.104-13.263-35.096-28.757-50.465-33.163
		c-2.708,2.674-5.541,5.462-8.364,8.261c-2.723,2.697-5.362,5.483-8.171,8.088c-2.83,2.624-5.099,5.915-9.403,8.307
		c1.269-10.955,3.55-20.992,4.337-31.082c-1.044-0.526-1.74-1.107-2.51-1.229c-5.021-0.791-10.036-1.808-15.092-2.122
		c-6.145-0.383-12.327-0.113-18.492-0.19c-2.353-0.03-4.552,0.282-6.71,1.354c-5.011,2.485-10.12,4.769-15.143,7.229
		c-1.453,0.712-2.748,1.748-4.212,2.698c0.699,5.402,1.406,10.58,2.031,15.768c1.02,8.474,1.99,16.954,2.942,25.436
		c0.017,0.145-0.454,0.345-0.861,0.637c-9.332-8.025-18.701-16.083-28.215-24.265c-28.45,27.159-43.707,60.159-46.984,99.086
		c10.795,5.815,21.713,10.658,33.073,16.906c-11.342,2.727-21.623,5.198-32.068,7.709c0.356,7.445,1.954,14.442,3.706,21.685
		c5.867,0,11.628,0,18.14,0c-5.401,3.663-10.15,6.884-14.89,10.098c7.21,21.751,18.983,40.133,34.876,56.033
		c3.933-1.144,7.036-3.323,10.328-5.154c3.455-1.921,7.079-3.535,10.575-5.384c3.35-1.77,6.513-3.941,9.974-5.436
		c3.483-1.503,6.353-4.353,10.646-5.215c-7.26,12.783-14.234,25.063-21.197,37.348c-0.065,0.116,0.02,0.324,0.048,0.487
		c0.028,0.16,0.075,0.317,0.113,0.477c22.987,16.035,52.337,24.609,70.446,24.54c5.051-12.932,10.145-25.979,15.794-39.56
		c2.99,13.744,4.696,26.872,7.93,39.637c5.125,0.228,9.749-0.879,14.449-1.735c3.078-0.561,5.594-1.81,8.052-3.474
		c10.985-7.438,21.283-15.589,30.014-25.752c5.305-6.175,10.149-12.644,14.665-19.349c2.242-3.331,4.771-6.7,5.757-10.981
		c-11.241-11.259-23.323-21.582-34.895-34.132c15.581,3.926,30.052,7.571,44.892,11.311c2.372-7.093,4.46-14.025,4.9-21.311
		c-6.522-2.464-12.612-4.765-19.011-7.182c6.998-2.225,13.87-0.867,20.564-1.662c1.928-9.689,1.845-19.36,1.028-28.879
		c-0.803-9.357-1.289-18.938-5.189-28.104c-7.052,0.402-13.984,0.774-20.913,1.202c-5.108,0.314-10.249-0.392-15.349,0.818
		c-1.86,0.441-4.005,0.376-7.118-0.352c6.819-4.169,12.713-7.755,18.591-11.368c5.849-3.596,11.681-7.218,17.705-10.942
		c-0.964-6.104-4.182-11-6.989-15.927c-5.2-9.122-10.953-17.924-18.35-25.596c-1.554,0.713-2.759,1.221-3.923,1.811
		C523.807,209.624,519.445,211.867,515.079,214.102z M303.836,274.091c-5.631-3.065-11.363-6.186-17.321-9.429
		c-0.607,1.558-1.122,2.741-1.535,3.959c-2.11,6.227-2.863,12.763-3.735,19.199c-0.928,6.852-0.884,13.846-1.062,20.782
		c-0.062,2.433,0.551,4.875,0.732,7.321c0.413,5.566,0.75,11.139,1.149,17.196c8.212-0.525,16.103,0.656,24.063-1.126
		c-0.109-6.854-1.784-13.094-2.477-19.432c-0.688-6.303-0.664-12.549-0.712-18.812C302.892,287.332,302.327,280.86,303.836,274.091z
		 M557.562,191.85c3.166,4.303,6.056,8.23,9.134,12.414c4.436-0.865,8.84-1.726,13.898-2.713
		c-4.742-5.228-9.019-9.942-13.293-14.654C564.042,188.554,561.132,190.034,557.562,191.85z M611.813,308.569
		c-5.681,1.904-9.904,5.323-14.569,7.536c0,2.529,0,4.618,0,6.918c4.422-0.433,8.765,0.821,12.716-1.441
		C610.953,317.457,612.207,313.558,611.813,308.569z M520.816,157.538c-0.097-0.116-0.193-0.231-0.29-0.347
		c-0.111,0.102-0.224,0.202-0.335,0.304c0.101,0.105,0.191,0.282,0.303,0.297C520.589,157.805,520.708,157.63,520.816,157.538z"/>
	<path fill-rule="evenodd" clip-rule="evenodd" fill="#DC0029" d="M651.99,434.01c0.242,0.132,0.485,0.264,0.729,0.396
		c-0.146,0.108-0.293,0.218-0.439,0.326c-0.09-0.248-0.179-0.495-0.269-0.743L651.99,434.01z"/>
	<path fill-rule="evenodd" clip-rule="evenodd" fill="#010000" d="M515.079,214.102c4.366-2.234,8.728-4.478,13.103-6.694
		c1.164-0.59,2.369-1.098,3.923-1.811c7.396,7.672,13.149,16.474,18.35,25.596c2.808,4.927,6.025,9.823,6.989,15.927
		c-6.024,3.725-11.856,7.347-17.705,10.942c-5.878,3.613-11.771,7.199-18.591,11.368c3.113,0.728,5.258,0.793,7.118,0.352
		c5.1-1.21,10.24-0.504,15.349-0.818c6.929-0.428,13.861-0.8,20.913-1.202c3.9,9.166,4.387,18.746,5.189,28.104
		c0.816,9.519,0.899,19.189-1.028,28.879c-6.694,0.795-13.566-0.563-20.564,1.662c6.398,2.417,12.488,4.718,19.011,7.182
		c-0.44,7.285-2.528,14.218-4.9,21.311c-14.84-3.739-29.311-7.385-44.892-11.311c11.571,12.55,23.653,22.873,34.895,34.132
		c-0.986,4.281-3.515,7.65-5.757,10.981c-4.516,6.705-9.36,13.174-14.665,19.349c-8.73,10.163-19.028,18.314-30.014,25.752
		c-2.458,1.664-4.974,2.913-8.052,3.474c-4.7,0.856-9.324,1.963-14.449,1.735c-3.233-12.765-4.939-25.893-7.93-39.637
		c-5.649,13.581-10.743,26.628-15.794,39.56c-18.109,0.069-47.459-8.505-70.446-24.54c-0.038-0.159-0.085-0.316-0.113-0.477
		c-0.028-0.163-0.113-0.371-0.048-0.487c6.963-12.285,13.938-24.564,21.197-37.348c-4.294,0.862-7.163,3.712-10.646,5.215
		c-3.461,1.494-6.624,3.666-9.974,5.436c-3.496,1.849-7.12,3.463-10.575,5.384c-3.292,1.831-6.396,4.011-10.328,5.154
		c-15.893-15.9-27.666-34.282-34.876-56.033c4.739-3.214,9.488-6.435,14.89-10.098c-6.512,0-12.272,0-18.14,0
		c-1.752-7.242-3.35-14.239-3.706-21.685c10.445-2.511,20.727-4.982,32.068-7.709c-11.36-6.248-22.278-11.091-33.073-16.906
		c3.277-38.927,18.534-71.927,46.984-99.086c9.514,8.182,18.883,16.239,28.215,24.265c0.407-0.292,0.878-0.492,0.861-0.637
		c-0.952-8.481-1.923-16.962-2.942-25.436c-0.625-5.188-1.332-10.365-2.031-15.768c1.464-0.95,2.759-1.986,4.212-2.698
		c5.022-2.46,10.132-4.743,15.143-7.229c2.158-1.071,4.357-1.384,6.71-1.354c6.165,0.077,12.348-0.192,18.492,0.19
		c5.056,0.314,10.071,1.331,15.092,2.122c0.77,0.121,1.466,0.702,2.51,1.229c-0.787,10.09-3.068,20.127-4.337,31.082
		c4.305-2.392,6.573-5.683,9.403-8.307c2.809-2.604,5.448-5.391,8.171-8.088c2.823-2.799,5.656-5.587,8.364-8.261
		c15.369,4.406,38.36,19.9,50.465,33.163c-4.407,4.639-8.835,9.3-13.263,13.961c-1.344-0.009-2.235,0.299-1.181,2.329
		C513.578,215.485,514.329,214.793,515.079,214.102z"/>
	<path fill-rule="evenodd" clip-rule="evenodd" fill="#040001" d="M303.836,274.091c-1.509,6.77-0.944,13.241-0.896,19.66
		c0.048,6.263,0.023,12.509,0.712,18.812c0.692,6.338,2.367,12.577,2.477,19.432c-7.961,1.782-15.851,0.601-24.063,1.126
		c-0.399-6.058-0.736-11.63-1.149-17.196c-0.181-2.446-0.794-4.889-0.732-7.321c0.177-6.937,0.134-13.931,1.062-20.782
		c0.872-6.437,1.625-12.973,3.735-19.199c0.413-1.218,0.927-2.401,1.535-3.959C292.473,267.905,298.205,271.025,303.836,274.091z"/>
	<path fill-rule="evenodd" clip-rule="evenodd" fill="#060001" d="M340.934,408.932c-1.243,0.339-2.557,0.521-3.715,1.046
		c-3,1.359-5.912,2.91-8.9,4.299c-0.999,0.464-2.12,0.666-3.549,1.098c-4.647-5.531-9.237-10.929-13.744-16.394
		c-1.571-1.905-3.02-3.925-4.369-5.994c-0.778-1.195-1.93-2.344-1.511-4.025l0.364,0.097c6.443-0.023,12.69-1.392,18.945-2.726
		c0.955-0.203,1.954-0.204,3.301-0.335c6.749,9.411,13.109,19.27,21.317,27.687c8.228,8.437,16.661,16.614,26.39,23.367
		c9.629,6.685,19.728,12.518,31.329,17.665c-1.974,0.118-3.063,0.393-4.072,0.213c-17.917-3.186-34.853-9.036-50.312-18.8
		c-4.447-2.81-8.847-5.698-13.201-8.649c-1.22-0.826-2.2-2.005-3.434-3.154c1.595-4.166,3.198-8.27,4.723-12.402
		c0.333-0.902,0.385-1.908,0.565-2.867c0.227-0.144,0.453-0.288,0.68-0.433c-0.147-0.131-0.295-0.262-0.443-0.393
		C341.177,408.464,341.055,408.698,340.934,408.932z"/>
	<path fill-rule="evenodd" clip-rule="evenodd" fill="#050001" d="M594.086,267.974c-1.878-1.267-1.467-3.548-1.835-5.227
		c-1.934-8.819-4.647-17.366-8.236-25.616c-2.752-6.325-5.794-12.531-8.916-18.685c-1.245-2.454-1.459-4.567,0.048-6.925
		c1.836-2.875,3.515-5.851,5.594-9.34c13.786,17.315,22.997,36.01,27.803,57.265c-4.719,2.969-9.149,5.755-13.58,8.542
		C594.671,268.003,594.379,267.998,594.086,267.974z"/>
	<path fill-rule="evenodd" clip-rule="evenodd" fill="#070001" d="M335.014,190.013c-0.812,1.57-1.465,3.25-2.461,4.694
		c-9.841,14.267-16.817,29.894-22.129,46.319c-0.5,1.545-0.91,3.118-1.399,4.667c-0.142,0.447-0.414,0.854-0.473,0.97
		c-4.875,0-9.508,0.021-14.14-0.037c-0.4-0.006-0.793-0.545-1.482-1.05c1.456-3.354,2.685-6.883,4.451-10.118
		c4.727-8.661,9.788-17.125,16.262-24.65c3.01-3.498,5.741-7.255,8.94-10.563c3.442-3.562,7.272-6.75,10.979-10.051
		c0.299-0.267,0.941-0.147,1.424-0.208L335.014,190.013z"/>
	<path fill-rule="evenodd" clip-rule="evenodd" fill="#070001" d="M594.086,267.974c0.293,0.024,0.585,0.029,0.877,0.015
		c0.225,1.405,1.25,1.747,2.464,1.97c3.68,0.676,7.368,1.328,11.011,2.173c1.185,0.274,2.238,1.112,3.231,1.63
		c0.805,11.372,2.649,22.289,0.076,33.494c-5.079-0.766-8.994-3.603-13.719-5.105c-0.335-2.902-0.752-5.627-0.945-8.367
		c-0.506-7.182-0.971-14.355-2.79-21.373C593.928,271.008,594.14,269.456,594.086,267.974z"/>
	<path fill-rule="evenodd" clip-rule="evenodd" fill="#040001" d="M305.51,389.058l-0.364-0.097
		c-0.423-0.179-1.047-0.235-1.238-0.553c-2.375-3.945-4.83-7.853-6.972-11.924c-1.821-3.46-3.262-7.119-4.906-10.769
		c6.689-4.35,13.279-8.635,20.199-13.135c2.428,5.881,4.706,11.4,6.917,16.756C314.492,376.066,310.001,382.562,305.51,389.058z"/>
	<path fill-rule="evenodd" clip-rule="evenodd" fill="#0D0003" d="M582.695,380.906c0.583-2.2,0.884-4.526,1.799-6.579
		c3.995-8.96,6.441-18.373,8.621-27.885c0.202-0.884,0.83-1.671,1.379-2.732c2.624,1.013,5.022,1.939,7.396,2.856
		c-0.258,6.171-9.37,23.558-17.975,34.396C583.509,380.943,583.103,380.925,582.695,380.906z"/>
	<path fill-rule="evenodd" clip-rule="evenodd" fill="#070001" d="M557.562,191.85c3.57-1.815,6.48-3.296,9.739-4.953
		c4.274,4.712,8.551,9.427,13.293,14.654c-5.059,0.987-9.463,1.848-13.898,2.713C563.617,200.08,560.728,196.152,557.562,191.85z"/>
	<path fill-rule="evenodd" clip-rule="evenodd" fill="#0E0003" d="M611.813,308.569c0.395,4.988-0.859,8.888-1.854,13.013
		c-3.951,2.263-8.294,1.009-12.716,1.441c0-2.3,0-4.389,0-6.918C601.908,313.893,606.132,310.474,611.813,308.569z"/>
	<path fill-rule="evenodd" clip-rule="evenodd" fill="#110003" d="M525.018,159.836c0.954,0.219,1.979,0.282,2.85,0.681
		c8.233,3.771,16.043,8.291,23.463,13.48c0.237,0.166,0.339,0.528,0.613,0.98c-1.473,1.609-2.988,3.265-4.707,5.144
		c-0.683-0.512-1.372-0.91-1.913-1.455c-5.245-5.293-10.6-10.446-16.703-14.781c-1.445-1.026-2.535-2.551-3.789-3.847
		L525.018,159.836z"/>
	<path fill-rule="evenodd" clip-rule="evenodd" fill="#34000A" d="M582.695,380.906c0.407,0.019,0.813,0.037,1.221,0.056
		c-0.885,1.097-0.565,3.349-2.916,3.039V384C580.82,382.561,581.521,381.604,582.695,380.906z"/>
	<path fill-rule="evenodd" clip-rule="evenodd" fill="#700014" d="M524.831,160.038c-0.909-0.113-1.819-0.227-2.692-0.336
		c0-0.6,0-0.911,0-1.341c1.592-0.726,2.298,0.243,2.879,1.475L524.831,160.038z"/>
	<path fill-rule="evenodd" clip-rule="evenodd" fill="#6F0015" d="M515.079,214.102c-0.75,0.691-1.501,1.384-2.404,2.217
		c-1.055-2.03-0.163-2.338,1.181-2.329C514.263,214.026,514.671,214.063,515.079,214.102z"/>
	<path fill-rule="evenodd" clip-rule="evenodd" fill="#700014" d="M520.816,157.538c-0.108,0.092-0.228,0.267-0.322,0.254
		c-0.111-0.015-0.202-0.191-0.303-0.297c0.111-0.102,0.224-0.202,0.335-0.304C520.623,157.307,520.72,157.422,520.816,157.538z"/>
	<path fill-rule="evenodd" clip-rule="evenodd" fill="#070001" d="M336.053,189.05c0.129-0.277,0.258-0.555,0.102-0.217
		c0.321-0.187,0.06-0.035-0.202,0.116L336.053,189.05z"/>
	<path fill-rule="evenodd" clip-rule="evenodd" fill="#070001" d="M335.952,188.949c-0.313,0.354-0.625,0.709-0.938,1.063
		l-0.028-0.027c0.356-0.312,0.712-0.624,1.067-0.936L335.952,188.949z"/>
	<path fill-rule="evenodd" clip-rule="evenodd" fill="#34000A" d="M581,384.001c-0.111,0.249-0.223,0.499-0.334,0.749
		c-0.133-0.125-0.265-0.25-0.397-0.375C580.512,384.25,580.756,384.125,581,384.001L581,384.001z"/>
	<path fill-rule="evenodd" clip-rule="evenodd" fill="#DC0029" d="M340.934,408.932c0.121-0.233,0.243-0.468,0.364-0.701
		c0.148,0.131,0.296,0.262,0.443,0.393c-0.227,0.145-0.453,0.289-0.68,0.433L340.934,408.932z"/>
</g>
</svg>
