<?xml version="1.0" encoding="utf-8"?>
<!-- Generator: Adobe Illustrator 16.0.0, SVG Export Plug-In . SVG Version: 6.00 Build 0)  -->
<!DOCTYPE svg PUBLIC "-//W3C//DTD SVG 1.1//EN" "http://www.w3.org/Graphics/SVG/1.1/DTD/svg11.dtd">
<svg version="1.1" id="レイヤー_1" xmlns="http://www.w3.org/2000/svg" xmlns:xlink="http://www.w3.org/1999/xlink" x="0px"
	 y="0px" width="166.077px" height="191.118px" viewBox="0 0 166.077 191.118" enable-background="new 0 0 166.077 191.118"
	 xml:space="preserve">
<g>
	<path d="M165.969,181.941c-0.102-0.549-0.283-1.097-0.288-1.647c-0.027-2.991-0.761-5.665-2.8-8.006
		c-0.867-0.995-1.223-2.437-1.811-3.675c0.157-0.014,0.314-0.028,0.472-0.042c0.164-0.356,0.48-0.721,0.462-1.066
		c-0.037-0.683-0.187-1.381-0.422-2.025c-0.444-1.217-0.986-2.398-1.48-3.598c-3.227-7.847-6.42-15.708-9.708-23.529
		c-0.563-1.339-0.719-2.531-0.289-3.919c0.588-1.896,0.853-3.839,0.022-5.773c-0.327-0.761-0.5-1.593-0.866-2.331
		c-0.458-0.926-0.234-1.49,0.77-1.862c1.094,0.772,2.227,1.583,3.369,2.379c1.966,1.368,3.943,2.72,5.906,4.093
		c0.758,0.53,1.59,0.456,2.264,0.036c0.848-0.527,1.555-1.281,2.447-2.044c-1.351-1.259-2.555-2.345-3.718-3.473
		c-1.666-1.615-3.31-3.255-4.938-4.907c-0.17-0.173-0.322-0.579-0.234-0.752c0.452-0.895,0.013-1.486-0.513-2.153
		c-2.368-3.007-4.713-6.032-7.022-9.085c-0.296-0.392-0.405-0.968-0.479-1.477c-0.233-1.639-0.234-3.332-0.654-4.917
		c-0.481-1.82-0.64-3.578-0.242-5.41c0.111-0.514,0.214-1.091,0.094-1.583c-0.462-1.878,0.157-3.612,0.526-5.399
		c0.368-1.78,0.958-3.635,0.762-5.379c-0.229-2.022,0.317-3.691,1.183-5.322c0.7-1.319,0.886-2.598,0.616-4.038
		c-0.448-2.396-0.721-4.807,0.049-7.202c0.56-1.742,1.181-3.468,1.67-5.229c0.896-3.223,2.315-6.333,0.481-9.82
		c-1.756-3.34-3.476-6.461-7.638-7.155c-0.385-0.064-0.694-0.576-1.038-0.88c0.397-0.187,0.783-0.496,1.195-0.535
		c0.857-0.082,1.068-0.397,0.859-1.241c-0.274-1.112-0.374-2.293,0.471-3.227c0.521-0.576,1.154-1.112,1.842-1.463
		c2.148-1.099,2.714-1.958,2.608-4.322c-0.012-0.266,0.011-0.539-0.038-0.798c-0.103-0.552,0.103-0.822,0.629-1.049
		c1.562-0.675,2.118-1.583,1.994-3.301c-0.076-1.058-0.248-2.117-0.47-3.156c-0.332-1.547-0.746-3.077-1.147-4.704
		c1.586,0.653,1.601,0.65,2.829-0.385c1.346-1.135,2.485-2.417,4.471-2.733c1.869-0.297,1.823-0.59,1.374-2.817
		c-0.442-2.201-1.007-2.567-3.159-2.07c-0.389,0.09-0.786,0.178-1.183,0.192c-1.45,0.054-2.747-0.381-3.889-1.285
		c-0.563-0.446-1.101-0.943-1.719-1.298c-1.442-0.829-2.885-1.627-3.805-3.103c-0.184-0.294-0.503-0.545-0.815-0.712
		c-3.992-2.13-7.979-4.271-12.01-6.33c-0.668-0.342-1.541-0.449-2.305-0.404c-1.253,0.074-2.507,0.306-3.735,0.583
		c-0.504,0.114-1.179,0.409-1.363,0.812c-0.439,0.953-0.743,2.003-0.898,3.044c-0.252,1.687-0.199,1.646-1.833,2.158
		c-4.111,1.29-7.891,3.165-10.3,6.924c-1.122,1.75-2.057,3.663-2.785,5.61c-0.745,1.991-0.92,4.086-0.684,6.285
		c0.234,2.186-0.117,4.431-0.157,6.651c-0.026,1.448-0.204,2.961,0.142,4.33c0.356,1.413,1.155,2.757,1.957,4.005
		c1.159,1.806,2.42,3.571,4.445,4.557c0.002-0.002,0.005-0.005,0.007-0.007c0.005,0.003,0.009,0.007,0.014,0.01
		c-0.218-0.317-0.389-0.687-0.666-0.939c-2.456-2.237-4.019-5.022-4.97-8.161c-0.236-0.779-0.291-1.639-0.289-2.461
		c0.011-2.926,0.108-5.852,0.122-8.777c0.015-3.138,1.031-5.994,2.299-8.804c1.255-2.781,3.352-4.697,5.923-6.243
		c2.992-1.798,6.184-2.934,9.654-3.208c2.323-0.184,4.589,0.054,6.906,0.583c2.707,0.618,4.881,2.056,7.08,3.516
		c0.932,0.618,1.623,1.599,2.423,2.415c-0.062,0.129-0.124,0.257-0.187,0.386c-0.86-0.109-1.721-0.218-2.554-0.324
		c0.778,1.488,1.143,3.138,1.163,4.83c0.022,1.762-0.288,3.459-2.13,4.698c1.129-0.022,1.188,0.536,1.368,1.302
		c0.93,3.965,0.196,7.662-1.495,11.253c-0.128,0.271-0.276,0.537-0.365,0.82c-0.116,0.374-0.182,0.762-0.333,1.423
		c1.652-1.613,3.121-3.048,4.721-4.61c-0.649,1.345-1.206,2.496-1.762,3.646c0.088,0.045,0.177,0.09,0.265,0.135
		c0.313-0.517,0.625-1.033,0.955-1.58c0.731,0.947,0.601,1.156-1.319,2.286l0.05,0.261c0.514-0.129,1.181-0.104,1.501-0.426
		c0.388-0.39,0.563-1.055,0.68-1.632c0.126-0.619,0.049-1.277,0.113-1.913c0.086-0.854,0.735-0.75,1.267-0.602
		c0.963,0.27,1.581,1.299,1.47,2.331c-0.061,0.556-0.162,1.107-0.256,1.73c0.728-0.83,0.948-1.771,1.022-4.2h0.805
		c0.027,0.064,0.097,0.15,0.095,0.234c-0.011,0.827,0.061,1.669-0.077,2.475c-0.181,1.059-0.805,1.842-1.787,2.389
		c-1.306,0.726-2.555,1.554-3.815,2.357c-0.71,0.453-1.165,0.268-1.843-0.92c-0.354,0.552-0.641,1.056-0.982,1.521
		c-0.84,1.146-1.599,2.38-2.591,3.379c-1.027,1.036-2.219,1.962-3.477,2.702c-1.009,0.594-2.207,0.896-3.351,1.224
		c-1.896,0.543-3.793,1.19-5.734,1.431c-1.21,0.15-2.52-0.299-3.753-0.605c-0.718-0.178-1.374-0.604-2.058-0.919
		c-0.044,0.077-0.088,0.154-0.132,0.23c0.446,0.275,0.893,0.55,1.354,0.834c-0.145,0.794-0.34,1.567-0.413,2.352
		c-0.07,0.756-0.016,1.524,0.181,2.274c0.161-1.261,0.299-2.525,0.504-3.779c0.038-0.233,0.349-0.422,0.533-0.632
		c-0.005,0.26,0.027,0.527-0.021,0.779c-0.169,0.88-0.365,1.754-0.554,2.63c-0.119,0.555,0.315,1.25-0.463,1.667
		c-0.105,0.057,0.055,0.611,0.115,1.134c-0.521,0.034-1.073,0.187-1.571,0.081c-1.315-0.28-2.604-0.623-3.841,0.281
		c-0.356-1.816,1.724-8.491,2.866-8.91c-0.933-0.686-1.79-1.315-2.646-1.944c0.003,0.004,0.006,0.009,0.009,0.014
		c-0.011-0.005-0.02-0.011-0.029-0.017c-0.251,0.248-0.464,0.571-0.764,0.72c-0.524,0.26-1.104,0.405-1.658,0.605
		c-1.032,0.374-2.035,0.89-3.099,1.104c-3.261,0.656-6.533,1.28-9.824,1.758c-2.896,0.42-5.855,0.453-8.726,0.984
		c-2.285,0.423-4.548,0.652-6.836,0.466c-1.585-0.129-2.85,0.114-4.026,1.342c-1.277,1.333-3.494,1.374-5.007,0.328
		c-1.199-0.829-2.482-1.219-3.942-1.16c-0.887,0.036-1.728-0.077-2.487-0.743c-0.422-0.372-1.152-0.423-1.758-0.55
		c-1.802-0.376-3.411,0.283-4.968,1.054c-0.605,0.299-1.016,0.2-1.519-0.184c-2.788-2.126-5.583-4.243-8.401-6.33
		c-3.021-2.238-6.084-4.419-9.103-6.66c-4.968-3.688-9.899-7.425-14.875-11.102c-3.766-2.782-7.599-5.474-11.363-8.258
		c-2.754-2.037-5.484-4.111-8.154-6.257C6.238,9.921,3.637,7.639,0.976,5.431c-0.238-0.197-0.62-0.222-0.935-0.327
		C0.037,5.414-0.05,5.752,0.043,6.029C0.33,6.879,0.706,7.7,1.013,8.544c1.339,3.685,3.286,6.963,6.356,9.482
		c0.316,0.259,0.738,0.389,1.111,0.579c-1.181-1.182-2.377-2.349-3.534-3.554c-0.316-0.329-0.564-0.748-0.757-1.165
		c-1.028-2.233-2.032-4.478-3.035-6.723C1.053,6.935,1.013,6.679,0.867,6.161C2.85,7.729,4.648,9.085,6.353,10.55
		c0.355,0.306,0.498,1.01,0.512,1.537c0.089,3.359,2.485,4.912,4.911,6.455c-0.404-0.409-0.802-0.825-1.218-1.221
		c-0.265-0.252-0.564-0.466-0.845-0.702c-2.106-1.776-2.183-1.558-2.457-5.26c1.129,0.843,2.178,1.626,3.227,2.409
		c5.224,3.896,10.45,7.788,15.671,11.686c8.432,6.294,16.855,12.597,25.294,18.88c1.317,0.981,2.728,1.836,4.039,2.824
		c2.306,1.738,4.569,3.533,6.846,5.309c0.069,0.054,0.096,0.164,0.206,0.363c-0.91,0.365-1.782,0.759-2.687,1.049
		c-0.247,0.079-0.644-0.08-0.885-0.251c-1.462-1.044-2.898-2.125-4.346-3.188c-0.246-0.181-0.507-0.342-0.761-0.512
		c-0.058,0.084-0.116,0.169-0.173,0.253c1.75,1.336,3.5,2.673,5.303,4.051c-0.308,0.423-0.591,0.813-0.961,1.322
		c-0.788-0.545-1.556-1.048-2.294-1.592c-2.917-2.146-5.812-4.324-8.745-6.447c-1.167-0.846-2.415-1.582-3.625-2.368
		c1.132,0.952,2.228,1.953,3.405,2.844c2.735,2.072,5.484,4.128,8.286,6.108c0.82,0.579,0.984,1.083,0.385,1.833
		c-1.648,2.064-0.909,3.988,0.355,5.86c0.568,0.841,1.371,1.324,2.432,1.335c0.214,0.003,0.513,0.155,0.626,0.332
		c0.719,1.125,1.512,2.062,3.058,1.488c0.104,0.356,0.196,0.605,0.248,0.862c0.346,1.728,0.401,1.718,2.128,2.091
		c0.667,0.144,1.371,0.479,1.878,0.931c1.404,1.249,3.637,1.139,4.698,2.919c0.046,0.078,0.249,0.062,0.377,0.093
		c1.039,0.26,2.114,0.426,3.109,0.803c1.768,0.67,3.523,0.827,5.375,0.418c1.045-0.23,1.849,0.356,1.954,1.167
		c0.458,3.548-0.168,7.029-0.589,10.528c-0.313,2.603-0.521,5.219-0.72,7.833c-0.02,0.259,0.287,0.63,0.542,0.808
		c0.892,0.625,1.836,1.174,2.741,1.781c0.463,0.31,0.868,0.946,1.33,0.976c1.597,0.104,3.208,0.008,4.813-0.013
		c-0.004-0.109-0.007-0.219-0.011-0.328c-0.529-0.031-1.058-0.084-1.587-0.087c-0.565-0.002-1.155,0.155-1.692,0.042
		c-0.749-0.157-1.503-0.421-2.172-0.79c-0.554-0.305-0.929-0.938-1.485-1.232c-1.875-0.988-1.893-0.955-1.713-3.082
		c0.028-0.332,0.059-0.664,0.098-0.995c0.456-3.868,0.943-7.732,1.352-11.605c0.121-1.142,0.019-2.308,0.019-3.729
		c1.518,1.03,2.849,1.882,4.122,2.812c1.151,0.84,2.208,1.812,3.367,2.641c1.711,1.224,2.939,3.502,5.606,2.595
		c0.062,0.181,0.121,0.275,0.121,0.369c0.028,3.297,0.131,6.597,0.015,9.889c-0.027,0.766-0.627,1.8-1.276,2.185
		c-0.851,0.505-2.01,0.495-3.038,0.695c-0.323,0.063-0.653,0.09-0.98,0.133c0.014,0.11,0.026,0.22,0.04,0.33
		c1.734-0.154,3.469-0.309,5.549-0.494c-0.285,1.289-0.413,2.376-0.774,3.381c-0.583,1.623-1.153,3.289-2.024,4.763
		c-1.995,3.377-4.135,6.67-6.278,9.957c-2.122,3.254-3.951,6.628-4.91,10.427c-1.646,6.516-4.071,12.741-7.106,18.727
		c-0.701,1.382-0.978,2.757-0.983,4.305c-0.012,3.794,0.076,7.619-0.373,11.372c-0.588,4.916-1.636,9.778-2.528,14.656
		c-0.171,0.937-0.065,1.761,0.641,2.371c0.761,0.657,1.625,1.195,2.459,1.795c-0.049,0.036-0.226,0.18-0.415,0.303
		c-0.669,0.435-1.325,0.896-2.019,1.287c-1.597,0.901-0.089,2.744-1.174,3.837c-0.16,0.161,0.048,0.849,0.258,1.187
		c0.603,0.974,1.5,1.56,2.664,1.694c1.936,0.225,3.875,0.424,5.806,0.686c3.259,0.441,6.478-0.11,9.701-0.396
		c2.208-0.196,4.392-0.641,6.595-0.91c1.352-0.165,2.726-0.151,4.075-0.326c1.113-0.144,1.71-0.976,1.755-2.079
		c0.026-0.637,0.161-1.269,0.236-1.903c0.043-0.362,0.101-0.728,0.091-1.089c-0.045-1.546,0.107-1.691,1.682-1.887
		c2.44-0.304,4.879-0.633,7.31-1c0.491-0.074,0.949-0.365,1.411-0.552c4.022,1.238,7.755,3.275,11.227,5.782
		c0.999,0.721,2.006,0.641,3.032,0.374c2.152-0.561,4.284-1.199,6.418-1.828c0.407-0.12,0.773-0.376,1.178-0.51
		c0.467-0.153,0.967-0.372,1.432-0.331c1.443,0.128,2.866,0.217,4.209-0.457c2.826-1.419,5.646-2.853,8.47-4.279
		c0.733-0.37,1.469-0.735,2.29-1.147c0.566,1.779,1.058,3.439,0.665,5.182c-0.101,0.448-0.512,0.939-0.918,1.185
		c-1.391,0.839-1.834,1.838-1.261,3.311c0.35,0.899,0.38,1.715-0.224,2.538c-0.182,0.249-0.183,0.665-0.185,1.005
		c-0.004,0.615,0.085,1.232,0.079,1.849c-0.009,0.807,0.079,1.378,1.032,1.758c1.347,0.538,2.658,0.646,4.071,0.563
		c3.408-0.2,6.786-0.316,9.962-1.915c1.545-0.778,2.122-1.872,2.222-3.424c0.068-1.077,0.115-2.155,0.155-3.234
		C166.084,182.328,166.005,182.135,165.969,181.941z M156.36,13.741c1.75-0.394,2.388,0.019,2.486,2.004
		c-0.106-0.165-0.192-0.349-0.322-0.493c-1.086-1.202-1.783-1.348-3.253-0.697c-1.257,0.556-1.521,0.495-2.269-0.35
		C154.063,14.064,155.232,13.994,156.36,13.741z M129.588,5.262c-1.446,0.247-2.894,0.494-4.683,0.799
		c0.292-1.593,0.548-2.989,0.802-4.381c1.326-0.182,2.497-0.343,3.744-0.514c-0.424,1.313-1.719,0.477-2.427,1.19
		c0.904,0.81,1.803,1.615,2.7,2.419C129.679,4.938,129.634,5.1,129.588,5.262z M142.293,7.629c-0.554-0.498-1.598-0.395-1.442-1.541
		c0.014-0.1-0.272-0.271-0.443-0.361c-2.313-1.22-4.607-2.482-6.959-3.623c-1.023-0.496-2.169-0.739-3.259-1.097
		c0.018-0.062,0.036-0.125,0.054-0.187c0.666,0.112,1.397,0.084,1.988,0.358c3.465,1.607,6.9,3.278,10.336,4.948
		c0.49,0.238,0.925,0.59,1.441,0.926C143.378,7.364,142.555,6.334,142.293,7.629z M147.643,10.561
		c-0.002-0.01,0.084-0.038,0.337-0.149c0.252,1.33,0.495,2.608,0.737,3.887c-0.094,0.017-0.188,0.034-0.281,0.051
		C148.17,13.086,147.903,11.824,147.643,10.561z M148.86,15.393c-0.071-0.144-0.163-0.307-0.155-0.457
		c0.062-1.228,0.146-2.454,0.226-3.725c0.654,0.303,1.76,0.306,2.062,1.383c0.517,1.842,0.533,3.659-0.869,5.319
		C149.657,16.986,149.255,16.191,148.86,15.393z M164.598,179.638c-0.147-0.077-0.354-0.121-0.458-0.249
		c-0.945-1.154-2.063-1.097-3.168-0.358c-1.08,0.721-2.076,1.565-3.108,2.358c0.002,0,0.003,0.001,0.005,0.001
		c0.807-0.522,1.61-1.051,2.425-1.563c0.362-0.229,0.751-0.415,1.12-0.634c0.725-0.428,1.304-0.353,1.57,0.248
		c-0.857,0.3-1.766,0.556-2.618,0.937c-0.689,0.308-1.304,0.782-1.974,1.14c-0.118,0.063-0.345-0.075-0.523-0.127
		c-0.012,0.008-0.022,0.015-0.033,0.021c0.01-0.008,0.02-0.016,0.028-0.022c-0.001-0.001-0.003-0.002-0.005-0.002
		c-0.852,0.486-1.701,0.972-2.621,1.497c-0.37-0.814-0.783-1.606-1.093-2.438c-0.325-0.875-0.747-1.501-1.94-1.143
		c0.113-2.019,0.548-3.823,1.417-5.568c-0.489,0.746-0.978,1.493-1.467,2.24c-0.083-0.005-0.166-0.011-0.249-0.017
		c0.051-0.579-0.08-1.268,0.189-1.717c0.528-0.881,1.133-1.857,1.966-2.386c1.92-1.216,3.995-2.188,6.104-3.31
		C161.815,172.355,164.773,175.329,164.598,179.638z M163.915,186.454c-1.464,1.77-3.419,2.676-5.722,2.792
		c-0.165,0.01-0.331,0.016-0.495,0.029c-1.946,0.164-2.43-0.514-2.244-2.445c0.182-1.881,1.741-2.368,2.864-3.287
		c0.709-0.58,1.562-1.052,2.426-1.354c0.71-0.248,1.599-0.398,2.292-0.195C164.756,182.498,165.223,184.873,163.915,186.454z
		 M161.421,127.89c0.049,0.046,0.107,0.085,0.143,0.139c0.388,0.593,1.306,1.031,0.761,1.922c-0.423,0.689-1.979,0.929-2.725,0.408
		c-1.925-1.347-3.804-2.76-5.696-4.152c-0.24-0.176-0.446-0.398-0.683-0.579c-1.141-0.875-1.243-2.279-0.233-3.319
		c0.365-0.376,0.732-0.751,1.214-1.244C156.659,123.388,159.04,125.639,161.421,127.89z M141.581,45.063
		c-1.456,0.332-2.896,0.66-4.243,0.967C139.122,44.266,140.724,43.858,141.581,45.063z M123.743,52.038
		c0.873,0.007,1.746,0.001,2.619,0.001c0.015,0.09,0.028,0.179,0.042,0.269c-1.361,0.62-2.722,1.239-4.085,1.859
		C121.765,52.91,122.304,52.027,123.743,52.038z M82.503,51.381c3.235,0.075,6.424-0.251,9.62-0.75
		c4.136-0.646,8.317-1,12.449-1.665c2.878-0.463,5.757-1.077,8.535-1.942c1.408-0.439,2.592-0.667,3.874,0.116
		c-0.375,1.054-0.798,2.125-1.133,3.222c-0.339,1.112-0.448,2.315-0.922,3.359c-0.453,1,0.161,2.301-1.01,3.332v-3.254
		c-0.531,1.047-0.97,2.104-1.591,3.04c-0.26,0.391-0.914,0.742-1.384,0.734c-3.521-0.055-7.042-0.229-10.564-0.316
		c-2.793-0.069-5.59-0.121-8.382-0.049c-0.541,0.014-1.21,0.526-1.567,0.999c-0.614,0.812-1.187,1.319-2.298,1.046
		c-1.061-0.26-2.17-0.314-3.246-0.52c-0.27-0.051-0.691-0.314-0.711-0.513c-0.234-2.365-1.619-4.183-2.952-6.28
		C81.681,51.729,82.096,51.372,82.503,51.381z M74.628,52.515c1.195,0.903,2.575,1.564,3.873,2.332
		c0.069-0.066,0.138-0.133,0.208-0.199c-0.512-0.272-1.024-0.544-1.536-0.816l0.365-0.46c1.188,0.052,2.376,0.09,3.562,0.169
		c0.211,0.015,0.491,0.147,0.604,0.316c0.821,1.232,1.517,2.5,1.174,4.086c-0.136,0.63-0.362,0.735-0.961,0.505
		c-1.455-0.559-2.967-0.975-4.401-1.579c-1.082-0.456-1.935-0.123-2.799,0.437c-0.528,0.341-1.045,0.698-1.524,1.019
		c-1.494-0.761-1.542-2.158-1.788-3.494c-0.2-1.087-0.532-2.149-0.809-3.237C71.912,51.36,73.299,51.511,74.628,52.515z
		 M70.033,60.107c-1.284,0.022-1.94,0.804-2.61,1.709c-0.768,1.038-0.863,1.017-2.001,0.071c2-1.233,4.342-1.958,5.719-4.077
		c0.368,0.187,0.71,0.36,0.932,0.473v1.32C71.424,59.773,70.731,60.095,70.033,60.107z M70.538,60.936
		c-0.68,0.438-1.36,0.876-2.04,1.314c-0.099-0.152-0.198-0.304-0.297-0.456c0.677-0.443,1.354-0.886,2.031-1.329
		C70.333,60.621,70.436,60.778,70.538,60.936z M73.137,59.277c0.245,0.166,0.529,0.358,0.979,0.664
		c-0.812,0.443-1.506,0.734-2.095,1.168c-0.624,0.46-1.181,1.026-1.705,1.603c-0.419,0.462-0.745,1.01-1.112,1.52
		c-0.118-0.088-0.235-0.175-0.353-0.263c-0.365-0.271-0.729-0.541-1.357-1.008C70.136,62.679,71.326,60.683,73.137,59.277z
		 M61.728,54.805c0.153-0.013,0.328-0.1,0.439-0.208c0.78-0.752,1.591-0.876,2.563-0.227l-1.119-1.523
		c0.103-0.107,0.206-0.214,0.308-0.321c0.519,0.424,1.328,0.768,1.473,1.294c0.139,0.505-0.015,1.338-0.811,1.75
		c-0.998,0.516-1.909,1.201-2.856,1.813c-1.277,0.827-1.514,0.768-2.506-0.633C59.739,55.7,60.46,54.911,61.728,54.805z
		 M58.313,62.546c-1.592,0.119-2.299-1.012-2.88-2.202c-0.529-1.083-0.587-2.183,0.324-3.147c0.429-0.455,0.862-0.905,1.253-1.314
		c1.057,1.133,2.08,2.229,3.131,3.356c1.904-1.241,3.682-2.332,5.382-3.531c1.111-0.784,1.036-2.315-0.083-3.107
		c-0.666-0.471-1.39-0.859-2.058-1.267c1.26-1.242,2.854-1.135,4.404-1.133c1.027,0.001,2.538,1.45,2.741,2.718
		c0.148,0.931,0.134,1.904,0.06,2.848c-0.058,0.726-0.173,1.527-0.539,2.126c-0.36,0.59-1,1.108-1.634,1.416
		c-2.226,1.079-4.307,2.53-6.835,2.888C60.496,62.35,59.405,62.464,58.313,62.546z M59.753,63.052
		c1.435-0.263,2.801-0.65,4.181-0.709c0.734-0.031,1.493,0.505,2.238,0.79c0.098,0.038,0.204,0.084,0.274,0.158
		c0.186,0.195,0.354,0.408,0.529,0.613c-0.231,0.176-0.466,0.507-0.692,0.501c-0.99-0.027-1.977-0.163-2.967-0.232
		c-0.292-0.02-0.604,0.002-0.882,0.087C60.715,64.788,60.642,64.763,59.753,63.052z M65.367,67.459
		c-0.666,0.124-1.569-0.061-2.093-0.466c-0.372-0.288-0.281-1.168-0.405-1.782c-0.032-0.159-0.094-0.311-0.22-0.715
		c1.165,0.128,2.15,0.214,3.126,0.361c0.224,0.033,0.497,0.23,0.607,0.429C66.662,65.791,66.07,67.329,65.367,67.459z
		 M82.173,71.239c-2.211,1.805-4.718,1.807-7.521,1.147c1.263-1.402,2.864-0.928,4.222-1.492c-1.027-0.038-2.148,0.168-3.055-0.182
		c-0.882-0.34-1.545-1.248-2.305-1.907c-0.073,0.078-0.146,0.155-0.219,0.232c0.655,0.611,1.311,1.222,2.01,1.874
		c-2.316,1.222-4.986,0.864-5.249-0.952c0.976-0.301,1.967-0.607,2.958-0.913c-0.028-0.104-0.057-0.208-0.085-0.312
		c-0.631,0.167-1.263,0.332-1.893,0.503c-1.259,0.344-2.506,0.698-3.757-0.072c-1.312-0.808-1.402-1.823-0.009-2.462
		c1.29-0.591,2.14-1.578,2.858-2.635c1.228-1.807,2.849-3.034,4.771-3.931c-0.387-0.443-0.769-0.88-1.24-1.419
		c0.89-0.485,1.766-0.991,2.67-1.438c0.239-0.118,0.588-0.129,0.853-0.061c2.201,0.576,4.26,1.47,6.162,2.738
		c0.7,0.466,1.486,0.803,2.233,1.199c0.041-0.07,0.081-0.141,0.121-0.211c-0.682-0.456-1.362-0.912-2.22-1.486
		c2.765,0.312,5.284,0.596,7.803,0.881c0.038-0.101,0.075-0.202,0.113-0.302c0.086,0.238,0.188,0.471,0.255,0.714
		c0.715,2.566,1.411,5.137,2.142,7.699c0.241,0.846,0.021,1.332-0.896,1.26c-1.319-0.103-2.636-0.265-3.949-0.431
		c-1.005-0.127-2.005-0.298-3.049-0.456c0.186-0.269,0.398-0.577,0.612-0.885c-0.044-0.059-0.088-0.118-0.131-0.177
		c-0.692,0.463-1.432,0.871-2.065,1.404C83.558,69.806,82.939,70.613,82.173,71.239z M85.788,71.208
		c-0.86,0.176-1.645,0.337-2.566,0.526C84.471,70.169,84.588,70.146,85.788,71.208z M84.936,75.06h1.639
		c-0.251,0.297-0.449,0.531-0.722,0.854C85.53,75.613,85.295,75.395,84.936,75.06z M85.168,74.044
		c0.56-0.186,1.119-0.371,1.679-0.557c0.062,0.169,0.123,0.338,0.184,0.508c-0.574,0.158-1.149,0.317-1.725,0.476L85.168,74.044z
		 M88.188,77.655c-0.66-0.542-1.182-0.969-1.703-1.397c1.555-0.045,2.954-0.348,3.962-1.802h-2.676
		c0.377-0.605,0.669-1.074,0.958-1.541c0,0-0.001,0-0.001-0.001c-0.011-0.007-0.021-0.013-0.031-0.02
		c-0.621,0.05-1.248,0.172-1.86,0.121c-1.515-0.127-2.232,0.299-2.465,1.72c-0.626-0.506-1.199-0.969-1.771-1.431
		c1.827,0.504,2.556-1.151,3.871-1.833c0.693,0.444,1.459,0.934,2.225,1.423c0.016-0.001,0.032-0.003,0.049-0.005
		c-0.005,0.008-0.011,0.018-0.017,0.026c1.223,0.925,2.44,1.854,3.659,2.784c-0.021,0.096-0.042,0.192-0.063,0.288
		C90.864,76.364,88.911,75.485,88.188,77.655z M88.801,78.054c0.94-0.228,1.794-0.436,2.646-0.642
		c0.007-0.009,0.014-0.019,0.021-0.027c0.011,0.001,0.021,0.001,0.033,0.002c0.412-0.388,0.824-0.776,1.269-1.194
		c0.432,0.413,0.8,0.765,1.168,1.116c-0.027,0.08-0.055,0.161-0.082,0.241c-0.785-0.055-1.57-0.109-2.354-0.164l-0.018,0.016
		c-0.012,0.003-0.024,0.006-0.036,0.009c-0.424,0.566-0.847,1.132-1.293,1.729C89.491,78.608,89.17,78.35,88.801,78.054z
		 M90.428,79.164c1.512-0.07,3.038,0.022,3.954-1.505c0.363,0.271,0.643,0.48,0.916,0.685C94.186,80.11,91.581,80.578,90.428,79.164
		z M95.623,81.293c-0.133,0.902-0.896,0.715-1.416,0.53c-0.6-0.213-1.12-0.651-1.73-1.025c1.094-0.515,2.088-0.982,3.165-1.489
		C95.642,79.934,95.721,80.626,95.623,81.293z M95.535,77.505c-3.249-2.498-6.497-4.996-9.746-7.494
		c0.022-0.066,0.046-0.132,0.068-0.198c0.71,0,1.436-0.092,2.129,0.018c1.898,0.301,3.788,0.668,5.671,1.058
		c0.305,0.063,0.742,0.332,0.805,0.583c0.491,1.961,0.905,3.94,1.343,5.914C95.715,77.425,95.625,77.465,95.535,77.505z
		 M94.951,71.165c-1.158-4.304-2.168-8.648-3.319-13.281c1.66,0,3.2-0.022,4.739,0.004c4.725,0.08,9.448,0.192,14.173,0.256
		c0.86,0.011,1.74-0.07,2.578-0.258c0.513-0.116,1.052-0.429,1.421-0.808c1.264-1.298,2.795-1.417,4.435-1.158
		c1.277,0.201,2.55,0.433,3.866,0.542c-0.216-0.105-0.432-0.211-0.711-0.347c4.578-0.738,8.601,0.988,12.663,2.506
		c-3.503-2.97-7.653-3.58-12.064-3.449c0.815-0.89,1.783-1.439,2.92-1.626c2.462-0.407,4.933-0.766,7.399-1.146
		c0.42-0.064,0.839-0.138,1.235-0.433c-2.114,0.19-4.228,0.38-6.341,0.571c-0.023-0.052-0.047-0.104-0.071-0.156
		c1.626-0.865,3.258-1.721,4.877-2.599c1.878-1.018,3.739-2.067,5.624-3.072c0.423-0.226,0.912-0.449,1.375-0.456
		c1.425-0.021,2.959-0.251,4.252,0.187c1.693,0.574,3.685,0.898,4.591,2.917c0.704,1.57,1.635,3.038,2.421,4.573
		c0.688,1.343,0.615,2.813,0.341,4.208c-0.357,1.822-0.943,3.599-1.423,5.397c-0.613,2.302-1.219,4.605-1.795,6.782
		c-1.263-2.318-2.61-4.792-3.957-7.265c-0.102,0.052-0.202,0.104-0.303,0.156c0.713,1.467,1.406,2.944,2.146,4.398
		c0.999,1.965,1.822,3.972,2.023,6.204c0.076,0.851,0.55,1.701,0.484,2.522c-0.086,1.07-0.464,2.135-0.833,3.16
		c-0.487,1.354-0.913,2.644-0.646,4.159c0.336,1.916-0.347,3.754-0.938,5.561c-0.55,1.686-1.069,3.334-0.462,5.158
		c0.201,0.603-0.008,1.377-0.152,2.047c-0.114,0.528-0.417,1.016-0.666,1.591c-2.064-2.965-3.499-6.473-6.532-8.793
		c0.356,0.478,0.759,0.929,1.062,1.438c1.801,3.024,3.618,6.039,5.335,9.11c0.421,0.754,0.377,1.757,0.741,2.558
		c0.771,1.697,1.12,3.443,1.098,5.299c-0.005,0.399,0.217,0.852,0.456,1.194c1.252,1.793,2.54,3.562,3.819,5.335
		c0.604,0.835,1.196,1.678,1.833,2.486c0.364,0.462,0.777,0.896,1.222,1.282c0.83,0.722,0.87,1.192-0.005,1.923
		c-1.508,1.259-2.983,2.57-4.588,3.696c-2.148,1.509-4.372,2.921-6.636,4.252c-0.794,0.468-1.786,0.715-2.715,0.818
		c-3.224,0.356-6.365,0.993-9.402,2.158c-0.591,0.227-1.345,0.321-1.93,0.153c-0.33-0.096-0.667-0.852-0.665-1.308
		c0.016-3.563,0.194-7.126,0.169-10.688c-0.045-6.023-0.209-12.045-0.305-18.068c-0.017-1.028,0.017-2.062,0.111-3.085
		c0.026-0.295,0.29-0.645,0.546-0.827c0.646-0.458,1.348-0.833,2.094-1.282c1.899,2.19,3.806,4.389,5.713,6.587
		c0.038-0.032,0.077-0.064,0.115-0.097c-1.738-2.36-3.477-4.722-5.176-7.029c1.017-1.044,1.93-1.983,2.991-3.074
		c-1.786,1.213-3.368,2.329-4.996,3.375c-0.746,0.479-1.54,0.982-2.383,1.195c-3.352,0.846-6.713,1.672-10.104,2.336
		c-4.178,0.817-8.391,1.452-12.583,2.194c-1.759,0.312-3.492,0.782-5.26,1.015c-1.078,0.142-1.769-0.891-2.098-1.925
		c-0.554-1.741-0.101-3.477-0.194-5.202c-0.206-3.805,0.024-7.635,0.086-11.454C96.722,79.356,96.048,75.242,94.951,71.165z
		 M147.059,140.892c-0.865-0.767-0.82-4.634,0.05-5.715C147.99,137.191,146.479,139.012,147.059,140.892z M140.69,129.441
		c0.032-0.1,0.175-0.205,0.285-0.234c1.069-0.278,2.143-0.541,3.313-0.833c-0.205,2.826-1.316,5.379-2.263,7.979
		c-0.096,0.003-0.192,0.006-0.289,0.009c-0.597-1.487-1.355-2.938-1.72-4.48C139.847,131.16,140.43,130.257,140.69,129.441z
		 M139.693,131.173c-0.659-0.916-0.631-1.019,0.577-1.804C140.089,129.937,139.907,130.503,139.693,131.173z M142.338,136.817
		c0.555-1.348,1.158-2.676,1.744-4.011c0.331-0.754,0.658-1.51,1.021-2.342c1.323,3.092,0.419,6.098,0.339,9.408
		c-1.093-0.866-2.043-1.595-2.955-2.369C142.341,137.38,142.262,137.002,142.338,136.817z M111.977,105.655
		c0.166,0.035,0.333,0.069,0.499,0.104c-1.162,5.786-2.156,11.612-3.534,17.346c-1.379,5.739-3.141,11.386-4.734,17.073l-0.296-0.07
		L111.977,105.655z M109.828,102.768c-0.778-0.054-0.818-0.55-0.83-1.096c-0.016-0.752,0.524-1.021,1.118-0.953
		c0.312,0.035,0.577,0.47,0.864,0.725C110.816,102.317,110.73,102.829,109.828,102.768z M112.142,102.2
		c-0.071-1.881,0.122-2.072,1.999-2.156c0.427-0.019,0.856-0.003,1.465-0.003c-0.592,0.996-1.046,1.931-1.676,2.726
		c-0.218,0.275-0.884,0.301-1.322,0.248C112.416,102.991,112.153,102.492,112.142,102.2z M115.579,101.77l1.989,0.999
		c0.071-0.082,0.143-0.165,0.214-0.247c-0.484-0.787-1.784-1.246-1.033-2.631c1.05,0.168,2.189,0.326,3.316,0.548
		c0.237,0.046,0.611,0.316,0.617,0.493c0.053,1.559-0.16,3.072-1.305,4.256c-1.05,1.085-3.104,0.55-3.588-0.942
		c-0.231-0.715-0.303-1.48-0.446-2.224C115.423,101.938,115.501,101.854,115.579,101.77z M121.576,103.815
		c0.188-0.221,0.632-0.335,0.948-0.314c0.761,0.049,1.513,0.227,2.272,0.311c0.709,0.079,1.363-0.029,1.823-0.774
		c-0.2-0.112-0.35-0.254-0.41-0.223c-1.385,0.717-2.3-0.677-3.508-0.828c-0.378-0.048-0.641-1.002-1.085-1.761
		c1.671,0,3.062,0.001,4.452,0c0.525-0.001,0.772,0.224,0.793,0.781c0.052,1.462,0.186,2.922,0.194,4.383
		c0.002,0.246-0.478,0.726-0.701,0.707c-1.876-0.158-3.743-0.408-5.729-0.644C121.004,104.775,121.219,104.235,121.576,103.815z
		 M122.518,99.064h4.134l0.021,0.135h-4.146C122.522,99.154,122.521,99.109,122.518,99.064z M74.095,175.4
		c-0.028,0.249-0.229,0.631-0.413,0.672c-0.227,0.052-0.585-0.123-0.773-0.313c-0.615-0.622-0.814-1.329-0.664-2.264
		c0.801-4.979,1.629-9.957,2.227-14.962c0.409-3.428,0.442-6.9,0.672-10.351c0.103-1.537,0.276-3.069,0.418-4.604
		c0.127,0.009,0.254,0.017,0.38,0.025c0,3.681,0.067,7.363-0.021,11.042c-0.07,2.893-0.266,5.786-0.528,8.668
		C75.024,167.349,74.548,171.374,74.095,175.4z M72.431,179.019c0.515-0.411,1.153-0.667,1.675-1.071
		c0.752-0.584,1.374-0.531,1.936,0.176c-0.314,0.807-0.601,1.595-0.938,2.361c-0.063,0.142-0.326,0.195-0.497,0.289
		c-0.634,0.347-1.269,0.693-2.068,1.131c-0.214-0.605-0.532-1.26-0.649-1.948C71.843,179.676,72.159,179.234,72.431,179.019z
		 M79.135,179.602c1.229-0.531,2.146-0.188,2.485,1.093c0.261,0.985,0.481,1.981,0.72,2.973c-0.055,0.083-0.11,0.166-0.165,0.249
		c-1.076-0.877-2.067-0.094-3.1-0.024c-1.429,0.096-2.888,0.045-4.305-0.155c-0.457-0.064-0.999-0.734-1.182-1.243
		c-0.267-0.738,0.53-0.954,1.016-1.253c0.217-0.133,0.506-0.145,0.753-0.234C76.621,180.547,77.903,180.134,79.135,179.602z
		 M99.459,184.197c-1.918,0.189-3.85,0.236-5.768,0.429c-1.081,0.108-2.145,0.395-3.218,0.59c-0.85,0.154-1.697,0.345-2.554,0.428
		c-4.352,0.425-8.689,0.193-13.013-0.373c-0.618-0.081-1.23-0.251-1.827-0.439c-1.345-0.424-1.771-1.318-1.279-2.869
		c0.293,0.24,0.607,0.403,0.78,0.661c0.278,0.416,0.35,1.111,0.712,1.302c0.743,0.389,1.628,0.74,2.441,0.712
		c1.507-0.054,2.999-0.48,4.507-0.562c0.544-0.03,1.249,0.359,1.649,0.779c0.693,0.727,1.417,0.979,2.216,0.355
		c0.702-0.547,1.373-0.618,2.283-0.627c1.521-0.015,3.026-0.633,4.558-0.88c1.396-0.226,2.83-0.486,4.223-0.388
		c2.07,0.146,3.957-0.21,5.834-1.275C101.121,183.39,100.665,184.078,99.459,184.197z M84.213,180.191
		c0.412,1.27,0.816,2.541,0.258,3.991C84.381,182.782,84.297,181.487,84.213,180.191z M85.264,180.43
		c2.132,0.24,4.142,0.455,6.15,0.694c2.403,0.286,4.676,0.124,6.761-1.361c0.465-0.331,1.384-0.186,2.044-0.036
		c0.607,0.138,0.568,0.732,0.341,1.241c-0.659,1.472-2.006,1.745-3.387,1.831c-1.057,0.065-2.146-0.194-3.179-0.037
		c-1.895,0.287-3.754,0.792-5.636,1.171c-0.545,0.109-1.125,0.187-1.669,0.117c-0.748-0.095-1.252-0.458-1.191-1.391
		C85.544,181.949,85.356,181.224,85.264,180.43z M100.675,177.737c-1.306,0.645-2.599,1.313-3.897,1.971
		c-0.208,0.104-0.417,0.271-0.633,0.284c-0.506,0.028-1.017-0.02-1.524-0.036c0.06-0.478,0.098-0.958,0.185-1.431
		c0.217-1.169,0.65-2.335,0.648-3.501c-0.005-2.759-0.211-5.518-0.343-8.275c-0.006-0.12-0.084-0.236-0.347-0.375
		c-0.049,0.345-0.133,0.688-0.142,1.034c-0.079,2.862-0.095,5.727-0.237,8.585c-0.061,1.221-0.374,2.43-0.584,3.643
		c-0.12,0.691-0.638,0.612-1.157,0.61c-4.192-0.021-8.26-0.885-12.312-1.832c-1.408-0.328-2.799-0.757-4.162-1.243
		c-0.734-0.262-1.052-0.832-0.949-1.732c0.406-3.536,0.827-7.076,1.037-10.627c0.223-3.784,0.224-7.582,0.303-11.374
		c0.064-3.021,0.058-6.046,0.178-9.065c0.033-0.832,0.264-1.725,0.65-2.461c1.529-2.916,3.152-5.782,4.749-8.663
		c1.236-2.23,2.523-4.435,3.71-6.69c0.645-1.223,1.138-2.526,1.676-3.804c0.086-0.203,0.046-0.46,0.063-0.691l-0.27-0.097
		c-0.179,0.28-0.381,0.549-0.532,0.844c-1.548,3.021-3.065,6.057-4.639,9.064c-0.731,1.397-1.554,2.747-2.362,4.103
		c-0.127,0.213-0.397,0.342-0.601,0.509c-0.02-0.264-0.126-0.559-0.047-0.788c1.586-4.587,3.215-9.159,4.789-13.75
		c1.396-4.072,3.652-7.654,6.109-11.145c2.011-2.856,4.072-5.694,5.304-9.015c0.058-0.154,0.132-0.303,0.179-0.408
		c0.441,0.582,0.885,1.167,1.321,1.742c-1.719,3.492-3.487,7.087-5.256,10.683c0.143,0.088,0.286,0.177,0.429,0.265
		c0.419-0.645,0.895-1.26,1.248-1.938c1.465-2.815,2.886-5.653,4.35-8.469c0.117-0.226,0.454-0.507,0.664-0.487
		c3.082,0.277,5.87-0.911,8.737-1.698c0.032-0.009,0.066-0.007,0.182-0.019c0.28,0.49,0.486,1.105,0.9,1.503
		c0.39,0.373,0.993,0.701,1.514,0.719c0.809,0.027,0.934,0.381,0.778,1c-0.112,0.448-0.347,0.864-0.487,1.307
		c-1.157,3.633-2.188,7.311-3.488,10.891c-1.231,3.393-2.735,6.686-4.129,10.019c-1.163,2.783-2.383,5.544-3.502,8.345
		c-1.765,4.413-3.468,8.852-5.192,13.282c-0.103,0.264-0.16,0.546-0.238,0.819c0.094,0.043,0.187,0.086,0.28,0.129
		c0.472-0.903,0.943-1.807,1.465-2.803c0.058,5.579-0.919,11.046-0.215,16.57c0.065-0.302,0.17-0.601,0.189-0.904
		c0.166-2.646,0.298-5.295,0.476-7.94c0.184-2.723,0.457-5.439,0.6-8.163c0.17-3.263,1.368-6.226,2.631-9.148
		c1.927-4.458,3.948-8.878,6.037-13.262c0.604-1.268,1.578-2.358,2.546-3.463c-0.199,1.176-0.357,2.359-0.605,3.524
		c-1.207,5.683-2.49,11.351-3.634,17.047c-0.396,1.977-0.382,3.974-0.048,6.036c0.396,2.442,0.313,4.978,0.28,7.47
		c-0.061,4.485-0.229,8.97-0.37,13.454c-0.063,2.025-0.183,4.049-0.254,6.073c-0.045,1.278,0.046,1.439,1.115,2.275
		C102.734,176.76,101.697,177.233,100.675,177.737z M112.033,150.135c0.064,2.551,0.131,5.105,0.069,7.656
		c-0.12,5.018-0.328,10.033-0.505,15.05c-0.013,0.364-0.063,0.729-0.103,1.093c-0.074,0.684,0.089,1.713-0.284,1.974
		c-0.648,0.454-1.628,0.445-2.473,0.608c-0.356,0.069-0.738,0.033-1.083,0.133c-1.263,0.363-2.047-0.054-3.08-0.967
		c-1.263-1.117-0.553-2.301-0.864-3.288c0.139-4.781,0.328-9.438,0.395-14.099c0.06-4.196-0.152-8.4,0.025-12.59
		c0.091-2.131,0.736-4.244,1.199-6.351c0.499-2.272,0.881-4.599,1.665-6.773c1.212-3.364,2.042-6.828,2.981-10.258
		c0.955-3.491,1.562-7.078,2.316-10.624c0.394-1.849,0.787-3.697,1.164-5.55c0.136-0.668,0.346-0.979,1.144-0.694
		c1.513,0.537,1.59,0.493,1.331,2.155c-0.343,2.2-0.875,4.373-1.171,6.578c-0.505,3.758-0.888,7.532-1.325,11.3
		c-0.204,1.747-0.441,3.491-0.623,5.24c-0.378,3.64-0.876,7.274-1.044,10.925C111.638,144.47,111.962,147.306,112.033,150.135z
		 M127.062,144.54c-0.029-0.261-0.06-0.542-0.086-0.822c-0.456-4.766-0.813-9.544-1.389-14.296
		c-0.71-5.873-1.197-11.751-1.025-17.669c0.039-1.36,0.227-2.717,0.307-4.077c0.039-0.644,0.32-0.924,0.947-0.796
		c0.558,0.112,1.195,0.049,1.214,0.968c0.102,4.988,0.322,9.975,0.351,14.963c0.012,2.11-0.326,4.225-0.551,6.332
		c-0.089,0.831,0.08,1.503,0.742,2.047c0.512,0.421,0.94,0.965,1.496,1.309c0.964,0.597,2.308-0.417,3.243-1.384
		c0.222-0.229,0.454-0.531,0.732-0.604c1.19-0.314,2.394-0.585,3.604-0.814c1.005-0.191,1.211,0.783,1.515,1.326
		c1.144,2.047,2.146,4.172,3.195,6.271c0.374,0.746,0.829,1.346,1.62,1.776c1.389,0.755,1.746,2.298,2.21,3.634
		c0.97,2.794,1.75,5.653,2.611,8.485c0.103,0.338,0.227,0.669,0.515,0.951c-0.674-3.771-1.569-7.479-3.03-11.308
		c1.769,1.434,3.342,2.71,4.915,3.986c0.126-0.077,0.251-0.155,0.377-0.232c-0.104-0.239-0.181-0.496-0.319-0.713
		c-0.089-0.138-0.261-0.222-0.4-0.326c-0.016,0.005-0.028,0.012-0.046,0.017c-0.004-0.017-0.009-0.034-0.013-0.051
		c-1.153-0.585-2.02-1.323-2.024-2.808c-0.008-2.179-0.127-4.357-0.233-6.535c-0.023-0.49-0.135-0.994-0.303-1.457
		c-0.679-1.865-0.677-3.764-0.276-5.665c0.076-0.363,0.511-0.65,0.814-1.014c0.326,0.816,0.534,1.465,0.834,2.067
		c1.07,2.155,1.124,4.337,0.222,6.547c-0.551,1.347-0.585,2.711-0.235,4.103c0.398,1.588,0.801,3.174,1.202,4.762
		c0.015,0.007,0.027,0.016,0.042,0.022c0.005,0.004,0.012,0.008,0.017,0.012c0.529-0.161,0.497-0.544,0.392-0.998
		c-0.229-0.989-0.422-1.987-0.42-3.034c0.645,1.386,1.312,2.763,1.93,4.16c0.86,1.944,1.74,3.882,2.512,5.861
		c1.566,4.019,3.059,8.066,4.596,12.097c0.592,1.553,1.207,3.098,1.845,4.633c0.244,0.59,0.221,0.924-0.446,1.244
		c-1.676,0.807-3.3,1.719-4.948,2.581c-0.167,0.087-0.363,0.119-0.597,0.192c-1.748-5.325-3.48-10.602-5.212-15.878
		c-0.115,0.026-0.23,0.054-0.345,0.08c-0.09,0.911-0.035,1.744,0.475,2.652c0.597,1.063,1.008,2.251,1.349,3.429
		c0.842,2.908,1.595,5.842,2.392,8.763c0.139,0.509,0.319,1.006,0.531,1.668c-1.596,0.844-3.208,1.69-4.813,2.549
		c-0.867,0.463-1.698,1.002-2.59,1.41c-2.524,1.155-5.063,2.283-7.619,3.37c-0.567,0.241-1.223,0.306-1.846,0.381
		c-0.704,0.085-1.233-0.216-1.478-0.913c-0.954-2.723-2.004-5.418-2.828-8.18c-1.083-3.63-1.985-7.313-2.971-10.972
		c-0.056-0.208-0.16-0.404-0.486-0.591c0,0.258-0.044,0.524,0.007,0.772c0.566,2.788,1.045,5.6,1.758,8.351
		c0.535,2.069,1.402,4.052,2.069,6.089c0.347,1.058,0.577,2.152,0.868,3.229c0.059,0.218,0.134,0.436,0.231,0.639
		c0.647,1.346,0.236,2.169-1.233,2.545c-1.962,0.502-3.932,0.984-5.868,1.574c-1.402,0.427-2.698,0.35-3.905-0.463
		c-3.27-2.199-6.727-4.043-10.334-5.621c-0.289-0.127-0.543-0.716-0.532-1.081c0.087-2.791,0.274-5.578,0.37-8.369
		c0.109-3.193,0.225-6.39,0.215-9.584c-0.013-3.992-0.053-7.99-0.259-11.977c-0.276-5.347,0.39-10.6,1.173-15.862
		c0.627-4.212,1.062-8.452,1.687-12.665c0.326-2.199,0.884-4.364,1.323-6.548c0.161-0.803,0.285-1.612,0.416-2.361
		c1.218-0.09,2.293-0.212,3.371-0.234c0.828-0.017,1.659,0.123,2.49,0.137c0.755,0.013,0.936,0.37,0.915,1.075
		c-0.089,3.095-0.297,6.2-0.145,9.285c0.186,3.78,0.678,7.547,1.058,11.316c0.263,2.614,0.604,5.221,0.827,7.838
		c0.2,2.348,0.286,4.706,0.417,7.06c0.018,0.324,0.003,0.649,0.003,1.074 M152.962,179.612c0.09,0.247,0.185,0.508,0.286,0.786
		c-2.048,0.176-3.82,0.5-3.632,2.901C148.49,181.594,149.823,180.098,152.962,179.612z M150.638,189.199
		c-0.224-0.37-0.475-0.726-0.677-1.107c-0.509-0.954-0.756-1.892,0.003-2.88c0.379-0.494,0.66-1.084,0.887-1.669
		c0.207-0.533,0.5-0.655,1.054-0.64c1.001,0.028,1.513,0.384,1.434,1.458c-0.034,0.455,0.101,0.922,0.159,1.384
		c0.049,0.02,0.099,0.039,0.147,0.059c-0.364,1.123-0.641,2.285-1.12,3.356C152.108,190.091,151.155,190.057,150.638,189.199z
		 M163.42,188.901c-1.772,0.851-3.588,1.347-5.539,1.441c-2.105,0.103-4.21,0.244-6.314,0.368c-0.036-0.145-0.073-0.289-0.109-0.434
		c0.939-0.369,1.873-0.755,2.823-1.095c0.195-0.069,0.479-0.029,0.677,0.06c2.576,1.156,4.983,0.579,7.231-0.822
		c1.059-0.659,1.949-1.589,2.921-2.399C165.033,187.137,164.813,188.233,163.42,188.901z"/>
	<path fill-rule="evenodd" clip-rule="evenodd" d="M8.453,18.582c0.327,0.139,0.7,0.218,0.975,0.426
		c4.18,3.169,8.346,6.356,12.517,9.537c6.05,4.614,12.103,9.224,18.15,13.84c0.974,0.743,1.932,1.507,2.888,2.273
		c0.095,0.076,0.129,0.229,0.191,0.347c-1.531-1.043-3.108-2.026-4.586-3.14c-6.133-4.623-12.253-9.264-18.346-13.94
		c-3.796-2.913-7.537-5.9-11.299-8.858C8.764,18.927,8.616,18.745,8.453,18.582z"/>
	<path fill-rule="evenodd" clip-rule="evenodd" d="M16.117,21.742c1.438,1.003,2.908,1.961,4.305,3.018
		c2.782,2.105,5.522,4.264,8.279,6.402c0.102,0.079,0.194,0.171,0.171,0.425c-0.965-0.701-1.945-1.383-2.893-2.106
		c-3.325-2.538-6.639-5.09-9.957-7.637C16.054,21.81,16.085,21.776,16.117,21.742z"/>
	<path fill-rule="evenodd" clip-rule="evenodd" d="M34.521,35.538c2.226,1.62,4.458,3.23,6.675,4.861
		c1.815,1.335,3.613,2.692,5.339,4.185c-0.163-0.064-0.349-0.096-0.485-0.196c-3.815-2.834-7.626-5.675-11.436-8.518
		c-0.077-0.058-0.131-0.146-0.196-0.219C34.452,35.612,34.486,35.575,34.521,35.538z"/>
	<path fill-rule="evenodd" clip-rule="evenodd" d="M16.022,21.844c-1.388-1.083-2.776-2.166-4.164-3.249l-0.014,0.016
		c0.192,0.018,0.444-0.038,0.569,0.063c1.247,1.008,2.472,2.042,3.704,3.068C16.085,21.776,16.054,21.81,16.022,21.844z"/>
	<path fill-rule="evenodd" clip-rule="evenodd" d="M34.418,35.65c-1.511-1.077-3.022-2.154-4.533-3.231
		c0.06-0.082,0.119-0.164,0.179-0.246c1.485,1.121,2.971,2.243,4.456,3.365C34.486,35.575,34.452,35.612,34.418,35.65z"/>
	<path fill-rule="evenodd" clip-rule="evenodd" d="M140.162,64.572c-1.775-1.004-3.551-2.008-5.326-3.012
		c-0.068,0.099-0.138,0.198-0.206,0.297c1.233,0.953,2.467,1.905,3.699,2.857c-0.016,0.044-0.031,0.088-0.048,0.132
		c-0.589-0.278-1.235-0.478-1.758-0.85c-1.448-1.033-2.967-2.013-4.236-3.242c-2.004-1.939-4.494-2.769-7.028-3.587
		c-0.3-0.097-0.586-0.234-0.855-0.412c3.054,0.26,5.745,1.571,8.359,2.987c2.578,1.396,5.038,3.01,7.551,4.529
		C140.263,64.372,140.212,64.472,140.162,64.572z"/>
	<path fill-rule="evenodd" clip-rule="evenodd" d="M122.818,65.791c-0.31-0.707-0.619-1.415-0.929-2.122
		c0.521,3.599,0.609,7.26,1.928,10.729c-0.191-0.375-0.465-0.73-0.563-1.128c-0.623-2.55-1.221-5.106-1.801-7.666
		c-0.294-1.296-0.54-2.604-0.79-3.909c-0.076-0.397-0.092-0.806-0.136-1.209c0.131-0.037,0.262-0.074,0.393-0.11
		c0.726,1.769,1.45,3.537,2.176,5.306C123.004,65.718,122.911,65.755,122.818,65.791z"/>
	<path fill-rule="evenodd" clip-rule="evenodd" d="M139.303,69.772c2.358,1.415,5.925,9.689,5.908,13.577
		C144.278,78.441,141.872,74.179,139.303,69.772z"/>
	<path fill-rule="evenodd" clip-rule="evenodd" d="M123.83,60.126c4.391,4.156,6.086,9.839,8.601,15.059
		C129.542,70.178,127.485,64.695,123.83,60.126z"/>
	<path fill-rule="evenodd" clip-rule="evenodd" d="M133.398,23.166c-0.887,0.798-1.814,1.484-2.554,2.333
		c-1.194,1.371-2.653,1.862-4.419,1.892c-1.279,0.022-2.555,0.287-3.834,0.443c-0.065-0.542,0.469-1.243,1.571-1.655
		c1.771-0.662,3.557-1.285,5.329-1.942c0.431-0.16,0.845-0.373,1.249-0.595C131.607,23.166,132.497,22.904,133.398,23.166z"/>
	<path fill-rule="evenodd" clip-rule="evenodd" d="M110.445,22.271c1.399,1.283,2.757,2.416,3.969,3.688
		c0.531,0.559,0.766,1.401,0.977,2.269c-0.737-1.378-2.192-1.53-3.329-2.187C111.242,25.567,110.38,23.59,110.445,22.271z"/>
	<path fill-rule="evenodd" clip-rule="evenodd" d="M116.012,32.997c-0.554,0.806-1.074,1.638-1.671,2.411
		c-0.592,0.767-0.791,1.426,0.176,2.041c0.182,0.116,0.295,0.338,0.322,0.72c-0.637-0.376-1.336-0.679-1.892-1.15
		c-0.542-0.458-0.484-1.011,0.111-1.517c0.974-0.825,1.898-1.707,2.843-2.565C115.938,32.957,115.976,32.977,116.012,32.997z"/>
	<path fill-rule="evenodd" clip-rule="evenodd" d="M125.396,30.969c-0.207-0.356-0.544-0.703-0.57-1.071
		c-0.015-0.21,0.446-0.524,0.752-0.657c0.141-0.062,0.618,0.223,0.606,0.303c-0.066,0.472-0.231,0.931-0.363,1.394
		C125.68,30.948,125.538,30.958,125.396,30.969z"/>
	<path fill-rule="evenodd" clip-rule="evenodd" d="M114.496,29.644c-0.336,0.361-0.596,0.639-0.854,0.917
		c-0.19-0.274-0.584-0.606-0.526-0.81c0.1-0.349,0.481-0.616,0.745-0.917C114.042,29.064,114.224,29.296,114.496,29.644z"/>
	<path fill-rule="evenodd" clip-rule="evenodd" d="M118.115,40.96c1.204,0.07,2.161,0.652,2.928,1.546
		c-0.064,0.102-0.129,0.205-0.194,0.307c-0.442-0.334-0.872-0.686-1.331-0.997C119.065,41.509,118.584,41.244,118.115,40.96z"/>
	<path fill-rule="evenodd" clip-rule="evenodd" d="M72.061,68.393c-0.674-0.124-1.371-0.182-2.008-0.408
		c-0.219-0.078-0.415-0.582-0.401-0.881c0.028-0.589,0.21-1.171,0.519-1.795c-0.346,1.689,0.094,2.757,2.116,2.764
		C72.211,68.179,72.136,68.286,72.061,68.393z"/>
</g>
</svg>
