<?xml version="1.0" encoding="utf-8"?>
<!-- Generator: Adobe Illustrator 16.0.0, SVG Export Plug-In . SVG Version: 6.00 Build 0)  -->
<!DOCTYPE svg PUBLIC "-//W3C//DTD SVG 1.1//EN" "http://www.w3.org/Graphics/SVG/1.1/DTD/svg11.dtd">
<svg version="1.1" id="レイヤー_1" xmlns="http://www.w3.org/2000/svg" xmlns:xlink="http://www.w3.org/1999/xlink" x="0px"
	 y="0px" width="238.646px" height="371.206px" viewBox="599.673 1179.073 238.646 371.206"
	 enable-background="new 599.673 1179.073 238.646 371.206" xml:space="preserve">
<line fill="none" stroke="#000000" stroke-width="3" stroke-miterlimit="10" x1="638.225" y1="1453.323" x2="638.225" y2="1412.156"/>
<line fill="none" stroke="#000000" stroke-width="3" stroke-miterlimit="10" x1="808.225" y1="1445.833" x2="808.225" y2="1412.156"/>
<line fill="none" stroke="#000000" stroke-width="3" stroke-miterlimit="10" x1="808.225" y1="1308.059" x2="808.225" y2="1274.382"/>
<g enable-background="new    ">
	<path d="M769.113,1444.967c2.064-1.8,3.217-2.544,5.161-3.336c1.92-0.792,3.792-1.152,5.88-1.152c2.113,0,3.984,0.36,5.904,1.152
		c1.945,0.792,3.098,1.536,5.161,3.336v2.136c-2.017-2.016-3.12-2.808-4.944-3.647c-1.92-0.864-3.912-1.297-6.121-1.297
		c-2.184,0-4.176,0.433-6.096,1.297c-1.824,0.84-2.929,1.632-4.945,3.647V1444.967z"/>
	<path d="M770.122,1455.215c1.655,1.008,2.64,1.752,4.177,3.12l-0.961,1.344c-1.535-1.56-2.447-2.304-4.128-3.336L770.122,1455.215z
		 M774.274,1463.207c-0.673,1.776-1.224,3.024-2.089,4.753c-0.096,0.144-0.479,0.863-1.224,2.112
		c-0.168,0.336-0.168,0.336-0.288,0.527l-1.393-1.248c1.32-1.439,2.521-3.72,3.745-7.057L774.274,1463.207z M771.322,1449.43
		c1.607,1.08,2.496,1.801,3.816,3.097l-0.984,1.272c-1.344-1.488-2.208-2.232-3.84-3.289L771.322,1449.43z M783.659,1468.992
		c0,1.536-0.456,1.872-2.593,1.872c-0.623,0-1.488-0.049-2.472-0.12c-0.072-0.576-0.144-0.864-0.384-1.465
		c1.056,0.145,2.184,0.24,3.048,0.24c0.744,0,0.912-0.12,0.912-0.6v-2.929h-5.04c-1.032,0-1.801,0.048-2.473,0.145v-1.561
		c0.6,0.096,1.416,0.145,2.473,0.145h5.04c0-0.648-0.024-0.912-0.12-1.345h0.912c1.488-0.432,2.592-0.912,3.769-1.607
		c-0.816,0.048-1.824,0.071-2.568,0.071h-5.856c-0.912,0-1.68,0.048-2.28,0.145v-1.584c0.696,0.119,1.464,0.168,2.328,0.168h8.353
		c0.889,0,1.512-0.024,1.824-0.097l0.864,1.032l-0.479,0.313c-1.656,1.08-3.049,1.752-5.257,2.52v0.385h4.8
		c1.248,0,1.945-0.049,2.473-0.145v1.561c-0.576-0.097-1.488-0.145-2.496-0.145h-4.776V1468.992z M781.978,1450.966
		c0-0.576-0.047-1.08-0.119-1.607h1.703c-0.096,0.527-0.119,1.008-0.119,1.607v0.192h4.801c0.959,0,1.775-0.048,2.375-0.144v1.56
		c-0.672-0.072-1.416-0.12-2.328-0.12h-10.537c-0.887,0-1.607,0.048-2.328,0.12v-1.56c0.648,0.096,1.369,0.144,2.353,0.144h4.2
		V1450.966z M776.867,1455.719c0-0.792-0.025-1.225-0.097-1.849c0.672,0.097,1.345,0.12,2.257,0.12h7.656
		c0.912,0,1.535-0.023,2.208-0.12c-0.072,0.624-0.097,0.937-0.097,1.849v1.32c0,0.936,0.024,1.368,0.097,1.92
		c-0.624-0.072-1.272-0.096-2.28-0.096h-7.584c-0.937,0-1.585,0.023-2.257,0.096c0.071-0.648,0.097-1.008,0.097-1.776V1455.719z
		 M778.258,1457.615h9.12v-2.377h-9.12V1457.615z"/>
	<path d="M774.009,1492.079c0,1.151,0.049,2.016,0.121,2.832h-1.824c0.096-0.84,0.144-1.656,0.144-2.881v-7.969
		c0-1.128,0.024-1.752,0.071-2.903c-0.695,1.344-1.319,2.256-2.496,3.696c-0.455-0.793-0.647-1.032-1.056-1.32
		c1.896-2.112,3.24-4.2,4.296-6.697c0.601-1.392,1.08-2.903,1.248-3.984l1.729,0.528c-0.313,0.769-0.313,0.769-0.84,2.232
		c-0.264,0.744-0.768,1.968-1.393,3.36V1492.079z M790.931,1492.679c-0.744-0.096-1.512-0.144-2.568-0.144H778.21
		c-1.008,0-1.824,0.048-2.617,0.144v-1.824c0.721,0.096,1.537,0.145,2.568,0.145h10.201c0.961,0,1.873-0.049,2.568-0.145V1492.679z
		 M776.818,1476.573c0.696,0.096,1.465,0.145,2.496,0.145h7.801c0.984,0,1.776-0.049,2.496-0.145v1.8
		c-0.672-0.096-1.561-0.144-2.496-0.144h-7.801c-1.031,0-1.752,0.048-2.496,0.144V1476.573z"/>
	<path d="M780.994,1506.431c0.865,2.568,1.777,4.152,3.289,5.736c1.752,1.849,3.889,3.169,6.793,4.225
		c-0.457,0.553-0.648,0.864-0.984,1.608c-3.024-1.344-5.209-2.88-7.08-4.992c-1.273-1.416-2.281-3.217-3.098-5.473
		c-0.719,2.616-1.92,4.752-3.744,6.553c-1.535,1.56-3.144,2.592-5.88,3.816c-0.336-0.721-0.505-0.96-1.032-1.488
		c3.096-1.104,5.448-2.713,7.009-4.753c1.151-1.536,1.872-3.144,2.28-5.232h-5.425c-0.983,0-1.8,0.048-2.544,0.145v-1.704
		c0.72,0.096,1.464,0.144,2.544,0.144h5.665c0.24-1.776,0.264-2.304,0.312-5.16h-6.769c-1.248,0-1.992,0.048-2.664,0.168v-1.776
		c0.624,0.12,1.512,0.168,2.664,0.168h15.746c1.127,0,2.016-0.048,2.664-0.168v1.776c-0.673-0.12-1.416-0.168-2.664-0.168h-7.394
		c-0.024,2.664-0.096,3.624-0.288,5.16h6.889c1.08,0,1.801-0.048,2.568-0.144v1.704c-0.792-0.097-1.561-0.145-2.568-0.145H780.994z"
		/>
	<path d="M773.578,1533.432c-1.176,0-1.92,0.048-2.664,0.145v-1.608c0.816,0.12,1.464,0.144,2.688,0.144h13.201
		c1.273,0,1.896-0.023,2.713-0.144v1.608c-0.768-0.097-1.488-0.145-2.664-0.145h-6.072v2.208h5.328c1.152,0,1.68-0.023,2.352-0.12
		v1.561c-0.647-0.096-1.248-0.12-2.304-0.12h-5.376v2.496h7.128c1.272,0,2.017-0.048,2.784-0.144v1.656
		c-0.792-0.12-1.535-0.168-2.832-0.168H772.57c-1.297,0-2.017,0.048-2.832,0.168v-1.656c0.815,0.096,1.56,0.144,2.783,0.144h6.793
		v-2.496h-4.992c-1.08,0-1.68,0.024-2.328,0.12v-1.561c0.672,0.097,1.225,0.12,2.376,0.12h4.944v-2.208H773.578z M778.33,1522.103
		c0.385-0.72,0.648-1.44,0.816-2.232l1.729,0.288c-0.168,0.36-0.672,1.393-0.961,1.944h5.713c1.152,0,1.824-0.023,2.449-0.096
		c-0.072,0.576-0.097,1.008-0.097,2.016v4.057c0,0.96,0.024,1.488,0.097,2.16c-0.505-0.048-1.345-0.072-2.377-0.072h-10.993
		c-0.937,0-1.823,0.024-2.376,0.072c0.072-0.672,0.096-1.176,0.096-2.136v-3.769c0-1.08-0.023-1.681-0.096-2.328
		c0.504,0.072,1.271,0.096,2.424,0.096H778.33z M773.914,1525.44h12.577v-2.041h-12.577V1525.44z M773.914,1528.919h12.577v-2.208
		h-12.577V1528.919z"/>
	<path d="M769.113,1543.655c2.017,2.017,3.121,2.809,4.945,3.648c1.92,0.864,3.936,1.296,6.096,1.296
		c2.185,0,4.201-0.432,6.121-1.296c1.824-0.84,2.928-1.632,4.944-3.648v2.137c-2.063,1.8-3.216,2.544-5.161,3.336
		c-1.92,0.792-3.815,1.152-5.904,1.152c-2.063,0-3.96-0.36-5.88-1.152c-1.944-0.792-3.097-1.536-5.161-3.336V1543.655z"/>
</g>
<polyline fill="none" points="838.32,1539.455 782.835,1539.455 782.835,1344.83 838.32,1344.83 "/>
<g enable-background="new    ">
	<path d="M809.042,1187.258c0.863,2.568,1.775,4.152,3.288,5.736c1.752,1.849,3.888,3.169,6.792,4.225
		c-0.455,0.553-0.647,0.864-0.983,1.608c-3.024-1.344-5.208-2.88-7.081-4.992c-1.271-1.416-2.279-3.217-3.096-5.473
		c-0.721,2.616-1.92,4.752-3.744,6.553c-1.537,1.56-3.145,2.592-5.881,3.816c-0.336-0.721-0.504-0.96-1.032-1.488
		c3.097-1.104,5.448-2.713,7.009-4.753c1.152-1.536,1.872-3.144,2.28-5.232h-5.425c-0.984,0-1.801,0.048-2.544,0.145v-1.704
		c0.72,0.096,1.464,0.144,2.544,0.144h5.664c0.24-1.776,0.265-2.304,0.313-5.16h-6.769c-1.248,0-1.992,0.048-2.664,0.168v-1.776
		c0.624,0.12,1.513,0.168,2.664,0.168h15.745c1.129,0,2.017-0.048,2.664-0.168v1.776c-0.672-0.12-1.416-0.168-2.664-0.168h-7.393
		c-0.023,2.664-0.096,3.624-0.287,5.16h6.888c1.08,0,1.8-0.048,2.568-0.144v1.704c-0.792-0.097-1.56-0.145-2.568-0.145H809.042z"/>
	<path d="M804.673,1210.538c0-0.983-0.047-1.487-0.144-2.016h1.752c-0.096,0.6-0.12,1.152-0.12,2.016v1.633h2.496
		c0.984,0,1.369-0.024,1.969-0.12v1.56c-0.576-0.096-1.057-0.119-1.969-0.119h-2.496v5.304c1.776-0.432,2.785-0.72,5.064-1.416
		l0.049,1.44c-4.656,1.344-7.489,2.016-12.049,2.88c-0.408,0.072-0.601,0.12-1.273,0.288l-0.383-1.704
		c0.6,0,1.487-0.096,2.543-0.264v-6.721c0-1.008-0.047-1.561-0.144-2.137h1.729c-0.097,0.625-0.12,1.2-0.12,2.089v6.528
		c1.416-0.288,1.632-0.336,3.096-0.648V1210.538z M816.363,1206.435c1.032,0,1.729-0.049,2.4-0.145v1.681
		c-0.672-0.097-1.465-0.145-2.496-0.145h-3.265c0.168,3.553,0.624,6.457,1.32,8.593c0.72,2.185,1.849,3.984,2.496,3.984
		c0.288,0,0.552-0.432,0.769-1.32c0.119-0.552,0.215-1.2,0.359-2.52c0.528,0.504,0.864,0.743,1.368,0.983
		c-0.552,3.337-1.224,4.681-2.353,4.681c-1.56,0-3.384-2.568-4.367-6.192c-0.601-2.232-0.938-4.704-1.129-8.209H800.33
		c-0.984,0-1.752,0.048-2.473,0.145v-1.681c0.648,0.096,1.416,0.145,2.496,0.145h11.065c-0.048-1.104-0.048-2.041-0.072-3.36
		c0-0.937-0.048-1.585-0.144-2.064h1.824c-0.096,0.479-0.145,1.152-0.145,2.136c0,0.288,0.024,1.393,0.072,3.289H816.363z
		 M808.898,1204.082c-0.624-0.096-1.199-0.12-2.088-0.12h-4.705c-0.888,0-1.512,0.024-2.111,0.12v-1.632
		c0.624,0.096,1.128,0.12,2.111,0.12h4.682c1.008,0,1.463-0.024,2.111-0.12V1204.082z M816.748,1205.666
		c-0.937-1.44-1.561-2.208-2.809-3.313l1.128-0.672c1.368,1.2,1.92,1.824,2.832,3.192L816.748,1205.666z"/>
	<path d="M809.042,1233.987c0.863,2.568,1.775,4.152,3.288,5.736c1.752,1.849,3.888,3.169,6.792,4.225
		c-0.455,0.553-0.647,0.864-0.983,1.608c-3.024-1.344-5.208-2.88-7.081-4.992c-1.271-1.416-2.279-3.217-3.096-5.473
		c-0.721,2.616-1.92,4.752-3.744,6.553c-1.537,1.56-3.145,2.592-5.881,3.816c-0.336-0.721-0.504-0.96-1.032-1.488
		c3.097-1.104,5.448-2.713,7.009-4.753c1.152-1.536,1.872-3.144,2.28-5.232h-5.425c-0.984,0-1.801,0.048-2.544,0.145v-1.704
		c0.72,0.096,1.464,0.144,2.544,0.144h5.664c0.24-1.776,0.265-2.304,0.313-5.16h-6.769c-1.248,0-1.992,0.048-2.664,0.168v-1.776
		c0.624,0.12,1.513,0.168,2.664,0.168h15.745c1.129,0,2.017-0.048,2.664-0.168v1.776c-0.672-0.12-1.416-0.168-2.664-0.168h-7.393
		c-0.023,2.664-0.096,3.624-0.287,5.16h6.888c1.08,0,1.8-0.048,2.568-0.144v1.704c-0.792-0.097-1.56-0.145-2.568-0.145H809.042z"/>
	<path d="M801.625,1260.987c-1.176,0-1.92,0.048-2.664,0.145v-1.608c0.815,0.12,1.464,0.144,2.688,0.144h13.201
		c1.271,0,1.896-0.023,2.712-0.144v1.608c-0.769-0.097-1.488-0.145-2.664-0.145h-6.073v2.208h5.329c1.151,0,1.681-0.023,2.353-0.12
		v1.561c-0.648-0.096-1.248-0.12-2.305-0.12h-5.377v2.496h7.129c1.272,0,2.017-0.048,2.785-0.144v1.656
		c-0.793-0.12-1.537-0.168-2.833-0.168h-15.289c-1.296,0-2.017,0.048-2.833,0.168v-1.656c0.816,0.096,1.561,0.144,2.785,0.144h6.792
		v-2.496h-4.992c-1.08,0-1.681,0.024-2.328,0.12v-1.561c0.672,0.097,1.224,0.12,2.376,0.12h4.944v-2.208H801.625z M806.378,1249.657
		c0.384-0.72,0.647-1.439,0.815-2.232l1.729,0.288c-0.168,0.36-0.673,1.393-0.96,1.944h5.713c1.151,0,1.823-0.023,2.447-0.096
		c-0.072,0.576-0.096,1.008-0.096,2.016v4.057c0,0.96,0.023,1.488,0.096,2.16c-0.504-0.048-1.344-0.072-2.376-0.072h-10.993
		c-0.936,0-1.824,0.024-2.376,0.072c0.072-0.672,0.097-1.176,0.097-2.136v-3.769c0-1.08-0.024-1.681-0.097-2.328
		c0.504,0.072,1.272,0.096,2.425,0.096H806.378z M801.961,1252.994h12.577v-2.041h-12.577V1252.994z M801.961,1256.474h12.577
		v-2.208h-12.577V1256.474z"/>
</g>
<g enable-background="new    ">
	<path d="M808.947,1312.902c1.271,1.704,2.64,3.001,4.703,4.44c1.873,1.296,3.889,2.328,5.881,3.024
		c-0.336,0.48-0.504,0.816-0.816,1.536c-1.92-0.84-4.176-2.112-6-3.456c-1.848-1.32-3.168-2.544-4.561-4.225
		c-1.439,1.776-2.352,2.688-3.96,3.937c-2.089,1.656-3.937,2.784-6.337,3.889c-0.336-0.696-0.455-0.889-0.888-1.393
		c2.16-0.888,4.177-2.04,6.145-3.553c1.752-1.319,3.048-2.616,4.2-4.2H808.947z M811.898,1319.958c1.009,0,1.513-0.023,2.16-0.12
		v1.536c-0.695-0.096-1.151-0.12-2.16-0.12h-3.096v2.545h7.009c1.056,0,1.8-0.048,2.424-0.145v1.608
		c-0.647-0.096-1.392-0.144-2.424-0.144h-15.337c-1.033,0-1.705,0.048-2.425,0.144v-1.608c0.647,0.097,1.368,0.145,2.425,0.145
		h6.863v-2.545h-2.735c-0.984,0-1.464,0.024-2.161,0.12v-1.536c0.648,0.097,1.177,0.12,2.161,0.12h2.735v-0.72
		c0-0.769-0.023-1.225-0.144-1.872h1.753c-0.121,0.647-0.145,1.128-0.145,1.896v0.696H811.898z M802.441,1334.816h-1.68
		c0.096-0.72,0.145-1.416,0.145-2.112v-3.504c0-0.696-0.049-1.32-0.12-1.92c0.575,0.071,0.983,0.096,2.017,0.096h10.848
		c1.009,0,1.513-0.024,2.018-0.096c-0.097,0.647-0.121,1.176-0.121,1.943v3.505c0,0.72,0.049,1.439,0.145,2.088h-1.68v-1.128h-11.57
		V1334.816z M802.441,1332.344h11.57v-3.601h-11.57V1332.344z"/>
	<path d="M809.162,1337.285c-0.071,0.407-0.119,1.367-0.119,2.136c0,1.416,0.24,3.864,0.527,5.208
		c0.408,1.921,1.705,4.753,3.097,6.721c0.96,1.345,2.257,2.713,3.552,3.793c0.769,0.647,1.393,1.056,2.785,1.872
		c-0.576,0.527-0.84,0.815-1.248,1.512c-2.929-1.992-4.656-3.672-6.361-6.145c-1.488-2.184-2.4-4.416-3.12-7.633
		c-0.432,2.28-0.84,3.576-1.655,5.353c-0.841,1.849-1.896,3.385-3.434,4.921c-1.344,1.392-2.328,2.184-4.416,3.504
		c-0.408-0.647-0.695-0.96-1.296-1.416c2.425-1.344,3.505-2.136,4.896-3.624c3.337-3.576,4.968-8.185,4.968-14.09
		c0-1.008-0.023-1.487-0.096-2.111H809.162z"/>
	<path d="M799.585,1370.262c-0.936,0-1.393,0.023-1.969,0.144v-1.608c0.48,0.097,1.104,0.145,1.945,0.145h4.152
		c0.096-0.24,0.096-0.24,0.287-0.624c0.576-1.225,0.84-1.992,1.129-3.217l1.439,0.433c-0.24,0.479-0.24,0.479-0.744,1.68
		c-0.313,0.744-0.455,1.057-0.792,1.729h1.009c0.936,0,1.367-0.024,1.896-0.12v1.536c-0.576-0.072-1.08-0.096-1.944-0.096h-2.447
		v2.4h2.328c0.959,0,1.416-0.024,1.968-0.12v1.488c-0.576-0.072-1.056-0.097-1.921-0.097h-2.136c0.984,1.729,1.8,2.593,3.552,3.721
		c-0.432,0.479-0.623,0.72-0.912,1.2c-1.392-1.2-2.039-1.992-2.976-3.648c0.072,0.552,0.097,1.08,0.097,2.04v3.12
		c0,1.128,0.047,1.824,0.144,2.256h-1.632c0.096-0.407,0.144-1.248,0.144-2.256v-3c0-0.744,0.024-1.561,0.097-2.017
		c-1.105,2.377-2.161,3.769-4.129,5.449c-0.385-0.576-0.6-0.793-1.057-1.177c2.256-1.656,3.601-3.288,4.656-5.688h-2.184
		c-0.936,0-1.368,0.024-1.969,0.145v-1.561c0.528,0.12,1.033,0.145,1.992,0.145h2.593v-2.4H799.585z M805.85,1363.421
		c0.815,0,1.272-0.024,1.944-0.12v1.513c-0.528-0.072-1.057-0.097-1.824-0.097h-6.145c-0.721,0-1.104,0.024-1.729,0.145v-1.585
		c0.576,0.12,1.057,0.145,1.896,0.145h2.16v-0.672c0-0.792-0.024-1.177-0.12-1.681h1.704c-0.096,0.48-0.12,0.864-0.12,1.656v0.696
		H805.85z M800.474,1368.701c-0.313-1.296-0.529-2.016-1.057-3.192l1.248-0.432c0.527,1.271,0.695,1.776,1.057,3.145
		L800.474,1368.701z M810.266,1374.99c-0.743,0-1.104,0.023-1.655,0.071c0.047-0.576,0.071-1.031,0.071-2.352v-8.473
		c0-1.08-0.024-1.776-0.12-2.353c0.721,0.096,1.297,0.12,2.305,0.12h4.607c1.152,0,1.656-0.024,2.328-0.12
		c-0.071,0.72-0.096,1.44-0.096,2.496v8.449c0,1.008,0.024,1.752,0.096,2.256c-0.647-0.072-1.031-0.096-2.184-0.096h-0.432v5.304
		c0,0.433,0.168,0.505,1.248,0.505c0.984,0,1.32-0.097,1.464-0.433c0.144-0.408,0.24-1.32,0.24-2.76
		c0.575,0.384,0.769,0.479,1.344,0.647c-0.071,1.513-0.216,2.496-0.479,3.049c-0.336,0.672-0.961,0.888-2.736,0.888
		c-2.064,0-2.496-0.24-2.496-1.416v-5.784h-1.752c-0.145,1.775-0.529,3.072-1.297,4.296c-0.96,1.584-2.376,2.664-4.488,3.48
		c-0.313-0.552-0.527-0.792-1.032-1.225c2.064-0.647,3.36-1.536,4.272-2.928c0.721-1.08,1.008-2.064,1.104-3.624H810.266z
		 M810.05,1365.894h6.265v-2.568h-6.265V1365.894z M810.05,1369.781h6.265v-2.64h-6.265V1369.781z M810.05,1373.766h6.265v-2.736
		h-6.265V1373.766z"/>
	<path d="M801.314,1388.118c-1.177,0-1.945,0.048-2.713,0.144v-1.776c0.696,0.12,1.465,0.168,2.688,0.168h13.802
		c1.271,0,2.039-0.048,2.808-0.168v1.776c-0.792-0.096-1.56-0.144-2.808-0.144h-6.217v6.408h5.016c1.201,0,1.849-0.048,2.545-0.144
		v1.704c-0.696-0.072-1.416-0.097-2.545-0.097h-5.016v7.585h7.2c1.2,0,1.968-0.048,2.665-0.144v1.8
		c-0.744-0.12-1.513-0.168-2.665-0.168h-15.554c-1.199,0-1.968,0.048-2.783,0.168v-1.8c0.791,0.096,1.488,0.144,2.783,0.144h6.648
		v-7.585h-4.584c-1.104,0-1.872,0.024-2.568,0.097v-1.704c0.601,0.096,1.32,0.144,2.545,0.144h4.607v-6.408H801.314z"/>
</g>
<g enable-background="new    ">
	<path d="M629.945,1304.778c-0.312,3.144-0.744,4.728-1.703,6.432c-0.385-0.504-0.672-0.768-1.225-1.104
		c0.624-1.008,0.936-1.824,1.225-3.072c0.408-1.872,0.623-5.017,0.623-8.809c0-1.633-0.023-2.521-0.119-3.385
		c0.6,0.096,1.056,0.12,2.111,0.12h1.729c1.008,0,1.561-0.024,1.992-0.12c-0.072,0.624-0.096,1.2-0.096,2.425v11.761
		c0,1.464-0.456,1.896-2.016,1.896c-0.529,0-1.152-0.049-1.681-0.12c-0.024-0.553-0.097-0.937-0.288-1.488
		c0.84,0.168,1.393,0.24,1.896,0.24c0.576,0,0.744-0.145,0.744-0.721v-4.056H629.945z M633.833,1291.12
		c0-0.624-0.048-1.057-0.096-1.513h1.633c-0.072,0.456-0.097,0.84-0.097,1.513v0.264h5.688v-0.264c0-0.601-0.023-1.032-0.096-1.513
		h1.656c-0.072,0.408-0.097,0.84-0.097,1.513v0.264h4.032c1.032,0,1.705-0.048,2.425-0.145v1.585
		c-0.673-0.097-1.488-0.145-2.425-0.145h-4.032c0.024,0.408,0.048,0.648,0.097,0.889h-1.656c0.048-0.265,0.072-0.505,0.096-0.889
		h-5.688c0,0.744,0.024,1.08,0.097,1.536h-1.633c0.072-0.456,0.072-0.84,0.096-1.536h-3.744c-0.96,0-1.729,0.048-2.424,0.145v-1.585
		c0.72,0.097,1.392,0.145,2.424,0.145h3.744V1291.12z M633.138,1303.553v-3.12h-2.953c-0.023,1.296-0.072,2.136-0.144,3.12H633.138z
		 M633.138,1299.208v-3h-2.929v1.992c0,0.24,0,0.408,0,1.008H633.138z M635.802,1296.905c0.552,0.096,0.912,0.12,2.279,0.12
		c-0.479-1.008-0.863-1.633-1.416-2.353l1.152-0.504c0.625,0.96,1.032,1.729,1.512,2.856h0.961c0.313-1.104,0.48-2.089,0.48-3.024
		l1.607,0.072c-0.096,0.384-0.096,0.384-0.408,1.728c-0.072,0.313-0.144,0.553-0.336,1.225h2.041
		c0.695-0.912,1.104-1.656,1.535-2.809l1.297,0.504c-0.576,1.08-0.961,1.704-1.416,2.305h0.768c1.271,0,1.801-0.024,2.352-0.12
		v1.344c-0.623-0.048-1.248-0.071-2.352-0.071h-2.256c0.312,0.815,0.576,1.319,1.008,1.992h1.872c1.272,0,1.752-0.024,2.353-0.12
		v1.392c-0.625-0.048-1.248-0.072-2.353-0.072h-1.009c1.08,1.297,2.257,2.232,3.816,3.049c-0.359,0.36-0.6,0.672-0.912,1.152
		c-1.871-1.2-3.216-2.521-4.367-4.201h-4.345c-1.272,1.944-2.305,3.001-4.177,4.345c-0.313-0.456-0.552-0.72-0.984-1.032
		c1.729-1.08,2.664-1.92,3.673-3.313h-0.792c-1.272,0-1.776,0.024-2.377,0.12v-1.439c0.601,0.096,1.104,0.12,2.377,0.12h1.561
		c0.407-0.721,0.672-1.272,0.959-1.992h-1.752c-1.224,0-1.703,0.023-2.352,0.119V1296.905z M640.531,1307.61
		c-1.177,0.768-2.137,1.271-3.505,1.896c-0.624,0.265-0.72,0.313-1.08,0.505l-0.769-1.32c1.705-0.408,3.313-1.128,4.921-2.185
		L640.531,1307.61z M638.562,1303.721c0.792,0.696,1.08,1.008,1.752,1.896l-0.96,0.768c-0.552-0.815-0.96-1.296-1.752-1.968
		L638.562,1303.721z M642.355,1309.026c0,1.656-0.336,1.968-2.041,1.968c-0.432,0-0.84-0.023-1.729-0.12
		c-0.023-0.6-0.096-0.912-0.287-1.464c0.84,0.192,1.488,0.264,2.064,0.264c0.527,0,0.623-0.119,0.623-0.72v-5.017
		c0-0.576-0.023-1.056-0.119-1.584h1.607c-0.096,0.504-0.119,0.96-0.119,1.561V1309.026z M641.226,1298.177
		c-0.264,0.672-0.504,1.271-0.888,1.992h2.929c-0.385-0.696-0.672-1.297-0.937-1.992H641.226z M643.771,1306.577
		c1.728,1.32,2.615,1.8,4.416,2.496c-0.359,0.36-0.624,0.72-0.889,1.176c-1.752-0.84-2.424-1.248-4.392-2.76L643.771,1306.577z
		 M645.882,1304.273c-0.576,0.792-1.248,1.536-1.871,2.137l-0.912-0.792c0.744-0.624,1.104-1.08,1.728-2.089L645.882,1304.273z"/>
	<path d="M638.371,1318.649c0.384-0.816,0.672-1.608,0.936-2.593h-7.992v1.729c0,9.505-0.672,13.513-2.809,17.186
		c-0.385-0.528-0.696-0.889-1.2-1.272c1.921-3.265,2.472-6.696,2.472-15.289c0-2.328-0.023-3-0.119-3.841
		c0.912,0.097,1.632,0.12,2.904,0.12h13.369c1.367,0,2.064-0.048,2.664-0.144v1.632c-0.672-0.096-1.32-0.12-2.616-0.12h-5.089
		c-0.313,1.08-0.552,1.681-0.96,2.593h4.345c1.224,0,1.968-0.024,2.592-0.097c-0.096,0.624-0.119,1.32-0.119,2.328v4.272
		c0,1.057,0.023,1.729,0.119,2.353c-0.744-0.072-1.536-0.096-2.568-0.096h-3.432v5.88c0,1.488-0.48,1.752-3.168,1.752
		c-0.648,0-1.201-0.023-1.945-0.096c-0.096-0.72-0.144-0.864-0.383-1.56c1.104,0.191,1.967,0.264,2.976,0.264
		c0.84,0,1.008-0.072,1.008-0.528v-5.712h-3.312c-0.937,0-1.729,0.023-2.521,0.096c0.071-0.72,0.096-1.464,0.096-2.473V1321
		c0-1.08-0.024-1.68-0.096-2.448c0.696,0.072,1.464,0.097,2.521,0.097H638.371z M636.57,1328.993
		c-1.32,2.352-2.616,3.937-4.344,5.424c-0.36-0.479-0.648-0.72-1.177-1.056c1.896-1.536,3.024-2.856,4.128-5.017L636.57,1328.993z
		 M635.058,1322.273h10.225v-2.328h-10.225V1322.273z M635.058,1326.137h10.225v-2.592h-10.225V1326.137z M644.323,1328.345
		c1.319,1.969,2.808,3.48,4.681,4.801c-0.457,0.336-0.793,0.647-1.225,1.2c-1.943-1.584-3.168-2.952-4.729-5.305L644.323,1328.345z"
		/>
	<path d="M630.234,1348.602c0-1.08,0.023-1.776,0.096-2.952c-0.6,1.176-1.248,2.088-2.473,3.528
		c-0.359-0.744-0.455-0.864-0.936-1.416c1.896-1.921,3.359-4.2,4.512-6.937c0.528-1.297,0.912-2.497,1.008-3.24l1.681,0.575
		c-0.144,0.313-0.239,0.576-0.407,1.057c-0.457,1.272-1.129,2.736-1.945,4.32v13.105c0,1.08,0.049,1.992,0.168,2.808h-1.871
		c0.119-0.864,0.168-1.584,0.168-2.88V1348.602z M640.291,1340.417c0-1.128-0.049-1.872-0.145-2.641h1.824
		c-0.096,0.792-0.144,1.513-0.144,2.664v2.232h4.296c1.08,0,1.752-0.023,2.28-0.096c-0.071,0.647-0.096,1.056-0.096,2.04v5.641
		c0,1.32,0.024,1.872,0.12,2.496h-1.633v-1.416h-4.968v5.088c0,1.248,0.048,2.209,0.144,2.904h-1.824
		c0.096-0.72,0.145-1.704,0.145-2.88v-5.112h-4.608v1.44h-1.632c0.096-0.696,0.119-1.297,0.119-2.521v-5.665
		c0-0.912-0.023-1.416-0.096-2.016c0.528,0.072,1.176,0.096,2.305,0.096h3.912V1340.417z M635.682,1344.114v5.809h4.608v-5.809
		H635.682z M646.794,1349.922v-5.809h-4.968v5.809H646.794z"/>
	<path d="M638.035,1363.193c0-0.888-0.024-1.319-0.145-1.775h1.824c-0.12,0.432-0.145,0.863-0.145,1.775v0.601h6.648
		c1.345,0,2.017-0.048,2.617-0.145v1.656c-0.793-0.096-1.513-0.12-2.617-0.12H630.57c-0.024,6.745-0.217,10.105-0.744,12.89
		c-0.385,2.016-0.912,3.528-1.729,4.944c-0.359-0.456-0.72-0.769-1.248-1.104c0.721-1.152,1.08-1.992,1.416-3.48
		c0.553-2.399,0.768-5.616,0.768-11.568c0-1.608-0.023-2.473-0.096-3.192c0.744,0.096,1.44,0.12,2.424,0.12h6.674V1363.193z
		 M634.77,1368.114c0-0.984-0.024-1.464-0.12-2.088h1.656c-0.096,0.527-0.12,1.008-0.12,2.088v1.152h0.815
		c0.744,0,1.369-0.049,1.921-0.12v1.536c-0.624-0.072-1.2-0.12-1.849-0.12h-0.768c1.225,2.088,1.656,2.64,3,3.792
		c-0.384,0.433-0.576,0.696-0.863,1.248c-1.033-1.176-1.681-2.232-2.377-3.769c0.072,1.129,0.12,2.616,0.12,3.601v5.28
		c0,1.248,0.048,1.969,0.144,2.616h-1.703c0.119-0.72,0.144-1.296,0.144-2.616v-4.776c0-0.695,0.071-2.592,0.144-3.816
		c-0.863,3.169-2.04,5.497-4.008,7.825c-0.336-0.576-0.553-0.864-1.008-1.272c2.039-2.016,3.552-4.608,4.775-8.112h-1.607
		c-0.793,0-1.368,0.048-1.849,0.12v-1.536c0.48,0.096,0.96,0.12,1.872,0.12h1.681V1368.114z M641.539,1370.562
		c-0.576,0-1.272,0.048-1.896,0.12v-1.536c0.648,0.096,1.225,0.12,2.016,0.12h0.865v-0.721c0-1.152-0.024-1.728-0.121-2.52h1.656
		c-0.096,0.647-0.119,1.296-0.119,2.496v0.744h2.472c0.937,0,1.585-0.049,1.992-0.145v1.584c-0.528-0.096-1.176-0.144-1.968-0.144
		h-2.328c1.464,3.528,3.048,5.88,5.4,8.04c-0.408,0.408-0.624,0.696-0.961,1.345c-2.304-2.593-3.216-4.129-4.752-7.969
		c0.096,1.656,0.096,1.656,0.145,3.744v5.017c0,1.32,0.023,1.944,0.144,2.592h-1.704c0.12-0.672,0.145-1.296,0.145-2.616v-4.729
		c0-0.863,0.047-2.448,0.119-3.72c-1.031,3.145-2.352,5.448-4.439,7.753c-0.36-0.553-0.504-0.721-1.033-1.152
		c2.257-2.16,3.984-4.944,5.186-8.305H641.539z"/>
	<path d="M633.282,1394.297c-1.08,0-1.752,0.024-2.544,0.097c0.072-0.721,0.096-1.104,0.096-1.801v-4.368
		c0-0.672-0.023-1.176-0.096-1.8c0.888,0.096,1.703,0.12,2.712,0.12h9.505c1.225,0,1.944-0.024,2.713-0.12
		c-0.072,0.6-0.097,1.08-0.097,1.8v4.368c0,0.769,0.024,1.177,0.097,1.801c-0.769-0.072-1.417-0.097-2.545-0.097h-4.488
		c-0.456,1.32-0.816,2.16-1.416,3.313h7.633c0.936,0,1.535-0.023,2.304-0.12c-0.096,0.528-0.12,1.2-0.12,2.16v5.112
		c0,0.961,0.024,1.585,0.145,2.4h-1.681v-1.224h-14.593v1.224h-1.68c0.096-0.695,0.143-1.607,0.143-2.568v-4.824
		c0-0.792-0.047-1.56-0.119-2.28c0.695,0.097,1.393,0.12,2.28,0.12h4.056c0.672-1.32,0.937-1.944,1.393-3.313H633.282z
		 M630.906,1404.523h14.593v-5.545h-14.593V1404.523z M632.345,1387.961v4.944h11.713v-4.944H632.345z"/>
</g>
<g enable-background="new    ">
	<path d="M648.931,1474.52c-0.744-0.097-1.488-0.145-2.424-0.145h-16.418c-0.984,0-1.68,0.048-2.424,0.145v-1.633
		c0.72,0.097,1.392,0.145,2.424,0.145h16.346c1.056,0,1.729-0.048,2.496-0.145V1474.52z M635.898,1475.648
		c-2.04,1.512-3.912,2.376-6.937,3.216c-0.288-0.552-0.576-0.888-1.032-1.344c1.704-0.36,2.664-0.648,3.961-1.176
		c1.248-0.528,1.848-0.864,2.808-1.633L635.898,1475.648z M637.362,1459.086c-0.024-1.032-0.048-1.464-0.168-2.088h1.776
		c-0.12,0.647-0.168,1.056-0.168,2.088h7.104c1.08,0,1.776-0.048,2.544-0.145v1.585c-0.768-0.097-1.488-0.145-2.544-0.145h-7.104
		v1.752h4.08c1.272,0,2.064-0.023,2.76-0.096c-0.071,0.768-0.096,1.416-0.096,2.592v4.465c0,1.152,0.024,1.848,0.096,2.592
		c-0.863-0.071-1.512-0.096-2.76-0.096h-9.217c-1.199,0-1.92,0.024-2.76,0.096c0.072-0.768,0.096-1.536,0.096-2.592v-4.465
		c0-1.08-0.023-1.824-0.096-2.592c0.695,0.072,1.488,0.096,2.784,0.096h3.672v-1.752h-6.841c-1.08,0-1.775,0.048-2.496,0.145v-1.585
		c0.744,0.097,1.393,0.145,2.496,0.145H637.362z M632.417,1464.895h11.713v-1.561h-11.713V1464.895z M632.417,1467.583h11.713
		v-1.585h-11.713V1467.583z M632.417,1470.391h11.713v-1.704h-11.713V1470.391z M641.73,1474.688
		c1.345,0.888,2.113,1.296,3.673,1.872c1.151,0.432,1.92,0.624,3.36,0.912c-0.504,0.504-0.744,0.815-1.032,1.368
		c-2.976-0.792-4.849-1.656-7.177-3.217L641.73,1474.688z"/>
	<path d="M630.137,1494.631c0-1.056,0-1.561,0.072-2.809c-0.815,1.057-1.416,1.681-2.376,2.448c-0.24-0.527-0.504-0.936-0.864-1.368
		c1.536-1.104,2.808-2.376,3.937-3.912c0.816-1.104,1.248-1.848,1.535-2.64l1.417,0.84c-0.24,0.312-0.24,0.312-0.841,1.271
		c-0.312,0.505-0.695,1.009-1.367,1.872v9.577c0,1.2,0.023,2.064,0.119,2.809h-1.775c0.096-0.696,0.144-1.656,0.144-2.784V1494.631z
		 M633.81,1481.886c-0.168,0.168-0.168,0.192-0.576,0.672c-1.536,1.872-3.049,3.265-5.017,4.608
		c-0.265-0.504-0.576-0.864-0.96-1.224c2.4-1.465,4.344-3.337,5.184-4.993L633.81,1481.886z M641.922,1486.615
		c1.416-2.064,2.089-3.36,2.833-5.377l1.487,0.576c-0.983,2.064-1.752,3.408-2.736,4.801h2.809c0.937,0,1.584-0.024,2.256-0.12
		v1.584c-0.743-0.072-1.464-0.12-2.304-0.12h-4.488v4.633h3.72c0.864,0,1.536-0.048,2.185-0.12v1.584
		c-0.696-0.072-1.368-0.12-2.209-0.12h-3.695v5.881c1.176,0.288,2.832,0.432,4.729,0.432c0.647,0,1.392-0.023,2.736-0.072
		c-0.265,0.601-0.385,1.009-0.48,1.656c-0.721,0.024-1.152,0.024-1.608,0.024c-1.681,0-3.864-0.168-4.921-0.408
		c-1.92-0.408-3.576-1.248-4.68-2.4c-0.528-0.527-0.912-1.008-1.368-1.775c-0.601,1.943-1.345,3.479-2.425,5.064
		c-0.432-0.48-0.744-0.696-1.295-0.984c1.271-1.801,2.039-3.433,2.592-5.521c0.408-1.536,0.672-3.433,0.672-4.681
		c0-0.312,0-0.408-0.023-0.72l1.68,0.216c-0.072,0.312-0.12,0.72-0.192,1.416c-0.144,1.296-0.288,2.232-0.552,3.48
		c0.96,1.92,2.04,3.024,3.624,3.744v-11.329h-3.528c-0.84,0-1.68,0.048-2.305,0.12v-1.584c0.648,0.096,1.345,0.12,2.257,0.12
		H641.922z M637.337,1481.262c1.177,1.512,1.681,2.328,2.617,4.152l-1.369,0.768c-0.815-1.872-1.487-2.976-2.52-4.224
		L637.337,1481.262z"/>
</g>
<g enable-background="new    ">
	<path d="M718.391,1478.6c-2.833-2.112-4.633-3.265-7.562-4.824c-1.319,1.176-2.76,2.088-4.512,2.88
		c-1.608,0.72-3.408,1.248-6.336,1.849c-0.313-0.792-0.408-0.961-0.865-1.536c4.824-0.744,7.657-1.849,10.226-3.961
		c-2.04-1.008-2.232-1.08-5.737-2.448c-0.383,0.553-0.479,0.696-0.936,1.272c-0.6-0.336-0.889-0.48-1.561-0.769
		c1.729-2.016,3.265-4.44,4.488-7.032h-4.008c-1.057,0-1.775,0.048-2.496,0.144v-1.8c0.695,0.12,1.536,0.168,2.496,0.168h4.656
		c0.984-2.376,1.465-3.889,1.729-5.448l1.896,0.36c-0.408,1.056-0.625,1.632-0.648,1.704c-0.672,1.943-0.864,2.424-1.248,3.384
		h9.984c0.984,0,1.776-0.048,2.496-0.168v1.8c-0.695-0.096-1.464-0.144-2.472-0.144h-1.944c-0.576,2.448-0.912,3.48-1.561,4.824
		c-0.623,1.345-1.488,2.616-2.52,3.793c2.904,1.512,4.584,2.52,7.561,4.584L718.391,1478.6z M707.326,1464.031
		c-0.888,1.968-1.8,3.601-2.904,5.305c2.929,1.128,4.152,1.632,6.097,2.592c0.864-0.936,1.824-2.304,2.448-3.576
		c0.6-1.248,0.912-2.185,1.416-4.32H707.326z"/>
</g>
<g enable-background="new    ">
	<path d="M602.214,1453.768l0.939-1.66l5.321,3.66l-0.56-6.421h1.9l-0.521,6.421l5.301-3.7l0.96,1.66l-5.841,2.74l5.841,2.741
		l-0.939,1.66l-5.301-3.661l0.539,6.422h-1.9l0.521-6.441l-5.302,3.721l-0.939-1.66l5.821-2.741L602.214,1453.768z"/>
	<path d="M604.594,1475.788c-0.979,0-1.521,0.021-2.261,0.101c0.1-0.66,0.12-1.16,0.12-2.001v-4.44c0-0.86-0.021-1.341-0.12-1.98
		c0.74,0.08,1.24,0.1,2.24,0.1h8.582c1.061,0,1.621-0.02,2.361-0.1c-0.101,0.62-0.121,1.101-0.121,1.92v4.621
		c0,0.82,0.021,1.261,0.121,1.881c-0.74-0.08-1.281-0.101-2.261-0.101h-3.881v2.501h6.121c0.94,0,1.54-0.04,2.101-0.12v1.42
		c-0.6-0.08-1.2-0.119-2.101-0.119h-6.121v3.141c0,1.12,0.04,1.8,0.14,2.32h-1.54c0.08-0.46,0.12-1.141,0.12-2.32v-3.141h-5.741
		c-0.88,0-1.501,0.039-2.101,0.119v-1.42c0.561,0.08,1.16,0.12,2.101,0.12h5.741v-2.501H604.594z M603.694,1471.088h10.462v-2.361
		h-10.462V1471.088z M603.694,1474.668h10.462v-2.46h-10.462V1474.668z"/>
	<path d="M602.634,1488.967c0-0.76-0.041-1.4-0.141-2.12h1.601c-0.101,0.62-0.14,1.28-0.14,2.12v2.421h4v-2.501
		c0-0.74-0.039-1.4-0.14-2.061h1.561c-0.101,0.66-0.14,1.301-0.14,2.041v2.521h4.26v-2.521c0-0.761-0.039-1.36-0.14-2.041h1.54
		c-0.1,0.7-0.14,1.301-0.14,2.041v2.521h1.28c0.86,0,1.48-0.04,2.021-0.12v1.4c-0.58-0.08-1.2-0.12-2.021-0.12h-1.28v4.721
		c0,0.66,0.021,1.16,0.08,1.66c-0.44-0.06-0.92-0.079-1.601-0.079h-3.74c-0.7,0-1.141,0.02-1.621,0.079
		c0.061-0.46,0.08-0.96,0.08-1.62v-4.761h-4v9.922h11.063c0.899,0,1.479-0.04,2.14-0.12v1.461c-0.62-0.08-1.28-0.12-2.14-0.12
		h-11.063v1.26h-1.441c0.08-0.64,0.121-1.32,0.121-2.48v-9.922h-0.94c-0.82,0-1.44,0.04-2.021,0.12v-1.4
		c0.561,0.08,1.16,0.12,2.021,0.12h0.94V1488.967z M609.236,1492.548v5.161h4.26v-5.161H609.236z"/>
</g>
<g enable-background="new    ">
	<path d="M760.136,1365.395c-0.12,0.1-0.16,0.119-0.561,0.52c-0.52,0.48-1.16,1.021-1.859,1.561c0.859,0.96,2.16,1.9,2.64,1.9
		c0.46,0,0.74-0.641,1.221-2.7c0.319,0.399,0.56,0.6,0.96,0.819c-0.641,2.361-1.12,3.081-2.041,3.081c-1,0-2.4-0.92-3.7-2.421
		c-1.341,0.9-2.601,1.541-4.541,2.261c-0.2-0.42-0.399-0.7-0.761-1.04c1.941-0.58,3.281-1.181,4.642-2.061
		c-0.54-0.82-0.979-1.801-1.32-2.961l-4.801,0.08v1.521c1.22-0.18,1.8-0.28,3.4-0.64v1.02c-1.421,0.301-2.32,0.48-3.4,0.641v2.3
		c0,1.081-0.341,1.36-1.62,1.36c-0.521,0-1.16-0.04-2.061-0.119c-0.08-0.561-0.141-0.841-0.301-1.181
		c0.961,0.16,1.701,0.24,2.361,0.24c0.32,0,0.439-0.101,0.439-0.4v-2.021c-0.82,0.12-0.82,0.12-2.42,0.32
		c-0.36,0.04-0.721,0.08-1.061,0.14c-0.141,0.021-0.2,0.021-0.381,0.08l-0.26-1.28c0.24,0.021,0.34,0.021,0.48,0.021
		c0.721,0,1.881-0.101,3.641-0.32v-1.66l-2.601,0.04c-0.8,0-1.22,0.04-1.82,0.12l-0.021-1.261c0.541,0.061,1.001,0.101,1.441,0.101
		c0.06,0,0.18,0,0.399,0l2.601-0.04v-1.261c-1.04,0.16-1.48,0.2-3.041,0.36c-0.18-0.48-0.26-0.601-0.58-0.96
		c3.061-0.141,5.242-0.501,6.643-1.121c0.039-0.02,0.06-0.02,0.239-0.1l0.9,0.86c-1.101,0.36-1.8,0.54-2.98,0.76v1.44l4.561-0.08
		c-0.1-0.6-0.159-1.12-0.239-1.74c-0.041-0.42-0.08-0.68-0.121-0.86h1.361c-0.021,0.12-0.041,0.4-0.041,0.54
		c0,0.521,0.101,1.421,0.221,2.041l4.32-0.08c1.261-0.021,1.641-0.061,2.16-0.16l0.021,1.28c-0.399-0.061-0.601-0.08-1.32-0.08
		c-0.26,0-0.58,0-0.84,0.02l-4.101,0.061c0.3,0.94,0.6,1.561,1.1,2.301c0.98-0.74,1.641-1.4,2.021-1.94L760.136,1365.395z
		 M750.134,1354.412c-0.36-0.48-0.76-0.921-1.381-1.541l1.08-0.42c0.721,0.74,1.021,1.101,1.641,1.961h3.261
		c0.7-0.74,1.12-1.28,1.54-2.041l1.261,0.44c-0.46,0.6-0.88,1.1-1.4,1.601h2.841c1.08,0,1.6-0.021,2.04-0.12v1.22
		c-0.601-0.08-1.12-0.1-2.04-0.1h-5.182v1.3h4.281c0.98,0,1.44-0.02,1.9-0.1v1.18c-0.5-0.079-1-0.1-1.9-0.1h-4.281v1.4h6.382
		c0.979,0,1.56-0.04,2.08-0.12v1.28c-0.521-0.08-1.101-0.12-2.08-0.12h-13.663c-0.98,0-1.58,0.04-2.101,0.12v-1.28
		c0.54,0.08,1.12,0.12,2.101,0.12h6.102v-1.4h-4.102c-0.92,0-1.439,0.021-1.92,0.1v-1.18c0.46,0.08,0.98,0.1,1.92,0.1h4.102v-1.3
		h-4.981c-0.88,0-1.479,0.02-2.061,0.1v-1.22c0.521,0.08,1.081,0.12,2.061,0.12H750.134z M757.515,1360.433
		c1.041,0.521,1.801,1.001,2.621,1.641l-0.74,0.8c-0.62-0.54-1.521-1.16-2.601-1.74L757.515,1360.433z"/>
	<path d="M752.855,1379.393c0-0.52-0.021-0.9-0.061-1.32h0.92c1.861-1,2.941-1.8,4.562-3.28h-9.683c-0.8,0-1.5,0.04-2.02,0.12v-1.44
		c0.6,0.08,1.199,0.12,2.04,0.12h9.481c0.82,0,1.201-0.021,1.561-0.08l0.82,0.92c-0.42,0.36-0.439,0.38-0.721,0.641
		c-2.26,2.04-2.98,2.561-5.561,4.021v1.62h5.621c1.141,0,1.74-0.04,2.42-0.12v1.48c-0.719-0.08-1.34-0.12-2.42-0.12h-5.621v6.682
		c0,1.34-0.48,1.681-2.301,1.681c-0.64,0-1.26-0.04-2.54-0.141c-0.08-0.62-0.14-0.88-0.341-1.4c1.221,0.181,2.061,0.261,2.881,0.261
		c0.78,0,0.961-0.101,0.961-0.58v-6.502h-5.962c-1,0-1.7,0.04-2.46,0.12v-1.48c0.74,0.08,1.38,0.12,2.5,0.12h5.922V1379.393z"/>
</g>
<g enable-background="new    ">
	<path d="M702.719,1399.395c-0.12,0.1-0.16,0.119-0.56,0.52c-0.521,0.48-1.161,1.021-1.861,1.561c0.86,0.96,2.16,1.9,2.641,1.9
		c0.461,0,0.74-0.641,1.221-2.7c0.32,0.399,0.561,0.6,0.96,0.819c-0.64,2.361-1.12,3.081-2.04,3.081c-1,0-2.4-0.92-3.701-2.421
		c-1.34,0.9-2.601,1.541-4.541,2.261c-0.2-0.42-0.4-0.7-0.76-1.04c1.939-0.58,3.28-1.181,4.641-2.061
		c-0.54-0.82-0.98-1.801-1.32-2.961l-4.801,0.08v1.521c1.221-0.18,1.801-0.28,3.4-0.64v1.02c-1.42,0.301-2.32,0.48-3.4,0.641v2.3
		c0,1.081-0.34,1.36-1.621,1.36c-0.52,0-1.16-0.04-2.061-0.119c-0.08-0.561-0.139-0.841-0.299-1.181
		c0.959,0.16,1.699,0.24,2.359,0.24c0.32,0,0.44-0.101,0.44-0.4v-2.021c-0.819,0.12-0.819,0.12-2.421,0.32
		c-0.359,0.04-0.72,0.08-1.06,0.14c-0.14,0.021-0.2,0.021-0.38,0.08l-0.26-1.28c0.239,0.021,0.34,0.021,0.479,0.021
		c0.72,0,1.88-0.101,3.641-0.32v-1.66l-2.601,0.04c-0.8,0-1.221,0.04-1.82,0.12l-0.02-1.261c0.54,0.061,1,0.101,1.439,0.101
		c0.061,0,0.181,0,0.4,0l2.601-0.04v-1.261c-1.04,0.16-1.479,0.2-3.04,0.36c-0.181-0.48-0.26-0.601-0.58-0.96
		c3.061-0.141,5.24-0.501,6.641-1.121c0.041-0.02,0.061-0.02,0.24-0.1l0.9,0.86c-1.1,0.36-1.801,0.54-2.98,0.76v1.44l4.561-0.08
		c-0.1-0.6-0.16-1.12-0.24-1.74c-0.039-0.42-0.08-0.68-0.119-0.86h1.359c-0.02,0.12-0.039,0.4-0.039,0.54
		c0,0.521,0.1,1.421,0.22,2.041l4.321-0.08c1.26-0.021,1.64-0.061,2.16-0.16l0.02,1.28c-0.4-0.061-0.6-0.08-1.32-0.08
		c-0.26,0-0.58,0-0.84,0.02l-4.102,0.061c0.301,0.94,0.601,1.561,1.101,2.301c0.98-0.74,1.641-1.4,2.021-1.94L702.719,1399.395z
		 M692.716,1388.412c-0.359-0.48-0.76-0.921-1.379-1.541l1.08-0.42c0.72,0.74,1.02,1.101,1.64,1.961h3.261
		c0.7-0.74,1.12-1.28,1.541-2.041l1.26,0.44c-0.46,0.6-0.881,1.1-1.4,1.601h2.841c1.08,0,1.601-0.021,2.04-0.12v1.22
		c-0.6-0.08-1.12-0.1-2.04-0.1h-5.181v1.3h4.28c0.979,0,1.44-0.02,1.9-0.1v1.18c-0.5-0.079-1-0.1-1.9-0.1h-4.28v1.4h6.381
		c0.98,0,1.561-0.04,2.08-0.12v1.28c-0.52-0.08-1.1-0.12-2.08-0.12h-13.663c-0.979,0-1.58,0.04-2.101,0.12v-1.28
		c0.54,0.08,1.121,0.12,2.101,0.12h6.102v-1.4h-4.101c-0.921,0-1.441,0.021-1.921,0.1v-1.18c0.46,0.08,0.979,0.1,1.921,0.1h4.101
		v-1.3h-4.981c-0.88,0-1.48,0.02-2.061,0.1v-1.22c0.521,0.08,1.08,0.12,2.061,0.12H692.716z M700.099,1394.433
		c1.039,0.521,1.8,1.001,2.62,1.641l-0.74,0.8c-0.62-0.54-1.521-1.16-2.601-1.74L700.099,1394.433z"/>
	<path d="M692.056,1410.792c0.841,0,1.341-0.02,1.741-0.08c-0.04,0.4-0.06,0.94-0.12,1.74c-0.141,2.521-0.76,5.121-1.66,7.021
		c0.8,0.601,1.1,0.841,2.1,1.621l-0.64,1.22c-0.96-0.88-1.3-1.16-2.04-1.76c-1.021,1.74-1.881,2.681-3.741,4.12
		c-0.28-0.479-0.5-0.76-0.86-1.06c1.9-1.381,2.681-2.181,3.641-3.801c-1.14-0.86-1.641-1.2-3.061-2.081
		c0.76-1.74,1.201-3.181,1.74-5.801h-0.459c-0.601,0-1.141,0.04-1.682,0.1v-1.34c0.501,0.08,0.9,0.1,1.762,0.1h0.58
		c0.279-1.48,0.42-2.801,0.42-3.761c0-0.2,0-0.22-0.021-0.4l1.421,0.12c-0.061,0.32-0.061,0.32-0.301,2.201
		c0,0.1-0.061,0.439-0.141,0.92c-0.039,0.2-0.079,0.54-0.139,0.92H692.056z M690.376,1411.933c-0.48,2.28-0.86,3.601-1.541,5.381
		c1.081,0.7,1.461,0.94,2.201,1.461c0.86-1.861,1.24-3.521,1.521-6.842H690.376z M695.017,1410.733c0-0.721-0.02-1.32-0.08-1.82
		c0.44,0.06,0.94,0.08,1.721,0.08h1.94v-1.001c0-0.5-0.04-0.899-0.12-1.399h1.461c-0.08,0.46-0.121,0.92-0.121,1.46v0.94h2.161
		c0.8,0,1.32-0.021,1.74-0.08c-0.06,0.46-0.08,1.04-0.08,1.86v4.261c0,0.8,0.021,1.24,0.06,1.721c-0.439-0.04-1.02-0.061-1.68-0.061
		h-2.341c0.24,1.08,0.501,1.74,1.001,2.661c1.5-0.94,2.721-1.98,3.4-2.901l0.9,0.9c-0.141,0.12-0.141,0.12-0.42,0.38
		c-1.061,0.98-1.761,1.521-3.281,2.541c1.061,1.46,2.24,2.42,4.181,3.4c-0.36,0.36-0.56,0.681-0.819,1.181
		c-3.481-2.121-5.222-4.461-6.102-8.162h-2.301v6.021c1.7-0.42,2.561-0.681,3.921-1.16v1.2c-2.521,0.84-3.661,1.16-6.081,1.681
		c-0.381,0.08-0.48,0.119-0.84,0.22l-0.421-1.4c0.66-0.02,1.16-0.08,2.2-0.28V1410.733z M702.439,1412.233v-2.16h-6.201v2.16
		H702.439z M696.238,1415.633h6.201v-2.34h-6.201V1415.633z"/>
</g>
<g enable-background="new    ">
	<path d="M808.922,1456.058c0.815,3.072,2.088,5.592,3.912,7.729c1.753,2.04,3.769,3.504,6.505,4.681
		c-0.48,0.575-0.672,0.84-1.057,1.607c-5.376-2.856-8.353-6.36-10.08-11.856c-0.648,3.504-2.232,6.408-4.681,8.616
		c-1.513,1.345-2.833,2.185-5.185,3.265c-0.336-0.672-0.528-0.937-1.032-1.464c3.001-1.225,4.753-2.4,6.313-4.201
		c1.872-2.16,2.88-4.704,3.337-8.376h-6.529c-1.271,0-1.943,0.048-2.641,0.168v-1.872c0.625,0.119,1.416,0.168,2.689,0.168h6.624
		c0.071-1.152,0.096-1.896,0.096-2.833c0-1.104-0.071-1.968-0.168-2.616h1.968c-0.119,0.792-0.168,1.32-0.168,2.497
		c-0.023,1.224-0.047,1.92-0.119,2.952h7.272c1.224,0,2.017-0.049,2.664-0.168v1.872c-0.769-0.12-1.44-0.168-2.64-0.168H808.922z"/>
	<path d="M803.306,1473.001c-0.097,0.6-0.145,1.032-0.145,1.896c-0.023,2.904-0.023,3.793-0.072,5.017
		c0.84-0.744,1.633-1.848,2.353-3.192l1.177,1.032c-0.24,0.24-0.289,0.313-0.48,0.601c-0.696,1.031-1.752,2.111-3.121,3.24
		c-0.119,1.68-0.168,2.231-0.359,3.384c0.96,1.656,2.064,2.904,3.721,4.177c-0.408,0.359-0.625,0.647-0.984,1.248
		c-1.393-1.248-2.232-2.232-3.072-3.696c-0.768,3.072-1.944,5.353-3.912,7.488c-0.36-0.528-0.648-0.815-1.152-1.2
		c2.04-2.04,3.192-4.2,3.792-7.104c0.384-1.92,0.624-5.28,0.624-9.072c0-2.448-0.023-2.904-0.144-3.816H803.306z M797.425,1483.874
		c0.456-1.104,0.624-1.585,0.816-2.641c0.264-1.368,0.359-2.185,0.384-3.792l1.416,0.216c-0.097,2.832-0.384,4.393-1.2,6.792
		L797.425,1483.874z M812.163,1479.194c-0.072,0.456-0.097,0.96-0.097,1.632c0,3.265,0.793,5.904,2.425,8.161
		c1.224,1.704,2.664,2.88,4.968,4.056c-0.359,0.36-0.719,0.864-0.983,1.44c-2.04-1.152-3.456-2.376-4.681-3.96
		c-1.271-1.681-1.992-3.337-2.376-5.497c-0.216,2.089-0.984,3.984-2.304,5.713c-1.152,1.536-2.496,2.688-4.441,3.84
		c-0.312-0.575-0.576-0.863-1.08-1.271c2.473-1.32,4.033-2.736,5.209-4.729c1.225-2.088,1.775-4.488,1.775-7.681
		c0-0.792-0.023-1.152-0.071-1.704H812.163z M816.195,1476.265c0.889,0,1.439-0.023,1.801-0.096l0.863,0.937
		c-0.145,0.239-0.288,0.575-0.624,1.416c-0.696,1.728-1.608,3.36-2.761,4.968c-0.479-0.384-0.815-0.576-1.367-0.768
		c1.296-1.608,2.064-2.977,2.904-5.089h-7.369c-0.888,2.185-1.92,3.841-3.336,5.497c-0.432-0.48-0.648-0.673-1.225-0.984
		c1.729-1.776,3-3.984,3.769-6.576c0.312-1.08,0.528-2.089,0.552-2.856l1.705,0.336c-0.168,0.456-0.192,0.528-0.625,2.16
		c-0.096,0.336-0.191,0.624-0.336,1.056H816.195z"/>
	<path d="M801.314,1499.785c-1.177,0-1.945,0.048-2.713,0.144v-1.776c0.696,0.12,1.465,0.168,2.688,0.168h13.802
		c1.271,0,2.039-0.048,2.808-0.168v1.776c-0.792-0.096-1.56-0.144-2.808-0.144h-6.217v6.408h5.016c1.201,0,1.849-0.048,2.545-0.144
		v1.704c-0.696-0.072-1.416-0.097-2.545-0.097h-5.016v7.585h7.2c1.2,0,1.968-0.048,2.665-0.144v1.8
		c-0.744-0.12-1.513-0.168-2.665-0.168h-15.554c-1.199,0-1.968,0.048-2.783,0.168v-1.8c0.791,0.096,1.488,0.144,2.783,0.144h6.648
		v-7.585h-4.584c-1.104,0-1.872,0.024-2.568,0.097v-1.704c0.601,0.096,1.32,0.144,2.545,0.144h4.607v-6.408H801.314z"/>
</g>
<line fill="none" stroke="#000000" stroke-width="3" stroke-miterlimit="10" x1="655.25" y1="1466" x2="694.25" y2="1466"/>
<line fill="none" stroke="#000000" stroke-width="3" stroke-miterlimit="10" x1="655.25" y1="1473.5" x2="694.25" y2="1473.5"/>
<line fill="none" stroke="#000000" stroke-width="3" stroke-miterlimit="10" x1="725" y1="1466" x2="764" y2="1466"/>
<line fill="none" stroke="#000000" stroke-width="3" stroke-miterlimit="10" x1="725" y1="1473.5" x2="764" y2="1473.5"/>
<line fill="none" stroke="#000000" stroke-miterlimit="10" x1="620.225" y1="1455.823" x2="656.225" y2="1505.501"/>
<line fill="none" stroke="#000000" stroke-miterlimit="10" x1="656.225" y1="1455.823" x2="620.225" y2="1505.501"/>
<g>
	<g>
		<polyline fill="none" stroke="#000000" stroke-width="2" stroke-miterlimit="10" points="778.704,1436.6 710.39,1348.5 
			655.25,1348.5 709.725,1348.5 709.725,1450.919 		"/>
		<g>
			<path d="M777.914,1419.915c-0.549,0.05-0.953,0.539-0.902,1.09l1.413,15.234l-14.402-5.162c-0.521-0.187-1.096,0.083-1.28,0.603
				c-0.186,0.52,0.09,1.095,0.604,1.28l15.881,5.691c0.321,0.114,0.68,0.058,0.95-0.151s0.414-0.543,0.383-0.883l-1.557-16.798
				c-0.02-0.197-0.094-0.375-0.206-0.52C778.595,1420.039,778.267,1419.883,777.914,1419.915z"/>
		</g>
		<g>
			<path d="M700.125,1437.249c0.465-0.297,1.084-0.158,1.381,0.309l8.219,12.904l8.219-12.904c0.297-0.467,0.916-0.605,1.381-0.309
				s0.6,0.92,0.307,1.383l-9.063,14.229c-0.184,0.287-0.502,0.463-0.844,0.463s-0.66-0.176-0.844-0.463l-9.063-14.229
				c-0.105-0.168-0.156-0.354-0.156-0.537C699.663,1437.765,699.827,1437.441,700.125,1437.249z"/>
		</g>
	</g>
</g>
</svg>
