<?xml version="1.0" encoding="utf-8"?>
<!-- Generator: Adobe Illustrator 16.0.0, SVG Export Plug-In . SVG Version: 6.00 Build 0)  -->
<!DOCTYPE svg PUBLIC "-//W3C//DTD SVG 1.1//EN" "http://www.w3.org/Graphics/SVG/1.1/DTD/svg11.dtd">
<svg version="1.1" id="レイヤー_1" xmlns="http://www.w3.org/2000/svg" xmlns:xlink="http://www.w3.org/1999/xlink" x="0px"
	 y="0px" width="172.4px" height="40.865px" viewBox="0 0 172.4 40.865" enable-background="new 0 0 172.4 40.865"
	 xml:space="preserve">
<path d="M53.809,25.913c0.798-0.912,1.127-1.424,1.48-2.283c0.349-0.852,0.508-1.691,0.508-2.616c0-0.923-0.156-1.765-0.508-2.616
	c-0.353-0.861-0.683-1.371-1.48-2.284h-0.946c0.893,0.894,1.242,1.384,1.612,2.199c0.382,0.851,0.576,1.733,0.576,2.701
	c0,0.966-0.194,1.848-0.576,2.699c-0.372,0.817-0.724,1.307-1.612,2.199L53.809,25.913L53.809,25.913z M44.29,18.749h5.612v0.966
	H44.29V18.749z M44.29,17.251h5.612v0.925H44.29V17.251z M49.552,20.28c0.508,0,0.787,0.013,1.038,0.043
	c-0.027-0.243-0.041-0.489-0.041-0.947v-1.849c0-0.436,0.014-0.659,0.041-0.913c-0.295,0.042-0.584,0.054-1.038,0.054h-4.924
	c-0.403,0-0.699-0.012-1.021-0.054c0.032,0.32,0.043,0.562,0.043,0.998v1.786c0,0.417-0.011,0.701-0.043,0.925
	c0.244-0.03,0.552-0.044,1.041-0.044L49.552,20.28L49.552,20.28z M46.83,22.098v0.999h-1.944c-0.501,0-0.732-0.013-0.997-0.056
	v0.702c0.276-0.043,0.529-0.055,0.997-0.055h1.944v1.18h-3.335c-0.468,0-0.787-0.022-1.085-0.064v0.73
	c0.34-0.055,0.702-0.072,1.096-0.072h7.195c0.415,0,0.787,0.021,1.127,0.072v-0.73c-0.287,0.041-0.629,0.064-1.105,0.064h-3.252
	v-1.18h2.349c0.459,0,0.772,0.022,1.105,0.065v-0.725c-0.287,0.044-0.597,0.067-1.095,0.067h-2.359v-0.999h2.856
	c0.437,0,0.743,0.022,1.064,0.064v-0.724c-0.297,0.043-0.605,0.065-1.064,0.065h-2.856v-0.169c0-0.309,0.011-0.532,0.054-0.786
	h-0.733c0.032,0.254,0.044,0.478,0.044,0.786v0.169h-2.158c0.129-0.211,0.224-0.393,0.406-0.766l-0.649-0.243
	c-0.191,0.531-0.34,0.818-0.711,1.329c-0.319,0.446-0.756,0.84-1.309,1.201c0.244,0.192,0.309,0.255,0.512,0.501
	c0.551-0.424,0.944-0.827,1.36-1.425L46.83,22.098L46.83,22.098z M39.842,21.162c-0.243,0.224-0.733,0.52-1.33,0.798
	c-1.273,0.597-2.826,1.021-4.432,1.201c0.181,0.242,0.265,0.381,0.362,0.639c2.264-0.38,4.028-0.978,5.463-1.848
	c0.379-0.235,0.379-0.235,0.488-0.309L39.842,21.162z M40.758,22.789c-0.238,0.242-0.727,0.573-1.309,0.871
	c-1.595,0.808-3.559,1.329-5.677,1.509c0.169,0.244,0.243,0.383,0.338,0.648c2.508-0.373,4.156-0.839,5.782-1.656
	c0.393-0.201,0.393-0.201,1.427-0.829L40.758,22.789z M38.959,19.759c-0.18,0.171-0.584,0.393-1.127,0.629
	c-1.104,0.477-2.447,0.817-3.901,0.966c0.169,0.2,0.277,0.373,0.362,0.605c0.967-0.151,1.806-0.339,2.496-0.542
	c0.658-0.2,1.788-0.659,2.296-0.938c0.319-0.17,0.319-0.17,0.445-0.242L38.959,19.759z M35.845,19.09
	c-0.225-0.658-0.35-0.978-0.553-1.424h3.05c-0.18,0.52-0.338,0.904-0.638,1.424H35.845z M36.397,17.08H33.68
	c-0.535,0-0.841-0.021-1.084-0.064v0.689c0.309-0.031,0.606-0.043,1.074-0.043h0.914c0.309,0.647,0.459,1.01,0.563,1.425h-1.35
	c-0.628,0-0.893-0.011-1.17-0.054c0.029,0.309,0.043,0.597,0.043,0.914c0,1.401-0.065,2.411-0.194,3.179
	c-0.155,0.936-0.379,1.509-0.861,2.188c0.234,0.169,0.352,0.297,0.521,0.543c0.508-0.775,0.754-1.393,0.946-2.361
	c0.181-0.913,0.244-1.818,0.255-3.816h6.579c0.604,0,0.954,0.011,1.296,0.054V19.02c-0.296,0.042-0.638,0.064-1.286,0.064h-1.529
	c0.339-0.638,0.532-1.04,0.683-1.425h0.772c0.479,0,0.787,0.012,1.129,0.044v-0.69c-0.268,0.042-0.598,0.064-1.129,0.064h-2.761
	v-0.191c0-0.255,0.021-0.458,0.064-0.724h-0.817c0.044,0.287,0.065,0.489,0.065,0.724v0.192L36.397,17.08L36.397,17.08z
	 M30.877,25.913c-0.895-0.905-1.244-1.383-1.614-2.199c-0.382-0.851-0.574-1.732-0.574-2.7c0-0.967,0.192-1.849,0.574-2.7
	c0.374-0.817,0.724-1.298,1.614-2.199h-0.946c-0.798,0.913-1.129,1.426-1.48,2.284c-0.351,0.852-0.508,1.692-0.508,2.616
	c0,0.925,0.157,1.764,0.508,2.615c0.35,0.861,0.683,1.371,1.48,2.283H30.877L30.877,25.913z M15.033,19.078v2.446H11.79
	c-0.466,0-0.809-0.022-1.106-0.065v0.787c0.309-0.044,0.672-0.066,1.106-0.066h3.243v2.646c0,0.415-0.022,0.713-0.064,0.989h0.838
	c-0.041-0.276-0.064-0.553-0.064-0.989V22.18h3.179c0.435,0,0.787,0.022,1.105,0.066v-0.787c-0.287,0.043-0.627,0.065-1.105,0.065
	h-3.179v-2.446h2.626c0.438,0,0.682,0.012,0.957,0.055v-0.744c-0.266,0.043-0.5,0.054-0.957,0.054h-2.626v-1.22
	c0-0.383,0.022-0.647,0.064-0.938h-0.838c0.041,0.287,0.064,0.553,0.064,0.938v1.22h-2.011c0.158-0.35,0.214-0.465,0.375-0.911
	c0.098-0.244,0.139-0.341,0.212-0.509l-0.731-0.243c-0.116,0.596-0.34,1.221-0.64,1.806c-0.362,0.69-0.767,1.213-1.436,1.807
	c0.275,0.15,0.338,0.211,0.572,0.479c0.586-0.616,0.954-1.106,1.331-1.788h2.326L15.033,19.078L15.033,19.078z M4.293,22.8v0.968
	H1.242c-0.68,0-0.934-0.013-1.242-0.056v0.682c0.287-0.042,0.682-0.064,1.255-0.064h3.038v0.508c0,0.424-0.021,0.755-0.071,1.105
	h0.808c-0.054-0.351-0.073-0.658-0.073-1.116v-0.5h3.115c0.574,0,1.02,0.022,1.303,0.064V23.7c-0.295,0.044-0.688,0.067-1.303,0.067
	H4.955v-0.969h2.326c0.574,0,0.83,0.012,1.137,0.055v-0.659c-0.276,0.043-0.542,0.055-1.146,0.055H4.952v-0.055
	c0-0.254,0.011-0.422,0.041-0.615H4.25c0.031,0.193,0.042,0.392,0.042,0.627v0.043H2.561c0.159-0.201,0.211-0.278,0.404-0.532
	L2.36,21.464c-0.373,0.723-0.883,1.201-1.807,1.721c0.287,0.17,0.318,0.192,0.508,0.415c0.373-0.253,0.606-0.446,0.99-0.797
	L4.293,22.8L4.293,22.8z M8.193,21.48c-0.881-0.731-1.242-0.989-2.21-1.571l-0.46,0.309c0.404,0.234,0.563,0.331,0.798,0.499
	c-1.032,0.074-1.262,0.085-2.898,0.117c0.489-0.352,0.646-0.479,1.082-0.862l0.137-0.115h3.955v1.305h0.688
	c-0.03-0.17-0.041-0.32-0.041-0.573v-0.629c0-0.331,0.011-0.508,0.041-0.689c-0.32,0.031-0.573,0.043-1.127,0.043H5.267
	c0.445-0.394,0.724-0.629,0.809-0.701c0.404-0.374,0.404-0.374,0.645-0.585l-0.628-0.288c-0.2,0.331-0.773,0.956-1.296,1.393
	l-0.127,0.114c-0.521-0.35-0.671-0.446-0.979-0.639c0.353-0.287,0.691-0.616,1.085-1.053h3.508c0.404,0,0.754,0.022,1.073,0.056
	v-0.69c-0.296,0.044-0.628,0.065-1.083,0.065H4.903v-0.159c0-0.338,0.011-0.499,0.055-0.712H4.201
	c0.031,0.213,0.055,0.394,0.055,0.724v0.151H1.162c-0.458,0-0.798-0.022-1.104-0.066v0.69c0.337-0.031,0.67-0.055,1.082-0.055h2.892
	c-0.17,0.225-0.553,0.606-0.798,0.786c-0.265-0.15-0.435-0.243-0.946-0.499l-0.5,0.36c0.85,0.374,1.51,0.726,2.073,1.105H1.233
	c-0.553,0-0.827-0.012-1.147-0.042c0.03,0.191,0.041,0.382,0.041,0.646v0.597c0,0.234-0.011,0.394-0.041,0.628h0.691v-1.286h3.199
	c-0.508,0.447-0.682,0.585-1.201,0.989c-0.234,0-0.459,0.013-0.575,0.013c-0.137,0-0.222,0-0.276,0
	c-0.235,0-0.448-0.013-0.647-0.044l0.109,0.597c0.211-0.022,0.286-0.03,0.541-0.03c1.648-0.021,3.433-0.107,4.953-0.235
	c0.309,0.243,0.458,0.373,0.841,0.743L8.193,21.48z"/>
<path d="M170.412,25.913c0.797-0.912,1.127-1.424,1.479-2.283c0.35-0.852,0.509-1.691,0.509-2.616c0-0.923-0.159-1.765-0.509-2.616
	c-0.353-0.861-0.683-1.371-1.479-2.284h-0.948c0.896,0.894,1.245,1.384,1.615,2.199c0.383,0.851,0.573,1.733,0.573,2.701
	c0,0.966-0.19,1.848-0.573,2.699c-0.373,0.817-0.724,1.307-1.615,2.199L170.412,25.913L170.412,25.913z M162.011,18.994
	c-0.159,1.68-0.352,2.53-0.83,3.593c-0.392-0.297-0.553-0.403-1.082-0.755c0.298-0.797,0.597-1.837,0.797-2.838H162.011z
	 M161,18.398c0.096-0.49,0.14-0.786,0.243-1.413c0.065-0.426,0.065-0.426,0.115-0.69l-0.743-0.065c0,0.575-0.064,1.127-0.254,2.169
	h-0.362c-0.459,0-0.659-0.012-0.913-0.054v0.701c0.298-0.031,0.573-0.055,0.894-0.055h0.268c-0.225,1.17-0.503,2.104-0.896,3.07
	c0.776,0.49,1.063,0.69,1.541,1.064c-0.508,0.827-0.912,1.255-1.923,2.029l0.116,0.097l0.139,0.127
	c0.054,0.053,0.071,0.073,0.242,0.287c0.968-0.818,1.36-1.265,1.901-2.147c0.427,0.383,0.606,0.553,1.085,1.064l0.445-0.574
	c-0.53-0.49-0.743-0.67-1.222-1.052c0.501-1.052,0.809-2.242,0.937-3.71c0.055-0.596,0.074-0.773,0.085-0.894
	c-0.213,0.032-0.489,0.043-0.954,0.043h-0.744L161,18.398L161,18.398z M163.901,19.419v-2.01h1.627v2.01H163.901z M163.901,22.002
	v-1.987h3.501v1.987H163.901z M165.613,22.597v2.062h-1.712v-2.062H165.613z M166.263,22.597h0.996c0.309,0,0.52,0.011,0.812,0.031
	c-0.022-0.211-0.022-0.34-0.022-0.871v-1.54c0-0.361,0.012-0.575,0.03-0.84c-0.254,0.03-0.445,0.042-0.861,0.042h-1.04v-2.01h1.349
	c0.424,0,0.688,0.022,0.991,0.064V16.73c-0.309,0.054-0.65,0.074-1.054,0.074h-3.241c-0.449,0-0.754-0.013-1.022-0.032
	c0.031,0.297,0.042,0.605,0.042,1.041v6.982c0,0.394-0.021,0.776-0.065,1.105h0.724v-0.628h3.732c0.415,0,0.724,0.022,1.03,0.066
	v-0.755c-0.307,0.053-0.639,0.072-1.02,0.072h-1.384v-2.061H166.263L166.263,22.597z M157.828,18.633
	c-0.339-0.713-0.543-1.063-0.978-1.647l-0.503,0.242c0.46,0.647,0.648,0.998,0.926,1.701L157.828,18.633z M152.705,22.768h1.657
	v1.074h-1.657V22.768z M152.715,21.226h1.648v1.021h-1.648V21.226z M154.917,21.683c0-0.508,0.011-0.772,0.03-1.02
	c-0.213,0.031-0.394,0.042-0.732,0.042h-1.36c-0.38,0-0.562-0.011-0.767-0.042c0.044,0.331,0.055,0.563,0.055,1.01v2.55
	c0,0.415-0.021,0.713-0.065,0.989h0.628v-0.839h1.348c0.492,0,0.617,0,0.882,0.022c-0.021-0.201-0.021-0.352-0.021-0.871v-1.84
	L154.917,21.683L154.917,21.683z M150.824,22.172c0.222,0.774,0.32,1.349,0.416,2.38l0.532-0.168
	c-0.181-1.245-0.213-1.403-0.447-2.341L150.824,22.172z M148.857,22.044c-0.074,1.18-0.224,1.999-0.503,2.796l0.522,0.256
	c0.243-0.767,0.403-1.637,0.53-2.955L148.857,22.044z M148.348,21.522c0.222-0.053,0.222-0.053,0.839-0.105
	c0.478-0.044,0.478-0.044,0.691-0.066v3.306c0,0.605-0.022,0.935-0.067,1.221h0.727c-0.044-0.287-0.065-0.596-0.065-1.221v-3.37
	c0.339-0.031,0.339-0.031,0.688-0.084c0.055,0.191,0.074,0.287,0.14,0.552l0.499-0.2c-0.181-0.658-0.38-1.232-0.68-1.922
	l-0.458,0.17c0.18,0.403,0.242,0.562,0.362,0.905c-0.341,0.042-0.341,0.042-1.447,0.127c0.587-0.828,1.139-1.711,1.617-2.594
	c0.19-0.351,0.234-0.423,0.319-0.552l-0.617-0.297c-0.129,0.458-0.309,0.828-0.967,1.933c-0.17-0.265-0.287-0.435-0.543-0.774
	c0.277-0.424,0.563-0.905,0.743-1.255c0.297-0.597,0.297-0.597,0.423-0.786l-0.628-0.297c-0.105,0.466-0.478,1.265-0.882,1.902
	c-0.126-0.17-0.17-0.224-0.35-0.446l-0.373,0.479c0.586,0.657,0.936,1.127,1.299,1.7c-0.159,0.254-0.383,0.596-0.672,1.009
	c-0.19,0.012-0.211,0.012-0.254,0.012c-0.17,0-0.266-0.012-0.423-0.031L148.348,21.522z M153.088,19.409
	c-0.099-0.617-0.14-0.947-0.213-1.287c-0.022-0.148-0.022-0.148-0.042-0.234h1.338c-0.084,0.597-0.169,0.998-0.339,1.521H153.088
	L153.088,19.409z M154.395,19.409c0.169-0.586,0.243-0.895,0.352-1.521c0.287,0.012,0.287,0.012,0.489,0.03v-0.584
	c-0.183,0.03-0.363,0.042-0.818,0.042h-0.616v-0.127c0-0.459,0.021-0.69,0.064-0.925h-0.713c0.055,0.234,0.066,0.458,0.066,0.913
	v0.139h-0.733c-0.36,0-0.54-0.012-0.786-0.055v0.597c0.213-0.022,0.213-0.022,0.563-0.03c0.14,0.597,0.193,0.905,0.278,1.521
	c-0.532,0-0.731-0.012-1.063-0.055v0.67c0.319-0.042,0.563-0.053,1.031-0.053h3.04c0.072,1.401,0.211,2.326,0.466,3.284
	c-0.563,0.852-1.232,1.487-2.243,2.127c0.234,0.15,0.353,0.254,0.479,0.457c0.862-0.614,1.34-1.082,1.966-1.944
	c0.375,1.031,0.896,1.723,1.286,1.723c0.383,0,0.606-0.521,0.757-1.745c-0.279-0.169-0.35-0.235-0.532-0.404
	c-0.072,0.894-0.14,1.255-0.253,1.341c-0.084,0-0.098-0.013-0.202-0.171c-0.253-0.372-0.447-0.797-0.628-1.381
	c0.353-0.598,0.587-1.118,0.817-1.765c0.141-0.382,0.184-0.502,0.244-0.647l-0.584-0.288c-0.109,0.604-0.353,1.329-0.683,1.966
	c-0.158-0.754-0.254-1.571-0.297-2.549h0.797c0.532,0,0.775,0.012,1.136,0.065v-0.689c-0.33,0.054-0.595,0.064-1.136,0.064h-0.828
	c-0.011-0.553-0.022-1.286-0.022-2.083c0-0.466,0.015-0.701,0.056-0.989h-0.7c0.03,0.235,0.03,0.373,0.042,0.785
	c0.01,1.523,0.01,1.691,0.043,2.284h-1.131v-0.003H154.395z M147.48,25.913c-0.894-0.905-1.243-1.383-1.615-2.199
	c-0.382-0.851-0.573-1.732-0.573-2.7c0-0.967,0.191-1.849,0.573-2.7c0.375-0.817,0.725-1.298,1.615-2.199h-0.948
	c-0.797,0.913-1.127,1.426-1.479,2.284c-0.35,0.852-0.509,1.692-0.509,2.616c0,0.925,0.158,1.764,0.509,2.615
	c0.352,0.861,0.682,1.371,1.479,2.283H147.48L147.48,25.913z M134.008,19.335c-0.222,0.946-0.36,1.358-0.625,1.913
	c-0.279,0.563-0.702,1.171-1.085,1.583c-0.862-0.423-1.401-0.646-2.7-1.148c0.488-0.755,0.893-1.478,1.286-2.348H134.008
	L134.008,19.335z M136.283,25.181c-1.319-0.914-2.059-1.36-3.349-2.03c0.46-0.521,0.841-1.083,1.118-1.68
	c0.287-0.597,0.437-1.052,0.69-2.138h0.861c0.445,0,0.787,0.022,1.096,0.065v-0.798c-0.322,0.055-0.673,0.073-1.106,0.073h-4.424
	c0.169-0.423,0.254-0.64,0.552-1.497c0.011-0.031,0.106-0.287,0.287-0.756l-0.839-0.158c-0.114,0.689-0.33,1.359-0.767,2.411h-2.061
	c-0.423,0-0.797-0.022-1.105-0.073v0.798c0.32-0.043,0.64-0.065,1.105-0.065h1.776c-0.544,1.147-1.222,2.222-1.988,3.115
	c0.297,0.129,0.423,0.193,0.69,0.341c0.2-0.255,0.244-0.32,0.416-0.563c1.553,0.604,1.638,0.64,2.54,1.083
	c-1.139,0.935-2.392,1.425-4.528,1.752c0.201,0.255,0.243,0.331,0.382,0.682c1.298-0.266,2.095-0.501,2.805-0.817
	c0.773-0.35,1.413-0.754,1.999-1.275c1.297,0.691,2.095,1.202,3.349,2.139L136.283,25.181z M126.021,18.633
	c-0.34-0.713-0.543-1.063-0.978-1.647l-0.503,0.242c0.459,0.647,0.647,0.998,0.926,1.701L126.021,18.633z M120.898,22.768h1.657
	v1.074h-1.657V22.768z M120.907,21.226h1.649v1.021h-1.649V21.226z M123.109,21.683c0-0.508,0.011-0.772,0.031-1.02
	c-0.213,0.031-0.394,0.042-0.732,0.042h-1.36c-0.38,0-0.563-0.011-0.767-0.042c0.043,0.331,0.054,0.563,0.054,1.01v2.55
	c0,0.415-0.021,0.713-0.064,0.989h0.628v-0.839h1.348c0.491,0,0.616,0,0.882,0.022c-0.021-0.201-0.021-0.352-0.021-0.871v-1.84
	L123.109,21.683L123.109,21.683z M119.018,22.172c0.222,0.774,0.32,1.349,0.415,2.38l0.532-0.168
	c-0.18-1.245-0.213-1.403-0.447-2.341L119.018,22.172z M117.051,22.044c-0.074,1.18-0.224,1.999-0.501,2.796l0.52,0.256
	c0.244-0.767,0.404-1.637,0.53-2.955L117.051,22.044z M116.541,21.522c0.222-0.053,0.222-0.053,0.838-0.105
	c0.479-0.044,0.479-0.044,0.691-0.066v3.306c0,0.605-0.022,0.935-0.066,1.221h0.727c-0.044-0.287-0.066-0.596-0.066-1.221v-3.37
	c0.34-0.031,0.34-0.031,0.689-0.084c0.054,0.191,0.074,0.287,0.139,0.552l0.499-0.2c-0.18-0.658-0.379-1.232-0.679-1.922
	l-0.458,0.17c0.18,0.403,0.242,0.562,0.362,0.905c-0.342,0.042-0.342,0.042-1.445,0.127c0.584-0.828,1.137-1.711,1.615-2.594
	c0.19-0.351,0.234-0.423,0.318-0.552l-0.616-0.297c-0.129,0.458-0.309,0.828-0.968,1.933c-0.169-0.265-0.287-0.435-0.542-0.774
	c0.277-0.424,0.563-0.905,0.743-1.255c0.297-0.597,0.297-0.597,0.423-0.786l-0.628-0.297c-0.106,0.466-0.479,1.265-0.882,1.902
	c-0.126-0.17-0.17-0.224-0.351-0.446l-0.373,0.479c0.587,0.657,0.937,1.127,1.299,1.7c-0.159,0.254-0.383,0.596-0.671,1.009
	c-0.19,0.012-0.211,0.012-0.254,0.012c-0.17,0-0.266-0.012-0.424-0.031L116.541,21.522z M121.281,19.409
	c-0.099-0.617-0.141-0.947-0.214-1.287c-0.021-0.148-0.021-0.148-0.041-0.234h1.338c-0.085,0.597-0.17,0.998-0.339,1.521H121.281
	L121.281,19.409z M122.587,19.409c0.17-0.586,0.244-0.895,0.353-1.521c0.287,0.012,0.287,0.012,0.488,0.03v-0.584
	c-0.183,0.03-0.362,0.042-0.817,0.042h-0.617v-0.127c0-0.459,0.022-0.69,0.064-0.925h-0.712c0.054,0.234,0.065,0.458,0.065,0.913
	v0.139h-0.732c-0.36,0-0.541-0.012-0.787-0.055v0.597c0.214-0.022,0.214-0.022,0.565-0.03c0.137,0.597,0.191,0.905,0.275,1.521
	c-0.532,0-0.731-0.012-1.062-0.055v0.67c0.318-0.042,0.563-0.053,1.031-0.053h3.04c0.071,1.401,0.211,2.326,0.465,3.284
	c-0.563,0.852-1.231,1.487-2.242,2.127c0.234,0.15,0.352,0.254,0.479,0.457c0.861-0.614,1.34-1.082,1.965-1.944
	c0.376,1.031,0.896,1.723,1.286,1.723c0.383,0,0.606-0.521,0.758-1.745c-0.279-0.169-0.351-0.235-0.53-0.404
	c-0.074,0.894-0.141,1.255-0.255,1.341c-0.085,0-0.098-0.013-0.202-0.171c-0.254-0.372-0.445-0.797-0.628-1.381
	c0.352-0.598,0.586-1.118,0.817-1.765c0.139-0.382,0.183-0.502,0.243-0.647l-0.584-0.288c-0.109,0.604-0.353,1.329-0.684,1.966
	c-0.157-0.754-0.253-1.571-0.297-2.549h0.798c0.532,0,0.774,0.012,1.137,0.065v-0.689c-0.331,0.054-0.597,0.064-1.137,0.064h-0.828
	c-0.011-0.553-0.022-1.286-0.022-2.083c0-0.466,0.014-0.701,0.055-0.989h-0.699c0.03,0.235,0.03,0.373,0.041,0.785
	c0.011,1.523,0.011,1.691,0.044,2.284h-1.132v-0.003H122.587z"/>
<line fill="none" stroke="#000000" stroke-linejoin="round" stroke-miterlimit="10" x1="61.651" y1="14.97" x2="109.742" y2="14.97"/>
<polyline fill="none" stroke="#000000" stroke-linecap="round" stroke-miterlimit="10" points="103.381,11.259 109.742,14.97 
	103.381,18.681 "/>
<line fill="none" stroke="#000000" stroke-linejoin="round" stroke-miterlimit="10" x1="62.7" y1="26.229" x2="110.792" y2="26.229"/>
<polyline fill="none" stroke="#000000" stroke-linecap="round" stroke-miterlimit="10" points="69.062,29.94 62.7,26.229 
	69.062,22.519 "/>
<g>
	<path fill="#FF5A7A" d="M70.24,0.054c0.499,0.764,0.965,1.26,1.781,1.896c0.921,0.73,1.938,1.313,2.925,1.698
		c-0.211,0.251-0.317,0.432-0.413,0.678c-1.061-0.497-2.09-1.146-2.946-1.842c-0.711-0.585-1.197-1.115-1.696-1.812
		c-0.52,0.722-0.922,1.153-1.589,1.738c-0.934,0.806-1.801,1.377-2.861,1.864c-0.105-0.222-0.275-0.443-0.445-0.603
		c1.091-0.474,1.928-0.994,2.808-1.728c0.73-0.614,1.217-1.155,1.686-1.884h0.752V0.054z M66.658,5.966
		c-0.518,0-0.889,0.022-1.208,0.067V5.268c0.33,0.043,0.678,0.065,1.208,0.065h6.526c0.543,0,0.88-0.022,1.21-0.065v0.766
		c-0.33-0.044-0.689-0.067-1.21-0.067h-3.804c-0.582,1.271-0.783,1.665-1.323,2.501c1.462-0.095,2.563-0.199,4.13-0.391
		c-0.637-0.688-0.825-0.88-1.293-1.315l0.553-0.338c1.06,0.994,1.771,1.782,2.563,2.799l-0.582,0.436
		c-0.416-0.582-0.553-0.764-0.774-1.038C70.771,8.87,69.17,9.04,67.517,9.171c-1.314,0.107-1.525,0.127-1.791,0.192L65.6,8.557
		c0.181,0.021,0.381,0.03,0.541,0.03c0.167,0,0.167,0,1.124-0.066c0.595-0.943,0.932-1.577,1.347-2.552L66.658,5.966L66.658,5.966z
		 M67.337,3.327c0.212,0.031,0.445,0.044,0.837,0.044h3.424c0.415,0,0.656-0.013,0.891-0.044v0.711
		c-0.224-0.03-0.5-0.043-0.891-0.043h-3.434c-0.318,0-0.613,0.013-0.824,0.043V3.327H67.337z"/>
	<path fill="#FF5A7A" d="M77.1,1.314c-0.054,0.329-0.073,0.679-0.073,1.26c0,1.167,0.117,2.619,0.278,3.293
		c0.233,1.083,0.667,1.813,1.072,1.813c0.19,0,0.371-0.181,0.527-0.53c0.243-0.53,0.415-1.09,0.553-1.813
		c0.234,0.277,0.329,0.372,0.623,0.604c-0.518,1.854-1.004,2.563-1.756,2.563c-0.597,0-1.145-0.593-1.505-1.609
		c-0.375-1.008-0.519-2.363-0.572-4.97c-0.013-0.404-0.013-0.436-0.031-0.626L77.1,1.314z M82.22,1.876
		c0.688,0.816,1.126,1.516,1.518,2.415c0.401,0.891,0.604,1.642,0.795,2.828l-0.755,0.307c-0.19-1.968-0.962-3.779-2.202-5.224
		L82.22,1.876z"/>
	<path fill="#FF5A7A" d="M87.629,0.679c-0.156,0.457-0.287,0.977-0.445,1.695c-0.222,1.114-0.317,2.046-0.317,3.317
		c0,0.826,0.021,1.451,0.065,2.012c0.15-0.709,0.348-1.293,0.686-2.063l0.509,0.242c-0.478,1.05-0.859,2.321-0.859,2.916
		c0,0.031,0,0.083,0,0.157L86.502,9.02c-0.022-0.169-0.03-0.222-0.065-0.422C86.237,7.473,86.16,6.711,86.16,5.6
		c0-1.506,0.126-2.629,0.476-4.196c0.109-0.5,0.128-0.604,0.15-0.85L87.629,0.679z M90.333,4.938
		c-0.53,0.582-0.795,1.091-0.795,1.558c0,0.784,0.666,1.167,2.033,1.167c0.965,0,1.866-0.139,2.438-0.372l0.105,0.817
		c-0.137,0.011-0.155,0.022-0.371,0.053c-0.74,0.15-1.451,0.213-2.172,0.213c-1.21,0-1.969-0.255-2.427-0.807
		c-0.211-0.266-0.319-0.586-0.319-0.976c0-0.645,0.265-1.216,0.924-1.97L90.333,4.938z M88.984,1.802
		c0.457,0.114,0.976,0.158,1.801,0.158c1.176,0,2.132-0.096,2.842-0.288l0.053,0.752c-0.022,0-0.265,0.03-0.729,0.097
		c-0.614,0.084-1.464,0.139-2.278,0.139c-0.594,0-1.006-0.033-1.695-0.109L88.984,1.802z"/>
	<path fill="#FF5A7A" d="M96.938,5.925c0-0.456,0.011-0.765,0.03-1.271c-0.381,0.487-0.689,0.782-1.21,1.187
		c-0.126-0.265-0.242-0.435-0.412-0.604c0.825-0.561,1.503-1.228,2.142-2.088c0.243-0.331,0.401-0.626,0.508-0.91l0.656,0.372
		c-0.126,0.158-0.158,0.21-0.317,0.457c-0.224,0.36-0.414,0.604-0.71,0.953v4.279c0,0.571,0.021,0.995,0.072,1.294H96.86
		c0.055-0.295,0.074-0.729,0.074-1.294V5.927L96.938,5.925L96.938,5.925z M98.4,0.404c-0.071,0.073-0.096,0.106-0.191,0.233
		c-0.638,0.867-1.399,1.611-2.353,2.301c-0.159-0.236-0.277-0.361-0.479-0.52c0.597-0.38,0.976-0.688,1.397-1.123
		c0.53-0.53,0.796-0.903,0.965-1.296L98.4,0.404z M99.938,3.922c-0.497,0-0.922,0.022-1.175,0.063v-0.74
		c0.253,0.044,0.669,0.065,1.175,0.065h3.721c0.54,0,0.923-0.021,1.168-0.065v0.74c-0.277-0.041-0.669-0.063-1.155-0.063h-0.604
		v4.641c0,0.679-0.252,0.858-1.187,0.858c-0.336,0-0.836-0.021-1.293-0.053c-0.029-0.295-0.072-0.488-0.168-0.729
		c0.601,0.084,1.059,0.125,1.494,0.125c0.36,0,0.445-0.04,0.445-0.253V3.924L99.938,3.922L99.938,3.922z M99.195,0.584
		c0.287,0.041,0.627,0.064,1.102,0.064h2.969c0.476,0,0.793-0.022,1.09-0.064v0.74c-0.319-0.043-0.669-0.064-1.09-0.064h-2.969
		c-0.421,0-0.783,0.021-1.102,0.064V0.584z"/>
	<path fill="#FF5A7A" d="M111.619,0.826c-0.113,0.096-0.199,0.17-1.303,1.229c-0.53,0.498-1.102,0.976-2.438,2.003
		c-0.392,0.296-0.465,0.381-0.465,0.53c0,0.192,0.085,0.266,0.944,0.932c1.534,1.176,1.834,1.422,3.39,2.894
		c0.158,0.158,0.181,0.17,0.295,0.266l-0.667,0.656c-0.253-0.358-0.669-0.805-1.366-1.452c-0.711-0.656-1.134-1.006-2.681-2.213
		c-0.596-0.466-0.763-0.7-0.763-1.061c0-0.255,0.106-0.498,0.306-0.711c0.127-0.126,0.127-0.126,0.902-0.723
		c1.41-1.082,2.733-2.32,3.106-2.902L111.619,0.826z"/>
</g>
<g>
	<path fill="#FF5A7A" d="M80.569,37.125c0-0.434,0-0.74,0.03-1.218c-0.316,0.445-0.561,0.688-1.038,1.082
		c-0.18-0.336-0.18-0.348-0.39-0.594c1.058-0.772,2.098-2.004,2.404-2.894l0.628,0.372c-0.085,0.115-0.129,0.17-0.298,0.436
		c-0.191,0.316-0.191,0.316-0.667,0.95v4.367c0,0.56,0.011,0.962,0.054,1.238h-0.784c0.03-0.296,0.065-0.711,0.065-1.238v-2.501
		L80.569,37.125L80.569,37.125z M82.17,31.596c-0.074,0.084-0.074,0.084-0.414,0.499c-0.595,0.71-1.271,1.325-2.047,1.844
		c-0.115-0.212-0.254-0.382-0.422-0.542c1.061-0.644,1.907-1.451,2.288-2.205L82.17,31.596z M83.591,33.111
		c-0.404,0-0.68,0.011-0.986,0.052v-0.7c0.266,0.044,0.552,0.066,0.995,0.066h1.41v-0.423c0-0.317-0.021-0.572-0.065-0.859h0.783
		c-0.042,0.276-0.053,0.519-0.053,0.859v0.423h1.578c0.445,0,0.729-0.022,1.005-0.066v0.7c-0.307-0.041-0.582-0.052-0.994-0.052
		h-1.589v1.396h1.982c0.445,0,0.781-0.022,1.068-0.066v0.711c-0.307-0.042-0.613-0.065-1.059-0.065h-0.435v1.252h0.435
		c0.456,0,0.773-0.022,1.059-0.064v0.723c-0.287-0.044-0.624-0.066-1.059-0.066h-0.435v2.998c0,0.372-0.115,0.614-0.348,0.699
		c-0.192,0.064-0.53,0.107-0.944,0.107c-0.255,0-0.604-0.022-0.976-0.044c-0.033-0.294-0.074-0.464-0.17-0.722
		c0.415,0.065,0.922,0.128,1.125,0.128c0.571,0,0.637-0.021,0.637-0.254V36.93h-3.391c-0.423,0-0.739,0.022-1.038,0.067v-0.723
		c0.287,0.041,0.573,0.064,1.029,0.064h3.4v-1.253h-3.326c-0.424,0-0.729,0.022-1.019,0.066v-0.711
		c0.275,0.044,0.573,0.065,1.019,0.065h1.779V33.11L83.591,33.111L83.591,33.111z M84.564,39.521
		c-0.561-0.817-0.922-1.228-1.609-1.833l0.508-0.392c0.678,0.615,1.037,1.005,1.662,1.78L84.564,39.521z"/>
	<path fill="#FF5A7A" d="M89.9,33.988c0.316-0.022,0.316-0.022,2.203-0.445c1.176-0.266,2.192-0.392,3.072-0.392
		c1.938,0,3.168,1.028,3.168,2.648c0,1.325-0.784,2.438-2.205,3.127c-0.974,0.464-1.864,0.667-3.507,0.806
		c-0.085-0.371-0.14-0.499-0.331-0.784c1.187-0.041,2.143-0.191,2.944-0.486c1.451-0.53,2.268-1.484,2.268-2.673
		s-0.879-1.907-2.319-1.907c-1.103,0-2.492,0.243-4.324,0.752c-0.445,0.127-0.582,0.168-0.762,0.253L89.9,33.988z"/>
</g>
</svg>
