<?xml version="1.0" encoding="utf-8"?>
<!-- Generator: Adobe Illustrator 16.0.0, SVG Export Plug-In . SVG Version: 6.00 Build 0)  -->
<!DOCTYPE svg PUBLIC "-//W3C//DTD SVG 1.1//EN" "http://www.w3.org/Graphics/SVG/1.1/DTD/svg11.dtd">
<svg version="1.1" xmlns="http://www.w3.org/2000/svg" xmlns:xlink="http://www.w3.org/1999/xlink" x="0px" y="0px"
	 width="154.339px" height="90.761px" viewBox="0 0 154.339 90.761" enable-background="new 0 0 154.339 90.761"
	 xml:space="preserve">
<g id="レイヤー_2">
</g>
<g id="レイヤー_1">
	<path fill="none" stroke="#000000" stroke-width="0.6" stroke-linecap="round" stroke-linejoin="bevel" d="M131.264,23.308
		l2.304-0.032l-0.896-1.37v-0.651h1.144l0.824,0.978l1.042-1.076v-1.532h1.401v0.718h1.352v-3.331h1.325v1.859h1.474v-3.163
		l-2.22-1.63V10.23l3.421-5.608l2.1-0.961l1.005-0.979V2.031h1.371l1.201-1.731"/>
	<path fill="none" stroke="#000000" stroke-width="0.6" stroke-linecap="round" stroke-linejoin="bevel" d="M95.063,47.501h-1.141
		v-1.073h-1.597v-1.402"/>
	<path fill="none" stroke="#000000" stroke-width="0.6" stroke-linecap="round" stroke-linejoin="bevel" d="M153.85,53.664v-1.565
		h-1.781l-2.494,0.924l-5.252,2.638l0.004,0.844l-1.371,1.142l0.983,0.651v1.956l-2.767,1.142l-3.759,7.825l-3.023,3.75h-1.369
		v-0.979l-1.748,0.028"/>
	<path fill="none" stroke="#000000" stroke-width="0.6" stroke-linecap="round" stroke-linejoin="bevel" d="M153.542,34.112
		l-1.37,2.935l-3.262,4.565v1.239h0.729v1.532l4.4,3.001"/>
	<path id="path21307" fill="none" stroke="#000000" stroke-width="0.6" stroke-linejoin="bevel" d="M142.656,24.274l1.895,2.772
		v1.304l-2.125,0.979l-2.371,1.957v0.913h-1.69l-1.644,3.587v-2.772l0.821-1.565v-1.304l2.283-2.511l0.071-2.771l2.76-1.793V24.274"
		/>
	<g id="西回り航路_13_">
		<path fill="none" d="M93.922,47.501"/>
	</g>
	<g id="西回り航路_2_">
		<g>
			<path fill="none" stroke="#0A5EFF" stroke-linejoin="bevel" d="M144.968,0.3c-0.109,1.005-0.085,1.96,0.111,2.831
				c0,0-9.283,3.465-6.125,13.88c0,0-6.74,0.726-7.937,5.449c0,0-4.06-4.893-5.674-4.813c0,0,0.029-5.869-3.36-1.55
				c0,0-6.067-0.059-13.306,0.393"/>
			<g>
				<path fill="#0A5EFF" d="M116.027,10.867c0.176,0.251,0.113,0.598-0.138,0.773l-6.957,4.868l7.353,4.246
					c0.267,0.153,0.358,0.493,0.205,0.758c-0.153,0.265-0.496,0.355-0.76,0.204l-8.107-4.682c-0.164-0.095-0.27-0.267-0.277-0.457
					s0.082-0.37,0.236-0.479l7.671-5.368c0.091-0.063,0.192-0.095,0.294-0.1C115.73,10.623,115.914,10.706,116.027,10.867z"/>
			</g>
		</g>
	</g>
	<g>
		<path id="path11358_2_" fill="none" stroke="#000000" stroke-width="0.6" stroke-linecap="round" stroke-linejoin="bevel" d="
			M89.263,69.245l-6.194,3.979l-1.891,5.052l-2.674,3.097h-1.401v3.423l-1.207,0.911v0.814l1.305,0.653v1.304h-1.239l-0.979-1.467
			h-3.326l-2.053-0.815v-1.563h1.304v-1.208l-0.019-0.044l-3.336,0.002l-2.379-3.423l1.467-1.141l-0.881-2.542h1.532v-1.043
			l-1.142-1.141l1.239-0.75h-2.281v-2.771l-0.979-1.044l-3.261,2.022l-0.75,0.912h-2.38l1.63-2.053h1.891l10.434-7.497V59.75h1.044
			l0.913-2.705l3.325-2.282l3.098,4.4h2.544l5.378-0.651l2.566-2.099v-2.379l-0.749-2.118l1.956,0.912l3.26-2.444v-0.978
			l1.076-0.978l2.674,1.793h1.305l1.401-1.401l0.326,1.534h1.63l0.652,0.521v1.208l3.359,1.624h2.609l0.911,1.141l-1.237,1.304
			v2.837h0.978l0.913,1.563v0.882l-0.913,0.978l1.631,0.978l-1.859,0.815c-2.977,1.804-6.582,5.535-6.582,5.535
			c-1.472,1.429-2.315,3.574-2.575,6.942l-6.456-6.616L89.263,69.245"/>
		<path id="path1637_4_" fill="none" stroke="#000000" stroke-width="0.6" stroke-linecap="round" stroke-linejoin="bevel" d="
			M26.424,90.461l1.956-1.563v-0.815h-3.097v-0.814l2.673-1.63V83.52l-1.369-0.815V81.66l-1.891-1.626"/>
		<path id="path1637_1_" fill="none" stroke="#000000" stroke-width="0.6" stroke-linecap="round" stroke-linejoin="bevel" d="
			M24.696,80.033l0.116,0.005L24.663,80.1v-3.096l-1.631-2.151l0.044-0.097l-1.63-1.435l-0.881,1.208l-1.467,0.748v1.63l1.207,2.281
			v1.045h-0.718l-1.728,1.142l0.652,0.815h1.075l0.815-0.652h1.793l1.467,2.119v1.563l-1.891,1.956h-1.141v0.815h-1.37l-1.401-0.911
			V86.36l1.793-1.236V83.33h-1.955v0.652h-2.936l-3.097,3.682h-1.305l1.793-3.422l-1.043-1.957H9.872l-0.815-0.91v-2.12
			l-0.814-0.978l1.142-0.881v-0.912h1.63v1.075h0.913v3.586h2.444v1.045h1.369v-1.208l-0.879-0.912v-2.608l-0.652-0.719L11.308,75.7
			l-0.033-0.032v-1.792H9.872l-2.674-1.793l0.979-1.141v-1.956l-1.63,0.978v0.978l-1.728,1.563H3.286l2.347-4.238h1.565V67.03
			l0.653,0.748l1.043,0.651h1.729l0.881,0.979h1.63v-1.794h-1.696v-1.14h1.467l1.043-2.052h1.24l1.369,1.4v1.304h1.238v-0.979
			l1.957-0.879l-0.061-1.263l1.205-1.304h0.815l0.815,1.238h1.728l0.815-0.815v-1.141l1.467-1.304v-1.4l1.305-1.696h2.607l1.142-1.4
			h2.283l1.304,1.726l3.02-1.55l-0.653,1.956l0.653,3.912l0.978,1.727c2.238,0.326,4.14,1.108,5.706,2.348l1.037-0.054l1.631-2.282
			l1.37-0.718h1.238l1.957,2.445v3.749l-2.283,2.022h-1.956l-0.814,1.075l1.205,1.533h3.522v0.749h3.259l-1.727,2.119l1.63,1.141
			v0.881h2.054v0.815h-1.564v2.216h2.446l-2.186,3l-1.792,1.074l0.018,1.096l-3.031,2.673h-1.044"/>
		<path id="path9579" fill="none" stroke="#000000" stroke-width="0.6" stroke-linecap="round" stroke-linejoin="bevel" d="
			M12.003,56.559l-1.469,0.978v1.956l1.306,1.239l1.467-1.304v-1.466L12.003,56.559"/>
		<path id="path10467" fill="none" stroke="#000000" stroke-width="0.6" stroke-linecap="round" stroke-linejoin="bevel" d="
			M7.061,36.71L5.17,37.621v1.86l0.261,1.304H4.191v2.608l-0.292,0.489l2.248,1.467v-3.327l1.142-1.303h0.979v-2.282l0.813-0.911
			V36.71H7.061"/>
		<path id="path10469_1_" fill="none" stroke="#000000" stroke-width="0.6" stroke-linecap="round" stroke-linejoin="bevel" d="
			M2.887,50.565l2.707-4.468L2.562,44.86"/>
		<path id="path13134" fill="none" stroke="#000000" stroke-width="0.6" stroke-linecap="round" stroke-linejoin="bevel" d="
			M101.745,47.121l-0.163-1.074h1.141l0.978-0.979h1.957v2.868h-2.217l-0.718-0.815H101.745"/>
		<path id="path14913" fill="none" stroke="#000000" stroke-width="0.6" stroke-linecap="round" stroke-linejoin="bevel" d="
			M118.006,47.255l1.006-2.011l-0.972-0.597l-4.722,4.598l-0.015,1.141l-1.316,0.865l-0.019,1.4l0.894,1.478l2.021,0.027
			l0.828-0.967l1.141,0.015l0.665-0.97l-1.289-1.09l0.031-2.349L118.006,47.255"/>
		<path id="path10569" fill="none" stroke="#000000" stroke-width="0.6" stroke-linecap="round" stroke-linejoin="bevel" d="
			M87.989,4.445l-1.563,0.978l-1.044-0.229l-1.565-0.978V2.489l1.631-1.956l2.542,2.053V4.445"/>
		<path id="path10571" fill="none" stroke="#000000" stroke-width="0.6" stroke-linecap="round" stroke-linejoin="bevel" d="
			M81.371,6.009v2.838l1.793-1.696L81.371,6.009 M80.653,5.847l-0.652,0.229v1.5l0.652,0.619V5.847 M79.351,6.303v2.119
			l-0.653-0.619V6.499L79.351,6.303 M80.001,9.595h1.468l-0.978-0.748l-0.49,0.488V9.595"/>
		<path fill="none" stroke="#000000" stroke-width="0.6" stroke-linecap="round" stroke-linejoin="bevel" d="M131.272,72.019
			l-5.398-2.482v-1.89h-0.979l0.098-0.718h1.044v-0.815l-1.859-0.651l-4.987-3.846v-1.957h0.814l1.075-1.206l-1.142-0.815v-0.912
			l1.697-2.119h-0.979v-1.304l-1.208-1.007l5.444-3.26l2.282-2.51l-0.053-2.77l-1.534-1.63l-2.187,0.135l-3.605,2.1l-6.377-4.336
			h-1.533v0.652h-1.957v-0.978h-2.216l-0.978,0.978l-1.76,0.039l-3.521,3.424h-2.021l-2.218,2.675l-2.183,0.748h-1.142v-1.074
			h-1.599v-1.401l-1.646,1.31h-2.446l-2.857,2.226H84.04v-1.207h-0.716l-0.653,1.043h-2.607v0.978l-4.594-0.021l-2.771,2.542H69.6
			l-1.532-2.052v-0.882L66.34,47.95l-3.162,2.379l-0.816,2.867l-0.084,4.079l-2.282,2.608l-3.913-2.838l-1.141,0.978h-1.075v-2.867
			h-2.608l-2.022,1.074l-1.329-1.182v1.369h-1.305v-1.043h-1.043l-1.075,1.369h-2.511l-1.793-1.858h-1.663l-1.858,1.695v-2.999
			l-0.881-1.402l1.371-1.303v-1.533h-0.882v-2.542h2.022v-1.63l1.305,0.651h2.217v-0.716h1.369v1.206h1.891l6.097-6.031h1.891
			l1.537-0.057l6.912-6.521l3.587-2.509h0.978l0.751-0.75v-0.716l1.532-2.12l1.991-0.999l2.51-2.053v-1.074l-0.88-1.141h2.446
			l1.793-1.63h2.836l2.771-2.349l1.142,1.467h3.032l-1.304,0.978h-2.447l-0.813,0.719h-2.772l-1.239,1.563h1.468l1.565-0.911h1.63
			l0.979,0.651l1.958-0.004l-0.847-1.475h1.075l1.794,1.37h0.881l1.074-1.859h2.283l2.023,0.651l4.9-0.026l1.239-0.814l1.631,0.978
			l0.814-0.653h2.119l2.608-1.955h1.305l1.995-0.937l0.977,0.652h7.07l2.511-2.349h1.468v-0.585h2.608l0.75,1.888l-2.445,3.001
			l2.282,2.119l2.771-2.771l0.984,1.485l0.815,0.978h1.533l0.022,0.782"/>
		<g>
			<g id="西回り航路_5_">
				<g>
					<path fill="none" stroke="#0A5EFF" stroke-linejoin="bevel" d="M44.881,42.953c-0.77,0.566-1.538,1.262-2.254,2.116
						c0,0-7.01-5.019-8.151,1.66s0.543,12.709,3.857,8.798c0,0,2.554-1.032,3.098,3.097c0,0-0.179,2.435,8.368,1.25
						c8.549-1.185,7.391,3.314,7.282,4.02c-0.109,0.708,0.658,0.327,0.658,0.327s10.426-3.749,9.394-7.117s-3.207-8.384-0.326-8.674
						c0,0,1.161,6.212,6.396,3.069l6.861-2.06c0,0,9.557,1.896,13.828-1.875c0,0,4.866,1.682,10.763-6.533
						c0,0,8.383,4.24,13.552,2.251c0,0,1.961,2.636,4.271-0.301l3.625-0.903"/>
					<g>
						<path fill="#0A5EFF" d="M120.027,49.08c-0.223-0.211-0.23-0.563-0.02-0.785l5.848-6.157l-8.052-2.696
							c-0.291-0.097-0.449-0.412-0.352-0.702s0.415-0.446,0.704-0.351l8.878,2.973c0.179,0.06,0.316,0.208,0.362,0.392
							s-0.006,0.379-0.136,0.517l-6.448,6.789c-0.076,0.08-0.169,0.132-0.268,0.156C120.367,49.26,120.17,49.215,120.027,49.08z"/>
					</g>
				</g>
			</g>
			<g id="西回り航路_4_">
				<g>
					<path fill="none" stroke="#0A5EFF" stroke-linejoin="bevel" d="M107.308,16.645c-8.604,0.602-18.43,1.95-21.74,4.953
						c0,0,3.489-5.938-5.501-4.623c-10.025,1.466-8.091,5.369-8.091,5.369s-5.438,3.151-5.153,8.103c0,0-6.167-0.34-7.588,5.403
						c0,0-2.942-2.168-7.125,1.668c-2.313,2.119-1.164,2.984-1.164,2.984s-2.337,0.174-4.949,1.716"/>
					<g>
						<path fill="#0A5EFF" d="M49.429,33.611c0.278,0.126,0.402,0.456,0.276,0.735l-3.495,7.738l8.49-0.105
							c0.307-0.004,0.56,0.242,0.563,0.548c0.004,0.306-0.244,0.558-0.549,0.563l-9.361,0.115c-0.189,0.002-0.368-0.092-0.472-0.251
							s-0.119-0.36-0.041-0.533l3.854-8.533c0.046-0.1,0.116-0.18,0.201-0.235C49.048,33.553,49.249,33.53,49.429,33.611z"/>
					</g>
				</g>
			</g>
			<g id="西回り航路_1_">
				<g>
					<path fill="none" stroke="#0A5EFF" stroke-linejoin="bevel" d="M130.984,22.525c0,0-4.059-4.893-5.685-4.813
						c0,0,0.043-5.869-3.358-1.55c0,0-6.056-0.06-13.302,0.392"/>
					<g>
						<path fill="#0A5EFF" d="M115.989,10.933c0.176,0.251,0.114,0.597-0.138,0.773l-6.957,4.868l7.353,4.246
							c0.266,0.154,0.357,0.494,0.204,0.758c-0.153,0.265-0.495,0.355-0.759,0.204l-8.107-4.683
							c-0.164-0.095-0.27-0.267-0.277-0.457s0.082-0.37,0.236-0.479l7.671-5.368c0.091-0.063,0.192-0.095,0.294-0.1
							C115.692,10.689,115.876,10.772,115.989,10.933z"/>
					</g>
				</g>
			</g>
		</g>
	</g>
	<circle cx="37.468" cy="56.181" r="2.458"/>
	<g>
		<path fill="#231815" d="M18.519,45.587c-0.374,0.386,0.045,0.465,0.372,0.287c0.062,0.099,0.423,0.214,0.423,0.214l-0.396,5.062
			l14.661,3.344l5.498-6.392c0.583,0.47,0.742,0.22,0.967-0.099c0.224-0.32-0.249-0.613-0.249-0.613s0.231-0.57-0.367-1.043
			c-0.601-0.474-1.244,0.138-1.244,0.138s-0.333-0.313-0.592-0.136c-0.259,0.178-0.354,0.526-0.188,0.816
			c-0.26,0.261-1.621,0.691-2.527,0.905c1.443-1.91,2.785-4.248,2.948-6.955c0.163-2.707-0.937-3.867-0.937-3.867
			s-0.342,0.242-1.238,0.037s-1.341-0.912-1.341-0.912s-0.101,0.297-1.143,0.06c-1.038-0.237-1.292-0.901-1.292-0.901
			s-0.287,0.221-1.239-0.03c-0.953-0.251-1.197-0.879-1.197-0.879s-0.416,0.275-1.222,0.041c-0.806-0.234-1.311-0.973-1.311-0.973
			s-0.29,0.237-1.103,0.035c-0.813-0.202-0.837-0.612-0.997-0.497c-0.162,0.115-0.013,0.2,0.25,1.118
			c0.261,0.918,0.389,1.839-0.283,4.784c-0.672,2.945-3.514,5.294-3.762,5.491c-0.246,0.196,0.09,0.273,0.09,0.273
			s0.189-0.091,0.838,0.089c0.649,0.182,1.094,0.89,1.094,0.89s0.475-0.229,1.206-0.045c0.732,0.184,1.234,0.938,1.234,0.938
			s0.466-0.197,1.339,0.035c0.873,0.233,1.071,0.766,1.149,0.869c0.909-0.298,1.979,0.182,2.27,0.602
			c-3.701-0.457-6.121-1.514-7.671-2.17c-1.551-0.656-2.607-1.268-2.607-1.268s-0.086,0.082-0.238,0.383
			c-0.116-0.38-0.395-0.191-0.395-0.191s-0.364-0.319-0.608-0.139C18.478,45.063,18.485,45.142,18.519,45.587z M35.636,48.185
			c0.416-0.107,1.248-0.436,1.248-0.436c-0.379,0.558-1.35,0.88-1.35,0.88S35.534,48.629,35.636,48.185z M33.421,49.31
			c0.707-0.496,1.052-0.847,1.158-0.923c0.42-0.069,0.807-0.157,0.807-0.157l-0.09,0.447C35.296,48.676,34.141,49.258,33.421,49.31z
			 M30.443,48.579c0,0,0.798-0.121,1.207-0.028c0.406,0.093,0.775,0.253,1.053,0.809c0,0-1.302,0.222-2.416-0.096
			C30.435,48.615,30.443,48.579,30.443,48.579z M27.452,48.074c1.194,0.411,2.626,0.447,2.626,0.447s-0.04,0.231-0.145,0.688
			c-1.506-0.205-2.604-0.543-2.604-0.543S27.328,48.615,27.452,48.074z M24.877,47.348c0.405,0.219,2.278,0.645,2.278,0.645
			s-0.047,0.254-0.119,0.578c-0.542-0.061-2.287-0.658-2.287-0.658S24.749,47.912,24.877,47.348z M22.293,46.304
			c0.498,0.309,2.313,0.957,2.313,0.957s-0.015,0.123-0.112,0.556c-1.02-0.347-2.399-1.053-2.399-1.053S22.088,46.762,22.293,46.304
			z M19.914,45.635c0.11-0.429,0.163-0.441,0.163-0.441s1.157,0.693,1.946,1c-0.153,0.433-0.226,0.427-0.226,0.427
			S20.443,46.084,19.914,45.635z"/>
		<path fill="#231815" d="M38.692,37.306c0.056-0.24,0.042-0.327-0.134-0.368c-0.177-0.04-0.377-0.12-0.377-0.12
			s-4.027-3.242-4.8-3.839c0.209-0.323,0.532-1.276-0.437-1.531s-1.188,0.908-1.188,0.908s-4.878-0.102-6.057-0.101
			c-0.597-0.187-0.67-0.237-0.807,0.069c-0.138,0.305-0.081,0.352,0.181,0.462c0.261,0.11,6.58,2.376,6.58,2.376
			s6.149,2.277,6.546,2.385C38.597,37.654,38.639,37.546,38.692,37.306z M32.082,32.997L31.65,34.37l-5.688-2.004
			c0,0,4.372,0.075,5.795,0.113C31.801,32.724,32.082,32.997,32.082,32.997z M37.605,36.536l-5.38-1.856l0.452-1.447
			c0,0,0.257,0.082,0.611-0.14C34.126,33.705,37.605,36.536,37.605,36.536z"/>
	</g>
	<g>
		<path fill="#231815" d="M74.34,47.351c-0.272,0.462,0.153,0.441,0.429,0.191c0.083,0.082,0.462,0.109,0.462,0.109l0.804,5.014
			l15.037-0.196l3.841-7.505c0.678,0.32,0.773,0.039,0.917-0.324c0.143-0.363-0.386-0.537-0.386-0.537s0.091-0.608-0.603-0.928
			c-0.695-0.319-1.177,0.426-1.177,0.426s-0.397-0.226-0.607,0.007c-0.21,0.234-0.221,0.595,0.01,0.838
			c-0.191,0.315-1.413,1.053-2.244,1.474c0.954-2.196,1.709-4.783,1.231-7.453c-0.479-2.669-1.819-3.539-1.819-3.539
			s-0.275,0.315-1.195,0.327c-0.919,0.012-1.518-0.571-1.518-0.571s-0.027,0.313-1.097,0.327c-1.064,0.014-1.467-0.572-1.467-0.572
			s-0.228,0.282-1.212,0.262c-0.985-0.021-1.37-0.573-1.37-0.573s-0.34,0.366-1.178,0.327c-0.839-0.038-1.503-0.637-1.503-0.637
			s-0.226,0.299-1.063,0.293s-0.957-0.398-1.086-0.249c-0.13,0.15,0.035,0.197,0.506,1.028c0.47,0.831,0.811,1.696,0.85,4.716
			c0.039,3.021-2.171,5.972-2.366,6.221c-0.192,0.249,0.152,0.245,0.152,0.245s0.162-0.133,0.835-0.11
			c0.674,0.024,1.272,0.607,1.272,0.607s0.407-0.333,1.161-0.327c0.756,0.006,1.421,0.622,1.421,0.622s0.406-0.301,1.31-0.28
			c0.903,0.021,1.222,0.493,1.321,0.574c0.813-0.503,1.967-0.289,2.348,0.052c-3.705,0.426-6.306-0.032-7.967-0.306
			c-1.661-0.273-2.832-0.62-2.832-0.62s-0.064,0.1-0.142,0.429c-0.202-0.342-0.428-0.093-0.428-0.093s-0.43-0.225-0.624,0.008
			C74.177,46.851,74.203,46.926,74.34,47.351z M91.588,45.852c0.379-0.202,1.11-0.717,1.11-0.717
			c-0.236,0.632-1.104,1.173-1.104,1.173S91.594,46.308,91.588,45.852z M89.699,47.466c0.571-0.648,0.823-1.071,0.909-1.17
			c0.392-0.166,0.747-0.342,0.747-0.342l0.018,0.456C91.373,46.41,90.387,47.248,89.699,47.466z M86.634,47.456
			c0,0,0.747-0.305,1.167-0.311c0.416-0.005,0.813,0.064,1.213,0.539c0,0-1.213,0.521-2.371,0.475
			C86.634,47.493,86.634,47.456,86.634,47.456z M83.607,47.668c1.258,0.119,2.657-0.183,2.657-0.183s0.016,0.233,0.021,0.702
			c-1.512,0.155-2.658,0.083-2.658,0.083S83.614,48.223,83.607,47.668z M80.934,47.568c0.445,0.117,2.366,0.091,2.366,0.091
			s0.015,0.258,0.021,0.589c-0.541,0.068-2.378-0.102-2.378-0.102S80.942,48.146,80.934,47.568z M78.177,47.161
			c0.557,0.184,2.473,0.386,2.473,0.386s0.015,0.123,0.021,0.567c-1.072-0.098-2.579-0.459-2.579-0.459S78.085,47.654,78.177,47.161
			z M75.707,47.069c0.007-0.443,0.055-0.467,0.055-0.467s1.288,0.402,2.127,0.514c-0.047,0.457-0.118,0.469-0.118,0.469
			S76.327,47.382,75.707,47.069z"/>
		<path fill="#231815" d="M92.002,34.56c-0.003-0.247-0.036-0.328-0.217-0.326c-0.181,0.003-0.395-0.028-0.395-0.028
			s-4.676-2.204-5.567-2.603c0.127-0.363,0.218-1.365-0.784-1.385s-0.941,1.162-0.941,1.162s-4.766,1.047-5.911,1.325
			c-0.624-0.042-0.707-0.073-0.768,0.257c-0.063,0.328,0.004,0.36,0.284,0.406c0.279,0.045,6.954,0.763,6.954,0.763
			s6.513,0.768,6.923,0.78C91.99,34.92,92.006,34.806,92.002,34.56z M84.563,31.925l-0.097,1.436l-6-0.611
			c0,0,4.268-0.955,5.659-1.252C84.227,31.727,84.563,31.925,84.563,31.925z M90.765,34.067l-5.666-0.539l0.1-1.513
			c0,0,0.27,0.02,0.562-0.28C86.717,32.133,90.765,34.067,90.765,34.067z"/>
	</g>
	<g>
		<path d="M26.47,67.324c-0.384,0-0.655,0.016-0.936,0.048v-0.591c0.264,0.032,0.536,0.048,0.936,0.048h5.181
			c0.385,0,0.656-0.016,0.928-0.048v0.591c-0.279-0.032-0.56-0.048-0.928-0.048h-2.51v0.912c1.575,0.792,1.839,0.943,2.838,1.639
			l-0.312,0.496c-0.552-0.432-0.936-0.688-1.695-1.12c-0.168-0.104-0.168-0.104-0.831-0.439v3.766c0,0.432,0.016,0.688,0.056,0.944
			h-0.664c0.04-0.256,0.057-0.52,0.057-0.944v-5.253H26.47z"/>
		<path d="M34.342,72.666c0,0.456,0.016,0.695,0.048,0.896h-0.592c0.032-0.216,0.048-0.464,0.048-0.896v-5.237
			c0-0.392-0.008-0.624-0.031-0.879c0.224,0.024,0.432,0.032,0.831,0.032h1.199c0.4,0,0.592-0.008,0.815-0.032
			c-0.016,0.224-0.023,0.464-0.023,0.759v0.872c0,0.312,0.008,0.536,0.023,0.736c-0.224-0.016-0.472-0.024-0.808-0.024h-1.511
			V72.666z M34.342,67.54h1.839v-0.583h-1.839V67.54z M34.342,68.516h1.839v-0.607h-1.839V68.516z M37.324,71.41
			c0.384,0.543,0.943,0.896,1.775,1.119c-0.112,0.16-0.168,0.264-0.24,0.448c0.288,0.04,0.487,0.056,0.695,0.056
			c0.216,0,0.28-0.048,0.28-0.232v-3.91H38.18c-0.344,0-0.6,0.008-0.815,0.024c0.016-0.208,0.023-0.448,0.023-0.736v-0.872
			c0-0.28-0.008-0.52-0.023-0.759c0.224,0.024,0.416,0.032,0.815,0.032h1.352c0.407,0,0.615-0.008,0.839-0.032
			c-0.031,0.304-0.04,0.527-0.04,0.879v5.397c0,0.544-0.136,0.664-0.775,0.664c-0.224,0-0.487-0.016-0.751-0.032
			c-0.024-0.232-0.048-0.328-0.12-0.504c0.088,0.016,0.096,0.016,0.176,0.024c-0.84-0.296-1.415-0.719-1.839-1.335
			c-0.304,0.768-0.8,1.175-1.951,1.591c-0.08-0.176-0.16-0.288-0.296-0.416c0.68-0.192,1.096-0.392,1.415-0.68
			c0.208-0.192,0.344-0.408,0.448-0.728h-1.008c-0.328,0-0.512,0.008-0.728,0.04v-0.472c0.184,0.032,0.376,0.04,0.712,0.04h1.119
			c0.032-0.24,0.04-0.335,0.048-0.711h-1.016c-0.296,0-0.503,0.008-0.68,0.032v-0.456c0.185,0.032,0.353,0.04,0.68,0.04h0.408
			c-0.152-0.256-0.248-0.392-0.487-0.672l0.407-0.167c0.248,0.32,0.399,0.551,0.56,0.839h0.815c0.232-0.328,0.328-0.504,0.48-0.848
			l0.447,0.136c-0.151,0.28-0.271,0.463-0.447,0.711h0.455c0.32,0,0.488-0.008,0.68-0.04v0.456c-0.176-0.024-0.392-0.032-0.68-0.032
			h-1.159c-0.016,0.352-0.023,0.479-0.063,0.711h1.358c0.344,0,0.504-0.008,0.712-0.04v0.472c-0.2-0.032-0.384-0.04-0.72-0.04
			H37.324z M37.852,67.54h1.983v-0.583h-1.983V67.54z M37.852,68.516h1.983v-0.607h-1.983V68.516z"/>
	</g>
	<g>
		<path d="M130.504,55.482h2.291c0.329,0,0.546-0.014,0.784-0.042v0.532c-0.267-0.035-0.483-0.049-0.784-0.049h-4.665
			c-0.301,0-0.561,0.014-0.826,0.049V55.44c0.23,0.028,0.476,0.042,0.826,0.042h1.877v-4.728c0-0.266-0.014-0.483-0.049-0.729h0.596
			c-0.035,0.238-0.05,0.462-0.05,0.729v1.436h1.772c0.301,0,0.525-0.014,0.729-0.042v0.54c-0.218-0.028-0.428-0.042-0.729-0.042
			h-1.772V55.482z"/>
		<path d="M137.112,50.572c0-0.245-0.021-0.434-0.049-0.616h0.56c-0.027,0.147-0.042,0.343-0.042,0.616v0.525h2.144
			c0.357,0,0.588-0.014,0.806-0.049v0.525c-0.196-0.035-0.386-0.042-0.792-0.042h-2.654c-0.028,0.448-0.042,0.624-0.098,1.001h1.912
			c0.371,0,0.546-0.007,0.721-0.035c-0.014,0.14-0.021,0.217-0.035,0.491c-0.027,0.833-0.146,1.912-0.266,2.388
			c-0.147,0.602-0.315,0.75-0.876,0.75c-0.224,0-0.595-0.021-0.974-0.063c-0.021-0.224-0.042-0.315-0.111-0.497
			c0.406,0.077,0.749,0.112,1.058,0.112c0.301,0,0.371-0.084,0.476-0.603c0.119-0.588,0.176-1.19,0.218-2.122h-2.199
			c-0.154,0.798-0.344,1.289-0.666,1.793c-0.224,0.343-0.518,0.672-0.868,0.966c-0.224,0.189-0.378,0.294-0.764,0.511
			c-0.098-0.168-0.168-0.238-0.343-0.392c0.651-0.322,1.036-0.63,1.422-1.135c0.574-0.742,0.848-1.695,0.903-3.166h-1.471
			c-0.357,0-0.596,0.014-0.784,0.042v-0.525c0.224,0.035,0.434,0.049,0.777,0.049h1.996V50.572z"/>
	</g>
	<line stroke="#231815" stroke-width="0.75" stroke-miterlimit="10" x1="37.469" y1="56.181" x2="33.241" y2="65.725"/>
	<path fill-rule="evenodd" clip-rule="evenodd" fill="#FFFFFF" stroke="#000000" stroke-width="0.75" d="M60.023,1.613H10.559
		c-6.025,0-10.184,5.865-10.184,13.099c0,7.235,4.158,13.1,10.184,13.1h6.319l7.943,5.531L23.9,27.811h36.123
		c6.026,0,10.185-5.865,10.185-13.1C70.208,7.478,66.05,1.613,60.023,1.613z"/>
	<g>
		<path d="M10.631,4.9c0.126,0,0.188,0.098,0.188,0.238s-0.063,0.245-0.188,0.245H9.902c0.196,0.511,0.511,0.995,0.84,1.38
			c0.05,0.049,0.07,0.119,0.07,0.182s-0.021,0.126-0.077,0.175c-0.042,0.042-0.098,0.063-0.154,0.063
			c-0.084,0-0.16-0.042-0.224-0.119c-0.217-0.28-0.406-0.645-0.574-1.156c0.063,0.413,0.084,0.771,0.084,1.106v2.851
			c0,0.133-0.098,0.203-0.259,0.203s-0.26-0.07-0.26-0.203V7.344c0-0.336,0.042-0.875,0.105-1.296
			C9.271,6.756,8.922,7.582,8.536,8.143C8.474,8.227,8.39,8.269,8.313,8.269c-0.049,0-0.105-0.021-0.147-0.056
			C8.109,8.156,8.074,8.08,8.074,8.002c0-0.056,0.021-0.119,0.063-0.175c0.497-0.658,0.917-1.555,1.127-2.444H8.452
			c-0.126,0-0.188-0.105-0.188-0.245S8.326,4.9,8.452,4.9h0.896V3.716c0-0.133,0.091-0.203,0.252-0.203
			c0.154,0,0.267,0.07,0.267,0.203V4.9H10.631z M11.029,4.381c0-0.448,0.189-0.609,0.596-0.609h2.179
			c0.398,0,0.574,0.161,0.574,0.609v4.826c0,0.441-0.176,0.603-0.574,0.603h-2.179c-0.406,0-0.596-0.161-0.596-0.603V4.381z
			 M13.846,4.458c0-0.14-0.063-0.182-0.189-0.182h-1.898c-0.126,0-0.195,0.042-0.195,0.182v1.093h2.283V4.458z M11.563,6.042v1.295
			h2.283V6.042H11.563z M11.563,7.827V9.13c0,0.14,0.069,0.182,0.195,0.182h1.898c0.126,0,0.189-0.042,0.189-0.182V7.827H11.563z"/>
		<path d="M17.105,5.25c0.126,0,0.188,0.098,0.188,0.245c0,0.14-0.063,0.245-0.188,0.245h-0.581v1.772
			c0.126-0.077,0.252-0.154,0.356-0.224c0.05-0.035,0.099-0.049,0.147-0.049c0.07,0,0.14,0.035,0.189,0.112
			c0.021,0.042,0.034,0.084,0.034,0.126c0,0.077-0.049,0.154-0.133,0.217c-0.448,0.329-1.106,0.665-1.618,0.882
			c-0.042,0.021-0.084,0.028-0.126,0.028c-0.104,0-0.188-0.056-0.224-0.161c-0.014-0.042-0.021-0.084-0.021-0.126
			c0-0.098,0.057-0.182,0.161-0.224c0.231-0.084,0.483-0.196,0.729-0.315V5.74h-0.672c-0.126,0-0.196-0.105-0.196-0.245
			c0-0.147,0.07-0.245,0.196-0.245h0.672V3.765c0-0.133,0.099-0.203,0.252-0.203c0.154,0,0.253,0.07,0.253,0.203V5.25H17.105z
			 M18.184,7.701c-0.336,0.378-0.735,0.693-1.155,0.917c-0.056,0.028-0.105,0.042-0.154,0.042c-0.084,0-0.161-0.042-0.196-0.119
			c-0.021-0.042-0.035-0.084-0.035-0.126c0-0.077,0.042-0.154,0.134-0.203c0.63-0.336,1.177-0.813,1.464-1.38h-0.904
			c-0.111,0-0.182-0.091-0.182-0.217s0.063-0.217,0.182-0.217h4.14c0.119,0,0.183,0.091,0.183,0.217s-0.063,0.217-0.183,0.217
			h-2.703c-0.077,0.161-0.161,0.309-0.26,0.456h2.36c0.386,0,0.567,0.161,0.567,0.511c-0.007,0.721-0.084,1.324-0.217,1.688
			c-0.126,0.343-0.357,0.49-0.826,0.49c-0.211,0-0.448-0.021-0.589-0.056C19.683,9.9,19.605,9.81,19.605,9.676
			c0-0.014,0-0.035,0.007-0.056c0.021-0.126,0.119-0.196,0.218-0.196c0.014,0,0.027,0,0.049,0.007
			c0.133,0.028,0.308,0.049,0.469,0.049c0.238,0,0.379-0.035,0.435-0.224c0.098-0.315,0.161-0.833,0.168-1.387
			c0-0.126-0.049-0.168-0.196-0.168h-0.252c-0.392,1.016-1.113,1.814-1.912,2.283c-0.056,0.028-0.112,0.042-0.161,0.042
			c-0.091,0-0.168-0.042-0.21-0.112c-0.028-0.049-0.042-0.098-0.042-0.14c0-0.077,0.035-0.154,0.119-0.196
			c0.771-0.441,1.352-1.079,1.702-1.877h-0.624c-0.405,0.7-1.1,1.352-1.884,1.751c-0.063,0.028-0.119,0.042-0.168,0.042
			c-0.091,0-0.161-0.042-0.203-0.119c-0.021-0.042-0.035-0.084-0.035-0.126c0-0.084,0.042-0.161,0.141-0.21
			c0.687-0.329,1.268-0.806,1.61-1.338H18.184z M20.517,3.744c0.378,0,0.553,0.14,0.553,0.497v1.247
			c0,0.357-0.175,0.498-0.553,0.498h-2.36c-0.386,0-0.554-0.14-0.554-0.498V4.241c0-0.357,0.168-0.497,0.554-0.497H20.517z
			 M20.579,4.662V4.325c0-0.126-0.063-0.161-0.189-0.161h-2.107c-0.126,0-0.189,0.035-0.189,0.161v0.336H20.579z M18.093,5.418
			c0,0.126,0.063,0.161,0.189,0.161h2.107c0.127,0,0.189-0.035,0.189-0.161v-0.35h-2.486V5.418z"/>
		<path d="M25.268,7.547c-0.245,0.722-0.448,1.037-0.693,1.268c-0.224,0.217-0.518,0.308-0.805,0.308
			c-0.729,0-1.311-0.708-1.311-1.884c0-1.744,1.219-3.004,3.131-3.004c1.653,0,2.746,1.079,2.746,2.619
			c0,0.988-0.428,1.737-1.156,2.199c-0.406,0.259-0.91,0.42-1.471,0.504c-0.028,0.007-0.056,0.007-0.077,0.007
			c-0.146,0-0.266-0.07-0.294-0.246c-0.007-0.021-0.007-0.049-0.007-0.07c0-0.14,0.091-0.245,0.252-0.273
			c0.512-0.07,1.051-0.245,1.4-0.504c0.441-0.329,0.764-0.896,0.764-1.632c0-1.184-0.777-2.045-2.017-2.087
			C25.667,5.817,25.513,6.798,25.268,7.547z M23.026,7.232c0,0.84,0.357,1.282,0.729,1.282c0.161,0,0.322-0.056,0.47-0.203
			c0.153-0.147,0.314-0.448,0.483-0.959c0.217-0.658,0.392-1.618,0.44-2.578C23.867,4.893,23.026,5.873,23.026,7.232z"/>
		<path d="M34.117,6.608c-0.099,0.288-0.189,0.567-0.329,0.833c-0.196,0.357-0.441,0.687-0.722,0.988
			c0.735,0.273,1.478,0.595,2.115,0.945c0.098,0.049,0.146,0.133,0.146,0.231c0,0.049-0.014,0.105-0.049,0.168
			c-0.056,0.098-0.14,0.154-0.238,0.154c-0.056,0-0.111-0.014-0.175-0.049c-0.665-0.385-1.442-0.75-2.234-1.064
			c-0.756,0.588-1.744,0.959-2.92,1.169c-0.015,0-0.028,0-0.035,0c-0.134,0-0.252-0.07-0.28-0.231
			c-0.007-0.028-0.007-0.049-0.007-0.07c0-0.14,0.091-0.238,0.217-0.252c0.945-0.161,1.765-0.413,2.431-0.84
			c-0.505-0.175-1.009-0.329-1.471-0.448c-0.176-0.042-0.273-0.182-0.273-0.336c0-0.098,0.035-0.196,0.112-0.287
			c0.224-0.273,0.44-0.581,0.651-0.911h-1.563c-0.126,0-0.196-0.112-0.196-0.252c0-0.147,0.07-0.252,0.196-0.252h1.85
			c0.161-0.308,0.301-0.624,0.406-0.925c0.042-0.119,0.111-0.175,0.224-0.175c0.035,0,0.07,0.007,0.112,0.021
			c0.133,0.042,0.21,0.119,0.21,0.231c0,0.035-0.007,0.077-0.028,0.126c-0.098,0.238-0.21,0.483-0.336,0.722h3.418
			c0.133,0,0.203,0.105,0.203,0.252c0,0.14-0.07,0.252-0.203,0.252H34.117z M34.817,4.255c0.42,0,0.609,0.182,0.609,0.595v0.666
			c0,0.14-0.112,0.21-0.28,0.21c-0.161,0-0.28-0.07-0.28-0.203V4.956c0-0.154-0.077-0.203-0.224-0.203h-4.462
			c-0.146,0-0.224,0.049-0.224,0.203v0.567c0,0.133-0.119,0.203-0.28,0.203c-0.168,0-0.28-0.07-0.28-0.21V4.851
			c0-0.413,0.188-0.595,0.609-0.595H32.1V3.751c0-0.147,0.099-0.224,0.273-0.224c0.182,0,0.273,0.077,0.273,0.224v0.504H34.817z
			 M31.651,6.608c-0.21,0.351-0.434,0.68-0.665,0.974c-0.035,0.049-0.056,0.084-0.056,0.105c0,0.035,0.034,0.063,0.126,0.084
			c0.44,0.126,0.938,0.28,1.456,0.455c0.309-0.266,0.561-0.595,0.75-0.953c0.111-0.21,0.188-0.434,0.272-0.666H31.651z"/>
		<path d="M36.999,4.291c0.224,0,0.28,0.119,0.28,0.294c0,0.294,0,0.603,0,0.896c0,0.448,0.007,0.869,0.027,1.191
			c0.07,0.84,0.189,1.379,0.399,1.8c0.091,0.182,0.273,0.315,0.427,0.315c0.161,0,0.295-0.056,0.399-0.217
			c0.147-0.217,0.273-0.582,0.344-1.065c0.027-0.175,0.104-0.252,0.252-0.252c0.021,0,0.049,0,0.07,0.007
			c0.161,0.021,0.266,0.105,0.266,0.273c0,0.021,0,0.042-0.007,0.063c-0.098,0.651-0.28,1.127-0.512,1.429
			c-0.237,0.294-0.511,0.413-0.777,0.413c-0.294,0-0.609-0.133-0.847-0.49c-0.302-0.455-0.519-1.219-0.589-2.234
			c-0.042-0.561-0.049-1.38-0.049-2.129C36.684,4.402,36.803,4.291,36.999,4.291z M40.865,4.647c0.091,0,0.175,0.042,0.237,0.14
			c0.673,0.911,1.17,2.325,1.268,3.523c0,0.021,0,0.035,0,0.049c0,0.182-0.069,0.301-0.245,0.336
			c-0.027,0.007-0.056,0.007-0.076,0.007c-0.161,0-0.273-0.098-0.287-0.273c-0.099-1.177-0.525-2.438-1.156-3.327
			C40.57,5.047,40.55,4.984,40.55,4.928c0-0.098,0.056-0.189,0.146-0.231C40.753,4.662,40.809,4.647,40.865,4.647z"/>
		<path d="M44.615,6.321h-1.198c-0.126,0-0.195-0.098-0.195-0.238s0.069-0.238,0.195-0.238h1.135V4.942h-0.959
			c-0.126,0-0.196-0.098-0.196-0.238s0.07-0.238,0.196-0.238h0.959V3.695c0-0.126,0.099-0.189,0.252-0.189
			c0.147,0,0.253,0.063,0.253,0.189v0.771h0.868c0.126,0,0.189,0.098,0.189,0.238s-0.063,0.238-0.189,0.238h-0.868v0.903h0.945
			c0.126,0,0.196,0.098,0.196,0.238s-0.07,0.238-0.196,0.238h-0.896v0.925h0.791c0.119,0,0.183,0.091,0.183,0.224
			c0,0.126-0.063,0.231-0.183,0.231h-0.791v1.352c0.413,0.203,0.952,0.28,1.87,0.287c0.104,0,0.217,0,0.322,0
			c0.756,0,1.526-0.021,2.185-0.063c0.007,0,0.015,0,0.021,0c0.133,0,0.217,0.077,0.224,0.245c0,0.007,0,0.014,0,0.021
			c0,0.168-0.077,0.267-0.245,0.273c-0.637,0.028-1.407,0.049-2.171,0.049c-0.112,0-0.225,0-0.336,0
			c-1.191-0.007-1.779-0.161-2.263-0.49c-0.294-0.196-0.567-0.504-0.764-0.84c-0.098,0.469-0.237,0.89-0.406,1.219
			c-0.056,0.119-0.14,0.175-0.23,0.175c-0.042,0-0.084-0.014-0.133-0.035c-0.099-0.042-0.154-0.119-0.154-0.21
			c0-0.042,0.014-0.091,0.035-0.14c0.378-0.742,0.539-1.526,0.56-2.647c0-0.133,0.099-0.203,0.238-0.203c0.007,0,0.015,0,0.021,0
			c0.175,0.007,0.238,0.091,0.238,0.238c-0.008,0.357-0.028,0.708-0.077,1.037c0.161,0.273,0.343,0.519,0.574,0.735V6.321z
			 M47.689,4.563c-0.007-0.273-0.007-0.56-0.007-0.875c0-0.14,0.112-0.189,0.245-0.189c0.147,0,0.245,0.049,0.245,0.203
			c0,0.315,0,0.595,0.007,0.861h1.275c0.118,0,0.182,0.098,0.182,0.231c0,0.133-0.063,0.231-0.182,0.231h-1.261
			c0.027,0.792,0.084,1.358,0.195,1.814c0.015,0.056,0.028,0.105,0.042,0.161c0.203-0.393,0.364-0.827,0.49-1.296
			c0.028-0.119,0.099-0.168,0.189-0.168c0.028,0,0.056,0.007,0.091,0.014c0.105,0.021,0.168,0.091,0.168,0.189
			c0,0.021,0,0.042-0.007,0.07c-0.188,0.68-0.427,1.254-0.729,1.751c0.127,0.287,0.28,0.525,0.428,0.693
			c0.042,0.049,0.084,0.077,0.119,0.077s0.063-0.035,0.084-0.098c0.049-0.161,0.077-0.371,0.091-0.525
			c0.014-0.126,0.077-0.175,0.189-0.175c0.014,0,0.035,0,0.049,0c0.133,0.014,0.189,0.07,0.189,0.189c0,0.007,0,0.021,0,0.035
			c-0.028,0.357-0.134,0.729-0.238,0.911c-0.077,0.126-0.203,0.196-0.344,0.196c-0.14,0-0.287-0.063-0.413-0.189
			c-0.161-0.161-0.322-0.392-0.462-0.666c-0.267,0.343-0.567,0.645-0.918,0.917c-0.069,0.049-0.133,0.077-0.188,0.077
			c-0.063,0-0.126-0.035-0.176-0.105c-0.034-0.042-0.049-0.091-0.049-0.14c0-0.063,0.035-0.126,0.105-0.182
			c0.399-0.308,0.735-0.658,1.016-1.058c-0.063-0.168-0.119-0.343-0.161-0.518c-0.126-0.525-0.21-1.142-0.245-1.975h-0.624
			c-0.133,0-0.203,0.035-0.203,0.168v2.479c0.196-0.112,0.386-0.231,0.561-0.35c0.042-0.035,0.091-0.049,0.133-0.049
			c0.057,0,0.112,0.035,0.154,0.119c0.021,0.042,0.028,0.077,0.028,0.112c0,0.07-0.042,0.133-0.112,0.189
			c-0.477,0.364-1.1,0.686-1.646,0.91c-0.042,0.021-0.091,0.028-0.133,0.028c-0.07,0-0.141-0.035-0.183-0.119
			c-0.021-0.049-0.035-0.091-0.035-0.133c0-0.098,0.057-0.182,0.141-0.21c0.195-0.07,0.398-0.154,0.595-0.245V5.082
			c0-0.378,0.183-0.519,0.561-0.519H47.689z M49.328,4.031c0.042,0.049,0.057,0.098,0.057,0.14c0,0.056-0.035,0.112-0.077,0.14
			c-0.056,0.049-0.112,0.077-0.168,0.077c-0.063,0-0.119-0.035-0.176-0.098c-0.111-0.133-0.252-0.28-0.405-0.435
			c-0.05-0.042-0.07-0.091-0.07-0.133c0-0.049,0.028-0.105,0.077-0.154c0.049-0.042,0.098-0.063,0.146-0.063
			c0.057,0,0.112,0.021,0.154,0.056C49.034,3.709,49.21,3.884,49.328,4.031z"/>
		<path d="M51.02,8.002c0-0.28,0.015-0.609,0.057-0.917c-0.154,0.203-0.337,0.399-0.512,0.553c-0.077,0.063-0.154,0.098-0.225,0.098
			c-0.076,0-0.14-0.035-0.195-0.098c-0.042-0.056-0.063-0.112-0.063-0.175c0-0.07,0.028-0.14,0.091-0.189
			c0.609-0.504,1.184-1.24,1.492-1.989c0.042-0.098,0.119-0.14,0.203-0.14c0.049,0,0.091,0.007,0.14,0.028
			c0.112,0.042,0.169,0.119,0.169,0.21c0,0.035-0.008,0.07-0.028,0.112c-0.133,0.308-0.364,0.707-0.596,1.029v3.299
			c0,0.126-0.104,0.203-0.266,0.203S51.02,9.949,51.02,9.823V8.002z M52.574,4.907c0,0.147-0.091,0.21-0.259,0.21
			c-0.154,0-0.259-0.063-0.259-0.21V4.591h-1.64c-0.119,0-0.195-0.084-0.195-0.231s0.076-0.238,0.195-0.238h1.64V3.737
			c0-0.14,0.104-0.203,0.259-0.203c0.168,0,0.259,0.063,0.259,0.203v0.385h1.618V3.737c0-0.14,0.105-0.203,0.259-0.203
			c0.176,0,0.26,0.063,0.26,0.203v0.385h1.694c0.119,0,0.189,0.091,0.189,0.238s-0.07,0.231-0.189,0.231h-1.694v0.399
			c0,0.147-0.084,0.21-0.26,0.21c-0.153,0-0.259-0.063-0.259-0.21V4.591h-1.618V4.907z M52.455,6.034
			c-0.126,0-0.188-0.105-0.188-0.238c0-0.147,0.063-0.245,0.188-0.245h3.985c0.126,0,0.189,0.098,0.189,0.245
			c0,0.133-0.063,0.238-0.189,0.238h-0.546v3.194c0,0.518-0.196,0.721-0.869,0.721c-0.23,0-0.511-0.021-0.7-0.056
			c-0.146-0.028-0.21-0.112-0.21-0.238c0-0.028,0-0.056,0.007-0.091c0.035-0.119,0.112-0.189,0.231-0.189
			c0.028,0,0.049,0,0.077,0.007c0.154,0.035,0.392,0.056,0.553,0.056c0.309,0,0.379-0.063,0.379-0.329V6.034H52.455z M54.599,8.367
			c0,0.378-0.168,0.518-0.539,0.518h-1.232c-0.379,0-0.547-0.14-0.547-0.518V7.148c0-0.378,0.168-0.519,0.547-0.519h1.232
			c0.371,0,0.539,0.14,0.539,0.519V8.367z M52.974,7.078c-0.126,0-0.189,0.035-0.189,0.168v1.016c0,0.133,0.063,0.168,0.189,0.168
			h0.925c0.126,0,0.196-0.035,0.196-0.168V7.246c0-0.133-0.07-0.168-0.196-0.168H52.974z"/>
		<path d="M58.728,4.087c0,0.042-0.008,0.077-0.021,0.126C58.468,5.131,58.3,6.314,58.3,7.274c0,0.721,0.084,1.45,0.21,2.045
			c0.007,0.042,0.015,0.084,0.015,0.119c0,0.154-0.063,0.252-0.218,0.28c-0.027,0.007-0.063,0.007-0.084,0.007
			c-0.154,0-0.252-0.098-0.287-0.266c-0.14-0.609-0.217-1.358-0.217-2.178c0-0.966,0.168-2.269,0.413-3.193
			c0.049-0.175,0.147-0.245,0.287-0.245c0.028,0,0.056,0,0.091,0.007C58.65,3.877,58.728,3.961,58.728,4.087z M63.063,5.005
			c0.021-0.007,0.042-0.007,0.063-0.007c0.141,0,0.231,0.091,0.238,0.224c0.007,0.021,0.007,0.042,0.007,0.063
			c0,0.147-0.069,0.231-0.21,0.259c-0.322,0.063-0.693,0.105-1.1,0.14c0.007,0.413,0.015,0.792,0.042,1.142
			c0.021,0.266,0.057,0.624,0.077,0.924c0.421,0.196,0.911,0.546,1.219,0.869c0.057,0.056,0.091,0.14,0.091,0.217
			s-0.027,0.154-0.084,0.217c-0.063,0.063-0.14,0.091-0.21,0.091s-0.146-0.028-0.203-0.091c-0.273-0.301-0.539-0.525-0.806-0.693
			c0.008,0.063,0.008,0.14,0.008,0.189c0,0.742-0.505,1.092-1.387,1.092c-0.862,0-1.422-0.427-1.422-1.127
			c0-0.624,0.525-1.079,1.358-1.079c0.315,0,0.609,0.049,0.868,0.126C61.592,7.33,61.57,7.05,61.557,6.819
			c-0.021-0.336-0.035-0.701-0.042-1.1c-0.386,0.021-0.813,0.035-1.232,0.035c-0.245,0-0.49-0.007-0.729-0.014
			c-0.183-0.007-0.26-0.119-0.26-0.287c0-0.161,0.092-0.266,0.253-0.266c0,0,0.007,0,0.014,0c0.252,0.007,0.519,0.014,0.784,0.014
			c0.379,0,0.771-0.007,1.156-0.035c-0.008-0.351-0.015-0.714-0.015-1.072c0-0.182,0.099-0.273,0.267-0.273
			c0.182,0,0.294,0.098,0.294,0.266c0,0.119,0,0.238,0,0.357c0,0.238,0,0.469,0,0.687C62.39,5.096,62.74,5.061,63.063,5.005z
			 M60.744,7.925c-0.497,0-0.819,0.238-0.819,0.595c0,0.357,0.322,0.596,0.833,0.596c0.673,0,0.904-0.238,0.904-0.806
			c0-0.063-0.008-0.112-0.015-0.196C61.36,7.988,61.066,7.925,60.744,7.925z"/>
		<path d="M10.329,11.73c0.287,0,0.455,0.168,0.455,0.378c0,0.098-0.034,0.203-0.098,0.308c-0.245,0.35-0.525,0.658-0.883,0.974
			c0.077,0.084,0.154,0.168,0.225,0.252c0.049,0.049,0.07,0.105,0.07,0.161c0,0.049-0.015,0.098-0.05,0.133h0.519
			c0.26,0,0.42,0.147,0.42,0.385c0,0.063-0.014,0.133-0.034,0.21c-0.134,0.378-0.337,0.742-0.525,0.98
			c-0.063,0.077-0.134,0.112-0.21,0.112c-0.05,0-0.105-0.014-0.154-0.049C10,15.533,9.965,15.463,9.965,15.393
			c0-0.049,0.021-0.098,0.057-0.147c0.175-0.21,0.336-0.49,0.413-0.693c0.007-0.028,0.014-0.049,0.014-0.07
			c0-0.049-0.035-0.07-0.098-0.07H9.748v2.899c0,0.399-0.238,0.595-0.714,0.595c-0.203,0-0.428-0.007-0.582-0.049
			c-0.112-0.028-0.175-0.112-0.175-0.245c0-0.014,0-0.035,0.007-0.056c0.014-0.126,0.105-0.189,0.21-0.189
			c0.015,0,0.035,0,0.057,0.007c0.119,0.028,0.272,0.042,0.398,0.042c0.231,0,0.28-0.056,0.28-0.245v-2.759H8.34
			c-0.118,0-0.188-0.091-0.188-0.238c0-0.14,0.07-0.238,0.188-0.238h1.317c-0.28-0.336-0.631-0.679-0.945-0.952
			c-0.05-0.042-0.077-0.098-0.077-0.154s0.021-0.112,0.077-0.161c0.049-0.042,0.111-0.063,0.168-0.063
			c0.056,0,0.111,0.021,0.154,0.056c0.153,0.126,0.308,0.273,0.455,0.413c0.301-0.259,0.525-0.49,0.679-0.729
			c0.021-0.028,0.028-0.056,0.028-0.077c0-0.042-0.035-0.063-0.098-0.063H8.467c-0.127,0-0.203-0.091-0.203-0.246
			c0-0.14,0.069-0.231,0.203-0.231H10.329z M12.011,16.766c0.063,0,0.126,0.021,0.175,0.07c0.063,0.049,0.091,0.112,0.091,0.175
			c0,0.056-0.028,0.119-0.084,0.175c-0.364,0.343-0.89,0.658-1.338,0.819c-0.042,0.014-0.077,0.021-0.119,0.021
			c-0.091,0-0.175-0.042-0.224-0.147c-0.015-0.042-0.021-0.077-0.021-0.112c0-0.098,0.057-0.182,0.168-0.224
			c0.441-0.154,0.876-0.413,1.17-0.7C11.884,16.787,11.947,16.766,12.011,16.766z M11.184,12.213c-0.126,0-0.196-0.098-0.196-0.245
			c0-0.14,0.07-0.238,0.196-0.238h3.257c0.126,0,0.196,0.098,0.196,0.238c0,0.147-0.07,0.245-0.196,0.245h-1.422
			c-0.063,0.231-0.153,0.462-0.252,0.679h0.96c0.42,0,0.616,0.168,0.616,0.561v2.584c0,0.392-0.189,0.539-0.603,0.539h-1.989
			c-0.406,0-0.595-0.147-0.595-0.539v-2.605c0-0.385,0.188-0.54,0.595-0.54h0.505c0.098-0.217,0.182-0.448,0.245-0.679H11.184z
			 M13.838,13.971v-0.469c0-0.133-0.056-0.175-0.195-0.175H11.87c-0.146,0-0.21,0.042-0.21,0.175v0.469H13.838z M13.838,15.022
			v-0.63H11.66v0.63H13.838z M11.66,15.953c0,0.133,0.063,0.175,0.196,0.175h1.786c0.14,0,0.195-0.042,0.195-0.175v-0.511H11.66
			V15.953z M13.236,16.745c0.069,0,0.133,0.028,0.195,0.084c0.287,0.273,0.722,0.54,1.114,0.693c0.091,0.035,0.14,0.119,0.14,0.21
			c0,0.042-0.014,0.084-0.035,0.133c-0.049,0.091-0.126,0.14-0.21,0.14c-0.042,0-0.084-0.007-0.133-0.028
			c-0.448-0.189-0.903-0.477-1.247-0.819c-0.056-0.056-0.084-0.119-0.084-0.175c0-0.063,0.028-0.119,0.084-0.168
			C13.11,16.773,13.173,16.745,13.236,16.745z"/>
		<path d="M16.812,12.108c0,0.028-0.008,0.056-0.015,0.091c-0.203,0.946-0.336,1.926-0.336,2.697c0,0.756,0.091,1.583,0.259,2.29
			c0.015,0.042,0.021,0.084,0.021,0.126c0,0.133-0.077,0.217-0.203,0.252c-0.028,0.007-0.063,0.014-0.099,0.014
			c-0.126,0-0.245-0.07-0.294-0.231c-0.182-0.722-0.28-1.604-0.28-2.444c0-0.813,0.141-1.8,0.337-2.809
			c0.027-0.175,0.153-0.252,0.314-0.252c0.015,0,0.035,0,0.057,0C16.728,11.863,16.812,11.968,16.812,12.108z M20.341,14.518
			c0,1.037-0.182,1.758-0.476,2.234c-0.302,0.49-0.841,0.889-1.422,1.071c-0.05,0.014-0.092,0.021-0.134,0.021
			c-0.119,0-0.21-0.056-0.252-0.182c-0.021-0.056-0.028-0.098-0.028-0.14c0-0.119,0.063-0.203,0.189-0.245
			c0.448-0.154,0.925-0.441,1.17-0.84c0.231-0.371,0.385-0.995,0.385-1.947c0-0.182,0-0.364-0.007-0.554
			c-0.357,0.028-0.714,0.042-1.086,0.042c-0.385,0-0.847-0.007-1.106-0.028c-0.14-0.014-0.245-0.119-0.245-0.273
			c0,0,0-0.007,0-0.014c0.007-0.161,0.112-0.259,0.252-0.259c0.008,0,0.008,0,0.015,0c0.245,0.014,0.714,0.028,1.051,0.028
			c0.378,0,0.749-0.007,1.106-0.035c-0.015-0.49-0.042-0.98-0.07-1.338c0-0.014,0-0.021,0-0.035c0-0.168,0.098-0.245,0.273-0.259
			c0.007,0,0.014,0,0.021,0c0.161,0,0.26,0.084,0.273,0.259c0.028,0.35,0.056,0.819,0.07,1.31c0.287-0.028,0.581-0.077,0.819-0.126
			c0.027-0.007,0.049-0.007,0.07-0.007c0.14,0,0.23,0.091,0.245,0.224c0.007,0.021,0.007,0.042,0.007,0.063
			c0,0.133-0.084,0.238-0.218,0.259c-0.272,0.049-0.567,0.098-0.91,0.133C20.341,14.097,20.341,14.3,20.341,14.518z"/>
		<path d="M26.563,12.781c-0.343,0.07-0.645,0.105-0.875,0.126c-1.002,0.084-1.982,0.175-2.872,0.245c-0.014,0-0.021,0-0.035,0
			c-0.182,0-0.287-0.105-0.301-0.266c0-0.014,0-0.021,0-0.028c0-0.154,0.104-0.28,0.259-0.294c1.709-0.133,3.559-0.252,5.253-0.329
			c0.007,0,0.015,0,0.021,0c0.196,0,0.287,0.112,0.301,0.273c0,0.007,0,0.014,0,0.021c0,0.147-0.07,0.28-0.273,0.301
			c-0.119,0.014-0.23,0.028-0.392,0.056c-1.513,0.252-2.57,1.261-2.57,2.388c0,0.7,0.392,1.121,0.896,1.352
			c0.371,0.175,0.84,0.252,1.31,0.259c0.203,0,0.308,0.126,0.308,0.287c0,0.014,0,0.021,0,0.035
			c-0.014,0.203-0.126,0.315-0.336,0.315c-0.581,0-1.135-0.112-1.576-0.322c-0.721-0.351-1.204-0.988-1.204-1.877
			c0-1.058,0.742-2.018,2.094-2.5L26.563,12.781z"/>
		<path d="M29.628,16.122c0.076,0,0.153,0.028,0.224,0.084c0.385,0.301,0.876,0.826,1.163,1.253c0.049,0.07,0.069,0.14,0.069,0.21
			c0,0.084-0.042,0.168-0.126,0.231c-0.063,0.049-0.14,0.077-0.217,0.077c-0.099,0-0.196-0.049-0.26-0.147
			c-0.266-0.378-0.7-0.875-1.106-1.219c-0.049-0.042-0.077-0.105-0.077-0.175c0-0.077,0.042-0.168,0.112-0.231
			C29.474,16.149,29.551,16.122,29.628,16.122z"/>
		<path d="M42.385,12.094c0.112,0,0.175,0.091,0.175,0.231c0,0.14-0.063,0.231-0.175,0.231h-5.946c-0.119,0-0.183-0.091-0.183-0.231
			c0-0.133,0.063-0.231,0.183-0.231h2.654v-0.385c0-0.126,0.119-0.196,0.28-0.196c0.168,0,0.28,0.07,0.28,0.196v0.385H42.385z
			 M41.719,14.917c0.448,0,0.645,0.175,0.645,0.581v1.835c0,0.448-0.252,0.616-0.749,0.616c-0.238,0-0.455-0.028-0.631-0.07
			c-0.111-0.028-0.182-0.098-0.182-0.21c0-0.028,0.007-0.056,0.014-0.091c0.035-0.119,0.105-0.182,0.189-0.182
			c0.021,0,0.049,0.007,0.07,0.007c0.133,0.028,0.308,0.056,0.455,0.056c0.224,0,0.301-0.056,0.301-0.273v-1.611
			c0-0.168-0.077-0.217-0.245-0.217h-4.356c-0.168,0-0.245,0.049-0.245,0.217v2.248c0,0.126-0.104,0.203-0.266,0.203
			s-0.267-0.077-0.28-0.203v-2.325c0-0.406,0.196-0.581,0.645-0.581H41.719z M40.928,12.949c0.351,0,0.525,0.14,0.525,0.469v0.624
			c0,0.336-0.175,0.476-0.525,0.476h-3.054c-0.35,0-0.525-0.14-0.525-0.476v-0.624c0-0.329,0.176-0.469,0.525-0.469H40.928z
			 M40.753,14.069c0.133,0,0.196-0.035,0.196-0.161v-0.35c0-0.126-0.063-0.161-0.196-0.161h-2.704c-0.133,0-0.195,0.035-0.195,0.161
			v0.35c0,0.126,0.063,0.161,0.195,0.161H40.753z M38.351,17.41c-0.336,0-0.49-0.119-0.49-0.462v-0.721
			c0-0.35,0.154-0.477,0.49-0.477h2.038c0.343,0,0.497,0.126,0.497,0.477v0.721c0,0.336-0.154,0.462-0.483,0.462H38.351z
			 M40.199,16.962c0.119,0,0.175-0.035,0.175-0.147v-0.469c0-0.126-0.056-0.154-0.175-0.154h-1.652
			c-0.126,0-0.176,0.028-0.176,0.154v0.469c0,0.112,0.05,0.147,0.168,0.147H40.199z"/>
		<path d="M43.999,12.291c0.224,0,0.28,0.119,0.28,0.294c0,0.294,0,0.603,0,0.896c0,0.448,0.007,0.869,0.027,1.191
			c0.07,0.84,0.189,1.379,0.399,1.8c0.091,0.182,0.273,0.315,0.427,0.315c0.161,0,0.295-0.056,0.399-0.217
			c0.147-0.217,0.273-0.582,0.344-1.065c0.027-0.175,0.104-0.252,0.252-0.252c0.021,0,0.049,0,0.07,0.007
			c0.161,0.021,0.266,0.105,0.266,0.273c0,0.021,0,0.042-0.007,0.063c-0.098,0.651-0.28,1.127-0.512,1.429
			c-0.237,0.294-0.511,0.413-0.777,0.413c-0.294,0-0.609-0.133-0.847-0.49c-0.302-0.455-0.519-1.219-0.589-2.234
			c-0.042-0.561-0.049-1.38-0.049-2.129C43.684,12.402,43.803,12.291,43.999,12.291z M47.865,12.647c0.091,0,0.175,0.042,0.237,0.14
			c0.673,0.911,1.17,2.325,1.268,3.523c0,0.021,0,0.035,0,0.049c0,0.182-0.069,0.301-0.245,0.336
			c-0.027,0.007-0.056,0.007-0.076,0.007c-0.161,0-0.273-0.098-0.287-0.273c-0.099-1.177-0.525-2.438-1.156-3.327
			c-0.035-0.056-0.056-0.119-0.056-0.175c0-0.098,0.056-0.189,0.146-0.231C47.753,12.662,47.809,12.647,47.865,12.647z"/>
		<path d="M52.294,16.745c0,0.399-0.188,0.561-0.566,0.561h-0.764c-0.393,0-0.581-0.161-0.581-0.561v-4.279
			c0-0.399,0.188-0.56,0.581-0.56h0.764c0.378,0,0.566,0.161,0.566,0.56V16.745z M51.783,14.245v-1.681
			c0-0.147-0.063-0.182-0.196-0.182h-0.49c-0.14,0-0.203,0.035-0.203,0.182v1.681H51.783z M50.894,14.714v1.919
			c0,0.154,0.063,0.182,0.203,0.182h0.49c0.133,0,0.196-0.028,0.196-0.182v-1.919H50.894z M54.228,12.823h-1.303
			c-0.133,0-0.203-0.098-0.203-0.238c0-0.133,0.07-0.238,0.203-0.238h1.303v-0.602c0-0.133,0.098-0.203,0.252-0.203
			c0.161,0,0.267,0.07,0.267,0.203v0.602h1.464c0.126,0,0.188,0.098,0.188,0.231c0,0.147-0.063,0.245-0.188,0.245h-1.464v0.868
			h1.736c0.119,0,0.196,0.091,0.196,0.231c0,0.147-0.077,0.252-0.196,0.252h-0.721v0.785h0.707c0.126,0,0.196,0.098,0.196,0.238
			c0,0.147-0.07,0.245-0.196,0.245h-0.707v1.877c0,0.477-0.253,0.659-0.771,0.659c-0.28,0-0.498-0.021-0.687-0.063
			c-0.134-0.028-0.189-0.112-0.189-0.231c0-0.021,0-0.049,0.007-0.077c0.028-0.133,0.105-0.203,0.21-0.203
			c0.021,0,0.042,0,0.063,0.007c0.168,0.042,0.378,0.056,0.532,0.056c0.259,0,0.322-0.056,0.322-0.308v-1.716h-2.57
			c-0.133,0-0.21-0.098-0.21-0.245c0-0.14,0.077-0.238,0.21-0.238h2.57v-0.785h-2.577c-0.134,0-0.203-0.105-0.203-0.245
			s0.069-0.238,0.203-0.238h1.555V12.823z M54.241,16.619c0.057,0.077,0.077,0.14,0.077,0.203c0,0.077-0.042,0.14-0.112,0.203
			c-0.056,0.049-0.119,0.077-0.188,0.077c-0.084,0-0.168-0.042-0.225-0.126c-0.188-0.273-0.462-0.588-0.672-0.806
			c-0.057-0.056-0.084-0.119-0.084-0.175c0-0.077,0.042-0.147,0.111-0.21c0.063-0.049,0.119-0.07,0.183-0.07
			c0.07,0,0.133,0.028,0.203,0.091C53.766,16.017,54.045,16.346,54.241,16.619z"/>
		<path d="M58.797,12.101c0,0.028-0.007,0.056-0.014,0.091c-0.252,0.932-0.386,2.038-0.386,3.061c0,0.693,0.063,1.436,0.183,2.087
			c0.007,0.035,0.007,0.07,0.007,0.105c0,0.161-0.091,0.245-0.238,0.28c-0.027,0.007-0.056,0.007-0.077,0.007
			c-0.133,0-0.237-0.077-0.272-0.266c-0.134-0.645-0.196-1.401-0.196-2.186c0-1.092,0.133-2.227,0.399-3.214
			c0.042-0.147,0.153-0.21,0.279-0.21c0.028,0,0.05,0,0.077,0.007C58.699,11.884,58.797,11.968,58.797,12.101z M60.401,15.057
			c0,0.07-0.035,0.133-0.092,0.189c-0.294,0.28-0.406,0.546-0.406,0.813c0,0.434,0.379,0.658,1.359,0.658
			c0.603,0,1.246-0.063,1.723-0.168c0.028-0.007,0.056-0.007,0.084-0.007c0.141,0,0.245,0.091,0.273,0.231
			c0.007,0.028,0.007,0.049,0.007,0.077c0,0.14-0.084,0.273-0.238,0.301c-0.519,0.105-1.135,0.154-1.779,0.154
			c-1.288,0-1.975-0.364-1.975-1.247c0-0.427,0.175-0.827,0.532-1.163c0.077-0.07,0.161-0.105,0.238-0.105
			c0.063,0,0.126,0.028,0.182,0.077C60.373,14.931,60.401,14.994,60.401,15.057z M62.789,12.612c0.175,0,0.267,0.098,0.287,0.259
			c0,0.007,0,0.014,0,0.021c0,0.161-0.069,0.294-0.272,0.315c-0.589,0.07-1.43,0.105-2.192,0.105c-0.26,0-0.512-0.007-0.742-0.014
			c-0.218-0.007-0.295-0.147-0.295-0.308c0.007-0.154,0.105-0.294,0.287-0.294c0.008,0,0.008,0,0.015,0
			c0.224,0.007,0.476,0.014,0.735,0.014c0.742,0,1.555-0.035,2.122-0.098C62.754,12.612,62.769,12.612,62.789,12.612z"/>
		<path d="M13.804,21.39c0.126,0,0.195,0.112,0.195,0.245c0,0.133-0.069,0.238-0.195,0.238H8.999c-0.119,0-0.196-0.105-0.196-0.238
			c0-0.133,0.077-0.245,0.196-0.245H11.1v-0.645H8.509c-0.119,0-0.189-0.105-0.189-0.245c0-0.133,0.07-0.238,0.189-0.238H11.1V19.73
			c0-0.119,0.099-0.196,0.26-0.196c0.168,0,0.272,0.077,0.272,0.196v0.532h2.676c0.119,0,0.189,0.105,0.189,0.238
			c0,0.14-0.07,0.245-0.189,0.245h-2.676v0.645H13.804z M10.532,23.19c0.183,0,0.273,0.077,0.273,0.238
			c-0.007,1.331-0.616,2.15-2.108,2.563c-0.042,0.014-0.084,0.021-0.119,0.021c-0.126,0-0.203-0.077-0.238-0.189
			c-0.007-0.035-0.014-0.063-0.014-0.098c0-0.105,0.057-0.196,0.189-0.231c1.268-0.357,1.729-0.98,1.736-2.087
			C10.26,23.267,10.351,23.19,10.532,23.19z M13.831,22.398c0.413,0,0.616,0.154,0.616,0.574v0.651c0,0.133-0.111,0.203-0.272,0.203
			s-0.267-0.07-0.267-0.203v-0.546c0-0.161-0.063-0.203-0.224-0.203h-4.56c-0.154,0-0.225,0.042-0.225,0.203v0.546
			c0,0.133-0.104,0.203-0.266,0.203c-0.154,0-0.273-0.07-0.273-0.203v-0.651c0-0.42,0.203-0.574,0.616-0.574H13.831z M11.821,23.393
			c0-0.133,0.119-0.203,0.273-0.203c0.161,0,0.272,0.07,0.272,0.196v1.737c0,0.175,0.035,0.217,0.183,0.238
			c0.154,0.021,0.322,0.028,0.525,0.028c0.609,0,0.784-0.084,0.875-0.273c0.042-0.084,0.084-0.309,0.105-0.567
			c0.014-0.126,0.084-0.21,0.238-0.21c0.007,0,0.021,0,0.034,0c0.154,0.014,0.238,0.105,0.238,0.245c0,0.014,0,0.021,0,0.035
			c-0.021,0.364-0.091,0.666-0.188,0.833c-0.189,0.329-0.505,0.427-1.324,0.427c-0.343,0-0.567-0.007-0.784-0.056
			c-0.294-0.063-0.448-0.217-0.448-0.616V23.393z"/>
		<path d="M20.698,23.323c0,0.819-0.406,1.471-1.163,1.807c-0.504,0.231-1.303,0.357-1.996,0.357c-0.021,0-0.034,0-0.056,0
			c-0.182,0-0.294-0.112-0.294-0.266c0-0.007,0-0.014,0-0.014c0-0.161,0.098-0.287,0.273-0.287c0.644,0,1.414-0.098,1.877-0.308
			c0.539-0.245,0.798-0.693,0.798-1.275c0-0.658-0.406-1.1-1.246-1.1c-0.708,0-1.674,0.189-2.494,0.456
			c-0.034,0.007-0.069,0.014-0.104,0.014c-0.126,0-0.225-0.077-0.252-0.189c-0.007-0.035-0.015-0.07-0.015-0.105
			c0-0.119,0.063-0.21,0.203-0.252c0.834-0.252,1.835-0.441,2.647-0.441C20.075,21.719,20.698,22.398,20.698,23.323z"/>
		<path d="M26.563,20.781c-0.343,0.07-0.645,0.105-0.875,0.126c-1.002,0.084-1.982,0.175-2.872,0.245c-0.014,0-0.021,0-0.035,0
			c-0.182,0-0.287-0.105-0.301-0.266c0-0.014,0-0.021,0-0.028c0-0.154,0.104-0.28,0.259-0.294c1.709-0.133,3.559-0.252,5.253-0.329
			c0.007,0,0.015,0,0.021,0c0.196,0,0.287,0.112,0.301,0.273c0,0.007,0,0.014,0,0.021c0,0.147-0.07,0.28-0.273,0.301
			c-0.119,0.014-0.23,0.028-0.392,0.056c-1.513,0.252-2.57,1.261-2.57,2.388c0,0.7,0.392,1.121,0.896,1.352
			c0.371,0.175,0.84,0.252,1.31,0.259c0.203,0,0.308,0.126,0.308,0.287c0,0.014,0,0.021,0,0.035
			c-0.014,0.203-0.126,0.315-0.336,0.315c-0.581,0-1.135-0.112-1.576-0.322c-0.721-0.351-1.204-0.988-1.204-1.877
			c0-1.058,0.742-2.018,2.094-2.5L26.563,20.781z"/>
		<path d="M32.205,22.658c0.399,0,0.764-0.014,1.085-0.049c0.015,0,0.035,0,0.05,0c0.161,0,0.237,0.091,0.252,0.238
			c0,0.014,0,0.028,0,0.042c0,0.147-0.077,0.252-0.26,0.273c-0.329,0.035-0.721,0.049-1.142,0.049c-0.217,0-0.44-0.007-0.672-0.014
			c-0.056,0.357-0.077,0.63-0.077,0.904c0,0.329,0.112,0.595,0.322,0.77c0.245,0.203,0.623,0.294,1.113,0.294
			c1.03,0,1.646-0.448,1.646-1.184c0-0.385-0.147-0.771-0.428-1.1c-0.042-0.049-0.063-0.112-0.063-0.168
			c0-0.084,0.049-0.168,0.126-0.224c0.056-0.035,0.111-0.049,0.168-0.049c0.084,0,0.168,0.042,0.238,0.126
			c0.343,0.414,0.546,0.925,0.546,1.387c0,1.135-0.875,1.772-2.213,1.772c-0.645,0-1.156-0.126-1.506-0.406
			c-0.336-0.266-0.512-0.651-0.512-1.239c0-0.259,0.021-0.54,0.07-0.911c-0.399-0.035-0.806-0.084-1.163-0.154
			c-0.133-0.028-0.217-0.133-0.217-0.266c0-0.021,0-0.035,0.007-0.056c0.021-0.147,0.119-0.231,0.245-0.231
			c0.015,0,0.035,0,0.057,0.007c0.343,0.063,0.735,0.112,1.155,0.147c0.056-0.385,0.126-0.792,0.203-1.17
			c-0.441-0.028-0.854-0.077-1.247-0.14c-0.126-0.014-0.203-0.126-0.203-0.252c0-0.021,0-0.042,0.008-0.063
			c0.021-0.133,0.111-0.217,0.238-0.217c0.014,0,0.034,0,0.049,0c0.343,0.049,0.749,0.098,1.253,0.126
			c0.057-0.315,0.127-0.645,0.183-0.953c0.028-0.154,0.119-0.231,0.259-0.231c0.021,0,0.042,0,0.07,0.007
			c0.168,0.021,0.231,0.133,0.231,0.252c0,0.021,0,0.049-0.007,0.07c-0.063,0.287-0.127,0.588-0.183,0.882c0.091,0,0.189,0,0.287,0
			c0.399,0,0.819-0.014,1.261-0.056c0.007,0,0.021,0,0.028,0c0.146,0,0.245,0.098,0.252,0.238c0,0.007,0,0.014,0,0.028
			c0,0.154-0.063,0.266-0.217,0.28c-0.399,0.035-0.806,0.056-1.212,0.056c-0.168,0-0.344,0-0.512-0.007
			c-0.077,0.385-0.146,0.799-0.203,1.177C31.792,22.65,32.002,22.658,32.205,22.658z"/>
		<path d="M37.601,23.26c0.609-0.56,1.443-0.952,2.486-0.952c1.198,0,1.934,0.672,1.934,1.59c0,1.113-0.995,1.807-2.696,1.807
			c-0.582,0-1.191-0.077-1.583-0.203c-0.133-0.042-0.225-0.14-0.225-0.287c0-0.028,0-0.056,0.008-0.084
			c0.042-0.14,0.14-0.21,0.259-0.21c0.035,0,0.063,0.007,0.098,0.014c0.364,0.105,0.938,0.182,1.437,0.182
			c1.288,0,2.101-0.477,2.101-1.254c0-0.532-0.469-1.016-1.358-1.016c-0.967,0-1.766,0.35-2.36,0.959
			c-0.126,0.126-0.231,0.189-0.357,0.189c-0.035,0-0.07-0.007-0.105-0.014c-0.16-0.028-0.252-0.133-0.252-0.336
			c0-0.021,0-0.056,0.007-0.084c0.077-0.729,0.225-1.499,0.386-2.178c0.028-0.147,0.126-0.238,0.266-0.238
			c0.021,0,0.042,0,0.063,0.007c0.147,0.021,0.238,0.105,0.238,0.238c0,0.028,0,0.056-0.007,0.084
			c-0.126,0.532-0.245,1.092-0.273,1.316c-0.021,0.161-0.049,0.294-0.098,0.448L37.601,23.26z M40.921,20.325
			c0.154,0.014,0.28,0.14,0.28,0.287c0,0.014,0,0.021,0,0.035c-0.021,0.168-0.147,0.273-0.315,0.273c-0.007,0-0.021,0-0.028,0
			c-0.861-0.056-2.01-0.252-2.801-0.462c-0.134-0.035-0.203-0.147-0.203-0.266c0-0.035,0.007-0.063,0.014-0.098
			c0.035-0.133,0.14-0.217,0.259-0.217c0.028,0,0.05,0,0.077,0.007C38.932,20.087,40.066,20.255,40.921,20.325z"/>
		<path d="M45.119,21.551c-0.441,0.028-0.91,0.042-1.31,0.042c-0.154,0-0.245-0.119-0.245-0.273c0-0.168,0.084-0.273,0.238-0.273
			c0.392,0,0.854-0.014,1.316-0.049v-1.113c0-0.161,0.112-0.245,0.273-0.245c0.168,0,0.273,0.091,0.273,0.252v1.064
			c0.448-0.035,0.882-0.091,1.239-0.161c0.028-0.007,0.049-0.007,0.07-0.007c0.126,0,0.217,0.07,0.245,0.21
			c0.007,0.028,0.007,0.056,0.007,0.077c0,0.14-0.084,0.224-0.217,0.252c-0.393,0.077-0.862,0.133-1.345,0.175v1.226
			c0.49-0.147,1.008-0.238,1.491-0.238c1.232,0,1.968,0.609,1.968,1.604c0,0.938-0.616,1.541-1.456,1.541
			c-0.519,0-0.96-0.189-1.233-0.595c-0.042-0.063-0.063-0.133-0.063-0.196c0-0.091,0.042-0.175,0.119-0.231
			c0.063-0.042,0.126-0.063,0.196-0.063c0.084,0,0.168,0.035,0.23,0.126c0.183,0.245,0.406,0.385,0.735,0.385
			c0.477,0,0.883-0.35,0.883-0.959c0-0.672-0.47-1.1-1.4-1.1c-0.47,0-0.995,0.098-1.471,0.266v1.59c0,0.539-0.273,0.805-0.792,0.805
			c-0.245,0-0.553-0.098-0.833-0.294c-0.322-0.21-0.561-0.511-0.561-0.875c0-0.203,0.077-0.399,0.21-0.588
			c0.273-0.371,0.791-0.75,1.429-1.001V21.551z M45.119,23.47c-0.441,0.203-0.784,0.462-0.945,0.679
			c-0.084,0.112-0.126,0.238-0.126,0.343c0,0.168,0.133,0.322,0.301,0.434c0.147,0.098,0.336,0.161,0.47,0.161
			c0.21,0,0.301-0.091,0.301-0.357V23.47z M49.405,21.46c0.05,0.063,0.077,0.14,0.077,0.21c0,0.077-0.027,0.154-0.084,0.21
			c-0.063,0.056-0.133,0.084-0.21,0.084s-0.154-0.028-0.217-0.098c-0.357-0.413-0.876-0.861-1.317-1.135
			c-0.077-0.049-0.119-0.119-0.119-0.196c0-0.063,0.021-0.126,0.07-0.189c0.057-0.07,0.133-0.105,0.225-0.105
			c0.049,0,0.111,0.014,0.161,0.042C48.467,20.557,49.049,21.033,49.405,21.46z"/>
		<path d="M54.409,25.158c-0.546,0.301-1.33,0.532-2.003,0.616c-0.021,0.007-0.042,0.007-0.063,0.007
			c-0.161,0-0.26-0.098-0.295-0.252c-0.007-0.021-0.007-0.049-0.007-0.07c0-0.147,0.091-0.259,0.252-0.287
			c0.631-0.084,1.387-0.294,1.87-0.567c0.68-0.385,0.995-0.917,0.995-1.527c0-0.574-0.371-0.973-1.366-0.973
			c-0.735,0-1.744,0.217-2.535,0.462c-0.035,0.007-0.07,0.014-0.105,0.014c-0.118,0-0.224-0.07-0.272-0.21
			c-0.007-0.035-0.015-0.07-0.015-0.105c0-0.14,0.084-0.252,0.218-0.287c0.791-0.246,1.891-0.441,2.696-0.441
			c1.338,0,1.989,0.63,1.989,1.513C55.769,23.939,55.32,24.654,54.409,25.158z M51.608,20.136c0-0.028,0.007-0.056,0.014-0.091
			c0.035-0.154,0.147-0.231,0.294-0.231c0.015,0,0.035,0,0.057,0c0.854,0.196,2.038,0.329,2.962,0.372
			c0.183,0.007,0.287,0.133,0.287,0.308c0,0,0,0.007,0,0.014c-0.007,0.168-0.119,0.266-0.301,0.266c-0.007,0-0.014,0-0.021,0
			c-0.924-0.021-2.241-0.182-3.067-0.371C51.685,20.367,51.608,20.27,51.608,20.136z"/>
		<path d="M59.483,24.885c0,0.603-0.49,1.093-1.093,1.093s-1.093-0.49-1.093-1.093c0-0.602,0.49-1.092,1.093-1.092
			S59.483,24.283,59.483,24.885z M57.739,24.885c0,0.35,0.302,0.651,0.651,0.651c0.351,0,0.651-0.301,0.651-0.651
			s-0.301-0.651-0.651-0.651C58.041,24.233,57.739,24.535,57.739,24.885z"/>
	</g>
	<path fill-rule="evenodd" clip-rule="evenodd" fill="#FFFFFF" stroke="#000000" stroke-width="0.75" d="M91.861,23.196h49.465
		c6.025,0,7.647,2.365,7.647,5.282c0,2.917-1.622,5.282-7.647,5.282H99.927l-7.943,3.478l0.921-3.478h-1.043
		c-6.026,0-8.347-2.365-8.347-5.282C83.515,25.561,85.835,23.196,91.861,23.196z"/>
	<g>
		<path d="M88.349,27.31c-0.175,0.54-0.42,1.037-0.722,1.464c-0.063,0.077-0.14,0.119-0.224,0.119c-0.057,0-0.112-0.021-0.154-0.056
			c-0.063-0.049-0.098-0.126-0.098-0.203c0-0.056,0.021-0.112,0.056-0.161c0.497-0.693,0.806-1.52,0.91-2.479h-0.609
			c-0.133,0-0.203-0.098-0.203-0.245c0-0.14,0.07-0.231,0.203-0.231h2.375c0.133,0,0.195,0.091,0.195,0.231
			c0,0.14-0.063,0.245-0.195,0.245h-1.247c-0.035,0.294-0.091,0.582-0.161,0.869h0.771c0.294,0,0.483,0.133,0.483,0.469
			c0,0.021,0,0.049,0,0.07c-0.105,1.674-0.771,3.074-1.976,4.083c-0.049,0.042-0.111,0.07-0.182,0.07s-0.147-0.028-0.21-0.105
			c-0.042-0.049-0.07-0.112-0.07-0.182c0-0.07,0.035-0.14,0.105-0.203c0.623-0.518,1.071-1.106,1.372-1.765
			c-0.224-0.238-0.427-0.441-0.609-0.582c-0.063-0.049-0.098-0.112-0.098-0.182c0-0.056,0.014-0.105,0.056-0.154
			c0.05-0.063,0.112-0.098,0.183-0.098c0.042,0,0.091,0.014,0.133,0.042c0.161,0.112,0.351,0.301,0.525,0.483
			c0.133-0.414,0.217-0.854,0.252-1.324c0-0.007,0-0.021,0-0.028c0-0.112-0.049-0.147-0.188-0.147H88.349z M93.23,26.091
			c0.007,0,0.014,0,0.021,0c0.105,0,0.168,0.084,0.183,0.203c0,0.014,0,0.035,0,0.049c0,0.119-0.049,0.196-0.161,0.21l-1.758,0.161
			c0.014,0.21,0.027,0.42,0.042,0.623l1.568-0.161c0.007,0,0.015,0,0.021,0c0.104,0,0.175,0.077,0.182,0.196
			c0,0.014,0,0.021,0,0.028c0,0.112-0.042,0.203-0.154,0.217l-1.568,0.168c0.028,0.231,0.049,0.456,0.091,0.687l1.737-0.203
			c0.007,0,0.014,0,0.021,0c0.119,0,0.196,0.084,0.203,0.21c0,0.007,0,0.021,0,0.028c0,0.119-0.049,0.217-0.168,0.231l-1.694,0.196
			c0.049,0.224,0.104,0.427,0.175,0.609c0.028,0.077,0.049,0.147,0.077,0.217c0.245-0.189,0.469-0.392,0.679-0.609
			c0.042-0.049,0.112-0.077,0.176-0.077c0.063,0,0.119,0.021,0.168,0.063c0.063,0.049,0.091,0.112,0.091,0.182
			c0,0.063-0.028,0.133-0.084,0.189c-0.238,0.266-0.504,0.511-0.799,0.729c0.196,0.336,0.406,0.567,0.638,0.707
			C92.971,30.979,93.027,31,93.069,31c0.056,0,0.098-0.028,0.126-0.084c0.063-0.119,0.105-0.343,0.126-0.595
			c0.007-0.105,0.084-0.175,0.217-0.175c0.015,0,0.028,0,0.05,0c0.14,0.021,0.188,0.119,0.188,0.231c0,0.007,0,0.014,0,0.021
			c-0.021,0.371-0.104,0.792-0.294,1.001c-0.098,0.105-0.224,0.161-0.371,0.161c-0.126,0-0.267-0.042-0.406-0.126
			c-0.294-0.175-0.589-0.498-0.834-0.917c-0.644,0.42-1.379,0.735-2.143,0.959c-0.042,0.007-0.077,0.014-0.105,0.014
			c-0.119,0-0.224-0.063-0.252-0.189c-0.014-0.028-0.014-0.056-0.014-0.084c0-0.119,0.077-0.231,0.203-0.266
			c0.777-0.217,1.471-0.519,2.073-0.904c-0.021-0.056-0.042-0.112-0.063-0.168c-0.104-0.266-0.189-0.56-0.259-0.889l-1.303,0.154
			c-0.007,0-0.015,0-0.015,0c-0.118,0-0.195-0.084-0.21-0.21c0-0.014,0-0.035,0-0.049c0-0.105,0.049-0.189,0.168-0.21l1.261-0.147
			c-0.035-0.231-0.069-0.462-0.098-0.693l-0.896,0.098c-0.007,0-0.021,0-0.028,0c-0.112,0-0.182-0.084-0.196-0.203
			c0-0.014,0-0.028,0-0.035c0-0.112,0.057-0.189,0.176-0.21l0.896-0.091c-0.021-0.21-0.042-0.42-0.057-0.63l-0.974,0.091
			c-0.007,0-0.021,0-0.027,0c-0.112,0-0.183-0.091-0.189-0.217c0-0.007,0-0.014,0-0.028c0-0.119,0.049-0.203,0.168-0.217
			l1.002-0.091c-0.015-0.301-0.021-0.603-0.028-0.917c0-0.133,0.099-0.21,0.252-0.21c0.161,0,0.267,0.07,0.267,0.21
			c0,0.301,0.007,0.588,0.014,0.868L93.23,26.091z M92.817,25.594c0.077,0.042,0.126,0.105,0.126,0.189
			c0,0.035-0.007,0.07-0.028,0.105c-0.035,0.07-0.112,0.119-0.196,0.119c-0.042,0-0.077-0.007-0.111-0.028
			c-0.218-0.119-0.54-0.266-0.75-0.364c-0.07-0.028-0.098-0.098-0.098-0.168c0-0.035,0.007-0.077,0.027-0.112
			c0.042-0.077,0.112-0.119,0.196-0.119c0.028,0,0.063,0.007,0.099,0.021C92.271,25.307,92.579,25.447,92.817,25.594z"/>
		<path d="M95.839,28.22c0.119-0.546,0.245-0.917,0.393-1.205c0.406-0.792,1.016-1.198,1.652-1.198c0.967,0,1.779,0.721,1.779,2.332
			c0,1.219-0.393,2.059-1.135,2.592c-0.49,0.35-1.212,0.602-1.947,0.693c-0.021,0-0.035,0-0.049,0c-0.154,0-0.28-0.084-0.308-0.238
			c-0.008-0.028-0.008-0.056-0.008-0.077c0-0.154,0.099-0.259,0.267-0.28c0.7-0.091,1.316-0.308,1.729-0.623
			c0.567-0.435,0.848-1.114,0.848-2.087c0-1.155-0.525-1.758-1.219-1.758c-0.561,0-1.058,0.406-1.394,1.127
			c-0.267,0.567-0.427,1.24-0.427,1.772c0,0.203-0.092,0.329-0.288,0.343c-0.007,0-0.014,0-0.014,0
			c-0.154,0-0.273-0.091-0.315-0.294c-0.056-0.329-0.098-0.792-0.098-1.24c0-0.785,0.168-1.716,0.385-2.549
			c0.05-0.168,0.147-0.245,0.28-0.245c0.028,0,0.05,0,0.07,0.007c0.147,0.021,0.225,0.105,0.225,0.231
			c0,0.035-0.008,0.077-0.021,0.119c-0.168,0.624-0.329,1.38-0.371,1.849c-0.021,0.224-0.049,0.483-0.077,0.721L95.839,28.22z"/>
		<path d="M102.776,25.692c0,0.042-0.008,0.077-0.021,0.126c-0.238,0.917-0.406,2.101-0.406,3.061c0,0.721,0.084,1.45,0.21,2.045
			c0.007,0.042,0.015,0.084,0.015,0.119c0,0.154-0.063,0.252-0.218,0.28c-0.027,0.007-0.063,0.007-0.084,0.007
			c-0.154,0-0.252-0.098-0.287-0.266c-0.14-0.609-0.217-1.358-0.217-2.178c0-0.966,0.168-2.269,0.413-3.193
			c0.049-0.175,0.147-0.245,0.287-0.245c0.028,0,0.056,0,0.091,0.007C102.699,25.481,102.776,25.565,102.776,25.692z
			 M107.111,26.609c0.021-0.007,0.042-0.007,0.063-0.007c0.141,0,0.231,0.091,0.238,0.224c0.007,0.021,0.007,0.042,0.007,0.063
			c0,0.147-0.069,0.231-0.21,0.259c-0.322,0.063-0.693,0.105-1.1,0.14c0.007,0.413,0.015,0.792,0.042,1.142
			c0.021,0.266,0.057,0.624,0.077,0.924c0.421,0.196,0.911,0.546,1.219,0.869c0.057,0.056,0.091,0.14,0.091,0.217
			s-0.027,0.154-0.084,0.217c-0.063,0.063-0.14,0.091-0.21,0.091s-0.146-0.028-0.203-0.091c-0.273-0.301-0.539-0.525-0.806-0.693
			c0.008,0.063,0.008,0.14,0.008,0.189c0,0.742-0.505,1.092-1.387,1.092c-0.862,0-1.422-0.427-1.422-1.127
			c0-0.624,0.525-1.079,1.358-1.079c0.315,0,0.609,0.049,0.868,0.126c-0.021-0.231-0.042-0.511-0.056-0.742
			c-0.021-0.336-0.035-0.701-0.042-1.1c-0.386,0.021-0.813,0.035-1.232,0.035c-0.245,0-0.49-0.007-0.729-0.014
			c-0.183-0.007-0.26-0.119-0.26-0.287c0-0.161,0.092-0.266,0.253-0.266c0,0,0.007,0,0.014,0c0.252,0.007,0.519,0.014,0.784,0.014
			c0.379,0,0.771-0.007,1.156-0.035c-0.008-0.351-0.015-0.714-0.015-1.072c0-0.182,0.099-0.273,0.267-0.273
			c0.182,0,0.294,0.098,0.294,0.266c0,0.119,0,0.238,0,0.357c0,0.238,0,0.469,0,0.687C106.438,26.7,106.789,26.665,107.111,26.609z
			 M104.793,29.53c-0.497,0-0.819,0.238-0.819,0.595c0,0.357,0.322,0.596,0.833,0.596c0.673,0,0.904-0.238,0.904-0.806
			c0-0.063-0.008-0.112-0.015-0.196C105.409,29.593,105.115,29.53,104.793,29.53z"/>
		<path d="M114.419,30.755c0.141,0,0.218,0.119,0.218,0.266c0,0.147-0.077,0.28-0.218,0.28h-5.918c-0.14,0-0.217-0.133-0.217-0.28
			c0-0.147,0.077-0.266,0.217-0.266h2.459v-5.253c0-0.147,0.118-0.231,0.294-0.231c0.168,0,0.28,0.084,0.28,0.231v1.933h2.332
			c0.133,0,0.217,0.112,0.217,0.266c0,0.154-0.084,0.28-0.217,0.28h-2.332v2.773H114.419z"/>
		<path d="M115.508,26.813c-0.133,0-0.21-0.119-0.21-0.266c0-0.154,0.077-0.273,0.21-0.273h2.627v-0.896
			c0-0.133,0.126-0.203,0.287-0.203s0.287,0.07,0.287,0.203v0.896h2.718c0.133,0,0.203,0.126,0.203,0.273
			c0,0.147-0.07,0.266-0.203,0.266h-3.299c-0.021,0.308-0.042,0.623-0.084,0.931h2.045c0.434,0,0.63,0.175,0.63,0.603
			c0,0.995-0.182,2.087-0.35,2.542c-0.154,0.434-0.428,0.595-0.938,0.595c-0.302,0-0.603-0.028-0.854-0.084
			c-0.134-0.021-0.21-0.119-0.21-0.252c0-0.028,0-0.056,0.014-0.084c0.028-0.14,0.112-0.217,0.231-0.217
			c0.027,0,0.056,0.007,0.091,0.014c0.182,0.035,0.448,0.077,0.665,0.077c0.329,0,0.441-0.084,0.512-0.329
			c0.119-0.42,0.28-1.296,0.28-2.136c0-0.154-0.077-0.196-0.231-0.196h-1.976c-0.329,1.597-1.064,2.493-2.213,3.187
			c-0.063,0.035-0.133,0.056-0.196,0.056c-0.084,0-0.168-0.035-0.217-0.112c-0.042-0.056-0.063-0.126-0.063-0.189
			c0-0.091,0.042-0.175,0.134-0.224c1.38-0.777,2.087-2.031,2.136-4.181H115.508z"/>
		<path d="M123.846,25.706c0,0.028-0.007,0.056-0.014,0.091c-0.252,0.932-0.386,2.038-0.386,3.061c0,0.693,0.063,1.436,0.183,2.087
			c0.007,0.035,0.007,0.07,0.007,0.105c0,0.161-0.091,0.245-0.238,0.28c-0.027,0.007-0.056,0.007-0.077,0.007
			c-0.133,0-0.237-0.077-0.272-0.266c-0.134-0.645-0.196-1.401-0.196-2.186c0-1.092,0.133-2.227,0.399-3.214
			c0.042-0.147,0.153-0.21,0.279-0.21c0.028,0,0.05,0,0.077,0.007C123.748,25.489,123.846,25.573,123.846,25.706z M125.45,28.661
			c0,0.07-0.035,0.133-0.092,0.189c-0.294,0.28-0.406,0.546-0.406,0.813c0,0.434,0.379,0.658,1.359,0.658
			c0.603,0,1.246-0.063,1.723-0.168c0.028-0.007,0.056-0.007,0.084-0.007c0.141,0,0.245,0.091,0.273,0.231
			c0.007,0.028,0.007,0.049,0.007,0.077c0,0.14-0.084,0.273-0.238,0.301c-0.519,0.105-1.135,0.154-1.779,0.154
			c-1.288,0-1.975-0.364-1.975-1.247c0-0.427,0.175-0.827,0.532-1.163c0.077-0.07,0.161-0.105,0.238-0.105
			c0.063,0,0.126,0.028,0.182,0.077C125.422,28.535,125.45,28.598,125.45,28.661z M127.838,26.217c0.175,0,0.267,0.098,0.287,0.259
			c0,0.007,0,0.014,0,0.021c0,0.161-0.069,0.294-0.272,0.315c-0.589,0.07-1.43,0.105-2.192,0.105c-0.26,0-0.512-0.007-0.742-0.014
			c-0.218-0.007-0.295-0.147-0.295-0.308c0.007-0.154,0.105-0.294,0.287-0.294c0.008,0,0.008,0,0.015,0
			c0.224,0.007,0.476,0.014,0.735,0.014c0.742,0,1.555-0.035,2.122-0.098C127.803,26.217,127.817,26.217,127.838,26.217z"/>
		<path d="M130.691,30.16c0.225,0.42,0.505,0.616,0.876,0.7c0.329,0.07,0.777,0.098,1.38,0.098c0.861,0,1.807-0.035,2.528-0.091
			c0.007,0,0.007,0,0.014,0c0.147,0,0.252,0.084,0.26,0.259c0,0.007,0,0.021,0,0.028c0,0.154-0.112,0.252-0.26,0.259
			c-0.714,0.035-1.702,0.056-2.535,0.056c-0.609,0-1.155-0.035-1.506-0.133c-0.42-0.112-0.784-0.364-1.029-0.777
			c-0.28,0.329-0.582,0.623-0.883,0.847c-0.042,0.028-0.084,0.042-0.133,0.042c-0.077,0-0.161-0.042-0.217-0.119
			c-0.035-0.056-0.057-0.112-0.057-0.168c0-0.077,0.035-0.147,0.099-0.189c0.301-0.224,0.658-0.519,0.938-0.84v-1.548
			c0-0.14-0.042-0.175-0.169-0.175h-0.588c-0.126,0-0.21-0.084-0.21-0.238c0-0.161,0.084-0.245,0.21-0.245h0.764
			c0.364,0,0.518,0.189,0.518,0.561V30.16z M130.699,26.413c0.034,0.063,0.056,0.119,0.056,0.175c0,0.084-0.042,0.147-0.119,0.21
			c-0.063,0.042-0.133,0.063-0.196,0.063c-0.077,0-0.146-0.035-0.203-0.119c-0.217-0.371-0.539-0.784-0.798-1.058
			c-0.035-0.042-0.057-0.091-0.057-0.14c0-0.07,0.035-0.14,0.105-0.196c0.063-0.042,0.133-0.07,0.196-0.07
			c0.063,0,0.126,0.021,0.168,0.063C130.146,25.65,130.51,26.105,130.699,26.413z M134.999,25.342c0.393,0,0.581,0.147,0.581,0.539
			v0.497c0,0.133-0.104,0.21-0.259,0.21c-0.161,0-0.259-0.077-0.259-0.21v-0.434c0-0.126-0.063-0.161-0.189-0.161H131.7
			c-0.119,0-0.188,0.035-0.188,0.161v0.434c0,0.133-0.099,0.21-0.253,0.21c-0.153,0-0.252-0.077-0.252-0.21v-0.497
			c0-0.392,0.189-0.539,0.567-0.539H134.999z M133.01,26.721h-1.19c-0.112,0-0.168-0.084-0.168-0.203
			c0-0.126,0.056-0.203,0.161-0.203h1.197v-0.196c0-0.133,0.092-0.203,0.245-0.203c0.154,0,0.231,0.07,0.231,0.203v0.196h1.239
			c0.112,0,0.176,0.077,0.176,0.203c0,0.119-0.063,0.203-0.168,0.203h-1.247v0.406h1.142c0.385,0,0.567,0.147,0.567,0.498v1.142
			c0,0.35-0.183,0.497-0.567,0.497h-1.142v0.434h1.912c0.105,0,0.182,0.07,0.182,0.203c0,0.14-0.076,0.217-0.182,0.217h-1.912v0.476
			c0,0.133-0.077,0.203-0.231,0.203c-0.153,0-0.245-0.07-0.245-0.203v-0.476h-1.813c-0.105,0-0.183-0.077-0.183-0.217
			c0-0.133,0.07-0.203,0.176-0.203h1.82v-0.434h-1.1c-0.385,0-0.567-0.147-0.567-0.497v-1.142c0-0.351,0.183-0.498,0.567-0.498h1.1
			V26.721z M132.016,27.513c-0.126,0-0.183,0.035-0.183,0.161v0.322h1.177v-0.483H132.016z M131.833,28.374v0.351
			c0,0.119,0.057,0.154,0.183,0.154h0.994v-0.504H131.833z M134.705,27.996v-0.322c0-0.126-0.063-0.161-0.183-0.161h-1.036v0.483
			H134.705z M134.522,28.878c0.119,0,0.183-0.035,0.183-0.154v-0.351h-1.219v0.504H134.522z"/>
		<path d="M137.629,28.388c0,0.028,0,0.056-0.007,0.084c-0.168,0.777-0.421,1.639-0.722,2.249c-0.077,0.14-0.182,0.203-0.294,0.203
			c-0.049,0-0.099-0.014-0.141-0.028c-0.104-0.056-0.168-0.14-0.168-0.259c0-0.049,0.015-0.105,0.042-0.161
			c0.294-0.595,0.561-1.394,0.708-2.143c0.027-0.147,0.133-0.217,0.259-0.217c0.028,0,0.056,0,0.084,0.007
			C137.538,28.15,137.629,28.248,137.629,28.388z M140.01,26.455c-0.756-0.007-1.681-0.203-2.318-0.406
			c-0.111-0.042-0.168-0.14-0.168-0.252c0-0.042,0.007-0.084,0.021-0.119c0.049-0.119,0.133-0.175,0.238-0.175
			c0.035,0,0.077,0.007,0.119,0.021c0.665,0.21,1.793,0.42,2.851,0.512c0.175,0.014,0.272,0.112,0.287,0.287
			c0,0.007,0,0.021,0,0.035c0,0.154-0.092,0.259-0.231,0.294c-0.834,0.224-1.611,0.623-1.611,1.037c0,0.287,0.126,0.434,0.687,0.924
			c0.512,0.448,0.757,0.882,0.757,1.401c0,0.784-0.561,1.253-1.443,1.253c-0.518,0-1.071-0.203-1.478-0.574
			c-0.077-0.07-0.112-0.154-0.112-0.231c0-0.07,0.028-0.14,0.077-0.196c0.057-0.056,0.141-0.105,0.238-0.105
			c0.063,0,0.126,0.021,0.189,0.077c0.28,0.266,0.693,0.455,1.058,0.455c0.553,0,0.868-0.266,0.868-0.693
			c0-0.35-0.175-0.672-0.658-1.106c-0.561-0.498-0.742-0.756-0.742-1.184c0-0.54,0.588-1.001,1.38-1.212L140.01,26.455z
			 M142.553,30.518c0,0.133-0.077,0.238-0.21,0.28c-0.035,0.007-0.063,0.014-0.092,0.014c-0.126,0-0.238-0.084-0.272-0.238
			c-0.176-0.651-0.525-1.548-0.876-2.101c-0.021-0.042-0.035-0.084-0.035-0.126c0-0.112,0.07-0.203,0.168-0.252
			c0.042-0.014,0.084-0.021,0.119-0.021c0.105,0,0.203,0.049,0.253,0.14c0.356,0.582,0.77,1.534,0.938,2.22
			C142.553,30.461,142.553,30.489,142.553,30.518z M142.104,27.499c0,0.077-0.035,0.154-0.119,0.196
			c-0.035,0.021-0.077,0.035-0.119,0.035c-0.084,0-0.168-0.035-0.225-0.133c-0.111-0.196-0.272-0.476-0.406-0.658
			c-0.027-0.042-0.042-0.084-0.042-0.126c0-0.077,0.042-0.147,0.119-0.189c0.042-0.028,0.092-0.042,0.141-0.042
			c0.069,0,0.133,0.035,0.182,0.098c0.147,0.203,0.322,0.483,0.435,0.679C142.09,27.408,142.104,27.45,142.104,27.499z
			 M142.825,27.106c0,0.084-0.049,0.161-0.118,0.203c-0.035,0.014-0.07,0.021-0.112,0.021c-0.084,0-0.176-0.042-0.238-0.14
			c-0.091-0.161-0.245-0.413-0.371-0.595c-0.028-0.042-0.042-0.084-0.042-0.119c0-0.077,0.049-0.154,0.126-0.189
			c0.042-0.021,0.084-0.035,0.126-0.035c0.07,0,0.133,0.028,0.189,0.091c0.14,0.175,0.287,0.42,0.398,0.616
			C142.812,27.008,142.825,27.058,142.825,27.106z"/>
		<path d="M145.532,30.489c0,0.603-0.49,1.093-1.093,1.093s-1.093-0.49-1.093-1.093c0-0.602,0.49-1.092,1.093-1.092
			S145.532,29.887,145.532,30.489z M143.788,30.489c0,0.35,0.302,0.651,0.651,0.651c0.351,0,0.651-0.301,0.651-0.651
			s-0.301-0.651-0.651-0.651C144.09,29.838,143.788,30.139,143.788,30.489z"/>
	</g>
	<circle cx="133.864" cy="42.953" r="6.468"/>
</g>
</svg>
