<?xml version="1.0" encoding="utf-8"?>
<!-- Generator: Adobe Illustrator 16.0.0, SVG Export Plug-In . SVG Version: 6.00 Build 0)  -->
<!DOCTYPE svg PUBLIC "-//W3C//DTD SVG 1.1//EN" "http://www.w3.org/Graphics/SVG/1.1/DTD/svg11.dtd">
<svg version="1.1" id="レイヤー_1" xmlns="http://www.w3.org/2000/svg" xmlns:xlink="http://www.w3.org/1999/xlink" x="0px"
	 y="0px" width="285.013px" height="204.37px" viewBox="0 0 285.013 204.37" enable-background="new 0 0 285.013 204.37"
	 xml:space="preserve">
<path fill="none" stroke="#231815" stroke-miterlimit="10" d="M284.513,173.538c0,16.751-13.579,30.332-30.333,30.332H30.833
	c-16.753,0-30.333-13.581-30.333-30.332V78.15c0-16.75,13.579-30.332,30.333-30.332H254.18c16.754,0,30.333,13.582,30.333,30.332
	V173.538z"/>
<g>
	<path d="M32.895,172.44c0-0.813-0.043-1.52-0.149-2.248H34.5c-0.106,0.707-0.149,1.393-0.149,2.248v4.604h4.988
		c1.113,0,1.713-0.043,2.312-0.129v1.563c-0.663-0.086-1.263-0.107-2.312-0.107h-4.988v8.543h6.594c1.006,0,1.756-0.043,2.419-0.129
		v1.627c-0.792-0.107-1.498-0.15-2.419-0.15H26.879c-0.963,0-1.755,0.043-2.547,0.15v-1.627c0.663,0.086,1.455,0.129,2.547,0.129
		h6.016v-8.543h-4.495c-1.049,0-1.713,0.021-2.334,0.107v-1.563c0.557,0.086,1.285,0.129,2.334,0.129h4.495V172.44z"/>
	<path d="M48.28,172.655c0-1.007-0.043-1.756-0.128-2.377h1.584c-0.086,0.686-0.129,1.327-0.129,2.398v3.189h0.6
		c0.899,0,1.306-0.021,1.713-0.107v1.392c-0.535-0.064-0.984-0.085-1.734-0.085h-0.578v6.722c0.921-0.429,1.307-0.621,2.42-1.241
		l0.128,1.305c-2.076,1.156-3.104,1.627-5.523,2.612c-0.3,0.106-0.62,0.257-0.856,0.364l-0.363-1.478
		c0.771-0.128,1.327-0.321,2.868-0.964v-7.32h-0.792c-0.899,0-1.241,0.021-1.798,0.128v-1.456c0.492,0.107,0.92,0.129,1.798,0.129
		h0.792V172.655z M54.831,186.527c0,0.514,0.129,0.685,0.643,0.813c0.514,0.149,1.478,0.192,3.446,0.192
		c3.019,0,3.918-0.128,4.261-0.62c0.278-0.386,0.428-1.371,0.449-2.891c0.492,0.3,0.749,0.406,1.37,0.557
		c-0.257,3.961-0.642,4.217-6.208,4.217c-4.432,0-5.31-0.32-5.31-1.99v-7.857l-0.471,0.15c-1.199,0.406-1.284,0.449-1.777,0.686
		l-0.385-1.457c0.6-0.063,1.178-0.191,1.862-0.428l0.771-0.257v-3.36c0-0.9-0.043-1.563-0.128-2.184h1.605
		c-0.086,0.642-0.129,1.263-0.129,2.119v2.997l3.062-1.028v-3.96c0-0.835-0.043-1.349-0.128-1.991h1.584
		c-0.086,0.621-0.129,1.242-0.129,2.013v3.511l3.297-1.092c0.664-0.214,1.113-0.406,1.691-0.664
		c-0.086,2.141-0.171,3.64-0.343,5.738c-0.149,1.904-0.428,2.805-0.984,3.125c-0.386,0.215-0.792,0.3-1.541,0.3
		c-0.193,0-0.45-0.021-0.942-0.063c-0.064-0.557-0.149-0.9-0.321-1.35c0.578,0.129,1.135,0.193,1.648,0.193
		c0.492,0,0.6-0.107,0.707-0.729c0.149-0.792,0.257-2.376,0.342-5.416l-3.554,1.221v5.908c0,0.856,0.043,1.434,0.129,2.055h-1.584
		c0.085-0.6,0.128-1.198,0.128-2.076v-5.438l-3.062,1.027V186.527z"/>
	<path d="M78.374,179.698c0,0.963-0.793,1.756-1.756,1.756c-0.964,0-1.756-0.793-1.756-1.756c0-0.964,0.792-1.756,1.756-1.756
		C77.581,177.942,78.374,178.734,78.374,179.698z"/>
	<path d="M98.854,170.3c-0.064,0.363-0.107,1.221-0.107,1.905c0,1.263,0.214,3.446,0.472,4.646c0.363,1.713,1.52,4.238,2.761,5.994
		c0.856,1.199,2.013,2.42,3.169,3.383c0.685,0.578,1.241,0.941,2.483,1.67c-0.514,0.471-0.749,0.728-1.113,1.349
		c-2.612-1.776-4.153-3.275-5.673-5.48c-1.328-1.948-2.142-3.939-2.783-6.808c-0.386,2.033-0.749,3.189-1.478,4.773
		c-0.749,1.648-1.691,3.019-3.062,4.389c-1.198,1.242-2.076,1.948-3.938,3.126c-0.364-0.578-0.621-0.856-1.156-1.263
		c2.162-1.199,3.126-1.906,4.367-3.233c2.976-3.189,4.432-7.3,4.432-12.566c0-0.899-0.021-1.327-0.086-1.884H98.854z"/>
	<path d="M120.877,176.915c0.128,1.327,0.192,1.819,0.492,3.019l4.881-0.064c1.241,0,1.734-0.043,2.27-0.149v1.477
		c-0.792-0.064-0.792-0.064-2.248-0.064l-4.56,0.043c0.577,1.799,1.477,3.361,2.719,4.688c0.835,0.899,1.884,1.627,2.333,1.627
		c0.492,0,0.813-0.942,1.006-3.083c0.536,0.45,0.729,0.557,1.285,0.814c-0.471,2.847-1.027,3.811-2.162,3.811
		c-1.178,0-2.912-1.307-4.304-3.254c-1.049-1.456-1.733-2.826-2.29-4.582l-6.294,0.086v5.694c2.247-0.492,4.067-1.006,6.4-1.798
		l0.043,1.327c-3.297,1.092-5.116,1.584-8.756,2.333c-0.514,0.107-0.941,0.215-1.178,0.3l-0.363-1.541
		c0.557-0.021,1.306-0.128,2.462-0.343v-13.701c0-1.049-0.021-1.605-0.086-2.419c0.686,0.085,1.349,0.106,2.505,0.106h9.526
		c0.942,0,1.563-0.021,2.227-0.106c-0.064,0.429-0.064,0.749-0.064,1.712v2.549c0,0.791,0.021,1.198,0.064,1.584
		c-0.643-0.043-1.263-0.064-2.119-0.064H120.877z M114.005,175.716h11.367v-3.254h-11.367V175.716z M114.005,176.915v3.104
		l5.973-0.063c-0.214-1.028-0.343-1.798-0.492-3.04H114.005z"/>
</g>
<g>
	<path d="M27.895,138.563c0-0.749-0.037-1.124-0.131-1.629h1.479c-0.094,0.449-0.131,0.861-0.131,1.629v1.142h5.598
		c0.787,0,1.404-0.037,1.967-0.131v1.348c-0.543-0.074-1.161-0.111-1.967-0.111h-5.598v3.014h2.527c0.824,0,1.273-0.019,1.647-0.094
		l0.806,0.806c-0.225,0.262-0.355,0.449-0.655,0.917c-0.955,1.479-2.209,2.865-3.726,4.138c2.04,1.349,4.23,2.21,7.302,2.847
		c-0.356,0.467-0.506,0.711-0.712,1.254c-3.146-0.805-5.373-1.797-7.563-3.37c-2.359,1.647-4.644,2.64-7.639,3.295
		c-0.188-0.487-0.356-0.768-0.675-1.179c2.884-0.506,5.13-1.387,7.358-2.865c-0.861-0.711-1.535-1.423-2.153-2.246
		c-0.599-0.787-0.861-1.236-1.423-2.453h-0.243c-0.824,0-1.404,0.037-1.984,0.112v-1.273c0.486,0.075,1.123,0.112,2.003,0.112h3.913
		v-3.014h-5.317c-0.786,0-1.404,0.037-1.947,0.111v-1.348c0.562,0.094,1.18,0.131,1.966,0.131h5.299V138.563z M25.498,144.872
		c0.805,1.723,1.629,2.733,3.22,4.025c1.686-1.33,2.565-2.303,3.651-4.025H25.498z"/>
	<path d="M40.966,138.638c-0.73,0-1.348,0.037-1.854,0.111v-1.254c0.524,0.075,1.142,0.112,1.891,0.112h4.513
		c0.786,0,1.404-0.037,1.947-0.112v1.236c-0.506-0.057-1.104-0.094-1.873-0.094h-0.86v2.172h0.28c0.918,0,1.423-0.02,2.004-0.075
		c-0.057,0.58-0.075,1.048-0.075,1.835v9.023c0,0.73,0.037,1.498,0.094,1.93h-1.161v-0.824h-5.13v1.217h-1.198
		c0.094-0.618,0.131-1.18,0.131-2.322v-8.967c0-0.787-0.019-1.349-0.075-1.892c0.543,0.056,1.012,0.075,1.873,0.075h0.449v-2.172
		H40.966z M40.741,141.745v6.871h5.13v-2.115c-0.486,0.019-0.58,0.019-0.655,0.019c-1.18,0-1.404-0.131-1.404-0.843v-3.932h-0.974
		c-0.037,3.033-0.355,4.362-1.386,5.916c-0.187-0.28-0.43-0.543-0.692-0.748c0.506-0.712,0.749-1.367,0.937-2.341
		c0.149-0.749,0.187-1.311,0.225-2.827H40.741z M40.741,151.687h5.13v-2.115h-5.13V151.687z M42.838,140.81h0.974v-2.172h-0.974
		V140.81z M44.71,145.284c0,0.262,0.094,0.299,0.693,0.299c0.037,0,0.187-0.019,0.468-0.019v-3.819h-1.142L44.71,145.284z
		 M54.858,142.794c0,0.768,0.019,1.273,0.074,1.741c-0.543-0.056-1.011-0.075-1.815-0.075h-3.482v7.152
		c0,0.318,0.037,0.43,0.168,0.506c0.206,0.131,0.806,0.187,1.966,0.187c1.666,0,2.229-0.112,2.415-0.468
		c0.206-0.375,0.356-1.517,0.375-2.959c0.524,0.338,0.711,0.432,1.217,0.563c-0.3,3.801-0.486,3.988-4.175,3.988
		c-2.659,0-3.146-0.244-3.146-1.573v-6.759c0-0.843-0.019-1.311-0.094-1.816c0.58,0.057,1.049,0.075,1.816,0.075h3.501v-4.644H49.99
		c-0.937,0-1.404,0.02-1.91,0.094v-1.311c0.524,0.075,1.143,0.112,1.929,0.112h3.127c0.749,0,1.272-0.019,1.778-0.075
		c-0.037,0.469-0.056,0.806-0.056,1.836V142.794z"/>
</g>
<g>
	<path d="M97.96,144.31c0-0.411-0.019-0.729-0.057-1.104c0.394,0.037,0.806,0.056,1.33,0.056h4.063v-3.052h-4.4
		c-0.954,1.592-1.854,2.696-3.107,3.819c-0.3-0.431-0.487-0.618-0.898-0.898c1.854-1.573,2.864-2.939,3.744-5.036
		c0.243-0.543,0.375-0.975,0.468-1.367l1.33,0.375c-0.075,0.149-0.132,0.28-0.244,0.505l-0.711,1.517h9.286
		c0.824,0,1.217-0.019,1.686-0.094v1.273c-0.469-0.074-0.918-0.094-1.686-0.094h-4.231v3.052h3.389c0.768,0,1.18-0.019,1.667-0.094
		v1.235c-0.487-0.056-0.937-0.074-1.648-0.074h-3.407v3.67h4.719c0.842,0,1.366-0.038,1.891-0.113v1.349
		c-0.543-0.075-1.123-0.112-1.891-0.112h-4.719v3.09c0,0.805,0.038,1.254,0.131,1.74h-1.479c0.094-0.468,0.112-0.88,0.112-1.74
		v-3.09h-6.759c-0.768,0-1.349,0.037-1.892,0.112v-1.349c0.543,0.075,1.067,0.113,1.892,0.113h1.423V144.31z M103.296,147.999v-3.67
		h-4.119v3.67H103.296z"/>
	<path d="M119.644,151.612c-0.861,0.674-1.273,0.936-2.153,1.348c-1.067,0.543-1.741,0.787-3.22,1.198
		c-0.263-0.449-0.431-0.655-0.861-1.067c1.517-0.299,2.303-0.523,3.295-0.973c0.824-0.375,1.217-0.619,1.929-1.199L119.644,151.612z
		 M116.741,138.544c-0.805,0-1.235,0.019-1.703,0.094v-1.217c0.486,0.074,0.898,0.094,1.723,0.094h10.035
		c0.823,0,1.217-0.02,1.703-0.094v1.217c-0.411-0.057-0.954-0.094-1.666-0.094h-4.662v1.741h5.973c0.898,0,1.235-0.019,1.929-0.112
		v1.254c-0.431-0.074-1.161-0.112-1.892-0.112h-12.787c-0.786,0-1.329,0.038-1.91,0.112v-1.254c0.506,0.074,1.086,0.112,1.91,0.112
		h5.598v-1.741H116.741z M125.953,142.569c1.161,0,1.535-0.02,2.115-0.057c-0.074,0.655-0.093,1.143-0.093,2.004v4.193
		c0,1.086,0.019,1.686,0.093,2.115c-0.617-0.056-1.272-0.094-2.003-0.094h-8.537c-0.73,0-1.404,0.038-2.022,0.094
		c0.075-0.43,0.094-1.066,0.094-2.134v-4.175c0-0.843-0.019-1.311-0.094-2.004c0.524,0.037,0.974,0.057,2.078,0.057H125.953z
		 M116.761,144.984h10.054v-1.479h-10.054V144.984z M116.761,147.362h10.054v-1.461h-10.054V147.362z M116.761,149.796h10.054
		v-1.517h-10.054V149.796z M124.512,150.882c1.591,1.086,3.183,1.686,5.542,2.078c-0.281,0.355-0.469,0.655-0.675,1.123
		c-2.564-0.654-3.894-1.217-5.785-2.471L124.512,150.882z"/>
</g>
<g>
	<g>
		<line fill="none" stroke="#000000" x1="66.138" y1="122.891" x2="66.138" y2="164.323"/>
		<g>
			<path d="M61.338,157.488c0.232-0.148,0.542-0.079,0.69,0.154l4.109,6.452l4.109-6.452c0.148-0.233,0.458-0.303,0.69-0.154
				s0.3,0.46,0.153,0.691l-4.531,7.114c-0.092,0.144-0.251,0.231-0.422,0.231s-0.33-0.088-0.422-0.231l-4.531-7.114
				c-0.053-0.084-0.078-0.177-0.078-0.269C61.107,157.746,61.189,157.584,61.338,157.488z"/>
		</g>
	</g>
</g>
<g>
	<g>
		<line fill="none" stroke="#000000" x1="87.801" y1="124.093" x2="87.801" y2="165.525"/>
		<g>
			<path d="M83.001,130.928c0.232,0.148,0.542,0.079,0.69-0.154l4.109-6.452l4.109,6.452c0.148,0.233,0.458,0.303,0.69,0.154
				s0.3-0.46,0.153-0.691l-4.531-7.114c-0.092-0.144-0.251-0.231-0.422-0.231s-0.33,0.088-0.422,0.231l-4.531,7.114
				c-0.053,0.084-0.078,0.177-0.078,0.269C82.77,130.67,82.852,130.832,83.001,130.928z"/>
		</g>
	</g>
</g>
<g>
	<g>
		<line fill="none" stroke="#000000" x1="133.269" y1="103.908" x2="217.105" y2="103.908"/>
		<g>
			<path d="M210.271,108.708c-0.148-0.232-0.079-0.542,0.154-0.69l6.452-4.109l-6.452-4.109c-0.233-0.148-0.303-0.458-0.154-0.69
				s0.46-0.3,0.691-0.153l7.114,4.531c0.144,0.092,0.231,0.251,0.231,0.422s-0.088,0.33-0.231,0.422l-7.114,4.531
				c-0.084,0.053-0.177,0.078-0.269,0.078C210.528,108.939,210.366,108.857,210.271,108.708z"/>
		</g>
	</g>
</g>
<g>
	<g>
		<line fill="none" stroke="#000000" x1="134.471" y1="80.473" x2="218.308" y2="80.473"/>
		<g>
			<path d="M141.306,85.272c0.148-0.232,0.079-0.542-0.154-0.69l-6.452-4.109l6.452-4.109c0.233-0.148,0.303-0.458,0.154-0.69
				s-0.46-0.3-0.691-0.153l-7.114,4.531c-0.144,0.092-0.231,0.251-0.231,0.422s0.088,0.33,0.231,0.422l7.114,4.531
				c0.084,0.053,0.177,0.078,0.269,0.078C141.048,85.504,141.21,85.422,141.306,85.272z"/>
		</g>
	</g>
</g>
<g>
	<path d="M227.469,155.147c-1.283,2.611-1.498,2.955-3.189,5.438l-1.199-1.027c0.729-0.707,1.221-1.349,1.949-2.505
		c0.535-0.856,0.855-1.521,1.412-2.847L227.469,155.147z M226.377,152.878c-0.941-0.941-1.797-1.563-3.146-2.312l0.771-0.964
		c1.369,0.771,2.012,1.199,3.189,2.184L226.377,152.878z M228.818,142.753c0-0.557-0.043-0.942-0.086-1.35h1.455
		c-0.064,0.407-0.084,0.771-0.084,1.35v0.234h5.051v-0.234c0-0.557-0.021-0.922-0.064-1.35h1.457
		c-0.064,0.407-0.086,0.75-0.086,1.35v0.234h3.617c0.922,0,1.584-0.043,2.162-0.128v1.392c-0.619-0.086-1.283-0.129-2.162-0.129
		h-3.617c0,0.578,0.021,0.856,0.086,1.242h-1.457c0.043-0.406,0.064-0.664,0.064-1.242h-5.051c0,0.686,0.02,1.006,0.084,1.435
		h-1.455c0.064-0.429,0.086-0.771,0.086-1.435h-3.34c-0.877,0-1.541,0.043-2.162,0.129v-1.392c0.578,0.085,1.242,0.128,2.162,0.128
		h3.34V142.753z M227.084,148.832c-0.984-1.027-1.756-1.69-3.018-2.483l0.834-0.898c1.285,0.834,2.012,1.412,3.061,2.418
		L227.084,148.832z M229.889,150.759c-0.898,0-1.498,0.021-2.033,0.107v-1.264c0.492,0.086,1.07,0.107,2.033,0.107h1.264
		c-0.387-0.621-0.621-0.941-1.092-1.413l1.092-0.471c0.578,0.706,0.834,1.112,1.219,1.884h1.906v-2.291
		c-1.713,0.129-1.713,0.129-2.205,0.15c-0.258,0-0.258,0-1.627,0.064c-0.449,0-0.557,0.021-1.285,0.043
		c-0.086-0.407-0.191-0.707-0.428-1.156c0.363,0.021,0.664,0.021,0.836,0.021c4.516,0,8.926-0.535,10.424-1.264l1.029,1.113
		c-2.141,0.492-3.789,0.75-5.588,0.92v2.398h1.969c0.75-0.963,1.199-1.691,1.563-2.633l1.242,0.428
		c-0.578,0.941-0.963,1.498-1.498,2.205h1.412c0.984,0,1.563-0.021,2.055-0.107v1.264c-0.598-0.064-1.283-0.107-2.055-0.107h-3.617
		c1.477,1.349,3.596,2.44,6.293,3.232c-0.578,0.793-0.578,0.793-0.727,1.135c-0.729-0.3-0.965-0.385-1.799-0.792v4.325
		c0,0.855,0.043,1.605,0.129,2.226h-1.35v-0.856h-8.35v0.835h-1.326c0.086-0.642,0.129-1.392,0.129-2.204v-4.219
		c-0.6,0.301-0.793,0.386-1.436,0.664c-0.148-0.342-0.406-0.664-0.77-0.984c2.611-0.856,4.453-1.905,5.908-3.361H229.889z
		 M230.701,154.784v1.563h3.512v-1.563H230.701z M234.213,157.331h-3.512v1.67h3.512V157.331z M239.18,153.777
		c-1.584-0.856-2.676-1.648-3.811-2.825c0.043,0.406,0.064,0.791,0.064,1.134v0.321c0,0.385,0.021,0.729,0.086,1.027h-1.307
		c0.043-0.363,0.064-0.663,0.064-1.049v-0.3c0-0.343,0.021-0.792,0.064-1.134c-1.113,1.22-2.162,2.033-3.598,2.825H239.18z
		 M239.072,156.347v-1.563h-3.703v1.563H239.072z M239.072,159.001v-1.67h-3.703v1.67H239.072z"/>
	<path d="M253.174,143.865c0-0.835-0.043-1.499-0.15-2.226h1.799c-0.107,0.77-0.15,1.369-0.15,2.226v4.41h6.338
		c0.877,0,1.648-0.042,2.418-0.149v1.648c-0.791-0.107-1.498-0.15-2.396-0.15h-6.359v8.542h5.203c1.135,0,1.691-0.021,2.291-0.128
		v1.605c-0.621-0.086-1.199-0.129-2.291-0.129h-11.496c-1.113,0-1.713,0.043-2.313,0.129v-1.605
		c0.535,0.085,1.199,0.128,2.291,0.128h4.816v-8.542h-5.76c-0.92,0-1.732,0.043-2.568,0.15v-1.648
		c0.857,0.107,1.563,0.149,2.568,0.149h5.76V143.865z"/>
</g>
<g>
	<path d="M142.402,69.7c-1.124,2.284-1.311,2.583-2.79,4.755l-1.049-0.899c0.637-0.618,1.067-1.179,1.704-2.19
		c0.468-0.749,0.749-1.329,1.235-2.49L142.402,69.7z M141.447,67.715c-0.824-0.824-1.573-1.367-2.752-2.022l0.674-0.842
		c1.198,0.674,1.76,1.048,2.789,1.91L141.447,67.715z M143.581,58.859c0-0.487-0.037-0.824-0.074-1.18h1.272
		c-0.056,0.355-0.074,0.674-0.074,1.18v0.206h4.418v-0.206c0-0.487-0.019-0.805-0.056-1.18h1.273
		c-0.057,0.355-0.075,0.655-0.075,1.18v0.206h3.164c0.805,0,1.386-0.037,1.891-0.112v1.217c-0.543-0.075-1.123-0.112-1.891-0.112
		h-3.164c0,0.505,0.019,0.749,0.075,1.086h-1.273c0.037-0.356,0.056-0.581,0.056-1.086h-4.418c0,0.599,0.019,0.88,0.074,1.254
		h-1.272c0.056-0.375,0.074-0.674,0.074-1.254h-2.92c-0.768,0-1.349,0.037-1.892,0.112v-1.217c0.506,0.075,1.086,0.112,1.892,0.112
		h2.92V58.859z M142.065,64.176c-0.861-0.898-1.536-1.479-2.641-2.172l0.73-0.786c1.123,0.73,1.76,1.236,2.678,2.116L142.065,64.176
		z M144.518,65.861c-0.786,0-1.311,0.019-1.778,0.094v-1.104c0.431,0.075,0.936,0.093,1.778,0.093h1.104
		c-0.337-0.543-0.543-0.824-0.955-1.235l0.955-0.412c0.506,0.618,0.73,0.974,1.067,1.647h1.666v-2.003
		c-1.497,0.112-1.497,0.112-1.928,0.131c-0.225,0-0.225,0-1.423,0.056c-0.394,0-0.487,0.019-1.124,0.038
		c-0.074-0.356-0.168-0.618-0.374-1.011c0.318,0.019,0.58,0.019,0.729,0.019c3.951,0,7.808-0.468,9.118-1.104l0.898,0.974
		c-1.872,0.431-3.313,0.655-4.886,0.805v2.097h1.722c0.655-0.842,1.049-1.479,1.367-2.303l1.086,0.375
		c-0.506,0.824-0.843,1.311-1.311,1.928h1.235c0.861,0,1.367-0.019,1.798-0.093v1.104c-0.524-0.056-1.124-0.094-1.798-0.094h-3.164
		c1.292,1.18,3.146,2.134,5.505,2.827c-0.506,0.693-0.506,0.693-0.637,0.992c-0.637-0.262-0.843-0.337-1.573-0.692v3.782
		c0,0.749,0.038,1.404,0.112,1.947h-1.179v-0.749h-7.302v0.73h-1.161c0.075-0.562,0.112-1.217,0.112-1.928v-3.688
		c-0.524,0.262-0.692,0.337-1.255,0.581c-0.131-0.3-0.355-0.581-0.674-0.861c2.284-0.749,3.895-1.666,5.168-2.939H144.518z
		 M145.229,69.381v1.367h3.07v-1.367H145.229z M148.3,71.609h-3.07v1.46h3.07V71.609z M152.644,68.501
		c-1.386-0.749-2.341-1.442-3.333-2.472c0.037,0.356,0.057,0.693,0.057,0.993v0.281c0,0.337,0.019,0.636,0.074,0.898H148.3
		c0.037-0.318,0.056-0.581,0.056-0.917v-0.262c0-0.3,0.019-0.693,0.057-0.993c-0.974,1.067-1.892,1.779-3.146,2.472H152.644z
		 M152.55,70.748v-1.367h-3.239v1.367H152.55z M152.55,73.07v-1.46h-3.239v1.46H152.55z"/>
	<path d="M174.252,62.304c-0.431-0.075-0.786-0.094-1.723-0.094c-0.225,2.228-0.486,3.37-1.123,4.943
		c-0.374,0.936-0.805,1.741-1.367,2.546c1.349,1.685,2.734,2.827,4.55,3.726c-0.374,0.393-0.562,0.674-0.786,1.161
		c-1.872-1.123-3.295-2.377-4.475-3.969c-1.386,1.61-2.715,2.64-5.148,3.969c-0.263-0.468-0.487-0.749-0.843-1.048
		c1.198-0.524,1.872-0.898,2.733-1.517c1.029-0.73,1.872-1.517,2.584-2.377c-0.974-1.536-1.573-2.977-1.984-4.737
		c-0.469,0.955-0.712,1.404-1.218,2.134c-0.318-0.375-0.523-0.543-0.898-0.768c0.188-0.225,0.243-0.3,0.394-0.506
		c-0.337-0.056-0.712-0.075-1.667-0.075h-0.786v5.055c1.104-0.375,1.629-0.562,3.033-1.124l0.019,1.161
		c-2.396,0.936-3.95,1.46-5.336,1.834c-1.46,0.394-2.358,0.637-2.771,0.787l-0.337-1.348c0.411-0.019,0.805-0.075,1.404-0.206v-6.44
		c0-0.843-0.02-1.292-0.094-1.854h1.292c-0.075,0.581-0.094,1.086-0.094,1.835v6.197c0.486-0.112,1.048-0.281,1.741-0.487V60.525
		h-1.966c-0.6,0-1.143,0.038-1.686,0.112v-1.329c0.543,0.075,1.03,0.112,1.723,0.112h4.531c0.768,0,1.217-0.019,1.685-0.094v1.292
		c-0.506-0.075-0.861-0.094-1.554-0.094h-1.592v4.082h0.786c0.974,0,1.33-0.019,1.686-0.075v1.198
		c0.917-1.442,1.591-3.146,2.097-5.374c0.3-1.236,0.468-2.247,0.487-2.827l1.311,0.262c-0.112,0.375-0.112,0.375-0.6,2.453
		c-0.094,0.356-0.149,0.581-0.243,0.917h4.456c0.843,0,1.366-0.038,1.778-0.112V62.304z M167.699,62.21
		c-0.169,0.524-0.225,0.73-0.412,1.198c0.449,2.134,1.049,3.707,2.041,5.28c1.18-1.891,1.797-3.894,2.021-6.478H167.699z"/>
	<path d="M182.399,72.414c-0.861,0.674-1.273,0.937-2.153,1.348c-1.067,0.543-1.741,0.787-3.22,1.198
		c-0.263-0.449-0.431-0.655-0.861-1.067c1.517-0.3,2.303-0.524,3.295-0.974c0.824-0.375,1.217-0.618,1.929-1.198L182.399,72.414z
		 M179.497,59.346c-0.805,0-1.235,0.019-1.703,0.093v-1.217c0.486,0.075,0.898,0.094,1.723,0.094h10.035
		c0.823,0,1.217-0.019,1.703-0.094v1.217c-0.411-0.056-0.954-0.093-1.666-0.093h-4.662v1.741h5.973c0.898,0,1.235-0.019,1.929-0.113
		v1.255c-0.431-0.075-1.161-0.113-1.892-0.113h-12.787c-0.786,0-1.329,0.038-1.91,0.113v-1.255c0.506,0.075,1.086,0.113,1.91,0.113
		h5.598v-1.741H179.497z M188.709,63.371c1.161,0,1.535-0.019,2.115-0.056c-0.074,0.655-0.093,1.142-0.093,2.003v4.194
		c0,1.086,0.019,1.685,0.093,2.116c-0.617-0.056-1.272-0.094-2.003-0.094h-8.537c-0.73,0-1.404,0.038-2.022,0.094
		c0.075-0.431,0.094-1.067,0.094-2.134v-4.175c0-0.842-0.019-1.311-0.094-2.003c0.524,0.038,0.974,0.056,2.078,0.056H188.709z
		 M179.517,65.787h10.054v-1.479h-10.054V65.787z M179.517,68.164h10.054v-1.46h-10.054V68.164z M179.517,70.598h10.054v-1.517
		h-10.054V70.598z M187.268,71.684c1.591,1.086,3.183,1.685,5.542,2.078c-0.281,0.356-0.469,0.655-0.675,1.124
		c-2.564-0.655-3.894-1.217-5.785-2.472L187.268,71.684z"/>
	<path d="M202.042,62.435c0.918,0,1.424-0.019,1.947-0.075c-0.056,0.581-0.074,0.974-0.074,1.76v9.006
		c0,0.168-0.02,0.281-0.075,0.524c1.011-1.067,1.647-2.209,2.153-3.913c0.505-1.722,0.823-3.744,0.936-5.897h-0.599
		c-0.73,0-1.255,0.038-1.798,0.112v-1.254c0.524,0.056,1.067,0.094,1.779,0.094h0.655c0.037-0.768,0.037-1.236,0.037-2.209
		c0-1.535-0.019-2.209-0.094-2.733h1.329c-0.056,0.375-0.094,1.535-0.094,3.183c0,0.636,0,1.029,0.038,1.76h1.647
		c0.768,0,1.273-0.038,1.778-0.112v1.273c-0.524-0.075-1.029-0.112-1.723-0.112h-1.647c0.094,1.517,0.394,3.07,0.861,4.438
		c0.712,2.171,1.723,3.875,3.033,5.167c-0.337,0.375-0.543,0.674-0.786,1.198c-2.135-2.471-3.183-4.98-3.726-8.912
		c-0.281,4.044-1.124,6.553-2.921,8.893c-0.318-0.412-0.58-0.674-0.88-0.898c-0.188,0.468-0.6,0.636-1.517,0.636
		c-0.281,0-0.749-0.019-1.329-0.037c-0.02-0.431-0.094-0.73-0.263-1.161c0.674,0.112,1.161,0.15,1.592,0.15
		c0.412,0,0.562-0.112,0.562-0.431V63.39h-6.31v9.062c0,1.18,0.019,1.723,0.112,2.303h-1.292c0.094-0.655,0.112-1.161,0.112-2.284
		V64.12c0-0.768-0.019-1.217-0.074-1.76c0.523,0.056,1.011,0.075,1.891,0.075h1.891v-1.778h-2.715c-0.692,0-1.217,0.037-1.685,0.112
		v-1.217c0.486,0.075,1.011,0.112,1.741,0.112h2.658v-0.505c0-0.468-0.037-0.861-0.112-1.385h1.311
		c-0.094,0.412-0.112,0.749-0.112,1.367v0.524h2.472c0.749,0,1.273-0.037,1.778-0.112v1.217c-0.468-0.075-1.029-0.112-1.741-0.112
		h-2.509v1.778H202.042z M199.945,66.404c0.506-1.011,0.768-1.685,1.03-2.733l0.974,0.375c-0.469,1.142-0.637,1.498-1.124,2.359
		h0.206c0.674,0,0.974-0.019,1.367-0.094v1.105c-0.412-0.075-0.768-0.094-1.367-0.094h-0.805v1.854h0.674
		c0.674,0,0.974-0.019,1.367-0.094v1.105c-0.394-0.075-0.749-0.094-1.367-0.094h-0.674v1.854c0,0.898,0.019,1.404,0.074,1.91h-1.16
		c0.074-0.449,0.094-0.974,0.094-1.91v-1.854h-0.675c-0.636,0-0.973,0.019-1.385,0.094v-1.105c0.412,0.075,0.711,0.094,1.385,0.094
		h0.675v-1.854h-0.73c-0.618,0-0.974,0.019-1.404,0.094v-1.105c0.431,0.075,0.692,0.094,1.404,0.094H199.945z M198.429,63.746
		c0.375,0.768,0.543,1.161,0.88,2.153l-0.88,0.355c-0.28-0.955-0.486-1.46-0.861-2.171L198.429,63.746z M210.43,62.042
		c-0.468-1.161-0.917-1.91-1.703-2.977l0.843-0.487c0.805,1.049,1.235,1.741,1.778,2.827L210.43,62.042z"/>
</g>
<g>
	<path fill-rule="evenodd" clip-rule="evenodd" fill="#FFFFFF" stroke="#000000" d="M35.066,119.417
		c4.759-11.5,7.479-23.213,7.89-35.571c-4.9-1.275-9.906-2.55-14.16-5.988c2.963-1.507,5.826-2.843,8.577-4.382
		c9.279-5.189,10.165-6.999,8.927-17.872c-3.237-0.478-6.639-0.818-8.932-3.342c5.891-3.896,11.68-7.726,17.687-11.699
		c0-2.529,0-5.361,0-8.48c-4.353-0.367-8.68-1.008-12.254-3.879c2.577-1.708,5.15-3.223,7.47-5.058
		c0.8-0.632,1.319-2.049,1.356-3.13c0.151-4.324,0.022-8.659,0.08-12.989c0.046-3.416,1.838-5.51,5.499-6.387
		c0,2.233,0,4.422,0,6.773c13.438,0,26.624,0,40.154,0c0-2.209,0-4.465,0-6.787c3.874,0.878,5.614,3.021,5.661,6.824
		c0.055,4.174,0.086,8.354-0.026,12.524c-0.041,1.572,0.432,2.701,1.699,3.529c2.319,1.512,4.652,3.01,7.207,4.663
		c-3.506,2.866-7.832,3.576-12.328,3.878c0,3.066,0,5.908,0,8.32c1.351,0.873,2.452,1.576,3.543,2.295
		c4.054,2.676,8.098,5.367,12.158,8.029c0.694,0.455,1.455,0.809,2.325,1.285c-2.566,2.689-5.813,3.217-9.338,3.59
		c0,3.609-0.131,7.153,0.089,10.675c0.055,0.852,1.095,1.873,1.941,2.405c4.37,2.745,8.822,5.367,13.261,8.006
		c0.713,0.424,1.505,0.713,2.464,1.157c-4.405,3.399-9.333,4.872-14.643,6.015c1.102,12.266,3.293,24.115,8.291,35.595
		C91.383,119.417,63.31,119.417,35.066,119.417z M77.255,23.975c-4.281,6.768-9.483,12.3-16.187,16.809c11.036,0,21.539,0,32.605,0
		C86.774,36.213,81.662,30.645,77.255,23.975z M68.098,56.488c0,3.48,0,6.668,0,9.832c1.688,0,3.183,0,4.727,0
		c0-3.35,0-6.533,0-9.832C71.179,56.488,69.685,56.488,68.098,56.488z M59.553,56.457c-1.707,0-3.15,0-4.758,0
		c0,3.344,0,6.607,0,9.854c1.68,0,3.186,0,4.758,0C59.553,62.99,59.553,59.846,59.553,56.457z M99.858,66.377
		c0-3.387,0-6.586,0-9.861c-1.647,0-3.138,0-4.738,0c0,3.352,0,6.553,0,9.861C96.721,66.377,98.165,66.377,99.858,66.377z
		 M81.952,56.424c0,3.465,0,6.707,0,9.932c1.651,0,3.083,0,4.549,0c0-3.381,0-6.629,0-9.932
		C84.911,56.424,83.535,56.424,81.952,56.424z"/>
</g>
<g>
	<path d="M63.51,87.778c1.001,3.768,2.562,6.858,4.798,9.478c2.149,2.502,4.621,4.298,7.977,5.74
		c-0.588,0.707-0.824,1.03-1.295,1.972c-6.593-3.502-10.243-7.8-12.362-14.541c-0.795,4.297-2.737,7.859-5.739,10.567
		c-1.854,1.648-3.474,2.679-6.358,4.003c-0.412-0.824-0.647-1.148-1.266-1.795c3.68-1.501,5.828-2.943,7.741-5.151
		c2.296-2.649,3.532-5.769,4.092-10.272h-8.006c-1.561,0-2.385,0.059-3.238,0.206v-2.296c0.766,0.147,1.736,0.206,3.297,0.206h8.124
		c0.088-1.413,0.117-2.325,0.117-3.473c0-1.354-0.088-2.414-0.206-3.208h2.414c-0.147,0.971-0.206,1.619-0.206,3.061
		c-0.029,1.501-0.059,2.355-0.147,3.621h8.919c1.501,0,2.473-0.059,3.267-0.206v2.296c-0.941-0.147-1.766-0.206-3.237-0.206H63.51z"
		/>
	<path d="M87.757,86.336c2.148,1.354,2.825,1.825,4.326,3.149c2.325-2.06,3.68-3.562,5.681-6.27h-8.801
		c-2.236,2.59-4.68,4.621-8.064,6.682c-0.354-0.559-0.618-0.913-1.236-1.413c2.973-1.648,5.298-3.474,7.271-5.651
		c1.678-1.884,2.708-3.326,3.267-4.68l2.002,0.765c-1.354,1.914-1.354,1.914-1.913,2.649h6.476c1.147,0,1.942-0.059,2.737-0.147
		l1.06,1.266c-0.324,0.354-0.471,0.56-1.001,1.266c-2.619,3.562-5.504,6.446-9.478,9.39h10.802c0.942,0,1.502-0.029,2.119-0.118
		c-0.117,0.707-0.146,1.413-0.146,2.354v7.124c0,0.912,0.059,1.972,0.177,2.62h-2.061v-1.648H88.669v1.648h-2.061
		c0.118-0.766,0.177-1.825,0.177-2.62v-7.124c-2.002,1.266-3.797,2.208-6.563,3.444c-0.324-0.706-0.56-1.089-1.178-1.736
		c4.563-1.737,7.947-3.679,11.597-6.623c-1.441-1.383-2.178-1.942-4.268-3.267L87.757,86.336z M88.669,102.024h12.304v-6.976H88.669
		V102.024z"/>
</g>
<g>
	<path fill-rule="evenodd" clip-rule="evenodd" d="M249.818,67.556c1.085,1.079,2.051,2.257,2.712,3.657
		c0.057,0.119,0.188,0.214,0.305,0.292c0.325,0.22,0.739,0.358,0.979,0.646c1.7,2.044,2.767,4.408,3.271,7.003
		c0.278,1.431-0.337,2.569-1.523,3.384c-1.096,0.753-2.321,1.002-3.642,0.824c-0.055,0.098-0.112,0.176-0.147,0.263
		c-1.029,2.567-2.953,4.183-5.482,5.154c-0.293,0.113-0.617,0.21-0.502,0.632c0.034,0.124,0.124,0.292,0.228,0.33
		c2.195,0.794,3.917,2.265,5.383,3.996c1.493,1.762,2.912,3.604,4.192,5.524c1.734,2.603,2.439,5.609,2.899,8.657
		c0.313,2.078,0.482,4.178,0.721,6.268c0.017,0.146,0.073,0.289,0.11,0.434c0,0.231,0,0.463,0,0.695
		c-0.97,0.096-1.938,0.219-2.911,0.277c-0.396,0.023-0.6,0.148-0.542,0.539c0.177,1.19-0.678,1.789-1.401,2.453
		c-0.138,0.126-0.386,0.132-0.656,0.217c0.27,1.211,0.537,2.431,0.813,3.649c0.464,2.049,0.919,4.101,1.41,6.144
		c0.125,0.52-0.012,0.807-0.469,1.066c-1.66,0.943-3.486,1.32-5.335,1.631c-0.108,0.019-0.217,0.039-0.393,0.07
		c0.229,0.449,0.41,0.872,0.65,1.258c0.365,0.589,0.464,1.173,0.131,1.804c-0.052,0.098-0.088,0.213-0.099,0.323
		c-0.078,0.773-0.301,1.089-1.071,1.173c-1.931,0.211-3.859,0.142-5.74-0.357c-0.452-0.12-0.829-0.524-1.396-0.901
		c-2.362,0.32-4.961,0.059-7.56-0.063c-0.116-0.005-0.23-0.02-0.347-0.023c-1.033-0.028-1.085-0.084-1.044-1.131
		c0.003-0.076-0.018-0.152-0.028-0.229c-0.107-0.792,0.312-1.294,1.109-1.345c0.538-0.035,1.078-0.059,1.611-0.135
		c0.311-0.045,0.608-0.184,0.899-0.414c-0.629-0.126-1.269-0.215-1.886-0.385c-1.188-0.325-2.369-0.682-3.544-1.053
		c-0.991-0.312-1.213-0.678-0.993-1.684c0.527-2.41,1.079-4.815,1.622-7.223c0.225-0.994,0.451-1.986,0.673-2.959
		c-0.346-0.189-0.644-0.354-1.005-0.554c-0.048,0.021-0.166,0.074-0.285,0.124c-0.426,0.182-0.712,0.117-0.898-0.371
		c-0.373-0.972-0.345-1.972-0.275-2.973c0.026-0.384-0.049-0.585-0.421-0.748c-0.4-0.176-0.776-0.434-1.114-0.714
		c-0.479-0.399-0.662-0.931-0.521-1.56c0.173-0.771,0.354-1.541,0.484-2.32c0.027-0.159-0.102-0.44-0.239-0.516
		c-0.778-0.424-1.578-0.806-2.376-1.191c-0.788-0.382-1.05-1.383-0.609-2.371c0.378-0.85,1.007-1.099,1.891-0.732
		c0.748,0.311,1.489,0.634,2.297,0.979c0.124-0.271,0.255-0.52,0.356-0.78c0.695-1.798,1.301-3.637,2.096-5.39
		c1.456-3.209,3.714-5.798,6.525-7.906c0.306-0.229,0.654-0.409,1-0.578c0.339-0.165,0.698-0.287,1.173-0.478
		c-1.544-0.105-2.899-0.416-4.142-1.135c-1.925-1.114-3.229-2.78-4.219-4.725c-0.179-0.352-0.398-0.59-0.759-0.798
		c-1.04-0.6-1.484-1.646-1.765-2.746c-0.208-0.814-0.285-1.622,0.399-2.334c0.18-0.187,0.128-0.621,0.135-0.943
		c0.023-1.063,0.135-2.087,0.996-2.857c0.077-0.069,0.125-0.197,0.144-0.305c0.41-2.447,1.988-3.988,4.04-5.127
		c0.803-0.445,1.673-0.77,2.458-1.125c0-0.853-0.003-1.695,0.001-2.54c0.004-1.188,1.273-2.622,2.681-2.519
		c0.081,0.007,0.168-0.06,0.251-0.091c0.271,0,0.541,0,0.812,0C245.043,63.537,247.572,65.323,249.818,67.556z M247.845,73.089
		c0.897-0.845,2.079-1.032,3.218-1.433c-0.408-0.813-0.997-1.438-1.677-1.979c-1.676-1.335-3.639-1.927-5.732-2.082
		c-2.695-0.199-5.259,0.33-7.661,1.594c-2.784,1.465-4.286,3.744-4.177,6.916c0.074,2.174,0.216,4.361,0.551,6.507
		c0.258,1.65,1.324,2.983,2.445,4.197c2.574,2.788,5.781,3.334,9.281,2.35c1.447-0.406,2.823-1.113,4.181-1.787
		c1.111-0.553,1.93-1.475,2.51-2.576c0.544-1.034,1.05-2.09,1.59-3.172c2.217-0.032,3.042-2.759,2.326-4.228
		c-0.403-0.829-1.191-1.274-2.085-1.062c-0.971,0.23-1.792,0.688-2.18,1.688c-0.016,0.041-0.09,0.061-0.176,0.115
		C249.979,76.181,249.06,74.591,247.845,73.089z M247.109,93.479c-0.019,5.326-0.043,10.654-0.233,15.976
		c-0.066,1.869-0.598,3.725-0.954,5.578c-0.091,0.477-0.011,0.692,0.486,0.813c1.167,0.279,2.326,0.262,3.503,0.091
		c0.511-0.074,0.651-0.533,0.563-0.778c-0.412-1.154-0.208-2.31-0.052-3.438c0.399-2.881-0.001-5.69-0.556-8.5
		c-0.155-0.786-0.283-1.578-0.424-2.368c0.058-0.021,0.114-0.043,0.172-0.064c0.067,0.122,0.175,0.238,0.194,0.367
		c0.369,2.361,0.863,4.713,1.044,7.088c0.131,1.715-0.156,3.461-0.258,5.193c-0.002,0.038-0.015,0.076-0.018,0.114
		c-0.09,1.281,0.013,1.424,1.271,1.493c1.848,0.103,3.697,0.171,5.546,0.253c0.097,0.005,0.193,0.003,0.29,0
		c1.204-0.032,1.281-0.106,1.177-1.294c-0.31-3.537-0.657-7.063-1.7-10.486c-0.854-2.805-2.4-5.202-4.198-7.465
		c-1.443-1.818-2.969-3.563-4.913-4.871c-0.676-0.455-1.425-0.802-2.14-1.197c-0.026,0.05-0.051,0.102-0.077,0.152
		C246.869,91.014,247.113,92.253,247.109,93.479z M244.437,109.935c0.034-0.059,0.067-0.116,0.102-0.174
		c-3.093-4.683-4.409-10.131-6.609-15.199c-0.063-0.009-0.127-0.018-0.191-0.026c-0.322,0.987-0.706,1.961-0.956,2.967
		c-0.665,2.673-0.903,5.398-0.871,8.149c0.002,0.115-0.022,0.264,0.037,0.339c0.796,0.995,0.654,2.13,0.513,3.269
		c-0.005,0.036,0.007,0.073,0.031,0.316C239.143,109.694,241.79,109.814,244.437,109.935z M238.146,93.915
		c-0.051,0.095-0.009,0.264,0.036,0.381c1.404,3.608,2.767,7.234,4.248,10.813c0.602,1.452,1.49,2.783,2.194,4.196
		c0.307,0.617,0.791,0.56,1.309,0.544c0.189-0.005,0.38,0,0.636,0c0.041-0.865,0.086-1.687,0.111-2.509
		c0.004-0.123-0.062-0.261-0.127-0.372c-1.74-2.986-2.819-6.246-3.906-9.499c-0.536-1.607-0.997-3.241-1.456-4.873
		c-0.174-0.619-0.246-1.267-0.373-1.946C239.609,91.484,238.813,92.649,238.146,93.915z M238.086,91.903
		c-2.727,2.373-4.969,5.105-6.201,8.57c-0.56,1.576-1.17,3.134-1.777,4.755c1.004,0.439,2.003,0.884,3.011,1.307
		c0.104,0.043,0.293,0,0.387-0.074c0.88-0.686,1.046-0.755,2.01-0.766c0.092-1.441,0.143-2.886,0.284-4.32
		c0.316-3.194,0.974-6.293,2.883-8.977c0.434-0.608,0.95-1.158,1.43-1.734c-0.021-0.04-0.041-0.08-0.062-0.12
		C239.393,90.993,238.683,91.384,238.086,91.903z M246.736,94.483c-0.168,0.222-0.313,0.405-0.449,0.593
		c-0.819,1.121-1.631,2.247-2.772,3.082c-0.103,0.075-0.193,0.314-0.15,0.421c1.032,2.548,2.083,5.088,3.133,7.629
		c0.019,0.047,0.072,0.079,0.239,0.254C246.736,102.396,246.736,98.487,246.736,94.483z M232.322,110.278
		c-0.006-0.128-0.147-0.309-0.271-0.363c-0.929-0.414-1.869-0.804-2.903-1.243c-0.189,0.992-0.442,1.944-0.516,2.911
		c-0.027,0.354,0.289,0.844,0.595,1.093c1.158,0.945,2.573,1.146,4.017,1.174c0.112,0.002,0.301-0.162,0.33-0.28
		c0.104-0.406,0.152-0.827,0.228-1.279C232.755,112.021,232.365,111.281,232.322,110.278z M244.737,96.53
		c0.667-0.797,1.274-1.645,1.897-2.479c0.086-0.115,0.146-0.271,0.163-0.416c0.087-0.772-0.372-2.297-0.89-2.963
		c-0.977,1.525-2.235,2.79-3.525,4.03c-0.103,0.099-0.143,0.351-0.1,0.499c0.261,0.905,0.554,1.802,0.893,2.882
		C243.769,97.501,244.299,97.054,244.737,96.53z M245.302,90.901c0.29-0.391,0.161-1.094,0.227-1.681
		c-1.468,0.281-2.831,0.542-4.241,0.812c-0.275,1.525,0.38,2.943,0.749,4.41c0.062,0.033,0.124,0.065,0.187,0.098
		C243.261,93.336,244.357,92.176,245.302,90.901z M234.343,109.244c-0.351,0.761-0.907,1.1-1.611,0.979
		c-0.114,0.731,0.184,1.347,0.778,1.61c0.641,0.283,1.213,0.161,1.677-0.476c0.956-1.312,1.268-2.787,0.923-4.376
		c-0.095-0.438-0.323-0.859-0.836-0.929c-0.652-0.087-1.138,0.241-1.551,0.714C234.561,107.473,234.768,108.321,234.343,109.244z
		 M252.201,115.377c-0.288-0.019-0.581-0.003-0.863-0.052c-0.488-0.085-0.67,0.15-0.704,0.628c0.511,0.114,0.485,0.51,0.464,0.921
		c-0.014,0.248-0.008,0.507,0.054,0.744c0.037,0.146,0.206,0.379,0.296,0.37c0.411-0.042,0.724,0.082,1.033,0.344
		c0.061,0.052,0.354-0.106,0.489-0.226c0.258-0.228,0.45-0.333,0.691,0.028c0.265,0.396,0.546,0.323,0.83-0.021
		c0.164-0.197,0.417-0.323,0.571-0.526c0.177-0.234,0.343-0.505,0.414-0.785c0.087-0.348,0.072-0.722,0.111-1.199
		C254.42,115.524,253.311,115.449,252.201,115.377z M240.55,132.842c-1.95-0.246-3.907-0.444-5.863-0.634
		c-0.249-0.024-0.551,0.053-0.758,0.188c-0.162,0.105-0.313,0.388-0.292,0.57c0.021,0.173,0.245,0.371,0.428,0.464
		c0.216,0.109,0.481,0.152,0.728,0.162c2.08,0.091,4.16,0.187,6.241,0.232c0.529,0.013,1.063-0.146,1.594-0.227
		c0.004-0.093,0.008-0.185,0.011-0.277C241.942,133.157,241.255,132.931,240.55,132.842z M249.38,134.874
		c0.52-0.087,0.962-0.39,1.096-0.979c0.147-0.651-0.201-1.2-0.849-1.308c-0.265-0.045-0.533-0.088-0.801-0.097
		c-1.636-0.05-2.581,0.896-2.561,2.754C247.341,135.123,248.367,135.045,249.38,134.874z M231.508,117.222
		c0.276-0.176,0.483-0.181,0.75,0.081c0.467,0.46,0.693,0.375,0.809-0.277c0.162-0.924,0.29-1.853,0.433-2.776
		c-0.962-0.12-1.854-0.231-2.776-0.346c-0.129,1.182-0.2,2.355,0.373,3.501C231.268,117.329,231.397,117.291,231.508,117.222z
		 M233.612,116.472c1.673,0.332,1.773,0.269,1.817-1.388c0.03-1.113,0.006-2.229,0.006-3.325c-0.394,0.184-0.794,0.345-1.162,0.56
		c-0.117,0.068-0.188,0.275-0.212,0.429c-0.195,1.217-0.374,2.435-0.559,3.654C233.58,116.452,233.595,116.468,233.612,116.472z
		 M231.695,79.354c-0.033-0.357-0.668-0.963-0.933-0.821c-0.248,0.133-0.474,0.5-0.516,0.792c-0.188,1.299,0.767,3.205,1.763,3.684
		C231.907,81.799,231.808,80.575,231.695,79.354z M245.049,133.526c-0.06-0.543-1.115-1.201-1.611-1.032
		c-0.093,0.032-0.183,0.148-0.221,0.246c-0.125,0.321-0.293,0.647-0.315,0.981c-0.015,0.221,0.134,0.576,0.31,0.662
		c0.524,0.254,1.099,0.404,1.848,0.662C245.059,134.428,245.098,133.973,245.049,133.526z M225.738,106.181
		c0.162,0.246,0.329,0.57,0.568,0.657c0.151,0.055,0.553-0.212,0.64-0.419c0.203-0.48,0.333-1.007,0.388-1.525
		c0.021-0.194-0.218-0.555-0.396-0.597c-0.23-0.056-0.622,0.052-0.76,0.23c-0.269,0.349-0.408,0.796-0.601,1.202
		c0.034,0.019,0.069,0.037,0.104,0.055C225.698,105.919,225.672,106.08,225.738,106.181z M237.514,131.455
		c-0.056-0.003-0.117,0.088-0.198,0.153c1.878,0.278,3.726,0.554,5.672,0.843c0.077-0.105,0.241-0.329,0.427-0.581
		C241.384,131.726,239.449,131.586,237.514,131.455z M245.92,132.786c0.959-1.127,2.373-0.904,3.645-1.136
		c-0.007-0.069-0.014-0.139-0.021-0.208c-1.454,0.103-2.907,0.205-4.426,0.313C245.407,132.126,245.648,132.437,245.92,132.786z"/>
	<path fill-rule="evenodd" clip-rule="evenodd" d="M242.747,79.961c0.003,0.67,0.331,1.103,0.837,1.101
		c0.567-0.001,1.132-0.673,1.112-1.324c-0.015-0.54-0.433-0.985-0.926-0.986C243.156,78.75,242.744,79.236,242.747,79.961z"/>
	<path fill-rule="evenodd" clip-rule="evenodd" d="M235.349,80.501c-0.008-0.679-0.441-1.181-1.011-1.17
		c-0.476,0.01-0.828,0.434-0.824,0.993c0.005,0.645,0.399,1.095,0.947,1.08C235.034,81.388,235.354,81.063,235.349,80.501z"/>
	<path fill-rule="evenodd" clip-rule="evenodd" d="M246.6,76.853c-0.343-1.289-2.169-2.045-3.47-1.553
		c-0.972,0.368-1.604,1.468-1.206,2.395c0.224-1.249,0.676-2.177,1.988-2.227C245.05,75.424,245.868,76.044,246.6,76.853z"/>
	<path fill-rule="evenodd" clip-rule="evenodd" d="M243.422,86.39c-2.011,1.004-4.039,1.395-6.115,0.224
		c-0.028,0.061-0.057,0.121-0.086,0.183c0.138,0.112,0.259,0.257,0.414,0.331c1.554,0.744,3.13,0.639,4.71,0.09
		c0.288-0.101,0.565-0.24,0.836-0.383c0.115-0.062,0.201-0.179,0.301-0.271C243.461,86.505,243.441,86.447,243.422,86.39z"/>
	<path fill-rule="evenodd" clip-rule="evenodd" d="M232.857,77.955c0.26-0.665,0.61-1.144,1.381-1.137
		c0.691,0.007,1.151,0.409,1.576,0.919c0.062-0.539-0.279-0.795-0.648-1.004c-0.674-0.383-1.499-0.315-2.001,0.139
		C232.842,77.164,232.686,77.51,232.857,77.955z"/>
	<path fill-rule="evenodd" clip-rule="evenodd" d="M238.121,81.923c-0.319-0.207-0.583,0.014-0.801,0.281
		c-0.282,0.348-0.203,0.989,0.158,1.309c0.297,0.263,0.627,0.397,1.073,0.013c-0.525-0.109-1.121-0.125-1.041-0.76
		C237.545,82.487,237.876,82.245,238.121,81.923z"/>
</g>
<g>
	<path d="M158.981,117.016c0-0.987,0-1.367,0.057-2.279c-0.456,0.95-0.874,1.614-1.709,2.717c-0.228-0.438-0.418-0.685-0.76-1.026
		c1.368-1.576,2.413-3.419,3.249-5.699c0.418-1.158,0.551-1.672,0.684-2.583l1.311,0.342c-0.133,0.38-0.19,0.551-0.361,1.045
		c-0.456,1.425-0.703,2.07-1.311,3.4v10.468c0,0.873,0.019,1.576,0.095,2.223h-1.368c0.076-0.741,0.114-1.312,0.114-2.28V117.016z
		 M164.452,115.307c0.361-0.589,0.57-1.007,0.894-1.691h-1.539c-0.855,0-1.273,0.02-1.71,0.076v-1.14
		c0.418,0.076,0.893,0.095,1.729,0.095h1.899c0.21-0.589,0.323-0.95,0.476-1.501h-2.47c-0.912,0-1.444,0.02-1.881,0.096v-1.216
		c0.456,0.075,1.064,0.113,1.919,0.113h2.697c0.152-0.816,0.247-1.367,0.247-1.785c0-0.038,0-0.096,0-0.171l1.349,0.133
		c-0.075,0.247-0.228,0.854-0.456,1.823h4.199c0.798,0,1.443-0.038,1.956-0.113v1.216c-0.437-0.076-1.045-0.096-1.918-0.096h-4.503
		c-0.152,0.57-0.266,0.95-0.456,1.501h4.465c0.874,0,1.367-0.019,1.823-0.095v1.14c-0.437-0.057-0.949-0.076-1.823-0.076h-2.071
		c0.285,0.665,0.476,1.026,0.932,1.691h2.127c0.798,0,1.368-0.038,1.881-0.114v1.234c-0.398-0.057-0.987-0.095-1.805-0.095h-1.405
		c1.007,1.121,1.994,1.861,3.685,2.717c-0.36,0.437-0.493,0.646-0.702,1.102c-2.052-1.292-3.268-2.355-4.351-3.818h-4.579
		c-1.121,1.71-2.146,2.793-3.818,4.065c-0.285-0.437-0.532-0.722-0.836-0.95c1.501-0.987,2.394-1.805,3.363-3.115h-1.121
		c-0.798,0-1.272,0.019-1.69,0.095v-1.216c0.513,0.058,1.007,0.096,1.843,0.096H164.452z M169.315,118.555
		c0.931,0,1.406-0.019,1.824-0.095v1.158c-0.418-0.075-0.988-0.095-1.824-0.095h-1.329v1.729h3.571c0.969,0,1.443-0.019,1.881-0.095
		v1.197c-0.456-0.076-0.988-0.096-1.938-0.096h-3.514v1.35c0,0.836,0.019,1.349,0.113,1.938h-1.405
		c0.095-0.646,0.133-1.102,0.133-1.919v-1.368h-3.173c-0.893,0-1.387,0.02-1.824,0.096v-1.197c0.418,0.076,0.855,0.095,1.767,0.095
		h3.229v-1.729h-1.349c-0.798,0-1.254,0.02-1.71,0.095v-1.158c0.399,0.076,0.836,0.095,1.729,0.095h1.33v-0.171
		c0-0.665-0.038-0.988-0.095-1.481h1.349c-0.076,0.437-0.095,0.836-0.095,1.463v0.189H169.315z M168.955,115.307
		c-0.38-0.685-0.532-1.007-0.761-1.691h-1.69c-0.285,0.703-0.494,1.103-0.816,1.691H168.955z"/>
	<path d="M179.614,123.532c0,0.931,0.038,1.481,0.114,1.938h-1.368c0.058-0.608,0.096-1.197,0.096-1.938v-5.737
		c-0.761,0.836-1.406,1.443-2.337,2.185c-0.209-0.475-0.361-0.703-0.665-1.045c1.311-0.912,2.241-1.805,3.286-3.153
		c0.95-1.235,1.463-2.09,1.938-3.324h-3.059c-0.456,0-0.912,0.019-1.425,0.075v-1.216c0.475,0.058,0.911,0.076,1.405,0.076h0.855
		v-1.69c0-0.494-0.038-1.026-0.114-1.539h1.405c-0.075,0.399-0.113,0.931-0.113,1.52v1.71h0.911c0.514,0,0.855-0.019,1.026-0.057
		l0.607,0.646c-0.151,0.267-0.151,0.285-0.702,1.444c-0.399,0.836-0.779,1.443-1.71,2.717c0.874,0.969,1.596,1.596,2.773,2.355
		c-0.304,0.36-0.437,0.589-0.665,1.007c-1.007-0.779-1.558-1.273-2.261-2.033V123.532z M189.645,112.628h-4.635
		c-0.779,0-1.178,0.019-1.653,0.095v-1.197c0.456,0.076,0.855,0.096,1.653,0.096h4.673l0.058-1.634h-5.072
		c-0.798,0-1.273,0.019-1.843,0.095v-1.234c0.513,0.075,0.987,0.095,1.823,0.095h4.483c0.798,0,1.254-0.02,1.824-0.076
		c-0.058,0.551-0.076,0.836-0.096,1.577l-0.151,3.932h0.816c0.76,0,1.273-0.038,1.786-0.113v1.234
		c-0.475-0.076-0.969-0.095-1.748-0.095h-3.59v0.627c0.246,0.854,0.798,1.994,1.367,2.868c0.912-0.874,1.482-1.596,2.204-2.792
		l1.025,0.684c-1.158,1.501-1.576,1.976-2.641,2.944c1.14,1.501,2.166,2.451,3.818,3.496c-0.284,0.246-0.456,0.493-0.798,1.082
		c-1.329-0.911-2.185-1.747-3.21-3.039c-0.874-1.102-1.292-1.862-1.881-3.382c0.057,0.76,0.114,1.805,0.114,2.451v3.571
		c0,0.551-0.076,0.816-0.247,1.007c-0.229,0.304-0.741,0.456-1.444,0.456c-0.589,0-1.254-0.038-2.108-0.133
		c-0.057-0.552-0.114-0.798-0.304-1.254c0.893,0.189,1.596,0.266,2.299,0.266c0.513,0,0.664-0.114,0.664-0.494v-2.888
		c-1.747,0.932-2.526,1.312-4.35,2.109c-0.456,0.189-0.589,0.266-0.894,0.437l-0.456-1.254c0.703-0.133,1.501-0.418,2.698-0.95
		c1.121-0.475,1.311-0.569,3.001-1.481v-4.331h-3.362c-0.816,0-1.254,0.019-1.767,0.095v-1.234c0.513,0.075,1.007,0.113,1.767,0.113
		h6.117L189.645,112.628z M183.452,116.143c1.007,1.196,1.443,1.842,2.09,3.001l-0.95,0.646c-0.589-1.234-1.063-1.956-2.014-3.058
		L183.452,116.143z"/>
</g>
<g>
	<path d="M154.246,145.084c-1.425-1.634-2.014-2.546-2.641-4.085c-0.627-1.52-0.912-3.021-0.912-4.673
		c0-1.653,0.285-3.153,0.912-4.674c0.627-1.538,1.216-2.45,2.641-4.084h1.691c-1.596,1.614-2.223,2.47-2.888,3.933
		c-0.684,1.52-1.026,3.097-1.026,4.825s0.342,3.306,1.026,4.825c0.665,1.463,1.292,2.317,2.888,3.933H154.246z"/>
	<path d="M168.174,142.938c0.778-0.741,1.367-1.406,1.899-2.204c-0.798-2.014-1.235-4.331-1.368-7.067h-8.302
		c0,3.097-0.151,5.434-0.437,7.086c-0.285,1.672-0.76,2.831-1.69,4.199c-0.399-0.456-0.532-0.57-0.97-0.894
		c0.836-1.063,1.235-1.956,1.521-3.344c0.247-1.196,0.398-3.343,0.398-5.851c0-1.083-0.019-1.652-0.095-2.317
		c0.513,0.075,1.007,0.095,1.919,0.095h7.637c-0.02-0.38-0.02-0.513-0.076-0.912h1.311c-0.076,0.361-0.095,0.551-0.095,0.912h2.622
		c-0.646-0.57-1.141-0.893-2.033-1.311l0.684-0.685c0.969,0.476,1.33,0.703,2.052,1.254l-0.665,0.741
		c0.836,0,1.35-0.038,1.824-0.114v1.254c-0.551-0.076-1.083-0.114-1.899-0.114h-2.584c0.114,2.337,0.399,4.085,0.988,5.852
		c0.873-1.672,1.405-3.249,1.558-4.654l1.178,0.456c-0.152,0.456-0.152,0.456-0.304,0.969c-0.532,1.729-1.141,3.135-1.938,4.483
		c0.665,1.463,1.577,2.659,2.033,2.659c0.019,0,0.057-0.019,0.095-0.019c0.152-0.114,0.209-0.229,0.323-0.741
		c0.095-0.532,0.189-1.234,0.247-2.014c0.38,0.361,0.665,0.57,1.045,0.76c-0.209,1.444-0.38,2.166-0.627,2.679
		c-0.209,0.438-0.551,0.665-0.932,0.665c-0.873,0-1.899-1.045-2.906-2.926c-0.969,1.33-1.729,2.09-3.021,3.097
		c-0.285-0.361-0.494-0.551-0.912-0.816c0.723-0.476,0.988-0.685,1.387-1.064c-0.38-0.019-1.102-0.038-1.634-0.038h-3.818v1.216
		h-1.178c0.076-0.684,0.096-1.234,0.096-1.956v-5.813c0-0.703-0.02-1.121-0.058-1.577c0.418,0.038,0.798,0.058,1.558,0.058h3.363
		c0.873,0,1.291-0.02,1.767-0.096v1.103c-0.551-0.058-0.969-0.076-1.729-0.076h-0.74v1.463h0.912l0.684-0.02l0.285,0.02
		c0.075,0,0.151-0.02,0.456-0.038c-0.038,0.304-0.038,0.437-0.038,0.854v1.406c0,0.323,0,0.437,0.038,0.874
		c-0.476-0.02-0.627-0.02-1.406-0.02h-0.931v1.634h0.74c0.836,0,1.368-0.019,1.768-0.076V142.938z M162.722,128.993
		c0-0.456-0.02-0.703-0.076-1.083h1.311c-0.057,0.38-0.076,0.608-0.076,1.102v0.267h4.389v-0.267c0-0.456-0.02-0.74-0.076-1.102
		h1.292c-0.058,0.38-0.076,0.627-0.076,1.102v0.267h3.191c0.817,0,1.406-0.038,1.938-0.114v1.254
		c-0.569-0.076-1.14-0.114-1.938-0.114h-3.191c0,0.476,0.019,0.684,0.076,1.045h-1.292c0.057-0.361,0.057-0.551,0.076-1.045h-4.389
		v0.399c0,0.493,0.02,0.722,0.076,1.083h-1.311c0.057-0.381,0.076-0.608,0.076-1.064v-0.418h-3.04c-0.798,0-1.368,0.038-1.919,0.114
		v-1.254c0.514,0.076,1.121,0.114,1.919,0.114h3.04V128.993z M164.697,137.333v-1.463h-2.185v1.463H164.697z M166.995,139.574
		v-1.405h-4.482v1.405H166.995z M162.513,140.41v1.634h2.185v-1.634H162.513z"/>
	<path d="M191.353,134.578c0.894,0,1.482-0.038,2.033-0.114v1.35c-0.532-0.076-1.197-0.114-2.033-0.114h-5.167
		c1.69,2.621,4.369,4.749,7.77,6.174c-0.398,0.475-0.531,0.684-0.854,1.272c-1.976-1.025-3.477-2.07-4.845-3.343
		c-1.196-1.103-1.976-2.109-2.716-3.458c0.038,0.608,0.038,0.608,0.075,1.957v4.331c0,0.874,0.038,1.596,0.134,2.318h-1.482
		c0.096-0.703,0.133-1.463,0.133-2.337v-4.294c0-0.798,0.02-1.443,0.076-1.956c-0.912,1.596-1.71,2.603-3.135,3.951
		c-1.082,1.025-2.089,1.729-3.932,2.812c-0.285-0.551-0.456-0.779-0.894-1.197c2.033-0.949,3.534-1.976,4.997-3.419
		c0.893-0.874,1.69-1.861,2.26-2.812h-4.749c-0.836,0-1.501,0.038-2.052,0.114v-1.35c0.532,0.076,1.121,0.114,2.052,0.114h5.376
		v-4.844c0-0.779-0.037-1.254-0.133-1.862h1.482c-0.096,0.513-0.134,1.064-0.134,1.862v4.844H191.353z M181.246,133.8
		c-0.74-1.691-1.367-2.755-2.526-4.256l1.045-0.646c1.159,1.538,1.767,2.545,2.603,4.236L181.246,133.8z M187.687,133.286
		c1.272-1.443,1.994-2.603,2.773-4.445l1.178,0.665c-0.874,1.729-1.614,2.869-2.964,4.483L187.687,133.286z"/>
	<path d="M195.383,145.084c1.596-1.596,2.223-2.47,2.888-3.933c0.684-1.52,1.026-3.097,1.026-4.825s-0.343-3.306-1.026-4.825
		c-0.665-1.463-1.292-2.337-2.888-3.933h1.691c1.425,1.634,2.014,2.546,2.641,4.084c0.626,1.521,0.911,3.021,0.911,4.674
		c0,1.652-0.285,3.153-0.911,4.673c-0.627,1.539-1.216,2.451-2.641,4.085H195.383z"/>
</g>
</svg>
