<?xml version="1.0" encoding="utf-8"?>
<!-- Generator: Adobe Illustrator 16.0.3, SVG Export Plug-In . SVG Version: 6.00 Build 0)  -->
<!DOCTYPE svg PUBLIC "-//W3C//DTD SVG 1.1//EN" "http://www.w3.org/Graphics/SVG/1.1/DTD/svg11.dtd">
<svg version="1.1" id="レイヤー_1" xmlns="http://www.w3.org/2000/svg" xmlns:xlink="http://www.w3.org/1999/xlink" x="0px"
	 y="0px" width="127.582px" height="87.861px" viewBox="0 0 127.582 87.861" enable-background="new 0 0 127.582 87.861"
	 xml:space="preserve">
<path fill-rule="evenodd" clip-rule="evenodd" fill="#FFFFFF" stroke="#000000" d="M52.592,0.5c-4.05,0-7.333,3.283-7.333,7.333
	c0,4.049,3.283,7.333,7.333,7.333h31.493l8.811,7.74l-1.898-7.74h7.824c4.05,0,7.333-3.283,7.333-7.333
	c0-4.05-3.283-7.333-7.333-7.333H52.592z"/>
<g>
	<path d="M24.438,58.269c-0.036,0.288-0.055,0.558-0.055,0.919v5.896c0,0.378,0.019,0.656,0.055,0.954h-0.721
		c0.045-0.315,0.063-0.604,0.063-0.964v-5.887c0-0.324-0.019-0.613-0.063-0.919H24.438z M25.869,59.402
		c0-0.369-0.009-0.647-0.036-0.891c0.262,0.027,0.486,0.036,0.883,0.036h2.998c0.405,0,0.639-0.009,0.873-0.036
		c-0.027,0.262-0.036,0.477-0.036,0.838v5.6c0,0.342,0.018,0.692,0.054,0.953h-0.666v-0.584h-3.475v0.594h-0.648
		c0.036-0.252,0.054-0.559,0.054-0.981V59.402z M26.473,61.527h3.466v-2.431h-3.466V61.527z M26.473,64.769h3.466v-2.692h-3.466
		V64.769z"/>
	<path d="M33.321,64.489c0-0.071,0-0.126,0-0.243c-0.36,0.189-0.63,0.307-1.135,0.514c-0.071-0.207-0.162-0.324-0.324-0.478
		c0.892-0.243,1.639-0.603,2.332-1.125h-1.351c-0.396,0-0.639,0.019-0.918,0.054v-0.576c0.27,0.036,0.522,0.055,0.918,0.055h1.873
		c0.216-0.234,0.279-0.315,0.423-0.531h-1.287c-0.279,0-0.505,0.008-0.721,0.026c0.019-0.188,0.027-0.405,0.027-0.595v-1.242
		c0-0.197-0.009-0.422-0.027-0.611c0.181,0.018,0.324,0.027,0.721,0.027h4.258c0.388,0,0.531-0.01,0.712-0.027
		c-0.019,0.189-0.027,0.378-0.027,0.611v1.242c0,0.226,0.009,0.406,0.027,0.595c-0.217-0.019-0.45-0.026-0.721-0.026h-2.395
		c-0.153,0.233-0.216,0.324-0.388,0.531h3.764c0.396,0,0.648-0.019,0.918-0.055v0.576c-0.252-0.035-0.522-0.054-0.909-0.054h-1.251
		c0.603,0.513,1.179,0.765,2.35,1.044c-0.136,0.162-0.207,0.279-0.315,0.495c-0.576-0.188-0.801-0.278-1.242-0.504
		c-0.009,0.207-0.009,0.233-0.009,0.405v0.801c0,0.478-0.181,0.604-0.874,0.604c-0.197,0-0.504-0.01-0.711-0.027
		c-0.045-0.234-0.063-0.333-0.135-0.494c0.306,0.035,0.63,0.063,0.873,0.063c0.234,0,0.297-0.036,0.297-0.18v-0.945H36.13v0.953
		c0,0.469,0.009,0.686,0.054,0.945h-0.639c0.045-0.27,0.054-0.494,0.054-0.945v-0.953H33.87v0.854c0,0.396,0.009,0.567,0.045,0.766
		h-0.639c0.026-0.226,0.045-0.441,0.045-0.766V64.489z M34.365,58.574c0-0.216-0.009-0.332-0.036-0.521h0.612
		c-0.026,0.18-0.026,0.288-0.026,0.521v0.108h2.07v-0.108c0-0.225-0.009-0.342-0.036-0.521h0.621
		c-0.027,0.18-0.036,0.288-0.036,0.531v0.099h1.495c0.369,0,0.666-0.019,0.918-0.054v0.576c-0.333-0.055-0.576-0.072-0.909-0.072
		h-1.504c0,0.18,0.009,0.288,0.036,0.45h-0.612c0.019-0.144,0.027-0.198,0.027-0.45h-2.07c0,0.252,0,0.297,0.026,0.441h-0.612
		c0.027-0.172,0.027-0.234,0.036-0.441h-1.449c-0.324,0-0.585,0.018-0.909,0.063v-0.576c0.252,0.045,0.54,0.063,0.918,0.063h1.44
		V58.574z M33.699,60.754h4.556v-0.568h-4.556V60.754z M33.699,61.744h4.556v-0.586h-4.556V61.744z M34.879,63.157
		c-0.36,0.342-0.621,0.54-1.071,0.819c0.207,0,0.233,0,0.306,0h1.485c0-0.289-0.009-0.424-0.036-0.604h0.621
		c-0.035,0.198-0.054,0.342-0.054,0.604h1.747c0.144,0,0.197,0,0.351-0.01c-0.369-0.225-0.585-0.396-1.018-0.81H34.879z"/>
	<path d="M43.122,58.205c0.198,0.414,0.324,0.631,0.586,0.973c0.359,0.459,0.63,0.729,1.025,1.018
		c-0.135,0.145-0.197,0.234-0.323,0.486c-0.693-0.586-1.162-1.171-1.531-1.918c-0.414,0.928-0.972,1.621-1.872,2.35
		c-0.117-0.225-0.198-0.352-0.333-0.477c0.918-0.658,1.503-1.423,1.891-2.432H43.122z M41.781,62.41
		c-0.343,0-0.559,0.009-0.793,0.045v-0.586c0.226,0.037,0.45,0.045,0.838,0.045h1.755c0.379,0,0.604-0.008,0.802-0.035
		c-0.027,0.234-0.036,0.449-0.036,0.837v1.603c0,0.477-0.171,0.612-0.774,0.612c-0.099,0-0.135,0-0.387-0.019
		c-0.009-0.216-0.036-0.342-0.126-0.558c0.207,0.036,0.423,0.063,0.558,0.063c0.145,0,0.198-0.037,0.198-0.145V62.41h-1.099v2.979
		c0,0.343,0.019,0.558,0.055,0.792h-0.657c0.036-0.242,0.054-0.477,0.054-0.792V62.41H41.781z M41.763,60.537
		c0.181,0.027,0.369,0.036,0.648,0.036h0.963c0.288,0,0.46-0.009,0.648-0.036v0.559c-0.198-0.027-0.351-0.036-0.63-0.036h-1.009
		c-0.243,0-0.423,0.009-0.621,0.036V60.537z M46.184,64.931c-0.666,0.647-1.081,0.945-1.899,1.351
		c-0.127-0.207-0.208-0.307-0.379-0.459c0.495-0.207,0.712-0.324,1.081-0.586c0.314-0.207,0.459-0.342,0.747-0.648L46.184,64.931z
		 M45.454,58.89c-0.433,0-0.621,0.009-0.892,0.054v-0.611c0.252,0.045,0.459,0.054,0.883,0.054h2.646
		c0.414,0,0.64-0.009,0.864-0.054v0.611c-0.279-0.045-0.45-0.054-0.864-0.054h-1.018c-0.117,0.396-0.216,0.657-0.359,0.972h1.098
		c0.433,0,0.612-0.008,0.811-0.035c-0.018,0.225-0.027,0.469-0.027,0.828v2.962c0,0.351,0.01,0.576,0.027,0.854
		c-0.234-0.018-0.468-0.026-0.774-0.026h-2.151c-0.288,0-0.478,0.009-0.766,0.026c0.019-0.252,0.027-0.549,0.027-0.836v-2.963
		c0-0.351-0.009-0.576-0.036-0.837c0.243,0.019,0.414,0.026,0.783,0.026h0.459c0.145-0.332,0.262-0.656,0.343-0.972H45.454z
		 M45.481,61.203h2.583v-0.855h-2.583V61.203z M45.481,62.572h2.583v-0.892h-2.583V62.572z M45.481,63.967h2.583v-0.918h-2.583
		V63.967z M47.462,64.598c0.549,0.549,0.99,0.855,1.81,1.251c-0.153,0.153-0.271,0.288-0.388,0.478
		c-0.828-0.459-1.251-0.783-1.836-1.396L47.462,64.598z"/>
</g>
<g>
	<path d="M10.431,29.727c-0.352,0-0.522,0.01-0.738,0.055v-0.594c0.207,0.045,0.387,0.053,0.756,0.053h1.099v-0.477
		c0-0.117-0.019-0.262-0.045-0.369h0.603c-0.026,0.107-0.036,0.252-0.036,0.369v0.477h0.99c0.315,0,0.495-0.008,0.729-0.053v0.584
		c-0.207-0.035-0.387-0.045-0.729-0.045h-0.854c0.342,0.478,0.594,0.711,1.269,1.144c-0.144,0.171-0.207,0.279-0.314,0.486
		c-0.585-0.495-0.774-0.702-1.126-1.242c0.019,0.198,0.027,0.459,0.036,0.792v1.306c0,0.315,0.01,0.53,0.045,0.774h-0.621
		c0.036-0.234,0.055-0.478,0.055-0.774v-1.278c0-0.217,0.009-0.45,0.026-0.748c-0.369,0.775-0.882,1.369-1.701,1.999
		c-0.099-0.207-0.198-0.351-0.342-0.504c0.45-0.298,0.837-0.621,1.17-0.99c0.271-0.306,0.405-0.495,0.657-0.964H10.431z
		 M12.033,27.719c0.315-0.531,0.478-0.936,0.604-1.476l0.54,0.171c-0.216,0.54-0.405,0.954-0.612,1.305h0.531
		c0.343,0,0.522-0.008,0.729-0.045v0.604c-0.225-0.035-0.405-0.045-0.729-0.045h-2.674c-0.351,0-0.54,0.01-0.747,0.045v-0.604
		c0.198,0.037,0.388,0.045,0.747,0.045H12.033z M12.952,25.648c0.369,0,0.54-0.009,0.756-0.045v0.604
		c-0.243-0.036-0.414-0.045-0.765-0.045h-2.305c-0.379,0-0.55,0.009-0.783,0.045v-0.604c0.207,0.036,0.396,0.045,0.792,0.045h0.9
		v-0.242c0-0.289-0.01-0.433-0.045-0.631h0.657c-0.036,0.189-0.046,0.333-0.046,0.631v0.242H12.952z M10.89,27.639
		c-0.153-0.504-0.271-0.783-0.514-1.207l0.478-0.18c0.252,0.45,0.36,0.721,0.513,1.215L10.89,27.639z M17.057,27.656
		c0.404,0,0.621-0.018,0.828-0.054v0.621c-0.226-0.036-0.424-0.045-0.793-0.045h-0.333v3.925c0,0.45,0.01,0.676,0.055,0.9h-0.693
		c0.036-0.234,0.054-0.459,0.054-0.9v-3.925h-1.413c0,0.116,0,0.116,0,0.351c-0.009,1.197-0.198,2.413-0.514,3.232
		c-0.18,0.477-0.359,0.819-0.666,1.233c-0.188-0.181-0.288-0.261-0.513-0.378c0.864-1.063,1.134-2.323,1.134-5.33
		c0-1.018-0.018-1.404-0.045-1.666c0.045,0,0.09,0,0.108,0c0.477,0,1.396-0.18,2.134-0.414c0.378-0.125,0.603-0.225,0.828-0.387
		l0.459,0.504c-0.081,0.027-0.09,0.027-0.324,0.127c-0.747,0.306-1.432,0.477-2.593,0.666v1.539H17.057z"/>
	<path d="M26.813,27.008c-0.207-0.035-0.378-0.045-0.828-0.045c-0.108,1.072-0.234,1.621-0.54,2.377
		c-0.181,0.45-0.388,0.838-0.657,1.225c0.647,0.811,1.314,1.359,2.188,1.791c-0.181,0.189-0.271,0.324-0.378,0.559
		c-0.9-0.541-1.585-1.144-2.152-1.908c-0.666,0.773-1.305,1.27-2.476,1.908c-0.126-0.225-0.233-0.36-0.405-0.504
		c0.576-0.252,0.9-0.433,1.314-0.729c0.495-0.351,0.9-0.729,1.243-1.144c-0.469-0.738-0.757-1.432-0.955-2.277
		c-0.225,0.459-0.342,0.675-0.585,1.025c-0.153-0.18-0.252-0.26-0.432-0.369c0.09-0.107,0.116-0.143,0.188-0.242
		c-0.162-0.027-0.342-0.036-0.801-0.036H21.16v2.431c0.53-0.18,0.783-0.27,1.458-0.54l0.009,0.558
		c-1.152,0.451-1.899,0.703-2.565,0.883c-0.702,0.189-1.135,0.307-1.333,0.378l-0.161-0.647c0.197-0.01,0.387-0.037,0.675-0.1
		v-3.098c0-0.404-0.009-0.621-0.045-0.891h0.621c-0.036,0.279-0.045,0.521-0.045,0.883v2.979c0.234-0.054,0.504-0.136,0.837-0.234
		v-5.087h-0.945c-0.288,0-0.549,0.019-0.81,0.055v-0.639c0.261,0.035,0.495,0.053,0.828,0.053h2.179c0.369,0,0.585-0.008,0.81-0.045
		v0.621c-0.243-0.035-0.414-0.045-0.747-0.045H21.16v1.963h0.378c0.468,0,0.639-0.009,0.81-0.035v0.576
		c0.441-0.693,0.766-1.514,1.009-2.584c0.144-0.595,0.225-1.08,0.234-1.359l0.63,0.125c-0.054,0.181-0.054,0.181-0.288,1.18
		c-0.045,0.172-0.072,0.279-0.117,0.441h2.143c0.405,0,0.657-0.018,0.855-0.055V27.008z M23.662,26.963
		c-0.081,0.252-0.107,0.352-0.197,0.576c0.216,1.026,0.504,1.783,0.98,2.539c0.567-0.909,0.864-1.873,0.973-3.115H23.662z"/>
	<path d="M31.68,25.289c0-0.226-0.018-0.406-0.054-0.576h0.685c-0.045,0.152-0.055,0.306-0.055,0.585v0.333h2.503
		c0.505,0,0.774-0.018,0.99-0.055v0.621c-0.288-0.035-0.54-0.045-0.972-0.045h-5.744c-0.009,2.188-0.09,3.629-0.252,4.547
		c-0.144,0.774-0.405,1.477-0.828,2.197c-0.117-0.154-0.252-0.271-0.486-0.406c0.36-0.558,0.567-1.062,0.721-1.729
		c0.171-0.783,0.27-2.214,0.27-4.078c0-0.539-0.009-0.828-0.036-1.098c0.288,0.027,0.576,0.045,0.928,0.045h2.331V25.289z
		 M30.16,32.968c0.045-0.252,0.054-0.504,0.054-1.017v-1.99c0-0.486,0.018-0.918,0.036-1.206c-0.226,0.405-0.459,0.692-0.874,1.106
		c-0.099-0.188-0.233-0.359-0.378-0.485c0.586-0.505,1.026-1.044,1.432-1.773c0.243-0.433,0.433-0.874,0.514-1.233l0.603,0.171
		c-0.198,0.495-0.486,1.071-0.774,1.53v3.889c0,0.514,0.01,0.738,0.046,1.009H30.16z M34.642,32.131
		c0,0.504-0.233,0.684-0.918,0.684c-0.306,0-0.693-0.018-1.063-0.054c-0.036-0.252-0.071-0.405-0.162-0.63
		c0.514,0.1,0.838,0.135,1.162,0.135c0.342,0,0.414-0.045,0.414-0.261v-3.673h-1.98c-0.415,0-0.631,0.008-0.874,0.045v-0.595
		c0.189,0.036,0.414,0.046,0.855,0.046h1.999v-0.604c0-0.315-0.01-0.514-0.045-0.738h0.657c-0.036,0.216-0.046,0.396-0.046,0.729
		v0.613h0.324c0.388,0,0.621-0.019,0.855-0.055v0.612c-0.243-0.036-0.495-0.054-0.855-0.054h-0.324V32.131z M32.014,28.935
		c0.611,0.622,0.828,0.882,1.35,1.657l-0.495,0.359c-0.387-0.702-0.675-1.09-1.296-1.711L32.014,28.935z"/>
	<path d="M39.205,28.881c0,0.404-0.333,0.738-0.738,0.738c-0.404,0-0.738-0.334-0.738-0.738c0-0.405,0.334-0.738,0.738-0.738
		C38.872,28.143,39.205,28.476,39.205,28.881z"/>
	<path d="M45.523,28.476c0.324,0.964,0.666,1.558,1.233,2.151c0.657,0.693,1.458,1.188,2.548,1.585
		c-0.171,0.207-0.243,0.323-0.369,0.603c-1.135-0.504-1.954-1.08-2.656-1.872c-0.477-0.531-0.855-1.206-1.161-2.053
		c-0.271,0.981-0.721,1.782-1.404,2.458c-0.576,0.585-1.18,0.973-2.206,1.432c-0.126-0.271-0.188-0.36-0.387-0.559
		c1.161-0.414,2.044-1.018,2.629-1.783c0.432-0.576,0.702-1.179,0.854-1.962H42.57c-0.369,0-0.675,0.019-0.954,0.054v-0.639
		c0.27,0.035,0.549,0.054,0.954,0.054h2.125c0.09-0.666,0.099-0.864,0.117-1.936h-2.539c-0.469,0-0.747,0.019-0.999,0.063v-0.666
		c0.233,0.045,0.566,0.063,0.999,0.063h5.905c0.424,0,0.757-0.018,1-0.063v0.666c-0.252-0.045-0.531-0.063-1-0.063h-2.772
		c-0.009,0.999-0.036,1.359-0.108,1.936h2.584c0.405,0,0.676-0.019,0.964-0.054v0.639c-0.298-0.035-0.586-0.054-0.964-0.054H45.523z
		"/>
	<path d="M51.741,29.889c-0.441,0-0.72,0.019-0.999,0.055V29.34c0.306,0.045,0.549,0.055,1.008,0.055h4.952
		c0.477,0,0.711-0.01,1.017-0.055v0.604c-0.288-0.036-0.558-0.055-0.999-0.055h-2.277v0.828h1.998c0.433,0,0.631-0.008,0.883-0.045
		v0.586c-0.243-0.037-0.469-0.045-0.864-0.045h-2.017v0.936h2.674c0.477,0,0.756-0.018,1.044-0.054v0.621
		c-0.297-0.045-0.576-0.063-1.063-0.063h-5.734c-0.486,0-0.756,0.019-1.063,0.063v-0.621c0.307,0.036,0.585,0.054,1.045,0.054h2.548
		v-0.936H52.02c-0.405,0-0.63,0.008-0.873,0.045v-0.586c0.252,0.037,0.459,0.045,0.891,0.045h1.855v-0.828H51.741z M53.524,25.64
		c0.144-0.271,0.242-0.54,0.306-0.837l0.648,0.107c-0.063,0.135-0.252,0.522-0.36,0.729h2.143c0.433,0,0.685-0.009,0.918-0.036
		c-0.026,0.217-0.036,0.379-0.036,0.756v1.521c0,0.361,0.01,0.559,0.036,0.811c-0.188-0.018-0.504-0.027-0.891-0.027h-4.123
		c-0.352,0-0.685,0.01-0.892,0.027c0.026-0.252,0.036-0.441,0.036-0.801v-1.414c0-0.404-0.01-0.63-0.036-0.873
		c0.188,0.027,0.477,0.036,0.909,0.036H53.524z M51.867,26.891h4.718v-0.765h-4.718V26.891z M51.867,28.197h4.718v-0.829h-4.718
		V28.197z"/>
</g>
<g>
	<path d="M85.879,30.564c-0.541,1.098-0.631,1.242-1.342,2.287l-0.504-0.433c0.306-0.298,0.513-0.567,0.819-1.054
		c0.225-0.359,0.359-0.639,0.594-1.197L85.879,30.564z M85.419,29.609c-0.396-0.396-0.756-0.656-1.323-0.972l0.324-0.405
		c0.576,0.324,0.847,0.504,1.342,0.918L85.419,29.609z M86.446,25.352c0-0.234-0.018-0.396-0.036-0.566h0.612
		c-0.026,0.17-0.036,0.323-0.036,0.566v0.1h2.125v-0.1c0-0.234-0.009-0.387-0.027-0.566h0.612c-0.026,0.17-0.036,0.314-0.036,0.566
		v0.1h1.521c0.388,0,0.667-0.019,0.909-0.055v0.586c-0.261-0.037-0.54-0.055-0.909-0.055H89.66c0,0.243,0.01,0.36,0.036,0.522
		h-0.612c0.019-0.171,0.027-0.279,0.027-0.522h-2.125c0,0.288,0.01,0.424,0.036,0.604H86.41c0.027-0.18,0.036-0.324,0.036-0.604
		h-1.404c-0.369,0-0.648,0.018-0.909,0.055v-0.586c0.243,0.036,0.522,0.055,0.909,0.055h1.404V25.352z M85.717,27.908
		c-0.414-0.432-0.738-0.711-1.27-1.044l0.351-0.378c0.54,0.351,0.847,0.594,1.288,1.018L85.717,27.908z M86.896,28.719
		c-0.378,0-0.63,0.009-0.854,0.045v-0.531c0.207,0.036,0.449,0.045,0.854,0.045h0.531c-0.162-0.261-0.261-0.396-0.459-0.594
		l0.459-0.198c0.243,0.297,0.352,0.468,0.514,0.792h0.801v-0.963c-0.72,0.054-0.72,0.054-0.927,0.063c-0.108,0-0.108,0-0.685,0.027
		c-0.189,0-0.234,0.009-0.54,0.018c-0.036-0.17-0.081-0.297-0.181-0.486c0.153,0.01,0.279,0.01,0.352,0.01
		c1.899,0,3.754-0.225,4.385-0.531l0.432,0.469c-0.9,0.207-1.594,0.314-2.35,0.387v1.008h0.828c0.315-0.404,0.504-0.711,0.657-1.107
		l0.522,0.18c-0.243,0.396-0.405,0.631-0.631,0.928H91.2c0.414,0,0.657-0.009,0.864-0.045v0.531
		c-0.252-0.027-0.54-0.045-0.864-0.045h-1.521c0.621,0.566,1.513,1.026,2.646,1.359c-0.243,0.333-0.243,0.333-0.306,0.477
		c-0.307-0.125-0.405-0.162-0.757-0.332v1.818c0,0.359,0.019,0.675,0.055,0.936H90.75v-0.359h-3.511v0.351H86.68
		c0.036-0.271,0.054-0.585,0.054-0.927v-1.773c-0.252,0.125-0.333,0.162-0.603,0.279c-0.063-0.145-0.171-0.279-0.324-0.414
		c1.098-0.361,1.872-0.802,2.484-1.414H86.896z M87.239,30.411v0.657h1.476v-0.657H87.239z M88.714,31.482h-1.476v0.702h1.476
		V31.482z M90.803,29.988c-0.666-0.36-1.125-0.693-1.603-1.188c0.019,0.171,0.027,0.333,0.027,0.478v0.135
		c0,0.162,0.009,0.306,0.036,0.432h-0.55c0.019-0.152,0.027-0.279,0.027-0.441v-0.125c0-0.145,0.009-0.334,0.027-0.478
		c-0.469,0.513-0.909,0.854-1.513,1.188H90.803z M90.758,31.068v-0.657h-1.558v0.657H90.758z M90.758,32.185v-0.702h-1.558v0.702
		H90.758z"/>
	<path d="M94.393,27.161c-0.486,0-0.729,0.009-0.945,0.045v-0.63c0.261,0.035,0.521,0.054,0.945,0.054h5.338
		c0.405,0,0.685-0.019,0.945-0.054v0.63c-0.252-0.036-0.477-0.045-0.945-0.045h-2.412v1.917h1.963c0.404,0,0.656-0.008,0.873-0.045
		v0.621c-0.252-0.035-0.441-0.045-0.873-0.045h-1.963v2.342h2.809c0.396,0,0.702-0.019,0.973-0.055v0.657
		c-0.343-0.045-0.604-0.063-0.973-0.063h-6.041c-0.378,0-0.684,0.019-0.99,0.063v-0.657c0.271,0.036,0.559,0.055,0.981,0.055h2.611
		v-2.342h-1.783c-0.423,0-0.666,0.01-0.9,0.045v-0.621c0.226,0.037,0.441,0.045,0.874,0.045h1.81v-1.917H94.393z M96.049,24.758
		c0.954,0.387,1.27,0.549,2.151,1.116l-0.369,0.485c-0.783-0.549-1.26-0.81-2.179-1.16L96.049,24.758z"/>
</g>
<g>
	<path d="M112.46,82.926c-0.541,1.098-0.631,1.242-1.342,2.286l-0.504-0.433c0.306-0.297,0.513-0.566,0.819-1.053
		c0.225-0.36,0.359-0.64,0.594-1.197L112.46,82.926z M112,81.971c-0.396-0.396-0.756-0.657-1.323-0.973l0.324-0.404
		c0.576,0.324,0.847,0.504,1.342,0.918L112,81.971z M113.027,77.713c0-0.234-0.018-0.396-0.036-0.567h0.612
		c-0.026,0.171-0.036,0.323-0.036,0.567v0.099h2.125v-0.099c0-0.234-0.009-0.388-0.027-0.567h0.612
		c-0.026,0.171-0.036,0.315-0.036,0.567v0.099h1.521c0.388,0,0.667-0.019,0.909-0.054v0.585c-0.261-0.036-0.54-0.054-0.909-0.054
		h-1.521c0,0.242,0.01,0.359,0.036,0.521h-0.612c0.019-0.171,0.027-0.279,0.027-0.521h-2.125c0,0.287,0.01,0.423,0.036,0.604h-0.612
		c0.027-0.181,0.036-0.324,0.036-0.604h-1.404c-0.369,0-0.648,0.018-0.909,0.054v-0.585c0.243,0.035,0.522,0.054,0.909,0.054h1.404
		V77.713z M112.298,80.27c-0.414-0.433-0.738-0.711-1.27-1.045l0.351-0.378c0.54,0.351,0.847,0.595,1.288,1.018L112.298,80.27z
		 M113.477,81.08c-0.378,0-0.63,0.008-0.854,0.045v-0.531c0.207,0.035,0.449,0.045,0.854,0.045h0.531
		c-0.162-0.262-0.261-0.396-0.459-0.594l0.459-0.199c0.243,0.297,0.352,0.469,0.514,0.793h0.801v-0.963
		c-0.72,0.053-0.72,0.053-0.927,0.063c-0.108,0-0.108,0-0.685,0.027c-0.189,0-0.234,0.008-0.54,0.018
		c-0.036-0.171-0.081-0.297-0.181-0.486c0.153,0.01,0.279,0.01,0.352,0.01c1.899,0,3.754-0.226,4.385-0.531l0.432,0.468
		c-0.9,0.207-1.594,0.315-2.35,0.387v1.009h0.828c0.315-0.405,0.504-0.711,0.657-1.107l0.522,0.18
		c-0.243,0.396-0.405,0.631-0.631,0.928h0.595c0.414,0,0.657-0.01,0.864-0.045v0.531c-0.252-0.027-0.54-0.045-0.864-0.045h-1.521
		c0.621,0.566,1.513,1.025,2.646,1.359c-0.243,0.332-0.243,0.332-0.306,0.477c-0.307-0.126-0.405-0.162-0.757-0.333v1.818
		c0,0.36,0.019,0.675,0.055,0.937h-0.567v-0.36h-3.511v0.351h-0.559c0.036-0.27,0.054-0.584,0.054-0.927v-1.773
		c-0.252,0.126-0.333,0.162-0.603,0.279c-0.063-0.144-0.171-0.279-0.324-0.414c1.098-0.36,1.872-0.802,2.484-1.413H113.477z
		 M113.82,82.771v0.658h1.476v-0.658H113.82z M115.295,83.844h-1.476v0.701h1.476V83.844z M117.384,82.35
		c-0.666-0.361-1.125-0.693-1.603-1.189c0.019,0.172,0.027,0.334,0.027,0.478v0.136c0,0.161,0.009,0.305,0.036,0.432h-0.55
		c0.019-0.153,0.027-0.279,0.027-0.441v-0.126c0-0.144,0.009-0.333,0.027-0.478c-0.469,0.514-0.909,0.855-1.513,1.189H117.384z
		 M117.339,83.43v-0.658h-1.558v0.658H117.339z M117.339,84.545v-0.701h-1.558v0.701H117.339z"/>
	<path d="M123.27,78.181c0-0.351-0.019-0.63-0.063-0.937h0.756c-0.045,0.324-0.063,0.576-0.063,0.937v1.854h2.665
		c0.369,0,0.692-0.018,1.017-0.063v0.693c-0.333-0.045-0.63-0.063-1.008-0.063H123.9v3.592h2.188c0.478,0,0.711-0.009,0.963-0.054
		v0.675c-0.261-0.036-0.504-0.054-0.963-0.054h-4.834c-0.469,0-0.721,0.018-0.973,0.054v-0.675c0.225,0.035,0.504,0.054,0.963,0.054
		h2.026v-3.592h-2.422c-0.388,0-0.729,0.019-1.081,0.063v-0.693c0.36,0.045,0.657,0.063,1.081,0.063h2.422V78.181z"/>
</g>
<g>
	<path d="M17.068,78.443c0-0.199-0.016-0.359-0.048-0.512h0.607c-0.04,0.136-0.048,0.271-0.048,0.52v0.296h2.223
		c0.448,0,0.688-0.017,0.88-0.048v0.552c-0.256-0.032-0.48-0.04-0.863-0.04h-5.102c-0.008,1.943-0.08,3.223-0.224,4.037
		c-0.128,0.688-0.36,1.313-0.736,1.951c-0.104-0.136-0.224-0.24-0.432-0.359c0.32-0.496,0.504-0.943,0.64-1.535
		c0.152-0.695,0.24-1.967,0.24-3.622c0-0.479-0.008-0.735-0.032-0.976c0.256,0.023,0.512,0.04,0.823,0.04h2.071V78.443z
		 M15.717,85.264c0.04-0.225,0.048-0.447,0.048-0.904v-1.766c0-0.433,0.017-0.816,0.032-1.072c-0.2,0.359-0.407,0.615-0.775,0.983
		c-0.088-0.167-0.208-0.319-0.336-0.432c0.52-0.448,0.911-0.927,1.271-1.575c0.216-0.384,0.384-0.775,0.456-1.096l0.535,0.152
		c-0.176,0.439-0.432,0.951-0.688,1.359v3.454c0,0.456,0.008,0.655,0.04,0.896H15.717z M19.699,84.52
		c0,0.448-0.208,0.607-0.815,0.607c-0.272,0-0.616-0.016-0.944-0.047c-0.031-0.225-0.063-0.36-0.144-0.561
		c0.456,0.088,0.744,0.121,1.031,0.121c0.304,0,0.368-0.041,0.368-0.232v-3.262h-1.759c-0.368,0-0.561,0.008-0.776,0.039v-0.527
		c0.168,0.031,0.368,0.04,0.76,0.04h1.775v-0.536c0-0.279-0.008-0.455-0.04-0.655h0.584c-0.032,0.192-0.04,0.352-0.04,0.647v0.544
		h0.287c0.345,0,0.552-0.017,0.76-0.048v0.543c-0.216-0.031-0.439-0.047-0.76-0.047h-0.287V84.52z M17.364,81.682
		c0.544,0.552,0.735,0.783,1.199,1.471l-0.439,0.32c-0.344-0.623-0.6-0.968-1.151-1.52L17.364,81.682z"/>
</g>
<g>
	<path d="M9.32,46.195c-0.344,0.031-0.68,0.047-1.007,0.063c-0.008,0-0.017,0-0.024,0c-0.144,0-0.224-0.08-0.239-0.256
		c0-0.009,0-0.017,0-0.024c0-0.16,0.088-0.248,0.239-0.248c0.12,0,0.248-0.008,0.376-0.008c0.168-0.224,0.319-0.447,0.472-0.68
		c-0.296-0.424-0.695-0.879-1.008-1.199c-0.039-0.039-0.063-0.096-0.063-0.16c0-0.072,0.032-0.144,0.088-0.215
		c0.056-0.064,0.128-0.097,0.192-0.097c0.063,0,0.119,0.024,0.167,0.072c0.057,0.056,0.112,0.12,0.168,0.184
		c0.272-0.448,0.536-0.919,0.704-1.312c0.04-0.096,0.12-0.136,0.208-0.136c0.04,0,0.088,0.009,0.136,0.032
		c0.12,0.04,0.184,0.119,0.184,0.216c0,0.04-0.008,0.08-0.031,0.128c-0.208,0.447-0.496,0.928-0.84,1.479
		c0.032,0.041,0.056,0.072,0.088,0.104c0.111,0.144,0.224,0.28,0.328,0.416c0.287-0.456,0.551-0.911,0.743-1.304
		c0.048-0.096,0.128-0.144,0.224-0.144c0.048,0,0.096,0.008,0.152,0.032c0.104,0.063,0.16,0.144,0.16,0.24
		c0,0.047-0.009,0.088-0.024,0.127c-0.368,0.672-0.928,1.52-1.423,2.184c0.384-0.024,0.759-0.049,1.135-0.104
		c-0.071-0.176-0.151-0.36-0.239-0.528c-0.009-0.023-0.017-0.047-0.017-0.071c0-0.088,0.072-0.159,0.16-0.2
		c0.04-0.016,0.08-0.023,0.112-0.023c0.079,0,0.151,0.039,0.191,0.119c0.192,0.368,0.399,0.872,0.512,1.256
		c0.008,0.023,0.008,0.048,0.008,0.072c0,0.096-0.063,0.184-0.168,0.215c-0.04,0.009-0.071,0.017-0.111,0.017
		c-0.097,0-0.176-0.04-0.208-0.136c-0.024-0.088-0.048-0.176-0.08-0.264c-0.224,0.039-0.456,0.064-0.688,0.096v3.318
		c0,0.136-0.112,0.216-0.288,0.216c-0.168,0-0.288-0.08-0.288-0.216V46.195z M8.961,46.875c0,0.008,0,0.008,0,0.016
		c-0.04,0.719-0.16,1.479-0.344,2.039c-0.04,0.111-0.145,0.176-0.264,0.176c-0.032,0-0.072-0.008-0.104-0.017
		c-0.111-0.032-0.199-0.12-0.199-0.231c0-0.032,0.008-0.057,0.016-0.088c0.208-0.553,0.312-1.328,0.344-1.92
		c0.008-0.127,0.136-0.199,0.271-0.199c0.009,0,0.017,0,0.024,0C8.841,46.658,8.961,46.738,8.961,46.875z M11.08,48.113
		c0,0.112-0.08,0.192-0.216,0.225c-0.032,0.008-0.057,0.008-0.089,0.008c-0.127,0-0.216-0.072-0.231-0.184
		c-0.056-0.393-0.16-0.889-0.264-1.264c-0.008-0.032-0.017-0.057-0.017-0.088c0-0.112,0.08-0.168,0.185-0.2
		c0.032-0.008,0.063-0.008,0.096-0.008c0.104,0,0.184,0.048,0.216,0.151c0.128,0.4,0.24,0.889,0.312,1.312
		C11.08,48.082,11.08,48.098,11.08,48.113z M12.511,46.211c0,1.016-0.128,1.719-0.432,2.262c-0.224,0.408-0.552,0.744-0.983,1.032
		c-0.064,0.04-0.144,0.063-0.208,0.063c-0.096,0-0.191-0.039-0.248-0.127c-0.048-0.057-0.063-0.129-0.063-0.192
		c0-0.097,0.04-0.185,0.128-0.239c0.367-0.24,0.647-0.496,0.839-0.809c0.272-0.439,0.36-1.047,0.36-1.998
		c0-0.176,0.151-0.248,0.319-0.248S12.511,46.043,12.511,46.211z M12.935,43.74c-0.191,0.463-0.424,0.92-0.695,1.352
		c0.655-0.041,1.303-0.088,1.959-0.168c-0.168-0.2-0.344-0.4-0.536-0.584c-0.032-0.04-0.048-0.08-0.048-0.128
		c0-0.072,0.048-0.144,0.128-0.192c0.064-0.031,0.12-0.048,0.176-0.048c0.08,0,0.152,0.032,0.208,0.089
		c0.424,0.432,0.823,0.879,1.199,1.414c0.04,0.049,0.056,0.104,0.056,0.152c0,0.096-0.056,0.184-0.136,0.24
		c-0.063,0.031-0.128,0.056-0.191,0.056c-0.08,0-0.152-0.04-0.208-0.128c-0.096-0.137-0.192-0.271-0.28-0.4
		c-0.959,0.137-2.143,0.232-3.158,0.272c-0.008,0-0.008,0-0.016,0c-0.16,0-0.256-0.104-0.264-0.272c0-0.008,0-0.016,0-0.023
		c0-0.145,0.08-0.256,0.288-0.256c0.063,0,0.127,0,0.191,0c0.28-0.439,0.52-0.896,0.712-1.375H11.16
		c-0.137,0-0.217-0.104-0.217-0.264s0.08-0.272,0.217-0.272h1.526v-0.751c0-0.145,0.12-0.24,0.296-0.24s0.304,0.096,0.304,0.24
		v0.751h1.896c0.136,0,0.216,0.104,0.216,0.272c0,0.151-0.08,0.264-0.216,0.264H12.935z M13.311,46.154
		c0-0.136,0.136-0.215,0.304-0.215c0.176,0,0.304,0.079,0.304,0.215v2.527c0,0.215,0.048,0.231,0.416,0.231
		c0.376,0,0.439-0.071,0.487-0.247c0.064-0.248,0.08-0.664,0.08-0.984c0-0.191,0.145-0.256,0.304-0.256
		c0.145,0,0.272,0.08,0.272,0.264c0,0.424-0.024,0.96-0.136,1.279c-0.128,0.368-0.4,0.496-1.063,0.496
		c-0.76,0-0.968-0.08-0.968-0.592V46.154z"/>
	<path d="M17.673,45.283c0.063,0.057,0.104,0.136,0.104,0.224c0,0.072-0.024,0.144-0.08,0.208c-0.063,0.088-0.168,0.128-0.256,0.128
		c-0.071,0-0.136-0.024-0.184-0.063c-0.256-0.248-0.8-0.641-1.079-0.816c-0.072-0.047-0.112-0.127-0.112-0.224
		c0-0.063,0.024-0.136,0.063-0.192c0.072-0.079,0.16-0.127,0.265-0.127c0.048,0,0.104,0.016,0.151,0.039
		C16.929,44.676,17.329,44.987,17.673,45.283z M17.896,46.986c0,0.031-0.008,0.08-0.024,0.119c-0.264,0.696-0.663,1.6-1.095,2.239
		c-0.064,0.089-0.16,0.136-0.265,0.136c-0.063,0-0.136-0.023-0.207-0.056c-0.089-0.063-0.145-0.159-0.145-0.256
		c0-0.056,0.017-0.12,0.056-0.176c0.416-0.592,0.824-1.431,1.072-2.118c0.048-0.129,0.144-0.193,0.264-0.193
		c0.04,0,0.088,0.009,0.128,0.025C17.824,46.762,17.896,46.866,17.896,46.986z M18.232,43.532c0,0.071-0.024,0.151-0.08,0.208
		c-0.064,0.08-0.152,0.111-0.24,0.111s-0.176-0.031-0.239-0.096c-0.272-0.264-0.752-0.656-1.063-0.863
		c-0.064-0.04-0.104-0.128-0.104-0.216c0-0.072,0.024-0.144,0.072-0.208c0.063-0.08,0.16-0.128,0.264-0.128
		c0.056,0,0.112,0.017,0.168,0.048c0.328,0.208,0.815,0.6,1.119,0.896C18.2,43.355,18.232,43.444,18.232,43.532z M22.31,44.707
		c-0.264-0.375-0.552-0.743-0.839-1.07c-0.048-0.049-0.064-0.104-0.064-0.16c0-0.08,0.048-0.16,0.136-0.209
		c0.057-0.039,0.12-0.055,0.185-0.055c0.088,0,0.168,0.031,0.231,0.104c0.512,0.567,1.071,1.318,1.527,2.031
		c0.032,0.055,0.048,0.119,0.048,0.176c0,0.096-0.048,0.191-0.144,0.248c-0.057,0.039-0.12,0.055-0.185,0.055
		c-0.104,0-0.207-0.063-0.271-0.168c-0.08-0.143-0.176-0.287-0.264-0.432c-1.359,0.16-2.935,0.265-4.406,0.289
		c-0.176,0-0.295-0.104-0.304-0.305c0-0.008,0-0.016,0-0.016c0-0.168,0.104-0.305,0.272-0.305c0.144,0,0.279,0,0.424,0
		c0.527-0.799,0.951-1.678,1.239-2.438c0.048-0.137,0.159-0.2,0.288-0.2c0.048,0,0.096,0.008,0.144,0.024
		c0.136,0.039,0.208,0.127,0.208,0.248c0,0.031-0.008,0.071-0.024,0.119c-0.319,0.783-0.76,1.592-1.184,2.246
		C20.319,44.867,21.318,44.812,22.31,44.707z M22.15,46.259c0.495,0,0.728,0.192,0.728,0.688v1.831c0,0.504-0.232,0.695-0.728,0.695
		h-2.942c-0.504,0-0.728-0.191-0.728-0.695v-1.831c0-0.495,0.224-0.688,0.728-0.688H22.15z M22.022,48.896
		c0.168,0,0.247-0.047,0.247-0.223v-1.607c0-0.176-0.079-0.232-0.247-0.232h-2.687c-0.168,0-0.248,0.057-0.248,0.232v1.607
		c0,0.176,0.08,0.223,0.248,0.223H22.022z"/>
</g>
<g>
	<path d="M73.623,46.195c-0.344,0.031-0.68,0.047-1.007,0.063c-0.008,0-0.017,0-0.024,0c-0.144,0-0.224-0.08-0.239-0.256
		c0-0.009,0-0.017,0-0.024c0-0.16,0.088-0.248,0.239-0.248c0.12,0,0.248-0.008,0.376-0.008c0.168-0.224,0.319-0.447,0.472-0.68
		c-0.296-0.424-0.695-0.879-1.008-1.199c-0.039-0.039-0.063-0.096-0.063-0.16c0-0.072,0.032-0.144,0.088-0.215
		c0.056-0.064,0.128-0.097,0.192-0.097c0.063,0,0.119,0.024,0.167,0.072c0.057,0.056,0.112,0.12,0.168,0.184
		c0.272-0.448,0.536-0.919,0.704-1.312c0.04-0.096,0.12-0.136,0.208-0.136c0.04,0,0.088,0.009,0.136,0.032
		c0.12,0.04,0.184,0.119,0.184,0.216c0,0.04-0.008,0.08-0.031,0.128c-0.208,0.447-0.496,0.928-0.84,1.479
		c0.032,0.041,0.056,0.072,0.088,0.104c0.111,0.144,0.224,0.28,0.328,0.416c0.287-0.456,0.551-0.911,0.743-1.304
		c0.048-0.096,0.128-0.144,0.224-0.144c0.048,0,0.096,0.008,0.152,0.032c0.104,0.063,0.16,0.144,0.16,0.24
		c0,0.047-0.009,0.088-0.024,0.127c-0.368,0.672-0.928,1.52-1.423,2.184c0.384-0.024,0.759-0.049,1.135-0.104
		c-0.071-0.176-0.151-0.36-0.239-0.528c-0.009-0.023-0.017-0.047-0.017-0.071c0-0.088,0.072-0.159,0.16-0.2
		c0.04-0.016,0.08-0.023,0.112-0.023c0.079,0,0.151,0.039,0.191,0.119c0.192,0.368,0.399,0.872,0.512,1.256
		c0.008,0.023,0.008,0.048,0.008,0.072c0,0.096-0.063,0.184-0.168,0.215c-0.04,0.009-0.071,0.017-0.111,0.017
		c-0.097,0-0.176-0.04-0.208-0.136c-0.024-0.088-0.048-0.176-0.08-0.264c-0.224,0.039-0.456,0.064-0.688,0.096v3.318
		c0,0.136-0.112,0.216-0.288,0.216c-0.168,0-0.288-0.08-0.288-0.216V46.195z M73.263,46.875c0,0.008,0,0.008,0,0.016
		c-0.04,0.719-0.16,1.479-0.344,2.039c-0.04,0.111-0.145,0.176-0.264,0.176c-0.032,0-0.072-0.008-0.104-0.017
		c-0.111-0.032-0.199-0.12-0.199-0.231c0-0.032,0.008-0.057,0.016-0.088c0.208-0.553,0.312-1.328,0.344-1.92
		c0.008-0.127,0.136-0.199,0.271-0.199c0.009,0,0.017,0,0.024,0C73.143,46.658,73.263,46.738,73.263,46.875z M75.382,48.113
		c0,0.112-0.08,0.192-0.216,0.225c-0.032,0.008-0.057,0.008-0.089,0.008c-0.127,0-0.216-0.072-0.231-0.184
		c-0.056-0.393-0.16-0.889-0.264-1.264c-0.008-0.032-0.017-0.057-0.017-0.088c0-0.112,0.08-0.168,0.185-0.2
		c0.032-0.008,0.063-0.008,0.096-0.008c0.104,0,0.184,0.048,0.216,0.151c0.128,0.4,0.24,0.889,0.312,1.312
		C75.382,48.082,75.382,48.098,75.382,48.113z M76.813,46.211c0,1.016-0.128,1.719-0.432,2.262
		c-0.224,0.408-0.552,0.744-0.983,1.032c-0.064,0.04-0.144,0.063-0.208,0.063c-0.096,0-0.191-0.039-0.248-0.127
		c-0.048-0.057-0.063-0.129-0.063-0.192c0-0.097,0.04-0.185,0.128-0.239c0.367-0.24,0.647-0.496,0.839-0.809
		c0.272-0.439,0.36-1.047,0.36-1.998c0-0.176,0.151-0.248,0.319-0.248S76.813,46.043,76.813,46.211z M77.237,43.74
		c-0.191,0.463-0.424,0.92-0.695,1.352c0.655-0.041,1.303-0.088,1.959-0.168c-0.168-0.2-0.344-0.4-0.536-0.584
		c-0.032-0.04-0.048-0.08-0.048-0.128c0-0.072,0.048-0.144,0.128-0.192c0.064-0.031,0.12-0.048,0.176-0.048
		c0.08,0,0.152,0.032,0.208,0.089c0.424,0.432,0.823,0.879,1.199,1.414c0.04,0.049,0.056,0.104,0.056,0.152
		c0,0.096-0.056,0.184-0.136,0.24c-0.063,0.031-0.128,0.056-0.191,0.056c-0.08,0-0.152-0.04-0.208-0.128
		c-0.096-0.137-0.192-0.271-0.28-0.4c-0.959,0.137-2.143,0.232-3.158,0.272c-0.008,0-0.008,0-0.016,0
		c-0.16,0-0.256-0.104-0.264-0.272c0-0.008,0-0.016,0-0.023c0-0.145,0.08-0.256,0.288-0.256c0.063,0,0.127,0,0.191,0
		c0.28-0.439,0.52-0.896,0.712-1.375h-1.159c-0.137,0-0.217-0.104-0.217-0.264s0.08-0.272,0.217-0.272h1.526v-0.751
		c0-0.145,0.12-0.24,0.296-0.24s0.304,0.096,0.304,0.24v0.751h1.896c0.136,0,0.216,0.104,0.216,0.272
		c0,0.151-0.08,0.264-0.216,0.264H77.237z M77.613,46.154c0-0.136,0.136-0.215,0.304-0.215c0.176,0,0.304,0.079,0.304,0.215v2.527
		c0,0.215,0.048,0.231,0.416,0.231c0.376,0,0.439-0.071,0.487-0.247c0.064-0.248,0.08-0.664,0.08-0.984
		c0-0.191,0.145-0.256,0.304-0.256c0.145,0,0.272,0.08,0.272,0.264c0,0.424-0.024,0.96-0.136,1.279
		c-0.128,0.368-0.4,0.496-1.063,0.496c-0.76,0-0.968-0.08-0.968-0.592V46.154z"/>
	<path d="M81.975,45.283c0.063,0.057,0.104,0.136,0.104,0.224c0,0.072-0.024,0.144-0.08,0.208c-0.063,0.088-0.168,0.128-0.256,0.128
		c-0.071,0-0.136-0.024-0.184-0.063c-0.256-0.248-0.8-0.641-1.079-0.816c-0.072-0.047-0.112-0.127-0.112-0.224
		c0-0.063,0.024-0.136,0.063-0.192c0.072-0.079,0.16-0.127,0.265-0.127c0.048,0,0.104,0.016,0.151,0.039
		C81.231,44.676,81.631,44.987,81.975,45.283z M82.199,46.986c0,0.031-0.008,0.08-0.024,0.119c-0.264,0.696-0.663,1.6-1.095,2.239
		c-0.064,0.089-0.16,0.136-0.265,0.136c-0.063,0-0.136-0.023-0.207-0.056c-0.089-0.063-0.145-0.159-0.145-0.256
		c0-0.056,0.017-0.12,0.056-0.176c0.416-0.592,0.824-1.431,1.072-2.118c0.048-0.129,0.144-0.193,0.264-0.193
		c0.04,0,0.088,0.009,0.128,0.025C82.126,46.762,82.199,46.866,82.199,46.986z M82.535,43.532c0,0.071-0.024,0.151-0.08,0.208
		c-0.064,0.08-0.152,0.111-0.24,0.111s-0.176-0.031-0.239-0.096c-0.272-0.264-0.752-0.656-1.063-0.863
		c-0.064-0.04-0.104-0.128-0.104-0.216c0-0.072,0.024-0.144,0.072-0.208c0.063-0.08,0.16-0.128,0.264-0.128
		c0.056,0,0.112,0.017,0.168,0.048c0.328,0.208,0.815,0.6,1.119,0.896C82.502,43.355,82.535,43.444,82.535,43.532z M86.612,44.707
		c-0.264-0.375-0.552-0.743-0.839-1.07c-0.048-0.049-0.064-0.104-0.064-0.16c0-0.08,0.048-0.16,0.136-0.209
		c0.057-0.039,0.12-0.055,0.185-0.055c0.088,0,0.168,0.031,0.231,0.104c0.512,0.567,1.071,1.318,1.527,2.031
		c0.032,0.055,0.048,0.119,0.048,0.176c0,0.096-0.048,0.191-0.144,0.248c-0.057,0.039-0.12,0.055-0.185,0.055
		c-0.104,0-0.207-0.063-0.271-0.168c-0.08-0.143-0.176-0.287-0.264-0.432c-1.359,0.16-2.935,0.265-4.406,0.289
		c-0.176,0-0.295-0.104-0.304-0.305c0-0.008,0-0.016,0-0.016c0-0.168,0.104-0.305,0.272-0.305c0.144,0,0.279,0,0.424,0
		c0.527-0.799,0.951-1.678,1.239-2.438c0.048-0.137,0.159-0.2,0.288-0.2c0.048,0,0.096,0.008,0.144,0.024
		c0.136,0.039,0.208,0.127,0.208,0.248c0,0.031-0.008,0.071-0.024,0.119c-0.319,0.783-0.76,1.592-1.184,2.246
		C84.622,44.867,85.621,44.812,86.612,44.707z M86.453,46.259c0.495,0,0.728,0.192,0.728,0.688v1.831
		c0,0.504-0.232,0.695-0.728,0.695H83.51c-0.504,0-0.728-0.191-0.728-0.695v-1.831c0-0.495,0.224-0.688,0.728-0.688H86.453z
		 M86.325,48.896c0.168,0,0.247-0.047,0.247-0.223v-1.607c0-0.176-0.079-0.232-0.247-0.232h-2.687c-0.168,0-0.248,0.057-0.248,0.232
		v1.607c0,0.176,0.08,0.223,0.248,0.223H86.325z"/>
</g>
<g>
	<path d="M99.875,42.484c0-0.152,0.12-0.24,0.304-0.24c0.192,0,0.304,0.088,0.304,0.24v6.893c0,0.152-0.111,0.24-0.304,0.24
		c-0.184,0-0.304-0.088-0.304-0.24v-1.982c-0.6,0.256-1.312,0.527-1.871,0.688c-0.04,0.008-0.08,0.016-0.112,0.016
		c-0.119,0-0.216-0.072-0.256-0.208c-0.016-0.048-0.023-0.096-0.023-0.144c0-0.12,0.063-0.2,0.184-0.232
		c0.12-0.031,0.256-0.072,0.392-0.111v-4.182c0-0.152,0.128-0.232,0.305-0.232c0.184,0,0.304,0.08,0.304,0.232v3.989
		c0.367-0.128,0.728-0.256,1.079-0.415V42.484z M101.019,43.26c-0.152,0-0.24-0.119-0.24-0.287s0.088-0.296,0.24-0.296h3.014
		c0.44,0,0.696,0.208,0.696,0.624c0,0.055-0.008,0.111-0.017,0.176c-0.224,1.439-0.68,2.742-1.415,3.854
		c0.456,0.6,1.031,1.127,1.719,1.575c0.089,0.056,0.137,0.151,0.137,0.264c0,0.071-0.024,0.144-0.064,0.208
		c-0.063,0.104-0.16,0.152-0.264,0.152c-0.072,0-0.144-0.024-0.208-0.064c-0.672-0.447-1.239-0.983-1.703-1.6
		c-0.487,0.616-1.063,1.16-1.751,1.623c-0.063,0.041-0.136,0.064-0.208,0.064c-0.096,0-0.191-0.04-0.256-0.145
		c-0.048-0.063-0.063-0.127-0.063-0.191c0-0.104,0.056-0.207,0.16-0.271c0.703-0.464,1.279-1.008,1.742-1.607
		c-0.768-1.239-1.151-2.639-1.263-4.078H101.019z M101.867,43.26c0.071,0.68,0.159,1.336,0.367,1.991
		c0.168,0.528,0.4,1.056,0.688,1.527c0.608-0.976,0.976-2.079,1.151-3.246c0.009-0.032,0.009-0.056,0.009-0.08
		c0-0.136-0.08-0.192-0.248-0.192H101.867z"/>
	<path d="M107.444,43.236c-0.136,0-0.24-0.137-0.24-0.313c0-0.159,0.104-0.303,0.24-0.303h1.583c0.487,0,0.72,0.184,0.728,0.663
		c0.016,1.056,0.304,2.007,0.832,2.982c0.52,0.952,1.438,1.888,2.326,2.431c0.096,0.064,0.152,0.168,0.152,0.279
		c0,0.072-0.024,0.152-0.072,0.225c-0.08,0.104-0.184,0.16-0.296,0.16c-0.072,0-0.152-0.024-0.224-0.072
		c-1.439-0.968-2.615-2.447-3.03-4.422c-0.464,1.982-1.647,3.51-3.079,4.438c-0.088,0.057-0.167,0.08-0.239,0.08
		c-0.12,0-0.216-0.056-0.296-0.168c-0.048-0.072-0.072-0.144-0.072-0.216c0-0.104,0.064-0.208,0.176-0.28
		c0.92-0.575,1.775-1.438,2.312-2.438c0.512-0.96,0.823-1.959,0.839-2.823c0-0.184-0.063-0.224-0.248-0.224H107.444z"/>
</g>
<g>
	<path d="M48.699,42.484c0-0.152,0.12-0.24,0.304-0.24c0.192,0,0.304,0.088,0.304,0.24v6.893c0,0.152-0.111,0.24-0.304,0.24
		c-0.184,0-0.304-0.088-0.304-0.24v-1.982c-0.6,0.256-1.312,0.527-1.871,0.688c-0.04,0.008-0.08,0.016-0.112,0.016
		c-0.119,0-0.216-0.072-0.256-0.208c-0.016-0.048-0.023-0.096-0.023-0.144c0-0.12,0.063-0.2,0.184-0.232
		c0.12-0.031,0.256-0.072,0.392-0.111v-4.182c0-0.152,0.128-0.232,0.305-0.232c0.184,0,0.304,0.08,0.304,0.232v3.989
		c0.367-0.128,0.728-0.256,1.079-0.415V42.484z M49.843,43.26c-0.152,0-0.24-0.119-0.24-0.287s0.088-0.296,0.24-0.296h3.014
		c0.44,0,0.696,0.208,0.696,0.624c0,0.055-0.008,0.111-0.017,0.176c-0.224,1.439-0.68,2.742-1.415,3.854
		c0.456,0.6,1.031,1.127,1.719,1.575c0.089,0.056,0.137,0.151,0.137,0.264c0,0.071-0.024,0.144-0.064,0.208
		c-0.063,0.104-0.16,0.152-0.264,0.152c-0.072,0-0.144-0.024-0.208-0.064c-0.672-0.447-1.239-0.983-1.703-1.6
		c-0.487,0.616-1.063,1.16-1.751,1.623c-0.063,0.041-0.136,0.064-0.208,0.064c-0.096,0-0.191-0.04-0.256-0.145
		c-0.048-0.063-0.063-0.127-0.063-0.191c0-0.104,0.056-0.207,0.16-0.271c0.703-0.464,1.279-1.008,1.742-1.607
		c-0.768-1.239-1.151-2.639-1.263-4.078H49.843z M50.69,43.26c0.071,0.68,0.159,1.336,0.367,1.991
		c0.168,0.528,0.4,1.056,0.688,1.527c0.608-0.976,0.976-2.079,1.151-3.246c0.009-0.032,0.009-0.056,0.009-0.08
		c0-0.136-0.08-0.192-0.248-0.192H50.69z"/>
	<path d="M56.268,43.236c-0.136,0-0.24-0.137-0.24-0.313c0-0.159,0.104-0.303,0.24-0.303h1.583c0.487,0,0.72,0.184,0.728,0.663
		c0.016,1.056,0.304,2.007,0.832,2.982c0.52,0.952,1.438,1.888,2.326,2.431c0.096,0.064,0.152,0.168,0.152,0.279
		c0,0.072-0.024,0.152-0.072,0.225c-0.08,0.104-0.184,0.16-0.296,0.16c-0.072,0-0.152-0.024-0.224-0.072
		c-1.439-0.968-2.615-2.447-3.03-4.422c-0.464,1.982-1.647,3.51-3.079,4.438c-0.088,0.057-0.167,0.08-0.239,0.08
		c-0.12,0-0.216-0.056-0.296-0.168c-0.048-0.072-0.072-0.144-0.072-0.216c0-0.104,0.064-0.208,0.176-0.28
		c0.92-0.575,1.775-1.438,2.312-2.438c0.512-0.96,0.823-1.959,0.839-2.823c0-0.184-0.063-0.224-0.248-0.224H56.268z"/>
</g>
<g>
	<path d="M54.304,9.553c0,0.039-0.008,0.096-0.032,0.144c-0.248,0.567-0.6,1.175-0.976,1.655c-0.079,0.096-0.168,0.144-0.264,0.144
		c-0.063,0-0.136-0.024-0.2-0.063c-0.079-0.057-0.127-0.137-0.127-0.225c0-0.064,0.023-0.136,0.079-0.199
		c0.376-0.465,0.72-1.023,0.96-1.56c0.063-0.128,0.151-0.185,0.248-0.185c0.048,0,0.088,0.009,0.136,0.033
		C54.241,9.352,54.304,9.44,54.304,9.553z M55.4,5.626c0,0.16-0.088,0.232-0.288,0.232c-0.176,0-0.288-0.072-0.288-0.232V5.291
		h-1.879c-0.136,0-0.216-0.096-0.216-0.256s0.08-0.256,0.216-0.256h1.879V4.435c0-0.16,0.112-0.24,0.288-0.24
		c0.2,0,0.288,0.08,0.288,0.24v0.344h1.879V4.435c0-0.16,0.104-0.24,0.288-0.24c0.199,0,0.287,0.08,0.287,0.24v0.344h1.959
		c0.136,0,0.216,0.096,0.216,0.256s-0.08,0.256-0.216,0.256h-1.959v0.272c0,0.16-0.088,0.232-0.287,0.232
		c-0.185,0-0.288-0.072-0.288-0.232V5.291H55.4V5.626z M54.096,8.049c0.072,0.064,0.112,0.136,0.112,0.216
		c0,0.063-0.024,0.128-0.072,0.191C54.073,8.529,54,8.569,53.913,8.569c-0.072,0-0.145-0.032-0.216-0.096
		c-0.224-0.2-0.576-0.456-0.832-0.607c-0.088-0.048-0.128-0.128-0.128-0.208c0-0.056,0.024-0.112,0.064-0.168
		c0.063-0.08,0.144-0.12,0.224-0.12c0.048,0,0.104,0.016,0.152,0.04C53.489,7.569,53.873,7.841,54.096,8.049z M54.408,6.538
		c0.072,0.072,0.104,0.144,0.104,0.216c0,0.056-0.024,0.12-0.08,0.184s-0.128,0.104-0.208,0.104c-0.063,0-0.136-0.032-0.2-0.088
		c-0.239-0.232-0.56-0.488-0.815-0.664c-0.088-0.064-0.136-0.136-0.136-0.216c0-0.056,0.024-0.112,0.072-0.176
		c0.056-0.072,0.128-0.104,0.208-0.104c0.063,0,0.136,0.024,0.208,0.064C53.856,6.034,54.201,6.322,54.408,6.538z M59.781,7.377
		c0.137,0,0.2,0.088,0.2,0.232c0,0.128-0.063,0.232-0.2,0.232h-1.887c0.584,0.512,1.271,0.832,2.063,1.095
		c0.144,0.048,0.199,0.144,0.199,0.239c0,0.041-0.008,0.08-0.016,0.113c-0.056,0.143-0.136,0.207-0.248,0.207
		c-0.032,0-0.072-0.008-0.112-0.023c-0.167-0.049-0.384-0.168-0.6-0.288c0.097,0.096,0.145,0.216,0.145,0.368v1.334
		c0,0.44-0.2,0.608-0.647,0.608h-3.055c-0.448,0-0.647-0.168-0.647-0.608V9.545c0-0.129,0.048-0.24,0.12-0.328
		C54.968,9.28,54.824,9.352,54.712,9.4c-0.049,0.016-0.097,0.023-0.137,0.023c-0.104,0-0.191-0.056-0.247-0.168
		c-0.017-0.039-0.024-0.08-0.024-0.119c0-0.104,0.063-0.2,0.192-0.24c0.671-0.208,1.351-0.568,1.91-1.055h-1.774
		c-0.136,0-0.2-0.104-0.2-0.232c0-0.144,0.064-0.232,0.2-0.232h1.047c-0.071-0.128-0.136-0.232-0.208-0.328
		c-0.031-0.048-0.048-0.096-0.048-0.136c0-0.08,0.048-0.144,0.145-0.184c0.04-0.008,0.079-0.016,0.119-0.016
		c0.097,0,0.177,0.048,0.24,0.128c0.112,0.152,0.224,0.352,0.296,0.536h0.655V6.57c-0.631,0.048-1.255,0.072-1.847,0.072
		c-0.16,0-0.231-0.088-0.24-0.248c0-0.008,0-0.016,0-0.024c0-0.152,0.088-0.224,0.24-0.224c1.319,0,2.814-0.08,4.07-0.424
		c0.031-0.008,0.056-0.016,0.088-0.016c0.119,0,0.216,0.063,0.256,0.191c0.008,0.032,0.016,0.072,0.016,0.104
		c0,0.112-0.072,0.2-0.2,0.224c-0.583,0.128-1.223,0.224-1.862,0.296v0.855h0.711c0.216-0.28,0.376-0.56,0.496-0.8
		c0.056-0.104,0.136-0.144,0.224-0.144c0.04,0,0.08,0.008,0.12,0.024c0.104,0.032,0.168,0.096,0.168,0.184
		c0,0.04-0.008,0.08-0.032,0.12c-0.112,0.208-0.248,0.416-0.407,0.616H59.781z M56.855,9.336h-1.128
		c-0.136,0-0.207,0.041-0.207,0.184v0.424h1.335V9.336z M56.855,10.367H55.52v0.488c0,0.136,0.071,0.184,0.207,0.184h1.128V10.367z
		 M58.334,8.913c0.151,0,0.304,0.016,0.432,0.048c-0.568-0.28-1.008-0.6-1.424-1.04c0.04,0.128,0.057,0.296,0.057,0.416v0.264
		c0,0.144-0.097,0.216-0.265,0.216c-0.159,0-0.256-0.072-0.256-0.224V8.337c0-0.128,0.017-0.296,0.048-0.416
		c-0.383,0.432-0.815,0.76-1.335,1.023c0.112-0.024,0.224-0.032,0.344-0.032H58.334z M58.782,9.52c0-0.143-0.072-0.184-0.208-0.184
		h-1.199v0.607h1.407V9.52z M58.574,11.039c0.136,0,0.208-0.048,0.208-0.184v-0.488h-1.407v0.672H58.574z"/>
	<path d="M62.121,10.128c0,0.048-0.009,0.096-0.032,0.151c-0.168,0.4-0.472,0.889-0.76,1.208c-0.08,0.079-0.168,0.12-0.256,0.12
		c-0.072,0-0.144-0.024-0.208-0.08c-0.071-0.064-0.111-0.137-0.111-0.217c0-0.063,0.023-0.135,0.088-0.191
		c0.279-0.287,0.56-0.711,0.735-1.104c0.04-0.104,0.136-0.152,0.24-0.152c0.039,0,0.079,0.009,0.128,0.025
		C62.056,9.936,62.121,10.016,62.121,10.128z M61.153,5.115c0-0.472,0.216-0.648,0.688-0.648h1.216c0.464,0,0.688,0.176,0.688,0.648
		v3.878c0,0.463-0.224,0.631-0.688,0.631H61.84c-0.472,0-0.688-0.168-0.688-0.631V5.115z M63.175,5.219
		c0-0.152-0.088-0.208-0.239-0.208H61.96c-0.152,0-0.24,0.056-0.24,0.208v0.768h1.455V5.219z M63.175,6.498H61.72v0.975h1.455V6.498
		z M61.72,7.985v0.904c0,0.152,0.088,0.199,0.24,0.199h0.976c0.151,0,0.239-0.047,0.239-0.199V7.985H61.72z M63.008,9.855
		c0.096,0,0.184,0.049,0.239,0.145c0.168,0.32,0.416,0.68,0.624,0.903c0.056,0.063,0.088,0.151,0.088,0.224
		c0,0.088-0.04,0.168-0.104,0.217c-0.071,0.047-0.136,0.071-0.208,0.071c-0.088,0-0.167-0.04-0.231-0.128
		c-0.224-0.287-0.496-0.711-0.655-1.055c-0.032-0.049-0.04-0.097-0.04-0.137c0-0.096,0.056-0.168,0.168-0.216
		C62.928,9.863,62.968,9.855,63.008,9.855z M64.223,6.49c-0.144,0-0.216-0.12-0.216-0.28c0-0.16,0.072-0.272,0.216-0.272h2.175
		L66.39,4.499c0-0.152,0.12-0.232,0.296-0.232c0.191,0,0.304,0.08,0.304,0.232l0.008,1.439h0.872c0.151,0,0.224,0.112,0.224,0.272
		c0,0.16-0.072,0.28-0.224,0.28h-0.864l0.032,4.246c0.008,0.56-0.24,0.743-0.823,0.743c-0.288,0-0.584-0.016-0.815-0.063
		c-0.152-0.032-0.232-0.136-0.232-0.28c0-0.023,0-0.055,0.008-0.08c0.024-0.143,0.12-0.239,0.248-0.239c0.024,0,0.048,0,0.072,0.009
		c0.216,0.047,0.479,0.071,0.647,0.071c0.224,0,0.296-0.048,0.296-0.256l-0.024-2.559c0-0.328,0.032-0.728,0.08-1.08
		c-0.464,1.144-1.327,2.271-2.303,3.022c-0.071,0.057-0.144,0.088-0.216,0.088c-0.08,0-0.16-0.047-0.231-0.135
		c-0.04-0.057-0.064-0.113-0.064-0.176c0-0.097,0.048-0.185,0.136-0.256c0.984-0.705,1.815-1.864,2.343-3.055H64.223z"/>
	<path d="M70.959,9.952c0.344-0.112,0.688-0.231,1.016-0.368c0.04-0.016,0.088-0.023,0.12-0.023c0.12,0,0.208,0.072,0.248,0.191
		c0.008,0.04,0.016,0.08,0.016,0.111c0,0.121-0.071,0.209-0.184,0.256c-1.063,0.433-2.295,0.793-3.238,0.992
		c-0.024,0.008-0.048,0.008-0.08,0.008c-0.136,0-0.231-0.08-0.264-0.24c-0.008-0.031-0.008-0.055-0.008-0.088
		c0-0.135,0.063-0.248,0.191-0.271c0.112-0.023,0.224-0.048,0.336-0.072v-3.43c0-0.152,0.128-0.248,0.304-0.248
		s0.288,0.096,0.288,0.248v3.295c0.063-0.017,0.12-0.033,0.184-0.049c0.16-0.04,0.328-0.088,0.488-0.136V5.514h-1.367
		c-0.152,0-0.232-0.12-0.232-0.28c0-0.16,0.08-0.28,0.232-0.28h3.102c0.152,0,0.232,0.12,0.232,0.28c0,0.16-0.08,0.28-0.232,0.28
		h-1.151V7.25h0.792c0.144,0,0.231,0.112,0.231,0.288c0,0.168-0.088,0.288-0.231,0.288h-0.792V9.952z M75.374,6.258
		c-0.064,0.624-0.145,1.224-0.344,1.823c-0.168,0.52-0.416,0.999-0.72,1.455c0.447,0.567,0.999,1.023,1.671,1.392
		c0.104,0.056,0.168,0.176,0.168,0.304c0,0.063-0.016,0.136-0.056,0.192c-0.072,0.104-0.168,0.151-0.272,0.151
		c-0.071,0-0.151-0.024-0.224-0.072c-0.663-0.415-1.215-0.911-1.663-1.487c-0.535,0.607-1.207,1.104-1.991,1.535
		c-0.063,0.032-0.128,0.049-0.184,0.049c-0.104,0-0.191-0.049-0.248-0.152c-0.04-0.057-0.056-0.12-0.056-0.184
		c0-0.104,0.056-0.209,0.16-0.256c0.768-0.4,1.439-0.872,1.959-1.496c-0.376-0.599-0.648-1.263-0.815-1.942
		c-0.097,0.176-0.192,0.352-0.305,0.528c-0.056,0.08-0.128,0.12-0.207,0.12c-0.072,0-0.145-0.032-0.208-0.08
		c-0.072-0.064-0.104-0.144-0.104-0.232c0-0.064,0.024-0.136,0.064-0.192c0.567-0.808,1.023-2.175,1.167-3.23
		c0.024-0.152,0.12-0.224,0.271-0.224c0.017,0,0.04,0,0.064,0.008c0.16,0.016,0.28,0.104,0.28,0.256c0,0.024,0,0.048-0.009,0.072
		c-0.071,0.344-0.159,0.72-0.271,1.104h2.367c0.151,0,0.231,0.112,0.231,0.28c0,0.16-0.08,0.28-0.231,0.28H75.374z M73.319,6.258
		c-0.072,0.192-0.145,0.384-0.225,0.576c0.177,0.76,0.448,1.503,0.855,2.174c0.296-0.487,0.521-1.023,0.656-1.583
		c0.096-0.384,0.136-0.775,0.168-1.167H73.319z"/>
	<path d="M82.677,6.778c0.208,0,0.305,0.112,0.305,0.32c0,0.216-0.112,0.328-0.305,0.328h-5.021c-0.185,0-0.304-0.112-0.304-0.32
		s0.111-0.328,0.304-0.328H82.677z M82.677,8.457c0.208,0,0.305,0.112,0.305,0.328c0,0.215-0.112,0.32-0.305,0.32h-5.021
		c-0.185,0-0.304-0.104-0.304-0.32c0-0.208,0.111-0.328,0.304-0.328H82.677z"/>
	<path d="M86.424,4.515c0-0.152,0.12-0.24,0.304-0.24c0.192,0,0.304,0.088,0.304,0.24v6.892c0,0.151-0.111,0.239-0.304,0.239
		c-0.184,0-0.304-0.088-0.304-0.239V9.424c-0.6,0.256-1.312,0.528-1.871,0.688c-0.04,0.008-0.08,0.017-0.112,0.017
		c-0.119,0-0.216-0.071-0.256-0.208c-0.016-0.048-0.023-0.096-0.023-0.145c0-0.119,0.063-0.199,0.184-0.23
		c0.12-0.033,0.256-0.072,0.392-0.113V5.25c0-0.152,0.128-0.232,0.305-0.232c0.184,0,0.304,0.08,0.304,0.232v3.99
		c0.367-0.128,0.728-0.256,1.079-0.416V4.515z M87.568,5.291c-0.152,0-0.24-0.12-0.24-0.288c0-0.167,0.088-0.295,0.24-0.295h3.014
		c0.44,0,0.696,0.208,0.696,0.624c0,0.056-0.008,0.112-0.017,0.176c-0.224,1.439-0.68,2.743-1.415,3.854
		c0.456,0.6,1.031,1.128,1.719,1.575c0.089,0.056,0.137,0.152,0.137,0.264c0,0.072-0.024,0.145-0.064,0.208
		c-0.063,0.104-0.16,0.151-0.264,0.151c-0.072,0-0.144-0.023-0.208-0.063c-0.672-0.448-1.239-0.983-1.703-1.599
		c-0.487,0.615-1.063,1.158-1.751,1.623c-0.063,0.039-0.136,0.063-0.208,0.063c-0.096,0-0.191-0.04-0.256-0.144
		c-0.048-0.064-0.063-0.129-0.063-0.192c0-0.104,0.056-0.208,0.16-0.271c0.703-0.464,1.279-1.008,1.742-1.607
		c-0.768-1.239-1.151-2.638-1.263-4.078H87.568z M88.416,5.291c0.071,0.68,0.159,1.335,0.367,1.991
		c0.168,0.528,0.4,1.056,0.688,1.527c0.608-0.976,0.976-2.079,1.151-3.246c0.009-0.032,0.009-0.056,0.009-0.08
		c0-0.136-0.08-0.192-0.248-0.192H88.416z"/>
	<path d="M93.993,5.267c-0.136,0-0.24-0.136-0.24-0.312c0-0.16,0.104-0.304,0.24-0.304h1.583c0.487,0,0.72,0.184,0.728,0.664
		c0.016,1.056,0.304,2.007,0.832,2.982c0.52,0.951,1.438,1.887,2.326,2.431c0.096,0.063,0.152,0.168,0.152,0.28
		c0,0.072-0.024,0.151-0.072,0.224c-0.08,0.104-0.184,0.159-0.296,0.159c-0.072,0-0.152-0.023-0.224-0.071
		c-1.439-0.968-2.615-2.447-3.03-4.422c-0.464,1.983-1.647,3.511-3.079,4.438c-0.088,0.055-0.167,0.079-0.239,0.079
		c-0.12,0-0.216-0.056-0.296-0.168c-0.048-0.071-0.072-0.144-0.072-0.216c0-0.104,0.064-0.207,0.176-0.279
		c0.92-0.576,1.775-1.439,2.312-2.439c0.512-0.959,0.823-1.959,0.839-2.823c0-0.184-0.063-0.224-0.248-0.224H93.993z"/>
</g>
<g>
	<path d="M5.525,67.82h2.063c-0.479,0.646-0.655,0.959-0.847,1.486c-0.24,0.68-0.353,1.424-0.353,2.326
		c0,0.904,0.112,1.648,0.353,2.328c0.191,0.527,0.367,0.839,0.847,1.486H5.525V67.82z"/>
	<path d="M10.831,72.241c0.231-0.319,0.288-0.407,0.447-0.72H9.951c-0.447,0-0.711,0.008-0.919,0.032
		c0.023-0.208,0.031-0.376,0.031-0.696v-0.575c0-0.319-0.008-0.512-0.031-0.728c0.224,0.023,0.504,0.04,0.863,0.04h0.911v-0.776
		H9.407c-0.415,0-0.671,0.009-0.887,0.041v-0.527c0.199,0.031,0.472,0.047,0.903,0.047h5.045c0.448,0,0.704-0.016,0.912-0.047v0.527
		c-0.225-0.032-0.48-0.041-0.888-0.041h-1.495v0.776h0.951c0.384,0,0.647-0.017,0.871-0.04c-0.023,0.216-0.031,0.384-0.031,0.728
		v0.567c0,0.352,0.008,0.512,0.031,0.704c-0.199-0.024-0.455-0.032-0.919-0.032h-2.063c-0.225,0.393-0.272,0.456-0.448,0.72h3.095
		c0.439,0,0.688-0.017,0.896-0.048v0.527c-0.256-0.031-0.512-0.039-0.896-0.039h-0.88c-0.264,0.551-0.52,0.887-0.96,1.263
		c0.992,0.319,1.663,0.567,2.559,0.952l-0.359,0.439c-0.896-0.439-1.527-0.695-2.639-1.072c-0.903,0.561-1.902,0.84-3.518,0.977
		c-0.057-0.185-0.112-0.305-0.232-0.496c1.327-0.032,2.271-0.232,3.143-0.664c-0.624-0.184-1.191-0.32-1.991-0.488
		c0.376-0.335,0.528-0.503,0.88-0.91H9.392c-0.384,0-0.64,0.008-0.888,0.039v-0.527c0.208,0.031,0.464,0.048,0.888,0.048H10.831z
		 M9.552,70.002v1.111h1.255v-1.111H9.552z M11.071,72.682c-0.208,0.256-0.313,0.383-0.608,0.68
		c0.744,0.167,1.023,0.239,1.632,0.423c0.479-0.352,0.759-0.671,0.943-1.103H11.071z M11.263,69.595h1.279v-0.776h-1.279V69.595z
		 M11.263,71.113h1.279v-1.111h-1.279V71.113z M12.998,71.113h1.303v-1.111h-1.303V71.113z"/>
	<path d="M17.344,69.003c0-0.376-0.016-0.655-0.048-0.888h0.592c-0.032,0.256-0.048,0.496-0.048,0.896v1.19h0.224
		c0.336,0,0.487-0.008,0.64-0.04v0.52c-0.2-0.023-0.368-0.031-0.647-0.031H17.84v2.51c0.344-0.159,0.487-0.231,0.903-0.463
		l0.048,0.487c-0.775,0.433-1.159,0.608-2.063,0.976c-0.112,0.04-0.232,0.096-0.32,0.136l-0.136-0.552
		c0.288-0.048,0.496-0.119,1.071-0.359V70.65h-0.296c-0.336,0-0.464,0.008-0.672,0.048v-0.544c0.185,0.04,0.344,0.048,0.672,0.048
		h0.296V69.003z M19.79,74.184c0,0.192,0.049,0.256,0.24,0.305c0.191,0.056,0.552,0.072,1.287,0.072
		c1.128,0,1.463-0.049,1.592-0.232c0.104-0.145,0.159-0.512,0.167-1.08c0.185,0.113,0.28,0.152,0.512,0.209
		c-0.096,1.479-0.239,1.574-2.318,1.574c-1.655,0-1.982-0.119-1.982-0.743v-2.935L19.11,71.41c-0.447,0.151-0.479,0.168-0.663,0.256
		l-0.144-0.545c0.224-0.023,0.439-0.071,0.695-0.159l0.288-0.097v-1.254c0-0.336-0.017-0.584-0.049-0.816h0.601
		c-0.032,0.24-0.049,0.473-0.049,0.791v1.12l1.144-0.384v-1.479c0-0.313-0.016-0.504-0.048-0.744h0.592
		c-0.032,0.232-0.048,0.463-0.048,0.752v1.311l1.231-0.408c0.248-0.079,0.415-0.151,0.631-0.247c-0.031,0.8-0.063,1.358-0.127,2.143
		c-0.057,0.712-0.16,1.048-0.368,1.167c-0.144,0.08-0.296,0.112-0.576,0.112c-0.071,0-0.168-0.008-0.352-0.024
		c-0.023-0.207-0.056-0.336-0.12-0.504c0.216,0.049,0.424,0.072,0.616,0.072c0.184,0,0.224-0.039,0.264-0.271
		c0.056-0.296,0.096-0.887,0.128-2.023l-1.327,0.457v2.206c0,0.319,0.016,0.536,0.048,0.768h-0.592
		c0.032-0.224,0.048-0.448,0.048-0.775v-2.03l-1.144,0.383V74.184z"/>
	<path d="M24.28,75.447c0.479-0.647,0.655-0.959,0.848-1.486c0.24-0.68,0.352-1.408,0.352-2.328c0-0.919-0.111-1.646-0.352-2.326
		c-0.192-0.527-0.368-0.84-0.848-1.486h2.063v7.627H24.28z"/>
</g>
<g>
	<path d="M39.108,67.82h2.063c-0.479,0.646-0.655,0.959-0.847,1.486c-0.24,0.68-0.353,1.424-0.353,2.326
		c0,0.904,0.112,1.648,0.353,2.328c0.191,0.527,0.367,0.839,0.847,1.486h-2.063V67.82z"/>
	<path d="M43.23,68.707c0.248,0.023,0.392,0.032,0.72,0.032c0.72,0,1.87-0.048,2.438-0.112c0.176-0.016,0.336-0.048,0.447-0.096
		l0.336,0.424c-0.128,0.088-0.184,0.136-0.392,0.336c-0.783,0.76-1.823,1.566-2.622,2.039c0.392-0.072,0.703-0.112,1.918-0.217
		c0.328-0.023,0.816-0.071,1.424-0.127c0.328-0.024,0.567-0.049,0.728-0.064c0.104-0.008,0.136-0.008,0.231-0.031l0.057,0.559
		c-0.08,0-0.145,0-0.176,0c-0.816,0-1.607,0.152-2.199,0.432c-0.408,0.192-0.775,0.473-0.999,0.76
		c-0.185,0.24-0.256,0.424-0.256,0.664c0,0.656,0.688,1.031,1.902,1.031c0.208,0,0.368-0.016,0.544-0.048l0.023,0.616
		c-0.136-0.008-0.136-0.008-0.543-0.017c-0.936-0.017-1.631-0.192-2.016-0.52c-0.304-0.256-0.472-0.616-0.472-1.007
		c0-0.713,0.592-1.344,1.743-1.848c-0.111,0.016-0.111,0.016-0.439,0.072c-0.136,0.016-0.848,0.111-1.304,0.168
		c-1.271,0.151-2.063,0.271-2.358,0.359l-0.063-0.607c0.023,0,0.04,0,0.056,0c0.248,0,0.848-0.064,1.399-0.16
		c0.791-0.472,1.854-1.303,2.654-2.063c0.128-0.12,0.16-0.145,0.264-0.225c-0.447,0.088-1.327,0.152-2.503,0.192
		c-0.304,0.017-0.335,0.017-0.495,0.032L43.23,68.707z"/>
	<path d="M52.334,72.545c-0.464,1.056-0.936,1.535-1.512,1.535c-0.76,0-1.327-0.832-1.327-1.951c0-0.814,0.304-1.607,0.84-2.207
		c0.64-0.703,1.511-1.063,2.582-1.063c0.896,0,1.68,0.279,2.199,0.791c0.504,0.488,0.775,1.184,0.775,1.951
		c0,1.239-0.672,2.263-1.831,2.758c-0.359,0.152-0.664,0.248-1.215,0.369c-0.08-0.265-0.129-0.344-0.28-0.537
		c0.584-0.096,0.959-0.199,1.335-0.375c0.88-0.4,1.415-1.256,1.415-2.238c0-0.912-0.463-1.647-1.271-2.008
		c-0.296-0.127-0.528-0.184-0.928-0.199C52.997,70.482,52.693,71.705,52.334,72.545z M51.35,69.754
		c-0.807,0.488-1.303,1.393-1.303,2.383c0,0.768,0.336,1.359,0.768,1.359c0.336,0,0.655-0.375,0.999-1.158
		c0.328-0.752,0.624-1.936,0.728-2.959C52.062,69.419,51.718,69.531,51.35,69.754z"/>
	<path d="M57.743,71.682c0-0.288,0.008-0.552,0.031-0.959c-0.344,0.583-0.447,0.734-0.839,1.199
		c-0.168-0.248-0.192-0.28-0.336-0.432c0.703-0.744,1.184-1.48,1.543-2.383c0.168-0.408,0.296-0.84,0.336-1.136l0.56,0.176
		c-0.048,0.112-0.072,0.185-0.168,0.456c-0.176,0.527-0.344,0.911-0.615,1.423v4.302c0,0.375,0.016,0.68,0.04,0.951h-0.601
		c0.032-0.287,0.049-0.543,0.049-0.967V71.682z M60.054,71.13v2.966c0,0.2,0.056,0.264,0.296,0.313
		c0.216,0.048,0.543,0.064,1.175,0.064c1,0,1.407-0.041,1.592-0.145c0.184-0.104,0.287-0.439,0.344-1.144
		c0.216,0.12,0.296,0.144,0.52,0.2c-0.128,0.807-0.256,1.167-0.472,1.318c-0.256,0.177-0.784,0.24-2.016,0.24
		c-0.472,0-0.871-0.016-1.159-0.047c-0.312-0.033-0.535-0.113-0.655-0.24c-0.088-0.088-0.128-0.225-0.128-0.439v-2.911l-0.144,0.048
		c-0.433,0.152-0.528,0.191-0.664,0.264l-0.112-0.551c0.216-0.033,0.464-0.088,0.696-0.168l0.224-0.08v-1.104
		c0-0.336-0.016-0.584-0.048-0.816h0.6c-0.032,0.225-0.048,0.457-0.048,0.792v0.96l1.167-0.408v-1.439
		c0-0.287-0.016-0.512-0.048-0.743h0.584c-0.032,0.231-0.048,0.44-0.048,0.743v1.271l1.255-0.432
		c0.319-0.111,0.479-0.176,0.632-0.256c-0.008,0.12-0.017,0.248-0.017,0.352c-0.016,0.695-0.088,1.951-0.144,2.423
		c-0.08,0.672-0.216,0.823-0.728,0.823c-0.184,0-0.352-0.008-0.575-0.031c-0.032-0.192-0.057-0.313-0.137-0.512
		c0.248,0.056,0.48,0.088,0.64,0.088c0.265,0,0.288-0.057,0.353-0.688c0.048-0.448,0.079-1.08,0.096-1.783l-1.375,0.488v2.254
		c0,0.313,0.016,0.544,0.048,0.768h-0.584c0.032-0.224,0.048-0.447,0.048-0.775v-2.079L60.054,71.13z"/>
	<path d="M64.783,75.447c0.479-0.647,0.655-0.959,0.848-1.486c0.24-0.68,0.352-1.408,0.352-2.328c0-0.919-0.111-1.646-0.352-2.326
		c-0.192-0.527-0.368-0.84-0.848-1.486h2.063v7.627H64.783z"/>
</g>
<g>
	<path d="M54.175,83.592c-0.6,0.768-1.056,1.152-1.847,1.544c-0.152-0.192-0.208-0.248-0.392-0.384
		c0.455-0.191,0.711-0.336,1.039-0.592c0.32-0.248,0.496-0.432,0.783-0.824L54.175,83.592z M55.646,84.512
		c0,0.368,0.016,0.592,0.056,0.8h-0.624c0.04-0.208,0.057-0.456,0.057-0.8v-1.503h-2.079c-0.32,0-0.544,0.008-0.792,0.024
		c0.032-0.209,0.04-0.385,0.04-0.784V79.57c0-0.336-0.008-0.479-0.048-0.719h0.592c-0.032,0.223-0.04,0.383-0.04,0.711v2.998h5.27
		c0.359,0,0.552-0.008,0.783-0.039v0.535c-0.24-0.04-0.432-0.048-0.775-0.048h-2.438V84.512z M57.893,81.289
		c0,0.377,0.009,0.568,0.04,0.752c-0.231-0.023-0.464-0.031-0.839-0.031h-2.527c-0.352,0-0.575,0.008-0.823,0.031
		c0.024-0.215,0.032-0.416,0.032-0.775v-2.254c0-0.297-0.008-0.488-0.032-0.721c0.248,0.032,0.512,0.041,0.871,0.041h2.503
		c0.344,0,0.536-0.009,0.815-0.041c-0.031,0.192-0.04,0.4-0.04,0.752V81.289z M54.255,79.435h3.15v-0.671h-3.15V79.435z
		 M54.255,80.514h3.15v-0.68h-3.15V80.514z M54.255,81.602h3.15v-0.688h-3.15V81.602z M57.014,83.345
		c0.399,0.424,0.663,0.647,1.079,0.919c0.24,0.168,0.432,0.264,0.88,0.465c-0.152,0.127-0.248,0.239-0.368,0.415
		c-0.783-0.392-1.295-0.792-1.991-1.543L57.014,83.345z"/>
</g>
<g>
	<path d="M90.114,83.129c-0.48,0.975-0.561,1.104-1.191,2.031l-0.448-0.385c0.272-0.264,0.456-0.504,0.728-0.936
		c0.2-0.319,0.32-0.567,0.528-1.063L90.114,83.129z M89.706,82.281c-0.352-0.352-0.672-0.584-1.176-0.863l0.288-0.359
		c0.512,0.287,0.752,0.447,1.191,0.814L89.706,82.281z M90.617,78.5c0-0.209-0.016-0.353-0.031-0.504h0.543
		c-0.023,0.151-0.031,0.287-0.031,0.504v0.088h1.887V78.5c0-0.209-0.008-0.345-0.024-0.504h0.544
		c-0.023,0.151-0.032,0.279-0.032,0.504v0.088h1.352c0.344,0,0.592-0.017,0.808-0.049v0.52c-0.231-0.031-0.479-0.047-0.808-0.047
		h-1.352c0,0.215,0.009,0.318,0.032,0.463h-0.544c0.017-0.152,0.024-0.248,0.024-0.463h-1.887c0,0.256,0.008,0.375,0.031,0.535
		h-0.543c0.023-0.16,0.031-0.288,0.031-0.535H89.37c-0.328,0-0.575,0.016-0.808,0.047v-0.52c0.216,0.032,0.464,0.049,0.808,0.049
		h1.247V78.5z M89.969,80.77c-0.367-0.383-0.655-0.631-1.127-0.928l0.312-0.335c0.479,0.312,0.752,0.528,1.144,0.903L89.969,80.77z
		 M91.017,81.49c-0.336,0-0.56,0.008-0.76,0.039v-0.471c0.184,0.031,0.399,0.039,0.76,0.039h0.472
		c-0.145-0.232-0.232-0.352-0.408-0.527l0.408-0.176c0.216,0.264,0.312,0.416,0.456,0.703h0.711v-0.855
		c-0.64,0.049-0.64,0.049-0.823,0.057c-0.096,0-0.096,0-0.607,0.023c-0.168,0-0.208,0.008-0.48,0.016
		c-0.031-0.151-0.071-0.264-0.159-0.432c0.136,0.008,0.247,0.008,0.312,0.008c1.688,0,3.334-0.199,3.894-0.471l0.384,0.415
		c-0.799,0.185-1.415,0.28-2.087,0.344v0.896h0.736c0.279-0.359,0.447-0.631,0.583-0.983l0.464,0.16
		c-0.216,0.352-0.359,0.56-0.56,0.823h0.527c0.368,0,0.584-0.008,0.768-0.039v0.471c-0.224-0.023-0.479-0.039-0.768-0.039h-1.351
		c0.552,0.503,1.343,0.91,2.351,1.207c-0.216,0.295-0.216,0.295-0.271,0.424c-0.272-0.112-0.36-0.145-0.672-0.297v1.615
		c0,0.32,0.016,0.6,0.048,0.832h-0.504v-0.32h-3.118v0.313h-0.496c0.032-0.24,0.048-0.52,0.048-0.824v-1.574
		c-0.224,0.111-0.296,0.144-0.535,0.248c-0.056-0.129-0.152-0.248-0.288-0.368c0.976-0.319,1.663-0.712,2.207-1.255H91.017z
		 M91.321,82.992v0.584h1.312v-0.584H91.321z M92.632,83.944h-1.312v0.624h1.312V83.944z M94.487,82.617
		c-0.592-0.32-0.999-0.615-1.423-1.056c0.016,0.151,0.023,0.296,0.023,0.424v0.12c0,0.144,0.009,0.271,0.032,0.384h-0.487
		c0.016-0.136,0.023-0.248,0.023-0.392v-0.112c0-0.128,0.008-0.296,0.024-0.424c-0.416,0.456-0.808,0.76-1.344,1.056H94.487z
		 M94.447,83.576v-0.584h-1.383v0.584H94.447z M94.447,84.568v-0.624h-1.383v0.624H94.447z"/>
</g>
<polyline fill="none" stroke="#000000" stroke-width="0.9648" stroke-miterlimit="10" points="50.132,61.913 71.348,61.913 
	71.348,87.379 0.482,87.379 0.482,61.913 22.825,61.913 "/>
<g>
	<g>
		<line fill="none" stroke="#000000" stroke-miterlimit="10" x1="35.915" y1="67.631" x2="35.915" y2="69.131"/>
		
			<line fill="none" stroke="#000000" stroke-miterlimit="10" stroke-dasharray="2.996,1.9974" x1="35.915" y1="71.129" x2="35.915" y2="85.11"/>
		<line fill="none" stroke="#000000" stroke-miterlimit="10" x1="35.915" y1="86.109" x2="35.915" y2="87.609"/>
	</g>
</g>
<g>
	<g>
		<line fill="none" stroke="#000000" stroke-miterlimit="10" x1="29.312" y1="34.381" x2="29.312" y2="54.88"/>
		<g>
			<polygon points="25.222,51.566 25.954,50.885 29.311,54.496 32.668,50.885 33.4,51.566 29.311,55.965 			"/>
		</g>
	</g>
</g>
<g>
	<g>
		<line fill="none" stroke="#000000" stroke-miterlimit="10" x1="40.103" y1="35.466" x2="40.103" y2="55.965"/>
		<g>
			<polygon points="36.013,38.779 36.745,39.461 40.102,35.85 43.459,39.461 44.191,38.779 40.102,34.381 			"/>
		</g>
	</g>
</g>
<g>
	<g>
		<line fill="none" stroke="#000000" stroke-miterlimit="10" x1="89.281" y1="34.381" x2="89.281" y2="75.241"/>
		<g>
			<polygon points="85.191,71.928 85.924,71.246 89.28,74.857 92.638,71.246 93.37,71.928 89.28,76.326 			"/>
		</g>
	</g>
</g>
<g>
	<g>
		<line fill="none" stroke="#000000" stroke-miterlimit="10" x1="95.304" y1="35.466" x2="95.304" y2="76.326"/>
		<g>
			<polygon points="91.214,38.779 91.946,39.461 95.303,35.85 98.66,39.461 99.393,38.779 95.303,34.381 			"/>
		</g>
	</g>
</g>
<g>
	<g>
		<polyline fill="none" stroke="#000000" stroke-miterlimit="10" points="101.978,29.291 119.424,29.291 119.424,75.241 		"/>
		<g>
			<polygon points="115.334,71.928 116.066,71.246 119.423,74.857 122.78,71.246 123.513,71.928 119.423,76.326 			"/>
		</g>
	</g>
</g>
<g>
	<path d="M108.942,24.459c0-0.32,0.024-0.68,0.08-1.023c-0.136,0.279-0.296,0.56-0.479,0.799c-0.064,0.08-0.16,0.129-0.248,0.129
		c-0.064,0-0.12-0.024-0.184-0.072c-0.08-0.064-0.12-0.152-0.12-0.24c0-0.064,0.023-0.128,0.063-0.184
		c0.647-0.8,1.224-2.007,1.512-3.15c0.04-0.152,0.144-0.216,0.271-0.216c0.032,0,0.064,0.008,0.104,0.016
		c0.127,0.032,0.231,0.112,0.231,0.24c0,0.016,0,0.04-0.008,0.071c-0.152,0.576-0.36,1.152-0.616,1.703v5.189
		c0,0.152-0.119,0.232-0.304,0.232c-0.184,0-0.304-0.08-0.304-0.232V24.459z M110.478,21.732c-0.144,0-0.216-0.112-0.216-0.248
		c0-0.152,0.072-0.256,0.216-0.256h1.743c0.032-0.168,0.063-0.336,0.088-0.512c0.024-0.136,0.112-0.225,0.288-0.225
		c0.016,0,0.023,0,0.04,0c0.176,0.017,0.279,0.113,0.279,0.24c0,0.016,0,0.04-0.008,0.057c-0.024,0.151-0.056,0.295-0.088,0.439
		h2.366c0.145,0,0.225,0.104,0.225,0.256c0,0.136-0.08,0.248-0.225,0.248h-2.494c-0.056,0.207-0.12,0.408-0.191,0.607h2.454
		c0.128,0,0.2,0.088,0.2,0.224c0,0.128-0.072,0.24-0.2,0.24h-1.431c0.096,0.224,0.207,0.448,0.335,0.655h1.504
		c0.136,0,0.216,0.104,0.216,0.256c0,0.137-0.08,0.248-0.216,0.248h-1.136c0.359,0.416,0.792,0.744,1.312,1.031
		c0.088,0.057,0.136,0.145,0.136,0.248c0,0.064-0.016,0.128-0.056,0.191c-0.064,0.088-0.145,0.137-0.232,0.137
		c-0.063,0-0.128-0.024-0.191-0.064c-0.576-0.384-1.144-0.903-1.6-1.543h-1.902c-0.393,0.592-0.872,1.144-1.432,1.592
		c-0.072,0.055-0.152,0.088-0.231,0.088c-0.08,0-0.16-0.041-0.217-0.112c-0.048-0.056-0.071-0.128-0.071-0.192
		c0-0.088,0.04-0.168,0.128-0.231c0.504-0.36,0.871-0.728,1.175-1.144h-0.959c-0.144,0-0.216-0.111-0.216-0.248
		c0-0.152,0.072-0.256,0.216-0.256h1.287c0.048-0.08,0.096-0.16,0.136-0.248c0.072-0.136,0.145-0.271,0.208-0.407h-1.144
		c-0.136,0-0.199-0.112-0.199-0.24c0-0.136,0.063-0.224,0.199-0.224h1.327c0.072-0.199,0.145-0.4,0.2-0.607H110.478z M110.43,26.578
		c-0.136,0-0.216-0.121-0.216-0.265s0.08-0.256,0.216-0.256h1.911v-0.695h-1.063c-0.136,0-0.216-0.104-0.216-0.248
		s0.08-0.248,0.216-0.248h1.063v-0.447c0-0.144,0.111-0.216,0.279-0.216c0.176,0,0.296,0.072,0.296,0.216v0.447h1.12
		c0.144,0,0.216,0.104,0.216,0.248s-0.072,0.248-0.216,0.248h-1.12v0.695h2.119c0.144,0,0.216,0.112,0.216,0.256
		s-0.072,0.265-0.216,0.265h-2.119v1.143c0,0.152-0.136,0.24-0.296,0.24c-0.159,0-0.279-0.088-0.279-0.24v-1.143H110.43z
		 M112.316,22.804c-0.08,0.184-0.168,0.368-0.264,0.544c-0.016,0.039-0.04,0.072-0.056,0.111h1.287
		c-0.12-0.216-0.216-0.432-0.304-0.655H112.316z"/>
	<path d="M117.143,25.762c0-0.408,0.016-0.76,0.048-1.104c-0.232,0.264-0.488,0.52-0.744,0.729
		c-0.071,0.056-0.136,0.088-0.199,0.088c-0.08,0-0.152-0.049-0.225-0.137c-0.039-0.056-0.063-0.119-0.063-0.184
		c0-0.088,0.04-0.168,0.12-0.232c0.848-0.655,1.575-1.559,1.959-2.342c0.016-0.041,0.023-0.072,0.023-0.096
		c0-0.057-0.04-0.088-0.119-0.088h-1.56c-0.144,0-0.224-0.113-0.224-0.272c0-0.16,0.08-0.272,0.224-0.272h0.752v-1.127
		c0-0.144,0.119-0.224,0.304-0.224c0.184,0,0.304,0.08,0.304,0.224v1.127h0.487c0.304,0,0.504,0.168,0.504,0.44
		c0,0.096-0.023,0.208-0.08,0.327c-0.199,0.416-0.487,0.872-0.808,1.296c0.336,0.36,0.647,0.616,0.943,0.823
		c0.08,0.049,0.12,0.137,0.12,0.232c0,0.063-0.023,0.127-0.063,0.191c-0.064,0.072-0.145,0.112-0.216,0.112
		c-0.057,0-0.112-0.024-0.16-0.063c-0.248-0.201-0.496-0.433-0.752-0.736c0.024,0.4,0.032,0.752,0.032,1.08v2.166
		c0,0.145-0.128,0.225-0.304,0.225c-0.184,0-0.304-0.08-0.304-0.225V25.762z M120.732,25.994c-0.607,0.416-1.247,0.799-1.927,1.127
		c-0.048,0.023-0.096,0.032-0.136,0.032c-0.104,0-0.2-0.063-0.256-0.168c-0.024-0.056-0.032-0.104-0.032-0.144
		c0-0.104,0.048-0.192,0.16-0.24c0.719-0.296,1.486-0.72,2.19-1.207v-1.728h-1.927c-0.136,0-0.216-0.104-0.216-0.256
		s0.08-0.271,0.216-0.271h3.182l0.024-0.688h-2.534c-0.129,0-0.2-0.104-0.2-0.247c0-0.136,0.071-0.231,0.2-0.231h2.559l0.016-0.496
		c0-0.008,0-0.016,0-0.024c0-0.128-0.08-0.168-0.208-0.168h-2.606c-0.128,0-0.2-0.112-0.2-0.256s0.072-0.264,0.2-0.264h2.782
		c0.384,0,0.616,0.176,0.616,0.575c0,0.017,0,0.024,0,0.041l-0.064,1.759h0.808c0.144,0,0.224,0.112,0.224,0.264
		c0,0.159-0.08,0.264-0.224,0.264h-2.095v0.224c0.16,0.432,0.367,0.832,0.6,1.191c0.328-0.295,0.607-0.623,0.815-0.943
		c0.056-0.08,0.128-0.119,0.208-0.119c0.056,0,0.12,0.016,0.168,0.055c0.088,0.064,0.144,0.145,0.144,0.24
		c0,0.049-0.016,0.104-0.056,0.152c-0.232,0.328-0.6,0.703-0.983,1.047c0.399,0.528,0.863,0.96,1.359,1.279
		c0.088,0.064,0.136,0.152,0.136,0.256c0,0.057-0.016,0.12-0.048,0.185c-0.064,0.104-0.16,0.151-0.256,0.151
		c-0.064,0-0.128-0.023-0.185-0.063c-0.871-0.6-1.614-1.575-1.958-2.575c0.031,0.297,0.056,0.744,0.056,1.031v1.376
		c0,0.552-0.288,0.759-0.815,0.759c-0.264,0-0.504-0.023-0.735-0.071c-0.129-0.024-0.208-0.12-0.208-0.264
		c0-0.024,0-0.048,0.008-0.072c0.016-0.151,0.128-0.224,0.231-0.224c0.017,0,0.032,0,0.048,0.008c0.168,0.048,0.4,0.08,0.592,0.08
		c0.248,0,0.328-0.072,0.328-0.336V25.994z M119.277,24.115c0.063,0,0.128,0.023,0.191,0.08c0.24,0.215,0.496,0.504,0.688,0.751
		c0.04,0.063,0.064,0.12,0.064,0.185c0,0.08-0.04,0.151-0.112,0.199c-0.063,0.04-0.119,0.064-0.176,0.064
		c-0.08,0-0.144-0.041-0.208-0.12c-0.159-0.216-0.432-0.528-0.647-0.735c-0.056-0.057-0.08-0.112-0.08-0.176
		c0-0.072,0.04-0.137,0.096-0.185C119.149,24.139,119.213,24.115,119.277,24.115z"/>
</g>
</svg>
