<?xml version="1.0" encoding="utf-8"?>
<!-- Generator: Adobe Illustrator 16.0.3, SVG Export Plug-In . SVG Version: 6.00 Build 0)  -->
<!DOCTYPE svg PUBLIC "-//W3C//DTD SVG 1.1//EN" "http://www.w3.org/Graphics/SVG/1.1/DTD/svg11.dtd">
<svg version="1.1" id="レイヤー_1" xmlns="http://www.w3.org/2000/svg" xmlns:xlink="http://www.w3.org/1999/xlink" x="0px"
	 y="0px" width="69.013px" height="57.25px" viewBox="0 0 69.013 57.25" enable-background="new 0 0 69.013 57.25"
	 xml:space="preserve">
<g>
	<defs>
		<rect id="SVGID_1_" width="69.013" height="57.25"/>
	</defs>
	<clipPath id="SVGID_2_">
		<use xlink:href="#SVGID_1_"  overflow="visible"/>
	</clipPath>
		<path clip-path="url(#SVGID_2_)" fill="#FFFFFF" stroke="#000000" stroke-width="0.75" stroke-linecap="round" stroke-linejoin="round" d="
		M49.649,59.997c-0.226-0.37-0.245-0.753-0.394-0.983c-0.357-0.557-1.122-0.855-1.375-1.638c-0.075-0.231-0.016-0.477-0.066-0.721
		c-0.12-0.577-0.376-1.169-0.655-1.769c-0.289-0.621-0.375-1.307-0.59-1.9c-0.368-1.013-0.949-1.973-1.31-3.014
		c-0.199-0.574-0.306-1.124-0.524-1.638c-0.2-0.472-0.611-0.813-0.853-1.31c-0.602-1.246-0.909-2.672-1.375-3.932
		c-0.124-0.334-0.4-0.653-0.524-0.983c-0.1-0.263-0.097-0.552-0.197-0.786c-0.121-0.282-0.38-0.442-0.459-0.721
		c-0.198-0.705,0.218-1.357,0.196-1.769c-0.032-0.613-0.571-1.146-0.72-1.704c-0.054-0.203,0.007-0.448-0.065-0.655
		c-0.116-0.334-0.503-0.555-0.656-0.852c-0.166-0.324-0.256-0.747-0.458-1.114c-0.228-0.413-0.497-0.736-0.525-1.048
		c-0.014-0.163,0.035-1.09,0.066-1.245c0.053-0.272,0.264-0.362,0.262-0.59c-0.007-0.885-0.886-1.079-1.311-1.507
		c-0.677-0.683-1.141-2.209-1.769-3.21c-0.28-0.45-0.694-0.734-0.851-1.115c-0.105-0.253-0.116-0.656-0.262-0.983
		c-0.331-0.738-0.935-1.234-0.983-2.031c-0.052-0.845,0.189-1.667-0.131-2.49c-0.307-0.787-1.389-1.199-1.31-2.227
		c0.037-0.492,0.557-0.851,0.785-1.376c0.234-0.538,0.092-0.84,0.459-0.852c0.395-0.013,0.687,1.19,0.721,1.376
		c0.12,0.669-0.116,1.246,0.131,2.031c0.072,0.229,0.33,0.455,0.458,0.721c0.117,0.243,0.16,0.541,0.263,0.72
		c0.598,1.046,1.759,1.759,1.9,2.687c0.142,0.94-0.065,1.676,0.066,2.359c0.112,0.59,0.88,1.678,1.179,1.966
		c0.251,0.24,0.797,0.398,1.048,0.72c0.322,0.413,0.542,1.375,0.983,1.901c0.3,0.358,1.951,2.103,2.49,1.965
		c0.264-0.067,0.58-0.743,0.72-0.917c0.283-0.348,0.631-0.693,0.722-0.983c0.294-0.941-0.194-2.101,0.131-2.883
		c0.555-1.334,1.378-2.873,1.507-4.652c0.029-0.404-0.019-0.771,0.065-0.983c0.319-0.802,0.497-1.634,1.048-2.293
		c0.068-0.081,0.692-0.693,0.918-0.393c0.142,0.189-0.471,1.663-0.59,2.097c-0.216,0.788-0.493,1.684-0.524,2.162
		c-0.016,0.248,0.103,0.695,0.066,0.983c-0.035,0.263-0.289,0.62-0.329,0.852c-0.066,0.397,0.065,1.033,0,1.507
		c-0.124,0.912-0.814,2.096-1.113,2.62c0.086-0.151-0.329,0.404-0.197,0.59c0.121,0.17,0.712-0.246,1.114-0.262
		c0.157-0.007,0.619,0.141,0.787,0.131c0.249-0.015,0.54-0.243,0.851-0.197c0.559,0.082,0.639,0.58,0.852,1.048
		c0.217,0.477,0.882,1.024,1.31,1.835c0.416,0.787,0.48,1.841,0.853,2.425c0.24,0.377,0.662,0.541,0.786,0.917
		c0.119,0.363-0.001,1.272,0.196,1.704c0.168,0.367,0.801,0.66,0.917,1.048c0.259,0.864,1.102,2.03,1.705,3.08
		c0.324,0.565,0.509,1.127,0.72,1.638c0.262,0.634,0.513,1.483,0.72,1.703c0.161,0.17,0.661,0.174,0.787,0.525
		c0.186,0.519-0.104,1.198,0.262,1.703c0.362,0.497,1.075,0.601,1.376,1.115c0.124,0.21,0.122,0.559,0.262,0.851
		c0.153,0.318,0.429,0.561,0.524,0.852c0.085,0.26,0.034,0.571,0.132,0.851c0.154,0.445,0.577,0.725,0.655,1.115
		c0.142,0.709,0.162,1.735,0.065,2.096c-0.078,0.292-0.489,0.323-0.523,0.655c-0.051,0.479,0.684,0.836,0.917,1.246
		c0.129,0.229,0.457,0.817,0.589,1.244c0.235,0.758,0.127,1.452,0.721,1.638c0.116,0.037,0.619-0.129,0.917-0.065
		c0.369,0.08,0.559,0.611,0.983,0.852c0.124,0.07,0.449,0.076,0.524,0.13"/>
	<path clip-path="url(#SVGID_2_)" fill="none" stroke="#000000" stroke-width="0.75" d="M48.994-3.366
		c-0.182,0.709-0.35,1.423-0.59,2.032c-0.469,1.186-0.818,2.449-1.507,3.67c-0.999,1.77-2.99,4.648-5.766,4.586
		c-0.328-0.008-0.709-0.238-0.983-0.197c-0.158,0.023-0.305,0.129-0.441,0.204c-0.298,0.166-1.288,0.806-1.508,0.214
		c-0.051-0.139-0.028-0.342-0.184-0.421c-0.141-0.07-0.31,0.035-0.42,0.119c-0.248,0.188-0.39,0.367-0.694,0.465
		c-0.2,0.064-0.564,0.27-0.768,0.122c-0.174-0.128,0.218-0.316,0.31-0.368c0.297-0.165,0.604-0.309,0.895-0.486
		c0.258-0.157,0.496-0.271,0.805-0.283c0.183-0.007,0.366,0.013,0.549,0.031c0.126,0.013,0.314,0.065,0.439,0.029
		c0.253-0.076-0.138-0.238-0.242-0.274c-0.644-0.225-1.212,0.098-1.796,0.336c-0.354,0.145-0.674,0.356-0.985,0.575
		c-0.283,0.2-0.569,0.426-0.94,0.393c-0.876-0.081-1.179-1.627-1.966-1.376c-0.559,0.177-0.342,1.996-1.31,1.506
		c-0.388-0.196-0.158-0.74-0.328-0.982c-0.378-0.54-1.07-0.274-1.114-0.983c-0.034-0.556,0.705-0.758,0.459-1.18
		c-0.196-0.336-1.017,0.151-1.442,0.197c-1.1,0.119-2.368-1.518-3.145-1.049c-0.195,0.119-0.156,0.488-0.262,0.656
		c-0.177,0.279-0.618,0.477-0.907,0.601c-0.453,0.195-0.918,0.172-1.386,0.298c-0.144,0.038-0.475,0.132-0.512-0.098
		c-0.053-0.332,0.728-0.474,0.938-0.569c0.292-0.135,0.977-0.266,1.099-0.603c0.133-0.369-0.775,0.118-0.88,0.178
		c-0.368,0.207-0.762,0.442-1.187,0.506c-0.277,0.041-0.646-0.167-0.899-0.051c-0.42,0.193-0.366,0.732-0.591,0.917
		c-0.395,0.325-0.824,0.089-1.507,0.263c-0.32,0.081-0.768,0.545-1.113,0.786C18.717,6.674,18.296,6.934,18,7.185
		c-1.056,0.899-2.105,1.8-3.604,1.966c-1.526,0.169-1.353-0.791-2.293-1.31c-0.192-0.107-0.525-0.128-0.852-0.263
		c-0.321-0.132-0.65-0.428-0.917-0.459C9.93,7.072,9.483,7.236,8.958,7.185c-0.435-0.043-1.069,0-1.442-0.197
		C7.219,6.832,7.313,6.387,6.862,6.267C6.575,6.19,6.356,6.403,6.01,6.398C5.514,6.391,4.991,6.225,4.765,6.07
		C4.348,5.786,4.426,5.297,3.979,5.087c-0.2-0.094-0.541,0.018-0.852-0.065c-0.293-0.08-0.525-0.409-0.721-0.459
		c-0.192-0.05-0.61,0.051-0.917,0C1.285,4.53,0.992,4.297,0.768,4.236C0.199,4.079-0.701,4.14-1.525,3.908"/>
	<path clip-path="url(#SVGID_2_)" fill="none" stroke="#317FB9" stroke-width="0.567" d="M22.142,4.532
		c0.063,0.158,0.152,0.3,0.258,0.431c0.104,0.129,0.289,0.249,0.374,0.381c0.106,0.164,0.013,0.393,0.004,0.572
		c-0.02,0.44,0.407,0.499,0.635,0.778c0.122,0.15,0.095,0.338,0.15,0.52c0.072,0.245,0.208,0.461,0.364,0.662
		c0.225,0.287,0.214,0.669,0.195,1.017c-0.019,0.349-0.054,0.682-0.039,1.032c0.014,0.338-0.028,0.697,0.104,1.016
		c0.139,0.335,0.24,0.639,0.123,1.003c-0.094,0.29-0.335,0.582-0.258,0.906c0.073,0.308,0.446,0.304,0.627,0.528
		c0.098,0.123,0.147,0.263,0.278,0.36c0.147,0.108,0.331,0.138,0.501,0.193c0.259,0.085,0.724,0.284,0.857,0.542
		c0.085,0.169,0.044,0.37-0.011,0.541c-0.062,0.187-0.073,0.286-0.032,0.489c0.088,0.433,0.245,0.86,0.203,1.308
		c-0.03,0.302-0.04,0.575,0.009,0.877c0.053,0.333,0.089,0.638-0.055,0.957c-0.133,0.295-0.383,0.533-0.465,0.853
		c-0.076,0.297,0.015,0.605-0.019,0.906c-0.039,0.356-0.223,0.666-0.374,0.983c-0.137,0.291-0.225,0.597-0.353,0.891
		c-0.22,0.505-0.625,0.996-1.036,1.355c-0.418,0.366-0.427,1.049-0.622,1.549c-0.104,0.264-0.239,0.513-0.319,0.786
		c-0.078,0.269-0.1,0.549-0.174,0.819c-0.155,0.575-0.426,0.999-0.414,1.618c0.01,0.488-0.146,1.09,0.176,1.499
		c0.158,0.202,0.364,0.366,0.414,0.632c0.054,0.282-0.08,0.558-0.128,0.832c-0.101,0.586,0.298,1.104,0.076,1.684
		c-0.105,0.273-0.272,0.518-0.314,0.814c-0.041,0.3,0.033,0.609,0.114,0.897c0.175,0.618,0.458,0.85,1.016,1.121
		c0.391,0.19,0.797,0.483,1.109,0.787c0.2,0.194,0.255,0.46,0.33,0.716c0.08,0.27,0.198,0.449,0.381,0.657
		c0.421,0.476,0.69,1.025,0.868,1.633c0.192,0.655,0.43,1.183,0.966,1.622c0.47,0.385,0.586,0.766,0.763,1.333
		c0.192,0.613,0.522,0.908,1.031,1.261c0.477,0.331,0.644,0.902,1.079,1.264c0.569,0.475,1.198-0.043,1.7-0.356
		c0.536-0.333,1.113-0.423,1.409,0.249c0.269,0.612,0.084,1.291-0.217,1.852c-0.238,0.443-0.521,0.847-0.898,1.183
		c-0.542,0.483-0.789,0.843-0.689,1.591c0.082,0.622,0.144,1.337,0.59,1.824c0.532,0.58,1.235,0.885,1.415,1.724
		c0.087,0.405,0.071,0.826,0.153,1.232c0.078,0.383,0.252,0.755,0.244,1.151c-0.007,0.428-0.238,0.783-0.383,1.172
		c-0.146,0.391-0.091,0.724-0.005,1.119c0.085,0.386,0.06,0.693-0.113,1.05c-0.111,0.23-0.256,0.538-0.285,0.785"/>
	<path clip-path="url(#SVGID_2_)" fill="none" stroke="#317FB9" stroke-width="0.567" d="M30.401,4.258
		c0.079,0.472-0.442,0.65-0.661,0.938c-0.102,0.134-0.172,0.288-0.235,0.442c-0.146,0.363-0.257,0.598-0.593,0.81
		c-0.243,0.155-0.464,0.248-0.668,0.456C28.053,7.1,27.88,7.309,27.749,7.548c-0.16,0.292-0.464,0.236-0.66,0.46
		c-0.171,0.196-0.155,0.606-0.239,0.852c-0.128,0.37,0.028,0.61,0.036,0.974c0.005,0.226-0.064,0.439-0.073,0.662
		c-0.008,0.181,0.01,0.326-0.059,0.501c-0.14,0.356-0.436,0.624-0.695,0.892c-0.33,0.34-0.475,0.746-0.48,1.215
		c-0.004,0.274-0.055,0.471-0.184,0.71"/>
	<circle clip-path="url(#SVGID_2_)" cx="24.586" cy="17.734" r="1.548"/>
	<circle clip-path="url(#SVGID_2_)" cx="24.586" cy="33.155" r="1.549"/>
	<circle clip-path="url(#SVGID_2_)" cx="33.757" cy="49.159" r="1.549"/>
	<g clip-path="url(#SVGID_2_)">
		<path d="M35.891,52.119c-0.004,0.12-0.02,0.268-0.044,0.423c-0.068,0.472-0.236,0.8-0.54,1.056
			c-0.176,0.152-0.375,0.264-0.704,0.396c-0.056-0.12-0.088-0.164-0.188-0.26c0.524-0.168,0.848-0.424,1.012-0.788
			c0.092-0.2,0.152-0.516,0.16-0.827h-1.083c-0.208,0-0.324,0.004-0.46,0.02v-0.296c0.14,0.02,0.236,0.024,0.464,0.024h2.338
			c0.228,0,0.324-0.004,0.464-0.024v0.296c-0.136-0.016-0.252-0.02-0.459-0.02H35.891z M34.448,50.851
			c0.132,0.024,0.212,0.028,0.46,0.028h1.555c0.248,0,0.328-0.004,0.46-0.028v0.304c-0.12-0.016-0.224-0.02-0.456-0.02h-1.563
			c-0.232,0-0.335,0.004-0.456,0.02V50.851z"/>
		<path d="M37.852,52.154c0.116,0.02,0.224,0.024,0.496,0.024h2.322c0.296,0,0.36-0.004,0.484-0.02v0.324
			c-0.128-0.012-0.22-0.016-0.488-0.016h-2.318c-0.292,0-0.376,0.004-0.496,0.016V52.154z"/>
		<path d="M41.636,52.59c0.056-0.032,0.084-0.056,0.132-0.1c0.12-0.116,0.488-0.56,0.684-0.819c0.228-0.304,0.328-0.38,0.507-0.38
			c0.16,0,0.224,0.048,0.516,0.368c0.448,0.492,0.927,0.952,1.367,1.307c0.188,0.152,0.251,0.2,0.332,0.24l-0.152,0.328
			c-0.088-0.08-0.092-0.084-0.356-0.308c-0.368-0.308-0.815-0.748-1.355-1.328c-0.264-0.284-0.28-0.296-0.36-0.296
			s-0.1,0.02-0.276,0.256c-0.156,0.212-0.468,0.596-0.724,0.892c-0.028,0.032-0.06,0.072-0.112,0.14L41.636,52.59z M44.167,51.091
			c0.176,0.184,0.28,0.32,0.424,0.552l-0.212,0.112c-0.132-0.228-0.232-0.364-0.416-0.564L44.167,51.091z M44.567,50.879
			c0.176,0.184,0.28,0.316,0.424,0.552l-0.212,0.112c-0.132-0.228-0.232-0.368-0.416-0.564L44.567,50.879z"/>
	</g>
	<g clip-path="url(#SVGID_2_)">
		<path d="M8.63,16.313c-0.052,0.076-0.068,0.112-0.124,0.244c-0.26,0.611-0.384,0.855-0.588,1.167
			c0.344,0.284,0.6,0.528,0.919,0.86l-0.224,0.248c-0.212-0.271-0.468-0.527-0.872-0.867c-0.42,0.576-0.908,0.995-1.607,1.391
			c-0.072-0.12-0.104-0.156-0.208-0.24c0.64-0.312,1.151-0.744,1.591-1.335c-0.364-0.292-0.739-0.54-1.075-0.724l0.2-0.212
			c0.392,0.236,0.592,0.368,1.04,0.696c0.188-0.296,0.332-0.584,0.472-0.932c0.1-0.244,0.12-0.308,0.14-0.424L8.63,16.313z"/>
		<path d="M9.487,18.943c0.312-0.012,0.792-0.136,1.164-0.308c0.771-0.344,1.307-0.931,1.631-1.779
			c0.092,0.124,0.132,0.16,0.244,0.236c-0.32,0.696-0.692,1.163-1.219,1.527c-0.412,0.28-0.824,0.444-1.491,0.596
			c-0.108,0.024-0.14,0.032-0.24,0.064L9.487,18.943z M9.743,16.464c0.428,0.272,0.676,0.468,0.964,0.752l-0.208,0.248
			c-0.288-0.312-0.604-0.571-0.952-0.783L9.743,16.464z"/>
		<path d="M15.881,16.628c-0.028,0.044-0.028,0.044-0.084,0.248c-0.211,0.768-0.516,1.291-1.003,1.735
			c-0.372,0.336-0.715,0.544-1.255,0.751c-0.06-0.132-0.092-0.176-0.196-0.28c0.36-0.108,0.596-0.216,0.904-0.424
			c0.655-0.436,1.031-1.007,1.259-1.903h-2.035c-0.204,0-0.315,0.004-0.448,0.024v-0.324c0.152,0.024,0.232,0.028,0.452,0.028h1.967
			c0.16,0,0.188-0.004,0.256-0.032L15.881,16.628z"/>
		<path d="M18.846,16.996c-0.044,0.032-0.052,0.044-0.096,0.092c-0.216,0.224-0.416,0.404-0.803,0.704v1.351
			c0,0.156,0.004,0.252,0.02,0.352h-0.312c0.012-0.096,0.016-0.148,0.016-0.348V17.96c-0.392,0.248-0.731,0.399-1.228,0.551
			c-0.04-0.104-0.064-0.144-0.14-0.24c0.399-0.108,0.636-0.196,0.927-0.352c0.44-0.224,0.804-0.492,1.144-0.832
			c0.12-0.116,0.164-0.168,0.224-0.26L18.846,16.996z"/>
		<path d="M22.23,19.327c-0.316-0.404-0.768-0.84-1.279-1.235c-0.28,0.32-0.476,0.503-0.764,0.715
			c-0.275,0.2-0.487,0.332-0.783,0.48c-0.064-0.12-0.096-0.164-0.196-0.264c0.308-0.124,0.504-0.231,0.812-0.459
			c0.64-0.472,1.135-1.104,1.427-1.803c0.008-0.024,0.012-0.028,0.02-0.048c0.008-0.012,0.008-0.016,0.012-0.028
			c-0.036,0.004-0.048,0.004-0.096,0.004l-1.335,0.02c-0.18,0.004-0.296,0.012-0.412,0.032l-0.008-0.324
			c0.108,0.016,0.18,0.02,0.316,0.02c0.012,0,0.048,0,0.104,0l1.427-0.016c0.14-0.004,0.188-0.008,0.256-0.032l0.168,0.172
			c-0.04,0.048-0.068,0.096-0.112,0.196c-0.224,0.496-0.412,0.812-0.66,1.12c0.524,0.399,0.876,0.715,1.332,1.199L22.23,19.327z"/>
	</g>
	<g clip-path="url(#SVGID_2_)">
		<path d="M4.825,39.973c-0.004,0.12-0.02,0.268-0.044,0.423c-0.068,0.472-0.236,0.8-0.54,1.056
			c-0.176,0.152-0.375,0.264-0.704,0.396c-0.056-0.12-0.088-0.164-0.188-0.26c0.524-0.168,0.848-0.424,1.012-0.788
			c0.092-0.2,0.152-0.516,0.16-0.827H3.438c-0.208,0-0.324,0.004-0.46,0.02v-0.296c0.14,0.02,0.236,0.024,0.464,0.024H5.78
			c0.228,0,0.324-0.004,0.464-0.024v0.296c-0.136-0.016-0.252-0.02-0.459-0.02H4.825z M3.381,38.706
			c0.132,0.024,0.212,0.028,0.46,0.028h1.555c0.248,0,0.328-0.004,0.46-0.028v0.304c-0.12-0.016-0.224-0.02-0.456-0.02H3.837
			c-0.232,0-0.335,0.004-0.456,0.02V38.706z"/>
		<path d="M7.529,38.682c-0.016,0.1-0.016,0.1-0.024,0.344c-0.032,1.083-0.064,1.379-0.216,1.783
			c-0.136,0.372-0.328,0.64-0.692,0.987c-0.08-0.104-0.12-0.14-0.24-0.216c0.328-0.26,0.544-0.548,0.676-0.919
			c0.124-0.348,0.18-0.872,0.18-1.715c0-0.144-0.004-0.192-0.016-0.284L7.529,38.682z M8.52,38.638
			c-0.02,0.096-0.024,0.168-0.024,0.352l-0.024,2.415c0.332-0.124,0.536-0.252,0.744-0.464c0.22-0.228,0.376-0.492,0.472-0.8
			c0.084,0.108,0.116,0.144,0.224,0.232c-0.196,0.46-0.46,0.792-0.804,1.028c-0.176,0.12-0.336,0.2-0.572,0.292
			C8.464,41.72,8.464,41.72,8.408,41.74c-0.048,0.02-0.056,0.024-0.092,0.044L8.156,41.6c0.024-0.068,0.028-0.1,0.028-0.272
			l0.024-2.339c0-0.26,0-0.26-0.016-0.355L8.52,38.638z"/>
		<path d="M13.28,39.645v0.276h-2.73v-0.276H13.28z M13.28,40.461v0.275h-2.73v-0.275H13.28z"/>
		<path d="M15.785,41.068h1.071c0.24,0,0.324-0.004,0.468-0.024v0.312c-0.136-0.016-0.252-0.02-0.464-0.02h-2.375
			c-0.208,0-0.324,0.004-0.46,0.02v-0.312c0.144,0.02,0.228,0.024,0.464,0.024h1v-1.771h-0.696c-0.216,0-0.328,0.004-0.463,0.02
			v-0.308c0.14,0.02,0.236,0.024,0.467,0.024h1.755c0.232,0,0.328-0.004,0.468-0.024v0.308c-0.136-0.016-0.248-0.02-0.464-0.02
			h-0.771V41.068z"/>
		<path d="M18.841,38.682c-0.016,0.1-0.016,0.1-0.024,0.344c-0.032,1.083-0.064,1.379-0.216,1.783
			c-0.136,0.372-0.328,0.64-0.692,0.987c-0.08-0.104-0.12-0.14-0.24-0.216c0.328-0.26,0.544-0.548,0.676-0.919
			c0.124-0.348,0.18-0.872,0.18-1.715c0-0.144-0.004-0.192-0.016-0.284L18.841,38.682z M19.833,38.638
			c-0.02,0.096-0.024,0.168-0.024,0.352l-0.024,2.415c0.332-0.124,0.536-0.252,0.744-0.464c0.22-0.228,0.376-0.492,0.472-0.8
			c0.084,0.108,0.116,0.144,0.224,0.232c-0.196,0.46-0.46,0.792-0.804,1.028c-0.176,0.12-0.336,0.2-0.572,0.292
			c-0.072,0.028-0.072,0.028-0.128,0.048c-0.048,0.02-0.056,0.024-0.092,0.044l-0.16-0.184c0.024-0.068,0.028-0.1,0.028-0.272
			l0.024-2.339c0-0.26,0-0.26-0.016-0.355L19.833,38.638z"/>
		<path d="M24.593,39.645v0.276h-2.73v-0.276H24.593z M24.593,40.461v0.275h-2.73v-0.275H24.593z"/>
		<path d="M4.593,44.253c-0.012,0.072-0.012,0.072-0.016,0.28c-0.012,0.668-0.124,1.063-0.396,1.407
			c-0.244,0.308-0.54,0.508-1.023,0.692c-0.06-0.128-0.088-0.168-0.184-0.268c0.324-0.096,0.524-0.196,0.731-0.368
			c0.424-0.34,0.58-0.748,0.58-1.527c0-0.112-0.004-0.14-0.016-0.216H4.593z M6.172,43.75c-0.04,0.052-0.048,0.064-0.096,0.16
			c-0.275,0.536-0.647,0.899-1.167,1.14c-0.06-0.1-0.092-0.136-0.196-0.228c0.28-0.108,0.443-0.204,0.631-0.38
			c0.184-0.172,0.332-0.368,0.448-0.596H3.521c-0.22,0-0.324,0.004-0.472,0.02v-0.308c0.136,0.02,0.248,0.028,0.476,0.028h2.147
			c0.268,0,0.268,0,0.34-0.028L6.172,43.75z"/>
		<path d="M7.286,44.649c0.3,0.248,0.448,0.384,0.812,0.755c0.172-0.144,0.384-0.336,0.532-0.492c0.22-0.232,0.492-0.592,0.66-0.868
			c0.012-0.02,0.016-0.024,0.032-0.048c-0.056,0.004-0.056,0.004-2.283,0.008c-0.216,0-0.328,0.004-0.464,0.016v-0.315
			c0.14,0.02,0.236,0.024,0.468,0.024h2.331c0.14,0,0.16-0.004,0.224-0.028l0.168,0.2c-0.048,0.048-0.076,0.084-0.16,0.212
			c-0.392,0.611-0.816,1.091-1.319,1.499c0.152,0.164,0.316,0.372,0.583,0.728l-0.244,0.204c-0.364-0.58-0.959-1.235-1.559-1.719
			L7.286,44.649z"/>
		<path d="M11.001,43.481c-0.016,0.1-0.016,0.1-0.024,0.344c-0.032,1.083-0.064,1.379-0.216,1.783
			c-0.136,0.372-0.328,0.64-0.692,0.987c-0.08-0.104-0.12-0.14-0.24-0.216c0.328-0.26,0.544-0.548,0.676-0.919
			c0.124-0.348,0.18-0.872,0.18-1.715c0-0.144-0.004-0.192-0.016-0.284L11.001,43.481z M11.993,43.438
			c-0.02,0.096-0.024,0.168-0.024,0.352l-0.024,2.415c0.332-0.124,0.536-0.252,0.744-0.464c0.22-0.228,0.376-0.492,0.472-0.8
			c0.084,0.108,0.116,0.144,0.224,0.232c-0.196,0.46-0.46,0.792-0.804,1.028c-0.176,0.12-0.336,0.2-0.572,0.292
			c-0.072,0.028-0.072,0.028-0.128,0.048c-0.048,0.02-0.056,0.024-0.092,0.044l-0.16-0.184c0.024-0.068,0.028-0.1,0.028-0.272
			l0.024-2.339c0-0.26,0-0.26-0.016-0.355L11.993,43.438z"/>
		<path d="M16.493,44.345c0.232,0,0.328-0.004,0.468-0.028v0.312c-0.136-0.016-0.252-0.02-0.464-0.02h-0.903
			c-0.032,0.56-0.104,0.859-0.296,1.164c-0.212,0.339-0.52,0.6-0.992,0.835c-0.072-0.124-0.108-0.168-0.204-0.256
			c0.468-0.188,0.799-0.464,0.991-0.824c0.128-0.24,0.172-0.444,0.204-0.919H14.19c-0.212,0-0.328,0.004-0.464,0.02v-0.312
			c0.144,0.024,0.236,0.028,0.468,0.028h1.115c0.004-0.148,0.004-0.228,0.004-0.352v-0.288c0-0.16-0.004-0.244-0.02-0.34h0.336
			c-0.016,0.108-0.016,0.116-0.02,0.34l-0.004,0.288c0,0.3,0,0.3,0,0.352H16.493z"/>
	</g>
	<polyline clip-path="url(#SVGID_2_)" fill="none" stroke="#000000" stroke-width="0.5" stroke-miterlimit="10" points="
		24.586,33.155 14.596,33.155 13.346,37.875 	"/>
</g>
</svg>
