<?xml version="1.0" encoding="utf-8"?>
<!-- Generator: Adobe Illustrator 16.0.0, SVG Export Plug-In . SVG Version: 6.00 Build 0)  -->
<!DOCTYPE svg PUBLIC "-//W3C//DTD SVG 1.1//EN" "http://www.w3.org/Graphics/SVG/1.1/DTD/svg11.dtd">
<svg version="1.1" id="レイヤー_1" xmlns="http://www.w3.org/2000/svg" xmlns:xlink="http://www.w3.org/1999/xlink" x="0px"
	 y="0px" width="107.318px" height="80.507px" viewBox="0 0 107.318 80.507" enable-background="new 0 0 107.318 80.507"
	 xml:space="preserve">
<g>
	<defs>
		<rect id="SVGID_1_" width="107.318" height="80.507"/>
	</defs>
	<clipPath id="SVGID_2_">
		<use xlink:href="#SVGID_1_"  overflow="visible"/>
	</clipPath>
	<path clip-path="url(#SVGID_2_)" fill="#AEFFD3" stroke="#000000" stroke-width="0.342" stroke-dasharray="1.6102,1.8115" d="
		M68.619,34.392c-0.047-0.127-0.062-0.244-0.027-0.333c0.283-0.734,0.027-1.343-0.123-1.993c-0.338-1.454-1.104-2.472-2.72-2.573
		c-0.068-0.266-0.134-0.516-0.221-0.85c1.002-0.944,2.14-1.843,3.048-2.933c0.751-0.901,1.547-1.532,2.684-1.84
		c0.487-0.133,0.889-0.581,1.358-0.905c0.324,0.215,0.7,0.462,1.146,0.756c0.239-0.603,0.45-1.138,0.675-1.706
		c-0.388-0.547-0.705-0.661-1.332-0.502c-0.925,0.232-1.797,0.559-2.556-0.517c-0.498-0.705-1.887-0.661-2.626-0.161
		c-0.542,0.367-1.078,0.746-1.64,1.083c-0.444,0.267-1.122,0.165-1.28-0.203c-0.268-0.618-0.466-1.266-0.715-1.96
		c-0.278-0.118-0.6-0.252-0.938-0.394c-0.201,0.339-0.383,0.648-0.586,0.991c-0.378-1.005-0.606-1.222-2.23-2.116
		c0.284-0.795,0.565-1.592,1.276-2.161c0.322,0.24,0.585,0.436,0.848,0.63c0.632-0.239,1.287-0.396,1.842-0.726
		c0.395-0.235,0.678-0.681,0.96-1.07c0.226-0.31,0.32-0.719,0.563-1.007c1.05-1.239,2.354-2.159,3.812-2.863
		c0.925-0.446,1.796-1.283,3.202-0.164c0.662,0.817-0.6,1.196-1.056,1.867c-0.097,1.498-0.081,3.032-1.184,4.351
		c0.24,0,0.295,0.017,0.328-0.002c1.343-0.769,2.704-1.507,4.018-2.322c1.028-0.637,2.06-0.983,3.285-0.689
		c0.472,0.114,0.999,0.06,1.494,0.009c0.59-0.063,1.967,0.473,2.242,0.968c0.1,0.175,0.163,0.414,0.134,0.606
		c-0.114,0.734-0.273,1.461-0.411,2.17c-0.869,0.157-1.294,0.602-1.417,1.43c0.278,0.069,0.557,0.136,0.839,0.206
		c-0.136,0.316-0.239,0.559-0.328,0.764c0.349,0.287,0.646,0.533,0.939,0.775c0.206-0.263,0.437-0.555,0.671-0.852
		c0.521,0.378,0.893,0.647,1.229,0.892c0.302-0.115,0.55-0.209,0.822-0.313c0.619,0.806,0.979,1.676,1.011,2.684
		c1.291,0.147,2.823,1.124,2.823,1.124c-0.227-1.814-1.307-4.529-1.481-4.73c-0.284-0.324-2.427-1.712-2.427-1.712
		s0.158-3.676,0-4.697c-0.159-1.021-0.307-1.61-1.637-1.61s-3.409-0.442-3.409-1.157c0-0.715,0.171-2.791,0.171-2.791
		c-0.512-0.34-2.479-2.4-3.563-5.291c-1.083-2.892-4.894-2.734-5.85-2.341c-0.954,0.393-1.329,4.025-2.488,5.416
		c-1.159,1.391-3.012,1.831-3.297,1.91c-0.283,0.079-1.249,0.183-2.897,1.781c-1.648,1.6-2.183,1.372-2.183,1.372
		c-3.887-0.182-6.609,0.08-7.393,0.437c-0.784,0.356-2.318,0.271-3.103-0.29c-0.784-0.562-1.28-0.578-1.28-0.578
		c-1.721,0.511-3,0.323-3.357,0.215c-0.358-0.107-1.023-0.725-2.557-0.81c-1.534-0.085-4.161,7.078-5.337,8.654
		c-1.175,1.577-2.512-0.063-2.738-0.22c-0.228-0.159-0.842-0.183-1.16,0.044c-0.317,0.227-1.046,0.296-1.795,0.341
		c-0.75,0.045-2.455,0.317-2.796,0.385c-0.341,0.069-3.16-5.626-3.795-6.806c-0.636-1.18-0.795-6.466-0.899-6.965
		c-0.104-0.499-1.51-2.995-2.874-1.043c-1.364,1.951-2.66,1.769-3.296,1.747c-0.635-0.022-1.932,1.134-2.932,1.611
		c-1,0.476-3,1.088-4.364,0.317C8.377,6.961,5.308,5.26,3.718,5.214C2.126,5.169,0.116,4.942,0.116,4.942v5.32
		c0,0,1.636,1.905,2.25,2.246c0.614,0.34,9.036,1.702,13.229,2.62c4.194,0.919,6.138,6.976,7.433,8.848
		c1.295,1.872,5.625,5.683,10.467,6.398c4.841,0.714,4.773,2.007,5.114,2.581c0.341,0.577,2.114,6.027,3.921,6.548
		c3.973,1.143,6.172-0.112,6.99-0.418c0.818-0.306,2.385-1.702,5.216-0.306c4.759,2.346,7.773-1.634,9.41-3.063
		C65.783,34.287,68.619,34.392,68.619,34.392z"/>
	<path clip-path="url(#SVGID_2_)" fill="#FFF1C5" stroke="#000000" stroke-width="0.342" stroke-dasharray="1.6102,1.8115" d="
		M29.533,76.874c-0.273-0.467-0.506-0.944-0.729-1.355c0.121-0.691,0.099-1.346,0.358-1.858c0.322-0.635,0.867-1.159,1.335-1.713
		c0.248-0.293,0.54-0.547,0.811-0.817c0-0.108,0.071-0.121,0.14-0.14c0.671-0.191,1.455-0.202,1.891-0.829
		c0.266-0.382,0.521-0.537,0.974-0.549c0.366-0.009,0.723-0.191,1.092-0.25c0.602-0.095,0.993-0.353,0.907-1.021
		c0.511-0.064,0.511-0.064,1.936,0.731c0.363-0.132,0.715-0.26,1.247-0.454c0,0.418,0.093,0.712-0.016,0.862
		c-0.477,0.662-0.231,1.29,0.022,1.914c0.387,0.958,0.882,1.074,1.836,0.479c-0.126-0.805-0.607-1.629,0.123-2.368
		c0.899-0.051,1.784-0.111,2.672-0.147c0.753-0.03,1.162-0.673,1.778-1c0.231,0.163,0.447,0.314,0.662,0.467
		c0.289-0.151,0.559-0.291,0.835-0.437c0.473,0.154,0.943,0.307,1.484,0.482c0.214-0.277,0.415-0.547,0.627-0.809
		c0.152-0.187,0.285-0.461,0.482-0.526c0.609-0.206,1.101-0.492,1.525-1.014c0.23-0.282,0.841-0.217,1.186-0.449
		c1.071-0.72,2.412-0.169,3.491-0.796c0.067-0.04,0.179-0.011,0.269-0.004c0.5,0.03,1.001,0.063,1.577,0.101
		c0.084-1.354,1.072-1.938,2.139-2.503c0.125-0.275,0.261-0.581,0.385-0.854c0.329-0.064,0.602-0.117,0.873-0.17
		c0.821-0.168,0.534-1.513,1.601-1.474c0.173,0.138,0.364,0.292,0.573,0.458c0.859-0.44,0.482-1.353,0.879-2.027
		c0.772-0.132,1.178-0.694,1.318-1.493c0.016-0.097,0.063-0.219,0.135-0.268c0.89-0.594,1.002-1.697,1.666-2.435
		c-0.143-0.19-0.264-0.352-0.381-0.51c0.377-0.128,0.818-0.142,0.937-0.343c0.639-1.085,1.577-2.022,1.682-3.386
		c0.027-0.351,0.295-0.684,0.455-1.03c0.395,0.123,0.643,0.199,0.965,0.298c0.156-0.209,0.329-0.441,0.502-0.675l-0.17-0.067
		c0.092-0.303,0.184-0.607,0.274-0.911c0.103-0.352,0.205-0.703,0.342-1.17c0.704-0.423,0.758-0.563,0.547-1.62
		c-0.021-0.11-0.014-0.229-0.001-0.34c0.081-0.724,0.016-0.805-0.684-0.816c-0.184-0.003-0.364,0-0.597,0
		c-0.104-1.346-1.316-0.516-1.815-0.924c0.278-0.385,1.531-0.426,2.895-2.128c-1.307-1.003-2.469-1.72-3.205-2.013
		c-0.003-0.069-0.061-0.117-0.063-0.186c0.978,0.522,1.977,0.596,3.077,0.405c-1.114-1.36-2.186-2.633-3.213-3.94
		c-0.189-0.242-0.441-0.582-0.545-0.863c0,0-2.836-0.106-4.473,1.323s-4.651,5.409-9.409,3.063c-2.832-1.396-4.398,0-5.217,0.306
		c-0.818,0.307-3.018,1.562-6.99,0.418c-0.155-0.044-0.311-0.127-0.465-0.239c0,0,0.252,0.155,0,1.216s-0.797,1.633-3.115,2.825
		c-2.318,1.19-2.932,6.908-2.932,6.908s0.647,4.117-0.272,5.342c-0.92,1.226-9.444,9.324-10.502,14.463
		c-1.057,5.138-1.091,6.941-1.091,6.941l5.354-0.132L29.533,76.874z"/>
	<path clip-path="url(#SVGID_2_)" fill="#DBAEFF" stroke="#000000" stroke-width="0.342" stroke-dasharray="1.6102,1.8115" d="
		M42.064,39.265c-1.637-1.185-3.145-5.783-3.455-6.309c-0.342-0.574-0.273-1.868-5.115-2.582c-3.903-0.576-7.472-3.164-9.389-5.126
		c0,0,1.274,5.025,1.001,6.794c-0.272,1.769-1.193,5.989-1.227,6.738c-0.034,0.749,0.341,6.738-2.864,9.188
		c-3.204,2.451-7.706,5.173-8.661,7.078c-0.955,1.906-1.159,2.961-1.159,2.961s2.898,1.872,4.808,1.157s2.354-0.272,3.239,0.307
		c0.888,0.579,2.797,1.429,4.91,0c2.114-1.43,9.888-8.848,11.866-9.256c0,0,0.613-5.717,2.932-6.908
		c2.318-1.192,2.863-1.763,3.115-2.825S42.064,39.265,42.064,39.265z"/>
	
		<circle clip-path="url(#SVGID_2_)" fill="none" stroke="#000000" stroke-width="0.201" stroke-miterlimit="10" cx="48.452" cy="29.711" r="1.154"/>
	
		<circle clip-path="url(#SVGID_2_)" fill="none" stroke="#000000" stroke-width="0.201" stroke-miterlimit="10" cx="86.34" cy="21.535" r="0.958"/>
	<path clip-path="url(#SVGID_2_)" d="M48.326,19.411c-0.362,0.056-0.542,0.076-1.035,0.118c-0.035-0.145-0.07-0.226-0.151-0.356
		c1.008-0.042,1.977-0.206,2.375-0.412l0.28,0.357c-0.24,0.062-0.761,0.178-1.098,0.239v0.63h0.591c0.267,0,0.397-0.007,0.542-0.035
		v0.417c-0.138-0.027-0.297-0.035-0.551-0.035H48.82c0.281,0.398,0.61,0.692,1.077,0.945c-0.103,0.089-0.178,0.185-0.254,0.308
		c-0.466-0.343-0.707-0.582-0.974-1c0.007,0.047,0.007,0.047,0.014,0.151l0.015,0.246v0.322c0,0.137,0.007,0.268,0.02,0.35h-0.41
		c0.013-0.118,0.02-0.219,0.02-0.35v-0.302c0.014-0.307,0.014-0.307,0.02-0.41c-0.239,0.355-0.342,0.486-0.575,0.699
		c-0.213,0.191-0.405,0.342-0.625,0.48c-0.082-0.145-0.137-0.22-0.254-0.336c0.288-0.151,0.466-0.261,0.672-0.433
		c0.24-0.198,0.467-0.451,0.617-0.671H47.6c-0.262,0-0.419,0.007-0.557,0.035v-0.417c0.138,0.027,0.289,0.035,0.557,0.035h0.727
		V19.411 M48.011,22.261c0.09-0.212,0.125-0.349,0.152-0.521l0.445,0.089c-0.008,0.021-0.069,0.164-0.179,0.432h0.597
		c0.275,0,0.398-0.007,0.544-0.035l0.211,0.247c-0.013,0.041-0.013,0.041-0.055,0.13c-0.007,0.007-0.034,0.088-0.083,0.198
		c-0.15,0.37-0.327,0.678-0.563,0.951c0.221,0.11,0.323,0.165,0.611,0.329l-0.232,0.37c-0.324-0.212-0.44-0.28-0.667-0.411
		c-0.432,0.378-0.823,0.589-1.529,0.823c-0.07-0.172-0.117-0.24-0.241-0.377c0.646-0.165,1.009-0.329,1.407-0.63
		c-0.419-0.206-0.604-0.281-1.078-0.453c0.248-0.328,0.344-0.479,0.502-0.794h-0.269c-0.268,0-0.405,0.007-0.556,0.034v-0.417
		c0.137,0.028,0.281,0.034,0.556,0.034L48.011,22.261L48.011,22.261z M48.272,22.61c-0.165,0.322-0.221,0.424-0.364,0.636
		c0.343,0.13,0.446,0.172,0.816,0.336c0.261-0.288,0.445-0.604,0.569-0.973L48.272,22.61L48.272,22.61z M50.522,21.987
		c-0.179,0-0.41,0.006-0.555,0.014c0.02-0.151,0.027-0.322,0.027-0.616v-1.376c0-0.308-0.008-0.487-0.027-0.644
		c0.178,0.02,0.418,0.034,0.664,0.034h0.352c0.13-0.246,0.211-0.486,0.272-0.78l0.434,0.116c-0.171,0.432-0.198,0.486-0.28,0.664
		h0.816c0.26,0,0.48-0.014,0.679-0.034c-0.021,0.171-0.027,0.336-0.027,0.67v1.569c0,0.088,0.014,0.295,0.02,0.396
		c-0.068-0.007-0.245-0.014-0.542-0.014h-0.631v1.432l0.104-0.007c0.178-0.404,0.272-0.733,0.37-1.22l0.355,0.118
		c-0.123,0.438-0.239,0.759-0.377,1.067c0.24-0.034,0.37-0.061,0.549-0.102c-0.082-0.179-0.123-0.253-0.233-0.438l0.281-0.129
		c0.192,0.342,0.296,0.562,0.439,0.904l-0.296,0.165c-0.034-0.11-0.055-0.157-0.074-0.226c-0.22,0.054-0.364,0.088-0.551,0.123
		c-0.013,0-0.198,0.027-0.568,0.075v0.5c0,0.13,0.075,0.15,0.542,0.15c0.37,0,0.528-0.02,0.597-0.082
		c0.069-0.062,0.104-0.24,0.109-0.555c0.131,0.083,0.199,0.109,0.364,0.158c-0.041,0.452-0.104,0.623-0.261,0.74
		c-0.131,0.088-0.309,0.116-0.783,0.116c-0.816,0-0.946-0.062-0.946-0.431v-2.356h-0.371c-0.034,0.521-0.034,0.521-0.055,0.713
		c-0.074,0.726-0.246,1.232-0.563,1.637c-0.164,0.211-0.309,0.342-0.625,0.568c-0.109-0.144-0.184-0.205-0.336-0.288
		c0.556-0.335,0.838-0.678,1.002-1.226c0.11-0.363,0.15-0.713,0.179-1.404L50.522,21.987L50.522,21.987z M50.372,20.493h0.844
		v-0.746h-0.844V20.493z M50.372,21.631h0.844v-0.802h-0.844V21.631z M51.579,20.493h0.913v-0.746h-0.913V20.493z M51.579,21.631
		h0.913v-0.802h-0.913V21.631z"/>
	<path clip-path="url(#SVGID_2_)" d="M25.895,46.511c-0.425,0-0.563,0.006-0.768,0.02c0.021-0.158,0.027-0.294,0.027-0.479v-0.486
		c0-0.185-0.006-0.323-0.027-0.479c0.185,0.02,0.412,0.027,0.768,0.027h3.857c0.357,0,0.583-0.007,0.769-0.027
		c-0.021,0.157-0.028,0.281-0.028,0.479v0.486c0,0.199,0.007,0.321,0.028,0.479c-0.206-0.014-0.35-0.02-0.769-0.02h-3.02
		c-0.165,0.253-0.213,0.329-0.357,0.514h3.692c0.254,0,0.433-0.007,0.624-0.035c-0.02,0.171-0.027,0.268-0.034,0.534
		c-0.027,1.131-0.068,1.699-0.178,2.342c-0.152,0.924-0.296,1.111-0.838,1.111c-0.232,0-0.48-0.007-0.658-0.021
		c-0.015-0.17-0.035-0.26-0.09-0.438c0.295,0.042,0.488,0.062,0.666,0.062c0.309,0,0.377-0.089,0.48-0.671
		c0.11-0.603,0.165-1.363,0.179-2.521h-4.166c-0.384,0.383-0.672,0.603-1.173,0.876c-0.083-0.164-0.129-0.233-0.274-0.37
		c0.494-0.219,0.81-0.424,1.173-0.774c0.22-0.212,0.315-0.342,0.474-0.609L25.895,46.511 M27.103,47.984
		c0-0.191-0.006-0.26-0.041-0.397h0.493c-0.034,0.137-0.04,0.198-0.04,0.397h1.104c0.273,0,0.473-0.007,0.652-0.034
		c-0.021,0.163-0.028,0.288-0.028,0.493v0.404c0,0.219,0.006,0.315,0.028,0.472c-0.165-0.02-0.351-0.027-0.632-0.027h-1.124v0.72
		c0.753-0.082,0.753-0.082,1.2-0.158c-0.103-0.123-0.157-0.178-0.329-0.342l0.323-0.165c0.274,0.253,0.486,0.514,0.803,0.958
		l-0.337,0.206c-0.109-0.178-0.151-0.232-0.227-0.349c-1.112,0.205-1.729,0.287-3.464,0.458c-0.235,0.027-0.323,0.041-0.489,0.069
		l-0.096-0.494c0.089,0.007,0.165,0.014,0.22,0.014c0.315,0,1.434-0.083,1.982-0.151v-0.767h-1.001
		c-0.281,0-0.454,0.007-0.604,0.027c0.021-0.157,0.028-0.274,0.028-0.458v-0.418c0-0.191-0.006-0.301-0.028-0.494
		c0.186,0.028,0.392,0.035,0.652,0.035L27.103,47.984L27.103,47.984z M25.573,46.169H26.8v-0.706h-1.228V46.169z M27.103,48.326
		h-1.187v0.63h1.187V48.326z M27.198,46.169h1.181v-0.706h-1.181V46.169z M27.515,48.956h1.338v-0.63h-1.338V48.956z M28.777,46.169
		h1.297v-0.706h-1.297V46.169z"/>
	<path clip-path="url(#SVGID_2_)" d="M56.824,53.353c0.322,0,0.527-0.014,0.713-0.042v0.486c-0.198-0.028-0.404-0.042-0.713-0.042
		H52.22c-0.329,0-0.543,0.014-0.77,0.042v-0.486c0.213,0.027,0.418,0.042,0.755,0.042h3.686v-0.706h-3.102
		c-0.352,0-0.495,0.007-0.688,0.021c0.014-0.186,0.021-0.288,0.021-0.562v-1.623c0-0.315-0.007-0.473-0.034-0.658h0.508
		c-0.027,0.206-0.034,0.383-0.034,0.651v1.788h3.219c0.226,0,0.376-0.007,0.555-0.021c-0.014,0.131-0.021,0.233-0.021,0.445v0.665
		L56.824,53.353 M53.866,54.236c-0.74,0.67-1.07,0.883-2.011,1.259c-0.116-0.165-0.151-0.205-0.344-0.377
		c0.55-0.184,0.804-0.294,1.152-0.5c0.316-0.185,0.48-0.315,0.805-0.631L53.866,54.236z M56.687,51.044
		c0,0.253,0.007,0.405,0.027,0.576c-0.171-0.014-0.302-0.02-0.583-0.02h-2.203c-0.191,0-0.35,0.007-0.542,0.02
		c0.014-0.164,0.021-0.309,0.021-0.452v-1.199c0-0.26-0.008-0.356-0.021-0.507c0.212,0.021,0.351,0.028,0.598,0.028h2.106
		c0.274,0,0.445-0.007,0.624-0.028c-0.021,0.165-0.027,0.295-0.027,0.549V51.044z M56.255,49.859h-2.416v1.37h2.416V49.859z
		 M55.493,53.975c0.645,0.576,1.029,0.795,2.004,1.151c-0.146,0.137-0.213,0.226-0.303,0.397c-0.947-0.405-1.358-0.665-2.073-1.309
		L55.493,53.975z"/>
	<path clip-path="url(#SVGID_2_)" d="M50.282,29.02c0.329,0.194,0.529,0.337,0.844,0.594l-0.191,0.267
		c-0.276-0.271-0.476-0.423-0.833-0.637L50.282,29.02 M51.164,30.564c-0.209,0.542-0.391,0.922-0.615,1.288
		c-0.009,0.019-0.046,0.081-0.099,0.176l-0.281-0.247c0.267-0.291,0.5-0.732,0.743-1.402L51.164,30.564z M50.602,27.878
		c0.314,0.209,0.51,0.366,0.767,0.623l-0.194,0.247c-0.263-0.29-0.442-0.442-0.768-0.656L50.602,27.878z M53.445,28.253
		c0.163,0,0.253-0.004,0.344-0.019l0.176,0.19l-0.066,0.095c-0.257,0.395-0.481,0.656-0.811,0.956
		c0.41,0.286,0.896,0.515,1.426,0.666c-0.097,0.132-0.115,0.166-0.163,0.29c-0.662-0.242-1.028-0.433-1.48-0.771
		c-0.357,0.285-0.688,0.48-1.119,0.665c0.081,0.01,0.176,0.014,0.338,0.014h1.485c0.182,0,0.272-0.005,0.372-0.019
		c-0.014,0.133-0.019,0.238-0.019,0.442v0.879c0,0.219,0.005,0.349,0.023,0.486h-0.324v-0.286h-1.605v0.286h-0.32
		c0.02-0.152,0.024-0.291,0.024-0.476v-0.889c0-0.181-0.005-0.314-0.015-0.419c-0.113,0.044-0.152,0.063-0.319,0.125
		c-0.042-0.109-0.086-0.172-0.171-0.262c0.586-0.19,0.991-0.395,1.42-0.728c-0.258-0.223-0.396-0.376-0.609-0.661
		c-0.205,0.233-0.377,0.395-0.63,0.584c-0.043-0.076-0.1-0.138-0.214-0.214c0.563-0.375,1.034-0.951,1.143-1.388l0.32,0.095
		c-0.043,0.071-0.066,0.109-0.125,0.223c-0.022,0.039-0.042,0.072-0.075,0.134L53.445,28.253L53.445,28.253z M52.021,31.577h1.605
		v-0.97h-1.605V31.577z M52.273,28.52l-0.067,0.086c0.182,0.266,0.362,0.461,0.648,0.699c0.348-0.304,0.495-0.476,0.691-0.785
		H52.273z"/>
	<path clip-path="url(#SVGID_2_)" d="M55.128,28.396c0-0.143-0.005-0.294-0.019-0.437c0.086,0.009,0.181,0.014,0.343,0.014h0.477
		c0.181,0,0.276-0.005,0.362-0.014l0.147,0.181l-0.058,0.114c-0.162,0.385-0.262,0.58-0.462,0.918
		c0.147,0.2,0.205,0.291,0.262,0.413c0.096,0.19,0.144,0.404,0.144,0.613c0,0.348-0.148,0.476-0.544,0.476
		c-0.085,0-0.134-0.004-0.224-0.014c-0.004-0.133-0.019-0.2-0.057-0.295c0.138,0.034,0.232,0.043,0.343,0.043
		c0.152,0,0.204-0.063,0.204-0.252c0-0.314-0.109-0.561-0.433-0.965c0.219-0.357,0.343-0.614,0.472-0.96h-0.663v3.238
		c0,0.275,0.009,0.514,0.028,0.623h-0.353c0.019-0.119,0.028-0.338,0.028-0.627L55.128,28.396 M57.715,30.536
		c-0.152,0.275-0.275,0.441-0.499,0.646c-0.234,0.214-0.464,0.361-0.849,0.551c-0.067-0.09-0.114-0.143-0.2-0.214
		c0.361-0.138,0.601-0.28,0.857-0.509c0.177-0.156,0.286-0.29,0.392-0.475h-0.464c-0.257,0.271-0.504,0.447-0.914,0.641
		c-0.058-0.095-0.101-0.142-0.187-0.213c0.344-0.137,0.573-0.28,0.815-0.499c0.171-0.153,0.276-0.291,0.382-0.504h-0.172
		c-0.253,0-0.358,0.004-0.452,0.023v-0.299c0.103,0.019,0.309,0.028,0.504,0.028h1.72c0.268,0,0.43-0.01,0.528-0.028v0.294
		c-0.124-0.014-0.281-0.018-0.528-0.018h-1.306c-0.076,0.156-0.114,0.223-0.196,0.342h1.431c0.237,0,0.342-0.005,0.456-0.019
		c-0.009,0.062-0.019,0.19-0.028,0.342c-0.033,0.675-0.086,1.08-0.151,1.241c-0.068,0.162-0.172,0.214-0.425,0.214
		c-0.104,0-0.263-0.01-0.406-0.02c-0.009-0.124-0.032-0.204-0.08-0.299c0.194,0.034,0.344,0.047,0.491,0.047
		c0.119,0,0.162-0.042,0.19-0.193c0.047-0.229,0.071-0.486,0.1-1.081h-0.296c-0.157,0.409-0.267,0.608-0.485,0.87
		c-0.234,0.271-0.463,0.457-0.882,0.704c-0.063-0.085-0.114-0.138-0.21-0.209c0.413-0.218,0.657-0.4,0.9-0.685
		c0.189-0.214,0.275-0.361,0.409-0.68L57.715,30.536L57.715,30.536z M57.11,29.404c-0.19,0-0.339,0.004-0.435,0.019
		c0.015-0.127,0.019-0.251,0.019-0.433v-0.627c0-0.213-0.004-0.275-0.019-0.413c0.148,0.019,0.243,0.023,0.453,0.023h1.162
		c0.22,0,0.362-0.004,0.494-0.023c-0.014,0.118-0.018,0.228-0.018,0.437v0.604c0,0.224,0.005,0.333,0.018,0.428
		c-0.127-0.01-0.246-0.014-0.437-0.014L57.11,29.404L57.11,29.404z M56.981,28.563h1.495v-0.347h-1.495V28.563z M56.981,29.162
		h1.495v-0.361h-1.495V29.162z"/>
	<path clip-path="url(#SVGID_2_)" d="M72.836,28.678v-0.051c0-0.195-0.005-0.262-0.018-0.356h0.327
		c-0.019,0.095-0.022,0.194-0.022,0.361v0.047h0.189c0.258,0,0.386-0.004,0.528-0.028v0.323c-0.156-0.019-0.276-0.023-0.519-0.023
		h-0.2v0.452c0,0.127,0.005,0.209,0.014,0.314c-0.119-0.015-0.181-0.015-0.391-0.015h-2.091c-0.1,0-0.286,0.005-0.371,0.015
		c0.009-0.105,0.014-0.167,0.014-0.328V28.95H70.12c-0.242,0-0.367,0.005-0.519,0.023v-0.323c0.143,0.023,0.266,0.028,0.522,0.028
		h0.173v-0.042c0-0.167-0.006-0.257-0.024-0.366h0.328c-0.014,0.081-0.018,0.157-0.018,0.366v0.042h0.956v-0.062
		c0-0.185-0.004-0.281-0.022-0.381h0.333c-0.019,0.099-0.023,0.19-0.023,0.381v0.062L72.836,28.678 M69.982,30.313v0.686h-0.313
		c0.015-0.114,0.019-0.21,0.019-0.353v-0.242c0-0.153-0.004-0.257-0.019-0.376c0.129,0.015,0.262,0.02,0.515,0.02h3.044
		c0.234,0,0.395-0.005,0.538-0.02c-0.015,0.12-0.019,0.243-0.019,0.413v0.243c0,0.143,0.005,0.243,0.019,0.323h-0.314v-0.694h-1.623
		v0.476h0.876c0.195,0,0.319-0.004,0.452-0.018c-0.014,0.114-0.02,0.237-0.02,0.417v0.67c0,0.276-0.09,0.328-0.58,0.328
		c-0.043,0-0.109,0-0.257-0.004c-0.011-0.091-0.028-0.171-0.067-0.303c0.157,0.018,0.271,0.023,0.42,0.023
		c0.07,0,0.099-0.005,0.138-0.01c0.047-0.014,0.057-0.029,0.057-0.096v-0.747h-1.019v1.051c0,0.218,0.009,0.371,0.028,0.494h-0.35
		c0.02-0.119,0.03-0.28,0.03-0.494v-1.051h-0.944v0.68c0,0.275,0.005,0.371,0.02,0.485h-0.334c0.019-0.124,0.024-0.251,0.024-0.48
		v-0.537c0-0.161-0.006-0.295-0.02-0.428c0.129,0.014,0.268,0.019,0.462,0.019h0.791v-0.476h-1.554V30.313z M71.54,28.949h-0.957
		v0.494h0.957V28.949z M71.827,29.444h1.01V28.95h-1.01V29.444z"/>
	<path clip-path="url(#SVGID_2_)" d="M76.291,28.683c0-0.167-0.014-0.295-0.033-0.418h0.381c-0.018,0.099-0.028,0.233-0.028,0.418
		v0.356h1.458c0.242,0,0.4-0.01,0.548-0.033v0.356c-0.133-0.023-0.262-0.029-0.539-0.029h-1.806
		c-0.018,0.305-0.028,0.424-0.066,0.68h1.301c0.253,0,0.372-0.004,0.491-0.023c-0.01,0.095-0.015,0.147-0.022,0.332
		c-0.021,0.566-0.101,1.298-0.183,1.622c-0.1,0.408-0.215,0.508-0.596,0.508c-0.152,0-0.405-0.014-0.663-0.042
		c-0.014-0.153-0.027-0.213-0.075-0.338c0.276,0.052,0.51,0.076,0.719,0.076c0.206,0,0.253-0.058,0.325-0.409
		c0.08-0.399,0.118-0.808,0.146-1.441h-1.495c-0.105,0.543-0.233,0.875-0.452,1.218c-0.153,0.233-0.353,0.457-0.592,0.656
		c-0.152,0.129-0.257,0.2-0.519,0.348c-0.068-0.115-0.115-0.161-0.234-0.267c0.442-0.219,0.705-0.428,0.968-0.77
		c0.391-0.504,0.576-1.15,0.614-2.15h-1.001c-0.243,0-0.405,0.009-0.534,0.029v-0.356c0.153,0.023,0.297,0.033,0.529,0.033h1.357
		L76.291,28.683"/>
	<path clip-path="url(#SVGID_2_)" d="M79.983,29.273c0.009-0.091,0.019-0.281,0.032-0.571h-0.318c-0.158,0-0.258,0.005-0.371,0.02
		v-0.291c0.143,0.019,0.238,0.024,0.404,0.024h1.215c0.139,0,0.229-0.006,0.348-0.015c-0.01,0.096-0.015,0.172-0.015,0.282v0.551
		h0.043c0.125,0,0.21-0.006,0.31-0.015v0.295c-0.09-0.01-0.189-0.015-0.31-0.015h-0.043v0.543c0,0.114,0.005,0.195,0.015,0.285
		c-0.108-0.009-0.229-0.014-0.348-0.014h-0.857c-0.052,0.181-0.104,0.324-0.187,0.504h1.044c0.167,0,0.243-0.005,0.353-0.015
		c-0.01,0.095-0.015,0.171-0.015,0.385v0.889c0,0.195,0.005,0.314,0.024,0.409h-0.314v-0.223h-0.997v0.271h-0.313
		c0.015-0.096,0.023-0.229,0.023-0.4v-0.547c0-0.176,0.005-0.314,0.02-0.417c-0.183,0.347-0.263,0.48-0.468,0.742
		c-0.085-0.114-0.133-0.166-0.219-0.238c0.381-0.423,0.597-0.813,0.758-1.36h-0.124c-0.172,0-0.281,0.005-0.386,0.024v-0.295
		c0.114,0.015,0.219,0.019,0.381,0.019h0.195c0.047-0.204,0.066-0.328,0.096-0.561h-0.473c-0.16,0-0.266,0.005-0.413,0.023v-0.313
		c0.143,0.018,0.242,0.024,0.413,0.024L79.983,29.273 M79.997,32.045h0.997v-0.932h-0.997V32.045z M80.24,29.539
		c-0.023,0.214-0.053,0.386-0.091,0.562h0.853v-0.562H80.24z M81.002,29.273v-0.571h-0.7c-0.004,0.095-0.01,0.162-0.01,0.21
		c-0.01,0.195-0.01,0.195-0.023,0.361H81.002z M83.408,28.574c-0.038,0.071-0.052,0.099-0.09,0.19
		c-0.172,0.413-0.372,0.817-0.581,1.174c0.295,0.31,0.409,0.47,0.52,0.732c0.086,0.204,0.128,0.423,0.128,0.637
		c0,0.456-0.181,0.613-0.69,0.613c-0.119,0-0.239-0.004-0.392-0.019c-0.005-0.138-0.023-0.219-0.062-0.319
		c0.167,0.029,0.314,0.043,0.49,0.043c0.253,0,0.344-0.081,0.344-0.318c0-0.185-0.039-0.39-0.104-0.557
		c-0.101-0.267-0.239-0.441-0.586-0.77c0.29-0.466,0.448-0.804,0.634-1.322h-0.958v3.363c0,0.247,0.011,0.385,0.034,0.527h-0.362
		c0.02-0.127,0.029-0.29,0.029-0.527v-3.21c0-0.156-0.005-0.271-0.02-0.433c0.119,0.01,0.224,0.014,0.382,0.014h0.767
		c0.176,0,0.285-0.005,0.366-0.019L83.408,28.574z"/>
	<path clip-path="url(#SVGID_2_)" d="M49.031,29.71c0,0.32-0.261,0.579-0.579,0.579c-0.321,0-0.58-0.259-0.58-0.579
		s0.26-0.579,0.58-0.579C48.771,29.132,49.031,29.391,49.031,29.71"/>
	<polyline clip-path="url(#SVGID_2_)" fill="none" stroke="#000000" stroke-width="0.302" points="86.339,21.535 76.523,23.728 
		76.523,27.764 	"/>
	
		<path clip-path="url(#SVGID_2_)" fill="none" stroke="#000000" stroke-width="0.403" stroke-linecap="round" stroke-linejoin="round" stroke-miterlimit="10" d="
		M109.162,1.139c-0.576,0.271-1.159,0.499-1.542,0.993c-0.638,0.82-1.534,1.14-2.47,1.334c-0.669,0.139-1.16,0.433-1.571,0.966
		c-0.55,0.714-0.787,0.757-1.56,0.341c-0.646-0.349-1.321-0.617-1.731-1.342c-0.342-0.604-1.395-0.272-1.813,0.532
		c-0.187,0.359-0.344,0.734-0.543,1.164c-0.407-0.205-0.779-0.391-1.171-0.588c-0.277,0.469-0.54,0.916-0.821,1.395
		c-0.464,0.338-0.958,0.744-1.494,1.083C93.7,7.49,93.58,8.136,93.762,8.931c0.154,0.672,0.164,1.338-0.324,1.906
		c-0.863-0.003-1.492,0.395-2.069,1.006c-0.527,0.558-1.203,0.975-1.751,1.518c-0.73,0.726-1.398,1.511-2.182,2.366
		c0.579,0.7,1.15,1.364,1.689,2.053c0.303,0.386,0.543,0.819,0.826,1.22c0.355,0.504,0.707,1.014,1.093,1.495
		c0.648,0.807,1.322,1.592,1.837,2.208c0,1.22,0.003,2.195-0.002,3.171c-0.002,0.383,0.043,0.75-0.248,1.108
		c-0.153,0.189-0.084,0.571-0.088,0.866c-0.011,0.771-0.105,0.885-0.889,1.091c-0.368,0.097-0.936,0.119-1.057,0.355
		c-0.544,1.065-1.479,0.839-2.387,0.868c-0.054,0.222-0.108,0.452-0.185,0.773c-0.186,0.013-0.396,0.014-0.6,0.045
		c-0.365,0.057-0.738,0.1-1.09,0.208c-0.76,0.235-1.406-0.12-1.57-0.891c-0.087-0.409-0.201-0.813-0.268-1.226
		c-0.119-0.731,0.179-1.342,0.686-1.918c-0.178-0.239-0.335-0.451-0.53-0.712c0.138-0.489,0.285-1.007,0.461-1.633
		c-0.34-0.135-0.719-0.287-1.099-0.438c-0.138-0.845-0.138-0.845,1.64-0.949c-0.031-1.008-0.392-1.877-1.011-2.685
		c-0.272,0.104-0.521,0.198-0.822,0.313c-0.337-0.245-0.708-0.515-1.229-0.893c-0.234,0.297-0.464,0.59-0.671,0.853
		c-0.293-0.242-0.59-0.488-0.938-0.775c0.089-0.205,0.193-0.448,0.329-0.764c-0.282-0.069-0.561-0.137-0.84-0.206
		c0.123-0.829,0.548-1.273,1.417-1.43c0.138-0.708,0.297-1.435,0.411-2.169c0.03-0.192-0.035-0.431-0.133-0.606
		c-0.275-0.494-1.652-1.03-2.243-0.968c-0.495,0.052-1.021,0.105-1.493-0.008c-1.226-0.295-2.257,0.051-3.286,0.688
		c-1.313,0.815-2.673,1.554-4.017,2.322c-0.034,0.02-0.09,0.003-0.329,0.003c1.104-1.319,1.088-2.854,1.185-4.351
		c0.455-0.671,1.717-1.05,1.055-1.867c-1.406-1.119-2.277-0.283-3.202,0.164c-1.456,0.704-2.761,1.624-3.811,2.863
		c-0.244,0.288-0.339,0.697-0.563,1.007c-0.282,0.389-0.566,0.834-0.961,1.07c-0.553,0.329-1.21,0.487-1.842,0.726
		c-0.262-0.194-0.524-0.39-0.847-0.63c-0.711,0.569-0.992,1.366-1.275,2.161c1.621,0.895,1.852,1.111,2.229,2.116
		c0.204-0.342,0.386-0.651,0.587-0.99c0.338,0.142,0.658,0.276,0.938,0.394c0.248,0.693,0.446,1.341,0.714,1.96
		c0.159,0.368,0.836,0.469,1.281,0.202c0.562-0.336,1.097-0.717,1.64-1.083c0.738-0.499,2.127-0.544,2.625,0.162
		c0.76,1.076,1.632,0.748,2.557,0.516c0.626-0.157,0.944-0.043,1.332,0.503c-0.225,0.568-0.436,1.103-0.674,1.706
		c-0.447-0.295-0.822-0.542-1.147-0.756c-0.469,0.324-0.87,0.772-1.358,0.905c-1.136,0.309-1.932,0.939-2.683,1.841
		c-0.908,1.089-2.046,1.988-3.047,2.933c0.086,0.334,0.152,0.583,0.22,0.849c1.614,0.101,2.382,1.119,2.72,2.573
		c0.15,0.649,0.406,1.258,0.122,1.992c-0.11,0.286,0.297,0.844,0.573,1.197c1.028,1.308,2.099,2.581,3.213,3.94
		c-1.101,0.191-2.099,0.117-3.078-0.405c0.004,0.069,0.062,0.118,0.064,0.185c0.736,0.293,1.899,1.01,3.205,2.015
		c-1.363,1.701-2.617,1.742-2.895,2.127c0.499,0.409,1.71-0.422,1.816,0.924c0.231,0,0.413-0.002,0.596,0
		c0.699,0.011,0.765,0.092,0.683,0.816c-0.012,0.112-0.02,0.23,0.002,0.34c0.211,1.056,0.156,1.196-0.548,1.619
		c-0.137,0.468-0.239,0.821-0.342,1.172c-0.09,0.303-0.183,0.606-0.272,0.911l0.17,0.067c-0.174,0.233-0.348,0.465-0.503,0.674
		c-0.322-0.099-0.569-0.176-0.965-0.297c-0.16,0.346-0.429,0.679-0.455,1.029c-0.104,1.365-1.044,2.302-1.681,3.387
		c-0.118,0.202-0.56,0.214-0.938,0.343c0.117,0.157,0.238,0.32,0.38,0.51c-0.663,0.737-0.775,1.841-1.664,2.435
		c-0.073,0.048-0.119,0.171-0.135,0.268c-0.142,0.799-0.548,1.361-1.32,1.493c-0.395,0.674-0.02,1.587-0.878,2.026
		c-0.21-0.166-0.4-0.319-0.573-0.458c-1.065-0.04-0.778,1.305-1.602,1.474c-0.271,0.053-0.543,0.105-0.873,0.169
		c-0.123,0.274-0.26,0.579-0.383,0.855c-1.067,0.564-2.056,1.149-2.141,2.503c-0.576-0.037-1.076-0.07-1.576-0.101
		c-0.091-0.007-0.202-0.036-0.27,0.004c-1.078,0.627-2.418,0.076-3.49,0.796c-0.344,0.231-0.955,0.168-1.185,0.449
		c-0.426,0.522-0.917,0.808-1.526,1.014c-0.198,0.065-0.33,0.34-0.481,0.526c-0.212,0.262-0.413,0.531-0.628,0.808
		c-0.54-0.175-1.012-0.327-1.483-0.48c-0.278,0.144-0.548,0.284-0.835,0.436c-0.215-0.153-0.432-0.304-0.662-0.467
		c-0.616,0.327-1.025,0.97-1.779,0.999c-0.888,0.037-1.773,0.098-2.672,0.148c-0.73,0.739-0.248,1.564-0.123,2.368
		c-0.955,0.595-1.449,0.479-1.837-0.479c-0.253-0.623-0.498-1.254-0.021-1.914c0.107-0.151,0.015-0.444,0.015-0.862
		c-0.532,0.194-0.884,0.321-1.246,0.454c-1.425-0.795-1.425-0.795-1.937-0.732c0.087,0.669-0.306,0.926-0.907,1.021
		c-0.369,0.06-0.727,0.241-1.091,0.25c-0.455,0.012-0.709,0.166-0.974,0.549c-0.436,0.627-1.22,0.636-1.891,0.828
		c-0.068,0.021-0.14,0.032-0.14,0.141c-0.271,0.271-0.563,0.525-0.811,0.816c-0.469,0.555-1.014,1.08-1.336,1.714
		c-0.26,0.513-0.237,1.167-0.358,1.858c0.282,0.519,0.581,1.145,0.955,1.724c0.151,0.231,0.467,0.356,0.708,0.531l0.179-0.159
		c0.518,0.99,1.021,1.988,1.563,2.965c0.136,0.243,0.396,0.417,0.604,0.618c0.59,0.568,1.182,1.136,1.772,1.702"/>
	
		<path clip-path="url(#SVGID_2_)" fill="none" stroke="#000000" stroke-width="0.403" stroke-linecap="round" stroke-linejoin="round" stroke-miterlimit="10" d="
		M108.162,30.512c-0.36-0.55-0.92-0.655-1.577-0.639c-0.814,0.019-0.956,0.683-1.176,1.053c-0.517,0.075-0.901,0.111-1.277,0.191
		c-0.746,0.159-1.539-0.083-2.271,0.37c-0.231,0.143-0.712-0.12-1.136-0.208c-0.204,0.296-0.376,0.804-0.705,0.942
		c-0.29,0.121-0.754-0.17-1.22-0.302c-0.213,0.163-0.474,0.361-0.728,0.555c-0.373,0-0.736,0-1.243,0
		c0.1-0.622,0.193-1.221,0.288-1.819l-0.121-0.061c0.233-0.243,0.467-0.488,0.677-0.709c0.879,0.282,1.322-0.426,1.875-0.771
		c0.462-0.288,0.831-0.76,1.165-1.207c0.568-0.766,1.334-1.216,2.185-1.575c0.962,0.748,2.039,0.375,3.075,0.354
		c0.342-0.006,0.682-0.041,1.023-0.065"/>
	
		<path clip-path="url(#SVGID_2_)" fill="none" stroke="#000000" stroke-width="0.403" stroke-linecap="round" stroke-linejoin="round" stroke-miterlimit="10" d="
		M108.348,32.043"/>
	
		<path clip-path="url(#SVGID_2_)" fill="none" stroke="#000000" stroke-width="0.403" stroke-linecap="round" stroke-linejoin="round" stroke-miterlimit="10" d="
		M73.04,58.741c-1.372-0.203-2.383,0.026-3.274,1.383c-0.828,1.253-1.27,2.585-1.749,3.933c-0.233,0.652-0.236,1.407,0.189,2.027
		c0.446,0.649,0.961,1.25,1.512,1.958c0.239-0.363,0.478-0.566,0.508-0.797c0.092-0.683,0.499-1.09,1.037-1.433
		c0.116-0.074,0.24-0.21,0.268-0.337c0.267-1.266,0.725-2.474,0.813-3.804c0.064-0.995,0.627-1.955,0.968-2.93"/>
	
		<path clip-path="url(#SVGID_2_)" fill="none" stroke="#000000" stroke-width="0.403" stroke-linecap="round" stroke-linejoin="round" stroke-miterlimit="10" d="
		M96.973,32.881c-0.482,0.131-1.003,0.164-1.245,0.742c-0.067,0.161-0.333,0.283-0.53,0.339c-0.79,0.225-0.793,0.213-1.46,0.854
		c0.111,0.04,0.206,0.082,0.304,0.104c0.09,0.02,0.184,0.017,0.394,0.034c-0.025,0.34-0.047,0.635-0.068,0.935
		c-0.347-0.034-0.571-0.057-0.825-0.081c0.135,0.422,0.249,0.777,0.374,1.168c0.375,0.082,0.828,0.181,1.421,0.31
		c0-0.635,0-1.224,0-1.812c0.075-0.029,0.149-0.059,0.225-0.087c0.152,0.164,0.438,0.327,0.438,0.49
		c-0.009,1.408-0.068,2.816-0.186,4.242c0.139,0.268,0.34,0.574,0.79,0.241c-0.272-0.491-0.557-0.99,0.088-1.536
		c0.155,0.093,0.382,0.229,0.598,0.358c-0.132,0.3-0.224,0.505-0.315,0.708c0.079,0.278,0.157,0.553,0.241,0.852
		c0.213,0,0.396,0,0.595,0c0.046-0.306,0.089-0.583,0.142-0.929c0.367,0.029,0.684,0.054,1.068,0.084
		c0.181-0.996,0.362-1.998,0.546-3c0.014-0.071,0.045-0.136,0.068-0.205c0.278-0.802,0.376-1.563-0.506-2.051
		c0.074-0.329,0.135-0.597,0.203-0.893c-0.226-0.126-0.431-0.239-0.6-0.334c-0.322,0.093-0.592,0.17-0.904,0.258
		c-0.264-0.265-0.523-0.527-0.784-0.79"/>
	
		<path clip-path="url(#SVGID_2_)" fill="none" stroke="#000000" stroke-width="0.403" stroke-linecap="round" stroke-linejoin="round" stroke-miterlimit="10" d="
		M106.041,34.786c0.482-0.539,1.09-0.96,1.25-1.765c0.094-0.476-0.056-0.687-0.434-0.815c-0.476-0.16-0.965-0.282-1.448-0.419
		c-0.058-0.084-0.115-0.168-0.173-0.253c-0.164,0.291-0.327,0.581-0.475,0.841c-0.771-0.042-1.453-0.08-2.459-0.135
		c-0.358,0.43-0.916,1.099-1.428,1.711c0.173,0.103,0.481,0.287,0.799,0.475c-0.133,0.413-0.234,0.728-0.378,1.171
		c0.442,0.367,0.926,0.768,1.54,1.275c0.31-0.724,0.565-1.322,0.881-2.063c0.393-0.147,0.939-0.351,1.429-0.534
		c0.324,0.174,0.575,0.308,0.826,0.441"/>
	
		<path clip-path="url(#SVGID_2_)" fill="none" stroke="#000000" stroke-width="0.403" stroke-linecap="round" stroke-linejoin="round" stroke-miterlimit="10" d="
		M57.29,45.402c-0.497,1.279-0.125,2.6,1.037,3.21c0.09-0.649,0.172-1.245,0.22-1.583c-0.465-0.673-0.792-1.149-1.121-1.626"/>
	
		<path clip-path="url(#SVGID_2_)" fill="none" stroke="#000000" stroke-width="0.403" stroke-linecap="round" stroke-linejoin="round" stroke-miterlimit="10" d="
		M47.813,46.015c0.538,0.803,0.342,1.662,0.187,2.632c-0.532,0.087-1.101,0.18-1.705,0.277c-0.381-0.578-0.714-1.083-1.048-1.588
		l0.073-0.17c0.353,0.087,0.706,0.173,1.159,0.284c0.172-0.222,0.369-0.495,0.586-0.751c0.216-0.258,0.452-0.501,0.679-0.75"/>
	
		<path clip-path="url(#SVGID_2_)" fill="none" stroke="#000000" stroke-width="0.403" stroke-linecap="round" stroke-linejoin="round" stroke-miterlimit="10" d="
		M84.153,34.788c0.127,0.428,0.498,0.296,0.747,0.253c0.407-0.066,0.794-0.244,1.233-0.389c-0.876-0.852-1.36-0.641-2.049,0.067"/>
	
		<path clip-path="url(#SVGID_2_)" fill="none" stroke="#000000" stroke-width="0.403" stroke-linecap="round" stroke-linejoin="round" stroke-miterlimit="10" d="
		M97.244,42.341c-0.198,0.331-0.396,0.661-0.589,0.982c0.305,0.307,0.509,0.202,0.579-0.1c0.087-0.376,0.1-0.77,0.146-1.154"/>
	
		<path clip-path="url(#SVGID_2_)" fill="none" stroke="#000000" stroke-width="0.403" stroke-linecap="round" stroke-linejoin="round" stroke-miterlimit="10" d="
		M93.018,29.957c-0.137,0.408-0.273,0.816-0.409,1.226"/>
	
		<rect clip-path="url(#SVGID_2_)" fill="none" stroke="#231815" stroke-width="0.75" stroke-miterlimit="10" width="107.318" height="80.507"/>
</g>
</svg>
