<?xml version="1.0" encoding="utf-8"?>
<!-- Generator: Adobe Illustrator 16.0.3, SVG Export Plug-In . SVG Version: 6.00 Build 0)  -->
<!DOCTYPE svg PUBLIC "-//W3C//DTD SVG 1.1//EN" "http://www.w3.org/Graphics/SVG/1.1/DTD/svg11.dtd">
<svg version="1.1" id="レイヤー_1" xmlns="http://www.w3.org/2000/svg" xmlns:xlink="http://www.w3.org/1999/xlink" x="0px"
	 y="0px" width="285px" height="250.568px" viewBox="0 0 285 250.568" enable-background="new 0 0 285 250.568"
	 xml:space="preserve">
<g>
	<defs>
		<rect id="SVGID_1_" width="285" height="250.568"/>
	</defs>
	<clipPath id="SVGID_2_">
		<use xlink:href="#SVGID_1_"  overflow="visible"/>
	</clipPath>
	<path clip-path="url(#SVGID_2_)" fill="#FFFFFF" d="M268.87-6.6c0.625,1.875,2.934,0.897,4.125,0.5c0.75-0.25-0.5-4.5-0.75-5.25
		s-3-1.125-3.875-0.375S268.245-8.475,268.87-6.6z"/>
	<path clip-path="url(#SVGID_2_)" fill="#FFFFFF" d="M262.62-9.1c0.625,0.625,2.066,0.872,2.375,0.625c0.625-0.5,1-1.625-1-2
		S261.995-9.725,262.62-9.1z"/>
	<path clip-path="url(#SVGID_2_)" fill="#FFFFFF" d="M295.454,175.65c-0.75,0.418-1.75,0.084-2,0.668
		c-0.25,0.582-0.834,1.582,0,1.916s2.583,0.334,2.5,1s-1.082,3.416-1.666,4.834c-0.584,1.416-0.834,4.998-1.667,5.582
		s-4.334,8.25-4.417,9.834s-0.334,3.832-1.25,4.916s-3.167,3.25-4.417,4.584s-3.332,3.668-4.916,4.084s-3.666,1.166-4.25,1.832
		c-0.584,0.668-1.916,2.418-3.5,2.75c-1.584,0.334-4.084,1.084-4.667,0.084s-0.667-1.668,0.333-2.25
		c1-0.584-0.166-2.166,0.084-2.834c0.25-0.666,0.75-1.082,1.5-1.25c0.75-0.166,2.75-0.916,2.75-1.666s-4.668-0.75-5.334-0.166
		c-0.666,0.582-3,2.998-2.583,3.916c0.417,0.916,1.417,1.5,0.5,2.334c-0.917,0.832-1.917,3.916-2.667,5.416s-2.667,3.084-2.75,4.334
		s0.5,4-0.5,4.582c-1,0.584-2.834,0.416-4.25,0.834c-1.416,0.416-2.166,1.25-2.833,0.584c-0.667-0.668-0.334-2.918-1.417-2.834
		s-5,0.666-5.833,0.666s-1.917-0.582-3-0.332s-1.916,1.166-4.666,0.832c-2.75-0.332-5.583,0.252-6.5-0.332s-0.917-1.834-2.167-1.25
		c-1.25,0.582-4.166,2-6.083,4s-5.666,6.5-6.75,7s-0.334,0.332-1.667,0.916s-1.251,1.584-2.667,1.584s-1.333-0.75-2.333,0.082
		c-1,0.834-1.834,1.752-1.917,2.418s0.834,1.582,0.167,2.332s-1.25,4.334-0.25,4.418c1,0.082,3.667,0.5,4.417-0.168
		c0.75-0.666,1.917-2.166,3-1.832c1.083,0.332,2.333,1.584,3.833,1.25s1.334-2.5,2.167-3.418c0.833-0.916,2.75,0.75,3.833,0.75
		s2.916-1.416,4.333-1.416s4.334,0.166,6.084-0.5s3.083,0.832,3.833-0.75c0.75-1.584,0.834-3.416,4.167-3.334
		c3.333,0.084,3.082-0.416,4.166,0.584s0.834,1.5,2.167,1.5s2.584-0.916,2.167,0.916c-0.417,1.834-0.834,2.668-1.417,3
		c-0.583,0.334-0.667,1.75-0.417,2.584s1.417,2.582,2.167,3.25c0.75,0.666,0.166,3.582,1.583,3.5
		c1.417-0.084,5.166-0.832,5.75-1.166s2.168-2.752,2.334-4.084c0.166-1.334,2.333-4.75,3.333-4.75s1.834,0.334,1.667-0.916
		s-2.418-2.25-2.334-3s0.167-4.252,0.667-5.084c0.5-0.834,1.833-0.416,1.833-0.084c0,0.334,0.168,3.168,1.584,3.75
		c1.416,0.584,0.833-0.75,0.583-1.666s-0.833-1.75,0.167-1.334c1,0.418,4.25,1.918,3.333,2.418s-2.917,1.5-1.25,1.832
		c1.667,0.334,4.917,0.166,5.25,0.334c0.333,0.166,2.833,0.084,3.333-0.084c0.5-0.166,3.418,0.752,4.084-0.082
		s-0.167-1.918,0.583-3.668s1.084-2.916,1.667-3.332c0.583-0.418,2.333-0.334,2.083,0.666s-1.25,2.084-0.75,3.166
		c0.5,1.084,0.667,2.834,1.667,2.584s2.082-1.084,1.666-2.084s0.501-1.416,0.667-2.582c0.166-1.168,0.25-1.916,1.083-1.75
		s2,1.582,2.5,1.416s-0.167-1.082-0.167-1.416s1.168-1.75,1.834-2s2-0.418,1.833,0.416s-0.083,3.334-0.75,3.916
		c-0.667,0.584-1.083,3.334-0.333,3.168"/>
	<path clip-path="url(#SVGID_2_)" fill="#FFFFFF" d="M241.37,250.275c-1.438-0.438-1.625-0.125-3.063-0.688s-2-1.563-3.125-1.25
		s-1.313,1.25-2.063,2s-5.063,0.25-6,0.188s-1.125-0.875-1.875-0.688s-2.375,1.188-3.125,2.625s-3.75,3.25-4.063,3.938
		s1.125,0.438,1.813,0.625s1.5,0.688,1.5,2.063s-0.875,2.313-0.813,3.438s4.375,4.188,5.25,4.375s0.75-1.375,1.563-2.25
		s1.188-4.063,1.688-4.688s2.125-0.563,2.813-1s2.125-1.188,3-1s1.807,1.486,3.063,1.625c0.563,0.063,3.25-3.5,3.75-3.938
		s0.688-2.688,1.125-3S242.808,250.712,241.37,250.275z"/>
	<path clip-path="url(#SVGID_2_)" fill="#FFFFFF" d="M188.308,243.212c-0.125,0.75-0.313,3.188,0,2.938s1.75-4,1.438-4.125
		C189.249,241.828,188.433,242.462,188.308,243.212z"/>
	<path clip-path="url(#SVGID_2_)" fill="#FFFFFF" d="M187.808,247.462c-0.688,0.188-0.63,1.625-0.188,1.625
		C188.183,249.087,188.495,247.275,187.808,247.462z"/>
	<path clip-path="url(#SVGID_2_)" fill="#FFFFFF" d="M279.683,204.775c0.438-0.063,2.625-2.125,2.313-3.25s-1.313-0.5-1.438-1
		s0.438-2.063-0.188-1.813c-0.991,0.396-1.688,1.188-1.688,2.125s-0.375,2.188,0.125,1.875s0.813-0.563,0.813,0
		S279.245,204.837,279.683,204.775z"/>
	<path clip-path="url(#SVGID_2_)" fill="#E6ADF2" d="M-10.13,60.9c2.25,0.25,6,3,8.25,4s20.75-7.5,25.5-7.5s6-6,8.5-8
		s5.5-1.5,7.75,0s3-1.5,5.5-1s2.5,3.25,4.5,4.75s3.75-3,6.25-2.5c1.724,0.345,3.566,2.115,5.281,4.002
		c3.002,0.008,7.73,1.246,11.219,0.498c3.5-0.75,11-5,14-5s3.75-3,2.75-6s1.75-2.75,1.75-5.75s-0.75-7.75,1.25-9s6.25-1.25,6.5-3
		s-0.25-4.5-0.75-7s-6,2-4.5-0.5s2.5-7.25,4.25-8.25s13.75-2,15-3s5.75,2,8.5,1.25s12.5,0.25,14.75,0.25s8,4,11.75,4.75
		s6,2,6.25,3.75s3.5,18.25,5,20.25s3.75,1.25,4,4s1.75,13,5.5,14s5.5,0.75,8.75,0.25s3.75,3.5,5.75,3.5s1.75-1.5,4.5-0.75
		s10.75,8,12.5,10.25s0.75,7.75,2,9.5s5.75,4.5,8.25,3.75s13-4,16.75-6.5s9.25-5,12.5-4.25s6,6.25,3.5,7.25s-5.75,4-5.75,6
		s1.25,7-1,8.75s-4.25,5.25-4.25,7.75s-1.25,5.5-4.25,8.25s-1.25,8.5-7,7.25s-7.5-4.25-9.75-3.5s-4.5,5.75-4.5,10
		s-3.25,11.75-4.75,13c-1.267,1.057-2.005,4.24-4.309,4.908c0.036,1.881,0.059,3.438,0.059,4.342c0,2.529,0.723,4.973,2.033,7.586
		c0.717-0.449,1.342-1.098,1.342-1.961c0-1.5,0.875-1.25,1.5-2s0.125-1.875,1.125-2s3.5,2.875,4.5,1.5s1.375-4.25,2.5-5.125
		s2.75-1.875,4.625-1.625s1.75,2.75,2.875,3.25s6.625,4.625,8.625,3.625s3.125-4.5,5.25-5s8.125-2.125,9.125-3
		s4.625-5.5,7.625-6.125s8.125-4.75,10-7.5c1.875-2.75,1.875-5.625,2.5-6.25s3.5-5,5.5-6s14.75-20.25,16.25-22.375
		s7.375-5.375,7.875-7.375s-0.5-3.375,0.75-4.375s3.625-8.25,5-8.625s5.875-8.5,6.25-11.625s0.125-24.375,1.5-25.875
		s3.375-3.5,4.5-4s2.125,0.625,2.875-1.875s1.75-0.75,0.875-3s-2.25-3-2.375-4.125s-0.375-8.125-0.875-9.5s-3-1.75-3.375-4.25
		s-4-3-4-5s-4-3.125-4.75-4.75s-4.375-0.5-5.625-0.25s-1.375-1.75-3.25-1.5s-4,0.125-5.125,1.375s-1.375,7.75-2,6.75
		s-0.375-3-2-3.125s-2.125-0.125-3,1.25s-1.375,2-3.125,2.25s-6.375,1.5-5.625,0s2.75-2.5,2.75-4.25s0.5-4-1.25-3.875
		s-5.125-0.25-5.25,0.875s-0.5,2.375-1.375,2.25s-3.25,1.75-2.875-1.25s1.5-3.75,0.75-4.5s-23.932,0.236-24.739,0.236L-4.667-3.772"
		/>
	<path clip-path="url(#SVGID_2_)" fill="#FFFFFF" d="M173.12,199.9c-3-0.75-7.75-0.5-8.5,0c-0.352,0.234-3.343,3.877-6.42,7.682
		c0.472-0.029,0.919,0.191,1.295,0.943c1,2,1,1.625,1.75,3.75s1.375,5.5,0.5,5.5s-3.25-1.125-4.375-0.5s-2.25,3.25-1,3.875
		s4.5,0.75,3.875,1.875s-2,5.5-1.25,6.375s2,1.75,0.875,2.75s-2.5,4.25-1.875,6.125s1.125,5.75,1.5,6.875s2.75,1.25,4,1.375
		s1.875-1,3-1s4.375,0.5,4.75-0.75s0-2.125,0.875-2.25s5.5,0.25,6.75-0.875s0.5-2.375,2.375-2.875s3.125-0.875,4.5-1.25
		s2.125-0.875,2.125-3s-0.25-3.125,0.875-4.75s0-8.75,0-10.875s1-2.625,0.375-3.75s-5.25-7.375-6.625-8.5s-4.625-4.875-4.75-6.625
		c-0.018-0.244-0.158-0.549-0.374-0.891C175.618,199.767,174.076,200.14,173.12,199.9z"/>
	<path clip-path="url(#SVGID_2_)" fill="#FFFFFF" d="M197.562,141.308c-0.425,0.123-0.896,0.17-1.441,0.092c-3.5-0.5-4.75,3-6.75,6
		s-7.5,4.75-10,4.5s-3.25,10.5-7,10.25s-9.75-4-13-3s-3,6.5-6,7s-8,4.25-10.25,7.25c-1.076,1.436-3.409,5.498-5.552,9.35
		c0.876,0.064,1.576,0.121,1.927,0.15c1.5,0.125,2.75-1,4.25-0.125s3.375,1.875,4.625,2.375s2,3.625,1.125,4.875s-0.25,6.75-1.875,7
		s-1.25-0.375-2.625,1s-2.75,3.5-1.875,4s3-0.25,2.75,1.125s-2.125,3.125-0.375,3.125s2.25,2.625,3,2.125s1.75-3,3.125-2.5
		s3.125,2.875,4.25,2.625c0.702-0.156,1.549-0.895,2.33-0.943c3.077-3.805,6.068-7.447,6.42-7.682c0.75-0.5,5.5-0.75,8.5,0
		c0.956,0.24,2.498-0.133,4.251-0.766c-1.328-2.098-5.804-5.711-6.126-7.109c-0.375-1.625-2.75-2.875-1.75-3.875
		s2.25-1.25,2.375-2.875s7.375-7.25,8.625-8.125s5.375-5.5,7.125-6s4-0.125,4.25-1.25s0.75-1.625,0.75-3.75s-1.125-5.75-0.375-7
		s4.875-5,5.875-5.25c0.425-0.105,1.003-0.332,1.533-0.664c-1.311-2.613-2.033-5.057-2.033-7.586
		C197.62,144.746,197.598,143.189,197.562,141.308z"/>
	<g clip-path="url(#SVGID_2_)">
		<path d="M226.547,125.415c0.791,0.468,1.211,0.768,2.074,1.476l-0.468,0.659c-0.695-0.684-1.199-1.067-2.063-1.583
			L226.547,125.415z M228.85,129.361c-0.432,0.971-0.684,1.5-0.912,1.871c-0.815,1.344-0.924,1.523-1.043,1.738l-0.672-0.658
			c0.636-0.6,1.331-1.787,2.003-3.443L228.85,129.361z M227.41,122.549c0.815,0.527,1.247,0.888,2.051,1.679l-0.48,0.624
			c-0.803-0.84-1.259-1.235-2.063-1.775L227.41,122.549z M232.159,122.633c-0.251,0.983-0.251,0.983-0.348,1.308
			c-0.552,1.727-1.188,2.866-2.278,4.065c-0.192-0.227-0.372-0.383-0.648-0.527c0.779-0.792,1.164-1.332,1.596-2.207
			c0.432-0.888,0.779-2.075,0.852-2.879L232.159,122.633z M230.828,133.103H230c0.049-0.408,0.061-0.768,0.061-1.223v-3.07
			c0-0.469-0.012-0.732-0.048-1.116c0.276,0.035,0.516,0.048,0.983,0.048h3.957c0.433,0,0.66-0.013,0.936-0.048
			c-0.035,0.3-0.047,0.586-0.047,1.116v3.033c0,0.553,0.012,0.912,0.06,1.26h-0.84v-0.719h-4.233V133.103z M230.828,131.675h4.233
			v-3.238h-4.233V131.675z M234.378,122.381c0.06,0.336,0.168,0.672,0.384,1.235c0.359,0.972,0.816,1.847,1.332,2.591
			c0.336,0.491,0.563,0.755,1.043,1.199c-0.264,0.18-0.432,0.323-0.672,0.623c-0.995-1.247-1.512-2.074-2.063-3.309
			c-0.24-0.528-0.492-1.176-0.684-1.68c-0.036-0.119-0.072-0.203-0.145-0.371L234.378,122.381z"/>
		<path d="M238.391,125.463c0.828,0.528,1.211,0.815,1.955,1.512l-0.516,0.575c-0.611-0.659-1.02-0.995-1.907-1.547L238.391,125.463
			z M240.465,129.337c-0.432,1.318-0.923,2.518-1.391,3.369c-0.132,0.252-0.132,0.252-0.204,0.396l-0.684-0.539
			c0.456-0.48,1.128-2.004,1.655-3.73L240.465,129.337z M239.146,122.477c0.731,0.552,1.199,0.972,1.763,1.571l-0.552,0.563
			c-0.672-0.791-1.031-1.127-1.751-1.619L239.146,122.477z M247.277,123.508c0.863,0,1.211-0.012,1.56-0.071v0.804
			c-0.276-0.036-0.672-0.049-1.511-0.049H242.6c-0.539,0.96-0.863,1.403-1.559,2.184c-0.168-0.229-0.348-0.396-0.588-0.552
			c0.779-0.696,1.295-1.439,1.823-2.627c0.18-0.407,0.288-0.743,0.323-1.031l0.84,0.168c-0.06,0.132-0.06,0.132-0.18,0.468
			c-0.084,0.228-0.156,0.396-0.312,0.707H247.277z M242.013,131.435c-0.072,0.264-0.108,0.385-0.216,0.781l-0.816-0.109
			c0.349-0.924,0.612-2.039,0.84-3.502h-0.072c-0.491,0-0.755,0.012-1.103,0.072v-0.816c0.288,0.049,0.6,0.072,1.151,0.072h0.119
			c0.133-1.043,0.205-1.799,0.205-2.207c0-0.023,0-0.144-0.013-0.348c0.144,0.013,0.491,0.024,0.852,0.024h3.813
			c0.612,0,0.84-0.012,1.248-0.048c-0.061,0.312-0.061,0.42-0.108,1.811c-0.012,0.24-0.012,0.396-0.036,0.768h0.084
			c0.553,0,0.816-0.012,1.115-0.072v0.816c-0.359-0.049-0.707-0.072-1.115-0.072h-0.132c-0.012,0.121-0.012,0.121-0.024,0.336
			c-0.035,0.504-0.096,1.115-0.191,1.824h0.133c0.467,0,0.659-0.014,0.947-0.072v0.791c-0.313-0.035-0.553-0.049-0.973-0.049h-0.215
			c-0.24,1.393-0.456,1.645-1.439,1.645c-0.275,0-0.672-0.025-1.319-0.072c0-0.313-0.036-0.48-0.132-0.768
			c0.516,0.096,0.995,0.145,1.331,0.145c0.612,0,0.659-0.061,0.84-0.949H242.013z M242.564,128.605
			c-0.072,0.576-0.156,0.996-0.396,2.16h1.932c0.216-1.176,0.216-1.176,0.324-2.16H242.564z M244.508,127.934
			c0.084-0.827,0.084-0.911,0.131-1.883h-1.799c-0.06,0.815-0.084,1.067-0.18,1.883H244.508z M245.131,128.605
			c-0.12,0.984-0.12,0.984-0.324,2.16h2.1c0.084-0.66,0.144-1.188,0.215-2.16H245.131z M247.17,127.934
			c0.023-0.479,0.048-1.163,0.06-1.883h-1.883c-0.06,0.792-0.108,1.428-0.144,1.883H247.17z"/>
		<path d="M251.686,125.379c-0.191,1.451-0.432,2.375-0.887,3.382l-0.696-0.275c0.3-0.6,0.407-0.875,0.575-1.475
			c0.168-0.636,0.24-0.996,0.313-1.787L251.686,125.379z M253.221,126.339c0,3.178-0.684,5.217-2.267,6.799
			c-0.192-0.227-0.407-0.42-0.647-0.574c0.707-0.637,1.151-1.283,1.523-2.207c0.396-0.996,0.635-2.531,0.635-4.079v-2.722
			c0-0.517-0.023-0.9-0.071-1.176h0.899c-0.048,0.264-0.072,0.575-0.072,1.176V126.339z M254.336,125.271
			c0.432,1.043,0.6,1.595,0.876,2.902l-0.696,0.301c-0.18-1.2-0.371-1.931-0.791-2.975L254.336,125.271z M256.663,122.717
			c-0.06,0.336-0.071,0.563-0.071,1.175v7.065c0,0.707,0.023,1.055,0.071,1.391h-0.899c0.048-0.336,0.072-0.744,0.072-1.428v-7.015
			c0-0.588-0.012-0.876-0.072-1.188H256.663z M257.61,125.211c0.54,0.996,0.768,1.512,1.212,2.734l-0.637,0.396
			c-0.359-1.199-0.635-1.882-1.162-2.866L257.61,125.211z M260.201,122.356c-0.048,0.384-0.072,0.732-0.072,1.332v7.856
			c0,0.768,0.012,1.139,0.072,1.523h-0.899c0.048-0.396,0.071-0.768,0.071-1.535v-7.857c0-0.659-0.012-0.983-0.071-1.319H260.201z"
			/>
	</g>
	<g clip-path="url(#SVGID_2_)">
		<path d="M205.18,184.73c0-0.479-0.012-0.826-0.059-1.174c0.383,0.047,0.73,0.059,1.283,0.059h5.396
			c0.552,0,0.888-0.012,1.235-0.059c-0.048,0.348-0.06,0.646-0.06,1.104v7.688c0,0.576,0.023,0.91,0.071,1.283h-0.876v-0.779h-6.188
			v0.779h-0.876c0.048-0.359,0.071-0.732,0.071-1.271V184.73z M205.984,187.705h6.188v-3.357h-6.188V187.705z M205.984,192.119
			h6.188v-3.682h-6.188V192.119z"/>
		<path d="M216.677,185.775c-0.468,0-0.876,0.023-1.319,0.072v-0.877c0.443,0.061,0.791,0.084,1.319,0.084h3.358v-1.02
			c0-0.395-0.024-0.684-0.084-1.09h0.947c-0.061,0.359-0.084,0.707-0.084,1.078v1.031h3.538c0.6,0,0.995-0.023,1.343-0.084v0.877
			c-0.504-0.049-0.863-0.072-1.343-0.072h-3.238c1.343,2.422,2.95,4.102,4.941,5.18c-0.252,0.277-0.384,0.457-0.552,0.781
			c-0.972-0.648-1.715-1.271-2.494-2.1c-0.996-1.055-1.668-2.074-2.243-3.371c0.036,0.721,0.048,1.164,0.048,1.561v2.723h1.307
			c0.588,0,0.852-0.012,1.164-0.061v0.84c-0.359-0.061-0.648-0.072-1.188-0.072h-1.283v1.139c0,0.564,0.023,0.996,0.084,1.381
			h-0.947c0.06-0.42,0.084-0.84,0.084-1.393v-1.127h-1.152c-0.563,0-0.852,0.012-1.211,0.072v-0.84
			c0.313,0.049,0.576,0.061,1.188,0.061h1.176v-2.723c0-0.443,0.012-0.9,0.047-1.547c-0.551,1.307-1.187,2.289-2.266,3.465
			c-0.756,0.828-1.404,1.404-2.279,2.016c-0.18-0.324-0.275-0.443-0.563-0.707c1.031-0.625,1.896-1.355,2.806-2.436
			c0.9-1.031,1.416-1.799,1.955-2.842H216.677z"/>
		<path d="M227.357,186.085c0.828,0.529,1.211,0.816,1.955,1.512l-0.516,0.576c-0.611-0.66-1.02-0.996-1.907-1.547L227.357,186.085z
			 M229.432,189.96c-0.432,1.318-0.923,2.518-1.391,3.369c-0.132,0.252-0.132,0.252-0.204,0.396l-0.684-0.539
			c0.456-0.48,1.128-2.004,1.655-3.73L229.432,189.96z M228.113,183.099c0.731,0.553,1.199,0.973,1.763,1.572l-0.552,0.563
			c-0.672-0.791-1.031-1.127-1.751-1.619L228.113,183.099z M236.244,184.13c0.863,0,1.211-0.012,1.56-0.07v0.803
			c-0.276-0.035-0.672-0.049-1.511-0.049h-4.727c-0.539,0.961-0.863,1.404-1.559,2.184c-0.168-0.229-0.348-0.396-0.588-0.551
			c0.779-0.697,1.295-1.439,1.823-2.627c0.18-0.408,0.288-0.744,0.323-1.031l0.84,0.168c-0.06,0.131-0.06,0.131-0.18,0.467
			c-0.084,0.229-0.156,0.396-0.312,0.707H236.244z M230.979,192.058c-0.072,0.264-0.108,0.385-0.216,0.781l-0.816-0.109
			c0.349-0.924,0.612-2.039,0.84-3.502h-0.072c-0.491,0-0.755,0.012-1.103,0.072v-0.816c0.288,0.049,0.6,0.072,1.151,0.072h0.119
			c0.133-1.043,0.205-1.799,0.205-2.207c0-0.023,0-0.143-0.013-0.348c0.144,0.014,0.491,0.025,0.852,0.025h3.813
			c0.612,0,0.84-0.012,1.248-0.049c-0.061,0.313-0.061,0.42-0.108,1.811c-0.012,0.24-0.012,0.396-0.036,0.768h0.084
			c0.553,0,0.816-0.012,1.115-0.072v0.816c-0.359-0.049-0.707-0.072-1.115-0.072h-0.132c-0.012,0.121-0.012,0.121-0.024,0.336
			c-0.035,0.504-0.096,1.115-0.191,1.824h0.133c0.467,0,0.659-0.014,0.947-0.072v0.791c-0.313-0.035-0.553-0.049-0.973-0.049h-0.215
			c-0.24,1.393-0.456,1.645-1.439,1.645c-0.275,0-0.672-0.025-1.319-0.072c0-0.313-0.036-0.48-0.132-0.768
			c0.516,0.096,0.995,0.145,1.331,0.145c0.612,0,0.659-0.061,0.84-0.949H230.979z M231.531,189.228
			c-0.072,0.576-0.156,0.996-0.396,2.16h1.932c0.216-1.176,0.216-1.176,0.324-2.16H231.531z M233.475,188.556
			c0.084-0.826,0.084-0.91,0.131-1.883h-1.799c-0.06,0.816-0.084,1.068-0.18,1.883H233.475z M234.098,189.228
			c-0.12,0.984-0.12,0.984-0.324,2.16h2.1c0.084-0.66,0.144-1.188,0.215-2.16H234.098z M236.137,188.556
			c0.023-0.479,0.048-1.162,0.06-1.883h-1.883c-0.06,0.793-0.108,1.428-0.144,1.883H236.137z"/>
	</g>
	<g clip-path="url(#SVGID_2_)">
		<path d="M83.293,191.939c0-0.457-0.023-0.768-0.072-1.115h0.888c-0.048,0.348-0.071,0.646-0.071,1.115v0.814h0.695
			c0.432,0,0.743-0.012,1.079-0.061v0.781c-0.288-0.037-0.587-0.049-1.079-0.049h-1.56c-0.012,0.229-0.012,0.408-0.012,0.516
			c0,0.252-0.024,0.611-0.048,1.092h1.379c0.516,0,0.66,0,0.888-0.023c-0.036,0.311-0.036,0.311-0.048,1.57
			c-0.023,1.5-0.12,2.734-0.275,3.635c-0.168,0.875-0.42,1.09-1.26,1.09c-0.288,0-0.504-0.012-0.899-0.059
			c-0.024-0.373-0.06-0.576-0.132-0.768c0.336,0.072,0.707,0.119,1.02,0.119c0.432,0,0.516-0.131,0.623-0.996
			c0.133-0.994,0.18-1.99,0.191-3.896h-1.511c-0.12,1.859-0.155,2.193-0.335,3.033c-0.229,1.057-0.66,1.98-1.32,2.844
			c-0.215-0.313-0.323-0.432-0.563-0.625c1.212-1.547,1.487-2.854,1.571-7.531h-0.203c-0.541,0-0.828,0.012-1.128,0.061v-0.805
			c0.312,0.049,0.659,0.072,1.163,0.072h1.02V191.939z M87.143,193.017c-0.443,0.793-0.756,1.225-1.415,1.979
			c-0.192-0.203-0.336-0.299-0.636-0.432c0.695-0.719,1.056-1.188,1.451-1.93c0.372-0.66,0.624-1.332,0.684-1.764l0.816,0.18
			c-0.061,0.133-0.097,0.205-0.192,0.443c-0.156,0.396-0.228,0.576-0.348,0.84h3.142c0.576,0,0.947-0.023,1.224-0.072v0.805
			c-0.348-0.037-0.695-0.049-1.199-0.049H87.143z M91.772,195.632c-0.72,0.744-1.259,1.211-2.051,1.764
			c0.192,0.49,0.443,1.02,0.708,1.438c0.443,0.744,0.875,1.225,1.654,1.885c-0.228,0.238-0.336,0.406-0.504,0.754
			c-1.223-1.162-1.847-2.063-2.422-3.537c-0.313-0.805-0.492-1.559-0.66-2.688c-0.3,0.182-0.443,0.266-0.731,0.42v4.678
			c0,0.492,0.024,0.875,0.071,1.225h-0.875c0.048-0.313,0.072-0.66,0.072-1.225v-4.305c-0.408,0.191-0.564,0.264-0.972,0.443
			c-0.108-0.301-0.18-0.42-0.384-0.684c1.139-0.385,1.943-0.779,2.938-1.463c0.624-0.408,1.163-0.863,1.392-1.152l0.623,0.527
			c-0.18,0.109-0.203,0.133-0.552,0.42c-0.275,0.229-0.671,0.516-0.96,0.721c0.133,0.936,0.181,1.162,0.373,1.859
			c0.707-0.445,1.199-0.912,1.727-1.619L91.772,195.632z"/>
		<path d="M94.418,191.027c-0.049,0.299-0.061,0.551-0.061,1.211v2.986c0,2.975-0.264,4.666-0.936,6.045
			c-0.336-0.348-0.359-0.371-0.636-0.551c0.36-0.648,0.552-1.201,0.672-2.016c0.132-0.959,0.216-2.195,0.216-3.525v-2.939
			c0-0.588-0.023-0.852-0.072-1.211H94.418z M95.977,191.386c-0.048,0.289-0.048,0.516-0.048,1.236v6.008
			c0,0.576,0.012,0.9,0.048,1.199h-0.791c0.035-0.359,0.06-0.66,0.06-1.211v-5.996c0-0.697-0.013-0.9-0.048-1.236H95.977z
			 M97.56,191.039c-0.048,0.313-0.06,0.564-0.06,1.416v7.387c0,0.852,0.012,1.127,0.048,1.428h-0.792
			c0.049-0.313,0.061-0.588,0.061-1.428v-7.387c0-0.805-0.012-1.092-0.061-1.416H97.56z M100.307,199.83
			c-0.732,0.84-1.248,1.26-2.268,1.811c-0.168-0.264-0.299-0.42-0.504-0.588c0.984-0.443,1.512-0.852,2.111-1.619L100.307,199.83z
			 M99.119,191.925c-0.648,0-0.888,0.014-1.164,0.061v-0.803c0.24,0.047,0.504,0.059,1.164,0.059h3.634
			c0.563,0,0.899-0.023,1.163-0.07v0.826c-0.312-0.059-0.6-0.072-1.163-0.072h-1.476c-0.131,0.445-0.312,0.936-0.467,1.271h1.498
			c0.553,0,0.852-0.012,1.104-0.047c-0.035,0.324-0.047,0.6-0.047,1.092v3.885c0,0.48,0.012,0.805,0.047,1.141
			c-0.371-0.037-0.611-0.049-1.043-0.049h-2.95c-0.433,0-0.708,0.012-1.044,0.049c0.036-0.324,0.049-0.66,0.049-1.104v-3.887
			c0-0.48-0.013-0.803-0.049-1.127c0.313,0.035,0.527,0.047,1.044,0.047h0.647c0.204-0.432,0.348-0.863,0.455-1.271H99.119z
			 M99.131,194.972h3.514v-1.139h-3.514V194.972z M99.131,196.724h3.514v-1.141h-3.514V196.724z M99.131,198.57h3.514v-1.234h-3.514
			V198.57z M101.926,199.421c0.695,0.721,1.234,1.092,2.291,1.547c-0.168,0.182-0.324,0.408-0.457,0.66
			c-1.104-0.576-1.631-0.959-2.458-1.822L101.926,199.421z"/>
	</g>
	<g clip-path="url(#SVGID_2_)">
		<path d="M129.953,189.072c0.408,1.535,1.044,2.793,1.955,3.861c0.875,1.02,1.883,1.752,3.25,2.338
			c-0.24,0.289-0.336,0.42-0.527,0.805c-2.687-1.428-4.174-3.178-5.037-5.926c-0.324,1.752-1.115,3.203-2.339,4.307
			c-0.755,0.672-1.415,1.092-2.591,1.631c-0.168-0.336-0.264-0.469-0.516-0.732c1.5-0.611,2.375-1.199,3.154-2.098
			c0.936-1.08,1.439-2.352,1.667-4.186h-3.263c-0.635,0-0.971,0.023-1.318,0.084v-0.936c0.312,0.059,0.707,0.084,1.344,0.084h3.31
			c0.036-0.576,0.048-0.947,0.048-1.416c0-0.551-0.036-0.982-0.084-1.307h0.983c-0.06,0.395-0.084,0.66-0.084,1.246
			c-0.012,0.613-0.024,0.961-0.06,1.477h3.634c0.612,0,1.007-0.025,1.331-0.084v0.936c-0.384-0.061-0.719-0.084-1.319-0.084H129.953
			z"/>
		<path d="M136.244,190.138c0.301,0.049,0.48,0.061,0.936,0.061h0.624c0.36,0,0.612-0.012,0.923-0.061
			c-0.047,0.359-0.06,0.672-0.06,1.271v2.352c0.181,0.383,0.324,0.574,0.588,0.768c0.696,0.516,1.415,0.658,3.118,0.658
			c2.291,0,3.694-0.059,4.821-0.227c-0.18,0.432-0.204,0.467-0.276,0.875c-1.066,0.049-2.758,0.084-4.173,0.084
			c-1.991,0-2.71-0.119-3.478-0.564c-0.396-0.227-0.685-0.516-0.996-0.982c-0.539,0.539-0.84,0.791-1.415,1.234
			c-0.192,0.145-0.288,0.229-0.468,0.396l-0.396-0.791c0.528-0.24,1.26-0.779,1.932-1.439v-2.902h-0.792
			c-0.407,0-0.587,0.012-0.888,0.059V190.138z M136.965,185.605c0.779,0.719,1.162,1.152,1.93,2.111l-0.611,0.551
			c-0.695-0.994-1.055-1.426-1.871-2.182L136.965,185.605z M140.37,187.105c-0.563,0-0.888,0.012-1.128,0.059v-0.742
			c0.276,0.035,0.648,0.059,1.248,0.059h2.099c0-0.406-0.024-0.73-0.084-1.078h0.84c-0.06,0.348-0.084,0.658-0.084,1.078h2.327
			c0.588,0,0.971-0.023,1.247-0.059v0.742c-0.276-0.047-0.612-0.059-1.2-0.059h-2.374v0.947h2.003c0.396,0,0.623-0.012,0.936-0.049
			c-0.036,0.275-0.049,0.48-0.049,0.816v2.398c0,0.324,0.013,0.516,0.049,0.779c-0.288-0.035-0.576-0.049-0.936-0.049h-2.003v0.984
			h2.423c0.588,0,0.936-0.012,1.188-0.061v0.744c-0.264-0.049-0.637-0.061-1.199-0.061h-2.411v0.229
			c0,0.383,0.024,0.744,0.084,1.092h-0.84c0.06-0.348,0.084-0.709,0.084-1.092v-0.229h-2.11c-0.504,0-0.947,0.025-1.199,0.061
			v-0.744c0.264,0.049,0.6,0.061,1.199,0.061h2.11v-0.984h-1.812c-0.359,0-0.635,0.014-0.947,0.049
			c0.037-0.275,0.049-0.467,0.049-0.779v-2.424c0-0.311-0.012-0.502-0.049-0.791c0.276,0.037,0.553,0.049,0.936,0.049h1.823v-0.947
			H140.37z M140.574,188.652v1.02h2.015v-1.02H140.574z M140.574,190.246v1.104h2.015v-1.104H140.574z M143.261,189.671h2.194v-1.02
			h-2.194V189.671z M143.261,191.349h2.194v-1.104h-2.194V191.349z"/>
	</g>
	<g clip-path="url(#SVGID_2_)">
		<path d="M152.455,127.184c0.408,0.768,0.756,1.187,1.548,1.835c0.743-0.492,1.535-1.211,1.87-1.704l0.708,0.433
			c-0.06,0.06-0.06,0.06-0.216,0.191c-0.023,0.036-0.072,0.072-0.132,0.132c-0.743,0.684-1.091,0.959-1.703,1.344
			c1.092,0.719,2.278,1.223,3.646,1.521c-0.18,0.266-0.287,0.469-0.419,0.805c-1.835-0.527-3.143-1.199-4.258-2.184
			c-0.804-0.684-1.331-1.379-1.823-2.375h-1.451v3.322c1.127-0.287,1.787-0.49,2.627-0.814l0.023,0.73
			c-1.115,0.42-2.17,0.732-4.557,1.32c-0.168,0.047-0.289,0.084-0.516,0.145l-0.252-0.84c0.443-0.025,0.527-0.049,1.895-0.348
			v-3.515h-0.936c-0.492,0-0.828,0.024-1.188,0.072v-0.804c0.288,0.048,0.684,0.072,1.188,0.072h0.936v-3.706
			c0-0.647-0.012-0.84-0.048-1.188c0.348,0.048,0.647,0.061,1.247,0.061h5.109c0.672,0,0.983-0.013,1.283-0.072v0.804
			c-0.384-0.048-0.695-0.061-1.271-0.061h-5.541v0.924h5.17c0.563,0,0.898-0.024,1.162-0.06v0.779
			c-0.335-0.048-0.719-0.072-1.162-0.072h-5.17v0.947h5.17c0.575,0,0.911-0.023,1.162-0.071v0.791
			c-0.348-0.048-0.671-0.071-1.162-0.071h-5.17v0.995h6.608c0.504,0,0.84-0.024,1.163-0.072v0.804
			c-0.312-0.048-0.672-0.072-1.127-0.072H152.455z"/>
		<path d="M161.602,127.796c-0.66,0.624-1.152,1.02-2.004,1.571c-0.191-0.301-0.287-0.408-0.527-0.611
			c0.888-0.48,1.355-0.804,2.039-1.416c0.492-0.443,0.828-0.804,1.151-1.224h-1.511c-0.553,0-0.936,0.024-1.344,0.072v-0.792
			c0.313,0.049,0.684,0.072,1.344,0.072h1.942c0.24-0.407,0.396-0.695,0.588-1.127h-1.487c-0.66,0-0.912,0.012-1.199,0.048v-0.731
			c0.275,0.035,0.527,0.048,1.199,0.048h1.751c0.144-0.372,0.192-0.552,0.3-0.947h-2.459c-0.563,0-0.923,0.012-1.283,0.06v-0.779
			c0.313,0.048,0.708,0.071,1.308,0.071h2.579c0.084-0.468,0.119-0.755,0.119-0.995c0-0.036,0-0.084,0-0.144l0.84,0.084
			c-0.036,0.144-0.061,0.239-0.132,0.623c-0.036,0.168-0.036,0.18-0.084,0.432h3.25c0.624,0,0.995-0.023,1.319-0.071v0.779
			c-0.359-0.048-0.72-0.06-1.295-0.06h-3.43c-0.084,0.312-0.156,0.575-0.289,0.947h3.287c0.719,0,0.959-0.013,1.247-0.048v0.731
			c-0.3-0.036-0.54-0.048-1.247-0.048h-1.728c0.288,0.587,0.372,0.743,0.636,1.127h2.195c0.623,0,0.995-0.023,1.307-0.072v0.792
			c-0.408-0.048-0.791-0.072-1.307-0.072h-1.703c0.911,1.08,1.931,1.848,3.369,2.567c-0.287,0.313-0.299,0.336-0.491,0.672
			c-0.96-0.588-1.476-0.973-2.171-1.595v2.89c0,0.684,0.012,0.984,0.072,1.283h-0.816v-0.504h-4.605v0.541h-0.803
			c0.061-0.313,0.072-0.613,0.072-1.26V127.796z M167.07,127.172c-0.396-0.396-0.611-0.647-0.912-1.056h-3.094
			c-0.3,0.42-0.504,0.672-0.852,1.056H167.07z M162.332,128.912h4.605v-1.116h-4.605V128.912z M162.332,130.794h4.605v-1.271h-4.605
			V130.794z M165.715,125.469c-0.216-0.359-0.313-0.552-0.588-1.127h-1.092c-0.191,0.443-0.323,0.707-0.563,1.127H165.715z"/>
	</g>
	<g clip-path="url(#SVGID_2_)">
		<path d="M116.918,65.034c-0.707,0-1.019,0.012-1.414,0.072v-0.84c0.407,0.06,0.768,0.084,1.451,0.084h3.406v-0.096
			c0-0.528-0.024-0.804-0.084-1.164h0.887c-0.06,0.36-0.084,0.696-0.084,1.164v0.096h3.586c0.779,0,1.176-0.024,1.5-0.084v0.84
			c-0.336-0.048-0.828-0.072-1.476-0.072h-3.61v0.995h2.615c0.756,0,1.043-0.012,1.367-0.06c-0.036,0.336-0.049,0.6-0.049,1.259
			v1.764c0,0.72,0,0.899,0.049,1.271c-0.324-0.061-0.66-0.072-1.367-0.072h-2.063c1.296,1.343,2.723,2.11,4.941,2.662
			c-0.216,0.288-0.3,0.408-0.456,0.756c-1.079-0.359-1.834-0.684-2.698-1.188c-0.947-0.552-1.631-1.115-2.374-1.967
			c0.023,0.312,0.035,0.708,0.035,0.936v1.224c0,0.647,0.012,0.959,0.084,1.331h-0.887c0.06-0.408,0.084-0.708,0.084-1.331v-1.212
			c0-0.228,0.012-0.587,0.035-0.923c-0.516,0.623-0.803,0.899-1.415,1.367c-0.972,0.743-2.026,1.295-3.347,1.751
			c-0.18-0.36-0.252-0.492-0.443-0.72c1.104-0.3,1.955-0.672,2.914-1.283c0.78-0.504,1.224-0.863,1.68-1.403h-1.751
			c-0.768,0-1.056,0.012-1.392,0.072l0.012-0.156c0.024-0.252,0.037-0.456,0.037-1.115v-1.739c0-0.695-0.013-0.911-0.049-1.295
			c0.288,0.06,0.611,0.071,1.332,0.071h2.387v-0.995H116.918z M117.435,66.653v1.104h2.927v-1.104H117.435z M117.435,68.368v1.212
			h2.927v-1.212H117.435z M121.08,67.757h3.19v-1.104h-3.19V67.757z M121.08,69.58h3.19v-1.212h-3.19V69.58z"/>
		<path d="M127.863,66.126c0.779,0.468,1.295,0.852,2.039,1.499l-0.48,0.672c-0.73-0.732-1.211-1.116-2.014-1.607L127.863,66.126z
			 M129.95,70.083c-0.552,1.416-0.827,1.991-1.632,3.37c-0.047,0.084-0.096,0.181-0.168,0.324l-0.695-0.624
			c0.624-0.659,1.271-1.895,1.859-3.538L129.95,70.083z M128.391,63.259c0.804,0.54,1.295,0.936,1.907,1.548l-0.504,0.611
			c-0.575-0.647-1.079-1.092-1.895-1.631L128.391,63.259z M131.749,64.662c-0.54,0-0.827,0.013-1.14,0.061v-0.756
			c0.348,0.048,0.672,0.072,1.14,0.072h2.026c0-0.468-0.012-0.636-0.071-0.972h0.839c-0.06,0.323-0.071,0.479-0.071,0.972h2.314
			c0.504,0,0.815-0.024,1.176-0.072v0.756c-0.324-0.048-0.612-0.061-1.176-0.061h-2.314v0.804h1.896c0.551,0,0.827-0.012,1.15-0.06
			v0.731c-0.348-0.048-0.647-0.061-1.139-0.061h-1.907v0.864h2.542c0.564,0,0.9-0.024,1.224-0.072v0.779
			c-0.348-0.06-0.659-0.071-1.224-0.071h-5.457c-0.575,0-0.911,0.023-1.271,0.071v-0.779c0.323,0.048,0.659,0.072,1.271,0.072h2.219
			v-0.864h-1.787c-0.491,0-0.791,0.013-1.139,0.061v-0.731c0.324,0.048,0.623,0.06,1.139,0.06h1.787v-0.804H131.749z M131.977,72.59
			c0,0.636,0.024,1.02,0.072,1.308h-0.863c0.048-0.336,0.061-0.684,0.061-1.308v-3.298c0-0.588,0-0.744-0.037-1.079
			c0.396,0.035,0.684,0.048,1.188,0.048h3.694c0.587,0,0.876-0.013,1.104-0.061c-0.036,0.3-0.048,0.684-0.048,1.283v3.383
			c0,0.72-0.24,0.923-1.08,0.923c-0.336,0-0.756-0.012-1.247-0.048c-0.048-0.288-0.096-0.456-0.228-0.731
			c0.551,0.096,0.971,0.132,1.367,0.132c0.384,0,0.455-0.06,0.455-0.323v-0.984h-4.438V72.59z M136.414,69.712v-0.84h-4.438v0.84
			H136.414z M136.414,71.223v-0.899h-4.438v0.899H136.414z"/>
		<path d="M141.303,66.833c-0.301,0-0.527,0.012-0.792,0.048v-0.636c-0.276,0.265-0.384,0.36-0.72,0.624
			c-0.18-0.348-0.18-0.348-0.455-0.611c1.15-0.828,1.847-1.667,2.35-2.843h0.84c0.504,0.936,0.936,1.439,1.848,2.111
			c-0.192,0.203-0.276,0.348-0.432,0.647c-0.9-0.804-1.26-1.224-1.799-2.147c-0.469,0.912-0.889,1.476-1.584,2.171
			c0.204,0.024,0.456,0.036,0.756,0.036h1.475c0.349,0,0.576-0.012,0.792-0.048v0.695c-0.252-0.036-0.443-0.048-0.804-0.048h-0.371
			v1.319h0.504c0.467,0,0.791-0.012,1.078-0.06v0.755c-0.311-0.048-0.6-0.06-1.078-0.06h-0.504v3.358
			c0.563-0.18,0.863-0.288,1.69-0.624l0.024,0.684c-1.14,0.468-2.195,0.815-3.682,1.247c-0.301,0.084-0.408,0.12-0.768,0.24
			l-0.205-0.827c0.469-0.024,0.912-0.12,2.244-0.516v-3.563h-0.984c-0.492,0-0.779,0.012-1.115,0.06v-0.755
			c0.3,0.036,0.636,0.06,1.127,0.06h0.973v-1.319H141.303z M140.499,72.146c-0.132-0.947-0.265-1.523-0.575-2.471l0.6-0.204
			c0.275,0.804,0.432,1.392,0.611,2.435L140.499,72.146z M142.873,71.379c0.289-0.756,0.42-1.26,0.528-2.063l0.612,0.24
			c-0.205,0.924-0.313,1.26-0.601,2.039L142.873,71.379z M145.344,66.186c-0.264,0.743-0.407,1.079-0.755,1.703
			c-0.24-0.216-0.384-0.312-0.636-0.42c0.563-0.863,0.936-1.787,1.139-2.878c0.061-0.288,0.084-0.48,0.084-0.72l0.744,0.168
			c-0.072,0.287-0.072,0.312-0.145,0.636c-0.071,0.323-0.119,0.552-0.215,0.852h1.223c0-0.336,0-0.48,0-0.696
			c0-0.959-0.012-1.235-0.06-1.583h0.839c-0.06,0.336-0.06,0.336-0.071,2.279h1.14c0.623,0,0.947-0.024,1.234-0.072v0.804
			c-0.348-0.048-0.814-0.072-1.211-0.072h-1.176c-0.035,1.104-0.071,1.619-0.144,2.23h1.548c0.527,0,0.959-0.023,1.246-0.071v0.815
			c-0.395-0.048-0.803-0.072-1.234-0.072h-1.439c0.204,0.72,0.516,1.403,0.912,2.015c0.563,0.864,1.211,1.476,2.219,2.075
			c-0.265,0.252-0.36,0.396-0.528,0.708c-1.56-1.104-2.471-2.339-3.022-4.078c-0.563,1.859-1.451,2.986-3.178,4.065
			c-0.145-0.275-0.301-0.455-0.553-0.659c0.924-0.479,1.488-0.912,2.004-1.547c0.588-0.708,0.947-1.5,1.188-2.579h-0.924
			c-0.492,0-0.899,0.024-1.211,0.072v-0.815c0.299,0.048,0.719,0.071,1.199,0.071h1.043c0.084-0.563,0.12-1.199,0.156-2.23H145.344z
			"/>
		<path d="M151.491,67.9c0.288,0.048,0.456,0.061,0.911,0.061h0.624c0.349,0,0.624-0.013,0.899-0.061
			c-0.035,0.372-0.048,0.684-0.048,1.247v2.315c0.228,0.527,0.612,0.875,1.2,1.127c0.539,0.229,1.427,0.313,3.142,0.313
			c1.583,0,3.083-0.084,4.161-0.24c-0.155,0.312-0.227,0.552-0.287,0.875c-1.235,0.049-3.035,0.084-4.054,0.084
			c-1.823,0-2.639-0.107-3.322-0.432c-0.516-0.239-0.827-0.516-1.247-1.115c-0.492,0.516-0.72,0.72-1.56,1.392
			c-0.084,0.06-0.155,0.12-0.276,0.239l-0.407-0.791c0.491-0.216,1.199-0.744,1.907-1.428V68.62h-0.779
			c-0.396,0-0.576,0.012-0.864,0.06V67.9z M152.115,63.451c0.803,0.756,1.295,1.308,1.906,2.11l-0.6,0.528
			c-0.6-0.899-1.115-1.487-1.858-2.147L152.115,63.451z M156.805,64.507c-0.191-0.336-0.468-0.708-0.84-1.14l0.648-0.288
			c0.371,0.468,0.575,0.768,0.982,1.428h1.283c0.385-0.468,0.684-0.936,0.924-1.439l0.708,0.264
			c-0.312,0.504-0.563,0.852-0.84,1.176h1.104c0.575,0,0.911-0.024,1.188-0.072v0.779c-0.396-0.048-0.756-0.06-1.188-0.06h-2.231
			c-0.144,0.396-0.252,0.611-0.455,0.995h1.931c0.575,0,0.924-0.012,1.151-0.048c-0.035,0.372-0.048,0.743-0.048,1.211v3.263
			c0,0.479,0.013,0.888,0.048,1.235c-0.24-0.024-0.539-0.036-0.887-0.036h-3.814c-0.408,0-0.863,0.012-1.176,0.036
			c0.024-0.36,0.036-0.756,0.036-1.163v-3.37c0-0.42-0.024-0.9-0.06-1.176c0.275,0.036,0.66,0.048,1.26,0.048h0.803
			c0.204-0.372,0.336-0.659,0.456-0.995h-2.015c-0.576,0-0.84,0.012-1.212,0.048v-0.768c0.265,0.048,0.612,0.072,1.224,0.072
			H156.805z M156.025,71.139h4.377v-1.104h-4.377V71.139z M156.037,67.78h4.365v-1.007h-4.365V67.78z M156.037,69.424h4.365v-1.031
			h-4.365V69.424z"/>
	</g>
	<g clip-path="url(#SVGID_2_)">
		<path d="M192.809,45.238c1.139,0.468,2.002,0.911,3.046,1.571l-0.468,0.804c-0.875-0.636-1.967-1.235-3.059-1.644L192.809,45.238z
			 M192.496,50.719c0.779,0,2.027-0.287,3.227-0.743c1.487-0.563,2.627-1.415,3.598-2.675c0.672-0.875,1.068-1.631,1.439-2.687
			c0.3,0.313,0.42,0.42,0.744,0.636c-1.044,2.495-2.507,4.126-4.617,5.169c-0.84,0.42-2.051,0.828-3.035,1.032
			c-0.191,0.035-0.408,0.084-0.647,0.132s-0.288,0.071-0.468,0.132L192.496,50.719z M193.744,42.372
			c1.175,0.479,1.955,0.875,2.975,1.511l-0.492,0.804c-0.828-0.611-2.075-1.283-2.951-1.583L193.744,42.372z"/>
		<path d="M202.457,47.805c0.168-0.096,0.252-0.168,0.396-0.3c0.359-0.348,1.463-1.679,2.051-2.459
			c0.684-0.911,0.983-1.139,1.523-1.139c0.479,0,0.672,0.144,1.547,1.104c1.344,1.475,2.782,2.854,4.102,3.922
			c0.563,0.455,0.756,0.6,0.996,0.719l-0.457,0.983c-0.264-0.239-0.275-0.251-1.066-0.923c-1.104-0.924-2.447-2.243-4.066-3.982
			c-0.791-0.851-0.84-0.887-1.079-0.887s-0.3,0.06-0.827,0.768c-0.469,0.636-1.404,1.787-2.172,2.674
			c-0.084,0.097-0.18,0.216-0.335,0.42L202.457,47.805z M210.049,43.308c0.528,0.552,0.84,0.959,1.271,1.654l-0.635,0.336
			c-0.396-0.684-0.696-1.091-1.248-1.69L210.049,43.308z M211.248,42.672c0.528,0.552,0.84,0.947,1.271,1.655l-0.635,0.335
			c-0.396-0.684-0.696-1.103-1.248-1.69L211.248,42.672z"/>
		<path d="M216.303,42.336c-0.035,0.288-0.047,0.443-0.047,0.995v3.227c0,0.575,0.012,0.707,0.047,0.995h-0.995
			c0.036-0.275,0.048-0.527,0.048-1.007v-3.202c0-0.517-0.012-0.72-0.048-1.008H216.303z M221.616,42.336
			c-0.048,0.275-0.06,0.468-0.06,1.043v1.416c0,1.906-0.084,2.962-0.301,3.657c-0.348,1.128-1.104,2.003-2.278,2.663
			c-0.587,0.336-1.163,0.563-2.183,0.863c-0.132-0.348-0.204-0.468-0.504-0.827c1.08-0.24,1.655-0.444,2.279-0.816
			c1.115-0.647,1.69-1.415,1.918-2.53c0.133-0.684,0.168-1.235,0.168-3.059v-1.354c0-0.624-0.012-0.792-0.047-1.056H221.616z"/>
		<path d="M228.879,44.83c-0.037,0.216-0.037,0.216-0.049,0.84c-0.035,2.003-0.371,3.19-1.188,4.222
			c-0.73,0.924-1.619,1.523-3.07,2.075c-0.18-0.384-0.264-0.504-0.551-0.804c0.971-0.288,1.57-0.588,2.194-1.104
			c1.271-1.02,1.739-2.243,1.739-4.581c0-0.336-0.012-0.42-0.049-0.648H228.879z M233.615,43.319
			c-0.119,0.156-0.144,0.191-0.287,0.479c-0.828,1.607-1.943,2.698-3.502,3.418c-0.18-0.3-0.276-0.407-0.588-0.684
			c0.84-0.323,1.331-0.611,1.895-1.139c0.552-0.516,0.996-1.104,1.344-1.787h-6.813c-0.66,0-0.972,0.012-1.415,0.06v-0.924
			c0.407,0.061,0.743,0.084,1.427,0.084h6.441c0.803,0,0.803,0,1.019-0.084L233.615,43.319z"/>
		<path d="M236.644,45.334c-0.3,0-0.527,0.012-0.792,0.048v-0.636c-0.275,0.265-0.383,0.36-0.719,0.624
			c-0.18-0.348-0.18-0.348-0.456-0.611c1.151-0.828,1.847-1.667,2.351-2.843h0.84c0.504,0.936,0.936,1.439,1.847,2.111
			c-0.192,0.203-0.275,0.348-0.432,0.647c-0.899-0.804-1.259-1.224-1.799-2.147c-0.468,0.912-0.888,1.476-1.583,2.171
			c0.203,0.024,0.455,0.036,0.756,0.036h1.475c0.348,0,0.576-0.012,0.791-0.048v0.695c-0.251-0.036-0.443-0.048-0.803-0.048h-0.372
			v1.319h0.504c0.468,0,0.792-0.012,1.079-0.06v0.755c-0.312-0.048-0.6-0.06-1.079-0.06h-0.504v3.358
			c0.563-0.18,0.864-0.288,1.691-0.624l0.024,0.684c-1.141,0.468-2.195,0.815-3.683,1.247c-0.3,0.084-0.407,0.12-0.768,0.24
			l-0.204-0.827c0.468-0.024,0.912-0.12,2.243-0.516v-3.563h-0.983c-0.492,0-0.779,0.012-1.115,0.06v-0.755
			c0.299,0.036,0.635,0.06,1.127,0.06h0.972v-1.319H236.644z M235.84,50.647c-0.131-0.947-0.264-1.523-0.575-2.471l0.6-0.204
			c0.276,0.804,0.432,1.392,0.612,2.435L235.84,50.647z M238.215,49.88c0.288-0.756,0.42-1.26,0.527-2.063l0.612,0.24
			c-0.204,0.924-0.312,1.26-0.601,2.039L238.215,49.88z M240.686,44.687c-0.264,0.743-0.408,1.079-0.756,1.703
			c-0.24-0.216-0.383-0.312-0.635-0.42c0.563-0.863,0.936-1.787,1.139-2.878c0.061-0.288,0.084-0.48,0.084-0.72l0.744,0.168
			c-0.072,0.287-0.072,0.312-0.145,0.636c-0.072,0.323-0.119,0.551-0.216,0.852h1.224c0-0.336,0-0.48,0-0.696
			c0-0.959-0.012-1.235-0.061-1.583h0.84c-0.061,0.336-0.061,0.336-0.072,2.279h1.14c0.624,0,0.948-0.024,1.235-0.072v0.804
			c-0.348-0.048-0.815-0.072-1.211-0.072h-1.176c-0.036,1.104-0.072,1.619-0.145,2.23h1.548c0.528,0,0.96-0.023,1.247-0.071v0.815
			c-0.396-0.048-0.803-0.072-1.235-0.072h-1.438c0.203,0.72,0.516,1.403,0.911,2.015c0.563,0.864,1.212,1.476,2.219,2.075
			c-0.265,0.252-0.36,0.396-0.528,0.708c-1.559-1.104-2.471-2.339-3.021-4.078c-0.564,1.859-1.451,2.986-3.179,4.065
			c-0.144-0.275-0.3-0.455-0.552-0.659c0.924-0.479,1.487-0.912,2.003-1.547c0.588-0.708,0.948-1.5,1.188-2.579h-0.923
			c-0.492,0-0.9,0.024-1.212,0.072v-0.815c0.3,0.048,0.72,0.071,1.199,0.071h1.044c0.084-0.563,0.119-1.199,0.155-2.23H240.686z"/>
		<path d="M246.833,46.401c0.288,0.048,0.456,0.061,0.911,0.061h0.624c0.348,0,0.624-0.013,0.899-0.061
			c-0.036,0.372-0.049,0.684-0.049,1.247v2.315c0.229,0.527,0.612,0.875,1.2,1.127c0.54,0.229,1.427,0.312,3.142,0.312
			c1.584,0,3.083-0.083,4.162-0.239c-0.156,0.312-0.228,0.552-0.287,0.875c-1.236,0.049-3.035,0.084-4.055,0.084
			c-1.822,0-2.639-0.107-3.322-0.432c-0.516-0.239-0.827-0.516-1.247-1.115c-0.491,0.516-0.72,0.72-1.56,1.392
			c-0.084,0.06-0.155,0.12-0.275,0.239l-0.408-0.791c0.492-0.216,1.199-0.744,1.908-1.428v-2.866h-0.78
			c-0.396,0-0.575,0.012-0.863,0.061V46.401z M247.457,41.952c0.803,0.756,1.295,1.308,1.906,2.11l-0.6,0.528
			c-0.6-0.899-1.115-1.487-1.859-2.147L247.457,41.952z M252.146,43.008c-0.192-0.336-0.469-0.708-0.84-1.14l0.647-0.288
			c0.372,0.468,0.575,0.768,0.983,1.428h1.283c0.384-0.468,0.684-0.936,0.924-1.439l0.707,0.264
			c-0.312,0.504-0.563,0.852-0.84,1.176h1.104c0.576,0,0.912-0.024,1.188-0.072v0.779c-0.396-0.048-0.756-0.06-1.188-0.06h-2.23
			c-0.144,0.396-0.252,0.611-0.455,0.995h1.93c0.576,0,0.924-0.012,1.152-0.048c-0.036,0.372-0.049,0.743-0.049,1.211v3.263
			c0,0.479,0.013,0.888,0.049,1.235c-0.24-0.024-0.54-0.036-0.888-0.036h-3.813c-0.408,0-0.864,0.012-1.176,0.036
			c0.023-0.36,0.036-0.756,0.036-1.163v-3.37c0-0.42-0.024-0.899-0.06-1.176c0.275,0.036,0.659,0.048,1.259,0.048h0.804
			c0.203-0.372,0.336-0.659,0.455-0.995h-2.015c-0.575,0-0.839,0.012-1.211,0.048v-0.768c0.264,0.048,0.611,0.072,1.224,0.072
			H252.146z M251.366,49.64h4.378v-1.104h-4.378V49.64z M251.379,46.281h4.365v-1.007h-4.365V46.281z M251.379,47.925h4.365v-1.031
			h-4.365V47.925z"/>
	</g>
	<g clip-path="url(#SVGID_2_)">
		<path d="M92.166,109.691c-0.592,1.569-1.473,3.474-2,4.354c-0.256,0.416-0.256,0.432-0.336,0.576l-0.913-0.849
			c0.864-0.929,1.665-2.513,2.417-4.69L92.166,109.691z M89.653,104.409c0.993,0.641,1.649,1.153,2.593,2.033l-0.688,0.816
			c-0.849-0.912-1.553-1.505-2.562-2.161L89.653,104.409z M90.326,100.536c1.04,0.736,1.633,1.232,2.433,2.064l-0.673,0.784
			c-0.832-0.944-1.376-1.424-2.449-2.192L90.326,100.536z M98.232,106.891h2.881c0.721,0,1.153-0.016,1.602-0.064
			c-0.049,0.337-0.064,0.769-0.064,1.505v5.187c0,0.848-0.336,1.072-1.601,1.072c-0.399,0-0.976-0.032-1.376-0.064
			c-0.032-0.384-0.08-0.56-0.225-1.008c0.608,0.08,1.137,0.128,1.648,0.128c0.433,0,0.576-0.08,0.576-0.336v-5.57h-3.441v3.681
			h1.329v-1.393c0-0.544-0.017-0.928-0.063-1.28h1.023c-0.064,0.368-0.08,0.656-0.08,1.28v1.585c0,0.641,0,0.881,0.032,1.137h-0.912
			v-0.513H96.04v0.977h-0.96c0.063-0.4,0.08-0.784,0.08-1.248v-1.938c0-0.576-0.017-0.912-0.08-1.313h1.023
			c-0.047,0.4-0.063,0.705-0.063,1.313v1.393h1.296v-3.681h-3.281v5.41c0,0.72,0.032,1.216,0.097,1.712h-1.169
			c0.064-0.512,0.096-1.04,0.096-1.744v-4.866c0-0.624-0.016-1.024-0.047-1.408c0.336,0.032,0.72,0.048,1.279,0.048h3.025v-1.408
			h-3.185c-0.673,0-1.249,0.031-1.649,0.096v-1.04c0.4,0.063,0.929,0.096,1.633,0.096h1.232v-1.793h-0.783
			c-0.576,0-1.025,0.017-1.521,0.08v-1.057c0.416,0.064,0.896,0.097,1.537,0.097h0.768v-0.337c0-0.512-0.031-0.96-0.096-1.264h1.121
			c-0.049,0.319-0.08,0.768-0.08,1.264v0.337h3.089v-0.337c0-0.479-0.032-0.912-0.08-1.264h1.12
			c-0.063,0.271-0.096,0.736-0.096,1.264v0.337h1.041c0.64,0,1.152-0.032,1.553-0.097v1.057c-0.4-0.048-0.977-0.08-1.521-0.08
			h-1.072v1.793h1.521c0.864,0,1.296-0.017,1.665-0.096v1.04c-0.353-0.064-0.992-0.096-1.682-0.096h-3.617V106.891z M99.401,104.634
			v-1.793h-3.089v1.793H99.401z"/>
		<path d="M107.029,104.409c-0.256,1.938-0.576,3.17-1.184,4.515l-0.929-0.368c0.4-0.801,0.544-1.169,0.769-1.969
			c0.225-0.849,0.32-1.329,0.416-2.386L107.029,104.409z M109.078,105.69c0,4.241-0.912,6.963-3.024,9.075
			c-0.257-0.304-0.544-0.561-0.864-0.769c0.944-0.848,1.536-1.712,2.033-2.944c0.527-1.329,0.848-3.378,0.848-5.442v-3.634
			c0-0.688-0.032-1.2-0.096-1.568h1.2c-0.063,0.352-0.097,0.768-0.097,1.568V105.69z M110.567,104.266
			c0.576,1.393,0.8,2.129,1.169,3.873l-0.929,0.4c-0.24-1.601-0.497-2.577-1.057-3.97L110.567,104.266z M113.673,100.856
			c-0.08,0.448-0.097,0.752-0.097,1.568v9.428c0,0.944,0.032,1.408,0.097,1.856h-1.2c0.063-0.448,0.096-0.992,0.096-1.904v-9.364
			c0-0.784-0.016-1.168-0.096-1.584H113.673z M114.938,104.186c0.72,1.328,1.023,2.017,1.616,3.649l-0.849,0.528
			c-0.48-1.601-0.848-2.513-1.553-3.825L114.938,104.186z M118.395,100.376c-0.064,0.512-0.096,0.977-0.096,1.776v10.484
			c0,1.024,0.016,1.521,0.096,2.033h-1.201c0.064-0.528,0.097-1.024,0.097-2.049v-10.484c0-0.881-0.017-1.313-0.097-1.761H118.395z"
			/>
	</g>
	<g clip-path="url(#SVGID_2_)">
		<path d="M24.256,173.998c1.041,0.625,1.729,1.137,2.721,2.002l-0.64,0.896c-0.977-0.977-1.616-1.49-2.689-2.146L24.256,173.998z
			 M27.041,179.281c-0.736,1.889-1.104,2.656-2.177,4.498c-0.063,0.111-0.128,0.24-0.224,0.432l-0.93-0.832
			c0.833-0.881,1.697-2.529,2.481-4.723L27.041,179.281z M24.96,170.173c1.073,0.719,1.729,1.248,2.546,2.064l-0.673,0.816
			c-0.769-0.865-1.44-1.457-2.529-2.178L24.96,170.173z M29.441,172.044c-0.72,0-1.104,0.018-1.52,0.08v-1.008
			c0.464,0.064,0.896,0.096,1.52,0.096h2.705c0-0.623-0.016-0.848-0.096-1.297h1.121c-0.08,0.434-0.097,0.641-0.097,1.297h3.089
			c0.673,0,1.089-0.031,1.569-0.096v1.008c-0.433-0.063-0.816-0.08-1.569-0.08h-3.089v1.074h2.529c0.736,0,1.104-0.018,1.536-0.08
			v0.975c-0.464-0.063-0.863-0.08-1.52-0.08h-2.546v1.154h3.394c0.752,0,1.201-0.033,1.633-0.098v1.041
			c-0.465-0.08-0.881-0.096-1.633-0.096h-7.283c-0.768,0-1.217,0.031-1.696,0.096v-1.041c0.433,0.064,0.88,0.098,1.696,0.098h2.961
			v-1.154h-2.385c-0.656,0-1.057,0.018-1.521,0.08v-0.975c0.433,0.063,0.833,0.08,1.521,0.08h2.385v-1.074H29.441z M29.746,182.626
			c0,0.848,0.032,1.359,0.096,1.744h-1.152c0.064-0.449,0.08-0.912,0.08-1.744v-4.402c0-0.785,0-0.992-0.048-1.441
			c0.528,0.049,0.912,0.064,1.585,0.064h4.93c0.784,0,1.168-0.016,1.473-0.08c-0.049,0.4-0.064,0.912-0.064,1.713v4.514
			c0,0.961-0.32,1.232-1.44,1.232c-0.448,0-1.009-0.016-1.665-0.064c-0.063-0.383-0.127-0.607-0.304-0.977
			c0.736,0.129,1.297,0.178,1.825,0.178c0.512,0,0.607-0.08,0.607-0.434v-1.313h-5.922V182.626z M35.668,178.785v-1.121h-5.922
			v1.121H35.668z M35.668,180.8v-1.199h-5.922v1.199H35.668z"/>
	</g>
	<g clip-path="url(#SVGID_2_)">
		<path d="M151.844,212.794c0.476,1.793,1.218,3.264,2.283,4.51c1.021,1.191,2.199,2.045,3.795,2.732
			c-0.279,0.336-0.392,0.49-0.615,0.938c-3.139-1.666-4.875-3.711-5.884-6.92c-0.378,2.045-1.303,3.74-2.731,5.029
			c-0.883,0.785-1.652,1.275-3.025,1.904c-0.196-0.391-0.309-0.545-0.603-0.854c1.751-0.715,2.773-1.4,3.685-2.451
			c1.092-1.262,1.68-2.746,1.946-4.889h-3.81c-0.742,0-1.135,0.027-1.541,0.098V211.8c0.364,0.07,0.826,0.098,1.568,0.098h3.866
			c0.042-0.672,0.056-1.107,0.056-1.652c0-0.645-0.041-1.15-0.098-1.527h1.148c-0.07,0.463-0.098,0.77-0.098,1.457
			c-0.014,0.713-0.027,1.119-0.07,1.723h4.244c0.715,0,1.178-0.027,1.555-0.098v1.092c-0.447-0.07-0.84-0.098-1.54-0.098H151.844z"
			/>
		<path d="M164.526,218.929c-0.378-0.057-0.729-0.07-1.261-0.07h-0.729v0.883c0,0.672,0.014,0.994,0.084,1.443h-0.98
			c0.07-0.463,0.084-0.813,0.084-1.443v-0.883h-1.135c-0.588,0-0.896,0.014-1.303,0.084v-0.896c0.379,0.057,0.729,0.07,1.317,0.07
			h1.12v-1.373h-0.588c-0.588,0-0.896,0.016-1.289,0.043c0.042-0.449,0.057-0.785,0.057-1.387v-1.961
			c0-0.604-0.015-0.953-0.057-1.416c0.309,0.043,0.672,0.057,1.289,0.057h0.588v-1.303h-1.064c-0.588,0-0.896,0.014-1.303,0.07
			v-0.896c0.393,0.07,0.687,0.084,1.303,0.084h1.064v-0.182c0-0.561-0.014-0.896-0.084-1.346h0.98
			c-0.07,0.436-0.084,0.742-0.084,1.346v0.182h0.771c0.589,0,0.896-0.014,1.274-0.084v0.896c-0.406-0.057-0.7-0.07-1.26-0.07h-0.785
			v1.303h0.448c0.799,0,1.022,0,1.345-0.041c-0.027,0.391-0.042,0.783-0.042,1.387v1.961c0,0.629,0.015,1.008,0.042,1.387
			c-0.406-0.029-0.561-0.029-1.33-0.029h-0.463v1.373h0.729c0.574,0,0.896-0.014,1.275-0.07v0.645
			c0.209,0.029,0.266,0.043,0.728,0.057v-0.826c0-0.658-0.014-0.869-0.042-1.162c0.28,0.027,0.463,0.027,1.275,0.027h1.918v-1.023
			h-1.849c-0.742,0-0.952,0-1.261,0.043c0.028-0.322,0.028-0.365,0.028-0.869v-0.967c0-0.49,0-0.561-0.028-0.883
			c0.336,0.043,0.617,0.057,1.261,0.057h3.138c0.645,0,0.967-0.014,1.303-0.057c-0.042,0.322-0.056,0.52-0.056,0.939v0.91
			c0,0.393,0.014,0.561,0.056,0.869c-0.49-0.043-0.729-0.043-1.303-0.043h-0.477v1.023h0.715c0.645,0,0.953-0.014,1.303-0.057v0.813
			c-0.406-0.041-0.687-0.057-1.303-0.057h-0.715v1.262h1.148c0.688,0,1.107-0.027,1.43-0.084v0.869
			c-0.406-0.057-0.813-0.07-1.443-0.07h-1.135v0.35c0,0.658,0.028,1.023,0.084,1.373h-0.98c0.07-0.42,0.084-0.742,0.084-1.387
			v-0.336h-2.591c-0.574,0-0.952,0.014-1.303,0.07V218.929z M160.688,214.041h2.815v-1.273h-2.815V214.041z M160.688,216.058h2.815
			v-1.33h-2.815V216.058z M166.319,211.548c0.196-0.49,0.308-0.813,0.462-1.318h-0.462c-0.476,0-0.714,0.016-1.163,0.057v-0.826
			c0.463,0.07,0.757,0.084,1.233,0.084h0.574c0.112-0.547,0.153-0.785,0.168-1.176l0.938,0.068
			c-0.057,0.197-0.057,0.197-0.182,0.744c-0.028,0.098-0.028,0.111-0.099,0.363h1.331c0.715,0,1.036-0.014,1.387-0.057
			c-0.042,0.393-0.057,0.715-0.057,1.262v0.799c0.715,0,0.883-0.016,1.289-0.084v0.84c-0.406-0.057-0.771-0.07-1.316-0.07h-4.525
			c-0.602,0-0.896,0.014-1.302,0.07v-0.84c0.405,0.068,0.644,0.084,1.247,0.084H166.319z M168.42,218.748v-1.262h-2.353v1.262
			H168.42z M166.151,215.091h3.978v-1.26h-3.978V215.091z M169.653,211.548v-1.318h-2.046c-0.182,0.604-0.209,0.701-0.447,1.318
			H169.653z"/>
		<path d="M178.863,213.578h-4.482v1.947h-0.939c0.043-0.293,0.057-0.545,0.057-0.951v-0.813c0-0.42-0.014-0.701-0.057-1.01
			c0.322,0.043,0.785,0.057,1.514,0.057h2.227c-0.238-0.742-0.49-1.33-0.953-2.172h-1.05c-0.546,0-0.952,0.016-1.387,0.07v-0.938
			c0.392,0.055,0.841,0.084,1.442,0.084h3.643v-0.504c0-0.379-0.028-0.645-0.084-0.953h1.051c-0.057,0.322-0.084,0.574-0.084,0.938
			v0.52h3.949c0.603,0,1.037-0.029,1.443-0.084v0.938c-0.449-0.055-0.841-0.07-1.387-0.07h-1.163
			c-0.392,0.967-0.658,1.5-1.079,2.172h2.508c0.658,0,0.994-0.014,1.387-0.057c-0.042,0.336-0.056,0.574-0.056,1.051v0.826
			c0,0.393,0.014,0.645,0.056,0.926h-0.938v-1.977h-4.706v1.752h2.787c0.645,0,1.051-0.014,1.33-0.057
			c-0.041,0.309-0.055,0.715-0.055,1.219v2.354c0,0.785-0.295,1.008-1.346,1.008c-0.378,0-0.84-0.014-1.373-0.055
			c-0.041-0.336-0.098-0.533-0.209-0.855c0.574,0.084,1.12,0.141,1.498,0.141c0.448,0,0.561-0.07,0.561-0.35v-2.635h-3.193v3.713
			c0,0.547,0.027,0.924,0.098,1.443h-1.106c0.069-0.547,0.099-0.953,0.099-1.443v-3.713h-2.9v2.48c0,0.658,0.014,1.008,0.07,1.4
			h-1.022c0.042-0.477,0.069-0.896,0.069-1.387v-2.072c0-0.477-0.014-0.729-0.056-1.248c0.392,0.043,0.798,0.057,1.358,0.057h2.48
			V213.578z M180.613,212.808c0.448-0.715,0.757-1.359,1.037-2.172h-4.482c0.504,1.01,0.686,1.443,0.924,2.172H180.613z"/>
		<path d="M187.666,210.736c0-0.674-0.028-1.164-0.084-1.725c0.462,0.057,0.883,0.07,1.639,0.07h8.377
			c0.742,0,1.148-0.014,1.666-0.07c-0.056,0.52-0.084,0.996-0.084,1.725v8.529c0,1.023,0.028,1.541,0.084,1.92h-0.98v-0.855h-9.721
			v0.855h-0.98c0.056-0.379,0.084-0.883,0.084-1.92V210.736z M188.563,219.533h9.721v-9.652h-9.721V219.533z M190.957,211.955
			c-0.602,0-0.938,0.014-1.316,0.068v-0.896c0.393,0.07,0.701,0.084,1.316,0.084h4.945c0.631,0,1.008-0.027,1.373-0.084v0.896
			c-0.393-0.055-0.729-0.068-1.359-0.068h-2.156v2.17h1.723c0.63,0,0.91-0.014,1.26-0.07v0.883c-0.35-0.057-0.672-0.07-1.26-0.07
			h-1.723v2.564h2.353c0.574,0,0.98-0.029,1.372-0.084v0.924c-0.405-0.057-0.826-0.084-1.372-0.084h-5.337
			c-0.574,0-0.967,0.027-1.387,0.084v-0.924c0.393,0.055,0.799,0.084,1.387,0.084h2.115v-2.564h-1.499
			c-0.588,0-0.925,0.014-1.274,0.07v-0.883c0.35,0.057,0.631,0.07,1.274,0.07h1.499v-2.17H190.957z M195.454,215.119
			c0.574,0.574,0.798,0.883,1.316,1.668l-0.658,0.42c-0.49-0.854-0.714-1.162-1.247-1.736L195.454,215.119z"/>
	</g>
	<path clip-path="url(#SVGID_2_)" fill="none" stroke="#000000" d="M99.495,253.9c-0.25-1.375-2-8.125-3.5-10.375
		s-7.625-3.75-7.625-3.75s-0.25,1.25-0.25-0.625s-1.5-1.25,0.5-3.375s10.5-9.5,11.25-10.875s3.625-4.5,6.125-4.875
		s4.25-0.875,5.25-2s1.5-2.375,2.375-2.375s3,2.875,4.5,2.375s0.5-2.625,1.375-3.875s1.625-0.75,1.125-2.125s-2.5-2-3.875-1.875
		s-7.125,2-8.125,0.875s-1.25-2-2.75-3.125s-6.375-1.5-7.75-1.125s-8,6-9.875,5.625s-2.625-0.5-2.875-2.375s-2-3.375-2-5
		s-2.125-2-3.5-2.375s-2.375,4.75-3,3.375s0.375-2.125-1.375-3.25s-0.875-1.5-1.625-3s-4.625,0-4.625-1.5s0.375-2.75,1.375-3.75
		s0.75-4,3-4s2.375,2.5,4,1.75s3.625-1.75,5.25-2.125s4.5-3,4.5-4.625s3.875-6.125,5.75-7.375s7.75-6,9.875-6.625
		s5.5-3.125,7.25-3.25s1.5,1.25,3.125,1.125s2.625,2,2.125,3.875s-3.75,3.25-4,4.875s-0.5,7.75-0.875,9.25s-4.5,7.75-3.125,7.125
		s6.75-5.125,9.5-5.875s10-5.75,11.625-6.125s9.375,0.25,10.875,0.375s2.75-1,4.25-0.125s3.375,1.875,4.625,2.375
		s2,3.625,1.125,4.875s-0.25,6.75-1.875,7s-1.25-0.375-2.625,1s-2.75,3.5-1.875,4s3-0.25,2.75,1.125s-2.125,3.125-0.375,3.125
		s2.25,2.625,3,2.125s1.75-3,3.125-2.5s3.125,2.875,4.25,2.625s2.625-2,3.625,0s1,1.625,1.75,3.75s1.375,5.5,0.5,5.5
		s-3.25-1.125-4.375-0.5s-2.25,3.25-1,3.875s4.5,0.75,3.875,1.875s-2,5.5-1.25,6.375s2,1.75,0.875,2.75s-2.5,4.25-1.875,6.125
		s1.125,5.75,1.5,6.875s2.75,1.25,4,1.375s1.875-1,3-1s4.375,0.5,4.75-0.75s0-2.125,0.875-2.25s5.5,0.25,6.75-0.875
		s0.5-2.375,2.375-2.875s3.125-0.875,4.5-1.25s2.125-0.875,2.125-3s-0.25-3.125,0.875-4.75s0-8.75,0-10.875s1-2.625,0.375-3.75
		s-5.25-7.375-6.625-8.5s-4.625-4.875-4.75-6.625s-6.125-6.375-6.5-8s-2.75-2.875-1.75-3.875s2.25-1.25,2.375-2.875
		s7.375-7.25,8.625-8.125s5.375-5.5,7.125-6s4-0.125,4.25-1.25s0.75-1.625,0.75-3.75s-1.125-5.75-0.375-7s4.875-5,5.875-5.25
		s2.875-1.125,2.875-2.625s0.875-1.25,1.5-2s0.125-1.875,1.125-2s3.5,2.875,4.5,1.5s1.375-4.25,2.5-5.125s2.75-1.875,4.625-1.625
		s1.75,2.75,2.875,3.25s6.625,4.625,8.625,3.625s3.125-4.5,5.25-5s8.125-2.125,9.125-3s4.625-5.5,7.625-6.125s8.125-4.75,10-7.5
		c1.875-2.75,1.875-5.625,2.5-6.25s3.5-5,5.5-6s14.75-20.25,16.25-22.375s7.375-5.375,7.875-7.375s-0.5-3.375,0.75-4.375
		s3.625-8.25,5-8.625s5.875-8.5,6.25-11.625s0.125-24.375,1.5-25.875s3.375-3.5,4.5-4s2.125,0.625,2.875-1.875s1.75-0.75,0.875-3
		s-2.25-3-2.375-4.125s-0.375-8.125-0.875-9.5s-3-1.75-3.375-4.25s-4-3-4-5s-4-3.125-4.75-4.75s-4.375-0.5-5.625-0.25
		s-1.375-1.75-3.25-1.5s-4,0.125-5.125,1.375s-1.375,7.75-2,6.75s-0.375-3-2-3.125s-2.125-0.125-3,1.25s-1.375,2-3.125,2.25
		s-6.375,1.5-5.625,0s2.75-2.5,2.75-4.25s0.5-4-1.25-3.875s-5.125-0.25-5.25,0.875s-0.5,2.375-1.375,2.25s-3.25,1.75-2.875-1.25
		s1.5-3.75,0.75-4.5"/>
	<path clip-path="url(#SVGID_2_)" fill="none" stroke="#000000" d="M272.995-6.1c-1.191,0.397-3.5,1.375-4.125-0.5
		s-1.375-4.375-0.5-5.125s3.625-0.375,3.875,0.375S273.745-6.35,272.995-6.1z"/>
	<path clip-path="url(#SVGID_2_)" fill="none" stroke="#000000" d="M264.995-8.475c-0.309,0.247-1.75,0-2.375-0.625
		s-0.625-1.75,1.375-1.375S265.62-8.975,264.995-8.475z"/>
	<path clip-path="url(#SVGID_2_)" fill="none" stroke="#000000" d="M295.454,175.65c-0.75,0.418-1.75,0.084-2,0.668
		c-0.25,0.582-0.834,1.582,0,1.916s2.583,0.334,2.5,1s-1.082,3.416-1.666,4.834c-0.584,1.416-0.834,4.998-1.667,5.582
		s-4.334,8.25-4.417,9.834s-0.334,3.832-1.25,4.916s-3.167,3.25-4.417,4.584s-3.332,3.668-4.916,4.084s-3.666,1.166-4.25,1.832
		c-0.584,0.668-1.916,2.418-3.5,2.75c-1.584,0.334-4.084,1.084-4.667,0.084s-0.667-1.668,0.333-2.25
		c1-0.584-0.166-2.166,0.084-2.834c0.25-0.666,0.75-1.082,1.5-1.25c0.75-0.166,2.75-0.916,2.75-1.666s-4.668-0.75-5.334-0.166
		c-0.666,0.582-3,2.998-2.583,3.916c0.417,0.916,1.417,1.5,0.5,2.334c-0.917,0.832-1.917,3.916-2.667,5.416s-2.667,3.084-2.75,4.334
		s0.5,4-0.5,4.582c-1,0.584-2.834,0.416-4.25,0.834c-1.416,0.416-2.166,1.25-2.833,0.584c-0.667-0.668-0.334-2.918-1.417-2.834
		s-5,0.666-5.833,0.666s-1.917-0.582-3-0.332s-1.916,1.166-4.666,0.832c-2.75-0.332-5.583,0.252-6.5-0.332s-0.917-1.834-2.167-1.25
		c-1.25,0.582-4.166,2-6.083,4s-5.666,6.5-6.75,7s-0.334,0.332-1.667,0.916s-1.251,1.584-2.667,1.584s-1.333-0.75-2.333,0.082
		c-1,0.834-1.834,1.752-1.917,2.418s0.834,1.582,0.167,2.332s-1.25,4.334-0.25,4.418c1,0.082,3.667,0.5,4.417-0.168
		c0.75-0.666,1.917-2.166,3-1.832c1.083,0.332,2.333,1.584,3.833,1.25s1.334-2.5,2.167-3.418c0.833-0.916,2.75,0.75,3.833,0.75
		s2.916-1.416,4.333-1.416s4.334,0.166,6.084-0.5s3.083,0.832,3.833-0.75c0.75-1.584,0.834-3.416,4.167-3.334
		c3.333,0.084,3.082-0.416,4.166,0.584s0.834,1.5,2.167,1.5s2.584-0.916,2.167,0.916c-0.417,1.834-0.834,2.668-1.417,3
		c-0.583,0.334-0.667,1.75-0.417,2.584s1.417,2.582,2.167,3.25c0.75,0.666,0.166,3.582,1.583,3.5
		c1.417-0.084,5.166-0.832,5.75-1.166s2.168-2.752,2.334-4.084c0.166-1.334,2.333-4.75,3.333-4.75s1.834,0.334,1.667-0.916
		s-2.418-2.25-2.334-3s0.167-4.252,0.667-5.084c0.5-0.834,1.833-0.416,1.833-0.084c0,0.334,0.168,3.168,1.584,3.75
		c1.416,0.584,0.833-0.75,0.583-1.666s-0.833-1.75,0.167-1.334c1,0.418,4.25,1.918,3.333,2.418s-2.917,1.5-1.25,1.832
		c1.667,0.334,4.917,0.166,5.25,0.334c0.333,0.166,2.833,0.084,3.333-0.084c0.5-0.166,3.418,0.752,4.084-0.082
		s-0.167-1.918,0.583-3.668s1.084-2.916,1.667-3.332c0.583-0.418,2.333-0.334,2.083,0.666s-1.25,2.084-0.75,3.166
		c0.5,1.084,0.667,2.834,1.667,2.584s2.082-1.084,1.666-2.084s0.501-1.416,0.667-2.582c0.166-1.168,0.25-1.916,1.083-1.75
		s2,1.582,2.5,1.416s-0.167-1.082-0.167-1.416s1.168-1.75,1.834-2s2-0.418,1.833,0.416s-0.083,3.334-0.75,3.916
		c-0.667,0.584-1.083,3.334-0.333,3.168"/>
	<path clip-path="url(#SVGID_2_)" fill="none" stroke="#000000" d="M237.933,259.587c-1.256-0.139-2.188-1.438-3.063-1.625
		s-2.313,0.563-3,1s-2.313,0.375-2.813,1s-0.875,3.813-1.688,4.688s-0.688,2.438-1.563,2.25s-5.188-3.25-5.25-4.375
		s0.813-2.063,0.813-3.438s-0.813-1.875-1.5-2.063s-2.125,0.063-1.813-0.625s3.313-2.5,4.063-3.938s2.375-2.438,3.125-2.625
		s0.938,0.625,1.875,0.688s5.25,0.563,6-0.188s0.938-1.688,2.063-2s1.688,0.688,3.125,1.25s1.625,0.25,3.063,0.688
		s1.875,2.063,1.438,2.375s-0.625,2.563-1.125,3S238.495,259.65,237.933,259.587z"/>
	<path clip-path="url(#SVGID_2_)" fill="none" stroke="#000000" d="M189.745,242.025c-0.496-0.197-1.313,0.438-1.438,1.188
		s-0.313,3.188,0,2.938S190.058,242.15,189.745,242.025z"/>
	<path clip-path="url(#SVGID_2_)" fill="none" stroke="#000000" d="M187.62,249.087c-0.442,0-0.5-1.438,0.188-1.625
		S188.183,249.087,187.62,249.087z"/>
	<path clip-path="url(#SVGID_2_)" fill="none" stroke="#000000" d="M280.37,198.712c-0.991,0.396-1.688,1.188-1.688,2.125
		s-0.375,2.188,0.125,1.875s0.813-0.563,0.813,0s-0.375,2.125,0.063,2.063s2.625-2.125,2.313-3.25s-1.313-0.5-1.438-1
		S280.995,198.462,280.37,198.712z"/>
	<path clip-path="url(#SVGID_2_)" fill="none" stroke="#000000" stroke-width="0.5" stroke-dasharray="2,2" d="M137.568,182.75
		c2.143-3.852,4.476-7.914,5.552-9.35c2.25-3,7.25-6.75,10.25-7.25s2.75-6,6-7s9.25,2.75,13,3s4.5-10.5,7-10.25s8-1.5,10-4.5
		s3.25-6.5,6.75-6s4.25-3.75,5.75-5s4.75-8.75,4.75-13s2.25-9.25,4.5-10s4,2.25,9.75,3.5s4-4.5,7-7.25s4.25-5.75,4.25-8.25
		s2-6,4.25-7.75s1-6.75,1-8.75s3.25-5,5.75-6s-0.25-6.5-3.5-7.25s-8.75,1.75-12.5,4.25s-14.25,5.75-16.75,6.5s-7-2-8.25-3.75
		s-0.25-7.25-2-9.5s-9.75-9.5-12.5-10.25s-2.5,0.75-4.5,0.75s-2.5-4-5.75-3.5s-5,0.75-8.75-0.25s-5.25-11.25-5.5-14s-2.5-2-4-4
		s-4.75-18.5-5-20.25s-2.5-3-6.25-3.75s-9.5-4.75-11.75-4.75s-12-1-14.75-0.25s-7.25-2.25-8.5-1.25s-13.25,2-15,3
		s-2.75,5.75-4.25,8.25s4-2,4.5,0.5s1,5.25,0.75,7s-4.5,1.75-6.5,3s-1.25,6-1.25,9s-2.75,2.75-1.75,5.75s0.25,6-2.75,6
		s-10.5,4.25-14,5c-3.441,0.737-8.092-0.459-11.099-0.5l-0.124-0.002c-1.714-1.885-3.555-3.653-5.277-3.998
		c-2.5-0.5-4.25,4-6.25,2.5s-2-4.25-4.5-4.75s-3.25,2.5-5.5,1s-5.25-2-7.75,0s-3.75,8-8.5,8s-23.25,8.5-25.5,7.5s-6-3.75-8.25-4"/>
	<path clip-path="url(#SVGID_2_)" fill="none" stroke="#000000" stroke-width="0.5" stroke-dasharray="2,2" d="M199.644,153.244
		c-1.313-2.619-2.023-5.063-2.023-7.594c0-0.904-0.022-2.453-0.059-4.332"/>
	<path clip-path="url(#SVGID_2_)" fill="none" stroke="#000000" stroke-width="0.5" stroke-dasharray="2,2" d="M273.029,107.144
		c0,0-3.243-4.243-5.576-3.076s-3.333,3.5-3.333,5.167c0,0-1.001,1.607-2.667,2.803c-1.666,1.197-4.333-1.137-8.833,0.529
		c-4.5,1.668-10.726,4.334-8.529-3.499S232.12,101.4,232.12,101.4"/>
	<path clip-path="url(#SVGID_2_)" fill="none" stroke="#000000" stroke-width="0.5" stroke-dasharray="2,2" d="M137.568,182.75
		c2.143-3.852,4.476-7.914,5.552-9.35c2.25-3,7.25-6.75,10.25-7.25s2.75-6,6-7s9.25,2.75,13,3s4.5-10.5,7-10.25s8-1.5,10-4.5
		s3.25-6.5,6.75-6s4.25-3.75,5.75-5s4.75-8.75,4.75-13s2.25-9.25,4.5-10s4,2.25,9.75,3.5s4-4.5,7-7.25s4.25-5.75,4.25-8.25
		s2-6,4.25-7.75s1-6.75,1-8.75s3.25-5,5.75-6s-0.25-6.5-3.5-7.25s-8.75,1.75-12.5,4.25s-14.25,5.75-16.75,6.5s-7-2-8.25-3.75
		s-0.25-7.25-2-9.5s-9.75-9.5-12.5-10.25s-2.5,0.75-4.5,0.75s-2.5-4-5.75-3.5s-5,0.75-8.75-0.25s-5.25-11.25-5.5-14s-2.5-2-4-4
		s-4.75-18.5-5-20.25s-2.5-3-6.25-3.75s-9.5-4.75-11.75-4.75s-12-1-14.75-0.25s-7.25-2.25-8.5-1.25s-13.25,2-15,3
		s-2.75,5.75-4.25,8.25s4-2,4.5,0.5s1,5.25,0.75,7s-4.5,1.75-6.5,3s-1.25,6-1.25,9s-2.75,2.75-1.75,5.75s0.25,6-2.75,6
		s-10.5,4.25-14,5c-3.441,0.737-8.092-0.459-11.099-0.5l-0.124-0.002c-1.714-1.885-3.555-3.653-5.277-3.998
		c-0.625-0.125-1.203,0.063-1.75,0.391c0,0-12.5,23.109-7.5,22.859s12,2,12,2s24.031-5.816,22.625,20.689
		c-0.626,11.797-1.679,17.587-1.679,17.587S61.62,131.15,57.12,130.65s-8.75-1.916-8.75-1.916l-2.25,1v24.168
		c0,0,26,9.748,28.75,18.748c0,0,5.943,5.785,24.597,0.893"/>
	<path clip-path="url(#SVGID_2_)" fill="none" stroke="#000000" stroke-width="2" d="M161.167,92.734c0,0,6.521,1.229,11.146,8.542
		c10.584,16.735,34.53,19.688,34.53,19.688c2.142,0.317,12.587,10.797,12.587,10.797 M109.938,191.28
		c1.604-2.037,10.167-4.5,10.167-4.5L118,170.524l5.543-13.124l20.082-35.685l17.542-28.981L109.938,73.65l-4.387-15.5l-12.25-2.5
		l-22.112,4.5c-0.061-1-15.689-9.807-15.689-9.807l-9.811-16.29"/>
	<path clip-path="url(#SVGID_2_)" fill="none" stroke="#FFFFFF" stroke-width="1.7" stroke-dasharray="6,6" d="M161.167,92.734
		c0,0,6.521,1.229,11.146,8.542c10.584,16.735,34.53,19.688,34.53,19.688c2.142,0.317,12.587,10.797,12.587,10.797 M109.938,191.28
		c1.604-2.037,10.167-4.5,10.167-4.5L118,170.524l5.543-13.124l20.082-35.685l17.542-28.981L109.938,73.65l-4.387-15.5l-12.25-2.5
		l-22.112,4.5c-0.061-1-15.689-9.807-15.689-9.807l-9.811-16.29"/>
	<circle clip-path="url(#SVGID_2_)" stroke="#000000" stroke-width="0.5" cx="120.105" cy="186.78" r="3.438"/>
	<circle clip-path="url(#SVGID_2_)" stroke="#000000" stroke-width="0.5" cx="143.48" cy="121.87" r="3.438"/>
	<circle clip-path="url(#SVGID_2_)" stroke="#000000" stroke-width="0.5" cx="109.372" cy="191.847" r="3.438"/>
	<path clip-path="url(#SVGID_2_)" fill="none" stroke="#000000" stroke-width="2" d="M211.105,143.113
		c0,0,18.349-20.388,29.682-58.545c0,0,15.666-8.667-4.334-18c0,0-50-9.333-50.333-11S166.7,5.922,127.453,3.234
		c-24.333-1.667-31.666,6.666-36.333,9c-4.667,2.333-19.333-3.668-23-0.334s-7.334,21.666-14.667,22s-83.333,0.667-83.333,0.667"/>
	<path clip-path="url(#SVGID_2_)" fill="none" stroke="#FFFFFF" stroke-width="1.7" stroke-dasharray="6,6" d="M211.105,143.113
		c-0.001,0.002,18.35-20.39,29.682-58.545c0,0,15.666-8.667-4.334-18c0,0-50-9.333-50.333-11S166.7,5.922,127.453,3.234
		c-24.333-1.667-31.666,6.666-36.333,9c-4.667,2.333-19.333-3.668-23-0.334s-7.334,21.666-14.667,22s-83.333,0.667-83.333,0.667"/>
	<circle clip-path="url(#SVGID_2_)" stroke="#000000" stroke-width="0.5" cx="211.105" cy="143.113" r="3.438"/>
</g>
</svg>
