<?xml version="1.0" encoding="utf-8"?>
<!-- Generator: Adobe Illustrator 16.0.0, SVG Export Plug-In . SVG Version: 6.00 Build 0)  -->
<!DOCTYPE svg PUBLIC "-//W3C//DTD SVG 1.1//EN" "http://www.w3.org/Graphics/SVG/1.1/DTD/svg11.dtd">
<svg version="1.1" id="レイヤー_1" xmlns="http://www.w3.org/2000/svg" xmlns:xlink="http://www.w3.org/1999/xlink" x="0px"
	 y="0px" width="472.837px" height="221.885px" viewBox="0 0 472.837 221.885" enable-background="new 0 0 472.837 221.885"
	 xml:space="preserve">
<rect x="52.291" y="79.549" opacity="0.5" fill="#FC4C72" stroke="#000000" stroke-miterlimit="10" width="70.181" height="132.25"/>
<g>
	<path d="M79.092,143.256c0.902-0.858,1.584-1.628,2.2-2.552c-0.924-2.333-1.43-5.017-1.584-8.185h-9.616
		c0,3.586-0.176,6.292-0.506,8.207c-0.33,1.936-0.88,3.278-1.958,4.863c-0.462-0.528-0.616-0.66-1.122-1.034
		c0.968-1.232,1.43-2.267,1.76-3.873c0.286-1.386,0.462-3.873,0.462-6.777c0-1.254-0.022-1.914-0.11-2.684
		c0.594,0.088,1.166,0.11,2.222,0.11h8.846c-0.022-0.44-0.022-0.594-0.088-1.056h1.519c-0.088,0.418-0.11,0.638-0.11,1.056h3.037
		c-0.748-0.66-1.32-1.034-2.354-1.518l0.792-0.792c1.122,0.55,1.54,0.814,2.376,1.452l-0.77,0.858c0.968,0,1.562-0.044,2.112-0.132
		v1.452c-0.638-0.088-1.254-0.132-2.2-0.132h-2.993c0.132,2.706,0.462,4.73,1.145,6.777c1.012-1.937,1.628-3.763,1.804-5.391
		l1.364,0.528c-0.176,0.528-0.176,0.528-0.352,1.122c-0.616,2.002-1.32,3.63-2.245,5.193c0.77,1.694,1.826,3.081,2.354,3.081
		c0.022,0,0.066-0.022,0.11-0.022c0.176-0.132,0.242-0.264,0.374-0.858c0.11-0.616,0.22-1.43,0.286-2.333
		c0.44,0.418,0.77,0.66,1.21,0.88c-0.242,1.672-0.44,2.508-0.726,3.103c-0.242,0.506-0.638,0.77-1.078,0.77
		c-1.012,0-2.2-1.21-3.366-3.389c-1.122,1.541-2.002,2.42-3.499,3.587c-0.33-0.418-0.572-0.638-1.056-0.946
		c0.836-0.55,1.144-0.792,1.606-1.232c-0.44-0.022-1.276-0.044-1.892-0.044h-4.422v1.408h-1.364c0.088-0.792,0.11-1.43,0.11-2.266
		v-6.733c0-0.814-0.022-1.298-0.066-1.826c0.484,0.044,0.924,0.066,1.804,0.066h3.895c1.012,0,1.496-0.022,2.046-0.11v1.276
		c-0.638-0.066-1.122-0.088-2.002-0.088h-0.858v1.694h1.056l0.792-0.022l0.33,0.022c0.088,0,0.176-0.022,0.528-0.044
		c-0.044,0.352-0.044,0.506-0.044,0.99v1.628c0,0.374,0,0.506,0.044,1.012c-0.55-0.022-0.726-0.022-1.628-0.022h-1.078v1.892h0.858
		c0.968,0,1.584-0.022,2.046-0.088V143.256z M72.777,127.105c0-0.528-0.022-0.814-0.088-1.254h1.518
		c-0.066,0.44-0.088,0.704-0.088,1.276v0.308h5.083v-0.308c0-0.528-0.022-0.858-0.088-1.276h1.496
		c-0.066,0.44-0.088,0.726-0.088,1.276v0.308h3.696c0.946,0,1.628-0.044,2.245-0.132v1.452c-0.66-0.088-1.32-0.132-2.245-0.132
		h-3.696c0,0.55,0.022,0.792,0.088,1.21h-1.496c0.066-0.418,0.066-0.638,0.088-1.21h-5.083v0.462c0,0.572,0.022,0.836,0.088,1.254
		h-1.518c0.066-0.44,0.088-0.704,0.088-1.232v-0.484h-3.521c-0.924,0-1.584,0.044-2.222,0.132v-1.452
		c0.594,0.088,1.298,0.132,2.222,0.132h3.521V127.105z M75.065,136.765v-1.694h-2.53v1.694H75.065z M77.728,139.361v-1.628h-5.193
		v1.628H77.728z M72.535,140.33v1.892h2.53v-1.892H72.535z"/>
	<path d="M91.366,133.685c-0.924,0-1.606,0.044-2.288,0.132v-1.584c0.682,0.088,1.32,0.132,2.288,0.132h14.808
		c0.99,0,1.606-0.044,2.289-0.132v1.584c-0.682-0.088-1.364-0.132-2.289-0.132h-4.269v9.175c0,0.286,0.066,0.418,0.198,0.506
		c0.264,0.176,0.836,0.242,1.848,0.242c2.002,0,2.552-0.11,2.816-0.506c0.264-0.396,0.44-1.563,0.528-3.521
		c0.55,0.308,0.88,0.44,1.43,0.572c-0.462,4.665-0.616,4.819-4.753,4.819c-1.694,0-2.574-0.132-3.037-0.462
		c-0.352-0.242-0.484-0.594-0.484-1.342v-9.483h-4.048c-0.066,2.068-0.11,2.772-0.308,4.004c-0.396,2.486-1.386,4.357-3.059,5.853
		c-0.792,0.726-1.606,1.276-3.037,2.068c-0.33-0.55-0.638-0.924-1.1-1.276c2.729-1.32,4.159-2.53,4.973-4.247
		c0.704-1.474,0.99-3.256,1.034-6.403H91.366z M106.417,128.558c-0.528-0.088-1.166-0.132-2.178-0.132H93.457
		c-1.012,0-1.628,0.044-2.178,0.132v-1.628c0.506,0.088,1.144,0.132,2.2,0.132h10.738c1.1,0,1.694-0.044,2.2-0.132V128.558z"/>
</g>
<g>
	<path d="M369.249,37.542c0-0.9,0.021-1.48,0.08-2.461c-0.5,0.98-1.04,1.741-2.061,2.941c-0.3-0.62-0.38-0.72-0.779-1.18
		c1.58-1.601,2.801-3.501,3.76-5.781c0.441-1.081,0.761-2.081,0.841-2.701l1.4,0.48c-0.12,0.26-0.2,0.48-0.341,0.88
		c-0.379,1.06-0.939,2.28-1.619,3.601v10.922c0,0.9,0.039,1.661,0.14,2.34h-1.561c0.101-0.72,0.14-1.32,0.14-2.4V37.542z
		 M377.632,30.72c0-0.94-0.041-1.56-0.121-2.2h1.521c-0.08,0.66-0.121,1.26-0.121,2.22v1.86h3.581c0.9,0,1.46-0.02,1.9-0.08
		c-0.06,0.541-0.08,0.88-0.08,1.701v4.701c0,1.101,0.021,1.561,0.101,2.081h-1.361v-1.18h-4.141v4.241
		c0,1.041,0.041,1.841,0.121,2.421h-1.521c0.08-0.6,0.121-1.42,0.121-2.401v-4.261h-3.842v1.2h-1.359c0.08-0.58,0.1-1.08,0.1-2.101
		v-4.721c0-0.76-0.02-1.18-0.08-1.681c0.439,0.06,0.98,0.08,1.92,0.08h3.262V30.72z M373.79,33.801v4.841h3.842v-4.841H373.79z
		 M383.052,38.642v-4.841h-4.141v4.841H383.052z"/>
	<path d="M393.57,44.003c-0.979,0.74-1.62,1.12-2.761,1.62c-0.779,0.36-1.381,0.56-3.121,1.06c-0.26-0.48-0.42-0.7-0.84-1.12
		c1.641-0.36,2.421-0.58,3.361-0.96c1-0.4,1.5-0.68,2.32-1.36L393.57,44.003z M404.073,31.9c0,0.62,0.02,1,0.08,1.42
		c-0.521-0.04-0.921-0.06-2.182-0.06H389.87c-1.101,0-1.761,0.02-2.182,0.06c0.061-0.48,0.08-0.84,0.08-1.42v-1.42
		c0-0.62-0.02-0.98-0.08-1.46c0.541,0.06,1.181,0.08,2.241,0.08h11.982c1.06,0,1.7-0.02,2.241-0.08c-0.061,0.48-0.08,0.82-0.08,1.46
		V31.9z M392.71,30.12h-3.721v2.141h3.721V30.12z M400.651,34.461c1.24,0,1.641-0.02,2.261-0.06c-0.079,0.62-0.1,1.16-0.1,2.14
		v4.441c0,1.16,0.021,1.78,0.1,2.241c-0.72-0.08-1.34-0.1-2.14-0.1h-9.643c-0.78,0-1.4,0.02-2.141,0.1
		c0.061-0.44,0.1-1.16,0.1-2.261v-4.421c0-0.94-0.02-1.52-0.1-2.14c0.641,0.04,1.021,0.06,2.221,0.06H400.651z M390.329,36.982
		h11.243v-1.521h-11.243V36.982z M390.329,39.522h11.243v-1.561h-11.243V39.522z M390.329,42.103h11.243v-1.581h-11.243V42.103z
		 M397.691,30.12h-3.801v2.141h3.801V30.12z M398.952,43.223c0.979,0.68,1.619,1,2.88,1.44c0.9,0.32,1.601,0.5,3.12,0.78
		c-0.34,0.38-0.52,0.64-0.74,1.16c-1.859-0.48-2.42-0.64-3.3-1c-1.161-0.48-1.821-0.82-2.981-1.6L398.952,43.223z M402.853,32.261
		V30.12h-3.98v2.141H402.853z"/>
	<path d="M417.552,37.382c0,0.9-0.74,1.64-1.641,1.64s-1.641-0.74-1.641-1.64c0-0.9,0.74-1.641,1.641-1.641
		S417.552,36.481,417.552,37.382z"/>
	<path d="M431.75,33.461c-0.101,0.32-0.16,0.56-0.58,2.201c-0.78,3.041-1.7,5.101-3.381,7.481c-0.399-0.36-0.72-0.58-1.22-0.82
		c1.54-2,2.359-3.641,3.1-6.221c0.341-1.2,0.541-2.201,0.601-3L431.75,33.461z M436.731,28.62c-0.08,0.54-0.121,1.14-0.121,2.04
		v13.763c0,1.28-0.459,1.64-2.119,1.64c-0.82,0-1.621-0.04-2.762-0.14c-0.06-0.621-0.14-0.9-0.359-1.48
		c1.279,0.24,2.16,0.34,2.961,0.34c0.72,0,0.899-0.1,0.899-0.5V30.64c0-0.86-0.04-1.44-0.12-2.02H436.731z M441.212,32.981
		c0.16,1.16,0.48,2.26,1.24,4.141c0.78,1.96,1.621,3.401,2.98,5.081c-0.52,0.36-0.8,0.6-1.141,1c-1.699-2.281-2.46-3.741-3.4-6.361
		c-0.02-0.02-0.32-1.041-0.96-3.061c-0.08-0.24-0.08-0.24-0.14-0.4L441.212,32.981z"/>
	<path d="M454.37,38.522c-0.06,0.3-0.08,0.44-0.1,0.82c-0.02,0.28-0.18,1.3-0.24,1.66c-0.26,1.28-1,2.5-2.1,3.421
		c-1.041,0.9-2.001,1.38-3.881,1.96c-0.261-0.54-0.441-0.82-0.861-1.26c1.301-0.28,1.9-0.5,2.701-0.92
		c2.08-1.16,3.041-2.721,3.041-4.921c0-0.3-0.021-0.46-0.061-0.8L454.37,38.522z M455.151,30.16c0-0.84-0.021-1.3-0.121-1.84h1.48
		c-0.08,0.46-0.119,0.96-0.119,1.84v0.38h6c1.041,0,1.661-0.04,2.182-0.12v1.36c-0.601-0.08-1.281-0.12-2.161-0.12h-6.021v2.061
		h4.62c1.081,0,1.641-0.02,2.12-0.12v1.32c-0.58-0.08-1.06-0.1-2.12-0.1H450.81c-0.96,0-1.52,0.02-2.1,0.1v-1.32
		c0.479,0.08,1.039,0.12,2.1,0.12h4.342v-2.061h-5.521c-0.961,0-1.541,0.04-2.221,0.12v-1.36c0.52,0.08,1.141,0.12,2.24,0.12h5.502
		V30.16z M447.489,40.242c0.06-0.44,0.08-0.8,0.08-1.36v-1.141c0-0.56-0.021-0.92-0.08-1.36c0.62,0.06,1.12,0.08,1.98,0.08h12.883
		c0.9,0,1.38-0.02,2-0.08c-0.061,0.42-0.08,0.76-0.08,1.34v1.141c0,0.6,0.02,0.98,0.08,1.38h-1.36v-2.66h-14.163v2.66H447.489z
		 M458.251,44.063c0,0.601,0.221,0.68,2.041,0.68c1.86,0,2.42-0.08,2.68-0.42c0.261-0.34,0.421-1.1,0.521-2.661
		c0.379,0.22,0.799,0.4,1.26,0.5c-0.16,1.821-0.461,2.801-0.94,3.241c-0.46,0.4-1.36,0.541-3.44,0.541c-1.48,0-2.24-0.08-2.761-0.26
		c-0.48-0.18-0.64-0.48-0.64-1.18v-4.401c0-0.86-0.021-1.22-0.101-1.601h1.501c-0.08,0.42-0.121,0.84-0.121,1.561V44.063z"/>
</g>
<g>
	<path d="M68.288,182.325c-0.44,0-0.858,0.022-1.452,0.11v-1.452c0.484,0.088,0.836,0.11,1.452,0.11h1.078v-2.046
		c0-1.034-0.044-1.606-0.132-2.245h1.628c-0.11,0.594-0.132,1.188-0.132,2.223v2.068h0.506c0.572,0,0.946-0.022,1.342-0.088v1.408
		c-0.418-0.066-0.77-0.088-1.342-0.088H70.73v4.577c0.616-0.242,0.88-0.352,1.87-0.792l0.022,1.254
		c-0.88,0.418-1.167,0.55-1.893,0.836v6.711c0,1.188-0.418,1.54-1.76,1.54c-0.44,0-1.078-0.022-1.672-0.066
		c-0.044-0.572-0.088-0.836-0.264-1.364c0.682,0.132,1.188,0.176,1.76,0.176c0.462,0,0.572-0.088,0.572-0.506v-5.941
		c-0.638,0.242-0.924,0.33-1.188,0.418c-0.506,0.176-0.77,0.264-1.144,0.44l-0.33-1.452c0.682-0.088,1.144-0.22,2.662-0.749v-5.083
		H68.288z M79.114,188.838c0.946,0,1.364-0.022,1.936-0.11v1.452c-0.506-0.088-1.056-0.11-1.936-0.11h-1.738v3.411
		c2.156-0.418,2.663-0.506,4.048-0.858v1.232c-2.134,0.506-4.796,1.056-7.613,1.584c-1.144,0.22-1.232,0.242-1.65,0.374l-0.352-1.54
		c0.946,0,1.496-0.066,4.247-0.528v-3.674h-1.474c-0.704,0-1.276,0.022-1.914,0.11v-1.452c0.528,0.088,0.99,0.11,1.914,0.11h1.474
		v-0.727c0-0.704-0.044-1.254-0.11-1.892h1.518c-0.066,0.616-0.088,1.144-0.088,1.892v0.727H79.114z M79.048,179.927
		c0.924,0,1.342-0.022,1.892-0.11v1.386c-0.616-0.066-1.078-0.088-1.892-0.088h-1.672v3.102h1.98c0.99,0,1.452-0.022,1.98-0.11
		v1.452c-0.572-0.066-1.254-0.11-1.98-0.11h-5.039c-0.726,0-1.386,0.044-1.936,0.11v-1.452c0.484,0.088,1.012,0.11,1.936,0.11h1.738
		v-3.102h-1.342c-0.77,0-1.21,0.022-1.804,0.088v-1.386c0.506,0.088,0.946,0.11,1.804,0.11h1.342v-0.902
		c0-1.122-0.044-1.606-0.132-2.156h1.562c-0.088,0.506-0.11,1.034-0.11,2.178v0.88H79.048z M83.668,194.273
		c0,1.078,0.022,1.804,0.132,2.464h-1.606c0.088-0.704,0.132-1.452,0.132-2.486v-15.094c0-1.034-0.044-1.65-0.132-2.354H83.8
		c-0.11,0.682-0.132,1.254-0.132,2.354v4.423c1.078,1.496,1.98,2.376,3.785,3.696c-0.264,0.418-0.396,0.682-0.616,1.364
		c-1.518-1.254-2.398-2.134-3.168-3.212V194.273z"/>
	<path d="M92.291,185.01c-0.11,2.398-0.374,4.51-0.726,6.227c-0.44,1.98-0.902,3.235-1.87,4.951c-0.33-0.418-0.749-0.792-1.188-1.1
		c0.836-1.386,1.254-2.376,1.606-3.74c0.616-2.464,0.924-6.073,0.924-11.266c0-1.276-0.044-2.09-0.11-2.729
		c0.77,0.088,1.298,0.11,2.663,0.11h11.463c1.078,0,1.628-0.022,2.267-0.11c-0.066,0.682-0.066,0.836-0.066,1.496v1.958
		c0,0.66,0,0.902,0.066,1.386c-0.858-0.044-1.497-0.066-2.179-0.066H92.378l-0.044,1.694h13.136c1.43,0,1.937-0.022,2.575-0.11
		v1.408c-0.704-0.088-1.254-0.11-2.509-0.11h-6.953c-0.638,1.21-0.924,1.694-1.541,2.618c3.103-0.11,3.697-0.132,6.799-0.418
		c-0.572-0.484-0.924-0.748-1.871-1.452l1.123-0.594c1.87,1.43,2.596,2.09,4.225,3.763l-1.145,0.704
		c-0.638-0.726-0.814-0.902-1.298-1.43c-3.037,0.286-6.095,0.506-10.914,0.77c-0.374,0.022-0.528,0.022-0.814,0.088l-0.242-1.408
		c0.374,0.066,0.484,0.066,0.77,0.066c0.088,0,0.088,0,1.914-0.044c0.66-0.968,1.122-1.76,1.541-2.662H92.291z M104.81,191.017
		c1.364,0,1.716-0.022,2.311-0.11v1.408c-0.66-0.088-1.232-0.11-2.311-0.11h-4.334v2.464h5.325c1.672,0,2.156-0.022,2.729-0.11
		v1.452c-0.682-0.088-1.43-0.132-2.816-0.132H94.205c-1.188,0-2.024,0.044-2.662,0.132v-1.452c0.484,0.088,1.166,0.11,2.574,0.11
		h4.995v-2.464h-3.564c-1.078,0-1.694,0.022-2.31,0.11v-1.408c0.572,0.088,0.968,0.11,2.332,0.11h3.542
		c0-0.968-0.022-1.32-0.11-1.848h1.584c-0.088,0.528-0.11,0.902-0.11,1.848H104.81z M105.911,180.939v-2.266H92.4v2.266H105.911z"/>
</g>
<g>
	<path d="M67.159,103.373c0.902-0.858,1.584-1.628,2.2-2.552c-0.924-2.333-1.43-5.017-1.584-8.185h-9.616
		c0,3.586-0.176,6.292-0.506,8.207c-0.33,1.936-0.88,3.278-1.958,4.863c-0.462-0.528-0.616-0.66-1.122-1.034
		c0.968-1.232,1.43-2.267,1.76-3.873c0.286-1.386,0.462-3.873,0.462-6.777c0-1.254-0.022-1.914-0.11-2.684
		c0.594,0.088,1.166,0.11,2.222,0.11h8.846c-0.022-0.44-0.022-0.594-0.088-1.056h1.519c-0.088,0.418-0.11,0.638-0.11,1.056h3.037
		c-0.748-0.66-1.32-1.034-2.354-1.518l0.792-0.792c1.122,0.55,1.54,0.814,2.376,1.452l-0.77,0.858c0.968,0,1.562-0.044,2.112-0.132
		v1.452c-0.638-0.088-1.254-0.132-2.2-0.132h-2.993c0.132,2.706,0.462,4.73,1.145,6.777c1.012-1.937,1.628-3.763,1.804-5.391
		l1.364,0.528c-0.176,0.528-0.176,0.528-0.352,1.122c-0.616,2.002-1.32,3.63-2.245,5.193c0.77,1.694,1.826,3.081,2.354,3.081
		c0.022,0,0.066-0.022,0.11-0.022c0.176-0.132,0.242-0.264,0.374-0.858c0.11-0.616,0.22-1.43,0.286-2.333
		c0.44,0.418,0.77,0.66,1.21,0.88c-0.242,1.672-0.44,2.508-0.726,3.103c-0.242,0.506-0.638,0.77-1.078,0.77
		c-1.012,0-2.2-1.21-3.366-3.389c-1.122,1.541-2.002,2.42-3.499,3.587c-0.33-0.418-0.572-0.638-1.056-0.946
		c0.836-0.55,1.144-0.792,1.606-1.232c-0.44-0.022-1.276-0.044-1.892-0.044H60.69v1.408h-1.364c0.088-0.792,0.11-1.43,0.11-2.266
		V95.87c0-0.814-0.022-1.298-0.066-1.826c0.484,0.044,0.924,0.066,1.804,0.066h3.895c1.012,0,1.496-0.022,2.046-0.11v1.276
		c-0.638-0.066-1.122-0.088-2.002-0.088h-0.858v1.694h1.056l0.792-0.022l0.33,0.022c0.088,0,0.176-0.022,0.528-0.044
		c-0.044,0.352-0.044,0.506-0.044,0.99v1.628c0,0.374,0,0.506,0.044,1.012c-0.55-0.022-0.726-0.022-1.628-0.022h-1.078v1.892h0.858
		c0.968,0,1.584-0.022,2.046-0.088V103.373z M60.844,87.223c0-0.528-0.022-0.814-0.088-1.254h1.518
		c-0.066,0.44-0.088,0.704-0.088,1.276v0.308h5.083v-0.308c0-0.528-0.022-0.858-0.088-1.276h1.496
		c-0.066,0.44-0.088,0.726-0.088,1.276v0.308h3.696c0.946,0,1.628-0.044,2.245-0.132v1.452c-0.66-0.088-1.32-0.132-2.245-0.132
		h-3.696c0,0.55,0.022,0.792,0.088,1.21h-1.496c0.066-0.418,0.066-0.638,0.088-1.21h-5.083v0.462c0,0.572,0.022,0.836,0.088,1.254
		h-1.518c0.066-0.44,0.088-0.704,0.088-1.232v-0.484h-3.521c-0.924,0-1.584,0.044-2.222,0.132v-1.452
		c0.594,0.088,1.298,0.132,2.222,0.132h3.521V87.223z M63.132,96.882v-1.694h-2.53v1.694H63.132z M65.794,99.479V97.85h-5.193v1.628
		H65.794z M60.602,100.447v1.892h2.53v-1.892H60.602z"/>
	<path d="M80.952,103.021c0,1.078,0.044,1.782,0.154,2.663h-1.672c0.066-0.484,0.132-1.541,0.132-2.663v-4.533
		c0-0.858,0.022-1.32,0.066-2.508c-0.77,0.99-1.188,1.408-2.333,2.311c-0.242-0.616-0.33-0.749-0.77-1.276
		c2.222-1.474,4.313-3.96,5.171-6.095l1.254,0.836c-0.11,0.154-0.132,0.198-0.308,0.462c-0.528,0.88-0.946,1.474-1.694,2.42V103.021
		z M82.998,86.606c-0.198,0.198-0.286,0.286-0.616,0.726c-1.21,1.584-2.486,2.772-4.445,4.115c-0.286-0.506-0.506-0.748-0.924-1.078
		c1.804-1.144,2.949-2.134,3.983-3.455c0.352-0.462,0.638-0.88,0.77-1.188L82.998,86.606z M94.615,96.09
		c-0.242,0.33-0.33,0.462-0.594,0.924c-1.1,1.848-2.289,3.3-3.653,4.489c0.682,0.528,1.298,0.88,2.156,1.32
		c1.584,0.792,2.575,1.167,4.137,1.497c-0.374,0.572-0.528,0.88-0.726,1.43c-2.729-0.814-4.599-1.738-6.667-3.323
		c-2.09,1.541-3.917,2.442-6.535,3.234c-0.198-0.506-0.374-0.792-0.814-1.342c2.508-0.616,4.115-1.342,6.249-2.838
		c-1.518-1.408-2.574-2.883-3.521-4.951c-0.814,0-1.254,0.022-1.738,0.088v-1.474c0.506,0.088,1.034,0.132,1.782,0.132h7.503
		c0.858,0,1.32-0.022,1.606-0.11L94.615,96.09z M87.046,88.037c-0.088,1.937-0.33,2.949-1.034,4.115
		c-0.506,0.858-0.99,1.364-2.046,2.156c-0.33-0.484-0.594-0.748-1.034-1.056c1.21-0.792,1.76-1.452,2.245-2.64
		c0.33-0.792,0.484-1.826,0.484-3.059c0-0.308-0.022-0.506-0.044-0.858c0.418,0.044,0.704,0.066,1.584,0.066h3.675
		c0.88,0,1.144-0.022,1.562-0.066c-0.066,0.44-0.066,0.682-0.066,1.606v3.455c0,0.374,0.154,0.44,1.166,0.44
		c1.804,0,1.804,0,1.893-2.552c0.594,0.396,0.858,0.506,1.298,0.616c-0.132,1.474-0.286,2.2-0.55,2.552
		c-0.308,0.44-1.034,0.616-2.575,0.616c-2.156,0-2.618-0.22-2.618-1.167v-4.225H87.046z M86.078,96.53
		c0.77,1.584,1.672,2.728,3.19,4.092c1.518-1.276,2.42-2.376,3.389-4.092H86.078z"/>
	<path d="M109.685,86.057c-0.066,0.374-0.11,1.254-0.11,1.958c0,1.298,0.22,3.542,0.484,4.775c0.374,1.76,1.562,4.356,2.838,6.161
		c0.88,1.232,2.068,2.486,3.256,3.477c0.704,0.594,1.276,0.968,2.552,1.716c-0.528,0.484-0.77,0.748-1.144,1.386
		c-2.685-1.826-4.269-3.366-5.831-5.633c-1.364-2.002-2.201-4.048-2.861-6.997c-0.396,2.09-0.77,3.279-1.518,4.907
		c-0.77,1.694-1.738,3.103-3.146,4.511c-1.232,1.276-2.134,2.002-4.048,3.212c-0.374-0.594-0.638-0.88-1.188-1.298
		c2.223-1.232,3.212-1.958,4.489-3.322c3.059-3.278,4.555-7.503,4.555-12.916c0-0.924-0.022-1.364-0.088-1.936H109.685z"/>
</g>
<g>
	<path d="M143.709,53.921c0.528,0.096,0.984,0.12,1.92,0.12h4.152c0.984,0,1.416-0.024,1.92-0.12v1.536
		c-0.576-0.048-0.984-0.072-1.729-0.072h-4.344c-0.864,0-1.272,0.024-1.92,0.096V53.921z M144.573,50.609
		c0.552,0.096,0.912,0.12,1.728,0.12h3.216c0.816,0,1.176-0.024,1.729-0.12v1.512c-0.48-0.072-1.032-0.096-1.729-0.096h-3.216
		c-0.72,0-1.2,0.024-1.728,0.096V50.609z M144.645,57.282c0.456,0.072,0.84,0.096,1.632,0.096h3.289
		c0.792,0,1.152-0.024,1.608-0.096v1.464c-0.528-0.072-0.888-0.096-1.608-0.096h-3.289c-0.792,0-1.2,0.024-1.632,0.096V57.282z
		 M144.645,60.594c0.48,0.072,0.816,0.096,1.632,0.096h3.289c0.816,0,1.152-0.024,1.608-0.096v1.464
		c-0.48-0.072-0.888-0.096-1.608-0.096h-3.289c-0.744,0-1.152,0.024-1.632,0.096V60.594z M144.717,71.395
		c0.072-0.672,0.12-1.488,0.12-2.328v-3.192c0-0.792-0.024-1.368-0.096-1.968c0.624,0.072,1.008,0.096,1.944,0.096h2.784
		c0.888,0,1.344-0.024,1.752-0.072c-0.048,0.408-0.072,0.984-0.072,1.896v3.289c0,0.84,0.024,1.344,0.12,1.968h-1.488v-0.96h-3.576
		v1.272H144.717z M146.205,68.875h3.576V65.25h-3.576V68.875z M153.837,58.578c-0.84,0-1.32,0.024-1.992,0.096v-1.561
		c0.552,0.096,1.081,0.12,2.064,0.12h2.808v-3.12h-1.92c-0.72,0-1.272,0.024-1.824,0.096v-1.488c0.504,0.072,1.008,0.096,1.8,0.096
		h1.944v-1.104c0-0.912-0.048-1.416-0.144-1.944h1.704c-0.12,0.552-0.144,0.96-0.144,1.944v1.104h1.44
		c0.744,0,1.272-0.024,1.68-0.096v1.488c-0.504-0.072-0.984-0.096-1.608-0.096h-1.512v3.12h1.008
		c0.984-1.032,1.56-1.704,2.496-2.976l0.264-0.336c0.984-1.44,1.56-2.472,1.872-3.36l1.512,0.864c-0.144,0.144-0.456,0.6-1.08,1.584
		c-0.768,1.176-2.112,2.88-3.336,4.224h2.616c1.008,0,1.464-0.024,2.041-0.12v1.584c-0.625-0.096-1.081-0.12-2.064-0.12h-3.912
		c-1.104,1.032-2.088,1.872-3.072,2.568h5.208c0.816,0,1.32-0.024,2.232-0.096c-0.072,0.672-0.096,1.128-0.096,1.944v6.36
		c0,0.936,0.048,1.656,0.144,2.4h-1.584v-1.272h-6.816v1.272h-1.536c0.096-0.72,0.144-1.44,0.144-2.376v-6.672
		c-1.056,0.744-1.68,1.152-2.448,1.584c-0.456-0.696-0.504-0.768-0.888-1.152c2.448-1.128,4.776-2.641,6.913-4.561H153.837z
		 M155.59,65.082h6.816v-2.688h-6.816V65.082z M155.59,69.187h6.816V66.33h-6.816V69.187z"/>
	<path d="M172.653,65.322c-1.44,2.928-1.68,3.312-3.577,6.097l-1.344-1.152c0.816-0.792,1.368-1.512,2.184-2.808
		c0.6-0.96,0.96-1.704,1.584-3.192L172.653,65.322z M171.429,62.778c-1.056-1.056-2.016-1.752-3.528-2.592l0.864-1.08
		c1.536,0.864,2.256,1.344,3.577,2.448L171.429,62.778z M174.166,51.425c0-0.624-0.048-1.056-0.096-1.512h1.632
		c-0.072,0.456-0.096,0.864-0.096,1.512v0.264h5.665v-0.264c0-0.624-0.024-1.032-0.072-1.512h1.632
		c-0.072,0.456-0.096,0.84-0.096,1.512v0.264h4.057c1.032,0,1.776-0.048,2.424-0.144v1.56c-0.696-0.096-1.44-0.144-2.424-0.144
		h-4.057c0,0.648,0.024,0.96,0.096,1.392h-1.632c0.048-0.456,0.072-0.744,0.072-1.392h-5.665c0,0.768,0.024,1.128,0.096,1.608
		h-1.632c0.072-0.48,0.096-0.864,0.096-1.608h-3.745c-0.984,0-1.728,0.048-2.424,0.144v-1.56c0.648,0.096,1.392,0.144,2.424,0.144
		h3.745V51.425z M172.221,58.242c-1.104-1.152-1.968-1.896-3.384-2.784l0.936-1.008c1.44,0.936,2.256,1.584,3.432,2.712
		L172.221,58.242z M175.365,60.402c-1.008,0-1.68,0.024-2.28,0.12v-1.417c0.552,0.096,1.2,0.12,2.28,0.12h1.417
		c-0.432-0.696-0.696-1.056-1.224-1.584l1.224-0.528c0.648,0.792,0.936,1.249,1.368,2.112h2.136v-2.568
		c-1.92,0.144-1.92,0.144-2.472,0.168c-0.288,0-0.288,0-1.824,0.072c-0.504,0-0.624,0.024-1.44,0.048
		c-0.096-0.456-0.216-0.792-0.48-1.296c0.408,0.024,0.744,0.024,0.936,0.024c5.064,0,10.009-0.6,11.689-1.416l1.152,1.248
		c-2.4,0.552-4.249,0.84-6.265,1.032v2.688h2.208c0.84-1.08,1.344-1.896,1.752-2.952l1.392,0.48c-0.648,1.056-1.08,1.68-1.68,2.472
		h1.584c1.104,0,1.752-0.024,2.304-0.12v1.417c-0.672-0.072-1.44-0.12-2.304-0.12h-4.056c1.656,1.512,4.032,2.736,7.057,3.624
		c-0.648,0.888-0.648,0.888-0.816,1.272c-0.816-0.336-1.08-0.432-2.016-0.888v4.848c0,0.96,0.048,1.8,0.144,2.497h-1.512v-0.96
		h-9.361v0.937h-1.488c0.096-0.72,0.144-1.561,0.144-2.473V64.53c-0.672,0.336-0.888,0.432-1.608,0.744
		c-0.168-0.384-0.456-0.744-0.864-1.104c2.929-0.96,4.993-2.136,6.625-3.768H175.365z M176.277,64.914v1.752h3.937v-1.752H176.277z
		 M180.214,67.771h-3.937v1.872h3.937V67.771z M185.782,63.786c-1.776-0.96-3-1.848-4.272-3.168
		c0.048,0.456,0.072,0.888,0.072,1.272v0.36c0,0.432,0.024,0.816,0.096,1.152h-1.464c0.048-0.408,0.072-0.744,0.072-1.176V61.89
		c0-0.384,0.024-0.888,0.072-1.272c-1.248,1.368-2.424,2.28-4.032,3.168H185.782z M185.662,66.667v-1.752h-4.152v1.752H185.662z
		 M185.662,69.643v-1.872h-4.152v1.872H185.662z"/>
	<path d="M201.501,63.57c-1.392,3.168-2.808,4.608-4.536,4.608c-2.28,0-3.984-2.496-3.984-5.856c0-2.448,0.912-4.824,2.52-6.625
		c1.92-2.112,4.537-3.192,7.753-3.192c2.688,0,5.04,0.84,6.601,2.376c1.512,1.464,2.328,3.552,2.328,5.856
		c0,3.72-2.016,6.792-5.496,8.281c-1.08,0.456-1.992,0.744-3.648,1.104c-0.24-0.792-0.385-1.032-0.84-1.608
		c1.752-0.288,2.88-0.6,4.008-1.128c2.641-1.2,4.248-3.768,4.248-6.72c0-2.736-1.393-4.945-3.816-6.025
		c-0.888-0.384-1.584-0.552-2.783-0.6C203.493,57.377,202.581,61.05,201.501,63.57z M198.55,55.193
		c-2.425,1.464-3.913,4.176-3.913,7.152c0,2.304,1.008,4.081,2.304,4.081c1.008,0,1.968-1.128,3-3.48
		c0.984-2.256,1.872-5.808,2.185-8.88C200.686,54.185,199.653,54.521,198.55,55.193z"/>
	<path d="M229.103,69.187c0.983-0.936,1.728-1.776,2.399-2.784c-1.008-2.544-1.56-5.473-1.728-8.929h-10.489
		c0,3.912-0.192,6.864-0.552,8.953c-0.36,2.112-0.961,3.576-2.137,5.305c-0.504-0.576-0.672-0.72-1.225-1.128
		c1.057-1.344,1.561-2.472,1.921-4.224c0.312-1.512,0.504-4.225,0.504-7.393c0-1.368-0.024-2.088-0.12-2.928
		c0.648,0.096,1.272,0.12,2.424,0.12h9.649c-0.024-0.48-0.024-0.648-0.097-1.152h1.656c-0.096,0.456-0.119,0.696-0.119,1.152h3.313
		c-0.816-0.72-1.441-1.128-2.568-1.656l0.863-0.864c1.225,0.6,1.681,0.888,2.593,1.584l-0.841,0.936
		c1.057,0,1.705-0.048,2.305-0.144v1.584c-0.695-0.096-1.368-0.144-2.4-0.144h-3.264c0.144,2.952,0.504,5.16,1.248,7.393
		c1.104-2.112,1.775-4.104,1.968-5.88l1.488,0.576c-0.192,0.576-0.192,0.576-0.384,1.224c-0.672,2.185-1.44,3.96-2.449,5.665
		c0.841,1.848,1.992,3.36,2.568,3.36c0.024,0,0.072-0.024,0.121-0.024c0.191-0.144,0.264-0.288,0.408-0.936
		c0.119-0.672,0.239-1.56,0.312-2.544c0.479,0.456,0.84,0.72,1.319,0.96c-0.264,1.824-0.479,2.736-0.791,3.385
		c-0.265,0.552-0.696,0.84-1.177,0.84c-1.104,0-2.399-1.32-3.672-3.696c-1.224,1.68-2.185,2.64-3.816,3.912
		c-0.36-0.456-0.624-0.696-1.152-1.032c0.912-0.6,1.248-0.864,1.753-1.344c-0.48-0.024-1.393-0.048-2.064-0.048h-4.824v1.536h-1.488
		c0.096-0.864,0.119-1.561,0.119-2.472v-7.345c0-0.888-0.023-1.417-0.072-1.992c0.529,0.048,1.009,0.072,1.969,0.072h4.248
		c1.104,0,1.633-0.024,2.232-0.12v1.393c-0.695-0.072-1.225-0.096-2.184-0.096h-0.937v1.848h1.152l0.864-0.024l0.359,0.024
		c0.096,0,0.192-0.024,0.576-0.048c-0.048,0.384-0.048,0.552-0.048,1.08v1.776c0,0.408,0,0.552,0.048,1.104
		c-0.6-0.024-0.792-0.024-1.775-0.024h-1.177v2.064h0.937c1.056,0,1.728-0.024,2.232-0.096V69.187z M222.214,51.569
		c0-0.576-0.024-0.888-0.097-1.368h1.656c-0.071,0.48-0.097,0.768-0.097,1.392v0.336h5.545v-0.336c0-0.576-0.023-0.936-0.096-1.392
		h1.632c-0.071,0.48-0.096,0.792-0.096,1.392v0.336h4.032c1.032,0,1.776-0.048,2.448-0.144v1.584
		c-0.72-0.096-1.44-0.144-2.448-0.144h-4.032c0,0.6,0.024,0.864,0.096,1.32h-1.632c0.072-0.456,0.072-0.696,0.096-1.32h-5.545v0.504
		c0,0.624,0.025,0.912,0.097,1.368h-1.656c0.072-0.48,0.097-0.768,0.097-1.344v-0.528h-3.841c-1.009,0-1.728,0.048-2.425,0.144
		v-1.584c0.648,0.096,1.416,0.144,2.425,0.144h3.841V51.569z M224.71,62.106v-1.848h-2.761v1.848H224.71z M227.614,64.938v-1.776
		h-5.665v1.776H227.614z M221.949,65.994v2.064h2.761v-2.064H221.949z"/>
	<path d="M243.501,59.082c-0.12,2.616-0.408,4.92-0.792,6.792c-0.479,2.161-0.983,3.528-2.04,5.401
		c-0.36-0.456-0.816-0.864-1.297-1.2c0.912-1.512,1.369-2.592,1.753-4.081c0.672-2.688,1.008-6.625,1.008-12.289
		c0-1.392-0.048-2.28-0.12-2.976c0.84,0.096,1.416,0.12,2.904,0.12h12.506c1.176,0,1.775-0.024,2.472-0.12
		c-0.072,0.744-0.072,0.912-0.072,1.632v2.136c0,0.72,0,0.984,0.072,1.512c-0.937-0.048-1.632-0.072-2.376-0.072h-13.922
		l-0.048,1.848h14.329c1.561,0,2.113-0.024,2.809-0.12v1.536c-0.768-0.096-1.368-0.12-2.736-0.12h-7.584
		c-0.697,1.32-1.009,1.848-1.681,2.856c3.384-0.12,4.032-0.144,7.417-0.456c-0.625-0.528-1.008-0.816-2.041-1.584l1.225-0.648
		c2.04,1.56,2.832,2.28,4.608,4.104l-1.248,0.768c-0.696-0.792-0.888-0.984-1.416-1.56c-3.313,0.312-6.649,0.552-11.905,0.84
		c-0.408,0.024-0.576,0.024-0.889,0.096l-0.264-1.536c0.408,0.072,0.528,0.072,0.84,0.072c0.097,0,0.097,0,2.089-0.048
		c0.72-1.056,1.224-1.92,1.681-2.904H243.501z M257.158,65.634c1.488,0,1.872-0.024,2.521-0.12v1.536
		c-0.721-0.096-1.344-0.12-2.521-0.12h-4.729v2.688h5.809c1.824,0,2.353-0.024,2.977-0.12v1.584
		c-0.744-0.096-1.561-0.144-3.072-0.144h-12.554c-1.296,0-2.208,0.048-2.904,0.144v-1.584c0.528,0.096,1.272,0.12,2.809,0.12h5.449
		V66.93h-3.889c-1.176,0-1.849,0.024-2.521,0.12v-1.536c0.624,0.096,1.056,0.12,2.544,0.12h3.865c0-1.056-0.025-1.44-0.121-2.016
		h1.729c-0.096,0.576-0.12,0.984-0.12,2.016H257.158z M258.358,54.641v-2.472h-14.737v2.472H258.358z"/>
	<path d="M273.981,62.994c1.008,0,1.416-0.024,2.064-0.12v1.512c-0.624-0.096-1.08-0.12-2.064-0.12h-4.729
		c-0.048,0.672-0.072,0.864-0.168,1.368h3.816c1.032,0,1.344,0,1.776-0.072c-0.072,0.48-0.097,0.696-0.192,1.488
		c-0.168,1.584-0.432,2.856-0.768,3.504c-0.36,0.768-0.744,0.936-2.041,0.936c-0.647,0-1.248-0.024-2.016-0.12
		c-0.048-0.6-0.096-0.864-0.313-1.392c0.841,0.168,1.561,0.24,2.16,0.24c0.648,0,0.961-0.168,1.104-0.6
		c0.192-0.552,0.384-1.608,0.505-2.808h-4.297c-0.624,2.064-1.848,3.504-4.297,4.944c-0.287-0.528-0.504-0.84-0.912-1.176
		c2.904-1.44,4.152-3.264,4.32-6.313h-1.943c-0.984,0-1.465,0.024-2.088,0.12v-1.512c0.647,0.096,1.08,0.12,2.088,0.12h3.313v-0.192
		c0-0.456-0.049-0.816-0.121-1.176h1.584c-0.071,0.312-0.096,0.648-0.096,1.176v0.192H273.981z M269.277,51.737
		c0-0.84-0.048-1.344-0.144-1.896h1.584c-0.097,0.552-0.145,1.056-0.145,1.896v0.312h3.385c0.936,0,1.439-0.024,2.016-0.12v1.512
		c-0.6-0.096-1.08-0.12-2.088-0.12h-3.313v1.44h2.713c0.863,0,1.367-0.024,1.968-0.096c-0.072,0.648-0.097,1.008-0.097,1.729v3.144
		c0,0.864,0.024,1.176,0.072,1.656c-0.624-0.048-0.984-0.072-1.943-0.072h-6.577c-0.792,0-1.345,0.024-1.992,0.096
		c0.072-0.576,0.097-1.008,0.097-1.68v-3.144c0-0.648-0.024-1.056-0.097-1.729c0.624,0.072,1.104,0.096,1.968,0.096h2.593v-1.44
		h-3.408c-0.984,0-1.488,0.024-2.089,0.12v-1.512c0.576,0.096,1.08,0.12,2.089,0.12h3.408V51.737z M266.157,55.841v1.536h3.12
		v-1.536H266.157z M266.157,58.434v1.584h3.12v-1.584H266.157z M273.837,57.377v-1.536h-3.264v1.536H273.837z M273.837,60.018
		v-1.584h-3.264v1.584H273.837z M272.253,49.601c1.057,0.48,1.488,0.744,2.4,1.44l-0.936,0.84c-0.744-0.672-1.32-1.032-2.424-1.536
		L272.253,49.601z M285.742,55.529c-0.504-0.096-0.912-0.12-1.823-0.144c-0.145,2.232-0.265,3.145-0.601,4.705
		c-0.456,2.04-1.056,3.672-1.992,5.4c1.248,1.896,2.856,3.48,4.801,4.729c-0.553,0.6-0.696,0.792-1.032,1.416
		c-1.872-1.392-3.313-2.928-4.585-4.824c-1.392,2.04-2.88,3.504-4.896,4.896c-0.313-0.576-0.601-0.912-1.057-1.296
		c2.088-1.224,3.769-2.856,5.112-4.993c-1.032-1.872-1.824-3.936-2.304-5.928c-0.385,0.84-0.576,1.2-1.104,2.04
		c-0.384-0.552-0.624-0.816-1.056-1.08c1.32-1.968,2.208-4.32,2.88-7.705c0.24-1.296,0.384-2.256,0.384-2.832
		c0-0.048,0-0.12,0-0.216l1.656,0.336c-0.144,0.456-0.144,0.456-0.647,2.977c-0.072,0.384-0.12,0.624-0.217,1.008h4.249
		c1.104,0,1.584-0.024,2.231-0.144V55.529z M278.878,55.385c-0.216,0.768-0.36,1.248-0.672,2.088
		c0.479,2.472,1.152,4.392,2.28,6.528c0.696-1.44,1.128-2.784,1.488-4.512c0.288-1.416,0.359-2.16,0.456-4.104H278.878z"/>
</g>
<g>
	<path d="M399.235,8.641c1.128,0,1.872-0.048,2.568-0.144v1.704c-0.672-0.096-1.512-0.144-2.568-0.144h-6.528
		c2.136,3.313,5.521,6.001,9.816,7.801c-0.504,0.6-0.672,0.864-1.08,1.608c-2.496-1.296-4.392-2.616-6.12-4.225
		c-1.512-1.392-2.496-2.664-3.433-4.368c0.048,0.768,0.048,0.768,0.097,2.472v5.472c0,1.104,0.047,2.017,0.168,2.929h-1.873
		c0.121-0.888,0.168-1.848,0.168-2.953v-5.424c0-1.008,0.024-1.824,0.096-2.472c-1.151,2.016-2.16,3.288-3.959,4.992
		c-1.369,1.296-2.641,2.185-4.969,3.553c-0.36-0.696-0.576-0.984-1.129-1.512c2.568-1.2,4.465-2.497,6.313-4.32
		c1.129-1.104,2.137-2.353,2.857-3.553h-6.001c-1.056,0-1.896,0.048-2.593,0.144V8.497c0.672,0.096,1.416,0.144,2.593,0.144h6.792
		V2.52c0-0.984-0.047-1.584-0.168-2.352h1.873c-0.121,0.648-0.168,1.344-0.168,2.352v6.121H399.235z M386.466,7.657
		c-0.936-2.136-1.728-3.48-3.191-5.376l1.32-0.816c1.463,1.944,2.231,3.216,3.287,5.352L386.466,7.657z M394.603,7.009
		c1.608-1.824,2.521-3.289,3.505-5.617l1.487,0.84c-1.104,2.184-2.039,3.624-3.744,5.664L394.603,7.009z"/>
	<path d="M414.331,2.04c0-0.768-0.072-1.536-0.168-2.04h1.92c-0.12,0.6-0.168,1.224-0.168,2.04v1.464h7.536
		c1.177,0,2.017-0.048,2.736-0.168v1.728c-0.624-0.096-1.319-0.144-2.712-0.144h-16.033c-1.176,0-1.969,0.048-2.664,0.144V3.336
		c0.791,0.12,1.584,0.168,2.688,0.168h6.865V2.04z M414.331,7.44c0-0.744-0.024-1.296-0.121-1.896h1.801
		c-0.072,0.432-0.12,1.056-0.12,1.92v0.768h5.688c0.961,0,1.561-0.024,2.28-0.096c-0.071,0.6-0.097,1.152-0.097,1.944v6.913
		c0,1.56-0.479,1.968-2.447,1.968c-0.984,0-1.393-0.024-2.496-0.096c-0.072-0.624-0.168-1.032-0.408-1.608
		c1.104,0.168,2.04,0.24,2.809,0.24c0.768,0,0.959-0.144,0.959-0.672V9.601h-6.288v9.553c0,0.984,0.048,1.8,0.168,2.616h-1.896
		c0.119-0.912,0.168-1.68,0.168-2.616V9.601h-5.689v7.225c0,1.104,0.049,1.896,0.145,2.592h-1.896
		c0.096-0.768,0.145-1.512,0.145-2.592v-6.721c0-0.744-0.024-1.344-0.096-1.968c0.695,0.072,1.32,0.096,2.304,0.096h5.089V7.44z"/>
	<path d="M431.729,2.856c0-1.128-0.047-1.968-0.144-2.641h1.776c-0.12,0.744-0.145,1.488-0.145,2.665v3.312h0.576
		c0.937,0,1.465-0.024,1.992-0.096v1.536c-0.695-0.072-1.32-0.096-1.992-0.096h-0.576v6.168c0.769-0.408,1.129-0.624,2.041-1.224
		l0.096,1.44c-1.393,0.888-3.576,2.088-4.992,2.712c-0.385,0.168-1.057,0.504-1.272,0.624l-0.456-1.68
		c0.912-0.192,1.152-0.288,3.096-1.176V7.537h-1.031c-0.769,0-1.416,0.048-2.041,0.12V6.073c0.648,0.096,1.225,0.12,2.089,0.12
		h0.983V2.856z M438.475,13.825c-1.104,1.248-2.304,2.184-4.032,3.192c-0.288-0.432-0.6-0.792-0.984-1.08
		c2.832-1.44,4.584-3.048,5.568-5.064h-1.464c-0.983,0-1.681,0.048-2.16,0.144v-1.56c0.528,0.096,1.104,0.144,2.208,0.144h10.249
		c1.152,0,1.849-0.048,2.376-0.144v1.512c-0.6-0.072-1.32-0.096-2.376-0.096h-7.345c-0.384,0.72-0.576,1.032-1.104,1.752h7.944
		c1.177,0,1.752-0.024,2.353-0.096c-0.049,0.312-0.072,0.456-0.121,1.416c-0.191,2.832-0.623,5.568-1.055,6.408
		c-0.433,0.864-1.033,1.104-2.665,1.104c-0.552,0-1.345-0.048-2.088-0.096c-0.072-0.6-0.192-1.008-0.48-1.56
		c1.128,0.192,2.017,0.264,2.856,0.264c0.96,0,1.128-0.192,1.439-1.632c0.265-1.2,0.433-2.736,0.529-4.608h-1.609
		c-0.647,1.512-1.248,2.544-2.136,3.625c-0.72,0.888-2.063,2.232-2.952,2.952c-0.552,0.432-0.984,0.744-1.943,1.344
		c-0.361-0.528-0.553-0.696-1.105-1.128c2.137-1.152,3.409-2.16,4.705-3.648c0.84-0.984,1.488-1.992,1.969-3.144h-2.377
		c-1.368,2.352-3.528,4.296-6.601,6c-0.264-0.456-0.528-0.744-1.032-1.128c2.785-1.272,4.945-3,6.072-4.873H438.475z M439.243,8.017
		c-0.984,0-1.656,0.024-2.185,0.096c0.071-0.648,0.096-1.248,0.096-2.16V2.832c0-1.104-0.024-1.416-0.096-2.112
		c0.72,0.096,1.248,0.12,2.304,0.12h6.266c1.104,0,1.823-0.024,2.496-0.12c-0.072,0.624-0.097,1.128-0.097,2.232v3
		c0,1.104,0.024,1.704,0.097,2.136c-0.529-0.048-1.272-0.072-2.209-0.072H439.243z M438.571,3.84h8.04V2.088h-8.04V3.84z
		 M438.571,6.841h8.04V5.017h-8.04V6.841z"/>
</g>
<g>
	<path d="M133.339,100.123c-1.2,2.44-1.4,2.761-2.98,5.081l-1.121-0.96c0.68-0.66,1.141-1.26,1.821-2.341
		c0.5-0.8,0.8-1.42,1.32-2.661L133.339,100.123z M132.319,98.002c-0.88-0.88-1.681-1.46-2.941-2.16l0.72-0.9
		c1.28,0.72,1.88,1.12,2.98,2.041L132.319,98.002z M134.599,88.54c0-0.52-0.04-0.88-0.08-1.26h1.36c-0.06,0.38-0.08,0.72-0.08,1.26
		v0.22h4.721v-0.22c0-0.52-0.02-0.86-0.06-1.26h1.36c-0.06,0.38-0.08,0.7-0.08,1.26v0.22h3.381c0.86,0,1.48-0.04,2.02-0.12v1.3
		c-0.58-0.08-1.2-0.12-2.02-0.12h-3.381c0,0.54,0.02,0.8,0.08,1.16h-1.36c0.04-0.38,0.06-0.62,0.06-1.16h-4.721
		c0,0.64,0.02,0.94,0.08,1.34h-1.36c0.06-0.4,0.08-0.72,0.08-1.34h-3.121c-0.82,0-1.44,0.04-2.021,0.12v-1.3
		c0.54,0.08,1.16,0.12,2.021,0.12h3.121V88.54z M132.979,94.221c-0.92-0.96-1.641-1.58-2.821-2.32l0.78-0.84
		c1.2,0.78,1.88,1.32,2.86,2.261L132.979,94.221z M135.6,96.021c-0.84,0-1.4,0.02-1.9,0.1v-1.18c0.46,0.08,1,0.1,1.9,0.1h1.18
		c-0.36-0.58-0.58-0.88-1.021-1.32l1.021-0.44c0.54,0.66,0.78,1.04,1.14,1.76h1.78v-2.141c-1.6,0.12-1.6,0.12-2.061,0.14
		c-0.24,0-0.24,0-1.52,0.06c-0.42,0-0.52,0.02-1.2,0.04c-0.08-0.38-0.18-0.66-0.4-1.08c0.34,0.02,0.62,0.02,0.78,0.02
		c4.221,0,8.342-0.5,9.742-1.181l0.96,1.041c-2,0.46-3.541,0.7-5.221,0.86v2.241h1.841c0.7-0.9,1.12-1.581,1.46-2.46l1.16,0.4
		c-0.54,0.88-0.9,1.4-1.4,2.061h1.32c0.92,0,1.46-0.02,1.92-0.1v1.18c-0.561-0.06-1.201-0.1-1.92-0.1h-3.381
		c1.38,1.26,3.361,2.281,5.881,3.021c-0.54,0.74-0.54,0.74-0.68,1.06c-0.68-0.28-0.9-0.36-1.681-0.74v4.041
		c0,0.8,0.04,1.5,0.12,2.081h-1.26v-0.8h-7.802v0.78h-1.24c0.08-0.6,0.12-1.3,0.12-2.061v-3.941c-0.56,0.28-0.74,0.36-1.34,0.62
		c-0.14-0.32-0.38-0.62-0.72-0.92c2.44-0.8,4.161-1.781,5.521-3.141H135.6z M136.359,99.783v1.46h3.281v-1.46H136.359z
		 M139.64,102.163h-3.281v1.56h3.281V102.163z M144.281,98.842c-1.48-0.8-2.5-1.541-3.561-2.641c0.04,0.38,0.06,0.74,0.06,1.061v0.3
		c0,0.36,0.02,0.68,0.08,0.96h-1.22c0.04-0.34,0.06-0.621,0.06-0.98v-0.28c0-0.32,0.02-0.74,0.06-1.061
		c-1.04,1.14-2.021,1.9-3.361,2.641H144.281z M144.181,101.243v-1.46h-3.46v1.46H144.181z M144.181,103.723v-1.56h-3.46v1.56
		H144.181z"/>
	<path d="M157.38,98.662c-1.16,2.641-2.341,3.841-3.781,3.841c-1.9,0-3.321-2.08-3.321-4.881c0-2.041,0.76-4.021,2.101-5.521
		c1.6-1.761,3.781-2.661,6.461-2.661c2.241,0,4.201,0.7,5.501,1.98c1.26,1.22,1.94,2.96,1.94,4.881c0,3.101-1.681,5.661-4.581,6.901
		c-0.9,0.38-1.66,0.62-3.041,0.92c-0.2-0.66-0.32-0.86-0.7-1.34c1.46-0.24,2.4-0.5,3.341-0.94c2.2-1,3.541-3.141,3.541-5.601
		c0-2.28-1.16-4.121-3.181-5.021c-0.74-0.32-1.32-0.46-2.32-0.5C159.04,93.501,158.28,96.562,157.38,98.662z M154.919,91.681
		c-2.021,1.22-3.261,3.481-3.261,5.961c0,1.92,0.84,3.401,1.92,3.401c0.84,0,1.64-0.94,2.5-2.901c0.82-1.88,1.56-4.841,1.82-7.401
		C156.7,90.841,155.839,91.121,154.919,91.681z"/>
	<path d="M175.299,95.521c0-0.82-0.04-1.24-0.12-1.68h1.46c-0.08,0.5-0.1,0.96-0.1,1.68v1.36h2.081c0.82,0,1.14-0.02,1.64-0.1v1.3
		c-0.48-0.08-0.88-0.1-1.64-0.1h-2.081v4.421c1.48-0.36,2.32-0.6,4.221-1.18l0.04,1.2c-3.881,1.121-6.241,1.681-10.042,2.401
		c-0.34,0.06-0.5,0.1-1.06,0.24l-0.32-1.42c0.5,0,1.24-0.08,2.121-0.22v-5.601c0-0.84-0.04-1.3-0.12-1.781h1.44
		c-0.08,0.521-0.1,1-0.1,1.741v5.441c1.18-0.24,1.36-0.28,2.581-0.54V95.521z M185.042,92.101c0.86,0,1.44-0.04,2-0.12v1.4
		c-0.56-0.08-1.22-0.12-2.081-0.12h-2.721c0.14,2.96,0.52,5.381,1.1,7.162c0.601,1.82,1.541,3.32,2.081,3.32
		c0.24,0,0.46-0.36,0.64-1.1c0.1-0.46,0.18-1,0.3-2.101c0.44,0.42,0.72,0.62,1.14,0.82c-0.46,2.781-1.02,3.901-1.96,3.901
		c-1.3,0-2.821-2.141-3.641-5.161c-0.5-1.86-0.78-3.921-0.94-6.841h-9.282c-0.82,0-1.46,0.04-2.061,0.12v-1.4
		c0.54,0.08,1.18,0.12,2.081,0.12h9.222c-0.04-0.92-0.04-1.701-0.06-2.801c0-0.78-0.04-1.32-0.12-1.72h1.521
		c-0.08,0.4-0.12,0.96-0.12,1.78c0,0.24,0.02,1.16,0.06,2.741H185.042z M178.82,90.141c-0.521-0.08-1-0.1-1.741-0.1h-3.921
		c-0.74,0-1.26,0.02-1.76,0.1v-1.36c0.52,0.08,0.94,0.1,1.76,0.1h3.901c0.84,0,1.22-0.02,1.761-0.1V90.141z M185.361,91.461
		c-0.78-1.201-1.3-1.841-2.34-2.761l0.94-0.56c1.141,1,1.601,1.52,2.361,2.661L185.361,91.461z"/>
	<path d="M197.36,89.581c0-0.78-0.041-1.4-0.141-2.081h1.68c-0.1,0.72-0.139,1.28-0.139,2.081v4.121h5.92
		c0.82,0,1.541-0.04,2.262-0.14v1.541c-0.74-0.1-1.4-0.14-2.241-0.14h-5.94v7.982h4.86c1.06,0,1.581-0.02,2.141-0.12v1.5
		c-0.58-0.08-1.12-0.12-2.141-0.12h-10.742c-1.041,0-1.601,0.04-2.161,0.12v-1.5c0.5,0.08,1.12,0.12,2.141,0.12h4.501v-7.982h-5.382
		c-0.86,0-1.62,0.04-2.4,0.14v-1.541c0.8,0.1,1.46,0.14,2.4,0.14h5.382V89.581z"/>
</g>
<g>
	<path d="M10.317,106.229c0.738-0.702,1.296-1.333,1.801-2.088c-0.756-1.909-1.17-4.105-1.296-6.698H2.953
		c0,2.935-0.144,5.149-0.414,6.716c-0.27,1.584-0.72,2.683-1.603,3.979c-0.378-0.432-0.504-0.54-0.918-0.846
		c0.792-1.008,1.17-1.855,1.44-3.169c0.234-1.134,0.378-3.169,0.378-5.546c0-1.026-0.018-1.566-0.09-2.197
		c0.486,0.072,0.954,0.09,1.818,0.09h7.238c-0.018-0.36-0.018-0.486-0.072-0.864h1.243c-0.072,0.342-0.09,0.522-0.09,0.864h2.485
		c-0.612-0.541-1.08-0.846-1.926-1.243l0.648-0.648c0.918,0.45,1.26,0.666,1.945,1.188l-0.63,0.702c0.792,0,1.278-0.036,1.729-0.108
		v1.188c-0.522-0.072-1.026-0.108-1.801-0.108h-2.449c0.108,2.215,0.378,3.871,0.937,5.546c0.828-1.585,1.333-3.079,1.477-4.412
		l1.116,0.432c-0.144,0.432-0.144,0.432-0.288,0.918c-0.504,1.638-1.081,2.971-1.836,4.249c0.63,1.387,1.494,2.521,1.926,2.521
		c0.018,0,0.054-0.018,0.09-0.018c0.144-0.108,0.198-0.216,0.306-0.702c0.09-0.504,0.18-1.17,0.234-1.909
		c0.36,0.342,0.63,0.54,0.99,0.72c-0.198,1.369-0.36,2.053-0.594,2.539c-0.198,0.414-0.522,0.63-0.882,0.63
		c-0.828,0-1.8-0.99-2.755-2.773c-0.918,1.261-1.638,1.98-2.863,2.935c-0.27-0.342-0.468-0.522-0.864-0.774
		c0.685-0.45,0.937-0.648,1.314-1.008c-0.36-0.018-1.044-0.036-1.548-0.036H5.023v1.152H3.907c0.072-0.648,0.09-1.17,0.09-1.854
		v-5.509c0-0.667-0.018-1.063-0.054-1.495c0.396,0.036,0.756,0.054,1.477,0.054h3.187c0.828,0,1.225-0.018,1.674-0.09v1.044
		c-0.522-0.054-0.918-0.072-1.638-0.072H7.94v1.386h0.864l0.648-0.018l0.27,0.018c0.072,0,0.144-0.018,0.432-0.036
		c-0.036,0.288-0.036,0.414-0.036,0.81v1.333c0,0.306,0,0.414,0.036,0.829c-0.45-0.018-0.594-0.018-1.332-0.018H7.94v1.548h0.702
		c0.792,0,1.296-0.018,1.674-0.072V106.229z M5.149,93.014c0-0.432-0.018-0.667-0.072-1.026H6.32
		c-0.054,0.36-0.072,0.576-0.072,1.044v0.252h4.16v-0.252c0-0.432-0.018-0.702-0.072-1.044h1.225
		c-0.054,0.36-0.072,0.594-0.072,1.044v0.252h3.025c0.774,0,1.333-0.036,1.836-0.108v1.188c-0.54-0.072-1.08-0.108-1.836-0.108
		h-3.025c0,0.45,0.018,0.648,0.072,0.99h-1.225c0.054-0.342,0.054-0.522,0.072-0.99h-4.16v0.378c0,0.468,0.018,0.684,0.072,1.026
		H5.078c0.054-0.36,0.072-0.576,0.072-1.008v-0.396H2.269c-0.756,0-1.296,0.036-1.818,0.108v-1.188
		c0.486,0.072,1.062,0.108,1.818,0.108h2.881V93.014z M7.022,100.918v-1.386h-2.07v1.386H7.022z M9.201,103.042v-1.333H4.952v1.333
		H9.201z M4.952,103.835v1.548h2.07v-1.548H4.952z"/>
	<path d="M19.854,96.524c-0.216,1.099-0.414,1.801-0.846,2.881c-0.342-0.252-0.594-0.396-0.99-0.558
		c0.756-1.674,1.134-3.421,1.134-5.204c0-0.198,0-0.252-0.018-0.468l1.152,0.18c-0.036,0.306-0.054,0.45-0.108,0.955
		c-0.072,0.54-0.09,0.792-0.144,1.188h1.296v-2.251c0-0.612-0.036-1.008-0.126-1.494h1.35c-0.09,0.468-0.108,0.864-0.108,1.494
		v2.251h0.828c0.558,0,0.811-0.018,1.117-0.09v1.17c-0.378-0.054-0.667-0.072-1.117-0.072h-0.828v4.016
		c0.81-0.324,1.116-0.45,2.035-0.882v1.08c-0.918,0.432-1.207,0.558-2.035,0.9v4.664c0,0.648,0.036,1.278,0.108,1.891h-1.35
		c0.09-0.576,0.126-1.152,0.126-1.891v-4.231c-1.639,0.594-2.539,0.937-2.701,1.008l-0.36-1.278c0.738-0.09,1.584-0.324,3.061-0.846
		v-4.412H19.854z M29.235,95.769c-0.468,1.747-0.864,2.791-1.548,3.979c-0.847,1.458-1.909,2.665-3.295,3.727
		c-0.234-0.36-0.486-0.612-0.847-0.882c1.477-1.008,2.431-2.017,3.277-3.475c0.612-1.044,0.936-1.854,1.332-3.349h-1.62
		c-0.576,1.116-1.099,1.926-1.945,2.935c-0.342-0.36-0.504-0.486-0.918-0.72c1.026-1.116,1.603-1.962,2.215-3.349
		c0.432-0.955,0.72-1.837,0.882-2.809l1.26,0.27c-0.126,0.288-0.126,0.288-0.486,1.296c-0.162,0.45-0.306,0.828-0.541,1.386h5.546
		c0.774,0,1.188-0.018,1.53-0.072c-0.072,0.486-0.072,0.54-0.126,2.539c-0.072,2.719-0.216,5.24-0.414,6.932
		c-0.342,2.971-0.792,3.601-2.557,3.601c-0.468,0-1.063-0.054-2.035-0.198c-0.054-0.486-0.144-0.846-0.324-1.261
		c1.026,0.252,1.692,0.36,2.359,0.36c0.774,0,1.044-0.342,1.26-1.621c0.342-1.98,0.522-4.934,0.594-9.291h-0.792
		c-0.36,1.782-0.522,2.395-0.918,3.547c-0.702,1.98-1.621,3.673-2.809,5.167c-0.972,1.242-1.854,2.035-3.493,3.241
		c-0.306-0.414-0.486-0.594-0.918-0.882c2.358-1.548,3.925-3.205,5.167-5.51c0.918-1.674,1.477-3.295,1.909-5.563H29.235z"/>
</g>
<g>
	<path d="M365.419,134.284c-0.576,1.548-0.973,2.214-1.927,3.295c-0.288-0.324-0.486-0.504-0.9-0.738
		c0.954-0.955,1.368-1.639,1.872-3.025L365.419,134.284z M364.969,133.258c-0.847,0-1.099,0-1.423,0.054
		c0.036-0.468,0.055-0.972,0.055-1.656v-7.922c0-0.684-0.019-1.207-0.072-1.584c0.432,0.036,0.9,0.054,1.621,0.054h1.943
		c0.883,0,1.117,0,1.566-0.054c-0.053,0.45-0.053,0.63-0.053,1.512v8.049c0,0.774,0.018,1.224,0.053,1.602
		c-0.521-0.036-0.846-0.054-1.494-0.054H364.969z M364.663,125.515h2.898v-2.34h-2.898V125.515z M364.663,128.864h2.898v-2.413
		h-2.898V128.864z M364.663,132.303h2.898v-2.502h-2.898V132.303z M367.147,133.798c0.414,0.99,0.721,1.512,1.242,2.269
		c-0.414,0.252-0.666,0.432-0.883,0.648c-0.468-0.756-0.647-1.117-1.26-2.503L367.147,133.798z M371.271,127.694
		c-0.018,1.819-0.234,4.339-0.504,5.744c-0.342,1.746-0.793,2.935-1.675,4.285c-0.343-0.396-0.485-0.522-0.919-0.774
		c1.549-2.125,2.018-4.987,2.018-12.406c0-1.044-0.018-1.638-0.072-2.25c0.666,0.072,1.207,0.09,1.908,0.09h5.258
		c0.721,0,1.278-0.036,1.765-0.108v1.26c-0.433-0.072-0.954-0.09-1.729-0.09h-6.014v1.512l-0.019,1.729h5.186
		c0.738,0,1.189-0.018,1.494-0.09l0.613,0.684c-0.09,0.216-0.145,0.342-0.252,0.685c-0.883,2.683-1.549,4.051-2.684,5.6
		c1.045,1.278,2.215,2.232,3.728,2.989c-0.324,0.342-0.522,0.612-0.774,1.062c-1.584-0.972-2.611-1.836-3.673-3.151
		c-1.188,1.369-2.358,2.323-4.033,3.295c-0.306-0.468-0.505-0.685-0.847-0.955c1.818-0.882,2.953-1.729,4.213-3.241
		c-1.152-1.765-1.818-3.493-2.232-5.87H371.271z M373.071,127.694c0.306,1.873,0.9,3.403,1.908,4.934
		c1.045-1.494,1.603-2.719,2.251-4.934H373.071z"/>
	<path d="M387.524,130.575c-0.055,0.271-0.072,0.396-0.09,0.738c-0.019,0.252-0.162,1.17-0.217,1.495
		c-0.234,1.152-0.9,2.25-1.891,3.079c-0.936,0.811-1.801,1.243-3.492,1.765c-0.234-0.486-0.396-0.738-0.775-1.134
		c1.171-0.252,1.711-0.45,2.432-0.828c1.872-1.044,2.736-2.449,2.736-4.429c0-0.271-0.018-0.414-0.055-0.72L387.524,130.575z
		 M388.226,123.049c0-0.756-0.018-1.17-0.107-1.657h1.332c-0.072,0.414-0.107,0.864-0.107,1.657v0.342h5.401
		c0.937,0,1.495-0.036,1.962-0.108v1.225c-0.539-0.072-1.152-0.108-1.943-0.108h-5.42v1.854h4.159c0.972,0,1.476-0.018,1.908-0.108
		v1.188c-0.522-0.072-0.954-0.09-1.908-0.09h-9.183c-0.865,0-1.369,0.018-1.891,0.09v-1.188c0.432,0.072,0.936,0.108,1.891,0.108
		h3.906v-1.854h-4.969c-0.864,0-1.387,0.036-1.998,0.108v-1.225c0.467,0.072,1.025,0.108,2.016,0.108h4.951V123.049z
		 M381.33,132.124c0.054-0.396,0.072-0.72,0.072-1.225v-1.026c0-0.504-0.019-0.828-0.072-1.224c0.558,0.054,1.009,0.072,1.782,0.072
		h11.596c0.811,0,1.242-0.018,1.801-0.072c-0.055,0.378-0.072,0.684-0.072,1.206v1.026c0,0.541,0.018,0.882,0.072,1.243h-1.225
		v-2.395h-12.748v2.395H381.33z M391.017,135.563c0,0.54,0.199,0.612,1.837,0.612c1.675,0,2.179-0.072,2.413-0.378
		s0.378-0.99,0.468-2.395c0.343,0.198,0.72,0.36,1.134,0.45c-0.144,1.638-0.414,2.521-0.846,2.917
		c-0.414,0.36-1.225,0.486-3.097,0.486c-1.333,0-2.017-0.072-2.485-0.234c-0.432-0.162-0.576-0.432-0.576-1.063v-3.961
		c0-0.774-0.018-1.099-0.09-1.44h1.351c-0.071,0.378-0.108,0.756-0.108,1.404V135.563z"/>
</g>
<g>
	<path d="M0.396,189.878c0.432,0.072,0.702,0.09,1.387,0.09h0.936c0.522,0,0.954-0.036,1.386-0.09
		c-0.072,0.576-0.09,1.008-0.09,1.908v3.493c0.594,1.063,1.026,1.477,1.944,1.836c0.703,0.27,1.891,0.378,3.979,0.378
		c3.097,0,5.257-0.108,6.968-0.36c-0.27,0.612-0.306,0.738-0.414,1.314c-2.484,0.09-3.943,0.126-5.744,0.126
		c-2.737,0-3.817-0.072-4.735-0.36c-1.17-0.342-1.783-0.811-2.593-1.981c-0.828,0.811-1.207,1.17-2.179,1.909
		c-0.162,0.126-0.432,0.36-0.648,0.558L0,197.512c0.864-0.415,1.909-1.188,2.899-2.197v-4.339H1.71c-0.594,0-0.864,0.018-1.314,0.09
		V189.878z M1.638,183.252c1.207,1.152,1.837,1.836,2.881,3.187l-0.918,0.811c-1.026-1.477-1.584-2.125-2.791-3.259L1.638,183.252z
		 M7.382,187.249c-0.667,0-1.225,0.036-1.711,0.108v-1.207c0.468,0.072,1.063,0.108,1.711,0.108h3.835
		c0.666-1.063,1.152-2.035,1.674-3.349l1.099,0.45c-0.882,1.765-1.044,2.053-1.584,2.899h1.62c0.667,0,1.225-0.036,1.693-0.108
		v1.207c-0.504-0.072-1.063-0.108-1.729-0.108h-3.061c-0.018,1.333-0.072,1.909-0.198,2.827h3.799c0.702,0,1.278-0.036,1.729-0.108
		v1.242c-0.45-0.072-1.098-0.108-1.8-0.108h-3.277c0.378,0.792,0.774,1.386,1.369,2.017c0.99,1.026,1.999,1.639,3.745,2.25
		c-0.324,0.342-0.504,0.648-0.667,1.081c-1.476-0.612-2.376-1.152-3.313-2.053c-0.864-0.81-1.44-1.621-1.926-2.737
		c-0.648,1.963-2.035,3.439-4.394,4.664c-0.198-0.378-0.432-0.667-0.81-0.937c2.413-1.098,3.655-2.358,4.231-4.285H6.896
		c-0.684,0-1.278,0.036-1.765,0.108v-1.242c0.468,0.072,1.081,0.108,1.765,0.108h2.737c0.126-0.882,0.162-1.404,0.18-2.827H7.382z
		 M7.85,182.838c0.667,0.9,1.063,1.566,1.584,2.646l-0.972,0.558c-0.522-1.116-0.918-1.8-1.584-2.683L7.85,182.838z"/>
	<path d="M23.726,189.193c-0.738,0-1.188,0.018-1.674,0.09v-1.081c-1.134,0.756-1.945,1.188-3.277,1.747
		c-0.234-0.45-0.342-0.612-0.756-1.062c3.511-1.333,6.122-3.295,7.598-5.708h1.386c0.756,1.17,1.729,2.161,3.223,3.259
		c1.512,1.099,2.863,1.801,4.699,2.413c-0.306,0.378-0.522,0.738-0.72,1.152c-1.404-0.576-2.143-0.973-3.511-1.837v1.117
		c-0.468-0.072-0.9-0.09-1.657-0.09H26.84v2.449h5.024c0.792,0,1.26-0.036,1.764-0.108v1.26c-0.522-0.072-1.026-0.108-1.764-0.108
		H26.84v4.753h5.276c0.792,0,1.404-0.036,1.962-0.108v1.296c-0.594-0.09-1.242-0.126-1.98-0.126H20.755
		c-0.702,0-1.351,0.036-2.053,0.126v-1.296c0.594,0.072,1.224,0.108,2.053,0.108h4.916v-4.753h-4.682
		c-0.684,0-1.242,0.036-1.747,0.108v-1.26c0.504,0.072,1.008,0.108,1.765,0.108h4.664v-2.449H23.726z M22.087,193.245
		c0.666,1.081,1.044,1.891,1.584,3.259l-1.044,0.414c-0.45-1.261-0.9-2.215-1.566-3.205L22.087,193.245z M29.037,188.203
		c0.756,0,1.188-0.018,1.584-0.072c-1.854-1.225-3.151-2.413-4.303-3.943c-1.116,1.566-2.323,2.719-4.141,3.943
		c0.36,0.054,0.828,0.072,1.53,0.072H29.037z M31.648,193.749c-0.828,1.674-1.134,2.196-1.927,3.349l-1.008-0.414
		c0.756-0.99,1.296-2.017,1.8-3.403L31.648,193.749z"/>
</g>
<g>
	<path d="M400.659,191.354c0-0.846,0.018-1.458,0.072-2.232c-0.685,1.17-1.116,1.692-2.341,2.899
		c-0.343-0.612-0.396-0.667-0.757-1.008c1.819-1.675,3.098-3.457,4.052-5.654c0.378-0.882,0.666-1.765,0.774-2.413l1.26,0.45
		c-0.162,0.396-0.162,0.396-0.414,1.044c-0.359,0.955-0.954,2.143-1.494,3.097v9.579c0,0.846,0.036,1.495,0.126,2.143h-1.404
		c0.09-0.612,0.126-1.188,0.126-2.197V191.354z M408.275,189.067c0.468,2.899,1.135,4.844,2.269,6.554
		c0.828,1.242,1.729,2.125,2.179,2.125c0.216,0,0.36-0.162,0.505-0.594c0.162-0.504,0.287-1.314,0.414-2.376
		c0.449,0.396,0.72,0.594,1.063,0.774c-0.414,2.575-0.919,3.529-1.873,3.529c-1.242,0-3.043-1.927-4.268-4.538
		c-0.666-1.458-1.152-3.205-1.477-5.365l-2.448,0.252c-0.757,0.072-1.243,0.144-1.782,0.27l-0.072-1.296
		c0.216,0.018,0.288,0.018,0.359,0.018c0.343,0,0.955-0.036,1.459-0.09l2.341-0.234c-0.126-1.152-0.198-2.233-0.216-3.151
		c-0.019-0.774-0.055-1.278-0.127-1.639l1.387-0.018c-0.072,0.342-0.09,0.667-0.09,1.188c0,1.081,0.055,1.999,0.234,3.493
		l4.23-0.432c1.027-0.108,1.387-0.162,1.818-0.288l0.109,1.296c-0.109,0-0.145,0-0.199,0h-0.233c-0.234,0-0.864,0.036-1.368,0.09
		L408.275,189.067z M410.022,183.324c1.152,0.9,1.764,1.458,2.898,2.647l-0.864,0.828c-0.738-0.954-1.675-1.873-2.809-2.791
		L410.022,183.324z"/>
	<path d="M421.558,189.193c-0.738,0-1.188,0.018-1.674,0.09v-1.081c-1.135,0.756-1.945,1.188-3.277,1.747
		c-0.234-0.45-0.342-0.612-0.756-1.062c3.511-1.333,6.121-3.295,7.598-5.708h1.387c0.756,1.17,1.729,2.161,3.223,3.259
		c1.513,1.099,2.863,1.801,4.699,2.413c-0.306,0.378-0.521,0.738-0.72,1.152c-1.404-0.576-2.143-0.973-3.511-1.837v1.117
		c-0.469-0.072-0.9-0.09-1.656-0.09h-2.197v2.449h5.023c0.793,0,1.261-0.036,1.765-0.108v1.26c-0.522-0.072-1.026-0.108-1.765-0.108
		h-5.023v4.753h5.275c0.793,0,1.404-0.036,1.963-0.108v1.296c-0.594-0.09-1.242-0.126-1.98-0.126h-11.344
		c-0.701,0-1.35,0.036-2.053,0.126v-1.296c0.595,0.072,1.225,0.108,2.053,0.108h4.916v-4.753h-4.682
		c-0.684,0-1.242,0.036-1.746,0.108v-1.26c0.504,0.072,1.008,0.108,1.764,0.108h4.664v-2.449H421.558z M419.92,193.245
		c0.666,1.081,1.044,1.891,1.584,3.259l-1.044,0.414c-0.45-1.261-0.9-2.215-1.566-3.205L419.92,193.245z M426.87,188.203
		c0.756,0,1.188-0.018,1.584-0.072c-1.854-1.225-3.15-2.413-4.303-3.943c-1.117,1.566-2.323,2.719-4.142,3.943
		c0.36,0.054,0.828,0.072,1.53,0.072H426.87z M429.48,193.749c-0.828,1.674-1.134,2.196-1.927,3.349l-1.008-0.414
		c0.756-0.99,1.296-2.017,1.801-3.403L429.48,193.749z"/>
</g>
<g>
	<path d="M137.54,116.743c0-0.54-0.02-0.88-0.12-1.36h1.52c-0.08,0.38-0.12,0.94-0.12,1.36v0.88h6.301c0.88,0,1.52-0.04,2.08-0.12
		v1.34c-0.58-0.06-1.22-0.1-2.04-0.1h-2.661c-0.4,1.021-0.8,1.82-1.16,2.421h3.041c0.96,0,1.42-0.02,1.88-0.08
		c-0.06,0.5-0.08,0.92-0.08,1.62v9.382c0,0.7-0.16,1.121-0.5,1.34c-0.34,0.24-0.72,0.3-1.681,0.3c-0.56,0-1.3-0.02-2.22-0.08
		c-0.08-0.6-0.16-0.88-0.36-1.34c0.92,0.12,1.98,0.22,2.601,0.22c0.72,0,0.9-0.12,0.9-0.54v-9.742h-4.501v1.94
		c0,0.36,0.12,0.4,1.26,0.4c1.18,0,1.42-0.04,1.541-0.3c0.1-0.18,0.14-0.42,0.2-1.141c0.28,0.2,0.66,0.38,1.021,0.46
		c-0.26,1.84-0.52,2.021-2.861,2.021c-1.94,0-2.32-0.18-2.32-1.121v-2.26h-2.38c-0.16,1.02-0.26,1.32-0.581,1.92
		c-0.68,1.28-1.58,1.98-3.661,2.92c-0.22-0.42-0.36-0.6-0.76-1.02c1.94-0.7,2.781-1.26,3.341-2.34c0.22-0.44,0.32-0.74,0.42-1.48
		h-4.041v9.462c0,0.94,0.04,1.521,0.12,2.181h-1.5c0.08-0.68,0.12-1.26,0.12-2.181v-9.002c0-0.62-0.02-1.1-0.08-1.62
		c0.42,0.06,1.14,0.08,1.9,0.08h2.821c-0.22-0.8-0.561-1.641-0.98-2.421h-2.521c-0.8,0-1.46,0.04-2.041,0.1v-1.34
		c0.64,0.08,1.22,0.12,2.081,0.12h6.021V116.743z M141.881,129.606c0,0.86,0.02,1.16,0.08,1.741c-0.541-0.06-1.041-0.08-1.821-0.08
		h-4.401v1.02h-1.28c0.08-0.52,0.1-0.92,0.1-1.46v-2.96c0-0.52-0.02-0.94-0.08-1.38c0.58,0.04,0.94,0.06,1.701,0.06h3.96
		c1,0,1.44-0.02,1.821-0.06c-0.06,0.54-0.08,0.86-0.08,1.641V129.606z M140.041,121.165c0.56-0.94,0.84-1.541,1.12-2.421h-5.841
		c0.42,0.88,0.68,1.561,0.96,2.421H140.041z M135.739,130.226h4.961v-2.641h-4.961V130.226z"/>
	<path d="M159.04,115.983c-0.06,0.34-0.1,1.14-0.1,1.78c0,1.18,0.2,3.221,0.44,4.341c0.34,1.601,1.42,3.961,2.581,5.601
		c0.8,1.121,1.88,2.261,2.96,3.161c0.64,0.541,1.16,0.88,2.32,1.561c-0.48,0.44-0.7,0.68-1.04,1.26
		c-2.44-1.66-3.881-3.061-5.301-5.121c-1.24-1.82-2-3.681-2.601-6.361c-0.36,1.9-0.7,2.98-1.38,4.461
		c-0.7,1.54-1.58,2.82-2.86,4.101c-1.12,1.161-1.94,1.821-3.681,2.921c-0.34-0.54-0.58-0.8-1.081-1.18
		c2.021-1.12,2.921-1.78,4.081-3.021c2.781-2.98,4.141-6.821,4.141-11.742c0-0.84-0.02-1.24-0.08-1.76H159.04z"/>
	<path d="M140.38,154.727c0.82-0.78,1.44-1.48,2-2.32c-0.84-2.121-1.3-4.561-1.44-7.442h-8.742c0,3.261-0.16,5.721-0.46,7.462
		c-0.3,1.76-0.8,2.98-1.781,4.421c-0.42-0.48-0.56-0.6-1.02-0.94c0.88-1.12,1.3-2.061,1.6-3.521c0.26-1.26,0.42-3.521,0.42-6.162
		c0-1.14-0.02-1.74-0.1-2.44c0.54,0.08,1.06,0.1,2.021,0.1h8.042c-0.02-0.4-0.02-0.54-0.08-0.96h1.38c-0.08,0.38-0.1,0.581-0.1,0.96
		h2.761c-0.68-0.6-1.2-0.94-2.141-1.38l0.72-0.72c1.021,0.5,1.4,0.74,2.161,1.32l-0.7,0.78c0.88,0,1.42-0.04,1.92-0.12v1.32
		c-0.58-0.08-1.14-0.12-2-0.12h-2.721c0.12,2.46,0.42,4.301,1.041,6.162c0.92-1.761,1.48-3.421,1.64-4.901l1.24,0.48
		c-0.16,0.48-0.16,0.48-0.32,1.02c-0.56,1.82-1.2,3.301-2.041,4.721c0.7,1.54,1.66,2.8,2.141,2.8c0.02,0,0.06-0.02,0.1-0.02
		c0.16-0.12,0.22-0.24,0.34-0.78c0.1-0.56,0.2-1.3,0.26-2.12c0.4,0.38,0.7,0.6,1.101,0.8c-0.22,1.52-0.4,2.28-0.66,2.82
		c-0.22,0.46-0.58,0.7-0.98,0.7c-0.92,0-2-1.1-3.061-3.081c-1.02,1.4-1.82,2.2-3.181,3.261c-0.3-0.38-0.52-0.58-0.96-0.86
		c0.76-0.5,1.04-0.72,1.46-1.12c-0.4-0.02-1.16-0.04-1.72-0.04h-4.021v1.28h-1.24c0.08-0.72,0.1-1.3,0.1-2.061v-6.121
		c0-0.74-0.02-1.18-0.06-1.661c0.44,0.04,0.84,0.06,1.641,0.06h3.541c0.92,0,1.36-0.02,1.86-0.1v1.16
		c-0.58-0.06-1.02-0.08-1.82-0.08h-0.78v1.54h0.96l0.72-0.02l0.3,0.02c0.08,0,0.16-0.02,0.48-0.04c-0.04,0.32-0.04,0.46-0.04,0.9
		v1.48c0,0.34,0,0.46,0.04,0.92c-0.5-0.02-0.66-0.02-1.48-0.02h-0.98v1.72h0.78c0.88,0,1.44-0.02,1.86-0.08V154.727z
		 M134.639,140.043c0-0.48-0.02-0.74-0.08-1.14h1.38c-0.06,0.4-0.08,0.64-0.08,1.16v0.28h4.621v-0.28c0-0.48-0.02-0.78-0.08-1.16
		h1.36c-0.06,0.4-0.08,0.66-0.08,1.16v0.28h3.361c0.86,0,1.48-0.04,2.041-0.12v1.32c-0.6-0.08-1.201-0.12-2.041-0.12h-3.361
		c0,0.5,0.02,0.72,0.08,1.1h-1.36c0.06-0.38,0.06-0.58,0.08-1.1h-4.621v0.42c0,0.52,0.02,0.76,0.08,1.14h-1.38
		c0.06-0.4,0.08-0.64,0.08-1.12v-0.44h-3.201c-0.84,0-1.44,0.04-2.021,0.12v-1.32c0.54,0.08,1.18,0.12,2.021,0.12h3.201V140.043z
		 M136.72,148.825v-1.54h-2.301v1.54H136.72z M139.14,151.186v-1.48h-4.721v1.48H139.14z M134.419,152.066v1.72h2.301v-1.72H134.419
		z"/>
	<path d="M150.979,143.944c-0.24,1.22-0.46,2-0.94,3.201c-0.38-0.28-0.66-0.44-1.1-0.62c0.84-1.86,1.26-3.801,1.26-5.781
		c0-0.22,0-0.28-0.02-0.52l1.28,0.2c-0.04,0.34-0.06,0.5-0.12,1.061c-0.08,0.6-0.1,0.88-0.16,1.32h1.44v-2.5
		c0-0.68-0.04-1.121-0.14-1.661h1.5c-0.1,0.52-0.12,0.96-0.12,1.661v2.5h0.92c0.62,0,0.9-0.02,1.24-0.1v1.3
		c-0.42-0.06-0.74-0.08-1.24-0.08h-0.92v4.461c0.9-0.36,1.24-0.5,2.261-0.98v1.201c-1.021,0.48-1.34,0.62-2.261,1v5.181
		c0,0.72,0.04,1.42,0.12,2.101h-1.5c0.1-0.64,0.14-1.28,0.14-2.101v-4.701c-1.82,0.66-2.82,1.041-3,1.12l-0.4-1.42
		c0.82-0.1,1.761-0.36,3.401-0.94v-4.901H150.979z M161.4,143.104c-0.52,1.94-0.96,3.101-1.72,4.421
		c-0.94,1.621-2.121,2.961-3.661,4.141c-0.26-0.4-0.54-0.68-0.94-0.98c1.641-1.12,2.701-2.24,3.641-3.861
		c0.68-1.16,1.04-2.06,1.48-3.721h-1.8c-0.64,1.24-1.22,2.141-2.16,3.261c-0.38-0.4-0.561-0.54-1.021-0.8
		c1.14-1.24,1.78-2.18,2.46-3.721c0.48-1.06,0.8-2.041,0.98-3.121l1.4,0.3c-0.14,0.32-0.14,0.32-0.541,1.44
		c-0.18,0.5-0.34,0.92-0.6,1.541h6.162c0.86,0,1.32-0.02,1.7-0.08c-0.08,0.54-0.08,0.6-0.14,2.821
		c-0.08,3.021-0.24,5.821-0.46,7.702c-0.38,3.3-0.88,4-2.841,4c-0.52,0-1.18-0.06-2.26-0.22c-0.06-0.54-0.16-0.94-0.36-1.4
		c1.14,0.28,1.88,0.4,2.62,0.4c0.86,0,1.161-0.38,1.4-1.8c0.38-2.201,0.58-5.481,0.66-10.322h-0.88
		c-0.4,1.98-0.58,2.661-1.021,3.941c-0.78,2.201-1.8,4.081-3.121,5.741c-1.08,1.38-2.061,2.26-3.881,3.601
		c-0.34-0.46-0.54-0.66-1.02-0.98c2.621-1.72,4.361-3.561,5.741-6.121c1.02-1.861,1.64-3.661,2.12-6.182H161.4z"/>
	<path d="M177.38,150.045c-1.16,2.641-2.341,3.841-3.781,3.841c-1.9,0-3.321-2.08-3.321-4.881c0-2.041,0.76-4.021,2.101-5.521
		c1.6-1.761,3.781-2.661,6.461-2.661c2.241,0,4.201,0.7,5.501,1.98c1.26,1.22,1.94,2.96,1.94,4.881c0,3.101-1.681,5.661-4.581,6.901
		c-0.9,0.38-1.66,0.62-3.041,0.92c-0.2-0.66-0.32-0.86-0.7-1.34c1.46-0.24,2.4-0.5,3.341-0.94c2.2-1,3.541-3.141,3.541-5.601
		c0-2.28-1.16-4.121-3.181-5.021c-0.74-0.32-1.32-0.46-2.32-0.5C179.04,144.884,178.28,147.945,177.38,150.045z M174.919,143.064
		c-2.021,1.22-3.261,3.481-3.261,5.961c0,1.92,0.84,3.401,1.92,3.401c0.84,0,1.64-0.94,2.5-2.901c0.82-1.88,1.56-4.841,1.82-7.401
		C176.7,142.224,175.839,142.504,174.919,143.064z"/>
	<path d="M192.159,153.026c-0.64,1.72-1.08,2.46-2.141,3.661c-0.32-0.36-0.54-0.56-1-0.82c1.06-1.06,1.52-1.82,2.081-3.361
		L192.159,153.026z M191.659,151.886c-0.94,0-1.22,0-1.581,0.06c0.04-0.52,0.06-1.08,0.06-1.84v-8.802c0-0.76-0.02-1.34-0.08-1.76
		c0.48,0.04,1,0.06,1.8,0.06h2.161c0.98,0,1.24,0,1.74-0.06c-0.06,0.5-0.06,0.7-0.06,1.68v8.942c0,0.86,0.02,1.36,0.06,1.78
		c-0.58-0.04-0.94-0.06-1.66-0.06H191.659z M191.318,143.284h3.221v-2.601h-3.221V143.284z M191.318,147.005h3.221v-2.681h-3.221
		V147.005z M191.318,150.826h3.221v-2.781h-3.221V150.826z M194.079,152.486c0.46,1.101,0.8,1.681,1.38,2.521
		c-0.46,0.28-0.74,0.48-0.98,0.72c-0.52-0.84-0.72-1.24-1.4-2.78L194.079,152.486z M198.66,145.705
		c-0.021,2.021-0.261,4.821-0.56,6.381c-0.381,1.94-0.881,3.261-1.861,4.761c-0.38-0.44-0.541-0.58-1.021-0.86
		c1.72-2.36,2.241-5.541,2.241-13.783c0-1.161-0.02-1.821-0.08-2.501c0.74,0.08,1.34,0.1,2.12,0.1h5.841
		c0.801,0,1.421-0.04,1.961-0.12v1.4c-0.48-0.08-1.061-0.1-1.92-0.1H198.7v1.681l-0.02,1.92h5.761c0.819,0,1.32-0.02,1.66-0.1
		l0.681,0.76c-0.101,0.24-0.16,0.38-0.28,0.76c-0.98,2.98-1.721,4.501-2.981,6.221c1.16,1.42,2.461,2.48,4.142,3.321
		c-0.36,0.38-0.58,0.68-0.86,1.18c-1.76-1.08-2.9-2.041-4.081-3.501c-1.32,1.521-2.62,2.581-4.481,3.661
		c-0.34-0.521-0.56-0.76-0.939-1.061c2.021-0.98,3.281-1.92,4.682-3.601c-1.281-1.96-2.021-3.881-2.481-6.521H198.66z
		 M200.661,145.705c0.34,2.081,1,3.781,2.119,5.481c1.161-1.661,1.781-3.021,2.501-5.481H200.661z"/>
	<path d="M216.72,148.905c-0.061,0.3-0.08,0.44-0.1,0.82c-0.021,0.28-0.181,1.3-0.24,1.66c-0.26,1.28-1,2.5-2.101,3.421
		c-1.04,0.9-2.001,1.38-3.881,1.96c-0.261-0.54-0.44-0.82-0.86-1.26c1.301-0.28,1.9-0.5,2.701-0.92c2.08-1.16,3.04-2.721,3.04-4.921
		c0-0.3-0.021-0.46-0.06-0.8L216.72,148.905z M217.5,140.543c0-0.84-0.021-1.3-0.12-1.84h1.48c-0.08,0.46-0.12,0.96-0.12,1.84v0.38
		h6.001c1.041,0,1.66-0.04,2.181-0.12v1.36c-0.601-0.08-1.28-0.12-2.161-0.12h-6.021v2.061h4.62c1.081,0,1.641-0.02,2.121-0.12v1.32
		c-0.58-0.08-1.061-0.1-2.121-0.1h-10.201c-0.961,0-1.521,0.02-2.101,0.1v-1.32c0.479,0.08,1.04,0.12,2.101,0.12h4.341v-2.061
		h-5.521c-0.96,0-1.54,0.04-2.22,0.12v-1.36c0.52,0.08,1.14,0.12,2.24,0.12h5.501V140.543z M209.839,150.625
		c0.059-0.44,0.079-0.8,0.079-1.36v-1.141c0-0.56-0.021-0.92-0.079-1.36c0.619,0.06,1.119,0.08,1.979,0.08h12.883
		c0.9,0,1.38-0.02,2.001-0.08c-0.061,0.42-0.08,0.76-0.08,1.34v1.141c0,0.6,0.02,0.98,0.08,1.38h-1.361v-2.66h-14.162v2.66H209.839z
		 M220.601,154.446c0,0.6,0.22,0.68,2.041,0.68c1.859,0,2.42-0.08,2.68-0.42s0.42-1.1,0.521-2.661c0.38,0.22,0.8,0.4,1.261,0.5
		c-0.16,1.821-0.461,2.801-0.941,3.241c-0.459,0.4-1.359,0.54-3.44,0.54c-1.479,0-2.24-0.08-2.761-0.26
		c-0.48-0.18-0.64-0.48-0.64-1.18v-4.401c0-0.86-0.021-1.22-0.101-1.601h1.501c-0.08,0.42-0.12,0.84-0.12,1.561V154.446z"/>
	<path d="M239.9,147.765c0,0.9-0.74,1.64-1.641,1.64c-0.899,0-1.64-0.74-1.64-1.64c0-0.9,0.74-1.641,1.64-1.641
		C239.16,146.125,239.9,146.865,239.9,147.765z"/>
	<path d="M251.559,148.025c0-0.78,0.021-1.52,0.06-2.4c-0.58,1.061-1.061,1.701-2.1,2.821c-0.42-0.68-0.42-0.68-0.82-1.14
		c1.76-1.741,2.98-3.601,3.881-5.961c0.4-1.02,0.699-2.061,0.8-2.761l1.36,0.44c-0.12,0.28-0.2,0.52-0.36,1.08
		c-0.319,1-0.86,2.3-1.601,3.741v10.642c0,0.92,0.021,1.621,0.101,2.341h-1.44c0.08-0.76,0.12-1.38,0.12-2.401V148.025z
		 M259.9,145.785h-2.221c-1,0-1.479,0.02-2.12,0.08c0.04-0.54,0.08-1.061,0.08-1.8v-2.601c0-0.76-0.021-1.2-0.08-1.781
		c0.561,0.08,1.12,0.1,2.2,0.1h5.901c1.101,0,1.641-0.02,2.2-0.1c-0.08,0.621-0.08,1-0.08,1.821v2.581c0,0.82,0.021,1.26,0.08,1.78
		c-0.439-0.04-1.34-0.08-2.101-0.08h-2.66v2.121h4.081c0.74,0,1.4-0.04,1.96-0.12v1.36c-0.68-0.08-1.36-0.12-1.94-0.12h-3.761
		c1.141,1.48,1.641,2,2.701,2.86c1.16,0.96,2.22,1.621,3.62,2.241c-0.38,0.4-0.6,0.72-0.9,1.24c-1.22-0.74-2.16-1.4-3.181-2.3
		c-1.119-0.96-1.72-1.661-2.68-3.081c0.06,0.62,0.1,1.24,0.1,2.141v2.741c0,0.74,0.02,1.36,0.12,1.96h-1.44
		c0.08-0.62,0.12-1.24,0.12-1.96v-2.721c0-0.94,0.021-1.6,0.08-2.161c-0.94,1.5-1.681,2.341-3.041,3.481
		c-0.979,0.84-1.66,1.32-2.761,1.94c-0.26-0.44-0.539-0.78-0.92-1.12c1.601-0.78,2.66-1.5,3.921-2.621c0.96-0.86,1.4-1.36,2.3-2.641
		h-3.46c-0.761,0-1.421,0.04-1.98,0.12v-1.36c0.58,0.08,1.181,0.12,1.98,0.12h3.881V145.785z M256.88,144.645h7.642v-3.721h-7.642
		V144.645z"/>
	<path d="M272.259,141.304c-0.641,0.8-1.141,1.32-1.881,1.96c-0.359-0.4-0.42-0.44-1-0.8c1.521-1.1,2.521-2.34,3.201-3.981l1.26,0.4
		c-0.34,0.62-0.479,0.84-0.82,1.38h3.361c0.82,0,1.24-0.02,1.7-0.1v1.2c-0.54-0.06-0.681-0.06-1.54-0.06h-1.561
		c0.399,0.68,0.6,1.06,0.88,1.7l-1.101,0.48c-0.3-0.9-0.54-1.46-0.96-2.181H272.259z M278.72,142.424
		c-0.399-0.28-0.5-0.34-0.78-0.48c1.201-1.08,1.721-1.88,2.221-3.421l1.221,0.3c-0.24,0.56-0.38,0.86-0.7,1.44h4.781
		c0.859,0,1.22-0.02,1.74-0.1v1.24c-0.5-0.08-0.921-0.1-1.7-0.1h-2.641c0.399,0.6,0.66,1.06,0.939,1.66l-1.12,0.48
		c-0.38-0.96-0.56-1.32-1.06-2.141h-1.581c-0.319,0.44-0.399,0.54-1.12,1.3c-0.06-0.06-0.08-0.08-0.16-0.14
		c-0.06,0.42-0.06,0.52-0.06,1.08v0.34h5.981c0.92,0,1.38-0.02,2.021-0.08c-0.04,0.38-0.061,0.68-0.061,1.26v1.04
		c0,0.601,0.021,0.94,0.08,1.32h-1.28v-2.5h-14.063v2.5h-1.28c0.06-0.4,0.079-0.74,0.079-1.3v-1.04c0-0.54-0.02-0.9-0.079-1.28
		c0.58,0.06,1.04,0.08,1.96,0.08h5.421v-0.34c0-0.48-0.02-0.68-0.08-1.12H278.72z M272.619,156.847
		c0.08-0.68,0.119-1.22,0.119-2.021v-7.222c0-0.68-0.02-0.96-0.079-1.46c0.62,0.08,1.18,0.1,2,0.1h7.102c0.84,0,1.38-0.02,2-0.1
		c-0.04,0.38-0.06,0.8-0.06,1.46v1.16c0,0.7,0.02,1.101,0.08,1.521c-0.601-0.06-1.141-0.08-2.001-0.08h-7.841v1.46h8.722
		c0.86,0,1.32-0.02,1.84-0.08c-0.08,0.5-0.1,1.04-0.1,1.8v1.581c0,0.72,0.02,1.26,0.12,1.88h-1.32v-1h-9.262v1H272.619z
		 M273.939,149.186h8.581v-1.9h-8.581V149.186z M273.939,154.807h9.262v-2.081h-9.262V154.807z"/>
</g>
<g>
	<path d="M137.54,166.176c0-0.54-0.02-0.88-0.12-1.36h1.52c-0.08,0.38-0.12,0.94-0.12,1.36v0.88h6.301c0.88,0,1.52-0.04,2.08-0.12
		v1.34c-0.58-0.06-1.22-0.1-2.04-0.1h-2.661c-0.4,1.021-0.8,1.82-1.16,2.42h3.041c0.96,0,1.42-0.02,1.88-0.08
		c-0.06,0.5-0.08,0.92-0.08,1.62v9.382c0,0.7-0.16,1.121-0.5,1.34c-0.34,0.24-0.72,0.3-1.681,0.3c-0.56,0-1.3-0.02-2.22-0.08
		c-0.08-0.6-0.16-0.88-0.36-1.34c0.92,0.12,1.98,0.22,2.601,0.22c0.72,0,0.9-0.12,0.9-0.54v-9.742h-4.501v1.94
		c0,0.36,0.12,0.4,1.26,0.4c1.18,0,1.42-0.04,1.541-0.3c0.1-0.18,0.14-0.42,0.2-1.141c0.28,0.2,0.66,0.38,1.021,0.46
		c-0.26,1.84-0.52,2.021-2.861,2.021c-1.94,0-2.32-0.18-2.32-1.121v-2.26h-2.38c-0.16,1.02-0.26,1.32-0.581,1.92
		c-0.68,1.28-1.58,1.98-3.661,2.92c-0.22-0.42-0.36-0.6-0.76-1.02c1.94-0.7,2.781-1.26,3.341-2.341c0.22-0.44,0.32-0.74,0.42-1.48
		h-4.041v9.462c0,0.94,0.04,1.521,0.12,2.181h-1.5c0.08-0.68,0.12-1.26,0.12-2.181v-9.002c0-0.62-0.02-1.1-0.08-1.62
		c0.42,0.06,1.14,0.08,1.9,0.08h2.821c-0.22-0.8-0.561-1.64-0.98-2.42h-2.521c-0.8,0-1.46,0.04-2.041,0.1v-1.34
		c0.64,0.08,1.22,0.12,2.081,0.12h6.021V166.176z M141.881,179.039c0,0.86,0.02,1.161,0.08,1.741c-0.541-0.06-1.041-0.08-1.821-0.08
		h-4.401v1.02h-1.28c0.08-0.52,0.1-0.92,0.1-1.46v-2.96c0-0.52-0.02-0.94-0.08-1.38c0.58,0.04,0.94,0.06,1.701,0.06h3.96
		c1,0,1.44-0.02,1.821-0.06c-0.06,0.54-0.08,0.86-0.08,1.641V179.039z M140.041,170.597c0.56-0.94,0.84-1.54,1.12-2.42h-5.841
		c0.42,0.88,0.68,1.561,0.96,2.42H140.041z M135.739,179.659h4.961v-2.641h-4.961V179.659z"/>
	<path d="M159.04,165.417c-0.06,0.34-0.1,1.14-0.1,1.78c0,1.18,0.2,3.221,0.44,4.341c0.34,1.601,1.42,3.961,2.581,5.601
		c0.8,1.121,1.88,2.261,2.96,3.161c0.64,0.54,1.16,0.88,2.32,1.561c-0.48,0.44-0.7,0.68-1.04,1.26
		c-2.44-1.66-3.881-3.061-5.301-5.121c-1.24-1.82-2-3.681-2.601-6.361c-0.36,1.9-0.7,2.98-1.38,4.461
		c-0.7,1.541-1.58,2.821-2.86,4.101c-1.12,1.16-1.94,1.82-3.681,2.92c-0.34-0.54-0.58-0.8-1.081-1.18
		c2.021-1.12,2.921-1.78,4.081-3.021c2.781-2.981,4.141-6.822,4.141-11.743c0-0.84-0.02-1.24-0.08-1.76H159.04z"/>
	<path d="M132.059,197.538c0-0.94,0.02-1.62,0.08-2.48c-0.76,1.3-1.24,1.88-2.601,3.221c-0.38-0.68-0.44-0.74-0.84-1.12
		c2.021-1.86,3.441-3.841,4.501-6.281c0.42-0.98,0.74-1.96,0.86-2.681l1.4,0.5c-0.18,0.44-0.18,0.44-0.46,1.16
		c-0.4,1.061-1.06,2.381-1.66,3.441v10.642c0,0.94,0.04,1.661,0.14,2.381h-1.561c0.1-0.68,0.14-1.32,0.14-2.441V197.538z
		 M140.521,194.998c0.52,3.221,1.26,5.381,2.521,7.282c0.92,1.38,1.92,2.36,2.42,2.36c0.24,0,0.4-0.18,0.56-0.66
		c0.18-0.56,0.32-1.46,0.46-2.641c0.5,0.44,0.8,0.66,1.18,0.86c-0.46,2.861-1.021,3.921-2.081,3.921
		c-1.38,0-3.381-2.141-4.741-5.041c-0.74-1.621-1.28-3.561-1.64-5.961l-2.721,0.28c-0.84,0.08-1.38,0.16-1.98,0.3l-0.08-1.44
		c0.24,0.02,0.32,0.02,0.4,0.02c0.38,0,1.06-0.04,1.62-0.1l2.601-0.26c-0.14-1.28-0.22-2.48-0.24-3.501
		c-0.02-0.86-0.06-1.42-0.14-1.82l1.54-0.02c-0.08,0.38-0.1,0.74-0.1,1.32c0,1.2,0.06,2.221,0.26,3.881l4.701-0.48
		c1.14-0.12,1.54-0.18,2.021-0.32l0.12,1.44c-0.12,0-0.16,0-0.22,0h-0.26c-0.26,0-0.96,0.04-1.52,0.1L140.521,194.998z
		 M142.461,188.616c1.28,1,1.96,1.621,3.221,2.941l-0.96,0.92c-0.82-1.06-1.86-2.08-3.121-3.101L142.461,188.616z"/>
	<path d="M155.279,195.138c-0.82,0-1.32,0.02-1.86,0.1v-1.2c-1.26,0.84-2.161,1.32-3.641,1.94c-0.26-0.5-0.38-0.68-0.84-1.18
		c3.901-1.48,6.801-3.661,8.442-6.341h1.54c0.84,1.3,1.92,2.4,3.581,3.621c1.68,1.22,3.181,2,5.221,2.681
		c-0.34,0.42-0.581,0.82-0.8,1.28c-1.561-0.64-2.38-1.081-3.901-2.041v1.24c-0.52-0.08-1-0.1-1.84-0.1h-2.44v2.721h5.581
		c0.88,0,1.4-0.04,1.96-0.12v1.4c-0.58-0.08-1.14-0.12-1.96-0.12h-5.581v5.281h5.861c0.88,0,1.561-0.04,2.181-0.12v1.44
		c-0.66-0.1-1.38-0.14-2.201-0.14h-12.603c-0.78,0-1.5,0.04-2.28,0.14v-1.44c0.66,0.08,1.36,0.12,2.28,0.12h5.461v-5.281h-5.201
		c-0.76,0-1.38,0.04-1.94,0.12v-1.4c0.56,0.08,1.12,0.12,1.96,0.12h5.181v-2.721H155.279z M153.459,199.639
		c0.74,1.2,1.16,2.101,1.76,3.621l-1.16,0.46c-0.5-1.4-1-2.46-1.74-3.561L153.459,199.639z M161.181,194.038
		c0.84,0,1.32-0.02,1.76-0.08c-2.061-1.36-3.5-2.681-4.781-4.381c-1.241,1.74-2.581,3.021-4.601,4.381c0.4,0.06,0.92,0.08,1.7,0.08
		H161.181z M164.081,200.199c-0.92,1.86-1.26,2.44-2.14,3.721l-1.121-0.46c0.84-1.1,1.44-2.24,2-3.781L164.081,200.199z"/>
	<path d="M177.38,199.479c-1.16,2.641-2.341,3.841-3.781,3.841c-1.9,0-3.321-2.08-3.321-4.881c0-2.041,0.76-4.021,2.101-5.521
		c1.6-1.761,3.781-2.661,6.461-2.661c2.241,0,4.201,0.7,5.501,1.98c1.26,1.22,1.94,2.96,1.94,4.881c0,3.101-1.681,5.661-4.581,6.901
		c-0.9,0.38-1.66,0.62-3.041,0.92c-0.2-0.66-0.32-0.86-0.7-1.34c1.46-0.24,2.4-0.5,3.341-0.94c2.2-1,3.541-3.141,3.541-5.601
		c0-2.28-1.16-4.121-3.181-5.021c-0.74-0.32-1.32-0.46-2.32-0.5C179.04,194.317,178.28,197.378,177.38,199.479z M174.919,192.497
		c-2.021,1.22-3.261,3.481-3.261,5.961c0,1.92,0.84,3.401,1.92,3.401c0.84,0,1.64-0.94,2.5-2.901c0.82-1.88,1.56-4.841,1.82-7.401
		C176.7,191.657,175.839,191.937,174.919,192.497z"/>
	<path d="M197.46,190.077c0-0.9-0.04-1.36-0.141-1.82h1.621c-0.101,0.56-0.141,0.98-0.141,1.82v5.061h5.262v-3.781
		c0-0.56-0.021-1-0.08-1.46h1.5c-0.08,0.58-0.1,0.96-0.1,1.521v3.981c0,0.4,0.02,0.68,0.039,1.02c-0.399-0.02-0.859-0.04-1.24-0.04
		H198.8v7.322h5.961v-3.801c0-0.72-0.02-1.22-0.1-1.721h1.521c-0.08,0.521-0.101,1-0.101,1.781v4.521c0,0.72,0.041,1.16,0.121,1.68
		h-1.441v-1.2h-13.002v1.2h-1.44c0.08-0.5,0.12-1.041,0.12-1.68v-4.401c0-0.76-0.02-1.28-0.1-1.78h1.52c-0.08,0.5-0.1,0.94-0.1,1.7
		v3.701h5.701v-7.322h-5.001c-0.36,0-0.82,0.02-1.24,0.04c0.02-0.38,0.04-0.68,0.04-1.02v-3.961c0-0.5-0.04-0.98-0.1-1.541h1.5
		c-0.06,0.42-0.08,0.86-0.08,1.48v3.761h4.881V190.077z"/>
	<path d="M209.099,196.818c0.299,0.04,0.479,0.06,0.779,0.06c0.141,0,0.24,0,0.7-0.02c0.181-0.22,0.181-0.22,0.62-0.8
		c0.18-0.22,0.36-0.46,0.78-1.041c-0.82-1.14-1.8-2.3-2.741-3.241l0.761-0.9c0.36,0.4,0.521,0.56,0.72,0.8
		c1.08-1.641,1.701-2.861,1.9-3.661l1.221,0.5c-0.18,0.26-0.26,0.4-0.46,0.76c-0.761,1.44-1.16,2.081-1.94,3.261
		c0.641,0.76,0.82,0.98,1.2,1.48c1.181-1.76,1.921-3.061,2.161-3.781l1.16,0.66c-0.181,0.22-0.281,0.38-0.541,0.8
		c-0.939,1.521-2.6,3.881-3.561,5.102c1.28-0.08,2.08-0.14,3.221-0.3c-0.3-0.74-0.42-1.02-0.84-1.78l0.92-0.48
		c0.7,1.38,1.12,2.38,1.641,4l-1,0.48c-0.181-0.62-0.24-0.84-0.36-1.22c-0.56,0.1-1.16,0.16-1.82,0.24v6.562
		c0,0.86,0.04,1.38,0.12,2h-1.4c0.08-0.62,0.119-1.141,0.119-2v-6.461c-0.699,0.06-1.06,0.08-1.52,0.12
		c-0.84,0.04-1.26,0.08-1.66,0.16L209.099,196.818z M211.339,199.259c-0.221,2.78-0.44,3.96-1,5.701l-1.102-0.54
		c0.621-1.641,0.861-2.921,0.98-5.381L211.339,199.259z M215.439,198.938c0.44,1.641,0.681,2.781,0.92,4.661l-1.12,0.34
		c-0.141-1.94-0.34-3.041-0.82-4.701L215.439,198.938z M224.921,191.757c0.861,0,1.341-0.02,1.881-0.08
		c-0.061,0.62-0.08,1.2-0.08,2.02V204.4c0,1.2-0.42,1.52-1.98,1.52c-0.641,0-1.32-0.02-1.94-0.08c-0.021-0.5-0.12-0.88-0.28-1.32
		c0.92,0.14,1.541,0.2,2.141,0.2c0.641,0,0.86-0.12,0.86-0.5v-4.021c-0.3,0.26-0.56,0.62-0.8,1.061
		c-0.78-0.86-1.261-1.601-1.801-2.661c-0.561-1.161-0.82-2.021-1.04-3.501c-0.14,1.541-0.421,2.541-1.021,3.841
		c-0.439,0.94-0.859,1.541-1.58,2.4c-0.26-0.44-0.52-0.74-0.881-1.02c0.74-0.68,1.24-1.38,1.721-2.42
		c0.74-1.581,1.08-3.041,1.121-5.021h-2.901v11.182c0,1.021,0.021,1.701,0.08,2.181h-1.36c0.08-0.58,0.1-1.2,0.1-2.241v-10.342
		c0-0.82-0.02-1.34-0.08-1.98c0.601,0.06,1.001,0.08,1.881,0.08h2.301v-1.46c0-0.76-0.04-1.34-0.12-1.92h1.4
		c-0.08,0.56-0.12,1.12-0.12,1.9v1.48H224.921z M222.421,192.877c0.061,1.84,0.6,3.681,1.641,5.441c0.439,0.78,0.82,1.24,1.46,1.86
		v-7.301H222.421z"/>
	<path d="M239.9,197.198c0,0.9-0.74,1.64-1.641,1.64c-0.899,0-1.64-0.74-1.64-1.64c0-0.9,0.74-1.641,1.64-1.641
		C239.16,195.558,239.9,196.298,239.9,197.198z"/>
	<path d="M253.339,200.939c-1.2,2.44-1.4,2.761-2.98,5.081l-1.121-0.96c0.681-0.66,1.141-1.26,1.821-2.341
		c0.5-0.8,0.8-1.42,1.32-2.661L253.339,200.939z M252.319,198.818c-0.881-0.88-1.682-1.46-2.941-2.16l0.721-0.9
		c1.279,0.72,1.88,1.12,2.98,2.041L252.319,198.818z M254.599,189.356c0-0.52-0.039-0.88-0.08-1.26h1.361
		c-0.061,0.38-0.08,0.72-0.08,1.26v0.22h4.721v-0.22c0-0.52-0.02-0.86-0.061-1.26h1.361c-0.061,0.38-0.08,0.7-0.08,1.26v0.22h3.38
		c0.86,0,1.48-0.04,2.021-0.12v1.3c-0.58-0.08-1.2-0.12-2.021-0.12h-3.38c0,0.54,0.02,0.8,0.08,1.16h-1.361
		c0.041-0.38,0.061-0.62,0.061-1.16H255.8c0,0.64,0.02,0.94,0.08,1.34h-1.361c0.061-0.4,0.08-0.72,0.08-1.34h-3.12
		c-0.82,0-1.44,0.04-2.021,0.12v-1.3c0.54,0.08,1.16,0.12,2.021,0.12h3.12V189.356z M252.979,195.038
		c-0.921-0.96-1.641-1.58-2.821-2.32l0.78-0.84c1.2,0.78,1.881,1.32,2.86,2.261L252.979,195.038z M255.6,196.838
		c-0.841,0-1.4,0.02-1.9,0.1v-1.18c0.46,0.08,1,0.1,1.9,0.1h1.181c-0.361-0.58-0.58-0.88-1.021-1.32l1.021-0.44
		c0.539,0.66,0.779,1.04,1.14,1.76h1.78v-2.141c-1.6,0.12-1.6,0.12-2.061,0.14c-0.24,0-0.24,0-1.52,0.06
		c-0.421,0-0.521,0.02-1.201,0.04c-0.08-0.38-0.18-0.66-0.4-1.08c0.341,0.02,0.621,0.02,0.781,0.02c4.221,0,8.341-0.5,9.741-1.181
		l0.961,1.041c-2.001,0.46-3.541,0.7-5.222,0.86v2.241h1.841c0.7-0.9,1.12-1.581,1.46-2.46l1.16,0.4c-0.54,0.88-0.9,1.4-1.4,2.061
		h1.32c0.921,0,1.461-0.02,1.921-0.1v1.18c-0.561-0.06-1.2-0.1-1.921-0.1h-3.381c1.381,1.26,3.361,2.281,5.882,3.021
		c-0.54,0.74-0.54,0.74-0.681,1.06c-0.68-0.28-0.899-0.36-1.68-0.74v4.041c0,0.8,0.04,1.5,0.12,2.081h-1.261v-0.8h-7.802v0.78h-1.24
		c0.08-0.6,0.12-1.3,0.12-2.061v-3.941c-0.561,0.28-0.74,0.36-1.34,0.62c-0.141-0.32-0.381-0.62-0.721-0.92
		c2.44-0.8,4.161-1.781,5.521-3.141H255.6z M256.359,200.599v1.46h3.28v-1.46H256.359z M259.64,202.979h-3.28v1.56h3.28V202.979z
		 M264.281,199.659c-1.48-0.8-2.501-1.541-3.561-2.641c0.04,0.38,0.06,0.74,0.06,1.061v0.3c0,0.36,0.02,0.68,0.08,0.96h-1.221
		c0.041-0.34,0.061-0.621,0.061-0.98v-0.28c0-0.32,0.02-0.74,0.061-1.061c-1.041,1.14-2.021,1.9-3.361,2.641H264.281z
		 M264.182,202.059v-1.46h-3.461v1.46H264.182z M264.182,204.54v-1.56h-3.461v1.56H264.182z"/>
	<path d="M269.479,198.338c0.76-0.5,2.34-2.24,4.021-4.461c0.58-0.76,0.74-0.96,1-1.2c0.561-0.5,1.08-0.76,1.601-0.76
		c0.56,0,1.101,0.28,1.721,0.9c0.199,0.18,0.54,0.56,1.46,1.62c1.84,2.121,4.581,4.801,6.341,6.162c0.761,0.6,1.161,0.86,1.601,1.04
		l-0.68,1.72c-0.181-0.18-0.221-0.22-0.48-0.42c-1.24-0.98-3.521-3.021-4.861-4.341c-1.18-1.2-1.94-2.021-3.881-4.281
		c-0.54-0.62-0.859-0.86-1.2-0.86c-0.439,0-0.62,0.16-1.58,1.44c-1.18,1.581-2.221,2.841-3.501,4.261
		c-0.359,0.4-0.399,0.44-0.58,0.66L269.479,198.338z"/>
	<path d="M297.38,199.479c-1.16,2.641-2.341,3.841-3.781,3.841c-1.9,0-3.32-2.08-3.32-4.881c0-2.041,0.76-4.021,2.101-5.521
		c1.601-1.761,3.78-2.661,6.461-2.661c2.24,0,4.201,0.7,5.501,1.98c1.261,1.22,1.94,2.96,1.94,4.881c0,3.101-1.68,5.661-4.58,6.901
		c-0.9,0.38-1.661,0.62-3.041,0.92c-0.2-0.66-0.32-0.86-0.7-1.34c1.46-0.24,2.4-0.5,3.341-0.94c2.2-1,3.541-3.141,3.541-5.601
		c0-2.28-1.161-4.121-3.181-5.021c-0.74-0.32-1.32-0.46-2.321-0.5C299.04,194.317,298.28,197.378,297.38,199.479z M294.919,192.497
		c-2.021,1.22-3.261,3.481-3.261,5.961c0,1.92,0.841,3.401,1.921,3.401c0.84,0,1.641-0.94,2.5-2.901
		c0.82-1.88,1.561-4.841,1.82-7.401C296.699,191.657,295.84,191.937,294.919,192.497z"/>
	<path d="M309.358,195.898c0.479,0.08,0.78,0.1,1.54,0.1h1.04c0.58,0,1.061-0.04,1.54-0.1c-0.08,0.64-0.1,1.12-0.1,2.121v3.881
		c0.66,1.18,1.141,1.64,2.16,2.04c0.78,0.3,2.101,0.42,4.421,0.42c3.441,0,5.842-0.12,7.742-0.4c-0.3,0.68-0.34,0.82-0.46,1.46
		c-2.761,0.1-4.381,0.14-6.382,0.14c-3.04,0-4.241-0.08-5.261-0.4c-1.301-0.38-1.98-0.9-2.881-2.2c-0.92,0.9-1.34,1.3-2.421,2.121
		c-0.18,0.14-0.479,0.4-0.72,0.62l-0.66-1.32c0.96-0.46,2.12-1.32,3.221-2.441v-4.821h-1.32c-0.66,0-0.96,0.02-1.46,0.1V195.898z
		 M310.738,188.536c1.341,1.28,2.04,2.041,3.201,3.541l-1.021,0.9c-1.141-1.64-1.761-2.36-3.101-3.621L310.738,188.536z
		 M317.12,192.977c-0.74,0-1.36,0.04-1.9,0.12v-1.34c0.52,0.08,1.18,0.12,1.9,0.12h4.261c0.74-1.18,1.28-2.26,1.86-3.721l1.22,0.5
		c-0.979,1.96-1.16,2.281-1.76,3.221h1.8c0.74,0,1.36-0.04,1.881-0.12v1.34c-0.561-0.08-1.181-0.12-1.921-0.12h-3.4
		c-0.02,1.48-0.08,2.121-0.22,3.141h4.221c0.78,0,1.42-0.04,1.92-0.12v1.38c-0.5-0.08-1.22-0.12-2-0.12h-3.641
		c0.42,0.88,0.86,1.54,1.521,2.24c1.1,1.141,2.22,1.82,4.16,2.5c-0.359,0.38-0.56,0.72-0.74,1.201
		c-1.64-0.68-2.641-1.28-3.681-2.281c-0.96-0.9-1.6-1.8-2.141-3.041c-0.72,2.18-2.26,3.821-4.881,5.181
		c-0.22-0.42-0.479-0.74-0.9-1.041c2.681-1.22,4.062-2.621,4.701-4.761h-2.8c-0.761,0-1.421,0.04-1.961,0.12v-1.38
		c0.521,0.08,1.2,0.12,1.961,0.12h3.04c0.141-0.98,0.18-1.561,0.2-3.141H317.12z M317.64,188.076c0.74,1,1.181,1.74,1.761,2.941
		l-1.08,0.62c-0.58-1.24-1.021-2-1.761-2.981L317.64,188.076z"/>
	<path d="M335.279,195.138c-0.82,0-1.32,0.02-1.86,0.1v-1.2c-1.261,0.84-2.16,1.32-3.641,1.94c-0.26-0.5-0.38-0.68-0.841-1.18
		c3.901-1.48,6.802-3.661,8.442-6.341h1.54c0.841,1.3,1.921,2.4,3.581,3.621c1.681,1.22,3.181,2,5.221,2.681
		c-0.34,0.42-0.58,0.82-0.8,1.28c-1.561-0.64-2.381-1.081-3.901-2.041v1.24c-0.52-0.08-1-0.1-1.84-0.1h-2.44v2.721h5.581
		c0.88,0,1.4-0.04,1.96-0.12v1.4c-0.58-0.08-1.14-0.12-1.96-0.12h-5.581v5.281h5.861c0.88,0,1.561-0.04,2.181-0.12v1.44
		c-0.66-0.1-1.381-0.14-2.201-0.14h-12.603c-0.78,0-1.5,0.04-2.28,0.14v-1.44c0.66,0.08,1.36,0.12,2.28,0.12h5.461v-5.281h-5.201
		c-0.76,0-1.38,0.04-1.94,0.12v-1.4c0.561,0.08,1.121,0.12,1.961,0.12h5.181v-2.721H335.279z M333.459,199.639
		c0.74,1.2,1.16,2.101,1.761,3.621l-1.161,0.46c-0.5-1.4-1-2.46-1.74-3.561L333.459,199.639z M341.181,194.038
		c0.84,0,1.32-0.02,1.761-0.08c-2.061-1.36-3.501-2.681-4.781-4.381c-1.24,1.74-2.581,3.021-4.602,4.381
		c0.4,0.06,0.921,0.08,1.701,0.08H341.181z M344.081,200.199c-0.92,1.86-1.26,2.44-2.141,3.721l-1.12-0.46
		c0.841-1.1,1.44-2.24,2.001-3.781L344.081,200.199z"/>
</g>
<path fill="none" stroke="#231815" stroke-miterlimit="10" d="M282.207,62.885h69.676c4.467,0,8.089,3.702,8.089,8.269v141.962
	c0,4.567-3.622,8.269-8.089,8.269H55.562c-4.468,0-8.09-3.702-8.09-8.269V71.154c0-4.567,3.622-8.269,8.09-8.269h77.836"/>
<g>
	<g>
		<path fill="none" stroke="#231815" stroke-miterlimit="10" d="M17.305,89.8c0-0.994,0-1.894,0-2.667
			c0-7.879,3.193-7.965,28.964-7.966"/>
		<g>
			<path fill="#231815" d="M39.471,84.027c-0.15-0.231-0.083-0.541,0.149-0.691l6.421-4.157l-6.482-4.061
				c-0.235-0.147-0.306-0.456-0.16-0.689c0.147-0.233,0.458-0.303,0.69-0.159l7.148,4.479c0.144,0.09,0.233,0.249,0.234,0.42
				s-0.085,0.331-0.229,0.424l-7.08,4.584c-0.083,0.053-0.176,0.08-0.268,0.08C39.73,84.257,39.567,84.176,39.471,84.027z"/>
		</g>
	</g>
</g>
<path fill="none" stroke="#231815" stroke-miterlimit="10" d="M17.305,116.717c0,0,0-2.915,0-7"/>
<path fill="none" stroke="#231815" stroke-miterlimit="10" d="M17.305,199.372c0,8,3.292,7.966,30.167,7.966"/>
<g>
	<g>
		<path fill="none" stroke="#231815" stroke-miterlimit="10" d="M17.305,170.987c0,2.003,0,6.288,0,11.063"/>
		<g>
			<path fill="#231815" d="M12.505,177.826c0.232,0.148,0.542,0.079,0.69-0.154l4.109-6.452l4.109,6.452
				c0.148,0.233,0.458,0.303,0.69,0.154s0.3-0.46,0.153-0.691l-4.531-7.114c-0.092-0.144-0.251-0.231-0.422-0.231
				s-0.33,0.088-0.422,0.231l-4.531,7.114c-0.053,0.084-0.078,0.177-0.078,0.269C12.274,177.568,12.356,177.73,12.505,177.826z"/>
		</g>
	</g>
</g>
<g>
	<g>
		<path fill="none" stroke="#231815" stroke-miterlimit="10" d="M415.942,200.553c-0.376,6.814-4.657,6.784-30.138,6.784h-24.631"/>
		<g>
			<path fill="#231815" d="M368.009,202.538c0.148,0.232,0.079,0.542-0.154,0.69l-6.452,4.109l6.452,4.109
				c0.233,0.148,0.303,0.458,0.154,0.69s-0.46,0.3-0.691,0.153l-7.114-4.531c-0.144-0.092-0.231-0.251-0.231-0.422
				s0.088-0.33,0.231-0.422l7.114-4.531c0.084-0.053,0.177-0.078,0.269-0.078C367.751,202.306,367.913,202.388,368.009,202.538z"/>
		</g>
	</g>
</g>
<path fill="none" stroke="#231815" stroke-miterlimit="10" d="M415.972,169.789c0,0,0,5.662,0,12.261"/>
<g>
	<line x1="359.972" y1="143.55" x2="400.306" y2="143.55"/>
	<g>
		<line fill="none" stroke="#231815" stroke-miterlimit="10" x1="359.972" y1="143.55" x2="399.104" y2="143.55"/>
		<g>
			<path fill="#231815" d="M392.269,148.35c-0.148-0.232-0.079-0.542,0.154-0.69l6.452-4.109l-6.452-4.109
				c-0.233-0.148-0.303-0.458-0.154-0.69s0.46-0.3,0.691-0.153l7.114,4.531c0.144,0.092,0.231,0.251,0.231,0.422
				s-0.088,0.33-0.231,0.422l-7.114,4.531c-0.084,0.053-0.177,0.078-0.269,0.078C392.526,148.582,392.364,148.5,392.269,148.35z"/>
		</g>
	</g>
</g>
<path fill="none" stroke="#231815" stroke-miterlimit="10" d="M452.223,11.05h11.61c4.696,0,8.504,3.807,8.504,8.504V44.88
	c0,4.697-3.808,8.504-8.504,8.504h-93.658c-4.696,0-8.504-3.807-8.504-8.504V19.554c0-4.697,3.808-8.504,8.504-8.504h9.234"/>
<g>
	<line x1="415.972" y1="116.717" x2="415.972" y2="53.384"/>
	<g>
		<line fill="none" stroke="#231815" stroke-miterlimit="10" x1="415.972" y1="116.717" x2="415.972" y2="54.586"/>
		<g>
			<path fill="#231815" d="M420.771,61.421c-0.232,0.148-0.542,0.079-0.69-0.154l-4.109-6.452l-4.109,6.452
				c-0.148,0.233-0.458,0.303-0.69,0.154s-0.3-0.46-0.153-0.691l4.531-7.114c0.092-0.144,0.251-0.231,0.422-0.231
				s0.33,0.088,0.422,0.231l4.531,7.114c0.053,0.084,0.078,0.177,0.078,0.269C421.003,61.163,420.921,61.325,420.771,61.421z"/>
		</g>
	</g>
</g>
<rect x="0.847" y="116.717" fill="#B4D3F9" stroke="#231815" stroke-miterlimit="10" width="32" height="53.072"/>
<rect x="400.257" y="116.717" fill="#B0FFB7" stroke="#231815" stroke-miterlimit="10" width="32" height="53.072"/>
<rect x="52.291" y="79.549" fill="none" stroke="#000000" stroke-miterlimit="10" width="302.33" height="132.25"/>
<line fill="none" stroke="#000000" stroke-miterlimit="10" x1="122.472" y1="79.549" x2="122.472" y2="211.799"/>
<line fill="none" stroke="#000000" stroke-miterlimit="10" x1="52.291" y1="111.717" x2="354.621" y2="111.717"/>
<line fill="none" stroke="#000000" stroke-miterlimit="10" x1="52.291" y1="160.717" x2="354.621" y2="160.717"/>
<g>
	<path d="M5.628,124.903c0.528,0.096,0.984,0.12,1.92,0.12h4.152c0.984,0,1.416-0.024,1.92-0.12v1.536
		c-0.576-0.048-0.984-0.072-1.729-0.072H7.548c-0.864,0-1.272,0.024-1.92,0.096V124.903z M6.492,121.591
		c0.552,0.096,0.912,0.12,1.728,0.12h3.216c0.816,0,1.176-0.024,1.729-0.12v1.512c-0.48-0.072-1.032-0.096-1.729-0.096H8.22
		c-0.72,0-1.2,0.024-1.728,0.096V121.591z M6.564,128.264c0.456,0.072,0.84,0.096,1.632,0.096h3.289
		c0.792,0,1.152-0.024,1.608-0.096v1.464c-0.528-0.072-0.888-0.096-1.608-0.096H8.196c-0.792,0-1.2,0.024-1.632,0.096V128.264z
		 M6.564,131.576c0.48,0.072,0.816,0.096,1.632,0.096h3.289c0.816,0,1.152-0.024,1.608-0.096v1.464
		c-0.48-0.072-0.888-0.096-1.608-0.096H8.196c-0.744,0-1.152,0.024-1.632,0.096V131.576z M6.636,142.376
		c0.072-0.672,0.12-1.488,0.12-2.328v-3.192c0-0.792-0.024-1.368-0.096-1.968c0.624,0.072,1.008,0.096,1.944,0.096h2.784
		c0.888,0,1.344-0.024,1.752-0.072c-0.048,0.408-0.072,0.984-0.072,1.896v3.289c0,0.84,0.024,1.344,0.12,1.968h-1.488v-0.96H8.125
		v1.272H6.636z M8.125,139.856h3.576v-3.625H8.125V139.856z M15.757,129.56c-0.84,0-1.32,0.024-1.992,0.096v-1.561
		c0.552,0.096,1.08,0.12,2.064,0.12h2.808v-3.12h-1.92c-0.72,0-1.272,0.024-1.824,0.096v-1.488c0.504,0.072,1.008,0.096,1.8,0.096
		h1.944v-1.104c0-0.912-0.048-1.416-0.144-1.944h1.704c-0.12,0.552-0.144,0.96-0.144,1.944v1.104h1.44
		c0.744,0,1.272-0.024,1.68-0.096v1.488c-0.504-0.072-0.984-0.096-1.608-0.096h-1.512v3.12h1.008
		c0.984-1.032,1.56-1.704,2.496-2.976l0.264-0.336c0.984-1.44,1.56-2.472,1.872-3.36l1.512,0.864c-0.144,0.144-0.456,0.6-1.08,1.584
		c-0.768,1.176-2.112,2.88-3.336,4.224h2.616c1.008,0,1.464-0.024,2.041-0.12v1.584c-0.625-0.096-1.08-0.12-2.064-0.12H21.47
		c-1.104,1.032-2.088,1.872-3.072,2.568h5.208c0.816,0,1.32-0.024,2.232-0.096c-0.072,0.672-0.096,1.128-0.096,1.944v6.36
		c0,0.936,0.048,1.656,0.144,2.4h-1.584v-1.272h-6.816v1.272h-1.536c0.096-0.72,0.144-1.44,0.144-2.376v-6.672
		c-1.056,0.744-1.68,1.152-2.448,1.584c-0.456-0.696-0.504-0.768-0.888-1.152c2.448-1.128,4.776-2.641,6.913-4.561H15.757z
		 M17.509,136.064h6.816v-2.688h-6.816V136.064z M17.509,140.168h6.816v-2.856h-6.816V140.168z"/>
	<path d="M10.573,160.304c-1.44,2.928-1.68,3.312-3.577,6.097l-1.344-1.152c0.816-0.792,1.368-1.512,2.184-2.808
		c0.6-0.96,0.96-1.704,1.584-3.192L10.573,160.304z M9.349,157.76c-1.056-1.056-2.016-1.752-3.528-2.592l0.864-1.08
		c1.536,0.864,2.256,1.344,3.577,2.448L9.349,157.76z M12.085,146.407c0-0.624-0.048-1.056-0.096-1.512h1.632
		c-0.072,0.456-0.096,0.864-0.096,1.512v0.264h5.665v-0.264c0-0.624-0.024-1.032-0.072-1.512h1.632
		c-0.072,0.456-0.096,0.84-0.096,1.512v0.264h4.057c1.032,0,1.776-0.048,2.424-0.144v1.56c-0.696-0.096-1.44-0.144-2.424-0.144
		h-4.057c0,0.648,0.024,0.96,0.096,1.392h-1.632c0.048-0.456,0.072-0.744,0.072-1.392h-5.665c0,0.768,0.024,1.128,0.096,1.608
		h-1.632c0.072-0.48,0.096-0.864,0.096-1.608H8.34c-0.984,0-1.728,0.048-2.424,0.144v-1.56c0.648,0.096,1.392,0.144,2.424,0.144
		h3.745V146.407z M10.141,153.224c-1.104-1.152-1.968-1.896-3.384-2.784l0.936-1.008c1.44,0.936,2.256,1.584,3.432,2.712
		L10.141,153.224z M13.285,155.384c-1.008,0-1.68,0.024-2.28,0.12v-1.417c0.552,0.096,1.2,0.12,2.28,0.12h1.417
		c-0.432-0.696-0.696-1.056-1.224-1.584l1.224-0.528c0.648,0.792,0.936,1.249,1.368,2.112h2.136v-2.568
		c-1.92,0.144-1.92,0.144-2.472,0.168c-0.288,0-0.288,0-1.824,0.072c-0.504,0-0.624,0.024-1.44,0.048
		c-0.096-0.456-0.216-0.792-0.48-1.296c0.408,0.024,0.744,0.024,0.936,0.024c5.064,0,10.009-0.6,11.689-1.416l1.152,1.248
		c-2.4,0.552-4.249,0.84-6.265,1.032v2.688h2.208c0.84-1.08,1.344-1.896,1.752-2.952l1.392,0.48c-0.648,1.056-1.08,1.68-1.68,2.472
		h1.584c1.104,0,1.752-0.024,2.304-0.12v1.417c-0.672-0.072-1.44-0.12-2.304-0.12h-4.056c1.656,1.512,4.032,2.736,7.057,3.624
		c-0.648,0.888-0.648,0.888-0.816,1.272c-0.816-0.336-1.08-0.432-2.016-0.888v4.848c0,0.96,0.048,1.8,0.144,2.497h-1.512v-0.96
		h-9.361v0.937h-1.488c0.096-0.72,0.144-1.561,0.144-2.473v-4.728c-0.672,0.336-0.888,0.432-1.608,0.744
		c-0.168-0.384-0.456-0.744-0.864-1.104c2.928-0.96,4.993-2.136,6.625-3.768H13.285z M14.197,159.896v1.752h3.937v-1.752H14.197z
		 M18.133,162.752h-3.937v1.872h3.937V162.752z M23.702,158.768c-1.776-0.96-3-1.848-4.272-3.168
		c0.048,0.456,0.072,0.888,0.072,1.272v0.36c0,0.432,0.024,0.816,0.096,1.152h-1.464c0.048-0.408,0.072-0.744,0.072-1.176v-0.336
		c0-0.384,0.024-0.888,0.072-1.272c-1.248,1.368-2.424,2.28-4.032,3.168H23.702z M23.582,161.648v-1.752h-4.152v1.752H23.582z
		 M23.582,164.625v-1.872h-4.152v1.872H23.582z"/>
</g>
<g>
	<path d="M408.353,139.904c0,1.344,0.049,2.112,0.145,2.688h-1.776c0.096-0.672,0.144-1.392,0.144-2.688v-15.577
		c0-1.176-0.023-1.872-0.096-2.64c0.648,0.072,1.32,0.096,2.496,0.096h3.433c1.2,0,1.776-0.024,2.448-0.096
		c-0.049,0.72-0.072,1.344-0.072,2.28v3.216c0,0.96,0.023,1.632,0.072,2.208c-0.528-0.048-1.44-0.072-2.424-0.072h-4.369V139.904z
		 M408.353,124.927h5.353v-1.968h-5.353V124.927z M408.353,128.12h5.353v-2.017h-5.353V128.12z M420.69,136.808
		c0,0.576,0.023,1.032,0.071,1.44c-0.479-0.048-0.888-0.072-1.513-0.072h-5.76v1.896h-1.561c0.096-0.672,0.121-1.272,0.121-2.232
		v-4.8c0-0.552-0.025-1.032-0.072-1.512c0.479,0.048,1.008,0.072,1.656,0.072h5.376c0.696,0,1.319-0.024,1.752-0.072
		c-0.048,0.456-0.071,0.912-0.071,1.464V136.808z M413.489,136.904h5.785v-4.032h-5.785V136.904z M426.114,140.265
		c0,1.56-0.456,1.992-2.112,1.992c-0.937,0-1.8-0.024-2.856-0.096c-0.096-0.672-0.168-0.96-0.432-1.536
		c1.176,0.144,2.256,0.24,3.049,0.24c0.695,0,0.863-0.144,0.863-0.696v-10.849h-4.801c-1.008,0-1.92,0.024-2.447,0.072
		c0.048-0.696,0.072-1.32,0.072-2.208v-3.216c0-0.84-0.024-1.561-0.072-2.28c0.647,0.072,1.271,0.096,2.447,0.096h3.889
		c1.2,0,1.848-0.024,2.521-0.096c-0.097,0.864-0.12,1.608-0.12,2.64V140.265z M418.842,124.927h5.784v-1.968h-5.784V124.927z
		 M418.842,128.12h5.784v-2.017h-5.784V128.12z"/>
	<path d="M409.385,154.063c-0.12,2.616-0.407,4.92-0.792,6.792c-0.48,2.161-0.984,3.528-2.04,5.401
		c-0.36-0.456-0.816-0.864-1.296-1.2c0.912-1.512,1.367-2.592,1.752-4.081c0.672-2.688,1.008-6.625,1.008-12.289
		c0-1.392-0.048-2.28-0.119-2.976c0.84,0.096,1.416,0.12,2.903,0.12h12.505c1.176,0,1.776-0.024,2.473-0.12
		c-0.072,0.744-0.072,0.912-0.072,1.632v2.136c0,0.72,0,0.984,0.072,1.512c-0.936-0.048-1.633-0.072-2.377-0.072h-13.92
		l-0.049,1.848h14.33c1.56,0,2.111-0.024,2.808-0.12v1.536c-0.769-0.096-1.368-0.12-2.736-0.12h-7.585
		c-0.695,1.32-1.008,1.848-1.68,2.856c3.385-0.12,4.032-0.144,7.416-0.456c-0.623-0.528-1.008-0.816-2.039-1.584l1.224-0.648
		c2.04,1.56,2.832,2.28,4.608,4.104l-1.248,0.768c-0.696-0.792-0.889-0.984-1.416-1.56c-3.313,0.312-6.648,0.552-11.905,0.84
		c-0.408,0.024-0.576,0.024-0.888,0.096l-0.264-1.536c0.407,0.072,0.527,0.072,0.84,0.072c0.096,0,0.096,0,2.088-0.048
		c0.72-1.056,1.225-1.92,1.68-2.904H409.385z M423.042,160.616c1.488,0,1.872-0.024,2.52-0.12v1.536
		c-0.719-0.096-1.344-0.12-2.52-0.12h-4.729v2.688h5.809c1.824,0,2.352-0.024,2.977-0.12v1.584
		c-0.744-0.096-1.561-0.144-3.072-0.144h-12.553c-1.297,0-2.209,0.048-2.904,0.144v-1.584c0.527,0.096,1.271,0.12,2.808,0.12h5.448
		v-2.688h-3.889c-1.176,0-1.848,0.024-2.52,0.12v-1.536c0.624,0.096,1.057,0.12,2.544,0.12h3.864c0-1.056-0.023-1.44-0.119-2.016
		h1.728c-0.097,0.576-0.12,0.984-0.12,2.016H423.042z M424.242,149.623v-2.472h-14.737v2.472H424.242z"/>
</g>
</svg>
