<?xml version="1.0" encoding="utf-8"?>
<!-- Generator: Adobe Illustrator 16.0.0, SVG Export Plug-In . SVG Version: 6.00 Build 0)  -->
<!DOCTYPE svg PUBLIC "-//W3C//DTD SVG 1.1//EN" "http://www.w3.org/Graphics/SVG/1.1/DTD/svg11.dtd">
<svg version="1.1" id="レイヤー_1" xmlns="http://www.w3.org/2000/svg" xmlns:xlink="http://www.w3.org/1999/xlink" x="0px"
	 y="0px" width="327.014px" height="89.65px" viewBox="0 0 327.014 89.65" enable-background="new 0 0 327.014 89.65"
	 xml:space="preserve">
<g>
	<path d="M23.129,6.999c-0.262-0.263-0.466-0.564-0.583-0.895c-0.243-0.68-0.369-1.448-0.369-2.245c0-1.03,0.223-2.08,0.563-2.644
		c0.467-0.788,1.215-1.196,2.177-1.196c0.719,0,1.341,0.233,1.779,0.69c0.272,0.272,0.467,0.574,0.583,0.895
		c0.243,0.67,0.37,1.448,0.37,2.255c0,1.176-0.253,2.216-0.681,2.809c-0.486,0.68-1.166,1.021-2.061,1.021
		C24.189,7.688,23.586,7.455,23.129,6.999z M23.693,1.186c-0.204,0.224-0.36,0.466-0.438,0.709
		c-0.204,0.593-0.301,1.254-0.301,1.963c0,0.904,0.194,1.856,0.457,2.313c0.34,0.563,0.846,0.846,1.506,0.846
		c0.486,0,0.904-0.156,1.196-0.457c0.214-0.224,0.369-0.476,0.457-0.758c0.204-0.603,0.301-1.244,0.301-1.963
		c0-0.846-0.185-1.808-0.437-2.265c-0.321-0.583-0.846-0.884-1.526-0.884C24.403,0.69,24.004,0.855,23.693,1.186z"/>
</g>
<g>
	<path d="M77.903,7.543c-0.612,0-0.758,0.009-1.069,0.048c0.107-0.768,0.136-0.914,0.282-1.283c0.243-0.612,0.651-1.146,1.264-1.671
		c0.34-0.292,0.359-0.301,1.487-1.069c0.962-0.651,1.283-1.079,1.283-1.672c0-0.739-0.622-1.215-1.614-1.215
		c-0.641,0-1.118,0.214-1.409,0.632c-0.185,0.262-0.272,0.496-0.34,0.981L76.97,2.158c0.146-0.7,0.292-1.04,0.612-1.399
		c0.438-0.496,1.099-0.749,1.954-0.749c1.468,0,2.411,0.739,2.411,1.886c0,0.496-0.194,0.962-0.573,1.38
		c-0.292,0.331-0.544,0.515-1.652,1.254c-0.768,0.515-1.079,0.787-1.4,1.195c-0.301,0.398-0.438,0.661-0.554,1.127h3.101
		c0.486,0,0.816-0.02,1.186-0.068v0.816c-0.389-0.039-0.709-0.058-1.195-0.058H77.903z"/>
	<path d="M84.055,6.999c-0.262-0.263-0.466-0.564-0.583-0.895c-0.243-0.68-0.369-1.448-0.369-2.245c0-1.03,0.223-2.08,0.563-2.644
		c0.467-0.788,1.215-1.196,2.177-1.196c0.719,0,1.341,0.233,1.779,0.69c0.272,0.272,0.467,0.574,0.583,0.895
		c0.243,0.67,0.37,1.448,0.37,2.255c0,1.176-0.253,2.216-0.681,2.809c-0.486,0.68-1.166,1.021-2.061,1.021
		C85.115,7.688,84.512,7.455,84.055,6.999z M84.619,1.186c-0.204,0.224-0.36,0.466-0.438,0.709
		c-0.204,0.593-0.301,1.254-0.301,1.963c0,0.904,0.194,1.856,0.457,2.313c0.34,0.563,0.846,0.846,1.506,0.846
		c0.486,0,0.904-0.156,1.196-0.457c0.214-0.224,0.369-0.476,0.457-0.758C87.7,5.2,87.797,4.559,87.797,3.839
		c0-0.846-0.185-1.808-0.437-2.265C87.04,0.992,86.515,0.69,85.834,0.69C85.329,0.69,84.93,0.855,84.619,1.186z"/>
</g>
<g>
	<path d="M134.275,4.967c0.204-0.233,0.428-0.505,0.632-0.748l2.459-3.072c0.331-0.408,0.505-0.651,0.729-0.991h0.729
		c-0.048,0.573-0.058,0.875-0.058,1.643v3.188h0.369c0.408,0,0.661-0.02,1.011-0.068v0.807c-0.359-0.048-0.603-0.068-1.021-0.068
		h-0.359v0.836c0,0.466,0.02,0.69,0.078,1.05h-0.884c0.058-0.34,0.078-0.613,0.078-1.05V5.657h-2.605
		c-0.544,0-0.836,0.01-1.157,0.039V4.967z M138.047,2.527c0-0.515,0.01-0.826,0.058-1.322c-0.204,0.292-0.447,0.612-0.729,0.972
		l-2.235,2.819h2.906V2.527z"/>
	<path d="M141.807,6.999c-0.262-0.263-0.466-0.564-0.583-0.895c-0.243-0.68-0.369-1.448-0.369-2.245c0-1.03,0.223-2.08,0.563-2.644
		c0.467-0.788,1.215-1.196,2.177-1.196c0.719,0,1.341,0.233,1.779,0.69c0.272,0.272,0.467,0.574,0.583,0.895
		c0.243,0.67,0.37,1.448,0.37,2.255c0,1.176-0.253,2.216-0.681,2.809c-0.486,0.68-1.166,1.021-2.061,1.021
		C142.867,7.688,142.264,7.455,141.807,6.999z M142.371,1.186c-0.204,0.224-0.36,0.466-0.438,0.709
		c-0.204,0.593-0.301,1.254-0.301,1.963c0,0.904,0.194,1.856,0.457,2.313c0.34,0.563,0.846,0.846,1.506,0.846
		c0.486,0,0.904-0.156,1.196-0.457c0.214-0.224,0.369-0.476,0.457-0.758c0.204-0.603,0.301-1.244,0.301-1.963
		c0-0.846-0.185-1.808-0.437-2.265c-0.321-0.583-0.846-0.884-1.526-0.884C143.081,0.69,142.682,0.855,142.371,1.186z"/>
</g>
<g>
	<path d="M196.606,1.769c-0.126-0.311-0.194-0.447-0.34-0.612c-0.292-0.321-0.67-0.486-1.157-0.486
		c-0.758,0-1.332,0.408-1.681,1.205c-0.253,0.583-0.34,1.03-0.408,2.09c0.175-0.301,0.272-0.438,0.486-0.622
		c0.457-0.408,0.972-0.593,1.643-0.593c1.506,0,2.439,0.933,2.439,2.43c0,1.507-1.011,2.498-2.546,2.498
		c-0.69,0-1.341-0.224-1.759-0.612c-0.632-0.583-0.982-1.672-0.982-3.052c0-1.215,0.272-2.304,0.739-2.936
		c0.515-0.7,1.206-1.06,2.051-1.06c0.583,0,1.108,0.146,1.477,0.408c0.34,0.243,0.535,0.505,0.816,1.089L196.606,1.769z
		 M195.042,3.402c-0.486,0-1.001,0.214-1.341,0.554c-0.321,0.321-0.486,0.749-0.486,1.234c0,1.05,0.787,1.828,1.837,1.828
		c0.632,0,1.215-0.301,1.516-0.788c0.156-0.252,0.253-0.651,0.253-1.03C196.82,4.053,196.179,3.402,195.042,3.402z"/>
	<path d="M199.521,6.999c-0.262-0.263-0.466-0.564-0.583-0.895c-0.243-0.68-0.369-1.448-0.369-2.245c0-1.03,0.223-2.08,0.563-2.644
		c0.467-0.788,1.215-1.196,2.177-1.196c0.719,0,1.341,0.233,1.779,0.69c0.272,0.272,0.466,0.574,0.583,0.895
		c0.243,0.67,0.37,1.448,0.37,2.255c0,1.176-0.253,2.216-0.681,2.809c-0.486,0.68-1.166,1.021-2.061,1.021
		C200.581,7.688,199.979,7.455,199.521,6.999z M200.085,1.186c-0.204,0.224-0.36,0.466-0.438,0.709
		c-0.204,0.593-0.301,1.254-0.301,1.963c0,0.904,0.194,1.856,0.457,2.313c0.34,0.563,0.846,0.846,1.506,0.846
		c0.486,0,0.904-0.156,1.196-0.457c0.214-0.224,0.369-0.476,0.457-0.758c0.204-0.603,0.301-1.244,0.301-1.963
		c0-0.846-0.185-1.808-0.437-2.265c-0.321-0.583-0.846-0.884-1.526-0.884C200.795,0.69,200.396,0.855,200.085,1.186z"/>
</g>
<g>
	<path d="M254.641,4.092c0.486,0.359,0.729,0.875,0.729,1.526c0,1.332-0.972,2.08-2.683,2.08c-1.779,0-2.761-0.739-2.761-2.08
		c0-0.7,0.282-1.234,0.865-1.613c0.301-0.194,0.515-0.272,0.875-0.331c-0.855-0.156-1.41-0.846-1.41-1.75
		c0-1.176,0.923-1.925,2.391-1.925c1.487,0,2.401,0.729,2.401,1.925c0,0.904-0.544,1.584-1.409,1.75
		C254.048,3.732,254.32,3.849,254.641,4.092z M250.724,5.57c0,0.923,0.709,1.467,1.915,1.467c0.681,0,1.234-0.175,1.565-0.505
		c0.243-0.224,0.37-0.563,0.37-0.962c0-0.953-0.729-1.526-1.925-1.526C251.453,4.043,250.724,4.627,250.724,5.57z M251.015,1.983
		c0,0.865,0.622,1.39,1.643,1.39s1.633-0.525,1.633-1.39c0-0.816-0.641-1.332-1.643-1.332
		C251.657,0.651,251.015,1.176,251.015,1.983z"/>
	<path d="M257.254,6.999c-0.262-0.263-0.466-0.564-0.583-0.895c-0.243-0.68-0.369-1.448-0.369-2.245c0-1.03,0.223-2.08,0.563-2.644
		c0.467-0.788,1.215-1.196,2.177-1.196c0.719,0,1.341,0.233,1.779,0.69c0.272,0.272,0.467,0.574,0.583,0.895
		c0.243,0.67,0.37,1.448,0.37,2.255c0,1.176-0.253,2.216-0.681,2.809c-0.486,0.68-1.166,1.021-2.061,1.021
		C258.314,7.688,257.711,7.455,257.254,6.999z M257.818,1.186c-0.204,0.224-0.36,0.466-0.438,0.709
		c-0.204,0.593-0.301,1.254-0.301,1.963c0,0.904,0.194,1.856,0.457,2.313c0.34,0.563,0.846,0.846,1.506,0.846
		c0.486,0,0.904-0.156,1.196-0.457c0.214-0.224,0.369-0.476,0.457-0.758c0.204-0.603,0.301-1.244,0.301-1.963
		c0-0.846-0.185-1.808-0.437-2.265c-0.321-0.583-0.846-0.884-1.526-0.884C258.528,0.69,258.129,0.855,257.818,1.186z"/>
</g>
<g>
	<path d="M300.706,0.107c0.253,0.039,0.438,0.049,0.808,0.049h0.612c0.33,0,0.485-0.01,0.807-0.049
		c-0.059,0.593-0.088,1.089-0.088,1.614v4.724c0,0.457,0.02,0.739,0.078,1.099h-0.924c0.059-0.34,0.078-0.651,0.078-1.099V0.816
		h-0.525c-0.311,0-0.563,0.02-0.846,0.059V0.107z"/>
	<path d="M306.935,6.999c-0.263-0.263-0.467-0.564-0.583-0.895c-0.243-0.68-0.369-1.448-0.369-2.245c0-1.03,0.224-2.08,0.563-2.644
		c0.467-0.788,1.215-1.196,2.178-1.196c0.719,0,1.341,0.233,1.778,0.69c0.272,0.272,0.467,0.574,0.583,0.895
		c0.243,0.67,0.369,1.448,0.369,2.255c0,1.176-0.252,2.216-0.68,2.809c-0.486,0.68-1.167,1.021-2.061,1.021
		C307.995,7.688,307.392,7.455,306.935,6.999z M307.499,1.186c-0.204,0.224-0.359,0.466-0.437,0.709
		c-0.204,0.593-0.302,1.254-0.302,1.963c0,0.904,0.194,1.856,0.457,2.313c0.34,0.563,0.846,0.846,1.507,0.846
		c0.485,0,0.903-0.156,1.195-0.457c0.214-0.224,0.369-0.476,0.457-0.758c0.204-0.603,0.301-1.244,0.301-1.963
		c0-0.846-0.185-1.808-0.438-2.265c-0.32-0.583-0.846-0.884-1.525-0.884C308.208,0.69,307.81,0.855,307.499,1.186z"/>
	<path d="M313.32,6.999c-0.263-0.263-0.467-0.564-0.583-0.895c-0.243-0.68-0.369-1.448-0.369-2.245c0-1.03,0.224-2.08,0.563-2.644
		c0.467-0.788,1.215-1.196,2.178-1.196c0.719,0,1.341,0.233,1.778,0.69c0.272,0.272,0.467,0.574,0.583,0.895
		c0.243,0.67,0.369,1.448,0.369,2.255c0,1.176-0.252,2.216-0.68,2.809c-0.486,0.68-1.167,1.021-2.061,1.021
		C314.379,7.688,313.777,7.455,313.32,6.999z M313.883,1.186c-0.204,0.224-0.359,0.466-0.437,0.709
		c-0.204,0.593-0.302,1.254-0.302,1.963c0,0.904,0.194,1.856,0.457,2.313c0.34,0.563,0.846,0.846,1.507,0.846
		c0.485,0,0.903-0.156,1.195-0.457c0.214-0.224,0.369-0.476,0.457-0.758c0.204-0.603,0.301-1.244,0.301-1.963
		c0-0.846-0.185-1.808-0.438-2.265c-0.32-0.583-0.846-0.884-1.525-0.884C314.593,0.69,314.195,0.855,313.883,1.186z"/>
	<path d="M319.832,3.781c-0.351-0.34-0.535-0.914-0.535-1.633c0-1.303,0.622-2.07,1.691-2.07c1.06,0,1.682,0.758,1.682,2.07
		c0,0.719-0.185,1.292-0.535,1.633c-0.291,0.282-0.689,0.438-1.146,0.438C320.521,4.219,320.123,4.063,319.832,3.781z
		 M319.948,2.148c0,0.952,0.379,1.497,1.04,1.497c0.651,0,1.03-0.544,1.03-1.497c0-0.962-0.369-1.497-1.03-1.497
		C320.317,0.651,319.948,1.196,319.948,2.148z M325.896,0.02l0.408,0.311l-5.89,7.455l-0.408-0.321L325.896,0.02z M324.176,7.3
		c-0.351-0.34-0.535-0.914-0.535-1.633c0-1.303,0.622-2.07,1.691-2.07s1.682,0.758,1.682,2.08c0,0.709-0.185,1.283-0.534,1.623
		c-0.292,0.282-0.69,0.438-1.147,0.438C324.866,7.737,324.467,7.591,324.176,7.3z M324.292,5.667c0,0.952,0.379,1.497,1.04,1.497
		c0.651,0,1.03-0.544,1.03-1.497c0-0.962-0.369-1.497-1.03-1.497C324.662,4.17,324.292,4.714,324.292,5.667z"/>
</g>
<line fill="none" stroke="#000000" stroke-miterlimit="10" x1="24.913" y1="11.65" x2="313.579" y2="11.65"/>
<line fill="none" stroke="#000000" stroke-miterlimit="10" x1="287.118" y1="11.65" x2="287.118" y2="14.242"/>
<line fill="none" stroke="#000000" stroke-miterlimit="10" x1="260.897" y1="11.65" x2="260.897" y2="14.242"/>
<line fill="none" stroke="#000000" stroke-miterlimit="10" x1="234.676" y1="11.65" x2="234.676" y2="14.242"/>
<line fill="none" stroke="#000000" stroke-miterlimit="10" x1="208.456" y1="11.65" x2="208.456" y2="14.242"/>
<line fill="none" stroke="#000000" stroke-miterlimit="10" x1="182.235" y1="11.65" x2="182.235" y2="14.242"/>
<line fill="none" stroke="#000000" stroke-miterlimit="10" x1="156.015" y1="11.65" x2="156.015" y2="14.242"/>
<line fill="none" stroke="#000000" stroke-miterlimit="10" x1="129.794" y1="11.65" x2="129.794" y2="14.242"/>
<line fill="none" stroke="#000000" stroke-miterlimit="10" x1="103.574" y1="11.65" x2="103.574" y2="14.242"/>
<line fill="none" stroke="#000000" stroke-miterlimit="10" x1="77.354" y1="11.65" x2="77.354" y2="14.242"/>
<line fill="none" stroke="#000000" stroke-miterlimit="10" x1="51.133" y1="11.65" x2="51.133" y2="14.242"/>
<line fill="none" stroke="#000000" stroke-miterlimit="10" x1="313.337" y1="11.65" x2="313.337" y2="14.242"/>
<line fill="none" stroke="#000000" stroke-miterlimit="10" x1="24.913" y1="89.65" x2="24.913" y2="11.65"/>
<line fill="none" stroke="#000000" stroke-miterlimit="10" x1="24.913" y1="37.567" x2="32.129" y2="37.567"/>
<rect x="304.918" y="18.907" fill="#E2B3FF" stroke="#000000" stroke-width="0.5" stroke-miterlimit="10" width="8.66" height="22.677"/>
<rect x="267.392" y="18.907" fill="#FFE997" stroke="#000000" stroke-width="0.5" stroke-miterlimit="10" width="37.526" height="22.677"/>
<rect x="307.805" y="59.832" fill="#E2B3FF" stroke="#000000" stroke-width="0.5" stroke-miterlimit="10" width="5.773" height="22.677"/>
<rect x="192.339" y="59.832" fill="#FFE997" stroke="#000000" stroke-width="0.5" stroke-miterlimit="10" width="115.466" height="22.677"/>
<rect x="24.913" y="59.832" fill="#C8EFFF" stroke="#000000" stroke-width="0.5" stroke-miterlimit="10" width="167.426" height="22.677"/>
<rect x="24.913" y="18.907" fill="#C8EFFF" stroke="#000000" stroke-width="0.5" stroke-miterlimit="10" width="242.479" height="22.677"/>
<g>
	<path d="M1.943,26.12c0-0.312-0.024-0.588-0.072-0.912h0.78c-0.048,0.312-0.072,0.576-0.072,0.912v0.384h0.768
		c0.48,0,0.672-0.012,0.972-0.06v0.731c-0.312-0.036-0.504-0.048-0.959-0.048H2.566v1.055h0.492c0.6,0,0.804-0.012,1.067-0.036
		l-0.012,0.072c0.492-0.264,0.864-0.528,1.284-0.899c0.768-0.672,1.199-1.211,1.559-1.955h0.731c0.744,1.175,1.859,2.099,3.31,2.723
		c-0.192,0.204-0.312,0.384-0.468,0.647c-1.319-0.719-2.422-1.643-3.178-2.698c-0.66,1.067-1.583,1.979-2.771,2.758
		c-0.144-0.24-0.264-0.384-0.468-0.563c-0.024,0.216-0.024,0.419-0.024,1.019v2.003c0,0.672,0.012,0.888,0.036,1.151
		c-0.096-0.012-0.096-0.012-0.3-0.024c-0.072,0-0.528-0.012-0.804-0.012H2.578v1.103h0.768c0.444,0,0.684-0.012,0.96-0.06v0.744
		c-0.288-0.048-0.54-0.06-0.96-0.06H2.578v0.911c0,0.468,0.024,0.78,0.072,1.127h-0.78c0.048-0.312,0.072-0.587,0.072-1.139v-0.899
		H0.995c-0.444,0-0.695,0.012-0.995,0.06v-0.744c0.288,0.048,0.54,0.06,0.995,0.06h0.948v-1.103h-0.42
		c-0.408,0-0.815,0.012-1.151,0.048c0.036-0.288,0.048-0.636,0.048-1.188v-1.931c0-0.564-0.012-0.875-0.048-1.164
		c0.36,0.036,0.696,0.048,1.115,0.048h0.456v-1.055H1.067c-0.444,0-0.696,0.012-0.983,0.06v-0.744
		c0.288,0.048,0.516,0.06,0.983,0.06h0.875V26.12z M1.019,28.77v1.188h0.924V28.77H1.019z M1.019,30.509v1.271h0.924v-1.271H1.019z
		 M3.49,29.958V28.77H2.566v1.188H3.49z M3.49,31.78v-1.271H2.566v1.271H3.49z M5.373,34.995c0,0.408,0.024,0.779,0.06,1.091H4.677
		c0.036-0.348,0.06-0.708,0.06-1.104v-4.354c0-0.444-0.012-0.768-0.036-1.115c0.24,0.036,0.48,0.048,0.947,0.048h0.84
		c0.468,0,0.708-0.012,0.959-0.048c-0.024,0.288-0.036,0.624-0.036,1.127v4.557c0,0.384-0.072,0.54-0.3,0.66
		c-0.144,0.06-0.276,0.084-0.624,0.084c-0.18,0-0.288,0-0.516-0.012c-0.012-0.264-0.048-0.444-0.144-0.696
		c0.264,0.06,0.516,0.084,0.72,0.084c0.168,0,0.228-0.06,0.228-0.24v-1.487H5.373V34.995z M6.776,31.301v-1.151H5.373v1.151H6.776z
		 M6.776,33.016v-1.139H5.373v1.139H6.776z M5.805,27.931c0.252,0.036,0.492,0.048,0.912,0.048h1.511c0.432,0,0.636-0.012,0.9-0.048
		v0.731c-0.264-0.036-0.504-0.048-0.9-0.048H6.716c-0.408,0-0.648,0.012-0.912,0.048V27.931z M8.947,29.609
		c-0.048,0.276-0.06,0.528-0.06,0.912v2.458c0,0.408,0.024,0.756,0.06,1.043H8.155c0.036-0.288,0.06-0.647,0.06-1.031v-2.458
		c0-0.384-0.012-0.648-0.06-0.924H8.947z M10.446,34.995c0,0.768-0.204,0.959-1.008,0.959c-0.252,0-0.552-0.012-0.852-0.048
		c-0.012-0.276-0.048-0.468-0.144-0.744c0.384,0.084,0.695,0.12,0.983,0.12c0.3,0,0.372-0.072,0.372-0.372v-4.461
		c0-0.48-0.024-0.828-0.072-1.188h0.792c-0.048,0.384-0.072,0.708-0.072,1.188V34.995z"/>
	<path d="M16.929,26.383c0-0.54-0.024-0.815-0.084-1.091h0.971c-0.06,0.336-0.084,0.587-0.084,1.091v3.034h3.154v-2.267
		c0-0.336-0.012-0.6-0.048-0.875h0.899c-0.048,0.348-0.06,0.576-0.06,0.912v2.387c0,0.24,0.012,0.408,0.024,0.611
		c-0.24-0.012-0.516-0.024-0.744-0.024h-3.227v4.39h3.574v-2.279c0-0.432-0.012-0.731-0.06-1.031h0.912
		c-0.048,0.312-0.06,0.6-0.06,1.067v2.71c0,0.432,0.024,0.696,0.072,1.007h-0.864v-0.719h-7.796v0.719h-0.863
		c0.048-0.3,0.072-0.624,0.072-1.007V32.38c0-0.456-0.012-0.768-0.06-1.067h0.912c-0.048,0.3-0.06,0.564-0.06,1.02v2.219h3.418
		v-4.39h-2.999c-0.216,0-0.492,0.012-0.744,0.024c0.012-0.228,0.024-0.408,0.024-0.611v-2.375c0-0.3-0.024-0.587-0.06-0.923h0.899
		c-0.036,0.252-0.048,0.516-0.048,0.888v2.254h2.926V26.383z"/>
</g>
<g>
	<path d="M145.238,28.23c-0.24-0.012-0.419-0.024-0.624-0.024h-0.408c0.324,0.924,0.696,1.547,1.332,2.231
		c-0.18,0.192-0.276,0.324-0.456,0.588c-0.42-0.588-0.636-0.983-0.971-1.847c0.024,0.492,0.036,1.151,0.06,1.991v3.61
		c0,0.647,0.024,1.055,0.072,1.391h-0.864c0.048-0.36,0.072-0.744,0.072-1.391v-3.334c0-0.3,0.024-0.959,0.072-1.979
		c-0.348,1.223-0.42,1.415-0.671,1.979c-0.216,0.492-0.408,0.828-0.672,1.211c-0.18-0.312-0.252-0.419-0.479-0.647
		c0.768-0.948,1.319-2.243,1.655-3.802h-0.468c-0.348,0-0.647,0.024-0.839,0.048v-0.744c0.204,0.036,0.444,0.048,0.839,0.048h0.564
		v-1.104c0-0.684-0.012-0.947-0.06-1.235h0.839c-0.048,0.3-0.06,0.636-0.06,1.224v1.115h0.432c0.348,0,0.552-0.012,0.768-0.048
		v0.708c0.384,0.036,0.611,0.048,1.067,0.048h0.803v-1.199h-0.54c-0.528,0-0.899,0.012-1.175,0.048v-0.744
		c0.336,0.036,0.731,0.06,1.188,0.06h0.527v-0.24c0-0.444-0.012-0.647-0.06-0.923h0.815c-0.036,0.276-0.048,0.492-0.048,0.923v0.24
		h1.979v-0.216c0-0.42-0.012-0.636-0.048-0.947h0.815c-0.048,0.264-0.06,0.492-0.06,0.947v0.216h0.695
		c0.444,0,0.888-0.024,1.199-0.06v0.744c-0.264-0.036-0.671-0.048-1.175-0.048h-0.719v1.199h0.983c0.576,0,0.959-0.024,1.223-0.06
		v0.756c-0.264-0.036-0.66-0.06-1.199-0.06h-2.423v0.875h2.051c0.42,0,0.636-0.012,0.888-0.036
		c-0.024,0.216-0.036,0.504-0.036,0.864v2.387c0,0.396,0.012,0.671,0.036,0.899c-0.24-0.024-0.504-0.036-0.888-0.036h-4.569
		c-0.372,0-0.636,0.012-0.875,0.036c0.024-0.24,0.036-0.503,0.036-0.852v-2.435c0-0.324-0.012-0.624-0.036-0.864
		c0.228,0.024,0.48,0.036,0.875,0.036h1.835v-0.875h-2.087c-0.503,0-0.923,0.012-1.211,0.048V28.23z M148.141,34.515
		c-0.828,0.84-1.451,1.2-2.783,1.619c-0.132-0.252-0.264-0.443-0.456-0.66c0.755-0.18,1.127-0.312,1.667-0.611
		c0.444-0.252,0.647-0.408,1.031-0.828L148.141,34.515z M146.569,30.389v1.067h1.967v-1.067H146.569z M146.569,32.068v1.175h1.967
		v-1.175H146.569z M149.927,27.067h-1.979v1.199h1.979V27.067z M151.415,31.457v-1.067h-2.195v1.067H151.415z M151.415,33.244
		v-1.175h-2.195v1.175H151.415z M150.191,34.035c0.875,0.768,1.391,1.055,2.639,1.463c-0.204,0.264-0.312,0.432-0.444,0.696
		c-1.332-0.587-1.655-0.792-2.71-1.691L150.191,34.035z"/>
	<path d="M156.17,32.128c-0.408,1.355-0.755,2.243-1.211,3.154c-0.132,0.276-0.252,0.516-0.348,0.72l-0.731-0.576
		c0.563-0.66,1.151-2.003,1.643-3.73L156.17,32.128z M154.335,28.398c0.875,0.503,1.343,0.827,2.027,1.403l-0.432,0.66
		c-0.768-0.72-1.188-1.031-2.027-1.487L154.335,28.398z M154.935,25.472c0.78,0.528,1.248,0.912,1.919,1.607l-0.516,0.587
		c-0.708-0.779-1.127-1.151-1.895-1.655L154.935,25.472z M159.445,33.651c-1.007,1.104-1.739,1.655-3.142,2.351
		c-0.168-0.3-0.264-0.408-0.504-0.636c0.839-0.348,1.223-0.563,1.823-1.007c0.516-0.372,0.732-0.587,1.164-1.139L159.445,33.651z
		 M163.63,31.996c0.552,0,0.828-0.012,1.127-0.072v0.815c-0.336-0.036-0.684-0.06-1.127-0.06h-6.044
		c-0.468,0-0.78,0.012-1.116,0.048v-0.804c0.336,0.048,0.636,0.072,1.056,0.072h0.348v-4.222c0-0.647-0.012-1.127-0.048-1.451
		c0.084,0.012,0.144,0.012,0.192,0.012c0.78,0,2.375-0.204,3.406-0.432c0.828-0.18,1.523-0.419,1.871-0.624l0.6,0.66
		c-1.487,0.54-3.154,0.864-5.265,1.043v1.607h4.677c0.54,0,0.828-0.024,1.127-0.072v0.828c-0.396-0.048-0.672-0.06-1.127-0.06
		h-0.815v2.71H163.63z M161.735,29.286h-3.106v2.71h3.106V29.286z M161.64,33.231c0.492,0.54,0.731,0.756,1.247,1.115
		c0.672,0.456,1.092,0.672,2.003,1.02c-0.252,0.264-0.312,0.348-0.503,0.696c-0.888-0.408-1.284-0.636-1.883-1.08
		c-0.563-0.396-0.875-0.671-1.511-1.319L161.64,33.231z"/>
</g>
<g>
	<path d="M278.912,31.301c0.407,0.768,0.755,1.187,1.548,1.835c0.742-0.492,1.535-1.211,1.87-1.703l0.708,0.432
		c-0.061,0.06-0.061,0.06-0.217,0.192c-0.023,0.036-0.071,0.072-0.131,0.132c-0.744,0.684-1.092,0.959-1.703,1.343
		c1.091,0.72,2.278,1.224,3.646,1.523c-0.18,0.264-0.288,0.468-0.419,0.803c-1.836-0.527-3.143-1.199-4.258-2.183
		c-0.805-0.684-1.332-1.379-1.824-2.375h-1.451v3.322c1.128-0.288,1.787-0.492,2.627-0.815l0.024,0.732
		c-1.116,0.419-2.171,0.731-4.558,1.319c-0.168,0.048-0.288,0.084-0.516,0.144l-0.252-0.839c0.443-0.024,0.527-0.048,1.895-0.348
		v-3.514h-0.936c-0.491,0-0.827,0.024-1.188,0.072v-0.804c0.289,0.048,0.684,0.072,1.188,0.072h0.936v-3.706
		c0-0.648-0.012-0.839-0.047-1.188c0.348,0.048,0.646,0.06,1.246,0.06h5.109c0.672,0,0.984-0.012,1.283-0.072v0.803
		c-0.383-0.048-0.695-0.06-1.271-0.06h-5.541v0.923h5.17c0.563,0,0.899-0.024,1.163-0.06v0.78c-0.335-0.048-0.72-0.072-1.163-0.072
		h-5.17v0.948h5.17c0.576,0,0.912-0.024,1.163-0.072v0.792c-0.348-0.048-0.671-0.072-1.163-0.072h-5.17v0.996h6.609
		c0.504,0,0.84-0.024,1.163-0.072v0.804c-0.312-0.048-0.672-0.072-1.128-0.072H278.912z"/>
	<path d="M287.662,26.647c0-0.479-0.024-0.875-0.072-1.259h0.852c-0.048,0.396-0.071,0.768-0.071,1.248v6.968h0.791v-5.241
		c0-0.456-0.023-0.84-0.061-1.188h0.792c-0.048,0.312-0.06,0.684-0.06,1.188v1.427h5.685c0.588,0,0.888-0.024,1.175-0.072v0.816
		c-0.312-0.048-0.563-0.072-0.959-0.072v4.786c0,0.731-0.229,0.875-1.344,0.875c-0.215,0-0.611-0.012-0.959-0.024
		c-0.036-0.3-0.084-0.504-0.191-0.768c0.467,0.072,0.875,0.096,1.283,0.096c0.396,0,0.467-0.048,0.467-0.3v-4.666h-5.156v3.07
		c0,0.516,0.023,1.043,0.048,1.295h-0.72v-0.552h-2.303v1.188h-0.756c0.049-0.324,0.072-0.792,0.072-1.271v-5.805
		c0-0.456-0.012-0.804-0.061-1.211h0.805c-0.049,0.336-0.061,0.72-0.061,1.199v5.229h0.804V26.647z M293.646,27.127
		c0.312,0.492,0.479,0.671,0.876,0.959c0.551,0.408,0.995,0.6,1.787,0.779c-0.156,0.192-0.24,0.336-0.385,0.684
		c-0.982-0.336-1.463-0.6-2.038-1.127c-0.349-0.3-0.528-0.528-0.756-0.948c-0.252,0.54-0.575,0.948-1.031,1.308
		c-0.407,0.324-0.78,0.516-1.499,0.768c-0.12-0.24-0.204-0.372-0.456-0.636c1.427-0.408,2.015-0.852,2.398-1.787h-1.103
		c-0.48,0-0.756,0.012-1.08,0.06v-0.768c0.313,0.048,0.636,0.072,1.092,0.072h1.247c0.036-0.3,0.048-0.456,0.048-0.708
		c0-0.228-0.012-0.372-0.036-0.504h0.827c-0.012,0.096-0.023,0.12-0.06,0.588c-0.024,0.252-0.036,0.372-0.071,0.624h1.57
		c0.48,0,0.924-0.024,1.224-0.072v0.768c-0.396-0.036-0.792-0.06-1.212-0.06H293.646z M293.874,33.304
		c0,0.456,0.013,0.731,0.037,0.971c-0.252-0.024-0.553-0.036-0.936-0.036h-1.488v0.72h-0.719c0.035-0.228,0.048-0.6,0.048-0.996
		v-1.691c0-0.408-0.013-0.612-0.036-0.959c0.24,0.024,0.504,0.036,0.959,0.036h1.212c0.456,0,0.72-0.012,0.96-0.036
		c-0.024,0.252-0.037,0.528-0.037,0.972V33.304z M291.487,33.639h1.715v-1.691h-1.715V33.639z"/>
</g>
<g>
	<path d="M1.943,67.21c0-0.312-0.024-0.588-0.072-0.912h0.78c-0.048,0.312-0.072,0.576-0.072,0.912v0.384h0.768
		c0.48,0,0.672-0.012,0.972-0.06v0.731c-0.312-0.036-0.504-0.048-0.959-0.048H2.566v1.055h0.492c0.6,0,0.804-0.012,1.067-0.036
		l-0.012,0.072c0.492-0.264,0.864-0.528,1.284-0.899c0.768-0.672,1.199-1.211,1.559-1.955h0.731c0.744,1.175,1.859,2.099,3.31,2.723
		c-0.192,0.204-0.312,0.384-0.468,0.647c-1.319-0.719-2.422-1.643-3.178-2.698c-0.66,1.067-1.583,1.979-2.771,2.758
		c-0.144-0.24-0.264-0.384-0.468-0.563c-0.024,0.216-0.024,0.419-0.024,1.019v2.003c0,0.672,0.012,0.888,0.036,1.151
		c-0.096-0.012-0.096-0.012-0.3-0.024c-0.072,0-0.528-0.012-0.804-0.012H2.578v1.103h0.768c0.444,0,0.684-0.012,0.96-0.06v0.744
		c-0.288-0.048-0.54-0.06-0.96-0.06H2.578v0.911c0,0.468,0.024,0.78,0.072,1.127h-0.78c0.048-0.312,0.072-0.587,0.072-1.139v-0.899
		H0.995c-0.444,0-0.695,0.012-0.995,0.06v-0.744c0.288,0.048,0.54,0.06,0.995,0.06h0.948v-1.103h-0.42
		c-0.408,0-0.815,0.012-1.151,0.048c0.036-0.288,0.048-0.636,0.048-1.188v-1.931c0-0.564-0.012-0.875-0.048-1.164
		c0.36,0.036,0.696,0.048,1.115,0.048h0.456v-1.055H1.067c-0.444,0-0.696,0.012-0.983,0.06v-0.744
		c0.288,0.048,0.516,0.06,0.983,0.06h0.875V67.21z M1.019,69.861v1.188h0.924v-1.188H1.019z M1.019,71.6v1.271h0.924V71.6H1.019z
		 M3.49,71.048v-1.188H2.566v1.188H3.49z M3.49,72.871V71.6H2.566v1.271H3.49z M5.373,76.085c0,0.408,0.024,0.779,0.06,1.091H4.677
		c0.036-0.348,0.06-0.708,0.06-1.104V71.72c0-0.444-0.012-0.768-0.036-1.115c0.24,0.036,0.48,0.048,0.947,0.048h0.84
		c0.468,0,0.708-0.012,0.959-0.048c-0.024,0.288-0.036,0.624-0.036,1.127v4.557c0,0.384-0.072,0.54-0.3,0.66
		c-0.144,0.06-0.276,0.084-0.624,0.084c-0.18,0-0.288,0-0.516-0.012c-0.012-0.264-0.048-0.444-0.144-0.696
		c0.264,0.06,0.516,0.084,0.72,0.084c0.168,0,0.228-0.06,0.228-0.24v-1.487H5.373V76.085z M6.776,72.392V71.24H5.373v1.151H6.776z
		 M6.776,74.106v-1.139H5.373v1.139H6.776z M5.805,69.021c0.252,0.036,0.492,0.048,0.912,0.048h1.511c0.432,0,0.636-0.012,0.9-0.048
		v0.731c-0.264-0.036-0.504-0.048-0.9-0.048H6.716c-0.408,0-0.648,0.012-0.912,0.048V69.021z M8.947,70.7
		c-0.048,0.276-0.06,0.528-0.06,0.912v2.458c0,0.408,0.024,0.756,0.06,1.043H8.155c0.036-0.288,0.06-0.647,0.06-1.031v-2.458
		c0-0.384-0.012-0.648-0.06-0.924H8.947z M10.446,76.085c0,0.768-0.204,0.959-1.008,0.959c-0.252,0-0.552-0.012-0.852-0.048
		c-0.012-0.276-0.048-0.468-0.144-0.744c0.384,0.084,0.695,0.12,0.983,0.12c0.3,0,0.372-0.072,0.372-0.372V71.54
		c0-0.48-0.024-0.828-0.072-1.188h0.792c-0.048,0.384-0.072,0.708-0.072,1.188V76.085z"/>
	<path d="M15.25,67.81c-0.228,0-0.516,0.024-0.912,0.06v-0.864c0.24,0.048,0.48,0.06,0.912,0.06h1.583
		c0.576,0,0.875-0.024,1.116-0.072c-0.036,0.3-0.048,0.528-0.048,0.792c0,1.511,0.324,2.854,1.02,4.186
		c0.468,0.899,1.056,1.703,1.799,2.482c0.708,0.72,1.164,1.08,2.243,1.739c-0.324,0.276-0.408,0.36-0.672,0.768
		c-1.043-0.731-1.607-1.223-2.327-2.051c-0.696-0.792-1.307-1.703-1.715-2.591c-0.36-0.755-0.54-1.283-0.756-2.219
		c-0.372,1.595-0.863,2.734-1.679,3.886c-0.443,0.636-0.995,1.248-1.619,1.823c-0.443,0.408-0.755,0.66-1.511,1.175
		c-0.192-0.312-0.348-0.492-0.648-0.708c1.308-0.815,1.991-1.403,2.783-2.363c0.863-1.055,1.475-2.207,1.847-3.49
		c0.228-0.815,0.324-1.415,0.384-2.614H15.25z"/>
</g>
<g>
	<path d="M102.904,69.196c-0.24-0.012-0.419-0.024-0.624-0.024h-0.408c0.324,0.924,0.696,1.547,1.332,2.231
		c-0.18,0.192-0.276,0.324-0.456,0.588c-0.42-0.588-0.636-0.983-0.971-1.847c0.024,0.492,0.036,1.151,0.06,1.991v3.61
		c0,0.647,0.024,1.055,0.072,1.391h-0.864c0.048-0.36,0.072-0.744,0.072-1.391V72.41c0-0.3,0.024-0.959,0.072-1.979
		c-0.348,1.223-0.42,1.415-0.671,1.979c-0.216,0.492-0.408,0.828-0.672,1.211c-0.18-0.312-0.252-0.419-0.479-0.647
		c0.768-0.948,1.319-2.243,1.655-3.802h-0.468c-0.348,0-0.647,0.024-0.839,0.048v-0.744c0.204,0.036,0.444,0.048,0.839,0.048h0.564
		v-1.104c0-0.684-0.012-0.947-0.06-1.235h0.839c-0.048,0.3-0.06,0.636-0.06,1.224v1.115h0.432c0.348,0,0.552-0.012,0.768-0.048
		v0.708c0.384,0.036,0.611,0.048,1.067,0.048h0.803v-1.199h-0.54c-0.528,0-0.899,0.012-1.175,0.048v-0.744
		c0.336,0.036,0.731,0.06,1.188,0.06h0.527v-0.24c0-0.444-0.012-0.647-0.06-0.923h0.815c-0.036,0.276-0.048,0.492-0.048,0.923v0.24
		h1.979v-0.216c0-0.42-0.012-0.636-0.048-0.947h0.815c-0.048,0.264-0.06,0.492-0.06,0.947v0.216h0.695
		c0.444,0,0.888-0.024,1.199-0.06v0.744c-0.264-0.036-0.671-0.048-1.175-0.048h-0.719v1.199h0.983c0.576,0,0.959-0.024,1.223-0.06
		v0.756c-0.264-0.036-0.66-0.06-1.199-0.06h-2.423v0.875h2.051c0.42,0,0.636-0.012,0.888-0.036
		c-0.024,0.216-0.036,0.504-0.036,0.864v2.387c0,0.396,0.012,0.671,0.036,0.899c-0.24-0.024-0.504-0.036-0.888-0.036h-4.569
		c-0.372,0-0.636,0.012-0.875,0.036c0.024-0.24,0.036-0.503,0.036-0.852v-2.435c0-0.324-0.012-0.624-0.036-0.864
		c0.228,0.024,0.48,0.036,0.875,0.036h1.835v-0.875h-2.087c-0.503,0-0.923,0.012-1.211,0.048V69.196z M105.807,75.48
		c-0.828,0.84-1.451,1.2-2.783,1.619c-0.132-0.252-0.264-0.443-0.456-0.66c0.755-0.18,1.127-0.312,1.667-0.611
		c0.444-0.252,0.647-0.408,1.031-0.828L105.807,75.48z M104.236,71.355v1.067h1.967v-1.067H104.236z M104.236,73.034v1.175h1.967
		v-1.175H104.236z M107.594,68.033h-1.979v1.199h1.979V68.033z M109.081,72.422v-1.067h-2.195v1.067H109.081z M109.081,74.209
		v-1.175h-2.195v1.175H109.081z M107.858,75.001c0.875,0.768,1.391,1.055,2.639,1.463c-0.204,0.264-0.312,0.432-0.444,0.696
		c-1.332-0.587-1.655-0.792-2.71-1.691L107.858,75.001z"/>
	<path d="M113.837,73.094c-0.408,1.355-0.755,2.243-1.211,3.154c-0.132,0.276-0.252,0.516-0.348,0.72l-0.731-0.576
		c0.563-0.66,1.151-2.003,1.643-3.73L113.837,73.094z M112.002,69.364c0.875,0.503,1.343,0.827,2.027,1.403l-0.432,0.66
		c-0.768-0.72-1.188-1.031-2.027-1.487L112.002,69.364z M112.602,66.438c0.78,0.528,1.248,0.912,1.919,1.607l-0.516,0.587
		c-0.708-0.779-1.127-1.151-1.895-1.655L112.602,66.438z M117.111,74.617c-1.007,1.104-1.739,1.655-3.142,2.351
		c-0.168-0.3-0.264-0.408-0.504-0.636c0.839-0.348,1.223-0.563,1.823-1.007c0.516-0.372,0.732-0.587,1.164-1.139L117.111,74.617z
		 M121.297,72.962c0.552,0,0.828-0.012,1.127-0.072v0.815c-0.336-0.036-0.684-0.06-1.127-0.06h-6.044
		c-0.468,0-0.78,0.012-1.116,0.048V72.89c0.336,0.048,0.636,0.072,1.056,0.072h0.348V68.74c0-0.647-0.012-1.127-0.048-1.451
		c0.084,0.012,0.144,0.012,0.192,0.012c0.78,0,2.375-0.204,3.406-0.432c0.828-0.18,1.523-0.419,1.871-0.624l0.6,0.66
		c-1.487,0.54-3.154,0.864-5.265,1.043v1.607h4.677c0.54,0,0.828-0.024,1.127-0.072v0.828c-0.396-0.048-0.672-0.06-1.127-0.06
		h-0.815v2.71H121.297z M119.402,70.251h-3.106v2.71h3.106V70.251z M119.306,74.197c0.492,0.54,0.731,0.756,1.247,1.115
		c0.672,0.456,1.092,0.672,2.003,1.02c-0.252,0.264-0.312,0.348-0.503,0.696c-0.888-0.408-1.284-0.636-1.883-1.08
		c-0.563-0.396-0.875-0.671-1.511-1.319L119.306,74.197z"/>
</g>
<g>
	<path d="M248.168,72.267c0.408,0.768,0.755,1.187,1.547,1.835c0.743-0.492,1.535-1.211,1.871-1.703l0.708,0.432
		c-0.06,0.06-0.06,0.06-0.216,0.192c-0.024,0.036-0.072,0.072-0.132,0.132c-0.744,0.684-1.091,0.959-1.703,1.343
		c1.091,0.72,2.279,1.224,3.646,1.523c-0.18,0.264-0.288,0.468-0.419,0.803c-1.835-0.527-3.143-1.199-4.258-2.183
		c-0.804-0.684-1.332-1.379-1.823-2.375h-1.451v3.322c1.127-0.288,1.787-0.492,2.627-0.815l0.024,0.732
		c-1.116,0.419-2.171,0.731-4.558,1.319c-0.168,0.048-0.288,0.084-0.516,0.144l-0.252-0.839c0.444-0.024,0.528-0.048,1.895-0.348
		v-3.514h-0.936c-0.492,0-0.828,0.024-1.188,0.072v-0.804c0.288,0.048,0.684,0.072,1.188,0.072h0.936v-3.706
		c0-0.648-0.012-0.839-0.048-1.188c0.348,0.048,0.647,0.06,1.247,0.06h5.109c0.671,0,0.983-0.012,1.283-0.072v0.803
		c-0.384-0.048-0.696-0.06-1.271-0.06h-5.541v0.923h5.169c0.563,0,0.899-0.024,1.163-0.06v0.78
		c-0.335-0.048-0.719-0.072-1.163-0.072h-5.169v0.948h5.169c0.576,0,0.912-0.024,1.163-0.072v0.792
		c-0.348-0.048-0.671-0.072-1.163-0.072h-5.169v0.996h6.608c0.504,0,0.84-0.024,1.164-0.072v0.804
		c-0.312-0.048-0.672-0.072-1.127-0.072H248.168z"/>
	<path d="M256.918,67.613c0-0.479-0.024-0.875-0.072-1.259h0.852c-0.048,0.396-0.072,0.768-0.072,1.248v6.968h0.792v-5.241
		c0-0.456-0.024-0.84-0.06-1.188h0.792c-0.048,0.312-0.06,0.684-0.06,1.188v1.427h5.685c0.588,0,0.888-0.024,1.175-0.072v0.816
		c-0.312-0.048-0.563-0.072-0.959-0.072v4.786c0,0.731-0.228,0.875-1.343,0.875c-0.216,0-0.612-0.012-0.959-0.024
		c-0.036-0.3-0.084-0.504-0.192-0.768c0.468,0.072,0.875,0.096,1.283,0.096c0.396,0,0.468-0.048,0.468-0.3v-4.666h-5.157v3.07
		c0,0.516,0.024,1.043,0.048,1.295h-0.72v-0.552h-2.303v1.188h-0.756c0.048-0.324,0.072-0.792,0.072-1.271v-5.805
		c0-0.456-0.012-0.804-0.06-1.211h0.804c-0.048,0.336-0.06,0.72-0.06,1.199v5.229h0.804V67.613z M262.903,68.093
		c0.312,0.492,0.48,0.671,0.875,0.959c0.552,0.408,0.996,0.6,1.787,0.779c-0.156,0.192-0.24,0.336-0.384,0.684
		c-0.983-0.336-1.463-0.6-2.039-1.127c-0.348-0.3-0.528-0.528-0.756-0.948c-0.252,0.54-0.576,0.948-1.031,1.308
		c-0.408,0.324-0.78,0.516-1.5,0.768c-0.12-0.24-0.204-0.372-0.456-0.636c1.427-0.408,2.015-0.852,2.398-1.787h-1.103
		c-0.48,0-0.756,0.012-1.08,0.06v-0.768c0.312,0.048,0.636,0.072,1.091,0.072h1.248c0.036-0.3,0.048-0.456,0.048-0.708
		c0-0.228-0.012-0.372-0.036-0.504h0.828c-0.012,0.096-0.024,0.12-0.06,0.588c-0.024,0.252-0.036,0.372-0.072,0.624h1.571
		c0.479,0,0.923-0.024,1.223-0.072v0.768c-0.396-0.036-0.792-0.06-1.211-0.06H262.903z M263.131,74.27
		c0,0.456,0.012,0.731,0.036,0.971c-0.252-0.024-0.552-0.036-0.936-0.036h-1.487v0.72h-0.72c0.036-0.228,0.048-0.6,0.048-0.996
		v-1.691c0-0.408-0.012-0.612-0.036-0.959c0.24,0.024,0.503,0.036,0.959,0.036h1.211c0.456,0,0.719-0.012,0.959-0.036
		c-0.024,0.252-0.036,0.528-0.036,0.972V74.27z M260.744,74.605h1.715v-1.691h-1.715V74.605z"/>
</g>
<g>
	<path d="M299.377,50.193c-0.384,0-0.695,0.012-0.912,0.048v-0.744c0.252,0.036,0.516,0.048,0.912,0.048h1.104v-0.468
		c0-0.54-0.012-0.755-0.072-1.02h0.852c-0.061,0.24-0.072,0.468-0.072,1.02v0.468h1.008c0.371,0,0.6-0.012,0.84-0.048v0.744
		c-0.252-0.036-0.504-0.048-0.84-0.048h-0.959c0.539,1.02,1.127,1.751,1.906,2.399c-0.168,0.18-0.324,0.384-0.443,0.624
		c-0.66-0.66-0.96-1.08-1.56-2.171c0.036,0.648,0.048,1.379,0.048,1.967v1.56c0,0.708,0.012,1.043,0.072,1.391h-0.863
		c0.072-0.384,0.096-0.792,0.096-1.403v-1.451c0-0.696,0.012-1.271,0.036-1.955c-0.3,0.888-0.492,1.295-0.911,1.955
		c-0.324,0.528-0.576,0.852-1.032,1.355c-0.155-0.24-0.323-0.432-0.516-0.576c0.911-0.816,1.812-2.231,2.327-3.694H299.377z
		 M300,46.823c-0.396,0.624-0.779,1.104-1.271,1.607c-0.168-0.168-0.371-0.312-0.611-0.432c0.996-0.911,1.631-1.883,1.967-3.034
		l0.756,0.264c-0.216,0.444-0.264,0.552-0.479,0.959h1.931c0.564,0,0.875-0.024,1.188-0.072v0.755
		c-0.336-0.036-0.672-0.048-1.14-0.048h-0.647c0.168,0.288,0.396,0.744,0.6,1.248l-0.684,0.252c-0.228-0.732-0.3-0.888-0.623-1.5
		H300z M304.606,46.799c-0.299,0.528-0.551,0.888-0.947,1.355c-0.18-0.168-0.324-0.252-0.611-0.372
		c0.827-0.887,1.271-1.691,1.57-2.806l0.732,0.228c-0.191,0.468-0.275,0.648-0.42,0.959h2.674c0.576,0,0.924-0.024,1.271-0.072
		v0.768c-0.42-0.048-0.755-0.06-1.271-0.06h-1.414c0.239,0.372,0.359,0.588,0.646,1.211l-0.671,0.252
		c-0.252-0.696-0.336-0.864-0.684-1.463H304.606z M303.491,49.666c0-0.516-0.012-0.9-0.048-1.188
		c0.36,0.036,0.731,0.048,1.247,0.048h2.482c0.576,0,0.924-0.012,1.26-0.048c-0.035,0.24-0.048,0.636-0.048,1.199v4.773
		c0,0.588,0.024,0.996,0.071,1.427h-0.791v-0.54h-3.454v0.54h-0.792c0.049-0.384,0.072-0.804,0.072-1.332V49.666z M304.21,50.529
		h3.454v-1.355h-3.454V50.529z M304.21,52.532h3.454v-1.367h-3.454V52.532z M304.21,54.691h3.454v-1.523h-3.454V54.691z"/>
	<path d="M313.333,45.108c0.348,0.624,0.924,1.235,1.774,1.883c-0.228,0.228-0.348,0.396-0.443,0.612
		c-0.792-0.672-1.2-1.116-1.655-1.787c-0.756,1.043-1.379,1.679-2.543,2.59c-0.131-0.324-0.228-0.479-0.407-0.684
		c0.72-0.479,1.02-0.731,1.571-1.295c0.443-0.468,0.756-0.888,0.983-1.319H313.333z M314.604,55.495
		c-0.217-0.492-0.289-0.636-0.504-0.996c-0.648,0.24-1.848,0.6-3.311,1.008c-0.096,0.036-0.107,0.036-0.348,0.108l-0.229-0.768
		c0.276-0.036,0.336-0.036,0.84-0.156v-5.373c0-0.611-0.012-0.828-0.035-1.115c0.227,0.024,0.491,0.036,0.898,0.036h0.648v-0.456
		c0-0.3-0.012-0.479-0.061-0.719h0.792c-0.048,0.204-0.06,0.396-0.06,0.719v0.456h0.491c0.479,0,0.779-0.012,0.995-0.048
		c-0.023,0.312-0.035,0.588-0.035,1.008v1.847c0,0.48,0.012,0.768,0.035,1.08c-0.216-0.036-0.492-0.048-0.911-0.048h-2.039v2.446
		c0.876-0.228,1.235-0.335,1.979-0.6c-0.084-0.144-0.145-0.24-0.192-0.312c-0.216-0.36-0.264-0.444-0.528-0.804l0.588-0.3
		c0.54,0.731,1.152,1.691,1.631,2.579L314.604,55.495z M314.016,49.81v-0.983h-2.243v0.983H314.016z M311.773,51.477h2.243v-1.091
		h-2.243V51.477z M317.446,45.912c0-0.312-0.023-0.552-0.072-0.84h0.888c-0.06,0.24-0.071,0.456-0.071,0.84V46.2h1.379
		c0.504,0,0.947-0.024,1.344-0.06c-0.024,0.228-0.037,0.492-0.037,0.792v0.708c0,0.324,0.013,0.564,0.037,0.732h-0.756v-1.523
		h-4.342v1.14c0.24,0.024,0.527,0.036,0.924,0.036h2.194c0.528,0,0.863-0.012,1.079-0.048c-0.035,0.288-0.048,0.528-0.048,0.924
		v1.175c0,0.444,0.013,0.684,0.048,0.887c-0.252-0.036-0.588-0.048-1.043-0.048h-2.519v1.211h3.058c0.48,0,0.744-0.012,1.02-0.048
		c-0.023,0.3-0.035,0.587-0.035,1.007v1.703c0,0.527,0.012,0.887,0.047,1.163h-0.779v-0.66h-3.298v0.696h-0.792
		c0.049-0.312,0.061-0.6,0.061-1.164v-5.649c0-0.384,0-0.527-0.012-0.815h-0.648c0.024-0.216,0.036-0.432,0.036-0.695v-0.768
		c0-0.324-0.012-0.528-0.036-0.732c0.301,0.024,0.6,0.036,1.115,0.036h1.26V45.912z M316.451,54.643h3.31v-1.859h-3.31V54.643z
		 M316.462,50.29h2.782v-1.643h-2.782V50.29z"/>
</g>
<g>
	<g>
		<line fill="none" stroke="#000000" stroke-miterlimit="10" x1="309.249" y1="43.72" x2="309.249" y2="33.595"/>
		<g>
			<circle cx="309.249" cy="33.661" r="1.316"/>
		</g>
	</g>
</g>
<g>
	<g>
		<line fill="none" stroke="#000000" stroke-miterlimit="10" x1="310.692" y1="56.928" x2="310.692" y2="67.97"/>
		<g>
			<circle cx="310.692" cy="67.904" r="1.316"/>
		</g>
	</g>
</g>
</svg>
