<?xml version="1.0" encoding="utf-8"?>
<!-- Generator: Adobe Illustrator 16.0.0, SVG Export Plug-In . SVG Version: 6.00 Build 0)  -->
<!DOCTYPE svg PUBLIC "-//W3C//DTD SVG 1.1//EN" "http://www.w3.org/Graphics/SVG/1.1/DTD/svg11.dtd">
<svg version="1.1" id="レイヤー_1" xmlns="http://www.w3.org/2000/svg" xmlns:xlink="http://www.w3.org/1999/xlink" x="0px"
	 y="0px" width="201.062px" height="219.345px" viewBox="0 0 201.062 219.345" enable-background="new 0 0 201.062 219.345"
	 xml:space="preserve">
<rect x="90.926" y="100.833" fill="none" stroke="#231815" stroke-miterlimit="10" width="31.756" height="20.962"/>
<g>
	<path d="M98.266,108.653c0.961,0.605,1.264,0.816,1.936,1.409c1.04-0.922,1.646-1.594,2.542-2.805h-3.938
		c-1.001,1.159-2.094,2.067-3.608,2.989c-0.158-0.25-0.276-0.408-0.553-0.632c1.33-0.738,2.37-1.554,3.252-2.528
		c0.751-0.843,1.212-1.488,1.462-2.094l0.896,0.342c-0.605,0.856-0.605,0.856-0.855,1.185h2.896c0.514,0,0.869-0.026,1.225-0.066
		l0.475,0.566c-0.146,0.158-0.211,0.25-0.448,0.566c-1.172,1.594-2.462,2.884-4.24,4.201h4.833c0.422,0,0.672-0.013,0.948-0.052
		c-0.053,0.316-0.066,0.632-0.066,1.053v3.187c0,0.408,0.026,0.882,0.079,1.172h-0.922v-0.738h-5.504v0.738h-0.922
		c0.053-0.342,0.079-0.816,0.079-1.172v-3.187c-0.896,0.566-1.698,0.988-2.937,1.541c-0.145-0.316-0.25-0.487-0.526-0.777
		c2.041-0.777,3.555-1.646,5.188-2.963c-0.645-0.619-0.974-0.869-1.909-1.461L98.266,108.653z M98.674,115.671h5.504v-3.121h-5.504
		V115.671z"/>
	<path d="M109.413,108.666c-0.711,0-1.066,0.013-1.383,0.066v-0.922c0.382,0.053,0.764,0.079,1.383,0.079h7.809
		c0.593,0,1.001-0.026,1.383-0.079v0.922c-0.369-0.053-0.698-0.066-1.383-0.066h-3.529v2.805h2.871c0.593,0,0.961-0.013,1.277-0.066
		v0.909c-0.369-0.053-0.646-0.066-1.277-0.066h-2.871v3.424h4.108c0.58,0,1.027-0.026,1.423-0.079v0.961
		c-0.501-0.066-0.883-0.092-1.423-0.092h-8.836c-0.553,0-1,0.026-1.448,0.092v-0.961c0.396,0.053,0.816,0.079,1.436,0.079h3.818
		v-3.424h-2.607c-0.618,0-0.974,0.013-1.316,0.066v-0.909c0.329,0.053,0.646,0.066,1.277,0.066h2.646v-2.805H109.413z
		 M111.836,105.15c1.396,0.566,1.856,0.803,3.147,1.633l-0.54,0.711c-1.146-0.803-1.844-1.186-3.187-1.699L111.836,105.15z"/>
</g>
<g>
	<path d="M125.915,74.962c0,0.487,0.026,0.948,0.066,1.304h-0.843v-0.764h-4.029V76.7h-0.869c0.052-0.369,0.092-0.935,0.092-1.738
		v-6.729c0-0.566-0.014-0.935-0.053-1.343c0.382,0.039,0.764,0.052,1.356,0.052h2.963c0.605,0,0.975-0.013,1.369-0.052
		c-0.039,0.329-0.053,0.579-0.053,1.159h4.122c0.751,0,1.225-0.026,1.62-0.092v0.948c-0.396-0.066-0.738-0.079-1.581-0.079h-0.263
		v8.059c0,0.869-0.237,1.04-1.423,1.04c-0.461,0-1-0.013-1.448-0.053c-0.026-0.329-0.065-0.54-0.158-0.869
		c0.672,0.079,1.146,0.118,1.606,0.118c0.475,0,0.566-0.053,0.566-0.303v-7.993h-3.042V74.962z M121.122,70.722h1.58V67.68h-1.58
		V70.722z M121.122,74.765h1.58v-3.318h-1.58V74.765z M123.479,70.722h1.659V67.68h-1.659V70.722z M123.479,74.765h1.659v-3.318
		h-1.659V74.765z"/>
</g>
<g>
	<path d="M92.466,58.262c0,0.487,0.026,0.948,0.066,1.304h-0.843v-0.764H87.66V60h-0.869c0.052-0.369,0.092-0.935,0.092-1.738
		v-6.729c0-0.566-0.014-0.935-0.053-1.343c0.382,0.039,0.764,0.052,1.356,0.052h2.963c0.605,0,0.975-0.013,1.369-0.052
		c-0.039,0.329-0.053,0.579-0.053,1.159h4.122c0.751,0,1.225-0.026,1.62-0.092v0.948c-0.396-0.066-0.738-0.079-1.581-0.079h-0.263
		v8.059c0,0.869-0.237,1.04-1.423,1.04c-0.461,0-1-0.013-1.448-0.053c-0.026-0.329-0.065-0.54-0.158-0.869
		c0.672,0.079,1.146,0.118,1.606,0.118c0.475,0,0.566-0.053,0.566-0.303v-7.993h-3.042V58.262z M87.673,54.022h1.58V50.98h-1.58
		V54.022z M87.673,58.065h1.58v-3.318h-1.58V58.065z M90.03,54.022h1.659V50.98H90.03V54.022z M90.03,58.065h1.659v-3.318H90.03
		V58.065z"/>
	<path d="M105.839,49.743c-0.039,0.224-0.065,0.75-0.065,1.172c0,0.777,0.132,2.12,0.289,2.857c0.225,1.054,0.936,2.607,1.699,3.687
		c0.526,0.738,1.237,1.488,1.948,2.081c0.422,0.356,0.765,0.58,1.528,1.027c-0.316,0.29-0.461,0.448-0.686,0.83
		c-1.606-1.093-2.554-2.015-3.489-3.371c-0.816-1.198-1.316-2.423-1.712-4.188c-0.237,1.251-0.461,1.962-0.908,2.937
		c-0.461,1.014-1.041,1.856-1.884,2.699c-0.737,0.764-1.277,1.199-2.423,1.923c-0.224-0.355-0.382-0.527-0.711-0.777
		c1.33-0.737,1.923-1.172,2.687-1.989c1.83-1.962,2.726-4.49,2.726-7.729c0-0.553-0.013-0.816-0.053-1.159H105.839z"/>
	<path d="M114.221,51.191c0-0.619-0.026-1.08-0.079-1.461h0.975c-0.053,0.421-0.079,0.816-0.079,1.475v1.962h0.369
		c0.553,0,0.803-0.013,1.054-0.065v0.856c-0.33-0.04-0.606-0.053-1.067-0.053h-0.355v4.135c0.566-0.263,0.804-0.382,1.488-0.764
		l0.079,0.803c-1.277,0.711-1.909,1-3.397,1.606c-0.185,0.066-0.382,0.158-0.526,0.224L112.456,59
		c0.475-0.079,0.816-0.198,1.765-0.593v-4.503h-0.487c-0.553,0-0.764,0.013-1.105,0.079v-0.896c0.303,0.066,0.565,0.079,1.105,0.079
		h0.487V51.191z M118.25,59.724c0,0.316,0.079,0.421,0.396,0.5c0.316,0.092,0.908,0.118,2.12,0.118c1.856,0,2.41-0.079,2.62-0.382
		c0.172-0.237,0.264-0.843,0.277-1.777c0.303,0.184,0.461,0.25,0.843,0.342c-0.158,2.436-0.396,2.594-3.819,2.594
		c-2.726,0-3.266-0.198-3.266-1.225v-4.833l-0.29,0.092c-0.737,0.25-0.79,0.276-1.093,0.421l-0.237-0.896
		c0.369-0.04,0.725-0.119,1.146-0.264l0.474-0.158v-2.067c0-0.553-0.026-0.961-0.079-1.343h0.987
		c-0.053,0.395-0.079,0.777-0.079,1.304v1.844l1.884-0.632v-2.436c0-0.514-0.026-0.83-0.079-1.225h0.975
		c-0.053,0.382-0.079,0.764-0.079,1.238v2.16l2.027-0.672c0.408-0.131,0.686-0.25,1.041-0.408c-0.053,1.317-0.105,2.239-0.211,3.529
		c-0.093,1.172-0.264,1.725-0.605,1.922c-0.237,0.132-0.487,0.185-0.948,0.185c-0.119,0-0.276-0.013-0.58-0.04
		c-0.039-0.342-0.092-0.553-0.197-0.83c0.355,0.079,0.698,0.119,1.014,0.119c0.304,0,0.369-0.066,0.435-0.448
		c0.093-0.487,0.158-1.462,0.211-3.332l-2.186,0.75v3.634c0,0.527,0.026,0.882,0.079,1.264h-0.975
		c0.053-0.369,0.079-0.737,0.079-1.277v-3.345l-1.884,0.632V59.724z"/>
</g>
<g>
	<path d="M30.865,74.962c0,0.487,0.026,0.948,0.066,1.304h-0.843v-0.764H26.06V76.7H25.19c0.053-0.369,0.092-0.935,0.092-1.738
		v-6.729c0-0.566-0.014-0.935-0.053-1.343c0.382,0.039,0.764,0.052,1.356,0.052h2.963c0.605,0,0.975-0.013,1.369-0.052
		c-0.039,0.329-0.053,0.579-0.053,1.159h4.122c0.751,0,1.225-0.026,1.62-0.092v0.948c-0.396-0.066-0.738-0.079-1.581-0.079h-0.263
		v8.059c0,0.869-0.237,1.04-1.423,1.04c-0.461,0-1-0.013-1.448-0.053c-0.026-0.329-0.065-0.54-0.158-0.869
		c0.672,0.079,1.146,0.118,1.606,0.118c0.475,0,0.566-0.053,0.566-0.303v-7.993h-3.042V74.962z M26.072,70.722h1.58V67.68h-1.58
		V70.722z M26.072,74.765h1.58v-3.318h-1.58V74.765z M28.43,70.722h1.659V67.68H28.43V70.722z M28.43,74.765h1.659v-3.318H28.43
		V74.765z"/>
</g>
<g>
	<path d="M103.81,151.602c-0.474-0.066-0.922-0.092-1.738-0.092H93.96c-0.725,0-1.33,0.026-1.751,0.092v-1.093
		c0.421,0.065,0.987,0.092,1.751,0.092h8.111c0.777,0,1.344-0.026,1.738-0.092V151.602z"/>
	<path d="M107.991,151.588c-0.751,0.119-0.751,0.119-0.975,0.158c-0.145,2.555-0.474,3.937-1.237,5.307
		c-0.251-0.29-0.408-0.421-0.698-0.619c0.737-1.132,1.027-2.238,1.186-4.583c-0.777,0.105-0.883,0.119-1.041,0.158l-0.158-0.869
		c0.132,0,0.198,0,0.277,0c0.236,0,0.526-0.013,0.961-0.053c0.039-1.04,0.053-1.58,0.053-3.134c0-0.698-0.026-1.12-0.079-1.462
		c0.343,0.053,0.672,0.066,1.106,0.066h0.25c0.29-0.54,0.5-1.093,0.605-1.554l0.856,0.21c-0.225,0.514-0.461,0.988-0.646,1.343
		h0.922c0.487,0,0.829-0.026,1.093-0.066c-0.039,0.316-0.053,0.527-0.053,0.935v3.029c0.211-0.053,0.29-0.066,0.54-0.119
		l0.039,0.698l-0.579,0.119v4.833c0,0.685-0.29,0.948-1.04,0.948c-0.461,0-0.461,0-1.383-0.092
		c-0.026-0.343-0.053-0.474-0.171-0.843c0.618,0.118,1.158,0.171,1.58,0.171c0.224,0,0.263-0.04,0.263-0.342v-4.517
		c-0.526,0.105-0.632,0.118-1.014,0.171v2.16c0,0.606,0.014,0.948,0.053,1.264h-0.79c0.053-0.382,0.079-0.671,0.079-1.264V151.588z
		 M109.663,147.243h-2.554v0.882c0,1.08-0.026,2.133-0.053,2.871c0.974-0.118,1.79-0.25,2.606-0.395V147.243z M108.188,147.835
		c0.369,0.671,0.527,1.04,0.856,1.962l-0.672,0.316c-0.276-0.921-0.447-1.356-0.79-1.975L108.188,147.835z M116.458,151.325
		c-0.065,0.118-0.104,0.197-0.25,0.513c-0.435,0.975-1.027,1.87-1.817,2.766c0.816,0.724,1.738,1.291,2.832,1.712
		c-0.185,0.197-0.383,0.487-0.527,0.79c-1.119-0.527-1.988-1.119-2.844-1.949c-0.817,0.764-1.528,1.264-2.687,1.883
		c-0.172-0.303-0.237-0.382-0.58-0.724c1.225-0.553,1.805-0.922,2.727-1.725c-0.83-0.961-1.265-1.725-1.726-3.002
		c-0.039,0-0.197,0.013-0.447,0.04v-0.803c0.185,0.04,0.526,0.053,1.066,0.053h2.845c0.342,0,0.803-0.026,0.974-0.066
		L116.458,151.325z M112.731,146.426c-0.039,1.211-0.105,1.725-0.329,2.344c-0.197,0.566-0.487,1-0.961,1.409
		c-0.171-0.25-0.343-0.408-0.632-0.579c0.539-0.435,0.75-0.751,0.947-1.356c0.158-0.5,0.225-1.054,0.225-1.817
		c0-0.303-0.026-0.54-0.066-0.75c0.396,0.04,0.751,0.053,1.106,0.053h1.225c0.5,0,0.843-0.013,1.159-0.053
		c-0.04,0.342-0.053,0.698-0.053,1.238v2.028c0,0.224,0.013,0.237,0.514,0.237c0.408,0,0.514-0.04,0.579-0.224
		c0.079-0.171,0.132-0.632,0.185-1.356c0.263,0.198,0.395,0.264,0.697,0.356c-0.197,1.777-0.315,1.922-1.554,1.922
		c-1.014,0-1.198-0.105-1.198-0.737v-2.713H112.731z M112.311,151.575c0.447,1.093,0.829,1.738,1.527,2.489
		c0.764-0.843,1.238-1.567,1.633-2.489H112.311z"/>
	<path d="M123.761,152.708c-0.764,1.738-1.541,2.528-2.489,2.528c-1.251,0-2.186-1.369-2.186-3.213c0-1.343,0.5-2.647,1.383-3.634
		c1.054-1.159,2.488-1.751,4.253-1.751c1.475,0,2.766,0.461,3.621,1.304c0.83,0.803,1.277,1.949,1.277,3.213
		c0,2.041-1.105,3.727-3.016,4.543c-0.592,0.25-1.093,0.408-2.001,0.606c-0.132-0.435-0.211-0.566-0.461-0.882
		c0.961-0.158,1.58-0.329,2.199-0.619c1.448-0.658,2.331-2.067,2.331-3.687c0-1.501-0.765-2.712-2.094-3.305
		c-0.487-0.211-0.869-0.303-1.528-0.329C124.854,149.31,124.354,151.325,123.761,152.708z M122.141,148.112
		c-1.33,0.803-2.146,2.292-2.146,3.924c0,1.264,0.554,2.239,1.265,2.239c0.553,0,1.08-0.619,1.646-1.91
		c0.54-1.238,1.027-3.187,1.198-4.872C123.313,147.559,122.747,147.743,122.141,148.112z"/>
	<path d="M136.712,149.89c1.133,0.988,1.883,2.989,1.883,5.03c0,0.843-0.131,1.449-0.382,1.751c-0.236,0.29-0.579,0.408-1.225,0.408
		c-0.408,0-0.961-0.04-1.554-0.092c-0.026-0.382-0.079-0.566-0.211-0.882c0.659,0.132,1.212,0.198,1.699,0.198
		c0.672,0,0.855-0.316,0.855-1.58c0-0.382-0.013-0.606-0.053-0.988c-1.396,1.146-3.134,2.015-5.557,2.805
		c-0.171-0.316-0.29-0.487-0.514-0.737c2.384-0.606,4.425-1.606,5.913-2.884c-0.105-0.448-0.198-0.711-0.369-1.106
		c-1.356,0.935-2.976,1.672-4.925,2.239c-0.145-0.316-0.264-0.474-0.487-0.724c1.198-0.29,1.923-0.527,3.016-1.001
		c0.803-0.355,1.383-0.671,2.054-1.146c-0.263-0.421-0.461-0.659-0.764-0.922c-0.974,0.54-1.962,0.935-3.516,1.356
		c-0.185-0.342-0.264-0.461-0.487-0.698c2.055-0.448,3.345-0.948,4.596-1.804h-1.936c-0.474,0-0.882,0.026-1.277,0.066v-0.843
		c0.343,0.053,0.685,0.079,1.277,0.079h5.57c0.619,0,0.961-0.013,1.29-0.079v0.843c-0.395-0.04-0.79-0.066-1.29-0.066h-1.422
		c0.289,1.198,0.421,1.646,0.79,2.462c0.935-0.685,1.738-1.475,2.015-1.962l0.737,0.605c-0.29,0.237-0.29,0.237-0.79,0.711
		c-0.422,0.408-0.79,0.711-1.606,1.33c0.829,1.462,1.804,2.397,3.477,3.371c-0.225,0.198-0.408,0.408-0.646,0.738
		c-1.08-0.777-1.58-1.199-2.134-1.831c-0.987-1.106-1.765-2.542-2.251-4.161c-0.105-0.342-0.158-0.553-0.33-1.264h-0.395
		c-0.382,0.329-0.526,0.435-0.948,0.711L136.712,149.89z M136.976,146.044c0-0.29-0.026-0.527-0.093-0.816h1.027
		c-0.053,0.29-0.079,0.514-0.079,0.803v0.421h3.898c0.566,0,0.908-0.013,1.33-0.053c-0.04,0.25-0.053,0.474-0.053,0.869v0.816
		c0,0.408,0.013,0.619,0.053,0.896h-0.856v-1.804h-9.31v1.804h-0.856c0.04-0.303,0.053-0.514,0.053-0.909v-0.803
		c0-0.355-0.013-0.592-0.053-0.869c0.422,0.04,0.751,0.053,1.317,0.053h3.621V146.044z"/>
	<path d="M145.937,148.665c-0.368,0-0.671,0.013-0.975,0.053v-0.869c0.343,0.053,0.606,0.079,0.988,0.079h0.75v-1.264
		c0-0.58-0.026-0.882-0.092-1.33h1.014c-0.065,0.382-0.092,0.764-0.092,1.317v1.277h0.421c0.435,0,0.633-0.013,0.896-0.066v0.856
		c-0.289-0.04-0.5-0.053-0.882-0.053h-0.435v2.607c0.672-0.29,0.843-0.369,1.409-0.672v0.803c-0.593,0.303-0.804,0.408-1.409,0.685
		v4.082c0,0.75-0.29,0.935-1.448,0.935c-0.211,0-0.396-0.013-0.856-0.026c-0.026-0.329-0.065-0.5-0.185-0.83
		c0.566,0.066,0.869,0.092,1.186,0.092c0.369,0,0.474-0.079,0.474-0.382v-3.516c-0.395,0.158-0.618,0.25-1.079,0.435
		c-0.172,0.066-0.303,0.119-0.514,0.224l-0.237-0.896c0.475-0.065,0.856-0.197,1.83-0.592v-2.95H145.937z M150.506,147.664
		c-0.487,0-0.829,0.013-1.237,0.066v-0.882c0.329,0.053,0.698,0.079,1.237,0.079h1.515V146.4c0-0.382-0.026-0.711-0.079-1.053h0.975
		c-0.053,0.342-0.079,0.632-0.079,1.053v0.527h1.936c0.54,0,0.922-0.026,1.251-0.079v0.882c-0.408-0.053-0.737-0.066-1.251-0.066
		h-1.936v1.738h2.305c0.566,0,1.014-0.026,1.343-0.079v0.896c-0.355-0.053-0.79-0.079-1.343-0.079h-0.316v1.515h0.396
		c0.553,0,0.896-0.013,1.277-0.079v0.896c-0.369-0.053-0.751-0.079-1.277-0.079h-0.396v3.74c0,0.737-0.329,0.975-1.343,0.975
		c-0.382,0-0.777-0.026-1.356-0.066c-0.039-0.355-0.105-0.593-0.224-0.896c0.566,0.119,1.04,0.171,1.527,0.171
		c0.447,0,0.579-0.079,0.579-0.382v-3.542h-3.727c-0.566,0-0.922,0.026-1.343,0.079v-0.896c0.408,0.066,0.75,0.079,1.343,0.079
		h3.727v-1.515h-3.911c-0.54,0-0.987,0.026-1.343,0.066v-0.882c0.329,0.053,0.79,0.079,1.343,0.079h1.923v-1.738H150.506z
		 M150.414,152.971c0.79,0.737,1.119,1.08,1.856,2.001l-0.671,0.553c-0.686-0.961-1.054-1.383-1.857-2.107L150.414,152.971z"/>
</g>
<rect x="90.438" y="140.686" fill="none" stroke="#231815" stroke-miterlimit="10" width="70.502" height="20.075"/>
<g>
	<path d="M80.951,181.615c0-0.619-0.026-1.08-0.079-1.462h0.975c-0.053,0.421-0.079,0.816-0.079,1.475v1.962h0.369
		c0.553,0,0.803-0.013,1.054-0.065v0.855c-0.33-0.039-0.606-0.053-1.067-0.053h-0.355v4.135c0.566-0.263,0.804-0.382,1.488-0.764
		l0.079,0.804c-1.277,0.711-1.909,1.001-3.397,1.606c-0.185,0.065-0.382,0.158-0.526,0.224l-0.225-0.908
		c0.475-0.079,0.816-0.197,1.765-0.593v-4.504h-0.487c-0.553,0-0.764,0.014-1.105,0.079v-0.896c0.303,0.066,0.565,0.079,1.105,0.079
		h0.487V181.615z M84.98,190.147c0,0.316,0.079,0.422,0.396,0.501c0.316,0.092,0.908,0.118,2.12,0.118
		c1.856,0,2.41-0.079,2.62-0.382c0.172-0.237,0.264-0.843,0.277-1.777c0.303,0.185,0.461,0.25,0.843,0.342
		c-0.158,2.437-0.396,2.595-3.819,2.595c-2.726,0-3.266-0.197-3.266-1.225v-4.833l-0.29,0.092c-0.737,0.251-0.79,0.277-1.093,0.422
		l-0.237-0.896c0.369-0.04,0.725-0.118,1.146-0.264l0.474-0.158v-2.067c0-0.553-0.026-0.961-0.079-1.343h0.987
		c-0.053,0.396-0.079,0.777-0.079,1.304v1.844l1.884-0.632v-2.437c0-0.514-0.026-0.83-0.079-1.225h0.975
		c-0.053,0.382-0.079,0.764-0.079,1.237v2.16l2.027-0.672c0.408-0.132,0.686-0.25,1.041-0.408c-0.053,1.317-0.105,2.238-0.211,3.529
		c-0.093,1.172-0.264,1.725-0.605,1.923c-0.237,0.131-0.487,0.184-0.948,0.184c-0.119,0-0.276-0.013-0.58-0.039
		c-0.039-0.343-0.092-0.553-0.197-0.83c0.355,0.079,0.698,0.119,1.014,0.119c0.304,0,0.369-0.066,0.435-0.448
		c0.093-0.487,0.158-1.461,0.211-3.331l-2.186,0.75v3.635c0,0.526,0.026,0.883,0.079,1.265h-0.975
		c0.053-0.369,0.079-0.738,0.079-1.277v-3.345l-1.884,0.632V190.147z"/>
	<path d="M93.942,185.974c0-0.475,0.013-0.883,0.053-1.62c-0.54,1.015-0.804,1.423-1.317,2.041
		c-0.171-0.315-0.289-0.487-0.526-0.724c0.975-1.08,1.738-2.41,2.317-4.017c0.303-0.816,0.408-1.198,0.501-1.83l0.922,0.236
		c-0.079,0.198-0.079,0.198-0.382,1.133c-0.237,0.751-0.435,1.238-0.751,1.976v7.229c0,0.605,0.026,1.093,0.065,1.54h-0.961
		c0.053-0.474,0.079-0.896,0.079-1.58V185.974z M101.066,181.72v-0.5c0-0.487-0.026-0.869-0.079-1.186h0.961
		c-0.052,0.33-0.078,0.712-0.078,1.212v0.474h0.737c0.553,0,0.935-0.013,1.316-0.065v0.843c-0.303-0.039-0.646-0.053-1.304-0.053
		h-0.75v1.804h1.172c0.565,0,1.026-0.026,1.33-0.078v0.895c-0.304-0.052-0.765-0.078-1.33-0.078h-6.189
		c-0.566,0-0.935,0.013-1.343,0.065v-0.869c0.289,0.053,0.632,0.065,1.316,0.065h1.014v-1.804h-0.565
		c-0.606,0-1.001,0.014-1.291,0.053v-0.843c0.355,0.039,0.764,0.065,1.316,0.065h0.54v-0.5c0-0.487-0.026-0.829-0.079-1.186h0.962
		c-0.053,0.316-0.079,0.686-0.079,1.212v0.474H101.066z M96.642,187.066c0-0.408-0.013-0.698-0.053-0.987
		c0.316,0.039,0.619,0.053,1.172,0.053h4.175c0.579,0,0.855-0.014,1.172-0.053c-0.039,0.276-0.053,0.579-0.053,1.04v3.411
		c0,0.618,0.014,1.014,0.066,1.422h-0.869v-0.725h-4.807v0.725h-0.869c0.039-0.369,0.065-0.79,0.065-1.383V187.066z M97.445,188.278
		h4.807v-1.409h-4.807V188.278z M97.445,190.517h4.807v-1.527h-4.807V190.517z M101.066,184.248v-1.804h-2.423v1.804H101.066z"/>
</g>
<g>
	<path d="M114.574,32.817c0-0.386-0.012-0.667-0.058-1.006c0.503,0.035,0.667,0.047,1.123,0.047h5.688
		c0.445,0,0.714-0.012,1.124-0.047c-0.047,0.304-0.059,0.527-0.059,0.924v1.919h0.421c0.445,0,0.68-0.012,0.937-0.058v0.761
		c-0.362-0.035-0.702-0.059-1.17-0.059h-8.122c-0.469,0-0.913,0.023-1.147,0.059v-0.761c0.281,0.046,0.503,0.058,0.89,0.058h0.374
		V32.817z M116.693,30.418h1.111c0.479,0,0.702-0.012,0.937-0.047v0.714c-0.246-0.047-0.491-0.059-0.913-0.059h-3.043
		c-0.433,0-0.644,0.012-0.96,0.035c0.023-0.246,0.035-0.48,0.035-0.866v-3.838c0-0.34-0.012-0.539-0.035-0.796
		c0.293,0.023,0.516,0.035,0.913,0.035h2.973c0.48,0,0.749-0.012,1.03-0.059v0.726c-0.27-0.035-0.503-0.047-0.878-0.047h-1.17v1.042
		h0.842c0.469,0,0.598,0,0.772-0.023c-0.012,0.176-0.023,0.316-0.023,0.585v0.959c0,0.257,0.012,0.41,0.023,0.574
		c-0.175-0.023-0.374-0.023-0.761-0.023h-0.854V30.418z M116.049,27.258v-1.042h-1.521v1.042H116.049z M117.629,28.756v-0.924
		h-3.102v0.924H117.629z M114.527,29.33v1.088h1.521V29.33H114.527z M115.276,34.655h1.662v-2.153h-1.662V34.655z M117.605,34.655
		h1.697v-2.153h-1.697V34.655z M120.04,27.422c-0.315,0.608-0.538,0.913-0.995,1.428c-0.187-0.211-0.292-0.304-0.562-0.457
		c0.737-0.749,1.171-1.51,1.51-2.633c0.07-0.269,0.117-0.468,0.141-0.679l0.784,0.152c-0.047,0.105-0.07,0.187-0.164,0.456
		c-0.082,0.246-0.327,0.901-0.397,1.077h2.235c0.421,0,0.702-0.023,1.018-0.07v0.784c-0.292-0.047-0.562-0.059-1.006-0.059H120.04z
		 M119.432,29.33c0.27,0.046,0.515,0.058,0.937,0.058h1.86c0.457,0,0.714-0.012,1.007-0.058v0.784
		c-0.27-0.047-0.562-0.059-1.007-0.059h-1.778c-0.434,0-0.726,0.012-1.019,0.059V29.33z M119.97,34.655h1.721v-2.153h-1.721V34.655z
		"/>
	<path d="M125.034,29.927c0.632-0.597,0.901-0.995,1.24-1.837l0.574,0.269c-0.457,0.972-0.69,1.334-1.265,1.978L125.034,29.927z
		 M129.716,27.235c0.421,0,0.702-0.012,0.878-0.047v0.69c-0.234-0.035-0.516-0.046-0.878-0.046h-1.428v1.662
		c0,0.445-0.223,0.609-0.854,0.609c-0.152,0-0.246,0-0.737-0.035c-0.012-0.258-0.035-0.398-0.129-0.632
		c0.375,0.059,0.585,0.082,0.831,0.082c0.176,0,0.211-0.035,0.211-0.199v-1.486h-1.568c-0.27,0-0.573,0.023-0.866,0.058v-0.714
		c0.293,0.047,0.562,0.059,0.925,0.059h1.357v-1.439c0-0.304-0.023-0.562-0.07-0.819h0.796c-0.035,0.246-0.059,0.503-0.059,0.772
		v0.094h1.264c0.41,0,0.62-0.012,0.843-0.047v0.644c-0.152-0.023-0.421-0.035-0.831-0.035h-1.275v0.831H129.716z M126.544,35.697
		c0.047-0.293,0.07-0.656,0.07-1.135V31.46c0-0.48-0.012-0.667-0.047-1.03c0.375,0.035,0.655,0.047,1.264,0.047h4.811
		c0.585,0,0.878-0.012,1.299-0.047c-0.035,0.304-0.047,0.597-0.047,1.124v2.961c0,0.515,0.023,0.901,0.07,1.182h-0.772v-0.55h-5.875
		v0.55H126.544z M127.316,31.062v0.784h5.875v-0.784H127.316z M127.316,32.396v0.796h5.875v-0.796H127.316z M127.316,33.742v0.808
		h5.875v-0.808H127.316z M129.294,28.042c0.375,0.48,0.574,0.796,0.843,1.299l-0.526,0.316c-0.258-0.562-0.444-0.866-0.819-1.346
		L129.294,28.042z M134.947,25.948c-0.082,0.128-0.082,0.128-0.27,0.456c-0.456,0.819-0.878,1.381-1.486,1.978
		c0.679,0.574,1.393,0.972,2.329,1.299c-0.176,0.21-0.281,0.41-0.421,0.69c-1.077-0.503-1.697-0.913-2.399-1.545
		c-0.726,0.573-1.369,0.948-2.306,1.322c-0.117-0.257-0.234-0.444-0.387-0.597c0.878-0.304,1.533-0.655,2.235-1.182
		c-0.585-0.667-0.865-1.159-1.24-2.188c-0.234,0-0.304,0.012-0.526,0.023v-0.69c0.292,0.035,0.608,0.047,1.064,0.047h2.084
		c0.515,0,0.726-0.012,0.877-0.035L134.947,25.948z M131.646,26.17c0.27,0.702,0.585,1.217,1.101,1.779
		c0.538-0.515,0.901-1.018,1.299-1.779H131.646z"/>
</g>
<g>
	<path d="M170.931,113.115c1.133,0.988,1.883,2.989,1.883,5.03c0,0.843-0.131,1.449-0.382,1.751
		c-0.236,0.29-0.579,0.408-1.225,0.408c-0.408,0-0.961-0.04-1.554-0.092c-0.026-0.382-0.079-0.566-0.211-0.882
		c0.659,0.132,1.212,0.198,1.699,0.198c0.672,0,0.855-0.316,0.855-1.58c0-0.382-0.013-0.606-0.053-0.988
		c-1.396,1.146-3.134,2.015-5.557,2.805c-0.171-0.316-0.29-0.487-0.514-0.737c2.384-0.606,4.425-1.606,5.913-2.884
		c-0.105-0.448-0.198-0.711-0.369-1.106c-1.356,0.935-2.976,1.672-4.925,2.239c-0.145-0.316-0.264-0.474-0.487-0.724
		c1.198-0.29,1.923-0.527,3.016-1.001c0.803-0.355,1.383-0.671,2.054-1.146c-0.263-0.421-0.461-0.658-0.764-0.922
		c-0.974,0.54-1.962,0.935-3.516,1.356c-0.185-0.342-0.264-0.461-0.487-0.698c2.055-0.448,3.345-0.948,4.596-1.804h-1.936
		c-0.474,0-0.882,0.026-1.277,0.066v-0.843c0.343,0.053,0.685,0.079,1.277,0.079h5.57c0.619,0,0.961-0.013,1.29-0.079v0.843
		c-0.395-0.04-0.79-0.066-1.29-0.066h-1.422c0.289,1.198,0.421,1.646,0.79,2.462c0.935-0.685,1.738-1.475,2.015-1.962l0.737,0.605
		c-0.29,0.237-0.29,0.237-0.79,0.711c-0.422,0.408-0.79,0.711-1.606,1.33c0.829,1.462,1.804,2.397,3.477,3.371
		c-0.225,0.198-0.408,0.408-0.646,0.738c-1.08-0.777-1.58-1.199-2.134-1.831c-0.987-1.106-1.765-2.542-2.251-4.161
		c-0.105-0.342-0.158-0.553-0.33-1.264h-0.395c-0.382,0.329-0.526,0.435-0.948,0.711L170.931,113.115z M171.194,109.27
		c0-0.29-0.026-0.527-0.093-0.816h1.027c-0.053,0.29-0.079,0.514-0.079,0.803v0.421h3.898c0.566,0,0.908-0.013,1.33-0.053
		c-0.04,0.25-0.053,0.474-0.053,0.869v0.816c0,0.408,0.013,0.619,0.053,0.896h-0.856v-1.804h-9.31v1.804h-0.856
		c0.04-0.303,0.053-0.514,0.053-0.909v-0.803c0-0.355-0.013-0.592-0.053-0.869c0.422,0.04,0.751,0.053,1.317,0.053h3.621V109.27z"/>
	<path d="M166.993,125.053c-0.368,0-0.671,0.013-0.975,0.053v-0.869c0.343,0.053,0.606,0.079,0.988,0.079h0.75v-1.264
		c0-0.58-0.026-0.882-0.092-1.33h1.014c-0.065,0.382-0.092,0.764-0.092,1.317v1.277h0.421c0.435,0,0.633-0.013,0.896-0.066v0.856
		c-0.289-0.04-0.5-0.053-0.882-0.053h-0.435v2.607c0.672-0.29,0.843-0.369,1.409-0.672v0.803c-0.593,0.303-0.804,0.408-1.409,0.685
		v4.082c0,0.75-0.29,0.935-1.448,0.935c-0.211,0-0.396-0.013-0.856-0.026c-0.026-0.329-0.065-0.5-0.185-0.83
		c0.566,0.066,0.869,0.092,1.186,0.092c0.369,0,0.474-0.079,0.474-0.382v-3.516c-0.395,0.158-0.618,0.25-1.079,0.435
		c-0.172,0.066-0.303,0.119-0.514,0.224l-0.237-0.895c0.475-0.066,0.856-0.198,1.83-0.593v-2.95H166.993z M171.563,124.052
		c-0.487,0-0.829,0.013-1.237,0.066v-0.882c0.329,0.053,0.698,0.079,1.237,0.079h1.515v-0.527c0-0.382-0.026-0.711-0.079-1.053
		h0.975c-0.053,0.342-0.079,0.632-0.079,1.053v0.527h1.936c0.54,0,0.922-0.026,1.251-0.079v0.882
		c-0.408-0.053-0.737-0.066-1.251-0.066h-1.936v1.738h2.305c0.566,0,1.014-0.026,1.343-0.079v0.896
		c-0.355-0.053-0.79-0.079-1.343-0.079h-0.316v1.515h0.396c0.553,0,0.896-0.013,1.277-0.079v0.896
		c-0.369-0.053-0.751-0.079-1.277-0.079h-0.396v3.74c0,0.737-0.329,0.975-1.343,0.975c-0.382,0-0.777-0.026-1.356-0.066
		c-0.039-0.355-0.105-0.593-0.224-0.896c0.566,0.119,1.04,0.171,1.527,0.171c0.447,0,0.579-0.079,0.579-0.382v-3.542h-3.727
		c-0.566,0-0.922,0.026-1.343,0.079v-0.896c0.408,0.066,0.75,0.079,1.343,0.079h3.727v-1.515h-3.911
		c-0.54,0-0.987,0.026-1.343,0.066v-0.882c0.329,0.053,0.79,0.079,1.343,0.079h1.923v-1.738H171.563z M171.471,129.359
		c0.79,0.737,1.119,1.08,1.856,2.001l-0.671,0.553c-0.686-0.961-1.054-1.383-1.857-2.107L171.471,129.359z"/>
</g>
<g>
	<path d="M186.381,129.373c0,0.487,0.026,0.948,0.066,1.304h-0.843v-0.764h-4.029v1.198h-0.869c0.053-0.369,0.092-0.935,0.092-1.738
		v-6.729c0-0.566-0.014-0.935-0.053-1.343c0.382,0.039,0.764,0.052,1.356,0.052h2.963c0.605,0,0.975-0.013,1.369-0.052
		c-0.039,0.329-0.053,0.579-0.053,1.159h4.122c0.751,0,1.225-0.026,1.62-0.092v0.948c-0.396-0.066-0.738-0.079-1.581-0.079h-0.263
		v8.059c0,0.869-0.237,1.04-1.423,1.04c-0.461,0-1-0.013-1.448-0.053c-0.026-0.329-0.065-0.54-0.158-0.869
		c0.672,0.079,1.146,0.118,1.606,0.118c0.475,0,0.566-0.053,0.566-0.303v-7.993h-3.042V129.373z M181.588,125.132h1.58v-3.042h-1.58
		V125.132z M181.588,129.175h1.58v-3.318h-1.58V129.175z M183.945,125.132h1.659v-3.042h-1.659V125.132z M183.945,129.175h1.659
		v-3.318h-1.659V129.175z"/>
	<path d="M186.592,134.015c-0.039,0.224-0.065,0.75-0.065,1.172c0,0.777,0.131,2.12,0.289,2.857
		c0.225,1.054,0.936,2.607,1.699,3.687c0.526,0.738,1.237,1.488,1.948,2.081c0.422,0.355,0.765,0.58,1.528,1.027
		c-0.316,0.29-0.461,0.448-0.686,0.83c-1.606-1.093-2.554-2.015-3.489-3.371c-0.816-1.198-1.316-2.423-1.712-4.188
		c-0.237,1.251-0.461,1.962-0.908,2.937c-0.461,1.014-1.041,1.857-1.884,2.7c-0.737,0.764-1.277,1.198-2.423,1.922
		c-0.224-0.355-0.382-0.527-0.711-0.777c1.33-0.737,1.923-1.172,2.687-1.988c1.83-1.962,2.726-4.491,2.726-7.73
		c0-0.553-0.013-0.816-0.053-1.159H186.592z"/>
</g>
<g>
	<path d="M82.095,95.302c0,0.433,0.023,0.843,0.059,1.159h-0.749v-0.679h-3.581v1.065h-0.772c0.046-0.328,0.081-0.831,0.081-1.545
		v-5.98c0-0.503-0.012-0.831-0.046-1.193c0.339,0.035,0.679,0.046,1.205,0.046h2.633c0.539,0,0.866-0.012,1.218-0.046
		c-0.035,0.292-0.047,0.515-0.047,1.03h3.663c0.667,0,1.088-0.023,1.439-0.082v0.843c-0.352-0.059-0.655-0.07-1.404-0.07h-0.234
		v7.163c0,0.772-0.211,0.924-1.264,0.924c-0.41,0-0.89-0.012-1.287-0.047c-0.023-0.292-0.059-0.479-0.141-0.772
		c0.597,0.07,1.018,0.105,1.428,0.105c0.421,0,0.503-0.047,0.503-0.269v-7.104h-2.703V95.302z M77.835,91.534h1.404v-2.703h-1.404
		V91.534z M77.835,95.127h1.404v-2.949h-1.404V95.127z M79.93,91.534h1.475v-2.703H79.93V91.534z M79.93,95.127h1.475v-2.949H79.93
		V95.127z"/>
	<path d="M87.15,102.133c-0.27-0.047-0.491-0.058-1.076-0.058c-0.141,1.393-0.305,2.106-0.703,3.089
		c-0.233,0.585-0.503,1.088-0.854,1.592c0.842,1.053,1.708,1.767,2.844,2.329c-0.234,0.246-0.352,0.421-0.492,0.726
		c-1.17-0.702-2.06-1.486-2.797-2.481c-0.866,1.007-1.697,1.65-3.219,2.481c-0.163-0.292-0.304-0.468-0.526-0.655
		c0.749-0.328,1.171-0.562,1.709-0.948c0.644-0.457,1.17-0.948,1.615-1.486c-0.608-0.959-0.983-1.861-1.241-2.961
		c-0.292,0.597-0.444,0.878-0.761,1.334c-0.198-0.234-0.327-0.339-0.562-0.479c0.117-0.141,0.152-0.188,0.246-0.316
		c-0.211-0.035-0.445-0.047-1.042-0.047h-0.491v3.16c0.69-0.234,1.019-0.351,1.896-0.702l0.012,0.726
		c-1.498,0.585-2.469,0.913-3.335,1.147c-0.913,0.246-1.475,0.398-1.732,0.492l-0.211-0.843c0.258-0.012,0.504-0.047,0.878-0.129
		v-4.026c0-0.526-0.012-0.808-0.059-1.159h0.808c-0.047,0.363-0.059,0.679-0.059,1.147v3.874c0.305-0.07,0.655-0.176,1.089-0.304
		v-6.613h-1.229c-0.374,0-0.714,0.023-1.053,0.07v-0.831c0.339,0.047,0.644,0.07,1.076,0.07h2.833c0.479,0,0.761-0.012,1.053-0.059
		v0.808c-0.315-0.047-0.538-0.059-0.971-0.059h-0.995v2.552h0.491c0.608,0,0.831-0.012,1.054-0.047v0.749
		c0.573-0.901,0.995-1.966,1.311-3.359c0.188-0.772,0.293-1.405,0.305-1.768l0.819,0.164c-0.07,0.234-0.07,0.234-0.375,1.533
		c-0.059,0.222-0.094,0.363-0.152,0.573h2.786c0.526,0,0.854-0.023,1.111-0.07V102.133z M83.055,102.075
		c-0.105,0.328-0.141,0.456-0.258,0.749c0.281,1.334,0.655,2.317,1.275,3.3c0.737-1.182,1.124-2.435,1.265-4.049H83.055z"/>
	<path d="M76.57,115.66c0.281,0.046,0.457,0.058,0.901,0.058h0.585c0.352,0,0.585-0.012,0.901-0.058
		c-0.047,0.374-0.059,0.632-0.059,1.24v2.317c0.281,0.585,0.515,0.831,1.019,1.053c0.585,0.257,1.264,0.339,2.68,0.339
		c2.235,0,3.593-0.059,4.717-0.21c-0.164,0.351-0.223,0.526-0.281,0.819c-1.369,0.058-2.527,0.082-3.827,0.082
		c-2.153,0-2.785-0.07-3.476-0.397c-0.479-0.234-0.89-0.585-1.229-1.112c-0.527,0.527-0.772,0.737-1.358,1.182
		c-0.175,0.141-0.21,0.164-0.444,0.386l-0.397-0.772c0.538-0.246,1.182-0.726,1.872-1.393v-2.82h-0.749
		c-0.386,0-0.562,0.012-0.854,0.058V115.66z M77.343,111.247c0.761,0.831,1.124,1.264,1.697,2.107l-0.585,0.538
		c-0.586-0.971-0.96-1.463-1.674-2.177L77.343,111.247z M79.484,112.137c0-0.281-0.012-0.503-0.047-0.726
		c0.328,0.035,0.621,0.047,1.077,0.047h5.302c0.456,0,0.749-0.012,1.088-0.047c-0.035,0.222-0.047,0.41-0.047,0.714v0.492
		c0,0.339,0.012,0.526,0.047,0.749h-0.749v-1.311h-5.992v1.311h-0.726c0.035-0.246,0.047-0.433,0.047-0.726V112.137z
		 M80.994,117.708c-0.362,0-0.608,0.012-0.901,0.047c0.035-0.269,0.047-0.421,0.047-0.761v-1.908c0-0.363-0.012-0.527-0.047-0.784
		c0.27,0.035,0.516,0.047,0.901,0.047h1.732v-0.772h-1.416c-0.398,0-0.632,0.012-0.901,0.059v-0.69
		c0.258,0.047,0.491,0.059,0.89,0.059h1.428c-0.012-0.328-0.023-0.433-0.059-0.632h0.772c-0.047,0.223-0.047,0.328-0.059,0.632
		h1.686c0.421,0,0.608-0.012,0.866-0.047v0.679c-0.27-0.047-0.492-0.059-0.901-0.059h-1.65v0.772h1.932
		c0.409,0,0.632-0.012,0.912-0.047c-0.035,0.269-0.047,0.468-0.047,0.784v1.908c0,0.316,0.012,0.492,0.047,0.761
		c-0.304-0.035-0.562-0.047-0.912-0.047h-1.932v0.819h2.47c0.456,0,0.726-0.023,1.006-0.059v0.714
		c-0.327-0.047-0.573-0.059-1.006-0.059h-2.47v0.152c0,0.351,0.023,0.726,0.07,1.018h-0.808c0.047-0.269,0.082-0.667,0.082-1.018
		v-0.152h-2.247c-0.409,0-0.679,0.023-0.983,0.07v-0.726c0.305,0.035,0.586,0.059,0.983,0.059h2.247v-0.819H80.994z M80.808,114.887
		v0.866h1.919v-0.866H80.808z M80.808,116.268v0.901h1.919v-0.901H80.808z M83.382,115.753h2.13v-0.866h-2.13V115.753z
		 M83.382,117.169h2.13v-0.901h-2.13V117.169z"/>
	<path d="M79.204,124.258c-0.27-0.515-0.469-0.808-0.89-1.311l0.702-0.199c0.433,0.562,0.644,0.889,0.972,1.51h1.638
		c-0.222-0.574-0.456-1.03-0.783-1.51l0.726-0.164c0.327,0.574,0.573,1.053,0.83,1.674h1.229c0.456-0.597,0.679-0.96,1.006-1.662
		l0.749,0.269c-0.374,0.621-0.573,0.925-0.936,1.393h0.947c0.621,0,0.925-0.012,1.3-0.047c-0.035,0.269-0.047,0.527-0.047,0.983
		v0.96c0,0.339,0.012,0.562,0.059,0.842H85.91v-2.106h-8.169v2.106h-0.784c0.035-0.269,0.059-0.55,0.059-0.831v-0.972
		c0-0.41-0.012-0.62-0.047-0.983c0.386,0.035,0.702,0.047,1.287,0.047H79.204z M79.906,128.564c-0.726,0-0.901,0.012-1.253,0.047
		c0.035-0.281,0.047-0.503,0.047-0.936v-1.019c0-0.41-0.012-0.655-0.047-0.877c0.352,0.035,0.668,0.047,1.136,0.047h4.061
		c0.469,0,0.772-0.012,1.124-0.047c-0.023,0.21-0.035,0.433-0.035,0.889v1.007c0,0.503,0.012,0.667,0.047,0.936
		c-0.421-0.035-0.667-0.047-1.252-0.047h-1.756c-0.164,0.398-0.363,0.784-0.562,1.147h3.347c0.516,0,0.796-0.012,1.112-0.047
		c-0.047,0.316-0.059,0.574-0.059,1.1v1.346c0,0.48,0.012,0.796,0.07,1.135h-0.796v-0.48h-6.554v0.468h-0.796
		c0.047-0.363,0.07-0.714,0.07-1.124v-1.346c0-0.503-0.012-0.772-0.059-1.1c0.315,0.035,0.608,0.047,1.123,0.047h1.779
		c0.21-0.339,0.397-0.726,0.562-1.147H79.906z M78.537,132.111h6.554v-1.756h-6.554V132.111z M79.414,127.956h4.811v-1.521h-4.811
		V127.956z"/>
</g>
<g>
	<path d="M80.233,143.133c0.316-0.421,0.433-0.621,0.55-0.948l0.831,0.176c-0.211,0.328-0.339,0.526-0.526,0.772h4.377
		c0.608,0,0.983-0.023,1.275-0.07v0.772c-0.315-0.035-0.702-0.059-1.264-0.059h-2.212c0.726,0.831,2.06,1.533,3.733,1.955
		c-0.199,0.21-0.328,0.398-0.444,0.679c-1.908-0.644-3.348-1.557-4.144-2.633h-1.849c-0.995,1.112-2.037,1.767-3.874,2.458
		c-0.164-0.304-0.258-0.421-0.48-0.62c1.604-0.48,2.552-0.983,3.453-1.837h-1.979c-0.562,0-0.947,0.023-1.287,0.059v-0.772
		c0.293,0.047,0.679,0.07,1.275,0.07H80.233z M77.167,141.412c0.305,0.035,0.96,0.07,1.287,0.07c0.012,0,0.129,0,0.281-0.012
		c0.07,0,0.176,0,0.305,0c0.69-0.796,1.064-1.369,1.311-2.001l0.796,0.246c-0.059,0.082-0.059,0.082-0.234,0.351
		c-0.305,0.468-0.667,0.948-1.042,1.393c1.429-0.023,2.95-0.105,4.214-0.21c-0.387-0.305-0.644-0.492-1.369-0.96l0.55-0.363
		c1.146,0.761,1.779,1.264,2.809,2.212l-0.573,0.457c-0.444-0.457-0.573-0.585-0.831-0.831c-2.036,0.211-4.248,0.328-6.753,0.363
		c-0.27,0-0.421,0.012-0.608,0.035L77.167,141.412z M82.586,144.888c-0.925,0.632-0.925,0.632-1.346,0.878
		c-0.96,0.562-1.779,0.877-3.172,1.229c-0.105-0.292-0.176-0.41-0.363-0.62c1.463-0.281,2.493-0.679,3.488-1.334
		c0.315-0.211,0.55-0.398,0.761-0.621L82.586,144.888z M83.932,146.129c-0.094,0.058-0.094,0.058-0.456,0.316
		c-1.475,1.053-3.125,1.732-5.278,2.165c-0.129-0.339-0.188-0.433-0.387-0.655c1.826-0.281,3.148-0.737,4.471-1.521
		c0.504-0.304,0.831-0.55,1.007-0.784L83.932,146.129z M85.418,147.475c-0.141,0.094-0.176,0.117-0.374,0.257
		c-1.03,0.784-1.967,1.299-3.113,1.732c-1.065,0.41-1.885,0.62-3.5,0.924c-0.082-0.269-0.175-0.445-0.386-0.702
		c2.188-0.257,3.933-0.808,5.396-1.697c0.585-0.363,1.018-0.714,1.264-1.03L85.418,147.475z"/>
	<path d="M80.351,153.521c0.55,0,0.866-0.012,1.217-0.047c-0.047,0.339-0.047,0.339-0.059,1.486
		c-0.035,1.931-0.176,3.77-0.386,4.988c-0.211,1.171-0.457,1.439-1.265,1.439c-0.362,0-0.877-0.047-1.428-0.129
		c-0.012-0.339-0.035-0.433-0.116-0.772c0.538,0.117,1.029,0.188,1.369,0.188c0.315,0,0.468-0.082,0.55-0.281
		c0.152-0.386,0.374-1.921,0.444-3.15c0.059-1.112,0.082-1.767,0.094-3.02h-1.708c-0.082,1.416-0.211,2.306-0.445,3.324
		c-0.211,0.901-0.468,1.605-0.854,2.354c-0.339,0.667-0.585,1.042-1.182,1.79c-0.188-0.28-0.34-0.444-0.597-0.654
		c0.655-0.75,0.947-1.171,1.311-1.943c0.597-1.277,0.913-2.764,1.03-4.871h-0.703c-0.515,0-0.912,0.023-1.229,0.082v-0.866
		c0.281,0.059,0.702,0.082,1.287,0.082h0.679c0.023-0.328,0.023-0.573,0.023-0.936c0-0.749-0.012-0.937-0.081-1.276h0.889
		c-0.059,0.304-0.059,0.304-0.104,2.212H80.351z M83.312,161.505h-0.808c0.047-0.327,0.07-0.854,0.07-1.335v-6.204
		c0-0.539-0.012-0.866-0.059-1.229c0.339,0.047,0.585,0.059,1.03,0.059h1.966c0.456,0,0.644-0.012,1.019-0.059
		c-0.047,0.363-0.059,0.667-0.059,1.229v6.298c0,0.445,0.023,0.797,0.07,1.147h-0.808v-0.843h-2.423V161.505z M83.312,159.89h2.423
		v-6.416h-2.423V159.89z"/>
</g>
<rect x="75.479" y="176.258" fill="none" stroke="#231815" stroke-miterlimit="10" width="33.164" height="20.074"/>
<g>
	<path d="M142.55,185.974c0-0.475,0.013-0.883,0.053-1.62c-0.54,1.015-0.804,1.423-1.317,2.041
		c-0.171-0.315-0.289-0.487-0.526-0.724c0.975-1.08,1.738-2.41,2.317-4.017c0.303-0.816,0.408-1.198,0.501-1.83l0.922,0.236
		c-0.079,0.198-0.079,0.198-0.382,1.133c-0.237,0.751-0.435,1.238-0.751,1.976v7.229c0,0.605,0.026,1.093,0.065,1.54h-0.961
		c0.053-0.474,0.079-0.896,0.079-1.58V185.974z M149.674,181.72v-0.5c0-0.487-0.026-0.869-0.079-1.186h0.961
		c-0.052,0.33-0.078,0.712-0.078,1.212v0.474h0.737c0.553,0,0.935-0.013,1.316-0.065v0.843c-0.303-0.039-0.646-0.053-1.304-0.053
		h-0.75v1.804h1.172c0.565,0,1.026-0.026,1.33-0.078v0.895c-0.304-0.052-0.765-0.078-1.33-0.078h-6.189
		c-0.566,0-0.935,0.013-1.343,0.065v-0.869c0.289,0.053,0.632,0.065,1.316,0.065h1.014v-1.804h-0.565
		c-0.606,0-1.001,0.014-1.291,0.053v-0.843c0.355,0.039,0.764,0.065,1.316,0.065h0.54v-0.5c0-0.487-0.026-0.829-0.079-1.186h0.962
		c-0.053,0.316-0.079,0.686-0.079,1.212v0.474H149.674z M145.249,187.066c0-0.408-0.013-0.698-0.053-0.987
		c0.316,0.039,0.619,0.053,1.172,0.053h4.175c0.579,0,0.855-0.014,1.172-0.053c-0.039,0.276-0.053,0.579-0.053,1.04v3.411
		c0,0.618,0.014,1.014,0.066,1.422h-0.869v-0.725h-4.807v0.725h-0.869c0.039-0.369,0.065-0.79,0.065-1.383V187.066z
		 M146.053,188.278h4.807v-1.409h-4.807V188.278z M146.053,190.517h4.807v-1.527h-4.807V190.517z M149.674,184.248v-1.804h-2.423
		v1.804H149.674z"/>
	<path d="M159.359,184.63c1.133,0.988,1.883,2.989,1.883,5.031c0,0.843-0.131,1.448-0.382,1.751
		c-0.236,0.29-0.579,0.408-1.225,0.408c-0.408,0-0.961-0.039-1.554-0.092c-0.026-0.382-0.079-0.566-0.211-0.883
		c0.659,0.132,1.212,0.197,1.699,0.197c0.672,0,0.855-0.315,0.855-1.58c0-0.382-0.013-0.605-0.053-0.987
		c-1.396,1.146-3.134,2.015-5.557,2.805c-0.171-0.316-0.29-0.487-0.514-0.737c2.384-0.605,4.425-1.606,5.913-2.884
		c-0.105-0.448-0.198-0.711-0.369-1.106c-1.356,0.936-2.976,1.673-4.925,2.239c-0.145-0.316-0.264-0.475-0.487-0.725
		c1.198-0.29,1.923-0.526,3.016-1.001c0.803-0.355,1.383-0.672,2.054-1.146c-0.263-0.422-0.46-0.658-0.764-0.922
		c-0.974,0.54-1.962,0.935-3.516,1.356c-0.185-0.343-0.264-0.461-0.487-0.698c2.055-0.447,3.345-0.948,4.596-1.804h-1.936
		c-0.474,0-0.883,0.026-1.277,0.065v-0.843c0.343,0.053,0.685,0.079,1.277,0.079h5.57c0.619,0,0.961-0.013,1.29-0.079v0.843
		c-0.395-0.039-0.79-0.065-1.29-0.065h-1.422c0.289,1.198,0.421,1.646,0.79,2.462c0.935-0.685,1.738-1.475,2.015-1.962l0.737,0.606
		c-0.29,0.236-0.29,0.236-0.79,0.711c-0.422,0.408-0.79,0.711-1.606,1.33c0.829,1.461,1.804,2.396,3.477,3.371
		c-0.225,0.197-0.408,0.408-0.646,0.737c-1.08-0.777-1.58-1.198-2.134-1.831c-0.987-1.105-1.765-2.541-2.251-4.161
		c-0.105-0.342-0.158-0.553-0.33-1.264h-0.395c-0.382,0.329-0.527,0.435-0.948,0.711L159.359,184.63z M159.623,180.785
		c0-0.29-0.026-0.526-0.093-0.816h1.027c-0.053,0.29-0.079,0.514-0.079,0.804v0.421h3.898c0.565,0,0.908-0.013,1.33-0.053
		c-0.04,0.25-0.053,0.475-0.053,0.869v0.816c0,0.408,0.013,0.619,0.053,0.896h-0.856v-1.804h-9.31v1.804h-0.856
		c0.04-0.303,0.053-0.514,0.053-0.908v-0.804c0-0.355-0.013-0.593-0.053-0.869c0.422,0.04,0.751,0.053,1.317,0.053h3.621V180.785z"
		/>
</g>
<rect x="137.443" y="176.258" fill="none" stroke="#231815" stroke-miterlimit="10" width="33.165" height="20.074"/>
<g>
	<path d="M92.396,14.075c0,0.487,0.026,0.948,0.066,1.304H91.62v-0.764h-4.029v1.198h-0.869c0.053-0.369,0.092-0.935,0.092-1.738
		V7.346c0-0.566-0.014-0.935-0.053-1.343c0.382,0.039,0.764,0.052,1.356,0.052h2.963c0.605,0,0.975-0.013,1.369-0.052
		c-0.039,0.329-0.053,0.579-0.053,1.159h4.122c0.751,0,1.225-0.026,1.62-0.092v0.948c-0.396-0.066-0.738-0.079-1.581-0.079h-0.263
		v8.059c0,0.869-0.237,1.04-1.423,1.04c-0.461,0-1-0.013-1.448-0.053c-0.026-0.329-0.065-0.54-0.158-0.869
		c0.672,0.079,1.146,0.118,1.606,0.118c0.475,0,0.566-0.053,0.566-0.303V7.938h-3.042V14.075z M87.604,9.834h1.58V6.793h-1.58V9.834
		z M87.604,13.877h1.58v-3.318h-1.58V13.877z M89.961,9.834h1.659V6.793h-1.659V9.834z M89.961,13.877h1.659v-3.318h-1.659V13.877z"
		/>
	<path d="M109.154,6.463c0.685,0,1.093-0.026,1.448-0.079v0.856c-0.396-0.053-0.764-0.066-1.409-0.066h-4.069
		c-0.171,0.514-0.25,0.737-0.395,1.106h3.95c0.816,0,1.04-0.013,1.37-0.053v0.803c-0.33-0.04-0.58-0.053-1.37-0.053h-1.909
		c0.303,0.566,0.435,0.777,0.776,1.238h2.173c0.738,0,1.094-0.013,1.436-0.079v0.882c-0.461-0.053-0.869-0.079-1.436-0.079h-1.566
		c0.948,0.987,1.856,1.62,3.226,2.251c-0.303,0.277-0.408,0.408-0.618,0.738c-1.633-0.948-2.595-1.738-3.596-2.989h-3.977
		c-0.935,1.198-1.896,2.067-3.357,3.055c-0.119-0.25-0.304-0.461-0.606-0.698c1.251-0.698,2.16-1.409,2.989-2.357h-1.356
		c-0.592,0-1,0.026-1.461,0.079v-0.882c0.342,0.066,0.697,0.079,1.461,0.079h1.937c0.289-0.408,0.526-0.791,0.764-1.238h-1.817
		c-0.751,0-1.027,0.013-1.33,0.053V8.228c0.316,0.04,0.553,0.053,1.33,0.053h2.146c0.158-0.369,0.263-0.658,0.395-1.106h-2.963
		c-0.618,0-1,0.013-1.382,0.066V6.385c0.342,0.053,0.776,0.079,1.435,0.079h3.108c0.104-0.487,0.131-0.724,0.145-1.185l0.935,0.079
		c-0.026,0.092-0.026,0.119-0.065,0.276c-0.066,0.29-0.066,0.29-0.105,0.487c-0.026,0.158-0.026,0.158-0.065,0.342H109.154z
		 M105.585,14.431h2.963c0.79,0,1.08-0.013,1.423-0.053v0.816c-0.355-0.04-0.646-0.053-1.423-0.053h-2.963v0.856
		c0,0.487,0.026,0.922,0.093,1.33h-1.001c0.065-0.448,0.092-0.856,0.092-1.33v-0.856h-2.976c-0.725,0-1.027,0.013-1.37,0.053v-0.83
		c0.304,0.053,0.659,0.066,1.37,0.066h2.976v-1.212h-1.396c-0.526,0-0.804,0.013-1.146,0.066v-0.816
		c0.329,0.053,0.605,0.066,1.146,0.066h1.396v-0.105c0-0.5-0.026-0.83-0.079-1.132h0.962c-0.053,0.316-0.066,0.606-0.066,1.132
		v0.105h1.606c0.54,0,0.804-0.013,1.133-0.066v0.816c-0.343-0.053-0.619-0.066-1.133-0.066h-1.606V14.431z M104.413,8.979
		c-0.237,0.487-0.421,0.804-0.697,1.238h2.923c-0.29-0.461-0.408-0.659-0.672-1.238H104.413z"/>
	<path d="M114.521,12.745c0-0.566,0.013-0.948,0.039-1.581c-0.474,0.606-0.855,0.975-1.501,1.475
		c-0.158-0.329-0.303-0.54-0.514-0.75c1.027-0.698,1.87-1.528,2.66-2.594c0.303-0.408,0.5-0.777,0.632-1.133l0.816,0.461
		c-0.158,0.198-0.197,0.264-0.395,0.566c-0.276,0.448-0.514,0.75-0.883,1.185v5.32c0,0.711,0.026,1.238,0.093,1.606h-1.041
		c0.066-0.369,0.093-0.909,0.093-1.606V12.745z M116.338,5.884c-0.093,0.092-0.119,0.131-0.237,0.29
		c-0.79,1.08-1.738,2.001-2.924,2.857c-0.197-0.29-0.342-0.448-0.592-0.645c0.737-0.474,1.211-0.856,1.738-1.396
		c0.658-0.658,0.987-1.119,1.198-1.606L116.338,5.884z M118.247,10.256c-0.619,0-1.146,0.026-1.462,0.079V9.413
		c0.316,0.053,0.83,0.079,1.462,0.079h4.622c0.672,0,1.146-0.026,1.448-0.079v0.922c-0.342-0.053-0.829-0.079-1.436-0.079h-0.75
		v5.768c0,0.843-0.316,1.066-1.475,1.066c-0.422,0-1.041-0.026-1.607-0.066c-0.039-0.369-0.092-0.605-0.21-0.908
		c0.75,0.105,1.316,0.158,1.856,0.158c0.447,0,0.553-0.053,0.553-0.316v-5.702H118.247z M117.325,6.108
		c0.355,0.053,0.777,0.079,1.369,0.079h3.688c0.593,0,0.987-0.026,1.356-0.079V7.03c-0.396-0.053-0.83-0.079-1.356-0.079h-3.688
		c-0.526,0-0.974,0.026-1.369,0.079V6.108z"/>
</g>
<rect x="80.267" y="0.5" fill="none" stroke="#231815" stroke-miterlimit="10" width="49.562" height="20.074"/>
<path fill="none" stroke="#231815" stroke-miterlimit="10" d="M171.983,106.846V92.641c0-6.278-3.719-11.366-8.307-11.366H74.616
	c-4.588,0-8.308,5.088-8.308,11.366v65.699c0,6.276,3.72,11.365,8.308,11.365h89.061c4.588,0,8.307-5.089,8.307-11.365v-22.595"/>
<path fill="none" stroke="#231815" stroke-miterlimit="10" d="M117.566,73.997H67.546c-5.596,0-10.131,7.429-10.131,16.594v95.927
	c0,9.164,4.535,16.594,10.131,16.594h108.613c5.596,0,10.132-7.43,10.132-16.594v-38.777"/>
<path fill="none" stroke="#231815" stroke-miterlimit="10" d="M186.291,119.497V90.591c0-9.166-4.536-16.594-10.132-16.594h-43.462"
	/>
<g>
	<line x1="105.163" y1="20.574" x2="105.163" y2="46.077"/>
	<g>
		<line fill="none" stroke="#231815" stroke-miterlimit="10" x1="105.163" y1="20.574" x2="105.163" y2="44.875"/>
		<g>
			<path fill="#231815" d="M100.363,38.04c0.232-0.148,0.542-0.079,0.69,0.154l4.109,6.452l4.109-6.452
				c0.148-0.233,0.458-0.303,0.69-0.154s0.3,0.46,0.153,0.691l-4.531,7.114c-0.092,0.144-0.251,0.231-0.422,0.231
				s-0.33-0.088-0.422-0.231l-4.531-7.114c-0.053-0.084-0.078-0.177-0.078-0.269C100.132,38.298,100.214,38.136,100.363,38.04z"/>
		</g>
	</g>
</g>
<path fill="none" stroke="#231815" stroke-miterlimit="10" d="M36.589,73.997h5.313c6.316,0,11.438,5.12,11.438,11.437v22.686
	c0,6.317-5.121,11.438-11.438,11.438H19.217c-6.315,0-11.437-5.121-11.437-11.438V85.434c0-6.317,5.121-11.437,11.437-11.437h2.802"
	/>
<path fill="none" stroke="#231815" stroke-miterlimit="10" d="M85.232,56.985H11.736C5.53,56.985,0.5,62.105,0.5,68.422v138.997
	c0,6.315,5.03,11.426,11.236,11.426h177.589c6.206,0,11.236-5.11,11.236-11.426V68.422c0-6.317-5.03-11.438-11.236-11.438h-63.072"
	/>
</svg>
