<?xml version="1.0" encoding="utf-8"?>
<!-- Generator: Adobe Illustrator 16.0.0, SVG Export Plug-In . SVG Version: 6.00 Build 0)  -->
<!DOCTYPE svg PUBLIC "-//W3C//DTD SVG 1.1//EN" "http://www.w3.org/Graphics/SVG/1.1/DTD/svg11.dtd">
<svg version="1.1" id="レイヤー_1" xmlns="http://www.w3.org/2000/svg" xmlns:xlink="http://www.w3.org/1999/xlink" x="0px"
	 y="0px" width="80.12px" height="90.341px" viewBox="0 0 80.12 90.341" enable-background="new 0 0 80.12 90.341"
	 xml:space="preserve">
<path d="M76.537,86.226c1.242-0.653,2.377-1.458,3.179-2.26c0.09-0.072,0.125-0.162,0.125-0.252c0-0.101-0.045-0.198-0.135-0.288
	c-0.08-0.072-0.18-0.117-0.271-0.117l-0.233,0.103c-0.757,0.813-1.692,1.503-2.665,2.043v-3.227c0-0.18-0.146-0.275-0.36-0.275
	c-0.207,0-0.351,0.101-0.351,0.275v6.779c0,0.574,0.198,0.828,0.819,0.898c0.287,0.036,0.656,0.045,1.125,0.045
	c0.513,0,0.944-0.025,1.27-0.103c0.414-0.09,0.684-0.271,0.828-0.618c0.135-0.332,0.234-0.894,0.252-1.448V87.76
	c0-0.194-0.126-0.308-0.324-0.32h-0.045c-0.197,0-0.324,0.1-0.332,0.313c-0.022,0.448-0.072,0.862-0.162,1.08
	c-0.063,0.161-0.217,0.287-0.388,0.334c-0.226,0.063-0.604,0.1-1.071,0.1c-0.375,0-0.64-0.01-0.833-0.024
	c-0.351-0.036-0.423-0.137-0.423-0.403L76.537,86.226L76.537,86.226z M73.278,89.962c0,0.171,0.144,0.271,0.351,0.271
	c0.217,0,0.353-0.103,0.353-0.271V84.29c0.333-0.657,0.611-1.298,0.801-1.909l0.019-0.117c0-0.135-0.081-0.252-0.243-0.297
	l-0.152-0.02c-0.153,0-0.271,0.071-0.307,0.207c-0.396,1.355-1.09,2.575-2.134,3.688c-0.063,0.081-0.1,0.162-0.1,0.252
	c0,0.093,0.046,0.184,0.117,0.265l0.242,0.104c0.091,0,0.189-0.045,0.263-0.137c0.322-0.358,0.63-0.766,0.863-1.159
	c-0.046,0.403-0.071,0.846-0.071,1.23L73.278,89.962L73.278,89.962z M70.877,84.749c0.18,0,0.279-0.162,0.279-0.36
	c0-0.188-0.1-0.342-0.279-0.342h-3.564c0.045-0.54,0.063-1.116,0.063-1.747c0-0.197-0.135-0.308-0.36-0.308
	c-0.216,0-0.368,0.092-0.368,0.308c0,0.667-0.019,1.243-0.055,1.747h-3.259c-0.18,0-0.279,0.151-0.279,0.342
	c0,0.198,0.1,0.36,0.279,0.36h3.188c-0.117,0.862-0.324,1.538-0.693,2.215c-0.576,1.069-1.422,1.8-2.674,2.367
	c-0.126,0.063-0.198,0.172-0.198,0.298l0.054,0.196c0.081,0.162,0.207,0.227,0.333,0.227l0.181-0.045
	c1.215-0.549,2.26-1.481,2.898-2.656c0.288-0.521,0.495-1.063,0.64-1.666c0.261,0.873,0.675,1.646,1.188,2.309
	c0.639,0.815,1.53,1.548,2.396,1.974l0.225,0.054c0.126,0,0.252-0.063,0.324-0.188l0.071-0.242c0-0.126-0.063-0.243-0.207-0.308
	c-0.782-0.358-1.603-0.963-2.269-1.756c-0.621-0.736-1.134-1.666-1.404-2.771L70.877,84.749L70.877,84.749z M55.396,86.937v-1.882
	h4.941c0.18,0,0.234,0.091,0.234,0.271v1.333c0,0.188-0.055,0.275-0.234,0.275L55.396,86.937L55.396,86.937z M55.396,87.594h5.131
	c0.53,0,0.748-0.261,0.748-0.802v-1.611c0-0.527-0.217-0.783-0.748-0.783h-5.131v-1.143c0-0.207,0.09-0.279,0.287-0.279h5.979
	c0.171,0,0.261-0.146,0.261-0.342c0-0.198-0.09-0.333-0.261-0.333h-6.158c-0.54,0-0.828,0.261-0.828,0.817v5.96
	c0,0.56,0.288,0.819,0.828,0.819h6.338c0.171,0,0.261-0.139,0.261-0.334c0-0.197-0.09-0.345-0.261-0.345h-6.158
	c-0.197,0-0.287-0.068-0.287-0.275V87.594L55.396,87.594z M45.234,87.9c-0.09,0.081-0.145,0.194-0.145,0.297
	c0,0.09,0.036,0.171,0.1,0.227c0.521,0.439,1.08,1.08,1.422,1.564c0.081,0.126,0.207,0.188,0.333,0.188
	c0.099,0,0.197-0.036,0.278-0.101c0.108-0.081,0.162-0.188,0.162-0.297c0-0.09-0.026-0.184-0.09-0.271
	c-0.369-0.549-1-1.227-1.495-1.611c-0.09-0.069-0.188-0.105-0.288-0.105C45.413,87.79,45.315,87.826,45.234,87.9z M42.194,89.078
	l-0.189-0.054c-0.09,0-0.18,0.032-0.252,0.126l-0.063,0.188c0,0.09,0.054,0.18,0.144,0.232c0.63,0.353,1.306,0.604,1.99,0.756
	l0.107,0.01c0.145,0,0.243-0.08,0.288-0.226l0.01-0.103c0-0.137-0.081-0.252-0.234-0.288C43.391,89.583,42.698,89.33,42.194,89.078z
	 M39.988,89.078c-0.504,0.252-1.197,0.505-1.8,0.646c-0.153,0.036-0.226,0.153-0.226,0.288l0.009,0.103
	c0.045,0.15,0.145,0.227,0.288,0.227l0.108-0.011c0.684-0.151,1.358-0.403,1.989-0.756c0.09-0.056,0.144-0.146,0.144-0.232
	l-0.063-0.188c-0.072-0.092-0.162-0.126-0.262-0.126L39.988,89.078z M39.403,87.664h3.646v0.44c0,0.159-0.072,0.195-0.233,0.195
	h-3.188c-0.162,0-0.225-0.036-0.225-0.195V87.664z M39.403,87.153v-0.562h3.646v0.562H39.403z M39.403,86.09v-0.378
	c0-0.153,0.063-0.207,0.225-0.207h3.188c0.162,0,0.233,0.055,0.233,0.207v0.378H39.403z M39.484,84.99
	c-0.486,0-0.711,0.182-0.711,0.646v2.539c0,0.471,0.225,0.655,0.711,0.655h3.493c0.485,0,0.701-0.188,0.701-0.655v-2.539
	c0-0.468-0.216-0.646-0.701-0.646H39.484z M40.915,82.904v0.333c0,0.146,0.108,0.242,0.297,0.242c0.189,0,0.306-0.102,0.306-0.242
	v-0.333h2.161c0.153,0,0.226-0.117,0.226-0.288c0-0.162-0.072-0.265-0.226-0.265h-2.161v-0.271c0-0.151-0.099-0.252-0.306-0.252
	c-0.198,0-0.297,0.101-0.297,0.252v0.271h-1.954c-0.153,0-0.233,0.108-0.233,0.271s0.08,0.279,0.233,0.279L40.915,82.904
	L40.915,82.904z M39.538,84.243v0.358c0,0.146,0.099,0.232,0.279,0.232c0.197,0,0.306-0.092,0.306-0.232v-0.358h2.242v0.369
	c0,0.149,0.099,0.242,0.279,0.242c0.188,0,0.306-0.093,0.306-0.242v-0.369h1.063c0.153,0,0.234-0.106,0.234-0.271
	s-0.081-0.261-0.234-0.261H42.95v-0.378c0-0.146-0.117-0.243-0.306-0.243c-0.181,0-0.279,0.103-0.279,0.243v0.378h-2.242v-0.389
	c0-0.151-0.108-0.242-0.306-0.242c-0.181,0-0.279,0.091-0.279,0.242v0.389h-0.855c-0.152,0-0.233,0.103-0.233,0.261
	c0,0.162,0.081,0.271,0.233,0.271H39.538z M37.603,84.236v-2.07c0-0.16-0.127-0.252-0.324-0.252c-0.207,0-0.324,0.092-0.324,0.252
	v2.07h-0.801c-0.162,0-0.252,0.126-0.252,0.308c0,0.18,0.09,0.322,0.252,0.322h0.801v3.07c-0.306,0.104-0.612,0.203-0.882,0.284
	c-0.153,0.045-0.226,0.162-0.226,0.3l0.019,0.136c0.054,0.15,0.162,0.23,0.297,0.23l0.108-0.02c0.594-0.196,1.548-0.585,2.114-0.847
	c0.146-0.072,0.208-0.174,0.208-0.3l-0.036-0.15c-0.045-0.117-0.126-0.171-0.225-0.171l-0.18,0.045
	c-0.171,0.081-0.36,0.162-0.549,0.241V84.86h0.549c0.162,0,0.261-0.146,0.261-0.324s-0.099-0.307-0.261-0.307L37.603,84.236
	L37.603,84.236z M31.393,85.767v-2.8h2.368c0.226,0,0.333,0.07,0.333,0.288v2.512H31.393L31.393,85.767z M30.691,85.767h-2.565
	v-2.512c0-0.218,0.108-0.288,0.315-0.288h2.25V85.767z M28.126,86.424h5.969v2.494c0,0.342-0.063,0.396-0.575,0.396
	c-0.288,0-0.668-0.036-0.974-0.094l-0.081-0.009c-0.144,0-0.252,0.081-0.288,0.261l-0.009,0.103c0,0.171,0.108,0.288,0.279,0.313
	c0.351,0.063,0.783,0.094,1.206,0.094c0.783,0,1.144-0.234,1.144-0.874v-5.937c0-0.563-0.342-0.874-0.927-0.874h-5.546
	c-0.594,0-0.918,0.297-0.918,0.874v6.732c0,0.162,0.152,0.271,0.359,0.271s0.36-0.104,0.36-0.271V86.424L28.126,86.424z
	 M20.071,81.967l-0.181-0.045c-0.107,0-0.197,0.045-0.261,0.151c-0.387,0.656-0.882,1.227-1.512,1.689
	c-0.081,0.072-0.126,0.162-0.126,0.265l0.081,0.216c0.081,0.092,0.171,0.137,0.261,0.137l0.225-0.092
	c0.668-0.549,1.233-1.195,1.657-1.881l0.045-0.162C20.26,82.129,20.188,82.021,20.071,81.967z M18.964,90.032
	c0,0.162,0.135,0.252,0.342,0.252c0.198,0,0.343-0.09,0.343-0.252v-4.563c0.242-0.297,0.477-0.655,0.656-0.974l0.045-0.171
	c0-0.106-0.054-0.207-0.161-0.261l-0.181-0.058c-0.117,0-0.216,0.058-0.27,0.162c-0.45,0.813-1.044,1.56-1.811,2.179
	c-0.081,0.063-0.116,0.153-0.116,0.243l0.08,0.229c0.072,0.09,0.172,0.135,0.262,0.135l0.216-0.08
	c0.225-0.197,0.468-0.449,0.684-0.721c-0.054,0.368-0.09,0.747-0.09,1.1L18.964,90.032L18.964,90.032z M24.212,87.16
	c0.1,0,0.162,0.02,0.162,0.081l-0.072,0.137c-0.261,0.342-0.603,0.666-1.008,0.952c-0.459-0.322-0.882-0.711-1.215-1.17H24.212
	L24.212,87.16z M22.429,86.604c0.145-0.22,0.279-0.441,0.396-0.666c0.837-0.072,1.674-0.153,2.512-0.256
	c0.135,0.188,0.252,0.369,0.342,0.521c0.045,0.092,0.136,0.146,0.243,0.146l0.189-0.063c0.107-0.063,0.162-0.171,0.162-0.277
	l-0.036-0.15c-0.324-0.507-0.847-1.16-1.296-1.632l-0.217-0.099l-0.197,0.063c-0.1,0.055-0.145,0.146-0.145,0.231l0.055,0.151
	c0.171,0.182,0.342,0.389,0.513,0.594c-0.766,0.092-1.54,0.146-2.305,0.189c0.792-0.693,1.521-1.479,2.134-2.278l0.071-0.196
	c0-0.101-0.063-0.188-0.171-0.252l-0.216-0.063c-0.107,0-0.198,0.045-0.261,0.135c-0.369,0.515-0.819,1.08-1.352,1.646
	c-0.252-0.239-0.513-0.479-0.782-0.711c0.414-0.415,0.782-0.86,1.089-1.342l0.054-0.162c0-0.104-0.072-0.196-0.18-0.243
	l-0.198-0.045c-0.099,0-0.198,0.036-0.243,0.126c-0.261,0.439-0.611,0.919-0.972,1.298c-0.145-0.105-0.288-0.217-0.432-0.321
	l-0.172-0.045c-0.099,0-0.207,0.055-0.27,0.146l-0.081,0.207c0,0.09,0.045,0.171,0.126,0.226c0.504,0.345,1.089,0.818,1.629,1.332
	c-0.207,0.206-0.414,0.404-0.63,0.597c-0.45,0.02-0.891,0.023-1.314,0.023c-0.18,0-0.27,0.126-0.27,0.313
	c0,0.217,0.108,0.323,0.288,0.323c0.541-0.021,1.099-0.047,1.675-0.092c-0.478,0.817-1.17,1.413-1.891,1.849
	c-0.108,0.056-0.162,0.161-0.162,0.271l0.054,0.183c0.063,0.101,0.162,0.161,0.279,0.161l0.162-0.047
	c0.351-0.225,0.702-0.504,1.035-0.837c0.314,0.425,0.675,0.803,1.07,1.136c-0.692,0.396-1.529,0.701-2.438,0.884
	c-0.145,0.023-0.226,0.146-0.226,0.288l0.01,0.104c0.045,0.162,0.152,0.252,0.314,0.252l0.108-0.009
	c0.999-0.227,1.962-0.604,2.781-1.116c0.792,0.516,1.685,0.864,2.63,1.069l0.08,0.011c0.172,0,0.288-0.117,0.333-0.298l0.01-0.1
	c0-0.162-0.09-0.288-0.271-0.324c-0.738-0.151-1.494-0.396-2.188-0.771c0.44-0.334,0.818-0.712,1.134-1.125
	c0.117-0.15,0.171-0.313,0.171-0.469c0-0.271-0.198-0.485-0.585-0.485L22.429,86.604L22.429,86.604z M11.899,84.047
	c-0.063,2.764-0.973,4.375-2.746,5.375c-0.117,0.063-0.171,0.171-0.171,0.288l0.081,0.241c0.063,0.101,0.171,0.146,0.278,0.146
	l0.252-0.068c1.478-0.896,2.422-2.044,2.846-4.1h2.539c0.197,0,0.297,0.058,0.297,0.252c0,1.08-0.207,2.206-0.36,2.746
	c-0.09,0.313-0.234,0.423-0.657,0.423c-0.278,0-0.621-0.054-0.854-0.099l-0.117-0.02c-0.153,0-0.261,0.1-0.297,0.275l-0.019,0.106
	c0,0.171,0.1,0.297,0.271,0.323c0.324,0.069,0.711,0.105,1.099,0.105c0.657,0,1.008-0.207,1.206-0.767
	c0.216-0.585,0.45-1.989,0.45-3.271c0-0.55-0.252-0.771-0.81-0.771h-2.63c0.055-0.396,0.081-0.805,0.108-1.197h4.241
	c0.171,0,0.261-0.151,0.261-0.342c0-0.188-0.09-0.354-0.261-0.354h-3.493v-1.148c0-0.173-0.162-0.265-0.369-0.265
	s-0.369,0.092-0.369,0.265v1.148H9.299c-0.171,0-0.27,0.151-0.27,0.354c0,0.188,0.099,0.342,0.27,0.342L11.899,84.047L11.899,84.047
	z M7.599,84.621c0-0.171-0.161-0.271-0.368-0.271s-0.333,0.103-0.333,0.271v4.548c0,0.286-0.072,0.352-0.433,0.352
	c-0.198,0-0.44-0.019-0.63-0.063l-0.072-0.011c-0.135,0-0.252,0.09-0.278,0.271l-0.01,0.091c0,0.174,0.1,0.278,0.243,0.309
	c0.216,0.045,0.549,0.063,0.864,0.063c0.693,0,1.018-0.271,1.018-0.837L7.599,84.621L7.599,84.621z M5.654,84.848
	c0-0.149-0.171-0.239-0.352-0.239c-0.207,0-0.351,0.09-0.351,0.239v3.344c0,0.158,0.144,0.252,0.351,0.252
	c0.181,0,0.352-0.094,0.352-0.252V84.848z M3.188,86.045H1.243v-0.729c0-0.175,0.081-0.22,0.243-0.22h1.448
	c0.172,0,0.253,0.045,0.253,0.22L3.188,86.045L3.188,86.045z M1.243,86.649h1.945v0.938H1.243V86.649z M1.243,88.188h1.945v1.063
	c0,0.241-0.072,0.306-0.353,0.306c-0.107,0-0.324-0.02-0.477-0.054H2.323c-0.108,0-0.234,0.07-0.261,0.241l-0.01,0.081
	c0,0.146,0.09,0.252,0.207,0.279c0.216,0.054,0.459,0.054,0.676,0.054c0.594,0,0.908-0.241,0.908-0.756v-4.194
	c0-0.485-0.243-0.701-0.737-0.701H1.296c-0.495,0-0.729,0.216-0.729,0.701v4.788c0,0.162,0.135,0.253,0.333,0.253
	c0.188,0,0.342-0.091,0.342-0.253L1.243,88.188L1.243,88.188z M3.403,83.192c-0.252-0.45-0.514-0.854-0.811-1.198
	c-0.063-0.07-0.144-0.115-0.261-0.115l-0.207,0.045c-0.135,0.054-0.207,0.151-0.207,0.252l0.054,0.146
	c0.198,0.241,0.45,0.549,0.648,0.874H0.243C0.081,83.196,0,83.322,0,83.504c0,0.188,0.081,0.313,0.243,0.313h7.715
	c0.162,0,0.243-0.126,0.243-0.313c0-0.182-0.081-0.308-0.243-0.308H5.572c0.278-0.297,0.513-0.611,0.711-0.91l0.036-0.106
	c0-0.104-0.09-0.216-0.243-0.271l-0.18-0.036c-0.136,0-0.252,0.063-0.315,0.182c-0.189,0.324-0.432,0.722-0.801,1.146H3.403V83.192z
	"/>
<g>
	<path fill="#E5E5E5" d="M54.803,27.786c4.891-2.867,8.015-7.239,8.015-12.141C62.817,7.003,53.101,0,41.114,0
		S19.411,7.004,19.411,15.646c0,5.284,3.639,9.963,9.211,12.794L18.169,68.835h47.94L54.803,27.786z"/>
	
		<linearGradient id="SVGID_1_" gradientUnits="userSpaceOnUse" x1="63.9014" y1="-1923.5845" x2="48.4442" y2="-1908.6577" gradientTransform="matrix(1 0 0 1 0.1802 1931.2227)">
		<stop  offset="0.26" style="stop-color:#D06900"/>
		<stop  offset="0.3358" style="stop-color:#D06900"/>
		<stop  offset="0.8" style="stop-color:#D06900"/>
		<stop  offset="0.8461" style="stop-color:#D26F02"/>
		<stop  offset="0.9079" style="stop-color:#D78006"/>
		<stop  offset="0.9785" style="stop-color:#E09C0E"/>
		<stop  offset="1" style="stop-color:#E3A611"/>
		<stop  offset="1" style="stop-color:#E19F0F"/>
		<stop  offset="1" style="stop-color:#DB8C0A"/>
		<stop  offset="1" style="stop-color:#D16C01"/>
		<stop  offset="1" style="stop-color:#D06900"/>
	</linearGradient>
	<path fill="url(#SVGID_1_)" d="M61.979,36.394c5.444-3.848,8.822-9.209,8.822-15.141c0-11.136-11.906-20.265-27.044-21.133
		c10.739,0.938,19.062,7.53,19.062,15.525c0,4.896-3.124,9.271-8.015,12.14L61.979,36.394z"/>
	<polygon fill="#D06900" points="73.991,78.229 61.979,36.394 54.803,27.786 66.11,68.835 	"/>
	<polygon fill="#DD843A" points="9.91,78.229 73.991,78.229 66.11,68.835 18.17,68.835 	"/>
	
		<linearGradient id="SVGID_2_" gradientUnits="userSpaceOnUse" x1="20.4858" y1="-1925.2275" x2="33.8043" y2="-1901.2002" gradientTransform="matrix(1 0 0 1 0.1802 1931.2227)">
		<stop  offset="0" style="stop-color:#D06900"/>
		<stop  offset="0.271" style="stop-color:#D16D01"/>
		<stop  offset="0.5175" style="stop-color:#D57804"/>
		<stop  offset="0.7545" style="stop-color:#DA8A09"/>
		<stop  offset="0.9844" style="stop-color:#E2A410"/>
		<stop  offset="1" style="stop-color:#E3A611"/>
	</linearGradient>
	<path fill="url(#SVGID_2_)" d="M28.623,28.441c-5.572-2.832-9.211-7.51-9.211-12.794c0-7.604,7.528-13.938,17.503-15.352
		C22.798,1.85,11.983,10.64,11.983,21.251c0,6.2,3.693,11.779,9.582,15.655L28.623,28.441z"/>
	<polygon fill="#E3A611" points="18.17,68.835 28.623,28.441 21.566,36.909 9.91,78.229 	"/>
	
		<linearGradient id="SVGID_3_" gradientUnits="userSpaceOnUse" x1="50.7773" y1="-1908.0361" x2="50.7773" y2="-1930.9365" gradientTransform="matrix(1 0 0 1 0.1802 1931.2227)">
		<stop  offset="0" style="stop-color:#E3A611"/>
		<stop  offset="0.0291" style="stop-color:#DE970D"/>
		<stop  offset="0.0804" style="stop-color:#D88207"/>
		<stop  offset="0.1386" style="stop-color:#D37403"/>
		<stop  offset="0.2088" style="stop-color:#D16C01"/>
		<stop  offset="0.3233" style="stop-color:#D06900"/>
		<stop  offset="0.4226" style="stop-color:#D06900"/>
		<stop  offset="1" style="stop-color:#D06900"/>
	</linearGradient>
	<path fill="url(#SVGID_3_)" d="M52.487,23.187c4.066-2.361,6.669-5.982,6.669-10.047c0-6.761-7.215-12.305-16.397-12.854
		c6.505,0.597,11.538,4.596,11.538,9.441c0,3.944-3.328,7.329-8.069,8.774L52.487,23.187z"/>
	<polygon fill="#D06900" points="64.22,67.458 52.487,23.187 46.228,18.502 56.042,57.618 	"/>
	<polygon fill="#DD843A" points="19.736,67.458 64.22,67.458 56.042,57.618 28.023,57.618 	"/>
	
		<linearGradient id="SVGID_4_" gradientUnits="userSpaceOnUse" x1="23.1694" y1="-1919.2202" x2="38.375" y2="-1919.2202" gradientTransform="matrix(1 0 0 1 0.1802 1931.2227)">
		<stop  offset="0" style="stop-color:#D06900"/>
		<stop  offset="0.5138" style="stop-color:#DA8A09"/>
		<stop  offset="1" style="stop-color:#E3A611"/>
	</linearGradient>
	<path fill="url(#SVGID_4_)" d="M37.156,18.822c-5.378-1.205-9.284-4.819-9.284-9.095c0-4.639,4.597-8.496,10.684-9.35
		C29.948,1.316,23.35,6.672,23.35,13.138c0,4.323,2.949,8.146,7.478,10.489L37.156,18.822z"/>
	<polygon fill="#E3A611" points="28.023,57.618 37.156,18.822 30.827,23.629 19.736,67.458 	"/>
	<path fill="#E5E5E5" d="M46.228,18.502c4.741-1.446,8.069-4.83,8.069-8.774c0-5.26-5.916-9.521-13.213-9.521
		c-7.296,0-13.212,4.265-13.212,9.521c0,4.273,3.905,7.893,9.284,9.098l-9.133,38.798h28.019L46.228,18.502z"/>
	
		<linearGradient id="SVGID_5_" gradientUnits="userSpaceOnUse" x1="30.8813" y1="-1923.8374" x2="50.9277" y2="-1923.8374" gradientTransform="matrix(1 0 0 1 0.1802 1931.2227)">
		<stop  offset="0" style="stop-color:#D06900"/>
		<stop  offset="0.0628" style="stop-color:#D47503"/>
		<stop  offset="0.229" style="stop-color:#DC900B"/>
		<stop  offset="0.3767" style="stop-color:#E1A00F"/>
		<stop  offset="0.49" style="stop-color:#E3A611"/>
		<stop  offset="0.6366" style="stop-color:#E09C0E"/>
		<stop  offset="0.8836" style="stop-color:#D88207"/>
		<stop  offset="1" style="stop-color:#D37303"/>
	</linearGradient>
	<ellipse fill="url(#SVGID_5_)" cx="41.084" cy="7.385" rx="10.023" ry="7.225"/>
	<ellipse fill="#E5E5E5" cx="40.99" cy="5.474" rx="7.396" ry="5.332"/>
</g>
</svg>
