<?xml version="1.0" encoding="utf-8"?>
<!-- Generator: Adobe Illustrator 16.0.0, SVG Export Plug-In . SVG Version: 6.00 Build 0)  -->
<!DOCTYPE svg PUBLIC "-//W3C//DTD SVG 1.1//EN" "http://www.w3.org/Graphics/SVG/1.1/DTD/svg11.dtd">
<svg version="1.1" id="レイヤー_1" xmlns="http://www.w3.org/2000/svg" xmlns:xlink="http://www.w3.org/1999/xlink" x="0px"
	 y="0px" width="165.063px" height="223.189px" viewBox="0 0 165.063 223.189" enable-background="new 0 0 165.063 223.189"
	 xml:space="preserve">
<path fill="none" stroke="#050100" stroke-width="0.899" stroke-linecap="round" d="M45.589,133.633
	c1.009-4.051-1.739-8.324-6.071-8.104c-0.165-0.416-0.07-0.889,0.031-1.369c8.37,1.236,6.089-8.41,7.844-13.901
	c4.78,0.314,6.686,6.153,10.797,8.198c2.354-0.148,4.371-2.037,4.946-4.24c0.637-0.164,1.4-0.535,2.148-0.867
	c3.018,0.553,5.402,2.74,7.63,4.604c0.158,13.367-1.194,30.762,8.899,40.666c1.52-0.611,3.181-0.408,4.732-0.834
	c8.276-5.17,3.805-12.65,7.253-19.205c3.93,0.205,9.639,3.689,8,8.191c0.984,0.273,2.372,0.084,3.64,0.471
	c0.489,0.678,0.977,1.346,1.631,1.891c4.306-0.6,4.37,7.904,9.15,3.986c7.166-6.277,8.553-16.695,8.897-25.781
	c5.371-6.215,0.979-18.19-6.843-19.409c-1.308,1.125-0.504,2.887-1.26,4.225c-2.749,2.651-6.418,3.887-9.23,6.35
	c-7.135-1.928-14.97,1.723-20.617,6.238c-0.943-0.221-2-0.439-2.756-0.779c-0.273-0.4-0.559-0.881-0.835-1.369
	c1.583-12.571,3.276-25.797,10.277-36.954c2.914-1.65,2.11-5.334,1.645-7.867c2.379-0.684,4.734,1.693,5.39,3.941
	c4.047,3.068,8.804,1.512,13.213,4.887c2.566,1.977,3.354,5.885,5.687,7.693c8.15,6.326,15.569,6.563,23.515-3.453
	c1.196,1.4,0.797,3.879,0.474,5.57c-7.371,14.492-6.443,40.022-6.489,46.616c0,0,0.118,9.658,0.331,11.729
	c0.268,2.73,2.197,29.865,13.253,38.354c0.709-0.902,2.253-1.832,3.158-1.736c2.079,3.344,4.678,5.672,7.323,8.346"/>
<path fill="none" stroke="#050100" stroke-width="0.964" stroke-linecap="round" d="M45.589,136.779c0-1.047,0-2.1,0-3.146"/>
<path fill="none" stroke="#050100" stroke-width="0.904" stroke-linecap="round" d="M12.515,202.078
	c1.174-4.979,1.952-16.197-5.276-15.197c-0.56-0.828-1.087-1.883-1.638-2.896c7.395-3.752,8.897-13.682,16.363-18.016
	c2.04,0.385,3.687,1.811,5.513,2.609c3.67-1.232,5.946-5.311,9.994-4.506c6.244-7.783,6.661-18.127,8.118-27.293"/>
<path fill="none" stroke="#050100" stroke-width="0.878" stroke-linecap="round" d="M53.929,0.863
	c3.804,4.02,7.904,8.361,12.923,10.658c3.646-1.172,7.371-1.832,11.023-2.814c5.593,1.234,8.419,6.311,10.419,10.85
	c9.058,6.191,12.019,19.063,25.02,19.117c1.56,1.637,3.678,2.377,3.387,5.021c0.944,0.141,1.717,0.99,2.3,1.596
	c0.487,0.07,0.842,0.26,1.189,0.449c0.157,0.424,0.063,0.896-0.048,1.367c-8.403,0.779-10.615,12.889-20.215,9.977
	c-5.68-4.445-15.86-9.551-22.06-4.02c-0.724-0.756-0.724-1.842-0.535-2.832c0.858-0.215,1.938,0.07,2.669-0.244
	c1.097-4.037-5.756-7.186-8.188-3.621c-0.733,7.381-7.435,12.463-14.42,13.549c-5.646,5.373,0.274,14.791-4.732,19.984
	c-4.285-0.607-6.985,3.311-11.01,3.617c-3.197,2.047-3.882,5.955-5.733,8.971c-0.408,0.258-0.89,0.557-1.378,0.848
	c-3.361-1.107-6.196-4.24-10.214-2.438c-13.765-11.842-6.434-30.205-0.551-43.814c1.047-0.863,2.528-0.566,3.465-1.014
	c2.331-7.072,1.953-15.004,0.772-22.328c-4.206-5.43-6.788-16.082-16.295-14.648c-1.009-3.918-3.56-6.396-6.222-8.654"/>
<circle fill="none" stroke="#050100" stroke-width="1.33" stroke-linecap="round" cx="49.371" cy="134.288" r="4.13"/>
<rect x="85.555" y="44.33" fill="none" stroke="#050100" stroke-width="1.33" stroke-linecap="round" width="5.773" height="5.77"/>
<rect x="76.825" y="38.406" fill="none" stroke="#050100" stroke-width="1.33" stroke-linecap="round" width="5.774" height="5.77"/>
<rect x="62.979" y="45.445" fill="none" stroke="#050100" stroke-width="1.33" stroke-linecap="round" width="5.773" height="5.77"/>
<rect x="48.738" y="59.277" fill="none" stroke="#050100" stroke-width="1.33" stroke-linecap="round" width="5.774" height="5.77"/>
<rect x="48.607" y="69.505" fill="none" stroke="#050100" stroke-width="1.33" stroke-linecap="round" width="5.774" height="5.77"/>
<rect x="33.097" y="79.023" fill="none" stroke="#050100" stroke-width="1.33" stroke-linecap="round" width="5.773" height="5.77"/>
<rect x="27.425" y="85.24" fill="none" stroke="#050100" stroke-width="1.33" stroke-linecap="round" width="5.773" height="5.77"/>
<rect x="21.044" y="82.093" fill="none" stroke="#050100" stroke-width="1.33" stroke-linecap="round" width="5.775" height="5.77"/>
<rect x="17.896" y="75.8" fill="none" stroke="#050100" stroke-width="1.33" stroke-linecap="round" width="5.773" height="5.77"/>
<rect x="21.832" y="54.558" fill="none" stroke="#050100" stroke-width="1.33" stroke-linecap="round" width="5.775" height="5.77"/>
<rect x="28.919" y="39.609" fill="none" stroke="#050100" stroke-width="1.33" stroke-linecap="round" width="5.775" height="5.77"/>
<rect x="29.707" y="30.167" fill="none" stroke="#050100" stroke-width="1.33" stroke-linecap="round" width="5.775" height="5.771"/>
<g>
	
		<rect x="85.142" y="209.371" fill="none" stroke="#000000" stroke-width="2.894" stroke-linecap="round" stroke-miterlimit="1" width="12" height="12.061"/>
</g>
<rect x="83.521" y="207.752" fill="none" width="14.938" height="15"/>
<g>
	<path fill="none" stroke="#000000" stroke-width="2.196" stroke-linecap="round" stroke-miterlimit="1" d="M7.5,209.371
		c3.54,0,6.421,2.82,6.421,6.359c0,3.48-2.881,6.361-6.421,6.361c-3.479,0-6.358-2.881-6.358-6.361
		C1.142,212.191,4.021,209.371,7.5,209.371z"/>
</g>
<rect y="208.291" fill="none" width="15" height="14.881"/>
<path d="M54.803,216.256c-0.396,1.262-0.864,2.232-1.297,2.691l0.521,0.449c0.063-0.135,0.108-0.225,0.198-0.377
	c0.45-0.828,0.684-1.359,1.053-2.414L54.803,216.256z M53.442,214.131c0.594,0.369,0.963,0.656,1.44,1.152l0.358-0.504
	c-0.513-0.441-0.898-0.721-1.458-1.063L53.442,214.131z M53.884,211.861c0.595,0.396,0.973,0.721,1.387,1.189l0.352-0.459
	c-0.44-0.441-0.811-0.748-1.369-1.127L53.884,211.861z M58.826,213.752c0.145,0.354,0.216,0.516,0.369,0.783h-1.521
	c0.151-0.287,0.216-0.422,0.358-0.783H58.826z M57.882,212.617c-0.063,0.262-0.101,0.389-0.207,0.686h-0.864
	c-0.379,0-0.622-0.01-0.855-0.045v0.541c0.262-0.037,0.486-0.047,0.855-0.047h0.691c-0.151,0.344-0.241,0.516-0.403,0.783h-0.748
	c-0.459,0-0.702-0.018-0.945-0.053v0.584c0.262-0.045,0.505-0.053,0.945-0.053h0.424c-0.424,0.576-0.838,0.963-1.495,1.395
	c0.172,0.127,0.262,0.227,0.379,0.414c0.729-0.541,1.242-1.07,1.729-1.809h2.124c0.55,0.746,1.116,1.25,2.035,1.791
	c0.081-0.172,0.18-0.307,0.333-0.459c-0.747-0.361-1.226-0.721-1.766-1.332h0.693c0.405,0,0.639,0.008,0.891,0.053v-0.584
	c-0.232,0.035-0.477,0.053-0.918,0.053h-1.035c-0.18-0.27-0.278-0.449-0.414-0.783h0.963c0.379,0,0.576,0.01,0.855,0.045v-0.539
	c-0.234,0.035-0.459,0.045-0.855,0.045h-2.089c0.101-0.271,0.153-0.459,0.208-0.686h2.124c0.414,0,0.621,0.01,0.884,0.045v-0.576
	c-0.263,0.037-0.515,0.057-0.893,0.057h-2.008c0.117-0.549,0.117-0.568,0.162-0.73l-0.64-0.053l0.01,0.117
	c0,0.15-0.027,0.387-0.072,0.666h-1.342c-0.342,0-0.611-0.02-0.864-0.057v0.576c0.271-0.035,0.45-0.045,0.864-0.045H57.882
	L57.882,212.617z M60.446,217.436c0.352,0,0.585,0.018,0.882,0.055v-0.566c-0.225,0.025-0.378,0.035-0.882,0.035h-1.882
	c0.036-0.234,0.055-0.359,0.081-0.729h0.647c0.298,0,0.45,0.008,0.666,0.035v-0.521c-0.171,0.027-0.351,0.035-0.656,0.035h-1.64
	c-0.27,0-0.459-0.008-0.656-0.035v0.521c0.217-0.027,0.388-0.035,0.64-0.035h0.468c-0.009,0.332-0.025,0.459-0.071,0.729h-1.313
	c-0.486,0-0.631-0.01-0.847-0.035v0.566c0.306-0.045,0.521-0.055,0.863-0.055h1.161c-0.151,0.395-0.378,0.684-0.747,0.943
	c-0.45,0.309-0.927,0.471-1.81,0.588c0.152,0.18,0.243,0.322,0.314,0.52c0.729-0.152,1.18-0.313,1.611-0.584
	c0.531-0.324,0.864-0.703,1.089-1.252c0.217,0.379,0.576,0.756,1.019,1.064c0.521,0.367,1.054,0.594,1.943,0.826
	c0.081-0.188,0.198-0.387,0.288-0.504c-0.882-0.172-1.413-0.369-1.926-0.691c-0.433-0.279-0.702-0.541-0.938-0.91H60.446z
	 M52.482,218.209c-0.306,0.035-0.585,0.055-1.053,0.055h-5.618c-0.486,0-0.783-0.02-1.089-0.055v0.721
	c0.313-0.045,0.621-0.063,1.098-0.063h5.618c0.495,0,0.756,0.02,1.044,0.063V218.209z M45.945,215.67
	c0.253-0.035,0.505-0.045,0.945-0.045h3.431c0.423,0,0.657,0.01,0.938,0.045v-0.691c-0.253,0.035-0.505,0.053-0.938,0.053h-3.438
	c-0.433,0-0.702-0.018-0.938-0.053V215.67z M45.397,212.754c0.288-0.035,0.559-0.055,1.035-0.055h4.313
	c0.486,0,0.774,0.02,1.08,0.055v-0.713c-0.288,0.045-0.576,0.064-1.08,0.064h-4.313c-0.495,0-0.766-0.02-1.035-0.064V212.754z
	 M39.18,214.662h-2.566c-0.432,0-0.711-0.018-1.024-0.055v0.703c0.297-0.037,0.603-0.055,1.024-0.055h2.566v3.295
	c0,0.424-0.02,0.766-0.063,1.063h0.767c-0.046-0.289-0.063-0.613-0.063-1.063v-3.295h2.765c0.449,0,0.702,0.018,1.025,0.055v-0.703
	c-0.306,0.037-0.585,0.055-1.025,0.055h-2.765v-2.287c0-0.424,0.02-0.711,0.055-0.988h-0.747c0.035,0.297,0.055,0.584,0.055,0.988
	v2.287H39.18z"/>
<rect x="16.44" y="215.133" width="16.5" height="0.779"/>
<path d="M158.832,211.705c-0.171,0.324-0.403,0.641-0.737,0.99c-0.414,0.424-0.64,0.613-1.18,0.973
	c0.136,0.154,0.207,0.271,0.307,0.514c0.873-0.684,1.342-1.16,1.909-1.943c0.342,0.504,0.646,0.838,1.241,1.342
	c0.072-0.162,0.162-0.289,0.333-0.459c-0.64-0.486-1.07-0.945-1.332-1.414h-0.541V211.705z M161.714,217.469h2.484v1.395h-2.484
	V217.469z M161.724,214.361h2.088v1.234h-2.088V214.361z M162.462,212.525h-0.945c-0.389,0-0.612-0.01-0.838-0.027
	c0.019,0.152,0.026,0.307,0.026,0.549v0.576c0,0.199-0.009,0.361-0.026,0.521h0.485c0.01,0.217,0.01,0.324,0.01,0.613v4.24
	c0,0.422-0.01,0.639-0.046,0.873h0.596v-0.521h2.476v0.494h0.585c-0.026-0.207-0.036-0.479-0.036-0.873v-1.277
	c0-0.314,0.01-0.531,0.027-0.758c-0.207,0.027-0.405,0.037-0.766,0.037h-2.296v-0.91h1.891c0.343,0,0.595,0.01,0.783,0.037
	c-0.026-0.154-0.035-0.334-0.035-0.666v-0.883c0-0.299,0.009-0.479,0.035-0.693c-0.162,0.027-0.414,0.035-0.811,0.035h-1.646
	c-0.297,0-0.515-0.008-0.693-0.025v-0.855h3.259v1.145h0.567c-0.02-0.127-0.027-0.307-0.027-0.551v-0.529
	c0-0.227,0.009-0.424,0.027-0.596c-0.297,0.027-0.631,0.045-1.009,0.045h-1.035v-0.215c0-0.289,0.009-0.451,0.054-0.631h-0.666
	c0.036,0.217,0.055,0.396,0.055,0.631V212.525L162.462,212.525z M158.202,215.666h1.685v0.82h-1.685V215.666z M158.202,215.234
	v-0.738h1.685v0.738H158.202z M160.814,219.195c-0.36-0.666-0.819-1.387-1.225-1.936l-0.441,0.227
	c0.198,0.27,0.234,0.332,0.396,0.602c0.036,0.057,0.081,0.127,0.145,0.234c-0.558,0.199-0.828,0.279-1.485,0.451v-1.838h1.53
	c0.315,0,0.522,0.01,0.685,0.037c-0.019-0.234-0.026-0.451-0.026-0.811v-1.387c0-0.316,0.009-0.523,0.026-0.756
	c-0.161,0.025-0.388,0.035-0.746,0.035h-0.369v-0.344c0-0.242,0.009-0.387,0.045-0.539h-0.594c0.034,0.18,0.045,0.314,0.045,0.539
	v0.344h-0.486c-0.307,0-0.504-0.01-0.676-0.027c0.019,0.217,0.026,0.379,0.026,0.838v4.033c-0.378,0.09-0.423,0.09-0.63,0.117
	l0.171,0.574c0.181-0.055,0.188-0.055,0.262-0.08c1.099-0.307,1.999-0.576,2.484-0.758c0.162,0.271,0.216,0.379,0.378,0.748
	L160.814,219.195z M155.964,217.998c-0.343,0.057-0.595,0.064-1.197,0.064h-5.348c-0.604,0-0.863-0.02-1.188-0.064v0.738
	c0.324-0.045,0.657-0.063,1.197-0.063h5.338c0.55,0,0.883,0.018,1.197,0.063L155.964,217.998L155.964,217.998z M149.04,213.453
	c0.299-0.037,0.641-0.055,1.161-0.055h3.7c0.576,0,0.829,0.01,1.18,0.055v-0.721c-0.314,0.045-0.575,0.053-1.18,0.053h-3.7
	c-0.494,0-0.846-0.018-1.161-0.063V213.453z M142.679,214.902h-2.565c-0.432,0-0.711-0.02-1.025-0.055v0.703
	c0.297-0.037,0.604-0.057,1.025-0.057h2.565v3.295c0,0.426-0.019,0.768-0.063,1.064h0.767c-0.045-0.289-0.063-0.613-0.063-1.064
	v-3.295h2.764c0.45,0,0.702,0.02,1.026,0.057v-0.703c-0.306,0.035-0.585,0.055-1.026,0.055h-2.764v-2.287
	c0-0.424,0.02-0.711,0.054-0.99h-0.747c0.036,0.299,0.055,0.584,0.055,0.99L142.679,214.902L142.679,214.902z M132.454,214.768
	c0.243,0.324,0.45,0.666,0.595,0.99l0.46-0.197c-0.153-0.309-0.36-0.666-0.586-1L132.454,214.768z M131.051,212.48
	c-0.369,0-0.621-0.018-0.919-0.063v0.641c0.262-0.037,0.541-0.055,0.919-0.055h2.69v0.928h-2.224c-0.369,0-0.576-0.01-0.819-0.037
	c0.027,0.244,0.036,0.459,0.036,0.775v4.186c0,0.459-0.018,0.703-0.054,0.955h0.675c-0.036-0.225-0.045-0.396-0.045-0.928v-4.447
	h5.627v4.482c0,0.189-0.09,0.234-0.433,0.234s-0.676-0.027-1.071-0.1c0.1,0.217,0.136,0.369,0.153,0.586
	c0.352,0.025,0.647,0.045,0.937,0.045c0.783,0,0.99-0.154,0.99-0.721v-4.313c0-0.324,0.009-0.521,0.036-0.758
	c-0.227,0.027-0.441,0.037-0.812,0.037h-2.431v-0.928h2.863c0.368,0,0.639,0.018,0.927,0.055v-0.641
	c-0.226,0.047-0.486,0.063-0.927,0.063h-2.863c0-0.422,0.018-0.604,0.063-0.873h-0.691c0.045,0.262,0.063,0.432,0.063,0.873h-2.69
	V212.48z M132.526,215.813c-0.388,0-0.585-0.01-0.811-0.045v0.576c0.226-0.037,0.433-0.047,0.782-0.047h1.217v0.965h-1.072
	c-0.396,0-0.594-0.01-0.828-0.047v0.568c0.234-0.037,0.478-0.045,0.819-0.045h1.081v0.791c0,0.469-0.011,0.703-0.046,1.008h0.64
	c-0.036-0.287-0.045-0.529-0.045-1.016v-0.783h1.332c0.343,0,0.566,0.008,0.793,0.045v-0.566c-0.227,0.035-0.424,0.045-0.793,0.045
	h-1.332v-0.963h1.403c0.343,0,0.55,0.008,0.792,0.045v-0.576c-0.225,0.035-0.414,0.045-0.792,0.045h-0.685
	c0.253-0.334,0.433-0.621,0.676-1.072l-0.54-0.162c-0.188,0.459-0.396,0.838-0.712,1.234H132.526L132.526,215.813z M121.105,215.838
	c0.216-0.035,0.351-0.045,0.648-0.045h0.585v2.152c-0.531,0.512-1.063,0.908-1.433,1.07l0.308,0.594
	c0.09-0.09,0.144-0.135,0.207-0.18c0.63-0.504,0.801-0.656,1.17-1.045c0.314,0.451,0.549,0.658,0.937,0.838
	c0.513,0.242,1.125,0.324,2.493,0.324c0.766,0,2.116-0.027,3.043-0.063c0.045-0.244,0.1-0.424,0.217-0.658
	c-0.811,0.117-1.936,0.182-3.124,0.182c-1.288,0-1.954-0.063-2.358-0.234c-0.44-0.189-0.729-0.449-0.899-0.848v-1.736
	c0-0.422,0.009-0.656,0.035-0.938c-0.207,0.037-0.414,0.045-0.675,0.045h-0.469c-0.343,0-0.469-0.008-0.685-0.045V215.838
	L121.105,215.838z M121.158,212.281c0.56,0.496,0.945,0.938,1.396,1.611l0.45-0.396c-0.459-0.604-0.828-1.018-1.433-1.584
	L121.158,212.281z M124.509,216.855h3.284v0.83h-3.284V216.855z M124.518,215.621h3.275v0.775h-3.275V215.621z M124.518,214.406
	h3.275v0.756h-3.275V214.406z M124.327,212.705c-0.459,0-0.72-0.018-0.918-0.055v0.576c0.279-0.027,0.479-0.035,0.909-0.035h1.513
	c-0.09,0.252-0.188,0.469-0.343,0.746h-0.603c-0.45,0-0.738-0.008-0.945-0.035c0.027,0.207,0.045,0.566,0.045,0.883v2.529
	c0,0.307-0.009,0.604-0.027,0.873c0.234-0.02,0.576-0.027,0.884-0.027h2.861c0.263,0,0.486,0.01,0.666,0.027
	c-0.025-0.262-0.035-0.566-0.035-0.928v-2.447c0-0.354,0.01-0.631,0.035-0.91c-0.171,0.027-0.432,0.035-0.862,0.035h-1.45
	c0.152-0.287,0.233-0.449,0.343-0.746h1.674c0.324,0,0.595,0.008,0.893,0.045v-0.586c-0.207,0.037-0.459,0.055-0.893,0.055h-0.828
	c0.207-0.242,0.396-0.504,0.631-0.883l-0.53-0.197c-0.182,0.377-0.405,0.729-0.693,1.08h-0.964c-0.306-0.496-0.459-0.721-0.738-1.07
	l-0.484,0.217c0.277,0.324,0.484,0.602,0.63,0.854H124.327z"/>
<rect x="101.881" y="215.133" width="16.5" height="0.779"/>
<polyline points="89.04,46.951 120.302,28.412 119.881,27.691 88.682,46.291 "/>
<path d="M126.192,18.085c-0.171,0.324-0.405,0.641-0.738,0.99c-0.414,0.424-0.639,0.611-1.179,0.973
	c0.135,0.152,0.207,0.271,0.306,0.514c0.873-0.686,1.343-1.162,1.909-1.945c0.342,0.506,0.647,0.838,1.242,1.342
	c0.072-0.162,0.162-0.287,0.333-0.459c-0.64-0.484-1.071-0.943-1.333-1.412h-0.54V18.085z M129.073,23.849h2.485v1.395h-2.485
	V23.849z M129.083,20.742h2.089v1.232h-2.089V20.742z M129.82,18.904h-0.945c-0.387,0-0.61-0.008-0.837-0.025
	c0.02,0.152,0.027,0.307,0.027,0.549v0.576c0,0.197-0.009,0.359-0.027,0.521h0.486c0.009,0.217,0.009,0.324,0.009,0.613v4.238
	c0,0.424-0.009,0.641-0.045,0.873h0.595v-0.521h2.477v0.496h0.585c-0.027-0.207-0.036-0.479-0.036-0.873v-1.279
	c0-0.314,0.009-0.531,0.027-0.756c-0.207,0.027-0.405,0.035-0.767,0.035h-2.296v-0.908h1.892c0.343,0,0.595,0.008,0.782,0.035
	c-0.025-0.152-0.036-0.332-0.036-0.666v-0.881c0-0.299,0.011-0.479,0.036-0.693c-0.162,0.025-0.414,0.035-0.81,0.035h-1.647
	c-0.298,0-0.514-0.01-0.692-0.027v-0.854h3.259v1.143h0.567c-0.02-0.125-0.027-0.305-0.027-0.549v-0.531
	c0-0.225,0.009-0.422,0.027-0.594c-0.299,0.027-0.632,0.045-1.01,0.045h-1.034v-0.217c0-0.287,0.009-0.449,0.054-0.629h-0.666
	c0.036,0.215,0.054,0.395,0.054,0.629L129.82,18.904L129.82,18.904z M125.563,22.048h1.684v0.818h-1.684V22.048z M125.563,21.615
	v-0.738h1.684v0.738H125.563z M128.175,25.576c-0.36-0.666-0.819-1.387-1.226-1.936l-0.44,0.225
	c0.197,0.271,0.233,0.334,0.396,0.605c0.035,0.053,0.081,0.125,0.145,0.232c-0.559,0.197-0.828,0.279-1.485,0.449v-1.836h1.53
	c0.314,0,0.521,0.01,0.685,0.035c-0.019-0.232-0.027-0.449-0.027-0.811v-1.387c0-0.314,0.01-0.521,0.027-0.756
	c-0.162,0.027-0.388,0.037-0.747,0.037h-0.369v-0.344c0-0.242,0.01-0.387,0.045-0.539h-0.595c0.036,0.18,0.045,0.314,0.045,0.539
	v0.344h-0.484c-0.308,0-0.506-0.01-0.677-0.027c0.02,0.215,0.027,0.377,0.027,0.836v4.033c-0.378,0.092-0.423,0.092-0.63,0.117
	l0.171,0.576c0.18-0.055,0.188-0.055,0.261-0.08c1.1-0.307,1.999-0.576,2.484-0.756c0.162,0.27,0.217,0.377,0.379,0.746
	L128.175,25.576z M117.247,25.144v-1.604h4.492v1.604H117.247z M117.428,23.037c-0.388,0-0.63-0.01-0.811-0.035
	c0.026,0.225,0.045,0.494,0.045,0.773v1.557c0,0.271-0.019,0.631-0.055,0.865h0.64v-0.549h4.492v0.549h0.641
	c-0.036-0.234-0.056-0.566-0.056-0.846v-1.559c0-0.307,0.02-0.566,0.045-0.793c-0.188,0.027-0.423,0.037-0.846,0.037H117.428
	L117.428,23.037z M118.599,19.941c-0.324,0.703-0.612,1.125-1.271,1.873c-0.666,0.027-0.666,0.027-0.811,0.027
	c-0.207,0-0.423-0.012-0.792-0.037l0.135,0.621c0.171-0.027,0.288-0.035,0.468-0.045c2.387-0.09,3.684-0.182,5.582-0.379
	c0.279,0.279,0.423,0.424,0.837,0.873l0.45-0.395c-0.817-0.82-1.403-1.324-2.367-2.043l-0.449,0.313
	c0.521,0.379,0.711,0.523,1.063,0.828c-1.333,0.117-2.035,0.162-3.438,0.217c0.449-0.521,0.773-0.955,1.232-1.666L118.599,19.941z
	 M117.815,18.914h-1.314c-0.478,0-0.757-0.018-1.018-0.055v0.613c0.252-0.027,0.559-0.045,0.999-0.045h1.333v0.197
	c0,0.234-0.01,0.414-0.036,0.604h0.621c-0.027-0.197-0.036-0.352-0.036-0.611v-0.189h2.079v0.189c0,0.232-0.009,0.422-0.035,0.611
	h0.621c-0.027-0.207-0.036-0.352-0.036-0.611v-0.189h1.478c0.459,0,0.747,0.02,0.999,0.045v-0.611
	c-0.262,0.035-0.531,0.055-1.019,0.055h-1.458v-0.217c0-0.242,0.019-0.439,0.055-0.646h-0.657c0.036,0.207,0.054,0.422,0.054,0.646
	v0.217h-2.079v-0.217c0-0.232,0.019-0.451,0.054-0.646h-0.656c0.035,0.207,0.055,0.422,0.055,0.646v0.215H117.815z M114.495,25.08
	c-0.44-0.971-0.873-1.699-1.368-2.35l-0.469,0.252c0.515,0.686,0.893,1.379,1.314,2.441L114.495,25.08z M111.714,23.757
	c-0.469-0.576-0.792-0.908-1.377-1.396l-0.414,0.334c0.549,0.441,0.927,0.846,1.358,1.459L111.714,23.757z M108.797,22.451
	c0.045,0.316,0.055,0.516,0.055,0.83v1.844c0,0.396,0.09,0.568,0.351,0.668c0.243,0.1,0.63,0.135,1.368,0.135
	c1.972,0,2.08-0.072,2.215-1.566c-0.225-0.053-0.369-0.117-0.566-0.242c-0.026,0.594-0.071,0.918-0.162,1.063
	c-0.116,0.18-0.369,0.217-1.477,0.217c-1.045,0-1.161-0.037-1.161-0.387v-1.73c0-0.414,0.01-0.584,0.055-0.828h-0.677V22.451z
	 M106.986,25.576c0.343-0.504,0.486-0.773,0.712-1.332c0.18-0.432,0.271-0.711,0.396-1.27l-0.549-0.154
	c-0.108,0.523-0.181,0.775-0.315,1.1c-0.207,0.506-0.396,0.818-0.774,1.322L106.986,25.576z M110.103,19.355h-2.548
	c-0.396,0-0.686-0.018-0.928-0.053v0.629c0.262-0.035,0.514-0.045,0.928-0.045h2.548v1.521h-2.106c-0.378,0-0.604-0.01-0.828-0.045
	v0.604c0.226-0.035,0.46-0.045,0.838-0.045h4.915c0.368,0,0.595,0.01,0.818,0.045v-0.604c-0.225,0.035-0.439,0.045-0.818,0.045
	h-2.26v-1.521h2.709c0.353,0,0.648,0.02,0.938,0.045v-0.629c-0.243,0.035-0.54,0.053-0.938,0.053h-2.709v-0.521
	c0-0.352,0.019-0.559,0.063-0.781h-0.675c0.045,0.207,0.054,0.395,0.054,0.781L110.103,19.355L110.103,19.355z"/>
<path d="M68.248,155.463c-0.43,0.701-0.699,1.043-1.251,1.564c-0.511-0.502-0.779-0.883-1.091-1.564H68.248z M68.689,154.871
	c-0.149,0.031-0.37,0.051-0.681,0.051h-2.452c-0.37,0-0.642-0.02-0.881-0.061v0.643c0.181-0.021,0.271-0.029,0.621-0.041
	c0.369,0.832,0.71,1.344,1.29,1.926c-0.641,0.502-1.24,0.832-2.132,1.164c0.181,0.148,0.28,0.289,0.391,0.52
	c0.921-0.41,1.512-0.77,2.151-1.303c0.661,0.551,1.281,0.902,2.344,1.324c0.09-0.23,0.18-0.371,0.35-0.572
	c-0.971-0.313-1.611-0.631-2.262-1.133c0.489-0.451,0.841-0.893,1.36-1.703c0.13-0.211,0.19-0.291,0.271-0.393L68.689,154.871z
	 M62.394,158.732v1.082h-0.931v-1.082H62.394z M62.394,157.309v0.963h-0.931v-0.963H62.394z M62.943,158.271v-0.963h0.961v0.963
	H62.943z M62.943,159.814v-1.082h0.961v1.082H62.943z M62.953,161.73h0.921c0.392,0,0.592,0.01,0.871,0.059v-0.631
	c-0.25,0.041-0.439,0.051-0.86,0.051h-0.932v-0.902h0.512c0.449,0,0.721,0.01,1.011,0.041c-0.03-0.271-0.04-0.572-0.04-1.053v-1.494
	c0-0.502,0.01-0.781,0.04-1.023c-0.271,0.031-0.54,0.041-1.001,0.041h-0.521v-0.893h0.682c0.421,0,0.621,0.01,0.9,0.051v-0.633
	c-0.271,0.051-0.471,0.063-0.9,0.063h-0.682c0-0.514,0.021-0.803,0.062-1.055h-0.682c0.04,0.281,0.061,0.514,0.061,1.055h-0.852
	c-0.439,0-0.641-0.012-0.91-0.063v0.633c0.279-0.041,0.511-0.051,0.91-0.051h0.852v0.893h-0.521c-0.449,0-0.729-0.01-0.979-0.041
	c0.028,0.281,0.04,0.594,0.04,1.023v1.494c0,0.439-0.011,0.771-0.04,1.053c0.3-0.031,0.569-0.041,0.979-0.041h0.521v0.902h-0.892
	c-0.439,0-0.631-0.01-0.91-0.051v0.631c0.301-0.049,0.479-0.059,0.91-0.059h0.892v0.65c0,0.461-0.021,0.771-0.061,1.053h0.682
	c-0.04-0.26-0.062-0.563-0.062-1.043V161.73L62.953,161.73z M67.207,160.084v-0.439c0-0.541,0.012-0.803,0.062-1.053h-0.721
	c0.05,0.27,0.06,0.52,0.06,1.053v0.439h-0.78c-0.439,0-0.671-0.01-0.921-0.049v0.66c0.24-0.039,0.5-0.049,0.911-0.049h0.79v1.813
	h-1.361c-0.43,0-0.659-0.01-0.949-0.059v0.689c0.279-0.039,0.569-0.061,0.971-0.061h3.313c0.4,0,0.682,0.021,0.961,0.061V162.4
	c-0.261,0.039-0.551,0.059-0.961,0.059h-1.372v-1.813h1.103c0.399,0,0.641,0.01,0.891,0.049v-0.66
	c-0.25,0.039-0.439,0.049-0.881,0.049H67.207z M52.014,159.814c-0.491,1.334-1.103,2.486-1.563,2.947l0.58,0.521
	c0.12-0.23,0.17-0.311,0.23-0.422c0.591-1.053,0.841-1.584,1.271-2.656L52.014,159.814z M50.422,157.389
	c0.711,0.439,1.07,0.73,1.682,1.344l0.391-0.572c-0.61-0.531-0.991-0.811-1.691-1.252L50.422,157.389z M50.893,154.934
	c0.66,0.439,1.081,0.801,1.602,1.383l0.41-0.512c-0.551-0.551-0.94-0.871-1.611-1.313L50.893,154.934z M56.218,157.229h2.012v0.953
	h-2.012V157.229z M56.218,156.688v-0.883h2.012v0.883H56.218z M55.626,156.688h-1.892c-0.451,0-0.721-0.021-1.031-0.07v0.672
	c0.28-0.041,0.61-0.061,1.021-0.061h1.901v0.953h-1.472c-0.359,0-0.561-0.012-0.811-0.053v0.611c0.25-0.029,0.479-0.039,0.801-0.039
	h1.48v0.953h-1.521c-0.391,0-0.661-0.021-0.911-0.061v0.65c0.28-0.041,0.53-0.061,0.911-0.061h1.521v1.063h-1.882
	c-0.41,0-0.729-0.02-1.001-0.061v0.652c0.29-0.041,0.602-0.061,1.001-0.061h1.882v0.621c0,0.422-0.021,0.723-0.061,1.012h0.711
	c-0.04-0.289-0.06-0.58-0.06-1.021v-0.611h2.172c0.46,0,0.751,0.01,1.041,0.041v-0.633c-0.271,0.041-0.581,0.061-1.031,0.061h-2.182
	v-1.063h1.7c0.432,0,0.722,0.01,0.981,0.041v-0.633c-0.291,0.041-0.571,0.061-0.972,0.061h-1.711v-0.951h1.86
	c0.341,0,0.602,0.01,0.771,0.02c-0.021-0.211-0.029-0.4-0.029-0.752v-0.742c0.39,0,0.58,0.012,0.83,0.041v-0.643
	c-0.26,0.051-0.42,0.061-0.83,0.061v-0.662c0-0.24,0.01-0.49,0.029-0.781c-0.181,0.021-0.391,0.031-0.78,0.031h-1.852v-0.063
	c0-0.471,0.02-0.711,0.06-0.932h-0.711c0.04,0.221,0.061,0.471,0.061,0.932v0.063h-1.45c-0.371,0-0.581-0.012-0.813-0.051v0.621
	c0.261-0.029,0.48-0.039,0.801-0.039h1.462v0.883H55.626z"/>
<path d="M46.021,167.432l-0.36-0.42h29.28l-0.42,0.42v-16.619l0.42,0.359h-29.28l0.36-0.359 M45.24,150.813
	c0-0.24,0.181-0.42,0.42-0.42h29.28c0.24,0,0.36,0.18,0.36,0.42v16.619c0,0.24-0.12,0.359-0.36,0.359H45.66
	c-0.239,0-0.42-0.119-0.42-0.359V150.813z"/>
</svg>
